<svg width="50" height="50" viewBox="0 0 50 50" fill="none" xmlns="http://www.w3.org/2000/svg">
<path d="M24.8611 24.0279C28.6111 24.0279 31.5278 20.9723 31.5278 17.2223C31.5278 13.4723 28.4722 10.5557 24.7222 10.5557C20.9722 10.5557 18.0556 13.6112 18.0556 17.2223C18.0556 20.9723 21.1111 24.0279 24.8611 24.0279ZM24.7222 13.3334C24.8611 13.3334 24.8611 13.3334 24.7222 13.3334C26.9444 13.3334 28.75 15.139 28.75 17.3612C28.75 19.5834 26.9444 21.2501 24.7222 21.2501C22.5 21.2501 20.8333 19.4446 20.8333 17.3612C20.8333 15.139 22.6389 13.3334 24.7222 13.3334Z" fill="white"/>
<path d="M45.4167 23.1943C42.7778 20.8332 39.3056 19.5832 35.6944 19.7221H34.5833C34.3055 20.8332 33.8889 21.8055 33.3333 22.6388C34.1667 22.4999 34.8611 22.4999 35.6944 22.4999C38.3333 22.361 40.9722 23.1943 43.0555 24.7221V34.7221H45.8333V23.611L45.4167 23.1943Z" fill="white"/>
<path d="M32.5 10.8333C33.1944 9.16661 35.1389 8.33328 36.9444 9.02772C38.6111 9.72217 39.4444 11.6666 38.75 13.4722C38.1944 14.7222 36.9444 15.5555 35.6944 15.5555C35.4167 15.5555 35 15.5555 34.7222 15.4166C34.8611 16.1111 34.8611 16.8055 34.8611 17.3611V18.1944C35.1389 18.1944 35.4167 18.3333 35.6944 18.3333C39.1667 18.3333 41.9444 15.5555 41.9444 12.2222C41.9444 8.74995 39.1667 5.97217 35.8333 5.97217C33.6111 5.97217 31.6667 7.08328 30.5556 9.02772C31.25 9.44439 31.9444 9.99995 32.5 10.8333Z" fill="white"/>
<path d="M16.6667 22.7777C16.1111 21.9444 15.6944 20.9722 15.4167 19.8611H14.3056C10.6944 19.7222 7.22223 20.9722 4.58334 23.1944L4.16667 23.6111V34.7222H6.94445V24.7222C9.16667 23.1944 11.6667 22.3611 14.3056 22.4999C15.1389 22.4999 15.9722 22.6388 16.6667 22.7777Z" fill="white"/>
<path d="M14.3056 18.1943C14.5833 18.1943 14.8611 18.1943 15.1389 18.0554V17.2221C15.1389 16.5276 15.1389 15.8332 15.2778 15.2776C15 15.4165 14.5833 15.4165 14.3056 15.4165C12.5 15.4165 10.9722 13.8888 10.9722 12.0832C10.9722 10.2776 12.5 8.74987 14.3056 8.74987C15.6944 8.74987 16.9444 9.5832 17.5 10.8332C18.0556 10.1388 18.8889 9.44431 19.5833 8.88876C17.7778 5.97209 14.0278 4.99987 11.1111 6.80542C8.19444 8.61098 7.22222 12.361 9.02778 15.2776C10.1389 17.0832 12.0833 18.1943 14.3056 18.1943Z" fill="white"/>
<path d="M36.25 31.5277L35.9722 31.111C33.1944 28.0555 29.3056 26.2499 25.1389 26.3888C20.9722 26.2499 16.9444 28.0555 14.1667 31.111L13.8889 31.5277V42.0833C13.8889 43.3333 14.8611 44.4444 16.25 44.4444H34.0278C35.2778 44.4444 36.3889 43.3333 36.3889 42.0833V31.5277H36.25ZM33.4722 41.6666H16.6667V32.4999C18.8889 30.2777 21.9444 29.1666 25.1389 29.1666C28.1944 29.0277 31.25 30.2777 33.4722 32.4999V41.6666Z" fill="white"/>
</svg>
