<svg width="44" height="38" viewBox="0 0 44 38" fill="none" xmlns="http://www.w3.org/2000/svg">
<path d="M4.125 5.43009C3.55208 5.43009 3.01497 5.53611 2.51367 5.74815C2.01237 5.9602 1.57552 6.24999 1.20312 6.61753C0.83073 6.98507 0.537109 7.41623 0.322266 7.911C0.107422 8.40577 0 8.93588 0 9.50133V33.9288C0 34.4942 0.107422 35.0243 0.322266 35.5191C0.537109 36.0139 0.83073 36.445 1.20312 36.8126C1.57552 37.1801 2.01237 37.4699 2.51367 37.6819C3.01497 37.894 3.55208 38 4.125 38H39.875C40.4479 38 40.985 37.894 41.4863 37.6819C41.9876 37.4699 42.4245 37.1801 42.7969 36.8126C43.1693 36.445 43.4629 36.0139 43.6777 35.5191C43.8926 35.0243 44 34.4942 44 33.9288V9.50133C44 8.93588 43.8926 8.40577 43.6777 7.911C43.4629 7.41623 43.1693 6.98507 42.7969 6.61753C42.4245 6.24999 41.9876 5.9602 41.4863 5.74815C40.985 5.53611 40.4479 5.43009 39.875 5.43009H30.25V2.71593C30.25 2.33425 30.1784 1.98084 30.0352 1.65571C29.8919 1.33057 29.6986 1.04785 29.4551 0.807533C29.2116 0.567217 28.918 0.369309 28.5742 0.213811C28.2305 0.058312 27.8724 -0.0123692 27.5 0.00176703H16.5C16.1133 0.00176703 15.7552 0.0724483 15.4258 0.213811C15.0964 0.355173 14.8099 0.546013 14.5664 0.786329C14.3229 1.02664 14.1224 1.31644 13.9648 1.65571C13.8073 1.99498 13.7357 2.34838 13.75 2.71593V5.43009H4.125ZM27.5 5.43009H16.5V2.71593H27.5V5.43009ZM33 8.14425V35.2858H11V8.14425H33ZM41.25 33.9288C41.25 34.2963 41.1139 34.6144 40.8418 34.883C40.5697 35.1515 40.2474 35.2858 39.875 35.2858H35.75V8.14425H39.875C40.2474 8.14425 40.5697 8.27854 40.8418 8.54713C41.1139 8.81572 41.25 9.13378 41.25 9.50133V33.9288ZM2.75 9.50133C2.75 9.13378 2.88607 8.81572 3.1582 8.54713C3.43034 8.27854 3.75261 8.14425 4.125 8.14425H8.25V35.2858H4.125C3.75261 35.2858 3.43034 35.1515 3.1582 34.883C2.88607 34.6144 2.75 34.2963 2.75 33.9288V9.50133Z" fill="white"/>
</svg>
