<svg width="41" height="38" viewBox="0 0 41 38" fill="none" xmlns="http://www.w3.org/2000/svg">
<path d="M38.3531 4.7441H32.3221V2.9161C32.321 2.52868 32.1667 2.15743 31.8927 1.88348C31.6188 1.60953 31.2475 1.45516 30.8601 1.4541H10.3901C10.0027 1.45516 9.63142 1.60953 9.35748 1.88348C9.08353 2.15743 8.92915 2.52868 8.9281 2.9161V4.7441H2.8961C2.55721 4.74516 2.23251 4.88025 1.99287 5.11988C1.75324 5.35951 1.61815 5.68421 1.6171 6.0231C1.46315 8.92138 2.18251 11.7992 3.6821 14.2841C4.21634 15.2384 4.95436 16.0631 5.84363 16.6997C6.7329 17.3363 7.75156 17.769 8.8271 17.9671C8.95169 17.988 9.06899 18.04 9.16811 18.1183C9.26723 18.1966 9.34497 18.2987 9.3941 18.4151C10.3538 20.4963 12.0037 22.1815 14.0641 23.1851C15.5346 24.0678 17.126 24.7312 18.7881 25.1541C18.9492 25.1916 19.0929 25.2824 19.1958 25.4118C19.2987 25.5413 19.3549 25.7017 19.3551 25.8671V33.2541C19.3546 33.4478 19.2774 33.6334 19.1404 33.7704C19.0034 33.9074 18.8178 33.9846 18.6241 33.9851H12.6291C12.2965 33.9827 11.9754 34.1069 11.731 34.3326C11.4866 34.5582 11.3372 34.8683 11.3131 35.2001C11.3047 35.3733 11.3316 35.5464 11.392 35.7089C11.4525 35.8714 11.5454 36.02 11.665 36.1455C11.7845 36.2711 11.9284 36.3711 12.0877 36.4394C12.2471 36.5078 12.4187 36.543 12.5921 36.5431H28.6421C28.9747 36.5455 29.2958 36.4213 29.5402 36.1956C29.7846 35.97 29.934 35.6599 29.9581 35.3281C29.9665 35.1549 29.9396 34.9818 29.8792 34.8193C29.8187 34.6568 29.7258 34.5082 29.6062 34.3827C29.4867 34.2571 29.3428 34.1571 29.1835 34.0888C29.0241 34.0204 28.8525 33.9852 28.6791 33.9851H22.6421C22.4484 33.9846 22.2628 33.9074 22.1258 33.7704C21.9888 33.6334 21.9116 33.4478 21.9111 33.2541V25.8811C21.9113 25.7157 21.9675 25.5553 22.0704 25.4258C22.1733 25.2964 22.317 25.2056 22.4781 25.1681C24.1389 24.738 25.7299 24.0733 27.2031 23.1941C29.2635 22.1905 30.9134 20.5053 31.8731 18.4241C31.9208 18.3068 31.9981 18.2038 32.0975 18.1253C32.1968 18.0467 32.3149 17.9953 32.4401 17.9761C33.5156 17.778 34.5343 17.3453 35.4236 16.7087C36.3128 16.0721 37.0509 15.2474 37.5851 14.2931C39.0685 11.7988 39.7808 8.92137 39.6321 6.0231C39.631 5.68421 39.496 5.35951 39.2563 5.11988C39.0167 4.88025 38.692 4.74516 38.3531 4.7441ZM8.9281 14.8541C8.92847 14.9133 8.9145 14.9718 8.88738 15.0245C8.86025 15.0771 8.82078 15.1224 8.77234 15.1565C8.7239 15.1906 8.66793 15.2125 8.6092 15.2202C8.55047 15.228 8.49074 15.2214 8.4351 15.2011C7.2067 14.6978 6.2106 13.7537 5.6421 12.5541C4.82298 11.2033 4.34903 9.67151 4.2621 8.0941C4.25262 7.9925 4.26449 7.89004 4.29694 7.79329C4.32939 7.69655 4.38172 7.60766 4.45055 7.53232C4.51939 7.45699 4.60321 7.39689 4.69664 7.35586C4.79008 7.31484 4.89106 7.2938 4.9931 7.2941H8.1971C8.39081 7.29463 8.57644 7.37182 8.71341 7.50879C8.85039 7.64576 8.92757 7.83139 8.9281 8.0251V14.8541ZM35.6121 12.5541C35.0407 13.7528 34.0421 14.6947 32.8121 15.1951C32.7565 15.2154 32.6967 15.222 32.638 15.2142C32.5793 15.2065 32.5233 15.1846 32.4749 15.1505C32.4264 15.1164 32.3869 15.0711 32.3598 15.0184C32.3327 14.9658 32.3187 14.9073 32.3191 14.8481V8.0341C32.3196 7.84039 32.3968 7.65476 32.5338 7.51779C32.6708 7.38081 32.8564 7.30363 33.0501 7.3031H36.2581C36.3601 7.3028 36.4611 7.32384 36.5546 7.36486C36.648 7.40589 36.7318 7.46599 36.8006 7.54132C36.8695 7.61666 36.9218 7.70555 36.9543 7.80229C36.9867 7.89904 36.9986 8.0015 36.9891 8.1031C36.8972 9.67636 36.4246 11.2038 35.6121 12.5541Z" stroke="white" stroke-width="1.5"/>
</svg>
