<svg width="38" height="38" viewBox="0 0 38 38" fill="none" xmlns="http://www.w3.org/2000/svg">
<g filter="url(#filter0_d_1616_53)">
<path d="M19 35C27.8366 35 35 27.8366 35 19C35 10.1634 27.8366 3 19 3C10.1634 3 3 10.1634 3 19C3 27.8366 10.1634 35 19 35Z" fill="#FC5546"/>
</g>
<path d="M23.9944 14.882C23.4015 14.2831 22.6953 13.8082 21.9169 13.4851C21.1386 13.162 20.3036 12.9971 19.4609 13C15.9297 13 13.0517 15.878 13.0517 19.4092C13.0517 20.541 13.3492 21.6404 13.9054 22.6105L13 25.9347L16.3954 25.0422C17.3331 25.5531 18.3873 25.8248 19.4609 25.8248C22.992 25.8248 25.87 22.9468 25.87 19.4156C25.87 17.7018 25.2039 16.0914 23.9944 14.882ZM19.4609 24.7383C18.5037 24.7383 17.5659 24.4796 16.7446 23.9945L16.5506 23.8781L14.5328 24.4084L15.0696 22.4424L14.9402 22.2419C14.4084 21.3927 14.126 20.4111 14.1253 19.4092C14.1253 16.473 16.5182 14.0801 19.4544 14.0801C20.8772 14.0801 22.216 14.6363 23.2184 15.6452C23.7148 16.1393 24.1081 16.7269 24.3757 17.3742C24.6432 18.0214 24.7796 18.7153 24.777 19.4156C24.79 22.3518 22.397 24.7383 19.4609 24.7383ZM22.3841 20.7544C22.2224 20.6768 21.4334 20.2887 21.2911 20.2305C21.1424 20.1788 21.0389 20.1529 20.929 20.3081C20.819 20.4698 20.515 20.832 20.4245 20.9355C20.334 21.0454 20.237 21.0583 20.0753 20.9743C19.9136 20.8967 19.3962 20.722 18.7883 20.1788C18.3097 19.7519 17.9928 19.2281 17.8958 19.0664C17.8052 18.9047 17.8828 18.8206 17.9669 18.7366C18.0381 18.6654 18.1286 18.549 18.2062 18.4585C18.2838 18.3679 18.3162 18.2968 18.3679 18.1933C18.4196 18.0834 18.3938 17.9928 18.355 17.9152C18.3162 17.8376 17.9928 17.0486 17.8634 16.7252C17.7341 16.4148 17.5983 16.4536 17.5013 16.4471H17.1908C17.0809 16.4471 16.9127 16.4859 16.764 16.6476C16.6217 16.8093 16.2078 17.1973 16.2078 17.9864C16.2078 18.7754 16.7834 19.5385 16.861 19.642C16.9386 19.7519 17.9928 21.3688 19.5967 22.0608C19.9783 22.2289 20.2758 22.3259 20.5086 22.3971C20.8902 22.52 21.2394 22.5006 21.5175 22.4618C21.8279 22.4165 22.4682 22.0737 22.5975 21.6986C22.7333 21.3235 22.7333 21.0066 22.6881 20.9355C22.6428 20.8643 22.5458 20.832 22.3841 20.7544Z" fill="white"/>
<defs>
<filter id="filter0_d_1616_53" x="1" y="1" width="36" height="36" filterUnits="userSpaceOnUse" color-interpolation-filters="sRGB">
<feFlood flood-opacity="0" result="BackgroundImageFix"/>
<feColorMatrix in="SourceAlpha" type="matrix" values="0 0 0 0 0 0 0 0 0 0 0 0 0 0 0 0 0 0 127 0" result="hardAlpha"/>
<feOffset/>
<feGaussianBlur stdDeviation="1"/>
<feColorMatrix type="matrix" values="0 0 0 0 0.988235 0 0 0 0 0.333333 0 0 0 0 0.27451 0 0 0 0.612 0"/>
<feBlend mode="normal" in2="BackgroundImageFix" result="effect1_dropShadow_1616_53"/>
<feBlend mode="normal" in="SourceGraphic" in2="effect1_dropShadow_1616_53" result="shape"/>
</filter>
</defs>
</svg>
