<?xml version="1.0" standalone="no"?>
<!DOCTYPE svg PUBLIC "-//W3C//DTD SVG 20010904//EN"
 "http://www.w3.org/TR/2001/REC-SVG-20010904/DTD/svg10.dtd">
<svg version="1.0" xmlns="http://www.w3.org/2000/svg"
 width="128.000000pt" height="128.000000pt" viewBox="0 0 128.000000 128.000000"
 preserveAspectRatio="xMidYMid meet">

<g transform="translate(0.000000,128.000000) scale(0.100000,-0.100000)"
fill="#000000" stroke="none">
<path d="M600 1145 c0 -8 5 -15 10 -15 6 0 10 7 10 15 0 8 -4 15 -10 15 -5 0
-10 -7 -10 -15z"/>
<path d="M652 1148 c6 -18 28 -21 28 -4 0 9 -7 16 -16 16 -9 0 -14 -5 -12 -12z"/>
<path d="M716 1153 c-11 -11 -6 -23 9 -23 8 0 15 4 15 9 0 13 -16 22 -24 14z"/>
<path d="M540 1134 c0 -17 22 -14 28 4 2 7 -3 12 -12 12 -9 0 -16 -7 -16 -16z"/>
<path d="M770 1135 c0 -8 7 -15 15 -15 8 0 15 4 15 9 0 5 -7 11 -15 15 -9 3
-15 0 -15 -9z"/>
<path d="M491 1131 c-10 -6 -10 -10 -1 -16 13 -8 24 -1 19 14 -3 6 -10 7 -18
2z"/>
<path d="M824 1118 c-4 -6 -3 -13 3 -15 6 -2 4 -16 -6 -37 l-16 -32 -44 13
c-81 24 -249 10 -238 -20 2 -7 13 -10 23 -9 75 14 164 12 217 -3 31 -9 57 -20
57 -23 0 -4 -49 -57 -110 -117 l-110 -110 -58 58 -58 57 -52 -53 c-49 -50 -64
-77 -42 -77 6 0 27 18 49 40 21 22 42 40 47 40 5 0 32 -24 61 -52 l53 -53 125
125 125 125 27 -28 28 -27 -140 -140 -140 -140 -65 65 -65 65 -88 -88 -87 -87
-78 2 c-73 2 -77 3 -77 25 0 14 -6 23 -15 23 -11 0 -14 -9 -12 -31 2 -26 -3
-35 -36 -57 -111 -73 -132 -235 -45 -336 80 -95 212 -116 305 -49 l28 19 53
-24 c142 -67 313 -62 455 13 31 16 62 30 69 30 7 0 17 -18 23 -40 8 -30 17
-41 37 -46 43 -11 76 7 84 44 9 43 35 63 67 51 41 -16 62 -10 82 24 25 40 25
39 -5 75 -14 17 -25 41 -25 54 0 14 11 34 25 46 30 26 31 35 8 73 -21 35 -36
41 -69 28 -15 -5 -28 -8 -30 -7 -1 2 2 23 6 48 13 64 12 80 -4 80 -9 0 -16
-18 -21 -55 -7 -59 -21 -71 -31 -27 -10 41 -23 52 -63 52 -42 0 -61 -14 -61
-45 0 -12 -9 -30 -20 -40 -17 -16 -25 -17 -57 -7 -42 13 -55 6 -79 -40 -16
-31 -12 -43 23 -71 26 -21 25 -47 -4 -79 -11 -13 -23 -28 -27 -35 -8 -15 18
-69 40 -81 29 -16 -89 -53 -187 -59 -70 -5 -100 -2 -155 15 -38 12 -78 27 -88
35 -18 13 -18 15 7 52 23 34 25 45 23 121 -3 119 8 125 87 46 35 -34 67 -62
72 -62 5 0 103 93 217 207 l207 207 49 -45 c28 -24 50 -50 51 -56 1 -7 8 -13
16 -13 8 0 14 3 13 8 -2 4 10 19 25 34 l27 27 0 160 c0 221 10 211 -212 212
-138 0 -168 3 -168 15 0 17 -16 18 -26 2z m371 -70 c3 -13 4 -90 3 -172 -3
-128 -5 -150 -20 -160 -15 -9 -27 -2 -73 44 l-55 55 -208 -208 c-114 -114
-212 -207 -217 -207 -5 0 -38 28 -72 62 l-63 62 -21 -21 -21 -21 -42 43 c-22
23 -48 45 -56 48 -11 3 7 27 62 83 l78 79 68 -68 67 -67 160 160 160 160 -53
53 c-49 49 -61 74 -45 90 3 4 82 7 174 7 167 0 169 0 174 -22z m-111 -502 c5
-24 16 -41 38 -55 29 -18 35 -18 66 -5 31 13 36 12 48 -3 19 -25 18 -31 -15
-59 -41 -34 -41 -85 1 -118 26 -20 29 -26 19 -45 -13 -24 -17 -25 -59 -10 -46
16 -90 -13 -99 -63 -5 -33 -9 -38 -33 -38 -24 0 -28 5 -33 38 -9 50 -53 79
-99 63 -42 -15 -46 -14 -59 10 -10 19 -7 25 20 46 43 34 43 81 1 117 -27 23
-30 28 -19 48 6 13 13 24 14 26 1 1 17 -4 36 -12 29 -12 37 -12 61 0 31 16 48
42 48 73 0 16 6 21 29 21 25 0 30 -5 35 -34z m-755 4 c77 -39 117 -113 109
-206 -6 -72 -42 -124 -109 -158 -90 -44 -181 -27 -246 47 -117 134 -25 337
154 337 34 0 68 -7 92 -20z"/>
<path d="M993 442 c-71 -55 -32 -172 57 -172 63 0 110 65 90 125 -6 19 -21 42
-33 50 -29 20 -87 19 -114 -3z m101 -27 c40 -40 18 -107 -38 -113 -65 -8 -97
84 -42 120 19 13 64 9 80 -7z"/>
<path d="M146 461 c-7 -11 32 -71 45 -71 4 0 9 -12 11 -27 3 -31 28 -41 62
-25 11 6 30 12 40 14 31 5 32 28 1 28 -14 0 -37 7 -50 16 -14 9 -25 13 -25 8
0 -4 -17 9 -39 30 -23 23 -41 34 -45 27z"/>
<path d="M436 1113 c-11 -11 -6 -23 9 -23 8 0 15 4 15 9 0 13 -16 22 -24 14z"/>
<path d="M386 1083 c-11 -11 -6 -23 9 -23 8 0 15 4 15 9 0 13 -16 22 -24 14z"/>
<path d="M335 1050 c-4 -6 -3 -16 3 -22 6 -6 12 -6 17 2 4 6 3 16 -3 22 -6 6
-12 6 -17 -2z"/>
<path d="M480 1020 c-12 -7 -12 -10 3 -16 21 -8 29 -3 19 13 -5 8 -13 9 -22 3z"/>
<path d="M290 1005 c0 -9 5 -15 11 -13 6 2 11 8 11 13 0 5 -5 11 -11 13 -6 2
-11 -4 -11 -13z"/>
<path d="M425 991 c-7 -12 12 -24 25 -16 11 7 4 25 -10 25 -5 0 -11 -4 -15 -9z"/>
<path d="M255 970 c-4 -6 -3 -16 3 -22 6 -6 12 -6 17 2 4 6 3 16 -3 22 -6 6
-12 6 -17 -2z"/>
<path d="M385 960 c-4 -6 -3 -16 3 -22 6 -6 12 -6 17 2 4 6 3 16 -3 22 -6 6
-12 6 -17 -2z"/>
<path d="M215 919 c-10 -15 1 -23 20 -15 9 3 13 10 10 16 -8 13 -22 13 -30 -1z"/>
<path d="M345 920 c-4 -6 -3 -16 3 -22 6 -6 12 -6 17 2 4 6 3 16 -3 22 -6 6
-12 6 -17 -2z"/>
<path d="M190 865 c0 -9 5 -15 11 -13 6 2 11 8 11 13 0 5 -5 11 -11 13 -6 2
-11 -4 -11 -13z"/>
<path d="M307 874 c-8 -8 1 -24 14 -24 5 0 9 7 9 15 0 15 -12 20 -23 9z"/>
<path d="M277 824 c-8 -8 1 -24 14 -24 5 0 9 7 9 15 0 15 -12 20 -23 9z"/>
<path d="M166 811 c-3 -5 1 -11 9 -15 9 -3 15 0 15 9 0 16 -16 20 -24 6z"/>
<path d="M260 770 c0 -5 5 -10 11 -10 5 0 7 5 4 10 -3 6 -8 10 -11 10 -2 0 -4
-4 -4 -10z"/>
<path d="M150 755 c0 -9 5 -15 11 -13 6 2 11 8 11 13 0 5 -5 11 -11 13 -6 2
-11 -4 -11 -13z"/>
<path d="M335 730 c-4 -6 -3 -16 3 -22 6 -6 12 -6 17 2 4 6 3 16 -3 22 -6 6
-12 6 -17 -2z"/>
<path d="M140 694 c0 -17 22 -14 28 4 2 7 -3 12 -12 12 -9 0 -16 -7 -16 -16z"/>
<path d="M290 675 c0 -9 5 -15 11 -13 6 2 11 8 11 13 0 5 -5 11 -11 13 -6 2
-11 -4 -11 -13z"/>
<path d="M245 640 c-4 -6 -3 -16 3 -22 6 -6 12 -6 17 2 4 6 3 16 -3 22 -6 6
-12 6 -17 -2z"/>
<path d="M490 265 c0 -9 5 -15 11 -13 6 2 11 8 11 13 0 5 -5 11 -11 13 -6 2
-11 -4 -11 -13z"/>
<path d="M770 255 c0 -8 7 -15 15 -15 8 0 15 7 15 15 0 8 -7 15 -15 15 -8 0
-15 -7 -15 -15z"/>
<path d="M547 253 c-12 -11 -8 -23 8 -23 8 0 15 7 15 15 0 16 -12 20 -23 8z"/>
<path d="M726 251 c-4 -7 -5 -15 -2 -18 9 -9 19 4 14 18 -4 11 -6 11 -12 0z"/>
<path d="M600 235 c0 -8 7 -15 15 -15 8 0 15 7 15 15 0 8 -7 15 -15 15 -8 0
-15 -7 -15 -15z"/>
<path d="M660 236 c0 -9 7 -16 16 -16 17 0 14 22 -4 28 -7 2 -12 -3 -12 -12z"/>
</g>
</svg>
