<svg width="210" height="60" viewBox="0 0 210 60" fill="none" xmlns="http://www.w3.org/2000/svg">
<path d="M54.6328 0.399902H64.2863V59.9999H54.6328V0.399902Z" fill="white"/>
<path d="M97.8641 41.1127C97.8641 50.3465 90.3092 51.1859 87.7909 51.1859C81.9148 51.1859 81.0754 45.7296 81.0754 42.7915V19.707H71.4219V42.3718C71.4219 47.8282 73.1007 52.8648 76.4585 55.8028C79.3965 58.7408 83.174 60 87.7909 60C91.1486 60 95.3458 59.1606 97.8641 56.6422V60H107.518V19.707H97.8641V41.1127Z" fill="white"/>
<path d="M126.406 5.01709H116.752V19.7072H109.617V28.941H116.752V60.0002H126.406V28.941H133.541V19.7072H126.406V5.01709Z" fill="white"/>
<path d="M163.76 47.8282C161.661 49.5071 158.723 50.7663 155.785 50.7663C149.069 50.7663 144.453 45.7296 144.453 39.0142C144.453 32.2987 149.069 27.6818 155.785 27.6818C158.723 27.6818 161.661 28.5212 163.76 30.6198L165.019 31.8789L171.734 25.5832L170.055 24.324C166.278 20.9663 161.241 18.8677 155.785 18.8677C144.033 18.8677 135.219 27.6818 135.219 39.4339C135.219 51.186 144.033 60.0001 155.785 60.0001C161.241 60.0001 166.278 57.9015 170.055 54.5437L171.734 53.2846L165.019 46.5691L163.76 47.8282Z" fill="white"/>
<path d="M205.732 23.0647C202.794 20.1267 199.856 18.8675 195.239 18.8675C191.881 18.8675 188.523 19.7069 186.005 22.2253V0.399902H176.352V59.9999H186.005V37.7548C186.005 28.521 192.301 27.6816 194.819 27.6816C200.695 27.6816 200.276 33.1379 200.276 36.076V59.5802H209.929V36.4957C209.929 31.0393 208.67 26.0027 205.732 23.0647Z" fill="white"/>
<path d="M155.368 46.1493C159.077 46.1493 162.083 43.1426 162.083 39.4338C162.083 35.7249 159.077 32.7183 155.368 32.7183C151.659 32.7183 148.652 35.7249 148.652 39.4338C148.652 43.1426 151.659 46.1493 155.368 46.1493Z" fill="#EF4335"/>
<path d="M41.2027 45.3097C37.845 48.6675 32.8083 50.7661 27.352 50.7661C16.859 50.7661 9.30412 42.3717 9.30412 31.0393C9.30412 19.7069 16.859 11.3126 27.7717 11.3126C32.8083 11.3126 37.845 13.4112 41.6224 17.1886L42.8816 18.4478L49.1774 12.152L47.9182 10.8928C42.4619 5.4365 35.3267 2.49847 27.7717 2.49847C11.8224 2.07876 0.0703125 14.6703 0.0703125 31.0393C0.0703125 47.4083 11.8224 59.9999 27.352 59.9999C34.9069 59.9999 42.4619 57.0619 47.4985 51.6055L48.7576 50.3464L42.4619 44.0506L41.2027 45.3097Z" fill="white"/>
</svg>
