<?xml version="1.0" encoding="UTF-8"?>
<svg id="Layer_2" data-name="Layer 2" xmlns="http://www.w3.org/2000/svg" width="2352.1" height="626.5" viewBox="0 0 2352.1 626.5">
  <defs>
    <style>
      .cls-1 {
        fill: #303030;
      }

      .cls-1, .cls-2, .cls-3 {
        stroke-width: 0px;
      }

      .cls-2 {
        fill: #0e2b5c;
      }

      .cls-3 {
        fill: #fc5546;
      }
    </style>
  </defs>
  <g id="Layer_1-2" data-name="Layer 1">
    <g>
      <circle class="cls-2" cx="200" cy="303.5" r="70"/>
      <path class="cls-3" d="M391.38,303.38c0,108.07-87.62,195.69-195.69,195.69S0,411.45,0,303.38,87.61,107.69,195.69,107.69c20.17,0,39.63,3.05,57.94,8.72v78.96c-17.25-9.28-36.97-14.54-57.94-14.54-67.69,0-122.55,54.86-122.55,122.55s54.86,122.55,122.55,122.55,122.55-54.87,122.55-122.55c0-11.21,4.58-23.56,1.76-33.88l1-122c47.06,35.74,70.38,92.21,70.38,155.88Z"/>
      <path class="cls-3" d="M391,626.5l-74.78-84.78L318,.5c24.33-.17,48.67-.33,73-.5v626.5Z"/>
      <rect class="cls-3" x="389" y="125.5" width="112" height="74"/>
      <g>
        <path class="cls-2" d="M611.45,391.27V3.77h310c21.39,0,39.55,7.67,54.49,23.01,15.34,15.34,23.01,33.51,23.01,54.49v232.5c0,21.8-7.67,40.17-23.01,55.1-15.34,14.94-33.51,22.4-54.49,22.4h-310ZM882.7,313.77c10.49,0,19.57-3.63,27.25-10.9,7.66-7.66,11.5-16.95,11.5-27.85V120.02c0-10.49-3.84-19.57-11.5-27.25-7.67-7.66-16.75-11.5-27.25-11.5h-193.75v232.5h193.75Z"/>
        <path class="cls-2" d="M1333.75,468.77l-77.5-77.5h-116.25c-21.8,0-40.17-7.46-55.1-22.4-14.94-15.33-22.4-33.7-22.4-55.1V81.27c0-21.39,7.46-39.55,22.4-54.49s33.7-23.01,55.1-23.01h232.5c21.39,0,39.55,7.67,54.49,23.01,15.34,15.34,23.01,33.51,23.01,54.49v232.5c0,21.8-7.67,40.17-23.01,55.1-15.34,14.94-33.51,22.4-54.49,22.4l77.5,77.5h-116.25ZM1333.75,313.77c10.49,0,19.57-3.63,27.25-10.9,7.66-7.66,11.5-16.95,11.5-27.85V120.02c0-10.49-3.84-19.57-11.5-27.25-7.67-7.66-16.75-11.5-27.25-11.5h-155c-10.9,0-20.19,3.84-27.85,11.5-7.27,7.67-10.9,16.75-10.9,27.25v155c0,10.9,3.63,20.19,10.9,27.85,7.66,7.27,16.95,10.9,27.85,10.9h155Z"/>
        <path class="cls-2" d="M1591.05,391.27c-21.8,0-40.17-7.46-55.1-22.4-14.94-15.33-22.4-33.7-22.4-55.1V81.27c0-21.39,7.46-39.55,22.4-54.49s33.7-23.01,55.1-23.01h232.5c21.39,0,39.55,7.67,54.49,23.01,15.34,15.34,23.01,33.51,23.01,54.49v232.5c0,21.8-7.67,40.17-23.01,55.1-15.34,14.94-33.51,22.4-54.49,22.4h-232.5ZM1784.8,313.77c10.49,0,19.57-3.63,27.25-10.9,7.66-7.66,11.5-16.95,11.5-27.85V120.02c0-10.49-3.84-19.57-11.5-27.25-7.67-7.66-16.75-11.5-27.25-11.5h-155c-10.9,0-20.19,3.84-27.85,11.5-7.27,7.67-10.9,16.75-10.9,27.25v155c0,10.9,3.63,20.19,10.9,27.85,7.66,7.27,16.95,10.9,27.85,10.9h155Z"/>
        <path class="cls-2" d="M2119.6,391.27V81.27h-155V3.77h387.5v77.5h-155v310h-77.5Z"/>
      </g>
      <g>
        <path class="cls-1" d="M600,585.81v-57.08h45.66c3.15,0,5.83,1.13,8.03,3.39,2.26,2.26,3.39,4.94,3.39,8.03v34.25c0,3.21-1.13,5.92-3.39,8.12-2.26,2.2-4.94,3.3-8.03,3.3h-45.66ZM639.95,574.4c1.55,0,2.88-.54,4.01-1.61,1.13-1.13,1.69-2.5,1.69-4.1v-22.83c0-1.55-.57-2.88-1.69-4.01-1.13-1.13-2.47-1.69-4.01-1.69h-28.54v34.25h28.54Z"/>
        <path class="cls-1" d="M686.53,585.81v-57.08h57.08v11.42h-45.66v11.42h34.25v11.42h-34.25v11.42h45.66v11.42h-57.08Z"/>
        <path class="cls-1" d="M773.05,585.81v-57.08h11.42v45.66h45.66v11.42h-57.08Z"/>
        <path class="cls-1" d="M859.58,585.81v-57.08h11.42v57.08h-11.42Z"/>
        <path class="cls-1" d="M900.44,528.74h11.42l17.12,34.25,17.12-34.25h11.42l-28.54,57.08-28.54-57.08Z"/>
        <path class="cls-1" d="M986.97,585.81v-57.08h57.08v11.42h-45.66v11.42h34.25v11.42h-34.25v11.42h45.66v11.42h-57.08Z"/>
        <path class="cls-1" d="M1073.49,585.81v-57.08h45.66c3.15,0,5.83,1.13,8.03,3.39,2.26,2.26,3.39,4.94,3.39,8.03v11.42c0,3.21-1.13,5.92-3.39,8.12-2.26,2.2-4.94,3.3-8.03,3.3l22.83,22.83h-17.12l-34.25-34.25h22.83c1.55,0,2.88-.54,4.01-1.61,1.13-1.13,1.69-2.5,1.69-4.1s-.57-2.88-1.69-4.01c-1.13-1.13-2.47-1.69-4.01-1.69h-28.54v45.66h-11.42Z"/>
        <path class="cls-1" d="M1252.25,597.23l-11.42-11.42h-17.12c-3.21,0-5.92-1.1-8.12-3.3-2.2-2.26-3.3-4.96-3.3-8.12v-34.25c0-3.15,1.1-5.83,3.3-8.03s4.96-3.39,8.12-3.39h34.25c3.15,0,5.83,1.13,8.03,3.39,2.26,2.26,3.39,4.94,3.39,8.03v34.25c0,3.21-1.13,5.92-3.39,8.12-2.26,2.2-4.94,3.3-8.03,3.3l11.42,11.42h-17.12ZM1252.25,574.4c1.55,0,2.88-.54,4.01-1.61,1.13-1.13,1.69-2.5,1.69-4.1v-22.83c0-1.55-.57-2.88-1.69-4.01-1.13-1.13-2.47-1.69-4.01-1.69h-22.83c-1.61,0-2.97.57-4.1,1.69-1.07,1.13-1.6,2.47-1.6,4.01v22.83c0,1.6.54,2.97,1.6,4.1,1.13,1.07,2.5,1.61,4.1,1.61h22.83Z"/>
        <path class="cls-1" d="M1310.24,585.81c-3.21,0-5.92-1.1-8.12-3.3-2.2-2.26-3.3-4.96-3.3-8.12v-45.66h11.42v39.95c0,1.6.54,2.97,1.6,4.1,1.13,1.07,2.5,1.61,4.1,1.61h22.83c1.55,0,2.88-.54,4.01-1.61,1.13-1.13,1.69-2.5,1.69-4.1v-39.95h11.42v45.66c0,3.21-1.13,5.92-3.39,8.12-2.26,2.2-4.94,3.3-8.03,3.3h-34.25Z"/>
        <path class="cls-1" d="M1379.64,585.81l28.54-57.08,28.54,57.08h-11.42l-2.85-5.71h-28.54l-2.85,5.71h-11.42ZM1416.74,568.69l-8.56-17.12-8.56,17.12h17.12Z"/>
        <path class="cls-1" d="M1460.46,585.81v-57.08h11.42v45.66h45.66v11.42h-57.08Z"/>
        <path class="cls-1" d="M1546.99,585.81v-57.08h11.42v57.08h-11.42Z"/>
        <path class="cls-1" d="M1610.68,585.81v-45.66h-22.83v-11.42h57.08v11.42h-22.83v45.66h-11.42Z"/>
        <path class="cls-1" d="M1697.21,585.81v-28.54l-28.54-28.54h17.12l17.12,17.12,17.12-17.12h17.12l-28.54,28.54v28.54h-11.42Z"/>
        <path class="cls-1" d="M1824.6,585.81c-3.21,0-5.92-1.1-8.12-3.3-2.2-2.26-3.3-4.96-3.3-8.12v-34.25c0-3.15,1.1-5.83,3.3-8.03s4.96-3.39,8.12-3.39h34.25c3.15,0,5.83,1.13,8.03,3.39,2.26,2.26,3.39,4.94,3.39,8.03v34.25c0,3.21-1.13,5.92-3.39,8.12-2.26,2.2-4.94,3.3-8.03,3.3h-34.25ZM1853.14,574.4c1.55,0,2.88-.54,4.01-1.61,1.13-1.13,1.69-2.5,1.69-4.1v-22.83c0-1.55-.57-2.88-1.69-4.01-1.13-1.13-2.47-1.69-4.01-1.69h-22.83c-1.6,0-2.97.57-4.1,1.69-1.07,1.13-1.61,2.47-1.61,4.01v22.83c0,1.6.54,2.97,1.61,4.1,1.13,1.07,2.5,1.61,4.1,1.61h22.83Z"/>
        <path class="cls-1" d="M1899.71,585.81v-57.08h11.42l39.95,39.95v-39.95h11.42v57.08h-11.42l-39.95-39.95v39.95h-11.42Z"/>
        <path class="cls-1" d="M2067.05,585.81v-45.66h-22.83v-11.42h57.08v11.42h-22.83v45.66h-11.42Z"/>
        <path class="cls-1" d="M2130.75,585.81v-57.08h11.42v57.08h-11.42Z"/>
        <path class="cls-1" d="M2171.62,585.81v-57.08h11.42l22.83,22.83,22.83-22.83h11.42v57.08h-11.42v-39.95l-22.83,22.83-22.83-22.83v39.95h-11.42Z"/>
        <path class="cls-1" d="M2269.56,585.81v-57.08h57.08v11.42h-45.66v11.42h34.25v11.42h-34.25v11.42h45.66v11.42h-57.08Z"/>
      </g>
    </g>
  </g>
</svg>