<svg width="277" height="91" viewBox="0 0 277 91" fill="none" xmlns="http://www.w3.org/2000/svg">
<path d="M68.7361 32.1267H36.5142V41.6877H59.3681C58.2357 55.0706 47.0842 60.815 36.5528 60.815C33.2166 60.8297 29.9108 60.1795 26.8285 58.9026C23.7463 57.6256 20.9492 55.7475 18.6008 53.3777C16.2524 51.0079 14.3995 48.1941 13.1505 45.1004C11.9015 42.0067 11.2813 38.6952 11.3261 35.3592C11.3261 20.8851 22.5317 9.74122 36.5837 9.74122C47.4239 9.74122 53.8116 16.6514 53.8116 16.6514L60.5031 9.71806C60.5031 9.71806 51.9071 0.151855 36.2337 0.151855C16.2752 0.151855 0.835938 16.9963 0.835938 35.1893C0.835938 53.0169 15.359 70.4018 36.7381 70.4018C55.5437 70.4018 69.3101 57.5182 69.3101 38.4681C69.3101 34.4481 68.7259 32.1267 68.7259 32.1267H68.7361Z" fill="#4885ED"/>
<path d="M95.1331 25.2008C81.9097 25.2008 72.4336 35.5391 72.4336 47.5914C72.4336 59.8265 81.6215 70.3552 95.2875 70.3552C107.656 70.3552 117.789 60.9023 117.789 47.8539C117.789 32.9269 106.002 25.1982 95.1331 25.1982V25.2008ZM95.2617 34.0696C101.763 34.0696 107.924 39.3275 107.924 47.7973C107.924 56.0844 101.788 61.4942 95.2309 61.4942C88.0247 61.4942 82.3627 55.7241 82.3627 47.7304C82.3627 39.9066 87.9732 34.0696 95.2823 34.0696H95.2617Z" fill="#DB3236"/>
<path d="M144.504 25.2008C131.281 25.2008 121.805 35.5391 121.805 47.5914C121.805 59.8265 130.993 70.3552 144.659 70.3552C157.027 70.3552 167.16 60.9023 167.16 47.8539C167.16 32.9269 155.373 25.1982 144.504 25.1982V25.2008ZM144.633 34.0696C151.134 34.0696 157.295 39.3275 157.295 47.7973C157.295 56.0844 151.16 61.4942 144.602 61.4942C137.396 61.4942 131.734 55.7241 131.734 47.7304C131.734 39.9066 137.344 34.0696 144.653 34.0696H144.633Z" fill="#F4C20D"/>
<path d="M192.921 25.2271C180.784 25.2271 171.246 35.8562 171.246 47.7875C171.246 61.3763 182.305 70.3892 192.71 70.3892C199.144 70.3892 202.567 67.8336 205.064 64.9022V69.3546C205.064 77.145 200.333 81.811 193.194 81.811C186.297 81.811 182.838 76.6817 181.613 73.7735L172.934 77.3766C176.012 83.8879 182.21 90.6746 193.266 90.6746C205.362 90.6746 214.529 83.0746 214.529 67.1335V26.5834H205.1V30.4078C202.191 27.2679 198.207 25.2271 192.926 25.2271H192.921ZM193.796 34.0804C199.747 34.0804 205.856 39.1607 205.856 47.8364C205.856 56.6563 199.757 61.5153 193.665 61.5153C187.195 61.5153 181.175 56.2651 181.175 47.9188C181.175 39.2508 187.429 34.0804 193.796 34.0804Z" fill="#4885ED"/>
<path d="M256.681 25.1729C245.234 25.1729 235.621 34.2835 235.621 47.7179C235.621 61.9398 246.335 70.3736 257.754 70.3736C267.308 70.3736 273.196 65.1491 276.671 60.4651L268.865 55.2715C266.839 58.4113 263.452 61.4868 257.803 61.4868C251.457 61.4868 248.538 58.0124 246.729 54.641L277.003 42.0816L275.458 38.4013C272.535 31.1952 265.709 25.1729 256.681 25.1729ZM257.075 33.8563C261.2 33.8563 264.168 36.049 265.429 38.6793L245.21 47.1285C244.335 40.5864 250.538 33.8563 257.049 33.8563H257.075Z" fill="#DB3236"/>
<path d="M221.164 69.0357H231.109V2.48926H221.164V69.0357Z" fill="#3CBA54"/>
</svg>
