<?xml version="1.0" ?><svg id="Layer_1" style="enable-background:new 0 0 120 120;" version="1.1" viewBox="0 0 120 120" xml:space="preserve" xmlns="http://www.w3.org/2000/svg" xmlns:xlink="http://www.w3.org/1999/xlink"><style type="text/css">
	.st0{fill:none;}
	.st1{fill:#F4D0AE;}
	.st2{fill:#5DE88B;}
	.st3{fill:#FFDEBB;}
</style><line class="st0" x1="60" x2="60" y1="-67.7" y2="-73.2"/><g><rect class="st1" height="15.7" width="12.1" x="53.9" y="63.1"/><path class="st2" d="M104,59.4L86.5,72.2c-0.8,0.5-1.8,0-1.8-0.9v-5.5c0-0.6-0.5-1.1-1.1-1.1l-47.2,0.1c-0.6,0-1.1,0.5-1.1,1.1v5.5   c0,0.9-1.1,1.4-1.8,0.9L16,59.4c-0.6-0.4-0.6-1.4,0-1.8l17.5-12.8c0.8-0.5,1.8,0,1.8,0.9v5.5c0,0.6,0.5,1.1,1.1,1.1h16.3   c0.6,0,1.1-0.5,1.1-1.1V34.9c0-0.6-0.5-1.1-1.1-1.1h-5.5c-0.9,0-1.4-1.1-0.9-1.8l12.8-17.5c0.4-0.6,1.4-0.6,1.8,0L73.8,32   c0.5,0.8,0,1.8-0.9,1.8h-5.5c-0.6,0-1.1,0.5-1.1,1.1v16.2c0,0.6,0.5,1.1,1.1,1.1h16.2c0.6,0,1.1-0.5,1.1-1.1v-5.5   c0-0.9,1.1-1.4,1.8-0.9L104,57.6C104.6,58,104.6,59,104,59.4z"/><g><path class="st3" d="M60,73.3c-17.5,0-31.8,13.8-32.6,31.1c0,0.9,0.6,1.6,1.5,1.6l62.2-0.1c0.9,0,1.5-0.7,1.5-1.6    C91.8,87.1,77.5,73.3,60,73.3z"/><circle class="st3" cx="60" cy="56.9" r="13.7"/></g></g></svg>