<svg id="Layer_1" data-name="Layer 1" xmlns="http://www.w3.org/2000/svg" viewBox="0 0 48 48"><defs><style>.cls-1{fill:#ffba55;}.cls-2{fill:#c6c3d8;}.cls-3{fill:#a9a5c4;}.cls-4{fill:#ffde76;}.cls-5{fill:#fff;}</style></defs><title>idea, thought, innovation, dollar, money, finance</title><path class="cls-1" d="M37,22A13,13,0,1,0,15.67,32,6.23,6.23,0,0,1,18,36.73V37H30v-.11a6.16,6.16,0,0,1,2.19-4.8A13,13,0,0,0,37,22Z"/><path class="cls-2" d="M30,37v4.37a4.48,4.48,0,0,1-.32,1.68,4.61,4.61,0,0,1-4.31,3H22.63a4.55,4.55,0,0,1-3.06-1.17A4.36,4.36,0,0,1,18.31,43,4.52,4.52,0,0,1,18,41.37V37Z"/><path class="cls-3" d="M22,46h4a0,0,0,0,1,0,0v0a2,2,0,0,1-2,2h0a2,2,0,0,1-2-2v0A0,0,0,0,1,22,46Z"/><polygon class="cls-3" points="30 37 30 38.93 18 41.04 18 39.01 29.42 37 30 37"/><path class="cls-3" d="M29.85,41v.41a4.3,4.3,0,0,1-.33,1.68l-10.1,1.78A4.48,4.48,0,0,1,18.15,43Z"/><rect class="cls-4" x="41" y="21" width="5" height="2"/><rect class="cls-4" x="2" y="21" width="5" height="2"/><rect class="cls-4" x="41" y="21" width="5" height="2"/><rect class="cls-4" x="2" y="21" width="5" height="2"/><rect class="cls-4" x="21.5" y="1.5" width="5" height="2" transform="translate(26.5 -21.5) rotate(90)"/><rect class="cls-4" x="35.29" y="34.79" width="5" height="2" transform="translate(36.37 -16.24) rotate(45)"/><rect class="cls-4" x="7.71" y="7.21" width="5" height="2" transform="translate(8.8 -4.82) rotate(45)"/><rect class="cls-4" x="35.29" y="34.79" width="5" height="2" transform="translate(36.37 -16.24) rotate(45)"/><rect class="cls-4" x="7.71" y="7.21" width="5" height="2" transform="translate(8.8 -4.82) rotate(45)"/><rect class="cls-4" x="7.71" y="34.79" width="5" height="2" transform="translate(42.74 53.87) rotate(135)"/><rect class="cls-4" x="35.29" y="7.21" width="5" height="2" transform="translate(70.32 -12.7) rotate(135)"/><circle class="cls-4" cx="24" cy="22" r="9"/><circle class="cls-1" cx="24" cy="22" r="7"/><path class="cls-5" d="M23.5,20H27V18H25V16H23v2.05a2.51,2.51,0,0,0-1.89,3.22A2.55,2.55,0,0,0,23.58,23h.92a.5.5,0,0,1,0,1H21v2h2v2h2V26a2.51,2.51,0,0,0,1.89-3.22A2.55,2.55,0,0,0,24.42,21H23.5a.5.5,0,0,1,0-1Z"/></svg>