<svg width="49" height="49" viewBox="0 0 49 49" fill="none" xmlns="http://www.w3.org/2000/svg">
<path d="M24.478 48.9561C37.9969 48.9561 48.9561 37.9969 48.9561 24.478C48.9561 10.9592 37.9969 0 24.478 0C10.9592 0 0 10.9592 0 24.478C0 37.9969 10.9592 48.9561 24.478 48.9561Z" fill="black"/>
<path d="M9.99641 36.6988L10.1448 36.9658C10.3821 36.7284 10.7085 36.6097 11.0349 36.5801C11.5393 36.5801 12.014 36.8471 12.281 37.2625C12.4294 37.0548 12.6074 36.8768 12.8151 36.7581C13.0228 36.6394 13.2601 36.5801 13.4975 36.5801C13.9426 36.5801 14.358 36.7878 14.625 37.1141C14.9217 37.4702 15.0997 37.9449 15.0997 38.4196V40.1702H14.1799V38.4196C14.1799 38.1823 14.1206 37.9449 13.9722 37.7372C13.8536 37.5592 13.6459 37.4405 13.4085 37.4702C13.2008 37.4702 12.9931 37.5592 12.8744 37.7372C12.7261 37.9152 12.6371 38.1229 12.6371 38.3603V40.1702H11.7173V38.4196C11.7173 38.1823 11.6579 37.9449 11.4799 37.7372C11.3612 37.5592 11.1536 37.4405 10.9162 37.4702C10.7382 37.4702 10.5601 37.5295 10.4415 37.6482C10.3228 37.7966 10.2041 37.9449 10.1744 38.1229V40.1405H9.19531V36.6988H9.99641Z" fill="#15BFBF"/>
<path d="M19.8203 36.6988H20.5917V40.1999H19.7313V39.8439C18.9895 40.4669 17.8917 40.4373 17.2093 39.7548C16.4972 39.0428 16.4676 37.8559 17.2093 37.1142C17.8917 36.4318 18.9895 36.4021 19.7313 37.0252L19.8203 36.6988ZM19.2862 39.1318C19.4643 38.9537 19.5533 38.7164 19.5533 38.4493C19.5533 38.1823 19.4643 37.9449 19.2862 37.7669C19.1082 37.5889 18.9005 37.4999 18.6335 37.4999C18.3961 37.4999 18.1588 37.5889 17.9807 37.7669C17.8027 37.9449 17.7137 38.1823 17.7137 38.4493C17.7137 38.6867 17.8027 38.9537 17.9807 39.1318C18.1588 39.3098 18.3961 39.3988 18.6335 39.3988C18.9005 39.4285 19.1379 39.3098 19.2862 39.1318Z" fill="#15BFBF"/>
<path d="M24.0615 36.6988H24.8626V37.6483H24.0615V40.1999H23.023V37.6483H22.2812V36.6988H23.023V35.3933H24.0615V36.6988Z" fill="#15BFBF"/>
<path d="M27.3808 36.6989L27.5292 37.0846C27.8259 36.7286 28.2709 36.5505 28.716 36.6099C28.9237 36.6099 29.1314 36.6395 29.3094 36.6989L28.9237 37.589C28.6566 37.4703 28.3599 37.4703 28.0929 37.6187C27.8555 37.7374 27.6775 37.9747 27.6182 38.2714V40.2H26.6094V36.6989H27.3808Z" fill="#15BFBF"/>
<path d="M33.4687 36.6988H34.2402V40.1999H33.3797V39.8439C32.638 40.4669 31.5402 40.4373 30.8577 39.7548C30.1457 39.0428 30.116 37.8559 30.8577 37.1142C31.5402 36.4318 32.638 36.4021 33.3797 37.0252L33.4687 36.6988ZM32.9347 39.1318C33.1127 38.9537 33.2017 38.7164 33.2017 38.4493C33.2017 38.1823 33.1127 37.9449 32.9347 37.7669C32.7567 37.5889 32.549 37.4999 32.2819 37.4999C32.0446 37.4999 31.8072 37.5889 31.6292 37.7669C31.4512 37.9449 31.3621 38.1823 31.3621 38.4493C31.3621 38.6867 31.4512 38.9537 31.6292 39.1318C31.8072 39.3098 32.0446 39.3988 32.2819 39.3988C32.549 39.4285 32.7863 39.3098 32.9347 39.1318Z" fill="#15BFBF"/>
<path d="M37.354 38.8351V40.2296H36.2266V35.3933H37.354V38.0636L38.4815 36.7285H39.787L38.3628 38.39L39.7573 40.2296H38.4815" fill="#15BFBF"/>
<path d="M14.2689 33.2309L9.19531 30.0562V12.7287L14.2689 9.49463L24.4755 15.1023L34.6821 9.49463L39.7558 12.7287V30.0562L34.7118 33.2309V15.5177L24.4755 21.3628L14.2689 15.5177V33.2309Z" fill="#00FFF2"/>
<path d="M19.3471 29.9822V18.4404L14.2734 15.5327V33.2162L19.3471 29.9822Z" fill="#15BFBF"/>
<path d="M29.6172 29.9822V18.4404L34.6908 15.5327V33.2162L29.6172 29.9822Z" fill="#15BFBF"/>
<path d="M14.2656 9.49463L24.4722 15.1023L34.7085 9.49463L24.5019 21.3628L14.2656 9.49463Z" fill="#15BFBF"/>
</svg>
