<svg width="70" height="23" viewBox="0 0 70 23" fill="none" xmlns="http://www.w3.org/2000/svg">
<g clip-path="url(#clip0_2539_2341)">
<path d="M61.5404 22.976C66.2054 22.976 69.9871 19.0726 69.9871 14.2576C69.9871 9.44263 66.2054 5.53931 61.5404 5.53931C56.8755 5.53931 53.0938 9.44263 53.0938 14.2576C53.0938 19.0726 56.8755 22.976 61.5404 22.976Z" fill="#888888"/>
<path d="M61.5442 19.3995C64.2975 19.3995 66.5258 17.0995 66.5258 14.2576C66.5258 11.4157 64.2975 9.11572 61.5442 9.11572C58.7908 9.11572 56.5625 11.4157 56.5625 14.2576C56.5625 17.0995 58.7908 19.3995 61.5442 19.3995Z" fill="white"/>
<path d="M43.6342 22.976C48.2991 22.976 52.0808 19.0726 52.0808 14.2576C52.0808 9.44263 48.2991 5.53931 43.6342 5.53931C38.9692 5.53931 35.1875 9.44263 35.1875 14.2576C35.1875 19.0726 38.9692 22.976 43.6342 22.976Z" fill="#888888"/>
<path d="M43.6301 19.3995C46.3834 19.3995 48.6118 17.0995 48.6118 14.2576C48.6118 11.4157 46.3834 9.11572 43.6301 9.11572C40.8768 9.11572 38.6484 11.4157 38.6484 14.2576C38.6484 17.0995 40.8768 19.3995 43.6301 19.3995Z" fill="white"/>
<path d="M34.4011 14.1854V14.2576C34.4011 19.0744 30.6211 22.9759 25.9545 22.9759C21.2878 22.9759 17.5078 19.0744 17.5078 14.2576C17.5078 9.44085 21.2878 5.53928 25.9545 5.53928C27.8678 5.53928 29.6295 6.20159 31.0528 7.2974V1.73405C31.0519 1.50606 31.0947 1.28015 31.1788 1.06933C31.2629 0.858518 31.3866 0.66698 31.5428 0.50577C31.699 0.344559 31.8846 0.216868 32.0888 0.130063C32.2931 0.0432588 32.5119 -0.00094074 32.7328 1.51803e-05C33.6545 1.51803e-05 34.4128 0.782738 34.4128 1.73405V14.1011C34.4128 14.1251 34.4128 14.1613 34.4011 14.1854Z" fill="#888888"/>
<path d="M25.9582 19.3995C28.7095 19.3995 30.9399 17.0974 30.9399 14.2576C30.9399 11.4178 28.7095 9.11572 25.9582 9.11572C23.2069 9.11572 20.9766 11.4178 20.9766 14.2576C20.9766 17.0974 23.2069 19.3995 25.9582 19.3995Z" fill="white"/>
<path d="M8.44667 22.9518C13.1116 22.9518 16.8933 19.0485 16.8933 14.2335C16.8933 9.41846 13.1116 5.51514 8.44667 5.51514C3.7817 5.51514 0 9.41846 0 14.2335C0 19.0485 3.7817 22.9518 8.44667 22.9518Z" fill="#9C5789"/>
<path d="M8.36448 19.4115C11.1158 19.4115 13.3461 17.1094 13.3461 14.2696C13.3461 11.4298 11.1158 9.12769 8.36448 9.12769C5.61318 9.12769 3.38281 11.4298 3.38281 14.2696C3.38281 17.1094 5.61318 19.4115 8.36448 19.4115Z" fill="white"/>
</g>
<defs>
<clipPath id="clip0_2539_2341">
<rect width="70" height="23" fill="white"/>
</clipPath>
</defs>
</svg>
