<svg width="30" height="32" viewBox="0 0 30 32" fill="none" xmlns="http://www.w3.org/2000/svg">
<path d="M27.4882 6.11377H20.5118L20.835 8.25655H27.165V22.8552H1.94949V8.25655H6.09764L6.42088 6.11377H1.62627C0.730634 6.11377 0 6.83244 0 7.7134V24.6039C0 25.4848 0.730634 26.2035 1.62627 26.2035H27.4882C28.3838 26.2035 29.1145 25.4848 29.1145 24.6039V7.7134C29.1145 6.83244 28.3838 6.11377 27.4882 6.11377ZM14.5589 25.0741C14.1582 25.0741 13.8384 24.7595 13.8384 24.3654C13.8384 23.9713 14.1582 23.6534 14.5589 23.6534C14.9562 23.6534 15.2761 23.9713 15.2761 24.3654C15.2761 24.7595 14.9562 25.0741 14.5589 25.0741Z" fill="#FC5546"/>
<path d="M21.0741 30.275V31.4777H8.02695V30.275C8.02695 29.9238 8.31652 29.6389 8.67343 29.6389H10.2593L10.5421 26.8989H18.5589L18.8451 29.6389H20.4276C20.7845 29.6389 21.0741 29.9238 21.0741 30.275Z" fill="#FC5546"/>
<path d="M19.6498 5.08371C19.5892 4.61011 19.1751 4.25243 18.6902 4.25243H17.303V3.79539C17.303 1.7023 15.5724 0 13.4444 0C11.3165 0 9.58585 1.7023 9.58585 3.79539V4.25243H8.19865C7.7138 4.25243 7.29967 4.61012 7.23906 5.07708L5.55893 16.185C5.52188 16.4566 5.60606 16.7315 5.78789 16.9368C5.97307 17.1422 6.23905 17.2614 6.51852 17.2614H15.4074L15.1852 16.599H9.11786L10.1886 4.9148H16.697L17.5589 14.3105C22.5884 15.958 20.8537 15.3898 21.229 15.5127L19.6498 5.08371ZM16.6296 4.25243H10.2593V3.79539C10.2593 2.06661 11.6902 0.662373 13.4444 0.662373C15.1987 0.662373 16.6296 2.06662 16.6296 3.79539L16.6296 4.25243Z" fill="#FC5546"/>
<path d="M22.3064 20.4318L21.4209 21.303C21.2963 21.4255 21.0976 21.4255 20.973 21.303L18.5118 18.8817C18.4007 18.7724 18.2155 18.8055 18.1481 18.9413L17.5286 20.2199C17.4411 20.3987 17.1751 20.3822 17.1111 20.1934L16.0067 16.9308L15.2222 14.6155C15.165 14.4433 15.3333 14.2777 15.5084 14.334L17.9731 15.1455L20.9832 16.1325L21.1751 16.1955C21.367 16.2584 21.3838 16.52 21.202 16.6029C21.0846 16.6584 19.8269 17.2529 19.9057 17.2156C19.7643 17.2819 19.734 17.4641 19.8451 17.57L22.3064 19.9946C22.4276 20.1139 22.4276 20.3126 22.3064 20.4318Z" fill="#FC5546"/>
<path d="M14.1968 13.7963L13.416 13.0276C13.2845 12.8981 13.2845 12.6882 13.416 12.5587C13.5475 12.4292 13.7606 12.4292 13.8921 12.5587L14.6729 13.3275C14.8044 13.457 14.8044 13.6668 14.6729 13.7963C14.5413 13.9259 14.3283 13.9259 14.1968 13.7963Z" fill="#FC5546"/>
<path d="M13.1653 15.8966L12.0989 15.615C11.9192 15.5677 11.8127 15.3856 11.8609 15.2086C11.9089 15.0314 12.0943 14.9264 12.2732 14.974L13.3395 15.2556C13.5192 15.3029 13.6258 15.485 13.5776 15.662C13.5288 15.8418 13.3411 15.9436 13.1653 15.8966Z" fill="#FC5546"/>
<path d="M11.8607 18.2688C11.8125 18.0918 11.9191 17.9097 12.0988 17.8624L13.1652 17.5808C13.3448 17.5325 13.5296 17.6381 13.5776 17.8154C13.6257 17.9923 13.5192 18.1745 13.3395 18.2218L12.273 18.5034C12.0956 18.5505 11.9092 18.4476 11.8607 18.2688Z" fill="#FC5546"/>
<path d="M16.1573 12.4842L15.8716 11.4346C15.8234 11.258 15.9301 11.0761 16.1096 11.0289C16.2903 10.981 16.4738 11.0862 16.5219 11.2631L16.8077 12.3127C16.8558 12.4893 16.7491 12.6712 16.5696 12.7184C16.3922 12.7655 16.2058 12.6626 16.1573 12.4842Z" fill="#FC5546"/>
</svg>
