<svg width="35" height="35" viewBox="0 0 35 35" fill="none" xmlns="http://www.w3.org/2000/svg">
<path d="M29.8743 5.12565C26.569 1.82027 22.1744 0 17.5 0C12.8256 0 8.43097 1.82027 5.12565 5.12565C1.82027 8.43097 0 12.8256 0 17.5C0 22.0546 1.74057 26.3681 4.90116 29.6457C4.99791 29.7434 5.12924 29.799 5.26672 29.8006C5.4042 29.8022 5.53677 29.7495 5.63574 29.6541C5.7347 29.5587 5.7921 29.4281 5.79551 29.2906C5.79891 29.1532 5.74805 29.0199 5.65394 28.9197C2.68235 25.8381 1.04583 21.7824 1.04583 17.5C1.04583 13.1049 2.75734 8.97292 5.86517 5.86517C8.97292 2.75734 13.1049 1.04583 17.5 1.04583C21.8951 1.04583 26.0271 2.75734 29.1348 5.86517C32.2427 8.97292 33.9542 13.1049 33.9542 17.5C33.9542 21.8951 32.2427 26.027 29.1348 29.1348C26.0271 32.2426 21.8951 33.9542 17.5 33.9542C14.4867 33.9542 11.5397 33.1324 8.97743 31.5779C8.58305 31.3384 8.19883 31.0827 7.82578 30.8112C7.71355 30.732 7.57467 30.7001 7.43913 30.7225C7.3036 30.7448 7.18231 30.8196 7.10146 30.9307C7.02061 31.0417 6.98671 31.1801 7.00707 31.316C7.02743 31.4518 7.10042 31.5742 7.21027 31.6567C7.60696 31.9454 8.01554 32.2174 8.43493 32.4719C11.1608 34.1258 14.2954 35 17.5 35C22.1744 35 26.569 33.1797 29.8743 29.8743C33.1797 26.569 35 22.1743 35 17.5C35 12.8256 33.1797 8.43097 29.8743 5.12565Z" fill="#FC5546"/>
<path d="M20.6644 3.4946C18.4564 3.02066 16.1592 3.06879 13.9726 3.63856C13.8397 3.67468 13.7263 3.76179 13.6573 3.88096C13.5882 4.00014 13.5689 4.14176 13.6036 4.27506C13.6384 4.40835 13.7243 4.52257 13.8427 4.59289C13.9612 4.66321 14.1026 4.68396 14.2362 4.65062C14.8802 4.4828 15.538 4.36488 16.2029 4.29468L12.5529 10.3009H6.39673C7.71408 8.2857 9.54345 6.66039 11.7003 5.59583C11.8226 5.53319 11.9153 5.42499 11.9584 5.29458C12.0015 5.16417 11.9916 5.02204 11.9308 4.89887C11.87 4.7757 11.7632 4.68139 11.6335 4.63631C11.5037 4.59123 11.3615 4.599 11.2374 4.65794C8.93642 5.79366 6.95748 7.54393 5.54647 9.68693C4.0036 12.0301 3.17188 14.8125 3.17188 17.6278C3.17188 19.3375 3.47532 21.0444 4.0708 22.6473C4.21545 23.0368 4.41253 23.4074 4.5554 23.7958C4.69636 24.1789 4.85844 24.4403 5.07186 24.7839C5.43519 25.3687 5.79257 25.9461 6.21626 26.4907C7.91923 28.6798 10.2483 30.3617 12.867 31.2777C14.3941 31.8119 16.0096 32.083 17.6271 32.083C25.5979 32.083 32.0825 25.5984 32.0825 17.6278C32.0825 10.9065 27.2386 4.90574 20.6644 3.4946ZM29.4095 11.406C29.4247 11.4331 29.4367 11.4756 29.4075 11.5237L26.3532 16.5429L23.1955 11.3467H29.308C29.3643 11.3466 29.3943 11.3789 29.4095 11.406ZM28.8524 10.3008H22.56L18.9006 4.27902C23.0618 4.67291 26.6749 6.97607 28.8524 10.3008ZM17.4569 4.24464C17.4629 4.23479 17.4697 4.22741 17.4767 4.22058C17.5269 4.22003 17.577 4.21818 17.6271 4.21818L17.6343 4.21825C17.6421 4.22543 17.6494 4.23384 17.6559 4.24457L21.3362 10.3008H13.7767L17.4569 4.24464ZM13.1411 11.3467H21.9718L25.7409 17.5491L21.9239 23.8543H13.2089L9.372 17.5491L13.1411 11.3467ZM5.775 11.3509C5.78423 11.3487 5.79373 11.3466 5.80501 11.3466H11.9174L8.75971 16.5428L5.70548 11.5236C5.70083 11.516 5.69878 11.5087 5.69605 11.5014C5.72195 11.451 5.74841 11.401 5.775 11.3509ZM4.21771 17.6277C4.21771 15.9117 4.54351 14.2275 5.1705 12.6563L8.14803 17.5494L5.13625 22.5054C4.54357 20.993 4.21771 19.3477 4.21771 17.6277ZM5.75408 23.8543C5.72078 23.7913 5.68799 23.728 5.65571 23.6645L8.76032 18.5556L11.9847 23.8543H5.75408ZM6.36617 24.9001H12.6211L16.3166 30.9731C12.1483 30.5668 8.53337 28.2443 6.36617 24.9001ZM18.7883 30.9863L21.4419 26.6256C21.514 26.5071 21.5361 26.3648 21.5033 26.2301C21.4705 26.0953 21.3855 25.9791 21.267 25.907C21.1485 25.835 21.0063 25.8129 20.8715 25.8457C20.7368 25.8785 20.6206 25.9635 20.5485 26.082L17.6559 30.8354C17.6278 30.8816 17.5863 30.8913 17.5565 30.8913C17.5267 30.8913 17.4852 30.8817 17.4571 30.8354L13.8454 24.9001H28.8883C26.6952 28.2842 23.0195 30.6217 18.7883 30.9863ZM29.467 23.795C29.4518 23.822 29.4218 23.8543 29.3655 23.8543H23.1282L26.3526 18.5557L29.465 23.6775C29.4942 23.7256 29.4822 23.7679 29.467 23.795ZM26.9648 17.5495L30.0251 12.5204C30.6764 14.0955 31.0367 15.8202 31.0367 17.6278C31.0367 19.4011 30.6899 21.0948 30.0617 22.6457L26.9648 17.5495Z" fill="#FC5546"/>
<path d="M22.2899 16.6664L18.3358 12.7123C17.8755 12.2522 17.1267 12.2522 16.6664 12.7123L12.7123 16.6664C12.2521 17.1267 12.2521 17.8755 12.7123 18.3358L16.6664 22.2899C16.776 22.3996 16.9061 22.4865 17.0494 22.5457C17.1926 22.605 17.3461 22.6353 17.5011 22.6351C17.8033 22.6351 18.1057 22.52 18.3358 22.2899L22.2899 18.3358C22.7501 17.8755 22.7501 17.1267 22.2899 16.6664ZM21.5503 17.5963L17.5962 21.5504C17.5837 21.5629 17.5689 21.5728 17.5526 21.5796C17.5362 21.5863 17.5187 21.5898 17.5011 21.5898C17.4834 21.5898 17.4659 21.5863 17.4496 21.5796C17.4333 21.5728 17.4184 21.5629 17.406 21.5504L13.4518 17.5963C13.4266 17.571 13.4125 17.5368 13.4125 17.5011C13.4125 17.4654 13.4266 17.4312 13.4518 17.406L17.406 13.4519C17.4184 13.4393 17.4333 13.4294 17.4496 13.4227C17.4659 13.4159 17.4834 13.4124 17.5011 13.4125C17.5356 13.4125 17.57 13.4255 17.5962 13.4519L21.5503 17.406C21.5755 17.4312 21.5897 17.4654 21.5897 17.5011C21.5897 17.5368 21.5755 17.571 21.5503 17.5963Z" fill="#FC5546"/>
<path d="M17.503 15.6445C16.4804 15.6445 15.6484 16.4765 15.6484 17.4991C15.6484 18.5217 16.4804 19.3536 17.503 19.3536C18.5255 19.3536 19.3575 18.5217 19.3575 17.4991C19.3575 16.4765 18.5255 15.6445 17.503 15.6445ZM17.503 18.3079C17.057 18.3079 16.6942 17.9451 16.6942 17.4991C16.6942 17.0531 17.057 16.6903 17.503 16.6903C17.9489 16.6903 18.3117 17.0531 18.3117 17.4991C18.3117 17.9451 17.9489 18.3079 17.503 18.3079Z" fill="#FC5546"/>
</svg>
