<svg width="34" height="35" viewBox="0 0 34 35" fill="none" xmlns="http://www.w3.org/2000/svg">
<path d="M17 11.6667L12.75 14.2188V19.3229L17 21.875L21.25 19.3229V14.2188L17 11.6667ZM19.1491 14.6417L16.9816 15.9425L14.8325 14.6519L17 13.351L19.1491 14.6417ZM14.1525 15.9279L16.2548 17.1908V19.7429L14.1525 18.4815V15.9279ZM17.6573 19.7969V17.22L19.8475 15.9046V18.4815L17.6573 19.7969ZM4.25 0L0 2.55208V7.65625L4.25 10.2083L8.5 7.65625V2.55208L4.25 0ZM6.39908 2.975L4.23158 4.27583L2.0825 2.98521L4.25 1.68438L6.39908 2.975ZM1.4025 4.25979L3.50483 5.52271V8.07479L1.4025 6.81625V4.25979ZM4.90733 8.12875V5.55333L7.0975 4.23792V6.81479L4.90733 8.12875ZM4.25 24.7917L0 27.3438V32.4479L4.25 35L8.5 32.4479V27.3438L4.25 24.7917ZM6.39908 27.7667L4.23158 29.0675L2.0825 27.7769L4.25 26.476L6.39908 27.7667ZM1.4025 29.0529L3.50483 30.3158V32.8679L1.4025 31.6079V29.0529ZM4.90733 32.9219V30.345L7.0975 29.0296V31.6065L4.90733 32.9219ZM29.75 0L25.5 2.55208V7.65625L29.75 10.2083L34 7.65625V2.55208L29.75 0ZM31.8991 2.975L29.7316 4.27583L27.5825 2.98521L29.75 1.68438L31.8991 2.975ZM26.9025 4.26125L29.0048 5.52417V8.07625L26.9025 6.81479V4.26125ZM30.4073 8.13021V5.55333L32.5975 4.23792V6.81479L30.4073 8.13021ZM29.75 24.7917L25.5 27.3438V32.4479L29.75 35L34 32.4479V27.3438L29.75 24.7917ZM31.8991 27.7667L29.7316 29.0675L27.5825 27.7769L29.75 26.476L31.8991 27.7667ZM26.9025 29.0529L29.0048 30.3158V32.8679L26.9025 31.6065V29.0529ZM30.4073 32.9219V30.345L32.5975 29.0296V31.6065L30.4073 32.9219ZM12.75 4.375H21.25V5.83333H12.75V4.375ZM12.75 29.1667H21.25V30.625H12.75V29.1667ZM4.95833 13.125V21.875H3.54167V13.125H4.95833ZM10.3317 12.8742L7.327 9.78104L8.32858 8.75L11.3333 11.8417L10.3317 12.8742ZM22.6667 12.094L25.6714 9.00083L26.673 10.0319L23.6683 13.125L22.6667 12.094ZM11.5147 21.6985L8.50992 24.7917L7.50833 23.7606L10.5131 20.6675L11.5147 21.6985ZM23.9119 20.6048L26.9167 23.6979L25.9151 24.729L22.9103 21.6358L23.9119 20.6048ZM30.4583 13.125V21.875H29.0417V13.125H30.4583Z" fill="#FC5546"/>
</svg>
