<svg width="31" height="28" viewBox="0 0 31 28" fill="none" xmlns="http://www.w3.org/2000/svg">
<path d="M21.55 10.0177L17.77 6.21435C17.5 5.94269 17.185 5.80686 16.825 5.80686C16.465 5.80686 16.15 5.94269 15.88 6.21435L0.405 21.8507C0.135 22.1224 0 22.428 0 22.7676C0 23.1072 0.135 23.4128 0.405 23.6845L4.185 27.4878C4.455 27.7594 4.78125 27.8953 5.16375 27.8953C5.54625 27.8953 5.8725 27.7594 6.1425 27.4878L21.55 11.9193C21.82 11.6476 21.955 11.3307 21.955 10.9685C21.955 10.6063 21.82 10.2893 21.55 10.0177ZM25.465 0.373569L20.6725 5.19561L22.5625 7.09726L27.355 2.27522C27.6025 2.02619 27.7263 1.70925 27.7263 1.32439C27.7263 0.939535 27.6025 0.622595 27.355 0.373569C27.1075 0.124542 26.7925 2.67029e-05 26.41 2.67029e-05C26.0275 2.67029e-05 25.7125 0.124542 25.465 0.373569ZM26.275 17.0809C24.97 17.0809 23.8563 17.545 22.9338 18.4732C22.0112 19.4014 21.55 20.522 21.55 21.8351C21.55 23.1481 22.0112 24.2687 22.9338 25.1969C23.8563 26.1251 24.97 26.5892 26.275 26.5892C27.58 26.5892 28.6938 26.1251 29.6163 25.1969C30.5388 24.2687 31 23.1481 31 21.8351C31 20.522 30.5388 19.4014 29.6163 18.4732C28.6938 17.545 27.58 17.0809 26.275 17.0809Z" fill="#FC5546"/>
</svg>
