<svg width="380" height="382" viewBox="0 0 380 382" fill="none" xmlns="http://www.w3.org/2000/svg">
<path d="M161.545 287.362L144.845 318.202L61.4053 234.762L92.2453 218.062L161.545 287.362Z" fill="#F7CF52"/>
<path d="M249.988 172.74C248.192 173.009 246.346 173.143 244.465 173.143C223.478 173.143 206.465 156.13 206.465 135.143C206.465 114.156 223.478 97.143 244.465 97.143C246.346 97.143 248.191 97.277 249.988 97.546C268.359 100.219 282.465 116.037 282.465 135.143C282.465 154.249 268.358 170.067 249.988 172.74Z" fill="#76CDCE"/>
<path d="M162.514 109.612L73.1544 198.972L18.2744 188.802L87.8344 119.242L162.514 109.612Z" fill="#F7CF52"/>
<path d="M270.005 217.092L260.365 291.772L190.805 361.342L180.635 306.452L270.005 217.092Z" fill="#F7CF52"/>
<path d="M319.855 59.752C334.125 74.012 352.295 81.942 370.935 83.562C361.595 114.032 344.905 142.182 321.795 165.292L270.005 217.092L180.635 306.452L161.545 287.362L92.2453 218.062L73.1553 198.972L162.515 109.612H162.525L214.315 57.812C237.435 34.692 265.585 18.002 296.055 8.672C297.665 27.312 305.595 45.482 319.855 59.752ZM271.335 162.012C286.175 147.172 286.175 123.112 271.335 108.272C256.495 93.432 232.435 93.432 217.595 108.272C202.755 123.112 202.755 147.172 217.595 162.012C232.435 176.852 256.495 176.852 271.335 162.012Z" fill="#008DB3"/>
<path d="M378.115 1.492C381.565 29.412 378.975 57.352 370.935 83.562C352.295 81.942 334.125 74.012 319.855 59.752C305.595 45.482 297.665 27.312 296.055 8.672C322.275 0.631999 350.205 -1.958 378.115 1.492Z" fill="#F7CF52"/>
<path d="M9.07905 361.337L19.6855 371.943L94.6375 296.991L84.031 286.385L9.07905 361.337Z" fill="#F4581B"/>
<path d="M41.0136 370.415L51.6201 381.021L115.144 317.497L104.537 306.891L41.0136 370.415Z" fill="#F4581B"/>
<path d="M-5.42998e-05 329.402L10.6064 340.009L74.1302 276.485L63.5237 265.879L-5.42998e-05 329.402Z" fill="#F4581B"/>
<path d="M249.988 172.74V97.546C268.359 100.219 282.465 116.037 282.465 135.143C282.465 154.249 268.358 170.067 249.988 172.74Z" fill="#96E0DE"/>
</svg>
