<svg width="48" height="48" viewBox="0 0 48 48" fill="none" xmlns="http://www.w3.org/2000/svg">
<path d="M32 42H38.8C39.9201 42 40.4802 42 40.908 41.782C41.2843 41.5903 41.5903 41.2843 41.782 40.908C42 40.4802 42 39.9201 42 38.8V9.2C42 8.0799 42 7.51984 41.782 7.09202C41.5903 6.71569 41.2843 6.40973 40.908 6.21799C40.4802 6 39.9201 6 38.8 6H27.2C26.0799 6 25.5198 6 25.092 6.21799C24.7157 6.40973 24.4097 6.71569 24.218 7.09202C24 7.51984 24 8.0799 24 9.2V12M20 36V42M14 42H26M12.4 36H27.6C29.8402 36 30.9603 36 31.816 35.564C32.5686 35.1805 33.1805 34.5686 33.564 33.816C34 32.9603 34 31.8402 34 29.6V18.4C34 16.1598 34 15.0397 33.564 14.184C33.1805 13.4314 32.5686 12.8195 31.816 12.436C30.9603 12 29.8402 12 27.6 12H12.4C10.1598 12 9.03968 12 8.18404 12.436C7.43139 12.8195 6.81947 13.4314 6.43597 14.184C6 15.0397 6 16.1598 6 18.4V29.6C6 31.8402 6 32.9603 6.43597 33.816C6.81947 34.5686 7.43139 35.1805 8.18404 35.564C9.03968 36 10.1598 36 12.4 36Z" stroke="#1C2D59" stroke-width="4" stroke-linecap="round"/>
<path d="M16 24H25.5" stroke="#FC5546" stroke-width="4" stroke-linecap="round"/>
</svg>
