<svg width="40" height="40" viewBox="0 0 40 40" fill="none" xmlns="http://www.w3.org/2000/svg">
<path d="M20 30V38M12 38H28M11.6 30H28.4C31.7603 30 33.4405 30 34.7239 29.346C35.8529 28.7708 36.7708 27.8529 37.346 26.7239C38 25.4405 38 23.7603 38 20.4V11.6C38 8.2397 38 6.5595 37.346 5.27606C36.7708 4.14708 35.8529 3.2292 34.7239 2.65396C33.4405 2 31.7603 2 28.4 2H11.6C8.2397 2 6.5595 2 5.27606 2.65396C4.14708 3.2292 3.2292 4.14708 2.65396 5.27606C2 6.5595 2 8.2397 2 11.6V20.4C2 23.7603 2 25.4405 2.65396 26.7239C3.2292 27.8529 4.14708 28.7708 5.27606 29.346C6.5595 30 8.2397 30 11.6 30Z" stroke="#1C2D59" stroke-width="4" stroke-linecap="round" stroke-linejoin="round"/>
<path d="M19.1845 19.7161C19.1248 19.7164 19.0655 19.7071 19.0088 19.6886C18.9069 19.6557 18.8162 19.5946 18.7473 19.5126C18.6784 19.4305 18.6339 19.3307 18.619 19.2246C18.5423 18.6891 17.9069 18.0658 17.3118 17.9448C17.2136 17.9244 17.1224 17.8786 17.0475 17.8118C16.9726 17.745 16.9166 17.6597 16.8851 17.5644C16.8537 17.4691 16.8479 17.3672 16.8683 17.269C16.8888 17.1707 16.9348 17.0796 17.0016 17.0048L24.5368 8.61199C24.5436 8.60413 24.5507 8.59664 24.5579 8.5895C24.9364 8.21199 25.4492 8 25.9838 8C26.5183 8 27.0311 8.21199 27.4097 8.5895C27.787 8.9671 27.9993 9.47888 28 10.0127C28.0007 10.5465 27.7899 11.0589 27.4136 11.4376L19.596 19.5412C19.5427 19.5966 19.4788 19.6406 19.4081 19.6706C19.3374 19.7007 19.2613 19.7162 19.1845 19.7161ZM15.1415 24C13.9942 24 12.8051 23.397 12.1126 22.4649C12.0495 22.38 12.0113 22.2791 12.0021 22.1736C11.993 22.0682 12.0134 21.9622 12.0609 21.8677C12.1085 21.7731 12.1814 21.6936 12.2716 21.6381C12.3617 21.5825 12.4655 21.5532 12.5713 21.5532C12.7619 21.5532 13.2853 21.3793 13.2853 20.8189C13.2853 19.4241 14.4061 18.2892 15.784 18.2892C17.1619 18.2892 18.2828 19.4241 18.2828 20.8189C18.2828 22.5724 16.8735 24 15.1415 24Z" fill="#FC5546"/>
</svg>
