<svg width="28" height="40" viewBox="0 0 28 40" fill="none" xmlns="http://www.w3.org/2000/svg">
<path d="M19.6 2H8.4C6.1598 2 5.0397 2 4.184 2.43597C3.4314 2.81947 2.8195 3.43139 2.436 4.18404C2 5.03968 2 6.1598 2 8.4V31.6C2 33.8402 2 34.9603 2.436 35.816C2.8195 36.5686 3.4314 37.1805 4.184 37.564C5.0397 38 6.1598 38 8.4 38H19.6C21.8402 38 22.9603 38 23.816 37.564C24.5686 37.1805 25.1805 36.5686 25.564 35.816C26 34.9603 26 33.8402 26 31.6V8.4C26 6.1598 26 5.03968 25.564 4.18404C25.1805 3.43139 24.5686 2.81947 23.816 2.43597C22.9603 2 21.8402 2 19.6 2Z" stroke="#0E2B5C" stroke-width="4" stroke-linecap="round" stroke-linejoin="round"/>
<path d="M14 29H14.02" stroke="#0E2B5C" stroke-width="4" stroke-linecap="round" stroke-linejoin="round"/>
<path d="M12 12H16" stroke="#FC5546" stroke-width="4" stroke-linecap="round" stroke-linejoin="round"/>
</svg>
