<svg width="651" height="160" viewBox="0 0 651 160" fill="none" xmlns="http://www.w3.org/2000/svg">
<path d="M171.003 56.6367H236.887V68.929H210.981V138.03H196.736V68.929H170.945V56.6367H171.003ZM234.073 79.096H246.25V90.4693H246.48C246.882 88.8609 247.629 87.31 248.72 85.8166C249.811 84.3231 251.132 82.8871 252.683 81.6808C254.234 80.4171 255.957 79.4406 257.853 78.6365C259.749 77.8898 261.702 77.4877 263.654 77.4877C265.148 77.4877 266.239 77.5451 266.814 77.6026C267.388 77.66 267.963 77.7749 268.594 77.8323V90.3544C267.675 90.1821 266.756 90.0672 265.78 89.9523C264.803 89.8374 263.884 89.78 262.965 89.78C260.782 89.78 258.715 90.2395 256.762 91.1011C254.809 91.9627 253.143 93.2838 251.707 94.9496C250.271 96.6728 249.122 98.7407 248.26 101.268C247.399 103.795 246.997 106.668 246.997 109.942V137.973H234.015V79.096H234.073ZM328.275 138.03H315.523V129.816H315.294C313.685 132.803 311.33 135.158 308.171 136.939C305.012 138.719 301.795 139.638 298.521 139.638C290.766 139.638 285.137 137.743 281.691 133.894C278.244 130.046 276.521 124.244 276.521 116.49V79.096H289.503V115.226C289.503 120.396 290.479 124.072 292.49 126.197C294.443 128.323 297.257 129.414 300.819 129.414C303.576 129.414 305.816 129.012 307.654 128.15C309.492 127.289 310.986 126.197 312.077 124.761C313.226 123.383 314.03 121.66 314.547 119.707C315.064 117.754 315.294 115.628 315.294 113.331V79.1534H328.275V138.03ZM350.39 119.132C350.792 122.923 352.228 125.565 354.698 127.116C357.225 128.61 360.212 129.414 363.716 129.414C364.922 129.414 366.301 129.299 367.852 129.127C369.403 128.954 370.896 128.552 372.217 128.035C373.596 127.518 374.687 126.714 375.606 125.68C376.468 124.646 376.87 123.325 376.813 121.66C376.755 119.994 376.123 118.615 374.974 117.581C373.826 116.49 372.39 115.686 370.609 114.996C368.828 114.365 366.818 113.79 364.52 113.331C362.223 112.871 359.925 112.354 357.57 111.837C355.157 111.32 352.802 110.631 350.562 109.884C348.322 109.137 346.312 108.104 344.531 106.782C342.75 105.519 341.314 103.853 340.28 101.842C339.189 99.8321 338.672 97.3621 338.672 94.3752C338.672 91.1585 339.476 88.5163 341.027 86.3335C342.578 84.1508 344.588 82.4276 346.943 81.1064C349.356 79.7853 351.998 78.8662 354.928 78.2918C357.857 77.7749 360.672 77.4877 363.314 77.4877C366.358 77.4877 369.288 77.8323 372.045 78.4642C374.802 79.096 377.329 80.1299 379.57 81.6234C381.81 83.0594 383.648 84.9549 385.141 87.2526C386.635 89.5502 387.554 92.3648 387.956 95.6389H374.4C373.768 92.5371 372.39 90.4118 370.149 89.3779C367.909 88.2865 365.324 87.7695 362.452 87.7695C361.533 87.7695 360.442 87.827 359.178 87.9993C357.915 88.1716 356.766 88.4588 355.617 88.8609C354.526 89.263 353.607 89.8948 352.802 90.699C352.056 91.5032 351.654 92.5371 351.654 93.8582C351.654 95.4666 352.228 96.7303 353.319 97.7068C354.411 98.6833 355.847 99.4874 357.627 100.177C359.408 100.809 361.418 101.383 363.716 101.842C366.014 102.302 368.369 102.819 370.781 103.336C373.136 103.853 375.434 104.542 377.732 105.289C380.029 106.036 382.04 107.07 383.82 108.391C385.601 109.712 387.037 111.32 388.128 113.273C389.22 115.226 389.794 117.696 389.794 120.568C389.794 124.072 388.99 127.001 387.382 129.471C385.773 131.884 383.705 133.894 381.178 135.388C378.651 136.881 375.779 138.03 372.677 138.719C369.575 139.409 366.473 139.753 363.429 139.753C359.695 139.753 356.249 139.351 353.09 138.49C349.93 137.628 347.173 136.364 344.876 134.699C342.578 132.975 340.74 130.85 339.419 128.323C338.098 125.795 337.408 122.751 337.293 119.247H350.39V119.132ZM393.241 79.096H403.063V61.4043H416.044V79.096H427.762V88.8035H416.044V120.281C416.044 121.66 416.102 122.808 416.217 123.842C416.332 124.819 416.619 125.68 417.021 126.37C417.423 127.059 418.055 127.576 418.917 127.921C419.778 128.265 420.869 128.438 422.363 128.438C423.282 128.438 424.201 128.438 425.12 128.38C426.039 128.323 426.958 128.208 427.877 127.978V138.03C426.441 138.202 425.005 138.317 423.684 138.49C422.306 138.662 420.927 138.719 419.491 138.719C416.044 138.719 413.287 138.375 411.219 137.743C409.152 137.111 407.486 136.135 406.337 134.871C405.131 133.607 404.384 132.056 403.925 130.161C403.522 128.265 403.235 126.082 403.178 123.67V88.9184H393.355V79.096H393.241ZM436.953 79.096H449.245V87.0803H449.475C451.313 83.6338 453.84 81.2213 457.115 79.7279C460.389 78.2344 463.893 77.4877 467.741 77.4877C472.394 77.4877 476.415 78.2918 479.861 79.9576C483.308 81.566 486.18 83.8061 488.477 86.6782C490.775 89.5502 492.441 92.8818 493.589 96.6728C494.738 100.464 495.313 104.542 495.313 108.85C495.313 112.814 494.796 116.662 493.762 120.338C492.728 124.072 491.177 127.346 489.109 130.218C487.041 133.09 484.399 135.33 481.182 137.054C477.965 138.777 474.232 139.638 469.866 139.638C467.971 139.638 466.075 139.466 464.18 139.121C462.284 138.777 460.446 138.202 458.723 137.456C457 136.709 455.334 135.732 453.898 134.526C452.404 133.32 451.198 131.941 450.164 130.39H449.934V159.8H436.953V79.096ZM482.331 108.62C482.331 105.978 481.986 103.393 481.297 100.866C480.608 98.3386 479.574 96.1559 478.195 94.2029C476.817 92.2499 475.093 90.699 473.083 89.5502C471.015 88.4014 468.66 87.7695 466.018 87.7695C460.561 87.7695 456.425 89.6651 453.668 93.4562C450.911 97.2472 449.532 102.302 449.532 108.62C449.532 111.607 449.877 114.365 450.624 116.892C451.37 119.419 452.404 121.602 453.898 123.44C455.334 125.278 457.057 126.714 459.068 127.748C461.078 128.84 463.433 129.357 466.075 129.357C469.062 129.357 471.532 128.725 473.6 127.518C475.668 126.312 477.334 124.704 478.655 122.808C479.976 120.855 480.952 118.673 481.527 116.203C482.044 113.733 482.331 111.205 482.331 108.62ZM505.25 56.6367H518.231V68.929H505.25V56.6367ZM505.25 79.096H518.231V138.03H505.25V79.096ZM529.834 56.6367H542.816V138.03H529.834V56.6367ZM582.622 139.638C577.912 139.638 573.719 138.834 570.043 137.283C566.367 135.732 563.265 133.55 560.68 130.85C558.153 128.093 556.2 124.819 554.879 121.028C553.557 117.237 552.868 113.043 552.868 108.506C552.868 104.025 553.557 99.8895 554.879 96.0984C556.2 92.3074 558.153 89.0332 560.68 86.2761C563.207 83.5189 566.367 81.3936 570.043 79.8427C573.719 78.2918 577.912 77.4877 582.622 77.4877C587.332 77.4877 591.526 78.2918 595.202 79.8427C598.878 81.3936 601.98 83.5764 604.565 86.2761C607.092 89.0332 609.045 92.3074 610.366 96.0984C611.687 99.8895 612.377 104.025 612.377 108.506C612.377 113.043 611.687 117.237 610.366 121.028C609.045 124.819 607.092 128.093 604.565 130.85C602.037 133.607 598.878 135.732 595.202 137.283C591.526 138.834 587.332 139.638 582.622 139.638ZM582.622 129.357C585.494 129.357 588.022 128.725 590.147 127.518C592.272 126.312 593.996 124.704 595.374 122.751C596.753 120.798 597.729 118.558 598.419 116.088C599.05 113.618 599.395 111.09 599.395 108.506C599.395 105.978 599.05 103.508 598.419 100.981C597.787 98.4535 596.753 96.2708 595.374 94.3178C593.996 92.3648 592.272 90.8139 590.147 89.6076C588.022 88.4014 585.494 87.7695 582.622 87.7695C579.75 87.7695 577.223 88.4014 575.098 89.6076C572.972 90.8139 571.249 92.4222 569.871 94.3178C568.492 96.2708 567.515 98.4535 566.826 100.981C566.194 103.508 565.85 105.978 565.85 108.506C565.85 111.09 566.194 113.618 566.826 116.088C567.458 118.558 568.492 120.798 569.871 122.751C571.249 124.704 572.972 126.312 575.098 127.518C577.223 128.782 579.75 129.357 582.622 129.357ZM616.168 79.096H625.99V61.4043H638.972V79.096H650.69V88.8035H638.972V120.281C638.972 121.66 639.029 122.808 639.144 123.842C639.259 124.819 639.546 125.68 639.948 126.37C640.35 127.059 640.982 127.576 641.844 127.921C642.705 128.265 643.797 128.438 645.29 128.438C646.209 128.438 647.128 128.438 648.047 128.38C648.966 128.323 649.885 128.208 650.804 127.978V138.03C649.368 138.202 647.932 138.317 646.611 138.49C645.233 138.662 643.854 138.719 642.418 138.719C638.972 138.719 636.214 138.375 634.147 137.743C632.079 137.111 630.413 136.135 629.264 134.871C628.058 133.607 627.311 132.056 626.852 130.161C626.45 128.265 626.162 126.082 626.105 123.67V88.9184H616.283V79.096H616.168Z" fill="white"/>
<path d="M155.836 56.6365H96.3279L77.9469 0L59.5085 56.6365L0 56.579L48.1927 91.6178L29.7542 148.197L77.9469 113.215L126.082 148.197L107.701 91.6178L155.836 56.6365Z" fill="#00B67A"/>
<path d="M111.835 104.427L107.7 91.6177L77.9453 113.215L111.835 104.427Z" fill="#005128"/>
</svg>
