<svg width="32" height="32" viewBox="0 0 32 32" fill="none" xmlns="http://www.w3.org/2000/svg">
<circle cx="16" cy="16" r="16" fill="#FC5546"/>
<path d="M23.6505 11.1704C20.9622 6.99829 15.4568 5.76213 11.1992 8.35035C7.04448 10.9386 5.70674 16.5786 8.39509 20.7378L8.61376 21.0726L7.71335 24.4463L11.0834 23.5449L11.4179 23.7638C12.8714 24.5493 14.4535 25 16.0228 25C17.7079 25 19.3929 24.5493 20.8464 23.6479C25.0011 20.9438 26.236 15.4197 23.6505 11.1446V11.1704ZM21.2966 19.8493C20.8464 20.5189 20.2804 20.9696 19.4958 21.0855C19.0456 21.0855 18.4796 21.3044 16.2415 20.4159C14.3378 19.5145 12.7556 18.0466 11.6365 16.3597C10.9677 15.5742 10.6204 14.557 10.5175 13.5397C10.5175 12.6383 10.8519 11.8528 11.4179 11.2863C11.6365 11.0673 11.8681 10.9515 12.0868 10.9515H12.6527C12.8714 10.9515 13.1029 10.9515 13.2187 11.4021C13.4374 11.9687 14.0033 13.3208 14.0033 13.4367C14.1191 13.5526 14.0676 14.4153 13.5531 14.9046C13.2701 15.2265 13.2187 15.2394 13.3345 15.4712C13.7847 16.1408 14.3506 16.8233 14.9037 17.3898C15.5726 17.9564 16.2543 18.4071 17.039 18.7419C17.2577 18.8578 17.4892 18.8578 17.605 18.626C17.7207 18.4071 18.2738 17.8405 18.5054 17.6087C18.724 17.3898 18.8398 17.3898 19.0713 17.4929L20.8721 18.3942C21.0908 18.5101 21.3223 18.6131 21.4381 18.729C21.5539 19.0638 21.5539 19.5145 21.3223 19.8493H21.2966Z" fill="white"/>
</svg>
