<svg width="508" height="369" viewBox="0 0 508 369" fill="none" xmlns="http://www.w3.org/2000/svg">
<g clip-path="url(#clip0_169_1894)">
<path d="M33.7034 363.729C33.7034 363.729 -2.95872 277.519 43.4156 212.378C89.79 147.236 61.5055 89.4759 142.938 31.9843C247.597 -41.9159 348.544 30.9987 378.645 80.4372C408.747 129.876 510.995 104.641 481.286 245.296C458.239 354.41 475.432 359.204 475.432 359.204L33.7146 363.729H33.7034Z" fill="#EAF3FF"/>
<path d="M55.797 340.398C55.797 340.398 -9.27283 306.45 6.40585 230.097C22.0845 153.755 85.9432 135.633 112.209 141.233C161.432 151.739 81.0085 182.73 61.7971 129.529C37.6959 62.7966 123.637 12.2605 203.298 25.3313C254.495 33.7316 279.213 58.2157 324.723 73.5938C370.234 88.9719 389.098 68.3968 371.03 56.502C352.963 44.6072 291.605 63.6367 312.992 88.8823C342.264 123.458 412.829 69.8865 467.514 129.54C522.198 189.193 474.725 264.191 432.691 270.441C390.657 276.69 409.083 216.432 474.725 264.191C540.367 311.949 457.454 363.718 457.454 363.718" stroke="#D5D5D5" stroke-miterlimit="10"/>
<path d="M5.19462 358.946H507.417V363.717C507.417 366.35 505.275 368.489 502.639 368.489H5.19462C2.55907 368.5 0.416992 366.361 0.416992 363.729C0.416992 361.085 2.55907 358.946 5.19462 358.946Z" fill="#3B464C"/>
<path d="M0.416992 358.946H188.741V363.717C188.741 366.35 186.598 368.489 183.963 368.489H5.19462C2.55907 368.5 0.416992 366.361 0.416992 363.729V358.957V358.946Z" fill="#3B464C"/>
<path d="M258.274 176.917C236.977 217.799 213.032 234.454 213.032 234.454L233.702 267.417L269.792 229.951L258.263 176.917H258.274Z" fill="#0C295B"/>
<path d="M311.086 167.162L258.263 176.917C254.921 276.713 253.665 358.935 253.665 358.935H348.466C348.466 358.935 351.213 206.117 335.961 172.773L311.075 167.162H311.086Z" fill="#0C295B"/>
<path d="M304.962 218.012L330.69 215.839" stroke="#0C295B" stroke-width="4" stroke-miterlimit="10"/>
<path d="M293.142 196.563C293.142 196.563 309.471 307.872 295.261 352.909L293.142 196.563Z" fill="#20427C"/>
<path d="M293.142 196.563C293.142 196.563 309.471 307.872 295.261 352.909" stroke="#0C295B" stroke-miterlimit="10"/>
<path d="M276.05 252.318C276.05 252.318 291.829 258.658 312.275 259.33C332.731 260.002 320.002 270.866 289.687 268.805" fill="#20427C"/>
<path d="M276.05 252.318C276.05 252.318 291.829 258.658 312.275 259.33C332.731 260.002 320.002 270.866 289.687 268.805" stroke="#0C295B" stroke-miterlimit="10"/>
<path d="M280.11 163.096L293.142 197.683L311.086 167.162L299.265 147.852L280.11 163.096Z" fill="#E9A394"/>
<path d="M293.142 197.683L317.478 190.974L311.086 167.162L293.142 197.683Z" fill="#20427C"/>
<path d="M283.003 170.78L269.803 185.519L293.142 197.683L283.003 170.78Z" fill="#20427C"/>
<path d="M233.702 267.405C233.702 267.405 241.418 251.344 224.853 230.657C215.668 219.188 211.44 199.385 211.44 199.385L197.645 201.48L210.285 267.405H233.713H233.702Z" fill="#E9A394"/>
<path d="M194.83 178.721L189.178 183.85L196.726 190.504L173.084 190.1L172.58 198.209L197.645 201.491L211.44 199.385L194.83 178.721Z" fill="#E9A394"/>
<path d="M198.957 191.344L176.269 181.991L174.811 186.023L193.742 193.964L198.957 191.344Z" fill="#E9A394"/>
<path d="M335.983 172.773C335.983 172.773 366.466 190.1 376.088 255.029L340.727 263.552L335.983 172.784V172.773Z" fill="#202020"/>
<path d="M269.781 120.837L258.274 150.249L267.078 152.96L269.781 169.525L297.886 163.096L301.946 118.126L269.781 120.837Z" fill="#E9A394"/>
<path d="M288.543 127.826H267.044L269.388 121.487L288.543 120.3V127.826Z" fill="#E37A82"/>
<path d="M299.77 141.244C299.77 141.244 286.054 138.41 286.054 124.242C286.054 124.242 265.71 127.008 258.689 115.976C250.368 102.916 263.085 87.8967 273.583 90.9544C273.583 90.9544 266.966 97.5067 277.015 98.2683C284.181 98.8171 297.269 89.2968 301.946 98.5035C301.946 98.5035 338.013 106.736 311.086 140.292L299.759 141.233L299.77 141.244Z" fill="#202020"/>
<path d="M286.054 123.122C286.054 123.122 258.857 128.364 253.171 108.897C249.852 97.5065 261.269 91.0327 261.269 91.0327" stroke="#202020" stroke-width="2" stroke-miterlimit="10"/>
<path d="M274.547 149.308C280.215 149.308 284.809 144.72 284.809 139.06C284.809 133.4 280.215 128.812 274.547 128.812C268.88 128.812 264.285 133.4 264.285 139.06C264.285 144.72 268.88 149.308 274.547 149.308Z" stroke="#16005C" stroke-width="0.5" stroke-miterlimit="10"/>
<path d="M284.26 135.745L298.884 136.54" stroke="#16005C" stroke-width="0.5" stroke-miterlimit="10"/>
<path d="M317.478 143.831C317.478 150.182 308.955 155.323 302.607 155.323C296.26 155.323 294.465 150.171 294.465 143.831C294.465 137.492 299.624 132.34 305.972 132.34C312.319 132.34 317.478 137.492 317.478 143.831Z" fill="#E9A394"/>
<path d="M371.86 256.037V309.048H345.393L343.195 262.948L371.86 256.037Z" fill="#E9A394"/>
<path d="M256.21 244.053L257.321 207.114L240.173 260.696L256.21 244.053Z" fill="#20427C"/>
<path d="M281.478 166.613L297.886 163.096L284.428 174.565L281.478 166.613Z" fill="#E37A82"/>
<path d="M271.766 143.82C272.85 143.82 273.728 141.99 273.728 139.732C273.728 137.474 272.85 135.644 271.766 135.644C270.682 135.644 269.803 137.474 269.803 139.732C269.803 141.99 270.682 143.82 271.766 143.82Z" fill="#16005C"/>
<path d="M277.104 129.775C277.104 124.287 272.73 127.983 272.73 127.983L277.104 129.775Z" fill="#16005C"/>
<path d="M272.73 154.057L278.988 152.4C278.988 152.4 281.669 175.562 272.73 154.057Z" fill="white"/>
<path d="M137.992 257.863C137.992 257.863 180.172 251.344 181.002 324.807C181.137 336.725 188.74 358.946 188.74 358.946H150.508L137.992 257.863Z" fill="#20427C"/>
<path d="M93.8835 251.344L68.3916 257.359L76.1749 358.946H175.372C175.372 358.946 172.041 278.572 134.639 254.458L93.8947 251.344H93.8835Z" fill="#0C295B"/>
<path d="M68.3915 257.359C42.1146 263.34 48.2605 283.489 53.3409 324.852C40.2305 335.493 52.8026 340.275 52.8026 340.275C38.4024 355.519 56.369 358.946 56.369 358.946H104.336C104.336 358.946 94.6797 251.367 68.3803 257.359H68.3915Z" fill="#0C295B"/>
<path d="M101.487 335.481L89.9805 282.705" stroke="#20427C" stroke-miterlimit="10"/>
<path d="M56.3689 358.946C56.3689 358.946 64.4662 340.376 90.0702 331.035C111.289 323.295 142.344 343.389 162.217 324.292L165.895 345.786L104.347 358.935H56.3801L56.3689 358.946Z" fill="#E9A394"/>
<path d="M140.751 199.027L159.727 227.879L147.559 232.214L145.451 255.667L108.856 242.966L112.299 195.275L140.751 199.027Z" fill="#E9A394"/>
<path d="M112.59 229.335L93.8835 251.344L117.884 280.712L128.695 246.416L112.59 229.335Z" fill="#E37A82"/>
<path d="M118.848 215.704L145.619 206.431L140.751 199.027L114.306 201.771L118.848 215.704Z" fill="#E37A82"/>
<path d="M116.538 225.807C116.538 225.807 124.646 242.014 119.005 210.776C119.005 210.776 126.699 211.639 132.721 201.502C132.721 201.502 130.848 218.023 148.523 201.502C166.198 184.982 143.735 172.057 116.28 176.918C92.4928 181.129 68.6832 194.558 103.472 240.065L116.538 225.807Z" fill="#202020"/>
<path d="M112.209 232.248C110.381 234.689 107.241 236.907 103.988 237.388C97.461 238.341 91.0909 233.2 90.1488 226.681C89.2067 220.162 92.4928 216.78 99.0199 215.839C102.687 215.301 106.927 216.388 110.112 218.605C111.076 219.804 112.22 232.259 112.22 232.259L112.209 232.248Z" fill="#E9A394"/>
<path d="M138.016 223.255C138.99 222.991 139.29 220.972 138.685 218.745C138.08 216.518 136.8 214.927 135.825 215.191C134.851 215.455 134.551 217.474 135.156 219.701C135.761 221.928 137.042 223.519 138.016 223.255Z" fill="#16005C"/>
<path d="M130.602 213.554C130.602 213.554 129.648 208.2 134.628 210.776L130.602 213.554Z" fill="#16005C"/>
<path d="M90.8892 252.251L95.2406 247.267L93.6369 243.571L103.472 240.065L131.678 254.234L132.721 265.053L127.944 263.541L120.149 292.55L90.8892 252.251Z" fill="#20427C"/>
<path d="M116.359 259.33L132.721 265.053L131.678 254.234" stroke="#3C619F" stroke-miterlimit="10"/>
<path d="M119.005 210.776C119.005 210.776 122.291 229.907 127.114 233.838C128.695 235.126 131.69 231.844 145.451 231.564C153.873 231.396 153.862 260.741 142.692 259.901C131.521 259.061 114.542 252.106 111.996 230.713C109.764 211.941 119.005 210.776 119.005 210.776Z" fill="#202020"/>
<path d="M132.721 237.388C132.721 237.388 135.559 242.664 141.155 239.091" stroke="#C4C6C5" stroke-miterlimit="10"/>
<path d="M102.396 346.872H196.569C199.395 346.872 201.683 349.157 201.683 351.98V353.839C201.683 356.661 199.395 358.946 196.569 358.946H107.51C104.684 358.946 102.396 356.661 102.396 353.839V346.872Z" fill="#202020"/>
<path d="M273.044 277.015H163.495C160.243 277.015 157.495 279.435 157.08 282.66L148.254 351.666C147.761 355.53 150.778 358.946 154.669 358.946H264.218C267.47 358.946 270.218 356.527 270.633 353.301L279.459 284.296C279.953 280.431 276.936 277.015 273.044 277.015Z" fill="#202020"/>
<path d="M278.349 277.015H168.8C165.548 277.015 162.8 279.435 162.385 282.66L153.559 351.666C153.065 355.53 156.082 358.946 159.974 358.946H269.523C272.775 358.946 275.523 356.527 275.938 353.301L284.764 284.296C285.257 280.431 282.241 277.015 278.349 277.015Z" fill="#3B464C"/>
<path d="M226.229 325.38C230.789 321.058 231.327 314.23 227.43 310.129C223.533 306.027 216.677 306.206 212.117 310.528C207.557 314.85 207.019 321.678 210.916 325.78C214.813 329.881 221.669 329.702 226.229 325.38Z" fill="white"/>
<path d="M275.96 358.364H139.607" stroke="#202020" stroke-miterlimit="10"/>
<path d="M336.219 266.016L381.483 266.879L371.221 211.583L347.154 214.304C347.154 214.304 336.309 230.287 344.877 242.708C354.533 256.731 335.232 257.247 336.219 266.028V266.016Z" fill="#202020"/>
<path d="M347.154 214.293C347.154 214.293 336.309 230.276 344.877 242.697C354.533 256.72 335.232 257.235 336.219 266.016" stroke="#4F4F4F" stroke-width="2" stroke-miterlimit="10"/>
<path d="M356.182 259.33C356.182 259.33 335.591 279.513 324.723 355.575H347.647L356.182 259.33Z" fill="#081E45"/>
<path d="M410.62 253.707L401.659 355.575H335.075L343.363 316.665C343.363 316.665 318.017 303.459 356.193 259.33L365.681 254.458L406.908 251.344L410.62 253.707Z" fill="#20427C"/>
<path d="M356.182 304.927C356.182 304.927 352.189 311.759 356.025 317.236L350.372 355.586" stroke="#081E45" stroke-miterlimit="10"/>
<path d="M346.884 316.844L385.442 317.986" stroke="#081E45" stroke-miterlimit="10"/>
<path d="M393.046 336.019L388.975 287.028" stroke="#081E45" stroke-miterlimit="10"/>
<path d="M410.62 253.707C410.62 253.707 414.298 258.322 418.549 269.041C424.582 284.228 431.782 311.68 431.311 355.575H401.647L410.608 253.707H410.62Z" fill="#20427C"/>
<path d="M431.312 358.935C431.312 358.935 416.496 325.087 379.218 334.776C338.518 345.349 323.4 343.378 323.4 343.378L320.316 358.935H431.312Z" fill="#E9A394"/>
<path d="M392.518 327.664L379.296 330.62L409.341 358.946H437.659C437.659 358.946 425.457 329.388 392.53 327.675L392.518 327.664Z" fill="#081E45"/>
<path d="M393.337 336.445L399.64 334.518" stroke="#C3C8FF" stroke-miterlimit="10"/>
<path d="M323.411 343.378L304.065 339.379L290.203 358.935H320.316L323.411 343.378Z" fill="#E9A394"/>
<path d="M356.182 304.927L392.126 269.029L385.442 265.882L410.62 253.707L399.057 246.36H372.163L356.182 266.308L360.6 267.405L356.182 270.497V304.927Z" fill="#081E45"/>
<path d="M381.315 258.568L393.046 250.459L380.373 222.167L360.735 234.487L366.264 257.963L356.182 304.927L381.315 258.568Z" fill="#E9A394"/>
<path d="M362.316 241.185L376.1 234.006L363.797 247.458L362.316 241.185Z" fill="#E37A82"/>
<path d="M337.127 200.214L331.116 233.535H340.144L350.283 247.458L376.1 234.006L358.043 193.83L337.127 200.214Z" fill="#E9A394"/>
<path d="M335.669 208.301L335.064 211.952L358.885 208.715L358.514 204.157L335.669 208.301Z" fill="#E37A82"/>
<path d="M402.949 197.683C396.982 181.543 389.704 175.327 389.704 175.327C375.09 160.834 350.126 176.917 350.126 176.917C318.129 169.178 331.116 208.861 331.116 208.861L357.18 205.669C360.825 227.498 373.857 216.444 373.857 216.444L379.935 227.386C379.935 227.386 373.801 232.796 380.193 242.081C385.453 249.72 372.847 252.33 376.111 260.461L426.478 250.034C426.478 216.936 413.726 226.86 402.96 197.694L402.949 197.683Z" fill="#202020"/>
<path d="M329.075 209.118C329.075 209.118 324.465 186.471 332.933 179.09C337.352 175.248 351.247 176.917 351.247 176.917" stroke="#4F4F4F" stroke-width="2" stroke-miterlimit="10"/>
<path d="M429.775 249.07C429.775 249.07 433.801 234.006 411.876 216.925" stroke="#4F4F4F" stroke-width="2" stroke-miterlimit="10"/>
<path d="M374.597 228.798C380.593 228.798 385.453 223.944 385.453 217.956C385.453 211.968 380.593 207.114 374.597 207.114C368.601 207.114 363.741 211.968 363.741 217.956C363.741 223.944 368.601 228.798 374.597 228.798Z" fill="#E9A394"/>
<path d="M346.884 232.314L353.613 230.668C353.613 230.668 355.98 249.832 346.884 232.314Z" fill="white"/>
<path d="M341.277 220.991C341.277 220.991 343.419 207.954 348.107 220.991" stroke="#202020" stroke-width="0.5" stroke-miterlimit="10"/>
<path d="M342.937 211.079C342.937 211.079 345.539 206.666 348.634 211.079H342.937Z" fill="#202020"/>
<path d="M241.709 93.6649C237.807 82.8229 225.537 77.402 214.782 82.0277C205.53 86.0151 200.617 96.4986 203.488 106.153C205.092 111.552 208.715 115.718 213.257 118.16C217.451 120.411 221.04 123.615 223.676 127.568L224.438 128.711L239.511 123.301L239.366 121.946C238.872 117.141 239.713 112.336 241.485 107.845C243.223 103.465 243.425 98.4587 241.709 93.6761V93.6649Z" fill="#C3C8FF"/>
<path d="M241.709 93.6649C237.807 82.8229 225.537 77.402 214.782 82.0277C205.53 86.0151 200.617 96.4986 203.488 106.153C205.092 111.552 208.715 115.718 213.257 118.16C217.451 120.411 221.04 123.615 223.676 127.568L224.438 128.711L239.511 123.301L239.366 121.946C238.872 117.141 239.713 112.336 241.485 107.845C243.223 103.465 243.425 98.4587 241.709 93.6761V93.6649Z" fill="#FFDA79"/>
<path d="M227.892 124.264L215.881 107.341C215.881 107.341 216.105 103.913 219.874 104.462C223.642 105.011 225.896 110.947 223.205 109.984C220.513 109.021 219.56 102.043 224.651 100.979C229.743 99.9147 231.448 111.462 228.633 109.233C225.818 107.005 226.412 99.657 231.863 99.5898L235.059 123.995" stroke="white" stroke-miterlimit="10"/>
<path d="M234.154 120.96L227.083 123.499C224.391 124.466 222.993 127.43 223.961 130.12L225.453 134.262C226.421 136.951 229.389 138.347 232.082 137.38L239.153 134.84C241.845 133.873 243.243 130.909 242.275 128.22L240.783 124.078C239.815 121.389 236.847 119.992 234.154 120.96Z" fill="#202020"/>
<path d="M240.841 117.18L219.534 124.833L223.276 135.225L244.584 127.572L240.841 117.18Z" fill="#3B464C"/>
<path d="M222.274 75.2515L220.143 63.0767" stroke="#C3C8FF" stroke-miterlimit="10"/>
<path d="M206.909 82.4982L196.737 72.5635" stroke="#C3C8FF" stroke-miterlimit="10"/>
<path d="M196.3 100.542L184.692 101.371" stroke="#C3C8FF" stroke-miterlimit="10"/>
<path d="M239.018 81.9157L244.244 72.2385" stroke="#C3C8FF" stroke-miterlimit="10"/>
<path d="M402.578 171.351H474.613C477.114 171.351 479.514 169.324 479.974 166.826L487.42 125.81C487.869 123.312 486.209 121.285 483.708 121.285H411.674C409.173 121.285 406.773 123.312 406.313 125.81L398.866 166.826C398.418 169.324 400.077 171.351 402.578 171.351Z" fill="#FC5546"/>
<path d="M460.352 149.501C462.455 147.582 462.86 144.605 461.256 142.851C459.652 141.097 456.646 141.231 454.543 143.15C452.439 145.069 452.034 148.047 453.638 149.8C455.242 151.554 458.248 151.42 460.352 149.501Z" fill="white"/>
<path d="M446.048 149.5C448.152 147.581 448.557 144.603 446.953 142.85C445.349 141.096 442.343 141.23 440.239 143.149C438.136 145.068 437.731 148.045 439.335 149.799C440.939 151.553 443.945 151.419 446.048 149.5Z" fill="white"/>
<path d="M431.736 149.495C433.84 147.576 434.245 144.599 432.641 142.845C431.037 141.091 428.031 141.225 425.927 143.144C423.824 145.063 423.419 148.041 425.023 149.794C426.627 151.548 429.633 151.414 431.736 149.495Z" fill="white"/>
<path d="M441.349 168.652L416.317 183.515L420.803 167.487L441.349 168.652Z" fill="#FC5546"/>
<path d="M170.527 165.269H98.4929C95.9919 165.269 93.5919 163.242 93.1321 160.744L85.6853 119.728C85.2366 117.231 86.8965 115.203 89.3974 115.203H161.432C163.933 115.203 166.333 117.231 166.793 119.728L174.24 160.744C174.688 163.242 173.028 165.269 170.527 165.269Z" fill="#FC5546"/>
<path d="M119.472 143.7C121.076 141.946 120.671 138.969 118.567 137.05C116.464 135.131 113.458 134.997 111.854 136.751C110.25 138.505 110.655 141.482 112.758 143.401C114.862 145.32 117.868 145.454 119.472 143.7Z" fill="white"/>
<path d="M133.77 143.707C135.374 141.954 134.969 138.976 132.865 137.057C130.762 135.138 127.756 135.004 126.152 136.758C124.548 138.512 124.953 141.489 127.056 143.408C129.16 145.327 132.166 145.461 133.77 143.707Z" fill="white"/>
<path d="M148.087 143.706C149.691 141.952 149.286 138.975 147.182 137.056C145.079 135.136 142.073 135.003 140.469 136.756C138.865 138.51 139.27 141.488 141.373 143.407C143.477 145.326 146.483 145.46 148.087 143.706Z" fill="white"/>
<path d="M144.833 162.581L148.781 176.918L164.763 161.573L144.833 162.581Z" fill="#FC5546"/>
</g>
<defs>
<clipPath id="clip0_169_1894">
<rect width="507" height="368" fill="white" transform="translate(0.416992 0.5)"/>
</clipPath>
</defs>
</svg>
