<svg width="791" height="536" viewBox="0 0 791 536" fill="none" xmlns="http://www.w3.org/2000/svg">
<path d="M540.435 377.36C495.604 389.786 410.921 476.384 463.429 517.001C515.936 557.62 672.777 340.677 540.435 377.36Z" fill="#ECF2FA"/>
<path d="M552.565 364.222C362.521 402.955 419.536 501.841 292.736 525.129C121.656 556.551 41.4295 299.997 148.685 141.664C234.396 15.1405 382.253 -24.8307 513.259 27.1269C698.299 100.525 702.569 333.652 552.565 364.222Z" fill="#ECF2FA"/>
<path d="M662.944 507.04H107.406C99.0745 507.04 92.2578 500.224 92.2578 491.893V86.5434C92.2578 78.2123 99.0745 71.3953 107.406 71.3953H662.944C671.274 71.3953 678.091 78.212 678.091 86.5434V491.893C678.091 500.224 671.274 507.04 662.944 507.04Z" fill="#050521"/>
<path d="M664.884 86.6164H105.477V502.61H664.884V86.6164Z" fill="white"/>
<path d="M735.953 490.11H34.4062V517.998H735.953V490.11Z" fill="#050521"/>
<path d="M653.256 94.3104H115.891V476.509H653.256V94.3104Z" fill="white"/>
<path d="M303.922 314.284H123.71C119.137 314.284 115.43 310.577 115.43 306.004V110.409C115.43 105.837 119.137 102.13 123.71 102.13H303.922C308.495 102.13 312.202 105.837 312.202 110.409V306.004C312.201 310.577 308.495 314.284 303.922 314.284Z" fill="#EBF2FF"/>
<path d="M263.369 148.286L242.708 161.68C232.07 145.341 210.25 141.137 194.432 151.947L180.578 131.58C207.468 113.255 244.998 119.99 263.369 148.286Z" fill="url(#paint0_linear_2819_1033)"/>
<path d="M203.664 238.639L207.896 214.354C209.828 214.703 211.814 214.905 213.838 214.905C241.322 214.905 257.459 184.362 242.723 161.68L263.384 148.286C291.038 190.826 255.158 247.495 203.664 238.639Z" fill="url(#paint1_linear_2819_1033)"/>
<path d="M184.43 198.384L163.401 211.225C147.256 184.929 154.052 149.666 180.585 131.58L194.439 151.947C179.392 162.192 174.725 182.489 184.43 198.384Z" fill="url(#paint2_linear_2819_1033)"/>
<path d="M207.893 214.354L203.661 238.639C186.625 235.677 172.09 225.429 163.406 211.226L184.435 198.384C189.513 206.662 197.976 212.624 207.893 214.354Z" fill="#111228"/>
<path d="M149.381 278.717V278.735C149.381 284.417 144.766 289.05 139.066 289.05C136.215 289.05 133.641 287.892 131.766 286.017C129.909 284.16 128.75 281.585 128.75 278.735V278.717C128.75 273.034 133.365 268.401 139.066 268.401C141.916 268.401 144.49 269.56 146.366 271.434C148.223 273.292 149.381 275.885 149.381 278.717Z" fill="url(#paint3_linear_2819_1033)"/>
<path d="M181.871 273.234H155.227V276.787H181.871V273.234Z" fill="#B2C7FF"/>
<path d="M171.082 280.664H155.227V284.217H171.082V280.664Z" fill="#B2C7FF"/>
<path d="M207.889 278.717V278.735C207.889 284.417 203.274 289.05 197.574 289.05C194.724 289.05 192.15 287.892 190.274 286.017C188.417 284.16 187.258 281.585 187.258 278.735V278.717C187.258 273.034 191.873 268.401 197.573 268.401C200.424 268.401 202.998 269.56 204.874 271.434C206.731 273.292 207.889 275.885 207.889 278.717Z" fill="url(#paint4_linear_2819_1033)"/>
<path d="M240.386 273.234H213.742V276.787H240.386V273.234Z" fill="#B2C7FF"/>
<path d="M229.598 280.664H213.742V284.217H229.598V280.664Z" fill="#B2C7FF"/>
<path d="M266.381 278.717V278.735C266.381 284.417 261.766 289.05 256.066 289.05C253.215 289.05 250.641 287.892 248.766 286.017C246.908 284.16 245.75 281.585 245.75 278.735V278.717C245.75 273.034 250.365 268.401 256.066 268.401C258.916 268.401 261.49 269.56 263.366 271.434C265.223 273.292 266.381 275.885 266.381 278.717Z" fill="url(#paint5_linear_2819_1033)"/>
<path d="M298.879 273.234H272.234V276.787H298.879V273.234Z" fill="#B2C7FF"/>
<path d="M288.09 280.664H272.234V284.217H288.09V280.664Z" fill="#B2C7FF"/>
<path d="M653.015 109.393V305.46C653.015 309.472 649.759 312.727 645.748 312.727H332.595C328.585 312.727 325.328 309.472 325.328 305.46V109.393C325.328 105.382 328.585 102.125 332.595 102.125H645.748C649.759 102.125 653.015 105.382 653.015 109.393Z" fill="#EBF2FF"/>
<path d="M451.551 129.299V285.554C451.551 290.171 447.798 293.925 443.18 293.925H347.988C343.37 293.925 339.617 290.172 339.617 285.554V129.299C339.617 124.681 343.37 120.928 347.988 120.928H443.18C447.798 120.928 451.551 124.681 451.551 129.299Z" fill="url(#paint6_linear_2819_1033)"/>
<g opacity="0.6">
<path d="M401.889 202.152H354.32L378.097 172.826L388.046 185.088L401.889 202.152Z" fill="white"/>
<path d="M436.821 202.154H376.898L406.855 165.216L436.821 202.154Z" fill="white"/>
<path d="M392.43 162.72C392.43 165.869 389.871 168.427 386.723 168.427C383.574 168.427 381.016 165.868 381.016 162.72C381.016 159.571 383.574 157.028 386.723 157.028C389.871 157.028 392.43 159.571 392.43 162.72Z" fill="white"/>
</g>
<path opacity="0.6" d="M423.552 228.662H348.973C347.818 228.662 346.883 227.726 346.883 226.572V220.601C346.883 219.447 347.819 218.511 348.973 218.511H423.552C424.706 218.511 425.641 219.447 425.641 220.601V226.572C425.641 227.726 424.706 228.662 423.552 228.662Z" fill="white"/>
<g opacity="0.6">
<path d="M401.123 255.093C401.123 256.237 400.19 257.17 399.031 257.17H348.96C347.817 257.17 346.883 256.237 346.883 255.093C346.883 253.934 347.817 253.001 348.96 253.001H399.031C400.19 253.001 401.123 253.934 401.123 255.093Z" fill="white"/>
<path d="M434.521 246.513C434.521 247.672 433.588 248.605 432.429 248.605H348.96C347.817 248.605 346.883 247.672 346.883 246.513C346.883 245.369 347.817 244.436 348.96 244.436H432.429C433.589 244.436 434.521 245.369 434.521 246.513Z" fill="white"/>
<path d="M346.883 237.933C346.883 236.789 347.817 235.856 348.96 235.856H432.429C433.588 235.856 434.521 236.789 434.521 237.933C434.521 239.092 433.588 240.025 432.429 240.025H348.96C347.817 240.025 346.883 239.092 346.883 237.933Z" fill="white"/>
</g>
<path d="M597.521 126.087H476.344V131.779H597.521V126.087Z" fill="url(#paint7_linear_2819_1033)"/>
<path d="M507.283 139.335H476.344V145.027H507.283V139.335Z" fill="url(#paint8_linear_2819_1033)"/>
<path d="M534.717 192.327H490.477V198.019H534.717V192.327Z" fill="url(#paint9_linear_2819_1033)"/>
<path d="M583.654 192.327H544.156V198.019H583.654V192.327Z" fill="url(#paint10_linear_2819_1033)"/>
<path d="M586.492 139.335H539.336V145.027H586.492V139.335Z" fill="url(#paint11_linear_2819_1033)"/>
<path d="M545.63 152.583H476.344V158.275H545.63V152.583Z" fill="url(#paint12_linear_2819_1033)"/>
<path d="M590.832 152.583H559.805V158.275H590.832V152.583Z" fill="url(#paint13_linear_2819_1033)"/>
<path d="M551.79 165.83H500.461V171.524H551.79V165.83Z" fill="url(#paint14_linear_2819_1033)"/>
<path d="M579.055 165.83H564.344V171.524H579.055V165.83Z" fill="url(#paint15_linear_2819_1033)"/>
<path d="M618.653 165.83H588.695V171.524H618.653V165.83Z" fill="url(#paint16_linear_2819_1033)"/>
<path d="M494.279 218.173H478.766V223.867H494.279V218.173Z" fill="url(#paint17_linear_2819_1033)"/>
<path d="M546.194 218.173H503.906V223.867H546.194V218.173Z" fill="url(#paint18_linear_2819_1033)"/>
<path d="M542.142 179.078H503.117V184.772H542.142V179.078Z" fill="url(#paint19_linear_2819_1033)"/>
<path d="M590.287 179.078H554.445V184.772H590.287V179.078Z" fill="url(#paint20_linear_2819_1033)"/>
<path d="M534.717 283.074H490.477V288.766H534.717V283.074Z" fill="url(#paint21_linear_2819_1033)"/>
<path d="M583.654 283.074H544.156V288.766H583.654V283.074Z" fill="url(#paint22_linear_2819_1033)"/>
<path d="M551.79 256.578H500.461V262.271H551.79V256.578Z" fill="url(#paint23_linear_2819_1033)"/>
<path d="M579.055 256.578H564.344V262.271H579.055V256.578Z" fill="url(#paint24_linear_2819_1033)"/>
<path d="M618.653 256.578H588.695V262.271H618.653V256.578Z" fill="url(#paint25_linear_2819_1033)"/>
<path d="M542.142 269.826H503.117V275.519H542.142V269.826Z" fill="url(#paint26_linear_2819_1033)"/>
<path d="M590.287 269.826H554.445V275.519H590.287V269.826Z" fill="url(#paint27_linear_2819_1033)"/>
<path d="M575.731 218.691C575.097 218.059 574.234 217.816 573.189 218.213L558.243 224.918C557.172 225.424 556.445 226.366 556.445 227.575V227.874C556.445 229.089 557.174 230.028 558.256 230.537L573.189 237.235L573.233 237.254C574.08 237.573 575.054 237.433 575.732 236.755C576.903 235.581 576.444 233.632 574.914 232.995L563.056 227.724L574.897 222.461C576.47 221.807 576.89 219.856 575.731 218.691Z" fill="url(#paint28_linear_2819_1033)"/>
<path d="M588.713 211.004L578.794 240.014C578.474 240.982 578.7 241.836 579.29 242.451C580.416 243.624 582.582 243.306 583.163 241.563L593.084 212.553C593.402 211.587 593.18 210.736 592.587 210.114C591.482 208.967 589.296 209.251 588.713 211.004Z" fill="url(#paint29_linear_2819_1033)"/>
<path d="M613.572 224.912L598.628 218.208C597.833 217.868 596.755 218.034 596.098 218.693C594.92 219.87 595.394 221.823 596.914 222.453L608.773 227.724L596.929 232.988C596.058 233.354 595.438 234.193 595.438 235.134C595.438 236.846 597.163 237.871 598.64 237.235L613.585 230.53C614.656 230.028 615.383 229.082 615.383 227.874V227.574C615.383 226.364 614.662 225.427 613.572 224.912Z" fill="url(#paint30_linear_2819_1033)"/>
<path d="M551.155 394.071L331.931 395.164C328.284 395.164 325.328 392.208 325.328 388.561V340.484C325.328 336.837 328.284 333.881 331.931 333.881L551.155 332.788C554.801 332.788 557.757 335.744 557.757 339.39V387.468C557.757 391.114 554.801 394.071 551.155 394.071Z" fill="url(#paint31_linear_2819_1033)"/>
<path d="M298.221 395.164H145.115C141.462 395.164 138.5 392.202 138.5 388.549V340.496C138.5 336.843 141.462 333.881 145.115 333.881H298.221C301.874 333.881 304.836 336.843 304.836 340.496V388.549C304.836 392.202 301.874 395.164 298.221 395.164Z" fill="url(#paint32_linear_2819_1033)"/>
<path d="M378.036 364.522C378.036 375.309 369.436 384.053 358.827 384.053C348.218 384.053 339.617 375.309 339.617 364.522C339.617 353.736 348.218 344.991 358.827 344.991C369.436 344.991 378.036 353.736 378.036 364.522Z" fill="url(#paint33_linear_2819_1033)"/>
<path d="M358.807 362.555C360.775 362.555 362.371 360.932 362.371 358.931C362.371 356.929 360.775 355.307 358.807 355.307C356.838 355.307 355.242 356.929 355.242 358.931C355.242 360.932 356.838 362.555 358.807 362.555Z" fill="white"/>
<path d="M367.85 373.738C367.656 368.831 363.693 364.908 358.819 364.908C353.945 364.908 349.982 368.831 349.789 373.738H367.85Z" fill="white"/>
<path d="M448.919 350.922H389.125V360.562H448.919V350.922Z" fill="white"/>
<path d="M528.781 366.575H389.125V371.277H528.781V366.575Z" fill="white"/>
<path d="M435.183 376.168H389.125V380.87H435.183V376.168Z" fill="white"/>
<path d="M479.191 376.168H443.453V380.87H479.191V376.168Z" fill="white"/>
<path d="M198.557 377.683C197.425 377.016 197.385 375.713 198.068 374.899C198.577 374.293 199.421 374.249 200.003 374.537C201.306 375.161 202.624 375.472 203.956 375.472C208.062 375.472 209.1 372.795 209.1 369.18V350.771C209.1 349.722 209.898 348.816 211.014 348.816C212.106 348.816 212.969 349.695 212.969 350.771V368.926C212.969 375.065 210.378 379.129 204.212 379.129C202.142 379.129 200.258 378.647 198.557 377.683Z" fill="white"/>
<path d="M220.237 377.088C219.053 376.594 218.629 375.079 219.536 374.09C220.087 373.491 220.938 373.438 221.598 373.729C224.205 374.891 226.997 375.472 229.973 375.472C234.932 375.472 237.412 373.842 237.412 370.583C237.412 367.612 233.182 366.757 230.101 365.949C224.607 364.524 219.345 363.096 219.345 357.318C219.345 352.73 222.956 348.603 230.356 348.603C233.474 348.603 236.294 349.07 238.815 350.006C240.229 350.511 240.283 352.062 239.539 352.939C239.117 353.437 238.461 353.658 237.625 353.323C235.415 352.557 233.132 352.174 230.78 352.174C227.19 352.174 223.213 353.434 223.213 357.021C223.213 360.479 227.366 361.33 230.823 362.122C236.505 363.49 241.238 364.941 241.238 370.838C241.238 376.239 236.077 379.128 230.356 379.128C226.756 379.129 223.383 378.448 220.237 377.088Z" fill="white"/>
<path opacity="0.4" d="M673.622 170.458C720.682 170.458 758.831 132.309 758.831 85.2499C758.831 38.1906 720.682 0.0415039 673.622 0.0415039C626.563 0.0415039 588.414 38.1906 588.414 85.2499C588.414 132.309 626.563 170.458 673.622 170.458Z" fill="black"/>
<path d="M668.521 170.458C715.58 170.458 753.729 132.309 753.729 85.2499C753.729 38.1907 715.58 0.041748 668.521 0.041748C621.461 0.041748 583.312 38.1907 583.312 85.2499C583.312 132.309 621.461 170.458 668.521 170.458Z" fill="white"/>
<path d="M668.528 95.6214C674.256 95.6214 678.899 90.9779 678.899 85.2498C678.899 79.5218 674.256 74.8783 668.528 74.8783C662.8 74.8783 658.156 79.5218 658.156 85.2498C658.156 90.9779 662.8 95.6214 668.528 95.6214Z" fill="#61DAFB"/>
<path d="M668.512 64.0013C699.246 64.0013 724.163 73.5136 724.163 85.2492C724.163 96.9849 699.246 106.499 668.512 106.499C637.776 106.499 612.859 96.9849 612.859 85.2492C612.859 73.5136 637.776 64.0013 668.512 64.0013Z" stroke="#61DAFB" stroke-width="4"/>
<path d="M696.319 133.447C706.482 127.58 702.263 101.246 686.895 74.6285C671.527 48.0114 650.83 31.1908 640.667 37.0585C630.504 42.9263 634.724 69.2604 650.091 95.8775C665.459 122.495 686.156 139.315 696.319 133.447Z" stroke="#61DAFB" stroke-width="4"/>
<path d="M640.664 133.437C650.827 139.305 671.524 122.484 686.891 95.8672C702.259 69.2501 706.479 42.916 696.316 37.0483C686.153 31.1805 665.456 48.0011 650.088 74.6182C634.72 101.235 630.501 127.569 640.664 133.437Z" stroke="#61DAFB" stroke-width="4"/>
<path d="M315.167 253.042V441.601C315.167 445.844 311.719 449.294 307.474 449.294H8.38379C4.14045 449.294 0.703125 445.844 0.703125 441.601V253.054C0.703125 247.63 5.09957 243.234 10.5119 243.234H305.347C310.771 243.234 315.167 247.63 315.167 253.042Z" fill="#FDFDFD"/>
<path d="M307.48 449.744H8.38921C3.90671 449.744 0.257812 446.09 0.257812 441.601V253.054C0.257812 247.391 4.86031 242.784 10.5171 242.784H305.352C311.015 242.784 315.623 247.386 315.623 253.042V441.601C315.623 446.09 311.97 449.744 307.48 449.744ZM10.5174 243.685C5.35683 243.685 1.15928 247.888 1.15928 253.054V441.601C1.15928 445.594 4.40296 448.843 8.38949 448.843H307.48C311.473 448.843 314.722 445.594 314.722 441.601V253.042C314.722 247.882 310.519 243.685 305.352 243.685H10.5174Z" fill="#1D1A2F"/>
<path d="M315.158 277.044H0.695312V253.049C0.695312 247.628 5.0901 243.232 10.511 243.232H305.342C310.763 243.232 315.158 247.628 315.158 253.049L315.158 277.044Z" fill="#1D1A2F"/>
<path d="M54.7734 260.138C54.7734 257.27 57.0983 254.945 59.9654 254.945C62.8342 254.945 65.1585 257.27 65.1585 260.138C65.1585 263.006 62.8342 265.33 59.9654 265.33C57.0983 265.33 54.7734 263.006 54.7734 260.138Z" fill="#5C6CFF"/>
<path d="M39.9746 265.331C42.8428 265.331 45.168 263.006 45.168 260.138C45.168 257.269 42.8428 254.944 39.9746 254.944C37.1064 254.944 34.7812 257.269 34.7812 260.138C34.7812 263.006 37.1064 265.331 39.9746 265.331Z" fill="#FF6D18"/>
<path d="M19.9986 265.33C22.8671 265.33 25.1925 263.005 25.1925 260.138C25.1925 257.27 22.8671 254.945 19.9986 254.945C17.1301 254.945 14.8047 257.27 14.8047 260.138C14.8047 263.005 17.1301 265.33 19.9986 265.33Z" fill="white"/>
<path d="M290.414 256.342L292.985 253.771L296.657 257.443L300.328 253.771L302.899 256.342L299.227 260.014L302.899 263.685L300.328 266.256L296.657 262.584L292.985 266.256L290.414 263.685L294.086 260.014L290.414 256.342Z" fill="white"/>
<path d="M275.632 298.529L275.558 366.876C275.556 370.116 272.908 372.758 269.667 372.755L195.958 372.676C192.717 372.673 190.076 370.024 190.078 366.785L190.152 298.437C190.156 295.173 192.802 292.531 196.044 292.535L269.753 292.614C272.993 292.616 275.636 295.265 275.632 298.529Z" fill="#FDFDFD"/>
<path d="M269.662 373.205C269.661 373.205 269.658 373.205 269.655 373.205L195.947 373.127C192.455 373.123 189.614 370.278 189.617 366.785L189.691 298.437C189.693 296.74 190.355 295.143 191.555 293.942C192.752 292.744 194.341 292.084 196.028 292.084C196.03 292.084 196.033 292.084 196.035 292.084L269.743 292.163C273.237 292.167 276.076 295.023 276.072 298.529L275.998 366.877C275.996 368.565 275.335 370.153 274.135 371.351C272.936 372.547 271.348 373.205 269.662 373.205ZM196.028 292.985C194.581 292.985 193.22 293.551 192.192 294.579C191.162 295.61 190.594 296.981 190.592 298.438L190.518 366.785C190.516 369.782 192.951 372.223 195.949 372.226L269.657 372.304C269.659 372.304 269.661 372.304 269.663 372.304C271.107 372.304 272.47 371.739 273.499 370.713C274.529 369.685 275.097 368.322 275.098 366.875L275.172 298.529C275.175 295.518 272.739 293.067 269.742 293.064L196.033 292.985C196.031 292.985 196.03 292.985 196.028 292.985Z" fill="#1D1A2F"/>
<path d="M275.58 333.083L275.543 366.877C275.54 370.117 272.892 372.758 269.651 372.755L195.943 372.677C192.702 372.673 190.06 370.024 190.063 366.785L190.073 357.228L202.909 342.967C204.006 341.753 205.89 341.708 207.033 342.9L223.957 360.434C225.076 361.603 226.958 361.581 228.055 360.391L262.914 322.442C264.082 321.181 266.108 321.254 267.202 322.591L275.58 333.083Z" fill="#5C6CFF"/>
<path d="M269.662 373.205C269.661 373.205 269.658 373.205 269.655 373.205L195.947 373.127C192.455 373.123 189.614 370.278 189.617 366.785L189.628 357.055L202.579 342.666C203.19 341.989 204.058 341.593 204.962 341.58C205.879 341.552 206.727 341.924 207.363 342.588L224.286 360.121C224.735 360.59 225.338 360.847 225.988 360.847C225.996 360.847 226.004 360.847 226.01 360.847C226.672 360.84 227.283 360.571 227.73 360.085L262.587 322.137C263.23 321.442 264.162 321.063 265.092 321.091C266.051 321.12 266.949 321.563 267.556 322.305L276.035 332.926L275.998 366.877C275.997 368.565 275.335 370.153 274.135 371.351C272.936 372.547 271.348 373.205 269.662 373.205ZM190.529 357.4L190.518 366.785C190.516 369.782 192.951 372.223 195.949 372.226L269.657 372.305C269.659 372.305 269.661 372.305 269.663 372.305C271.107 372.305 272.47 371.739 273.499 370.713C274.528 369.685 275.097 368.322 275.098 366.875L275.135 333.241L266.855 322.871C266.416 322.335 265.762 322.013 265.065 321.991C264.372 321.971 263.714 322.245 263.25 322.747L228.392 360.695C227.783 361.355 226.919 361.739 226.019 361.748C225.087 361.741 224.263 361.399 223.637 360.744L206.714 343.212C206.26 342.739 205.657 342.48 205.011 342.48C205 342.48 204.988 342.48 204.975 342.481C204.312 342.49 203.698 342.771 203.249 343.268L190.529 357.4Z" fill="#1D1A2F"/>
<path d="M226.287 313.241C226.293 307.54 221.676 302.913 215.975 302.907C210.274 302.901 205.647 307.518 205.641 313.219C205.635 318.92 210.252 323.548 215.953 323.554C221.655 323.56 226.281 318.942 226.287 313.241Z" fill="#FF6D18"/>
<path d="M215.97 324.005C215.965 324.005 215.962 324.005 215.957 324.005C210.018 323.998 205.19 319.16 205.195 313.218C205.202 307.282 210.034 302.457 215.968 302.457C215.973 302.457 215.976 302.457 215.981 302.457C218.859 302.46 221.563 303.583 223.595 305.62C225.628 307.657 226.746 310.364 226.742 313.241C226.739 316.119 225.616 318.824 223.579 320.856C221.546 322.887 218.843 324.005 215.97 324.005ZM215.969 303.358C210.53 303.358 206.103 307.779 206.097 313.219C206.091 318.663 210.516 323.098 215.959 323.103C215.963 323.103 215.966 323.103 215.97 323.103C218.603 323.103 221.079 322.08 222.943 320.219C224.809 318.356 225.839 315.877 225.842 313.24C225.844 310.603 224.82 308.123 222.958 306.257C221.095 304.39 218.617 303.361 215.979 303.358C215.977 303.358 215.972 303.358 215.969 303.358Z" fill="#1D1A2F"/>
<path d="M70.715 433.171L70.5981 427.589H23.1875L23.3042 433.171H70.715Z" fill="#5C6CFF"/>
<path d="M136.331 433.171L136.215 427.589H88.8047L88.9205 433.171H136.331Z" fill="#5C6CFF"/>
<path d="M52.21 416.985L52.0931 411.403H24.1484L24.2643 416.985H52.21Z" fill="#5C6CFF"/>
<path d="M82.7777 400.187L82.6608 394.606H23.5703L23.6875 400.187H82.7777Z" fill="#5C6CFF"/>
<path d="M63.5663 416.985L63.4494 411.403H54.9688L55.0857 416.985H63.5663Z" fill="#5C6CFF"/>
<path d="M117.852 416.985L117.735 411.403H89.7891L89.9052 416.985H117.852Z" fill="#5C6CFF"/>
<path d="M148.418 400.187L148.301 394.606H89.2109L89.3271 400.187H148.418Z" fill="#5C6CFF"/>
<path d="M129.199 416.985L129.083 411.403H120.602L120.719 416.985H129.199Z" fill="#5C6CFF"/>
<path d="M218.965 433.171L218.848 427.589H171.438L171.554 433.171H218.965Z" fill="#5C6CFF"/>
<path d="M284.59 433.171L284.473 427.589H237.062L237.179 433.171H284.59Z" fill="#5C6CFF"/>
<path d="M200.461 416.985L200.345 411.403H172.398L172.515 416.985H200.461Z" fill="#5C6CFF"/>
<path d="M231.02 400.187L230.903 394.606H171.812L171.929 400.187H231.02Z" fill="#5C6CFF"/>
<path d="M211.801 416.985L211.685 411.403H203.203L203.32 416.985H211.801Z" fill="#5C6CFF"/>
<path d="M266.086 416.985L265.969 411.403H238.023L238.14 416.985H266.086Z" fill="#5C6CFF"/>
<path d="M296.652 400.187L296.535 394.606H237.445L237.561 400.187H296.652Z" fill="#FF6D18"/>
<path d="M277.448 416.985L277.331 411.403H268.852L268.968 416.985H277.448Z" fill="#5C6CFF"/>
<path d="M75.8383 353.466L38.8771 337.443L38.8672 328.548L75.7937 312.517L75.8052 322.993L50.0481 332.873L75.8265 343.063L75.8383 353.466Z" fill="#FF6D18"/>
<path d="M76.2794 354.153L38.4159 337.739L38.4062 328.252L76.2328 311.831L76.2449 323.303L51.2789 332.879L76.2659 342.757L76.2794 354.153ZM39.3171 337.148L75.3768 352.779L75.3653 343.37L48.7957 332.867L75.344 322.683L75.3335 313.204L39.3074 328.843L39.3171 337.148Z" fill="#1D1A2F"/>
<path d="M79.2578 360.52L92.5406 304.778L100.296 304.77L86.867 360.512L79.2578 360.52Z" fill="#FF6D18"/>
<path d="M78.6875 360.971L78.8205 360.415L92.1861 304.328L100.869 304.319L87.2227 360.962L78.6875 360.971ZM92.8972 305.228L79.8298 360.069L86.5133 360.061L99.7249 305.221L92.8972 305.228Z" fill="#1D1A2F"/>
<path d="M103.756 353.472L103.744 343.068L129.538 332.894L103.722 322.888L103.711 312.559L140.709 328.508L140.717 337.329L103.756 353.472Z" fill="#FF6D18"/>
<path d="M103.312 354.16L103.3 342.763L128.306 332.898L103.278 323.197L103.266 311.873L141.165 328.211L141.174 337.624L103.312 354.16ZM104.201 343.375L104.212 352.784L140.273 337.035L140.264 328.804L104.168 313.244L104.179 322.579L130.781 332.891L104.201 343.375Z" fill="#1D1A2F"/>
<path d="M724.575 516.509C724.575 516.509 750.795 528.12 756.788 529.618C762.782 531.117 782.259 528.494 772.52 516.509C762.782 504.522 754.54 510.89 736.936 501.9C719.331 492.91 724.575 516.509 724.575 516.509Z" fill="#060633"/>
<path d="M658.397 450.122C658.397 450.122 608.673 439.166 598.84 467.259C589.008 495.352 637.505 508.501 646.505 510.522C655.504 512.543 676.189 514.268 680.871 515.766C685.554 517.265 702.971 518.762 705.406 519.887C707.841 521.01 732.936 526.816 732.936 526.816L751.665 501.158L732.188 484.568L723.879 454.022L658.397 450.122Z" fill="#244F8E"/>
<path d="M696.045 332.976C696.045 332.976 736.499 330.728 756.164 359.383C775.828 388.038 790.999 413.883 764.029 438.605C737.06 463.326 699.416 450.966 699.416 450.966L649.41 454.056C649.41 454.056 597.721 450.404 610.082 402.084C622.441 353.764 652.595 334.1 696.045 332.976Z" fill="#FA7267"/>
<path d="M740.422 389.161H648.936C647.59 389.161 646.5 390.252 646.5 391.598V455.272C646.5 456.617 647.59 457.708 648.936 457.708H740.422C741.767 457.708 742.858 456.617 742.858 455.272V391.598C742.858 390.252 741.767 389.161 740.422 389.161Z" fill="#060633"/>
<path d="M670.196 522.508C670.196 522.508 643.977 534.12 637.983 535.619C631.991 537.116 612.513 534.494 622.251 522.508C631.991 510.522 640.231 516.89 657.836 507.9C675.439 498.91 670.196 522.508 670.196 522.508Z" fill="#060633"/>
<path d="M723.856 417.299C723.766 417.299 723.677 417.263 723.612 417.189C723.494 417.055 723.506 416.849 723.641 416.729C745.146 397.739 758.478 399.974 759.032 400.078C759.209 400.111 759.325 400.282 759.292 400.459C759.26 400.635 759.091 400.751 758.912 400.719C758.782 400.697 745.309 398.464 724.072 417.218C724.011 417.272 723.933 417.299 723.856 417.299Z" fill="#060633"/>
<path d="M664.575 417.299C664.491 417.299 664.408 417.268 664.344 417.204C650.808 403.667 630.16 399.076 629.952 399.031C629.777 398.993 629.665 398.819 629.703 398.644C629.742 398.469 629.922 398.355 630.09 398.396C630.299 398.44 651.129 403.068 664.806 416.743C664.933 416.871 664.933 417.078 664.806 417.204C664.742 417.268 664.659 417.299 664.575 417.299Z" fill="#060633"/>
<path d="M730.885 393.821C730.733 393.821 730.598 393.715 730.566 393.562L727.194 377.429C727.158 377.252 727.271 377.081 727.448 377.043C727.621 377.002 727.795 377.119 727.834 377.295L731.204 393.428C731.24 393.604 731.128 393.777 730.951 393.813C730.929 393.819 730.906 393.821 730.885 393.821Z" fill="#060633"/>
<path d="M655.029 397.072C655.021 397.072 655.012 397.072 655.002 397.071C654.823 397.057 654.69 396.9 654.704 396.72L656.11 379.303C656.123 379.123 656.294 378.991 656.461 379.004C656.64 379.019 656.774 379.176 656.759 379.355L655.353 396.773C655.34 396.944 655.197 397.072 655.029 397.072Z" fill="#060633"/>
<path d="M651.683 308.69C651.683 308.69 648.625 306.895 647.763 308.656C645.568 313.146 650.845 314.956 653.593 314.588L651.683 308.69Z" fill="#EA6868"/>
<path d="M715.141 476.387C715.119 476.387 715.098 476.386 715.076 476.381C712.666 475.898 706.708 473.939 701.451 472.21C698.519 471.245 695.988 470.412 694.588 470.007C690.776 468.904 674.724 467.411 674.562 467.396C674.228 467.332 644.241 461.39 640.902 460.647C640.728 460.608 640.617 460.434 640.656 460.258C640.695 460.084 640.861 459.976 641.046 460.011C644.374 460.751 674.354 466.693 674.657 466.753C675.285 466.808 690.897 468.261 694.769 469.381C696.181 469.789 698.718 470.623 701.655 471.591C706.634 473.228 712.832 475.268 715.203 475.743C715.38 475.778 715.494 475.949 715.459 476.125C715.429 476.28 715.293 476.387 715.141 476.387Z" fill="#060633"/>
<path d="M699.978 332.896C694.919 322.683 692.315 311.453 692.178 300.058C692.131 296.198 691.827 291.873 691.447 286.996C691.307 283.005 690.179 278.971 687.912 275.253C681.804 265.236 669.108 261.075 658.253 265.525C645.222 270.87 639.611 285.999 645.7 298.445C645.838 298.726 645.984 298.999 646.131 299.273L646.109 299.28C649.607 306.431 657.037 332.606 672.759 328.351L674.914 338.964C674.914 338.964 687.627 342.559 699.978 332.896Z" fill="#FB9391"/>
<path d="M654.265 304.989C653.839 304.118 654.199 303.068 655.069 302.643C655.939 302.217 656.989 302.577 657.415 303.447C657.84 304.317 657.479 305.367 656.61 305.792C655.741 306.218 654.69 305.858 654.265 304.989Z" fill="#060633"/>
<path d="M675.1 299.681C674.675 298.811 675.036 297.76 675.905 297.334C676.775 296.909 677.825 297.27 678.251 298.139C678.676 299.009 678.316 300.059 677.447 300.484C676.577 300.91 675.526 300.55 675.1 299.681Z" fill="#060633"/>
<path d="M668.012 318.987C666.807 318.987 665.515 318.694 664.166 317.965C663.976 317.862 663.905 317.626 664.008 317.436C664.11 317.245 664.348 317.177 664.537 317.278C670.787 320.655 675.624 313.872 675.826 313.58C675.951 313.402 676.195 313.361 676.37 313.484C676.547 313.607 676.591 313.85 676.467 314.026C676.424 314.089 672.938 318.987 668.012 318.987Z" fill="#060633"/>
<path d="M691.714 278.19L692.978 295.327L688.655 296.465L677.047 278.722L691.714 278.19Z" fill="#060633"/>
<path d="M687.813 296.297C687.82 295.426 688.169 294.592 688.752 293.944C689.952 292.61 692.266 290.662 694.967 291.588C698.927 292.946 697.027 302.615 690.023 301.699C690.023 301.699 687.772 300.926 687.813 296.297Z" fill="#FB9391"/>
<path d="M667.186 312.101C666.743 312.101 666.261 312.036 665.737 311.884C665.047 311.684 664.651 311.429 664.448 311.057C664.165 310.535 664.349 309.923 664.584 309.147C665.015 307.712 665.669 305.545 664.4 301.81C664.331 301.605 664.441 301.383 664.645 301.315C664.849 301.245 665.07 301.354 665.141 301.559C666.489 305.531 665.764 307.935 665.331 309.373C665.142 309.997 665.007 310.447 665.135 310.684C665.225 310.851 665.502 311.003 665.954 311.134C668.737 311.942 670.091 309.866 670.149 309.777C670.265 309.596 670.507 309.541 670.686 309.656C670.869 309.77 670.924 310.01 670.81 310.192C670.796 310.214 669.585 312.101 667.186 312.101Z" fill="#EA6868"/>
<path d="M671.735 296.559C671.331 296.559 670.937 296.349 670.72 295.974C670.396 295.414 670.588 294.698 671.149 294.374C675.492 291.864 679.591 293.532 679.763 293.606C680.36 293.855 680.642 294.542 680.391 295.138C680.142 295.733 679.458 296.014 678.862 295.767C678.724 295.711 675.626 294.492 672.319 296.402C672.135 296.508 671.934 296.558 671.735 296.559Z" fill="#060633"/>
<path d="M650.538 304.569C650.298 304.569 650.055 304.496 649.846 304.343C649.324 303.96 649.211 303.228 649.594 302.706C652.209 299.135 655.795 298.465 655.945 298.439C656.587 298.326 657.19 298.75 657.302 299.387C657.414 300.022 656.994 300.629 656.359 300.744C656.312 300.753 653.515 301.315 651.482 304.09C651.253 304.402 650.898 304.569 650.538 304.569Z" fill="#060633"/>
<path d="M689.958 273.467C691.445 271.421 690.358 268.056 687.957 267.266C687.63 267.158 687.278 267.088 686.997 266.887C686.606 266.607 686.42 266.128 686.255 265.676C685.899 264.704 685.543 263.731 685.187 262.759C685.075 262.451 684.949 262.124 684.683 261.931C684.446 261.761 684.141 261.727 683.852 261.697C682.172 261.529 680.323 261.403 678.953 262.39C677.132 261.28 675.156 260.128 673.028 260.272C672.35 260.318 671.683 260.496 671.003 260.507C668.378 260.549 665.903 258.122 663.419 258.973C662.771 259.194 662.219 259.622 661.622 259.956C659.883 260.93 657.823 261.098 655.915 261.676C654.008 262.255 652.045 263.512 651.7 265.476C651.626 265.893 651.625 266.344 651.394 266.7C651.175 267.04 650.789 267.229 650.418 267.388C648.386 268.261 646.138 268.803 644.485 270.272C642.832 271.741 642.123 274.619 643.766 276.1C642.449 276.661 641.239 277.57 640.546 278.823C639.854 280.076 639.752 281.697 640.49 282.924C640.636 283.168 640.819 283.41 640.831 283.694C640.853 284.215 640.324 284.561 639.904 284.871C637.918 286.333 637.397 289.436 638.797 291.467C639.098 291.904 639.479 292.305 639.631 292.814C639.764 293.263 639.704 293.743 639.753 294.209C639.889 295.487 640.954 296.608 642.224 296.808C643.783 297.055 645.237 296.051 646.496 295.1C646.528 295.697 647.272 295.951 647.87 295.981C651.584 296.179 655.235 293.407 656.042 289.777C658.178 289.967 660.825 289.897 661.816 287.996C662.031 287.584 662.137 287.127 662.241 286.674C662.593 285.137 662.945 283.598 663.297 282.06C663.959 281.94 664.52 282.59 664.714 283.233C664.91 283.876 664.904 284.585 665.222 285.177C665.992 286.616 668.044 286.549 669.653 286.28C670.558 286.13 671.483 285.972 672.283 285.523C673.083 285.075 673.746 284.27 673.765 283.352C674.624 284.757 676.591 284.902 678.228 284.726C682.32 284.289 685.881 282.772 689.395 280.719C690.688 279.964 691.569 279.636 691.796 278.012C692.032 276.332 691.334 274.483 689.958 273.467Z" fill="#060633"/>
<path d="M732.377 447.594C732.377 447.594 766.463 427.368 784.817 449.468C803.17 471.567 770.583 488.797 762.717 495.914C754.85 503.031 745.861 507.901 736.122 509.024C726.384 510.147 723.387 511.271 712.15 515.017C700.914 518.763 691.549 522.133 690.425 522.883C689.301 523.633 670.947 530 670.947 530C670.947 530 652.219 511.271 651.844 505.653C651.844 505.653 670.198 489.328 675.442 484.568C680.686 479.808 705.783 473.814 710.277 467.821C714.772 461.828 732.377 447.594 732.377 447.594Z" fill="#2F5BA8"/>
<path d="M699.493 421.187C699.493 417.813 696.758 415.077 693.384 415.077C690.008 415.077 687.273 417.813 687.273 421.187C687.273 424.562 690.008 427.297 693.384 427.297C696.758 427.298 699.493 424.562 699.493 421.187Z" fill="white"/>
<path d="M545.093 422.464V523.181C545.093 525.447 543.25 527.289 540.984 527.289H381.228C378.961 527.289 377.125 525.447 377.125 523.181V422.471C377.125 419.573 379.473 417.225 382.364 417.225H539.847C542.745 417.225 545.093 419.573 545.093 422.464Z" fill="#FDFDFD"/>
<path d="M540.99 527.53H381.234C378.839 527.53 376.891 525.579 376.891 523.181V422.471C376.891 419.445 379.349 416.984 382.37 416.984H539.853C542.878 416.984 545.339 419.443 545.339 422.464V523.18C545.339 525.579 543.388 527.53 540.99 527.53ZM382.37 417.466C379.614 417.466 377.372 419.711 377.372 422.471V523.181C377.372 525.314 379.104 527.049 381.234 527.049H540.989C543.122 527.049 544.857 525.314 544.857 523.181V422.464C544.857 419.708 542.613 417.466 539.853 417.466L382.37 417.466Z" fill="#1D1A2F"/>
<path d="M545.1 435.284H377.133V422.468C377.133 419.572 379.481 417.224 382.376 417.224H539.857C542.752 417.224 545.1 419.572 545.1 422.467V435.284Z" fill="#1D1A2F"/>
<path d="M408.797 429.028C410.329 429.028 411.571 427.786 411.571 426.254C411.571 424.722 410.329 423.481 408.797 423.481C407.265 423.481 406.023 424.722 406.023 426.254C406.023 427.786 407.265 429.028 408.797 429.028Z" fill="#5C6CFF"/>
<path d="M398.118 429.028C399.65 429.028 400.892 427.786 400.892 426.254C400.892 424.722 399.65 423.48 398.118 423.48C396.586 423.48 395.344 424.722 395.344 426.254C395.344 427.786 396.586 429.028 398.118 429.028Z" fill="#FF6D18"/>
<path d="M387.446 429.028C388.978 429.028 390.22 427.786 390.22 426.254C390.22 424.722 388.978 423.48 387.446 423.48C385.914 423.48 384.672 424.722 384.672 426.254C384.672 427.786 385.914 429.028 387.446 429.028Z" fill="white"/>
<path d="M531.875 424.227L533.248 422.854L535.209 424.815L537.17 422.854L538.543 424.227L536.582 426.188L538.543 428.149L537.17 429.522L535.209 427.561L533.248 429.522L531.875 428.149L533.837 426.188L531.875 424.227Z" fill="white"/>
<path d="M433.703 441.841L433.838 444.062H470.97L470.837 441.841H433.703Z" fill="#5C6CFF"/>
<path d="M451.914 448.527L452.058 450.748H512.449L512.316 448.527H451.914Z" fill="#5C6CFF"/>
<path d="M433.805 448.527L433.939 450.748H449.309L449.164 448.527H433.805Z" fill="#FDFDFD"/>
<path d="M449.556 450.988H433.702L433.539 448.286H449.379L449.556 450.988ZM434.156 450.507H449.043L448.929 448.767H434.051L434.156 450.507Z" fill="#1D1A2F"/>
<path d="M433.625 455.211L433.76 457.433H464.499L464.279 455.211H433.625Z" fill="#5C6CFF"/>
<path d="M466.414 455.211L466.636 457.433H496.749L496.615 455.211H466.414Z" fill="#FDFDFD"/>
<path d="M497.004 457.674H466.418L466.148 454.97H496.842L497.004 457.674ZM466.854 457.192H496.494L496.389 455.451H466.68L466.854 457.192Z" fill="#1D1A2F"/>
<path d="M406.74 455.211L406.727 457.433H421.833L421.848 455.211H406.74Z" fill="#5C6CFF"/>
<path d="M388.373 448.527L388.359 450.748H412.933L412.942 448.527H388.373Z" fill="#5C6CFF"/>
<path d="M415.767 448.527L415.758 450.748H422.006L422.02 448.527H415.767Z" fill="#5C6CFF"/>
<path d="M409.781 441.841L409.802 444.062H422.272L422.287 441.841H409.781Z" fill="#FF6D18"/>
<path d="M394.998 441.841L394.984 444.062H407.271L407.25 441.841H394.998Z" fill="#FF6D18"/>
<path d="M406.553 480.237L406.539 482.459H421.646L421.661 480.237H406.553Z" fill="#5C6CFF"/>
<path d="M388.193 473.552L388.18 475.774H412.752L412.762 473.552H388.193Z" fill="#5C6CFF"/>
<path d="M415.572 473.552L415.562 475.774H421.81L421.825 473.552H415.572Z" fill="#5C6CFF"/>
<path d="M406.303 494.314L406.289 496.536H421.395L421.41 494.314H406.303Z" fill="#5C6CFF"/>
<path d="M387.959 487.63L387.945 489.85H412.518L412.527 487.63H387.959Z" fill="#FF6D18"/>
<path d="M415.33 487.63L415.32 489.85H421.568L421.582 487.63H415.33Z" fill="#FF6D18"/>
<path d="M409.602 466.867L409.623 469.088H422.093L422.107 466.867H409.602Z" fill="#FF6D18"/>
<path d="M394.818 466.867L394.805 469.088H407.091L407.07 466.867H394.818Z" fill="#FF6D18"/>
<path d="M474.656 441.841L474.791 444.062H486.06L485.925 441.841H474.656Z" fill="#FDFDFD"/>
<path d="M486.306 444.302H474.555L474.391 441.6H486.142L486.306 444.302ZM475.008 443.821H485.795L485.689 442.081H474.903L475.008 443.821Z" fill="#1D1A2F"/>
<path d="M516.195 448.527L516.329 450.748H534.366L534.232 448.527H516.195Z" fill="#5C6CFF"/>
<path d="M500.078 455.211L500.212 457.433H518.497L518.363 455.211H500.078Z" fill="#5C6CFF"/>
<path d="M490.977 441.841L491.242 444.062H523.09L522.824 441.841H490.977Z" fill="#5C6CFF"/>
<path d="M433.523 466.867L433.658 469.088H470.791L470.657 466.867H433.523Z" fill="#5C6CFF"/>
<path d="M451.719 473.552L451.863 475.774H512.254L512.121 473.552H451.719Z" fill="#5C6CFF"/>
<path d="M433.602 473.552L433.735 475.774H449.106L448.96 473.552H433.602Z" fill="#5C6CFF"/>
<path d="M433.453 480.237L433.587 482.459H464.328L464.107 480.237H433.453Z" fill="#5C6CFF"/>
<path d="M466.234 480.237L466.455 482.459H496.568L496.435 480.237H466.234Z" fill="#5C6CFF"/>
<path d="M474.461 466.867L474.596 469.088H485.864L485.73 466.867H474.461Z" fill="#5C6CFF"/>
<path d="M516.023 473.552L516.157 475.774H534.194L534.06 473.552H516.023Z" fill="#5C6CFF"/>
<path d="M499.883 480.237L500.016 482.459H518.302L518.167 480.237H499.883Z" fill="#FDFDFD"/>
<path d="M518.547 482.7H499.78L499.617 479.996H518.384L518.547 482.7ZM500.233 482.219H518.036L517.931 480.477H500.129L500.233 482.219Z" fill="#1D1A2F"/>
<path d="M452.227 487.63L452.371 489.85H512.761L512.627 487.63H452.227Z" fill="#5C6CFF"/>
<path d="M434.117 487.63L434.251 489.85H449.622L449.476 487.63H434.117Z" fill="#5C6CFF"/>
<path d="M433.938 494.314L434.072 496.536H464.811L464.592 494.314H433.938Z" fill="#5C6CFF"/>
<path d="M466.727 494.314L466.947 496.536H497.062L496.927 494.314H466.727Z" fill="#FDFDFD"/>
<path d="M497.325 496.777H466.736L466.469 494.073H497.161L497.325 496.777ZM467.172 496.296H496.814L496.708 494.554H467L467.172 496.296Z" fill="#1D1A2F"/>
<path d="M516.539 487.63L516.671 489.851H534.708L534.573 487.63H516.539Z" fill="#FDFDFD"/>
<path d="M534.953 490.091H516.435L516.273 487.389H534.79L534.953 490.091ZM516.888 489.61H534.442L534.336 487.87H516.784L516.888 489.61Z" fill="#1D1A2F"/>
<path d="M500.383 494.314L500.516 496.536H518.801L518.667 494.314H500.383Z" fill="#5C6CFF"/>
<path d="M490.781 466.867L491.047 469.088H522.895L522.629 466.867H490.781Z" fill="#FDFDFD"/>
<path d="M523.164 469.328H490.831L490.508 466.626H522.84L523.164 469.328ZM491.258 468.847H522.621L522.413 467.107H491.05L491.258 468.847Z" fill="#1D1A2F"/>
<path d="M387.693 510.655L387.68 512.876H412.252L412.262 510.655H387.693Z" fill="#5C6CFF"/>
<path d="M415.072 510.655L415.062 512.876H421.31L421.325 510.655H415.072Z" fill="#5C6CFF"/>
<path d="M409.102 503.969L409.123 506.19H421.593L421.608 503.969H409.102Z" fill="#FF6D18"/>
<path d="M394.318 503.969L394.305 506.19H406.591L406.57 503.969H394.318Z" fill="#FF6D18"/>
<path d="M433.023 503.969L433.158 506.19H470.291L470.157 503.969H433.023Z" fill="#5C6CFF"/>
<path d="M451.227 510.655L451.37 512.876H511.762L511.628 510.655H451.227Z" fill="#5C6CFF"/>
<path d="M433.117 510.655L433.251 512.876H448.621L448.476 510.655H433.117Z" fill="#5C6CFF"/>
<path d="M473.969 503.969L474.104 506.19H485.372L485.238 503.969H473.969Z" fill="#5C6CFF"/>
<path d="M515.531 510.655L515.665 512.876H533.702L533.567 510.655H515.531Z" fill="#5C6CFF"/>
<path d="M490.297 503.969L490.563 506.19H522.41L522.144 503.969H490.297Z" fill="#FDFDFD"/>
<path d="M522.68 506.431H490.347L490.023 503.729H522.356L522.68 506.431ZM490.774 505.95H522.137L521.929 504.21H490.566L490.774 505.95Z" fill="#1D1A2F"/>
<defs>
<linearGradient id="paint0_linear_2819_1033" x1="154.72" y1="141.516" x2="272.896" y2="141.516" gradientUnits="userSpaceOnUse">
<stop stop-color="#F34B6D"/>
<stop offset="1" stop-color="#E24067"/>
</linearGradient>
<linearGradient id="paint1_linear_2819_1033" x1="154.703" y1="193.925" x2="272.979" y2="193.925" gradientUnits="userSpaceOnUse">
<stop stop-color="#FADF68"/>
<stop offset="1" stop-color="#EAC250"/>
</linearGradient>
<linearGradient id="paint2_linear_2819_1033" x1="154.734" y1="171.403" x2="272.904" y2="171.403" gradientUnits="userSpaceOnUse">
<stop stop-color="#3DCFA4"/>
<stop offset="1" stop-color="#30BB93"/>
</linearGradient>
<linearGradient id="paint3_linear_2819_1033" x1="128.75" y1="278.726" x2="149.381" y2="278.726" gradientUnits="userSpaceOnUse">
<stop stop-color="#FADF68"/>
<stop offset="1" stop-color="#EAC250"/>
</linearGradient>
<linearGradient id="paint4_linear_2819_1033" x1="187.258" y1="278.726" x2="207.89" y2="278.726" gradientUnits="userSpaceOnUse">
<stop stop-color="#3DCFA4"/>
<stop offset="1" stop-color="#30BB93"/>
</linearGradient>
<linearGradient id="paint5_linear_2819_1033" x1="245.75" y1="278.726" x2="266.382" y2="278.726" gradientUnits="userSpaceOnUse">
<stop stop-color="#F34B6D"/>
<stop offset="1" stop-color="#E24067"/>
</linearGradient>
<linearGradient id="paint6_linear_2819_1033" x1="395.584" y1="173.835" x2="395.584" y2="303.129" gradientUnits="userSpaceOnUse">
<stop stop-color="#909EFF"/>
<stop offset="1" stop-color="#6977E3"/>
</linearGradient>
<linearGradient id="paint7_linear_2819_1033" x1="537.137" y1="123.689" x2="534.363" y2="194.873" gradientUnits="userSpaceOnUse">
<stop stop-color="#D1DEFF"/>
<stop offset="1" stop-color="#B2C7FF"/>
</linearGradient>
<linearGradient id="paint8_linear_2819_1033" x1="492.573" y1="122.684" x2="489.993" y2="188.888" gradientUnits="userSpaceOnUse">
<stop stop-color="#D1DEFF"/>
<stop offset="1" stop-color="#B2C7FF"/>
</linearGradient>
<linearGradient id="paint9_linear_2819_1033" x1="515.706" y1="115.369" x2="512.845" y2="188.786" gradientUnits="userSpaceOnUse">
<stop stop-color="#D1DEFF"/>
<stop offset="1" stop-color="#B2C7FF"/>
</linearGradient>
<linearGradient id="paint10_linear_2819_1033" x1="566.645" y1="124.841" x2="564.066" y2="191.045" gradientUnits="userSpaceOnUse">
<stop stop-color="#D1DEFF"/>
<stop offset="1" stop-color="#B2C7FF"/>
</linearGradient>
<linearGradient id="paint11_linear_2819_1033" x1="563.594" y1="124.723" x2="561.014" y2="190.926" gradientUnits="userSpaceOnUse">
<stop stop-color="#D1DEFF"/>
<stop offset="1" stop-color="#B2C7FF"/>
</linearGradient>
<linearGradient id="paint12_linear_2819_1033" x1="512.367" y1="120.011" x2="509.542" y2="192.51" gradientUnits="userSpaceOnUse">
<stop stop-color="#D1DEFF"/>
<stop offset="1" stop-color="#B2C7FF"/>
</linearGradient>
<linearGradient id="paint13_linear_2819_1033" x1="576.495" y1="125.225" x2="573.916" y2="191.43" gradientUnits="userSpaceOnUse">
<stop stop-color="#D1DEFF"/>
<stop offset="1" stop-color="#B2C7FF"/>
</linearGradient>
<linearGradient id="paint14_linear_2819_1033" x1="528.061" y1="118.99" x2="525.212" y2="192.119" gradientUnits="userSpaceOnUse">
<stop stop-color="#D1DEFF"/>
<stop offset="1" stop-color="#B2C7FF"/>
</linearGradient>
<linearGradient id="paint15_linear_2819_1033" x1="573.396" y1="125.105" x2="570.817" y2="191.309" gradientUnits="userSpaceOnUse">
<stop stop-color="#D1DEFF"/>
<stop offset="1" stop-color="#B2C7FF"/>
</linearGradient>
<linearGradient id="paint16_linear_2819_1033" x1="605.323" y1="126.348" x2="602.743" y2="192.552" gradientUnits="userSpaceOnUse">
<stop stop-color="#D1DEFF"/>
<stop offset="1" stop-color="#B2C7FF"/>
</linearGradient>
<linearGradient id="paint17_linear_2819_1033" x1="490.356" y1="122.604" x2="487.777" y2="188.803" gradientUnits="userSpaceOnUse">
<stop stop-color="#D1DEFF"/>
<stop offset="1" stop-color="#B2C7FF"/>
</linearGradient>
<linearGradient id="paint18_linear_2819_1033" x1="529.257" y1="113.021" x2="526.394" y2="186.514" gradientUnits="userSpaceOnUse">
<stop stop-color="#D1DEFF"/>
<stop offset="1" stop-color="#B2C7FF"/>
</linearGradient>
<linearGradient id="paint19_linear_2819_1033" x1="525.158" y1="117.027" x2="522.288" y2="190.666" gradientUnits="userSpaceOnUse">
<stop stop-color="#D1DEFF"/>
<stop offset="1" stop-color="#B2C7FF"/>
</linearGradient>
<linearGradient id="paint20_linear_2819_1033" x1="574.578" y1="125.151" x2="571.998" y2="191.355" gradientUnits="userSpaceOnUse">
<stop stop-color="#D1DEFF"/>
<stop offset="1" stop-color="#B2C7FF"/>
</linearGradient>
<linearGradient id="paint21_linear_2819_1033" x1="515.706" y1="206.114" x2="512.846" y2="279.533" gradientUnits="userSpaceOnUse">
<stop stop-color="#D1DEFF"/>
<stop offset="1" stop-color="#B2C7FF"/>
</linearGradient>
<linearGradient id="paint22_linear_2819_1033" x1="566.645" y1="215.586" x2="564.066" y2="281.793" gradientUnits="userSpaceOnUse">
<stop stop-color="#D1DEFF"/>
<stop offset="1" stop-color="#B2C7FF"/>
</linearGradient>
<linearGradient id="paint23_linear_2819_1033" x1="528.062" y1="209.74" x2="525.212" y2="282.865" gradientUnits="userSpaceOnUse">
<stop stop-color="#D1DEFF"/>
<stop offset="1" stop-color="#B2C7FF"/>
</linearGradient>
<linearGradient id="paint24_linear_2819_1033" x1="573.397" y1="215.855" x2="570.817" y2="282.055" gradientUnits="userSpaceOnUse">
<stop stop-color="#D1DEFF"/>
<stop offset="1" stop-color="#B2C7FF"/>
</linearGradient>
<linearGradient id="paint25_linear_2819_1033" x1="605.323" y1="217.098" x2="602.744" y2="283.299" gradientUnits="userSpaceOnUse">
<stop stop-color="#D1DEFF"/>
<stop offset="1" stop-color="#B2C7FF"/>
</linearGradient>
<linearGradient id="paint26_linear_2819_1033" x1="525.158" y1="207.772" x2="522.289" y2="281.414" gradientUnits="userSpaceOnUse">
<stop stop-color="#D1DEFF"/>
<stop offset="1" stop-color="#B2C7FF"/>
</linearGradient>
<linearGradient id="paint27_linear_2819_1033" x1="574.578" y1="215.897" x2="571.998" y2="282.102" gradientUnits="userSpaceOnUse">
<stop stop-color="#D1DEFF"/>
<stop offset="1" stop-color="#B2C7FF"/>
</linearGradient>
<linearGradient id="paint28_linear_2819_1033" x1="570.563" y1="124.992" x2="567.984" y2="191.197" gradientUnits="userSpaceOnUse">
<stop stop-color="#D1DEFF"/>
<stop offset="1" stop-color="#B2C7FF"/>
</linearGradient>
<linearGradient id="paint29_linear_2819_1033" x1="589.857" y1="125.714" x2="587.277" y2="191.938" gradientUnits="userSpaceOnUse">
<stop stop-color="#D1DEFF"/>
<stop offset="1" stop-color="#B2C7FF"/>
</linearGradient>
<linearGradient id="paint30_linear_2819_1033" x1="609.213" y1="126.458" x2="606.633" y2="192.692" gradientUnits="userSpaceOnUse">
<stop stop-color="#D1DEFF"/>
<stop offset="1" stop-color="#B2C7FF"/>
</linearGradient>
<linearGradient id="paint31_linear_2819_1033" x1="441.543" y1="360.51" x2="441.543" y2="386.149" gradientUnits="userSpaceOnUse">
<stop stop-color="#D1DEFF"/>
<stop offset="1" stop-color="#B2C7FF"/>
</linearGradient>
<linearGradient id="paint32_linear_2819_1033" x1="221.668" y1="361.118" x2="221.668" y2="386.307" gradientUnits="userSpaceOnUse">
<stop stop-color="#FADF68"/>
<stop offset="1" stop-color="#EAC250"/>
</linearGradient>
<linearGradient id="paint33_linear_2819_1033" x1="357.972" y1="359.199" x2="359.86" y2="370.957" gradientUnits="userSpaceOnUse">
<stop stop-color="#F34B6D"/>
<stop offset="1" stop-color="#E24067"/>
</linearGradient>
</defs>
</svg>
