<svg width="426" height="314" viewBox="0 0 426 314" fill="none" xmlns="http://www.w3.org/2000/svg">
<g clip-path="url(#clip0_3821_8630)">
<path d="M383.318 292.459H355.117V292.714H383.318V292.459Z" fill="#EBEBEB"/>
<path d="M282.186 294.844H274.773V295.099H282.186V294.844Z" fill="#EBEBEB"/>
<path d="M354.265 284.627H337.906V284.882H354.265V284.627Z" fill="#EBEBEB"/>
<path d="M81.5369 285.988H44.7305V286.244H81.5369V285.988Z" fill="#EBEBEB"/>
<path d="M94.4887 285.988H89.1211V286.244H94.4887V285.988Z" fill="#EBEBEB"/>
<path d="M191.871 289.65H112.039V289.906H191.871V289.65Z" fill="#EBEBEB"/>
<path d="M201.924 240.779H37.4033C34.7621 240.779 32.5469 238.565 32.5469 235.926V4.85304C32.5469 2.21367 34.7621 0 37.4033 0H201.924C204.566 0 206.781 2.21367 206.781 4.85304V235.926C206.781 238.65 204.651 240.779 201.924 240.779ZM37.4033 0.255423C34.8473 0.255423 32.7173 2.29881 32.7173 4.93818V236.011C32.7173 238.565 34.7621 240.694 37.4033 240.694H201.924C204.48 240.694 206.61 238.65 206.61 236.011V4.85304C206.61 2.29881 204.566 0.170282 201.924 0.170282H37.4033V0.255423Z" fill="#EBEBEB"/>
<path d="M386.214 240.779H221.692C219.051 240.779 216.836 238.565 216.836 235.926V4.85304C216.836 2.21367 219.051 0 221.692 0H386.214C388.855 0 391.07 2.21367 391.07 4.85304V235.926C391.07 238.65 388.94 240.779 386.214 240.779ZM221.692 0.255423C219.136 0.255423 217.006 2.29881 217.006 4.93818V236.011C217.006 238.565 219.051 240.694 221.692 240.694H386.214C388.77 240.694 390.9 238.65 390.9 236.011V4.85304C390.9 2.29881 388.855 0.170282 386.214 0.170282H221.692V0.255423Z" fill="#EBEBEB"/>
<path d="M426 278.752H0V279.007H426V278.752Z" fill="#EBEBEB"/>
<path d="M355.119 33.8008H248.789V146.953H355.119V33.8008Z" fill="#EBEBEB"/>
<path d="M348.721 40.1855H255.172V140.567H348.721V40.1855Z" fill="#F5F5F5"/>
<path d="M291.891 140.567H320.007L346.333 40.1855H318.217L291.891 140.567Z" fill="#FAFAFA"/>
<path d="M305.185 40.1855L278.773 140.567H285.589L312.001 40.1855H305.185Z" fill="#FAFAFA"/>
<path d="M356.396 39.1647H247.425L245.125 33.8008H358.697L356.396 39.1647Z" fill="#F5F5F5"/>
<path d="M356.396 42.2291H247.425L245.125 36.8652H358.697L356.396 42.2291Z" fill="#F0F0F0"/>
<path d="M356.396 45.3795H247.425L245.125 40.0156H358.697L356.396 45.3795Z" fill="#E6E6E6"/>
<path d="M356.396 48.444H247.425L245.125 43.0801H358.697L356.396 48.444Z" fill="#E0E0E0"/>
<path d="M362.612 27.0742H241.117V34.2261H362.612V27.0742Z" fill="#E0E0E0"/>
<path d="M242.395 99.0175C241.714 99.0175 241.117 98.5066 241.117 97.7403V56.0213C241.117 55.3401 241.628 54.7441 242.395 54.7441C243.077 54.7441 243.673 55.255 243.673 56.0213V97.7403C243.588 98.5066 243.077 99.0175 242.395 99.0175Z" fill="#E0E0E0"/>
<path d="M242.821 32.7793H241.969V57.5553H242.821V32.7793Z" fill="#E0E0E0"/>
<path d="M77.1078 31.5859H75.5742V151.124H77.1078V31.5859Z" fill="#E0E0E0"/>
<path d="M172.62 31.5859H171.086V151.124H172.62V31.5859Z" fill="#E0E0E0"/>
<path d="M178.58 39.1647H69.609L67.3086 33.8008H180.88L178.58 39.1647Z" fill="#F5F5F5"/>
<path d="M178.58 46.4869H69.609L67.3086 41.123H180.88L178.58 46.4869Z" fill="#F5F5F5"/>
<path d="M178.58 53.8932H69.609L67.3086 48.5293H180.88L178.58 53.8932Z" fill="#F5F5F5"/>
<path d="M178.58 61.2154H69.609L67.3086 55.8516H180.88L178.58 61.2154Z" fill="#F5F5F5"/>
<path d="M178.58 68.6236H69.609L67.3086 63.2598H180.88L178.58 68.6236Z" fill="#F5F5F5"/>
<path d="M178.58 75.9459H69.609L67.3086 70.582H180.88L178.58 75.9459Z" fill="#F5F5F5"/>
<path d="M178.58 83.3522H69.609L67.3086 77.9883H180.88L178.58 83.3522Z" fill="#F5F5F5"/>
<path d="M178.58 90.6744H69.609L67.3086 85.3105H180.88L178.58 90.6744Z" fill="#F5F5F5"/>
<path d="M178.58 98.0826H69.609L67.3086 92.7188H180.88L178.58 98.0826Z" fill="#F5F5F5"/>
<path d="M178.58 105.405H69.609L67.3086 100.041H180.88L178.58 105.405Z" fill="#F5F5F5"/>
<path d="M178.58 112.811H69.609L67.3086 107.447H180.88L178.58 112.811Z" fill="#F5F5F5"/>
<path d="M178.58 120.133H69.609L67.3086 114.77H180.88L178.58 120.133Z" fill="#F5F5F5"/>
<path d="M178.58 127.54H69.609L67.3086 122.176H180.88L178.58 127.54Z" fill="#F5F5F5"/>
<path d="M178.58 134.862H69.609L67.3086 129.498H180.88L178.58 134.862Z" fill="#F5F5F5"/>
<path d="M178.58 142.27H69.609L67.3086 136.906H180.88L178.58 142.27Z" fill="#F5F5F5"/>
<path d="M178.58 149.592H69.609L67.3086 144.229H180.88L178.58 149.592Z" fill="#F5F5F5"/>
<path d="M180.965 149.592H67.3086V152.657H180.965V149.592Z" fill="#E0E0E0"/>
<path d="M184.8 27.0742H63.3047V34.2261H184.8V27.0742Z" fill="#E0E0E0"/>
<path d="M64.5827 99.0175C63.9011 99.0175 63.3047 98.5066 63.3047 97.7403V56.0213C63.3047 55.3401 63.8159 54.7441 64.5827 54.7441C65.2643 54.7441 65.8607 55.255 65.8607 56.0213V97.7403C65.7755 98.5066 65.2643 99.0175 64.5827 99.0175Z" fill="#E0E0E0"/>
<path d="M65.0082 32.7793H64.1562V57.5553H65.0082V32.7793Z" fill="#E0E0E0"/>
<path d="M76.0854 227.668C76.0002 227.753 76.5966 228.604 74.211 228.264C68.5026 227.412 58.449 225.114 55.6374 219.154C51.633 210.725 63.987 213.79 63.561 209.448C63.135 205.106 49.077 205.872 47.6286 199.571C46.095 193.271 55.6374 196.251 55.8078 193.186C55.893 190.121 44.9874 191.994 42.7722 185.183C40.557 178.371 48.9066 183.395 47.9694 180.5C47.0322 177.69 37.7454 164.834 42.7722 163.301C47.799 161.769 56.319 174.966 59.6418 176.839C62.9646 178.712 65.8614 167.984 69.7806 172.497C73.6998 177.009 67.4802 192.93 72.507 195.995C76.2558 198.294 75.1482 191.994 80.0898 193.186C86.6502 194.889 84.435 218.387 76.0854 227.668Z" fill="#EBEBEB"/>
<path d="M58.3642 193.187C60.6646 193.357 62.2834 193.868 63.3058 194.208C61.261 191.228 59.8126 189.696 59.8126 189.696C59.6422 189.526 59.6422 189.27 59.8126 189.1C59.983 188.93 60.2386 188.93 60.409 189.1C60.409 189.1 63.817 192.591 67.4806 199.402C69.2698 188.504 64.7542 178.968 64.669 178.883C64.5838 178.713 64.669 178.542 64.8394 178.457C65.0098 178.372 65.1802 178.457 65.2654 178.628C65.3506 178.713 70.207 188.844 67.9918 200.338C68.5882 201.445 69.1846 202.637 69.781 203.914C71.485 207.661 73.2742 212.428 74.6374 218.133C75.5746 216.345 77.7898 211.662 78.0454 205.106C78.0454 204.936 78.2158 204.766 78.3862 204.766C78.5566 204.766 78.727 204.936 78.727 205.106C78.4714 212.684 75.5746 217.878 74.893 218.984C76.7674 226.988 77.875 236.779 77.023 248.358C77.023 248.613 76.7674 248.784 76.597 248.784C76.597 248.784 76.597 248.784 76.5118 248.784C76.3414 248.784 76.171 248.528 76.171 248.358C77.1934 233.033 74.9782 220.772 71.7406 211.407C70.9738 210.47 68.5882 208.086 64.9246 207.49C64.7542 207.49 64.669 207.32 64.669 207.15C64.669 206.979 64.8394 206.894 65.0098 206.894C67.9066 207.32 69.9514 208.853 71.2294 209.959C68.929 203.489 66.2026 198.551 63.9874 195.23C63.3058 194.889 61.3462 194.123 58.3642 193.868C58.1938 193.868 58.0234 193.697 58.1086 193.527C58.0234 193.357 58.1938 193.187 58.3642 193.187Z" fill="#F5F5F5"/>
<path d="M83.4994 230.988C88.2706 231.073 96.4498 226.646 99.6022 222.304C102.84 217.962 93.7234 220.601 94.6606 217.195C95.5978 213.79 106.844 216.259 108.974 211.406C111.019 206.468 102.925 207.574 103.266 205.105C103.607 202.551 112.041 203.062 114.683 197.868C117.409 192.675 109.997 195.569 111.104 193.356C112.297 191.227 121.584 182.032 117.665 180.159C113.745 178.286 105.055 187.737 102.158 188.843C99.2614 189.865 98.5798 183.309 94.7458 186.459C90.9118 189.61 93.8086 203.317 89.293 205.105C85.9702 206.468 87.4186 200.167 83.5846 201.785C76.939 204.594 81.5398 230.903 83.4994 230.988Z" fill="#E0E0E0"/>
<g opacity="0.3">
<path d="M83.4994 230.988C88.2706 231.073 96.4498 226.646 99.6022 222.304C102.84 217.962 93.7234 220.601 94.6606 217.195C95.5978 213.79 106.844 216.259 108.974 211.406C111.019 206.468 102.925 207.574 103.266 205.105C103.607 202.551 112.041 203.062 114.683 197.868C117.409 192.675 109.997 195.569 111.104 193.356C112.297 191.227 121.584 182.032 117.665 180.159C113.745 178.286 105.055 187.737 102.158 188.843C99.2614 189.865 98.5798 183.309 94.7458 186.459C90.9118 189.61 93.8086 203.317 89.293 205.105C85.9702 206.468 87.4186 200.167 83.5846 201.785C76.939 204.594 81.5398 230.903 83.4994 230.988Z" fill="#E0E0E0"/>
</g>
<path d="M85.0314 225.198C84.9462 225.198 84.861 225.113 84.861 225.028C84.7758 224.858 82.1346 219.749 82.731 212.257C82.731 212.086 82.9014 211.916 83.0718 212.001C83.2422 212.001 83.4126 212.172 83.3274 212.342C82.8162 218.727 84.6906 223.325 85.287 224.517C87.417 218.727 89.973 213.534 92.529 209.106C91.677 198.89 96.9594 190.461 96.9594 190.375C97.0446 190.205 97.215 190.205 97.3854 190.29C97.5558 190.375 97.5558 190.546 97.4706 190.716C97.3854 190.801 92.6142 198.549 93.0402 208.085C99.1746 197.868 105.139 191.908 105.224 191.738C105.394 191.567 105.65 191.567 105.82 191.738C105.991 191.908 105.991 192.163 105.82 192.334C105.735 192.419 101.475 196.676 96.5334 204.083C99.4302 202.976 102.583 202.465 105.565 202.465C105.735 202.465 105.905 202.636 105.905 202.806C105.905 202.976 105.735 203.147 105.565 203.147C102.412 203.061 99.0042 203.743 95.937 205.02C94.233 207.659 92.4438 210.639 90.7398 213.959C92.3586 212.853 95.5962 211.32 99.6858 212.427C99.8562 212.512 99.9414 212.682 99.9414 212.853C99.8562 213.023 99.6858 213.108 99.5154 213.108C94.3182 211.746 90.6546 214.811 90.0582 215.407C85.4574 224.772 81.453 236.692 80.9418 250.4C80.9418 250.655 80.7714 250.826 80.5158 250.826C80.2602 250.826 80.0898 250.655 80.0898 250.4C80.4306 241.119 82.3902 232.691 85.0314 225.198Z" fill="#F5F5F5"/>
<path d="M70.0359 277.561C65.4351 268.962 62.4531 256.616 62.4531 251.167C62.4531 246.569 64.5831 242.483 67.9911 239.588H91.3359C94.7439 242.483 96.8739 246.569 96.8739 251.167C96.8739 256.616 93.8919 268.962 89.2911 277.561H70.0359Z" fill="#F0F0F0"/>
<path d="M208.91 313.916C300.149 313.916 374.113 309.608 374.113 304.295C374.113 298.981 300.149 294.674 208.91 294.674C117.671 294.674 43.707 298.981 43.707 304.295C43.707 309.608 117.671 313.916 208.91 313.916Z" fill="#F5F5F5"/>
<path d="M249.383 55.0859H228.935C227.571 55.0859 226.379 56.1076 226.123 57.3847L225.953 58.0659C225.271 61.3012 222.289 63.7703 219.051 63.7703H199.626C196.388 63.7703 193.832 61.3012 193.662 58.0659V57.3847C193.577 56.0225 192.554 55.0859 191.191 55.0859H170.743C163.927 55.0859 157.878 60.6201 157.367 67.4314L140.923 255.167C140.327 261.979 145.353 267.513 152.169 267.513H230.809C237.625 267.513 243.674 261.979 244.271 255.167L260.714 67.4314C261.225 60.6201 256.199 55.0859 249.383 55.0859Z" fill="#407BFF"/>
<path opacity="0.7" d="M249.383 55.0859H228.935C227.571 55.0859 226.379 56.1076 226.123 57.3847L225.953 58.0659C225.271 61.3012 222.289 63.7703 219.051 63.7703H199.626C196.388 63.7703 193.832 61.3012 193.662 58.0659V57.3847C193.577 56.0225 192.554 55.0859 191.191 55.0859H170.743C163.927 55.0859 157.878 60.6201 157.367 67.4314L140.923 255.167C140.327 261.979 145.353 267.513 152.169 267.513H230.809C237.625 267.513 243.674 261.979 244.271 255.167L260.714 67.4314C261.225 60.6201 256.199 55.0859 249.383 55.0859Z" fill="white"/>
<path d="M241.377 141.42H199.629C198.095 141.42 196.988 140.228 197.158 138.695L200.31 102.766C200.481 101.233 201.759 100.041 203.292 100.041H245.04C246.574 100.041 247.682 101.233 247.511 102.766L244.359 138.695C244.188 140.228 242.91 141.42 241.377 141.42Z" fill="white"/>
<path d="M227.487 253.72H157.623C153.874 253.72 151.062 250.655 151.403 246.909C151.744 243.163 155.067 240.098 158.815 240.098H228.679C232.428 240.098 235.24 243.163 234.899 246.909C234.558 250.74 231.235 253.72 227.487 253.72Z" fill="white"/>
<path d="M233.022 90.1636H168.951C166.821 90.1636 165.288 88.4608 165.458 86.3322L165.969 80.3724C166.14 78.2438 168.014 76.541 170.144 76.541H234.215C236.345 76.541 237.878 78.2438 237.708 80.3724L237.197 86.3322C237.026 88.4608 235.152 90.1636 233.022 90.1636Z" fill="white"/>
<path d="M246.055 80.2029C245.97 80.7989 245.459 81.2246 244.862 81.2246C244.266 81.2246 243.84 80.7137 243.925 80.2029C244.01 79.6069 244.521 79.1812 245.118 79.1812C245.714 79.0961 246.14 79.6069 246.055 80.2029Z" fill="white"/>
<path d="M245.805 83.3537C245.72 83.9497 245.209 84.3754 244.612 84.3754C244.016 84.3754 243.59 83.8646 243.675 83.3537C243.76 82.7577 244.271 82.332 244.868 82.332C245.464 82.332 245.89 82.7577 245.805 83.3537Z" fill="white"/>
<path d="M245.547 86.5041C245.462 87.1001 244.951 87.5258 244.354 87.5258C243.758 87.5258 243.332 87.015 243.417 86.5041C243.502 85.9081 244.014 85.4824 244.61 85.4824C245.121 85.4824 245.547 85.9933 245.547 86.5041Z" fill="white"/>
<path d="M236.18 200.676H158.222C156.689 200.676 155.581 199.484 155.752 197.952L159.33 156.914C159.5 155.381 160.778 154.189 162.312 154.189H240.27C241.804 154.189 242.911 155.381 242.741 156.914L239.162 197.952C239.077 199.484 237.714 200.676 236.18 200.676Z" fill="white"/>
<path d="M179.689 209.276H155.407C155.066 209.276 154.725 208.936 154.81 208.595C154.81 208.255 155.151 207.914 155.577 207.914H179.774C180.115 207.914 180.455 208.255 180.37 208.595C180.37 208.936 180.029 209.276 179.689 209.276Z" fill="white"/>
<path d="M210.017 209.276H183.946C183.605 209.276 183.264 208.936 183.349 208.595C183.349 208.255 183.69 207.914 184.116 207.914H210.187C210.528 207.914 210.869 208.255 210.784 208.595C210.698 208.936 210.358 209.276 210.017 209.276Z" fill="white"/>
<path d="M171.249 215.151H154.805C154.464 215.151 154.123 214.811 154.209 214.47C154.209 214.13 154.549 213.789 154.975 213.789H171.419C171.76 213.789 172.101 214.13 172.015 214.47C172.015 214.896 171.675 215.151 171.249 215.151Z" fill="white"/>
<path d="M202.431 215.151H175.508C175.167 215.151 174.826 214.811 174.912 214.47C174.912 214.13 175.252 213.789 175.678 213.789H202.602C202.942 213.789 203.283 214.13 203.198 214.47C203.198 214.896 202.857 215.151 202.431 215.151Z" fill="white"/>
<path d="M198.09 221.11H154.297C153.956 221.11 153.616 220.77 153.701 220.429C153.701 220.089 154.042 219.748 154.468 219.748H198.26C198.601 219.748 198.942 220.089 198.857 220.429C198.857 220.77 198.516 221.11 198.09 221.11Z" fill="white"/>
<path d="M205.335 221.11H202.438C202.097 221.11 201.756 220.77 201.841 220.429C201.841 220.089 202.182 219.748 202.608 219.748H205.505C205.846 219.748 206.187 220.089 206.101 220.429C206.016 220.77 205.675 221.11 205.335 221.11Z" fill="white"/>
<path d="M174.237 226.985H153.789C153.449 226.985 153.108 226.645 153.193 226.304C153.193 225.964 153.534 225.623 153.96 225.623H174.408C174.749 225.623 175.089 225.964 175.004 226.304C175.004 226.73 174.663 226.985 174.237 226.985Z" fill="white"/>
<path d="M203.967 226.985H178.492C178.152 226.985 177.811 226.645 177.896 226.304C177.896 225.964 178.237 225.623 178.663 225.623H204.138C204.478 225.623 204.819 225.964 204.734 226.304C204.734 226.73 204.393 226.985 203.967 226.985Z" fill="white"/>
<path d="M178.494 232.946H153.36C153.019 232.946 152.678 232.606 152.763 232.265C152.763 231.925 153.104 231.584 153.53 231.584H178.664C179.005 231.584 179.346 231.925 179.26 232.265C179.175 232.606 178.834 232.946 178.494 232.946Z" fill="white"/>
<path d="M203.028 232.946H182.75C182.409 232.946 182.069 232.606 182.154 232.265C182.154 231.925 182.495 231.584 182.921 231.584H203.198C203.539 231.584 203.88 231.925 203.795 232.265C203.709 232.606 203.369 232.946 203.028 232.946Z" fill="white"/>
<path d="M240.35 138.013C240.009 138.354 239.498 138.439 239.157 138.098L204.31 104.808C203.969 104.468 203.969 103.957 204.31 103.616C204.651 103.276 205.162 103.191 205.503 103.531L240.35 136.821C240.776 137.162 240.691 137.673 240.35 138.013Z" fill="#407BFF"/>
<path d="M201.242 138.013C200.987 137.672 201.072 137.161 201.413 136.821L219.22 122.262C219.56 121.921 220.157 122.006 220.412 122.347C220.668 122.687 220.583 123.198 220.242 123.539L202.435 138.098C202.009 138.439 201.498 138.353 201.242 138.013Z" fill="#407BFF"/>
<path d="M224.164 119.282C223.909 118.942 223.994 118.431 224.335 118.09L242.141 103.531C242.482 103.191 243.079 103.276 243.334 103.616C243.59 103.957 243.505 104.468 243.164 104.808L225.357 119.367C225.016 119.623 224.505 119.623 224.164 119.282Z" fill="#407BFF"/>
<g opacity="0.7">
<path d="M240.35 138.013C240.009 138.354 239.498 138.439 239.157 138.098L204.31 104.808C203.969 104.468 203.969 103.957 204.31 103.616C204.651 103.276 205.162 103.191 205.503 103.531L240.35 136.821C240.776 137.162 240.691 137.673 240.35 138.013Z" fill="white"/>
</g>
<g opacity="0.7">
<path d="M201.242 138.013C200.987 137.672 201.072 137.161 201.413 136.821L219.22 122.262C219.56 121.921 220.157 122.006 220.412 122.347C220.668 122.687 220.583 123.198 220.242 123.539L202.435 138.098C202.009 138.439 201.498 138.353 201.242 138.013Z" fill="white"/>
</g>
<g opacity="0.7">
<path d="M224.164 119.282C223.909 118.942 223.994 118.431 224.335 118.09L242.141 103.531C242.482 103.191 243.079 103.276 243.334 103.616C243.59 103.957 243.505 104.468 243.164 104.808L225.357 119.367C225.016 119.623 224.505 119.623 224.164 119.282Z" fill="white"/>
</g>
<path d="M141.177 51H130.101C127.886 51 126.012 52.788 126.012 55.0868V66.1551C126.012 68.3688 127.801 70.2419 130.101 70.2419H141.177C143.393 70.2419 145.267 68.4539 145.267 66.1551V55.0868C145.267 52.788 143.478 51 141.177 51ZM135.725 54.9165C137.429 54.9165 138.281 56.2787 138.281 57.8964C138.281 59.5992 137.343 60.8764 135.725 60.8764C134.021 60.8764 133.169 59.5141 133.169 57.8964C133.169 56.2787 134.021 54.9165 135.725 54.9165ZM142.37 66.2402H129.079C128.994 66.2402 128.909 66.1551 128.823 66.1551L129.675 63.8563C130.187 62.3238 131.635 61.3872 133.254 61.3872H138.281C139.899 61.3872 141.348 62.4089 141.859 63.8563L142.711 66.1551C142.541 66.1551 142.455 66.2402 142.37 66.2402Z" fill="#407BFF"/>
<path opacity="0.7" d="M141.177 51H130.101C127.886 51 126.012 52.788 126.012 55.0868V66.1551C126.012 68.3688 127.801 70.2419 130.101 70.2419H141.177C143.393 70.2419 145.267 68.4539 145.267 66.1551V55.0868C145.267 52.788 143.478 51 141.177 51ZM135.725 54.9165C137.429 54.9165 138.281 56.2787 138.281 57.8964C138.281 59.5992 137.343 60.8764 135.725 60.8764C134.021 60.8764 133.169 59.5141 133.169 57.8964C133.169 56.2787 134.021 54.9165 135.725 54.9165ZM142.37 66.2402H129.079C128.994 66.2402 128.909 66.1551 128.823 66.1551L129.675 63.8563C130.187 62.3238 131.635 61.3872 133.254 61.3872H138.281C139.899 61.3872 141.348 62.4089 141.859 63.8563L142.711 66.1551C142.541 66.1551 142.455 66.2402 142.37 66.2402Z" fill="white"/>
<path d="M101.986 96.3789H93.6364C90.6544 96.3789 88.1836 98.848 88.1836 101.828V110.172C88.1836 113.152 90.6544 115.621 93.6364 115.621H101.986C104.968 115.621 107.439 113.152 107.439 110.172V101.828C107.439 98.7629 104.968 96.3789 101.986 96.3789ZM97.726 110.597C97.726 110.597 94.318 106.851 94.318 104.978C94.318 103.105 95.8516 101.573 97.726 101.573C99.6004 101.573 101.134 103.105 101.134 104.978C101.219 106.851 97.726 110.597 97.726 110.597Z" fill="#407BFF"/>
<path d="M97.725 103.361C96.873 103.361 96.1914 104.042 96.1914 104.894C96.1914 105.745 96.873 106.426 97.725 106.426C98.577 106.426 99.2586 105.745 99.2586 104.894C99.3438 104.042 98.6622 103.361 97.725 103.361Z" fill="#407BFF"/>
<g opacity="0.7">
<path d="M101.986 96.3789H93.6364C90.6544 96.3789 88.1836 98.848 88.1836 101.828V110.172C88.1836 113.152 90.6544 115.621 93.6364 115.621H101.986C104.968 115.621 107.439 113.152 107.439 110.172V101.828C107.439 98.7629 104.968 96.3789 101.986 96.3789ZM97.726 110.597C97.726 110.597 94.318 106.851 94.318 104.978C94.318 103.105 95.8516 101.573 97.726 101.573C99.6004 101.573 101.134 103.105 101.134 104.978C101.219 106.851 97.726 110.597 97.726 110.597Z" fill="white"/>
<path d="M97.725 103.361C96.873 103.361 96.1914 104.042 96.1914 104.894C96.1914 105.745 96.873 106.426 97.725 106.426C98.577 106.426 99.2586 105.745 99.2586 104.894C99.3438 104.042 98.6622 103.361 97.725 103.361Z" fill="white"/>
</g>
<path d="M286.016 72.6249L291.639 68.9638L286.016 65.3027V72.6249Z" fill="#407BFF"/>
<path d="M293.258 59.0879H282.523C279.967 59.0879 277.922 61.1313 277.922 63.6855V74.4133C277.922 76.9675 279.967 79.0109 282.523 79.0109H293.258C295.814 79.0109 297.859 76.9675 297.859 74.4133V63.6004C297.773 61.1313 295.729 59.0879 293.258 59.0879ZM287.89 76.1161C283.971 76.1161 280.733 72.9659 280.733 68.9642C280.733 65.0478 283.886 61.8124 287.89 61.8124C291.809 61.8124 295.047 64.9626 295.047 68.9642C295.047 72.8807 291.809 76.1161 287.89 76.1161Z" fill="#407BFF"/>
<g opacity="0.7">
<path d="M286.016 72.6249L291.639 68.9638L286.016 65.3027V72.6249Z" fill="white"/>
<path d="M293.258 59.0879H282.523C279.967 59.0879 277.922 61.1313 277.922 63.6855V74.4133C277.922 76.9675 279.967 79.0109 282.523 79.0109H293.258C295.814 79.0109 297.859 76.9675 297.859 74.4133V63.6004C297.773 61.1313 295.729 59.0879 293.258 59.0879ZM287.89 76.1161C283.971 76.1161 280.733 72.9659 280.733 68.9642C280.733 65.0478 283.886 61.8124 287.89 61.8124C291.809 61.8124 295.047 64.9626 295.047 68.9642C295.047 72.8807 291.809 76.1161 287.89 76.1161Z" fill="white"/>
</g>
<path d="M303.736 100.126C303.736 99.8704 303.736 99.7001 303.736 99.4447L305.014 98.7635C304.928 98.1675 304.758 97.5716 304.502 96.9756H303.054C302.884 96.5499 302.628 96.2093 302.372 95.8687L303.139 94.5916C302.713 94.0808 302.287 93.6551 301.861 93.3145L300.583 94.0808C300.242 93.8254 299.816 93.5699 299.476 93.3996V91.9523C298.879 91.6968 298.283 91.6117 297.686 91.4414L297.005 92.7185C296.749 92.7185 296.579 92.7185 296.323 92.7185C296.068 92.7185 295.897 92.7185 295.642 92.7185L294.96 91.4414C294.364 91.5265 293.767 91.6968 293.171 91.9523V93.3996C292.745 93.5699 292.404 93.8254 292.063 94.0808L290.785 93.3145C290.274 93.7402 289.848 94.1659 289.507 94.5916L290.274 95.8687C290.018 96.2093 289.763 96.635 289.592 96.9756H288.144C287.888 97.5716 287.803 98.1675 287.633 98.7635L288.911 99.4447C288.911 99.7001 288.911 99.8704 288.911 100.126C288.911 100.381 288.911 100.551 288.911 100.807L287.633 101.488C287.718 102.084 287.888 102.68 288.144 103.276H289.592C289.763 103.702 290.018 104.042 290.274 104.383L289.507 105.66C289.933 106.171 290.359 106.597 290.785 106.937L292.063 106.171C292.404 106.426 292.83 106.682 293.171 106.852V108.299C293.767 108.555 294.364 108.64 294.96 108.81L295.642 107.533C295.897 107.533 296.068 107.533 296.323 107.533C296.579 107.533 296.749 107.533 297.005 107.533L297.686 108.81C298.283 108.725 298.879 108.555 299.476 108.299V106.852C299.902 106.682 300.242 106.426 300.583 106.171L301.861 106.937C302.372 106.511 302.798 106.086 303.139 105.66L302.372 104.383C302.628 104.042 302.884 103.617 303.054 103.276H304.502C304.758 102.68 304.843 102.084 305.014 101.488L303.736 100.807C303.736 100.551 303.736 100.296 303.736 100.126ZM296.323 105.149C293.512 105.149 291.296 102.935 291.296 100.126C291.296 97.3161 293.512 95.1025 296.323 95.1025C299.135 95.1025 301.35 97.3161 301.35 100.126C301.35 102.85 299.135 105.149 296.323 105.149Z" fill="#407BFF"/>
<path opacity="0.7" d="M303.736 100.126C303.736 99.8704 303.736 99.7001 303.736 99.4447L305.014 98.7635C304.928 98.1675 304.758 97.5716 304.502 96.9756H303.054C302.884 96.5499 302.628 96.2093 302.372 95.8687L303.139 94.5916C302.713 94.0808 302.287 93.6551 301.861 93.3145L300.583 94.0808C300.242 93.8254 299.816 93.5699 299.476 93.3996V91.9523C298.879 91.6968 298.283 91.6117 297.686 91.4414L297.005 92.7185C296.749 92.7185 296.579 92.7185 296.323 92.7185C296.068 92.7185 295.897 92.7185 295.642 92.7185L294.96 91.4414C294.364 91.5265 293.767 91.6968 293.171 91.9523V93.3996C292.745 93.5699 292.404 93.8254 292.063 94.0808L290.785 93.3145C290.274 93.7402 289.848 94.1659 289.507 94.5916L290.274 95.8687C290.018 96.2093 289.763 96.635 289.592 96.9756H288.144C287.888 97.5716 287.803 98.1675 287.633 98.7635L288.911 99.4447C288.911 99.7001 288.911 99.8704 288.911 100.126C288.911 100.381 288.911 100.551 288.911 100.807L287.633 101.488C287.718 102.084 287.888 102.68 288.144 103.276H289.592C289.763 103.702 290.018 104.042 290.274 104.383L289.507 105.66C289.933 106.171 290.359 106.597 290.785 106.937L292.063 106.171C292.404 106.426 292.83 106.682 293.171 106.852V108.299C293.767 108.555 294.364 108.64 294.96 108.81L295.642 107.533C295.897 107.533 296.068 107.533 296.323 107.533C296.579 107.533 296.749 107.533 297.005 107.533L297.686 108.81C298.283 108.725 298.879 108.555 299.476 108.299V106.852C299.902 106.682 300.242 106.426 300.583 106.171L301.861 106.937C302.372 106.511 302.798 106.086 303.139 105.66L302.372 104.383C302.628 104.042 302.884 103.617 303.054 103.276H304.502C304.758 102.68 304.843 102.084 305.014 101.488L303.736 100.807C303.736 100.551 303.736 100.296 303.736 100.126ZM296.323 105.149C293.512 105.149 291.296 102.935 291.296 100.126C291.296 97.3161 293.512 95.1025 296.323 95.1025C299.135 95.1025 301.35 97.3161 301.35 100.126C301.35 102.85 299.135 105.149 296.323 105.149Z" fill="white"/>
<path d="M284.313 125.413C284.313 125.072 284.313 124.731 284.227 124.391L286.187 123.284C286.017 122.347 285.761 121.496 285.505 120.645H283.29C283.035 120.049 282.694 119.453 282.268 118.942L283.375 117.069C282.779 116.388 282.097 115.706 281.416 115.11L279.541 116.217C279.03 115.877 278.434 115.536 277.837 115.196V112.982C276.985 112.641 276.133 112.386 275.196 112.301L274.089 114.259C273.748 114.259 273.407 114.174 273.066 114.174C272.725 114.174 272.384 114.174 272.044 114.259L270.936 112.301C269.999 112.471 269.147 112.726 268.295 112.982V115.196C267.699 115.451 267.102 115.792 266.591 116.217L264.717 115.11C264.035 115.706 263.353 116.388 262.757 117.069L263.865 118.942C263.524 119.453 263.183 120.049 262.842 120.645H260.627C260.286 121.496 260.031 122.347 259.945 123.284L261.905 124.391C261.905 124.731 261.82 125.072 261.82 125.413C261.82 125.753 261.82 126.094 261.905 126.434L259.945 127.541C260.116 128.478 260.371 129.329 260.627 130.18H262.842C263.098 130.776 263.439 131.372 263.865 131.883L262.757 133.756C263.353 134.437 264.035 135.119 264.717 135.715L266.591 134.608C267.102 134.948 267.699 135.289 268.295 135.629V137.843C269.147 138.184 269.999 138.439 270.936 138.524L272.044 136.566C272.384 136.566 272.725 136.651 273.066 136.651C273.407 136.651 273.748 136.651 274.089 136.566L275.196 138.524C276.133 138.354 276.985 138.099 277.837 137.843V135.629C278.434 135.374 279.03 135.033 279.541 134.608L281.416 135.715C282.097 135.119 282.779 134.437 283.375 133.756L282.268 131.883C282.608 131.372 282.949 130.776 283.29 130.18H285.505C285.846 129.329 286.102 128.478 286.187 127.541L284.227 126.434C284.313 126.094 284.313 125.753 284.313 125.413ZM273.237 129.755C270.851 129.755 268.891 127.796 268.891 125.413C268.891 123.029 270.851 121.07 273.237 121.07C275.622 121.07 277.582 123.029 277.582 125.413C277.582 127.796 275.622 129.755 273.237 129.755Z" fill="#407BFF"/>
<path opacity="0.7" d="M284.313 125.413C284.313 125.072 284.313 124.731 284.227 124.391L286.187 123.284C286.017 122.347 285.761 121.496 285.505 120.645H283.29C283.035 120.049 282.694 119.453 282.268 118.942L283.375 117.069C282.779 116.388 282.097 115.706 281.416 115.11L279.541 116.217C279.03 115.877 278.434 115.536 277.837 115.196V112.982C276.985 112.641 276.133 112.386 275.196 112.301L274.089 114.259C273.748 114.259 273.407 114.174 273.066 114.174C272.725 114.174 272.384 114.174 272.044 114.259L270.936 112.301C269.999 112.471 269.147 112.726 268.295 112.982V115.196C267.699 115.451 267.102 115.792 266.591 116.217L264.717 115.11C264.035 115.706 263.353 116.388 262.757 117.069L263.865 118.942C263.524 119.453 263.183 120.049 262.842 120.645H260.627C260.286 121.496 260.031 122.347 259.945 123.284L261.905 124.391C261.905 124.731 261.82 125.072 261.82 125.413C261.82 125.753 261.82 126.094 261.905 126.434L259.945 127.541C260.116 128.478 260.371 129.329 260.627 130.18H262.842C263.098 130.776 263.439 131.372 263.865 131.883L262.757 133.756C263.353 134.437 264.035 135.119 264.717 135.715L266.591 134.608C267.102 134.948 267.699 135.289 268.295 135.629V137.843C269.147 138.184 269.999 138.439 270.936 138.524L272.044 136.566C272.384 136.566 272.725 136.651 273.066 136.651C273.407 136.651 273.748 136.651 274.089 136.566L275.196 138.524C276.133 138.354 276.985 138.099 277.837 137.843V135.629C278.434 135.374 279.03 135.033 279.541 134.608L281.416 135.715C282.097 135.119 282.779 134.437 283.375 133.756L282.268 131.883C282.608 131.372 282.949 130.776 283.29 130.18H285.505C285.846 129.329 286.102 128.478 286.187 127.541L284.227 126.434C284.313 126.094 284.313 125.753 284.313 125.413ZM273.237 129.755C270.851 129.755 268.891 127.796 268.891 125.413C268.891 123.029 270.851 121.07 273.237 121.07C275.622 121.07 277.582 123.029 277.582 125.413C277.582 127.796 275.622 129.755 273.237 129.755Z" fill="white"/>
<path d="M253.046 76.0302V80.4575L248.786 82.6711C248.019 83.0969 248.019 84.1185 248.786 84.4591L253.046 86.6728V91.1001C253.046 92.1218 253.813 92.8881 254.835 92.8881H270.086C271.108 92.8881 271.875 92.1218 271.875 91.1001V76.0302C271.875 75.0085 271.108 74.2422 270.086 74.2422H254.835C253.813 74.2422 253.046 75.0085 253.046 76.0302Z" fill="#407BFF"/>
<g opacity="0.9">
<path d="M258.241 80.7133C258.582 80.7133 266.591 80.7133 266.932 80.7133C267.528 80.7133 267.954 80.2025 267.954 79.6916C267.954 79.0956 267.443 78.6699 266.932 78.6699C266.506 78.6699 258.667 78.6699 258.241 78.6699C257.645 78.6699 257.219 79.1808 257.219 79.6916C257.219 80.2025 257.645 80.7133 258.241 80.7133Z" fill="white"/>
<path d="M266.932 82.5859C266.506 82.5859 258.667 82.5859 258.241 82.5859C257.645 82.5859 257.219 83.0968 257.219 83.6076C257.219 84.2036 257.73 84.6293 258.241 84.6293C258.667 84.6293 266.506 84.6293 266.932 84.6293C267.528 84.6293 267.954 84.1185 267.954 83.6076C267.954 83.0968 267.528 82.5859 266.932 82.5859Z" fill="white"/>
<path d="M266.932 86.5879C266.506 86.5879 258.752 86.5879 258.241 86.5879C257.645 86.5879 257.219 87.0987 257.219 87.6096C257.219 88.2056 257.73 88.6313 258.241 88.6313C258.582 88.6313 266.591 88.6313 266.932 88.6313C267.528 88.6313 267.954 88.1204 267.954 87.6096C267.954 87.0987 267.528 86.5879 266.932 86.5879Z" fill="white"/>
</g>
<path d="M166.907 69.0497H170.57L172.445 72.6257C172.956 73.6474 174.49 73.6474 175.001 72.6257L176.875 69.0497H180.539C181.987 69.0497 183.18 67.8578 183.18 66.4104V52.7878C183.18 51.3404 181.987 50.1484 180.539 50.1484H166.907C165.458 50.1484 164.266 51.3404 164.266 52.7878V66.4104C164.266 67.8578 165.458 69.0497 166.907 69.0497Z" fill="#407BFF"/>
<path opacity="0.9" d="M173.722 54.2344L169.547 56.7035V63.8553H172.614V59.0874H174.744V63.8553H177.896V56.7035L173.722 54.2344Z" fill="white"/>
<path d="M207.714 263.767H204.477L202.347 259.766C201.921 258.914 200.643 258.914 200.217 259.766L198.087 263.767H194.849C193.23 263.767 191.867 265.129 191.867 266.747V279.603C191.867 281.221 193.23 282.583 194.849 282.583H207.714C209.333 282.583 210.696 281.221 210.696 279.603V266.747C210.696 265.129 209.333 263.767 207.714 263.767Z" fill="#407BFF"/>
<path opacity="0.9" d="M203.113 268.706C201.324 266.918 198.342 266.918 196.553 268.706C194.764 270.494 194.764 273.474 196.553 275.262C198.172 276.88 200.642 277.05 202.517 275.773C202.517 275.943 202.687 276.199 202.772 276.369L205.669 279.264C206.095 279.689 206.777 279.689 207.118 279.264C207.544 278.838 207.544 278.157 207.118 277.816L204.221 274.921C204.05 274.751 203.88 274.666 203.624 274.666C204.902 272.793 204.732 270.324 203.113 268.706ZM202.091 274.326C200.813 275.603 198.768 275.603 197.49 274.326C196.212 273.048 196.212 271.005 197.49 269.728C198.768 268.451 200.813 268.451 202.091 269.728C203.369 271.005 203.369 273.048 202.091 274.326Z" fill="white"/>
<path d="M345.318 178.199C345.318 178.199 338.332 195.398 331.601 197.271C324.785 199.144 314.561 197.611 314.561 197.611L311.409 198.463L308.341 198.037H308.256L304.763 197.952C304.167 197.952 303.826 197.356 304.167 196.93L305.445 195.227C305.53 195.057 305.7 194.972 305.871 194.972L309.193 193.865C309.364 193.865 309.449 193.78 309.619 193.865L314.731 194.631C314.731 194.631 328.96 192.333 330.323 190.97C331.771 189.693 336.031 175.9 336.031 175.9L345.318 178.199Z" fill="#EEC1BB"/>
<path opacity="0.1" d="M314.9 194.462C314.73 194.462 314.56 194.548 314.56 194.548L309.448 193.781C309.277 193.781 309.192 193.781 309.022 193.781L305.699 194.888C305.528 194.973 305.358 195.058 305.273 195.143L303.995 196.846C303.654 197.272 303.995 197.868 304.591 197.868L308.084 197.953H308.17L310.3 198.294C311.918 197.613 313.452 196.25 314.9 194.462Z" fill="black"/>
<path d="M349.489 161.172C344.462 159.554 337.305 163.3 334.664 179.137L345.144 182.202C345.144 182.202 356.731 163.471 349.489 161.172Z" fill="#407BFF"/>
<path d="M320.188 140.397C320.188 140.908 320.443 141.334 320.784 141.334C321.125 141.334 321.38 140.908 321.38 140.397C321.38 139.887 321.125 139.461 320.784 139.461C320.443 139.461 320.188 139.887 320.188 140.397Z" fill="#263238"/>
<path d="M322.229 140.908L319.758 144.995C319.758 144.995 320.61 145.932 322.484 145.25L322.229 140.908Z" fill="#D4827D"/>
<path d="M322.652 137.162C322.567 137.247 322.481 137.247 322.396 137.247C321.715 137.162 321.033 137.332 320.522 137.843C320.437 137.928 320.266 137.928 320.181 137.843C320.096 137.758 320.096 137.588 320.181 137.418C320.777 136.822 321.63 136.481 322.567 136.651C322.737 136.651 322.822 136.822 322.822 136.992C322.737 137.077 322.737 137.077 322.652 137.162Z" fill="#263238"/>
<path d="M340.209 136.652C340.635 143.548 340.89 146.528 337.823 150.445C332.967 154.702 324.617 155.298 322.146 148.657C319.931 142.697 319.676 132.395 326.066 128.819C330.666 126.265 336.375 127.882 338.931 132.48C339.698 133.757 340.124 135.204 340.209 136.652Z" fill="#EEC1BB"/>
<path d="M330.578 151.806L332.282 162.108L340.887 160.15L337.905 149.678L330.578 151.806Z" fill="#EEC1BB"/>
<path d="M324.361 137.248C324.787 132.735 323.253 137.929 321.123 131.969C319.078 126.009 328.876 121.241 330.41 122.348C331.944 123.455 331.092 125.158 336.289 126.094C341.486 127.031 341.23 132.054 341.23 132.054C341.23 132.054 344.212 133.416 343.19 139.887C342.168 146.273 338.078 151.126 338.078 151.126C338.078 151.126 336.118 149.082 332.966 150.955C332.966 150.955 331.432 150.104 329.899 147.89C328.536 145.762 328.024 143.804 326.15 143.633C322.231 143.293 324.276 138.695 324.361 137.248Z" fill="#263238"/>
<path d="M340.805 132.905C340.805 132.905 345.065 130.266 343.19 127.541C341.316 124.817 342.168 130.521 340.805 132.905Z" fill="#263238"/>
<path d="M325.638 139.802C324.701 140.824 324.19 142.271 324.275 143.633C324.36 145.506 326.234 145.847 327.683 144.825C328.961 143.889 330.494 141.845 329.642 140.142C328.79 138.525 326.746 138.525 325.638 139.802Z" fill="#FFC3BD"/>
<path opacity="0.1" d="M330.75 152.828L331.432 156.915C331.346 153.169 333.391 151.381 333.391 151.381C331.346 151.636 330.75 152.828 330.75 152.828Z" fill="black"/>
<path d="M270.596 179.307H268.125V193.695H270.596V179.307Z" fill="#407BFF"/>
<path opacity="0.7" d="M270.596 179.307H268.125V193.695H270.596V179.307Z" fill="white"/>
<path d="M253.724 150.615H247.675C245.374 150.615 243.5 152.488 243.5 154.787V182.969C243.5 185.268 245.374 187.141 247.675 187.141H253.724V150.615Z" fill="#407BFF"/>
<path d="M291.044 187.141H249.808C247.507 187.141 245.633 185.268 245.633 182.969V154.787C245.633 152.488 247.507 150.615 249.808 150.615H291.044C293.345 150.615 295.219 152.488 295.219 154.787V182.969C295.134 185.268 293.26 187.141 291.044 187.141Z" fill="#407BFF"/>
<path opacity="0.5" d="M291.044 187.141H249.808C247.507 187.141 245.633 185.268 245.633 182.969V154.787C245.633 152.488 247.507 150.615 249.808 150.615H291.044C293.345 150.615 295.219 152.488 295.219 154.787V182.969C295.134 185.268 293.26 187.141 291.044 187.141Z" fill="white"/>
<path d="M249.807 152.318C248.444 152.318 247.336 153.425 247.336 154.787V182.969C247.336 184.331 248.444 185.438 249.807 185.438H291.044C292.407 185.438 293.514 184.331 293.514 182.969V154.787C293.514 153.425 292.407 152.318 291.044 152.318H249.807Z" fill="#263238"/>
<path d="M260.453 199.741C260.453 194.803 264.458 190.887 269.314 190.887C274.256 190.887 278.175 194.888 278.175 199.741H260.453Z" fill="#407BFF"/>
<path d="M281.417 196.676H263.695V199.571H299.224V198.379L281.417 196.676Z" fill="#407BFF"/>
<path opacity="0.8" d="M281.417 196.676H263.695V199.571H299.224V198.379L281.417 196.676Z" fill="white"/>
<path d="M281.417 199.571H263.695V196.676L281.417 198.379V199.571Z" fill="#407BFF"/>
<path opacity="0.6" d="M281.417 199.571H263.695V196.676L281.417 198.379V199.571Z" fill="white"/>
<path d="M320.697 298.929H283.976C280.908 298.929 278.438 296.46 278.438 293.395V209.02C278.438 205.955 280.908 203.486 283.976 203.486H320.697C321.549 203.486 322.23 204.167 322.23 205.019C322.23 205.87 321.549 206.551 320.697 206.551H283.976C282.527 206.551 281.419 207.743 281.419 209.106V293.48C281.419 294.928 282.612 296.035 283.976 296.035H320.697C321.549 296.035 322.23 296.716 322.23 297.567C322.23 298.248 321.549 298.929 320.697 298.929Z" fill="#263238"/>
<g opacity="0.5">
<path d="M320.697 298.929H283.976C280.908 298.929 278.438 296.46 278.438 293.395V209.02C278.438 205.955 280.908 203.486 283.976 203.486H320.697C321.549 203.486 322.23 204.167 322.23 205.019C322.23 205.87 321.549 206.551 320.697 206.551H283.976C282.527 206.551 281.419 207.743 281.419 209.106V293.48C281.419 294.928 282.612 296.035 283.976 296.035H320.697C321.549 296.035 322.23 296.716 322.23 297.567C322.23 298.248 321.549 298.929 320.697 298.929Z" fill="white"/>
</g>
<path d="M283.799 199.57H231.656V203.913H283.799V199.57Z" fill="#407BFF"/>
<path opacity="0.2" d="M283.799 199.57H231.656V203.913H283.799V199.57Z" fill="white"/>
<path d="M325.888 199.57H281.414V203.913H325.888V199.57Z" fill="#407BFF"/>
<path opacity="0.5" d="M325.888 199.57H281.414V203.913H325.888V199.57Z" fill="white"/>
<path d="M310.302 268.023L312.773 292.885H306.894L301.016 268.619L310.302 268.023Z" fill="#EEC1BB"/>
<path d="M306.297 291.267L313.795 291.437C314.05 291.437 314.306 291.607 314.391 291.948L315.669 298.078C315.754 298.589 315.413 299.185 314.902 299.27C314.817 299.27 314.732 299.27 314.732 299.27C312.005 299.185 309.62 299.014 306.212 298.929C302.207 298.844 303.23 299.355 298.544 299.355C295.732 299.355 295.221 296.12 296.499 295.949C301.952 295.353 302.548 293.736 304.763 291.777C305.189 291.437 305.786 291.181 306.297 291.267Z" fill="#263238"/>
<path opacity="0.1" d="M312.177 286.414L310.302 268.023L301.016 268.619L305.276 286.414H312.177Z" fill="black"/>
<path d="M350.683 210.639L326.486 211.49C326.486 211.49 293.94 222.899 293.002 231.669C292.065 240.693 302.971 282.072 302.971 282.072H312.684C312.684 282.072 310.042 251.677 308.935 242.396C307.912 233.116 342.844 236.181 348.894 228.263C354.602 220.941 350.683 210.639 350.683 210.639Z" fill="#263238"/>
<path opacity="0.2" d="M350.683 210.639L326.486 211.49C326.486 211.49 293.94 222.899 293.002 231.669C292.065 240.693 302.971 282.072 302.971 282.072H312.684C312.684 282.072 310.042 251.677 308.935 242.396C307.912 233.116 342.844 236.181 348.894 228.263C354.602 220.941 350.683 210.639 350.683 210.639Z" fill="black"/>
<path d="M314.473 280.625L314.644 284.116H302.63L301.438 280.625H314.473Z" fill="#407BFF"/>
<path d="M287.809 269.217L288.491 292.886H282.697L279.289 269.217H287.809Z" fill="#EEC1BB"/>
<path d="M281.844 291.268L289.341 291.439C289.597 291.439 289.853 291.609 289.938 291.95L291.216 298.08C291.301 298.591 290.96 299.187 290.449 299.272C290.364 299.272 290.279 299.272 290.279 299.272C287.552 299.187 285.167 299.016 281.759 298.931C277.754 298.846 278.777 299.357 274.091 299.357C271.279 299.357 270.768 296.121 272.046 295.951C277.499 295.355 278.095 293.738 280.31 291.779C280.736 291.439 281.247 291.183 281.844 291.268Z" fill="#263238"/>
<path opacity="0.1" d="M288.32 286.329L287.894 269.131H279.289L281.76 286.329C283.634 286.414 286.19 286.414 288.32 286.329Z" fill="black"/>
<path d="M340.21 212.682C340.21 212.682 342.254 231.073 323.51 231.924C304.766 232.775 290.197 234.904 289.771 241.545C289.345 248.186 289.771 282.072 289.771 282.072H279.632C279.632 282.072 275.713 260.616 274.094 247.334C272.561 234.393 269.834 225.113 283.126 220.685C297.184 216.003 322.232 211.746 322.232 211.746L340.295 210.639L340.21 212.682Z" fill="#263238"/>
<path d="M291.301 280.625L290.62 284.116H279.458L278.266 280.625H291.301Z" fill="#407BFF"/>
<path d="M344.208 159.98C344.208 159.98 344.208 155.808 335.858 156.319C326.997 156.83 328.616 160.831 328.616 160.831L344.208 159.98Z" fill="#407BFF"/>
<path opacity="0.3" d="M344.208 159.98C344.208 159.98 344.208 155.808 335.858 156.319C326.997 156.83 328.616 160.831 328.616 160.831L344.208 159.98Z" fill="black"/>
<path d="M352.05 178.455C351.454 186.629 351.709 211.235 351.709 211.235C351.709 211.235 333.817 212.427 319.759 211.916L318.141 164.578C318.141 162.875 319.163 161.342 320.782 160.746C324.786 159.214 334.073 157.426 348.642 159.384C353.669 160.065 352.647 168.835 352.05 178.455Z" fill="#407BFF"/>
<path d="M320.951 178.199C320.951 178.199 313.965 195.398 307.234 197.271C300.418 199.144 290.194 197.611 290.194 197.611L287.041 198.463L283.974 198.037H283.889L280.396 197.952C279.799 197.952 279.459 197.356 279.799 196.93L281.077 195.227C281.163 195.057 281.333 194.972 281.503 194.972L284.826 193.865C284.997 193.865 285.082 193.78 285.252 193.865L290.364 194.631C290.364 194.631 304.593 192.333 305.956 190.97C307.404 189.693 311.664 175.9 311.664 175.9L320.951 178.199Z" fill="#EEC1BB"/>
<path opacity="0.1" d="M320.776 170.197C320.776 170.197 319.669 171.474 318.391 173.347L318.902 187.055C324.099 184.756 326.229 171.304 326.229 171.304L322.821 168.92L320.776 170.197Z" fill="black"/>
<path d="M325.122 161.172C320.095 159.554 312.938 163.3 310.297 179.137L320.776 182.202C320.776 182.202 332.364 163.471 325.122 161.172Z" fill="#407BFF"/>
<path d="M331.861 240.779H323.938V263.853H331.861V240.779Z" fill="#263238"/>
<path opacity="0.6" d="M331.861 240.779H323.938V263.853H331.861V240.779Z" fill="white"/>
<path d="M333.051 284.797V255.424H322.742V284.797L299.227 288.033V291.268L327.854 288.884L356.566 291.268V288.033L333.051 284.797Z" fill="#263238"/>
<path d="M298.887 299.271C300.581 299.271 301.955 297.899 301.955 296.206C301.955 294.513 300.581 293.141 298.887 293.141C297.194 293.141 295.82 294.513 295.82 296.206C295.82 297.899 297.194 299.271 298.887 299.271Z" fill="#407BFF"/>
<path d="M356.567 299.271C358.261 299.271 359.634 297.899 359.634 296.206C359.634 294.513 358.261 293.141 356.567 293.141C354.873 293.141 353.5 294.513 353.5 296.206C353.5 297.899 354.873 299.271 356.567 299.271Z" fill="#407BFF"/>
<path d="M327.856 299.271C329.55 299.271 330.923 297.899 330.923 296.206C330.923 294.513 329.55 293.141 327.856 293.141C326.162 293.141 324.789 294.513 324.789 296.206C324.789 297.899 326.162 299.271 327.856 299.271Z" fill="#407BFF"/>
<path opacity="0.3" d="M331.861 240.779H323.938V246.484H331.861V240.779Z" fill="black"/>
<path d="M359.037 188.502H333.392C329.217 188.502 325.724 191.652 325.298 195.824L323.168 218.982C322.656 224.261 318.396 228.348 313.114 228.689L288.321 229.966C285.339 230.136 282.953 232.605 282.953 235.585V236.096C282.953 238.65 285.083 240.779 287.639 240.779H321.123H327.939H363.126L367.216 197.271C367.557 192.589 363.808 188.502 359.037 188.502Z" fill="#407BFF"/>
<path opacity="0.3" d="M359.037 188.502H333.392C329.217 188.502 325.724 191.652 325.298 195.824L323.168 218.982C322.656 224.261 318.396 228.348 313.114 228.689L288.321 229.966C285.339 230.136 282.953 232.605 282.953 235.585V236.096C282.953 238.65 285.083 240.779 287.639 240.779H321.123H327.939H363.126L367.216 197.271C367.557 192.589 363.808 188.502 359.037 188.502Z" fill="white"/>
<path d="M301.953 234.819H301.782C300.845 234.819 300.078 234.053 300.078 233.116V214.641H303.571V233.116C303.657 234.053 302.89 234.819 301.953 234.819Z" fill="#263238"/>
<path opacity="0.2" d="M301.953 234.819H301.782C300.845 234.819 300.078 234.053 300.078 233.116V214.641H303.571V233.116C303.657 234.053 302.89 234.819 301.953 234.819Z" fill="white"/>
<path d="M317.12 209.277H309.281V215.833H317.205C318.994 215.833 320.442 214.386 320.442 212.598C320.442 210.81 318.909 209.277 317.12 209.277Z" fill="#407BFF"/>
<path opacity="0.5" d="M317.12 209.277H309.281V215.833H317.205C318.994 215.833 320.442 214.386 320.442 212.598C320.442 210.81 318.909 209.277 317.12 209.277Z" fill="white"/>
<path d="M313.969 215.833H286.449C284.745 215.833 283.297 214.386 283.297 212.683V212.428C283.297 210.725 284.745 209.277 286.449 209.277H313.969C315.673 209.277 317.121 210.725 317.121 212.428V212.683C317.121 214.386 315.758 215.833 313.969 215.833Z" fill="#407BFF"/>
<path opacity="0.3" d="M313.969 215.833H286.449C284.745 215.833 283.297 214.386 283.297 212.683V212.428C283.297 210.725 284.745 209.277 286.449 209.277H313.969C315.673 209.277 317.121 210.725 317.121 212.428V212.683C317.121 214.386 315.758 215.833 313.969 215.833Z" fill="white"/>
<path d="M364.83 240.779H327.086L331.261 195.824C331.687 191.652 335.18 188.502 339.355 188.502H365C369.771 188.502 373.52 192.589 373.094 197.357L369.43 236.607C369.175 238.991 367.215 240.779 364.83 240.779Z" fill="#407BFF"/>
<path opacity="0.5" d="M364.83 240.779H327.086L331.261 195.824C331.687 191.652 335.18 188.502 339.355 188.502H365C369.771 188.502 373.52 192.589 373.094 197.357L369.43 236.607C369.175 238.991 367.215 240.779 364.83 240.779Z" fill="white"/>
<path d="M276.642 298.929H239.921C236.854 298.929 234.383 296.46 234.383 293.395V209.02C234.383 205.955 236.854 203.486 239.921 203.486H276.642C277.494 203.486 278.176 204.167 278.176 205.019C278.176 205.87 277.494 206.551 276.642 206.551H239.921C238.472 206.551 237.365 207.743 237.365 209.106V293.48C237.365 294.928 238.558 296.035 239.921 296.035H276.642C277.494 296.035 278.176 296.716 278.176 297.567C278.09 298.248 277.409 298.929 276.642 298.929Z" fill="#263238"/>
<g opacity="0.5">
<path d="M276.642 298.929H239.921C236.854 298.929 234.383 296.46 234.383 293.395V209.02C234.383 205.955 236.854 203.486 239.921 203.486H276.642C277.494 203.486 278.176 204.167 278.176 205.019C278.176 205.87 277.494 206.551 276.642 206.551H239.921C238.472 206.551 237.365 207.743 237.365 209.106V293.48C237.365 294.928 238.558 296.035 239.921 296.035H276.642C277.494 296.035 278.176 296.716 278.176 297.567C278.09 298.248 277.409 298.929 276.642 298.929Z" fill="white"/>
</g>
<path d="M252.365 159.044L249.809 157.341C249.553 157.171 249.553 156.745 249.809 156.575L252.365 154.872C252.535 154.702 252.791 154.787 252.961 154.957C253.132 155.128 253.046 155.383 252.876 155.553L250.746 156.916L252.876 158.278C253.046 158.448 253.132 158.703 252.961 158.874C252.791 159.129 252.535 159.214 252.365 159.044Z" fill="white"/>
<path d="M257.984 158.958C257.813 158.787 257.898 158.532 258.069 158.362L260.199 156.999L258.069 155.637C257.898 155.467 257.813 155.212 257.984 155.041C258.154 154.871 258.41 154.786 258.58 154.956L261.136 156.659C261.392 156.829 261.392 157.255 261.136 157.425L258.58 159.128C258.41 159.213 258.154 159.128 257.984 158.958Z" fill="white"/>
<path d="M254.491 160.065C254.235 159.98 254.15 159.724 254.235 159.554L256.024 154.02C256.109 153.764 256.365 153.679 256.535 153.764C256.791 153.849 256.876 154.105 256.791 154.275L255.002 159.809C255.002 159.98 254.746 160.15 254.491 160.065Z" fill="white"/>
<path d="M268.98 164.322H249.981C249.725 164.322 249.555 164.152 249.555 163.896C249.555 163.641 249.725 163.471 249.981 163.471H268.98C269.236 163.471 269.406 163.641 269.406 163.896C269.406 164.152 269.236 164.322 268.98 164.322Z" fill="white"/>
<path d="M290.793 164.322H271.793C271.538 164.322 271.367 164.152 271.367 163.896C271.367 163.641 271.538 163.471 271.793 163.471H290.793C291.048 163.471 291.219 163.641 291.219 163.896C291.219 164.152 291.048 164.322 290.793 164.322Z" fill="white"/>
<path d="M260.887 168.238H250.067C249.811 168.238 249.641 168.068 249.641 167.812C249.641 167.557 249.811 167.387 250.067 167.387H260.887C261.143 167.387 261.313 167.557 261.313 167.812C261.313 168.068 261.057 168.238 260.887 168.238Z" fill="white"/>
<path d="M281.421 168.238H263.699C263.444 168.238 263.273 168.068 263.273 167.812C263.273 167.557 263.444 167.387 263.699 167.387H281.421C281.677 167.387 281.847 167.557 281.847 167.812C281.847 168.068 281.677 168.238 281.421 168.238Z" fill="white"/>
<path d="M278.949 172.154H250.067C249.811 172.154 249.641 171.984 249.641 171.728C249.641 171.473 249.811 171.303 250.067 171.303H278.949C279.205 171.303 279.375 171.473 279.375 171.728C279.375 171.984 279.12 172.154 278.949 172.154Z" fill="white"/>
<path d="M287.811 172.154H281.762C281.506 172.154 281.336 171.984 281.336 171.728C281.336 171.473 281.506 171.303 281.762 171.303H287.811C288.067 171.303 288.237 171.473 288.237 171.728C288.237 171.984 287.982 172.154 287.811 172.154Z" fill="white"/>
<path d="M263.528 176.072H250.067C249.811 176.072 249.641 175.902 249.641 175.646C249.641 175.391 249.811 175.221 250.067 175.221H263.528C263.784 175.221 263.954 175.391 263.954 175.646C263.954 175.902 263.784 176.072 263.528 176.072Z" fill="white"/>
<path d="M283.124 176.072H266.34C266.084 176.072 265.914 175.902 265.914 175.646C265.914 175.391 266.084 175.221 266.34 175.221H283.124C283.38 175.221 283.55 175.391 283.55 175.646C283.55 175.902 283.38 176.072 283.124 176.072Z" fill="white"/>
<path d="M268.98 179.988H249.981C249.725 179.988 249.555 179.818 249.555 179.562C249.555 179.307 249.725 179.137 249.981 179.137H268.98C269.236 179.137 269.406 179.307 269.406 179.562C269.406 179.733 269.236 179.988 268.98 179.988Z" fill="white"/>
<path d="M285.17 179.988H271.793C271.538 179.988 271.367 179.818 271.367 179.562C271.367 179.307 271.538 179.137 271.793 179.137H285.17C285.425 179.137 285.596 179.307 285.596 179.562C285.596 179.733 285.425 179.988 285.17 179.988Z" fill="white"/>
<path d="M120.559 103.787C120.9 107.789 120.048 115.026 116.98 117.41C121.922 119.198 127.119 122.263 130.527 126.264C133.85 121.411 130.101 118.687 130.101 118.687C125.841 117.154 126.267 113.919 127.375 110.939L120.559 103.787Z" fill="#B97964"/>
<path d="M136.657 100.297C136.572 100.808 136.828 101.233 137.168 101.233C137.509 101.233 137.765 100.893 137.85 100.382C137.935 99.871 137.68 99.4453 137.339 99.4453C136.998 99.4453 136.742 99.7859 136.657 100.297Z" fill="#263238"/>
<path d="M137.172 99.4449L138.45 99.1895C138.45 99.1895 137.768 100.126 137.172 99.4449Z" fill="#263238"/>
<path d="M136.833 100.807C137.174 101.999 137.685 103.105 138.367 104.212C137.77 104.553 137.174 104.638 136.492 104.383L136.833 100.807Z" fill="#A24E3F"/>
<path d="M138.112 97.6563C138.197 97.6563 138.282 97.5712 138.282 97.5712C138.368 97.486 138.368 97.2306 138.282 97.1455C137.601 96.4643 136.578 96.2089 135.641 96.4643C135.471 96.5495 135.471 96.7198 135.556 96.8901C135.641 96.9752 135.726 97.0603 135.812 97.0603C136.578 96.89 137.345 97.1455 137.856 97.6563C137.942 97.6563 138.027 97.6563 138.112 97.6563Z" fill="#263238"/>
<path d="M120.13 97.1468C119.96 103.362 119.704 106.001 122.516 109.492C126.69 114.686 134.273 113.579 136.318 107.534C138.107 102.085 138.192 92.8046 132.399 89.7395C126.605 86.6744 120.3 90.8463 120.13 97.1468Z" fill="#B97964"/>
<path d="M120.388 108.896C114.253 107.874 116.043 103.958 116.043 103.958C109.993 102.766 114.679 99.7857 114.679 99.7857C109.653 97.6572 114.679 95.6989 114.679 95.6989C109.823 91.6973 116.809 90.335 116.809 90.335C115.105 84.0346 121.069 86.674 121.069 86.674C124.307 81.3101 127.119 86.4186 127.119 86.4186C132.827 78.7559 134.19 85.2266 134.19 85.2266C139.984 83.694 137.769 89.8242 137.769 89.8242C142.54 91.1013 138.791 93.4853 138.791 93.4853C140.665 95.7841 133.935 96.2098 133.935 96.2098C133.935 96.2098 137.087 101.318 133.935 102.68L125.841 108.896C125.755 108.896 122.092 107.278 120.388 108.896Z" fill="#263238"/>
<path d="M126.438 103.871C126.438 103.871 130.698 93.6546 127.375 84.9702L130.186 84.0336C130.186 83.9485 133.85 96.6345 126.438 103.871Z" fill="#407BFF"/>
<path d="M130.696 102.68C131.378 104.127 131.633 104.808 132.656 105.234C133.508 105.745 134.615 105.404 135.127 104.553C135.382 104.127 135.382 103.701 135.297 103.19C135.041 101.743 133.934 99.5293 132.315 99.5293C130.867 99.5293 129.929 101.232 130.696 102.68Z" fill="#B97964"/>
<path d="M126.268 123.966C126.268 123.966 132.061 128.223 134.362 129.926L151.061 122.093C150.976 120.22 152.169 118.432 153.873 117.751L155.065 117.24L157.621 116.133C158.559 115.708 159.666 115.793 160.518 116.474C161.541 117.24 161.967 118.432 161.626 119.624C160.944 122.093 158.985 123.966 156.514 124.562L154.043 125.158C154.043 125.158 139.729 136.056 134.617 136.312C129.505 136.567 122.008 131.544 122.008 131.544L126.268 123.966Z" fill="#B97964"/>
<path d="M112.379 116.814C116.81 116.814 121.666 119.539 129.419 124.562C129.419 124.562 127.971 130.096 123.455 134.013C123.455 134.013 119.195 132.906 113.572 127.542C106.756 121.072 109.738 116.814 112.379 116.814Z" fill="#263238"/>
<path d="M196.041 129.586H154.293C152.759 129.586 151.652 128.394 151.822 126.861L154.974 90.9315C155.145 89.399 156.423 88.207 157.956 88.207H199.704C201.238 88.207 202.346 89.399 202.175 90.9315L199.023 126.861C198.938 128.308 197.574 129.586 196.041 129.586Z" fill="#407BFF"/>
<path opacity="0.4" d="M196.041 129.586H154.293C152.759 129.586 151.652 128.394 151.822 126.861L154.974 90.9315C155.145 89.399 156.423 88.207 157.956 88.207H199.704C201.238 88.207 202.346 89.399 202.175 90.9315L199.023 126.861C198.938 128.308 197.574 129.586 196.041 129.586Z" fill="white"/>
<path opacity="0.7" d="M196.212 127.883C196.808 127.883 197.319 127.457 197.319 126.861L200.472 90.9319C200.557 90.3359 200.131 89.9102 199.534 89.9102H157.786C157.19 89.9102 156.679 90.3359 156.679 90.9319L153.526 126.861C153.441 127.457 153.867 127.883 154.464 127.883H196.212Z" fill="white"/>
<path d="M167.244 106.768L153.612 126.52V126.861C153.527 127.457 153.953 127.883 154.55 127.883H178.235L167.244 106.768Z" fill="#407BFF"/>
<path opacity="0.3" d="M167.244 106.768L153.612 126.52V126.861C153.527 127.457 153.953 127.883 154.55 127.883H178.235L167.244 106.768Z" fill="white"/>
<path d="M197.489 125.414L186.072 103.703L169.117 127.798H196.211C196.807 127.798 197.318 127.372 197.318 126.776L197.489 125.414Z" fill="#407BFF"/>
<path d="M181.642 99.9563C181.471 102.085 179.597 103.788 177.467 103.788C175.337 103.788 173.803 102.085 173.974 99.9563C174.144 97.8278 176.019 96.125 178.149 96.125C180.279 96.125 181.812 97.8278 181.642 99.9563Z" fill="#407BFF"/>
<path opacity="0.4" d="M181.642 99.9563C181.471 102.085 179.597 103.788 177.467 103.788C175.337 103.788 173.803 102.085 173.974 99.9563C174.144 97.8278 176.019 96.125 178.149 96.125C180.279 96.125 181.812 97.8278 181.642 99.9563Z" fill="white"/>
<path d="M77.4475 274.494L73.1875 287.095L79.7479 289.734L84.7747 278.155L77.4475 274.494Z" fill="#B97964"/>
<path d="M82.0461 289.393C81.9609 289.393 81.9609 289.308 81.9609 289.223C81.9609 289.138 82.0461 289.053 82.1313 289.053C82.3017 289.053 85.3689 288.372 86.4765 289.053C86.7321 289.223 86.8173 289.393 86.9025 289.649C86.9877 289.904 86.9025 290.245 86.6469 290.415C86.2209 290.756 85.1985 290.585 84.2613 290.33C83.4945 290.074 82.7277 289.819 82.0461 289.393ZM82.6425 289.393C84.0057 289.989 85.8801 290.585 86.3913 290.16C86.4765 290.074 86.5617 289.989 86.4765 289.734C86.4765 289.564 86.3061 289.478 86.2209 289.393C86.1357 289.308 86.0505 289.308 85.8801 289.223C84.8577 289.053 83.7501 289.138 82.6425 289.393Z" fill="#407BFF"/>
<path d="M81.9623 289.393C81.8771 289.308 81.8771 289.308 81.9623 289.223C81.9623 289.138 82.8143 287.18 84.0071 286.669C84.3479 286.498 84.7739 286.498 85.1147 286.669C85.6259 286.839 85.6259 287.18 85.6259 287.35C85.5407 288.201 83.2403 289.308 82.2179 289.393H82.1327C82.0475 289.393 81.9623 289.393 81.9623 289.393ZM84.8591 286.924C84.6035 286.839 84.4331 286.839 84.1775 286.924C83.4107 287.435 82.8143 288.116 82.4735 288.882C83.5811 288.627 85.1147 287.69 85.2851 287.18C85.2851 287.094 85.2851 287.009 85.0295 286.839L84.8591 286.924Z" fill="#407BFF"/>
<path d="M81.6207 288.116L73.4415 285.562C73.1007 285.477 72.7599 285.562 72.6747 285.903L69.1815 292.118C68.8407 292.629 69.0111 293.395 69.6075 293.65C69.6927 293.65 69.7779 293.736 69.8631 293.736C72.8451 294.587 75.4863 295.268 79.1499 296.375C83.4951 297.737 82.2171 297.907 87.2439 299.525C90.3111 300.547 91.9299 297.226 90.6519 296.63C84.9435 294.076 84.8583 292.033 83.2395 289.223C82.8135 288.712 82.2171 288.286 81.6207 288.116Z" fill="#263238"/>
<path opacity="0.2" d="M75.4023 280.539L82.2183 283.945L84.7743 278.155L77.4471 274.494L75.4023 280.539Z" fill="#263238"/>
<path d="M106.242 158.277C106.242 158.277 97.04 165.259 99.0848 187.14C99.2552 189.184 99.9368 191.312 99.9368 193.611C99.9368 195.143 99.5108 196.25 98.9996 199.656C98.2328 204.679 96.9548 223.495 95.5064 225.964C94.1432 228.348 93.4616 228.008 89.5424 234.734C85.2824 241.971 79.7444 254.742 75.4844 276.283C75.4844 276.283 79.2332 279.178 85.0268 280.284C85.0268 280.284 108.457 243.418 113.398 229.711C117.829 217.45 123.196 178.2 123.196 178.2L123.622 161.172L106.242 158.277Z" fill="#407BFF"/>
<path opacity="0.1" d="M116.297 187.141H109.651C109.651 187.141 107.436 208 114.678 225.369C115.445 222.559 116.212 219.239 116.893 215.578L119.79 197.187C119.364 194.122 119.023 191.738 119.023 191.568C118.853 191.142 116.297 187.141 116.297 187.141Z" fill="black"/>
<path d="M115.191 279.604L115.277 292.886L122.774 292.46L123.967 279.604H115.191Z" fill="#B97964"/>
<path d="M123.627 292.204C123.542 292.204 123.457 292.119 123.457 292.034C123.457 291.949 123.457 291.863 123.542 291.863C123.627 291.778 126.354 290.161 127.632 290.416C127.887 290.501 128.058 290.586 128.228 290.842C128.399 291.097 128.399 291.438 128.313 291.608C127.973 292.034 127.035 292.289 126.013 292.289C125.246 292.374 124.479 292.289 123.627 292.204ZM124.224 291.949C125.672 292.119 127.632 292.034 127.973 291.438C128.058 291.353 128.058 291.267 127.887 291.012C127.802 290.842 127.632 290.757 127.547 290.757C127.461 290.757 127.291 290.757 127.206 290.757C126.183 290.927 125.161 291.353 124.224 291.949Z" fill="#407BFF"/>
<path d="M123.542 292.205C123.457 292.205 123.457 292.12 123.457 292.035C123.457 291.949 123.627 289.821 124.565 288.969C124.82 288.714 125.246 288.629 125.587 288.629C126.098 288.629 126.269 288.884 126.269 289.14C126.439 289.991 124.65 291.779 123.713 292.205H123.627C123.627 292.205 123.627 292.205 123.542 292.205ZM125.502 288.969C125.246 288.969 125.076 289.055 124.905 289.225C124.309 289.906 124.053 290.757 123.968 291.694C124.905 291.098 126.098 289.736 126.013 289.225C126.013 289.14 126.013 289.055 125.672 289.055L125.502 288.969Z" fill="#407BFF"/>
<path d="M122.774 291.098L114.254 291.438C113.913 291.438 113.657 291.694 113.572 292.034L112.294 299.016C112.209 299.612 112.55 300.208 113.231 300.378C113.317 300.378 113.402 300.378 113.487 300.378C116.554 300.208 119.281 299.952 123.115 299.782C127.63 299.612 126.523 300.208 131.805 300.123C135.043 300.037 135.469 296.376 134.105 296.291C127.886 295.695 127.119 293.907 124.648 291.779C124.137 291.268 123.455 291.098 122.774 291.098Z" fill="#263238"/>
<path opacity="0.2" d="M115.191 286.5L123.285 286.33L123.967 279.604H115.191V286.5Z" fill="#263238"/>
<path d="M111.355 155.809C111.355 155.809 102.239 167.899 108.97 191.568L116.638 226.135C116.638 226.135 109.396 241.886 113.23 283.35C113.23 283.35 119.023 284.286 124.476 283.094C124.476 283.094 132.996 239.332 134.274 224.517C135.723 208.255 134.871 159.129 134.871 159.129L111.355 155.809Z" fill="#407BFF"/>
<path d="M116.893 116.643C116.893 116.643 115.444 110.598 124.561 113.237C133.677 115.877 132.91 121.07 132.91 121.07L116.893 116.643Z" fill="#263238"/>
<path opacity="0.4" d="M116.893 116.643C116.893 116.643 115.444 110.598 124.561 113.237C133.677 115.877 132.91 121.07 132.91 121.07L116.893 116.643Z" fill="black"/>
<path d="M139.384 131.714C139.384 133.842 138.447 136.907 137.68 140.313C137.254 141.931 136.914 143.633 136.658 145.336C135.38 154.702 134.954 164.578 134.954 164.578C134.954 164.578 120.129 168.75 105.73 158.789C105.73 158.789 109.309 155.723 108.542 134.864C108.201 125.413 104.793 114.175 120.385 115.963C133.591 117.495 138.021 121.497 139.044 127.967C139.044 128.053 139.044 128.138 139.129 128.223C139.129 128.393 139.214 128.649 139.214 128.819C139.384 129.755 139.384 130.692 139.384 131.714Z" fill="#263238"/>
<path opacity="0.4" d="M139.388 131.714C139.388 133.843 138.451 136.908 137.684 140.313C134.106 136.056 130.527 128.053 130.527 128.053L133.509 123.711L138.707 126.095C138.877 126.691 139.047 127.287 139.133 127.883C139.133 127.968 139.133 128.053 139.218 128.138C139.218 128.309 139.303 128.564 139.303 128.734C139.388 129.756 139.388 130.692 139.388 131.714Z" fill="black"/>
<path d="M144.75 128.052C144.75 128.052 149.777 133.075 151.907 135.119L169.544 129.84C169.799 127.967 171.162 126.434 172.952 125.923L174.23 125.583L176.871 124.816C177.893 124.561 178.916 124.816 179.682 125.583C180.534 126.434 180.79 127.796 180.279 128.903C179.171 131.202 177.041 132.735 174.485 133.075L172.014 133.331C172.014 133.331 156.252 141.93 151.14 141.419C146.028 140.908 139.383 134.863 139.383 134.863L144.75 128.052Z" fill="#B97964"/>
<path d="M132.145 118.857C136.491 119.453 140.921 122.944 147.907 129.074C147.907 129.074 145.607 134.268 140.58 137.503C140.58 137.503 136.576 135.715 131.719 129.67C125.926 122.263 129.504 118.517 132.145 118.857Z" fill="#263238"/>
</g>
<defs>
<clipPath id="clip0_3821_8630">
<rect width="426" height="314" fill="white"/>
</clipPath>
</defs>
</svg>
