<?xml version="1.0" encoding="UTF-8"?>
<svg id="Layer_2" data-name="Layer 2" xmlns="http://www.w3.org/2000/svg" width="666.28" height="382.93" xmlns:xlink="http://www.w3.org/1999/xlink" viewBox="0 0 666.28 382.93">
  <defs>
    <style>
      .cls-1 {
        fill: url(#linear-gradient-12);
      }

      .cls-1, .cls-2, .cls-3, .cls-4, .cls-5, .cls-6, .cls-7, .cls-8, .cls-9, .cls-10, .cls-11, .cls-12, .cls-13, .cls-14, .cls-15, .cls-16, .cls-17, .cls-18, .cls-19, .cls-20, .cls-21, .cls-22, .cls-23, .cls-24, .cls-25, .cls-26, .cls-27 {
        stroke-width: 0px;
      }

      .cls-2 {
        fill: url(#linear-gradient);
      }

      .cls-3 {
        opacity: .6;
      }

      .cls-3, .cls-6, .cls-11, .cls-13, .cls-14 {
        isolation: isolate;
      }

      .cls-3, .cls-6, .cls-22 {
        fill: #611c93;
      }

      .cls-4 {
        fill: #d1bcff;
      }

      .cls-5 {
        fill: url(#linear-gradient-6);
      }

      .cls-6, .cls-14 {
        opacity: .5;
      }

      .cls-7 {
        fill: #9f57ff;
      }

      .cls-8 {
        fill: url(#linear-gradient-11);
      }

      .cls-9 {
        fill: url(#linear-gradient-5);
      }

      .cls-10 {
        fill: #f2b42a;
      }

      .cls-11 {
        fill: url(#linear-gradient-8);
        opacity: .96;
      }

      .cls-12 {
        fill: #f698ff;
      }

      .cls-13 {
        opacity: .8;
      }

      .cls-13, .cls-16 {
        fill: #8845c7;
      }

      .cls-14 {
        fill: #242993;
      }

      .cls-28 {
        opacity: .3;
      }

      .cls-15 {
        fill: #f9bf30;
      }

      .cls-17 {
        fill: url(#linear-gradient-2);
      }

      .cls-18 {
        fill: url(#linear-gradient-7);
      }

      .cls-19 {
        fill: url(#linear-gradient-3);
      }

      .cls-20 {
        fill: url(#linear-gradient-9);
      }

      .cls-29 {
        opacity: .32;
      }

      .cls-30 {
        opacity: .51;
      }

      .cls-21 {
        fill: #fff;
      }

      .cls-23 {
        fill: url(#linear-gradient-10);
      }

      .cls-24 {
        fill: #dd821f;
      }

      .cls-25 {
        fill: url(#linear-gradient-4);
      }

      .cls-26 {
        fill: #ffd85a;
      }

      .cls-27 {
        fill: #e9eaff;
      }
    </style>
    <linearGradient id="linear-gradient" x1="636.9" y1="374.3" x2="566.72" y2="318.03" gradientTransform="translate(0 384) scale(1 -1)" gradientUnits="userSpaceOnUse">
      <stop offset="0" stop-color="#d1bcff"/>
      <stop offset=".15" stop-color="#c3a2ff"/>
      <stop offset=".39" stop-color="#b281ff"/>
      <stop offset=".61" stop-color="#a86aff"/>
      <stop offset=".82" stop-color="#a05bff"/>
      <stop offset="1" stop-color="#9f57ff"/>
    </linearGradient>
    <linearGradient id="linear-gradient-2" x1="358.49" y1="118.14" x2="294.7" y2="66.98" gradientTransform="translate(221.56 -84.17) rotate(30) scale(1 -1) skewX(30)" gradientUnits="userSpaceOnUse">
      <stop offset="0" stop-color="#d4c0ff"/>
      <stop offset=".3" stop-color="#d6c4ff"/>
      <stop offset=".65" stop-color="#ddd3ff"/>
      <stop offset="1" stop-color="#e9eaff"/>
    </linearGradient>
    <linearGradient id="linear-gradient-3" x1="127.28" y1="109.06" x2="127.28" y2="382.21" gradientTransform="translate(605.73 384) rotate(-180)" gradientUnits="userSpaceOnUse">
      <stop offset="0" stop-color="#9f57ff"/>
      <stop offset=".18" stop-color="#a05bff"/>
      <stop offset=".39" stop-color="#a86aff"/>
      <stop offset=".61" stop-color="#b281ff"/>
      <stop offset=".85" stop-color="#c3a2ff"/>
      <stop offset="1" stop-color="#d1bcff"/>
    </linearGradient>
    <linearGradient id="linear-gradient-4" x1="90.29" y1="309.39" x2="90.29" y2="328.96" gradientTransform="translate(605.73 384) rotate(-180)" xlink:href="#linear-gradient-2"/>
    <linearGradient id="linear-gradient-5" x1="162.25" y1="-55.88" x2="162.25" y2="129.45" gradientTransform="translate(613.28 265.06) rotate(-150) skewX(30)" xlink:href="#linear-gradient-2"/>
    <linearGradient id="linear-gradient-6" x1="107.44" y1="246.84" x2="150.69" y2="324.72" gradientTransform="translate(605.73 384) rotate(-180)" gradientUnits="userSpaceOnUse">
      <stop offset="0" stop-color="#9f57ff"/>
      <stop offset=".04" stop-color="#a05bff"/>
      <stop offset=".09" stop-color="#a86aff"/>
      <stop offset=".14" stop-color="#b281ff"/>
      <stop offset=".19" stop-color="#c3a2ff"/>
      <stop offset=".22" stop-color="#d1bcff"/>
    </linearGradient>
    <linearGradient id="linear-gradient-7" x1="160.57" y1="246.57" x2="131.78" y2="302.84" gradientTransform="translate(605.73 384) rotate(-180)" xlink:href="#linear-gradient-2"/>
    <linearGradient id="linear-gradient-8" x1="202.48" y1="127.99" x2="112.28" y2="287.82" gradientTransform="translate(605.73 384) rotate(-180)" gradientUnits="userSpaceOnUse">
      <stop offset="0" stop-color="#d4c0ff"/>
      <stop offset=".12" stop-color="#dcd0ff"/>
      <stop offset=".26" stop-color="#e9eaff"/>
      <stop offset=".51" stop-color="#d4c0ff"/>
      <stop offset=".62" stop-color="#dcd0ff"/>
      <stop offset=".75" stop-color="#e9eaff"/>
      <stop offset="1" stop-color="#d4c0ff"/>
    </linearGradient>
    <linearGradient id="linear-gradient-9" x1="159" y1="130.55" x2="88.82" y2="74.27" xlink:href="#linear-gradient"/>
    <linearGradient id="linear-gradient-10" x1="326.32" y1="-331.91" x2="262.53" y2="-383.06" xlink:href="#linear-gradient-2"/>
    <linearGradient id="linear-gradient-11" x1="647.04" y1="225.55" x2="576.86" y2="169.27" xlink:href="#linear-gradient"/>
    <linearGradient id="linear-gradient-12" x1="513.11" y1="-5.62" x2="449.32" y2="-56.78" xlink:href="#linear-gradient-2"/>
  </defs>
  <g id="Layer_4" data-name="Layer 4">
    <g>
      <g id="_Ñëîé_1" data-name=" Ñëîé 1">
        <g class="cls-28">
          <path class="cls-21" d="M556.97,246.29c-.11,0-.21-.03-.31-.08l-122.24-70.58c-2.25-1.3-3.49-3.07-3.49-4.97s1.24-3.67,3.49-4.97l79.61-45.96c1.85-1.07,2.87-2.45,2.87-3.89s-1.02-2.82-2.87-3.89l-134.8-77.83c-4.06-2.34-10.67-2.34-14.73,0l-45.21,26.1c-1.85,1.07-2.87,2.45-2.87,3.89s1.02,2.82,2.87,3.89l67.21,38.8c2.25,1.3,3.49,3.07,3.49,4.97s-1.24,3.67-3.49,4.98l-100.49,58.02c-4.41,2.54-11.58,2.54-15.98,0l-66.73-38.52c-.3-.17-.4-.56-.23-.86s.55-.4.86-.23l66.73,38.52c4.06,2.34,10.67,2.34,14.73,0l100.49-58.02c1.85-1.07,2.87-2.45,2.87-3.89s-1.02-2.82-2.87-3.89l-67.21-38.8c-2.25-1.3-3.49-3.07-3.49-4.97s1.24-3.67,3.49-4.97l45.21-26.1c4.4-2.54,11.58-2.54,15.98,0l134.8,77.83c2.25,1.3,3.49,3.07,3.49,4.97s-1.24,3.67-3.49,4.97l-79.61,45.96c-1.85,1.07-2.87,2.45-2.87,3.89s1.02,2.82,2.87,3.89l122.25,70.58c.3.17.4.56.23.86-.12.2-.33.31-.54.31h-.02Z"/>
          <path class="cls-21" d="M527.85,193.37c-.22,0-.43-.11-.54-.31-.17-.3-.07-.68.23-.86l118.66-68.51c2.55-1.47,3.95-3.39,3.95-5.4s-1.4-3.93-3.95-5.4l-113.8-65.71c-5.5-3.18-14.45-3.18-19.96,0l-25.44,14.69c-.3.17-.68.07-.85-.23s-.07-.68.23-.85l25.44-14.69c5.85-3.38,15.36-3.38,21.21,0l113.8,65.71c2.95,1.7,4.58,4.01,4.58,6.49s-1.63,4.78-4.58,6.48l-118.66,68.51c-.1.06-.21.08-.31.08h0Z"/>
          <path class="cls-21" d="M245.29,382.93c-3.26,0-6.52-.72-9-2.15l-162.58-93.86c-2.52-1.46-3.91-3.43-3.91-5.56s1.39-4.1,3.91-5.56l55.45-32.01c4.96-2.87,13.04-2.87,18,0l102.57,59.22c4.62,2.67,12.13,2.67,16.75,0l138.37-79.89c2.12-1.22,3.28-2.81,3.28-4.47s-1.17-3.25-3.29-4.47l-40.89-23.61c-4.62-2.67-12.13-2.67-16.75,0l-80.11,46.25c-4.96,2.87-13.04,2.86-18,0l-111.93-64.62c-4.62-2.67-12.13-2.67-16.75,0L.94,241.18c-.3.17-.68.07-.86-.23-.17-.3-.07-.68.23-.85l119.49-68.98c4.96-2.87,13.04-2.87,18,0l111.93,64.62c4.62,2.67,12.13,2.67,16.75,0l80.11-46.25c4.96-2.87,13.04-2.87,18,0l40.89,23.61c2.52,1.46,3.91,3.43,3.91,5.56s-1.39,4.1-3.91,5.56l-138.37,79.89c-4.96,2.87-13.04,2.87-18,0l-102.57-59.22c-4.62-2.67-12.13-2.67-16.75,0l-55.45,32.01c-2.12,1.22-3.29,2.81-3.29,4.47s1.17,3.25,3.29,4.47l162.57,93.86c4.62,2.66,12.13,2.67,16.75,0l210.37-121.46c.3-.17.68-.07.86.23.17.3.07.68-.23.85l-210.37,121.46c-2.48,1.43-5.74,2.15-9,2.15h0Z"/>
          <path class="cls-21" d="M400.84,336.44c-.11,0-.21-.03-.31-.08l-34.96-20.18c-.3-.17-.4-.56-.23-.86.17-.3.55-.4.86-.23l34.96,20.18c.3.17.4.56.23.86-.12.2-.33.31-.54.31h0Z"/>
          <path class="cls-21" d="M305.26,114.42c-.22,0-.43-.11-.54-.31-.17-.3-.07-.68.23-.86l46.05-26.58c.3-.17.68-.07.86.23.17.3.07.68-.23.86l-46.05,26.58c-.1.06-.21.08-.31.08h0Z"/>
          <path class="cls-21" d="M649.61,192.81c-.11,0-.21-.03-.31-.08l-60.4-34.87c-.3-.17-.4-.56-.23-.86.17-.3.55-.4.86-.23l60.4,34.87c.3.17.4.56.23.86-.12.2-.33.31-.54.31h-.01Z"/>
          <path class="cls-21" d="M305.72,126.12h-20.74c-.35,0-.63-.28-.63-.63v-11.97c0-.17.07-.33.18-.44s.28-.18.44-.18h20.74c.35,0,.63.28.63.63v11.97c0,.17-.06.33-.18.44-.12.12-.28.18-.44.18ZM285.61,124.87h19.48v-10.72h-19.48v10.72Z"/>
          <path class="cls-21" d="M553.6,99.9h-20.74c-.35,0-.63-.28-.63-.63v-11.97c0-.35.28-.63.63-.63h20.74c.35,0,.63.28.63.63v11.97c0,.35-.28.63-.63.63ZM533.49,98.65h19.48v-10.72h-19.48v10.72Z"/>
          <path class="cls-21" d="M250.24,355.15c-4.02,0-8.03-.88-11.09-2.65-3.08-1.78-4.78-4.18-4.78-6.76s1.7-4.99,4.78-6.76c6.11-3.53,16.06-3.53,22.18,0,3.08,1.78,4.78,4.18,4.78,6.76s-1.7,4.99-4.78,6.76c-3.06,1.77-7.08,2.65-11.09,2.65h0ZM250.24,337.55c-3.79,0-7.58.83-10.46,2.5-2.68,1.55-4.15,3.56-4.15,5.68s1.47,4.13,4.15,5.68c5.77,3.33,15.16,3.33,20.93,0,2.68-1.55,4.15-3.56,4.15-5.68s-1.47-4.13-4.15-5.68h0c-2.88-1.67-6.67-2.5-10.46-2.5h0Z"/>
          <path class="cls-21" d="M211.5,332.78c-4.02,0-8.03-.88-11.09-2.65-3.08-1.78-4.78-4.18-4.78-6.76s1.7-4.99,4.78-6.76c6.12-3.53,16.07-3.53,22.18,0h0c3.08,1.78,4.78,4.18,4.78,6.76s-1.7,4.99-4.78,6.77c-3.06,1.77-7.07,2.65-11.09,2.65h0ZM211.5,315.19c-3.79,0-7.58.83-10.46,2.5-2.68,1.55-4.15,3.56-4.15,5.68s1.47,4.13,4.15,5.68c5.77,3.33,15.16,3.33,20.93,0,2.68-1.55,4.15-3.56,4.15-5.68s-1.47-4.13-4.15-5.68c-2.88-1.67-6.67-2.5-10.46-2.5h0Z"/>
          <path class="cls-21" d="M172.75,310.41c-4.02,0-8.03-.88-11.09-2.65-3.08-1.78-4.78-4.18-4.78-6.77s1.7-4.99,4.78-6.76c6.12-3.53,16.07-3.53,22.18,0h0c3.08,1.78,4.78,4.18,4.78,6.77s-1.7,4.99-4.78,6.76c-3.06,1.77-7.08,2.65-11.09,2.65ZM172.75,292.82c-3.79,0-7.58.83-10.46,2.5-2.68,1.55-4.15,3.56-4.15,5.68s1.47,4.14,4.15,5.68c5.77,3.33,15.16,3.33,20.93,0,2.68-1.55,4.15-3.56,4.15-5.68s-1.47-4.14-4.15-5.68c-2.88-1.67-6.67-2.5-10.46-2.5h0Z"/>
          <path class="cls-21" d="M134.01,288.04c-4.02,0-8.03-.88-11.09-2.65-3.08-1.78-4.78-4.18-4.78-6.76s1.7-4.99,4.78-6.77c6.12-3.53,16.07-3.53,22.18,0h0c3.08,1.78,4.78,4.18,4.78,6.76s-1.7,4.99-4.78,6.76c-3.06,1.77-7.07,2.65-11.09,2.65h0ZM134.01,270.45c-3.79,0-7.58.83-10.46,2.5-2.68,1.55-4.15,3.56-4.15,5.68s1.47,4.13,4.15,5.68c5.77,3.33,15.16,3.33,20.93,0,2.68-1.55,4.15-3.56,4.15-5.68s-1.47-4.13-4.15-5.68h0c-2.88-1.67-6.68-2.5-10.47-2.5Z"/>
          <path class="cls-21" d="M144.79,273.03c-.22,0-.43-.11-.54-.31-.17-.3-.07-.68.23-.86l25.34-14.63c.3-.17.68-.07.86.23.17.3.07.68-.23.86l-25.34,14.63c-.1.06-.21.08-.31.08h-.01Z"/>
          <path class="cls-21" d="M283.7,363.7c-.11,0-.22-.03-.32-.09l-21-12.28c-.3-.17-.4-.56-.22-.86.17-.3.55-.4.86-.22l21,12.28c.3.17.4.56.22.86-.12.2-.33.31-.54.31h0Z"/>
          <path class="cls-21" d="M421.58,348.41h-20.74c-.35,0-.63-.28-.63-.63v-11.97c0-.17.06-.33.18-.44.12-.12.28-.18.44-.18h20.74c.35,0,.63.28.63.63v11.97c0,.35-.28.63-.63.63h.01ZM401.47,347.16h19.48v-10.72h-19.48v10.72Z"/>
        </g>
        <g>
          <path class="cls-6" d="M596.69,67.19l-41.82-24.15c-.91-.52-.79-1.44.25-2.04l12.29-7.09,45.11,26.04-12.29,7.09c-1.05.6-2.63.67-3.54.15Z"/>
          <g>
            <path class="cls-2" d="M656.14,34.33v-8.33h-13.57l-30.11-17.38c-.74-.43-2.03-.37-2.88.12l-29.98,17.31h-13.51v8.36h0c.01.26.17.51.49.69l43.2,24.94c.74.43,2.03.37,2.88-.12l42.78-24.7c.44-.26.68-.58.7-.89h0Z"/>
            <path class="cls-17" d="M609.77,51.71l-43.2-24.94c-.74-.43-.65-1.17.21-1.66L609.57.41c.85-.49,2.14-.55,2.88-.12l43.2,24.94c.74.43.65,1.17-.21,1.66l-42.78,24.7c-.85.49-2.14.55-2.88.12h-.01Z"/>
            <path class="cls-22" d="M609.93,48.79l-38.29-22.11c-.65-.38-.57-1.04.18-1.48l37.92-21.89c.76-.44,1.9-.48,2.56-.11l38.29,22.11c.65.38.57,1.04-.18,1.48l-37.92,21.89c-.76.44-1.9.48-2.56.11Z"/>
            <path class="cls-16" d="M610.02,46.94l-35.18-20.31c-.6-.35-.53-.95.17-1.36l34.84-20.11c.69-.4,1.75-.44,2.35-.1l35.18,20.31c.6.35.53.95-.17,1.36l-34.84,20.11c-.69.4-1.75.44-2.35.1Z"/>
          </g>
          <g>
            <polygon class="cls-12" points="610.3 24.68 606.19 22.3 608.43 21 612.55 23.38 610.3 24.68"/>
            <polygon class="cls-12" points="617.95 24.34 613.83 26.72 611.59 25.42 615.7 23.04 617.95 24.34"/>
            <polygon class="cls-12" points="609.37 25.22 607.12 26.51 604.88 25.22 607.12 23.92 609.37 25.22"/>
            <polygon class="cls-12" points="617.13 29.7 614.88 30.99 608.41 27.25 610.65 25.96 617.13 29.7"/>
          </g>
        </g>
        <g>
          <g>
            <g>
              <path class="cls-19" d="M425.54,8.01l10.59-6.1v.02c.43-.22.97-.2,1.57.14l91.17,52.64c1.37.79,2.48,2.92,2.48,4.74v207.39c0,1.01-.35,1.7-.88,2h.02l-10.58,6.1-.23-11.53-81.98-47.33c-1.37-.79-2.48-2.92-2.48-4.74V13.46c-.21.67-.38,1.16-.4,1.18-.08.05-9.28-6.62-9.28-6.62h0Z"/>
              <path class="cls-25" d="M531.29,58.7l-27.55,15.91-4.16-2.4,29.73-17.17c.98.8,1.76,2.25,1.98,3.66Z"/>
              <path class="cls-9" d="M427.18,222.14l91.17,52.64c1.37.79,2.48-.05,2.48-1.88V65.52c0-1.83-1.11-3.95-2.48-4.74l-91.17-52.64c-1.37-.79-2.48.05-2.48,1.88v207.39c0,1.83,1.11,3.95,2.48,4.74h0Z"/>
              <polygon class="cls-22" points="424.7 206.05 520.84 261.56 520.84 76.87 424.7 21.36 424.7 206.05"/>
              <polygon class="cls-22" points="424.7 206.05 520.84 261.56 520.84 76.87 424.7 21.36 424.7 206.05"/>
              <g class="cls-30">
                <polygon class="cls-16" points="424.7 199.57 520.84 255.08 520.84 82.79 424.7 27.28 424.7 199.57"/>
              </g>
              <path class="cls-7" d="M465.28,39.47l17.39,10.08c.51.29.94.38,1.13-.1.06-.16.1-.36.1-.59h0c0-.9-.55-1.96-1.23-2.35l-17.57-10.15s-.1-.09-.16-.08c-.55.15-.65.26-.65,1.1l.08.23c0,.9.23,1.46.91,1.85h0Z"/>
              <path class="cls-4" d="M464.93,36.3c-.06.16-.1.36-.1.58,0,.9.55,1.96,1.23,2.35l17.57,10.15s.11.05.16.07c-.19.48-.62.64-1.13.35l-17.57-10.15c-.68-.39-1.23-1.44-1.23-2.35,0-.83.47-1.24,1.07-1Z"/>
              <g>
                <path class="cls-27" d="M526.45,82.73l.2-.11c.32-.19.61-.2.84-.07h0l.75.42-.36.03c.07.17.11.39.11.63v12.01c0,.98-.6,2.12-1.33,2.54l-.2.11c-.09.05-.18.09-.27.12l.19.4-.8-.46h.01c-.29-.16-.47-.53-.47-1.07v-12.01c0-.98.6-2.12,1.33-2.54h0Z"/>
                <path class="cls-4" d="M527.2,98.73l.2-.11c.74-.42,1.33-1.56,1.33-2.54v-12.01c0-.98-.6-1.43-1.33-1.01l-.2.11c-.74.42-1.33,1.56-1.33,2.54v12.01c0,.98.6,1.43,1.33,1.01Z"/>
              </g>
              <g>
                <path class="cls-27" d="M526.45,101.06l.2-.11c.32-.19.61-.2.84-.07h0l.75.42-.36.03c.07.17.11.39.11.63v12.01c0,.98-.6,2.12-1.33,2.54l-.2.11c-.09.05-.18.09-.27.12l.19.4-.8-.46h.01c-.29-.16-.47-.53-.47-1.07v-12.01c0-.98.6-2.12,1.33-2.54h0Z"/>
                <path class="cls-4" d="M527.2,117.05l.2-.11c.74-.42,1.33-1.56,1.33-2.54v-12.01c0-.98-.6-1.43-1.33-1.01l-.2.11c-.74.42-1.33,1.56-1.33,2.54v12.01c0,.98.6,1.43,1.33,1.01Z"/>
              </g>
            </g>
            <path class="cls-3" d="M424.7,217.4v-116.9c3.55-9.85,10.63-19.26,18.78-23.97h0l64.13,37.02c-11.71,6.76-21.21,23.21-21.21,36.73v102.36c0,1.16-.1,2.34-.26,3.53l-58.96-34.04c-1.37-.79-2.48-2.92-2.48-4.74h0Z"/>
            <g>
              <g>
                <path class="cls-5" d="M425.39,63.61l6.52-3.76h0c.09-.05.2-.05.33.02l81.74,47.2c.27.15.48.57.48.92v15.43c0,.17-.05.29-.13.36h0s-.01,0-.02.01l-6.59,3.8-.05-7.46-75.43-43.55c-.27-.15-.48-.57-.48-.92v-5.3l-6.37-6.76h0Z"/>
                <path class="cls-18" d="M425.68,80.36l81.74,47.2c.27.15.48,0,.48-.37v-15.43c0-.36-.22-.77-.48-.92l-81.74-47.2c-.27-.15-.48,0-.48.37v15.43c0,.36.22.77.48.92Z"/>
                <path class="cls-3" d="M436.96,77.24l63.65,37.43c-1.97,1.69-3.83,3.63-5.54,5.76l-64.12-37.02c1.85-2.3,3.87-4.38,6.01-6.17Z"/>
                <path class="cls-22" d="M428.01,75.73l77.08,44.5c.18.11.33,0,.33-.25v-3.88c0-.24-.15-.53-.33-.63l-77.08-44.5c-.18-.11-.33,0-.33.25v3.88c0,.24.15.53.33.63Z"/>
                <path class="cls-16" d="M428.01,70.97l1.57.9v2.09c0,.24.15.53.33.63l75.51,43.6v1.78c0,.24-.15.36-.33.25l-77.08-44.5c-.18-.11-.33-.39-.33-.63v-3.88c0-.24.15-.35.33-.25h0Z"/>
              </g>
              <path class="cls-11" d="M459.79,282.33l-64.13-37.02h0c9.97-5.75,18.04-19.75,18.04-31.25v-102.36c0-13.53,9.5-29.97,21.21-36.74h0l64.13,37.02h0c-11.71,6.76-21.21,23.21-21.21,36.74v102.36c0,11.51-8.08,25.5-18.04,31.25h0Z"/>
              <path class="cls-13" d="M434.92,74.96l64.13,37.02c-.51.3-1.02.62-1.53.95h0l-64.12-37.03c.5-.33,1.01-.65,1.52-.95h0Z"/>
            </g>
          </g>
          <g>
            <polygon class="cls-12" points="507.12 152.55 509.65 154.01 509.65 152.32 507.12 150.86 507.12 152.55"/>
            <polygon class="cls-12" points="507.12 164.01 509.65 165.47 509.65 155.56 507.12 154.1 507.12 164.01"/>
            <polygon class="cls-12" points="507.12 169.5 509.65 170.96 509.65 167.02 507.12 165.56 507.12 169.5"/>
            <polygon class="cls-12" points="507.12 175.18 509.65 176.64 509.65 172.7 507.12 171.24 507.12 175.18"/>
            <polygon class="cls-12" points="503.35 155.86 505.88 157.32 505.88 153.38 503.35 151.92 503.35 155.86"/>
            <polygon class="cls-12" points="503.35 163.38 505.88 164.84 505.88 159.06 503.35 157.6 503.35 163.38"/>
            <polygon class="cls-12" points="503.35 170.31 505.88 171.77 505.88 166.81 503.35 165.35 503.35 170.31"/>
            <polygon class="cls-12" points="507.12 180.86 509.65 182.32 509.65 178.38 507.12 176.92 507.12 180.86"/>
            <polygon class="cls-12" points="503.35 150.37 505.88 151.83 505.88 150.14 503.35 148.68 503.35 150.37"/>
          </g>
          <polygon class="cls-12" points="505.24 185.28 509.65 187.83 509.65 186.19 505.24 183.64 505.24 185.28"/>
        </g>
        <g>
          <path class="cls-6" d="M118.79,310.95l-41.82-24.15c-.91-.52-.79-1.44.25-2.04l12.29-7.09,45.11,26.04-12.29,7.09c-1.05.6-2.63.67-3.54.15Z"/>
          <g>
            <path class="cls-20" d="M178.24,278.08v-8.33h-13.57l-30.11-17.38c-.74-.43-2.03-.37-2.88.12l-29.98,17.31h-13.51v8.36h0c.01.26.17.51.49.69l43.2,24.94c.74.43,2.03.37,2.88-.12l42.78-24.7c.44-.26.68-.58.7-.89h0Z"/>
            <path class="cls-23" d="M131.88,295.46l-43.2-24.94c-.74-.43-.65-1.17.21-1.66l42.78-24.7c.85-.49,2.14-.55,2.88-.12l43.2,24.94c.74.43.65,1.17-.21,1.66l-42.78,24.7c-.85.49-2.14.55-2.88.12Z"/>
            <path class="cls-22" d="M132.03,292.54l-38.29-22.11c-.65-.38-.57-1.04.18-1.48l37.92-21.89c.76-.44,1.9-.48,2.56-.11l38.29,22.11c.65.38.57,1.04-.18,1.48l-37.92,21.89c-.76.44-1.9.48-2.56.11h0Z"/>
            <path class="cls-16" d="M132.13,290.69l-35.18-20.31c-.6-.35-.53-.95.17-1.36l34.84-20.11c.69-.4,1.75-.44,2.35-.1l35.18,20.31c.6.35.53.95-.17,1.36l-34.84,20.11c-.69.4-1.75.44-2.35.1h0Z"/>
          </g>
          <g>
            <polygon class="cls-12" points="132.41 268.43 128.29 266.05 130.54 264.76 134.65 267.13 132.41 268.43"/>
            <polygon class="cls-12" points="140.05 268.09 135.94 270.47 133.69 269.17 137.81 266.8 140.05 268.09"/>
            <polygon class="cls-12" points="131.47 268.97 129.23 270.27 126.98 268.97 129.23 267.67 131.47 268.97"/>
            <polygon class="cls-12" points="139.24 273.45 136.99 274.75 130.51 271.01 132.76 269.71 139.24 273.45"/>
          </g>
        </g>
        <g>
          <path class="cls-6" d="M606.82,215.95l-41.82-24.15c-.91-.52-.79-1.44.25-2.04l12.29-7.09,45.11,26.04-12.29,7.09c-1.05.6-2.63.67-3.54.15h0Z"/>
          <g>
            <path class="cls-8" d="M666.27,183.09v-8.33h-13.57l-30.11-17.38c-.74-.43-2.03-.37-2.88.12l-29.98,17.31h-13.51v8.36h0c.01.26.17.51.49.69l43.2,24.94c.74.43,2.03.37,2.88-.12l42.78-24.7c.44-.26.68-.58.7-.89h0Z"/>
            <path class="cls-1" d="M619.91,200.47l-43.2-24.94c-.74-.43-.65-1.17.21-1.66l42.78-24.7c.85-.49,2.14-.55,2.88-.12l43.2,24.94c.74.43.65,1.17-.21,1.66l-42.78,24.7c-.85.49-2.14.55-2.88.12h0Z"/>
            <path class="cls-22" d="M620.06,197.55l-38.29-22.11c-.66-.38-.57-1.04.18-1.48l37.92-21.89c.76-.44,1.9-.48,2.56-.11l38.29,22.11c.65.38.57,1.04-.18,1.48l-37.92,21.89c-.76.44-1.9.48-2.56.11Z"/>
            <path class="cls-16" d="M620.16,195.69l-35.18-20.31c-.6-.35-.53-.95.17-1.36l34.84-20.11c.69-.4,1.75-.44,2.35-.1l35.18,20.31c.6.35.53.95-.17,1.36l-34.84,20.11c-.69.4-1.75.44-2.35.1Z"/>
          </g>
          <g>
            <polygon class="cls-12" points="620.44 173.43 616.33 171.06 618.57 169.76 622.69 172.14 620.44 173.43"/>
            <polygon class="cls-12" points="628.09 173.1 623.97 175.47 621.73 174.17 625.84 171.8 628.09 173.1"/>
            <polygon class="cls-12" points="619.51 173.97 617.26 175.27 615.01 173.97 617.26 172.67 619.51 173.97"/>
            <polygon class="cls-12" points="627.27 178.45 625.02 179.75 618.55 176.01 620.79 174.71 627.27 178.45"/>
          </g>
        </g>
        <g class="cls-29">
          <polygon class="cls-16" points="454.95 136.3 465.44 142.36 465.44 141.19 454.95 135.13 454.95 136.3"/>
          <polygon class="cls-16" points="449.57 133.2 453.35 135.38 453.35 134.21 449.57 132.03 449.57 133.2"/>
          <polygon class="cls-16" points="445.4 130.79 447.97 132.27 447.97 131.1 445.4 129.62 445.4 130.79"/>
          <polygon class="cls-16" points="459.72 141.73 465.44 145.03 465.44 143.86 459.72 140.56 459.72 141.73"/>
          <polygon class="cls-16" points="451.12 136.76 458.12 140.8 458.12 139.64 451.12 135.59 451.12 136.76"/>
          <polygon class="cls-16" points="446.95 134.35 449.51 135.84 449.51 134.67 446.95 133.19 446.95 134.35"/>
          <polygon class="cls-16" points="442.98 132.06 445.55 133.55 445.55 132.38 442.98 130.89 442.98 132.06"/>
          <polygon class="cls-16" points="461.3 145.31 465.44 147.7 465.44 146.53 461.3 144.14 461.3 145.31"/>
          <polygon class="cls-16" points="458.29 143.57 459.7 144.39 459.7 143.22 458.29 142.4 458.29 143.57"/>
          <polygon class="cls-16" points="454.12 141.16 456.68 142.65 456.68 141.48 454.12 140 454.12 141.16"/>
          <polygon class="cls-16" points="450.17 141.56 465.44 150.37 465.44 149.2 450.17 140.39 450.17 141.56"/>
          <polygon class="cls-16" points="444.79 138.45 448.57 140.63 448.57 139.46 444.79 137.28 444.79 138.45"/>
          <polygon class="cls-16" points="461.3 150.65 465.44 153.04 465.44 151.87 461.3 149.48 461.3 150.65"/>
          <polygon class="cls-16" points="451.6 145.05 459.7 149.73 459.7 148.56 451.6 143.88 451.6 145.05"/>
          <polygon class="cls-16" points="447.43 142.64 449.99 144.12 449.99 142.96 447.43 141.47 447.43 142.64"/>
          <polygon class="cls-16" points="456.98 150.82 465.44 155.71 465.44 154.54 456.98 149.66 456.98 150.82"/>
          <polygon class="cls-16" points="449.25 146.37 455.37 149.9 455.37 148.73 449.25 145.2 449.25 146.37"/>
          <polygon class="cls-16" points="443.52 143.05 447.65 145.44 447.65 144.27 443.52 141.89 443.52 143.05"/>
          <polygon class="cls-16" points="462.58 156.73 465.44 158.38 465.44 157.21 462.58 155.56 462.58 156.73"/>
          <polygon class="cls-16" points="457.2 153.62 460.98 155.8 460.98 154.64 457.2 152.46 457.2 153.62"/>
          <polygon class="cls-16" points="449.51 149.19 455.6 152.7 455.6 151.53 449.51 148.02 449.51 149.19"/>
          <polygon class="cls-16" points="456.68 156 465.44 161.05 465.44 159.88 456.68 154.83 456.68 156"/>
          <polygon class="cls-16" points="446.88 150.34 455.08 155.07 455.08 153.9 446.88 149.17 446.88 150.34"/>
          <polygon class="cls-16" points="442.71 147.93 445.28 149.41 445.28 148.24 442.71 146.76 442.71 147.93"/>
          <polygon class="cls-16" points="438.71 145.62 441.28 147.1 441.28 145.93 438.71 144.45 438.71 145.62"/>
          <polygon class="cls-16" points="460.19 160.69 465.44 163.72 465.44 162.55 460.19 159.52 460.19 160.69"/>
          <polygon class="cls-16" points="433.67 124.02 426.4 119.82 426.4 118.65 433.67 122.85 433.67 124.02"/>
          <polygon class="cls-16" points="432.11 125.79 426.4 122.49 426.4 121.32 432.11 124.62 432.11 125.79"/>
          <polygon class="cls-16" points="430.53 127.55 426.4 125.16 426.4 123.99 430.53 126.38 430.53 127.55"/>
          <polygon class="cls-16" points="432.41 131.3 426.4 127.83 426.4 126.66 432.41 130.13 432.41 131.3"/>
          <polygon class="cls-16" points="430.53 132.89 426.4 130.5 426.4 129.33 430.53 131.72 430.53 132.89"/>
          <polygon class="cls-16" points="431.64 136.2 426.4 133.17 426.4 132 431.64 135.03 431.64 136.2"/>
          <polygon class="cls-16" points="429.26 137.49 426.4 135.84 426.4 134.67 429.26 136.32 429.26 137.49"/>
          <polygon class="cls-16" points="431.94 141.71 426.4 138.51 426.4 137.34 431.94 140.54 431.94 141.71"/>
          <polygon class="cls-16" points="431.64 144.21 426.4 141.18 426.4 140.01 431.64 143.04 431.64 144.21"/>
          <polygon class="cls-16" points="456.36 158.48 458.59 159.77 458.59 158.6 456.36 157.31 456.36 158.48"/>
          <polygon class="cls-16" points="449.74 154.66 454.76 157.55 454.76 156.39 449.74 153.49 449.74 154.66"/>
          <polygon class="cls-16" points="443.99 165.25 452.47 170.15 452.47 168.98 443.99 164.09 443.99 165.25"/>
          <polygon class="cls-16" points="438.19 161.9 441.53 163.83 441.53 162.66 438.19 160.74 438.19 161.9"/>
        </g>
      </g>
      <g>
        <path class="cls-14" d="M257.03,200.61c1.23,3.52-7.07,9.62-18.54,13.64-11.47,4.01-21.76,4.42-22.99.9s7.07-9.62,18.54-13.64c11.47-4.01,21.76-4.42,22.99-.9h0Z"/>
        <g>
          <g>
            <polygon class="cls-24" points="227.99 187.81 228.14 184.2 228.98 182.08 229.51 183.83 227.99 187.81"/>
            <path class="cls-26" d="M265.97,188.5l.14-3.55s-3,3-3,3.07,2.86.48,2.86.48Z"/>
            <g>
              <path class="cls-26" d="M246.72,199.04c-10.49-.25-18.81-5.58-18.59-14.84s8.9-16.56,19.39-16.31,18.81,7.96,18.59,17.22-8.9,14.18-19.39,13.93h0Z"/>
              <ellipse class="cls-26" cx="246.97" cy="188.26" rx="16.77" ry="18.99" transform="translate(52.86 430.66) rotate(-88.63)"/>
              <path class="cls-24" d="M233.73,176.19c-3.44,2.94-5.63,7.04-5.74,11.62-.22,9.26,8.1,16.97,18.59,17.22,5.19.12,9.93-1.6,13.43-4.5l-26.28-24.34h0Z"/>
              <ellipse class="cls-15" cx="246.97" cy="188.26" rx="16.02" ry="18.15" transform="translate(52.86 430.66) rotate(-88.63)"/>
              <ellipse class="cls-10" cx="246.97" cy="188.26" rx="12.86" ry="14.57" transform="translate(52.86 430.66) rotate(-88.63)"/>
              <path class="cls-26" d="M261.54,188.62c0-.29,0-.59-.02-.88-.67,6.68-7.1,11.82-14.81,11.63-7.71-.18-13.89-5.63-14.24-12.33-.03.29-.05.58-.06.87-.17,7.1,6.21,13.01,14.25,13.2s14.7-5.41,14.87-12.51v.02Z"/>
              <g>
                <path class="cls-26" d="M249.77,189.35l-2.99-2.77c-2.88.65-8.24,1.87-12.52,2.88,1.06,3.2,3.66,5.85,7.05,7.25l8.45-7.36h.01Z"/>
                <path class="cls-26" d="M245.07,197.7c.47.06.96.1,1.45.11,3.52.08,6.73-1.07,9.13-3.01l-4.88-4.52-5.7,7.42Z"/>
                <path class="cls-26" d="M243.58,183.62l-5.63-5.21c-1.89,1.65-3.58,3.48-4.04,5.91l9.67-.7Z"/>
              </g>
              <path class="cls-24" d="M246.52,176.95c8.04.19,14.42,6.1,14.25,13.2-.03,1.44-.34,2.81-.86,4.09.99-1.69,1.58-3.6,1.63-5.63.17-7.1-6.21-13.01-14.25-13.2-6.41-.15-11.94,3.38-14.01,8.41,2.47-4.2,7.51-7.01,13.24-6.88h0Z"/>
            </g>
            <path class="cls-24" d="M228.14,184.2c-.03,1.38-.16,2.37.16,3.66.42-1.36,1.33-5.42,1.33-5.42l1.45-3.23,1.2-.99,2.04-1.49.17-4.66c-3.79,2.97-6.23,7.28-6.34,12.12h0Z"/>
          </g>
          <g>
            <path class="cls-24" d="M264.88,183.72l.08-.95c0-.14.11-.25.24-.24h.07c.13,0,.23.12.23.26l-.08.95c0,.14-.11.25-.24.24h-.07c-.13,0-.23-.12-.23-.26Z"/>
            <path class="cls-24" d="M263.22,180.06l.1-1.71c0-.16.13-.28.27-.28h.17c.15,0,.26.14.26.29l-.1,1.72c0,.16-.13.28-.27.28h-.17c-.15,0-.26-.14-.26-.29h0Z"/>
            <path class="cls-24" d="M260.9,176.88l.1-1.66c0-.18.14-.32.31-.31h.29c.17,0,.3.16.29.33l-.1,1.66c0,.18-.14.32-.31.31h-.29c-.17,0-.3-.16-.29-.33Z"/>
            <path class="cls-24" d="M257.44,174.3l.11-2.02c0-.18.14-.32.31-.31h.29c.17,0,.3.16.29.33l-.11,2.01c0,.18-.14.32-.31.31h-.29c-.17,0-.3-.16-.29-.33h0Z"/>
            <path class="cls-24" d="M253.96,172.61l.11-2.32c0-.18.14-.32.31-.31h.29c.17,0,.3.16.29.33l-.11,2.32c0,.18-.14.32-.31.31h-.29c-.17,0-.3-.16-.29-.33Z"/>
            <path class="cls-24" d="M250.46,171.58l.11-2.23c0-.18.14-.32.31-.31h.29c.17,0,.3.16.29.33l-.11,2.23c0,.18-.14.32-.31.31h-.29c-.17,0-.3-.16-.29-.33Z"/>
            <path class="cls-24" d="M246.94,171.23l.11-2.27c0-.18.14-.32.31-.31h.29c.17,0,.3.16.29.33l-.11,2.27c0,.18-.14.32-.31.31h-.29c-.17,0-.3-.16-.29-.33Z"/>
            <path class="cls-24" d="M243.42,171.3l.11-2.12c0-.18.14-.32.31-.31h.29c.17,0,.3.16.29.33l-.11,2.12c0,.18-.14.32-.31.31h-.29c-.17,0-.3-.16-.29-.33Z"/>
            <path class="cls-24" d="M239.87,172.07l.11-2.06c0-.18.14-.32.31-.31h.29c.17,0,.3.16.29.33l-.11,2.06c0,.18-.14.32-.31.31h-.29c-.17,0-.3-.16-.29-.33Z"/>
            <path class="cls-24" d="M236.31,173.81l.11-2.23c0-.18.14-.32.31-.31h.29c.17,0,.3.16.29.33l-.11,2.23c0,.18-.14.32-.31.31h-.29c-.17,0-.3-.16-.29-.33Z"/>
          </g>
        </g>
      </g>
      <ellipse class="cls-14" cx="539.43" cy="338.5" rx="22" ry="6.75" transform="translate(-81.54 197.21) rotate(-19.29)"/>
      <g>
        <g>
          <polygon class="cls-24" points="531.16 318.47 531.3 314.85 532.14 312.73 532.67 314.48 531.16 318.47"/>
          <path class="cls-26" d="M569.14,319.16l.14-3.55s-3,3-3,3.07,2.86.48,2.86.48h0Z"/>
          <g>
            <path class="cls-26" d="M549.88,329.69c-10.49-.25-18.81-5.58-18.59-14.84s8.9-16.56,19.39-16.31,18.81,7.96,18.59,17.22-8.9,14.18-19.39,13.93Z"/>
            <ellipse class="cls-26" cx="550.13" cy="318.91" rx="16.77" ry="18.99" transform="translate(218.16 861.26) rotate(-88.63)"/>
            <path class="cls-24" d="M536.89,306.84c-3.44,2.94-5.63,7.04-5.74,11.62-.22,9.26,8.1,16.97,18.59,17.22,5.19.12,9.93-1.6,13.43-4.5l-26.28-24.34Z"/>
            <ellipse class="cls-15" cx="550.13" cy="318.91" rx="16.02" ry="18.15" transform="translate(218.16 861.26) rotate(-88.63)"/>
            <ellipse class="cls-10" cx="550.13" cy="318.91" rx="12.86" ry="14.57" transform="translate(218.16 861.26) rotate(-88.63)"/>
            <path class="cls-26" d="M564.71,319.27c0-.29,0-.59-.02-.88-.67,6.68-7.1,11.82-14.81,11.63-7.71-.18-13.89-5.63-14.24-12.33-.03.29-.05.58-.06.87-.17,7.1,6.21,13.01,14.25,13.2s14.7-5.41,14.87-12.51v.02Z"/>
            <g>
              <path class="cls-26" d="M552.94,320l-2.99-2.77c-2.88.65-8.24,1.87-12.52,2.88,1.06,3.2,3.66,5.85,7.05,7.25l8.45-7.36h.01Z"/>
              <path class="cls-26" d="M548.24,328.35c.47.06.96.1,1.45.11,3.52.08,6.73-1.07,9.13-3.01l-4.88-4.52-5.7,7.42Z"/>
              <path class="cls-26" d="M546.75,314.27l-5.63-5.21c-1.89,1.65-3.58,3.48-4.04,5.91l9.67-.7Z"/>
            </g>
            <path class="cls-24" d="M549.69,307.6c8.04.19,14.42,6.1,14.25,13.2-.03,1.44-.34,2.81-.86,4.09.99-1.69,1.58-3.6,1.63-5.63.17-7.1-6.21-13.01-14.25-13.2-6.41-.15-11.94,3.38-14.01,8.41,2.48-4.2,7.51-7.01,13.24-6.88h0Z"/>
          </g>
          <path class="cls-24" d="M531.3,314.85c-.03,1.38-.16,2.37.16,3.66.42-1.36,1.33-5.42,1.33-5.42l1.45-3.23,1.2-.99,2.04-1.49.17-4.66c-3.79,2.97-6.23,7.28-6.34,12.12h0Z"/>
        </g>
        <g>
          <path class="cls-24" d="M568.05,314.37l.08-.95c0-.14.11-.25.24-.24h.07c.13,0,.23.12.23.26l-.08.95c0,.14-.11.25-.24.24h-.07c-.13,0-.23-.12-.23-.25h0Z"/>
          <path class="cls-24" d="M566.38,310.72l.1-1.72c0-.16.13-.28.27-.28h.17c.15,0,.26.14.26.29l-.1,1.72c0,.16-.13.28-.27.28h-.17c-.15,0-.26-.14-.26-.29Z"/>
          <path class="cls-24" d="M564.07,307.53l.1-1.66c0-.18.14-.32.31-.31h.29c.17.01.3.16.29.33l-.1,1.66c0,.18-.14.32-.31.31h-.29c-.17-.01-.3-.16-.29-.33Z"/>
          <path class="cls-24" d="M560.6,304.95l.11-2.02c0-.18.14-.32.31-.31h.29c.17.01.3.16.29.33l-.11,2.02c0,.18-.14.32-.31.31h-.29c-.17-.01-.3-.16-.29-.33Z"/>
          <path class="cls-24" d="M557.12,303.26l.11-2.32c0-.18.14-.32.31-.31h.29c.17.01.3.16.29.33l-.11,2.32c0,.18-.14.32-.31.31h-.29c-.17-.01-.3-.16-.29-.33Z"/>
          <path class="cls-24" d="M553.62,302.23l.11-2.23c0-.18.14-.32.31-.31h.29c.17.01.3.16.29.33l-.11,2.23c0,.18-.14.32-.31.31h-.29c-.17-.01-.3-.16-.29-.33Z"/>
          <path class="cls-24" d="M550.11,301.88l.11-2.27c0-.18.14-.32.31-.31h.29c.17.01.3.16.29.33l-.11,2.27c0,.18-.14.32-.31.31h-.29c-.17-.01-.3-.16-.29-.33Z"/>
          <path class="cls-24" d="M546.58,301.95l.11-2.12c0-.18.14-.32.31-.31h.29c.17.01.3.16.29.33l-.11,2.12c0,.18-.14.32-.31.31h-.29c-.17-.01-.3-.16-.29-.33Z"/>
          <path class="cls-24" d="M543.04,302.73l.11-2.06c0-.18.14-.32.31-.31h.29c.17.01.3.16.29.33l-.11,2.06c0,.18-.14.32-.31.31h-.29c-.17-.01-.3-.16-.29-.33Z"/>
          <path class="cls-24" d="M539.47,304.46l.11-2.23c0-.18.14-.32.31-.31h.29c.17.01.3.16.29.33l-.11,2.22c0,.18-.14.32-.31.31h-.29c-.17-.01-.3-.16-.29-.33h0Z"/>
        </g>
      </g>
      <path class="cls-14" d="M597.62,272.06c1.23,3.52-7.07,9.62-18.54,13.64s-21.76,4.42-22.99.9,7.07-9.62,18.54-13.64c11.47-4.01,21.76-4.42,22.99-.9Z"/>
      <g>
        <g>
          <polygon class="cls-24" points="568.58 259.26 568.72 255.64 569.56 253.52 570.1 255.28 568.58 259.26"/>
          <path class="cls-26" d="M606.56,259.95l.14-3.55s-3,3-3,3.07,2.86.48,2.86.48h0Z"/>
          <g>
            <path class="cls-26" d="M587.31,270.48c-10.49-.25-18.81-5.58-18.59-14.84.22-9.26,8.9-16.56,19.39-16.31s18.81,7.96,18.59,17.22c-.22,9.26-8.9,14.18-19.39,13.93Z"/>
            <ellipse class="cls-26" cx="587.56" cy="259.71" rx="16.77" ry="18.99" transform="translate(313.88 840.88) rotate(-88.63)"/>
            <path class="cls-24" d="M574.31,247.64c-3.44,2.94-5.63,7.04-5.74,11.62-.22,9.26,8.1,16.97,18.59,17.22,5.19.12,9.93-1.6,13.43-4.5l-26.28-24.34h0Z"/>
            <ellipse class="cls-15" cx="587.55" cy="259.71" rx="16.02" ry="18.15" transform="translate(313.87 840.87) rotate(-88.63)"/>
            <ellipse class="cls-10" cx="587.55" cy="259.7" rx="12.86" ry="14.57" transform="translate(313.88 840.87) rotate(-88.63)"/>
            <path class="cls-26" d="M602.13,260.06c0-.29,0-.59-.02-.88-.67,6.68-7.1,11.82-14.81,11.63s-13.89-5.63-14.24-12.33c-.03.29-.05.58-.06.87-.17,7.1,6.21,13.01,14.25,13.2s14.7-5.41,14.87-12.51v.02Z"/>
            <g>
              <path class="cls-26" d="M590.36,260.8l-2.99-2.77c-2.88.65-8.24,1.87-12.52,2.88,1.06,3.2,3.66,5.85,7.05,7.25l8.45-7.36h.01Z"/>
              <path class="cls-26" d="M585.66,269.14c.47.06.96.1,1.45.11,3.52.08,6.73-1.07,9.13-3.01l-4.88-4.52-5.7,7.42Z"/>
              <path class="cls-26" d="M584.17,255.06l-5.63-5.21c-1.89,1.65-3.58,3.48-4.04,5.91l9.67-.7Z"/>
            </g>
            <path class="cls-24" d="M587.11,248.4c8.04.19,14.42,6.1,14.25,13.2-.03,1.44-.34,2.81-.86,4.09.99-1.69,1.58-3.6,1.63-5.63.17-7.1-6.21-13.01-14.25-13.2-6.41-.15-11.94,3.38-14.01,8.41,2.47-4.2,7.51-7.01,13.24-6.88h0Z"/>
          </g>
          <path class="cls-24" d="M568.72,255.64c-.03,1.38-.16,2.37.16,3.66.42-1.36,1.33-5.42,1.33-5.42l1.45-3.23,1.2-.99,2.04-1.49.17-4.66c-3.79,2.97-6.23,7.28-6.34,12.12h0Z"/>
        </g>
        <g>
          <path class="cls-24" d="M605.47,255.17l.08-.95c0-.14.11-.25.24-.24h.07c.13,0,.23.12.23.25l-.08.95c0,.14-.11.25-.24.24h-.07c-.13,0-.23-.12-.23-.25Z"/>
          <path class="cls-24" d="M603.8,251.51l.1-1.71c0-.16.13-.28.27-.28h.17c.15,0,.26.14.26.29l-.1,1.72c0,.16-.13.28-.27.28h-.17c-.15,0-.26-.14-.26-.29h0Z"/>
          <path class="cls-24" d="M601.49,248.32l.1-1.66c0-.18.14-.32.31-.31h.29c.17,0,.3.16.29.33l-.1,1.66c0,.18-.14.32-.31.31h-.29c-.17,0-.3-.16-.29-.33Z"/>
          <path class="cls-24" d="M598.03,245.75l.11-2.01c0-.18.14-.32.31-.31h.29c.17,0,.3.16.29.33l-.11,2.01c0,.18-.14.32-.31.31h-.29c-.17,0-.3-.16-.29-.33Z"/>
          <path class="cls-24" d="M594.54,244.06l.11-2.32c0-.18.14-.32.31-.31h.29c.17,0,.3.16.29.33l-.11,2.32c0,.18-.14.32-.31.31h-.29c-.17,0-.3-.16-.29-.33Z"/>
          <path class="cls-24" d="M591.04,243.03l.11-2.23c0-.18.14-.32.31-.31h.29c.17,0,.3.16.29.33l-.11,2.23c0,.18-.14.32-.31.31h-.29c-.17,0-.3-.16-.29-.33Z"/>
          <path class="cls-24" d="M587.53,242.67l.11-2.27c0-.18.14-.32.31-.31h.29c.17,0,.3.16.29.33l-.11,2.27c0,.18-.14.32-.31.31h-.29c-.17,0-.3-.16-.29-.33Z"/>
          <path class="cls-24" d="M584,242.75l.11-2.12c0-.18.14-.32.31-.31h.29c.17,0,.3.16.29.33l-.11,2.12c0,.18-.14.32-.31.31h-.29c-.17,0-.3-.16-.29-.33Z"/>
          <path class="cls-24" d="M580.46,243.52l.11-2.06c0-.18.14-.32.31-.31h.29c.17,0,.3.16.29.33l-.11,2.06c0,.18-.14.32-.31.31h-.29c-.17,0-.3-.16-.29-.33Z"/>
          <path class="cls-24" d="M576.9,245.25l.11-2.23c0-.18.14-.32.31-.31h.29c.17,0,.3.16.29.33l-.11,2.23c0,.18-.14.32-.31.31h-.29c-.17,0-.3-.16-.29-.33Z"/>
        </g>
      </g>
    </g>
  </g>
</svg>