<svg width="507" height="404" viewBox="0 0 507 404" fill="none" xmlns="http://www.w3.org/2000/svg">
<path d="M192.613 356.741H29.8672V382.096H192.613V356.741Z" fill="#FFCC00"/>
<g style="mix-blend-mode:screen" opacity="0.5">
<path d="M85.6416 356.741H29.8672V382.096H85.6416V356.741Z" fill="#FFCC00"/>
</g>
<g style="mix-blend-mode:multiply" opacity="0.5">
<path d="M192.614 356.741H139.188V382.096H192.614V356.741Z" fill="#FFCC00"/>
</g>
<path d="M186.683 331.457H23.9375V356.812H186.683V331.457Z" fill="#FFCC00"/>
<g style="mix-blend-mode:screen" opacity="0.5">
<path d="M67.1292 331.457H23.9375V356.812H67.1292V331.457Z" fill="#FFCC00"/>
</g>
<g style="mix-blend-mode:multiply" opacity="0.5">
<path d="M186.684 331.457H118.125V356.812H186.684V331.457Z" fill="#FFCC00"/>
</g>
<path d="M204.418 306.006H41.6719V331.362H204.418V306.006Z" fill="#FFCC00"/>
<g style="mix-blend-mode:screen" opacity="0.5">
<path d="M105.297 306.006H41.6719V331.362H105.297V306.006Z" fill="#FFCC00"/>
</g>
<g style="mix-blend-mode:multiply" opacity="0.5">
<path d="M204.416 306.006H158.141V331.362H204.416V306.006Z" fill="#FFCC00"/>
</g>
<path d="M194.316 280.841H31.5703V306.196H194.316V280.841Z" fill="#FFCC00"/>
<g style="mix-blend-mode:screen" opacity="0.5">
<path d="M80.0631 280.841H31.5703V306.196H80.0631V280.841Z" fill="#FFCC00"/>
</g>
<g style="mix-blend-mode:multiply" opacity="0.5">
<path d="M194.318 280.841H128.297V306.196H194.318V280.841Z" fill="#FFCC00"/>
</g>
<g style="mix-blend-mode:multiply" opacity="0.5">
<path d="M186.067 356.741H29.8672V360.524H186.067V356.741Z" fill="#FFCC00"/>
</g>
<g style="mix-blend-mode:multiply" opacity="0.5">
<path d="M194.313 306.196H41.6719V310.121H194.313V306.196Z" fill="#FFCC00"/>
</g>
<path d="M427.946 0H225.151C213.362 0 203.805 9.55729 203.805 21.3468V339.177C203.805 350.967 213.362 360.524 225.151 360.524H427.946C439.736 360.524 449.293 350.967 449.293 339.177V21.3468C449.293 9.55729 439.736 0 427.946 0Z" fill="#F0F1F3"/>
<path d="M425.57 311.9V23.7185L227.519 23.7185L227.519 311.9H425.57Z" fill="white"/>
<path opacity="0.5" d="M249.462 94.2817H238.789V158.322H249.462V94.2817Z" fill="#F3A100"/>
<path opacity="0.5" d="M266.072 82.4224H255.398V158.322H266.072V82.4224Z" fill="#1E2346"/>
<path opacity="0.5" d="M282.666 59.8896H271.992V158.322H282.666V59.8896Z" fill="#F3A100"/>
<path opacity="0.5" d="M299.267 85.9802H288.594V158.322H299.267V85.9802Z" fill="#1E2346"/>
<path opacity="0.5" d="M315.877 113.257H305.203V158.322H315.877V113.257Z" fill="#F3A100"/>
<path opacity="0.5" d="M332.478 80.6436H321.805V158.322H332.478V80.6436Z" fill="#F3A100"/>
<path opacity="0.5" d="M349.08 128.674H338.406V158.322H349.08V128.674Z" fill="#1E2346"/>
<path opacity="0.5" d="M365.689 137.568H355.016V158.322H365.689V137.568Z" fill="#F3A100"/>
<path opacity="0.5" d="M382.283 115.629H371.609V158.322H382.283V115.629Z" fill="#F3A100"/>
<path opacity="0.5" d="M398.892 103.769H388.219V158.322H398.892V103.769Z" fill="#1E2346"/>
<path opacity="0.5" d="M415.494 94.2817H404.82V158.322H415.494V94.2817Z" fill="#F3A100"/>
<path opacity="0.5" d="M404.827 285.217H415.5V221.177H404.827V285.217Z" fill="#F3A100"/>
<path opacity="0.5" d="M388.217 285.217H398.891V209.317H388.217V285.217Z" fill="#1E2346"/>
<path opacity="0.5" d="M371.616 285.217H382.289V186.785H371.616V285.217Z" fill="#F3A100"/>
<path opacity="0.5" d="M355.006 285.217H365.68V212.875H355.006V285.217Z" fill="#1E2346"/>
<path opacity="0.5" d="M338.405 285.217H349.078V240.152H338.405V285.217Z" fill="#F3A100"/>
<path opacity="0.5" d="M321.811 285.217H332.484V207.538H321.811V285.217Z" fill="#F3A100"/>
<path opacity="0.5" d="M305.202 285.217H315.875V255.569H305.202V285.217Z" fill="#1E2346"/>
<path opacity="0.5" d="M288.6 285.217H299.273V264.463H288.6V285.217Z" fill="#F3A100"/>
<path opacity="0.5" d="M271.998 285.217H282.672V242.523H271.998V285.217Z" fill="#F3A100"/>
<path opacity="0.5" d="M255.389 285.217H266.062V230.664H255.389V285.217Z" fill="#1E2346"/>
<path opacity="0.5" d="M238.788 285.217H249.461V221.177H238.788V285.217Z" fill="#F3A100"/>
<path d="M326.546 345.7C333.423 345.7 338.998 340.125 338.998 333.247C338.998 326.37 333.423 320.795 326.546 320.795C319.669 320.795 314.094 326.37 314.094 333.247C314.094 340.125 319.669 345.7 326.546 345.7Z" fill="white"/>
<path d="M487.592 145.111H248.805V268.353H487.592V145.111Z" fill="#6CACAC"/>
<path d="M454.704 254.869H281.676V252.948C281.676 241.266 273.137 231.767 262.642 231.767H260.898V181.697H262.63C273.125 181.697 281.664 172.21 281.664 160.516V158.595H454.692V160.516C454.692 172.198 463.231 181.697 473.726 181.697H475.458V231.767H473.726C463.231 231.767 454.692 241.255 454.692 252.948L454.704 254.869ZM285.115 251.027H451.312C452.154 238.752 460.989 228.921 472.007 227.984V185.48C460.989 184.543 452.154 174.712 451.312 162.437H285.068C284.226 174.712 275.402 184.543 264.373 185.48V227.984C275.402 228.885 284.226 238.752 285.068 251.027H285.115Z" fill="#5A9997"/>
<path d="M391.352 185.492H385.244C384.558 183.793 383.64 182.196 382.516 180.748H388.802L394.127 172.945L391.352 170.775H348.504L343.191 178.578L345.966 180.689H366.732C368.787 180.682 370.808 181.204 372.602 182.207C373.554 183.158 374.336 184.265 374.915 185.48H347.555L342.242 193.307L345.017 195.418H375.199C374.279 197.643 372.72 199.545 370.719 200.884C368.718 202.222 366.364 202.937 363.957 202.937H343.677V211.867L359.996 240.579L362.771 242.69H373.978L357.375 212.852H366.862C371.686 212.805 376.33 211.014 379.935 207.809C383.541 204.604 385.865 200.203 386.478 195.418H388.778L394.103 187.627L391.352 185.492Z" fill="#5A9997"/>
<path d="M379.765 178.59H386.051L391.352 170.775H348.504L343.191 178.578H363.957C366.248 178.577 368.493 179.225 370.433 180.447C372.372 181.668 373.926 183.413 374.915 185.48H347.555L342.242 193.307H375.852C375.274 196.027 373.782 198.466 371.624 200.218C369.466 201.97 366.772 202.93 363.992 202.937H343.677V211.867L359.996 240.579H371.191L354.588 210.729H364.075C368.908 210.699 373.566 208.917 377.184 205.713C380.803 202.509 383.135 198.101 383.75 193.307H386.051L391.375 185.504H383.204C382.519 182.997 381.351 180.649 379.765 178.59Z" fill="#A2C2C0"/>
<path d="M482.53 138.766H243.742V262.008H482.53V138.766Z" fill="#7BC3C3"/>
<path d="M449.668 248.524H276.628V246.603C276.628 234.921 268.09 225.422 257.653 225.422H255.922V175.352H257.653C268.149 175.352 276.628 165.865 276.628 154.171V152.25H449.668V154.171C449.668 165.853 458.207 175.352 468.702 175.352H470.434V225.422H468.702C458.207 225.422 449.668 234.91 449.668 246.603V248.524ZM280.079 244.682H446.276C447.118 232.407 455.941 222.576 466.971 221.639V179.135C455.941 178.198 447.118 168.367 446.276 156.092H280.032C279.19 168.367 270.355 178.198 259.325 179.135V221.639C270.39 222.576 279.19 232.443 280.032 244.682H280.079Z" fill="#68B0AE"/>
<path d="M386.321 179.147H380.213C379.531 177.446 378.613 175.849 377.486 174.403H383.783L389.096 166.6L386.321 164.489H343.461L338.136 172.292L340.911 174.403H361.701C363.755 174.399 365.776 174.922 367.571 175.921C368.516 176.879 369.297 177.984 369.884 179.195H342.5L337.188 186.998L339.963 189.109H370.145C369.227 191.333 367.67 193.235 365.67 194.573C363.671 195.912 361.32 196.627 358.914 196.628H338.623V205.558L354.941 234.222L357.716 236.333H368.911L352.308 206.495H361.796C366.62 206.45 371.265 204.66 374.871 201.455C378.477 198.25 380.801 193.847 381.411 189.062H383.724L389.037 181.27L386.321 179.147Z" fill="#68B0AE"/>
<path d="M374.746 172.245H381.043L386.356 164.442H343.461L338.136 172.245H358.914C361.205 172.247 363.449 172.896 365.387 174.117C367.326 175.338 368.88 177.082 369.872 179.147H342.5L337.188 186.951H370.809C370.229 189.669 368.736 192.107 366.579 193.859C364.421 195.611 361.729 196.571 358.949 196.58H338.623V205.511L354.941 234.222H366.136L349.533 204.372H359.021C363.844 204.331 368.489 202.543 372.095 199.34C375.702 196.137 378.025 191.735 378.636 186.951H380.948L386.261 179.147H378.09C377.437 176.65 376.301 174.305 374.746 172.245Z" fill="#B5D9D7"/>
<path d="M474.194 131.923H235.406V255.165H474.194V131.923Z" fill="#86D4D4"/>
<path d="M441.32 241.682H268.292V239.761C268.292 228.079 259.754 218.58 249.317 218.58H247.586V168.51H249.317C259.813 168.51 268.292 159.022 268.292 147.329V145.396H441.32V147.329C441.32 158.998 449.859 168.51 460.354 168.51H462.086V218.58H460.354C449.859 218.58 441.32 228.067 441.32 239.761V241.682ZM271.732 237.827H437.928C438.77 225.565 447.606 215.733 458.623 214.797V172.281C447.606 171.344 438.77 161.524 437.928 149.25H271.684C270.842 161.524 262.007 171.344 250.99 172.281V214.797C262.007 215.733 270.842 225.565 271.684 237.827H271.732Z" fill="#72C1BF"/>
<path d="M377.981 172.304H371.873C371.184 170.606 370.266 169.01 369.146 167.56H375.431L380.756 159.769L377.981 157.658H335.11L329.797 165.45L332.572 167.56H353.397C355.45 167.556 357.47 168.075 359.267 169.067C360.234 170.023 361.036 171.133 361.639 172.352H334.161L328.836 180.155L331.611 182.266H361.805C360.882 184.489 359.323 186.389 357.322 187.727C355.321 189.066 352.969 189.781 350.562 189.785H330.283V198.715L346.601 227.415L349.376 229.537H360.583L343.98 199.687H353.468C358.29 199.643 362.934 197.855 366.54 194.652C370.146 191.45 372.47 187.05 373.083 182.266H375.384L380.709 174.463L377.981 172.304Z" fill="#72C1BF"/>
<path d="M366.371 165.39H372.656L377.981 157.599H335.11L329.797 165.39H350.562C352.855 165.392 355.1 166.042 357.039 167.266C358.978 168.489 360.532 170.236 361.52 172.304H334.161L328.836 180.108H362.457C361.88 182.827 360.387 185.266 358.229 187.018C356.071 188.771 353.378 189.73 350.598 189.737H330.318V198.668L346.637 227.367H357.844L341.241 197.529H350.728C355.55 197.483 360.192 195.693 363.798 192.491C367.403 189.289 369.728 184.89 370.344 180.108H372.644L377.969 172.304H369.798C369.111 169.8 367.948 167.453 366.371 165.39Z" fill="#C3EAE8"/>
<g opacity="0.5">
<path d="M79.339 151.978L73.1484 146.439L163.161 45.9788L219.967 103.319L328.255 5.75195L369.798 65.1079L405.886 33.5147L411.365 39.7645L368.304 77.4535L326.832 18.2043L219.635 114.775L163.457 58.0872L79.339 151.978Z" fill="#1E2346"/>
<path d="M416.795 54.2448L428.796 18.9751L392.258 26.2093L416.795 54.2448Z" fill="#1E2346"/>
</g>
<path d="M410.158 391.335C450.282 391.335 482.808 358.808 482.808 318.684C482.808 278.561 450.282 246.034 410.158 246.034C370.034 246.034 337.508 278.561 337.508 318.684C337.508 358.808 370.034 391.335 410.158 391.335Z" fill="#FFCC00"/>
<path d="M410.165 374.435C440.955 374.435 465.916 349.474 465.916 318.684C465.916 287.894 440.955 262.933 410.165 262.933C379.374 262.933 354.414 287.894 354.414 318.684C354.414 349.474 379.374 374.435 410.165 374.435Z" fill="#D68900"/>
<path d="M410.163 372.324C439.788 372.324 463.803 348.308 463.803 318.684C463.803 289.06 439.788 265.044 410.163 265.044C380.539 265.044 356.523 289.06 356.523 318.684C356.523 348.308 380.539 372.324 410.163 372.324Z" fill="#F3A100"/>
<path d="M436.331 297.183H429.833C429.101 295.353 428.119 293.633 426.915 292.072H433.628L439.284 283.77L436.331 281.517H390.661L385.004 289.818L387.957 292.072H410.087C411.91 291.751 413.787 292.09 415.384 293.026C416.981 293.962 418.193 295.436 418.803 297.183H389.653L383.984 305.485L386.937 307.738H419.1C418.119 310.107 416.458 312.133 414.325 313.558C412.193 314.983 409.686 315.743 407.122 315.743H385.514V325.23L402.912 355.816L405.865 358.069H417.795L400.125 326.274H410.324C415.46 326.226 420.405 324.32 424.245 320.908C428.084 317.496 430.558 312.809 431.208 307.714H433.675L439.332 299.413L436.331 297.183Z" fill="#D68900"/>
<path d="M423.962 289.818H430.663L436.331 281.517H390.661L385.004 289.818H407.122C409.566 289.817 411.96 290.509 414.027 291.812C416.095 293.115 417.751 294.978 418.803 297.183H389.653L383.984 305.485H419.811C419.192 308.388 417.595 310.99 415.288 312.857C412.98 314.724 410.102 315.743 407.134 315.743H385.514V325.23L402.912 355.816H414.83L397.16 324.021H407.312C412.448 323.971 417.394 322.065 421.235 318.653C425.076 315.242 427.552 310.556 428.208 305.461H430.663L436.331 297.159H427.627C426.896 294.497 425.651 292.003 423.962 289.818Z" fill="#FFCC00"/>
<path d="M317.261 319.609H208.547V384.041H317.261V319.609Z" fill="#F9A91C"/>
<path d="M289.494 212.128C286.093 210.834 282.406 210.478 278.82 211.096L285.343 194.493L292.909 198.347L289.494 212.128Z" fill="#141930"/>
<path d="M285.266 203.234C288.581 203.234 291.267 200.547 291.267 197.233C291.267 193.919 288.581 191.232 285.266 191.232C281.952 191.232 279.266 193.919 279.266 197.233C279.266 200.547 281.952 203.234 285.266 203.234Z" fill="#E6976D"/>
<path d="M264.145 191.09C264.145 191.09 262.212 201.016 260.291 203.234C258.369 205.451 255.689 207.538 257.172 209.91C258.654 212.282 262.069 212.851 264.88 212.425C267.691 211.998 270.964 211.239 272.885 212.128C274.806 213.017 273.478 200.565 273.478 200.565L269.624 187.674C269.624 187.674 263.552 190.935 264.145 191.09Z" fill="#141930"/>
<path d="M214.278 270.393C209.787 272.386 205.152 274.039 200.414 275.338C202.983 277.076 206.045 277.937 209.144 277.794C212.242 277.651 215.212 276.511 217.61 274.544L214.278 270.393Z" fill="#E6976D"/>
<path d="M258.754 220.785C258.754 220.785 248.875 253.992 214.281 270.393L217.246 276.524C217.246 276.524 240.965 272.966 266.071 240.745L258.754 220.785Z" fill="#E59303"/>
<path d="M203.66 362.742C203.66 362.742 196.983 372.68 190.164 375.348C190.164 375.348 197.576 375.941 201.727 372.087C205.878 368.233 203.66 362.742 203.66 362.742Z" fill="#E6976D"/>
<path d="M223.523 317.463C223.523 317.463 244.775 364.449 245.902 373.391C247.029 382.333 238.786 395.39 238.786 395.39H242.522L254.82 380.104L241.028 322.313L253.338 320.819L247.017 304.785L223.903 304.417L223.523 317.463Z" fill="#E37463"/>
<path d="M224.861 286.142C224.861 286.142 214.793 283.913 212.563 292.855C210.333 301.796 199.672 372.312 199.672 372.312L209.373 369.703L225.774 307.43L253.051 308.556C253.051 308.556 239.401 290.993 224.861 286.142Z" fill="#E6976D"/>
<path d="M209.37 369.667C209.37 369.667 210.852 374.138 208.184 377.495C205.515 380.851 201.282 386.022 201.282 386.022L200.155 384.16L202.598 377.127L187.418 378.989L178.844 374.138C185.821 374.884 192.876 374.251 199.609 372.277L209.37 369.667Z" fill="#42528E"/>
<path d="M242.557 395.39L254.855 380.104C257.843 383.662 257.096 386.947 257.096 386.947L256.598 399.66H254.357L253.372 388.725L243.672 398.415H233.484L238.821 395.426L242.557 395.39Z" fill="#42528E"/>
<path d="M284.477 217.026L295.293 221.769C296.568 222.331 297.6 223.332 298.201 224.59C298.802 225.847 298.931 227.279 298.566 228.624C296.479 236.321 293.692 256.446 296.514 275.812H261.849C261.849 275.812 256.88 245.203 257.343 223.287C257.372 221.953 257.859 220.67 258.723 219.652C259.587 218.635 260.775 217.946 262.087 217.702L271.669 215.994L284.477 217.026Z" fill="#F9A91C"/>
<path d="M289.678 224.142C289.37 228.292 283.416 231.257 276.372 230.7C269.327 230.142 263.86 226.395 264.169 222.256C264.477 218.117 270.442 215.14 277.487 215.698C284.531 216.255 289.986 220.003 289.678 224.142Z" fill="#E37463"/>
<path d="M283.159 203.043C283.159 203.043 283.337 212.14 284.795 217.607C280.054 218.587 275.163 218.587 270.422 217.607C270.422 217.607 273.517 214.511 274.063 204.87L283.159 203.043Z" fill="#E37463"/>
<path d="M260.303 228.197L252.844 242.571C252.844 242.571 255.216 250.398 265.403 249.485L275.958 242.571L260.303 228.197Z" fill="#F9A91C"/>
<path d="M296.472 275.789C296.472 275.789 301.726 289.961 302.011 299.104C302.295 307.856 299.757 318.85 279.917 320.356C261.262 321.767 258.297 322.242 244.007 322.242C244.007 322.242 240.057 293.649 230.273 285.751C230.273 285.751 245.038 281.007 261.867 275.789H296.472Z" fill="#42528E"/>
<path d="M298.322 225.055C297.869 224.736 297.393 224.45 296.899 224.201C292.072 221.829 287.008 229.514 287.008 229.514C287.008 229.514 279.3 245.405 259.625 259.542C260.254 264.89 260.882 269.373 261.309 272.267C270.998 268.14 282.027 261.783 290.957 252.106C292.807 250.113 294.361 248.263 295.701 246.544C296.125 240.492 297.054 234.486 298.476 228.589C298.799 227.424 298.745 226.187 298.322 225.055Z" fill="#D68505"/>
<path d="M287.799 227.699C287.799 227.699 272.749 255.96 233.945 269.112L236.709 275.635C236.709 275.635 269.12 272.267 290.965 250.433C310.533 230.866 300.369 224.106 297.879 222.754C293.135 220.192 287.799 227.699 287.799 227.699Z" fill="#F3A100"/>
<path d="M233.954 269.112L219.391 274.544L222.154 281.268C222.154 281.268 229.471 282.454 236.682 275.635L233.954 269.112Z" fill="#E6976D"/>
<g style="mix-blend-mode:multiply" opacity="0.4">
<path d="M283.719 211.31C283.612 210.302 283.517 209.317 283.446 208.392L274.149 204.834H274.066C273.686 211.416 272.132 214.95 271.172 216.528C275.848 216.364 280.306 214.51 283.719 211.31Z" fill="#E37463"/>
</g>
<path d="M265.641 187.224H284.971V203.827C284.971 206.261 284.004 208.596 282.283 210.317C280.561 212.039 278.227 213.006 275.792 213.006H274.855C272.421 213.006 270.086 212.039 268.365 210.317C266.643 208.596 265.676 206.261 265.676 203.827V187.224H265.641Z" fill="#E6976D"/>
<path d="M280.165 187.674C280.165 187.674 280.307 193.758 284.315 197.458C284.315 197.458 285.94 193.165 288.016 195.975C290.091 198.786 288.17 201.751 284.754 202.202C284.754 202.202 283.723 210.052 286.984 213.468C290.245 216.883 290.245 210.645 294.538 211.238C298.831 211.831 301.654 210.645 299.282 206.791C296.91 202.937 292.914 193.165 292.463 188.421C292.012 183.677 290.554 176.111 285.205 177.89C284.939 176.459 284.189 175.164 283.082 174.22C281.974 173.277 280.576 172.743 279.121 172.707C273.784 172.411 270.084 177.451 265.934 176.704C261.783 175.957 257.632 177.593 257.039 182.634C256.304 188.836 258.521 193.307 266.23 192.275C266.23 192.275 277.639 190.496 280.165 187.674Z" fill="#1E2346"/>
<path d="M326.157 282.75H158.039V289.142H326.157V282.75Z" fill="#1A427D"/>
<path d="M328.089 285.288H156.117V286.605H328.089V285.288Z" fill="#A9BFF8"/>
<path d="M140.985 279.715C189.617 279.715 229.041 240.291 229.041 191.659C229.041 143.027 189.617 103.604 140.985 103.604C92.3535 103.604 52.9297 143.027 52.9297 191.659C52.9297 240.291 92.3535 279.715 140.985 279.715Z" fill="#FFCC00"/>
<path d="M206.922 206.341C215.038 169.913 192.087 133.804 155.66 125.688C119.232 117.573 83.1231 140.524 75.0074 176.951C66.8916 213.378 89.8426 249.487 126.27 257.603C162.697 265.719 198.806 242.768 206.922 206.341Z" fill="#D68900"/>
<path d="M204.316 206.244C212.374 171.255 190.543 136.357 155.553 128.298C120.563 120.24 85.6659 142.071 77.6072 177.061C69.5485 212.051 91.3803 246.948 126.37 255.007C161.359 263.066 196.257 241.234 204.316 206.244Z" fill="#F3A100"/>
<path d="M172.697 165.604H164.835C163.942 163.385 162.745 161.301 161.277 159.413H169.401L176.267 149.345L172.709 146.617H117.397L110.531 156.686L114.089 159.413H140.879C143.534 159.411 146.146 160.084 148.469 161.37C149.687 162.608 150.693 164.038 151.446 165.604H116.117L109.25 175.684L112.808 178.412H151.789C150.599 181.282 148.585 183.735 146.001 185.462C143.418 187.188 140.381 188.111 137.274 188.113H111.112V199.652L132.198 236.712L135.756 239.44H150.212L128.794 200.909H141.116C147.35 200.852 153.351 198.538 158.009 194.395C162.667 190.252 165.665 184.561 166.448 178.376H169.424L176.291 168.308L172.697 165.604Z" fill="#D68900"/>
<path d="M157.719 156.686H165.843L172.709 146.617H117.397L110.531 156.686H137.357C140.316 156.686 143.215 157.524 145.718 159.102C148.221 160.68 150.228 162.934 151.505 165.604H116.117L109.25 175.684H152.667C151.911 179.209 149.967 182.367 147.161 184.63C144.354 186.893 140.855 188.122 137.25 188.113H111.112V199.652L132.198 236.712H146.654L125.236 198.181H137.558C143.791 198.122 149.791 195.807 154.449 191.664C159.106 187.522 162.104 181.832 162.89 175.649H165.866L172.733 165.568H162.178C161.287 162.344 159.772 159.327 157.719 156.686Z" fill="#FFCC00"/>
<path d="M323.53 289.143H161.805V292.155H323.53V289.143Z" fill="#102F54"/>
<path d="M151.649 403.751H146.289L166.035 292.155H174.218L151.649 403.751Z" fill="#E6976D"/>
<path d="M330.303 403.751H335.663L315.917 292.155H307.734L330.303 403.751Z" fill="#E6976D"/>
<path d="M226.272 279.797H171.423L161.805 244.089H216.654L226.272 279.797Z" fill="#F0F1F5"/>
<path d="M226.391 279.797H224.766L215.148 244.089L216.785 245.785L226.391 279.797Z" fill="#CBCED8"/>
<path d="M249.397 279.797H171.422V282.75H249.397V279.797Z" fill="#CBCED8"/>
<path d="M195.03 262.376C195.6 265.483 193.844 268.412 191.212 268.91C188.579 269.409 185.887 267.286 185.282 264.167C184.677 261.048 186.468 258.13 189.101 257.632C191.733 257.134 194.485 259.269 195.03 262.376Z" fill="#CBCED8"/>
<path d="M47.7482 392.781H16.2498L12.3125 353.586H51.6736L47.7482 392.781Z" fill="#F0F1F3"/>
<path d="M51.6736 353.586C51.6736 351.416 42.8622 349.649 31.999 349.649C21.1358 349.649 12.3125 351.416 12.3125 353.586C12.3125 355.756 21.124 357.524 31.999 357.524C42.874 357.524 51.6736 355.78 51.6736 353.586Z" fill="#F0F1F3"/>
<path d="M49.289 353.586C49.289 351.677 41.5449 350.123 31.9981 350.123C22.4513 350.123 14.6953 351.677 14.6953 353.586C14.6953 355.495 22.4395 357.037 31.9981 357.037C41.5567 357.037 49.289 355.495 49.289 353.586Z" fill="#1E2346"/>
<path d="M47.7365 392.651C47.7365 390.481 40.6921 388.725 31.9992 388.725C23.3063 388.725 16.25 390.481 16.25 392.651C16.25 394.821 23.2944 396.588 31.9992 396.588C40.704 396.588 47.7365 394.833 47.7365 392.651Z" fill="#F0F1F3"/>
<path d="M50.8663 340.019C50.8831 338.45 50.406 336.915 49.5025 335.631C48.8147 334.445 48.3166 333.402 49.0637 332.263C49.6675 331.572 50.3956 331.001 51.2102 330.579C52.2861 329.93 53.3988 329.344 54.5427 328.824C57.1527 327.696 59.6045 326.233 61.8362 324.472C62.7611 323.707 63.5614 322.802 64.2081 321.791C64.7195 321.01 65.0963 320.148 65.3229 319.242C65.6357 317.678 65.8181 316.092 65.8684 314.498C66.0286 313.649 66.5191 312.898 67.2322 312.411C68.1797 311.723 69.1834 311.116 70.2326 310.596C71.4186 310.039 72.6045 309.541 73.7904 308.983C74.8806 308.516 75.9248 307.948 76.9094 307.287C77.3784 306.945 77.7804 306.518 78.0954 306.03C78.4151 305.563 78.6742 305.057 78.8662 304.524C79.23 303.447 79.4494 302.326 79.5185 301.192C79.62 300.219 79.4294 299.238 78.971 298.374C78.5127 297.51 77.8073 296.803 76.945 296.341C75.9024 295.79 74.7767 295.414 73.6125 295.226C72.9832 295.137 72.3444 295.137 71.715 295.226C71.0722 295.321 70.4505 295.526 69.8768 295.831C68.6679 296.492 67.5515 297.31 66.5562 298.262C65.477 299.282 64.386 300.362 63.3779 301.405C62.5028 302.392 61.5511 303.308 60.5317 304.145C59.8373 304.799 58.9524 305.214 58.0056 305.331C56.2238 305.198 54.4322 305.338 52.6927 305.746C51.6105 306.057 50.5826 306.533 49.6448 307.157C48.4282 308.004 47.3484 309.031 46.4428 310.205C44.4176 312.958 42.9916 316.105 42.2564 319.443C41.8414 320.949 41.5567 322.408 41.2721 323.618C41.0714 324.615 40.7279 325.577 40.2522 326.476C39.4695 327.816 38.2717 327.816 36.8249 327.828C35.101 327.651 33.3757 328.149 32.01 329.215C31.2849 329.913 30.8596 330.866 30.824 331.872C30.7481 333.331 30.8316 334.795 31.0731 336.236C31.2628 337.908 31.6661 339.794 32.0456 341.893C32.4251 343.992 32.8401 346.174 33.1366 348.499C33.1655 348.851 33.2953 349.188 33.5106 349.468C33.7259 349.748 34.0175 349.961 34.3504 350.08C34.6834 350.199 35.0435 350.219 35.3877 350.138C35.732 350.058 36.0457 349.88 36.2912 349.625C37.8821 348.19 39.6283 346.937 41.4974 345.89C43.0092 345.012 44.5692 344.22 46.17 343.518C47.3266 343.031 48.448 342.464 49.5262 341.822C49.8757 341.648 50.1793 341.394 50.4122 341.081C50.6451 340.768 50.8007 340.404 50.8663 340.019Z" fill="#26377C"/>
<path d="M33.0078 354.393C32.9501 354.373 32.8969 354.342 32.8517 354.301C32.8064 354.26 32.7699 354.21 32.7444 354.155C32.7189 354.099 32.7049 354.039 32.7033 353.978C32.7017 353.917 32.7125 353.856 32.7351 353.8L33.6126 351.025C33.8735 350.135 34.2649 349.08 34.7274 347.87C35.1899 346.66 35.6762 345.285 36.3403 343.838C39.4084 336.675 43.3691 329.929 48.1285 323.76C52.8404 317.547 58.333 311.967 64.4706 307.157C66.9492 305.153 69.2144 303.706 70.6849 302.627L73.1635 301.085C73.2139 301.049 73.2709 301.024 73.3312 301.01C73.3915 300.997 73.4539 300.995 73.5147 301.006C73.5755 301.018 73.6335 301.041 73.6852 301.075C73.7369 301.108 73.7813 301.152 73.8158 301.203C73.8713 301.312 73.8826 301.439 73.8472 301.556C73.8119 301.673 73.7326 301.772 73.6261 301.832L71.1593 303.397C69.665 304.465 67.4592 305.9 65.0043 307.88C58.9277 312.64 53.4837 318.155 48.8045 324.294C44.0929 330.405 40.172 337.088 37.1349 344.182C36.4707 345.617 35.9489 346.969 35.5339 348.166C35.1188 349.364 34.6918 350.42 34.4309 351.297L33.5533 354.049C33.5251 354.166 33.4523 354.267 33.3504 354.331C33.2485 354.396 33.1256 354.418 33.0078 354.393Z" fill="white"/>
<path d="M37.6103 332.832C36.5352 331.559 35.0008 330.762 33.341 330.615C31.9534 330.342 30.8149 330.128 30.4236 328.8C30.1987 327.909 30.1186 326.988 30.1864 326.072C30.1864 324.886 30.3406 323.594 30.3169 322.159C30.4609 319.047 29.8888 315.943 28.6447 313.086C28.067 311.873 27.2938 310.763 26.3558 309.801C25.6104 309.086 24.7532 308.497 23.8179 308.058C22.2614 307.436 20.6164 307.064 18.9438 306.955C18.1017 306.749 17.3637 306.243 16.8684 305.532C16.1112 304.625 15.4365 303.653 14.8523 302.626C14.1526 301.524 13.3817 300.385 12.6109 299.294C12.2397 298.761 11.8231 298.261 11.3656 297.8C10.9638 297.37 10.5275 296.973 10.0611 296.614C9.59328 296.254 9.06238 295.984 8.49568 295.819C7.92532 295.682 7.33839 295.626 6.75235 295.653C5.6288 295.712 4.52274 295.956 3.47918 296.377C2.59237 296.752 1.81984 297.354 1.23909 298.122C0.658343 298.89 0.289794 299.797 0.170422 300.753C-0.00564025 301.815 -0.0454932 302.895 0.0518285 303.967C0.100132 304.479 0.219886 304.982 0.407609 305.461C0.577649 305.931 0.839711 306.362 1.17847 306.73C1.5121 307.079 1.87735 307.397 2.26952 307.679L3.59777 308.604C4.49908 309.232 5.53084 309.789 6.45587 310.442C7.28946 311.02 8.06053 311.684 8.75658 312.422C9.0224 312.689 9.22531 313.011 9.35047 313.366C9.47564 313.721 9.51989 314.1 9.48 314.474C9.12898 315.92 8.89107 317.391 8.76844 318.874C8.74126 319.68 8.86597 320.485 9.13608 321.246C9.45343 322.203 9.93499 323.098 10.5592 323.89C12.2089 325.729 14.1093 327.325 16.2042 328.634C17.1464 329.249 18.0495 329.923 18.9082 330.65C19.5541 331.133 20.0949 331.742 20.4973 332.441C20.9361 333.556 20.1415 334.374 19.1691 335.287C18.0018 336.197 17.1343 337.437 16.6786 338.845C16.5244 339.462 16.8447 340.031 17.4969 340.624C18.3263 341.395 19.2145 342.101 20.1534 342.735C21.4755 343.619 22.7465 344.577 23.9603 345.605C25.4372 346.848 26.7627 348.261 27.9094 349.815C28.1063 350.089 28.3708 350.308 28.6774 350.45C28.984 350.592 29.3221 350.652 29.6588 350.625C29.9955 350.597 30.3194 350.483 30.5989 350.294C30.8784 350.104 31.104 349.845 31.2537 349.542C32.1432 347.609 33.1868 345.759 34.0525 344.039C34.9183 342.32 35.8789 340.719 36.5193 339.296C37.1343 338.059 37.6115 336.758 37.9424 335.418C38.07 334.987 38.1063 334.535 38.0491 334.09C37.992 333.645 37.8425 333.216 37.6103 332.832Z" fill="#86D4D4"/>
<path d="M29.8805 354.594C29.7649 354.594 29.6538 354.55 29.5699 354.471C29.486 354.391 29.4359 354.283 29.4298 354.167L29.3349 351.629C29.3349 350.823 29.2401 349.839 29.1215 348.724C29.0029 347.609 28.9199 346.352 28.6708 344.965C27.6615 338.258 25.6925 331.732 22.8242 325.586C21.3096 322.299 19.5535 319.127 17.5705 316.099C15.8268 313.459 13.9175 310.932 11.8543 308.533C10.0635 306.41 8.36763 304.844 7.24099 303.682L5.3435 301.986C5.26933 301.906 5.22765 301.801 5.22658 301.692C5.22552 301.583 5.26514 301.478 5.33773 301.396C5.41031 301.315 5.51065 301.263 5.61916 301.252C5.72767 301.24 5.83657 301.27 5.92461 301.334L7.84582 303.042C9.03175 304.228 10.7039 305.817 12.5184 307.963C14.6107 310.372 16.5477 312.911 18.3176 315.565C20.3288 318.63 22.1087 321.841 23.6425 325.171C26.5495 331.396 28.5465 338.006 29.5721 344.799C29.8212 346.174 29.916 347.455 30.0346 348.594C30.1532 349.732 30.2362 350.716 30.2481 351.535C30.3074 353.171 30.343 354.108 30.343 354.108C30.35 354.172 30.3431 354.236 30.3227 354.297C30.3022 354.357 30.2688 354.412 30.2248 354.459C30.1807 354.505 30.1271 354.541 30.0676 354.565C30.0081 354.588 29.9443 354.598 29.8805 354.594Z" fill="white"/>
<path d="M41.1414 329.951C40.51 328.372 39.3928 327.034 37.9513 326.132C36.7654 325.266 35.8522 324.507 36.0538 322.894C36.2872 321.864 36.6878 320.878 37.2397 319.977C37.9241 318.704 38.6763 317.469 39.493 316.277C41.3883 313.575 42.9792 310.671 44.2367 307.619C44.6711 306.317 44.9498 304.967 45.0669 303.599C45.1989 302.525 45.1669 301.438 44.972 300.373C44.5914 298.642 44.0718 296.945 43.4184 295.298C43.1887 294.33 43.3106 293.313 43.7624 292.428C44.3298 291.19 44.9961 290 45.7547 288.87C46.5849 287.684 47.5574 286.379 48.3875 285.134L49.5734 283.32C49.9397 282.767 50.2647 282.188 50.5459 281.588C50.8209 280.983 51.0009 280.339 51.0796 279.679C51.1566 279.049 51.1566 278.411 51.0796 277.781C50.9559 276.56 50.6605 275.362 50.202 274.224C49.8834 273.278 49.251 272.469 48.4098 271.932C47.5685 271.395 46.569 271.162 45.5768 271.271C44.3194 271.392 43.0898 271.717 41.936 272.231C41.3002 272.52 40.7027 272.886 40.1571 273.322C39.6004 273.803 39.117 274.362 38.7221 274.983C38.3235 275.615 37.967 276.272 37.6548 276.951C37.2986 277.688 36.9935 278.449 36.7416 279.228C36.1961 280.829 35.6743 282.489 35.2118 284.079C34.8523 285.537 34.3886 286.968 33.8242 288.36C33.4942 289.382 32.8716 290.285 32.0335 290.957C30.3253 291.882 28.7562 293.044 27.3728 294.408C26.5224 295.34 25.8005 296.381 25.2262 297.503C24.5105 299.012 23.9923 300.606 23.6845 302.247C23.0998 306.041 23.2285 309.91 24.064 313.656C24.3605 315.387 24.7637 316.976 25.0483 318.4C25.3159 319.518 25.4394 320.666 25.416 321.815C25.3211 323.594 24.23 324.187 22.9729 325.017C21.2786 325.844 19.9637 327.286 19.2966 329.049C18.9932 330.127 19.06 331.275 19.4863 332.311C20.0849 333.806 20.8276 335.24 21.704 336.592C22.6409 338.181 23.8861 339.936 25.1551 341.845C26.424 343.755 27.8471 345.83 29.1754 348.095C29.3244 348.441 29.5813 348.729 29.9078 348.917C30.2343 349.105 30.6127 349.182 30.9865 349.136C31.3603 349.091 31.7094 348.926 31.9815 348.665C32.2536 348.405 32.4341 348.064 32.496 347.692C33.2246 345.423 34.1822 343.233 35.3541 341.158C36.2931 339.473 37.3183 337.839 38.4257 336.26C39.2461 335.126 39.9871 333.938 40.6434 332.702C40.9137 332.303 41.0977 331.853 41.1835 331.379C41.2693 330.905 41.255 330.419 41.1414 329.951Z" fill="#F3CE87"/>
<path d="M31.8732 354.25C31.636 354.25 31.3989 354.072 31.3514 353.764L30.8296 350.443C30.7585 349.91 30.6399 349.329 30.5687 348.688C30.4976 348.048 30.4264 347.348 30.3552 346.613C30.2011 345.13 29.9995 343.458 29.9283 341.62C29.3565 332.657 29.8381 323.657 31.3633 314.806C32.1716 310.081 33.2606 305.408 34.6246 300.812C36.0121 296.436 37.4471 292.404 38.9058 289.036C40.3645 285.668 41.7402 282.928 42.6534 280.995L44.2781 278.042C44.3305 277.921 44.4277 277.825 44.5493 277.774C44.6709 277.723 44.8075 277.722 44.9304 277.769C45.0371 277.848 45.1092 277.965 45.1313 278.095C45.1535 278.226 45.1239 278.36 45.049 278.469L43.4361 281.398C42.5229 283.32 41.0642 286 39.7123 289.38C36.2066 297.573 33.6943 306.157 32.229 314.948C30.7287 323.731 30.2591 332.658 30.8296 341.549C30.9008 343.375 31.1024 345.035 31.2565 346.506C31.3435 347.241 31.4147 347.929 31.47 348.57C31.5412 349.198 31.6598 349.756 31.7309 350.301C32.0511 352.4 32.2409 353.598 32.2409 353.598C32.2775 353.733 32.2594 353.877 32.1906 353.999C32.1219 354.121 32.0079 354.211 31.8732 354.25Z" fill="white"/>
<path d="M474.674 392.781H443.187L439.25 353.586H478.611L474.674 392.781Z" fill="#F0F1F3"/>
<path d="M478.611 353.586C478.611 351.416 469.8 349.649 458.936 349.649C448.073 349.649 439.25 351.416 439.25 353.586C439.25 355.756 448.061 357.524 458.936 357.524C469.811 357.524 478.611 355.78 478.611 353.586Z" fill="#F0F1F3"/>
<path d="M476.227 353.586C476.227 351.677 468.482 350.123 458.936 350.123C449.389 350.123 441.633 351.677 441.633 353.586C441.633 355.495 449.377 357.037 458.936 357.037C468.494 357.037 476.227 355.495 476.227 353.586Z" fill="#1E2346"/>
<path d="M474.674 392.651C474.674 390.481 467.63 388.725 458.937 388.725C450.244 388.725 443.188 390.481 443.188 392.651C443.188 394.821 450.232 396.588 458.937 396.588C467.641 396.588 474.674 394.833 474.674 392.651Z" fill="#F0F1F3"/>
<path d="M477.796 340.019C477.813 338.45 477.336 336.915 476.432 335.631C475.744 334.445 475.246 333.402 475.993 332.263C476.597 331.572 477.325 331.001 478.14 330.579C479.227 329.929 480.352 329.343 481.508 328.824C484.118 327.696 486.57 326.233 488.801 324.472C489.705 323.702 490.485 322.798 491.114 321.791C491.625 321.01 492.002 320.148 492.229 319.242C492.542 317.678 492.724 316.092 492.774 314.498C492.935 313.649 493.425 312.898 494.138 312.411C495.086 311.723 496.089 311.116 497.139 310.596C498.325 310.039 499.57 309.541 500.696 308.983C501.787 308.516 502.831 307.948 503.815 307.287C504.284 306.945 504.686 306.518 505.001 306.03C505.321 305.563 505.58 305.057 505.772 304.524C506.136 303.447 506.355 302.326 506.424 301.192C506.526 300.219 506.335 299.238 505.877 298.374C505.419 297.51 504.713 296.803 503.851 296.341C502.808 295.79 501.683 295.414 500.519 295.226C499.889 295.137 499.25 295.137 498.621 295.226C497.978 295.321 497.356 295.526 496.783 295.831C495.574 296.492 494.457 297.31 493.462 298.262C492.383 299.282 491.292 300.362 490.284 301.405C489.409 302.392 488.457 303.308 487.438 304.145C486.743 304.799 485.858 305.214 484.912 305.331C483.13 305.198 481.338 305.338 479.599 305.746C478.516 306.057 477.489 306.533 476.551 307.157C475.334 308.004 474.254 309.031 473.349 310.205C471.324 312.958 469.898 316.105 469.162 319.443C468.747 320.949 468.463 322.408 468.178 323.618C467.977 324.615 467.634 325.577 467.158 326.476C466.375 327.816 465.178 327.816 463.731 327.828C462.015 327.658 460.299 328.155 458.94 329.215C458.215 329.913 457.789 330.866 457.754 331.872C457.678 333.331 457.761 334.795 458.003 336.236C458.193 337.908 458.596 339.794 458.975 341.893C459.355 343.992 459.77 346.174 460.066 348.499C460.095 348.851 460.225 349.188 460.44 349.468C460.656 349.748 460.947 349.961 461.28 350.08C461.613 350.199 461.973 350.219 462.317 350.138C462.662 350.058 462.975 349.88 463.221 349.625C464.797 348.193 466.527 346.94 468.38 345.89C469.891 345.012 471.451 344.22 473.052 343.518C474.209 343.031 475.33 342.464 476.408 341.822C476.767 341.654 477.08 341.403 477.321 341.089C477.563 340.775 477.725 340.409 477.796 340.019Z" fill="#26377C"/>
<path d="M459.937 354.393C459.88 354.373 459.827 354.342 459.781 354.301C459.736 354.26 459.7 354.21 459.674 354.155C459.649 354.099 459.635 354.039 459.633 353.978C459.631 353.917 459.642 353.856 459.665 353.8L460.542 351.025C460.803 350.135 461.195 349.08 461.657 347.87C462.12 346.66 462.606 345.285 463.27 343.838C466.338 336.675 470.299 329.929 475.058 323.76C479.77 317.547 485.263 311.967 491.4 307.157C493.879 305.153 496.144 303.706 497.615 302.627L500.093 301.085C500.144 301.049 500.201 301.024 500.261 301.01C500.321 300.997 500.384 300.995 500.444 301.006C500.505 301.018 500.563 301.041 500.615 301.075C500.667 301.108 500.711 301.152 500.745 301.203C500.801 301.312 500.812 301.439 500.777 301.556C500.742 301.673 500.662 301.772 500.556 301.832L498.089 303.397C496.595 304.465 494.389 305.9 491.934 307.88C485.857 312.64 480.413 318.155 475.734 324.294C471.023 330.405 467.102 337.088 464.065 344.182C463.4 345.617 462.879 346.969 462.464 348.166C462.048 349.364 461.622 350.42 461.361 351.297L460.483 354.049C460.455 354.166 460.382 354.267 460.28 354.331C460.178 354.396 460.055 354.418 459.937 354.393Z" fill="white"/>
<path d="M464.548 332.832C463.473 331.559 461.938 330.762 460.278 330.615C458.891 330.342 457.752 330.128 457.361 328.8C457.136 327.91 457.056 326.989 457.124 326.073C457.124 324.887 457.278 323.594 457.254 322.159C457.4 319.043 456.828 315.935 455.582 313.075C455.005 311.862 454.231 310.752 453.293 309.79C452.548 309.074 451.691 308.485 450.755 308.046C449.199 307.425 447.554 307.052 445.881 306.943C445.039 306.738 444.301 306.232 443.806 305.52C443.049 304.614 442.374 303.641 441.79 302.615C441.09 301.512 440.319 300.373 439.548 299.282C439.177 298.749 438.761 298.249 438.303 297.788C437.901 297.358 437.465 296.961 436.999 296.602C436.531 296.242 436 295.973 435.433 295.807C434.863 295.67 434.276 295.614 433.69 295.641C432.566 295.7 431.46 295.944 430.417 296.365C429.53 296.74 428.757 297.342 428.177 298.11C427.596 298.878 427.227 299.785 427.108 300.741C426.932 301.803 426.892 302.883 426.989 303.955C427.038 304.467 427.157 304.97 427.345 305.449C427.507 305.921 427.761 306.357 428.092 306.73C428.426 307.079 428.791 307.397 429.183 307.679L430.512 308.604C431.413 309.232 432.445 309.79 433.37 310.442C434.203 311.02 434.974 311.684 435.67 312.422C435.938 312.688 436.143 313.01 436.271 313.365C436.398 313.72 436.444 314.099 436.406 314.474C436.055 315.92 435.817 317.391 435.694 318.874C435.667 319.681 435.792 320.485 436.062 321.246C436.379 322.203 436.861 323.098 437.485 323.89C439.135 325.729 441.035 327.326 443.13 328.634C444.072 329.25 444.975 329.923 445.834 330.65C446.48 331.133 447.021 331.742 447.423 332.441C447.862 333.556 447.067 334.374 446.095 335.287C444.927 336.197 444.06 337.437 443.604 338.845C443.45 339.462 443.77 340.031 444.423 340.624C445.256 341.396 446.148 342.102 447.091 342.735C448.413 343.619 449.684 344.577 450.898 345.605C452.375 346.849 453.7 348.262 454.847 349.815C455.044 350.089 455.308 350.308 455.615 350.45C455.921 350.592 456.26 350.653 456.596 350.625C456.933 350.598 457.257 350.483 457.536 350.294C457.816 350.104 458.041 349.845 458.191 349.542C459.081 347.609 460.124 345.759 460.99 344.039C461.856 342.32 462.816 340.719 463.457 339.296C464.072 338.078 464.553 336.798 464.892 335.477C465.026 335.037 465.065 334.574 465.006 334.117C464.947 333.661 464.79 333.223 464.548 332.832Z" fill="#86D4D4"/>
<path d="M456.81 354.594C456.695 354.594 456.584 354.55 456.5 354.471C456.416 354.391 456.366 354.283 456.36 354.167L456.265 351.629C456.265 350.823 456.17 349.839 456.051 348.724C455.933 347.609 455.85 346.352 455.601 344.964C454.591 338.258 452.622 331.732 449.754 325.586C448.24 322.298 446.484 319.127 444.5 316.099C442.747 313.474 440.83 310.963 438.761 308.58C436.97 306.457 435.274 304.892 434.147 303.73L432.25 302.034C432.176 301.954 432.134 301.849 432.133 301.74C432.132 301.631 432.171 301.525 432.244 301.444C432.317 301.362 432.417 301.311 432.525 301.299C432.634 301.288 432.743 301.317 432.831 301.381L434.752 303.089C435.938 304.275 437.61 305.864 439.425 308.011C441.517 310.419 443.454 312.958 445.224 315.613C447.235 318.678 449.015 321.889 450.549 325.219C453.456 331.443 455.453 338.053 456.478 344.846C456.727 346.222 456.822 347.502 456.941 348.641C457.059 349.779 457.142 350.764 457.154 351.582C457.154 353.219 457.249 354.155 457.249 354.155C457.249 354.272 457.203 354.383 457.121 354.466C457.038 354.548 456.927 354.594 456.81 354.594Z" fill="white"/>
<path d="M468.064 329.95C467.432 328.371 466.315 327.034 464.874 326.132C463.688 325.266 462.775 324.507 462.976 322.894C463.21 321.863 463.61 320.878 464.162 319.977C464.847 318.704 465.599 317.469 466.415 316.276C468.311 313.574 469.902 310.671 471.159 307.619C471.594 306.317 471.872 304.967 471.989 303.599C472.121 302.525 472.089 301.437 471.894 300.373C471.497 298.649 470.962 296.959 470.293 295.321C470.064 294.354 470.186 293.337 470.637 292.451C471.205 291.214 471.871 290.024 472.63 288.893C473.46 287.707 474.432 286.403 475.263 285.158L476.448 283.343C476.815 282.791 477.14 282.212 477.421 281.612C477.696 281.006 477.876 280.362 477.955 279.702C478.032 279.072 478.032 278.435 477.955 277.805C477.831 276.583 477.535 275.386 477.077 274.247C476.758 273.301 476.126 272.493 475.285 271.955C474.444 271.418 473.444 271.185 472.452 271.294C471.194 271.416 469.965 271.74 468.811 272.255C468.175 272.543 467.578 272.91 467.032 273.346C466.475 273.826 465.992 274.386 465.597 275.006C465.198 275.638 464.842 276.296 464.53 276.975C464.174 277.712 463.868 278.473 463.617 279.252C463.071 280.853 462.549 282.513 462.087 284.102C461.727 285.561 461.264 286.991 460.699 288.383C460.369 289.406 459.747 290.309 458.908 290.981C457.2 291.906 455.631 293.068 454.248 294.432C453.397 295.363 452.675 296.404 452.101 297.527C451.385 299.035 450.867 300.63 450.559 302.271C449.975 306.064 450.104 309.933 450.939 313.679C451.235 315.411 451.639 317 451.923 318.423C452.191 319.541 452.314 320.689 452.291 321.839C452.196 323.617 451.105 324.21 449.848 325.041C448.154 325.867 446.839 327.309 446.172 329.073C445.868 330.15 445.935 331.299 446.361 332.334C446.96 333.83 447.703 335.263 448.579 336.615C449.516 338.204 450.761 339.96 452.03 341.869C453.299 343.778 454.722 345.854 456.05 348.119C456.199 348.465 456.456 348.753 456.783 348.94C457.109 349.128 457.488 349.205 457.862 349.16C458.235 349.114 458.584 348.949 458.856 348.689C459.129 348.428 459.309 348.087 459.371 347.716C460.1 345.446 461.057 343.257 462.229 341.181C463.168 339.497 464.193 337.862 465.301 336.283C466.121 335.15 466.862 333.961 467.518 332.725C467.8 332.328 467.994 331.875 468.088 331.396C468.182 330.918 468.174 330.425 468.064 329.95Z" fill="#F3CE87"/>
<path d="M458.807 354.25C458.57 354.25 458.332 354.072 458.285 353.764L457.775 350.443C457.704 349.91 457.585 349.329 457.514 348.688C457.443 348.048 457.372 347.348 457.301 346.613C457.146 345.13 456.945 343.458 456.874 341.62C456.302 332.657 456.783 323.657 458.309 314.806C459.117 310.081 460.206 305.408 461.57 300.812C462.957 296.436 464.392 292.404 465.851 289.036C467.31 285.668 468.686 282.928 469.599 280.995L471.223 278.042C471.276 277.921 471.373 277.825 471.495 277.774C471.616 277.723 471.753 277.722 471.876 277.769C471.982 277.848 472.055 277.965 472.077 278.095C472.099 278.226 472.069 278.36 471.994 278.469L470.381 281.398C469.468 283.32 468.01 286 466.658 289.38C463.152 297.573 460.64 306.157 459.174 314.948C457.67 323.73 457.196 332.657 457.763 341.549C457.834 343.375 458.036 345.035 458.19 346.506C458.277 347.241 458.348 347.929 458.403 348.57C458.475 349.198 458.593 349.756 458.664 350.301C458.985 352.4 459.174 353.598 459.174 353.598C459.211 353.733 459.193 353.877 459.124 353.999C459.055 354.121 458.941 354.211 458.807 354.25Z" fill="white"/>
</svg>
