<?xml version="1.0" encoding="UTF-8"?>
<svg id="Layer_2" data-name="Layer 2" xmlns="http://www.w3.org/2000/svg" width="665.71" height="383.19" xmlns:xlink="http://www.w3.org/1999/xlink" viewBox="0 0 665.71 383.19">
  <defs>
    <style>
      .cls-1 {
        fill: url(#_Áåçûìÿííûé_ãðàäèåíò_28-2);
      }

      .cls-1, .cls-2, .cls-3, .cls-4, .cls-5, .cls-6, .cls-7, .cls-8, .cls-9, .cls-10, .cls-11, .cls-12, .cls-13, .cls-14, .cls-15, .cls-16, .cls-17, .cls-18, .cls-19, .cls-20, .cls-21, .cls-22, .cls-23, .cls-24, .cls-25, .cls-26, .cls-27, .cls-28, .cls-29, .cls-30, .cls-31, .cls-32, .cls-33, .cls-34, .cls-35, .cls-36, .cls-37, .cls-38, .cls-39, .cls-40, .cls-41, .cls-42, .cls-43 {
        stroke-width: 0px;
      }

      .cls-2 {
        fill: url(#_Áåçûìÿííûé_ãðàäèåíò_28-7);
      }

      .cls-3 {
        fill: url(#_Áåçûìÿííûé_ãðàäèåíò_28-4);
      }

      .cls-4 {
        fill: url(#_Áåçûìÿííûé_ãðàäèåíò_28-3);
      }

      .cls-5, .cls-6, .cls-25 {
        fill: #242993;
      }

      .cls-5, .cls-44, .cls-9 {
        opacity: .5;
      }

      .cls-7 {
        fill: #adc8ff;
      }

      .cls-45 {
        opacity: .51;
      }

      .cls-8 {
        fill: url(#_Áåçûìÿííûé_ãðàäèåíò_28-10);
      }

      .cls-9, .cls-18, .cls-31 {
        fill: #42ffff;
      }

      .cls-10 {
        fill: url(#_Áåçûìÿííûé_ãðàäèåíò_29-2);
      }

      .cls-11 {
        fill: url(#_Áåçûìÿííûé_ãðàäèåíò_28);
      }

      .cls-12 {
        fill: url(#_Áåçûìÿííûé_ãðàäèåíò_28-14);
      }

      .cls-13 {
        fill: url(#_Áåçûìÿííûé_ãðàäèåíò_28-6);
      }

      .cls-14 {
        fill: url(#_Áåçûìÿííûé_ãðàäèåíò_19);
      }

      .cls-15 {
        fill: #f2b42a;
      }

      .cls-16 {
        fill: url(#_Áåçûìÿííûé_ãðàäèåíò_28-13);
      }

      .cls-17 {
        fill: none;
      }

      .cls-18 {
        opacity: .4;
      }

      .cls-19 {
        fill: url(#_Áåçûìÿííûé_ãðàäèåíò_29);
      }

      .cls-20 {
        fill: url(#_Áåçûìÿííûé_ãðàäèåíò_19-5);
      }

      .cls-46 {
        opacity: .11;
      }

      .cls-21 {
        fill: url(#_Áåçûìÿííûé_ãðàäèåíò_36);
      }

      .cls-21, .cls-36 {
        opacity: .42;
      }

      .cls-22 {
        fill: url(#_Áåçûìÿííûé_ãðàäèåíò_19-2);
      }

      .cls-23 {
        fill: #f9bf30;
      }

      .cls-47 {
        opacity: .3;
      }

      .cls-24 {
        fill: url(#_Áåçûìÿííûé_ãðàäèåíò_28-5);
      }

      .cls-25 {
        opacity: .6;
      }

      .cls-26 {
        fill: #2859cb;
      }

      .cls-27 {
        fill: url(#_Áåçûìÿííûé_ãðàäèåíò_28-11);
      }

      .cls-28 {
        fill: url(#_Áåçûìÿííûé_ãðàäèåíò_40);
        opacity: .96;
      }

      .cls-48 {
        opacity: .32;
      }

      .cls-29 {
        fill: url(#_Áåçûìÿííûé_ãðàäèåíò_28-8);
      }

      .cls-30 {
        fill: url(#_Áåçûìÿííûé_ãðàäèåíò_19-3);
      }

      .cls-49 {
        clip-path: url(#clippath);
      }

      .cls-32 {
        fill: #91afff;
      }

      .cls-33 {
        fill: url(#_Áåçûìÿííûé_ãðàäèåíò_19-4);
      }

      .cls-34 {
        fill: url(#_Áåçûìÿííûé_ãðàäèåíò_35);
      }

      .cls-35 {
        fill: #fff;
      }

      .cls-36 {
        fill: url(#_Áåçûìÿííûé_ãðàäèåíò_36-2);
      }

      .cls-37 {
        fill: url(#_Áåçûìÿííûé_ãðàäèåíò_28-12);
      }

      .cls-38 {
        fill: #dd821f;
      }

      .cls-39 {
        fill: #ffd85a;
      }

      .cls-40, .cls-42 {
        fill: #4553c7;
      }

      .cls-41 {
        fill: url(#_Áåçûìÿííûé_ãðàäèåíò_28-9);
      }

      .cls-42 {
        opacity: .8;
      }

      .cls-43 {
        fill: url(#_Áåçûìÿííûé_ãðàäèåíò_19-6);
      }
    </style>
    <linearGradient id="_Áåçûìÿííûé_ãðàäèåíò_19" data-name="Áåçûìÿííûé ãðàäèåíò 19" x1="636.9" y1="9.7" x2="566.72" y2="65.97" gradientUnits="userSpaceOnUse">
      <stop offset="0" stop-color="#bcd5ff"/>
      <stop offset=".15" stop-color="#a2bdff"/>
      <stop offset=".39" stop-color="#819fff"/>
      <stop offset=".61" stop-color="#6a89ff"/>
      <stop offset=".82" stop-color="#5b7cff"/>
      <stop offset="1" stop-color="#5778ff"/>
    </linearGradient>
    <linearGradient id="_Áåçûìÿííûé_ãðàäèåíò_28" data-name="Áåçûìÿííûé ãðàäèåíò 28" x1="143.06" y1="279.67" x2="79.27" y2="330.83" gradientTransform="translate(805.94 -206.15) rotate(30) skewX(-30)" gradientUnits="userSpaceOnUse">
      <stop offset="0" stop-color="#c0d6ff"/>
      <stop offset=".3" stop-color="#c4daff"/>
      <stop offset=".65" stop-color="#d3e9ff"/>
      <stop offset="1" stop-color="#e9ffff"/>
    </linearGradient>
    <linearGradient id="_Áåçûìÿííûé_ãðàäèåíò_19-2" data-name="Áåçûìÿííûé ãðàäèåíò 19" x1="159" y1="253.45" x2="88.82" y2="309.73" xlink:href="#_Áåçûìÿííûé_ãðàäèåíò_19"/>
    <linearGradient id="_Áåçûìÿííûé_ãðàäèåíò_28-2" data-name="Áåçûìÿííûé ãðàäèåíò 28" x1="110.88" y1="729.7" x2="47.09" y2="780.85" xlink:href="#_Áåçûìÿííûé_ãðàäèåíò_28"/>
    <linearGradient id="_Áåçûìÿííûé_ãðàäèåíò_28-3" data-name="Áåçûìÿííûé ãðàäèåíò 28" x1="-1496.54" y1="140.11" x2="-1323.85" y2="140.11" gradientTransform="translate(1768.31)" xlink:href="#_Áåçûìÿííûé_ãðàäèåíò_28"/>
    <linearGradient id="_Áåçûìÿííûé_ãðàäèåíò_29" data-name="Áåçûìÿííûé ãðàäèåíò 29" x1="-1496.54" y1="184.39" x2="-1466.88" y2="184.39" gradientTransform="translate(1768.31)" gradientUnits="userSpaceOnUse">
      <stop offset="0" stop-color="#5778ff"/>
      <stop offset=".18" stop-color="#5b7cff"/>
      <stop offset=".39" stop-color="#6a89ff"/>
      <stop offset=".61" stop-color="#819fff"/>
      <stop offset=".85" stop-color="#a2bdff"/>
      <stop offset="1" stop-color="#bcd5ff"/>
    </linearGradient>
    <linearGradient id="_Áåçûìÿííûé_ãðàäèåíò_29-2" data-name="Áåçûìÿííûé ãðàäèåíò 29" x1="-1473.4" y1="234.18" x2="-1229.5" y2="234.18" xlink:href="#_Áåçûìÿííûé_ãðàäèåíò_29"/>
    <linearGradient id="_Áåçûìÿííûé_ãðàäèåíò_28-4" data-name="Áåçûìÿííûé ãðàäèåíò 28" x1="-1391.45" y1="226.05" x2="-1147.42" y2="226.05" gradientTransform="translate(1768.31)" xlink:href="#_Áåçûìÿííûé_ãðàäèåíò_28"/>
    <linearGradient id="_Áåçûìÿííûé_ãðàäèåíò_28-5" data-name="Áåçûìÿííûé ãðàäèåíò 28" x1="-1350.13" y1="239.9" x2="-1287.66" y2="239.9" gradientTransform="translate(1768.31)" xlink:href="#_Áåçûìÿííûé_ãðàäèåíò_28"/>
    <clipPath id="clippath">
      <polygon id="SVGID" class="cls-17" points="423.62 46.56 279.52 129.76 297.39 235.1 441.39 151.96 423.62 46.56"/>
    </clipPath>
    <linearGradient id="_Áåçûìÿííûé_ãðàäèåíò_28-6" data-name="Áåçûìÿííûé ãðàäèåíò 28" x1="-1484.68" y1="171.96" x2="-1240.66" y2="171.96" gradientTransform="translate(1768.31)" xlink:href="#_Áåçûìÿííûé_ãðàäèåíò_28"/>
    <linearGradient id="_Áåçûìÿííûé_ãðàäèåíò_28-7" data-name="Áåçûìÿííûé ãðàäèåíò 28" x1="-1500.75" y1="154.04" x2="-1438.28" y2="154.04" gradientTransform="translate(1768.31)" xlink:href="#_Áåçûìÿííûé_ãðàäèåíò_28"/>
    <radialGradient id="_Áåçûìÿííûé_ãðàäèåíò_36" data-name="Áåçûìÿííûé ãðàäèåíò 36" cx="-1402.32" cy="203.37" fx="-1402.32" fy="203.37" r="69.96" gradientTransform="translate(1768.31)" gradientUnits="userSpaceOnUse">
      <stop offset="0" stop-color="#2b3aa5"/>
      <stop offset="1" stop-color="#182484"/>
    </radialGradient>
    <radialGradient id="_Áåçûìÿííûé_ãðàäèåíò_36-2" data-name="Áåçûìÿííûé ãðàäèåíò 36" cx="-1417.62" cy="171.9" fx="-1417.62" fy="171.9" r="53.55" xlink:href="#_Áåçûìÿííûé_ãðàäèåíò_36"/>
    <linearGradient id="_Áåçûìÿííûé_ãðàäèåíò_35" data-name="Áåçûìÿííûé ãðàäèåíò 35" x1="-1436.9" y1="187.36" x2="-1389.73" y2="102.42" gradientTransform="translate(1768.31)" gradientUnits="userSpaceOnUse">
      <stop offset="0" stop-color="#5778ff"/>
      <stop offset=".04" stop-color="#5b7cff"/>
      <stop offset=".09" stop-color="#6a89ff"/>
      <stop offset=".14" stop-color="#819fff"/>
      <stop offset=".19" stop-color="#a2bdff"/>
      <stop offset=".22" stop-color="#bcd5ff"/>
    </linearGradient>
    <linearGradient id="_Áåçûìÿííûé_ãðàäèåíò_28-8" data-name="Áåçûìÿííûé ãðàäèåíò 28" x1="-1378.95" y1="187.66" x2="-1410.35" y2="126.28" gradientTransform="translate(1768.31)" xlink:href="#_Áåçûìÿííûé_ãðàäèåíò_28"/>
    <linearGradient id="_Áåçûìÿííûé_ãðàäèåíò_40" data-name="Áåçûìÿííûé ãðàäèåíò 40" x1="-1294.09" y1="297.99" x2="-1393.88" y2="121.18" gradientTransform="translate(1768.31)" gradientUnits="userSpaceOnUse">
      <stop offset="0" stop-color="#c0d6ff"/>
      <stop offset=".08" stop-color="#c2d8ff"/>
      <stop offset=".13" stop-color="#cce2ff"/>
      <stop offset=".18" stop-color="#dbf1ff"/>
      <stop offset=".21" stop-color="#e9ffff"/>
      <stop offset=".26" stop-color="#d8eeff"/>
      <stop offset=".31" stop-color="#cae0ff"/>
      <stop offset=".39" stop-color="#c2d8ff"/>
      <stop offset=".51" stop-color="#c0d6ff"/>
      <stop offset=".62" stop-color="#d0e6ff"/>
      <stop offset=".75" stop-color="#e9ffff"/>
      <stop offset="1" stop-color="#c0d6ff"/>
    </linearGradient>
    <linearGradient id="_Áåçûìÿííûé_ãðàäèåíò_19-3" data-name="Áåçûìÿííûé ãðàäèåíò 19" x1="646.47" y1="165.6" x2="576.29" y2="221.88" xlink:href="#_Áåçûìÿííûé_ãðàäèåíò_19"/>
    <linearGradient id="_Áåçûìÿííûé_ãðàäèåíò_28-9" data-name="Áåçûìÿííûé ãðàäèåíò 28" x1="304.49" y1="409.9" x2="240.7" y2="461.05" xlink:href="#_Áåçûìÿííûé_ãðàäèåíò_28"/>
    <linearGradient id="_Áåçûìÿííûé_ãðàäèåíò_28-10" data-name="Áåçûìÿííûé ãðàäèåíò 28" x1="304.49" y1="409.9" x2="240.7" y2="461.05" xlink:href="#_Áåçûìÿííûé_ãðàäèåíò_28"/>
    <linearGradient id="_Áåçûìÿííûé_ãðàäèåíò_19-4" data-name="Áåçûìÿííûé ãðàäèåíò 19" x1="646.47" y1="147.14" x2="576.29" y2="203.41" xlink:href="#_Áåçûìÿííûé_ãðàäèåíò_19"/>
    <linearGradient id="_Áåçûìÿííûé_ãðàäèåíò_28-11" data-name="Áåçûìÿííûé ãðàäèåíò 28" x1="286.03" y1="393.91" x2="222.23" y2="445.06" xlink:href="#_Áåçûìÿííûé_ãðàäèåíò_28"/>
    <linearGradient id="_Áåçûìÿííûé_ãðàäèåíò_19-5" data-name="Áåçûìÿííûé ãðàäèåíò 19" x1="273.82" y1="319.18" x2="203.65" y2="375.45" xlink:href="#_Áåçûìÿííûé_ãðàäèåíò_19"/>
    <linearGradient id="_Áåçûìÿííûé_ãðàäèåíò_28-12" data-name="Áåçûìÿííûé ãðàäèåíò 28" x1="242.9" y1="729.21" x2="179.11" y2="780.36" xlink:href="#_Áåçûìÿííûé_ãðàäèåíò_28"/>
    <linearGradient id="_Áåçûìÿííûé_ãðàäèåíò_28-13" data-name="Áåçûìÿííûé ãðàäèåíò 28" x1="242.9" y1="729.21" x2="179.11" y2="780.36" xlink:href="#_Áåçûìÿííûé_ãðàäèåíò_28"/>
    <linearGradient id="_Áåçûìÿííûé_ãðàäèåíò_19-6" data-name="Áåçûìÿííûé ãðàäèåíò 19" x1="273.82" y1="300.71" x2="203.65" y2="356.99" xlink:href="#_Áåçûìÿííûé_ãðàäèåíò_19"/>
    <linearGradient id="_Áåçûìÿííûé_ãðàäèåíò_28-14" data-name="Áåçûìÿííûé ãðàäèåíò 28" x1="224.44" y1="713.22" x2="160.65" y2="764.37" xlink:href="#_Áåçûìÿííûé_ãðàäèåíò_28"/>
  </defs>
  <g id="_Ñëîé_1" data-name="Ñëîé 1">
    <g class="cls-47">
      <path class="cls-35" d="M556.97,246.29c-.11,0-.21-.03-.31-.08l-122.25-70.58c-2.25-1.3-3.49-3.07-3.49-4.97s1.24-3.67,3.49-4.97l79.61-45.96c1.85-1.07,2.87-2.45,2.87-3.89s-1.02-2.82-2.87-3.89l-134.8-77.83c-4.06-2.34-10.67-2.34-14.73,0l-45.21,26.1c-1.85,1.07-2.87,2.45-2.87,3.89s1.02,2.82,2.87,3.89l67.21,38.8c2.25,1.3,3.49,3.07,3.49,4.97s-1.24,3.67-3.49,4.97l-100.49,58.02c-4.41,2.55-11.57,2.55-15.98,0l-66.73-38.52c-.3-.17-.4-.56-.23-.85.17-.3.56-.4.85-.23l66.73,38.52c4.06,2.34,10.67,2.34,14.73,0l100.49-58.02c1.85-1.07,2.87-2.45,2.87-3.89s-1.02-2.82-2.87-3.89l-67.21-38.8c-2.25-1.3-3.49-3.07-3.49-4.97s1.24-3.67,3.49-4.97l45.21-26.1c4.4-2.54,11.58-2.54,15.98,0l134.8,77.83c2.25,1.3,3.49,3.07,3.49,4.98s-1.24,3.67-3.49,4.97l-79.61,45.96c-1.85,1.07-2.87,2.45-2.87,3.89s1.02,2.82,2.87,3.89l122.25,70.58c.3.17.4.56.23.86-.12.2-.33.31-.54.31Z"/>
      <path class="cls-35" d="M527.85,193.37c-.22,0-.43-.11-.54-.31-.17-.3-.07-.68.23-.86l118.66-68.51c2.55-1.47,3.95-3.39,3.95-5.4s-1.4-3.93-3.95-5.4l-113.8-65.71c-5.5-3.18-14.46-3.18-19.96,0l-25.44,14.69c-.3.17-.68.07-.86-.23-.17-.3-.07-.68.23-.86l25.44-14.69c5.85-3.38,15.36-3.38,21.21,0l113.81,65.71c2.95,1.7,4.58,4.01,4.58,6.48s-1.62,4.78-4.58,6.49l-118.66,68.51c-.1.06-.21.08-.31.08Z"/>
      <path class="cls-35" d="M245.29,382.93c-3.26,0-6.52-.72-9-2.15l-162.57-93.86c-2.52-1.46-3.91-3.43-3.91-5.56,0-2.13,1.39-4.1,3.91-5.56l55.45-32.01c4.96-2.87,13.04-2.87,18,0l40.09,23.15c.3.17.4.56.23.86-.17.3-.56.4-.86.23l-40.09-23.15c-4.62-2.67-12.13-2.67-16.75,0l-55.45,32.01c-2.12,1.22-3.29,2.81-3.29,4.47,0,1.66,1.17,3.25,3.29,4.47l162.57,93.86c4.62,2.66,12.13,2.66,16.75,0l210.37-121.46c.3-.17.68-.07.86.23.17.3.07.68-.23.86l-210.37,121.46c-2.48,1.43-5.74,2.15-9,2.15Z"/>
      <path class="cls-35" d="M197.81,274.38c-.11,0-.21-.03-.31-.08l-3.17-1.83c-.3-.17-.4-.56-.23-.86.17-.3.56-.4.85-.23l3.17,1.83c.3.17.4.56.23.86-.12.2-.33.31-.54.31Z"/>
      <path class="cls-35" d="M209.27,281c-.11,0-.21-.03-.31-.08l-3.96-2.29c-.3-.17-.4-.56-.23-.86.17-.3.56-.4.85-.23l3.96,2.29c.3.17.4.56.23.86-.12.2-.33.31-.54.31Z"/>
      <path class="cls-35" d="M258.1,306.24c-3.26,0-6.52-.72-9-2.15l-32.99-19.05c-.3-.17-.4-.56-.23-.86.17-.3.56-.4.85-.23l32.99,19.05c4.62,2.67,12.13,2.67,16.75,0l138.37-79.89c2.12-1.22,3.29-2.81,3.29-4.47s-1.17-3.25-3.29-4.47l-40.89-23.61c-4.62-2.67-12.13-2.67-16.75,0l-80.11,46.25c-4.96,2.87-13.04,2.87-18,0l-111.93-64.62c-4.62-2.67-12.13-2.67-16.75,0L.94,241.18c-.3.17-.68.07-.85-.23-.17-.3-.07-.68.23-.85l119.49-68.98c4.96-2.87,13.04-2.87,18,0l111.93,64.62c4.62,2.67,12.13,2.67,16.75,0l80.11-46.25c4.96-2.87,13.04-2.87,18,0l40.89,23.61c2.52,1.46,3.91,3.43,3.91,5.56s-1.39,4.1-3.91,5.56l-138.37,79.89c-2.48,1.43-5.74,2.15-9,2.15Z"/>
      <path class="cls-35" d="M400.84,336.44c-.11,0-.21-.03-.31-.08l-34.96-20.18c-.3-.17-.4-.56-.23-.86.17-.3.55-.4.86-.23l34.96,20.18c.3.17.4.56.23.86-.12.2-.33.31-.54.31Z"/>
      <path class="cls-35" d="M305.26,114.42c-.22,0-.43-.11-.54-.31-.17-.3-.07-.68.23-.86l46.05-26.59c.3-.17.68-.07.86.23.17.3.07.68-.23.86l-46.05,26.59c-.1.06-.21.08-.31.08Z"/>
      <path class="cls-35" d="M305.72,126.12h-20.74c-.35,0-.63-.28-.63-.63v-11.97c0-.17.07-.33.18-.44.12-.12.28-.18.44-.18h20.74c.35,0,.63.28.63.63v11.97c0,.35-.28.63-.63.63ZM285.61,124.87h19.48v-10.72h-19.48v10.72Z"/>
      <path class="cls-35" d="M553.6,99.9h-20.74c-.35,0-.63-.28-.63-.63v-11.97c0-.35.28-.63.63-.63h20.74c.35,0,.63.28.63.63v11.97c0,.35-.28.63-.63.63ZM533.49,98.65h19.48v-10.72h-19.48v10.72Z"/>
      <path class="cls-35" d="M421.58,348.41h-20.74c-.35,0-.63-.28-.63-.63v-11.97c0-.17.06-.33.18-.44.12-.12.28-.18.44-.18h20.74c.35,0,.63.28.63.63v11.97c0,.35-.28.63-.63.63ZM401.47,347.16h19.48v-10.72h-19.48v10.72Z"/>
      <path class="cls-35" d="M250.24,355.15c-4.02,0-8.03-.88-11.09-2.65-3.08-1.78-4.78-4.18-4.78-6.77,0-2.58,1.7-4.99,4.78-6.76,6.12-3.53,16.07-3.53,22.18,0h0c3.08,1.78,4.78,4.18,4.78,6.77,0,2.58-1.7,4.99-4.78,6.76-3.06,1.77-7.07,2.65-11.09,2.65ZM250.24,337.55c-3.79,0-7.58.83-10.47,2.5-2.68,1.55-4.15,3.56-4.15,5.68,0,2.12,1.47,4.14,4.15,5.68,5.77,3.33,15.16,3.33,20.93,0,2.68-1.55,4.15-3.56,4.15-5.68s-1.47-4.14-4.15-5.68c-2.89-1.67-6.68-2.5-10.47-2.5Z"/>
      <path class="cls-35" d="M211.5,332.78c-4.02,0-8.03-.88-11.09-2.65-3.08-1.78-4.78-4.18-4.78-6.77s1.7-4.99,4.78-6.76c6.12-3.53,16.07-3.53,22.18,0h0c3.08,1.78,4.78,4.18,4.78,6.76s-1.7,4.99-4.78,6.76c-3.06,1.77-7.07,2.65-11.09,2.65ZM211.49,315.18c-3.79,0-7.58.83-10.46,2.5-2.68,1.55-4.15,3.56-4.15,5.68s1.47,4.14,4.15,5.68c5.77,3.33,15.16,3.33,20.93,0,2.68-1.55,4.15-3.56,4.15-5.68s-1.47-4.13-4.15-5.68h0c-2.89-1.67-6.68-2.5-10.47-2.5Z"/>
      <path class="cls-35" d="M172.75,310.41c-4.02,0-8.03-.88-11.09-2.65-3.08-1.78-4.78-4.18-4.78-6.76s1.7-4.99,4.78-6.76c6.11-3.53,16.06-3.53,22.18,0,3.08,1.78,4.78,4.18,4.78,6.76s-1.7,4.99-4.78,6.76c-3.06,1.77-7.07,2.65-11.09,2.65ZM172.75,292.82c-3.79,0-7.58.83-10.46,2.5-2.68,1.55-4.15,3.56-4.15,5.68s1.47,4.13,4.15,5.68c5.77,3.33,15.16,3.33,20.93,0,2.68-1.55,4.15-3.56,4.15-5.68s-1.47-4.13-4.15-5.68h0c-2.89-1.67-6.68-2.5-10.47-2.5Z"/>
      <path class="cls-35" d="M134.01,288.04c-4.02,0-8.03-.88-11.09-2.65-3.08-1.78-4.78-4.18-4.78-6.76s1.7-4.99,4.78-6.76c6.12-3.53,16.07-3.53,22.18,0h0c3.08,1.78,4.78,4.18,4.78,6.76s-1.7,4.99-4.78,6.76c-3.06,1.77-7.07,2.65-11.09,2.65ZM134.01,270.45c-3.79,0-7.58.83-10.47,2.5-2.68,1.55-4.15,3.56-4.15,5.68s1.47,4.13,4.15,5.68c5.77,3.33,15.16,3.33,20.93,0,2.68-1.55,4.15-3.56,4.15-5.68s-1.47-4.13-4.15-5.68c-2.89-1.67-6.68-2.5-10.47-2.5Z"/>
      <path class="cls-35" d="M144.79,273.03c-.22,0-.43-.11-.54-.31-.17-.3-.07-.68.23-.86l25.34-14.63c.3-.17.68-.07.85.23.17.3.07.68-.23.86l-25.34,14.63c-.1.06-.21.08-.31.08Z"/>
      <path class="cls-35" d="M283.7,363.71c-.11,0-.22-.03-.32-.09l-21-12.28c-.3-.17-.4-.56-.22-.86.17-.3.56-.4.86-.22l21,12.28c.3.17.4.56.22.86-.12.2-.33.31-.54.31Z"/>
    </g>
    <g>
      <path class="cls-5" d="M596.69,67.19l-41.82-24.15c-.91-.52-.79-1.44.25-2.04l12.29-7.09,45.11,26.04-12.29,7.09c-1.05.6-2.63.67-3.54.15Z"/>
      <g>
        <path class="cls-14" d="M656.14,34.33v-8.33h-13.57s-30.11-17.38-30.11-17.38c-.74-.43-2.03-.37-2.88.12l-29.98,17.31h-13.51s0,8.36,0,8.36h0c.01.26.17.51.49.69l43.2,24.94c.74.43,2.03.37,2.88-.12l42.78-24.7c.44-.26.68-.58.7-.89Z"/>
        <path class="cls-11" d="M609.77,51.71l-43.2-24.94c-.74-.43-.65-1.17.21-1.66L609.57.41c.85-.49,2.14-.55,2.88-.12l43.2,24.94c.74.43.65,1.17-.21,1.66l-42.78,24.7c-.85.49-2.14.55-2.88.12Z"/>
        <path class="cls-6" d="M609.93,48.79l-38.29-22.11c-.65-.38-.57-1.04.18-1.48l37.92-21.89c.76-.44,1.9-.48,2.56-.11l38.29,22.11c.65.38.57,1.04-.18,1.48l-37.92,21.89c-.76.44-1.9.48-2.56.11Z"/>
        <path class="cls-40" d="M610.02,46.94l-35.18-20.31c-.6-.35-.53-.95.17-1.36l34.84-20.11c.69-.4,1.75-.44,2.35-.1l35.18,20.31c.6.35.53.95-.17,1.36l-34.84,20.11c-.69.4-1.75.44-2.35.1Z"/>
      </g>
      <g>
        <polygon class="cls-31" points="610.3 24.68 606.19 22.3 608.43 21 612.55 23.38 610.3 24.68"/>
        <polygon class="cls-31" points="617.95 24.34 613.83 26.72 611.59 25.42 615.7 23.04 617.95 24.34"/>
        <polygon class="cls-31" points="609.37 25.22 607.12 26.51 604.88 25.22 607.12 23.92 609.37 25.22"/>
        <polygon class="cls-31" points="617.13 29.7 614.88 30.99 608.41 27.25 610.65 25.96 617.13 29.7"/>
      </g>
    </g>
    <g>
      <path class="cls-5" d="M118.79,310.95l-41.82-24.15c-.91-.52-.79-1.44.25-2.04l12.29-7.09,45.11,26.04-12.29,7.09c-1.05.6-2.63.67-3.54.15Z"/>
      <g>
        <path class="cls-22" d="M178.24,278.08v-8.33h-13.57s-30.11-17.38-30.11-17.38c-.74-.43-2.03-.37-2.88.12l-29.98,17.31h-13.51s0,8.36,0,8.36h0c.01.26.17.51.49.69l43.2,24.94c.74.43,2.03.37,2.88-.12l42.78-24.7c.44-.26.68-.58.7-.89Z"/>
        <path class="cls-1" d="M131.88,295.46l-43.2-24.94c-.74-.43-.65-1.17.21-1.66l42.78-24.7c.85-.49,2.14-.55,2.88-.12l43.2,24.94c.74.43.65,1.17-.21,1.66l-42.78,24.7c-.85.49-2.14.55-2.88.12Z"/>
        <path class="cls-6" d="M132.03,292.54l-38.29-22.11c-.65-.38-.57-1.04.18-1.48l37.92-21.89c.76-.44,1.9-.48,2.56-.11l38.29,22.11c.65.38.57,1.04-.18,1.48l-37.92,21.89c-.76.44-1.9.48-2.56.11Z"/>
        <path class="cls-40" d="M132.13,290.69l-35.18-20.31c-.6-.35-.53-.95.17-1.36l34.84-20.11c.69-.4,1.75-.44,2.35-.1l35.18,20.31c.6.35.53.95-.17,1.36l-34.84,20.11c-.69.4-1.75.44-2.35.1Z"/>
      </g>
      <g>
        <polygon class="cls-31" points="132.41 268.43 128.29 266.05 130.54 264.76 134.65 267.13 132.41 268.43"/>
        <polygon class="cls-31" points="140.05 268.09 135.94 270.47 133.69 269.17 137.81 266.8 140.05 268.09"/>
        <polygon class="cls-31" points="131.47 268.97 129.23 270.27 126.98 268.97 129.23 267.67 131.47 268.97"/>
        <polygon class="cls-31" points="139.24 273.45 136.99 274.75 130.51 271.01 132.76 269.71 139.24 273.45"/>
      </g>
    </g>
    <path class="cls-31" d="M649.36,192.62l-60.4-34.87-32.1-18.33c-3.44-1.96-7.69-1.93-11.09.09l-69.23,41.1-.51-.86,69.23-41.1c3.71-2.2,8.35-2.24,12.1-.1l32.1,18.33,60.4,34.87-.5.87Z"/>
    <g>
      <g>
        <g class="cls-44">
          <path class="cls-6" d="M448.79,186.34l-139.97,80.81c-1.21.7-1.21,2.45,0,3.15l77.72,44.87c3.53,2.04,7.88,2.04,11.41,0l134.26-77.52c1.21-.7,1.21-2.45,0-3.15l-83.43-48.17Z"/>
        </g>
        <g>
          <g>
            <path class="cls-4" d="M444.43,150.85l-18.7-110.97,1.5-.63-2.26-1.3h0c-.44-.28-1.06-.26-1.74.13l-149.49,86.31c-1.23.71-2.16,2.53-1.94,3.8l18.85,111.86c.1.58.39.97.79,1.14h0s2.21,1.28,2.21,1.28l.38-2.06-.13.04,148.59-85.79c1.23-.71,2.16-2.53,1.94-3.8Z"/>
            <path class="cls-19" d="M274.57,127.42l-2.46-1.09c-.28.63-.41,1.29-.32,1.85l18.85,111.86c.1.58.39.97.79,1.14h0s2.21,1.28,2.21,1.28l.38-2.06-.13.04,7.52-4.34-26.85-108.67Z"/>
            <path class="cls-6" d="M444.83,155.99l-149.49,86.31c-1.15.67-2.14.28-2.35-.91l-18.85-111.86c-.22-1.27.71-3.09,1.94-3.8l149.49-86.31c1.15-.67,2.14-.28,2.35.91l18.85,111.86c.22,1.27-.71,3.09-1.94,3.8Z"/>
            <g class="cls-45">
              <polygon class="cls-40" points="423.62 46.56 279.52 129.76 297.39 235.1 441.39 151.96 423.62 46.56"/>
            </g>
          </g>
          <g>
            <path class="cls-10" d="M538.8,208.95l-8.16,4.26-81.8-47.23c-1.37-.79-3.76-.69-5.34.22l-141.09,81.46c-1.35-.76-7.51-3.72-7.51-3.72l2.99,7.78s.01,0,.01,0c.12.35.39.67.83.93l86.16,49.74c1.37.79,3.76.69,5.34-.22l144.38-83.36c.65-.37,1.05-.83,1.21-1.29h.01s2.97-8.57,2.97-8.57Z"/>
            <path class="cls-3" d="M537.54,210.29l-147.97,85.43c-1.62.94-4.07,1.04-5.47.23l-88.3-50.98c-1.4-.81-1.23-2.22.39-3.16l147.97-85.43c1.62-.94,4.07-1.04,5.47-.23l88.3,50.98c1.4.81,1.23,2.22-.39,3.16Z"/>
            <path class="cls-26" d="M344.94,277.24v-1.62c0-.15.09-.22.21-.16l5.72,3.3c.12.07.21.25.21.4v1.62c0,.15-.09.22-.21.16l-5.72-3.3c-.12-.07-.21-.25-.21-.4Z"/>
            <path class="cls-26" d="M353.5,282.18v-1.62c0-.15.09-.22.21-.16l5.72,3.3c.12.07.21.25.21.4v1.62c0,.15-.09.22-.21.16l-5.72-3.3c-.12-.07-.21-.25-.21-.4Z"/>
            <path class="cls-7" d="M318.82,240.19l122.96-70.99c.82-.47,1.83-.47,2.65,0l43.79,25.33c.63.36.63,1.27,0,1.63l-122.91,70.96c-.82.47-1.83.47-2.65,0l-43.85-25.3c-.63-.36-.63-1.27,0-1.64Z"/>
            <path class="cls-32" d="M318.82,241.83l.44.25,122.52-70.74c.82-.47,1.83-.47,2.65,0l43.35,25.08.44-.25c.63-.36.63-1.27,0-1.63l-43.79-25.33c-.82-.47-1.83-.47-2.65,0l-122.96,70.99c-.63.36-.63,1.27,0,1.64Z"/>
            <g>
              <polygon class="cls-6" points="447.74 175.61 340.93 237.28 336.18 234.54 442.99 172.87 447.74 175.61"/>
              <polygon class="cls-6" points="459.38 182.34 359.2 240.18 354.45 237.44 454.63 179.59 459.38 182.34"/>
              <polygon class="cls-6" points="466.96 186.72 349.01 254.82 344.26 252.08 462.22 183.97 466.96 186.72"/>
              <polygon class="cls-6" points="474.55 191.09 356.59 259.2 351.84 256.45 469.8 188.35 474.55 191.09"/>
              <polygon class="cls-6" points="482.13 195.47 364.17 263.57 359.43 260.83 477.38 192.73 482.13 195.47"/>
              <polygon class="cls-6" points="334.47 241.01 329.72 243.75 324.97 241.01 329.72 238.27 334.47 241.01"/>
              <polygon class="cls-6" points="351.22 244.78 341.37 250.47 336.62 247.73 346.47 242.04 351.22 244.78"/>
            </g>
            <path class="cls-24" d="M446.52,257.37l33.16-19.14c1.3-.75,1.3-1.96,0-2.71l-22.67-13.09c-1.3-.75-3.4-.75-4.69,0l-33.16,19.14c-1.3.75-1.3,1.96,0,2.71l22.67,13.09c1.3.75,3.4.75,4.69,0Z"/>
            <path class="cls-32" d="M419.15,242.68l33.16-19.14c1.3-.75,3.4-.75,4.69,0l22.67,13.09c.4.23.66.51.81.8.34-.65.08-1.39-.81-1.91l-22.67-13.09c-1.3-.75-3.4-.75-4.69,0l-33.16,19.14c-.9.52-1.16,1.25-.81,1.91.15-.29.41-.57.81-.8Z"/>
          </g>
        </g>
        <g class="cls-46">
          <g class="cls-49">
            <g>
              <path class="cls-13" d="M444.31,156.2l-147.97,85.43c-1.62.94-4.07,1.04-5.47.23l-88.3-50.98c-1.4-.81-1.23-2.22.39-3.16l147.97-85.43c1.62-.94,4.07-1.04,5.47-.23l88.3,50.98c1.4.81,1.23,2.22-.39,3.16Z"/>
              <path class="cls-2" d="M295.9,171.52l33.16-19.14c1.3-.75,1.3-1.96,0-2.71l-22.67-13.09c-1.3-.75-3.4-.75-4.69,0l-33.16,19.14c-1.3.75-1.3,1.96,0,2.71l22.67,13.09c1.3.75,3.4.75,4.69,0Z"/>
              <path class="cls-32" d="M268.53,156.82l33.16-19.14c1.3-.75,3.4-.75,4.69,0l22.67,13.09c.4.23.66.51.81.8.34-.65.08-1.39-.81-1.91l-22.67-13.09c-1.3-.75-3.4-.75-4.69,0l-33.16,19.14c-.9.52-1.16,1.25-.81,1.91.15-.29.41-.57.81-.8Z"/>
              <g>
                <path class="cls-7" d="M253.96,201.43l122.96-70.99c.82-.47,1.83-.47,2.65,0l43.79,25.33c.63.36.63,1.27,0,1.63l-122.91,70.96c-.82.47-1.83.47-2.65,0l-43.85-25.3c-.63-.36-.63-1.27,0-1.64Z"/>
                <path class="cls-32" d="M253.96,203.07l.44.25,122.52-70.74c.82-.47,1.83-.47,2.65,0l43.35,25.08.44-.25c.63-.36.63-1.27,0-1.63l-43.79-25.33c-.82-.47-1.83-.47-2.65,0l-122.96,70.99c-.63.36-.63,1.27,0,1.64Z"/>
                <g>
                  <polygon class="cls-6" points="411.9 154.04 304.78 215.89 309.02 218.34 416.14 156.49 411.9 154.04"/>
                  <polygon class="cls-6" points="400.61 147.53 298.79 206.31 303.04 208.76 404.86 149.98 400.61 147.53"/>
                  <polygon class="cls-6" points="291.19 210.7 281.68 216.19 285.92 218.64 295.43 213.15 291.19 210.7"/>
                  <polygon class="cls-6" points="299.59 218.89 292.97 222.71 297.21 225.16 303.83 221.34 299.59 218.89"/>
                  <polygon class="cls-6" points="393.54 143.44 274.61 212.11 278.85 214.56 397.78 145.89 393.54 143.44"/>
                  <polygon class="cls-6" points="386.47 139.36 267.54 208.03 271.78 210.48 390.71 141.81 386.47 139.36"/>
                  <polygon class="cls-6" points="379.39 135.28 260.46 203.94 264.71 206.39 383.64 137.73 379.39 135.28"/>
                </g>
              </g>
            </g>
          </g>
        </g>
      </g>
      <polygon class="cls-21" points="375.8 233.87 343.92 214.25 415.59 172.87 449.41 195.61 375.8 233.87"/>
      <polygon class="cls-36" points="343.92 214.25 336.62 168.13 403.88 129.55 403.88 179.54 343.92 214.25"/>
      <g>
        <polygon class="cls-9" points="338.68 111.09 346.3 106.76 346.04 105.11 338.43 109.44 338.68 111.09"/>
        <polygon class="cls-9" points="334.78 113.31 337.52 111.75 337.26 110.1 334.52 111.66 334.78 113.31"/>
        <polygon class="cls-9" points="331.75 115.03 333.61 113.97 333.36 112.33 331.49 113.39 331.75 115.03"/>
        <polygon class="cls-9" points="342.74 112.88 346.89 110.52 346.63 108.87 342.48 111.24 342.74 112.88"/>
        <polygon class="cls-9" points="336.49 116.44 341.58 113.55 341.32 111.9 336.23 114.79 336.49 116.44"/>
        <polygon class="cls-9" points="333.46 118.16 335.33 117.1 335.07 115.45 333.21 116.51 333.46 118.16"/>
        <polygon class="cls-9" points="330.58 119.8 332.45 118.74 332.19 117.09 330.32 118.15 330.58 119.8"/>
        <polygon class="cls-31" points="344.48 116 347.49 114.29 347.23 112.64 344.22 114.35 344.48 116"/>
        <polygon class="cls-31" points="342.29 117.24 343.32 116.66 343.06 115.01 342.03 115.59 342.29 117.24"/>
        <polygon class="cls-9" points="339.26 118.96 341.13 117.9 340.87 116.25 339.01 117.31 339.26 118.96"/>
        <polygon class="cls-9" points="336.99 124.36 348.08 118.05 347.82 116.4 336.73 122.71 336.99 124.36"/>
        <polygon class="cls-9" points="333.08 126.58 335.83 125.02 335.57 123.37 332.83 124.93 333.08 126.58"/>
        <polygon class="cls-9" points="345.66 123.52 348.67 121.82 348.41 120.17 345.41 121.88 345.66 123.52"/>
        <polygon class="cls-9" points="338.62 127.53 344.5 124.19 344.24 122.54 338.36 125.88 338.62 127.53"/>
        <polygon class="cls-9" points="335.59 129.25 337.45 128.19 337.19 126.55 335.33 127.61 335.59 129.25"/>
        <polygon class="cls-9" points="343.11 129.07 349.26 125.58 349 123.93 342.86 127.43 343.11 129.07"/>
        <polygon class="cls-31" points="337.51 132.26 341.95 129.74 341.69 128.09 337.25 130.62 337.51 132.26"/>
        <polygon class="cls-9" points="333.34 134.63 336.34 132.93 336.08 131.28 333.08 132.99 333.34 134.63"/>
        <polygon class="cls-9" points="347.78 130.52 349.85 129.34 349.59 127.7 347.52 128.88 347.78 130.52"/>
        <polygon class="cls-9" points="343.87 132.75 346.61 131.19 346.35 129.54 343.61 131.1 343.87 132.75"/>
        <polygon class="cls-9" points="338.29 135.92 342.7 133.41 342.45 131.76 338.03 134.27 338.29 135.92"/>
        <polygon class="cls-9" points="344.08 136.72 350.44 133.11 350.18 131.46 343.83 135.08 344.08 136.72"/>
        <polygon class="cls-9" points="336.96 140.77 342.92 137.39 342.66 135.74 336.71 139.13 336.96 140.77"/>
        <polygon class="cls-31" points="333.94 142.5 335.8 141.44 335.54 139.79 333.68 140.85 333.94 142.5"/>
        <polygon class="cls-9" points="331.03 144.15 332.89 143.09 332.64 141.44 330.77 142.5 331.03 144.15"/>
        <polygon class="cls-9" points="347.22 139.04 351.03 136.87 350.77 135.23 346.97 137.39 347.22 139.04"/>
        <polygon class="cls-31" points="326.56 117.98 321.28 120.99 321.02 119.34 326.3 116.34 326.56 117.98"/>
        <polygon class="cls-9" points="326.02 122.39 321.87 124.75 321.61 123.1 325.76 120.74 326.02 122.39"/>
        <polygon class="cls-9" points="325.47 126.81 322.46 128.52 322.21 126.87 325.21 125.16 325.47 126.81"/>
        <polygon class="cls-9" points="327.42 129.8 323.06 132.28 322.8 130.63 327.17 128.15 327.42 129.8"/>
        <polygon class="cls-9" points="326.65 134.34 323.65 136.05 323.39 134.4 326.39 132.69 326.65 134.34"/>
        <polygon class="cls-9" points="328.05 137.64 324.24 139.81 323.98 138.16 327.79 136 328.05 137.64"/>
        <polygon class="cls-9" points="326.9 142.39 324.83 143.57 324.57 141.93 326.65 140.75 326.9 142.39"/>
        <polygon class="cls-9" points="329.44 145.05 325.42 147.34 325.16 145.69 329.18 143.4 329.44 145.05"/>
        <polygon class="cls-9" points="329.82 148.94 326.01 151.1 325.75 149.45 329.56 147.29 329.82 148.94"/>
        <polygon class="cls-9" points="344.44 140.62 346.06 139.7 345.8 138.05 344.18 138.97 344.44 140.62"/>
        <polygon class="cls-9" points="339.63 143.36 343.28 141.28 343.02 139.64 339.37 141.71 339.63 143.36"/>
        <polygon class="cls-9" points="309.13 127.83 316.75 123.49 316.49 121.85 308.87 126.18 309.13 127.83"/>
        <polygon class="cls-9" points="305.23 130.05 307.97 128.49 307.71 126.84 304.97 128.4 305.23 130.05"/>
        <polygon class="cls-31" points="302.2 131.77 304.06 130.71 303.8 129.06 301.94 130.12 302.2 131.77"/>
        <polygon class="cls-9" points="313.19 129.62 317.34 127.26 317.08 125.61 312.93 127.97 313.19 129.62"/>
        <polygon class="cls-9" points="306.94 133.17 312.03 130.28 311.77 128.63 306.68 131.53 306.94 133.17"/>
        <polygon class="cls-31" points="303.91 134.9 305.78 133.84 305.52 132.19 303.65 133.25 303.91 134.9"/>
        <polygon class="cls-9" points="301.03 136.53 302.9 135.47 302.64 133.83 300.77 134.89 301.03 136.53"/>
        <polygon class="cls-9" points="314.93 132.73 317.93 131.02 317.68 129.37 314.67 131.08 314.93 132.73"/>
        <polygon class="cls-9" points="312.74 133.98 313.77 133.39 313.51 131.74 312.48 132.33 312.74 133.98"/>
        <polygon class="cls-9" points="309.71 135.7 311.58 134.64 311.32 132.99 309.45 134.05 309.71 135.7"/>
        <polygon class="cls-9" points="307.44 141.09 318.53 134.79 318.27 133.14 307.18 139.44 307.44 141.09"/>
        <polygon class="cls-9" points="303.53 143.31 306.28 141.75 306.02 140.1 303.27 141.66 303.53 143.31"/>
        <polygon class="cls-9" points="316.11 140.26 319.12 138.55 318.86 136.9 315.85 138.61 316.11 140.26"/>
        <polygon class="cls-9" points="309.07 144.27 314.95 140.92 314.69 139.27 308.81 142.62 309.07 144.27"/>
        <polygon class="cls-9" points="306.04 145.99 307.9 144.93 307.64 143.28 305.78 144.34 306.04 145.99"/>
        <polygon class="cls-31" points="313.56 145.81 319.71 142.32 319.45 140.67 313.3 144.16 313.56 145.81"/>
        <polygon class="cls-9" points="307.96 149 312.4 146.47 312.14 144.82 307.7 147.35 307.96 149"/>
        <polygon class="cls-9" points="303.79 151.37 306.79 149.66 306.53 148.01 303.53 149.72 303.79 151.37"/>
        <polygon class="cls-9" points="318.22 147.26 320.3 146.08 320.04 144.43 317.97 145.61 318.22 147.26"/>
        <polygon class="cls-9" points="314.32 149.48 317.06 147.92 316.8 146.27 314.06 147.83 314.32 149.48"/>
        <polygon class="cls-31" points="308.73 152.66 313.15 150.14 312.89 148.5 308.48 151.01 308.73 152.66"/>
        <polygon class="cls-9" points="314.53 153.46 320.89 149.84 320.63 148.2 314.27 151.81 314.53 153.46"/>
        <polygon class="cls-9" points="307.41 157.51 313.37 154.12 313.11 152.47 307.15 155.86 307.41 157.51"/>
        <polygon class="cls-9" points="304.39 159.23 306.25 158.17 305.99 156.52 304.13 157.58 304.39 159.23"/>
        <polygon class="cls-9" points="301.48 160.88 303.34 159.82 303.08 158.18 301.22 159.24 301.48 160.88"/>
        <polygon class="cls-9" points="317.67 155.77 321.48 153.61 321.22 151.96 317.41 154.13 317.67 155.77"/>
        <polygon class="cls-31" points="297.01 134.72 291.73 137.72 291.47 136.08 296.75 133.07 297.01 134.72"/>
        <polygon class="cls-9" points="296.47 139.13 292.32 141.49 292.06 139.84 296.21 137.48 296.47 139.13"/>
        <polygon class="cls-9" points="295.92 143.54 292.91 145.25 292.65 143.6 295.66 141.9 295.92 143.54"/>
        <polygon class="cls-9" points="297.87 146.53 293.5 149.02 293.25 147.37 297.61 144.88 297.87 146.53"/>
        <polygon class="cls-9" points="297.1 151.07 294.1 152.78 293.84 151.13 296.84 149.42 297.1 151.07"/>
        <polygon class="cls-9" points="298.5 154.38 294.69 156.55 294.43 154.9 298.24 152.73 298.5 154.38"/>
        <polygon class="cls-9" points="297.35 159.13 295.28 160.31 295.02 158.66 297.09 157.48 297.35 159.13"/>
        <polygon class="cls-9" points="299.89 161.79 295.87 164.07 295.61 162.43 299.63 160.14 299.89 161.79"/>
        <polygon class="cls-9" points="300.27 165.67 296.46 167.84 296.2 166.19 300.01 164.02 300.27 165.67"/>
        <polygon class="cls-31" points="314.89 157.36 316.51 156.44 316.25 154.79 314.63 155.71 314.89 157.36"/>
        <polygon class="cls-9" points="310.08 160.09 313.73 158.02 313.47 156.37 309.82 158.45 310.08 160.09"/>
        <polygon class="cls-9" points="344.01 144.99 351.63 140.66 351.37 139.01 343.75 143.34 344.01 144.99"/>
        <polygon class="cls-9" points="340.1 147.21 342.85 145.65 342.59 144.01 339.84 145.57 340.1 147.21"/>
        <polygon class="cls-9" points="337.08 148.94 338.94 147.88 338.68 146.23 336.82 147.29 337.08 148.94"/>
        <polygon class="cls-9" points="348.07 146.78 352.22 144.42 351.96 142.78 347.81 145.14 348.07 146.78"/>
        <polygon class="cls-9" points="341.82 150.34 346.9 147.45 346.65 145.8 341.56 148.69 341.82 150.34"/>
        <polygon class="cls-9" points="338.79 152.06 340.65 151 340.4 149.35 338.53 150.41 338.79 152.06"/>
        <polygon class="cls-9" points="335.91 153.7 337.77 152.64 337.51 150.99 335.65 152.05 335.91 153.7"/>
        <polygon class="cls-9" points="349.81 149.9 352.81 148.19 352.55 146.54 349.55 148.25 349.81 149.9"/>
        <polygon class="cls-9" points="347.62 151.14 348.64 150.56 348.38 148.91 347.36 149.49 347.62 151.14"/>
        <polygon class="cls-9" points="344.59 152.86 346.45 151.8 346.19 150.16 344.33 151.22 344.59 152.86"/>
        <polygon class="cls-9" points="342.32 158.26 353.4 151.95 353.14 150.3 342.06 156.61 342.32 158.26"/>
        <polygon class="cls-9" points="338.41 160.48 341.15 158.92 340.89 157.27 338.15 158.83 338.41 160.48"/>
        <polygon class="cls-9" points="350.99 157.42 353.99 155.72 353.73 154.07 350.73 155.78 350.99 157.42"/>
        <polygon class="cls-9" points="343.94 161.43 349.83 158.09 349.57 156.44 343.68 159.79 343.94 161.43"/>
        <polygon class="cls-9" points="340.91 163.16 342.78 162.1 342.52 160.45 340.66 161.51 340.91 163.16"/>
        <polygon class="cls-9" points="348.44 162.98 354.58 159.48 354.33 157.83 348.18 161.33 348.44 162.98"/>
        <polygon class="cls-9" points="342.83 166.17 347.28 163.64 347.02 161.99 342.57 164.52 342.83 166.17"/>
        <polygon class="cls-9" points="338.67 168.53 341.67 166.83 341.41 165.18 338.41 166.89 338.67 168.53"/>
        <polygon class="cls-9" points="353.1 164.43 355.18 163.25 354.92 161.6 352.84 162.78 353.1 164.43"/>
        <polygon class="cls-9" points="349.19 166.65 351.94 165.09 351.68 163.44 348.94 165 349.19 166.65"/>
        <polygon class="cls-9" points="343.61 169.82 348.03 167.31 347.77 165.66 343.35 168.18 343.61 169.82"/>
        <polygon class="cls-9" points="349.41 170.63 355.77 167.01 355.51 165.36 349.15 168.98 349.41 170.63"/>
        <polygon class="cls-9" points="342.29 174.68 348.25 171.29 347.99 169.64 342.03 173.03 342.29 174.68"/>
        <polygon class="cls-9" points="339.26 176.4 341.13 175.34 340.87 173.69 339 174.75 339.26 176.4"/>
        <polygon class="cls-9" points="336.36 178.05 338.22 176.99 337.96 175.34 336.1 176.4 336.36 178.05"/>
        <polygon class="cls-9" points="352.55 172.94 356.36 170.77 356.1 169.13 352.29 171.29 352.55 172.94"/>
        <polygon class="cls-9" points="331.89 151.89 326.61 154.89 326.35 153.24 331.63 150.24 331.89 151.89"/>
        <polygon class="cls-9" points="331.35 156.29 327.2 158.65 326.94 157.01 331.09 154.64 331.35 156.29"/>
        <polygon class="cls-9" points="330.79 160.71 327.79 162.42 327.53 160.77 330.53 159.06 330.79 160.71"/>
        <polygon class="cls-9" points="332.75 163.7 328.38 166.18 328.12 164.53 332.49 162.05 332.75 163.7"/>
        <polygon class="cls-9" points="331.98 168.24 328.97 169.95 328.71 168.3 331.72 166.59 331.98 168.24"/>
        <polygon class="cls-9" points="333.37 171.54 329.56 173.71 329.3 172.06 333.11 169.9 333.37 171.54"/>
        <polygon class="cls-9" points="332.23 176.29 330.16 177.48 329.9 175.83 331.97 174.65 332.23 176.29"/>
        <polygon class="cls-9" points="334.77 178.95 330.75 181.24 330.49 179.59 334.51 177.3 334.77 178.95"/>
        <polygon class="cls-9" points="335.15 182.84 331.34 185 331.08 183.36 334.89 181.19 335.15 182.84"/>
        <polygon class="cls-9" points="349.77 174.52 351.39 173.6 351.13 171.95 349.51 172.88 349.77 174.52"/>
        <polygon class="cls-9" points="344.96 177.26 348.6 175.19 348.34 173.54 344.7 175.61 344.96 177.26"/>
        <polygon class="cls-9" points="343.66 189.92 349.81 186.42 349.55 184.77 343.4 188.27 343.66 189.92"/>
        <polygon class="cls-9" points="339.45 192.32 341.87 190.94 341.61 189.29 339.19 190.67 339.45 192.32"/>
        <polygon class="cls-9" points="314.46 161.73 322.08 157.39 321.82 155.75 314.2 160.08 314.46 161.73"/>
        <polygon class="cls-9" points="310.55 163.95 313.3 162.39 313.04 160.74 310.29 162.3 310.55 163.95"/>
        <polygon class="cls-9" points="307.52 165.67 309.39 164.61 309.13 162.96 307.27 164.02 307.52 165.67"/>
        <polygon class="cls-9" points="318.52 163.52 322.67 161.16 322.41 159.51 318.26 161.87 318.52 163.52"/>
        <polygon class="cls-9" points="312.27 167.07 317.35 164.18 317.09 162.53 312.01 165.43 312.27 167.07"/>
        <polygon class="cls-9" points="309.24 168.8 311.1 167.74 310.84 166.09 308.98 167.15 309.24 168.8"/>
        <polygon class="cls-9" points="306.36 170.43 308.22 169.37 307.96 167.73 306.1 168.79 306.36 170.43"/>
        <polygon class="cls-9" points="320.26 166.63 323.26 164.92 323 163.28 320 164.98 320.26 166.63"/>
        <polygon class="cls-9" points="318.07 167.88 319.09 167.29 318.83 165.65 317.81 166.23 318.07 167.88"/>
        <polygon class="cls-9" points="315.04 169.6 316.9 168.54 316.64 166.89 314.78 167.95 315.04 169.6"/>
        <polygon class="cls-9" points="312.77 174.99 323.85 168.69 323.59 167.04 312.51 173.34 312.77 174.99"/>
        <polygon class="cls-9" points="308.86 177.21 311.6 175.65 311.34 174.01 308.6 175.57 308.86 177.21"/>
        <polygon class="cls-9" points="321.44 174.16 324.44 172.45 324.18 170.8 321.18 172.51 321.44 174.16"/>
        <polygon class="cls-9" points="314.39 178.17 320.28 174.82 320.02 173.17 314.13 176.52 314.39 178.17"/>
        <polygon class="cls-9" points="311.36 179.89 313.23 178.83 312.97 177.18 311.1 178.24 311.36 179.89"/>
        <polygon class="cls-9" points="318.89 179.71 325.03 176.22 324.77 174.57 318.63 178.06 318.89 179.71"/>
        <polygon class="cls-9" points="313.28 182.9 317.72 180.37 317.47 178.73 313.02 181.25 313.28 182.9"/>
        <polygon class="cls-9" points="309.11 185.27 312.12 183.56 311.86 181.91 308.86 183.62 309.11 185.27"/>
        <polygon class="cls-9" points="323.55 181.16 325.63 179.98 325.37 178.33 323.29 179.51 323.55 181.16"/>
        <polygon class="cls-9" points="319.64 183.38 322.39 181.82 322.13 180.18 319.38 181.74 319.64 183.38"/>
        <polygon class="cls-9" points="314.06 186.56 318.48 184.05 318.22 182.4 313.8 184.91 314.06 186.56"/>
        <polygon class="cls-9" points="319.86 187.36 326.22 183.75 325.96 182.1 319.6 185.71 319.86 187.36"/>
        <polygon class="cls-9" points="312.74 191.41 318.7 188.02 318.44 186.37 312.48 189.76 312.74 191.41"/>
        <polygon class="cls-9" points="309.71 193.13 311.57 192.07 311.32 190.42 309.45 191.48 309.71 193.13"/>
        <polygon class="cls-9" points="306.81 194.78 308.67 193.72 308.41 192.08 306.55 193.14 306.81 194.78"/>
        <polygon class="cls-9" points="323 189.68 326.81 187.51 326.55 185.86 322.74 188.03 323 189.68"/>
        <polygon class="cls-9" points="302.34 168.62 297.06 171.62 296.8 169.98 302.08 166.97 302.34 168.62"/>
        <polygon class="cls-9" points="301.8 173.03 297.65 175.39 297.39 173.74 301.54 171.38 301.8 173.03"/>
        <polygon class="cls-9" points="301.24 177.45 298.24 179.15 297.98 177.51 300.98 175.8 301.24 177.45"/>
        <polygon class="cls-9" points="303.2 180.43 298.83 182.92 298.57 181.27 302.94 178.79 303.2 180.43"/>
        <polygon class="cls-9" points="302.42 184.97 299.42 186.68 299.16 185.03 302.17 183.33 302.42 184.97"/>
        <polygon class="cls-9" points="303.82 188.28 300.01 190.45 299.75 188.8 303.56 186.63 303.82 188.28"/>
        <polygon class="cls-9" points="302.68 193.03 300.6 194.21 300.35 192.56 302.42 191.38 302.68 193.03"/>
        <polygon class="cls-9" points="305.22 195.69 301.2 197.97 300.94 196.33 304.96 194.04 305.22 195.69"/>
        <polygon class="cls-9" points="305.6 199.57 301.79 201.74 301.53 200.09 305.34 197.93 305.6 199.57"/>
        <polygon class="cls-9" points="320.22 191.26 321.83 190.34 321.58 188.69 319.96 189.61 320.22 191.26"/>
        <polygon class="cls-9" points="315.41 193.99 319.05 191.92 318.79 190.27 315.15 192.35 315.41 193.99"/>
        <polygon class="cls-9" points="314.11 206.66 320.26 203.16 320 201.51 313.85 205.01 314.11 206.66"/>
        <polygon class="cls-9" points="309.89 209.05 312.32 207.68 312.06 206.03 309.64 207.41 309.89 209.05"/>
      </g>
      <g>
        <polygon class="cls-9" points="409.7 70.34 417.32 66.01 417.06 64.36 409.45 68.7 409.7 70.34"/>
        <polygon class="cls-9" points="405.8 72.57 408.54 71.01 408.28 69.36 405.54 70.92 405.8 72.57"/>
        <polygon class="cls-9" points="402.77 74.29 404.63 73.23 404.38 71.58 402.51 72.64 402.77 74.29"/>
        <polygon class="cls-9" points="413.76 72.14 417.91 69.78 417.66 68.13 413.5 70.49 413.76 72.14"/>
        <polygon class="cls-9" points="407.51 75.69 412.6 72.8 412.34 71.15 407.25 74.04 407.51 75.69"/>
        <polygon class="cls-9" points="404.49 77.41 406.35 76.35 406.09 74.71 404.23 75.77 404.49 77.41"/>
        <polygon class="cls-9" points="401.6 79.05 403.47 77.99 403.21 76.34 401.35 77.4 401.6 79.05"/>
        <polygon class="cls-31" points="415.5 75.25 418.51 73.54 418.25 71.89 415.24 73.6 415.5 75.25"/>
        <polygon class="cls-31" points="413.31 76.49 414.34 75.91 414.08 74.26 413.05 74.85 413.31 76.49"/>
        <polygon class="cls-9" points="410.28 78.22 412.15 77.16 411.89 75.51 410.03 76.57 410.28 78.22"/>
        <polygon class="cls-9" points="408.01 83.61 419.1 77.31 418.84 75.66 407.75 81.96 408.01 83.61"/>
        <polygon class="cls-9" points="404.11 85.83 406.85 84.27 406.59 82.62 403.85 84.18 404.11 85.83"/>
        <polygon class="cls-9" points="416.69 82.78 419.69 81.07 419.43 79.42 416.43 81.13 416.69 82.78"/>
        <polygon class="cls-9" points="409.64 86.79 415.52 83.44 415.26 81.79 409.38 85.14 409.64 86.79"/>
        <polygon class="cls-9" points="406.61 88.51 408.47 87.45 408.21 85.8 406.35 86.86 406.61 88.51"/>
        <polygon class="cls-9" points="414.13 88.33 420.28 84.83 420.02 83.19 413.88 86.68 414.13 88.33"/>
        <polygon class="cls-31" points="408.53 91.52 412.97 88.99 412.71 87.34 408.27 89.87 408.53 91.52"/>
        <polygon class="cls-9" points="404.36 93.89 407.36 92.18 407.1 90.53 404.1 92.24 404.36 93.89"/>
        <polygon class="cls-9" points="418.8 89.78 420.87 88.6 420.61 86.95 418.54 88.13 418.8 89.78"/>
        <polygon class="cls-9" points="414.89 92 417.63 90.44 417.37 88.79 414.63 90.35 414.89 92"/>
        <polygon class="cls-9" points="409.31 95.18 413.73 92.66 413.47 91.01 409.05 93.53 409.31 95.18"/>
        <polygon class="cls-9" points="415.1 95.98 421.46 92.36 421.2 90.72 414.85 94.33 415.1 95.98"/>
        <polygon class="cls-9" points="407.98 100.03 413.94 96.64 413.68 94.99 407.73 98.38 407.98 100.03"/>
        <polygon class="cls-31" points="404.96 101.75 406.82 100.69 406.56 99.04 404.7 100.1 404.96 101.75"/>
        <polygon class="cls-9" points="402.05 103.4 403.92 102.34 403.66 100.69 401.79 101.75 402.05 103.4"/>
        <polygon class="cls-9" points="418.24 98.29 422.05 96.13 421.79 94.48 417.99 96.65 418.24 98.29"/>
        <polygon class="cls-31" points="397.58 77.24 392.3 80.24 392.04 78.59 397.33 75.59 397.58 77.24"/>
        <polygon class="cls-9" points="397.04 81.65 392.89 84.01 392.63 82.36 396.79 80 397.04 81.65"/>
        <polygon class="cls-9" points="396.49 86.06 393.48 87.77 393.23 86.12 396.23 84.41 396.49 86.06"/>
        <polygon class="cls-9" points="398.44 89.05 394.08 91.53 393.82 89.89 398.19 87.4 398.44 89.05"/>
        <polygon class="cls-9" points="397.67 93.59 394.67 95.3 394.41 93.65 397.41 91.94 397.67 93.59"/>
        <polygon class="cls-9" points="399.07 96.9 395.26 99.06 395 97.42 398.81 95.25 399.07 96.9"/>
        <polygon class="cls-9" points="397.93 101.65 395.85 102.83 395.59 101.18 397.67 100 397.93 101.65"/>
        <polygon class="cls-9" points="400.46 104.31 396.44 106.59 396.18 104.94 400.2 102.66 400.46 104.31"/>
        <polygon class="cls-9" points="400.84 108.19 397.03 110.36 396.77 108.71 400.58 106.54 400.84 108.19"/>
        <polygon class="cls-9" points="415.46 99.88 417.08 98.96 416.82 97.31 415.2 98.23 415.46 99.88"/>
        <polygon class="cls-9" points="410.65 102.61 414.3 100.54 414.04 98.89 410.39 100.96 410.65 102.61"/>
        <polygon class="cls-9" points="380.15 87.08 387.77 82.75 387.51 81.1 379.89 85.43 380.15 87.08"/>
        <polygon class="cls-9" points="376.25 89.3 378.99 87.74 378.73 86.09 375.99 87.65 376.25 89.3"/>
        <polygon class="cls-31" points="373.22 91.02 375.08 89.96 374.82 88.32 372.96 89.38 373.22 91.02"/>
        <polygon class="cls-9" points="384.21 88.87 388.36 86.51 388.1 84.86 383.95 87.22 384.21 88.87"/>
        <polygon class="cls-9" points="377.96 92.43 383.05 89.53 382.79 87.89 377.7 90.78 377.96 92.43"/>
        <polygon class="cls-31" points="374.93 94.15 376.8 93.09 376.54 91.44 374.68 92.5 374.93 94.15"/>
        <polygon class="cls-9" points="372.05 95.79 373.92 94.73 373.66 93.08 371.79 94.14 372.05 95.79"/>
        <polygon class="cls-9" points="385.95 91.98 388.95 90.28 388.7 88.63 385.69 90.34 385.95 91.98"/>
        <polygon class="cls-9" points="383.76 93.23 384.79 92.65 384.53 91 383.5 91.58 383.76 93.23"/>
        <polygon class="cls-9" points="380.73 94.95 382.6 93.89 382.34 92.24 380.47 93.3 380.73 94.95"/>
        <polygon class="cls-9" points="378.46 100.34 389.55 94.04 389.29 92.39 378.2 98.7 378.46 100.34"/>
        <polygon class="cls-9" points="374.55 102.57 377.3 101.01 377.04 99.36 374.3 100.92 374.55 102.57"/>
        <polygon class="cls-9" points="387.13 99.51 390.14 97.81 389.88 96.16 386.87 97.87 387.13 99.51"/>
        <polygon class="cls-9" points="380.09 103.52 385.97 100.18 385.71 98.53 379.83 101.87 380.09 103.52"/>
        <polygon class="cls-9" points="377.06 105.24 378.92 104.18 378.66 102.54 376.8 103.6 377.06 105.24"/>
        <polygon class="cls-31" points="384.58 105.06 390.73 101.57 390.47 99.92 384.32 103.42 384.58 105.06"/>
        <polygon class="cls-9" points="378.98 108.25 383.42 105.73 383.16 104.08 378.72 106.61 378.98 108.25"/>
        <polygon class="cls-9" points="374.81 110.62 377.81 108.92 377.55 107.27 374.55 108.98 374.81 110.62"/>
        <polygon class="cls-9" points="389.24 106.51 391.32 105.33 391.06 103.69 388.99 104.87 389.24 106.51"/>
        <polygon class="cls-9" points="385.34 108.74 388.08 107.18 387.82 105.53 385.08 107.09 385.34 108.74"/>
        <polygon class="cls-31" points="379.75 111.91 384.17 109.4 383.92 107.75 379.5 110.26 379.75 111.91"/>
        <polygon class="cls-9" points="385.55 112.71 391.91 109.1 391.65 107.45 385.29 111.07 385.55 112.71"/>
        <polygon class="cls-9" points="378.43 116.76 384.39 113.38 384.13 111.73 378.17 115.12 378.43 116.76"/>
        <polygon class="cls-9" points="375.41 118.49 377.27 117.43 377.01 115.78 375.15 116.84 375.41 118.49"/>
        <polygon class="cls-9" points="372.5 120.14 374.36 119.08 374.1 117.43 372.24 118.49 372.5 120.14"/>
        <polygon class="cls-9" points="388.69 115.03 392.5 112.86 392.24 111.21 388.43 113.38 388.69 115.03"/>
        <polygon class="cls-31" points="368.03 93.97 362.75 96.98 362.49 95.33 367.77 92.33 368.03 93.97"/>
        <polygon class="cls-9" points="367.49 98.38 363.34 100.74 363.08 99.09 367.23 96.73 367.49 98.38"/>
        <polygon class="cls-9" points="366.94 102.8 363.93 104.51 363.67 102.86 366.68 101.15 366.94 102.8"/>
        <polygon class="cls-9" points="368.89 105.79 364.52 108.27 364.27 106.62 368.63 104.14 368.89 105.79"/>
        <polygon class="cls-9" points="368.12 110.33 365.12 112.03 364.86 110.39 367.86 108.68 368.12 110.33"/>
        <polygon class="cls-9" points="369.52 113.63 365.71 115.8 365.45 114.15 369.26 111.99 369.52 113.63"/>
        <polygon class="cls-9" points="368.37 118.38 366.3 119.56 366.04 117.92 368.12 116.74 368.37 118.38"/>
        <polygon class="cls-9" points="370.91 121.04 366.89 123.33 366.63 121.68 370.65 119.39 370.91 121.04"/>
        <polygon class="cls-9" points="371.29 124.93 367.48 127.09 367.22 125.44 371.03 123.28 371.29 124.93"/>
        <polygon class="cls-31" points="385.91 116.61 387.53 115.69 387.27 114.04 385.65 114.96 385.91 116.61"/>
        <polygon class="cls-9" points="381.1 119.35 384.75 117.27 384.49 115.63 380.84 117.7 381.1 119.35"/>
        <polygon class="cls-9" points="415.03 104.25 422.65 99.91 422.39 98.27 414.77 102.6 415.03 104.25"/>
        <polygon class="cls-9" points="411.12 106.47 413.87 104.91 413.61 103.26 410.87 104.82 411.12 106.47"/>
        <polygon class="cls-9" points="408.1 108.19 409.96 107.13 409.7 105.48 407.84 106.54 408.1 108.19"/>
        <polygon class="cls-9" points="419.09 106.04 423.24 103.68 422.98 102.03 418.83 104.39 419.09 106.04"/>
        <polygon class="cls-9" points="412.84 109.59 417.93 106.7 417.67 105.05 412.58 107.95 412.84 109.59"/>
        <polygon class="cls-9" points="409.81 111.32 411.67 110.26 411.42 108.61 409.55 109.67 409.81 111.32"/>
        <polygon class="cls-9" points="406.93 112.95 408.79 111.89 408.53 110.25 406.67 111.31 406.93 112.95"/>
        <polygon class="cls-9" points="420.83 109.15 423.83 107.44 423.57 105.79 420.57 107.5 420.83 109.15"/>
        <polygon class="cls-9" points="418.64 110.4 419.66 109.81 419.41 108.16 418.38 108.75 418.64 110.4"/>
        <polygon class="cls-9" points="415.61 112.12 417.47 111.06 417.21 109.41 415.35 110.47 415.61 112.12"/>
        <polygon class="cls-9" points="413.34 117.51 424.42 111.21 424.16 109.56 413.08 115.86 413.34 117.51"/>
        <polygon class="cls-9" points="409.43 119.73 412.17 118.17 411.91 116.52 409.17 118.08 409.43 119.73"/>
        <polygon class="cls-9" points="422.01 116.68 425.01 114.97 424.76 113.32 421.75 115.03 422.01 116.68"/>
        <polygon class="cls-9" points="414.96 120.69 420.85 117.34 420.59 115.69 414.7 119.04 414.96 120.69"/>
        <polygon class="cls-9" points="411.93 122.41 413.8 121.35 413.54 119.7 411.68 120.76 411.93 122.41"/>
        <polygon class="cls-9" points="419.46 122.23 425.61 118.74 425.35 117.09 419.2 120.58 419.46 122.23"/>
        <polygon class="cls-9" points="413.85 125.42 418.3 122.89 418.04 121.24 413.59 123.77 413.85 125.42"/>
        <polygon class="cls-9" points="409.69 127.79 412.69 126.08 412.43 124.43 409.43 126.14 409.69 127.79"/>
        <polygon class="cls-9" points="424.12 123.68 426.2 122.5 425.94 120.85 423.86 122.03 424.12 123.68"/>
        <polygon class="cls-9" points="420.21 125.9 422.96 124.34 422.7 122.69 419.96 124.25 420.21 125.9"/>
        <polygon class="cls-9" points="414.63 129.08 419.05 126.56 418.79 124.92 414.37 127.43 414.63 129.08"/>
        <polygon class="cls-9" points="420.43 129.88 426.79 126.26 426.53 124.62 420.17 128.23 420.43 129.88"/>
        <polygon class="cls-9" points="413.31 133.93 419.27 130.54 419.01 128.89 413.05 132.28 413.31 133.93"/>
        <polygon class="cls-9" points="410.28 135.65 412.15 134.59 411.89 132.94 410.02 134 410.28 135.65"/>
        <polygon class="cls-9" points="407.38 137.3 409.24 136.24 408.98 134.6 407.12 135.66 407.38 137.3"/>
        <polygon class="cls-9" points="423.57 132.19 427.38 130.03 427.12 128.38 423.31 130.55 423.57 132.19"/>
        <polygon class="cls-9" points="402.91 111.14 397.63 114.14 397.37 112.5 402.65 109.49 402.91 111.14"/>
        <polygon class="cls-9" points="402.37 115.55 398.22 117.91 397.96 116.26 402.11 113.9 402.37 115.55"/>
        <polygon class="cls-9" points="401.81 119.96 398.81 121.67 398.55 120.02 401.55 118.32 401.81 119.96"/>
        <polygon class="cls-9" points="403.77 122.95 399.4 125.44 399.14 123.79 403.51 121.3 403.77 122.95"/>
        <polygon class="cls-9" points="403 127.49 399.99 129.2 399.73 127.55 402.74 125.84 403 127.49"/>
        <polygon class="cls-9" points="404.39 130.8 400.58 132.96 400.33 131.32 404.13 129.15 404.39 130.8"/>
        <polygon class="cls-9" points="403.25 135.55 401.18 136.73 400.92 135.08 402.99 133.9 403.25 135.55"/>
        <polygon class="cls-9" points="405.79 138.21 401.77 140.49 401.51 138.85 405.53 136.56 405.79 138.21"/>
        <polygon class="cls-9" points="406.17 142.09 402.36 144.26 402.1 142.61 405.91 140.44 406.17 142.09"/>
        <polygon class="cls-9" points="420.79 133.78 422.41 132.86 422.15 131.21 420.53 132.13 420.79 133.78"/>
        <polygon class="cls-9" points="415.98 136.51 419.62 134.44 419.36 132.79 415.72 134.87 415.98 136.51"/>
        <polygon class="cls-9" points="414.68 149.18 420.83 145.68 420.57 144.03 414.42 147.53 414.68 149.18"/>
        <polygon class="cls-9" points="410.47 151.57 412.89 150.19 412.63 148.55 410.21 149.92 410.47 151.57"/>
        <polygon class="cls-9" points="385.48 120.98 393.1 116.65 392.84 115 385.22 119.33 385.48 120.98"/>
        <polygon class="cls-9" points="381.57 123.2 384.32 121.64 384.06 120 381.31 121.56 381.57 123.2"/>
        <polygon class="cls-9" points="378.55 124.92 380.41 123.86 380.15 122.22 378.29 123.28 378.55 124.92"/>
        <polygon class="cls-9" points="389.54 122.77 393.69 120.41 393.43 118.77 389.28 121.13 389.54 122.77"/>
        <polygon class="cls-9" points="383.29 126.33 388.37 123.44 388.12 121.79 383.03 124.68 383.29 126.33"/>
        <polygon class="cls-9" points="380.26 128.05 382.12 126.99 381.86 125.34 380 126.4 380.26 128.05"/>
        <polygon class="cls-9" points="377.38 129.69 379.24 128.63 378.98 126.98 377.12 128.04 377.38 129.69"/>
        <polygon class="cls-9" points="391.28 125.89 394.28 124.18 394.02 122.53 391.02 124.24 391.28 125.89"/>
        <polygon class="cls-9" points="389.09 127.13 390.11 126.55 389.85 124.9 388.83 125.48 389.09 127.13"/>
        <polygon class="cls-9" points="386.06 128.85 387.92 127.79 387.66 126.15 385.8 127.21 386.06 128.85"/>
        <polygon class="cls-9" points="383.79 134.25 394.87 127.94 394.61 126.29 383.53 132.6 383.79 134.25"/>
        <polygon class="cls-9" points="379.88 136.47 382.62 134.91 382.36 133.26 379.62 134.82 379.88 136.47"/>
        <polygon class="cls-9" points="392.46 133.41 395.46 131.71 395.2 130.06 392.2 131.77 392.46 133.41"/>
        <polygon class="cls-9" points="385.41 137.42 391.3 134.08 391.04 132.43 385.15 135.77 385.41 137.42"/>
        <polygon class="cls-9" points="382.38 139.14 384.25 138.08 383.99 136.44 382.12 137.5 382.38 139.14"/>
        <polygon class="cls-9" points="389.91 138.97 396.05 135.47 395.8 133.82 389.65 137.32 389.91 138.97"/>
        <polygon class="cls-9" points="384.3 142.15 388.75 139.63 388.49 137.98 384.04 140.51 384.3 142.15"/>
        <polygon class="cls-9" points="380.13 144.52 383.14 142.82 382.88 141.17 379.88 142.88 380.13 144.52"/>
        <polygon class="cls-9" points="394.57 140.42 396.65 139.24 396.39 137.59 394.31 138.77 394.57 140.42"/>
        <polygon class="cls-9" points="390.66 142.64 393.41 141.08 393.15 139.43 390.4 140.99 390.66 142.64"/>
        <polygon class="cls-9" points="385.08 145.81 389.5 143.3 389.24 141.65 384.82 144.16 385.08 145.81"/>
        <polygon class="cls-9" points="390.88 146.61 397.24 143 396.98 141.35 390.62 144.97 390.88 146.61"/>
        <polygon class="cls-9" points="383.76 150.66 389.72 147.28 389.46 145.63 383.5 149.02 383.76 150.66"/>
        <polygon class="cls-9" points="380.73 152.39 382.6 151.33 382.34 149.68 380.47 150.74 380.73 152.39"/>
        <polygon class="cls-9" points="377.83 154.04 379.69 152.98 379.43 151.33 377.57 152.39 377.83 154.04"/>
        <polygon class="cls-9" points="394.02 148.93 397.83 146.76 397.57 145.12 393.76 147.28 394.02 148.93"/>
        <polygon class="cls-9" points="373.36 127.87 368.08 130.88 367.82 129.23 373.1 126.23 373.36 127.87"/>
        <polygon class="cls-9" points="372.82 132.28 368.67 134.64 368.41 132.99 372.56 130.63 372.82 132.28"/>
        <polygon class="cls-9" points="372.26 136.7 369.26 138.41 369 136.76 372 135.05 372.26 136.7"/>
        <polygon class="cls-9" points="374.22 139.69 369.85 142.17 369.59 140.52 373.96 138.04 374.22 139.69"/>
        <polygon class="cls-9" points="373.44 144.23 370.44 145.94 370.18 144.29 373.19 142.58 373.44 144.23"/>
        <polygon class="cls-9" points="374.84 147.53 371.03 149.7 370.77 148.05 374.58 145.89 374.84 147.53"/>
        <polygon class="cls-9" points="373.7 152.28 371.62 153.46 371.37 151.82 373.44 150.64 373.7 152.28"/>
        <polygon class="cls-9" points="376.24 154.94 372.22 157.23 371.96 155.58 375.98 153.29 376.24 154.94"/>
        <polygon class="cls-9" points="376.62 158.83 372.81 160.99 372.55 159.35 376.36 157.18 376.62 158.83"/>
        <polygon class="cls-9" points="391.24 150.51 392.86 149.59 392.6 147.94 390.98 148.87 391.24 150.51"/>
        <polygon class="cls-9" points="386.43 153.25 390.07 151.17 389.81 149.53 386.17 151.6 386.43 153.25"/>
        <polygon class="cls-9" points="385.13 165.91 391.28 162.41 391.02 160.76 384.87 164.26 385.13 165.91"/>
        <polygon class="cls-9" points="380.92 168.31 383.34 166.93 383.08 165.28 380.66 166.66 380.92 168.31"/>
      </g>
      <g>
        <g>
          <path class="cls-34" d="M410.91,107.14l-7.12-4.1h0c-.09-.06-.22-.06-.36.02l-89.16,51.48c-.29.17-.53.62-.53,1.01v16.83c0,.19.06.32.15.4h0s0,0,0,0c0,0,.01,0,.02.01l7.19,4.14.06-8.13,82.27-47.5c.29-.17.53-.62.53-1.01v-5.78l6.94-7.38Z"/>
          <path class="cls-29" d="M410.6,125.41l-89.16,51.48c-.29.17-.53-.01-.53-.4v-16.83c0-.39.24-.84.53-1.01l89.16-51.48c.29-.17.53.01.53.4v16.83c0,.39-.24.84-.53,1.01Z"/>
          <path class="cls-25" d="M398.3,122.01l-69.42,40.82c2.15,1.85,4.18,3.96,6.04,6.28l69.93-40.38c-2.01-2.51-4.22-4.78-6.55-6.73Z"/>
          <path class="cls-6" d="M408.05,120.36l-84.07,48.54c-.2.11-.36,0-.36-.27v-4.23c0-.27.16-.57.36-.69l84.07-48.54c.2-.11.36,0,.36.27v4.23c0,.27-.16.57-.36.69Z"/>
          <path class="cls-40" d="M408.05,115.17l-1.71.99v2.28c0,.27-.16.57-.36.69l-82.36,47.55v1.95c0,.27.16.39.36.27l84.07-48.54c.2-.11.36-.42.36-.69v-4.23c0-.27-.16-.39-.36-.27Z"/>
        </g>
        <path class="cls-28" d="M455.28,302.48l69.94-40.38h0c-9.02-5.21-16.63-16.61-18.95-27.51-.94-4.42-3.65-8.26-7.56-10.52l-52.85-30.51c-14.72-8.5-24.26-23.8-25.26-40.77-.84-14.33-11.68-28.42-20.08-33.27h0l-69.94,40.38h0c8.28,4.78,17.4,18.14,18.44,32.23,1.25,16.97,10.48,32.32,25.21,40.83l54.55,31.49c3.91,2.26,6.62,6.1,7.56,10.52,2.32,10.9,9.93,22.3,18.95,27.51h0Z"/>
        <path class="cls-42" d="M400.52,119.52l-69.94,40.38c.56.32,1.11.67,1.67,1.04h0s69.93-40.38,69.93-40.38c-.55-.36-1.1-.71-1.66-1.04Z"/>
      </g>
      <g class="cls-48">
        <polygon class="cls-40" points="374.21 167.28 361.95 174.39 361.85 172.98 374.09 165.9 374.21 167.28"/>
        <polygon class="cls-40" points="380.4 163.7 376.06 166.21 375.94 164.83 380.27 162.33 380.4 163.7"/>
        <polygon class="cls-40" points="385.14 160.95 382.23 162.64 382.09 161.27 385 159.59 385.14 160.95"/>
        <polygon class="cls-40" points="368.92 173.71 362.18 177.64 362.08 176.22 368.81 172.3 368.92 173.71"/>
        <polygon class="cls-40" points="378.92 167.89 370.8 172.62 370.68 171.21 378.79 166.5 378.92 167.89"/>
        <polygon class="cls-40" points="383.7 165.1 380.76 166.81 380.63 165.43 383.56 163.73 383.7 165.1"/>
        <polygon class="cls-40" points="388.21 162.48 385.3 164.17 385.16 162.8 388.06 161.11 388.21 162.48"/>
        <polygon class="cls-40" points="367.32 178.05 362.41 180.92 362.31 179.48 367.21 176.62 367.32 178.05"/>
        <polygon class="cls-40" points="370.87 175.96 369.21 176.94 369.09 175.52 370.75 174.55 370.87 175.96"/>
        <polygon class="cls-40" points="375.74 173.11 372.74 174.86 372.63 173.45 375.61 171.7 375.74 173.11"/>
        <polygon class="cls-40" points="380.61 173.64 362.64 184.23 362.54 182.78 380.48 172.24 380.61 173.64"/>
        <polygon class="cls-40" points="386.8 170 382.46 172.55 382.32 171.15 386.66 168.6 386.8 170"/>
        <polygon class="cls-40" points="367.82 184.63 362.87 187.56 362.77 186.1 367.71 183.18 367.82 184.63"/>
        <polygon class="cls-40" points="379.26 177.86 369.73 183.5 369.61 182.06 379.13 176.44 379.26 177.86"/>
        <polygon class="cls-40" points="384.1 174.99 381.12 176.76 380.99 175.34 383.96 173.58 384.1 174.99"/>
        <polygon class="cls-40" points="373.23 184.9 363.11 190.92 363.01 189.45 373.1 183.45 373.23 184.9"/>
        <polygon class="cls-40" points="382.29 179.5 375.12 183.77 375 182.33 382.16 178.07 382.29 179.5"/>
        <polygon class="cls-40" points="388.94 175.55 384.16 178.39 384.02 176.97 388.79 174.14 388.94 175.55"/>
        <polygon class="cls-40" points="366.8 192.25 363.35 194.32 363.24 192.83 366.69 190.77 366.8 192.25"/>
        <polygon class="cls-40" points="373.24 188.4 368.73 191.1 368.61 189.62 373.12 186.93 373.24 188.4"/>
        <polygon class="cls-40" points="382.31 182.97 375.14 187.26 375.02 185.8 382.17 181.53 382.31 182.97"/>
        <polygon class="cls-40" points="374.14 191.39 363.59 197.74 363.48 196.24 374.01 189.92 374.14 191.39"/>
        <polygon class="cls-40" points="385.71 184.42 376.04 190.24 375.92 188.77 385.56 182.98 385.71 184.42"/>
        <polygon class="cls-40" points="390.56 181.51 387.58 183.3 387.43 181.86 390.4 180.07 390.56 181.51"/>
        <polygon class="cls-40" points="395.16 178.73 392.21 180.51 392.06 179.08 395 177.31 395.16 178.73"/>
        <polygon class="cls-40" points="370.2 197.33 363.83 201.19 363.72 199.68 370.08 195.84 370.2 197.33"/>
        <polygon class="cls-40" points="398.27 153.34 406.24 148.72 406.07 147.41 398.1 152.01 398.27 153.34"/>
        <polygon class="cls-40" points="400.36 155.39 406.64 151.73 406.47 150.41 400.19 154.06 400.36 155.39"/>
        <polygon class="cls-40" points="402.49 157.44 407.04 154.77 406.87 153.44 402.32 156.1 402.49 157.44"/>
        <polygon class="cls-40" points="400.79 161.76 407.45 157.84 407.27 156.49 400.62 160.4 400.79 161.76"/>
        <polygon class="cls-40" points="403.27 163.64 407.86 160.92 407.68 159.57 403.1 162.28 403.27 163.64"/>
        <polygon class="cls-40" points="402.42 167.52 408.27 164.04 408.09 162.67 402.25 166.14 402.42 167.52"/>
        <polygon class="cls-40" points="405.49 169.09 408.68 167.18 408.5 165.8 405.32 167.7 405.49 169.09"/>
        <polygon class="cls-40" points="402.88 174.09 409.1 170.35 408.92 168.96 402.71 172.69 402.88 174.09"/>
        <polygon class="cls-40" points="403.61 177.12 409.52 173.54 409.34 172.14 403.43 175.7 403.61 177.12"/>
        <polygon class="cls-40" points="374.81 194.55 372.13 196.17 372.01 194.67 374.68 193.06 374.81 194.55"/>
        <polygon class="cls-40" points="382.68 189.78 376.72 193.39 376.59 191.91 382.54 188.32 382.68 189.78"/>
      </g>
      <g class="cls-48">
        <g>
          <g>
            <polygon class="cls-40" points="419.38 213.59 437.61 203.06 436.31 202.31 418.08 212.84 419.38 213.59"/>
            <polygon class="cls-40" points="408.77 219.71 415.36 215.91 414.05 215.16 407.47 218.96 408.77 219.71"/>
            <polygon class="cls-40" points="403.49 222.76 405.42 221.65 404.12 220.9 402.19 222.01 403.49 222.76"/>
            <polygon class="cls-40" points="393.56 228.5 400.14 224.7 398.84 223.95 392.26 227.75 393.56 228.5"/>
          </g>
          <g>
            <polygon class="cls-40" points="434.98 207.7 440.31 204.62 439.01 203.87 433.68 206.94 434.98 207.7"/>
            <polygon class="cls-40" points="411.47 221.27 430.96 210.02 429.66 209.27 410.17 220.52 411.47 221.27"/>
            <polygon class="cls-40" points="406.19 224.32 408.12 223.21 406.82 222.45 404.89 223.57 406.19 224.32"/>
            <polygon class="cls-40" points="396.26 230.05 402.84 226.25 401.53 225.5 394.95 229.3 396.26 230.05"/>
            <polygon class="cls-40" points="440.34 207.71 443 206.18 441.7 205.42 439.04 206.96 440.34 207.71"/>
            <polygon class="cls-40" points="433.16 211.86 436.32 210.04 435.01 209.28 431.86 211.11 433.16 211.86"/>
            <polygon class="cls-40" points="427.88 214.91 429.81 213.79 428.5 213.04 426.57 214.16 427.88 214.91"/>
            <polygon class="cls-40" points="417.94 220.64 424.53 216.84 423.22 216.09 416.64 219.89 417.94 220.64"/>
            <polygon class="cls-40" points="440.37 210.81 445.7 207.73 444.4 206.98 439.07 210.06 440.37 210.81"/>
            <polygon class="cls-40" points="429.77 216.93 436.35 213.13 435.05 212.38 428.46 216.18 429.77 216.93"/>
            <polygon class="cls-40" points="424.49 219.98 426.41 218.86 425.11 218.11 423.18 219.23 424.49 219.98"/>
            <polygon class="cls-40" points="414.55 225.71 421.13 221.91 419.83 221.16 413.25 224.96 414.55 225.71"/>
          </g>
        </g>
        <g>
          <g>
            <polygon class="cls-40" points="430.36 219.93 448.6 209.4 447.29 208.65 429.06 219.18 430.36 219.93"/>
            <polygon class="cls-40" points="419.76 226.05 426.34 222.25 425.03 221.5 418.45 225.3 419.76 226.05"/>
            <polygon class="cls-40" points="414.47 229.1 416.4 227.99 415.1 227.24 413.17 228.35 414.47 229.1"/>
            <polygon class="cls-40" points="404.54 234.84 411.12 231.04 409.82 230.29 403.24 234.09 404.54 234.84"/>
          </g>
          <g>
            <polygon class="cls-40" points="445.96 214.04 451.29 210.96 449.99 210.21 444.66 213.28 445.96 214.04"/>
            <polygon class="cls-40" points="422.45 227.61 441.94 216.36 440.64 215.61 421.15 226.86 422.45 227.61"/>
            <polygon class="cls-40" points="417.17 230.66 419.1 229.55 417.8 228.79 415.87 229.91 417.17 230.66"/>
            <polygon class="cls-40" points="407.24 236.39 413.82 232.59 412.52 231.84 405.93 235.64 407.24 236.39"/>
            <polygon class="cls-40" points="451.32 214.05 453.98 212.52 452.68 211.76 450.02 213.3 451.32 214.05"/>
            <polygon class="cls-40" points="444.14 218.2 447.3 216.38 446 215.62 442.84 217.45 444.14 218.2"/>
            <polygon class="cls-40" points="438.86 221.25 440.79 220.13 439.48 219.38 437.56 220.5 438.86 221.25"/>
            <polygon class="cls-40" points="428.93 226.98 435.51 223.18 434.2 222.43 427.62 226.23 428.93 226.98"/>
            <polygon class="cls-40" points="451.35 217.15 456.68 214.07 455.38 213.32 450.05 216.4 451.35 217.15"/>
            <polygon class="cls-40" points="440.75 223.27 447.33 219.47 446.03 218.72 439.45 222.52 440.75 223.27"/>
            <polygon class="cls-40" points="435.47 226.32 437.4 225.2 436.09 224.45 434.16 225.57 435.47 226.32"/>
            <polygon class="cls-40" points="425.53 232.05 432.12 228.25 430.81 227.5 424.23 231.3 425.53 232.05"/>
          </g>
        </g>
        <g>
          <g>
            <polygon class="cls-40" points="441.34 226.27 459.58 215.74 458.27 214.99 440.04 225.52 441.34 226.27"/>
            <polygon class="cls-40" points="430.74 232.39 437.32 228.59 436.02 227.84 429.43 231.64 430.74 232.39"/>
            <polygon class="cls-40" points="425.46 235.44 427.38 234.33 426.08 233.58 424.15 234.69 425.46 235.44"/>
            <polygon class="cls-40" points="415.52 241.18 422.1 237.38 420.8 236.63 414.22 240.43 415.52 241.18"/>
          </g>
          <g>
            <polygon class="cls-40" points="456.94 220.38 462.27 217.3 460.97 216.55 455.64 219.62 456.94 220.38"/>
            <polygon class="cls-40" points="433.43 233.95 452.92 222.7 451.62 221.95 432.13 233.2 433.43 233.95"/>
            <polygon class="cls-40" points="428.15 237 430.08 235.89 428.78 235.13 426.85 236.25 428.15 237"/>
            <polygon class="cls-40" points="418.22 242.73 424.8 238.93 423.5 238.18 416.92 241.98 418.22 242.73"/>
            <polygon class="cls-40" points="462.3 220.39 464.97 218.86 463.66 218.1 461 219.64 462.3 220.39"/>
            <polygon class="cls-40" points="455.12 224.54 458.28 222.72 456.98 221.96 453.82 223.79 455.12 224.54"/>
            <polygon class="cls-40" points="449.84 227.59 451.77 226.47 450.47 225.72 448.54 226.84 449.84 227.59"/>
            <polygon class="cls-40" points="439.91 233.32 446.49 229.52 445.19 228.77 438.6 232.57 439.91 233.32"/>
            <polygon class="cls-40" points="462.33 223.49 467.66 220.41 466.36 219.66 461.03 222.74 462.33 223.49"/>
            <polygon class="cls-40" points="451.73 229.61 458.31 225.81 457.01 225.06 450.43 228.86 451.73 229.61"/>
            <polygon class="cls-40" points="446.45 232.66 448.38 231.54 447.07 230.79 445.15 231.91 446.45 232.66"/>
            <polygon class="cls-40" points="436.52 238.39 443.1 234.59 441.79 233.84 435.21 237.64 436.52 238.39"/>
          </g>
        </g>
      </g>
    </g>
    <g>
      <path class="cls-5" d="M511.81,205.52c.74,2.12-4.27,5.81-11.19,8.23s-13.14,2.67-13.88.54c-.74-2.12,4.27-5.81,11.19-8.23,6.92-2.42,13.14-2.67,13.88-.54Z"/>
      <g>
        <g>
          <polygon class="cls-38" points="494.29 197.8 494.37 195.61 494.88 194.33 495.2 195.39 494.29 197.8"/>
          <path class="cls-39" d="M517.21,198.21l.09-2.14s-1.81,1.81-1.81,1.85c0,.04,1.73.29,1.73.29Z"/>
          <g>
            <path class="cls-39" d="M505.59,204.57c-6.33-.15-11.35-3.37-11.22-8.96.13-5.59,5.37-9.99,11.7-9.84,6.33.15,11.35,4.8,11.22,10.39s-5.37,8.56-11.7,8.41Z"/>
            <path class="cls-39" d="M505.51,208.19c-6.33-.15-11.35-4.8-11.22-10.39.13-5.59,5.37-9.99,11.7-9.84,6.33.15,11.35,4.8,11.22,10.39-.13,5.59-5.37,9.99-11.7,9.84Z"/>
            <path class="cls-38" d="M497.75,190.78c-2.08,1.78-3.4,4.25-3.46,7.02-.13,5.59,4.89,10.24,11.22,10.39,3.13.07,5.99-.97,8.11-2.71l-15.86-14.69Z"/>
            <path class="cls-23" d="M505.52,207.74c-6.05-.14-10.85-4.59-10.72-9.93.13-5.34,5.13-9.55,11.18-9.4,6.05.14,10.85,4.59,10.72,9.93-.13,5.34-5.13,9.55-11.18,9.4Z"/>
            <path class="cls-15" d="M505.56,205.83c-4.85-.12-8.71-3.68-8.6-7.97.1-4.29,4.12-7.67,8.98-7.55,4.85.12,8.71,3.68,8.6,7.97-.1,4.29-4.12,7.67-8.98,7.55Z"/>
            <path class="cls-39" d="M514.54,198.28c0-.18,0-.35,0-.53-.4,4.03-4.29,7.13-8.94,7.02-4.65-.11-8.38-3.4-8.59-7.44-.02.17-.03.35-.04.53-.1,4.29,3.75,7.85,8.6,7.97,4.85.12,8.87-3.26,8.98-7.55Z"/>
            <g>
              <path class="cls-39" d="M507.44,198.73l-1.8-1.67c-1.74.39-4.97,1.13-7.56,1.74.64,1.93,2.21,3.53,4.26,4.38l5.1-4.44Z"/>
              <path class="cls-39" d="M504.6,203.76c.29.03.58.06.87.06,2.12.05,4.06-.64,5.51-1.82l-2.94-2.73-3.44,4.48Z"/>
              <path class="cls-39" d="M503.7,195.26l-3.4-3.15c-1.14,1-2.16,2.1-2.44,3.57l5.84-.42Z"/>
            </g>
            <path class="cls-38" d="M505.47,191.24c4.85.12,8.71,3.68,8.6,7.97-.02.87-.2,1.7-.52,2.47.6-1.02.95-2.17.98-3.4.1-4.29-3.75-7.85-8.6-7.97-3.87-.09-7.21,2.04-8.45,5.08,1.49-2.54,4.53-4.23,7.99-4.15Z"/>
          </g>
          <path class="cls-38" d="M494.37,195.61c-.02.83-.1,1.43.1,2.21.25-.82.8-3.27.8-3.27l.87-1.95.73-.6,1.23-.9.1-2.81c-2.29,1.79-3.76,4.39-3.83,7.32Z"/>
        </g>
        <g>
          <path class="cls-38" d="M516.56,195.33l.05-.58c0-.08.07-.15.14-.15h.04c.08,0,.14.07.14.15l-.05.58c0,.08-.07.15-.14.15h-.04c-.08,0-.14-.07-.14-.15Z"/>
          <path class="cls-38" d="M515.55,193.12l.06-1.04c0-.09.08-.17.16-.17h.1c.09,0,.16.08.16.18l-.06,1.04c0,.09-.08.17-.16.17h-.1c-.09,0-.16-.08-.16-.18Z"/>
          <path class="cls-38" d="M514.15,191.2l.06-1c0-.11.09-.19.19-.19h.18c.1,0,.18.09.18.2l-.06,1c0,.11-.09.19-.19.19h-.18c-.1,0-.18-.09-.18-.2Z"/>
          <path class="cls-38" d="M512.06,189.64l.06-1.22c0-.11.09-.19.19-.19h.18c.1,0,.18.09.18.2l-.06,1.22c0,.11-.09.19-.19.19h-.18c-.1,0-.18-.09-.18-.2Z"/>
          <path class="cls-38" d="M509.96,188.62l.07-1.4c0-.11.09-.19.19-.19h.18c.1,0,.18.09.18.2l-.07,1.4c0,.11-.09.19-.19.19h-.18c-.1,0-.18-.09-.18-.2Z"/>
          <path class="cls-38" d="M507.85,188l.07-1.35c0-.11.09-.19.19-.19h.18c.1,0,.18.09.18.2l-.07,1.35c0,.11-.09.19-.19.19h-.18c-.1,0-.18-.09-.18-.2Z"/>
          <path class="cls-38" d="M505.73,187.79l.07-1.37c0-.11.09-.19.19-.19h.18c.1,0,.18.09.18.2l-.07,1.37c0,.11-.09.19-.19.19h-.18c-.1,0-.18-.09-.18-.2Z"/>
          <path class="cls-38" d="M503.6,187.83l.07-1.28c0-.11.09-.19.19-.19h.18c.1,0,.18.09.18.2l-.06,1.28c0,.11-.09.19-.19.19h-.18c-.1,0-.18-.09-.18-.2Z"/>
          <path class="cls-38" d="M501.46,188.3l.06-1.24c0-.11.09-.19.19-.19h.18c.1,0,.18.09.18.2l-.06,1.24c0,.11-.09.19-.19.19h-.18c-.1,0-.18-.09-.18-.2Z"/>
          <path class="cls-38" d="M499.31,189.34l.07-1.34c0-.11.09-.19.19-.19h.18c.1,0,.18.09.18.2l-.07,1.34c0,.11-.09.19-.19.19h-.18c-.1,0-.18-.09-.18-.2Z"/>
        </g>
      </g>
    </g>
    <g>
      <path class="cls-5" d="M392.12,263.97c.74,2.12-4.27,5.81-11.19,8.23-6.92,2.42-13.14,2.66-13.88.54-.74-2.12,4.27-5.81,11.19-8.23,6.92-2.42,13.14-2.66,13.88-.54Z"/>
      <g>
        <g>
          <polygon class="cls-38" points="374.6 256.24 374.68 254.05 375.19 252.78 375.51 253.83 374.6 256.24"/>
          <path class="cls-39" d="M397.52,256.66l.09-2.14s-1.81,1.81-1.81,1.85c0,.04,1.73.29,1.73.29Z"/>
          <g>
            <path class="cls-39" d="M385.9,263.01c-6.33-.15-11.35-3.37-11.22-8.96s5.37-9.99,11.7-9.84c6.33.15,11.35,4.8,11.22,10.39-.13,5.59-5.37,8.56-11.7,8.41Z"/>
            <path class="cls-39" d="M385.81,266.63c-6.33-.15-11.35-4.8-11.22-10.39s5.37-9.99,11.7-9.84c6.33.15,11.35,4.8,11.22,10.39s-5.37,9.99-11.7,9.84Z"/>
            <path class="cls-38" d="M378.06,249.22c-2.08,1.78-3.4,4.25-3.46,7.02-.13,5.59,4.89,10.24,11.22,10.39,3.13.07,5.99-.97,8.11-2.71l-15.86-14.69Z"/>
            <path class="cls-23" d="M385.83,266.18c-6.05-.14-10.85-4.59-10.72-9.93.13-5.34,5.13-9.55,11.18-9.4,6.05.14,10.85,4.59,10.72,9.93-.13,5.34-5.13,9.55-11.18,9.4Z"/>
            <path class="cls-15" d="M385.87,264.27c-4.85-.12-8.71-3.68-8.6-7.97.1-4.29,4.12-7.67,8.98-7.55s8.71,3.68,8.6,7.97c-.1,4.29-4.12,7.67-8.98,7.55Z"/>
            <path class="cls-39" d="M394.85,256.72c0-.18,0-.35,0-.53-.4,4.03-4.29,7.13-8.94,7.02-4.65-.11-8.38-3.4-8.59-7.44-.02.17-.03.35-.04.53-.1,4.29,3.75,7.85,8.6,7.97,4.85.12,8.87-3.26,8.98-7.55Z"/>
            <g>
              <path class="cls-39" d="M387.74,257.17l-1.8-1.67c-1.74.39-4.97,1.13-7.56,1.74.64,1.93,2.21,3.53,4.26,4.38l5.1-4.44Z"/>
              <path class="cls-39" d="M384.91,262.2c.29.03.58.06.87.06,2.12.05,4.06-.64,5.51-1.82l-2.94-2.73-3.44,4.48Z"/>
              <path class="cls-39" d="M384.01,253.71l-3.4-3.15c-1.14,1-2.16,2.1-2.44,3.57l5.84-.42Z"/>
            </g>
            <path class="cls-38" d="M385.78,249.68c4.85.12,8.71,3.68,8.6,7.97-.02.87-.2,1.7-.52,2.47.6-1.02.95-2.17.98-3.4.1-4.29-3.75-7.85-8.6-7.97-3.87-.09-7.21,2.04-8.45,5.08,1.49-2.54,4.53-4.23,7.99-4.15Z"/>
          </g>
          <path class="cls-38" d="M374.68,254.05c-.02.83-.1,1.43.1,2.21.25-.82.8-3.27.8-3.27l.87-1.95.73-.6,1.23-.9.1-2.81c-2.29,1.79-3.76,4.39-3.83,7.32Z"/>
        </g>
        <g>
          <path class="cls-38" d="M396.86,253.77l.05-.58c0-.08.07-.15.14-.15h.04c.08,0,.14.07.14.15l-.05.58c0,.08-.07.15-.14.15h-.04c-.08,0-.14-.07-.14-.15Z"/>
          <path class="cls-38" d="M395.86,251.56l.06-1.04c0-.09.08-.17.16-.17h.1c.09,0,.16.08.16.18l-.06,1.04c0,.09-.08.17-.16.17h-.1c-.09,0-.16-.08-.16-.18Z"/>
          <path class="cls-38" d="M394.46,249.64l.06-1c0-.11.09-.19.19-.19h.18c.1,0,.18.09.18.2l-.06,1c0,.11-.09.19-.19.19h-.18c-.1,0-.18-.09-.18-.2Z"/>
          <path class="cls-38" d="M392.37,248.08l.06-1.22c0-.11.09-.19.19-.19h.18c.1,0,.18.09.18.2l-.06,1.22c0,.11-.09.19-.19.19h-.18c-.1,0-.18-.09-.18-.2Z"/>
          <path class="cls-38" d="M390.27,247.06l.07-1.4c0-.11.09-.19.19-.19h.18c.1,0,.18.09.18.2l-.07,1.4c0,.11-.09.19-.19.19h-.18c-.1,0-.18-.09-.18-.2Z"/>
          <path class="cls-38" d="M388.16,246.44l.07-1.35c0-.11.09-.19.19-.19h.18c.1,0,.18.09.18.2l-.07,1.35c0,.11-.09.19-.19.19h-.18c-.1,0-.18-.09-.18-.2Z"/>
          <path class="cls-38" d="M386.03,246.23l.07-1.37c0-.11.09-.19.19-.19h.18c.1,0,.18.09.18.2l-.07,1.37c0,.11-.09.19-.19.19h-.18c-.1,0-.18-.09-.18-.2Z"/>
          <path class="cls-38" d="M383.91,246.27l.07-1.28c0-.11.09-.19.19-.19h.18c.1,0,.18.09.18.2l-.07,1.28c0,.11-.09.19-.19.19h-.18c-.1,0-.18-.09-.18-.2Z"/>
          <path class="cls-38" d="M381.77,246.74l.06-1.24c0-.11.09-.19.19-.19h.18c.1,0,.18.09.18.2l-.06,1.24c0,.11-.09.19-.19.19h-.18c-.1,0-.18-.09-.18-.2Z"/>
          <path class="cls-38" d="M379.62,247.78l.07-1.34c0-.11.09-.19.19-.19h.18c.1,0,.18.09.18.2l-.07,1.34c0,.11-.09.19-.19.19h-.18c-.1,0-.18-.09-.18-.2Z"/>
        </g>
      </g>
    </g>
    <g>
      <path class="cls-5" d="M416.31,215.34c.74,2.12-4.27,5.81-11.19,8.23-6.92,2.42-13.14,2.67-13.88.54-.74-2.12,4.27-5.81,11.19-8.23,6.92-2.42,13.14-2.67,13.88-.54Z"/>
      <g>
        <g>
          <polygon class="cls-38" points="398.78 207.61 398.87 205.43 399.38 204.15 399.7 205.21 398.78 207.61"/>
          <path class="cls-39" d="M421.71,208.03l.09-2.14s-1.81,1.81-1.81,1.85c0,.04,1.73.29,1.73.29Z"/>
          <g>
            <path class="cls-39" d="M410.09,214.39c-6.33-.15-11.35-3.37-11.22-8.96s5.37-9.99,11.7-9.84c6.33.15,11.35,4.8,11.22,10.39s-5.37,8.56-11.7,8.41Z"/>
            <path class="cls-39" d="M410,218.01c-6.33-.15-11.35-4.8-11.22-10.39.13-5.59,5.37-9.99,11.7-9.84,6.33.15,11.35,4.8,11.22,10.39-.13,5.59-5.37,9.99-11.7,9.84Z"/>
            <path class="cls-38" d="M402.24,200.6c-2.08,1.78-3.4,4.25-3.46,7.02-.13,5.59,4.89,10.24,11.22,10.39,3.13.08,5.99-.97,8.11-2.71l-15.86-14.69Z"/>
            <path class="cls-23" d="M410.01,217.56c-6.05-.14-10.85-4.59-10.72-9.93.13-5.34,5.13-9.55,11.18-9.4s10.85,4.59,10.72,9.93c-.13,5.34-5.13,9.55-11.18,9.4Z"/>
            <path class="cls-15" d="M410.06,215.65c-4.85-.12-8.71-3.68-8.6-7.97.1-4.29,4.12-7.67,8.98-7.55,4.85.12,8.71,3.68,8.6,7.97-.1,4.29-4.12,7.67-8.98,7.55Z"/>
            <path class="cls-39" d="M419.03,208.1c0-.18,0-.35,0-.53-.4,4.03-4.29,7.13-8.94,7.02-4.65-.11-8.38-3.4-8.59-7.44-.02.17-.03.35-.04.53-.1,4.29,3.75,7.85,8.6,7.97,4.85.12,8.87-3.26,8.98-7.55Z"/>
            <g>
              <path class="cls-39" d="M411.93,208.54l-1.8-1.67c-1.74.39-4.97,1.13-7.56,1.74.64,1.93,2.21,3.53,4.26,4.38l5.1-4.44Z"/>
              <path class="cls-39" d="M409.09,213.58c.29.03.58.06.87.06,2.12.05,4.06-.65,5.51-1.82l-2.94-2.73-3.44,4.48Z"/>
              <path class="cls-39" d="M408.19,205.08l-3.4-3.15c-1.14,1-2.16,2.1-2.44,3.57l5.84-.42Z"/>
            </g>
            <path class="cls-38" d="M409.97,201.06c4.85.12,8.71,3.68,8.6,7.97-.02.87-.2,1.7-.52,2.47.6-1.02.95-2.17.98-3.4.1-4.29-3.75-7.85-8.6-7.97-3.87-.09-7.21,2.04-8.45,5.08,1.49-2.54,4.53-4.23,7.99-4.15Z"/>
          </g>
          <path class="cls-38" d="M398.87,205.43c-.02.83-.1,1.43.1,2.21.25-.82.8-3.27.8-3.27l.87-1.95.73-.6,1.23-.9.1-2.81c-2.29,1.79-3.76,4.39-3.83,7.32Z"/>
        </g>
        <g>
          <path class="cls-38" d="M421.05,205.14l.05-.58c0-.08.07-.15.14-.15h.04c.08,0,.14.07.14.15l-.05.58c0,.08-.07.15-.14.15h-.04c-.08,0-.14-.07-.14-.15Z"/>
          <path class="cls-38" d="M420.04,202.94l.06-1.04c0-.09.08-.17.16-.17h.1c.09,0,.16.08.16.18l-.06,1.04c0,.09-.08.17-.16.17h-.1c-.09,0-.16-.08-.16-.18Z"/>
          <path class="cls-38" d="M418.65,201.01l.06-1c0-.11.09-.19.19-.19h.18c.1,0,.18.09.18.2l-.06,1c0,.11-.09.19-.19.19h-.18c-.1,0-.18-.09-.18-.2Z"/>
          <path class="cls-38" d="M416.56,199.46l.06-1.22c0-.11.09-.19.19-.19h.18c.1,0,.18.09.18.2l-.06,1.22c0,.11-.09.19-.19.19h-.18c-.1,0-.18-.09-.18-.2Z"/>
          <path class="cls-38" d="M414.45,198.44l.07-1.4c0-.11.09-.19.19-.19h.18c.1,0,.18.09.18.2l-.07,1.4c0,.11-.09.19-.19.19h-.18c-.1,0-.18-.09-.18-.2Z"/>
          <path class="cls-38" d="M412.34,197.82l.07-1.35c0-.11.09-.19.19-.19h.18c.1,0,.18.09.18.2l-.07,1.35c0,.11-.09.19-.19.19h-.18c-.1,0-.18-.09-.18-.2Z"/>
          <path class="cls-38" d="M410.22,197.6l.07-1.37c0-.11.09-.19.19-.19h.18c.1,0,.18.09.18.2l-.07,1.37c0,.11-.09.19-.19.19h-.18c-.1,0-.18-.09-.18-.2Z"/>
          <path class="cls-38" d="M408.09,197.65l.06-1.28c0-.11.09-.19.19-.19h.18c.1,0,.18.09.18.2l-.07,1.28c0,.11-.09.19-.19.19h-.18c-.1,0-.18-.09-.18-.2Z"/>
          <path class="cls-38" d="M405.95,198.11l.06-1.24c0-.11.09-.19.19-.19h.18c.1,0,.18.09.18.2l-.06,1.24c0,.11-.09.19-.19.19h-.18c-.1,0-.18-.09-.18-.2Z"/>
          <path class="cls-38" d="M403.8,199.16l.07-1.34c0-.11.09-.19.19-.19h.18c.1,0,.18.09.18.2l-.07,1.34c0,.11-.09.19-.19.19h-.18c-.1,0-.18-.09-.18-.2Z"/>
        </g>
      </g>
    </g>
    <g>
      <path class="cls-5" d="M606.26,223.1l-41.82-24.15c-.91-.52-.79-1.44.25-2.04l12.29-7.09,45.11,26.04-12.29,7.09c-1.05.6-2.63.67-3.54.15Z"/>
      <g>
        <path class="cls-30" d="M665.71,190.24v-8.33h-13.57s-30.11-17.38-30.11-17.38c-.74-.43-2.03-.37-2.88.12l-29.98,17.31h-13.51s0,8.36,0,8.36h0c.01.26.17.51.49.69l43.2,24.94c.74.43,2.03.37,2.88-.12l42.78-24.7c.44-.26.68-.58.7-.89Z"/>
        <path class="cls-41" d="M619.34,207.61l-43.2-24.94c-.74-.43-.65-1.17.21-1.66l42.78-24.7c.85-.49,2.14-.55,2.88-.12l43.2,24.94c.74.43.65,1.17-.21,1.66l-42.78,24.7c-.85.49-2.14.55-2.88.12Z"/>
        <path class="cls-8" d="M619.34,207.61l-43.2-24.94c-.74-.43-.65-1.17.21-1.66l42.78-24.7c.85-.49,2.14-.55,2.88-.12l43.2,24.94c.74.43.65,1.17-.21,1.66l-42.78,24.7c-.85.49-2.14.55-2.88.12Z"/>
        <path class="cls-6" d="M619.5,204.69l-38.29-22.11c-.65-.38-.57-1.04.18-1.48l37.92-21.89c.76-.44,1.9-.48,2.56-.11l38.29,22.11c.65.38.57,1.04-.18,1.48l-37.92,21.89c-.76.44-1.9.48-2.56.11Z"/>
        <path class="cls-40" d="M619.59,202.84l-35.18-20.31c-.6-.35-.53-.95.17-1.36l34.84-20.11c.69-.4,1.75-.44,2.35-.1l35.18,20.31c.6.35.53.95-.17,1.36l-34.84,20.11c-.69.4-1.75.44-2.35.1Z"/>
        <g>
          <polygon class="cls-31" points="619.87 180.58 615.76 178.21 618 176.91 622.12 179.28 619.87 180.58"/>
          <polygon class="cls-31" points="627.52 180.24 623.4 182.62 621.16 181.32 625.27 178.95 627.52 180.24"/>
          <polygon class="cls-31" points="618.94 181.12 616.69 182.42 614.45 181.12 616.69 179.82 618.94 181.12"/>
          <polygon class="cls-31" points="626.7 185.6 624.45 186.9 617.98 183.16 620.22 181.86 626.7 185.6"/>
        </g>
      </g>
      <path class="cls-18" d="M665.71,170.7l-18.38.11-25.32-14.62c-.74-.43-2.03-.37-2.88.12l-25.67,14.82-17.82.11v10.82h.01c.04.23.2.45.49.61l43.2,24.94c.74.43,2.03.37,2.88-.12l42.78-24.7c.39-.22.61-.5.68-.78l.03-.02v-11.3Z"/>
      <g>
        <path class="cls-33" d="M665.71,171.77v-8.33h-13.57s-30.11-17.38-30.11-17.38c-.74-.43-2.03-.37-2.88.12l-29.98,17.31h-13.51s0,8.36,0,8.36h0c.01.26.17.51.49.69l43.2,24.94c.74.43,2.03.37,2.88-.12l42.78-24.7c.44-.26.68-.58.7-.89Z"/>
        <path class="cls-27" d="M619.34,189.15l-43.2-24.94c-.74-.43-.65-1.17.21-1.66l42.78-24.7c.85-.49,2.14-.55,2.88-.12l43.2,24.94c.74.43.65,1.17-.21,1.66l-42.78,24.7c-.85.49-2.14.55-2.88.12Z"/>
        <path class="cls-6" d="M619.5,186.23l-38.29-22.11c-.65-.38-.57-1.04.18-1.48l37.92-21.89c.76-.44,1.9-.48,2.56-.11l38.29,22.11c.65.38.57,1.04-.18,1.48l-37.92,21.89c-.76.44-1.9.48-2.56.11Z"/>
        <path class="cls-40" d="M619.59,184.38l-35.18-20.31c-.6-.35-.53-.95.17-1.36l34.84-20.11c.69-.4,1.75-.44,2.35-.1l35.18,20.31c.6.35.53.95-.17,1.36l-34.84,20.11c-.69.4-1.75.44-2.35.1Z"/>
        <g>
          <polygon class="cls-31" points="619.87 162.12 615.76 159.74 618 158.45 622.12 160.82 619.87 162.12"/>
          <polygon class="cls-31" points="627.52 161.78 623.4 164.16 621.16 162.86 625.27 160.48 627.52 161.78"/>
          <polygon class="cls-31" points="618.94 162.66 616.69 163.95 614.45 162.66 616.69 161.36 618.94 162.66"/>
          <polygon class="cls-31" points="626.7 167.14 624.45 168.43 617.98 164.7 620.22 163.4 626.7 167.14"/>
        </g>
      </g>
    </g>
    <g>
      <path class="cls-5" d="M223.17,382.84l-41.82-24.15c-.91-.52-.79-1.44.25-2.04l22.73-13.26,45.11,26.04-22.73,13.26c-1.05.6-2.63.67-3.54.15Z"/>
      <g>
        <path class="cls-20" d="M293.06,343.81v-8.33h-13.57s-30.11-17.38-30.11-17.38c-.74-.43-2.03-.37-2.88.12l-29.98,17.31h-13.51s0,8.36,0,8.36h0c.01.26.17.51.49.69l43.2,24.94c.74.43,2.03.37,2.88-.12l42.78-24.7c.44-.26.68-.58.7-.89Z"/>
        <path class="cls-37" d="M246.7,361.19l-43.2-24.94c-.74-.43-.65-1.17.21-1.66l42.78-24.7c.85-.49,2.14-.55,2.88-.12l43.2,24.94c.74.43.65,1.17-.21,1.66l-42.78,24.7c-.85.49-2.14.55-2.88.12Z"/>
        <path class="cls-16" d="M246.7,361.19l-43.2-24.94c-.74-.43-.65-1.17.21-1.66l42.78-24.7c.85-.49,2.14-.55,2.88-.12l43.2,24.94c.74.43.65,1.17-.21,1.66l-42.78,24.7c-.85.49-2.14.55-2.88.12Z"/>
        <path class="cls-6" d="M246.85,358.27l-38.29-22.11c-.65-.38-.57-1.04.18-1.48l37.92-21.89c.76-.44,1.9-.48,2.56-.11l38.29,22.11c.65.38.57,1.04-.18,1.48l-37.92,21.89c-.76.44-1.9.48-2.56.11Z"/>
        <path class="cls-40" d="M246.95,356.42l-35.18-20.31c-.6-.35-.53-.95.17-1.36l34.84-20.11c.69-.4,1.75-.44,2.35-.1l35.18,20.31c.6.35.53.95-.17,1.36l-34.84,20.11c-.69.4-1.75.44-2.35.1Z"/>
        <g>
          <polygon class="cls-31" points="247.23 334.16 243.12 331.78 245.36 330.48 249.48 332.86 247.23 334.16"/>
          <polygon class="cls-31" points="254.87 333.82 250.76 336.2 248.51 334.9 252.63 332.52 254.87 333.82"/>
          <polygon class="cls-31" points="246.3 334.7 244.05 335.99 241.8 334.7 244.05 333.4 246.3 334.7"/>
          <polygon class="cls-31" points="254.06 339.18 251.81 340.47 245.33 336.73 247.58 335.44 254.06 339.18"/>
        </g>
      </g>
      <path class="cls-18" d="M293.07,324.28l-18.38.11-25.32-14.62c-.74-.43-2.03-.37-2.88.12l-25.67,14.82-17.82.11v10.82h.01c.04.23.2.45.49.61l43.2,24.94c.74.43,2.03.37,2.88-.12l42.78-24.7c.39-.22.61-.5.68-.78l.03-.02v-11.3Z"/>
      <g>
        <path class="cls-43" d="M293.06,325.35v-8.33h-13.57s-30.11-17.38-30.11-17.38c-.74-.43-2.03-.37-2.88.12l-29.98,17.31h-13.51s0,8.36,0,8.36h0c.01.26.17.51.49.69l43.2,24.94c.74.43,2.03.37,2.88-.12l42.78-24.7c.44-.26.68-.58.7-.89Z"/>
        <path class="cls-12" d="M246.7,342.73l-43.2-24.94c-.74-.43-.65-1.17.21-1.66l42.78-24.7c.85-.49,2.14-.55,2.88-.12l43.2,24.94c.74.43.65,1.17-.21,1.66l-42.78,24.7c-.85.49-2.14.55-2.88.12Z"/>
        <path class="cls-6" d="M246.85,339.81l-38.29-22.11c-.65-.38-.57-1.04.18-1.48l37.92-21.89c.76-.44,1.9-.48,2.56-.11l38.29,22.11c.65.38.57,1.04-.18,1.48l-37.92,21.89c-.76.44-1.9.48-2.56.11Z"/>
        <path class="cls-40" d="M246.95,337.95l-35.18-20.31c-.6-.35-.53-.95.17-1.36l34.84-20.11c.69-.4,1.75-.44,2.35-.1l35.18,20.31c.6.35.53.95-.17,1.36l-34.84,20.11c-.69.4-1.75.44-2.35.1Z"/>
        <g>
          <polygon class="cls-31" points="247.23 315.69 243.12 313.32 245.36 312.02 249.48 314.4 247.23 315.69"/>
          <polygon class="cls-31" points="254.87 315.36 250.76 317.73 248.51 316.44 252.63 314.06 254.87 315.36"/>
          <polygon class="cls-31" points="246.3 316.23 244.05 317.53 241.8 316.23 244.05 314.94 246.3 316.23"/>
          <polygon class="cls-31" points="254.06 320.71 251.81 322.01 245.33 318.27 247.58 316.97 254.06 320.71"/>
        </g>
      </g>
    </g>
  </g>
</svg>