<svg width="459" height="379" viewBox="0 0 459 379" fill="none" xmlns="http://www.w3.org/2000/svg">
<g clip-path="url(#clip0_2968_658)">
<path d="M413.639 99.0955V72.2161H128.486V84.2222V155.005H80.7969V245.051H140.028" stroke="#0024A8" stroke-width="1.0658" stroke-miterlimit="10" stroke-dasharray="3.2 3.2"/>
<path d="M51.8047 299.706V298.272" stroke="#0024A8" stroke-width="1.0658" stroke-miterlimit="10"/>
<path d="M51.8047 295.584V264.404" stroke="#0024A8" stroke-width="1.0658" stroke-miterlimit="10" stroke-dasharray="3.02 3.02"/>
<path d="M51.8066 263.06V261.626H50.375" stroke="#0024A8" stroke-width="1.0658" stroke-miterlimit="10"/>
<path d="M47.6897 261.626H5.72656" stroke="#0024A8" stroke-width="1.0658" stroke-miterlimit="10" stroke-dasharray="3.03 3.03"/>
<path d="M4.3847 261.626H2.95312V260.193" stroke="#0024A8" stroke-width="1.0658" stroke-miterlimit="10"/>
<path d="M2.95312 257.326V212.258" stroke="#0024A8" stroke-width="1.0658" stroke-miterlimit="10" stroke-dasharray="3.24 3.24"/>
<path d="M2.95312 210.735V209.301H4.3847" stroke="#0024A8" stroke-width="1.0658" stroke-miterlimit="10"/>
<path d="M7.15625 209.301H60.9299" stroke="#0024A8" stroke-width="1.0658" stroke-miterlimit="10" stroke-dasharray="3.09 3.09"/>
<path d="M62.3672 209.301H63.7988V207.867" stroke="#0024A8" stroke-width="1.0658" stroke-miterlimit="10"/>
<path d="M63.7969 205.09V87.7163" stroke="#0024A8" stroke-width="1.0658" stroke-miterlimit="10" stroke-dasharray="3.16 3.16"/>
<path d="M63.7969 86.2829V84.8494H65.2285" stroke="#0024A8" stroke-width="1.0658" stroke-miterlimit="10"/>
<path d="M68.0938 84.8494H164.725" stroke="#0024A8" stroke-width="1.0658" stroke-miterlimit="10" stroke-dasharray="3.22 3.22"/>
<path d="M166.156 84.8493H167.588V83.4158" stroke="#0024A8" stroke-width="1.0658" stroke-miterlimit="10"/>
<path d="M167.586 80.5486V53.7588" stroke="#0024A8" stroke-width="1.0658" stroke-miterlimit="10" stroke-dasharray="3.15 3.15"/>
<path d="M167.586 52.3252V50.8916H169.018" stroke="#0024A8" stroke-width="1.0658" stroke-miterlimit="10"/>
<path d="M171.883 50.8916H216.351" stroke="#0024A8" stroke-width="1.0658" stroke-miterlimit="10" stroke-dasharray="3.21 3.21"/>
<path d="M217.781 50.8916H219.213V52.3252" stroke="#0024A8" stroke-width="1.0658" stroke-miterlimit="10"/>
<path d="M219.211 55.282V83.5054" stroke="#0024A8" stroke-width="1.0658" stroke-miterlimit="10" stroke-dasharray="3.31 3.31"/>
<path d="M219.211 85.0286V86.4621H220.643" stroke="#0024A8" stroke-width="1.0658" stroke-miterlimit="10"/>
<path d="M223.508 86.4622H268.424" stroke="#0024A8" stroke-width="1.0658" stroke-miterlimit="10" stroke-dasharray="3.24 3.24"/>
<path d="M269.852 86.4622H271.283V87.8957" stroke="#0024A8" stroke-width="1.0658" stroke-miterlimit="10"/>
<path d="M271.281 91.1211V96.049" stroke="#0024A8" stroke-width="1.0658" stroke-miterlimit="10" stroke-dasharray="3.66 3.66"/>
<path d="M271.281 97.6619V99.0954H272.713" stroke="#0024A8" stroke-width="1.0658" stroke-miterlimit="10"/>
<path d="M275.492 99.0955H357.092" stroke="#0024A8" stroke-width="1.0658" stroke-miterlimit="10" stroke-dasharray="3.09 3.09"/>
<path d="M358.523 99.0955H359.955V100.529" stroke="#0024A8" stroke-width="1.0658" stroke-miterlimit="10"/>
<path d="M359.953 103.127V117.463" stroke="#0024A8" stroke-width="1.0658" stroke-miterlimit="10" stroke-dasharray="2.91 2.91"/>
<path d="M359.953 118.807V120.24H361.385" stroke="#0024A8" stroke-width="1.0658" stroke-miterlimit="10"/>
<path d="M364.43 120.24H405.051" stroke="#0024A8" stroke-width="1.0658" stroke-miterlimit="10" stroke-dasharray="3.37 3.37"/>
<path d="M406.57 120.24H408.002V121.674" stroke="#0024A8" stroke-width="1.0658" stroke-miterlimit="10"/>
<path d="M408 124.541V163.696" stroke="#0024A8" stroke-width="1.0658" stroke-miterlimit="10" stroke-dasharray="3.24 3.24"/>
<path d="M408.002 165.129V166.563H406.57" stroke="#0024A8" stroke-width="1.0658" stroke-miterlimit="10"/>
<path d="M403.437 166.563H374" stroke="#0024A8" stroke-width="1.0658" stroke-miterlimit="10" stroke-dasharray="3.47 3.47"/>
<path d="M372.393 166.563H370.961V167.996" stroke="#0024A8" stroke-width="1.0658" stroke-miterlimit="10"/>
<path d="M370.961 170.864V275.783" stroke="#0024A8" stroke-width="1.0658" stroke-miterlimit="10" stroke-dasharray="3.12 3.12"/>
<path d="M370.961 277.216V278.65" stroke="#0024A8" stroke-width="1.0658" stroke-miterlimit="10"/>
<path d="M426.883 365.829H55.6562V379.717H426.883V365.829Z" fill="#4779F6"/>
<path d="M379.73 316.55H102.809L55.6562 365.829H426.883L379.73 316.55Z" fill="#072BDB"/>
<path d="M239.523 354.898C315.178 354.898 376.507 349.162 376.507 342.085C376.507 335.009 315.178 329.273 239.523 329.273C163.869 329.273 102.539 335.009 102.539 342.085C102.539 349.162 163.869 354.898 239.523 354.898Z" fill="#0024A8"/>
<path d="M212.14 297.018L206.234 338.054H276.382L269.671 297.018H212.14Z" fill="#054DDD"/>
<path d="M300.626 343.967H181.805V346.924H300.626V343.967Z" fill="#054DDD"/>
<path d="M206.231 338.054L181.805 343.967H300.715L276.378 338.054H206.231Z" fill="#4779F6"/>
<path d="M378.292 275.873H104.234V133.591C104.234 127.319 109.334 122.212 115.598 122.212H366.929C373.192 122.212 378.292 127.319 378.292 133.591V275.873Z" fill="#130751"/>
<path d="M367.015 302.215H115.594C109.331 302.215 104.32 297.108 104.32 290.925V275.962H378.378V290.925C378.289 297.108 373.189 302.215 367.015 302.215Z" fill="#4779F6"/>
<path d="M367.837 131H114V266.293H367.837V131Z" fill="white"/>
<path d="M246.588 287.968C246.588 290.925 244.173 293.344 241.22 293.344C238.267 293.344 235.852 290.925 235.852 287.968C235.852 285.012 238.267 282.593 241.22 282.593C244.262 282.682 246.588 285.012 246.588 287.968Z" fill="#130751"/>
<path opacity="0.24" d="M234.779 131.082L180.289 266.375H210.442L264.573 131.082H234.779Z" fill="white"/>
<path opacity="0.24" d="M283.359 131.082L232.359 266.375H244.528L296.333 131.082H283.359Z" fill="white"/>
<path d="M408.041 143.306C420.759 130.57 420.759 109.92 408.041 97.1837C395.322 84.4474 374.701 84.4474 361.982 97.1837C349.264 109.92 349.264 130.57 361.982 143.306C374.701 156.042 395.322 156.042 408.041 143.306Z" fill="#FCA232"/>
<path d="M360.226 99.0955C355.394 104.74 352.531 112.177 352.531 120.151C352.531 138.16 367.115 152.765 385.1 152.765C393.868 152.765 401.831 149.27 407.647 143.626C370.337 138.429 361.837 113.969 360.226 99.0955Z" fill="#F98816"/>
<path d="M408.718 322.016H411.134C424.555 321.478 435.113 310.457 435.113 297.018C435.113 283.488 424.555 272.557 411.134 272.02H408.718C395.387 272.737 385.008 283.668 385.008 297.018C385.008 310.368 395.387 321.388 408.718 322.016ZM393.597 313.235C395.208 312.07 396.908 311.085 398.697 310.278C400.397 313.862 402.813 317.088 405.855 319.776C401.203 318.88 396.908 316.64 393.597 313.235ZM409.076 319.955C405.408 317.177 402.455 313.593 400.487 309.561C403.26 308.576 406.124 307.949 409.076 307.859V319.955ZM409.076 305.888C405.855 306.067 402.724 306.694 399.771 307.769C398.608 304.902 397.982 301.946 397.803 298.81H409.166V305.888H409.076ZM409.076 296.838H397.713C397.713 293.613 398.25 290.567 399.234 287.61C402.366 288.864 405.676 289.581 409.076 289.671V296.838ZM413.908 319.776C417.039 316.998 419.545 313.683 421.245 309.92C423.213 310.726 425.003 311.712 426.792 312.877C423.303 316.55 418.829 318.969 413.908 319.776ZM428.045 311.443C426.166 310.099 424.108 309.024 421.96 308.128C423.124 305.171 423.75 302.035 423.929 298.81H432.966C432.697 303.469 430.997 307.859 428.045 311.443ZM428.76 283.578C431.534 287.52 433.055 292.09 433.145 296.928H424.108C424.108 293.613 423.571 290.387 422.497 287.251C424.734 286.266 426.792 285.011 428.76 283.578ZM427.597 282.055C425.808 283.399 423.839 284.564 421.871 285.459C420.171 281.248 417.397 277.396 413.997 274.26C419.187 275.156 424.018 277.844 427.597 282.055ZM410.955 274.349C414.981 277.485 418.113 281.517 419.992 286.087C417.129 287.162 414.087 287.699 410.955 287.789V274.349ZM410.955 289.76C414.266 289.671 417.487 289.133 420.618 287.968C421.603 290.835 422.05 293.882 422.05 296.928H410.866V289.76H410.955ZM410.955 298.81H422.05C421.871 301.766 421.245 304.723 420.171 307.501C417.218 306.515 414.087 305.977 410.955 305.888V298.81ZM410.955 307.859C413.818 307.949 416.682 308.397 419.366 309.293C417.487 313.325 414.534 316.908 410.955 319.776V307.859ZM409.076 274.17V287.789C405.945 287.61 402.813 286.983 399.95 285.818C401.829 281.248 404.96 277.216 409.076 274.17ZM405.855 274.26C402.545 277.216 399.86 280.89 398.16 285.012C396.282 284.116 394.492 282.951 392.792 281.696C396.192 277.844 400.755 275.245 405.855 274.26ZM391.539 283.22C393.329 284.653 395.297 285.907 397.445 286.893C396.282 290.119 395.745 293.523 395.745 296.928H386.976C386.976 291.911 388.587 287.162 391.539 283.22ZM386.976 298.81H395.745C395.924 302.125 396.639 305.44 397.892 308.486C395.924 309.382 393.955 310.457 392.255 311.801C389.213 308.038 387.334 303.648 386.976 298.81Z" fill="#4779F6"/>
<path d="M106.656 199.087H35.7031V214.05H106.656V199.087Z" fill="#4779F6"/>
<mask id="mask0_2968_658" style="mask-type:luminance" maskUnits="userSpaceOnUse" x="38" y="201" width="11" height="10">
<path d="M48.1412 205.717C48.1412 208.316 46.0833 210.376 43.4886 210.376C40.8938 210.376 38.8359 208.316 38.8359 205.717C38.8359 203.119 40.8938 201.058 43.4886 201.058C46.0833 201.148 48.1412 203.208 48.1412 205.717Z" fill="white"/>
</mask>
<g mask="url(#mask0_2968_658)">
<path d="M48.1412 205.717C48.1412 208.316 46.0833 210.376 43.4886 210.376C40.8938 210.376 38.8359 208.316 38.8359 205.717C38.8359 203.119 40.8938 201.058 43.4886 201.058C46.0833 201.148 48.1412 203.208 48.1412 205.717Z" fill="white"/>
</g>
<mask id="mask1_2968_658" style="mask-type:luminance" maskUnits="userSpaceOnUse" x="38" y="201" width="11" height="10">
<path d="M48.1412 205.717C48.1412 208.316 46.0833 210.376 43.4886 210.376C40.8938 210.376 38.8359 208.316 38.8359 205.717C38.8359 203.119 40.8938 201.058 43.4886 201.058C46.0833 201.148 48.1412 203.208 48.1412 205.717Z" fill="white"/>
</mask>
<g mask="url(#mask1_2968_658)">
<path d="M45.0961 204.015C45.0961 204.911 44.3803 205.628 43.4855 205.628C42.5908 205.628 41.875 204.911 41.875 204.015C41.875 203.119 42.5908 202.402 43.4855 202.402C44.3803 202.402 45.0961 203.208 45.0961 204.015Z" fill="#4779F6"/>
<path d="M46.7077 210.466H40.2656V208.495C40.2656 206.972 41.4288 205.807 42.9498 205.807H44.0235C45.5446 205.807 46.7077 206.972 46.7077 208.495V210.466Z" fill="#4779F6"/>
</g>
<path d="M97.6171 202.85H50.375V203.567H97.6171V202.85Z" fill="white"/>
<path d="M97.6171 205H50.375V205.717H97.6171V205Z" fill="white"/>
<path d="M97.6171 207.151H50.375V207.867H97.6171V207.151Z" fill="white"/>
<path d="M97.6171 209.301H50.375V210.018H97.6171V209.301Z" fill="white"/>
<path d="M106.656 219.247H35.7031V234.209H106.656V219.247Z" fill="#4779F6"/>
<mask id="mask2_2968_658" style="mask-type:luminance" maskUnits="userSpaceOnUse" x="38" y="221" width="11" height="10">
<path d="M43.4886 230.626C46.0581 230.626 48.1412 228.54 48.1412 225.966C48.1412 223.393 46.0581 221.307 43.4886 221.307C40.919 221.307 38.8359 223.393 38.8359 225.966C38.8359 228.54 40.919 230.626 43.4886 230.626Z" fill="white"/>
</mask>
<g mask="url(#mask2_2968_658)">
<path d="M48.1412 225.966C48.1412 228.565 46.0833 230.626 43.4886 230.626C40.8938 230.626 38.8359 228.565 38.8359 225.966C38.8359 223.368 40.8938 221.307 43.4886 221.307C46.0833 221.307 48.1412 223.368 48.1412 225.966Z" fill="white"/>
</g>
<mask id="mask3_2968_658" style="mask-type:luminance" maskUnits="userSpaceOnUse" x="38" y="221" width="11" height="10">
<path d="M43.4886 230.626C46.0581 230.626 48.1412 228.54 48.1412 225.966C48.1412 223.393 46.0581 221.307 43.4886 221.307C40.919 221.307 38.8359 223.393 38.8359 225.966C38.8359 228.54 40.919 230.626 43.4886 230.626Z" fill="white"/>
</mask>
<g mask="url(#mask3_2968_658)">
<path d="M45.0961 224.264C45.0961 225.16 44.3803 225.877 43.4855 225.877C42.5908 225.877 41.875 225.16 41.875 224.264C41.875 223.368 42.5908 222.651 43.4855 222.651C44.3803 222.651 45.0961 223.368 45.0961 224.264Z" fill="#4779F6"/>
<path d="M46.7077 230.626H40.2656V228.654C40.2656 227.131 41.4288 225.967 42.9498 225.967H44.0235C45.5446 225.967 46.7077 227.131 46.7077 228.654V230.626Z" fill="#4779F6"/>
</g>
<path d="M97.6171 223.099H50.375V223.816H97.6171V223.099Z" fill="white"/>
<path d="M97.6171 225.25H50.375V225.967H97.6171V225.25Z" fill="white"/>
<path d="M97.6171 227.4H50.375V228.117H97.6171V227.4Z" fill="white"/>
<path d="M97.6171 229.55H50.375V230.267H97.6171V229.55Z" fill="white"/>
<path d="M160.786 96.6764C160.607 96.6764 160.339 96.6764 160.16 96.6764C160.607 94.8844 160.786 93.0925 160.786 91.2109C160.786 78.3984 150.407 68.005 137.613 68.005C132.244 68.005 127.234 69.8865 123.297 72.9329C119.628 65.0482 111.576 59.5828 102.36 59.5828C91.2651 59.5828 82.0493 67.3778 79.723 77.7712C77.3072 76.9648 74.7125 76.4272 72.0283 76.4272C60.3072 76.4272 50.5546 85.2078 49.0336 96.5868C48.9441 96.5868 48.8546 96.5868 48.8546 96.5868C42.2336 96.5868 36.5072 100.171 33.4651 105.547C32.6599 106.98 33.6441 108.772 35.3441 108.772H65.6757H81.602H127.949H143.876H174.207C175.818 108.772 176.891 106.98 176.086 105.547C173.134 100.26 167.407 96.6764 160.786 96.6764Z" fill="white"/>
<path d="M104.503 113.61L88.8454 86.4622L73.1875 113.61H83.5664V147.478H94.0349V113.61H104.503Z" fill="#4779F6"/>
<path d="M105.219 120.33L120.877 147.478L136.535 120.33H126.066V86.4622H115.598V120.33H105.219Z" fill="#FCA232"/>
<g opacity="0.51">
<path d="M458.287 178.748H351.008V237.077H458.287V178.748Z" fill="#4779F6"/>
<path d="M445.314 184.751H355.93V188.963H445.314V184.751Z" fill="#E4EAFE"/>
<path d="M418.382 191.561H355.93V195.772H418.382V191.561Z" fill="#E4EAFE"/>
<path d="M432.43 198.37H355.93V202.581H432.43V198.37Z" fill="#E4EAFE"/>
<path d="M445.314 205.18H355.93V209.391H445.314V205.18Z" fill="#E4EAFE"/>
<path d="M438.424 211.989H355.93V216.2H438.424V211.989Z" fill="#E4EAFE"/>
<path d="M429.209 218.799H355.93V223.01H429.209V218.799Z" fill="#E4EAFE"/>
<path d="M440.214 225.608H355.93V229.819H440.214V225.608Z" fill="#E4EAFE"/>
</g>
<path d="M86.4331 282.055H17.3594V322.285H86.4331V282.055Z" fill="#FCA232"/>
<path d="M17.3594 322.374L51.8067 299.706L86.3436 322.374H17.3594Z" fill="#FFB564"/>
<path d="M17.3594 282.055L51.8067 309.83L86.3436 282.055H17.3594Z" fill="#F98816"/>
<path d="M287.655 17.7405H268.866C266.629 17.7405 264.75 19.622 264.75 21.862V58.418C264.75 60.658 266.629 62.5395 268.866 62.5395H287.655C289.892 62.5395 291.771 60.658 291.771 58.418V21.7724C291.771 19.5324 289.892 17.7405 287.655 17.7405Z" fill="#130751"/>
<mask id="mask4_2968_658" style="mask-type:luminance" maskUnits="userSpaceOnUse" x="267" y="19" width="23" height="39">
<path d="M286.136 19.8013H270.478C268.599 19.8013 267.078 21.3244 267.078 23.206V53.759C267.078 55.6405 268.599 57.1637 270.478 57.1637H286.136C288.015 57.1637 289.536 55.6405 289.536 53.759V23.206C289.536 21.3244 288.015 19.8013 286.136 19.8013Z" fill="white"/>
</mask>
<g mask="url(#mask4_2968_658)">
<path d="M286.136 19.8013H270.478C268.599 19.8013 267.078 21.3244 267.078 23.206V53.759C267.078 55.6405 268.599 57.1637 270.478 57.1637H286.136C288.015 57.1637 289.536 55.6405 289.536 53.759V23.206C289.536 21.3244 288.015 19.8013 286.136 19.8013Z" fill="#B6CEFF"/>
</g>
<mask id="mask5_2968_658" style="mask-type:luminance" maskUnits="userSpaceOnUse" x="267" y="19" width="23" height="39">
<path d="M286.136 19.8013H270.478C268.599 19.8013 267.078 21.3244 267.078 23.206V53.759C267.078 55.6405 268.599 57.1637 270.478 57.1637H286.136C288.015 57.1637 289.536 55.6405 289.536 53.759V23.206C289.536 21.3244 288.015 19.8013 286.136 19.8013Z" fill="white"/>
</mask>
<g mask="url(#mask5_2968_658)">
<path d="M262.422 48.4726L287.832 14.2461H293.917L262.422 57.1636V48.4726Z" fill="white"/>
</g>
<mask id="mask6_2968_658" style="mask-type:luminance" maskUnits="userSpaceOnUse" x="267" y="19" width="23" height="39">
<path d="M286.136 19.8013H270.478C268.599 19.8013 267.078 21.3244 267.078 23.206V53.759C267.078 55.6405 268.599 57.1637 270.478 57.1637H286.136C288.015 57.1637 289.536 55.6405 289.536 53.759V23.206C289.536 21.3244 288.015 19.8013 286.136 19.8013Z" fill="white"/>
</mask>
<g mask="url(#mask6_2968_658)">
<path d="M264.75 62.002L294.992 19.8013V23.8332L264.75 66.7507V62.002Z" fill="white"/>
</g>
<path d="M279.606 59.5827C279.606 60.2995 278.98 60.9267 278.264 60.9267C277.548 60.9267 276.922 60.2995 276.922 59.5827C276.922 58.866 277.548 58.2388 278.264 58.2388C278.98 58.2388 279.606 58.866 279.606 59.5827Z" fill="white"/>
<path d="M322.104 27.8652H285.867V55.4615H322.104V27.8652Z" fill="white"/>
<path d="M297.139 49.727L289.266 41.932L297.229 33.9578L298.571 35.3017L291.95 41.932L298.392 48.3831L297.139 49.727Z" fill="#054DDD"/>
<path d="M310.471 49.727L309.219 48.3831L315.75 41.7528L309.308 35.3017L310.65 33.9578L318.435 41.7528L310.471 49.727Z" fill="#054DDD"/>
<path d="M305.907 34.8531L300.188 48.6758L301.923 49.396L307.643 35.5733L305.907 34.8531Z" fill="#054DDD"/>
<path d="M322.104 24.7292H285.867V27.9548H322.104V24.7292Z" fill="#054DDD"/>
<path fill-rule="evenodd" clip-rule="evenodd" d="M214.93 182.55C214.93 187.03 226.651 190.703 241.145 190.703V198.857C226.651 198.857 214.93 195.183 214.93 190.703C214.93 190.703 214.93 182.55 214.93 182.55ZM267.361 182.55V190.703C267.361 192.674 265.214 194.377 261.635 195.81L241.145 190.703V182.55L261.635 187.657C265.214 186.223 267.361 184.431 267.361 182.55ZM241.145 158C255.64 158 267.361 161.674 267.361 166.153V174.307C267.361 176.188 265.214 177.98 261.635 179.414L241.145 174.307V182.46C226.651 182.46 214.93 178.787 214.93 174.307V166.153C214.93 161.674 226.651 158 241.145 158Z" fill="#D33C44"/>
<path fill-rule="evenodd" clip-rule="evenodd" d="M182.275 216.776C186.391 216.776 188.807 218.12 190.864 220.091L187.822 223.586C186.122 222.063 184.422 221.167 182.275 221.167C178.607 221.167 176.012 224.213 176.012 227.976V228.066C176.012 231.829 178.607 234.875 182.275 234.875C184.78 234.875 186.301 233.89 188.001 232.366L191.043 235.413C188.807 237.832 186.301 239.265 182.185 239.265C175.833 239.265 171.001 234.338 171.001 228.066V227.976C170.912 221.794 175.564 216.776 182.275 216.776ZM237.659 221.883C243.207 221.883 245.801 226.184 245.801 230.933V231.022C245.801 231.47 245.801 231.739 245.712 232.187H234.17C234.617 234.338 236.138 235.413 238.196 235.413C239.807 235.413 240.97 234.875 242.222 233.71L244.907 236.13C243.385 238.101 241.149 239.265 238.107 239.265C233.096 239.265 229.428 235.771 229.428 230.664V230.574C229.428 225.826 232.828 221.883 237.659 221.883ZM201.154 222.063C206.343 222.063 208.58 224.751 208.58 229.23V238.907H204.017V237.115C202.854 238.37 201.333 239.265 199.007 239.265C195.875 239.265 193.28 237.474 193.28 234.158V234.069C193.28 230.395 196.054 228.783 199.991 228.783C201.691 228.783 202.854 229.051 204.017 229.499V229.23C204.017 227.259 202.764 226.184 200.438 226.184C198.649 226.184 197.396 226.543 195.875 227.08L194.712 223.496C196.591 222.511 198.38 222.063 201.154 222.063ZM217.349 216.149V228.245L222.896 222.152H228.533L222.18 228.693L228.801 238.907H223.433L219.049 232.098L217.438 233.8V238.907H212.696V216.149H217.349ZM258.685 217.135C263.875 217.135 267.007 220.181 267.007 224.661V224.751C267.007 229.768 263.07 232.366 258.238 232.366H254.57V238.907H249.828V217.135H258.685ZM275.238 217.135V225.736H284.096V217.135H288.838V238.907H284.096V230.126H275.238V238.907H270.496V217.135H275.238ZM302.975 217.135C308.164 217.135 311.296 220.181 311.296 224.661V224.751C311.296 229.768 307.359 232.366 302.528 232.366H298.859V238.907H294.117V217.135H302.975ZM201.154 231.56C199.096 231.56 197.933 232.366 197.933 233.89V233.979C197.933 235.234 199.007 236.04 200.528 236.04C202.764 236.04 204.196 234.875 204.196 233.083V232.277C203.301 231.739 202.228 231.56 201.154 231.56ZM237.659 225.736C235.691 225.736 234.438 227.17 234.08 229.32H241.149C240.88 227.08 239.628 225.736 237.659 225.736ZM258.238 221.435H254.57V228.066H258.328C260.743 228.066 262.085 226.632 262.085 224.751V224.661C262.085 222.6 260.654 221.435 258.238 221.435ZM302.528 221.435H298.859V228.066H302.617C305.033 228.066 306.375 226.632 306.375 224.751V224.661C306.464 222.6 304.943 221.435 302.528 221.435Z" fill="#D33C44"/>
<path d="M389.115 130.813C388.757 130.813 388.22 130.724 387.773 130.545C384.999 129.201 382.226 130.455 382.136 130.545C380.526 131.351 378.736 130.634 378.11 129.111C377.305 127.677 378.02 125.796 379.452 125.079C379.72 124.989 384.999 122.302 390.636 125.079C392.247 125.885 392.694 127.677 392.068 129.111C391.352 130.097 390.099 130.813 389.115 130.813Z" fill="#054DDD"/>
<path d="M396.546 122.391C395.92 122.391 395.383 122.302 394.846 121.854C385.004 114.865 375.52 121.764 375.431 121.854C374.089 122.929 372.12 122.481 371.136 121.226C370.062 119.882 370.51 117.911 371.762 116.926C376.236 113.611 387.688 109.31 398.425 116.926C399.857 117.822 400.125 119.793 399.231 121.226C398.425 121.854 397.531 122.391 396.546 122.391Z" fill="#054DDD"/>
<path d="M403.882 114.506C403.256 114.506 402.54 114.238 402.003 113.879C383.661 99.7227 368.808 113.073 368.092 113.79C366.929 114.954 364.961 114.865 363.798 113.7C362.635 112.535 362.724 110.564 363.887 109.399C363.977 109.31 383.213 91.7485 405.761 109.31C407.103 110.385 407.371 112.356 406.298 113.61C405.761 114.058 404.866 114.506 403.882 114.506Z" fill="#054DDD"/>
</g>
<defs>
<clipPath id="clip0_2968_658">
<rect width="459" height="379" fill="white"/>
</clipPath>
</defs>
</svg>
