<svg width="100" height="88" viewBox="0 0 100 88" fill="none" xmlns="http://www.w3.org/2000/svg">
<rect width="100" height="88" rx="10" fill="#102D38"/>
<path d="M32.1719 33H35.5254V54H32.1719V33ZM47.2629 47.301C47.2629 50.5148 44.5658 50.771 43.7635 50.771C41.7589 50.771 41.3942 48.8911 41.3942 47.7571V39.72H38.0406V47.7403C38.0406 49.7311 38.6644 51.3742 39.7576 52.4695C40.7235 53.438 42.1705 53.9672 43.7383 53.9672C44.85 53.9672 46.4245 53.6203 47.2629 52.8534V54H50.6164V39.72H47.2629V47.301ZM57.3236 34.68H53.97V39.72H51.4548V43.08H53.97V54H57.3236V43.08H59.8387V39.72H57.3236V34.68ZM70.3999 49.7303C69.6697 50.388 68.7055 50.7526 67.6475 50.7526C65.3151 50.7526 63.6023 49.0364 63.6023 46.6802C63.6023 44.324 65.2606 42.6802 67.6475 42.6802C68.6871 42.6802 69.6697 43.0271 70.4184 43.6848L70.9273 44.1233L73.1884 41.8586L72.6225 41.3471C71.292 40.1434 69.5255 39.468 67.6467 39.468C63.4547 39.468 60.4105 42.4987 60.4105 46.6626C60.4105 50.8088 63.5277 53.9479 67.6467 53.9479C69.5607 53.9479 71.3456 53.2726 72.6594 52.0495L73.206 51.538L70.9097 49.275L70.3999 49.7303ZM85.1581 40.9649C84.1923 39.9972 83.0605 39.468 81.4927 39.468C80.381 39.468 79.1217 39.8149 78.2833 40.581V33H74.9298V54H78.2833V46.1334C78.2833 42.9196 80.5621 42.6642 81.3644 42.6642C83.369 42.6642 83.3137 44.545 83.3137 45.6773V54H86.6672V45.6949C86.6672 43.7041 86.2522 42.0611 85.1581 40.9649Z" fill="white"/>
<path d="M67.534 44.2878C68.177 44.2878 68.7938 44.5438 69.2485 44.9994C69.7032 45.4549 69.9586 46.0728 69.9586 46.7171C69.9586 47.3614 69.7032 47.9793 69.2485 48.4349C68.7938 48.8905 68.177 49.1464 67.534 49.1464C66.8909 49.1464 66.2742 48.8905 65.8195 48.4349C65.3648 47.9793 65.1094 47.3614 65.1094 46.7171C65.1094 46.0728 65.3648 45.4549 65.8195 44.9994C66.2742 44.5438 66.8909 44.2878 67.534 44.2878Z" fill="#FF3D2E"/>
<path d="M27.4714 48.7255C26.1963 50.0401 24.4641 50.7524 22.6415 50.7524C18.9056 50.7524 16.1892 47.8124 16.1892 43.7771C16.1892 39.7232 18.9056 36.7833 22.6415 36.7833C24.4465 36.7833 26.1594 37.4947 27.4538 38.7917L27.9636 39.3033L30.2054 37.0571L29.7133 36.5455C27.8546 34.6278 25.3394 33.5879 22.6415 33.5879C17.1375 33.5879 13 37.9702 13 43.7947C13 49.6016 17.1559 53.9663 22.6415 53.9663C25.3579 53.9663 27.873 52.9079 29.7317 50.9902L30.2239 50.4786L28.0005 48.1963L27.4714 48.7255Z" fill="white"/>
</svg>
