<svg width="569" height="397" viewBox="0 0 569 397" fill="none" xmlns="http://www.w3.org/2000/svg">
<g clip-path="url(#clip0_3113_2695)">
<path d="M423.318 84.3303V59.7732H402.042C400.991 55.7462 399.413 51.8768 397.348 48.2661L412.393 33.1668L395.036 15.7943L379.992 30.9054C376.393 28.836 372.538 27.2519 368.526 26.1942V4.78186H344.058V26.1353C340.047 27.1952 336.192 28.7792 332.593 30.8465L317.548 15.7943L300.25 33.1668L315.295 48.2897C313.21 51.8973 311.612 55.7668 310.542 59.7967H289.266V84.3303H310.542C311.614 88.3555 313.212 92.2208 315.295 95.8256L300.25 110.937L317.548 128.297L332.593 113.186C336.187 115.279 340.043 116.883 344.058 117.956V139.31H368.491V117.956C372.507 116.885 376.363 115.281 379.956 113.186L395.001 128.297L412.299 110.937L397.289 95.8256C399.351 92.2178 400.93 88.3526 401.984 84.3303H423.318ZM379.229 72.0458C379.229 76.6004 377.883 81.0527 375.361 84.8396C372.84 88.6264 369.256 91.5777 365.063 93.3201C360.87 95.0626 356.257 95.5179 351.806 94.6285C347.355 93.7391 343.267 91.5449 340.059 88.3235C336.851 85.102 334.667 80.9981 333.783 76.5307C332.899 72.0634 333.355 67.4333 335.093 63.226C336.832 59.0188 339.774 55.4235 343.548 52.8947C347.323 50.366 351.76 49.0176 356.298 49.0199C362.379 49.0293 368.208 51.4586 372.506 55.7751C376.805 60.0916 379.223 65.9429 379.229 72.0458Z" fill="#BEDCE0"/>
<path d="M256.045 0H117.756C113.71 0 109.829 1.61316 106.968 4.48459C104.107 7.35603 102.5 11.2505 102.5 15.3114V71.8456C102.5 75.9064 104.107 79.8009 106.968 82.6724C109.829 85.5438 113.71 87.157 117.756 87.157H132.308C133.553 87.157 134.747 87.6533 135.627 88.5368C136.507 89.4204 137.002 90.6187 137.002 91.8682V110.948C137 111.277 137.099 111.597 137.285 111.867C137.472 112.136 137.737 112.341 138.044 112.454C138.351 112.566 138.686 112.58 139.001 112.494C139.317 112.408 139.598 112.226 139.807 111.973L157.973 90.2075C158.794 89.241 159.817 88.4671 160.969 87.94C162.12 87.413 163.373 87.1457 164.639 87.157H256.045C258.049 87.157 260.033 86.7609 261.883 85.9915C263.734 85.222 265.416 84.0942 266.833 82.6724C268.25 81.2506 269.373 79.5627 270.14 77.705C270.907 75.8474 271.301 73.8563 271.301 71.8456V15.3114C271.301 13.3006 270.907 11.3096 270.14 9.45196C269.373 7.5943 268.25 5.90638 266.833 4.48459C265.416 3.0628 263.734 1.93498 261.883 1.16551C260.033 0.39604 258.049 0 256.045 0Z" fill="#0E2B5C"/>
<path d="M122.602 45.4983V66.8635" stroke="#BEDCE0" stroke-width="1.15" stroke-miterlimit="10"/>
<path d="M138.68 38.2784V66.8635" stroke="#BEDCE0" stroke-width="1.15" stroke-miterlimit="10"/>
<path d="M154.742 46.2992V66.8635" stroke="#BEDCE0" stroke-width="1.15" stroke-miterlimit="10"/>
<path d="M170.82 41.0816V66.8635" stroke="#BEDCE0" stroke-width="1.15" stroke-miterlimit="10"/>
<path d="M186.898 28.9149V66.8635" stroke="#BEDCE0" stroke-width="1.15" stroke-miterlimit="10"/>
<path d="M202.977 24.1213V66.8635" stroke="#BEDCE0" stroke-width="1.15" stroke-miterlimit="10"/>
<path d="M219.055 36.7473V66.8635" stroke="#BEDCE0" stroke-width="1.15" stroke-miterlimit="10"/>
<path d="M235.133 30.128V66.8635" stroke="#BEDCE0" stroke-width="1.15" stroke-miterlimit="10"/>
<path d="M251.195 16.9956V66.8635" stroke="#BEDCE0" stroke-width="1.15" stroke-miterlimit="10"/>
<path d="M113.82 66.8635H259.972" stroke="#BEDCE0" stroke-miterlimit="10"/>
<path d="M117.656 50.1624C117.656 50.1624 127.995 38.7495 137.008 38.2431C146.021 37.7366 147.053 48.5252 160.138 46.0165C173.223 43.5078 185.874 25.3462 198.325 23.7562C210.776 22.1661 210.459 39.4562 223.298 36.5117C236.136 33.5672 242.837 19.2688 255.605 15.0169" stroke="white" stroke-miterlimit="10"/>
<path d="M253.71 16.9956C253.713 17.4946 253.567 17.9831 253.293 18.3991C253.018 18.8151 252.627 19.14 252.168 19.3326C251.709 19.5252 251.204 19.5768 250.716 19.4809C250.228 19.385 249.78 19.1458 249.427 18.7938C249.075 18.4418 248.834 17.9927 248.737 17.5035C248.639 17.0142 248.688 16.5068 248.878 16.0456C249.067 15.5843 249.389 15.19 249.802 14.9125C250.216 14.635 250.702 14.4869 251.199 14.4869C251.863 14.4869 252.5 14.7508 252.971 15.221C253.441 15.6911 253.707 16.3292 253.71 16.9956Z" fill="#EBBC3B"/>
<path d="M235.132 32.8841C236.513 32.8841 237.632 31.7609 237.632 30.3754C237.632 28.9899 236.513 27.8667 235.132 27.8667C233.752 27.8667 232.633 28.9899 232.633 30.3754C232.633 31.7609 233.752 32.8841 235.132 32.8841Z" fill="#EBBC3B"/>
<path d="M221.554 36.7473C221.554 37.2434 221.407 37.7285 221.133 38.141C220.858 38.5536 220.468 38.8751 220.011 39.065C219.554 39.2549 219.052 39.3046 218.567 39.2078C218.082 39.111 217.636 38.872 217.287 38.5212C216.937 38.1703 216.699 37.7233 216.603 37.2367C216.506 36.75 216.556 36.2456 216.745 35.7872C216.934 35.3288 217.255 34.937 217.666 34.6614C218.077 34.3857 218.56 34.2386 219.054 34.2386C219.717 34.2386 220.353 34.5029 220.822 34.9733C221.291 35.4438 221.554 36.0819 221.554 36.7473Z" fill="#EBBC3B"/>
<path d="M205.476 24.1213C205.476 24.6194 205.328 25.1063 205.051 25.5198C204.774 25.9333 204.381 26.2548 203.922 26.4432C203.462 26.6316 202.957 26.6785 202.471 26.5778C201.985 26.4771 201.54 26.2334 201.192 25.8779C200.844 25.5223 200.61 25.0709 200.519 24.5812C200.428 24.0915 200.484 23.5856 200.681 23.1281C200.877 22.6706 201.205 22.2822 201.622 22.0123C202.039 21.7424 202.527 21.6032 203.023 21.6126C203.678 21.6249 204.302 21.8947 204.76 22.3638C205.219 22.8329 205.476 23.464 205.476 24.1213Z" fill="#EBBC3B"/>
<path d="M189.398 28.9149C189.398 29.4111 189.251 29.8961 188.976 30.3087C188.702 30.7212 188.311 31.0428 187.855 31.2327C187.398 31.4225 186.895 31.4722 186.41 31.3754C185.926 31.2786 185.48 31.0397 185.131 30.6888C184.781 30.338 184.543 29.891 184.446 29.4043C184.35 28.9177 184.4 28.4133 184.589 27.9549C184.778 27.4965 185.098 27.1047 185.509 26.829C185.92 26.5533 186.404 26.4062 186.898 26.4062C187.561 26.4062 188.197 26.6705 188.666 27.141C189.134 27.6115 189.398 28.2496 189.398 28.9149Z" fill="#EBBC3B"/>
<path d="M173.32 41.0816C173.32 41.5777 173.173 42.0628 172.898 42.4753C172.624 42.8879 172.233 43.2094 171.777 43.3993C171.32 43.5892 170.817 43.6389 170.332 43.5421C169.847 43.4453 169.402 43.2063 169.052 42.8555C168.703 42.5046 168.465 42.0576 168.368 41.571C168.272 41.0843 168.321 40.5799 168.511 40.1215C168.7 39.6631 169.02 39.2713 169.431 38.9956C169.842 38.72 170.326 38.5728 170.82 38.5728C171.483 38.5728 172.119 38.8372 172.587 39.3076C173.056 39.7781 173.32 40.4162 173.32 41.0816Z" fill="#EBBC3B"/>
<path d="M157.257 46.2992C157.259 46.7982 157.114 47.2867 156.84 47.7027C156.565 48.1187 156.174 48.4436 155.715 48.6362C155.256 48.8288 154.751 48.8804 154.263 48.7845C153.775 48.6885 153.326 48.4494 152.974 48.0974C152.622 47.7454 152.381 47.2963 152.283 46.807C152.186 46.3178 152.235 45.8104 152.424 45.3492C152.614 44.8879 152.936 44.4936 153.349 44.2161C153.762 43.9386 154.249 43.7905 154.746 43.7905C155.41 43.7905 156.047 44.0544 156.517 44.5246C156.988 44.9947 157.254 45.6328 157.257 46.2992Z" fill="#EBBC3B"/>
<path d="M141.179 38.5728C141.181 39.0723 141.036 39.5613 140.761 39.9776C140.486 40.3939 140.093 40.7187 139.634 40.911C139.175 41.1032 138.669 41.1541 138.181 41.0572C137.692 40.9603 137.244 40.7201 136.892 40.3669C136.54 40.0136 136.3 39.5635 136.204 39.0734C136.107 38.5834 136.158 38.0757 136.35 37.6146C136.541 37.1536 136.865 36.7601 137.28 36.484C137.694 36.208 138.182 36.0618 138.679 36.0641C139.342 36.0641 139.978 36.3284 140.447 36.7989C140.916 37.2694 141.179 37.9075 141.179 38.5728Z" fill="#EBBC3B"/>
<path d="M125.101 45.4983C125.101 45.9945 124.954 46.4795 124.68 46.8921C124.405 47.3046 124.015 47.6262 123.558 47.816C123.101 48.0059 122.598 48.0556 122.114 47.9588C121.629 47.862 121.183 47.6231 120.834 47.2722C120.484 46.9214 120.246 46.4744 120.15 45.9877C120.053 45.5011 120.103 44.9967 120.292 44.5383C120.481 44.0798 120.801 43.688 121.212 43.4124C121.624 43.1367 122.107 42.9896 122.601 42.9896C123.264 42.9896 123.9 43.2539 124.369 43.7244C124.837 44.1948 125.101 44.8329 125.101 45.4983Z" fill="#EBBC3B"/>
<path d="M174.012 367.131C242.869 367.131 298.689 311.109 298.689 242.002C298.689 172.895 242.869 116.873 174.012 116.873C105.155 116.873 49.3359 172.895 49.3359 242.002C49.3359 311.109 105.155 367.131 174.012 367.131Z" fill="#DDE9EB"/>
<path d="M533.476 395.551C539.513 371.58 540.018 346.543 534.954 322.346C529.89 298.149 519.39 275.432 504.254 255.924C489.118 236.416 469.746 220.633 447.612 209.777C425.479 198.92 401.169 193.277 376.534 193.277C351.898 193.277 327.588 198.92 305.455 209.777C283.321 220.633 263.949 236.416 248.813 255.924C233.677 275.432 223.177 298.149 218.113 322.346C213.049 346.543 213.555 371.58 219.591 395.551H533.476Z" fill="#BEDCE0"/>
<path d="M529.263 46.3463L478.508 66.204C478.042 66.3852 477.629 66.6829 477.31 67.0689C476.991 67.4549 476.775 67.9164 476.683 68.4096C476.591 68.9028 476.627 69.4113 476.786 69.8869C476.945 70.3625 477.223 70.7894 477.592 71.1271L487.321 80.0902L400.174 183.736L354.665 154.291C352.301 152.762 349.455 152.168 346.679 152.625C343.904 153.082 341.397 154.558 339.643 156.765L256.862 261.2L193.562 213.146C192.342 212.222 190.949 211.554 189.466 211.183C187.983 210.812 186.441 210.746 184.932 210.988C183.423 211.23 181.978 211.775 180.684 212.591C179.39 213.407 178.274 214.477 177.402 215.737L53.2422 395.551H80.8203L189.302 238.41L251.992 286.004C254.353 287.795 257.319 288.589 260.255 288.215C263.191 287.84 265.865 286.329 267.706 284.002L351.027 178.954L396.278 208.246C398.594 209.746 401.376 210.347 404.101 209.937C406.827 209.527 409.311 208.135 411.088 206.02L504.067 95.4015L513.15 103.74C513.52 104.078 513.969 104.316 514.455 104.432C514.941 104.548 515.449 104.538 515.93 104.402C516.412 104.267 516.851 104.01 517.206 103.658C517.561 103.305 517.822 102.867 517.962 102.386L533.136 49.915C533.283 49.3887 533.283 48.8316 533.134 48.3056C532.985 47.7796 532.694 47.3053 532.293 46.9355C531.891 46.5657 531.396 46.3149 530.861 46.2108C530.326 46.1068 529.773 46.1537 529.263 46.3463Z" fill="#FC5546"/>
<path d="M442.343 71.0447H270.256C261.856 71.0447 255.047 77.8787 255.047 86.309V190.438C255.047 198.868 261.856 205.702 270.256 205.702H442.343C450.743 205.702 457.552 198.868 457.552 190.438V86.309C457.552 77.8787 450.743 71.0447 442.343 71.0447Z" fill="#EBBC3B"/>
<path d="M418.883 106.708L423.401 111.102L430.712 103.458" stroke="white" stroke-linecap="round" stroke-linejoin="round"/>
<path d="M374.818 112.538C376.853 112.538 378.503 110.883 378.503 108.84C378.503 106.798 376.853 105.142 374.818 105.142C372.783 105.142 371.133 106.798 371.133 108.84C371.133 110.883 372.783 112.538 374.818 112.538Z" stroke="white" stroke-linecap="round" stroke-linejoin="round"/>
<path d="M383.664 108.84H413.859" stroke="white" stroke-linecap="round" stroke-linejoin="round"/>
<path d="M418.883 126.955L423.401 131.348L430.712 123.704" stroke="white" stroke-linecap="round" stroke-linejoin="round"/>
<path d="M374.818 132.785C376.853 132.785 378.503 131.129 378.503 129.087C378.503 127.044 376.853 125.388 374.818 125.388C372.783 125.388 371.133 127.044 371.133 129.087C371.133 131.129 372.783 132.785 374.818 132.785Z" stroke="white" stroke-linecap="round" stroke-linejoin="round"/>
<path d="M383.664 129.087H413.859" stroke="white" stroke-linecap="round" stroke-linejoin="round"/>
<path d="M418.883 147.213L423.401 151.606L430.712 143.962" stroke="white" stroke-linecap="round" stroke-linejoin="round"/>
<path d="M374.818 153.043C376.853 153.043 378.503 151.387 378.503 149.345C378.503 147.302 376.853 145.646 374.818 145.646C372.783 145.646 371.133 147.302 371.133 149.345C371.133 151.387 372.783 153.043 374.818 153.043Z" stroke="white" stroke-linecap="round" stroke-linejoin="round"/>
<path d="M383.664 149.345H413.859" stroke="white" stroke-linecap="round" stroke-linejoin="round"/>
<path d="M418.883 167.459L423.401 171.852L430.712 164.208" stroke="white" stroke-linecap="round" stroke-linejoin="round"/>
<path d="M374.818 173.289C376.853 173.289 378.503 171.633 378.503 169.591C378.503 167.548 376.853 165.893 374.818 165.893C372.783 165.893 371.133 167.548 371.133 169.591C371.133 171.633 372.783 173.289 374.818 173.289Z" stroke="white" stroke-linecap="round" stroke-linejoin="round"/>
<path d="M383.664 169.591H413.859" stroke="white" stroke-linecap="round" stroke-linejoin="round"/>
<path d="M345.847 172.289C364.508 153.559 364.508 123.193 345.847 104.463C327.185 85.7336 296.928 85.7336 278.267 104.463C259.605 123.193 259.605 153.559 278.267 172.289C296.928 191.018 327.185 191.018 345.847 172.289Z" fill="#D65353"/>
<path d="M339.013 165.426C353.899 150.487 353.899 126.265 339.013 111.326C324.128 96.3862 299.994 96.3862 285.109 111.326C270.223 126.265 270.223 150.487 285.109 165.426C299.994 180.366 324.128 180.366 339.013 165.426Z" fill="white"/>
<path d="M332.172 158.564C343.281 147.414 343.281 129.338 332.172 118.188C321.063 107.039 303.052 107.039 291.943 118.188C280.834 129.338 280.834 147.414 291.943 158.564C303.052 169.713 321.063 169.713 332.172 158.564Z" fill="#D65353"/>
<path d="M319.321 155.769C328.885 151.748 333.391 140.706 329.384 131.107C325.377 121.507 314.375 116.986 304.81 121.007C295.246 125.028 290.74 136.07 294.747 145.67C298.754 155.269 309.756 159.791 319.321 155.769Z" fill="white"/>
<path d="M312.064 147.519C317.1 147.519 321.182 143.422 321.182 138.368C321.182 133.313 317.1 129.216 312.064 129.216C307.028 129.216 302.945 133.313 302.945 138.368C302.945 143.422 307.028 147.519 312.064 147.519Z" fill="#D65353"/>
<path d="M259.16 138.368H254.513L250.805 129.157H255.452L259.16 138.368Z" fill="#1B2536"/>
<path d="M263.809 138.368H259.161L255.453 129.157H260.1L263.809 138.368Z" fill="#415780"/>
<path d="M268.457 138.368H263.81L260.102 129.157H264.749L268.457 138.368Z" fill="#1B2536"/>
<path d="M273.106 138.368H268.458L264.75 129.157H269.397L273.106 138.368Z" fill="#415780"/>
<path d="M259.16 138.368H254.513L250.805 147.59H255.452L259.16 138.368Z" fill="#1B2536"/>
<path d="M263.809 138.368H259.161L255.453 147.59H260.1L263.809 138.368Z" fill="#415780"/>
<path d="M268.457 138.368H263.81L260.102 147.59H264.749L268.457 138.368Z" fill="#1B2536"/>
<path d="M273.106 138.368H268.458L264.75 147.59H269.397L273.106 138.368Z" fill="#415780"/>
<path d="M252.406 138.368H312.069" stroke="#1B2536" stroke-width="0.92" stroke-linecap="round" stroke-linejoin="round"/>
<path d="M268.953 240.07L282.073 224.759L282.754 220.813C283.191 218.275 284.177 215.863 285.641 213.747L287.483 211.073C287.599 210.913 287.766 210.798 287.957 210.748C288.147 210.699 288.349 210.718 288.528 210.802C288.695 210.887 288.829 211.026 288.908 211.197C288.987 211.368 289.006 211.561 288.962 211.744L287.788 216.691L288.575 216.255C289.761 215.608 290.803 214.723 291.634 213.656C292.466 212.588 293.07 211.36 293.41 210.048C293.465 209.822 293.567 209.609 293.71 209.425C293.852 209.24 294.031 209.088 294.235 208.977C294.44 208.866 294.665 208.799 294.897 208.781C295.128 208.763 295.361 208.793 295.581 208.87L297.4 209.53C297.824 209.677 298.183 209.972 298.411 210.36C298.639 210.749 298.721 211.206 298.644 211.65L297.47 218.823L300.603 215.407L301.178 216.079L297.986 220.872C297.455 221.677 296.788 222.382 296.015 222.957L289.572 227.668L279.116 250.953L268.953 240.07Z" fill="#DE6767"/>
<path d="M296.152 219.353L294.838 220.248C294.838 220.248 287.796 219.612 285.32 226.137" stroke="#422424" stroke-width="0.5" stroke-miterlimit="10"/>
<path d="M289.852 216.715L294.839 220.248" stroke="#422424" stroke-width="0.5" stroke-miterlimit="10"/>
<path d="M295.662 209.271C295.662 209.271 294.43 214.889 291.391 217.798" stroke="#422424" stroke-width="0.5" stroke-miterlimit="10"/>
<path d="M297.119 209.836C297.119 209.836 296.45 216.232 293.398 219.259" stroke="#422424" stroke-width="0.5" stroke-miterlimit="10"/>
<path d="M268.961 240.07L272.493 235.936L284.757 246.407L279.441 253.05L268.961 240.07Z" fill="white"/>
<path d="M241.914 225.042L259.353 250.376L268.905 240.07L282.6 251.377L266.91 275.428H229.31L225.461 212.168L228.09 213.346C233.659 215.93 238.434 219.969 241.914 225.042Z" fill="#D9956A"/>
<path d="M223.796 211.403L229.534 214.053C231.678 215.047 233.523 216.588 234.887 218.523C236.25 220.458 237.083 222.718 237.303 225.077C239.656 228.66 241.05 232.791 241.35 237.071C241.65 241.352 240.846 245.638 239.017 249.516L245.577 275.428H188.39L186.923 236.396C186.757 231.897 187.813 227.437 189.98 223.495C192.147 219.552 195.341 216.276 199.222 214.017L202.743 211.956L216.954 209.601L223.796 211.403Z" fill="#D9956A"/>
<path d="M197.94 261.471L200.217 235.559V213.499L193.587 217.362C188.943 220.058 185.476 224.404 183.87 229.541C180.842 239.234 175.995 255.087 174.599 261.6C172.463 271.624 176.875 277.489 183.295 277.489H209.112V264.309L197.94 261.471Z" fill="#D9956A"/>
<path d="M188.344 258.962L209.068 264.309" stroke="#1B2536" stroke-width="0.5" stroke-miterlimit="10"/>
<path d="M200.214 233.204L197.938 261.447" stroke="#1B2536" stroke-width="0.5" stroke-miterlimit="10"/>
<path d="M259.397 250.376L249.375 261.447" stroke="#1B2536" stroke-width="0.5" stroke-miterlimit="10"/>
<path d="M203.647 234.994C203.647 234.994 202.473 239.858 199.469 242.508" stroke="#1B2536" stroke-width="0.5" stroke-miterlimit="10"/>
<path d="M197.574 180.085H192.093C188.878 180.085 186.812 183.442 187.317 186.669C187.822 189.896 191.73 194.254 191.73 197.399C191.73 200.543 186.812 203.288 186.812 210.496H200.895C200.796 208.769 201.27 207.058 202.244 205.632C202.89 204.369 203.2 202.962 203.144 201.544C203.089 200.127 202.67 198.747 201.928 197.54C200.32 194.89 200.965 188.377 200.965 188.377L197.574 180.085Z" fill="#EBBC3B"/>
<path d="M201.85 197.54C200.242 194.89 200.888 188.377 200.888 188.377L197.531 180.132H195.654C194.872 181.167 194.324 182.361 194.048 183.63C193.772 184.9 193.776 186.214 194.058 187.482C195.114 193.123 200.36 197.104 202.272 198.365C202.167 198.058 202.05 197.799 201.85 197.54Z" fill="#1B2536"/>
<path d="M203.464 175.951C207.842 169.591 220.891 167.707 225.456 174.997C228.601 180.003 225.914 186.245 222.44 187.258L203.018 195.962C203.018 195.962 195.977 191.84 194.804 185.362C193.771 179.92 197.291 175.244 203.464 175.951Z" fill="#EBBC3B"/>
<path d="M202.766 192.37C208.985 188.978 208.774 180.921 208.774 180.921C213.104 182.143 217.639 182.452 222.094 181.828L222.563 189.072C226.318 193.324 224.992 201.097 219.946 203.146L220.944 209.448C218.587 210.468 216.047 210.994 213.48 210.994C210.913 210.994 208.373 210.468 206.016 209.448L204.925 195.962L202.766 192.37Z" fill="#DE6767"/>
<path d="M211.081 196.386C212.196 196.386 213.099 195.479 213.099 194.36C213.099 193.241 212.196 192.334 211.081 192.334C209.966 192.334 209.062 193.241 209.062 194.36C209.062 195.479 209.966 196.386 211.081 196.386Z" fill="#D15454"/>
<path d="M219.378 203.441C219.378 203.441 215.048 205.396 209.062 202.817" stroke="#422424" stroke-width="0.5" stroke-miterlimit="10"/>
<path d="M211.589 187.423C211.4 187.436 211.215 187.487 211.046 187.573C210.876 187.658 210.725 187.777 210.602 187.922C210.479 188.066 210.385 188.234 210.327 188.415C210.269 188.597 210.247 188.788 210.263 188.978C210.281 189.158 210.333 189.334 210.415 189.496L211.507 188.978L210.814 189.99C211.094 190.22 211.452 190.33 211.812 190.297C212 190.282 212.183 190.23 212.351 190.144C212.52 190.059 212.669 189.94 212.792 189.797C212.914 189.653 213.007 189.486 213.066 189.306C213.124 189.126 213.147 188.937 213.132 188.748C213.118 188.559 213.066 188.375 212.981 188.206C212.895 188.038 212.777 187.888 212.634 187.765C212.491 187.642 212.325 187.548 212.145 187.489C211.966 187.431 211.777 187.408 211.589 187.423Z" fill="#1B2536"/>
<path d="M219.569 186.775C219.194 186.814 218.849 186.998 218.608 187.289C218.367 187.579 218.248 187.953 218.278 188.33C218.294 188.513 218.342 188.693 218.419 188.86L219.51 188.33L218.829 189.354C219.113 189.576 219.468 189.685 219.827 189.661C220.197 189.616 220.536 189.429 220.772 189.138C221.008 188.848 221.123 188.478 221.092 188.105C221.062 187.731 220.889 187.384 220.609 187.136C220.33 186.889 219.965 186.759 219.592 186.775H219.569Z" fill="#1B2536"/>
<path d="M215.93 187.152L216.329 188.86C216.49 189.516 216.846 190.107 217.35 190.556L217.76 190.909C217.885 191.022 217.976 191.167 218.024 191.328C218.072 191.489 218.075 191.661 218.033 191.824C217.991 191.986 217.905 192.134 217.784 192.252C217.663 192.369 217.513 192.45 217.35 192.487L215.93 192.77" stroke="#422424" stroke-width="0.5" stroke-miterlimit="10"/>
<path d="M212.406 194.466L219.447 193.7C219.447 193.7 219.753 200.249 216.795 200.414C214.354 200.555 212.406 194.466 212.406 194.466Z" fill="#422424"/>
<path d="M215.933 196.139C215.019 196.133 214.114 196.326 213.281 196.704C214.091 198.423 215.358 200.496 216.802 200.414C218.245 200.331 218.926 198.694 219.219 197.057C218.239 196.431 217.095 196.111 215.933 196.139Z" fill="#943232"/>
<path d="M209.414 185.397C210.769 185.044 212.19 185.044 213.545 185.397" stroke="#415780" stroke-width="0.86" stroke-linecap="round" stroke-linejoin="round"/>
<path d="M217.258 185.397C218.393 184.847 219.695 184.754 220.896 185.138" stroke="#415780" stroke-width="0.86" stroke-linecap="round" stroke-linejoin="round"/>
<path d="M207.848 194.03C207.848 194.902 207.591 195.754 207.108 196.479C206.625 197.203 205.939 197.768 205.136 198.101C204.334 198.434 203.45 198.521 202.599 198.35C201.747 198.179 200.965 197.758 200.352 197.141C199.738 196.524 199.321 195.738 199.153 194.882C198.985 194.027 199.074 193.141 199.408 192.336C199.742 191.532 200.306 190.845 201.029 190.362C201.753 189.879 202.603 189.623 203.471 189.625C204.047 189.625 204.617 189.739 205.149 189.961C205.681 190.182 206.164 190.507 206.57 190.916C206.977 191.325 207.299 191.811 207.519 192.345C207.738 192.88 207.85 193.452 207.848 194.03Z" fill="#DE6767"/>
<path d="M201.391 192.417C202.963 191.51 205.24 191.239 206.378 194.89" stroke="#422424" stroke-width="0.5" stroke-miterlimit="10"/>
<path d="M202.766 194.03L204.444 192.122" stroke="#422424" stroke-width="0.5" stroke-miterlimit="10"/>
<path d="M205.872 207.634C205.872 207.634 213.37 211.167 220.658 207.634L223.791 211.403L219.578 217.763L215.929 210.826L214.38 218.776L202.75 211.933L205.872 207.634Z" fill="#1B2536"/>
<path d="M238.461 227.009C240.234 230.477 241.204 234.302 241.3 238.199C241.395 242.096 240.613 245.965 239.013 249.516L244.258 270.245" stroke="#1B2536" stroke-width="0.5" stroke-miterlimit="10"/>
<path d="M213.821 265.499L228.983 268.42L238.958 266.559C240.483 266.279 242.058 266.45 243.487 267.054L254.131 271.565V275.428H210.922L213.821 265.499Z" fill="#DE6767"/>
<path d="M209.062 264.309L213.815 265.499V277.43H209.062V264.309Z" fill="white"/>
<path d="M279.748 236.36H276.661L264.938 273.39H268.012H313.076L324.799 236.36H279.748Z" fill="white"/>
<path d="M300.568 259.834H289.114C286.767 259.834 285.394 257.89 286.157 255.488L286.544 254.31C286.962 253.102 287.727 252.045 288.742 251.272C289.756 250.499 290.976 250.044 292.247 249.964H303.713C306.06 249.964 307.421 251.907 306.658 254.31L306.271 255.488C305.854 256.696 305.09 257.754 304.075 258.527C303.06 259.301 301.84 259.755 300.568 259.834Z" stroke="#6E9296" stroke-width="0.4" stroke-miterlimit="10"/>
<path d="M278.023 238.315L267.555 271.388" stroke="#6E9296" stroke-width="0.4" stroke-miterlimit="10"/>
<path d="M302.452 271.388H231.242V273.39H302.452V271.388Z" fill="white"/>
<path d="M361.355 273.39H107.836V282.553H361.355V273.39Z" fill="#0E2B5C"/>
<path d="M352.65 282.542H116.57V396.258H352.65V282.542Z" fill="#0E2B5C"/>
<path d="M352.65 282.542H116.57V312.316L352.65 292.058V282.542Z" fill="white"/>
<path d="M352.646 303.766H264.701C261.436 303.766 258.305 305.067 255.996 307.384C253.688 309.701 252.391 312.844 252.391 316.121V371.171C252.391 374.448 253.688 377.59 255.996 379.907C258.305 382.224 261.436 383.526 264.701 383.526H352.646V303.766Z" fill="#1B2536"/>
<path d="M168.32 158.06V175.786" stroke="white" stroke-width="2" stroke-miterlimit="10"/>
<path d="M177.154 166.929H159.492" stroke="white" stroke-width="2" stroke-miterlimit="10"/>
<path d="M358.539 235.606V253.332" stroke="white" stroke-width="2" stroke-miterlimit="10"/>
<path d="M367.373 244.475H349.711" stroke="white" stroke-width="2" stroke-miterlimit="10"/>
<path d="M501.953 354.305V372.031" stroke="white" stroke-width="2" stroke-miterlimit="10"/>
<path d="M510.795 363.174H493.133" stroke="white" stroke-width="2" stroke-miterlimit="10"/>
<path d="M58.3281 327.722V345.448" stroke="#DDE9EB" stroke-width="2" stroke-miterlimit="10"/>
<path d="M67.1617 336.591H49.5" stroke="#DDE9EB" stroke-width="2" stroke-miterlimit="10"/>
<path d="M379.295 292.612H271.693C264.894 292.612 259.383 298.143 259.383 304.967V364.987C259.383 371.811 264.894 377.343 271.693 377.343H379.295C386.093 377.343 391.605 371.811 391.605 364.987V304.967C391.605 298.143 386.093 292.612 379.295 292.612Z" fill="white"/>
<path d="M331.696 339.75C334.331 323.309 323.188 307.837 306.807 305.192C290.426 302.547 275.009 313.73 272.374 330.171C269.738 346.612 280.881 362.084 297.263 364.729C313.644 367.374 329.06 356.191 331.696 339.75Z" fill="#BEDCE0"/>
<path d="M328.682 321.02C326.141 316.137 322.316 312.046 317.622 309.191C312.928 306.336 307.544 304.826 302.055 304.826V334.977L328.682 321.02Z" fill="#D65353"/>
<path d="M312.511 363.256C316.508 361.765 320.143 359.438 323.175 356.428C326.207 353.419 328.566 349.797 330.096 345.802C331.625 341.807 332.29 337.531 332.046 333.258C331.803 328.986 330.656 324.814 328.682 321.02L302.055 334.977L312.511 363.256Z" fill="#6E9296"/>
<path d="M302.054 365.117C305.623 365.124 309.164 364.489 312.51 363.244L302.054 334.977L291.398 363.174C294.803 364.466 298.414 365.124 302.054 365.117Z" fill="#415780"/>
<path d="M302.058 334.977L273.366 326.026C271.099 333.359 271.703 341.283 275.054 348.185C278.405 355.087 284.252 360.447 291.403 363.174L302.058 334.977Z" fill="#4A75C9"/>
<path d="M344.389 312.163H339.766V316.804H344.389V312.163Z" fill="#D65353"/>
<path d="M370.98 312.163H346.102V313.424H370.98V312.163Z" fill="#BEDCE0"/>
<path d="M376.085 315.532H346.102V316.792H376.085V315.532Z" fill="#BEDCE0"/>
<path d="M344.389 322.41H339.766V327.051H344.389V322.41Z" fill="#6E9296"/>
<path d="M370.98 322.41H346.102V323.67H370.98V322.41Z" fill="#BEDCE0"/>
<path d="M376.085 325.779H346.102V327.039H376.085V325.779Z" fill="#BEDCE0"/>
<path d="M344.389 332.657H339.766V337.297H344.389V332.657Z" fill="#415780"/>
<path d="M370.98 332.657H346.102V333.917H370.98V332.657Z" fill="#BEDCE0"/>
<path d="M376.085 336.037H346.102V337.297H376.085V336.037Z" fill="#BEDCE0"/>
<path d="M344.389 342.916H339.766V347.556H344.389V342.916Z" fill="#4A75C9"/>
<path d="M370.98 342.916H346.102V344.176H370.98V342.916Z" fill="#BEDCE0"/>
<path d="M376.085 346.284H346.102V347.544H376.085V346.284Z" fill="#BEDCE0"/>
<path d="M344.389 353.162H339.766V357.803H344.389V353.162Z" fill="#BEDCE0"/>
<path d="M370.98 353.162H346.102V354.423H370.98V353.162Z" fill="#BEDCE0"/>
<path d="M376.085 356.531H346.102V357.791H376.085V356.531Z" fill="#BEDCE0"/>
<path d="M230.662 117.144C229.92 112.562 227.578 108.395 224.055 105.388C220.533 102.38 216.059 100.729 211.434 100.729C206.809 100.729 202.335 102.38 198.812 105.388C195.289 108.395 192.947 112.562 192.205 117.144C191.231 124.21 193.062 128.286 196.559 134.033C200.373 140.323 201.817 148.968 201.817 148.968H221.051C221.051 148.968 222.494 140.323 226.32 134.033C229.805 128.286 231.636 124.21 230.662 117.144Z" fill="#EBBC3B"/>
<path d="M211.436 148.603C208.049 148.642 204.663 148.473 201.297 148.096L203.221 161.358C203.28 161.759 206.953 162.088 211.436 162.088C215.919 162.088 219.581 161.759 219.651 161.358L221.576 148.084C218.21 148.465 214.823 148.639 211.436 148.603Z" fill="#1B2536"/>
<path d="M216.667 160.628C216.667 162.701 214.32 164.373 211.433 164.373C208.546 164.373 206.188 162.701 206.188 160.628C206.188 158.555 208.535 156.883 211.433 156.883C214.332 156.883 216.667 158.555 216.667 160.628Z" fill="#1B2536"/>
<path d="M216.544 132.255L217.447 126.083C217.447 125.836 217.53 125.588 217.565 125.341C218.234 120.76 217.929 116.237 216.743 116.237C216.016 116.237 215.229 118.086 214.678 120.642C214.478 118.086 213.95 116.237 213.211 116.237C212.472 116.237 211.814 118.086 211.451 120.642C211.075 118.086 210.418 116.237 209.679 116.237C208.939 116.237 208.411 118.086 208.212 120.642C207.672 118.086 206.886 116.237 206.146 116.237C204.973 116.237 204.668 120.76 205.325 125.341C205.325 125.588 205.407 125.836 205.442 126.083L206.334 132.255" stroke="white" stroke-width="0.61" stroke-linecap="round" stroke-linejoin="round"/>
<path d="M0 396.258H569" stroke="#28364F" stroke-width="1.25" stroke-miterlimit="10"/>
<path d="M541.126 128.144H506.87C505.88 128.143 504.899 128.337 503.984 128.716C503.068 129.096 502.236 129.653 501.535 130.355C500.834 131.057 500.278 131.891 499.899 132.809C499.52 133.728 499.324 134.712 499.324 135.706V151.359L485.336 164.55H499.324V170.086C499.324 172.094 500.119 174.02 501.535 175.441C502.95 176.861 504.869 177.659 506.87 177.659H541.126C543.127 177.659 545.046 176.861 546.461 175.441C547.877 174.02 548.672 172.094 548.672 170.086V135.706C548.672 134.712 548.476 133.728 548.097 132.809C547.718 131.891 547.162 131.057 546.461 130.355C545.76 129.653 544.928 129.096 544.013 128.716C543.097 128.337 542.116 128.143 541.126 128.144Z" fill="#EBBC3B"/>
<path d="M534.298 158.296C534.338 159.301 534.147 160.301 533.74 161.22C533.333 162.139 532.721 162.952 531.951 163.596C530.024 165.044 527.703 165.865 525.297 165.952V170.203H522.469V166.069C519.435 166.067 516.432 165.463 513.632 164.291V158.814C516.423 160.098 519.411 160.895 522.469 161.17V154.739L521.049 154.291C518.882 153.561 516.905 152.354 515.264 150.758C514.11 149.467 513.496 147.78 513.55 146.047C513.532 145.096 513.734 144.154 514.142 143.295C514.549 142.437 515.15 141.685 515.897 141.1C517.795 139.682 520.071 138.862 522.434 138.744V135.564H525.262V138.65C528.208 138.744 531.109 139.391 533.817 140.558L531.869 145.411C529.761 144.536 527.534 143.988 525.262 143.785V149.91C527.255 150.612 529.173 151.512 530.989 152.595C532 153.232 532.855 154.089 533.489 155.104C534.037 156.077 534.317 157.179 534.298 158.296ZM519.782 146.047C519.774 146.327 519.827 146.606 519.936 146.864C520.046 147.122 520.209 147.353 520.415 147.543C521.024 148.043 521.71 148.441 522.446 148.72V143.856C520.674 144.139 519.782 144.869 519.782 146.047ZM528.09 158.614C528.093 158.332 528.032 158.053 527.912 157.798C527.792 157.543 527.616 157.319 527.398 157.142C526.753 156.632 526.043 156.212 525.286 155.893V161.052C527.151 160.734 528.09 159.921 528.09 158.614Z" fill="white"/>
<path d="M421.359 329.371L430.008 372.502L424.986 387.26C424.666 388.218 424.123 389.087 423.401 389.792L418.954 394.197C418.771 394.358 418.642 394.573 418.586 394.811C418.53 395.048 418.549 395.298 418.641 395.524C418.732 395.751 418.892 395.943 419.097 396.075C419.303 396.206 419.544 396.27 419.787 396.258H421.876C423.376 396.258 424.86 395.944 426.232 395.336C427.604 394.727 428.834 393.838 429.844 392.725L438.704 382.984V396.246H441.556L442.999 386.718C443.912 380.66 442.719 374.471 439.62 369.192L439.092 368.285L439.655 329.359L421.359 329.371Z" fill="#D68D8D"/>
<path d="M453.922 329.371L463.181 370.452L462.418 372.926C461.115 377.156 460.881 381.644 461.738 385.988L463.756 396.258H466.889L467.746 385.104L475.01 392.854C476.021 393.929 477.24 394.785 478.592 395.37C479.944 395.955 481.401 396.257 482.873 396.258H486.863C487.12 396.276 487.375 396.21 487.59 396.068C487.806 395.926 487.968 395.718 488.054 395.474C488.139 395.23 488.142 394.965 488.063 394.72C487.983 394.474 487.826 394.261 487.614 394.114L483.178 390.581C482.407 389.942 481.789 389.137 481.371 388.225L472.933 370.017L472.147 329.371H453.922Z" fill="#D68D8D"/>
<path d="M422.392 334.506L439.502 336.591L439.608 329.371H421.359L422.392 334.506Z" fill="#28364F"/>
<path d="M472.1 329.371H453.922L455.999 338.593L472.311 340.584L472.1 329.371Z" fill="#28364F"/>
<path d="M452.788 135.564C456.786 135.564 460.028 132.311 460.028 128.297C460.028 124.284 456.786 121.03 452.788 121.03C448.789 121.03 445.547 124.284 445.547 128.297C445.547 132.311 448.789 135.564 452.788 135.564Z" fill="#1B2536"/>
<path d="M444.77 145.022C444.77 145.022 451.482 143.467 453.747 138.65C455.766 134.34 452.574 133.362 452.574 133.362C452.574 133.362 457.021 126.201 450.098 124.199C451.001 119.487 447.445 114.776 442.094 117.261C438.961 110.96 430.359 113.728 430.042 117.191C425.125 113.822 418.917 124.258 423.2 127.285C420.771 130.818 424.691 134.575 430.828 133.362L444.77 145.022Z" fill="#415780"/>
<path d="M433.048 154.28L446.438 152.902L456.824 209.141H415.844L433.048 154.28Z" fill="white"/>
<path d="M471.388 169.497L486.867 199.919L487.172 213.535L485.998 213.676C483.3 213.992 480.567 213.535 478.116 212.357C475.665 211.18 473.597 209.33 472.151 207.021L459.57 186.999L471.388 169.497Z" fill="#D68D8D"/>
<path d="M477.538 181.581L464.758 195.255L481.927 190.167L477.538 181.581Z" fill="#422424"/>
<path d="M413.939 169.838L399.587 197.222H363.36L361.447 195.656C359.894 194.355 357.998 193.537 355.99 193.3L353.021 192.97C352.919 192.959 352.817 192.969 352.72 192.999C352.623 193.03 352.533 193.081 352.457 193.149C352.38 193.216 352.319 193.299 352.277 193.393C352.234 193.486 352.212 193.586 352.211 193.689C352.21 193.905 352.269 194.117 352.381 194.302C352.493 194.487 352.653 194.637 352.845 194.737L357.398 197.175L352.129 198.011C351.619 198.088 351.101 198.088 350.591 198.011L348.151 197.611C347.971 197.582 347.787 197.592 347.611 197.642C347.436 197.691 347.274 197.778 347.135 197.897C346.997 198.016 346.886 198.163 346.81 198.33C346.734 198.496 346.695 198.676 346.695 198.859V201.969C346.698 202.261 346.801 202.544 346.987 202.769C347.173 202.994 347.43 203.148 347.716 203.205L354.499 204.536L352.786 205.361C352.363 205.571 351.897 205.68 351.425 205.679H348.256C348.256 205.679 353.549 209.377 361.623 205.078L395.538 213.582C399.071 214.464 402.789 214.226 406.181 212.899C409.574 211.572 412.472 209.222 414.479 206.173L426.085 188.506L413.939 169.838Z" fill="#D68D8D"/>
<path d="M414.179 206.692L416.421 181.027L403.266 213.817C407.677 212.929 411.583 210.379 414.179 206.692Z" fill="#28364F"/>
<path d="M441.509 396.258L442.952 386.73C443.675 381.901 443.058 376.966 441.169 372.466L433.951 381.689L427.591 379.616L424.986 387.26C424.666 388.218 424.123 389.087 423.401 389.792L418.954 394.197C418.771 394.358 418.642 394.573 418.586 394.811C418.53 395.048 418.549 395.298 418.641 395.524C418.732 395.751 418.892 395.943 419.097 396.075C419.303 396.206 419.544 396.27 419.787 396.258H421.876C423.376 396.258 424.86 395.944 426.232 395.336C427.604 394.727 428.834 393.838 429.844 392.725L438.704 382.984V396.246L441.509 396.258Z" fill="#1B2536"/>
<path d="M482.876 396.258H486.866C487.122 396.276 487.378 396.21 487.593 396.068C487.808 395.926 487.971 395.718 488.056 395.474C488.142 395.23 488.145 394.965 488.066 394.72C487.986 394.474 487.828 394.261 487.617 394.114L483.181 390.581C482.409 389.942 481.792 389.137 481.374 388.225L477.196 379.251L469.814 381.606L462.574 372.349L462.421 372.843C461.118 377.073 460.884 381.562 461.74 385.905L463.759 396.176H466.892L467.749 385.022L475.013 392.772C476.017 393.861 477.232 394.733 478.585 395.332C479.937 395.932 481.397 396.247 482.876 396.258Z" fill="#1B2536"/>
<path d="M415.844 209.153H456.823L464.252 224.818C469.928 236.782 472.715 249.92 472.384 263.167L471.763 286.311C471.596 293.061 472.024 299.812 473.042 306.486L476.926 331.856H420.021L408.474 264.18C406.258 251.209 407.098 237.899 410.926 225.313L415.844 209.153Z" fill="#415780"/>
<path d="M470.227 242.002C468.864 236.073 466.861 230.311 464.254 224.818L456.825 209.153H415.845L410.928 225.313C410.224 227.605 409.626 229.926 409.133 232.273C416.902 231.755 447.425 230.601 470.227 242.002Z" fill="#1B2536"/>
<path d="M418.883 213.535H453.772" stroke="#28364F" stroke-width="0.37" stroke-miterlimit="10"/>
<path d="M428.679 131.913V137.92C428.679 137.92 424.443 146.965 433.62 148.662L432.951 155.528L436.331 178.436L446.435 152.878L445.79 140.806L446.071 135.635C446.071 135.635 438.654 131.336 437.446 124.964C435.127 127.959 432.119 130.343 428.679 131.913Z" fill="#D68D8D"/>
<path d="M450.11 134.787C450.856 135.204 451.456 135.841 451.831 136.611C452.205 137.381 452.336 138.247 452.204 139.094C452.073 139.94 451.687 140.726 451.097 141.346C450.507 141.966 449.743 142.389 448.906 142.559C448.069 142.729 447.201 142.638 446.417 142.298C445.634 141.958 444.973 141.385 444.524 140.656C444.074 139.927 443.858 139.078 443.905 138.223C443.951 137.367 444.257 136.546 444.782 135.871C445.352 135.026 446.23 134.44 447.226 134.238C448.222 134.035 449.257 134.232 450.11 134.787Z" fill="#D68D8D"/>
<path d="M432.506 135.564L433.504 135.776C433.51 135.706 433.51 135.635 433.504 135.564C433.504 135.285 433.421 135.012 433.267 134.779C433.112 134.547 432.892 134.366 432.635 134.259C432.377 134.152 432.094 134.124 431.821 134.178C431.548 134.233 431.297 134.367 431.1 134.565C430.903 134.763 430.769 135.015 430.715 135.289C430.66 135.563 430.688 135.847 430.795 136.105C430.901 136.364 431.082 136.584 431.313 136.74C431.545 136.895 431.817 136.978 432.096 136.978C432.338 136.97 432.574 136.898 432.78 136.77C432.986 136.642 433.154 136.462 433.269 136.248L432.506 135.564Z" fill="#1B2536"/>
<path d="M439.491 135.564L440.488 135.776C440.494 135.706 440.494 135.635 440.488 135.564C440.489 135.22 440.364 134.888 440.137 134.63C439.911 134.371 439.598 134.205 439.258 134.161C438.918 134.118 438.574 134.2 438.29 134.393C438.007 134.586 437.803 134.876 437.717 135.209C437.631 135.543 437.669 135.896 437.824 136.202C437.979 136.509 438.24 136.749 438.559 136.876C438.877 137.004 439.231 137.01 439.554 136.894C439.877 136.779 440.146 136.549 440.312 136.248L439.491 135.564Z" fill="#1B2536"/>
<path d="M436.969 132.537C438.224 132.13 439.575 132.13 440.83 132.537" stroke="#415780" stroke-width="0.75" stroke-miterlimit="10"/>
<path d="M433.34 132.537C432.325 132.167 431.211 132.167 430.195 132.537" stroke="#415780" stroke-width="0.75" stroke-miterlimit="10"/>
<path d="M434.125 148.862C434.125 148.862 439.547 149.745 442.762 145.988" stroke="#422424" stroke-width="0.5" stroke-miterlimit="10"/>
<path d="M445.547 139.428C445.723 136.271 448.622 134.387 450.018 136.978" stroke="#422424" stroke-width="0.5" stroke-miterlimit="10"/>
<path d="M448.337 138.368L447.492 135.953" stroke="#422424" stroke-width="0.5" stroke-miterlimit="10"/>
<path d="M434.838 133.185L435.19 136.719C435.212 136.962 435.173 137.207 435.077 137.431C434.981 137.655 434.83 137.852 434.638 138.002C434.169 138.368 433.641 138.909 433.77 139.392C433.981 140.193 435.87 140.122 435.87 140.122" stroke="#422424" stroke-width="0.5" stroke-miterlimit="10"/>
<path d="M433.234 141.877C433.234 141.877 435.98 143.126 439.266 140.594" stroke="#422424" stroke-width="0.5" stroke-miterlimit="10"/>
<path d="M438.773 140.04L439.677 141.112" stroke="#422424" stroke-width="0.5" stroke-miterlimit="10"/>
<path d="M443.22 151.83L439.266 157.483" stroke="#422424" stroke-width="0.5" stroke-miterlimit="10"/>
<path d="M446.434 152.902L440.907 221.131C440.826 222.12 440.95 223.114 441.271 224.052C441.592 224.99 442.104 225.85 442.773 226.58C443.442 227.309 444.255 227.891 445.16 228.289C446.065 228.688 447.042 228.893 448.03 228.893H471.501L463.286 194.831L474.118 167.93L446.434 152.902Z" fill="#415780"/>
<path d="M463.382 194.831L458.43 174.125" stroke="black" stroke-width="0.37" stroke-miterlimit="10"/>
<path d="M433.036 154.291L428.119 222.992C427.998 224.595 427.277 226.093 426.102 227.185C424.927 228.277 423.384 228.883 421.782 228.881H404.719L416.454 180.085L410.892 166.623L433.036 154.291Z" fill="#415780"/>
<path d="M420.017 165.445L416.414 180.097" stroke="black" stroke-width="0.37" stroke-miterlimit="10"/>
<path d="M447.573 154.656L450.776 159.721C451.415 160.738 451.825 161.882 451.977 163.074C452.129 164.266 452.02 165.478 451.656 166.623L448.453 176.67L450.495 179.838C451.211 180.952 451.649 182.223 451.772 183.544C451.895 184.864 451.698 186.195 451.199 187.423L443.219 207.01" stroke="#28364F" stroke-width="0.37" stroke-miterlimit="10"/>
<path d="M432.095 155.528L428.751 160.734C428.006 161.892 427.503 163.189 427.271 164.547C427.039 165.905 427.083 167.296 427.401 168.637L429.244 176.328L426.333 179.378C425.107 180.657 424.235 182.235 423.804 183.956C423.374 185.677 423.4 187.482 423.88 189.19L428.199 204.572" stroke="#28364F" stroke-width="0.37" stroke-miterlimit="10"/>
<path d="M346.719 199.46L351.906 200.273L355.45 200.002" stroke="#422424" stroke-width="0.41" stroke-miterlimit="10"/>
<path d="M346.719 201.073L351.859 202.181L354.98 202.393" stroke="#422424" stroke-width="0.41" stroke-miterlimit="10"/>
<path d="M355.673 198.871L354.781 203.394" stroke="#422424" stroke-width="0.41" stroke-miterlimit="10"/>
<path d="M498.06 202.145L467.56 212.239L460.953 196.669L495.455 183.878L498.06 202.145Z" fill="#EBBC3B"/>
<path d="M472.547 210.59L477.793 198.058C477.793 198.058 475.281 194.301 475.082 191.357L484.012 196.798L481.548 207.728L472.547 210.59Z" fill="#1B2536"/>
<path d="M479.821 196.692L477.908 203.759C477.633 204.776 477.56 205.837 477.693 206.883C477.827 207.928 478.164 208.937 478.686 209.851C479.208 210.766 479.904 211.568 480.736 212.212C481.567 212.856 482.516 213.33 483.53 213.605C484.553 213.886 485.63 213.91 486.665 213.676C487.701 213.442 488.663 212.957 489.468 212.263C490.661 211.232 491.537 209.881 491.995 208.369C492.452 206.857 492.471 205.246 492.05 203.724L489.573 194.831L490.477 187.764C490.522 187.466 490.451 187.161 490.279 186.913C490.106 186.665 489.845 186.494 489.55 186.433C489.4 186.395 489.243 186.386 489.09 186.409C488.936 186.431 488.788 186.484 488.655 186.564C488.522 186.643 488.406 186.749 488.314 186.874C488.222 187 488.155 187.142 488.118 187.293L487.238 190.591L486.006 187.529C485.821 187.039 485.452 186.641 484.978 186.42C484.504 186.2 483.963 186.175 483.471 186.351L476.336 188.954C475.874 189.123 475.491 189.456 475.259 189.891C475.028 190.325 474.964 190.831 475.08 191.31C475.375 192.526 475.961 193.652 476.787 194.59C477.613 195.527 478.655 196.249 479.821 196.692Z" fill="#D68D8D"/>
<path d="M482.125 186.881L484.014 190.485" stroke="#422424" stroke-width="0.41" stroke-miterlimit="10"/>
<path d="M479.539 187.823L481.616 191.816" stroke="#422424" stroke-width="0.41" stroke-miterlimit="10"/>
<path d="M476.969 188.718L479.093 192.782" stroke="#422424" stroke-width="0.41" stroke-miterlimit="10"/>
<path d="M421.195 327.357H474.65" stroke="white" stroke-width="0.39" stroke-miterlimit="10"/>
<path d="M146.419 162.536L159.105 205.632C159.881 208.266 160.088 211.036 159.714 213.758C159.34 216.479 158.392 219.089 156.934 221.414L147.311 236.725L137.758 204.666L134.531 151.571L136.667 152.289C138.992 153.088 141.091 154.436 142.788 156.219C144.485 158.003 145.73 160.169 146.419 162.536Z" fill="#415780"/>
<path d="M150 232.521L142.031 203.04L143.076 179.555L150 232.521Z" fill="#1B2536"/>
<path d="M182.529 370.924L184.055 375.034C184.581 376.453 185.422 377.733 186.513 378.778C187.605 379.822 188.919 380.604 190.356 381.064L200.249 384.233C203.577 385.297 206.391 387.563 208.147 390.593L211.128 395.763H168.681C168.381 395.762 168.085 395.689 167.819 395.551C167.552 395.413 167.321 395.213 167.146 394.968C166.971 394.724 166.856 394.441 166.811 394.143C166.766 393.845 166.791 393.541 166.886 393.255L169.949 383.903C170.527 382.116 170.556 380.195 170.031 378.391L167.813 370.924H182.529Z" fill="#CF7F4C"/>
<path d="M211.128 395.74L208.147 390.569C206.391 387.54 203.577 385.273 200.249 384.209L190.356 381.041C189.637 380.806 188.944 380.494 188.291 380.11L187.34 382.007C186.676 383.341 185.595 384.422 184.263 385.083C182.93 385.744 181.419 385.95 179.959 385.67L169.972 383.75C169.972 383.75 169.972 383.832 169.972 383.879L166.909 393.231C166.815 393.517 166.789 393.821 166.834 394.119C166.879 394.417 166.994 394.7 167.17 394.945C167.345 395.19 167.575 395.389 167.842 395.527C168.109 395.666 168.404 395.738 168.705 395.74H211.128Z" fill="black"/>
<path d="M114.56 370.924V380.134L118.456 396.258H97.2266L100.489 380.134L99.914 370.924H114.56Z" fill="#CF7F4C"/>
<path d="M107.659 380.134C105.633 380.135 103.67 380.839 102.102 382.127C100.534 383.415 99.4582 385.207 99.0573 387.201L97.2266 396.282H118.456L116.191 386.859C115.723 384.942 114.629 383.237 113.082 382.018C111.535 380.799 109.626 380.135 107.659 380.134Z" fill="black"/>
<path d="M146.021 227.468L186.813 374.787H166.417L117.985 256.854V374.787H96.2278L84.3281 227.468L124.064 208.34L146.021 227.468Z" fill="#415780"/>
<path d="M146.021 227.468L124.064 208.34L84.3281 227.468L84.9266 234.947L150.727 244.475L146.021 227.468Z" fill="#1B2536"/>
<path d="M117.984 256.854L119.369 209.271" stroke="black" stroke-width="0.37" stroke-miterlimit="10"/>
<path d="M126.351 213.923L125.365 231.39C125.272 233.094 124.814 234.758 124.022 236.268C123.23 237.778 122.123 239.099 120.777 240.141L118.43 241.978" stroke="black" stroke-width="0.37" stroke-miterlimit="10"/>
<path d="M107.234 242.826L132.911 246.548" stroke="black" stroke-width="0.37" stroke-miterlimit="10"/>
<path d="M97.2266 368.674H115.721" stroke="black" stroke-width="0.37" stroke-miterlimit="10"/>
<path d="M165.656 368.674H184.163" stroke="black" stroke-width="0.37" stroke-miterlimit="10"/>
<path d="M124.086 245.276L170.84 368.674" stroke="black" stroke-width="0.37" stroke-miterlimit="10"/>
<path d="M92.6953 227.951L102.389 368.674" stroke="black" stroke-width="0.37" stroke-miterlimit="10"/>
<path d="M118.782 225.713L123.688 214.489L125.589 225.089C126.174 228.344 127.817 231.313 130.26 233.533C132.704 235.753 135.811 237.099 139.096 237.361L151.582 238.351L142.03 203.017L143.802 163.243C143.909 160.843 143.237 158.473 141.887 156.489C140.536 154.505 138.581 153.015 136.315 152.242L120.073 146.695H105.099L89.8428 150.652C82.0946 152.671 75.3696 157.507 70.9724 164.22L52.5127 192.487C50.3111 195.855 49.1052 199.78 49.0345 203.807C48.9639 207.834 50.0315 211.799 52.1137 215.242C52.6241 216.087 53.2955 216.822 54.0895 217.405C54.8835 217.988 55.7844 218.408 56.7406 218.642C57.6968 218.875 58.6894 218.916 59.6616 218.763C60.6337 218.61 61.5662 218.266 62.4056 217.751L74.8568 210.107L91.0633 192.558L80.8536 232.815L103.96 234.629C107.048 234.874 110.135 234.147 112.792 232.549C115.448 230.951 117.542 228.561 118.782 225.713Z" fill="#415780"/>
<path d="M144.461 203.759H153.873" stroke="black" stroke-width="0.43" stroke-miterlimit="10"/>
<path d="M146.023 205.325L153.874 208.34" stroke="black" stroke-width="0.43" stroke-miterlimit="10"/>
<path d="M143.721 165.104L142.031 203.04L149.166 229.423" stroke="black" stroke-width="0.37" stroke-miterlimit="10"/>
<path d="M121.492 199.601L124.391 209.648C124.707 210.7 124.662 211.828 124.262 212.851L123.64 214.489" stroke="#1B2536" stroke-width="0.43" stroke-miterlimit="10"/>
<path d="M121.498 210.331C121.466 210.688 121.302 211.02 121.038 211.262C120.774 211.504 120.43 211.638 120.072 211.638C119.715 211.638 119.371 211.504 119.107 211.262C118.843 211.02 118.679 210.688 118.646 210.331C118.629 210.132 118.652 209.932 118.715 209.742C118.779 209.553 118.881 209.379 119.015 209.232C119.149 209.085 119.313 208.967 119.495 208.886C119.677 208.806 119.873 208.764 120.072 208.764C120.271 208.764 120.468 208.806 120.65 208.886C120.832 208.967 120.995 209.085 121.13 209.232C121.264 209.379 121.366 209.553 121.429 209.742C121.493 209.932 121.516 210.132 121.498 210.331Z" stroke="white" stroke-width="0.43" stroke-miterlimit="10"/>
<path d="M81.2891 161.252L88.6354 182.865" stroke="black" stroke-width="0.43" stroke-miterlimit="10"/>
<path d="M98.3577 171.091L67.6094 179.47L78.3715 219.253L109.12 210.874L98.3577 171.091Z" fill="#EBBC3B"/>
<path d="M84.7911 174.09L84.4743 172.912C84.4034 172.653 84.2822 172.409 84.1176 172.196C83.953 171.984 83.7483 171.805 83.5151 171.672C83.2819 171.538 83.0248 171.452 82.7585 171.419C82.4921 171.385 82.2218 171.404 81.9629 171.475C81.704 171.547 81.4616 171.668 81.2495 171.833C81.0374 171.999 80.8599 172.204 80.7269 172.438C80.594 172.672 80.5083 172.93 80.4747 173.197C80.4411 173.465 80.4603 173.736 80.5312 173.996L80.848 175.174L77.8203 175.998L78.6301 179.025L88.6286 176.304L87.8071 173.266L84.7911 174.09Z" fill="white"/>
<path d="M78.3836 219.247L104.823 194.961L102.676 187.011L72.3281 198.294L78.3836 219.247Z" fill="#1B2536"/>
<path d="M86.9375 191.321L93.0868 186.81L96.4666 185.515C96.8339 185.404 97.2297 185.444 97.5681 185.625C97.9065 185.806 98.1601 186.113 98.2738 186.481L98.4733 187.011L102.745 185.75C102.972 185.703 103.206 185.701 103.433 185.747C103.661 185.792 103.877 185.882 104.069 186.013C104.26 186.144 104.424 186.312 104.549 186.508C104.675 186.704 104.759 186.923 104.799 187.152L105.479 189.967C105.571 190.301 105.565 190.654 105.461 190.985C105.357 191.315 105.159 191.608 104.893 191.828L103.848 192.629V192.746C103.987 193.199 103.98 193.684 103.828 194.132C103.677 194.581 103.388 194.969 103.003 195.243L98.2152 198.317C97.3457 198.876 96.384 199.275 95.3752 199.495L90.0708 200.614L86.9375 191.321Z" fill="#CF7F4C"/>
<path d="M96.3438 190.674L104.817 187.234" stroke="#422424" stroke-width="0.5" stroke-miterlimit="10"/>
<path d="M97.7578 193.382L105.327 189.343" stroke="#422424" stroke-width="0.5" stroke-miterlimit="10"/>
<path d="M98.8672 195.738L103.843 192.629" stroke="#422424" stroke-width="0.5" stroke-miterlimit="10"/>
<path d="M98.475 187.011L94.0625 188.813" stroke="#422424" stroke-width="0.5" stroke-miterlimit="10"/>
<path d="M84.3281 191.404L87.9191 190.12L92.402 202.181L86.6048 205.337L84.3281 191.404Z" fill="white"/>
<path d="M103.46 148.744L97.9328 155.469C97.1719 156.391 96.7743 157.56 96.8154 158.757C96.8565 159.953 97.3334 161.092 98.1558 161.959L108.858 173.136L105.056 178.059C104.361 178.959 104.002 180.075 104.04 181.213C104.079 182.351 104.513 183.44 105.267 184.29L122.87 204.136L131.273 181.381C131.633 180.415 131.678 179.36 131.402 178.367C131.125 177.374 130.542 176.495 129.736 175.857L124.924 172.017L130.264 160.004C130.698 159.02 130.796 157.92 130.543 156.874C130.291 155.829 129.702 154.896 128.867 154.221L122.049 148.744" stroke="#1B2536" stroke-width="0.43" stroke-miterlimit="10"/>
<path d="M57.5006 199.872L84.3511 191.404L89.4794 205.137L70.7029 218.623C69.2382 219.668 67.5749 220.4 65.8164 220.773C64.0579 221.146 62.2418 221.152 60.4809 220.791C58.7199 220.43 57.0518 219.709 55.5802 218.673C54.1086 217.638 52.8648 216.31 51.9263 214.771C51.1333 213.461 50.6472 211.988 50.5049 210.461C50.3625 208.935 50.5674 207.397 51.1043 205.962C51.6412 204.527 52.4959 203.233 53.604 202.178C54.7121 201.123 56.0445 200.335 57.5006 199.872Z" fill="#415780"/>
<path d="M58.3281 199.601L83.2305 191.745" stroke="black" stroke-width="0.43" stroke-miterlimit="10"/>
<path d="M105.102 146.718L121.496 199.601L120.076 146.718H105.102Z" fill="white"/>
<path d="M114.376 151.653L108.391 157.33L109.036 159.403L114.61 153.62L120.349 156.847L120.302 154.845L114.376 151.653Z" fill="#DDE9EB"/>
<path d="M122.211 122.891C126.201 120.1 128.079 112.939 122.211 110.301C116.343 107.662 108.598 111.867 104.749 115.012C99.7497 113.151 94.4101 122.161 100.606 123.951L102.179 130.924L122.211 122.891Z" fill="#1B2536"/>
<path d="M105.673 129.263C105.673 129.263 109.452 127.261 109.194 119.959H122.819L123.534 128.262C126.527 130.759 126.527 138.78 119.251 140.04L120.037 146.765L114.334 151.712L105.063 146.765L104.711 133.385L105.673 129.263Z" fill="#CF7F4C"/>
<path d="M114.904 131.289C114.906 131.688 114.79 132.079 114.571 132.412C114.351 132.745 114.038 133.005 113.671 133.159C113.304 133.313 112.899 133.354 112.509 133.277C112.118 133.199 111.76 133.007 111.478 132.725C111.197 132.443 111.006 132.083 110.929 131.691C110.852 131.299 110.892 130.893 111.046 130.525C111.199 130.156 111.458 129.842 111.79 129.621C112.122 129.401 112.511 129.284 112.909 129.287C113.437 129.29 113.943 129.502 114.316 129.877C114.69 130.251 114.901 130.759 114.904 131.289Z" fill="#CF5A42"/>
<path d="M113.904 124.752C113.7 124.752 113.499 124.8 113.317 124.893C113.134 124.985 112.976 125.12 112.855 125.285C112.734 125.45 112.653 125.641 112.62 125.843C112.586 126.045 112.6 126.253 112.66 126.448L113.658 126.177L113.059 127.073C113.295 127.284 113.6 127.401 113.916 127.402C114.1 127.42 114.285 127.398 114.461 127.34C114.636 127.281 114.797 127.186 114.933 127.062C115.07 126.937 115.179 126.785 115.254 126.615C115.328 126.446 115.367 126.263 115.367 126.077C115.367 125.892 115.328 125.709 115.254 125.539C115.179 125.37 115.07 125.218 114.933 125.093C114.797 124.968 114.636 124.873 114.461 124.815C114.285 124.756 114.1 124.735 113.916 124.752H113.904Z" fill="#1B2536"/>
<path d="M120.486 124.752C120.281 124.75 120.078 124.797 119.895 124.889C119.711 124.981 119.551 125.114 119.429 125.28C119.307 125.445 119.225 125.637 119.19 125.84C119.156 126.043 119.17 126.252 119.231 126.448L120.228 126.177L119.63 127.073C119.865 127.284 120.17 127.401 120.486 127.402C120.67 127.42 120.856 127.398 121.031 127.34C121.206 127.281 121.367 127.186 121.504 127.062C121.64 126.937 121.749 126.785 121.824 126.615C121.899 126.446 121.937 126.263 121.937 126.077C121.937 125.892 121.899 125.709 121.824 125.539C121.749 125.37 121.64 125.218 121.504 125.093C121.367 124.968 121.206 124.873 121.031 124.815C120.856 124.756 120.67 124.735 120.486 124.752Z" fill="#1B2536"/>
<path d="M118.523 123.292C119.671 122.839 120.94 122.798 122.114 123.174" stroke="#1B2536" stroke-width="0.86" stroke-miterlimit="10"/>
<path d="M115.486 123.292C114.334 122.838 113.062 122.797 111.883 123.174" stroke="#1B2536" stroke-width="0.86" stroke-miterlimit="10"/>
<path d="M113.906 131.407H121.476C121.476 131.407 120.971 129.287 117.697 129.287C114.423 129.287 113.906 131.407 113.906 131.407Z" fill="#1B2536"/>
<path d="M107.669 131.654C107.669 132.553 107.403 133.432 106.906 134.18C106.408 134.928 105.7 135.51 104.873 135.854C104.045 136.198 103.134 136.289 102.255 136.113C101.377 135.938 100.57 135.505 99.9361 134.869C99.3026 134.233 98.8712 133.423 98.6964 132.541C98.5216 131.659 98.6113 130.745 98.9542 129.914C99.297 129.084 99.8776 128.374 100.623 127.874C101.368 127.374 102.243 127.108 103.139 127.108C104.341 127.108 105.493 127.587 106.342 128.439C107.192 129.292 107.669 130.448 107.669 131.654Z" fill="#CF7F4C"/>
<path d="M117.622 124.269L117.787 126.625L119.16 128.592C119.203 128.661 119.228 128.74 119.231 128.821C119.235 128.903 119.216 128.984 119.178 129.055C119.14 129.127 119.083 129.188 119.014 129.231C118.945 129.273 118.865 129.297 118.784 129.299H116.695" stroke="#422424" stroke-width="0.5" stroke-miterlimit="10"/>
<path d="M119.903 133.951C118.812 134.302 117.638 134.302 116.547 133.951" stroke="#422424" stroke-width="0.5" stroke-miterlimit="10"/>
<path d="M118.528 140.158C118.528 140.158 111.486 141.595 107.344 137.107" stroke="#422424" stroke-width="0.5" stroke-miterlimit="10"/>
<path d="M100.609 130.983C101.971 128.757 104.752 128.757 106.383 132.408" stroke="#422424" stroke-width="0.5" stroke-miterlimit="10"/>
<path d="M103.141 132.408L103.763 129.581" stroke="#422424" stroke-width="0.5" stroke-miterlimit="10"/>
<path d="M118.08 153.632L114.371 151.653L111.344 154.562L114.195 157.507L113.421 173.548L121.495 199.601L120.802 173.654L116.707 157.307L118.08 153.632Z" fill="#D65353"/>
<path d="M552.594 229.647H486.982C485.037 229.647 483.461 231.229 483.461 233.18V267.631C483.461 269.582 485.037 271.164 486.982 271.164H552.594C554.538 271.164 556.114 269.582 556.114 267.631V233.18C556.114 231.229 554.538 229.647 552.594 229.647Z" fill="#0E2B5C"/>
<path d="M512.636 237.703H491.289V246.536H512.636V237.703Z" stroke="white" stroke-width="0.4" stroke-miterlimit="10"/>
<path d="M491.289 252.06H548.276" stroke="white" stroke-width="0.4" stroke-miterlimit="10"/>
<path d="M491.289 257.584H548.276" stroke="white" stroke-width="0.4" stroke-miterlimit="10"/>
<path d="M491.289 263.096H548.276" stroke="white" stroke-width="0.4" stroke-miterlimit="10"/>
<path d="M552.594 277.972H486.982C485.037 277.972 483.461 279.554 483.461 281.505V315.956C483.461 317.907 485.037 319.489 486.982 319.489H552.594C554.538 319.489 556.114 317.907 556.114 315.956V281.505C556.114 279.554 554.538 277.972 552.594 277.972Z" fill="#0E2B5C"/>
<path d="M512.636 286.028H491.289V294.861H512.636V286.028Z" stroke="white" stroke-width="0.4" stroke-miterlimit="10"/>
<path d="M491.289 300.385H548.276" stroke="white" stroke-width="0.4" stroke-miterlimit="10"/>
<path d="M491.289 305.897H548.276" stroke="white" stroke-width="0.4" stroke-miterlimit="10"/>
<path d="M491.289 311.421H548.276" stroke="white" stroke-width="0.4" stroke-miterlimit="10"/>
</g>
<defs>
<clipPath id="clip0_3113_2695">
<rect width="569" height="397" fill="white"/>
</clipPath>
</defs>
</svg>
