<svg width="96" height="68" viewBox="0 0 96 68" fill="none" xmlns="http://www.w3.org/2000/svg">
<path d="M64.9968 54.6855H59.4569V63.376H64.9968V54.6855Z" fill="#202724"/>
<path d="M82.3449 63.6057L62.2268 61.1575L42.1023 63.6057C41.7018 63.6273 41.3231 63.7948 41.0377 64.0766C40.7523 64.3584 40.5799 64.7349 40.5533 65.1351V67.4718H44.1568V66.4479L57.2843 65.0892H67.13L80.2904 66.4479V67.4587H83.8939V65.1351C83.8672 64.7349 83.6949 64.3584 83.4095 64.0766C83.1241 63.7948 82.7453 63.6273 82.3449 63.6057Z" fill="#003B4F"/>
<path d="M94.8488 21.8667C94.7737 21.8043 94.6866 21.7582 94.5928 21.7311C94.4991 21.7039 94.4007 21.6965 94.304 21.7091C94.2055 21.7091 30.2414 21.7091 30.143 21.7091C30.0462 21.693 29.947 21.6988 29.8527 21.726C29.7584 21.7533 29.6715 21.8013 29.5982 21.8667C29.5233 21.9291 29.4631 22.0074 29.4223 22.096C29.3814 22.1846 29.3608 22.2811 29.3619 22.3786V57.7312C29.3619 57.9052 29.4311 58.0722 29.5541 58.1953C29.6772 58.3184 29.8442 58.3875 30.0183 58.3875H30.0839C30.1955 58.3875 94.2055 58.3875 94.3302 58.3875C94.4228 58.3987 94.5167 58.3901 94.6057 58.3621C94.6946 58.3342 94.7766 58.2876 94.8462 58.2255C94.9157 58.1634 94.9713 58.0872 95.0091 58.002C95.0469 57.9167 95.0661 57.8244 95.0654 57.7312V22.3786C95.0689 22.2826 95.0514 22.1871 95.0139 22.0986C94.9765 22.0101 94.9201 21.931 94.8488 21.8667ZM30.714 54.2655L30.8322 23.3238L93.8445 23.1926L93.7263 54.2721L30.714 54.2655Z" fill="#003B4F"/>
<path d="M30.7141 54.2656L30.8322 23.3305L93.8511 23.1926L93.733 54.2721L30.7141 54.2656Z" fill="#EEEFEF"/>
<path d="M66.2175 38.8801V50.0385H65.6464C65.5768 50.0385 65.51 50.0662 65.4608 50.1154C65.4115 50.1647 65.3839 50.2315 65.3839 50.3011V50.9575C65.3839 51.0271 65.4115 51.0939 65.4608 51.1431C65.51 51.1924 65.5768 51.22 65.6464 51.22H90.0243C90.094 51.22 90.1607 51.1924 90.21 51.1431C90.2592 51.0939 90.2869 51.0271 90.2869 50.9575V50.3011C90.2869 50.2315 90.2592 50.1647 90.21 50.1154C90.1607 50.0662 90.094 50.0385 90.0243 50.0385H89.4533V27.2425C89.4542 27.2084 89.4482 27.1744 89.4357 27.1426C89.4232 27.1107 89.4045 27.0817 89.3807 27.0573C89.3568 27.0328 89.3283 27.0133 89.2968 27.0001C89.2653 26.9868 89.2315 26.98 89.1973 26.98H79.8439C79.8097 26.98 79.7759 26.9868 79.7444 27.0001C79.7129 27.0133 79.6844 27.0328 79.6605 27.0573C79.6367 27.0817 79.618 27.1107 79.6055 27.1426C79.593 27.1744 79.587 27.2084 79.5879 27.2425V38.3419C79.5879 38.4115 79.5603 38.4783 79.511 38.5275C79.4618 38.5768 79.395 38.6044 79.3253 38.6044H66.4472C66.3804 38.6111 66.3189 38.6437 66.276 38.6953C66.233 38.7469 66.212 38.8132 66.2175 38.8801ZM86.3617 28.7063C86.3617 28.6384 86.3887 28.5733 86.4367 28.5253C86.4847 28.4773 86.5498 28.4503 86.6177 28.4503H87.6745C87.7084 28.4494 87.7421 28.4554 87.7735 28.4679C87.805 28.4805 87.8335 28.4993 87.8575 28.5232C87.8814 28.5472 87.9003 28.5758 87.9128 28.6072C87.9254 28.6387 87.9314 28.6724 87.9305 28.7063V29.763C87.9314 29.7969 87.9254 29.8306 87.9128 29.8621C87.9003 29.8935 87.8814 29.9221 87.8575 29.946C87.8335 29.97 87.805 29.9888 87.7735 30.0014C87.7421 30.0139 87.7084 30.0199 87.6745 30.019H86.5652C86.4973 30.019 86.4322 29.992 86.3842 29.944C86.3362 29.896 86.3092 29.8309 86.3092 29.763L86.3617 28.7063ZM86.3617 31.0692C86.3617 31.0007 86.3885 30.9349 86.4363 30.8859C86.4841 30.8368 86.5492 30.8084 86.6177 30.8067H87.6745C87.7087 30.8067 87.7425 30.8135 87.774 30.8268C87.8055 30.84 87.834 30.8595 87.8579 30.884C87.8817 30.9084 87.9004 30.9374 87.9129 30.9692C87.9254 31.0011 87.9314 31.0351 87.9305 31.0692V32.1194C87.9314 32.1536 87.9254 32.1876 87.9129 32.2194C87.9004 32.2512 87.8817 32.2802 87.8579 32.3047C87.834 32.3292 87.8055 32.3486 87.774 32.3619C87.7425 32.3752 87.7087 32.382 87.6745 32.382H86.5652C86.4967 32.3803 86.4316 32.3519 86.3838 32.3028C86.3359 32.2537 86.3092 32.1879 86.3092 32.1194L86.3617 31.0692ZM86.3617 33.4256C86.3617 33.3577 86.3887 33.2926 86.4367 33.2446C86.4847 33.1966 86.5498 33.1696 86.6177 33.1696H87.6745C87.7084 33.1687 87.7421 33.1747 87.7735 33.1873C87.805 33.1998 87.8335 33.2186 87.8575 33.2426C87.8814 33.2665 87.9003 33.2951 87.9128 33.3266C87.9254 33.3581 87.9314 33.3918 87.9305 33.4256V34.4824C87.9314 34.5165 87.9254 34.5506 87.9129 34.5824C87.9004 34.6142 87.8817 34.6432 87.8579 34.6676C87.834 34.6921 87.8055 34.7116 87.774 34.7248C87.7425 34.7381 87.7087 34.745 87.6745 34.7449H86.5652C86.4967 34.7432 86.4316 34.7148 86.3838 34.6658C86.3359 34.6167 86.3092 34.5509 86.3092 34.4824L86.3617 33.4256ZM86.3617 35.7886C86.3617 35.7201 86.3885 35.6543 86.4363 35.6052C86.4841 35.5561 86.5492 35.5277 86.6177 35.526H87.6745C87.7087 35.526 87.7425 35.5329 87.774 35.5461C87.8055 35.5594 87.834 35.5788 87.8579 35.6033C87.8817 35.6278 87.9004 35.6568 87.9129 35.6886C87.9254 35.7204 87.9314 35.7544 87.9305 35.7886V36.8453C87.9305 36.9132 87.9035 36.9784 87.8555 37.0264C87.8075 37.0744 87.7424 37.1013 87.6745 37.1013H86.5652C86.4978 37.0997 86.4337 37.0722 86.3861 37.0245C86.3384 36.9769 86.3109 36.9127 86.3092 36.8453L86.3617 35.7886ZM86.3617 38.145C86.3617 38.0771 86.3887 38.012 86.4367 37.964C86.4847 37.916 86.5498 37.889 86.6177 37.889H87.6745C87.7084 37.8881 87.7421 37.8941 87.7735 37.9066C87.805 37.9192 87.8335 37.938 87.8575 37.962C87.8814 37.9859 87.9003 38.0145 87.9128 38.0459C87.9254 38.0774 87.9314 38.1111 87.9305 38.145V39.2017C87.9314 39.2359 87.9254 39.2699 87.9129 39.3017C87.9004 39.3336 87.8817 39.3625 87.8579 39.387C87.834 39.4115 87.8055 39.4309 87.774 39.4442C87.7425 39.4575 87.7087 39.4643 87.6745 39.4643H86.5652C86.4967 39.4626 86.4316 39.4342 86.3838 39.3851C86.3359 39.3361 86.3092 39.2702 86.3092 39.2017L86.3617 38.145ZM86.3617 40.5079C86.3617 40.4394 86.3885 40.3736 86.4363 40.3246C86.4841 40.2755 86.5492 40.2471 86.6177 40.2454H87.6745C87.7087 40.2454 87.7425 40.2522 87.774 40.2655C87.8055 40.2788 87.834 40.2982 87.8579 40.3227C87.8817 40.3471 87.9004 40.3761 87.9129 40.4079C87.9254 40.4398 87.9314 40.4738 87.9305 40.5079V41.5647C87.9305 41.6326 87.9035 41.6977 87.8555 41.7457C87.8075 41.7937 87.7424 41.8207 87.6745 41.8207H86.5652C86.4978 41.819 86.4337 41.7915 86.3861 41.7439C86.3384 41.6962 86.3109 41.6321 86.3092 41.5647L86.3617 40.5079ZM86.3617 42.8643C86.3634 42.797 86.3909 42.7328 86.4385 42.6852C86.4862 42.6375 86.5504 42.61 86.6177 42.6083H87.6745C87.7424 42.6083 87.8075 42.6353 87.8555 42.6833C87.9035 42.7313 87.9305 42.7964 87.9305 42.8643V43.9211C87.9314 43.955 87.9254 43.9887 87.9128 44.0201C87.9003 44.0516 87.8814 44.0802 87.8575 44.1041C87.8335 44.1281 87.805 44.1469 87.7735 44.1594C87.7421 44.172 87.7084 44.178 87.6745 44.1771H86.5652C86.4973 44.1771 86.4322 44.1501 86.3842 44.1021C86.3362 44.0541 86.3092 43.989 86.3092 43.9211L86.3617 42.8643ZM86.3617 45.2273C86.3617 45.1588 86.3885 45.093 86.4363 45.0439C86.4841 44.9949 86.5492 44.9665 86.6177 44.9647H87.6745C87.7087 44.9647 87.7425 44.9716 87.774 44.9848C87.8055 44.9981 87.834 45.0175 87.8579 45.042C87.8817 45.0665 87.9004 45.0955 87.9129 45.1273C87.9254 45.1591 87.9314 45.1931 87.9305 45.2273V46.2841C87.9305 46.352 87.9035 46.4171 87.8555 46.4651C87.8075 46.5131 87.7424 46.5401 87.6745 46.5401H86.5652C86.4978 46.5384 86.4337 46.5109 86.3861 46.4632C86.3384 46.4156 86.3109 46.3514 86.3092 46.2841L86.3617 45.2273ZM86.3617 47.5837C86.3634 47.5163 86.3909 47.4522 86.4385 47.4045C86.4862 47.3569 86.5504 47.3294 86.6177 47.3277H87.6745C87.7424 47.3277 87.8075 47.3547 87.8555 47.4027C87.9035 47.4507 87.9305 47.5158 87.9305 47.5837V48.6405C87.9314 48.6746 87.9254 48.7086 87.9129 48.7404C87.9004 48.7723 87.8817 48.8013 87.8579 48.8257C87.834 48.8502 87.8055 48.8696 87.774 48.8829C87.7425 48.8962 87.7087 48.903 87.6745 48.903H86.5652C86.4967 48.9013 86.4316 48.8729 86.3838 48.8238C86.3359 48.7748 86.3092 48.709 86.3092 48.6405L86.3617 47.5837ZM83.7953 28.7063C83.7953 28.6721 83.8021 28.6383 83.8154 28.6068C83.8287 28.5753 83.8481 28.5468 83.8726 28.5229C83.8971 28.499 83.9261 28.4803 83.9579 28.4678C83.9897 28.4554 84.0237 28.4494 84.0578 28.4503H85.1146C85.1825 28.4503 85.2476 28.4773 85.2956 28.5253C85.3436 28.5733 85.3706 28.6384 85.3706 28.7063V29.763C85.3706 29.8309 85.3436 29.896 85.2956 29.944C85.2476 29.992 85.1825 30.019 85.1146 30.019H84.0578C84.0237 30.0199 83.9897 30.0139 83.9579 30.0014C83.9261 29.989 83.8971 29.9703 83.8726 29.9464C83.8481 29.9225 83.8287 29.894 83.8154 29.8625C83.8021 29.831 83.7953 29.7972 83.7953 29.763V28.7063ZM83.7953 31.0692C83.7953 30.9996 83.823 30.9328 83.8722 30.8836C83.9214 30.8343 83.9882 30.8067 84.0578 30.8067H85.1146C85.1831 30.8084 85.2482 30.8368 85.296 30.8859C85.3439 30.9349 85.3706 31.0007 85.3706 31.0692V32.1194C85.3706 32.1879 85.3439 32.2537 85.296 32.3028C85.2482 32.3519 85.1831 32.3803 85.1146 32.382H84.0578C83.9882 32.382 83.9214 32.3543 83.8722 32.3051C83.823 32.2558 83.7953 32.1891 83.7953 32.1194V31.0692ZM83.7953 33.4256C83.7953 33.3914 83.8021 33.3576 83.8154 33.3261C83.8287 33.2946 83.8481 33.2661 83.8726 33.2423C83.8971 33.2184 83.9261 33.1997 83.9579 33.1872C83.9897 33.1747 84.0237 33.1687 84.0578 33.1696H85.1146C85.1825 33.1696 85.2476 33.1966 85.2956 33.2446C85.3436 33.2926 85.3706 33.3577 85.3706 33.4256V34.4824C85.3706 34.5509 85.3439 34.6167 85.296 34.6658C85.2482 34.7148 85.1831 34.7432 85.1146 34.7449H84.0578C83.9882 34.7449 83.9214 34.7173 83.8722 34.668C83.823 34.6188 83.7953 34.552 83.7953 34.4824V33.4256ZM83.7953 35.7886C83.7953 35.719 83.823 35.6522 83.8722 35.6029C83.9214 35.5537 83.9882 35.526 84.0578 35.526H85.1146C85.1831 35.5277 85.2482 35.5561 85.296 35.6052C85.3439 35.6543 85.3706 35.7201 85.3706 35.7886V36.8453C85.3689 36.9127 85.3414 36.9769 85.2938 37.0245C85.2461 37.0722 85.182 37.0997 85.1146 37.1013H84.0578C83.9893 37.1014 83.9235 37.0746 83.8745 37.0268C83.8254 36.9789 83.797 36.9138 83.7953 36.8453V35.7886ZM83.7953 38.145C83.7953 38.1108 83.8021 38.077 83.8154 38.0455C83.8287 38.014 83.8481 37.9855 83.8726 37.9616C83.8971 37.9378 83.9261 37.919 83.9579 37.9065C83.9897 37.8941 84.0237 37.8881 84.0578 37.889H85.1146C85.1825 37.889 85.2476 37.916 85.2956 37.964C85.3436 38.012 85.3706 38.0771 85.3706 38.145V39.2017C85.3706 39.2702 85.3439 39.3361 85.296 39.3851C85.2482 39.4342 85.1831 39.4626 85.1146 39.4643H84.0578C83.9882 39.4643 83.9214 39.4366 83.8722 39.3874C83.823 39.3382 83.7953 39.2714 83.7953 39.2017V38.145ZM83.7953 40.5079C83.7953 40.4383 83.823 40.3715 83.8722 40.3223C83.9214 40.273 83.9882 40.2454 84.0578 40.2454H85.1146C85.1831 40.2471 85.2482 40.2755 85.296 40.3246C85.3439 40.3736 85.3706 40.4394 85.3706 40.5079V41.5647C85.3689 41.6321 85.3414 41.6962 85.2938 41.7439C85.2461 41.7915 85.182 41.819 85.1146 41.8207H84.0578C83.9893 41.8207 83.9235 41.794 83.8745 41.7461C83.8254 41.6983 83.797 41.6332 83.7953 41.5647V40.5079ZM83.7953 42.8643C83.797 42.7959 83.8254 42.7307 83.8745 42.6829C83.9235 42.6351 83.9893 42.6083 84.0578 42.6083H85.1146C85.182 42.61 85.2461 42.6375 85.2938 42.6852C85.3414 42.7328 85.3689 42.797 85.3706 42.8643V43.9211C85.3706 43.989 85.3436 44.0541 85.2956 44.1021C85.2476 44.1501 85.1825 44.1771 85.1146 44.1771H84.0578C84.0237 44.178 83.9897 44.172 83.9579 44.1595C83.9261 44.1471 83.8971 44.1283 83.8726 44.1045C83.8481 44.0806 83.8287 44.0521 83.8154 44.0206C83.8021 43.9891 83.7953 43.9553 83.7953 43.9211V42.8643ZM83.7953 45.2273C83.7953 45.1577 83.823 45.0909 83.8722 45.0416C83.9214 44.9924 83.9882 44.9647 84.0578 44.9647H85.1146C85.1831 44.9665 85.2482 44.9949 85.296 45.0439C85.3439 45.093 85.3706 45.1588 85.3706 45.2273V46.2841C85.3689 46.3514 85.3414 46.4156 85.2938 46.4632C85.2461 46.5109 85.182 46.5384 85.1146 46.5401H84.0578C83.9893 46.5401 83.9235 46.5133 83.8745 46.4655C83.8254 46.4177 83.797 46.3526 83.7953 46.2841V45.2273ZM83.7953 47.5837C83.797 47.5152 83.8254 47.4501 83.8745 47.4023C83.9235 47.3545 83.9893 47.3277 84.0578 47.3277H85.1146C85.182 47.3294 85.2461 47.3569 85.2938 47.4045C85.3414 47.4522 85.3689 47.5163 85.3706 47.5837V48.6405C85.3706 48.709 85.3439 48.7748 85.296 48.8238C85.2482 48.8729 85.1831 48.9013 85.1146 48.903H84.0578C83.9882 48.903 83.9214 48.8753 83.8722 48.8261C83.823 48.7769 83.7953 48.7101 83.7953 48.6405V47.5837ZM81.2354 28.7063C81.2354 28.6384 81.2624 28.5733 81.3104 28.5253C81.3584 28.4773 81.4235 28.4503 81.4914 28.4503H82.5482C82.5823 28.4494 82.6164 28.4554 82.6482 28.4678C82.68 28.4803 82.709 28.499 82.7334 28.5229C82.7579 28.5468 82.7774 28.5753 82.7906 28.6068C82.8039 28.6383 82.8108 28.6721 82.8107 28.7063V29.763C82.8108 29.7972 82.8039 29.831 82.7906 29.8625C82.7774 29.894 82.7579 29.9225 82.7334 29.9464C82.709 29.9703 82.68 29.989 82.6482 30.0014C82.6164 30.0139 82.5823 30.0199 82.5482 30.019H81.4914C81.4235 30.019 81.3584 29.992 81.3104 29.944C81.2624 29.896 81.2354 29.8309 81.2354 29.763V28.7063ZM81.2354 31.0692C81.2354 31.0007 81.2621 30.9349 81.31 30.8859C81.3578 30.8368 81.4229 30.8084 81.4914 30.8067H82.5482C82.6178 30.8067 82.6846 30.8343 82.7338 30.8836C82.7831 30.9328 82.8107 30.9996 82.8107 31.0692V32.1194C82.8107 32.1891 82.7831 32.2558 82.7338 32.3051C82.6846 32.3543 82.6178 32.382 82.5482 32.382H81.4914C81.4229 32.3803 81.3578 32.3519 81.31 32.3028C81.2621 32.2537 81.2354 32.1879 81.2354 32.1194V31.0692ZM81.2354 33.4256C81.2354 33.3577 81.2624 33.2926 81.3104 33.2446C81.3584 33.1966 81.4235 33.1696 81.4914 33.1696H82.5482C82.5823 33.1687 82.6164 33.1747 82.6482 33.1872C82.68 33.1997 82.709 33.2184 82.7334 33.2423C82.7579 33.2661 82.7774 33.2946 82.7906 33.3261C82.8039 33.3576 82.8108 33.3914 82.8107 33.4256V34.4824C82.8107 34.552 82.7831 34.6188 82.7338 34.668C82.6846 34.7173 82.6178 34.7449 82.5482 34.7449H81.4914C81.4229 34.7432 81.3578 34.7148 81.31 34.6658C81.2621 34.6167 81.2354 34.5509 81.2354 34.4824V33.4256ZM81.2354 35.7886C81.2354 35.7201 81.2621 35.6543 81.31 35.6052C81.3578 35.5561 81.4229 35.5277 81.4914 35.526H82.5482C82.6178 35.526 82.6846 35.5537 82.7338 35.6029C82.7831 35.6522 82.8107 35.719 82.8107 35.7886V36.8453C82.809 36.9138 82.7806 36.9789 82.7315 37.0268C82.6825 37.0746 82.6167 37.1014 82.5482 37.1013H81.4914C81.424 37.0997 81.3599 37.0722 81.3122 37.0245C81.2646 36.9769 81.2371 36.9127 81.2354 36.8453V35.7886ZM81.2354 38.145C81.2354 38.0771 81.2624 38.012 81.3104 37.964C81.3584 37.916 81.4235 37.889 81.4914 37.889H82.5482C82.5823 37.8881 82.6164 37.8941 82.6482 37.9065C82.68 37.919 82.709 37.9378 82.7334 37.9616C82.7579 37.9855 82.7774 38.014 82.7906 38.0455C82.8039 38.077 82.8108 38.1108 82.8107 38.145V39.2017C82.8107 39.2714 82.7831 39.3382 82.7338 39.3874C82.6846 39.4366 82.6178 39.4643 82.5482 39.4643H81.4914C81.4229 39.4626 81.3578 39.4342 81.31 39.3851C81.2621 39.3361 81.2354 39.2702 81.2354 39.2017V38.145ZM81.2354 40.5079C81.2354 40.4394 81.2621 40.3736 81.31 40.3246C81.3578 40.2755 81.4229 40.2471 81.4914 40.2454H82.5482C82.6178 40.2454 82.6846 40.273 82.7338 40.3223C82.7831 40.3715 82.8107 40.4383 82.8107 40.5079V41.5647C82.809 41.6332 82.7806 41.6983 82.7315 41.7461C82.6825 41.794 82.6167 41.8207 82.5482 41.8207H81.4914C81.424 41.819 81.3599 41.7915 81.3122 41.7439C81.2646 41.6962 81.2371 41.6321 81.2354 41.5647V40.5079ZM81.2354 42.8643C81.2371 42.797 81.2646 42.7328 81.3122 42.6852C81.3599 42.6375 81.424 42.61 81.4914 42.6083H82.5482C82.6167 42.6083 82.6825 42.6351 82.7315 42.6829C82.7806 42.7307 82.809 42.7959 82.8107 42.8643V43.9211C82.8108 43.9553 82.8039 43.9891 82.7906 44.0206C82.7774 44.0521 82.7579 44.0806 82.7334 44.1045C82.709 44.1283 82.68 44.1471 82.6482 44.1595C82.6164 44.172 82.5823 44.178 82.5482 44.1771H81.4914C81.4235 44.1771 81.3584 44.1501 81.3104 44.1021C81.2624 44.0541 81.2354 43.989 81.2354 43.9211V42.8643ZM81.2354 45.2273C81.2354 45.1588 81.2621 45.093 81.31 45.0439C81.3578 44.9949 81.4229 44.9665 81.4914 44.9647H82.5482C82.6178 44.9647 82.6846 44.9924 82.7338 45.0416C82.7831 45.0909 82.8107 45.1577 82.8107 45.2273V46.2841C82.809 46.3526 82.7806 46.4177 82.7315 46.4655C82.6825 46.5133 82.6167 46.5401 82.5482 46.5401H81.4914C81.424 46.5384 81.3599 46.5109 81.3122 46.4632C81.2646 46.4156 81.2371 46.3514 81.2354 46.2841V45.2273ZM81.2354 47.5837C81.2371 47.5163 81.2646 47.4522 81.3122 47.4045C81.3599 47.3569 81.424 47.3294 81.4914 47.3277H82.5482C82.6167 47.3277 82.6825 47.3545 82.7315 47.4023C82.7806 47.4501 82.809 47.5152 82.8107 47.5837V48.6405C82.8107 48.7101 82.7831 48.7769 82.7338 48.8261C82.6846 48.8753 82.6178 48.903 82.5482 48.903H81.4914C81.4229 48.9013 81.3578 48.8729 81.31 48.8238C81.2621 48.7748 81.2354 48.709 81.2354 48.6405V47.5837ZM77.54 50.0385H69.5519V48.5551C69.5519 48.4855 69.5795 48.4187 69.6288 48.3695C69.678 48.3202 69.7448 48.2926 69.8144 48.2926H77.2774C77.3471 48.2926 77.4138 48.3202 77.4631 48.3695C77.5123 48.4187 77.54 48.4855 77.54 48.5551V50.0385ZM67.609 40.4948C67.609 40.4263 67.6357 40.3605 67.6836 40.3114C67.7314 40.2624 67.7965 40.234 67.865 40.2323H78.7937C78.8278 40.2322 78.8617 40.2391 78.8932 40.2523C78.9247 40.2656 78.9532 40.2851 78.9771 40.3095C79.0009 40.334 79.0197 40.363 79.0321 40.3948C79.0446 40.4266 79.0505 40.4606 79.0497 40.4948V41.5778C79.0497 41.6457 79.0227 41.7108 78.9747 41.7588C78.9267 41.8069 78.8616 41.8338 78.7937 41.8338H67.865C67.7976 41.8322 67.7335 41.8047 67.6858 41.757C67.6382 41.7094 67.6107 41.6452 67.609 41.5778V40.4948ZM67.609 42.8512C67.6107 42.7838 67.6382 42.7197 67.6858 42.672C67.7335 42.6244 67.7976 42.5969 67.865 42.5952H78.7937C78.8616 42.5952 78.9267 42.6222 78.9747 42.6702C79.0227 42.7182 79.0497 42.7833 79.0497 42.8512V43.9342C79.0505 43.9684 79.0446 44.0024 79.0321 44.0342C79.0197 44.066 79.0009 44.095 78.9771 44.1195C78.9532 44.144 78.9247 44.1634 78.8932 44.1767C78.8617 44.19 78.8278 44.1968 78.7937 44.1968H67.865C67.7965 44.1951 67.7314 44.1667 67.6836 44.1176C67.6357 44.0686 67.609 44.0027 67.609 43.9342V42.8512ZM67.609 45.2404C67.609 45.1719 67.6357 45.1061 67.6836 45.0571C67.7314 45.008 67.7965 44.9796 67.865 44.9779H78.7937C78.8278 44.9779 78.8617 44.9847 78.8932 44.998C78.9247 45.0112 78.9532 45.0307 78.9771 45.0552C79.0009 45.0796 79.0197 45.1086 79.0321 45.1405C79.0446 45.1723 79.0505 45.2063 79.0497 45.2404V46.3169C79.0505 46.351 79.0446 46.3851 79.0321 46.4169C79.0197 46.4487 79.0009 46.4777 78.9771 46.5022C78.9532 46.5266 78.9247 46.5461 78.8932 46.5593C78.8617 46.5726 78.8278 46.5795 78.7937 46.5794H67.865C67.7965 46.5777 67.7314 46.5493 67.6836 46.5003C67.6357 46.4512 67.609 46.3854 67.609 46.3169V45.2404Z" fill="#213228"/>
<path d="M57.6846 48.1611C57.6846 48.5667 57.8458 48.9557 58.1326 49.2425C58.4194 49.5293 58.8084 49.6904 59.214 49.6904C59.6191 49.6887 60.0071 49.527 60.2935 49.2406C60.58 48.9541 60.7416 48.5662 60.7433 48.1611V38.939H57.6846V48.1611Z" fill="#213228"/>
<path d="M58.4198 32.7165L58.3608 39.1359H59.8901L59.9426 32.7165L59.9689 32.6443H58.3936L58.4198 32.7165Z" fill="#213228"/>
<path d="M59.936 27.9973H58.4263L57.6714 30.3668L58.3935 32.6445H59.9688L60.6908 30.3668L59.936 27.9973Z" fill="#213228"/>
<path d="M55.6696 44.3607L55.5317 44.19C55.2568 43.9184 54.9371 43.6963 54.5866 43.5336V34.1343C54.9385 33.974 55.2586 33.7516 55.5317 33.4779L55.6696 33.3073C56.0218 32.9124 56.271 32.4366 56.3949 31.9222C56.5189 31.4078 56.5137 30.8707 56.3798 30.3587C56.246 29.8468 55.9877 29.3759 55.6278 28.9879C55.268 28.5999 54.8179 28.3069 54.3174 28.135V31.1872C54.3162 31.3419 54.2803 31.4944 54.2124 31.6335C54.1403 31.7915 54.031 31.9297 53.8939 32.0362C53.7568 32.1428 53.5959 32.2147 53.4251 32.2456C53.2542 32.2766 53.0784 32.2657 52.9126 32.214C52.7468 32.1623 52.596 32.0712 52.473 31.9486C52.3839 31.8576 52.3127 31.7507 52.263 31.6335C52.1944 31.4923 52.1585 31.3375 52.158 31.1806V28.135C51.6575 28.3069 51.2074 28.5999 50.8475 28.9879C50.4877 29.3759 50.2294 29.8468 50.0956 30.3587C49.9617 30.8707 49.9565 31.4078 50.0805 31.9222C50.2044 32.4366 50.4536 32.9124 50.8058 33.3073L50.9436 33.4779C51.2156 33.75 51.5333 33.9722 51.8823 34.1343V43.5468C51.5347 43.7112 51.2174 43.9331 50.9436 44.2031L50.8058 44.3804C50.2634 44.9952 49.9757 45.7936 50.0013 46.6131C50.027 47.4326 50.3639 48.2115 50.9436 48.7912C51.2845 49.1335 51.7002 49.3919 52.158 49.5461V46.5005C52.1602 46.3465 52.1937 46.1947 52.2564 46.0541C52.338 45.8615 52.474 45.6969 52.6477 45.5803C52.8214 45.4637 53.0252 45.4003 53.2344 45.3978C53.5216 45.3987 53.7972 45.5118 54.0024 45.7128C54.0916 45.8062 54.1628 45.9152 54.2124 46.0344C54.2833 46.1724 54.3193 46.3257 54.3174 46.4808V49.5264C54.7752 49.3722 55.1909 49.1138 55.5317 48.7715C56.1086 48.1902 56.4436 47.4118 56.4692 46.5932C56.4948 45.7747 56.209 44.9769 55.6696 44.3607Z" fill="#213228"/>
<path d="M31.5016 30.334H23.3888V38.6306H31.5016V30.334Z" fill="#E7D5B6"/>
<path fill-rule="evenodd" clip-rule="evenodd" d="M39.4898 20.2585C39.4017 20.264 39.3156 20.2871 39.2367 20.3266C39.1577 20.366 39.0875 20.421 39.0303 20.4883C39.0303 20.4358 39.0304 20.3898 38.9975 20.3373C38.9647 20.2848 38.9581 20.1404 38.9319 20.0485C38.9056 19.9566 38.8794 19.8581 38.8531 19.7597C38.8269 19.6612 38.8072 19.5825 38.7809 19.4971C38.7547 19.4118 38.7153 19.3002 38.689 19.2017C38.6628 19.1033 38.6365 19.0311 38.6037 18.9523C38.5709 18.8736 38.5315 18.7488 38.4921 18.6504C38.4527 18.5519 38.433 18.4994 38.4068 18.4272L38.2689 18.1122C38.2689 18.0465 38.2099 17.9743 38.1771 17.9087C38.1442 17.843 38.0786 17.6987 38.0261 17.5936L37.9342 17.4033L37.757 17.0882L37.6651 16.9176L37.4616 16.5894L37.3697 16.445C37.304 16.3334 37.2253 16.2284 37.1531 16.1168L37.0612 15.9921L36.8184 15.6639L36.733 15.5523C36.6411 15.4407 36.5558 15.3291 36.4639 15.2241L36.3785 15.1256C36.2867 15.0141 36.1882 14.909 36.0897 14.804L36.011 14.7253C35.9125 14.6137 35.801 14.5086 35.6959 14.4036L35.6303 14.338L35.2824 14.0229L35.2234 13.9704L34.8557 13.6619L34.8033 13.6225C34.6786 13.5241 34.5473 13.4191 34.4094 13.3272L34.37 13.2943L33.9565 13.0121H33.9237C33.7793 12.9136 33.6283 12.8283 33.4839 12.7364L33.0245 12.4804L32.5453 12.2442L32.0465 12.0341C30.9968 11.6173 29.8905 11.3606 28.7646 11.2727C28.5742 11.2727 28.3839 11.2727 28.1935 11.2727H27.8785C25.2567 11.3033 22.7235 12.2253 20.6955 13.8871C18.6674 15.5489 17.2654 17.8515 16.7201 20.4161C16.6481 20.3746 16.5668 20.352 16.4837 20.3504C15.8273 20.3504 15.2694 21.7354 15.2694 23.442C15.2694 25.1485 15.8142 26.5335 16.4837 26.5335C16.6348 26.5272 16.7779 26.4639 16.8841 26.3563C17.5445 28.7766 18.9768 30.9151 20.9636 32.447C22.9504 33.9788 25.3829 34.8202 27.8916 34.8433H28.1476C28.3379 34.8433 28.5283 34.8432 28.7186 34.8104C29.8451 34.7257 30.9519 34.4689 32.0005 34.049C32.1646 33.9768 32.3353 33.9112 32.4994 33.8324C32.6569 33.7602 32.821 33.6815 32.9785 33.5961L33.438 33.3467L33.8777 33.0776H33.9106L34.3241 32.7954L34.3635 32.7625C34.5013 32.6641 34.6326 32.5656 34.7573 32.4606L34.8098 32.4212C34.9345 32.3228 35.0593 32.2243 35.1774 32.1193L35.2365 32.0668L35.5844 31.7517C35.6028 31.7267 35.6249 31.7045 35.65 31.6861L35.965 31.3644L36.0438 31.2857C36.1423 31.1741 36.2407 31.0691 36.3326 30.9575L36.4179 30.8656L36.6871 30.5374C36.7118 30.4975 36.7404 30.4601 36.7724 30.4258L37.0153 30.0976L37.1072 29.9664C37.1794 29.8613 37.2581 29.7498 37.3237 29.6382L37.4156 29.4938C37.4878 29.3888 37.5535 29.2772 37.6191 29.1656L37.711 29.0015L37.8883 28.6799C37.9211 28.6208 37.9473 28.5552 37.9801 28.4895C38.0129 28.4239 38.0852 28.286 38.1311 28.181C38.1771 28.076 38.1967 28.0432 38.223 27.971L38.3608 27.6625C38.3608 27.5903 38.4133 27.5115 38.4462 27.4393C38.479 27.3671 38.5249 27.2358 38.5577 27.1308C38.5905 27.0258 38.6102 26.9667 38.6431 26.888C38.6759 26.8092 38.7087 26.691 38.735 26.5926C38.7612 26.4941 38.7875 26.4153 38.8072 26.3235L38.8465 26.1922C38.9059 26.3026 38.9913 26.3968 39.0954 26.4666C39.1996 26.5364 39.3192 26.5796 39.4439 26.5926C40.1002 26.5926 40.6581 25.2076 40.6581 23.501C40.6581 21.7945 40.1593 20.2585 39.4898 20.2585Z" fill="#FFEAC7"/>
<path fill-rule="evenodd" clip-rule="evenodd" d="M54.2846 64.6363C54.2846 54.5412 50.3463 44.3804 44.9378 41.1773C41.7281 39.0638 35.9847 37.5869 27.6094 37.5869C19.234 37.5869 13.0837 39.0506 9.84776 41.1445C4.39326 44.3148 0.934132 54.5083 0.934132 64.6363V67.4587H10.6223V64.6363C10.6223 57.9675 12.7752 53.8191 14.1142 51.7319V67.485H40.9864V52.3226C43.4109 55.9757 44.6697 60.2787 44.5964 64.6625V67.485H54.2846V64.6363Z" fill="#0E2B5C"/>
<path fill-rule="evenodd" clip-rule="evenodd" d="M38.8531 19.7467C38.8137 19.6154 38.7677 19.4907 38.7284 19.3594C38.689 19.2282 38.6102 18.9787 38.5446 18.7949C38.479 18.6112 38.4068 18.4668 38.3411 18.3092C38.2755 18.1517 38.2229 18.0139 38.1573 17.876C38.0917 17.7382 37.9735 17.5085 37.8816 17.3312C37.7897 17.154 37.77 17.1081 37.7044 17.003C37.5928 16.7996 37.4681 16.6092 37.3434 16.4189C37.2909 16.3401 37.245 16.2548 37.1859 16.176C37.0415 15.966 36.8905 15.769 36.733 15.5721L36.6083 15.4015C36.431 15.1849 36.2472 14.9814 36.0569 14.7845L35.965 14.6795C35.7615 14.4694 35.5449 14.2659 35.3086 14.069C35.2879 14.055 35.2701 14.0372 35.2561 14.0165C35.0198 13.813 34.7769 13.6161 34.5275 13.4323C32.5951 11.98 30.2433 11.1946 27.8259 11.1941C24.8315 11.2336 21.9683 12.4291 19.8349 14.5306C17.7015 16.6322 16.4631 19.4772 16.3787 22.4707C17.1007 21.6436 17.5404 20.5015 18.2428 19.6679C19.4177 18.3092 20.9142 17.3706 22.227 16.1563C22.6683 15.7327 23.2563 15.4961 23.8679 15.4961C24.4796 15.4961 25.0676 15.7327 25.5089 16.1563C26.2675 16.9783 27.1541 17.6721 28.1344 18.2108C28.4614 18.3945 28.799 18.5589 29.1452 18.7031L29.2568 18.749L29.5784 18.8672H29.6375C29.8279 18.9328 30.0182 18.9853 30.2086 19.0312L30.458 19.0903L30.6877 19.1363C30.8321 19.1363 30.9831 19.1757 31.1275 19.1953H31.3113H31.8167C31.9808 19.1953 32.1383 19.1953 32.2959 19.156H32.4337C32.5843 19.1348 32.7334 19.1041 32.88 19.0641H32.9391C33.1043 19.017 33.2665 18.96 33.4248 18.8934L33.543 18.8409C33.7005 18.7687 33.8646 18.6899 34.0221 18.598C34.5606 18.2901 35.1984 18.2055 35.7986 18.3626C36.3987 18.5197 36.9133 18.9059 37.2318 19.4382C37.7328 20.017 38.3653 20.4672 39.0763 20.751C39.0172 20.4096 38.945 20.0749 38.8531 19.7467Z" fill="#213228"/>
<path fill-rule="evenodd" clip-rule="evenodd" d="M40.3168 16.6221C40.3043 16.5239 40.2823 16.4272 40.2511 16.3332C39.8991 15.2496 39.6486 14.1355 39.5028 13.0054C39.5028 7.45245 34.3043 2.94971 27.8915 2.94971C21.4787 2.94971 16.2867 7.45245 16.2867 13.0054C16.0987 14.2427 15.7752 15.4555 15.3219 16.6221H40.3168Z" fill="#0A5780"/>
<path fill-rule="evenodd" clip-rule="evenodd" d="M27.721 6.59934C28.3161 6.60064 28.8983 6.42526 29.3936 6.09544C29.889 5.76561 30.2753 5.29617 30.5037 4.74658C30.732 4.197 30.7921 3.59201 30.6764 3.00825C30.5606 2.42449 30.2741 1.88824 29.8533 1.46742C29.4325 1.04659 28.8962 0.760145 28.3124 0.644359C27.7287 0.528573 27.1237 0.588661 26.5741 0.817007C26.0245 1.04535 25.5551 1.43168 25.2253 1.92705C24.8955 2.42242 24.7201 3.00455 24.7214 3.59968C24.7231 4.39471 25.0397 5.15666 25.6019 5.71883C26.1641 6.281 26.926 6.59761 27.721 6.59934Z" fill="#0A5780"/>
<path fill-rule="evenodd" clip-rule="evenodd" d="M21.0389 4.88613C22.1209 4.20667 23.3008 3.69752 24.5374 3.37646C24.6183 3.58592 24.6606 3.80831 24.6621 4.03284V12.1063C24.6604 12.5862 24.469 13.046 24.1296 13.3854C23.7903 13.7247 23.3305 13.9162 22.8505 13.9179C22.3706 13.9162 21.9108 13.7247 21.5715 13.3854C21.2321 13.046 21.0407 12.5862 21.0389 12.1063V4.88613Z" fill="#003B4F"/>
<path fill-rule="evenodd" clip-rule="evenodd" d="M30.9372 3.29785C32.1533 3.5797 33.3196 4.04446 34.3963 4.67625V12.113C34.3946 12.5929 34.2031 13.0527 33.8638 13.3921C33.5244 13.7315 33.0646 13.9229 32.5847 13.9246C32.1054 13.9229 31.6463 13.7312 31.3079 13.3917C30.9696 13.0521 30.7797 12.5923 30.7797 12.113V4.03956C30.7781 3.78386 30.8318 3.53083 30.9372 3.29785Z" fill="#003B4F"/>
<path fill-rule="evenodd" clip-rule="evenodd" d="M41.0388 16.7798C41.0414 16.9054 41.0191 17.0302 40.9733 17.1471C40.9275 17.264 40.859 17.3706 40.7717 17.4609C40.6845 17.5512 40.5802 17.6234 40.465 17.6732C40.3497 17.723 40.2257 17.7496 40.1002 17.7513H15.5451C15.4195 17.7496 15.2955 17.723 15.1803 17.6732C15.065 17.6234 14.9608 17.5512 14.8735 17.4609C14.7863 17.3706 14.7178 17.264 14.6719 17.1471C14.6261 17.0302 14.6038 16.9054 14.6064 16.7798C14.6047 16.6548 14.6276 16.5307 14.6738 16.4146C14.7201 16.2985 14.7887 16.1926 14.8759 16.103C14.9631 16.0134 15.067 15.9418 15.1818 15.8924C15.2966 15.843 15.4201 15.8167 15.5451 15.8149H40.1002C40.2252 15.8167 40.3486 15.843 40.4634 15.8924C40.5782 15.9418 40.6822 16.0134 40.7694 16.103C40.8565 16.1926 40.9252 16.2985 40.9714 16.4146C41.0176 16.5307 41.0405 16.6548 41.0388 16.7798Z" fill="#003B4F"/>
<path fill-rule="evenodd" clip-rule="evenodd" d="M22.3715 37.7839L27.6225 54.4166L32.4732 37.7577C30.9487 37.5772 29.4124 37.518 27.8785 37.5805C26.0405 37.5494 24.2022 37.6173 22.3715 37.7839Z" fill="white"/>
<path fill-rule="evenodd" clip-rule="evenodd" d="M30.3267 37.5674C30.3267 38.4272 29.1584 39.123 27.7012 39.123C26.2441 39.123 25.0757 38.4272 25.0757 37.5674C25.0757 36.7075 26.2375 36.0183 27.7012 36.0183C29.165 36.0183 30.3267 36.6812 30.3267 37.5674Z" fill="#003B4F"/>
<path fill-rule="evenodd" clip-rule="evenodd" d="M27.0253 38.3418L25.8701 48.9358L27.5963 54.4165L29.2635 48.9686L28.6597 38.3746L27.0253 38.3418Z" fill="#003B4F"/>
<path fill-rule="evenodd" clip-rule="evenodd" d="M32.447 37.7576L36.6478 41.9781L27.5963 54.4164L32.447 37.7576Z" fill="#131A16"/>
<path fill-rule="evenodd" clip-rule="evenodd" d="M22.3847 37.7773L18.7747 42.0044L27.6161 54.469L22.3847 37.7773Z" fill="#131A16"/>
<path d="M27.9902 54.2917H27.1829V67.4587H27.9902V54.2917Z" fill="#131A16"/>
</svg>
