<svg width="501" height="373" viewBox="0 0 501 373" fill="none" xmlns="http://www.w3.org/2000/svg">
<g clip-path="url(#clip0_161_933)">
<path d="M500.622 327.645H0.621582V327.895H500.622V327.645Z" fill="#EBEBEB"/>
<path d="M450.521 343.735H417.401V343.985H450.521V343.735Z" fill="#EBEBEB"/>
<path d="M331.841 346.455H323.151V346.705H331.841V346.455Z" fill="#EBEBEB"/>
<path d="M416.401 334.455H397.211V334.705H416.401V334.455Z" fill="#EBEBEB"/>
<path d="M96.2715 336.135H53.0815V336.385H96.2715V336.135Z" fill="#EBEBEB"/>
<path d="M111.512 336.135H105.182V336.385H111.512V336.135Z" fill="#EBEBEB"/>
<path d="M225.772 340.355H132.092V340.605H225.772V340.355Z" fill="#EBEBEB"/>
<path d="M237.632 283.045H44.5318C41.3818 283.045 38.8218 280.485 38.8218 277.335V5.90507C38.8218 2.75507 41.3818 0.195068 44.5318 0.195068H237.632C240.782 0.195068 243.342 2.75507 243.342 5.90507V277.335C243.342 280.485 240.782 283.045 237.632 283.045ZM44.5318 0.445068C41.5218 0.445068 39.0718 2.89507 39.0718 5.90507V277.335C39.0718 280.345 41.5218 282.795 44.5318 282.795H237.632C240.642 282.795 243.092 280.345 243.092 277.335V5.90507C243.092 2.89507 240.642 0.445068 237.632 0.445068H44.5318Z" fill="#EBEBEB"/>
<path d="M453.932 283.045H260.832C257.682 283.045 255.122 280.485 255.122 277.335V5.90507C255.122 2.75507 257.682 0.195068 260.832 0.195068H453.932C457.082 0.195068 459.642 2.75507 459.642 5.90507V277.335C459.642 280.485 457.082 283.045 453.932 283.045ZM260.832 0.445068C257.822 0.445068 255.372 2.89507 255.372 5.90507V277.335C255.372 280.345 257.822 282.795 260.832 282.795H453.932C456.942 282.795 459.392 280.345 459.392 277.335V5.90507C459.392 2.89507 456.942 0.445068 453.932 0.445068H260.832Z" fill="#EBEBEB"/>
<path d="M446.042 62.415H203.762V295.955H446.042V62.415Z" fill="#E0E0E0"/>
<path d="M446.042 66.655H207.652V291.875H446.042V66.655Z" fill="#F5F5F5"/>
<path d="M209.412 237.335V169.595H216.442V160.645L232.282 153.235V144.085H234.922V169.595H237.562V237.335H241.082V202.145H249.002V183.675H251.642V237.335H257.792V217.105H262.192V211.825H271.872V193.345H277.152V181.035H283.312V162.555H285.952V181.035H292.112V193.345H297.382V211.825H307.062V217.105H311.462V237.335H316.742V211.825H326.422V155.515H329.062V149.355H350.172V155.515H354.572V195.985H372.172V200.385H378.322V203.025H372.172V218.865H390.642V166.075H394.162V155.515H402.962V115.045H405.602V155.515H411.762V166.075H446.042V291.885H207.652V237.335H209.412Z" fill="#E6E6E6"/>
<path d="M427.722 168.835H425.232V171.325H427.722V168.835Z" fill="#F0F0F0"/>
<path d="M427.722 173.015H425.232V175.505H427.722V173.015Z" fill="#F0F0F0"/>
<path d="M427.722 189.725H425.232V192.215H427.722V189.725Z" fill="#F0F0F0"/>
<path d="M427.722 193.905H425.232V196.395H427.722V193.905Z" fill="#F0F0F0"/>
<path d="M427.722 198.085H425.232V200.575H427.722V198.085Z" fill="#F0F0F0"/>
<path d="M427.722 210.625H425.232V213.115H427.722V210.625Z" fill="#F0F0F0"/>
<path d="M427.722 214.805H425.232V217.295H427.722V214.805Z" fill="#F0F0F0"/>
<path d="M423.762 185.545H421.272V188.035H423.762V185.545Z" fill="#F0F0F0"/>
<path d="M423.762 189.725H421.272V192.215H423.762V189.725Z" fill="#F0F0F0"/>
<path d="M423.762 193.905H421.272V196.395H423.762V193.905Z" fill="#F0F0F0"/>
<path d="M423.762 198.085H421.272V200.575H423.762V198.085Z" fill="#F0F0F0"/>
<path d="M423.762 202.265H421.272V204.755H423.762V202.265Z" fill="#F0F0F0"/>
<path d="M423.762 210.625H421.272V213.115H423.762V210.625Z" fill="#F0F0F0"/>
<path d="M423.762 214.805H421.272V217.295H423.762V214.805Z" fill="#F0F0F0"/>
<path d="M419.802 168.835H417.312V171.325H419.802V168.835Z" fill="#F0F0F0"/>
<path d="M419.802 173.015H417.312V175.505H419.802V173.015Z" fill="#F0F0F0"/>
<path d="M419.802 177.195H417.312V179.685H419.802V177.195Z" fill="#F0F0F0"/>
<path d="M419.802 181.375H417.312V183.865H419.802V181.375Z" fill="#F0F0F0"/>
<path d="M419.802 185.545H417.312V188.035H419.802V185.545Z" fill="#F0F0F0"/>
<path d="M419.802 189.725H417.312V192.215H419.802V189.725Z" fill="#F0F0F0"/>
<path d="M419.802 193.905H417.312V196.395H419.802V193.905Z" fill="#F0F0F0"/>
<path d="M419.802 198.085H417.312V200.575H419.802V198.085Z" fill="#F0F0F0"/>
<path d="M419.802 202.265H417.312V204.755H419.802V202.265Z" fill="#F0F0F0"/>
<path d="M419.802 206.445H417.312V208.935H419.802V206.445Z" fill="#F0F0F0"/>
<path d="M419.802 214.805H417.312V217.295H419.802V214.805Z" fill="#F0F0F0"/>
<path d="M415.842 168.835H413.352V171.325H415.842V168.835Z" fill="#F0F0F0"/>
<path d="M415.842 173.015H413.352V175.505H415.842V173.015Z" fill="#F0F0F0"/>
<path d="M415.842 177.195H413.352V179.685H415.842V177.195Z" fill="#F0F0F0"/>
<path d="M415.842 181.375H413.352V183.865H415.842V181.375Z" fill="#F0F0F0"/>
<path d="M415.842 185.545H413.352V188.035H415.842V185.545Z" fill="#F0F0F0"/>
<path d="M415.842 189.725H413.352V192.215H415.842V189.725Z" fill="#F0F0F0"/>
<path d="M415.842 193.905H413.352V196.395H415.842V193.905Z" fill="#F0F0F0"/>
<path d="M415.842 231.515H413.352V234.005H415.842V231.515Z" fill="#F0F0F0"/>
<path d="M411.882 168.835H409.392V171.325H411.882V168.835Z" fill="#F0F0F0"/>
<path d="M411.882 173.015H409.392V175.505H411.882V173.015Z" fill="#F0F0F0"/>
<path d="M411.882 177.195H409.392V179.685H411.882V177.195Z" fill="#F0F0F0"/>
<path d="M411.882 181.375H409.392V183.865H411.882V181.375Z" fill="#F0F0F0"/>
<path d="M411.882 185.545H409.392V188.035H411.882V185.545Z" fill="#F0F0F0"/>
<path d="M411.882 189.725H409.392V192.215H411.882V189.725Z" fill="#F0F0F0"/>
<path d="M411.882 193.905H409.392V196.395H411.882V193.905Z" fill="#F0F0F0"/>
<path d="M411.882 198.085H409.392V200.575H411.882V198.085Z" fill="#F0F0F0"/>
<path d="M411.882 223.165H409.392V225.655H411.882V223.165Z" fill="#F0F0F0"/>
<path d="M411.882 227.335H409.392V229.825H411.882V227.335Z" fill="#F0F0F0"/>
<path d="M411.882 231.515H409.392V234.005H411.882V231.515Z" fill="#F0F0F0"/>
<path d="M411.882 235.695H409.392V238.185H411.882V235.695Z" fill="#F0F0F0"/>
<path d="M411.882 252.415H409.392V254.905H411.882V252.415Z" fill="#F0F0F0"/>
<path d="M407.922 168.835H405.432V171.325H407.922V168.835Z" fill="#F0F0F0"/>
<path d="M407.922 173.015H405.432V175.505H407.922V173.015Z" fill="#F0F0F0"/>
<path d="M407.922 177.195H405.432V179.685H407.922V177.195Z" fill="#F0F0F0"/>
<path d="M407.922 181.375H405.432V183.865H407.922V181.375Z" fill="#F0F0F0"/>
<path d="M407.922 185.545H405.432V188.035H407.922V185.545Z" fill="#F0F0F0"/>
<path d="M407.922 189.725H405.432V192.215H407.922V189.725Z" fill="#F0F0F0"/>
<path d="M407.922 193.905H405.432V196.395H407.922V193.905Z" fill="#F0F0F0"/>
<path d="M407.922 198.085H405.432V200.575H407.922V198.085Z" fill="#F0F0F0"/>
<path d="M407.922 202.265H405.432V204.755H407.922V202.265Z" fill="#F0F0F0"/>
<path d="M407.922 206.445H405.432V208.935H407.922V206.445Z" fill="#F0F0F0"/>
<path d="M407.922 218.985H405.432V221.475H407.922V218.985Z" fill="#F0F0F0"/>
<path d="M407.922 223.165H405.432V225.655H407.922V223.165Z" fill="#F0F0F0"/>
<path d="M407.922 227.335H405.432V229.825H407.922V227.335Z" fill="#F0F0F0"/>
<path d="M407.922 231.515H405.432V234.005H407.922V231.515Z" fill="#F0F0F0"/>
<path d="M407.922 235.695H405.432V238.185H407.922V235.695Z" fill="#F0F0F0"/>
<path d="M407.922 252.415H405.432V254.905H407.922V252.415Z" fill="#F0F0F0"/>
<path d="M403.962 168.835H401.472V171.325H403.962V168.835Z" fill="#F0F0F0"/>
<path d="M403.962 173.015H401.472V175.505H403.962V173.015Z" fill="#F0F0F0"/>
<path d="M403.962 177.195H401.472V179.685H403.962V177.195Z" fill="#F0F0F0"/>
<path d="M403.962 181.375H401.472V183.865H403.962V181.375Z" fill="#F0F0F0"/>
<path d="M403.962 185.545H401.472V188.035H403.962V185.545Z" fill="#F0F0F0"/>
<path d="M403.962 189.725H401.472V192.215H403.962V189.725Z" fill="#F0F0F0"/>
<path d="M403.962 193.905H401.472V196.395H403.962V193.905Z" fill="#F0F0F0"/>
<path d="M403.962 198.085H401.472V200.575H403.962V198.085Z" fill="#F0F0F0"/>
<path d="M403.962 202.265H401.472V204.755H403.962V202.265Z" fill="#F0F0F0"/>
<path d="M403.962 206.445H401.472V208.935H403.962V206.445Z" fill="#F0F0F0"/>
<path d="M403.962 210.625H401.472V213.115H403.962V210.625Z" fill="#F0F0F0"/>
<path d="M403.962 214.805H401.472V217.295H403.962V214.805Z" fill="#F0F0F0"/>
<path d="M403.962 218.985H401.472V221.475H403.962V218.985Z" fill="#F0F0F0"/>
<path d="M403.962 223.165H401.472V225.655H403.962V223.165Z" fill="#F0F0F0"/>
<path d="M403.962 227.335H401.472V229.825H403.962V227.335Z" fill="#F0F0F0"/>
<path d="M403.962 231.515H401.472V234.005H403.962V231.515Z" fill="#F0F0F0"/>
<path d="M403.962 235.695H401.472V238.185H403.962V235.695Z" fill="#F0F0F0"/>
<path d="M403.962 239.875H401.472V242.365H403.962V239.875Z" fill="#F0F0F0"/>
<path d="M400.002 168.835H397.512V171.325H400.002V168.835Z" fill="#F0F0F0"/>
<path d="M400.002 173.015H397.512V175.505H400.002V173.015Z" fill="#F0F0F0"/>
<path d="M400.002 177.195H397.512V179.685H400.002V177.195Z" fill="#F0F0F0"/>
<path d="M400.002 181.375H397.512V183.865H400.002V181.375Z" fill="#F0F0F0"/>
<path d="M400.002 185.545H397.512V188.035H400.002V185.545Z" fill="#F0F0F0"/>
<path d="M400.002 189.725H397.512V192.215H400.002V189.725Z" fill="#F0F0F0"/>
<path d="M400.002 193.905H397.512V196.395H400.002V193.905Z" fill="#F0F0F0"/>
<path d="M400.002 198.085H397.512V200.575H400.002V198.085Z" fill="#F0F0F0"/>
<path d="M400.002 202.265H397.512V204.755H400.002V202.265Z" fill="#F0F0F0"/>
<path d="M400.002 206.445H397.512V208.935H400.002V206.445Z" fill="#F0F0F0"/>
<path d="M400.002 218.985H397.512V221.475H400.002V218.985Z" fill="#F0F0F0"/>
<path d="M400.002 223.165H397.512V225.655H400.002V223.165Z" fill="#F0F0F0"/>
<path d="M400.002 227.335H397.512V229.825H400.002V227.335Z" fill="#F0F0F0"/>
<path d="M400.002 231.515H397.512V234.005H400.002V231.515Z" fill="#F0F0F0"/>
<path d="M396.052 168.835H393.562V171.325H396.052V168.835Z" fill="#F0F0F0"/>
<path d="M396.052 173.015H393.562V175.505H396.052V173.015Z" fill="#F0F0F0"/>
<path d="M396.052 177.195H393.562V179.685H396.052V177.195Z" fill="#F0F0F0"/>
<path d="M396.052 181.375H393.562V183.865H396.052V181.375Z" fill="#F0F0F0"/>
<path d="M396.052 185.545H393.562V188.035H396.052V185.545Z" fill="#F0F0F0"/>
<path d="M396.052 189.725H393.562V192.215H396.052V189.725Z" fill="#F0F0F0"/>
<path d="M396.052 193.905H393.562V196.395H396.052V193.905Z" fill="#F0F0F0"/>
<path d="M396.052 198.085H393.562V200.575H396.052V198.085Z" fill="#F0F0F0"/>
<path d="M396.052 202.265H393.562V204.755H396.052V202.265Z" fill="#F0F0F0"/>
<path d="M396.052 206.445H393.562V208.935H396.052V206.445Z" fill="#F0F0F0"/>
<path d="M396.052 218.985H393.562V221.475H396.052V218.985Z" fill="#F0F0F0"/>
<path d="M396.052 223.165H393.562V225.655H396.052V223.165Z" fill="#F0F0F0"/>
<path d="M396.052 227.335H393.562V229.825H396.052V227.335Z" fill="#F0F0F0"/>
<path d="M351.472 157.985H348.982V160.475H351.472V157.985Z" fill="#F0F0F0"/>
<path d="M351.472 162.165H348.982V164.655H351.472V162.165Z" fill="#F0F0F0"/>
<path d="M351.472 166.345H348.982V168.835H351.472V166.345Z" fill="#F0F0F0"/>
<path d="M351.472 170.515H348.982V173.005H351.472V170.515Z" fill="#F0F0F0"/>
<path d="M351.472 174.695H348.982V177.185H351.472V174.695Z" fill="#F0F0F0"/>
<path d="M351.472 178.875H348.982V181.365H351.472V178.875Z" fill="#F0F0F0"/>
<path d="M351.472 183.055H348.982V185.545H351.472V183.055Z" fill="#F0F0F0"/>
<path d="M351.472 187.235H348.982V189.725H351.472V187.235Z" fill="#F0F0F0"/>
<path d="M351.472 199.775H348.982V202.265H351.472V199.775Z" fill="#F0F0F0"/>
<path d="M351.472 203.955H348.982V206.445H351.472V203.955Z" fill="#F0F0F0"/>
<path d="M347.512 157.985H345.022V160.475H347.512V157.985Z" fill="#F0F0F0"/>
<path d="M347.512 162.165H345.022V164.655H347.512V162.165Z" fill="#F0F0F0"/>
<path d="M347.512 166.345H345.022V168.835H347.512V166.345Z" fill="#F0F0F0"/>
<path d="M347.512 170.515H345.022V173.005H347.512V170.515Z" fill="#F0F0F0"/>
<path d="M347.512 174.695H345.022V177.185H347.512V174.695Z" fill="#F0F0F0"/>
<path d="M347.512 178.875H345.022V181.365H347.512V178.875Z" fill="#F0F0F0"/>
<path d="M347.512 183.055H345.022V185.545H347.512V183.055Z" fill="#F0F0F0"/>
<path d="M347.512 187.235H345.022V189.725H347.512V187.235Z" fill="#F0F0F0"/>
<path d="M347.512 203.955H345.022V206.445H347.512V203.955Z" fill="#F0F0F0"/>
<path d="M343.552 157.985H341.062V160.475H343.552V157.985Z" fill="#F0F0F0"/>
<path d="M343.552 162.165H341.062V164.655H343.552V162.165Z" fill="#F0F0F0"/>
<path d="M343.552 166.345H341.062V168.835H343.552V166.345Z" fill="#F0F0F0"/>
<path d="M343.552 170.515H341.062V173.005H343.552V170.515Z" fill="#F0F0F0"/>
<path d="M343.552 174.695H341.062V177.185H343.552V174.695Z" fill="#F0F0F0"/>
<path d="M343.552 178.875H341.062V181.365H343.552V178.875Z" fill="#F0F0F0"/>
<path d="M343.552 183.055H341.062V185.545H343.552V183.055Z" fill="#F0F0F0"/>
<path d="M343.552 187.235H341.062V189.725H343.552V187.235Z" fill="#F0F0F0"/>
<path d="M339.592 157.985H337.102V160.475H339.592V157.985Z" fill="#F0F0F0"/>
<path d="M339.592 162.165H337.102V164.655H339.592V162.165Z" fill="#F0F0F0"/>
<path d="M339.592 166.345H337.102V168.835H339.592V166.345Z" fill="#F0F0F0"/>
<path d="M339.592 170.515H337.102V173.005H339.592V170.515Z" fill="#F0F0F0"/>
<path d="M339.592 174.695H337.102V177.185H339.592V174.695Z" fill="#F0F0F0"/>
<path d="M339.592 178.875H337.102V181.365H339.592V178.875Z" fill="#F0F0F0"/>
<path d="M339.592 187.235H337.102V189.725H339.592V187.235Z" fill="#F0F0F0"/>
<path d="M339.592 191.415H337.102V193.905H339.592V191.415Z" fill="#F0F0F0"/>
<path d="M339.592 203.955H337.102V206.445H339.592V203.955Z" fill="#F0F0F0"/>
<path d="M339.592 208.135H337.102V210.625H339.592V208.135Z" fill="#F0F0F0"/>
<path d="M339.592 212.305H337.102V214.795H339.592V212.305Z" fill="#F0F0F0"/>
<path d="M339.592 216.485H337.102V218.975H339.592V216.485Z" fill="#F0F0F0"/>
<path d="M339.592 220.665H337.102V223.155H339.592V220.665Z" fill="#F0F0F0"/>
<path d="M339.592 224.845H337.102V227.335H339.592V224.845Z" fill="#F0F0F0"/>
<path d="M339.592 229.025H337.102V231.515H339.592V229.025Z" fill="#F0F0F0"/>
<path d="M335.632 157.985H333.142V160.475H335.632V157.985Z" fill="#F0F0F0"/>
<path d="M335.632 162.165H333.142V164.655H335.632V162.165Z" fill="#F0F0F0"/>
<path d="M335.632 166.345H333.142V168.835H335.632V166.345Z" fill="#F0F0F0"/>
<path d="M335.632 170.515H333.142V173.005H335.632V170.515Z" fill="#F0F0F0"/>
<path d="M335.632 174.695H333.142V177.185H335.632V174.695Z" fill="#F0F0F0"/>
<path d="M335.632 178.875H333.142V181.365H335.632V178.875Z" fill="#F0F0F0"/>
<path d="M335.632 191.415H333.142V193.905H335.632V191.415Z" fill="#F0F0F0"/>
<path d="M335.632 195.595H333.142V198.085H335.632V195.595Z" fill="#F0F0F0"/>
<path d="M335.632 199.775H333.142V202.265H335.632V199.775Z" fill="#F0F0F0"/>
<path d="M335.632 203.955H333.142V206.445H335.632V203.955Z" fill="#F0F0F0"/>
<path d="M335.632 208.135H333.142V210.625H335.632V208.135Z" fill="#F0F0F0"/>
<path d="M335.632 212.305H333.142V214.795H335.632V212.305Z" fill="#F0F0F0"/>
<path d="M335.632 216.485H333.142V218.975H335.632V216.485Z" fill="#F0F0F0"/>
<path d="M335.632 220.665H333.142V223.155H335.632V220.665Z" fill="#F0F0F0"/>
<path d="M335.632 224.845H333.142V227.335H335.632V224.845Z" fill="#F0F0F0"/>
<path d="M335.632 229.025H333.142V231.515H335.632V229.025Z" fill="#F0F0F0"/>
<path d="M335.632 233.205H333.142V235.695H335.632V233.205Z" fill="#F0F0F0"/>
<path d="M335.632 241.565H333.142V244.055H335.632V241.565Z" fill="#F0F0F0"/>
<path d="M331.672 157.985H329.182V160.475H331.672V157.985Z" fill="#F0F0F0"/>
<path d="M331.672 162.165H329.182V164.655H331.672V162.165Z" fill="#F0F0F0"/>
<path d="M331.672 166.345H329.182V168.835H331.672V166.345Z" fill="#F0F0F0"/>
<path d="M331.672 170.515H329.182V173.005H331.672V170.515Z" fill="#F0F0F0"/>
<path d="M331.672 174.695H329.182V177.185H331.672V174.695Z" fill="#F0F0F0"/>
<path d="M331.672 178.875H329.182V181.365H331.672V178.875Z" fill="#F0F0F0"/>
<path d="M331.672 191.415H329.182V193.905H331.672V191.415Z" fill="#F0F0F0"/>
<path d="M331.672 195.595H329.182V198.085H331.672V195.595Z" fill="#F0F0F0"/>
<path d="M331.672 199.775H329.182V202.265H331.672V199.775Z" fill="#F0F0F0"/>
<path d="M331.672 203.955H329.182V206.445H331.672V203.955Z" fill="#F0F0F0"/>
<path d="M331.672 216.485H329.182V218.975H331.672V216.485Z" fill="#F0F0F0"/>
<path d="M331.672 220.665H329.182V223.155H331.672V220.665Z" fill="#F0F0F0"/>
<path d="M331.672 224.845H329.182V227.335H331.672V224.845Z" fill="#F0F0F0"/>
<path d="M331.672 229.025H329.182V231.515H331.672V229.025Z" fill="#F0F0F0"/>
<path d="M331.672 233.205H329.182V235.695H331.672V233.205Z" fill="#F0F0F0"/>
<path d="M331.672 241.565H329.182V244.055H331.672V241.565Z" fill="#F0F0F0"/>
<path d="M331.672 245.745H329.182V248.235H331.672V245.745Z" fill="#F0F0F0"/>
<path d="M295.752 196.835H293.262V199.325H295.752V196.835Z" fill="#F0F0F0"/>
<path d="M295.752 201.015H293.262V203.505H295.752V201.015Z" fill="#F0F0F0"/>
<path d="M295.752 205.195H293.262V207.685H295.752V205.195Z" fill="#F0F0F0"/>
<path d="M295.752 209.375H293.262V211.865H295.752V209.375Z" fill="#F0F0F0"/>
<path d="M295.752 213.555H293.262V216.045H295.752V213.555Z" fill="#F0F0F0"/>
<path d="M295.752 217.735H293.262V220.225H295.752V217.735Z" fill="#F0F0F0"/>
<path d="M295.752 221.915H293.262V224.405H295.752V221.915Z" fill="#F0F0F0"/>
<path d="M295.752 234.455H293.262V236.945H295.752V234.455Z" fill="#F0F0F0"/>
<path d="M295.752 238.625H293.262V241.115H295.752V238.625Z" fill="#F0F0F0"/>
<path d="M295.752 242.805H293.262V245.295H295.752V242.805Z" fill="#F0F0F0"/>
<path d="M291.792 196.835H289.302V199.325H291.792V196.835Z" fill="#F0F0F0"/>
<path d="M291.792 201.015H289.302V203.505H291.792V201.015Z" fill="#F0F0F0"/>
<path d="M291.792 205.195H289.302V207.685H291.792V205.195Z" fill="#F0F0F0"/>
<path d="M291.792 209.375H289.302V211.865H291.792V209.375Z" fill="#F0F0F0"/>
<path d="M291.792 213.555H289.302V216.045H291.792V213.555Z" fill="#F0F0F0"/>
<path d="M291.792 217.735H289.302V220.225H291.792V217.735Z" fill="#F0F0F0"/>
<path d="M291.792 221.915H289.302V224.405H291.792V221.915Z" fill="#F0F0F0"/>
<path d="M287.832 196.835H285.342V199.325H287.832V196.835Z" fill="#F0F0F0"/>
<path d="M287.832 201.015H285.342V203.505H287.832V201.015Z" fill="#F0F0F0"/>
<path d="M287.832 205.195H285.342V207.685H287.832V205.195Z" fill="#F0F0F0"/>
<path d="M287.832 209.375H285.342V211.865H287.832V209.375Z" fill="#F0F0F0"/>
<path d="M287.832 213.555H285.342V216.045H287.832V213.555Z" fill="#F0F0F0"/>
<path d="M287.832 217.735H285.342V220.225H287.832V217.735Z" fill="#F0F0F0"/>
<path d="M287.832 221.915H285.342V224.405H287.832V221.915Z" fill="#F0F0F0"/>
<path d="M283.872 196.835H281.382V199.325H283.872V196.835Z" fill="#F0F0F0"/>
<path d="M283.872 201.015H281.382V203.505H283.872V201.015Z" fill="#F0F0F0"/>
<path d="M283.872 205.195H281.382V207.685H283.872V205.195Z" fill="#F0F0F0"/>
<path d="M283.872 209.375H281.382V211.865H283.872V209.375Z" fill="#F0F0F0"/>
<path d="M283.872 213.555H281.382V216.045H283.872V213.555Z" fill="#F0F0F0"/>
<path d="M283.872 217.735H281.382V220.225H283.872V217.735Z" fill="#F0F0F0"/>
<path d="M283.872 221.915H281.382V224.405H283.872V221.915Z" fill="#F0F0F0"/>
<path d="M283.872 226.095H281.382V228.585H283.872V226.095Z" fill="#F0F0F0"/>
<path d="M283.872 230.275H281.382V232.765H283.872V230.275Z" fill="#F0F0F0"/>
<path d="M283.872 234.455H281.382V236.945H283.872V234.455Z" fill="#F0F0F0"/>
<path d="M283.872 238.625H281.382V241.115H283.872V238.625Z" fill="#F0F0F0"/>
<path d="M279.912 196.835H277.422V199.325H279.912V196.835Z" fill="#F0F0F0"/>
<path d="M279.912 201.015H277.422V203.505H279.912V201.015Z" fill="#F0F0F0"/>
<path d="M279.912 205.195H277.422V207.685H279.912V205.195Z" fill="#F0F0F0"/>
<path d="M279.912 209.375H277.422V211.865H279.912V209.375Z" fill="#F0F0F0"/>
<path d="M279.912 213.555H277.422V216.045H279.912V213.555Z" fill="#F0F0F0"/>
<path d="M279.912 217.735H277.422V220.225H279.912V217.735Z" fill="#F0F0F0"/>
<path d="M279.912 221.915H277.422V224.405H279.912V221.915Z" fill="#F0F0F0"/>
<path d="M279.912 226.095H277.422V228.585H279.912V226.095Z" fill="#F0F0F0"/>
<path d="M279.912 230.275H277.422V232.765H279.912V230.275Z" fill="#F0F0F0"/>
<path d="M279.912 234.455H277.422V236.945H279.912V234.455Z" fill="#F0F0F0"/>
<path d="M279.912 238.625H277.422V241.115H279.912V238.625Z" fill="#F0F0F0"/>
<path d="M279.912 242.805H277.422V245.295H279.912V242.805Z" fill="#F0F0F0"/>
<path d="M279.912 255.345H277.422V257.835H279.912V255.345Z" fill="#F0F0F0"/>
<path d="M279.912 259.525H277.422V262.015H279.912V259.525Z" fill="#F0F0F0"/>
<path d="M275.952 196.835H273.462V199.325H275.952V196.835Z" fill="#F0F0F0"/>
<path d="M275.952 201.015H273.462V203.505H275.952V201.015Z" fill="#F0F0F0"/>
<path d="M275.952 205.195H273.462V207.685H275.952V205.195Z" fill="#F0F0F0"/>
<path d="M275.952 217.735H273.462V220.225H275.952V217.735Z" fill="#F0F0F0"/>
<path d="M275.952 221.915H273.462V224.405H275.952V221.915Z" fill="#F0F0F0"/>
<path d="M275.952 226.095H273.462V228.585H275.952V226.095Z" fill="#F0F0F0"/>
<path d="M275.952 230.275H273.462V232.765H275.952V230.275Z" fill="#F0F0F0"/>
<path d="M275.952 234.455H273.462V236.945H275.952V234.455Z" fill="#F0F0F0"/>
<path d="M275.952 238.625H273.462V241.115H275.952V238.625Z" fill="#F0F0F0"/>
<path d="M275.952 242.805H273.462V245.295H275.952V242.805Z" fill="#F0F0F0"/>
<path d="M275.952 255.345H273.462V257.835H275.952V255.345Z" fill="#F0F0F0"/>
<path d="M275.952 259.525H273.462V262.015H275.952V259.525Z" fill="#F0F0F0"/>
<path d="M275.952 263.705H273.462V266.195H275.952V263.705Z" fill="#F0F0F0"/>
<path d="M234.462 171.765H231.972V174.255H234.462V171.765Z" fill="#F0F0F0"/>
<path d="M234.462 175.945H231.972V178.435H234.462V175.945Z" fill="#F0F0F0"/>
<path d="M234.462 180.125H231.972V182.615H234.462V180.125Z" fill="#F0F0F0"/>
<path d="M234.462 184.305H231.972V186.795H234.462V184.305Z" fill="#F0F0F0"/>
<path d="M234.462 188.485H231.972V190.975H234.462V188.485Z" fill="#F0F0F0"/>
<path d="M234.462 192.665H231.972V195.155H234.462V192.665Z" fill="#F0F0F0"/>
<path d="M234.462 196.835H231.972V199.325H234.462V196.835Z" fill="#F0F0F0"/>
<path d="M234.462 201.015H231.972V203.505H234.462V201.015Z" fill="#F0F0F0"/>
<path d="M234.462 205.195H231.972V207.685H234.462V205.195Z" fill="#F0F0F0"/>
<path d="M234.462 209.375H231.972V211.865H234.462V209.375Z" fill="#F0F0F0"/>
<path d="M234.462 213.555H231.972V216.045H234.462V213.555Z" fill="#F0F0F0"/>
<path d="M234.462 217.735H231.972V220.225H234.462V217.735Z" fill="#F0F0F0"/>
<path d="M234.462 221.915H231.972V224.405H234.462V221.915Z" fill="#F0F0F0"/>
<path d="M234.462 226.095H231.972V228.585H234.462V226.095Z" fill="#F0F0F0"/>
<path d="M234.462 230.275H231.972V232.765H234.462V230.275Z" fill="#F0F0F0"/>
<path d="M234.462 234.455H231.972V236.945H234.462V234.455Z" fill="#F0F0F0"/>
<path d="M234.462 238.625H231.972V241.115H234.462V238.625Z" fill="#F0F0F0"/>
<path d="M234.462 242.805H231.972V245.295H234.462V242.805Z" fill="#F0F0F0"/>
<path d="M234.462 246.985H231.972V249.475H234.462V246.985Z" fill="#F0F0F0"/>
<path d="M234.462 251.165H231.972V253.655H234.462V251.165Z" fill="#F0F0F0"/>
<path d="M234.462 255.345H231.972V257.835H234.462V255.345Z" fill="#F0F0F0"/>
<path d="M234.462 259.525H231.972V262.015H234.462V259.525Z" fill="#F0F0F0"/>
<path d="M234.462 263.705H231.972V266.195H234.462V263.705Z" fill="#F0F0F0"/>
<path d="M230.502 171.765H228.012V174.255H230.502V171.765Z" fill="#F0F0F0"/>
<path d="M230.502 175.945H228.012V178.435H230.502V175.945Z" fill="#F0F0F0"/>
<path d="M230.502 180.125H228.012V182.615H230.502V180.125Z" fill="#F0F0F0"/>
<path d="M230.502 184.305H228.012V186.795H230.502V184.305Z" fill="#F0F0F0"/>
<path d="M230.502 188.485H228.012V190.975H230.502V188.485Z" fill="#F0F0F0"/>
<path d="M230.502 192.665H228.012V195.155H230.502V192.665Z" fill="#F0F0F0"/>
<path d="M230.502 196.835H228.012V199.325H230.502V196.835Z" fill="#F0F0F0"/>
<path d="M230.502 201.015H228.012V203.505H230.502V201.015Z" fill="#F0F0F0"/>
<path d="M230.502 205.195H228.012V207.685H230.502V205.195Z" fill="#F0F0F0"/>
<path d="M230.502 209.375H228.012V211.865H230.502V209.375Z" fill="#F0F0F0"/>
<path d="M230.502 213.555H228.012V216.045H230.502V213.555Z" fill="#F0F0F0"/>
<path d="M230.502 217.735H228.012V220.225H230.502V217.735Z" fill="#F0F0F0"/>
<path d="M230.502 221.915H228.012V224.405H230.502V221.915Z" fill="#F0F0F0"/>
<path d="M230.502 226.095H228.012V228.585H230.502V226.095Z" fill="#F0F0F0"/>
<path d="M230.502 230.275H228.012V232.765H230.502V230.275Z" fill="#F0F0F0"/>
<path d="M230.502 234.455H228.012V236.945H230.502V234.455Z" fill="#F0F0F0"/>
<path d="M230.502 238.625H228.012V241.115H230.502V238.625Z" fill="#F0F0F0"/>
<path d="M230.502 242.805H228.012V245.295H230.502V242.805Z" fill="#F0F0F0"/>
<path d="M230.502 246.985H228.012V249.475H230.502V246.985Z" fill="#F0F0F0"/>
<path d="M226.542 171.765H224.052V174.255H226.542V171.765Z" fill="#F0F0F0"/>
<path d="M226.542 175.945H224.052V178.435H226.542V175.945Z" fill="#F0F0F0"/>
<path d="M226.542 180.125H224.052V182.615H226.542V180.125Z" fill="#F0F0F0"/>
<path d="M226.542 184.305H224.052V186.795H226.542V184.305Z" fill="#F0F0F0"/>
<path d="M226.542 188.485H224.052V190.975H226.542V188.485Z" fill="#F0F0F0"/>
<path d="M226.542 192.665H224.052V195.155H226.542V192.665Z" fill="#F0F0F0"/>
<path d="M226.542 196.835H224.052V199.325H226.542V196.835Z" fill="#F0F0F0"/>
<path d="M226.542 201.015H224.052V203.505H226.542V201.015Z" fill="#F0F0F0"/>
<path d="M226.542 205.195H224.052V207.685H226.542V205.195Z" fill="#F0F0F0"/>
<path d="M226.542 209.375H224.052V211.865H226.542V209.375Z" fill="#F0F0F0"/>
<path d="M226.542 213.555H224.052V216.045H226.542V213.555Z" fill="#F0F0F0"/>
<path d="M226.542 217.735H224.052V220.225H226.542V217.735Z" fill="#F0F0F0"/>
<path d="M226.542 221.915H224.052V224.405H226.542V221.915Z" fill="#F0F0F0"/>
<path d="M226.542 226.095H224.052V228.585H226.542V226.095Z" fill="#F0F0F0"/>
<path d="M226.542 230.275H224.052V232.765H226.542V230.275Z" fill="#F0F0F0"/>
<path d="M226.542 234.455H224.052V236.945H226.542V234.455Z" fill="#F0F0F0"/>
<path d="M226.542 238.625H224.052V241.115H226.542V238.625Z" fill="#F0F0F0"/>
<path d="M226.542 242.805H224.052V245.295H226.542V242.805Z" fill="#F0F0F0"/>
<path d="M226.542 246.985H224.052V249.475H226.542V246.985Z" fill="#F0F0F0"/>
<path d="M222.582 171.765H220.092V174.255H222.582V171.765Z" fill="#F0F0F0"/>
<path d="M222.582 175.945H220.092V178.435H222.582V175.945Z" fill="#F0F0F0"/>
<path d="M222.582 180.125H220.092V182.615H222.582V180.125Z" fill="#F0F0F0"/>
<path d="M222.582 184.305H220.092V186.795H222.582V184.305Z" fill="#F0F0F0"/>
<path d="M222.582 188.485H220.092V190.975H222.582V188.485Z" fill="#F0F0F0"/>
<path d="M222.582 192.665H220.092V195.155H222.582V192.665Z" fill="#F0F0F0"/>
<path d="M222.582 196.835H220.092V199.325H222.582V196.835Z" fill="#F0F0F0"/>
<path d="M222.582 201.015H220.092V203.505H222.582V201.015Z" fill="#F0F0F0"/>
<path d="M222.582 205.195H220.092V207.685H222.582V205.195Z" fill="#F0F0F0"/>
<path d="M222.582 209.375H220.092V211.865H222.582V209.375Z" fill="#F0F0F0"/>
<path d="M222.582 213.555H220.092V216.045H222.582V213.555Z" fill="#F0F0F0"/>
<path d="M222.582 217.735H220.092V220.225H222.582V217.735Z" fill="#F0F0F0"/>
<path d="M222.582 221.915H220.092V224.405H222.582V221.915Z" fill="#F0F0F0"/>
<path d="M222.582 226.095H220.092V228.585H222.582V226.095Z" fill="#F0F0F0"/>
<path d="M222.582 230.275H220.092V232.765H222.582V230.275Z" fill="#F0F0F0"/>
<path d="M218.622 171.765H216.132V174.255H218.622V171.765Z" fill="#F0F0F0"/>
<path d="M218.622 175.945H216.132V178.435H218.622V175.945Z" fill="#F0F0F0"/>
<path d="M218.622 180.125H216.132V182.615H218.622V180.125Z" fill="#F0F0F0"/>
<path d="M218.622 184.305H216.132V186.795H218.622V184.305Z" fill="#F0F0F0"/>
<path d="M218.622 188.485H216.132V190.975H218.622V188.485Z" fill="#F0F0F0"/>
<path d="M218.622 192.665H216.132V195.155H218.622V192.665Z" fill="#F0F0F0"/>
<path d="M218.622 196.835H216.132V199.325H218.622V196.835Z" fill="#F0F0F0"/>
<path d="M218.622 201.015H216.132V203.505H218.622V201.015Z" fill="#F0F0F0"/>
<path d="M218.622 205.195H216.132V207.685H218.622V205.195Z" fill="#F0F0F0"/>
<path d="M218.622 209.375H216.132V211.865H218.622V209.375Z" fill="#F0F0F0"/>
<path d="M218.622 213.555H216.132V216.045H218.622V213.555Z" fill="#F0F0F0"/>
<path d="M218.622 217.735H216.132V220.225H218.622V217.735Z" fill="#F0F0F0"/>
<path d="M218.622 221.915H216.132V224.405H218.622V221.915Z" fill="#F0F0F0"/>
<path d="M214.662 171.765H212.172V174.255H214.662V171.765Z" fill="#F0F0F0"/>
<path d="M214.662 175.945H212.172V178.435H214.662V175.945Z" fill="#F0F0F0"/>
<path d="M214.662 180.125H212.172V182.615H214.662V180.125Z" fill="#F0F0F0"/>
<path d="M214.662 184.305H212.172V186.795H214.662V184.305Z" fill="#F0F0F0"/>
<path d="M214.662 188.485H212.172V190.975H214.662V188.485Z" fill="#F0F0F0"/>
<path d="M214.662 192.665H212.172V195.155H214.662V192.665Z" fill="#F0F0F0"/>
<path d="M214.662 196.835H212.172V199.325H214.662V196.835Z" fill="#F0F0F0"/>
<path d="M214.662 201.015H212.172V203.505H214.662V201.015Z" fill="#F0F0F0"/>
<path d="M214.662 205.195H212.172V207.685H214.662V205.195Z" fill="#F0F0F0"/>
<path d="M214.662 209.375H212.172V211.865H214.662V209.375Z" fill="#F0F0F0"/>
<path d="M214.662 213.555H212.172V216.045H214.662V213.555Z" fill="#F0F0F0"/>
<path d="M214.662 217.735H212.172V220.225H214.662V217.735Z" fill="#F0F0F0"/>
<path d="M445.752 170.515H443.262V173.005H445.752V170.515Z" fill="#F0F0F0"/>
<path d="M445.752 174.695H443.262V177.185H445.752V174.695Z" fill="#F0F0F0"/>
<path d="M445.752 178.875H443.262V181.365H445.752V178.875Z" fill="#F0F0F0"/>
<path d="M445.752 183.055H443.262V185.545H445.752V183.055Z" fill="#F0F0F0"/>
<path d="M445.752 187.235H443.262V189.725H445.752V187.235Z" fill="#F0F0F0"/>
<path d="M445.752 191.415H443.262V193.905H445.752V191.415Z" fill="#F0F0F0"/>
<path d="M445.752 195.595H443.262V198.085H445.752V195.595Z" fill="#F0F0F0"/>
<path d="M445.752 199.775H443.262V202.265H445.752V199.775Z" fill="#F0F0F0"/>
<path d="M445.752 203.955H443.262V206.445H445.752V203.955Z" fill="#F0F0F0"/>
<path d="M445.752 208.135H443.262V210.625H445.752V208.135Z" fill="#F0F0F0"/>
<path d="M445.752 212.305H443.262V214.795H445.752V212.305Z" fill="#F0F0F0"/>
<path d="M445.752 216.485H443.262V218.975H445.752V216.485Z" fill="#F0F0F0"/>
<path d="M445.752 220.665H443.262V223.155H445.752V220.665Z" fill="#F0F0F0"/>
<path d="M445.752 224.845H443.262V227.335H445.752V224.845Z" fill="#F0F0F0"/>
<path d="M445.752 229.025H443.262V231.515H445.752V229.025Z" fill="#F0F0F0"/>
<path d="M445.752 233.205H443.262V235.695H445.752V233.205Z" fill="#F0F0F0"/>
<path d="M445.752 237.385H443.262V239.875H445.752V237.385Z" fill="#F0F0F0"/>
<path d="M445.752 245.745H443.262V248.235H445.752V245.745Z" fill="#F0F0F0"/>
<path d="M445.752 249.925H443.262V252.415H445.752V249.925Z" fill="#F0F0F0"/>
<path d="M445.752 254.095H443.262V256.585H445.752V254.095Z" fill="#F0F0F0"/>
<path d="M445.752 258.275H443.262V260.765H445.752V258.275Z" fill="#F0F0F0"/>
<path d="M445.752 262.455H443.262V264.945H445.752V262.455Z" fill="#F0F0F0"/>
<path d="M441.792 170.515H439.302V173.005H441.792V170.515Z" fill="#F0F0F0"/>
<path d="M441.792 174.695H439.302V177.185H441.792V174.695Z" fill="#F0F0F0"/>
<path d="M441.792 178.875H439.302V181.365H441.792V178.875Z" fill="#F0F0F0"/>
<path d="M441.792 183.055H439.302V185.545H441.792V183.055Z" fill="#F0F0F0"/>
<path d="M441.792 187.235H439.302V189.725H441.792V187.235Z" fill="#F0F0F0"/>
<path d="M441.792 191.415H439.302V193.905H441.792V191.415Z" fill="#F0F0F0"/>
<path d="M441.792 195.595H439.302V198.085H441.792V195.595Z" fill="#F0F0F0"/>
<path d="M441.792 199.775H439.302V202.265H441.792V199.775Z" fill="#F0F0F0"/>
<path d="M441.792 203.955H439.302V206.445H441.792V203.955Z" fill="#F0F0F0"/>
<path d="M441.792 208.135H439.302V210.625H441.792V208.135Z" fill="#F0F0F0"/>
<path d="M441.792 212.305H439.302V214.795H441.792V212.305Z" fill="#F0F0F0"/>
<path d="M441.792 216.485H439.302V218.975H441.792V216.485Z" fill="#F0F0F0"/>
<path d="M441.792 220.665H439.302V223.155H441.792V220.665Z" fill="#F0F0F0"/>
<path d="M441.792 224.845H439.302V227.335H441.792V224.845Z" fill="#F0F0F0"/>
<path d="M441.792 229.025H439.302V231.515H441.792V229.025Z" fill="#F0F0F0"/>
<path d="M441.792 233.205H439.302V235.695H441.792V233.205Z" fill="#F0F0F0"/>
<path d="M441.792 258.275H439.302V260.765H441.792V258.275Z" fill="#F0F0F0"/>
<path d="M441.792 262.455H439.302V264.945H441.792V262.455Z" fill="#F0F0F0"/>
<path d="M437.842 170.515H435.352V173.005H437.842V170.515Z" fill="#F0F0F0"/>
<path d="M437.842 174.695H435.352V177.185H437.842V174.695Z" fill="#F0F0F0"/>
<path d="M437.842 178.875H435.352V181.365H437.842V178.875Z" fill="#F0F0F0"/>
<path d="M437.842 183.055H435.352V185.545H437.842V183.055Z" fill="#F0F0F0"/>
<path d="M437.842 187.235H435.352V189.725H437.842V187.235Z" fill="#F0F0F0"/>
<path d="M437.842 191.415H435.352V193.905H437.842V191.415Z" fill="#F0F0F0"/>
<path d="M437.842 195.595H435.352V198.085H437.842V195.595Z" fill="#F0F0F0"/>
<path d="M437.842 199.775H435.352V202.265H437.842V199.775Z" fill="#F0F0F0"/>
<path d="M437.842 203.955H435.352V206.445H437.842V203.955Z" fill="#F0F0F0"/>
<path d="M437.842 208.135H435.352V210.625H437.842V208.135Z" fill="#F0F0F0"/>
<path d="M437.842 212.305H435.352V214.795H437.842V212.305Z" fill="#F0F0F0"/>
<path d="M437.842 216.485H435.352V218.975H437.842V216.485Z" fill="#F0F0F0"/>
<path d="M437.842 220.665H435.352V223.155H437.842V220.665Z" fill="#F0F0F0"/>
<path d="M437.842 224.845H435.352V227.335H437.842V224.845Z" fill="#F0F0F0"/>
<path d="M437.842 229.025H435.352V231.515H437.842V229.025Z" fill="#F0F0F0"/>
<path d="M437.842 233.205H435.352V235.695H437.842V233.205Z" fill="#F0F0F0"/>
<path d="M437.842 241.565H435.352V244.055H437.842V241.565Z" fill="#F0F0F0"/>
<path d="M437.842 245.745H435.352V248.235H437.842V245.745Z" fill="#F0F0F0"/>
<path d="M437.842 249.925H435.352V252.415H437.842V249.925Z" fill="#F0F0F0"/>
<path d="M437.842 254.095H435.352V256.585H437.842V254.095Z" fill="#F0F0F0"/>
<path d="M437.842 262.455H435.352V264.945H437.842V262.455Z" fill="#F0F0F0"/>
<path d="M368.772 199.775H366.282V202.265H368.772V199.775Z" fill="#F0F0F0"/>
<path d="M368.772 203.955H366.282V206.445H368.772V203.955Z" fill="#F0F0F0"/>
<path d="M368.772 208.135H366.282V210.625H368.772V208.135Z" fill="#F0F0F0"/>
<path d="M368.772 212.305H366.282V214.795H368.772V212.305Z" fill="#F0F0F0"/>
<path d="M368.772 216.485H366.282V218.975H368.772V216.485Z" fill="#F0F0F0"/>
<path d="M368.772 220.665H366.282V223.155H368.772V220.665Z" fill="#F0F0F0"/>
<path d="M368.772 224.845H366.282V227.335H368.772V224.845Z" fill="#F0F0F0"/>
<path d="M368.772 229.025H366.282V231.515H368.772V229.025Z" fill="#F0F0F0"/>
<path d="M368.772 233.205H366.282V235.695H368.772V233.205Z" fill="#F0F0F0"/>
<path d="M368.772 237.385H366.282V239.875H368.772V237.385Z" fill="#F0F0F0"/>
<path d="M368.772 241.565H366.282V244.055H368.772V241.565Z" fill="#F0F0F0"/>
<path d="M368.772 245.745H366.282V248.235H368.772V245.745Z" fill="#F0F0F0"/>
<path d="M368.772 249.925H366.282V252.415H368.772V249.925Z" fill="#F0F0F0"/>
<path d="M368.772 258.275H366.282V260.765H368.772V258.275Z" fill="#F0F0F0"/>
<path d="M368.772 262.455H366.282V264.945H368.772V262.455Z" fill="#F0F0F0"/>
<path d="M368.772 266.635H366.282V269.125H368.772V266.635Z" fill="#F0F0F0"/>
<path d="M368.772 270.815H366.282V273.305H368.772V270.815Z" fill="#F0F0F0"/>
<path d="M368.772 279.175H366.282V281.665H368.772V279.175Z" fill="#F0F0F0"/>
<path d="M368.772 283.355H366.282V285.845H368.772V283.355Z" fill="#F0F0F0"/>
<path d="M368.772 287.535H366.282V290.025H368.772V287.535Z" fill="#F0F0F0"/>
<path d="M364.812 199.775H362.322V202.265H364.812V199.775Z" fill="#F0F0F0"/>
<path d="M364.812 203.955H362.322V206.445H364.812V203.955Z" fill="#F0F0F0"/>
<path d="M364.812 208.135H362.322V210.625H364.812V208.135Z" fill="#F0F0F0"/>
<path d="M364.812 212.305H362.322V214.795H364.812V212.305Z" fill="#F0F0F0"/>
<path d="M364.812 216.485H362.322V218.975H364.812V216.485Z" fill="#F0F0F0"/>
<path d="M364.812 220.665H362.322V223.155H364.812V220.665Z" fill="#F0F0F0"/>
<path d="M364.812 224.845H362.322V227.335H364.812V224.845Z" fill="#F0F0F0"/>
<path d="M364.812 229.025H362.322V231.515H364.812V229.025Z" fill="#F0F0F0"/>
<path d="M364.812 233.205H362.322V235.695H364.812V233.205Z" fill="#F0F0F0"/>
<path d="M364.812 237.385H362.322V239.875H364.812V237.385Z" fill="#F0F0F0"/>
<path d="M364.812 241.565H362.322V244.055H364.812V241.565Z" fill="#F0F0F0"/>
<path d="M364.812 245.745H362.322V248.235H364.812V245.745Z" fill="#F0F0F0"/>
<path d="M364.812 249.925H362.322V252.415H364.812V249.925Z" fill="#F0F0F0"/>
<path d="M364.812 262.455H362.322V264.945H364.812V262.455Z" fill="#F0F0F0"/>
<path d="M364.812 266.635H362.322V269.125H364.812V266.635Z" fill="#F0F0F0"/>
<path d="M364.812 274.995H362.322V277.485H364.812V274.995Z" fill="#F0F0F0"/>
<path d="M364.812 279.175H362.322V281.665H364.812V279.175Z" fill="#F0F0F0"/>
<path d="M364.812 283.355H362.322V285.845H364.812V283.355Z" fill="#F0F0F0"/>
<path d="M364.812 287.535H362.322V290.025H364.812V287.535Z" fill="#F0F0F0"/>
<path d="M360.852 199.775H358.362V202.265H360.852V199.775Z" fill="#F0F0F0"/>
<path d="M360.852 203.955H358.362V206.445H360.852V203.955Z" fill="#F0F0F0"/>
<path d="M360.852 208.135H358.362V210.625H360.852V208.135Z" fill="#F0F0F0"/>
<path d="M360.852 212.305H358.362V214.795H360.852V212.305Z" fill="#F0F0F0"/>
<path d="M360.852 216.485H358.362V218.975H360.852V216.485Z" fill="#F0F0F0"/>
<path d="M360.852 220.665H358.362V223.155H360.852V220.665Z" fill="#F0F0F0"/>
<path d="M360.852 224.845H358.362V227.335H360.852V224.845Z" fill="#F0F0F0"/>
<path d="M360.852 229.025H358.362V231.515H360.852V229.025Z" fill="#F0F0F0"/>
<path d="M360.852 233.205H358.362V235.695H360.852V233.205Z" fill="#F0F0F0"/>
<path d="M360.852 237.385H358.362V239.875H360.852V237.385Z" fill="#F0F0F0"/>
<path d="M360.852 241.565H358.362V244.055H360.852V241.565Z" fill="#F0F0F0"/>
<path d="M360.852 245.745H358.362V248.235H360.852V245.745Z" fill="#F0F0F0"/>
<path d="M360.852 249.925H358.362V252.415H360.852V249.925Z" fill="#F0F0F0"/>
<path d="M360.852 254.095H358.362V256.585H360.852V254.095Z" fill="#F0F0F0"/>
<path d="M360.852 262.455H358.362V264.945H360.852V262.455Z" fill="#F0F0F0"/>
<path d="M360.852 270.815H358.362V273.305H360.852V270.815Z" fill="#F0F0F0"/>
<path d="M360.852 274.995H358.362V277.485H360.852V274.995Z" fill="#F0F0F0"/>
<path d="M360.852 279.175H358.362V281.665H360.852V279.175Z" fill="#F0F0F0"/>
<path d="M360.852 283.355H358.362V285.845H360.852V283.355Z" fill="#F0F0F0"/>
<path d="M360.852 287.535H358.362V290.025H360.852V287.535Z" fill="#F0F0F0"/>
<path d="M384.902 223.605H382.412V226.095H384.902V223.605Z" fill="#F0F0F0"/>
<path d="M384.902 227.775H382.412V230.265H384.902V227.775Z" fill="#F0F0F0"/>
<path d="M384.902 231.955H382.412V234.445H384.902V231.955Z" fill="#F0F0F0"/>
<path d="M384.902 236.135H382.412V238.625H384.902V236.135Z" fill="#F0F0F0"/>
<path d="M384.902 240.315H382.412V242.805H384.902V240.315Z" fill="#F0F0F0"/>
<path d="M384.902 244.495H382.412V246.985H384.902V244.495Z" fill="#F0F0F0"/>
<path d="M384.902 257.035H382.412V259.525H384.902V257.035Z" fill="#F0F0F0"/>
<path d="M384.902 261.215H382.412V263.705H384.902V261.215Z" fill="#F0F0F0"/>
<path d="M384.902 265.385H382.412V267.875H384.902V265.385Z" fill="#F0F0F0"/>
<path d="M384.902 269.565H382.412V272.055H384.902V269.565Z" fill="#F0F0F0"/>
<path d="M384.902 273.745H382.412V276.235H384.902V273.745Z" fill="#F0F0F0"/>
<path d="M384.902 277.925H382.412V280.415H384.902V277.925Z" fill="#F0F0F0"/>
<path d="M384.902 282.105H382.412V284.595H384.902V282.105Z" fill="#F0F0F0"/>
<path d="M380.942 223.605H378.452V226.095H380.942V223.605Z" fill="#F0F0F0"/>
<path d="M380.942 227.775H378.452V230.265H380.942V227.775Z" fill="#F0F0F0"/>
<path d="M380.942 231.955H378.452V234.445H380.942V231.955Z" fill="#F0F0F0"/>
<path d="M380.942 236.135H378.452V238.625H380.942V236.135Z" fill="#F0F0F0"/>
<path d="M380.942 240.315H378.452V242.805H380.942V240.315Z" fill="#F0F0F0"/>
<path d="M380.942 244.495H378.452V246.985H380.942V244.495Z" fill="#F0F0F0"/>
<path d="M380.942 257.035H378.452V259.525H380.942V257.035Z" fill="#F0F0F0"/>
<path d="M380.942 261.215H378.452V263.705H380.942V261.215Z" fill="#F0F0F0"/>
<path d="M380.942 265.385H378.452V267.875H380.942V265.385Z" fill="#F0F0F0"/>
<path d="M380.942 269.565H378.452V272.055H380.942V269.565Z" fill="#F0F0F0"/>
<path d="M380.942 273.745H378.452V276.235H380.942V273.745Z" fill="#F0F0F0"/>
<path d="M380.942 277.925H378.452V280.415H380.942V277.925Z" fill="#F0F0F0"/>
<path d="M380.942 286.285H378.452V288.775H380.942V286.285Z" fill="#F0F0F0"/>
<path d="M249.412 205.195H246.922V207.685H249.412V205.195Z" fill="#F0F0F0"/>
<path d="M249.412 209.375H246.922V211.865H249.412V209.375Z" fill="#F0F0F0"/>
<path d="M249.412 213.555H246.922V216.045H249.412V213.555Z" fill="#F0F0F0"/>
<path d="M249.412 217.735H246.922V220.225H249.412V217.735Z" fill="#F0F0F0"/>
<path d="M249.412 221.915H246.922V224.405H249.412V221.915Z" fill="#F0F0F0"/>
<path d="M249.412 226.095H246.922V228.585H249.412V226.095Z" fill="#F0F0F0"/>
<path d="M249.412 230.275H246.922V232.765H249.412V230.275Z" fill="#F0F0F0"/>
<path d="M249.412 234.455H246.922V236.945H249.412V234.455Z" fill="#F0F0F0"/>
<path d="M249.412 238.625H246.922V241.115H249.412V238.625Z" fill="#F0F0F0"/>
<path d="M249.412 242.805H246.922V245.295H249.412V242.805Z" fill="#F0F0F0"/>
<path d="M249.412 246.985H246.922V249.475H249.412V246.985Z" fill="#F0F0F0"/>
<path d="M249.412 255.345H246.922V257.835H249.412V255.345Z" fill="#F0F0F0"/>
<path d="M249.412 259.525H246.922V262.015H249.412V259.525Z" fill="#F0F0F0"/>
<path d="M249.412 263.705H246.922V266.195H249.412V263.705Z" fill="#F0F0F0"/>
<path d="M249.412 267.885H246.922V270.375H249.412V267.885Z" fill="#F0F0F0"/>
<path d="M249.412 272.065H246.922V274.555H249.412V272.065Z" fill="#F0F0F0"/>
<path d="M249.412 276.245H246.922V278.735H249.412V276.245Z" fill="#F0F0F0"/>
<path d="M249.412 280.415H246.922V282.905H249.412V280.415Z" fill="#F0F0F0"/>
<path d="M249.412 284.595H246.922V287.085H249.412V284.595Z" fill="#F0F0F0"/>
<path d="M245.462 205.195H242.972V207.685H245.462V205.195Z" fill="#F0F0F0"/>
<path d="M245.462 209.375H242.972V211.865H245.462V209.375Z" fill="#F0F0F0"/>
<path d="M245.462 213.555H242.972V216.045H245.462V213.555Z" fill="#F0F0F0"/>
<path d="M245.462 217.735H242.972V220.225H245.462V217.735Z" fill="#F0F0F0"/>
<path d="M245.462 221.915H242.972V224.405H245.462V221.915Z" fill="#F0F0F0"/>
<path d="M245.462 226.095H242.972V228.585H245.462V226.095Z" fill="#F0F0F0"/>
<path d="M245.462 230.275H242.972V232.765H245.462V230.275Z" fill="#F0F0F0"/>
<path d="M245.462 234.455H242.972V236.945H245.462V234.455Z" fill="#F0F0F0"/>
<path d="M245.462 238.625H242.972V241.115H245.462V238.625Z" fill="#F0F0F0"/>
<path d="M245.462 242.805H242.972V245.295H245.462V242.805Z" fill="#F0F0F0"/>
<path d="M245.462 246.985H242.972V249.475H245.462V246.985Z" fill="#F0F0F0"/>
<path d="M245.462 251.165H242.972V253.655H245.462V251.165Z" fill="#F0F0F0"/>
<path d="M245.462 255.345H242.972V257.835H245.462V255.345Z" fill="#F0F0F0"/>
<path d="M245.462 259.525H242.972V262.015H245.462V259.525Z" fill="#F0F0F0"/>
<path d="M245.462 263.705H242.972V266.195H245.462V263.705Z" fill="#F0F0F0"/>
<path d="M245.462 267.885H242.972V270.375H245.462V267.885Z" fill="#F0F0F0"/>
<path d="M245.462 272.065H242.972V274.555H245.462V272.065Z" fill="#F0F0F0"/>
<path d="M245.462 276.245H242.972V278.735H245.462V276.245Z" fill="#F0F0F0"/>
<path d="M245.462 280.415H242.972V282.905H245.462V280.415Z" fill="#F0F0F0"/>
<path d="M245.462 284.595H242.972V287.085H245.462V284.595Z" fill="#F0F0F0"/>
<path d="M268.922 221.475H266.432V223.965H268.922V221.475Z" fill="#F0F0F0"/>
<path d="M268.922 225.655H266.432V228.145H268.922V225.655Z" fill="#F0F0F0"/>
<path d="M268.922 229.835H266.432V232.325H268.922V229.835Z" fill="#F0F0F0"/>
<path d="M268.922 234.015H266.432V236.505H268.922V234.015Z" fill="#F0F0F0"/>
<path d="M268.922 238.185H266.432V240.675H268.922V238.185Z" fill="#F0F0F0"/>
<path d="M268.922 242.365H266.432V244.855H268.922V242.365Z" fill="#F0F0F0"/>
<path d="M268.922 246.545H266.432V249.035H268.922V246.545Z" fill="#F0F0F0"/>
<path d="M268.922 250.725H266.432V253.215H268.922V250.725Z" fill="#F0F0F0"/>
<path d="M268.922 254.905H266.432V257.395H268.922V254.905Z" fill="#F0F0F0"/>
<path d="M268.922 259.085H266.432V261.575H268.922V259.085Z" fill="#F0F0F0"/>
<path d="M264.962 221.475H262.472V223.965H264.962V221.475Z" fill="#F0F0F0"/>
<path d="M264.962 225.655H262.472V228.145H264.962V225.655Z" fill="#F0F0F0"/>
<path d="M264.962 229.835H262.472V232.325H264.962V229.835Z" fill="#F0F0F0"/>
<path d="M264.962 234.015H262.472V236.505H264.962V234.015Z" fill="#F0F0F0"/>
<path d="M264.962 238.185H262.472V240.675H264.962V238.185Z" fill="#F0F0F0"/>
<path d="M264.962 242.365H262.472V244.855H264.962V242.365Z" fill="#F0F0F0"/>
<path d="M264.962 246.545H262.472V249.035H264.962V246.545Z" fill="#F0F0F0"/>
<path d="M264.962 250.725H262.472V253.215H264.962V250.725Z" fill="#F0F0F0"/>
<path d="M264.962 254.905H262.472V257.395H264.962V254.905Z" fill="#F0F0F0"/>
<path d="M288.512 62.885H284.332V295.965H288.512V62.885Z" fill="#E0E0E0"/>
<path d="M367.221 62.885H363.042V295.965H367.221V62.885Z" fill="#E0E0E0"/>
<path d="M445.922 62.885H441.742V295.965H445.922V62.885Z" fill="#E0E0E0"/>
<path d="M148.442 273.285H174.222C176.652 273.285 178.632 275.255 178.632 277.695V327.525H144.042V277.695C144.042 275.265 146.012 273.285 148.452 273.285H148.442Z" fill="#F0F0F0"/>
<path d="M178.632 280.615H144.042V284.505H178.632V280.615Z" fill="#E6E6E6"/>
<path d="M163.711 320.955H172.331C173.641 320.955 174.701 322.015 174.701 323.325V327.525H161.341V323.325C161.341 322.015 162.401 320.955 163.711 320.955Z" fill="#E0E0E0"/>
<path d="M174.741 327.525H165.151C164.301 327.525 163.611 326.835 163.611 325.985C163.611 325.135 164.301 324.445 165.151 324.445H174.741C175.591 324.445 176.281 325.135 176.281 325.985C176.281 326.835 175.591 327.525 174.741 327.525Z" fill="#E6E6E6"/>
<path d="M328.331 51.9394C340.989 48.9517 348.829 36.268 345.841 23.6095C342.854 10.9509 330.17 3.1112 317.512 6.09888C304.853 9.08656 297.013 21.7703 300.001 34.4288C302.989 47.0873 315.672 54.9271 328.331 51.9394Z" fill="#E0E0E0"/>
<path d="M326.133 48.7633C337.053 46.9908 344.468 36.7021 342.695 25.7828C340.923 14.8634 330.634 7.44839 319.715 9.22085C308.795 10.9933 301.38 21.2821 303.153 32.2014C304.925 43.1207 315.214 50.5358 326.133 48.7633Z" fill="#F0F0F0"/>
<path d="M323.862 15.2751V29.2751L333.142 24.0251" fill="#F0F0F0"/>
<path d="M323.862 15.2751V29.2751L333.142 24.0251" stroke="#E0E0E0" stroke-width="2" stroke-linecap="round" stroke-linejoin="round"/>
<path d="M97.5515 258.885C95.7515 255.925 92.7915 258.495 92.7915 258.495C93.2115 252.815 87.9915 248.935 87.9915 248.935C87.9915 248.935 94.0615 248.935 94.9115 243.145C95.7615 237.355 92.7915 240.045 90.0115 240.005C87.2315 239.965 84.3215 248.085 87.9915 252.655C91.6615 257.225 90.6715 265.025 82.2115 272.525C80.1415 274.355 78.7415 276.795 77.7915 279.425C78.4315 272.535 78.7915 262.825 76.7615 256.345C73.3215 245.335 79.8815 242.375 81.7815 236.865C83.6915 231.365 76.7615 226.705 76.7615 226.705C76.7615 226.705 83.2715 223.745 80.0915 220.355C76.9115 216.965 70.3515 217.425 70.3515 221.855C70.3515 226.285 74.8015 227.975 74.8015 227.975C74.8015 227.975 79.8815 233.265 79.8815 236.025C79.8815 238.785 74.8015 244.705 74.8015 244.705C74.8015 244.705 77.1315 239.635 72.4715 239.415C67.8115 239.195 66.3315 245.335 68.2415 248.095C70.1515 250.845 73.3215 248.515 73.3215 248.515C73.3215 248.515 73.6915 254.445 74.7815 258.045C75.2615 259.625 75.0315 265.835 74.6315 272.295C73.6915 269.965 72.3615 267.825 70.5115 266.175C62.0415 258.675 61.0615 250.875 64.7315 246.305C68.4015 241.735 65.4915 233.615 62.7115 233.655C59.9315 233.695 56.9615 230.995 57.8115 236.795C58.6615 242.595 64.7315 242.585 64.7315 242.585C64.7315 242.585 59.5015 246.475 59.9315 252.145C59.9315 252.145 56.9715 249.565 55.1715 252.535C51.9615 257.825 59.4015 261.105 60.6615 258.505C60.6615 258.505 76.4515 269.685 72.6415 285.775L73.5315 287.085C73.4215 288.385 73.3415 289.165 73.3415 289.165L74.5815 288.635L75.9915 290.705C75.9215 294.725 76.3515 297.695 76.3515 297.695L80.1315 292.125C76.3215 276.035 92.1115 264.855 92.1115 264.855C93.3615 267.455 100.811 264.175 97.6015 258.885H97.5515Z" fill="#E0E0E0"/>
<path opacity="0.2" d="M97.5515 258.885C95.7515 255.925 92.7915 258.495 92.7915 258.495C93.2115 252.815 87.9915 248.935 87.9915 248.935C87.9915 248.935 94.0615 248.935 94.9115 243.145C95.7615 237.355 92.7915 240.045 90.0115 240.005C87.2315 239.965 84.3215 248.085 87.9915 252.655C91.6615 257.225 90.6715 265.025 82.2115 272.525C80.1415 274.355 78.7415 276.795 77.7915 279.425C78.4315 272.535 78.7915 262.825 76.7615 256.345C73.3215 245.335 79.8815 242.375 81.7815 236.865C83.6915 231.365 76.7615 226.705 76.7615 226.705C76.7615 226.705 83.2715 223.745 80.0915 220.355C76.9115 216.965 70.3515 217.425 70.3515 221.855C70.3515 226.285 74.8015 227.975 74.8015 227.975C74.8015 227.975 79.8815 233.265 79.8815 236.025C79.8815 238.785 74.8015 244.705 74.8015 244.705C74.8015 244.705 77.1315 239.635 72.4715 239.415C67.8115 239.195 66.3315 245.335 68.2415 248.095C70.1515 250.845 73.3215 248.515 73.3215 248.515C73.3215 248.515 73.6915 254.445 74.7815 258.045C75.2615 259.625 75.0315 265.835 74.6315 272.295C73.6915 269.965 72.3615 267.825 70.5115 266.175C62.0415 258.675 61.0615 250.875 64.7315 246.305C68.4015 241.735 65.4915 233.615 62.7115 233.655C59.9315 233.695 56.9615 230.995 57.8115 236.795C58.6615 242.595 64.7315 242.585 64.7315 242.585C64.7315 242.585 59.5015 246.475 59.9315 252.145C59.9315 252.145 56.9715 249.565 55.1715 252.535C51.9615 257.825 59.4015 261.105 60.6615 258.505C60.6615 258.505 76.4515 269.685 72.6415 285.775L73.5315 287.085C73.4215 288.385 73.3415 289.165 73.3415 289.165L74.5815 288.635L75.9915 290.705C75.9215 294.725 76.3515 297.695 76.3515 297.695L80.1315 292.125C76.3215 276.035 92.1115 264.855 92.1115 264.855C93.3615 267.455 100.811 264.175 97.6015 258.885H97.5515Z" fill="#E0E0E0"/>
<path d="M94.4618 327.525H58.2918L54.3818 287.915H98.3618L94.4618 327.525Z" fill="#E6E6E6"/>
<path d="M100.292 283.545H52.4517V292.285H100.292V283.545Z" fill="#F0F0F0"/>
<path d="M250.621 372.805C357.704 372.805 444.511 367.737 444.511 361.485C444.511 355.233 357.704 350.165 250.621 350.165C143.539 350.165 56.7314 355.233 56.7314 361.485C56.7314 367.737 143.539 372.805 250.621 372.805Z" fill="#F5F5F5"/>
<path d="M411.072 329.955C411.222 328.935 414.722 304.785 407.712 296.445C406.162 294.595 404.202 293.635 401.892 293.575C387.742 293.245 385.802 304.615 385.782 304.725L387.452 304.985C387.512 304.575 389.192 294.955 401.852 295.265C403.682 295.305 405.182 296.055 406.422 297.535C412.952 305.295 409.442 329.465 409.402 329.705L411.072 329.955Z" fill="#407BFF"/>
<path d="M411.922 328.855L413.612 328.805C413.612 328.585 413.052 306.555 423.902 302.005C434.542 297.545 439.322 306.715 439.522 307.105L441.032 306.345C440.972 306.235 435.362 295.365 423.252 300.445C411.332 305.445 411.892 327.905 411.922 328.855Z" fill="#407BFF"/>
<path d="M411.872 330.585C411.872 330.235 411.972 295.395 418.762 285.205C425.282 275.425 435.802 280.025 436.252 280.225L436.952 278.685C436.832 278.625 424.692 273.275 417.362 284.265C410.292 294.875 410.182 329.125 410.182 330.585H411.872Z" fill="#407BFF"/>
<path d="M399.862 294.425C399.862 294.425 406.042 296.705 404.201 302.085C402.361 307.465 382.822 316.315 382.822 316.315C382.822 316.315 374.642 308.815 382.152 296.615C389.672 284.415 399.692 290.585 399.852 294.425H399.862Z" fill="#407BFF"/>
<path d="M419.071 283.375C419.071 283.375 414.681 282.905 415.041 280.235C415.401 277.565 432.091 270.685 441.951 281.805C441.951 281.805 435.641 292.645 426.521 292.785C417.401 292.925 419.081 283.375 419.081 283.375H419.071Z" fill="#407BFF"/>
<path d="M423.582 301.225C423.582 301.225 420.552 298.785 423.822 297.585C427.092 296.395 443.122 296.735 443.292 312.615C443.292 312.615 424.622 315.715 422.312 309.665C420.002 303.615 423.592 301.225 423.592 301.225H423.582Z" fill="#407BFF"/>
<path opacity="0.2" d="M399.862 294.425C399.862 294.425 406.042 296.705 404.201 302.085C402.361 307.465 382.822 316.315 382.822 316.315C382.822 316.315 374.642 308.815 382.152 296.615C389.672 284.415 399.692 290.585 399.852 294.425H399.862Z" fill="black"/>
<path opacity="0.2" d="M419.071 283.375C419.071 283.375 414.681 282.905 415.041 280.235C415.401 277.565 432.091 270.685 441.951 281.805C441.951 281.805 435.641 292.645 426.521 292.785C417.401 292.925 419.081 283.375 419.081 283.375H419.071Z" fill="black"/>
<path opacity="0.2" d="M423.582 301.225C423.582 301.225 420.552 298.785 423.822 297.585C427.092 296.395 443.122 296.735 443.292 312.615C443.292 312.615 424.622 315.715 422.312 309.665C420.002 303.615 423.592 301.225 423.592 301.225H423.582Z" fill="black"/>
<path d="M396.541 362.315H425.521L428.641 330.585H393.421L396.541 362.315Z" fill="#407BFF"/>
<path d="M396.541 362.315H425.521L428.641 330.585H393.421L396.541 362.315Z" fill="#0C295B"/>
<path d="M391.871 334.095H430.191V327.095H391.871V334.095Z" fill="#407BFF"/>
<path opacity="0.2" d="M391.871 334.095H430.191V327.095H391.871V334.095Z" fill="white"/>
<path d="M363.741 339.575L334.931 336.745V296.255H323.512V336.735L294.581 339.575C291.711 339.855 289.521 342.275 289.521 345.155V349.485H368.801V345.155C368.801 342.265 366.611 339.855 363.741 339.575Z" fill="#263238"/>
<path opacity="0.2" d="M363.741 339.575L334.931 336.745V296.255H323.512V336.735L294.581 339.575C291.711 339.855 289.521 342.275 289.521 345.155V349.485H368.801V345.155C368.801 342.265 366.611 339.855 363.741 339.575Z" fill="white"/>
<path d="M292.572 362.315C296.697 362.315 300.042 358.971 300.042 354.845C300.042 350.719 296.697 347.375 292.572 347.375C288.446 347.375 285.102 350.719 285.102 354.845C285.102 358.971 288.446 362.315 292.572 362.315Z" fill="#263238"/>
<path d="M365.762 362.315C369.887 362.315 373.231 358.971 373.231 354.845C373.231 350.719 369.887 347.375 365.762 347.375C361.636 347.375 358.292 350.719 358.292 354.845C358.292 358.971 361.636 362.315 365.762 362.315Z" fill="#263238"/>
<path d="M321.552 268.885H336.902V300.815C336.902 303.095 335.052 304.945 332.772 304.945H325.682C323.402 304.945 321.552 303.095 321.552 300.815V268.885Z" fill="#263238"/>
<path opacity="0.3" d="M321.552 268.885H336.902V300.815C336.902 303.095 335.052 304.945 332.772 304.945H325.682C323.402 304.945 321.552 303.095 321.552 300.815V268.885Z" fill="white"/>
<path d="M356.522 205.595C356.522 205.595 358.702 259.595 343.662 268.885H360.822C360.822 268.885 374.122 250.485 370.362 205.595H356.512H356.522Z" fill="#263238"/>
<path opacity="0.3" d="M356.522 205.595C356.522 205.595 358.702 259.595 343.662 268.885H360.822C360.822 268.885 374.122 250.485 370.362 205.595H356.512H356.522Z" fill="white"/>
<path d="M366.671 273.025H289.751V266.335C289.751 263.575 291.991 261.335 294.751 261.335H361.671C364.431 261.335 366.671 263.575 366.671 266.335V273.025Z" fill="#263238"/>
<path d="M288.552 273.025H367.862C368.972 273.025 369.872 272.125 369.872 271.015V269.195C369.872 268.085 368.972 267.185 367.862 267.185H288.552C287.441 267.185 286.542 268.085 286.542 269.195V271.015C286.542 272.125 287.441 273.025 288.552 273.025Z" fill="#263238"/>
<path opacity="0.6" d="M288.552 273.025H367.862C368.972 273.025 369.872 272.125 369.872 271.015V269.195C369.872 268.085 368.972 267.185 367.862 267.185H288.552C287.441 267.185 286.542 268.085 286.542 269.195V271.015C286.542 272.125 287.441 273.025 288.552 273.025Z" fill="white"/>
<path d="M374.581 176.645H347.081C339.029 176.645 332.501 183.173 332.501 191.225V201.985C332.501 210.037 339.029 216.565 347.081 216.565H374.581C382.634 216.565 389.161 210.037 389.161 201.985V191.225C389.161 183.173 382.634 176.645 374.581 176.645Z" fill="#263238"/>
<path d="M263.672 132.525L258.182 118.055C258.182 118.055 260.532 115.875 258.922 113.665C257.312 111.455 247.182 105.235 245.332 106.335C243.482 107.425 239.392 111.545 241.602 113.835C243.822 116.125 253.632 119.935 253.632 119.935L258.482 138.925L263.662 132.525H263.672Z" fill="#E4897B"/>
<path d="M302.002 160.035C302.002 160.035 277.032 154.905 274.322 153.675C271.612 152.445 261.562 123.015 261.562 123.015L253.862 126.615C253.862 126.615 260.062 156.155 266.402 163.185C272.742 170.205 299.792 176.155 299.792 176.155L302.002 160.045V160.035Z" fill="#407BFF"/>
<path opacity="0.2" d="M299.792 176.135C299.792 176.135 299.632 176.105 299.332 176.025C297.962 175.715 293.702 174.715 288.632 173.225C280.402 170.835 270.022 167.175 266.402 163.165C260.072 156.135 253.862 126.595 253.862 126.595L261.562 122.995C261.562 122.995 271.612 152.435 274.332 153.655C277.042 154.875 302.002 160.005 302.002 160.005L299.792 176.115V176.135Z" fill="black"/>
<path d="M261.692 122.435L263.282 125.505L253.382 128.915L253.762 125.165L261.692 122.435Z" fill="#407BFF"/>
<path opacity="0.2" d="M299.982 175.735C298.592 175.535 294.262 174.865 289.092 173.775C292.042 168.685 300.682 166.065 300.682 166.065L299.982 175.735Z" fill="black"/>
<path d="M337.202 139.655C337.202 139.655 338.672 153.485 333.542 156.885C328.422 160.285 303.212 156.305 300.352 150.735C297.492 145.175 308.252 130.065 308.252 130.065L337.192 139.655H337.202Z" fill="#263238"/>
<path d="M235.212 321.635L241.792 323.225L245.122 314.145L248.142 305.885L240.652 302.695L237.772 312.715L235.212 321.635Z" fill="#E4897B"/>
<path opacity="0.2" d="M237.772 312.715L245.122 314.145L248.142 305.885L240.652 302.695L237.772 312.715Z" fill="black"/>
<path d="M238.432 307.925L247.552 311.315C247.552 311.315 271.882 250.485 276.882 250.275C281.882 250.065 332.792 273.465 345.552 260.485C358.312 247.515 339.862 216.245 339.862 216.245C339.862 216.245 309.172 211.865 306.862 218.795C306.412 220.135 305.922 222.765 305.562 225.015C305.212 227.135 304.972 228.915 304.972 228.915C304.972 228.915 304.962 228.915 304.952 228.915C304.002 228.675 273.192 220.725 261.052 228.915C248.722 237.255 238.432 307.925 238.432 307.925Z" fill="#407BFF"/>
<path opacity="0.6" d="M238.432 307.925L247.552 311.315C247.552 311.315 271.882 250.485 276.882 250.275C281.882 250.065 332.792 273.465 345.552 260.485C358.312 247.515 339.862 216.245 339.862 216.245C339.862 216.245 309.172 211.865 306.862 218.795C306.412 220.135 305.922 222.765 305.562 225.015C305.212 227.135 304.972 228.915 304.972 228.915C304.972 228.915 304.962 228.915 304.952 228.915C304.002 228.675 273.192 220.725 261.052 228.915C248.722 237.255 238.432 307.925 238.432 307.925Z" fill="white"/>
<path d="M290.892 347.585L297.442 345.905L296.182 336.505L295.012 327.885L286.912 328.615L289.012 338.655L290.892 347.585Z" fill="#E4897B"/>
<path opacity="0.2" d="M289.062 338.865L296.222 336.685L295.032 327.975L286.922 328.655L289.062 338.865Z" fill="black"/>
<path d="M251.322 307.935L238.032 303.425L237.472 308.865L247.542 312.425L251.322 307.935Z" fill="#407BFF"/>
<path d="M323.512 263.605C323.512 263.605 321.432 263.655 289.242 262.155C289.242 262.155 294.052 302.405 296.682 332.525L287.052 334.165C287.052 334.165 264.052 269.655 264.302 259.405C264.552 249.155 276.302 246.155 276.302 246.155C276.302 246.155 299.232 259.405 323.512 263.605Z" fill="#407BFF"/>
<path opacity="0.6" d="M323.512 263.605C323.512 263.605 321.432 263.655 289.242 262.155C289.242 262.155 294.052 302.405 296.682 332.525L287.052 334.165C287.052 334.165 264.052 269.655 264.302 259.405C264.552 249.155 276.302 246.155 276.302 246.155C276.302 246.155 299.232 259.405 323.512 263.605Z" fill="white"/>
<path opacity="0.1" d="M323.512 263.605C323.512 263.605 321.432 263.655 289.242 262.155C289.242 262.155 294.052 302.405 296.682 332.525L287.052 334.165C287.052 334.165 264.052 269.655 264.302 259.405C264.552 249.155 276.302 246.155 276.302 246.155C276.302 246.155 299.232 259.405 323.512 263.605Z" fill="black"/>
<path d="M298.082 329.605L284.852 331.105L287.412 336.295L298.122 334.925L298.082 329.605Z" fill="#407BFF"/>
<path opacity="0.1" d="M304.972 228.915L322.922 232.655C322.922 232.655 313.002 227.175 305.562 225.015C305.212 227.135 304.972 228.915 304.972 228.915Z" fill="black"/>
<path d="M339.122 211.465L339.862 216.245L306.862 218.785L305.982 213.145L339.122 211.465Z" fill="#263238"/>
<path opacity="0.2" d="M339.122 211.465L339.862 216.245L306.862 218.785L305.982 213.145L339.122 211.465Z" fill="black"/>
<path d="M328.715 219.469L330.346 219.301L329.492 210.995L327.861 211.163L328.715 219.469Z" fill="#407BFF"/>
<path d="M314.06 218.634L321.285 218.169L320.933 212.691L313.708 213.155L314.06 218.634Z" fill="white"/>
<path d="M308.466 220.332L310.098 220.164L309.244 211.858L307.612 212.025L308.466 220.332Z" fill="#407BFF"/>
<path opacity="0.6" d="M328.715 219.469L330.346 219.301L329.492 210.995L327.861 211.163L328.715 219.469Z" fill="white"/>
<path opacity="0.6" d="M308.466 220.332L310.098 220.164L309.244 211.858L307.612 212.025L308.466 220.332Z" fill="white"/>
<path d="M301.402 159.575C301.402 159.575 309.822 162.215 320.412 161.675C331.002 161.135 343.662 166.275 343.662 166.275L339.112 211.465L305.982 213.135C305.982 213.135 294.852 175.395 301.402 159.575Z" fill="#0C295B"/>
<path d="M306.732 134.055C306.732 134.055 308.592 112.105 326.942 120.085C349.972 130.095 331.662 156.825 320.412 151.335C309.162 145.845 306.732 134.055 306.732 134.055Z" fill="#263238"/>
<path opacity="0.2" d="M311.872 162.905L312.402 175.305L316.512 169.475C316.512 169.475 315.042 183.195 315.902 190.655C315.902 190.655 316.692 177.265 318.552 169.475L322.922 175.305L329.192 162.985C329.192 162.985 319.042 159.335 311.862 162.905H311.872Z" fill="black"/>
<path d="M317.552 165.205L327.042 162.525C321.192 158.505 324.142 149.505 324.142 149.505L314.742 152.805C315.242 154.365 315.562 155.685 315.752 156.825C316.732 162.685 314.082 163.155 314.082 163.155L317.552 165.205Z" fill="#E4897B"/>
<path opacity="0.2" d="M314.742 152.815C315.242 154.375 315.562 155.695 315.752 156.835C320.252 155.035 324.142 149.515 324.142 149.515L314.742 152.815Z" fill="black"/>
<path d="M320.882 124.695C312.562 122.855 308.892 126.715 306.382 135.155C303.252 145.705 303.942 153.845 314.852 153.855C329.672 153.875 334.702 127.745 320.882 124.685V124.695Z" fill="#E4897B"/>
<path d="M311.862 135.885C311.862 135.885 310.232 137.805 308.672 138.805C308.672 138.805 309.132 140.095 310.662 140.235L311.862 135.895V135.885Z" fill="#DE5753"/>
<path d="M317.112 136.325C316.942 137.005 317.172 137.645 317.632 137.755C318.082 137.865 318.592 137.405 318.752 136.725C318.922 136.045 318.692 135.405 318.232 135.295C317.782 135.185 317.272 135.645 317.112 136.325Z" fill="#263238"/>
<path d="M318.412 135.375L317.072 134.435C317.072 134.435 317.502 135.865 318.412 135.375Z" fill="#263238"/>
<path d="M308.692 134.105C308.522 134.785 308.752 135.425 309.212 135.535C309.662 135.645 310.172 135.185 310.332 134.505C310.502 133.825 310.272 133.185 309.812 133.075C309.362 132.965 308.852 133.425 308.692 134.105Z" fill="#263238"/>
<path d="M309.992 133.155L308.652 132.215C308.652 132.215 309.082 133.645 309.992 133.155Z" fill="#263238"/>
<path d="M318.462 130.595C318.462 130.595 320.872 130.805 321.792 132.655" stroke="#263238" stroke-width="0.72" stroke-linecap="round" stroke-linejoin="round"/>
<path d="M312.492 128.905C312.492 128.905 311.142 128.035 309.022 128.855" stroke="#263238" stroke-width="0.72" stroke-linecap="round" stroke-linejoin="round"/>
<path d="M326.872 140.735C326.872 140.735 324.492 133.035 326.252 127.885C326.252 127.885 311.252 117.495 306.732 134.055C306.732 134.055 308.412 118.835 322.792 121.665C337.152 124.495 332.482 145.415 323.712 150.015C323.712 150.015 328.332 145.535 326.872 140.725V140.735Z" fill="#263238"/>
<path d="M325.122 142.185C325.472 140.855 327.362 138.895 329.792 139.715C332.312 140.565 332.362 146.135 325.672 145.985C324.712 145.965 324.392 144.945 325.122 142.175V142.185Z" fill="#E4897B"/>
<path d="M309.172 143.385C309.462 144.485 309.602 146.475 309.602 146.475C309.782 146.495 309.972 146.515 310.152 146.525C312.632 146.735 313.862 146.015 314.462 145.145C314.792 144.675 314.922 144.145 314.982 143.715C315.052 143.215 314.982 142.845 314.982 142.845C313.602 143.525 311.262 143.505 310.022 143.435C309.502 143.415 309.172 143.375 309.172 143.375V143.385Z" fill="#263238"/>
<path d="M310.022 143.445L310.172 144.355C312.512 144.545 314.192 144.375 314.982 143.725C315.052 143.225 314.982 142.855 314.982 142.855C313.602 143.535 311.262 143.515 310.022 143.445Z" fill="white"/>
<path d="M310.152 146.525C312.632 146.735 313.862 146.015 314.462 145.145C313.612 145.105 312.582 145.145 311.652 145.455C310.942 145.685 310.472 146.095 310.152 146.515V146.525Z" fill="#DE5753"/>
<path d="M320.912 125.355C320.912 125.355 321.232 139.795 329.892 141.525C338.552 143.255 329.082 122.975 329.082 122.975C329.082 122.975 316.182 114.555 307.592 120.485C298.992 126.425 306.722 134.055 306.722 134.055C306.722 134.055 308.542 123.335 320.902 125.355H320.912Z" fill="#263238"/>
<path d="M321.212 124.405C321.212 124.405 318.122 133.535 324.222 138.325" stroke="#263238" stroke-width="0.5" stroke-linecap="round" stroke-linejoin="round"/>
<path d="M332.422 144.495C331.322 147.435 328.492 149.085 326.102 148.185C323.712 147.285 322.672 144.185 323.772 141.245C324.872 138.305 327.702 136.655 330.092 137.555C332.482 138.455 333.522 141.555 332.422 144.495Z" fill="#407BFF"/>
<path opacity="0.4" d="M332.422 144.495C331.322 147.435 328.492 149.085 326.102 148.185C323.712 147.285 322.672 144.185 323.772 141.245C324.872 138.305 327.702 136.655 330.092 137.555C332.482 138.455 333.522 141.555 332.422 144.495Z" fill="black"/>
<path d="M329.662 139.685C329.662 139.685 333.252 123.615 325.202 119.405C325.202 119.405 326.882 119.635 327.922 119.935C328.962 120.235 335.392 126.755 332.142 141.195L329.662 139.685Z" fill="#407BFF"/>
<path opacity="0.2" d="M329.662 139.685C329.662 139.685 333.252 123.615 325.202 119.405C325.202 119.405 326.882 119.635 327.922 119.935C328.962 120.235 335.392 126.755 332.142 141.195L329.662 139.685Z" fill="black"/>
<path d="M314.572 148.885C314.372 148.855 314.172 148.825 313.972 148.795L314.132 147.805C321.382 148.985 326.772 145.155 326.822 145.115L327.412 145.925C327.182 146.085 321.942 149.855 314.572 148.885Z" fill="#407BFF"/>
<g opacity="0.2">
<path d="M314.572 148.885C314.372 148.855 314.172 148.825 313.972 148.795L314.132 147.805C321.382 148.985 326.772 145.155 326.822 145.115L327.412 145.925C327.182 146.085 321.942 149.855 314.572 148.885Z" fill="black"/>
</g>
<path d="M332.082 144.095C331.352 146.035 329.482 147.125 327.902 146.535C326.322 145.945 325.632 143.885 326.362 141.945C327.092 140.005 328.962 138.915 330.542 139.505C332.122 140.095 332.812 142.155 332.082 144.095Z" fill="#407BFF"/>
<path d="M313.682 149.205L312.882 149.095C312.282 149.015 311.862 148.475 311.942 147.875C312.022 147.275 312.562 146.855 313.162 146.935L313.962 147.045C314.562 147.125 314.982 147.665 314.902 148.265C314.822 148.865 314.282 149.285 313.682 149.205Z" fill="#407BFF"/>
<path opacity="0.4" d="M313.682 149.205L312.882 149.095C312.282 149.015 311.862 148.475 311.942 147.875C312.022 147.275 312.562 146.855 313.162 146.935L313.962 147.045C314.562 147.125 314.982 147.665 314.902 148.265C314.822 148.865 314.282 149.285 313.682 149.205Z" fill="black"/>
<path d="M324.492 159.095L318.552 164.925L320.932 172.075L329.192 162.975L324.492 159.095Z" fill="#407BFF"/>
<path d="M315.902 160.315L316.862 164.805L313.792 171.155L311.872 162.905L315.902 160.315Z" fill="#407BFF"/>
<path d="M323.222 164.155L326.672 151.525C326.672 151.525 325.002 148.375 325.362 147.725C325.722 147.065 327.522 138.585 328.802 137.665C330.082 136.745 335.342 138.315 335.882 139.175C336.422 140.035 330.842 151.525 330.842 151.525L328.812 165.205L323.232 164.155H323.222Z" fill="#E4897B"/>
<path d="M343.662 166.275C353.152 175.995 334.122 198.015 323.222 197.075C312.322 196.135 323.492 156.215 323.492 156.215L330.472 157.365C330.472 157.365 328.022 174.645 328.792 175.995C329.562 177.355 340.462 163.005 343.652 166.275H343.662Z" fill="#407BFF"/>
<path opacity="0.2" d="M343.662 166.275C353.152 175.995 334.122 198.015 323.222 197.075C312.322 196.135 323.492 156.215 323.492 156.215L330.472 157.365C330.472 157.365 328.022 174.645 328.792 175.995C329.562 177.355 340.462 163.005 343.652 166.275H343.662Z" fill="black"/>
<path d="M322.922 154.935L321.892 158.235L331.622 159.095V156.215L322.922 154.935Z" fill="#407BFF"/>
<path opacity="0.6" d="M308.172 181.045H304.232C303.796 181.045 303.442 181.399 303.442 181.835V189.275C303.442 189.711 303.796 190.065 304.232 190.065H308.172C308.608 190.065 308.962 189.711 308.962 189.275V181.835C308.962 181.399 308.608 181.045 308.172 181.045Z" fill="white"/>
<path opacity="0.2" d="M308.252 181.635H303.772V187.765H308.252V181.635Z" fill="black"/>
<path d="M306.612 178.865H305.622V182.475H306.612V178.865Z" fill="#263238"/>
<path d="M224.332 334.415C225.332 333.955 226.412 333.685 227.502 333.605C227.502 333.605 231.302 331.365 235.062 322.685L239.292 322.665C240.762 322.685 242.052 323.615 242.542 324.995C242.612 325.185 242.652 325.385 242.662 325.585C242.622 326.605 242.512 327.625 242.332 328.635C241.952 331.805 239.862 338.595 239.862 338.595L239.142 338.415L240.442 332.095C240.872 329.945 238.622 332.025 237.572 334.185C236.522 336.345 234.922 338.525 230.242 337.455C224.792 336.185 222.602 335.395 224.302 334.415H224.332Z" fill="#407BFF"/>
<path d="M235.832 320.405C235.832 320.405 230.542 331.465 227.502 333.605C227.502 333.605 231.582 336.035 235.832 330.625C241.322 323.625 242.672 325.575 242.672 325.575C242.672 325.575 242.442 323.175 242.012 322.005C241.182 319.745 235.832 320.405 235.832 320.405Z" fill="#E4897B"/>
<path d="M282.552 360.765C283.412 360.085 284.392 359.565 285.442 359.225C285.442 359.225 288.602 356.155 290.202 346.825L294.312 345.795C295.742 345.465 297.222 346.055 298.022 347.285C298.132 347.455 298.222 347.635 298.282 347.825C298.482 348.825 298.622 349.845 298.692 350.865C299.072 354.035 298.652 361.125 298.652 361.125H297.912L297.682 354.675C297.592 352.485 295.892 355.035 295.392 357.385C294.892 359.735 293.842 362.235 289.052 362.305C283.462 362.355 281.142 362.115 282.562 360.765H282.552Z" fill="#407BFF"/>
<path d="M290.402 344.435C290.402 344.435 287.892 356.435 285.442 359.225C285.442 359.225 289.982 360.625 292.822 354.355C296.502 346.245 298.272 347.835 298.272 347.835C298.272 347.835 297.482 345.565 296.782 344.525C295.442 342.525 290.402 344.435 290.402 344.435Z" fill="#E4897B"/>
<path d="M383.381 102.385H348.471C345.671 102.385 343.401 104.655 343.401 107.455V122.385C343.401 125.185 345.671 127.455 348.471 127.455H383.381C386.181 127.455 388.451 125.185 388.451 122.385V107.455C388.451 104.655 386.181 102.385 383.381 102.385Z" fill="#FC5546"/>
<path d="M355.471 124.605L344.951 138.905L361.921 125.565L355.471 124.605Z" fill="#FC5546"/>
<path d="M355.861 114.925C355.861 115.735 355.201 116.405 354.381 116.405C353.561 116.405 352.901 115.745 352.901 114.925C352.901 114.105 353.561 113.445 354.381 113.445C355.201 113.445 355.861 114.105 355.861 114.925Z" fill="white"/>
<path d="M363.551 114.925C363.551 115.735 362.891 116.405 362.071 116.405C361.251 116.405 360.591 115.745 360.591 114.925C360.591 114.105 361.251 113.445 362.071 113.445C362.891 113.445 363.551 114.105 363.551 114.925Z" fill="white"/>
<path d="M371.241 114.925C371.241 115.735 370.581 116.405 369.761 116.405C368.941 116.405 368.281 115.745 368.281 114.925C368.281 114.105 368.941 113.445 369.761 113.445C370.581 113.445 371.241 114.105 371.241 114.925Z" fill="white"/>
<path d="M378.931 114.925C378.931 115.735 378.271 116.405 377.451 116.405C376.631 116.405 375.971 115.745 375.971 114.925C375.971 114.105 376.631 113.445 377.451 113.445C378.271 113.445 378.931 114.105 378.931 114.925Z" fill="white"/>
<path d="M252.295 90.5752L227.388 77.1589C226.717 76.7974 225.88 77.0483 225.519 77.7193L217.571 92.4748C217.209 93.1457 217.46 93.9827 218.131 94.3441L243.037 107.76C243.708 108.122 244.545 107.871 244.907 107.2L252.855 92.4445C253.217 91.7736 252.966 90.9366 252.295 90.5752Z" fill="#407BFF"/>
<path opacity="0.7" d="M252.295 90.5752L227.388 77.1589C226.717 76.7974 225.88 77.0483 225.519 77.7193L217.571 92.4748C217.209 93.1457 217.46 93.9827 218.131 94.3441L243.037 107.76C243.708 108.122 244.545 107.871 244.907 107.2L252.855 92.4445C253.217 91.7736 252.966 90.9366 252.295 90.5752Z" fill="#0C295B"/>
<path opacity="0.2" d="M224.871 78.9348L232.661 93.4848C233.271 94.6148 234.501 95.2748 235.771 95.1448L251.981 93.5448L235.471 95.9748C233.991 96.1948 232.541 95.4148 231.911 94.0548L224.861 78.9348H224.871Z" fill="white"/>
<path d="M205.961 76.225C206.221 70.665 210.341 59.455 215.351 56.025C220.361 52.595 217.061 57.345 217.061 57.345C217.061 57.345 221.811 52.725 224.311 52.865C226.811 53.005 224.311 55.895 224.311 55.895C224.311 55.895 229.451 52.725 231.831 52.855C234.201 52.985 231.831 55.755 231.831 55.755C231.831 55.755 236.051 52.725 237.761 54.175C239.471 55.625 215.871 71.185 213.231 77.515C210.591 83.845 205.681 81.855 205.951 76.225H205.961Z" fill="#407BFF"/>
<path opacity="0.4" d="M205.961 76.225C206.221 70.665 210.341 59.455 215.351 56.025C220.361 52.595 217.061 57.345 217.061 57.345C217.061 57.345 221.811 52.725 224.311 52.865C226.811 53.005 224.311 55.895 224.311 55.895C224.311 55.895 229.451 52.725 231.831 52.855C234.201 52.985 231.831 55.755 231.831 55.755C231.831 55.755 236.051 52.725 237.761 54.175C239.471 55.625 215.871 71.185 213.231 77.515C210.591 83.845 205.681 81.855 205.951 76.225H205.961Z" fill="white"/>
<path d="M226.242 75.405L229.392 77.425C229.622 77.575 229.502 77.925 229.232 77.905L225.922 77.645L226.202 80.185C226.232 80.465 225.892 80.615 225.702 80.405L223.792 78.245L226.232 75.405H226.242Z" fill="#407BFF"/>
<path opacity="0.3" d="M226.242 75.405L229.392 77.425C229.622 77.575 229.502 77.925 229.232 77.905L225.922 77.645L226.202 80.185C226.232 80.465 225.892 80.615 225.702 80.405L223.792 78.245L226.232 75.405H226.242Z" fill="white"/>
<path d="M181.991 62.8848C181.991 62.8848 186.341 59.8548 192.941 61.8248C192.941 61.8248 194.841 70.5248 200.021 73.4248C202.871 75.0148 209.841 74.8848 215.361 73.0948C221.911 70.9748 225.121 70.9748 226.301 73.4248C227.421 75.7448 226.171 78.4348 221.161 79.6248C216.151 80.8148 212.191 89.5148 203.091 89.6448C193.991 89.7748 189.201 80.6548 191.491 72.6348C191.491 72.6348 188.721 66.6548 182.001 62.8748L181.991 62.8848Z" fill="#407BFF"/>
<path opacity="0.5" d="M181.991 62.8848C181.991 62.8848 186.341 59.8548 192.941 61.8248C192.941 61.8248 194.841 70.5248 200.021 73.4248C202.871 75.0148 209.841 74.8848 215.361 73.0948C221.911 70.9748 225.121 70.9748 226.301 73.4248C227.421 75.7448 226.171 78.4348 221.161 79.6248C216.151 80.8148 212.191 89.5148 203.091 89.6448C193.991 89.7748 189.201 80.6548 191.491 72.6348C191.491 72.6348 188.721 66.6548 182.001 62.8748L181.991 62.8848Z" fill="white"/>
<path d="M223.801 75.075C223.801 75.325 223.601 75.525 223.351 75.525C223.101 75.525 222.901 75.325 222.901 75.075C222.901 74.825 223.101 74.625 223.351 74.625C223.601 74.625 223.801 74.825 223.801 75.075Z" fill="#263238"/>
<path d="M200.981 82.405C195.611 83.875 183.671 83.415 178.861 79.705C174.051 75.995 179.591 77.665 179.591 77.665C179.591 77.665 173.731 74.575 173.091 72.155C172.441 69.735 175.971 71.2149 175.971 71.2149C175.971 71.2149 171.371 67.305 170.761 65.005C170.161 62.705 173.521 64.105 173.521 64.105C173.521 64.105 169.331 61.025 170.181 58.945C171.031 56.865 193.121 74.515 199.951 75.075C206.781 75.625 206.411 80.915 200.971 82.405H200.981Z" fill="#407BFF"/>
<path opacity="0.4" d="M200.981 82.405C195.611 83.875 183.671 83.415 178.861 79.705C174.051 75.995 179.591 77.665 179.591 77.665C179.591 77.665 173.731 74.575 173.091 72.155C172.441 69.735 175.971 71.2149 175.971 71.2149C175.971 71.2149 171.371 67.305 170.761 65.005C170.161 62.705 173.521 64.105 173.521 64.105C173.521 64.105 169.331 61.025 170.181 58.945C171.031 56.865 193.121 74.515 199.951 75.075C206.781 75.625 206.411 80.915 200.971 82.405H200.981Z" fill="white"/>
<path d="M165.781 57.7049C164.841 57.3749 163.891 57.0549 162.931 56.7649" stroke="#407BFF" stroke-width="0.75" stroke-linecap="round" stroke-linejoin="round"/>
<path d="M157.091 55.275C153.591 54.545 150.021 54.065 146.481 53.815C136.761 53.135 121.511 52.175 115.561 61.865C110.131 70.695 119.471 85.755 122.781 93.955C126.841 103.995 131.671 116.405 126.871 127.035C117.011 148.875 74.8213 137.535 60.5913 117.415" stroke="#407BFF" stroke-width="0.75" stroke-linecap="round" stroke-linejoin="round"/>
<path d="M58.9814 114.885C58.4814 114.005 58.0314 113.105 57.6514 112.195" stroke="#407BFF" stroke-width="0.75" stroke-linecap="round" stroke-linejoin="round"/>
<path d="M180.432 194.285H142.472V202.065H180.432V194.285Z" fill="white"/>
<path opacity="0.1" d="M180.432 194.285H142.472V202.065H180.432V194.285Z" fill="black"/>
<path opacity="0.1" d="M158.462 194.285H142.472V202.065H158.462V194.285Z" fill="black"/>
<path opacity="0.1" d="M142.472 195.405H176.262L142.472 196.365V195.405Z" fill="black"/>
<path opacity="0.1" d="M180.432 196.755L151.142 197.485H180.432V196.755Z" fill="black"/>
<path opacity="0.1" d="M144.021 198.935L158.461 198.335L179.691 198.935L158.461 199.265L144.021 198.935Z" fill="black"/>
<path opacity="0.1" d="M142.472 200.585H167.492L142.472 201.175V200.585Z" fill="black"/>
<path opacity="0.1" d="M180.372 201.175L163.672 201.485H180.432L180.372 201.175Z" fill="black"/>
<path d="M175.151 186.495H137.191V194.275H175.151V186.495Z" fill="white"/>
<path opacity="0.1" d="M175.151 186.495H137.191V194.275H175.151V186.495Z" fill="black"/>
<path opacity="0.1" d="M153.181 186.495H137.191V194.275H153.181V186.495Z" fill="black"/>
<path opacity="0.1" d="M137.191 187.625H170.981L137.191 188.575V187.625Z" fill="black"/>
<path opacity="0.1" d="M175.151 188.975L145.861 189.695H175.151V188.975Z" fill="black"/>
<path opacity="0.1" d="M138.731 191.145L153.171 190.555L174.401 191.145L153.171 191.475L138.731 191.145Z" fill="black"/>
<path opacity="0.1" d="M137.191 192.795H162.211L137.191 193.385V192.795Z" fill="black"/>
<path opacity="0.1" d="M175.091 193.385L158.381 193.695H175.151L175.091 193.385Z" fill="black"/>
<path d="M179.481 178.715H141.521V186.495H179.481V178.715Z" fill="white"/>
<path opacity="0.1" d="M179.481 178.715H141.521V186.495H179.481V178.715Z" fill="black"/>
<path opacity="0.1" d="M157.511 178.715H141.521V186.495H157.511V178.715Z" fill="black"/>
<path opacity="0.1" d="M141.521 179.835H175.311L141.521 180.795V179.835Z" fill="black"/>
<path opacity="0.1" d="M179.481 181.185L150.191 181.915H179.481V181.185Z" fill="black"/>
<path opacity="0.1" d="M143.071 183.365L157.511 182.765L178.741 183.365L157.511 183.695L143.071 183.365Z" fill="black"/>
<path opacity="0.1" d="M141.521 185.015H166.541L141.521 185.605V185.015Z" fill="black"/>
<path opacity="0.1" d="M179.432 185.605L162.722 185.915H179.482L179.432 185.605Z" fill="black"/>
<path d="M204.771 201.905L205.751 198.175H246.301L264.981 200.045L265.691 201.905H204.771Z" fill="#263238"/>
<path opacity="0.4" d="M246.301 198.175V201.905H204.771L205.751 198.175H246.301Z" fill="black"/>
<path d="M238.161 180.325C238.341 182.295 236.902 183.895 234.942 183.895H172.822C170.852 183.895 169.112 182.295 168.932 180.325L165.242 140.555C165.202 140.145 165.232 139.755 165.322 139.395C165.672 137.995 166.902 136.985 168.462 136.985H230.582C232.552 136.985 234.292 138.585 234.472 140.555L238.161 180.325Z" fill="#263238"/>
<path opacity="0.4" d="M234.722 183.895H172.822C170.852 183.895 169.112 182.295 168.932 180.325L165.242 140.555C165.202 140.145 165.232 139.755 165.322 139.395H227.222C229.182 139.395 230.922 140.995 231.112 142.965L234.801 182.735C234.841 183.145 234.802 183.535 234.722 183.895Z" fill="black"/>
<path d="M192.042 159.495H204.892L201.472 196.295L221.792 199.345V201.905H178.992V199.345L187.762 196.295L192.042 159.495Z" fill="#263238"/>
<path opacity="0.1" d="M204.892 159.495L195.372 201.325L187.762 201.095L192.042 159.495H204.892Z" fill="white"/>
<path d="M204.832 362.315H198.712L187.702 209.065H195.832L204.832 362.315Z" fill="#263238"/>
<path opacity="0.4" d="M204.842 362.315H198.712L188.242 216.675L187.702 209.315H195.832L196.272 216.675L204.842 362.315Z" fill="white"/>
<path opacity="0.2" d="M196.272 216.315H188.242L187.702 209.315H195.832L196.272 216.315Z" fill="black"/>
<path d="M249.791 362.315H243.671L242.671 209.065H250.791L249.791 362.315Z" fill="#263238"/>
<path opacity="0.5" d="M250.801 209.315L250.641 234.035L249.801 362.315H243.671L242.831 234.035L242.671 209.315H250.801Z" fill="white"/>
<path opacity="0.2" d="M250.801 209.315L250.641 234.315H242.831L242.671 209.315H250.801Z" fill="black"/>
<path d="M314.832 362.315H308.712L297.702 209.065H305.832L314.832 362.315Z" fill="#263238"/>
<path opacity="0.5" d="M314.842 362.315H308.712L298.242 216.675L297.702 209.315H305.832L306.272 216.675L314.842 362.315Z" fill="white"/>
<path opacity="0.2" d="M306.272 216.315H298.242L297.702 209.315H305.832L306.272 216.315Z" fill="black"/>
<path d="M134.751 362.315H128.631L137.631 209.065H145.761L134.751 362.315Z" fill="#263238"/>
<path opacity="0.5" d="M145.761 209.315L145.221 216.675L134.751 362.315H128.631L137.191 216.675L137.631 209.315H145.761Z" fill="white"/>
<path opacity="0.2" d="M137.631 209.315H145.761L145.221 216.315H137.191L137.631 209.315Z" fill="black"/>
<path d="M131.191 205.225H312.271V210.735C312.271 211.925 311.301 212.895 310.111 212.895H133.351C132.161 212.895 131.191 211.925 131.191 210.735V205.225Z" fill="#407BFF"/>
<path opacity="0.6" d="M131.191 205.225H312.271V210.735C312.271 211.925 311.301 212.895 310.111 212.895H133.351C132.161 212.895 131.191 211.925 131.191 210.735V205.225Z" fill="white"/>
<path opacity="0.2" d="M312.271 205.225H131.191V209.065H312.271V205.225Z" fill="black"/>
<path d="M316.071 206.235H127.391C126.201 206.235 125.231 205.265 125.231 204.075C125.231 202.885 126.201 201.915 127.391 201.915H316.071C317.261 201.915 318.231 202.885 318.231 204.075C318.231 205.265 317.261 206.235 316.071 206.235Z" fill="#407BFF"/>
<path opacity="0.6" d="M316.071 206.235H127.391C126.201 206.235 125.231 205.265 125.231 204.075C125.231 202.885 126.201 201.915 127.391 201.915H316.071C317.261 201.915 318.231 202.885 318.231 204.075C318.231 205.265 317.261 206.235 316.071 206.235Z" fill="white"/>
<path d="M271.431 195.245L273.751 191.765C274.211 191.075 274.991 190.655 275.831 190.655H278.771C279.021 190.655 279.261 190.695 279.491 190.765L289.981 193.945C290.581 194.125 291.081 194.525 291.401 195.055L292.901 197.585L271.421 195.245H271.431Z" fill="#407BFF"/>
<path opacity="0.2" d="M292.912 197.585L277.642 195.925L271.432 195.245L273.752 191.765C274.212 191.075 274.992 190.655 275.832 190.655H278.772C279.022 190.655 279.262 190.695 279.502 190.765L279.732 190.835L289.982 193.945C290.582 194.125 291.092 194.515 291.412 195.055L292.912 197.585Z" fill="black"/>
<path opacity="0.2" d="M292.912 197.585L277.642 195.925L279.732 190.835L289.982 193.945C290.582 194.125 291.092 194.515 291.412 195.055L292.912 197.585Z" fill="black"/>
<path d="M300.171 201.575V201.905H267.751L268.951 197.215C269.421 195.455 271.021 194.225 272.841 194.225H287.221C287.701 194.225 288.171 194.305 288.621 194.475L290.421 195.145L297.561 197.805C299.131 198.395 300.171 199.895 300.171 201.575Z" fill="#407BFF"/>
<path opacity="0.2" d="M300.171 201.575V201.905H286.861L287.571 196.835C287.761 195.495 289.151 194.675 290.421 195.145L297.561 197.805C299.131 198.395 300.171 199.895 300.171 201.575Z" fill="black"/>
<path d="M288.932 198.455L293.162 185.745C293.342 185.195 293.972 184.945 294.492 185.205C294.882 185.405 295.082 185.855 294.972 186.285L291.402 199.855C291.402 199.855 289.032 200.815 288.932 198.455Z" fill="#263238"/>
<path opacity="0.2" d="M271.431 200.855H269.551L269.911 199.005H271.791L271.431 200.855Z" fill="black"/>
<path opacity="0.2" d="M274.232 200.775H272.352L272.712 198.935H274.592L274.232 200.775Z" fill="black"/>
</g>
<defs>
<clipPath id="clip0_161_933">
<rect width="500" height="372.61" fill="white" transform="translate(0.621582 0.195068)"/>
</clipPath>
</defs>
</svg>
