<svg width="3800" height="3186" viewBox="0 0 3800 3186" fill="none" xmlns="http://www.w3.org/2000/svg">
<path d="M401.705 1985.39C255.273 2206.16 213.738 2406.78 224.647 2572.68C244.355 2872.41 570.207 2996.63 870.516 2996.63H2877.9C3046.73 2996.63 3195.2 2868.9 3259.08 2712.59C3401.09 2365.17 3652.94 1922.34 3489.19 1498.5C3276.25 947.408 2962.19 1049.06 2562.94 572.878C2163.7 96.6904 1679.29 85.9891 1088.41 471.22C497.527 856.451 806.271 1375.44 401.705 1985.39Z" fill="#FFE9E7"/>
<path d="M1573.15 359.128C1573.15 269.346 1645.68 196.562 1735.15 196.562H2945.48C3034.96 196.562 3107.49 269.346 3107.49 359.128V2824.5C3107.49 2914.28 3034.96 2987.07 2945.48 2987.07H1735.15C1645.68 2987.07 1573.15 2914.28 1573.15 2824.5V359.128Z" fill="white"/>
<path fill-rule="evenodd" clip-rule="evenodd" d="M1563.61 359.128C1563.61 264.065 1640.42 187 1735.15 187H2945.49C3040.22 187 3117.03 264.065 3117.03 359.128V2824.5C3117.03 2919.56 3040.22 2996.63 2945.49 2996.63H1735.15C1640.42 2996.63 1563.61 2919.56 1563.61 2824.5V359.128ZM1735.15 206.126C1650.94 206.126 1582.67 274.627 1582.67 359.128V2824.5C1582.67 2908.99 1650.94 2977.5 1735.15 2977.5H2945.49C3029.7 2977.5 3097.96 2908.99 3097.96 2824.5V359.128C3097.96 274.627 3029.7 206.126 2945.49 206.126H1735.15Z" fill="#0E2B5C"/>
<path d="M2026.1 2516.75C2026.1 2490.34 2047.44 2468.94 2073.75 2468.94H2621.02C2647.35 2468.94 2668.67 2490.34 2668.67 2516.75V2558.53C2668.67 2584.94 2647.35 2606.34 2621.02 2606.34H2073.75C2047.44 2606.34 2026.1 2584.94 2026.1 2558.53V2516.75Z" fill="#FFE9E7"/>
<path d="M2024.54 270.02L1985.5 196.561H2695.14L2647.69 275.899C2623.58 316.223 2580.15 340.896 2533.29 340.896H2142.27C2093 340.896 2047.74 313.646 2024.54 270.02Z" fill="#0E2B5C"/>
<path d="M3069.14 254.295H1611.51C1661.37 204.259 1708.99 194.957 1726.58 196.561H2954.05C3015.43 196.561 3056.35 235.051 3069.14 254.295ZM3069.14 2929.32H1611.51C1661.37 2979.36 1708.99 2988.66 1726.58 2987.05H2954.05C3015.43 2987.05 3056.35 2948.56 3069.14 2929.32Z" fill="#0E2B5C"/>
<path fill-rule="evenodd" clip-rule="evenodd" d="M2515.93 945.853H1847.03V926.728H2515.93V945.853ZM2837.22 776.734H1847.03V757.609H2837.22V776.734Z" fill="#FFE9E7"/>
<path d="M2184.12 2167.94C2184.12 2141.54 2205.45 2120.12 2231.76 2120.12H2273.41C2299.72 2120.12 2321.06 2141.54 2321.06 2167.94V2209.73C2321.06 2236.13 2299.72 2257.53 2273.41 2257.53H2231.76C2205.45 2257.53 2184.12 2236.13 2184.12 2209.73V2167.94Z" fill="#FC5546"/>
<path fill-rule="evenodd" clip-rule="evenodd" d="M2427.4 2167.94C2427.4 2136.25 2453 2110.56 2484.59 2110.56H2526.22C2557.81 2110.56 2583.4 2136.25 2583.4 2167.94V2209.73C2583.4 2241.41 2557.81 2267.09 2526.22 2267.09H2484.59C2453 2267.09 2427.4 2241.41 2427.4 2209.73V2167.94ZM2484.59 2129.69C2463.52 2129.69 2446.46 2146.81 2446.46 2167.94V2209.73C2446.46 2230.84 2463.52 2247.97 2484.59 2247.97H2526.22C2547.28 2247.97 2564.34 2230.84 2564.34 2209.73V2167.94C2564.34 2146.81 2547.28 2129.69 2526.22 2129.69H2484.59Z" fill="#FFE9E7"/>
<path d="M2658.15 1876.9V1195.51C2658.15 1169.1 2636.81 1147.7 2610.49 1147.7H2153.39C2140.74 1147.7 2128.62 1152.73 2119.69 1161.7L2029.52 1252.17C2020.59 1261.14 2015.57 1273.3 2015.57 1285.98V1876.9C2015.57 1903.31 2036.9 1924.71 2063.23 1924.71H2610.49C2636.81 1924.71 2658.15 1903.31 2658.15 1876.9Z" fill="white"/>
<path fill-rule="evenodd" clip-rule="evenodd" d="M2112.95 1154.93C2123.68 1144.17 2138.22 1138.13 2153.39 1138.13H2610.49C2642.07 1138.13 2667.67 1163.82 2667.67 1195.51V1876.9C2667.67 1908.59 2642.07 1934.27 2610.49 1934.27H2063.22C2031.64 1934.27 2006.04 1908.59 2006.04 1876.9V1285.98C2006.04 1270.76 2012.06 1256.17 2022.79 1245.41L2112.95 1154.93ZM2153.39 1157.26C2143.28 1157.26 2133.57 1161.28 2126.43 1168.45L2036.27 1258.93C2029.11 1266.1 2025.1 1275.83 2025.1 1285.98V1876.9C2025.1 1898.02 2042.16 1915.15 2063.22 1915.15H2610.49C2631.55 1915.15 2648.61 1898.02 2648.61 1876.9V1195.51C2648.61 1174.38 2631.55 1157.26 2610.49 1157.26H2153.39Z" fill="#FC5546"/>
<path d="M2018.32 1266.18L2136.4 1147.7V1237.49C2136.4 1253.33 2123.6 1266.18 2107.81 1266.18H2018.32Z" fill="#FC5546"/>
<path fill-rule="evenodd" clip-rule="evenodd" d="M2292.93 1308.8H2150.13V1289.67H2292.93V1308.8ZM2512.61 1441.06H2150.13V1421.93H2512.61V1441.06ZM2512.61 1554.04H2150.13V1534.91H2512.61V1554.04ZM2512.61 1669.76H2150.13V1650.63H2512.61V1669.76ZM2446.7 1777.22H2150.13V1758.1H2446.7V1777.22Z" fill="#FC5546"/>
<path d="M1674.52 2642.66L1715.22 2996.63H606.555L642.154 2642.66H1674.52Z" fill="#0E2B5C"/>
<path d="M1043.92 1101.33L1028.66 1233.59L1033.75 1335.33L1221.91 1355.67L1303.28 1253.93L1288.03 1101.33C1319.03 1083.61 1342.33 1035.01 1347.82 958.897C1358.4 955.507 1379.57 939.568 1379.57 902.942C1379.57 866.317 1356.37 853.768 1344.77 852.073C1328.26 728.595 1264.22 684.205 1155.8 684.205C1051.86 684.205 995.501 752.207 978.398 852.073C966.333 850.378 942.205 858.177 942.205 902.942C942.205 947.707 963.88 958.897 974.717 958.897C984.659 1045.13 1028.91 1089.32 1043.92 1101.33Z" fill="#EF9D96"/>
<path d="M947.293 765.597C939.157 814.432 947.294 882.596 967.635 908.029L1008.32 821.552C1020.53 829.691 1077.82 831.726 1099.86 831.726C1185.3 827.656 1247.34 779.161 1267.69 755.423C1271.75 792.049 1327.02 889.378 1349.06 933.464C1376.18 892.769 1393.81 785.944 1369.4 684.207C1344.98 582.468 1277.86 577.382 1237.17 587.556C1125.29 501.078 998.149 511.252 937.122 597.729C888.301 666.912 916.78 738.467 947.293 765.597Z" fill="#0E2B5C"/>
<path d="M714.088 2750.22C687.63 2725.24 675.198 2703.06 672.289 2695.1C639.618 2715.34 563.885 2729.31 540.444 2764.74C511.142 2809.03 571.528 2940.98 594.403 2953.2C617.277 2965.43 703.532 2943.65 725.485 2923.7C743.048 2907.75 727.534 2864.09 716.847 2846.71C728.391 2837.79 761.196 2833.52 759.286 2811.7C756.896 2784.4 747.158 2781.47 714.088 2750.22Z" fill="#EF9D96"/>
<path fill-rule="evenodd" clip-rule="evenodd" d="M672.505 1310.01C669.192 1311.44 665.855 1313.1 662.495 1314.98C398.044 1477.76 240.391 2016.97 245.477 2139.06C250.562 2261.14 448.9 2790.18 499.755 2795.26C542.265 2799.51 670.05 2757.57 710.852 2716.95C839.461 2749.48 1040.24 2749.48 1186.31 2749.48C1435.5 2749.48 1679.61 2729.13 1720.3 2663C1733.96 2640.82 1718.6 2562.97 1705.04 2515.49C1735.55 2573.14 1834.22 2667.08 1984.74 2581.62C2172.91 2474.79 2086.45 2149.23 1928.81 1665.98C1802.68 1279.37 1476.19 1189.51 1328.71 1192.9C1328.71 1226.8 1297.18 1294.64 1171.05 1294.64C1044.93 1294.64 1016.79 1226.8 1013.4 1192.9C952.373 1194.59 798.788 1220.36 672.666 1309.89C672.613 1309.93 672.559 1309.98 672.505 1310.01Z" fill="#FC5546"/>
<path d="M893.175 1407.95C893.226 1390.31 907.557 1376.07 925.186 1376.12L1368.01 1377.39C1385.64 1377.44 1399.88 1391.78 1399.83 1409.41L1398.1 2012.56C1398.05 2030.2 1383.71 2044.45 1366.09 2044.4L923.265 2043.12C905.636 2043.07 891.386 2028.74 891.438 2011.1L893.175 1407.95Z" fill="white"/>
<path fill-rule="evenodd" clip-rule="evenodd" d="M882.536 1407.91C882.603 1384.41 901.713 1365.4 925.217 1365.47L1368.05 1366.75C1391.55 1366.82 1410.55 1385.93 1410.48 1409.44L1408.74 2012.6C1408.67 2036.11 1389.56 2055.11 1366.06 2055.04L923.235 2053.77C899.73 2053.7 880.731 2034.58 880.799 2011.07L882.536 1407.91ZM925.155 1386.75C913.403 1386.73 903.849 1396.23 903.815 1407.99L902.078 2011.13C902.045 2022.89 911.545 2032.45 923.297 2032.49L1366.12 2033.76C1377.87 2033.78 1387.43 2024.29 1387.46 2012.53L1389.2 1409.38C1389.23 1397.62 1379.74 1388.06 1367.97 1388.04L925.155 1386.75Z" fill="#0E2B5C"/>
<path d="M1705.04 2520.57L1435.5 2047.49C1455.85 2220.45 1618.59 2510.4 1725.39 2627.4C1725.39 2602.98 1710.12 2537.53 1705.04 2520.57ZM1867.78 2083.1C1792.7 2013 1633.85 1873.92 1590.09 1869.56C1589.41 1869.54 1588.74 1869.5 1588.08 1869.46C1588.72 1869.46 1589.39 1869.49 1590.09 1869.56C1610.06 1869.97 1633.84 1851.53 1633.84 1772.8C1684.7 1910.15 1832.18 1976.28 1867.78 2083.1Z" fill="#0E2B5C"/>
<path d="M1440.59 1991.53L1572.81 1888.33C1556.62 1874.12 1519.36 1828.63 1499.92 1760.39C1480.47 1692.17 1430.24 1665.62 1407.56 1660.89V1727.23C1389.74 1711.44 1347.29 1683.63 1320.07 1698.8C1286.05 1717.75 1300.63 1869.38 1305.49 1888.33C1310.35 1907.29 1373.54 1935.72 1397.84 1940.46C1417.28 1944.25 1425.34 1966.11 1440.59 1991.53Z" fill="#EF9D96"/>
<path d="M291.247 2332.36C372.616 2173.64 331.932 1954.23 301.418 1864.37C286.162 1922.02 253.614 2051.57 245.476 2108.54C237.34 2165.51 272.6 2281.49 291.247 2332.36ZM1699.96 2505.32C1822.01 2415.79 2008.48 2423.92 2086.47 2439.19C2077.99 2476.49 2055.95 2562.05 1938.98 2607.05C1806.75 2657.92 1728.78 2557.88 1699.96 2505.32ZM662.498 2200.1C666.566 2122.78 715.049 1937.28 738.781 1854.19C703.183 1945.75 611.642 2098.37 611.642 2200.1C611.642 2281.49 686.23 2559.57 723.525 2688.44C701.487 2557.88 658.429 2277.42 662.498 2200.1ZM1159.68 1148.16C1094.59 1148.16 1054.58 1115.95 1042.72 1102.38L1037.63 1153.24C1151.55 1218.36 1254.62 1180.38 1291.91 1153.24L1286.82 1102.38C1271.57 1115.95 1224.78 1148.16 1159.68 1148.16Z" fill="#0E2B5C"/>
<path d="M2681.45 2152.4C2667.91 2473.23 2867.74 2824.5 2981.16 2975.97C2987.08 2983.87 2996.38 2988.35 3006.25 2988.35H3090.58C3109.71 2988.35 3124.52 2971.33 3122.01 2952.37C3046.87 2386.39 2838.65 2174.94 2716.71 2127.43C2699.4 2120.69 2682.22 2133.83 2681.45 2152.4Z" fill="white"/>
<path fill-rule="evenodd" clip-rule="evenodd" d="M2712.84 2137.36C2703.44 2133.69 2692.6 2140.33 2692.08 2152.84C2685.4 2311.07 2731.37 2477.42 2793.48 2623.52C2855.57 2769.54 2933.45 2894.47 2989.68 2969.58C2993.52 2974.7 2999.61 2977.72 3006.25 2977.72H3090.58C3103.23 2977.72 3113.14 2966.4 3111.46 2953.77C3036.53 2389.28 2829.39 2182.75 2712.84 2137.36ZM2670.82 2151.94C2671.85 2127.32 2695.35 2107.69 2720.57 2117.52C2847.9 2167.13 3057.23 2383.52 3132.56 2950.97C3135.92 2976.28 3116.19 2999 3090.58 2999H3006.25C2993.15 2999 2980.65 2993.03 2972.65 2982.34C2915.47 2905.98 2836.71 2779.55 2773.91 2631.86C2711.14 2484.25 2663.96 2314.56 2670.82 2151.94Z" fill="#0E2B5C"/>
<path d="M3319.89 1961.08C3057.42 2195.74 3004.85 2745.7 3005.63 2961.64C3005.69 2978.87 3019.82 2992.23 3037.05 2992.23H3115.12C3126.93 2992.23 3137.91 2985.49 3143.38 2975.01C3406.08 2471.27 3379.05 2158.46 3369.54 1984.06C3368.13 1958.45 3339.02 1943.97 3319.89 1961.08Z" fill="#0E2B5C"/>
<path d="M3527.13 2452.04C3320.19 2550.95 3157.11 2795.45 3081.77 2943.97C3071.31 2964.6 3086.63 2988.35 3109.76 2988.35H3202.58C3208.74 2988.35 3214.81 2986.56 3219.94 2983.16C3445.42 2833.5 3538.84 2611.12 3565.62 2482.16C3570.36 2459.31 3548.17 2441.98 3527.13 2452.04Z" fill="white"/>
<path fill-rule="evenodd" clip-rule="evenodd" d="M3555.21 2479.99C3558.15 2465.82 3544.86 2455.36 3531.72 2461.64C3430.2 2510.18 3338.85 2594.74 3263.3 2686.18C3187.83 2777.53 3128.63 2875.1 3091.26 2948.78C3084.58 2961.95 3094.14 2977.72 3109.76 2977.72H3202.58C3206.69 2977.72 3210.71 2976.5 3214.06 2974.29C3436.61 2826.58 3528.82 2607 3555.21 2479.99ZM3522.55 2442.44C3551.49 2428.6 3582.59 2452.81 3576.04 2484.32C3548.85 2615.25 3454.22 2840.43 3225.82 2992.02C3218.91 2996.61 3210.78 2999 3202.58 2999H3109.76C3079.13 2999 3058.03 2967.24 3072.28 2939.15C3110.25 2864.31 3170.27 2765.38 3246.89 2672.63C3323.46 2579.96 3417.13 2492.83 3522.55 2442.44Z" fill="#0E2B5C"/>
<path fill-rule="evenodd" clip-rule="evenodd" d="M2793.29 2251.6C2836.82 2310.69 2877.82 2391.6 2914.6 2479.14C2939.51 2538.43 2962.56 2601 2983.2 2662.28L3003.75 2596.65L3024.05 2603L2994.67 2696.89C3013.54 2754.91 3030.14 2811.02 3043.95 2861.2C3056.71 2907.56 3067.11 2948.9 3074.77 2982.08L3054.03 2986.86C3046.72 2955.16 3036.85 2915.83 3024.75 2871.68L2951.28 2838.76L2959.99 2819.34L3017.36 2845.04C3004.64 2799.97 2989.88 2750.82 2973.38 2700.25C2950.88 2631.29 2925.16 2559.76 2897.1 2492.45L2797.95 2470.34L2802.58 2449.56L2886.87 2468.36C2852.55 2388.94 2815.14 2317.13 2776.16 2264.22L2793.29 2251.6Z" fill="#0E2B5C"/>
<path fill-rule="evenodd" clip-rule="evenodd" d="M3237.21 2324.31C3252.59 2269.13 3267.25 2219.19 3280.42 2177.95C3295.71 2130.08 3308.78 2094.73 3318.51 2076.41L3299.72 2066.43C3288.97 2086.66 3275.39 2123.76 3260.14 2171.47C3244.82 2219.47 3227.56 2278.99 3209.51 2344.61C3196.92 2390.39 3183.95 2439.19 3170.96 2489.15L3140.23 2416.93L3120.64 2425.26L3162.22 2522.96C3146.53 2583.94 3130.94 2646.05 3116.17 2706.06C3090.58 2809.96 3067.4 2907.56 3050.15 2982.06L3070.88 2986.87C3087.85 2913.55 3110.58 2817.83 3135.7 2715.76L3240.33 2659.71L3230.28 2640.95L3142.56 2687.94C3155.88 2634.11 3169.77 2578.96 3183.72 2524.77C3198.9 2465.84 3214.17 2408.04 3228.91 2354.32L3314.66 2301.96L3303.56 2283.8L3237.21 2324.31Z" fill="white"/>
<path fill-rule="evenodd" clip-rule="evenodd" d="M3404.03 2627.48C3429.88 2600.59 3455.16 2576.74 3478.92 2557.61L3465.58 2541.02C3434.3 2566.21 3400.93 2598.92 3367.42 2635.36C3345.7 2658.97 3323.88 2684.21 3302.44 2710.09L3307.97 2675.32L3286.96 2671.98L3275.68 2743.02C3247.46 2778.31 3220.37 2814.02 3195.65 2847.77C3157.06 2900.48 3124.26 2948.45 3102.09 2982.55L3119.93 2994.15C3141.26 2961.33 3172.65 2915.39 3209.64 2864.7H3285.74V2843.42H3225.3C3246.92 2814.27 3270.1 2784.01 3294.05 2754.12C3322.28 2718.89 3351.54 2684.23 3380.55 2652.52L3454.41 2641.44L3451.26 2620.38L3404.03 2627.48Z" fill="#0E2B5C"/>
</svg>
