<svg width="399" height="371" viewBox="0 0 399 371" fill="none" xmlns="http://www.w3.org/2000/svg">
<path d="M242.299 157.351C242.299 157.351 222.485 197.766 202.356 225.662C194.347 236.767 186.29 245.884 179.411 249.689C172.679 253.411 166.98 259.192 162.264 265.6C150.049 282.191 144.413 302.962 144.413 302.962L92.9434 223.573C92.9434 223.573 94.6996 145.972 100.88 132.991C109.886 114.073 114.237 75.8528 117.697 68.2441C120.264 62.5999 127.595 33.4419 128.298 31.2982C128.603 30.3761 131.042 28.9603 134.21 28.9624C136.752 28.9624 141.068 31.4669 142.156 36.6153C147.66 62.6316 141.035 79.7943 141.11 80.556C143.051 100.552 137.215 115.396 141.308 119.325C141.46 119.471 141.743 119.403 142.143 119.141C149.239 114.497 193.277 49.039 198.702 47.6253C204.43 46.1356 242.299 157.351 242.299 157.351Z" fill="#FFDAC0"/>
<path d="M159.897 287.251C159.897 287.251 159.196 322.528 157.189 370.043H27.3623C57.0384 305.523 82.838 251.221 82.838 251.221C82.838 251.221 156.76 253.523 159.897 287.251Z" fill="#FC5546"/>
<path d="M287.299 20.573L271.359 44.3948L255.72 67.7735C254.766 68.9467 253.663 69.3539 252.468 69.2379C248.714 68.8749 244.072 63.3552 240.453 60.2999L240.086 59.9919C235.314 55.9681 234.639 48.695 238.586 43.8314L262.491 14.3696V14.3675L269.582 5.63C273.53 0.764359 280.664 0.0764923 285.432 4.10236L285.801 4.41042C290.573 8.43417 291.246 15.7073 287.299 20.573Z" fill="#F4C4A2"/>
<path d="M271.36 44.3948L255.72 67.7735C254.766 68.9467 253.663 69.3539 252.469 69.2379L262.492 14.3696C262.514 14.6776 264.218 39.2949 271.36 44.3948Z" fill="#FFDAC0"/>
<path d="M202.356 225.662C194.347 236.767 186.29 245.885 179.411 249.689C172.679 253.411 166.979 259.192 162.263 265.6C156.838 263.022 150.655 259.998 144.611 257.002C137.251 253.356 136.969 242.701 144.178 238.753C144.248 238.715 144.317 238.675 144.385 238.635C151.14 234.695 158.062 220.78 158.062 220.78L202.356 225.662Z" fill="#F4C4A2"/>
<path d="M127.939 32.5052L123.769 49.6721C123.769 49.6721 127.414 51.1913 129.755 50.0118C132.097 48.8302 134.007 33.4294 127.939 32.5052Z" fill="#FFC197"/>
<path d="M247.868 233.773H158.194C149.373 233.773 142.156 226.416 142.156 217.423V16.4629C142.156 7.47011 149.373 0.110458 158.194 0.110458H247.868C256.689 0.110458 263.905 7.47011 263.905 16.4629V217.423C263.905 226.416 256.689 233.773 247.868 233.773Z" fill="#0E2B5C"/>
<path d="M257.872 18.0095V214.313C257.872 220.972 252.566 226.42 246.084 226.42H159.978C153.496 226.42 148.191 220.972 148.191 214.313V18.0095C148.191 11.3504 153.496 5.9024 159.978 5.9024H246.084C252.566 5.9024 257.872 11.3504 257.872 18.0095Z" fill="#C0D8FB"/>
<path d="M246.084 5.9024L161.043 226.42H159.978C153.496 226.42 148.191 220.972 148.191 214.313V18.0095C148.191 11.3504 153.496 5.9024 159.978 5.9024H246.084Z" fill="#CBE1FD"/>
<path d="M221.026 13.2029H185.038C182.106 13.2029 179.709 10.7574 179.709 7.76965V6.9151C179.709 3.92524 182.106 1.48187 185.038 1.48187H221.026C223.956 1.48187 226.355 3.92524 226.355 6.9151V7.76965C226.355 10.7574 223.956 13.2029 221.026 13.2029Z" fill="#0E2B5C"/>
<path d="M279.364 110.535L276.988 111.455L261.005 117.648C260.631 117.793 260.25 117.918 259.871 118.015C254.579 119.416 248.948 116.54 246.963 111.216L246.729 110.59C244.602 104.884 247.441 98.4403 253.037 96.2712L267.938 90.5004L269.021 90.0784L271.399 89.1585C276.995 86.9894 283.313 89.8843 285.438 95.5918L285.674 96.2164C287.8 101.924 284.962 108.366 279.364 110.535Z" fill="#FFDAC0"/>
<path d="M266.384 110.908C263.719 111.94 258.888 113.767 256.306 114.147C255.575 114.252 254.228 113.847 252.971 112.444C252.218 111.604 251.498 110.408 250.962 108.75C250.712 107.969 250.505 107.19 250.416 106.391C250.316 105.452 250.343 104.513 250.505 103.584C250.649 102.747 251.21 101.985 252.028 101.582C252.032 101.58 252.038 101.58 252.04 101.576C254.786 100.238 258.489 98.609 261.734 97.7017C263.977 97.0687 266.248 98.0794 266.958 100.082L267.293 101.017L269.009 105.806C269.718 107.796 268.564 110.07 266.384 110.908Z" fill="#FFD3B6"/>
<path d="M266.384 110.908C263.719 111.94 258.888 113.767 256.305 114.147C255.575 114.252 254.228 113.847 252.971 112.444C252.839 112.126 252.715 111.79 252.599 111.429C252.346 110.649 252.139 109.872 252.052 109.07C251.953 108.131 251.98 107.195 252.139 106.264C252.286 105.429 252.847 104.665 253.665 104.264C253.667 104.26 253.673 104.26 253.677 104.257C256.423 102.92 260.124 101.291 263.371 100.381C264.807 99.9763 266.254 100.244 267.293 101.017L269.008 105.806C269.718 107.796 268.563 110.07 266.384 110.908Z" fill="#FFC197"/>
<path d="M272.113 133.445L259.787 136.866C256.041 137.906 252.144 135.631 251.123 131.814L250.743 130.39C249.724 126.573 251.953 122.598 255.699 121.558L268.026 118.137C271.769 117.097 275.669 119.372 276.689 123.191L277.068 124.613C278.088 128.43 275.857 132.405 272.113 133.445Z" fill="#FFDAC0"/>
<path d="M265.446 132.829C263.182 133.445 259.091 134.532 256.945 134.65C256.164 134.696 254.602 134.023 253.584 131.932C253.331 131.426 253.118 130.839 252.953 130.16C252.804 129.542 252.688 128.932 252.677 128.311C252.663 127.584 252.754 126.864 252.953 126.161C253.131 125.528 253.648 124.98 254.345 124.727C254.352 124.722 254.354 124.722 254.358 124.72C256.707 123.874 259.861 122.863 262.59 122.378C264.474 122.043 266.262 122.965 266.703 124.551L267.021 125.682L267.971 129.082C268.41 130.654 267.297 132.327 265.446 132.829Z" fill="#FFD3B6"/>
<path d="M265.447 132.829C263.183 133.445 259.091 134.532 256.945 134.65C256.165 134.696 254.602 134.023 253.584 131.932C253.445 131.356 253.346 130.782 253.334 130.198C253.319 129.472 253.41 128.75 253.609 128.048C253.787 127.417 254.304 126.864 255.004 126.611C255.008 126.609 255.012 126.609 255.014 126.607C257.363 125.76 260.519 124.75 263.247 124.267C264.807 123.988 266.303 124.575 267.022 125.682L267.972 129.082C268.41 130.654 267.297 132.327 265.447 132.829Z" fill="#FFC197"/>
<path d="M70.1992 277.986C70.1992 277.986 95.5692 302.759 112.672 312.324L125.621 302.96V316.774C125.621 316.774 151.087 321.365 159.12 316.774V279.104L87.5918 242.546L70.1992 277.986Z" fill="#D03A2C"/>
<path d="M164.523 313.776C154.67 315.837 133.433 307.946 133.433 307.946L136.858 274.215L112.861 302.234C100.648 297.6 81.5482 285.51 70.1998 277.986C64.5499 274.239 60.8203 271.624 60.8203 271.624C76.8344 245.351 92.9433 220.778 92.9433 220.778C97.6714 230.422 108.862 238.795 120.993 245.494C141.152 256.626 163.907 263.129 163.907 263.129C163.9 283.177 164.523 313.776 164.523 313.776Z" fill="#DCEAFF"/>
<path d="M278.976 86.4513C278.889 86.4829 278.8 86.5146 278.711 86.5441L262.551 90.7725C255.447 92.6336 248.098 88.7153 246.223 82.0625L245.262 78.6549C243.46 72.27 247.332 65.5919 253.936 63.427L259.271 62.0302L270.095 59.1965C277.2 57.3355 284.547 61.2558 286.422 67.9065L287.384 71.3142C289.16 77.6146 285.414 84.1936 278.976 86.4513Z" fill="#FFDAC0"/>
<path d="M271.57 81.8515L263.721 85.4596C263.708 85.4617 263.694 85.466 263.671 85.4702C263.356 85.5567 263.038 85.6221 262.721 85.6706C262.591 85.6917 262.456 85.7065 262.324 85.7213C262.268 85.7276 262.214 85.7276 262.158 85.7234C261.293 85.6938 260.699 84.7591 261.074 83.9257C261.817 82.2778 262.017 80.3724 261.519 78.4988L261.33 77.8004C261.33 77.7961 261.328 77.7856 261.324 77.7793L260.718 75.5068C260.235 73.6964 259.209 72.1814 257.872 71.0842C257.711 70.9513 257.545 70.8247 257.375 70.7066C255.823 69.6094 256.218 67.128 258.035 66.6132C258.052 66.6068 258.067 66.6047 258.085 66.5984L266.701 65.2712C268.83 64.6804 270.881 66.3515 271.463 68.5227L272.154 71.1117L273.628 76.6314C274.205 78.8047 273.7 81.2629 271.57 81.8515Z" fill="#FFD3B6"/>
<path d="M271.571 81.8516L263.721 85.4596C263.708 85.4617 263.694 85.466 263.671 85.4702C263.487 85.5061 262.911 85.6052 262.158 85.7234C261.293 85.6938 260.699 84.7591 261.074 83.9257C261.817 82.2778 262.017 80.3724 261.519 78.4988L261.33 77.8004C261.33 77.7961 261.328 77.7856 261.324 77.7793L260.718 75.5068C260.236 73.6964 259.209 72.1814 257.872 71.0842C258.149 70.6707 258.563 70.3436 259.108 70.1875C259.122 70.1812 259.139 70.1791 259.157 70.1727L267.773 68.8434C269.567 68.3476 271.301 69.4553 272.154 71.1117L273.628 76.6314C274.205 78.8047 273.7 81.2629 271.571 81.8516Z" fill="#FFC197"/>
<path d="M142.156 172.145C142.156 172.145 138.63 140.771 135.378 134.654C132.125 128.535 129.373 116.282 134.377 107.18C139.381 98.0732 141.11 80.556 141.11 80.556C143.051 100.552 137.214 115.396 141.307 119.325C141.46 119.471 141.743 119.403 142.143 119.141L142.156 172.145Z" fill="#F4C4A2"/>
<path d="M98.467 121.045H220.894C225.144 121.045 228.59 117.532 228.59 113.2V63.2098C228.59 58.8758 225.144 55.3627 220.894 55.3627H98.467C94.2169 55.3627 90.7715 58.8758 90.7715 63.2098V113.2C90.7715 117.532 94.2169 121.045 98.467 121.045Z" fill="#699DEE"/>
<path d="M221.752 47.0452H173.831C170.276 47.0452 167.395 44.106 167.395 40.481V31.216C167.395 27.591 170.276 24.6539 173.831 24.6539H221.752C225.307 24.6539 228.188 27.591 228.188 31.216V40.481C228.188 44.106 225.307 47.0452 221.752 47.0452Z" fill="#9ABFF6"/>
<path d="M219.65 211.217H164.405C160.147 211.217 156.696 207.698 156.696 203.358V191.451C156.696 187.111 160.147 183.593 164.405 183.593H219.65C223.909 183.593 227.359 187.111 227.359 191.451V203.358C227.359 207.698 223.909 211.217 219.65 211.217Z" fill="#9ABFF6"/>
<path d="M241.123 172.145H188.931C183.829 172.145 179.694 167.929 179.694 162.73V141.908C179.694 136.707 183.829 132.491 188.931 132.491H241.123C246.223 132.491 250.358 136.707 250.358 141.908V162.73C250.358 167.929 246.223 172.145 241.123 172.145Z" fill="#F99746"/>
<path d="M388.679 370.058H293.467C288.901 366.937 265.19 350.447 255.378 338.155C253.301 335.549 245.695 313.098 239.85 294.87C236.202 283.485 233.238 273.741 232.737 271.506C232.563 270.728 232.448 269.185 232.377 267.096V267.075C232.129 259.621 232.468 245.245 232.818 233.826L232.82 233.773L232.826 233.623C232.843 233.121 232.857 232.627 232.874 232.138V232.121C232.876 232.073 232.876 232.022 232.878 231.973C232.942 229.99 233.004 228.12 233.062 226.42C233.209 222.17 233.333 218.974 233.385 217.722L233.406 217.14C233.406 217.14 233.408 217.14 233.41 217.138C233.561 217.051 238.141 214.56 244.263 219.056C245.74 220.143 247.106 222.767 248.352 226.192C249.149 228.378 249.896 230.889 250.591 233.535C253.265 243.711 255.184 255.877 256.208 259.135C257.86 264.4 277.326 287.551 278.543 288.99C278.562 289.015 278.582 289.038 278.601 289.061V252.501L263.905 212.412L257.872 195.954L254.84 187.682C254.84 187.682 250.19 179.899 246.289 170.535C244.581 166.437 243.017 162.038 242.048 157.856C241.817 156.86 241.62 155.874 241.463 154.91C241.463 154.908 241.463 154.908 241.463 154.906C240.889 151.372 240.85 148.093 241.647 145.424C243.069 140.67 246.272 139.775 248.733 139.872C248.988 139.881 249.234 139.904 249.472 139.931C249.712 139.961 249.95 140.007 250.18 140.07C250.612 140.187 251.022 140.364 251.403 140.59C251.407 140.59 251.407 140.592 251.409 140.594C252.04 140.969 252.584 141.486 253.007 142.117C253.007 142.117 255.084 144.883 257.872 148.601C259.706 151.049 261.848 153.908 263.905 156.663C267.568 161.573 270.97 166.154 271.906 167.496C276.962 174.752 290.575 198.399 290.575 198.399L306.511 199.081C309.036 199.188 311.439 200.214 313.285 201.971C318.951 207.367 331.168 219.041 332.666 220.778C332.666 221.347 342.159 226.002 349.494 230.146C354.74 232.406 364.705 240.415 364.705 240.415C366.771 242.274 368.344 244.125 369.14 245.893C372.557 253.474 381.825 319.409 386.256 352.004C387.682 362.483 388.607 369.515 388.679 370.058Z" fill="#FFDAC0"/>
<path d="M290.575 198.399C290.575 198.399 305.337 222.968 307.291 224.073C309.247 225.181 316.844 226.73 317.713 224.073C318.581 221.417 290.575 198.399 290.575 198.399Z" fill="#F4C4A2"/>
<path d="M364.78 240.483C364.755 240.46 364.73 240.439 364.705 240.415C364.705 240.415 354.74 232.406 349.494 230.146C342.76 226.34 334.208 222.107 332.853 220.997C334.415 222.82 345.409 235.505 349.641 236.455C353.356 237.29 361.793 239.643 364.78 240.483Z" fill="#F4C4A2"/>
<path d="M278.602 289.061V252.501C278.602 252.501 287.12 267.029 287.772 274.998C288.424 282.963 284.233 295.864 278.602 289.061Z" fill="#F4C4A2"/>
<path d="M247.692 154.899C246.446 152.722 244.215 148.774 243.448 146.565C243.232 145.94 243.259 144.691 244.013 143.36C244.462 142.56 245.174 141.733 246.248 140.995C246.753 140.646 247.264 140.338 247.817 140.132C248.462 139.893 249.133 139.764 249.824 139.754C250.447 139.748 251.095 140.117 251.54 140.771C251.542 140.773 251.542 140.777 251.546 140.779C253.024 142.976 254.894 145.966 256.167 148.673C257.047 150.542 256.769 152.701 255.486 153.648L254.886 154.096L251.819 156.379C250.544 157.326 248.706 156.68 247.692 154.899Z" fill="#FFD3B6"/>
<path d="M247.692 154.899C246.446 152.722 244.215 148.774 243.448 146.565C243.232 145.94 243.259 144.691 244.013 143.36C244.211 143.189 244.427 143.026 244.66 142.866C245.165 142.518 245.677 142.21 246.229 142.003C246.877 141.765 247.547 141.636 248.237 141.625C248.86 141.619 249.509 141.988 249.952 142.642C249.954 142.645 249.956 142.649 249.958 142.651C251.438 144.85 253.309 147.839 254.58 150.544C255.145 151.743 255.234 153.057 254.886 154.096L251.819 156.379C250.544 157.326 248.706 156.68 247.692 154.899Z" fill="#FFC197"/>
<path d="M343.898 77.2236H315.105C307.531 77.2236 301.333 70.9046 301.333 63.1824V39.0022C301.333 31.2799 307.531 24.964 315.105 24.964H343.898C351.472 24.964 357.667 31.2799 357.667 39.0022V63.1824C357.667 70.9046 351.472 77.2236 343.898 77.2236Z" fill="#D7D7D7"/>
<path d="M344.231 37.3376H315.947C315.265 37.3376 314.611 37.589 314.129 38.0365C313.647 38.4839 313.376 39.0908 313.376 39.7236V61.1971C313.376 61.8298 313.647 62.4367 314.129 62.8842C314.611 63.3316 315.265 63.583 315.947 63.583H344.231C344.912 63.583 345.566 63.3316 346.049 62.8842C346.531 62.4367 346.802 61.8298 346.802 61.1971V39.7236C346.802 39.0908 346.531 38.4839 346.049 38.0365C345.566 37.589 344.912 37.3376 344.231 37.3376ZM324.432 53.0849C324.705 53.2747 324.885 53.5573 324.934 53.8705C324.982 54.1837 324.894 54.5019 324.689 54.755C324.485 55.0081 324.18 55.1755 323.843 55.2202C323.505 55.265 323.162 55.1834 322.889 54.9936L317.747 51.4147C317.587 51.3036 317.458 51.1595 317.369 50.9938C317.279 50.8282 317.233 50.6455 317.233 50.4603C317.233 50.2751 317.279 50.0925 317.369 49.9268C317.458 49.7612 317.587 49.6171 317.747 49.5059L322.889 45.927C323.162 45.7372 323.505 45.6557 323.843 45.7004C324.18 45.7452 324.485 45.9125 324.689 46.1656C324.894 46.4187 324.982 46.7369 324.934 47.0501C324.885 47.3633 324.705 47.646 324.432 47.8358L320.661 50.4603L324.432 53.0849ZM333.896 42.4376L328.753 59.1392C328.71 59.2925 328.633 59.4361 328.529 59.5617C328.425 59.6873 328.294 59.7924 328.146 59.8707C327.997 59.949 327.833 59.999 327.663 60.0178C327.494 60.0366 327.322 60.0239 327.157 59.9802C326.993 59.9366 326.84 59.863 326.706 59.7638C326.573 59.6645 326.462 59.5416 326.381 59.4022C326.299 59.2628 326.249 59.1097 326.232 58.9519C326.215 58.794 326.232 58.6347 326.282 58.483L331.424 41.7815C331.523 41.4828 331.744 41.2321 332.04 41.0831C332.336 40.9341 332.683 40.8988 333.007 40.9847C333.331 41.0707 333.605 41.271 333.771 41.5426C333.937 41.8143 333.982 42.1356 333.896 42.4376ZM342.431 51.4147L337.288 54.9936C337.015 55.1834 336.673 55.265 336.335 55.2202C335.998 55.1755 335.693 55.0081 335.488 54.755C335.284 54.5019 335.196 54.1837 335.244 53.8705C335.292 53.5573 335.473 53.2747 335.746 53.0849L339.517 50.4603L335.746 47.8358C335.61 47.7418 335.497 47.624 335.411 47.4892C335.325 47.3544 335.268 47.2052 335.244 47.0501C335.22 46.895 335.23 46.7371 335.272 46.5853C335.313 46.4336 335.387 46.291 335.488 46.1656C335.59 46.0403 335.717 45.9347 335.862 45.8549C336.007 45.7751 336.168 45.7226 336.335 45.7004C336.502 45.6783 336.672 45.6869 336.836 45.7258C337 45.7646 337.153 45.833 337.288 45.927L342.431 49.5059C342.59 49.6171 342.72 49.7612 342.809 49.9268C342.898 50.0925 342.945 50.2751 342.945 50.4603C342.945 50.6455 342.898 50.8282 342.809 50.9938C342.72 51.1595 342.59 51.3036 342.431 51.4147Z" fill="#FC5546"/>
<path d="M9.87401 155.543H69.6669C74.4333 155.543 78.3329 159.518 78.3329 164.378V191.122C78.3329 195.586 74.7509 199.237 70.373 199.237H68.837L71.7178 211.644L53.6319 199.237H9.35786C4.59559 199.237 0.699219 195.266 0.699219 190.411V164.897C0.699219 159.752 4.82779 155.543 9.87401 155.543Z" fill="#D7D7D7"/>
<path d="M8.26948 174.955H70.6151C71.4643 174.955 72.159 174.246 72.159 173.381C72.159 172.516 71.4643 171.807 70.6151 171.807H8.26948C7.42054 171.807 6.72559 172.516 6.72559 173.381C6.72559 174.246 7.42054 174.955 8.26948 174.955Z" fill="white"/>
<path d="M8.26948 182H70.6151C71.4643 182 72.159 181.293 72.159 180.426C72.159 179.561 71.4643 178.852 70.6151 178.852H8.26948C7.42054 178.852 6.72559 179.561 6.72559 180.426C6.72559 181.293 7.42054 182 8.26948 182Z" fill="white"/>
<path d="M8.26948 189.048H70.6151C71.4643 189.048 72.159 188.339 72.159 187.473C72.159 186.606 71.4643 185.899 70.6151 185.899H8.26948C7.42054 185.899 6.72559 186.606 6.72559 187.473C6.72559 188.339 7.42054 189.048 8.26948 189.048Z" fill="white"/>
<path d="M42.2364 164.01H68.7039C69.7149 164.01 70.5419 163.169 70.5419 162.137C70.5419 161.107 69.7149 160.263 68.7039 160.263H42.2364C41.2256 160.263 40.3984 161.107 40.3984 162.137C40.3984 163.169 41.2256 164.01 42.2364 164.01Z" fill="white"/>
<path d="M19.4907 164.01H35.4168C36.2159 164.01 36.8697 163.346 36.8697 162.531V161.744C36.8697 160.929 36.2159 160.263 35.4168 160.263H19.4907C18.6917 160.263 18.0381 160.929 18.0381 161.744V162.531C18.0381 163.346 18.6917 164.01 19.4907 164.01Z" fill="white"/>
<path d="M310.311 169.106L347.919 181.642L325.391 159.257L323.105 164.726L313.423 164.774L310.311 169.106Z" fill="#9EC3F6"/>
<path d="M347.919 181.642L318.732 159.006L287.548 151.743L347.919 181.642Z" fill="white"/>
<path d="M325.392 159.257L347.919 181.642L332.902 150.283L325.392 159.257Z" fill="white"/>
<path d="M88.5487 26.2659L53.3965 31.3784L76.7238 15.1694L77.9101 20.3664L86.4586 21.9446L88.5487 26.2659Z" fill="#9EC3F6"/>
<path d="M53.3965 31.3784L82.6487 16.0029L111.319 14.5322L53.3965 31.3784Z" fill="white"/>
<path d="M76.7238 15.1694L53.3965 31.3784L71.4549 6.04372L76.7238 15.1694Z" fill="white"/>
<path d="M143.738 85.7256C143.738 90.4014 142.194 94.7079 139.593 98.145C138.73 99.2865 137.752 100.331 136.675 101.262C133.195 104.27 128.69 106.085 123.769 106.085C119.297 106.085 115.17 104.589 111.842 102.055C110.373 100.941 109.062 99.6241 107.945 98.145C105.344 94.7079 103.8 90.4014 103.8 85.7256C103.8 74.4815 112.739 65.3663 123.769 65.3663C134.799 65.3663 143.738 74.4815 143.738 85.7256Z" fill="white"/>
<path d="M131.792 95.3491C131.738 95.2879 131.686 95.231 131.637 95.1782C131.407 94.9989 131.177 94.887 130.254 94.7246C129.784 94.6444 129.132 94.5494 128.208 94.4271C128.208 94.4271 128.009 94.4039 127.903 94.3954C127.833 94.3891 127.758 94.3828 127.671 94.3743C127.406 94.2329 127.338 93.1125 127.34 91.9309C127.34 91.8423 127.342 91.7537 127.342 91.6651C127.346 91.2178 127.361 90.7768 127.377 90.3801C127.377 90.3548 127.38 90.3316 127.38 90.3062C127.951 90.3548 128.329 90.3506 128.329 90.3506C129.393 90.264 130.058 87.3565 130.296 85.0059C130.296 85.0059 130.821 83.7167 130.821 82.322C130.821 81.5371 130.656 80.7206 130.138 80.0791C129.869 79.75 129.621 79.5326 129.391 79.3955C129.325 79.3279 129.257 79.2667 129.191 79.2077C128.201 78.0873 124.178 73.8884 121.537 76.317C121.469 76.0743 120.61 73.3482 116.446 74.2408C116.705 74.2133 118.551 74.0361 119.085 74.7978C119.012 74.7661 117.4 74.0361 116.384 74.6733C115.914 74.9645 115.622 75.5701 115.457 76.2073C115.455 76.2115 115.455 76.2157 115.453 76.2199C115.453 76.2241 115.451 76.2263 115.451 76.2305V76.2326C115.448 76.2389 115.446 76.2452 115.446 76.2516C115.428 76.3381 115.407 76.4246 115.388 76.5111C115.386 76.5238 115.382 76.5364 115.38 76.5512C115.38 76.5554 115.378 76.5575 115.378 76.5617C115.378 76.5639 115.378 76.5639 115.378 76.566C115.254 77.2243 115.254 77.8636 115.328 78.1738C115.484 78.8384 116.632 80.8176 117.394 80.8176C117.684 80.8176 117.99 80.7205 118.263 80.6003C118.145 80.9505 118.04 81.3346 117.953 81.7523C117.144 85.6326 119.672 88.5803 120.982 87.8502C121.823 87.3839 122.458 88.882 122.458 88.882L122.462 88.8757C122.338 91.7136 121.574 93.5662 121.007 94.0283C120.804 94.0515 120.366 94.1063 119.817 94.195V94.1928C119.817 94.1928 117.886 94.4081 116.417 95.0601C116.405 95.0643 116.394 95.0685 116.382 95.0748C116.047 95.2162 115.761 95.3744 115.548 95.5475C115.546 95.5517 115.544 95.5538 115.542 95.5538V95.5559C115.43 95.6445 115.339 95.7395 115.273 95.8408C115.238 95.883 115.208 95.9252 115.186 95.9695C114.695 96.9232 114.2 98.3559 113.727 100.035C116.549 102.183 120.049 103.454 123.843 103.454C128.017 103.454 131.838 101.915 134.789 99.3623C133.704 97.0582 132.467 95.8703 131.792 95.3491Z" fill="#0E2B5C"/>
<path d="M180.098 75.4688H157.412C156.626 75.4688 155.982 74.8124 155.982 74.0105V73.3163C155.982 72.5144 156.626 71.8581 157.412 71.8581H180.098C180.884 71.8581 181.526 72.5144 181.526 73.3163V74.0105C181.526 74.8124 180.884 75.4688 180.098 75.4688Z" fill="white"/>
<path d="M180.371 88.4517H157.137C156.502 88.4517 155.982 87.922 155.982 87.2741C155.982 86.6263 156.502 86.0966 157.137 86.0966H180.371C181.007 86.0966 181.526 86.6263 181.526 87.2741C181.526 87.922 181.007 88.4517 180.371 88.4517Z" fill="white"/>
<path d="M170.086 94.022H156.867C156.38 94.022 155.982 93.6168 155.982 93.1209V92.5701C155.982 92.0742 156.38 91.6669 156.867 91.6669H170.086C170.573 91.6669 170.97 92.0742 170.97 92.5701V93.1209C170.97 93.6168 170.573 94.022 170.086 94.022Z" fill="white"/>
<path d="M197.027 94.022H175.667C175.056 94.022 174.558 93.5134 174.558 92.8909V92.798C174.558 92.1776 175.056 91.6669 175.667 91.6669H197.027C197.637 91.6669 198.136 92.1776 198.136 92.798V92.8909C198.136 93.5134 197.637 94.022 197.027 94.022Z" fill="white"/>
<path d="M216.986 88.4517H186.52C185.885 88.4517 185.365 87.922 185.365 87.2741C185.365 86.6263 185.885 86.0966 186.52 86.0966H216.986C217.619 86.0966 218.141 86.6263 218.141 87.2741C218.141 87.922 217.619 88.4517 216.986 88.4517Z" fill="white"/>
<path d="M180.371 99.5945H157.137C156.502 99.5945 155.982 99.0648 155.982 98.417C155.982 97.7691 156.502 97.2394 157.137 97.2394H180.371C181.007 97.2394 181.526 97.7691 181.526 98.417C181.526 99.0648 181.007 99.5945 180.371 99.5945Z" fill="white"/>
<path d="M216.986 99.5945H186.52C185.885 99.5945 185.365 99.0648 185.365 98.417C185.365 97.7691 185.885 97.2394 186.52 97.2394H216.986C217.619 97.2394 218.141 97.7691 218.141 98.417C218.141 99.0648 217.619 99.5945 216.986 99.5945Z" fill="white"/>
<path d="M202.207 75.4688H185.916C185.243 75.4688 184.69 74.9074 184.69 74.2195V73.1073C184.69 72.4194 185.243 71.8581 185.916 71.8581H202.207C202.882 71.8581 203.432 72.4194 203.432 73.1073V74.2195C203.432 74.9074 202.882 75.4688 202.207 75.4688Z" fill="white"/>
<path d="M181.667 191.44H165.539C164.98 191.44 164.522 190.974 164.522 190.404V189.91C164.522 189.339 164.98 188.872 165.539 188.872H181.667C182.226 188.872 182.683 189.339 182.683 189.91V190.404C182.683 190.974 182.226 191.44 181.667 191.44Z" fill="#699DEE"/>
<path d="M181.861 198.015H165.342C164.891 198.015 164.521 197.637 164.521 197.177C164.521 196.717 164.891 196.34 165.342 196.34H181.861C182.312 196.34 182.683 196.717 182.683 197.177C182.683 197.637 182.312 198.015 181.861 198.015Z" fill="#699DEE"/>
<path d="M174.549 201.976H165.15C164.804 201.976 164.521 201.686 164.521 201.334V200.942C164.521 200.589 164.804 200.302 165.15 200.302H174.549C174.895 200.302 175.178 200.589 175.178 200.942V201.334C175.178 201.686 174.895 201.976 174.549 201.976Z" fill="#699DEE"/>
<path d="M193.703 201.976H178.517C178.082 201.976 177.729 201.613 177.729 201.172V201.106C177.729 200.663 178.082 200.302 178.517 200.302H193.703C194.138 200.302 194.492 200.663 194.492 201.106V201.172C194.492 201.613 194.138 201.976 193.703 201.976Z" fill="#699DEE"/>
<path d="M207.893 198.015H186.233C185.781 198.015 185.413 197.637 185.413 197.177C185.413 196.717 185.781 196.34 186.233 196.34H207.893C208.344 196.34 208.714 196.717 208.714 197.177C208.714 197.637 208.344 198.015 207.893 198.015Z" fill="#699DEE"/>
<path d="M181.861 205.936H165.342C164.891 205.936 164.521 205.56 164.521 205.1C164.521 204.64 164.891 204.263 165.342 204.263H181.861C182.312 204.263 182.683 204.64 182.683 205.1C182.683 205.56 182.312 205.936 181.861 205.936Z" fill="#699DEE"/>
<path d="M207.893 205.936H186.233C185.781 205.936 185.413 205.56 185.413 205.1C185.413 204.64 185.781 204.263 186.233 204.263H207.893C208.344 204.263 208.714 204.64 208.714 205.1C208.714 205.56 208.344 205.936 207.893 205.936Z" fill="#699DEE"/>
<path d="M197.387 191.44H185.804C185.324 191.44 184.933 191.042 184.933 190.552V189.761C184.933 189.273 185.324 188.872 185.804 188.872H197.387C197.865 188.872 198.259 189.273 198.259 189.761V190.552C198.259 191.042 197.865 191.44 197.387 191.44Z" fill="#699DEE"/>
<path d="M192.364 31.5408H176.238C175.677 31.5408 175.22 31.0723 175.22 30.5025V30.0087C175.22 29.439 175.677 28.9726 176.238 28.9726H192.364C192.925 28.9726 193.382 29.439 193.382 30.0087V30.5025C193.382 31.0723 192.925 31.5408 192.364 31.5408Z" fill="#699DEE"/>
<path d="M192.561 38.1135H176.041C175.59 38.1135 175.22 37.7358 175.22 37.2757C175.22 36.8157 175.59 36.438 176.041 36.438H192.561C193.012 36.438 193.382 36.8157 193.382 37.2757C193.382 37.7358 193.012 38.1135 192.561 38.1135Z" fill="#699DEE"/>
<path d="M185.247 42.074H175.849C175.503 42.074 175.22 41.787 175.22 41.4324V41.042C175.22 40.6896 175.503 40.4005 175.849 40.4005H185.247C185.592 40.4005 185.876 40.6896 185.876 41.042V41.4324C185.876 41.787 185.592 42.074 185.247 42.074Z" fill="#699DEE"/>
<path d="M204.403 42.074H189.214C188.782 42.074 188.426 41.7131 188.426 41.2699V41.2045C188.426 40.7614 188.782 40.4005 189.214 40.4005H204.403C204.835 40.4005 205.191 40.7614 205.191 41.2045V41.2699C205.191 41.7131 204.835 42.074 204.403 42.074Z" fill="#699DEE"/>
<path d="M218.592 38.1135H196.932C196.481 38.1135 196.11 37.7358 196.11 37.2757C196.11 36.8157 196.481 36.438 196.932 36.438H218.592C219.043 36.438 219.412 36.8157 219.412 37.2757C219.412 37.7358 219.043 38.1135 218.592 38.1135Z" fill="#699DEE"/>
<path d="M208.084 31.5408H196.501C196.023 31.5408 195.632 31.1398 195.632 30.6524V29.8589C195.632 29.3714 196.023 28.9726 196.501 28.9726H208.084C208.565 28.9726 208.956 29.3714 208.956 29.8589V30.6524C208.956 31.1398 208.565 31.5408 208.084 31.5408Z" fill="#699DEE"/>
<path d="M206.622 142.571H188.964C188.351 142.571 187.851 142.06 187.851 141.435V140.895C187.851 140.271 188.351 139.76 188.964 139.76H206.622C207.232 139.76 207.733 140.271 207.733 140.895V141.435C207.733 142.06 207.232 142.571 206.622 142.571Z" fill="#ED7D2B"/>
<path d="M206.835 149.768H188.749C188.254 149.768 187.851 149.354 187.851 148.85C187.851 148.346 188.254 147.934 188.749 147.934H206.835C207.329 147.934 207.733 148.346 207.733 148.85C207.733 149.354 207.329 149.768 206.835 149.768Z" fill="#ED7D2B"/>
<path d="M198.828 154.104H188.54C188.161 154.104 187.851 153.787 187.851 153.401V152.973C187.851 152.587 188.161 152.272 188.54 152.272H198.828C199.206 152.272 199.517 152.587 199.517 152.973V153.401C199.517 153.787 199.206 154.104 198.828 154.104Z" fill="#ED7D2B"/>
<path d="M219.798 154.104H203.172C202.698 154.104 202.309 153.707 202.309 153.224V153.152C202.309 152.667 202.698 152.272 203.172 152.272H219.798C220.274 152.272 220.661 152.667 220.661 153.152V153.224C220.661 153.707 220.274 154.104 219.798 154.104Z" fill="#ED7D2B"/>
<path d="M235.333 149.768H211.62C211.125 149.768 210.722 149.354 210.722 148.85C210.722 148.346 211.125 147.934 211.62 147.934H235.333C235.828 147.934 236.231 148.346 236.231 148.85C236.231 149.354 235.828 149.768 235.333 149.768Z" fill="#ED7D2B"/>
<path d="M206.835 158.44H188.749C188.254 158.44 187.851 158.029 187.851 157.524C187.851 157.02 188.254 156.608 188.749 156.608H206.835C207.329 156.608 207.733 157.02 207.733 157.524C207.733 158.029 207.329 158.44 206.835 158.44Z" fill="#ED7D2B"/>
<path d="M235.333 158.44H211.62C211.125 158.44 210.722 158.029 210.722 157.524C210.722 157.02 211.125 156.608 211.62 156.608H235.333C235.828 156.608 236.231 157.02 236.231 157.524C236.231 158.029 235.828 158.44 235.333 158.44Z" fill="#ED7D2B"/>
<path d="M206.835 162.956H188.749C188.254 162.956 187.851 162.544 187.851 162.04C187.851 161.535 188.254 161.124 188.749 161.124H206.835C207.329 161.124 207.733 161.535 207.733 162.04C207.733 162.544 207.329 162.956 206.835 162.956Z" fill="#ED7D2B"/>
<path d="M235.333 162.956H211.62C211.125 162.956 210.722 162.544 210.722 162.04C210.722 161.535 211.125 161.124 211.62 161.124H235.333C235.828 161.124 236.231 161.535 236.231 162.04C236.231 162.544 235.828 162.956 235.333 162.956Z" fill="#ED7D2B"/>
<path d="M223.83 142.571H211.149C210.624 142.571 210.195 142.134 210.195 141.598V140.731C210.195 140.197 210.624 139.76 211.149 139.76H223.83C224.355 139.76 224.784 140.197 224.784 140.731V141.598C224.784 142.134 224.355 142.571 223.83 142.571Z" fill="#ED7D2B"/>
<path d="M164.795 18.1823L163.568 19.0813L162.335 18.1929C162.608 17.8004 163.06 17.5408 163.568 17.5408C164.074 17.5408 164.522 17.794 164.795 18.1823Z" fill="white"/>
<path d="M163.568 15.3529C162.335 15.3529 161.244 15.9796 160.584 16.9356L161.362 17.4927C161.853 16.7857 162.66 16.3257 163.568 16.3257C164.471 16.3257 165.274 16.7794 165.762 17.4758L166.538 16.9081C165.874 15.9649 164.789 15.3529 163.568 15.3529Z" fill="white"/>
<path d="M163.568 11.1937C160.959 11.1937 158.651 12.5168 157.252 14.5406L158.032 15.0977C159.257 13.3271 161.283 12.1665 163.568 12.1665C165.834 12.1665 167.848 13.3081 169.077 15.0555L169.849 14.4878C168.448 12.4936 166.157 11.1937 163.568 11.1937Z" fill="white"/>
<path d="M163.568 13.4706C161.711 13.4706 160.066 14.4076 159.064 15.8425L159.843 16.3997C160.672 15.2179 162.032 14.4434 163.568 14.4434C165.091 14.4434 166.443 15.2052 167.274 16.3701L168.047 15.8067C167.043 14.3907 165.41 13.4706 163.568 13.4706Z" fill="white"/>
<path d="M156.679 150.698C156.679 152.536 157.285 154.226 158.307 155.577C158.646 156.026 159.031 156.436 159.454 156.801C159.874 157.163 160.331 157.482 160.819 157.75C161.922 158.353 163.181 158.695 164.521 158.695C166.195 158.695 167.744 158.161 169.017 157.252C169.081 157.208 169.144 157.159 169.207 157.113C169.783 156.674 170.298 156.159 170.737 155.577C171.759 154.226 172.366 152.536 172.366 150.698C172.366 146.284 168.854 142.704 164.521 142.704C160.19 142.704 156.679 146.284 156.679 150.698Z" fill="white"/>
<path d="M166.645 155.828L165.923 155.176C165.863 155.189 165.803 155.199 165.743 155.21C165.612 155.117 165.47 155.026 165.321 154.942C165.368 154.644 165.408 154.368 165.441 154.123C165.55 153.266 165.563 152.749 165.563 152.669C165.946 152.65 166.204 152.608 166.204 152.608C166.929 152.437 166.964 149.916 166.796 148.601C166.933 148.603 167.065 148.584 167.2 148.523C167.748 148.276 167.779 147.43 167.779 147.43C167.779 147.43 167.62 147.732 167.386 147.829C167.386 147.829 168.303 146.548 167.239 145.673C166.179 144.795 165.097 145.369 164.48 145.407C163.127 145.491 162.252 145.573 161.811 146.481C161.374 147.375 161.546 149.836 162.382 150.741C162.396 150.825 162.411 150.907 162.421 150.992C162.471 151.317 162.587 151.583 162.752 151.796C162.564 152.855 162.135 153.646 161.751 154.172C161.49 154.378 161.252 154.644 161.03 154.963C161.024 154.967 161.016 154.973 161.016 154.973C161.016 154.973 161.018 154.973 161.022 154.975C160.614 155.566 160.279 156.336 160.01 157.239C160.008 157.244 160.008 157.248 160.006 157.252C160.449 157.571 160.929 157.839 161.436 158.054C161.469 158.069 161.502 158.081 161.535 158.096C161.544 158.098 161.55 158.102 161.558 158.105C161.612 158.128 161.668 158.149 161.722 158.17C161.854 158.223 161.986 158.271 162.121 158.316C162.262 158.362 162.404 158.404 162.547 158.442C162.614 158.459 162.68 158.476 162.746 158.491C162.804 158.505 162.862 158.518 162.922 158.529C162.93 158.531 162.938 158.533 162.947 158.535C162.986 158.543 163.025 158.55 163.065 158.558C163.156 158.575 163.249 158.592 163.342 158.607C163.363 158.609 163.385 158.613 163.406 158.615C163.458 158.624 163.508 158.63 163.559 158.636C163.632 158.645 163.704 158.653 163.777 158.662C163.857 158.67 163.94 158.676 164.023 158.681C164.099 158.687 164.178 158.691 164.257 158.693C164.338 158.695 164.42 158.698 164.503 158.698C164.592 158.698 164.679 158.695 164.768 158.693C164.776 158.693 164.782 158.693 164.791 158.691C164.811 158.691 164.834 158.691 164.855 158.689C164.899 158.689 164.942 158.687 164.985 158.683C164.991 158.681 164.996 158.681 165.002 158.681C165.085 158.676 165.165 158.67 165.248 158.662C166.308 158.56 167.307 158.24 168.203 157.75C167.748 156.955 167.181 156.334 166.645 155.828Z" fill="#699DEE"/>
<path d="M233.684 197.177C233.684 199.026 234.294 200.729 235.323 202.087C235.664 202.539 236.051 202.952 236.478 203.32C237.854 204.51 239.636 205.227 241.581 205.227C243.348 205.227 244.981 204.636 246.298 203.634C246.877 203.193 247.397 202.672 247.837 202.087C248.866 200.729 249.476 199.026 249.476 197.177C249.476 192.73 245.942 189.126 241.581 189.126C237.218 189.126 233.684 192.73 233.684 197.177Z" fill="white"/>
<path d="M245.617 201.739C245.606 201.718 245.594 201.697 245.577 201.678C245.546 201.632 245.503 201.587 245.451 201.545L245.449 201.543C245.35 201.461 245.215 201.387 245.06 201.321C245.054 201.319 245.05 201.317 245.043 201.315C244.358 201.009 243.458 200.91 243.458 200.91C243.202 200.87 242.999 200.845 242.904 200.834C242.639 200.617 242.283 199.754 242.225 198.431L242.227 198.435C242.227 198.435 242.523 197.734 242.914 197.954C243.524 198.294 244.704 196.918 244.327 195.11C244.286 194.916 244.236 194.736 244.183 194.574C244.311 194.629 244.454 194.675 244.588 194.675C244.942 194.675 245.478 193.751 245.551 193.441C245.625 193.13 245.544 192.111 245.058 191.81C244.584 191.512 243.833 191.854 243.8 191.867C244.042 191.521 244.87 191.59 245.021 191.607C243.088 191.198 242.688 192.462 242.655 192.576C241.426 191.442 239.549 193.401 239.087 193.924C239.056 193.951 239.025 193.981 238.994 194.012C238.889 194.074 238.771 194.177 238.646 194.329C238.404 194.629 238.328 195.01 238.328 195.375C238.328 196.025 238.572 196.627 238.572 196.627C238.684 197.722 238.994 199.079 239.491 199.119C239.491 199.119 239.667 199.121 239.932 199.098C239.932 199.11 239.934 199.121 239.934 199.133C239.942 199.317 239.948 199.524 239.95 199.731V199.855C239.952 200.406 239.919 200.929 239.797 200.994C239.756 200.999 239.721 201.001 239.69 201.005C239.64 201.007 239.547 201.02 239.547 201.02C239.116 201.077 238.81 201.121 238.593 201.159C238.162 201.233 238.055 201.286 237.949 201.37C237.924 201.393 237.899 201.421 237.874 201.45C237.56 201.693 236.983 202.246 236.478 203.32C237.854 204.51 239.636 205.227 241.581 205.227C243.351 205.227 244.981 204.636 246.298 203.634C246.076 202.851 245.846 202.182 245.617 201.739Z" fill="#F99746"/>
<path d="M233.684 35.3684C233.684 37.2168 234.294 38.9196 235.323 40.2805C235.664 40.732 236.051 41.1435 236.478 41.5127C237.854 42.7028 239.636 43.4202 241.581 43.4202C243.348 43.4202 244.981 42.8273 246.298 41.825C246.877 41.3861 247.397 40.865 247.837 40.2805C248.866 38.9196 249.476 37.2168 249.476 35.3684C249.476 30.9227 245.942 27.3188 241.581 27.3188C237.218 27.3188 233.684 30.9227 233.684 35.3684Z" fill="white"/>
<path d="M245.617 39.9302C245.606 39.9091 245.594 39.8902 245.577 39.8691C245.546 39.8226 245.503 39.7783 245.451 39.7361L245.449 39.734C245.35 39.6538 245.215 39.58 245.06 39.5125C245.054 39.5103 245.05 39.5082 245.043 39.5061C244.358 39.2023 243.458 39.101 243.458 39.101V39.1031C243.202 39.0609 242.999 39.0356 242.904 39.0251C242.839 38.9723 242.771 38.8858 242.703 38.7613V38.7592C242.483 38.3667 242.268 37.6282 242.225 36.6218L242.227 36.626C242.227 36.626 242.523 35.9276 242.914 36.1449C243.524 36.4846 244.704 35.111 244.327 33.3027C244.286 33.1065 244.236 32.9272 244.183 32.7647C244.311 32.8196 244.454 32.866 244.588 32.866C244.942 32.866 245.478 31.9418 245.551 31.6338C245.625 31.3215 245.544 30.3023 245.058 30.0006C244.584 29.7052 243.833 30.0449 243.8 30.0597C244.042 29.7136 244.872 29.7833 245.021 29.7981C243.088 29.3887 242.688 30.6547 242.655 30.7665C241.426 29.6356 239.549 31.5937 239.087 32.1148C239.056 32.1423 239.025 32.1718 238.994 32.2034C238.889 32.2667 238.771 32.368 238.646 32.522C238.404 32.8196 238.328 33.2015 238.328 33.5665C238.328 34.2185 238.572 34.8177 238.572 34.8177C238.684 35.9149 238.994 37.2695 239.491 37.3096C239.491 37.3096 239.667 37.3117 239.932 37.2906C239.932 37.3012 239.934 37.3117 239.934 37.3244C239.942 37.508 239.948 37.7147 239.95 37.9236V38.0481C239.952 38.5988 239.919 39.12 239.797 39.1875C239.756 39.1896 239.721 39.1938 239.69 39.196C239.64 39.2002 239.547 39.2107 239.547 39.2107C239.116 39.2677 238.81 39.312 238.593 39.35C238.162 39.4259 238.055 39.4766 237.949 39.561C237.924 39.5863 237.899 39.6137 237.874 39.6412C237.56 39.8838 236.983 40.4387 236.478 41.5127C236.552 41.5781 236.629 41.6414 236.707 41.7026C236.72 41.7132 236.734 41.7237 236.747 41.7343C236.805 41.7807 236.862 41.825 236.922 41.8672C236.964 41.901 237.005 41.9326 237.049 41.9622C237.092 41.9938 237.136 42.0233 237.179 42.0508C237.241 42.0972 237.305 42.1394 237.372 42.1795C237.415 42.209 237.459 42.2365 237.504 42.2639C237.558 42.2977 237.614 42.3314 237.67 42.3631C237.732 42.3989 237.794 42.4348 237.856 42.4686C237.862 42.4707 237.866 42.4749 237.872 42.477C237.875 42.4791 237.879 42.4812 237.883 42.4833H237.885C237.893 42.4875 237.903 42.4939 237.912 42.4981C237.961 42.5255 238.011 42.5508 238.061 42.5762C238.065 42.5762 238.067 42.5783 238.071 42.5804C238.086 42.5888 238.102 42.5973 238.117 42.6036C238.144 42.6184 238.173 42.6331 238.201 42.6458C238.228 42.6585 238.255 42.6711 238.284 42.6859C238.346 42.7154 238.413 42.745 238.477 42.7724C238.541 42.7998 238.607 42.8272 238.671 42.8526C238.702 42.8652 238.731 42.8779 238.76 42.8884C238.789 42.899 238.818 42.9117 238.849 42.9222C238.909 42.9454 238.971 42.9665 239.031 42.9876C239.096 43.0108 239.158 43.0298 239.222 43.0509C239.276 43.0678 239.329 43.0847 239.383 43.1016C239.389 43.1037 239.394 43.1037 239.4 43.1058C239.433 43.1163 239.468 43.1269 239.503 43.1353C239.692 43.1881 239.884 43.2345 240.079 43.2725C240.163 43.2893 240.248 43.3062 240.333 43.3189C240.356 43.3231 240.377 43.3273 240.399 43.3294C240.404 43.3294 240.41 43.3315 240.414 43.3315C240.416 43.3315 240.42 43.3316 240.422 43.3337C240.478 43.3421 240.53 43.3484 240.588 43.3548C240.6 43.3569 240.61 43.359 240.623 43.359C240.631 43.3611 240.639 43.3611 240.648 43.3632C240.699 43.3716 240.751 43.3758 240.801 43.3801C240.809 43.3801 240.819 43.3822 240.828 43.3822C240.842 43.3843 240.859 43.3864 240.875 43.3885C240.968 43.397 241.06 43.4033 241.153 43.4075H241.167C241.196 43.4096 241.223 43.4117 241.254 43.4117C241.273 43.4117 241.289 43.4138 241.308 43.4138C241.399 43.4181 241.49 43.4202 241.581 43.4202C243.351 43.4202 244.981 42.8273 246.298 41.825C246.076 41.0422 245.846 40.3754 245.617 39.9302Z" fill="#F99746"/>
<path d="M340.843 355.045L312.401 370.058H293.467C288.901 366.937 265.19 350.447 255.379 338.155C253.301 335.549 245.695 313.098 239.851 294.87V294.862C240.627 297.282 256.937 332.698 261.581 336.724C266.225 340.748 290.609 364.188 297.343 363.949C303.866 363.721 338.594 355.573 340.746 355.068C340.779 355.062 340.81 355.053 340.843 355.045Z" fill="#F4C4A2"/>
<path d="M398.071 370.058H295.532C300.675 368 320.35 360.337 340.746 355.068C340.779 355.062 340.81 355.053 340.843 355.045C358.36 350.527 376.392 347.789 386.185 351.897L386.256 352.004L398.071 370.058Z" fill="#D2E3FC"/>
<path d="M232.876 231.973C232.878 231.973 232.88 231.973 232.884 231.969C234.61 231.323 237.038 230.897 238.217 232.908C240.055 236.035 233.23 263.625 232.377 267.096L232.876 231.973Z" fill="#F4C4A2"/>
<path d="M233.406 217.138L232.82 233.826C232.82 233.826 236.262 234.398 238.218 232.908C240.176 231.418 239.139 216.942 233.406 217.138Z" fill="#FFC197"/>
<path d="M164.523 313.776C154.67 315.837 133.434 307.946 133.434 307.946L136.859 274.215L112.861 302.234C100.649 297.6 81.5487 285.51 70.2002 277.986C99.2811 274.753 120.994 245.494 120.994 245.494C141.153 256.627 163.908 263.13 163.908 263.13C163.901 283.177 164.523 313.776 164.523 313.776Z" fill="#CBE1FD"/>
<path d="M96.9064 283.139C96.9269 280.889 98.7318 279.083 100.938 279.104C103.144 279.125 104.915 280.965 104.895 283.215C104.874 285.464 103.07 287.27 100.864 287.249C98.6579 287.228 96.8861 285.388 96.9064 283.139Z" fill="#F99746"/>
</svg>
