<svg width="484" height="364" viewBox="0 0 484 364" fill="none" xmlns="http://www.w3.org/2000/svg">
<path d="M0.379883 320.488H483.38V320.248H0.379883V320.488Z" fill="#ECECEC"/>
<path d="M51.0498 329.669H83.0498V329.428H51.0498V329.669Z" fill="#ECECEC"/>
<path d="M148.61 327.053H174.1V326.812H148.61V327.053Z" fill="#ECECEC"/>
<path d="M87.2803 335.359H131.64V335.118H87.2803V335.359Z" fill="#ECECEC"/>
<path d="M414.12 337.001H434.98V336.761H414.12V337.001Z" fill="#ECECEC"/>
<path d="M378.54 337.001H409.42V336.761H378.54V337.001Z" fill="#ECECEC"/>
<path d="M268.17 332.932H321.41V332.691H268.17V332.932Z" fill="#ECECEC"/>
<path d="M42.8 4.83084C39.89 4.83084 37.53 7.19084 37.53 10.0918V271.752C37.53 274.654 39.89 277.013 42.8 277.013H229.33C232.24 277.013 234.6 274.654 234.6 271.752V10.0918C234.6 7.19084 232.24 4.83084 229.33 4.83084H42.8ZM229.33 277.254H42.8C39.76 277.254 37.29 274.787 37.29 271.752V10.0918C37.29 7.05884 39.76 4.58984 42.8 4.58984H229.33C232.37 4.58984 234.85 7.05884 234.85 10.0918V271.752C234.85 274.787 232.37 277.254 229.33 277.254Z" fill="#BDBDBD"/>
<path d="M251.74 4.83084C248.83 4.83084 246.47 7.19084 246.47 10.0918V271.752C246.47 274.654 248.83 277.013 251.74 277.013H438.28C441.18 277.013 443.55 274.654 443.55 271.752V10.0918C443.55 7.19084 441.18 4.83084 438.28 4.83084H251.74ZM438.28 277.254H251.74C248.7 277.254 246.23 274.787 246.23 271.752V10.0918C246.23 7.05884 248.7 4.58984 251.74 4.58984H438.28C441.32 4.58984 443.79 7.05884 443.79 10.0918V271.752C443.79 274.787 441.32 277.254 438.28 277.254Z" fill="#BDBDBD"/>
<path d="M418.17 315.744H433.04V215.841H418.17V315.744Z" fill="#F0F0F0"/>
<path d="M266.82 315.744H430.19V320.248H266.82V315.744Z" fill="#F0F0F0"/>
<path d="M418.17 315.744H263.97V215.841H418.17V315.744Z" fill="#F5F5F5"/>
<path d="M419.71 211.911H434.92V215.841H419.71V211.911Z" fill="#F0F0F0"/>
<path d="M419.71 211.911H262.1V215.841H419.71V211.911Z" fill="#FAFAFA"/>
<path d="M270.43 261.978H411.71V225.196H270.43V261.978ZM412.92 263.193H269.21V223.981H412.92V263.193Z" fill="#BDBDBD"/>
<path d="M270.43 306.388H411.71V270.149H270.43V306.388ZM412.92 307.603H269.21V268.936H412.92V307.603Z" fill="#BDBDBD"/>
<path d="M297.71 231.804H384.42C385.3 231.804 386.02 231.085 386.02 230.206C386.02 229.327 385.3 228.608 384.42 228.608H297.71C296.83 228.608 296.11 229.327 296.11 230.206C296.11 231.085 296.83 231.804 297.71 231.804Z" fill="#E1E1E1"/>
<path d="M297.71 276.759H384.42C385.3 276.759 386.02 276.039 386.02 275.16C386.02 274.281 385.3 273.562 384.42 273.562H297.71C296.83 273.562 296.11 274.281 296.11 275.16C296.11 276.039 296.83 276.759 297.71 276.759Z" fill="#BDBDBD"/>
<path d="M71.5897 263.249H61.5697L63.2498 254.573C64.1498 249.908 68.2498 246.516 73.0098 246.516H73.0498L85.7598 246.558L84.1598 253.253C82.7698 259.031 77.4697 263.249 71.5897 263.249ZM137.17 200.44H112.2C103.31 200.44 95.2997 206.819 93.1997 215.556L86.5997 243.041L73.0498 242.997H73.0098C66.5498 242.997 60.9998 247.578 59.7898 253.911L57.9797 263.322C55.2597 263.713 52.9198 265.791 52.2598 268.543H119.23C128.11 268.543 136.12 262.171 138.22 253.44L147.69 213.974C149.38 206.907 144.36 200.44 137.17 200.44Z" fill="#BDBDBD"/>
<path d="M117.55 268.543H120.41L131.67 320.248H128.81L117.55 268.543Z" fill="#E1E1E1"/>
<path d="M106.82 268.543H109.68L120.94 320.248H118.07L106.82 268.543Z" fill="#E1E1E1"/>
<path d="M64.7001 268.543H61.8401L50.5801 320.248H53.4401L64.7001 268.543Z" fill="#BDBDBD"/>
<path d="M75.4301 268.543H72.5699L61.3101 320.248H64.17L75.4301 268.543Z" fill="#BDBDBD"/>
<path d="M164.3 263.249H154.28L155.96 254.573C156.86 249.908 160.96 246.516 165.73 246.516H165.76L178.47 246.558L176.87 253.253C175.48 259.031 170.18 263.249 164.3 263.249ZM229.88 200.44H204.92C196.03 200.44 188.01 206.819 185.91 215.556L179.32 243.041L165.77 242.997H165.73C159.27 242.997 153.72 247.578 152.5 253.911L150.7 263.322C147.97 263.713 145.63 265.791 144.97 268.543H211.94C220.82 268.543 228.83 262.171 230.93 253.44L240.4 213.974C242.09 206.907 237.07 200.44 229.88 200.44Z" fill="#E7E7E7"/>
<path d="M210.26 268.543H213.12L224.38 320.248H221.52L210.26 268.543Z" fill="#BDBDBD"/>
<path d="M199.53 268.543H202.39L213.65 320.248H210.79L199.53 268.543Z" fill="#BDBDBD"/>
<path d="M157.41 268.543H154.55L143.29 320.248H146.15L157.41 268.543Z" fill="#BDBDBD"/>
<path d="M168.14 268.543H165.28L154.03 320.248H156.89L168.14 268.543Z" fill="#BDBDBD"/>
<path d="M348.29 211.871H394.94L398.72 170.363H352.07L348.29 211.871Z" fill="#E7E7E7"/>
<path d="M346.7 211.871H393.35L397.14 170.363H350.49L346.7 211.871Z" fill="#F0F0F0"/>
<path d="M389.17 207.276L392.11 174.958H354.67L351.72 207.276H389.17Z" fill="white"/>
<path d="M337.48 181.561L334.72 211.871H357.08L359.84 181.561H337.48Z" fill="#E7E7E7"/>
<path d="M336.33 181.561L333.56 211.871H355.92L358.68 181.561H336.33Z" fill="#F0F0F0"/>
<path d="M339.38 184.916L337.23 208.516H352.86L355.02 184.916H339.38Z" fill="white"/>
<path d="M311.91 39.4622C262.98 47.3092 205.62 -5.6638 161.33 37.5622C122.64 75.3312 175.96 123.422 123.47 149.867C91.63 165.913 24.18 187.316 71.36 241.029C100 273.638 151.95 289.693 195.03 284.64C261.75 276.816 218.28 206.295 254.64 172.951C270.99 157.962 286.97 165.478 305.42 166.517C332.55 168.043 367.56 167.364 393.68 155.921C435.25 137.71 455.42 75.1212 438.09 32.9762C407.84 -40.5918 357.02 32.2302 311.91 39.4622Z" fill="#007CFF"/>
<g opacity="0.899994">
<path d="M311.91 39.4622C262.98 47.3092 205.62 -5.6638 161.33 37.5622C122.64 75.3312 175.96 123.422 123.47 149.867C91.63 165.913 24.18 187.316 71.36 241.029C100 273.638 151.95 289.693 195.03 284.64C261.75 276.816 218.28 206.295 254.64 172.951C270.99 157.962 286.97 165.478 305.42 166.517C332.55 168.043 367.56 167.364 393.68 155.921C435.25 137.71 455.42 75.1212 438.09 32.9762C407.84 -40.5918 357.02 32.2302 311.91 39.4622Z" fill="#F0F0F0"/>
</g>
<path d="M429.17 352.87C429.17 358.898 345.32 363.785 241.88 363.785C138.44 363.785 54.5801 358.898 54.5801 352.87C54.5801 346.841 138.44 341.954 241.88 341.954C345.32 341.954 429.17 346.841 429.17 352.87Z" fill="#BDBDBD"/>
<path d="M394.13 252.794H139.66C133.31 252.794 128.36 247.609 128.68 241.271L138.18 47.4762C138.49 41.1372 143.94 35.9521 150.29 35.9521H404.76C411.11 35.9521 416.05 41.1372 415.74 47.4762L406.24 241.271C405.93 247.609 400.48 252.794 394.13 252.794Z" fill="#007CFF"/>
<mask id="mask0_43_649" style="mask-type:luminance" maskUnits="userSpaceOnUse" x="128" y="35" width="288" height="218">
<path d="M128.66 35.9521H415.76V252.794H128.66V35.9521Z" fill="white"/>
</mask>
<g mask="url(#mask0_43_649)">
<g opacity="0.699997">
<path d="M394.13 252.794H139.66C133.31 252.794 128.36 247.609 128.68 241.271L138.18 47.4762C138.49 41.1372 143.94 35.9521 150.29 35.9521H404.76C411.11 35.9521 416.05 41.1372 415.74 47.4762L406.24 241.271C405.93 247.609 400.48 252.794 394.13 252.794Z" fill="#4C5159"/>
</g>
</g>
<path d="M414.62 37.9869C413.27 36.4999 411.56 35.3339 409.68 34.6139L410.02 33.7139C412.05 34.4869 413.88 35.7399 415.33 37.3389L414.62 37.9869Z" fill="#007CFF"/>
<path d="M404.89 33.7399H384.54V32.7759H404.89V33.7399Z" fill="#007CFF"/>
<path d="M404.76 35.9521H150.29C143.94 35.9521 138.49 41.1382 138.18 47.4762H415.74C416.05 41.1382 411.11 35.9521 404.76 35.9521Z" fill="#1A2E35"/>
<path d="M136.45 239.73L145.23 60.5392C145.38 57.5672 147.91 55.1582 150.89 55.1582H402.27C405.25 55.1582 407.55 57.5672 407.4 60.5392L398.62 239.73C398.47 242.702 395.94 245.111 392.96 245.111H141.58C138.6 245.111 136.3 242.702 136.45 239.73Z" fill="white"/>
<mask id="mask1_43_649" style="mask-type:luminance" maskUnits="userSpaceOnUse" x="158" y="92" width="18" height="25">
<path d="M158.69 92.415H175.16V116.596H158.69V92.415Z" fill="white"/>
</mask>
<g mask="url(#mask1_43_649)">
<g opacity="0.300003">
<path d="M172.11 116.595H160.55C159.47 116.595 158.64 115.721 158.69 114.642L159.68 94.368C159.74 93.29 160.66 92.415 161.74 92.415H173.29C174.37 92.415 175.21 93.29 175.16 94.368L174.16 114.642C174.11 115.721 173.19 116.595 172.11 116.595Z" fill="#FFAFA8"/>
</g>
</g>
<mask id="mask2_43_649" style="mask-type:luminance" maskUnits="userSpaceOnUse" x="181" y="88" width="18" height="29">
<path d="M181.89 88.7822H198.54V116.596H181.89V88.7822Z" fill="white"/>
</mask>
<g mask="url(#mask2_43_649)">
<g opacity="0.300003">
<path d="M195.31 116.595H183.76C182.68 116.595 181.84 115.721 181.9 114.642L183.07 90.7352C183.12 89.6562 184.04 88.7822 185.12 88.7822H196.68C197.76 88.7822 198.59 89.6562 198.54 90.7352L197.37 114.642C197.32 115.721 196.4 116.595 195.31 116.595Z" fill="#FFAFA8"/>
</g>
</g>
<mask id="mask3_43_649" style="mask-type:luminance" maskUnits="userSpaceOnUse" x="205" y="86" width="17" height="31">
<path d="M205.1 86.2852H221.87V116.596H205.1V86.2852Z" fill="white"/>
</mask>
<g mask="url(#mask3_43_649)">
<g opacity="0.300003">
<path d="M218.52 116.595H206.97C205.88 116.595 205.05 115.721 205.1 114.642L206.4 88.2372C206.45 87.1592 207.37 86.2842 208.45 86.2842H220.01C221.09 86.2842 221.92 87.1592 221.87 88.2372L220.58 114.642C220.52 115.721 219.6 116.595 218.52 116.595Z" fill="#FFAFA8"/>
</g>
</g>
<mask id="mask4_43_649" style="mask-type:luminance" maskUnits="userSpaceOnUse" x="228" y="84" width="18" height="33">
<path d="M228.31 84.0142H245.19V116.596H228.31V84.0142Z" fill="white"/>
</mask>
<g mask="url(#mask4_43_649)">
<g opacity="0.300003">
<path d="M241.73 116.595H230.17C229.09 116.595 228.26 115.721 228.31 114.642L229.72 85.9682C229.77 84.8882 230.69 84.0142 231.77 84.0142H243.33C244.41 84.0142 245.24 84.8882 245.19 85.9682L243.78 114.642C243.73 115.721 242.81 116.595 241.73 116.595Z" fill="#FFAFA8"/>
</g>
</g>
<path d="M264.94 116.595H253.38C252.3 116.595 251.46 115.721 251.52 114.642L253.35 77.226C253.4 76.148 254.32 75.272 255.41 75.272H266.96C268.04 75.272 268.88 76.148 268.82 77.226L266.99 114.642C266.94 115.721 266.02 116.595 264.94 116.595Z" fill="#FC5546"/>
<path d="M261.91 71.3102L263.01 69.5502C263.27 69.1362 262.97 68.5972 262.48 68.5972H260.45C259.98 68.5972 259.68 69.0962 259.9 69.5112L260.83 71.2702C261.05 71.6942 261.65 71.7162 261.91 71.3102Z" fill="#1A2E35"/>
<mask id="mask5_43_649" style="mask-type:luminance" maskUnits="userSpaceOnUse" x="274" y="81" width="18" height="36">
<path d="M274.72 81.1748H291.74V116.596H274.72V81.1748Z" fill="white"/>
</mask>
<g mask="url(#mask5_43_649)">
<g opacity="0.300003">
<path d="M288.14 116.595H276.59C275.51 116.595 274.67 115.721 274.73 114.642L276.27 83.1288C276.32 82.0498 277.24 81.1758 278.32 81.1758H289.88C290.96 81.1758 291.79 82.0498 291.74 83.1288L290.2 114.642C290.14 115.721 289.22 116.595 288.14 116.595Z" fill="#FFAFA8"/>
</g>
</g>
<mask id="mask6_43_649" style="mask-type:luminance" maskUnits="userSpaceOnUse" x="158" y="121" width="132" height="2">
<path d="M158.32 121.605H289.82V122.885H158.32V121.605Z" fill="white"/>
</mask>
<g mask="url(#mask6_43_649)">
<g opacity="0.100006">
<path d="M289.15 122.885H158.93C158.57 122.885 158.3 122.597 158.32 122.245C158.33 121.893 158.64 121.605 158.99 121.605H289.21C289.56 121.605 289.84 121.893 289.82 122.245C289.8 122.597 289.5 122.885 289.15 122.885Z" fill="#1A2E35"/>
</g>
</g>
<mask id="mask7_43_649" style="mask-type:luminance" maskUnits="userSpaceOnUse" x="298" y="64" width="11" height="173">
<path d="M298.43 64.0659H308.09V236.203H298.43V64.0659Z" fill="white"/>
</mask>
<g mask="url(#mask7_43_649)">
<g opacity="0.100006">
<path d="M298.43 235.594L306.81 64.6759C306.82 64.3399 307.11 64.0659 307.45 64.0659H307.51C307.85 64.0659 308.11 64.3399 308.09 64.6759L299.71 235.594C299.69 235.929 299.41 236.203 299.07 236.203H299.01C298.67 236.203 298.41 235.929 298.43 235.594Z" fill="#1A2E35"/>
</g>
</g>
<path d="M341.42 96.5021C340.52 101.419 341.45 106.159 343.74 110.028L338 113.557C334.87 108.234 333.78 101.887 334.92 95.6331C337.27 82.7811 348.56 72.9181 361.58 72.3721L361.53 78.9491C351.85 79.3431 343.23 86.6061 341.42 96.5021Z" fill="#B02D21"/>
<mask id="mask8_43_649" style="mask-type:luminance" maskUnits="userSpaceOnUse" x="361" y="72" width="26" height="20">
<path d="M361.53 72.3472H386.74V91.4502H361.53V72.3472Z" fill="white"/>
</mask>
<g mask="url(#mask8_43_649)">
<g opacity="0.300003">
<path d="M386.74 88.9442L380.52 91.4492C378.16 84.9942 372.44 80.0982 365.05 79.1102C363.87 78.9522 362.69 78.8982 361.53 78.9482L361.57 72.3712C363.15 72.3032 364.7 72.3772 366.24 72.5832C375.69 73.8472 383.53 80.0972 386.74 88.9442Z" fill="#FFCCCC"/>
</g>
</g>
<path d="M387.87 102.713C385.21 117.304 371.07 127.714 356.54 125.77C348.72 124.725 341.93 120.252 338 113.556L343.74 110.028C346.61 114.903 351.59 118.424 357.73 119.244C368.76 120.72 379.35 112.926 381.38 101.845C382.04 98.1829 381.7 94.6239 380.52 91.4489L386.75 88.9429C388.34 93.2979 388.72 98.0469 387.87 102.713Z" fill="#FC5546"/>
<path d="M341.25 76.6701C341.13 76.6701 341 76.6201 340.9 76.5211L336.62 72.0231H321.91C321.65 72.0231 321.43 71.8071 321.43 71.5411C321.43 71.2741 321.65 71.0591 321.91 71.0591H336.82C336.96 71.0591 337.08 71.1131 337.17 71.2081L341.6 75.8561C341.79 76.0491 341.78 76.3541 341.59 76.5371C341.49 76.6261 341.37 76.6701 341.25 76.6701Z" fill="#1A2E35"/>
<mask id="mask9_43_649" style="mask-type:luminance" maskUnits="userSpaceOnUse" x="355" y="143" width="30" height="37">
<path d="M355.03 143.376H384.82V179.828H355.03V143.376Z" fill="white"/>
</mask>
<g mask="url(#mask9_43_649)">
<g opacity="0.300003">
<path d="M369.23 152.857C365.09 150.3 360.32 149.479 355.73 150.207L355.03 143.706C361.32 142.718 367.65 143.963 372.91 147.215C383.71 153.899 387.8 167.723 382.54 179.829L376.5 177.468C380.42 168.465 377.55 158.003 369.23 152.857Z" fill="#FFCCCC"/>
</g>
</g>
<path d="M356.12 197.02L356.57 190.44C363.56 190.559 370.61 187.049 374.79 180.633C375.46 179.608 376.03 178.546 376.49 177.469L382.54 179.829C381.9 181.291 381.15 182.689 380.27 184.027C374.93 192.233 365.7 197.199 356.12 197.02Z" fill="#B02D21"/>
<path d="M342.93 193.193C330.67 185.604 327.34 168.98 335.56 156.367C339.99 149.577 347.12 144.937 355.03 143.706L355.73 150.207C349.97 151.108 344.52 154.432 341.05 159.761C334.8 169.34 337.29 181.788 346.61 187.55C349.69 189.454 353.12 190.395 356.57 190.44L356.12 197.021C351.4 196.944 346.86 195.619 342.93 193.193Z" fill="#FC5546"/>
<path d="M337.77 147.699C337.64 147.699 337.52 147.649 337.42 147.55L333.13 143.052H318.43C318.17 143.052 317.95 142.836 317.95 142.57C317.95 142.303 318.17 142.088 318.43 142.088H333.34C333.47 142.088 333.6 142.142 333.69 142.237L338.12 146.884C338.31 147.077 338.3 147.383 338.1 147.566C338.01 147.655 337.89 147.699 337.77 147.699Z" fill="#1A2E35"/>
<path d="M325.01 220.97H320.12C318.76 220.97 317.6 222.075 317.53 223.427L317.29 228.312C317.23 229.663 318.28 230.769 319.64 230.769H324.53C325.89 230.769 327.05 229.663 327.11 228.312L327.35 223.427C327.42 222.075 326.37 220.97 325.01 220.97Z" fill="#FC5546"/>
<path d="M352.43 220.97H347.53C346.18 220.97 345.02 222.075 344.95 223.427L344.71 228.312C344.65 229.663 345.7 230.769 347.05 230.769H351.95C353.3 230.769 354.47 229.663 354.53 228.312L354.77 223.427C354.84 222.075 353.78 220.97 352.43 220.97Z" fill="#B02D21"/>
<mask id="mask10_43_649" style="mask-type:luminance" maskUnits="userSpaceOnUse" x="372" y="220" width="11" height="11">
<path d="M372.13 220.97H382.19V230.769H372.13V220.97Z" fill="white"/>
</mask>
<g mask="url(#mask10_43_649)">
<g opacity="0.300003">
<path d="M379.85 220.97H374.95C373.6 220.97 372.44 222.075 372.37 223.427L372.13 228.312C372.06 229.663 373.12 230.769 374.47 230.769H379.37C380.72 230.769 381.88 229.663 381.95 228.312L382.19 223.427C382.26 222.075 381.2 220.97 379.85 220.97Z" fill="#FFF0F0"/>
</g>
</g>
<path d="M171.45 164.501L171.38 165.774H166.57C166.65 165.292 166.83 164.837 167.11 164.408C167.39 163.976 167.93 163.403 168.74 162.691C169.38 162.116 169.78 161.726 169.93 161.521C170.13 161.238 170.24 160.958 170.26 160.682C170.27 160.376 170.2 160.142 170.04 159.98C169.89 159.814 169.66 159.731 169.38 159.731C169.09 159.731 168.86 159.817 168.68 159.99C168.5 160.162 168.39 160.448 168.34 160.848L166.98 160.711C167.1 159.957 167.38 159.416 167.83 159.087C168.28 158.759 168.82 158.595 169.46 158.595C170.17 158.595 170.72 158.785 171.1 159.165C171.49 159.546 171.67 160.019 171.64 160.585C171.62 160.906 171.55 161.214 171.42 161.506C171.29 161.796 171.09 162.1 170.83 162.418C170.65 162.63 170.33 162.934 169.88 163.33C169.43 163.727 169.14 163.99 169.02 164.12C168.9 164.25 168.8 164.377 168.72 164.501H171.45ZM172.43 163.935L173.8 163.794C173.82 164.102 173.93 164.348 174.11 164.53C174.29 164.709 174.51 164.798 174.76 164.798C175.05 164.798 175.3 164.683 175.51 164.452C175.72 164.218 175.83 163.867 175.86 163.399C175.88 162.96 175.79 162.631 175.61 162.413C175.42 162.192 175.17 162.082 174.86 162.082C174.46 162.082 174.1 162.256 173.77 162.604L172.66 162.443L173.55 158.722H177.18L177.12 160.004H174.53L174.25 161.219C174.57 161.066 174.88 160.989 175.2 160.989C175.81 160.989 176.32 161.21 176.72 161.653C177.12 162.095 177.3 162.669 177.27 163.374C177.24 163.963 177.04 164.488 176.68 164.949C176.18 165.58 175.52 165.896 174.69 165.896C174.03 165.896 173.5 165.718 173.1 165.364C172.7 165.01 172.48 164.533 172.43 163.935ZM178.18 165.774L178.24 164.403H179.61L179.55 165.774H178.18ZM180.78 163.935L182.15 163.794C182.17 164.102 182.28 164.348 182.46 164.53C182.64 164.709 182.86 164.798 183.11 164.798C183.4 164.798 183.65 164.683 183.86 164.452C184.07 164.218 184.18 163.867 184.2 163.399C184.23 162.96 184.14 162.631 183.96 162.413C183.77 162.192 183.52 162.082 183.21 162.082C182.81 162.082 182.45 162.256 182.12 162.604L181.01 162.443L181.9 158.722H185.53L185.47 160.004H182.88L182.6 161.219C182.92 161.066 183.23 160.989 183.55 160.989C184.16 160.989 184.67 161.21 185.07 161.653C185.47 162.095 185.65 162.669 185.62 163.374C185.59 163.963 185.39 164.488 185.03 164.949C184.53 165.58 183.87 165.896 183.04 165.896C182.38 165.896 181.85 165.718 181.45 165.364C181.05 165.01 180.83 164.533 180.78 163.935ZM188.92 165.774L188.99 164.335H186.06L186.12 163.135L189.45 158.595H190.6L190.38 163.13H191.27L191.21 164.335H190.32L190.25 165.774H188.92ZM189.05 163.13L189.17 160.687L187.41 163.13H189.05Z" fill="#1A2E35"/>
<path d="M192.82 160.08C192.85 159.467 193 159.013 193.29 158.717C193.57 158.422 193.94 158.274 194.4 158.274C194.88 158.274 195.25 158.422 195.5 158.717C195.76 159.01 195.87 159.464 195.84 160.08C195.81 160.692 195.65 161.146 195.37 161.442C195.08 161.737 194.71 161.885 194.25 161.885C193.77 161.885 193.41 161.739 193.15 161.446C192.9 161.151 192.79 160.695 192.82 160.08ZM193.84 160.07C193.82 160.515 193.86 160.813 193.95 160.966C194.02 161.078 194.13 161.134 194.26 161.134C194.4 161.134 194.52 161.078 194.6 160.966C194.71 160.813 194.77 160.515 194.79 160.07C194.81 159.625 194.78 159.329 194.69 159.179C194.62 159.064 194.51 159.007 194.37 159.007C194.23 159.007 194.12 159.063 194.04 159.175C193.93 159.327 193.86 159.625 193.84 160.07ZM195.05 165.49H194.08L198.08 158.274H199.02L195.05 165.49ZM197.26 163.695C197.29 163.082 197.44 162.628 197.73 162.332C198.01 162.037 198.39 161.889 198.86 161.889C199.33 161.889 199.69 162.037 199.94 162.332C200.2 162.628 200.31 163.082 200.28 163.695C200.25 164.31 200.09 164.766 199.81 165.061C199.52 165.357 199.15 165.504 198.69 165.504C198.22 165.504 197.85 165.357 197.59 165.061C197.34 164.766 197.23 164.31 197.26 163.695ZM198.28 163.69C198.26 164.135 198.3 164.432 198.39 164.581C198.46 164.696 198.57 164.753 198.71 164.753C198.85 164.753 198.96 164.697 199.04 164.585C199.15 164.433 199.21 164.135 199.23 163.69C199.26 163.245 199.22 162.947 199.13 162.794C199.06 162.682 198.95 162.626 198.81 162.626C198.67 162.626 198.56 162.682 198.48 162.794C198.37 162.947 198.3 163.245 198.28 163.69Z" fill="#1A2E35"/>
<path d="M208.79 177.95C208.75 177.95 208.71 177.947 208.67 177.937C208.41 177.876 208.25 177.616 208.32 177.358C211.58 163.653 218.51 149.623 226.62 149.167C232.08 148.865 235.19 153.405 238.8 158.667C241.4 162.453 244.35 166.746 248.66 169.977C251.64 172.206 254.68 172.786 257.69 171.703C264.4 169.286 270.83 158.389 274.46 143.263C274.52 143.005 274.78 142.843 275.04 142.906C275.3 142.969 275.46 143.229 275.4 143.487C271.64 159.159 265.14 170.046 258.02 172.609C254.68 173.81 251.34 173.184 248.08 170.748C243.64 167.423 240.64 163.06 238 159.211C234.41 153.983 231.59 149.873 226.68 150.129C219.06 150.557 212.44 164.225 209.26 177.579C209.2 177.802 209 177.95 208.79 177.95Z" fill="#FC5546"/>
<mask id="mask11_43_649" style="mask-type:luminance" maskUnits="userSpaceOnUse" x="155" y="135" width="135" height="50">
<path d="M155.14 135.219H289.3V184.624H155.14V135.219Z" fill="white"/>
</mask>
<g mask="url(#mask11_43_649)">
<g opacity="0.100006">
<path d="M164.89 136.183C161.16 136.183 157.97 139.217 157.79 142.946L156.12 176.945C156.03 178.735 156.65 180.421 157.86 181.692C159.08 182.96 160.73 183.66 162.52 183.66H279.55C283.29 183.66 286.48 180.628 286.66 176.898L288.33 142.898C288.41 141.108 287.79 139.423 286.58 138.152C285.37 136.882 283.72 136.183 281.93 136.183H164.89ZM279.55 184.624H162.52C160.46 184.624 158.56 183.819 157.17 182.356C155.77 180.893 155.05 178.953 155.15 176.898L156.82 142.898C157.03 138.664 160.65 135.219 164.89 135.219H281.93C283.98 135.219 285.88 136.024 287.28 137.487C288.68 138.951 289.39 140.89 289.29 142.946L287.62 176.945C287.42 181.18 283.8 184.624 279.55 184.624Z" fill="#1A2E35"/>
</g>
</g>
<mask id="mask12_43_649" style="mask-type:luminance" maskUnits="userSpaceOnUse" x="166" y="140" width="25" height="5">
<path d="M166.8 140.447H190.13V144.855H166.8V140.447Z" fill="white"/>
</mask>
<g mask="url(#mask12_43_649)">
<g opacity="0.100006">
<path d="M169.1 141.411C168.41 141.411 167.8 141.989 167.77 142.675C167.75 143 167.86 143.305 168.08 143.536C168.3 143.764 168.6 143.89 168.93 143.89H187.83C188.52 143.89 189.13 143.312 189.16 142.628C189.18 142.302 189.06 141.996 188.84 141.767C188.63 141.537 188.33 141.411 188 141.411H169.1ZM187.83 144.854H168.93C168.33 144.854 167.79 144.622 167.38 144.2C166.98 143.778 166.77 143.219 166.8 142.628C166.86 141.426 167.89 140.447 169.1 140.447H188C188.59 140.447 189.14 140.679 189.54 141.102C189.95 141.525 190.15 142.083 190.13 142.675C190.07 143.877 189.04 144.854 187.83 144.854Z" fill="#1A2E35"/>
</g>
</g>
<path d="M170.68 173.526H165.77L165.53 178.424H170.44L170.68 173.526Z" fill="#FC5546"/>
<mask id="mask13_43_649" style="mask-type:luminance" maskUnits="userSpaceOnUse" x="162" y="219" width="19" height="18">
<path d="M162.86 219.486H180.07V236.162H162.86V219.486Z" fill="white"/>
</mask>
<g mask="url(#mask13_43_649)">
<g opacity="0.300003">
<path d="M176.06 236.162H166.05C164.21 236.162 162.78 234.658 162.87 232.82L163.36 222.828C163.45 220.99 165.03 219.486 166.87 219.486H176.88C178.72 219.486 180.16 220.99 180.07 222.828L179.58 232.82C179.49 234.658 177.91 236.162 176.06 236.162Z" fill="#29C041"/>
</g>
</g>
<mask id="mask14_43_649" style="mask-type:luminance" maskUnits="userSpaceOnUse" x="185" y="224" width="33" height="7">
<path d="M185.87 224.941H217.47V230.707H185.87V224.941Z" fill="white"/>
</mask>
<g mask="url(#mask14_43_649)">
<g opacity="0.100006">
<path d="M188.88 225.905C187.81 225.905 186.89 226.776 186.84 227.848C186.81 228.353 186.99 228.83 187.33 229.188C187.67 229.546 188.14 229.743 188.64 229.743H214.46C215.53 229.743 216.45 228.872 216.5 227.801C216.52 227.294 216.35 226.818 216.01 226.459C215.67 226.102 215.2 225.905 214.7 225.905H188.88ZM214.46 230.707H188.64C187.87 230.707 187.16 230.404 186.63 229.853C186.1 229.301 185.83 228.573 185.87 227.801C185.95 226.224 187.3 224.941 188.88 224.941H214.7C215.47 224.941 216.18 225.244 216.71 225.795C217.23 226.346 217.5 227.076 217.46 227.848C217.39 229.424 216.04 230.707 214.46 230.707Z" fill="#1A2E35"/>
</g>
</g>
<path d="M171.35 230.707C171.34 230.707 171.33 230.707 171.32 230.706C171.06 230.694 170.85 230.467 170.87 230.202L171.07 225.933C171.09 225.666 171.31 225.435 171.58 225.475C171.85 225.488 172.05 225.714 172.04 225.981L171.83 230.248C171.82 230.507 171.6 230.707 171.35 230.707Z" fill="#007CFF"/>
<path d="M169.51 227.874C169.39 227.874 169.26 227.824 169.16 227.725C168.98 227.533 168.99 227.227 169.18 227.043L171.25 225.074C171.34 224.986 171.47 224.938 171.6 224.941C171.72 224.944 171.85 224.999 171.93 225.09L173.81 227.06C174 227.252 173.99 227.558 173.79 227.741C173.6 227.924 173.3 227.918 173.11 227.725L171.57 226.104L169.85 227.741C169.75 227.83 169.63 227.874 169.51 227.874Z" fill="#1B822B"/>
<path d="M166.96 207.316L167.08 204.864C166.32 204.646 165.78 204.316 165.44 203.875C165.1 203.43 164.95 202.892 164.98 202.26C165.02 201.62 165.24 201.083 165.67 200.65C166.09 200.213 166.65 199.962 167.32 199.895L167.35 199.316H168.2L168.17 199.895C168.79 199.97 169.27 200.182 169.62 200.533C169.97 200.881 170.18 201.347 170.26 201.932L168.76 202.125C168.7 201.665 168.48 201.353 168.11 201.189L167.99 203.477C168.92 203.731 169.54 204.06 169.86 204.466C170.18 204.868 170.33 205.385 170.3 206.017C170.26 206.723 170.02 207.318 169.56 207.802C169.11 208.286 168.51 208.582 167.74 208.692L167.69 209.786H166.84L166.89 208.721C166.22 208.639 165.68 208.387 165.28 207.966C164.88 207.544 164.64 206.949 164.56 206.181L166.1 206.017C166.14 206.329 166.25 206.598 166.41 206.825C166.57 207.051 166.75 207.215 166.96 207.316ZM167.26 201.171C167.02 201.249 166.83 201.382 166.69 201.569C166.54 201.756 166.46 201.963 166.45 202.19C166.44 202.396 166.5 202.589 166.61 202.769C166.73 202.945 166.91 203.087 167.16 203.196L167.26 201.171ZM167.8 207.398C168.1 207.344 168.34 207.209 168.54 206.994C168.73 206.776 168.84 206.52 168.85 206.228C168.86 205.966 168.8 205.742 168.65 205.555C168.51 205.363 168.26 205.217 167.91 205.116L167.8 207.398ZM171.27 206.31L172.88 206.116C172.91 206.522 173.03 206.832 173.24 207.047C173.45 207.262 173.72 207.369 174.03 207.369C174.37 207.369 174.66 207.24 174.91 206.983C175.15 206.725 175.29 206.378 175.31 205.941C175.33 205.527 175.23 205.2 175.02 204.958C174.81 204.716 174.55 204.595 174.23 204.595C174.02 204.595 173.76 204.636 173.47 204.718L173.71 203.378C174.16 203.389 174.5 203.294 174.75 203.091C174.99 202.884 175.12 202.611 175.14 202.271C175.15 201.983 175.08 201.753 174.91 201.581C174.75 201.409 174.53 201.323 174.24 201.323C173.96 201.323 173.71 201.421 173.51 201.616C173.3 201.811 173.16 202.096 173.1 202.47L171.6 202.213C171.73 201.694 171.91 201.28 172.13 200.972C172.36 200.66 172.67 200.416 173.06 200.241C173.45 200.061 173.88 199.972 174.35 199.972C175.16 199.972 175.8 200.229 176.26 200.744C176.64 201.165 176.82 201.641 176.8 202.172C176.76 202.925 176.32 203.526 175.47 203.975C175.96 204.08 176.34 204.316 176.61 204.683C176.89 205.049 177.02 205.492 176.99 206.011C176.96 206.764 176.65 207.406 176.07 207.937C175.5 208.467 174.8 208.732 173.98 208.732C173.2 208.732 172.57 208.51 172.08 208.065C171.59 207.617 171.32 207.031 171.27 206.31ZM183.53 207.059L183.46 208.586H177.69C177.78 208.009 177.99 207.463 178.33 206.948C178.67 206.429 179.32 205.742 180.28 204.887C181.06 204.197 181.54 203.729 181.72 203.483C181.96 203.143 182.09 202.808 182.11 202.476C182.12 202.11 182.04 201.829 181.85 201.634C181.66 201.435 181.4 201.335 181.05 201.335C180.71 201.335 180.43 201.439 180.21 201.645C180 201.852 179.87 202.195 179.81 202.675L178.18 202.511C178.32 201.606 178.66 200.957 179.19 200.563C179.73 200.169 180.38 199.972 181.16 199.972C182 199.972 182.66 200.2 183.12 200.656C183.58 201.113 183.8 201.68 183.76 202.359C183.75 202.746 183.66 203.114 183.5 203.465C183.35 203.813 183.11 204.177 182.79 204.56C182.58 204.813 182.2 205.178 181.66 205.654C181.11 206.13 180.77 206.446 180.62 206.602C180.48 206.758 180.36 206.91 180.26 207.059H183.53ZM184.63 206.31L186.23 206.116C186.27 206.522 186.39 206.832 186.6 207.047C186.81 207.262 187.08 207.369 187.39 207.369C187.73 207.369 188.02 207.24 188.27 206.983C188.51 206.725 188.65 206.378 188.67 205.941C188.69 205.527 188.59 205.2 188.38 204.958C188.17 204.716 187.91 204.595 187.59 204.595C187.38 204.595 187.12 204.636 186.82 204.718L187.07 203.378C187.52 203.389 187.86 203.294 188.11 203.091C188.35 202.884 188.48 202.611 188.5 202.271C188.51 201.983 188.44 201.753 188.27 201.581C188.11 201.409 187.89 201.323 187.6 201.323C187.32 201.323 187.07 201.421 186.87 201.616C186.66 201.811 186.52 202.096 186.46 202.47L184.96 202.213C185.09 201.694 185.26 201.28 185.49 200.972C185.72 200.66 186.03 200.416 186.42 200.241C186.81 200.061 187.24 199.972 187.71 199.972C188.52 199.972 189.16 200.229 189.62 200.744C190 201.165 190.18 201.641 190.15 202.172C190.12 202.925 189.68 203.526 188.83 203.975C189.32 204.08 189.7 204.316 189.97 204.683C190.25 205.049 190.38 205.492 190.35 206.011C190.32 206.764 190.01 207.406 189.43 207.937C188.86 208.467 188.16 208.732 187.34 208.732C186.56 208.732 185.93 208.51 185.44 208.065C184.95 207.617 184.68 207.031 184.63 206.31ZM191.65 206.942H193.3L193.24 208.118C193.21 208.594 193.16 208.969 193.06 209.242C192.96 209.519 192.8 209.766 192.55 209.985C192.32 210.203 192.02 210.375 191.66 210.5L191.37 209.821C191.71 209.712 191.95 209.562 192.1 209.37C192.25 209.179 192.34 208.918 192.37 208.586H191.57L191.65 206.942ZM197.8 199.972C198.64 199.972 199.27 200.268 199.71 200.861C200.24 201.563 200.46 202.728 200.38 204.355C200.3 205.978 199.96 207.145 199.36 207.855C198.87 208.44 198.21 208.732 197.37 208.732C196.54 208.732 195.88 208.413 195.4 207.773C194.92 207.129 194.72 205.984 194.8 204.337C194.88 202.722 195.22 201.559 195.82 200.849C196.31 200.264 196.97 199.972 197.8 199.972ZM197.74 201.335C197.54 201.335 197.36 201.399 197.19 201.528C197.03 201.653 196.9 201.879 196.8 202.207C196.66 202.632 196.57 203.348 196.52 204.355C196.47 205.362 196.49 206.054 196.57 206.433C196.66 206.807 196.77 207.057 196.92 207.182C197.07 207.306 197.24 207.369 197.44 207.369C197.64 207.369 197.82 207.306 197.98 207.182C198.15 207.053 198.28 206.825 198.38 206.497C198.51 206.076 198.61 205.362 198.66 204.355C198.7 203.348 198.69 202.658 198.6 202.283C198.52 201.905 198.4 201.653 198.25 201.528C198.11 201.399 197.94 201.335 197.74 201.335ZM201.62 201.651L201.69 200.124H207.32L207.26 201.318C206.78 201.774 206.27 202.429 205.75 203.284C205.23 204.138 204.82 205.047 204.52 206.011C204.22 206.971 204.05 207.829 204.02 208.586H202.43C202.52 207.4 202.82 206.191 203.34 204.958C203.87 203.725 204.54 202.623 205.36 201.651H201.62ZM209.6 203.957C209.18 203.777 208.88 203.532 208.7 203.22C208.53 202.904 208.45 202.558 208.46 202.184C208.5 201.544 208.74 201.015 209.21 200.598C209.68 200.18 210.33 199.972 211.15 199.972C211.97 199.972 212.59 200.18 213.02 200.598C213.45 201.015 213.65 201.544 213.62 202.184C213.6 202.582 213.48 202.937 213.26 203.249C213.04 203.557 212.73 203.793 212.35 203.957C212.82 204.148 213.17 204.427 213.39 204.794C213.63 205.161 213.73 205.584 213.71 206.064C213.67 206.856 213.38 207.5 212.85 207.995C212.32 208.491 211.64 208.738 210.8 208.738C210.02 208.738 209.38 208.533 208.88 208.124C208.29 207.64 208.01 206.977 208.05 206.134C208.08 205.67 208.21 205.244 208.46 204.858C208.71 204.468 209.09 204.168 209.6 203.957ZM210.02 202.301C210 202.628 210.08 202.884 210.26 203.067C210.43 203.251 210.68 203.342 210.99 203.342C211.3 203.342 211.55 203.251 211.75 203.067C211.95 202.88 212.05 202.623 212.07 202.295C212.08 201.987 212 201.741 211.82 201.558C211.65 201.37 211.41 201.277 211.1 201.277C210.79 201.277 210.53 201.37 210.34 201.558C210.14 201.745 210.03 201.993 210.02 202.301ZM209.68 205.976C209.66 206.429 209.76 206.782 209.98 207.035C210.2 207.289 210.49 207.416 210.83 207.416C211.17 207.416 211.46 207.295 211.69 207.053C211.93 206.807 212.06 206.454 212.08 205.994C212.1 205.592 212 205.27 211.79 205.028C211.57 204.782 211.29 204.659 210.94 204.659C210.54 204.659 210.23 204.798 210.02 205.075C209.81 205.352 209.7 205.652 209.68 205.976ZM214.99 208.586L215.07 206.942H216.72L216.64 208.586H214.99ZM221.18 199.972C222.01 199.972 222.65 200.268 223.09 200.861C223.61 201.563 223.84 202.728 223.76 204.355C223.68 205.978 223.34 207.145 222.74 207.855C222.25 208.44 221.58 208.732 220.75 208.732C219.92 208.732 219.26 208.413 218.78 207.773C218.3 207.129 218.1 205.984 218.18 204.337C218.26 202.722 218.6 201.559 219.19 200.849C219.69 200.264 220.35 199.972 221.18 199.972ZM221.12 201.335C220.92 201.335 220.74 201.399 220.57 201.528C220.41 201.653 220.28 201.879 220.18 202.207C220.04 202.632 219.95 203.348 219.9 204.355C219.85 205.362 219.87 206.054 219.95 206.433C220.03 206.807 220.15 207.057 220.3 207.182C220.45 207.306 220.62 207.369 220.82 207.369C221.02 207.369 221.2 207.306 221.36 207.182C221.52 207.053 221.66 206.825 221.76 206.497C221.89 206.076 221.98 205.362 222.03 204.355C222.08 203.348 222.07 202.658 221.98 202.283C221.9 201.905 221.78 201.653 221.63 201.528C221.49 201.399 221.31 201.335 221.12 201.335ZM227.86 199.972C228.69 199.972 229.33 200.268 229.77 200.861C230.29 201.563 230.52 202.728 230.44 204.355C230.36 205.978 230.02 207.145 229.42 207.855C228.93 208.44 228.26 208.732 227.43 208.732C226.6 208.732 225.94 208.413 225.46 207.773C224.98 207.129 224.78 205.984 224.86 204.337C224.94 202.722 225.28 201.559 225.87 200.849C226.37 200.264 227.03 199.972 227.86 199.972ZM227.8 201.335C227.6 201.335 227.42 201.399 227.25 201.528C227.09 201.653 226.96 201.879 226.86 202.207C226.72 202.632 226.63 203.348 226.58 204.355C226.53 205.362 226.55 206.054 226.63 206.433C226.71 206.807 226.83 207.057 226.98 207.182C227.13 207.306 227.3 207.369 227.5 207.369C227.7 207.369 227.88 207.306 228.04 207.182C228.2 207.053 228.34 206.825 228.44 206.497C228.57 206.076 228.66 205.362 228.71 204.355C228.76 203.348 228.75 202.658 228.66 202.283C228.58 201.905 228.46 201.653 228.31 201.528C228.17 201.399 227.99 201.335 227.8 201.335Z" fill="#1A2E35"/>
<mask id="mask15_43_649" style="mask-type:luminance" maskUnits="userSpaceOnUse" x="228" y="219" width="18" height="18">
<path d="M228.08 219.486H245.29V236.162H228.08V219.486Z" fill="white"/>
</mask>
<g mask="url(#mask15_43_649)">
<g opacity="0.399994">
<path d="M242.1 219.486H232.09C230.25 219.486 228.67 220.99 228.58 222.828L228.09 232.82C228 234.658 229.43 236.162 231.27 236.162H241.29C243.13 236.162 244.71 234.658 244.8 232.82L245.29 222.828C245.38 220.99 243.94 219.486 242.1 219.486Z" fill="#1A2E35"/>
</g>
</g>
<mask id="mask16_43_649" style="mask-type:luminance" maskUnits="userSpaceOnUse" x="251" y="224" width="32" height="7">
<path d="M251.09 224.941H282.69V230.707H251.09V224.941Z" fill="white"/>
</mask>
<g mask="url(#mask16_43_649)">
<g opacity="0.100006">
<path d="M254.1 225.905C253.03 225.905 252.11 226.776 252.06 227.848C252.03 228.353 252.21 228.83 252.55 229.188C252.89 229.546 253.36 229.743 253.86 229.743H279.68C280.75 229.743 281.67 228.871 281.72 227.801C281.75 227.294 281.57 226.818 281.23 226.459C280.89 226.102 280.42 225.905 279.92 225.905H254.1ZM279.68 230.707H253.86C253.09 230.707 252.38 230.404 251.85 229.853C251.33 229.301 251.06 228.573 251.1 227.801C251.17 226.224 252.52 224.941 254.1 224.941H279.92C280.69 224.941 281.4 225.244 281.93 225.795C282.46 226.346 282.73 227.076 282.69 227.848C282.61 229.424 281.26 230.707 279.68 230.707Z" fill="#1A2E35"/>
</g>
</g>
<path d="M236.6 230.173C236.59 230.173 236.58 230.173 236.57 230.172C236.31 230.16 236.1 229.933 236.11 229.668L236.32 225.4C236.34 225.133 236.56 224.909 236.83 224.942C237.1 224.954 237.3 225.181 237.29 225.447L237.08 229.714C237.07 229.973 236.85 230.173 236.6 230.173Z" fill="white"/>
<path d="M236.57 230.707H236.56C236.43 230.704 236.31 230.649 236.22 230.558L234.34 228.588C234.16 228.395 234.17 228.09 234.36 227.907C234.55 227.723 234.86 227.729 235.04 227.923L236.59 229.543L238.31 227.907C238.5 227.723 238.8 227.73 238.99 227.923C239.17 228.116 239.17 228.42 238.97 228.605L236.9 230.574C236.81 230.659 236.69 230.707 236.57 230.707Z" fill="white"/>
<path d="M108.67 62.4759C104.78 67.4959 104.1 74.4169 104.31 77.9539C104.58 82.3469 98.8402 82.5509 100.43 90.1799C101.81 96.7959 97.7801 98.8929 97.8701 104.035C98.0901 116.036 108.87 119.587 129 116.036C149.13 112.485 137.03 94.1489 139.72 86.9349C142.42 79.7209 140.28 62.7859 134.9 63.5469C135.51 50.8009 116.43 52.4609 108.67 62.4759Z" fill="#1A2E35"/>
<path d="M115.48 116.449C115.34 118.892 115.08 121.087 114.76 123.386C114.42 125.658 114.03 127.928 113.52 130.189C113.02 132.456 112.42 134.719 111.71 136.979C110.99 139.247 110.13 141.508 109.08 143.77L108.85 144.25C107.77 146.577 105.05 147.634 102.69 146.72C101.26 146.165 100.01 145.519 98.7902 144.864C97.5602 144.217 96.4202 143.485 95.2902 142.767C94.1702 142.025 93.0802 141.258 92.0102 140.449C90.9502 139.629 89.9302 138.809 88.9102 137.865C87.7202 136.751 87.6502 134.882 88.7702 133.69C89.5102 132.894 90.6001 132.601 91.5901 132.824L91.6901 132.847C92.9201 133.128 94.1702 133.492 95.3902 133.833L99.0102 134.895L102.53 135.926C103.67 136.251 104.81 136.534 105.82 136.755L99.4401 139.706C100.06 137.904 100.57 135.986 101.05 134.027C101.5 132.047 101.89 130.026 102.25 127.984C102.58 125.931 102.91 123.864 103.18 121.784C103.45 119.732 103.7 117.56 103.92 115.624L103.93 115.491C104.29 112.316 107.15 110.027 110.33 110.378C113.4 110.717 115.65 113.409 115.48 116.449Z" fill="#FC5546"/>
<path d="M88.1896 129.526L85.8098 128.681C84.5798 128.244 83.2296 128.901 82.8196 130.136L81.9197 132.845C81.5597 133.923 82.0397 135.102 83.0497 135.631L86.0197 137.191C86.0197 137.191 90.8897 140.894 93.2797 138.63L94.5997 134.768L91.0197 131.285C90.2097 130.502 89.2496 129.902 88.1896 129.526Z" fill="#FC5546"/>
<path d="M114.3 103.192C107.18 104.53 105.67 107.435 100.43 118.223C102.01 125.321 115.52 131.56 115.52 131.56C115.52 131.56 126.04 112.369 114.3 103.192Z" fill="#1A2E35"/>
<path d="M126.52 346.575C130.98 340.634 131.35 338.996 134.16 335.875C136.56 333.195 136.55 333.403 139.38 331.107C141.25 329.586 140.13 327.402 138.4 326.478C137.06 325.758 135.57 325.126 133.96 324.181L126.59 330.174C127.32 333.583 125.81 340.681 122.7 345.396C120.49 348.773 124.73 348.951 126.52 346.575Z" fill="#1A2E35"/>
<path d="M104.78 157.209C104.78 157.209 97.9201 205.23 92.8201 237.999C91.7901 244.573 92.4202 251.083 94.6302 256.968C103.38 280.211 126.04 330.748 126.04 330.748C127.08 331.765 133.35 325.816 133.96 324.181C133.96 324.181 126.12 260.315 113.94 246.004C138.79 194.83 138.41 157.209 138.41 157.209H104.78Z" fill="#0E2B5C"/>
<mask id="mask17_43_649" style="mask-type:luminance" maskUnits="userSpaceOnUse" x="113" y="158" width="26" height="169">
<path d="M113.11 158.638H138.39V326.656H113.11V158.638Z" fill="white"/>
</mask>
<g mask="url(#mask17_43_649)">
<g opacity="0.199997">
<path d="M138.39 158.638L120.05 159.916C120.05 159.916 116.5 212.666 115.74 242.242C136.1 198.732 138.18 165.731 138.39 158.638Z" fill="black"/>
<path d="M115.61 248.292C115.36 263.455 114.59 283.195 113.11 301.422C117.75 312.098 121.93 321.534 124.22 326.657C126.42 320.304 128.88 312.722 131.09 304.682C128 286.103 122.6 259.367 115.61 248.292Z" fill="black"/>
</g>
</g>
<path d="M122.79 328.255C123.35 329.075 124.32 330.54 125 331.658C125.23 332.028 125.73 332.106 126.14 331.843C129.2 329.881 133.43 325.848 134.81 324.507C135.08 324.242 135.17 323.856 135.03 323.543L133.55 320.189C133.35 319.731 132.75 319.623 132.31 319.963L123.05 327.107C122.67 327.398 122.56 327.903 122.79 328.255Z" fill="#007CFF"/>
<mask id="mask18_43_649" style="mask-type:luminance" maskUnits="userSpaceOnUse" x="122" y="319" width="14" height="13">
<path d="M122.67 319.763H135.09V331.999H122.67V319.763Z" fill="white"/>
</mask>
<g mask="url(#mask18_43_649)">
<g opacity="0.300003">
<path d="M122.79 328.255C123.35 329.075 124.32 330.54 125 331.658C125.23 332.028 125.73 332.106 126.14 331.843C129.2 329.881 133.43 325.848 134.81 324.507C135.08 324.242 135.17 323.856 135.03 323.543L133.55 320.189C133.35 319.731 132.75 319.623 132.31 319.963L123.05 327.107C122.67 327.398 122.56 327.903 122.79 328.255Z" fill="white"/>
</g>
</g>
<path d="M100.91 348.946C107.92 350.339 110.63 350.766 114.62 351.421C118.05 351.977 118.68 352.54 121.41 353.021C123.7 353.425 124.51 351.336 124.84 348.816C125.01 347.551 125.32 344.439 125.67 342.411L114.81 341.837C112.22 344.185 105.32 344.961 101.15 344.683C97.17 344.417 98.1201 348.391 100.91 348.946Z" fill="#1A2E35"/>
<path d="M114.86 157.209C114.86 157.209 118.47 218.881 119.13 246.834C119.83 276.189 119.26 322.053 113.93 341.553C115.39 342.524 122.16 342.529 125.68 341.5C125.68 341.5 147.64 279.319 139.37 248.131C156.01 179.435 146.12 163.213 143.36 157.209H114.86Z" fill="#0E2B5C"/>
<path d="M114.86 337.567C114.53 338.524 113.92 340.189 113.26 341.443C113.03 341.894 113.21 342.351 113.66 342.469C117.42 343.451 123.43 343.078 125.35 342.924C125.71 342.894 126.06 342.648 126.22 342.312L127.96 338.708C128.2 338.216 127.94 337.729 127.42 337.691L115.92 336.86C115.47 336.826 115.01 337.135 114.86 337.567Z" fill="#007CFF"/>
<mask id="mask19_43_649" style="mask-type:luminance" maskUnits="userSpaceOnUse" x="113" y="336" width="16" height="8">
<path d="M113.16 336.857H128.05V343.123H113.16V336.857Z" fill="white"/>
</mask>
<g mask="url(#mask19_43_649)">
<g opacity="0.300003">
<path d="M114.86 337.567C114.53 338.524 113.92 340.189 113.26 341.443C113.03 341.894 113.21 342.351 113.66 342.469C117.42 343.451 123.43 343.078 125.35 342.924C125.71 342.894 126.06 342.648 126.22 342.312L127.96 338.708C128.2 338.216 127.94 337.729 127.42 337.691L115.92 336.86C115.47 336.827 115.01 337.135 114.86 337.567Z" fill="white"/>
</g>
</g>
<path d="M143.08 102.682C141.55 102.527 139.93 102.399 138.27 102.318C131.8 102.006 126.5 101.799 120.75 102.319C118.85 102.491 116.87 102.73 114.99 102.992C108.18 103.934 102.8 109.852 102.6 116.635C102.48 120.42 103.3 126.135 104.1 135.151C105.14 146.899 102.28 152.878 104.78 157.209C109.7 161.875 132.28 159.539 143.36 157.209C146.68 152.931 140.16 141.765 150.78 114.351C152.9 108.867 148.8 103.262 143.08 102.682Z" fill="#4C5159"/>
<path d="M120.17 111.699C119.97 112.417 119.55 112.925 119.23 112.836C118.92 112.746 118.82 112.094 119.02 111.377C119.23 110.66 119.65 110.152 119.96 110.241C120.28 110.329 120.37 110.983 120.17 111.699Z" fill="white"/>
<path d="M118.75 117.647C118.66 118.385 118.32 118.952 117.99 118.912C117.66 118.872 117.47 118.24 117.56 117.501C117.66 116.762 117.99 116.196 118.32 116.235C118.65 116.276 118.84 116.907 118.75 117.647Z" fill="white"/>
<path d="M134.56 83.2388C134.39 89.0628 133.64 98.5638 137.31 102.318C137.31 102.318 131.97 101.518 120.63 108.514C117.35 103.816 119.79 102.318 119.79 102.318C123.02 101.73 125.84 98.4458 124.07 94.3738L134.56 83.2388Z" fill="#FC5546"/>
<path d="M123.02 107.105C126.75 107.635 127.92 113.262 127.92 113.262C127.92 113.262 136.88 106.933 139.73 102.469C138.4 101.774 136.45 100.395 136.45 100.395C136.45 100.395 125.19 104.955 123.02 107.105Z" fill="white"/>
<path d="M119.47 106.506C119.47 106.506 116.5 107.146 115.02 111.26C114.16 103.056 118.06 102.302 118.06 102.302C118.06 102.302 119.23 101.467 121.43 101.814C118.47 103.374 119.47 106.506 119.47 106.506Z" fill="white"/>
<mask id="mask20_43_649" style="mask-type:luminance" maskUnits="userSpaceOnUse" x="124" y="90" width="7" height="9">
<path d="M124.07 90.6011H130.77V98.6071H124.07V90.6011Z" fill="white"/>
</mask>
<g mask="url(#mask20_43_649)">
<g opacity="0.199997">
<path d="M128 90.8709L126.53 91.7669L124.07 94.3729C124.76 95.9329 124.76 97.3879 124.31 98.6069C127.1 97.5239 129.93 95.3379 130.67 92.9779C130.68 92.9599 130.68 92.9429 130.69 92.9269C131.17 91.3449 129.42 90.0109 128 90.8709Z" fill="black"/>
</g>
</g>
<path d="M132.68 69.6009C135.38 78.4419 136.7 82.1169 134.12 88.3779C130.23 97.7939 119.11 99.6769 113.91 91.9409C109.22 84.9799 105.6 71.6909 112.53 64.7029C119.35 57.8169 129.99 60.7599 132.68 69.6009Z" fill="#FC5546"/>
<mask id="mask21_43_649" style="mask-type:luminance" maskUnits="userSpaceOnUse" x="122" y="61" width="15" height="17">
<path d="M122.78 61.603H136.03V77.429H122.78V61.603Z" fill="white"/>
</mask>
<g mask="url(#mask21_43_649)">
<g opacity="0.399994">
<path d="M123.3 64.4369C121.03 70.4639 126.41 77.9759 134.11 77.3969C137.69 70.5599 135.52 65.3339 133.61 63.2029C131.7 61.0719 125.9 60.6859 123.3 64.4369Z" fill="#1A2E35"/>
</g>
</g>
<path d="M133.56 64.3502C132.52 71.6672 108.72 67.1352 107.43 74.4722C107.37 64.8862 118.11 52.0862 133.56 64.3502Z" fill="#1A2E35"/>
<path d="M121.03 78.624C121.28 79.355 121.13 80.108 120.67 80.303C120.22 80.499 119.64 80.064 119.38 79.331C119.12 78.6 119.28 77.848 119.74 77.652C120.19 77.456 120.77 77.891 121.03 78.624Z" fill="#1A2E35"/>
<path d="M112.11 81.4072C112.37 82.1382 112.21 82.8912 111.76 83.0872C111.3 83.2822 110.72 82.8472 110.47 82.1142C110.21 81.3832 110.37 80.6312 110.82 80.4352C111.27 80.2392 111.85 80.6742 112.11 81.4072Z" fill="#1A2E35"/>
<path d="M111.03 80.3892L109.19 80.6002C109.19 80.6002 110.53 81.6062 111.03 80.3892Z" fill="#1A2E35"/>
<path d="M114.61 80.9912C114.61 80.9912 114.54 84.6512 113.78 86.7302C115.01 87.2372 116.43 86.1542 116.43 86.1542L114.61 80.9912Z" fill="#C13A2E"/>
<path d="M118.75 88.5641C118.38 88.7201 117.97 88.8521 117.53 88.9511C117.41 88.9781 117.3 88.8981 117.28 88.7731C117.26 88.6491 117.34 88.5291 117.46 88.5001C120.7 87.7811 121.85 85.0891 121.86 85.0621C121.91 84.9431 122.04 84.8831 122.15 84.9291C122.27 84.9741 122.32 85.1081 122.27 85.2261C122.22 85.3311 121.29 87.5001 118.75 88.5641Z" fill="#1A2E35"/>
<path d="M138.36 77.1922C138.41 79.2732 137.6 81.0042 136.54 81.9942C134.93 83.4842 132.98 81.7772 132.46 79.3112C131.99 77.0912 132.26 73.6402 134.34 73.1332C136.38 72.6332 138.29 74.8122 138.36 77.1922Z" fill="#FC5546"/>
<path d="M120.85 74.4079C120.73 74.4319 120.61 74.4089 120.51 74.3339C118.98 73.1579 117.43 73.7639 117.41 73.7709C117.18 73.8609 116.93 73.7489 116.85 73.5139C116.78 73.2789 116.9 73.0129 117.14 72.9179C117.22 72.8869 119.16 72.1229 121.07 73.5849C121.26 73.7289 121.29 74.0159 121.13 74.2229C121.06 74.3219 120.96 74.3859 120.85 74.4079Z" fill="#1A2E35"/>
<path d="M108.04 78.9511C107.93 79.0001 107.82 79.0111 107.71 78.9711C107.48 78.8901 107.37 78.6281 107.46 78.3871C108.35 75.9691 110.33 75.4091 110.42 75.3861C110.65 75.3221 110.89 75.4691 110.93 75.7161C110.98 75.9621 110.83 76.2131 110.59 76.2791C110.52 76.3001 108.99 76.7571 108.28 78.6801C108.23 78.8051 108.14 78.8991 108.04 78.9511Z" fill="#1A2E35"/>
<path d="M119.95 77.606L118.1 77.817C118.1 77.817 119.44 78.823 119.95 77.606Z" fill="#1A2E35"/>
<path d="M148.94 123.039C148.95 123.548 148.94 123.786 148.93 124.135L148.9 125.079C148.87 125.698 148.81 126.304 148.75 126.909C148.62 128.117 148.41 129.309 148.17 130.498C147.65 132.87 146.93 135.23 145.87 137.517C144.84 139.805 143.5 142.032 141.8 144.039C140.14 146.067 138.07 147.822 135.81 149.215L135.47 149.427C135.18 149.606 134.85 149.743 134.54 149.831C132.38 150.438 130.75 150.146 129.52 149.825C128.27 149.477 127.29 149.02 126.39 148.548C124.62 147.6 123.22 146.502 121.89 145.398C120.58 144.27 119.38 143.102 118.26 141.877C117.13 140.638 116.1 139.414 115.1 138.005C114.17 136.69 114.48 134.869 115.8 133.939C116.77 133.257 118 133.241 118.96 133.797L119.07 133.863L122.96 136.123C124.25 136.862 125.53 137.579 126.8 138.202C128.04 138.844 129.31 139.377 130.38 139.714C130.9 139.876 131.39 139.969 131.67 139.956C131.95 139.962 131.93 139.783 131.26 139.914L130 140.531C131.18 139.585 132.21 138.49 133.1 137.228C133.54 136.6 133.95 135.93 134.31 135.218C134.68 134.518 135.02 133.783 135.32 133.011C135.91 131.474 136.39 129.832 136.72 128.133C136.89 127.286 137.02 126.423 137.13 125.567C137.19 125.139 137.23 124.709 137.27 124.292L137.35 123.216L137.39 122.708C137.62 119.529 140.4 117.144 143.59 117.381C146.58 117.605 148.88 120.098 148.94 123.039Z" fill="#FC5546"/>
<path d="M112.75 142.665H91.83C89.88 142.665 88.02 141.298 87.7 139.627L85.1301 126.377C84.8101 124.706 86.14 123.339 88.09 123.339H109C110.95 123.339 112.82 124.706 113.14 126.377L115.71 139.627C116.03 141.298 114.7 142.665 112.75 142.665Z" fill="#007CFF"/>
<path d="M88.1301 124.883C87.4501 124.883 86.8801 125.112 86.5401 125.512C86.3001 125.807 86.2101 126.176 86.2901 126.577L88.7901 139.461C89.0101 140.598 90.3701 141.558 91.7701 141.558H112.1C112.78 141.558 113.35 141.328 113.68 140.928C113.93 140.633 114.02 140.265 113.94 139.863L111.44 126.979C111.22 125.843 109.86 124.883 108.46 124.883H88.1301ZM112.1 141.799H91.7701C90.2601 141.799 88.7901 140.749 88.5501 139.506L86.0501 126.624C85.9601 126.148 86.0701 125.712 86.3601 125.359C86.7401 124.903 87.3801 124.642 88.1301 124.642H108.46C109.96 124.642 111.44 125.691 111.68 126.933L114.17 139.817C114.27 140.292 114.16 140.729 113.87 141.082C113.49 141.538 112.85 141.799 112.1 141.799Z" fill="white"/>
<path d="M113.19 130.028L110.75 129.417C109.48 129.102 108.2 129.884 107.91 131.153L107.28 133.936C107.03 135.044 107.61 136.173 108.67 136.601L111.78 137.867C111.78 137.867 116.98 141.082 119.14 138.6L120.09 134.627L116.18 131.506C115.3 130.805 114.28 130.301 113.19 130.028Z" fill="#FC5546"/>
<path d="M143.44 102.729C151.92 103.231 154.52 112.051 151.7 128.095C150.33 134.12 133.4 125.885 133.4 125.885C133.4 125.885 132.81 108.748 143.44 102.729Z" fill="#1A2E35"/>
<path d="M382.8 274.033C379.72 254.748 388.16 229.466 398.86 231.326C407.73 232.87 384.63 268.143 382.8 274.033Z" fill="#29C041"/>
<path d="M379.42 283.872C389.49 269.592 383.27 240.247 372.64 239.579C362.09 238.915 378.56 276.684 379.42 283.872Z" fill="#1B822B"/>
<path d="M379.92 292.224C378.77 261.406 397.6 245.866 406.02 249.547C414.65 253.321 386.5 275.149 379.92 292.224Z" fill="#29C041"/>
<path d="M377.4 311.441C387.46 289.724 378.84 255.773 362.83 259.446C349.55 262.493 375.02 302.297 377.4 311.441Z" fill="#29C041"/>
<path d="M378.09 317.902C376.98 297.076 370.66 270.524 357.65 272.98C345.21 275.332 374.21 299.723 378.09 317.902Z" fill="#1B822B"/>
<path d="M374.9 328.129C378.07 297.405 404.44 280.252 404.17 291.886C403.88 304.348 383.75 312.456 374.9 328.129Z" fill="#29C041"/>
<path d="M377.46 321.621C381.15 310.631 372.46 295.708 363.34 298.895C355.77 301.537 375.08 317.607 377.46 321.621Z" fill="#29C041"/>
<path d="M377.69 317.516C373.72 293.95 394.06 253.403 412.42 262.119C430.27 270.591 386.39 290.444 377.69 317.516Z" fill="#1B822B"/>
<path d="M386.76 353.071H369.2C366.05 353.071 363.25 351.029 362.33 348.024C360.15 340.889 358.83 333.496 359.23 326.285C359.35 323.958 359.65 321.65 360.16 319.379C360.37 318.446 361.19 317.774 362.15 317.774H393.81C394.76 317.774 395.58 318.446 395.79 319.379C396.31 321.65 396.61 323.958 396.73 326.285C397.13 333.496 395.8 340.889 393.62 348.024C392.71 351.029 389.91 353.071 386.76 353.071Z" fill="#4C5159"/>
<mask id="mask22_43_649" style="mask-type:luminance" maskUnits="userSpaceOnUse" x="359" y="317" width="38" height="10">
<path d="M359.22 317.774H396.73V326.285H359.22V317.774Z" fill="white"/>
</mask>
<g mask="url(#mask22_43_649)">
<g opacity="0.5">
<path d="M396.73 326.285H359.22C359.35 323.958 359.65 321.65 360.16 319.379C360.37 318.446 361.19 317.774 362.15 317.774H393.8C394.76 317.774 395.58 318.446 395.79 319.379C396.3 321.65 396.61 323.958 396.73 326.285Z" fill="white"/>
</g>
</g>
</svg>
