<svg width="568" height="622" viewBox="0 0 568 622" fill="none" xmlns="http://www.w3.org/2000/svg">
<g clip-path="url(#clip0_3017_1338)">
<path d="M519.071 0H91.5815C85.9835 0 81.4453 4.5396 81.4453 10.1395V273.267C81.4453 278.867 85.9835 283.407 91.5815 283.407H519.071C524.669 283.407 529.207 278.867 529.207 273.267V10.1395C529.207 4.5396 524.669 0 519.071 0Z" fill="#213267"/>
<path d="M521.142 7.44592H89.5V268.261H521.142V7.44592Z" fill="#224192"/>
<path d="M176.929 15.5085H105.884C103.881 15.5085 102.258 17.1327 102.258 19.1362V253.151C102.258 255.155 103.881 256.779 105.884 256.779H176.929C178.931 256.779 180.555 255.155 180.555 253.151V19.1362C180.555 17.1327 178.931 15.5085 176.929 15.5085Z" fill="#2D4C9D"/>
<path d="M144.461 31.6246H113.418C112.717 31.6246 112.148 32.1931 112.148 32.8943V35.5516C112.148 36.2529 112.717 36.8213 113.418 36.8213H144.461C145.162 36.8213 145.73 36.2529 145.73 35.5516V32.8943C145.73 32.1931 145.162 31.6246 144.461 31.6246Z" fill="white"/>
<path d="M161.152 43.4057H113.418C112.717 43.4057 112.148 43.9742 112.148 44.6754V47.3327C112.148 48.0339 112.717 48.6024 113.418 48.6024H161.152C161.853 48.6024 162.422 48.0339 162.422 47.3327V44.6754C162.422 43.9742 161.853 43.4057 161.152 43.4057Z" fill="white"/>
<path d="M152.494 55.1867H113.418C112.717 55.1867 112.148 55.7552 112.148 56.4564V59.1137C112.148 59.815 112.717 60.3834 113.418 60.3834H152.494C153.195 60.3834 153.763 59.815 153.763 59.1137V56.4564C153.763 55.7552 153.195 55.1867 152.494 55.1867Z" fill="white"/>
<path d="M131.804 66.9768H113.3C112.664 66.9768 112.148 67.4925 112.148 68.1286V71.0217C112.148 71.6578 112.664 72.1735 113.3 72.1735H131.804C132.44 72.1735 132.956 71.6578 132.956 71.0217V68.1286C132.956 67.4925 132.44 66.9768 131.804 66.9768Z" fill="white"/>
<path d="M138.55 78.7578H113.418C112.717 78.7578 112.148 79.3263 112.148 80.0275V82.6848C112.148 83.3861 112.717 83.9545 113.418 83.9545H138.55C139.251 83.9545 139.819 83.3861 139.819 82.6848V80.0275C139.819 79.3263 139.251 78.7578 138.55 78.7578Z" fill="white"/>
<path d="M149.955 90.5388H113.418C112.717 90.5388 112.148 91.1073 112.148 91.8085V94.4658C112.148 95.1671 112.717 95.7355 113.418 95.7355H149.955C150.656 95.7355 151.225 95.1671 151.225 94.4658V91.8085C151.225 91.1073 150.656 90.5388 149.955 90.5388Z" fill="white"/>
<path d="M138.55 102.329H113.418C112.717 102.329 112.148 102.897 112.148 103.599V106.256C112.148 106.957 112.717 107.526 113.418 107.526H138.55C139.251 107.526 139.819 106.957 139.819 106.256V103.599C139.819 102.897 139.251 102.329 138.55 102.329Z" fill="white"/>
<path d="M162.63 114.11H113.418C112.717 114.11 112.148 114.678 112.148 115.38V118.037C112.148 118.738 112.717 119.307 113.418 119.307H162.63C163.331 119.307 163.899 118.738 163.899 118.037V115.38C163.899 114.678 163.331 114.11 162.63 114.11Z" fill="white"/>
<path d="M144.679 125.891H113.418C112.717 125.891 112.148 126.459 112.148 127.161V129.818C112.148 130.519 112.717 131.088 113.418 131.088H144.679C145.38 131.088 145.948 130.519 145.948 129.818V127.161C145.948 126.459 145.38 125.891 144.679 125.891Z" fill="white"/>
<path d="M163.899 137.681H113.418C112.717 137.681 112.148 138.25 112.148 138.951V141.608C112.148 142.309 112.717 142.878 113.418 142.878H163.899C164.6 142.878 165.169 142.309 165.169 141.608V138.951C165.169 138.25 164.6 137.681 163.899 137.681Z" fill="white"/>
<path d="M147.843 149.462H113.418C112.717 149.462 112.148 150.031 112.148 150.732V153.389C112.148 154.09 112.717 154.659 113.418 154.659H147.843C148.544 154.659 149.112 154.09 149.112 153.389V150.732C149.112 150.031 148.544 149.462 147.843 149.462Z" fill="white"/>
<path d="M113.328 161.243H132.93C133.085 161.243 133.238 161.274 133.381 161.333C133.524 161.392 133.654 161.479 133.763 161.588C133.873 161.698 133.96 161.828 134.019 161.971C134.078 162.114 134.108 162.267 134.108 162.422V165.252C134.108 165.567 133.983 165.869 133.761 166.092C133.538 166.315 133.236 166.44 132.921 166.44H113.328C113.172 166.44 113.018 166.409 112.874 166.349C112.73 166.29 112.599 166.202 112.488 166.092C112.378 165.982 112.291 165.851 112.231 165.706C112.171 165.562 112.141 165.408 112.141 165.252V162.431C112.141 162.275 112.171 162.121 112.231 161.977C112.291 161.832 112.378 161.701 112.488 161.591C112.599 161.481 112.73 161.393 112.874 161.334C113.018 161.274 113.172 161.243 113.328 161.243Z" fill="white"/>
<g opacity="0.1">
<path d="M284.969 120.195C284.966 137.345 289.79 154.149 298.89 168.684C307.989 183.218 320.996 194.897 336.421 202.381L292.848 83.0295C287.634 94.7249 284.949 107.39 284.969 120.195Z" fill="white"/>
<path d="M437.903 115.588C437.903 104.297 433.851 96.4793 430.378 90.4028C425.745 82.8753 421.412 76.5087 421.412 68.9811C421.412 60.592 427.758 52.7743 436.743 52.7743C437.142 52.7743 437.532 52.8287 437.922 52.8468C428.174 43.9142 416.603 37.2061 404.009 33.1864C391.415 29.1667 378.099 27.9313 364.98 29.5657C351.862 31.2001 339.256 35.6652 328.032 42.6523C316.808 49.6394 307.236 58.9817 299.977 70.0332C302.125 70.1057 304.138 70.1511 305.852 70.1511C315.408 70.1511 330.186 68.9902 330.186 68.9902C335.109 68.7 335.689 75.9282 330.775 76.5087C330.775 76.5087 325.825 77.0891 320.322 77.4156L353.586 176.298L373.532 116.359L359.307 77.3612C354.384 77.071 349.733 76.4542 349.733 76.4542C344.81 76.164 345.39 68.6365 350.304 68.9267C350.304 68.9267 365.381 70.0876 374.357 70.0876C383.904 70.0876 398.682 68.9267 398.682 68.9267C403.605 68.6365 404.186 75.8738 399.272 76.4542C399.272 76.4542 394.312 77.0347 388.818 77.3612L421.811 175.527L430.941 145.109C434.884 132.475 437.903 123.406 437.903 115.588Z" fill="white"/>
<path d="M377.858 128.186L350.469 207.805C368.859 213.221 388.487 212.71 406.572 206.345C406.319 205.945 406.104 205.523 405.928 205.084L377.858 128.186Z" fill="white"/>
<path d="M456.37 76.3817C456.772 79.4942 456.966 82.63 456.95 85.7684C456.95 95.0372 455.219 105.458 450.005 118.481L422.117 199.135C442.693 187.175 457.788 167.651 464.186 144.723C470.584 121.794 467.78 97.2724 456.37 76.3817Z" fill="white"/>
<path d="M376.256 13.74C355.208 13.7418 334.634 19.9868 317.134 31.6854C299.634 43.3839 285.995 60.0106 277.942 79.463C269.889 98.9154 267.782 120.32 271.89 140.969C275.997 161.619 286.133 180.587 301.017 195.474C315.901 210.361 334.863 220.499 355.507 224.606C376.15 228.713 397.547 226.604 416.993 218.547C436.438 210.489 453.058 196.844 464.752 179.338C476.445 161.832 482.686 141.25 482.686 120.195C482.655 91.9697 471.432 64.9091 451.479 44.9513C431.525 24.9936 404.473 13.7688 376.256 13.74ZM376.256 221.772C356.173 221.772 336.54 215.814 319.841 204.653C303.143 193.492 290.128 177.628 282.442 159.067C274.756 140.506 272.745 120.083 276.664 100.379C280.582 80.6751 290.253 62.5759 304.454 48.3703C318.655 34.1646 336.748 24.4904 356.446 20.571C376.143 16.6517 396.56 18.6632 415.115 26.3513C433.67 34.0394 449.529 47.0586 460.686 63.7628C471.844 80.4669 477.799 100.106 477.799 120.195C477.771 147.126 467.063 172.946 448.026 191.989C428.989 211.032 403.178 221.743 376.256 221.772Z" fill="white"/>
</g>
<path d="M255.083 31.6246H201.011C200.31 31.6246 199.742 32.1931 199.742 32.8943V35.5516C199.742 36.2529 200.31 36.8213 201.011 36.8213H255.083C255.784 36.8213 256.353 36.2529 256.353 35.5516V32.8943C256.353 32.1931 255.784 31.6246 255.083 31.6246Z" fill="white"/>
<path d="M234.166 41.8095H199.949C199.248 41.8095 198.68 42.378 198.68 43.0792V45.7365C198.68 46.4378 199.248 47.0062 199.949 47.0062H234.166C234.867 47.0062 235.435 46.4378 235.435 45.7365V43.0792C235.435 42.378 234.867 41.8095 234.166 41.8095Z" fill="white"/>
<path d="M250.861 53.1915H216.644C215.943 53.1915 215.375 53.7599 215.375 54.4612V57.1185C215.375 57.8197 215.943 58.3882 216.644 58.3882H250.861C251.562 58.3882 252.13 57.8197 252.13 57.1185V54.4612C252.13 53.7599 251.562 53.1915 250.861 53.1915Z" fill="white"/>
<path d="M278.947 63.5758H233.543C232.842 63.5758 232.273 64.1443 232.273 64.8455V67.5028C232.273 68.2041 232.842 68.7725 233.543 68.7725H278.947C279.648 68.7725 280.216 68.2041 280.216 67.5028V64.8455C280.216 64.1443 279.648 63.5758 278.947 63.5758Z" fill="white"/>
<path d="M268.813 73.9692H232.91C232.209 73.9692 231.641 74.5377 231.641 75.2389V77.8962C231.641 78.5975 232.209 79.166 232.91 79.166H268.813C269.514 79.166 270.082 78.5975 270.082 77.8962V75.2389C270.082 74.5377 269.514 73.9692 268.813 73.9692Z" fill="white"/>
<path d="M254.976 105.721H215.801C215.1 105.721 214.531 106.289 214.531 106.991V109.648C214.531 110.349 215.1 110.918 215.801 110.918H254.976C255.677 110.918 256.246 110.349 256.246 109.648V106.991C256.246 106.289 255.677 105.721 254.976 105.721Z" fill="white"/>
<path d="M282.855 127.288H250.433C249.732 127.288 249.164 127.856 249.164 128.557V131.215C249.164 131.916 249.732 132.484 250.433 132.484H282.855C283.556 132.484 284.124 131.916 284.124 131.215V128.557C284.124 127.856 283.556 127.288 282.855 127.288Z" fill="white"/>
<path d="M302.524 138.08H266.34C265.639 138.08 265.07 138.649 265.07 139.35V142.007C265.07 142.708 265.639 143.277 266.34 143.277H302.524C303.225 143.277 303.793 142.708 303.793 142.007V139.35C303.793 138.649 303.225 138.08 302.524 138.08Z" fill="#9D79B5"/>
<path d="M286.055 159.647H249.871C249.17 159.647 248.602 160.215 248.602 160.917V163.574C248.602 164.275 249.17 164.844 249.871 164.844H286.055C286.756 164.844 287.324 164.275 287.324 163.574V160.917C287.324 160.215 286.756 159.647 286.055 159.647Z" fill="white"/>
<path d="M276.829 181.214H234.027C233.326 181.214 232.758 181.782 232.758 182.483V185.141C232.758 185.842 233.326 186.41 234.027 186.41H276.829C277.531 186.41 278.099 185.842 278.099 185.141V182.483C278.099 181.782 277.531 181.214 276.829 181.214Z" fill="white"/>
<path d="M328.79 181.214H285.988C285.287 181.214 284.719 181.782 284.719 182.483V185.141C284.719 185.842 285.287 186.41 285.988 186.41H328.79C329.491 186.41 330.06 185.842 330.06 185.141V182.483C330.06 181.782 329.491 181.214 328.79 181.214Z" fill="#F48E8E"/>
<path d="M391.948 181.214H337.949C337.248 181.214 336.68 181.782 336.68 182.483V185.141C336.68 185.842 337.248 186.41 337.949 186.41H391.948C392.649 186.41 393.218 185.842 393.218 185.141V182.483C393.218 181.782 392.649 181.214 391.948 181.214Z" fill="#9D79B5"/>
<path d="M313.263 148.864H266.027C265.326 148.864 264.758 149.432 264.758 150.133V152.791C264.758 153.492 265.326 154.06 266.027 154.06H313.263C313.964 154.06 314.532 153.492 314.532 152.791V150.133C314.532 149.432 313.964 148.864 313.263 148.864Z" fill="white"/>
<path d="M445.174 148.864H343.332C342.631 148.864 342.062 149.432 342.062 150.133V152.791C342.062 153.492 342.631 154.06 343.332 154.06H445.174C445.875 154.06 446.444 153.492 446.444 152.791V150.133C446.444 149.432 445.875 148.864 445.174 148.864Z" fill="white"/>
<path d="M405.602 138.08H369.418C368.717 138.08 368.148 138.649 368.148 139.35V142.007C368.148 142.708 368.717 143.277 369.418 143.277H405.602C406.303 143.277 406.871 142.708 406.871 142.007V139.35C406.871 138.649 406.303 138.08 405.602 138.08Z" fill="#9D79B5"/>
<path d="M363.926 138.08H311.105C310.404 138.08 309.836 138.649 309.836 139.35V142.007C309.836 142.708 310.404 143.277 311.105 143.277H363.926C364.627 143.277 365.195 142.708 365.195 142.007V139.35C365.195 138.649 364.627 138.08 363.926 138.08Z" fill="#F48E8E"/>
<path d="M374.105 127.288H341.683C340.982 127.288 340.414 127.856 340.414 128.557V131.215C340.414 131.916 340.982 132.484 341.683 132.484H374.105C374.806 132.484 375.374 131.916 375.374 131.215V128.557C375.374 127.856 374.806 127.288 374.105 127.288Z" fill="white"/>
<path d="M330.059 127.288H292.886C292.185 127.288 291.617 127.856 291.617 128.557V131.215C291.617 131.916 292.185 132.484 292.886 132.484H330.059C330.76 132.484 331.328 131.916 331.328 131.215V128.557C331.328 127.856 330.76 127.288 330.059 127.288Z" fill="#F48E8E"/>
<path d="M295.417 116.504H233.113C232.412 116.504 231.844 117.073 231.844 117.774V120.431C231.844 121.133 232.412 121.701 233.113 121.701H295.417C296.118 121.701 296.687 121.133 296.687 120.431V117.774C296.687 117.073 296.118 116.504 295.417 116.504Z" fill="white"/>
<path d="M322.017 116.504H305.798C305.202 116.504 304.719 116.987 304.719 117.584V120.622C304.719 121.218 305.202 121.701 305.798 121.701H322.017C322.613 121.701 323.096 121.218 323.096 120.622V117.584C323.096 116.987 322.613 116.504 322.017 116.504Z" fill="#1D9BC2"/>
<path d="M256.979 170.43H234.168C233.467 170.43 232.898 170.999 232.898 171.7V174.357C232.898 175.059 233.467 175.627 234.168 175.627H256.979C257.68 175.627 258.248 175.059 258.248 174.357V171.7C258.248 170.999 257.68 170.43 256.979 170.43Z" fill="white"/>
<path d="M276.834 190.6H249.871C249.17 190.6 248.602 191.169 248.602 191.87V194.527C248.602 195.229 249.17 195.797 249.871 195.797H276.834C277.535 195.797 278.104 195.229 278.104 194.527V191.87C278.104 191.169 277.535 190.6 276.834 190.6Z" fill="white"/>
<path d="M259.513 201.393H234.027C233.326 201.393 232.758 201.961 232.758 202.663V205.32C232.758 206.021 233.326 206.59 234.027 206.59H259.513C260.214 206.59 260.782 206.021 260.782 205.32V202.663C260.782 201.961 260.214 201.393 259.513 201.393Z" fill="white"/>
<path d="M258.317 212.176H232.832C232.131 212.176 231.562 212.745 231.562 213.446V216.103C231.562 216.805 232.131 217.373 232.832 217.373H258.317C259.018 217.373 259.587 216.805 259.587 216.103V213.446C259.587 212.745 259.018 212.176 258.317 212.176Z" fill="white"/>
<path d="M287.397 222.76H249.871C249.17 222.76 248.602 223.329 248.602 224.03V226.687C248.602 227.388 249.17 227.957 249.871 227.957H287.397C288.098 227.957 288.666 227.388 288.666 226.687V224.03C288.666 223.329 288.098 222.76 287.397 222.76Z" fill="white"/>
<path d="M351.188 233.344H249.871C249.17 233.344 248.602 233.913 248.602 234.614V237.271C248.602 237.972 249.17 238.541 249.871 238.541H351.188C351.889 238.541 352.457 237.972 352.457 237.271V234.614C352.457 233.913 351.889 233.344 351.188 233.344Z" fill="white"/>
<path d="M298.169 227.957H347.59C348.291 227.957 348.859 227.388 348.859 226.687V224.03C348.859 223.329 348.291 222.76 347.59 222.76H298.169C297.468 222.76 296.9 223.329 296.9 224.03V226.687C296.9 227.388 297.468 227.957 298.169 227.957Z" fill="#F48E8E"/>
<path d="M375.075 238.541H445.176C445.877 238.541 446.445 237.972 446.445 237.271V234.614C446.445 233.913 445.877 233.344 445.176 233.344H375.075C374.374 233.344 373.805 233.913 373.805 234.614V237.271C373.805 237.972 374.374 238.541 375.075 238.541Z" fill="white"/>
<path d="M356.682 227.957H383.926C384.627 227.957 385.195 227.388 385.195 226.687V224.03C385.195 223.329 384.627 222.76 383.926 222.76H356.682C355.981 222.76 355.412 223.329 355.412 224.03V226.687C355.412 227.388 355.981 227.957 356.682 227.957Z" fill="#FBF393"/>
<path d="M313.382 212.176H269.238C268.537 212.176 267.969 212.745 267.969 213.446V216.103C267.969 216.805 268.537 217.373 269.238 217.373H313.382C314.083 217.373 314.652 216.805 314.652 216.103V213.446C314.652 212.745 314.083 212.176 313.382 212.176Z" fill="#F48E8E"/>
<path d="M354.142 212.176H321.621C320.92 212.176 320.352 212.745 320.352 213.446V216.103C320.352 216.805 320.92 217.373 321.621 217.373H354.142C354.843 217.373 355.411 216.805 355.411 216.103V213.446C355.411 212.745 354.843 212.176 354.142 212.176Z" fill="#2BB99B"/>
<path d="M380.999 212.176H366.61C366.045 212.176 365.586 212.635 365.586 213.201V216.348C365.586 216.914 366.045 217.373 366.61 217.373H380.999C381.565 217.373 382.023 216.914 382.023 216.348V213.201C382.023 212.635 381.565 212.176 380.999 212.176Z" fill="#1D9BC2"/>
<path d="M443.702 195.797H287.47C286.77 195.798 286.097 195.529 285.59 195.046C285.084 194.563 284.783 193.903 284.75 193.203C284.78 192.502 285.08 191.84 285.587 191.355C286.094 190.87 286.769 190.6 287.47 190.6H443.702C444.403 190.6 445.078 190.87 445.585 191.355C446.091 191.84 446.391 192.502 446.422 193.203C446.389 193.903 446.088 194.563 445.582 195.046C445.075 195.529 444.402 195.798 443.702 195.797Z" fill="white"/>
<path d="M396.806 127.288H382.871C382.17 127.288 381.602 127.856 381.602 128.557V131.215C381.602 131.916 382.17 132.484 382.871 132.484H396.806C397.507 132.484 398.075 131.916 398.075 131.215V128.557C398.075 127.856 397.507 127.288 396.806 127.288Z" fill="#1D9BC2"/>
<path d="M335.337 148.864H321.402C320.701 148.864 320.133 149.432 320.133 150.133V152.791C320.133 153.492 320.701 154.06 321.402 154.06H335.337C336.038 154.06 336.606 153.492 336.606 152.791V150.133C336.606 149.432 336.038 148.864 335.337 148.864Z" fill="white"/>
<path d="M428.562 138.08H415.543C414.842 138.08 414.273 138.649 414.273 139.35V142.007C414.273 142.708 414.842 143.277 415.543 143.277H428.562C429.263 143.277 429.831 142.708 429.831 142.007V139.35C429.831 138.649 429.263 138.08 428.562 138.08Z" fill="#1D9BC2"/>
<path d="M360.897 105.721H268.176C267.475 105.721 266.906 106.289 266.906 106.991V109.648C266.906 110.349 267.475 110.918 268.176 110.918H360.897C361.598 110.918 362.167 110.349 362.167 109.648V106.991C362.167 106.289 361.598 105.721 360.897 105.721Z" fill="white"/>
<path d="M240.933 95.7355H215.801C215.1 95.7355 214.531 96.304 214.531 97.0052V99.6625C214.531 100.364 215.1 100.932 215.801 100.932H240.933C241.634 100.932 242.202 100.364 242.202 99.6625V97.0052C242.202 96.304 241.634 95.7355 240.933 95.7355Z" fill="white"/>
<path d="M398.694 73.9692H382.882C382.291 73.9692 381.812 74.4484 381.812 75.0394V78.0958C381.812 78.6868 382.291 79.166 382.882 79.166H398.694C399.285 79.166 399.764 78.6868 399.764 78.0958V75.0394C399.764 74.4484 399.285 73.9692 398.694 73.9692Z" fill="#F7F081"/>
<path d="M444.952 41.8095H429.14C428.549 41.8095 428.07 42.2886 428.07 42.8797V45.936C428.07 46.5271 428.549 47.0062 429.14 47.0062H444.952C445.543 47.0062 446.022 46.5271 446.022 45.936V42.8797C446.022 42.2886 445.543 41.8095 444.952 41.8095Z" fill="#2BB99B"/>
<path d="M446.018 73.9692H404.621C403.92 73.9692 403.352 74.5377 403.352 75.2389V77.8962C403.352 78.5975 403.92 79.166 404.621 79.166H446.018C446.719 79.166 447.287 78.5975 447.287 77.8962V75.2389C447.287 74.5377 446.719 73.9692 446.018 73.9692Z" fill="#F48E8E"/>
<path d="M373.15 73.9692H281.48C280.779 73.9692 280.211 74.5377 280.211 75.2389V77.8962C280.211 78.5975 280.779 79.166 281.48 79.166H373.15C373.851 79.166 374.42 78.5975 374.42 77.8962V75.2389C374.42 74.5377 373.851 73.9692 373.15 73.9692Z" fill="#F48E8E"/>
<path d="M330.06 84.3536H233.113C232.412 84.3536 231.844 84.922 231.844 85.6233V88.2806C231.844 88.9818 232.412 89.5503 233.113 89.5503H330.06C330.761 89.5503 331.329 88.9818 331.329 88.2806V85.6233C331.329 84.922 330.761 84.3536 330.06 84.3536Z" fill="white"/>
<path d="M320.976 63.5758H289.09C288.389 63.5758 287.82 64.1443 287.82 64.8455V67.5028C287.82 68.2041 288.389 68.7725 289.09 68.7725H320.976C321.677 68.7725 322.245 68.2041 322.245 67.5028V64.8455C322.245 64.1443 321.677 63.5758 320.976 63.5758Z" fill="#F48E8E"/>
<path d="M357.734 41.8095H250.433C249.732 41.8095 249.164 42.378 249.164 43.0792V45.7365C249.164 46.4378 249.732 47.0062 250.433 47.0062H357.734C358.435 47.0062 359.003 46.4378 359.003 45.7365V43.0792C359.003 42.378 358.435 41.8095 357.734 41.8095Z" fill="#F48E8E"/>
<path d="M404.002 41.8095H370.629C369.928 41.8095 369.359 42.378 369.359 43.0792V45.7365C369.359 46.4378 369.928 47.0062 370.629 47.0062H404.002C404.703 47.0062 405.271 46.4378 405.271 45.7365V43.0792C405.271 42.378 404.703 41.8095 404.002 41.8095Z" fill="white"/>
<path d="M101.049 275.707C101.074 276.14 100.969 276.571 100.747 276.944C100.525 277.316 100.196 277.614 99.8028 277.798C99.4098 277.981 98.9707 278.043 98.5424 277.974C98.114 277.905 97.7162 277.709 97.4003 277.412C97.0845 277.115 96.8651 276.729 96.7707 276.306C96.6763 275.882 96.7111 275.44 96.8707 275.036C97.0303 274.633 97.3073 274.286 97.6659 274.042C98.0245 273.798 98.4481 273.667 98.8819 273.666C99.4392 273.652 99.9796 273.858 100.386 274.24C100.791 274.622 101.03 275.15 101.049 275.707Z" fill="white"/>
<path d="M108.314 275.707C108.34 276.14 108.235 276.571 108.013 276.944C107.79 277.316 107.462 277.614 107.068 277.798C106.675 277.981 106.236 278.043 105.808 277.974C105.38 277.905 104.982 277.709 104.666 277.412C104.35 277.115 104.131 276.729 104.036 276.306C103.942 275.882 103.977 275.44 104.136 275.036C104.296 274.633 104.573 274.286 104.932 274.042C105.29 273.798 105.714 273.667 106.148 273.666C106.705 273.652 107.245 273.858 107.651 274.24C108.057 274.622 108.295 275.15 108.314 275.707Z" fill="white"/>
<path d="M115.58 275.707C115.605 276.14 115.5 276.572 115.278 276.945C115.055 277.318 114.726 277.615 114.332 277.799C113.938 277.982 113.499 278.043 113.07 277.973C112.642 277.904 112.244 277.707 111.928 277.409C111.613 277.111 111.394 276.724 111.301 276.3C111.207 275.876 111.243 275.433 111.404 275.03C111.566 274.627 111.844 274.281 112.204 274.038C112.564 273.795 112.988 273.665 113.422 273.666C113.979 273.652 114.518 273.858 114.923 274.241C115.327 274.623 115.563 275.15 115.58 275.707Z" fill="white"/>
<path d="M562.998 106.691H495.417C492.658 106.691 490.422 108.929 490.422 111.688V171.727C490.422 174.487 492.658 176.724 495.417 176.724H562.998C565.757 176.724 567.994 174.487 567.994 171.727V111.688C567.994 108.929 565.757 106.691 562.998 106.691Z" fill="#1375B7"/>
<path d="M560.133 106.691H495.191C492.557 106.691 490.422 108.827 490.422 111.462V168.526C490.422 171.16 492.557 173.296 495.191 173.296H560.133C562.767 173.296 564.902 171.16 564.902 168.526V111.462C564.902 108.827 562.767 106.691 560.133 106.691Z" fill="white"/>
<path d="M542.026 137.554L535.108 149.789L520.747 124.249L490.492 169.396C490.594 170.577 491.133 171.677 492.003 172.481C492.874 173.284 494.013 173.734 495.198 173.741H560.095C560.724 173.742 561.347 173.619 561.928 173.379C562.509 173.138 563.038 172.786 563.482 172.341C563.927 171.896 564.28 171.367 564.52 170.786C564.76 170.204 564.883 169.581 564.882 168.952V162.25L542.026 137.554Z" fill="#3885C6"/>
<path d="M553.954 122.59C553.956 123.737 553.617 124.858 552.981 125.813C552.346 126.767 551.441 127.511 550.382 127.951C549.323 128.391 548.157 128.507 547.033 128.283C545.908 128.06 544.875 127.508 544.064 126.697C543.253 125.886 542.701 124.852 542.478 123.727C542.255 122.602 542.37 121.436 542.81 120.377C543.25 119.318 543.994 118.413 544.948 117.776C545.902 117.14 547.023 116.802 548.17 116.804C549.703 116.806 551.173 117.416 552.257 118.501C553.341 119.586 553.952 121.056 553.954 122.59Z" fill="#3885C6"/>
<path d="M146.664 191.752H39.2183C36.5995 191.752 34.4766 193.876 34.4766 196.496V292.567C34.4766 295.186 36.5995 297.31 39.2183 297.31H146.664C149.283 297.31 151.406 295.186 151.406 292.567V196.496C151.406 193.876 149.283 191.752 146.664 191.752Z" fill="#1375B7"/>
<path d="M142.203 191.752H39.0098C36.5061 191.752 34.4766 193.782 34.4766 196.287V287.615C34.4766 290.119 36.5061 292.149 39.0098 292.149H142.203C144.707 292.149 146.737 290.119 146.737 287.615V196.287C146.737 193.782 144.707 191.752 142.203 191.752Z" fill="white"/>
<path d="M384.885 284.368C386.897 278.926 375.818 274.927 375.818 274.927C375.818 274.927 379.128 269.966 381.893 266.148C384.658 262.33 381.648 263.236 381.648 263.236C372.654 268.732 363.27 278.854 363.379 284.504C363.488 290.154 358.547 294.634 358.547 294.634L367.903 301.328C367.903 301.328 375.401 293.9 376.906 292.213C378.411 290.526 382.872 289.8 384.885 284.368Z" fill="#FCC596"/>
<path d="M358.531 290.798L361.623 285.846C361.623 285.846 371.297 291.233 373.944 298.716L369.103 302.008L358.531 290.798Z" fill="#F8E8D8"/>
<path d="M304.633 268.977C306.528 273.086 324.579 316.791 324.579 316.791C324.579 316.791 329.666 311.177 329.258 316.791L357.735 287.497C357.735 287.497 370.89 291.959 371.942 303.568C371.942 303.568 336.493 352.324 323.627 353.648C310.762 354.972 299.094 318.759 299.094 318.759L304.633 268.977Z" fill="#3E3533"/>
<path d="M304.633 268.977C306.528 273.086 324.579 316.791 324.579 316.791C324.579 316.791 329.666 311.177 329.258 316.791L357.735 287.497C357.735 287.497 370.89 291.959 371.942 303.568C371.942 303.568 336.493 352.324 323.627 353.648C310.762 354.972 299.094 318.759 299.094 318.759L304.633 268.977Z" fill="#4484E0"/>
<path d="M240.959 598.22L243.208 585.877L256.889 587.936L256.154 599.481C256.154 599.481 253.579 604.678 246.399 604.796C239.218 604.913 240.959 598.22 240.959 598.22Z" fill="#3F4752"/>
<path d="M302.046 590.366L301.602 600.415L304.222 606.963L315.509 603.254L317.975 595.799L318.8 584.217L302.046 590.366Z" fill="#3F4752"/>
<path d="M344.084 607.435C340.584 605.621 329.451 602.174 321.662 595.826C321.241 595.485 320.75 595.241 320.223 595.11C319.697 594.98 319.148 594.968 318.616 595.073L318.018 595.182C317.598 596.866 316.757 598.416 315.574 599.685C314.391 600.954 312.904 601.901 311.254 602.438C307.347 603.753 301.599 600.388 301.599 600.388L300.547 614.636H345.126C345.696 614.31 346.122 613.782 346.323 613.157C346.323 613.157 348.553 609.729 344.084 607.435Z" fill="#2D313D"/>
<path d="M304.244 363.86C304.244 363.86 311.126 454.236 311.797 462.453C312.467 470.67 320.863 593.051 320.863 593.051C310.301 597.295 298.94 594.03 298.94 594.03L280.536 470.697L268.369 404.89L264.28 403.729C264.28 403.729 262.929 483.802 262.929 483.394C262.929 482.986 261.115 590.91 261.115 590.91C250.889 596.225 236.691 590.484 236.691 590.484C236.691 590.484 232.266 485.779 231.024 479.657C229.782 473.536 229.438 356.088 229.438 356.088L304.244 363.86Z" fill="#3F4752"/>
<path d="M306.308 387.477C291.257 392.701 257.186 400.482 229.461 389.109C229.461 381.981 229.524 372.531 229.461 367.524L305.011 374.091C305.401 378.471 305.836 381.4 306.308 387.477Z" fill="#2D4F9F"/>
<path d="M301.751 355.698C301.171 353.549 300.699 352.197 300.699 352.197L233.989 354.918C233.989 354.918 233.753 356.278 233.391 358.609C233.717 359.063 233.989 359.407 233.989 359.407C263.754 371.578 285.314 371.597 301.751 355.698Z" fill="#330E00"/>
<path d="M219.305 298.951L230.991 341.913L225.053 382.063C225.053 382.063 274.011 404.4 307.176 382.77L304.193 290.789L219.305 298.951Z" fill="#346ED8"/>
<path d="M293.512 261.196C296.159 262.311 314.156 267.218 304.192 290.762L301.155 354.247C301.155 354.247 304.546 364.024 302.406 366.101C285.96 382.063 264.382 382.063 234.581 369.892C233.881 369.032 233.288 368.091 232.813 367.089C231.716 362.772 235.36 350.764 235.36 350.764L218.705 298.97C218.705 298.97 202.286 276.614 213.157 268.451C230.283 255.754 265.506 249.406 293.512 261.196Z" fill="#4484E0"/>
<path d="M307.175 382.779L305.434 329.216C297.764 338.24 293.249 347.871 289.115 358.972C271.451 349.775 256.195 336.553 244.58 320.373L257.609 355.208C246.348 341.994 228.596 306.298 217.336 293.075L230.99 341.913L225.051 382.063C225.051 382.063 274.037 404.409 307.175 382.779Z" fill="#346ED8"/>
<path d="M276.464 253.541C276.464 253.541 283.037 253.26 284.234 253.995C285.431 254.729 288.413 263.363 289.021 264.724C289.628 266.084 281.061 274.129 281.061 274.129C281.061 274.129 288.151 285.765 287.86 286.699C287.57 287.633 274.995 338.521 274.995 338.521C274.995 338.521 244.514 293.056 243.898 290.798C243.281 288.54 246.817 276.84 246.817 276.84C246.817 276.84 237.751 270.193 237.243 268.742C236.735 267.29 235.538 258.013 237.243 256.834C238.285 256.117 244.351 254.748 244.351 254.748L276.464 253.541Z" fill="#5E9EEA"/>
<path d="M244.32 256.942L261.891 302.289C268.364 318.986 275.491 301.518 275.491 301.518L277.503 253.641C277.059 253.641 276.125 253.496 275.69 253.469L244.32 256.942Z" fill="#F8E8D8"/>
<path d="M275.172 268.932C277.048 268.488 277.13 262.629 277.13 262.629L277.511 253.768C277.484 253.729 277.463 253.686 277.447 253.641C276.985 253.641 276.115 253.496 275.689 253.469L246.776 256.661C246.876 257.006 245.715 259.382 245.924 260.099C247.601 265.023 252.995 272.115 254.083 272.288C255.353 272.496 258.617 268.787 259.025 267.581C259.686 268.179 260.838 269.975 261.491 270.574C261.844 279.189 261.491 290.526 261.391 301.01C266.395 313.943 271.074 325.996 273.086 331.202C273.449 331.683 273.821 332.109 274.184 332.589L275.262 306.969C272.005 294.634 268.744 282.303 265.48 269.975C266.522 268.551 267.855 267.499 268.889 266.084C270.526 267.825 272.784 268.848 275.172 268.932Z" fill="url(#paint0_linear_3017_1338)"/>
<path d="M269.335 259.273C266.244 260.788 258.773 261.359 255.391 261.268C250.368 261.151 252.526 258.439 250.858 257.931L243.242 236.636L265.165 235.303L266.325 236.618L269.335 259.273Z" fill="#D38753"/>
<path d="M275.5 301.518L265.727 268.515L269.997 263.717L262.744 259.273L257.195 264.397L262.363 268.932C261.604 280.019 261.446 291.139 261.892 302.244L274.14 333.868L275.5 301.518Z" fill="url(#paint1_linear_3017_1338)"/>
<path d="M247.126 249.886C247.126 249.886 259.574 259.554 262.412 259.092C265.25 258.629 269.176 252.453 269.176 252.453C269.176 252.453 276.284 252.235 277.517 253.641C278.75 255.047 276.257 267.49 274.924 268.152C272.131 269.567 263.727 260.171 262.231 261.368C260.735 262.565 256.365 270.592 254.932 270.438C253.5 270.283 242.076 259.056 242.747 254.938C242.92 253.766 243.423 252.668 244.199 251.773C244.975 250.878 245.991 250.223 247.126 249.886Z" fill="#F8E8D8"/>
<path d="M253.181 600.234C247.796 595.001 243.008 599.408 243.008 599.408L240.959 598.22C237.995 602.755 232.292 608.278 231.576 610.972C230.216 616.069 232.637 622 240.642 622C248.421 622 255.919 617.103 256.762 613.13C257.261 610.745 256.445 604.306 256.182 599.526L253.181 600.234Z" fill="#2D313D"/>
<path d="M280.535 470.697L280.172 468.729C284.197 483.24 289.809 502.757 290.816 502.811C292.412 502.893 308.368 500.263 309.057 498.095C309.375 497.125 310.707 482.396 312.086 466.353C313.727 488.962 320.898 593.042 320.898 593.042C310.336 597.286 298.976 594.021 298.976 594.021L280.535 470.697Z" fill="#2F3740"/>
<path d="M236.71 590.475C236.71 590.475 236.71 590.384 236.71 590.239V590.14C236.71 590.031 236.71 589.904 236.71 589.731C236.71 589.278 236.665 588.607 236.629 587.754C236.629 587.564 236.629 587.355 236.629 587.138C236.629 586.751 236.611 586.333 236.574 585.886C236.574 585.714 236.574 585.541 236.574 585.36C236.529 584.371 236.475 583.247 236.429 582.004V581.388C236.429 580.68 236.366 579.946 236.33 579.175C236.33 578.349 236.257 577.497 236.221 576.608V576.182C236.13 573.996 236.021 571.647 235.913 569.072V568.328C235.722 563.984 235.514 559.213 235.287 554.207C235.282 554.122 235.282 554.038 235.287 553.953C235.196 552.076 235.115 550.162 235.024 548.221V548.031C234.29 532.005 233.456 514.474 232.721 501.106V501.052C232.54 497.714 232.368 494.649 232.195 491.928C235.45 494.35 240.963 498.186 243.193 498.104C246.466 497.995 257.481 488.772 258.134 484.664C258.651 481.38 262.405 450.563 263.891 438.319C263.511 459.932 263.094 483.666 263.075 483.43C263.075 483.43 263.075 483.566 263.075 483.865C263.071 483.932 263.071 483.999 263.075 484.065C263.075 485.298 263.003 488.264 262.93 492.445C262.93 492.699 262.93 492.944 262.93 493.198C262.93 494.73 262.876 496.408 262.849 498.213C262.849 498.812 262.849 499.428 262.849 500.027C262.849 502.548 262.767 505.269 262.722 508.189C262.722 508.552 262.722 508.915 262.722 509.278C262.205 541.093 261.407 590.901 261.407 590.901C259.506 591.869 257.461 592.522 255.351 592.833C254.662 592.942 253.973 593.024 253.275 593.078C252.577 593.132 251.897 593.151 251.208 593.16C250.518 593.169 249.848 593.16 249.186 593.105C248.524 593.051 247.862 593.005 247.227 592.933C246.593 592.86 245.958 592.779 245.36 592.679C244.453 592.534 243.592 592.371 242.794 592.189C242.259 592.071 241.751 591.944 241.28 591.826C239.821 591.464 238.386 591.012 236.982 590.475H236.71Z" fill="#2F3740"/>
<path d="M272.843 364.668L189.359 371.198L193.476 425.405L277.457 417.605L272.843 364.668Z" fill="#E79355"/>
<path d="M226.596 368.286C228.482 375.542 227.829 383.396 228.092 390.959C228.41 399.893 230.731 409.787 238.238 414.63C245.219 419.165 254.475 417.796 262.245 414.848C267.298 412.939 272.107 410.436 276.57 407.393L277.477 417.587L216.261 423.264C216.614 418.984 215.508 414.63 214.447 410.431L203.976 370.662L203.812 370.046L226.596 368.286Z" fill="#B07347"/>
<path d="M216.039 401.308C216.039 401.308 217.064 406.84 217.163 409.153C217.154 412.001 217.476 414.841 218.124 417.614C219.031 421.169 215.695 420.435 219.938 424.28C224.181 428.125 224.299 425.677 224.888 429.114C225.477 432.551 230.962 430.928 230.962 430.928C231.787 432.447 233.158 433.594 234.797 434.138C237.807 435.345 238.016 433.966 240.101 425.486C240.101 425.486 245.958 423.373 245.26 421.278C244.562 419.183 229.666 411.066 229.666 411.066L225.35 399.829L216.039 401.308Z" fill="#FFBD9B"/>
<path d="M213.516 406.169L214.993 413.651C214.993 413.651 230.171 411.556 234.405 408.862L232.483 399.584L213.516 406.169Z" fill="#F8E8D8"/>
<path d="M200.242 333.905C200.242 333.905 200.75 282.055 211.267 270.419L229.463 293.954L226.127 341.813C226.481 351.218 235.81 403.375 235.81 403.375C235.81 403.375 223.879 408.69 211.24 409.488C211.249 409.461 199.626 349.368 200.242 333.905Z" fill="#4484E0"/>
<path d="M244.305 231.993C244.305 231.993 235.927 231.177 236.145 223.522C236.362 216.076 245.846 217.745 247.768 225.49C247.768 225.529 247.783 225.565 247.81 225.593C247.838 225.62 247.874 225.635 247.913 225.635C247.951 225.635 247.988 225.62 248.016 225.593C248.043 225.565 248.058 225.529 248.058 225.49C248.502 223.286 250.007 216.539 252.093 214.816C252.093 214.816 248.811 203.742 256.562 200.395C264.314 197.049 282.782 196.768 283.145 208.857C283.508 220.946 282.129 224.647 281.839 230.251C281.549 235.856 272.773 252.426 269.083 253.605C265.393 254.784 247.26 243.556 244.468 240.717C241.675 237.879 244.305 231.993 244.305 231.993Z" fill="#F4BE84"/>
<path d="M296.001 194.391C296.001 194.391 292.683 195.099 290.67 193.874C290.67 193.874 294.796 183.898 292.048 179.663C292.048 179.663 285.974 186.918 267.868 183.472C249.763 180.026 233.335 185.757 228.765 201.193C224.196 216.629 235.601 237.743 243.516 239.103C242.492 236.092 244.305 231.993 244.305 231.993C244.305 231.993 235.927 231.177 236.145 223.522C236.363 216.076 245.846 217.745 247.768 225.49C247.768 225.529 247.783 225.565 247.811 225.593C247.838 225.62 247.875 225.635 247.913 225.635C247.952 225.635 247.989 225.62 248.016 225.593C248.043 225.565 248.058 225.529 248.058 225.49C248.503 223.286 250.008 216.539 252.093 214.816C252.093 214.816 248.811 203.742 256.563 200.395C264.314 197.049 282.783 196.768 283.145 208.857C283.145 210.099 283.2 211.224 283.2 212.294C283.2 212.294 297.107 207.687 296.001 194.391Z" fill="#3E3533"/>
<path d="M496.367 609.521V518.71H490.538V609.521H496.367Z" fill="#A5C0D7"/>
<path d="M492.664 609.521V518.71H490.533V609.521H492.664Z" fill="#8394B4"/>
<path d="M496.641 541.9L501.274 520.061H485.625L490.258 541.9H496.641Z" fill="#8394B4"/>
<path d="M460.68 614.654H526.212V612.858L499.892 608.469H486.999L460.68 612.858V614.654Z" fill="#A5C0D7"/>
<path d="M485.469 608.967H501.426L498.461 590.339H488.433L485.469 608.967Z" fill="#A5C0D7"/>
<path d="M498.459 590.339H488.432L485.467 608.967L460.68 612.858H504.371L496.637 609.512L494.552 591.99L498.459 590.339Z" fill="#8394B4"/>
<path d="M507.472 507.337H518.805V490.332H507.472V507.337Z" fill="#8394B4"/>
<path d="M451.32 514.828H535.565C535.566 513.746 535.354 512.674 534.941 511.674C534.528 510.674 533.922 509.765 533.157 508.999C532.393 508.234 531.485 507.626 530.485 507.212C529.486 506.797 528.415 506.584 527.333 506.584H459.562C457.376 506.584 455.28 507.453 453.734 508.999C452.189 510.545 451.32 512.642 451.32 514.828Z" fill="#3D4359"/>
<path d="M459.562 506.584H495.02C492.835 506.584 490.738 507.453 489.193 508.999C487.647 510.545 486.779 512.642 486.779 514.828H451.32C451.32 512.642 452.189 510.545 453.734 508.999C455.28 507.453 457.376 506.584 459.562 506.584Z" fill="#323749"/>
<path d="M535.438 513.386C535.522 513.862 535.564 514.345 535.565 514.828H451.32C451.32 514.344 451.365 513.861 451.456 513.386H535.438Z" fill="#323749"/>
<path d="M448.022 525.62H538.867V514.492H448.022V525.62Z" fill="#3D4359"/>
<path d="M448.03 525.62H506.734V514.492H448.03V525.62Z" fill="#323749"/>
<path d="M448.022 515.835H538.867V514.492H448.022V515.835Z" fill="#323749"/>
<path d="M506.156 537.692C510.281 537.692 518.459 534.889 519.501 534.527C519.563 534.506 519.62 534.474 519.668 534.431C519.717 534.388 519.756 534.336 519.784 534.277C519.812 534.219 519.828 534.155 519.831 534.091C519.834 534.026 519.823 533.961 519.8 533.901C519.78 533.84 519.748 533.785 519.706 533.737C519.664 533.689 519.612 533.65 519.555 533.622C519.497 533.594 519.435 533.578 519.371 533.574C519.308 533.571 519.244 533.58 519.184 533.601C516.011 534.717 507.243 537.402 504.941 536.567C503.028 535.878 502.801 529.221 503.127 525.185C503.134 525.122 503.127 525.058 503.108 524.997C503.088 524.936 503.057 524.88 503.016 524.832C502.974 524.783 502.923 524.744 502.866 524.716C502.809 524.688 502.747 524.672 502.683 524.668C502.562 524.668 502.445 524.714 502.356 524.796C502.266 524.878 502.212 524.992 502.203 525.113C502.112 526.255 501.45 536.304 504.669 537.483C505.15 537.632 505.652 537.702 506.156 537.692Z" fill="#323749"/>
<path d="M521.951 530.255C519.83 530.817 516.684 533.075 517.119 534.726C517.554 536.377 521.407 536.785 523.529 536.223C525.65 535.66 527.019 533.874 526.575 532.223C526.131 530.572 524.037 529.693 521.951 530.255Z" fill="#323749"/>
<path d="M477.219 445.04C477.219 482.179 494.146 496.825 515.035 496.825C535.924 496.825 552.851 482.179 552.851 445.04C552.851 407.901 535.924 362.355 515.035 362.355C494.146 362.355 477.219 407.91 477.219 445.04Z" fill="#323749"/>
<path d="M473.43 444.532C473.43 480.428 489.795 494.594 509.985 494.594C530.176 494.594 546.55 480.428 546.55 444.532C546.55 408.636 530.176 364.586 509.985 364.586C489.795 364.586 473.43 408.636 473.43 444.532Z" fill="#3D4359"/>
<path d="M436.031 593.822L437.291 601.821L447.672 602.274L447.401 593.114L436.031 593.822Z" fill="#FBCEBF"/>
<path d="M450.516 614.264L417.215 614.654C417.215 614.654 416.037 607.779 420.796 608.133C425.556 608.487 431.395 605.013 434.677 601.558C437.959 598.102 448.086 599.508 449.365 601.385C450.643 603.263 450.516 614.264 450.516 614.264Z" fill="#19232D"/>
<path d="M378.333 593.005L377.336 601.141L387.717 601.594L388.986 592.434L378.333 593.005Z" fill="#FBCEBF"/>
<path d="M390.561 613.584L357.26 613.974C357.26 613.974 356.091 607.099 360.841 607.453C365.592 607.807 371.44 604.333 374.722 600.878C378.004 597.422 388.131 598.828 389.41 600.705C390.688 602.583 390.561 613.584 390.561 613.584Z" fill="#19232D"/>
<path d="M416.095 432.297L455.243 426.167C457.111 426.167 458.38 420.634 459.622 413.288L475.271 419.564C472.206 433.848 465.996 445.983 456.503 444.695C443.04 442.881 415.016 441.113 415.016 441.113L416.095 432.297Z" fill="#E0BC9B"/>
<path d="M447.412 471.604C469.615 464.439 482.943 471.676 483.124 502.748L394.328 503.011C394.328 503.011 395.026 487.23 402.125 481.979C405.77 479.285 431.491 474.188 447.412 471.604Z" fill="#1C3033"/>
<path d="M455.945 486.749C448.517 489.306 440.869 491.173 433.098 492.327C419.317 494.495 413.152 494.676 411.71 497.07C410.269 499.465 412.055 522.61 409.897 533.003C408.039 541.982 388.872 586.666 384.43 599.553H388.945C388.945 599.553 416.144 546.135 418.42 529.575C419.544 518.692 420.088 509.368 420.088 509.368H449.282C454.866 507.954 455.945 486.749 455.945 486.749Z" fill="#121E21"/>
<path d="M520.056 470.878C520.056 470.878 519.149 493.415 512.05 502.965H428.367C428.367 502.965 424.959 487.901 431.477 481.934C439.247 474.869 494.552 471.468 520.056 470.878Z" fill="#223A3F"/>
<path d="M458.167 526.591C457.922 517.585 457.605 515.354 455.755 509.359H506.527C513.536 503.709 516.963 494.848 518.314 489.978L497.869 480.673C497.869 480.673 495.847 490.314 491.967 492.463C488.086 494.613 445.148 494.676 443.425 496.417C441.703 498.159 449.019 515.263 450.316 527.607C451.612 539.95 444.069 599.526 444.069 599.526H448.829C448.829 599.526 458.611 543.151 458.167 526.591Z" fill="#121E21"/>
<path d="M475.617 473.463C475.617 473.463 497.794 477.218 518.311 489.987L517.277 493.37C517.277 493.37 497.077 480.002 475.617 473.463Z" fill="#121E21"/>
<path d="M394.593 501.605C394.593 501.605 383.024 561.462 376.07 599.553H389.053C389.053 599.553 416.253 546.135 418.528 529.575C420.804 513.014 418.528 494.803 418.528 494.803L394.593 501.605Z" fill="#1C3033"/>
<path d="M428.367 503.011C428.367 503.011 432.356 561.508 435.022 599.553H448.83C448.83 599.553 458.613 543.151 458.168 526.591C457.724 510.03 451.051 494.848 451.051 494.848L428.367 503.011Z" fill="#223A3F"/>
<path d="M458.166 526.591C457.758 511.799 452.409 498.113 451.276 495.365L449.154 495.519L443.18 497.678C443.334 502.131 449.173 516.724 450.315 527.661C451.602 540.013 444.068 599.581 444.068 599.581H448.828C448.828 599.581 449.435 596.062 450.351 590.511C453.08 573.842 458.502 539.016 458.166 526.591Z" fill="#121E21"/>
<path d="M418.495 494.803C415.975 494.975 413.636 495.338 412.222 496.617C410.798 499.011 412.222 522.564 410.046 532.958C408.232 541.936 389.021 586.621 384.578 599.508H389.057C394.814 586.004 416.573 543.895 418.532 529.529C419.964 519.091 420.762 503.129 418.495 494.803Z" fill="#121E21"/>
<path d="M469.517 428.978C467.222 428.308 464.987 427.446 462.835 426.402C459.281 424.643 460.705 425.722 456.57 423.101C456.57 423.101 457.314 404.201 462.917 393.399C468.52 382.598 499.554 368.595 499.554 368.595C499.554 368.595 500.932 368.676 503.181 368.948V369.13C503.889 369.123 504.598 369.159 505.302 369.239C506.59 369.429 508.022 369.674 509.581 369.991C518.14 372.132 532.501 379.596 534.704 405.362C533.163 431.871 525.52 475.395 518.285 489.525C518.285 489.525 466.516 473.454 461.376 469.055C463.279 463.695 466.625 455.669 467.921 448.033C468.969 441.735 469.503 435.362 469.517 428.978Z" fill="#FB9F0D"/>
<path d="M451.441 446.799L498.088 440.605C501.116 440.605 502.82 430.42 504.942 419.392L524.081 422.575C521.887 441.013 513.818 460.73 499.602 459.124C483.554 457.311 450.172 455.615 450.172 455.615L451.441 446.799Z" fill="#E0BC9B"/>
<path d="M502.018 416.281C502.018 416.281 523.143 418.222 526.552 409.18C529.961 400.138 528.537 382.579 510.822 370.408H510.967L511.348 370.526C519.943 373.247 532.427 381.301 534.585 404.99C534.032 407.03 533.451 409.098 532.772 411.238C531.022 416.861 529.145 421.977 527.168 426.557L500.812 422.285L502.018 416.281Z" fill="#FF7200"/>
<path d="M472.904 413.216C472.695 414.549 472.423 415.864 472.142 417.17C471.861 418.476 471.58 419.8 471.236 421.106C470.631 423.663 470.009 426.212 469.368 428.751C467.749 428.288 466.156 427.734 464.599 427.092C462.983 426.425 461.404 425.674 459.866 424.842C458.724 424.217 457.618 423.527 456.539 422.802V423.201C457.573 423.89 458.624 424.543 459.712 425.142C461.261 425.978 462.853 426.732 464.481 427.4C466.102 428.073 467.761 428.652 469.45 429.132L469.667 429.187V429.005C470.275 426.393 470.864 423.772 471.417 421.142C471.698 419.836 471.97 418.512 472.224 417.197C472.478 415.882 472.713 414.549 472.904 413.216Z" fill="#FF7200"/>
<path d="M503.099 369.121L498.738 362.591L480.406 369.547L482.9 380.548C482.9 380.548 496.164 389.236 503.099 369.121Z" fill="#EFCEAB"/>
<path d="M461.18 350.175C461.18 350.175 464.697 359.371 466.846 364.187C468.995 369.003 473.755 380.085 484.072 377.374C494.39 374.662 497.672 367.461 500.31 363.824C500.31 363.824 507.309 348.579 504.281 346.085C501.253 343.591 495.378 334.694 485.813 339.011C476.248 343.327 461.18 350.175 461.18 350.175Z" fill="#F9DCB8"/>
<path d="M499.963 364.396C499.963 364.396 508.422 348.978 508.757 341.16C509.093 333.342 506.944 328.463 502.32 326.722C502.32 326.722 504.079 322.078 505.675 321.353C505.675 321.353 500.888 323.511 500.008 325.842C500.008 325.842 499.464 320.31 497.152 319.421C497.152 319.421 498.585 322.631 497.706 324.953C497.706 324.953 486.49 312.673 477.642 318.605C468.793 324.536 456.426 339.736 452.519 339.573C454.355 340.081 456.315 339.883 458.013 339.02C455.356 341.4 452.377 343.394 449.164 344.942C449.164 344.942 454.332 352.243 468.521 349.694C482.71 347.146 491.549 341.223 491.549 341.223C491.549 341.223 493.363 353.92 497.098 357.993C497.098 357.993 497.433 350.13 500.616 348.697C503.798 347.264 502.765 353.503 501.885 355.834C501.006 358.165 498.367 365.121 499.963 364.396Z" fill="#221E52"/>
<path d="M527.168 426.611C522.732 426.006 518.304 425.356 513.886 424.661C511.674 424.322 509.461 423.972 507.249 423.609C505.037 423.246 502.834 422.865 500.631 422.412H500.477V422.24C501.432 417.505 502.465 412.789 503.577 408.091C504.148 405.742 504.729 403.403 505.391 401.081C506.052 398.759 506.714 396.446 507.53 394.179H507.576C506.778 396.446 506.125 398.768 505.508 401.099C504.892 403.43 504.321 405.77 503.777 408.119C502.701 412.823 501.713 417.548 500.812 422.294L500.685 422.094C502.87 422.566 505.073 423.001 507.276 423.355C509.479 423.709 511.692 424.117 513.904 424.48C518.316 425.205 522.738 425.9 527.168 426.566V426.611Z" fill="#FF7200"/>
<path d="M79.1953 609.493V518.211H73.3384V609.493H79.1953Z" fill="#A5C0D7"/>
<path d="M79.1953 609.493V518.211H77.0557V609.493H79.1953Z" fill="#8394B4"/>
<path d="M73.0586 541.528L68.3984 519.571H84.1286L79.4685 541.528H73.0586Z" fill="#8394B4"/>
<path d="M109.195 614.654H43.3281V612.849L69.7838 608.432H82.7397L109.195 612.849V614.654Z" fill="#A5C0D7"/>
<path d="M84.2806 608.931H68.2422L71.225 590.212H81.2978L84.2806 608.931Z" fill="#A5C0D7"/>
<path d="M71.2275 590.212H81.3003L84.2831 608.931L109.198 612.849H65.2891L73.059 609.484L75.1533 591.872L71.2275 590.212Z" fill="#8394B4"/>
<path d="M62.1608 489.697H50.7734V506.793H62.1608V489.697Z" fill="#8394B4"/>
<path d="M118.603 514.311H33.9141C33.926 512.121 34.8044 510.024 36.3571 508.479C37.9099 506.934 40.0108 506.067 42.2007 506.067H110.317C112.513 506.067 114.619 506.939 116.173 508.492C117.727 510.044 118.601 512.15 118.603 514.347V514.311Z" fill="#3D4359"/>
<path d="M110.316 506.067H74.7031C76.8993 506.067 79.0057 506.939 80.5595 508.492C82.1133 510.044 82.9874 512.15 82.9898 514.347H118.603C118.6 512.15 117.726 510.044 116.172 508.492C114.618 506.939 112.512 506.067 110.316 506.067Z" fill="#323749"/>
<path d="M34.0501 512.869C33.9635 513.345 33.918 513.827 33.9141 514.311H118.603C118.599 513.827 118.554 513.345 118.467 512.869H34.0501Z" fill="#323749"/>
<path d="M121.917 513.985H30.6094V525.167H121.917V513.985Z" fill="#3D4359"/>
<path d="M121.927 513.985H62.9141V525.167H121.927V513.985Z" fill="#323749"/>
<path d="M121.917 513.985H30.6094V515.327H121.917V513.985Z" fill="#323749"/>
<path d="M90.7813 446.736C90.7813 482.206 74.6068 496.2 54.6608 496.2C34.7147 496.2 18.5312 482.206 18.5312 446.736C18.5312 411.266 34.7057 367.751 54.6608 367.751C74.6159 367.751 90.7813 411.266 90.7813 446.736Z" fill="#323749"/>
<path d="M94.4099 446.21C94.4099 480.501 78.7704 494.032 59.4862 494.032C40.202 494.032 24.5625 480.537 24.5625 446.21C24.5625 411.882 40.1929 369.855 59.4862 369.855C78.7795 369.855 94.4099 411.955 94.4099 446.21Z" fill="#3D4359"/>
<path d="M63.4644 537.302C59.321 537.302 51.0978 534.472 50.0461 534.109C49.9853 534.088 49.9294 534.055 49.8814 534.012C49.8335 533.969 49.7945 533.917 49.7667 533.859C49.7389 533.8 49.7228 533.737 49.7194 533.673C49.716 533.609 49.7254 533.544 49.7469 533.484C49.792 533.362 49.8825 533.263 49.9992 533.207C50.1159 533.151 50.2498 533.143 50.3725 533.184C53.5639 534.3 62.3764 537.012 64.6883 536.168C66.6104 535.47 66.8461 528.786 66.5016 524.732C66.4887 524.664 66.4902 524.594 66.5061 524.527C66.522 524.46 66.5519 524.397 66.5939 524.342C66.6358 524.287 66.6889 524.242 66.7496 524.209C66.8103 524.176 66.8772 524.157 66.946 524.151C67.0148 524.146 67.0839 524.156 67.1488 524.179C67.2137 524.203 67.2729 524.24 67.3225 524.287C67.3722 524.335 67.4111 524.393 67.4368 524.457C67.4625 524.521 67.4744 524.59 67.4717 524.659C67.5624 525.802 68.2242 535.905 64.9875 537.084C64.4959 537.243 63.9808 537.317 63.4644 537.302Z" fill="#323749"/>
<path d="M47.6154 529.82C49.746 530.382 52.9011 532.658 52.4659 534.309C52.0307 535.96 48.1594 536.386 46.0288 535.823C43.8982 535.261 42.5201 533.456 42.9553 531.797C43.3905 530.137 45.4848 529.257 47.6154 529.82Z" fill="#323749"/>
<path d="M74.8691 318.151C74.8691 318.151 67.8608 314.523 62.5206 328.672C57.1805 342.82 56.9086 364.867 58.8306 372.377C58.8306 372.377 43.3271 389.073 55.9929 399.983C55.9929 399.983 73.4456 418.34 74.6061 423.074C75.0504 421.967 82.5392 408.472 94.6791 407.72C106.819 406.967 136.729 375.542 120.772 370.662C120.772 370.662 121.96 375.741 116.52 374.517C111.08 373.293 114.507 354.564 114.453 347.926C114.399 341.287 110.4 324.953 98.7953 317.997C87.1903 311.041 73.8264 311.576 74.8691 318.151Z" fill="#1C1715"/>
<path d="M168.911 427.917C168.911 427.917 180.216 431.499 181.73 432.062C187.633 434.256 187.17 436.07 187.17 436.66C187.17 436.66 189.228 439.644 188.884 440.133C188.304 440.959 187.723 440.015 184.777 436.995C184.115 436.324 182.274 434.719 181.948 434.955C181.622 435.19 183.417 436.442 184.505 437.431C185.411 438.256 187.479 442.754 186.518 443.045C185.556 443.335 183.798 439.68 182.782 438.637C182.048 437.857 179.872 436.406 179.446 436.687C179.02 436.968 181.205 439.036 181.549 439.553C181.894 440.07 183.662 442.772 182.954 443.298C182.247 443.824 180.942 441.675 179.246 439.861C177.431 438.303 175.369 437.059 173.145 436.179C172.483 436.179 173.145 437.83 174.051 439.108C174.958 440.387 175.556 442.401 174.586 442.609C173.616 442.818 171.966 438.981 169.89 436.515C168.592 434.829 167.774 432.823 167.523 430.71C167.523 430.71 168.267 427.944 168.911 427.917Z" fill="#E2A36A"/>
<path d="M168.91 427.917C167.795 427.545 161.848 427.436 157.414 427.917L157.759 434.42L168.43 431.907L168.91 427.917Z" fill="#E2A36A"/>
<path d="M109.26 378.371C97.8359 382.063 104.672 441.321 114.337 446.554C123.467 452.132 149.859 438.392 164.601 433.658C164.601 433.658 166.885 429.894 166.477 426.674C157.511 426.339 129.378 432.851 126.15 432.442C122.923 432.034 120.656 374.698 109.26 378.371Z" fill="#E55DAA"/>
<path d="M127.204 603.272C126.64 605.648 126.375 608.085 126.415 610.527L121.492 609.457L121.701 603.317L127.204 603.272Z" fill="#E2A36A"/>
<path d="M136.958 612.84C136.895 613.829 121.219 613.257 121.219 613.257L121.491 609.457H126.441C126.441 609.457 137.031 611.851 136.958 612.84Z" fill="#E2A36A"/>
<path d="M121.18 613.23L121.397 611.09C121.397 611.09 122.304 612.278 127.109 612.278C131.325 612.278 131.796 610.772 131.796 610.772C135.749 611.906 137.962 612.096 137.399 612.913C136.674 613.992 121.18 613.23 121.18 613.23Z" fill="#2D313D"/>
<path d="M121.732 603.272L121.578 608.405C122.321 607.995 123.155 607.781 124.003 607.781C124.852 607.781 125.686 607.995 126.429 608.405C126.57 606.679 126.828 604.964 127.199 603.272H121.732Z" fill="#D38753"/>
<path d="M150.058 603.272C149.489 605.647 149.224 608.085 149.27 610.527L144.383 609.457L144.591 603.317L150.058 603.272Z" fill="#E2A36A"/>
<path d="M159.81 612.84C159.746 613.829 144.07 613.257 144.07 613.257L144.379 609.412H149.32C149.32 609.412 159.873 611.851 159.81 612.84Z" fill="#E2A36A"/>
<path d="M144.031 613.23L144.249 611.09C144.249 611.09 145.155 612.278 149.961 612.278C154.186 612.278 154.657 610.772 154.657 610.772C158.61 611.906 160.822 612.096 160.26 612.913C159.571 613.992 144.031 613.23 144.031 613.23Z" fill="#2D313D"/>
<path d="M144.593 603.272L144.43 608.405C145.174 607.995 146.01 607.781 146.859 607.781C147.709 607.781 148.545 607.995 149.289 608.405C149.431 606.679 149.688 604.964 150.06 603.272H144.593Z" fill="#D38753"/>
<path d="M119.058 468.647C119.058 468.647 88.4859 477.78 92.9828 505.949H172.014C172.014 505.949 174.317 493.796 169.295 488.328C164.272 482.859 119.058 468.647 119.058 468.647Z" fill="#476291"/>
<path d="M171.816 505.949C171.816 505.949 161.38 537.057 150.709 606.011H142.758C142.758 606.011 137.128 554.561 138.333 540.712C139.539 526.863 149.712 504.897 149.712 504.897C149.712 504.897 164.78 501.424 171.816 505.949Z" fill="#476291"/>
<path d="M119.574 505.949L149.412 505.768C149.412 505.768 138.895 527.734 138.333 540.676C137.771 553.617 142.757 605.974 142.757 605.974H146.066C146.066 605.974 143.446 550.389 144.353 541.428C145.259 532.468 156.928 503.002 156.32 501.025C155.713 499.047 118.359 488.572 118.359 488.572L119.574 505.949Z" fill="#3E5C87"/>
<path d="M119.056 468.647H56.625L101.241 491.166L119.056 468.647Z" fill="#3E5C87"/>
<path d="M56.6259 468.647C56.6259 468.647 47.7046 483.566 54.6404 505.949H147.118C147.118 505.949 148.994 493.579 143.745 488.328C136.465 481.009 82.7734 474.841 56.6259 468.647Z" fill="#5775AA"/>
<path d="M147.162 505.949C147.162 505.949 137.388 528.323 128.385 606.011H120.407C120.407 606.011 113.861 554.561 114.804 540.712C115.747 526.863 124.505 505.985 124.505 505.985C124.505 505.985 140.036 501.424 147.162 505.949Z" fill="#5775AA"/>
<path d="M54.6448 505.949H124.51C124.51 505.949 115.444 528.831 114.809 540.676C114.021 555.658 120.412 605.975 120.412 605.975H123.377C123.377 605.975 119.125 554.28 120.458 541.274C121.79 528.269 132.942 503.183 131.047 500.462C129.152 497.741 80.2755 495.148 52.1697 485.661C52.1516 485.734 51.2449 497.515 54.6448 505.949Z" fill="#476291"/>
<path d="M105.336 431.372C105.336 444.976 109.769 453.383 120.123 468.692C99.7869 475.64 78.3358 475.041 56.0234 468.692C60.747 455.506 68.0001 444.722 76.1599 435.327L76.3321 435.127L76.5769 434.846C76.6404 434.764 76.7492 434.655 76.7492 434.655C80.9832 426.983 67.8551 418.213 62.6872 403.321C57.4106 388.157 59.7135 380.24 59.7135 380.24C78.8345 371.669 90.0405 369.692 111.791 378.598L112.607 391.785C112.607 391.785 118.509 402.078 117.847 406.695C117.185 411.311 105.336 424.117 105.336 431.372Z" fill="#FF77C4"/>
<path d="M120.123 468.692C118.201 462.244 105.336 452.368 105.336 431.372C105.336 422.947 117.176 413.016 117.829 406.568C113.296 408.49 94.755 414.295 65.1896 408.971C70.8832 423.963 77.9369 428.017 76.7311 434.646L76.5588 434.837L76.314 435.118L76.1599 435.327C68.0001 444.722 60.747 455.506 56.0234 468.692C66.4673 471.744 77.2677 473.406 88.1456 473.635C98.5085 473.617 110.259 472.057 120.123 468.692Z" fill="#ED65B2"/>
<path d="M75.3516 342.82C75.3516 342.82 80.5375 362.328 76.095 375.832H92.895L98.3348 378.235C96.1925 371.422 95.2717 364.283 95.6149 357.149C96.1045 348.86 75.3516 342.82 75.3516 342.82Z" fill="#F4BE84"/>
<path d="M96.1045 368.105C95.5983 364.485 95.4465 360.825 95.6512 357.176C96.1045 348.86 75.3516 342.82 75.3516 342.82C75.3516 342.82 80.329 361.593 76.2582 375.07C83.2959 374.197 90.064 371.821 96.1045 368.105Z" fill="#D17A4A"/>
<path d="M96.4412 439.861C96.4412 438.002 97.3478 433.513 98.3542 428.76C99.7685 421.986 101.382 414.304 101.074 410.522C100.53 404.11 94.0839 385.908 93.821 385.128L92.9688 385.427C93.0322 385.618 99.6507 404.3 100.222 410.595C100.53 414.222 98.9344 421.85 97.5019 428.57C96.4502 433.576 95.5345 437.911 95.5708 439.87C95.7371 451.252 98.3955 462.458 103.359 472.701C103.667 472.701 103.993 472.638 104.265 472.592C99.2904 462.388 96.6192 451.213 96.4412 439.861Z" fill="#DB52A3"/>
<path d="M129.438 431.907C133.436 432.905 138.504 433.386 138.867 435.036C139.646 438.664 133.953 440.895 131.06 440.097C128.241 439.127 125.82 435.308 125.82 435.308C125.82 435.308 125.476 430.919 129.438 431.907Z" fill="#F4BE84"/>
<path d="M146.476 439.934C146.974 439.598 144.481 436.197 143.692 435.671C143.058 435.254 142.396 434.664 136.258 433.413L138.425 436.569C139.879 436.647 141.329 436.801 142.767 437.032C143.293 437.24 144.463 439.997 146.476 439.934Z" fill="#F4BE84"/>
<path d="M142 446.645C142.861 446.536 141.783 442.745 141.338 441.911C140.776 440.868 140.921 440.378 137.231 435.308L136.633 439C136.633 439 139.543 442.301 139.788 442.8C140.033 443.298 140.667 446.074 142 446.645Z" fill="#F4BE84"/>
<path d="M139.064 447.271C139.889 447.18 138.855 443.534 138.429 442.736C137.885 441.729 138.03 441.258 134.485 436.388L133.914 439.934C133.914 439.934 136.707 443.09 136.942 443.561C137.178 444.033 137.813 446.727 139.064 447.271Z" fill="#F4BE84"/>
<path d="M135.244 445.856C135.951 445.774 135.071 442.682 134.709 442.011C134.246 441.158 134.373 440.759 131.372 436.642L130.883 439.644C130.883 439.644 133.249 442.319 133.449 442.736C133.648 443.153 134.183 445.393 135.244 445.856Z" fill="#F4BE84"/>
<path d="M126.42 435.535L120.236 436.206L120.109 430.438C123.248 430.726 126.364 431.217 129.439 431.907L126.42 435.535Z" fill="#F4BE84"/>
<path d="M59.6956 380.231C48.2719 383.922 52.0254 445.076 61.6902 450.318C74.5554 458.308 104.601 442.346 122.435 437.422C122.435 437.422 124.72 433.658 124.321 430.438C109.815 427.618 76.7676 436.614 73.549 436.206C70.3304 435.798 71.0829 376.557 59.6956 380.231Z" fill="#FF77C4"/>
<path d="M62.4934 447.361C54.9048 443.253 51.0063 404.781 55.1859 386.597C49.7461 403.131 53.6537 445.965 61.6865 450.318C74.5517 458.308 104.598 442.346 122.431 437.422C122.958 436.442 123.401 435.42 123.755 434.365C105.84 439.462 75.2498 455.279 62.4934 447.361Z" fill="#E55DAA"/>
<path d="M71.4219 375.569L85.6742 389.744L89.7994 383.74L93.7343 387.114L96.3635 383.178L101.051 388.057L101.277 374.916L92.8911 375.859L71.4219 375.569Z" fill="#DB52A3"/>
<path d="M71.4219 375.569L77.8046 365.72L92.8911 375.859L86.1457 386.271L71.4219 375.569Z" fill="#ED65B2"/>
<path d="M96.0548 368.05L92.8906 375.859L100.343 384.856L101.277 374.916L96.0548 368.05Z" fill="#ED65B2"/>
<path d="M74.579 362.582C74.579 362.582 82.8295 368.985 89.5748 366.509C96.3202 364.033 102.268 357.512 104.135 350.982C106.003 344.452 102.984 331.347 98.4508 326.685C93.9176 322.024 77.0632 318.967 72.3215 325.035C67.5798 331.102 65.7484 355.607 74.579 362.582Z" fill="#FDC596"/>
<path d="M65.2045 383.541C65.2045 383.541 58.441 386.162 54.5968 380.938C50.7527 375.714 57.2079 372.576 57.2079 372.576C57.2079 372.576 53.0102 377.863 59.13 378.525C65.2498 379.188 65.277 368.912 63.1283 363.244C56.9269 346.919 60.5262 336.117 63.3912 330.259C65.41 326.415 68.1138 322.973 71.3696 320.101L74.8692 318.151L77.29 324.092C74.6611 328.177 72.4412 332.512 70.6624 337.033C68.4321 343.237 67.4801 351.209 72.7024 361.521C77.9246 371.832 79.2302 381.863 65.2045 383.541Z" fill="#442B19"/>
<path d="M77.2874 324.092L74.8667 318.151C74.8667 318.151 67.8583 314.523 62.5182 328.672C60.6737 334.012 59.6021 339.588 59.3359 345.232C61.7295 354.02 68.5293 364.16 72.2193 372.776C76.8885 383.659 62.6089 380.738 62.6089 380.738C62.6089 380.738 67.3688 388.792 74.5221 382.552C82.3918 375.732 75.5285 364.468 72.5275 358.573C69.5266 352.678 70.0252 341.505 72.9083 335.156C74.5683 331.55 76.0302 327.857 77.2874 324.092Z" fill="#513826"/>
<path d="M77.2906 324.092C77.2906 324.092 93.2746 319.856 101.307 339.219C109.34 358.582 97.8078 367.497 99.8387 373.465C101.87 379.432 107.309 380.294 111.988 374.154C111.988 374.154 106.24 377.854 105.378 373.673C104.517 369.492 114.073 363.362 113.203 347.372C112.951 342.527 112.191 337.721 110.936 333.034C108.479 327.266 104.589 321.461 98.7961 318.006C87.1911 311.077 73.8272 311.558 74.8699 318.133L77.2906 324.092Z" fill="#442B19"/>
<path d="M194.802 444.976L123.812 444.994L138.718 389.926L209.707 389.907L194.802 444.976Z" fill="#8394B4"/>
<path d="M194.411 445.736L89.9297 445.864L89.9349 450.135L194.416 450.008L194.411 445.736Z" fill="#A5C0D7"/>
<path d="M194.841 444.904L125.492 444.994L140.107 391.005L209.456 390.914L194.841 444.904Z" fill="#A5C0D7"/>
<path d="M174.074 417.351C173.521 418.725 172.58 419.908 171.366 420.755C170.152 421.602 168.717 422.077 167.238 422.122C164.336 422.122 162.705 419.999 163.566 417.369C164.126 415.996 165.077 414.817 166.3 413.979C167.523 413.141 168.965 412.68 170.447 412.653C173.33 412.599 174.98 414.73 174.074 417.351Z" fill="#8394B4"/>
<g style="mix-blend-mode:multiply" opacity="0.2">
<path d="M125.492 444.994L140.107 391.005L209.456 390.914L125.492 444.994Z" fill="#A5C0D7"/>
</g>
<path d="M123.596 445.835L89.9141 445.87L89.9185 450.142L123.6 450.107L123.596 445.835Z" fill="#8394B4"/>
<path d="M145.51 444.979L132.5 444.995L132.502 446.873L145.513 446.857L145.51 444.979Z" fill="#8394B4"/>
<path d="M190.055 444.934L178.922 444.948L178.924 446.825L190.058 446.811L190.055 444.934Z" fill="#8394B4"/>
<path d="M140.561 391.685L209.275 391.603L209.456 390.914L140.107 391.005L125.492 444.994H126.136L140.561 391.685Z" fill="#BAD6F2"/>
<path d="M406.027 431.318L477.153 431.336L462.221 376.158L391.086 376.131L406.027 431.318Z" fill="#8394B4"/>
<path d="M406.419 432.075L406.414 436.356L511.104 436.484L511.109 432.203L406.419 432.075Z" fill="#A5C0D7"/>
<path d="M405.979 431.245L475.464 431.336L460.822 377.238L391.328 377.147L405.979 431.245Z" fill="#A5C0D7"/>
<path d="M426.756 403.638C427.311 405.013 428.253 406.197 429.468 407.046C430.684 407.894 432.12 408.371 433.601 408.418C436.511 408.418 438.134 406.287 437.291 403.657C436.737 402.281 435.795 401.097 434.579 400.248C433.364 399.399 431.927 398.923 430.446 398.877C427.535 398.877 425.885 401.008 426.756 403.638Z" fill="#8394B4"/>
<g style="mix-blend-mode:multiply" opacity="0.2">
<path d="M475.464 431.336L460.822 377.238L391.328 377.147L475.464 431.336Z" fill="#A5C0D7"/>
</g>
<path d="M477.348 432.163L477.344 436.444L511.089 436.48L511.093 432.199L477.348 432.163Z" fill="#8394B4"/>
<path d="M455.362 431.303L455.359 433.181L468.397 433.197L468.399 431.319L455.362 431.303Z" fill="#8394B4"/>
<path d="M410.744 431.25L410.742 433.127L421.903 433.141L421.905 431.264L410.744 431.25Z" fill="#8394B4"/>
<path d="M460.36 377.918L391.519 377.836L391.328 377.147L460.822 377.238L475.464 431.336H474.82L460.36 377.918Z" fill="#BAD6F2"/>
<path d="M24.7029 441.947H15.8359V616.948H24.7029V441.947Z" fill="#C48C58"/>
<path d="M135.336 442.455H16.3672V459.895H135.336V442.455Z" fill="#C48C58"/>
<path d="M545.984 441.947H537.117V616.948H545.984V441.947Z" fill="#A8693F"/>
<path d="M544.693 442.455H130.812V459.895H544.693V442.455Z" fill="#A8693F"/>
<path d="M138.734 436.442H0V447.878H138.734V436.442Z" fill="#D39B67"/>
<path d="M562.169 436.442H128.75V447.878H562.169V436.442Z" fill="#B7784E"/>
<path d="M562.17 436.442H0V438.809H562.17V436.442Z" fill="#E8AB73"/>
<path d="M326.281 423.373C326.288 421.323 327.109 419.36 328.562 417.914C330.016 416.469 331.983 415.659 334.033 415.664H337.116C337.572 415.664 338.011 415.846 338.334 416.169C338.657 416.492 338.838 416.93 338.838 417.387V429.359C338.836 429.814 338.653 430.25 338.33 430.572C338.008 430.893 337.571 431.073 337.116 431.073H334.033C331.985 431.078 330.019 430.27 328.566 428.826C327.112 427.383 326.291 425.422 326.281 423.373ZM336.662 417.832H334.033C332.564 417.832 331.155 418.416 330.116 419.455C329.077 420.494 328.493 421.904 328.493 423.373C328.493 424.843 329.077 426.252 330.116 427.291C331.155 428.331 332.564 428.915 334.033 428.915H336.662V417.832Z" fill="#6D97BE"/>
<path d="M351.076 437.05H340.659C339.081 437.05 337.568 436.423 336.453 435.307C335.338 434.191 334.711 432.678 334.711 431.1V410.404H357.023V431.1C357.023 432.678 356.397 434.191 355.281 435.307C354.166 436.423 352.653 437.05 351.076 437.05Z" fill="#95BAE2"/>
<path d="M339.992 410.404V432.343C340.038 433.345 340.36 434.316 340.924 435.146C341.487 435.977 342.269 436.636 343.183 437.05H341.306C337.68 437.05 334.742 434.637 334.742 431.663V410.404H339.992Z" fill="#6D97BE"/>
<path d="M353.318 426.575H353.808C354.138 426.575 354.406 426.307 354.406 425.976V412.699C354.406 412.368 354.138 412.1 353.808 412.1H353.318C352.988 412.1 352.72 412.368 352.72 412.699V425.976C352.72 426.307 352.988 426.575 353.318 426.575Z" fill="#CCDDED"/>
<path d="M347.593 409.234C347.739 409.234 347.88 409.176 347.984 409.072C348.087 408.968 348.146 408.828 348.146 408.681V405.053C348.188 404.824 348.317 404.619 348.506 404.482C348.695 404.345 348.93 404.287 349.161 404.319H357.665C358.154 404.3 358.618 404.096 358.962 403.747C359.201 403.487 359.385 403.181 359.502 402.847C359.619 402.513 359.666 402.159 359.642 401.806C359.664 401.482 359.613 401.156 359.494 400.854C359.375 400.551 359.19 400.278 358.953 400.056C358.452 399.664 357.817 399.485 357.185 399.557H334.22C333.754 399.334 333.373 398.966 333.134 398.508C332.896 398.05 332.812 397.527 332.896 397.018C332.861 396.478 333.003 395.941 333.301 395.489C333.599 395.037 334.036 394.695 334.546 394.515H348.563C348.698 394.497 348.823 394.431 348.913 394.328C349.004 394.226 349.054 394.094 349.054 393.957C349.054 393.82 349.004 393.688 348.913 393.585C348.823 393.483 348.698 393.416 348.563 393.399H334.356C333.592 393.621 332.924 394.091 332.458 394.735C331.992 395.378 331.753 396.16 331.781 396.954C331.693 397.716 331.859 398.485 332.255 399.141C332.65 399.797 333.252 400.304 333.966 400.582H334.12H357.285C357.605 400.549 357.927 400.633 358.191 400.818C358.305 400.938 358.391 401.081 358.444 401.238C358.497 401.394 358.516 401.56 358.499 401.725C358.499 403.031 357.765 403.121 357.593 403.131H349.134C348.635 403.099 348.143 403.25 347.747 403.556C347.352 403.861 347.081 404.3 346.985 404.79V408.59C346.971 408.675 346.976 408.762 347.001 408.844C347.025 408.926 347.069 409.002 347.128 409.064C347.187 409.127 347.26 409.175 347.34 409.204C347.421 409.234 347.507 409.244 347.593 409.234Z" fill="#CCDDED"/>
<path d="M98.9061 81.3516H34.4531V129.147H98.9061V81.3516Z" fill="#B0DFE2"/>
<path d="M97.4192 81.3516H34.4531V127.097H97.4192V81.3516Z" fill="white"/>
<path d="M44.6406 104.85L58.9927 97.885V100.606L47.6144 105.911V105.966L58.9927 111.299V114.019L44.6406 107.018V104.85Z" fill="#2D4C9D"/>
<path d="M61.0781 115.18L68.4672 93.2234H71.0693L63.6802 115.18H61.0781Z" fill="#2D4C9D"/>
<path d="M87.2258 107.09L72.8828 113.992V111.271L84.4425 105.939V105.884L72.8828 100.579V97.8578L87.2258 104.76V107.09Z" fill="#2D4C9D"/>
<path d="M58.8438 241.951C58.8392 247.919 60.5167 253.768 63.6839 258.826C66.8511 263.884 71.3796 267.946 76.7499 270.546L61.5909 229.018C59.7779 233.088 58.8418 237.495 58.8438 241.951Z" fill="#21759B"/>
<path d="M112.051 240.337C112.007 237.23 111.1 234.196 109.431 231.576C107.817 228.955 106.312 226.742 106.312 224.121C106.275 222.667 106.815 221.257 107.814 220.2C108.813 219.143 110.19 218.525 111.643 218.479C111.788 218.479 111.915 218.479 112.051 218.479C108.662 215.368 104.637 213.031 100.255 211.631C95.8735 210.23 91.2398 209.799 86.6751 210.367C82.1104 210.936 77.7238 212.49 73.8192 214.923C69.9147 217.356 66.5856 220.609 64.0625 224.456C64.815 224.456 65.5131 224.502 66.1115 224.502C69.4298 224.502 74.5795 224.093 74.5795 224.093C74.9202 224.079 75.2532 224.198 75.5082 224.424C75.7631 224.651 75.9201 224.967 75.946 225.307C75.9719 225.648 75.8646 225.984 75.6469 226.247C75.4291 226.51 75.1179 226.677 74.779 226.714C74.779 226.714 73.0564 226.914 71.1524 227.014L82.7211 261.477L89.675 240.618L84.7248 227.014C83.0112 226.914 81.3884 226.714 81.3884 226.714C81.0494 226.677 80.7382 226.51 80.5204 226.247C80.3027 225.984 80.1954 225.648 80.2213 225.307C80.2472 224.967 80.4042 224.651 80.6592 224.424C80.9141 224.198 81.2471 224.079 81.5878 224.093C81.5878 224.093 86.8373 224.502 89.9561 224.502C93.2835 224.502 98.4241 224.093 98.4241 224.093C98.7648 224.079 99.0978 224.198 99.3528 224.424C99.6077 224.651 99.7647 224.967 99.7906 225.307C99.8165 225.648 99.7092 225.984 99.4915 226.247C99.2737 226.51 98.9625 226.677 98.6236 226.714C98.6236 226.714 96.9009 226.914 94.997 227.014L106.457 261.196L109.63 250.603C110.999 246.223 112.051 243.057 112.051 240.337Z" fill="#21759B"/>
<path d="M91.1588 244.726L81.5938 272.433C87.9935 274.309 94.8201 274.131 101.114 271.925C101.026 271.784 100.95 271.635 100.887 271.481L91.1588 244.726Z" fill="#21759B"/>
<path d="M118.482 226.733C118.625 227.815 118.694 228.906 118.691 229.997C118.639 233.913 117.82 237.78 116.279 241.379L106.578 269.44C113.741 265.283 118.995 258.489 121.219 250.51C123.443 242.53 122.461 233.997 118.482 226.733Z" fill="#21759B"/>
<path d="M90.6131 204.912C83.2898 204.912 76.131 207.084 70.0419 211.154C63.9528 215.224 59.207 221.009 56.4045 227.777C53.602 234.545 52.8687 241.992 54.2974 249.177C55.7261 256.362 59.2526 262.961 64.4309 268.141C69.6093 273.321 76.2069 276.849 83.3894 278.278C90.572 279.707 98.0169 278.974 104.783 276.17C111.549 273.367 117.331 268.62 121.4 262.529C125.469 256.438 127.64 249.276 127.64 241.951C127.628 232.131 123.723 222.717 116.782 215.774C109.841 208.83 100.43 204.924 90.6131 204.912ZM90.6131 277.285C83.6197 277.285 76.7835 275.21 70.9687 271.324C65.154 267.437 60.6219 261.913 57.9457 255.45C55.2695 248.987 54.5692 241.875 55.9336 235.014C57.2979 228.153 60.6655 221.851 65.6106 216.904C70.5556 211.957 76.8559 208.589 83.7149 207.224C90.5738 205.859 97.6833 206.56 104.144 209.237C110.605 211.914 116.128 216.447 120.013 222.264C123.898 228.08 125.972 234.919 125.972 241.915C125.972 251.295 122.247 260.292 115.616 266.925C108.985 273.558 99.9908 277.285 90.6131 277.285Z" fill="#21759B"/>
</g>
<defs>
<linearGradient id="paint0_linear_3017_1338" x1="265.598" y1="267.553" x2="289.728" y2="333.428" gradientUnits="userSpaceOnUse">
<stop stop-color="#CFD4D8"/>
<stop offset="1" stop-color="#CFD4D8"/>
</linearGradient>
<linearGradient id="paint1_linear_3017_1338" x1="257.186" y1="296.593" x2="275.5" y2="296.593" gradientUnits="userSpaceOnUse">
<stop stop-color="#F5A0AA"/>
<stop offset="0.22" stop-color="#F38E99"/>
<stop offset="0.73" stop-color="#F06774"/>
<stop offset="1" stop-color="#EF5866"/>
</linearGradient>
<clipPath id="clip0_3017_1338">
<rect width="568" height="622" fill="white"/>
</clipPath>
</defs>
</svg>
