<svg width="446" height="236" viewBox="0 0 446 236" fill="none" xmlns="http://www.w3.org/2000/svg">
<path d="M82.676 55.6317C81.9962 56.5834 80.5006 56.8554 79.5489 56.1755C78.4611 55.4957 78.1892 54.0001 78.869 53.0483C84.3076 45.1624 85.8032 36.3246 83.6278 29.5264C81.4524 22.3203 74.926 17.5615 65.0006 18.5132C48.141 20.1448 35.4962 32.2457 31.5532 44.6185C29.2418 51.9606 29.9217 59.3027 34.8164 64.3334C38.8953 68.4124 45.5576 70.9957 55.2111 70.9957C56.4348 70.9957 57.5225 71.9475 57.5225 73.1711C57.6585 74.5308 56.7067 75.6185 55.4831 75.7545C43.2462 76.9782 21.8997 95.1975 12.1102 114.096C5.44793 126.877 4.08828 140.066 15.7813 148.496C26.3866 156.246 39.4392 154.614 51.948 149.311C72.6146 140.61 92.3296 121.982 99.8076 114.912C100.216 114.504 101.032 114.504 101.576 114.912C101.983 115.456 101.983 116.272 101.44 116.68C93.9611 124.022 74.1103 143.193 53.3076 152.303C39.5752 158.285 25.2988 159.917 13.6059 151.623C0.0093298 142.105 0.825118 126.877 8.16723 112.193C16.1892 96.4211 31.8252 81.465 44.4699 74.6668C38.7594 73.3071 34.4085 70.8597 31.4173 67.8685C25.1629 61.4782 23.9392 52.2325 26.9304 43.1229C31.4173 29.2545 45.5576 15.658 64.5927 13.8904C77.2375 12.6667 85.2594 19.0571 88.1146 28.1667C90.562 36.1887 88.9304 46.3861 82.676 55.6317ZM115.057 108.794C115.601 108.386 116.281 108.386 116.689 108.794C117.097 109.202 117.097 110.018 116.553 110.425L104.996 121.439C105.404 123.07 106.084 124.566 107.443 125.382C109.755 126.741 112.882 125.789 116.145 124.022C120.768 121.711 125.391 117.768 129.198 114.776C129.742 114.232 130.557 114.368 131.101 114.912C131.509 115.456 131.373 116.408 130.829 116.816C126.206 120.623 120.36 125.518 115.057 127.965C111.658 129.325 108.395 129.732 105.812 128.509C104.044 127.693 102.685 126.197 101.733 124.43L92.2148 133.404C91.8069 133.811 90.9912 133.811 90.5833 133.404C90.1754 132.86 90.1754 132.18 90.5833 131.636L100.781 122.118C99.8289 118.991 99.421 114.776 99.421 109.882C99.421 108.386 100.781 107.162 102.277 107.298C103.772 107.298 104.996 108.522 104.996 110.154C104.588 113.281 104.452 116.136 104.588 118.583L115.057 108.794ZM156.452 128.509C154.005 128.917 151.829 129.189 150.062 129.596C147.887 130.14 146.391 130.548 146.119 132.452C145.983 133.132 146.663 133.268 147.343 133.268C148.43 133.404 149.79 133.132 151.014 132.588C153.053 131.636 154.821 130.276 156.452 128.509ZM158.9 124.974C159.444 124.294 159.851 123.478 160.259 122.662C162.435 118.039 163.387 113.145 160.395 110.833C157.268 108.25 151.965 109.066 147.887 112.329C144.759 114.912 142.176 118.991 141.496 124.294C141.36 127.013 141.224 130.004 140.952 132.996C140.544 142.649 140.001 153.39 139.729 163.18C139.593 167.803 139.457 172.154 139.457 176.096C139.457 184.798 139.729 191.189 141.088 192.956C141.632 193.5 141.496 194.452 140.952 194.996C140.408 195.539 139.457 195.404 138.913 194.86C136.737 192.548 135.378 181.127 135.242 167.123C135.242 152.846 136.058 135.715 137.009 122.798C137.281 117.632 137.689 113.281 138.097 110.018C137.689 110.425 137.281 110.833 136.873 111.241C134.698 113.281 131.843 116 128.036 119.127C127.356 119.671 126.54 119.535 126.132 118.991C125.588 118.447 125.724 117.632 126.268 117.224C129.939 113.961 132.658 111.241 134.562 109.066C137.961 105.259 138.913 103.219 138.913 103.219C139.321 102.404 140.272 101.996 141.088 102.268C141.904 102.539 142.584 103.355 142.448 104.171C142.448 104.171 142.312 108.114 142.04 114.232C143.808 111.377 146.255 109.202 148.702 107.706C153.597 104.851 159.172 104.715 162.979 107.434C166.786 110.154 167.601 115.728 165.97 121.439C165.698 121.982 165.562 122.526 165.426 123.206C169.641 121.575 174.4 118.855 179.43 114.64C179.974 114.096 180.79 114.096 181.334 114.64C181.742 115.184 181.742 116.136 181.198 116.544C176.167 121.031 171.408 123.75 167.058 125.518C165.834 126.061 164.746 126.469 163.658 126.741C162.979 128.101 162.027 129.325 161.075 130.548C158.764 133.268 155.908 135.443 152.781 136.667C150.334 137.618 147.479 137.754 145.439 137.075C143.128 136.123 141.768 134.491 142.448 131.772C142.992 129.596 144.079 128.237 145.983 127.421C148.566 126.197 153.189 126.333 158.9 124.974ZM184.072 115.048C186.656 115.728 188.695 115.728 190.327 115.32C193.046 114.504 194.406 112.465 193.182 111.105C190.735 108.114 187.064 110.425 184.888 113.689C184.616 114.096 184.344 114.64 184.072 115.048ZM183.121 118.039C182.849 120.215 183.121 122.39 184.48 124.566C187.064 128.917 192.366 128.781 197.941 127.149C207.186 124.43 217.112 117.088 219.967 114.776C220.511 114.232 221.327 114.368 221.871 114.912C222.278 115.456 222.278 116.272 221.735 116.68C218.335 119.671 205.147 129.325 194.542 131.364C188.967 132.316 184.072 131.364 180.945 126.877C177.41 121.439 178.226 115.32 181.081 111.105C184.888 105.395 192.094 103.355 196.173 108.794C198.077 111.377 197.397 115.592 193.182 117.632C191.006 118.719 187.607 119.263 183.121 118.039ZM219.536 114.64C220.895 113.417 221.575 112.329 221.983 111.241C222.663 109.066 221.303 107.026 219.944 107.842C218.72 108.386 218.312 109.338 218.176 110.561C218.176 111.921 218.584 113.553 219.4 114.368L219.536 114.64ZM218.312 116.952C218.04 116.816 217.768 116.544 217.496 116.272C215.729 114.776 214.641 111.785 214.913 109.202C215.185 107.162 216.273 105.395 218.176 104.443C221.303 103.083 224.43 104.987 225.11 108.386C225.518 110.561 224.974 113.417 222.119 115.864C222.935 116.136 223.887 116 224.702 115.728C226.606 115.184 228.238 113.689 229.325 111.921C229.869 110.697 231.093 110.018 232.452 110.425C233.948 110.697 234.764 112.193 234.492 113.689C232.996 118.583 232.588 121.982 232.996 124.158C233.132 125.246 233.54 126.061 234.492 126.197C239.387 127.149 248.768 119.263 254.615 114.64C255.159 114.232 255.974 114.368 256.518 114.912C256.926 115.456 256.79 116.272 256.246 116.68C249.992 122.118 239.523 130.412 233.948 129.732C230.413 129.325 227.694 125.925 228.509 116.272C227.558 117.088 226.47 117.632 225.382 118.039C223.343 118.583 221.167 118.583 219.264 117.632C218.992 117.496 218.584 117.36 218.448 117.088L218.312 116.952ZM259.629 95.6054C262.893 94.1097 264.388 95.4694 263.029 99.1404C262.621 100.636 261.669 101.86 260.037 101.86C258.406 101.86 257.182 100.5 257.182 99.0045C257.182 97.3729 258.27 96.2852 259.629 95.6054ZM254.735 112.465C255.007 110.969 256.502 110.154 257.998 110.425C259.494 110.833 260.445 112.193 260.037 113.689C258.678 118.719 258.134 121.982 258.542 124.158C258.814 125.382 259.086 126.333 259.901 126.469C264.932 127.421 278.121 116.544 280.16 114.912C280.704 114.504 281.52 114.368 282.064 114.912C282.472 115.456 282.472 116.408 281.792 116.816C275.537 122.118 265.068 130.412 259.494 129.868C255.551 129.325 252.559 125.11 254.735 112.465ZM285.17 115.048C287.753 115.728 289.792 115.728 291.424 115.32C294.143 114.504 295.503 112.465 294.279 111.105C291.832 108.114 288.161 110.425 285.985 113.689C285.714 114.096 285.442 114.64 285.17 115.048ZM284.218 118.039C283.946 120.215 284.218 122.39 285.578 124.566C288.161 128.917 293.464 128.781 299.038 127.149C308.284 124.43 318.209 117.088 321.064 114.776C321.608 114.232 322.424 114.368 322.968 114.912C323.376 115.456 323.376 116.272 322.832 116.68C319.433 119.671 306.244 129.325 295.639 131.364C290.064 132.316 285.17 131.364 282.042 126.877C278.507 121.439 279.323 115.32 282.178 111.105C285.985 105.395 293.192 103.355 297.271 108.794C299.174 111.377 298.494 115.592 294.279 117.632C292.104 118.719 288.705 119.263 284.218 118.039ZM322.809 124.022C324.576 121.575 327.431 117.768 330.559 114.232C333.142 111.377 335.861 108.794 338.173 107.162C338.309 107.162 338.309 107.026 338.445 107.026C339.124 106.618 340.076 106.346 340.892 106.618C342.252 107.162 343.067 108.658 342.659 110.154C341.164 113.961 340.62 117.224 340.62 119.807C340.756 122.39 341.3 124.294 342.116 125.518C343.747 127.285 346.738 125.925 350.273 124.022C354.76 121.575 359.791 117.36 363.326 114.504C364.006 114.096 364.822 114.096 365.23 114.64C365.773 115.32 365.638 116.136 365.094 116.544C360.743 120.215 354.352 125.382 349.186 127.965C345.107 129.868 341.572 130.004 339.396 127.829C338.037 126.333 336.813 123.75 336.405 120.079C335.997 117.904 336.133 115.184 336.541 112.057C335.317 113.281 334.094 114.64 332.87 116.136C328.111 121.711 323.896 127.965 323.896 127.965C323.624 128.373 323.216 128.645 322.809 128.645C322.809 128.645 320.361 129.596 319.681 125.654C319.273 124.022 319.409 121.031 320.633 115.456C320.769 114.504 321.721 113.961 322.537 114.232C323.488 114.368 324.032 115.32 323.896 116.136C322.945 119.807 322.809 122.39 322.809 124.022ZM380.645 110.018C381.324 110.833 381.053 111.921 380.237 112.465C379.421 113.145 378.333 112.873 377.789 112.057C376.43 110.154 374.662 109.338 373.031 109.61C371.263 109.746 369.631 111.105 368.272 112.737C366.096 115.728 365.145 120.215 367.864 124.294C370.447 128.645 375.206 129.868 381.324 128.237C387.307 126.469 394.649 121.982 402.943 114.64C403.487 114.096 404.438 114.096 404.846 114.64C405.39 115.184 405.39 116.136 404.846 116.544C396.145 124.566 388.531 129.325 382.276 131.364C374.254 133.947 368.136 132.044 364.329 126.605C360.522 120.759 361.61 114.232 365.009 110.154C367.048 107.57 369.903 106.075 372.759 105.939C375.614 105.667 378.469 106.754 380.645 110.018ZM407.777 115.048C410.36 115.728 412.4 115.728 414.031 115.32C416.751 114.504 418.11 112.465 416.887 111.105C414.439 108.114 410.768 110.425 408.593 113.689C408.321 114.096 408.049 114.64 407.777 115.048ZM406.825 118.039C406.553 120.215 406.825 122.39 408.185 124.566C410.768 128.917 416.071 128.781 421.645 127.149C430.891 124.43 440.817 117.088 443.672 114.776C444.216 114.232 445.031 114.368 445.575 114.912C445.983 115.456 445.983 116.272 445.439 116.68C442.04 119.671 428.852 129.325 418.246 131.364C412.672 132.316 407.777 131.364 404.65 126.877C401.115 121.439 401.931 115.32 404.786 111.105C408.593 105.395 415.799 103.355 419.878 108.794C421.781 111.377 421.102 115.592 416.887 117.632C414.711 118.719 411.312 119.263 406.825 118.039Z" fill="#FC5546"/>
<path d="M6.19824 221.458H2.79297L2.81445 218.944H6.19824C7.04329 218.944 7.75586 218.755 8.33594 218.375C8.91602 217.988 9.35286 217.426 9.64648 216.688C9.94727 215.951 10.0977 215.059 10.0977 214.014V213.251C10.0977 212.449 10.0117 211.743 9.83984 211.135C9.67513 210.526 9.42806 210.014 9.09863 209.599C8.76921 209.183 8.36458 208.872 7.88477 208.664C7.40495 208.449 6.85352 208.342 6.23047 208.342H2.72852V205.817H6.23047C7.27604 205.817 8.2321 205.996 9.09863 206.354C9.97233 206.705 10.7279 207.21 11.3652 207.869C12.0026 208.528 12.4932 209.316 12.8369 210.232C13.1878 211.142 13.3633 212.155 13.3633 213.272V214.014C13.3633 215.124 13.1878 216.137 12.8369 217.054C12.4932 217.97 12.0026 218.758 11.3652 219.417C10.735 220.069 9.97949 220.574 9.09863 220.932C8.22493 221.283 7.25814 221.458 6.19824 221.458ZM4.61914 205.817V221.458H1.39648V205.817H4.61914ZM24.2021 219.138L28.4346 222.489L26.4043 224.251L22.2363 220.899L24.2021 219.138ZM28.542 213.272V214.014C28.542 215.202 28.3809 216.27 28.0586 217.215C27.7435 218.16 27.2887 218.966 26.6943 219.632C26.0999 220.291 25.3981 220.796 24.5889 221.146C23.7796 221.497 22.8809 221.673 21.8926 221.673C20.9115 221.673 20.0127 221.497 19.1963 221.146C18.3799 220.796 17.6745 220.291 17.0801 219.632C16.4857 218.966 16.0238 218.16 15.6943 217.215C15.3721 216.27 15.2109 215.202 15.2109 214.014V213.272C15.2109 212.076 15.3721 211.009 15.6943 210.071C16.0238 209.126 16.4821 208.32 17.0693 207.654C17.6566 206.988 18.3584 206.48 19.1748 206.129C19.9912 205.778 20.89 205.603 21.8711 205.603C22.8594 205.603 23.7581 205.778 24.5674 206.129C25.3838 206.48 26.0892 206.988 26.6836 207.654C27.278 208.32 27.7363 209.126 28.0586 210.071C28.3809 211.009 28.542 212.076 28.542 213.272ZM25.2871 214.014V213.251C25.2871 212.42 25.2083 211.69 25.0508 211.06C24.9004 210.429 24.6784 209.899 24.3848 209.47C24.0983 209.04 23.7438 208.718 23.3213 208.503C22.8988 208.281 22.4154 208.17 21.8711 208.17C21.3268 208.17 20.8434 208.281 20.4209 208.503C19.9984 208.718 19.6439 209.04 19.3574 209.47C19.071 209.899 18.8525 210.429 18.7021 211.06C18.5518 211.69 18.4766 212.42 18.4766 213.251V214.014C18.4766 214.837 18.5518 215.568 18.7021 216.205C18.8525 216.835 19.071 217.369 19.3574 217.806C19.651 218.235 20.0091 218.561 20.4316 218.783C20.8613 219.005 21.3483 219.116 21.8926 219.116C22.4368 219.116 22.9167 219.005 23.332 218.783C23.7546 218.561 24.109 218.235 24.3955 217.806C24.6891 217.369 24.9111 216.835 25.0615 216.205C25.2119 215.568 25.2871 214.837 25.2871 214.014ZM43.7207 213.272V214.014C43.7207 215.202 43.5596 216.27 43.2373 217.215C42.915 218.16 42.4603 218.966 41.873 219.632C41.2858 220.291 40.584 220.796 39.7676 221.146C38.9583 221.497 38.0596 221.673 37.0713 221.673C36.0902 221.673 35.1914 221.497 34.375 221.146C33.5658 220.796 32.8639 220.291 32.2695 219.632C31.6751 218.966 31.2132 218.16 30.8838 217.215C30.5615 216.27 30.4004 215.202 30.4004 214.014V213.272C30.4004 212.076 30.5615 211.009 30.8838 210.071C31.2061 209.126 31.6608 208.32 32.248 207.654C32.8424 206.988 33.5443 206.48 34.3535 206.129C35.1699 205.778 36.0687 205.603 37.0498 205.603C38.0381 205.603 38.9368 205.778 39.7461 206.129C40.5625 206.48 41.2643 206.988 41.8516 207.654C42.446 208.32 42.9043 209.126 43.2266 210.071C43.556 211.009 43.7207 212.076 43.7207 213.272ZM40.4658 214.014V213.251C40.4658 212.42 40.3906 211.69 40.2402 211.06C40.0898 210.429 39.8678 209.899 39.5742 209.47C39.2806 209.04 38.9225 208.718 38.5 208.503C38.0775 208.281 37.5941 208.17 37.0498 208.17C36.5055 208.17 36.0221 208.281 35.5996 208.503C35.1842 208.718 34.8298 209.04 34.5361 209.47C34.2497 209.899 34.0312 210.429 33.8809 211.06C33.7305 211.69 33.6553 212.42 33.6553 213.251V214.014C33.6553 214.837 33.7305 215.568 33.8809 216.205C34.0312 216.835 34.2533 217.369 34.5469 217.806C34.8405 218.235 35.1986 218.561 35.6211 218.783C36.0436 219.005 36.527 219.116 37.0713 219.116C37.6156 219.116 38.099 219.005 38.5215 218.783C38.944 218.561 39.2985 218.235 39.585 217.806C39.8714 217.369 40.0898 216.835 40.2402 216.205C40.3906 215.568 40.4658 214.837 40.4658 214.014ZM52.3037 205.817V221.458H49.0918V205.817H52.3037ZM57.1162 205.817V208.342H44.3545V205.817H57.1162ZM71.9941 217.365C71.9941 217.086 71.9512 216.835 71.8652 216.613C71.7865 216.384 71.6361 216.176 71.4141 215.99C71.1921 215.797 70.8805 215.607 70.4795 215.421C70.0785 215.235 69.5592 215.041 68.9219 214.841C68.2129 214.612 67.5397 214.354 66.9023 214.067C66.2721 213.781 65.7135 213.448 65.2266 213.068C64.7467 212.682 64.3672 212.234 64.0879 211.726C63.8158 211.217 63.6797 210.626 63.6797 209.953C63.6797 209.301 63.8229 208.711 64.1094 208.181C64.3958 207.644 64.7969 207.185 65.3125 206.806C65.8281 206.419 66.4368 206.122 67.1387 205.914C67.8477 205.706 68.6247 205.603 69.4697 205.603C70.6227 205.603 71.6289 205.81 72.4883 206.226C73.3477 206.641 74.0137 207.21 74.4863 207.934C74.9661 208.657 75.2061 209.484 75.2061 210.415H72.0049C72.0049 209.957 71.9082 209.556 71.7148 209.212C71.5286 208.861 71.2422 208.585 70.8555 208.385C70.4759 208.184 69.9961 208.084 69.416 208.084C68.8574 208.084 68.3919 208.17 68.0195 208.342C67.6471 208.507 67.3678 208.732 67.1816 209.019C66.9954 209.298 66.9023 209.613 66.9023 209.964C66.9023 210.229 66.9668 210.469 67.0957 210.684C67.2318 210.898 67.4323 211.099 67.6973 211.285C67.9622 211.471 68.2881 211.647 68.6748 211.812C69.0615 211.976 69.5091 212.137 70.0176 212.295C70.8698 212.553 71.6182 212.843 72.2627 213.165C72.9144 213.487 73.4587 213.849 73.8955 214.25C74.3324 214.651 74.6618 215.106 74.8838 215.614C75.1058 216.123 75.2168 216.699 75.2168 217.344C75.2168 218.024 75.0843 218.633 74.8193 219.17C74.5544 219.707 74.1712 220.162 73.6699 220.534C73.1686 220.907 72.5706 221.189 71.876 221.383C71.1813 221.576 70.4043 221.673 69.5449 221.673C68.7715 221.673 68.0088 221.573 67.2568 221.372C66.5049 221.164 65.821 220.853 65.2051 220.438C64.5964 220.022 64.1094 219.492 63.7441 218.848C63.3789 218.203 63.1963 217.44 63.1963 216.56H66.4297C66.4297 217.047 66.5049 217.458 66.6553 217.795C66.8057 218.132 67.0169 218.404 67.2891 218.611C67.5684 218.819 67.8978 218.969 68.2773 219.062C68.6641 219.156 69.0866 219.202 69.5449 219.202C70.1035 219.202 70.5618 219.123 70.9199 218.966C71.2852 218.808 71.5537 218.59 71.7256 218.311C71.9046 218.031 71.9941 217.716 71.9941 217.365ZM90.2559 213.272V214.014C90.2559 215.202 90.0947 216.27 89.7725 217.215C89.4502 218.16 88.9954 218.966 88.4082 219.632C87.821 220.291 87.1191 220.796 86.3027 221.146C85.4935 221.497 84.5947 221.673 83.6064 221.673C82.6253 221.673 81.7266 221.497 80.9102 221.146C80.1009 220.796 79.3991 220.291 78.8047 219.632C78.2103 218.966 77.7484 218.16 77.4189 217.215C77.0967 216.27 76.9355 215.202 76.9355 214.014V213.272C76.9355 212.076 77.0967 211.009 77.4189 210.071C77.7412 209.126 78.196 208.32 78.7832 207.654C79.3776 206.988 80.0794 206.48 80.8887 206.129C81.7051 205.778 82.6038 205.603 83.585 205.603C84.5732 205.603 85.472 205.778 86.2812 206.129C87.0977 206.48 87.7995 206.988 88.3867 207.654C88.9811 208.32 89.4395 209.126 89.7617 210.071C90.0911 211.009 90.2559 212.076 90.2559 213.272ZM87.001 214.014V213.251C87.001 212.42 86.9258 211.69 86.7754 211.06C86.625 210.429 86.403 209.899 86.1094 209.47C85.8158 209.04 85.4577 208.718 85.0352 208.503C84.6126 208.281 84.1292 208.17 83.585 208.17C83.0407 208.17 82.5573 208.281 82.1348 208.503C81.7194 208.718 81.3649 209.04 81.0713 209.47C80.7848 209.899 80.5664 210.429 80.416 211.06C80.2656 211.69 80.1904 212.42 80.1904 213.251V214.014C80.1904 214.837 80.2656 215.568 80.416 216.205C80.5664 216.835 80.7884 217.369 81.082 217.806C81.3757 218.235 81.7337 218.561 82.1562 218.783C82.5788 219.005 83.0622 219.116 83.6064 219.116C84.1507 219.116 84.6341 219.005 85.0566 218.783C85.4792 218.561 85.8337 218.235 86.1201 217.806C86.4066 217.369 86.625 216.835 86.7754 216.205C86.9258 215.568 87.001 214.837 87.001 214.014ZM102.631 218.944V221.458H94.7568V218.944H102.631ZM95.7988 205.817V221.458H92.5762V205.817H95.7988ZM112.75 205.817H115.962V216.151C115.962 217.354 115.704 218.368 115.188 219.191C114.68 220.015 113.975 220.634 113.072 221.05C112.177 221.465 111.146 221.673 109.979 221.673C108.811 221.673 107.773 221.465 106.863 221.05C105.961 220.634 105.252 220.015 104.736 219.191C104.228 218.368 103.974 217.354 103.974 216.151V205.817H107.196V216.151C107.196 216.853 107.307 217.426 107.529 217.87C107.751 218.314 108.07 218.64 108.485 218.848C108.908 219.055 109.406 219.159 109.979 219.159C110.566 219.159 111.063 219.055 111.472 218.848C111.887 218.64 112.202 218.314 112.417 217.87C112.639 217.426 112.75 216.853 112.75 216.151V205.817ZM125.608 205.817V221.458H122.396V205.817H125.608ZM130.421 205.817V208.342H117.659V205.817H130.421ZM135.685 205.817V221.458H132.473V205.817H135.685ZM151.551 213.272V214.014C151.551 215.202 151.39 216.27 151.067 217.215C150.745 218.16 150.29 218.966 149.703 219.632C149.116 220.291 148.414 220.796 147.598 221.146C146.788 221.497 145.89 221.673 144.901 221.673C143.92 221.673 143.021 221.497 142.205 221.146C141.396 220.796 140.694 220.291 140.1 219.632C139.505 218.966 139.043 218.16 138.714 217.215C138.392 216.27 138.23 215.202 138.23 214.014V213.272C138.23 212.076 138.392 211.009 138.714 210.071C139.036 209.126 139.491 208.32 140.078 207.654C140.673 206.988 141.374 206.48 142.184 206.129C143 205.778 143.899 205.603 144.88 205.603C145.868 205.603 146.767 205.778 147.576 206.129C148.393 206.48 149.094 206.988 149.682 207.654C150.276 208.32 150.734 209.126 151.057 210.071C151.386 211.009 151.551 212.076 151.551 213.272ZM148.296 214.014V213.251C148.296 212.42 148.221 211.69 148.07 211.06C147.92 210.429 147.698 209.899 147.404 209.47C147.111 209.04 146.753 208.718 146.33 208.503C145.908 208.281 145.424 208.17 144.88 208.17C144.336 208.17 143.852 208.281 143.43 208.503C143.014 208.718 142.66 209.04 142.366 209.47C142.08 209.899 141.861 210.429 141.711 211.06C141.561 211.69 141.485 212.42 141.485 213.251V214.014C141.485 214.837 141.561 215.568 141.711 216.205C141.861 216.835 142.083 217.369 142.377 217.806C142.671 218.235 143.029 218.561 143.451 218.783C143.874 219.005 144.357 219.116 144.901 219.116C145.446 219.116 145.929 219.005 146.352 218.783C146.774 218.561 147.129 218.235 147.415 217.806C147.701 217.369 147.92 216.835 148.07 216.205C148.221 215.568 148.296 214.837 148.296 214.014ZM166.601 205.817V221.458H163.378L157.094 210.974V221.458H153.871V205.817H157.094L163.389 216.312V205.817H166.601ZM177.547 217.365C177.547 217.086 177.504 216.835 177.418 216.613C177.339 216.384 177.189 216.176 176.967 215.99C176.745 215.797 176.433 215.607 176.032 215.421C175.631 215.235 175.112 215.041 174.475 214.841C173.766 214.612 173.092 214.354 172.455 214.067C171.825 213.781 171.266 213.448 170.779 213.068C170.299 212.682 169.92 212.234 169.641 211.726C169.368 211.217 169.232 210.626 169.232 209.953C169.232 209.301 169.376 208.711 169.662 208.181C169.949 207.644 170.35 207.185 170.865 206.806C171.381 206.419 171.99 206.122 172.691 205.914C173.4 205.706 174.177 205.603 175.022 205.603C176.175 205.603 177.182 205.81 178.041 206.226C178.9 206.641 179.566 207.21 180.039 207.934C180.519 208.657 180.759 209.484 180.759 210.415H177.558C177.558 209.957 177.461 209.556 177.268 209.212C177.081 208.861 176.795 208.585 176.408 208.385C176.029 208.184 175.549 208.084 174.969 208.084C174.41 208.084 173.945 208.17 173.572 208.342C173.2 208.507 172.921 208.732 172.734 209.019C172.548 209.298 172.455 209.613 172.455 209.964C172.455 210.229 172.52 210.469 172.648 210.684C172.785 210.898 172.985 211.099 173.25 211.285C173.515 211.471 173.841 211.647 174.228 211.812C174.614 211.976 175.062 212.137 175.57 212.295C176.423 212.553 177.171 212.843 177.815 213.165C178.467 213.487 179.011 213.849 179.448 214.25C179.885 214.651 180.215 215.106 180.437 215.614C180.659 216.123 180.77 216.699 180.77 217.344C180.77 218.024 180.637 218.633 180.372 219.17C180.107 219.707 179.724 220.162 179.223 220.534C178.721 220.907 178.123 221.189 177.429 221.383C176.734 221.576 175.957 221.673 175.098 221.673C174.324 221.673 173.562 221.573 172.81 221.372C172.058 221.164 171.374 220.853 170.758 220.438C170.149 220.022 169.662 219.492 169.297 218.848C168.932 218.203 168.749 217.44 168.749 216.56H171.982C171.982 217.047 172.058 217.458 172.208 217.795C172.358 218.132 172.57 218.404 172.842 218.611C173.121 218.819 173.451 218.969 173.83 219.062C174.217 219.156 174.639 219.202 175.098 219.202C175.656 219.202 176.115 219.123 176.473 218.966C176.838 218.808 177.106 218.59 177.278 218.311C177.457 218.031 177.547 217.716 177.547 217.365ZM198.494 218.944V221.458H190.62V218.944H198.494ZM191.662 205.817V221.458H188.439V205.817H191.662ZM203.769 205.817V221.458H200.557V205.817H203.769ZM210.01 205.817V221.458H206.787V205.817H210.01ZM216.24 212.499V215.013H209.129V212.499H216.24ZM216.992 205.817V208.342H209.129V205.817H216.992ZM229.356 218.944V221.458H221.031V218.944H229.356ZM222.084 205.817V221.458H218.861V205.817H222.084ZM228.271 212.188V214.637H221.031V212.188H228.271ZM229.346 205.817V208.342H221.031V205.817H229.346Z" fill="black"/>
<path d="M249.111 213.283V219.481C248.868 219.775 248.492 220.094 247.983 220.438C247.475 220.774 246.82 221.064 246.018 221.308C245.215 221.551 244.245 221.673 243.106 221.673C242.097 221.673 241.176 221.508 240.346 221.179C239.515 220.842 238.799 220.352 238.197 219.707C237.603 219.062 237.145 218.275 236.822 217.344C236.5 216.406 236.339 215.335 236.339 214.132V213.154C236.339 211.951 236.493 210.881 236.801 209.942C237.116 209.004 237.563 208.213 238.144 207.568C238.724 206.924 239.415 206.433 240.217 206.097C241.019 205.76 241.91 205.592 242.892 205.592C244.252 205.592 245.369 205.814 246.243 206.258C247.117 206.695 247.783 207.303 248.241 208.084C248.707 208.857 248.993 209.745 249.101 210.748H245.975C245.896 210.218 245.745 209.756 245.523 209.362C245.301 208.968 244.983 208.66 244.567 208.438C244.159 208.216 243.629 208.105 242.978 208.105C242.44 208.105 241.961 208.216 241.538 208.438C241.123 208.653 240.772 208.972 240.485 209.395C240.199 209.817 239.98 210.34 239.83 210.963C239.68 211.586 239.604 212.309 239.604 213.133V214.132C239.604 214.948 239.683 215.672 239.841 216.302C239.998 216.925 240.231 217.451 240.539 217.881C240.854 218.303 241.241 218.622 241.699 218.837C242.158 219.052 242.691 219.159 243.3 219.159C243.808 219.159 244.231 219.116 244.567 219.03C244.911 218.944 245.187 218.84 245.395 218.719C245.609 218.59 245.774 218.468 245.889 218.354V215.582H242.945V213.283H249.111ZM258.07 208.492L253.816 221.458H250.39L256.201 205.817H258.382L258.07 208.492ZM261.604 221.458L257.34 208.492L256.996 205.817H259.198L265.042 221.458H261.604ZM261.411 215.636V218.16H253.15V215.636H261.411ZM276.547 218.944V221.458H268.673V218.944H276.547ZM269.715 205.817V221.458H266.492V205.817H269.715ZM288.449 218.944V221.458H280.575V218.944H288.449ZM281.617 205.817V221.458H278.395V205.817H281.617ZM300.792 218.944V221.458H292.467V218.944H300.792ZM293.52 205.817V221.458H290.297V205.817H293.52ZM299.707 212.188V214.637H292.467V212.188H299.707ZM300.781 205.817V208.342H292.467V205.817H300.781ZM302.672 205.817H308.505C309.701 205.817 310.729 205.996 311.588 206.354C312.454 206.713 313.12 207.243 313.586 207.944C314.051 208.646 314.284 209.509 314.284 210.533C314.284 211.371 314.141 212.091 313.854 212.692C313.575 213.287 313.178 213.785 312.662 214.186C312.154 214.579 311.556 214.895 310.868 215.131L309.848 215.668H304.777L304.756 213.154H308.526C309.092 213.154 309.561 213.054 309.934 212.854C310.306 212.653 310.585 212.374 310.771 212.016C310.965 211.658 311.062 211.242 311.062 210.77C311.062 210.268 310.968 209.835 310.782 209.47C310.596 209.104 310.313 208.825 309.934 208.632C309.554 208.438 309.078 208.342 308.505 208.342H305.895V221.458H302.672V205.817ZM311.416 221.458L307.85 214.486L311.255 214.465L314.864 221.308V221.458H311.416ZM318.398 205.817L321.664 212.95L324.93 205.817H328.442L323.297 215.765V221.458H320.031V215.765L314.875 205.817H318.398Z" fill="#FC5546"/>
</svg>
