<svg width="86" height="70" viewBox="0 0 86 70" fill="none" xmlns="http://www.w3.org/2000/svg">
<path fill-rule="evenodd" clip-rule="evenodd" d="M67.5456 34.3064C68.3063 36.342 73.5669 38.4205 75.8918 38.3241C82.3202 38.0456 83.7451 38.6884 84.0237 44.5489C84.0237 44.7953 84.0237 45.5239 84.0237 46.5203C80.9139 49.8348 77.1238 52.4372 72.9133 54.1486H49.2034C45.3445 52.5814 41.8343 50.2655 38.8752 47.3345C38.8752 46.0703 38.8752 45.1918 38.8752 44.8704C39.1216 38.7206 40.4823 37.8741 47.0606 38.1634C49.0855 38.2491 54.1639 35.8278 54.7211 34.3064C55.2507 32.503 55.328 30.5969 54.9461 28.7566L61.128 28.8744L67.2992 28.7566C66.9082 30.5974 66.993 32.5075 67.5456 34.3064Z" fill="#FFDBA7"/>
<path fill-rule="evenodd" clip-rule="evenodd" d="M67.1168 34.3064C67.8775 36.342 73.1594 38.4741 75.4843 38.3777C81.9127 38.0992 83.3162 38.6884 83.6055 44.5489C83.6055 44.7953 83.6055 45.5239 83.6055 46.5203C80.4918 49.8302 76.7027 52.4318 72.4951 54.1486H48.8067C44.951 52.5815 41.4442 50.2654 38.4891 47.3345C38.4891 46.0703 38.4891 45.1918 38.4891 44.8704C38.7248 38.7206 40.0962 37.8741 46.6639 38.1634C48.6888 38.2491 53.7672 35.8278 54.3243 34.3064C54.8593 32.5039 54.9366 30.5965 54.5493 28.7566L60.7313 28.8744L66.9025 28.7566C66.5062 30.5951 66.5799 32.5039 67.1168 34.3064Z" fill="#FFDBA7"/>
<path fill-rule="evenodd" clip-rule="evenodd" d="M49.1178 37.6492C51.3463 36.8671 53.9498 35.3672 54.3355 34.2958C54.8687 32.4933 54.9497 30.5871 54.5712 28.7459L54.3248 28.1353L60.7531 28.8638L67.3208 28.6281C67.1756 29.3117 67.0967 30.0078 67.085 30.7066L55.6211 41.9026L49.1178 37.6492Z" fill="#F0C07D"/>
<path fill-rule="evenodd" clip-rule="evenodd" d="M53.928 23.9353L54.2815 19.6497C53.7561 19.1877 53.282 18.6705 52.8673 18.1069C51.9566 16.7034 51.3888 16.382 50.8423 16.7891C50.6174 16.9605 50.5423 17.4855 50.6709 18.1498C50.8959 19.2962 51.6245 21.0211 51.8602 22.039C52.0423 22.8639 53.1137 25.6174 53.928 23.9353Z" fill="#FFDBA7"/>
<path fill-rule="evenodd" clip-rule="evenodd" d="M68.1883 23.9353L67.8347 19.6497C68.3601 19.1877 68.8342 18.6705 69.2489 18.1069C70.1596 16.7034 70.7275 16.382 71.2739 16.7891C71.4989 16.9605 71.5739 17.4855 71.4453 18.1498C71.2203 19.2962 70.4917 21.0211 70.256 22.039C70.0953 22.8639 69.0239 25.6174 68.1883 23.9353Z" fill="#FFDBA7"/>
<path fill-rule="evenodd" clip-rule="evenodd" d="M61.2241 32.5064H61.1277C60.2405 32.5964 59.3444 32.4903 58.5028 32.1957C57.8278 31.9171 57.5064 31.2529 56.5743 30.3636C55.6422 29.4744 54.3779 28.8208 54.0243 27.9959C53.5529 26.8602 53.7458 25.6174 53.4458 23.8603C53.0513 22.528 52.7259 21.1762 52.4708 19.8104C52.3958 18.289 52.6423 19.8747 52.5887 18.1605C52.4859 16.7318 52.5217 15.2966 52.6958 13.8749C53.4672 9.43931 59.0278 8.06795 62.8419 8.63579C64.6734 8.85872 66.4024 9.6024 67.8239 10.7786C68.7038 11.5639 69.2801 12.6332 69.4524 13.7999C69.6228 15.2003 69.6622 16.6135 69.5703 18.0212C69.5167 19.7354 69.7631 18.139 69.6881 19.6497C69.4379 21.0121 69.116 22.3603 68.7239 23.6888C68.4346 25.4459 68.6167 26.6888 68.156 27.8244C67.8132 28.6601 66.3989 29.4422 65.6168 30.2029C64.8347 30.9636 64.374 31.7779 63.699 32.0671C62.9165 32.3942 62.0714 32.5442 61.2241 32.5064Z" fill="#FFDBA7"/>
<path fill-rule="evenodd" clip-rule="evenodd" d="M76.7594 38.1634C83.1878 37.8956 84.9877 38.592 85.4377 43.4239C85.4377 43.6168 85.4377 55.9914 85.4377 58.8199H36.7429C36.7429 56.0021 36.7429 43.6168 36.7429 43.4239C37.1928 38.592 38.9606 37.8956 45.4211 38.1634C48.4746 38.2813 50.7781 37.0063 53.3173 35.4099L61.0849 36.2349L68.4025 35.4206C70.9525 36.9206 73.4702 38.292 76.7594 38.1634Z" fill="#ED7500"/>
<path fill-rule="evenodd" clip-rule="evenodd" d="M76.7596 38.1634C83.188 37.8956 84.9879 38.592 85.4379 43.424C85.4379 43.6168 85.4379 55.9914 85.4379 58.8199H61.0851V36.2349L68.4028 35.4207C70.9527 36.9206 73.4705 38.292 76.7596 38.1634Z" fill="#DB5500"/>
<path fill-rule="evenodd" clip-rule="evenodd" d="M54.8283 11.6678C54.2283 12.3856 53.0284 16.7033 53.2319 21.4175C51.207 14.057 50.1141 8.79647 54.5176 5.48587C60.3031 1.13601 67.4922 4.58591 67.8564 5.60374C72.142 7.95009 70.6313 14.5499 69.3456 20.389C69.3642 17.2263 68.6297 14.1047 67.2029 11.2821C66.86 10.9393 66.4529 10.7357 66.1315 10.875C52.8676 16.4355 55.3318 11.0785 54.8283 11.6678Z" fill="black"/>
<path fill-rule="evenodd" clip-rule="evenodd" d="M61.0851 1.21118C67.0206 1.21118 71.799 7.10385 71.799 12.9965H50.3283C50.3283 7.10385 55.1389 1.21118 61.0851 1.21118Z" fill="#ED7500"/>
<path fill-rule="evenodd" clip-rule="evenodd" d="M61.0851 1.21118C67.0207 1.21118 71.7991 7.10385 71.7991 12.9965H61.0851V1.21118Z" fill="#DB5500"/>
<path fill-rule="evenodd" clip-rule="evenodd" d="M61.0849 0.868164C62.1532 0.868843 63.2152 1.03141 64.2348 1.3503L61.867 10.7464H60.2921L57.9243 1.3503C58.9474 1.03066 60.013 0.868091 61.0849 0.868164Z" fill="#F68503"/>
<path fill-rule="evenodd" clip-rule="evenodd" d="M61.0851 0.868164C62.1534 0.868843 63.2155 1.03141 64.235 1.3503L61.8673 10.7464H61.0851V0.868164Z" fill="#ED7500"/>
<path fill-rule="evenodd" clip-rule="evenodd" d="M51.1747 12.2893H70.9847C71.7775 12.2893 72.4311 12.5786 72.4311 13.425C72.4311 17.2713 49.7283 17.3034 49.7283 13.425C49.7283 12.5786 50.3818 12.2893 51.1747 12.2893Z" fill="#F68503"/>
<path fill-rule="evenodd" clip-rule="evenodd" d="M61.0851 12.2893H70.9848C71.7776 12.2893 72.4312 12.5786 72.4312 13.425C72.4312 15.3535 66.7635 16.3177 61.0851 16.3284V12.2893Z" fill="#ED7500"/>
<path fill-rule="evenodd" clip-rule="evenodd" d="M46.8782 48.4166H47.6068L45.5818 38.1634C46.8717 38.2014 48.1565 37.9867 49.3639 37.5312L51.5602 48.4166H70.6096L72.806 37.5848C74.0187 38.0002 75.2958 38.1961 76.5772 38.1634L74.6166 48.4166H75.3345V58.8198H46.8782V48.4166Z" fill="#0A3377"/>
<path fill-rule="evenodd" clip-rule="evenodd" d="M61.0851 48.4165H70.6098L72.8062 37.5847C74.0189 38.0001 75.296 38.196 76.5775 38.1633L74.6168 48.4165H75.3347V58.8197H61.0851V48.4165Z" fill="#014B78"/>
<path fill-rule="evenodd" clip-rule="evenodd" d="M36.2394 41.1418C37.1286 43.4882 43.182 45.7167 45.8819 45.5988C46.3533 45.5988 46.8033 45.5988 47.2319 45.5988C53.5531 45.4596 55.0316 46.6702 55.3316 52.97C55.3316 53.2593 55.3316 54.1057 55.3316 55.2628C51.7283 59.0931 47.3437 62.1039 42.4749 64.0911H15.0258C10.5626 62.2716 6.50282 59.5881 3.07977 56.1949C3.07977 54.7378 3.07977 53.6557 3.07977 53.345C3.33691 46.9167 4.66543 45.5989 10.5795 45.6417C11.1795 45.6417 11.833 45.556 12.5402 45.6417C14.8865 45.7381 20.7577 42.9418 21.4006 41.1847C22.0139 39.096 22.1059 36.8888 21.6684 34.7563L28.8146 34.8956L35.9608 34.7563C35.5179 36.8746 35.6137 39.0702 36.2394 41.1418Z" fill="#FFDBA7"/>
<path fill-rule="evenodd" clip-rule="evenodd" d="M36.2394 41.1419C37.1286 43.4883 43.182 45.7168 45.8819 45.5989C46.3533 45.5989 46.8247 45.5989 47.2533 45.5989C53.5638 45.4704 55.0316 46.6167 55.3316 52.9487C55.3316 53.2379 55.3316 54.0844 55.3316 55.2415C51.7283 59.0717 47.3437 62.0825 42.4749 64.0697H15.0258C10.5626 62.2502 6.50282 59.5668 3.07977 56.1736C3.07977 54.7165 3.07977 53.6344 3.07977 53.3237C3.33691 46.8953 4.65472 45.5882 10.5795 45.6311C11.1902 45.6311 11.8545 45.5346 12.5616 45.5668C14.9079 45.6632 20.7792 42.8669 21.422 41.1098C22.0354 39.0211 22.1273 36.8139 21.6899 34.6814L28.836 34.8207L36.0573 33.9529C35.5742 36.3322 35.6364 38.7901 36.2394 41.1419Z" fill="#FFDBA7"/>
<path fill-rule="evenodd" clip-rule="evenodd" d="M36.2503 41.1417C37.1289 43.4881 43.1822 45.7166 45.8929 45.5987C46.3643 45.5987 46.8143 45.5987 47.2428 45.5987C53.564 45.4595 55.0426 46.6701 55.3426 52.9699C55.3426 53.2592 55.3426 54.1056 55.3426 55.2627C51.7393 59.093 47.3546 62.1038 42.4858 64.091H28.7613V34.8419H28.8363L36.0575 33.9741C35.5774 36.347 35.6434 38.7981 36.2503 41.1417Z" fill="#F0C07D"/>
<path fill-rule="evenodd" clip-rule="evenodd" d="M20.4902 29.078L20.9081 24.1496C20.3039 23.6089 19.7548 23.0095 19.2688 22.3604C18.1974 20.7319 17.5653 20.3569 16.9225 20.8283C16.6653 21.0212 16.5796 21.6319 16.7296 22.4033C16.9868 23.7425 17.801 25.7353 18.101 26.9031C18.3153 27.8459 19.5474 31.0815 20.4902 29.078Z" fill="#FFDBA7"/>
<path fill-rule="evenodd" clip-rule="evenodd" d="M37.0216 29.078L36.6037 24.1496C37.2136 23.6146 37.7632 23.0147 38.2429 22.3604C39.3143 20.7319 39.9572 20.3569 40.5893 20.8283C40.8464 21.0212 40.9428 21.6319 40.7928 22.4033C40.525 23.7425 39.7215 25.7353 39.4108 26.9031C39.1965 27.8459 37.9644 31.0815 37.0216 29.078Z" fill="#FFDBA7"/>
<path fill-rule="evenodd" clip-rule="evenodd" d="M21.7111 39.3313C21.6779 39.9206 21.5088 40.4941 21.217 41.0071C20.9252 41.5201 20.5186 41.9586 20.0291 42.2884C26.1039 47.2489 31.0644 46.9596 37.5035 42.2884C37.0171 41.9563 36.6135 41.517 36.3237 41.0043C36.0339 40.4917 35.8657 39.9193 35.8321 39.3313C31.1349 39.7599 26.4084 39.7599 21.7111 39.3313Z" fill="#51BBD3"/>
<path fill-rule="evenodd" clip-rule="evenodd" d="M28.7613 45.8989C31.5255 45.8239 34.3325 44.5811 37.5038 42.2884C37.0175 41.9563 36.6138 41.517 36.3241 41.0043C36.0343 40.4917 35.8661 39.9193 35.8325 39.3313C33.4843 39.5846 31.1227 39.692 28.7613 39.6527V45.8989Z" fill="#29ACCA"/>
<path fill-rule="evenodd" clip-rule="evenodd" d="M37.3107 42.2991C40.1302 44.253 43.4325 45.3946 46.8568 45.5989C54.3566 45.2882 56.3708 46.0918 56.8958 51.6845C56.8958 51.9094 56.8958 66.2233 56.8958 69.491H0.604797C0.604797 66.2768 0.604797 51.9094 0.604797 51.6845C1.11907 46.0918 3.17614 45.2561 10.6437 45.5989C14.0647 45.3942 17.3634 44.2527 20.1791 42.2991C25.7825 44.0454 30.5395 44.1419 37.3107 42.2991Z" fill="#0A3377"/>
<path fill-rule="evenodd" clip-rule="evenodd" d="M37.311 42.2991C40.1305 44.253 43.4328 45.3946 46.8571 45.5989C54.3569 45.2882 56.3711 46.0918 56.8961 51.6845C56.8961 51.9094 56.8961 66.2233 56.8961 69.491H28.7613V43.6383C31.6566 43.5579 34.5298 43.1079 37.311 42.2991Z" fill="#00348B"/>
<path fill-rule="evenodd" clip-rule="evenodd" d="M18.1007 21.9425C16.9328 15.8249 17.2114 10.7679 21.1863 7.7894C27.8718 2.76456 36.1858 6.718 36.6143 7.91796C40.3642 9.99646 40.4178 15.4177 39.5714 20.9354C38.9178 25.221 38.0714 31.1994 35.6394 34.6278C34.0323 36.9099 31.1288 37.1992 28.911 38.5063C25.954 36.9742 23.7469 37.4348 22.1291 35.0778C20.1685 32.2065 18.8078 25.6067 18.1007 21.9425Z" fill="#38383A"/>
<path fill-rule="evenodd" clip-rule="evenodd" d="M28.7613 5.31445C32.929 5.31445 36.3467 7.17867 36.6146 7.91793C40.3645 9.99643 40.418 15.4177 39.5716 20.9354C38.9181 25.221 38.0717 31.1993 35.6396 34.6278C34.0325 36.8991 31.1291 37.1991 28.9113 38.5062L28.7613 38.4312V5.31445Z" fill="black"/>
<path fill-rule="evenodd" clip-rule="evenodd" d="M28.7719 2.8396C34.8788 2.8396 39.9465 8.19656 41.0072 14.2499C41.1358 15.0106 41.2108 18.9319 41.2108 19.6926H16.333C16.333 19.1784 16.333 15.5035 16.4294 14.9892C17.1794 8.67869 22.4185 2.8396 28.7719 2.8396Z" fill="#ED7500"/>
<path fill-rule="evenodd" clip-rule="evenodd" d="M28.7718 2.8396C34.943 2.8396 40.075 8.35728 41.0393 14.4642C41.1464 15.1499 41.2107 19.0069 41.2107 19.6926H28.7718V2.8396Z" fill="#DB5500"/>
<path fill-rule="evenodd" clip-rule="evenodd" d="M28.7716 2.50732C30.0098 2.50772 31.241 2.69187 32.4251 3.05375L29.6823 13.9284H27.8502L25.1182 3.05375C26.3021 2.6911 27.5334 2.50693 28.7716 2.50732Z" fill="#F68503"/>
<path fill-rule="evenodd" clip-rule="evenodd" d="M28.7718 2.50732C30.0099 2.50772 31.2412 2.69187 32.4252 3.05375L29.6825 13.9284H28.7718V2.50732Z" fill="#ED7500"/>
<path d="M40.2035 17.7642H17.3292C16.5127 17.7642 15.8507 18.4261 15.8507 19.2427V19.7355C15.8507 20.5521 16.5127 21.214 17.3292 21.214H40.2035C41.0201 21.214 41.682 20.5521 41.682 19.7355V19.2427C41.682 18.4261 41.0201 17.7642 40.2035 17.7642Z" fill="#F68503"/>
<path fill-rule="evenodd" clip-rule="evenodd" d="M28.7718 17.7642H40.2143C40.6046 17.767 40.9779 17.924 41.2528 18.201C41.5278 18.478 41.6821 18.8524 41.6821 19.2427V19.7355C41.6821 20.1258 41.5278 20.5003 41.2528 20.7772C40.9779 21.0542 40.6046 21.2112 40.2143 21.214H28.7718V17.7642Z" fill="#ED7500"/>
</svg>
