<svg width="485" height="462" viewBox="0 0 485 462" fill="none" xmlns="http://www.w3.org/2000/svg">
<path d="M474.73 199.547C474.73 199.547 431.124 61.5863 336.461 18.9971C252.894 -18.6136 159.36 -2.12814 120.261 84.1692C106.321 114.902 88.214 148.079 66.5036 173.33C42.1655 201.621 9.49218 221.35 8.49648 290.012C7.50078 358.674 68.1255 439.798 125.075 457.33C182.025 474.863 251.55 439.757 310.265 406.416C368.981 373.076 523.16 372.48 474.73 199.547Z" fill="#E4EFFF"/>
<path d="M253.086 448.215L258.023 446.162L262.951 448.215" stroke="#263238" stroke-linecap="round" stroke-linejoin="round"/>
<path d="M192.238 447.486L193.983 448.215L198.91 446.162L203.838 448.215L208.755 446.162L213.682 448.215L218.609 446.162L223.526 448.215L228.453 446.162L233.38 448.215L238.307 446.162L243.234 448.215L248.162 446.162L250.82 447.271" stroke="#263238" stroke-linecap="round" stroke-linejoin="round"/>
<path d="M152.559 447.363L154.591 448.215L159.508 446.162L164.435 448.215L169.362 446.162L174.279 448.215L179.206 446.162L184.134 448.215L189.05 446.162" stroke="#263238" stroke-linecap="round" stroke-linejoin="round"/>
<path d="M139.82 446.162L144.737 448.215L149.664 446.162" stroke="#263238" stroke-linecap="round" stroke-linejoin="round"/>
<path d="M425.145 435.168L430.072 433.115L435.009 435.168" stroke="#263238" stroke-linecap="round" stroke-linejoin="round"/>
<path d="M364.285 434.44L366.04 435.168L370.968 433.115L375.885 435.168L380.812 433.115L385.739 435.168L390.656 433.115L395.583 435.168L400.51 433.115L405.437 435.168L410.364 433.115L415.281 435.168L420.209 433.115L422.867 434.224" stroke="#263238" stroke-linecap="round" stroke-linejoin="round"/>
<path d="M324.613 434.327L326.646 435.168L331.573 433.115L336.49 435.168L341.417 433.115L346.344 435.168L351.261 433.115L356.188 435.168L361.115 433.115" stroke="#263238" stroke-linecap="round" stroke-linejoin="round"/>
<path d="M311.883 433.115L316.8 435.168L321.717 433.115" stroke="#263238" stroke-linecap="round" stroke-linejoin="round"/>
<path d="M36.5898 402.044L38.6223 402.896L43.5392 400.843L48.4664 402.896L53.3935 400.843L58.3105 402.896L63.2376 400.843L68.1648 402.896L73.0817 400.843" stroke="#263238" stroke-linecap="round" stroke-linejoin="round"/>
<path d="M23.8516 400.843L28.7787 402.896L33.6956 400.843" stroke="#263238" stroke-linecap="round" stroke-linejoin="round"/>
<path d="M404.637 377.213L406.669 378.065L411.596 376.012L416.513 378.065L421.44 376.012L426.357 378.065L431.284 376.012L436.212 378.065L441.139 376.012" stroke="#263238" stroke-linecap="round" stroke-linejoin="round"/>
<path d="M391.898 376.012L396.826 378.065L401.743 376.012" stroke="#263238" stroke-linecap="round" stroke-linejoin="round"/>
<path d="M238.672 367.82L240.704 368.672L245.632 366.619L250.548 368.672L255.476 366.619L260.403 368.672L265.32 366.619L270.247 368.672L275.174 366.619" stroke="#263238" stroke-linecap="round" stroke-linejoin="round"/>
<path d="M225.934 366.619L230.861 368.672L235.778 366.619" stroke="#263238" stroke-linecap="round" stroke-linejoin="round"/>
<path d="M469.613 356.2L474.551 354.147L479.488 356.2" stroke="#263238" stroke-linecap="round" stroke-linejoin="round"/>
<path d="M408.762 355.471L410.507 356.2L415.434 354.147L420.361 356.2L425.278 354.147L430.205 356.2L435.132 354.147L440.06 356.2L444.976 354.147L449.904 356.2L454.831 354.147L459.758 356.2L464.685 354.147L467.344 355.246" stroke="#263238" stroke-linecap="round" stroke-linejoin="round"/>
<path d="M369.09 355.348L371.122 356.2L376.049 354.147L380.966 356.2L385.894 354.147L390.81 356.2L395.738 354.147L400.665 356.2L405.592 354.147" stroke="#263238" stroke-linecap="round" stroke-linejoin="round"/>
<path d="M356.352 354.147L361.279 356.2L366.196 354.147" stroke="#263238" stroke-linecap="round" stroke-linejoin="round"/>
<path d="M351.168 356.2L356.105 354.147L361.033 356.2" stroke="#263238" stroke-linecap="round" stroke-linejoin="round"/>
<path d="M290.32 355.471L292.065 356.2L296.993 354.147L301.92 356.2L306.837 354.147L311.764 356.2L316.681 354.147L321.608 356.2L326.535 354.147L331.462 356.2L336.389 354.147L341.317 356.2L346.244 354.147L348.892 355.246" stroke="#263238" stroke-linecap="round" stroke-linejoin="round"/>
<path d="M250.641 355.348L252.673 356.2L257.59 354.147L262.517 356.2L267.434 354.147L272.361 356.2L277.288 354.147L282.205 356.2L287.132 354.147" stroke="#263238" stroke-linecap="round" stroke-linejoin="round"/>
<path d="M237.902 354.147L242.819 356.2L247.746 354.147" stroke="#263238" stroke-linecap="round" stroke-linejoin="round"/>
<path d="M232.719 356.2L237.646 354.147L242.583 356.2" stroke="#263238" stroke-linecap="round" stroke-linejoin="round"/>
<path d="M171.859 355.471L173.615 356.2L178.532 354.147L183.459 356.2L188.386 354.147L193.303 356.2L198.23 354.147L203.157 356.2L208.084 354.147L213.001 356.2L217.939 354.147L222.856 356.2L227.783 354.147L230.441 355.246" stroke="#263238" stroke-linecap="round" stroke-linejoin="round"/>
<path d="M132.188 355.348L134.22 356.2L139.147 354.147L144.064 356.2L148.991 354.147L153.918 356.2L158.835 354.147L163.762 356.2L168.69 354.147" stroke="#263238" stroke-linecap="round" stroke-linejoin="round"/>
<path d="M119.449 354.147L124.376 356.2L129.293 354.147" stroke="#263238" stroke-linecap="round" stroke-linejoin="round"/>
<path d="M114.262 356.2L119.199 354.147L124.126 356.2" stroke="#263238" stroke-linecap="round" stroke-linejoin="round"/>
<path d="M53.4102 355.471L55.1552 356.2L60.0824 354.147L65.0095 356.2L69.9264 354.147L74.8536 356.2L79.7705 354.147L84.6977 356.2L89.6249 354.147L94.552 356.2L99.4792 354.147L104.406 356.2L109.334 354.147L111.982 355.246" stroke="#263238" stroke-linecap="round" stroke-linejoin="round"/>
<path d="M13.7383 355.348L15.7707 356.2L20.6876 354.147L25.6148 356.2L30.5317 354.147L35.4589 356.2L40.3861 354.147L45.3132 356.2L50.2301 354.147" stroke="#263238" stroke-linecap="round" stroke-linejoin="round"/>
<path d="M1 354.147L5.91691 356.2L10.8441 354.147" stroke="#263238" stroke-linecap="round" stroke-linejoin="round"/>
<path d="M16.6211 286.471H479.898" stroke="#263238" stroke-linecap="round" stroke-linejoin="round"/>
<path d="M202.859 286.881V10.0974" stroke="#263238" stroke-linecap="round" stroke-linejoin="round"/>
<path d="M207.754 286.881V10.0974" stroke="#263238" stroke-linecap="round" stroke-linejoin="round"/>
<path d="M438.992 286.881V10.0974" stroke="#263238" stroke-linecap="round" stroke-linejoin="round"/>
<path d="M443.898 286.881V10.0974" stroke="#263238" stroke-linecap="round" stroke-linejoin="round"/>
<path d="M459.332 399.036C459.332 402.341 405.698 405.02 339.53 405.02C273.362 405.02 219.738 402.341 219.738 399.036C219.738 395.731 273.373 393.051 339.53 393.051C405.688 393.051 459.332 395.731 459.332 399.036Z" fill="#263238"/>
<path d="M113.163 409.506C113.163 411.056 108.452 412.308 102.652 412.308C96.8522 412.308 92.1406 411.056 92.1406 409.506C92.1406 407.956 96.842 406.704 102.652 406.704C108.462 406.704 113.163 407.956 113.163 409.506Z" fill="#263238"/>
<path d="M97.7427 389.88C126.378 389.88 149.591 388.312 149.591 386.379C149.591 384.446 126.378 382.879 97.7427 382.879C69.1078 382.879 45.8945 384.446 45.8945 386.379C45.8945 388.312 69.1078 389.88 97.7427 389.88Z" fill="#263238"/>
<path d="M123.257 371.683C123.937 367.526 121.119 363.605 116.962 362.925C112.805 362.245 108.884 365.063 108.204 369.22C107.524 373.377 110.343 377.298 114.499 377.978C118.656 378.658 122.578 375.84 123.257 371.683Z" fill="white" stroke="#263238" stroke-linecap="round" stroke-linejoin="round"/>
<path d="M45.5103 186.48C45.5103 186.48 42.8825 191.263 41.8252 193.275C40.7679 195.287 35.153 201.313 34.1368 208.385C33.1205 215.458 34.4858 249.086 34.5371 253.879C34.5884 258.673 34.8964 263.241 35.348 264.247C35.7997 265.253 43.252 268.353 43.252 268.353C43.252 268.353 49.411 267.131 50.1706 266.382C50.9302 265.633 53.1372 259.32 53.1372 259.32C53.6399 258.427 53.8787 257.41 53.826 256.387C53.7734 255.364 53.4312 254.377 52.8395 253.541C50.7865 250.749 46.9987 246.673 45.808 245.904C44.8116 245.11 43.9427 244.168 43.2315 243.112C43.2315 243.112 48.6001 224.696 49.9448 221.668C51.2895 218.64 53.7325 206.271 53.7325 206.271L55.7855 196.683C55.7855 196.683 47.0911 189.775 45.5103 186.48Z" fill="#BFBFBF" stroke="#263238" stroke-linecap="round" stroke-linejoin="round"/>
<path d="M44.9375 201.19C44.9375 201.19 45.6663 207.513 51.0965 206.035" stroke="#263238" stroke-linecap="round" stroke-linejoin="round"/>
<path d="M46.9258 206.199C46.9258 206.199 49.5741 213.549 47.8907 219.102" stroke="#263238" stroke-linecap="round" stroke-linejoin="round"/>
<path d="M49.3818 255.501L48.0781 257.524L53.1387 259.32" stroke="#263238" stroke-linecap="round" stroke-linejoin="round"/>
<path d="M42.5761 261.014C42.5761 261.014 41.9705 264.093 42.9251 264.555C45.3098 265.293 47.7324 265.903 50.1824 266.382" stroke="#263238" stroke-linecap="round" stroke-linejoin="round"/>
<path d="M38.6146 261.999C38.6146 261.999 38.3271 263.026 39.7129 265.078C40.6729 266.398 41.8747 267.523 43.2543 268.394" stroke="#263238" stroke-linecap="round" stroke-linejoin="round"/>
<path d="M169.935 272.788C169.935 272.788 175.17 263.98 178.383 262.995C181.596 262.009 186.759 267.604 186.153 270.375C185.547 273.147 183.577 273.896 183.946 276.935C184.316 279.973 186.276 285.793 185.886 289.581C185.496 293.369 183.546 299.425 181.339 299.404C179.132 299.384 176.956 292.804 175.365 289.766C173.774 286.727 175.005 286.686 172.224 282.662C169.442 278.639 168.641 274.553 169.935 272.788Z" fill="#0E2B5C" stroke="#263238" stroke-linecap="round" stroke-linejoin="round"/>
<path d="M97.0329 243.461C97.0329 243.461 93.7994 269.472 98.3263 284.921C102.853 300.369 113.303 320.16 116.423 321.7C119.544 323.24 127.048 318.733 128.29 318.241C129.532 317.748 152.238 299.959 155.841 295.432C159.444 290.905 170.982 283.412 172.265 282.662C173.548 281.913 177.099 277.899 176.011 274.604C174.923 271.309 172.47 271.289 169.976 272.788C167.481 274.286 154.465 281.78 150.944 283.309C147.423 284.839 138.493 289.037 138.493 289.037C138.493 289.037 146.448 261.034 146.027 246.879C145.607 232.724 142.486 231.481 142.486 231.481L97.0329 243.461Z" fill="#BFBFBF" stroke="#263238" stroke-linecap="round" stroke-linejoin="round"/>
<path d="M155.836 295.432C159.429 290.915 170.977 283.412 172.26 282.662C173.543 281.913 177.095 277.899 176.007 274.604C174.919 271.309 172.465 271.289 169.971 272.788C167.476 274.286 154.461 281.78 150.94 283.309C147.419 284.839 138.488 289.037 138.488 289.037C138.488 289.037 141.27 293.215 141.219 307.411C141.219 307.74 141.219 308.037 141.219 308.356C147.48 303.254 154.029 297.68 155.836 295.432Z" fill="white" stroke="#263238" stroke-linecap="round" stroke-linejoin="round"/>
<path d="M142.014 275.036C144.067 265.951 146.253 254.413 146.027 246.838C145.607 232.682 142.486 231.44 142.486 231.44L97.0329 243.461C97.0329 243.461 93.7994 269.472 98.3263 284.921C98.7369 286.327 99.1988 287.774 99.7018 289.232C103.89 290.022 110.141 290.258 118.733 288.093C127.471 285.776 135.481 281.284 142.014 275.036Z" fill="#263238" stroke="#263238" stroke-linecap="round" stroke-linejoin="round"/>
<path d="M127.773 244.692C127.773 244.692 118.945 276.514 118.853 284.808C118.76 293.102 124.232 303.285 128.276 312.431C132.32 321.577 143.304 346.408 143.848 351.212L146.024 370.428C146.024 370.428 140.655 376.463 136.632 379.214C132.608 381.965 124.416 385.189 124.314 387.97C124.211 390.752 137.36 391.604 143.735 391.142C150.109 390.68 158.537 387.703 160.056 386.451C161.575 385.199 161.883 383.433 161.75 380.651C161.616 377.87 160.22 369.771 160.22 369.771C160.685 359.324 160.531 348.86 159.759 338.432C158.465 321.484 161.267 318.723 157.161 311.373C153.055 304.024 145.151 299.661 145.141 293.841C145.131 288.021 143.981 285.998 145.028 284.243C146.075 282.488 154.677 275.21 158.445 260.326C162.212 245.442 159.892 236.07 156.679 230.742L153.466 225.405L127.773 244.692Z" fill="#BFBFBF" stroke="#263238" stroke-linecap="round" stroke-linejoin="round"/>
<path d="M152.912 273.804C155.394 269.6 157.258 265.061 158.445 260.326C162.212 245.442 159.892 236.07 156.68 230.742L153.467 225.405L127.804 244.692C127.804 244.692 124.458 256.733 121.871 267.932C127.691 263.262 140.235 256.897 152.912 273.804Z" fill="#263238" stroke="#263238" stroke-linecap="round" stroke-linejoin="round"/>
<path d="M161.751 380.651C161.618 377.87 160.222 369.771 160.222 369.771C160.686 359.324 160.532 348.86 159.76 338.432C158.466 321.484 161.269 318.723 157.163 311.373C154.751 307.052 151.004 303.767 148.376 300.616C147.411 301.509 146.323 302.525 144.999 303.695C139.938 308.243 131.973 308.971 126.748 308.971C127.282 310.142 127.774 311.291 128.318 312.441C132.352 321.566 143.346 346.418 143.89 351.222L146.066 370.438C146.066 370.438 140.698 376.474 136.674 379.225C132.65 381.976 124.459 385.199 124.356 387.981C124.253 390.762 137.403 391.614 143.777 391.152C150.152 390.691 158.579 387.714 160.099 386.461C161.618 385.209 161.885 383.433 161.751 380.651Z" fill="white" stroke="#263238" stroke-linecap="round" stroke-linejoin="round"/>
<path d="M161.751 380.651C161.659 378.711 160.951 374.164 160.53 371.608C158.407 372.939 155.971 373.686 153.468 373.774C152.777 372.333 151.714 371.104 150.388 370.212C149.751 369.712 148.955 369.459 148.146 369.499C147.337 369.538 146.57 369.868 145.984 370.428C145.984 370.428 140.616 376.463 136.592 379.214C132.568 381.965 124.377 385.189 124.274 387.97C124.171 390.752 137.321 391.604 143.695 391.142C150.07 390.68 158.497 387.704 160.017 386.451C161.536 385.199 161.885 383.433 161.751 380.651Z" fill="#0E2B5C" stroke="#263238" stroke-linecap="round" stroke-linejoin="round"/>
<path d="M89.2186 144.332C89.2186 144.332 65.291 156.024 60.0764 158.077C54.8618 160.13 51.3409 162.809 50.2323 166.094C49.1237 169.379 43.0469 186.264 43.0469 186.264C43.0469 186.264 49.9449 197.176 52.5727 198.716C53.8013 199.545 55.208 200.072 56.6787 200.256L67.6827 187.702C67.6827 187.702 79.6516 206.938 84.6609 215.817C89.6702 224.696 94.6898 240.453 94.8027 243.697C94.9156 246.94 93.3861 248.49 99.2371 249.035C105.088 249.579 141.21 244.528 148.324 237.507C155.438 230.486 156.536 227.242 155.51 223.403C154.439 220.36 152.991 217.463 151.198 214.78C151.198 214.78 150.059 200.41 150.09 199.609C150.12 198.808 150.972 177.375 148.447 166.987C145.922 156.599 144.033 155.08 130.576 149.167C117.119 143.254 108.599 142.443 100.058 142.68C91.5179 142.916 89.2186 144.332 89.2186 144.332Z" fill="#0E2B5C" stroke="#263238" stroke-linecap="round" stroke-linejoin="round"/>
<path d="M67.7007 187.65C67.7007 187.65 56.4092 181.491 53.1758 171.873" stroke="white" stroke-linecap="round" stroke-linejoin="round"/>
<path d="M117.766 195.082C122.056 197.895 139.322 199.024 139.322 199.024C139.322 199.024 130.412 201.744 125.033 201.703" stroke="white" stroke-linecap="round" stroke-linejoin="round"/>
<path d="M99.7809 177.005C109.964 177.077 116.903 167.326 117.375 155.398C117.573 151.525 116.943 147.655 115.527 144.045C110.45 142.935 105.251 142.476 100.058 142.679C91.497 142.864 89.2388 144.373 89.2388 144.373L85.5434 146.17C84.9348 148.372 84.5902 150.64 84.5169 152.924C84.0036 164.821 89.5878 176.934 99.7809 177.005Z" fill="white" stroke="#263238" stroke-linecap="round" stroke-linejoin="round"/>
<path d="M84.6602 142.525C84.6602 142.525 88.1605 159.237 89.7002 163.538C91.24 167.839 100.489 174.501 104.482 172.448C108.475 170.395 113.392 163.415 113.925 156.085C114.459 148.756 112.375 140.195 112.375 140.195C111.765 141.933 110.724 143.488 109.352 144.715C107.979 145.943 106.318 146.803 104.523 147.217C98.097 148.941 91.8353 146.621 89.2383 144.332C86.6413 142.043 84.7525 139.744 84.6602 142.525Z" fill="#BFBFBF" stroke="#263238" stroke-linecap="round" stroke-linejoin="round"/>
<path d="M101.884 155.51L107.54 145.964C106.574 146.517 105.538 146.938 104.46 147.216C98.0345 148.941 91.7728 146.621 89.1758 144.332C88.1648 143.349 87.1026 142.421 85.9937 141.55L84.7003 141.807C84.6429 142.042 84.6085 142.283 84.5977 142.525C84.5977 142.525 87.8003 157.8 89.4222 162.901L101.884 155.51Z" fill="#263238" stroke="#263238" stroke-linecap="round" stroke-linejoin="round"/>
<path d="M78.9563 125.804C78.9563 125.804 74.9735 121.482 73.3311 125.804C71.6887 130.125 77.55 136.705 78.751 137.218C79.952 137.732 81.9537 136.479 81.9537 136.479C81.9537 136.479 85.2385 146.108 87.3325 148.9C89.4265 151.692 95.1236 155.788 97.5256 156.814C99.9276 157.841 109.351 154.618 110.429 152.103C111.506 149.588 114.247 142.022 114.298 140.811C114.35 139.6 114.801 134.242 114.801 134.242C114.801 134.242 117.881 131.48 118.066 125.67C118.25 119.86 117.624 118.331 115.9 118.834L114.165 119.327C114.165 119.327 112.266 111.731 110.737 107.163C109.207 102.595 109.844 92.7918 99.907 96.7233C89.9706 100.655 79.8083 98.0988 78.1248 103.652C76.4414 109.205 78.9563 125.804 78.9563 125.804Z" fill="#BFBFBF" stroke="#263238" stroke-linecap="round" stroke-linejoin="round"/>
<path d="M81.2728 91.9501C81.2728 91.9501 72.5989 100.994 72.6605 105.541C72.7885 108.841 73.483 112.094 74.7135 115.159C75.3704 117.212 76.8178 123.771 76.8178 123.771C76.8178 123.771 77.4337 126.851 78.9426 125.824C80.4516 124.798 81.3241 127.354 80.3695 120.528C79.4148 113.702 76.6638 109.123 80.4516 106.157C84.2393 103.19 82.0426 103.077 90.542 104.453C99.0414 105.828 100.047 105.028 102.583 102.769C105.118 100.511 105.857 100.265 107.921 103.796C109.984 107.327 110.908 114.687 111.339 116.206C111.77 117.725 112.119 121.267 113.104 121.02C114.09 120.774 113.361 114.451 113.392 113.691C113.423 112.932 113.546 103.591 112.078 97.5137C110.61 91.4369 104.4 87.8544 99.7599 87.064C95.1202 86.2736 85.6867 86.6739 81.2728 91.9501Z" fill="#263238" stroke="#263238" stroke-linecap="round" stroke-linejoin="round"/>
<path d="M96.6401 135.792C96.6401 135.792 94.9977 140.329 96.6401 141.345C98.2825 142.361 104.216 141.396 104.267 140.134C104.318 138.871 101.773 135.063 101.773 135.063" stroke="#263238" stroke-linecap="round" stroke-linejoin="round"/>
<path d="M96.9805 145.903L105.346 144.445" stroke="#263238" stroke-linecap="round" stroke-linejoin="round"/>
<path d="M86.5391 125.609C86.5391 125.609 91.9692 124.131 95.0795 125.917" stroke="#263238" stroke-linecap="round" stroke-linejoin="round"/>
<path d="M101.98 124.449C101.98 124.449 105.512 121.698 109.371 122.991" stroke="#263238" stroke-linecap="round" stroke-linejoin="round"/>
<path d="M92.1927 130.156C92.4186 131.522 92.0182 132.753 91.2894 132.907C90.5606 133.061 89.7702 132.086 89.5444 130.721C89.3186 129.356 89.7086 128.124 90.4374 127.97C91.1663 127.816 91.9566 128.781 92.1927 130.156Z" fill="#263238"/>
<path d="M107.016 128.309C107.252 129.674 106.852 130.916 106.113 131.07C105.374 131.224 104.604 130.249 104.368 128.883C104.131 127.518 104.542 126.286 105.271 126.132C106 125.978 106.78 126.923 107.016 128.309Z" fill="#263238"/>
<path d="M133.432 280.876C133.432 280.876 122.818 292.712 111.28 304.342L108.889 306.734L106.774 308.787C98.7572 316.629 90.8943 323.62 86.3469 325.826C74.3985 331.677 53.8687 328.249 50.5018 324.287C47.1349 320.324 50.5018 315.408 56.7736 318.415C63.0455 321.423 72.171 321.813 78.6585 319.555C78.8369 319.489 79.0116 319.413 79.182 319.329L79.4591 319.185C82.5386 317.615 89.3238 312.205 96.7966 305.954L99.6092 303.582L102.412 301.211C113.908 291.388 125.107 281.318 125.107 281.318L131.923 275.805L133.432 280.876Z" fill="#BFBFBF" stroke="#263238" stroke-linecap="round" stroke-linejoin="round"/>
<path d="M106.774 308.807C98.7572 316.65 90.8943 323.64 86.3469 325.847C74.3985 331.677 53.8687 328.249 50.5018 324.287C47.1349 320.324 50.5018 315.408 56.7736 318.415C63.0455 321.423 72.171 321.813 78.6585 319.555C78.8369 319.489 79.0116 319.413 79.182 319.329L79.4591 319.185C82.5386 317.614 89.3238 312.205 96.7966 305.953L106.774 308.807Z" fill="#263238" stroke="#263238" stroke-linecap="round" stroke-linejoin="round"/>
<path d="M111.275 304.342L108.883 306.734L99.6445 303.582L102.447 301.211L111.275 304.342Z" fill="#263238" stroke="#263238" stroke-linecap="round" stroke-linejoin="round"/>
<path d="M129.038 188.081C129.038 188.081 133.257 192.659 139.365 199.024C145.472 205.388 158.15 218.363 158.15 218.363C158.15 218.363 147.731 240.781 144.313 246.827C141.527 251.512 138.495 256.045 135.228 260.408C135.228 260.408 129.151 265.674 127.581 268.189C126.01 270.704 123.875 275.497 122.592 277.006C121.309 278.515 117.839 279.747 118.753 281.277C119.666 282.806 122.366 282.56 123.126 282.057C123.885 281.554 130.096 278.823 130.096 278.823L130.578 285.147L136.942 284.941C138.921 283.126 140.793 281.196 142.547 279.162C143.84 277.407 144.179 274.882 144.6 271.597C145.021 268.312 145.626 264.524 145.626 264.524C145.626 264.524 161.619 243.163 167.532 235.875C172.079 230.26 177.253 219.861 179.398 215.345C179.729 214.658 179.911 213.909 179.934 213.147C179.957 212.385 179.82 211.626 179.532 210.921C178.186 207.577 176.416 204.421 174.266 201.528C170.314 196.447 161.044 183.483 159.002 179.685C156.959 175.886 151.005 164.236 146.253 159.894C143.179 157.209 139.468 155.357 135.474 154.515" fill="#0E2B5C"/>
<path d="M129.038 188.081C129.038 188.081 133.257 192.659 139.365 199.024C145.472 205.388 158.15 218.363 158.15 218.363C158.15 218.363 147.731 240.781 144.313 246.827C141.527 251.512 138.495 256.045 135.228 260.408C135.228 260.408 129.151 265.674 127.581 268.189C126.01 270.704 123.875 275.497 122.592 277.006C121.309 278.515 117.839 279.747 118.753 281.277C119.666 282.806 122.366 282.56 123.126 282.057C123.885 281.554 130.096 278.823 130.096 278.823L130.578 285.147L136.942 284.941C138.921 283.126 140.793 281.196 142.547 279.162C143.84 277.407 144.179 274.882 144.6 271.597C145.021 268.312 145.626 264.524 145.626 264.524C145.626 264.524 161.619 243.163 167.532 235.875C172.079 230.26 177.253 219.861 179.398 215.345C179.729 214.658 179.911 213.909 179.934 213.147C179.957 212.385 179.82 211.626 179.532 210.921C178.186 207.577 176.416 204.421 174.266 201.528C170.314 196.447 161.044 183.483 159.002 179.685C156.959 175.886 151.005 164.236 146.253 159.894C143.179 157.209 139.468 155.357 135.474 154.515" stroke="white" stroke-linecap="round" stroke-linejoin="round"/>
<path d="M174.214 201.549C170.262 196.468 160.993 183.503 158.95 179.705L158.509 178.884C157.677 180.434 156.713 182.199 155.594 184.232C151.826 191.048 144.518 195.328 138.277 197.884C138.626 198.264 138.995 198.634 139.365 199.024C145.462 205.388 158.15 218.363 158.15 218.363C158.15 218.363 147.731 240.781 144.313 246.828C141.527 251.512 138.495 256.045 135.228 260.408C135.228 260.408 129.151 265.674 127.581 268.189C126.01 270.704 123.875 275.497 122.592 277.006C121.309 278.515 117.839 279.747 118.753 281.277C119.666 282.806 122.366 282.56 123.126 282.057C123.885 281.554 130.096 278.823 130.096 278.823L130.578 285.147L136.942 284.941C138.921 283.126 140.793 281.196 142.547 279.162C143.84 277.407 144.179 274.882 144.6 271.597C145.021 268.312 145.626 264.524 145.626 264.524C145.626 264.524 161.619 243.163 167.532 235.875C172.079 230.26 177.253 219.862 179.398 215.345C179.729 214.658 179.911 213.909 179.934 213.147C179.957 212.385 179.82 211.627 179.532 210.921C178.168 207.582 176.381 204.432 174.214 201.549Z" fill="#BFBFBF" stroke="white" stroke-linecap="round" stroke-linejoin="round"/>
<path d="M136.48 258.673L135.228 260.377C135.228 260.377 129.151 265.643 127.581 268.158C126.01 270.673 123.875 275.467 122.592 276.976C121.309 278.485 117.839 279.716 118.753 281.246C119.666 282.775 122.366 282.529 123.126 282.026C123.885 281.523 130.096 278.793 130.096 278.793L129.623 284.602L136.942 284.91C138.921 283.095 140.793 281.165 142.547 279.131C143.84 277.376 144.179 274.851 144.6 271.566C145.021 268.281 145.626 264.493 145.626 264.493C142.917 259.977 137.979 258.92 136.48 258.673Z" fill="#263238" stroke="white" stroke-linecap="round" stroke-linejoin="round"/>
<path d="M272.219 214.698C272.219 214.698 269.139 222.797 269.837 226.133C270.252 227.933 270.492 229.769 270.556 231.615L267.476 266.156C267.476 266.156 257.211 281.646 253.896 289.027C250.58 296.407 234.834 313.56 234.834 313.56C234.834 313.56 220.062 327.859 220.062 330.712C220.062 333.566 230.327 329.05 230.327 329.05C230.327 329.05 265.587 300.934 272.024 294.744C278.46 288.554 283.931 280.691 284.649 278.782C285.368 276.873 290.603 240.422 290.603 239.714C290.603 239.005 293.939 222.079 293.939 222.079L272.219 214.698Z" fill="white" stroke="#263238" stroke-linecap="round" stroke-linejoin="round"/>
<path d="M319.389 250.666C319.389 250.666 309.391 264.966 304.146 274.491C298.901 284.017 285.926 307.288 285.207 308.479C284.262 310.056 283.845 311.893 284.016 313.724C284.252 315.869 280.937 353.511 280.208 361.61C279.479 369.709 279.253 374.708 279.253 374.708C279.253 374.708 270.672 376.617 269.728 376.617C268.783 376.617 252.092 373.045 249.475 373.281C246.857 373.517 246.857 381.144 249.475 385.671C252.092 390.198 258.529 395.936 263.528 396.87C268.527 397.804 272.581 399.251 275.445 401.397C278.309 403.542 282.826 405.205 285.71 402.824C288.595 400.442 291.869 397.106 292.136 388.525C292.403 379.943 299.044 357.319 300.481 353.275C301.918 349.23 306.199 335.824 306.199 329.45C306.199 323.075 305.953 318.487 305.953 318.487L339.19 288.79L352.535 292.127L360.644 278.064L367.07 284.223L370.848 286.388C370.848 286.388 395.391 319.503 402.771 325.929C410.152 332.355 413.971 333.32 415.161 332.601C416.352 331.883 464.002 324.502 464.002 324.502C464.002 324.502 469.483 333.556 470.438 335.937C471.6 339.08 472.322 342.369 472.583 345.71C472.583 348.091 477.1 348.327 479.245 346.654C481.391 344.981 483.536 335.701 483.536 332.129C483.536 328.557 480.2 320.458 479.728 316.875C479.256 313.293 478.055 307.349 474.482 308.068C470.91 308.787 463.766 311.147 462.093 311.64C460.419 312.133 450.904 312.112 446.613 310.213C442.322 308.314 436.348 305.687 431.606 306.631C426.863 307.575 421.115 308.54 421.115 308.54L407.298 276.616C407.298 276.616 401.345 251.364 395.391 243.265C389.437 235.166 382.529 228.73 379.429 226.585C377.47 225.239 375.411 224.045 373.27 223.013C373.27 223.013 365.879 235.875 349.445 244.692C333.011 253.51 319.389 250.666 319.389 250.666Z" fill="white" stroke="#263238" stroke-linecap="round" stroke-linejoin="round"/>
<path d="M389.911 288.554C395.865 285.926 407.3 276.637 407.3 276.637C407.3 276.637 401.347 251.385 395.393 243.286C389.439 235.187 382.531 228.751 379.431 226.605C377.472 225.26 375.413 224.065 373.272 223.033C373.272 223.033 365.881 235.895 349.447 244.713C333.013 253.53 319.422 250.666 319.422 250.666C319.422 250.666 309.424 264.965 304.179 274.491C303.748 275.282 303.306 276.123 302.875 276.996C304.836 276.996 308.295 277.078 314.166 277.591C325.119 278.546 341.327 285.926 341.327 285.926L339.182 288.79L352.527 292.126L360.636 278.064L367.062 284.223L370.849 286.388C370.849 286.388 383.958 291.172 389.911 288.554Z" fill="#263238" stroke="#263238" stroke-linecap="round" stroke-linejoin="round"/>
<path d="M336.544 270.683L360.605 278.064L334.645 274.974" stroke="#8F8F8F" stroke-linecap="round" stroke-linejoin="round"/>
<path d="M341.316 285.927L350.606 289.981" stroke="#263238" stroke-linecap="round" stroke-linejoin="round"/>
<path d="M474.48 308.088C470.908 308.797 463.764 311.168 462.09 311.661C460.417 312.153 450.902 312.133 446.611 310.234C442.32 308.335 436.346 305.707 431.604 306.651L428.391 307.278C430.444 309.279 433.154 313.365 432.076 320.478C431.633 323.732 430.82 326.925 429.653 329.994C444.024 327.612 464 324.523 464 324.523C464 324.523 469.481 333.576 470.436 335.958C471.598 339.101 472.32 342.389 472.581 345.73C472.581 348.111 477.098 348.348 479.243 346.674C481.389 345.001 483.534 335.722 483.534 332.149C483.534 328.577 480.198 320.478 479.726 316.896C479.253 313.313 478.052 307.37 474.48 308.088Z" fill="#BFBFBF" stroke="#263238" stroke-linecap="round" stroke-linejoin="round"/>
<path d="M468.294 314.278C469.146 315.294 469.67 316.544 469.796 317.863C469.923 319.183 469.646 320.51 469.002 321.669C467.811 324.05 469.002 321.669 466.384 322.377C463.767 323.085 464.003 324.523 464.003 324.523C464.003 324.523 469.485 333.576 470.439 335.958C471.601 339.101 472.323 342.389 472.585 345.73C472.585 348.111 477.101 348.348 479.246 346.674C481.392 345.001 483.537 335.722 483.537 332.149C483.537 328.577 480.201 320.478 479.729 316.896C479.257 313.313 478.056 307.37 474.484 308.088C470.911 308.807 463.767 311.168 462.094 311.661C462.094 311.661 466.385 311.897 468.294 314.278Z" fill="white" stroke="#263238" stroke-linecap="round" stroke-linejoin="round"/>
<path d="M306.178 329.501C298.654 320.94 288.328 322.88 283.359 324.533C282.395 336.902 280.691 356.139 280.208 361.661C279.49 369.76 279.253 374.759 279.253 374.759C279.253 374.759 270.672 376.668 269.728 376.668C268.783 376.668 252.092 373.096 249.475 373.332C246.857 373.568 246.857 381.195 249.475 385.722C252.092 390.249 258.529 395.987 263.528 396.921C268.527 397.855 272.581 399.303 275.445 401.448C278.309 403.593 282.826 405.256 285.71 402.875C288.595 400.493 291.869 397.157 292.136 388.576C292.403 379.994 299.044 357.37 300.481 353.326C301.918 349.282 306.178 335.876 306.178 329.501Z" fill="#BFBFBF" stroke="#263238" stroke-linecap="round" stroke-linejoin="round"/>
<path d="M249.475 373.281C246.857 373.517 246.857 381.144 249.475 385.671C252.092 390.198 258.529 395.936 263.528 396.87C268.527 397.804 272.581 399.251 275.445 401.397C278.309 403.542 282.826 405.205 285.71 402.824C288.595 400.442 291.869 397.106 292.136 388.525C292.136 388.412 292.136 388.288 292.136 388.165C288.215 385.763 283.062 380.189 283.062 380.189C283.715 379.607 284.178 378.841 284.391 377.991C284.603 377.142 284.555 376.248 284.253 375.426C283.308 372.347 279.253 374.708 279.253 374.708C279.253 374.708 270.672 376.617 269.728 376.617C268.783 376.617 252.092 373.045 249.475 373.281Z" fill="white" stroke="#263238" stroke-linecap="round" stroke-linejoin="round"/>
<path d="M249.475 385.671C252.092 390.198 258.529 395.936 263.528 396.87C268.527 397.804 272.581 399.251 275.445 401.397C278.309 403.542 282.826 405.205 285.71 402.824C286.43 402.245 287.116 401.625 287.763 400.966C286.877 400.393 286.045 399.74 285.279 399.015C282.897 396.634 276.944 396.87 270.744 393.051C264.544 389.233 257.112 384.008 254.032 379.235C250.953 374.462 249.506 373.281 249.506 373.281C246.847 373.517 246.847 381.144 249.475 385.671Z" fill="#263238" stroke="#263238" stroke-linecap="round" stroke-linejoin="round"/>
<path d="M276.274 195.164C276.274 195.164 269.602 213.507 270.31 216.844C271.019 220.18 280.083 226.133 293.181 231.132C306.279 236.131 314.624 241.141 317.96 244.713C321.296 248.285 317.252 250.194 318.679 252.576C320.106 254.957 335.832 257.103 344.885 254.957C353.939 252.812 364.892 245.719 369.901 240.422C374.91 235.125 378.236 230.66 377.086 226.606C375.937 222.551 372.323 218.27 369.901 215.17C367.478 212.07 355.366 192.3 337.258 180.157C319.151 168.013 311.052 164.903 299.853 163.959C288.654 163.014 288.182 163.004 286.036 165.149C283.891 167.295 272.938 170.148 276.274 195.164Z" fill="#0E2B5C" stroke="white" stroke-linecap="round" stroke-linejoin="round"/>
<path d="M313.199 211.126C313.199 211.126 340.36 214.462 356.558 222.797" stroke="white" stroke-linecap="round" stroke-linejoin="round"/>
<path d="M314.594 215.653C314.594 215.653 331.018 222.838 336.037 228.751" stroke="white" stroke-linecap="round" stroke-linejoin="round"/>
<path d="M348.47 228.042C348.47 228.042 344.898 244.466 332.98 249.476" stroke="white" stroke-linecap="round" stroke-linejoin="round"/>
<path d="M333.921 244.241C333.921 244.241 328.44 249.24 322.969 250.913" stroke="white" stroke-linecap="round" stroke-linejoin="round"/>
<path d="M232.473 161.095C232.473 161.095 232.237 171.811 234.146 174.193C235.384 175.694 236.927 176.915 238.673 177.775C238.673 177.775 237 188.492 239.627 188.728C241.231 188.865 242.845 188.705 244.39 188.256C244.39 188.256 256.298 201.118 259.398 200.399C262.498 199.68 269.406 193.491 269.406 193.491L275.832 197.545C275.832 197.545 278.911 208.508 279.887 205.644C280.862 202.781 276.068 179.91 281.077 172.53L286.076 165.149L280.123 162.521C277.883 156.983 274.656 151.898 270.597 147.514C263.925 140.329 250.58 138.46 242.009 143.47C233.438 148.479 231.241 157.758 232.473 161.095Z" fill="white" stroke="#263238" stroke-linecap="round" stroke-linejoin="round"/>
<path d="M274.133 166.094C274.133 166.094 276.278 169.173 274.133 170.867C272.861 171.857 271.504 172.733 270.078 173.484" stroke="#263238" stroke-linecap="round" stroke-linejoin="round"/>
<path d="M259.359 200.399C259.359 200.399 266.74 193.019 269.121 189.21L272.704 183.493L269.368 193.491C269.368 193.491 262.244 199.455 259.359 200.399Z" fill="#263238" stroke="#263238" stroke-linecap="round" stroke-linejoin="round"/>
<path d="M244.793 173.854C245.707 174.973 245.984 176.256 245.419 176.708C244.855 177.159 243.664 176.625 242.75 175.496C241.837 174.367 241.56 173.094 242.124 172.632C242.689 172.17 243.859 172.725 244.793 173.854Z" fill="#263238"/>
<path d="M238.152 173.002C238.152 173.002 238.871 167.284 243.87 166.576" stroke="#263238" stroke-linecap="round" stroke-linejoin="round"/>
<path d="M241.016 149.423C241.016 149.423 235.062 159.432 232.434 161.095C229.806 162.758 220.763 160.859 218.854 155.849C216.944 150.84 215.774 146.559 219.808 144.66C223.843 142.761 224.571 145.133 225.29 139.179C226.008 133.225 228.626 129.643 234.344 129.941C240.061 130.238 239.106 133.513 241.016 132.322C242.925 131.131 243.161 125.886 248.396 125.137C253.631 124.387 269.84 126.081 272.704 130.136C275.568 134.19 279.366 143.952 280.084 152.523C280.803 161.095 285.083 163.722 284.139 164.913C283.559 165.686 282.8 166.306 281.927 166.72C281.055 167.135 280.095 167.332 279.129 167.295C277.399 167.244 275.698 166.838 274.13 166.104C274.13 166.104 268.885 156.578 265.795 157.297C262.706 158.015 261.505 163.014 261.505 163.014C261.248 163.532 260.829 163.951 260.312 164.209C259.795 164.467 259.208 164.548 258.641 164.441C256.742 163.969 255.561 160.386 252.687 160.386C249.813 160.386 244.824 160.15 242.422 158.96C240.02 157.769 241.016 149.423 241.016 149.423Z" fill="#263238" stroke="#263238" stroke-linecap="round" stroke-linejoin="round"/>
<path d="M294.381 165.621C294.381 165.621 286.519 162.542 283.419 173.248C280.319 183.955 283.182 194.928 284.609 200.163C286.036 205.398 290.768 236.142 290.768 236.142C290.768 236.142 262.18 278.064 260.517 280.691C258.855 283.319 266.235 285.927 266.235 285.927C266.235 285.927 310.549 248.767 312.212 245.893C313.875 243.019 314.829 240.894 314.829 237.558C314.829 234.222 312.93 228.268 312.93 228.268L310.549 206.825C310.549 206.825 326.511 195.154 323.175 182.528C319.839 169.902 304.862 164.431 294.381 165.621Z" fill="white" stroke="#263238" stroke-linecap="round" stroke-linejoin="round"/>
<path d="M310.58 206.835C310.58 206.835 311.771 194.928 310.344 189.919" stroke="#263238" stroke-linecap="round" stroke-linejoin="round"/>
<path d="M258.405 302.135L209.636 350.164L201.773 357.914L195.348 364.248C185.545 373.907 178.287 381.072 177.25 382.109L177.168 382.181C175.023 384.326 162.151 398.605 150.48 393.616C138.808 388.627 135.944 380.035 139.999 377.192C144.054 374.349 147.38 379.101 150.962 383.156C154.544 387.211 158.579 383.156 158.579 383.156L194.023 351.335L200.429 345.597L208.446 338.411L248.397 302.597C248.397 302.597 253.642 296.171 256.024 297.598C258.405 299.025 258.405 302.135 258.405 302.135Z" fill="#FC5546" stroke="#263238" stroke-linecap="round" stroke-linejoin="round"/>
<path d="M208.446 338.421L200.429 345.607L201.773 357.925L209.636 350.175L208.446 338.421ZM194.023 351.355L158.579 383.177C158.579 383.177 154.534 387.221 150.962 383.177C147.39 379.132 144.054 374.359 139.999 377.213C135.944 380.066 138.808 388.648 150.48 393.636C162.151 398.625 175.023 384.398 177.168 382.201L177.25 382.129C178.277 381.103 185.545 373.918 195.348 364.268L194.023 351.355Z" fill="white" stroke="#263238" stroke-linecap="round" stroke-linejoin="round"/>
<path d="M260.552 280.691C260.552 280.691 251.498 290.217 250.072 292.127C248.645 294.036 248.881 297.844 249.117 298.552C249.353 299.261 248.398 302.607 248.398 302.607L251.026 300.462C251.026 300.462 250.544 311.178 251.735 311.897C252.925 312.615 255.307 311.897 255.307 311.897L257.216 308.561C259.725 307.01 262.044 305.17 264.124 303.079C266.742 300.226 266.27 285.926 266.27 285.926C266.27 285.926 263.406 280.691 260.552 280.691Z" fill="#263238" stroke="#263238" stroke-linecap="round" stroke-linejoin="round"/>
<path d="M229.396 318.569C229.396 318.569 219.388 319.996 218.669 321.905C217.951 323.814 215.816 331.667 215.097 332.858C214.379 334.048 210.806 337.385 214.379 336.676C217.951 335.968 220.096 330.712 220.096 330.712L229.396 318.569Z" fill="white" stroke="#263238" stroke-linecap="round" stroke-linejoin="round"/>
<path d="M220.043 330.712C220.043 330.712 220.762 337.385 222.188 337.385C223.615 337.385 231.961 333.812 233.151 330.959C234.342 328.105 235.061 324.523 232.915 324.995C230.77 325.467 220.043 330.712 220.043 330.712Z" fill="white" stroke="#263238" stroke-linecap="round" stroke-linejoin="round"/>
</svg>
