<svg width="557" height="344" viewBox="0 0 557 344" fill="none" xmlns="http://www.w3.org/2000/svg">
<path d="M171.555 168.947L186.391 109.964L209.643 164.762L202.832 162.865L219.672 195.585L210.05 192.544L225.001 225.971L170.196 210.928L173.958 194.065L169.543 199.77L179.188 165.253L171.555 168.947Z" fill="#EBEBEB"/>
<path d="M115.897 146.67L134.948 70.9467L164.805 141.294L156.05 138.852L177.675 180.864L165.319 176.956L178.919 213.047C157.454 207.219 135.495 203.394 113.324 201.621L119.022 178.922L113.363 186.255L125.741 141.932L115.897 146.67Z" fill="#F5F5F5"/>
<path d="M80.8678 159.571L95.7114 100.595L118.964 155.393L112.152 153.489L129.008 186.209L119.386 183.138L131.012 203.656C113.75 201.082 96.2298 200.731 78.8789 202.612L83.2944 184.658L78.8789 190.363L88.5238 155.808L80.8678 159.571Z" fill="#E0E0E0"/>
<path d="M25.5567 158.956L44.6008 83.2408L74.4876 153.581L65.7412 151.139L87.3577 193.151L74.9714 189.212L85.722 202.082C59.8974 205.476 43.5257 208.102 22.9766 216.549L28.6437 191.147L22.9766 198.48L35.3245 154.172L25.5567 158.956Z" fill="#F5F5F5"/>
<path d="M514.495 203.441L521.745 174.606L533.109 201.391L529.784 200.461L538.016 216.457L533.301 215.013L539.445 226.969C530.46 226.24 521.906 225.91 513.336 225.557L515.64 215.758L513.482 218.546L518.197 201.652L514.495 203.441Z" fill="#E0E0E0"/>
<path d="M522.843 225.917L521.453 225.879L517.383 225.733C513.812 225.51 508.537 225.595 501.749 225.856C493.516 226.346 485.315 227.258 477.176 228.59C467.646 230.126 456.865 232.276 445.031 235.048C433.198 237.82 420.274 240.991 406.283 243.948C402.789 244.716 399.21 245.345 395.594 246.067C391.977 246.789 388.252 247.319 384.49 247.926L378.784 248.693C376.872 248.939 374.945 249.231 372.994 249.369C369.086 249.699 365.139 250.137 361.122 250.26C357.106 250.513 353.029 250.483 348.913 250.513L342.708 250.368C340.627 250.329 338.538 250.153 336.434 250.045C328.033 249.523 319.479 248.617 310.832 247.288C293.009 244.413 275.362 240.531 257.977 235.662C240.078 230.786 222.769 225.449 205.952 220.634C197.551 218.223 189.273 215.927 181.133 213.831C172.993 211.734 164.961 209.884 157.098 208.256C149.235 206.628 141.509 205.338 133.976 204.278C126.443 203.218 119.079 202.55 111.945 202.151C98.7132 201.436 85.4437 201.917 72.2982 203.587C61.4525 204.97 50.7635 207.384 40.3764 210.797C32.534 213.38 24.9333 216.646 17.6618 220.557L13.469 222.907C12.801 223.26 12.1943 223.675 11.603 224.044L9.89061 225.142L6.81899 227.1C6.36947 227.374 5.93616 227.674 5.52123 227.998L4.40777 228.835L1.12882 231.247C0.383952 231.792 0 232.061 0 232.061C0 232.061 0.368594 231.769 1.0981 231.216L4.3617 228.774L5.49819 227.922C5.91158 227.597 6.34223 227.294 6.78827 227.016L9.8215 225.042L11.5186 223.929C12.1099 223.545 12.7165 223.161 13.3846 222.792L17.585 220.389C24.8493 216.454 32.4449 213.165 40.2843 210.559C50.6823 207.124 61.3841 204.686 72.2444 203.28C85.4039 201.593 98.6888 201.097 111.937 201.798C119.079 202.189 126.443 202.911 133.999 203.909C141.555 204.908 149.273 206.259 157.152 207.872C165.03 209.484 173.047 211.366 181.202 213.439C189.358 215.512 197.636 217.831 206.044 220.235C222.854 225.05 240.162 230.379 258.062 235.247C275.432 240.115 293.063 243.996 310.871 246.874C319.51 248.202 328.049 249.116 336.434 249.646C338.538 249.746 340.619 249.922 342.7 249.961L348.897 250.122C353.006 250.083 357.068 250.122 361.076 249.868C365.092 249.761 369.032 249.308 372.933 248.993C374.883 248.855 376.772 248.563 378.723 248.317L384.421 247.549C388.176 246.95 391.869 246.344 395.509 245.706C399.149 245.069 402.704 244.339 406.198 243.595C420.174 240.661 433.075 237.451 444.947 234.748C456.819 232.045 467.577 229.841 477.114 228.344C485.271 227.027 493.491 226.138 501.741 225.679C508.529 225.441 513.812 225.38 517.391 225.633L521.453 225.818L522.843 225.917Z" fill="#E0E0E0"/>
<path d="M481.676 195.255L494.868 142.83L515.548 191.554L509.489 189.864L524.479 218.937L515.916 216.234L522.505 225.894C510.679 225.503 495.114 225.042 480.224 227.968L483.78 217.586L479.863 222.661L488.433 191.945L481.676 195.255Z" fill="#F5F5F5"/>
<path d="M423.637 44.2697C424.274 39.6085 417.694 35.769 412.748 35.3697C410.391 35.1854 407.941 35.5463 405.707 34.763C400.861 33.0736 398.934 26.8229 394.188 24.8264C390.663 23.3366 386.593 24.6651 383.169 26.3622C379.744 28.0592 376.365 30.2478 372.541 30.4935C369.208 30.7085 365.63 29.4722 362.689 31.1001C360.515 32.3134 359.379 34.8091 357.382 36.2835C355.386 37.7579 352.875 38.0343 350.471 38.1649C348.068 38.2954 345.534 38.3184 343.322 39.3321C341.11 40.3457 339.283 42.6801 339.744 45.0683L423.637 44.2697Z" fill="#F5F5F5"/>
<path d="M187.454 45.0836C187.838 42.2808 183.883 39.9771 180.911 39.7083C179.498 39.5931 178.024 39.8081 176.68 39.3397C173.777 38.3261 172.61 34.571 169.769 33.3731C167.642 32.4823 165.161 33.2733 163.142 34.31C161.122 35.3466 159.057 36.6521 156.753 36.798C154.756 36.9285 152.583 36.1836 150.84 37.1589C149.535 37.9268 148.851 39.3858 147.646 40.2766C146.406 41.0693 144.962 41.483 143.491 41.4668C142.027 41.4293 140.568 41.6663 139.191 42.1656C137.87 42.7799 136.772 44.1775 137.041 45.6135L187.454 45.0836Z" fill="#F5F5F5"/>
<path d="M539.452 110.156C539.836 107.353 535.881 105.042 532.909 104.781C531.496 104.665 530.022 104.888 528.678 104.42C525.768 103.406 524.608 99.6433 521.767 98.4453C519.648 97.5546 517.206 98.3532 515.148 99.3822C513.09 100.411 511.055 101.724 508.759 101.87C506.762 102.001 504.589 101.256 502.838 102.231C501.541 102.999 500.857 104.466 499.651 105.349C498.403 106.121 496.957 106.514 495.489 106.478C494.025 106.443 492.566 106.682 491.189 107.184C489.861 107.791 488.763 109.196 489.039 110.624L539.452 110.156Z" fill="#F5F5F5"/>
<path d="M318.734 110.356C319.279 106.408 313.712 103.16 309.519 102.822C307.522 102.669 305.449 102.968 303.56 102.308C299.459 100.887 297.824 95.5887 293.831 93.907C290.844 92.6476 287.403 93.7688 284.508 95.2278C281.613 96.6868 278.749 98.5221 275.508 98.7294C272.698 98.9061 269.642 97.8617 267.177 99.2362C265.341 100.265 264.382 102.377 262.692 103.621C261.003 104.865 258.853 105.103 256.825 105.218C254.798 105.333 252.648 105.349 250.774 106.201C248.901 107.054 247.357 109.035 247.749 111.054L318.734 110.356Z" fill="#EBEBEB"/>
<path d="M455.234 118.557C455.234 118.179 455.337 117.808 455.534 117.486C455.731 117.163 456.013 116.901 456.349 116.729C456.685 116.557 457.062 116.48 457.439 116.509C457.816 116.537 458.177 116.669 458.484 116.89C458.79 117.111 459.029 117.412 459.176 117.761C459.322 118.109 459.369 118.491 459.311 118.864C459.254 119.238 459.095 119.588 458.851 119.877C458.607 120.165 458.288 120.381 457.93 120.5V232.898H456.64V120.5C456.232 120.363 455.877 120.102 455.625 119.754C455.373 119.405 455.236 118.987 455.234 118.557Z" fill="#E0E0E0"/>
<path d="M434.755 135.62C437.681 136.073 439.831 133.608 440.514 131.419C441.144 129.4 441.451 127.295 442.334 125.376C443.578 122.688 446.865 121.444 449.814 121.69C452.697 121.97 455.49 122.849 458.015 124.27V141.248C458.015 141.248 451.941 134.944 449.207 134.829C444.653 134.644 444.899 142.131 440.476 143.237C438.569 143.669 436.577 143.548 434.737 142.886C432.896 142.225 431.283 141.052 430.086 139.505C428.445 137.279 427.442 134.648 427.184 131.895C427.184 131.895 429.257 134.767 434.755 135.62Z" fill="#EBEBEB"/>
<path d="M438.375 141.133L438.506 141.056C438.588 141.005 438.703 140.921 438.851 140.803C439.263 140.461 439.627 140.066 439.934 139.628C440.385 138.977 440.749 138.269 441.017 137.524C441.329 136.614 441.586 135.686 441.785 134.744C442.191 133.039 442.448 131.303 442.553 129.553C442.553 128.877 442.599 128.332 442.599 127.956C442.599 127.787 442.599 127.641 442.599 127.526C442.599 127.411 442.599 127.38 442.599 127.38C442.599 127.38 442.599 127.426 442.599 127.526V127.956C442.599 128.332 442.599 128.877 442.507 129.545C442.38 131.285 442.123 133.012 441.739 134.713C441.532 135.648 441.276 136.571 440.971 137.478C440.712 138.215 440.361 138.917 439.926 139.567C439.633 140.004 439.288 140.403 438.897 140.757C438.537 141.003 438.368 141.118 438.375 141.133Z" fill="#E0E0E0"/>
<path d="M264.766 197.728C265.255 197.555 265.775 197.482 266.293 197.512C266.812 197.542 267.319 197.675 267.786 197.903C268.252 198.131 268.669 198.449 269.011 198.84C269.354 199.23 269.615 199.685 269.78 200.177L273.19 210.245C273.497 211.15 273.463 212.137 273.094 213.019C272.725 213.902 272.046 214.619 271.185 215.036L270.172 215.528L264.766 197.728Z" fill="#E0E0E0"/>
<path d="M261.948 198.012L265.842 210.237C266.525 212.395 267.209 214.545 267.9 216.703C267.959 216.94 268.033 217.173 268.122 217.401C268.314 217.839 268.122 216.979 268.122 217.14C268.03 218.011 268.03 218.888 268.122 219.759V227.231C268.122 229.703 271.962 229.703 271.962 227.231V220.734C271.962 219.267 272.215 217.563 271.762 216.127L267.232 201.959C266.72 200.3 266.192 198.647 265.65 196.998C264.882 194.648 261.196 195.654 261.948 198.012Z" fill="#EBEBEB"/>
<path d="M280.51 218.676H285.294C287.41 218.676 289.439 219.517 290.936 221.013C292.432 222.509 293.272 224.539 293.272 226.655V227.169H272.539V226.655C272.539 224.54 273.379 222.512 274.873 221.016C276.368 219.52 278.395 218.678 280.51 218.676Z" fill="#E0E0E0"/>
<path d="M254.577 226.156H293.494C294.04 226.156 294.563 226.372 294.949 226.758C295.335 227.144 295.552 227.668 295.552 228.213V247.119C295.55 247.664 295.332 248.185 294.946 248.57C294.561 248.954 294.038 249.17 293.494 249.17H261.242C260.817 249.17 260.401 249.04 260.053 248.795C259.706 248.55 259.442 248.203 259.299 247.803L252.641 228.889C252.534 228.58 252.502 228.249 252.548 227.925C252.594 227.6 252.716 227.292 252.906 227.024C253.095 226.757 253.345 226.539 253.636 226.388C253.927 226.236 254.249 226.157 254.577 226.156Z" fill="#F5F5F5"/>
<path d="M227.164 198.534V202.212C227.164 202.212 240.51 202.765 240.51 202.212V194.764H236.279L233.008 198.027L227.164 198.534Z" fill="#E0E0E0"/>
<path d="M322.566 212.809L323.234 219.137L326.36 222.047L332.134 222.385V211.642L323.357 211.297L322.566 212.809Z" fill="#E0E0E0"/>
<path d="M323.442 153.688C324.854 157.354 326.265 161.022 327.673 164.692C329.654 169.812 331.63 174.949 333.601 180.104C333.749 180.633 333.944 181.147 334.185 181.64C334.138 180.872 334.361 181.932 334.185 181.64C334.307 183.23 334.446 184.827 334.576 186.424C335.057 192.337 335.539 198.252 336.02 204.17C336.358 208.34 336.65 212.51 337.041 216.68C337.041 216.749 337.041 216.818 337.041 216.887C337.055 217.392 337.261 217.872 337.618 218.229C337.976 218.586 338.456 218.793 338.961 218.807C339.469 218.803 339.955 218.599 340.314 218.24C340.673 217.881 340.877 217.395 340.881 216.887L340.028 206.413C339.516 200.316 339.02 194.213 338.539 188.106C338.377 186.178 338.224 184.266 338.062 182.316C338.041 181.573 337.909 180.838 337.671 180.135C335.859 175.435 334.049 170.731 332.242 166.021C330.56 161.667 328.909 157.29 327.204 152.967C327.204 152.89 327.151 152.813 327.12 152.736C326.972 152.253 326.644 151.844 326.204 151.594C325.765 151.344 325.246 151.272 324.755 151.392C324.266 151.532 323.852 151.858 323.602 152.301C323.352 152.744 323.286 153.267 323.419 153.757L323.442 153.688Z" fill="#EBEBEB"/>
<path d="M244.962 157.42V216.756C244.962 219.505 244.854 222.27 244.962 225.011C244.966 225.052 244.966 225.093 244.962 225.134C244.962 227.607 248.801 227.607 248.801 225.134V165.798C248.801 163.057 248.917 160.285 248.801 157.543V157.42C248.801 154.948 244.962 154.948 244.962 157.42Z" fill="#EBEBEB"/>
<path d="M242.751 201.368H225.504V231.462H242.751V201.368Z" fill="#E0E0E0"/>
<path d="M357.855 228.106H330.402V252.249H357.855V228.106Z" fill="#E0E0E0"/>
<path d="M227.164 249.17V223.138C227.164 223.138 249.487 216.687 264.607 231.07C269.192 236.136 272.209 242.423 273.292 249.17H227.164Z" fill="#F5F5F5"/>
<path d="M328.425 207.042C328.051 207.47 327.78 207.977 327.634 208.526C327.487 209.074 327.469 209.649 327.58 210.206C327.818 212.387 330.491 225.38 330.491 225.38L326.359 249.185H331.343C331.343 249.185 332.602 235.478 345.066 232.199C349.082 231.091 353.35 231.326 357.221 232.867C357.583 233.012 357.975 233.065 358.362 233.023C358.75 232.981 359.121 232.844 359.443 232.625C359.765 232.406 360.029 232.111 360.211 231.766C360.392 231.421 360.486 231.037 360.485 230.648V221.525C360.49 220.385 360.133 219.273 359.465 218.35C358.797 217.427 357.853 216.739 356.768 216.388L328.425 207.042Z" fill="#F5F5F5"/>
<path d="M311.079 196.231L301.808 209.568C301.489 210.027 301.603 210.658 302.062 210.977L302.162 211.047C302.621 211.366 303.252 211.253 303.571 210.793L312.842 197.457C313.161 196.998 313.048 196.367 312.589 196.048L312.488 195.978C312.029 195.659 311.398 195.772 311.079 196.231Z" fill="#E0E0E0"/>
<path d="M325.974 212.841L308.722 200.985C308.261 200.668 307.63 200.785 307.313 201.246L307.243 201.347C306.926 201.809 307.043 202.44 307.504 202.757L324.756 214.613C325.217 214.93 325.848 214.813 326.165 214.352L326.235 214.251C326.552 213.789 326.435 213.158 325.974 212.841Z" fill="#E0E0E0"/>
<path d="M242.242 157.42H331.319V155.885C331.319 154.052 330.591 152.294 329.295 150.998C327.999 149.702 326.241 148.973 324.408 148.973H249.169C247.336 148.973 245.578 149.702 244.282 150.998C242.986 152.294 242.258 154.052 242.258 155.885L242.242 157.42Z" fill="#E0E0E0"/>
<path d="M334.954 249.108C334.565 252.416 335.211 255.763 336.802 258.689C338.392 261.615 340.85 263.977 343.837 265.451C346.824 266.924 350.194 267.436 353.484 266.917C356.774 266.397 359.822 264.872 362.21 262.551C364.598 260.229 366.209 257.225 366.821 253.951C367.433 250.677 367.017 247.294 365.628 244.267C364.24 241.239 361.949 238.716 359.069 237.043C356.189 235.37 352.861 234.63 349.544 234.925C345.852 235.253 342.387 236.842 339.729 239.425C337.072 242.008 335.386 245.428 334.954 249.108Z" fill="#E0E0E0"/>
<path d="M334.845 250.705C334.815 252.823 335.202 254.926 335.985 256.894C336.767 258.862 337.93 260.657 339.406 262.176C340.882 263.694 342.642 264.908 344.587 265.746C346.532 266.584 348.623 267.031 350.741 267.062C352.859 267.092 354.962 266.705 356.93 265.922C358.898 265.14 360.692 263.977 362.211 262.501C363.73 261.025 364.943 259.265 365.782 257.32C366.62 255.375 367.067 253.284 367.097 251.166L334.845 250.705Z" fill="#E0E0E0"/>
<path d="M339.76 249.346C339.418 251.686 339.817 254.074 340.902 256.175C341.987 258.276 343.702 259.985 345.808 261.061C347.913 262.137 350.303 262.527 352.641 262.176C354.98 261.825 357.149 260.75 358.846 259.102C360.542 257.455 361.68 255.317 362.099 252.99C362.518 250.663 362.198 248.263 361.184 246.127C360.17 243.991 358.512 242.226 356.443 241.081C354.374 239.935 351.999 239.466 349.65 239.74C347.174 240.029 344.863 241.128 343.075 242.865C341.287 244.601 340.121 246.88 339.76 249.346Z" fill="#F5F5F5"/>
<path d="M351.125 239.671C349.639 239.648 348.163 239.919 346.781 240.467C345.4 241.016 344.14 241.831 343.074 242.866C342.008 243.902 341.156 245.137 340.568 246.502C339.979 247.867 339.666 249.334 339.645 250.821L362.275 251.143C362.296 249.658 362.025 248.183 361.476 246.802C360.927 245.422 360.111 244.163 359.076 243.097C358.041 242.032 356.806 241.181 355.441 240.593C354.077 240.005 352.61 239.692 351.125 239.671Z" fill="#F5F5F5"/>
<path d="M344.182 249.715C343.91 251.158 344.105 252.65 344.737 253.975C345.37 255.3 346.409 256.389 347.702 257.084C348.996 257.779 350.477 258.044 351.931 257.84C353.385 257.637 354.737 256.976 355.79 255.952C356.843 254.929 357.543 253.597 357.788 252.149C358.033 250.701 357.81 249.213 357.153 247.9C356.495 246.587 355.436 245.518 354.13 244.848C352.824 244.177 351.338 243.94 349.888 244.171C348.481 244.394 347.179 245.047 346.157 246.039C345.136 247.032 344.446 248.315 344.182 249.715Z" fill="#E0E0E0"/>
<path d="M226.448 218.676H225.949C223.824 218.676 222.102 220.399 222.102 222.523V237.559C222.102 239.684 223.824 241.406 225.949 241.406H226.448C228.573 241.406 230.295 239.684 230.295 237.559V222.523C230.295 220.399 228.573 218.676 226.448 218.676Z" fill="#E0E0E0"/>
<path d="M222.929 184.159C222.929 184.159 220.533 183.79 219.611 185.265C218.69 186.739 218.79 188.121 219.611 189.043C220.433 189.964 223.021 190.049 224.948 190.049H229.832C229.863 189.213 229.59 188.395 229.064 187.745C228.266 186.831 222.929 184.159 222.929 184.159Z" fill="#E0E0E0"/>
<path d="M228.543 189.043V202.903H229.833V189.373L228.543 189.043Z" fill="#E0E0E0"/>
<path d="M226.607 172.656C226.607 172.656 224.219 172.287 223.298 173.761C222.376 175.236 222.468 176.618 223.298 177.532C224.127 178.446 226.699 178.545 228.635 178.545H233.511C233.541 177.71 233.268 176.892 232.743 176.242C231.944 175.328 226.607 172.656 226.607 172.656Z" fill="#E0E0E0"/>
<path d="M232.223 177.532V199.056H233.513V177.87L232.223 177.532Z" fill="#E0E0E0"/>
<path d="M332.136 247.572H223.539V252.894H332.136V247.572Z" fill="#E0E0E0"/>
<path d="M234.208 247.265C233.819 250.573 234.465 253.92 236.056 256.846C237.646 259.772 240.104 262.134 243.091 263.608C246.078 265.081 249.448 265.593 252.738 265.074C256.028 264.554 259.076 263.029 261.464 260.708C263.852 258.386 265.463 255.382 266.075 252.108C266.687 248.834 266.27 245.451 264.882 242.424C263.494 239.396 261.203 236.873 258.323 235.2C255.443 233.527 252.115 232.787 248.798 233.082C245.106 233.41 241.641 234.999 238.983 237.582C236.326 240.165 234.64 243.585 234.208 247.265Z" fill="#E0E0E0"/>
<path d="M234.111 248.839C234.08 250.957 234.467 253.06 235.249 255.028C236.031 256.997 237.193 258.792 238.669 260.311C240.144 261.83 241.905 263.044 243.85 263.882C245.794 264.721 247.885 265.169 250.003 265.2C252.121 265.23 254.224 264.844 256.192 264.062C258.16 263.28 259.955 262.118 261.474 260.642C262.993 259.166 264.207 257.406 265.046 255.461C265.885 253.516 266.332 251.425 266.363 249.308L234.111 248.839Z" fill="#E0E0E0"/>
<path d="M239.025 247.48C238.683 249.82 239.083 252.208 240.168 254.309C241.252 256.41 242.968 258.119 245.074 259.195C247.179 260.271 249.569 260.661 251.907 260.31C254.246 259.959 256.415 258.884 258.111 257.236C259.808 255.589 260.945 253.451 261.365 251.124C261.784 248.797 261.464 246.397 260.45 244.261C259.435 242.125 257.777 240.36 255.709 239.215C253.64 238.069 251.265 237.6 248.916 237.874C246.44 238.163 244.129 239.262 242.34 240.999C240.552 242.735 239.387 245.014 239.025 247.48Z" fill="#F5F5F5"/>
<path d="M250.39 237.805C248.904 237.782 247.428 238.053 246.047 238.601C244.665 239.15 243.406 239.965 242.34 241C241.273 242.036 240.422 243.271 239.833 244.636C239.245 246.001 238.931 247.468 238.91 248.955L261.54 249.277C261.562 247.792 261.29 246.317 260.741 244.936C260.192 243.556 259.377 242.297 258.342 241.231C257.306 240.166 256.071 239.315 254.707 238.727C253.343 238.139 251.876 237.826 250.39 237.805Z" fill="#F5F5F5"/>
<path d="M243.424 247.849C243.152 249.292 243.347 250.784 243.98 252.109C244.613 253.434 245.651 254.523 246.944 255.218C248.238 255.913 249.719 256.178 251.173 255.974C252.628 255.771 253.979 255.11 255.032 254.086C256.085 253.063 256.785 251.731 257.03 250.283C257.275 248.835 257.053 247.347 256.395 246.034C255.737 244.721 254.679 243.652 253.372 242.982C252.066 242.311 250.58 242.074 249.13 242.305C247.724 242.528 246.421 243.181 245.399 244.173C244.378 245.166 243.688 246.449 243.424 247.849Z" fill="#E0E0E0"/>
<path d="M523.975 304.282H522.655H518.769H503.825C490.856 304.282 472.08 304.198 448.882 303.99L367.392 303.061C336.722 302.677 303.003 302.293 267.61 302.224H254.41C250.056 302.186 245.687 302.37 241.356 301.825C232.74 300.834 224.608 297.908 217.075 294.33C209.542 290.752 202.484 286.543 195.474 282.596C191.987 280.615 188.516 278.688 185.038 276.868C181.559 275.048 178.073 273.351 174.571 271.8C171.07 270.249 167.553 268.851 164.005 267.691L162.684 267.238L161.348 266.831L158.699 266.063L156.042 265.372C155.159 265.142 154.275 264.904 153.385 264.727C146.518 263.182 139.512 262.333 132.475 262.193C132.045 262.193 131.622 262.193 131.2 262.193H129.933C129.088 262.193 128.251 262.193 127.414 262.27C125.755 262.431 124.097 262.531 122.484 262.831C119.298 263.317 116.154 264.044 113.077 265.004C107.303 266.849 101.708 269.214 96.3601 272.068C86.1009 277.482 77.3929 283.38 69.5756 288.248C61.7583 293.117 54.8779 297.133 48.9036 299.682C44.3615 301.758 39.5513 303.187 34.6129 303.929L32.3706 304.19L30.7427 304.251C29.8673 304.251 29.4219 304.251 29.4219 304.251L30.7427 304.175L32.3706 304.098L34.6052 303.821C39.5239 303.043 44.312 301.59 48.8345 299.506C54.7934 296.941 61.6739 292.948 69.4604 288.026C77.247 283.103 86.0011 277.26 96.2603 271.838C101.62 268.966 107.228 266.583 113.016 264.72C116.108 263.754 119.268 263.023 122.469 262.531C124.089 262.232 125.755 262.124 127.43 261.963C128.267 261.901 129.111 261.909 129.956 261.878H131.231C131.653 261.878 132.083 261.878 132.505 261.878C139.568 262.009 146.599 262.852 153.492 264.397C154.391 264.574 155.266 264.812 156.157 265.042L158.829 265.733L161.486 266.54L162.822 266.947L164.151 267.4C167.706 268.551 171.223 269.995 174.748 271.508C178.272 273.021 181.751 274.772 185.245 276.576C188.739 278.381 192.202 280.331 195.696 282.312C202.684 286.259 209.749 290.444 217.274 294.023C224.8 297.601 232.87 300.496 241.425 301.472C245.694 302.017 250.041 301.832 254.41 301.871H267.61C303.003 301.971 336.722 302.339 367.438 302.739L448.92 303.752C472.119 303.998 490.894 304.098 503.864 304.167L518.807 304.228H522.693L523.975 304.282Z" fill="#263238"/>
<path d="M541.751 300.519C517.708 288.509 493.143 267.192 467.656 252.141C441.018 236.43 408.873 228.498 378.172 232.237C357.792 234.725 338.825 243.756 320.81 253.616C302.795 263.476 285.141 274.334 265.697 280.961C246.254 287.588 230.573 288.64 204.557 283.134L189.613 279.11C189.613 279.11 220.544 300.565 242.814 301.948C263.44 303.222 557.002 304.643 557.002 304.643L541.751 300.519Z" fill="#455A64"/>
<g opacity="0.1">
<path d="M485.037 262.255C485.037 262.393 484.338 262.47 483.056 262.5C481.774 262.531 479.892 262.554 477.489 262.662C470.697 263.086 463.968 264.211 457.408 266.017C449.061 268.198 439.408 271.815 428.611 275.87C423.236 277.889 417.5 279.978 411.441 281.836C405.177 283.827 398.754 285.281 392.244 286.183C388.899 286.606 385.532 286.822 382.161 286.828L379.673 286.751L378.437 286.705L377.2 286.597L374.758 286.375L372.347 286.044C366.28 284.999 360.331 283.358 354.586 281.145C349.118 279.118 344.081 276.922 339.366 274.956C334.651 272.99 330.266 271.231 326.181 269.865C319.787 267.583 313.121 266.153 306.353 265.61C301.554 265.319 298.859 265.61 298.82 265.28C298.82 265.065 301.416 264.244 306.376 264.052C311.337 263.86 318.563 264.635 327.025 267.162C331.264 268.39 335.81 270.018 340.602 271.876C345.394 273.735 350.462 275.793 355.837 277.674C361.384 279.707 367.109 281.214 372.938 282.174L375.204 282.466L377.507 282.658L378.667 282.75L379.834 282.788L382.176 282.85C385.373 282.829 388.565 282.619 391.737 282.22C398.04 281.345 404.262 279.964 410.343 278.089C416.287 276.323 421.969 274.326 427.398 272.406C432.827 270.487 438.003 268.659 442.918 267.092C447.832 265.526 452.47 264.221 456.74 263.253C460.614 262.381 464.537 261.747 468.489 261.356L471.023 261.149L473.373 261.064H474.471H475.523L477.481 261.11C479.371 261.176 481.254 261.371 483.117 261.694C484.4 261.924 485.052 262.116 485.037 262.255Z" fill="white"/>
</g>
<g opacity="0.1">
<path d="M503.669 277.782C503.623 277.981 500.513 277.052 494.746 276.392C488.979 275.731 480.524 275.624 470.288 277.344C464.703 278.28 459.169 279.503 453.709 281.007C447.804 282.589 441.561 284.539 434.942 286.52C428.322 288.502 421.35 290.521 413.955 292.08C406.316 293.776 398.512 294.615 390.687 294.583C386.72 294.506 382.76 294.216 378.823 293.716C374.945 293.224 371.144 292.533 367.466 291.781C360.079 290.245 353.068 288.348 346.41 286.528C339.752 284.708 333.455 282.957 327.496 281.598C321.988 280.29 316.416 279.264 310.802 278.527C302.683 277.394 294.448 277.366 286.321 278.442C284.878 278.611 283.611 278.864 282.482 279.072L280.946 279.356L279.694 279.655C278.945 279.882 278.172 280.024 277.391 280.078C278.092 279.724 278.832 279.451 279.595 279.264L280.823 278.872L282.359 278.496C283.457 278.219 284.724 277.905 286.198 277.674C294.385 276.287 302.731 276.101 310.971 277.121C316.649 277.772 322.289 278.726 327.865 279.978C333.885 281.283 340.236 282.988 346.901 284.754C353.567 286.52 360.547 288.371 367.865 289.869C371.528 290.598 375.268 291.266 379.084 291.742C382.947 292.227 386.833 292.509 390.726 292.587C398.404 292.616 406.062 291.802 413.563 290.16C420.866 288.624 427.815 286.674 434.427 284.785C441.039 282.896 447.328 280.945 453.294 279.41C458.822 277.948 464.426 276.792 470.081 275.946C480.463 274.411 489.063 274.664 494.853 275.616L496.904 275.946L498.685 276.33L500.221 276.668C500.682 276.783 501.097 276.914 501.465 277.021C502.225 277.194 502.964 277.449 503.669 277.782Z" fill="white"/>
</g>
<g opacity="0.1">
<path d="M358.612 261.479C359.219 261.489 359.798 261.739 360.222 262.174C360.647 262.609 360.882 263.194 360.877 263.802C360.872 264.409 360.627 264.99 360.195 265.418C359.764 265.846 359.181 266.086 358.573 266.086C357.966 266.086 357.383 265.846 356.951 265.418C356.52 264.99 356.275 264.409 356.27 263.802C356.265 263.194 356.5 262.609 356.924 262.174C357.348 261.739 357.927 261.489 358.535 261.479" fill="white"/>
</g>
<path d="M367.354 237.121C367.247 237.19 366.102 235.486 364.367 233.666C362.631 231.846 361.011 230.594 361.08 230.502C363.725 232.108 365.892 234.394 367.354 237.121Z" fill="#263238"/>
<path d="M366.67 226.678C366.793 226.678 366.862 228.713 367.576 231.101C368.29 233.489 369.319 235.247 369.211 235.309C367.394 232.811 366.496 229.762 366.67 226.678Z" fill="#263238"/>
<path d="M372.944 222.838C373.024 223.452 373.05 224.071 373.021 224.689C373.021 225.825 373.09 227.4 373.213 229.127C373.336 230.855 373.528 232.429 373.674 233.558C373.795 234.165 373.859 234.782 373.866 235.401C373.636 234.824 373.478 234.22 373.397 233.604C373.117 232.135 372.922 230.65 372.814 229.158C372.706 227.668 372.683 226.174 372.744 224.681C372.732 224.061 372.799 223.441 372.944 222.838Z" fill="#263238"/>
<path d="M467.701 291.804C466.839 290.816 466.08 289.743 465.435 288.601C464.686 287.528 464.043 286.383 463.516 285.184C465.129 287.245 466.531 289.462 467.701 291.804Z" fill="#263238"/>
<path d="M472.563 291.151C472.088 291.013 471.647 290.781 471.265 290.467C470.283 289.792 469.417 288.962 468.7 288.01C467.982 287.061 467.42 286.003 467.034 284.877C466.843 284.422 466.741 283.935 466.734 283.441C467.325 284.972 468.099 286.426 469.038 287.772C470.075 289.034 471.259 290.168 472.563 291.151Z" fill="#263238"/>
<path d="M481.636 293.209C481.025 293.135 480.429 292.967 479.87 292.71C478.483 292.164 477.188 291.407 476.031 290.467C474.873 289.532 473.861 288.43 473.028 287.196C472.667 286.699 472.382 286.15 472.184 285.568C472.299 285.484 473.596 288.018 476.269 290.176C477.92 291.414 479.724 292.433 481.636 293.209Z" fill="#263238"/>
<path d="M352.719 257.678C352.634 257.593 353.955 256.142 355.299 254.115C356.643 252.088 357.487 250.314 357.603 250.36C356.636 253.179 354.957 255.701 352.726 257.678H352.719Z" fill="#263238"/>
<path d="M348.875 255.228C349.661 254.271 350.549 253.403 351.524 252.641C352.416 251.775 353.393 251.003 354.442 250.337C353.656 251.295 352.768 252.166 351.793 252.932C350.903 253.797 349.925 254.567 348.875 255.228Z" fill="#263238"/>
<path d="M340.867 255.935C341.406 255.618 341.968 255.344 342.549 255.113C343.903 254.483 345.221 253.778 346.496 253.001C347.77 252.217 348.998 251.361 350.174 250.437C350.639 250.02 351.141 249.645 351.672 249.315C351.294 249.818 350.852 250.27 350.358 250.659C349.219 251.652 347.999 252.548 346.711 253.339C345.421 254.134 344.064 254.815 342.656 255.374C342.087 255.639 341.486 255.827 340.867 255.935Z" fill="#263238"/>
<path d="M241.281 282.819C241.459 283.021 241.614 283.243 241.742 283.48C242.018 283.91 242.387 284.562 242.824 285.369C243.942 287.496 244.887 289.709 245.65 291.988C246.404 294.27 246.969 296.609 247.34 298.984C247.478 299.89 247.562 300.627 247.601 301.141C247.637 301.396 247.637 301.655 247.601 301.909C247.539 301.909 247.378 300.788 247.033 298.991C246.159 294.298 244.651 289.746 242.548 285.461C241.772 283.848 241.227 282.85 241.281 282.819Z" fill="#263238"/>
<path d="M237.927 292.38C238.489 292.588 239.009 292.895 239.463 293.286C240.603 294.165 241.617 295.199 242.473 296.357C243.357 297.503 244.016 298.806 244.416 300.197C244.611 300.767 244.661 301.376 244.562 301.971C244.493 301.971 244.485 301.287 244.147 300.274C243.678 298.955 243.004 297.719 242.15 296.611C241.311 295.485 240.35 294.455 239.286 293.539C238.465 292.802 237.896 292.441 237.927 292.38Z" fill="#263238"/>
<path d="M253.167 290.268C253.305 290.314 252.307 292.871 251.439 296.112C251.072 297.494 250.815 298.904 250.672 300.327C250.66 300.924 250.608 301.519 250.518 302.109C250.381 301.52 250.339 300.914 250.395 300.312C250.444 298.859 250.66 297.416 251.04 296.012C251.407 294.613 251.861 293.238 252.399 291.896C252.592 291.326 252.85 290.779 253.167 290.268Z" fill="#263238"/>
<path d="M65.8438 333.378C65.5245 332.694 65.2476 331.992 65.0145 331.274C64.3741 329.574 63.641 327.91 62.8183 326.29C61.9945 324.673 61.0845 323.102 60.0922 321.583C59.6483 320.969 59.2431 320.328 58.8789 319.663C59.4225 320.195 59.9066 320.785 60.3226 321.422C61.3953 322.909 62.3504 324.478 63.1792 326.114C64.0081 327.747 64.7115 329.441 65.2832 331.182C65.5515 331.891 65.7395 332.627 65.8438 333.378Z" fill="#263238"/>
<path d="M62.604 315.524C62.604 315.524 62.8036 315.67 63.1031 315.985C63.5273 316.432 63.9272 316.901 64.301 317.39C66.8008 320.616 68.5197 324.377 69.3231 328.379C69.469 329.147 69.5612 329.769 69.5996 330.207C69.6298 330.431 69.6298 330.658 69.5996 330.882C69.5305 330.882 69.3846 329.945 69.0236 328.44C68.0767 324.526 66.3875 320.829 64.0476 317.551C63.1799 316.3 62.5579 315.609 62.604 315.524Z" fill="#263238"/>
<path d="M74.4916 320.078C74.6145 320.124 73.7237 322.435 73.4549 325.453C73.1862 328.471 73.4549 330.89 73.3551 330.905C73.1673 330.396 73.0636 329.859 73.048 329.316C72.7948 326.712 73.0717 324.084 73.8619 321.591C73.9908 321.056 74.2033 320.546 74.4916 320.078Z" fill="#263238"/>
<path d="M502.832 338.646C502.505 337.966 502.227 337.262 502.003 336.542C501.356 334.844 500.623 333.181 499.807 331.558C498.98 329.943 498.07 328.372 497.08 326.851C496.63 326.241 496.224 325.6 495.867 324.931C496.411 325.463 496.895 326.053 497.311 326.69C498.382 328.174 499.335 329.74 500.16 331.374C500.991 333.006 501.694 334.701 502.264 336.442C502.531 337.154 502.722 337.893 502.832 338.646Z" fill="#263238"/>
<path d="M499.585 320.807C499.585 320.807 499.777 320.953 500.077 321.268C500.503 321.71 500.903 322.176 501.275 322.666C503.776 325.894 505.495 329.658 506.297 333.662C506.425 334.265 506.517 334.876 506.573 335.49C506.613 335.713 506.613 335.942 506.573 336.165C506.512 336.165 506.366 335.221 505.997 333.724C505.523 331.773 504.867 329.87 504.039 328.041C503.197 326.217 502.19 324.474 501.029 322.835C500.154 321.583 499.532 320.846 499.585 320.807Z" fill="#263238"/>
<path d="M511.482 325.361C511.605 325.399 510.714 327.719 510.453 330.736C510.192 333.754 510.453 336.173 510.346 336.188C510.164 335.677 510.06 335.141 510.039 334.599C509.904 333.302 509.904 331.995 510.039 330.698C510.165 329.396 510.422 328.109 510.806 326.858C510.954 326.328 511.182 325.823 511.482 325.361Z" fill="#263238"/>
<path d="M104.909 267.684C104.059 264.903 102.443 262.418 100.247 260.513C98.0503 258.608 95.3617 257.36 92.489 256.913C89.6162 256.465 86.6753 256.835 84.0031 257.98C81.3309 259.126 79.0354 261.001 77.3794 263.391C73.6655 260.429 69.1747 258.603 64.4474 258.133C59.7201 257.663 54.9576 258.569 50.7331 260.742C46.5838 263.055 43.1914 266.518 40.9639 270.714C38.7365 274.91 37.769 279.66 38.1779 284.393C29.5159 282.819 20.3548 290.229 20.0938 299.03V304.305C20.0938 304.305 37.5482 307.231 55.6554 296.373C73.7626 285.514 104.909 267.684 104.909 267.684Z" fill="#455A64"/>
<path d="M78.7836 240.354C77.5838 241.203 76.5671 242.284 75.794 243.534C75.0209 244.783 74.5073 246.176 74.2837 247.629C74.0601 249.081 74.1312 250.564 74.4927 251.988C74.8542 253.412 75.4987 254.749 76.3878 255.919C81.502 251.98 82.3544 244.647 78.7836 240.354Z" fill="#455A64"/>
<path d="M65.3139 243.979C65.1431 244.919 65.1633 245.884 65.3733 246.816C65.5833 247.748 65.9788 248.628 66.5364 249.404C67.0939 250.181 67.8019 250.836 68.6183 251.333C69.4347 251.83 70.3427 252.157 71.2882 252.295C71.8718 248.141 68.9308 244.339 65.3139 243.979Z" fill="#455A64"/>
<path d="M125.359 299.705C125.268 295.18 123.503 290.85 120.406 287.549C120.959 287.926 121.45 288.384 121.865 288.909C123.986 291.374 125.245 294.463 125.451 297.709C125.525 298.375 125.494 299.049 125.359 299.705Z" fill="#263238"/>
<path d="M128.842 280.684C128.903 280.684 128.704 281.721 128.489 283.38C128.213 285.546 128.102 287.731 128.159 289.915C128.222 292.097 128.453 294.272 128.85 296.419C129.149 298.07 129.41 299.076 129.341 299.099C129.225 298.88 129.138 298.648 129.08 298.408C128.934 297.962 128.757 297.302 128.565 296.472C127.621 292.161 127.512 287.709 128.243 283.357C128.381 282.527 128.527 281.821 128.65 281.399C128.676 281.152 128.741 280.911 128.842 280.684Z" fill="#263238"/>
<path d="M135.964 287.619C136.01 287.672 135.434 288.148 134.812 289.154C134.016 290.459 133.513 291.921 133.337 293.439C133.172 294.97 133.154 296.513 133.284 298.047C133.363 298.686 133.381 299.331 133.337 299.974C133.158 299.353 133.044 298.715 133 298.07C132.789 296.519 132.768 294.949 132.938 293.393C133.115 291.817 133.677 290.309 134.574 289.001C134.853 288.612 135.172 288.255 135.526 287.933C135.787 287.703 135.925 287.603 135.964 287.619Z" fill="#263238"/>
<path d="M290.644 343.476C290.542 338.949 288.77 334.619 285.668 331.32C286.224 331.692 286.717 332.151 287.127 332.679C289.257 335.141 290.518 338.237 290.713 341.487C290.8 342.149 290.776 342.821 290.644 343.476Z" fill="#263238"/>
<path d="M294.112 324.455C294.173 324.455 293.973 325.492 293.758 327.158C293.483 329.322 293.372 331.504 293.428 333.685C293.489 335.865 293.717 338.037 294.112 340.182C294.411 341.833 294.672 342.846 294.611 342.862C294.487 342.649 294.396 342.418 294.342 342.178C294.196 341.725 294.019 341.065 293.835 340.243C292.882 335.933 292.767 331.48 293.497 327.127C293.635 326.298 293.781 325.591 293.904 325.169C293.935 324.922 294.005 324.68 294.112 324.455Z" fill="#263238"/>
<path d="M301.245 331.397C301.291 331.451 300.723 331.927 300.093 332.933C299.295 334.236 298.792 335.699 298.619 337.218C298.453 338.748 298.435 340.291 298.565 341.825C298.644 342.464 298.665 343.109 298.626 343.752C298.434 343.134 298.318 342.494 298.281 341.848C298.07 340.297 298.049 338.727 298.219 337.171C298.403 335.597 298.964 334.09 299.855 332.779C300.132 332.389 300.454 332.033 300.815 331.719C301.068 331.474 301.23 331.374 301.245 331.397Z" fill="#263238"/>
<path d="M178.228 341.287C184.521 341.287 189.623 340.112 189.623 338.661C189.623 337.211 184.521 336.035 178.228 336.035C171.934 336.035 166.832 337.211 166.832 338.661C166.832 340.112 171.934 341.287 178.228 341.287Z" fill="#263238"/>
<path d="M167.532 327.173C167.903 327.582 168.215 328.039 168.461 328.532C169.135 329.673 169.75 330.847 170.304 332.05C170.949 333.462 171.456 334.776 171.786 335.735C171.997 336.248 172.141 336.784 172.216 337.333C172.101 337.333 171.234 335.029 169.913 332.218C168.592 329.408 167.409 327.227 167.532 327.173Z" fill="#263238"/>
<path d="M173.074 318.435C173.169 318.662 173.229 318.903 173.251 319.149C173.335 319.609 173.443 320.285 173.566 321.115C173.796 322.781 174.065 325.092 174.257 327.657C174.449 330.222 174.533 332.541 174.549 334.223C174.549 335.067 174.549 335.758 174.549 336.219C174.562 336.477 174.541 336.735 174.487 336.987C174.356 336.087 174.287 335.179 174.28 334.269C174.195 332.595 174.065 330.276 173.873 327.726C173.681 325.177 173.466 322.858 173.297 321.191C173.166 320.278 173.091 319.357 173.074 318.435Z" fill="#263238"/>
<path d="M178.566 329.055C178.303 330.3 177.975 331.53 177.583 332.741C177.053 334.776 176.761 336.457 176.646 336.442C176.625 335.153 176.812 333.87 177.199 332.641C177.464 331.381 177.925 330.171 178.566 329.055Z" fill="#263238"/>
<path d="M192.832 329.469C192.932 329.538 191.711 331.351 190.528 333.762C189.346 336.173 188.67 338.247 188.555 338.216C188.852 336.606 189.396 335.052 190.167 333.608C190.83 332.096 191.729 330.698 192.832 329.469Z" fill="#263238"/>
<path d="M188.329 328.863C188.444 328.901 187.845 330.875 187.561 333.386C187.277 335.897 187.369 337.993 187.246 337.993C186.951 336.474 186.925 334.914 187.17 333.386C187.278 331.82 187.671 330.287 188.329 328.863Z" fill="#263238"/>
<path d="M173.434 340.612C173.319 340.612 173.234 340.066 173.234 339.391C173.234 338.715 173.319 338.162 173.434 338.162C173.549 338.162 173.634 338.715 173.634 339.391C173.634 340.066 173.549 340.612 173.434 340.612Z" fill="#455A64"/>
<path d="M174.735 341.118C174.469 340.01 174.469 338.855 174.735 337.747C175.001 338.855 175.001 340.01 174.735 341.118Z" fill="#455A64"/>
<path d="M183.036 340.834C182.928 340.834 182.836 340.32 182.836 339.675C182.836 339.03 182.928 338.515 183.036 338.515C183.143 338.515 183.235 339.037 183.235 339.675C183.235 340.312 183.151 340.834 183.036 340.834Z" fill="#455A64"/>
<path d="M158.51 111.838C158.513 111.164 158.331 110.502 157.982 109.925C157.633 109.348 157.132 108.879 156.533 108.57C155.934 108.26 155.262 108.122 154.59 108.171C153.917 108.22 153.272 108.453 152.724 108.846C152.176 109.239 151.748 109.776 151.486 110.397C151.224 111.018 151.139 111.699 151.241 112.366C151.342 113.032 151.625 113.657 152.06 114.173C152.494 114.688 153.063 115.073 153.703 115.285V341.257H156.006V115.285C156.733 115.047 157.366 114.585 157.815 113.966C158.265 113.347 158.508 112.602 158.51 111.838Z" fill="#455A64"/>
<path d="M158.504 111.838V112.114C158.484 112.401 158.43 112.685 158.343 112.959C158.168 113.504 157.869 114 157.469 114.409C157.069 114.818 156.579 115.129 156.039 115.316V115.278C156.039 136.242 156.123 228.928 156.2 341.249V341.449H153.497V336.68C153.559 235.217 153.612 148.643 153.628 115.278L153.674 115.347C153.11 115.16 152.601 114.84 152.187 114.414C151.773 113.988 151.468 113.469 151.297 112.901C151.126 112.332 151.095 111.731 151.205 111.148C151.315 110.564 151.564 110.016 151.931 109.549C152.35 109.013 152.911 108.604 153.549 108.366C154.188 108.129 154.879 108.074 155.547 108.206C156.215 108.338 156.834 108.652 157.334 109.114C157.834 109.577 158.197 110.168 158.381 110.824C158.448 111.075 158.489 111.332 158.504 111.592V111.845C158.481 111.508 158.427 111.174 158.343 110.847C158.096 110 157.548 109.273 156.803 108.801C156.058 108.328 155.167 108.144 154.296 108.282C153.5 108.405 152.769 108.792 152.22 109.382C151.671 109.971 151.336 110.728 151.27 111.53C151.203 112.333 151.409 113.134 151.853 113.806C152.298 114.477 152.955 114.979 153.72 115.232H153.774V115.278C153.774 148.643 153.843 235.217 153.896 336.68V341.249L153.697 341.049H156L155.801 341.249C155.885 228.905 155.947 136.219 155.962 115.278C156.498 115.099 156.986 114.797 157.385 114.397C157.785 113.998 158.087 113.51 158.266 112.974C158.396 112.608 158.476 112.225 158.504 111.838Z" fill="#263238"/>
<path d="M194.983 142.224C189.769 142.991 185.945 138.645 184.724 134.744C183.595 131.143 183.066 127.403 181.484 123.993C179.272 119.202 173.421 116.99 168.16 117.436C163.029 117.938 158.059 119.507 153.57 122.043V152.291C153.57 152.291 164.398 141.049 169.259 140.849C177.375 140.526 176.938 153.903 184.816 155.831C184.816 155.831 195.859 158.826 203.331 149.181C206.248 145.212 208.032 140.524 208.491 135.62C208.491 135.62 204.836 140.703 194.983 142.224Z" fill="#FF725E"/>
<g opacity="0.2">
<path d="M181.488 133.539C182.371 136.584 183.663 139.495 185.328 142.193C186.037 143.398 186.978 144.451 188.095 145.292C189.213 146.133 190.485 146.744 191.84 147.092C192.34 147.161 192.83 147.29 193.299 147.476C193.534 147.57 193.74 147.726 193.894 147.927C194.048 148.129 194.145 148.368 194.174 148.62C194.174 149.388 193.406 149.864 192.738 150.202C191.794 150.72 190.784 151.108 189.736 151.354C188.684 151.554 187.854 151.661 187.132 150.87C186.429 150.18 185.796 149.421 185.243 148.605C182.863 144.55 181.68 138.745 181.488 134.161" fill="black"/>
</g>
<path d="M188.548 152.045C188.464 152.012 188.384 151.968 188.31 151.915C188.164 151.815 187.949 151.661 187.688 151.454C186.957 150.847 186.312 150.144 185.768 149.365C184.96 148.209 184.311 146.948 183.841 145.618C183.259 143.999 182.782 142.345 182.413 140.665C181.708 137.624 181.264 134.528 181.084 131.411C181.015 130.221 181.007 129.254 181.007 128.586C181.007 128.271 181.007 128.017 181.007 127.818C180.998 127.728 180.998 127.638 181.007 127.549C181.02 127.638 181.02 127.729 181.007 127.818C181.007 128.025 181.007 128.278 181.007 128.586C181.007 129.254 181.076 130.221 181.169 131.411C181.399 134.514 181.866 137.595 182.566 140.626C182.936 142.293 183.403 143.936 183.964 145.549C184.418 146.864 185.04 148.116 185.814 149.273C186.34 150.052 186.959 150.764 187.657 151.392C188.256 151.815 188.556 152.045 188.548 152.045Z" fill="#263238"/>
<path d="M151.013 341.863C150.898 341.902 150.184 339.782 148.71 337.509C147.235 335.236 145.584 333.716 145.638 333.67C146.069 333.906 146.454 334.218 146.775 334.591C147.618 335.42 148.367 336.34 149.009 337.333C149.657 338.321 150.195 339.377 150.614 340.481C150.822 340.917 150.957 341.384 151.013 341.863Z" fill="#263238"/>
<path d="M159.617 329.193C159.59 329.841 159.508 330.486 159.371 331.12C159.187 332.303 158.949 333.931 158.757 335.728C158.565 337.525 158.458 339.191 158.388 340.381C158.393 341.03 158.337 341.678 158.219 342.316C158.112 341.675 158.073 341.023 158.104 340.374C158.109 338.809 158.194 337.245 158.358 335.689C158.529 334.141 158.786 332.603 159.126 331.082C159.21 330.434 159.375 329.8 159.617 329.193Z" fill="#263238"/>
<path d="M164.183 332.111C164.283 332.172 163.215 333.915 162.155 336.188C161.096 338.461 160.42 340.389 160.312 340.351C160.975 337.356 162.285 334.544 164.152 332.111H164.183Z" fill="#263238"/>
<path d="M519.564 56.0109C519.564 56.0109 519.157 55.9034 518.435 55.7575C517.423 55.5577 516.385 55.5291 515.364 55.6731C513.838 55.8854 512.4 56.5152 511.209 57.493C509.751 58.6855 508.724 60.3226 508.284 62.1542V62.2079L508.107 62.8914L507.838 62.2386C507.126 60.5022 505.906 59.0219 504.337 57.9921C503.053 57.1487 501.576 56.6465 500.044 56.5331C498.621 56.4602 497.195 56.6422 495.836 57.0707C496.163 56.8561 496.524 56.6978 496.903 56.6022C497.923 56.2833 498.992 56.1481 500.059 56.2029C501.64 56.2852 503.173 56.7774 504.506 57.6312C506.17 58.6934 507.465 60.2435 508.215 62.0697H507.769V62.016C508.234 60.0855 509.328 58.3646 510.879 57.1244C511.932 56.2935 513.163 55.7187 514.475 55.4455C515.788 55.1723 517.147 55.2081 518.443 55.5502C518.842 55.6343 519.222 55.7904 519.564 56.0109Z" fill="#263238"/>
<path d="M466.733 65.7403C466.733 65.794 466.165 65.5944 465.144 65.387C463.712 65.1026 462.242 65.0662 460.798 65.2795C458.66 65.5732 456.645 66.453 454.977 67.8213C452.935 69.4951 451.495 71.7895 450.876 74.3562V74.4253L450.623 75.3928L450.239 74.4867C449.239 72.0501 447.526 69.9729 445.324 68.5278C443.524 67.3524 441.456 66.6499 439.312 66.4852C437.316 66.3904 435.319 66.6504 433.414 67.2531C433.889 66.9575 434.407 66.7373 434.95 66.6003C436.379 66.1529 437.877 65.9656 439.373 66.0474C441.616 66.1476 443.793 66.8362 445.685 68.044C448.016 69.5304 449.832 71.6999 450.884 74.2563L450.262 74.3101V74.2333C450.901 71.5223 452.425 69.1013 454.593 67.3529C456.361 65.9461 458.49 65.0677 460.736 64.8188C462.233 64.6394 463.75 64.7489 465.205 65.1413C465.743 65.2597 466.259 65.4618 466.733 65.7403Z" fill="#263238"/>
<path d="M71.9332 30.3169C71.9332 30.3706 71.3649 30.171 70.3513 29.9636C68.9293 29.6843 67.4705 29.6453 66.0357 29.8484C63.9008 30.1488 61.8897 31.0308 60.2226 32.3979C58.1551 34.0612 56.6903 36.3569 56.0529 38.9327V39.0019L55.8072 39.9694L55.4309 39.0479C54.43 36.6142 52.7169 34.5397 50.5163 33.0967C48.7262 31.9229 46.6686 31.2203 44.5344 31.054C42.5409 30.9532 40.5455 31.2134 38.6445 31.822C39.1153 31.518 39.6348 31.2972 40.1803 31.1692C41.587 30.7246 43.0605 30.5297 44.5344 30.5933C46.7772 30.6935 48.9541 31.382 50.8465 32.5899C53.1833 34.0751 55.0022 36.2482 56.0529 38.8099L55.4309 38.856V38.7792C56.0822 36.0762 57.6139 33.6665 59.7849 31.9295C61.551 30.5194 63.6816 29.6405 65.9282 29.3954C67.4223 29.2162 68.9369 29.3257 70.3897 29.7179C70.9346 29.8281 71.4566 30.0307 71.9332 30.3169Z" fill="#263238"/>
<path d="M91.7676 47.7022C91.7676 47.7022 91.5142 47.9863 91.0612 48.4701C90.4194 49.1863 89.8412 49.9571 89.3334 50.7738C87.6315 53.5104 86.742 56.6741 86.7686 59.8965V60.0117H86.5075C86.2449 58.2919 85.6836 56.6312 84.8488 55.1048C83.702 53.0105 82.0888 51.208 80.1339 49.837C79.5733 49.453 79.2508 49.2534 79.2661 49.238C79.3528 49.2653 79.4355 49.304 79.5119 49.3532C79.6655 49.4453 79.9112 49.5605 80.1953 49.7525C81.0085 50.2739 81.7652 50.8787 82.4529 51.5571C84.7711 53.829 86.2861 56.7942 86.7686 60.004H86.4998V59.8965C86.4679 56.6304 87.3943 53.4267 89.1644 50.6817C89.6918 49.8564 90.2988 49.0848 90.9767 48.378C91.2071 48.1246 91.4144 47.9479 91.5449 47.8251C91.6755 47.7022 91.76 47.6945 91.7676 47.7022Z" fill="#263238"/>
<path d="M490.689 38.5104C490.689 38.5104 490.435 38.7945 489.982 39.2783C489.346 39.9994 488.769 40.7697 488.254 41.582C486.553 44.311 485.658 47.4658 485.674 50.6817V50.7969H485.406C484.918 47.6518 483.454 44.7396 481.22 42.4728C480.549 41.8161 479.819 41.2223 479.04 40.6989C478.479 40.3073 478.157 40.1153 478.164 40.0923C478.253 40.1239 478.338 40.1651 478.418 40.2152C478.571 40.3073 478.809 40.4225 479.093 40.6145C479.926 41.1281 480.699 41.7334 481.397 42.419C482.425 43.4298 483.301 44.5832 484 45.8439C484.866 47.3907 485.444 49.082 485.705 50.8353H485.444V50.6817C485.423 47.4304 486.352 44.2437 488.116 41.5129C488.641 40.6881 489.246 39.9165 489.921 39.2092C490.151 38.9558 490.359 38.7792 490.489 38.6563C490.62 38.5334 490.689 38.5027 490.689 38.5104Z" fill="#263238"/>
<path d="M238.588 43.0641C245.967 43.0641 251.95 37.0819 251.95 29.7025C251.95 22.3232 245.967 16.341 238.588 16.341C231.209 16.341 225.227 22.3232 225.227 29.7025C225.227 37.0819 231.209 43.0641 238.588 43.0641Z" fill="#FF725E"/>
<path d="M238.588 43.0718C236.831 43.0738 235.091 42.7294 233.468 42.0584C231.845 41.3873 230.37 40.4027 229.127 39.161C227.885 37.9192 226.899 36.4447 226.227 34.8217C225.555 33.1987 225.21 31.4592 225.211 29.7026C225.212 27.7212 225.653 25.7648 226.502 23.9747C227.352 22.1846 228.588 20.6055 230.122 19.3516C231.656 18.0977 233.45 17.2003 235.373 16.7241C237.297 16.248 239.302 16.2051 241.244 16.5984C243.186 16.9918 245.016 17.8117 246.602 18.9988C248.189 20.1859 249.492 21.7106 250.417 23.4626C251.342 25.2147 251.866 27.1505 251.952 29.13C252.038 31.1095 251.683 33.0834 250.913 34.9089C249.892 37.3332 248.177 39.4015 245.985 40.8539C243.792 42.3064 241.218 43.078 238.588 43.0718Z" fill="#FFC400"/>
<path d="M236.687 59.574C236.549 57.7422 236.502 55.9046 236.549 54.0682C236.502 52.2291 236.548 50.389 236.687 48.5546C236.825 50.389 236.871 52.2291 236.825 54.0682C236.871 55.9046 236.825 57.7422 236.687 59.574Z" fill="#FFC400"/>
<path d="M236.689 59.5894C236.689 59.5894 236.62 59.5894 236.574 57.9614C236.574 56.9248 236.535 55.5425 236.535 54.0682C236.535 52.5938 236.535 51.2116 236.574 50.1672C236.62 48.5392 236.666 48.5392 236.689 48.5392C236.712 48.5392 236.758 48.5392 236.804 50.1672C236.804 51.2116 236.842 52.5938 236.842 54.0682C236.842 55.5425 236.842 56.9248 236.804 57.9614C236.758 59.5894 236.712 59.5894 236.689 59.5894ZM236.689 48.5776C236.627 48.785 236.558 50.8814 236.558 54.0682C236.558 57.255 236.627 59.3513 236.689 59.551C236.75 59.3513 236.812 57.2473 236.812 54.0682C236.812 50.889 236.75 48.785 236.689 48.5776Z" fill="#FFC400"/>
<path d="M228.988 45.4446C229.057 45.4446 227.797 47.7483 226.185 50.5895C224.572 53.4308 223.198 55.627 223.113 55.5886C223.961 53.8302 224.896 52.1157 225.916 50.4513C227.559 47.6485 228.926 45.4062 228.988 45.4446Z" fill="#FFC400"/>
<path d="M223.137 55.604C223.137 55.604 223.075 55.604 223.904 54.0682C224.434 53.1006 225.164 51.8182 225.939 50.4667C226.715 49.1152 227.475 47.8405 228.051 46.8959C228.865 45.5675 228.973 45.4523 229.003 45.4523C229.003 45.4523 229.065 45.4523 228.235 46.9881C227.706 47.9633 226.984 49.238 226.201 50.5972C224.818 53.0008 223.275 55.5733 223.129 55.604H223.137ZM228.98 45.4676C228.811 45.6289 227.644 47.5179 225.955 50.459C224.265 53.4001 223.206 55.3429 223.144 55.5656C223.313 55.412 224.473 53.5153 226.17 50.5819C227.867 47.6485 228.919 45.6903 228.98 45.4676Z" fill="#FFC400"/>
<path d="M221.08 40.53C220.102 41.4846 219.06 42.3722 217.962 43.1869C216.919 44.0724 215.819 44.8881 214.668 45.6289C215.644 44.6815 216.686 43.804 217.786 43.0026C218.827 42.1048 219.927 41.2787 221.08 40.53Z" fill="#FFC400"/>
<path d="M214.668 45.6442C214.668 45.6442 214.622 45.5905 215.551 44.7995C216.135 44.3004 216.934 43.6477 217.794 42.9642C218.843 42.0836 219.943 41.2656 221.088 40.5146C220.103 41.4644 219.059 42.3518 217.963 43.1716C217.103 43.855 216.289 44.4847 215.659 44.9454C215.36 45.2197 215.027 45.4545 214.668 45.6442ZM221.065 40.5377C219.929 41.2977 218.837 42.1206 217.794 43.0026C216.709 43.8225 215.671 44.7018 214.684 45.6365C215.818 44.8861 216.91 44.0734 217.955 43.2023C219.043 42.3759 220.082 41.4861 221.065 40.5377Z" fill="#FFC400"/>
<path d="M250.015 54.1449C249.858 53.7057 249.74 53.2534 249.662 52.7934C249.47 51.9487 249.194 50.7892 248.856 49.5221C248.518 48.2551 248.165 47.1109 247.911 46.2893C247.748 45.8503 247.622 45.3981 247.535 44.9377C247.774 45.3413 247.965 45.7718 248.103 46.2201C248.403 47.0341 248.787 48.1706 249.125 49.4453C249.463 50.7201 249.716 51.895 249.854 52.755C249.962 53.2105 250.016 53.6769 250.015 54.1449Z" fill="#FFC400"/>
<path d="M250.017 54.1603C249.97 54.1603 249.917 53.953 249.648 52.7935C249.471 52.0255 249.195 50.8199 248.842 49.5222C248.488 48.2244 248.135 47.0418 247.897 46.2893C247.559 45.1912 247.49 44.9531 247.536 44.9378C247.582 44.9224 247.536 44.9378 247.728 45.2833C247.836 45.5214 247.974 45.8593 248.112 46.2355C248.319 46.7884 248.734 47.9403 249.141 49.4607C249.548 50.9812 249.771 52.1868 249.871 52.7627C249.97 53.2248 250.024 53.6954 250.032 54.168L250.017 54.1603ZM247.544 44.9455C247.544 45.0376 247.713 45.5828 247.92 46.2509C248.151 47.0188 248.504 48.163 248.865 49.4838C249.226 50.8046 249.487 51.9718 249.671 52.7551C249.855 53.5383 249.955 54.0067 250.001 54.0912C249.987 53.6318 249.933 53.1745 249.84 52.7243C249.74 52.1407 249.517 50.9428 249.11 49.4224C248.703 47.9019 248.289 46.75 248.081 46.1972C247.936 45.7712 247.756 45.3577 247.544 44.9608V44.9455Z" fill="#FFC400"/>
<path d="M263.573 44.5385C262.196 43.524 260.876 42.4345 259.618 41.2749C258.303 40.1826 257.047 39.0215 255.855 37.7963C257.233 38.8107 258.553 39.9002 259.81 41.0599C261.125 42.1521 262.381 43.3133 263.573 44.5385Z" fill="#FFC400"/>
<path d="M263.565 44.5385C262.193 43.5152 260.873 42.4234 259.611 41.2672C258.582 40.3687 257.622 39.5087 256.915 38.856C255.802 37.827 255.833 37.7886 255.848 37.7732C257.22 38.7965 258.54 39.8883 259.803 41.0445C260.832 41.9429 261.792 42.803 262.498 43.4557C263.611 44.4847 263.581 44.5231 263.565 44.5385ZM255.886 37.7963C255.979 37.9652 257.422 39.3321 259.641 41.2441C261.861 43.1562 263.396 44.4386 263.55 44.5385C263.458 44.3695 262.014 43.041 259.795 41.0906C257.576 39.1401 256.055 37.8807 255.879 37.8039L255.886 37.7963Z" fill="#FFC400"/>
<path d="M268.769 31.3151C268.227 31.2753 267.688 31.1983 267.157 31.0848C266.166 30.9158 264.799 30.7085 263.279 30.5319C261.758 30.3552 260.376 30.2554 259.378 30.194C258.832 30.1877 258.288 30.1389 257.75 30.0481C258.292 29.9801 258.84 29.9621 259.386 29.9943C260.697 30.0138 262.007 30.1009 263.31 30.2554C264.615 30.399 265.912 30.6092 267.195 30.8851C267.734 30.9726 268.261 31.1167 268.769 31.3151Z" fill="#FFC400"/>
<path d="M268.715 31.3382C268.593 31.3382 268.27 31.2844 267.464 31.1462L267.149 31.1001C265.79 30.8697 264.484 30.6854 263.271 30.5472C262.058 30.409 260.745 30.2938 259.37 30.2017H259.047C257.949 30.1325 257.734 30.1095 257.734 30.0634C258.279 29.9892 258.829 29.9686 259.378 30.002C260.689 30.0233 261.999 30.1104 263.302 30.2631C264.607 30.4084 265.904 30.6211 267.187 30.9005C267.728 30.9889 268.258 31.133 268.769 31.3305C268.769 31.3305 268.769 31.3382 268.715 31.3382ZM257.773 30.0558C257.865 30.0558 258.372 30.1172 259.047 30.1556H259.37C260.745 30.2401 262.058 30.3552 263.271 30.4935C264.484 30.6317 265.797 30.8237 267.149 31.0464L267.464 31.1001C268.109 31.2076 268.593 31.2844 268.723 31.2844C268.221 31.1153 267.708 30.9794 267.187 30.8774C266.512 30.7315 265.106 30.4474 263.309 30.2401C261.512 30.0327 260.076 29.9943 259.385 29.9866C258.847 29.9682 258.308 29.9913 257.773 30.0558Z" fill="#FFC400"/>
<path d="M268.77 18.3222C268.77 18.3913 265.899 19.1669 262.312 20.0346C258.726 20.9024 255.801 21.5704 255.785 21.486C255.77 21.4015 258.657 20.6413 262.243 19.7659C265.829 18.8905 268.77 18.2454 268.77 18.3222Z" fill="#FFC400"/>
<path d="M255.816 21.5013C255.777 21.5013 255.777 21.5013 255.777 21.5013C255.777 21.5013 255.777 21.4322 257.666 20.9254C258.887 20.6029 260.515 20.1575 262.274 19.7659C264.032 19.3742 265.637 18.998 266.881 18.6908C268.809 18.2608 268.816 18.3069 268.824 18.3299C268.824 18.3299 268.824 18.399 266.935 18.9058C265.714 19.2283 264.086 19.6737 262.328 20.0654C260.569 20.457 258.956 20.8717 257.72 21.1481C257.093 21.3024 256.457 21.4204 255.816 21.5013ZM268.77 18.3222C268.509 18.3222 266.029 18.8597 262.274 19.7735C258.519 20.6874 256.077 21.3554 255.839 21.4783C256.108 21.4783 258.58 20.9408 262.335 20.027C266.09 19.1132 268.517 18.4297 268.77 18.3222Z" fill="#FFC400"/>
<path d="M253.68 3.17914C253.742 3.21753 252.36 5.4291 250.609 8.10908C248.858 10.7891 247.353 12.9238 247.284 12.8854C247.215 12.8471 248.605 10.6355 250.355 7.9555C251.381 6.30769 252.491 4.71349 253.68 3.17914Z" fill="#FFC400"/>
<path d="M247.273 12.9008C247.273 12.7703 248.809 10.2592 250.345 7.96319C251.205 6.66543 252.019 5.45214 252.649 4.55369C253.616 3.16379 253.67 3.16379 253.693 3.17914C253.693 3.17914 253.747 3.17914 252.841 4.71495C252.257 5.64412 251.459 6.87276 250.606 8.17052C249.754 9.46828 248.932 10.6739 248.302 11.58C247.427 12.7856 247.273 12.9008 247.273 12.9008ZM253.678 3.20218C253.501 3.34808 252.234 5.15266 250.376 7.96319C248.517 10.7737 247.358 12.6474 247.304 12.8624C247.473 12.7165 248.748 10.9119 250.606 8.10141C252.464 5.29088 253.601 3.41719 253.67 3.20218H253.678Z" fill="#FFC400"/>
<path d="M238.691 0C238.739 0.610814 238.739 1.22448 238.691 1.83529C238.691 2.96411 238.652 4.52296 238.652 6.25074C238.652 7.97853 238.652 9.53737 238.698 10.6739C238.743 11.2848 238.743 11.8982 238.698 12.5092C238.585 11.9063 238.523 11.2949 238.514 10.6815C238.445 9.54505 238.391 7.98621 238.383 6.25074C238.376 4.51528 238.437 2.95643 238.506 1.82761C238.518 1.2144 238.579 0.603152 238.691 0Z" fill="#FFC400"/>
<path d="M238.705 12.5322C238.705 12.5322 238.659 12.5322 238.613 12.0331C238.575 11.6952 238.544 11.2652 238.506 10.6969C238.46 9.929 238.383 8.34712 238.383 6.2661C238.383 4.18508 238.452 2.6032 238.498 1.84297C238.498 1.30544 238.567 0.837016 238.598 0.499138C238.652 0.0230371 238.675 0 238.69 0C238.736 0 238.751 0.168939 238.728 1.85065C238.728 2.91804 238.69 4.53064 238.69 6.2661C238.69 8.00156 238.69 9.4913 238.736 10.6124V10.6892C238.736 12.3633 238.736 12.5322 238.736 12.5322H238.705ZM238.705 0.0460743C238.616 0.641362 238.563 1.24136 238.544 1.84297C238.498 2.61087 238.421 4.19276 238.421 6.2661C238.421 8.33944 238.506 9.93668 238.552 10.6969C238.571 11.2988 238.627 11.8989 238.721 12.4938C238.721 12.3402 238.721 11.3496 238.721 10.6892V10.6124C238.721 9.4913 238.682 7.95549 238.675 6.2661C238.667 4.57671 238.675 2.91804 238.675 1.85065C238.705 1.18257 238.721 0.199655 238.69 0.0460743H238.705Z" fill="#FFC400"/>
<path d="M227.35 14.1448C227.281 14.1909 225.876 12.0023 224.202 9.2686C222.528 6.53486 221.238 4.29258 221.299 4.25418C222.43 5.82291 223.481 7.44782 224.447 9.12269C226.114 11.8564 227.412 14.1064 227.35 14.1448Z" fill="#FFC400"/>
<path d="M227.348 14.1601C227.348 14.1601 227.195 14.0526 226.365 12.7549C225.766 11.8334 224.998 10.5971 224.231 9.27628C222.795 6.93417 221.289 4.37705 221.32 4.25418C221.32 4.25418 221.382 4.25418 222.311 5.65945C222.902 6.57325 223.678 7.80958 224.484 9.13037C225.29 10.4512 226.02 11.7029 226.588 12.6551C227.448 14.1371 227.402 14.1909 227.356 14.1909L227.348 14.1601ZM221.312 4.27722C221.374 4.49223 222.464 6.40431 224.215 9.2686C225.966 12.1329 227.164 13.9682 227.333 14.1218C227.271 13.9067 226.181 11.9947 224.43 9.13037C222.679 6.26609 221.481 4.42312 221.312 4.27722Z" fill="#FFC400"/>
<path d="M220.567 19.9041C220.087 19.8845 219.61 19.8098 219.147 19.6814C218.279 19.4971 217.089 19.2053 215.783 18.829C214.478 18.4527 213.326 18.0611 212.497 17.7232C212.039 17.5778 211.598 17.3821 211.184 17.1396C211.655 17.2275 212.118 17.3586 212.566 17.5312C213.403 17.8 214.57 18.1763 215.868 18.5526C217.166 18.9288 218.34 19.259 219.193 19.4894C219.662 19.5884 220.122 19.7271 220.567 19.9041Z" fill="#FFC400"/>
<path d="M220.519 19.9655C220.403 19.961 220.288 19.9482 220.174 19.9271C219.913 19.9271 219.552 19.8196 219.145 19.7351C218.554 19.6123 217.333 19.3358 215.781 18.8751C214.23 18.4143 213.055 17.992 212.487 17.7693C212.095 17.6234 211.758 17.4852 211.52 17.3776C211.151 17.2087 211.159 17.1934 211.166 17.1703C211.174 17.1473 211.366 17.1703 212.564 17.5619C213.24 17.777 214.499 18.1763 215.866 18.5833C217.11 18.9442 218.239 19.2513 219.191 19.5124C220.404 19.8426 220.588 19.9041 220.581 19.9501C220.581 19.9501 220.573 19.9655 220.519 19.9655ZM211.174 17.1473C211.591 17.3686 212.025 17.5561 212.472 17.7078C213.032 17.9229 214.207 18.3529 215.758 18.8136C217.309 19.2744 218.53 19.5431 219.114 19.666C219.567 19.775 220.026 19.8545 220.489 19.9041C220.389 19.8426 219.721 19.6583 219.137 19.5047C218.177 19.2437 217.048 18.9365 215.804 18.5679C214.438 18.1686 213.178 17.7616 212.502 17.5466C212.026 17.3776 211.32 17.155 211.174 17.1473Z" fill="#FFC400"/>
<path d="M217.605 30.1709C216.199 30.4511 214.775 30.6358 213.343 30.7238C211.92 30.9092 210.486 30.999 209.051 30.9926C210.461 30.7179 211.887 30.5357 213.32 30.4474C214.741 30.262 216.172 30.1696 217.605 30.1709Z" fill="#FFC400"/>
<path d="M209.296 31.031C209.213 31.046 209.127 31.046 209.043 31.031C210.454 30.7603 211.879 30.5757 213.313 30.4781C214.74 30.3043 216.175 30.212 217.613 30.2017C216.202 30.4737 214.776 30.6583 213.343 30.7546C211.7 30.8928 209.941 31.031 209.296 31.031ZM209.074 31.031C210.501 31.0138 211.926 30.9189 213.343 30.7469C214.767 30.6428 216.184 30.4659 217.59 30.217C216.163 30.2292 214.737 30.3215 213.32 30.4935C211.896 30.5791 210.479 30.7458 209.074 30.9926V31.031Z" fill="#FFC400"/>
<path d="M428.976 303.376L432.048 323.495L431.994 328.87L400.172 328.74C400.372 325.668 416.858 319.663 416.858 319.663L413.019 303.906L428.976 303.376Z" fill="#455A64"/>
<path d="M426.67 318.312C426.976 318.406 427.236 318.611 427.401 318.886C427.565 319.161 427.622 319.487 427.56 319.801C427.477 320.11 427.278 320.374 427.005 320.54C426.732 320.706 426.406 320.76 426.094 320.692C425.769 320.594 425.493 320.378 425.32 320.087C425.147 319.795 425.089 319.45 425.157 319.118C425.276 318.804 425.512 318.549 425.816 318.406C426.119 318.263 426.467 318.243 426.785 318.35" fill="white"/>
<path d="M431.964 328.909L432.002 326.175L401.386 327.212C401.386 327.212 399.973 327.826 400.134 328.824L431.964 328.909Z" fill="#263238"/>
<path d="M416.302 319.487C416.302 319.64 417.069 319.717 417.837 320.216C418.605 320.715 419.005 321.376 419.15 321.314C419.296 321.253 419.066 320.354 418.129 319.778C417.192 319.202 416.271 319.341 416.302 319.487Z" fill="#263238"/>
<path d="M412.965 320.853C412.965 320.999 413.594 321.268 414.124 321.929C414.654 322.589 414.8 323.28 414.954 323.28C415.107 323.28 415.207 322.389 414.539 321.583C413.871 320.777 412.965 320.7 412.965 320.853Z" fill="#263238"/>
<path d="M411.045 324.824C411.191 324.824 411.406 324.056 411.045 323.226C410.684 322.397 409.924 322.036 409.855 322.159C409.786 322.282 410.239 322.75 410.554 323.457C410.868 324.163 410.891 324.824 411.045 324.824Z" fill="#263238"/>
<path d="M416.603 315.732C416.665 315.877 417.371 315.662 418.254 315.732C419.137 315.801 419.79 316.069 419.897 315.939C420.005 315.808 419.329 315.248 418.293 315.171C417.256 315.094 416.526 315.609 416.603 315.732Z" fill="#263238"/>
<path d="M381.646 96.4949L397.772 123.072C400.844 127.203 403.148 131.711 399.231 135.097C398.215 135.979 397.028 136.643 395.745 137.048C394.462 137.453 393.109 137.591 391.771 137.453C390.432 137.314 389.136 136.903 387.963 136.245C386.789 135.586 385.763 134.694 384.948 133.623C383.128 131.227 381.654 129.254 381.654 129.254C381.654 129.254 375.112 133.362 370.036 127.664C367.102 124.37 361.113 116.322 356.574 110.11C355.09 108.084 354.424 105.574 354.709 103.079C354.994 100.584 356.208 98.2878 358.11 96.6485L361.596 93.6229C363.091 92.4689 364.802 91.6265 366.629 91.1454C368.455 90.6643 370.359 90.5544 372.228 90.8222C374.098 91.09 375.894 91.73 377.512 92.7043C379.13 93.6787 380.536 94.9676 381.646 96.4949Z" fill="#FFBF9D"/>
<path d="M381.648 129.254C384.305 126.934 386.239 123.901 387.223 120.515C387.223 120.515 389.013 126.32 382.808 130.797L381.648 129.254Z" fill="#FF9A6C"/>
<path d="M362.449 114.671C362.641 114.671 362.864 113.688 363.755 112.92C364.646 112.152 365.675 112.03 365.675 111.838C365.675 111.646 365.413 111.646 364.953 111.684C364.334 111.762 363.754 112.03 363.294 112.452C362.829 112.851 362.506 113.39 362.373 113.988C362.288 114.418 362.365 114.663 362.449 114.671Z" fill="#263238"/>
<path d="M373.095 110.993C373.28 111.215 373.546 111.354 373.834 111.38C374.122 111.406 374.409 111.316 374.631 111.131C374.743 111.049 374.838 110.946 374.909 110.827C374.98 110.708 375.027 110.575 375.046 110.438C375.066 110.3 375.057 110.16 375.022 110.026C374.986 109.892 374.923 109.766 374.838 109.657C374.747 109.546 374.635 109.455 374.508 109.388C374.382 109.321 374.243 109.279 374.1 109.266C373.958 109.252 373.814 109.267 373.677 109.309C373.54 109.351 373.413 109.42 373.302 109.511C373.191 109.594 373.097 109.699 373.026 109.818C372.955 109.938 372.908 110.071 372.889 110.209C372.87 110.346 372.878 110.487 372.913 110.621C372.949 110.756 373.01 110.882 373.095 110.993Z" fill="#263238"/>
<path d="M364.834 117.036C364.925 117.148 365.037 117.24 365.163 117.308C365.29 117.375 365.428 117.417 365.571 117.431C365.714 117.444 365.859 117.429 365.996 117.387C366.133 117.344 366.26 117.274 366.37 117.182C366.483 117.1 366.578 116.995 366.649 116.875C366.72 116.755 366.767 116.622 366.785 116.484C366.804 116.345 366.795 116.205 366.757 116.07C366.72 115.935 366.656 115.809 366.569 115.7C366.384 115.478 366.118 115.339 365.83 115.313C365.542 115.287 365.256 115.377 365.034 115.562C364.921 115.644 364.826 115.747 364.755 115.867C364.684 115.986 364.637 116.119 364.619 116.256C364.6 116.394 364.609 116.534 364.646 116.668C364.684 116.802 364.747 116.928 364.834 117.036Z" fill="#263238"/>
<path d="M371.114 107.361C371.314 107.361 371.537 106.378 372.42 105.61C373.303 104.842 374.347 104.719 374.347 104.527C374.347 104.335 374.079 104.335 373.618 104.374C372.999 104.451 372.419 104.72 371.959 105.141C371.494 105.541 371.171 106.079 371.038 106.677C370.946 107.077 371.022 107.353 371.114 107.361Z" fill="#263238"/>
<path d="M373.971 116.983C373.38 117.244 372.823 117.576 372.312 117.973C372.067 118.15 371.813 118.288 371.637 118.165C371.421 117.957 371.272 117.69 371.207 117.397L370.377 115.094C369.179 111.838 368.073 109.234 367.966 109.288C367.858 109.342 368.734 112.014 369.909 115.278L370.769 117.582C370.865 117.975 371.096 118.323 371.422 118.564C371.523 118.618 371.637 118.645 371.752 118.645C371.867 118.645 371.98 118.618 372.082 118.564C372.238 118.494 372.383 118.401 372.512 118.288C373.057 117.923 373.548 117.483 373.971 116.983Z" fill="#263238"/>
<path d="M377.087 115.332C376.934 115.447 377.771 116.414 377.54 117.812C377.31 119.209 376.197 119.993 376.304 120.116C376.412 120.238 376.696 120.116 377.141 119.739C377.708 119.257 378.089 118.591 378.216 117.858C378.337 117.151 378.18 116.425 377.779 115.831C377.464 115.416 377.149 115.27 377.087 115.332Z" fill="#263238"/>
<path d="M368.83 105.479C369.122 105.641 369.913 104.758 371.057 103.944C372.201 103.13 373.292 102.715 373.246 102.408C373.246 102.246 372.869 102.147 372.332 102.208C371.633 102.313 370.968 102.574 370.385 102.973C369.803 103.372 369.318 103.898 368.968 104.512C368.715 105.042 368.692 105.395 368.83 105.479Z" fill="#263238"/>
<path d="M360.004 112.114C360.334 112.183 360.772 111.446 361.486 110.793C362.2 110.141 362.96 109.757 362.914 109.419C362.914 109.265 362.622 109.142 362.146 109.188C361.584 109.277 361.06 109.532 360.642 109.918C360.223 110.305 359.929 110.807 359.796 111.362C359.75 111.799 359.85 112.114 360.004 112.114Z" fill="#263238"/>
<path d="M383.469 102.508C383.53 102.377 386.41 97.9001 389.704 101.947C392.998 105.994 388.26 108.466 388.168 108.359C388.076 108.251 383.469 102.508 383.469 102.508Z" fill="#FFBF9D"/>
<path d="M388.144 105.817C388.144 105.817 388.252 105.817 388.42 105.771C388.644 105.702 388.833 105.551 388.95 105.349C389.078 104.971 389.103 104.567 389.022 104.176C388.941 103.786 388.757 103.425 388.49 103.13C388.219 102.771 387.869 102.48 387.468 102.277C387.327 102.181 387.164 102.121 386.994 102.102C386.824 102.083 386.652 102.106 386.493 102.17C386.395 102.214 386.315 102.291 386.269 102.388C386.222 102.485 386.212 102.596 386.24 102.7C386.24 102.861 386.362 102.915 386.347 102.938C386.332 102.961 386.209 102.938 386.101 102.753C386.045 102.634 386.029 102.499 386.055 102.369C386.101 102.195 386.21 102.044 386.362 101.947C386.554 101.839 386.769 101.783 386.988 101.783C387.208 101.783 387.423 101.839 387.614 101.947C388.074 102.152 388.473 102.472 388.774 102.876C389.087 103.219 389.292 103.647 389.363 104.106C389.434 104.565 389.368 105.035 389.173 105.456C389.085 105.58 388.97 105.682 388.837 105.756C388.704 105.829 388.557 105.871 388.405 105.879C388.228 105.909 388.136 105.84 388.144 105.817Z" fill="#FF9A6C"/>
<path d="M385.541 100.473C385.146 100.774 384.84 101.176 384.655 101.637C384.469 102.098 384.412 102.6 384.489 103.091C384.719 103.859 385.219 104.558 385.457 105.349C385.608 105.73 385.629 106.15 385.515 106.543C385.4 106.937 385.159 107.281 384.827 107.522C384.567 107.634 384.281 107.676 384 107.644C383.718 107.612 383.45 107.506 383.222 107.338C382.775 106.992 382.397 106.564 382.109 106.078C380.742 104.036 379.544 101.87 378.008 99.9351C376.543 97.943 374.52 96.4304 372.195 95.5888C369.845 94.8209 367.05 95.2432 365.33 97.0017C364.193 98.1612 363.625 99.7738 362.558 101.002C361.917 101.729 361.119 102.299 360.225 102.67C359.331 103.041 358.364 103.204 357.397 103.145C357.152 103.145 356.184 103.252 356.184 103.252C355.82 102.802 355.596 102.255 355.539 101.678C356.015 97.3473 359.824 92.9472 363.71 90.9813C365.677 89.9719 367.84 89.403 370.049 89.3141C372.259 89.2253 374.461 89.6186 376.503 90.4668C380.473 92.256 383.675 96.7713 385.541 100.45" fill="#263238"/>
<path d="M358.54 98.7756C360.798 96.9787 365.666 94.1681 368.523 94.0453C368.868 94.0453 369.291 94.099 369.368 94.4369C369.444 94.7748 369.176 94.9053 368.976 95.0666C367.058 96.8951 365.329 98.9121 363.816 101.087C362.949 102.587 361.808 103.91 360.452 104.988C359.769 105.518 358.959 105.861 358.102 105.982C357.245 106.104 356.372 105.999 355.568 105.679L355.184 106.362C355.051 104.917 355.29 103.461 355.877 102.133C356.464 100.805 357.381 99.6497 358.54 98.7756Z" fill="#263238"/>
<path d="M355.764 109.273C355.987 107.15 356.902 105.159 358.367 103.606C362.974 98.8523 372.489 93.285 384.23 98.1382C383.421 96.232 382.39 94.4278 381.158 92.7629C380.137 91.5956 373.372 85.222 364.264 89.2689C364.295 89.2996 349.889 94.5674 355.764 109.273Z" fill="#455A64"/>
<g opacity="0.2">
<path d="M355.76 109.273C355.864 106.855 356.908 104.574 358.67 102.915C362.955 98.8447 373.161 93.5615 384.226 98.1382C383.417 96.232 382.386 94.4278 381.154 92.7629C380.133 91.5956 373.368 85.222 364.261 89.2689C364.291 89.2996 349.885 94.5674 355.76 109.273Z" fill="black"/>
</g>
<path d="M382.494 97.5239C377.203 95.7807 371.82 96.0879 366.46 96.9326C361.1 97.7773 353.482 100.596 348.629 102.991C347.121 103.621 345.767 104.569 344.659 105.771C344.118 106.382 343.759 107.133 343.623 107.938C343.487 108.743 343.58 109.57 343.891 110.325C344.813 112.145 349.466 112.145 351.501 111.968C353.428 111.719 355.34 111.368 357.23 110.916C357.23 110.916 354.773 108.167 358.72 103.752C364.064 97.7389 382.816 97.5239 382.494 97.5239Z" fill="#455A64"/>
<path d="M392.475 215.727C392.475 215.727 389.235 186.854 389.811 182.969C390.27 179.934 390.948 176.937 391.838 173.999L390.602 143.529L404.424 144.581L398.657 203.948L399.494 214.806L392.475 215.727Z" fill="#FF9A6C"/>
<path d="M392.474 215.727C392.474 215.727 390.6 224.735 390.538 226.616C390.477 228.498 390.83 235.47 390.83 235.47C390.83 235.47 391.706 236.576 392.75 233.973C393.438 231.977 393.854 229.898 393.986 227.791L394.754 225.38L398.54 213.777L392.474 215.727Z" fill="#FF9A6C"/>
<path d="M394.769 230.456C394.769 230.456 394.892 233.527 396.389 233.904C397.886 234.28 398.278 234.364 398.539 233.451C398.8 232.537 398.086 230.456 398.086 230.456C398.086 230.456 399.776 230.717 400.39 230.064C400.568 229.8 400.689 229.502 400.746 229.189C400.802 228.876 400.794 228.554 400.72 228.244C400.72 228.244 402.256 228.766 402.471 227.722C402.686 226.678 401.619 225.119 401.619 225.119C401.619 225.119 398.547 221.156 397.395 222.193C397.062 222.528 396.839 222.958 396.758 223.423C396.677 223.889 396.741 224.368 396.942 224.796C396.942 224.796 395.529 224.428 395.322 225.564C395.114 226.701 395.967 229.327 395.967 229.327C395.967 229.327 395.122 229.004 394.8 229.458C394.699 229.603 394.643 229.775 394.637 229.952C394.632 230.129 394.677 230.304 394.769 230.456Z" fill="#FF9A6C"/>
<path d="M361.493 327.312C361.226 325.321 361.226 323.304 361.493 321.314C361.759 323.304 361.759 325.321 361.493 327.312Z" fill="#263238"/>
<path d="M362.768 322.359L366.408 312.537C369.326 304.689 372.239 296.841 375.147 288.993L385.652 260.696L394.782 236.123L397.777 228.006C398.245 226.739 398.798 225.472 399.197 224.167C399.215 224.112 399.235 224.058 399.259 224.005C399.85 222.4 397.285 221.702 396.702 223.299C395.488 226.57 394.273 229.839 393.054 233.105L384.339 256.657L373.834 284.954L364.696 309.527C363.713 312.25 362.709 314.961 361.685 317.659C361.209 318.934 360.664 320.201 360.265 321.499C360.241 321.551 360.22 321.605 360.203 321.66C359.604 323.265 362.169 323.963 362.76 322.366L362.768 322.359Z" fill="#E0E0E0"/>
<path d="M362.768 322.359C362.712 322.54 362.618 322.708 362.492 322.85C362.297 323.051 362.049 323.192 361.777 323.256C361.504 323.32 361.219 323.304 360.956 323.211C360.752 323.153 360.567 323.042 360.42 322.89C360.273 322.738 360.169 322.549 360.119 322.343C360.071 322.102 360.092 321.851 360.18 321.621C360.265 321.399 360.326 321.145 360.418 320.9C360.748 319.886 361.225 318.757 361.701 317.459C363.605 312.276 366.362 304.781 369.771 295.536C376.621 277.021 386.089 251.466 396.541 223.245C396.633 222.992 396.789 222.767 396.993 222.59C397.198 222.414 397.444 222.293 397.708 222.239C397.97 222.189 398.24 222.2 398.498 222.272C398.755 222.344 398.992 222.474 399.19 222.654C399.391 222.85 399.523 223.106 399.566 223.383C399.584 223.645 399.545 223.907 399.451 224.151C399.305 224.589 399.151 225.042 398.99 225.48C398.314 227.215 397.662 228.928 397.032 230.655C395.757 234.096 394.5 237.48 393.262 240.807L386.128 260.005L374.026 292.479C370.578 301.694 367.775 309.189 365.84 314.365C364.864 316.937 364.112 318.934 363.597 320.308L362.998 321.844C362.868 322.19 362.783 322.359 362.783 322.359C362.783 322.359 362.837 322.174 362.96 321.829L363.521 320.293C364.02 318.918 364.749 316.906 365.694 314.326C367.606 309.135 370.363 301.648 373.764 292.395C377.166 283.142 381.259 272.122 385.782 259.89L392.893 240.692C394.132 237.364 395.389 233.98 396.663 230.54C397.285 228.828 397.946 227.085 398.614 225.365C398.783 224.927 398.921 224.497 399.067 224.044C399.159 223.87 399.194 223.672 399.166 223.477C399.139 223.283 399.05 223.102 398.913 222.961C398.763 222.824 398.582 222.724 398.386 222.67C398.19 222.615 397.984 222.607 397.785 222.646C397.585 222.686 397.4 222.778 397.247 222.913C397.095 223.048 396.981 223.221 396.917 223.414L370.04 295.666L361.854 317.544C361.37 318.842 360.879 319.963 360.541 320.969C360.395 321.475 360.119 321.929 360.219 322.351C360.263 322.542 360.358 322.718 360.493 322.861C360.628 323.004 360.798 323.109 360.987 323.165C361.24 323.26 361.515 323.281 361.78 323.227C362.044 323.173 362.289 323.045 362.484 322.858C362.6 322.705 362.696 322.537 362.768 322.359Z" fill="#263238"/>
<path d="M350.724 325.369C350.352 325.338 349.978 325.406 349.64 325.565C349.302 325.724 349.012 325.968 348.798 326.275C348.585 326.581 348.455 326.938 348.422 327.31C348.39 327.682 348.455 328.056 348.612 328.394C349.273 329.8 350.102 329.715 354.809 329.715H364.101C364.304 329.715 364.5 329.634 364.644 329.49C364.788 329.346 364.869 329.151 364.869 328.947V328.179C364.873 328.001 364.814 327.826 364.703 327.686C364.593 327.546 364.437 327.449 364.262 327.411C362.849 327.066 359.324 326.198 357.758 325.876C355.425 325.566 353.077 325.397 350.724 325.369Z" fill="#E0E0E0"/>
<path d="M350.727 325.369C350.851 325.346 350.978 325.346 351.103 325.369H352.186C353.13 325.369 354.489 325.369 356.186 325.522C356.609 325.522 357.046 325.591 357.507 325.661C357.968 325.73 358.429 325.86 358.92 325.968L361.992 326.682L363.658 327.074L364.088 327.173C364.25 327.197 364.408 327.244 364.556 327.312C364.72 327.4 364.856 327.533 364.948 327.694C365.04 327.856 365.085 328.04 365.079 328.225V328.686C365.097 328.855 365.097 329.024 365.079 329.193C365.036 329.387 364.936 329.563 364.793 329.7C364.649 329.836 364.468 329.927 364.272 329.961C363.581 329.961 362.998 329.961 362.337 329.961H355.088C353.975 329.961 352.915 329.961 351.917 329.961C351.418 329.961 350.942 329.961 350.473 329.869C350.005 329.831 349.554 329.678 349.16 329.423C348.848 329.168 348.608 328.834 348.466 328.457C348.323 328.08 348.282 327.671 348.346 327.273C348.437 326.793 348.682 326.354 349.043 326.025C349.405 325.695 349.863 325.492 350.35 325.446C350.445 325.439 350.54 325.439 350.634 325.446H350.734C350.255 325.489 349.794 325.656 349.398 325.929C349.177 326.09 348.99 326.293 348.848 326.526C348.705 326.759 348.611 327.018 348.569 327.289C348.525 327.644 348.572 328.005 348.707 328.337C348.841 328.668 349.058 328.961 349.337 329.185C350.151 329.548 351.044 329.696 351.932 329.615H355.096H362.345C362.975 329.615 363.658 329.615 364.219 329.615C364.334 329.596 364.441 329.544 364.527 329.465C364.613 329.386 364.674 329.283 364.702 329.17C364.711 329.032 364.711 328.893 364.702 328.755V328.294C364.71 328.18 364.685 328.065 364.629 327.964C364.573 327.863 364.489 327.781 364.388 327.726C364.268 327.672 364.141 327.633 364.011 327.611L363.581 327.511L361.923 327.112L358.851 326.344C358.367 326.237 357.899 326.098 357.461 326.021C357.023 325.945 356.578 325.899 356.156 325.86C354.489 325.699 353.122 325.638 352.186 325.576L351.103 325.507C350.972 325.478 350.845 325.432 350.727 325.369Z" fill="#263238"/>
<path d="M415.546 194.134C415.546 194.748 402.684 246.582 401.908 252.748C401.133 258.914 401.363 257.924 402.838 265.718C404.312 273.512 411.738 319.471 411.738 319.471L433.822 318.65L429.307 255.712L446.239 215.528C446.239 215.528 453.965 205.284 452.82 192.882C452.175 185.971 447.445 177.324 447.445 177.324L412.736 188.843L415.546 194.134Z" fill="#263238"/>
<path d="M415.219 189.242L417.054 192.882L420.778 191.216L419.02 187.799L415.219 189.242Z" fill="#455A64"/>
<path d="M421.801 186.777L423.467 190.141L438.011 185.096L436.813 181.932L421.801 186.777Z" fill="#455A64"/>
<path d="M439.434 181.318L440.44 184.366L448.41 181.371L447.074 178.707L439.434 181.318Z" fill="#455A64"/>
<path d="M435.139 203.042C434.928 203.105 434.707 203.131 434.487 203.118C433.888 203.14 433.289 203.101 432.697 203.003C430.72 202.695 428.862 201.856 427.322 200.577C425.782 199.298 424.617 197.626 423.951 195.739C423.747 195.176 423.598 194.595 423.506 194.003C423.467 193.785 423.467 193.561 423.506 193.343C423.575 193.343 423.698 194.264 424.274 195.647C425.002 197.434 426.156 199.016 427.637 200.254C429.135 201.48 430.909 202.323 432.805 202.711C434.203 203.019 435.139 202.965 435.139 203.042Z" fill="#455A64"/>
<path d="M433.427 313.144C433.427 313.251 428.367 313.466 422.124 313.62C415.881 313.773 410.805 313.804 410.805 313.697C410.805 313.589 415.865 313.374 422.108 313.221C428.351 313.067 433.427 313.036 433.427 313.144Z" fill="#455A64"/>
<path d="M418.387 198.196C418.375 198.298 418.355 198.398 418.325 198.496C418.279 198.711 418.21 199.002 418.125 199.371L417.304 202.727C416.582 205.645 415.545 209.838 414.232 215.013C412.919 220.189 411.46 226.386 409.786 233.236C408.972 236.676 408.112 240.277 407.275 244.025C406.438 247.772 405.547 251.658 404.971 255.666C404.971 256.165 404.887 256.657 404.871 257.148C404.856 257.64 404.979 258.139 405.048 258.638C405.209 259.628 405.348 260.619 405.516 261.594C405.854 263.555 406.187 265.48 406.515 267.369C407.198 271.147 407.859 274.795 408.496 278.273C409.786 285.184 410.953 291.458 411.936 296.703C412.919 301.948 413.71 306.179 414.24 309.135C414.509 310.587 414.716 311.723 414.862 312.522C414.923 312.89 414.969 313.182 415.008 313.397C415.016 313.499 415.016 313.602 415.008 313.704C414.974 313.607 414.949 313.507 414.931 313.405C414.885 313.19 414.824 312.906 414.739 312.537C414.578 311.769 414.347 310.61 414.048 309.166C413.464 306.21 412.627 301.978 411.598 296.757L408.066 278.327C407.429 274.848 406.76 271.201 406.062 267.423C405.739 265.526 405.401 263.583 405.063 261.648C404.887 260.665 404.749 259.675 404.595 258.676C404.518 258.177 404.472 257.663 404.411 257.14C404.349 256.618 404.48 256.104 404.518 255.605C405.133 251.55 406.054 247.68 406.868 243.925C407.682 240.17 408.58 236.568 409.41 233.136C411.068 226.271 412.62 220.081 413.933 214.929C415.246 209.776 416.344 205.591 417.104 202.681C417.48 201.252 417.78 200.139 417.995 199.356C418.095 198.995 418.179 198.711 418.233 198.496C418.276 198.392 418.328 198.292 418.387 198.196Z" fill="#455A64"/>
<path d="M393.082 115.401L397.605 117.105L404.431 117.781C412.111 119.11 418.745 126.865 424.781 134.452C429.45 140.327 440.4 159.271 445.107 167.526C446.557 170.07 447.29 172.961 447.227 175.889V177.486L412.218 188.904C411.704 189.071 411.146 189.033 410.66 188.799C410.174 188.564 409.796 188.151 409.607 187.645L404.923 178.676L391.308 152.191L386.409 136.956L385.641 138.392L383.184 133.247L393.082 115.401Z" fill="#FF725E"/>
<path opacity="0.3" d="M412.22 159.225L410.738 141.172L411.506 135.243L409.716 139.759L409.478 158.188L406.921 158.242V159.594H406.438L407.612 183.483L408.964 186.071C408.964 186.071 410.208 182.047 410.208 179.659C410.208 177.639 409.762 164.6 409.624 160.699H410.914C411.1 160.697 411.283 160.656 411.452 160.579C411.62 160.502 411.771 160.391 411.894 160.252C412.017 160.113 412.11 159.95 412.166 159.773C412.222 159.596 412.24 159.409 412.22 159.225Z" fill="black"/>
<path d="M390.766 147.146C390.766 147.146 393.837 167.273 394.321 171.719C394.805 176.165 392.785 179.152 393.553 188.613C394.321 198.073 394.398 216.633 394.398 216.633L402.991 215.866C402.991 215.866 408.404 184.673 407.598 180.181C407.102 176.514 406.889 172.815 406.961 169.116L406.861 148.206L390.766 147.146Z" fill="#FFBF9D"/>
<path d="M394.658 120.477C394.658 120.477 386.91 127.795 387.025 134.775C387.148 142.861 387.862 159.048 387.862 159.048L409.294 158.188L409.732 139.405L412.35 133.262C412.35 133.262 408.756 126.512 403.089 122.788C397.422 119.064 394.658 120.477 394.658 120.477Z" fill="#FF725E"/>
<path d="M397.83 117.105C397.754 117.231 397.666 117.349 397.569 117.459C397.354 117.72 397.085 118.035 396.763 118.434L393.768 121.989C392.524 123.525 390.988 125.276 389.49 127.365C388.705 128.448 388.125 129.666 387.778 130.958C387.601 131.626 387.486 132.333 387.34 133.055L387.233 133.592C387.233 133.777 387.187 133.946 387.164 134.122C387.164 134.475 387.164 134.89 387.118 135.22C387.118 141.187 387.463 146.608 387.609 150.525C387.694 152.444 387.755 154.019 387.809 155.132C387.809 155.647 387.809 156.061 387.809 156.391C387.822 156.54 387.822 156.689 387.809 156.837C387.767 156.694 387.744 156.547 387.74 156.399C387.74 156.069 387.671 155.631 387.624 155.14C387.54 154.049 387.425 152.46 387.302 150.532C387.087 146.616 386.711 141.21 386.695 135.174C386.695 134.79 386.695 134.406 386.741 134.045C386.778 133.673 386.842 133.303 386.933 132.94C387.072 132.225 387.187 131.511 387.371 130.82C387.739 129.489 388.345 128.235 389.16 127.119C390.696 125.007 392.232 123.279 393.53 121.744C394.827 120.208 395.879 119.079 396.601 118.273L397.469 117.343C397.674 117.18 397.794 117.1 397.83 117.105Z" fill="#263238"/>
<path d="M411.491 135.243C411.474 135.343 411.445 135.441 411.407 135.535L411.084 136.357L409.833 139.428V139.382C409.786 143.398 409.664 149.91 409.495 157.244C409.495 157.559 409.495 157.881 409.495 158.173V158.357H409.295L394.113 158.925L389.506 159.048H388.27C388.124 159.06 387.978 159.06 387.832 159.048C387.972 159.008 388.117 158.987 388.262 158.987L389.498 158.902L394.106 158.649L409.28 157.958L409.088 158.158C409.088 157.858 409.088 157.543 409.088 157.228C409.257 149.895 409.441 143.406 409.587 139.367V139.321L410.946 136.303C411.092 135.988 411.215 135.727 411.322 135.535C411.364 135.43 411.421 135.332 411.491 135.243Z" fill="#263238"/>
<path d="M411.491 132.387C411.414 132.387 411.291 131.196 410.577 129.415C409.664 127.09 408.15 125.048 406.189 123.499C404.229 121.951 401.893 120.95 399.419 120.599C397.523 120.323 396.348 120.477 396.348 120.4C396.616 120.316 396.896 120.273 397.177 120.269C397.945 120.214 398.716 120.232 399.481 120.323C402.023 120.613 404.434 121.609 406.44 123.198C408.446 124.787 409.967 126.906 410.83 129.315C411.092 130.038 411.285 130.783 411.406 131.542C411.475 131.818 411.504 132.103 411.491 132.387Z" fill="#263238"/>
<path d="M392.246 208.693L394.45 217.655C393.334 219.086 392.548 220.746 392.146 222.516C391.478 225.464 391.67 234.802 391.67 234.802C391.67 234.802 394.051 234.618 394.335 231.085C394.619 227.553 395.003 228.782 395.003 228.782C395.003 228.782 398.243 231.731 399.864 230.97C401.484 230.21 402.167 227.83 402.167 227.83C402.167 227.83 405.408 226.017 405.692 225.065C405.976 224.113 403.212 217.056 403.212 217.056L405.715 208.317L401.469 208.002L399.234 210.675L397.652 207.995L392.246 208.693Z" fill="#263238"/>
<path d="M392.245 208.693L392.576 208.632L393.612 208.478L397.644 207.918H397.705V207.972L399.31 210.636H399.11L401.33 207.956L401.376 207.895H401.453L405.691 208.187H405.891L405.837 208.371C405.069 211.012 404.255 213.961 403.365 217.125V217.01C404.079 218.868 404.824 220.849 405.453 222.907C405.621 223.438 405.754 223.98 405.853 224.528C405.89 224.684 405.895 224.847 405.868 225.005C405.84 225.164 405.78 225.315 405.691 225.449C405.517 225.689 405.314 225.906 405.085 226.094C404.196 226.817 403.245 227.459 402.243 228.014L402.336 227.899C402.038 228.892 401.512 229.802 400.8 230.556C400.583 230.758 400.344 230.933 400.086 231.078C399.815 231.234 399.507 231.314 399.195 231.308C398.613 231.269 398.047 231.104 397.536 230.824C396.567 230.31 395.664 229.678 394.849 228.943L394.795 228.897V228.835C394.795 228.789 394.703 228.713 394.795 228.759C394.887 228.805 394.879 228.72 394.872 228.812C394.816 228.957 394.775 229.106 394.749 229.258C394.687 229.58 394.641 229.903 394.603 230.233C394.566 230.9 394.476 231.562 394.334 232.214C394.213 232.885 393.896 233.505 393.423 233.995C392.951 234.486 392.343 234.826 391.677 234.971H391.477V234.764C391.431 231.224 391.477 227.929 391.669 224.942C391.747 222.251 392.677 219.653 394.326 217.524V217.639C393.658 214.806 393.128 212.556 392.791 210.982C392.622 210.214 392.491 209.661 392.391 209.239L392.299 208.793C392.299 208.693 392.299 208.647 392.299 208.647C392.299 208.647 392.299 208.709 392.345 208.809L392.476 209.269C392.583 209.699 392.745 210.283 392.936 211.035C393.336 212.571 393.904 214.798 394.626 217.578V217.632L394.58 217.686C392.974 219.79 392.076 222.349 392.015 224.996C391.823 227.96 391.815 231.262 391.869 234.787L391.669 234.602C392.248 234.499 392.773 234.201 393.159 233.758C393.564 233.292 393.846 232.732 393.981 232.13C394.114 231.492 394.201 230.845 394.242 230.195C394.242 229.864 394.326 229.527 394.388 229.189C394.421 229.008 394.469 228.831 394.534 228.659C394.559 228.605 394.59 228.553 394.626 228.505C394.661 228.455 394.711 228.417 394.769 228.398C394.827 228.379 394.89 228.379 394.948 228.398C395.013 228.43 395.07 228.477 395.115 228.534C395.161 228.591 395.193 228.657 395.209 228.728L395.156 228.644C395.946 229.352 396.82 229.961 397.759 230.456C398.214 230.712 398.72 230.864 399.241 230.901C399.746 230.866 400.218 230.635 400.554 230.256C401.215 229.555 401.702 228.708 401.975 227.783V227.699L402.044 227.661C403.025 227.12 403.955 226.493 404.824 225.787C405.028 225.621 405.212 225.43 405.369 225.219C405.431 225.124 405.471 225.018 405.487 224.906C405.503 224.795 405.494 224.681 405.461 224.574C405.364 224.055 405.239 223.542 405.085 223.038C404.463 220.98 403.726 219.022 403.019 217.163V217.102V217.048L405.545 208.309L405.684 208.509L401.445 208.187L401.614 208.102L399.31 210.774L399.203 210.905L399.118 210.759L397.582 208.064L397.682 208.11L393.697 208.555L392.637 208.67C392.507 208.689 392.376 208.697 392.245 208.693Z" fill="#455A64"/>
<path d="M357.721 329.669C358.176 330.458 358.386 331.365 358.326 332.274C358.266 333.183 357.937 334.054 357.382 334.776C356.827 335.499 356.07 336.04 355.208 336.333C354.345 336.625 353.415 336.655 352.535 336.419C351.655 336.183 350.864 335.692 350.264 335.007C349.663 334.321 349.279 333.474 349.16 332.57C349.042 331.667 349.193 330.749 349.596 329.932C349.999 329.115 350.635 328.435 351.424 327.98C351.948 327.677 352.527 327.48 353.127 327.401C353.728 327.322 354.338 327.362 354.922 327.519C355.507 327.676 356.055 327.947 356.536 328.316C357.016 328.684 357.418 329.144 357.721 329.669Z" fill="white"/>
<path d="M357.721 329.669C357.721 329.669 357.49 329.331 356.953 328.824C356.227 328.112 355.284 327.663 354.273 327.55C353.454 327.45 352.624 327.58 351.875 327.926C351.126 328.272 350.489 328.82 350.034 329.508C349.579 330.196 349.325 330.997 349.3 331.821C349.275 332.646 349.48 333.461 349.893 334.175C350.305 334.889 350.908 335.475 351.635 335.865C352.362 336.256 353.182 336.436 354.006 336.386C354.829 336.336 355.622 336.057 356.296 335.582C356.97 335.106 357.498 334.452 357.821 333.693C358.231 332.76 358.315 331.715 358.059 330.729C357.882 330.03 357.659 329.684 357.698 329.661C357.736 329.638 357.767 329.738 357.867 329.907C358.015 330.147 358.131 330.405 358.212 330.675C358.531 331.695 358.485 332.795 358.082 333.785C357.843 334.372 357.488 334.906 357.04 335.354C356.591 335.803 356.057 336.156 355.469 336.395C354.882 336.633 354.252 336.751 353.618 336.742C352.984 336.733 352.358 336.597 351.777 336.342C350.722 335.883 349.868 335.058 349.374 334.02C348.879 332.981 348.776 331.798 349.085 330.69C349.394 329.581 350.093 328.622 351.053 327.988C352.014 327.355 353.171 327.09 354.311 327.242C355.372 327.388 356.348 327.901 357.068 328.694C357.265 328.899 357.435 329.129 357.575 329.377C357.69 329.569 357.736 329.661 357.721 329.669Z" fill="#263238"/>
</svg>
