<svg width="483" height="424" viewBox="0 0 483 424" fill="none" xmlns="http://www.w3.org/2000/svg">
<path d="M470.936 394.301H432.922V394.588H470.936V394.301Z" fill="#EBEBEB"/>
<path d="M334.728 397.423H324.754V397.71H334.728V397.423Z" fill="#EBEBEB"/>
<path d="M431.776 383.65H409.75V383.937H431.776V383.65Z" fill="#EBEBEB"/>
<path d="M64.3413 385.578H14.7695V385.865H64.3413V385.578Z" fill="#EBEBEB"/>
<path d="M81.8317 385.578H74.5664V385.865H81.8317V385.578Z" fill="#EBEBEB"/>
<path d="M212.979 390.422H105.457V390.709H212.979V390.422Z" fill="#EBEBEB"/>
<path d="M228.186 324.644H6.55371C4.81555 324.644 3.14859 323.953 1.91954 322.724C0.690478 321.495 0 319.828 0 318.09V6.55371C0 4.81556 0.690478 3.14859 1.91954 1.91954C3.14859 0.690478 4.81555 0 6.55371 0L228.186 0C229.047 0 229.899 0.169517 230.694 0.498871C231.489 0.828226 232.212 1.31097 232.82 1.91954C233.429 2.5281 233.912 3.25058 234.241 4.04571C234.57 4.84084 234.74 5.69306 234.74 6.55371V318.09C234.74 318.951 234.57 319.803 234.241 320.598C233.912 321.393 233.429 322.116 232.82 322.724C232.212 323.333 231.489 323.816 230.694 324.145C229.899 324.474 229.047 324.644 228.186 324.644ZM6.55371 0.28694C4.89259 0.289974 3.30037 0.951195 2.12578 2.12578C0.951194 3.30037 0.289974 4.89259 0.28694 6.55371V318.09C0.289974 319.751 0.951194 321.343 2.12578 322.518C3.30037 323.693 4.89259 324.354 6.55371 324.357H228.186C229.847 324.354 231.439 323.693 232.614 322.518C233.789 321.343 234.45 319.751 234.453 318.09V6.55371C234.45 4.89259 233.789 3.30037 232.614 2.12578C231.439 0.951195 229.847 0.289974 228.186 0.28694H6.55371Z" fill="#EBEBEB"/>
<path d="M476.444 324.644H254.812C253.073 324.644 251.406 323.953 250.177 322.724C248.948 321.495 248.258 319.828 248.258 318.09V6.55371C248.258 4.81556 248.948 3.14859 250.177 1.91954C251.406 0.690478 253.073 0 254.812 0L476.444 0C478.182 0 479.849 0.690478 481.078 1.91954C482.307 3.14859 482.998 4.81556 482.998 6.55371V318.09C482.998 318.951 482.828 319.803 482.499 320.598C482.169 321.393 481.687 322.116 481.078 322.724C480.469 323.333 479.747 323.816 478.952 324.145C478.157 324.474 477.305 324.644 476.444 324.644ZM254.812 0.28694C253.15 0.289974 251.558 0.951195 250.384 2.12578C249.209 3.30037 248.548 4.89259 248.545 6.55371V318.09C248.548 319.751 249.209 321.343 250.384 322.518C251.558 323.693 253.15 324.354 254.812 324.357H476.444C478.105 324.354 479.697 323.693 480.872 322.518C482.046 321.343 482.708 319.751 482.711 318.09V6.55371C482.708 4.89259 482.046 3.30037 480.872 2.12578C479.697 0.951195 478.105 0.289974 476.444 0.28694H254.812Z" fill="#EBEBEB"/>
<path d="M482.532 375.317H0.472656V376.465H482.532V375.317Z" fill="#CBCBCB"/>
<path d="M58.8721 232.054L41.3343 226.637C41.0807 226.545 40.8676 226.366 40.7325 226.133C40.5973 225.899 40.5488 225.625 40.5954 225.36C40.6419 225.094 40.7807 224.853 40.9872 224.679C41.1936 224.506 41.4547 224.41 41.7245 224.41L61.9481 225.477C57.1734 217.168 54.3499 211.991 51.1362 205.495C51.023 205.248 51.0007 204.97 51.0734 204.708C51.1461 204.447 51.309 204.22 51.5332 204.067C51.7574 203.915 52.0284 203.846 52.2982 203.874C52.568 203.903 52.8191 204.025 53.007 204.221C57.3226 209.076 60.938 213.024 66.7801 219.234C68.1574 211.199 69.7643 203.796 71.7614 196.359C71.8132 196.054 71.9837 195.783 72.2356 195.604C72.4874 195.426 72.7999 195.354 73.1043 195.406C73.4087 195.458 73.6801 195.628 73.8587 195.88C74.0374 196.132 74.1087 196.445 74.0569 196.749C73.5204 202.736 73.325 208.748 73.4716 214.757L74.0225 214.952C78.8737 209.405 83.9659 204.083 89.2992 198.987C89.5138 198.819 89.7813 198.733 90.0537 198.744C90.3261 198.755 90.5857 198.863 90.7859 199.048C90.9862 199.233 91.114 199.483 91.1465 199.754C91.1791 200.024 91.1141 200.298 90.9634 200.525C85.8059 207.065 81.0419 213.907 76.6968 221.013C83.6292 218.396 90.6 215.859 97.609 213.403C97.8733 213.327 98.156 213.349 98.4057 213.464C98.6554 213.579 98.8555 213.78 98.9694 214.031C99.0834 214.281 99.1038 214.564 99.0269 214.828C98.9499 215.092 98.7807 215.319 98.5501 215.469C91.2848 219.589 84.0998 223.802 76.9263 228.163L95.4167 234.051C95.6724 234.144 95.8868 234.324 96.0219 234.56C96.1569 234.796 96.2038 235.072 96.1542 235.34C96.1046 235.607 95.9617 235.848 95.751 236.02C95.5403 236.192 95.2754 236.283 95.0035 236.278L76.0081 235.13C79.7613 239.526 82.3667 242.545 85.4083 245.953C85.5797 246.163 85.6717 246.426 85.668 246.696C85.6643 246.967 85.5651 247.227 85.3881 247.432C85.211 247.636 84.9673 247.772 84.7001 247.814C84.4329 247.857 84.1593 247.803 83.9277 247.664C80.1056 245.127 76.7427 242.877 71.8532 239.629C72.3582 243.532 72.7829 246.516 73.2994 249.523C73.3282 249.793 73.2603 250.064 73.1078 250.289C72.9553 250.514 72.7281 250.677 72.4665 250.75C72.2049 250.823 71.926 250.801 71.6792 250.688C71.4324 250.574 71.2338 250.377 71.1187 250.131C69.8447 246.883 68.6854 243.646 67.2163 239.365C61.6956 265.764 63.1188 291.393 68.4559 317.643L61.8448 316.495C57.9482 290.7 58.9999 264.399 64.9437 238.998C61.6267 242.441 59.2049 245.001 56.9094 247.606C56.7151 247.803 56.4563 247.923 56.1808 247.944C55.9052 247.965 55.6313 247.885 55.4094 247.721C55.1874 247.556 55.0324 247.317 54.9727 247.047C54.913 246.777 54.9527 246.495 55.0845 246.252C56.6454 243.669 58.3326 241.041 60.6052 237.632L46.0401 240.743C45.7714 240.801 45.4906 240.761 45.249 240.629C45.0074 240.498 44.821 240.284 44.7237 240.027C44.6264 239.77 44.6246 239.486 44.7188 239.228C44.8129 238.97 44.9967 238.754 45.2367 238.619C49.4375 236.542 53.271 234.705 58.8721 232.054Z" fill="#EBEBEB"/>
<path d="M49.5366 241.179L63.0113 234.04C63.3487 233.869 63.6108 233.579 63.7467 233.226C63.8826 232.873 63.8827 232.482 63.747 232.13C63.6112 231.777 63.3493 231.487 63.0119 231.316C62.6746 231.145 62.2858 231.105 61.9209 231.205L45.2899 235.291C47.9986 227.486 49.7088 222.229 51.3845 216.444C51.4872 216.088 51.4567 215.707 51.2985 215.371C51.1404 215.035 50.8655 214.769 50.5253 214.621C50.185 214.474 49.8027 214.455 49.4496 214.569C49.0966 214.682 48.797 214.921 48.6069 215.239C45.8753 219.762 43.2699 223.962 39.4249 230.045C37.1293 223.836 34.7076 218.063 32.0907 212.393C31.9264 212.055 31.6429 211.789 31.2946 211.647C30.9464 211.504 30.5579 211.496 30.2037 211.622C29.8495 211.749 29.5545 212.002 29.3753 212.333C29.1961 212.663 29.1453 213.049 29.2327 213.414C30.3805 217.914 31.3331 222.436 32.0677 226.889L31.5627 227.176C27.2012 223.779 22.7403 220.523 18.1798 217.409C17.8632 217.156 17.4593 217.039 17.0568 217.085C16.6542 217.13 16.2862 217.333 16.0335 217.65C15.7809 217.966 15.6643 218.37 15.7095 218.773C15.7547 219.175 15.958 219.543 16.2745 219.796C21.0798 224.196 25.6709 228.81 30.0477 233.638C24.1482 232.605 18.2372 231.629 12.3148 230.711C11.9405 230.659 11.5602 230.748 11.2476 230.96C10.9349 231.172 10.712 231.493 10.622 231.86C10.5321 232.227 10.5814 232.614 10.7605 232.947C10.9396 233.279 11.2358 233.534 11.5917 233.661C18.1339 235.956 24.6302 238.252 31.1036 240.708L16.7681 248.467C16.4344 248.645 16.1786 248.94 16.0501 249.295C15.9215 249.651 15.9294 250.041 16.0723 250.391C16.2151 250.741 16.4827 251.026 16.8233 251.19C17.1639 251.354 17.5532 251.386 17.9158 251.279L33.3532 247.377C31.0577 251.29 29.4049 254.263 27.6144 257.224C27.4185 257.544 27.3469 257.924 27.4132 258.293C27.4795 258.662 27.6791 258.993 27.974 259.224C28.2689 259.455 28.6385 259.57 29.0124 259.546C29.3864 259.522 29.7385 259.362 30.0018 259.095L38.346 250.992C38.4837 253.288 38.5985 255.331 38.6673 257.213C38.6848 257.589 38.8407 257.946 39.1051 258.214C39.3696 258.482 39.7239 258.643 40.0999 258.666C40.4759 258.689 40.847 258.572 41.1419 258.337C41.4368 258.103 41.6347 257.768 41.6974 257.397C42.0762 255.101 42.4435 252.725 42.8452 249.867C53.175 274.785 56.6183 300.208 56.2281 327.008L62.5063 324.598C61.5074 298.534 55.5515 272.899 44.9571 249.064C47.3444 250.74 49.3415 252.163 51.1664 253.506C51.4708 253.774 51.8692 253.909 52.2738 253.884C52.6785 253.858 53.0563 253.672 53.3242 253.368C53.5921 253.064 53.7281 252.665 53.7022 252.26C53.6764 251.856 53.4909 251.478 53.1865 251.21C51.9469 249.89 50.5811 248.478 49.0086 246.883L60.4862 247.216C60.8578 247.224 61.2197 247.097 61.504 246.857C61.7883 246.618 61.9754 246.283 62.0304 245.915C62.0853 245.548 62.0042 245.173 61.8023 244.861C61.6005 244.549 61.2917 244.321 60.9339 244.22C57.6168 243.325 54.1391 242.372 49.5366 241.179Z" fill="#CBCBCB"/>
<path d="M73.3308 255.652L63.2765 250.326C63.0458 250.202 62.8685 249.997 62.7777 249.751C62.6869 249.505 62.6888 249.235 62.783 248.99C62.8772 248.745 63.0574 248.543 63.2897 248.422C63.522 248.3 63.7907 248.267 64.0455 248.329L76.4298 251.359C74.4097 245.563 73.1587 241.695 71.9191 237.391C71.8418 237.138 71.86 236.866 71.9703 236.626C72.0806 236.385 72.2753 236.194 72.5175 236.088C72.7596 235.981 73.0323 235.968 73.2838 236.049C73.5353 236.131 73.7481 236.302 73.8818 236.53C75.9248 239.916 77.8415 243.015 80.6995 247.549C82.4326 242.9 84.2231 238.596 86.1857 234.361C86.3016 234.121 86.5021 233.933 86.7485 233.832C86.995 233.731 87.27 233.725 87.5207 233.815C87.7715 233.905 87.9801 234.084 88.1066 234.318C88.2331 234.553 88.2684 234.825 88.2058 235.084C87.322 238.528 86.5989 241.971 86.048 245.311L86.3694 245.494C89.6749 242.916 93.0646 240.448 96.5385 238.091C96.7638 237.915 97.05 237.835 97.3341 237.869C97.6182 237.904 97.877 238.05 98.0536 238.275C98.2301 238.5 98.31 238.786 98.2755 239.071C98.2411 239.355 98.0952 239.613 97.8699 239.79C94.2507 243.073 90.8074 246.516 87.5401 250.12C91.9475 249.355 96.3702 248.628 100.808 247.939C101.077 247.894 101.352 247.951 101.58 248.1C101.808 248.25 101.971 248.48 102.036 248.744C102.101 249.008 102.064 249.287 101.932 249.526C101.801 249.764 101.583 249.943 101.325 250.028C96.4505 251.711 91.5879 253.46 86.7367 255.273L97.4108 261.012C97.6455 261.136 97.8264 261.341 97.919 261.59C98.0116 261.838 98.0094 262.112 97.9128 262.359C97.8163 262.606 97.6322 262.809 97.3956 262.929C97.159 263.049 96.8866 263.077 96.6304 263.009L85.1528 260.094C86.84 263.044 88.114 265.247 89.4339 267.485C89.5612 267.71 89.6038 267.972 89.5541 268.226C89.5044 268.479 89.3656 268.706 89.163 268.865C88.9604 269.025 88.7072 269.107 88.4495 269.096C88.1918 269.085 87.9465 268.982 87.7582 268.805C85.8873 266.969 84.0394 265.156 81.5832 262.722C81.4684 264.547 81.3881 266.108 81.3307 267.577C81.3262 267.848 81.2197 268.108 81.0327 268.304C80.8456 268.5 80.5916 268.618 80.3211 268.636C80.0506 268.653 79.7835 268.568 79.5729 268.397C79.3623 268.227 79.2236 267.983 79.1844 267.715C78.8975 265.97 78.6105 264.123 78.2892 261.907C70.7369 280.076 68.2807 298.636 68.5332 318.148L63.9422 316.392C64.6608 297.384 68.9923 278.687 76.7052 261.299C74.8574 262.596 73.262 263.698 71.9076 264.742C71.692 264.913 71.4191 264.996 71.1448 264.972C70.8705 264.949 70.6155 264.821 70.4322 264.616C70.2488 264.41 70.1509 264.143 70.1585 263.868C70.1661 263.592 70.2785 263.33 70.4729 263.135C71.4485 262.102 72.5044 260.989 73.7555 259.692L65.0784 259.956C64.8121 259.967 64.5513 259.878 64.3463 259.708C64.1413 259.538 64.0066 259.298 63.9681 259.034C63.9296 258.77 63.9901 258.502 64.1379 258.28C64.2857 258.058 64.5103 257.899 64.7685 257.833C67.2592 257.247 69.8531 256.559 73.3308 255.652Z" fill="#CBCBCB"/>
<path d="M44.9938 375.639H79.22C80.3731 375.641 81.4835 375.203 82.3241 374.413C83.1647 373.624 83.6719 372.543 83.7422 371.392L87.3691 312.352C87.5298 309.746 36.684 309.746 36.8677 312.352L40.4946 371.392C40.5646 372.539 41.0686 373.617 41.9043 374.405C42.74 375.194 43.8447 375.635 44.9938 375.639Z" fill="white"/>
<path d="M42.9358 239.228C42.4908 238.861 42.1451 238.388 41.9306 237.852C41.716 237.317 41.6393 236.736 41.7077 236.163L42.4767 229.621L40.7207 232.662C40.4777 233.09 40.146 233.46 39.748 233.748C39.35 234.037 38.8948 234.237 38.4131 234.334C37.9314 234.432 37.4344 234.426 36.9554 234.316C36.4764 234.205 36.0265 233.994 35.6361 233.695L32.1928 231.101L35.3262 236.163C35.7657 236.864 35.938 237.7 35.8115 238.518C35.685 239.336 35.2683 240.081 34.6375 240.616L30.5859 244.06L34.5572 243.153C35.3989 242.956 36.2842 243.082 37.0369 243.507C37.7897 243.933 38.3549 244.626 38.6203 245.448L39.9861 249.626L40.8584 245.173C40.953 244.703 41.1449 244.257 41.4217 243.865C41.6985 243.473 42.0542 243.144 42.466 242.897C42.8777 242.651 43.3364 242.493 43.8126 242.434C44.2888 242.376 44.7721 242.417 45.2313 242.556L47.9056 243.348L42.9358 239.228Z" fill="#E6E6E6"/>
<path d="M65.74 227.956C66.0746 227.684 66.3329 227.329 66.4897 226.927C66.6466 226.524 66.6967 226.088 66.6352 225.661L66.0728 220.875L67.3583 223.101C67.5381 223.41 67.781 223.677 68.0712 223.886C68.3615 224.094 68.6924 224.238 69.0424 224.31C69.3924 224.382 69.7535 224.378 70.1021 224.301C70.4508 224.223 70.7791 224.072 71.0656 223.859L73.5792 221.965L71.2836 225.661C70.9685 226.174 70.8463 226.783 70.9388 227.378C71.0313 227.973 71.3326 228.516 71.7887 228.909L74.7499 231.446L71.846 230.791C71.2323 230.649 70.5872 230.742 70.0388 231.052C69.4904 231.362 69.0785 231.867 68.8848 232.467L67.8863 235.52L67.2435 232.272C67.1747 231.928 67.0352 231.602 66.8339 231.314C66.6326 231.027 66.3738 230.784 66.0739 230.602C65.7739 230.42 65.4395 230.301 65.0916 230.255C64.7437 230.209 64.39 230.235 64.0528 230.332L62.1016 230.906L65.74 227.956Z" fill="#F5F5F5"/>
<path d="M79.2771 255.342C79.5088 255.149 79.6888 254.9 79.801 254.62C79.9132 254.34 79.954 254.036 79.9198 253.736L79.5181 250.292L80.4363 251.888C80.5635 252.111 80.7372 252.305 80.9457 252.456C81.1542 252.607 81.3927 252.712 81.645 252.763C81.8973 252.814 82.1576 252.811 82.4085 252.753C82.6593 252.695 82.8948 252.584 83.0991 252.427L84.9011 251.073L83.2598 253.724C83.0433 254.088 82.9604 254.517 83.0253 254.936C83.0902 255.355 83.2989 255.738 83.6156 256.02L85.7389 257.833L83.6615 257.362C83.2195 257.262 82.7562 257.33 82.3616 257.553C81.967 257.776 81.6694 258.138 81.5267 258.568L80.815 260.76L80.3559 258.464C80.3089 258.216 80.21 257.98 80.0656 257.772C79.9213 257.564 79.7347 257.389 79.5182 257.258C79.3016 257.127 79.0599 257.043 78.8087 257.011C78.5575 256.98 78.3026 257.002 78.0604 257.075L76.6602 257.477L79.2771 255.342Z" fill="#E6E6E6"/>
<path d="M396.032 92.6243H365.996C365.159 92.6243 364.48 93.3026 364.48 94.1393V99.9814C364.48 100.818 365.159 101.496 365.996 101.496H396.032C396.869 101.496 397.547 100.818 397.547 99.9814V94.1393C397.547 93.3026 396.869 92.6243 396.032 92.6243Z" fill="#F5F5F5"/>
<path d="M385.935 103.62H355.898C355.061 103.62 354.383 104.298 354.383 105.135V110.977C354.383 111.814 355.061 112.492 355.898 112.492H385.935C386.771 112.492 387.45 111.814 387.45 110.977V105.135C387.45 104.298 386.771 103.62 385.935 103.62Z" fill="#F5F5F5"/>
<path d="M420.54 103.62H390.503C389.667 103.62 388.988 104.298 388.988 105.135V110.977C388.988 111.814 389.667 112.492 390.503 112.492H420.54C421.377 112.492 422.055 111.814 422.055 110.977V105.135C422.055 104.298 421.377 103.62 420.54 103.62Z" fill="#F0F0F0"/>
<path d="M436.596 22.0024H404.55C403.713 22.0024 403.035 22.6807 403.035 23.5175V29.899C403.035 30.7358 403.713 31.4141 404.55 31.4141H436.596C437.432 31.4141 438.111 30.7358 438.111 29.899V23.5175C438.111 22.6807 437.432 22.0024 436.596 22.0024Z" fill="#F5F5F5"/>
<path d="M436.596 45.3596H404.55C403.713 45.3596 403.035 46.0379 403.035 46.8747V53.2562C403.035 54.0929 403.713 54.7712 404.55 54.7712H436.596C437.432 54.7712 438.111 54.0929 438.111 53.2562V46.8747C438.111 46.0379 437.432 45.3596 436.596 45.3596Z" fill="#F5F5F5"/>
<path d="M425.889 33.6753H393.843C393.006 33.6753 392.328 34.3536 392.328 35.1903V41.5719C392.328 42.4086 393.006 43.0869 393.843 43.0869H425.889C426.725 43.0869 427.404 42.4086 427.404 41.5719V35.1903C427.404 34.3536 426.725 33.6753 425.889 33.6753Z" fill="#F5F5F5"/>
<path d="M462.596 33.6753H430.55C429.713 33.6753 429.035 34.3536 429.035 35.1903V41.5719C429.035 42.4086 429.713 43.0869 430.55 43.0869H462.596C463.432 43.0869 464.111 42.4086 464.111 41.5719V35.1903C464.111 34.3536 463.432 33.6753 462.596 33.6753Z" fill="#F0F0F0"/>
<path d="M205.838 307.886H426.266V301.551H205.838V307.886Z" fill="#CBCBCB"/>
<path d="M424.627 307.886H474.004V301.551H424.627V307.886Z" fill="#CBCBCB"/>
<path d="M228.749 323.289V307.886H218.477L228.749 323.289Z" fill="#E0E0E0"/>
<path d="M223.616 323.289L213.344 307.886H218.474L228.747 323.289H223.616Z" fill="#CBCBCB"/>
<path d="M465.956 323.289V307.886H455.684L465.956 323.289Z" fill="#CBCBCB"/>
<path d="M460.816 323.289L450.555 307.886H455.685L465.958 323.289H460.816Z" fill="#CBCBCB"/>
<path d="M438.723 302.412H444.531C445.149 302.412 445.762 302.288 446.331 302.046C446.901 301.803 447.415 301.449 447.844 301.003C448.273 300.557 448.607 300.029 448.827 299.45C449.046 298.872 449.147 298.255 449.122 297.637L448.387 275.761H434.844L434.109 297.637C434.084 298.257 434.185 298.876 434.406 299.456C434.628 300.036 434.964 300.565 435.395 301.011C435.826 301.457 436.344 301.812 436.916 302.052C437.488 302.293 438.103 302.415 438.723 302.412Z" fill="#F0F0F0"/>
<path d="M414.095 288.562C419.125 283.533 419.125 275.379 414.095 270.35C409.066 265.321 400.912 265.321 395.883 270.35C390.854 275.379 390.854 283.533 395.883 288.562C400.912 293.591 409.066 293.591 414.095 288.562Z" fill="#F0F0F0"/>
<path d="M404.095 302.217H405.885V293.677H404.99C403.088 293.731 401.194 293.403 399.42 292.713C397.647 292.022 396.03 290.983 394.666 289.656C393.301 288.33 392.217 286.743 391.476 284.99C390.735 283.238 390.353 281.354 390.353 279.451C390.353 277.548 390.735 275.664 391.476 273.911C392.217 272.158 393.301 270.572 394.666 269.245C396.03 267.919 397.647 266.88 399.42 266.189C401.194 265.498 403.088 265.17 404.99 265.224V263.434C400.955 263.643 397.148 265.365 394.325 268.255C391.503 271.146 389.873 274.993 389.76 279.032C389.647 283.07 391.06 287.003 393.716 290.047C396.373 293.09 400.078 295.022 404.095 295.456V302.217Z" fill="#EBEBEB"/>
<path d="M397.421 302.412H412.733C412.733 301.498 412.37 300.622 411.724 299.977C411.078 299.331 410.202 298.968 409.289 298.968H400.842C399.929 298.968 399.053 299.331 398.407 299.977C397.761 300.622 397.398 301.498 397.398 302.412H397.421Z" fill="#EBEBEB"/>
<path d="M439.593 302.412L427.496 290.314L415.387 302.412H439.593Z" fill="#CBCBCB"/>
<path d="M427.496 290.314L439.593 302.412H427.496V290.314Z" fill="#CBCBCB"/>
<path d="M343.146 286.584C343.204 287.732 343.238 288.639 343.238 289.247C343.24 291.754 342.695 294.23 341.64 296.504C340.585 298.778 339.047 300.794 337.132 302.412H315.864C313.95 300.792 312.413 298.773 311.36 296.498C310.307 294.222 309.765 291.743 309.77 289.236C309.77 288.627 309.77 287.721 309.861 286.573L343.146 286.584Z" fill="#F5F5F5"/>
<path d="M340.211 295.996C340.21 297.217 340.476 298.424 340.989 299.532C341.503 300.64 342.252 301.623 343.184 302.412H353.513C354.698 301.399 355.583 300.081 356.073 298.601C356.279 298.619 356.487 298.619 356.693 298.601C358.77 298.601 361.089 296.948 361.089 294.745C361.089 292.541 359.757 290.877 357.772 290.877C357.311 290.88 356.854 290.958 356.417 291.106V290.957C356.411 290.422 356.195 289.911 355.814 289.535C355.434 289.159 354.921 288.948 354.386 288.948H342.277C341.742 288.948 341.229 289.159 340.848 289.535C340.468 289.911 340.251 290.422 340.245 290.957C340.211 293.321 340.211 295.204 340.211 295.996ZM356.394 297.339C356.477 296.896 356.519 296.446 356.521 295.996C356.521 295.387 356.521 294.125 356.521 292.552C356.94 292.365 357.393 292.264 357.852 292.254C359.734 292.254 359.884 294.217 359.884 294.825C359.884 296.248 358.185 297.385 356.773 297.385C356.634 297.388 356.495 297.372 356.36 297.339H356.394Z" fill="#EBEBEB"/>
<path d="M244.3 302.412L245.987 283.026H221.414L219.715 302.412H244.3Z" fill="#F0F0F0"/>
<path d="M244.305 302.412L245.992 283.026H247.323L245.625 302.412H244.305Z" fill="#E0E0E0"/>
<path d="M241.96 300.438L243.314 285H223.745L222.391 300.438H241.96Z" fill="#FAFAFA"/>
<path d="M240.469 299.163L241.594 286.274H225.25L224.113 299.163H240.469Z" fill="#EBEBEB"/>
<path d="M272.005 302.411H247.316L250.048 271.089H274.748L272.005 302.411Z" fill="#F0F0F0"/>
<path d="M272.004 302.411H273.186L275.929 271.089H274.747L272.004 302.411Z" fill="#E0E0E0"/>
<path d="M269.771 299.221H250.109L252.29 274.292H271.951L269.771 299.221Z" fill="#E0E0E0"/>
<path d="M268.331 297.166H251.906L253.731 276.334H270.156L268.331 297.166Z" fill="#FAFAFA"/>
<path d="M256.48 287.634L258.095 289.249C259.52 290.675 261.831 290.675 263.257 289.249L264.872 287.634C266.297 286.209 266.297 283.898 264.872 282.473L263.257 280.858C261.831 279.432 259.52 279.432 258.095 280.858L256.48 282.473C255.054 283.898 255.054 286.209 256.48 287.634Z" fill="#EBEBEB"/>
<path d="M255.678 293.626L256.474 294.421C257.899 295.846 260.21 295.846 261.636 294.421L262.431 293.626C263.856 292.2 263.856 289.889 262.431 288.464L261.636 287.669C260.21 286.243 257.899 286.243 256.474 287.669L255.678 288.464C254.253 289.889 254.253 292.2 255.678 293.626Z" fill="#E6E6E6"/>
<path d="M34.2024 78.9426H69.2779C70.1147 78.9426 70.793 78.2643 70.793 77.4276V70.2311C70.793 69.3944 70.1147 68.7161 69.2779 68.7161H34.2024C33.3657 68.7161 32.6874 69.3944 32.6874 70.2311V77.4276C32.6874 78.2643 33.3657 78.9426 34.2024 78.9426Z" fill="#F5F5F5"/>
<path d="M51.9954 66.2715H87.0709C87.9076 66.2715 88.5859 65.5932 88.5859 64.7564V57.56C88.5859 56.7233 87.9076 56.0449 87.0709 56.0449L51.9954 56.0449C51.1586 56.0449 50.4803 56.7233 50.4803 57.56V64.7564C50.4803 65.5932 51.1586 66.2715 51.9954 66.2715Z" fill="#F5F5F5"/>
<path d="M12.1204 66.2715H47.1959C48.0326 66.2715 48.7109 65.5932 48.7109 64.7564V57.56C48.7109 56.7233 48.0326 56.0449 47.1959 56.0449L12.1204 56.0449C11.2836 56.0449 10.6053 56.7233 10.6053 57.56V64.7564C10.6053 65.5932 11.2836 66.2715 12.1204 66.2715Z" fill="#F0F0F0"/>
<path d="M241.5 423.248C364.405 423.248 464.039 417.431 464.039 410.256C464.039 403.08 364.405 397.263 241.5 397.263C118.595 397.263 18.9609 403.08 18.9609 410.256C18.9609 417.431 118.595 423.248 241.5 423.248Z" fill="white"/>
<path d="M405.331 30.4614H338.187C326.378 30.4614 316.805 40.0348 316.805 51.8442V234.085C316.805 245.895 326.378 255.468 338.187 255.468H405.331C417.141 255.468 426.714 245.895 426.714 234.085V51.8442C426.714 40.0348 417.141 30.4614 405.331 30.4614Z" fill="white"/>
<path d="M426.714 41.4914V86.0819H316.805V41.4914C316.805 40.042 317.09 38.6067 317.645 37.2678C318.2 35.9288 319.014 34.7124 320.039 33.688C321.065 32.6636 322.282 31.8514 323.622 31.2977C324.961 30.7441 326.397 30.4599 327.846 30.4614H415.673C418.599 30.4614 421.406 31.6231 423.476 33.6913C425.546 35.7595 426.711 38.565 426.714 41.4914Z" fill="#FC5546"/>
<path d="M347.897 54.4841C347.897 56.6878 346.268 58.0421 343.639 58.0421H341.344V60.923H339.484V50.926H343.651C346.268 50.926 347.897 52.2689 347.897 54.4841ZM346.027 54.4841C346.027 53.233 345.189 52.4985 343.559 52.4985H341.355V56.4697H343.525C345.189 56.4697 346.027 55.7351 346.027 54.4841Z" fill="white"/>
<path d="M353.982 53.2099V54.9086H353.568C353.265 54.8866 352.96 54.9316 352.676 55.0404C352.392 55.1492 352.135 55.319 351.924 55.538C351.712 55.757 351.552 56.0197 351.453 56.3076C351.355 56.5955 351.32 56.9015 351.353 57.2041V60.8999H349.574V53.3017H351.273V54.4494C351.575 54.0228 351.985 53.6835 352.461 53.4659C352.936 53.2482 353.461 53.1599 353.982 53.2099Z" fill="white"/>
<path d="M362.495 57.6863H356.515C356.629 58.2414 356.944 58.7349 357.399 59.0718C357.855 59.4087 358.419 59.5652 358.983 59.5112C359.368 59.5249 359.751 59.4586 360.108 59.3163C360.466 59.174 360.79 58.959 361.06 58.6849L362.013 59.7752C361.437 60.3518 360.709 60.7517 359.914 60.9277C359.118 61.1036 358.289 61.0484 357.524 60.7685C356.759 60.4885 356.09 59.9955 355.596 59.3477C355.102 58.6999 354.804 57.9243 354.736 57.1124C354.72 56.5926 354.811 56.0751 355.004 55.592C355.196 55.109 355.486 54.6708 355.856 54.3047C356.225 53.9386 356.666 53.6524 357.15 53.4641C357.635 53.2758 358.153 53.1893 358.673 53.21C359.193 53.1898 359.711 53.2787 360.194 53.4712C360.677 53.6637 361.115 53.9554 361.478 54.3275C361.842 54.6996 362.123 55.1438 362.304 55.6314C362.485 56.119 362.562 56.6392 362.53 57.1583C362.53 57.2961 362.507 57.5141 362.495 57.6863ZM356.504 56.5385H360.865C360.781 56.0252 360.518 55.5584 360.121 55.2216C359.725 54.8848 359.222 54.6999 358.702 54.6999C358.182 54.6999 357.678 54.8848 357.282 55.2216C356.886 55.5584 356.622 56.0252 356.538 56.5385H356.504Z" fill="white"/>
<path d="M376.994 56.5499V60.9229H375.203V56.7794C375.203 55.4251 374.572 54.7709 373.493 54.7709C372.414 54.7709 371.507 55.5399 371.507 57.0664V60.9343H369.728V56.7794C369.728 55.4251 369.097 54.7709 368.007 54.7709C366.916 54.7709 366.021 55.5399 366.021 57.0664V60.9343H364.242V53.3017H365.941V54.2658C366.255 53.9166 366.641 53.6409 367.074 53.4584C367.506 53.2759 367.974 53.191 368.443 53.2099C368.944 53.1764 369.445 53.2768 369.895 53.5006C370.345 53.7245 370.727 54.0638 371.002 54.4839C371.351 54.0691 371.79 53.7389 372.285 53.5183C372.78 53.2976 373.319 53.1921 373.86 53.2099C375.708 53.2099 376.994 54.2544 376.994 56.5499Z" fill="white"/>
<path d="M379.027 50.9716C379.048 50.6813 379.178 50.4096 379.391 50.2115C379.604 50.0133 379.884 49.9035 380.175 49.9042C380.318 49.8916 380.463 49.9085 380.599 49.9537C380.736 49.999 380.862 50.0716 380.969 50.1673C381.077 50.263 381.164 50.3796 381.224 50.51C381.285 50.6404 381.319 50.7819 381.323 50.9257C381.323 51.2301 381.202 51.522 380.987 51.7373C380.771 51.9525 380.48 52.0734 380.175 52.0734C379.871 52.0734 379.579 51.9525 379.363 51.7373C379.148 51.522 379.027 51.2301 379.027 50.9257V50.9716ZM379.28 53.2671H381.059V60.8882H379.234L379.28 53.2671Z" fill="white"/>
<path d="M390.78 53.3018V60.9229H389.082V59.9473C388.778 60.2984 388.4 60.5774 387.976 60.764C387.551 60.9506 387.089 61.0402 386.626 61.0262C386.176 61.0691 385.722 61.0105 385.298 60.8547C384.874 60.6989 384.49 60.4499 384.175 60.1261C383.86 59.8022 383.622 59.4118 383.478 58.9835C383.334 58.5553 383.288 58.1002 383.343 57.6518V53.3018H385.122V57.3878C385.122 58.7766 385.788 59.4308 386.913 59.4308C387.208 59.444 387.503 59.3918 387.776 59.2779C388.049 59.164 388.293 58.9913 388.492 58.772C388.69 58.5527 388.838 58.2923 388.924 58.0094C389.01 57.7264 389.033 57.428 388.99 57.1353V53.3018H390.78Z" fill="white"/>
<path d="M405.857 56.5502V60.9231H404.078V56.7797C404.078 55.4254 403.447 54.7711 402.368 54.7711C401.289 54.7711 400.382 55.5401 400.382 57.0666V60.9346H398.592V56.7797C398.592 55.4254 397.972 54.7711 396.882 54.7711C395.791 54.7711 394.896 55.5401 394.896 57.0666V60.9346H393.117V53.302H394.816V54.2661C395.13 53.9169 395.516 53.6412 395.949 53.4587C396.381 53.2761 396.849 53.1913 397.318 53.2102C397.821 53.1746 398.325 53.2739 398.777 53.4979C399.228 53.7219 399.612 54.0623 399.889 54.4842C400.238 54.0694 400.676 53.7392 401.171 53.5185C401.666 53.2978 402.205 53.1924 402.747 53.2102C404.583 53.2102 405.857 54.2546 405.857 56.5502Z" fill="white"/>
<path d="M394.705 220.06H348.817C342.58 220.06 337.523 225.116 337.523 231.354V232.215C337.523 238.452 342.58 243.509 348.817 243.509H394.705C400.942 243.509 405.999 238.452 405.999 232.215V231.354C405.999 225.116 400.942 220.06 394.705 220.06Z" fill="#FC5546"/>
<path d="M353.98 233.592C353.98 235.715 352.27 237.15 349.596 237.368L349.24 239.136H347.633L347.989 237.368C346.675 237.287 345.405 236.864 344.305 236.14L345.372 234.143C346.263 234.786 347.309 235.182 348.402 235.291L348.953 232.582C347.461 232.123 345.82 231.537 345.82 229.598C345.82 227.463 347.576 226.017 350.296 225.822L350.652 224.065H352.259L351.903 225.844C352.94 225.928 353.947 226.238 354.853 226.751L353.877 228.748C353.162 228.278 352.342 227.99 351.49 227.91L350.927 230.734C352.408 231.17 353.98 231.744 353.98 233.592ZM349.389 230.286L349.848 227.991C348.942 228.163 348.425 228.656 348.414 229.265C348.402 229.873 348.838 230.045 349.389 230.286ZM351.375 234.005C351.375 233.534 351.008 233.247 350.445 233.041L350.009 235.233C350.904 235.061 351.398 234.613 351.398 234.005H351.375Z" fill="white"/>
<path d="M398.937 172.095H342.203V174.39H398.937V172.095Z" fill="#FC5546"/>
<path d="M398.937 134.403H342.203V136.698H398.937V134.403Z" fill="#FC5546"/>
<path d="M398.937 98.0645H342.203V100.36H398.937V98.0645Z" fill="#FC5546"/>
<path d="M377.103 124.274C380.958 120.419 380.958 114.169 377.103 110.315C373.248 106.46 366.998 106.46 363.144 110.315C359.289 114.169 359.289 120.419 363.144 124.274C366.998 128.129 373.248 128.129 377.103 124.274Z" fill="#FC5546"/>
<path d="M377.172 115.155L371.502 120.825L368.851 123.476L366.199 120.825L368.851 118.185L374.52 112.503L377.172 115.155Z" fill="white"/>
<path d="M371.502 120.825L368.851 123.476L363.227 117.852L365.878 115.212L368.851 118.185L371.502 120.825Z" fill="white"/>
<path d="M370.125 163.579C375.576 163.579 379.995 159.159 379.995 153.708C379.995 148.256 375.576 143.837 370.125 143.837C364.673 143.837 360.254 148.256 360.254 153.708C360.254 159.159 364.673 163.579 370.125 163.579Z" fill="#FC5546"/>
<path d="M377.172 151.573L371.502 157.255L368.851 159.906L366.199 157.255L368.851 154.603L374.52 148.922L377.172 151.573Z" fill="white"/>
<path d="M371.502 157.255L368.851 159.906L363.227 154.282L365.878 151.631L368.851 154.603L371.502 157.255Z" fill="white"/>
<path d="M370.125 202.637C375.576 202.637 379.995 198.218 379.995 192.766C379.995 187.315 375.576 182.896 370.125 182.896C364.673 182.896 360.254 187.315 360.254 192.766C360.254 198.218 364.673 202.637 370.125 202.637Z" fill="#FC5546"/>
<path d="M377.172 190.631L371.502 196.301L368.851 198.953L366.199 196.301L368.851 193.661L374.52 187.98L377.172 190.631Z" fill="white"/>
<path d="M371.502 196.302L368.851 198.953L363.227 193.329L365.878 190.689L368.851 193.662L371.502 196.302Z" fill="white"/>
<path d="M357.183 70.3115L359.031 73.2727L362.405 74.1106L360.167 76.7734L360.408 80.2511L357.183 78.9542L353.946 80.2511L354.187 76.7734L351.949 74.1106L355.335 73.2727L357.183 70.3115Z" fill="white"/>
<path d="M370.121 70.3115L371.969 73.2727L375.355 74.1106L373.116 76.7734L373.357 80.2511L370.121 78.9542L366.896 80.2511L367.137 76.7734L364.898 74.1106L368.273 73.2727L370.121 70.3115Z" fill="white"/>
<path d="M383.066 70.3115L384.902 73.2727L388.288 74.1106L386.05 76.7734L386.291 80.2511L383.066 78.9542L379.829 80.2511L380.07 76.7734L377.832 74.1106L381.218 73.2727L383.066 70.3115Z" fill="white"/>
<path d="M276.195 17.6523H209.051C197.241 17.6523 187.668 27.2257 187.668 39.0351V221.276C187.668 233.086 197.241 242.659 209.051 242.659H276.195C288.004 242.659 297.577 233.086 297.577 221.276V39.0351C297.577 27.2257 288.004 17.6523 276.195 17.6523Z" fill="white"/>
<path d="M297.589 28.6938V73.3072H187.668V28.6938C187.668 25.7654 188.831 22.957 190.902 20.8863C192.973 18.8156 195.781 17.6523 198.709 17.6523H286.536C289.465 17.6523 292.275 18.8153 294.347 20.8856C296.42 22.956 297.586 25.7644 297.589 28.6938Z" fill="#FC5546"/>
<path d="M210.34 47.0579L210.983 45.6117C211.927 46.341 213.083 46.7438 214.277 46.7595C215.826 46.7595 216.492 46.2086 216.492 45.4625C216.492 43.3047 210.546 44.7165 210.546 41.0092C210.546 39.3909 211.832 38.0251 214.575 38.0251C215.745 38.0055 216.897 38.3114 217.904 38.9088L217.318 40.355C216.485 39.8556 215.535 39.5826 214.564 39.5631C213.014 39.5631 212.394 40.1714 212.394 40.9289C212.394 43.0522 218.317 41.6635 218.317 45.3363C218.317 46.9317 217.02 48.309 214.277 48.309C212.862 48.3365 211.479 47.8968 210.34 47.0579Z" fill="white"/>
<path d="M224.566 47.7008C224.063 48.0552 223.459 48.2364 222.844 48.2173C222.492 48.2722 222.131 48.244 221.791 48.1352C221.451 48.0263 221.141 47.8396 220.886 47.5901C220.631 47.3405 220.438 47.0348 220.321 46.6974C220.205 46.36 220.169 46.0001 220.216 45.6463V41.9735H218.965V40.5503H220.216V38.8057H221.983V40.5503H224.026V41.9735H221.983V45.6004C221.983 46.3464 222.351 46.7482 223.039 46.7482C223.399 46.7567 223.751 46.6434 224.038 46.4268L224.566 47.7008Z" fill="white"/>
<path d="M232.421 43.6147V48.0795H230.734V47.1498C230.452 47.5086 230.085 47.7911 229.666 47.9716C229.247 48.152 228.789 48.2246 228.335 48.1828C226.59 48.1828 225.488 47.2187 225.488 45.8873C225.488 44.5559 226.349 43.5917 228.656 43.5917H230.63V43.477C230.63 42.4325 229.999 41.8242 228.736 41.8242C227.909 41.8192 227.103 42.0853 226.441 42.5817L225.718 41.3192C226.664 40.6664 227.795 40.3364 228.943 40.378C231.17 40.4125 232.421 41.4454 232.421 43.6147ZM230.63 45.6922V44.8084H228.794C227.577 44.8084 227.244 45.2675 227.244 45.8299C227.244 46.3923 227.795 46.8858 228.702 46.8858C229.104 46.917 229.506 46.8221 229.851 46.6143C230.197 46.4066 230.469 46.0963 230.63 45.7266V45.6922Z" fill="white"/>
<path d="M242.209 43.7527V48.1142H240.419V43.9708C240.419 42.6164 239.753 41.9622 238.605 41.9622C238.307 41.944 238.008 41.9924 237.73 42.1039C237.453 42.2154 237.203 42.3872 237 42.6068C236.797 42.8265 236.645 43.0885 236.555 43.374C236.466 43.6595 236.441 43.9614 236.482 44.2577V48.1142H234.703V40.493H236.402V41.4801C236.731 41.1192 237.137 40.8361 237.59 40.6515C238.043 40.4669 238.531 40.3853 239.019 40.4127C239.46 40.3767 239.904 40.4396 240.317 40.5969C240.731 40.7543 241.104 41.002 241.41 41.3221C241.716 41.6422 241.946 42.0265 242.085 42.447C242.223 42.8675 242.266 43.3136 242.209 43.7527Z" fill="white"/>
<path d="M252.009 37.52V48.1138H250.299V47.1268C249.989 47.4893 249.6 47.776 249.163 47.965C248.725 48.154 248.25 48.2403 247.773 48.2171C246.738 48.2171 245.746 47.806 245.014 47.0742C244.282 46.3423 243.871 45.3497 243.871 44.3148C243.871 43.2798 244.282 42.2872 245.014 41.5554C245.746 40.8235 246.738 40.4124 247.773 40.4124C248.233 40.3912 248.691 40.4718 249.116 40.6484C249.54 40.825 249.921 41.0932 250.23 41.4339V37.52H252.009ZM250.253 44.3033C250.235 43.8536 250.085 43.4192 249.822 43.0539C249.559 42.6887 249.195 42.4088 248.774 42.2491C248.353 42.0893 247.895 42.0568 247.456 42.1554C247.017 42.2541 246.616 42.4797 246.304 42.8041C245.992 43.1284 245.783 43.5374 245.701 43.98C245.62 44.4226 245.67 44.8793 245.847 45.2935C246.023 45.7076 246.317 46.0608 246.692 46.3092C247.067 46.5576 247.507 46.6903 247.957 46.6906C248.269 46.7011 248.58 46.6458 248.87 46.5283C249.159 46.4108 249.42 46.2337 249.637 46.0085C249.853 45.7834 250.02 45.5152 250.126 45.2214C250.232 44.9276 250.275 44.6148 250.253 44.3033Z" fill="white"/>
<path d="M260.733 43.6147V48.0795H259.046V47.1498C258.767 47.511 258.4 47.7953 257.98 47.976C257.561 48.1567 257.102 48.2278 256.647 48.1828C254.914 48.1828 253.812 47.2187 253.812 45.8873C253.812 44.5559 254.662 43.5917 256.98 43.5917H258.954V43.477C258.954 42.4325 258.323 41.8242 257.049 41.8242C256.221 41.8166 255.414 42.083 254.754 42.5817L254.042 41.3192C254.988 40.6664 256.119 40.3364 257.267 40.378C259.459 40.4125 260.733 41.4454 260.733 43.6147ZM258.954 45.6922V44.8084H257.107C255.89 44.8084 255.569 45.2675 255.569 45.8299C255.569 46.3923 256.108 46.8858 257.026 46.8858C257.428 46.9153 257.829 46.8197 258.174 46.6121C258.519 46.4045 258.792 46.0952 258.954 45.7266V45.6922Z" fill="white"/>
<path d="M267.423 40.4123V42.111C267.286 42.0954 267.147 42.0954 267.01 42.111C266.701 42.0876 266.391 42.1336 266.102 42.2457C265.813 42.3577 265.553 42.5329 265.34 42.7585C265.128 42.9841 264.969 43.2543 264.874 43.5494C264.78 43.8445 264.753 44.157 264.795 44.4639V48.1597H263.016V40.4927H264.714V41.6404C265.02 41.2176 265.43 40.8819 265.905 40.6665C266.381 40.4511 266.904 40.3635 267.423 40.4123Z" fill="white"/>
<path d="M276.333 37.52V48.1138H274.623V47.1268C274.313 47.4893 273.924 47.776 273.487 47.965C273.049 48.154 272.574 48.2403 272.098 48.2171C271.063 48.2171 270.07 47.806 269.338 47.0742C268.606 46.3423 268.195 45.3497 268.195 44.3148C268.195 43.2798 268.606 42.2872 269.338 41.5554C270.07 40.8235 271.063 40.4124 272.098 40.4124C272.557 40.3904 273.016 40.4707 273.441 40.6473C273.865 40.8239 274.245 41.0926 274.554 41.4339V37.52H276.333ZM274.577 44.3033C274.559 43.8536 274.409 43.4192 274.146 43.0539C273.883 42.6887 273.519 42.4088 273.098 42.2491C272.677 42.0893 272.219 42.0568 271.78 42.1554C271.341 42.2541 270.94 42.4797 270.628 42.8041C270.317 43.1284 270.107 43.5374 270.025 43.98C269.944 44.4226 269.995 44.8793 270.171 45.2935C270.347 45.7076 270.641 46.0608 271.016 46.3092C271.391 46.5576 271.831 46.6903 272.281 46.6906C272.594 46.7011 272.904 46.6458 273.194 46.5283C273.483 46.4108 273.745 46.2337 273.961 46.0085C274.178 45.7834 274.344 45.5152 274.45 45.2214C274.556 44.9276 274.6 44.6148 274.577 44.3033Z" fill="white"/>
<path d="M266.498 207.262H220.61C214.373 207.262 209.316 212.319 209.316 218.556V219.417C209.316 225.654 214.373 230.711 220.61 230.711H266.498C272.735 230.711 277.792 225.654 277.792 219.417V218.556C277.792 212.319 272.735 207.262 266.498 207.262Z" fill="#FC5546"/>
<path d="M270.742 159.286H214.008V161.581H270.742V159.286Z" fill="#FC5546"/>
<path d="M270.742 121.593H214.008V123.889H270.742V121.593Z" fill="#FC5546"/>
<path d="M270.742 85.2554H214.008V87.5509H270.742V85.2554Z" fill="#FC5546"/>
<path d="M251.102 143.16C252.354 137.854 249.068 132.538 243.763 131.286C238.457 130.034 233.141 133.319 231.888 138.625C230.636 143.931 233.922 149.247 239.228 150.499C244.534 151.752 249.85 148.466 251.102 143.16Z" fill="#FC5546"/>
<path d="M248.582 138.764L242.9 144.445L240.249 147.097L237.598 144.445L240.249 141.794L245.93 136.113L248.582 138.764Z" fill="white"/>
<path d="M242.901 144.445L240.249 147.097L234.637 141.473L237.277 138.821L240.249 141.794L242.901 144.445Z" fill="white"/>
<path d="M246.155 189.081C251.191 186.994 253.583 181.22 251.497 176.184C249.41 171.147 243.636 168.756 238.6 170.842C233.563 172.928 231.172 178.702 233.258 183.738C235.344 188.775 241.118 191.167 246.155 189.081Z" fill="#FC5546"/>
<path d="M249.437 177.822L243.756 183.504L241.104 186.155L238.453 183.504L241.104 180.852L246.786 175.171L249.437 177.822Z" fill="white"/>
<path d="M243.764 183.504L241.113 186.155L235.5 180.531L238.14 177.88L241.113 180.852L243.764 183.504Z" fill="white"/>
<path d="M241.51 114.34C246.904 114.34 251.277 109.967 251.277 104.572C251.277 99.178 246.904 94.8049 241.51 94.8049C236.115 94.8049 231.742 99.178 231.742 104.572C231.742 109.967 236.115 114.34 241.51 114.34Z" fill="#263238"/>
<path opacity="0.5" d="M241.51 114.34C246.904 114.34 251.277 109.967 251.277 104.572C251.277 99.178 246.904 94.8049 241.51 94.8049C236.115 94.8049 231.742 99.178 231.742 104.572C231.742 109.967 236.115 114.34 241.51 114.34Z" fill="white"/>
<path d="M244.408 99.0658L235.992 107.482L238.614 110.103L247.03 101.687L244.408 99.0658Z" fill="white"/>
<path d="M235.99 101.68L244.406 110.096L247.028 107.475L238.612 99.0588L235.99 101.68Z" fill="white"/>
<path d="M286.602 30.0024V56.1943L292.134 50.6621V30.0024H286.602Z" fill="#407BFF"/>
<path d="M297.657 30.0024V56.1943L292.137 50.6621V30.0024H297.657Z" fill="#407BFF"/>
<g opacity="0.3">
<path d="M297.666 29.991V56.2058L292.134 50.6621L286.602 56.2058V29.991H297.666Z" fill="black"/>
</g>
<path d="M294.836 3.81009C295.215 4.52671 295.859 5.06757 296.63 5.31821C297.401 5.56884 298.24 5.50958 298.968 5.15297C299.481 4.89419 300.055 4.78137 300.627 4.82682C301.2 4.87228 301.749 5.07427 302.215 5.41072C302.68 5.74717 303.045 6.20513 303.267 6.73455C303.49 7.26397 303.563 7.84447 303.479 8.41261C303.368 9.21537 303.573 10.0296 304.051 10.6845C304.528 11.3394 305.24 11.7839 306.038 11.9248C306.601 12.025 307.126 12.2772 307.555 12.6542C307.985 13.0312 308.304 13.5186 308.476 14.0636C308.649 14.6086 308.669 15.1904 308.535 15.746C308.4 16.3017 308.116 16.81 307.714 17.2159C307.151 17.7999 306.836 18.5796 306.836 19.3909C306.836 20.2022 307.151 20.9819 307.714 21.5659C308.11 21.9748 308.388 22.484 308.517 23.0389C308.646 23.5937 308.621 24.1732 308.445 24.7149C308.269 25.2567 307.949 25.7403 307.519 26.1137C307.089 26.4871 306.565 26.7362 306.004 26.8341C305.217 26.9828 304.516 27.4272 304.047 28.0761C303.577 28.7251 303.374 29.5292 303.479 30.3233C303.559 30.8869 303.485 31.4618 303.263 31.9863C303.042 32.5108 302.682 32.965 302.221 33.3001C301.761 33.6352 301.218 33.8387 300.651 33.8885C300.084 33.9383 299.514 33.8327 299.002 33.583C298.274 33.2264 297.436 33.1671 296.664 33.4177C295.893 33.6684 295.25 34.2092 294.87 34.9259C294.603 35.4276 294.205 35.8473 293.718 36.14C293.23 36.4326 292.673 36.5872 292.104 36.5872C291.536 36.5872 290.978 36.4326 290.491 36.14C290.004 35.8473 289.605 35.4276 289.338 34.9259C288.954 34.1898 288.294 33.6355 287.503 33.3839C286.712 33.1324 285.853 33.2039 285.114 33.583C284.603 33.8327 284.033 33.9383 283.466 33.8885C282.899 33.8387 282.356 33.6352 281.896 33.3001C281.435 32.965 281.075 32.5108 280.854 31.9863C280.632 31.4618 280.558 30.8869 280.638 30.3233C280.751 29.5201 280.548 28.7044 280.07 28.0488C279.592 27.3932 278.878 26.9494 278.079 26.8112C277.52 26.7096 276.999 26.4586 276.571 26.0848C276.144 25.711 275.825 25.2283 275.65 24.688C275.474 24.1477 275.449 23.57 275.575 23.0163C275.702 22.4625 275.976 21.9534 276.369 21.543C276.932 20.959 277.246 20.1793 277.246 19.368C277.246 18.5567 276.932 17.777 276.369 17.193C275.976 16.7825 275.702 16.2734 275.575 15.7197C275.449 15.1659 275.474 14.5882 275.65 14.0479C275.825 13.5077 276.144 13.025 276.571 12.6512C276.999 12.2773 277.52 12.0263 278.079 11.9248C278.878 11.7866 279.592 11.3427 280.07 10.6871C280.548 10.0316 280.751 9.21583 280.638 8.41261C280.558 7.84902 280.632 7.27412 280.854 6.74966C281.075 6.22519 281.435 5.77099 281.896 5.43585C282.356 5.10071 282.899 4.89729 283.466 4.84745C284.033 4.79761 284.603 4.90324 285.114 5.15297C285.845 5.50719 286.684 5.56522 287.456 5.31494C288.229 5.06465 288.874 4.52543 289.258 3.81009C289.521 3.29666 289.92 2.86576 290.412 2.56486C290.905 2.26396 291.47 2.10474 292.047 2.10474C292.624 2.10474 293.189 2.26396 293.681 2.56486C294.174 2.86576 294.573 3.29666 294.836 3.81009Z" fill="#407BFF"/>
<path d="M294.836 3.81009C295.215 4.52671 295.859 5.06757 296.63 5.31821C297.401 5.56884 298.24 5.50958 298.968 5.15297C299.481 4.89419 300.055 4.78137 300.627 4.82682C301.2 4.87228 301.749 5.07427 302.215 5.41072C302.68 5.74717 303.045 6.20513 303.267 6.73455C303.49 7.26397 303.563 7.84447 303.479 8.41261C303.368 9.21537 303.573 10.0296 304.051 10.6845C304.528 11.3394 305.24 11.7839 306.038 11.9248C306.601 12.025 307.126 12.2772 307.555 12.6542C307.985 13.0312 308.304 13.5186 308.476 14.0636C308.649 14.6086 308.669 15.1904 308.535 15.746C308.4 16.3017 308.116 16.81 307.714 17.2159C307.151 17.7999 306.836 18.5796 306.836 19.3909C306.836 20.2022 307.151 20.9819 307.714 21.5659C308.11 21.9748 308.388 22.484 308.517 23.0389C308.646 23.5937 308.621 24.1732 308.445 24.7149C308.269 25.2567 307.949 25.7403 307.519 26.1137C307.089 26.4871 306.565 26.7362 306.004 26.8341C305.217 26.9828 304.516 27.4272 304.047 28.0761C303.577 28.7251 303.374 29.5292 303.479 30.3233C303.559 30.8869 303.485 31.4618 303.263 31.9863C303.042 32.5108 302.682 32.965 302.221 33.3001C301.761 33.6352 301.218 33.8387 300.651 33.8885C300.084 33.9383 299.514 33.8327 299.002 33.583C298.274 33.2264 297.436 33.1671 296.664 33.4177C295.893 33.6684 295.25 34.2092 294.87 34.9259C294.603 35.4276 294.205 35.8473 293.718 36.14C293.23 36.4326 292.673 36.5872 292.104 36.5872C291.536 36.5872 290.978 36.4326 290.491 36.14C290.004 35.8473 289.605 35.4276 289.338 34.9259C288.954 34.1898 288.294 33.6355 287.503 33.3839C286.712 33.1324 285.853 33.2039 285.114 33.583C284.603 33.8327 284.033 33.9383 283.466 33.8885C282.899 33.8387 282.356 33.6352 281.896 33.3001C281.435 32.965 281.075 32.5108 280.854 31.9863C280.632 31.4618 280.558 30.8869 280.638 30.3233C280.751 29.5201 280.548 28.7044 280.07 28.0488C279.592 27.3932 278.878 26.9494 278.079 26.8112C277.52 26.7096 276.999 26.4586 276.571 26.0848C276.144 25.711 275.825 25.2283 275.65 24.688C275.474 24.1477 275.449 23.57 275.575 23.0163C275.702 22.4625 275.976 21.9534 276.369 21.543C276.932 20.959 277.246 20.1793 277.246 19.368C277.246 18.5567 276.932 17.777 276.369 17.193C275.976 16.7825 275.702 16.2734 275.575 15.7197C275.449 15.1659 275.474 14.5882 275.65 14.0479C275.825 13.5077 276.144 13.025 276.571 12.6512C276.999 12.2773 277.52 12.0263 278.079 11.9248C278.878 11.7866 279.592 11.3427 280.07 10.6871C280.548 10.0316 280.751 9.21583 280.638 8.41261C280.558 7.84902 280.632 7.27412 280.854 6.74966C281.075 6.22519 281.435 5.77099 281.896 5.43585C282.356 5.10071 282.899 4.89729 283.466 4.84745C284.033 4.79761 284.603 4.90324 285.114 5.15297C285.845 5.50719 286.684 5.56522 287.456 5.31494C288.229 5.06465 288.874 4.52543 289.258 3.81009C289.521 3.29666 289.92 2.86576 290.412 2.56486C290.905 2.26396 291.47 2.10474 292.047 2.10474C292.624 2.10474 293.189 2.26396 293.681 2.56486C294.174 2.86576 294.573 3.29666 294.836 3.81009Z" fill="#407BFF"/>
<g opacity="0.5">
<path d="M294.836 3.81009C295.215 4.52671 295.859 5.06757 296.63 5.31821C297.401 5.56884 298.24 5.50958 298.968 5.15297C299.481 4.89419 300.055 4.78137 300.627 4.82682C301.2 4.87228 301.749 5.07427 302.215 5.41072C302.68 5.74717 303.045 6.20513 303.267 6.73455C303.49 7.26397 303.563 7.84447 303.479 8.41261C303.368 9.21537 303.573 10.0296 304.051 10.6845C304.528 11.3394 305.24 11.7839 306.038 11.9248C306.601 12.025 307.126 12.2772 307.555 12.6542C307.985 13.0312 308.304 13.5186 308.476 14.0636C308.649 14.6086 308.669 15.1904 308.535 15.746C308.4 16.3017 308.116 16.81 307.714 17.2159C307.151 17.7999 306.836 18.5796 306.836 19.3909C306.836 20.2022 307.151 20.9819 307.714 21.5659C308.11 21.9748 308.388 22.484 308.517 23.0389C308.646 23.5937 308.621 24.1732 308.445 24.7149C308.269 25.2567 307.949 25.7403 307.519 26.1137C307.089 26.4871 306.565 26.7362 306.004 26.8341C305.217 26.9828 304.516 27.4272 304.047 28.0761C303.577 28.7251 303.374 29.5292 303.479 30.3233C303.559 30.8869 303.485 31.4618 303.263 31.9863C303.042 32.5108 302.682 32.965 302.221 33.3001C301.761 33.6352 301.218 33.8387 300.651 33.8885C300.084 33.9383 299.514 33.8327 299.002 33.583C298.274 33.2264 297.436 33.1671 296.664 33.4177C295.893 33.6684 295.25 34.2092 294.87 34.9259C294.603 35.4276 294.205 35.8473 293.718 36.14C293.23 36.4326 292.673 36.5872 292.104 36.5872C291.536 36.5872 290.978 36.4326 290.491 36.14C290.004 35.8473 289.605 35.4276 289.338 34.9259C288.954 34.1898 288.294 33.6355 287.503 33.3839C286.712 33.1324 285.853 33.2039 285.114 33.583C284.603 33.8327 284.033 33.9383 283.466 33.8885C282.899 33.8387 282.356 33.6352 281.896 33.3001C281.435 32.965 281.075 32.5108 280.854 31.9863C280.632 31.4618 280.558 30.8869 280.638 30.3233C280.751 29.5201 280.548 28.7044 280.07 28.0488C279.592 27.3932 278.878 26.9494 278.079 26.8112C277.52 26.7096 276.999 26.4586 276.571 26.0848C276.144 25.711 275.825 25.2283 275.65 24.688C275.474 24.1477 275.449 23.57 275.575 23.0163C275.702 22.4625 275.976 21.9534 276.369 21.543C276.932 20.959 277.246 20.1793 277.246 19.368C277.246 18.5567 276.932 17.777 276.369 17.193C275.976 16.7825 275.702 16.2734 275.575 15.7197C275.449 15.1659 275.474 14.5882 275.65 14.0479C275.825 13.5077 276.144 13.025 276.571 12.6512C276.999 12.2773 277.52 12.0263 278.079 11.9248C278.878 11.7866 279.592 11.3427 280.07 10.6871C280.548 10.0316 280.751 9.21583 280.638 8.41261C280.558 7.84902 280.632 7.27412 280.854 6.74966C281.075 6.22519 281.435 5.77099 281.896 5.43585C282.356 5.10071 282.899 4.89729 283.466 4.84745C284.033 4.79761 284.603 4.90324 285.114 5.15297C285.845 5.50719 286.684 5.56522 287.456 5.31494C288.229 5.06465 288.874 4.52543 289.258 3.81009C289.521 3.29666 289.92 2.86576 290.412 2.56486C290.905 2.26396 291.47 2.10474 292.047 2.10474C292.624 2.10474 293.189 2.26396 293.681 2.56486C294.174 2.86576 294.573 3.29666 294.836 3.81009Z" fill="white"/>
</g>
<path d="M287.094 16.0686H285.671C285.345 16.0738 285.032 16.2019 284.796 16.4274C284.56 16.653 284.417 16.9593 284.397 17.2852L284.053 23.8504C284.043 24.0068 284.066 24.1635 284.12 24.3108C284.173 24.4581 284.256 24.5929 284.364 24.7069C284.471 24.8209 284.601 24.9116 284.745 24.9736C284.889 25.0355 285.044 25.0673 285.201 25.067H286.624C286.95 25.0619 287.263 24.9337 287.499 24.7082C287.735 24.4827 287.878 24.1764 287.898 23.8504L288.242 17.2852C288.252 17.1288 288.229 16.9721 288.175 16.8248C288.122 16.6775 288.039 16.5427 287.931 16.4287C287.824 16.3148 287.694 16.224 287.55 16.1621C287.406 16.1001 287.251 16.0683 287.094 16.0686Z" fill="white"/>
<path d="M298.452 16.0684H295.112L296.041 13.8877C296.147 13.6542 296.187 13.3961 296.156 13.1416L295.961 11.42C295.922 11.0882 295.762 10.7824 295.513 10.5603C295.263 10.3382 294.941 10.2153 294.607 10.2148H292.942C292.849 11.9508 292.219 13.615 291.14 14.978L290.119 16.2635C289.857 16.5921 289.701 16.9923 289.671 17.4113L289.35 23.5403C289.339 23.7339 289.368 23.9276 289.434 24.1097C289.501 24.2917 289.604 24.4583 289.737 24.5991C289.871 24.7398 290.031 24.8519 290.209 24.9284C290.387 25.0049 290.579 25.0442 290.773 25.0439H296.592C296.851 25.0411 297.105 24.9845 297.34 24.8778C297.576 24.7711 297.786 24.6166 297.958 24.4241L298.498 23.8158C298.707 23.5749 298.857 23.2878 298.934 22.9779L300.081 18.0311C300.132 17.8041 300.133 17.5691 300.086 17.3415C300.038 17.114 299.943 16.8991 299.806 16.7112C299.648 16.5035 299.443 16.3367 299.207 16.2248C298.971 16.113 298.712 16.0593 298.452 16.0684Z" fill="white"/>
<path d="M241.504 56.1938L243.351 59.1436L246.737 59.9929L244.499 62.6557L244.74 66.1334L241.504 64.825L238.278 66.1334L238.519 62.6557L236.281 59.9929L239.667 59.1436L241.504 56.1938Z" fill="white"/>
<path d="M226.14 220.818C226.14 222.952 224.43 224.376 221.756 224.594L221.4 226.361H219.793L220.149 224.594C218.835 224.513 217.565 224.09 216.465 223.366L217.532 221.38C218.425 222.019 219.47 222.415 220.562 222.528L221.113 219.819C219.621 219.371 217.98 218.775 217.98 216.835C217.98 214.7 219.736 213.254 222.456 213.07L222.812 211.303H224.419L224.063 213.082C225.103 213.164 226.11 213.477 227.013 214L226.037 215.986C225.316 215.518 224.494 215.231 223.638 215.148L223.133 217.96C224.557 218.396 226.14 218.97 226.14 220.818ZM221.549 217.512L222.009 215.217C221.102 215.389 220.585 215.882 220.574 216.502C220.562 217.122 220.987 217.271 221.561 217.512H221.549ZM223.535 221.231C223.535 220.772 223.168 220.473 222.605 220.267L222.169 222.47C223.053 222.287 223.547 221.839 223.547 221.231H223.535Z" fill="white"/>
<path d="M144.808 30.4614H77.664C65.8546 30.4614 56.2812 40.0348 56.2812 51.8442V234.085C56.2812 245.895 65.8546 255.468 77.664 255.468H144.808C156.617 255.468 166.191 245.895 166.191 234.085V51.8442C166.191 40.0348 156.617 30.4614 144.808 30.4614Z" fill="#263238"/>
<path d="M144.475 30.4614H77.9969C66.0037 30.4614 56.2812 40.1838 56.2812 52.177V233.753C56.2812 245.746 66.0037 255.468 77.9969 255.468H144.475C156.468 255.468 166.191 245.746 166.191 233.753V52.177C166.191 40.1838 156.468 30.4614 144.475 30.4614Z" fill="white"/>
<path d="M166.191 41.4914V86.0819H56.2812V41.4914C56.2843 38.565 57.4489 35.7595 59.5193 33.6913C61.5896 31.6231 64.3963 30.4614 67.3227 30.4614H155.149C156.599 30.4599 158.034 30.7441 159.374 31.2977C160.713 31.8514 161.931 32.6636 162.956 33.688C163.981 34.7124 164.795 35.9288 165.35 37.2678C165.905 38.6067 166.191 40.042 166.191 41.4914Z" fill="#407BFF"/>
<path d="M166.191 41.4914V86.0819H56.2812V41.4914C56.2843 38.565 57.4489 35.7595 59.5193 33.6913C61.5896 31.6231 64.3963 30.4614 67.3227 30.4614H155.149C156.599 30.4599 158.034 30.7441 159.374 31.2977C160.713 31.8514 161.931 32.6636 162.956 33.688C163.981 34.7124 164.795 35.9288 165.35 37.2678C165.905 38.6067 166.191 40.042 166.191 41.4914Z" fill="#FC5546"/>
<path d="M102.204 58.2143C102.204 59.9245 100.873 60.923 98.3018 60.923H93.332V50.926H98.0264C100.425 50.926 101.711 51.9475 101.711 53.5314C101.723 53.9806 101.609 54.4242 101.382 54.8118C101.155 55.1993 100.823 55.5153 100.425 55.7237C100.96 55.8762 101.427 56.2056 101.75 56.658C102.073 57.1104 102.233 57.6591 102.204 58.2143ZM95.1914 52.3837V55.0924H97.8083C99.0938 55.0924 99.8283 54.6333 99.8283 53.7266C99.8283 52.8198 99.0938 52.3378 97.8083 52.3378L95.1914 52.3837ZM100.322 58.0192C100.322 57.0206 99.5758 56.5845 98.1756 56.5845H95.1799V59.4654H98.1756C99.5873 59.4654 100.322 59.0177 100.322 58.0192Z" fill="white"/>
<path d="M110.398 56.4581V60.9229H108.722V59.9932C108.44 60.352 108.073 60.6345 107.654 60.815C107.235 60.9954 106.777 61.068 106.323 61.0262C104.578 61.0262 103.477 60.0621 103.477 58.7307C103.477 57.3993 104.337 56.4351 106.644 56.4351H108.619V56.3204C108.619 55.2759 107.987 54.6676 106.713 54.6676C105.886 54.6626 105.08 54.9287 104.418 55.4251L103.764 54.1511C104.712 53.5035 105.841 53.1739 106.989 53.2099C109.135 53.2099 110.398 54.2544 110.398 56.4581ZM108.619 58.5355V57.6518H106.771C105.565 57.6518 105.233 58.1109 105.233 58.6618C105.233 59.2127 105.772 59.7177 106.69 59.7177C107.095 59.7489 107.5 59.6513 107.846 59.439C108.192 59.2268 108.463 58.9106 108.619 58.5355Z" fill="white"/>
<path d="M111.797 60.1654L112.486 58.8111C113.285 59.2976 114.201 59.5593 115.137 59.5686C116.285 59.5686 116.744 59.2472 116.744 58.7192C116.744 57.2731 112.026 58.6389 112.026 55.5973C112.026 54.1512 113.323 53.21 115.389 53.21C116.379 53.1896 117.358 53.4185 118.236 53.8757L117.536 55.23C116.873 54.8382 116.113 54.6394 115.343 54.6562C114.265 54.6562 113.748 55.012 113.748 55.517C113.748 57.055 118.454 55.6777 118.454 58.6619C118.454 60.0966 117.145 61.0262 115.011 61.0262C113.88 61.0417 112.768 60.7437 111.797 60.1654Z" fill="white"/>
<path d="M119.836 50.9719C119.837 50.8252 119.869 50.6803 119.928 50.546C119.987 50.4118 120.073 50.291 120.18 50.1911C120.288 50.0912 120.414 50.0143 120.553 49.965C120.691 49.9157 120.838 49.8951 120.984 49.9045C121.127 49.8936 121.271 49.9116 121.407 49.9574C121.542 50.0033 121.668 50.0761 121.775 50.1714C121.882 50.2668 121.969 50.3827 122.03 50.5124C122.091 50.642 122.126 50.7827 122.132 50.926C122.132 51.2304 122.011 51.5223 121.796 51.7376C121.58 51.9528 121.288 52.0737 120.984 52.0737C120.835 52.0833 120.685 52.0617 120.544 52.0104C120.404 51.959 120.276 51.879 120.168 51.7754C120.06 51.6717 119.975 51.5468 119.917 51.4085C119.86 51.2701 119.833 51.1215 119.836 50.9719ZM120.077 53.2674H121.856V60.8885H120.077V53.2674Z" fill="white"/>
<path d="M123.528 57.1123C123.522 56.5785 123.626 56.0492 123.835 55.5578C124.043 55.0663 124.351 54.6234 124.739 54.2568C125.128 53.8903 125.587 53.608 126.09 53.4278C126.593 53.2477 127.127 53.1735 127.66 53.21C128.314 53.1662 128.968 53.3104 129.543 53.6256C130.119 53.9408 130.592 54.4138 130.908 54.989L129.542 55.7809C129.347 55.4535 129.07 55.1833 128.737 54.9978C128.405 54.8124 128.029 54.7182 127.648 54.725C127.015 54.725 126.408 54.9765 125.96 55.4242C125.512 55.872 125.261 56.4792 125.261 57.1123C125.261 57.7455 125.512 58.3527 125.96 58.8004C126.408 59.2482 127.015 59.4997 127.648 59.4997C128.03 59.5065 128.407 59.4111 128.74 59.2235C129.073 59.0358 129.35 58.7627 129.542 58.4323L130.908 59.2357C130.594 59.813 130.121 60.2884 129.545 60.6057C128.97 60.9229 128.315 61.0689 127.66 61.0262C127.126 61.061 126.592 60.9853 126.089 60.8038C125.587 60.6223 125.127 60.339 124.739 59.9715C124.351 59.604 124.043 59.1604 123.835 58.6684C123.626 58.1764 123.522 57.6466 123.528 57.1123Z" fill="white"/>
<path d="M116.517 162.675C120.331 158.861 120.331 152.677 116.517 148.862C112.702 145.048 106.518 145.048 102.703 148.862C98.8891 152.677 98.8891 158.861 102.703 162.675C106.518 166.49 112.702 166.49 116.517 162.675Z" fill="#263238"/>
<path opacity="0.5" d="M116.517 162.675C120.331 158.861 120.331 152.677 116.517 148.862C112.702 145.048 106.518 145.048 102.703 148.862C98.8891 152.677 98.8891 158.861 102.703 162.675C106.518 166.49 112.702 166.49 116.517 162.675Z" fill="white"/>
<path d="M112.498 150.25L104.082 158.666L106.703 161.288L115.12 152.872L112.498 150.25Z" fill="white"/>
<path d="M104.08 152.871L112.496 161.288L115.118 158.666L106.701 150.25L104.08 152.871Z" fill="white"/>
<path d="M110.05 201.73C115.502 201.73 119.921 197.311 119.921 191.86C119.921 186.408 115.502 181.989 110.05 181.989C104.599 181.989 100.18 186.408 100.18 191.86C100.18 197.311 104.599 201.73 110.05 201.73Z" fill="#FC5546"/>
<path d="M117.125 189.725L111.443 195.406L108.792 198.057L106.141 195.406L108.792 192.755L114.473 187.073L117.125 189.725Z" fill="white"/>
<path d="M111.44 195.406L108.788 198.058L103.176 192.434L105.816 189.782L108.788 192.755L111.44 195.406Z" fill="white"/>
<path d="M134.181 220.06H88.2939C82.0565 220.06 77 225.116 77 231.354V232.215C77 238.452 82.0565 243.509 88.2939 243.509H134.181C140.419 243.509 145.475 238.452 145.475 232.215V231.354C145.475 225.116 140.419 220.06 134.181 220.06Z" fill="#FC5546"/>
<path d="M91.8394 234.017C91.8394 236.14 90.1293 237.575 87.4435 237.793L87.0992 239.56H85.4923L85.8481 237.793C84.5307 237.71 83.2574 237.287 82.1523 236.565L83.2312 234.568C84.1222 235.211 85.1676 235.607 86.2613 235.715L86.8008 232.995C85.3202 232.548 83.6789 231.962 83.6789 230.022C83.6789 227.888 85.4235 226.441 88.1551 226.246L88.5109 224.49H90.1063L89.762 226.269C90.8016 226.342 91.8107 226.652 92.7117 227.176L91.7247 229.173C91.0104 228.701 90.1902 228.413 89.3373 228.335L88.7749 231.159C90.2555 231.595 91.8394 232.169 91.8394 234.017ZM87.2484 230.711L87.7075 228.416C86.7893 228.588 86.2843 229.081 86.2613 229.69C86.2384 230.298 86.6745 230.47 87.2599 230.7L87.2484 230.711ZM89.234 234.43C89.234 233.959 88.8667 233.672 88.3043 233.466L87.8682 235.658C88.7405 235.486 89.2455 235.038 89.2455 234.43H89.234Z" fill="white"/>
<path d="M138.429 172.095H81.6953V174.39H138.429V172.095Z" fill="#FC5546"/>
<path d="M138.429 134.403H81.6953V136.698H138.429V134.403Z" fill="#FC5546"/>
<path d="M138.429 98.0645H81.6953V100.36H138.429V98.0645Z" fill="#FC5546"/>
<path d="M116.517 124.279C120.331 120.465 120.331 114.281 116.517 110.466C112.702 106.652 106.518 106.652 102.703 110.466C98.8891 114.281 98.8891 120.465 102.703 124.279C106.518 128.094 112.702 128.094 116.517 124.279Z" fill="#263238"/>
<path opacity="0.5" d="M116.517 124.279C120.331 120.465 120.331 114.281 116.517 110.466C112.702 106.652 106.518 106.652 102.703 110.466C98.8891 114.281 98.8891 120.465 102.703 124.279C106.518 128.094 112.702 128.094 116.517 124.279Z" fill="white"/>
<path d="M112.506 111.862L104.09 120.279L106.711 122.9L115.127 114.484L112.506 111.862Z" fill="white"/>
<path d="M104.088 114.485L112.504 122.902L115.125 120.28L106.709 111.864L104.088 114.485Z" fill="white"/>
<path d="M253.086 406.49L261.889 408.108L268.546 391.856L258.928 388.022L253.086 406.49Z" fill="#FFC2BC"/>
<path opacity="0.1" d="M256.242 396.195L258.756 388.643L263.186 389.722L268.546 391.857L265.677 398.938L256.242 396.195Z" fill="black"/>
<path d="M251.362 403.449C251.362 403.449 251.018 403.139 250.57 402.783C250.123 402.427 249.847 402.221 249.423 401.934C248.601 401.312 247.632 400.916 246.611 400.786C246.291 400.787 245.982 400.901 245.738 401.107C245.595 401.21 245.49 401.356 245.438 401.524C245.386 401.692 245.391 401.872 245.451 402.037C245.727 402.611 246.909 403.116 248.126 403.414L248.941 403.586C249.687 403.713 250.433 403.816 251.236 403.873C251.283 403.874 251.33 403.86 251.369 403.833C251.408 403.807 251.438 403.768 251.454 403.724C251.468 403.7 251.476 403.674 251.479 403.647C251.481 403.619 251.478 403.592 251.47 403.566C251.461 403.54 251.447 403.516 251.428 403.496C251.41 403.476 251.387 403.46 251.362 403.449ZM249.526 403.219C247.873 402.932 246.083 402.416 245.887 401.842C245.887 401.761 245.819 401.612 246.071 401.383C246.142 401.318 246.226 401.268 246.316 401.237C246.407 401.205 246.503 401.192 246.599 401.199C246.758 401.201 246.915 401.22 247.07 401.256C248.133 401.667 249.125 402.245 250.008 402.967C250.18 403.087 250.345 403.217 250.501 403.357C250.192 403.334 249.859 403.277 249.537 403.219H249.526Z" fill="#407BFF"/>
<path d="M250.915 399.833C250.635 399.469 250.223 399.23 249.768 399.168C249.113 399.064 248.838 399.317 248.735 399.558C248.482 400.063 248.872 401.027 249.446 401.934C249.67 402.278 249.915 402.608 250.181 402.921C250.452 403.238 250.752 403.53 251.076 403.793C251.109 403.806 251.146 403.806 251.179 403.793C251.217 403.805 251.257 403.805 251.294 403.793C251.332 403.78 251.365 403.757 251.392 403.727C251.418 403.697 251.436 403.66 251.443 403.621C251.494 403.286 251.525 402.949 251.535 402.611C251.64 401.642 251.422 400.666 250.915 399.833ZM251.019 403.127C250.904 403.013 250.778 402.898 250.663 402.76C249.756 401.762 248.907 400.212 249.125 399.696C249.125 399.638 249.217 399.489 249.653 399.558H249.779C250.062 399.626 250.315 399.783 250.502 400.005C250.935 400.815 251.13 401.73 251.065 402.645C251.053 402.863 251.042 402.978 251.019 403.127Z" fill="#407BFF"/>
<path d="M252.524 402.863L263.163 405.411C263.352 405.449 263.521 405.55 263.643 405.699C263.764 405.848 263.83 406.034 263.829 406.226L263.508 414.685C263.481 415.06 263.309 415.409 263.028 415.658C262.747 415.907 262.379 416.035 262.004 416.016H261.694C257.872 415.041 254.521 414.031 249.735 412.895C244.099 411.552 245.362 412.516 238.716 411.024C234.71 410.117 235.147 405.744 236.903 405.939C244.937 406.892 246.303 404.918 250.01 403.07C250.801 402.721 251.686 402.648 252.524 402.863Z" fill="#263238"/>
<path d="M316.445 408.097H324.87L327.36 394.129L317.054 392.212L316.445 408.097Z" fill="#FFC2BC"/>
<path opacity="0.1" d="M317.051 392.212L327.358 394.129L325.683 403.541L316.707 403.173L317.051 392.212Z" fill="black"/>
<path d="M329.173 400.97L314.045 400.109L313.586 394.14L330.515 395.3L329.173 400.97Z" fill="#407BFF"/>
<path opacity="0.5" d="M329.173 400.97L314.045 400.109L313.586 394.14L330.515 395.3L329.173 400.97Z" fill="white"/>
<path d="M315.215 408.315C315.215 408.315 314.825 408.086 314.32 407.844C313.815 407.603 313.563 407.489 313.103 407.317C312.208 406.873 311.203 406.702 310.211 406.823C309.919 406.897 309.667 407.082 309.511 407.339C309.412 407.483 309.359 407.653 309.359 407.827C309.359 408.001 309.412 408.172 309.511 408.315C310.318 408.875 311.302 409.12 312.277 409.004H313.046C313.743 408.96 314.436 408.876 315.123 408.751C315.166 408.735 315.204 408.709 315.234 408.675C315.264 408.641 315.285 408.6 315.296 408.556C315.306 408.512 315.304 408.467 315.29 408.424C315.276 408.382 315.25 408.344 315.215 408.315ZM313.482 408.522C311.921 408.648 310.234 408.522 309.867 408.04C309.798 407.971 309.74 407.844 309.867 407.558C309.913 407.478 309.976 407.409 310.051 407.355C310.126 407.302 310.212 407.265 310.303 407.248C310.442 407.211 310.584 407.192 310.728 407.19C311.807 407.342 312.855 407.672 313.827 408.166C314.019 408.235 314.203 408.324 314.377 408.43L313.482 408.522Z" fill="#407BFF"/>
<path d="M315.351 408.51C315.317 408.171 315.263 407.833 315.19 407.5C315.024 406.515 314.564 405.603 313.87 404.883C313.702 404.74 313.506 404.634 313.295 404.571C313.083 404.508 312.861 404.489 312.642 404.516C312.011 404.573 311.827 404.883 311.804 405.136C311.701 405.71 312.321 406.57 313.101 407.316C313.372 407.587 313.664 407.837 313.974 408.062C314.295 408.32 314.646 408.539 315.018 408.717C315.047 408.728 315.08 408.728 315.11 408.717H315.259C315.29 408.692 315.315 408.661 315.331 408.625C315.347 408.589 315.354 408.549 315.351 408.51ZM312.217 405.159C312.217 405.101 312.217 404.952 312.665 404.906H312.78C313.065 404.898 313.343 404.996 313.56 405.182C314.148 405.879 314.544 406.718 314.708 407.615C314.74 407.759 314.763 407.904 314.777 408.051L314.364 407.787C313.319 407.041 312.172 405.744 312.217 405.159Z" fill="#407BFF"/>
<path d="M316.114 407.454H326.375C326.561 407.452 326.742 407.514 326.888 407.628C327.034 407.743 327.137 407.905 327.179 408.086L329.084 416.418C329.167 416.773 329.106 417.146 328.914 417.456C328.723 417.765 328.417 417.987 328.062 418.071C327.967 418.082 327.871 418.082 327.776 418.071C324.08 418.071 320.786 417.853 316.183 417.876C310.754 417.876 312.132 418.553 305.75 418.679C301.905 418.76 301.159 414.387 302.812 414.157C310.272 413.182 311.03 410.921 313.899 408.235C314.515 407.708 315.305 407.43 316.114 407.454Z" fill="#263238"/>
<path d="M297.45 201.891L257.715 387.828L272.36 391.73C283.31 367.765 292.492 343.237 299.333 324.012C302.581 314.922 303.924 306.36 306.368 298.337C309.33 288.799 313.312 280.03 315.332 272.019C325.949 230.08 325.1 209.064 325.1 209.064L327.395 203.544L297.45 201.891Z" fill="#263238"/>
<path opacity="0.3" d="M321.854 241.809C320.42 250.268 318.342 260.357 315.369 272.099C314.405 275.909 307.943 294.262 306.405 298.417C304.615 271.548 310.755 226.108 310.755 226.108L321.854 241.809Z" fill="black"/>
<path d="M309.648 202.855L312.643 305.005L315.272 394.531L329.045 395.483C332.89 373.573 335.713 353.693 337.733 335.8C339.065 324.104 336.815 315.553 337.527 305.533C337.653 303.869 337.779 302.159 337.929 300.414C340.365 271.725 340.53 242.887 338.422 214.172C338.02 208.697 337.745 204.99 337.745 204.99L309.613 201.397L309.648 202.855Z" fill="#263238"/>
<path d="M270.418 396.964L255.934 392.499L256.921 386.599L273.081 391.776L270.418 396.964Z" fill="#407BFF"/>
<path opacity="0.5" d="M270.418 396.964L255.934 392.499L256.921 386.599L273.081 391.776L270.418 396.964Z" fill="white"/>
<path d="M307.674 138.064C304.976 142.06 302.962 146.478 301.717 151.137C301.105 153.232 300.622 155.363 300.271 157.518L299.273 160.273L290.412 156.749L289.012 156.198C291.17 146.477 299.525 137.673 305.723 137.834C306.382 137.808 307.04 137.885 307.674 138.064Z" fill="#407BFF"/>
<path opacity="0.2" d="M307.674 138.064C304.976 142.06 302.962 146.478 301.717 151.137C301.105 153.232 300.622 155.363 300.271 157.518L299.273 160.273L290.412 156.749L289.012 156.198C291.17 146.477 299.525 137.673 305.723 137.834C306.382 137.808 307.04 137.885 307.674 138.064Z" fill="white"/>
<path d="M296.598 201.03C297.666 198.642 297.528 193.983 301.052 193.11C305.734 191.963 309.591 191.607 328.024 193.179C336.724 193.914 338.652 200.869 338.354 204.427C338.321 204.906 338.159 205.366 337.883 205.759L337.516 206.287C336.655 206.619 297.207 202.246 296.816 202.487C296.65 202.288 296.542 202.046 296.504 201.789C296.466 201.532 296.498 201.27 296.598 201.03Z" fill="#407BFF"/>
<path opacity="0.2" d="M296.598 201.03C297.666 198.642 297.528 193.983 301.052 193.11C305.734 191.963 309.591 191.607 328.024 193.179C336.724 193.914 338.652 200.869 338.354 204.427C338.321 204.906 338.159 205.366 337.883 205.759L337.516 206.287C336.655 206.619 297.207 202.246 296.816 202.487C296.65 202.288 296.542 202.046 296.504 201.789C296.466 201.532 296.498 201.27 296.598 201.03Z" fill="white"/>
<path d="M306.191 137.994C305.938 138.465 298.099 139.28 298.719 173.632C298.799 178.04 297.674 187.406 297.674 187.406L296.527 190.263C296.067 191.424 295.863 192.67 295.931 193.916C295.998 195.162 296.334 196.379 296.917 197.483L297.491 198.55L337.238 202.602H338.385C338.385 202.602 340.945 181.85 344.365 167.974C345.513 163.452 346.661 157.897 346.661 157.897C345.853 152.664 345.469 147.375 345.513 142.081C340.697 140.653 335.783 139.579 330.81 138.867C325.531 138.05 320.199 137.617 314.856 137.57C309.887 137.731 306.202 137.983 306.191 137.994Z" fill="#407BFF"/>
<path d="M330.766 120.802C329.342 125.863 327.563 135.194 330.88 138.913L328.367 141.542C327.363 142.569 326.099 143.304 324.71 143.668C323.32 144.031 321.858 144.01 320.48 143.605C319.102 143.2 317.86 142.428 316.888 141.371C315.915 140.314 315.249 139.012 314.961 137.605C320.78 136.698 319.552 130.856 320.608 125.209L330.766 120.802Z" fill="#FFC2BC"/>
<path opacity="0.2" d="M317.52 119.367C318.667 123.407 320.366 129.903 319.149 134.391C324.372 134.85 327.838 130.11 328.056 128.652C327.414 126.868 326.907 125.038 326.541 123.177L317.52 119.367Z" fill="black"/>
<path d="M332.306 112.881C331.674 121.49 331.606 125.14 327.21 129.513C320.599 136.089 310.165 133.438 308.203 124.83C306.435 117.071 307.755 104.319 316.237 100.979C319.138 99.8226 322.38 99.8657 325.249 101.099C328.118 102.332 330.38 104.655 331.537 107.556C332.196 109.249 332.459 111.071 332.306 112.881Z" fill="#FFC2BC"/>
<path d="M337.274 108.899C336.398 112.153 335.818 115.48 335.541 118.839C334.485 118.839 333.314 118.839 332.258 118.839C331.961 119.132 331.753 119.503 331.658 119.909C331.562 120.315 331.583 120.74 331.719 121.134C331.173 120.912 330.703 120.537 330.364 120.055C330.128 119.557 330.01 119.011 330.02 118.46C329.939 116.346 329.713 114.241 329.343 112.159C327.656 111.47 325.705 111.642 324.132 110.735C320.59 108.722 317.512 105.984 315.099 102.701C313.796 103.314 312.637 104.196 311.697 105.287C310.758 106.379 310.059 107.657 309.647 109.037C309.266 109.112 308.87 109.072 308.511 108.923C308.151 108.774 307.844 108.522 307.627 108.199C307.213 107.54 306.979 106.784 306.95 106.007C306.724 103.979 307.246 101.938 308.419 100.268C309.289 99.1269 310.554 98.353 311.966 98.0986C312.566 98.1089 313.165 98.0355 313.745 97.8805C314.342 97.6051 314.893 96.882 315.467 96.5262C316.798 95.7836 318.265 95.3138 319.78 95.1444C321.296 94.9749 322.83 95.1091 324.293 95.5391C327.928 96.7191 331.219 98.7723 333.877 101.519C335.38 102.931 337.836 106.902 337.274 108.899Z" fill="#263238"/>
<path d="M335.297 121.157C334.883 121.874 334.331 122.501 333.673 123.003C333.015 123.506 332.264 123.873 331.464 124.084C329.329 124.623 328.307 122.707 328.939 120.709C329.513 118.908 331.326 116.497 333.438 116.784C334.178 116.918 334.835 117.34 335.265 117.958C335.696 118.575 335.864 119.337 335.733 120.078C335.67 120.466 335.521 120.834 335.297 121.157Z" fill="#FFC2BC"/>
<path d="M318.974 115.051C318.974 115.797 318.549 116.394 318.067 116.405C317.585 116.417 317.184 115.786 317.184 115.04C317.184 114.294 317.608 113.685 318.09 113.685C318.572 113.685 318.974 114.305 318.974 115.051Z" fill="#263238"/>
<path d="M310.459 114.959C310.459 115.717 310.034 116.302 309.541 116.313C309.047 116.325 308.657 115.694 308.668 114.936C308.68 114.179 309.081 113.593 309.575 113.582C310.068 113.57 310.493 114.19 310.459 114.959Z" fill="#263238"/>
<path d="M313.81 116.52C313.118 118.23 312.195 119.836 311.066 121.295C311.447 121.573 311.883 121.764 312.345 121.855C312.807 121.946 313.283 121.935 313.741 121.823L313.81 116.52Z" fill="#EC837E"/>
<path d="M316.414 124.371C315.99 124.555 315.548 124.69 315.094 124.773C315.07 124.779 315.044 124.781 315.019 124.778C314.995 124.775 314.971 124.766 314.949 124.753C314.928 124.74 314.909 124.723 314.894 124.703C314.88 124.682 314.87 124.659 314.864 124.635C314.86 124.587 314.872 124.539 314.899 124.499C314.927 124.459 314.967 124.43 315.013 124.417C315.941 124.246 316.816 123.859 317.566 123.287C318.316 122.714 318.92 121.973 319.329 121.123C319.34 121.075 319.368 121.033 319.409 121.006C319.449 120.978 319.499 120.966 319.547 120.973C319.568 120.976 319.589 120.983 319.607 120.994C319.626 121.005 319.642 121.019 319.654 121.036C319.667 121.053 319.677 121.073 319.682 121.094C319.687 121.114 319.688 121.136 319.685 121.157C319.056 122.615 317.882 123.768 316.414 124.371Z" fill="#263238"/>
<path d="M321.965 110.793C321.915 110.807 321.863 110.809 321.812 110.797C321.762 110.785 321.716 110.76 321.678 110.724C321.336 110.373 320.914 110.109 320.449 109.956C319.983 109.802 319.488 109.762 319.004 109.84C318.919 109.852 318.833 109.833 318.762 109.787C318.69 109.74 318.637 109.67 318.613 109.588C318.595 109.552 318.584 109.513 318.582 109.473C318.58 109.433 318.587 109.393 318.603 109.355C318.618 109.318 318.641 109.285 318.671 109.258C318.701 109.23 318.736 109.21 318.774 109.198C319.357 109.098 319.955 109.14 320.518 109.32C321.081 109.5 321.593 109.812 322.011 110.231C322.073 110.291 322.113 110.369 322.125 110.454C322.138 110.539 322.122 110.626 322.08 110.701C322.069 110.724 322.052 110.744 322.033 110.76C322.013 110.776 321.99 110.787 321.965 110.793Z" fill="#263238"/>
<path d="M308.208 111.195C308.148 111.219 308.083 111.225 308.02 111.213C307.957 111.201 307.899 111.17 307.852 111.126C307.784 111.057 307.746 110.964 307.746 110.868C307.746 110.771 307.784 110.678 307.852 110.609C308.284 110.082 308.835 109.665 309.46 109.391C310.084 109.118 310.764 108.997 311.445 109.037C311.538 109.048 311.623 109.095 311.683 109.168C311.743 109.24 311.773 109.333 311.766 109.427C311.752 109.523 311.701 109.609 311.623 109.667C311.546 109.725 311.449 109.75 311.353 109.737C310.786 109.707 310.219 109.812 309.701 110.044C309.182 110.275 308.725 110.626 308.369 111.068C308.328 111.124 308.272 111.168 308.208 111.195Z" fill="#263238"/>
<path d="M329.482 136.17L332.661 139.154C332.661 139.154 321.184 147.188 320.989 146.683C320.2 145.556 319.337 144.482 318.406 143.469L329.482 136.17Z" fill="#407BFF"/>
<path d="M317.876 135.894L313.812 137.501C313.812 137.501 314.501 146.178 314.857 145.765C315.996 145.009 317.185 144.33 318.415 143.733L317.876 135.894Z" fill="#407BFF"/>
<path opacity="0.2" d="M329.482 136.17L332.661 139.154C332.661 139.154 321.184 147.188 320.989 146.683C320.2 145.556 319.337 144.482 318.406 143.469L329.482 136.17Z" fill="white"/>
<path opacity="0.2" d="M317.876 135.894L313.812 137.501C313.812 137.501 314.501 146.178 314.857 145.765C315.996 145.009 317.185 144.33 318.415 143.733L317.876 135.894Z" fill="white"/>
<path d="M315.723 171.716C316.457 172.806 322.437 171.716 322.437 171.716L327.568 172.06C327.843 172.064 328.11 171.968 328.321 171.791C328.531 171.614 328.671 171.368 328.715 171.096L330.139 164.611C330.158 164.461 330.119 164.309 330.03 164.187C329.94 164.065 329.806 163.983 329.656 163.957L325.605 163.223C323.973 162.934 322.294 163.292 320.922 164.221L316.629 167.136L315.723 171.716Z" fill="#FFC2BC"/>
<path d="M316.842 166.815L316.578 171.808C316.578 171.808 293.508 180.473 286.897 176.674C282.558 174.207 286.897 163.693 290.409 156.726L299.269 160.043L296.343 167.664L316.842 166.815Z" fill="#FFC2BC"/>
<g opacity="0.1">
<path d="M315.719 171.716C316.453 172.806 322.433 171.716 322.433 171.716L327.564 172.06C327.839 172.064 328.106 171.968 328.317 171.791C328.527 171.614 328.667 171.368 328.711 171.096L330.135 164.611C330.155 164.461 330.116 164.309 330.026 164.187C329.936 164.065 329.802 163.983 329.653 163.957L325.601 163.223C323.97 162.934 322.29 163.292 320.918 164.221L316.625 167.136L315.719 171.716Z" fill="black"/>
<path d="M316.846 166.815L316.582 171.808C316.582 171.808 293.512 180.473 286.901 176.674C282.562 174.207 286.901 163.693 290.413 156.726L299.273 160.043L296.347 167.664L316.846 166.815Z" fill="black"/>
</g>
<path d="M344.146 145.765L327.136 169.168L302.218 164.577L301.07 169.49C301.07 169.49 325.173 182.62 331.796 178.775C338.418 174.93 349.471 151.642 349.471 151.642L344.146 145.765Z" fill="#FFC2BC"/>
<path d="M301.094 169.466C300.348 170.545 294.38 169.386 294.38 169.386L289.25 169.661C288.971 169.664 288.701 169.565 288.49 169.384C288.279 169.202 288.141 168.95 288.102 168.674L286.759 162.178C286.739 162.029 286.779 161.878 286.869 161.758C286.959 161.638 287.092 161.558 287.241 161.535L291.315 160.858C292.949 160.586 294.625 160.96 295.987 161.902L302.196 164.714L301.094 169.466Z" fill="#FFC2BC"/>
<path d="M347.373 143.539C351.379 148.279 350.208 159.975 344.435 167.424L330.375 159.16C330.375 159.16 338.627 145.226 343.173 142.483C345.124 141.312 345.95 141.806 347.373 143.539Z" fill="#407BFF"/>
<path opacity="0.2" d="M347.373 143.539C351.379 148.279 350.208 159.975 344.435 167.424L330.375 159.16C330.375 159.16 338.627 145.226 343.173 142.483C345.124 141.312 345.95 141.806 347.373 143.539Z" fill="white"/>
<path d="M220.781 409.612L229.699 410.84L238.813 393.05L228.942 391.409L220.781 409.612Z" fill="#FFC2BC"/>
<path opacity="0.2" d="M228.934 391.409L238.805 393.05L233.835 402.726L224.492 401.314L228.934 391.409Z" fill="black"/>
<path d="M232.315 407.454L221.285 406.858C221.105 406.841 220.925 406.89 220.777 406.996C220.63 407.101 220.525 407.255 220.482 407.431L218.244 415.466C218.197 415.634 218.184 415.809 218.205 415.983C218.227 416.156 218.282 416.323 218.369 416.475C218.455 416.626 218.571 416.759 218.709 416.866C218.847 416.972 219.005 417.05 219.174 417.096H219.472C223.042 417.222 225.613 417.096 230.135 417.394C232.901 417.543 241.211 418.289 245.056 418.542C248.901 418.794 249.566 415.007 248.028 414.582C241.142 412.677 235.977 410.232 233.83 408.132C233.434 407.716 232.89 407.473 232.315 407.454Z" fill="#263238"/>
<path d="M232.857 408.694C232.814 408.682 232.777 408.656 232.75 408.621C232.723 408.586 232.708 408.543 232.707 408.499C232.698 408.458 232.704 408.415 232.723 408.377C232.741 408.34 232.772 408.31 232.811 408.292C233.144 408.109 236.185 406.467 237.161 407.03C237.269 407.091 237.359 407.181 237.418 407.291C237.477 407.401 237.503 407.525 237.494 407.65C237.53 407.879 237.501 408.114 237.41 408.327C237.318 408.54 237.168 408.723 236.977 408.855C236.443 409.164 235.822 409.289 235.21 409.211C234.409 409.126 233.619 408.953 232.857 408.694ZM236.656 407.409C235.548 407.546 234.477 407.892 233.499 408.43C234.534 408.849 235.69 408.849 236.725 408.43C236.838 408.344 236.928 408.23 236.987 408.1C237.045 407.969 237.069 407.826 237.057 407.684C237.058 407.635 237.048 407.585 237.028 407.54C237.008 407.495 236.979 407.454 236.943 407.42C236.848 407.397 236.75 407.397 236.656 407.42V407.409Z" fill="#407BFF"/>
<path d="M232.83 408.798C232.802 408.773 232.779 408.743 232.763 408.71C232.748 408.676 232.739 408.64 232.738 408.602C232.738 408.465 233.06 405.859 234.162 405.079C234.291 404.972 234.443 404.895 234.605 404.854C234.768 404.812 234.938 404.807 235.103 404.838C235.265 404.849 235.418 404.916 235.537 405.026C235.656 405.137 235.734 405.285 235.757 405.446C235.883 406.41 233.966 408.304 233.002 408.775H232.899C232.88 408.79 232.855 408.798 232.83 408.798ZM234.919 405.182C234.745 405.183 234.576 405.239 234.437 405.343C233.753 406.127 233.322 407.099 233.197 408.132C234.173 407.489 235.413 406.031 235.321 405.435C235.321 405.366 235.321 405.205 235.034 405.194H234.919V405.182Z" fill="#407BFF"/>
<path d="M173.207 357.94L179.738 358.181C190.616 357.677 201.414 356.07 211.967 353.384C221.413 351.088 237.068 343.857 237.068 343.857C232.03 365.424 222.951 398.273 222.951 398.273L236.977 399.891C236.977 399.891 273.498 330.314 257.384 322.348C242.979 314.658 187.256 319.708 187.256 319.708L181.517 313.683L142.573 316.782C142.573 316.782 135.124 357.883 173.207 357.94Z" fill="#263238"/>
<path d="M237.874 402.726L221.828 397.859L223.756 391.168L241.145 397.779L237.874 402.726Z" fill="#407BFF"/>
<path opacity="0.5" d="M237.874 402.726L221.828 397.859L223.756 391.168L241.145 397.779L237.874 402.726Z" fill="white"/>
<path opacity="0.4" d="M178.036 342.721C181.95 354.198 211.688 353.051 215.832 352.5C191.35 357.217 186.736 357.86 179.735 358.181L173.204 357.94C171.164 357.935 169.127 357.782 167.109 357.481C170.139 337.751 173.307 328.867 178.036 342.721Z" fill="black"/>
<path d="M97.8665 389.79L96.7188 398.8L117.528 402.209L118.675 393.165L97.8665 389.79Z" fill="#FFC2BC"/>
<path d="M98.5663 400.063L105.04 391.041C105.143 390.896 105.193 390.721 105.183 390.543C105.172 390.366 105.102 390.198 104.982 390.066L99.4616 383.868C99.2192 383.609 98.8851 383.456 98.5311 383.441C98.177 383.426 97.8312 383.55 97.5678 383.788C97.5032 383.862 97.4526 383.948 97.4186 384.04C95.3756 386.967 94.0556 389.182 91.4158 392.866C89.8089 395.104 84.6899 401.727 82.4747 404.814C80.2596 407.902 83.0257 410.553 84.2079 409.406C89.5449 404.596 94.3311 401.566 97.2808 400.912C97.7997 400.798 98.2577 400.495 98.5663 400.063Z" fill="#263238"/>
<path d="M97.182 399.833C97.2182 399.811 97.2599 399.799 97.3025 399.799C97.3451 399.799 97.3868 399.811 97.423 399.833C97.4613 399.851 97.4924 399.881 97.5112 399.918C97.53 399.956 97.5354 399.999 97.5263 400.04C97.5263 400.43 97.2623 403.873 96.2638 404.378C96.1564 404.443 96.0334 404.477 95.908 404.477C95.7826 404.477 95.6595 404.443 95.5522 404.378C95.358 404.279 95.1933 404.13 95.0745 403.946C94.9557 403.763 94.8869 403.552 94.875 403.334C94.8872 402.714 95.1144 402.118 95.5177 401.647C96.0059 400.984 96.5638 400.376 97.182 399.833ZM97.0672 400.51C96.1512 401.162 95.5189 402.139 95.2997 403.242C95.3169 403.385 95.3675 403.521 95.4472 403.641C95.527 403.761 95.6337 403.86 95.7588 403.931C95.908 404.023 96.0228 404.011 96.0457 403.931C96.1369 403.896 96.2137 403.831 96.2638 403.747C96.7224 402.745 96.9946 401.668 97.0672 400.568V400.51Z" fill="#407BFF"/>
<path d="M97.1865 399.764C97.2563 399.736 97.3347 399.736 97.4046 399.764C97.5079 399.856 99.4935 401.555 99.5738 402.909C99.5905 403.074 99.5715 403.24 99.518 403.397C99.4645 403.553 99.3779 403.696 99.2639 403.816C99.1696 403.949 99.0327 404.045 98.8761 404.089C98.7195 404.132 98.5525 404.121 98.4031 404.057C97.5079 403.644 96.9455 400.993 97.0832 399.948V399.856C97.0908 399.833 97.1043 399.813 97.1225 399.796C97.1406 399.78 97.1627 399.769 97.1865 399.764ZM99.2065 403.024C98.9113 402.028 98.3234 401.145 97.5193 400.488C97.528 401.668 97.9321 402.812 98.6671 403.736C98.6999 403.753 98.736 403.763 98.7729 403.765C98.8098 403.767 98.8468 403.762 98.8814 403.749C98.916 403.736 98.9475 403.715 98.9739 403.69C99.0002 403.664 99.0208 403.632 99.0344 403.598V403.506C99.1313 403.365 99.1796 403.195 99.1721 403.024H99.2065Z" fill="#407BFF"/>
<path opacity="0.2" d="M118.661 393.165L117.513 402.209L106.781 400.442L107.94 391.42L118.661 393.165Z" fill="black"/>
<path d="M178.863 334.181C182.031 339.197 192.981 399.707 172.539 413.228C157.481 423.156 110.078 404.355 110.078 404.355L111.593 389.343C111.593 389.343 150.101 396.539 154.864 392.671C159.627 388.803 143.73 346.761 142.95 336.925C142.169 327.088 178.863 334.181 178.863 334.181Z" fill="#263238"/>
<path d="M109.02 405.446L109.536 388.688L116.491 388.803L114.632 407.317L109.02 405.446Z" fill="#407BFF"/>
<path opacity="0.5" d="M109.02 405.446L109.536 388.688L116.491 388.803L114.632 407.317L109.02 405.446Z" fill="white"/>
<path d="M183.156 315.267C181.928 312.971 178.186 308.46 174.582 307.829C169.796 306.991 168.775 306.808 150.307 309.643C141.596 310.974 140.964 317.815 141.446 321.361C141.51 321.834 141.705 322.279 142.009 322.647L142.411 323.152C143.306 323.427 182.582 316.529 182.984 316.747C183.147 316.54 183.249 316.293 183.279 316.031C183.31 315.77 183.267 315.505 183.156 315.267Z" fill="#FF7367"/>
<path d="M225.783 249.121C228.329 248.929 230.794 248.143 232.98 246.825C234.485 245.77 235.769 244.428 236.756 242.877C237.074 242.41 237.209 241.842 237.135 241.282C236.969 239.982 236.453 238.753 235.643 237.724C235.42 237.455 235.103 237.282 234.757 237.242C234.41 237.201 234.062 237.296 233.783 237.506C232.452 238.458 230.937 239.445 229.743 240.386C226.38 241.018 223.19 244.117 222.914 247.526C223.821 247.985 224.865 248.639 225.783 249.121Z" fill="#FFC2BC"/>
<path d="M227.25 244.599L228.168 249.052C228.168 249.052 206.074 264.696 201.861 264.925C198.969 265.075 195.618 265.235 192.151 265.339C188.18 265.488 184.037 265.568 180.272 265.545C173.466 265.476 167.899 265.04 166.763 263.847C163.32 260.208 167.004 254.469 172.387 254.515C179.4 254.596 191.658 256.26 203.296 255.812C207.279 255.663 227.25 244.599 227.25 244.599Z" fill="#FFC2BC"/>
<path opacity="0.2" d="M192.139 265.339C188.168 265.488 184.024 265.568 180.26 265.546L176.07 259.554C181.61 260.929 186.994 262.867 192.139 265.339Z" fill="black"/>
<path d="M178.364 253.23C178.364 253.23 168.62 251.393 166.967 256.099C165.314 260.805 169.653 269.184 183.196 267.715L184.573 253.391L178.364 253.23Z" fill="#FF7367"/>
<path d="M170.918 253.356C171.182 253.815 178.596 263.56 179.629 271.158C180.375 276.633 179.629 282.636 179.526 288.742C179.446 293.149 181.007 302.515 181.007 302.515L182.235 305.338C182.731 306.484 182.974 307.723 182.946 308.971C182.918 310.219 182.621 311.447 182.074 312.569L181.535 313.648L141.925 318.951L141.684 318.824C141.684 318.824 138.161 315.875 139.332 312.121V309.218C140.915 304.041 140.479 297.373 136.554 283.611C135.303 279.123 133.914 273.614 133.914 273.614C134.959 263.697 131.733 258.693 131.699 258.693C131.664 258.693 131.699 258.636 131.699 258.624C136.447 257.07 141.304 255.869 146.23 255.032C151.482 254.05 156.798 253.444 162.137 253.218C167.222 253.184 170.906 253.345 170.918 253.356Z" fill="#0E2B5C"/>
<path d="M167.003 218.453C169.494 221.334 170.033 225.339 171.089 229.047C171.95 232.019 173.821 238.079 172.662 240.96C171.342 244.231 164.846 241.454 162.688 244.243C154.102 255.342 148.915 250.556 145.621 247.824C143.968 246.47 137.69 245.127 136.071 243.738C134.453 242.349 131.687 241.649 132.88 236.243C137.655 214.642 145.586 213.368 156.168 213.954C160.22 214.172 164.272 215.285 167.003 218.453Z" fill="#263238"/>
<path d="M145.805 236.955C147.4 241.97 149.478 251.233 146.275 255.066L148.869 257.603C149.903 258.612 151.193 259.319 152.599 259.647C154.006 259.976 155.476 259.912 156.849 259.464C158.223 259.015 159.447 258.199 160.389 257.105C161.332 256.01 161.956 254.677 162.195 253.253C156.353 252.518 157.397 246.642 156.157 241.041L145.805 236.955Z" fill="#FFC2BC"/>
<path opacity="0.2" d="M159.004 235.118C157.925 239.193 156.502 245.746 157.856 250.188C152.645 250.808 149.03 246.183 148.777 244.679C149.358 242.875 149.799 241.03 150.097 239.158L159.004 235.118Z" fill="black"/>
<path d="M144.024 229.092C144.92 237.678 145.115 241.316 149.648 245.551C156.466 251.91 166.865 248.926 168.495 240.26C170.01 232.455 168.288 219.738 159.726 216.674C157.84 215.989 155.811 215.798 153.831 216.118C151.85 216.439 149.985 217.26 148.412 218.504C146.838 219.749 145.609 221.375 144.841 223.228C144.074 225.081 143.792 227.1 144.024 229.092Z" fill="#FFC2BC"/>
<path d="M146.094 233.603C146.766 234.752 147.123 236.059 147.127 237.391C147.504 237.102 147.773 236.695 147.892 236.235C148.01 235.776 147.971 235.289 147.781 234.854C147.505 233.948 147.035 233.5 146.094 233.603Z" fill="#263238"/>
<path d="M141.288 237.46C142.18 238.871 143.589 239.876 145.213 240.26C147.371 240.731 148.335 238.78 147.635 236.817C147.015 235.038 145.122 232.685 143.044 233.041C142.582 233.138 142.151 233.348 141.791 233.653C141.431 233.959 141.153 234.349 140.982 234.789C140.811 235.229 140.752 235.705 140.812 236.173C140.871 236.642 141.047 237.088 141.323 237.471L141.288 237.46Z" fill="#FFC2BC"/>
<path d="M156.311 231.101C156.311 231.847 156.77 232.433 157.252 232.421C157.734 232.41 158.124 231.778 158.09 231.032C158.055 230.286 157.619 229.701 157.137 229.712C156.655 229.724 156.276 230.355 156.311 231.101Z" fill="#263238"/>
<path d="M164.812 230.699C164.812 231.445 165.271 232.031 165.765 232.019C166.258 232.008 166.637 231.377 166.591 230.608C166.545 229.839 166.144 229.288 165.65 229.288C165.157 229.288 164.743 229.965 164.812 230.699Z" fill="#263238"/>
<path d="M165.43 229.391L167.197 228.829C167.197 228.829 166.359 230.206 165.43 229.391Z" fill="#263238"/>
<path d="M162.617 232.134C163.367 233.821 164.34 235.4 165.51 236.828C165.136 237.116 164.705 237.32 164.245 237.425C163.785 237.53 163.308 237.534 162.847 237.437L162.617 232.134Z" fill="#EC837E"/>
<path d="M160.263 240.065C160.694 240.229 161.14 240.352 161.595 240.432C161.643 240.439 161.692 240.428 161.733 240.4C161.773 240.373 161.802 240.331 161.813 240.283C161.817 240.235 161.805 240.187 161.777 240.147C161.75 240.107 161.71 240.078 161.663 240.065C160.73 239.926 159.842 239.567 159.074 239.019C158.306 238.47 157.679 237.747 157.245 236.909C157.229 236.864 157.199 236.827 157.16 236.802C157.12 236.777 157.073 236.766 157.026 236.771C156.983 236.779 156.944 236.804 156.918 236.841C156.893 236.877 156.882 236.922 156.889 236.966C157.57 238.397 158.779 239.508 160.263 240.065Z" fill="#263238"/>
<path d="M154.263 225.523C154.314 225.537 154.367 225.537 154.418 225.523C154.469 225.509 154.514 225.481 154.55 225.443C154.881 225.082 155.293 224.805 155.752 224.635C156.211 224.466 156.704 224.408 157.19 224.467C157.275 224.479 157.36 224.46 157.432 224.413C157.504 224.367 157.556 224.296 157.58 224.215C157.597 224.177 157.605 224.137 157.604 224.096C157.603 224.055 157.594 224.015 157.577 223.978C157.559 223.941 157.534 223.908 157.503 223.882C157.472 223.855 157.436 223.836 157.397 223.824C156.81 223.742 156.212 223.804 155.654 224.004C155.096 224.204 154.595 224.536 154.194 224.972C154.132 225.029 154.091 225.107 154.081 225.191C154.07 225.275 154.09 225.36 154.137 225.431C154.149 225.455 154.167 225.476 154.189 225.492C154.211 225.508 154.236 225.519 154.263 225.523Z" fill="#263238"/>
<path d="M168.036 225.489C168.097 225.508 168.162 225.51 168.225 225.496C168.287 225.482 168.345 225.452 168.392 225.409C168.46 225.34 168.498 225.247 168.498 225.15C168.498 225.054 168.46 224.961 168.392 224.892C167.942 224.368 167.372 223.961 166.73 223.705C166.089 223.449 165.395 223.353 164.708 223.423C164.661 223.427 164.616 223.441 164.575 223.463C164.534 223.485 164.498 223.515 164.469 223.552C164.44 223.588 164.419 223.63 164.407 223.675C164.394 223.72 164.391 223.767 164.398 223.813C164.415 223.909 164.469 223.994 164.548 224.05C164.628 224.106 164.727 224.128 164.822 224.112C165.39 224.062 165.961 224.148 166.488 224.364C167.015 224.579 167.483 224.918 167.853 225.351C167.895 225.418 167.96 225.467 168.036 225.489Z" fill="#263238"/>
<path d="M156.926 229.747L158.693 229.196C158.693 229.196 157.844 230.608 156.926 229.747Z" fill="#263238"/>
<path d="M152.231 220.703C154.768 223.801 145.597 231.905 146.09 233.603C143.6 233.764 141.752 228.542 141.626 225.833C141.498 223.098 142.353 220.407 144.036 218.246C145.103 216.88 147.078 216.616 148.811 216.398C149.312 216.294 149.832 216.329 150.314 216.502C150.602 216.66 150.846 216.885 151.026 217.16C151.206 217.434 151.317 217.748 151.347 218.074C151.472 218.998 151.772 219.89 152.231 220.703Z" fill="#263238"/>
<path d="M148.809 216.399C150.461 217.71 151.679 219.49 152.304 221.505C152.929 223.52 152.93 225.676 152.309 227.693C153.425 226.784 154.346 225.659 155.018 224.387C155.373 223.729 155.537 222.985 155.493 222.239C155.448 221.493 155.196 220.774 154.765 220.163C155.979 221.054 157.003 222.177 157.778 223.468C158.552 224.759 159.061 226.191 159.276 227.681C159.795 227.298 160.224 226.805 160.531 226.238C160.839 225.671 161.018 225.043 161.055 224.398C161.109 223.767 161.024 223.132 160.806 222.537C160.588 221.942 160.242 221.402 159.793 220.955C160.674 221.731 161.346 222.715 161.747 223.818C162.148 224.921 162.265 226.108 162.088 227.268C162.671 226.811 163.136 226.222 163.445 225.549C163.755 224.876 163.899 224.14 163.867 223.4C163.804 222.611 163.565 221.845 163.168 221.16C162.77 220.475 162.225 219.887 161.572 219.44C162.776 220.107 163.785 221.078 164.498 222.256C165.211 223.434 165.603 224.778 165.635 226.155C168.252 223.607 167.368 219.98 164.154 217.971C159.444 215.453 153.932 214.889 148.809 216.399Z" fill="#263238"/>
<path d="M147.553 252.278L144.477 255.365C144.477 255.365 156.207 263.032 156.379 262.504C157.131 261.362 157.955 260.27 158.847 259.233L147.553 252.278Z" fill="#FF7367"/>
<path d="M159.15 251.623L163.247 253.103C163.247 253.103 162.846 261.792 162.467 261.402C161.302 260.682 160.091 260.041 158.84 259.485L159.15 251.623Z" fill="#FF7367"/>
<path d="M84.4838 288.478L74.6016 289.407L78.0448 297.178C80.7254 296.003 83.2887 294.577 85.7004 292.92L84.4838 288.478Z" fill="#FFC2BC"/>
<path d="M70.9499 295.353L71.1106 295.64C71.4149 296.163 71.8551 296.593 72.3846 296.887C72.914 297.18 73.5129 297.324 74.1177 297.304L78.0545 297.178L74.6112 289.407L72.2009 290.796C71.8184 291.012 71.4823 291.301 71.2121 291.648C70.9419 291.994 70.7429 292.39 70.6266 292.814C70.5103 293.237 70.479 293.68 70.5345 294.116C70.59 294.551 70.7312 294.972 70.9499 295.353Z" fill="#FFC2BC"/>
<path d="M86.6965 292.678C86.6965 292.678 103.97 294.274 120.142 286.641C120.142 286.641 131.012 277.585 136.888 269.964C145.611 258.659 137.496 255.239 131.057 262.55C126.283 267.967 115.218 278.435 115.218 278.435C101.319 286.469 83.2647 288.971 83.2647 288.971C79.7641 293.952 86.6965 292.678 86.6965 292.678Z" fill="#FFC2BC"/>
<path d="M141.89 258.246C145.999 261.54 139.87 270.148 131.882 280.49L121.977 267.646C121.977 267.646 134.545 252.289 141.89 258.246Z" fill="#FF7367"/>
</svg>
