<svg width="558" height="309" viewBox="0 0 558 309" fill="none" xmlns="http://www.w3.org/2000/svg">
<path d="M523.217 242.883C536.444 218.36 538.399 190.411 535.295 163.396C532.544 139.44 528.398 111.966 516.772 90.3392C487.351 35.5598 412.923 9.85605 352.549 26.3251C327.358 33.2224 309.686 49.1243 289.454 64.2753C274.503 75.4795 258.118 86.4461 238.767 88.6609C192.479 94.0254 139.815 50.3429 95.9252 54.1747C52.0358 58.0065 17.7565 97.0908 16.1241 130.811C14.4918 164.531 48.043 199.017 44.855 222.008C41.6669 244.998 20.9139 306.307 103.098 308.606C185.283 310.905 228.383 264.924 260.302 274.886C292.221 284.849 362.442 313.971 421.498 306.307C460.023 301.311 497.682 282.389 518.826 250.256C520.41 247.829 521.873 245.371 523.217 242.883Z" fill="#E4EFFF"/>
<path d="M278.809 9.174C278.809 9.174 276.272 2.50667 270.432 1.2575C264.593 0.00833301 262.301 3.55658 261.052 6.46875C259.803 9.38092 256.055 7.0895 252.929 6.67567C249.802 6.26183 248.131 9.38092 247.511 11.68C246.89 13.9791 242.912 10.6378 239.379 12.7146C235.846 14.7914 235.21 17.512 234.375 18.1404C233.54 18.7688 231.248 17.7189 229.999 19.3896L228.75 21.0526H293.983C293.983 21.0526 296.067 16.2628 292.105 12.7146C288.143 9.16634 281.269 14.5922 278.809 9.174Z" stroke="#263238" stroke-miterlimit="10" stroke-linecap="round"/>
<path d="M108.47 63.7619C108.47 63.7619 105.971 57.0945 100.139 55.8454C94.3072 54.5962 92.0081 58.1444 90.759 61.0489C89.5098 63.9534 85.7546 61.6774 82.6279 61.2635C79.5011 60.8497 77.8381 63.9688 77.2097 66.2602C76.5813 68.5516 72.6575 65.2179 69.0786 67.2871C65.4997 69.3563 64.9096 72.0845 64.082 72.7053C63.2543 73.326 60.9552 72.2914 59.706 73.9621L58.4492 75.6404H123.689C123.689 75.6404 125.774 70.8507 121.812 67.3024C117.85 63.7542 110.976 69.18 108.47 63.7619Z" stroke="#263238" stroke-miterlimit="10" stroke-linecap="round"/>
<path d="M484.959 38.2727C484.959 38.2727 480.537 26.578 470.298 24.3709C460.06 22.1638 456.036 28.3866 453.845 33.5059C451.653 38.6252 445.07 34.6018 439.59 33.8738C434.111 33.1457 431.16 38.6252 430.08 42.6486C428.999 46.672 422.041 40.817 415.826 44.4725C409.61 48.1281 408.514 52.9025 407.051 53.9831C405.587 55.0636 401.564 53.2167 399.387 56.1749L397.195 59.1024H511.613C511.613 59.1024 515.268 50.6724 508.318 44.4725C501.367 38.2727 489.312 47.7832 484.959 38.2727Z" stroke="#263238" stroke-miterlimit="10" stroke-linecap="round"/>
<path d="M557.997 145.517C557.997 180.088 538.608 182.693 514.698 182.693C490.787 182.693 471.398 180.088 471.398 145.517C471.398 110.947 490.78 38.6789 514.698 38.6789C538.616 38.6789 557.997 110.97 557.997 145.517Z" fill="#92E3A9"/>
<path d="M529.334 161.197L522.169 161.695L540.829 149.119L527.502 155.855L529.334 150.59L523.241 158.009L516.099 161.618L515.532 136.796L519.318 127.607L515.44 132.773L515.11 118.38L526.974 102.555L515.026 114.794L514.306 83.1124L513.662 103.383L506.052 94.899L513.539 107.283L512.528 139.402L505.906 135.064L499.867 124.366L502.289 132.704L490.434 124.956L512.39 143.892L509.064 249.313H518.099L516.191 165.726L518.283 164.316L529.334 161.197Z" fill="#8F8F8F"/>
<path d="M402.517 145.517C402.517 180.088 383.128 182.693 359.217 182.693C335.307 182.693 315.918 180.088 315.918 145.517C315.918 110.947 335.307 38.6789 359.217 38.6789C383.128 38.6789 402.517 110.97 402.517 145.517Z" fill="#92E3A9"/>
<path d="M373.857 161.197L366.7 161.695L385.353 149.119L372.026 155.855L373.857 150.59L367.765 158.009L360.622 161.618L360.055 136.796L363.841 127.607L359.963 132.773L359.634 118.38L371.505 102.555L359.557 114.794L358.829 83.1124L358.193 103.383L350.575 94.899L358.07 107.283L357.059 139.402L350.43 135.064L344.391 124.366L346.813 132.704L334.957 124.956L356.913 143.892L353.587 249.313H362.63L360.714 165.726L362.807 164.316L373.857 161.197Z" fill="#8F8F8F"/>
<path d="M247.04 145.517C247.04 180.088 227.659 182.693 203.741 182.693C179.823 182.693 160.441 180.088 160.441 145.517C160.441 110.947 179.83 38.6789 203.741 38.6789C227.651 38.6789 247.04 110.97 247.04 145.517Z" fill="#92E3A9"/>
<path d="M218.385 161.197L211.219 161.695L229.873 149.119L216.553 155.855L218.385 150.59L212.292 158.009L205.15 161.618L204.583 136.796L208.361 127.607L204.491 132.773L204.161 118.38L216.024 102.555L204.077 114.794L203.356 83.1124L202.713 103.383L195.103 94.899L202.59 107.283L201.579 139.402L194.95 135.064L188.911 124.366L191.332 132.704L179.484 124.956L201.433 143.892L198.115 249.313H207.15L205.242 165.726L207.326 164.316L218.385 161.197Z" fill="#8F8F8F"/>
<path d="M91.5598 145.517C91.5598 180.088 72.1785 182.693 48.2681 182.693C24.3577 182.693 4.96875 180.088 4.96875 145.517C4.96875 110.947 24.373 38.6789 48.2681 38.6789C72.1632 38.6789 91.5598 110.97 91.5598 145.517Z" fill="#92E3A9"/>
<path d="M62.9083 161.197L55.7428 161.695L74.4037 149.119L61.0767 155.855L62.9083 150.59L56.8157 158.009L49.6732 161.618L49.1061 136.796L52.8843 127.607L49.0141 132.773L48.6846 118.38L60.5479 102.555L48.6003 114.794L47.8799 83.1124L47.2362 103.383L39.6262 94.899L47.1136 107.283L46.102 139.402L39.473 135.064L33.4417 124.366L35.8557 132.704L24.0078 124.956L45.964 143.892L42.638 249.313H51.6734L49.7652 165.726L51.8573 164.316L62.9083 161.197Z" fill="#8F8F8F"/>
<path d="M1 305.012H556.504" stroke="#263238" stroke-linecap="round" stroke-linejoin="round"/>
<path d="M1 248.976H556.504" stroke="#263238" stroke-linecap="round" stroke-linejoin="round"/>
<path d="M414.398 191.759C414.398 191.759 419.97 195.882 429.879 201.668C439.788 207.454 443.512 208.274 444.539 208.481C445.566 208.688 484.39 196.71 484.39 196.71C484.39 196.71 485.425 199.193 486.689 201.875C487.954 204.558 489.165 209.93 488.988 211.784C488.812 213.639 492.912 211.784 493.326 210.957C493.74 210.129 494.974 203.937 494.56 201.875C494.146 199.814 492.084 194.028 492.084 192.786C492.084 191.545 494.154 187.422 489.402 187.215C484.651 187.008 480.727 192.173 480.106 192.579C479.485 192.986 469.377 195.269 462.557 193.407C455.736 191.545 444.953 192.204 444.953 192.204C441.845 187.233 438.323 182.534 434.423 178.156C428.852 172.171 426.76 170.73 426.76 170.73L414.398 191.759Z" fill="white" stroke="#263238" stroke-linecap="round" stroke-linejoin="round"/>
<path d="M434.423 178.126C428.852 172.141 426.759 170.7 426.759 170.7L414.375 191.759C414.375 191.759 419.946 195.882 429.855 201.668L431.327 202.511C433.626 199.047 438.354 192.411 442.646 188.717C440.161 184.995 437.413 181.456 434.423 178.126Z" fill="#263238" stroke="#263238" stroke-linecap="round" stroke-linejoin="round"/>
<path d="M492.031 192.786C492.031 191.552 494.1 187.422 489.349 187.215C484.597 187.008 480.673 192.173 480.053 192.579C478.911 192.989 477.73 193.274 476.527 193.43C477.157 195.158 477.553 196.962 477.708 198.794C481.685 197.584 484.375 196.748 484.375 196.748C484.375 196.748 485.409 199.231 486.674 201.914C487.938 204.596 489.149 209.968 488.973 211.823C488.797 213.677 492.897 211.823 493.311 210.995C493.724 210.167 494.958 203.975 494.544 201.914C494.131 199.852 492.031 194.028 492.031 192.786Z" fill="white" stroke="#263238" stroke-linecap="round" stroke-linejoin="round"/>
<path d="M484.389 196.71C484.389 196.71 485.424 199.193 486.689 201.875C487.953 204.558 489.164 209.93 488.988 211.784C488.811 213.639 492.911 211.784 493.325 210.957C493.739 210.129 494.973 203.937 494.559 201.875C494.145 199.814 492.084 194.028 492.084 192.786C492.084 191.545 494.153 187.422 489.401 187.215C484.65 187.008 480.726 192.173 480.105 192.579C480.105 192.579 484.443 192.993 485.271 193.2C486.098 193.407 484.389 196.71 484.389 196.71Z" fill="white" stroke="#263238" stroke-linecap="round" stroke-linejoin="round"/>
<path d="M398.108 183.873C398.108 183.873 380.274 201.875 378.014 209.868L363.238 257.674L366.71 263.414C366.71 263.414 372.795 253.152 383.401 238.73C390.72 228.767 390.873 215.777 390.873 215.777C390.873 215.777 413.994 197.699 419.229 194.227C424.463 190.755 432.609 184.318 431.743 177.712C430.877 171.106 422.777 162.73 420.133 162.316C417.489 161.902 398.108 183.873 398.108 183.873Z" fill="white" stroke="#263238" stroke-linecap="round" stroke-linejoin="round"/>
<path d="M431.729 177.712C430.855 171.106 422.763 162.73 420.119 162.316C417.475 161.902 398.109 183.873 398.109 183.873C393.206 188.871 388.566 194.12 384.207 199.599C388.422 200.044 396.047 201.707 401.266 207.715C408.163 202.419 416.356 196.128 419.214 194.227C424.418 190.748 432.595 184.318 431.729 177.712Z" fill="#263238" stroke="#263238" stroke-linecap="round" stroke-linejoin="round"/>
<path d="M363.238 257.674L366.71 263.414C368.523 261.019 370.096 258.453 371.408 255.75C369.531 254.024 367.443 252.543 365.192 251.344L363.238 257.674Z" fill="white" stroke="#263238" stroke-linecap="round" stroke-linejoin="round"/>
<path d="M262.329 162.025L261.348 160.829L260.367 159.634L259.386 158.438L258.405 157.242L257.424 156.047L256.443 154.851L255.462 153.656L254.481 152.46L253.508 151.265L252.52 150.069" stroke="#263238" stroke-width="0.5" stroke-linecap="round" stroke-linejoin="round"/>
<path d="M265.49 163.435L264.509 162.247L263.528 161.051L262.547 159.848L261.566 158.653L260.585 157.465L259.604 156.262L258.623 155.066L257.642 153.878L256.661 152.675L255.68 151.479L254.699 150.292L253.718 149.088L252.738 147.893L251.895 146.858" stroke="#263238" stroke-width="0.5" stroke-linecap="round" stroke-linejoin="round"/>
<path d="M252.227 144.843L253.085 145.885L253.928 146.92L254.909 148.107L255.89 149.311L256.871 150.506L257.852 151.694L258.833 152.897L259.814 154.093L260.794 155.281L261.775 156.484L262.756 157.679L263.737 158.867L264.718 160.07L265.699 161.266L266.68 162.461L267.661 163.657L268.573 164.768" stroke="#263238" stroke-width="0.5" stroke-linecap="round" stroke-linejoin="round"/>
<path d="M252.582 142.827L253.433 143.862L254.283 144.896L255.134 145.931L256.107 147.126L257.096 148.33L258.069 149.518L259.05 150.713L260.031 151.916L261.012 153.104L261.993 154.3L262.974 155.503L263.955 156.691L264.936 157.886L265.917 159.089L266.898 160.277L267.879 161.473L268.86 162.676L269.771 163.787L270.691 164.906" stroke="#263238" stroke-width="0.5" stroke-linecap="round" stroke-linejoin="round"/>
<path d="M272.798 165.036L271.879 163.925L270.967 162.806L270.055 161.695L269.074 160.5L268.093 159.304L267.112 158.108L266.131 156.905L265.15 155.717L264.169 154.522L263.188 153.319L262.207 152.131L261.226 150.935L260.245 149.732L259.264 148.544L258.291 147.349L257.303 146.146L256.329 144.95L255.479 143.923L254.628 142.881L253.777 141.846" stroke="#263238" stroke-width="0.5" stroke-linecap="round" stroke-linejoin="round"/>
<path d="M254.359 140.122L255.823 141.9L256.674 142.942L257.517 143.977L258.498 145.172L259.479 146.368L260.46 147.563L261.441 148.759L262.421 149.954L263.402 151.15L264.383 152.345L265.364 153.541L266.345 154.736L267.326 155.932L268.307 157.127L269.288 158.323L270.269 159.519L271.25 160.714L272.162 161.833L273.074 162.944L273.994 164.063" stroke="#263238" stroke-width="0.5" stroke-linecap="round" stroke-linejoin="round"/>
<path d="M255.41 138.957L257.02 140.919L257.87 141.961L258.721 142.988L259.694 144.184L260.683 145.387L261.656 146.582L262.637 147.778L263.618 148.973L264.599 150.169L265.58 151.364L266.561 152.56L267.542 153.756L268.523 154.943L269.504 156.147L270.484 157.342L271.465 158.53L272.446 159.733L273.358 160.844L274.278 161.963L275.489 163.442" stroke="#263238" stroke-width="0.5" stroke-linecap="round" stroke-linejoin="round"/>
<path d="M256.457 137.8L258.212 139.938L259.063 140.98L259.913 142.015L260.887 143.21L261.868 144.406L262.848 145.601L263.829 146.797L264.81 147.992L265.791 149.188L266.772 150.383L267.753 151.579L268.734 152.775L269.715 153.97L270.696 155.166L271.677 156.361L272.658 157.557L273.639 158.752L274.551 159.871L275.463 160.982L276.758 162.553" stroke="#263238" stroke-width="0.5" stroke-linecap="round" stroke-linejoin="round"/>
<path d="M257.762 136.957L259.409 138.957L260.26 139.999L261.103 141.034L262.084 142.229L263.065 143.425L264.046 144.621L265.027 145.816L266.008 147.012L266.989 148.207L267.97 149.403L268.951 150.598L269.932 151.794L270.912 152.989L271.893 154.185L272.874 155.38L273.855 156.576L274.836 157.771L275.748 158.89L276.66 160.001L277.879 161.48" stroke="#263238" stroke-width="0.5" stroke-linecap="round" stroke-linejoin="round"/>
<path d="M259.141 136.198L260.604 137.976L261.455 139.018L262.306 140.053L263.287 141.248L264.268 142.444L265.249 143.64L266.222 144.835L267.21 146.031L268.184 147.226L269.165 148.422L270.146 149.617L271.127 150.813L272.107 152.008L273.088 153.204L274.069 154.399L275.05 155.595L276.031 156.79L276.943 157.909L277.863 159.02L278.775 160.139" stroke="#263238" stroke-width="0.5" stroke-linecap="round" stroke-linejoin="round"/>
<path d="M260.629 135.57L261.801 136.995L262.652 138.038L263.495 139.072L264.476 140.268L265.457 141.463L266.438 142.659L267.419 143.854L268.4 145.05L269.381 146.245L270.362 147.441L271.343 148.636L272.324 149.832L273.305 151.027L274.285 152.223L275.266 153.418L276.247 154.614L277.228 155.809L278.14 156.928L279.052 158.04L279.972 159.158" stroke="#263238" stroke-width="0.5" stroke-linecap="round" stroke-linejoin="round"/>
<path d="M281.166 158.177L280.246 157.059L279.334 155.947L278.422 154.828L277.441 153.633L276.46 152.437L275.479 151.242L274.498 150.046L273.517 148.851L272.536 147.655L271.555 146.46L270.574 145.264L269.594 144.069L268.613 142.873L267.632 141.678L266.651 140.482L265.67 139.287L264.689 138.091L263.846 137.057L262.995 136.022L262.145 134.987" stroke="#263238" stroke-width="0.5" stroke-linecap="round" stroke-linejoin="round"/>
<path d="M280.531 154.966L279.619 153.847L278.638 152.652L277.657 151.456L276.676 150.261L275.695 149.065L274.714 147.87L273.733 146.674L272.752 145.479L271.772 144.283L270.798 143.088L269.81 141.892L268.836 140.697L267.855 139.501L266.874 138.306L265.894 137.11L265.043 136.076L264.192 135.033L263.832 134.596" stroke="#263238" stroke-width="0.5" stroke-linecap="round" stroke-linejoin="round"/>
<path d="M280.814 152.867L279.834 151.671L278.853 150.476L277.872 149.28L276.891 148.084L275.91 146.889L274.929 145.693L273.948 144.498L272.967 143.302L271.986 142.107L271.005 140.911L270.024 139.716L269.043 138.52L268.062 137.325L267.081 136.129L266.238 135.095" stroke="#263238" stroke-width="0.5" stroke-linecap="round" stroke-linejoin="round"/>
<path d="M280.049 149.495L279.068 148.299L278.087 147.104L277.106 145.908L276.125 144.712L275.144 143.517L274.163 142.321L273.182 141.126L272.201 139.93L271.22 138.735L270.239 137.539L269.258 136.344L268.277 135.148" stroke="#263238" stroke-width="0.5" stroke-linecap="round" stroke-linejoin="round"/>
<path d="M267.081 136.129L265.893 137.11L264.69 138.091L263.494 139.072L262.306 140.053L261.103 141.034L259.915 142.015L258.72 142.988L257.516 143.977L256.329 144.95L255.133 145.931L253.93 146.92L252.734 147.893" stroke="#263238" stroke-width="0.5" stroke-linecap="round" stroke-linejoin="round"/>
<path d="M251.895 146.858L253.09 145.885L254.286 144.896L255.481 143.923L256.677 142.942L257.872 141.961L259.068 140.98L260.263 139.999L261.459 139.018L262.654 138.037L263.85 137.057L265.045 136.076L266.241 135.095" stroke="#263238" stroke-width="0.5" stroke-linecap="round" stroke-linejoin="round"/>
<path d="M264.189 135.033L262.994 136.022L261.798 136.995L260.603 137.976L259.407 138.957L258.212 139.938L257.016 140.919L255.821 141.9L254.625 142.881L253.43 143.862L252.227 144.843" stroke="#263238" stroke-width="0.5" stroke-linecap="round" stroke-linejoin="round"/>
<path d="M262.744 134.489L262.146 134.987L260.951 135.961L259.755 136.942L258.56 137.923L257.364 138.903L256.169 139.884L254.973 140.865L253.778 141.846L252.582 142.827" stroke="#263238" stroke-width="0.5" stroke-linecap="round" stroke-linejoin="round"/>
<path d="M252.52 150.069L253.715 149.088L254.911 148.107L256.106 147.126L257.302 146.146L258.497 145.172L259.693 144.184L260.888 143.21L262.084 142.229L263.287 141.249L264.475 140.268L265.67 139.287L266.873 138.306L268.061 137.325L269.257 136.344" stroke="#263238" stroke-width="0.5" stroke-linecap="round" stroke-linejoin="round"/>
<path d="M270.237 137.539L269.042 138.52L267.854 139.501L266.651 140.482L265.455 141.463L264.268 142.444L263.064 143.425L261.869 144.406L260.681 145.387L259.478 146.368L258.29 147.349L257.094 148.33L255.891 149.311L254.696 150.292L253.508 151.265" stroke="#263238" stroke-width="0.5" stroke-linecap="round" stroke-linejoin="round"/>
<path d="M271.946 138.137L270.022 139.716L268.834 140.697L267.631 141.678L266.436 142.659L265.248 143.64L264.045 144.62L262.849 145.601L261.654 146.582L260.458 147.563L259.263 148.544L258.067 149.518L256.872 150.506L255.676 151.479L254.48 152.46" stroke="#263238" stroke-width="0.5" stroke-linecap="round" stroke-linejoin="round"/>
<path d="M273.066 139.225L271.004 140.911L269.809 141.892L268.613 142.873L267.418 143.854L266.222 144.835L265.027 145.816L263.831 146.797L262.636 147.778L261.44 148.759L260.244 149.732L259.049 150.713L257.853 151.694L256.658 152.675L254.934 154.093" stroke="#263238" stroke-width="0.5" stroke-linecap="round" stroke-linejoin="round"/>
<path d="M274.178 140.314L271.986 142.107L270.798 143.088L269.595 144.069L268.399 145.05L267.212 146.031L266.008 147.012L264.813 147.992L263.617 148.973L262.422 149.954L261.226 150.935L260.031 151.916L258.835 152.897L257.64 153.878L255.785 155.396" stroke="#263238" stroke-width="0.5" stroke-linecap="round" stroke-linejoin="round"/>
<path d="M275.302 141.386L272.965 143.302L271.769 144.283L270.574 145.264L269.378 146.245L268.183 147.226L266.987 148.207L265.792 149.188L264.596 150.169L263.401 151.15L262.205 152.131L261.009 153.104L259.814 154.093L258.618 155.066L256.672 156.668" stroke="#263238" stroke-width="0.5" stroke-linecap="round" stroke-linejoin="round"/>
<path d="M276.097 142.735L273.951 144.498L272.755 145.479L271.56 146.46L270.364 147.441L269.169 148.422L267.973 149.403L266.778 150.384L265.582 151.364L264.387 152.345L263.191 153.319L261.995 154.3L260.8 155.281L259.604 156.261L257.742 157.787" stroke="#263238" stroke-width="0.5" stroke-linecap="round" stroke-linejoin="round"/>
<path d="M276.991 144.007L274.93 145.693L273.734 146.674L272.539 147.655L271.343 148.636L270.148 149.617L268.952 150.598L267.757 151.579L266.561 152.56L265.366 153.541L264.17 154.522L262.975 155.503L261.779 156.484L260.584 157.465L258.859 158.875" stroke="#263238" stroke-width="0.5" stroke-linecap="round" stroke-linejoin="round"/>
<path d="M277.787 145.349L275.909 146.889L274.713 147.87L273.518 148.851L272.322 149.832L271.127 150.813L269.931 151.794L268.736 152.775L267.54 153.755L266.345 154.736L265.149 155.717L263.954 156.691L262.758 157.679L261.563 158.653L260.367 159.633" stroke="#263238" stroke-width="0.5" stroke-linecap="round" stroke-linejoin="round"/>
<path d="M278.457 146.797L276.893 148.084L275.698 149.065L274.502 150.046L273.307 151.027L272.111 152.008L270.916 152.989L269.72 153.97L268.525 154.943L267.329 155.932L266.134 156.905L264.938 157.886L263.743 158.867L262.547 159.848L261.352 160.829" stroke="#263238" stroke-width="0.5" stroke-linecap="round" stroke-linejoin="round"/>
<path d="M279.065 148.299L277.87 149.28L276.674 150.261L275.479 151.242L274.283 152.223L273.088 153.204L271.892 154.185L270.697 155.166L269.501 156.147L268.306 157.127L267.11 158.108L265.915 159.089L264.719 160.07L263.524 161.051L262.328 162.025" stroke="#263238" stroke-width="0.5" stroke-linecap="round" stroke-linejoin="round"/>
<path d="M280.046 149.495L278.85 150.476L277.655 151.456L276.459 152.437L275.264 153.418L274.068 154.399L272.873 155.38L271.677 156.361L270.482 157.342L269.286 158.323L268.09 159.304L266.895 160.277L265.699 161.266L264.504 162.247" stroke="#263238" stroke-width="0.5" stroke-linecap="round" stroke-linejoin="round"/>
<path d="M265.488 163.435L266.684 162.461L267.879 161.473L269.075 160.499L270.27 159.519L271.466 158.53L272.661 157.557L273.857 156.576L275.052 155.595L276.248 154.614L277.444 153.633L278.639 152.652L279.835 151.671" stroke="#263238" stroke-width="0.5" stroke-linecap="round" stroke-linejoin="round"/>
<path d="M267.664 163.657L268.86 162.676L270.055 161.695L271.251 160.714L272.446 159.733L273.642 158.752L274.837 157.771L276.033 156.79L277.228 155.809L278.424 154.828L279.619 153.847L280.815 152.867" stroke="#263238" stroke-width="0.5" stroke-linecap="round" stroke-linejoin="round"/>
<path d="M268.574 164.768L269.77 163.787L270.965 162.806L272.161 161.833L273.356 160.844L274.552 159.871L275.747 158.89L276.943 157.909L278.138 156.928L279.334 155.947L280.529 154.966" stroke="#263238" stroke-width="0.5" stroke-linecap="round" stroke-linejoin="round"/>
<path d="M280.248 157.059L279.052 158.039L277.865 159.02L276.661 160.001L275.466 160.982L274.278 161.963L273.075 162.944L271.879 163.925L270.691 164.906" stroke="#263238" stroke-width="0.5" stroke-linecap="round" stroke-linejoin="round"/>
<path d="M281.166 158.177L279.97 159.158L278.774 160.139L277.579 161.12L276.383 162.101L275.188 163.074L273.992 164.063L272.797 165.036" stroke="#263238" stroke-width="0.5" stroke-linecap="round" stroke-linejoin="round"/>
<path d="M280.339 159.695L280.5 159.519C280.5 159.519 279.358 163.642 281.052 166.577L280.622 166.929L280.201 167.274C277.657 165.044 273.411 165.335 273.411 165.335L273.58 165.228C272.802 165.352 272.014 165.398 271.227 165.366L271.043 165.481C271.043 165.481 277.442 165.481 280.96 168.546L281.565 168.056L282.171 167.558C279.871 163.504 281.105 157.204 281.105 157.204L280.937 157.388C280.813 158.175 280.613 158.947 280.339 159.695Z" fill="#263238" stroke="#263238" stroke-linecap="round" stroke-linejoin="round"/>
<path d="M255.815 136.612C250.267 141.164 250.313 150.407 255.915 157.204C261.517 164.002 272.254 167.933 277.795 163.412C283.335 158.89 281.58 147.571 275.986 140.743C270.392 133.915 261.349 132.068 255.815 136.612ZM277.005 162.454C271.863 166.676 261.893 163.021 256.697 156.691C251.501 150.361 251.455 141.793 256.605 137.578C261.755 133.363 270.131 135.072 275.327 141.41C280.523 147.747 282.14 158.231 276.998 162.454H277.005Z" fill="white" stroke="#263238" stroke-linecap="round" stroke-linejoin="round"/>
<path d="M282.203 167.573L281.59 168.079L280.984 168.577C281.38 169.733 281.872 170.853 282.456 171.926L294.756 186.916L296.12 185.789L297.492 184.67L285.23 169.68C284.283 168.893 283.27 168.188 282.203 167.573Z" fill="#263238" stroke="#263238" stroke-linecap="round" stroke-linejoin="round"/>
<path d="M295.253 184.563L292.402 186.895L292.977 187.597L295.827 185.265L295.253 184.563Z" stroke="#263238" stroke-width="0.994887" stroke-linecap="round" stroke-linejoin="round"/>
<path d="M355.879 142.996C355.879 142.996 344.989 150.054 344.652 150.744C344.315 151.433 334.207 170.171 334.207 170.171C334.207 170.171 309.162 178.256 307.254 178.823C305.345 179.39 301.414 180.279 301.414 180.279L302.648 186.004C302.648 186.004 336.368 182.41 337.464 182.08C338.56 181.751 338.697 181.85 339.487 180.954C340.276 180.057 355.772 162.982 355.772 162.982C355.772 162.982 367.704 170.171 377.667 174.217C387.63 178.264 392.488 179.72 392.488 179.72C393.368 180.364 394.162 181.119 394.849 181.965C395.408 182.862 397.769 183.759 398.106 183.873C398.443 183.988 407.302 181.069 413.487 172.869C419.671 164.668 420.116 162.316 420.116 162.316L411.134 157.258C409.333 156.246 398.213 144.345 394.274 138.283C390.335 132.221 390.228 131.654 388.204 131.769C386.181 131.884 370.8 134.014 367.206 134.834C363.612 135.654 355.879 142.996 355.879 142.996Z" fill="white" stroke="#263238" stroke-linecap="round" stroke-linejoin="round"/>
<path d="M394.293 138.283C390.361 132.213 390.246 131.654 388.223 131.769C386.2 131.884 370.819 134.014 367.225 134.834C363.63 135.654 355.883 143.034 355.883 143.034C355.883 143.034 344.993 150.054 344.655 150.744C344.471 151.112 341.36 156.875 338.578 162.055C342.256 165.155 346.761 167.11 351.537 167.68L355.775 163.013C355.775 163.013 367.707 170.171 377.67 174.217C387.633 178.264 392.492 179.72 392.492 179.72C393.371 180.364 394.165 181.119 394.852 181.965C395.411 182.862 397.772 183.759 398.109 183.874C398.446 183.988 407.305 181.069 413.49 172.869C419.674 164.669 420.119 162.316 420.119 162.316L411.137 157.258C409.336 156.246 398.216 144.345 394.293 138.283Z" fill="#FC5546" stroke="#263238" stroke-linecap="round" stroke-linejoin="round"/>
<path d="M392.098 155.802C392.81 155.748 393.538 155.671 394.289 155.572" stroke="white" stroke-linecap="round" stroke-linejoin="round"/>
<path d="M373.738 152.43C373.738 152.43 379.386 156.055 389.364 155.924" stroke="white" stroke-linecap="round" stroke-linejoin="round"/>
<path d="M368.684 152.43C371.948 154.671 375.549 156.376 379.351 157.48" stroke="white" stroke-linecap="round" stroke-linejoin="round"/>
<path d="M347.165 158.162C346.53 157.666 345.949 157.103 345.434 156.484" stroke="white" stroke-linecap="round" stroke-linejoin="round"/>
<path d="M355.772 162.982C353.294 161.96 350.914 160.716 348.66 159.266" stroke="white" stroke-linecap="round" stroke-linejoin="round"/>
<path d="M301.414 180.279L302.656 186.004L306.219 185.69L304.855 179.291L301.414 180.279Z" fill="white" stroke="#263238" stroke-linecap="round" stroke-linejoin="round"/>
<path d="M292.545 178.087C292.545 178.087 288 179.176 288 179.942C288 180.708 291.679 187.79 292.905 187.912C294.131 188.035 302.637 186.019 302.637 186.019L301.404 180.295L292.545 178.087Z" fill="white" stroke="#263238" stroke-linecap="round" stroke-linejoin="round"/>
<path d="M301.415 180.279C301.415 180.279 294.195 177.007 293.13 176.7C292.065 176.394 291.299 178.409 291.299 179.176C291.299 179.942 291.145 183.59 292.065 183.897C292.866 184.063 293.693 184.063 294.494 183.897L294.349 181.46C294.639 182.176 295.148 182.784 295.802 183.197C296.457 183.609 297.224 183.806 297.997 183.759" fill="white"/>
<path d="M301.415 180.279C301.415 180.279 294.195 177.007 293.13 176.7C292.065 176.394 291.299 178.409 291.299 179.176C291.299 179.942 291.145 183.59 292.065 183.897C292.866 184.063 293.693 184.063 294.494 183.897L294.349 181.46C294.639 182.176 295.148 182.784 295.802 183.197C296.457 183.609 297.224 183.806 297.997 183.759" stroke="#263238" stroke-linecap="round" stroke-linejoin="round"/>
<path d="M368.792 260.977C368.792 260.977 366.186 259.061 365.665 258.195C365.159 257.073 364.751 255.909 364.447 254.716C364.278 254.195 359.58 256.111 359.58 256.111C359.58 256.111 353.848 256.455 350.545 255.237C347.242 254.018 344.805 253.704 344.805 254.716C344.805 255.727 355.235 265.843 358.89 267.583C362.546 269.323 363.236 270.71 364.255 269.844C365.274 268.978 367.903 263.935 367.903 263.935C367.903 263.935 370.861 262.195 370.685 261.498C370.508 260.801 368.792 260.977 368.792 260.977Z" fill="white" stroke="#263238" stroke-linecap="round" stroke-linejoin="round"/>
<path d="M357.68 143.555C357.68 143.555 358.799 145.916 362.278 148.613C365.757 151.311 366.999 151.64 366.999 151.64C366.999 151.64 369.581 145.019 369.466 141.088C369.479 139.068 369.177 137.059 368.57 135.133L364.416 130.979C364.416 130.979 359.473 142.099 357.68 143.555Z" fill="white" stroke="#263238" stroke-linecap="round" stroke-linejoin="round"/>
<path d="M362.952 134.351L362.278 148.613L358.239 145.126L357.68 143.555L362.952 134.351Z" fill="#263238" stroke="#263238" stroke-linecap="round" stroke-linejoin="round"/>
<path d="M345.772 114.587C345.772 114.587 345.006 112.786 343.864 113.69C342.722 114.594 340.607 117.284 341.059 118.181C341.511 119.078 339.488 117.284 339.373 118.855C339.276 119.442 339.352 120.044 339.592 120.589C339.831 121.133 340.224 121.596 340.722 121.921C341.569 122.467 342.474 122.919 343.419 123.27C343.419 123.27 344.99 130.343 345.55 131.577C346.109 132.811 348.355 138.091 351.504 141.241C354.654 144.391 356.217 145.617 357.229 145.394L358.241 145.172C358.241 145.172 364.755 138.091 365.429 136.635C366.104 135.179 366.548 134.052 366.195 132.251C365.843 130.45 365.636 129.669 365.636 129.669C365.636 129.669 367.1 127.761 366.87 126.075C366.64 124.389 366.104 123.722 365.184 123.492C364.264 123.262 363.391 115.407 362.494 113.391C361.597 111.376 361.26 110.694 354.746 111.368C348.232 112.042 345.772 114.587 345.772 114.587Z" fill="white" stroke="#263238" stroke-linecap="round" stroke-linejoin="round"/>
<path d="M348.47 124.58C349.596 124.128 352.401 122.22 354.531 120.871C356.662 119.522 358.126 120.105 357.903 121.101C357.681 122.097 357.007 123.009 357.903 124.021C358.8 125.032 360.371 124.58 360.371 124.58C360.371 124.58 360.938 126.373 361.383 126.488C361.827 126.603 362.057 126.826 362.394 125.722C362.732 124.619 365.199 123.469 365.199 123.469C364.303 123.247 363.406 115.384 362.509 113.368C361.613 111.353 361.275 110.671 354.761 111.345C348.247 112.02 345.772 114.602 345.772 114.602C345.772 114.602 345.006 112.801 343.864 113.706C342.722 114.61 340.607 117.3 341.059 118.196C341.511 119.093 339.488 117.3 339.373 118.871C339.276 119.458 339.352 120.06 339.592 120.604C339.831 121.148 340.224 121.611 340.722 121.936C341.569 122.482 342.474 122.935 343.419 123.285C343.419 123.285 347.351 125.032 348.47 124.58Z" fill="#263238" stroke="#263238" stroke-linecap="round" stroke-linejoin="round"/>
<path d="M355.398 130.45C355.512 130.695 355.528 130.975 355.442 131.231C355.357 131.488 355.176 131.702 354.938 131.829C354.494 131.96 353.98 131.569 353.789 130.948C353.597 130.328 353.789 129.707 354.241 129.577C354.693 129.447 355.206 129.83 355.398 130.45Z" fill="#263238"/>
<path d="M349.074 132.014C349.258 132.604 349.12 133.171 348.76 133.278C348.4 133.385 347.994 133.002 347.795 132.412C347.595 131.822 347.795 131.255 348.109 131.148C348.423 131.041 348.89 131.424 349.074 132.014Z" fill="#263238"/>
<path d="M352.18 129.408C352.675 128.809 353.29 128.319 353.986 127.971C354.681 127.623 355.442 127.423 356.218 127.385" stroke="#263238" stroke-linecap="round" stroke-linejoin="round"/>
<path d="M348.582 130.083C348.582 130.083 347.816 129.408 346.223 130.083" stroke="#263238" stroke-linecap="round" stroke-linejoin="round"/>
<path d="M349.598 131.209L350.264 132.443C350.264 132.443 350.602 137.271 351.169 137.493C351.736 137.716 354.089 136.597 354.089 136.597" stroke="#263238" stroke-linecap="round" stroke-linejoin="round"/>
<path d="M353.855 139.854L355.319 139.064" stroke="#263238" stroke-linecap="round" stroke-linejoin="round"/>
<path d="M380.469 133.899C380.469 133.899 387.205 132.106 389.343 132.366C391.481 132.627 420.672 143.034 421.231 144.046C421.791 145.057 422.473 146.513 422.473 146.513L429.209 179.306L424.718 179.98C424.718 179.98 421.346 172.118 420.12 169.65C418.894 167.182 415.292 161.113 414.166 158.085C413.039 155.058 411.92 152.583 411.92 152.583L387.105 149.433" fill="#FC5546"/>
<path d="M380.469 133.899C380.469 133.899 387.205 132.106 389.343 132.366C391.481 132.627 420.672 143.034 421.231 144.046C421.791 145.057 422.473 146.513 422.473 146.513L429.209 179.306L424.718 179.98C424.718 179.98 421.346 172.118 420.12 169.65C418.894 167.182 415.292 161.113 414.166 158.085C413.039 155.058 411.92 152.583 411.92 152.583L387.105 149.433" stroke="#263238" stroke-linecap="round" stroke-linejoin="round"/>
<path d="M422.478 146.475C422.478 146.475 421.803 145.019 421.236 144.007C421.014 143.601 416.247 141.708 410.453 139.547C410.668 143.164 410.453 148.038 408.453 152.1L411.917 152.545C411.917 152.545 413.044 155.012 414.163 158.047C415.281 161.082 418.883 167.144 420.117 169.612C421.351 172.079 424.715 179.942 424.715 179.942L429.206 179.268L422.478 146.475Z" fill="white" stroke="#263238" stroke-linecap="round" stroke-linejoin="round"/>
<path d="M423.152 176.348L428.318 175.451L429.214 179.268L424.723 179.942L423.152 176.348Z" fill="white" stroke="#263238" stroke-linecap="round" stroke-linejoin="round"/>
<path d="M424.719 179.942C424.719 179.942 421.907 182.747 421.799 183.536C421.409 185.346 420.844 187.115 420.113 188.816C419.554 189.828 419.102 190.61 420.673 190.273C422.244 189.935 423.033 187.69 423.033 187.69C423.033 187.69 423.37 186.004 424.267 186.004C425.164 186.004 427.861 192.855 428.199 193.422C428.536 193.989 429.432 196.787 430.222 196.449C431.011 196.112 430.329 192.855 430.329 192.855C430.329 192.855 430.781 185.897 430.444 184.096C430.107 182.295 429.21 179.268 429.21 179.268L424.719 179.942Z" fill="white" stroke="#263238" stroke-linecap="round" stroke-linejoin="round"/>
<path d="M258.035 169.742C258.033 171.247 257.434 172.689 256.369 173.752C255.305 174.816 253.861 175.413 252.357 175.413C251.344 175.424 250.348 175.159 249.475 174.647C248.625 174.145 247.92 173.431 247.431 172.574C246.941 171.718 246.684 170.748 246.684 169.761C246.684 168.774 246.941 167.804 247.431 166.948C247.92 166.091 248.625 165.377 249.475 164.875C250.348 164.363 251.344 164.098 252.357 164.109C253.863 164.109 255.307 164.707 256.372 165.772C257.437 166.837 258.035 168.282 258.035 169.788V169.742Z" fill="#FC5546" stroke="#263238" stroke-linecap="round" stroke-linejoin="round"/>
<path d="M258.035 169.742C258.037 170.52 257.877 171.291 257.566 172.004C257.254 172.718 256.798 173.359 256.227 173.888C255.654 173.359 255.197 172.717 254.884 172.003C254.572 171.289 254.41 170.518 254.41 169.738C254.41 168.958 254.572 168.187 254.884 167.473C255.197 166.759 255.654 166.117 256.227 165.588C256.798 166.119 257.253 166.762 257.565 167.476C257.876 168.191 258.036 168.962 258.035 169.742Z" fill="#FC5546" stroke="#263238" stroke-linecap="round" stroke-linejoin="round"/>
<path d="M252.272 169.742C252.272 170.729 252.014 171.699 251.524 172.555C251.033 173.412 250.327 174.125 249.475 174.624C248.625 174.122 247.92 173.408 247.431 172.551C246.941 171.695 246.684 170.725 246.684 169.738C246.684 168.751 246.941 167.781 247.431 166.925C247.92 166.068 248.625 165.354 249.475 164.852C250.327 165.353 251.034 166.067 251.525 166.925C252.015 167.782 252.273 168.754 252.272 169.742Z" fill="#FC5546" stroke="#263238" stroke-linecap="round" stroke-linejoin="round"/>
<path d="M520.374 206.351H34.1641V213.532H520.374V206.351Z" fill="white" stroke="#263238" stroke-linecap="round" stroke-linejoin="round"/>
<path d="M28.14 205.04H21.4727V305.012H28.14V205.04Z" fill="#92E3A9" stroke="#263238" stroke-linecap="round" stroke-linejoin="round"/>
<path d="M536.089 205.04H529.422V305.012H536.089V205.04Z" fill="#92E3A9" stroke="#263238" stroke-linecap="round" stroke-linejoin="round"/>
<path d="M34.163 206.351H21.4414" stroke="#263238" stroke-linecap="round" stroke-linejoin="round"/>
<path d="M520.375 206.351H535.771" stroke="#263238" stroke-linecap="round" stroke-linejoin="round"/>
<path d="M34.163 292.727H21.4414" stroke="#263238" stroke-linecap="round" stroke-linejoin="round"/>
<path d="M520.375 292.727H535.771" stroke="#263238" stroke-linecap="round" stroke-linejoin="round"/>
<path d="M34.1641 213.532V293.057" stroke="#263238" stroke-linecap="round" stroke-linejoin="round"/>
<path d="M42.0664 213.532V293.057" stroke="#263238" stroke-linecap="round" stroke-linejoin="round"/>
<path d="M49.9648 213.532V293.057" stroke="#263238" stroke-linecap="round" stroke-linejoin="round"/>
<path d="M57.8672 213.532V293.057" stroke="#263238" stroke-linecap="round" stroke-linejoin="round"/>
<path d="M65.7695 213.532V293.057" stroke="#263238" stroke-linecap="round" stroke-linejoin="round"/>
<path d="M73.668 213.532V293.057" stroke="#263238" stroke-linecap="round" stroke-linejoin="round"/>
<path d="M81.5625 213.532V293.057" stroke="#263238" stroke-linecap="round" stroke-linejoin="round"/>
<path d="M89.4648 213.532V293.057" stroke="#263238" stroke-linecap="round" stroke-linejoin="round"/>
<path d="M97.3672 213.532V293.057" stroke="#263238" stroke-linecap="round" stroke-linejoin="round"/>
<path d="M105.266 213.532V293.057" stroke="#263238" stroke-linecap="round" stroke-linejoin="round"/>
<path d="M113.168 213.532V293.057" stroke="#263238" stroke-linecap="round" stroke-linejoin="round"/>
<path d="M121.07 213.532V293.057" stroke="#263238" stroke-linecap="round" stroke-linejoin="round"/>
<path d="M128.969 213.532V293.057" stroke="#263238" stroke-linecap="round" stroke-linejoin="round"/>
<path d="M136.863 213.532V293.057" stroke="#263238" stroke-linecap="round" stroke-linejoin="round"/>
<path d="M144.766 213.532V293.057" stroke="#263238" stroke-linecap="round" stroke-linejoin="round"/>
<path d="M152.664 213.532V293.057" stroke="#263238" stroke-linecap="round" stroke-linejoin="round"/>
<path d="M160.566 213.532V293.057" stroke="#263238" stroke-linecap="round" stroke-linejoin="round"/>
<path d="M168.469 213.532V293.057" stroke="#263238" stroke-linecap="round" stroke-linejoin="round"/>
<path d="M176.371 213.532V293.057" stroke="#263238" stroke-linecap="round" stroke-linejoin="round"/>
<path d="M184.27 213.532V293.057" stroke="#263238" stroke-linecap="round" stroke-linejoin="round"/>
<path d="M192.164 213.532V293.057" stroke="#263238" stroke-linecap="round" stroke-linejoin="round"/>
<path d="M200.062 213.532V293.057" stroke="#263238" stroke-linecap="round" stroke-linejoin="round"/>
<path d="M207.965 213.532V293.057" stroke="#263238" stroke-linecap="round" stroke-linejoin="round"/>
<path d="M215.867 213.532V293.057" stroke="#263238" stroke-linecap="round" stroke-linejoin="round"/>
<path d="M223.77 213.532V293.057" stroke="#263238" stroke-linecap="round" stroke-linejoin="round"/>
<path d="M231.668 213.532V293.057" stroke="#263238" stroke-linecap="round" stroke-linejoin="round"/>
<path d="M239.57 213.532V293.057" stroke="#263238" stroke-linecap="round" stroke-linejoin="round"/>
<path d="M247.465 213.532V293.057" stroke="#263238" stroke-linecap="round" stroke-linejoin="round"/>
<path d="M255.363 213.532V293.057" stroke="#263238" stroke-linecap="round" stroke-linejoin="round"/>
<path d="M263.266 213.532V293.057" stroke="#263238" stroke-linecap="round" stroke-linejoin="round"/>
<path d="M271.168 213.532V293.057" stroke="#263238" stroke-linecap="round" stroke-linejoin="round"/>
<path d="M279.07 213.532V293.057" stroke="#263238" stroke-linecap="round" stroke-linejoin="round"/>
<path d="M286.969 213.532V293.057" stroke="#263238" stroke-linecap="round" stroke-linejoin="round"/>
<path d="M294.871 213.532V293.057" stroke="#263238" stroke-linecap="round" stroke-linejoin="round"/>
<path d="M302.766 213.532V293.057" stroke="#263238" stroke-linecap="round" stroke-linejoin="round"/>
<path d="M310.664 213.532V293.057" stroke="#263238" stroke-linecap="round" stroke-linejoin="round"/>
<path d="M318.566 213.532V293.057" stroke="#263238" stroke-linecap="round" stroke-linejoin="round"/>
<path d="M326.469 213.532V293.057" stroke="#263238" stroke-linecap="round" stroke-linejoin="round"/>
<path d="M334.367 213.532V293.057" stroke="#263238" stroke-linecap="round" stroke-linejoin="round"/>
<path d="M342.27 213.532V293.057" stroke="#263238" stroke-linecap="round" stroke-linejoin="round"/>
<path d="M350.172 213.532V293.057" stroke="#263238" stroke-linecap="round" stroke-linejoin="round"/>
<path d="M358.062 213.532V293.057" stroke="#263238" stroke-linecap="round" stroke-linejoin="round"/>
<path d="M365.965 213.532V293.057" stroke="#263238" stroke-linecap="round" stroke-linejoin="round"/>
<path d="M373.867 213.532V293.057" stroke="#263238" stroke-linecap="round" stroke-linejoin="round"/>
<path d="M381.766 213.532V293.057" stroke="#263238" stroke-linecap="round" stroke-linejoin="round"/>
<path d="M389.668 213.532V293.057" stroke="#263238" stroke-linecap="round" stroke-linejoin="round"/>
<path d="M397.57 213.532V293.057" stroke="#263238" stroke-linecap="round" stroke-linejoin="round"/>
<path d="M405.473 213.532V293.057" stroke="#263238" stroke-linecap="round" stroke-linejoin="round"/>
<path d="M413.363 213.532V293.057" stroke="#263238" stroke-linecap="round" stroke-linejoin="round"/>
<path d="M421.266 213.532V293.057" stroke="#263238" stroke-linecap="round" stroke-linejoin="round"/>
<path d="M429.172 213.532V293.057" stroke="#263238" stroke-linecap="round" stroke-linejoin="round"/>
<path d="M437.066 213.532V293.057" stroke="#263238" stroke-linecap="round" stroke-linejoin="round"/>
<path d="M444.969 213.532V293.057" stroke="#263238" stroke-linecap="round" stroke-linejoin="round"/>
<path d="M452.875 213.532V293.057" stroke="#263238" stroke-linecap="round" stroke-linejoin="round"/>
<path d="M460.77 213.532V293.057" stroke="#263238" stroke-linecap="round" stroke-linejoin="round"/>
<path d="M468.668 213.532V293.057" stroke="#263238" stroke-linecap="round" stroke-linejoin="round"/>
<path d="M476.566 213.532V293.057" stroke="#263238" stroke-linecap="round" stroke-linejoin="round"/>
<path d="M484.469 213.532V293.057" stroke="#263238" stroke-linecap="round" stroke-linejoin="round"/>
<path d="M492.371 213.532V293.057" stroke="#263238" stroke-linecap="round" stroke-linejoin="round"/>
<path d="M500.27 213.532V293.057" stroke="#263238" stroke-linecap="round" stroke-linejoin="round"/>
<path d="M508.176 213.532V293.057" stroke="#263238" stroke-linecap="round" stroke-linejoin="round"/>
<path d="M516.074 213.532V293.057" stroke="#263238" stroke-linecap="round" stroke-linejoin="round"/>
<path d="M34.6758 222.36H516.05" stroke="#263238" stroke-linecap="round" stroke-linejoin="round"/>
<path d="M34.6758 231.204H516.05" stroke="#263238" stroke-linecap="round" stroke-linejoin="round"/>
<path d="M34.6758 240.04H516.05" stroke="#263238" stroke-linecap="round" stroke-linejoin="round"/>
<path d="M34.6758 248.876H516.05" stroke="#263238" stroke-linecap="round" stroke-linejoin="round"/>
<path d="M34.6758 257.712H516.05" stroke="#263238" stroke-linecap="round" stroke-linejoin="round"/>
<path d="M34.6758 266.548H516.05" stroke="#263238" stroke-linecap="round" stroke-linejoin="round"/>
<path d="M34.6758 275.385H516.05" stroke="#263238" stroke-linecap="round" stroke-linejoin="round"/>
<path d="M34.6758 284.221H516.05" stroke="#263238" stroke-linecap="round" stroke-linejoin="round"/>
<path d="M34.6758 293.057H516.05" stroke="#263238" stroke-linecap="round" stroke-linejoin="round"/>
<path d="M520.374 292.727H34.1641V299.908H520.374V292.727Z" fill="#263238" stroke="#263238" stroke-linecap="round" stroke-linejoin="round"/>
<path d="M160.081 110.97C160.081 110.97 157.015 115.867 156.211 116.779C155.406 117.691 154.165 118.028 153.912 119.17C153.659 120.312 154.678 122.013 154.027 122.695C153.375 123.377 150.379 123.607 150.379 123.607C149.704 124.491 148.898 125.266 147.988 125.906C146.509 126.933 144.348 127.845 143.55 127.845C142.753 127.845 141.045 126.366 141.045 126.366C141.045 126.366 140.93 124.772 136.944 121.806C132.959 118.84 131.473 118.741 131.473 118.741L134.324 109.061C134.324 109.061 135.918 105.873 143.436 104.049C150.954 102.225 154.931 103.934 156.648 105.421C158.364 106.908 160.081 110.97 160.081 110.97Z" fill="white" stroke="#263238" stroke-linecap="round" stroke-linejoin="round"/>
<path d="M147.329 114.418C147.329 114.418 148.355 114.985 149.038 114.526C149.72 114.066 150.747 112.709 151.199 112.364C151.651 112.02 154.264 111.912 154.502 110.54C154.739 109.169 153.735 107.697 154.502 107.475C155.268 107.253 156.556 108.042 156.556 108.042C156.556 108.042 157.582 114.533 162.686 112.027C167.79 109.521 166.564 103.03 164.395 99.6198C162.227 96.2095 155.644 96.4088 155.644 96.4088C153.837 94.5264 151.719 92.9707 149.382 91.8106C145.735 90.1016 139.014 91.5807 136.622 95.1136C134.231 98.6466 135.596 99.4436 135.596 99.4436L134.829 102.287C134.829 102.287 133.81 102.065 133.465 104.111C133.12 106.157 132.553 112.311 133.35 113.56C134.147 114.809 138.477 116.526 140.186 116.756C140.717 116.808 141.252 116.731 141.747 116.533C142.242 116.334 142.682 116.019 143.029 115.614C143.343 115.438 147.329 114.418 147.329 114.418Z" fill="#263238" stroke="#263238" stroke-linecap="round" stroke-linejoin="round"/>
<path d="M147.44 116.012C147.44 116.012 148.007 109.881 147.21 109.061C146.413 108.241 144.252 109.973 142.995 112.932C141.738 115.89 142.091 117.376 142.888 117.714L143.654 118.058C143.009 118.961 142.438 119.915 141.945 120.909" fill="white"/>
<path d="M147.44 116.012C147.44 116.012 148.007 109.881 147.21 109.061C146.413 108.241 144.252 109.973 142.995 112.932C141.738 115.89 142.091 117.376 142.888 117.714L143.654 118.058C143.009 118.961 142.438 119.915 141.945 120.909" stroke="#263238" stroke-linecap="round" stroke-linejoin="round"/>
<path d="M134.797 102.34C134.797 102.34 145.733 101.091 156.891 115.323L158.6 113.023C158.6 113.023 152.906 104.938 144.591 101.635C136.276 98.3324 135.594 99.4743 135.594 99.4743L134.797 102.34Z" fill="white" stroke="#263238" stroke-linecap="round" stroke-linejoin="round"/>
<path d="M118.742 118.403C118.742 118.403 128.084 121.132 131.272 122.503C134.46 123.875 142.66 130.811 142.66 130.811C142.66 130.811 142.997 126.711 142.89 125.914C141.883 123.216 140.048 120.907 137.648 119.315C134.583 117.491 126.597 114.985 125.348 115.323C123.365 116.132 121.426 117.045 119.539 118.058L118.742 118.403Z" fill="#0E2B5C" stroke="#263238" stroke-linecap="round" stroke-linejoin="round"/>
<path d="M74.951 150.315C74.951 150.315 71.8319 153.625 74.0314 158.744C76.2308 163.864 87.4503 179.329 87.4503 179.329L94.11 187.445L95.3898 189.284L98.3327 180.088L92.4547 175.673C90.3455 171.895 88.6792 167.886 87.4887 163.726C85.6494 157.112 84.5458 154.353 82.8905 151.594C81.6445 149.766 79.929 148.308 77.9245 147.372" fill="white"/>
<path d="M74.951 150.315C74.951 150.315 71.8319 153.625 74.0314 158.744C76.2308 163.864 87.4503 179.329 87.4503 179.329L94.11 187.445L95.3898 189.284L98.3327 180.088L92.4547 175.673C90.3455 171.895 88.6792 167.886 87.4887 163.726C85.6494 157.112 84.5458 154.353 82.8905 151.594C81.6445 149.766 79.929 148.308 77.9245 147.372" stroke="#263238" stroke-linecap="round" stroke-linejoin="round"/>
<path d="M224.461 236.155L226.499 236.729L228.538 237.296L230.577 237.864L232.615 238.438L234.654 239.005L236.684 239.573L238.731 240.147L240.761 240.714L242.8 241.282L244.838 241.856" stroke="#263238" stroke-width="0.5" stroke-linecap="round" stroke-linejoin="round"/>
<path d="M220.957 232.982L222.996 233.549L225.026 234.116L227.073 234.691L229.103 235.258L231.142 235.825L233.18 236.4L235.219 236.967L237.258 237.542L239.296 238.109L241.335 238.676L243.365 239.251L245.412 239.818L247.442 240.393L249.205 240.883" stroke="#263238" stroke-width="0.5" stroke-linecap="round" stroke-linejoin="round"/>
<path d="M251.539 239.343L249.777 238.844L248.007 238.354L245.976 237.787L243.937 237.212L241.899 236.645L239.86 236.07L237.822 235.503L235.783 234.936L233.752 234.361L231.706 233.794L229.675 233.219L227.637 232.652L225.598 232.085L223.56 231.51L221.521 230.943L219.483 230.376L217.582 229.84" stroke="#263238" stroke-width="0.5" stroke-linecap="round" stroke-linejoin="round"/>
<path d="M253.882 237.795L252.12 237.304L250.349 236.806L248.587 236.316L246.548 235.741L244.51 235.174L242.471 234.599L240.44 234.032L238.394 233.465L236.363 232.89L234.325 232.323L232.286 231.756L230.248 231.181L228.217 230.614L226.171 230.039L224.14 229.472L222.101 228.905L220.063 228.33L218.162 227.801L216.262 227.272" stroke="#263238" stroke-width="0.5" stroke-linecap="round" stroke-linejoin="round"/>
<path d="M214.926 224.698L216.826 225.234L218.727 225.763L220.628 226.299L222.666 226.866L224.705 227.433L226.743 228.008L228.782 228.575L230.812 229.142L232.851 229.717L234.889 230.284L236.928 230.859L238.966 231.426L241.005 232.001L243.044 232.568L245.074 233.135L247.121 233.71L249.151 234.277L250.914 234.767L252.684 235.266L254.447 235.756" stroke="#263238" stroke-width="0.5" stroke-linecap="round" stroke-linejoin="round"/>
<path d="M256.297 234.078L253.262 233.227L251.492 232.737L249.729 232.238L247.691 231.671L245.652 231.097L243.614 230.529L241.575 229.962L239.537 229.388L237.498 228.82L235.467 228.253L233.429 227.679L231.39 227.112L229.352 226.544L227.313 225.97L225.275 225.403L223.244 224.828L221.198 224.261L219.297 223.724L217.404 223.195L215.496 222.667" stroke="#263238" stroke-width="0.5" stroke-linecap="round" stroke-linejoin="round"/>
<path d="M257.17 232.124L253.828 231.189L252.058 230.69L250.295 230.2L248.257 229.633L246.218 229.058L244.18 228.491L242.149 227.924L240.111 227.349L238.072 226.782L236.034 226.207L233.995 225.64L231.956 225.073L229.926 224.498L227.879 223.931L225.849 223.356L223.81 222.789L221.772 222.222L219.871 221.686L217.97 221.157L215.441 220.452" stroke="#263238" stroke-width="0.5" stroke-linecap="round" stroke-linejoin="round"/>
<path d="M258.04 230.169L254.392 229.15L252.629 228.66L250.859 228.161L248.828 227.594L246.79 227.027L244.751 226.452L242.713 225.885L240.674 225.311L238.636 224.743L236.605 224.176L234.559 223.602L232.528 223.035L230.489 222.467L228.451 221.893L226.412 221.326L224.374 220.751L222.335 220.184L220.435 219.655L218.534 219.118L215.859 218.367" stroke="#263238" stroke-width="0.5" stroke-linecap="round" stroke-linejoin="round"/>
<path d="M258.387 228.069L254.969 227.119L253.199 226.621L251.436 226.131L249.398 225.556L247.359 224.989L245.321 224.422L243.282 223.847L241.243 223.28L239.213 222.705L237.174 222.138L235.136 221.571L233.097 220.996L231.059 220.429L229.02 219.854L226.982 219.287L224.951 218.72L222.905 218.145L221.004 217.616L219.111 217.088L216.582 216.375" stroke="#263238" stroke-width="0.5" stroke-linecap="round" stroke-linejoin="round"/>
<path d="M258.574 225.924L255.532 225.073L253.762 224.583L251.999 224.084L249.968 223.517L247.922 222.95L245.891 222.375L243.853 221.808L241.814 221.234L239.776 220.666L237.737 220.099L235.699 219.525L233.66 218.957L231.629 218.39L229.591 217.816L227.552 217.248L225.514 216.681L223.475 216.107L221.575 215.578L219.674 215.041L217.773 214.513" stroke="#263238" stroke-width="0.5" stroke-linecap="round" stroke-linejoin="round"/>
<path d="M258.532 223.717L256.102 223.042L254.34 222.544L252.577 222.054L250.539 221.479L248.5 220.912L246.462 220.345L244.423 219.77L242.384 219.203L240.346 218.636L238.315 218.061L236.269 217.494L234.238 216.919L232.2 216.352L230.161 215.777L228.123 215.21L226.084 214.643L224.045 214.068L222.145 213.539L220.252 213.01L218.344 212.474" stroke="#263238" stroke-width="0.5" stroke-linecap="round" stroke-linejoin="round"/>
<path d="M218.918 210.443L220.819 210.972L222.711 211.501L224.62 212.037L226.658 212.604L228.697 213.179L230.728 213.746L232.766 214.313L234.805 214.888L236.843 215.455L238.882 216.022L240.92 216.597L242.951 217.164L244.997 217.739L247.028 218.306L249.067 218.873L251.105 219.448L253.144 220.015L254.906 220.505L256.677 221.004L258.439 221.494" stroke="#263238" stroke-width="0.5" stroke-linecap="round" stroke-linejoin="round"/>
<path d="M223.289 209.462L225.19 209.991L227.228 210.566L229.267 211.133L231.305 211.708L233.344 212.275L235.382 212.842L237.413 213.417L239.452 213.984L241.49 214.559L243.529 215.126L245.567 215.693L247.606 216.268L249.637 216.835L251.683 217.402L253.714 217.977L255.476 218.467L257.246 218.965L257.998 219.172" stroke="#263238" stroke-width="0.5" stroke-linecap="round" stroke-linejoin="round"/>
<path d="M225.754 207.96L227.8 208.527L229.831 209.102L231.869 209.669L233.908 210.236L235.946 210.811L237.985 211.378L240.024 211.945L242.062 212.52L244.093 213.087L246.131 213.662L248.17 214.229L250.208 214.796L252.247 215.371L254.286 215.938L256.048 216.436" stroke="#263238" stroke-width="0.5" stroke-linecap="round" stroke-linejoin="round"/>
<path d="M230.406 207.064L232.437 207.631L234.483 208.205L236.514 208.773L238.553 209.34L240.591 209.914L242.63 210.481L244.661 211.056L246.707 211.623L248.738 212.19L250.776 212.765L252.815 213.332L254.853 213.899" stroke="#263238" stroke-width="0.5" stroke-linecap="round" stroke-linejoin="round"/>
<path d="M254.285 215.938L253.71 217.977L253.143 220.015L252.576 222.054L252.001 224.084L251.434 226.131L250.859 228.161L250.292 230.2L249.725 232.238L249.15 234.277L248.583 236.316L248.009 238.354L247.441 240.393" stroke="#263238" stroke-width="0.5" stroke-linecap="round" stroke-linejoin="round"/>
<path d="M249.207 240.883L249.782 238.845L250.349 236.806L250.916 234.768L251.491 232.737L252.058 230.69L252.633 228.66L253.2 226.621L253.767 224.583L254.342 222.544L254.909 220.506L255.476 218.467L256.051 216.436" stroke="#263238" stroke-width="0.5" stroke-linecap="round" stroke-linejoin="round"/>
<path d="M257.245 218.965L256.678 221.004L256.103 223.042L255.536 225.073L254.969 227.119L254.394 229.15L253.827 231.189L253.26 233.227L252.685 235.266L252.118 237.304L251.543 239.343" stroke="#263238" stroke-width="0.5" stroke-linecap="round" stroke-linejoin="round"/>
<path d="M258.722 220.475L258.439 221.494L257.872 223.533L257.297 225.571L256.73 227.61L256.155 229.648L255.588 231.679L255.021 233.725L254.446 235.756L253.879 237.795" stroke="#263238" stroke-width="0.5" stroke-linecap="round" stroke-linejoin="round"/>
<path d="M244.84 241.856L245.415 239.818L245.982 237.787L246.549 235.741L247.124 233.71L247.691 231.671L248.258 229.633L248.833 227.594L249.4 225.556L249.974 223.517L250.542 221.479L251.109 219.448L251.683 217.402L252.251 215.371L252.818 213.332" stroke="#263238" stroke-width="0.5" stroke-linecap="round" stroke-linejoin="round"/>
<path d="M250.775 212.765L250.208 214.796L249.633 216.835L249.066 218.873L248.499 220.912L247.924 222.95L247.357 224.989L246.79 227.027L246.215 229.058L245.648 231.097L245.073 233.135L244.506 235.174L243.939 237.212L243.364 239.251L242.797 241.282" stroke="#263238" stroke-width="0.5" stroke-linecap="round" stroke-linejoin="round"/>
<path d="M249.092 210.949L248.172 214.229L247.605 216.268L247.031 218.306L246.463 220.345L245.896 222.375L245.322 224.422L244.754 226.452L244.18 228.491L243.613 230.529L243.045 232.568L242.471 234.599L241.904 236.645L241.336 238.676L240.762 240.714" stroke="#263238" stroke-width="0.5" stroke-linecap="round" stroke-linejoin="round"/>
<path d="M247.113 210.152L246.132 213.662L245.565 215.693L244.998 217.739L244.424 219.77L243.856 221.808L243.282 223.847L242.715 225.885L242.147 227.924L241.573 229.962L241.006 232.001L240.438 234.032L239.864 236.07L239.297 238.109L238.477 241.052" stroke="#263238" stroke-width="0.5" stroke-linecap="round" stroke-linejoin="round"/>
<path d="M245.138 209.355L244.096 213.087L243.529 215.126L242.954 217.164L242.387 219.203L241.82 221.234L241.245 223.28L240.678 225.311L240.111 227.349L239.536 229.388L238.969 231.426L238.394 233.465L237.827 235.503L237.26 237.542L236.371 240.707" stroke="#263238" stroke-width="0.5" stroke-linecap="round" stroke-linejoin="round"/>
<path d="M243.175 208.543L242.064 212.52L241.489 214.559L240.922 216.597L240.347 218.636L239.78 220.666L239.213 222.705L238.638 224.743L238.071 226.782L237.496 228.82L236.929 230.859L236.362 232.89L235.787 234.936L235.22 236.967L234.293 240.293" stroke="#263238" stroke-width="0.5" stroke-linecap="round" stroke-linejoin="round"/>
<path d="M241.045 208.29L240.026 211.945L239.451 213.984L238.884 216.022L238.317 218.061L237.742 220.099L237.175 222.138L236.608 224.176L236.033 226.207L235.466 228.253L234.891 230.284L234.324 232.323L233.757 234.361L233.182 236.4L232.301 239.565" stroke="#263238" stroke-width="0.5" stroke-linecap="round" stroke-linejoin="round"/>
<path d="M238.957 207.876L237.984 211.378L237.409 213.417L236.842 215.455L236.267 217.494L235.7 219.525L235.133 221.571L234.558 223.602L233.991 225.64L233.424 227.679L232.849 229.717L232.282 231.756L231.707 233.794L231.14 235.825L230.32 238.768" stroke="#263238" stroke-width="0.5" stroke-linecap="round" stroke-linejoin="round"/>
<path d="M236.846 207.608L235.95 210.811L235.383 212.842L234.808 214.888L234.241 216.919L233.666 218.957L233.099 220.996L232.532 223.035L231.957 225.073L231.39 227.112L230.815 229.142L230.248 231.181L229.681 233.219L229.106 235.258L228.539 237.296" stroke="#263238" stroke-width="0.5" stroke-linecap="round" stroke-linejoin="round"/>
<path d="M234.654 207.577L233.911 210.236L233.344 212.275L232.769 214.313L232.202 216.352L231.635 218.39L231.06 220.429L230.493 222.467L229.926 224.498L229.351 226.544L228.784 228.575L228.217 230.614L227.642 232.652L227.075 234.691L226.5 236.729" stroke="#263238" stroke-width="0.5" stroke-linecap="round" stroke-linejoin="round"/>
<path d="M232.439 207.631L231.872 209.669L231.305 211.708L230.73 213.746L230.163 215.777L229.596 217.816L229.021 219.854L228.454 221.893L227.879 223.931L227.312 225.97L226.745 228.008L226.17 230.039L225.603 232.085L225.028 234.116L224.461 236.155" stroke="#263238" stroke-width="0.5" stroke-linecap="round" stroke-linejoin="round"/>
<path d="M230.407 207.064L229.832 209.102L229.265 211.133L228.698 213.179L228.123 215.21L227.556 217.248L226.981 219.287L226.414 221.325L225.847 223.356L225.272 225.403L224.705 227.433L224.138 229.472L223.563 231.51L222.996 233.549" stroke="#263238" stroke-width="0.5" stroke-linecap="round" stroke-linejoin="round"/>
<path d="M220.957 232.982L221.524 230.943L222.099 228.905L222.666 226.866L223.241 224.828L223.808 222.789L224.375 220.751L224.95 218.72L225.517 216.681L226.084 214.643L226.659 212.604L227.226 210.566L227.801 208.527" stroke="#263238" stroke-width="0.5" stroke-linecap="round" stroke-linejoin="round"/>
<path d="M219.484 230.376L220.059 228.33L220.626 226.299L221.193 224.261L221.768 222.222L222.335 220.184L222.902 218.145L223.477 216.107L224.044 214.068L224.619 212.037L225.186 209.991L225.753 207.96" stroke="#263238" stroke-width="0.5" stroke-linecap="round" stroke-linejoin="round"/>
<path d="M217.582 229.84L218.157 227.801L218.724 225.763L219.291 223.724L219.866 221.686L220.433 219.655L221 217.616L221.575 215.578L222.142 213.539L222.709 211.501L223.284 209.462" stroke="#263238" stroke-width="0.5" stroke-linecap="round" stroke-linejoin="round"/>
<path d="M220.822 210.972L220.254 213.011L219.68 215.041L219.113 217.088L218.538 219.118L217.971 221.157L217.404 223.195L216.829 225.234L216.262 227.272" stroke="#263238" stroke-width="0.5" stroke-linecap="round" stroke-linejoin="round"/>
<path d="M218.919 210.443L218.344 212.474L217.777 214.513L217.21 216.551L216.635 218.59L216.068 220.628L215.493 222.667L214.926 224.697" stroke="#263238" stroke-width="0.5" stroke-linecap="round" stroke-linejoin="round"/>
<path d="M217.491 212.29L217.622 211.984C217.622 211.984 213.085 215.685 208.479 215.179L208.272 215.907L208.073 216.635C212.272 218.59 214.204 224.069 214.204 224.069L214.242 223.793C214.516 224.837 214.894 225.851 215.369 226.82L215.323 227.119C215.323 227.119 211.767 219.118 205.988 216.39L206.28 215.356L206.563 214.329C212.916 214.995 220.12 209.96 220.12 209.96L219.99 210.282C219.092 210.867 218.256 211.54 217.491 212.29Z" fill="#263238" stroke="#263238" stroke-linecap="round" stroke-linejoin="round"/>
<path d="M259.889 230.338C257.245 239.779 245.673 244.799 234.04 241.55C222.407 238.3 211.57 226.989 214.214 217.555C216.858 208.121 231.979 204.09 243.612 207.339C255.245 210.589 262.526 220.889 259.889 230.338ZM215.854 218.015C213.402 226.782 223.457 237.266 234.247 240.285C245.037 243.305 255.789 238.645 258.242 229.878C260.694 221.111 253.927 211.554 243.129 208.535C232.331 205.515 218.307 209.248 215.854 218.015Z" fill="white" stroke="#263238" stroke-linecap="round" stroke-linejoin="round"/>
<path d="M206.571 214.321L206.28 215.363L205.988 216.398C205.988 216.398 201.965 216.666 200.976 216.398L175.434 209.255L176.085 206.918L176.736 204.619L202.287 211.769C203.275 212.007 206.571 214.321 206.571 214.321Z" fill="#263238" stroke="#263238" stroke-linecap="round" stroke-linejoin="round"/>
<path d="M176.775 204.485L175.41 209.363L176.613 209.7L177.978 204.822L176.775 204.485Z" stroke="#263238" stroke-linecap="round" stroke-linejoin="round"/>
<path d="M73.1415 154.177C72.9576 148.291 101.083 117.392 101.083 117.392L118.709 118.38C118.709 118.38 133.033 122.91 135.056 124.197C137.079 125.484 148.521 135.064 148.521 135.064C148.521 135.064 156.951 140.758 158.261 144.988C159.572 149.219 162.484 177.175 162.484 177.175L177.374 200.887L185.275 205.845C186.165 207.643 186.963 209.484 187.666 211.363C188.586 213.93 188.433 214.114 187.115 214.114C185.796 214.114 183.804 211.915 183.804 211.915C182.361 212.335 180.888 212.642 179.397 212.834C178.574 212.795 177.77 212.577 177.04 212.196C176.309 211.815 175.67 211.279 175.167 210.627C174.198 208.968 173.338 207.248 172.592 205.477C172.224 204.558 151.64 183.421 151.64 183.421L143.003 159.894C143.003 159.894 138.229 171.106 137.677 172.209C137.125 173.313 131.239 194.817 131.239 194.817C131.239 194.817 126.833 199.599 111.023 195.185C95.2127 190.771 94.1091 187.445 94.1091 187.445L98.7073 166.308L102.539 138.559C102.539 138.559 82.6904 157.679 80.8511 158.231C79.0118 158.783 77.0193 156.76 77.0193 156.76" fill="white"/>
<path d="M73.1415 154.177C72.9576 148.291 101.083 117.392 101.083 117.392L118.709 118.38C118.709 118.38 133.033 122.91 135.056 124.197C137.079 125.484 148.521 135.064 148.521 135.064C148.521 135.064 156.951 140.758 158.261 144.988C159.572 149.219 162.484 177.175 162.484 177.175L177.374 200.887L185.275 205.845C186.165 207.643 186.963 209.484 187.666 211.363C188.586 213.93 188.433 214.114 187.115 214.114C185.796 214.114 183.804 211.915 183.804 211.915C182.361 212.335 180.888 212.642 179.397 212.834C178.574 212.795 177.77 212.577 177.04 212.196C176.309 211.815 175.67 211.279 175.167 210.627C174.198 208.968 173.338 207.248 172.592 205.477C172.224 204.558 151.64 183.421 151.64 183.421L143.003 159.894C143.003 159.894 138.229 171.106 137.677 172.209C137.125 173.313 131.239 194.817 131.239 194.817C131.239 194.817 126.833 199.599 111.023 195.185C95.2127 190.771 94.1091 187.445 94.1091 187.445L98.7073 166.308L102.539 138.559C102.539 138.559 82.6904 157.679 80.8511 158.231C79.0118 158.783 77.0193 156.76 77.0193 156.76" stroke="#263238" stroke-linecap="round" stroke-linejoin="round"/>
<path d="M147.227 171.412C152.095 169.967 156.773 167.942 161.159 165.381C160.209 157.204 158.967 147.372 158.247 145.004C156.952 140.758 148.522 135.064 148.522 135.064C148.522 135.064 137.111 125.53 135.088 124.22C133.064 122.91 118.741 118.403 118.741 118.403L101.115 117.415C101.115 117.415 94.2559 124.948 87.3203 133.278C87.8261 136.75 89.6194 142.475 95.8652 144.935C99.6051 141.409 102.571 138.551 102.571 138.551L98.7391 166.309L94.1409 187.445C94.1409 187.445 95.2368 190.755 111.047 195.162C126.857 199.569 131.263 194.794 131.263 194.794C131.263 194.794 137.149 173.29 137.701 172.187C138.253 171.083 143.027 159.871 143.027 159.871L147.227 171.412Z" fill="#0E2B5C" stroke="#263238" stroke-linecap="round" stroke-linejoin="round"/>
<path d="M141.613 155.671L142.985 159.871L140.41 158.223" stroke="white" stroke-linecap="round" stroke-linejoin="round"/>
<path d="M140.23 151.418L140.851 153.311" stroke="white" stroke-linecap="round" stroke-linejoin="round"/>
<path d="M101.818 126.971L102.554 138.551L98.875 126.243" stroke="white" stroke-linecap="round" stroke-linejoin="round"/>
<path d="M105.801 158.63C104.216 160.047 103.656 160.606 103.656 160.606" stroke="white" stroke-linecap="round" stroke-linejoin="round"/>
<path d="M136.007 139.471C128.633 141.66 121.763 145.283 115.79 150.131C112.112 153.196 109.468 155.426 107.605 157.028" stroke="white" stroke-linecap="round" stroke-linejoin="round"/>
<path d="M117.254 146.092C117.254 146.092 110.641 150.315 108.434 152.338" stroke="white" stroke-linecap="round" stroke-linejoin="round"/>
<path d="M121.113 292.022C121.113 292.022 118.354 292.206 118.538 293.678C118.721 295.149 117.618 303.602 117.986 304.706C118.354 305.809 121.664 305.993 124.055 305.809C126.446 305.625 129.382 305.043 129.382 305.043C129.382 305.043 134.899 305.962 136.371 305.962C137.842 305.962 140.409 305.196 140.203 303.755C139.996 302.314 138.003 301.548 136.532 300.452C134.812 299.312 133.368 297.804 132.301 296.038C131.198 294.015 127.887 290.52 126.239 290.888C124.592 291.256 121.113 292.022 121.113 292.022Z" fill="white" stroke="#263238" stroke-linecap="round" stroke-linejoin="round"/>
<path d="M128.467 213.179C128.467 213.179 130.858 217.777 133.832 228.798C136.805 239.818 138.246 244.424 138.062 246.263C137.878 248.102 129.417 284.673 128.866 288.535C128.314 292.398 128.866 292.206 128.099 293.861C127.333 295.517 125.716 296.804 124.268 296.069C123.489 295.655 122.807 295.08 122.268 294.382C121.729 293.685 121.345 292.88 121.141 292.022C120.957 290.551 121.907 273.461 121.907 273.461C121.907 273.461 121.141 255.835 121.355 253.796C121.57 251.758 112.504 224.023 112.504 224.023L128.467 213.179Z" fill="white" stroke="#263238" stroke-linecap="round" stroke-linejoin="round"/>
<path d="M124.245 296.069C125.716 296.835 127.364 295.517 128.077 293.862C128.79 292.206 128.261 292.39 128.843 288.535C128.92 288.037 129.119 287.003 129.418 285.577H121.272C121.134 288.765 121.049 291.478 121.118 292.022C121.322 292.88 121.707 293.685 122.246 294.382C122.785 295.08 123.466 295.655 124.245 296.069Z" fill="white" stroke="#263238" stroke-linecap="round" stroke-linejoin="round"/>
<path d="M133.801 228.798C130.858 217.77 128.437 213.179 128.437 213.179L112.504 224.023C112.504 224.023 117.769 240.239 120.168 248.784C126.415 247.847 132.293 245.239 137.181 241.236C136.445 238.469 135.318 234.499 133.801 228.798Z" fill="#263238" stroke="#263238" stroke-linecap="round" stroke-linejoin="round"/>
<path d="M94.8317 185.605C94.8317 185.605 92.2644 197.921 94.0653 202.335C95.8663 206.749 104.541 217.77 104.541 217.77L108.948 249.957C108.948 249.957 99.3915 258.042 96.0808 261.72C92.7702 265.399 79.0293 278.036 79.0293 278.036C79.0293 278.036 75.9026 279.868 75.7186 281.707C75.5347 283.546 77.5579 287.072 80.1329 287.409C81.6459 287.628 83.1893 287.359 84.5395 286.642C84.5395 286.642 100.349 275.063 107.699 271.2C115.048 267.338 124.766 257.651 124.766 257.651C124.766 257.651 126.973 255.452 126.973 254.532C126.973 253.612 129.54 215.746 129.724 212.443C129.908 209.14 131.379 192.403 131.379 192.403L94.8317 185.605Z" fill="white" stroke="#263238" stroke-linecap="round" stroke-linejoin="round"/>
<path d="M80.1292 287.432C81.6421 287.651 83.1856 287.382 84.5357 286.665C84.5357 286.665 87.4249 284.55 91.295 281.837L83.6314 273.737C80.9952 276.205 79.0333 278.029 79.0333 278.029C79.0333 278.029 75.9065 279.86 75.7226 281.699C75.5387 283.539 77.5542 287.064 80.1292 287.432Z" fill="white" stroke="#263238" stroke-linecap="round" stroke-linejoin="round"/>
<path d="M129.752 212.443C129.936 209.133 131.407 192.403 131.407 192.403L94.829 185.605C94.829 185.605 92.2617 197.921 94.0626 202.335C95.8636 206.749 104.539 217.77 104.539 217.77L107.949 242.684C114.212 245.134 121.072 245.629 127.622 244.102C128.434 232.369 129.629 214.658 129.752 212.443Z" fill="#263238" stroke="#263238" stroke-linecap="round" stroke-linejoin="round"/>
<path d="M79.9473 276.22C79.9473 276.22 80.4991 274.748 79.0277 278.059C77.5563 281.37 79.0277 285.041 80.3152 285.96C81.6027 286.88 87.1128 284.857 85.8253 285.776C84.5378 286.696 84.5378 293.862 84.5378 293.862C84.5378 293.862 85.8253 301.035 86.745 302.131C87.6646 303.226 88.9521 304.338 88.2164 304.889C87.4807 305.441 85.4575 306.361 81.6027 305.656C77.7479 304.951 74.9813 304 73.6939 301.824C72.4064 299.648 71.1189 293.494 68.9194 289.455C66.72 285.416 65.7927 281.73 67.8159 280.259C69.8391 278.787 75.1653 277.507 75.1653 277.507C75.1653 277.507 79.9473 274.381 79.9473 276.22Z" fill="white" stroke="#263238" stroke-linecap="round" stroke-linejoin="round"/>
<path d="M177.359 200.864L172.577 205.454L169.918 202.052L174.846 196.733L177.359 200.864Z" fill="white" stroke="#263238" stroke-linecap="round" stroke-linejoin="round"/>
</svg>
