<svg width="484" height="473" viewBox="0 0 484 473" fill="none" xmlns="http://www.w3.org/2000/svg">
<path d="M455.202 322.57C434.402 365.31 397.622 409.68 353.012 418.33C285.612 431.4 270.132 488.85 155.292 468.05C138.457 465.087 122.043 460.09 106.412 453.17C98.7026 449.721 91.2413 445.741 84.0821 441.26C20.6621 401.5 -5.55786 329.2 0.972144 258.02C9.50214 164.4 73.1821 127.71 114.202 106.72C155.222 85.7299 213.822 -8.94006 326.892 10.4999C344.224 13.4153 361.109 18.5473 377.132 25.7699C413.822 42.4999 449.272 73.3899 466.862 114.02C468.195 117.073 469.432 120.177 470.572 123.33C493.132 185 483.562 264.3 455.202 322.57Z" fill="#D4E2F8"/>
<path d="M366.272 270.59C371.635 270.59 375.983 266.243 375.983 260.88C375.983 255.517 371.635 251.17 366.272 251.17C360.91 251.17 356.562 255.517 356.562 260.88C356.562 266.243 360.91 270.59 366.272 270.59Z" fill="#0E2B5C" fill-opacity="0.4"/>
<path d="M386.241 321.49C391.604 321.49 395.951 317.142 395.951 311.78C395.951 306.417 391.604 302.07 386.241 302.07C380.879 302.07 376.531 306.417 376.531 311.78C376.531 317.142 380.879 321.49 386.241 321.49Z" fill="#0E2B5C" fill-opacity="0.4"/>
<path d="M354.612 399.65C359.975 399.65 364.322 395.303 364.322 389.94C364.322 384.577 359.975 380.23 354.612 380.23C349.25 380.23 344.902 384.577 344.902 389.94C344.902 395.303 349.25 399.65 354.612 399.65Z" fill="#0E2B5C" fill-opacity="0.4"/>
<path d="M426.94 351.16C432.303 351.16 436.65 346.813 436.65 341.45C436.65 336.087 432.303 331.74 426.94 331.74C421.578 331.74 417.23 336.087 417.23 341.45C417.23 346.813 421.578 351.16 426.94 351.16Z" fill="#0E2B5C" fill-opacity="0.4"/>
<path opacity="0.15" d="M421.08 231.05C425.681 231.05 429.41 227.32 429.41 222.72C429.41 218.119 425.681 214.39 421.08 214.39C416.479 214.39 412.75 218.119 412.75 222.72C412.75 227.32 416.479 231.05 421.08 231.05Z" fill="black"/>
<path opacity="0.15" d="M153.92 336.22C158.52 336.22 162.25 332.49 162.25 327.89C162.25 323.289 158.52 319.56 153.92 319.56C149.319 319.56 145.59 323.289 145.59 327.89C145.59 332.49 149.319 336.22 153.92 336.22Z" fill="black"/>
<path d="M406.551 270.68C413.09 270.68 418.391 265.379 418.391 258.84C418.391 252.301 413.09 247 406.551 247C400.012 247 394.711 252.301 394.711 258.84C394.711 265.379 400.012 270.68 406.551 270.68Z" fill="#0E2B5C" fill-opacity="0.4"/>
<path d="M311.311 298.268C312.743 291.888 308.732 285.555 302.352 284.123C295.971 282.691 289.638 286.702 288.206 293.083C286.774 299.463 290.786 305.796 297.166 307.228C303.546 308.66 309.879 304.649 311.311 298.268Z" fill="#0E2B5C" fill-opacity="0.4"/>
<path d="M48.7702 327.527C50.3389 321.179 46.4644 314.761 40.1163 313.192C33.7681 311.624 27.3503 315.498 25.7817 321.846C24.213 328.194 28.0876 334.612 34.4357 336.181C40.7838 337.75 47.2016 333.875 48.7702 327.527Z" fill="#0E2B5C" fill-opacity="0.4"/>
<path d="M94.7883 366.742C99.4121 362.118 99.4121 354.622 94.7883 349.998C90.1645 345.374 82.6678 345.374 78.044 349.998C73.4202 354.622 73.4202 362.118 78.044 366.742C82.6678 371.366 90.1645 371.366 94.7883 366.742Z" fill="#0E2B5C" fill-opacity="0.4"/>
<path d="M94.8134 422.767C96.3155 416.403 92.374 410.026 86.0098 408.524C79.6456 407.022 73.2687 410.963 71.7666 417.328C70.2646 423.692 74.2061 430.069 80.5703 431.571C86.9344 433.073 93.3113 429.131 94.8134 422.767Z" fill="#0E2B5C" fill-opacity="0.4"/>
<path opacity="0.15" d="M182.393 306.68C186.993 306.68 190.723 302.95 190.723 298.35C190.723 293.749 186.993 290.02 182.393 290.02C177.792 290.02 174.062 293.749 174.062 298.35C174.062 302.95 177.792 306.68 182.393 306.68Z" fill="black"/>
<path opacity="0.15" d="M206.231 358.736C206.969 354.195 203.887 349.915 199.346 349.177C194.805 348.438 190.525 351.52 189.787 356.061C189.048 360.602 192.13 364.882 196.671 365.621C201.212 366.359 205.492 363.277 206.231 358.736Z" fill="black"/>
<path opacity="0.15" d="M100.99 394.02C105.591 394.02 109.32 390.29 109.32 385.69C109.32 381.089 105.591 377.36 100.99 377.36C96.3896 377.36 92.6602 381.089 92.6602 385.69C92.6602 390.29 96.3896 394.02 100.99 394.02Z" fill="black"/>
<path d="M114.11 350.454C118.361 348.694 120.379 343.821 118.619 339.57C116.858 335.32 111.985 333.302 107.735 335.062C103.485 336.823 101.466 341.696 103.227 345.946C104.987 350.196 109.86 352.215 114.11 350.454Z" fill="#0E2B5C" fill-opacity="0.4"/>
<path opacity="0.15" d="M411.124 358.511C412.177 354.032 409.4 349.548 404.922 348.495C400.443 347.442 395.959 350.219 394.906 354.698C393.854 359.176 396.631 363.66 401.109 364.713C405.587 365.766 410.071 362.989 411.124 358.511Z" fill="black"/>
<path opacity="0.15" d="M66.0703 344.747C67.4038 340.344 64.9155 335.693 60.5125 334.36C56.1095 333.026 51.4591 335.515 50.1255 339.918C48.792 344.321 51.2803 348.971 55.6833 350.304C60.0863 351.638 64.7367 349.15 66.0703 344.747Z" fill="black"/>
<path d="M425.511 310.421C432.556 303.375 432.556 291.953 425.511 284.908C418.466 277.863 407.043 277.863 399.998 284.908C392.953 291.953 392.953 303.375 399.998 310.421C407.043 317.466 418.466 317.466 425.511 310.421Z" fill="#0E2B5C" fill-opacity="0.4"/>
<path d="M450.22 289.34C457.886 289.34 464.1 283.126 464.1 275.46C464.1 267.794 457.886 261.58 450.22 261.58C442.554 261.58 436.34 267.794 436.34 275.46C436.34 283.126 442.554 289.34 450.22 289.34Z" fill="#0E2B5C" fill-opacity="0.4"/>
<path d="M379.853 369.89C387.518 369.89 393.733 363.676 393.733 356.01C393.733 348.344 387.518 342.13 379.853 342.13C372.187 342.13 365.973 348.344 365.973 356.01C365.973 363.676 372.187 369.89 379.853 369.89Z" fill="#0E2B5C" fill-opacity="0.4"/>
<path d="M293.95 345.38C301.616 345.38 307.83 339.166 307.83 331.5C307.83 323.834 301.616 317.62 293.95 317.62C286.285 317.62 280.07 323.834 280.07 331.5C280.07 339.166 286.285 345.38 293.95 345.38Z" fill="#0E2B5C" fill-opacity="0.4"/>
<path opacity="0.15" d="M163.19 387.83C165.452 378.127 159.419 368.427 149.716 366.166C140.013 363.904 130.314 369.937 128.052 379.64C125.79 389.343 131.823 399.042 141.526 401.304C151.229 403.565 160.929 397.533 163.19 387.83Z" fill="black"/>
<path opacity="0.15" d="M181.687 373.455C183.889 363.738 177.797 354.075 168.081 351.873C158.364 349.671 148.701 355.763 146.499 365.479C144.297 375.196 150.389 384.859 160.105 387.061C169.822 389.263 179.485 383.171 181.687 373.455Z" fill="black"/>
<path opacity="0.15" d="M426.94 324.33C433.408 324.33 438.65 319.087 438.65 312.62C438.65 306.153 433.408 300.91 426.94 300.91C420.473 300.91 415.23 306.153 415.23 312.62C415.23 319.087 420.473 324.33 426.94 324.33Z" fill="black"/>
<path opacity="0.15" d="M363.351 302.29C369.818 302.29 375.061 297.047 375.061 290.58C375.061 284.113 369.818 278.87 363.351 278.87C356.883 278.87 351.641 284.113 351.641 290.58C351.641 297.047 356.883 302.29 363.351 302.29Z" fill="black"/>
<path opacity="0.15" d="M203.94 455.76C210.408 455.76 215.65 450.517 215.65 444.05C215.65 437.583 210.408 432.34 203.94 432.34C197.473 432.34 192.23 437.583 192.23 444.05C192.23 450.517 197.473 455.76 203.94 455.76Z" fill="black"/>
<path opacity="0.15" d="M121.702 447.28C128.169 447.28 133.412 442.037 133.412 435.57C133.412 429.103 128.169 423.86 121.702 423.86C115.235 423.86 109.992 429.103 109.992 435.57C109.992 442.037 115.235 447.28 121.702 447.28Z" fill="black"/>
<path d="M183.093 337.9C186.158 337.9 188.643 335.415 188.643 332.35C188.643 329.285 186.158 326.8 183.093 326.8C180.028 326.8 177.543 329.285 177.543 332.35C177.543 335.415 180.028 337.9 183.093 337.9Z" fill="#0E2B5C" fill-opacity="0.4"/>
<path d="M151.37 313.09C154.435 313.09 156.92 310.605 156.92 307.54C156.92 304.475 154.435 301.99 151.37 301.99C148.305 301.99 145.82 304.475 145.82 307.54C145.82 310.605 148.305 313.09 151.37 313.09Z" fill="#92E3A9"/>
<path d="M235.784 451.68C235.784 452.778 235.458 453.851 234.848 454.763C234.238 455.676 233.372 456.387 232.357 456.807C231.343 457.227 230.227 457.337 229.151 457.123C228.074 456.909 227.085 456.38 226.309 455.604C225.533 454.828 225.004 453.839 224.79 452.763C224.576 451.686 224.686 450.57 225.106 449.556C225.526 448.542 226.238 447.675 227.15 447.065C228.063 446.455 229.136 446.13 230.234 446.13C231.706 446.13 233.117 446.715 234.158 447.755C235.199 448.796 235.784 450.208 235.784 451.68Z" fill="#0E2B5C" fill-opacity="0.4"/>
<path d="M311.632 390.25C314.697 390.25 317.182 387.765 317.182 384.7C317.182 381.635 314.697 379.15 311.632 379.15C308.567 379.15 306.082 381.635 306.082 384.7C306.082 387.765 308.567 390.25 311.632 390.25Z" fill="#0E2B5C" fill-opacity="0.4"/>
<path d="M210.563 407.576C211.878 401.98 208.406 396.376 202.81 395.062C197.213 393.747 191.61 397.218 190.295 402.815C188.98 408.412 192.451 414.015 198.048 415.33C203.645 416.645 209.248 413.173 210.563 407.576Z" fill="#92E3A9"/>
<path d="M164.548 423.585C168.613 419.52 168.613 412.928 164.548 408.863C160.482 404.798 153.891 404.798 149.826 408.863C145.76 412.928 145.76 419.52 149.826 423.585C153.891 427.65 160.482 427.65 164.548 423.585Z" fill="#92E3A9"/>
<path d="M48.3731 377.698C52.0177 373.251 51.3677 366.692 46.9212 363.048C42.4747 359.403 35.9156 360.053 32.271 364.5C28.6264 368.946 29.2765 375.505 33.7229 379.15C38.1694 382.794 44.7286 382.144 48.3731 377.698Z" fill="#0E2B5C" fill-opacity="0.4"/>
<path opacity="0.15" d="M306.437 323.24C311.743 321.026 314.25 314.93 312.036 309.624C309.822 304.318 303.725 301.811 298.42 304.026C293.114 306.24 290.607 312.336 292.821 317.642C295.035 322.947 301.132 325.454 306.437 323.24Z" fill="black"/>
<path opacity="0.15" d="M384.6 387.639C389.142 384.132 389.981 377.607 386.474 373.065C382.967 368.523 376.442 367.684 371.9 371.191C367.358 374.698 366.519 381.223 370.026 385.765C373.533 390.307 380.058 391.146 384.6 387.639Z" fill="black"/>
<path d="M238.594 431.57C240.891 431.57 242.754 429.708 242.754 427.41C242.754 425.112 240.891 423.25 238.594 423.25C236.296 423.25 234.434 425.112 234.434 427.41C234.434 429.708 236.296 431.57 238.594 431.57Z" fill="#0E2B5C" fill-opacity="0.4"/>
<path d="M145.903 352.4C150.332 352.4 153.923 348.809 153.923 344.38C153.923 339.951 150.332 336.36 145.903 336.36C141.473 336.36 137.883 339.951 137.883 344.38C137.883 348.809 141.473 352.4 145.903 352.4Z" fill="#0E2B5C" fill-opacity="0.4"/>
<path d="M155.461 455.07C155.463 455.896 155.22 456.703 154.762 457.39C154.305 458.078 153.654 458.614 152.891 458.931C152.129 459.247 151.29 459.331 150.48 459.17C149.67 459.01 148.926 458.612 148.342 458.029C147.759 457.445 147.361 456.701 147.201 455.891C147.04 455.081 147.124 454.242 147.44 453.48C147.757 452.717 148.293 452.066 148.981 451.609C149.668 451.151 150.475 450.908 151.301 450.91C152.404 450.913 153.46 451.352 154.24 452.131C155.019 452.911 155.458 453.967 155.461 455.07Z" fill="#92E3A9"/>
<path opacity="0.15" d="M75.7295 387.976C78.1057 377.908 71.8705 367.82 61.8028 365.444C51.7352 363.068 41.6474 369.303 39.2712 379.371C36.895 389.438 43.1302 399.526 53.1979 401.902C63.2656 404.279 73.3533 398.043 75.7295 387.976Z" fill="black"/>
<path d="M127.923 320.19C150.903 320.19 169.533 301.561 169.533 278.58C169.533 255.599 150.903 236.97 127.923 236.97C104.942 236.97 86.3125 255.599 86.3125 278.58C86.3125 301.561 104.942 320.19 127.923 320.19Z" fill="white" stroke="#263238" stroke-width="0.5" stroke-miterlimit="10"/>
<path d="M179.274 470.06C202.255 470.06 220.884 451.43 220.884 428.45C220.884 405.469 202.255 386.84 179.274 386.84C156.293 386.84 137.664 405.469 137.664 428.45C137.664 451.43 156.293 470.06 179.274 470.06Z" fill="white" stroke="#263238" stroke-width="0.5" stroke-miterlimit="10"/>
<path d="M324.632 283.09C333.446 283.09 340.592 275.944 340.592 267.13C340.592 258.315 333.446 251.17 324.632 251.17C315.817 251.17 308.672 258.315 308.672 267.13C308.672 275.944 315.817 283.09 324.632 283.09Z" fill="white" stroke="#263238" stroke-width="0.5" stroke-miterlimit="10"/>
<path d="M339.905 273.38C348.72 273.38 355.865 266.234 355.865 257.42C355.865 248.606 348.72 241.46 339.905 241.46C331.091 241.46 323.945 248.606 323.945 257.42C323.945 266.234 331.091 273.38 339.905 273.38Z" fill="white" stroke="#263238" stroke-width="0.5" stroke-miterlimit="10"/>
<path d="M344.765 389.25C353.579 389.25 360.725 382.105 360.725 373.29C360.725 364.476 353.579 357.33 344.765 357.33C335.95 357.33 328.805 364.476 328.805 373.29C328.805 382.105 335.95 389.25 344.765 389.25Z" fill="white" stroke="#263238" stroke-width="0.5" stroke-miterlimit="10"/>
<path d="M92.542 328.88C107.294 328.88 119.252 316.922 119.252 302.17C119.252 287.418 107.294 275.46 92.542 275.46C77.7905 275.46 65.832 287.418 65.832 302.17C65.832 316.922 77.7905 328.88 92.542 328.88Z" fill="white" stroke="#263238" stroke-width="0.5" stroke-miterlimit="10"/>
<path d="M381.558 143.792C383.942 129.234 374.073 115.5 359.515 113.116C344.958 110.732 331.224 120.601 328.84 135.159C326.456 149.716 336.325 163.45 350.882 165.834C365.44 168.218 379.174 158.349 381.558 143.792Z" fill="white" stroke="#263238" stroke-width="0.5" stroke-miterlimit="10"/>
<path d="M59.0329 246.537C61.3965 231.976 51.5086 218.256 36.9476 215.892C22.3867 213.529 8.66664 223.416 6.30307 237.977C3.93949 252.538 13.8274 266.258 28.3884 268.622C42.9493 270.985 56.6693 261.098 59.0329 246.537Z" fill="white" stroke="#263238" stroke-width="0.5" stroke-miterlimit="10"/>
<path d="M455.772 285.07C470.524 285.07 482.483 273.111 482.483 258.36C482.483 243.608 470.524 231.65 455.772 231.65C441.021 231.65 429.062 243.608 429.062 258.36C429.062 273.111 441.021 285.07 455.772 285.07Z" fill="white" stroke="#263238" stroke-width="0.5" stroke-miterlimit="10"/>
<path d="M140.862 48.69C162.062 48.69 179.482 55.79 181.452 64.87C181.576 64.3049 181.639 63.7284 181.642 63.15C181.642 53.27 163.382 45.25 140.862 45.25C118.342 45.25 100.082 53.25 100.082 63.15C100.085 63.7284 100.149 64.3049 100.272 64.87C102.252 55.79 119.662 48.69 140.862 48.69Z" fill="#FC5546" stroke="#263238" stroke-miterlimit="10"/>
<path d="M140.862 81.0601C119.662 81.0601 102.252 73.9501 100.272 64.8701C100.149 65.4387 100.085 66.0184 100.082 66.6001C100.082 76.4801 118.342 84.5001 140.862 84.5001C163.382 84.5001 181.642 76.5001 181.642 66.6001C181.639 66.0184 181.575 65.4387 181.452 64.8701C179.482 73.9501 162.062 81.0601 140.862 81.0601Z" fill="#FC5546" stroke="#263238" stroke-miterlimit="10"/>
<path d="M100.082 66.6001C100.082 66.6001 99.9921 76.1501 106.262 90.6001C112.532 105.05 117.842 123.41 117.842 128.24C117.854 131.005 117.518 133.759 116.842 136.44L125.522 134.03L134.212 138.37L142.892 133.06L149.172 136.44L157.852 131.62L165.572 137.89L172.332 131.62C172.332 131.62 166.542 115.69 170.402 105.56C174.262 95.4301 177.462 80.1201 181.402 64.8501" stroke="#263238" stroke-linecap="round" stroke-linejoin="round"/>
<path d="M172.371 131.64C172.371 131.64 162.231 118.64 155.001 112.33C147.771 106.02 140.521 98.8199 139.561 97.3299C138.601 95.8399 122.671 77.5899 119.771 73.2499C116.871 68.9099 109.641 54.4299 109.641 54.4299C109.641 54.4299 127.011 114.26 116.881 136.43" stroke="#263238" stroke-linecap="round" stroke-linejoin="round"/>
<path d="M117.844 125.85L125.564 134.05C127.767 128.521 128.924 122.631 128.974 116.68V83.8699C128.974 76.1499 131.384 47.6799 131.384 47.6799C131.384 47.6799 148.754 82.4199 152.134 90.1399C155.514 97.8599 159.374 101.24 162.264 104.61C165.154 107.98 168.974 113.3 168.974 113.3" stroke="#263238" stroke-linecap="round" stroke-linejoin="round"/>
<path d="M134.254 138.39C134.254 138.39 137.144 118.13 139.564 109.92C141.984 101.71 142.974 95.5001 147.764 80.9701C150.955 71.0037 153.533 60.8514 155.484 50.5701C155.484 50.5701 165.614 79.0401 167.064 85.3101C168.334 89.9942 170.115 94.5247 172.374 98.8201" stroke="#263238" stroke-linecap="round" stroke-linejoin="round"/>
<path d="M173.823 55.8799C173.823 55.8799 165.613 75.6599 161.753 87.7299C157.893 99.7999 151.623 113.3 148.753 120.05C145.883 126.8 142.963 133.05 142.963 133.05C139.273 128.328 134.668 124.4 129.423 121.5C122.919 117.584 117.196 112.499 112.543 106.5" stroke="#263238" stroke-linecap="round" stroke-linejoin="round"/>
<path d="M176.712 84.8301C176.712 84.8301 161.712 109.92 159.822 117.64C158.665 122.221 158.018 126.917 157.892 131.64C157.892 131.64 135.212 113.78 126.532 107.99C117.852 102.2 106.262 90.6201 106.262 90.6201" stroke="#263238" stroke-linecap="round" stroke-linejoin="round"/>
<path d="M100.273 64.8701C100.273 64.8701 110.123 86.7601 112.543 92.0701C114.337 95.7296 116.607 99.1358 119.293 102.2" stroke="#263238" stroke-linecap="round" stroke-linejoin="round"/>
<path d="M12.332 29.8199L12.552 79.0699L217.452 16.4099" stroke="#263238" stroke-linecap="round" stroke-linejoin="round"/>
<path d="M223.411 25.3601L23.4908 82.0501L12.5508 79.0701L224.721 14.1101" fill="white"/>
<path d="M223.411 25.3601L23.4908 82.0501L12.5508 79.0701L224.721 14.1101" stroke="#263238" stroke-linecap="round" stroke-linejoin="round"/>
<path d="M34.9727 55.52V32.53" stroke="#263238" stroke-linecap="round" stroke-linejoin="round"/>
<path d="M26.1836 25.09L26.4336 59.07L207.484 4.45996" stroke="#263238" stroke-linecap="round" stroke-linejoin="round"/>
<path d="M37.5703 27.61L82.7603 54.47L114.4 44.93V32.38L73.7303 1" fill="white"/>
<path d="M37.5703 27.61L82.7603 54.47L114.4 44.93V32.38L73.7303 1" stroke="#263238" stroke-linecap="round" stroke-linejoin="round"/>
<path d="M114.402 44.93L55.4023 5.77002" stroke="#263238" stroke-linecap="round" stroke-linejoin="round"/>
<path d="M329.65 57.0708C339.585 47.1359 339.585 31.0282 329.65 21.0932C319.715 11.1583 303.607 11.1583 293.672 21.0932C283.737 31.0282 283.737 47.1359 293.672 57.0708C303.607 67.0058 319.715 67.0058 329.65 57.0708Z" fill="#FC5546" stroke="white" stroke-miterlimit="10"/>
<path d="M333.972 26.75C337.432 33 330.282 43.59 317.972 50.4C305.662 57.21 292.902 57.67 289.442 51.4C285.982 45.13 293.132 34.55 305.442 27.74C317.752 20.93 330.452 20.5 333.972 26.75Z" stroke="white" stroke-miterlimit="10"/>
<path d="M242.441 171.33L277.361 118.93C277.361 118.93 285.281 102.4 290.871 96.11C296.461 89.82 322.541 68.87 322.541 68.87L324.871 64.21C324.871 64.21 325.801 57.69 324.401 55.36C323.001 53.03 326.261 51.17 328.131 52.57C330.001 53.97 329.971 55.13 329.971 55.13C332.849 52.5279 334.877 49.1202 335.791 45.35C336.951 39.53 335.331 36.04 334.861 33.94C334.391 31.84 333.701 29.52 335.091 29.52C336.481 29.52 338.581 34.64 339.281 36.52C339.981 38.4 340.211 43.97 340.451 47.7C340.691 51.43 339.971 54.2 339.301 57.5C338.279 61.6466 336.715 65.6409 334.651 69.38C333.021 71.9 323.971 84.5 321.841 89.13C319.711 93.76 315.091 104.5 312.531 107.76C309.971 111.02 298.321 122.89 297.621 124.06C296.929 125.277 296.15 126.444 295.291 127.55C294.004 129.475 292.839 131.479 291.801 133.55L279.461 175.93L242.441 171.33Z" fill="#969696" stroke="#263238" stroke-miterlimit="10"/>
<path d="M324.875 64.21C324.875 64.21 324.505 68.12 326.045 69.52C327.585 70.92 328.975 71.34 331.495 68.82" stroke="#263238" stroke-miterlimit="10"/>
<path d="M329.973 55.1301C329.973 55.1301 329.653 57.1301 331.053 56.9501" stroke="#263238" stroke-miterlimit="10"/>
<path d="M263.205 123.43C263.205 123.43 255.745 126.93 255.135 128.43C254.767 129.351 254.561 130.329 254.525 131.32C254.525 131.32 246.145 135.59 245.525 137.11C244.905 138.63 246.295 140.61 246.295 140.61C246.295 140.61 243.855 144.27 242.295 152.95C240.735 161.63 243.665 161.17 245.795 161.17H248.995L247.775 167.57C247.775 167.57 250.975 167.42 257.675 167.72C264.375 168.02 280.975 174.88 280.975 174.88C280.975 174.88 281.275 162.7 282.185 161.32C283.095 159.94 291.325 156.15 293.305 152.49C295.285 148.83 297.725 139.7 293.005 132.09C288.285 124.48 276.405 121.73 271.225 121.58C268.429 121.402 265.641 122.045 263.205 123.43Z" fill="#B5B5B5" stroke="#263238" stroke-miterlimit="10"/>
<path d="M257.414 129.21C257.414 129.21 263.354 126.62 265.184 131.21" stroke="#263238" stroke-miterlimit="10"/>
<path d="M260.462 133.17C260.082 134.17 259.232 134.83 258.562 134.58C257.892 134.33 257.652 133.3 258.032 132.27C258.412 131.24 259.262 130.62 259.932 130.87C260.602 131.12 260.842 132.15 260.462 133.17Z" fill="#263238"/>
<path d="M245.383 148.25C245.383 148.25 250.103 148.55 253.303 145.51" stroke="#263238" stroke-miterlimit="10"/>
<path d="M293.354 152.5C295.354 148.85 297.774 139.71 293.054 132.1C288.334 124.49 276.454 121.74 271.274 121.59H270.344C273.055 122.425 275.38 124.197 276.904 126.59C279.344 130.86 272.344 129.03 272.184 131.59C272.024 134.15 276.604 140.12 276.304 141.03C276.004 141.94 273.714 142.71 274.474 143.47C275.234 144.23 277.364 144.08 279.044 145.14C280.724 146.2 275.234 154.43 276.454 156.26C277.15 157.408 278.079 158.396 279.182 159.161C280.284 159.926 281.535 160.45 282.854 160.7C285.024 159.07 291.614 155.73 293.354 152.5Z" fill="#263238" stroke="#263238" stroke-miterlimit="10"/>
<path d="M275.974 145.66C275.974 145.66 281.294 144.87 282.524 147.33C282.882 148.147 283.039 149.038 282.98 149.928C282.921 150.818 282.649 151.681 282.185 152.443C281.722 153.205 281.082 153.845 280.319 154.308C279.557 154.77 278.694 155.042 277.804 155.1C273.234 155.56 269.734 154.19 270.034 151.75" fill="#B5B5B5"/>
<path d="M275.974 145.66C275.974 145.66 281.294 144.87 282.524 147.33C282.882 148.147 283.039 149.038 282.98 149.928C282.921 150.818 282.649 151.681 282.185 152.443C281.722 153.205 281.082 153.845 280.319 154.308C279.557 154.77 278.694 155.042 277.804 155.1C273.234 155.56 269.734 154.19 270.034 151.75" stroke="#263238" stroke-miterlimit="10"/>
<path d="M278.532 189.02C278.532 189.02 277.362 196.02 272.242 198.57" stroke="#263238" stroke-miterlimit="10"/>
<path d="M275.424 396.37C275.424 396.37 303.424 369.77 313.104 362.01C322.784 354.25 325.574 350.65 325.574 350.65L313.104 339.02C313.104 339.02 288.174 354.81 282.104 357.3C276.034 359.79 265.204 364.79 265.204 364.79C265.204 364.79 259.934 370.88 258.554 381.69C257.174 392.5 258.834 394.43 261.874 395.82C264.914 397.21 275.424 396.37 275.424 396.37Z" fill="#969696" stroke="#263238" stroke-miterlimit="10"/>
<path d="M307.563 342.07C307.563 342.07 317.813 355.36 319.203 355.36C320.593 355.36 325.293 352.59 325.293 352.59C327.971 352.617 330.621 352.05 333.053 350.93C334.864 350.306 336.364 349.007 337.241 347.305C338.119 345.602 338.306 343.627 337.763 341.79C336.933 338.74 328.623 329.04 325.573 329.04C322.523 329.04 314.493 333.48 313.103 335.97C311.713 338.46 307.283 339.02 307.563 342.07Z" fill="white" stroke="#263238" stroke-miterlimit="10"/>
<path d="M347.183 435.16C347.183 435.16 345.243 439.59 348.573 440.7C351.903 441.81 366.023 441.81 367.413 444.3C368.803 446.79 377.663 460.65 378.773 465.36C379.883 470.07 384.313 471.18 385.973 470.36C387.633 469.54 390.973 460.66 391.513 455.12C392.053 449.58 389.573 435.72 388.743 431.29C387.913 426.86 382.923 413.29 381.543 410.23C380.163 407.17 377.943 400.81 369.903 403.03C361.863 405.25 358.823 408.85 358.263 409.68C357.703 410.51 352.453 413.84 352.453 413.84C352.453 413.84 351.343 430.73 347.183 435.16Z" fill="#0E2B5C" stroke="white" stroke-miterlimit="10"/>
<path d="M385.973 470.35C387.633 469.52 390.973 460.65 391.513 455.11C392.053 449.57 389.573 435.71 388.743 431.28C387.913 426.85 382.923 413.28 381.543 410.22C380.253 407.38 378.233 401.66 371.453 402.69C375.693 409.86 384.793 426.1 386.453 436.41C388.453 448.93 385.503 465.19 383.603 470.41C384.378 470.654 385.212 470.633 385.973 470.35Z" fill="#263238" stroke="#263238" stroke-miterlimit="10"/>
<path d="M352.184 441.36C352.184 441.36 356.994 431.26 358.914 428.14C360.834 425.02 365.654 424.77 365.414 428.86C365.174 432.95 361.324 442.09 361.324 442.09L352.184 441.36Z" fill="#FC5546"/>
<path d="M381.542 410.22C380.152 407.22 377.942 400.8 369.902 403.02C363.182 404.87 359.962 407.69 358.762 409.02C359.762 412.26 361.342 415.89 363.692 418.24C368.842 423.39 373.992 421.05 378.212 429.01C382.432 436.97 379.612 440.25 382.422 447.74C384.242 452.59 388.422 455.86 391.122 457.57C391.302 456.7 391.432 455.85 391.512 455.08C392.072 449.54 389.572 435.68 388.742 431.25C387.912 426.82 382.972 413.27 381.542 410.22Z" stroke="white" stroke-miterlimit="10"/>
<path d="M235.242 396.93C235.242 396.93 245.242 419.09 251.592 421.03C257.942 422.97 337.482 427.96 337.482 427.96L351.062 431.56L352.452 413.83L333.602 411.06L300.602 399.7C300.602 399.7 290.602 394.7 284.262 393.88C277.922 393.06 267.082 393.88 267.082 393.88L265.422 385.29L235.242 396.93Z" fill="#B5B5B5" stroke="#263238" stroke-miterlimit="10"/>
<path d="M261.574 404.13C261.574 404.13 266.284 412.72 270.714 414.38C275.144 416.04 285.714 415.77 285.714 415.77" stroke="#263238" stroke-miterlimit="10"/>
<path d="M341.094 412.16C341.094 412.16 340.254 415.77 339.424 421.03C338.594 426.29 337.484 427.96 337.484 427.96C337.484 427.96 336.934 431.84 342.484 433.78C348.034 435.72 353.014 433.22 354.124 429.9C355.234 426.58 356.614 416.9 354.954 414.38C353.294 411.86 343.024 411.33 341.094 412.16Z" fill="white" stroke="#263238" stroke-miterlimit="10"/>
<path d="M242.723 168.08C242.723 168.08 252.723 164.5 258.723 164.87C264.723 165.24 280.593 171.47 282.663 172.04C284.733 172.61 287.753 171.85 288.663 174.11C289.492 176.729 289.811 179.482 289.603 182.22C289.413 183.72 298.083 202.38 297.893 209.36C297.703 216.34 273.583 242.91 267.363 249.36C261.143 255.81 263.363 266.51 264.533 269.72C265.703 272.93 266.603 275.18 265.663 276.5C264.723 277.82 258.503 279.33 249.073 280.84C239.643 282.35 231.543 286.49 220.803 287.06C210.063 287.63 206.283 293.66 205.153 291.21C204.023 288.76 203.273 282.72 204.963 278.76C206.653 274.8 208.173 248.42 210.433 236.76C212.29 227.332 214.68 218.017 217.593 208.86C219.103 204.34 226.833 189.86 232.863 180.78C238.893 171.7 242.723 168.08 242.723 168.08Z" fill="#0E2B5C" stroke="#263238" stroke-miterlimit="10"/>
<path d="M232.403 282.73C232.472 281.998 232.431 281.26 232.283 280.54C232.063 279.22 231.763 277.41 235.283 269.82C240.283 259.01 254.193 213.82 254.783 211.92L250.663 210.66C250.523 211.12 236.243 257.47 231.373 268.02C227.623 276.15 227.653 278.82 228.063 281.25C228.132 281.578 228.159 281.915 228.143 282.25C228.074 283.033 227.718 283.764 227.143 284.3L225.633 285.3L226.133 286.43C228.033 286.13 229.873 285.73 231.663 285.29C232.051 284.484 232.301 283.619 232.403 282.73Z" fill="white"/>
<path d="M240.224 268.02C236.474 276.15 236.504 278.82 236.904 281.25C237.022 281.733 237.025 282.238 236.912 282.723C236.799 283.207 236.574 283.659 236.254 284.04C237.934 283.56 239.604 283.04 241.254 282.6C241.302 281.911 241.262 281.219 241.134 280.54C240.914 279.22 240.604 277.41 244.134 269.82C249.134 259.01 263.034 213.82 263.624 211.92L259.514 210.66C259.374 211.12 245.094 257.5 240.224 268.02Z" fill="white"/>
<path d="M289.664 182.22C289.872 179.481 289.553 176.728 288.724 174.11C287.774 171.85 284.724 172.6 282.724 172.04C280.724 171.48 264.824 165.25 258.784 164.87C252.744 164.49 242.784 168.08 242.784 168.08C239.701 171.294 236.916 174.782 234.464 178.5L233.864 191.39C233.864 191.39 229.154 207.74 235.254 220.48C241.354 233.22 259.074 240.66 271.824 236.5C276.236 235.01 280.43 232.938 284.294 230.34C291.384 221.77 297.854 212.96 297.954 209.34C298.144 202.38 289.474 183.72 289.664 182.22Z" fill="white" stroke="#263238" stroke-miterlimit="10"/>
<path d="M272.144 174.55C272.144 174.55 292.144 194.77 293.474 202.32C294.804 209.87 280.364 218.32 276.364 219.21C272.912 219.781 269.412 220.015 265.914 219.91L272.144 174.55Z" fill="#7D7D7D" stroke="#263238" stroke-miterlimit="10"/>
<path d="M206.973 290.5C206.973 290.5 213.623 325.97 212.243 338.71C210.863 351.45 207.533 376.95 211.683 379.16C215.833 381.37 224.433 384.43 225.813 385.54C227.193 386.65 233.303 399.67 233.573 401.05C233.843 402.43 244.103 398.56 260.173 391.63C260.173 391.63 268.173 386.92 268.483 385.26C268.793 383.6 268.763 372.51 268.763 372.51C268.763 372.51 272.923 368.08 272.643 365.59C272.363 363.1 271.533 352.29 271.533 350.9C271.533 349.51 274.583 330.4 275.133 312.9C275.683 295.4 264.333 277.44 262.133 276.05C259.933 274.66 211.433 285.2 210.043 286.05C208.653 286.9 206.713 286.1 206.973 290.5Z" fill="#0E2B5C" stroke="#263238" stroke-miterlimit="10"/>
<path d="M217.613 351.88C220.153 364.48 224.323 384.25 225.823 385.57" stroke="#263238" stroke-miterlimit="10"/>
<path d="M215.574 341.5C215.574 341.5 216.014 343.79 216.714 347.32" stroke="#263238" stroke-miterlimit="10"/>
<path d="M268.493 385.29C268.773 383.63 268.773 372.54 268.773 372.54C268.773 372.54 272.933 368.11 272.653 365.62C272.483 364.08 272.103 359.39 271.833 355.69C271.253 354.624 270.383 353.743 269.323 353.15C266.003 351.49 265.723 358.97 265.723 358.97C265.723 358.97 254.643 347.05 247.163 356.47C241.163 364.04 241.933 389.27 242.473 398.93C246.963 397.25 252.983 394.76 260.183 391.66C260.183 391.66 268.223 386.95 268.493 385.29Z" fill="white" stroke="#263238" stroke-miterlimit="10"/>
<path d="M252.474 316.87C245.854 300.74 241.294 290.14 239.744 286.57C240.597 285.456 241.123 284.126 241.264 282.73C241.336 281.999 241.299 281.261 241.154 280.54C241.071 280.105 241.031 279.663 241.034 279.22L236.764 280.08C236.764 280.49 236.844 280.87 236.904 281.25C236.983 281.577 237.01 281.915 236.984 282.25C236.926 283.036 236.568 283.77 235.984 284.3L234.484 285.3L235.204 286.95C235.204 287.07 240.284 298.53 248.484 318.49C256.304 337.49 258.254 355.49 258.854 378.41C259.004 384.24 258.974 388.75 258.854 392.22L260.194 391.65C260.194 391.65 261.594 390.83 263.194 389.76C263.264 386.61 263.254 382.83 263.134 378.29C262.574 355.58 260.524 336.44 252.474 316.87Z" fill="white"/>
<path d="M254.193 394.21C254.393 390.37 254.483 385.21 254.303 378.3C253.703 355.58 251.653 336.44 243.613 316.87C236.983 300.74 232.423 290.14 230.873 286.57C231.73 285.457 232.259 284.127 232.403 282.73C232.46 282.147 232.443 281.559 232.353 280.98L228.123 281.87C228.133 282 228.133 282.13 228.123 282.26C228.055 283.043 227.699 283.774 227.123 284.31L225.613 285.31L226.343 286.96C226.393 287.08 231.413 298.54 239.623 318.5C247.443 337.5 249.383 355.5 249.983 378.42C250.203 386.67 250.043 392.29 249.763 396.05C251.17 395.483 252.647 394.87 254.193 394.21Z" fill="white"/>
<path d="M225.293 316.81C226.973 318.49 228.803 320.18 230.813 321.81" stroke="black" stroke-miterlimit="10"/>
<path d="M209.754 293.58C209.754 293.58 212.754 302.7 221.754 313.03" stroke="black" stroke-miterlimit="10"/>
<path d="M266.742 333.8C267.596 335.266 268.268 336.831 268.742 338.46" stroke="black" stroke-miterlimit="10"/>
<path d="M241.895 305.77C241.895 305.77 257.445 319.68 265.025 331.02" stroke="black" stroke-miterlimit="10"/>
<path d="M233.383 228.37C235.503 237.19 239.453 248.66 246.603 257.01" stroke="black" stroke-miterlimit="10"/>
<path d="M231.094 215.17C231.094 215.17 231.384 218.57 232.364 223.64" stroke="black" stroke-miterlimit="10"/>
<path d="M228.875 247.59C228.875 247.59 236.355 261.99 251.595 266.7" stroke="black" stroke-miterlimit="10"/>
<path d="M220.975 370.4L209.785 364.26C209.405 371.9 209.695 378.15 211.655 379.19C215.175 381.07 221.855 383.54 224.655 384.92L220.975 370.4Z" fill="white"/>
<path d="M323.082 329.87C323.082 329.87 336.652 349.55 339.422 349.55C342.192 349.55 353.832 339.02 353.832 339.02C353.832 339.02 373.782 336.8 375.722 336.8C377.662 336.8 385.722 339.57 389.022 339.02C392.322 338.47 392.342 332.09 390.962 329.87C389.582 327.65 373.502 317.13 365.192 314.36C356.882 311.59 337.762 302.72 333.052 305.49C328.342 308.26 328.622 311.31 328.622 315.49C328.65 318.197 328.275 320.893 327.512 323.49C327.232 324.33 323.082 327.1 323.082 329.87Z" fill="#0E2B5C" stroke="black" stroke-miterlimit="10"/>
<path d="M365.195 314.36C356.885 311.59 337.765 302.72 333.055 305.49C331.178 306.421 329.742 308.051 329.055 310.03C330.535 312.51 333.475 315.23 339.265 316.76C351.705 320.05 356.465 316.76 361.945 321.88C367.425 327 380.245 330.66 387.195 333.59C388.741 334.23 390.216 335.031 391.595 335.98C392.083 333.931 391.861 331.777 390.965 329.87C389.575 327.66 373.505 317.13 365.195 314.36Z" fill="#263238" stroke="white" stroke-miterlimit="10"/>
<path d="M343.042 348.29C343.042 348.29 335.582 339.87 334.622 337.71C333.662 335.55 335.102 332.42 339.672 333.38C344.242 334.34 348.812 343.24 348.812 343.24L343.042 348.29Z" fill="#FC5546"/>
<path d="M365.193 314.36C356.883 311.59 337.763 302.72 333.053 305.49C328.343 308.26 328.623 311.31 328.623 315.49C328.628 317.59 328.41 319.686 327.973 321.74C330.833 324.94 335.463 328.97 341.223 329.8C351.053 331.2 357.603 327.92 360.413 330.27C362.843 332.27 379.513 338.47 390.413 338.34C392.343 336.52 392.163 331.75 391.003 329.89C389.573 327.66 373.503 317.13 365.193 314.36Z" stroke="white" stroke-miterlimit="10"/>
<path d="M265.913 219.91C265.913 219.91 277.973 205.97 278.733 198.24C279.493 190.51 278.913 180.33 270.623 173.54C262.333 166.75 251.393 166.76 242.723 168.08C237.947 168.709 233.303 170.108 228.973 172.22C228.973 172.22 213.893 170.72 204.283 172.79C197.957 174.224 191.775 176.232 185.813 178.79C185.813 178.79 159.613 176.91 150.943 179.73C142.273 182.55 114.743 186.14 113.243 186.14C111.743 186.14 100.043 183.14 98.5333 182.56C97.0233 181.98 90.0533 178.04 89.8633 175.78C89.6733 173.52 88.3533 171.44 86.6633 174.27C84.9733 177.1 86.6633 180.11 87.4133 181.05C88.1633 181.99 89.3033 183.32 89.6733 183.88C90.0433 184.44 84.7733 186.52 84.7733 186.52C84.7733 186.52 69.8833 185.95 69.3233 185.95C68.7633 185.95 67.2433 187.84 67.8133 188.59C68.3873 189.148 69.1031 189.539 69.8833 189.72L84.5833 190.67C84.5833 190.67 69.3233 195.38 69.1333 195.95C68.9433 196.52 69.1333 198.4 70.4533 198.77C71.7733 199.14 70.6433 199.53 71.7733 199.15C72.9033 198.77 86.2833 196.7 86.2833 196.7C86.2833 196.7 81.1933 201.03 79.6833 202.35C78.1733 203.67 73.4633 206.88 74.2233 208.2C74.9833 209.52 75.7333 210.27 77.2233 209.33C78.7133 208.39 89.2933 202.17 89.2933 202.17C89.2933 202.17 89.8533 204.62 89.2933 205.75C88.7333 206.88 84.7633 210.84 83.6333 211.75C82.5033 212.66 84.2033 215.52 85.8933 214.58C87.5833 213.64 93.2533 206.66 93.8133 205.72C94.3733 204.78 99.0933 204.59 102.813 203.83C106.533 203.07 112.613 200.25 112.613 200.25C112.613 200.25 152.383 203.25 162.753 201.95C173.123 200.65 184.993 198.95 184.993 198.95C184.993 198.95 218.733 199.52 227.403 199.33C232.12 199.312 236.819 198.741 241.403 197.63C241.403 197.63 240.273 206.3 248.943 212.33C254.051 215.94 259.816 218.515 265.913 219.91Z" fill="#B5B5B5" stroke="black" stroke-miterlimit="10"/>
<path d="M244.043 196.73L255.353 194.66C255.353 194.66 262.703 198.05 262.893 198.8" stroke="black" stroke-miterlimit="10"/>
<path d="M151.594 179.57C154.439 186.802 155.549 194.601 154.834 202.34C157.504 202.379 160.175 202.269 162.834 202.01C166.784 201.5 170.944 200.95 174.584 200.45C175.454 194.77 176.044 185.94 173.294 178.26C165.634 178.1 156.454 178.24 151.594 179.57Z" fill="white" stroke="black" stroke-miterlimit="10"/>
<path d="M176.773 189.26C176.773 189.26 180.033 189.02 181.893 190.19C183.753 191.36 187.023 191.12 189.353 188.79" stroke="black" stroke-miterlimit="10"/>
<path d="M154.425 189.02H145.805" stroke="black" stroke-miterlimit="10"/>
<path d="M232.422 177.15C232.422 177.15 239.422 186 247.792 188.09" stroke="black" stroke-miterlimit="10"/>
</svg>
