<svg width="602" height="302" viewBox="0 0 602 302" fill="none" xmlns="http://www.w3.org/2000/svg">
<path d="M405.777 143.5C406.095 143.5 406.356 143.246 406.361 142.928C406.369 142.605 406.113 142.339 405.79 142.331L404.521 142.303H404.513C404.193 142.303 403.934 142.559 403.929 142.879C403.924 143.202 404.183 143.469 404.506 143.471L405.767 143.5H405.779H405.777Z" fill="#0E2B5C"/>
<path d="M399.002 141.232C399.253 141.232 399.486 141.068 399.563 140.814C400.811 136.677 404.555 133.899 408.879 133.899C413.202 133.899 416.944 136.68 418.192 140.814C418.284 141.124 418.612 141.296 418.922 141.206C419.232 141.111 419.406 140.786 419.314 140.476C417.915 135.842 413.722 132.728 408.879 132.728C404.035 132.728 399.842 135.842 398.443 140.476C398.351 140.786 398.525 141.111 398.835 141.206C398.892 141.221 398.948 141.232 399.004 141.232H399.002Z" fill="#0E2B5C"/>
<path d="M426.518 143.474C426.574 143.474 426.63 143.466 426.687 143.448C426.997 143.354 427.171 143.028 427.079 142.721C426.451 140.634 424.488 139.176 422.304 139.176C420.121 139.176 418.155 140.632 417.527 142.718C417.435 143.028 417.609 143.354 417.92 143.448C418.227 143.543 418.558 143.366 418.65 143.056C419.129 141.46 420.633 140.345 422.304 140.345C423.975 140.345 425.477 141.46 425.959 143.056C426.036 143.31 426.266 143.474 426.52 143.474H426.518Z" fill="#0E2B5C"/>
<path d="M352.42 180.586C357.353 180.586 361.369 176.572 361.369 171.636C361.369 166.701 357.356 162.687 352.42 162.687C347.484 162.687 343.471 166.701 343.471 171.636C343.471 176.572 347.484 180.586 352.42 180.586ZM352.42 163.856C356.707 163.856 360.198 167.346 360.198 171.636C360.198 175.926 356.707 179.417 352.42 179.417C348.132 179.417 344.639 175.926 344.639 171.636C344.639 167.346 348.13 163.856 352.42 163.856Z" fill="#0E2B5C"/>
<path d="M472.099 177.907H472.117C472.484 177.897 472.771 177.592 472.76 177.226L469.457 58.8132C469.447 58.4467 469.147 58.1494 468.775 58.1699C468.409 58.1802 468.122 58.4852 468.132 58.8516L471.436 177.264C471.446 177.623 471.74 177.907 472.097 177.907H472.099Z" fill="#0E2B5C"/>
<path d="M450.687 64.8407C450.749 64.8407 450.808 64.833 450.869 64.8151C485.354 54.9613 484.892 53.2801 484.695 52.5625C484.211 50.7788 462.322 6.10982 459.829 1.02273C459.672 0.70751 459.301 0.56912 458.978 0.702384L425.608 14.7284C425.439 14.8002 425.305 14.9385 425.244 15.1103C425.18 15.2845 425.19 15.4742 425.275 15.6382L450.098 64.4794C450.213 64.7049 450.444 64.8407 450.687 64.8407ZM483.327 52.6701C481.394 54.1822 465.595 59.218 451.031 63.3928L426.777 15.6741L458.914 2.16572C468.311 21.3378 482.025 49.4974 483.327 52.6701Z" fill="#0E2B5C"/>
<path d="M449.236 59.6843C449.308 59.6843 449.382 59.674 449.454 59.6484L479.28 49.3281C479.626 49.2077 479.808 48.831 479.69 48.485C479.569 48.139 479.195 47.9545 478.847 48.075L449.021 58.3952C448.675 58.5157 448.493 58.8924 448.611 59.2384C448.706 59.5126 448.962 59.6843 449.236 59.6843Z" fill="#0E2B5C"/>
<path d="M456.651 13.4189C458.26 13.4189 459.572 11.9658 459.572 10.1795C459.572 8.39327 458.263 6.94019 456.651 6.94019C455.039 6.94019 453.729 8.39327 453.729 10.1795C453.729 11.9658 455.041 13.4189 456.651 13.4189ZM456.651 8.26257C457.53 8.26257 458.247 9.1211 458.247 10.177C458.247 11.2328 457.532 12.0913 456.651 12.0913C455.769 12.0913 455.054 11.2328 455.054 10.177C455.054 9.1211 455.769 8.26257 456.651 8.26257Z" fill="#0E2B5C"/>
<path d="M448.753 17.1271C450.363 17.1271 451.675 15.674 451.675 13.8878C451.675 12.1015 450.363 10.6484 448.753 10.6484C447.144 10.6484 445.832 12.1015 445.832 13.8878C445.832 15.674 447.144 17.1271 448.753 17.1271ZM448.753 11.9708C449.635 11.9708 450.35 12.8294 450.35 13.8852C450.35 14.9411 449.635 15.7996 448.753 15.7996C447.872 15.7996 447.157 14.9411 447.157 13.8852C447.157 12.8294 447.872 11.9708 448.753 11.9708Z" fill="#0E2B5C"/>
<path d="M440.532 19.7052C442.141 19.7052 443.453 18.2521 443.453 16.4659C443.453 14.6797 442.144 13.2266 440.532 13.2266C438.92 13.2266 437.61 14.6797 437.61 16.4659C437.61 18.2521 438.922 19.7052 440.532 19.7052ZM440.532 14.5515C441.411 14.5515 442.128 15.41 442.128 16.4659C442.128 17.5218 441.413 18.3803 440.532 18.3803C439.65 18.3803 438.935 17.5218 438.935 16.4659C438.935 15.41 439.65 14.5515 440.532 14.5515Z" fill="#0E2B5C"/>
<path d="M434.25 22.9318C435.86 22.9318 437.172 21.4787 437.172 19.6925C437.172 17.9062 435.862 16.4531 434.25 16.4531C432.638 16.4531 431.329 17.9062 431.329 19.6925C431.329 21.4787 432.641 22.9318 434.25 22.9318ZM434.25 17.7755C435.129 17.7755 435.847 18.634 435.847 19.6899C435.847 20.7458 435.132 21.6043 434.25 21.6043C433.369 21.6043 432.654 20.7458 432.654 19.6899C432.654 18.634 433.369 17.7755 434.25 17.7755Z" fill="#0E2B5C"/>
<path d="M461.326 21.7992C462.935 21.7992 464.247 20.3461 464.247 18.5599C464.247 16.7736 462.935 15.3206 461.326 15.3206C459.716 15.3206 458.404 16.7736 458.404 18.5599C458.404 20.3461 459.714 21.7992 461.326 21.7992ZM461.326 16.6429C462.207 16.6429 462.922 17.5015 462.922 18.5573C462.922 19.6132 462.207 20.4717 461.326 20.4717C460.444 20.4717 459.729 19.6132 459.729 18.5573C459.729 17.5015 460.444 16.6429 461.326 16.6429Z" fill="#0E2B5C"/>
<path d="M453.429 25.5099C455.038 25.5099 456.351 24.0568 456.351 22.2706C456.351 20.4843 455.038 19.0312 453.429 19.0312C451.82 19.0312 450.507 20.4843 450.507 22.2706C450.507 24.0568 451.82 25.5099 453.429 25.5099ZM453.429 20.3536C454.311 20.3536 455.026 21.2122 455.026 22.268C455.026 23.3239 454.311 24.1824 453.429 24.1824C452.547 24.1824 451.832 23.3239 451.832 22.268C451.832 21.2122 452.547 20.3536 453.429 20.3536Z" fill="#0E2B5C"/>
<path d="M445.208 28.0854C446.818 28.0854 448.13 26.6323 448.13 24.846C448.13 23.0598 446.818 21.6067 445.208 21.6067C443.599 21.6067 442.287 23.0598 442.287 24.846C442.287 26.6323 443.596 28.0854 445.208 28.0854ZM445.208 22.9316C446.09 22.9316 446.805 23.7902 446.805 24.846C446.805 25.9019 446.09 26.7604 445.208 26.7604C444.327 26.7604 443.612 25.9019 443.612 24.846C443.612 23.7902 444.327 22.9316 445.208 22.9316Z" fill="#0E2B5C"/>
<path d="M438.921 31.3119C440.531 31.3119 441.843 29.8588 441.843 28.0726C441.843 26.2863 440.533 24.8333 438.921 24.8333C437.309 24.8333 436 26.2863 436 28.0726C436 29.8588 437.312 31.3119 438.921 31.3119ZM438.921 26.1556C439.8 26.1556 440.518 27.0142 440.518 28.07C440.518 29.1259 439.803 29.9844 438.921 29.9844C438.04 29.9844 437.325 29.1259 437.325 28.07C437.325 27.0142 438.04 26.1556 438.921 26.1556Z" fill="#0E2B5C"/>
<path d="M465.357 29.3771C466.966 29.3771 468.278 27.924 468.278 26.1378C468.278 24.3515 466.969 22.8984 465.357 22.8984C463.745 22.8984 462.435 24.3515 462.435 26.1378C462.435 27.924 463.747 29.3771 465.357 29.3771ZM465.357 24.2234C466.236 24.2234 466.953 25.0819 466.953 26.1378C466.953 27.1936 466.238 28.0522 465.357 28.0522C464.475 28.0522 463.76 27.1936 463.76 26.1378C463.76 25.0819 464.475 24.2234 465.357 24.2234Z" fill="#0E2B5C"/>
<path d="M457.458 33.0802C459.068 33.0802 460.38 31.6271 460.38 29.8409C460.38 28.0547 459.068 26.6016 457.458 26.6016C455.849 26.6016 454.537 28.0547 454.537 29.8409C454.537 31.6271 455.849 33.0802 457.458 33.0802ZM457.458 27.9265C458.34 27.9265 459.055 28.785 459.055 29.8409C459.055 30.8968 458.34 31.7553 457.458 31.7553C456.577 31.7553 455.862 30.8968 455.862 29.8409C455.862 28.785 456.577 27.9265 457.458 27.9265Z" fill="#0E2B5C"/>
<path d="M449.237 35.6635C450.846 35.6635 452.158 34.2104 452.158 32.4242C452.158 30.6379 450.846 29.1848 449.237 29.1848C447.627 29.1848 446.315 30.6379 446.315 32.4242C446.315 34.2104 447.625 35.6635 449.237 35.6635ZM449.237 30.5072C450.118 30.5072 450.833 31.3657 450.833 32.4216C450.833 33.4774 450.118 34.336 449.237 34.336C448.355 34.336 447.64 33.4774 447.64 32.4216C447.64 31.3657 448.355 30.5072 449.237 30.5072Z" fill="#0E2B5C"/>
<path d="M442.955 38.8849C444.565 38.8849 445.877 37.4318 445.877 35.6456C445.877 33.8593 444.567 32.4062 442.955 32.4062C441.343 32.4062 440.034 33.8593 440.034 35.6456C440.034 37.4318 441.346 38.8849 442.955 38.8849ZM442.955 33.7286C443.834 33.7286 444.552 34.5872 444.552 35.643C444.552 36.6989 443.837 37.5574 442.955 37.5574C442.074 37.5574 441.359 36.6989 441.359 35.643C441.359 34.5872 442.074 33.7286 442.955 33.7286Z" fill="#0E2B5C"/>
<path d="M467.773 37.2755C469.382 37.2755 470.694 35.8225 470.694 34.0362C470.694 32.25 469.385 30.7969 467.773 30.7969C466.161 30.7969 464.851 32.25 464.851 34.0362C464.851 35.8225 466.163 37.2755 467.773 37.2755ZM467.773 32.1193C468.652 32.1193 469.369 32.9778 469.369 34.0336C469.369 35.0895 468.654 35.948 467.773 35.948C466.891 35.948 466.176 35.0895 466.176 34.0336C466.176 32.9778 466.891 32.1193 467.773 32.1193Z" fill="#0E2B5C"/>
<path d="M459.875 40.984C461.485 40.984 462.797 39.531 462.797 37.7447C462.797 35.9585 461.485 34.5054 459.875 34.5054C458.266 34.5054 456.954 35.9585 456.954 37.7447C456.954 39.531 458.266 40.984 459.875 40.984ZM459.875 35.8278C460.757 35.8278 461.472 36.6863 461.472 37.7421C461.472 38.798 460.757 39.6565 459.875 39.6565C458.994 39.6565 458.279 38.798 458.279 37.7421C458.279 36.6863 458.994 35.8278 459.875 35.8278Z" fill="#0E2B5C"/>
<path d="M451.657 43.5622C453.266 43.5622 454.578 42.1091 454.578 40.3228C454.578 38.5366 453.269 37.0835 451.657 37.0835C450.045 37.0835 448.735 38.5366 448.735 40.3228C448.735 42.1091 450.047 43.5622 451.657 43.5622ZM451.657 38.4084C452.536 38.4084 453.253 39.267 453.253 40.3228C453.253 41.3787 452.538 42.2372 451.657 42.2372C450.775 42.2372 450.06 41.3787 450.06 40.3228C450.06 39.267 450.775 38.4084 451.657 38.4084Z" fill="#0E2B5C"/>
<path d="M445.367 46.7885C446.976 46.7885 448.288 45.3354 448.288 43.5491C448.288 41.7629 446.976 40.3098 445.367 40.3098C443.757 40.3098 442.445 41.7629 442.445 43.5491C442.445 45.3354 443.757 46.7885 445.367 46.7885ZM445.367 41.6322C446.248 41.6322 446.963 42.4907 446.963 43.5466C446.963 44.6024 446.248 45.461 445.367 45.461C444.485 45.461 443.77 44.6024 443.77 43.5466C443.77 42.4907 444.485 41.6322 445.367 41.6322Z" fill="#0E2B5C"/>
<path d="M472.127 45.0126C473.737 45.0126 475.049 43.5595 475.049 41.7733C475.049 39.987 473.739 38.5339 472.127 38.5339C470.515 38.5339 469.206 39.987 469.206 41.7733C469.206 43.5595 470.518 45.0126 472.127 45.0126ZM472.127 39.8563C473.006 39.8563 473.724 40.7148 473.724 41.7707C473.724 42.8266 473.009 43.6851 472.127 43.6851C471.246 43.6851 470.531 42.8266 470.531 41.7707C470.531 40.7148 471.246 39.8563 472.127 39.8563Z" fill="#0E2B5C"/>
<path d="M464.229 48.7157C465.838 48.7157 467.15 47.2626 467.15 45.4764C467.15 43.6901 465.838 42.2371 464.229 42.2371C462.619 42.2371 461.307 43.6901 461.307 45.4764C461.307 47.2626 462.619 48.7157 464.229 48.7157ZM464.229 43.5594C465.11 43.5594 465.825 44.418 465.825 45.4738C465.825 46.5297 465.11 47.3882 464.229 47.3882C463.347 47.3882 462.632 46.5297 462.632 45.4738C462.632 44.418 463.347 43.5594 464.229 43.5594Z" fill="#0E2B5C"/>
<path d="M456.008 51.299C457.618 51.299 458.93 49.8459 458.93 48.0596C458.93 46.2734 457.62 44.8203 456.008 44.8203C454.396 44.8203 453.087 46.2734 453.087 48.0596C453.087 49.8459 454.399 51.299 456.008 51.299ZM456.008 46.1453C456.887 46.1453 457.605 47.0038 457.605 48.0596C457.605 49.1155 456.89 49.974 456.008 49.974C455.127 49.974 454.412 49.1155 454.412 48.0596C454.412 47.0038 455.127 46.1453 456.008 46.1453Z" fill="#0E2B5C"/>
<path d="M449.721 54.5204C451.33 54.5204 452.643 53.0673 452.643 51.2811C452.643 49.4948 451.33 48.0417 449.721 48.0417C448.112 48.0417 446.799 49.4948 446.799 51.2811C446.799 53.0673 448.112 54.5204 449.721 54.5204ZM449.721 49.3667C450.603 49.3667 451.318 50.2252 451.318 51.2811C451.318 52.3369 450.603 53.1955 449.721 53.1955C448.839 53.1955 448.124 52.3369 448.124 51.2811C448.124 50.2252 448.839 49.3667 449.721 49.3667Z" fill="#0E2B5C"/>
<path d="M401.513 83.449C401.677 83.449 401.841 83.3875 401.969 83.2671L402.766 82.511C403.03 82.2599 403.04 81.8396 402.789 81.5756C402.535 81.3117 402.118 81.3014 401.854 81.5526L401.057 82.3086C400.793 82.5597 400.783 82.98 401.034 83.244C401.164 83.3798 401.339 83.449 401.513 83.449ZM405.191 79.9508C405.355 79.9508 405.519 79.8893 405.647 79.7689L406.608 78.854C406.874 78.6028 406.885 78.1825 406.631 77.9186C406.377 77.6546 405.957 77.6443 405.695 77.8955L404.734 78.8104C404.468 79.0616 404.458 79.4818 404.711 79.7458C404.842 79.8816 405.016 79.9534 405.191 79.9534V79.9508ZM409.035 76.2963C409.199 76.2963 409.363 76.2348 409.491 76.1144L410.452 75.1995C410.718 74.9483 410.729 74.528 410.475 74.2641C410.221 73.9975 409.801 73.9898 409.54 74.241L408.579 75.1559C408.312 75.4071 408.302 75.8273 408.555 76.0913C408.686 76.2271 408.86 76.2989 409.035 76.2989V76.2963ZM412.879 72.6418C413.043 72.6418 413.207 72.5803 413.335 72.4599L414.296 71.545C414.563 71.2938 414.573 70.8735 414.319 70.6096C414.065 70.3456 413.645 70.3328 413.384 70.5865L412.423 71.5014C412.156 71.7525 412.146 72.1728 412.4 72.4368C412.53 72.5726 412.705 72.6444 412.879 72.6444V72.6418ZM416.723 68.9873C416.887 68.9873 417.051 68.9258 417.179 68.8054L418.14 67.8905C418.404 67.6393 418.414 67.219 418.163 66.955C417.91 66.6936 417.492 66.6808 417.228 66.932L416.267 67.8469C416.003 68.098 415.993 68.5183 416.244 68.7823C416.374 68.9181 416.549 68.9873 416.723 68.9873ZM420.567 65.3328C420.731 65.3328 420.895 65.2713 421.023 65.1509L421.984 64.236C422.248 63.9848 422.259 63.5645 422.007 63.3005C421.754 63.0391 421.336 63.0263 421.072 63.2775L420.111 64.1924C419.847 64.4435 419.837 64.8638 420.088 65.1278C420.219 65.2636 420.393 65.3328 420.567 65.3328ZM424.411 61.6783C424.575 61.6783 424.739 61.6168 424.867 61.4964L425.828 60.5815C426.092 60.3303 426.103 59.91 425.852 59.646C425.598 59.3821 425.18 59.3718 424.916 59.623L423.955 60.5379C423.691 60.789 423.681 61.2093 423.932 61.4733C424.063 61.6091 424.237 61.6783 424.411 61.6783ZM428.255 58.0238C428.419 58.0238 428.583 57.9623 428.712 57.8419L429.673 56.9269C429.937 56.6758 429.947 56.2555 429.696 55.9915C429.442 55.7276 429.024 55.7173 428.76 55.9685L427.799 56.8834C427.535 57.1345 427.525 57.5548 427.776 57.8188C427.907 57.9546 428.081 58.0238 428.255 58.0238ZM432.1 54.3693C432.264 54.3693 432.428 54.3078 432.556 54.1873L433.517 53.2724C433.781 53.0213 433.791 52.601 433.54 52.337C433.286 52.0756 432.868 52.0628 432.604 52.314L431.643 53.2289C431.379 53.48 431.369 53.9003 431.62 54.1643C431.751 54.3001 431.925 54.3693 432.1 54.3693Z" fill="#0E2B5C"/>
<path d="M376.686 81.4551C376.863 81.4551 377.037 81.3859 377.168 81.2475L378.08 80.2839C378.331 80.0174 378.321 79.5996 378.054 79.3485C377.788 79.0973 377.37 79.1101 377.119 79.3741L376.206 80.3377C375.955 80.6042 375.966 81.022 376.232 81.2731C376.36 81.3936 376.524 81.4551 376.688 81.4551H376.686ZM380.335 77.6032C380.512 77.6032 380.686 77.534 380.817 77.3956L381.729 76.432C381.98 76.1655 381.97 75.7478 381.704 75.4966C381.435 75.2455 381.017 75.2557 380.768 75.5223L379.856 76.4859C379.605 76.7524 379.615 77.1701 379.881 77.4213C380.01 77.5417 380.174 77.6032 380.338 77.6032H380.335ZM383.982 73.754C384.159 73.754 384.333 73.6848 384.464 73.5464L385.376 72.5828C385.627 72.3162 385.617 71.8985 385.35 71.6474C385.084 71.3962 384.664 71.409 384.415 71.673L383.503 72.6366C383.252 72.9031 383.262 73.3209 383.528 73.572C383.656 73.6925 383.82 73.754 383.984 73.754H383.982ZM387.629 69.9021C387.806 69.9021 387.98 69.8329 388.111 69.6945L389.023 68.7309C389.274 68.4644 389.264 68.0467 388.997 67.7955C388.731 67.5469 388.31 67.5572 388.062 67.8212L387.149 68.7847C386.898 69.0513 386.909 69.469 387.175 69.7202C387.303 69.8406 387.467 69.9021 387.631 69.9021H387.629ZM391.276 66.0528C391.452 66.0528 391.627 65.9837 391.757 65.8453L392.67 64.8817C392.921 64.6151 392.911 64.1974 392.644 63.9463C392.378 63.6977 391.957 63.7079 391.709 63.9719L390.796 64.9355C390.545 65.202 390.555 65.6197 390.822 65.8709C390.95 65.9913 391.114 66.0528 391.278 66.0528H391.276ZM394.922 62.201C395.099 62.201 395.273 62.1318 395.404 61.9934L396.317 61.0298C396.568 60.7633 396.557 60.3456 396.291 60.0944C396.024 59.8433 395.604 59.8561 395.355 60.12L394.443 61.0836C394.192 61.3502 394.202 61.7679 394.469 62.0191C394.597 62.1395 394.761 62.201 394.925 62.201H394.922ZM398.569 58.3517C398.746 58.3517 398.92 58.2825 399.051 58.1441L399.963 57.1805C400.214 56.914 400.204 56.4963 399.938 56.2451C399.671 55.994 399.251 56.0068 399.002 56.2708L398.09 57.2344C397.839 57.5009 397.849 57.9186 398.116 58.1698C398.244 58.2902 398.408 58.3517 398.572 58.3517H398.569ZM402.219 54.4999C402.395 54.4999 402.57 54.4307 402.7 54.2923L403.613 53.3287C403.864 53.0622 403.854 52.6445 403.587 52.3933C403.321 52.1422 402.9 52.155 402.652 52.4189L401.739 53.3825C401.488 53.6491 401.498 54.0668 401.765 54.3179C401.893 54.4384 402.057 54.4999 402.221 54.4999H402.219ZM405.865 50.6506C406.042 50.6506 406.216 50.5814 406.347 50.443L407.26 49.4794C407.511 49.2129 407.5 48.7952 407.234 48.544C406.967 48.2929 406.55 48.3057 406.298 48.5697L405.386 49.5333C405.135 49.7998 405.145 50.2175 405.412 50.4687C405.54 50.5891 405.704 50.6506 405.868 50.6506H405.865ZM409.512 46.7988C409.689 46.7988 409.863 46.7296 409.994 46.5912L410.906 45.6276C411.157 45.3611 411.147 44.9433 410.881 44.6922C410.614 44.441 410.196 44.4539 409.945 44.7178L409.033 45.6814C408.782 45.9479 408.792 46.3657 409.059 46.6168C409.187 46.7373 409.351 46.7988 409.515 46.7988H409.512ZM413.159 42.9495C413.336 42.9495 413.51 42.8803 413.641 42.7419L414.553 41.7783C414.804 41.5118 414.794 41.0941 414.528 40.8429C414.261 40.5943 413.841 40.6071 413.592 40.8685L412.68 41.8321C412.429 42.0987 412.439 42.5164 412.705 42.7676C412.834 42.888 412.998 42.9495 413.162 42.9495H413.159ZM416.806 39.0977C416.983 39.0977 417.157 39.0285 417.288 38.8901L418.2 37.9265C418.451 37.66 418.441 37.2422 418.174 36.9911C417.908 36.7399 417.488 36.7527 417.239 37.0167L416.327 37.9803C416.075 38.2468 416.086 38.6646 416.352 38.9157C416.48 39.0362 416.644 39.0977 416.808 39.0977H416.806ZM420.453 35.2484C420.629 35.2484 420.804 35.1792 420.934 35.0408L421.847 34.0772C422.098 33.8107 422.088 33.393 421.821 33.1418C421.555 32.8907 421.134 32.9035 420.886 33.1674L419.973 34.131C419.722 34.3976 419.732 34.8153 419.999 35.0664C420.127 35.1869 420.291 35.2484 420.455 35.2484H420.453Z" fill="#0E2B5C"/>
<path d="M403.958 105.004C404.119 105.004 404.283 104.946 404.409 104.825L405.38 103.92C405.649 103.672 405.665 103.252 405.414 102.985C405.163 102.716 404.742 102.703 404.478 102.952L403.507 103.856C403.238 104.105 403.223 104.525 403.474 104.792C403.604 104.933 403.781 105.002 403.958 105.002V105.004ZM407.841 101.388C408.002 101.388 408.164 101.329 408.292 101.209L409.263 100.304C409.529 100.056 409.547 99.6355 409.296 99.369C409.045 99.0999 408.627 99.087 408.361 99.3356L407.39 100.24C407.123 100.489 407.105 100.909 407.356 101.176C407.487 101.317 407.664 101.386 407.841 101.386V101.388ZM411.723 97.7723C411.885 97.7723 412.046 97.7134 412.174 97.5929L413.146 96.6883C413.412 96.4397 413.43 96.0194 413.179 95.7529C412.93 95.4838 412.51 95.471 412.243 95.7196L411.272 96.6242C411.006 96.8728 410.988 97.2931 411.239 97.5596C411.37 97.7006 411.546 97.7698 411.723 97.7698V97.7723ZM415.606 94.1563C415.767 94.1563 415.929 94.0973 416.057 93.9769L417.028 93.0722C417.295 92.8236 417.313 92.4034 417.061 92.1368C416.813 91.8677 416.395 91.8549 416.126 92.1035L415.155 93.0082C414.888 93.2568 414.87 93.677 415.121 93.9436C415.252 94.0845 415.429 94.1537 415.606 94.1537V94.1563ZM419.488 90.5402C419.65 90.5402 419.811 90.4813 419.939 90.3608L420.911 89.4562C421.177 89.2076 421.195 88.7873 420.944 88.5208C420.693 88.2491 420.278 88.2389 420.009 88.4874L419.037 89.3921C418.771 89.6407 418.753 90.061 419.004 90.3275C419.135 90.4685 419.312 90.5377 419.488 90.5377V90.5402ZM423.371 86.9267C423.532 86.9267 423.696 86.8678 423.822 86.7473L424.793 85.8427C425.062 85.5941 425.078 85.1738 424.827 84.9073C424.575 84.6382 424.158 84.6254 423.891 84.8739L422.92 85.7786C422.651 86.0272 422.635 86.4475 422.887 86.714C423.017 86.855 423.194 86.9242 423.371 86.9242V86.9267ZM427.254 83.3107C427.415 83.3107 427.576 83.2517 427.705 83.1313L428.676 82.2266C428.942 81.978 428.96 81.5577 428.709 81.2912C428.458 81.0221 428.04 81.0093 427.774 81.2579L426.803 82.1625C426.536 82.4111 426.518 82.8314 426.769 83.0979C426.9 83.2389 427.077 83.3081 427.254 83.3081V83.3107ZM431.136 79.6946C431.298 79.6946 431.459 79.6357 431.587 79.5152L432.558 78.6105C432.825 78.362 432.843 77.9417 432.592 77.6751C432.341 77.406 431.923 77.3932 431.656 77.6418L430.685 78.5465C430.419 78.7951 430.401 79.2154 430.652 79.4819C430.782 79.6228 430.959 79.692 431.136 79.692V79.6946ZM435.019 76.0785C435.18 76.0785 435.342 76.0196 435.47 75.8991L436.441 74.9945C436.708 74.7459 436.726 74.3256 436.474 74.0591C436.223 73.79 435.806 73.7772 435.539 74.0258L434.568 74.9304C434.301 75.179 434.283 75.5993 434.534 75.8658C434.665 76.0068 434.842 76.076 435.019 76.076V76.0785Z" fill="#0E2B5C"/>
<path d="M382.33 288.97H382.332C382.655 288.97 382.917 288.706 382.914 288.383C382.883 281.963 382.553 220.073 382.553 220.073C382.553 219.903 382.478 219.742 382.35 219.632C382.222 219.522 382.053 219.488 381.884 219.496L378.058 220.044C377.765 220.088 377.553 220.339 377.555 220.631L378.45 287.732C378.452 288.055 378.714 288.311 379.034 288.311H379.042C379.365 288.306 379.623 288.042 379.618 287.719L378.729 221.131L381.382 220.749C381.417 227.464 381.71 282.363 381.74 288.388C381.74 288.711 382.004 288.97 382.325 288.97H382.33Z" fill="#0E2B5C"/>
<path d="M372.671 287.163H372.673C372.996 287.163 373.257 286.899 373.255 286.576L372.904 219.937C372.904 219.768 372.829 219.606 372.701 219.496C372.573 219.386 372.404 219.35 372.237 219.36L368.411 219.903C368.119 219.944 367.904 220.198 367.909 220.49L368.783 285.631C368.785 285.954 369.047 286.207 369.367 286.207H369.375C369.698 286.202 369.957 285.938 369.951 285.615L369.085 220.99L371.738 220.613L372.086 286.581C372.086 286.904 372.35 287.163 372.671 287.163Z" fill="#0E2B5C"/>
<path d="M364.464 285.489H364.467C364.79 285.489 365.051 285.225 365.049 284.903L364.703 219.209C364.703 219.039 364.629 218.878 364.5 218.768C364.372 218.658 364.195 218.617 364.034 218.632L360.208 219.183C359.916 219.227 359.703 219.478 359.705 219.77L360.569 284.234C360.572 284.557 360.833 284.813 361.153 284.813H361.161C361.484 284.808 361.743 284.544 361.738 284.221L360.882 220.272L363.534 219.89L363.878 284.91C363.878 285.233 364.142 285.492 364.462 285.492L364.464 285.489Z" fill="#0E2B5C"/>
<path d="M372.615 221.736H372.625L377.851 221.638C378.174 221.633 378.43 221.367 378.425 221.041C378.42 220.716 378.209 220.434 377.828 220.467L372.602 220.564C372.279 220.57 372.023 220.836 372.028 221.162C372.033 221.482 372.295 221.736 372.612 221.736H372.615Z" fill="#0E2B5C"/>
<path d="M372.747 220.285C373.07 220.285 373.332 220.024 373.332 219.701V218.535L377.768 218.386V219.606C377.768 219.931 378.029 220.19 378.352 220.19C378.675 220.19 378.937 219.929 378.937 219.606V217.781C378.937 217.625 378.872 217.471 378.757 217.361C378.644 217.251 378.485 217.2 378.332 217.197L372.727 217.384C372.412 217.394 372.161 217.653 372.161 217.968V219.701C372.161 220.026 372.422 220.285 372.745 220.285H372.747Z" fill="#0E2B5C"/>
<path d="M364.317 219.855C364.64 219.855 364.901 219.593 364.901 219.27V218.107L369.337 217.963V219.183C369.337 219.509 369.599 219.767 369.922 219.767C370.244 219.767 370.506 219.506 370.506 219.183V217.358C370.506 217.2 370.442 217.048 370.326 216.938C370.211 216.828 370.073 216.777 369.901 216.774L364.296 216.956C363.981 216.966 363.73 217.225 363.73 217.54V219.27C363.73 219.596 363.991 219.855 364.314 219.855H364.317Z" fill="#0E2B5C"/>
<path d="M426.002 298.06C426.273 298.06 426.517 297.87 426.573 297.591C426.637 297.276 426.435 296.966 426.117 296.902L344.067 280.139C343.747 280.064 343.44 280.277 343.376 280.595C343.311 280.91 343.514 281.22 343.832 281.284L425.881 298.047C425.922 298.057 425.961 298.058 425.999 298.058L426.002 298.06Z" fill="#0E2B5C"/>
<path d="M364.123 221.175H364.136L368.698 221.077C369.021 221.07 369.277 220.803 369.269 220.478C369.262 220.155 368.972 219.924 368.672 219.906L364.111 220.003C363.788 220.011 363.531 220.278 363.539 220.603C363.547 220.921 363.806 221.175 364.123 221.175Z" fill="#0E2B5C"/>
<path d="M262.409 295.577L411.27 295.192C411.593 295.192 411.854 294.931 411.854 294.605C411.854 294.283 411.591 294.024 411.27 294.024L262.409 294.408C262.086 294.408 261.825 294.67 261.825 294.995C261.825 295.318 262.086 295.577 262.409 295.577Z" fill="#0E2B5C"/>
<path d="M193.802 281.287L237.184 281.235C237.507 281.235 237.769 280.972 237.769 280.651C237.769 280.326 237.507 280.067 237.184 280.067L193.802 280.118C193.479 280.118 193.217 280.38 193.217 280.702C193.217 281.028 193.479 281.287 193.802 281.287ZM261.964 281.21L323.972 281.138C324.295 281.138 324.557 280.874 324.557 280.554C324.557 280.228 324.295 279.969 323.972 279.969L261.964 280.041C261.641 280.041 261.379 280.303 261.379 280.626C261.379 280.951 261.641 281.21 261.964 281.21Z" fill="#0E2B5C"/>
<path d="M290.697 133.041H290.717L296.532 132.854C296.842 132.844 297.088 132.595 297.098 132.285L297.16 129.955C297.165 129.794 297.101 129.638 296.988 129.525C296.873 129.412 296.714 129.353 296.555 129.356L290.427 129.571C290.266 129.576 290.112 129.651 290.005 129.774C289.9 129.897 289.848 130.058 289.866 130.219L290.117 132.521C290.148 132.818 290.402 133.041 290.699 133.041H290.697ZM295.94 131.701L291.219 131.854L291.094 130.717L295.971 130.545L295.94 131.701Z" fill="#0E2B5C"/>
<path d="M278.853 140.786L288.323 140.412L294.743 139.317C294.984 139.276 295.173 139.089 295.219 138.848L296.308 133.033C296.367 132.716 296.157 132.411 295.839 132.349C295.524 132.29 295.217 132.498 295.155 132.818L294.143 138.231L288.202 139.251L278.861 139.617L268.92 139.158L267.931 138.397L269.189 136.621C269.233 136.56 269.264 136.493 269.282 136.419L269.722 134.584C269.797 134.269 269.604 133.953 269.289 133.879C268.974 133.8 268.659 133.997 268.584 134.312L268.172 136.037L266.655 138.179C266.473 138.436 266.527 138.789 266.775 138.982L268.359 140.196C268.454 140.271 268.569 140.312 268.687 140.317L278.859 140.783L278.853 140.786Z" fill="#0E2B5C"/>
<path d="M288.377 135.686C288.474 135.686 288.566 135.686 288.654 135.686C290.481 135.67 291.48 135.327 291.796 134.604C292.103 133.897 291.567 133.279 291.503 133.21C291.286 132.972 290.916 132.956 290.676 133.174C290.44 133.39 290.422 133.756 290.635 133.994C290.676 134.04 290.717 134.122 290.717 134.156C290.717 134.156 290.401 134.502 288.643 134.517C285.958 134.507 277.136 134.174 271.875 133.956C269.861 133.871 268.387 133.81 268.016 133.805C267.408 133.789 267.098 133.618 267.016 133.477C266.937 133.336 266.993 133.069 267.175 132.749C267.682 131.854 268.959 131.831 268.972 131.831C269.128 131.831 269.279 131.767 269.387 131.655C269.494 131.542 269.556 131.391 269.553 131.234C269.553 131.145 269.464 122.083 276.032 118.93C279.722 117.16 284.356 117.229 288.123 119.107C290.701 120.394 294.007 123.085 295.104 128.589C295.168 128.907 295.483 129.105 295.793 129.051C296.111 128.987 296.316 128.679 296.255 128.361C295.324 123.705 292.623 120.045 288.646 118.059C284.563 116.022 279.535 115.95 275.525 117.875C269.169 120.924 268.462 128.6 268.39 130.719C267.744 130.834 266.719 131.175 266.155 132.172C265.65 133.067 265.789 133.689 265.999 134.053C266.322 134.622 267.029 134.948 267.987 134.973C268.359 134.981 269.825 135.043 271.826 135.125C276.931 135.337 285.368 135.688 288.377 135.688V135.686Z" fill="#0E2B5C"/>
<path d="M285.084 133.423C286.478 133.423 287.972 133.382 289.51 133.277L289.71 133.264C290.03 133.254 290.286 132.99 290.281 132.67C290.276 132.349 290.02 132.093 289.702 132.093C289.671 132.093 289.579 132.098 289.428 132.108C285.481 132.385 281.827 132.218 279.453 132.034C273.572 131.573 269.254 131.35 269.21 131.347C268.869 131.357 268.613 131.578 268.595 131.903C268.58 132.226 268.826 132.5 269.151 132.518C269.192 132.518 273.498 132.741 279.364 133.203C280.853 133.318 282.839 133.426 285.084 133.426V133.423Z" fill="#0E2B5C"/>
<path d="M290.07 142.367C290.186 142.367 290.303 142.331 290.406 142.262C290.67 142.075 290.734 141.711 290.549 141.447L289.101 139.384L292.143 134.832C292.323 134.563 292.251 134.199 291.982 134.02C291.713 133.84 291.352 133.912 291.17 134.181L287.905 139.066C287.769 139.266 287.774 139.53 287.912 139.727L289.588 142.118C289.704 142.28 289.883 142.367 290.068 142.369L290.07 142.367Z" fill="#0E2B5C"/>
<path d="M287.433 146.38C287.477 146.38 287.523 146.375 287.569 146.365L291.487 145.429C291.623 145.399 291.741 145.319 291.823 145.209C291.836 145.191 293.153 143.402 294.173 141.821C295.308 140.073 295.06 138.958 295.026 138.835C294.944 138.523 294.624 138.331 294.311 138.42C293.999 138.502 293.812 138.823 293.896 139.135C293.896 139.135 294.03 139.891 293.191 141.186C292.374 142.452 291.359 143.861 291.008 144.343L289.03 144.814L292.764 140.394C292.971 140.145 292.94 139.776 292.694 139.568C292.443 139.361 292.077 139.392 291.869 139.638L286.99 145.419C286.828 145.614 286.808 145.888 286.938 146.103C287.046 146.278 287.236 146.38 287.436 146.38H287.433Z" fill="#0E2B5C"/>
<path d="M278.976 153.436C279.04 153.436 279.107 153.425 279.174 153.402C279.479 153.295 279.637 152.959 279.53 152.654L277.175 146.024L279.209 140.814C279.327 140.512 279.179 140.173 278.879 140.055C278.574 139.937 278.238 140.086 278.12 140.386L276.006 145.798C275.955 145.929 275.952 146.075 275.998 146.209L278.428 153.046C278.512 153.287 278.738 153.436 278.979 153.436H278.976Z" fill="#0E2B5C"/>
<path d="M276.552 146.595C276.829 146.595 277.075 146.396 277.126 146.114C277.185 145.796 276.975 145.491 276.654 145.432C276.577 145.417 274.722 145.081 272.733 145.048C271.659 145.032 270.475 144.719 269.681 144.463L273.533 141.234C273.781 141.027 273.815 140.658 273.607 140.409C273.397 140.16 273.028 140.132 272.782 140.335L268.148 144.22C267.992 144.35 267.915 144.555 267.946 144.755C267.977 144.958 268.11 145.13 268.3 145.206C268.394 145.247 270.665 146.183 272.715 146.214C274.602 146.244 276.426 146.575 276.444 146.58C276.48 146.588 276.516 146.59 276.549 146.59L276.552 146.595Z" fill="#0E2B5C"/>
<path d="M286.992 146.472C287.315 146.472 287.576 146.214 287.576 145.891C287.576 145.568 287.317 145.304 286.994 145.301L276.618 145.24H276.615C276.292 145.24 276.031 145.499 276.031 145.821C276.031 146.144 276.29 146.408 276.613 146.411L286.989 146.472H286.992Z" fill="#0E2B5C"/>
<path d="M276.701 153.628C279.735 153.628 283.21 152.508 284.766 151.616C286.775 150.471 290.883 146.098 291.057 145.914C291.278 145.678 291.267 145.307 291.032 145.086C290.796 144.866 290.424 144.879 290.204 145.112C290.163 145.155 286.042 149.538 284.184 150.599C282.418 151.611 277.393 153.079 274.484 152.165C272.408 151.516 271.87 146.216 271.878 143.508C271.878 143.279 271.878 143.015 269.179 139.379C268.984 139.117 268.618 139.069 268.359 139.256C268.097 139.448 268.044 139.815 268.236 140.076C269.307 141.519 270.481 143.174 270.706 143.597C270.709 145.768 270.988 152.3 274.133 153.282C274.904 153.523 275.783 153.628 276.701 153.628Z" fill="#0E2B5C"/>
<path d="M274.555 152.848C274.611 152.848 274.668 152.838 274.724 152.823C275.034 152.728 275.209 152.403 275.114 152.092L273.184 145.752C273.089 145.445 272.769 145.27 272.454 145.363C272.144 145.457 271.969 145.783 272.064 146.093L273.994 152.433C274.071 152.687 274.301 152.848 274.553 152.848H274.555Z" fill="#0E2B5C"/>
<path d="M288.073 155.468C288.15 155.468 288.207 155.447 288.266 155.429C288.696 155.286 298.186 149.051 298.583 144.479C298.978 139.93 295.89 137.365 295.759 137.259C295.508 137.054 295.142 137.095 294.939 137.344C294.734 137.595 294.773 137.964 295.021 138.167C295.134 138.259 297.758 140.466 297.417 144.379C297.102 148.013 289.501 153.325 288.035 154.23C287.481 153.902 285.972 152.772 284.714 151.775C284.463 151.578 284.096 151.616 283.891 151.87C283.691 152.121 283.735 152.49 283.986 152.692C287.007 155.089 287.733 155.47 288.073 155.47V155.468Z" fill="#0E2B5C"/>
<path d="M284.499 152.931C284.614 152.931 284.73 152.897 284.83 152.828C284.881 152.792 290.209 149.13 294.209 145.35C296.188 143.479 297.167 141.888 297.126 140.612C297.098 139.82 296.685 139.44 296.603 139.371C296.359 139.164 295.988 139.197 295.78 139.451C295.58 139.692 295.609 140.048 295.839 140.258C295.862 140.286 296.034 140.507 295.916 141.037C295.778 141.665 295.229 142.777 293.407 144.499C289.476 148.215 284.222 151.824 284.168 151.86C283.902 152.042 283.833 152.405 284.017 152.675C284.13 152.841 284.314 152.928 284.502 152.928L284.499 152.931Z" fill="#0E2B5C"/>
<path d="M271.045 122.16C271.124 122.16 271.206 122.144 271.283 122.108C271.578 121.978 271.711 121.632 271.581 121.337C271.511 121.181 269.853 117.513 266.081 115.025C262.37 112.575 258.008 112.003 256.201 112.039C254.438 112.078 252.06 116.334 251.371 117.639C251.219 117.923 251.33 118.279 251.614 118.428C251.899 118.574 252.255 118.469 252.403 118.185C253.664 115.794 255.499 113.226 256.225 113.21C257.549 113.236 261.837 113.628 265.435 116.006C268.91 118.3 270.494 121.783 270.509 121.816C270.607 122.034 270.82 122.162 271.045 122.162V122.16Z" fill="#0E2B5C"/>
<path d="M268.495 136.552C268.664 136.552 268.833 136.478 268.948 136.337C269.151 136.085 269.115 135.716 268.864 135.514L261.378 129.43C261.129 129.225 260.763 129.263 260.555 129.515C260.353 129.766 260.389 130.135 260.64 130.337L268.126 136.421C268.233 136.508 268.364 136.552 268.495 136.552Z" fill="#0E2B5C"/>
<path d="M264.169 124.056C264.28 124.056 264.39 124.025 264.487 123.961C266.778 122.48 267.539 119.199 267.57 119.061C267.642 118.746 267.445 118.433 267.129 118.361C266.814 118.282 266.502 118.487 266.43 118.802C266.422 118.83 265.738 121.76 263.854 122.979C263.583 123.154 263.506 123.518 263.68 123.789C263.793 123.964 263.98 124.058 264.172 124.058L264.169 124.056Z" fill="#0E2B5C"/>
<path d="M264.62 133.097C264.886 133.097 265.127 132.913 265.189 132.644C266.831 125.524 269.335 123.018 271.075 121.752C271.337 121.562 271.393 121.196 271.203 120.934C271.014 120.673 270.647 120.614 270.386 120.806C268.494 122.183 265.78 124.881 264.048 132.382C263.974 132.698 264.171 133.013 264.486 133.085C264.53 133.095 264.573 133.1 264.617 133.1L264.62 133.097Z" fill="#0E2B5C"/>
<path d="M280.53 161.493C280.676 161.493 280.819 161.442 280.932 161.334C285.317 157.162 289.833 156.544 292.003 156.247L292.539 156.17C292.859 156.119 293.077 155.822 293.026 155.501C292.977 155.178 292.67 154.96 292.357 155.014L291.842 155.089C289.73 155.378 284.781 156.055 280.125 160.483C279.892 160.706 279.881 161.078 280.104 161.314C280.22 161.434 280.373 161.493 280.527 161.493H280.53Z" fill="#0E2B5C"/>
<path d="M269.896 170.286C270.065 170.286 270.232 170.211 270.347 170.07C273.622 166.075 276.716 163.794 278.269 162.787C279.186 162.19 280.042 161.728 280.744 161.452C281.044 161.334 281.193 160.993 281.072 160.693C280.955 160.391 280.611 160.247 280.314 160.365C279.54 160.67 278.612 161.17 277.633 161.805C276.024 162.846 272.818 165.209 269.443 169.33C269.238 169.578 269.273 169.95 269.525 170.152C269.632 170.242 269.765 170.286 269.896 170.286Z" fill="#0E2B5C"/>
<path d="M269.904 170.288C270.017 170.288 270.114 170.276 270.204 170.258C270.688 170.158 270.957 169.809 271.042 169.543C271.139 169.235 270.968 168.904 270.66 168.81C270.373 168.72 270.081 168.856 269.955 169.115C269.799 169.11 268.797 169.074 265.919 165.755C261.532 160.691 255.981 155.47 255.924 155.417C255.765 155.271 255.535 155.217 255.332 155.291C254.902 155.44 251.099 156.762 250.245 157.352C249.979 157.536 249.912 157.9 250.097 158.167C250.281 158.433 250.648 158.497 250.912 158.315C251.419 157.967 253.792 157.072 255.381 156.514C256.519 157.595 261.224 162.121 265.035 166.521C267.798 169.707 269.138 170.291 269.902 170.291L269.904 170.288ZM269.935 169.163C269.935 169.163 269.927 169.179 269.925 169.189C269.925 169.181 269.93 169.174 269.935 169.163Z" fill="#0E2B5C"/>
<path d="M265.643 181.644C265.776 181.644 265.914 181.644 266.053 181.639C269.953 181.544 282.426 178.284 289.879 175.411C297.513 172.472 301.147 168.461 301.298 168.292C301.514 168.051 301.493 167.679 301.252 167.464C301.011 167.246 300.642 167.269 300.427 167.51C300.391 167.548 296.808 171.487 289.458 174.319C282.093 177.156 269.828 180.375 266.022 180.467C262.531 180.547 261.15 179.632 258.639 175.524C256.327 171.749 249.374 156.839 248.003 153.886L247.939 153.753C247.86 153.589 247.775 153.417 247.754 153.323C247.785 153.323 247.862 153.294 248.001 153.271C248.977 153.107 252.014 151.557 253.3 150.885C254.484 153.358 255.663 155.97 255.735 156.38C255.691 156.7 255.914 156.939 256.235 156.985C256.542 157.031 256.852 156.749 256.896 156.429C256.924 156.231 256.98 155.819 254.09 149.829C254.02 149.686 253.895 149.578 253.744 149.527C253.59 149.478 253.428 149.494 253.287 149.568C251.565 150.488 248.554 151.992 247.806 152.118C247.252 152.21 246.878 152.436 246.694 152.792C246.422 153.317 246.683 153.853 246.84 154.173L246.937 154.381C248.869 158.54 255.351 172.402 257.634 176.136C260.092 180.15 261.716 181.641 265.635 181.641L265.643 181.644Z" fill="#0E2B5C"/>
<path d="M286.449 201.69C288.702 201.69 290.785 201.487 292.464 201.052C299.547 199.224 305.667 197.646 304.401 185.193C303.74 178.689 303.802 177.638 303.922 175.539C304.017 173.897 304.148 171.649 303.996 165.77C303.656 152.382 299.319 144.589 299.135 144.263C298.976 143.981 298.617 143.884 298.335 144.043C298.053 144.202 297.956 144.558 298.115 144.843C298.158 144.919 302.495 152.728 302.825 165.803C302.971 171.634 302.846 173.853 302.751 175.473C302.625 177.633 302.564 178.717 303.235 185.314C304.345 196.234 299.978 197.907 292.169 199.922C284.814 201.823 270.36 198.966 268 195.139C267.831 194.865 267.469 194.778 267.195 194.95C266.921 195.119 266.834 195.48 267.005 195.757C269.222 199.35 278.802 201.692 286.447 201.692L286.449 201.69Z" fill="#0E2B5C"/>
<path d="M266.319 193.176C266.37 193.176 266.424 193.169 266.475 193.156C266.788 193.069 266.97 192.746 266.883 192.436C266.073 189.514 266.132 185.939 266.167 183.804C266.18 183.015 266.188 182.492 266.152 182.197C266.114 181.875 265.816 181.623 265.499 181.69C265.178 181.728 264.95 182.023 264.991 182.343C265.017 182.559 265.009 183.128 264.996 183.784C264.96 185.983 264.899 189.665 265.752 192.748C265.824 193.01 266.06 193.179 266.316 193.179L266.319 193.176Z" fill="#0E2B5C"/>
<path d="M243.062 214.196C243.254 214.196 243.443 214.101 243.556 213.924C247.057 208.399 254.087 202.22 260.291 196.767C262.492 194.832 264.571 193.005 266.352 191.331C266.588 191.111 266.598 190.739 266.378 190.501C266.157 190.268 265.786 190.26 265.55 190.475C263.782 192.138 261.711 193.958 259.517 195.888C253.254 201.393 246.157 207.63 242.567 213.299C242.395 213.571 242.475 213.935 242.749 214.106C242.846 214.168 242.954 214.199 243.062 214.199V214.196Z" fill="#0E2B5C"/>
<path d="M265.775 167.054C265.816 167.054 265.86 167.049 265.903 167.041C266.219 166.969 266.416 166.654 266.344 166.339C265.721 163.597 267.595 158.377 269.245 153.771C270.316 150.788 271.326 147.974 271.652 145.919C271.703 145.599 271.485 145.299 271.167 145.247C270.847 145.196 270.547 145.414 270.496 145.732C270.186 147.68 269.194 150.447 268.143 153.374C266.354 158.364 264.502 163.52 265.201 166.598C265.263 166.87 265.506 167.051 265.773 167.051L265.775 167.054Z" fill="#0E2B5C"/>
<path d="M341.377 273.647C341.567 273.647 341.751 273.555 341.864 273.386L342.984 271.705C343.133 271.484 343.112 271.189 342.933 270.99C342.754 270.79 342.466 270.738 342.228 270.859C342.279 270.82 340.662 270.744 336.265 264.275C335.368 262.958 334.614 261.81 333.93 260.767C330.703 255.851 328.925 253.145 320.752 245.703C313.046 238.678 308.033 214.844 305.037 200.603C304.497 198.03 304.012 195.729 303.579 193.832C303.505 193.517 303.197 193.327 302.877 193.392C302.562 193.466 302.364 193.779 302.436 194.094C302.867 195.985 303.351 198.281 303.889 200.847C307.111 216.157 311.975 239.291 319.96 246.569C328.02 253.914 329.668 256.42 332.946 261.412C333.633 262.461 334.391 263.611 335.291 264.936C338.448 269.577 340.378 271.261 341.518 271.787L340.885 272.74C340.706 273.009 340.778 273.373 341.047 273.55C341.147 273.616 341.259 273.647 341.372 273.647H341.377Z" fill="#0E2B5C"/>
<path d="M328.953 285.887C329.253 285.887 329.635 285.815 330.111 285.608C330.416 285.474 330.616 285.226 330.67 284.905C330.801 284.152 329.94 283.068 329.158 282.263C330.068 281.753 331.454 281.059 332.233 280.989C333.748 280.854 336.085 281.033 338.643 282.701C340.042 283.611 341.882 283.265 343.443 281.792C344.873 280.446 345.924 278.201 345.065 276.694C344.332 275.415 341.129 272.343 337.42 268.783C334.583 266.061 331.367 262.973 329.127 260.544C322.577 253.422 312.918 245.044 304.043 245.431C293.041 245.941 292.098 244.411 292.09 244.396C292.457 243.993 295.276 244.283 298.01 245.024C298.325 245.111 298.643 244.924 298.728 244.614C298.812 244.301 298.628 243.981 298.315 243.896C295.909 243.24 291.767 242.376 291.042 243.896C290.855 244.288 290.883 244.701 291.122 245.057C291.227 245.213 291.375 245.359 291.565 245.487C292.157 246.779 296.685 256.523 300.027 260.159C303.197 263.611 306.911 264.106 308.131 264.267C308.246 264.283 308.333 264.293 308.382 264.303C308.635 264.383 309.263 264.583 313.571 269.713C318.069 275.08 327.989 285.497 328.087 285.602C328.212 285.707 328.484 285.887 328.956 285.887H328.953ZM329.478 284.6C329.125 284.734 328.93 284.721 328.853 284.713C327.902 283.714 318.725 274.047 314.466 268.96C309.937 263.568 309.253 263.352 308.748 263.194C308.664 263.165 308.51 263.137 308.284 263.106C307.17 262.958 303.774 262.507 300.888 259.367C298.202 256.443 294.563 249.083 293.159 246.131C295.778 246.792 300.265 246.776 304.097 246.6C312.926 246.192 323.041 255.654 328.266 261.336C330.529 263.793 333.62 266.758 336.611 269.626C340.104 272.978 343.402 276.141 344.05 277.271C344.522 278.096 343.876 279.775 342.643 280.938C342.208 281.348 340.673 282.622 339.286 281.717C336.449 279.864 333.833 279.662 332.128 279.823C330.668 279.959 328.177 281.474 327.895 281.648C327.741 281.743 327.638 281.907 327.62 282.089C327.602 282.268 327.672 282.45 327.805 282.576C328.584 283.301 329.314 284.19 329.484 284.6H329.478Z" fill="#0E2B5C"/>
<path d="M301.124 257.528C307.052 257.528 312.182 256.387 315.701 249.952C315.855 249.668 315.752 249.311 315.468 249.158C315.186 249.004 314.827 249.106 314.673 249.391C310.932 256.244 305.068 256.566 298.338 256.292C298.01 256.282 297.741 256.533 297.728 256.851C297.716 257.176 297.967 257.448 298.29 257.461C299.251 257.499 300.199 257.53 301.124 257.53V257.528Z" fill="#0E2B5C"/>
<path d="M302.046 261.794H302.067C308.556 261.584 316.28 257.486 317.974 251C318.056 250.687 317.869 250.367 317.554 250.285C317.238 250.193 316.923 250.392 316.839 250.703C315.303 256.584 307.956 260.431 302.026 260.626C301.703 260.636 301.449 260.908 301.459 261.228C301.47 261.546 301.729 261.794 302.044 261.794H302.046Z" fill="#0E2B5C"/>
<path d="M306.739 264.009C306.805 264.009 306.872 263.998 306.936 263.975C312.169 262.094 317.543 259.734 320.714 253.414C320.86 253.124 320.742 252.773 320.452 252.627C320.168 252.479 319.812 252.597 319.665 252.889C316.967 258.265 312.807 260.621 306.539 262.873C306.234 262.983 306.078 263.317 306.185 263.622C306.27 263.86 306.495 264.009 306.736 264.009H306.739Z" fill="#0E2B5C"/>
<path d="M343.868 280.741C344.024 280.741 344.178 280.679 344.293 280.559C344.516 280.323 344.506 279.954 344.27 279.731L318.963 255.756C318.73 255.533 318.361 255.544 318.135 255.779C317.912 256.015 317.923 256.384 318.158 256.607L343.466 280.582C343.578 280.69 343.722 280.741 343.868 280.741Z" fill="#0E2B5C"/>
<path d="M341.252 283.055C341.408 283.055 341.565 282.994 341.68 282.871C341.9 282.632 341.887 282.263 341.649 282.043L316.439 258.55C316.203 258.33 315.834 258.343 315.611 258.578C315.391 258.817 315.404 259.186 315.642 259.406L340.852 282.899C340.965 283.004 341.108 283.058 341.252 283.058V283.055Z" fill="#0E2B5C"/>
<path d="M330.903 278.501C331.054 278.501 331.203 278.444 331.318 278.329C331.546 278.099 331.546 277.729 331.318 277.499C331.152 277.335 314.658 260.931 313.986 260.203C313.766 259.964 313.397 259.949 313.158 260.167C312.92 260.387 312.905 260.756 313.125 260.995C313.812 261.743 329.814 277.653 330.493 278.332C330.608 278.444 330.754 278.501 330.906 278.501H330.903Z" fill="#0E2B5C"/>
<path d="M327.546 279.962C327.692 279.962 327.841 279.908 327.954 279.798C328.184 279.572 328.192 279.201 327.964 278.967C321.683 272.512 312.193 262.671 311.503 261.723C311.426 261.556 311.275 261.428 311.08 261.389C310.765 261.338 310.455 261.535 310.396 261.853C310.319 262.248 310.278 262.468 327.126 279.785C327.241 279.9 327.392 279.962 327.546 279.962Z" fill="#0E2B5C"/>
<path d="M326.331 280.49C326.406 280.49 326.482 280.477 326.554 280.446L333.771 277.46C334.068 277.337 334.212 276.994 334.089 276.694C333.963 276.394 333.622 276.256 333.322 276.376L326.106 279.362C325.808 279.485 325.665 279.828 325.788 280.128C325.883 280.354 326.101 280.49 326.329 280.49H326.331Z" fill="#0E2B5C"/>
<path d="M315.373 250.126C315.437 250.126 315.503 250.116 315.567 250.095C319.089 248.847 319.125 244.578 319.122 244.398C319.122 244.073 318.861 243.814 318.538 243.814C318.215 243.814 317.953 244.075 317.953 244.398C317.953 244.434 317.912 248.025 315.178 248.991C314.873 249.101 314.714 249.434 314.822 249.737C314.906 249.977 315.132 250.126 315.373 250.126Z" fill="#0E2B5C"/>
<path d="M319.248 252.325C319.332 252.325 319.419 252.307 319.501 252.269C321.749 251.179 321.639 247.458 321.634 247.299C321.623 246.974 321.349 246.756 321.029 246.736C320.706 246.746 320.452 247.02 320.465 247.34C320.496 248.204 320.285 250.587 318.994 251.213C318.702 251.354 318.581 251.705 318.722 251.997C318.822 252.205 319.032 252.325 319.248 252.325Z" fill="#0E2B5C"/>
<path d="M324.22 256.484C324.389 256.484 324.555 256.413 324.671 256.272C326.232 254.385 326.742 252.181 326.765 252.089C326.836 251.774 326.639 251.461 326.324 251.387C326.009 251.32 325.696 251.513 325.622 251.828C325.616 251.848 325.145 253.857 323.769 255.526C323.564 255.774 323.597 256.143 323.848 256.351C323.956 256.441 324.089 256.484 324.22 256.484Z" fill="#0E2B5C"/>
<path d="M328.012 260.344C328.086 260.344 328.158 260.331 328.23 260.303C330.395 259.434 330.703 256.725 330.716 256.612C330.749 256.29 330.516 256.005 330.195 255.972C329.875 255.941 329.585 256.167 329.55 256.489C329.55 256.51 329.298 258.614 327.794 259.216C327.494 259.337 327.348 259.678 327.469 259.977C327.561 260.205 327.781 260.344 328.012 260.344Z" fill="#0E2B5C"/>
<path d="M298.167 245.044C298.272 245.044 298.379 245.016 298.474 244.957C298.748 244.785 298.833 244.424 298.664 244.15C298.613 244.065 293.377 235.672 286.621 229.352C279.974 223.127 272.603 212.154 272.529 212.043C272.349 211.777 271.985 211.703 271.716 211.882C271.447 212.061 271.376 212.425 271.555 212.692C271.629 212.805 279.074 223.889 285.819 230.206C292.457 236.418 297.613 244.683 297.664 244.765C297.775 244.944 297.967 245.042 298.162 245.042L298.167 245.044Z" fill="#0E2B5C"/>
<path d="M253.508 232.973C253.774 232.973 254.015 232.791 254.076 232.522C254.381 231.208 256.298 230.193 265.547 228.617C275.419 226.93 279.11 223.827 279.263 223.694C279.507 223.483 279.535 223.114 279.325 222.868C279.115 222.625 278.746 222.592 278.5 222.807C278.464 222.838 274.853 225.841 265.353 227.461C255.219 229.191 253.395 230.29 252.939 232.258C252.864 232.574 253.062 232.889 253.377 232.963C253.42 232.973 253.464 232.976 253.508 232.976V232.973Z" fill="#0E2B5C"/>
<path d="M258.889 269.703C258.933 269.703 258.976 269.698 259.022 269.69C259.338 269.616 259.532 269.301 259.461 268.985C259.433 268.862 256.619 256.553 258.249 249.062C259.955 241.238 255.004 231.32 254.791 230.9C254.648 230.61 254.294 230.498 254.005 230.641C253.715 230.787 253.6 231.138 253.746 231.428C253.794 231.525 258.72 241.397 257.103 248.811C255.419 256.561 258.2 268.734 258.32 269.249C258.384 269.518 258.623 269.7 258.889 269.7V269.703Z" fill="#0E2B5C"/>
<path d="M245.617 286.348C249.379 286.348 253.425 286.071 257.687 285.523C260.004 285.228 261.35 284.652 262.047 283.655C262.877 282.466 262.657 280.82 262.29 279.219C262.113 278.447 261.957 277.586 261.813 276.587C261.634 275.321 261.519 274.111 261.421 273.091C261.316 271.984 261.232 271.107 261.106 270.567C260.998 270.113 260.737 269.759 260.345 269.552C259.463 269.085 258.215 269.531 258.074 269.583C257.772 269.698 257.621 270.034 257.733 270.336C257.849 270.641 258.187 270.787 258.487 270.679C258.771 270.574 259.463 270.41 259.797 270.587C259.861 270.62 259.927 270.677 259.966 270.836C260.076 271.297 260.158 272.179 260.255 273.201C260.353 274.237 260.471 275.464 260.655 276.751C260.804 277.781 260.965 278.673 261.147 279.475C261.565 281.305 261.547 282.322 261.086 282.978C260.601 283.673 259.474 284.111 257.539 284.357C252.085 285.059 246.995 285.31 242.406 285.1C239.153 284.954 237.388 284.554 236.847 283.842C236.696 283.639 236.542 283.306 236.726 282.522C237.072 281.038 239.217 280.239 240.368 279.811C240.617 279.716 240.829 279.639 240.988 279.57C241.442 279.37 241.934 278.975 242.559 278.475C243.451 277.763 244.558 276.874 245.811 276.407C246.644 276.089 247.367 276.71 248.569 277.819C249.525 278.701 250.606 279.7 252.07 280.205C254.189 280.938 256.621 280.708 258.126 279.636C259.051 278.975 259.561 278.032 259.561 276.976C259.561 276.651 259.299 276.392 258.976 276.392C258.654 276.392 258.392 276.653 258.392 276.976C258.392 277.663 258.074 278.237 257.446 278.685C256.255 279.534 254.202 279.705 252.452 279.101C251.221 278.673 250.235 277.763 249.363 276.958C248.126 275.813 246.957 274.741 245.404 275.31C243.974 275.841 242.785 276.794 241.826 277.56C241.314 277.97 240.829 278.36 240.519 278.496C240.373 278.56 240.181 278.632 239.958 278.716C238.602 279.221 236.076 280.159 235.586 282.258C235.363 283.214 235.471 283.962 235.912 284.549C236.709 285.602 238.574 286.1 242.349 286.271C243.41 286.32 244.499 286.346 245.614 286.346L245.617 286.348Z" fill="#0E2B5C"/>
<path d="M258.343 279.06C258.494 279.06 258.646 279.004 258.761 278.886C260.888 276.72 258.83 260.216 254.755 246.779C253.048 241.149 253.382 238.02 253.679 235.26C254.112 231.213 254.455 228.015 248.835 219.693C244.955 213.948 240.965 210.731 236.977 210.137C233.559 209.614 231.467 211.282 231.38 211.354C231.129 211.554 231.091 211.923 231.293 212.174C231.493 212.425 231.862 212.464 232.113 212.267C232.188 212.208 233.93 210.862 236.841 211.3C240.429 211.857 244.24 214.983 247.867 220.35C253.251 228.317 252.928 231.328 252.518 235.139C252.21 238.01 251.862 241.264 253.64 247.12C258.118 261.889 259.245 276.73 257.933 278.068C257.705 278.299 257.71 278.67 257.941 278.898C258.056 279.011 258.202 279.065 258.351 279.065L258.343 279.06Z" fill="#0E2B5C"/>
<path d="M242.027 278.742C242.057 278.742 242.091 278.742 242.121 278.734C242.442 278.683 242.657 278.381 242.606 278.06L236.642 241.902C236.596 241.615 236.409 241.387 236.053 241.413C235.94 241.413 235.573 241.372 235.386 241.185C235.327 241.128 235.251 241.023 235.251 240.785C235.251 239.593 235.374 238.499 235.374 238.486C235.397 238.284 235.312 238.084 235.153 237.958C234.994 237.833 234.779 237.799 234.589 237.871C234.6 237.866 234.528 237.881 234.438 237.82C234.336 237.751 234.082 237.502 233.944 236.649C233.705 235.19 233.956 234.826 233.959 234.821C234.243 234.683 234.305 234.383 234.172 234.096C234.044 233.817 233.672 233.73 233.385 233.832C233.436 233.783 233.19 233.612 232.924 232.825C232.639 231.995 232.801 231.669 232.88 231.62C233.129 231.538 233.27 231.308 233.257 231.046C233.244 230.785 233.039 230.572 232.783 230.513C232.803 230.513 232.373 230.265 232.201 228.955C232.016 227.566 233.203 227.11 233.252 227.092C233.446 227.02 233.587 226.851 233.623 226.646C233.659 226.446 233.587 226.239 233.434 226.103C233.459 226.103 233.195 225.557 233.195 223.496C233.195 220.816 232.206 212.195 232.165 211.828C232.127 211.505 231.84 211.275 231.517 211.313C231.196 211.351 230.966 211.641 231.002 211.961C231.012 212.051 232.027 220.882 232.027 223.496C232.027 224.732 232.116 225.672 232.293 226.282C231.604 226.751 230.848 227.674 231.037 229.109C231.176 230.16 231.483 230.78 231.783 231.141C231.778 231.151 231.773 231.162 231.768 231.172C231.514 231.684 231.529 232.364 231.811 233.196C232.063 233.942 232.373 234.445 232.747 234.724C232.642 235.175 232.619 235.844 232.78 236.833C232.947 237.845 233.308 238.522 233.862 238.84C233.956 238.893 234.054 238.935 234.149 238.965C234.113 239.419 234.074 240.077 234.074 240.78C234.074 241.274 234.243 241.705 234.564 242.018C234.869 242.317 235.251 242.456 235.553 242.522L241.445 278.245C241.493 278.529 241.74 278.734 242.021 278.734L242.027 278.742Z" fill="#0E2B5C"/>
<path d="M255.755 280.336C256.078 280.336 256.337 280.072 256.337 279.752C256.337 279.7 256.329 278.457 255.624 276.164C255.091 274.424 251.396 249.344 249.517 236.326C249.471 236.005 249.174 235.803 248.856 235.831C248.536 235.88 248.313 236.177 248.362 236.495C248.585 238.035 253.815 274.247 254.51 276.507C255.155 278.611 255.171 279.744 255.171 279.754C255.171 280.077 255.435 280.336 255.755 280.336Z" fill="#0E2B5C"/>
<path d="M252.252 280.259C252.549 280.259 252.805 280.034 252.833 279.729C253.146 276.382 245.591 238.642 245.268 237.038C245.207 236.72 244.889 236.505 244.579 236.579C244.263 236.643 244.056 236.951 244.12 237.266C246.834 250.805 251.903 277.079 251.667 279.619C251.637 279.941 251.875 280.226 252.195 280.257C252.216 280.257 252.234 280.257 252.252 280.257V280.259Z" fill="#0E2B5C"/>
<path d="M246.603 267.338C246.641 267.338 246.677 267.338 246.716 267.327C247.034 267.266 247.241 266.958 247.18 266.643L241.585 237.599C241.524 237.279 241.219 237.071 240.901 237.133C240.583 237.194 240.375 237.502 240.437 237.817L246.032 266.861C246.085 267.143 246.331 267.335 246.606 267.335L246.603 267.338Z" fill="#0E2B5C"/>
<path d="M243.687 267.774C243.725 267.774 243.764 267.774 243.802 267.763C244.118 267.702 244.325 267.394 244.264 267.076L238.462 237.851C238.397 237.533 238.085 237.315 237.772 237.392C237.457 237.453 237.249 237.761 237.311 238.079L243.113 267.305C243.169 267.584 243.413 267.776 243.687 267.776V267.774Z" fill="#0E2B5C"/>
<path d="M241.444 269.577C241.485 269.577 241.529 269.572 241.572 269.565L249.53 267.763C249.845 267.691 250.042 267.376 249.971 267.061C249.899 266.748 249.586 266.553 249.271 266.62L241.314 268.422C240.998 268.493 240.801 268.809 240.873 269.124C240.934 269.395 241.175 269.577 241.444 269.577Z" fill="#0E2B5C"/>
<path d="M232.831 234.75C232.831 234.75 238.243 234.504 241.788 234.317C245.319 234.132 252.854 233.025 253.174 232.976C253.494 232.93 253.715 232.633 253.669 232.315C253.62 231.992 253.336 231.772 253.005 231.82C252.928 231.831 245.206 232.966 241.729 233.148C238.187 233.335 232.782 233.581 232.782 233.581L232.833 234.75H232.831Z" fill="#0E2B5C"/>
<path d="M234.223 238.837C234.246 238.837 234.27 238.837 234.295 238.832C234.295 238.832 236.233 238.604 239.152 238.291C242.05 237.986 252.693 236.298 253.144 236.226C253.465 236.175 253.682 235.877 253.631 235.557C253.58 235.237 253.28 235.024 252.962 235.07C252.852 235.088 241.899 236.825 239.029 237.125C236.099 237.438 234.154 237.671 234.154 237.671C233.834 237.707 233.606 237.999 233.642 238.32C233.678 238.617 233.929 238.835 234.221 238.835L234.223 238.837Z" fill="#0E2B5C"/>
<path d="M232.306 230.964H232.347C232.347 230.964 233.278 230.898 241.491 230.275C249.615 229.66 252.724 229.299 252.755 229.296C253.075 229.26 253.306 228.971 253.267 228.648C253.229 228.327 252.947 228.071 252.616 228.135C252.586 228.135 249.495 228.496 241.402 229.109C233.209 229.729 232.271 229.796 232.265 229.796C231.943 229.819 231.699 230.101 231.722 230.421C231.743 230.729 232.001 230.964 232.304 230.964H232.306Z" fill="#0E2B5C"/>
<path d="M234.623 227.217C235.948 227.217 238.078 227.089 241.058 226.536C246.332 225.557 250.171 224.66 250.914 224.391C251.219 224.281 251.376 223.945 251.265 223.642C251.153 223.337 250.82 223.186 250.515 223.291C249.948 223.496 246.419 224.35 240.843 225.385C235.689 226.346 233.167 225.977 233.142 225.972C232.819 225.931 232.524 226.141 232.473 226.459C232.424 226.779 232.639 227.079 232.957 227.128C233.006 227.135 233.552 227.22 234.62 227.22L234.623 227.217Z" fill="#0E2B5C"/>
<path d="M242.193 226.203H242.229C242.552 226.182 242.798 225.905 242.777 225.582L241.985 212.707C241.967 212.384 241.691 212.143 241.365 212.159C241.042 212.179 240.796 212.456 240.817 212.779L241.609 225.654C241.626 225.964 241.885 226.203 242.193 226.203Z" fill="#0E2B5C"/>
<path d="M239.347 226.513H239.377C239.7 226.495 239.946 226.218 239.931 225.895L239.121 211.264C239.103 210.941 238.824 210.724 238.504 210.711C238.181 210.729 237.935 211.005 237.95 211.328L238.76 225.959C238.778 226.272 239.034 226.513 239.344 226.513H239.347Z" fill="#0E2B5C"/>
<path d="M236.57 226.961H236.594C236.916 226.948 237.168 226.677 237.155 226.354L236.527 210.608C236.514 210.285 236.245 210.073 235.92 210.047C235.597 210.06 235.345 210.331 235.358 210.654L235.986 226.4C235.999 226.715 236.258 226.961 236.57 226.961Z" fill="#0E2B5C"/>
<path d="M234.356 226.933C234.374 226.933 234.389 226.933 234.407 226.933C234.73 226.905 234.966 226.623 234.94 226.3L233.631 211.326C233.6 211 233.336 210.767 232.995 210.793C232.672 210.821 232.437 211.103 232.462 211.426L233.772 226.4C233.8 226.705 234.056 226.936 234.354 226.936L234.356 226.933Z" fill="#0E2B5C"/>
<path d="M246.042 225.467C246.065 225.467 246.088 225.467 246.114 225.462C246.434 225.424 246.665 225.134 246.627 224.811L245.517 215.59C245.476 215.27 245.171 215.034 244.866 215.08C244.546 215.119 244.315 215.408 244.354 215.731L245.463 224.952C245.499 225.249 245.753 225.467 246.042 225.467Z" fill="#0E2B5C"/>
<path d="M333.017 294.003C335.175 294.003 337.446 293.606 338.789 293.111C341.229 292.214 342.674 289.954 343.204 286.207C343.599 283.445 345.537 278.106 345.555 278.055C345.665 277.75 345.508 277.414 345.206 277.304C344.904 277.202 344.565 277.35 344.455 277.653C344.373 277.876 342.456 283.158 342.046 286.043C341.572 289.37 340.408 291.266 338.384 292.015C335.888 292.935 330.452 293.265 328.968 291.909C328.433 291.42 328.502 291.156 329.489 289.875C330.101 289.08 330.865 288.091 331.167 286.786C331.47 285.482 331.218 284.757 331.024 284.336C331.288 284.237 331.687 284.108 331.895 284.042C334.581 283.191 336.193 282.876 338.092 283.396C338.402 283.483 338.725 283.301 338.809 282.986C338.894 282.673 338.712 282.35 338.399 282.266C336.236 281.669 334.389 282.022 331.539 282.927C330.439 283.273 329.986 283.434 329.804 283.855C329.658 284.198 329.799 284.493 329.904 284.708C330.05 285.01 330.27 285.464 330.024 286.522C329.781 287.578 329.13 288.422 328.558 289.16C327.718 290.251 326.764 291.487 328.176 292.773C329.161 293.67 331.039 294.003 333.015 294.003H333.017Z" fill="#0E2B5C"/>
<path d="M333.643 292.096C334.998 292.096 336.469 291.876 337.774 291.182C341.398 289.252 343.002 282.368 343.002 281.966C343.002 281.64 342.741 281.382 342.418 281.382C342.095 281.382 341.856 281.62 341.833 281.92C341.718 282.701 340.168 288.58 337.223 290.149C334.104 291.807 329.555 290.279 329.512 290.264C329.207 290.154 328.873 290.321 328.768 290.628C328.663 290.933 328.825 291.266 329.13 291.371C329.26 291.417 331.275 292.096 333.643 292.096Z" fill="#0E2B5C"/>
<path d="M251.712 136.967C251.965 136.967 252.201 136.798 252.276 136.542L253.303 132.931C253.39 132.621 253.211 132.298 252.901 132.208C252.593 132.121 252.268 132.301 252.178 132.611L251.15 136.222C251.063 136.532 251.243 136.855 251.553 136.944C251.607 136.96 251.66 136.967 251.712 136.967Z" fill="#0E2B5C"/>
<path d="M252.227 150.488C252.268 150.488 252.306 150.488 252.344 150.488C253.405 150.45 254.231 149.927 254.61 149.048C255.325 147.395 255.315 143.19 255.312 142.715C255.312 142.482 255.169 142.27 254.953 142.18C254.738 142.095 254.487 142.139 254.32 142.3C253.787 142.821 252.68 143.602 252.001 143.479C251.927 143.466 251.781 143.361 251.609 143.102C250.92 142.082 250.468 139.691 250.73 138.456C250.986 137.244 251.627 136.319 251.934 136.288C251.993 136.298 252.278 136.424 252.606 137.17C253.674 139.614 252.675 142.029 252.665 142.054C252.539 142.352 252.678 142.695 252.975 142.821C253.27 142.941 253.616 142.808 253.741 142.51C253.79 142.393 254.946 139.602 253.677 136.701C253.185 135.576 252.557 135.048 251.814 135.125C250.538 135.255 249.797 137.205 249.584 138.215C249.277 139.671 249.702 142.121 250.471 143.489C250.235 143.541 250.046 143.733 250.01 143.984C249.874 145.004 249.464 148.41 249.976 149.399C250.315 150.053 251.227 150.491 252.224 150.491L252.227 150.488ZM254.128 143.943C254.085 145.481 253.933 147.667 253.539 148.579C253.275 149.192 252.652 149.304 252.306 149.315C251.637 149.33 251.125 149.058 251.019 148.853C250.799 148.428 250.907 146.208 251.148 144.322C251.353 144.486 251.568 144.586 251.799 144.627C252.626 144.766 253.482 144.366 254.131 143.94L254.128 143.943Z" fill="#0E2B5C"/>
<path d="M240.207 149.471C240.578 149.471 241.075 149.097 244.666 144.028C244.748 143.912 244.784 143.774 244.771 143.633C244.771 143.625 244.686 142.423 245.622 140.388C246.119 139.307 247.013 138.387 247.877 137.495C248.723 136.624 249.522 135.801 249.948 134.85C250.388 133.858 250.432 132.436 248.113 131.283C247.828 131.139 247.423 131.221 247.272 131.506C247.126 131.788 247.17 132.106 247.449 132.259C247.457 132.262 247.582 132.328 247.59 132.331C248.851 132.959 249.238 133.569 248.879 134.371C248.538 135.135 247.808 135.886 247.036 136.68C246.145 137.598 245.137 138.635 244.556 139.899C243.715 141.731 243.602 143.005 243.597 143.507C243.241 144.01 242.874 144.517 242.516 145.012C242.434 143.866 242.352 140.773 243.49 137.703C244.85 134.02 246.795 133.236 246.813 133.228C247.016 133.151 247.165 132.967 247.193 132.751C247.206 132.631 247.316 131.562 246.608 130.855C246.165 130.412 245.537 130.235 244.738 130.33C242.311 130.622 239.704 133.989 238.095 138.907C236.726 143.092 238.326 147.228 239.366 148.83C239.61 149.207 239.809 149.432 240.112 149.463C240.143 149.463 240.173 149.468 240.204 149.468L240.207 149.471ZM241.731 146.083C241.116 146.911 240.578 147.61 240.235 148.02C239.497 146.765 237.995 142.992 239.212 139.274C240.87 134.199 243.313 131.685 244.881 131.496C245.307 131.444 245.606 131.506 245.781 131.683C245.947 131.847 246.011 132.108 246.032 132.321C245.283 132.749 243.605 134.025 242.395 137.3C240.868 141.429 241.38 145.463 241.403 145.632C241.432 145.837 241.56 146.001 241.734 146.083H241.731Z" fill="#0E2B5C"/>
<path d="M242.044 139.11C242.27 139.11 242.485 138.976 242.58 138.756C242.708 138.461 242.572 138.115 242.275 137.987L241.06 137.459C240.896 137.387 240.776 137.331 240.686 137.285C240.606 137.077 240.412 136.926 240.176 136.911C239.889 136.87 239.525 137.113 239.458 137.39C239.317 137.972 239.937 138.243 240.594 138.53L241.811 139.058C241.885 139.092 241.967 139.107 242.044 139.107V139.11Z" fill="#0E2B5C"/>
<path d="M239.778 142.979C239.886 142.979 240.004 142.974 240.127 142.967C240.45 142.941 240.691 142.662 240.665 142.339C240.639 142.016 240.314 141.788 240.037 141.801C239.34 141.854 239.168 141.696 239.166 141.696C239.045 141.398 238.733 141.298 238.433 141.419C238.133 141.539 238.015 141.929 238.136 142.229C238.21 142.416 238.541 142.982 239.776 142.982L239.778 142.979Z" fill="#0E2B5C"/>
<path d="M242.175 140.939C242.221 140.939 242.27 140.932 242.319 140.922C242.583 140.855 242.757 140.619 242.759 140.363C242.78 140.271 242.921 139.789 243.751 138.351C244.492 137.075 245.443 136.07 245.978 135.558L246.706 136.347C246.924 136.583 247.293 136.598 247.534 136.378C247.772 136.157 247.785 135.788 247.565 135.55L246.442 134.335C246.232 134.107 245.878 134.084 245.64 134.281C245.571 134.338 243.931 135.706 242.739 137.764C241.47 139.96 241.563 140.324 241.606 140.499C241.673 140.763 241.911 140.939 242.175 140.939Z" fill="#0E2B5C"/>
<path d="M244.902 139.822C245.199 139.822 245.455 139.597 245.484 139.294C245.514 138.971 245.279 138.687 244.958 138.656L243.372 138.502C243.049 138.477 242.762 138.707 242.734 139.028C242.703 139.351 242.939 139.635 243.259 139.666L244.846 139.82C244.866 139.82 244.884 139.82 244.902 139.82V139.822Z" fill="#0E2B5C"/>
<path d="M244.902 143.556C245.125 143.556 245.34 143.428 245.437 143.21L247.426 138.764C247.557 138.469 247.426 138.123 247.131 137.99C246.836 137.859 246.49 137.99 246.357 138.284L244.369 142.731C244.238 143.025 244.369 143.371 244.663 143.505C244.74 143.538 244.822 143.556 244.902 143.556Z" fill="#0E2B5C"/>
<path d="M244.095 145.017C244.146 145.017 244.2 145.009 244.251 144.996L250.1 143.379C250.412 143.294 250.594 142.969 250.51 142.659C250.425 142.346 250.097 142.162 249.789 142.251L243.941 143.869C243.629 143.953 243.447 144.279 243.531 144.589C243.603 144.848 243.839 145.019 244.095 145.019V145.017Z" fill="#0E2B5C"/>
<path d="M223.039 195.885C223.124 195.885 223.206 195.87 223.285 195.831L231.309 192.1C231.396 192.059 231.473 191.998 231.532 191.921C231.817 191.539 238.505 182.536 239.705 178.884C240.886 175.278 251.147 144.246 251.147 144.246L250.035 143.876C250.035 143.876 239.774 174.912 238.592 178.517C237.524 181.775 231.483 190.016 230.681 191.101L223.29 194.537L222.575 193.228C223.959 190.286 236.153 164.197 240.389 150.012C240.481 149.702 240.304 149.376 239.997 149.284C239.682 149.187 239.361 149.368 239.269 149.676C234.823 164.563 221.524 192.715 221.391 192.997C221.312 193.166 221.317 193.366 221.407 193.53L222.526 195.58C222.632 195.775 222.831 195.885 223.042 195.885H223.039Z" fill="#0E2B5C"/>
<path d="M222.545 193.648C222.632 193.648 222.719 193.63 222.804 193.589L229.893 190.111C230.182 189.97 230.303 189.617 230.159 189.327C230.016 189.038 229.665 188.917 229.375 189.061L222.286 192.538C221.997 192.679 221.876 193.033 222.02 193.322C222.122 193.53 222.33 193.648 222.545 193.648Z" fill="#0E2B5C"/>
<path d="M230.505 191.593C230.61 191.593 230.715 191.564 230.81 191.508C231.087 191.339 231.174 190.98 231.007 190.703L230.336 189.599C231.066 188.517 233.457 184.696 236.65 176.736C240.4 167.39 249.246 144.438 249.336 144.207C249.451 143.905 249.303 143.566 249 143.451C248.7 143.331 248.36 143.484 248.244 143.787C248.155 144.017 239.31 166.962 235.564 176.303C231.855 185.547 229.195 189.194 229.167 189.227C229.026 189.419 229.013 189.678 229.136 189.881L230.005 191.311C230.115 191.49 230.307 191.593 230.505 191.593Z" fill="#0E2B5C"/>
<path d="M243.221 131.46C243.27 131.46 243.319 131.452 243.367 131.439C243.68 131.357 243.867 131.039 243.788 130.724C243.719 130.453 243.875 129.21 244.431 128.495C245.041 127.715 245.769 126.237 245.769 123.628C245.769 122.1 246.389 119.456 250.546 118.92L251.901 118.741C255.428 118.264 260.758 117.544 261.75 118.93C263.006 120.686 262.942 127.428 262.36 128.138C261.835 128.782 259.8 129.545 258.641 129.873C258.331 129.963 258.149 130.286 258.239 130.596C258.329 130.906 258.649 131.08 258.962 130.998C259.305 130.901 262.334 130.014 263.267 128.876C264.328 127.58 264.141 120.26 262.701 118.246C261.402 116.429 257.158 116.844 251.743 117.58L250.395 117.759C245.161 118.431 244.598 122.088 244.598 123.625C244.598 125.901 244.003 127.136 243.506 127.772C242.742 128.756 242.486 130.376 242.655 131.016C242.724 131.28 242.96 131.455 243.221 131.455V131.46Z" fill="#0E2B5C"/>
<path d="M253.225 134.202C253.781 134.202 254.763 134.058 256.101 133.315C258.069 132.218 259.202 130.873 259.25 130.814C259.458 130.565 259.422 130.196 259.176 129.991C258.93 129.784 258.561 129.815 258.353 130.066C258.343 130.076 257.303 131.309 255.534 132.293C253.917 133.192 253.005 133.018 252.997 133.015C252.687 132.956 252.372 133.141 252.3 133.454C252.226 133.764 252.408 134.074 252.715 134.153C252.761 134.164 252.936 134.205 253.23 134.205L253.225 134.202Z" fill="#0E2B5C"/>
<path d="M257.311 131.524C257.585 131.524 257.831 131.332 257.885 131.052C257.946 130.735 257.741 130.427 257.423 130.366C257.344 130.35 255.432 129.981 251.934 129.953C248.484 129.904 246.342 130.102 246.252 130.109C245.929 130.138 245.691 130.422 245.719 130.742C245.747 131.065 246.016 131.298 246.352 131.275C246.373 131.275 248.518 131.101 251.924 131.122C255.299 131.15 257.177 131.511 257.198 131.514C257.236 131.521 257.275 131.524 257.311 131.524Z" fill="#0E2B5C"/>
<path d="M243.582 129.937C243.664 129.937 243.744 129.92 243.823 129.886C243.874 129.863 248.99 127.593 255.363 127.139C261.186 126.739 261.921 128.584 261.926 128.602C262.032 128.9 262.36 129.074 262.652 128.982C262.952 128.889 263.131 128.592 263.051 128.287C262.977 128 262.116 125.483 255.279 125.97C248.687 126.439 243.557 128.72 243.341 128.818C243.047 128.951 242.916 129.297 243.047 129.591C243.144 129.809 243.357 129.937 243.58 129.937H243.582Z" fill="#0E2B5C"/>
<path d="M263.126 126.734C263.418 126.734 263.669 126.516 263.705 126.219C263.743 125.899 263.515 125.606 263.195 125.568L260.919 125.291L259.035 122.785L260.358 120.535L262.587 120.453C262.91 120.442 263.161 120.168 263.151 119.845C263.138 119.525 262.887 119.292 262.544 119.281L259.994 119.376C259.794 119.384 259.612 119.492 259.51 119.666L257.828 122.529C257.708 122.731 257.723 122.987 257.864 123.177L260.135 126.193C260.23 126.319 260.373 126.403 260.532 126.424L263.054 126.731C263.077 126.731 263.103 126.737 263.126 126.737V126.734Z" fill="#0E2B5C"/>
<path d="M245.583 126.019C245.657 126.019 245.734 126.004 245.809 125.973C245.839 125.96 248.853 124.712 252.354 124.017C255.839 123.325 258.292 123.405 258.312 123.407C258.615 123.42 258.907 123.167 258.92 122.844C258.93 122.521 258.679 122.249 258.356 122.236C258.253 122.229 255.755 122.149 252.123 122.867C248.502 123.584 245.483 124.837 245.355 124.891C245.058 125.017 244.917 125.358 245.04 125.658C245.135 125.883 245.352 126.019 245.58 126.019H245.583Z" fill="#0E2B5C"/>
<path d="M254.915 122.841H254.943C255.266 122.826 255.514 122.552 255.499 122.229L255.432 120.765C256.05 120.709 256.998 120.624 257.262 120.604C257.488 120.588 257.918 120.56 259.82 118.128C260.02 117.874 259.974 117.505 259.72 117.306C259.466 117.108 259.097 117.152 258.897 117.406C258.208 118.287 257.295 119.328 257.037 119.469C256.75 119.469 254.766 119.65 254.766 119.65C254.453 119.679 254.22 119.948 254.236 120.26L254.33 122.282C254.346 122.595 254.605 122.839 254.915 122.839V122.841Z" fill="#0E2B5C"/>
<path d="M250.189 124.182C250.502 124.182 250.761 123.936 250.773 123.62L250.825 122.308L252.555 120.348C252.767 120.107 252.744 119.735 252.503 119.522C252.262 119.31 251.891 119.33 251.678 119.574L249.81 121.688C249.72 121.788 249.669 121.919 249.664 122.052L249.602 123.574C249.589 123.897 249.841 124.169 250.164 124.182H250.187H250.189Z" fill="#0E2B5C"/>
<path d="M256.778 129.597C256.962 129.597 257.144 129.51 257.257 129.346C257.429 129.1 257.385 128.766 257.167 128.574C257.031 128.392 256.642 127.595 256.352 126.939C256.219 126.645 255.876 126.509 255.581 126.639C255.286 126.77 255.15 127.116 255.281 127.411C256.088 129.241 256.329 129.407 256.442 129.489C256.544 129.561 256.662 129.594 256.778 129.594V129.597Z" fill="#0E2B5C"/>
<path d="M252.085 130.158C252.173 130.158 252.265 130.137 252.347 130.094C252.636 129.95 252.754 129.599 252.608 129.31L251.706 127.506C251.56 127.216 251.206 127.098 250.922 127.244C250.632 127.388 250.514 127.739 250.66 128.028L251.563 129.833C251.665 130.038 251.87 130.158 252.085 130.158Z" fill="#0E2B5C"/>
<path d="M252.026 126.673C252.323 126.673 252.579 126.447 252.608 126.145C252.638 125.822 252.403 125.537 252.082 125.507L250.844 125.389L250.527 124.443C250.422 124.138 250.088 123.977 249.786 124.074C249.479 124.176 249.315 124.51 249.417 124.815L249.858 126.122C249.932 126.342 250.127 126.496 250.358 126.519L251.975 126.673C251.995 126.673 252.013 126.673 252.031 126.673H252.026Z" fill="#0E2B5C"/>
<path d="M284.145 176.88C284.273 176.88 284.401 176.839 284.509 176.754C284.763 176.554 284.804 176.185 284.604 175.932C280.283 170.473 279.263 162.072 279.253 161.988C279.217 161.667 278.917 161.414 278.605 161.475C278.284 161.511 278.054 161.801 278.089 162.123C278.13 162.48 279.156 170.932 283.686 176.657C283.802 176.803 283.974 176.877 284.145 176.877V176.88Z" fill="#0E2B5C"/>
<path d="M150.909 278.742C154.665 278.742 157.72 275.688 157.72 271.933C157.72 268.177 154.665 265.124 150.909 265.124C147.154 265.124 144.1 268.177 144.1 271.933C144.1 275.688 147.154 278.742 150.909 278.742ZM150.909 265.738C154.325 265.738 157.104 268.517 157.104 271.933C157.104 275.349 154.325 278.128 150.909 278.128C147.493 278.128 144.714 275.349 144.714 271.933C144.714 268.517 147.493 265.738 150.909 265.738Z" fill="#0E2B5C"/>
<path d="M156.378 273.742C156.411 273.742 156.443 273.737 156.475 273.726C156.637 273.672 156.724 273.498 156.671 273.338C156.537 272.934 156.372 272.54 156.182 272.163C156.105 272.012 155.918 271.951 155.768 272.028C155.618 272.105 155.557 272.289 155.634 272.441C155.81 272.79 155.964 273.156 156.088 273.531C156.131 273.66 156.251 273.742 156.38 273.742H156.378ZM154.899 271.072C154.969 271.072 155.037 271.049 155.095 271.001C155.226 270.892 155.245 270.698 155.136 270.568C154.864 270.241 154.567 269.933 154.252 269.652C154.127 269.538 153.932 269.546 153.817 269.676C153.704 269.802 153.715 269.996 153.842 270.111C154.134 270.372 154.409 270.657 154.662 270.962C154.722 271.034 154.81 271.072 154.899 271.072ZM152.549 269.121C152.657 269.121 152.762 269.063 152.818 268.962C152.9 268.813 152.847 268.625 152.699 268.543C152.327 268.337 151.936 268.157 151.542 268.009C151.383 267.948 151.205 268.029 151.146 268.189C151.087 268.348 151.168 268.526 151.326 268.585C151.694 268.722 152.055 268.889 152.4 269.081C152.447 269.108 152.498 269.12 152.549 269.12V269.121ZM145.429 268.691C145.468 268.691 145.507 268.683 145.545 268.669C145.91 268.52 146.288 268.399 146.67 268.306C146.836 268.267 146.937 268.1 146.897 267.936C146.857 267.77 146.693 267.665 146.526 267.71C146.114 267.81 145.706 267.94 145.313 268.099C145.156 268.164 145.08 268.343 145.143 268.5C145.192 268.62 145.308 268.693 145.429 268.693V268.691ZM149.649 268.158C149.801 268.158 149.933 268.045 149.953 267.89C149.975 267.722 149.857 267.567 149.688 267.546C149.308 267.496 148.923 267.47 148.541 267.47L148.422 267.779L148.484 268.086C148.887 268.111 149.256 268.108 149.608 268.156C149.622 268.157 149.635 268.158 149.649 268.158Z" fill="#0E2B5C"/>
<path d="M155.518 275.58C155.544 275.58 155.569 275.576 155.595 275.57C155.759 275.526 155.857 275.359 155.816 275.194C155.709 274.782 155.571 274.377 155.405 273.989C155.339 273.833 155.157 273.76 155.002 273.827C154.846 273.893 154.773 274.075 154.841 274.23C154.994 274.589 155.122 274.966 155.222 275.349C155.258 275.487 155.382 275.579 155.519 275.579L155.518 275.58ZM154.215 272.819C154.278 272.819 154.341 272.8 154.395 272.761C154.532 272.661 154.563 272.469 154.464 272.331C154.215 271.989 153.939 271.661 153.642 271.358C153.524 271.238 153.329 271.235 153.207 271.354C153.086 271.472 153.085 271.667 153.203 271.789C153.479 272.07 153.735 272.374 153.966 272.692C154.026 272.774 154.12 272.819 154.215 272.819ZM151.998 270.717C152.099 270.717 152.198 270.667 152.257 270.575C152.348 270.433 152.308 270.243 152.165 270.15C151.807 269.918 151.431 269.714 151.046 269.541C150.892 269.471 150.71 269.541 150.64 269.695C150.57 269.85 150.64 270.031 150.793 270.101C151.15 270.262 151.499 270.453 151.831 270.667C151.883 270.701 151.94 270.717 151.998 270.717ZM144.924 269.819C144.956 269.819 144.989 269.813 145.021 269.803C145.392 269.679 145.779 269.582 146.167 269.516C146.334 269.487 146.447 269.329 146.417 269.16C146.388 268.993 146.23 268.884 146.062 268.91C145.643 268.981 145.228 269.086 144.826 269.22C144.665 269.273 144.577 269.447 144.632 269.609C144.675 269.738 144.795 269.819 144.924 269.819ZM149.169 269.564C149.313 269.564 149.44 269.463 149.47 269.316C149.503 269.151 149.396 268.988 149.229 268.954C148.814 268.871 148.39 268.817 147.966 268.795C147.781 268.786 147.652 268.918 147.642 269.088C147.634 269.257 147.764 269.401 147.935 269.411C148.328 269.431 148.722 269.479 149.107 269.558C149.128 269.562 149.148 269.564 149.168 269.564H149.169Z" fill="#0E2B5C"/>
<path d="M209.545 280.712H155.083C155.083 280.712 159.064 279.132 160.643 276.352C162.223 273.572 162.475 269.276 161.465 268.96C160.454 268.644 160.012 269.402 159.948 270.287C159.885 271.171 160.012 274.773 159.38 276.036C158.748 277.3 154.831 281.533 150.092 280.459C145.354 279.385 141.563 275.721 142.384 270.603C143.206 265.485 147.312 262.2 152.935 263.59C158.558 264.98 159.439 268.072 158.685 272.94C157.93 277.809 153.007 281.082 148.07 278.311C143.134 275.539 143.205 271.235 144.09 268.771C144.974 266.306 151.924 263.716 154.957 265.801C157.99 267.886 158.432 268.96 157.8 272.246C157.168 275.531 148.386 280.396 145.985 279.448C143.584 278.501 133.349 276.416 129.432 275.657C125.515 274.899 121.787 272.814 120.018 270.919C118.249 269.023 121.85 266.56 123.43 264.917C125.009 263.274 126.083 264.601 127.41 265.422C128.737 266.244 141.12 270.414 141.31 271.172C141.5 271.93 134.803 269.213 132.844 268.455C130.885 267.697 125.152 265.72 124.631 265.043C124.109 264.367 123.493 261.884 120.713 260.305C117.933 258.726 110.604 256.009 109.846 256.388C109.088 256.767 106.771 261.632 106.223 263.906C105.676 266.181 105.929 266.497 107.256 266.749C108.582 267.002 110.997 266.433 112.85 266.854C114.704 267.275 118.579 270.056 118.607 269.241C118.635 268.427 115.883 266.181 113.244 266.181C110.604 266.181 106.757 265.788 106.645 265.984C106.532 266.181 103.331 270.028 102.91 269.157C102.489 268.287 98.5998 265.928 99.9267 263.97C101.254 262.011 108.33 255.883 108.267 255.63C108.204 255.377 103.339 253.166 102.201 251.586C101.064 250.007 97.0835 249.943 91.9027 252.029C86.7218 254.114 83.8156 257.42 84.1525 258.431C84.4893 259.442 79.2664 250.597 77.6661 244.278C76.0653 237.96 74.886 225.072 74.2963 225.493C73.7067 225.914 71.0111 229.62 70.0841 228.947C69.1575 228.273 64.6925 226.504 63.8501 224.734C63.0077 222.965 62.6287 222.755 62.0811 223.176C61.5335 223.597 57.9955 226.546 56.7741 228.61C55.5527 230.674 53.6991 237.876 53.194 239.056C52.6885 240.235 49.4873 244.784 49.1925 246.3C48.8977 247.816 48.3921 252.239 49.1925 252.745C49.9929 253.25 50.035 251.944 50.6246 249.333C51.2143 246.721 51.9306 246.132 52.1829 246.847C52.4357 247.563 51.1297 249.206 51.5932 250.091C52.0567 250.975 54.3309 252.112 53.6571 252.365C52.9833 252.618 49.6556 251.017 50.035 248.827C50.4139 246.637 50.2457 246.468 53.152 245.879C56.0582 245.289 55.9741 244.826 55.9321 243.309C55.89 241.793 56.7325 240.15 57.4062 238.465C58.08 236.781 61.9554 231.768 62.3343 230.757C62.7133 229.746 64.9037 229.409 66.7147 228.441C68.5258 227.472 62.966 224.313 63.6398 222.67C64.3136 221.027 68.3992 217.995 71.0531 215.678C73.7067 213.362 74.465 212.182 75.6023 212.73C76.7395 213.278 78.4244 215.973 78.7193 218.669C79.0141 221.365 79.9827 223.513 79.1828 222.965C78.3824 222.418 77.7927 217.448 76.6975 215.089C75.6023 212.73 76.0237 212.899 77.9189 211.551C79.8145 210.203 82.0045 207.971 82.6783 208.94C83.3521 209.908 85.0228 213.699 88.0836 214.064C91.1444 214.429 93.2786 212.772 93.1099 212.463C92.9413 212.154 90.3581 211.846 89.6281 211.312C88.8981 210.778 86.2305 206.482 86.427 205.19C86.6236 203.899 88.1398 203.196 87.3536 202.017C86.5673 200.838 85.2477 199.855 84.6297 200.866C84.0121 201.876 84.2087 204.011 85.1914 204.376C86.1742 204.741 86.9042 203.224 86.9326 202.887C86.9605 202.551 85.4163 200.922 85.2477 201.006C85.079 201.09 84.6301 201.624 84.8267 202.494C85.0232 203.365 85.697 203.561 84.6863 205.696C83.6756 207.83 83.1139 209.374 83.0856 208.307C83.0577 207.24 84.5739 205.443 84.3211 204.937C84.0683 204.432 79.1759 200.627 79.4561 196.366C79.8698 190.078 87.0377 188.215 91.271 189.226C95.5042 190.237 96.7046 192.069 96.1359 192.827C95.5673 193.585 92.1975 194.575 90.7234 195.67C89.2492 196.766 86.7218 200.725 86.5536 199.545C86.445 198.785 87.6506 196.552 89.1869 194.893C90.0328 193.98 90.9787 193.241 91.8606 193.016C94.3459 192.385 87.5222 198.365 85.2056 196.512C82.889 194.659 85.4163 190.531 87.2695 190.531C89.1226 190.531 92.2104 192.128 88.2801 193.648C84.3503 195.168 80.5299 195.796 82.7624 193.353C84.9949 190.91 90.1333 188.804 92.5344 190.152C94.9351 191.5 98.6839 195.628 98.0942 196.681C97.5045 197.734 93.1241 198.324 92.155 198.913C91.1864 199.503 91.734 201.441 91.2705 201.651C90.807 201.861 89.7964 201.188 89.3329 202.494C88.8694 203.799 88.1956 205.695 88.2166 204.22C88.2376 202.746 88.3642 202.009 88.3642 200.493C88.3642 198.977 90.6388 196.028 91.8602 195.691C93.0816 195.354 96.1776 194.301 97.041 195.354C97.9045 196.407 97.9676 197.839 98.389 200.071C98.81 202.304 97.968 204.284 97.8624 205.105C97.7573 205.926 98.1152 207.084 97.6938 207.969C97.2728 208.853 95.9668 211.254 95.0193 211.865C94.0717 212.475 92.7868 212.054 93.7979 211.444C94.8085 210.833 96.0407 209.896 96.4093 209.327C96.778 208.758 97.2728 206.958 97.5256 206.347C97.7783 205.736 99.0735 205.389 100.063 206.284C101.053 207.179 104.623 213.276 105.886 213.529C107.15 213.781 108.386 213.781 109.706 215.045C111.025 216.308 111.98 217.712 111.615 218.33C111.25 218.948 106.448 221.644 107.15 222.823C107.852 224.002 112.626 224.416 113.321 225.491C114.016 226.565 115.595 226.628 119.07 227.197C122.545 227.765 129.643 227.849 130.429 228.271C131.215 228.692 131.608 229.983 132.956 230.573C134.304 231.163 135.652 232.707 136.579 232.988C137.505 233.269 137.899 231.949 137.534 231.584C137.169 231.219 135.484 229.899 135.652 229.562C135.821 229.225 136.298 228.523 137.365 229.029C138.432 229.534 140.903 231.416 141.83 231.668C142.756 231.921 143.739 232.931 143.43 232.005C143.122 231.078 141.381 229.113 140.763 228.214C140.145 227.315 137.73 225.546 137 225.659C136.27 225.771 130.766 225.069 127.031 223.468C123.297 221.868 116.782 219.453 114.451 219.2C112.12 218.948 110.941 219.144 110.015 220.38C109.088 221.615 109.425 222.654 106.42 222.767C103.416 222.879 99.1478 221.91 99.0212 220.647C98.895 219.383 100.706 213.023 100.917 214.118C101.128 215.213 99.7795 221.11 98.9791 223.005C98.1787 224.901 100.327 229.197 100.243 231.808C100.158 234.42 102.012 238.404 100.706 238.707C99.4001 239.01 88.7441 234.125 89.0809 235.43C89.4178 236.736 101.043 239.01 101.591 239.769C102.138 240.527 103.402 244.402 102.854 245.876C102.306 247.35 99.4001 248.319 99.5267 248.656C99.6529 248.993 102.264 251.268 103.023 251.226C103.781 251.184 103.444 247.646 102.602 247.646C101.76 247.646 98.6843 249.078 96.3677 249.625C94.0511 250.173 87.1029 252.165 85.2056 254.68C83.3083 257.194 84.3632 261.587 85.9639 262.683C87.5647 263.778 100.929 268.909 101.549 268.622C102.168 268.335 110.267 257.439 110.057 256.913C109.846 256.386 107.993 255.144 107.024 255.522C106.056 255.901 98.4315 263.862 98.4315 264.578C98.4315 265.294 100.158 267.316 99.4847 267.442C98.8109 267.569 90.2182 263.315 90.2182 263.694C90.2182 264.073 91.0186 266.979 90.7658 267.695C90.5131 268.411 89.4603 270.096 89.9654 270.559C90.471 271.023 105.213 271.781 105.592 270.728C105.971 269.675 107.108 267.527 106.561 267.864C106.013 268.201 104.328 271.823 104.118 273.003C103.908 274.182 103.907 282.69 101.254 283.406C98.6002 284.122 96.5363 283.87 95.4832 283.406C94.43 282.943 92.9138 279.784 92.9138 278.52C92.9138 277.257 93.6296 275.235 93.4614 274.098C93.2927 272.961 91.9872 271.318 92.5348 271.318C93.0825 271.318 98.9791 271.865 100.833 271.907C102.686 271.949 103.697 274.645 103.065 277.467C102.433 280.289 101.633 282.353 99.5692 282.816C97.5054 283.28 96.7471 284.122 93.2511 285.007C89.7552 285.891 75.2237 288.629 74.4234 289.387C73.623 290.145 72.5277 288.924 71.8119 287.534C71.0961 286.144 70.8433 282.943 71.475 282.648C72.1067 282.353 80.8677 279.531 82.8053 278.31C84.743 277.088 86.8909 275.74 88.7865 275.277C90.6821 274.814 92.788 275.403 92.788 275.572C92.788 275.741 90.0925 275.741 88.8286 276.372C87.5651 277.004 82.1315 279.574 80.2359 280.121C78.3403 280.669 72.5363 283.795 71.854 283.533C71.1716 283.271 70.548 283.617 70.506 285.049C70.4639 286.481 72.1488 289.43 71.896 290.019C71.6433 290.609 68.4421 293.642 67.4735 297.011C66.5049 300.381 65.7466 302.403 64.7779 300.844C63.8093 299.286 63.051 294.821 63.6407 292.588C64.2303 290.356 64.5252 288.924 63.8514 287.534C63.1776 286.144 62.4613 282.185 64.0621 281.722C65.6629 281.258 66.5894 279.995 66.1259 279.574C65.6624 279.153 0.950012 279.574 0.950012 279.574" stroke="#0E2B5C" stroke-width="1.2" stroke-miterlimit="10"/>
<path d="M408.879 294.307C408.879 294.307 473.558 294.466 483.004 293.972C484.576 293.889 485.55 293.694 486.064 292.52C486.798 290.843 485.819 291.186 487.947 290.578C490.155 289.947 494.293 287.36 491.045 285.777C490.298 285.413 490.38 283.442 490.432 282.063C490.546 279.027 490.069 281.885 488.979 281.422C488.058 281.031 487.109 279.887 485.797 279.413C483.631 278.629 482.984 279.546 483.916 277.077C486.85 269.31 487.931 261.514 490.146 253.626C491.816 247.677 494.569 243.937 497.028 239.902C499.615 235.657 500.913 231.814 502.48 227.294C503.352 224.782 506.593 225.179 508.75 226.06C509.775 226.479 511.57 227.319 513.056 228.186C516.375 230.121 516.92 235.003 519.289 232.459C519.93 231.769 520.676 230.832 521.251 229.968C522.335 228.334 523.548 225.329 524.541 223.415C525.322 221.908 525.49 219.618 524.764 220.624C524.18 221.433 525.26 224.34 525.849 225.909C526.209 226.869 527.977 233.754 528.911 237.108C529.568 239.468 529.667 239.386 532.677 239.493C533.366 239.517 540.751 240.267 543.46 240.35C544.606 240.386 545.713 240.14 546.834 240.045C548.588 239.897 549.083 242.231 549.533 244.078C550.106 246.435 551.513 248.907 552.304 251.333C553.04 253.589 552.911 255.543 552.54 257.569C552.331 258.707 551.236 262.829 550.837 264.688C550.528 266.132 551.193 266.863 549.354 267.476C548.182 267.867 547.428 268.174 546.423 268.146C545.153 268.111 544.699 269.838 544.668 271.292C544.6 274.401 546.634 273.849 548.311 275.05C548.556 275.227 548.796 275.441 549.019 275.711C549.186 275.912 549.326 276.098 549.45 276.267C551.035 278.432 554.347 278.836 556.89 278.921C559.487 279.008 558.213 273.562 555.69 272.25C554.294 271.524 553.205 269.43 552.787 268.565C552.581 268.138 552.555 267.99 552.296 267.686C551.447 266.694 549.429 268.005 547.916 268.285C547.086 268.439 545.46 269.074 545.46 267.643C545.46 267.252 545.892 265.466 545.934 264.726C546.058 262.549 544.714 260.21 544.024 257.199C543.527 255.033 542.872 252.967 542.309 251.086C541.42 248.117 540.877 245.073 540.001 242.129C539.694 241.096 539.317 240.803 540.155 240.705C542.021 240.487 548.073 241.933 548.184 239.129C548.229 237.977 548.19 235.776 547.929 235.065C547.43 233.703 543.224 216.986 542.876 215.442C542.374 213.209 542.095 212.315 539.75 213.153C537.405 213.99 525.598 214.52 523.085 214.381C520.045 214.213 510.243 214.255 510.391 209.985C510.426 208.965 510.689 207.811 510.948 206.289C512.324 198.209 508.155 194.761 505.165 188.845C504.623 187.772 503.125 184.568 503.404 182.223C503.936 177.751 502.619 178.51 501.396 177.953C500.294 177.452 499.676 175.526 498.912 177.826C498.751 178.313 498.586 178.969 498.54 179.713C498.473 180.77 499.097 183.235 499.839 185.055C500.943 187.762 502.224 189.367 503.383 192.167C505.557 197.424 503.809 204.501 505.943 208.476C506.692 209.87 507.088 210.81 507.367 211.474C508.023 213.034 509.303 214.095 509.656 211.715C509.743 211.126 509.983 209.261 510.15 207.808C510.32 206.337 510.533 203.594 510.402 201.729C510.348 200.94 509.998 199.652 509.579 198.438C508.535 195.408 506.873 193.876 505.732 191.365C505.642 191.165 504.367 188.512 503.763 187.009C503.185 185.573 502.885 183.079 502.885 181.567C502.885 180.056 502.923 179.071 504.755 179.307C505.844 179.447 508.384 179.558 509.752 178.553C513.033 176.142 514.534 179.294 518.461 175.203C519.972 173.63 523.658 167.499 519.299 167.499C518.461 167.499 517.589 167.513 516.84 167.469C515.636 167.4 514.189 166.629 513.106 165.652C511.105 163.845 510.448 160.25 509.178 158.013C507.803 155.593 503.216 154.567 499.402 155.18C492.713 156.253 490.018 166.126 493.616 169.982C495.179 171.657 496.17 172.104 497.147 171.378C498.124 170.652 498.096 169.368 499.91 168.363C500.418 168.082 503.868 166.431 506.597 165.131C508.124 164.403 509.869 162.823 511.014 164.176C511.506 164.756 511.73 165.559 511.494 166.103C511.131 166.94 510.238 167.889 509.372 167.024C508.507 166.158 508.004 165.377 508.647 164.568C509.289 163.758 509.819 160.883 509.009 159.347C507.072 155.672 501.377 154.807 497.383 156.581C492.546 158.729 491.747 167.109 493.962 169.675C495.224 171.135 496.13 170.141 496.583 172.419C496.94 174.217 498.318 173.221 499.071 173.89C499.322 174.113 500.243 174.825 500.48 175.509C500.718 176.193 500.48 176.458 501.08 176.919C501.68 177.38 502.043 176.989 502.587 176.989C503.132 176.989 503.258 177.533 503.438 177.839C503.62 178.146 503.955 178.244 504.346 177.923C504.737 177.602 505.225 176.723 505.602 177.225C505.979 177.727 504.569 178.425 505.141 178.621C505.898 178.88 507.039 178.746 507.984 178.382C510.255 177.509 511.586 172.791 511.94 170.608C512.414 167.68 510.939 171.268 510.613 174.078C510.099 178.515 514.336 177.156 516.767 175.591C521.093 172.804 519.857 167.188 522.07 167.188C522.983 167.188 525.615 167.28 525.658 168.502C525.667 168.763 525.632 169.098 525.55 169.53M525.558 169.422C525.502 170.07 525.137 171.606 525.16 173.069C525.218 176.872 527.115 184.273 529.411 186.896C532.724 190.683 534.938 187.919 534.938 184.608C534.938 182.877 533.431 180.365 536.277 181.481C540.128 182.991 547.848 186.947 553.559 189.554C558.444 191.783 570.402 194.3 574.252 196.227C576.384 197.295 576.81 198.264 577.171 200.491C577.503 202.538 578.324 203.766 578.4 205.469C578.521 208.187 575.952 211.385 573.654 212.466C570.807 213.806 567.625 213.806 565.001 212.912C562.377 212.019 560.534 209.897 559.641 207.553C559.076 206.07 558.969 204.944 559.022 204.233C559.135 202.752 560.09 203.267 561.371 203.338C561.823 203.363 572.208 203.953 574.741 203.99C576.307 204.013 575.559 201.247 574.784 200.689C573.67 199.887 570.018 198.558 568.432 198.286C566.646 197.979 565.138 197.56 564.412 197.56C563.21 197.56 563.466 197.068 564.586 197.163C565.024 197.2 565.498 197.279 565.696 197.295C565.986 197.318 570 198.029 572.298 198.75C572.758 198.894 573.305 199.105 573.825 199.382C576.944 201.046 577.101 205.595 574.545 207.928C573.261 209.101 568.962 210.44 567.761 210.747C566.561 211.054 564.83 210.789 564.188 210.789C563.546 210.789 562.653 210.565 562.89 210.314C563.006 210.193 563.295 210.222 563.656 210.283C565.138 210.534 567.647 210.197 569.472 209.715C570.913 209.335 573.94 208.102 574.67 206.992C575.754 205.342 576.32 204.313 574.014 204.313C573.847 204.313 566.77 204.075 566.77 204.075C566.77 204.075 560.796 203.852 560.266 203.838C559.736 203.824 559.289 203.419 559.359 202.764C559.428 202.107 561.327 196.413 565.877 195.324C569.284 194.509 572.957 196.088 574.857 197.378C576.989 198.825 576.576 200.2 576.934 201.7C577.19 202.772 577.722 203.844 577.909 204.957C578.125 206.243 577.349 208.437 576.625 209.392C576.276 209.853 575.801 210.229 575.62 210.634C574.736 212.605 575.584 212.803 576.318 211.471C576.694 210.787 577.857 210.243 576.806 210.522C576.308 210.654 576.011 211.764 576.276 212.393C576.541 213.021 576.848 212.672 577.211 212.309C577.574 211.947 578.509 210.258 578.691 209.532C578.872 208.806 578.532 207.622 578.313 208.415C578.174 208.922 578.543 209.305 578.991 209.389C579.881 209.555 580.507 208.596 580.617 207.801C580.728 206.992 580.505 206.21 580.393 205.513C580.281 204.815 580.278 203.494 579.947 204.34C579.768 204.796 579.977 205.448 580.253 205.914C580.859 206.94 581.271 206.34 581.5 205.6C582.281 203.067 580.72 197.829 579.45 195.455M579.472 195.492C579.472 195.492 578.993 194.644 577.843 193.847C573.993 191.181 568.188 187.594 562.902 185.045C557.544 182.461 535.363 170.084 528.252 168.678C527.521 168.534 527.219 168.744 526.779 169.046C525.074 170.217 526.522 177.239 527.544 181.017C527.844 182.126 531.664 191.435 533.497 187.368C534.044 186.156 535.019 185.399 535.355 187.154C535.837 189.666 537.224 197.67 538.382 199.986C539.506 202.235 541.26 208.24 541.547 210.705C541.77 212.618 540.171 212.696 538.549 212.798C538.103 212.825 528.361 213.747 528.361 213.747C528.361 213.747 520.945 213.77 517.974 213.5C515.392 213.265 511.736 211.05 510.035 213.318C508.302 215.629 504.899 221.948 504.354 223.014C503.712 224.27 504.326 224.885 505.498 224.968C508.335 225.171 517.015 227.206 513.617 231.463C512.674 232.643 511.144 234.467 509.902 236.064C503.796 243.912 502.664 249.054 498.547 257.124C497.151 259.859 492.182 270.355 492.126 270.689C492.07 271.024 489.614 276.439 489.697 277.946C489.781 279.454 490.312 280.236 489.363 280.291C487.409 280.406 484.667 276.343 482.465 280.047C481.449 281.754 479.695 285.402 478.587 286.823C477.928 287.668 477.116 288.3 476.445 288.904C474.188 290.939 473.498 294.573 478.008 294.665C494.562 295.004 601.919 294.888 601.919 294.888" stroke="#0E2B5C" stroke-width="1.2" stroke-miterlimit="2.61"/>
</svg>
