<svg width="417" height="406" viewBox="0 0 417 406" fill="none" xmlns="http://www.w3.org/2000/svg">
<path d="M361.118 404.646C361.118 404.646 441.051 295.226 391.534 211.128C342.017 127.029 243.629 184.742 224.904 106.263C206.179 27.7849 118.093 16.151 53.256 114.291C-11.5815 212.431 14.7164 347.436 49.047 404.395L361.118 404.646Z" fill="#3C94F8" fill-opacity="0.1"/>
<path d="M339.133 130.402C339.133 130.402 342.357 121.116 352.007 120.877C361.657 120.638 358.246 126.586 368.354 125.639C378.462 124.693 374.791 113.254 390.639 110.862C406.487 108.471 413.174 130.402 413.174 130.402H339.133Z" fill="white"/>
<path d="M0 40.3575C0 40.3575 2.15259 34.1181 8.58958 33.9933C15.0266 33.8685 12.7492 37.8098 19.4981 37.1754C26.2471 36.5411 23.7929 28.8562 34.3687 27.3172C44.9445 25.7781 49.4057 40.3575 49.4057 40.3575H0Z" fill="white"/>
<path d="M250.494 0.227539H103.067C86.716 0.227539 73.4609 13.4826 73.4609 29.8335V375.725C73.4609 392.076 86.716 405.331 103.067 405.331H250.494C266.844 405.331 280.1 392.076 280.1 375.725V29.8335C280.1 13.4826 266.844 0.227539 250.494 0.227539Z" fill="#E5EDFD"/>
<path d="M250.494 10.3666C255.656 10.3693 260.606 12.4212 264.256 16.0713C267.906 19.7215 269.958 24.6714 269.96 29.8335V375.767C269.955 380.928 267.902 385.876 264.253 389.526C260.603 393.175 255.655 395.228 250.494 395.234H103.067C97.9056 395.228 92.9573 393.175 89.3078 389.526C85.6582 385.876 83.6055 380.928 83.6 375.767V29.8335C83.6055 24.6722 85.6582 19.7239 89.3078 16.0744C92.9573 12.4248 97.9056 10.3721 103.067 10.3666H250.494ZM250.494 0.227541H103.067C95.2149 0.227541 87.6845 3.34673 82.1323 8.89893C76.5801 14.4511 73.4609 21.9815 73.4609 29.8335V375.767C73.4637 383.617 76.5841 391.145 82.136 396.695C87.6879 402.245 95.2167 405.362 103.067 405.362H250.494C254.381 405.364 258.231 404.599 261.822 403.112C265.414 401.626 268.678 399.446 271.427 396.698C274.177 393.949 276.358 390.686 277.846 387.095C279.334 383.504 280.1 379.654 280.1 375.767V29.8335C280.101 25.9452 279.336 22.0948 277.849 18.5022C276.361 14.9096 274.181 11.6453 271.431 8.89588C268.682 6.14644 265.417 3.96573 261.825 2.47838C258.232 0.991024 254.382 0.226174 250.494 0.227541Z" fill="#060000"/>
<path d="M222.906 1.24683H130.656V11.9786C130.656 14.2622 131.563 16.4523 133.178 18.0671C134.793 19.6818 136.983 20.589 139.267 20.589H214.295C216.579 20.589 218.769 19.6818 220.384 18.0671C221.999 16.4523 222.906 14.2622 222.906 11.9786V1.24683Z" fill="#060000"/>
<path d="M159.602 9.28516H194.979" stroke="white" stroke-width="0.76" stroke-linecap="round" stroke-linejoin="round"/>
<path d="M213.614 256.334H108.262C103.708 256.334 100.016 260.026 100.016 264.581V352.577C100.016 357.131 103.708 360.823 108.262 360.823H213.614C218.169 360.823 221.861 357.131 221.861 352.577V264.581C221.861 260.026 218.169 256.334 213.614 256.334Z" fill="#9BBDF9"/>
<path d="M144.557 270.955H120.338C118.529 270.955 117.062 272.422 117.062 274.231V298.45C117.062 300.259 118.529 301.726 120.338 301.726H144.557C146.367 301.726 147.833 300.259 147.833 298.45V274.231C147.833 272.422 146.367 270.955 144.557 270.955Z" fill="white"/>
<path d="M158.328 280.668H186.145" stroke="black" stroke-width="1.3" stroke-linecap="round" stroke-linejoin="round"/>
<path d="M158.328 290.568H203.179" stroke="black" stroke-width="1.3" stroke-linecap="round" stroke-linejoin="round"/>
<path d="M117.062 314.538H147.823" stroke="white" stroke-width="1.3" stroke-linecap="round" stroke-linejoin="round"/>
<path d="M117.062 324.76H203.177" stroke="white" stroke-width="1.3" stroke-linecap="round" stroke-linejoin="round"/>
<path d="M117.062 336.022H203.177" stroke="white" stroke-width="1.3" stroke-linecap="round" stroke-linejoin="round"/>
<path d="M54.3661 106.161C57.5291 92.9041 49.3467 79.5934 36.0902 76.4304C22.8337 73.2673 9.52303 81.4497 6.36 94.7062C3.19696 107.963 11.3793 121.273 24.6358 124.436C37.8923 127.599 51.203 119.417 54.3661 106.161Z" fill="#E66C00"/>
<path d="M20.4219 101.608L28.1691 107.348L41.4383 93.5796" stroke="white" stroke-width="2.14" stroke-linecap="round" stroke-linejoin="round"/>
<g filter="url(#filter0_d_2702_3289)">
<path d="M126.752 165.811H44.1315C41.1507 165.811 38.7344 168.227 38.7344 171.208V228.767C38.7344 231.747 41.1507 234.164 44.1315 234.164H126.752C129.732 234.164 132.149 231.747 132.149 228.767V171.208C132.149 168.227 129.732 165.811 126.752 165.811Z" fill="white"/>
</g>
<path d="M88.0188 175.075L96.1751 175.066L82.4911 188.743L78.9248 192.289L74.8672 188.227L88.0188 175.075ZM87.9429 187.287C88.0488 187.147 88.2435 187.216 88.3914 187.198L96.1681 187.2L89.0804 194.281L85.0018 190.227L87.9429 187.287Z" fill="#44D1FD"/>
<path d="M80.9297 194.287L84.9953 190.227L89.074 194.28L89.091 194.298L84.9964 198.355L80.9297 194.287Z" fill="#1FBCFD"/>
<path d="M85 198.355L89.0946 194.299L96.1682 201.379C93.5038 201.385 90.8402 201.377 88.1768 201.383C88.025 201.417 87.9312 201.278 87.8342 201.192L85 198.355Z" fill="#08589C"/>
<path d="M342.952 204.206L363.456 204.183L329.056 238.565L320.091 247.48L309.891 237.267L342.952 204.206ZM342.761 234.904C343.027 234.553 343.517 234.726 343.888 234.681L363.438 234.686L345.621 252.486L335.367 242.296L342.761 234.904Z" fill="#44D1FD"/>
<path d="M325.125 252.503L335.345 242.295L345.599 252.485L345.641 252.531L335.348 262.728L325.125 252.503Z" fill="#1FBCFD"/>
<path d="M335.359 262.728L345.653 252.531L363.435 270.33C356.737 270.345 350.041 270.325 343.345 270.34C342.964 270.426 342.728 270.077 342.484 269.861L335.359 262.728Z" fill="#08589C"/>
<path d="M52.8315 221.423V212.914H58.2826V214.206H54.3729V216.516H57.9087V217.808H54.3729V221.423H52.8315ZM61.1245 212.914V221.423H59.6205V212.914H61.1245ZM66.7387 218.739V215.041H68.2428V221.423H66.7844V220.288H66.7179C66.5739 220.646 66.3371 220.938 66.0075 221.165C65.6806 221.392 65.2776 221.506 64.7984 221.506C64.3802 221.506 64.0104 221.413 63.6891 221.227C63.3705 221.039 63.1212 220.766 62.9412 220.409C62.7612 220.049 62.6711 219.614 62.6711 219.104V215.041H64.1752V218.872C64.1752 219.276 64.286 219.597 64.5076 219.835C64.7292 220.074 65.02 220.193 65.3801 220.193C65.6017 220.193 65.8163 220.139 66.0241 220.031C66.2318 219.923 66.4022 219.762 66.5351 219.549C66.6709 219.333 66.7387 219.063 66.7387 218.739ZM72.9762 215.041V216.204H69.3074V215.041H72.9762ZM70.2132 213.512H71.7172V219.503C71.7172 219.705 71.7477 219.86 71.8086 219.968C71.8724 220.074 71.9555 220.146 72.0579 220.184C72.1604 220.223 72.274 220.243 72.3986 220.243C72.4928 220.243 72.5787 220.236 72.6562 220.222C72.7366 220.208 72.7975 220.196 72.839 220.184L73.0925 221.36C73.0122 221.388 72.8972 221.418 72.7476 221.452C72.6008 221.485 72.4208 221.504 72.2075 221.51C71.8308 221.521 71.4915 221.464 71.1896 221.34C70.8877 221.212 70.6481 221.015 70.4708 220.75C70.2963 220.484 70.2104 220.151 70.2132 219.752V213.512ZM77.4208 215.041V216.204H73.7521V215.041H77.4208ZM74.6578 213.512H76.1619V219.503C76.1619 219.705 76.1923 219.86 76.2533 219.968C76.317 220.074 76.4001 220.146 76.5026 220.184C76.6051 220.223 76.7186 220.243 76.8433 220.243C76.9374 220.243 77.0233 220.236 77.1009 220.222C77.1812 220.208 77.2421 220.196 77.2837 220.184L77.5371 221.36C77.4568 221.388 77.3418 221.418 77.1923 221.452C77.0455 221.485 76.8654 221.504 76.6521 221.51C76.2754 221.521 75.9361 221.464 75.6342 221.34C75.3323 221.212 75.0927 221.015 74.9154 220.75C74.7409 220.484 74.6551 220.151 74.6578 219.752V213.512ZM81.4354 221.547C80.7955 221.547 80.243 221.414 79.7776 221.148C79.315 220.88 78.9591 220.5 78.7098 220.01C78.4605 219.517 78.3359 218.937 78.3359 218.269C78.3359 217.613 78.4605 217.036 78.7098 216.541C78.9619 216.042 79.3137 215.654 79.7651 215.377C80.2166 215.098 80.7471 214.958 81.3564 214.958C81.7498 214.958 82.1209 215.021 82.4699 215.149C82.8217 215.273 83.1319 215.467 83.4006 215.73C83.6721 215.994 83.8854 216.329 84.0405 216.736C84.1956 217.14 84.2731 217.622 84.2731 218.182V218.643H79.0422V217.629H82.8314C82.8286 217.341 82.7663 217.085 82.6444 216.861C82.5226 216.633 82.3522 216.455 82.1334 216.325C81.9173 216.194 81.6653 216.129 81.3772 216.129C81.0698 216.129 80.7997 216.204 80.567 216.354C80.3344 216.501 80.1529 216.694 80.0227 216.935C79.8953 217.174 79.8302 217.435 79.8275 217.721V218.606C79.8275 218.977 79.8953 219.295 80.0311 219.561C80.1668 219.824 80.3565 220.027 80.6003 220.168C80.844 220.306 81.1293 220.376 81.4562 220.376C81.675 220.376 81.873 220.345 82.0503 220.284C82.2276 220.22 82.3813 220.128 82.5115 220.006C82.6417 219.884 82.74 219.733 82.8065 219.553L84.2108 219.711C84.1222 220.082 83.9532 220.406 83.7039 220.683C83.4574 220.957 83.1416 221.171 82.7566 221.323C82.3716 221.472 81.9312 221.547 81.4354 221.547ZM85.5456 221.423V215.041H87.0039V216.104H87.0704C87.1867 215.736 87.3861 215.452 87.6687 215.253C87.954 215.05 88.2794 214.949 88.6451 214.949C88.7282 214.949 88.8209 214.954 88.9234 214.962C89.0287 214.967 89.1159 214.977 89.1852 214.991V216.374C89.1215 216.352 89.0204 216.333 88.8819 216.316C88.7462 216.297 88.6146 216.287 88.4872 216.287C88.213 216.287 87.9664 216.347 87.7476 216.466C87.5316 216.582 87.3612 216.744 87.2366 216.952C87.1119 217.16 87.0496 217.399 87.0496 217.671V221.423H85.5456ZM94.2458 221.423H92.6005L95.5961 212.914H97.499L100.499 221.423H98.8535L96.5808 214.659H96.5143L94.2458 221.423ZM94.2998 218.086H98.787V219.324H94.2998V218.086ZM101.553 223.816V215.041H103.032V216.096H103.119C103.197 215.941 103.306 215.776 103.448 215.602C103.589 215.424 103.78 215.273 104.021 215.149C104.262 215.021 104.569 214.958 104.943 214.958C105.436 214.958 105.881 215.084 106.277 215.336C106.676 215.585 106.992 215.955 107.224 216.445C107.46 216.933 107.578 217.531 107.578 218.24C107.578 218.941 107.463 219.536 107.233 220.027C107.003 220.517 106.69 220.891 106.294 221.148C105.898 221.406 105.449 221.535 104.948 221.535C104.582 221.535 104.279 221.474 104.038 221.352C103.797 221.23 103.603 221.083 103.456 220.912C103.312 220.737 103.2 220.572 103.119 220.417H103.057V223.816H101.553ZM103.028 218.232C103.028 218.644 103.086 219.006 103.203 219.316C103.322 219.626 103.492 219.869 103.714 220.043C103.938 220.215 104.209 220.301 104.528 220.301C104.86 220.301 105.139 220.212 105.363 220.035C105.587 219.855 105.756 219.61 105.87 219.299C105.986 218.986 106.044 218.631 106.044 218.232C106.044 217.836 105.988 217.484 105.874 217.176C105.761 216.869 105.592 216.628 105.367 216.453C105.143 216.279 104.863 216.192 104.528 216.192C104.207 216.192 103.934 216.276 103.709 216.445C103.485 216.614 103.315 216.851 103.198 217.156C103.085 217.46 103.028 217.819 103.028 218.232ZM108.866 223.816V215.041H110.345V216.096H110.432C110.509 215.941 110.619 215.776 110.76 215.602C110.901 215.424 111.093 215.273 111.334 215.149C111.575 215.021 111.882 214.958 112.256 214.958C112.749 214.958 113.194 215.084 113.59 215.336C113.988 215.585 114.304 215.955 114.537 216.445C114.772 216.933 114.89 217.531 114.89 218.24C114.89 218.941 114.775 219.536 114.545 220.027C114.315 220.517 114.002 220.891 113.606 221.148C113.21 221.406 112.761 221.535 112.26 221.535C111.894 221.535 111.591 221.474 111.35 221.352C111.109 221.23 110.915 221.083 110.768 220.912C110.624 220.737 110.512 220.572 110.432 220.417H110.37V223.816H108.866ZM110.341 218.232C110.341 218.644 110.399 219.006 110.515 219.316C110.634 219.626 110.804 219.869 111.026 220.043C111.25 220.215 111.522 220.301 111.84 220.301C112.173 220.301 112.451 220.212 112.676 220.035C112.9 219.855 113.069 219.61 113.182 219.299C113.299 218.986 113.357 218.631 113.357 218.232C113.357 217.836 113.3 217.484 113.187 217.176C113.073 216.869 112.904 216.628 112.68 216.453C112.455 216.279 112.176 216.192 111.84 216.192C111.519 216.192 111.246 216.276 111.022 216.445C110.798 216.614 110.627 216.851 110.511 217.156C110.397 217.46 110.341 217.819 110.341 218.232Z" fill="black"/>
<path d="M247.991 51.2661H105.504C100.95 51.2661 97.2578 54.9582 97.2578 59.5125V147.509C97.2578 152.063 100.95 155.755 105.504 155.755H247.991C252.546 155.755 256.238 152.063 256.238 147.509V59.5125C256.238 54.9582 252.546 51.2661 247.991 51.2661Z" fill="white"/>
<path d="M134.441 76.1716H113.206C111.621 76.1716 110.336 77.4566 110.336 79.0418V100.277C110.336 101.862 111.621 103.147 113.206 103.147H134.441C136.026 103.147 137.311 101.862 137.311 100.277V79.0418C137.311 77.4566 136.026 76.1716 134.441 76.1716Z" fill="#9BBDF9"/>
<path d="M168.808 76.1716H147.573C145.988 76.1716 144.703 77.4566 144.703 79.0418V100.277C144.703 101.862 145.988 103.147 147.573 103.147H168.808C170.393 103.147 171.678 101.862 171.678 100.277V79.0418C171.678 77.4566 170.393 76.1716 168.808 76.1716Z" fill="#9BBDF9"/>
<path d="M203.175 76.1716H181.94C180.355 76.1716 179.07 77.4566 179.07 79.0418V100.277C179.07 101.862 180.355 103.147 181.94 103.147H203.175C204.76 103.147 206.045 101.862 206.045 100.277V79.0418C206.045 77.4566 204.76 76.1716 203.175 76.1716Z" fill="#9BBDF9"/>
<path d="M237.542 76.1716H216.308C214.722 76.1716 213.438 77.4566 213.438 79.0418V100.277C213.438 101.862 214.722 103.147 216.308 103.147H237.542C239.128 103.147 240.413 101.862 240.413 100.277V79.0418C240.413 77.4566 239.128 76.1716 237.542 76.1716Z" fill="#DC761C"/>
<path d="M134.441 112.568H113.206C111.621 112.568 110.336 113.853 110.336 115.438V136.673C110.336 138.258 111.621 139.543 113.206 139.543H134.441C136.026 139.543 137.311 138.258 137.311 136.673V115.438C137.311 113.853 136.026 112.568 134.441 112.568Z" fill="#9BBDF9"/>
<path d="M168.808 112.568H147.573C145.988 112.568 144.703 113.853 144.703 115.438V136.673C144.703 138.258 145.988 139.543 147.573 139.543H168.808C170.393 139.543 171.678 138.258 171.678 136.673V115.438C171.678 113.853 170.393 112.568 168.808 112.568Z" fill="#9BBDF9"/>
<path d="M203.175 112.568H181.94C180.355 112.568 179.07 113.853 179.07 115.438V136.673C179.07 138.258 180.355 139.543 181.94 139.543H203.175C204.76 139.543 206.045 138.258 206.045 136.673V115.438C206.045 113.853 204.76 112.568 203.175 112.568Z" fill="#9BBDF9"/>
<path d="M237.542 112.568H216.308C214.722 112.568 213.438 113.853 213.438 115.438V136.673C213.438 138.258 214.722 139.543 216.308 139.543H237.542C239.128 139.543 240.413 138.258 240.413 136.673V115.438C240.413 113.853 239.128 112.568 237.542 112.568Z" fill="#9BBDF9"/>
<path d="M250.848 165.811H157.631C154.651 165.811 152.234 168.227 152.234 171.208V228.767C152.234 231.747 154.651 234.164 157.631 234.164H250.848C253.829 234.164 256.245 231.747 256.245 228.767V171.208C256.245 168.227 253.829 165.811 250.848 165.811Z" fill="white"/>
<path d="M242.101 173.569H168.206C166.621 173.569 165.336 174.854 165.336 176.439V186.235C165.336 187.82 166.621 189.105 168.206 189.105H242.101C243.686 189.105 244.972 187.82 244.972 186.235V176.439C244.972 174.854 243.686 173.569 242.101 173.569Z" fill="#9BBDF9"/>
<path d="M166.375 199.285H202.668" stroke="black" stroke-width="1.3" stroke-linecap="round" stroke-linejoin="round"/>
<path d="M166.375 208.125H243.931" stroke="black" stroke-width="1.3" stroke-linecap="round" stroke-linejoin="round"/>
<path d="M166.375 217.868H243.931" stroke="black" stroke-width="1.3" stroke-linecap="round" stroke-linejoin="round"/>
<path d="M300.848 278.578H246.804C243.18 278.578 240.242 281.515 240.242 285.139V332.008C240.242 335.632 243.18 338.569 246.804 338.569H300.848C304.472 338.569 307.409 335.632 307.409 332.008V285.139C307.409 281.515 304.472 278.578 300.848 278.578Z" fill="#E66C00"/>
<path d="M287.119 305.969L284.914 305.584C284.655 304.619 284.271 303.693 283.771 302.828L285.06 300.998C285.297 300.676 285.414 300.281 285.389 299.882C285.364 299.482 285.2 299.105 284.925 298.814L283.594 297.494C283.309 297.217 282.936 297.05 282.541 297.021C282.145 296.993 281.752 297.105 281.431 297.338L279.59 298.627C278.728 298.129 277.806 297.744 276.845 297.483L276.47 295.227C276.399 294.84 276.197 294.489 275.898 294.234C275.599 293.978 275.221 293.833 274.827 293.823H272.924C272.525 293.824 272.139 293.965 271.833 294.221C271.527 294.478 271.321 294.834 271.25 295.227L270.865 297.431C269.906 297.691 268.984 298.072 268.12 298.565L266.207 297.348C265.88 297.12 265.483 297.014 265.086 297.049C264.689 297.083 264.317 297.255 264.033 297.535L262.744 298.814C262.46 299.095 262.285 299.468 262.251 299.867C262.217 300.265 262.325 300.662 262.557 300.988L263.846 302.828C263.346 303.689 262.961 304.612 262.702 305.574L260.508 305.958C260.113 306.027 259.755 306.232 259.496 306.538C259.238 306.844 259.095 307.232 259.094 307.633V309.504C259.095 309.905 259.238 310.293 259.496 310.599C259.755 310.905 260.113 311.11 260.508 311.179L262.702 311.563C262.963 312.524 263.348 313.447 263.846 314.309L262.557 316.139C262.325 316.465 262.217 316.862 262.251 317.26C262.285 317.658 262.46 318.031 262.744 318.312L264.064 319.633C264.346 319.917 264.719 320.092 265.117 320.126C265.515 320.16 265.912 320.052 266.238 319.82L268.068 318.541C268.933 319.038 269.86 319.419 270.824 319.675L271.209 321.879C271.275 322.274 271.48 322.632 271.787 322.889C272.094 323.147 272.482 323.286 272.883 323.283H274.775C275.175 323.282 275.561 323.141 275.867 322.885C276.173 322.628 276.379 322.272 276.45 321.879L276.834 319.675C277.795 319.419 278.718 319.038 279.58 318.541L281.379 319.799C281.705 320.027 282.101 320.132 282.496 320.096C282.892 320.06 283.263 319.885 283.542 319.602L284.873 318.281C285.154 318.001 285.327 317.63 285.361 317.234C285.396 316.838 285.289 316.443 285.06 316.118L283.771 314.267C284.269 313.405 284.653 312.482 284.914 311.522L287.119 311.127C287.512 311.06 287.869 310.857 288.126 310.552C288.383 310.247 288.524 309.861 288.523 309.463V307.591C288.514 307.2 288.369 306.824 288.113 306.528C287.856 306.231 287.505 306.034 287.119 305.969ZM273.808 314.413C272.647 314.415 271.512 314.072 270.546 313.429C269.58 312.785 268.827 311.869 268.381 310.797C267.936 309.725 267.819 308.545 268.045 307.406C268.271 306.267 268.83 305.221 269.651 304.401C270.472 303.58 271.518 303.021 272.656 302.795C273.795 302.569 274.975 302.686 276.047 303.131C277.119 303.576 278.035 304.33 278.679 305.296C279.323 306.262 279.665 307.397 279.663 308.558C279.664 309.327 279.514 310.089 279.22 310.8C278.926 311.511 278.495 312.157 277.951 312.701C277.407 313.245 276.761 313.676 276.05 313.97C275.339 314.264 274.578 314.414 273.808 314.413Z" fill="white"/>
<path d="M15.6016 404.884H417.003" stroke="black" stroke-width="0.75" stroke-miterlimit="10"/>
<path d="M322.367 69.0483H364.285C366.752 69.0551 369.196 68.5743 371.476 67.6335C373.757 66.6926 375.829 65.3103 377.573 63.5659C379.317 61.8216 380.7 59.7496 381.64 57.4692C382.581 55.1888 383.062 52.745 383.055 50.2781C383.055 47.8156 382.569 45.3773 381.626 43.1029C380.682 40.8285 379.298 38.7627 377.554 37.0239C375.811 35.2851 373.741 33.9074 371.464 32.9698C369.187 32.0322 366.748 31.553 364.285 31.5599H322.367C317.402 31.5599 312.641 33.532 309.131 37.0423C305.621 40.5527 303.649 45.3137 303.649 50.2781C303.642 52.7406 304.121 55.1802 305.058 57.4572C305.996 59.7342 307.374 61.8038 309.113 63.5475C310.851 65.2911 312.917 66.6746 315.192 67.6185C317.466 68.5624 319.904 69.0483 322.367 69.0483Z" fill="#9BBDF9"/>
<path d="M337.124 64.899L323.522 78.2514L321.047 63.9111L337.124 64.899Z" fill="#9BBDF9"/>
<path d="M337.045 44.3194C336.107 43.4012 334.843 42.8931 333.531 42.9068C332.218 42.9204 330.965 43.4547 330.046 44.3922L328.778 45.6817L327.478 44.4026C326.543 43.4801 325.28 42.9667 323.966 42.9755C322.653 42.9843 321.397 43.5144 320.474 44.4494C319.552 45.3844 319.038 46.6475 319.047 47.961C319.056 49.2744 319.586 50.5306 320.521 51.4531L325.346 56.1951C325.809 56.6522 326.358 57.0132 326.961 57.2571C327.564 57.5011 328.21 57.6232 328.86 57.6164C329.511 57.6096 330.154 57.4741 330.752 57.2177C331.35 56.9612 331.891 56.589 332.345 56.1223L337.159 51.3699C337.619 50.9019 337.981 50.347 338.225 49.7377C338.468 49.1284 338.588 48.4768 338.577 47.8207C338.567 47.1647 338.426 46.5173 338.163 45.9162C337.9 45.3151 337.52 44.7723 337.045 44.3194Z" fill="white"/>
<path d="M346.508 45.9832H365.798" stroke="white" stroke-width="1.02" stroke-linecap="round" stroke-linejoin="round"/>
<path d="M346.508 51.3281H356.688" stroke="white" stroke-width="1.02" stroke-linecap="round" stroke-linejoin="round"/>
<path d="M188.803 27.4001H168.915C164.069 27.4001 160.141 31.3285 160.141 36.1743V56.0624C160.141 60.9082 164.069 64.8366 168.915 64.8366H188.803C193.649 64.8366 197.577 60.9082 197.577 56.0624V36.1743C197.577 31.3285 193.649 27.4001 188.803 27.4001Z" fill="#242938"/>
<path d="M181.339 32.9661L189.495 32.957L175.811 46.6339L172.245 50.1803L168.188 46.1177L181.339 32.9661ZM181.263 45.1778C181.369 45.038 181.564 45.107 181.712 45.0891L189.488 45.091L182.401 52.1717L178.322 48.118L181.263 45.1778Z" fill="#44D1FD"/>
<path d="M174.258 52.1785L178.323 48.1179L182.402 52.1716L182.419 52.1896L178.324 56.2462L174.258 52.1785Z" fill="#1FBCFD"/>
<path d="M178.328 56.2463L182.423 52.1897L189.496 59.2703C186.832 59.2763 184.168 59.2682 181.505 59.2742C181.353 59.3082 181.259 59.1694 181.162 59.0836L178.328 56.2463Z" fill="#08589C"/>
<defs>
<filter id="filter0_d_2702_3289" x="14.7344" y="141.811" width="141.414" height="116.353" filterUnits="userSpaceOnUse" color-interpolation-filters="sRGB">
<feFlood flood-opacity="0" result="BackgroundImageFix"/>
<feColorMatrix in="SourceAlpha" type="matrix" values="0 0 0 0 0 0 0 0 0 0 0 0 0 0 0 0 0 0 127 0" result="hardAlpha"/>
<feOffset/>
<feGaussianBlur stdDeviation="12"/>
<feComposite in2="hardAlpha" operator="out"/>
<feColorMatrix type="matrix" values="0 0 0 0 0 0 0 0 0 0 0 0 0 0 0 0 0 0 0.19 0"/>
<feBlend mode="normal" in2="BackgroundImageFix" result="effect1_dropShadow_2702_3289"/>
<feBlend mode="normal" in="SourceGraphic" in2="effect1_dropShadow_2702_3289" result="shape"/>
</filter>
</defs>
</svg>
