<svg width="432" height="422" viewBox="0 0 432 422" fill="none" xmlns="http://www.w3.org/2000/svg">
<g clip-path="url(#clip0_3032_5283)">
<path d="M251.875 411.348C358.896 395.147 445.854 293.956 430.058 181.494C416.577 85.5944 332.49 10.9453 231.646 3.89668C224.357 3.3857 216.962 3.23541 209.508 3.44581C153.254 5.06894 103.268 27.5674 66.312 61.6231C29.521 95.5135 5.60988 140.826 1.2665 188.378C-10.3359 314.892 118.763 431.502 251.875 411.348Z" fill="#F4F7FA"/>
<path fill-rule="evenodd" clip-rule="evenodd" d="M100.151 187.747L101.504 212.169C101.729 216.091 105.051 219.037 108.928 218.767L122.815 217.805C124.318 224.162 126.377 230.384 128.962 236.396L117.284 244.286C114.038 246.495 113.121 250.929 115.255 254.19L128.616 274.644C130.765 277.906 135.139 278.777 138.385 276.553L150.108 268.588C154.526 273.247 159.41 277.545 164.701 281.438L158.388 294.332C156.645 297.894 158.058 302.193 161.53 303.921L183.322 314.727C186.808 316.455 191.047 314.967 192.775 311.405L199.102 298.375C205.369 300.179 211.696 301.426 218.039 302.072L218.94 316.53C219.181 320.483 222.532 323.444 226.41 323.158L250.621 321.355C254.484 321.069 257.415 317.642 257.159 313.69L256.212 299.127C262.419 297.519 268.476 295.369 274.307 292.694L282.303 304.793C284.452 308.069 288.795 308.926 292.011 306.701L312 292.875C315.201 290.665 316.043 286.247 313.879 282.986L305.883 270.917C310.407 266.454 314.555 261.539 318.312 256.249L331.177 262.621C334.634 264.35 338.797 262.877 340.465 259.36L350.91 237.388C352.578 233.886 351.135 229.648 347.694 227.949L334.859 221.577C336.617 215.34 337.835 209.028 338.481 202.716L352.623 201.724C356.426 201.468 359.281 198.117 359.011 194.239L357.252 170.088C356.967 166.24 353.675 163.325 349.873 163.58L335.776 164.542C334.258 158.35 332.184 152.293 329.629 146.447L341.291 138.527C344.432 136.378 345.259 132.049 343.125 128.863L329.779 108.905C327.66 105.703 323.377 104.847 320.236 106.981L308.694 114.796C304.365 110.227 299.571 106.019 294.416 102.202L300.518 89.6223C302.186 86.1957 300.773 82.0327 297.347 80.3494L275.99 69.739C272.579 68.0557 268.446 69.4534 266.778 72.88L260.676 85.3391C254.514 83.4905 248.262 82.213 242.01 81.5067L241.108 67.7251C240.868 63.9077 237.576 61.0071 233.774 61.2476L209.968 62.7805C206.151 63.021 203.25 66.3274 203.491 70.1448L204.347 83.8813C198.125 85.3842 192.038 87.4431 186.147 90.0281L178.572 78.576C176.453 75.3899 172.155 74.5332 168.954 76.6523L148.92 89.9981C145.719 92.1322 144.832 96.4605 146.936 99.6617L154.466 111.069C149.807 115.487 145.524 120.387 141.631 125.692L129.368 119.605C125.926 117.892 121.718 119.32 119.989 122.791L109.108 144.553C107.365 148.04 108.748 152.248 112.204 153.962L124.513 160.078C122.619 166.421 121.267 172.838 120.53 179.27L106.779 180.217C102.901 180.488 99.9409 183.854 100.151 187.747ZM166.775 159.567C184.118 124.475 226.199 110.107 260.841 127.3C295.498 144.493 309.896 186.875 292.913 222.163C275.84 257.677 233.518 272.525 198.501 255.152C163.468 237.763 149.311 194.886 166.775 159.567Z" fill="#D8DEE8"/>
<path d="M330.5 192.586C330.5 192.586 330.495 192.586 330.485 192.586C330.314 192.796 330.134 192.996 329.944 193.187C329.883 193.247 329.818 193.307 329.748 193.367C329.618 193.497 329.488 193.628 329.357 193.758C329.277 193.818 329.202 193.883 329.132 193.953C329.002 194.063 328.871 194.174 328.741 194.284C328.661 194.344 328.581 194.404 328.501 194.464C328.36 194.564 328.22 194.665 328.08 194.765C328 194.815 327.925 194.865 327.854 194.915C327.684 195.035 327.509 195.145 327.328 195.246C327.288 195.276 327.243 195.306 327.193 195.336C326.963 195.466 326.727 195.591 326.487 195.712C326.467 195.722 326.447 195.732 326.427 195.742C326.206 195.842 325.986 195.937 325.765 196.027C325.705 196.057 325.645 196.082 325.585 196.102C325.405 196.182 325.224 196.253 325.044 196.313C324.964 196.333 324.889 196.358 324.819 196.388C324.638 196.448 324.458 196.503 324.278 196.553C324.207 196.573 324.137 196.593 324.067 196.613C323.867 196.663 323.661 196.708 323.451 196.749C323.411 196.759 323.366 196.769 323.316 196.779C322.534 196.944 321.738 197.019 320.941 197.034C320.901 197.034 320.866 197.034 320.836 197.034C320.606 197.044 320.375 197.044 320.145 197.034C320.105 197.024 320.059 197.019 320.009 197.019C319.789 197.009 319.564 196.994 319.333 196.974C319.293 196.964 319.258 196.959 319.228 196.959C315.906 196.598 312.705 194.99 310.391 192.18C289.726 166.961 244.789 108.543 244.789 76.8772C244.789 35.9532 278.304 1.88247 320.415 0.740262C324.503 0.635059 328.516 0.830436 332.438 1.32639C332.448 1.32639 332.453 1.32639 332.453 1.32639C334.147 1.54682 335.82 1.81734 337.473 2.13796C337.523 2.13796 337.573 2.14297 337.623 2.15299C338.074 2.24316 338.52 2.33834 338.961 2.43854C339.111 2.4686 339.257 2.49866 339.397 2.52871C339.818 2.61889 340.233 2.71407 340.644 2.81426C340.815 2.85434 340.985 2.89442 341.155 2.93449C341.556 3.03469 341.952 3.13488 342.342 3.23507C342.523 3.28517 342.703 3.33527 342.884 3.38536C343.274 3.48556 343.665 3.59076 344.056 3.70097C344.236 3.75107 344.416 3.80618 344.597 3.86629C344.988 3.97651 345.378 4.09173 345.769 4.21196C345.939 4.26206 346.11 4.31716 346.28 4.37728C346.681 4.49751 347.077 4.62275 347.467 4.753C347.618 4.81312 347.763 4.86823 347.903 4.91832C348.324 5.05859 348.74 5.19886 349.151 5.33913C349.231 5.37921 349.316 5.41428 349.406 5.44434C351.36 6.15571 353.274 6.94724 355.147 7.81892C355.267 7.86902 355.393 7.92412 355.523 7.98424C355.894 8.15457 356.259 8.32991 356.62 8.51026C356.79 8.59041 356.956 8.67057 357.116 8.75072C357.467 8.93107 357.812 9.10641 358.153 9.27674C358.333 9.36691 358.514 9.4621 358.694 9.56229C359.025 9.73262 359.36 9.91296 359.701 10.1033C359.881 10.1935 360.062 10.2887 360.242 10.3889C360.563 10.5793 360.888 10.7646 361.219 10.945C361.399 11.0552 361.58 11.1604 361.76 11.2606C362.081 11.4509 362.406 11.6413 362.737 11.8317C362.907 11.9419 363.072 12.0471 363.233 12.1473C363.563 12.3477 363.894 12.5531 364.225 12.7635C364.375 12.8637 364.525 12.9588 364.676 13.049C365.016 13.2694 365.357 13.4949 365.698 13.7253C365.768 13.7754 365.838 13.8205 365.908 13.8606C367.1 14.6721 368.273 15.5138 369.425 16.3855C369.565 16.4957 369.705 16.6009 369.846 16.7011C370.136 16.9315 370.427 17.162 370.717 17.3924C370.888 17.5227 371.058 17.6579 371.228 17.7982C371.499 18.0186 371.769 18.244 372.04 18.4745C372.22 18.6248 372.4 18.7751 372.581 18.9254C372.841 19.1458 373.102 19.3662 373.362 19.5866C373.543 19.7469 373.723 19.9123 373.903 20.0826C374.154 20.303 374.404 20.5234 374.655 20.7439C374.845 20.9142 375.031 21.0845 375.211 21.2549C375.451 21.4853 375.692 21.7157 375.932 21.9462C376.113 22.1165 376.293 22.2919 376.473 22.4722C376.714 22.7026 376.954 22.9331 377.195 23.1635C377.365 23.3439 377.54 23.5242 377.721 23.7046C377.951 23.945 378.182 24.1855 378.412 24.426C378.582 24.6063 378.753 24.7867 378.923 24.967C379.154 25.2075 379.384 25.453 379.614 25.7034C379.725 25.8237 379.835 25.9489 379.945 26.0792C380.416 26.6002 380.877 27.1262 381.328 27.6572C381.508 27.8676 381.683 28.078 381.854 28.2884C382.054 28.5189 382.249 28.7543 382.44 28.9948C382.62 29.2152 382.796 29.4356 382.966 29.6561C383.156 29.8965 383.342 30.132 383.522 30.3624C383.702 30.5929 383.878 30.8233 384.048 31.0538C384.228 31.2942 384.409 31.5347 384.589 31.7752C384.759 32.0056 384.93 32.2411 385.1 32.4815C385.27 32.722 385.441 32.9624 385.611 33.2029C385.781 33.4434 385.952 33.6838 386.122 33.9243C386.282 34.1648 386.443 34.4102 386.603 34.6607C386.773 34.9112 386.939 35.1617 387.099 35.4122C387.259 35.6526 387.414 35.8931 387.565 36.1336C387.735 36.3941 387.9 36.6596 388.061 36.9301C388.201 37.1606 388.346 37.396 388.497 37.6365C388.667 37.927 388.832 38.2126 388.992 38.4931C389.123 38.7236 389.253 38.949 389.383 39.1694C389.584 39.5301 389.784 39.8908 389.984 40.2515C390.105 40.4719 390.225 40.6924 390.345 40.9128C390.586 41.3637 390.821 41.8145 391.051 42.2654C391.152 42.4758 391.252 42.6862 391.352 42.8966C391.512 43.2172 391.673 43.5379 391.833 43.8585C391.943 44.0989 392.053 44.3344 392.164 44.5648C392.304 44.8754 392.444 45.181 392.584 45.4816C392.685 45.7321 392.79 45.9776 392.9 46.218C393.03 46.5286 393.161 46.8342 393.291 47.1348C393.391 47.3853 393.491 47.6358 393.591 47.8863C393.722 48.1868 393.847 48.4924 393.967 48.803C394.057 49.0535 394.152 49.304 394.253 49.5545C394.373 49.8751 394.488 50.1907 394.598 50.5013C394.688 50.7518 394.779 51.0023 394.869 51.2527C394.979 51.5734 395.089 51.899 395.199 52.2296C395.28 52.4701 395.36 52.7156 395.44 52.9661C395.55 53.3067 395.66 53.6524 395.771 54.0031C395.841 54.2335 395.906 54.4639 395.966 54.6944C396.086 55.1052 396.206 55.516 396.327 55.9268C396.367 56.0971 396.412 56.2674 396.462 56.4378C396.622 57.0189 396.773 57.6 396.913 58.1811C396.943 58.3314 396.978 58.4867 397.018 58.647C397.118 59.0879 397.218 59.5287 397.319 59.9696C397.359 60.19 397.404 60.4154 397.454 60.6459C397.534 61.0166 397.609 61.3873 397.679 61.758C397.719 62.0085 397.764 62.259 397.815 62.5095C397.875 62.8702 397.935 63.2259 397.995 63.5765C398.035 63.837 398.075 64.0975 398.115 64.358C398.175 64.7087 398.225 65.0594 398.265 65.4101C398.305 65.6806 398.341 65.9461 398.371 66.2066C398.421 66.5573 398.466 66.913 398.506 67.2737C398.536 67.5342 398.561 67.7947 398.581 68.0552C398.621 68.4159 398.656 68.7816 398.686 69.1523C398.706 69.4128 398.726 69.6683 398.746 69.9188C398.776 70.2995 398.801 70.6802 398.821 71.061C398.841 71.3115 398.857 71.5569 398.867 71.7974C398.887 72.2182 398.907 72.639 398.927 73.0598C398.927 73.2702 398.932 73.4806 398.942 73.691C398.962 74.3223 398.972 74.9535 398.972 75.5847C398.972 77.1177 398.867 78.7258 398.656 80.379C396.717 96.1744 385.927 116.794 372.957 136.602C372.185 137.795 371.404 138.982 370.612 140.164C369.851 141.297 369.089 142.424 368.328 143.546C366.93 145.59 365.517 147.604 364.104 149.618C363.153 150.95 362.201 152.273 361.249 153.585C360.578 154.517 359.906 155.439 359.235 156.351C358.684 157.102 358.133 157.853 357.582 158.605C356.911 159.507 356.239 160.403 355.568 161.295C353.674 163.82 351.811 166.27 349.962 168.644C349.301 169.496 348.65 170.333 348.008 171.154C341.396 179.585 335.279 186.965 330.5 192.586Z" fill="url(#paint0_linear_3032_5283)"/>
<path d="M320.417 213.671C329.134 213.897 336.227 221.02 336.227 229.572C336.227 238.123 329.134 244.826 320.417 244.541C311.745 244.255 304.727 237.146 304.727 228.655C304.727 220.164 311.745 213.461 320.417 213.671Z" fill="url(#paint1_linear_3032_5283)"/>
<path d="M238.344 76.9372C238.344 108.543 283.131 166.856 303.735 192.044C308.89 198.342 318.569 198.552 323.769 192.45C344.795 167.727 392.016 108.468 392.016 75.6447C392.016 33.2028 356.592 -0.236724 313.73 0.92051C271.754 2.04769 238.344 36.0734 238.344 76.9372Z" fill="url(#paint2_linear_3032_5283)"/>
<path d="M261.656 75.0137C261.656 103.569 285.087 126.804 314.348 126.924C344.045 127.044 368.437 103.373 368.437 74.0669C368.437 44.7453 344.045 21.5105 314.348 22.1567C285.087 22.7879 261.656 46.4586 261.656 75.0137Z" fill="white"/>
<g style="mix-blend-mode:multiply" opacity="0.2">
<path d="M314.057 161.296C309.203 129.78 288.162 119.665 291.754 90.0883C295.917 55.9273 326.817 46.3389 327.568 15.6947C327.689 10.7652 326.997 6.03105 325.705 1.50732C363.007 6.2114 392.013 37.2764 392.013 75.6454C392.013 108.469 344.792 167.728 323.766 192.451C320.715 196.043 316.086 197.456 311.758 196.704C315.485 182.983 315.59 171.2 314.057 161.296Z" fill="url(#paint3_linear_3032_5283)"/>
</g>
<path d="M298.078 228.46C298.078 236.937 305.066 244.045 313.723 244.331C322.41 244.616 329.488 237.913 329.488 229.377C329.488 220.84 322.41 213.732 313.723 213.506C305.066 213.296 298.078 219.984 298.078 228.46Z" fill="url(#paint4_linear_3032_5283)"/>
<path d="M320.633 72.1427C320.633 83.0237 326.66 91.8157 334.129 91.7706C341.629 91.7405 347.73 82.8434 347.73 71.9023C347.73 60.9461 341.629 52.1692 334.129 52.2744C326.66 52.3796 320.633 61.2767 320.633 72.1427Z" fill="url(#paint5_linear_3032_5283)"/>
<path d="M331.005 88.1936C333.099 88.1836 335.193 88.1736 337.287 88.1636C337.843 110.151 338.384 132.544 338.94 155.088C338.97 156.41 338.459 157.357 337.497 158.304C336.535 159.251 335.228 159.611 333.86 159.596C332.643 159.581 331.471 158.995 330.629 158.124C329.772 157.267 329.307 156.741 329.337 155.554C329.893 132.89 330.449 110.151 331.005 88.1936Z" fill="url(#paint6_linear_3032_5283)"/>
<path d="M283.009 53.7919L286.36 53.7619V77.0418L288.99 77.0117V53.7468L291.635 53.7318V76.9967L296.384 76.9516V53.6717L299.014 53.6116V76.9366L303.238 76.8915V53.5214L305.161 53.4763C305.161 53.4763 307.882 74.8776 307.371 84.8118C307.295 86.0442 306.484 87.2014 305.477 88.0731C303.598 89.6962 299.781 91.9355 293.619 91.9656C287.532 91.9957 283.82 89.8014 281.957 88.2083C280.965 87.3517 280.484 86.1945 280.424 84.9921C279.913 75.1181 283.009 53.7919 283.009 53.7919Z" fill="url(#paint7_linear_3032_5283)"/>
<path d="M290.53 88.4193C292.574 88.4093 294.628 88.3943 296.692 88.3743C297.233 110.151 297.774 132.319 298.3 154.637C298.345 155.96 297.834 156.891 296.887 157.838C295.955 158.77 294.678 159.116 293.325 159.101C292.138 159.086 290.996 158.515 290.154 157.658C289.328 156.801 288.862 156.29 288.892 155.103C289.433 132.68 289.974 110.151 290.53 88.4193Z" fill="url(#paint8_linear_3032_5283)"/>
<path d="M190.303 60.7049C203.068 168.583 215.833 275.334 228.597 380.958C229.168 385.692 225.892 389.885 221.323 390.276C170.024 395.135 118.725 400.105 67.4263 405.185C58.2737 405.636 53.254 400.526 52.6529 395.401C39.5175 281.381 26.3821 166.163 13.2468 49.7487C12.6607 44.5186 17.0792 40.025 26.2319 40.4758C77.7814 44.1529 129.331 47.7799 180.88 51.3568C185.494 51.6574 189.732 55.8655 190.303 60.7049Z" fill="#26264F"/>
<path d="M197.438 60.48C210.283 168.829 223.128 276.036 235.973 382.101C236.544 386.85 233.252 391.073 228.654 391.464C175.381 395.972 122.113 400.571 68.8505 405.26C63.9811 405.696 59.5175 401.849 58.9313 396.709C45.7058 282.158 32.4853 166.399 19.2698 49.4337C18.6686 44.1885 22.2004 40.1608 27.0849 40.4914C80.7083 44.0683 134.332 47.6001 187.955 51.0868C192.599 51.4025 196.867 55.6256 197.438 60.48Z" fill="url(#paint9_linear_3032_5283)"/>
<path d="M194.347 78.2136C206.24 178.587 218.138 277.989 230.041 376.419C230.582 380.868 227.501 384.79 223.188 385.151C173.101 389.249 123.009 393.422 72.9125 397.67C68.3888 398.061 64.2258 394.454 63.6697 389.675C51.4461 283.88 39.2225 177.049 26.999 69.1811C26.4429 64.2967 29.7192 60.5244 34.288 60.7949C84.6853 63.7306 135.088 66.6312 185.495 69.4967C189.823 69.7522 193.806 73.6748 194.347 78.2136Z" fill="url(#paint10_linear_3032_5283)"/>
<g style="mix-blend-mode:soft-light" opacity="0.4">
<path d="M185.496 69.4967C135.69 66.6613 85.8842 63.7957 36.0781 60.9001C37.611 69.7522 40.3012 79.3858 44.8249 89.1998C61.3418 125.044 85.6136 127.028 95.112 158.258C104.896 190.435 82.8333 200.505 93.6091 229.571C105.317 261.086 133.992 256.533 149.156 291.114C162.232 320.917 145.399 334.548 158.91 352.658C173.729 372.512 201.127 365.779 229.561 372.512C217.824 275.364 206.086 177.255 194.349 78.2136C193.808 73.6748 189.825 69.7522 185.496 69.4967Z" fill="#F4F7FA"/>
</g>
<path d="M112.733 56.2713C112.944 58.0147 111.772 59.3523 110.118 59.2621C108.465 59.1569 106.962 57.654 106.767 55.9106C106.557 54.1522 107.729 52.8147 109.382 52.9199C111.035 53.0251 112.538 54.528 112.733 56.2713Z" fill="#DE8BDF"/>
<g style="mix-blend-mode:multiply" opacity="0.4">
<path d="M171.344 203.18C167.602 211.265 154.948 217.607 139.167 217.983L120.682 218.404C104.495 218.78 90.113 212.888 84.6275 204.743C84.2066 204.111 84.3269 203.255 85.0032 202.714C85.6645 202.158 86.7616 201.677 87.9639 201.647L167.662 200.309C168.804 200.279 169.917 200.715 170.638 201.226C171.359 201.737 171.63 202.548 171.344 203.18Z" fill="url(#paint11_linear_3032_5283)"/>
<path d="M167.325 166.554C161.614 153.614 147.577 144.371 131.857 144.326L113.431 144.266C97.3201 144.206 84.3651 153.614 80.7582 166.96C80.4877 167.997 80.7582 168.778 81.5397 169.65C82.3362 170.522 83.4784 170.672 84.6807 170.672L164.274 170.191C165.416 170.176 166.468 170.026 167.055 169.169C167.641 168.313 167.761 167.561 167.325 166.554Z" fill="url(#paint12_linear_3032_5283)"/>
<path d="M81.5066 179.66C81.717 182.004 83.8361 183.718 86.2558 183.688L164.272 182.861C166.556 182.846 168.254 181.133 168.029 178.863C167.818 176.594 165.804 174.926 163.52 174.941L85.5494 175.542C83.1298 175.572 81.3113 177.315 81.5066 179.66Z" fill="url(#paint13_linear_3032_5283)"/>
<path d="M97.2966 195.876C101.4 195.816 103.309 193.802 104.992 192.044C106.51 190.451 107.817 189.068 110.733 189.038C113.649 189.008 115.197 190.33 116.985 191.878C118.954 193.577 121.193 195.515 125.221 195.455C129.249 195.395 131.112 193.411 132.75 191.668C134.238 190.09 135.516 188.722 138.386 188.692C141.242 188.647 142.76 189.97 144.503 191.503C146.457 193.186 148.651 195.11 152.604 195.05C156.556 194.989 158.375 193.021 159.983 191.292C161.426 189.729 162.688 188.377 165.484 188.347C166.235 188.332 166.791 187.73 166.716 186.979C166.641 186.227 165.98 185.641 165.228 185.641C161.321 185.686 159.502 187.64 157.894 189.369C156.436 190.932 155.189 192.284 152.348 192.329C149.523 192.359 148.005 191.052 146.261 189.519C144.308 187.836 142.113 185.912 138.131 185.957C134.133 186.002 132.284 187.986 130.631 189.729C129.143 191.307 127.866 192.66 124.98 192.705C122.08 192.75 120.547 191.412 118.758 189.88C116.79 188.166 114.55 186.227 110.492 186.273C106.42 186.333 104.511 188.317 102.828 190.09C101.31 191.683 99.9868 193.051 97.0561 193.096C94.0954 193.141 92.5324 191.803 90.7289 190.24C88.715 188.512 86.4306 186.558 82.2976 186.603C81.5011 186.618 80.8999 187.249 80.9751 188.016C81.0352 188.782 81.7415 189.399 82.5381 189.399C85.5138 189.354 87.0768 190.706 88.8954 192.254C90.9092 193.982 93.1786 195.936 97.2966 195.876Z" fill="url(#paint14_linear_3032_5283)"/>
<path d="M73.795 327.229C74.1257 331.257 77.8529 334.293 82.1061 334.022L193.666 326.959C197.574 326.703 200.444 323.382 200.068 319.534L199.753 316.273C199.377 312.441 195.92 309.51 192.028 309.72L80.5731 316.093C76.3199 316.333 73.1488 319.79 73.4945 323.803L73.795 327.229Z" fill="url(#paint15_linear_3032_5283)"/>
<path fill-rule="evenodd" clip-rule="evenodd" d="M71.1246 295.819C71.4703 299.817 75.1825 302.898 79.4206 302.673L190.801 296.841C194.693 296.631 197.549 293.37 197.188 289.537L193.551 251.694C193.175 247.892 189.734 244.931 185.841 245.051L74.8067 248.764C70.5836 248.899 67.4275 252.235 67.7582 256.203L71.1246 295.819ZM116.377 255.587C118.376 254.49 120.991 255.196 122.223 257.165L135.99 279.062L143.489 264.394C144.496 262.425 146.991 261.704 149.065 262.771C151.139 263.853 151.996 266.317 151.004 268.286L140.228 289.447C139.582 290.709 138.289 291.521 136.817 291.596C136.766 291.596 136.716 291.601 136.666 291.611C135.148 291.626 133.69 290.845 132.879 289.552L115.009 261.162C113.777 259.194 114.378 256.684 116.377 255.587Z" fill="url(#paint16_linear_3032_5283)"/>
</g>
<path d="M173.012 203.18C169.27 211.265 156.615 217.607 140.835 217.983L122.349 218.404C106.178 218.78 91.7807 212.888 86.2952 204.743C85.8744 204.111 86.0096 203.255 86.6709 202.714C87.3322 202.158 88.4293 201.677 89.6466 201.647L169.345 200.309C170.487 200.279 171.599 200.715 172.321 201.226C173.027 201.737 173.298 202.548 173.012 203.18Z" fill="white"/>
<path d="M168.991 166.554C163.295 153.614 149.243 144.371 133.522 144.326L115.112 144.266C99.0006 144.206 86.0305 153.614 82.4386 166.96C82.1531 167.997 82.4236 168.778 83.2201 169.65C84.0016 170.522 85.1438 170.672 86.3612 170.672L165.955 170.191C167.082 170.176 168.134 170.026 168.735 169.169C169.321 168.313 169.442 167.561 168.991 166.554Z" fill="white"/>
<path d="M83.1806 179.66C83.376 182.004 85.4951 183.718 87.9298 183.688L165.931 182.861C168.215 182.846 169.913 181.133 169.703 178.863C169.478 176.594 167.479 174.926 165.179 174.941L87.2084 175.542C84.7887 175.572 82.9702 177.315 83.1806 179.66Z" fill="white"/>
<path d="M98.9664 195.876C103.07 195.816 104.978 193.802 106.662 192.044C108.18 190.451 109.502 189.068 112.418 189.038C115.318 189.008 116.866 190.33 118.655 191.878C120.639 193.577 122.863 195.515 126.906 195.455C130.918 195.395 132.782 193.411 134.435 191.668C135.923 190.09 137.201 188.722 140.056 188.692C142.912 188.647 144.43 189.97 146.188 191.503C148.127 193.186 150.336 195.11 154.289 195.05C158.226 194.989 160.045 193.021 161.653 191.292C163.111 189.729 164.358 188.377 167.168 188.347C167.92 188.332 168.461 187.73 168.401 186.979C168.326 186.227 167.664 185.641 166.913 185.641C162.99 185.686 161.172 187.64 159.564 189.369C158.121 190.932 156.859 192.284 154.033 192.329C151.193 192.359 149.69 191.052 147.931 189.519C145.993 187.836 143.783 185.912 139.801 185.957C135.818 186.002 133.954 187.986 132.316 189.729C130.828 191.307 129.536 192.66 126.65 192.705C123.765 192.75 122.217 191.412 120.443 189.88C118.459 188.166 116.22 186.227 112.162 186.273C108.089 186.333 106.196 188.317 104.513 190.09C102.98 191.683 101.672 193.051 98.726 193.096C95.7803 193.141 94.2172 191.803 92.3987 190.24C90.3848 188.512 88.1155 186.558 83.9674 186.603C83.1709 186.618 82.5848 187.249 82.6449 188.016C82.7201 188.782 83.4114 189.399 84.2079 189.399C87.1837 189.354 88.7467 190.706 90.5652 192.254C92.5791 193.982 94.8635 195.936 98.9664 195.876Z" fill="white"/>
<path d="M75.4676 327.229C75.8132 331.257 79.5404 334.293 83.7786 334.022L195.354 326.959C199.261 326.703 202.117 323.382 201.741 319.534L201.426 316.273C201.065 312.441 197.608 309.51 193.701 309.72L82.2457 316.093C78.0075 316.333 74.8364 319.79 75.182 323.803L75.4676 327.229Z" fill="white"/>
<path fill-rule="evenodd" clip-rule="evenodd" d="M72.7993 295.819C73.145 299.817 76.8721 302.898 81.1103 302.673L192.475 296.841C196.383 296.631 199.238 293.37 198.862 289.537L195.225 251.694C194.865 247.892 191.423 244.931 187.53 245.051L76.4814 248.764C72.2582 248.899 69.1021 252.235 69.4478 256.203L72.7993 295.819ZM118.051 255.587C120.035 254.49 122.65 255.196 123.898 257.165L137.649 279.062L145.164 264.394C146.171 262.425 148.665 261.704 150.724 262.771C152.798 263.853 153.67 266.317 152.663 268.286L141.902 289.447C141.256 290.709 139.949 291.521 138.491 291.596C138.441 291.596 138.391 291.601 138.341 291.611C136.808 291.626 135.35 290.845 134.538 289.552L116.684 261.162C115.436 259.194 116.053 256.684 118.051 255.587Z" fill="white"/>
<path d="M226.219 295.084L232.681 287.118L239.159 293.04C242.285 295.91 242.796 300.674 240.331 304.131L237.46 308.159L227.556 304.056L225.618 298.465C225.227 297.308 225.452 296.03 226.219 295.084Z" fill="url(#paint17_linear_3032_5283)"/>
<path d="M212.57 278.852C212.57 285.945 214.524 291.942 220.085 293.911C221.332 294.347 222.775 294.587 224.413 294.587C233.325 294.587 240.539 287.538 240.539 278.852C240.539 270.27 233.521 263.297 224.774 263.101C224.653 263.101 224.533 263.101 224.413 263.101C215.501 263.101 212.57 270.15 212.57 278.852Z" fill="url(#paint18_linear_3032_5283)"/>
<path d="M331.859 393.824C331.859 409.124 344.258 421.523 359.557 421.523C374.857 421.523 387.256 409.124 387.256 393.824C387.256 378.525 374.857 366.126 359.557 366.126C344.258 366.126 331.859 378.525 331.859 393.824Z" fill="url(#paint19_linear_3032_5283)"/>
<path d="M340.438 393.824C340.438 404.375 349.005 412.941 359.555 412.941C370.105 412.941 378.672 404.375 378.672 393.824C378.672 383.259 370.105 374.708 359.555 374.708C349.005 374.708 340.438 383.259 340.438 393.824Z" fill="white"/>
<path style="mix-blend-mode:multiply" opacity="0.6" d="M350.836 394.425C350.836 399.384 354.848 403.397 359.808 403.397C364.768 403.397 368.78 399.384 368.78 394.425C368.78 389.465 364.768 385.438 359.808 385.438C354.848 385.438 350.836 389.465 350.836 394.425Z" fill="url(#paint20_linear_3032_5283)"/>
<path d="M386.813 349.819C387.024 350.27 387.4 350.54 387.67 350.42L421.606 334.61C421.861 334.489 421.906 334.023 421.696 333.573C421.485 333.122 421.11 332.851 420.839 332.971L386.904 348.782C386.648 348.902 386.603 349.368 386.813 349.819Z" fill="url(#paint21_linear_3032_5283)"/>
<path d="M283.172 338.171H336.991V329.725H283.172V338.171Z" fill="url(#paint22_linear_3032_5283)"/>
<path d="M278.969 326.809C278.969 329.59 281.209 331.829 283.989 331.829H335.133C337.913 331.829 340.152 329.59 340.152 326.809V326.313C340.152 323.533 337.913 321.279 335.133 321.279H283.989C281.209 321.279 278.969 323.533 278.969 326.313V326.809Z" fill="url(#paint23_linear_3032_5283)"/>
<path d="M384.312 373.114C384.312 373.114 398.815 377.728 399.055 393.869C399.07 394.124 398.965 394.53 398.785 394.71C398.604 394.891 398.364 395.146 398.108 395.146H392.863C392.217 395.146 391.601 394.786 391.09 394.41L366.578 376.285L384.312 373.114Z" fill="url(#paint24_linear_3032_5283)"/>
<path d="M316.468 388.263C318.331 387.993 347.938 388.489 358.774 388.684C360.968 388.714 362.832 390.503 362.832 392.712V394.35C362.832 396.394 361.209 398.107 359.18 398.348L306.398 404.69L316.468 388.263Z" fill="url(#paint25_linear_3032_5283)"/>
<path d="M156.43 393.824C156.43 409.124 168.829 421.523 184.129 421.523C199.428 421.523 211.827 409.124 211.827 393.824C211.827 378.525 199.428 366.126 184.129 366.126C168.829 366.126 156.43 378.525 156.43 393.824Z" fill="url(#paint26_linear_3032_5283)"/>
<path d="M165.008 393.824C165.008 404.375 173.56 412.941 184.125 412.941C194.676 412.941 203.242 404.375 203.242 393.824C203.242 383.259 194.676 374.708 184.125 374.708C173.56 374.708 165.008 383.259 165.008 393.824Z" fill="white"/>
<path style="mix-blend-mode:multiply" opacity="0.6" d="M175.391 394.425C175.391 399.384 179.419 403.397 184.378 403.397C189.338 403.397 193.351 399.384 193.351 394.425C193.351 389.465 189.338 385.438 184.378 385.438C179.419 385.438 175.391 389.465 175.391 394.425Z" fill="url(#paint27_linear_3032_5283)"/>
<path d="M179.88 398.452C182.36 400.767 186.252 400.647 188.582 398.167L212.102 373.113C214.432 370.634 214.312 366.741 211.832 364.412L211.456 364.066C208.976 361.736 205.084 361.857 202.754 364.336L179.234 389.39C176.904 391.87 177.025 395.762 179.504 398.092L179.88 398.452Z" fill="url(#paint28_linear_3032_5283)"/>
<path d="M157.882 373.535C161.339 362.188 173.542 352.449 188.752 352.449C204.998 352.449 216.104 368.575 216.104 368.575L217.652 388.699L204.141 386.896C201.241 386.505 198.505 385.288 196.281 383.364L189.112 377.352C188.105 376.481 186.828 376.15 185.505 376.15H159.61C159.039 376.15 158.498 375.744 158.153 375.278C157.822 374.812 157.717 374.076 157.882 373.535Z" fill="url(#paint29_linear_3032_5283)"/>
<path d="M189.768 342.395C189.513 349.188 210.809 388.068 213.875 389.36C216.956 390.638 226.199 404.645 242.866 404.645H303.463C307.01 404.645 310.331 403.052 312.24 400.061C317.094 392.471 326.983 378.524 334.438 377.037C343.004 375.323 385.626 370.619 399.393 369.101C401.963 368.816 403.872 366.682 403.721 364.097C403.255 355.816 399.724 339.224 379.059 334.474H283.655C282.242 334.474 281.596 335.466 281.596 336.894V340.05C281.596 341.929 282.046 343.732 283.339 345.115C288.464 350.616 301.178 365.449 295.573 370.574C288.644 376.886 284.737 389.466 269.347 389.466C259.683 389.466 248.953 387.842 241.784 384.476C237.531 382.477 234.51 379.877 233.653 376.631C231.339 367.914 239.544 315.658 240.311 307.287C240.732 302.643 236.899 299.487 233.398 297.578C233.398 297.568 233.398 297.568 233.398 297.578C230.452 295.97 226.815 296.571 224.546 299.021C215.182 309.151 189.979 336.864 189.768 342.395Z" fill="url(#paint30_linear_3032_5283)"/>
<path style="mix-blend-mode:multiply" opacity="0.5" d="M223.285 370.574C233.204 380.659 241.065 386.806 241.065 386.806L241.756 384.476C237.503 382.477 234.482 379.877 233.625 376.631C231.326 367.914 239.532 315.658 240.298 307.287C240.734 302.643 236.902 299.487 233.4 297.578C233.625 297.774 238.93 302.628 233.4 316.019C227.734 329.695 213.366 360.49 223.285 370.574Z" fill="url(#paint31_linear_3032_5283)"/>
<path d="M239.383 385.377C239.383 387.572 241.156 389.345 243.335 389.345H282.907C285.086 389.345 286.859 387.572 286.859 385.377C286.859 383.198 285.086 381.425 282.907 381.425H243.335C241.156 381.425 239.383 383.198 239.383 385.377Z" fill="url(#paint32_linear_3032_5283)"/>
<path d="M314.022 388.97C314.022 388.97 308.641 347.129 338.294 345.025H380.585C380.585 345.025 406.585 354.659 405.563 377.232C348.108 383.725 314.022 388.97 314.022 388.97Z" fill="url(#paint33_linear_3032_5283)"/>
<path style="mix-blend-mode:multiply" opacity="0.3" d="M404.273 377.653C399.133 361.902 380.587 355.049 380.587 355.049H338.296C319.209 357.153 314.64 374.647 313.813 387.136C313.197 378.179 313.017 347.129 338.296 345.551H380.587C380.587 345.551 406.587 355.124 405.565 377.698C405.13 377.743 404.709 377.608 404.273 377.653Z" fill="url(#paint34_linear_3032_5283)"/>
<path d="M342.258 262.456C342.258 257.075 346.631 252.702 352.012 252.702H421.13C426.51 252.702 430.884 257.075 430.884 262.456V321.55C430.884 326.945 426.51 331.304 421.13 331.304H352.012C346.631 331.304 342.258 326.945 342.258 321.55V262.456Z" fill="url(#paint35_linear_3032_5283)"/>
<path d="M347.547 332.626C347.547 333.648 348.373 334.474 349.395 334.474H424.3C425.322 334.474 426.149 333.648 426.149 332.626C426.149 331.604 425.322 330.777 424.3 330.777H349.395C348.373 330.777 347.547 331.604 347.547 332.626Z" fill="url(#paint36_linear_3032_5283)"/>
<path style="mix-blend-mode:multiply" opacity="0.5" d="M342.258 268.527C342.258 269.114 342.724 269.579 343.31 269.579H429.832C430.418 269.579 430.884 269.114 430.884 268.527C430.884 267.941 430.418 267.475 429.832 267.475H343.31C342.724 267.475 342.258 267.941 342.258 268.527Z" fill="url(#paint37_linear_3032_5283)"/>
<path d="M198.758 340.546C198.758 342.44 200.291 343.973 202.185 343.973C204.078 343.973 205.611 342.44 205.611 340.546V333.152C205.611 331.258 204.078 329.725 202.185 329.725C200.291 329.725 198.758 331.258 198.758 333.152V340.546Z" fill="url(#paint38_linear_3032_5283)"/>
<path d="M222.487 263.267V293.746C221.961 293.836 220.969 293.851 220.353 293.851H220.083C214.522 292.273 212.734 285.916 212.734 278.822C212.734 270.902 214.056 264.379 222.487 263.267Z" fill="url(#paint39_linear_3032_5283)"/>
<path d="M221.445 295.429C221.445 296.316 222.152 297.022 223.038 297.022C223.91 297.022 224.616 296.316 224.616 295.429V262.2C224.616 261.328 223.91 260.622 223.038 260.622C222.152 260.622 221.445 261.328 221.445 262.2V295.429Z" fill="white"/>
<path d="M229.367 281.452C229.367 283.345 230.9 284.878 232.794 284.878C234.688 284.878 236.221 283.345 236.221 281.452V278.822C236.221 276.928 234.688 275.38 232.794 275.38C230.9 275.38 229.367 276.928 229.367 278.822V281.452Z" fill="url(#paint40_linear_3032_5283)"/>
<path d="M231.732 279.934C231.266 281.873 232.018 283.707 233.415 284.037L249.977 288.005C251.375 288.351 252.878 287.058 253.344 285.119C253.795 283.196 253.043 281.362 251.66 281.032L235.099 277.049C233.701 276.718 232.198 278.011 231.732 279.934Z" fill="url(#paint41_linear_3032_5283)"/>
<path d="M239.102 252.792C239.102 257.541 241.086 261.388 243.536 261.388C246.001 261.388 247.984 257.541 247.984 252.792C247.984 248.042 246.001 244.195 243.536 244.195C241.086 244.195 239.102 248.042 239.102 252.792Z" fill="url(#paint42_linear_3032_5283)"/>
<path d="M232.778 273.276C233.064 273.276 233.049 273.036 233.049 272.765V266.573C234.101 265.521 241.044 259.464 242.156 258.533C242.382 258.352 242.607 258.022 242.427 257.811C242.246 257.586 242.036 257.556 241.81 257.751C240.563 258.788 233.109 265.671 232.793 265.972C232.688 266.062 232.508 266.197 232.508 266.348V272.765C232.508 273.036 232.492 273.276 232.778 273.276Z" fill="url(#paint43_linear_3032_5283)"/>
<path d="M407.328 307.062C405.224 310.954 399.032 313.9 391.728 313.9H383.267C375.962 313.9 369.77 310.954 367.651 307.062C367.486 306.761 367.576 306.28 367.892 306.025C368.223 305.769 368.718 305.454 369.26 305.454H405.735C406.276 305.454 406.772 305.769 407.088 306.025C407.403 306.28 407.493 306.761 407.328 307.062Z" fill="white"/>
<path d="M407.062 289.027C404.958 282.655 398.766 278.026 391.462 278.026H383.001C375.697 278.026 369.505 282.655 367.386 289.027C367.22 289.523 367.311 289.824 367.626 290.245C367.957 290.666 368.453 290.681 368.994 290.681H405.469C406.01 290.681 406.506 290.666 406.822 290.245C407.137 289.824 407.228 289.523 407.062 289.027Z" fill="white"/>
<path d="M367.234 295.175C367.234 296.287 368.121 297.023 369.188 297.023H404.912C405.979 297.023 406.865 296.287 406.865 295.175C406.865 294.062 405.979 293.326 404.912 293.326H369.188C368.121 293.326 367.234 294.062 367.234 295.175Z" fill="white"/>
<path d="M373.638 302.96C375.471 302.96 376.403 302.013 377.23 301.186C377.981 300.435 378.627 299.788 379.95 299.788C381.273 299.788 381.919 300.435 382.67 301.186C383.497 302.013 384.429 302.96 386.277 302.96C388.111 302.96 389.043 302.013 389.884 301.186C390.621 300.435 391.267 299.788 392.589 299.788C393.912 299.788 394.558 300.435 395.31 301.186C396.136 302.013 397.068 302.96 398.917 302.96C400.75 302.96 401.682 302.013 402.509 301.186C403.26 300.435 403.906 299.788 405.229 299.788C405.589 299.788 405.875 299.488 405.875 299.127C405.875 298.766 405.589 298.466 405.229 298.466C403.395 298.466 402.448 299.413 401.622 300.239C400.87 300.991 400.224 301.637 398.917 301.637C397.594 301.637 396.948 300.991 396.196 300.239C395.37 299.413 394.423 298.466 392.589 298.466C390.756 298.466 389.809 299.413 388.982 300.239C388.231 300.991 387.585 301.637 386.277 301.637C384.955 301.637 384.308 300.991 383.557 300.239C382.73 299.413 381.784 298.466 379.95 298.466C378.116 298.466 377.17 299.413 376.343 300.239C375.592 300.991 374.945 301.637 373.638 301.637C372.315 301.637 371.669 300.991 370.918 300.239C370.091 299.413 369.144 298.466 367.311 298.466C366.95 298.466 366.664 298.766 366.664 299.127C366.664 299.488 366.95 299.788 367.311 299.788C368.633 299.788 369.279 300.435 370.031 301.186C370.857 302.013 371.789 302.96 373.638 302.96Z" fill="white"/>
<path d="M362.852 319.701C362.852 320.573 363.558 321.279 364.43 321.279H410.328C411.2 321.279 411.906 320.573 411.906 319.701C411.906 318.83 411.2 318.123 410.328 318.123H364.43C363.558 318.123 362.852 318.83 362.852 319.701Z" fill="white"/>
<path d="M72.8785 411.753C50.3199 408.853 21.7197 401.233 10.2376 379.756C7.5023 374.647 4.76705 364.727 11.6503 360.985C17.9625 357.574 26.1232 361.181 30.7973 365.629C34.2539 368.89 36.9441 376.194 40.8066 378.494C46.4725 381.875 49.5234 372.663 49.4032 368.86C49.1477 360.354 38.6875 356.882 31.7291 355.034C20.2018 351.968 6.76591 349.338 7.4873 336.338C8.20869 323.337 20.8932 315.552 30.632 321.233C38.6725 325.922 37.5453 335.917 43.0309 341.928C47.9003 347.249 49.5985 338.607 49.2829 334.354C48.5766 325.141 40.4759 318.483 34.5094 312.306C27.7614 305.318 20.3221 291.281 27.5059 282.038C31.6389 276.733 42.1442 275.485 48.3511 276.387C78.7398 280.775 58.5859 320.091 64.1165 324.48C69.6322 328.868 74.8623 321.188 74.8473 309.511C74.8322 297.833 76.6207 289.222 88.8092 292.964C100.998 296.691 103.312 327.2 89.3954 338.923C75.4785 350.645 90.2821 363.435 94.0093 355.034C96.7145 348.962 99.074 333.076 106.874 331.333C119.859 328.447 119.664 354.959 115.937 361.135C110.691 369.792 98.8486 371.671 92.2208 379.125C90.2971 381.304 85.9687 386.67 87.652 389.841C89.9965 394.259 96.5642 389.525 98.9688 387.481C104.394 382.882 111.894 367.222 119.528 377.622C128.952 390.457 113.186 409.484 72.8785 411.753Z" fill="url(#paint44_linear_3032_5283)"/>
<g style="mix-blend-mode:soft-light" opacity="0.8">
<path d="M69.6391 409.393C70.1802 409.393 70.601 409.002 70.616 408.476C70.631 408.01 71.2472 361.796 51.0633 306.79C50.8679 306.279 50.3118 306.038 49.8008 306.218C49.3049 306.414 49.0494 306.97 49.2297 307.481C69.2934 362.141 68.6773 407.98 68.6622 408.431C68.6622 408.972 69.083 409.393 69.6241 409.393C69.6341 409.393 69.6391 409.393 69.6391 409.393Z" fill="white"/>
</g>
<path d="M61.3361 391.96C65.0032 388.849 72.7732 393.718 75.9894 395.567C77.868 396.649 80.423 398.287 82.6773 397.34C85.0369 396.333 84.8716 393.853 83.4438 392.095C80.8738 388.939 75.9744 388.082 72.3975 386.549C68.5651 384.896 65.0483 382.657 63.1547 378.779C61.6518 375.698 61.3061 371.145 63.0044 368.109C67.6934 359.693 74.5316 366.26 78.364 371.265C80.2126 373.7 84.3606 377.893 87.5167 375.022C90.8681 371.971 87.9825 366.531 85.3825 364.126C82.001 361 77.8831 358.821 74.1859 356.086C70.8495 353.636 67.4229 350.104 69.6472 345.746C71.3605 342.379 75.6738 340.516 79.3559 340.801C87.8774 341.462 89.2149 353.906 94.8208 358.686C96.8046 360.369 101.313 361.721 103.688 360.053C106.092 358.37 104.529 354.508 103.658 352.388C101.088 346.136 82.6623 325.186 97.9317 322.541C101.779 321.88 107.084 323.097 110.105 325.547C115.801 330.145 118.837 339.283 120.325 346.227C122.699 357.123 122.564 369.236 119.919 380.087C114.103 404.058 100.396 411.753 100.396 411.753C94.4751 413.692 87.0658 414.654 80.934 413.361C73.72 411.828 65.0784 406.493 61.5165 399.82C60.3593 397.671 59.0667 393.899 61.3361 391.96Z" fill="url(#paint45_linear_3032_5283)"/>
</g>
<defs>
<linearGradient id="paint0_linear_3032_5283" x1="98.4268" y1="-347.446" x2="197.354" y2="199.682" gradientUnits="userSpaceOnUse">
<stop stop-color="#444B8C"/>
<stop offset="0.996" stop-color="#26264F"/>
</linearGradient>
<linearGradient id="paint1_linear_3032_5283" x1="289.224" y1="155.369" x2="305.361" y2="244.619" gradientUnits="userSpaceOnUse">
<stop stop-color="#444B8C"/>
<stop offset="0.996" stop-color="#26264F"/>
</linearGradient>
<linearGradient id="paint2_linear_3032_5283" x1="195.422" y1="-12.599" x2="99.5364" y2="234.378" gradientUnits="userSpaceOnUse">
<stop stop-color="#AA80F9"/>
<stop offset="0.996" stop-color="#6165D7"/>
</linearGradient>
<linearGradient id="paint3_linear_3032_5283" x1="164.018" y1="-29.2952" x2="75.9348" y2="197.585" gradientUnits="userSpaceOnUse">
<stop stop-color="#AA80F9"/>
<stop offset="0.996" stop-color="#6165D7"/>
</linearGradient>
<linearGradient id="paint4_linear_3032_5283" x1="268.57" y1="198.677" x2="337.389" y2="303.134" gradientUnits="userSpaceOnUse">
<stop stop-color="#AA80F9"/>
<stop offset="0.996" stop-color="#6165D7"/>
</linearGradient>
<linearGradient id="paint5_linear_3032_5283" x1="280.415" y1="-46.2632" x2="316.197" y2="151.63" gradientUnits="userSpaceOnUse">
<stop stop-color="#AA80F9"/>
<stop offset="0.996" stop-color="#6165D7"/>
</linearGradient>
<linearGradient id="paint6_linear_3032_5283" x1="41.401" y1="9.79542" x2="73.6844" y2="188.342" gradientUnits="userSpaceOnUse">
<stop stop-color="#AA80F9"/>
<stop offset="0.996" stop-color="#6165D7"/>
</linearGradient>
<linearGradient id="paint7_linear_3032_5283" x1="244.378" y1="-30.5806" x2="278.275" y2="156.892" gradientUnits="userSpaceOnUse">
<stop stop-color="#AA80F9"/>
<stop offset="0.996" stop-color="#6165D7"/>
</linearGradient>
<linearGradient id="paint8_linear_3032_5283" x1="2.6409" y1="19.1316" x2="34.5961" y2="195.862" gradientUnits="userSpaceOnUse">
<stop stop-color="#AA80F9"/>
<stop offset="0.996" stop-color="#6165D7"/>
</linearGradient>
<linearGradient id="paint9_linear_3032_5283" x1="14.3968" y1="29.7691" x2="341.884" y2="17.1579" gradientUnits="userSpaceOnUse">
<stop stop-color="#444B8C"/>
<stop offset="0.996" stop-color="#26264F"/>
</linearGradient>
<linearGradient id="paint10_linear_3032_5283" x1="493.519" y1="220.105" x2="139.17" y2="955.09" gradientUnits="userSpaceOnUse">
<stop offset="0.004" stop-color="#E38DDD"/>
<stop offset="1" stop-color="#9571F6"/>
</linearGradient>
<linearGradient id="paint11_linear_3032_5283" x1="171.454" y1="200.301" x2="84.3832" y2="200.301" gradientUnits="userSpaceOnUse">
<stop offset="0.004" stop-color="#E38DDD"/>
<stop offset="1" stop-color="#9571F6"/>
</linearGradient>
<linearGradient id="paint12_linear_3032_5283" x1="167.592" y1="144.263" x2="80.6578" y2="144.263" gradientUnits="userSpaceOnUse">
<stop offset="0.004" stop-color="#E38DDD"/>
<stop offset="1" stop-color="#9571F6"/>
</linearGradient>
<linearGradient id="paint13_linear_3032_5283" x1="168.051" y1="174.943" x2="81.4955" y2="174.943" gradientUnits="userSpaceOnUse">
<stop offset="0.004" stop-color="#E38DDD"/>
<stop offset="1" stop-color="#9571F6"/>
</linearGradient>
<linearGradient id="paint14_linear_3032_5283" x1="166.725" y1="185.643" x2="80.9662" y2="185.643" gradientUnits="userSpaceOnUse">
<stop offset="0.004" stop-color="#E38DDD"/>
<stop offset="1" stop-color="#9571F6"/>
</linearGradient>
<linearGradient id="paint15_linear_3032_5283" x1="200.098" y1="309.714" x2="73.4728" y2="309.714" gradientUnits="userSpaceOnUse">
<stop offset="0.004" stop-color="#E38DDD"/>
<stop offset="1" stop-color="#9571F6"/>
</linearGradient>
<linearGradient id="paint16_linear_3032_5283" x1="197.217" y1="245.051" x2="67.7361" y2="245.051" gradientUnits="userSpaceOnUse">
<stop offset="0.004" stop-color="#E38DDD"/>
<stop offset="1" stop-color="#9571F6"/>
</linearGradient>
<linearGradient id="paint17_linear_3032_5283" x1="241.89" y1="287.122" x2="225.431" y2="287.122" gradientUnits="userSpaceOnUse">
<stop stop-color="#FF9085"/>
<stop offset="1" stop-color="#FB6FBB"/>
</linearGradient>
<linearGradient id="paint18_linear_3032_5283" x1="240.543" y1="263.104" x2="212.565" y2="263.104" gradientUnits="userSpaceOnUse">
<stop stop-color="#FF9085"/>
<stop offset="1" stop-color="#FB6FBB"/>
</linearGradient>
<linearGradient id="paint19_linear_3032_5283" x1="387.259" y1="366.121" x2="331.857" y2="366.121" gradientUnits="userSpaceOnUse">
<stop stop-color="#444B8C"/>
<stop offset="0.996" stop-color="#26264F"/>
</linearGradient>
<linearGradient id="paint20_linear_3032_5283" x1="368.787" y1="385.443" x2="350.832" y2="385.443" gradientUnits="userSpaceOnUse">
<stop stop-color="#444B8C"/>
<stop offset="0.996" stop-color="#26264F"/>
</linearGradient>
<linearGradient id="paint21_linear_3032_5283" x1="399.424" y1="330.333" x2="405.031" y2="343.663" gradientUnits="userSpaceOnUse">
<stop stop-color="#AB316D"/>
<stop offset="1" stop-color="#792D3D"/>
</linearGradient>
<linearGradient id="paint22_linear_3032_5283" x1="310.703" y1="310.408" x2="308.878" y2="337.917" gradientUnits="userSpaceOnUse">
<stop stop-color="#AB316D"/>
<stop offset="1" stop-color="#792D3D"/>
</linearGradient>
<linearGradient id="paint23_linear_3032_5283" x1="340.159" y1="321.285" x2="278.962" y2="321.285" gradientUnits="userSpaceOnUse">
<stop stop-color="#AB316D"/>
<stop offset="1" stop-color="#792D3D"/>
</linearGradient>
<linearGradient id="paint24_linear_3032_5283" x1="399.062" y1="373.119" x2="366.571" y2="373.119" gradientUnits="userSpaceOnUse">
<stop stop-color="#AB316D"/>
<stop offset="1" stop-color="#792D3D"/>
</linearGradient>
<linearGradient id="paint25_linear_3032_5283" x1="362.831" y1="388.182" x2="306.404" y2="388.182" gradientUnits="userSpaceOnUse">
<stop stop-color="#AB316D"/>
<stop offset="1" stop-color="#792D3D"/>
</linearGradient>
<linearGradient id="paint26_linear_3032_5283" x1="211.825" y1="366.121" x2="156.423" y2="366.121" gradientUnits="userSpaceOnUse">
<stop stop-color="#444B8C"/>
<stop offset="0.996" stop-color="#26264F"/>
</linearGradient>
<linearGradient id="paint27_linear_3032_5283" x1="193.352" y1="385.443" x2="175.397" y2="385.443" gradientUnits="userSpaceOnUse">
<stop stop-color="#444B8C"/>
<stop offset="0.996" stop-color="#26264F"/>
</linearGradient>
<linearGradient id="paint28_linear_3032_5283" x1="206.969" y1="359.846" x2="175.02" y2="393.882" gradientUnits="userSpaceOnUse">
<stop stop-color="#AB316D"/>
<stop offset="1" stop-color="#792D3D"/>
</linearGradient>
<linearGradient id="paint29_linear_3032_5283" x1="217.648" y1="352.457" x2="157.801" y2="352.457" gradientUnits="userSpaceOnUse">
<stop stop-color="#FF9085"/>
<stop offset="1" stop-color="#FB6FBB"/>
</linearGradient>
<linearGradient id="paint30_linear_3032_5283" x1="403.731" y1="296.683" x2="189.77" y2="296.683" gradientUnits="userSpaceOnUse">
<stop stop-color="#FF9085"/>
<stop offset="1" stop-color="#FB6FBB"/>
</linearGradient>
<linearGradient id="paint31_linear_3032_5283" x1="241.753" y1="297.576" x2="219.891" y2="297.576" gradientUnits="userSpaceOnUse">
<stop stop-color="#FF9085"/>
<stop offset="1" stop-color="#FB6FBB"/>
</linearGradient>
<linearGradient id="paint32_linear_3032_5283" x1="286.86" y1="381.427" x2="239.38" y2="381.427" gradientUnits="userSpaceOnUse">
<stop stop-color="#AB316D"/>
<stop offset="1" stop-color="#792D3D"/>
</linearGradient>
<linearGradient id="paint33_linear_3032_5283" x1="405.584" y1="345.026" x2="313.648" y2="345.026" gradientUnits="userSpaceOnUse">
<stop stop-color="#FF9085"/>
<stop offset="1" stop-color="#FB6FBB"/>
</linearGradient>
<linearGradient id="paint34_linear_3032_5283" x1="405.586" y1="345.553" x2="313.65" y2="345.553" gradientUnits="userSpaceOnUse">
<stop stop-color="#FF9085"/>
<stop offset="1" stop-color="#FB6FBB"/>
</linearGradient>
<linearGradient id="paint35_linear_3032_5283" x1="360.226" y1="124.402" x2="347.387" y2="317.894" gradientUnits="userSpaceOnUse">
<stop stop-color="#FF9085"/>
<stop offset="1" stop-color="#FB6FBB"/>
</linearGradient>
<linearGradient id="paint36_linear_3032_5283" x1="387.796" y1="315.202" x2="386.442" y2="335.605" gradientUnits="userSpaceOnUse">
<stop stop-color="#AB316D"/>
<stop offset="1" stop-color="#792D3D"/>
</linearGradient>
<linearGradient id="paint37_linear_3032_5283" x1="387.513" y1="252.905" x2="386.299" y2="271.206" gradientUnits="userSpaceOnUse">
<stop stop-color="#FF9085"/>
<stop offset="1" stop-color="#FB6FBB"/>
</linearGradient>
<linearGradient id="paint38_linear_3032_5283" x1="188.894" y1="307.111" x2="186.66" y2="340.775" gradientUnits="userSpaceOnUse">
<stop offset="0.004" stop-color="#F36F56"/>
<stop offset="1" stop-color="#FFC444"/>
</linearGradient>
<linearGradient id="paint39_linear_3032_5283" x1="222.495" y1="263.272" x2="212.73" y2="263.272" gradientUnits="userSpaceOnUse">
<stop offset="0.004" stop-color="#F36F56"/>
<stop offset="1" stop-color="#FFC444"/>
</linearGradient>
<linearGradient id="paint40_linear_3032_5283" x1="236.223" y1="275.387" x2="229.365" y2="275.387" gradientUnits="userSpaceOnUse">
<stop stop-color="#AB316D"/>
<stop offset="1" stop-color="#792D3D"/>
</linearGradient>
<linearGradient id="paint41_linear_3032_5283" x1="254.175" y1="281.633" x2="232.573" y2="276.447" gradientUnits="userSpaceOnUse">
<stop stop-color="#AB316D"/>
<stop offset="1" stop-color="#792D3D"/>
</linearGradient>
<linearGradient id="paint42_linear_3032_5283" x1="252.55" y1="242.379" x2="240.242" y2="239.425" gradientUnits="userSpaceOnUse">
<stop stop-color="#AB316D"/>
<stop offset="1" stop-color="#792D3D"/>
</linearGradient>
<linearGradient id="paint43_linear_3032_5283" x1="246.444" y1="256.828" x2="233.454" y2="253.71" gradientUnits="userSpaceOnUse">
<stop stop-color="#AB316D"/>
<stop offset="1" stop-color="#792D3D"/>
</linearGradient>
<linearGradient id="paint44_linear_3032_5283" x1="-39.4919" y1="224.807" x2="22.965" y2="708.342" gradientUnits="userSpaceOnUse">
<stop stop-color="#FFC444"/>
<stop offset="0.098" stop-color="#FEBC46"/>
<stop offset="0.996" stop-color="#F36F56"/>
</linearGradient>
<linearGradient id="paint45_linear_3032_5283" x1="7.45466" y1="291.204" x2="48.7918" y2="611.232" gradientUnits="userSpaceOnUse">
<stop stop-color="#AA80F9"/>
<stop offset="0.996" stop-color="#6165D7"/>
</linearGradient>
<clipPath id="clip0_3032_5283">
<rect width="432" height="422" fill="white"/>
</clipPath>
</defs>
</svg>
