<svg width="72" height="72" viewBox="0 0 72 72" fill="none" xmlns="http://www.w3.org/2000/svg">
<path d="M40.8851 66.7895C57.9495 64.0316 69.5473 47.9624 66.7894 30.898C64.0315 13.8336 47.9623 2.23582 30.8979 4.9937C13.8335 7.75159 2.23571 23.8208 4.9936 40.8852C7.75149 57.9496 23.8207 69.5474 40.8851 66.7895Z" fill="white" stroke="#263238" stroke-width="1.00285" stroke-miterlimit="10"/>
<path d="M37.2227 40.0469L42.7727 44.4269" stroke="#263238" stroke-miterlimit="10"/>
<path d="M22.625 15.217C22.625 15.217 23.495 11.127 24.085 10.217" stroke="#263238" stroke-miterlimit="10"/>
<path d="M20.2831 43.8369L19.7031 46.4669" stroke="#263238" stroke-miterlimit="10"/>
<path d="M10.9356 29.5271L6.26562 31.2771" stroke="#263238" stroke-miterlimit="10"/>
<path d="M38.3945 22.5171C38.3945 22.5171 45.1145 20.7671 48.3245 20.7671" stroke="#263238" stroke-miterlimit="10"/>
<path d="M59.2459 14.6069L53.8359 20.9769L61.6359 33.6269L66.6359 32.4169C66.1224 25.8471 63.5345 19.6104 59.2459 14.6069Z" fill="#263238" stroke="#263238" stroke-miterlimit="10"/>
<path d="M22.7162 17.887L13.1562 29.147L20.9162 41.727L35.2762 38.227L36.3862 23.497L22.7162 17.887Z" fill="#263238" stroke="#263238" stroke-miterlimit="10"/>
<path d="M19.3036 48.3569L7.68359 48.9869C10.9734 55.4352 16.3986 60.5422 23.0336 63.4369L24.6336 62.1369L19.3036 48.3569Z" fill="#263238" stroke="#263238" stroke-miterlimit="10"/>
<path d="M62.4848 50.4769L58.8848 44.0769L44.3949 47.0769L42.7148 61.7569L47.1848 63.7569C53.6136 61.1449 58.9946 56.4744 62.4848 50.4769Z" fill="#263238" stroke="#263238" stroke-miterlimit="10"/>
<path d="M38.3864 3.75695C37.4364 3.66695 36.4664 3.61697 35.4864 3.61697C31.2128 3.61168 26.9843 4.49005 23.0664 6.19695L23.9964 7.70696L38.3564 4.20696L38.3864 3.75695Z" fill="#263238" stroke="#263238" stroke-miterlimit="10"/>
</svg>
