<svg width="1184" height="694" viewBox="0 0 1184 694" fill="none" xmlns="http://www.w3.org/2000/svg">
<path fill-rule="evenodd" clip-rule="evenodd" d="M50.0938 610.172H1173.18V693.617H50.0938V610.172Z" fill="url(#paint0_linear_500_1442)"/>
<path opacity="0.39" fill-rule="evenodd" clip-rule="evenodd" d="M1173.18 611.259L144.754 609.178C356.287 595.85 408.044 407.462 505.842 394.631C618.427 379.844 656.857 592.433 806.07 486.371C895.2 422.995 909.491 600.945 1173.18 611.259Z" fill="#E83323"/>
<g opacity="0.66">
<path d="M741.699 610.98H635.793V610.141C635.793 522.533 564.526 451.235 476.887 451.235C389.248 451.235 318.012 522.564 318.012 610.172V611.011H212.105V610.172C212.105 464.159 330.904 345.36 476.918 345.36C622.931 345.36 741.73 464.159 741.73 610.172V610.98H741.699ZM637.439 609.333H740.052C739.618 464.594 621.719 347.006 476.918 347.006C332.116 347.006 214.218 464.594 213.783 609.333H316.396C316.831 521.197 388.688 449.62 476.918 449.62C565.147 449.62 637.004 521.197 637.439 609.333Z" fill="white"/>
</g>
<g opacity="0.66">
<path fill-rule="evenodd" clip-rule="evenodd" d="M524.949 610.172C524.949 516.071 601.249 439.771 695.35 439.771C789.451 439.771 865.751 516.071 865.751 610.172H798.46C798.46 553.227 752.295 507.062 695.35 507.062C638.405 507.062 592.24 553.227 592.24 610.172H524.949Z" fill="white"/>
</g>
<path opacity="0.24" d="M1042.38 276.906C1063.81 255.468 1063.81 220.71 1042.37 199.273C1020.94 177.835 986.179 177.836 964.742 199.274C943.304 220.712 943.305 255.47 964.743 276.907C986.181 298.345 1020.94 298.344 1042.38 276.906Z" fill="white"/>
<g opacity="0.53">
<path d="M1037.89 221.87C1016.58 221.87 999.211 204.534 999.211 183.192C999.211 161.88 1016.55 144.514 1037.89 144.514C1059.2 144.514 1076.57 161.849 1076.57 183.192C1076.54 204.503 1059.2 221.87 1037.89 221.87ZM1037.89 146.191C1017.48 146.191 1000.86 162.812 1000.86 183.223C1000.86 203.634 1017.48 220.254 1037.89 220.254C1058.3 220.254 1074.92 203.634 1074.92 183.223C1074.89 162.781 1058.3 146.191 1037.89 146.191Z" fill="#E83323"/>
</g>
<g opacity="0.7">
<path d="M1144.23 368.784C1127.61 368.784 1114.1 355.27 1114.1 338.649C1114.1 322.029 1127.61 308.515 1144.23 308.515C1160.85 308.515 1174.37 322.029 1174.37 338.649C1174.37 355.27 1160.85 368.784 1144.23 368.784ZM1144.23 310.161C1128.54 310.161 1115.74 322.93 1115.74 338.649C1115.74 354.338 1128.51 367.137 1144.23 367.137C1159.95 367.137 1172.72 354.369 1172.72 338.649C1172.72 322.93 1159.95 310.161 1144.23 310.161Z" fill="white"/>
</g>
<g opacity="0.7">
<path fill-rule="evenodd" clip-rule="evenodd" d="M982.156 169.398C987.655 169.398 992.159 164.893 992.159 159.395C992.159 153.896 987.655 149.391 982.156 149.391C976.657 149.391 972.152 153.896 972.152 159.395C972.152 164.893 976.626 169.398 982.156 169.398Z" fill="white"/>
</g>
<path opacity="0.55" d="M1085.42 576.309C1031.33 576.216 987.406 532.195 987.406 478.17C987.406 424.145 1031.33 380.123 1085.36 380.03H1085.55C1139.57 380.123 1183.5 424.176 1183.5 478.17C1183.5 532.195 1139.57 576.216 1085.55 576.309H1085.42ZM1085.36 380.869V381.708C1032.27 381.801 989.053 425.108 989.053 478.201C989.053 531.294 1032.27 574.601 1085.36 574.694L1085.45 575.533V574.694H1085.51C1138.64 574.601 1181.85 531.294 1181.85 478.201C1181.85 425.108 1138.64 381.801 1085.55 381.708L1085.36 380.869ZM1085.45 537.88C1052.58 537.818 1025.84 511.038 1025.84 478.17C1025.84 445.301 1052.58 418.522 1085.45 418.46C1118.32 418.522 1145.07 445.301 1145.07 478.17C1145.07 511.038 1118.32 537.818 1085.45 537.88ZM1085.45 420.137C1053.49 420.2 1027.48 446.233 1027.48 478.201C1027.48 510.169 1053.49 536.202 1085.45 536.265C1117.42 536.202 1143.42 510.169 1143.42 478.201C1143.42 446.202 1117.42 420.168 1085.45 420.137Z" fill="white"/>
<path opacity="0.21" d="M107.425 299.644C127.201 279.868 127.2 247.805 107.424 228.03C87.6481 208.255 55.5855 208.255 35.8102 228.031C16.0349 247.807 16.0355 279.87 35.8115 299.645C55.5875 319.42 87.6501 319.42 107.425 299.644Z" fill="#E83323"/>
<path opacity="0.57" fill-rule="evenodd" clip-rule="evenodd" d="M157.801 314.013H157.895C215.554 313.889 262.279 267.134 262.279 209.443C262.279 151.752 215.554 104.966 157.895 104.873H157.708C100.048 104.997 53.3242 151.752 53.3242 209.443C53.3242 267.134 100.048 313.92 157.708 314.013H157.801ZM94.6118 209.443C94.6118 174.524 122.882 146.222 157.77 146.16C192.658 146.222 220.929 174.524 220.929 209.443C220.929 244.362 192.658 272.664 157.77 272.726C122.882 272.664 94.6118 244.362 94.6118 209.443Z" fill="white"/>
<g opacity="0.7">
<path d="M624.576 327.738C636.017 316.297 636.016 297.748 624.575 286.308C613.134 274.867 594.585 274.867 583.145 286.308C571.704 297.749 571.704 316.298 583.145 327.739C594.586 339.179 613.135 339.179 624.576 327.738Z" fill="white"/>
</g>
<g opacity="0.7">
<path d="M251.415 34.6476C257.699 28.363 257.699 18.1737 251.415 11.8893C245.13 5.6049 234.941 5.60509 228.656 11.8897C222.372 18.1744 222.372 28.3636 228.657 34.648C234.941 40.9324 245.131 40.9322 251.415 34.6476Z" fill="white"/>
</g>
<g opacity="0.7">
<path d="M530.385 493.827C513.764 493.827 500.25 480.313 500.25 463.693C500.25 447.072 513.764 433.558 530.385 433.558C547.005 433.558 560.519 447.072 560.519 463.693C560.519 480.313 547.005 493.827 530.385 493.827ZM530.385 435.236C514.696 435.236 501.897 448.004 501.897 463.724C501.897 479.412 514.665 492.212 530.385 492.212C546.073 492.212 558.873 479.444 558.873 463.724C558.873 448.004 546.073 435.236 530.385 435.236Z" fill="white"/>
</g>
<path d="M1132.15 536.792H720.203V344.832H1132.15V536.792ZM721.819 535.146H1130.47V346.478H721.819V535.146Z" fill="#29426C"/>
<path fill-rule="evenodd" clip-rule="evenodd" d="M1131.31 610.172H1112.45L1093.62 535.954H1131.31V610.172Z" fill="#FBEDEC"/>
<path d="M1132.15 610.98H1111.83L1092.57 535.146H1132.15V610.98ZM1113.1 609.333H1130.5V536.793H1094.68L1113.1 609.333Z" fill="#29426C"/>
<path fill-rule="evenodd" clip-rule="evenodd" d="M721.012 610.172H739.869L758.696 535.954H721.012V610.172Z" fill="#FBEDEC"/>
<path d="M740.489 610.98H720.172V535.146H759.751L740.489 610.98ZM721.818 609.333H739.216L757.638 536.793H721.818V609.333Z" fill="#29426C"/>
<path fill-rule="evenodd" clip-rule="evenodd" d="M932.078 357.507H1119.44V524.086H932.078V357.507Z" fill="#2B4777"/>
<path d="M921.049 524.925H732.039V356.699H921.049V524.925ZM733.686 523.278H919.402V358.345H733.686V523.278Z" fill="#29426C"/>
<path d="M961.683 407.959C955.439 407.959 950.344 402.864 950.344 396.62C950.344 390.375 955.439 385.28 961.683 385.28C967.927 385.28 973.022 390.375 973.022 396.62C973.022 402.864 967.927 407.959 961.683 407.959ZM961.683 386.927C956.34 386.927 951.99 391.276 951.99 396.62C951.99 401.963 956.34 406.312 961.683 406.312C967.027 406.312 971.376 401.963 971.376 396.62C971.376 391.276 967.027 386.927 961.683 386.927Z" fill="white"/>
<path d="M890.636 407.959C884.392 407.959 879.297 402.864 879.297 396.62C879.297 390.375 884.392 385.28 890.636 385.28C896.881 385.28 901.976 390.375 901.976 396.62C901.944 402.864 896.881 407.959 890.636 407.959ZM890.636 386.927C885.293 386.927 880.943 391.276 880.943 396.62C880.943 401.963 885.293 406.312 890.636 406.312C895.98 406.312 900.329 401.963 900.329 396.62C900.298 391.276 895.98 386.927 890.636 386.927Z" fill="#29426C"/>
<path fill-rule="evenodd" clip-rule="evenodd" d="M1061.07 345.639H1036.65C1036.65 336.133 1019.65 338.276 1018.35 318.083C1016.45 288.974 1031.8 291.77 1037.27 261.915H1060.44C1065.91 291.77 1080.95 289.471 1079.36 318.083C1078.25 337.966 1061.07 336.133 1061.07 345.639Z" fill="#29426C"/>
<path fill-rule="evenodd" clip-rule="evenodd" d="M1018.69 321.221C1018.54 320.227 1018.41 319.202 1018.32 318.083C1018.29 317.617 1018.26 317.182 1018.26 316.747H1079.43C1079.4 317.182 1079.4 317.617 1079.37 318.083C1079.3 319.202 1079.18 320.227 1079.02 321.221H1018.69ZM1018.2 313.517C1018.2 310.068 1018.47 307.148 1018.94 304.569H1078.59C1079.12 307.148 1079.43 310.099 1079.46 313.517H1018.2Z" fill="#FBEDEC"/>
<path fill-rule="evenodd" clip-rule="evenodd" d="M1004.49 286.302H1018.19V345.639H1004.49V286.302Z" fill="#2B4777"/>
<path fill-rule="evenodd" clip-rule="evenodd" d="M990.793 272.104H1004.49V345.639H990.793V272.104Z" fill="#E83323"/>
<path d="M1005.3 346.478H989.953V271.297H1005.3V346.478ZM991.631 344.832H1003.68V272.943H991.631V344.832Z" fill="#29426C"/>
<path fill-rule="evenodd" clip-rule="evenodd" d="M977.094 275.18H990.794V345.639H977.094V275.18Z" fill="#FBEDEC"/>
<path d="M991.632 346.478H976.285V274.372H991.632V346.478ZM977.932 344.831H989.986V276.019H977.932V344.831Z" fill="#29426C"/>
<path fill-rule="evenodd" clip-rule="evenodd" d="M906.633 331.784H977.092V345.484H906.633V331.784Z" fill="#576D91"/>
<path d="M977.934 346.322H905.828V330.976H977.934V346.322ZM907.475 344.676H976.287V332.622H907.475V344.676Z" fill="#29426C"/>
<path d="M964.852 332.622H892.746V317.275H964.852V332.622ZM894.393 330.976H963.205V318.922H894.393V330.976Z" fill="#29426C"/>
<path fill-rule="evenodd" clip-rule="evenodd" d="M510.285 185.025L549.522 188.753C555.456 189.312 565.863 183.844 570.678 189.343C572.076 190.928 571.486 194.656 572.325 195.743C580.091 205.995 588.945 203.323 590.623 205.436C593.202 208.667 582.887 213.637 570.865 211.369C560.053 209.319 554.648 204.721 545.638 205.56L513.516 204.504L510.285 185.025ZM474.744 260.424L498.417 291.925C502.984 294.007 512.615 300.406 512.459 302.643C511.962 304.942 500.996 295.84 500.84 298.201C506.308 308.049 511.962 321.594 510.409 322.775C509.322 323.613 503.885 310.503 503.015 311.031C501.555 311.87 509.539 328.833 507.209 329.019C505.065 329.174 499.163 313.206 498.417 314.2C496.926 313.299 504.351 327.776 502.456 328.833C501.368 329.454 497.112 320.538 493.353 315.132C489.625 309.758 495.963 327.59 494.751 327.807C491.241 328.46 485.742 308.794 483.381 300.344L462.535 275.895L474.744 260.424Z" fill="#F0B1AB"/>
<path fill-rule="evenodd" clip-rule="evenodd" d="M450.916 186.236L492.95 272.508C498.169 280.586 474.682 296.896 467.413 294.814C451.227 282.325 420.067 244.89 397.42 219.664C359.363 177.258 392.977 75.3903 430.412 94.5585C455.11 107.172 439.763 163.371 450.916 186.236Z" fill="#576D91"/>
<path fill-rule="evenodd" clip-rule="evenodd" d="M487.355 561.521L493.165 586.53L498.943 596.005L472.63 595.633L466.975 587.151L465.453 567.983L487.355 561.521Z" fill="#EDB8B3"/>
<path fill-rule="evenodd" clip-rule="evenodd" d="M466.977 587.151C475.862 593.8 484.716 593.831 493.166 587.151L536.225 601.442C541.382 603.151 540.512 610.172 536.38 610.172H460.857C460.204 593.178 466.977 594.825 466.977 587.151Z" fill="#2B4777"/>
<path fill-rule="evenodd" clip-rule="evenodd" d="M382.289 561.521L388.098 586.53L393.877 596.005L367.563 595.633L361.909 587.151L360.387 567.983L382.289 561.521Z" fill="#EDB8B3"/>
<path fill-rule="evenodd" clip-rule="evenodd" d="M361.911 587.151C370.796 593.8 379.65 593.831 388.1 587.151L431.158 601.442C436.315 603.151 435.445 610.172 431.314 610.172H355.79C355.107 593.178 361.911 594.825 361.911 587.151Z" fill="#2B4777"/>
<path fill-rule="evenodd" clip-rule="evenodd" d="M355.789 221.808L351.844 574.818C362.686 581.467 376.324 581.653 391.423 572.923L408.447 294.597L455.855 575.346C473.066 580.255 480.118 579.416 496.49 570.935L446.597 221.093L355.789 221.808Z" fill="#29426C"/>
<path d="M409.97 274.652L409.441 273.098C422.52 268.656 421.682 250.513 421.682 250.327L423.328 250.233C423.328 250.451 424.229 269.805 409.97 274.652Z" fill="#142C55"/>
<path d="M407.676 284.112L411.389 252.892L413.024 253.087L409.311 284.306L407.676 284.112Z" fill="#142C55"/>
<path fill-rule="evenodd" clip-rule="evenodd" d="M349.951 252.936C357.127 270.737 450.203 263.25 450.731 240.013C451.01 228.269 436.254 195.898 437.869 182.912C441.722 151.628 444.642 122.922 435.073 99.7776C433.862 96.8262 429.171 93.2225 424.511 90.675C421.808 89.246 420.223 89.0596 418.142 89.0596C418.142 89.0596 405.467 89.1528 399.844 89.9605C397.793 90.2401 388.722 92.1662 384.186 93.1604C364.024 97.6029 356.288 135.815 351.504 188.753C349.267 213.544 349.329 251.383 349.951 252.936Z" fill="#576D91"/>
<path fill-rule="evenodd" clip-rule="evenodd" d="M420.874 89.2462C420.968 88.3142 415.22 86.7919 424.944 73.0915C426.435 70.979 430.319 72.377 430.785 70.6683C431.996 66.1015 427.461 59.2668 429.418 53.9544C430.785 50.2264 424.261 47.8033 419.352 46.6227C411.306 44.6655 397.326 49.6983 402.266 67.8102C403.446 72.1595 407.05 76.9748 406.863 89.2772C406.863 93.1916 409.442 97.8517 412.797 97.8827C417.146 97.9449 422.366 92.3529 420.874 89.2462Z" fill="#F0B1AB"/>
<path d="M418.515 224.821C409.319 204.752 412.332 187.541 415.532 169.336C419.043 149.484 422.646 128.949 412.674 100.958L413.544 100.647C423.609 128.856 419.788 150.447 416.433 169.522C413.264 187.572 410.251 204.659 419.322 224.448L418.515 224.821Z" fill="white"/>
<path fill-rule="evenodd" clip-rule="evenodd" d="M406.895 88.9354L412.829 97.9136C407.64 97.9758 404.627 101.02 402.887 105.898L401.645 89.7431L406.895 88.9354ZM420.316 88.4072L412.829 97.9136C417.302 98.7524 420.005 102.201 421.931 106.861L424.51 90.7062L420.316 88.4072Z" fill="#2E3F5B"/>
<path fill-rule="evenodd" clip-rule="evenodd" d="M428.051 164.645L526.129 178.842C535.666 180.24 532.435 208.666 526.067 212.736C506.029 216.651 457.316 215.439 423.422 215.843C366.446 216.495 345.072 108.663 384.154 93.1295C409.939 82.8775 402.856 160.979 428.051 164.645Z" fill="#576D91"/>
<path fill-rule="evenodd" clip-rule="evenodd" d="M429.696 57.2475C426.185 58.9251 417.797 45.9392 411.77 59.5153C411.304 60.5405 410.465 64.2064 406.023 61.1619C401.58 58.1173 400.742 65.9151 405.184 65.6355C409.627 65.3559 405.184 74.4584 403.475 73.2468C401.767 72.0352 383.686 58.5212 406.147 46.7159C429.385 14.3133 451.194 52.8671 429.696 57.2475Z" fill="#0E1623"/>
<path d="M446.596 168.155L428.049 165.484C426.589 165.608 415.436 165.39 407.607 132.336C399.934 95.0245 392.074 93.8129 392.012 93.7818L392.043 92.1353C392.975 92.1353 401.238 93.2847 409.192 131.963C417.02 165.142 427.801 163.837 427.894 163.806L428.018 163.775L428.142 163.806L446.782 166.509L446.596 168.155ZM445.415 249.954L444.639 248.494C453.493 243.678 449.205 233.302 449.019 232.867L444.235 216.029L445.819 215.594L450.572 232.339C450.572 232.37 455.543 244.424 445.415 249.954Z" fill="#B76962"/>
<g opacity="0.38">
<path fill-rule="evenodd" clip-rule="evenodd" d="M452.127 259.678L449.704 244.051C449.704 244.051 447.933 254.925 410.343 260.889C372.752 266.854 355.23 257.224 355.23 257.224V271.483C355.23 271.483 380.27 277.199 406.894 275.149C407.454 280.958 408.479 294.566 408.479 294.566L417.706 349.243C417.706 349.243 429.79 286.519 439.639 267.444C444.174 265.394 448.368 262.816 452.127 259.678Z" fill="#142C55"/>
</g>
<path d="M378.529 301.214L378.156 299.599C393.006 296.181 390.956 281.766 390.863 281.145L392.478 280.896C392.509 281.083 394.839 297.455 378.529 301.214Z" fill="#142C55"/>
<path d="M422.117 68.1828C419.228 68.1828 416.836 65.8218 416.805 62.9326C416.805 61.5035 417.333 60.1676 418.327 59.1735C419.321 58.1483 420.657 57.5891 422.055 57.5891H422.117C425.006 57.5891 427.398 59.9502 427.43 62.8394C427.461 65.7596 425.1 68.1828 422.179 68.1828H422.117ZM422.117 58.49H422.086C420.905 58.49 419.818 58.956 419.01 59.7948C418.203 60.6336 417.737 61.721 417.768 62.9015C417.799 65.2936 419.756 67.2198 422.148 67.2198H422.179C424.602 67.1887 426.529 65.2004 426.498 62.8083C426.466 60.4162 424.509 58.49 422.117 58.49ZM434.854 68.0586C431.965 68.0586 429.573 65.6975 429.542 62.8083C429.511 59.888 431.872 57.4648 434.792 57.4648H434.854C437.744 57.4648 440.136 59.8259 440.167 62.7151C440.167 64.1442 439.639 65.48 438.645 66.4742C437.65 67.4994 436.315 68.0586 434.917 68.0586H434.854ZM434.823 58.3658C432.4 58.3968 430.474 60.3851 430.505 62.7772C430.536 65.1694 432.493 67.0955 434.886 67.0955H434.917C436.097 67.0955 437.184 66.6295 437.992 65.7907C438.8 64.9519 439.266 63.8646 439.235 62.684C439.204 60.2919 437.247 58.3658 434.854 58.3658H434.823Z" fill="#0E1623"/>
<path d="M426.938 62.3462L430.013 62.3141L430.022 63.2461L426.947 63.2781L426.938 62.3462Z" fill="#0E1623"/>
<path fill-rule="evenodd" clip-rule="evenodd" d="M367.128 109.439C367.128 109.439 361.35 120.126 358.274 138.021C355.199 155.915 346.718 209.319 349.576 246.723C349.576 246.723 348.147 254.894 354.391 257.441C360.604 259.989 383.625 269.091 417.208 259.709C417.208 259.709 446.069 255.608 450.511 242.684C450.511 242.684 450.729 235.85 448.741 228.922C446.783 221.963 445.044 215.843 445.044 215.843C445.044 215.843 420.687 216.433 416.245 215.439C411.833 214.414 394.001 213.823 373.124 178.687C373.093 178.656 358.958 150.882 367.128 109.439Z" fill="#2E3F5B"/>
<path d="M367.941 579.646L377.771 263.36L378.702 263.389L368.873 579.675L367.941 579.646Z" fill="white"/>
<path d="M445.419 249.954L444.642 248.494C453.496 243.679 449.209 233.302 449.023 232.867L444.238 216.029L445.823 215.594L450.576 232.339C450.576 232.37 455.547 244.424 445.419 249.954Z" fill="#B76962"/>
<path d="M468.096 216.775C456.229 216.775 447.53 216.557 447.312 216.526L447.344 214.88C447.872 214.88 500.188 216.278 524.265 212.208L524.544 213.823C510.098 216.278 485.618 216.775 468.096 216.775ZM516.374 209.816L514.914 209.07C522.804 193.288 516.684 184.186 516.622 184.092L517.958 183.129C518.238 183.564 524.731 193.102 516.374 209.816Z" fill="#2E3F5B"/>
<path d="M530.975 205.187L529.794 204.845C532.186 196.581 531.161 187.386 531.161 187.293L532.404 187.137C532.435 187.541 533.429 196.706 530.975 205.187ZM478.317 292.515L477.727 291.428C485.493 287.141 489.811 281.922 489.843 281.891L490.806 282.667C490.619 282.885 486.301 288.104 478.317 292.515Z" fill="#173A74"/>
<path d="M442.06 129.167L440.414 129.074C441.035 118.48 436.437 104.686 436.375 104.531L437.928 104.003C438.146 104.562 442.713 118.263 442.06 129.167Z" fill="#2E3F5B"/>
<path d="M368.899 580.13C364.363 580.13 361.319 579.385 361.07 579.323L361.381 578.111C361.505 578.142 373.248 580.969 385.364 575.284L385.893 576.402C379.586 579.385 373.497 580.13 368.899 580.13ZM471.792 579.167C467.878 579.167 465.827 578.329 465.672 578.266L466.138 577.117C466.231 577.148 474.308 580.379 489.997 573.389L490.494 574.507C482.168 578.235 475.924 579.167 471.792 579.167ZM479.931 592.557C471.978 592.557 466.635 587.68 466.542 587.617L467.38 586.717C467.846 587.151 478.751 597.031 492.793 586.685L493.539 587.68C488.568 591.314 483.939 592.557 479.931 592.557ZM374.398 593.023C366.414 593.023 361.505 587.649 361.443 587.555L362.375 586.748C362.779 587.214 372.751 598.025 387.726 586.654L388.471 587.649C383.159 591.687 378.406 593.023 374.398 593.023ZM417.55 75.763C416.959 75.763 416.431 75.6698 415.903 75.4834C413.666 74.6757 412.703 72.4078 412.641 72.3146L413.79 71.8486C413.79 71.8797 414.598 73.7126 416.338 74.334C417.456 74.7378 418.73 74.5514 420.159 73.8369L420.718 74.9242C419.6 75.4834 418.544 75.763 417.55 75.763Z" fill="#173A74"/>
<path fill-rule="evenodd" clip-rule="evenodd" d="M359.082 588.612L396.3 600.945Z" fill="#2B4777"/>
<path d="M358.797 589.427L359.315 587.864L396.527 600.211L396.008 601.773L358.797 589.427Z" fill="white"/>
<path d="M466.665 283.226C465.857 283.226 465.05 283.195 464.18 283.102L464.335 281.456C480.987 283.071 485.025 266.823 485.057 266.637L486.672 267.01C486.641 267.196 482.664 283.226 466.665 283.226Z" fill="#2E3F5B"/>
<path d="M415.344 270.234L416.257 270.048L478.491 575.749L477.578 575.935L415.344 270.234Z" fill="white"/>
<path fill-rule="evenodd" clip-rule="evenodd" d="M416.523 150.199L445.975 125.066C447.714 120.468 453.431 110.62 455.636 110.62C457.904 110.962 449.672 122.27 451.971 122.27C461.291 116.305 474.214 109.937 475.488 111.366C476.358 112.36 463.838 118.511 464.397 119.35C465.329 120.717 481.453 111.863 481.763 114.162C482.074 116.243 466.758 123.016 467.783 123.699C467.007 125.221 480.738 117.051 481.919 118.853C482.602 119.878 474.09 124.6 469.026 128.608C463.993 132.584 481.08 125.284 481.391 126.464C482.261 129.881 463.279 136.468 455.139 139.295L432.43 161.259L416.523 150.199Z" fill="#F0B1AB"/>
<path fill-rule="evenodd" clip-rule="evenodd" d="M264.02 571.991L265.387 587.991L271.072 597.311L245.225 596.938L239.664 588.612L240.316 573.576L264.02 571.991Z" fill="#EDB8B3"/>
<path fill-rule="evenodd" clip-rule="evenodd" d="M239.662 588.612C248.422 595.136 257.121 595.167 265.416 588.612L290.114 602.654C294.743 605.295 294.308 611.228 290.269 611.228H233.635C232.982 594.514 239.662 596.13 239.662 588.612Z" fill="#29426C"/>
<path fill-rule="evenodd" clip-rule="evenodd" d="M350.197 562.36L355.913 586.934L361.599 596.254L335.751 595.881L330.159 587.555L328.668 568.698L350.197 562.36Z" fill="#EDB8B3"/>
<path fill-rule="evenodd" clip-rule="evenodd" d="M330.162 587.556C338.922 594.08 347.621 594.111 355.916 587.556L398.229 601.598C403.293 603.275 402.423 610.172 398.384 610.172H324.135C323.513 593.489 330.162 595.074 330.162 587.556Z" fill="#29426C"/>
<path fill-rule="evenodd" clip-rule="evenodd" d="M239.105 228.394L221.117 575.75C231.773 582.305 271.632 583.361 286.513 574.787L290.893 299.94L308.446 576.527C325.346 581.373 357.003 579.913 373.095 571.556L329.353 224.106L239.105 228.394Z" fill="#48618B"/>
<path fill-rule="evenodd" clip-rule="evenodd" d="M362.16 164.924L431.314 124.973C435.57 127.458 450.948 150.82 450.482 154.393C434.794 169.212 371.915 213.047 338.58 214.445C283.748 216.775 270.7 92.6323 304.252 99.9329C330.907 105.742 340.475 177.444 362.16 164.924Z" fill="#E83323"/>
<path fill-rule="evenodd" clip-rule="evenodd" d="M232.673 232.277C239.725 249.767 331.837 256.633 332.366 233.799C332.645 222.242 318.199 202.981 319.784 190.182C323.543 159.426 326.432 131.217 317.019 108.476C315.838 105.587 311.209 102.014 306.611 99.529C303.94 98.1 302.386 97.9446 300.336 97.9136C300.336 97.9136 287.878 98.0068 282.348 98.7835C280.329 99.0631 271.226 100.368 266.97 101.921C214.312 121.245 231.026 228.207 232.673 232.277Z" fill="#E83323"/>
<path fill-rule="evenodd" clip-rule="evenodd" d="M303.102 98.1C303.195 97.199 297.541 95.6768 307.11 82.2249C308.601 80.1434 312.391 81.5414 312.857 79.8638C314.038 75.3902 309.595 68.6488 311.521 63.4296C312.857 59.7637 306.426 57.3716 301.611 56.2221C293.689 54.296 279.957 59.2356 284.835 77.0368C286.015 81.324 289.526 86.0461 289.371 98.1621C289.371 102.014 291.918 106.581 295.211 106.612C299.436 106.643 304.562 101.145 303.102 98.1Z" fill="#F0B1AB"/>
<path d="M292.384 291.49L291.855 289.937C304.717 285.556 303.878 267.755 303.878 267.569L305.525 267.476C305.525 267.693 306.395 286.737 292.384 291.49Z" fill="#2E3F5B"/>
<path d="M290.094 300.769L293.714 270.07L295.349 270.263L291.729 300.961L290.094 300.769Z" fill="#2E3F5B"/>
<path fill-rule="evenodd" clip-rule="evenodd" d="M313.944 256.261L346.284 277.541C351.193 277.945 362.253 280.679 362.843 282.792C363.154 285.091 349.981 280.306 350.634 282.543C358.96 289.844 368.715 300.469 367.658 302.115C366.944 303.234 357.562 292.919 356.909 293.696C355.853 294.97 368.87 307.987 366.757 308.95C364.831 309.82 354.051 296.989 353.709 298.17C352.032 297.859 363.713 308.763 362.315 310.379C361.507 311.311 354.61 304.476 349.329 300.717C344.11 296.989 355.884 311.373 354.828 311.994C351.783 313.765 340.164 297.393 335.194 290.341L307.762 274.652L313.944 256.261Z" fill="#F0B1AB"/>
<path fill-rule="evenodd" clip-rule="evenodd" d="M276.882 185.553L334.324 256.727C339.948 264.338 322.084 290.434 314.815 288.819C295.678 281.021 261.815 241.162 237.987 217.8C198.004 178.563 259.33 82.7534 279.554 105.494C297.728 125.905 261.162 166.074 276.882 185.553Z" fill="#E83323"/>
<path d="M312.329 279.809L311.77 279.063C311.894 278.97 324.134 269.712 327.551 259.522L328.421 259.833C324.911 270.272 312.857 279.436 312.329 279.809Z" fill="#FC5546"/>
<path fill-rule="evenodd" clip-rule="evenodd" d="M289.337 97.7896L295.177 106.612C290.082 106.675 287.1 109.657 285.391 114.441L284.18 98.5662L289.337 97.7896ZM302.54 97.2925L295.177 106.612C299.558 107.42 302.229 110.806 304.125 115.404L306.641 99.5293L302.54 97.2925Z" fill="#FC5546"/>
<path fill-rule="evenodd" clip-rule="evenodd" d="M312.047 67.4994C308.816 69.3634 299.713 57.6513 295.053 71.1342C294.712 72.1594 294.184 75.7321 289.679 73.1846C285.174 70.6372 284.988 78.1864 289.244 77.534C293.469 76.9126 288.188 91.3276 291.046 101.89C303.752 148.646 254.636 144.11 247.708 121.711C239.662 95.7701 278.619 75.5768 278.464 72.8429C278.184 68.0586 278.992 62.7151 287.473 57.2785C307.107 24.3478 332.271 61.5657 312.047 67.4994Z" fill="#0E1623"/>
<path d="M300.182 85.4251C299.933 85.4251 299.685 85.394 299.436 85.3319C297.541 84.8659 296.64 82.7533 296.578 82.6601L297.728 82.1631C297.728 82.1942 298.442 83.8096 299.747 84.1203C300.461 84.3067 301.269 84.0271 302.17 83.3125L302.947 84.2756C301.984 85.0523 301.052 85.4251 300.182 85.4251ZM323.948 284.252L323.358 283.164C328.266 280.493 332.678 268.905 332.74 268.781L333.889 269.215C333.703 269.713 329.291 281.363 323.948 284.252Z" fill="#173A74"/>
<path fill-rule="evenodd" clip-rule="evenodd" d="M442.495 138.27C442.495 138.27 393.658 182.602 370.327 187.231C346.996 191.86 320.838 188.815 322.05 169.895C322.05 169.895 319.347 189.312 319.658 192.574C319.968 195.836 322.205 208.667 325.591 212.519C328.978 216.34 346.717 213.979 353.551 211.742C360.355 209.536 404.936 191.766 434.045 167.659L450.479 154.393C450.479 154.393 447.311 144.39 442.495 138.27Z" fill="#FC5546"/>
<path d="M442.588 156.195C437.587 145.259 426.558 132.18 426.434 132.056L427.148 131.466C427.272 131.59 438.363 144.762 443.427 155.822L442.588 156.195Z" fill="#FC5546"/>
<path d="M446.721 146.968C446.162 143.053 437.339 132.646 437.246 132.553L438.178 131.745C438.551 132.18 447.312 142.556 447.933 146.781L446.721 146.968Z" fill="#173A74"/>
<path fill-rule="evenodd" clip-rule="evenodd" d="M282.441 135.939L273.183 167.938C273.183 167.938 271.381 181.421 280.049 189.529C288.747 197.638 300.832 215.284 306.02 221.746C311.24 228.207 323.635 243.585 323.635 243.585C323.635 243.585 304.467 210.841 307.729 201.49C310.96 192.139 317.577 176.761 310.432 180.613C303.286 184.466 282.689 200.123 287.349 174.586C292.009 149.05 294.557 126.682 292.817 120.375C292.848 120.344 291.388 131.745 282.441 135.939ZM229.379 205.591C229.379 205.591 235.81 217.241 243.11 222.957C250.442 228.673 265.478 246.195 265.478 246.195C265.478 246.195 248.827 243.927 238.575 238.087C238.575 238.087 231.895 236.254 231.491 226.281L229.379 205.591Z" fill="#FC5546"/>
<path d="M320.808 183.72L319.876 183.564C327.767 138.362 318.851 114.876 318.758 114.627L319.628 114.286C319.721 114.503 328.73 138.238 320.808 183.72Z" fill="#FC5546"/>
<path d="M294.838 207.921C294.714 197.638 296.516 187.945 298.255 178.563C299.405 172.474 300.554 166.136 301.207 159.674C302.978 141.935 300.803 124.165 295.025 109.595L295.894 109.253C301.704 123.947 303.91 141.873 302.139 159.767C301.486 166.26 300.306 172.598 299.156 178.718C297.417 188.038 295.615 197.7 295.77 207.89L294.838 207.921Z" fill="white"/>
<path fill-rule="evenodd" clip-rule="evenodd" d="M281.82 262.784C281.82 262.784 257.401 262.163 250.629 259.709C241.153 256.26 238.016 250.327 238.016 250.327L238.637 238.118C238.637 238.118 256.531 246.599 265.541 246.226L281.82 262.784ZM323.698 243.585L333.328 255.515L331.122 237.931C331.122 237.931 329.072 241.411 323.698 243.585Z" fill="#2E3F5B"/>
<path d="M290.094 309.094L291.737 308.986L309.282 576.497L307.639 576.605L290.094 309.094Z" fill="#2E3F5B"/>
<path d="M253.144 582.088C244.943 582.088 240.127 580.348 239.848 580.224L240.283 579.074C240.376 579.105 249.789 582.523 264.639 579.758L264.856 580.969C260.414 581.777 256.499 582.088 253.144 582.088ZM333.11 579.913C330.904 579.913 329.506 579.851 329.475 579.851L329.506 578.608C329.661 578.608 343.797 579.105 353.552 576.869L353.831 578.08C346.997 579.665 338.049 579.913 333.11 579.913Z" fill="#173A74"/>
<path d="M246.75 581.534L256.08 244.776L257.012 244.802L247.682 581.56L246.75 581.534Z" fill="white"/>
<path d="M347.96 178.873L347.059 178.687C349.451 167.596 358.926 165.701 359.019 165.701L359.175 166.633C358.833 166.664 350.196 168.404 347.96 178.873ZM276.506 185.801C276.444 185.677 268.646 173.437 257.835 175.021L257.711 174.089C269.143 172.412 277.252 185.18 277.314 185.304L276.506 185.801Z" fill="#FC5546"/>
<path d="M300.02 284.248L300.945 284.137L335.836 576.481L334.91 576.592L300.02 284.248Z" fill="white"/>
<path d="M124.435 465.774C123.565 461.27 121.95 449.495 125.429 437.193C129.002 424.456 136.799 415.322 148.543 410.072L149.226 411.563C137.949 416.596 130.462 425.388 127.014 437.628C123.658 449.589 125.212 461.083 126.05 465.464L124.435 465.774Z" fill="#29426C"/>
<path d="M136.862 482.643L135.246 482.333C136.085 477.952 137.669 466.458 134.283 454.497C130.835 442.257 123.348 433.496 112.07 428.432L112.754 426.941C124.497 432.191 132.295 441.325 135.867 454.062C139.347 466.364 137.731 478.139 136.862 482.643ZM150.469 465.308L148.822 465.246C149.319 449.34 143.603 440.362 137.545 430.824C130.151 419.205 122.54 407.214 126.112 381.925L127.759 382.143C124.248 406.81 131.736 418.553 138.943 429.923C144.846 439.243 150.966 448.874 150.469 465.308Z" fill="#29426C"/>
<path fill-rule="evenodd" clip-rule="evenodd" d="M131.3 337.003C138.694 337.655 143.695 349.243 142.484 362.819C141.272 376.426 134.282 386.896 126.888 386.243C119.494 385.591 114.493 374.003 115.704 360.427C116.916 346.82 123.906 336.319 131.3 337.003Z" fill="#29426C"/>
<path d="M127.542 387.082C127.293 387.082 127.045 387.082 126.796 387.051C118.967 386.337 113.624 374.345 114.867 360.334C115.457 353.623 117.476 347.441 120.49 342.905C123.596 338.214 127.48 335.822 131.363 336.195C135.246 336.537 138.633 339.581 140.869 344.738C143.044 349.74 143.883 356.202 143.293 362.912C142.702 369.623 140.683 375.805 137.67 380.341C134.749 384.721 131.177 387.082 127.542 387.082ZM130.617 337.779C127.542 337.779 124.466 339.892 121.857 343.806C118.998 348.125 117.072 354.027 116.513 360.489C115.333 373.599 119.993 384.783 126.92 385.405C130.182 385.684 133.507 383.572 136.272 379.409C139.13 375.091 141.056 369.188 141.615 362.726C142.205 356.295 141.366 350.113 139.316 345.36C137.328 340.762 134.439 338.09 131.177 337.779C131.021 337.811 130.835 337.779 130.617 337.779ZM98.6808 494.045C95.8227 490.472 88.8327 480.841 86.0988 468.353C83.2718 455.429 85.8503 443.717 93.7413 433.558L95.0461 434.583C87.4658 444.338 84.9804 455.584 87.7143 468.042C90.355 480.189 97.1586 489.571 99.9546 493.051L98.6808 494.045Z" fill="#29426C"/>
<path fill-rule="evenodd" clip-rule="evenodd" d="M195.485 395.719C197.847 402.771 189.272 411.967 176.317 416.316C163.363 420.665 150.967 418.46 148.606 411.439C146.245 404.387 154.819 395.191 167.774 390.841C180.729 386.492 193.124 388.667 195.485 395.719Z" fill="#FBEDEC"/>
<path d="M163.424 419.361C161.653 419.361 159.945 419.205 158.36 418.926C152.83 417.963 149.071 415.353 147.828 411.656C145.343 404.2 154.166 394.476 167.525 390.003C180.883 385.529 193.776 387.952 196.261 395.408C198.747 402.864 189.924 412.588 176.565 417.062C172.092 418.584 167.587 419.361 163.424 419.361ZM180.759 389.381C176.876 389.381 172.495 390.096 168.022 391.587C155.533 395.781 147.176 404.542 149.382 411.128C150.407 414.235 153.7 416.409 158.64 417.279C163.735 418.18 169.917 417.528 176.068 415.477C188.557 411.283 196.914 402.523 194.708 395.936C193.279 391.711 187.811 389.381 180.759 389.381ZM94.3006 422.436C93.4308 422.436 92.5298 422.374 91.5978 422.281C86.1922 421.629 80.1964 419.112 74.6976 415.198C63.234 407.027 57.6109 395.16 62.1777 388.76C66.7445 382.36 79.7925 383.789 91.2561 391.96C96.7549 395.874 101.073 400.721 103.465 405.629C105.92 410.693 106.044 415.229 103.776 418.398C101.912 421.038 98.5878 422.436 94.3006 422.436ZM63.5446 389.692C59.506 395.346 64.9426 406.188 75.6917 413.831C80.973 417.59 86.6893 419.982 91.8153 420.634C96.786 421.256 100.545 420.106 102.471 417.435C104.366 414.763 104.211 410.817 102.005 406.344C99.7373 401.684 95.5744 397.055 90.3241 393.296C79.6061 385.653 67.5833 384.038 63.5446 389.692Z" fill="#29426C"/>
<path fill-rule="evenodd" clip-rule="evenodd" d="M121.454 409.512C116.017 404.449 104.088 408.425 94.7678 418.398C85.4478 428.37 82.3101 440.579 87.7157 445.643C93.1523 450.707 105.082 446.73 114.402 436.758C123.753 426.786 126.891 414.576 121.454 409.512Z" fill="#29426C"/>
<path d="M93.9892 448.688C91.2242 448.688 88.8942 447.88 87.1856 446.264C84.3274 443.593 83.5197 439.119 84.9488 433.682C86.3157 428.401 89.6088 422.778 94.2066 417.869C98.8045 412.93 104.179 409.295 109.367 407.555C114.711 405.785 119.215 406.25 122.073 408.922C127.821 414.297 124.683 427.034 115.083 437.317C110.486 442.257 105.111 445.892 99.9229 447.631C97.7793 448.315 95.791 448.688 93.9892 448.688ZM115.208 408.146C113.592 408.146 111.79 408.456 109.833 409.109C104.925 410.755 99.7986 414.266 95.3561 418.988C90.9446 423.71 87.8069 429.084 86.5021 434.086C85.2594 438.933 85.8808 442.816 88.2729 445.053C90.665 447.29 94.6105 447.662 99.3326 446.078C104.241 444.431 109.367 440.921 113.779 436.199C122.757 426.568 125.957 414.856 120.862 410.134C119.495 408.798 117.538 408.146 115.208 408.146Z" fill="#29426C"/>
<path fill-rule="evenodd" clip-rule="evenodd" d="M167.245 426.785C163.797 423.958 156.807 426.785 151.587 433.092C146.368 439.429 144.939 446.823 148.356 449.681C151.805 452.509 158.795 449.681 164.014 443.375C169.233 437.037 170.662 429.612 167.245 426.785Z" fill="#FBEDEC"/>
<path d="M151.713 451.608C150.191 451.608 148.855 451.173 147.83 450.303C143.978 447.134 145.345 439.336 150.937 432.564C156.529 425.791 163.922 422.964 167.775 426.133C169.67 427.718 170.353 430.451 169.701 433.9C169.079 437.162 167.278 440.703 164.668 443.872C162.058 447.041 158.921 449.464 155.845 450.707C154.354 451.328 152.956 451.608 151.713 451.608ZM163.891 426.506C160.505 426.506 155.845 429.209 152.21 433.62C147.364 439.492 145.842 446.544 148.886 449.029C150.315 450.21 152.552 450.241 155.224 449.185C158.051 448.035 160.971 445.798 163.394 442.847C165.817 439.896 167.495 436.603 168.085 433.62C168.645 430.793 168.147 428.587 166.718 427.438C165.973 426.817 164.979 426.506 163.891 426.506Z" fill="#29426C"/>
<path fill-rule="evenodd" clip-rule="evenodd" d="M78.7372 457.542H193.653C197.039 457.542 199.804 460.306 199.804 463.693C199.804 467.079 197.039 469.844 193.653 469.844H78.7372C75.3509 469.844 72.5859 467.079 72.5859 463.693C72.5859 460.338 75.3509 457.542 78.7372 457.542Z" fill="#FBEDEC"/>
<path d="M193.652 470.683H78.7361C74.8838 470.683 71.7461 467.545 71.7461 463.693C71.7461 459.84 74.8838 456.703 78.7361 456.703H193.652C197.504 456.703 200.642 459.84 200.642 463.693C200.642 467.576 197.504 470.683 193.652 470.683ZM78.7361 458.38C75.7848 458.38 73.3926 460.772 73.3926 463.724C73.3926 466.675 75.7848 469.067 78.7361 469.067H193.652C196.603 469.067 198.995 466.675 198.995 463.724C198.995 460.772 196.603 458.38 193.652 458.38H78.7361Z" fill="#29426C"/>
<path fill-rule="evenodd" clip-rule="evenodd" d="M83.1495 469.875H189.242L194.586 502.464C197.444 519.954 182.656 537.911 162.867 537.911H109.525C89.7357 537.911 74.9169 519.986 77.8061 502.464L83.1495 469.875Z" fill="#48618B"/>
<path fill-rule="evenodd" clip-rule="evenodd" d="M191.137 481.432L192.753 491.311H79.608L81.2235 481.432H191.137ZM193.561 496.095L194.337 500.879H78.0547L78.8314 496.095H193.561Z" fill="#FBEDEC"/>
<path fill-rule="evenodd" clip-rule="evenodd" d="M111.761 553.724H94.3634L89.8587 607.531C89.7345 608.991 90.6665 610.172 92.1266 610.172H97.3769C98.837 610.172 100.08 608.96 100.359 607.531L111.761 553.724ZM161.561 553.724H178.958L183.463 607.531C183.587 608.991 182.655 610.172 181.195 610.172H175.944C174.484 610.172 173.242 608.96 172.962 607.531L161.561 553.724Z" fill="#E83323"/>
<path fill-rule="evenodd" clip-rule="evenodd" d="M87.9952 553.724H184.395C185.917 553.724 187.191 552.481 187.191 550.959C187.191 549.437 185.948 548.163 184.395 548.163H87.9952C86.473 548.163 85.1992 549.406 85.1992 550.959C85.2303 552.481 86.473 553.724 87.9952 553.724Z" fill="#FBEDEC"/>
<path d="M184.394 554.562H87.9944C86.0061 554.562 84.3906 552.947 84.3906 550.959C84.3906 548.97 86.0061 547.355 87.9944 547.355H184.394C186.382 547.355 187.998 548.97 187.998 550.959C187.998 552.947 186.382 554.562 184.394 554.562ZM87.9944 549.002C86.907 549.002 86.0372 549.871 86.0372 550.959C86.0372 552.046 86.907 552.916 87.9944 552.916H184.394C185.482 552.916 186.351 552.046 186.351 550.959C186.351 549.871 185.482 549.002 184.394 549.002H87.9944Z" fill="#29426C"/>
<path fill-rule="evenodd" clip-rule="evenodd" d="M76.7469 537.88H195.608C198.435 537.88 200.765 540.179 200.765 543.037C200.765 545.864 198.435 548.194 195.608 548.194H76.7469C73.9198 548.194 71.5898 545.895 71.5898 543.037C71.6209 540.179 73.9198 537.88 76.7469 537.88Z" fill="#FBEDEC"/>
<path d="M195.607 549.002H76.7461C73.453 549.002 70.7812 546.33 70.7812 543.037C70.7812 539.744 73.453 537.072 76.7461 537.072H195.607C198.9 537.072 201.572 539.744 201.572 543.037C201.603 546.299 198.9 549.002 195.607 549.002ZM76.7461 538.688C74.3539 538.688 72.4278 540.614 72.4278 543.006C72.4278 545.398 74.3539 547.324 76.7461 547.324H195.607C197.999 547.324 199.925 545.398 199.925 543.006C199.925 540.614 197.999 538.688 195.607 538.688H76.7461Z" fill="#29426C"/>
<path d="M153.152 410.03L186.943 399.528L187.432 401.101L153.641 411.602L153.152 410.03Z" fill="#29426C"/>
<path d="M126.485 375.37L125.553 375.277L128.629 346.136L129.561 346.229L126.485 375.37ZM92.9335 441.231L92.25 440.579C99.3332 433.216 115.861 416.067 116.699 415.788L117.01 416.658L116.855 416.223L117.072 416.627C116.109 417.248 102.098 431.694 92.9335 441.231Z" fill="white"/>
<path d="M1173.18 610.98H117.291V609.333H1173.18V610.98ZM100.111 610.98H50.0938V609.333H100.08V610.98H100.111Z" fill="#29426C"/>
<path fill-rule="evenodd" clip-rule="evenodd" d="M626.879 187.23L587.641 190.958C583.478 191.362 560.52 190.741 559.371 194.127C558.687 196.116 560.396 196.737 559.247 197.482C550.672 202.981 541.259 200.465 539.706 202.981C537.531 206.492 546.54 217.054 573.724 209.847C584.348 207.02 582.515 206.896 591.525 207.734L623.648 206.678L626.879 187.23Z" fill="#F0B1AB"/>
<path fill-rule="evenodd" clip-rule="evenodd" d="M697.742 169.988L599.664 184.186C590.127 185.584 593.358 214.01 599.726 218.079C619.764 221.994 668.477 220.782 702.371 221.186C759.347 221.838 780.721 114.006 741.639 98.4727C715.885 88.2518 722.937 166.353 697.742 169.988Z" fill="#E83323"/>
<path fill-rule="evenodd" clip-rule="evenodd" d="M721.291 184.838C721.291 184.838 722.968 199.626 706.472 205.218C690.007 210.81 595.16 209.443 595.16 209.443C595.16 209.443 595.595 217.427 599.727 218.111C603.859 218.794 625.202 220.907 647.166 221C669.13 221.093 704.142 221.217 704.142 221.217C704.142 221.217 719.085 222.864 735.302 207.3C735.302 207.3 744.436 198.787 746.268 193.63L721.291 184.838Z" fill="#FC5546"/>
<path fill-rule="evenodd" clip-rule="evenodd" d="M680.963 561.521L675.153 586.53L669.375 596.005L695.688 595.633L701.343 587.151L702.865 567.983L680.963 561.521Z" fill="#EDB8B3"/>
<path fill-rule="evenodd" clip-rule="evenodd" d="M701.345 587.151C692.46 593.8 683.606 593.831 675.156 587.151L632.097 601.442C626.94 603.151 627.81 610.172 631.942 610.172H707.465C708.149 593.178 701.345 594.825 701.345 587.151Z" fill="#29426C"/>
<path fill-rule="evenodd" clip-rule="evenodd" d="M786.064 561.521L780.255 586.53L774.477 596.005L800.79 595.633L806.444 587.151L807.966 567.983L786.064 561.521Z" fill="#EDB8B3"/>
<path fill-rule="evenodd" clip-rule="evenodd" d="M806.443 587.151C797.558 593.8 788.704 593.831 780.253 587.151L737.195 601.442C732.038 603.151 732.908 610.172 737.04 610.172H812.563C813.215 593.178 806.443 594.825 806.443 587.151Z" fill="#29426C"/>
<path fill-rule="evenodd" clip-rule="evenodd" d="M812.564 221.807L816.51 574.818C805.667 581.466 792.029 581.653 776.931 572.923L759.906 294.597L712.498 575.346C695.287 580.255 688.235 579.416 671.863 570.935L722.813 217.551L812.564 221.807Z" fill="#2B4777"/>
<path d="M758.477 274.342C744.466 269.557 745.367 250.482 745.367 250.296L746.299 250.358C746.299 250.544 745.429 268.936 758.757 273.472L758.477 274.342Z" fill="#151A23"/>
<path d="M756.305 262.152L757.23 262.042L760.943 293.262L760.018 293.372L756.305 262.152Z" fill="#0E2B5C"/>
<path fill-rule="evenodd" clip-rule="evenodd" d="M818.405 252.936C811.229 270.737 718.153 263.25 717.625 240.013C717.345 228.269 732.102 195.898 730.487 182.912C726.634 151.628 723.714 122.922 733.283 99.7776C734.494 96.8262 739.185 93.2225 743.845 90.675C746.548 89.246 748.133 89.0596 750.214 89.0596C750.214 89.0596 762.889 89.1528 768.512 89.9605C770.563 90.2401 779.634 92.1662 784.17 93.1604C804.332 97.6029 812.068 135.815 816.852 188.753C819.089 213.544 819.027 251.383 818.405 252.936Z" fill="#E83323"/>
<path fill-rule="evenodd" clip-rule="evenodd" d="M747.447 89.2462C747.354 88.3142 753.102 86.7919 743.378 73.0915C741.887 70.979 738.003 72.377 737.537 70.6683C736.326 66.1015 740.861 59.2668 738.904 53.9544C737.537 50.2264 744.061 47.8033 748.97 46.6227C757.016 44.6655 770.996 49.6983 766.056 67.8102C764.876 72.1595 761.272 76.9748 761.459 89.2772C761.459 93.1916 758.88 97.8517 755.525 97.8827C751.175 97.9449 745.956 92.3529 747.447 89.2462Z" fill="#F0B1AB"/>
<path d="M749.809 224.821L748.971 224.417C758.042 204.628 755.06 187.541 751.86 169.491C748.505 150.448 744.683 128.856 754.749 100.617L755.619 100.927C745.646 128.918 749.25 149.454 752.761 169.305C755.992 187.541 759.036 204.752 749.809 224.821Z" fill="white"/>
<path fill-rule="evenodd" clip-rule="evenodd" d="M761.459 88.9354L755.525 97.9136C760.713 97.9758 763.726 101.02 765.466 105.898L766.709 89.7431L761.459 88.9354ZM748.038 88.4072L755.525 97.9136C751.051 98.7524 748.348 102.201 746.422 106.861L743.844 90.7062L748.038 88.4072Z" fill="#FC5546"/>
<path fill-rule="evenodd" clip-rule="evenodd" d="M738.657 57.2474C742.168 58.925 750.556 45.9391 756.582 59.5152C757.048 60.5404 757.887 64.2063 762.33 61.1618C766.772 58.1172 767.611 65.915 763.169 65.6354C758.726 65.3558 763.169 74.4583 764.877 73.2467C766.586 72.0351 779.416 59.7327 765.778 44.8518C750.524 23.8818 722.999 54.731 738.657 57.2474Z" fill="#0E1623"/>
<path fill-rule="evenodd" clip-rule="evenodd" d="M729.678 262.443L706.005 293.944C701.438 296.026 691.807 302.426 691.963 304.662C692.46 306.961 703.426 297.859 703.582 300.22C698.114 310.068 692.46 323.613 694.013 324.794C695.1 325.632 700.537 312.522 701.407 313.05C702.867 313.889 694.883 330.852 697.213 331.038C699.357 331.193 705.259 315.225 706.005 316.219C707.496 315.318 700.071 329.795 701.966 330.852C703.054 331.473 707.31 322.557 711.069 317.151C714.797 311.777 708.459 329.609 709.671 329.826C713.181 330.479 718.68 310.814 721.041 302.364L741.887 277.914L729.678 262.443Z" fill="#F0B1AB"/>
<path fill-rule="evenodd" clip-rule="evenodd" d="M767.268 195.588L711.504 274.528C706.284 282.605 729.771 298.915 737.04 296.834C753.226 284.345 784.386 246.91 807.034 221.684C845.09 179.278 807.779 73.0916 774.041 96.578C751.269 112.391 781.963 174.804 767.268 195.588Z" fill="#E83323"/>
<path d="M588.664 205.653C572.075 205.653 571.049 192.294 571.018 192.17L572.261 192.077C572.292 192.605 573.224 204.814 589.348 204.379L589.379 205.622C589.13 205.653 588.882 205.653 588.664 205.653ZM567.601 211.338C565.83 211.338 562.257 210.064 557.473 208.325C555.267 207.517 553.155 206.74 551.974 206.461C548.743 205.653 537.839 205.901 537.746 205.901L537.715 204.659C538.181 204.659 548.868 204.41 552.285 205.249C553.528 205.56 555.547 206.305 557.908 207.175C561.543 208.511 566.514 210.344 567.85 210.095L568.067 211.307C567.912 211.307 567.756 211.338 567.601 211.338ZM727.377 295.187C718.088 290.62 713.397 284.407 713.179 284.127L714.174 283.382C714.236 283.444 718.896 289.626 727.905 294.069L727.377 295.187ZM594.132 207.765C592.206 199.44 593.852 190.554 593.946 190.182L595.157 190.399C595.126 190.492 593.48 199.408 595.344 207.455L594.132 207.765Z" fill="#173A74"/>
<path d="M606.313 214.321C597.832 196.737 606.282 186.112 606.375 186.019L607.09 186.609C606.997 186.702 598.95 196.923 607.152 213.917L606.313 214.321ZM728.281 155.729C719.271 122.674 732.723 99.7468 732.879 99.5293L733.686 99.9953C733.562 100.213 720.297 122.829 729.213 155.48L728.281 155.729ZM768.543 153.368C766.306 145.477 763.107 118.635 766.462 105.774C769.817 92.9121 784.046 92.6636 784.17 92.6636V93.5956C784.046 93.5956 770.5 93.813 767.363 105.991C764.07 118.697 767.207 145.291 769.444 153.119L768.543 153.368Z" fill="#FC5546"/>
<path fill-rule="evenodd" clip-rule="evenodd" d="M817.843 203.354C817.843 203.354 816.165 211.152 799.483 230.133C782.8 249.115 770.715 262.785 770.715 262.785C770.715 262.785 811.567 265.518 818.371 252.936L817.843 203.354Z" fill="#FC5546"/>
<path d="M727.254 251.405L765.108 197.851L765.869 198.389L728.015 251.943L727.254 251.405Z" fill="#FC5546"/>
<path d="M749.59 76.2292C749.341 76.2292 749.093 76.1981 748.875 76.1671C746.67 75.7632 745.644 73.7128 745.613 73.6196L746.732 73.0604C746.732 73.0915 747.539 74.6448 749.124 74.9244C750.429 75.1419 751.951 74.4584 753.597 72.874L754.436 73.775C752.728 75.4215 751.112 76.2292 749.59 76.2292Z" fill="#173A74"/>
<path d="M790.77 263.075L791.701 263.032L803.617 524.104L802.686 524.146L790.77 263.075Z" fill="white"/>
<path d="M694.726 579.261C684.971 579.261 678.074 574.694 677.732 574.445L678.416 573.42C678.509 573.482 688.947 580.379 701.933 577.117L702.244 578.329C699.603 579.012 697.087 579.261 694.726 579.261ZM799.576 580.69C791.312 580.69 782.831 577.055 782.365 576.869L782.862 575.75C783.017 575.812 797.557 582.026 806.721 578.236L807.187 579.385C804.857 580.317 802.217 580.69 799.576 580.69ZM688.171 592.682C680.218 592.682 674.812 587.711 674.75 587.618L675.589 586.717C676.055 587.152 687.052 597.279 700.97 586.686L701.716 587.68C696.807 591.408 692.147 592.682 688.171 592.682ZM791.685 592.806C786.342 592.806 780.128 587.897 779.849 587.649L780.625 586.686C780.687 586.748 787.739 592.309 792.741 591.47L792.959 592.682C792.555 592.744 792.12 592.806 791.685 592.806ZM721.288 175.922C721.039 168.28 725.264 159.302 725.451 158.929L726.569 159.457C726.538 159.55 722.313 168.528 722.531 175.891L721.288 175.922Z" fill="#173A74"/>
<path d="M689.609 577.358L736.592 296.692L737.511 296.846L690.529 577.512L689.609 577.358Z" fill="white"/>
<path fill-rule="evenodd" clip-rule="evenodd" d="M924.806 570.966L926.204 586.934L931.889 596.254L906.01 595.881L900.449 587.555L901.102 572.519L924.806 570.966Z" fill="#EDB8B3"/>
<path fill-rule="evenodd" clip-rule="evenodd" d="M900.451 587.556C909.211 594.08 917.91 594.111 926.205 587.556L950.903 601.598C955.532 604.238 955.097 610.172 951.058 610.172H894.424C893.771 593.489 900.451 595.074 900.451 587.556Z" fill="#2B4777"/>
<path fill-rule="evenodd" clip-rule="evenodd" d="M811.757 561.304L806.041 585.909L800.355 595.198L826.234 594.825L831.795 586.499L833.286 567.642L811.757 561.304Z" fill="#EDB8B3"/>
<path fill-rule="evenodd" clip-rule="evenodd" d="M832.259 587.556C823.498 594.08 814.799 594.111 806.504 587.556L764.192 601.598C759.128 603.275 759.998 610.172 764.036 610.172H838.286C838.907 593.489 832.259 595.074 832.259 587.556Z" fill="#2B4777"/>
<path fill-rule="evenodd" clip-rule="evenodd" d="M916.823 227.369L934.811 574.725C924.155 581.28 910.237 582.336 895.387 573.762L865.035 298.915L841.922 575.502C825.021 580.348 815.608 578.888 799.516 570.531L826.575 223.082L916.823 227.369Z" fill="#E83323"/>
<path fill-rule="evenodd" clip-rule="evenodd" d="M726.633 159.27C707.217 157.127 714.3 156.692 694.883 155.822C680.996 155.201 670.154 155.76 670.278 158.245C670.341 159.581 689.913 160.637 692.771 163.464C695.536 166.198 694.541 170.641 697.679 175.177C699.699 178.066 706.657 176.947 714.983 174.711L746.112 180.147L726.633 159.27Z" fill="#F0B1AB"/>
<path d="M713.988 172.722C712.683 163.775 708.086 162.874 708.023 162.874L708.241 161.663C708.458 161.694 713.771 162.719 715.2 172.536L713.988 172.722Z" fill="#173A74"/>
<path fill-rule="evenodd" clip-rule="evenodd" d="M797.342 151.069L727.566 156.412C724.242 160.078 719.769 181.576 721.291 184.838C740.707 194.251 797.591 208.48 829.807 199.812C882.806 185.522 884.515 74.6135 857.052 95.2729C830.677 115.124 811.011 150.012 797.342 151.069Z" fill="#576D91"/>
<path fill-rule="evenodd" clip-rule="evenodd" d="M956.372 212.115C951.339 219.602 930.276 209.443 916.296 199.936C915.705 204.69 926.454 225.722 921.453 234.296C911.946 250.575 819.834 244.175 822.567 221.497C823.934 210.033 830.458 205.528 830.738 192.636C831.608 152.777 834.093 98.2242 866.185 91.7313C869.323 91.0789 873.455 91.6381 877.121 92.2283C881.563 92.9429 884.67 93.1293 888.118 94.2166C889.982 94.9933 894.984 96.3913 897.842 97.7582C926.361 111.365 974.483 180.271 956.372 212.115Z" fill="#576D91"/>
<path fill-rule="evenodd" clip-rule="evenodd" d="M870.968 91.4206C870.968 91.4206 876.808 89.8362 869.29 75.1416C868.141 72.8738 864.164 73.6815 863.947 71.9728C863.419 67.375 868.793 61.3481 867.644 55.9114C866.836 52.0902 873.546 50.6611 878.486 50.1951C886.594 49.4184 899.487 56.2842 892.124 73.2155C890.354 77.2852 883.239 79.9259 881.686 91.9487C880.319 102.511 878.082 101.207 876.311 100.616C873.018 99.529 870.44 91.4206 870.968 91.4206Z" fill="#F0B1AB"/>
<path fill-rule="evenodd" clip-rule="evenodd" d="M867.456 56.1913C870.221 58.832 882.088 49.3567 883.455 63.8959C883.549 64.9832 883.207 68.6801 888.302 67.22C893.397 65.7599 891.75 73.3091 887.68 71.6625C883.611 70.016 884.916 79.8952 886.904 79.305C888.861 78.7147 909.955 71.7247 892.682 53.7371C881.094 16.2396 848.754 45.4112 867.456 56.1913Z" fill="#0E1623"/>
<path fill-rule="evenodd" clip-rule="evenodd" d="M881.623 92.2908L876.279 100.586C881.281 101.455 883.735 104.904 884.636 109.906L888.178 94.2169L881.623 92.2908ZM871.775 90.9238L876.248 100.586C871.774 100.679 868.606 103.568 865.996 107.793L866.12 91.7005L871.775 90.9238Z" fill="#2E3F5B"/>
<path d="M863.545 279.343C849.533 274.559 850.403 255.515 850.434 255.329L852.081 255.422C852.081 255.608 851.242 273.409 864.104 277.79L863.545 279.343Z" fill="#FC5546"/>
<path d="M860.535 258.132L862.17 257.937L865.821 288.632L864.186 288.827L860.535 258.132Z" fill="#FC5546"/>
<path fill-rule="evenodd" clip-rule="evenodd" d="M826.046 229.636L825.238 239.919C825.238 239.919 850.34 260.206 918.345 256.664L917.102 238.086C917.071 238.086 876.654 254.769 826.046 229.636Z" fill="#FC5546"/>
<path d="M897.551 244.085L899.194 243.977L921.336 579.564L919.693 579.673L897.551 244.085Z" fill="white"/>
<path d="M840.996 575.357L864.321 298.779L865.962 298.918L842.637 575.496L840.996 575.357Z" fill="#FC5546"/>
<path fill-rule="evenodd" clip-rule="evenodd" d="M832.82 153.181C832.82 153.181 833.565 132.056 843.941 109.937C831.732 121.835 825.146 182.229 805.667 184.838C786.157 187.479 721.943 175.891 721.943 175.891L721.694 175.86L721.073 180.862C721.073 180.862 720.669 184.528 721.321 184.838C721.943 185.149 741.701 192.947 754.469 195.712C767.238 198.445 806.071 206.927 829.837 199.812C829.837 199.812 831.639 182.539 831.359 173.406C831.049 164.272 832.82 153.181 832.82 153.181Z" fill="#2E3F5B"/>
<path d="M902.998 148.615C902.966 148.522 900.388 139.388 899.767 130.938C899.549 128.111 899.58 125.625 899.829 123.544L901.475 123.761C901.227 125.719 901.196 128.08 901.413 130.814C902.034 139.108 904.551 148.056 904.582 148.149L902.998 148.615Z" fill="#2E3F5B"/>
<path fill-rule="evenodd" clip-rule="evenodd" d="M866.339 144.234L856.181 138.829C853.291 134.852 845.214 126.806 843.102 127.396C840.989 128.328 851.924 137.089 849.657 137.71C839.094 134.386 824.959 131.59 824.089 133.33C823.498 134.541 837.199 137.182 836.857 138.145C836.329 139.698 818.435 135.349 818.714 137.648C818.963 139.729 835.521 142.277 834.714 143.209C835.863 144.483 820.485 140.164 819.802 142.215C819.429 143.395 828.842 145.725 834.807 148.273C840.709 150.789 822.287 148.211 822.318 149.422C822.38 152.933 842.418 154.362 851.024 154.952L862.332 161.197C862.58 156.195 863.73 150.634 866.339 144.234Z" fill="#F0B1AB"/>
<path d="M899.985 193.35L861.586 166.882L861.555 166.509C860.685 159.643 863.792 142.184 869.136 139.698L869.322 139.605L869.539 139.636C905.949 142.432 928.784 159.674 946.367 176.17L945.249 177.382C927.945 161.134 905.421 144.141 869.664 141.314C865.563 143.613 862.456 158.835 863.171 165.95L900.948 192.014L899.985 193.35Z" fill="#2E3F5B"/>
<path fill-rule="evenodd" clip-rule="evenodd" d="M902.128 193.786C902.128 193.786 910.609 206.43 909.491 219.322C908.372 232.215 866.277 245.574 837.758 234.794C837.758 234.794 864.32 247.127 891.006 243.244C891.006 243.244 911.945 242.747 918.345 237.341C924.776 231.936 923.16 227.182 920.457 215.501C917.692 205.063 917.071 207.3 916.294 199.937L902.128 193.786Z" fill="#2E3F5B"/>
<path d="M731.044 188.504C727.13 170.237 737.351 157.313 738.624 156.443L739.152 157.22C737.972 158.028 728.217 170.858 731.945 188.318L731.044 188.504ZM870.658 166.571C870.378 149.919 876.591 144.172 876.84 143.923L877.461 144.607C877.399 144.669 871.31 150.354 871.59 166.54L870.658 166.571Z" fill="white"/>
<path fill-rule="evenodd" clip-rule="evenodd" d="M900.451 129.26C900.451 129.26 908.404 150.509 926.982 161.196C926.982 161.196 908.155 148.179 903.806 148.397C903.775 148.397 898.587 133.578 900.451 129.26Z" fill="#2E3F5B"/>
<path d="M825.673 578.981C815.981 578.981 808.866 574.694 808.493 574.476L809.146 573.42C809.239 573.482 819.802 579.851 832.353 577.024L832.632 578.235C830.209 578.763 827.879 578.981 825.673 578.981ZM818.683 592.868C810.855 592.868 806.132 588.052 806.07 587.959L806.971 587.12C807.375 587.524 816.881 597.248 831.918 587.027L832.601 588.052C827.289 591.656 822.598 592.868 818.683 592.868ZM916.574 581.031C907.938 581.031 900.575 577.086 900.171 576.868L900.761 575.781C900.886 575.843 913.965 582.833 925.273 578.173L925.739 579.323C922.663 580.565 919.557 581.031 916.574 581.031ZM913.716 592.743C905.919 592.743 900.14 588.083 900.047 588.021L900.824 587.058C901.321 587.462 913.157 596.969 925.801 587.058L926.578 588.021C922.073 591.563 917.631 592.743 913.716 592.743ZM876.374 76.7262C872.273 76.7262 871.248 73.868 871.248 73.837L872.429 73.4331C872.46 73.5574 873.609 76.5087 878.953 75.1418L879.263 76.3534C878.145 76.6019 877.213 76.7262 876.374 76.7262Z" fill="#173A74"/>
<path d="M793.272 159.519L791.656 159.27C792.526 153.709 798.367 150.106 799.299 149.826L799.765 151.411C799.174 151.597 794.017 154.735 793.272 159.519Z" fill="#2E3F5B"/>
<path d="M861.712 161.196C861.556 151.752 865.253 145.197 865.409 144.917L866.496 145.539C866.465 145.601 862.83 152.094 862.986 161.196H861.712Z" fill="#173A74"/>
<path d="M816.094 574.774L850.599 273.283L851.525 273.389L817.02 574.88L816.094 574.774Z" fill="white"/>
<path d="M766.359 600.016L802.87 587.925L803.388 589.488L766.877 601.579L766.359 600.016Z" fill="white"/>
<defs>
<linearGradient id="paint0_linear_500_1442" x1="611.643" y1="515.782" x2="611.643" y2="692.386" gradientUnits="userSpaceOnUse">
<stop stop-color="#BB827D"/>
<stop offset="0.739" stop-color="#D1A8A4"/>
<stop offset="1" stop-color="#FBEDEC"/>
</linearGradient>
</defs>
</svg>
