<svg width="683" height="434" viewBox="0 0 683 434" fill="none" xmlns="http://www.w3.org/2000/svg">
<path d="M586.423 388.352C586.997 388.08 587.566 387.798 588.138 387.522C588.676 387.263 589.205 386.988 589.726 386.698C589.577 386.78 589.133 387.024 589.826 386.644C591.263 385.854 592.694 385.051 594.106 384.215C594.661 383.888 595.213 383.556 595.762 383.219L596.42 382.814L596.747 382.609C597.198 382.325 597.183 382.336 596.703 382.642C596.762 382.443 598.238 382.003 598.413 381.929C599.356 381.508 600.249 380.984 601.076 380.368C605.399 377.3 609.556 373.953 613.592 370.52C615.859 368.591 617.972 366.422 620.085 364.332C622.013 362.427 623.939 360.498 625.724 358.458C629.128 354.567 632.378 350.547 635.474 346.398C646.712 331.355 656.066 314.994 663.329 297.679C670.564 280.364 675.749 262.262 678.778 243.742C680.273 234.693 681.241 225.566 681.678 216.405C682.772 197.581 681.405 178.695 677.612 160.225C676.552 154.989 675.304 149.787 673.929 144.625C673.345 142.43 672.497 140.358 671.752 138.218C670.99 136.031 670.194 133.857 669.362 131.696C668.842 129.972 668.062 128.337 667.048 126.848C665.647 125.188 663.932 123.82 662.001 122.823L665.017 125.203C664.438 124.44 663.81 123.715 663.137 123.033C661.279 120.969 658.326 119.67 655.581 120.896C654.536 121.359 653.607 122.049 652.862 122.917C651.856 124.265 651.375 125.934 651.511 127.611C651.464 128.579 651.467 129.55 651.519 130.518L652.103 126.721C651.707 127.779 651.416 128.874 651.234 129.989C650.877 131.939 651.013 133.947 651.629 135.831C651.972 137.059 652.349 138.277 652.697 139.504C653.409 142.011 653.995 144.554 654.708 147.059L654.098 144.585C654.514 148.48 655.921 152.313 656.863 156.115L656.236 153.571C660.139 169.794 662.369 186.374 662.89 203.052C663.064 207.794 663.094 212.538 662.98 217.284L663.04 214.849C662.655 230.783 660.675 246.637 657.127 262.176C656.118 266.586 654.982 270.964 653.719 275.311L654.325 273.226C650.1 287.885 644.456 302.097 637.472 315.66C635.494 319.475 633.405 323.23 631.205 326.924L632.174 325.299C627.336 333.435 621.96 341.239 616.082 348.659C612.882 352.685 609.682 356.705 606.235 360.525C604.521 362.425 602.88 364.365 601.075 366.183C600.675 366.588 600.286 367.024 599.855 367.397C601.098 366.321 599.52 367.715 599.23 367.991C598.204 368.967 597.163 369.927 596.107 370.871C594.758 371.939 593.514 373.134 592.394 374.44C592.244 374.637 592.084 374.828 591.93 375.021C591.776 375.214 591.62 375.407 591.463 375.599C591.813 375.291 591.863 375.243 591.614 375.455C591.06 375.89 590.531 376.36 589.984 376.805C587.7 378.663 585.342 380.433 582.972 382.177C582.292 382.7 581.823 383.45 581.65 384.291C581.477 385.131 581.613 386.006 582.031 386.755C582.45 387.504 583.124 388.077 583.93 388.37C584.737 388.664 585.621 388.657 586.423 388.352ZM593.424 32.666C595.85 34.6133 598.207 36.64 600.497 38.746C600.772 39.001 601.047 39.254 601.32 39.511C601.381 39.57 602.268 40.434 601.64 39.804C602.334 40.501 602.988 41.238 603.694 41.923C604.86 43.053 606.054 44.15 607.205 45.296C607.471 45.56 607.735 45.827 608 46.092C608.895 46.989 607.32 45.379 608.188 46.285C608.7 46.82 609.213 47.353 609.719 47.894C610.735 48.978 611.765 50.049 612.773 51.139C614.88 53.417 616.908 55.7637 618.858 58.179C622.684 62.9281 626.229 67.8962 629.476 73.058C630.274 74.322 631.05 75.5987 631.806 76.888C632.184 77.533 632.554 78.183 632.926 78.832C633.594 80.001 632.248 77.59 632.891 78.769C633.128 79.205 633.368 79.64 633.603 80.078C635.013 82.704 636.337 85.374 637.575 88.088C638.866 90.918 640.225 93.718 641.473 96.569C642.072 97.9357 642.648 99.3123 643.201 100.699C643.535 101.768 644.007 102.788 644.605 103.735C645.628 105.103 647.132 106.031 648.813 106.33C651.838 106.775 653.987 104.338 654.458 101.579C654.84 99.341 653.784 96.93 653.087 94.802C652.166 91.8304 651.092 88.9085 649.868 86.048C647.155 80.1406 644.011 74.4406 640.462 68.994C633.301 57.8174 624.498 47.7823 614.349 39.226C608.783 34.7682 602.826 30.82 596.552 27.429C595.869 27.1327 595.1 27.0969 594.392 27.3283C593.684 27.5597 593.085 28.0423 592.708 28.685C592.329 29.3235 592.192 30.0775 592.324 30.8086C592.455 31.5396 592.846 32.1997 593.424 32.666ZM53.7704 108.376C53.2632 108.603 52.7406 108.795 52.2064 108.948C51.2169 109.262 50.286 109.737 49.4514 110.354C48.5194 111.053 47.6224 111.805 46.7254 112.548C44.9694 114 43.2254 115.448 41.6084 117.05C37.9754 120.65 34.4784 124.38 31.2204 128.322C25.0398 135.956 19.7246 144.252 15.3724 153.058C6.8265 170.056 1.72246 188.574 0.353376 207.55C-0.109818 213.297 -0.127532 219.071 0.300382 224.82C0.490649 227.365 0.825857 229.898 1.30438 232.405C1.56438 233.715 1.83438 235.025 2.14838 236.324C2.49281 238.077 3.24129 239.726 4.33438 241.14C4.99739 241.968 5.79319 242.681 6.68938 243.249C8.00538 244.192 9.63355 244.593 11.2371 244.37C12.8406 244.146 14.2968 243.314 15.3044 242.047C16.0731 241.15 16.6758 240.123 17.0844 239.014C17.3807 238.211 17.6076 237.384 17.7624 236.542C17.8399 235.543 17.8336 234.54 17.7434 233.542C17.6914 231.935 17.6687 230.329 17.6754 228.722L17.6654 230.9C17.6824 227.714 17.5604 224.534 17.5734 221.349L17.5634 223.619C17.5804 220.941 17.6254 218.265 17.6354 215.588L17.6254 217.892C17.7159 205.954 19.3272 194.076 22.4204 182.545L21.8404 184.702C25.1221 172.442 29.9417 160.646 36.1844 149.595L35.1334 151.441C37.9024 146.59 40.8974 141.826 44.1074 137.255C47.3154 132.685 50.8854 128.414 54.4494 124.129C55.4658 122.915 56.5087 121.724 57.5774 120.556C58.4185 119.723 59.1297 118.768 59.6874 117.724C59.8544 117.381 59.9934 117.017 60.1564 116.67C60.3584 116.238 61.0334 115.286 60.1364 116.586C60.8329 115.632 61.2035 114.478 61.1932 113.297C61.183 112.115 60.7924 110.968 60.0794 110.026C58.6184 108.318 55.9214 107.279 53.7704 108.376Z" fill="#FFC7C2"/>
<path d="M68.1055 106.752H615.711V125.939H68.1055V106.752Z" fill="#FFA79F"/>
<path d="M68.1055 98.0081H615.711V117.195H68.1055V98.0081ZM80.5965 125.939H603.219V381.068H80.5965V125.939Z" fill="#FF7A6E"/>
<path d="M615.712 106.752H68.1059L45.9199 69.5769H637.897L615.712 106.752ZM573.353 381.068V184.577C573.353 172.889 568.71 161.679 560.445 153.415C552.18 145.15 540.971 140.507 529.283 140.507H466.325C454.637 140.507 443.427 145.15 435.163 153.415C426.898 161.679 422.255 172.889 422.255 184.577V381.067H68.1049V433.233H615.711V381.068H573.353Z" fill="#FFA79F"/>
<path d="M486.08 159.394H509.528C522.877 159.394 535.68 164.697 545.119 174.137C554.559 183.576 559.862 196.379 559.862 209.728V418.843H435.746V209.728C435.746 196.379 441.049 183.576 450.489 174.137C459.928 164.697 472.731 159.394 486.08 159.394Z" fill="#375992"/>
<path d="M497.353 179.18C503.141 179.18 508.871 180.32 514.218 182.535C519.565 184.749 524.423 187.996 528.516 192.088C532.608 196.18 535.854 201.039 538.069 206.386C540.284 211.733 541.423 217.464 541.423 223.251V323.956H453.283V223.251C453.283 217.464 454.423 211.733 456.638 206.386C458.853 201.039 462.099 196.181 466.191 192.089C470.283 187.996 475.142 184.75 480.488 182.536C485.835 180.321 491.566 179.181 497.353 179.181V179.18Z" fill="#7899D0"/>
<path d="M441.152 284.608H447.887V323.957H441.152V284.608Z" fill="#FF6557"/>
<path d="M271.106 0.129883H391.966C396.275 0.129883 400.407 1.84151 403.454 4.88823C406.501 7.93495 408.212 12.0672 408.212 16.3759V44.0279H254.859V16.3759C254.859 12.0672 256.571 7.93495 259.618 4.88823C262.664 1.84151 266.797 0.129883 271.105 0.129883H271.106Z" fill="#527FCC"/>
<path d="M289.511 10.666H373.566C377.874 10.666 382.007 12.3776 385.053 15.4244C388.1 18.4711 389.812 22.6033 389.812 26.912V44.028H273.264V26.912C273.264 22.6033 274.975 18.4711 278.022 15.4244C281.069 12.3776 285.201 10.666 289.51 10.666H289.511Z" fill="#EAD5D3"/>
<path d="M535.713 85.5851H127.361L176.137 44.0281H486.937L535.713 85.5851Z" fill="#527FCC"/>
<path d="M127.359 85.585H178.477V97.487C178.477 104.265 175.784 110.766 170.991 115.559C166.198 120.352 159.697 123.045 152.918 123.045C146.14 123.045 139.639 120.352 134.846 115.559C130.053 110.766 127.361 104.265 127.36 97.487L127.359 85.585Z" fill="#375992"/>
<path d="M178.479 85.585H229.596V97.487C229.595 104.265 226.902 110.766 222.109 115.559C217.316 120.352 210.816 123.045 204.038 123.045C197.259 123.045 190.758 120.352 185.965 115.559C181.172 110.766 178.479 104.265 178.479 97.487V85.585Z" fill="#4973BA"/>
<path d="M229.596 85.585H280.713V97.487C280.712 104.265 278.02 110.766 273.227 115.559C268.434 120.352 261.933 123.045 255.155 123.045C248.376 123.045 241.875 120.352 237.082 115.559C232.289 110.766 229.596 104.265 229.596 97.487V85.585Z" fill="#375992"/>
<path d="M280.713 85.585H331.831V97.487C331.831 104.265 329.138 110.766 324.344 115.559C319.551 120.352 313.05 123.045 306.272 123.045C299.493 123.045 292.993 120.352 288.199 115.559C283.406 110.766 280.713 104.265 280.713 97.487V85.585Z" fill="#4973BA"/>
<path d="M331.83 85.585H382.947V97.487C382.947 104.265 380.254 110.766 375.461 115.559C370.667 120.352 364.167 123.045 357.388 123.045C350.61 123.045 344.109 120.352 339.316 115.559C334.523 110.766 331.83 104.265 331.83 97.487V85.585Z" fill="#375992"/>
<path d="M382.946 85.585H434.063V97.487C434.063 104.265 431.37 110.766 426.577 115.559C421.784 120.352 415.284 123.045 408.505 123.045C405.149 123.045 401.825 122.384 398.724 121.1C395.623 119.815 392.806 117.933 390.432 115.56C388.059 113.186 386.176 110.369 384.891 107.268C383.607 104.167 382.945 100.843 382.945 97.487L382.946 85.585Z" fill="#4973BA"/>
<path d="M434.064 85.585H485.181V97.487C485.181 104.265 482.488 110.766 477.695 115.559C472.902 120.352 466.402 123.045 459.623 123.045C452.845 123.045 446.344 120.352 441.551 115.559C436.758 110.766 434.065 104.265 434.064 97.487V85.585Z" fill="#375992"/>
<path d="M485.182 85.585H536.301V97.487C536.3 104.265 533.607 110.766 528.814 115.559C524.021 120.352 517.52 123.045 510.742 123.045C503.963 123.045 497.462 120.352 492.669 115.559C487.876 110.766 485.183 104.265 485.183 97.487L485.182 85.585Z" fill="#4973BA"/>
<path d="M229.596 85.5851L251.058 44.0281H210.671L178.479 85.5851H229.596ZM331.831 85.5851V44.0281H297.297L280.713 85.5851H331.831ZM434.065 85.5851L412.604 44.0281H372.217L382.948 85.5851H434.065ZM485.182 85.5851L454.16 44.0281H486.938L536.3 85.5851H485.182Z" fill="#6390DB"/>
<path d="M105.926 143.419H373.978V347.721H105.926V143.419Z" fill="#EAD5D3"/>
<mask id="mask0_500_1440" style="mask-type:luminance" maskUnits="userSpaceOnUse" x="107" y="143" width="269" height="205">
<path d="M107.502 143.419H375.554V347.721H107.502V143.419Z" fill="white"/>
</mask>
<g mask="url(#mask0_500_1440)">
<path d="M186.478 250.085C202.688 276.815 191.31 293.025 190.744 293.59C190.454 293.88 189.888 294.447 189.598 294.447C181.744 297.727 173.362 299.56 164.856 299.859V324.035C166.278 327.155 174.811 343.089 185.912 347.921C186.586 348.228 187.114 348.788 187.38 349.48C187.646 350.172 187.629 350.941 187.334 351.621C186.996 352.268 186.434 352.769 185.752 353.031C185.071 353.293 184.318 353.298 183.634 353.044C175.667 349.634 169.123 341.667 164.856 335.412V353.61C164.856 354.364 164.556 355.088 164.023 355.621C163.489 356.154 162.766 356.454 162.012 356.454C161.257 356.454 160.534 356.154 160.001 355.621C159.467 355.088 159.168 354.364 159.168 353.61V335.122C154.901 341.667 148.357 349.633 140.114 353.32C139.43 353.583 138.673 353.584 137.99 353.321C137.306 353.058 136.744 352.55 136.414 351.897C136.118 351.219 136.101 350.452 136.367 349.762C136.634 349.072 137.161 348.514 137.836 348.211C150.069 342.799 159.168 324.035 159.168 323.745V300.135C150.586 299.705 142.131 297.882 134.135 294.737C133.596 294.443 133.114 294.054 132.713 293.59C132.147 293.024 122.193 277.671 136.98 250.36C141.246 242.118 139.548 232.73 131.871 221.918C131.291 221.352 124.761 206.275 127.315 200.586C127.655 199.874 128.175 199.264 128.824 198.816C129.473 198.368 130.229 198.097 131.015 198.032C136.414 197.466 144.946 195.188 146.368 191.778C146.789 189.814 146.98 187.807 146.935 185.799C146.951 185.333 147.079 184.878 147.31 184.473C147.541 184.068 147.866 183.725 148.259 183.474C148.651 183.223 149.099 183.071 149.563 183.031C150.028 182.991 150.495 183.064 150.925 183.245C153.288 184.598 155.898 185.466 158.602 185.799V177.266C158.652 176.528 158.968 175.834 159.49 175.311C160.013 174.788 160.708 174.472 161.446 174.422C162.2 174.422 162.923 174.722 163.456 175.255C163.989 175.789 164.289 176.512 164.29 177.266V185.799C167.173 185.472 169.969 184.606 172.533 183.245C172.937 183.035 173.388 182.93 173.843 182.939C174.299 182.947 174.745 183.069 175.142 183.294C175.538 183.519 175.872 183.84 176.113 184.226C176.354 184.613 176.495 185.054 176.523 185.509C176.799 188.643 177.379 192.344 177.945 193.199C179.643 195.464 187.9 197.466 192.733 198.032C193.485 198.09 194.205 198.361 194.809 198.813C195.413 199.265 195.876 199.88 196.143 200.586C198.421 205.999 189.033 221.918 188.756 221.918C181.356 230.741 180.499 240.696 186.478 250.085Z" fill="#375992"/>
<path d="M249.005 219.319V217.331C245.037 217.331 241.078 217.5 236.951 217.5C232.992 217.5 229.025 217.331 225.066 217.171C225.082 217.563 225.025 217.954 224.897 218.325C224.897 218.654 224.737 218.982 224.737 219.319C232.824 219.648 240.913 219.648 249.005 219.319ZM221.764 200.164C222.261 204.46 224.4 208.251 224.897 212.378C225.037 213.142 225.094 213.919 225.066 214.695C233.153 215.023 241.242 215.023 249.333 214.695C249.662 213.204 250.327 211.721 250.816 210.239C251.81 207.594 253.292 204.46 253.132 201.487C253.132 198.185 251.978 195.043 252.138 191.741C252.307 189.105 252.138 186.46 252.307 183.823C252.307 182.333 253.292 178.045 252.635 176.883C251.908 175.504 251.08 174.181 250.159 172.923C247.851 174.743 248.836 180.184 248.836 182.829C248.836 184.649 248.676 186.629 248.508 188.439C248.339 191.084 248.676 193.561 246.031 194.218C243.226 194.883 241.247 195.38 239.099 197.359C237.945 198.345 237.279 198.842 236.623 198.842C235.469 199.01 234.803 197.688 232.655 196.205C229.522 194.218 228.528 192.735 227.702 189.265C226.717 185.803 227.045 182.172 227.045 178.533C227.045 177.708 227.702 173.252 226.388 173.092C225.226 172.923 224.24 176.057 223.743 176.882C223.086 177.876 223.575 181.01 223.575 182.332V188.279C223.575 192.406 221.267 195.869 221.764 200.164ZM268.32 249.197C265.843 245.237 264.192 240.782 261.387 236.814C257.917 231.861 251.641 227.405 249.662 221.627C245.534 221.795 241.407 221.956 237.119 221.956C232.824 221.956 228.368 221.796 224.072 221.627C222.589 224.6 220.112 227.077 217.965 229.553C210.865 237.968 206.08 248.043 201.952 258.277C199.147 265.049 196.831 266.86 209.71 273.304C216.773 276.696 224.493 278.499 232.327 278.585C244.709 278.585 256.763 274.787 267.991 269.834C270.139 268.848 272.279 267.854 273.441 266.034C276.406 261.25 270.796 253.324 268.32 249.197Z" fill="#FF6557"/>
<path d="M256.83 177.016H218.31C217.327 177.016 216.363 176.749 215.52 176.245C214.676 175.741 213.985 175.018 213.52 174.153C213.055 173.287 212.832 172.312 212.877 171.331C212.921 170.349 213.23 169.398 213.772 168.578L213.91 168.368L237.57 159.212L261.23 168.369L261.368 168.578C261.909 169.398 262.219 170.349 262.263 171.33C262.307 172.312 262.085 173.287 261.62 174.152C261.154 175.017 260.464 175.741 259.62 176.245C258.777 176.749 257.813 177.015 256.831 177.016H256.83ZM214.958 169.651C214.62 170.239 214.443 170.905 214.444 171.582C214.445 172.26 214.625 172.925 214.964 173.512C215.304 174.098 215.791 174.585 216.378 174.924C216.965 175.263 217.631 175.441 218.309 175.441H256.831C257.508 175.441 258.174 175.262 258.761 174.924C259.348 174.585 259.835 174.098 260.175 173.512C260.514 172.925 260.693 172.26 260.694 171.582C260.695 170.904 260.518 170.238 260.181 169.651L237.571 160.901L214.958 169.651Z" fill="#0E2B5C"/>
<path d="M237.451 160.844C237.347 160.844 237.245 160.824 237.149 160.784C237.053 160.745 236.967 160.687 236.893 160.614C236.82 160.541 236.762 160.454 236.723 160.358C236.683 160.263 236.662 160.16 236.662 160.057V156.729C235.468 156.5 234.402 155.835 233.672 154.862C232.943 153.889 232.602 152.679 232.717 151.469C232.832 150.258 233.395 149.134 234.294 148.316C235.194 147.498 236.367 147.045 237.582 147.046C238.787 147.044 239.949 147.488 240.846 148.293C241.743 149.097 242.31 150.204 242.439 151.402C242.454 151.506 242.447 151.613 242.42 151.714C242.393 151.816 242.345 151.912 242.281 151.995C242.216 152.078 242.135 152.147 242.043 152.199C241.951 152.25 241.849 152.283 241.745 152.294C241.64 152.305 241.534 152.296 241.433 152.265C241.332 152.235 241.238 152.185 241.157 152.118C241.075 152.05 241.008 151.968 240.96 151.874C240.911 151.78 240.882 151.678 240.873 151.573C240.805 150.942 240.556 150.343 240.156 149.85C239.757 149.356 239.224 148.987 238.621 148.788C238.018 148.589 237.371 148.567 236.756 148.725C236.141 148.884 235.585 149.216 235.153 149.681C234.721 150.147 234.433 150.727 234.322 151.353C234.211 151.978 234.282 152.622 234.527 153.208C234.772 153.794 235.18 154.297 235.703 154.658C236.225 155.018 236.841 155.22 237.475 155.241L238.237 155.266V160.056C238.238 160.159 238.217 160.262 238.178 160.357C238.138 160.453 238.08 160.54 238.007 160.613C237.934 160.686 237.847 160.744 237.752 160.784C237.656 160.824 237.554 160.844 237.451 160.844Z" fill="#0E2B5C"/>
<path d="M145.432 196.446C148.472 196.446 148.478 191.721 145.432 191.721C142.392 191.721 142.387 196.446 145.432 196.446ZM151.905 202.447C154.945 202.447 154.951 197.722 151.905 197.722C148.865 197.722 148.86 202.447 151.905 202.447Z" fill="#F82A17"/>
<path d="M148.55 198.431C148.857 198.422 149.149 198.294 149.363 198.073C149.578 197.852 149.698 197.557 149.698 197.249C149.698 196.942 149.578 196.646 149.363 196.426C149.149 196.205 148.857 196.077 148.55 196.068C148.243 196.077 147.951 196.205 147.736 196.426C147.522 196.646 147.402 196.942 147.402 197.249C147.402 197.557 147.522 197.852 147.736 198.073C147.951 198.294 148.243 198.422 148.55 198.431ZM156.678 203.156C156.983 203.143 157.271 203.013 157.482 202.793C157.693 202.573 157.811 202.28 157.811 201.975C157.811 201.67 157.693 201.377 157.482 201.156C157.271 200.936 156.983 200.806 156.678 200.794C156.373 200.806 156.085 200.936 155.874 201.156C155.663 201.377 155.545 201.67 155.545 201.975C155.545 202.28 155.663 202.573 155.874 202.793C156.085 203.013 156.373 203.143 156.678 203.156ZM165.94 202.495C166.247 202.486 166.539 202.358 166.753 202.137C166.968 201.916 167.088 201.621 167.088 201.313C167.088 201.006 166.968 200.71 166.753 200.49C166.539 200.269 166.247 200.141 165.94 200.132C165.633 200.141 165.341 200.269 165.126 200.49C164.912 200.71 164.792 201.006 164.792 201.313C164.792 201.621 164.912 201.916 165.126 202.137C165.341 202.358 165.633 202.486 165.94 202.495ZM174.066 197.959C174.373 197.95 174.665 197.822 174.879 197.601C175.094 197.38 175.214 197.085 175.214 196.777C175.214 196.47 175.094 196.174 174.879 195.954C174.665 195.733 174.373 195.605 174.066 195.596C173.759 195.605 173.467 195.733 173.252 195.954C173.038 196.174 172.918 196.47 172.918 196.777C172.918 197.085 173.038 197.38 173.252 197.601C173.467 197.822 173.759 197.95 174.066 197.959Z" fill="#CE2718"/>
<path d="M161.686 205.188C164.726 205.188 164.732 200.463 161.686 200.463C158.646 200.463 158.641 205.188 161.686 205.188ZM170.097 201.55C173.137 201.55 173.143 196.824 170.097 196.824C167.057 196.824 167.052 201.55 170.097 201.55ZM177.894 196.73C180.934 196.73 180.939 192.005 177.894 192.005C174.854 192.005 174.848 196.73 177.894 196.73Z" fill="#F82A17"/>
</g>
<path d="M381.769 347.721H98.1348C97.0302 347.721 96.1348 348.616 96.1348 349.721V361.588C96.1348 362.693 97.0302 363.588 98.1348 363.588H381.769C382.873 363.588 383.769 362.693 383.769 361.588V349.721C383.769 348.616 382.873 347.721 381.769 347.721Z" fill="#4973BA"/>
<path d="M127.996 225.156C127.685 225.156 127.38 225.064 127.122 224.89C126.863 224.717 126.661 224.471 126.542 224.183C126.422 223.896 126.391 223.579 126.452 223.273C126.513 222.968 126.663 222.687 126.883 222.467L199.345 150.005C199.492 149.859 199.665 149.743 199.856 149.663C200.047 149.584 200.252 149.544 200.459 149.543C200.666 149.543 200.871 149.584 201.062 149.663C201.253 149.742 201.427 149.858 201.573 150.005C201.719 150.151 201.835 150.324 201.915 150.515C201.994 150.707 202.035 150.911 202.035 151.118C202.035 151.325 201.994 151.53 201.915 151.721C201.836 151.912 201.72 152.086 201.573 152.232L129.11 224.695C128.964 224.841 128.791 224.957 128.599 225.036C128.408 225.115 128.203 225.156 127.996 225.155V225.156ZM160.087 228.16C159.773 228.16 159.465 228.066 159.205 227.89C158.944 227.714 158.742 227.464 158.625 227.172C158.508 226.88 158.48 226.56 158.547 226.253C158.613 225.945 158.77 225.664 158.997 225.447L203.65 182.727C203.952 182.438 204.356 182.281 204.774 182.29C205.192 182.3 205.589 182.474 205.878 182.776C206.166 183.078 206.323 183.482 206.314 183.9C206.305 184.317 206.13 184.714 205.828 185.003L161.175 227.723C160.883 228.004 160.493 228.161 160.087 228.161V228.16ZM234.62 334.679C234.309 334.679 234.004 334.587 233.745 334.414C233.486 334.241 233.284 333.995 233.165 333.707C233.046 333.419 233.014 333.102 233.075 332.797C233.136 332.491 233.286 332.21 233.507 331.99L305.968 259.528C306.115 259.382 306.288 259.266 306.479 259.186C306.67 259.107 306.875 259.066 307.082 259.066C307.289 259.066 307.494 259.107 307.685 259.186C307.876 259.265 308.05 259.381 308.196 259.528C308.342 259.674 308.458 259.847 308.538 260.038C308.617 260.23 308.658 260.434 308.658 260.641C308.658 260.848 308.617 261.053 308.538 261.244C308.459 261.435 308.343 261.609 308.197 261.755L235.733 334.217C235.587 334.364 235.414 334.48 235.223 334.559C235.031 334.639 234.826 334.679 234.619 334.679H234.62ZM266.71 337.684C266.396 337.684 266.088 337.591 265.827 337.414C265.566 337.238 265.364 336.988 265.247 336.696C265.129 336.404 265.102 336.083 265.169 335.776C265.236 335.468 265.393 335.187 265.62 334.97L310.273 292.25C310.575 291.961 310.979 291.804 311.397 291.813C311.815 291.822 312.212 291.997 312.5 292.299C312.789 292.601 312.946 293.005 312.937 293.423C312.928 293.84 312.753 294.237 312.451 294.526L267.798 337.246C267.506 337.527 267.116 337.684 266.71 337.684Z" fill="white"/>
<path d="M264.952 405.125L261.093 417.582C261.093 417.582 239.739 419.806 234.4 433.597H278.322C278.933 433.597 279.523 433.381 279.989 432.986C280.454 432.592 280.765 432.045 280.865 431.443L285.251 405.125H264.952ZM373.249 396.242L373.987 412.022C373.987 412.022 354.757 418.81 354.576 433.597L397.405 424.769C398.585 424.329 397.598 419.336 397.357 418.099L392.267 389.147L373.249 396.242Z" fill="#FD7266"/>
<path d="M294.886 218.497L259.826 407.511C259.826 407.511 281.686 404.211 294.886 413.698C308.086 423.185 329.122 405.579 337.289 406.517C343.465 407.226 360.306 409.662 369.793 406.062C379.28 402.462 385.467 397.513 399.903 404.938C399.903 404.938 408.153 407.413 414.753 401.226C414.753 401.226 384.805 340.691 371.606 299.444C358.407 258.197 352.323 232.005 331.648 218.497H294.886Z" fill="#FC5546"/>
<path d="M486.273 299.857L482.352 293.899L485.631 288.044L424.953 262.409L388.416 329.553L486.273 299.857Z" fill="#E85E52"/>
<path d="M298.599 116.514C298.599 116.514 299.63 104.449 305.714 102.18C311.798 99.9109 312.417 102.386 316.232 102.18C318.697 101.976 321.071 101.161 323.141 99.8089C323.141 99.8089 325.822 105.274 324.997 108.883C324.172 112.492 326.235 121.773 328.297 121.051C330.359 120.329 328.297 113.936 332.215 115.998C336.133 118.06 334.999 124.866 330.256 125.485C330.256 125.485 328.091 137.137 330.153 142.293C330.153 142.293 340.053 148.893 340.671 155.698C341.289 162.503 341.702 170.341 343.971 171.785C346.24 173.229 361.088 171.578 360.47 161.06C359.852 150.542 352.633 145.18 353.87 134.869C355.107 124.558 340.671 111.152 339.227 105.583C337.783 100.014 327.678 87.2279 321.079 87.8469C314.48 88.4659 303.549 84.3409 298.599 91.7649C293.649 99.1889 292.412 107.852 298.599 116.514Z" fill="#122E5E"/>
<path d="M330.257 125.485C335.001 124.866 336.135 118.06 332.217 115.998C328.297 113.936 330.36 120.329 328.297 121.051C326.235 121.773 324.173 112.492 324.998 108.883C325.823 105.274 323.142 99.8081 323.142 99.8081C321.072 101.161 318.697 101.976 316.233 102.18C312.418 102.386 311.799 99.9121 305.715 102.18C299.631 104.449 298.6 116.514 298.6 116.514C298.6 116.514 296.125 136.312 308.293 138.581C308.293 138.581 309.53 149.305 306.437 153.43C306.437 153.43 297.027 166.245 330.102 142.149C328.132 136.925 330.257 125.485 330.257 125.485Z" fill="#FD7266"/>
<path d="M311.694 108.831C312.027 108.818 312.342 108.676 312.573 108.436C312.804 108.196 312.934 107.875 312.934 107.542C312.934 107.209 312.804 106.888 312.573 106.648C312.342 106.408 312.027 106.266 311.694 106.253C311.361 106.266 311.046 106.408 310.815 106.648C310.584 106.888 310.455 107.209 310.455 107.542C310.455 107.875 310.584 108.196 310.815 108.436C311.046 108.676 311.361 108.818 311.694 108.831ZM331.492 128.066C334.81 128.066 334.816 122.91 331.492 122.91C328.175 122.91 328.169 128.066 331.492 128.066Z" fill="#D02819"/>
<path d="M317.573 117.601C317.971 117.601 318.353 117.443 318.634 117.162C318.915 116.88 319.073 116.499 319.073 116.101C319.073 115.703 318.915 115.322 318.634 115.04C318.353 114.759 317.971 114.601 317.573 114.601C317.175 114.601 316.794 114.759 316.513 115.04C316.231 115.322 316.073 115.703 316.073 116.101C316.073 116.499 316.231 116.88 316.513 117.162C316.794 117.443 317.175 117.601 317.573 117.601ZM304.27 116.467C304.668 116.467 305.05 116.309 305.331 116.028C305.612 115.746 305.77 115.365 305.77 114.967C305.77 114.569 305.612 114.188 305.331 113.906C305.05 113.625 304.668 113.467 304.27 113.467C303.872 113.467 303.491 113.625 303.21 113.906C302.928 114.188 302.77 114.569 302.77 114.967C302.77 115.365 302.928 115.746 303.21 116.028C303.491 116.309 303.872 116.467 304.27 116.467ZM307.467 108.542C307.24 108.542 307.02 108.465 306.843 108.323C304.763 106.659 301.48 107.94 301.447 107.954C301.203 108.047 300.931 108.04 300.692 107.936C300.452 107.831 300.263 107.636 300.165 107.394C300.067 107.151 300.068 106.88 300.167 106.638C300.267 106.396 300.458 106.203 300.698 106.1C300.876 106.028 305.091 104.363 308.092 106.76C308.255 106.889 308.373 107.066 308.43 107.265C308.487 107.465 308.481 107.677 308.413 107.873C308.344 108.069 308.216 108.238 308.047 108.358C307.877 108.478 307.675 108.542 307.467 108.542ZM322.32 110.426C322.094 110.426 321.874 110.349 321.697 110.207C319.601 108.529 316.337 109.823 316.303 109.837C316.181 109.887 316.051 109.913 315.919 109.912C315.787 109.912 315.656 109.886 315.535 109.834C315.413 109.783 315.303 109.709 315.21 109.615C315.118 109.521 315.044 109.41 314.995 109.287C314.946 109.165 314.921 109.034 314.922 108.902C314.923 108.771 314.951 108.64 315.003 108.519C315.055 108.398 315.13 108.288 315.224 108.196C315.319 108.104 315.431 108.032 315.553 107.983C315.73 107.913 319.945 106.244 322.946 108.645C323.108 108.774 323.225 108.951 323.282 109.15C323.339 109.349 323.333 109.561 323.264 109.756C323.195 109.952 323.068 110.121 322.899 110.241C322.73 110.36 322.528 110.425 322.321 110.425L322.32 110.426Z" fill="#122E5E"/>
<path d="M309.838 111.667C309.702 112.912 309.458 114.142 309.109 115.345C308.777 116.513 308.402 117.668 307.984 118.808L307.375 120.477L307.11 121.267L307.025 121.585C307.015 121.607 307.013 121.655 306.993 121.598C306.948 121.5 306.94 121.508 306.933 121.511C306.885 121.533 307.046 121.691 307.263 121.794C307.509 121.914 307.767 122.006 308.033 122.07C308.598 122.24 309.207 122.345 309.838 122.494C309.25 122.776 308.62 122.964 307.973 123.05C307.627 123.094 307.276 123.098 306.928 123.062C306.454 123.025 306.01 122.813 305.684 122.466C305.556 122.327 305.463 122.16 305.413 121.977C305.375 121.832 305.353 121.684 305.348 121.534C305.345 121.336 305.355 121.138 305.377 120.941C305.418 120.607 305.477 120.275 305.554 119.947C305.704 119.331 305.888 118.724 306.104 118.128C306.531 116.96 307.052 115.829 307.661 114.745C308.268 113.64 308.998 112.607 309.838 111.667ZM311.694 127.135C312.184 126.803 312.545 126.542 312.88 126.279C313.212 126.025 313.5 125.786 313.797 125.544L314.72 124.753C315.101 124.419 315.504 124.113 315.927 123.835C316.075 124.38 316.05 124.958 315.855 125.488C315.661 126.021 315.332 126.495 314.899 126.863C314.452 127.234 313.909 127.472 313.332 127.548C313.046 127.593 312.753 127.579 312.471 127.508C312.19 127.437 311.926 127.31 311.694 127.135ZM308.291 138.58C308.291 138.58 315.509 139.715 320.665 135.9C320.665 135.9 316.4 142.6 308.53 143.942C308.681 142.152 308.601 140.349 308.291 138.58Z" fill="#D02819"/>
<path d="M343.969 171.785C341.701 170.341 341.289 162.504 340.67 155.698C340.051 148.892 330.152 142.293 330.152 142.293C330.134 142.247 330.118 142.196 330.1 142.149C306.886 159.061 304.6 157.789 305.301 155.529C305.301 155.529 295.608 169.619 291.741 175.651C287.874 181.683 285.013 189.727 294.409 200.864V211.072H333.039V207.205L351.909 201.173L344.879 172.096C344.56 172.047 344.252 171.942 343.969 171.785Z" fill="#FC5546"/>
<path d="M294.651 192.74C292.601 179.019 303.241 175.518 303.349 175.483L303.649 176.438C303.242 176.566 293.719 179.738 295.64 192.592L294.651 192.74Z" fill="black"/>
<path d="M295.713 211.072L294.887 218.497H331.649V211.072H295.713ZM348.735 202.189C348.735 202.189 358.202 214.888 360.265 223.756C362.328 232.624 374.907 262.94 374.907 262.94C374.907 262.94 386.714 269.23 386.714 272.324V274.18C386.714 274.18 387.719 283.538 386.714 283.693C386.714 283.693 383.236 285.396 372.948 278.279C370.655 275.771 368.846 272.861 367.611 269.695C366.065 265.132 343.25 225.148 343.25 225.148L333.041 207.205L348.735 202.189Z" fill="#FD7266"/>
<path d="M351.91 214.785C352.53 214.844 353.128 215.048 353.654 215.382C354.15 215.688 354.588 216.078 354.95 216.535C355.331 217.004 355.613 217.546 355.776 218.128C355.881 218.441 355.922 218.772 355.896 219.102C355.87 219.431 355.777 219.751 355.623 220.044C355.158 219.549 354.769 219.248 354.399 218.888C354.037 218.54 353.697 218.169 353.383 217.777C353.058 217.366 352.77 216.927 352.522 216.465C352.237 215.938 352.031 215.372 351.911 214.785H351.91ZM382.46 279.13C383.295 279.016 384.145 279.09 384.948 279.345C385.762 279.566 386.515 279.967 387.153 280.519C386.318 280.635 385.467 280.561 384.664 280.304C383.851 280.081 383.099 279.68 382.46 279.13ZM383.31 275.263C383.961 275.116 384.64 275.154 385.27 275.372C385.91 275.563 386.482 275.93 386.922 276.432C386.272 276.581 385.592 276.543 384.962 276.322C384.323 276.129 383.751 275.762 383.31 275.262V275.263ZM383.31 271.783C383.928 271.636 384.576 271.673 385.173 271.89C385.779 272.081 386.315 272.447 386.713 272.943C386.095 273.092 385.447 273.055 384.85 272.836C384.245 272.643 383.71 272.277 383.31 271.783Z" fill="#D02819"/>
<path d="M486.273 299.857L440.901 373.689L388.416 329.553L426.684 271.783L486.273 299.857Z" fill="#FF6557"/>
<path d="M442.19 314.194L435.449 325.163L427.651 318.606L433.337 310.023L442.19 314.194ZM399.146 313.354C397.207 310.994 395.436 308.531 393.724 306.032C392.001 303.539 390.378 300.984 388.774 298.418C387.203 295.832 385.652 293.233 384.201 290.573C382.739 287.919 381.337 285.228 380.105 282.433C382.045 284.792 383.818 287.254 385.53 289.754C387.252 292.248 388.875 294.802 390.476 297.37C392.046 299.957 393.596 302.556 395.048 305.217C396.509 307.871 397.912 310.561 399.146 313.354ZM386.713 272.324C389.119 272.736 391.501 273.278 393.848 273.948C396.194 274.583 398.502 275.328 400.803 276.096C403.092 276.899 405.373 277.726 407.615 278.662C409.88 279.572 412.093 280.607 414.245 281.76C411.838 281.351 409.456 280.81 407.109 280.139C404.763 279.503 402.455 278.757 400.155 277.987C397.867 277.182 395.587 276.355 393.344 275.418C391.079 274.508 388.866 273.475 386.713 272.324ZM400.015 308.054C398.242 306.232 396.565 304.32 394.992 302.323C393.399 300.355 391.902 298.319 390.422 296.27C388.974 294.2 387.545 292.114 386.212 289.961C384.845 287.818 383.592 285.604 382.459 283.328C384.234 285.148 385.912 287.061 387.485 289.058C389.077 291.026 390.575 293.062 392.052 295.113C393.499 297.185 394.927 299.27 396.26 301.423C397.626 303.567 398.88 305.78 400.015 308.054ZM384.11 268.89C387.418 269.23 390.682 269.762 393.931 270.361C397.182 270.948 400.408 271.65 403.628 272.373C406.839 273.133 410.045 273.917 413.225 274.815C416.408 275.7 419.575 276.655 422.696 277.803C419.387 277.466 416.122 276.935 412.874 276.335C409.623 275.748 406.397 275.046 403.178 274.321C399.967 273.559 396.761 272.774 393.581 271.876C390.399 270.99 387.231 270.036 384.109 268.891L384.11 268.89ZM286.336 264.592C294.976 249.728 302.668 234.332 309.365 218.497H294.885L286.336 264.592Z" fill="#375992"/>
<path d="M295.713 211.072L294.887 218.497H309.366C310.381 216.038 311.356 213.563 312.291 211.072H295.713Z" fill="#375992"/>
<path d="M291.742 175.651C287.875 181.684 285.013 189.727 294.41 200.864V211.072H312.29C314.931 205.721 316.75 200.002 317.686 194.108C319.22 184.278 317.394 179.107 318.05 167.15C318.394 160.958 319.292 154.809 320.732 148.777C306.25 158.641 304.71 157.439 305.302 155.529C305.302 155.529 295.609 169.619 291.742 175.651Z" fill="#375992"/>
<path d="M320.665 157.864C319.324 159.579 318.602 161.697 318.616 163.874C318.553 166.035 318.707 168.197 319.077 170.327C319.827 174.623 320.862 178.865 322.174 183.024C323.445 187.21 324.861 191.363 326.348 195.496C327.814 199.637 329.351 203.763 330.903 207.892L330.655 207.785L333.039 207.205L330.784 208.172L330.63 208.238L330.535 208.066C326.281 200.284 322.843 192.083 320.275 183.594C318.949 179.332 318.045 174.95 317.575 170.511C317.335 168.269 317.37 166.006 317.681 163.773C317.908 161.501 318.972 159.396 320.665 157.864Z" fill="#AF0E00"/>
<path d="M317.572 161.28C317.572 161.28 330.314 147.076 340.154 153.482C340.154 153.482 336.708 143.26 330.152 142.293L320.73 148.778L317.572 161.28Z" fill="#375992"/>
<path d="M360.487 162.813C347.41 136.209 330.152 142.293 330.152 142.293C334.807 147.951 340.449 152.923 342.724 159.887C344.446 165.159 343.944 173.103 346.745 182.47C349.722 192.418 352.255 192.064 359.618 206.935C369.176 226.24 374.925 238.505 375.73 246.957C376.349 253.454 378.205 255 382.458 253.144C386.712 251.288 392.744 257.475 397.385 251.288C401.633 245.624 406.397 248.773 407.172 249.346C389.548 236.254 373.537 189.361 360.487 162.813ZM407.172 249.346C407.209 249.374 407.247 249.405 407.284 249.432C407.284 249.432 407.244 249.399 407.172 249.346Z" fill="#375992"/>
</svg>
