<svg width="326" height="273" viewBox="0 0 326 273" fill="none" xmlns="http://www.w3.org/2000/svg">
<path d="M300.672 258.168H34.25C37.0618 239.445 47.1471 223.777 60.8264 215.653C65.8892 212.614 71.4627 210.618 77.3227 209.888C80.9443 194.946 87.2218 181.386 95.4914 169.994C111.412 148.081 134.739 134.265 160.732 134.265C196.518 134.265 227.235 160.47 240.574 197.916C242.26 197.707 243.962 197.549 245.685 197.549C270.891 197.549 291.303 222.312 291.303 252.836C291.303 253.145 291.303 253.404 291.283 253.671C294.658 254.53 297.82 256.08 300.672 258.168Z" fill="#F4DEDC"/>
<path d="M227.967 258.168H325.433C322.86 253.526 317.394 254.965 311.509 254.841C310.409 251.371 307.361 251.443 300.795 252.512C309.113 244.926 306.518 237.474 292.011 242.331C308.581 219.774 282.895 214.618 279.102 214.167C274.322 213.597 252.351 217.11 263.996 240.601C249.888 234.745 246.029 241.666 256.676 253.844C246.505 254.321 234.317 256.555 227.967 258.168ZM0 258.168H170.235C159.193 255.603 136.311 252.565 126.018 252.349C124.094 246.278 118.763 246.406 107.278 248.275C121.828 235.006 117.288 221.971 91.9137 230.467C120.897 191.011 75.9673 181.993 69.3325 181.204C60.9722 180.207 22.5409 186.352 42.9106 227.44C18.2342 217.199 11.4834 229.304 30.1068 250.604C12.3152 251.438 6.00235 253.526 0 258.168Z" fill="#E59A93"/>
<path d="M53.2619 61.1172H273.035C282.782 61.1172 290.679 69.0153 290.679 78.7404V199.41C290.679 209.158 282.782 217.054 273.035 217.054H53.2619C43.5353 217.054 35.6387 209.158 35.6387 199.41V78.7404C35.6387 69.0153 43.5351 61.1172 53.2619 61.1172Z" fill="#F69991"/>
<path d="M46.373 199.415C46.373 199.69 46.389 199.949 46.42 200.224C46.816 203.691 49.7616 206.311 53.2688 206.311H273.022C276.529 206.311 279.475 203.691 279.873 200.216C279.903 199.949 279.918 199.689 279.918 199.415V78.7449C279.918 78.1338 279.833 77.5204 279.662 76.9166C278.846 73.9276 276.118 71.8511 273.022 71.8511H53.2688C50.1745 71.8511 47.4452 73.9294 46.6317 76.9034C46.4585 77.5205 46.373 78.1337 46.373 78.7449V199.415Z" fill="#FFD1CD"/>
<path d="M272.994 5.21572V42.3674H54.584V5.21572C54.584 2.3402 56.9274 0 59.8059 0H267.778C270.663 0 272.994 2.3402 272.994 5.21572Z" fill="#FF4939"/>
<path d="M223.009 55.3578H183.16L171.412 31.0835H202.742L223.009 55.3578Z" fill="#003794"/>
<path d="M93.5919 31.0835L63.3204 55.3578H23.4551L56.9627 31.0835H93.5919Z" fill="#003794"/>
<path d="M156.116 31.0835L143.191 55.3578H103.256L124.675 31.0835H156.116Z" fill="#003794"/>
<path d="M124.864 31.0835L103.256 55.3578H63.3125L93.4607 31.0835H124.864Z" fill="#FC5546"/>
<path d="M262.998 55.3578H222.976L202.66 31.0835H233.949L262.998 55.3578Z" fill="#FC5546"/>
<path d="M302.841 55.3578H262.939L233.783 31.0835H270.215L302.841 55.3578Z" fill="#003794"/>
<path d="M171.478 31.0835L183.201 55.3578H143.191L156.116 31.0835H171.478Z" fill="#FC5546"/>
<path d="M63.3295 55.3574V70.69C63.3295 70.9443 63.3295 71.182 63.313 71.4366C63.0176 85.514 54.207 96.8022 43.37 96.8022C32.533 96.8022 23.7058 85.514 23.427 71.4366C23.4023 71.1822 23.4023 70.9443 23.4023 70.69V55.3574H63.3295Z" fill="#09347C"/>
<path d="M103.257 55.3574V70.69C103.257 70.9443 103.257 71.182 103.241 71.4366C102.949 85.514 94.1346 96.8022 83.2976 96.8022C72.4646 96.8022 63.6418 85.514 63.3464 71.4366C63.3301 71.1822 63.3301 70.9443 63.3301 70.69V55.3574H103.257Z" fill="#FF4939"/>
<path d="M143.191 55.3574V70.69C143.191 70.9443 143.191 71.182 143.166 71.4366C142.871 85.514 134.056 96.8022 123.228 96.8022C112.386 96.8022 103.563 85.514 103.272 71.4366C103.256 71.1822 103.256 70.9443 103.256 70.69V55.3574H143.191Z" fill="#09347C"/>
<path d="M183.118 55.3574V70.69C183.118 70.9443 183.118 71.182 183.102 71.4366C182.807 85.514 173.996 96.8022 163.151 96.8022C152.322 96.8022 143.495 85.514 143.2 71.4366C143.191 71.1822 143.191 70.9443 143.191 70.69V55.3574H183.118Z" fill="#FF4939"/>
<path d="M223.038 55.3574V70.69C223.038 70.9443 223.038 71.182 223.03 71.4366C222.734 85.514 213.924 96.8022 203.087 96.8022C192.25 96.8022 183.423 85.514 183.136 71.4366C183.119 71.1822 183.119 70.9443 183.119 70.69V55.3574H223.038ZM302.896 55.3574V70.69C302.896 70.9443 302.896 71.182 302.884 71.4366C302.588 85.514 293.769 96.8022 282.941 96.8022C272.104 96.8022 263.285 85.514 262.985 71.4366C262.969 71.1822 262.969 70.9443 262.969 70.69V55.3574H302.896Z" fill="#09347C"/>
<path d="M262.968 55.3574V70.69C262.968 70.9443 262.968 71.182 262.956 71.4366C262.661 85.514 253.846 96.8022 243.013 96.8022C232.176 96.8022 223.353 85.514 223.062 71.4366C223.037 71.1822 223.037 70.9443 223.037 70.69V55.3574H262.968Z" fill="#FF4939"/>
<path d="M23.427 71.4371H23.4023V70.6904C23.4023 70.9449 23.4023 71.1826 23.427 71.4371ZM63.3295 70.6906V71.4372H63.313C63.3295 71.1826 63.3295 70.9449 63.3295 70.6906Z" fill="white"/>
<path d="M103.777 104.105H74.8254C71.7106 104.105 69.1855 106.63 69.1855 109.745V133.755C69.1855 136.87 71.7106 139.395 74.8254 139.395H103.777C106.891 139.395 109.417 136.87 109.417 133.755V109.745C109.416 106.63 106.891 104.105 103.777 104.105Z" fill="white"/>
<path d="M82.3545 137.016L100.006 133.869L96.6388 108.419L81.2051 109.763L82.3545 137.016Z" fill="#003794"/>
<path d="M81.2034 109.763L80.5027 110.363L79.9892 109.869L78.5996 135.372L79.9653 135.684L82.3529 137.015L81.2034 109.763Z" fill="#09347C"/>
<path d="M92.6835 112.445C92.6835 112.814 92.8968 113.113 93.1601 113.113C93.4235 113.113 93.6368 112.814 93.6368 112.445C93.6368 112.077 93.4235 111.778 93.1601 111.778C92.897 111.778 92.6835 112.077 92.6835 112.445ZM86.7031 112.734C86.7031 113.091 86.9101 113.381 87.1653 113.381C87.4207 113.381 87.6276 113.091 87.6276 112.734C87.6276 112.376 87.4207 112.087 87.1653 112.087C86.9101 112.087 86.7031 112.376 86.7031 112.734Z" fill="#09347C"/>
<path d="M93.4256 112.429C93.6026 113.47 93.7797 114.51 93.9567 115.55C94.1088 116.443 94.3056 117.345 94.3384 118.253C94.3973 119.887 93.6059 121.266 92.0946 121.935C91.328 122.274 90.4801 122.394 89.6464 122.385C89.022 122.378 88.2874 122.323 87.8916 121.769C87.4431 121.141 87.8908 120.508 88.3323 120.022C88.8488 119.452 90.0595 118.977 90.0126 118.096C89.9804 117.492 89.5123 117.037 89.1251 116.625C88.8066 116.286 88.5049 115.934 88.2281 115.56C87.7293 114.887 86.9245 113.873 87.0241 112.979C87.0498 112.749 87.4148 112.746 87.3889 112.979C87.3045 113.738 88.0178 114.647 88.4431 115.239C88.89 115.861 89.4639 116.367 89.9222 116.976C90.2672 117.433 90.5065 118.034 90.3034 118.604C90.1002 119.174 89.5202 119.458 89.0798 119.816C88.7698 120.068 88.4699 120.367 88.2529 120.704C87.8903 121.267 88.1855 121.756 88.7829 121.933C89.5301 122.154 90.5099 122.034 91.248 121.842C92.9352 121.405 94.0155 120.099 93.9767 118.338C93.9561 117.403 93.7454 116.471 93.589 115.552C93.4172 114.543 93.2455 113.535 93.0738 112.526C93.0348 112.297 93.3862 112.198 93.4256 112.429Z" fill="#FFD1CD"/>
<path d="M116.464 115.061H145.903C146.755 115.061 147.446 114.369 147.446 113.517C147.446 112.664 146.755 111.973 145.903 111.973H116.464C115.612 111.973 114.92 112.664 114.92 113.517C114.92 114.369 115.612 115.061 116.464 115.061ZM150.877 115.061H155.074C155.926 115.061 156.618 114.369 156.618 113.517C156.618 112.664 155.926 111.973 155.074 111.973H150.877C150.024 111.973 149.333 112.664 149.333 113.517C149.333 114.369 150.024 115.061 150.877 115.061ZM122.894 128.438H116.464C115.612 128.438 114.92 129.129 114.92 129.982C114.92 130.835 115.612 131.526 116.464 131.526H122.894C123.746 131.526 124.437 130.835 124.437 129.982C124.437 129.129 123.746 128.438 122.894 128.438ZM138.845 128.438H127.868C127.016 128.438 126.325 129.129 126.325 129.982C126.325 130.835 127.016 131.526 127.868 131.526H138.845C139.697 131.526 140.389 130.835 140.389 129.982C140.389 129.129 139.697 128.438 138.845 128.438ZM155.074 120.206H137.301C136.449 120.206 135.758 120.897 135.758 121.749C135.758 122.602 136.449 123.292 137.301 123.292H155.074C155.926 123.292 156.618 122.602 156.618 121.749C156.618 120.897 155.926 120.206 155.074 120.206ZM116.464 123.292H132.327C133.18 123.292 133.871 122.602 133.871 121.749C133.871 120.897 133.18 120.206 132.327 120.206H116.464C115.612 120.206 114.92 120.897 114.92 121.749C114.92 122.602 115.612 123.292 116.464 123.292Z" fill="white"/>
<path d="M103.777 151.266H74.8254C71.7106 151.266 69.1855 153.791 69.1855 156.905V180.916C69.1855 184.031 71.7106 186.556 74.8254 186.556H103.777C106.891 186.556 109.417 184.031 109.417 180.916V156.905C109.416 153.791 106.891 151.266 103.777 151.266Z" fill="white"/>
<path d="M82.3526 184.177L100.004 181.03L96.6368 155.581L81.2031 156.924L82.3526 184.177Z" fill="#F69991"/>
<path d="M81.2015 156.925L80.5007 157.525L79.9873 157.031L78.5977 182.534L79.9634 182.846L82.3509 184.177L81.2015 156.925Z" fill="#548CEC"/>
<path d="M92.6835 159.606C92.6835 159.975 92.8968 160.274 93.1601 160.274C93.4235 160.274 93.6368 159.975 93.6368 159.606C93.6368 159.238 93.4235 158.939 93.1601 158.939C92.897 158.939 92.6835 159.238 92.6835 159.606ZM86.7031 159.895C86.7031 160.253 86.9101 160.542 87.1653 160.542C87.4207 160.542 87.6276 160.253 87.6276 159.895C87.6276 159.538 87.4207 159.248 87.1653 159.248C86.9101 159.248 86.7031 159.538 86.7031 159.895Z" fill="#548CEC"/>
<path d="M93.4236 159.59C93.6006 160.631 93.7778 161.671 93.9548 162.711C94.1068 163.604 94.3037 164.506 94.3364 165.415C94.3954 167.048 93.604 168.427 92.0927 169.096C91.326 169.435 90.4781 169.555 89.6444 169.546C89.02 169.539 88.2854 169.485 87.8897 168.93C87.4411 168.301 87.8888 167.669 88.3303 167.183C88.8468 166.613 90.0575 166.138 90.0106 165.257C89.9784 164.653 89.5103 164.198 89.1232 163.786C88.8047 163.447 88.503 163.095 88.2262 162.721C87.7273 162.048 86.9226 161.034 87.0221 160.141C87.0479 159.91 87.4129 159.907 87.387 160.141C87.3025 160.899 88.0159 161.808 88.4411 162.4C88.8881 163.022 89.4619 163.529 89.9202 164.137C90.2652 164.594 90.5045 165.195 90.3014 165.765C90.0982 166.335 89.5183 166.619 89.0778 166.977C88.7679 167.229 88.4679 167.528 88.2509 167.865C87.8884 168.428 88.1836 168.918 88.7809 169.094C89.5281 169.315 90.508 169.195 91.2461 169.004C92.9332 168.567 94.0136 167.261 93.9748 165.5C93.9542 164.564 93.7434 163.633 93.587 162.713C93.4152 161.705 93.2436 160.696 93.0718 159.687C93.0329 159.458 93.3842 159.359 93.4236 159.59Z" fill="#FFD1CD"/>
<path d="M116.464 162.222H145.903C146.755 162.222 147.446 161.531 147.446 160.678C147.446 159.825 146.755 159.134 145.903 159.134H116.464C115.612 159.134 114.92 159.825 114.92 160.678C114.92 161.53 115.612 162.222 116.464 162.222ZM150.877 162.222H155.074C155.926 162.222 156.618 161.531 156.618 160.678C156.618 159.825 155.926 159.134 155.074 159.134H150.877C150.024 159.134 149.333 159.825 149.333 160.678C149.333 161.53 150.024 162.222 150.877 162.222ZM122.894 175.599H116.464C115.612 175.599 114.92 176.29 114.92 177.143C114.92 177.996 115.612 178.687 116.464 178.687H122.894C123.746 178.687 124.437 177.996 124.437 177.143C124.437 176.29 123.746 175.599 122.894 175.599ZM138.845 175.599H127.868C127.016 175.599 126.325 176.29 126.325 177.143C126.325 177.996 127.016 178.687 127.868 178.687H138.845C139.697 178.687 140.389 177.996 140.389 177.143C140.389 176.29 139.697 175.599 138.845 175.599ZM155.074 167.367H137.301C136.449 167.367 135.758 168.058 135.758 168.91C135.758 169.763 136.449 170.454 137.301 170.454H155.074C155.926 170.454 156.618 169.763 156.618 168.91C156.618 168.058 155.926 167.367 155.074 167.367ZM116.464 170.454H132.327C133.18 170.454 133.871 169.763 133.871 168.91C133.871 168.058 133.18 167.367 132.327 167.367H116.464C115.612 167.367 114.92 168.058 114.92 168.91C114.92 169.763 115.612 170.454 116.464 170.454Z" fill="white"/>
<path d="M209.911 115.211V133.752C209.911 136.873 207.387 139.397 204.275 139.397H175.325C172.204 139.397 169.68 136.873 169.68 133.752V109.746C169.68 106.633 172.204 104.109 175.325 104.109H199.882C199.749 104.565 199.407 104.954 198.895 105.106C197.51 105.514 197.51 107.478 198.895 107.886C199.872 108.18 200.252 109.357 199.635 110.163C199.417 110.438 199.331 110.742 199.331 111.046C199.331 111.956 200.242 112.782 201.267 112.412C202.225 112.07 203.231 112.801 203.203 113.816C203.165 115.259 205.034 115.866 205.85 114.68C206.135 114.253 206.59 114.044 207.045 114.044C207.501 114.044 207.956 114.253 208.241 114.68C208.659 115.287 209.342 115.42 209.911 115.211ZM216.96 115.062H246.399C247.251 115.062 247.942 114.37 247.942 113.518C247.942 112.665 247.251 111.974 246.399 111.974H216.96C216.108 111.974 215.416 112.665 215.416 113.518C215.416 114.37 216.108 115.062 216.96 115.062ZM251.372 115.062H255.57C256.422 115.062 257.114 114.37 257.114 113.518C257.114 112.665 256.422 111.974 255.57 111.974H251.372C250.52 111.974 249.829 112.665 249.829 113.518C249.829 114.37 250.52 115.062 251.372 115.062ZM223.39 128.439H216.96C216.108 128.439 215.416 129.13 215.416 129.983C215.416 130.836 216.108 131.527 216.96 131.527H223.39C224.242 131.527 224.933 130.836 224.933 129.983C224.933 129.13 224.242 128.439 223.39 128.439ZM239.341 128.439H228.364C227.512 128.439 226.82 129.13 226.82 129.983C226.82 130.836 227.512 131.527 228.364 131.527H239.341C240.193 131.527 240.885 130.836 240.885 129.983C240.885 129.13 240.193 128.439 239.341 128.439ZM255.57 120.207H237.797C236.945 120.207 236.254 120.898 236.254 121.75C236.254 122.603 236.945 123.294 237.797 123.294H255.57C256.422 123.294 257.114 122.603 257.114 121.75C257.114 120.898 256.422 120.207 255.57 120.207ZM216.96 123.294H232.823C233.675 123.294 234.367 122.603 234.367 121.75C234.367 120.898 233.675 120.207 232.823 120.207H216.96C216.108 120.207 215.416 120.898 215.416 121.75C215.416 122.603 216.108 123.294 216.96 123.294Z" fill="white"/>
<path d="M176.852 115.46L189.682 112.734L202.513 114.617L189.908 118.964L176.852 115.46Z" fill="#FF4939"/>
<path d="M190.256 132.028L202.744 128.979L202.512 114.617L189.863 117.308L190.256 132.028Z" fill="#FC5546"/>
<path opacity="0.5" d="M182.594 114.241L186.608 113.412L197.979 115.508L198.117 118.393L196.537 118.882L196.244 118.411L196.09 119.078L194.884 119.495L194.844 116.405L182.594 114.241Z" fill="#FFD1CD"/>
<path opacity="0.5" d="M196.255 130.569L196.248 128.328L197.023 128.178L197.193 128.452L197.282 128.069L199.309 127.494L199.546 129.763L196.255 130.569Z" fill="#FFD1CD"/>
<path d="M176.852 115.46L177.264 130.213L190.257 132.028L189.864 117.308L176.852 115.46Z" fill="#FF4939"/>
<path d="M176.852 115.46L189.864 117.308C189.864 117.308 185.804 117.786 183.108 117.308C180.412 116.831 176.852 115.46 176.852 115.46Z" fill="#FC5546"/>
<path d="M212.593 105.55C211.928 105.353 211.667 104.55 212.09 104C212.69 103.22 211.904 102.138 210.977 102.468C210.323 102.701 209.64 102.204 209.659 101.511C209.686 100.527 208.414 100.113 207.858 100.925C207.466 101.498 206.621 101.498 206.229 100.925C205.673 100.113 204.401 100.527 204.428 101.511C204.447 102.204 203.764 102.701 203.11 102.468C202.183 102.138 201.396 103.22 201.997 104C202.42 104.55 202.159 105.354 201.493 105.55C200.549 105.828 200.549 107.165 201.493 107.443C202.159 107.64 202.42 108.443 201.997 108.993C201.396 109.773 202.183 110.855 203.11 110.525C203.764 110.292 204.447 110.789 204.428 111.482C204.401 112.466 205.673 112.88 206.229 112.068C206.621 111.495 207.466 111.495 207.858 112.068C208.414 112.88 209.686 112.466 209.659 111.482C209.64 110.789 210.323 110.292 210.977 110.525C211.904 110.855 212.69 109.773 212.09 108.993C211.667 108.443 211.928 107.639 212.593 107.443C213.538 107.165 213.538 105.828 212.593 105.55Z" fill="white"/>
<path d="M204.273 151.266H175.321C172.207 151.266 169.682 153.791 169.682 156.905V180.916C169.682 184.031 172.207 186.556 175.321 186.556H204.273C207.388 186.556 209.913 184.031 209.913 180.916V156.905C209.912 153.791 207.387 151.266 204.273 151.266ZM216.96 162.222H246.399C247.251 162.222 247.942 161.53 247.942 160.678C247.942 159.825 247.251 159.134 246.399 159.134H216.96C216.108 159.134 215.416 159.825 215.416 160.678C215.416 161.53 216.108 162.222 216.96 162.222ZM251.373 162.222H255.57C256.422 162.222 257.114 161.53 257.114 160.678C257.114 159.825 256.422 159.134 255.57 159.134H251.373C250.52 159.134 249.829 159.825 249.829 160.678C249.829 161.53 250.52 162.222 251.373 162.222ZM223.39 175.599H216.96C216.108 175.599 215.416 176.29 215.416 177.143C215.416 177.996 216.108 178.687 216.96 178.687H223.39C224.242 178.687 224.933 177.996 224.933 177.143C224.933 176.29 224.242 175.599 223.39 175.599ZM239.341 175.599H228.364C227.512 175.599 226.821 176.29 226.821 177.143C226.821 177.996 227.512 178.687 228.364 178.687H239.341C240.193 178.687 240.885 177.996 240.885 177.143C240.885 176.29 240.193 175.599 239.341 175.599ZM255.57 167.367H237.797C236.945 167.367 236.254 168.058 236.254 168.91C236.254 169.763 236.945 170.454 237.797 170.454H255.57C256.422 170.454 257.114 169.763 257.114 168.91C257.114 168.058 256.422 167.367 255.57 167.367ZM216.96 170.454H232.823C233.676 170.454 234.367 169.763 234.367 168.91C234.367 168.058 233.676 167.367 232.823 167.367H216.96C216.108 167.367 215.416 168.058 215.416 168.91C215.416 169.763 216.108 170.454 216.96 170.454Z" fill="white"/>
<path d="M198.77 159.602H178.025V180.346H198.77V159.602Z" fill="#FF4939"/>
<path opacity="0.5" d="M191.796 180.322V174.802L191.185 175.27L190.826 174.802L190.215 174.587L189.578 175.341L189.21 174.335L188.296 176.073L187.701 174.623L187.306 175.234L186.803 174.335C186.803 174.335 186.632 178.598 186.512 180.322C188.274 180.408 190.035 180.224 191.796 180.322Z" fill="#FFD1CD"/>
<path d="M178.025 159.602L183.162 158.745H201.697L198.77 159.602H178.025Z" fill="#FC5546"/>
<path d="M201.7 158.744V178.896L201.129 179.178L200.028 179.725L198.77 180.347V159.603L201.7 158.744Z" fill="#FC5546"/>
<path opacity="0.5" d="M186.18 159.602V165.816L186.79 165.349L187.15 165.816L187.76 166.032L188.398 165.277L188.766 166.283L189.844 162.943L190.275 165.996L190.67 165.385L191.173 166.283C191.173 166.283 191.424 159.997 191.532 159.602L192.933 158.848L191.496 159.027L191.46 158.848H188.398L186.18 159.602Z" fill="#FFD1CD"/>
<path opacity="0.5" d="M198.27 159.329L199.737 159.309L199.812 162.394L200.056 161.999L200.149 162.125L200.371 161.86L200.578 162.017L200.874 161.738V158.986L199.401 158.844L199.524 158.934L199.293 158.987L199.119 159.189L198.27 159.329Z" fill="#FFD1CD"/>
<path opacity="0.5" d="M201.128 179.178L200.027 179.725L200.083 177.813L200.327 178.208L200.461 177.489L200.701 177.692L200.75 177.166L201.052 176.575L201.128 179.178Z" fill="#FFD1CD"/>
<path opacity="0.5" d="M182.185 158.908L183.866 158.926L183.462 159.073L183.597 159.148C183.597 159.148 183.125 159.283 183.166 159.283C183.206 159.283 183.489 159.371 183.449 159.36C183.408 159.35 182.782 159.378 182.782 159.378V159.458L180.191 159.241L182.185 158.908Z" fill="#FFD1CD"/>
<path d="M128.573 128.712L125.695 129.96L113.98 144.231C113.98 144.231 118.923 168.015 120.623 169.251C122.323 170.488 127.647 167.506 127.647 167.506L125.877 147.462L131.227 134.173L128.573 128.712Z" fill="#FF4939"/>
<path opacity="0.35" d="M125.88 147.462L127.644 167.503C127.644 167.503 122.322 170.488 120.623 169.25C118.925 168.018 113.984 144.232 113.984 144.232L115.174 142.777L129.648 138.096L125.88 147.462Z" fill="#FC5546"/>
<path d="M150.537 263.586C150.537 263.586 149.7 266.587 150.04 266.888C150.383 267.195 151.256 267.686 151.256 267.686C151.256 267.686 146.117 269.698 145.244 268.524C145.36 266.909 145.473 262.659 145.473 262.659L150.537 263.586Z" fill="#D7948E"/>
<path d="M156.677 269.468C156.677 269.468 158.079 269.635 158.327 270.948C158.458 271.639 158.327 272.163 158.327 272.163H145.072C145.072 272.163 144.582 271.734 144.621 270.656L144.808 267.195C144.808 267.195 145.263 266.927 146.06 267.648C146.855 268.367 148.712 268.786 150.688 266.699C150.688 266.699 150.982 266.472 152.234 267.458C153.491 268.443 153.188 269.468 156.677 269.468Z" fill="#223556"/>
<path d="M120.068 259.981C120.068 259.981 118.669 262.462 118.879 262.767C119.09 263.079 119.684 263.637 119.684 263.637C119.684 263.637 115.3 264.146 114.84 263.046C115.349 261.571 116.097 258.524 116.097 258.524L120.068 259.981Z" fill="#D7948E"/>
<path d="M123.624 266.114C123.624 266.114 125.853 266.808 125.792 267.895C125.76 268.468 125.002 269.569 125.002 269.569L113.361 266.677C113.361 266.677 113.609 265.53 113.852 264.684L114.68 261.982C114.68 261.982 115.093 261.859 115.582 262.587C116.069 263.313 117.456 264.008 119.43 262.746C119.43 262.746 119.708 262.624 120.505 263.65C121.306 264.677 120.864 265.428 123.624 266.114Z" fill="#223556"/>
<path d="M142.64 173.395C142.64 173.395 143.846 204.379 142.783 213.547C141.721 222.715 120.245 260.905 120.245 260.905C120.245 260.905 116.594 260.953 115.623 259.47C114.653 257.987 127.34 218.001 127.34 218.001C127.34 218.001 115.862 181.029 118.903 170.566C121.943 160.105 142.64 173.395 142.64 173.395Z" fill="#2F4C7C"/>
<path d="M142.782 213.547C141.724 222.712 120.246 260.908 120.246 260.908C120.246 260.908 119.995 260.908 119.596 260.89C122.717 252.662 135.03 220.233 135.238 219.426C135.481 218.499 133.547 218.082 131.223 216.218C128.899 214.345 134.995 215.299 136.625 214.683C138.247 214.068 135.299 213.859 133.651 212.932C132.004 212.004 136.435 210.668 136.435 210.668C134.067 206.446 133.448 182.644 133.448 182.644C133.448 182.644 138.403 193.422 143.224 199.977C143.233 205.57 143.12 210.651 142.782 213.547Z" fill="#0E2B5C"/>
<path d="M151.257 170.796C151.257 170.796 161.596 200.934 162.432 210.126C163.267 219.317 150.733 264.857 150.733 264.857C150.733 264.857 145.72 265.275 144.467 264.021C143.213 262.768 148.227 217.646 148.227 217.646C148.227 217.646 129.426 183.805 130.261 172.942C131.097 162.079 151.257 170.796 151.257 170.796Z" fill="#2F4C7C"/>
<path d="M155.195 211.388C152.828 212.316 148.198 213.495 150.253 213.729C152.317 213.963 156.331 212.931 154.683 214.266C153.036 215.61 149.117 216.946 150.565 217.57C152.004 218.186 154.475 217.978 153.036 219.218C151.787 220.284 145.839 248.074 144.747 264.237C144.642 264.168 144.547 264.098 144.469 264.02C143.212 262.772 148.224 217.648 148.224 217.648C148.224 217.648 141.226 205.049 135.963 192.754C139.717 198.607 145.223 206.619 148.25 208.396C153.14 211.284 157.571 210.46 155.195 211.388Z" fill="#0E2B5C"/>
<path d="M141.146 128.524L128.572 128.711C120.713 145.683 116.464 171.61 117.14 174.995C117.687 177.728 138.984 177.665 148.582 175.756C148.842 174.637 149.446 172.186 149.446 172.186C149.446 172.186 151.114 175.123 151.417 175.013C152.195 174.731 154.015 174.704 153.886 174.3C153.166 172.025 148.585 166.399 146.795 159.332C146.28 157.3 148.677 151.977 148.264 149.838C146.078 138.504 142.323 129.898 141.146 128.524Z" fill="#FF4939"/>
<path d="M153.882 174.305C153.958 174.542 153.369 174.646 152.705 174.751C150.703 170.044 144.773 163.013 142.382 159.787C139.545 155.954 140.247 146.038 140.247 146.038L144.953 137.252C146.13 140.725 147.335 145.033 148.265 149.834C148.673 151.978 146.282 157.301 146.794 159.332C148.587 166.401 153.161 172.028 153.882 174.305Z" fill="#FC5546"/>
<path d="M133.917 120.923L131.564 127.408L137.716 128.366L140.177 123.876L133.917 120.923Z" fill="#D7948E"/>
<path d="M131.754 125.216C133.933 124.654 139.202 126.24 139.267 126.744C139.332 127.247 138.993 128.133 138.434 128.711C138.434 128.711 133.029 130.901 131.016 128.827C131.122 127.131 131.754 125.216 131.754 125.216Z" fill="#FC5546"/>
<path d="M145.734 111.152C145.734 111.152 146.308 116.347 146.698 117C147.088 117.653 147.64 118.093 147.379 118.472C147.119 118.852 146.842 118.95 146.842 118.95C146.842 118.95 146.922 121.972 145.609 123.74C144.623 125.067 136.638 125.14 134.847 123.997C133.054 122.854 132.684 114.306 133.311 112.758C133.938 111.21 143.346 109.46 145.734 111.152Z" fill="#D7948E"/>
<path d="M140.41 124.797C140.414 124.767 140.492 124.743 140.627 124.726C140.695 124.718 140.777 124.711 140.872 124.706C140.971 124.697 141.078 124.686 141.194 124.675C141.668 124.633 142.318 124.546 143.027 124.388C144.447 124.073 145.557 123.63 145.611 123.74C145.669 123.847 144.605 124.49 143.123 124.821C142.385 124.985 141.692 125.026 141.196 124.988C141.072 124.977 140.96 124.968 140.862 124.954C140.765 124.935 140.681 124.916 140.614 124.898C140.478 124.862 140.407 124.827 140.41 124.797Z" fill="#C1827C"/>
<path d="M146.196 115.128C145.883 115.204 145.636 115.242 145.475 115.242C144.421 115.242 143.767 115.232 143.359 115.574C143.102 116.959 142.713 118.316 142.192 119.635C142.22 119.578 142.248 119.521 142.267 119.455C140.768 123.734 138.131 127.643 134.601 130.566C131.081 133.507 126.678 135.282 122.171 136.003C117.673 136.714 112.976 136.496 108.612 135.12C104.276 133.735 100.205 131.363 97.1021 128.042C98.7151 129.636 100.575 130.955 102.539 132.065C104.494 133.185 106.581 134.067 108.745 134.693C110.899 135.32 113.128 135.728 115.368 135.832C117.617 135.965 119.865 135.794 122.086 135.462C124.306 135.13 126.488 134.522 128.557 133.659C130.625 132.796 132.57 131.629 134.335 130.243C136.613 128.431 138.539 126.211 140.085 123.734C136.423 129.361 130.103 133.725 121.526 135.139C108.318 137.312 94.9294 128.697 92.9747 119.91C90.8967 110.583 97.8045 102.945 105.006 103.201C111.961 103.438 116.876 107.993 122.247 106.664C124.572 106.085 127.447 103.485 130.758 102.176C129.62 102.537 128.529 103.049 127.475 103.628C126.251 104.311 125.046 105.051 123.718 105.592C123.053 105.858 122.351 106.076 121.621 106.161C120.89 106.247 120.178 106.209 119.467 106.161C118.034 106.048 116.639 105.687 115.301 105.25C113.954 104.804 112.635 104.321 111.326 103.799C110.035 103.277 108.688 102.926 107.302 102.717C105.926 102.527 104.513 102.489 103.127 102.736C104.484 102.366 105.926 102.347 107.331 102.451C108.745 102.603 110.139 102.916 111.477 103.4C114.125 104.311 116.753 105.393 119.514 105.611C120.197 105.668 120.899 105.706 121.564 105.64C122.237 105.573 122.892 105.374 123.537 105.127C124.818 104.624 126.014 103.894 127.285 103.268C128.538 102.632 129.857 102.053 131.252 101.759C132.476 101.503 133.728 101.465 134.952 101.626C135.113 101.645 135.275 101.664 135.436 101.692H135.446C137.429 102.053 139.507 103.021 141.072 104.596C141.319 104.605 141.57 105.079 142.192 105.071C149.788 104.969 147.913 114.71 146.196 115.128ZM146.792 120.625C146.848 120.713 146.441 121.131 145.762 121.117C145.093 121.117 144.519 120.79 144.524 120.692C144.524 120.591 145.06 120.736 145.68 120.735C146.304 120.749 146.738 120.525 146.792 120.625ZM145.79 117.636C145.86 117.916 146.064 118.105 146.246 118.059C146.427 118.013 146.517 117.749 146.447 117.47C146.376 117.19 146.172 117.001 145.99 117.047C145.809 117.093 145.719 117.357 145.79 117.636Z" fill="#0E2B5C"/>
<path d="M145.646 117.379C145.678 117.472 145.778 117.521 145.871 117.489C145.963 117.457 146.012 117.357 145.98 117.265C145.949 117.172 145.848 117.124 145.756 117.155C145.664 117.187 145.615 117.287 145.646 117.379Z" fill="white"/>
<path d="M145.412 116.475C145.449 116.279 146.054 116.092 146.207 116.317C146.36 116.543 146.319 116.688 146.041 116.704C145.762 116.72 145.382 116.633 145.412 116.475Z" fill="#0E2B5C"/>
<path d="M142.83 119.767C141.182 120.806 139.916 116.988 141.419 116.343C141.853 116.157 142.712 116.082 142.93 116.948C143.165 117.882 143.191 119.54 142.83 119.767Z" fill="#D7948E"/>
<path d="M141.677 117.056C142.031 117.333 142.675 118.266 142.239 118.964C142.239 118.964 142.247 118.491 141.999 118.201L141.371 117.905L142.002 117.867L141.677 117.056Z" fill="#0E2B5C"/>
<path d="M188.817 132.534L186.824 131.831L184.937 137.177L186.93 137.88L188.817 132.534Z" fill="#F69991"/>
<path d="M186.743 135.294C185.634 134.903 184.418 135.484 184.027 136.593L181.643 143.346C181.252 144.455 181.834 145.671 182.942 146.062C184.051 146.453 185.267 145.872 185.658 144.763L188.042 138.01C188.433 136.902 187.852 135.686 186.743 135.294Z" fill="#0E2B5C"/>
<path d="M192.844 118.085C188.71 116.626 184.183 118.791 182.727 122.916C181.267 127.05 183.433 131.577 187.566 133.036C191.691 134.492 196.219 132.327 197.678 128.193C199.134 124.069 196.969 119.541 192.844 118.085ZM188.318 130.907C185.365 129.865 183.811 126.629 184.856 123.668C185.898 120.715 189.14 119.172 192.092 120.215C195.045 121.257 196.6 124.492 195.557 127.445C194.512 130.406 191.271 131.949 188.318 130.907Z" fill="#F69991"/>
<path d="M187.914 142.171C187.893 142.172 187.881 142.177 187.864 142.191C187.856 142.187 187.852 142.195 187.852 142.195C186.689 142.48 185.411 142.766 184.782 142.757C183.264 142.74 178.811 143.874 178.811 143.874C178.811 143.874 178.04 138.906 177.939 138.499C178.542 138.402 180.675 138.037 180.675 138.037C182.119 136.881 182.724 135.489 184.629 133.737C185.414 133.98 185.167 134.774 185.167 134.774L184.408 137.219L188.967 136.785C189.049 137.07 189.184 137.68 188.956 137.984C188.304 138.121 187.69 138.244 187.542 138.272L188.904 138.148C188.971 138.395 189.133 139.11 188.87 139.471C188.282 139.626 187.812 139.75 187.67 139.791L188.769 139.675C188.797 139.916 188.857 140.72 188.498 141.039C188.074 141.152 187.747 141.236 187.642 141.262L188.443 141.139C188.465 141.325 188.485 142.029 187.914 142.171Z" fill="#D7948E"/>
<path d="M186.906 138.309C186.915 138.381 187.344 138.39 187.866 138.33C188.388 138.27 188.804 138.163 188.795 138.091C188.787 138.019 188.358 138.01 187.836 138.07C187.314 138.13 186.898 138.237 186.906 138.309ZM186.942 139.868C186.954 139.939 187.358 139.934 187.844 139.855C188.331 139.776 188.716 139.654 188.704 139.583C188.693 139.512 188.289 139.518 187.802 139.597C187.316 139.675 186.931 139.797 186.942 139.868ZM186.854 141.328C186.863 141.4 187.2 141.414 187.607 141.361C188.013 141.307 188.335 141.205 188.325 141.134C188.316 141.062 187.979 141.047 187.572 141.101C187.166 141.155 186.844 141.256 186.854 141.328Z" fill="#C1827C"/>
<path d="M186.843 140.725C186.776 140.763 186.84 140.97 186.837 141.205C186.841 141.441 186.775 141.636 186.832 141.679C186.886 141.73 187.1 141.533 187.099 141.204C187.096 140.876 186.897 140.687 186.843 140.725ZM186.915 139.351C186.847 139.389 186.911 139.597 186.908 139.831C186.912 140.067 186.846 140.262 186.903 140.305C186.957 140.356 187.171 140.16 187.17 139.831C187.167 139.503 186.968 139.313 186.915 139.351ZM186.893 137.879C186.825 137.916 186.89 138.124 186.887 138.359C186.891 138.595 186.824 138.79 186.881 138.833C186.936 138.884 187.15 138.687 187.148 138.359C187.146 138.031 186.946 137.841 186.893 137.879Z" fill="#C1827C"/>
<path d="M141.147 128.524L144.706 129.719L155.856 144.671L180.738 137.582L181.672 143.827C181.672 143.827 157.115 157.859 155.856 157.303C154.598 156.746 140.624 146.827 138.965 145.155C136.177 142.346 138.544 133.195 141.147 128.524Z" fill="#FF4939"/>
<path d="M137.964 138.775C137.964 138.775 136.544 142.996 140.249 146.037L154.195 156.268L139.958 147.608C139.958 147.608 135.445 143.649 137.964 138.775ZM155.847 145.104C155.847 145.104 157.074 148.349 156.288 149.649C155.502 150.949 155.847 145.104 155.847 145.104ZM125.162 137.524L119.531 158.354C119.531 158.354 120.351 145.127 125.162 137.524Z" fill="#FC5546"/>
<path d="M195.5 216.723L214.257 212.738L233.014 215.49L214.587 221.845L195.5 216.723Z" fill="#FF4939"/>
<path d="M215.096 240.943L233.351 236.485L233.012 215.49L214.521 219.425L215.096 240.943Z" fill="#FC5546"/>
<path opacity="0.5" d="M203.891 214.94L209.759 213.728L226.382 216.792L226.584 221.011L224.274 221.725L223.845 221.037L223.621 222.012L221.857 222.622L221.799 218.104L203.891 214.94Z" fill="#FFD1CD"/>
<path opacity="0.5" d="M223.862 238.809L223.852 235.534L224.984 235.314L225.233 235.714L225.364 235.154L228.326 234.313L228.673 237.631L223.862 238.809Z" fill="#FFD1CD"/>
<path d="M195.5 216.723L196.103 238.289L215.097 240.943L214.523 219.424L195.5 216.723Z" fill="#FF4939"/>
<path d="M195.5 216.723L214.522 219.424C214.522 219.424 208.588 220.123 204.646 219.424C200.705 218.726 195.5 216.723 195.5 216.723Z" fill="#FC5546"/>
<path d="M221.801 221.779L236.642 218.626L251.482 220.804L236.903 225.832L221.801 221.779Z" fill="#FF4939"/>
<path d="M237.306 240.943L251.75 237.416L251.482 220.804L236.852 223.917L237.306 240.943Z" fill="#FC5546"/>
<path opacity="0.5" d="M228.441 220.368L233.085 219.409L246.237 221.834L246.397 225.171L244.569 225.736L244.23 225.192L244.053 225.964L242.657 226.446L242.611 222.871L228.441 220.368Z" fill="#FFD1CD"/>
<path opacity="0.5" d="M244.243 239.255L244.234 236.664L245.13 236.49L245.328 236.806L245.431 236.363L247.775 235.698L248.05 238.323L244.243 239.255Z" fill="#FFD1CD"/>
<path d="M221.801 221.779L222.278 238.843L237.306 240.943L236.852 223.917L221.801 221.779Z" fill="#FF4939"/>
<path d="M221.801 221.779L236.852 223.917C236.852 223.917 232.156 224.47 229.037 223.917C225.919 223.364 221.801 221.779 221.801 221.779Z" fill="#FC5546"/>
<path d="M260.76 210.247V208.428H252.353L254.777 194.229H251.72L249.7 208.428H236.075L237.018 194.229H233.941L233.402 208.428H219.787L219.248 194.229H216.172L217.115 208.428H203.49L201.47 194.229H198.412L200.836 208.428H192.43V210.247H201.147L203.208 222.318H193.412V224.137H203.518L205.817 237.599H207.639L205.724 224.137H218.158L219.052 237.599H220.893L220.383 224.137H232.807L232.296 237.599H234.138L235.032 224.137H247.465L245.55 237.599H247.373L249.671 224.137H259.778V222.318H249.982L252.042 210.247H260.76ZM205.465 222.318L203.748 210.247H217.235L218.037 222.318H205.465ZM220.314 222.318L219.856 210.247H233.333L232.875 222.318H220.314ZM247.724 222.318H235.152L235.954 210.247H249.441L247.724 222.318Z" fill="#2F4C7C"/>
<path d="M187.041 196.124L194.569 236.975C194.884 238.685 196.375 239.926 198.114 239.926H255.073C256.811 239.926 258.302 238.685 258.617 236.975L266.145 196.124C266.553 193.909 264.852 191.867 262.601 191.867H190.585C188.334 191.867 186.633 193.909 187.041 196.124ZM194.841 195.41H258.345C260.597 195.41 262.297 197.452 261.889 199.667L255.667 233.433C255.352 235.143 253.862 236.384 252.123 236.384H201.063C199.324 236.384 197.834 235.142 197.519 233.433L191.297 199.667C190.889 197.452 192.589 195.41 194.841 195.41Z" fill="#0E2B5C"/>
<path d="M257.794 239.712C257.794 239.712 215.639 239.717 201.413 239.719C198.716 239.719 196.389 237.832 195.831 235.193L185.146 184.676L185.061 184.314C184.618 182.43 182.941 181.096 181.005 181.087L166.451 181.022L166.273 184.592L180.553 184.662C181.096 184.665 181.567 185.04 181.692 185.57L194.149 240.121C190.096 241.338 187.171 245.161 187.33 249.646C187.514 254.843 191.953 258.883 197.154 258.883H236.49C236.491 258.883 236.493 258.883 236.495 258.883H240.26C241.406 258.883 242.327 257.924 242.266 256.765C242.212 255.715 241.198 254.864 240.147 254.864H236.51C236.503 254.864 236.497 254.862 236.49 254.862H197.095C194.03 254.862 191.401 252.465 191.345 249.401C191.288 246.279 193.801 243.73 196.91 243.73H257.681C258.732 243.73 259.746 242.88 259.801 241.829C259.861 240.671 258.939 239.712 257.794 239.712Z" fill="#2F4C7C"/>
<path d="M236.526 260.478C235.368 258.903 233.502 257.887 231.395 257.887C229.287 257.887 227.421 258.903 226.263 260.478C225.48 261.536 225.021 262.844 225.021 264.26C225.021 267.784 227.871 270.633 231.395 270.633C234.919 270.633 237.776 267.784 237.776 264.26C237.776 262.844 237.31 261.536 236.526 260.478ZM231.395 268.05C229.304 268.05 227.612 266.351 227.612 264.26C227.612 262.177 229.304 260.478 231.395 260.478C233.486 260.478 235.185 262.177 235.185 264.26C235.185 266.351 233.486 268.05 231.395 268.05Z" fill="#0E2B5C"/>
<path d="M235.186 264.261C235.186 266.352 233.487 268.051 231.396 268.051C229.304 268.051 227.613 266.352 227.613 264.261C227.613 262.178 229.304 260.479 231.396 260.479C233.487 260.479 235.186 262.178 235.186 264.261Z" fill="white"/>
<path d="M232.823 264.26C232.823 265.05 232.184 265.692 231.394 265.692C230.608 265.692 229.971 265.05 229.971 264.26C229.971 263.476 230.607 262.834 231.394 262.834C232.184 262.834 232.823 263.476 232.823 264.26Z" fill="#0E2B5C"/>
<path d="M213.175 260.479C212.017 258.904 210.151 257.888 208.043 257.888C205.935 257.888 204.069 258.904 202.911 260.479C202.128 261.537 201.67 262.845 201.67 264.261C201.67 267.785 204.519 270.634 208.043 270.634C211.567 270.634 214.424 267.785 214.424 264.261C214.424 262.845 213.958 261.537 213.175 260.479ZM208.043 268.051C205.952 268.051 204.261 266.352 204.261 264.261C204.261 262.178 205.952 260.479 208.043 260.479C210.134 260.479 211.825 262.178 211.825 264.261C211.825 266.352 210.134 268.051 208.043 268.051Z" fill="#0E2B5C"/>
<path d="M211.826 264.261C211.826 266.352 210.135 268.051 208.044 268.051C205.953 268.051 204.262 266.352 204.262 264.261C204.262 262.178 205.953 260.479 208.044 260.479C210.135 260.479 211.826 262.178 211.826 264.261Z" fill="white"/>
<path d="M209.47 264.26C209.47 265.05 208.831 265.692 208.041 265.692C207.254 265.692 206.617 265.05 206.617 264.26C206.617 263.476 207.254 262.834 208.041 262.834C208.83 262.834 209.47 263.476 209.47 264.26Z" fill="#0E2B5C"/>
<path d="M160.054 184.318C160.025 185.002 160.566 185.554 161.235 185.535L175.906 185.124L177.964 185.058C178.419 185.043 178.758 184.499 178.671 183.928L178.304 181.498C178.237 181.059 177.94 180.734 177.59 180.722L161.375 180.053C160.742 180.027 160.211 180.519 160.184 181.166L160.054 184.318Z" fill="#0E2B5C"/>
<path d="M35.5096 33.8424C41.5091 33.8424 46.3726 28.9788 46.3726 22.9793C46.3726 16.9798 41.5091 12.1162 35.5096 12.1162C29.51 12.1162 24.6465 16.9798 24.6465 22.9793C24.6465 28.9788 29.51 33.8424 35.5096 33.8424Z" fill="#F24333"/>
<path d="M35.1147 27.0976C34.3365 27.0207 33.4824 26.6635 32.9082 26.1282L33.5716 25.1336C34.1708 25.6054 34.7698 25.9242 35.4587 25.9242C36.2873 25.9242 36.6955 25.5161 36.6955 24.8278C36.6955 23.1442 33.2269 23.3866 33.2269 20.9891C33.2269 19.8033 33.9667 18.9617 35.1146 18.7577V17.4565H36.1347V18.7322C36.9509 18.8338 37.5115 19.2295 37.9834 19.7263L37.2311 20.5809C36.7592 20.1474 36.3641 19.9049 35.752 19.9049C35.063 19.9049 34.6425 20.2621 34.6425 20.9252C34.6425 22.4557 38.111 22.1494 38.111 24.7254C38.111 25.9366 37.3967 26.8295 36.1345 27.0591V28.3726H35.1144V27.0976H35.1147Z" fill="#FC5546"/>
<path d="M322.795 212.359C323.762 217.949 320.015 223.265 314.426 224.232C308.836 225.2 303.52 221.453 302.553 215.864C301.585 210.274 305.332 204.958 310.921 203.991C316.511 203.023 321.827 206.77 322.795 212.359Z" fill="#F24333"/>
<path d="M312.973 218.012C312.235 218.066 311.382 217.871 310.761 217.465L311.219 216.431C311.853 216.774 312.462 216.975 313.104 216.864C313.876 216.73 314.191 216.284 314.08 215.643C313.808 214.074 310.616 214.859 310.229 212.626C310.038 211.521 310.591 210.617 311.628 210.242L311.418 209.03L312.368 208.865L312.574 210.054C313.351 210.017 313.937 210.295 314.457 210.682L313.894 211.599C313.384 211.272 312.977 211.109 312.407 211.208C311.765 211.319 311.431 211.72 311.537 212.338C311.784 213.764 314.967 212.919 315.382 215.319C315.578 216.447 315.056 217.395 313.917 217.812L314.129 219.036L313.179 219.2L312.973 218.012Z" fill="#FC5546"/>
<path d="M31.5933 166.977L15.9082 173.925L16.73 181.506L29.9828 211.44L32.1101 210.507L47.7889 203.559L49.9099 202.618L36.6491 172.691L31.5933 166.977ZM25.948 175.429C25.0283 175.837 23.9538 175.413 23.5431 174.498C23.1364 173.571 23.5452 172.488 24.4748 172.077C25.3904 171.672 26.4812 172.084 26.8942 173.01C27.295 173.937 26.8776 175.017 25.948 175.429Z" fill="#FF4939"/>
<path d="M28.5285 184.112L27.9827 182.884L30.112 181.945L30.6659 183.167C32.6828 182.737 34.2616 183.735 35.2516 185.988L35.486 186.504L33.0156 187.601L32.7071 186.917C32.1848 185.726 31.5086 185.484 30.6852 185.855C29.8555 186.219 29.5816 186.88 30.1017 188.068C31.6133 191.477 36.7918 189.384 38.8889 194.139C39.8786 196.383 39.548 198.266 37.868 199.46L38.4073 200.671L36.2718 201.619L35.7305 200.405C33.6892 200.854 32.1078 199.827 31.1116 197.575L30.6153 196.434L33.0714 195.352L33.6457 196.65C34.176 197.834 34.8864 198.037 35.71 197.665C36.5437 197.299 36.8796 196.641 36.3534 195.454C34.8417 192.036 29.6655 194.132 27.5727 189.391C26.5809 187.161 26.8779 185.326 28.5285 184.112Z" fill="#FC5546"/>
<path d="M275.341 130.439L267.645 154.607C267.645 154.607 282.279 164.297 282.913 163.794C283.546 163.29 296.102 141.055 296.102 141.055L275.341 130.439Z" fill="#F24333"/>
<path d="M282.026 142.282C283.053 142.878 283.358 143.894 282.451 144.957C281.555 146.027 280.316 146.145 279.289 145.548C278.252 144.945 277.946 143.929 278.842 142.86C279.749 141.797 280.999 141.685 282.026 142.282ZM285.41 144.393L287.193 145.429L277.262 149.834L275.479 148.798L285.41 144.393ZM280.128 143.607C279.753 144.054 279.772 144.369 280.097 144.557C280.421 144.746 280.801 144.663 281.176 144.216C281.552 143.77 281.522 143.449 281.197 143.26C280.873 143.072 280.504 143.161 280.128 143.607ZM283.404 148.691C284.431 149.288 284.726 150.298 283.819 151.361C282.923 152.43 281.683 152.548 280.657 151.951C279.63 151.355 279.324 150.339 280.231 149.276C281.127 148.207 282.378 148.095 283.404 148.691ZM281.495 150.011C281.12 150.457 281.14 150.772 281.475 150.967C281.788 151.149 282.168 151.067 282.544 150.62C282.919 150.173 282.889 149.852 282.575 149.67C282.251 149.481 281.871 149.564 281.495 150.011Z" fill="#FC5546"/>
</svg>
