<svg width="465" height="199" viewBox="0 0 465 199" fill="none" xmlns="http://www.w3.org/2000/svg">
<path opacity="0.07" d="M408.683 191.058C408.683 191.058 454.501 128.555 397.47 106.47C340.439 84.3856 331.674 60.426 352.619 37.9663C373.565 15.5067 238.215 -29.8292 230.076 30.1325C221.937 90.0943 163.995 61.176 117.665 36.9246C71.3339 12.6732 49.3638 52.9672 95.9221 84.0106C142.48 115.054 7.24502 159.89 59.2674 195.642L408.683 191.058Z" fill="#2A75F4"/>
<path d="M457.232 198.684H28.5314C26.3116 198.684 24.4902 197.35 24.4902 195.725V191.683C24.4902 190.058 26.3116 188.725 28.5314 188.725H457.232C459.452 188.725 461.274 190.058 461.274 191.683V195.725C461.33 197.35 459.509 198.684 457.232 198.684Z" fill="#D3D3D3"/>
<path d="M306.175 154.515L99.8496 176.099V57.2173L304.866 82.7604L306.175 154.515Z" fill="#F2F2F2"/>
<path d="M305.036 91.5109L99.8496 71.7181V57.2173L304.866 82.7604L305.036 91.5109Z" fill="#FF6355"/>
<g opacity="0.42">
<path d="M158.361 103.053L99.8496 100.678V82.552L158.304 86.9689L158.361 103.053Z" fill="#FF6355"/>
</g>
<path d="M113.965 96.7613L105.826 96.3446V87.8857L113.965 88.4274V96.7613Z" fill="#FF6355"/>
<g opacity="0.42">
<path d="M158.417 121.429L99.8496 121.388V103.262L158.361 105.345L158.417 121.429Z" fill="#FF6355"/>
</g>
<path d="M113.965 116.887L105.826 116.846V108.387L113.965 108.595V116.887Z" fill="#FF6355"/>
<g opacity="0.42">
<path d="M158.474 139.805L99.8496 142.097V123.971L158.417 123.721L158.474 139.805Z" fill="#FF6355"/>
</g>
<path d="M113.965 137.055L105.826 137.305V128.846L113.965 128.721V137.055Z" fill="#FF6355"/>
<g opacity="0.42">
<path d="M158.588 169.974L99.8496 176.099V157.973L158.531 153.889L158.588 169.974Z" fill="#FF6355"/>
</g>
<path d="M114.022 170.14L105.826 170.932V162.473L114.022 161.807V170.14Z" fill="#FF6355"/>
<g opacity="0.42">
<path d="M123.412 151.764L103.264 153.014V146.139L123.412 145.181V151.764Z" fill="#FF6355"/>
</g>
<path d="M288.075 126.846L180.899 128.555L180.729 95.5527L287.676 101.928L288.075 126.846ZM182.55 127.013L286.367 125.721L286.026 102.928L182.436 97.0945L182.55 127.013Z" fill="#FF6355"/>
<path d="M286.992 126.846L181.297 97.053L181.809 95.6362L287.505 125.763L286.992 126.846Z" fill="#FF6355"/>
<path d="M181.981 128.471L181.469 127.096L286.595 101.886L287.107 103.012L181.981 128.471ZM233.15 137.347L181.81 139.43L181.753 134.43L233.093 132.93L233.15 137.347ZM287.449 140.222L181.81 146.139V143.639L287.449 138.347V140.222ZM287.506 143.847L181.867 150.889V148.389L287.506 141.93V143.847ZM287.563 147.431L181.867 155.64V153.139L287.563 145.514V147.431Z" fill="#FF6355"/>
<path d="M361.099 98.1781C335.543 98.1781 314.598 82.7605 314.598 63.9678C314.598 45.1334 335.6 29.8408 361.497 29.8408C386.883 29.8408 407.942 45.3834 407.942 64.0928C407.885 82.8855 386.883 98.1781 361.099 98.1781ZM389.33 41.2165C388.704 40.7998 388.192 40.5081 387.679 40.2164C381.703 36.7162 375.044 34.3827 367.417 33.6327C359.676 32.8827 352.106 33.466 344.878 35.7162C337.478 38.0496 331.445 41.6748 326.835 46.5084C326.721 46.6334 326.55 46.8835 326.664 46.9668C326.721 47.0918 327.063 47.1335 327.29 47.1335C330.193 47.0918 333.096 47.0501 335.942 46.9668C337.421 46.9251 338.844 46.8418 340.324 46.8835C341.292 46.8835 341.861 47.3418 341.918 47.9669C341.975 48.5502 341.463 49.0919 340.552 49.2169C339.47 49.3836 338.389 49.4253 337.308 49.5503C335.657 49.6753 335.6 49.6336 336.169 50.8837C340.893 61.2593 345.674 71.5932 350.456 81.9688C350.512 82.1355 350.683 82.3022 350.911 82.5522C351.082 82.2605 351.252 82.0938 351.309 81.9271L352.675 78.927C355.009 73.8433 357.343 68.7597 359.619 63.6344C359.847 63.1761 359.904 62.551 359.733 62.0927C357.855 58.1758 355.863 54.2589 353.927 50.342C353.7 49.842 353.301 49.5919 352.561 49.5503C351.309 49.4669 350.057 49.3836 348.805 49.1753C348.008 49.0502 347.61 48.5919 347.61 48.0085C347.61 47.4252 348.065 46.9668 348.862 46.8835C349.488 46.8001 350.114 46.8418 350.74 46.8418C356.375 47.0918 362.01 47.2585 367.645 46.9251C368.954 46.8418 370.206 46.8001 371.515 46.8001C373.052 46.8001 373.849 47.7168 373.166 48.6336C372.824 49.0919 372.141 49.2169 371.515 49.3003C370.434 49.3836 369.409 49.4669 368.328 49.5503C367.246 49.6336 367.132 49.7586 367.474 50.5087C369.181 54.1755 370.832 57.8424 372.539 61.5093L381.76 81.5104C381.874 81.7188 382.045 81.9271 382.158 82.0938C382.443 81.8438 382.557 81.6771 382.671 81.4688C384.72 76.4685 386.769 71.5099 388.761 66.5096C389.956 63.5511 389.899 60.5926 388.533 57.6341C387.679 55.8423 386.37 54.2172 385.061 52.5921C383.923 51.217 382.841 49.8003 382.329 48.2169C381.305 45.0084 383.695 42.1332 388.135 41.4248C388.419 41.4248 388.761 41.3415 389.33 41.2165ZM362.18 67.0929H361.953C361.782 67.343 361.611 67.5513 361.497 67.8013C360.871 69.0514 360.302 70.3431 359.733 71.5932C356.432 78.5519 353.188 85.5107 349.886 92.4694C349.488 93.3444 349.602 93.5945 350.74 93.7611C352.448 94.0111 354.098 94.3028 355.806 94.4695C361.896 95.0946 367.815 94.6362 373.678 93.3861C374.93 93.0944 375.044 92.9694 374.588 92.0527C371.06 85.0106 367.588 77.9686 364.059 70.9265C363.433 69.5931 362.807 68.343 362.18 67.0929ZM342.487 91.4693L342.658 91.3443C342.487 90.9693 342.373 90.5526 342.146 90.1776C338.161 82.2188 334.177 74.26 330.25 66.3012C327.916 61.6343 325.583 56.9674 323.306 52.2588C323.249 52.1338 323.078 52.0088 322.908 51.8837C322.737 51.9671 322.566 52.0504 322.452 52.1754C320.972 54.8423 319.891 57.6341 319.493 60.5092C318.81 65.4262 319.606 70.2598 321.94 74.8851C325.241 81.3021 331.047 86.219 338.788 89.9692C339.983 90.5526 341.292 90.9693 342.487 91.4693ZM382.557 90.2609C384.151 90.0109 385.289 89.4276 386.37 88.8442C390.241 86.6774 393.257 83.8856 395.989 80.9687C400.429 76.3018 402.763 71.0932 403.161 65.4262C403.559 60.0092 401.852 54.9256 398.608 50.0503C398.551 49.967 398.437 49.8836 398.266 49.7169C398.209 50.0086 398.209 50.1336 398.209 50.3003C398.721 54.2172 397.811 58.0091 396.046 61.676C391.664 71.0098 387.224 80.302 382.785 89.6359C382.728 89.7609 382.671 89.9693 382.557 90.2609Z" fill="#2A75F4"/>
<path d="M318.696 178.141C318.696 178.141 320.631 182.266 320.972 182.933C321.314 183.516 321.997 183.891 322.68 184.266C322.907 184.391 323.078 184.641 323.306 184.891C323.477 185.058 323.42 185.308 323.306 185.475C321.314 188.891 315.907 190.058 315.793 189.808C315.622 189.308 316.476 188.433 317.614 187.975C318.752 187.558 319.492 186.641 319.606 185.725C319.72 184.975 319.549 184.225 319.094 183.516L317.159 180.433L318.696 178.141ZM310.67 182.891L309.02 187.141C308.507 188.433 308.678 189.85 309.418 191.058C309.873 191.725 309.361 192.558 308.394 192.767C305.206 193.475 298.945 194.767 298.718 194.6C297.408 193.683 301.165 192.433 304.011 191.017C305.889 190.1 306.971 185.433 307.426 181.849L310.272 182.516C310.443 182.599 310.613 182.724 310.67 182.891Z" fill="#DB837B"/>
<path d="M304.524 192.308C303.215 192.558 301.735 192.6 300.426 192.683C300.255 192.683 300.141 192.725 300.027 192.808C298.718 193.475 298.035 194.142 298.718 194.642C299.003 194.85 306.288 193.267 309.134 192.642C309.703 192.517 310.045 192.017 309.76 191.6L309.305 190.85C307.768 191.475 306.174 191.975 304.524 192.308ZM311.809 134.763C315.224 135.263 317.956 138.305 317.103 141.514C316.59 143.389 313.744 150.014 310.671 155.181C309.533 157.181 309.76 159.515 311.525 161.265C311.809 161.557 312.037 161.848 312.265 162.14C313.232 163.64 316.818 172.557 318.81 178.433C318.582 179.183 317.842 180.141 317.046 180.433C313.061 175.307 306.687 166.015 305.662 164.432C305.093 163.515 304.467 162.515 304.012 161.515C301.393 158.681 303.101 143.472 303.898 140.472C304.752 137.264 308.394 134.305 311.809 134.763Z" fill="#0E2B5C"/>
<path d="M317.589 116.669C317.799 113.888 315.577 111.538 312.626 111.419C309.676 111.299 307.114 113.457 306.905 116.237C306.695 119.018 308.917 121.368 311.868 121.487C314.818 121.607 317.38 119.449 317.589 116.669Z" fill="#0E2B5C"/>
<path d="M313.46 117.054C313.745 114.262 316.989 112.054 320.802 112.054C324.161 112.054 327.006 113.679 327.917 115.887C328.259 116.679 329.226 117.179 330.308 117.221C330.763 117.221 331.218 117.304 331.731 117.387C334.463 117.929 336.512 119.721 336.682 121.804C336.796 123.679 335.487 125.304 333.495 126.18C332.641 126.555 332.129 127.221 331.958 127.93C331.104 131.222 326.779 133.513 322.055 132.93C318.014 132.43 314.997 129.888 314.883 126.888C314.826 125.054 315.794 123.429 317.387 122.263C314.883 121.263 313.232 119.263 313.46 117.054ZM312.72 109.804C312.72 109.804 309.59 111.054 309.817 112.929C309.817 112.929 308.281 112.054 308.11 109.137C308.053 107.137 312.72 109.804 312.72 109.804Z" fill="#0E2B5C"/>
<path d="M309.987 121.054C309.93 121.721 309.702 122.429 309.19 123.138C308.905 123.513 308.564 123.846 308.109 124.138C307.653 124.43 307.141 124.638 306.686 124.763C305.661 125.055 304.693 125.096 303.84 125.096C302.986 125.055 302.189 124.971 301.392 124.846C299.856 124.555 298.433 124.18 297.123 123.721C295.757 123.263 294.448 122.804 293.196 122.263C290.692 121.221 288.244 120.054 285.911 118.846C283.577 117.637 281.3 116.346 279.138 114.929C278.91 114.762 278.91 114.512 279.081 114.346C279.251 114.179 279.593 114.179 279.821 114.304C280.959 114.887 282.154 115.471 283.349 116.012C284.545 116.554 285.74 117.096 286.935 117.596C289.383 118.638 291.83 119.596 294.391 120.429C296.896 121.263 299.514 122.013 302.018 122.346C302.644 122.429 303.271 122.471 303.783 122.429C304.352 122.429 304.807 122.346 305.092 122.221C305.376 122.096 305.547 122.013 305.661 121.804C305.775 121.596 305.889 121.263 305.889 120.888C305.889 120.096 306.799 119.429 307.938 119.471C309.019 119.471 309.93 120.138 309.873 120.971C309.987 120.971 309.987 121.013 309.987 121.054Z" fill="#DB837B"/>
<path d="M307.825 130.638C306.801 127.93 304.809 122.221 305.15 120.388C305.378 119.221 306.801 118.388 308.395 118.429L318.867 118.846C320.575 118.929 321.941 119.971 321.884 121.263C321.827 123.471 320.006 128.471 319.038 131.055L307.825 130.638Z" fill="#FF6355"/>
<path d="M307.37 182.808C307.2 182.725 307.143 182.6 307.143 182.433C307.769 176.808 308.793 169.682 309.078 168.307C309.135 168.14 309.135 168.015 309.192 167.849C308.053 161.14 308.85 146.847 308.907 144.306C308.964 141.014 311.924 137.389 315.453 137.43C318.981 137.43 322.567 140.264 323.421 143.306C323.99 145.306 320.347 155.806 316.648 163.348C315.851 164.932 315.623 166.64 315.851 168.307C315.965 169.474 315.965 170.641 315.794 171.557C315.509 172.891 313.062 178.308 310.728 182.975C310.671 183.1 310.501 183.225 310.33 183.225C309.305 183.391 308.224 183.266 307.37 182.808Z" fill="#0E2B5C"/>
<path d="M319.948 134.513C319.493 133.388 319.436 132.18 319.72 131.013C320.46 128.305 321.769 123.263 321.826 121.096C321.883 119.929 320.631 118.971 319.037 118.887L317.5 118.804C316.817 119.762 315.508 120.512 313.573 120.429C311.638 120.346 310.443 119.512 309.93 118.512L308.451 118.471C309.817 121.013 309.02 124.263 306.174 126.054C306.572 127.388 306.914 128.721 307.142 129.805C307.483 131.263 307.142 132.763 306.288 134.097C304.751 136.388 303.442 140.097 303.613 141.597C314.427 144.306 322.338 140.597 322.338 140.597L319.948 134.513Z" fill="#FF6355"/>
<path d="M312.037 119.137L316.818 118.971L315.623 115.137L312.492 115.262L312.037 119.137Z" fill="#DB837B"/>
<path d="M312.492 115.262L315.565 115.096L315.964 116.304C315.224 116.846 314.256 118.013 313.118 117.971C312.776 117.971 312.435 117.888 312.15 117.721L312.492 115.262Z" fill="#FC5546"/>
<path d="M312.265 117.096C313.289 117.137 314.484 116.804 316.078 115.887C316.989 115.346 317.729 114.387 317.786 113.721L318.07 110.012L310.273 109.679C310.273 109.679 309.533 111.637 309.988 113.596C310.273 115.096 311.468 117.054 312.265 117.096Z" fill="#DB837B"/>
<path d="M316.534 112.97C316.477 113.679 316.933 114.304 317.502 114.304C318.071 114.346 318.811 113.387 318.868 112.679C318.925 111.97 318.299 111.72 317.729 111.679C317.103 111.679 316.591 112.22 316.534 112.97Z" fill="#DB837B"/>
<path d="M319.037 110.47C319.151 109.304 317.898 108.304 316.305 108.262L313.687 108.137C312.947 108.095 312.207 107.929 311.581 107.637C310.67 107.22 309.475 107.304 308.792 107.887C308.052 108.554 307.71 109.429 309.361 110.345C310.215 110.804 311.467 110.387 312.321 110.637H312.491L314.825 110.72C315.622 110.762 316.191 111.262 316.191 111.845C316.191 112.22 316.589 112.554 317.102 112.554H317.215L317.671 111.679L318.866 113.012L319.037 110.47Z" fill="#0E2B5C"/>
<path d="M277.146 113.845C277.146 113.845 278.797 115.471 279.651 115.262C280.505 115.054 281.017 114.804 280.618 113.887C280.277 112.97 279.195 111.845 278.342 111.304C277.488 110.72 275.553 110.179 275.268 110.262C274.301 110.429 275.951 111.345 276.748 111.804C277.545 112.262 278.342 112.887 277.886 113.095C277.488 113.304 276.065 112.304 275.496 112.429C274.984 112.554 277.146 113.845 277.146 113.845ZM302.247 135.722C302.247 135.722 304.979 135.513 305.377 136.097C305.719 136.68 305.833 137.138 304.694 137.555C303.556 137.972 301.678 138.139 300.539 138.097C299.401 138.055 297.523 137.347 297.409 137.18C296.954 136.555 299.003 136.805 299.97 136.93C300.995 137.013 302.133 137.055 302.019 136.68C301.962 136.305 300.027 136.263 299.743 135.847C299.458 135.472 302.247 135.722 302.247 135.722Z" fill="#DB837B"/>
<path d="M310.842 109.637C311.013 110.512 310.614 110.929 314.314 112.429C318.014 113.887 319.266 113.387 320.347 114.846C320.347 114.846 320.006 112.47 317.957 111.554C315.908 110.679 312.322 109.97 311.297 108.053C311.354 108.095 310.728 109.054 310.842 109.637Z" fill="#0E2B5C"/>
<path d="M321.428 120.596C321.94 121.179 322.396 121.721 322.794 122.263C323.25 122.846 323.648 123.388 323.989 123.971C324.729 125.138 325.355 126.346 325.868 127.638C326.323 128.93 326.608 130.263 326.494 131.721C326.437 132.097 326.38 132.43 326.266 132.805C326.152 133.18 326.038 133.513 325.868 133.888L325.583 134.43C325.469 134.597 325.299 134.763 325.185 134.93C325.071 135.097 324.957 135.263 324.786 135.388L324.274 135.805C322.851 136.93 321.03 137.555 319.265 137.889L318.582 138.014C318.355 138.055 318.127 138.055 317.899 138.097C317.444 138.139 316.989 138.18 316.59 138.222L315.281 138.264L314.598 138.305H313.915C310.443 138.264 307.028 137.805 303.784 137.222C303.499 137.18 303.272 136.93 303.385 136.722C303.442 136.513 303.727 136.388 304.011 136.388C307.313 136.638 310.671 136.805 313.915 136.638L314.541 136.597L315.11 136.513L316.306 136.388L317.444 136.18C317.615 136.138 317.842 136.138 318.013 136.097L318.525 135.972C319.948 135.597 321.201 135.055 321.997 134.305C322.794 133.555 323.136 132.638 323.136 131.596C323.136 130.555 322.794 129.471 322.339 128.388C321.884 127.305 321.257 126.221 320.517 125.221C320.176 124.721 319.778 124.179 319.379 123.679C318.981 123.179 318.525 122.638 318.127 122.221L318.07 122.179C317.444 121.513 317.729 120.596 318.639 120.179C319.607 119.762 320.859 119.971 321.428 120.596Z" fill="#DB837B"/>
<path d="M311.581 109.845C311.581 109.845 311.24 112.679 307.711 113.929C307.711 113.929 309.362 111.845 309.362 110.429C309.362 108.97 311.866 108.845 311.581 109.845ZM324.445 186.516C324.672 186.35 324.729 186.058 324.502 185.85C324.331 185.683 323.875 185.225 323.534 184.891C323.363 184.725 323.079 184.766 322.965 184.933C321.599 186.725 319.493 188.1 316.818 188.266C315.907 188.641 315.338 189.6 315.452 189.975C315.509 190.058 316.647 190.141 317.899 189.641C323.648 187.6 324.445 186.516 324.445 186.516Z" fill="#0E2B5C"/>
<path opacity="0.4" d="M380.281 180.891C380.281 180.891 422.628 152.639 464.974 173.807C464.974 173.807 444.199 154.348 414.318 157.265C384.493 160.182 380.281 180.891 380.281 180.891Z" fill="#2A75F4"/>
<path opacity="0.4" d="M381.591 182.058C381.591 182.058 387.112 140.305 437.882 135.222C437.882 135.222 404.642 131.013 385.176 147.806C365.711 164.599 381.591 182.058 381.591 182.058Z" fill="#2A75F4"/>
<path d="M381.249 181.849C381.249 181.849 401.113 142.514 451.997 147.014C451.997 147.014 421.319 136.722 396.617 149.389C371.915 162.057 381.249 181.849 381.249 181.849Z" fill="#0E2B5C"/>
<path d="M362.979 181.766C362.979 186.141 367.816 189.683 373.793 189.683H390.47C396.446 189.683 401.284 186.141 401.284 181.766C401.284 177.391 396.446 173.849 390.47 173.849H373.793C367.816 173.849 362.979 177.391 362.979 181.766Z" fill="#FF6355"/>
<path opacity="0.4" d="M85.6773 180.891C85.6773 180.891 43.3308 152.639 0.984375 173.807C0.984375 173.807 21.7592 154.348 51.6408 157.265C81.5223 160.182 85.6773 180.891 85.6773 180.891Z" fill="#2A75F4"/>
<path opacity="0.4" d="M84.424 182.058C84.424 182.058 78.903 140.305 28.1328 135.222C28.1328 135.222 61.3725 131.013 80.8382 147.806C100.304 164.599 84.424 182.058 84.424 182.058Z" fill="#2A75F4"/>
<path d="M84.7658 181.849C84.7658 181.849 64.9016 142.514 14.0176 147.014C14.0176 147.014 44.696 136.722 69.3981 149.389C94.1002 162.057 84.7658 181.849 84.7658 181.849Z" fill="#0E2B5C"/>
<path d="M103.036 181.766C103.036 186.141 98.1978 189.683 92.2215 189.683H75.5448C69.5684 189.683 64.7305 186.141 64.7305 181.766C64.7305 177.391 69.5684 173.849 75.5448 173.849H92.2215C98.1978 173.849 103.036 177.391 103.036 181.766Z" fill="#FF6355"/>
</svg>
