<svg width="1441" height="618" viewBox="0 0 1441 618" fill="none" xmlns="http://www.w3.org/2000/svg">
<mask id="mask0_6_303" style="mask-type:luminance" maskUnits="userSpaceOnUse" x="0" y="0" width="1441" height="618">
<path d="M1440.98 0.231445H0.978638V617.231H1440.98V0.231445Z" fill="white"/>
</mask>
<g mask="url(#mask0_6_303)">
<path fill-rule="evenodd" clip-rule="evenodd" d="M939.819 624.49V691.915H940.319V624.49H1055.35V691.915H1055.85V624.49H1170.05V691.915H1170.55V624.49H1285.58V691.915H1286.08V624.49H1401.1V691.915H1401.6V624.49H1515.81V691.915H1516.31V624.49H1631.33V691.915H1631.83V624.49H1746.04V624.111H1631.83V536.958H1746.04V536.578H1631.83V449.426H1746.04V449.045H1631.83V361.891H1746.04V361.512H1631.83V274.36H1746.04V273.98H1631.83V186.825H1746.04V186.445H1631.83V99.2928L1746.04 99.2929V98.9129L1631.83 98.9128V49.7373H1631.33V98.9128H1516.31V49.7373H1515.81V98.9128H1401.6V49.7373H1401.1V98.9128H1286.08V49.7373H1285.58V98.9128H1170.55V49.7373H1170.05V98.9128H1055.85V49.7373H1055.35V98.9128H940.319V49.7373H939.819V98.9128H872.979V99.2928H939.819V186.445H872.979V186.825H939.819V273.98H872.979V274.36H939.819V361.512H872.979V361.891H939.819V449.045H872.979V449.426H939.819V536.578H872.979V536.958H939.819V624.111H872.979V624.49H939.819ZM940.319 624.111H1055.35V536.958H940.319V624.111ZM940.319 536.578H1055.35V449.426H940.319V536.578ZM940.319 449.045H1055.35V361.891H940.319V449.045ZM940.319 361.512H1055.35V274.36H940.319V361.512ZM940.319 273.98H1055.35V186.825H940.319V273.98ZM940.319 186.445H1055.35V99.2928H940.319V186.445ZM1055.85 99.2928V186.445H1170.05V99.2928H1055.85ZM1170.55 99.2928V186.445H1285.58V99.2928H1170.55ZM1286.08 99.2928V186.445H1401.1V99.2928H1286.08ZM1401.6 99.2928V186.445H1515.81V99.2928H1401.6ZM1516.31 99.2928V186.445H1631.33V99.2928H1516.31ZM1631.33 186.825H1516.31V273.98H1631.33V186.825ZM1631.33 274.36H1516.31V361.512H1631.33V274.36ZM1631.33 361.891H1516.31V449.045H1631.33V361.891ZM1631.33 449.426H1516.31V536.578H1631.33V449.426ZM1631.33 536.958H1516.31V624.111H1631.33V536.958ZM1515.81 624.111V536.958H1401.6V624.111H1515.81ZM1401.1 624.111V536.958H1286.08V624.111H1401.1ZM1285.58 624.111V536.958H1170.55V624.111H1285.58ZM1170.05 624.111V536.958H1055.85V624.111H1170.05ZM1055.85 536.578H1170.05V449.426H1055.85V536.578ZM1055.85 449.045H1170.05V361.891H1055.85V449.045ZM1055.85 361.512H1170.05V274.36H1055.85V361.512ZM1055.85 273.98H1170.05V186.825H1055.85V273.98ZM1170.55 186.825V273.98H1285.58V186.825H1170.55ZM1286.08 186.825V273.98H1401.1V186.825H1286.08ZM1401.6 186.825V273.98H1515.81V186.825H1401.6ZM1515.81 274.36H1401.6V361.512H1515.81V274.36ZM1515.81 361.891H1401.6V449.045H1515.81V361.891ZM1515.81 449.426H1401.6V536.578H1515.81V449.426ZM1401.1 536.578V449.426H1286.08V536.578H1401.1ZM1285.58 536.578V449.426H1170.55V536.578H1285.58ZM1170.55 449.045H1285.58V361.891H1170.55V449.045ZM1170.55 361.512H1285.58V274.36H1170.55V361.512ZM1286.08 274.36V361.512H1401.1V274.36H1286.08ZM1401.1 361.891H1286.08V449.045H1401.1V361.891Z" fill="url(#paint0_radial_6_303)"/>
<path opacity="0.02" d="M1400.89 265.734H1285.89V361.302H1400.89V265.734Z" fill="#202B50"/>
<path opacity="0.02" d="M1169.92 414.647H1055.92V510.215H1169.92V414.647Z" fill="#202B50"/>
<path opacity="0.02" d="M1285.92 124.59H1169.92V220.158H1285.92V124.59Z" fill="#202B50"/>
<path fill-rule="evenodd" clip-rule="evenodd" d="M63.9407 634.371V702.965H64.3967V634.371H169.309V702.965H169.765V634.371H273.923V702.965H274.379V634.371H379.292V702.965H379.748V634.371H484.659V702.965H485.115V634.371H589.274V702.965H589.73V634.371H694.643V702.965H695.099V634.371H799.259V633.985H695.099V545.321H799.259V544.935H695.099V456.272H799.259V455.884H695.099V367.219H799.259V366.833H695.099V278.17H799.259V277.784H695.099V189.118H799.259V188.731H695.099V100.068L799.259 100.068V99.6815L695.099 99.6814V49.6533H694.643V99.6814H589.73V49.6533H589.274V99.6814H485.115V49.6533H484.659V99.6814H379.748V49.6533H379.292V99.6814H274.379V49.6533H273.923V99.6814H169.765V49.6533H169.309V99.6814H64.3967V49.6533H63.9407V99.6814H2.97864V100.068H63.9407V188.731H2.97864V189.118H63.9407V277.784H2.97864V278.17H63.9407V366.833H2.97864V367.219H63.9407V455.884H2.97864V456.272H63.9407V544.935H2.97864V545.321H63.9407V633.985H2.97864V634.371H63.9407ZM64.3967 633.985H169.309V545.321H64.3967V633.985ZM64.3967 544.935H169.309V456.272H64.3967V544.935ZM64.3967 455.884H169.309V367.219H64.3967V455.884ZM64.3967 366.833H169.309V278.17H64.3967V366.833ZM64.3967 277.784H169.309V189.118H64.3967V277.784ZM64.3967 188.731H169.309V100.068H64.3967V188.731ZM169.765 100.068V188.731H273.923V100.068H169.765ZM274.379 100.068V188.731H379.292V100.068H274.379ZM379.748 100.068V188.731H484.659V100.068H379.748ZM485.115 100.068V188.731H589.274V100.068H485.115ZM589.73 100.068V188.731H694.643V100.068H589.73ZM694.643 189.118H589.73V277.784H694.643V189.118ZM694.643 278.17H589.73V366.833H694.643V278.17ZM694.643 367.219H589.73V455.884H694.643V367.219ZM694.643 456.272H589.73V544.935H694.643V456.272ZM694.643 545.321H589.73V633.985H694.643V545.321ZM589.274 633.985V545.321H485.115V633.985H589.274ZM484.659 633.985V545.321H379.748V633.985H484.659ZM379.292 633.985V545.321H274.379V633.985H379.292ZM273.923 633.985V545.321H169.765V633.985H273.923ZM169.765 544.935H273.923V456.272H169.765V544.935ZM169.765 455.884H273.923V367.219H169.765V455.884ZM169.765 366.833H273.923V278.17H169.765V366.833ZM169.765 277.784H273.923V189.118H169.765V277.784ZM274.379 189.118V277.784H379.292V189.118H274.379ZM379.748 189.118V277.784H484.659V189.118H379.748ZM485.115 189.118V277.784H589.274V189.118H485.115ZM589.274 278.17H485.115V366.833H589.274V278.17ZM589.274 367.219H485.115V455.884H589.274V367.219ZM589.274 456.272H485.115V544.935H589.274V456.272ZM484.659 544.935V456.272H379.748V544.935H484.659ZM379.292 544.935V456.272H274.379V544.935H379.292ZM274.379 455.884H379.292V367.219H274.379V455.884ZM274.379 366.833H379.292V278.17H274.379V366.833ZM379.748 278.17V366.833H484.659V278.17H379.748ZM484.659 367.219H379.748V455.884H484.659V367.219Z" fill="url(#paint1_radial_6_303)"/>
<path opacity="0.02" d="M415.979 317.402H300.979V412.97H415.979V317.402Z" fill="#202B50"/>
<path opacity="0.02" d="M299.979 414.647H185.979V510.215H299.979V414.647Z" fill="#202B50"/>
</g>
<defs>
<radialGradient id="paint0_radial_6_303" cx="0" cy="0" r="1" gradientUnits="userSpaceOnUse" gradientTransform="translate(1309.51 352.46) rotate(90) scale(302.723 411.559)">
<stop stop-color="#E9C27F"/>
<stop offset="1" stop-color="#E9C27F" stop-opacity="0"/>
</radialGradient>
<radialGradient id="paint1_radial_6_303" cx="0" cy="0" r="1" gradientUnits="userSpaceOnUse" gradientTransform="translate(401.118 357.624) rotate(90) scale(307.971 375.366)">
<stop stop-color="#FAD89F"/>
<stop offset="1" stop-color="#E9C27F" stop-opacity="0"/>
</radialGradient>
</defs>
</svg>
