<svg width="494" height="494" viewBox="0 0 494 494" fill="none" xmlns="http://www.w3.org/2000/svg">
<mask id="mask0_3115_3336" style="mask-type:luminance" maskUnits="userSpaceOnUse" x="0" y="0" width="494" height="494">
<path d="M494 0H0V494H494V0Z" fill="white"/>
</mask>
<g mask="url(#mask0_3115_3336)">
<path d="M302.49 418.141C393.91 418.141 468.02 344.031 468.02 252.612C468.02 161.192 393.91 87.0823 302.49 87.0823C211.071 87.0823 136.961 161.192 136.961 252.612C136.961 344.031 211.071 418.141 302.49 418.141Z" fill="#E7EDF2"/>
<path d="M513.762 454.697H-7.28906V544.576H513.762V454.697Z" fill="#E2EAF2"/>
<path d="M179.846 127.976H53.0859V256.515H179.846V127.976Z" fill="#D2DFEE"/>
<path d="M81.402 127.976H53.0859V208.261" stroke="#536C7F" stroke-miterlimit="10" stroke-linecap="round"/>
<path d="M154.023 256.514H179.85V216.619" stroke="#536C7F" stroke-miterlimit="10" stroke-linecap="round"/>
<path d="M299.897 49.6963H218.219V96.3892H299.897V49.6963Z" fill="#0E2B5C"/>
<path d="M75.9282 85.2445C87.0378 85.2445 96.0439 76.2384 96.0439 65.1289C96.0439 54.0193 87.0378 45.0132 75.9282 45.0132C64.8186 45.0132 55.8125 54.0193 55.8125 65.1289C55.8125 76.2384 64.8186 85.2445 75.9282 85.2445Z" fill="#BCCCDD"/>
<path d="M176.717 74.5003C178.5 66.9935 173.86 59.4628 166.353 57.68C158.846 55.8971 151.316 60.5373 149.533 68.0441C147.75 75.5509 152.39 83.0816 159.897 84.8645C167.404 86.6473 174.934 82.0071 176.717 74.5003Z" fill="#BCCCDD"/>
<path d="M122.647 85.2545C139.24 85.2545 152.692 71.8028 152.692 55.2094C152.692 38.6159 139.24 25.1643 122.647 25.1643C106.053 25.1643 92.6016 38.6159 92.6016 55.2094C92.6016 71.8028 106.053 85.2545 122.647 85.2545Z" fill="#BCCCDD"/>
<path d="M163.133 85.2447H75.9219L78.7179 57.314L158.973 71.2744L163.133 85.2447Z" fill="#BCCCDD"/>
<path d="M88.8281 49.6963C98.0758 55.9404 97.2755 71.2742 97.2755 71.2742" stroke="#536C7F" stroke-miterlimit="10" stroke-linecap="round"/>
<path d="M143.672 33.7698C154.649 47.2362 155.113 60.1691 150.756 65.7909" stroke="#536C7F" stroke-miterlimit="10" stroke-linecap="round"/>
<path d="M158.183 85.8967H137.148" stroke="#536C7F" stroke-miterlimit="10" stroke-linecap="round"/>
<path d="M113.633 259.103V321.801" stroke="#A8C5E2" stroke-miterlimit="10"/>
<path d="M120.547 261.682V256.514H106.715V261.682H120.547Z" fill="#5F7B93"/>
<path d="M120.539 324.39V319.223H106.707V324.39H120.539Z" fill="#5F7B93"/>
<path d="M113.633 86.608V126.089" stroke="#A8C5E2" stroke-miterlimit="10"/>
<path d="M120.539 90.0364V84.8691H106.707V90.0364H120.539Z" fill="#5F7B93"/>
<path d="M120.547 127.837V122.67H106.715V127.837H120.547Z" fill="#5F7B93"/>
<path d="M216.907 71.2744H176.547" stroke="#A8C5E2" stroke-miterlimit="10"/>
<path d="M213.052 78.2002H218.219V64.3682H213.052V78.2002Z" fill="#5F7B93"/>
<path d="M175.239 78.2002H180.406V64.3682H175.239V78.2002Z" fill="#5F7B93"/>
<path d="M240.888 80.5555C239.457 80.5555 238.086 80.3681 236.774 79.9934C235.463 79.6016 234.407 79.0992 233.606 78.486L235.011 75.3689C235.778 75.9139 236.681 76.3653 237.72 76.723C238.776 77.0637 239.84 77.234 240.913 77.234C241.731 77.234 242.387 77.1574 242.881 77.0041C243.392 76.8337 243.766 76.6038 244.005 76.3142C244.243 76.0246 244.363 75.6925 244.363 75.3178C244.363 74.8408 244.175 74.4661 243.8 74.1936C243.426 73.904 242.932 73.674 242.319 73.5037C241.705 73.3163 241.024 73.146 240.275 72.9927C239.542 72.8224 238.801 72.618 238.052 72.3795C237.319 72.141 236.646 71.8344 236.033 71.4597C235.42 71.085 234.918 70.591 234.526 69.9778C234.151 69.3646 233.964 68.5811 233.964 67.6272C233.964 66.6052 234.236 65.6769 234.781 64.8423C235.343 63.9906 236.178 63.3178 237.285 62.8238C238.409 62.3128 239.815 62.0573 241.501 62.0573C242.625 62.0573 243.732 62.1936 244.822 62.4661C245.913 62.7216 246.875 63.1134 247.71 63.6414L246.432 66.7841C245.597 66.3071 244.763 65.9579 243.928 65.7365C243.094 65.498 242.276 65.3788 241.475 65.3788C240.675 65.3788 240.019 65.4725 239.508 65.6599C238.997 65.8472 238.631 66.0942 238.409 66.4008C238.188 66.6904 238.077 67.031 238.077 67.4228C238.077 67.8827 238.265 68.2574 238.639 68.547C239.014 68.8195 239.508 69.041 240.121 69.2113C240.734 69.3816 241.407 69.552 242.14 69.7223C242.889 69.8926 243.63 70.0885 244.363 70.31C245.112 70.5314 245.793 70.8295 246.407 71.2042C247.02 71.5789 247.514 72.0729 247.888 72.6861C248.28 73.2993 248.476 74.0743 248.476 75.0112C248.476 76.0161 248.195 76.9359 247.633 77.7706C247.071 78.6052 246.228 79.278 245.104 79.789C243.996 80.3 242.591 80.5555 240.888 80.5555ZM259.966 80.5555C258.569 80.5555 257.266 80.3256 256.057 79.8657C254.864 79.4058 253.825 78.7585 252.94 77.9239C252.071 77.0892 251.39 76.1098 250.896 74.9856C250.419 73.8614 250.18 72.635 250.18 71.3064C250.18 69.9778 250.419 68.7514 250.896 67.6272C251.39 66.503 252.079 65.5236 252.965 64.689C253.851 63.8543 254.89 63.2071 256.082 62.7472C257.275 62.2873 258.569 62.0573 259.966 62.0573C261.38 62.0573 262.674 62.2873 263.849 62.7472C265.042 63.2071 266.072 63.8543 266.941 64.689C267.827 65.5066 268.517 66.4775 269.011 67.6017C269.505 68.7259 269.751 69.9608 269.751 71.3064C269.751 72.635 269.505 73.8699 269.011 75.0112C268.517 76.1354 267.827 77.1148 266.941 77.9494C266.072 78.767 265.042 79.4058 263.849 79.8657C262.674 80.3256 261.38 80.5555 259.966 80.5555ZM265.817 84.3625C265.118 84.3625 264.454 84.2858 263.824 84.1325C263.211 83.9792 262.597 83.7322 261.984 83.3916C261.388 83.0509 260.758 82.591 260.094 82.0119C259.446 81.4327 258.739 80.7173 257.973 79.8657L262.316 78.767C262.776 79.3972 263.202 79.8997 263.594 80.2745C263.986 80.6492 264.36 80.9132 264.718 81.0665C265.093 81.2198 265.485 81.2965 265.893 81.2965C266.984 81.2965 267.954 80.8536 268.806 79.9679L270.646 82.1652C269.436 83.63 267.827 84.3625 265.817 84.3625ZM259.966 77.0296C260.766 77.0296 261.499 76.8933 262.163 76.6208C262.844 76.3483 263.441 75.9565 263.952 75.4455C264.463 74.9345 264.854 74.3298 265.127 73.6315C265.417 72.9161 265.561 72.141 265.561 71.3064C265.561 70.4547 265.417 69.6797 265.127 68.9814C264.854 68.283 264.463 67.6783 263.952 67.1673C263.441 66.6563 262.844 66.2645 262.163 65.992C261.499 65.7195 260.766 65.5832 259.966 65.5832C259.165 65.5832 258.424 65.7195 257.743 65.992C257.062 66.2645 256.465 66.6563 255.954 67.1673C255.461 67.6783 255.069 68.283 254.779 68.9814C254.507 69.6797 254.37 70.4547 254.37 71.3064C254.37 72.141 254.507 72.9161 254.779 73.6315C255.069 74.3298 255.461 74.9345 255.954 75.4455C256.465 75.9565 257.062 76.3483 257.743 76.6208C258.424 76.8933 259.165 77.0296 259.966 77.0296ZM272.862 80.2489V62.3639H277.001V76.8763H285.969V80.2489H272.862Z" fill="white"/>
<path d="M163.108 155.185H69.5547V176.931H163.108V155.185Z" fill="#BCCCDD"/>
<path d="M104.821 160.155H77.4531V170.499H104.821V160.155Z" fill="white"/>
<path d="M122.982 166.053C122.982 166.698 122.791 167.328 122.432 167.865C122.074 168.401 121.565 168.819 120.969 169.065C120.373 169.312 119.718 169.377 119.085 169.251C118.453 169.125 117.872 168.815 117.416 168.359C116.96 167.903 116.649 167.322 116.524 166.689C116.398 166.057 116.462 165.401 116.709 164.805C116.956 164.21 117.374 163.7 117.91 163.342C118.446 162.984 119.076 162.793 119.721 162.793C120.585 162.795 121.413 163.14 122.024 163.751C122.635 164.361 122.979 165.189 122.982 166.053Z" fill="white"/>
<path d="M133.38 166.053C133.38 166.698 133.189 167.328 132.831 167.865C132.472 168.401 131.963 168.819 131.367 169.065C130.772 169.312 130.116 169.377 129.484 169.251C128.851 169.125 128.27 168.815 127.814 168.359C127.358 167.903 127.048 167.322 126.922 166.689C126.796 166.057 126.861 165.401 127.108 164.805C127.354 164.21 127.772 163.7 128.308 163.342C128.845 162.984 129.475 162.793 130.12 162.793C130.984 162.795 131.811 163.14 132.422 163.751C133.033 164.361 133.378 165.189 133.38 166.053Z" fill="#5F7B93"/>
<path d="M143.685 166.053C143.685 166.698 143.494 167.328 143.135 167.865C142.777 168.401 142.268 168.819 141.672 169.065C141.076 169.312 140.421 169.377 139.788 169.251C139.156 169.125 138.575 168.815 138.119 168.359C137.663 167.903 137.353 167.322 137.227 166.689C137.101 166.057 137.165 165.401 137.412 164.805C137.659 164.21 138.077 163.7 138.613 163.342C139.149 162.984 139.78 162.793 140.424 162.793C141.288 162.795 142.116 163.14 142.727 163.751C143.338 164.361 143.682 165.189 143.685 166.053Z" fill="white"/>
<path d="M154.021 166.053C154.021 166.698 153.83 167.328 153.471 167.865C153.113 168.401 152.604 168.819 152.008 169.065C151.412 169.312 150.757 169.377 150.124 169.251C149.492 169.125 148.911 168.815 148.455 168.359C147.999 167.903 147.688 167.322 147.563 166.689C147.437 166.057 147.501 165.401 147.748 164.805C147.995 164.21 148.413 163.7 148.949 163.342C149.485 162.984 150.116 162.793 150.76 162.793C151.624 162.795 152.452 163.14 153.063 163.751C153.674 164.361 154.018 165.189 154.021 166.053Z" fill="white"/>
<path d="M116.453 176.931V209.96" stroke="#708699" stroke-miterlimit="10" stroke-linecap="round"/>
<path d="M160.086 209.96V192.857H74.7422V209.96" stroke="#708699" stroke-miterlimit="10" stroke-linecap="round"/>
<path d="M81.4042 209.96H68.0859V223.278H81.4042V209.96Z" fill="#A6BACC"/>
<path d="M123.131 209.96H109.812V223.278H123.131V209.96Z" fill="#A6BACC"/>
<path d="M164.842 209.96H151.523V223.278H164.842V209.96Z" fill="#A6BACC"/>
<path d="M180.132 354.425H47.1172V360.264H180.132V354.425Z" fill="#9BB0C4"/>
<path d="M182.348 324.38H44.9267C43.0169 324.38 41.4688 325.928 41.4688 327.838V350.967C41.4688 352.877 43.0169 354.425 44.9267 354.425H182.348C184.257 354.425 185.806 352.877 185.806 350.967V327.838C185.806 325.928 184.257 324.38 182.348 324.38Z" fill="#D2DFEE"/>
<path d="M93.6106 333.43H50.8203V346.818H93.6106V333.43Z" fill="#5F7B93"/>
<path d="M72.966 336.868H55.3203V340.129H72.966V336.868Z" fill="#9BB0C4"/>
<path d="M85.0433 336.868H77.9297V340.129H85.0433V336.868Z" fill="#9BB0C4"/>
<path d="M106.811 333.43H99.3906V346.818H106.811V333.43Z" fill="#9BB0C4"/>
<path d="M128.586 339.398C128.588 340.137 128.371 340.86 127.962 341.475C127.553 342.091 126.97 342.571 126.288 342.855C125.606 343.139 124.854 343.215 124.129 343.072C123.404 342.929 122.738 342.574 122.215 342.052C121.691 341.53 121.335 340.865 121.19 340.14C121.045 339.415 121.118 338.664 121.401 337.981C121.683 337.298 122.162 336.714 122.776 336.303C123.39 335.892 124.113 335.673 124.852 335.673C125.841 335.673 126.789 336.065 127.489 336.763C128.189 337.462 128.584 338.409 128.586 339.398Z" fill="#9BB0C4"/>
<path d="M144.11 339.398C144.112 340.137 143.894 340.86 143.485 341.475C143.076 342.091 142.494 342.571 141.811 342.855C141.129 343.139 140.378 343.215 139.653 343.072C138.928 342.929 138.261 342.574 137.738 342.052C137.215 341.53 136.858 340.865 136.713 340.14C136.568 339.415 136.642 338.664 136.924 337.981C137.206 337.298 137.685 336.714 138.299 336.303C138.914 335.892 139.636 335.673 140.375 335.673C141.364 335.673 142.312 336.065 143.013 336.763C143.713 337.462 144.107 338.409 144.11 339.398Z" fill="#9BB0C4"/>
<path d="M159.633 339.398C159.635 340.137 159.418 340.861 159.008 341.476C158.598 342.092 158.015 342.572 157.332 342.856C156.65 343.14 155.898 343.215 155.173 343.071C154.447 342.927 153.781 342.571 153.258 342.048C152.735 341.526 152.379 340.859 152.235 340.134C152.092 339.408 152.166 338.657 152.45 337.974C152.734 337.291 153.214 336.708 153.83 336.298C154.446 335.889 155.169 335.671 155.909 335.673C156.896 335.673 157.844 336.065 158.542 336.764C159.241 337.462 159.633 338.41 159.633 339.398Z" fill="#9BB0C4"/>
<path d="M175.157 339.398C175.159 340.137 174.941 340.861 174.531 341.476C174.122 342.092 173.539 342.572 172.856 342.856C172.173 343.14 171.421 343.215 170.696 343.071C169.971 342.927 169.304 342.571 168.781 342.048C168.258 341.526 167.903 340.859 167.759 340.134C167.615 339.408 167.69 338.657 167.974 337.974C168.258 337.291 168.738 336.708 169.353 336.298C169.969 335.889 170.693 335.671 171.432 335.673C172.42 335.673 173.367 336.065 174.066 336.764C174.764 337.462 175.157 338.41 175.157 339.398Z" fill="#9BB0C4"/>
<path d="M41.4563 332.482H36.2891V346.314H41.4563V332.482Z" fill="#5F7B93"/>
<path d="M190.964 332.482H185.797V346.314H190.964V332.482Z" fill="#5F7B93"/>
<path d="M47.125 354.425H180.89C182.2 354.425 183.457 353.905 184.383 352.978C185.31 352.052 185.83 350.795 185.83 349.485V336.908" stroke="#536C7F" stroke-miterlimit="10" stroke-linecap="round"/>
<path d="M180.132 390.3H47.1172V396.139H180.132V390.3Z" fill="#9BB0C4"/>
<path d="M182.348 360.264H44.9267C43.0169 360.264 41.4688 361.813 41.4688 363.722V386.851C41.4688 388.761 43.0169 390.309 44.9267 390.309H182.348C184.257 390.309 185.806 388.761 185.806 386.851V363.722C185.806 361.813 184.257 360.264 182.348 360.264Z" fill="#D2DFEE"/>
<path d="M93.6106 369.304H50.8203V382.692H93.6106V369.304Z" fill="#5F7B93"/>
<path d="M72.966 372.743H55.3203V376.003H72.966V372.743Z" fill="#9BB0C4"/>
<path d="M85.0433 372.743H77.9297V376.003H85.0433V372.743Z" fill="#9BB0C4"/>
<path d="M106.811 369.304H99.3906V382.692H106.811V369.304Z" fill="#9BB0C4"/>
<path d="M128.586 375.282C128.586 376.02 128.367 376.742 127.957 377.357C127.547 377.971 126.963 378.449 126.281 378.732C125.599 379.015 124.848 379.089 124.123 378.945C123.399 378.801 122.733 378.445 122.211 377.923C121.689 377.4 121.333 376.735 121.189 376.01C121.045 375.286 121.119 374.535 121.401 373.853C121.684 373.17 122.163 372.587 122.777 372.177C123.391 371.766 124.113 371.547 124.852 371.547C125.343 371.546 125.829 371.642 126.283 371.829C126.736 372.016 127.148 372.291 127.496 372.638C127.843 372.985 128.118 373.397 128.305 373.851C128.492 374.305 128.588 374.791 128.586 375.282Z" fill="#9BB0C4"/>
<path d="M144.11 375.282C144.11 376.02 143.891 376.742 143.481 377.357C143.07 377.971 142.487 378.449 141.804 378.732C141.122 379.015 140.371 379.089 139.647 378.945C138.922 378.801 138.257 378.445 137.734 377.923C137.212 377.4 136.856 376.735 136.712 376.01C136.568 375.286 136.642 374.535 136.925 373.853C137.208 373.17 137.686 372.587 138.3 372.177C138.915 371.766 139.637 371.547 140.375 371.547C140.866 371.546 141.352 371.642 141.806 371.829C142.26 372.016 142.672 372.291 143.019 372.638C143.366 372.985 143.641 373.397 143.828 373.851C144.015 374.305 144.111 374.791 144.11 375.282Z" fill="#9BB0C4"/>
<path d="M159.633 375.282C159.633 376.021 159.414 376.743 159.003 377.358C158.592 377.972 158.009 378.451 157.326 378.733C156.643 379.015 155.891 379.089 155.166 378.944C154.442 378.799 153.776 378.442 153.254 377.919C152.733 377.396 152.378 376.729 152.235 376.004C152.092 375.279 152.167 374.528 152.451 373.846C152.735 373.163 153.216 372.581 153.831 372.172C154.446 371.763 155.17 371.545 155.909 371.547C156.399 371.547 156.884 371.644 157.336 371.832C157.789 372.019 158.2 372.295 158.546 372.642C158.892 372.989 159.166 373.4 159.353 373.853C159.539 374.306 159.635 374.792 159.633 375.282Z" fill="#9BB0C4"/>
<path d="M175.157 375.282C175.157 376.021 174.937 376.743 174.527 377.358C174.116 377.972 173.532 378.451 172.849 378.733C172.166 379.015 171.415 379.089 170.69 378.944C169.965 378.799 169.3 378.442 168.778 377.919C168.256 377.396 167.901 376.729 167.758 376.004C167.615 375.279 167.69 374.528 167.975 373.846C168.259 373.163 168.739 372.581 169.354 372.172C169.97 371.763 170.693 371.545 171.432 371.547C171.922 371.547 172.407 371.644 172.86 371.832C173.312 372.019 173.723 372.295 174.069 372.642C174.415 372.989 174.689 373.4 174.876 373.853C175.063 374.306 175.158 374.792 175.157 375.282Z" fill="#9BB0C4"/>
<path d="M41.4563 368.366H36.2891V382.198H41.4563V368.366Z" fill="#5F7B93"/>
<path d="M190.964 368.366H185.797V382.198H190.964V368.366Z" fill="#5F7B93"/>
<path d="M47.125 390.26H180.89C182.2 390.26 183.457 389.739 184.383 388.813C185.31 387.887 185.83 386.63 185.83 385.32V372.743" stroke="#536C7F" stroke-miterlimit="10" stroke-linecap="round"/>
<path d="M180.132 426.184H47.1172V432.023H180.132V426.184Z" fill="#9BB0C4"/>
<path d="M182.348 396.138H44.9267C43.0169 396.138 41.4688 397.687 41.4688 399.596V422.726C41.4688 424.635 43.0169 426.184 44.9267 426.184H182.348C184.257 426.184 185.806 424.635 185.806 422.726V399.596C185.806 397.687 184.257 396.138 182.348 396.138Z" fill="#D2DFEE"/>
<path d="M93.6106 405.189H50.8203V418.576H93.6106V405.189Z" fill="#5F7B93"/>
<path d="M72.966 408.627H55.3203V411.887H72.966V408.627Z" fill="#9BB0C4"/>
<path d="M85.0433 408.627H77.9297V411.887H85.0433V408.627Z" fill="#9BB0C4"/>
<path d="M106.811 405.189H99.3906V418.576H106.811V405.189Z" fill="#9BB0C4"/>
<path d="M128.586 411.156C128.588 411.895 128.371 412.618 127.962 413.234C127.553 413.849 126.97 414.329 126.288 414.614C125.606 414.898 124.854 414.973 124.129 414.83C123.404 414.687 122.738 414.332 122.215 413.81C121.691 413.288 121.335 412.623 121.19 411.898C121.045 411.174 121.118 410.422 121.401 409.739C121.683 409.056 122.162 408.472 122.776 408.061C123.39 407.651 124.113 407.431 124.852 407.431C125.841 407.431 126.789 407.824 127.489 408.522C128.189 409.22 128.584 410.167 128.586 411.156Z" fill="#9BB0C4"/>
<path d="M144.11 411.156C144.112 411.895 143.894 412.618 143.485 413.234C143.076 413.849 142.494 414.329 141.811 414.614C141.129 414.898 140.378 414.973 139.653 414.83C138.928 414.687 138.261 414.332 137.738 413.81C137.215 413.288 136.858 412.623 136.713 411.898C136.568 411.174 136.642 410.422 136.924 409.739C137.206 409.056 137.685 408.472 138.299 408.061C138.914 407.651 139.636 407.431 140.375 407.431C141.364 407.431 142.312 407.824 143.013 408.522C143.713 409.22 144.107 410.167 144.11 411.156Z" fill="#9BB0C4"/>
<path d="M159.633 411.156C159.635 411.896 159.418 412.619 159.008 413.235C158.598 413.85 158.015 414.331 157.332 414.614C156.65 414.898 155.898 414.973 155.173 414.829C154.447 414.686 153.781 414.33 153.258 413.807C152.735 413.284 152.379 412.618 152.235 411.892C152.092 411.167 152.166 410.415 152.45 409.732C152.734 409.049 153.214 408.466 153.83 408.057C154.446 407.647 155.169 407.429 155.909 407.431C156.896 407.431 157.844 407.824 158.542 408.522C159.241 409.221 159.633 410.168 159.633 411.156Z" fill="#9BB0C4"/>
<path d="M175.157 411.156C175.159 411.896 174.941 412.619 174.531 413.235C174.122 413.85 173.539 414.331 172.856 414.614C172.173 414.898 171.421 414.973 170.696 414.829C169.971 414.686 169.304 414.33 168.781 413.807C168.258 413.284 167.903 412.618 167.759 411.892C167.615 411.167 167.69 410.415 167.974 409.732C168.258 409.049 168.738 408.466 169.353 408.057C169.969 407.647 170.693 407.429 171.432 407.431C172.42 407.431 173.367 407.824 174.066 408.522C174.764 409.221 175.157 410.168 175.157 411.156Z" fill="#9BB0C4"/>
<path d="M41.4563 404.25H36.2891V418.082H41.4563V404.25Z" fill="#5F7B93"/>
<path d="M190.964 404.25H185.797V418.082H190.964V404.25Z" fill="#5F7B93"/>
<path d="M47.125 426.184H180.89C182.2 426.184 183.457 425.663 184.383 424.737C185.31 423.81 185.83 422.554 185.83 421.244V408.597" stroke="#536C7F" stroke-miterlimit="10" stroke-linecap="round"/>
<path d="M180.132 462.058H47.1172V467.897H180.132V462.058Z" fill="#9BB0C4"/>
<path d="M182.348 432.023H44.9267C43.0169 432.023 41.4688 433.571 41.4688 435.481V458.61C41.4688 460.52 43.0169 462.068 44.9267 462.068H182.348C184.257 462.068 185.806 460.52 185.806 458.61V435.481C185.806 433.571 184.257 432.023 182.348 432.023Z" fill="#D2DFEE"/>
<path d="M93.6106 441.063H50.8203V454.45H93.6106V441.063Z" fill="#5F7B93"/>
<path d="M72.966 444.501H55.3203V447.761H72.966V444.501Z" fill="#9BB0C4"/>
<path d="M85.0433 444.501H77.9297V447.761H85.0433V444.501Z" fill="#9BB0C4"/>
<path d="M106.811 441.063H99.3906V454.45H106.811V441.063Z" fill="#9BB0C4"/>
<path d="M128.586 447.04C128.588 447.779 128.371 448.502 127.962 449.118C127.553 449.733 126.97 450.214 126.288 450.498C125.606 450.782 124.854 450.857 124.129 450.714C123.404 450.571 122.738 450.216 122.215 449.694C121.691 449.173 121.335 448.507 121.19 447.782C121.045 447.058 121.118 446.306 121.401 445.623C121.683 444.94 122.162 444.356 122.776 443.946C123.39 443.535 124.113 443.316 124.852 443.316C125.342 443.314 125.827 443.41 126.28 443.596C126.733 443.783 127.145 444.057 127.492 444.403C127.839 444.749 128.114 445.16 128.302 445.613C128.49 446.065 128.586 446.55 128.586 447.04Z" fill="#9BB0C4"/>
<path d="M144.11 447.04C144.112 447.779 143.894 448.502 143.485 449.118C143.076 449.733 142.494 450.214 141.811 450.498C141.129 450.782 140.378 450.857 139.653 450.714C138.928 450.571 138.261 450.216 137.738 449.694C137.215 449.173 136.858 448.507 136.713 447.782C136.568 447.058 136.642 446.306 136.924 445.623C137.206 444.94 137.685 444.356 138.299 443.946C138.914 443.535 139.636 443.316 140.375 443.316C140.865 443.314 141.351 443.41 141.804 443.596C142.257 443.783 142.669 444.057 143.015 444.403C143.362 444.749 143.638 445.16 143.825 445.613C144.013 446.065 144.11 446.55 144.11 447.04Z" fill="#9BB0C4"/>
<path d="M159.633 447.04C159.635 447.78 159.418 448.503 159.008 449.119C158.598 449.735 158.015 450.215 157.332 450.499C156.65 450.783 155.898 450.857 155.173 450.714C154.447 450.57 153.781 450.214 153.258 449.691C152.735 449.168 152.379 448.502 152.235 447.776C152.092 447.051 152.166 446.299 152.45 445.616C152.734 444.934 153.214 444.35 153.83 443.941C154.446 443.531 155.169 443.314 155.909 443.316C156.896 443.316 157.844 443.708 158.542 444.407C159.241 445.105 159.633 446.052 159.633 447.04Z" fill="#9BB0C4"/>
<path d="M175.157 447.04C175.159 447.78 174.941 448.503 174.531 449.119C174.122 449.735 173.539 450.215 172.856 450.499C172.173 450.783 171.421 450.857 170.696 450.714C169.971 450.57 169.304 450.214 168.781 449.691C168.258 449.168 167.903 448.502 167.759 447.776C167.615 447.051 167.69 446.299 167.974 445.616C168.258 444.934 168.738 444.35 169.353 443.941C169.969 443.531 170.693 443.314 171.432 443.316C172.42 443.316 173.367 443.708 174.066 444.407C174.764 445.105 175.157 446.052 175.157 447.04Z" fill="#9BB0C4"/>
<path d="M41.4563 440.124H36.2891V453.956H41.4563V440.124Z" fill="#5F7B93"/>
<path d="M190.964 440.124H185.797V453.956H190.964V440.124Z" fill="#5F7B93"/>
<path d="M47.125 462.058H180.89C182.2 462.058 183.457 461.537 184.383 460.611C185.31 459.684 185.83 458.428 185.83 457.118V444.501" stroke="#536C7F" stroke-miterlimit="10" stroke-linecap="round"/>
<path d="M182.348 467.897H44.9267C43.0169 467.897 41.4688 469.445 41.4688 471.355V494.484C41.4688 496.394 43.0169 497.942 44.9267 497.942H182.348C184.257 497.942 185.806 496.394 185.806 494.484V471.355C185.806 469.445 184.257 467.897 182.348 467.897Z" fill="#D2DFEE"/>
<path d="M93.6106 476.947H50.8203V490.334H93.6106V476.947Z" fill="#5F7B93"/>
<path d="M72.966 480.385H55.3203V483.646H72.966V480.385Z" fill="#9BB0C4"/>
<path d="M85.0433 480.385H77.9297V483.646H85.0433V480.385Z" fill="#9BB0C4"/>
<path d="M106.811 476.947H99.3906V490.334H106.811V476.947Z" fill="#9BB0C4"/>
<path d="M128.586 482.924C128.586 483.663 128.367 484.385 127.957 484.999C127.547 485.613 126.963 486.092 126.281 486.375C125.599 486.657 124.848 486.731 124.123 486.587C123.399 486.443 122.733 486.088 122.211 485.565C121.689 485.043 121.333 484.377 121.189 483.653C121.045 482.929 121.119 482.178 121.401 481.495C121.684 480.813 122.163 480.23 122.777 479.819C123.391 479.409 124.113 479.19 124.852 479.19C125.343 479.189 125.829 479.284 126.283 479.471C126.736 479.659 127.148 479.934 127.496 480.281C127.843 480.628 128.118 481.04 128.305 481.494C128.492 481.947 128.588 482.434 128.586 482.924Z" fill="#9BB0C4"/>
<path d="M144.11 482.924C144.11 483.663 143.891 484.385 143.481 484.999C143.07 485.613 142.487 486.092 141.804 486.375C141.122 486.657 140.371 486.731 139.647 486.587C138.922 486.443 138.257 486.088 137.734 485.565C137.212 485.043 136.856 484.377 136.712 483.653C136.568 482.929 136.642 482.178 136.925 481.495C137.208 480.813 137.686 480.23 138.3 479.819C138.915 479.409 139.637 479.19 140.375 479.19C140.866 479.189 141.352 479.284 141.806 479.471C142.26 479.659 142.672 479.934 143.019 480.281C143.366 480.628 143.641 481.04 143.828 481.494C144.015 481.947 144.111 482.434 144.11 482.924Z" fill="#9BB0C4"/>
<path d="M159.633 482.924C159.631 483.663 159.41 484.385 158.998 484.998C158.586 485.611 158.002 486.088 157.319 486.369C156.636 486.65 155.884 486.722 155.16 486.576C154.436 486.429 153.772 486.072 153.251 485.548C152.73 485.025 152.376 484.358 152.234 483.633C152.092 482.909 152.168 482.158 152.452 481.476C152.737 480.795 153.217 480.213 153.832 479.804C154.447 479.395 155.17 479.178 155.909 479.18C156.399 479.18 156.885 479.277 157.339 479.465C157.792 479.654 158.203 479.93 158.549 480.278C158.896 480.626 159.169 481.039 159.355 481.493C159.542 481.947 159.636 482.434 159.633 482.924Z" fill="#9BB0C4"/>
<path d="M175.157 482.924C175.157 483.664 174.937 484.386 174.527 485C174.116 485.615 173.532 486.093 172.849 486.376C172.166 486.658 171.415 486.732 170.69 486.587C169.965 486.442 169.3 486.085 168.778 485.562C168.256 485.038 167.901 484.372 167.758 483.647C167.615 482.922 167.69 482.171 167.975 481.488C168.259 480.806 168.739 480.224 169.354 479.814C169.97 479.405 170.693 479.188 171.432 479.19C171.922 479.19 172.407 479.286 172.86 479.474C173.312 479.662 173.723 479.937 174.069 480.284C174.415 480.631 174.689 481.043 174.876 481.496C175.063 481.949 175.158 482.434 175.157 482.924Z" fill="#9BB0C4"/>
<path d="M41.4563 476.009H36.2891V489.841H41.4563V476.009Z" fill="#5F7B93"/>
<path d="M190.964 476.009H185.797V489.841H190.964V476.009Z" fill="#5F7B93"/>
<path d="M47.125 497.952H180.89C182.2 497.952 183.457 497.431 184.383 496.505C185.31 495.579 185.83 494.322 185.83 493.012V480.365" stroke="#536C7F" stroke-miterlimit="10" stroke-linecap="round"/>
<path d="M136.07 162.813L148.075 152.863L166.659 155.59L155.86 162.813" stroke="#B5574B" stroke-miterlimit="10" stroke-linecap="round"/>
<path d="M254.053 130.831C251.108 130.831 248.23 131.704 245.781 133.34C243.333 134.976 241.424 137.301 240.297 140.022C239.171 142.743 238.876 145.736 239.45 148.625C240.025 151.513 241.443 154.166 243.525 156.248C245.607 158.33 248.26 159.749 251.148 160.323C254.037 160.898 257.03 160.603 259.751 159.476C262.472 158.349 264.797 156.44 266.433 153.992C268.069 151.543 268.942 148.665 268.942 145.72C268.942 141.771 267.374 137.984 264.581 135.192C261.789 132.399 258.002 130.831 254.053 130.831ZM254.053 153.219C252.57 153.219 251.12 152.779 249.887 151.955C248.654 151.131 247.693 149.96 247.125 148.59C246.558 147.219 246.409 145.712 246.698 144.257C246.988 142.802 247.702 141.466 248.751 140.417C249.799 139.369 251.136 138.654 252.59 138.365C254.045 138.076 255.553 138.224 256.923 138.792C258.293 139.359 259.464 140.321 260.288 141.554C261.112 142.787 261.552 144.237 261.552 145.72C261.552 147.709 260.762 149.616 259.356 151.023C257.949 152.429 256.042 153.219 254.053 153.219Z" fill="#BCCCDD"/>
<path d="M258.321 124.369H250.289V134.753H258.321V124.369Z" fill="#BCCCDD"/>
<path d="M241.969 127.611L236.289 133.291L243.632 140.633L249.311 134.953L241.969 127.611Z" fill="#BCCCDD"/>
<path d="M232.703 141.452V149.484H243.087V141.452H232.703Z" fill="#BCCCDD"/>
<path d="M235.945 157.793L241.625 163.473L248.968 156.13L243.288 150.45L235.945 157.793Z" fill="#BCCCDD"/>
<path d="M249.788 167.061H257.82V156.677H249.788V167.061Z" fill="#BCCCDD"/>
<path d="M266.125 163.83L271.805 158.15L264.462 150.808L258.782 156.488L266.125 163.83Z" fill="#BCCCDD"/>
<path d="M275.398 149.988V141.956H265.015V149.988H275.398Z" fill="#BCCCDD"/>
<path d="M272.172 133.646L266.492 127.967L259.15 135.309L264.829 140.989L272.172 133.646Z" fill="#BCCCDD"/>
<path d="M285.603 116.861C284.117 116.861 282.666 117.301 281.431 118.126C280.196 118.951 279.234 120.124 278.665 121.496C278.097 122.868 277.948 124.378 278.238 125.834C278.528 127.291 279.243 128.629 280.293 129.679C281.343 130.729 282.681 131.444 284.138 131.734C285.594 132.024 287.104 131.875 288.476 131.307C289.848 130.738 291.021 129.776 291.846 128.541C292.671 127.306 293.111 125.854 293.111 124.369C293.109 122.379 292.317 120.47 290.909 119.063C289.502 117.655 287.593 116.863 285.603 116.861ZM285.603 128.153C284.854 128.153 284.123 127.932 283.5 127.516C282.878 127.1 282.393 126.509 282.107 125.817C281.82 125.126 281.745 124.365 281.891 123.631C282.037 122.897 282.398 122.223 282.927 121.694C283.456 121.164 284.13 120.804 284.864 120.658C285.598 120.512 286.359 120.587 287.051 120.873C287.742 121.16 288.333 121.645 288.749 122.267C289.165 122.889 289.387 123.621 289.387 124.369C289.388 124.867 289.291 125.359 289.101 125.819C288.912 126.279 288.633 126.696 288.281 127.048C287.93 127.4 287.512 127.678 287.052 127.868C286.593 128.058 286.1 128.155 285.603 128.153Z" fill="#BCCCDD"/>
<path d="M287.738 113.6H283.688V118.837H287.738V113.6Z" fill="#BCCCDD"/>
<path d="M279.497 115.241L276.633 118.105L280.336 121.808L283.2 118.944L279.497 115.241Z" fill="#BCCCDD"/>
<path d="M274.812 122.225V126.276H280.049V122.225H274.812Z" fill="#BCCCDD"/>
<path d="M276.44 130.467L279.305 133.331L283.007 129.629L280.143 126.764L276.44 130.467Z" fill="#BCCCDD"/>
<path d="M283.434 135.148H287.484V129.912H283.434V135.148Z" fill="#BCCCDD"/>
<path d="M291.675 133.503L294.539 130.639L290.836 126.936L287.972 129.8L291.675 133.503Z" fill="#BCCCDD"/>
<path d="M296.352 126.523V122.472H291.115V126.523H296.352Z" fill="#BCCCDD"/>
<path d="M294.716 118.283L291.852 115.419L288.149 119.122L291.013 121.986L294.716 118.283Z" fill="#BCCCDD"/>
<path d="M145.238 151.599C145.238 151.599 144.615 161.825 145.771 164.097C146.927 166.369 157.528 167.298 157.528 167.298L177.842 156.104L162.281 145.236L149.19 146.758L145.238 151.599Z" fill="#CC8E75"/>
<path d="M150.523 155.442C150.594 156.484 150.898 157.497 151.413 158.406C152.048 159.487 152.936 160.398 154.002 161.059C155.067 161.72 156.278 162.111 157.528 162.2L162.202 162.605" stroke="#B5574B" stroke-miterlimit="10" stroke-linecap="round"/>
<path d="M157.414 153.782C157.405 154.968 157.854 156.112 158.668 156.975C159.481 157.839 160.597 158.355 161.781 158.416L168.697 159.018" stroke="#B5574B" stroke-miterlimit="10" stroke-linecap="round"/>
<path d="M211.864 179.895L187.401 153.427L169.133 166.498L190.325 204.2L211.864 179.895Z" fill="#DFAB94"/>
<path d="M187.411 153.426C187.411 153.426 176.701 142.272 173.697 141.047C170.694 139.822 151.655 141.047 148.691 142.855C145.727 144.663 128.812 161.222 129.267 163.129C129.721 165.035 134.859 166.725 143.504 160.333C152.149 153.94 153.443 153.417 153.443 153.417L171.227 157.635C171.227 157.635 153.117 166.231 153.7 170.124C154.283 174.016 168.747 171.112 168.747 171.112L183.152 183.61L187.411 153.426Z" fill="#DFAB94"/>
<path d="M385.123 153.782C385.123 153.782 341.967 152.518 329.736 156.074C317.505 159.631 248.582 209.456 241.903 210.444L209.457 175.735L185.508 199.289C185.508 199.289 226.164 270.534 240.065 275.948C253.966 281.363 327.562 219.217 327.562 219.217L374.789 209.535L391.664 172.821L385.123 153.782Z" fill="#0E2B5C"/>
<path d="M416.625 322.286C416.625 322.286 451.135 432.072 453.349 507.526H379.614L366.286 388.59L344.639 513.315H286.07C286.07 513.315 290.279 388.827 318.279 321.465C346.279 254.104 416.625 322.286 416.625 322.286Z" fill="#5A2402"/>
<path d="M413.977 344.753C431.652 396.939 443.478 510.351 443.478 510.351" stroke="#AF7E62" stroke-miterlimit="10" stroke-linecap="round"/>
<path d="M312.062 184.865C312.062 184.865 377.913 167.466 428.32 183.066L417.788 337.402L312.072 337.343V184.865H312.062Z" fill="#0E2B5C"/>
<g style="mix-blend-mode:multiply" opacity="0.57">
<path d="M421.118 256.989C401.961 303.988 312.062 316.99 312.062 316.99V337.343L423.114 341.542L421.118 256.989Z" fill="#FCA695"/>
</g>
<path d="M392.935 148.595C412.151 156.647 442.72 165.045 449.774 176.131C456.829 187.216 490.885 303.741 476.45 315.893C462.016 328.045 389.003 354.02 389.003 354.02L379.29 325.516L429.777 280.947L403.259 198.143L371.406 196.612V156.865L392.935 148.595Z" fill="#0E2B5C"/>
<path d="M347.303 148.575C343.953 170.43 347.747 184.865 367.458 187.591C386.003 190.17 403.796 169.689 406.276 153.752C406.276 153.752 388.423 142.173 347.303 148.575Z" fill="white"/>
<path d="M357.703 151.905V163.237C357.703 173.433 368.255 180.419 382.64 173.117C394.872 166.903 396.294 159.285 396.294 153.071V121.02L357.762 146.501L357.703 151.905Z" fill="#DFAB94"/>
<g style="mix-blend-mode:multiply" opacity="0.39">
<path d="M385.118 128.44C382.994 145.928 371.405 156.894 357.711 156.894C357.711 156.746 357.711 156.588 357.711 156.43V124.488L385.118 128.44Z" fill="#FCA695"/>
</g>
<path d="M344.241 68.8241C322.623 83.1501 323.285 102.742 326.457 118.886C329.994 136.344 342.146 148.595 357.707 148.595C378.751 148.595 395.953 135.544 397.701 115.29C399.45 95.0357 394.648 71.2249 379.038 68.8537C363.428 66.4825 344.241 68.8241 344.241 68.8241Z" fill="#DFAB94"/>
<path d="M342.443 101.665C342.443 103.572 341.455 105.113 340.289 105.113C339.123 105.113 338.125 103.572 338.125 101.665C338.125 99.7582 339.113 98.2268 340.289 98.2268C341.464 98.2268 342.443 99.7878 342.443 101.665Z" fill="#5A2402"/>
<path d="M367.239 101.665C367.239 103.572 366.251 105.113 365.076 105.113C363.9 105.113 362.922 103.572 362.922 101.665C362.922 99.7582 363.91 98.2268 365.076 98.2268C366.242 98.2268 367.239 99.7878 367.239 101.665Z" fill="#5A2402"/>
<path d="M361.434 85.9559C366.572 83.7625 374.535 86.3215 375.266 89.6411C375.997 92.9608 374.713 94.6404 373.221 94.6404C371.729 94.6404 368.123 90.4019 361.148 92.1408C358.648 92.7533 356.88 87.9319 361.434 85.9559Z" fill="#5A2402"/>
<path d="M344.976 85.9559C340.698 83.7625 334.108 86.3215 333.446 89.6411C332.784 92.9608 333.91 94.6404 335.155 94.6404C336.4 94.6404 339.404 90.4019 345.213 92.1408C347.268 92.7533 348.77 87.9319 344.976 85.9559Z" fill="#5A2402"/>
<path d="M351.328 99.0963C350.686 102.614 348.73 110.587 347.801 114.292C347.741 114.539 347.734 114.797 347.781 115.047C347.829 115.297 347.929 115.534 348.076 115.742C348.223 115.95 348.414 116.124 348.634 116.252C348.854 116.381 349.099 116.46 349.352 116.485C351.615 116.702 355.142 116.91 356.604 116.248" stroke="#B5574B" stroke-miterlimit="10" stroke-linecap="round"/>
<path d="M356.897 120.961C359.978 120.431 362.988 119.549 365.868 118.333C366.007 118.271 366.159 118.247 366.309 118.262C366.46 118.278 366.604 118.334 366.726 118.423C366.848 118.512 366.945 118.632 367.006 118.771C367.067 118.909 367.091 119.061 367.074 119.212C366.948 120.355 366.486 121.435 365.745 122.314C365.005 123.194 364.019 123.834 362.914 124.152C361.784 124.606 360.537 124.682 359.36 124.369C358.183 124.055 357.139 123.369 356.384 122.413C356.272 122.298 356.195 122.154 356.161 121.998C356.126 121.841 356.136 121.678 356.19 121.527C356.243 121.376 356.338 121.243 356.463 121.143C356.588 121.043 356.738 120.98 356.897 120.961Z" fill="white"/>
<path d="M391.008 106.931C395.948 97.2389 404.099 96.9425 406.549 103.058C408.999 109.174 403.891 121.682 394.693 122.591" fill="#DFAB94"/>
<g style="mix-blend-mode:multiply" opacity="0.39">
<path d="M402.021 105.37C403.839 106.427 405.44 110.132 401.31 113.59C399.028 115.612 396.079 116.717 393.03 116.693C393.03 116.693 392.329 111.881 394.957 109.105C397.585 106.329 400.806 104.55 402.021 105.37Z" fill="#FCA695"/>
</g>
<path d="M393.875 110.774C398.163 103.453 402.461 104.679 403.281 106.516" stroke="#B5574B" stroke-miterlimit="10" stroke-linecap="round"/>
<path d="M396.297 107.949C399.587 106.961 399.794 111.298 398.569 112.385" stroke="#B5574B" stroke-miterlimit="10" stroke-linecap="round"/>
<path d="M357.703 148.595C376.999 148.595 390.445 136.739 393.864 128.41" stroke="#B5574B" stroke-miterlimit="10" stroke-linecap="round"/>
<g style="mix-blend-mode:multiply" opacity="0.39">
<path d="M361.409 128.381C362.891 128.381 366.882 125.417 367.337 126.405C367.791 127.393 366.349 129.477 364.916 130.446C363.484 131.414 359.927 128.44 361.409 128.381Z" fill="#FCA695"/>
</g>
<g style="mix-blend-mode:multiply" opacity="0.39">
<path d="M375.118 112.395C377.596 112.395 379.604 110.824 379.604 108.887C379.604 106.95 377.596 105.38 375.118 105.38C372.641 105.38 370.633 106.95 370.633 108.887C370.633 110.824 372.641 112.395 375.118 112.395Z" fill="#FCA695"/>
</g>
<g style="mix-blend-mode:multiply" opacity="0.39">
<path d="M340.293 108.887C340.293 110.863 338.317 112.385 335.798 112.385C333.279 112.385 331.312 110.824 331.312 108.887C331.312 106.951 333.289 105.38 335.798 105.38C338.308 105.38 340.293 106.951 340.293 108.887Z" fill="#FCA695"/>
</g>
<path d="M399.551 99.0963C392.052 101.665 389.078 112.385 389.078 112.385C388.391 105.623 388.561 98.8011 389.582 92.0815C384.761 89.4435 385.087 79.109 385.126 77.7555C385.126 77.7555 364.21 84.5134 351.169 82.6164C338.127 80.7195 335.282 77.3306 335.282 77.3306C335.282 77.3306 329.68 82.2706 325.896 93.2078C325.896 93.2078 324.829 72.0547 335.776 67.7668C335.776 67.7668 329.087 59.1712 344.144 53.1444C362.6 45.7739 403.276 47.4239 405.657 69.3871C411.713 74.3271 413.492 92.7138 403.908 99.8076C403.319 99.2962 402.6 98.9588 401.831 98.8331C401.061 98.7075 400.272 98.7986 399.551 99.0963Z" fill="#5A2402"/>
<path d="M376.989 325.516L357.693 335.416L353.484 363.979L387.58 358.595L376.989 325.516Z" fill="#DFAB94"/>
<path d="M371.409 328.382L361.203 333.608" stroke="#B5574B" stroke-miterlimit="10" stroke-linecap="round"/>
<path d="M391.224 312.857L370.172 320.649L383.965 357.915L405.016 350.124L391.224 312.857Z" fill="#003795"/>
<path d="M225.201 189.105L212.867 170.35L177.42 193.661L189.754 212.416L225.201 189.105Z" fill="#003795"/>
<path d="M319.942 172.356C310.99 180.023 312.038 275.494 312.038 275.494" stroke="#004CCD" stroke-miterlimit="10" stroke-linecap="round"/>
<path d="M245.021 235.361C245.318 226.942 244.264 218.53 241.898 210.444" stroke="#0B52CA" stroke-miterlimit="10" stroke-linecap="round"/>
<path d="M241.663 213.082C240.941 219.375 237.227 226.716 237.227 226.716" stroke="#0B52CA" stroke-miterlimit="10" stroke-linecap="round"/>
<path d="M286.703 251.308L312.016 228.109" stroke="#004CCD" stroke-miterlimit="10" stroke-linecap="round"/>
<path d="M357.695 354.02V386.091H369.7V361.44" stroke="#AF7E62" stroke-miterlimit="10" stroke-linecap="round"/>
<path d="M357.695 386.091L331.562 528.471" stroke="#AF7E62" stroke-miterlimit="10" stroke-linecap="round"/>
<path d="M480.527 367.487H208.758V382.415H480.527V367.487Z" fill="#FC5546"/>
<path d="M236.165 382.425H222.797V506.814H236.165V382.425Z" fill="#FC5546"/>
<path d="M464.086 382.425H450.719V506.814H464.086V382.425Z" fill="#FC5546"/>
<path d="M392.702 356.865H259.895C258.296 356.865 257 358.162 257 359.76V365.254C257 366.852 258.296 368.148 259.895 368.148H392.702C394.301 368.148 395.597 366.852 395.597 365.254V359.76C395.597 358.162 394.301 356.865 392.702 356.865Z" fill="#7392BF"/>
<path d="M366.282 362.892H238.563L223.22 293.801C222.897 292.345 222.906 290.834 223.245 289.381C223.585 287.929 224.245 286.57 225.179 285.407C226.113 284.244 227.297 283.305 228.642 282.659C229.987 282.014 231.46 281.679 232.952 281.679H338.104C340.978 281.679 343.765 282.657 346.008 284.453C348.251 286.249 349.816 288.755 350.445 291.559L366.282 362.892Z" fill="#7392BF"/>
<path d="M361.204 362.892H233.485L218.142 293.801C217.819 292.345 217.828 290.834 218.167 289.381C218.506 287.929 219.167 286.57 220.101 285.407C221.035 284.244 222.218 283.305 223.564 282.659C224.909 282.014 226.382 281.679 227.874 281.679H333.026C335.9 281.679 338.687 282.657 340.93 284.453C343.173 286.249 344.738 288.755 345.366 291.559L361.204 362.892Z" fill="#87A1CF"/>
<path d="M363.381 356.865H230.575C228.976 356.865 227.68 358.162 227.68 359.76V365.254C227.68 366.852 228.976 368.148 230.575 368.148H363.381C364.98 368.148 366.276 366.852 366.276 365.254V359.76C366.276 358.162 364.98 356.865 363.381 356.865Z" fill="#87A1CF"/>
<path d="M231.273 356.865H331.565" stroke="#B1C6E5" stroke-miterlimit="10" stroke-linecap="round"/>
<path d="M289.485 320.181C290.68 326.811 288.329 332.788 284.218 333.539C280.108 334.29 275.801 329.508 274.595 322.878C273.39 316.249 275.761 310.271 279.871 309.53C283.981 308.789 288.23 313.552 289.485 320.181Z" fill="white"/>
<path d="M208.758 382.425H480.517" stroke="#84261F" stroke-miterlimit="10" stroke-linecap="round"/>
</g>
</svg>
