<svg width="518" height="373" viewBox="0 0 518 373" fill="none" xmlns="http://www.w3.org/2000/svg">
<g clip-path="url(#clip0_1042_935)">
<path fill-rule="evenodd" clip-rule="evenodd" d="M299.149 71.8185L297.987 63.6835L296.848 55.5719L303.937 53.0617C304.355 49.459 305.261 45.9726 306.61 42.6954L301.589 37.0707L306.493 30.5163L311.421 23.9619L318.231 27.1926C320.997 24.9845 324.088 23.1484 327.435 21.7306L327.877 14.2232L335.988 13.0611L344.1 11.8989L346.61 19.0112C350.213 19.4063 353.699 20.3128 356.976 21.6608L362.601 16.6404L369.155 21.5679L375.71 26.4721L372.479 33.2822C374.687 36.048 376.547 39.1393 377.941 42.5095L385.449 42.9279L386.611 51.0395L387.773 59.1512L380.661 61.6614C380.265 65.2873 379.359 68.7737 378.011 72.0509L383.031 77.6756L378.104 84.23L373.2 90.7845L366.39 87.5305C363.624 89.7386 360.533 91.598 357.162 92.9925L356.744 100.523L348.632 101.685L340.521 102.847L338.01 95.7352C334.385 95.34 330.898 94.4103 327.621 93.0622L321.996 98.0827L315.442 93.1785L308.887 88.251L312.141 81.4409C309.933 78.675 308.074 75.5838 306.679 72.2368L299.149 71.8185ZM313.884 61.429C316.116 77.141 330.666 88.0418 346.354 85.8105C362.067 83.556 372.967 69.0061 370.736 53.3173C368.481 37.6285 353.932 26.7045 338.243 28.959C322.531 31.1903 311.63 45.7402 313.884 61.429Z" fill="url(#paint0_linear_1042_935)"/>
<path fill-rule="evenodd" clip-rule="evenodd" d="M379.985 22.6372L379.567 19.5924L379.125 16.5476L381.798 15.6179C381.937 14.2698 382.286 12.9682 382.774 11.7364L380.915 9.62128L382.751 7.1808L384.587 4.71708L387.144 5.9257C388.166 5.11221 389.329 4.41493 390.584 3.88035L390.746 1.06798L393.791 0.626376L396.813 0.208008L397.766 2.85767C399.114 3.02037 400.415 3.34576 401.647 3.8571L403.762 1.97445L406.203 3.81062L408.666 5.67003L407.458 8.20348C408.271 9.2494 408.969 10.4115 409.503 11.6666L412.316 11.8293L413.175 17.8957L410.526 18.8486C410.363 20.1967 410.038 21.4983 409.526 22.7301L411.409 24.822L409.573 27.2857L407.713 29.7494L405.18 28.5175C404.134 29.3543 402.972 30.0516 401.717 30.5629L401.554 33.3985L398.533 33.8169L395.488 34.2585L394.535 31.5856C393.187 31.4461 391.885 31.0975 390.653 30.5861L388.561 32.4688L386.098 30.6326L383.634 28.7965L384.866 26.2398C384.029 25.2171 383.332 24.055 382.821 22.7999L379.985 22.6372ZM385.493 18.7556C386.33 24.636 391.769 28.7035 397.649 27.8668C403.53 27.03 407.62 21.5912 406.784 15.7109C405.947 9.83047 400.508 5.73976 394.628 6.57649C388.747 7.41323 384.657 12.8752 385.493 18.7556Z" fill="url(#paint1_linear_1042_935)"/>
<path d="M245.69 305.546H244.133V142.825H245.69V305.546Z" fill="#F3F3F3"/>
<path d="M261.637 127.02H244.902V122.767H261.637V127.02Z" fill="white"/>
<path d="M258.29 134.853H244.902V130.623H258.29V134.853Z" fill="white"/>
<path d="M263.236 320.864H245.688V315.192H263.236V320.864Z" fill="white"/>
<path d="M309.332 86.0894C309.332 86.0894 343.266 126.322 321.743 152.377C300.197 178.432 294.271 152.889 294.271 152.889C294.271 152.889 281.394 155.283 303.707 122.697C314.236 107.333 309.332 86.0894 309.332 86.0894Z" fill="url(#paint2_linear_1042_935)"/>
<path d="M383.701 54.6885C383.701 54.6885 408.92 91.9 365.014 134.76C321.132 177.642 324.386 203.209 324.386 203.209C324.386 203.209 279.504 115.352 383.701 54.6885Z" fill="url(#paint3_linear_1042_935)"/>
<path d="M316.202 187.033C297.794 188.683 319.154 138.897 347.928 125.904C376.703 112.889 401.061 114.004 417.865 100.291C417.865 100.291 406.895 178.851 316.202 187.033Z" fill="url(#paint4_linear_1042_935)"/>
<path d="M91.5651 305.546H90.0078V142.825H91.5651V305.546Z" fill="url(#paint5_linear_1042_935)"/>
<path d="M201.854 305.546H200.297V142.825H201.854V305.546Z" fill="#F3F3F3"/>
<path d="M312.143 305.546H310.586V142.825H312.143V305.546Z" fill="#F3F3F3"/>
<path d="M117.204 127.02H90.7773V122.767H117.204V127.02Z" fill="#E0E0E0"/>
<path d="M128.244 134.853H90.7773V130.623H128.244V134.853Z" fill="#E0E0E0"/>
<path d="M230.908 127.02H199.879V122.767H230.908V127.02Z" fill="white"/>
<path d="M219.705 134.853H199.879V130.623H219.705V134.853Z" fill="white"/>
<path d="M331.362 127.02H312.141V122.767H331.362V127.02Z" fill="white"/>
<path d="M334.523 134.853H312.141V130.623H334.523V134.853Z" fill="white"/>
<path d="M218.611 320.864H201.062V315.192H218.611V320.864Z" fill="white"/>
<path d="M329.689 320.864H312.141V315.192H329.689V320.864Z" fill="white"/>
<path d="M518 183.453V193.169C509.842 186.661 501.8 181.733 493.851 178.224C442.229 155.399 394.047 191.611 336.777 235.401C332.571 238.608 328.503 241.374 324.552 243.745C310.792 251.996 298.497 255.366 287.224 255.366C276.44 255.366 266.608 252.275 257.334 247.44C244.806 240.909 233.324 231.17 221.982 221.571C207.037 208.904 191.534 195.935 173.637 189.543C118.994 170.042 91.033 205.65 90.7773 205.975V195.144C91.0795 194.772 96.0534 188.288 110.487 182.105C123.619 176.48 145.653 171.995 176.055 182.57C195.3 189.264 211.29 202.814 226.77 215.946C243.458 230.101 258.938 243.21 276.881 246.975C284.923 248.672 293.476 248.463 302.82 245.627C311.792 242.908 321.53 237.771 332.292 229.52C367.923 202.28 401.508 176.294 434.583 166.811C455.85 160.699 477.698 161.559 499.151 171.832C505.473 174.853 511.771 178.712 518 183.453Z" fill="url(#paint6_linear_1042_935)"/>
<path d="M32.2057 203.372H26.9062V226.243H32.2057V203.372Z" fill="#E0E0E0"/>
<path d="M45.3618 194.075H40.0625V226.243H45.3618V194.075Z" fill="#E0E0E0"/>
<path d="M58.5103 189.217H53.2109V226.243H58.5103V189.217Z" fill="#E0E0E0"/>
<path d="M71.6704 187.195H66.3711V226.243H71.6704V187.195Z" fill="#E0E0E0"/>
<path d="M32.2057 211.879H26.9062V226.243H32.2057V211.879Z" fill="url(#paint7_linear_1042_935)"/>
<path d="M45.3618 206.045H40.0625V226.243H45.3618V206.045Z" fill="url(#paint8_linear_1042_935)"/>
<path d="M58.5103 203.023H53.2109V226.242H58.5103V203.023Z" fill="url(#paint9_linear_1042_935)"/>
<path d="M71.6704 201.745H66.3711V226.243H71.6704V201.745Z" fill="url(#paint10_linear_1042_935)"/>
<path d="M168.434 329.185H334.317C342.033 329.185 348.262 322.956 348.262 315.262V86.7639C348.262 79.0706 342.033 72.8184 334.317 72.8184H168.434C160.741 72.8184 154.488 79.0706 154.488 86.7639V315.262C154.488 322.956 160.741 329.185 168.434 329.185Z" fill="url(#paint11_linear_1042_935)"/>
<path d="M336.802 44.625H175.312C170.152 44.625 165.945 48.8087 165.945 53.9685V318.354H336.802V44.625Z" fill="#F5F5F5"/>
<path d="M320.878 102.243H270.488V95.875H320.878V102.243Z" fill="url(#paint12_linear_1042_935)"/>
<path d="M316.741 128.949H270.488V122.581H316.741V128.949Z" fill="url(#paint13_linear_1042_935)"/>
<path d="M310.512 115.584H270.488V109.216H310.512V115.584Z" fill="url(#paint14_linear_1042_935)"/>
<path fill-rule="evenodd" clip-rule="evenodd" d="M216.449 136.712C210.731 136.712 205.222 135.527 200.063 133.179C185.908 126.764 176.773 112.563 176.773 97.037C176.773 75.1656 194.577 57.3618 216.449 57.3618C238.32 57.3618 256.124 75.1656 256.124 97.037C256.124 112.563 246.989 126.764 232.858 133.179C227.698 135.527 222.166 136.712 216.449 136.712ZM216.449 59.4536C195.739 59.4536 178.865 76.3278 178.865 97.037C178.865 111.749 187.535 125.184 200.923 131.273C205.804 133.504 211.033 134.62 216.449 134.62C221.864 134.62 227.094 133.504 231.975 131.273C245.386 125.184 254.032 111.749 254.032 97.037C254.032 76.3278 237.181 59.4536 216.449 59.4536Z" fill="url(#paint15_linear_1042_935)"/>
<path d="M234.648 158.374H176.773V152.703H234.648V158.374Z" fill="#E0E0E0"/>
<path d="M234.648 173.668H176.773V167.973H234.648V173.668Z" fill="#E0E0E0"/>
<path d="M234.648 188.938H176.773V183.267H234.648V188.938Z" fill="#E0E0E0"/>
<path d="M256.126 158.374H246.48V152.703H256.126V158.374Z" fill="#4E7ED6"/>
<path d="M256.126 173.668H246.48V167.973H256.126V173.668Z" fill="#4E7ED6"/>
<path d="M256.126 188.938H246.48V183.267H256.126V188.938Z" fill="#4E7ED6"/>
<path d="M518 247.091V254.97C509.703 256.667 501.986 257.202 493.712 257.202C461.079 257.202 432.467 243.814 402.996 229.194C401.415 228.419 399.827 227.629 398.231 226.823C359.764 207.695 319.95 187.892 266.933 193.331C233.069 196.794 211.825 210.577 193.068 222.733C176.101 233.75 160.04 243.442 138.309 244.255C103.189 245.604 90.9865 230.612 90.7773 229.706V220.083C90.8238 220.246 98.4242 236.888 137.588 236.888H138.262C157.856 236.771 172.313 227.405 189.047 216.527C208.501 203.906 230.559 189.612 266.19 185.963C321.321 180.338 362.089 200.606 401.531 220.223C405.46 222.175 409.388 224.127 413.316 226.033C446.506 242.187 479.232 255.319 518 247.091Z" fill="url(#paint16_radial_1042_935)"/>
<path d="M368.176 322.56H287.292C277.693 322.56 269.906 314.797 269.906 305.198V164.348C269.906 154.748 277.693 146.962 287.292 146.962H368.176C377.775 146.962 385.562 154.748 385.562 164.348V305.198C385.562 314.797 377.775 322.56 368.176 322.56Z" fill="#F5F5F5"/>
<path fill-rule="evenodd" clip-rule="evenodd" d="M360.603 197.282C352.956 200.025 344.751 197.561 339.801 191.727C338.615 190.333 337.616 188.752 336.849 187.009C336.694 186.622 336.539 186.234 336.384 185.847C334.943 181.803 334.966 177.619 336.152 173.831C337.871 168.345 342.032 163.72 347.843 161.628C349.772 160.954 351.724 160.606 353.653 160.536C361.625 160.303 369.203 165.161 372.038 173.087C375.571 182.942 370.434 193.773 360.603 197.282ZM367.576 174.691C365.461 168.74 359.766 165.091 353.793 165.277C352.352 165.324 350.887 165.579 349.446 166.091C345.077 167.648 341.962 171.134 340.661 175.225C339.777 178.084 339.777 181.222 340.847 184.243C340.955 184.538 341.071 184.832 341.195 185.127C341.776 186.428 342.52 187.613 343.403 188.659C347.122 193.029 353.281 194.865 358.999 192.82C366.367 190.193 370.225 182.059 367.576 174.691Z" fill="#E0E0E0"/>
<path d="M340.661 175.225L336.152 173.83C337.872 168.345 342.033 163.72 347.843 161.628C349.773 160.954 351.725 160.605 353.654 160.536L353.794 165.277C352.352 165.324 350.888 165.579 349.447 166.091C345.078 167.648 341.963 171.134 340.661 175.225Z" fill="#537FFD"/>
<path d="M341.195 185.126L336.849 187.009C336.694 186.622 336.539 186.234 336.384 185.847C334.943 181.803 334.966 177.619 336.152 173.831L340.661 175.225C339.777 178.084 339.777 181.222 340.847 184.243C340.955 184.538 341.071 184.832 341.195 185.126Z" fill="#4BA6F3"/>
<path d="M339.803 191.727C338.618 190.333 337.619 188.752 336.852 187.009L341.198 185.126C341.779 186.428 342.523 187.613 343.406 188.659L339.803 191.727Z" fill="#46BBED"/>
<path d="M354.043 282.932H343.84V316.378H354.043V282.932Z" fill="#46BBED"/>
<path d="M338.871 292.321H328.668V316.377H338.871V292.321Z" fill="#46BBED"/>
<path d="M368.762 267.429H358.559V316.378H368.762V267.429Z" fill="#46BBED"/>
<path d="M285.364 279.468L284.48 278.794L301.099 257.155L321.622 258.271L337.102 233.634L353.767 231.914L363.784 212.111L364.784 212.599L354.487 232.96L337.753 234.68L322.227 259.433L301.634 258.317L285.364 279.468Z" fill="#46BBED"/>
<path d="M316.811 171.901H287.804C285.968 171.901 284.48 170.414 284.48 168.578C284.48 166.742 285.968 165.277 287.804 165.277H316.811C318.647 165.277 320.135 166.742 320.135 168.578C320.135 170.414 318.647 171.901 316.811 171.901Z" fill="#4E7ED6"/>
<path d="M316.811 183.476H287.804C285.968 183.476 284.48 181.988 284.48 180.152C284.48 178.316 285.968 176.829 287.804 176.829H316.811C318.647 176.829 320.135 178.316 320.135 180.152C320.135 181.988 318.647 183.476 316.811 183.476Z" fill="#E0E0E0"/>
<path d="M316.811 195.051H287.804C285.968 195.051 284.48 193.564 284.48 191.728C284.48 189.891 285.968 188.404 287.804 188.404H316.811C318.647 188.404 320.135 189.891 320.135 191.728C320.135 193.564 318.647 195.051 316.811 195.051Z" fill="#E0E0E0"/>
<path d="M50.845 264.616H62.536L58.9567 257.202H47.2656L50.845 264.616Z" fill="url(#paint17_linear_1042_935)"/>
<path d="M45.3841 264.616H48.1732L44.5938 257.202H41.8047L45.3841 264.616Z" fill="url(#paint18_linear_1042_935)"/>
<path d="M249.133 26.1699H272.259V21.9629H249.133V26.1699Z" fill="url(#paint19_linear_1042_935)"/>
<path d="M249.133 20.801H272.259V20.0107H249.133V20.801Z" fill="url(#paint20_linear_1042_935)"/>
<path d="M221.632 118.792H211.289V75.3047H221.632V118.792Z" fill="url(#paint21_linear_1042_935)"/>
<path d="M194.719 102.22V91.877H238.206V102.22H194.719Z" fill="url(#paint22_linear_1042_935)"/>
<path fill-rule="evenodd" clip-rule="evenodd" d="M76.8516 149.426C72.3425 158.979 62.4876 164.278 52.563 163.488C50.1923 163.279 47.8215 162.744 45.5205 161.838C45.0092 161.636 44.4978 161.419 43.9865 161.187C38.9428 158.793 35.0846 154.911 32.6906 150.333C29.2274 143.709 28.8091 135.597 32.249 128.322C33.3879 125.928 34.8521 123.79 36.5721 121.953C43.7076 114.376 55.1895 111.889 65.0908 116.584C77.4094 122.418 82.6623 137.108 76.8516 149.426ZM62.4644 122.163C55.0268 118.653 46.427 120.512 41.0812 126.184C39.7796 127.578 38.6872 129.159 37.8272 130.972C35.2473 136.434 35.5727 142.5 38.1526 147.474C39.9655 150.914 42.8476 153.819 46.6362 155.609C47.008 155.779 47.3877 155.942 47.775 156.097C49.495 156.771 51.2847 157.189 53.0511 157.329C60.512 157.933 67.8799 153.935 71.2734 146.8C75.643 137.549 71.6917 126.532 62.4644 122.163Z" fill="#E0E0E0"/>
<path d="M38.1526 147.474L32.6906 150.333C29.2274 143.708 28.8091 135.597 32.249 128.322C33.3879 125.928 34.8521 123.79 36.5721 121.953L41.0812 126.184C39.7796 127.578 38.6872 129.159 37.8272 130.972C35.2473 136.434 35.5727 142.5 38.1526 147.474Z" fill="#2D5BAD"/>
<path d="M47.772 156.096L45.5174 161.837C45.0061 161.636 44.4948 161.419 43.9834 161.186C38.9398 158.792 35.0815 154.911 32.6875 150.332L38.1495 147.473C39.9624 150.913 42.8445 153.818 46.6331 155.608C47.005 155.779 47.3846 155.941 47.772 156.096Z" fill="#5D96FF"/>
<path d="M52.5699 163.488C50.1991 163.279 47.8284 162.744 45.5273 161.838L47.7819 156.097C49.5018 156.771 51.2915 157.189 53.058 157.329L52.5699 163.488Z" fill="#5D96FF"/>
<path d="M46.9693 179.734H0.902344V178.828H46.0628V159.304H46.9693V179.734Z" fill="#5D96FF"/>
<path d="M25.1444 174.784H0.902344V169.299H25.1444V174.784Z" fill="#E0E0E0"/>
<path d="M173.727 259.434H136.074V261.665H173.727V259.434Z" fill="#E2D2CA"/>
<path d="M141.121 369.139H144.422V267.476H141.121V369.139Z" fill="#706865"/>
<path d="M194.023 258.783H167.828V261.99H194.023V258.783Z" fill="#CCBDB7"/>
<path d="M185.886 261.665H175.961V231.542H185.886V261.665Z" fill="#998E89"/>
<path d="M267.581 267.476H122.57V261.688H267.581V267.476Z" fill="#B59074"/>
<path d="M94.7258 226.708C94.7258 226.708 93.1453 248.951 97.4916 251.624C100.211 253.274 111.065 258.899 110.74 259.968C110.415 261.014 104.627 269.358 104.627 269.358C104.627 269.358 83.7785 255.622 83.1044 251.299C82.4304 247.068 84.1271 218.712 86.986 217.411C89.1243 216.435 90.2632 217.248 92.9826 219.247C96.7711 222.083 94.7258 226.708 94.7258 226.708Z" fill="#F5F5F5"/>
<path d="M120.382 355.24C120.382 355.24 119.731 359.749 119.661 360.423C119.568 361.097 112.433 360.028 112.433 360.028L111.852 354.659C111.852 354.659 119.498 354.612 120.382 355.24Z" fill="#424773"/>
<path d="M119.733 359.866C119.733 359.866 121.987 362.562 124.172 363.747C126.357 364.933 129.797 365.397 131.098 366.629C132.028 367.513 134.492 371.301 125.404 371.231C116.339 371.162 111.947 371.766 110.994 370.302C110.017 368.861 112.388 359.54 112.388 359.54C112.388 359.54 114.55 360.331 119.733 359.866Z" fill="#292C47"/>
<path d="M166.081 355.286C166.081 355.286 165.43 359.796 165.36 360.47C165.267 361.144 158.132 360.074 158.132 360.074L157.551 354.705C157.551 354.705 165.198 354.659 166.081 355.286Z" fill="#424773"/>
<path d="M165.43 359.888C165.43 359.888 167.684 362.607 169.869 363.793C172.054 364.978 180.096 365.954 181.397 367.163C182.327 368.046 183.884 371.602 171.101 371.277C162.036 371.044 157.643 371.811 156.667 370.347C155.714 368.883 158.085 359.586 158.085 359.586C158.085 359.586 160.107 360.422 165.43 359.888Z" fill="#292C47"/>
<path d="M97.3729 277.516C97.3729 277.516 123.312 281.886 129.169 282.816C135.026 283.745 166.775 291.648 170.75 294.042C173.911 295.971 169.076 341.991 167.961 359.54H155.456L154.55 306.872C139.535 307.244 128.82 303.362 117.896 305.012C106.972 306.686 97.861 309.033 90.9114 299.736C90.9114 299.736 90.6558 279.538 97.3729 277.516Z" fill="#292C47"/>
<path d="M122.947 359.586L110.744 358.842L109.559 306.872C103.097 307.035 100.889 306.616 95.6598 305.989L85.8281 283.118C94.4511 284.838 122.087 291.811 125.759 294.042C128.92 295.971 124.062 342.038 122.947 359.586Z" fill="#292C47"/>
<path d="M109.317 180.316C109.317 180.316 118.823 177.69 122.449 185.081C126.075 192.449 124.424 206.441 119.636 207.743C114.848 209.067 107.968 207.557 105.97 202.955C103.971 198.376 102.39 191.845 102.878 187.615C103.343 183.384 106.783 181.339 109.317 180.316Z" fill="#EEA886"/>
<path d="M117.143 206.278C117.143 206.278 117.05 211.902 117.655 213.088C118.282 214.296 104.43 213.994 104.43 213.994C104.43 213.994 106.614 207.254 105.359 201.513C104.151 195.819 117.143 206.278 117.143 206.278Z" fill="#EEA886"/>
<path d="M104.64 199.375C104.64 199.375 105.384 200.886 108.986 200.654C112.566 200.398 117.284 196.075 118.818 195.68C120.329 195.308 120.422 194.425 120.422 194.425L121.235 195.866L122.793 196.098C122.793 196.098 121.723 191.775 124.048 190.241C126.349 188.707 123.002 176.412 111.311 179.387C111.311 179.387 102.385 181.014 102.269 186.011C102.153 190.985 102.92 196.749 104.64 199.375Z" fill="#3A3F47"/>
<path d="M118.408 212.948C118.408 212.948 118.361 210.671 117.315 210.438C116.293 210.229 106.438 208.858 105.16 209.369L104.625 212.391C104.625 212.391 107.065 213.901 118.408 212.948Z" fill="#E2D2CA"/>
<path d="M121.24 193.401C120.984 191.542 118.846 189.38 117.637 192.309C116.405 195.214 118.451 199.467 119.822 199.235C121.193 199.026 121.612 195.958 121.24 193.401Z" fill="#EEA886"/>
<path d="M159.664 239.957C159.725 239.987 159.725 239.987 159.664 239.957Z" fill="#323657"/>
<path d="M106.553 181.664C106.553 181.664 94.9545 181.106 104.531 199.212L106.553 181.664Z" fill="#3A3F47"/>
<path d="M80.7305 365.746L81.5904 368.186L118.012 356.89L116.268 351.986L80.7305 365.746Z" fill="#918783"/>
<path d="M119.27 355.17H115.133V315.564H119.27V355.17Z" fill="#918783"/>
<path d="M129.405 315.797H104.977V313.449H129.405V315.797Z" fill="#5E5854"/>
<path d="M153.973 365.746L153.113 368.186L116.691 356.89L118.295 351.684L153.973 365.746Z" fill="#918783"/>
<path d="M128.313 367.931V370.743L116.691 356.89L118.295 351.684L128.313 367.931Z" fill="#918783"/>
<path d="M157.392 369.139C157.392 370.999 155.858 372.533 153.975 372.533C152.093 372.533 150.582 370.999 150.582 369.139C150.582 367.257 152.093 365.723 153.975 365.723C155.858 365.723 157.392 367.257 157.392 369.139Z" fill="#BFB2AC"/>
<path d="M128.615 369.139C128.615 370.999 127.081 372.533 125.198 372.533C123.315 372.533 121.805 370.999 121.805 369.139C121.805 367.257 123.315 365.723 125.198 365.723C127.081 365.723 128.615 367.257 128.615 369.139Z" fill="#BFB2AC"/>
<path d="M84.1265 369.139C84.1265 370.999 82.6157 372.533 80.7331 372.533C78.8504 372.533 77.3164 370.999 77.3164 369.139C77.3164 367.257 78.8504 365.723 80.7331 365.723C82.6157 365.723 84.1265 367.257 84.1265 369.139Z" fill="#BFB2AC"/>
<path d="M142.302 313.449H92.4003C90.2155 313.449 88.4258 311.683 88.4258 309.475V308.615C88.4258 306.407 90.2155 304.617 92.4003 304.617H142.302C144.487 304.617 146.277 306.407 146.277 308.615V309.475C146.277 311.683 144.487 313.449 142.302 313.449Z" fill="#E2D2CA"/>
<path d="M249.027 369.139H245.727V267.476H249.027V369.139Z" fill="#706865"/>
<path d="M219.749 246.046H142.096C139.911 246.046 138.121 244.279 138.121 242.071V189.659C138.121 187.451 139.911 185.685 142.096 185.685H219.749C221.934 185.685 223.724 187.451 223.724 189.659V242.071C223.724 244.279 221.934 246.046 219.749 246.046Z" fill="#B8ABA5"/>
<path d="M220.354 236.586H141.492V188.939H220.354V236.586Z" fill="#F5F7FF"/>
<path d="M216.865 241.095C216.865 242.443 215.424 243.536 213.68 243.536C211.914 243.536 210.496 242.443 210.496 241.095C210.496 239.724 211.914 238.631 213.68 238.631C215.424 238.631 216.865 239.724 216.865 241.095Z" fill="#918681"/>
<path d="M198.642 261.781V260.689C198.642 260.689 197.132 254.018 186.44 254.018C175.748 254.018 175.981 261.781 175.981 261.781H198.642Z" fill="#998E89"/>
<path d="M175.846 255.018C175.846 255.018 178.17 254.832 179.03 254.321C179.867 253.809 184.957 250.369 186.142 250.927C187.351 251.485 195.3 253.902 195.021 255.064C194.742 256.25 194.021 256.134 193.463 255.924C192.882 255.715 187.118 254.507 186.607 254.716C186.607 254.716 192.278 256.784 192.301 258.295C192.325 259.806 191.116 260.155 190.581 260.736C190.047 261.317 189.396 262.734 187.932 262.827C186.467 262.944 179.332 260.457 177.868 260.34C176.403 260.224 173.684 260.433 173.498 260.201C173.312 259.969 175.846 255.018 175.846 255.018Z" fill="#EEA886"/>
<path d="M133.602 216.109C126.211 214.807 118.425 212.948 118.425 212.948L104.642 212.39C104.642 212.39 91.9748 215.156 87.0008 217.41C86.536 217.619 86.536 228.706 85.2344 231.612L89.3716 240.328C89.3716 240.328 91.7423 257.574 92.2304 265.244C92.4628 268.777 91.6029 299.317 91.6029 299.317C91.6029 299.317 92.8347 299.922 102.248 300.968C111.661 301.99 135.16 300.596 135.299 299.48C135.438 298.364 130.743 258.108 130.534 256.016C130.232 252.809 131.464 238.027 131.464 238.027C133.23 240.421 137.763 251.159 142.458 256.272C145.247 259.294 158.96 261.13 161.54 261.223C167.165 261.409 177.438 262.524 177.74 261.99C177.973 261.664 178.623 252.879 177.996 252.646C177.415 252.46 158.356 251.368 153.475 248.788C151.685 247.835 146.339 236.19 146.339 236.19C146.339 236.19 137.693 217.945 133.602 216.109Z" fill="#DBDFF0"/>
<path d="M107.159 298.435H82.5687C78.3385 298.435 74.9219 294.995 74.9219 290.788V250.834C74.9219 246.604 78.3385 243.187 82.5687 243.187H107.159C111.39 243.187 114.806 246.604 114.806 250.834V290.788C114.806 294.995 111.39 298.435 107.159 298.435Z" fill="#E2D2CA"/>
<path d="M107.74 311.264C101.86 311.264 97.0951 309.289 93.5623 305.384C85.59 296.575 87.0078 281.095 87.0776 280.445C87.1938 279.236 88.2862 278.33 89.518 278.469C90.7266 278.585 91.6099 279.678 91.4937 280.886C91.4704 281.072 90.2153 295.088 96.8627 302.409C99.5356 305.384 103.092 306.825 107.74 306.825C108.972 306.825 109.948 307.824 109.948 309.033C109.948 310.265 108.972 311.264 107.74 311.264Z" fill="#E2D2CA"/>
<path d="M169.62 195.261H147.655C147.33 195.261 147.074 195.005 147.074 194.68V193.309C147.074 192.983 147.33 192.751 147.655 192.751H169.62C169.922 192.751 170.177 192.983 170.177 193.309V194.68C170.177 195.005 169.922 195.261 169.62 195.261Z" fill="#DFE1E8"/>
<path d="M169.62 200.653H147.655C147.33 200.653 147.074 200.397 147.074 200.095V198.701C147.074 198.398 147.33 198.143 147.655 198.143H169.62C169.922 198.143 170.177 198.398 170.177 198.701V200.095C170.177 200.397 169.922 200.653 169.62 200.653Z" fill="#DFE1E8"/>
<path d="M168.271 232.798H149.003C147.934 232.798 147.074 231.938 147.074 230.892V206.255C147.074 205.185 147.934 204.325 149.003 204.325H168.271C169.317 204.325 170.177 205.185 170.177 206.255V230.892C170.177 231.938 169.317 232.798 168.271 232.798Z" fill="#DFE1E8"/>
<path d="M212.97 232.798H177.873C176.2 232.798 174.852 231.45 174.852 229.776V195.773C174.852 194.099 176.2 192.751 177.873 192.751H212.97C214.643 192.751 215.991 194.099 215.991 195.773V229.776C215.991 231.45 214.643 232.798 212.97 232.798Z" fill="#DFE1E8"/>
<path d="M317.078 216.643C317.078 216.643 318.612 213.32 318.868 212.832C319.123 212.32 320.588 211.53 322.331 211.089C324.028 210.67 326.329 209.81 326.584 209.973C326.84 210.136 327.165 210.159 327.468 210.879C327.793 211.623 327.654 212.413 327.654 212.413C327.654 212.413 328.467 213.134 328.211 214.087C328.211 214.087 328.955 214.807 328.49 215.853C328.49 215.853 329.188 216.574 328.792 217.294C328.792 217.294 327.421 218.061 327.003 218.503C326.584 218.921 323.656 220.339 320.634 221.269C320.634 221.269 317.473 221.153 317.078 216.643Z" fill="#8E4F3A"/>
<path d="M320.633 221.268C320.633 221.268 316.867 221.919 315.612 221.175C314.334 220.455 315.822 216.62 315.822 216.62L318.192 215.202L320.633 221.268Z" fill="#8E4F3A"/>
<path d="M322.028 215.04C322.028 215.04 321.958 216.876 321.679 217.364C321.4 217.875 325.142 218.666 325.142 218.666C325.142 218.666 324.259 215.156 322.028 215.04Z" fill="#5E3527"/>
<path d="M326.116 210.135C326.116 210.135 322.025 212.111 322.258 212.832C322.49 213.529 323.002 213.622 323.002 213.622L321.7 215.226C321.7 215.226 321.421 216.76 323.164 216.62C323.164 216.62 322.769 218.015 324.443 217.689C324.443 217.689 324.582 218.735 325.396 218.712C326.209 218.689 328.789 217.294 328.789 217.294C328.789 217.294 329.254 216.736 328.533 215.83C328.533 215.83 329.045 214.854 328.278 214.063C328.278 214.063 328.51 212.808 327.673 211.972C327.673 211.972 327.766 210.554 326.558 209.949C326.558 209.949 326.279 210.042 326.116 210.135Z" fill="#7A4432"/>
<path d="M318.976 212.739C318.976 212.739 322.113 212.809 323.81 213.599C324.182 213.785 324.531 214.017 324.507 214.436C324.484 214.854 323.833 215.365 322.485 215.412C321.137 215.458 319.394 216.109 319.394 216.109C319.394 216.109 318 215.761 318.976 212.739Z" fill="#8E4F3A"/>
<path d="M327.668 211.972C327.668 211.972 322.996 213.552 322.671 213.947C322.345 214.343 321.741 212.623 322.043 212.321C322.345 211.995 325.971 210.066 326.39 209.95C326.785 209.857 328.156 210.786 327.668 211.972Z" fill="#8E4F3A"/>
<path d="M325.506 210.159C325.506 210.159 332.804 208.648 332.943 209.555C333.106 210.438 332.386 210.577 326.412 212.32C320.625 214.017 325.506 210.159 325.506 210.159Z" fill="#8E4F3A"/>
<path d="M275.441 359.586C275.441 359.586 277.765 363.072 281.019 363.816C284.273 364.56 287.481 365.768 287.504 367.814C287.527 369.859 278.091 371.091 274.372 369.022C268.794 365.931 268.236 366.861 267.632 365.327C267.004 363.769 268.352 359.632 268.329 359.144C268.282 358.54 275.441 359.586 275.441 359.586Z" fill="#353A3D"/>
<path d="M275.093 357.866C275.093 357.866 275.512 359.563 275.442 359.586C275.372 359.632 268.097 360.492 268.33 359.144C268.492 358.052 268.748 356.866 268.748 356.866L275.093 357.866Z" fill="#81807E"/>
<path d="M250.945 359.353C250.945 359.353 252.618 362.677 255.431 363.816C258.476 365.025 260.893 366.419 260.846 368.418C260.777 370.417 253.432 372.439 248.109 368.604C244.739 366.187 243.67 366.164 243.112 364.63C242.578 363.119 244.065 359.144 244.042 358.656C244.019 358.052 250.945 359.353 250.945 359.353Z" fill="#353A3D"/>
<path d="M251.039 357.633C251.039 357.633 251.015 359.33 250.946 359.353C250.899 359.4 243.857 359.981 244.043 358.656C244.182 357.61 244.717 356.332 244.717 356.332L251.039 357.633Z" fill="#81807E"/>
<path d="M276.815 256.109C276.815 256.109 283.369 284.93 284.857 293.716C286.112 301.2 287.135 308.963 286.53 314.355C285.763 321.049 276.327 355.658 276.722 357.61C277.117 359.562 265.449 358.377 265.449 358.377C265.449 358.377 274.003 319.329 272.585 312.124C271.516 306.802 262.195 271.45 260.754 273.263C259.336 275.075 257.57 306.639 256.501 311.869C255.455 317.121 252.201 358.493 252.201 358.493C252.201 358.493 244.949 359.562 242.997 357.935C242.997 357.935 242.114 322.583 242.788 312.775C243.043 309.033 238.395 267.893 244.368 251.345C247.506 242.582 276.815 256.109 276.815 256.109Z" fill="#2D3133"/>
<path d="M319.488 222.687C319.488 222.687 296.85 227.707 292.364 226.591C290.272 226.08 287.529 223.198 284.926 219.828C284.066 218.712 283.229 217.55 282.416 216.388C279.232 211.763 276.721 207.347 276.721 207.347C276.721 207.347 267.262 196.26 274.839 191.332C274.839 191.332 277.605 190.31 280.138 193.006C282.648 195.725 285.623 201.373 286.297 202.838C286.948 204.279 296.245 217.666 296.71 217.968C297.198 218.271 301.266 217.201 304.496 216.923C309.819 216.481 317.768 214.412 317.768 214.412L319.488 222.687Z" fill="#DBDFF0"/>
<path d="M267.75 188.869C267.75 188.869 277.489 190.868 278.651 191.89C279.883 192.983 282.114 203.628 282.23 206.603C282.37 209.578 281.068 221.966 279.813 226.591C278.558 231.217 278.79 253.948 279.581 260.363C279.581 260.363 259.987 265.918 240.719 263.408C240.719 263.408 243.95 239.491 243.183 233.146C242.206 225.057 239.812 206.37 239.812 206.37C239.812 206.37 241.532 193.354 243.229 191.913C244.949 190.449 256.78 188.869 256.78 188.869H267.75Z" fill="#BCC0CF"/>
<path d="M263.727 158.769C263.727 158.769 275.441 154.446 274.698 169.996C273.977 185.545 271.235 187.125 263.541 184.964C255.825 182.779 255.174 172.971 254.174 168.252C253.175 163.534 259.892 159.443 263.727 158.769Z" fill="#8E4F3A"/>
<path d="M269.29 190.96C269.29 190.96 266.873 192.564 257.762 188.543C257.762 188.543 258.017 182.268 256.228 176.434C254.415 170.577 268.477 184.22 268.477 184.22C268.314 184.336 268.291 184.917 268.384 185.731C268.453 186.428 268.593 187.265 268.825 188.148C269.337 190.1 269.29 189.264 269.29 190.96Z" fill="#8E4F3A"/>
<path d="M255.806 175.969C255.806 175.969 255.782 171.809 257.502 171.413C259.245 171.041 259.455 169.67 259.455 169.67L260.454 169.879C260.454 169.879 260.268 169.159 261.918 168.183C263.569 167.23 273.423 168.066 274.655 166.649C275.887 165.231 274.097 156.817 271.425 156.004C268.728 155.167 262.476 155.237 256.782 156.84C256.782 156.84 252.435 157.933 252.11 163.046C251.901 166.346 254.411 173.714 255.806 175.969Z" fill="#2D3133"/>
<path d="M268.819 188.148C259.754 186.614 258.406 181.454 258.383 181.385C261.916 185.917 268.377 185.731 268.377 185.731C268.447 186.428 268.586 187.265 268.819 188.148Z" fill="#633029"/>
<path d="M268.423 193.006C268.423 193.006 270.074 195.446 271.073 201.698C272.072 207.951 271.91 218.735 271.91 218.735L269.609 219.014C269.609 219.014 266.122 197.027 266.727 193.215L268.423 193.006Z" fill="#434343"/>
<path d="M259.45 169.67C258.938 168.299 256.033 168.462 256.312 170.646C256.614 172.808 259.031 176.155 260.007 175.527C260.96 174.9 260.17 171.553 259.45 169.67Z" fill="#8E4F3A"/>
<path d="M278.765 191.89C278.765 191.89 284.297 199.188 282.252 218.34C278.533 252.925 288.225 308.429 288.225 308.429L278.231 311.543C278.231 311.543 268.678 240.584 271.118 214.831C272.211 203.093 275.511 199.188 270.328 189.427C270.328 189.427 275.372 189.682 278.765 191.89Z" fill="#DBDFF0"/>
<path d="M254.085 189.264C254.085 189.264 269.913 205.255 271.145 217.364C272.4 229.473 274.399 311.543 274.399 311.543L236.723 309.358C236.723 309.358 240.186 266.034 241.046 260.619C241.883 255.203 243.626 224.081 239.814 209.647C237.769 201.884 240.209 192.03 244.881 190.96C249.576 189.891 254.085 189.264 254.085 189.264Z" fill="#DBDFF0"/>
<path d="M248.736 191.332C248.736 191.332 254.825 193.006 251.478 204.186C248.852 212.948 248.503 214.831 248.503 214.831L234.441 211.321C234.441 211.321 238.555 192.076 245.272 191.054C245.272 191.054 247.434 190.728 248.736 191.332Z" fill="#DBDFF0"/>
<path d="M294.846 250.531L267.28 279.073L248.965 261.362L275.81 232.146L294.846 250.531Z" fill="#616161"/>
<path d="M292.229 251.113L267.754 276.447L251.484 260.735L275.331 234.773L292.229 251.113Z" fill="#E0CEC7"/>
<path d="M286.603 246.859L288.323 245.093L281.745 238.748L279.77 240.258L286.603 246.859Z" fill="#616161"/>
<path d="M257.754 186.8C257.754 186.8 262.518 189.682 267.237 190.333L264.726 194.33L256.777 188.868L257.754 186.8Z" fill="#A7AAB8"/>
<path d="M268.823 188.148C268.823 188.148 268.335 189.798 267.242 190.333L269.613 193.633L269.52 189.264L268.823 188.148Z" fill="#A7AAB8"/>
<path d="M267.242 190.333L269.125 192.936C269.125 192.936 267.94 194.424 265.383 193.308L267.242 190.333Z" fill="#434343"/>
<path d="M284.924 219.828C284.064 218.712 283.228 217.55 282.414 216.388C282.414 216.388 282.716 207.951 282.461 205.533C282.461 205.533 285.203 214.621 284.924 219.828Z" fill="#A7AAB8"/>
<path d="M246.088 214.226C246.088 214.226 244.252 226.196 244.391 226.963C244.508 227.73 236.071 224.569 246.088 214.226Z" fill="#A7AAB8"/>
<path d="M279.279 216.737H274.84V209.95H279.279V216.737Z" fill="#C6CAD9"/>
<path d="M259.544 242.466C259.544 242.466 259.939 243.28 260.613 243.536C261.776 244 263.658 243.28 264.379 244.93C265.099 246.604 260.451 250.532 259.265 250.741C258.103 250.927 256.453 249.021 255.384 245.348C254.291 241.653 259.544 242.466 259.544 242.466Z" fill="#8E4F3A"/>
<path d="M264.06 244.419C264.06 244.419 266.059 246.208 268.035 248.486C269.778 250.485 271.452 253.158 271.149 253.669C270.475 254.785 268.872 252.275 267.012 250.415C265.292 248.719 265.594 249.021 265.594 249.021C265.594 249.021 265.571 248.835 267.082 251.066C268.686 253.483 270.08 256.133 269.708 256.714C269.522 257.016 268.779 257.714 268.407 256.551C268.732 257.086 268.779 256.97 268.569 257.132C267.454 257.969 264.548 254.808 263.386 253.553C264.27 254.529 264.804 255.343 263.805 255.412C262.666 255.505 258.738 250.857 257.181 249.323C255.461 247.673 264.06 244.419 264.06 244.419Z" fill="#8E4F3A"/>
<path d="M249.459 192.076C250.737 192.564 251.225 194.842 250.69 201.397C250.179 207.974 247.855 210.972 246.995 212.507C246.135 214.017 241.393 223.384 242.253 224.616C243.113 225.848 251.155 233.774 251.62 234.424C252.085 235.075 261.08 243.21 261.08 243.21L256.501 249.602C256.501 249.602 237.093 234.448 235.583 232.937C234.072 231.426 229.54 228.242 231.213 222.942C232.91 217.573 235.978 204.999 236.512 204.023C237.047 203.024 241.021 188.822 249.459 192.076Z" fill="#DBDFF0"/>
<path d="M416.942 346.802C416.942 346.802 416.245 348.383 414.967 350.056C414.037 351.288 411.132 356.309 409.83 356.657C408.552 357.006 404.577 357.703 404.229 359.934C403.88 362.142 403.717 363.723 407.622 363.886C411.527 364.072 414.107 364.304 415.966 361.561C417.849 358.819 420.824 356.843 420.824 356.843V364.002H422.335C422.335 364.002 423.032 356.541 423.45 356.006C423.845 355.495 424.891 349.777 421.289 346.802C417.663 343.804 416.942 346.802 416.942 346.802Z" fill="#163342"/>
<path d="M409.828 356.657C409.828 356.657 413.338 357.54 414.686 356.657C416.034 355.774 420.589 348.057 422.1 347.615C422.1 347.615 420.636 344.64 416.94 346.802C416.94 346.802 410.828 355.378 409.828 356.657Z" fill="#EEA886"/>
<path d="M417.846 174.156C417.846 174.156 410.292 190.077 415.499 191.03C422.634 192.332 425.516 179.13 425.516 179.13L417.846 174.156Z" fill="#163342"/>
<path d="M376.608 213.692C376.608 213.692 374.237 212.971 374.051 211.554C373.889 210.368 372.819 208.95 372.494 208.509C372.052 207.928 371.378 205.627 370.635 206.161C369.891 206.719 371.564 210.019 371.797 210.787C372.006 211.554 368.775 210.089 367.962 210.298C367.172 210.484 365.08 215.97 367.404 216.713C369.728 217.457 372.703 216.713 373.098 216.923C373.493 217.132 374.772 217.527 374.772 217.527L376.608 213.692Z" fill="#EEA886"/>
<path d="M368.577 210.345C368.577 210.345 361.279 208.556 360.698 208.834C360.117 209.113 360.047 209.532 360.721 209.718C361.395 209.904 367.694 211.647 367.694 211.647C367.694 211.647 358.722 210.973 358.188 211.112C357.886 211.182 357.7 211.949 358.048 212.088C358.397 212.228 367.252 213.413 367.252 213.413C367.252 213.413 358.862 212.786 358.467 213.041C358.095 213.251 358.095 213.994 358.722 214.087C359.35 214.18 367.09 215.18 367.09 215.18C367.09 215.18 360.954 215.11 360.721 215.528C360.582 215.784 360.396 216.435 361.976 216.388C363.557 216.365 367.299 216.667 367.299 216.667L368.577 210.345Z" fill="#EEA886"/>
<path d="M436.513 351.427C436.513 351.427 432.608 357.238 431.028 358.633C431.028 358.633 427.518 359.934 427.17 362.375C426.821 364.838 426.891 366.465 431.028 366.582C435.165 366.698 437.884 365.954 438.651 363.444C439.395 360.934 441.069 359.237 441.069 359.237V364.49H441.998C441.998 364.49 442.231 359.4 442.301 358.47C442.347 357.54 442.951 353.938 440.999 352.357C439.023 350.753 436.513 351.427 436.513 351.427Z" fill="#163342"/>
<path d="M439.138 239.328C439.138 239.328 444.065 245.743 445.414 253.367C446.762 260.99 444.623 286.557 444.693 290.323C444.739 294.088 448.249 303.455 447.552 310.544C446.855 317.633 444.089 352.938 444.089 352.938L436.512 351.427C436.512 351.427 436.953 315.448 436.512 312.473C436.07 309.498 435.187 298.643 435.024 297.412C434.838 296.18 423.914 263.989 423.914 258.503C423.914 253.018 427.238 230.357 439.138 239.328Z" fill="#2D3133"/>
<path d="M414.338 241.838C414.338 241.838 406.226 272.798 405.25 277.097C404.297 281.374 402.902 284.93 402.902 286.743C402.902 290.973 404.46 297.76 404.46 297.76L414.756 347.035H424.588C424.588 347.035 419.102 317.47 418.963 311.682C418.824 305.895 414.361 297.667 415.244 295.227C416.104 292.763 429.329 264.477 429.329 264.477C429.329 264.477 439.347 232.843 414.338 241.838Z" fill="#2D3133"/>
<path d="M431.027 358.632C431.027 358.632 435.025 360.887 437.605 358.005C439.79 355.588 440.998 352.357 440.998 352.357L436.513 351.427L431.027 358.632Z" fill="#EEA886"/>
<path d="M417.681 189.217C417.681 189.217 414.334 189.519 411.801 192.239C409.267 194.935 406.897 199.258 406.246 200.699C405.572 202.14 396.298 215.528 395.81 215.83C395.345 216.132 391.278 215.063 388.024 214.807C382.724 214.366 374.799 211.646 374.799 211.646L373.613 217.643C373.613 217.643 393.137 223.942 397.623 222.826C403.131 221.478 415.822 205.208 415.822 205.208C415.822 205.208 425.258 194.144 417.681 189.217Z" fill="#DBDFF0"/>
<path d="M423.52 186.87C423.52 186.87 419.196 188.915 417.686 189.217C416.175 189.519 410.341 197.096 409.318 199.862C408.296 202.628 409.318 206.789 411.41 211.669C413.525 216.527 411.55 218.154 412.503 223.035C413.479 227.916 413.153 246.138 412.967 248.858C412.805 251.554 441.137 255.668 446.739 250.74C446.739 250.74 442.95 234.308 438.465 229.613C437.488 228.59 437.605 221.827 438.255 220.153C438.929 218.456 446.39 205.882 446.39 205.882C446.39 205.882 446.925 193.122 443.671 190.588C440.859 188.404 433.142 187.613 431.747 187.125C430.376 186.66 426.355 186.451 423.52 186.87Z" fill="#2F4563"/>
<path d="M421.449 181.872C421.449 181.872 422.309 189.821 422.123 192.401C422.123 192.401 426.632 196.91 431.746 187.125C431.746 187.125 429.607 183.104 431.234 177.619C432.838 172.11 421.449 181.872 421.449 181.872Z" fill="#EEA886"/>
<path d="M408.852 213.459C408.852 213.459 407.76 206.254 408.922 201.861C408.922 201.861 408.922 205.626 410.991 210.995L408.852 213.459Z" fill="#AAADBA"/>
<path d="M434.744 166.95C434.744 166.95 435.743 165.765 436.115 166.95C436.487 168.159 435.279 171.738 435.139 172.25C435.139 172.25 434.535 174.249 434.302 173.993C434.047 173.737 434.744 166.95 434.744 166.95Z" fill="#EEA987"/>
<path d="M417.407 167.09C417.407 167.09 416.407 165.904 416.036 167.113C415.664 168.298 416.872 171.878 417.012 172.389C417.012 172.389 417.616 174.411 417.848 174.156C418.104 173.9 417.407 167.09 417.407 167.09Z" fill="#EEA987"/>
<path d="M424.519 155.538C424.519 155.538 415.408 156.933 416.733 171.297C418.058 185.661 426.123 184.522 426.658 184.499C427.192 184.499 434.723 184.801 435.374 167.276C435.374 167.276 435.676 154.33 424.519 155.538Z" fill="#EEA987"/>
<path d="M433.627 166.416C433.627 166.416 423.517 169.438 418.659 168.461C418.659 168.461 418.357 170.251 417.66 170.367C416.962 170.483 416.614 166.951 416.614 166.951C416.614 166.951 416.358 155.26 426.934 155.167C437.509 155.05 435.347 167.811 435.347 167.811L435.208 169.995C435.208 169.995 433.697 170.6 433.627 166.416Z" fill="#163342"/>
<path d="M430.237 183.127C430.237 183.127 427.052 186.172 422.125 183.383C422.125 183.383 423.589 185.8 426.332 185.754C429.098 185.684 430.237 183.127 430.237 183.127Z" fill="#A77860"/>
<path d="M435.211 187.822C435.211 187.822 432.12 196.98 423.613 196.306C415.106 195.632 419.592 188.589 419.592 188.589C419.592 188.589 421.707 187.358 422.311 187.241C422.893 187.125 431.701 187.032 431.701 187.032L435.211 187.822Z" fill="#EEA886"/>
<path d="M419.59 188.589C419.59 188.589 415.127 200.908 415.127 213.459C415.127 226.01 414.779 246.464 413.221 252.925C411.664 259.386 407.225 279.375 407.225 279.375L403.762 277.562C403.762 277.562 412.106 245.697 412.733 243.396C413.361 241.095 412.269 216.806 411.664 214.761C411.06 212.738 408.526 203.674 408.922 201.164C409.41 198.003 412.385 193.331 417.149 189.287L419.59 188.589Z" fill="#DBDFF0"/>
<path d="M433.538 187.451C433.538 187.451 430.772 196.306 429.377 207.649C427.96 219.014 433.677 271.705 437.512 283.675L452.341 281.281C452.341 281.281 449.134 244.023 444.81 237.26C440.464 230.473 439.093 224.476 443.765 210.321C448.46 196.19 441.719 189.171 441.719 189.171C441.719 189.171 434.839 187.59 433.538 187.451Z" fill="#DBDFF0"/>
<path d="M417.523 225.034L435.513 256.179L455.525 244.651L438.302 213.041L417.523 225.034Z" fill="#616161"/>
<path d="M419.707 226.103L435.675 253.762L453.432 243.512L438.162 215.458L419.707 226.103Z" fill="#E0CEC7"/>
<path d="M425.588 223.616L424.473 221.687L431.655 217.526L433.049 219.316L425.588 223.616Z" fill="#616161"/>
<path d="M426.445 245.719C426.445 245.719 427.258 245.719 427.63 245.556C427.63 245.556 428.257 245.184 428.722 244.952C428.862 244.882 429.001 244.812 429.071 244.789C429.443 244.673 430.28 244.487 431.093 243.952C431.883 243.394 434.696 240.141 434.696 240.141L433.371 238.118L432.395 236.05C432.395 236.05 426.468 236.422 425.678 236.84C425.6 236.887 425.523 236.933 425.445 236.98C424.818 237.421 424.515 238.002 424.213 238.258C424.097 238.351 423.028 239.397 423.051 239.838C423.121 240.466 423.4 240.861 423.772 241.07C423.772 241.07 423.911 242.279 424.515 242.837C424.515 242.837 424.632 243.952 425.561 244.44C425.561 244.44 425.794 245.556 426.445 245.719Z" fill="#EEA886"/>
<path d="M438.655 189.217C438.655 189.217 444.117 187.636 447.232 193.656C450.37 199.676 450.346 202.256 450.765 205.184C451.16 207.973 452.95 215.551 453.136 216.318C453.298 217.108 457.343 226.428 455.483 229.705C453.624 232.983 434.727 242.628 434.844 243.349C434.96 244.069 431.566 236.051 431.566 236.051C431.566 236.051 439.213 231.774 440.468 230.472C442.514 228.334 446.814 226.033 445.93 223.407C444.884 220.292 441.77 209.81 441.049 208.276C440.329 206.742 434.03 191.169 438.655 189.217Z" fill="#DBDFF0"/>
</g>
<defs>
<linearGradient id="paint0_linear_1042_935" x1="296.838" y1="11.8999" x2="387.774" y2="11.8999" gradientUnits="userSpaceOnUse">
<stop stop-color="#FF9F55"/>
<stop offset="1" stop-color="#FFD255"/>
</linearGradient>
<linearGradient id="paint1_linear_1042_935" x1="379.127" y1="0.199641" x2="413.183" y2="0.199641" gradientUnits="userSpaceOnUse">
<stop stop-color="#FF9F55"/>
<stop offset="1" stop-color="#FFD255"/>
</linearGradient>
<linearGradient id="paint2_linear_1042_935" x1="316.387" y1="83.9389" x2="337.815" y2="154.522" gradientUnits="userSpaceOnUse">
<stop stop-color="#40D5E6"/>
<stop offset="1" stop-color="#5577FF"/>
</linearGradient>
<linearGradient id="paint3_linear_1042_935" x1="202.633" y1="63.5767" x2="250.227" y2="-15.4299" gradientUnits="userSpaceOnUse">
<stop stop-color="#602F80"/>
<stop offset="1" stop-color="#5770FF"/>
</linearGradient>
<linearGradient id="paint4_linear_1042_935" x1="-825.557" y1="864.122" x2="-808.029" y2="850.632" gradientUnits="userSpaceOnUse">
<stop stop-color="#602F80"/>
<stop offset="1" stop-color="#5770FF"/>
</linearGradient>
<linearGradient id="paint5_linear_1042_935" x1="8628.22" y1="298.553" x2="8628.22" y2="213.277" gradientUnits="userSpaceOnUse">
<stop stop-color="#602F80"/>
<stop offset="1" stop-color="#5770FF"/>
</linearGradient>
<linearGradient id="paint6_linear_1042_935" x1="90.7839" y1="162.979" x2="517.999" y2="162.979" gradientUnits="userSpaceOnUse">
<stop stop-color="#FF9F55"/>
<stop offset="1" stop-color="#FFD255"/>
</linearGradient>
<linearGradient id="paint7_linear_1042_935" x1="10.1066" y1="246.037" x2="10.1066" y2="192.649" gradientUnits="userSpaceOnUse">
<stop stop-color="#FF9F55"/>
<stop offset="1" stop-color="#FFD255"/>
</linearGradient>
<linearGradient id="paint8_linear_1042_935" x1="4.25721" y1="246.037" x2="4.25721" y2="192.649" gradientUnits="userSpaceOnUse">
<stop stop-color="#FF9F55"/>
<stop offset="1" stop-color="#FFD255"/>
</linearGradient>
<linearGradient id="paint9_linear_1042_935" x1="4.94334" y1="246.037" x2="4.94334" y2="192.649" gradientUnits="userSpaceOnUse">
<stop stop-color="#FF9F55"/>
<stop offset="1" stop-color="#FFD255"/>
</linearGradient>
<linearGradient id="paint10_linear_1042_935" x1="12.3952" y1="246.037" x2="12.3952" y2="192.649" gradientUnits="userSpaceOnUse">
<stop stop-color="#FF9F55"/>
<stop offset="1" stop-color="#FFD255"/>
</linearGradient>
<linearGradient id="paint11_linear_1042_935" x1="75.6664" y1="420.347" x2="82.4461" y2="35.2566" gradientUnits="userSpaceOnUse">
<stop stop-color="#40D5E6"/>
<stop offset="1" stop-color="#5577FF"/>
</linearGradient>
<linearGradient id="paint12_linear_1042_935" x1="270.5" y1="95.864" x2="320.872" y2="95.864" gradientUnits="userSpaceOnUse">
<stop stop-color="#40D5E6"/>
<stop offset="1" stop-color="#5577FF"/>
</linearGradient>
<linearGradient id="paint13_linear_1042_935" x1="270.5" y1="122.571" x2="316.739" y2="122.571" gradientUnits="userSpaceOnUse">
<stop stop-color="#40D5E6"/>
<stop offset="1" stop-color="#5577FF"/>
</linearGradient>
<linearGradient id="paint14_linear_1042_935" x1="270.5" y1="109.217" x2="310.507" y2="109.217" gradientUnits="userSpaceOnUse">
<stop stop-color="#40D5E6"/>
<stop offset="1" stop-color="#5577FF"/>
</linearGradient>
<linearGradient id="paint15_linear_1042_935" x1="176.777" y1="151.101" x2="176.777" y2="95.7854" gradientUnits="userSpaceOnUse">
<stop stop-color="#7DB3E0"/>
<stop offset="1" stop-color="white"/>
</linearGradient>
<radialGradient id="paint16_radial_1042_935" cx="0" cy="0" r="1" gradientUnits="userSpaceOnUse" gradientTransform="translate(304.391 221.117) scale(153.184 153.184)">
<stop offset="0.16" stop-color="#90C2E8"/>
<stop offset="0.581" stop-color="#47AFFF"/>
<stop offset="1" stop-color="#6783F5"/>
</radialGradient>
<linearGradient id="paint17_linear_1042_935" x1="53.8851" y1="296.056" x2="51.8549" y2="214.514" gradientUnits="userSpaceOnUse">
<stop stop-color="#FF9F55"/>
<stop offset="1" stop-color="#FFD255"/>
</linearGradient>
<linearGradient id="paint18_linear_1042_935" x1="41.4574" y1="296.366" x2="39.4272" y2="214.823" gradientUnits="userSpaceOnUse">
<stop stop-color="#FF9F55"/>
<stop offset="1" stop-color="#FFD255"/>
</linearGradient>
<linearGradient id="paint19_linear_1042_935" x1="270.32" y1="-8.4101" x2="252.049" y2="59.9361" gradientUnits="userSpaceOnUse">
<stop stop-color="#FF9F55"/>
<stop offset="1" stop-color="#FFD255"/>
</linearGradient>
<linearGradient id="paint20_linear_1042_935" x1="268.642" y1="-8.85933" x2="250.371" y2="59.4891" gradientUnits="userSpaceOnUse">
<stop stop-color="#FF9F55"/>
<stop offset="1" stop-color="#FFD255"/>
</linearGradient>
<linearGradient id="paint21_linear_1042_935" x1="307.064" y1="62.9027" x2="311.463" y2="130.235" gradientUnits="userSpaceOnUse">
<stop stop-color="#40D5E6"/>
<stop offset="1" stop-color="#5577FF"/>
</linearGradient>
<linearGradient id="paint22_linear_1042_935" x1="216.18" y1="68.8402" x2="220.578" y2="136.172" gradientUnits="userSpaceOnUse">
<stop stop-color="#40D5E6"/>
<stop offset="1" stop-color="#5577FF"/>
</linearGradient>
<clipPath id="clip0_1042_935">
<rect width="518" height="373" fill="white"/>
</clipPath>
</defs>
</svg>
