<svg width="1921" height="836" viewBox="0 0 1921 836" fill="none" xmlns="http://www.w3.org/2000/svg">
<path d="M1920.98 0.623047H0.978638V835.942H1920.98V0.623047Z" fill="#EDEDED"/>
<mask id="mask0_6_301" style="mask-type:luminance" maskUnits="userSpaceOnUse" x="68" y="16" width="1441" height="618">
<path d="M1508.98 16.623H68.9786V633.623H1508.98V16.623Z" fill="white"/>
</mask>
<g mask="url(#mask0_6_301)">
<path fill-rule="evenodd" clip-rule="evenodd" d="M1007.82 640.882V708.307H1008.32V640.882H1123.35V708.307H1123.85V640.882H1238.05V708.307H1238.55V640.882H1353.58V708.307H1354.08V640.882H1469.1V708.307H1469.6V640.882H1583.81V708.307H1584.31V640.882H1699.33V708.307H1699.83V640.882H1814.04V640.502H1699.83V553.349H1814.04V552.97H1699.83V465.818H1814.04V465.437H1699.83V378.283H1814.04V377.903H1699.83V290.751H1814.04V290.371H1699.83V203.217H1814.04V202.837H1699.83V115.684L1814.04 115.685V115.305L1699.83 115.304V66.1289H1699.33V115.304H1584.31V66.1289H1583.81V115.304H1469.6V66.1289H1469.1V115.304H1354.08V66.1289H1353.58V115.304H1238.55V66.1289H1238.05V115.304H1123.85V66.1289H1123.35V115.304H1008.32V66.1289H1007.82V115.304H940.979V115.684H1007.82V202.837H940.979V203.217H1007.82V290.371H940.979V290.751H1007.82V377.903H940.979V378.283H1007.82V465.437H940.979V465.818H1007.82V552.97H940.979V553.349H1007.82V640.502H940.979V640.882H1007.82ZM1008.32 640.502H1123.35V553.349H1008.32V640.502ZM1008.32 552.97H1123.35V465.818H1008.32V552.97ZM1008.32 465.437H1123.35V378.283H1008.32V465.437ZM1008.32 377.903H1123.35V290.751H1008.32V377.903ZM1008.32 290.371H1123.35V203.217H1008.32V290.371ZM1008.32 202.837H1123.35V115.684H1008.32V202.837ZM1123.85 115.684V202.837H1238.05V115.684H1123.85ZM1238.55 115.684V202.837H1353.58V115.684H1238.55ZM1354.08 115.684V202.837H1469.1V115.684H1354.08ZM1469.6 115.684V202.837H1583.81V115.684H1469.6ZM1584.31 115.684V202.837H1699.33V115.684H1584.31ZM1699.33 203.217H1584.31V290.371H1699.33V203.217ZM1699.33 290.751H1584.31V377.903H1699.33V290.751ZM1699.33 378.283H1584.31V465.437H1699.33V378.283ZM1699.33 465.818H1584.31V552.97H1699.33V465.818ZM1699.33 553.349H1584.31V640.502H1699.33V553.349ZM1583.81 640.502V553.349H1469.6V640.502H1583.81ZM1469.1 640.502V553.349H1354.08V640.502H1469.1ZM1353.58 640.502V553.349H1238.55V640.502H1353.58ZM1238.05 640.502V553.349H1123.85V640.502H1238.05ZM1123.85 552.97H1238.05V465.818H1123.85V552.97ZM1123.85 465.437H1238.05V378.283H1123.85V465.437ZM1123.85 377.903H1238.05V290.751H1123.85V377.903ZM1123.85 290.371H1238.05V203.217H1123.85V290.371ZM1238.55 203.217V290.371H1353.58V203.217H1238.55ZM1354.08 203.217V290.371H1469.1V203.217H1354.08ZM1469.6 203.217V290.371H1583.81V203.217H1469.6ZM1583.81 290.751H1469.6V377.903H1583.81V290.751ZM1583.81 378.283H1469.6V465.437H1583.81V378.283ZM1583.81 465.818H1469.6V552.97H1583.81V465.818ZM1469.1 552.97V465.818H1354.08V552.97H1469.1ZM1353.58 552.97V465.818H1238.55V552.97H1353.58ZM1238.55 465.437H1353.58V378.283H1238.55V465.437ZM1238.55 377.903H1353.58V290.751H1238.55V377.903ZM1354.08 290.751V377.903H1469.1V290.751H1354.08ZM1469.1 378.283H1354.08V465.437H1469.1V378.283Z" fill="url(#paint0_radial_6_301)"/>
<path opacity="0.02" d="M1468.89 282.126H1353.89V377.694H1468.89V282.126Z" fill="#202B50"/>
<path opacity="0.02" d="M1237.92 431.039H1123.92V526.607H1237.92V431.039Z" fill="#202B50"/>
<path opacity="0.02" d="M1353.92 140.982H1237.92V236.55H1353.92V140.982Z" fill="#202B50"/>
<path fill-rule="evenodd" clip-rule="evenodd" d="M131.941 650.763V719.356H132.397V650.763H237.309V719.356H237.765V650.763H341.923V719.356H342.379V650.763H447.292V719.356H447.748V650.763H552.659V719.356H553.115V650.763H657.274V719.356H657.73V650.763H762.643V719.356H763.099V650.763H867.259V650.376H763.099V561.713H867.259V561.326H763.099V472.663H867.259V472.276H763.099V383.611H867.259V383.225H763.099V294.562H867.259V294.175H763.099V205.509H867.259V205.123H763.099V116.46L867.259 116.46V116.073L763.099 116.073V66.0449H762.643V116.073H657.73V66.0449H657.274V116.073H553.115V66.0449H552.659V116.073H447.748V66.0449H447.292V116.073H342.379V66.0449H341.923V116.073H237.765V66.0449H237.309V116.073H132.397V66.0449H131.941V116.073H70.9786V116.46H131.941V205.123H70.9786V205.509H131.941V294.175H70.9786V294.562H131.941V383.225H70.9786V383.611H131.941V472.276H70.9786V472.663H131.941V561.326H70.9786V561.713H131.941V650.376H70.9786V650.763H131.941ZM132.397 650.376H237.309V561.713H132.397V650.376ZM132.397 561.326H237.309V472.663H132.397V561.326ZM132.397 472.276H237.309V383.611H132.397V472.276ZM132.397 383.225H237.309V294.562H132.397V383.225ZM132.397 294.175H237.309V205.509H132.397V294.175ZM132.397 205.123H237.309V116.46H132.397V205.123ZM237.765 116.46V205.123H341.923V116.46H237.765ZM342.379 116.46V205.123H447.292V116.46H342.379ZM447.748 116.46V205.123H552.659V116.46H447.748ZM553.115 116.46V205.123H657.274V116.46H553.115ZM657.73 116.46V205.123H762.643V116.46H657.73ZM762.643 205.509H657.73V294.175H762.643V205.509ZM762.643 294.562H657.73V383.225H762.643V294.562ZM762.643 383.611H657.73V472.276H762.643V383.611ZM762.643 472.663H657.73V561.326H762.643V472.663ZM762.643 561.713H657.73V650.376H762.643V561.713ZM657.274 650.376V561.713H553.115V650.376H657.274ZM552.659 650.376V561.713H447.748V650.376H552.659ZM447.292 650.376V561.713H342.379V650.376H447.292ZM341.923 650.376V561.713H237.765V650.376H341.923ZM237.765 561.326H341.923V472.663H237.765V561.326ZM237.765 472.276H341.923V383.611H237.765V472.276ZM237.765 383.225H341.923V294.562H237.765V383.225ZM237.765 294.175H341.923V205.509H237.765V294.175ZM342.379 205.509V294.175H447.292V205.509H342.379ZM447.748 205.509V294.175H552.659V205.509H447.748ZM553.115 205.509V294.175H657.274V205.509H553.115ZM657.274 294.562H553.115V383.225H657.274V294.562ZM657.274 383.611H553.115V472.276H657.274V383.611ZM657.274 472.663H553.115V561.326H657.274V472.663ZM552.659 561.326V472.663H447.748V561.326H552.659ZM447.292 561.326V472.663H342.379V561.326H447.292ZM342.379 472.276H447.292V383.611H342.379V472.276ZM342.379 383.225H447.292V294.562H342.379V383.225ZM447.748 294.562V383.225H552.659V294.562H447.748ZM552.659 383.611H447.748V472.276H552.659V383.611Z" fill="url(#paint1_radial_6_301)"/>
<path opacity="0.02" d="M483.979 333.794H368.979V429.362H483.979V333.794Z" fill="#202B50"/>
<path opacity="0.02" d="M367.979 431.039H253.979V526.607H367.979V431.039Z" fill="#202B50"/>
</g>
<defs>
<radialGradient id="paint0_radial_6_301" cx="0" cy="0" r="1" gradientUnits="userSpaceOnUse" gradientTransform="translate(1377.51 368.851) rotate(90) scale(302.723 411.559)">
<stop stop-color="#E9C27F"/>
<stop offset="1" stop-color="#E9C27F" stop-opacity="0"/>
</radialGradient>
<radialGradient id="paint1_radial_6_301" cx="0" cy="0" r="1" gradientUnits="userSpaceOnUse" gradientTransform="translate(469.118 374.016) rotate(90) scale(307.971 375.366)">
<stop stop-color="#FAD89F"/>
<stop offset="1" stop-color="#E9C27F" stop-opacity="0"/>
</radialGradient>
</defs>
</svg>
