<svg width="568" height="370" viewBox="0 0 568 370" fill="none" xmlns="http://www.w3.org/2000/svg">
<path d="M194.132 92.718V82.438C194.132 81.9579 193.941 81.4975 193.601 81.1581C193.262 80.8187 192.802 80.628 192.322 80.628H189.682C189.305 80.6294 188.94 80.5037 188.644 80.2714C188.348 80.0391 188.139 79.7137 188.052 79.348C187.157 75.4257 185.612 71.6807 183.482 68.268C183.28 67.9433 183.192 67.5605 183.231 67.1802C183.271 66.7999 183.437 66.4437 183.702 66.168L185.562 64.308C185.731 64.1405 185.865 63.9412 185.957 63.7215C186.049 63.5018 186.096 63.2661 186.096 63.028C186.096 62.7899 186.049 62.5541 185.957 62.3344C185.865 62.1147 185.731 61.9154 185.562 61.748L178.312 54.498C178.144 54.3286 177.945 54.1942 177.725 54.1025C177.505 54.0107 177.27 53.9635 177.032 53.9635C176.793 53.9635 176.558 54.0107 176.338 54.1025C176.118 54.1942 175.919 54.3286 175.752 54.498L173.892 56.348C173.619 56.6176 173.262 56.7863 172.88 56.8263C172.498 56.8663 172.115 56.7752 171.792 56.568C168.377 54.4415 164.632 52.8972 160.712 51.998C160.346 51.9101 160.02 51.7014 159.788 51.4055C159.556 51.1097 159.43 50.7441 159.432 50.368V47.718C159.432 47.2379 159.241 46.7775 158.901 46.4381C158.562 46.0987 158.102 45.908 157.622 45.908H147.372C146.891 45.908 146.429 46.0983 146.088 46.4375C145.747 46.7766 145.554 47.237 145.552 47.718V50.348C145.555 50.7232 145.432 51.0886 145.201 51.3847C144.97 51.6807 144.646 51.8898 144.282 51.978C140.356 52.8727 136.608 54.4174 133.192 56.548C132.869 56.7552 132.485 56.8463 132.103 56.8063C131.721 56.7663 131.365 56.5976 131.092 56.328L129.252 54.498C128.91 54.1578 128.448 53.9668 127.967 53.9668C127.485 53.9668 127.023 54.1578 126.682 54.498L119.432 61.718C119.262 61.8854 119.128 62.0847 119.036 62.3044C118.944 62.5241 118.897 62.7599 118.897 62.998C118.897 63.2361 118.944 63.4718 119.036 63.6915C119.128 63.9112 119.262 64.1106 119.432 64.278L121.282 66.138C121.55 66.4094 121.719 66.7644 121.759 67.1443C121.799 67.5243 121.708 67.9065 121.502 68.228C119.377 71.6471 117.833 75.3945 116.932 79.318C116.845 79.6846 116.637 80.011 116.341 80.2436C116.045 80.4762 115.678 80.6012 115.302 80.598H112.672C112.191 80.598 111.729 80.7883 111.388 81.1275C111.047 81.4666 110.854 81.927 110.852 82.408V92.718C110.854 93.1998 111.047 93.6612 111.388 94.002C111.728 94.3427 112.19 94.5353 112.672 94.538H115.312C115.686 94.5347 116.05 94.6586 116.344 94.8894C116.638 95.1201 116.845 95.444 116.932 95.808C117.835 99.7274 119.379 103.471 121.502 106.888C121.709 107.211 121.8 107.595 121.76 107.977C121.72 108.358 121.551 108.715 121.282 108.988L119.432 110.848C119.091 111.189 118.9 111.651 118.9 112.133C118.9 112.615 119.091 113.077 119.432 113.418L126.672 120.658C127.013 120.998 127.475 121.189 127.957 121.189C128.438 121.189 128.9 120.998 129.242 120.658L131.102 118.808C131.375 118.54 131.731 118.372 132.112 118.33C132.493 118.288 132.876 118.376 133.202 118.578C136.609 120.691 140.343 122.225 144.252 123.118C144.618 123.197 144.946 123.399 145.182 123.69C145.418 123.981 145.549 124.343 145.552 124.718V127.358C145.554 127.839 145.747 128.299 146.088 128.638C146.429 128.978 146.891 129.168 147.372 129.168H157.622C158.102 129.168 158.562 128.977 158.901 128.638C159.241 128.298 159.432 127.838 159.432 127.358V124.718C159.428 124.341 159.553 123.975 159.786 123.679C160.019 123.382 160.345 123.174 160.712 123.088C164.632 122.189 168.377 120.644 171.792 118.518C172.116 118.314 172.499 118.225 172.88 118.265C173.26 118.305 173.617 118.472 173.892 118.738L175.752 120.598C175.919 120.767 176.118 120.902 176.338 120.993C176.558 121.085 176.793 121.132 177.032 121.132C177.27 121.132 177.505 121.085 177.725 120.993C177.945 120.902 178.144 120.767 178.312 120.598L185.562 113.358C185.902 113.017 186.093 112.555 186.093 112.073C186.093 111.591 185.902 111.129 185.562 110.788L183.702 108.928C183.432 108.655 183.263 108.298 183.223 107.917C183.183 107.535 183.274 107.151 183.482 106.828C185.608 103.413 187.152 99.6689 188.052 95.748C188.138 95.3823 188.347 95.0571 188.643 94.8262C188.94 94.5953 189.306 94.4724 189.682 94.478H192.322C192.792 94.4756 193.244 94.291 193.581 93.9628C193.919 93.6346 194.116 93.1885 194.132 92.718ZM152.492 116.498C146.775 116.502 141.186 114.811 136.431 111.638C131.676 108.465 127.969 103.954 125.778 98.6737C123.587 93.3938 123.012 87.5829 124.124 81.9758C125.236 76.3687 127.986 71.2173 132.026 67.1732C136.066 63.1291 141.214 60.3738 146.82 59.256C152.426 58.1381 158.237 58.7078 163.52 60.8931C168.802 63.0783 173.317 66.7809 176.495 71.5326C179.672 76.2843 181.37 81.8716 181.372 87.588C181.369 95.2466 178.325 102.591 172.91 108.006C167.494 113.422 160.15 116.465 152.492 116.468V116.498Z" stroke="#DEE3FC" stroke-width="0.79" stroke-miterlimit="10"/>
<path d="M241.253 127.388V120.388C241.253 120.062 241.124 119.749 240.893 119.518C240.663 119.287 240.35 119.158 240.023 119.158H238.253C237.996 119.16 237.745 119.073 237.543 118.913C237.342 118.753 237.2 118.529 237.143 118.278C236.532 115.606 235.481 113.055 234.033 110.728C233.892 110.508 233.83 110.246 233.857 109.986C233.885 109.727 234 109.484 234.183 109.298L235.443 108.038C235.559 107.923 235.651 107.787 235.714 107.637C235.777 107.487 235.809 107.326 235.809 107.163C235.809 107 235.777 106.839 235.714 106.689C235.651 106.538 235.559 106.402 235.443 106.288L230.503 101.348C230.271 101.116 229.956 100.986 229.628 100.986C229.3 100.986 228.986 101.116 228.753 101.348L227.493 102.608C227.308 102.792 227.065 102.907 226.805 102.934C226.545 102.961 226.283 102.899 226.063 102.758C223.737 101.308 221.186 100.257 218.513 99.6478C218.264 99.5888 218.042 99.4469 217.884 99.2452C217.726 99.0435 217.641 98.794 217.643 98.5378V96.7178C217.643 96.3889 217.513 96.0735 217.28 95.841C217.048 95.6084 216.732 95.4778 216.403 95.4778H209.403C209.241 95.4778 209.08 95.5099 208.93 95.5724C208.781 95.6348 208.644 95.7263 208.53 95.8416C208.416 95.9569 208.325 96.0936 208.264 96.244C208.203 96.3944 208.172 96.5554 208.173 96.7178V98.5078C208.174 98.7636 208.088 99.0121 207.931 99.2135C207.773 99.4148 207.552 99.5572 207.303 99.6178C204.628 100.227 202.073 101.278 199.743 102.728C199.524 102.869 199.262 102.931 199.002 102.904C198.742 102.877 198.499 102.762 198.313 102.578L197.053 101.318C196.821 101.086 196.506 100.956 196.178 100.956C195.85 100.956 195.536 101.086 195.303 101.318L190.363 106.258C190.132 106.49 190.002 106.805 190.002 107.133C190.002 107.461 190.132 107.775 190.363 108.008L191.633 109.268C191.816 109.455 191.93 109.697 191.957 109.957C191.984 110.216 191.923 110.477 191.783 110.698C190.337 113.026 189.282 115.577 188.663 118.248C188.606 118.499 188.465 118.723 188.263 118.883C188.062 119.043 187.811 119.13 187.553 119.128H185.763C185.601 119.126 185.44 119.157 185.29 119.219C185.139 119.28 185.003 119.37 184.887 119.484C184.772 119.599 184.68 119.735 184.618 119.885C184.556 120.035 184.523 120.195 184.523 120.358V127.358C184.523 127.52 184.556 127.681 184.618 127.831C184.68 127.981 184.772 128.117 184.887 128.231C185.003 128.345 185.139 128.436 185.29 128.497C185.44 128.558 185.601 128.589 185.763 128.588H187.553C187.811 128.586 188.062 128.672 188.263 128.832C188.465 128.992 188.606 129.217 188.663 129.468C189.282 132.139 190.337 134.689 191.783 137.018C191.923 137.238 191.984 137.499 191.957 137.759C191.93 138.018 191.816 138.261 191.633 138.448L190.363 139.718C190.132 139.95 190.002 140.265 190.002 140.593C190.002 140.921 190.132 141.235 190.363 141.468L195.303 146.408C195.536 146.639 195.85 146.769 196.178 146.769C196.506 146.769 196.821 146.639 197.053 146.408L198.323 145.138C198.51 144.956 198.753 144.842 199.012 144.815C199.272 144.787 199.533 144.848 199.753 144.988C202.079 146.439 204.631 147.49 207.303 148.098C207.552 148.158 207.773 148.301 207.931 148.502C208.088 148.703 208.174 148.952 208.173 149.208V151.008C208.172 151.17 208.203 151.331 208.264 151.482C208.325 151.632 208.416 151.769 208.53 151.884C208.644 151.999 208.781 152.091 208.93 152.153C209.08 152.216 209.241 152.248 209.403 152.248H216.403C216.732 152.248 217.048 152.117 217.28 151.885C217.513 151.652 217.643 151.337 217.643 151.008V149.208C217.641 148.952 217.726 148.702 217.884 148.5C218.042 148.299 218.264 148.157 218.513 148.098C221.186 147.489 223.737 146.437 226.063 144.988C226.284 144.848 226.545 144.787 226.805 144.815C227.064 144.842 227.307 144.956 227.493 145.138L228.753 146.408C228.986 146.639 229.3 146.769 229.628 146.769C229.956 146.769 230.271 146.639 230.503 146.408L235.443 141.468C235.559 141.353 235.651 141.217 235.714 141.067C235.777 140.917 235.809 140.756 235.809 140.593C235.809 140.43 235.777 140.269 235.714 140.119C235.651 139.968 235.559 139.832 235.443 139.718L234.183 138.458C233.998 138.273 233.882 138.03 233.855 137.769C233.827 137.509 233.89 137.247 234.033 137.028C235.481 134.701 236.532 132.149 237.143 129.478C237.2 129.227 237.342 129.002 237.543 128.842C237.745 128.682 237.996 128.596 238.253 128.598H240.053C240.371 128.59 240.673 128.46 240.897 128.234C241.121 128.009 241.248 127.705 241.253 127.388ZM212.883 142.478C209.209 142.48 205.616 141.392 202.559 139.352C199.503 137.312 197.12 134.412 195.712 131.017C194.304 127.623 193.934 123.887 194.648 120.283C195.363 116.678 197.131 113.367 199.728 110.767C202.325 108.167 205.635 106.396 209.239 105.677C212.843 104.958 216.579 105.324 219.974 106.728C223.37 108.133 226.273 110.513 228.317 113.567C230.36 116.621 231.451 120.213 231.453 123.888C231.456 128.812 229.504 133.536 226.026 137.022C222.547 140.507 217.828 142.47 212.903 142.478H212.883Z" fill="#DEE3FC"/>
<path d="M109.742 312.338C111.614 312.338 113.132 310.82 113.132 308.948C113.132 307.076 111.614 305.558 109.742 305.558C107.869 305.558 106.352 307.076 106.352 308.948C106.352 310.82 107.869 312.338 109.742 312.338Z" fill="#A4AFFF"/>
<path d="M563.367 219.818C565.239 219.818 566.757 218.3 566.757 216.428C566.757 214.556 565.239 213.038 563.367 213.038C561.494 213.038 559.977 214.556 559.977 216.428C559.977 218.3 561.494 219.818 563.367 219.818Z" fill="#A4AFFF"/>
<path d="M556.601 98.9079C558.473 98.9079 559.991 97.3902 559.991 95.5179C559.991 93.6457 558.473 92.1279 556.601 92.1279C554.729 92.1279 553.211 93.6457 553.211 95.5179C553.211 97.3902 554.729 98.9079 556.601 98.9079Z" fill="#A4AFFF"/>
<path d="M434.862 56.5378C436.033 56.5378 436.982 55.5887 436.982 54.4178C436.982 53.247 436.033 52.2979 434.862 52.2979C433.691 52.2979 432.742 53.247 432.742 54.4178C432.742 55.5887 433.691 56.5378 434.862 56.5378Z" fill="#A4AFFF"/>
<path d="M123.002 26.1278C123.004 26.5495 122.881 26.9623 122.648 27.3139C122.415 27.6655 122.083 27.94 121.694 28.1028C121.305 28.2655 120.877 28.3091 120.463 28.2281C120.049 28.147 119.668 27.945 119.37 27.6475C119.071 27.35 118.867 26.9705 118.784 26.557C118.701 26.1436 118.742 25.7148 118.903 25.325C119.064 24.9352 119.337 24.602 119.688 24.3675C120.038 24.133 120.45 24.0078 120.872 24.0078C121.435 24.0078 121.976 24.2308 122.375 24.6281C122.774 25.0254 123 25.5646 123.002 26.1278Z" fill="#A4AFFF"/>
<path d="M170.01 156.928C170.01 157.349 169.885 157.761 169.651 158.111C169.417 158.462 169.084 158.735 168.695 158.896C168.306 159.057 167.878 159.099 167.464 159.017C167.051 158.935 166.672 158.732 166.374 158.434C166.076 158.136 165.873 157.757 165.791 157.343C165.709 156.93 165.751 156.502 165.912 156.113C166.073 155.724 166.346 155.391 166.697 155.157C167.047 154.923 167.459 154.798 167.88 154.798C168.16 154.797 168.438 154.851 168.697 154.957C168.956 155.064 169.191 155.221 169.389 155.419C169.587 155.617 169.744 155.852 169.851 156.111C169.957 156.37 170.011 156.648 170.01 156.928Z" fill="#A4AFFF"/>
<path d="M92.0837 312.338C92.0818 312.757 91.9557 313.166 91.7216 313.513C91.4874 313.86 91.1557 314.13 90.7681 314.289C90.3806 314.448 89.9546 314.489 89.544 314.406C89.1335 314.323 88.7566 314.12 88.4612 313.823C88.1657 313.526 87.9648 313.149 87.8838 312.738C87.8028 312.327 87.8453 311.901 88.0061 311.514C88.1668 311.127 88.4385 310.797 88.787 310.564C89.1354 310.332 89.5449 310.208 89.9637 310.208C90.243 310.208 90.5195 310.263 90.7773 310.37C91.0352 310.477 91.2694 310.634 91.4663 310.832C91.6633 311.03 91.8193 311.265 91.9252 311.523C92.0312 311.782 92.085 312.059 92.0837 312.338Z" fill="#A4AFFF"/>
<path d="M513.703 314.338C515.575 314.338 517.093 312.82 517.093 310.948C517.093 309.076 515.575 307.558 513.703 307.558C511.83 307.558 510.312 309.076 510.312 310.948C510.312 312.82 511.83 314.338 513.703 314.338Z" fill="#A4AFFF"/>
<path d="M181.367 20.2878C183.239 20.2878 184.757 18.7701 184.757 16.8978C184.757 15.0256 183.239 13.5078 181.367 13.5078C179.494 13.5078 177.977 15.0256 177.977 16.8978C177.977 18.7701 179.494 20.2878 181.367 20.2878Z" fill="#A4AFFF"/>
<path d="M414.997 170.958C414.996 171.853 414.728 172.728 414.229 173.472C413.73 174.216 413.022 174.795 412.194 175.136C411.366 175.477 410.456 175.566 409.578 175.39C408.7 175.214 407.893 174.782 407.261 174.148C406.628 173.514 406.198 172.707 406.024 171.828C405.85 170.95 405.94 170.039 406.283 169.212C406.626 168.385 407.207 167.678 407.952 167.181C408.697 166.683 409.572 166.418 410.467 166.418C411.063 166.418 411.653 166.535 412.203 166.764C412.754 166.992 413.253 167.327 413.674 167.748C414.095 168.17 414.428 168.671 414.656 169.221C414.883 169.772 414.999 170.362 414.997 170.958Z" fill="#A4AFFF"/>
<path d="M80.8334 114.928C80.8334 115.824 80.5678 116.7 80.07 117.445C79.5722 118.19 78.8647 118.77 78.037 119.113C77.2092 119.456 76.2984 119.546 75.4197 119.371C74.541 119.196 73.7338 118.765 73.1002 118.131C72.4667 117.498 72.0353 116.69 71.8605 115.812C71.6857 114.933 71.7754 114.022 72.1183 113.194C72.4611 112.367 73.0418 111.659 73.7867 111.161C74.5317 110.664 75.4075 110.398 76.3034 110.398C77.5049 110.398 78.6571 110.875 79.5066 111.725C80.3562 112.574 80.8334 113.727 80.8334 114.928Z" fill="#A4AFFF"/>
<path d="M68.0887 40.2678H62.3788C62.0142 40.2678 61.7188 40.5633 61.7188 40.9278V46.6378C61.7188 47.0023 62.0142 47.2978 62.3788 47.2978H68.0887C68.4533 47.2978 68.7487 47.0023 68.7487 46.6378V40.9278C68.7487 40.5633 68.4533 40.2678 68.0887 40.2678Z" fill="white"/>
<path d="M77.4872 40.2678H71.7772C71.4127 40.2678 71.1172 40.5633 71.1172 40.9278V46.6378C71.1172 47.0023 71.4127 47.2978 71.7772 47.2978H77.4872C77.8517 47.2978 78.1472 47.0023 78.1472 46.6378V40.9278C78.1472 40.5633 77.8517 40.2678 77.4872 40.2678Z" fill="white"/>
<path d="M86.8934 40.2678H81.1834C80.8189 40.2678 80.5234 40.5633 80.5234 40.9278V46.6378C80.5234 47.0023 80.8189 47.2978 81.1834 47.2978H86.8934C87.2579 47.2978 87.5534 47.0023 87.5534 46.6378V40.9278C87.5534 40.5633 87.2579 40.2678 86.8934 40.2678Z" fill="white"/>
<path d="M546.667 287.008H540.957C540.592 287.008 540.297 287.303 540.297 287.668V293.378C540.297 293.742 540.592 294.038 540.957 294.038H546.667C547.031 294.038 547.327 293.742 547.327 293.378V287.668C547.327 287.303 547.031 287.008 546.667 287.008Z" fill="#DEE3FC"/>
<path d="M556.073 287.008H550.363C549.999 287.008 549.703 287.303 549.703 287.668V293.378C549.703 293.742 549.999 294.038 550.363 294.038H556.073C556.438 294.038 556.733 293.742 556.733 293.378V287.668C556.733 287.303 556.438 287.008 556.073 287.008Z" fill="#DEE3FC"/>
<path d="M565.472 287.008H559.762C559.397 287.008 559.102 287.303 559.102 287.668V293.378C559.102 293.742 559.397 294.038 559.762 294.038H565.472C565.836 294.038 566.132 293.742 566.132 293.378V287.668C566.132 287.303 565.836 287.008 565.472 287.008Z" fill="#DEE3FC"/>
<path d="M112.214 283.158H106.504C106.139 283.158 105.844 283.453 105.844 283.818V289.528C105.844 289.892 106.139 290.188 106.504 290.188H112.214C112.578 290.188 112.874 289.892 112.874 289.528V283.818C112.874 283.453 112.578 283.158 112.214 283.158Z" fill="#DEE3FC"/>
<path d="M121.597 283.158H115.887C115.522 283.158 115.227 283.453 115.227 283.818V289.528C115.227 289.892 115.522 290.188 115.887 290.188H121.597C121.961 290.188 122.257 289.892 122.257 289.528V283.818C122.257 283.453 121.961 283.158 121.597 283.158Z" fill="#DEE3FC"/>
<path d="M131.003 283.158H125.293C124.928 283.158 124.633 283.453 124.633 283.818V289.528C124.633 289.892 124.928 290.188 125.293 290.188H131.003C131.367 290.188 131.663 289.892 131.663 289.528V283.818C131.663 283.453 131.367 283.158 131.003 283.158Z" fill="#DEE3FC"/>
<path d="M366.9 6.70776H231.6C219.809 6.70776 210.25 16.2665 210.25 28.0578V329.218C210.25 341.009 219.809 350.568 231.6 350.568H366.9C378.691 350.568 388.25 341.009 388.25 329.218V28.0578C388.25 16.2665 378.691 6.70776 366.9 6.70776Z" fill="#3945BA"/>
<path d="M366.208 9.71777H232.278C221.95 9.71777 213.578 18.09 213.578 28.4178V326.978C213.578 337.306 221.95 345.678 232.278 345.678H366.208C376.536 345.678 384.908 337.306 384.908 326.978V28.4178C384.908 18.09 376.536 9.71777 366.208 9.71777Z" fill="white"/>
<path d="M377.418 27.828V326.048C377.419 327.712 377.093 329.36 376.456 330.898C375.82 332.436 374.887 333.833 373.71 335.01C372.533 336.187 371.136 337.12 369.598 337.756C368.061 338.392 366.412 338.719 364.748 338.718H233.748C232.085 338.719 230.437 338.393 228.9 337.757C227.363 337.122 225.966 336.189 224.79 335.013C223.613 333.838 222.68 332.442 222.043 330.905C221.406 329.368 221.078 327.721 221.078 326.058V27.828C221.078 26.1646 221.406 24.5175 222.043 22.9809C222.68 21.4443 223.613 20.0482 224.79 18.8725C225.966 17.6967 227.363 16.7644 228.9 16.1288C230.437 15.4932 232.085 15.1667 233.748 15.168H255.588C256.184 15.1666 256.768 15.3316 257.275 15.6443C257.782 15.957 258.192 16.405 258.458 16.938L260.778 21.568C261.296 22.6127 262.096 23.4916 263.087 24.1049C264.079 24.7182 265.222 25.0414 266.388 25.038H332.108C333.274 25.0414 334.418 24.7182 335.409 24.1049C336.401 23.4916 337.201 22.6127 337.718 21.568L340.038 16.938C340.304 16.405 340.714 15.957 341.221 15.6443C341.728 15.3316 342.312 15.1666 342.908 15.168H364.748C366.412 15.1667 368.059 15.4932 369.596 16.1288C371.133 16.7644 372.53 17.6967 373.707 18.8725C374.883 20.0482 375.817 21.4443 376.453 22.9809C377.09 24.5175 377.418 26.1646 377.418 27.828Z" fill="#DEE3FC"/>
<path d="M326.832 19.628H273.902C273.31 19.628 272.743 19.393 272.325 18.9748C271.907 18.5566 271.672 17.9894 271.672 17.398C271.672 16.8065 271.907 16.2393 272.325 15.8211C272.743 15.4029 273.31 15.168 273.902 15.168H326.832C327.125 15.168 327.415 15.2257 327.685 15.3377C327.956 15.4498 328.202 15.614 328.409 15.8211C328.616 16.0282 328.78 16.274 328.892 16.5446C329.004 16.8151 329.062 17.1051 329.062 17.398C329.062 17.6908 329.004 17.9808 328.892 18.2514C328.78 18.5219 328.616 18.7677 328.409 18.9748C328.202 19.1819 327.956 19.3462 327.685 19.4582C327.415 19.5703 327.125 19.628 326.832 19.628Z" fill="#DEE3FC"/>
<path d="M356.623 270.008H238.833C234.205 270.008 230.453 273.76 230.453 278.388V319.978C230.453 324.606 234.205 328.358 238.833 328.358H356.623C361.251 328.358 365.003 324.606 365.003 319.978V278.388C365.003 273.76 361.251 270.008 356.623 270.008Z" stroke="#698BD1" stroke-linecap="round" stroke-linejoin="round" stroke-dasharray="2.84 2.84"/>
<path d="M350.652 144.208H292.212C288.876 144.208 286.172 146.912 286.172 150.248V179.138C286.172 182.474 288.876 185.178 292.212 185.178H350.652C353.988 185.178 356.692 182.474 356.692 179.138V150.248C356.692 146.912 353.988 144.208 350.652 144.208Z" stroke="#698BD1" stroke-linecap="round" stroke-linejoin="round" stroke-dasharray="2.84 2.84"/>
<path d="M363.232 194.998H242.552C238.575 194.998 235.352 198.221 235.352 202.198V253.098C235.352 257.074 238.575 260.298 242.552 260.298H363.232C367.208 260.298 370.432 257.074 370.432 253.098V202.198C370.432 198.221 367.208 194.998 363.232 194.998Z" fill="#4B5A9B"/>
<path d="M365.003 196.908V247.838C365.003 248.782 364.817 249.716 364.456 250.588C364.094 251.46 363.564 252.251 362.897 252.918C362.229 253.585 361.436 254.114 360.564 254.474C359.692 254.834 358.757 255.019 357.813 255.018H237.643C236.699 255.019 235.765 254.834 234.892 254.474C234.02 254.114 233.227 253.585 232.56 252.918C231.892 252.251 231.362 251.46 231.001 250.588C230.639 249.716 230.453 248.782 230.453 247.838V196.908C230.453 195.001 231.211 193.172 232.559 191.824C233.907 190.475 235.736 189.718 237.643 189.718H357.813C359.72 189.718 361.549 190.475 362.897 191.824C364.246 193.172 365.003 195.001 365.003 196.908Z" fill="#7F95F4"/>
<path d="M276.932 204.588H241.532C238.848 204.588 236.672 206.764 236.672 209.448V244.848C236.672 247.532 238.848 249.708 241.532 249.708H276.932C279.616 249.708 281.792 247.532 281.792 244.848V209.448C281.792 206.764 279.616 204.588 276.932 204.588Z" fill="white"/>
<path d="M318.892 210.298H287.712C287.303 210.298 286.912 210.136 286.623 209.847C286.334 209.558 286.172 209.166 286.172 208.758C286.175 208.351 286.338 207.962 286.626 207.675C286.915 207.389 287.305 207.228 287.712 207.228H318.892C319.298 207.228 319.687 207.389 319.974 207.676C320.261 207.963 320.422 208.352 320.422 208.758C320.423 208.96 320.385 209.16 320.308 209.346C320.232 209.533 320.119 209.703 319.977 209.846C319.835 209.989 319.666 210.103 319.48 210.18C319.293 210.258 319.094 210.298 318.892 210.298Z" fill="#B2C1F9"/>
<path d="M304.681 216.428H287.681C287.272 216.428 286.88 216.266 286.592 215.977C286.303 215.688 286.141 215.296 286.141 214.888C286.141 214.686 286.181 214.486 286.258 214.3C286.336 214.114 286.449 213.945 286.592 213.802C286.735 213.66 286.905 213.548 287.092 213.471C287.279 213.395 287.479 213.357 287.681 213.358H304.681C304.882 213.357 305.082 213.395 305.269 213.471C305.456 213.548 305.626 213.66 305.769 213.802C305.912 213.945 306.026 214.114 306.103 214.3C306.181 214.486 306.221 214.686 306.221 214.888C306.221 215.296 306.058 215.688 305.77 215.977C305.481 216.266 305.089 216.428 304.681 216.428Z" fill="#B2C1F9"/>
<path d="M356.851 216.428H310.931C310.522 216.428 310.13 216.266 309.842 215.977C309.553 215.688 309.391 215.296 309.391 214.888C309.391 214.686 309.431 214.486 309.508 214.3C309.586 214.114 309.699 213.945 309.842 213.802C309.985 213.66 310.155 213.548 310.342 213.471C310.529 213.395 310.729 213.357 310.931 213.358H356.851C357.052 213.357 357.251 213.395 357.438 213.472C357.624 213.548 357.793 213.661 357.935 213.803C358.078 213.945 358.19 214.115 358.267 214.301C358.343 214.487 358.382 214.687 358.381 214.888C358.382 215.09 358.343 215.29 358.267 215.477C358.191 215.663 358.078 215.833 357.936 215.976C357.794 216.119 357.625 216.233 357.438 216.311C357.252 216.388 357.052 216.428 356.851 216.428Z" fill="#B2C1F9"/>
<path d="M313.972 222.558H287.712C287.303 222.558 286.912 222.396 286.623 222.107C286.334 221.818 286.172 221.426 286.172 221.018C286.172 220.816 286.212 220.616 286.289 220.43C286.367 220.244 286.48 220.075 286.624 219.932C286.767 219.79 286.937 219.678 287.123 219.601C287.31 219.525 287.51 219.487 287.712 219.488H313.972C314.378 219.488 314.767 219.649 315.054 219.936C315.341 220.223 315.502 220.612 315.502 221.018C315.502 221.425 315.341 221.815 315.054 222.103C314.768 222.392 314.379 222.555 313.972 222.558Z" fill="#B2C1F9"/>
<path d="M336.25 222.558H319.75C319.349 222.547 318.967 222.381 318.687 222.093C318.407 221.805 318.25 221.419 318.25 221.018C318.25 220.816 318.29 220.616 318.367 220.43C318.445 220.244 318.559 220.075 318.702 219.932C318.845 219.79 319.015 219.678 319.201 219.601C319.388 219.525 319.588 219.487 319.79 219.488H336.25C336.452 219.487 336.652 219.525 336.839 219.601C337.025 219.678 337.195 219.79 337.338 219.932C337.481 220.075 337.595 220.244 337.673 220.43C337.75 220.616 337.79 220.816 337.79 221.018C337.79 221.426 337.628 221.818 337.339 222.107C337.05 222.396 336.658 222.558 336.25 222.558Z" fill="#B2C1F9"/>
<path d="M356.849 222.558H341.649C341.241 222.558 340.849 222.396 340.56 222.107C340.272 221.818 340.109 221.426 340.109 221.018C340.109 220.816 340.149 220.616 340.227 220.43C340.304 220.244 340.418 220.075 340.561 219.932C340.704 219.79 340.874 219.678 341.061 219.601C341.248 219.525 341.448 219.487 341.649 219.488H356.849C357.051 219.486 357.25 219.525 357.436 219.602C357.623 219.678 357.792 219.791 357.934 219.933C358.077 220.075 358.189 220.245 358.266 220.431C358.342 220.617 358.381 220.817 358.379 221.018C358.381 221.22 358.342 221.42 358.266 221.606C358.19 221.793 358.077 221.963 357.935 222.106C357.793 222.249 357.624 222.363 357.437 222.44C357.251 222.518 357.051 222.558 356.849 222.558Z" fill="#B2C1F9"/>
<path d="M356.852 228.718H287.712C287.303 228.718 286.912 228.556 286.623 228.267C286.334 227.978 286.172 227.586 286.172 227.178C286.172 226.976 286.212 226.776 286.289 226.59C286.367 226.404 286.48 226.235 286.624 226.093C286.767 225.95 286.937 225.838 287.123 225.762C287.31 225.685 287.51 225.647 287.712 225.648H356.852C357.053 225.647 357.253 225.685 357.439 225.762C357.625 225.838 357.794 225.951 357.937 226.093C358.079 226.235 358.192 226.405 358.268 226.591C358.345 226.777 358.383 226.977 358.382 227.178C358.383 227.38 358.345 227.58 358.268 227.767C358.192 227.953 358.079 228.123 357.937 228.266C357.795 228.409 357.626 228.523 357.44 228.601C357.253 228.678 357.054 228.718 356.852 228.718Z" fill="#B2C1F9"/>
<path d="M325.762 234.818H287.712C287.303 234.818 286.912 234.656 286.623 234.367C286.334 234.078 286.172 233.686 286.172 233.278C286.172 232.869 286.334 232.478 286.623 232.189C286.912 231.9 287.303 231.738 287.712 231.738H325.762C326.17 231.738 326.562 231.9 326.851 232.189C327.14 232.478 327.302 232.869 327.302 233.278C327.302 233.686 327.14 234.078 326.851 234.367C326.562 234.656 326.17 234.818 325.762 234.818Z" fill="#B2C1F9"/>
<path d="M356.853 234.818H331.853C331.444 234.818 331.052 234.656 330.764 234.367C330.475 234.078 330.313 233.686 330.312 233.278C330.313 232.869 330.475 232.478 330.764 232.189C331.052 231.9 331.444 231.738 331.853 231.738H356.853C357.054 231.738 357.254 231.778 357.44 231.855C357.627 231.933 357.796 232.046 357.938 232.189C358.08 232.333 358.193 232.502 358.269 232.689C358.345 232.876 358.384 233.076 358.383 233.278C358.384 233.48 358.345 233.68 358.269 233.866C358.193 234.053 358.08 234.223 357.938 234.366C357.796 234.509 357.627 234.623 357.44 234.7C357.254 234.778 357.054 234.818 356.853 234.818Z" fill="#B2C1F9"/>
<path d="M310.072 240.938H287.712C287.51 240.939 287.31 240.901 287.123 240.824C286.937 240.748 286.767 240.636 286.624 240.493C286.48 240.351 286.367 240.182 286.289 239.996C286.212 239.809 286.172 239.61 286.172 239.408C286.172 239.206 286.212 239.005 286.289 238.819C286.366 238.632 286.48 238.462 286.623 238.319C286.766 238.176 286.936 238.063 287.123 237.985C287.309 237.908 287.51 237.868 287.712 237.868H310.072C310.479 237.871 310.868 238.034 311.154 238.323C311.441 238.611 311.602 239.001 311.602 239.408C311.602 239.814 311.441 240.203 311.154 240.49C310.867 240.777 310.478 240.938 310.072 240.938Z" fill="#B2C1F9"/>
<path d="M338.468 240.938H316.118C315.916 240.939 315.716 240.901 315.53 240.824C315.343 240.748 315.173 240.636 315.03 240.493C314.887 240.351 314.773 240.182 314.696 239.996C314.618 239.809 314.578 239.61 314.578 239.408C314.578 239.206 314.618 239.005 314.695 238.819C314.773 238.632 314.886 238.462 315.029 238.319C315.172 238.176 315.342 238.063 315.529 237.985C315.716 237.908 315.916 237.868 316.118 237.868H338.468C338.67 237.868 338.871 237.908 339.057 237.985C339.244 238.063 339.414 238.176 339.557 238.319C339.7 238.462 339.814 238.632 339.891 238.819C339.968 239.005 340.008 239.206 340.008 239.408C340.008 239.61 339.968 239.809 339.891 239.996C339.813 240.182 339.7 240.351 339.556 240.493C339.413 240.636 339.243 240.748 339.057 240.824C338.87 240.901 338.67 240.939 338.468 240.938Z" fill="#B2C1F9"/>
<path d="M356.853 240.938H343.853C343.651 240.939 343.451 240.901 343.264 240.824C343.077 240.748 342.907 240.636 342.764 240.493C342.621 240.351 342.507 240.182 342.43 239.996C342.352 239.809 342.312 239.61 342.313 239.408C342.313 239.206 342.352 239.005 342.43 238.819C342.507 238.632 342.621 238.462 342.764 238.319C342.907 238.176 343.076 238.063 343.263 237.985C343.45 237.908 343.65 237.868 343.853 237.868H356.853C357.054 237.868 357.254 237.908 357.44 237.985C357.627 238.063 357.796 238.176 357.938 238.32C358.08 238.463 358.193 238.633 358.269 238.819C358.345 239.006 358.384 239.206 358.383 239.408C358.384 239.609 358.345 239.809 358.269 239.995C358.192 240.181 358.08 240.35 357.937 240.493C357.795 240.635 357.626 240.748 357.44 240.824C357.253 240.901 357.054 240.939 356.853 240.938Z" fill="#B2C1F9"/>
<path d="M318.892 247.068H287.712C287.51 247.069 287.31 247.031 287.123 246.954C286.937 246.878 286.767 246.765 286.624 246.623C286.48 246.481 286.367 246.312 286.289 246.126C286.212 245.939 286.172 245.74 286.172 245.538C286.172 245.129 286.334 244.738 286.623 244.449C286.912 244.16 287.303 243.998 287.712 243.998H318.892C319.094 243.998 319.293 244.038 319.48 244.115C319.666 244.193 319.835 244.306 319.977 244.449C320.119 244.593 320.232 244.762 320.308 244.949C320.385 245.136 320.423 245.336 320.422 245.538C320.423 245.739 320.385 245.939 320.308 246.125C320.232 246.311 320.119 246.48 319.977 246.623C319.834 246.765 319.665 246.878 319.479 246.954C319.293 247.03 319.093 247.069 318.892 247.068Z" fill="#B2C1F9"/>
<path d="M356.853 210.298H325.673C325.264 210.298 324.873 210.136 324.584 209.847C324.295 209.558 324.133 209.166 324.133 208.758C324.135 208.351 324.299 207.962 324.587 207.675C324.876 207.389 325.266 207.228 325.673 207.228H356.853C357.259 207.228 357.648 207.389 357.935 207.676C358.222 207.963 358.383 208.352 358.383 208.758C358.384 208.96 358.346 209.16 358.269 209.346C358.193 209.533 358.08 209.703 357.938 209.846C357.796 209.989 357.627 210.103 357.441 210.18C357.254 210.258 357.055 210.298 356.853 210.298Z" fill="#B2C1F9"/>
<path d="M365.003 196.908V199.048H230.453V196.908C230.453 195.001 231.211 193.172 232.559 191.824C233.907 190.475 235.736 189.718 237.643 189.718H357.813C359.72 189.718 361.549 190.475 362.897 191.824C364.246 193.172 365.003 195.001 365.003 196.908Z" fill="#3052CE"/>
<path d="M339.64 194.548C339.658 194.777 339.628 195.008 339.552 195.226C339.476 195.443 339.357 195.642 339.2 195.811C339.044 195.98 338.854 196.115 338.644 196.207C338.433 196.299 338.205 196.347 337.975 196.347C337.745 196.347 337.517 196.299 337.306 196.207C337.095 196.115 336.905 195.98 336.749 195.811C336.593 195.642 336.473 195.443 336.397 195.226C336.322 195.008 336.292 194.777 336.31 194.548C336.342 194.129 336.532 193.737 336.84 193.451C337.149 193.166 337.554 193.007 337.975 193.007C338.395 193.007 338.8 193.166 339.109 193.451C339.418 193.737 339.607 194.129 339.64 194.548Z" fill="#DEE3FC"/>
<path d="M348.168 194.548C348.17 194.879 348.074 195.202 347.892 195.478C347.709 195.754 347.449 195.97 347.144 196.098C346.839 196.226 346.503 196.26 346.178 196.197C345.854 196.134 345.555 195.975 345.321 195.742C345.086 195.509 344.926 195.212 344.861 194.887C344.796 194.563 344.828 194.227 344.954 193.921C345.08 193.615 345.294 193.354 345.569 193.17C345.844 192.986 346.167 192.888 346.498 192.888C346.939 192.888 347.363 193.062 347.675 193.374C347.988 193.685 348.165 194.107 348.168 194.548Z" fill="#DEE3FC"/>
<path d="M356.692 194.548C356.694 194.879 356.597 195.203 356.414 195.479C356.232 195.756 355.971 195.971 355.665 196.099C355.36 196.227 355.023 196.26 354.698 196.196C354.373 196.132 354.075 195.973 353.841 195.739C353.607 195.505 353.447 195.206 353.383 194.881C353.319 194.556 353.353 194.22 353.481 193.914C353.608 193.609 353.824 193.348 354.1 193.165C354.376 192.982 354.7 192.886 355.032 192.888C355.472 192.888 355.894 193.063 356.205 193.374C356.517 193.685 356.692 194.108 356.692 194.548Z" fill="#DEE3FC"/>
<path d="M272.108 144.248H245.478C241.529 144.248 238.328 147.449 238.328 151.398V178.028C238.328 181.977 241.529 185.178 245.478 185.178H272.108C276.057 185.178 279.258 181.977 279.258 178.028V151.398C279.258 147.449 276.057 144.248 272.108 144.248Z" stroke="#495AD6" stroke-width="0.9" stroke-miterlimit="10"/>
<path d="M252.408 158.788L246.508 164.688L252.448 170.628" stroke="#495AD6" stroke-width="1.67" stroke-linecap="round" stroke-linejoin="round"/>
<path d="M265.183 158.788L271.073 164.688L265.133 170.628" stroke="#495AD6" stroke-width="1.67" stroke-linecap="round" stroke-linejoin="round"/>
<path d="M261.551 158.788L256.031 170.628" stroke="#495AD6" stroke-width="1.67" stroke-linecap="round" stroke-linejoin="round"/>
<path d="M356.823 36.158H238.633C234.115 36.158 230.453 39.8203 230.453 44.338V127.608C230.453 132.126 234.115 135.788 238.633 135.788H356.823C361.341 135.788 365.003 132.126 365.003 127.608V44.338C365.003 39.8203 361.341 36.158 356.823 36.158Z" fill="#B2C1F9"/>
<path d="M337.75 81.9678C348.52 81.9678 357.25 73.2373 357.25 62.4678C357.25 51.6982 348.52 42.9678 337.75 42.9678C326.98 42.9678 318.25 51.6982 318.25 62.4678C318.25 73.2373 326.98 81.9678 337.75 81.9678Z" fill="#F0F4FF"/>
<path d="M309.543 135.788H238.633C236.464 135.788 234.383 134.926 232.849 133.392C231.315 131.858 230.453 129.777 230.453 127.608V114.498L261.453 60.748C261.822 60.1061 262.354 59.5728 262.995 59.202C263.635 58.8312 264.363 58.636 265.103 58.636C265.843 58.636 266.571 58.8312 267.212 59.202C267.852 59.5728 268.384 60.1061 268.753 60.748L292.253 101.328L309.653 131.468C310.034 132.128 310.226 132.881 310.206 133.643C310.187 134.406 309.958 135.148 309.543 135.788Z" fill="white"/>
<path d="M340.122 135.788H272.312L292.253 101.328L302.932 82.7179C303.265 82.1405 303.743 81.6608 304.32 81.3273C304.897 80.9937 305.551 80.8181 306.217 80.8181C306.884 80.8181 307.538 80.9937 308.115 81.3273C308.692 81.6608 309.17 82.1405 309.503 82.7179L340.122 135.788Z" fill="#F0F4FF"/>
<path d="M474.624 290.518H422.344V369.078H474.624V290.518Z" fill="#3B47BC"/>
<path d="M474.613 369.078H494.633V290.518H474.613V369.078Z" fill="#495AD6"/>
<path d="M492.177 293.538H477.477V296.048H492.177V293.538Z" fill="#B2C1F9"/>
<path d="M492.177 298.918H477.477V301.428H492.177V298.918Z" fill="#B2C1F9"/>
<path d="M492.177 304.308H477.477V306.818H492.177V304.308Z" fill="#B2C1F9"/>
<path d="M492.177 309.698H477.477V312.208H492.177V309.698Z" fill="#B2C1F9"/>
<path d="M492.177 315.078H477.477V317.588H492.177V315.078Z" fill="#B2C1F9"/>
<path d="M492.177 320.468H477.477V322.978H492.177V320.468Z" fill="#B2C1F9"/>
<path d="M492.177 325.848H477.477V328.358H492.177V325.848Z" fill="#B2C1F9"/>
<path d="M492.177 331.238H477.477V333.748H492.177V331.238Z" fill="#B2C1F9"/>
<path d="M492.177 336.628H477.477V339.138H492.177V336.628Z" fill="#B2C1F9"/>
<path d="M492.177 342.008H477.477V344.518H492.177V342.008Z" fill="#B2C1F9"/>
<path d="M492.177 347.398H477.477V349.908H492.177V347.398Z" fill="#B2C1F9"/>
<path d="M492.177 352.788H477.477V355.298H492.177V352.788Z" fill="#B2C1F9"/>
<path d="M492.177 358.168H477.477V360.678H492.177V358.168Z" fill="#B2C1F9"/>
<path d="M492.177 363.558H477.477V366.068H492.177V363.558Z" fill="#B2C1F9"/>
<path d="M413.847 369.078H440.417C440.417 369.078 441.897 364.348 438.687 358.488C438.687 358.488 436.547 360.208 430.137 359.048C428.738 360.244 427.224 361.299 425.617 362.198C423.767 363.098 413.127 365.188 413.847 369.078Z" fill="#281616"/>
<path d="M415.703 294.168C417.423 304.408 425.343 339.048 428.703 359.508C434.923 360.038 437.912 359.328 439.492 358.958C439.182 351.828 438.573 334.758 438.643 327.268C438.763 314.618 439.353 297.938 433.783 288.778L415.062 290.258C415.172 291.258 415.282 292.048 415.372 292.628C415.462 293.208 415.603 293.718 415.703 294.168Z" fill="#002C54"/>
<path d="M365.792 369.078H392.362C392.362 369.078 393.852 364.348 390.632 358.488C390.632 358.488 388.492 360.208 382.092 359.048C380.691 360.242 379.177 361.297 377.572 362.198C375.712 363.098 365.082 365.188 365.792 369.078Z" fill="#281616"/>
<path d="M381.32 358.908C384.735 359.832 388.286 360.15 391.81 359.848C393.22 351.628 395.45 333.528 397.46 325.038C400.58 311.858 403.63 293.718 401.51 287.248L383.09 282.628C383.03 283.208 381.53 338.718 381.32 358.908Z" fill="#052635"/>
<path d="M454.632 263.718C454.262 260.068 453.832 257.418 453.832 257.418L433.252 262.418L415.772 266.418C409.292 267.858 401.462 269.598 394.562 271.158C386.812 272.918 381.672 278.798 383.372 286.558L385.312 295.958C396.142 295.818 447.072 290.958 451.432 288.728C456.352 286.298 457.832 277.508 454.632 263.718Z" fill="#052635"/>
<path d="M485.351 263.718C484.99 261.114 484.27 258.574 483.211 256.168L463.971 262.448L446.491 266.448C440.011 267.888 432.181 269.628 425.281 271.188C417.531 272.948 412.391 278.828 414.091 286.588L416.031 295.988C426.861 295.848 472.141 294.268 482.151 288.758C486.981 286.128 488.561 277.508 485.351 263.718Z" fill="#002C54"/>
<path d="M427.752 234.248C427.752 234.248 436.892 230.118 439.402 234.248C440.782 236.518 439.832 240.728 436.712 242.498C433.592 244.268 415.982 251.718 399.352 255.878C398.834 254.26 398.212 252.677 397.492 251.138C402.708 248.858 407.692 246.078 412.372 242.838C417.22 239.502 422.369 236.626 427.752 234.248Z" fill="#E5918F"/>
<path d="M430.03 205.718L422.25 236.998C422.25 236.998 423.06 244.908 431.05 240.998C439.04 237.088 444.25 212.208 444.25 212.208L430.03 205.718Z" fill="#E5918F"/>
<path d="M443.251 223.208C442.251 222.968 441.351 222.718 440.461 222.448C439.571 222.178 438.681 221.898 437.851 221.608C433.778 220.305 429.918 218.415 426.391 215.998C428.731 205.818 431.541 198.998 434.051 194.488C434.126 194.382 434.189 194.268 434.241 194.148L434.441 193.818C435.856 191.579 437.71 189.651 439.891 188.148L440.551 187.688L441.471 204.028L441.631 205.708L443.251 223.208Z" fill="white"/>
<path d="M443.252 223.208C442.252 222.968 441.352 222.718 440.462 222.448C439.572 222.178 438.682 221.898 437.852 221.608C439.422 210.608 440.852 203.688 440.852 203.688L441.652 205.688L443.252 223.208Z" fill="#C7E5F2"/>
<path d="M489.527 194.958C489.337 199.788 488.527 207.558 487.757 215.358C487.527 217.828 487.297 220.358 487.117 222.718C486.977 224.208 484.727 232.178 484.637 233.598C484.237 240.418 480.897 245.528 484.057 255.908C484.629 257.449 484.966 259.067 485.057 260.708C485.057 261.418 484.127 262.158 483.767 262.368C482.437 263.128 479.827 263.668 476.667 264.058C470.118 264.711 463.538 265.012 456.957 264.958C450.157 264.958 439.957 263.878 438.637 262.158C437.457 260.588 438.547 258.308 439.107 255.158C441.617 240.918 440.727 233.498 440.567 223.228C440.567 222.968 440.567 222.718 440.567 222.448C440.307 206.598 439.267 193.038 439.997 188.148L440.657 187.688C441.737 186.948 442.797 186.298 443.817 185.688L444.137 185.508C444.447 185.328 444.767 185.158 445.067 184.998C445.181 184.928 445.302 184.868 445.427 184.818C447.905 183.684 450.442 182.683 453.027 181.818C453.267 181.738 453.497 181.658 453.687 181.608C455.497 181.498 457.477 181.468 459.597 181.528C461.447 181.588 464.277 181.828 467.357 182.228C470.828 182.65 474.268 183.295 477.657 184.158C480.77 185.385 483.549 187.331 485.767 189.838C487.217 191.391 488.479 193.109 489.527 194.958Z" fill="white"/>
<path d="M484.063 255.908C484.636 257.449 484.973 259.067 485.063 260.708C485.063 261.418 484.133 262.158 483.773 262.368C482.443 263.128 479.833 263.668 476.673 264.058C477.973 263.898 480.223 261.828 480.223 259.968C480.223 258.658 478.533 249.838 479.003 244.148C479.473 238.458 480.393 229.408 478.633 222.148C476.873 214.888 475.203 205.378 475.203 205.378L485.133 211.378C485.133 211.378 486.413 213.178 487.813 215.378C487.583 217.848 487.353 220.378 487.173 222.738C486.983 224.208 480.903 245.528 484.063 255.908Z" fill="#C7E5F2"/>
<path d="M440.383 153.068C440.383 153.068 441.243 163.458 444.683 164.158C448.123 164.858 447.283 160.438 447.283 160.438L446.803 155.508L440.383 153.068Z" fill="#002C54"/>
<path d="M456.253 190.718C449.513 189.918 452.023 183.358 452.953 181.858C453.193 181.778 454.353 181.428 454.443 181.368C454.683 181.157 454.865 180.888 454.973 180.588C455.633 178.858 455.333 175.418 455.303 175.188V174.568C455.413 174.158 455.533 173.768 455.613 173.398L459.163 170.608L466.663 164.718C466.663 164.718 464.663 174.578 466.273 180.798C466.333 181.1 466.453 181.387 466.624 181.642C466.796 181.898 467.016 182.117 467.273 182.288C467.497 182.437 467.755 182.53 468.023 182.558C469.893 183.398 467.323 192.018 456.253 190.718Z" fill="#E5918F"/>
<path d="M462.249 170.958C462.086 173.078 461.321 175.108 460.044 176.809C458.766 178.509 457.03 179.81 455.039 180.558C455.709 178.848 455.399 175.398 455.379 175.178L458.379 172.828L462.249 170.958Z" fill="#CC6362"/>
<path d="M442.031 154.548C442.031 154.548 443.581 176.098 449.401 177.928C451.893 177.983 454.359 177.423 456.582 176.296C458.804 175.169 460.714 173.51 462.141 171.468C463.671 169.408 465.611 168.938 466.241 166.468C467.241 162.468 468.721 154.958 466.871 150.468C464.251 144.038 442.251 138.958 442.031 154.548Z" fill="#E5918F"/>
<path d="M466.961 146.888C466.861 142.978 462.901 141.508 462.901 141.508C458.961 139.668 450.761 140.508 442.311 142.348C440.311 142.788 437.841 141.578 436.461 142.538C434.791 143.698 436.461 148.998 436.461 148.998C439.721 158.868 451.721 155.658 455.321 154.438C456.181 156.978 456.071 160.508 458.201 162.338C459.421 163.338 461.541 163.398 463.691 163.048C463.961 163.548 464.951 163.988 465.151 164.678C465.831 166.988 465.731 170.598 465.711 173.378L466.711 172.888C466.851 172.128 477.371 147.208 466.961 146.888Z" fill="#002C54"/>
<path d="M447.988 161.808C448.298 163.598 447.418 165.238 445.988 165.478C444.558 165.718 443.218 164.478 442.918 162.668C442.618 160.858 443.498 159.228 444.918 158.998C446.338 158.768 447.688 160.018 447.988 161.808Z" stroke="white" stroke-width="0.5" stroke-miterlimit="10"/>
<path d="M455.022 160.498C455.332 162.278 454.452 163.928 453.022 164.158C451.592 164.388 450.262 163.158 449.952 161.348C449.642 159.538 450.532 157.918 451.952 157.678C453.372 157.438 454.722 158.718 455.022 160.498Z" stroke="white" stroke-width="0.5" stroke-miterlimit="10"/>
<path d="M447.992 161.808C447.992 161.808 448.302 161.308 449.922 161.448" stroke="white" stroke-width="0.5" stroke-miterlimit="10"/>
<path d="M455.078 160.918L461.088 159.958" stroke="white" stroke-width="0.5" stroke-miterlimit="10"/>
<path d="M461.539 167.588C465.669 169.178 466.969 158.988 463.039 158.538C460.039 158.198 459.929 162.348 459.929 162.348C459.929 162.348 459.169 166.718 461.539 167.588Z" fill="#E5918F"/>
<g opacity="0.5">
<path d="M462.903 160.078C462.702 160.294 462.53 160.536 462.393 160.798C462.101 161.335 461.927 161.928 461.883 162.538C461.853 162.871 461.853 163.205 461.883 163.538C461.883 163.858 461.883 164.168 461.953 164.428C462.023 164.688 461.953 164.928 462.023 165.088C462.093 165.248 462.023 165.348 462.023 165.348L461.883 165.138C461.751 164.952 461.637 164.755 461.543 164.548C461.402 164.253 461.301 163.94 461.243 163.618C461.155 163.248 461.128 162.866 461.163 162.488C461.196 162.099 461.301 161.719 461.473 161.368C461.615 161.056 461.819 160.777 462.073 160.548C462.305 160.323 462.591 160.161 462.903 160.078Z" fill="#CC6362"/>
<path d="M463.553 162.008C463.417 162.028 463.283 162.062 463.153 162.108C462.877 162.212 462.625 162.372 462.413 162.578C462.149 162.857 461.966 163.203 461.883 163.578L461.203 163.338C461.274 163.196 461.354 163.059 461.443 162.928C461.64 162.645 461.9 162.412 462.203 162.248C462.486 162.088 462.8 161.989 463.123 161.958C463.268 161.958 463.412 161.975 463.553 162.008Z" fill="#CC6362"/>
</g>
<path d="M501.329 238.368C499.519 240.478 492.609 242.018 489.329 239.098C488.329 238.168 487.109 235.718 485.949 232.678C483.712 226.312 481.8 219.837 480.219 213.278L495.669 205.388C495.669 205.388 497.669 214.298 499.369 222.768C499.369 222.768 499.369 222.848 499.369 222.998C499.929 225.708 500.449 228.378 500.859 230.668V230.848C501.302 233.328 501.46 235.852 501.329 238.368Z" fill="#E5918F"/>
<path d="M474.344 202.468C475.834 208.678 480.524 220.468 480.524 220.468C484.359 220.908 488.244 220.439 491.864 219.098C494.57 218.054 497.03 216.456 499.084 214.408C499.084 214.408 495.974 205.668 493.184 199.408C490.674 193.768 489.184 191.668 488.084 190.548C486.292 188.716 484.224 187.177 481.954 185.988L474.344 202.468Z" fill="white"/>
<path d="M493.872 206.518L484.812 202.608L477.672 184.208C477.672 184.208 478.972 184.608 480.672 185.298L480.902 185.398L481.032 185.448C482.572 186.168 488.552 189.698 492.682 202.448C492.682 202.558 492.752 202.658 492.782 202.768C493.222 204.248 493.542 205.428 493.722 206.038C493.719 206.101 493.719 206.164 493.722 206.228L493.872 206.518Z" fill="white"/>
<path d="M501.333 238.368C501.203 239.508 500.893 240.318 500.333 240.608L498.893 241.468C495.819 243.355 492.618 245.025 489.313 246.468C478.382 251.036 467.224 255.042 455.883 258.468C455.318 256.869 454.65 255.309 453.883 253.798C459 251.305 463.863 248.321 468.403 244.888C475.603 239.388 485.963 232.708 485.963 232.708L488.583 229.628C488.583 229.628 497.883 221.068 499.383 222.798C499.383 222.798 499.383 222.878 499.383 223.028C499.613 223.918 500.383 227.208 500.873 230.698V230.878C501.31 233.349 501.465 235.862 501.333 238.368Z" fill="#E5918F"/>
<path d="M454.89 253.258C453.78 253.897 452.488 254.147 451.22 253.968C450.22 253.748 449.78 253.328 449.02 253.198C447.734 253.045 446.47 252.75 445.25 252.318C444.25 251.828 443.86 251.778 443.89 252.778C443.92 253.778 445.89 254.648 446.43 254.928C446.931 255.273 447.364 255.707 447.71 256.208C447.78 256.318 444.43 258.078 443.52 257.728C443.377 258.132 443.339 258.565 443.41 258.988C443.56 259.438 444.25 259.598 444.3 259.818C444.35 260.038 444.15 260.508 444.3 260.818C444.45 261.128 445.07 261.188 445.3 261.818C445.53 262.448 445.3 262.418 445.46 263.028C445.62 263.638 446.46 263.748 446.57 264.028C446.68 264.308 446.64 264.708 446.96 264.928C447.28 265.148 450.31 264.178 451.41 263.698C452.51 263.218 455.46 258.988 458.73 257.538L454.89 253.258Z" fill="#E5918F"/>
<path d="M470.334 272.198H446.844V269.898H470.334C470.485 269.897 470.635 269.926 470.775 269.983C470.916 270.04 471.043 270.125 471.15 270.232C471.257 270.339 471.342 270.466 471.399 270.606C471.456 270.746 471.485 270.897 471.484 271.048C471.484 271.353 471.363 271.645 471.147 271.861C470.931 272.077 470.639 272.198 470.334 272.198Z" fill="#375F84"/>
<path d="M457.619 272.198H398.789C398.445 272.198 398.111 272.085 397.836 271.878C397.562 271.67 397.363 271.379 397.269 271.048L385.249 227.718C385.188 227.494 385.179 227.259 385.223 227.032C385.267 226.804 385.362 226.59 385.503 226.405C385.643 226.22 385.824 226.07 386.031 225.967C386.239 225.863 386.467 225.809 386.699 225.808H443.599C444.241 225.816 444.864 226.031 445.375 226.42C445.887 226.809 446.259 227.351 446.439 227.968L458.439 271.158C458.472 271.282 458.475 271.412 458.449 271.538C458.423 271.663 458.368 271.781 458.288 271.882C458.209 271.983 458.107 272.064 457.991 272.119C457.875 272.173 457.748 272.201 457.619 272.198Z" fill="#375F84"/>
<path d="M455.488 272.198H396.658C396.314 272.201 395.979 272.089 395.706 271.881C395.433 271.673 395.236 271.38 395.148 271.048L383.148 227.698C383.086 227.474 383.077 227.239 383.121 227.012C383.165 226.784 383.261 226.57 383.401 226.385C383.541 226.2 383.722 226.05 383.93 225.947C384.137 225.843 384.366 225.789 384.598 225.788H441.498C442.14 225.796 442.762 226.011 443.274 226.4C443.785 226.789 444.158 227.331 444.338 227.948L456.338 271.138C456.375 271.266 456.381 271.401 456.355 271.532C456.329 271.662 456.272 271.785 456.188 271.889C456.105 271.993 455.998 272.075 455.876 272.129C455.754 272.183 455.621 272.206 455.488 272.198Z" fill="#467CDB"/>
<path d="M222.312 244.188L229.133 237.188C229.2 235.913 229.404 234.649 229.742 233.418C230.112 232.758 231.073 230.328 231.543 230.058C232.013 229.92 232.512 229.92 232.983 230.058C233.426 229.901 233.886 229.794 234.353 229.738C234.777 229.803 235.189 229.934 235.573 230.128C235.573 230.128 236.573 230.058 237.013 230.058C237.207 230.037 237.404 230.079 237.573 230.178C238.334 229.289 239.149 228.447 240.013 227.658C240.813 227.018 242.013 225.848 242.383 225.848C242.753 225.848 242.873 226.448 242.633 227.088C242.276 227.706 241.828 228.266 241.302 228.748L238.193 233.458C238.475 233.349 238.749 233.218 239.013 233.068C239.293 232.888 241.192 231.118 241.302 231.068C241.412 231.018 242.303 230.438 242.763 230.998C243.223 231.558 239.513 236.058 238.913 236.658C237.619 237.531 236.265 238.313 234.862 238.998C234.862 238.998 231.232 245.538 230.862 245.998C230.492 246.458 222.312 244.188 222.312 244.188Z" fill="#E49191"/>
<path d="M228.731 211.938C228.731 211.938 224.921 233.938 221.341 234.498C221.341 234.498 207.031 235.078 203.851 217.718C201.081 202.718 212.171 199.468 217.351 200.618C222.531 201.768 229.841 202.518 228.731 211.938Z" fill="#E49191"/>
<path d="M216.09 230.968C216.09 230.968 214.09 233.678 213.38 240.218C209.451 240.629 205.486 239.936 201.93 238.218C203.807 231.965 204.922 225.508 205.25 218.988" fill="#E49191"/>
<path d="M212.048 196.918C204.228 198.648 204.858 203.518 204.858 203.518C201.198 204.428 200.408 205.938 200.438 212.688C200.468 219.438 202.918 227.558 204.268 228.218C205.618 228.878 213.268 228.908 213.888 228.678C214.508 228.448 217.208 222.248 216.578 221.158C215.948 220.068 216.578 215.778 218.388 215.618C220.198 215.458 219.828 218.218 219.828 218.218L221.288 217.898L222.418 215.128C232.748 215.738 235.418 203.968 235.418 203.968C232.938 202.348 219.868 195.198 212.048 196.918Z" fill="#002C54"/>
<path d="M125.249 346.208L133.149 347.348L130.529 356.578L121.969 354.418C121.492 353.78 121.157 353.048 120.987 352.269C120.817 351.491 120.817 350.685 120.986 349.907C121.154 349.128 121.489 348.395 121.965 347.757C122.442 347.119 123.05 346.59 123.749 346.208C124.24 346.072 124.758 346.072 125.249 346.208Z" fill="#E5918F"/>
<path d="M184.246 322.498L172.596 287.228C172.596 287.228 169.066 285.968 167.256 287.228C167.256 287.228 155.126 293.758 156.416 312.358C157.416 326.358 160.356 341.608 161.556 347.708L130.476 346.558C129.35 348.034 128.631 349.78 128.393 351.621C128.154 353.462 128.403 355.334 129.116 357.048C129.116 357.048 168.176 367.548 173.676 368.518C178.146 369.308 183.046 369.918 185.406 367.898C189.586 364.328 184.246 322.498 184.246 322.498Z" fill="black"/>
<path d="M162.077 346.208L169.977 347.348L167.357 356.578L158.797 354.418C158.32 353.78 157.985 353.048 157.815 352.269C157.645 351.491 157.645 350.685 157.814 349.907C157.983 349.128 158.317 348.395 158.793 347.757C159.27 347.119 159.879 346.59 160.577 346.208C161.068 346.072 161.587 346.072 162.077 346.208Z" fill="#E5918F"/>
<path d="M159.252 351.048C159.072 352.858 160.662 354.498 160.372 354.948C160.082 355.398 154.772 364.318 154.772 364.318C154.772 364.318 158.772 366.068 158.132 368.588H147.932C146.341 367.062 145.415 364.971 145.352 362.768C145.849 360.188 146.69 357.685 147.852 355.328C149.662 351.828 153.782 343.948 153.782 343.948C154.888 343.626 156.067 343.647 157.162 344.008C158.891 344.522 160.545 345.262 162.082 346.208C162.082 346.208 159.652 346.558 159.252 351.048Z" fill="#467CDB"/>
<path d="M240.577 360.488C238.067 351.128 214.477 311.178 206.487 300.388C190.097 293.268 172.617 287.228 172.617 287.228C165.387 288.948 161.827 303.518 165.927 313.228C168.747 319.888 186.587 336.648 197.507 346.518H167.187C167.187 346.518 163.617 351.858 166.857 356.928C166.857 356.928 217.277 368.398 221.697 369.038C226.117 369.678 236.047 369.038 236.047 369.038C236.047 369.038 242.687 368.358 240.577 360.488Z" fill="#002C54"/>
<path d="M122.407 351.048C122.227 352.858 123.817 354.498 123.527 354.948C123.237 355.398 117.927 364.318 117.927 364.318C117.927 364.318 121.927 366.068 121.287 368.588H111.127C109.537 367.062 108.61 364.971 108.547 362.768C109.045 360.188 109.885 357.685 111.047 355.328C112.857 351.828 116.977 343.948 116.977 343.948C118.084 343.626 119.262 343.647 120.357 344.008C122.085 344.525 123.739 345.264 125.277 346.208C125.277 346.208 122.847 346.558 122.407 351.048Z" fill="#467CDB"/>
<path d="M278.54 237.398L262.25 265.998L250.6 254.388L241 268.718L243.79 270.068L242.79 270.898C242.79 270.898 265.26 281.848 267.95 279.428C270.64 277.008 283.19 240.628 283.19 240.628L278.54 237.398Z" fill="#E49191"/>
<path d="M252.71 256.208C252.71 256.208 249.64 269.158 243.5 275.298L227.79 269.298C227.79 269.298 220.5 281.558 213.37 290.958C210.63 294.588 209.72 299.698 206.5 300.368C206.3 300.298 206.11 300.238 205.91 300.188C197.18 297.568 184.3 300.348 173.67 296.398C161.93 292.028 164.21 289.568 164.21 289.568C168.756 281.133 172.493 272.287 175.37 263.148C176.93 257.913 178.225 252.603 179.25 247.238C179.957 243.471 181.827 240.021 184.597 237.372C187.366 234.723 190.896 233.008 194.69 232.468H194.95C203.85 231.338 227.15 234.088 231.68 236.028C236.21 237.968 252.71 256.208 252.71 256.208Z" fill="#467CDB"/>
<path d="M227.79 269.318C227.79 269.318 220.5 281.578 213.37 290.978C210.63 294.608 209.72 299.718 206.5 300.388C207.91 299.888 210.25 292.468 211.08 290.798C211.91 289.128 213.25 287.468 216.13 281.638C219.01 275.808 222.9 267.238 222.9 267.238L227.79 269.318Z" fill="#5996EF"/>
<path d="M197.508 346.518C197.732 346.469 197.959 346.432 198.188 346.408C198.628 346.358 199.248 346.268 200.008 346.238C201.845 346.156 203.686 346.243 205.508 346.498C206.483 346.631 207.451 346.815 208.408 347.048C209.245 347.241 210.07 347.485 210.878 347.778C211.449 347.978 212.01 348.209 212.558 348.468C212.958 348.648 213.178 348.768 213.178 348.768L212.498 348.668C212.068 348.578 211.448 348.488 210.718 348.368C209.258 348.118 207.308 347.808 205.358 347.548C204.358 347.398 203.408 347.288 202.498 347.168L199.978 346.848L197.508 346.518Z" fill="black"/>
<path d="M290.688 226.868C289.707 227.432 288.792 228.103 287.958 228.868L288.888 227.098C289.484 226.524 290.038 225.909 290.548 225.258C290.998 224.608 290.758 223.958 290.418 223.928C289.494 224.421 288.631 225.022 287.848 225.718L288.038 225.358C288.638 224.789 289.196 224.178 289.708 223.528C290.148 222.878 289.918 222.228 289.568 222.188C288.444 222.873 287.384 223.656 286.398 224.528L285.028 226.368L286.028 224.368C286.378 223.937 286.683 223.471 286.938 222.978C287.298 222.248 287.038 222.028 286.838 221.788C286.638 221.548 284.738 222.958 284.248 223.528C283.465 224.539 282.75 225.601 282.108 226.708L280.528 229.988C280.418 229.038 280.268 227.408 280.148 226.368C279.988 224.878 278.638 224.528 278.588 225.248C278.538 225.968 277.788 229.558 277.958 231.498C278.128 233.438 278.458 234.708 278.578 235.798C278.698 236.888 277.578 239.068 277.578 239.068C277.578 239.068 282.098 241.878 282.848 241.068C283.981 239.812 285.02 238.475 285.958 237.068C286.686 235.8 287.279 234.459 287.728 233.068L289.148 230.068C289.744 229.498 290.299 228.887 290.808 228.238C291.248 227.558 291.038 226.908 290.688 226.868Z" fill="#E49191"/>
<path d="M550.439 135.788H497.379C495.745 135.788 494.178 136.437 493.023 137.592C491.868 138.747 491.219 140.314 491.219 141.948V154.488C491.221 155.986 491.768 157.432 492.758 158.556C493.748 159.68 495.113 160.406 496.599 160.598C496.814 160.623 497.013 160.726 497.157 160.888C497.301 161.051 497.38 161.261 497.379 161.478V168.338C497.379 168.424 497.407 168.508 497.458 168.577C497.509 168.646 497.58 168.698 497.662 168.725C497.744 168.751 497.832 168.751 497.914 168.725C497.996 168.699 498.068 168.647 498.119 168.578L503.519 161.018C503.601 160.902 503.711 160.807 503.838 160.743C503.965 160.678 504.106 160.646 504.249 160.648H550.439C552.073 160.648 553.639 159.999 554.795 158.844C555.95 157.688 556.599 156.122 556.599 154.488V141.948C556.599 140.314 555.95 138.747 554.795 137.592C553.639 136.437 552.073 135.788 550.439 135.788Z" stroke="white" stroke-width="0.9" stroke-miterlimit="10"/>
<path d="M505.523 148.198C505.523 148.593 505.406 148.98 505.186 149.309C504.967 149.638 504.654 149.894 504.289 150.046C503.923 150.197 503.521 150.237 503.133 150.159C502.745 150.082 502.389 149.892 502.109 149.612C501.83 149.332 501.639 148.976 501.562 148.588C501.485 148.2 501.524 147.798 501.676 147.432C501.827 147.067 502.083 146.755 502.412 146.535C502.741 146.315 503.128 146.198 503.523 146.198C504.054 146.198 504.563 146.408 504.938 146.784C505.313 147.159 505.523 147.667 505.523 148.198Z" stroke="white" stroke-width="0.9" stroke-miterlimit="10"/>
<path d="M515.727 148.198C515.727 148.593 515.609 148.98 515.389 149.309C515.17 149.638 514.857 149.894 514.492 150.046C514.126 150.197 513.724 150.237 513.336 150.159C512.948 150.082 512.592 149.892 512.312 149.612C512.033 149.332 511.842 148.976 511.765 148.588C511.688 148.2 511.727 147.798 511.879 147.432C512.03 147.067 512.286 146.755 512.615 146.535C512.944 146.315 513.331 146.198 513.727 146.198C514.257 146.198 514.766 146.408 515.141 146.784C515.516 147.159 515.727 147.667 515.727 148.198Z" stroke="white" stroke-width="0.9" stroke-miterlimit="10"/>
<path d="M525.937 148.198C525.937 148.593 525.82 148.98 525.6 149.309C525.381 149.638 525.068 149.894 524.703 150.046C524.337 150.197 523.935 150.237 523.547 150.159C523.159 150.082 522.803 149.892 522.523 149.612C522.244 149.332 522.053 148.976 521.976 148.588C521.899 148.2 521.938 147.798 522.09 147.432C522.241 147.067 522.497 146.755 522.826 146.535C523.155 146.315 523.542 146.198 523.937 146.198C524.468 146.198 524.977 146.408 525.352 146.784C525.727 147.159 525.937 147.667 525.937 148.198Z" stroke="white" stroke-width="0.9" stroke-miterlimit="10"/>
<path d="M536.148 148.198C536.148 148.593 536.031 148.98 535.811 149.309C535.592 149.638 535.279 149.894 534.914 150.046C534.548 150.197 534.146 150.237 533.758 150.159C533.37 150.082 533.014 149.892 532.734 149.612C532.455 149.332 532.264 148.976 532.187 148.588C532.11 148.2 532.149 147.798 532.301 147.432C532.452 147.067 532.708 146.755 533.037 146.535C533.366 146.315 533.753 146.198 534.148 146.198C534.679 146.198 535.188 146.408 535.563 146.784C535.938 147.159 536.148 147.667 536.148 148.198Z" stroke="white" stroke-width="0.9" stroke-miterlimit="10"/>
<path d="M546.359 148.198C546.359 148.593 546.242 148.98 546.022 149.309C545.803 149.638 545.49 149.894 545.125 150.046C544.759 150.197 544.357 150.237 543.969 150.159C543.581 150.082 543.225 149.892 542.945 149.612C542.665 149.332 542.475 148.976 542.398 148.588C542.321 148.2 542.36 147.798 542.512 147.432C542.663 147.067 542.919 146.755 543.248 146.535C543.577 146.315 543.964 146.198 544.359 146.198C544.89 146.198 545.399 146.408 545.774 146.784C546.149 147.159 546.359 147.667 546.359 148.198Z" stroke="white" stroke-width="0.9" stroke-miterlimit="10"/>
<path d="M131.137 190.718H184.247C185.88 190.718 187.447 191.367 188.602 192.522C189.758 193.677 190.407 195.244 190.407 196.878V209.408C190.409 210.907 189.863 212.355 188.872 213.48C187.882 214.606 186.514 215.33 185.027 215.518C184.813 215.547 184.616 215.651 184.473 215.813C184.33 215.974 184.25 216.182 184.247 216.398V223.268C184.247 223.354 184.221 223.437 184.17 223.507C184.12 223.576 184.049 223.627 183.967 223.653C183.885 223.679 183.797 223.678 183.716 223.65C183.635 223.622 183.565 223.569 183.517 223.498L178.107 215.948C178.025 215.83 177.915 215.734 177.788 215.668C177.661 215.602 177.52 215.568 177.377 215.568H131.137C129.503 215.568 127.936 214.919 126.781 213.764C125.626 212.608 124.977 211.042 124.977 209.408V196.908C124.973 196.096 125.129 195.292 125.437 194.541C125.745 193.79 126.198 193.108 126.77 192.533C127.343 191.957 128.023 191.501 128.772 191.19C129.522 190.878 130.325 190.718 131.137 190.718Z" stroke="white" stroke-width="0.9" stroke-miterlimit="10"/>
<path d="M176.062 203.158C176.062 203.554 176.18 203.94 176.4 204.269C176.619 204.598 176.932 204.854 177.297 205.006C177.663 205.157 178.065 205.197 178.453 205.12C178.841 205.042 179.197 204.852 179.477 204.572C179.756 204.292 179.947 203.936 180.024 203.548C180.101 203.16 180.062 202.758 179.91 202.393C179.759 202.027 179.503 201.715 179.174 201.495C178.845 201.275 178.458 201.158 178.062 201.158C177.532 201.158 177.023 201.369 176.648 201.744C176.273 202.119 176.062 202.628 176.062 203.158Z" stroke="white" stroke-width="0.9" stroke-miterlimit="10"/>
<path d="M165.852 203.158C165.852 203.554 165.969 203.94 166.189 204.269C166.408 204.598 166.721 204.854 167.086 205.006C167.452 205.157 167.854 205.197 168.242 205.12C168.63 205.042 168.986 204.852 169.266 204.572C169.545 204.292 169.736 203.936 169.813 203.548C169.89 203.16 169.851 202.758 169.699 202.393C169.548 202.027 169.292 201.715 168.963 201.495C168.634 201.275 168.247 201.158 167.852 201.158C167.321 201.158 166.812 201.369 166.437 201.744C166.062 202.119 165.852 202.628 165.852 203.158Z" stroke="white" stroke-width="0.9" stroke-miterlimit="10"/>
<path d="M155.648 203.158C155.648 203.554 155.766 203.94 155.986 204.269C156.205 204.598 156.518 204.854 156.883 205.006C157.249 205.157 157.651 205.197 158.039 205.12C158.427 205.042 158.783 204.852 159.063 204.572C159.342 204.292 159.533 203.936 159.61 203.548C159.687 203.16 159.648 202.758 159.496 202.393C159.345 202.027 159.088 201.715 158.76 201.495C158.431 201.275 158.044 201.158 157.648 201.158C157.118 201.158 156.609 201.369 156.234 201.744C155.859 202.119 155.648 202.628 155.648 203.158Z" stroke="white" stroke-width="0.9" stroke-miterlimit="10"/>
<path d="M145.438 203.158C145.438 203.554 145.555 203.94 145.775 204.269C145.994 204.598 146.307 204.854 146.672 205.006C147.038 205.157 147.44 205.197 147.828 205.12C148.216 205.042 148.572 204.852 148.852 204.572C149.131 204.292 149.322 203.936 149.399 203.548C149.476 203.16 149.437 202.758 149.285 202.393C149.134 202.027 148.878 201.715 148.549 201.495C148.22 201.275 147.833 201.158 147.438 201.158C146.907 201.158 146.398 201.369 146.023 201.744C145.648 202.119 145.438 202.628 145.438 203.158Z" stroke="white" stroke-width="0.9" stroke-miterlimit="10"/>
<path d="M135.25 203.158C135.25 203.554 135.367 203.94 135.587 204.269C135.807 204.598 136.119 204.854 136.485 205.006C136.85 205.157 137.252 205.197 137.64 205.12C138.028 205.042 138.385 204.852 138.664 204.572C138.944 204.292 139.134 203.936 139.212 203.548C139.289 203.16 139.249 202.758 139.098 202.393C138.946 202.027 138.69 201.715 138.361 201.495C138.032 201.275 137.646 201.158 137.25 201.158C136.72 201.158 136.211 201.369 135.836 201.744C135.461 202.119 135.25 202.628 135.25 203.158Z" stroke="white" stroke-width="0.9" stroke-miterlimit="10"/>
<path d="M451.61 106.868H354.89C352.333 106.863 349.883 105.844 348.076 104.035C346.269 102.226 345.253 99.7747 345.25 97.2179C345.25 94.6559 346.268 92.1988 348.079 90.3872C349.891 88.5756 352.348 87.5579 354.91 87.5579H451.63C454.185 87.5684 456.632 88.5909 458.435 90.4013C460.238 92.2118 461.25 94.6628 461.25 97.2179C461.247 99.7747 460.231 102.226 458.424 104.035C456.617 105.844 454.167 106.863 451.61 106.868Z" fill="white" stroke="#495AD6" stroke-width="0.9" stroke-miterlimit="10"/>
<path d="M450.186 96.548C450.186 97.5646 449.885 98.5583 449.32 99.4036C448.755 100.249 447.952 100.908 447.013 101.297C446.074 101.686 445.041 101.788 444.043 101.589C443.046 101.391 442.131 100.901 441.412 100.182C440.693 99.4636 440.203 98.5478 440.005 97.5507C439.807 96.5537 439.908 95.5202 440.298 94.581C440.687 93.6418 441.345 92.839 442.191 92.2742C443.036 91.7094 444.03 91.408 445.046 91.408C446.409 91.408 447.717 91.9495 448.681 92.9134C449.645 93.8774 450.186 95.1847 450.186 96.548Z" stroke="#495AD6" stroke-width="1.67" stroke-miterlimit="10"/>
<path d="M448.688 100.178L451.518 103.018" stroke="#495AD6" stroke-width="1.67" stroke-miterlimit="10" stroke-linecap="round"/>
<path d="M305.103 329.798H280.772C276.514 329.798 273.062 333.25 273.062 337.508V361.838C273.062 366.096 276.514 369.548 280.772 369.548H305.103C309.361 369.548 312.812 366.096 312.812 361.838V337.508C312.812 333.25 309.361 329.798 305.103 329.798Z" fill="#193091"/>
<path d="M297.86 329.798H273.53C269.272 329.798 265.82 333.25 265.82 337.508V361.838C265.82 366.096 269.272 369.548 273.53 369.548H297.86C302.118 369.548 305.57 366.096 305.57 361.838V337.508C305.57 333.25 302.118 329.798 297.86 329.798Z" fill="#495AD6"/>
<path d="M280.996 342.168L292.406 348.718C292.566 348.811 292.699 348.945 292.791 349.105C292.883 349.266 292.931 349.448 292.931 349.633C292.931 349.818 292.883 350 292.791 350.16C292.699 350.321 292.566 350.454 292.406 350.548L280.996 357.138C280.835 357.231 280.652 357.28 280.466 357.28C280.279 357.28 280.097 357.231 279.935 357.137C279.774 357.044 279.64 356.91 279.548 356.749C279.455 356.587 279.406 356.404 279.406 356.218V343.088C279.406 342.902 279.455 342.719 279.548 342.557C279.64 342.396 279.774 342.262 279.935 342.168C280.097 342.075 280.279 342.026 280.466 342.026C280.652 342.026 280.835 342.075 280.996 342.168Z" fill="white"/>
<path d="M556.778 317.588H524.978C519.411 317.588 514.898 322.101 514.898 327.668V359.468C514.898 365.035 519.411 369.548 524.978 369.548H556.778C562.345 369.548 566.858 365.035 566.858 359.468V327.668C566.858 322.101 562.345 317.588 556.778 317.588Z" fill="#193091"/>
<path d="M547.31 317.588H515.51C509.943 317.588 505.43 322.101 505.43 327.668V359.468C505.43 365.035 509.943 369.548 515.51 369.548H547.31C552.877 369.548 557.39 365.035 557.39 359.468V327.668C557.39 322.101 552.877 317.588 547.31 317.588Z" fill="#495AD6"/>
<path d="M537.656 330.338C537.658 331.574 537.293 332.784 536.608 333.813C535.922 334.842 534.947 335.645 533.805 336.119C532.663 336.594 531.406 336.719 530.193 336.479C528.98 336.239 527.865 335.645 526.99 334.771C526.115 333.897 525.519 332.784 525.277 331.571C525.035 330.358 525.158 329.101 525.631 327.958C526.104 326.816 526.905 325.839 527.933 325.152C528.961 324.465 530.17 324.098 531.406 324.098C532.227 324.097 533.039 324.257 533.797 324.57C534.555 324.883 535.245 325.342 535.825 325.922C536.406 326.502 536.866 327.19 537.18 327.948C537.495 328.705 537.656 329.518 537.656 330.338Z" fill="white"/>
<path d="M544.426 351.468V360.718C544.424 361.117 544.264 361.5 543.981 361.783C543.699 362.065 543.316 362.225 542.916 362.228H519.916C519.516 362.228 519.132 362.069 518.849 361.786C518.565 361.502 518.406 361.118 518.406 360.718V351.498C518.406 348.05 519.776 344.743 522.214 342.305C524.652 339.867 527.958 338.498 531.406 338.498C534.852 338.493 538.16 339.856 540.601 342.288C543.042 344.72 544.418 348.022 544.426 351.468Z" fill="white"/>
<path d="M415.25 117.998H394.79C394.383 117.998 393.993 117.837 393.705 117.55C393.416 117.264 393.253 116.875 393.25 116.468C393.25 116.06 393.412 115.668 393.701 115.379C393.99 115.09 394.382 114.928 394.79 114.928H415.25C415.658 114.928 416.05 115.09 416.339 115.379C416.628 115.668 416.79 116.06 416.79 116.468C416.787 116.875 416.624 117.264 416.335 117.55C416.047 117.837 415.657 117.998 415.25 117.998Z" fill="#F0F4FF"/>
<path d="M435.648 117.998H420.868C420.461 117.998 420.071 117.837 419.783 117.55C419.494 117.264 419.331 116.875 419.328 116.468C419.328 116.06 419.49 115.668 419.779 115.379C420.068 115.09 420.46 114.928 420.868 114.928H435.648C436.057 114.928 436.448 115.09 436.737 115.379C437.026 115.668 437.188 116.06 437.188 116.468C437.185 116.875 437.022 117.264 436.734 117.55C436.445 117.837 436.055 117.998 435.648 117.998Z" fill="#F0F4FF"/>
<path d="M403.47 124.718H394.79C394.388 124.718 394.003 124.561 393.715 124.281C393.427 124.001 393.26 123.619 393.25 123.218C393.25 122.81 393.412 122.418 393.701 122.129C393.99 121.84 394.382 121.678 394.79 121.678H403.47C403.877 121.681 404.266 121.844 404.552 122.133C404.839 122.421 405 122.811 405 123.218C404.99 123.618 404.824 123.998 404.539 124.278C404.253 124.558 403.87 124.716 403.47 124.718Z" fill="#F0F4FF"/>
<path d="M435.649 124.718H408.649C408.243 124.718 407.852 124.557 407.564 124.27C407.275 123.984 407.112 123.595 407.109 123.188C407.109 122.78 407.272 122.388 407.56 122.099C407.849 121.81 408.241 121.648 408.649 121.648H435.649C436.058 121.648 436.45 121.81 436.738 122.099C437.027 122.388 437.189 122.78 437.189 123.188C437.187 123.595 437.023 123.984 436.735 124.27C436.446 124.557 436.056 124.718 435.649 124.718Z" fill="#F0F4FF"/>
<path d="M421.71 131.498H394.79C394.383 131.498 393.993 131.337 393.705 131.05C393.416 130.764 393.253 130.375 393.25 129.968C393.25 129.56 393.412 129.168 393.701 128.879C393.99 128.59 394.382 128.428 394.79 128.428H421.71C422.118 128.428 422.51 128.59 422.799 128.879C423.088 129.168 423.25 129.56 423.25 129.968C423.247 130.375 423.084 130.764 422.795 131.05C422.507 131.337 422.117 131.498 421.71 131.498Z" fill="#F0F4FF"/>
<path d="M435.648 131.498H426.968C426.562 131.498 426.173 131.337 425.886 131.05C425.599 130.763 425.438 130.374 425.438 129.968C425.436 129.766 425.475 129.566 425.551 129.379C425.627 129.193 425.74 129.023 425.882 128.88C426.024 128.736 426.193 128.623 426.38 128.545C426.566 128.468 426.766 128.428 426.968 128.428H435.648C436.056 128.428 436.448 128.59 436.736 128.879C437.025 129.168 437.188 129.56 437.188 129.968C437.185 130.375 437.021 130.764 436.733 131.05C436.444 131.337 436.054 131.498 435.648 131.498Z" fill="#F0F4FF"/>
<path d="M156.531 231.148H85.2106C83.1009 231.148 81.3906 232.858 81.3906 234.968V270.978C81.3906 273.088 83.1009 274.798 85.2106 274.798H156.531C158.64 274.798 160.351 273.088 160.351 270.978V234.968C160.351 232.858 158.64 231.148 156.531 231.148Z" fill="#193091"/>
<path d="M84.75 237.038H157" stroke="white" stroke-width="0.9" stroke-miterlimit="10" stroke-linecap="round"/>
<path d="M155.089 234.908C155.569 234.908 155.959 234.518 155.959 234.038C155.959 233.557 155.569 233.168 155.089 233.168C154.608 233.168 154.219 233.557 154.219 234.038C154.219 234.518 154.608 234.908 155.089 234.908Z" fill="white"/>
<path d="M150.526 234.908C151.007 234.908 151.396 234.518 151.396 234.038C151.396 233.557 151.007 233.168 150.526 233.168C150.046 233.168 149.656 233.557 149.656 234.038C149.656 234.518 150.046 234.908 150.526 234.908Z" fill="white"/>
<path d="M145.964 234.908C146.444 234.908 146.834 234.518 146.834 234.038C146.834 233.557 146.444 233.168 145.964 233.168C145.483 233.168 145.094 233.557 145.094 234.038C145.094 234.518 145.483 234.908 145.964 234.908Z" fill="white"/>
<path d="M98.25 242.918H85.96C85.6408 242.918 85.3345 242.792 85.1079 242.567C84.8813 242.342 84.7526 242.037 84.75 241.718C84.75 241.397 84.8775 241.089 85.1044 240.862C85.3313 240.635 85.6391 240.508 85.96 240.508H98.25C98.4089 240.508 98.5662 240.539 98.713 240.6C98.8598 240.661 98.9932 240.75 99.1056 240.862C99.218 240.975 99.3071 241.108 99.3679 241.255C99.4287 241.402 99.46 241.559 99.46 241.718C99.4574 242.037 99.3287 242.342 99.1021 242.567C98.8754 242.792 98.5692 242.918 98.25 242.918Z" fill="#6589D1"/>
<path d="M98.25 248.498H85.96C85.6391 248.498 85.3313 248.37 85.1044 248.143C84.8775 247.917 84.75 247.609 84.75 247.288C84.75 246.967 84.8775 246.659 85.1044 246.432C85.3313 246.205 85.6391 246.078 85.96 246.078H98.25C98.4089 246.078 98.5662 246.109 98.713 246.17C98.8598 246.231 98.9932 246.32 99.1056 246.432C99.218 246.545 99.3071 246.678 99.3679 246.825C99.4287 246.972 99.46 247.129 99.46 247.288C99.46 247.447 99.4287 247.604 99.3679 247.751C99.3071 247.898 99.218 248.031 99.1056 248.143C98.9932 248.256 98.8598 248.345 98.713 248.406C98.5662 248.467 98.4089 248.498 98.25 248.498Z" fill="#6589D1"/>
<path d="M98.25 254.078H85.96C85.6408 254.078 85.3345 253.952 85.1079 253.727C84.8813 253.502 84.7526 253.197 84.75 252.878C84.75 252.557 84.8775 252.249 85.1044 252.022C85.3313 251.795 85.6391 251.668 85.96 251.668H98.25C98.4089 251.668 98.5662 251.699 98.713 251.76C98.8598 251.821 98.9932 251.91 99.1056 252.022C99.218 252.135 99.3071 252.268 99.3679 252.415C99.4287 252.562 99.46 252.719 99.46 252.878C99.4574 253.197 99.3287 253.502 99.1021 253.727C98.8754 253.952 98.5692 254.078 98.25 254.078Z" fill="#6589D1"/>
<path d="M98.25 259.718H85.96C85.6391 259.718 85.3313 259.59 85.1044 259.363C84.8775 259.137 84.75 258.829 84.75 258.508C84.75 258.187 84.8775 257.879 85.1044 257.652C85.3313 257.425 85.6391 257.298 85.96 257.298H98.25C98.4089 257.298 98.5662 257.329 98.713 257.39C98.8598 257.451 98.9932 257.54 99.1056 257.652C99.218 257.765 99.3071 257.898 99.3679 258.045C99.4287 258.192 99.46 258.349 99.46 258.508C99.46 258.667 99.4287 258.824 99.3679 258.971C99.3071 259.118 99.218 259.251 99.1056 259.363C98.9932 259.476 98.8598 259.565 98.713 259.626C98.5662 259.687 98.4089 259.718 98.25 259.718Z" fill="#6589D1"/>
<path d="M98.25 265.248H85.96C85.6391 265.248 85.3313 265.12 85.1044 264.893C84.8775 264.667 84.75 264.359 84.75 264.038C84.75 263.717 84.8775 263.409 85.1044 263.182C85.3313 262.955 85.6391 262.828 85.96 262.828H98.25C98.4089 262.828 98.5662 262.859 98.713 262.92C98.8598 262.981 98.9932 263.07 99.1056 263.182C99.218 263.295 99.3071 263.428 99.3679 263.575C99.4287 263.722 99.46 263.879 99.46 264.038C99.46 264.197 99.4287 264.354 99.3679 264.501C99.3071 264.648 99.218 264.781 99.1056 264.893C98.9932 265.006 98.8598 265.095 98.713 265.156C98.5662 265.217 98.4089 265.248 98.25 265.248Z" fill="#6589D1"/>
<path d="M98.25 270.828H85.96C85.6408 270.828 85.3345 270.702 85.1079 270.477C84.8813 270.252 84.7526 269.947 84.75 269.628C84.75 269.307 84.8775 268.999 85.1044 268.772C85.3313 268.545 85.6391 268.418 85.96 268.418H98.25C98.4089 268.418 98.5662 268.449 98.713 268.51C98.8598 268.571 98.9932 268.66 99.1056 268.772C99.218 268.885 99.3071 269.018 99.3679 269.165C99.4287 269.312 99.46 269.469 99.46 269.628C99.4574 269.947 99.3287 270.252 99.1021 270.477C98.8754 270.702 98.5692 270.828 98.25 270.828Z" fill="#6589D1"/>
<path d="M155.79 242.918H102.96C102.641 242.918 102.335 242.792 102.108 242.567C101.881 242.342 101.753 242.037 101.75 241.718C101.75 241.397 101.877 241.089 102.104 240.862C102.331 240.635 102.639 240.508 102.96 240.508H155.79C156.111 240.508 156.419 240.635 156.646 240.862C156.873 241.089 157 241.397 157 241.718C156.997 242.037 156.869 242.342 156.642 242.567C156.415 242.792 156.109 242.918 155.79 242.918Z" fill="#3B5FB7"/>
<path d="M155.79 248.498H102.96C102.639 248.498 102.331 248.37 102.104 248.143C101.877 247.917 101.75 247.609 101.75 247.288C101.75 246.967 101.877 246.659 102.104 246.432C102.331 246.205 102.639 246.078 102.96 246.078H155.79C156.111 246.078 156.419 246.205 156.646 246.432C156.873 246.659 157 246.967 157 247.288C157 247.447 156.969 247.604 156.908 247.751C156.847 247.898 156.758 248.031 156.646 248.143C156.533 248.256 156.4 248.345 156.253 248.406C156.106 248.467 155.949 248.498 155.79 248.498Z" fill="#3B5FB7"/>
<path d="M155.79 254.078H102.96C102.641 254.078 102.335 253.952 102.108 253.727C101.881 253.502 101.753 253.197 101.75 252.878C101.75 252.557 101.877 252.249 102.104 252.022C102.331 251.795 102.639 251.668 102.96 251.668H155.79C156.111 251.668 156.419 251.795 156.646 252.022C156.873 252.249 157 252.557 157 252.878C156.997 253.197 156.869 253.502 156.642 253.727C156.415 253.952 156.109 254.078 155.79 254.078Z" fill="#3B5FB7"/>
<path d="M155.79 259.718H102.96C102.639 259.718 102.331 259.59 102.104 259.363C101.877 259.137 101.75 258.829 101.75 258.508C101.75 258.187 101.877 257.879 102.104 257.652C102.331 257.425 102.639 257.298 102.96 257.298H155.79C156.111 257.298 156.419 257.425 156.646 257.652C156.873 257.879 157 258.187 157 258.508C157 258.667 156.969 258.824 156.908 258.971C156.847 259.118 156.758 259.251 156.646 259.363C156.533 259.476 156.4 259.565 156.253 259.626C156.106 259.687 155.949 259.718 155.79 259.718Z" fill="#3B5FB7"/>
<path d="M155.79 265.248H102.96C102.639 265.248 102.331 265.12 102.104 264.893C101.877 264.667 101.75 264.359 101.75 264.038C101.75 263.717 101.877 263.409 102.104 263.182C102.331 262.955 102.639 262.828 102.96 262.828H155.79C156.111 262.828 156.419 262.955 156.646 263.182C156.873 263.409 157 263.717 157 264.038C157 264.197 156.969 264.354 156.908 264.501C156.847 264.648 156.758 264.781 156.646 264.893C156.533 265.006 156.4 265.095 156.253 265.156C156.106 265.217 155.949 265.248 155.79 265.248Z" fill="#3B5FB7"/>
<path d="M155.79 270.828H102.96C102.641 270.828 102.335 270.702 102.108 270.477C101.881 270.252 101.753 269.947 101.75 269.628C101.75 269.307 101.877 268.999 102.104 268.772C102.331 268.545 102.639 268.418 102.96 268.418H155.79C156.111 268.418 156.419 268.545 156.646 268.772C156.873 268.999 157 269.307 157 269.628C156.997 269.947 156.869 270.252 156.642 270.477C156.415 270.702 156.109 270.828 155.79 270.828Z" fill="#3B5FB7"/>
<path d="M526.695 46.7612C530.877 29.3004 520.113 11.7551 502.652 7.57275C485.191 3.39043 467.646 14.1548 463.463 31.6157C459.281 49.0766 470.045 66.6219 487.506 70.8042C504.967 74.9865 522.512 64.2221 526.695 46.7612Z" stroke="#DEE3FC" stroke-width="0.79" stroke-miterlimit="10"/>
<path d="M506.55 65.0301C520.823 58.7143 527.273 42.0241 520.957 27.7515C514.642 13.4789 497.951 7.0287 483.679 13.3445C469.406 19.6603 462.956 36.3505 469.272 50.6231C475.588 64.8957 492.278 71.3459 506.55 65.0301Z" fill="#3945BA"/>
<path d="M497.691 39.208C497.693 39.7191 497.543 40.2193 497.261 40.6451C496.978 41.0709 496.575 41.4031 496.103 41.5996C495.631 41.7961 495.112 41.8481 494.61 41.7489C494.109 41.6496 493.648 41.4037 493.287 41.0423C492.926 40.6809 492.68 40.2202 492.58 39.7188C492.481 39.2174 492.533 38.6978 492.73 38.226C492.926 37.7542 493.258 37.3513 493.684 37.0686C494.11 36.7859 494.61 36.636 495.121 36.638C495.803 36.638 496.457 36.9087 496.938 37.3907C497.42 37.8727 497.691 38.5264 497.691 39.208Z" fill="white"/>
<path d="M494.83 38.7179C494.644 38.8191 494.425 38.8432 494.222 38.7853C494.018 38.7273 493.845 38.5919 493.74 38.4079L485.43 23.4079C485.379 23.3161 485.346 23.2149 485.334 23.1104C485.321 23.0058 485.33 22.8998 485.359 22.7986C485.387 22.6973 485.436 22.6027 485.501 22.5203C485.567 22.4378 485.648 22.369 485.74 22.3179C485.928 22.2163 486.147 22.1919 486.353 22.2497C486.558 22.3076 486.733 22.4433 486.84 22.6279L495.15 37.6279C495.25 37.8153 495.273 38.0345 495.213 38.2384C495.153 38.4423 495.016 38.6145 494.83 38.7179Z" fill="white"/>
<path d="M495.52 39.6178C495.672 39.4676 495.877 39.3833 496.09 39.3833C496.304 39.3833 496.508 39.4676 496.66 39.6178L503.85 46.8078C503.926 46.8822 503.986 46.971 504.027 47.0688C504.068 47.1667 504.089 47.2717 504.089 47.3778C504.089 47.4839 504.068 47.5889 504.027 47.6868C503.986 47.7846 503.926 47.8734 503.85 47.9478C503.776 48.0234 503.687 48.0834 503.589 48.1244C503.491 48.1654 503.386 48.1865 503.28 48.1865C503.174 48.1865 503.069 48.1654 502.971 48.1244C502.873 48.0834 502.785 48.0234 502.71 47.9478L495.52 40.7178C495.382 40.5681 495.305 40.3717 495.305 40.1678C495.305 39.9639 495.382 39.7675 495.52 39.6178Z" fill="white"/>
<path d="M495.289 16.5979V13.3479" stroke="white" stroke-width="2" stroke-miterlimit="10" stroke-linecap="round"/>
<path d="M517.727 39.3879H520.977" stroke="white" stroke-width="2" stroke-miterlimit="10" stroke-linecap="round"/>
<path d="M494.938 61.8279V65.0779" stroke="white" stroke-width="2" stroke-miterlimit="10" stroke-linecap="round"/>
<path d="M472.5 39.0378H469.25" stroke="white" stroke-width="2" stroke-miterlimit="10" stroke-linecap="round"/>
<g opacity="0.5">
<path d="M483.958 19.5378L482.328 16.7178" stroke="#DEE3FC" stroke-miterlimit="10" stroke-linecap="round"/>
<path d="M514.789 28.0477L517.609 26.4277" stroke="#DEE3FC" stroke-miterlimit="10" stroke-linecap="round"/>
<path d="M506.273 58.8877L507.893 61.6977" stroke="#DEE3FC" stroke-miterlimit="10" stroke-linecap="round"/>
<path d="M475.437 50.3677L472.617 51.9977" stroke="#DEE3FC" stroke-miterlimit="10" stroke-linecap="round"/>
</g>
<g opacity="0.5">
<path d="M475.607 27.7479L472.797 26.1279" stroke="#DEE3FC" stroke-miterlimit="10" stroke-linecap="round"/>
<path d="M506.57 19.7079L508.2 16.8979" stroke="#DEE3FC" stroke-miterlimit="10" stroke-linecap="round"/>
<path d="M514.617 50.668L517.427 52.298" stroke="#DEE3FC" stroke-miterlimit="10" stroke-linecap="round"/>
<path d="M483.653 58.718L482.023 61.528" stroke="#DEE3FC" stroke-miterlimit="10" stroke-linecap="round"/>
</g>
<path d="M108.901 147.958H73.2106C67.9253 147.958 63.6406 152.242 63.6406 157.528V193.218C63.6406 198.503 67.9253 202.788 73.2106 202.788H108.901C114.186 202.788 118.471 198.503 118.471 193.218V157.528C118.471 152.242 114.186 147.958 108.901 147.958Z" fill="#193091"/>
<path d="M106.551 143.208H67.0606C62.8246 143.208 59.3906 146.642 59.3906 150.878V190.368C59.3906 194.604 62.8246 198.038 67.0606 198.038H106.551C110.787 198.038 114.221 194.604 114.221 190.368V150.878C114.221 146.642 110.787 143.208 106.551 143.208Z" fill="#7E89FD" stroke="#DEE3FC" stroke-miterlimit="10"/>
<path d="M96.3072 164.348H96.0172V161.208C96.0172 158.728 95.0321 156.35 93.2786 154.596C91.5252 152.843 89.147 151.858 86.6672 151.858C84.1874 151.858 81.8092 152.843 80.0557 154.596C78.3023 156.35 77.3172 158.728 77.3172 161.208V164.348H77.2472C76.5497 164.348 75.8807 164.625 75.3875 165.118C74.8943 165.611 74.6172 166.28 74.6172 166.978V178.808C74.6172 179.505 74.8943 180.174 75.3875 180.668C75.8807 181.161 76.5497 181.438 77.2472 181.438H96.2972C96.993 181.435 97.6594 181.157 98.1504 180.664C98.6415 180.171 98.9172 179.504 98.9172 178.808V166.978C98.9172 166.284 98.6429 165.618 98.154 165.125C97.6651 164.633 97.0012 164.353 96.3072 164.348ZM79.6872 161.208C79.6872 159.351 80.4247 157.571 81.7374 156.258C83.0502 154.945 84.8307 154.208 86.6872 154.208C88.5437 154.208 90.3242 154.945 91.6369 156.258C92.9497 157.571 93.6872 159.351 93.6872 161.208V164.348H79.6872V161.208Z" fill="#DEE3FC"/>
<path d="M89.8578 170.438C89.8583 169.903 89.7181 169.378 89.4514 168.914C89.1847 168.451 88.8009 168.065 88.3383 167.797C87.8757 167.529 87.3508 167.387 86.816 167.385C86.2812 167.384 85.7555 167.523 85.2915 167.789C84.8275 168.055 84.4416 168.438 84.1724 168.9C83.9032 169.362 83.7602 169.887 83.7578 170.422C83.7554 170.956 83.8937 171.482 84.1587 171.947C84.4237 172.411 84.8062 172.798 85.2678 173.068C85.3753 173.124 85.461 173.215 85.5117 173.325C85.5623 173.436 85.575 173.56 85.5478 173.678L85.0178 175.678C84.9467 175.949 84.9387 176.232 84.9943 176.506C85.05 176.781 85.1678 177.039 85.3388 177.26C85.5097 177.482 85.7293 177.661 85.9805 177.785C86.2317 177.908 86.5079 177.973 86.7878 177.973C87.0677 177.973 87.3439 177.908 87.5951 177.785C87.8463 177.661 88.0659 177.482 88.2368 177.26C88.4078 177.039 88.5257 176.781 88.5813 176.506C88.6369 176.232 88.6289 175.949 88.5578 175.678L88.0278 173.738C87.9982 173.618 88.0097 173.492 88.0605 173.379C88.1112 173.267 88.1984 173.175 88.3078 173.118C88.7854 172.854 89.1821 172.466 89.4552 171.993C89.7283 171.521 89.8675 170.983 89.8578 170.438Z" fill="#7E89FD"/>
<path d="M97.8019 185.588H75.8019C75.503 185.585 75.2171 185.465 75.0057 185.254C74.7944 185.043 74.6745 184.757 74.6719 184.458C74.6745 184.16 74.7947 183.875 75.0064 183.665C75.218 183.456 75.5039 183.338 75.8019 183.338H97.8019C97.9498 183.337 98.0965 183.365 98.2336 183.42C98.3706 183.476 98.4952 183.558 98.6003 183.662C98.7054 183.767 98.7888 183.89 98.8457 184.027C98.9026 184.164 98.9319 184.31 98.9319 184.458C98.9319 184.758 98.8128 185.045 98.6009 185.257C98.389 185.469 98.1016 185.588 97.8019 185.588Z" fill="#DEE3FC"/>
<path d="M97.8019 189.398H75.8019C75.5039 189.398 75.218 189.28 75.0064 189.071C74.7947 188.861 74.6745 188.576 74.6719 188.278C74.6719 187.978 74.7909 187.691 75.0029 187.479C75.2148 187.267 75.5022 187.148 75.8019 187.148H97.8019C97.9506 187.147 98.0982 187.175 98.2359 187.231C98.3736 187.288 98.4987 187.371 98.6039 187.476C98.7091 187.581 98.7923 187.706 98.8486 187.844C98.9049 187.982 98.9332 188.129 98.9319 188.278C98.9319 188.426 98.9026 188.572 98.8457 188.709C98.7888 188.845 98.7054 188.969 98.6003 189.074C98.4952 189.178 98.3706 189.26 98.2336 189.316C98.0965 189.371 97.9498 189.399 97.8019 189.398Z" fill="#DEE3FC"/>
<path d="M540.83 234.968H519.81C516.7 234.968 514.18 237.488 514.18 240.598V261.618C514.18 264.727 516.7 267.248 519.81 267.248H540.83C543.939 267.248 546.46 264.727 546.46 261.618V240.598C546.46 237.488 543.939 234.968 540.83 234.968Z" fill="#193091"/>
<path d="M539.442 232.168H516.182C513.691 232.168 511.672 234.187 511.672 236.678V259.938C511.672 262.429 513.691 264.448 516.182 264.448H539.442C541.933 264.448 543.952 262.429 543.952 259.938V236.678C543.952 234.187 541.933 232.168 539.442 232.168Z" fill="#7E89FD" stroke="#DEE3FC" stroke-miterlimit="10"/>
<path d="M521.249 257.958C521.159 257.967 521.069 257.967 520.979 257.958C520.852 257.922 520.734 257.862 520.63 257.78C520.527 257.698 520.44 257.597 520.376 257.481C520.312 257.366 520.271 257.239 520.256 257.108C520.242 256.977 520.253 256.844 520.289 256.718L525.249 239.398C525.321 239.144 525.491 238.928 525.722 238.799C525.952 238.67 526.225 238.637 526.479 238.708C526.606 238.743 526.725 238.804 526.828 238.886C526.932 238.967 527.018 239.069 527.082 239.184C527.146 239.299 527.187 239.426 527.202 239.557C527.217 239.688 527.206 239.821 527.169 239.948L522.249 257.228C522.189 257.444 522.057 257.634 521.876 257.766C521.694 257.899 521.474 257.966 521.249 257.958Z" fill="white"/>
<path d="M529.462 257.958C529.369 257.968 529.275 257.968 529.182 257.958C529.055 257.922 528.937 257.862 528.833 257.78C528.73 257.698 528.643 257.597 528.579 257.481C528.515 257.366 528.474 257.239 528.46 257.108C528.445 256.977 528.456 256.845 528.492 256.718L533.382 239.438C533.455 239.184 533.625 238.968 533.855 238.839C534.085 238.71 534.358 238.677 534.612 238.748C534.739 238.784 534.858 238.844 534.961 238.926C535.065 239.008 535.151 239.109 535.215 239.224C535.28 239.339 535.32 239.466 535.335 239.597C535.35 239.728 535.339 239.861 535.302 239.988L530.422 257.268C530.356 257.47 530.228 257.646 530.055 257.77C529.883 257.894 529.675 257.96 529.462 257.958Z" fill="white"/>
<path d="M536.452 245.398H519.172C518.907 245.398 518.652 245.293 518.465 245.105C518.277 244.918 518.172 244.663 518.172 244.398C518.172 244.133 518.277 243.878 518.465 243.691C518.652 243.503 518.907 243.398 519.172 243.398H536.452C536.717 243.398 536.971 243.503 537.159 243.691C537.347 243.878 537.452 244.133 537.452 244.398C537.452 244.663 537.347 244.918 537.159 245.105C536.971 245.293 536.717 245.398 536.452 245.398Z" fill="white"/>
<path d="M536.452 253.288H519.172C518.907 253.288 518.652 253.182 518.465 252.995C518.277 252.807 518.172 252.553 518.172 252.288C518.172 252.023 518.277 251.768 518.465 251.581C518.652 251.393 518.907 251.288 519.172 251.288H536.452C536.717 251.288 536.971 251.393 537.159 251.581C537.347 251.768 537.452 252.023 537.452 252.288C537.452 252.553 537.347 252.807 537.159 252.995C536.971 253.182 536.717 253.288 536.452 253.288Z" fill="white"/>
<path d="M151.12 164.718H138.62C138.257 164.718 137.908 164.573 137.651 164.317C137.394 164.06 137.25 163.711 137.25 163.348C137.25 162.984 137.394 162.636 137.651 162.379C137.908 162.122 138.257 161.978 138.62 161.978H151.12C151.483 161.978 151.832 162.122 152.089 162.379C152.346 162.636 152.49 162.984 152.49 163.348C152.49 163.711 152.346 164.06 152.089 164.317C151.832 164.573 151.483 164.718 151.12 164.718Z" fill="#F0F4FF"/>
<path d="M163.71 170.788H138.62C138.257 170.788 137.908 170.644 137.651 170.387C137.394 170.13 137.25 169.781 137.25 169.418C137.253 169.055 137.398 168.708 137.654 168.452C137.911 168.196 138.257 168.05 138.62 168.048H163.71C164.073 168.048 164.422 168.192 164.679 168.449C164.936 168.706 165.08 169.055 165.08 169.418C165.08 169.781 164.936 170.13 164.679 170.387C164.422 170.644 164.073 170.788 163.71 170.788Z" fill="#F0F4FF"/>
<path d="M141.589 176.878H138.589C138.226 176.875 137.879 176.73 137.623 176.474C137.367 176.217 137.221 175.87 137.219 175.508C137.219 175.145 137.363 174.796 137.62 174.539C137.877 174.282 138.225 174.138 138.589 174.138H141.589C141.952 174.138 142.301 174.282 142.557 174.539C142.814 174.796 142.959 175.145 142.959 175.508C142.956 175.87 142.811 176.217 142.555 176.474C142.298 176.73 141.951 176.875 141.589 176.878Z" fill="#F0F4FF"/>
<path d="M163.713 176.878H146.253C145.89 176.875 145.543 176.73 145.287 176.474C145.031 176.217 144.885 175.87 144.883 175.508C144.883 175.145 145.027 174.796 145.284 174.539C145.541 174.282 145.889 174.138 146.253 174.138H163.723C164.086 174.138 164.435 174.282 164.692 174.539C164.948 174.796 165.093 175.145 165.093 175.508C165.093 175.689 165.057 175.868 164.988 176.035C164.918 176.201 164.816 176.353 164.688 176.48C164.56 176.608 164.408 176.708 164.24 176.777C164.073 176.845 163.894 176.879 163.713 176.878Z" fill="#F0F4FF"/>
<path d="M163.713 164.718H156.143C155.78 164.718 155.432 164.573 155.175 164.317C154.918 164.06 154.773 163.711 154.773 163.348C154.773 162.984 154.918 162.636 155.175 162.379C155.432 162.122 155.78 161.978 156.143 161.978H163.713C164.077 161.978 164.425 162.122 164.682 162.379C164.939 162.636 165.083 162.984 165.083 163.348C165.083 163.711 164.939 164.06 164.682 164.317C164.425 164.573 164.077 164.718 163.713 164.718Z" fill="#F0F4FF"/>
<path d="M93.2524 351.638C91.6857 351.632 90.1471 352.054 88.8024 352.858C88.5324 350.486 87.3651 348.307 85.54 346.768C83.7149 345.229 81.3702 344.446 78.9865 344.58C76.6029 344.715 74.3609 345.756 72.7201 347.49C71.0794 349.224 70.1643 351.52 70.1624 353.908C70.1633 354.242 70.1833 354.576 70.2224 354.908C69.2439 354.719 68.2367 354.736 67.2655 354.96C66.2943 355.183 65.3807 355.608 64.5833 356.205C63.786 356.803 63.1227 357.561 62.636 358.431C62.1493 359.301 61.85 360.263 61.7574 361.255C61.6649 362.247 61.781 363.248 62.0985 364.192C62.4159 365.137 62.9276 366.005 63.6006 366.74C64.2736 367.475 65.093 368.061 66.0061 368.46C66.9193 368.859 67.9058 369.063 68.9024 369.058H93.2524C94.423 369.098 95.5897 368.901 96.6828 368.481C97.776 368.06 98.7734 367.424 99.6155 366.61C100.458 365.795 101.127 364.82 101.585 363.742C102.042 362.664 102.278 361.504 102.278 360.333C102.278 359.162 102.042 358.002 101.585 356.924C101.127 355.846 100.458 354.87 99.6155 354.056C98.7734 353.242 97.776 352.606 96.6828 352.185C95.5897 351.765 94.423 351.568 93.2524 351.608V351.638Z" fill="white"/>
<path d="M31.2538 314.158C31.0167 312.857 31.061 311.52 31.3838 310.238C33.1918 303.286 33.0395 295.969 30.9438 289.098C26.2738 274.508 7.34375 261.588 7.34375 261.588C7.34375 261.588 12.4738 283.118 16.7038 292.278C19.7938 298.988 25.2038 306.628 28.2138 310.648C29.0475 311.76 29.6123 313.051 29.8638 314.418C31.7261 324.408 32.6136 334.556 32.5138 344.718L33.9338 344.778C34.0377 334.508 33.1401 324.253 31.2538 314.158Z" fill="#DEE3FC"/>
<path d="M46.3913 300.448C48.8967 291.97 50.7389 283.311 51.9013 274.548C51.9013 274.548 34.9013 288.548 33.5313 299.388C32.8559 304.447 33.2511 309.591 34.6913 314.488C35.098 315.814 35.234 317.208 35.0913 318.588C34.0398 328.007 33.9225 337.506 34.7413 346.948L36.0213 346.798C35.2517 337.938 35.3186 329.025 36.2213 320.178C36.4315 318.115 37.2455 316.16 38.5613 314.558C42.0094 310.371 44.663 305.589 46.3913 300.448Z" fill="#B4C1EF"/>
<path d="M63.6403 273.998C63.6403 273.998 45.3503 280.788 40.5703 295.718C38.4043 302.818 38.2658 310.383 40.1703 317.558C40.4802 318.782 40.4802 320.064 40.1703 321.288C37.4749 332.837 36.0167 344.64 35.8203 356.498H37.2503C37.4492 344.899 38.8602 333.353 41.4603 322.048C41.8665 320.372 42.6043 318.794 43.6303 317.408C46.7503 313.208 52.0603 305.648 55.1303 298.978C59.4803 289.598 63.6403 273.998 63.6403 273.998Z" fill="#DEE3FC"/>
<path d="M31.37 337.008C30.9092 331.276 29.4824 325.664 27.15 320.408C26.7342 319.466 26.5854 318.428 26.72 317.408C27.0635 314.428 26.9182 311.411 26.29 308.478C24.81 301.148 15.08 285.318 1 284.388C3.82397 288.965 6.28484 293.756 8.36 298.718C11.52 306.988 16.04 315.638 23.52 318.958C24.8358 319.549 25.8741 320.623 26.42 321.958C28.4436 326.769 29.6827 331.874 30.09 337.078L31.37 337.008Z" fill="#B4C1EF"/>
<path d="M21.8521 369.078H45.0921L51.0921 332.238C51.1527 331.854 51.1296 331.463 51.0244 331.089C50.9192 330.715 50.7344 330.369 50.4826 330.073C50.2309 329.778 49.9181 329.54 49.5659 329.377C49.2137 329.214 48.8303 329.129 48.4421 329.128H18.4421C18.0537 329.127 17.6698 329.211 17.3171 329.374C16.9644 329.536 16.6515 329.774 16.4001 330.07C16.1488 330.366 15.965 330.714 15.8617 331.088C15.7585 331.462 15.7381 331.855 15.8021 332.238L21.8521 369.078Z" fill="#DEE3FC"/>
<path d="M1.25 368.718L567.25 368.718" stroke="white" stroke-width="1.11" stroke-miterlimit="10" stroke-linecap="round"/>
</svg>
