<svg width="491" height="390" viewBox="0 0 491 390" fill="none" xmlns="http://www.w3.org/2000/svg">
<path d="M228.541 304.742C182.411 290.526 76.7956 257.15 96.9334 163.457C120.158 55.2295 248.108 128.62 326.598 92.0022C382.154 66.0968 498.123 38.7786 489.607 155.735C481.324 269.498 476.572 351.917 409.162 371.474C341.752 391.032 298.302 326.225 228.541 304.742Z" fill="white"/>
<path opacity="0.7" d="M228.541 304.742C182.411 290.526 76.7956 257.15 96.9334 163.457C120.158 55.2295 248.108 128.62 326.598 92.0022C382.154 66.0968 498.123 38.7786 489.607 155.735C481.324 269.498 476.572 351.917 409.162 371.474C341.752 391.032 298.302 326.225 228.541 304.742Z" fill="white"/>
<path d="M89.3984 388.342H489.601" stroke="#263238" stroke-linecap="round" stroke-linejoin="round"/>
<path d="M80.34 275.43C86.1462 280.268 84.2108 308.719 102.365 296.477C120.519 284.236 89.5913 276.988 91.3525 270.05C93.8298 260.373 134.676 271.985 127.825 253.405C120.974 234.825 96.549 262.772 90.1332 255.853C84.2302 249.486 113.629 226.474 99.9263 222.564C86.2237 218.655 89.1364 251.934 80.34 251.934C73.4694 251.934 74.7564 220.116 62.1279 231.371C49.4994 242.625 77.0982 253.724 73.4887 260.711C70.7404 266.024 49.0155 252.912 49.9929 265.153C50.9703 277.394 74.1468 270.311 80.34 275.43Z" fill="#0E2B5C"/>
<path d="M84.2062 260.876C84.2062 260.876 71.0068 276.872 72.4777 320.467" stroke="#263238" stroke-linecap="round" stroke-linejoin="round"/>
<path d="M109.982 283.549C107.64 278.836 88.2179 275.614 99.3368 265.385C110.456 255.157 110.417 277.085 115.362 276.998C122.281 276.882 120.936 247.56 132.355 255.128C143.774 262.695 121.071 274.666 124.71 280.075C128.049 285.059 148.196 268.956 148.651 278.798C149.106 288.639 127.187 281.352 125.784 287.284C124.691 291.9 146.29 296.1 136.709 302.768C127.129 309.435 124.062 289.152 118.797 290.468C114.781 291.436 120.142 308.167 112.072 305.555C104.001 302.942 112.439 288.484 109.982 283.549Z" fill="#65C2FF"/>
<path opacity="0.3" d="M109.982 283.549C107.64 278.836 88.2179 275.614 99.3368 265.385C110.456 255.157 110.417 277.085 115.362 276.998C122.281 276.882 120.936 247.56 132.355 255.128C143.774 262.695 121.071 274.666 124.71 280.075C128.049 285.059 148.196 268.956 148.651 278.798C149.106 288.639 127.187 281.352 125.784 287.284C124.691 291.9 146.29 296.1 136.709 302.768C127.129 309.435 124.062 289.152 118.797 290.468C114.781 291.436 120.142 308.167 112.072 305.555C104.001 302.942 112.439 288.484 109.982 283.549Z" fill="black"/>
<path d="M120.014 283.752C120.014 283.752 82.3996 279.833 78.6836 320.466" stroke="#263238" stroke-linecap="round" stroke-linejoin="round"/>
<path d="M48.2509 279.349C42.4447 284.188 44.3801 312.638 26.226 300.397C8.07193 288.155 39.0093 280.898 37.2384 273.969C34.7708 264.292 -6.08554 275.904 0.775463 257.324C7.63647 238.745 32.0419 266.701 38.5158 259.773C44.4091 253.415 15.02 230.403 28.7227 226.484C42.4253 222.565 39.4738 255.863 48.2993 255.863C55.17 255.863 53.8926 224.035 66.5211 235.3C79.1496 246.564 51.5411 257.653 55.1603 264.64C57.8989 269.953 79.6335 256.841 78.6561 269.072C77.6787 281.304 54.4151 274.23 48.2509 279.349Z" fill="#65C2FF"/>
<path opacity="0.7" d="M48.2509 279.349C42.4447 284.188 44.3801 312.638 26.226 300.397C8.07193 288.155 39.0093 280.898 37.2384 273.969C34.7708 264.292 -6.08554 275.904 0.775463 257.324C7.63647 238.745 32.0419 266.701 38.5158 259.773C44.4091 253.415 15.02 230.403 28.7227 226.484C42.4253 222.565 39.4738 255.863 48.2993 255.863C55.17 255.863 53.8926 224.035 66.5211 235.3C79.1496 246.564 51.5411 257.653 55.1603 264.64C57.8989 269.953 79.6335 256.841 78.6561 269.072C77.6787 281.304 54.4151 274.23 48.2509 279.349Z" fill="white"/>
<path d="M44.0938 264.795C44.0938 264.795 61.2221 287.671 65.1413 325.847" stroke="#263238" stroke-linecap="round" stroke-linejoin="round"/>
<path d="M56.3519 385.584H83.0604C85.5399 385.595 87.9323 384.67 89.7601 382.995C91.5879 381.319 92.7167 379.016 92.9213 376.545L97.1211 327.193C97.2307 325.837 97.0584 324.473 96.615 323.188C96.1717 321.902 95.467 320.722 94.5452 319.722C93.6234 318.722 92.5046 317.924 91.2591 317.378C90.0137 316.831 88.6686 316.549 87.3086 316.548H52.1521C50.7925 316.549 49.4478 316.831 48.2028 317.378C46.9578 317.924 45.8395 318.722 44.9185 319.723C43.9975 320.723 43.2937 321.903 42.8515 323.188C42.4093 324.474 42.2383 325.837 42.3492 327.193L46.5491 376.545C46.7507 379.007 47.8706 381.303 49.6866 382.978C51.5026 384.652 53.8818 385.582 56.3519 385.584Z" fill="#C0C0C0" stroke="#263238" stroke-linecap="round" stroke-linejoin="round"/>
<path d="M382.29 317.304C373.358 317.304 347.578 311.498 347.578 311.498H417.001C417.001 311.498 391.212 317.304 382.29 317.304Z" fill="#263238" stroke="#263238" stroke-linecap="round" stroke-linejoin="round"/>
<path d="M390.241 314.391H374.332V325.297H390.241V314.391Z" fill="#858585" stroke="#263238" stroke-linecap="round" stroke-linejoin="round"/>
<path d="M392.593 325.296H371.98V372.181H392.593V325.296Z" fill="#999999" stroke="#263238" stroke-linecap="round" stroke-linejoin="round"/>
<path d="M421.004 297.572H407.562C409.053 288.34 410.156 278.934 410.833 269.615H424.226C423.588 278.934 422.494 288.34 421.004 297.572Z" fill="#858585" stroke="#263238" stroke-linecap="round" stroke-linejoin="round"/>
<path d="M441.351 187.032H383.598C376.825 187.032 372.363 192.771 373.679 199.525C377.368 220.159 379.573 241.031 380.279 261.981C380.273 263.41 380.55 264.826 381.096 266.147C381.641 267.468 382.444 268.668 383.456 269.676C384.469 270.684 385.672 271.482 386.996 272.021C388.319 272.561 389.737 272.832 391.166 272.819H439.783C442.805 272.789 445.716 271.68 447.993 269.693C450.269 267.706 451.761 264.971 452.199 261.981C454.543 241.25 455.39 220.378 454.734 199.525C454.415 192.771 448.134 187.032 441.351 187.032Z" fill="#858585" stroke="#263238" stroke-linecap="round" stroke-linejoin="round"/>
<path d="M444.499 199.525C445.155 220.378 444.307 241.25 441.963 261.981C441.525 264.971 440.033 267.706 437.757 269.693C435.481 271.68 432.569 272.789 429.548 272.819H391.169C389.739 272.832 388.322 272.561 386.999 272.021C385.675 271.482 384.472 270.684 383.459 269.676C382.446 268.668 381.644 267.468 381.098 266.147C380.553 264.826 380.275 263.41 380.282 261.981C379.579 241.032 377.377 220.16 373.692 199.525C372.376 192.751 376.818 187.032 383.611 187.032H431.115C437.899 187.032 444.179 192.771 444.499 199.525Z" fill="#999999" stroke="#263238" stroke-linecap="round" stroke-linejoin="round"/>
<path d="M417.001 380.601C417.001 380.858 416.944 381.113 416.833 381.345C416.721 381.577 416.56 381.782 416.359 381.943C416.159 382.105 415.924 382.219 415.674 382.278C415.423 382.337 415.162 382.34 414.911 382.285C408.592 380.91 389.673 376.924 382.29 376.924C374.906 376.924 355.978 380.91 349.659 382.285C349.408 382.34 349.147 382.338 348.897 382.279C348.647 382.22 348.413 382.105 348.213 381.943C348.014 381.781 347.853 381.577 347.743 381.344C347.633 381.112 347.577 380.858 347.578 380.601C347.577 379.566 347.931 378.563 348.581 377.758C349.231 376.953 350.138 376.396 351.149 376.178C358.542 374.591 375.409 371.137 382.29 371.137C389.17 371.137 406.037 374.591 413.43 376.178C414.441 376.397 415.346 376.955 415.996 377.76C416.645 378.564 417 379.567 417.001 380.601Z" fill="#263238" stroke="#263238" stroke-linecap="round" stroke-linejoin="round"/>
<path d="M347.565 377.117C346.389 377.115 345.239 377.462 344.26 378.115C343.281 378.767 342.518 379.695 342.067 380.781C341.617 381.867 341.498 383.062 341.727 384.216C341.956 385.369 342.522 386.429 343.354 387.26C344.185 388.092 345.245 388.658 346.398 388.887C347.552 389.116 348.747 388.997 349.833 388.546C350.919 388.096 351.847 387.332 352.499 386.354C353.151 385.375 353.499 384.225 353.497 383.049C353.494 381.477 352.868 379.969 351.756 378.857C350.644 377.746 349.137 377.12 347.565 377.117ZM347.565 386.272C346.927 386.274 346.303 386.086 345.772 385.733C345.241 385.38 344.826 384.878 344.581 384.289C344.335 383.7 344.27 383.052 344.393 382.426C344.517 381.801 344.823 381.226 345.273 380.774C345.723 380.322 346.297 380.015 346.923 379.889C347.548 379.764 348.197 379.828 348.786 380.071C349.375 380.315 349.879 380.728 350.234 381.258C350.588 381.788 350.777 382.411 350.777 383.049C350.777 383.902 350.439 384.72 349.837 385.324C349.235 385.928 348.418 386.269 347.565 386.272Z" fill="#858585" stroke="#263238" stroke-linecap="round" stroke-linejoin="round"/>
<path d="M382.285 377.117C381.107 377.113 379.954 377.46 378.974 378.113C377.993 378.765 377.229 379.695 376.777 380.783C376.326 381.871 376.209 383.069 376.44 384.224C376.671 385.379 377.24 386.44 378.075 387.271C378.91 388.102 379.973 388.666 381.129 388.891C382.286 389.116 383.483 388.993 384.569 388.536C385.655 388.08 386.58 387.31 387.228 386.327C387.876 385.343 388.217 384.189 388.207 383.011C388.195 381.446 387.566 379.95 386.457 378.847C385.348 377.744 383.849 377.122 382.285 377.117ZM382.285 386.272C381.54 386.274 380.817 386.018 380.24 385.548C379.662 385.077 379.266 384.421 379.117 383.691C378.969 382.961 379.078 382.202 379.426 381.544C379.774 380.885 380.34 380.367 381.026 380.079C381.713 379.79 382.479 379.748 383.193 379.96C383.907 380.172 384.525 380.625 384.943 381.242C385.361 381.859 385.552 382.601 385.484 383.343C385.416 384.085 385.094 384.78 384.571 385.311C384.272 385.614 383.916 385.855 383.524 386.02C383.132 386.185 382.711 386.27 382.285 386.272Z" fill="#858585" stroke="#263238" stroke-linecap="round" stroke-linejoin="round"/>
<path d="M416.27 377.117C414.898 377.119 413.569 377.597 412.51 378.469C411.45 379.341 410.726 380.554 410.46 381.9C410.194 383.246 410.403 384.643 411.052 385.852C411.7 387.062 412.748 388.009 414.016 388.532C415.285 389.056 416.695 389.124 418.008 388.724C419.321 388.324 420.454 387.482 421.215 386.34C421.976 385.198 422.318 383.828 422.183 382.462C422.047 381.097 421.442 379.821 420.471 378.851C419.356 377.739 417.845 377.116 416.27 377.117ZM416.27 386.272C415.633 386.272 415.01 386.083 414.48 385.729C413.95 385.374 413.537 384.871 413.293 384.282C413.049 383.694 412.985 383.046 413.11 382.421C413.234 381.795 413.541 381.221 413.992 380.771C414.442 380.32 415.016 380.013 415.641 379.889C416.267 379.764 416.914 379.828 417.503 380.072C418.092 380.316 418.595 380.729 418.95 381.259C419.304 381.789 419.493 382.412 419.493 383.049C419.493 383.904 419.153 384.723 418.549 385.328C417.944 385.932 417.125 386.272 416.27 386.272Z" fill="#858585" stroke="#263238" stroke-linecap="round" stroke-linejoin="round"/>
<path d="M399.875 295.694C376.706 296.429 353.515 295.404 330.501 292.626C329.439 292.434 328.347 292.482 327.305 292.765C326.264 293.049 325.298 293.561 324.48 294.265C323.661 294.968 323.01 295.846 322.573 296.833C322.137 297.82 321.926 298.892 321.956 299.971V301.103C322.012 303.481 322.897 305.764 324.457 307.559C326.017 309.354 328.154 310.548 330.501 310.935C353.515 313.708 376.706 314.733 399.875 314.003V295.694Z" fill="#999999" stroke="#263238" stroke-linecap="round" stroke-linejoin="round"/>
<path d="M436.266 310.636C421.886 312.436 407.631 313.627 393.154 314.246C392.32 314.272 391.49 314.129 390.712 313.827C389.935 313.524 389.226 313.068 388.629 312.485C388.031 311.903 387.558 311.206 387.237 310.436C386.915 309.666 386.752 308.839 386.758 308.004V302.44C386.775 300.74 387.451 299.112 388.645 297.901C389.838 296.69 391.455 295.989 393.154 295.947C407.67 295.318 421.886 294.127 436.266 292.327C437.053 292.18 437.864 292.21 438.638 292.417C439.412 292.624 440.13 293.001 440.739 293.522C441.348 294.043 441.833 294.694 442.157 295.426C442.482 296.159 442.638 296.955 442.614 297.756V303.321C442.567 305.087 441.908 306.781 440.75 308.116C439.593 309.45 438.007 310.341 436.266 310.636Z" fill="#858585" stroke="#263238" stroke-linecap="round" stroke-linejoin="round"/>
<path d="M339.99 385.914C339.99 382.682 339.283 376.237 335.471 367.866L330.506 349.964L315.023 356.573L319.378 370.286C319.378 370.286 306.072 376.634 301.156 378.347C297.885 379.488 288.092 381.733 288.576 385.933C288.576 386.229 288.634 386.523 288.748 386.796C288.861 387.07 289.027 387.318 289.236 387.528C289.446 387.737 289.694 387.903 289.968 388.016C290.241 388.13 290.535 388.188 290.831 388.188H337.725C338.024 388.189 338.32 388.131 338.596 388.017C338.872 387.903 339.122 387.736 339.333 387.524C339.544 387.313 339.71 387.061 339.823 386.785C339.936 386.509 339.992 386.213 339.99 385.914Z" fill="white" stroke="#263238" stroke-linecap="round" stroke-linejoin="round"/>
<path d="M331.464 375.433C329.045 377.214 316.146 379.469 319.378 376.885C322.61 374.301 319.378 370.275 319.378 370.275C319.378 370.275 306.072 376.624 301.156 378.336C297.885 379.478 288.092 381.723 288.576 385.923C288.576 386.219 288.634 386.512 288.748 386.786C288.861 387.06 289.027 387.308 289.236 387.517C289.446 387.727 289.694 387.893 289.968 388.006C290.241 388.12 290.535 388.178 290.831 388.178H337.725C338.024 388.179 338.319 388.121 338.594 388.007C338.87 387.893 339.12 387.725 339.33 387.514C339.539 387.302 339.705 387.05 339.817 386.774C339.929 386.498 339.984 386.202 339.98 385.904C339.822 381.002 338.82 376.163 337.019 371.601C334.358 371.63 333.884 373.662 331.464 375.433Z" fill="#FC5546" stroke="#263238" stroke-linecap="round" stroke-linejoin="round"/>
<path d="M351.184 388.177H385.538C385.881 388.177 386.214 388.057 386.479 387.838C386.744 387.619 386.924 387.315 386.989 386.977C387.512 384.248 387.396 378.142 384.299 370.033L383.989 353.582L366.396 356.572L368.622 370.604C368.622 370.604 361.539 378.404 358.171 379.797C355.81 380.765 350.429 380.881 349.713 386.571C349.694 386.775 349.718 386.981 349.784 387.176C349.849 387.37 349.955 387.549 350.093 387.7C350.232 387.851 350.4 387.972 350.588 388.054C350.776 388.136 350.979 388.178 351.184 388.177Z" fill="white" stroke="#263238" stroke-linecap="round" stroke-linejoin="round"/>
<path d="M378.532 375.501C374.903 378.036 372.223 378.336 373.916 374.533C375.61 370.73 368.661 370.595 368.661 370.595C368.661 370.595 361.578 378.394 358.21 379.788C355.849 380.756 350.469 380.872 349.753 386.562C349.728 386.769 349.747 386.979 349.81 387.178C349.873 387.377 349.977 387.561 350.117 387.716C350.256 387.872 350.426 387.996 350.617 388.081C350.808 388.165 351.015 388.208 351.223 388.207H385.577C385.92 388.206 386.253 388.086 386.518 387.867C386.783 387.649 386.963 387.344 387.028 387.007C387.551 384.278 387.435 378.172 384.338 370.062C381.648 370.682 382.132 372.956 378.532 375.501Z" fill="#FC5546" stroke="#263238" stroke-linecap="round" stroke-linejoin="round"/>
<path d="M347.771 262.541C347.771 262.541 344.306 266.083 330.149 268.347C315.991 270.612 286.602 277.695 286.96 289.308C287.318 300.92 314.385 362.853 314.385 362.853C314.385 362.853 327.933 360.279 334.223 356.408C334.223 356.408 323.317 312.213 315.14 300.601C315.14 300.601 351.845 296.082 372.147 287.701C392.449 279.321 380.508 260.219 380.508 260.219L347.771 262.541Z" fill="#263238" stroke="#263238" stroke-linecap="round" stroke-linejoin="round"/>
<path d="M370.788 260.906C370.788 260.906 375.994 269.615 372.104 274.453C368.214 279.292 346.121 288.321 348.618 299.294C351.115 310.268 359.359 325.742 364.73 362.514C364.73 362.514 377.243 360.579 385.623 357.027C385.623 357.027 387.016 319.616 377.291 303.485C377.291 303.485 405.141 298.327 407.967 288.969C410.793 279.611 405.509 265.309 405.403 260.199L370.788 260.906Z" fill="#263238" stroke="#263238" stroke-linecap="round" stroke-linejoin="round"/>
<path d="M354.049 274.764C353.404 274.715 352.758 274.715 352.113 274.764" stroke="white" stroke-width="0.75" stroke-linecap="round" stroke-linejoin="round"/>
<path d="M355.305 268.986C355.305 268.986 361.024 270.67 363.269 278.131C363.298 278.254 363.288 278.382 363.24 278.499C363.192 278.615 363.108 278.714 363.001 278.78C362.894 278.846 362.769 278.877 362.643 278.869C362.518 278.86 362.398 278.812 362.301 278.731C360.768 277.154 358.88 275.966 356.795 275.267" stroke="white" stroke-width="0.75" stroke-linecap="round" stroke-linejoin="round"/>
<path d="M312.447 300.195C312.447 297.05 298.899 295.356 302.528 292.453C306.157 289.55 314.382 298.985 314.382 298.985" stroke="white" stroke-width="0.75" stroke-linecap="round" stroke-linejoin="round"/>
<path d="M379.014 312.773C379.014 309.173 366.067 307.209 366.715 303.338C367.363 299.467 375.589 307.093 375.589 307.093" stroke="white" stroke-width="0.75" stroke-linecap="round" stroke-linejoin="round"/>
<path d="M312.945 363.076L314.367 366.366C314.446 366.548 314.585 366.697 314.762 366.787C314.939 366.877 315.141 366.903 315.335 366.859C318.46 366.153 331.505 363.076 336.082 359.785C336.215 359.688 336.316 359.553 336.371 359.398C336.426 359.242 336.434 359.074 336.392 358.915L335.502 355.247C335.472 355.12 335.413 355.002 335.33 354.902C335.246 354.802 335.141 354.723 335.022 354.67C334.903 354.618 334.773 354.593 334.643 354.6C334.513 354.606 334.386 354.642 334.273 354.705C332.211 355.828 326.473 358.508 313.516 361.914C313.397 361.946 313.287 362.003 313.193 362.081C313.098 362.159 313.021 362.256 312.967 362.366C312.913 362.476 312.883 362.596 312.879 362.718C312.875 362.841 312.898 362.963 312.945 363.076Z" fill="#999999" stroke="#263238" stroke-linecap="round" stroke-linejoin="round"/>
<path d="M363.198 360.366C363.182 360.253 363.195 360.137 363.236 360.03C363.278 359.923 363.346 359.829 363.434 359.756C363.523 359.683 363.629 359.634 363.742 359.614C363.854 359.593 363.971 359.603 364.079 359.64C365.651 360.131 367.332 360.155 368.917 359.708C372.508 358.895 382.775 355.644 385.833 354.666C385.933 354.634 386.04 354.627 386.144 354.643C386.247 354.66 386.346 354.702 386.431 354.764C386.516 354.826 386.585 354.908 386.632 355.002C386.68 355.096 386.704 355.2 386.704 355.305V359.582C386.705 359.712 386.668 359.839 386.597 359.947C386.527 360.055 386.426 360.141 386.307 360.192C383.907 361.266 371.046 366.772 364.321 365.272C364.19 365.242 364.071 365.171 363.981 365.071C363.891 364.971 363.834 364.845 363.818 364.711L363.198 360.366Z" fill="#999999" stroke="#263238" stroke-linecap="round" stroke-linejoin="round"/>
<path d="M373.547 270.757C373.454 272.094 372.965 273.374 372.144 274.434C369.299 277.966 356.787 283.724 351.184 290.885" stroke="white" stroke-linecap="round" stroke-linejoin="round"/>
<path d="M372.938 265.918C373.154 266.631 373.319 267.359 373.431 268.095" stroke="white" stroke-linecap="round" stroke-linejoin="round"/>
<path d="M298.832 380.514C299.622 381.953 300.192 383.502 300.526 385.11H335.469C335.599 383.588 336.288 382.167 337.405 381.123" stroke="#263238" stroke-linecap="round" stroke-linejoin="round"/>
<path d="M359.555 380.514C359.555 380.514 364.393 380.881 366.203 385.11H384.473C385.024 383.847 385.352 382.498 385.441 381.123" stroke="#263238" stroke-linecap="round" stroke-linejoin="round"/>
<path d="M330.912 207.857C331.357 209.56 331.821 211.253 332.286 212.908C337.124 230.327 343.414 263.471 343.414 263.471C374.381 270.003 407.041 263.471 407.041 263.471C407.215 256.252 406.334 246.72 405.357 236.704C410.428 235.301 414.066 230.617 414.298 222.827C414.54 213.392 412.827 196.409 411.879 188.474C411.037 181.497 411.637 177.345 400.828 172.023C395.409 168.897 386.409 167.417 375.348 165.936C353.575 163.033 337.86 167.436 332.286 169.807C327.863 168.646 326.634 173.832 326.634 173.832C324.186 171.984 321.341 179.823 321.341 179.823C314.18 188.958 308.548 204.344 306.671 209.821C306.255 211.019 305.494 212.066 304.484 212.831C299.403 216.702 302.229 221.492 302.229 221.492L312.632 224.675C312.632 224.675 317.673 225.992 321.525 219.363C324.738 213.828 330.002 204.431 330.912 207.857Z" fill="#FC5546"/>
<path opacity="0.3" d="M314.551 220.311C314.551 220.311 314.309 215.472 310.438 214.63C306.567 213.788 311.522 212.337 314.551 213.063C317.58 213.788 316.873 211.127 319.467 206.773C322.06 202.418 323.338 198.973 325.525 201.479C327.712 203.986 329.986 204.382 330.915 207.808C331.844 211.234 327.247 219.42 327.247 219.42L320.028 225.023L316.36 227.075H310.893L309.016 222.343L314.551 220.311Z" fill="black"/>
<path d="M330.912 207.857C331.357 209.56 331.821 211.253 332.286 212.908C337.124 230.327 343.414 263.471 343.414 263.471C374.381 270.003 407.041 263.471 407.041 263.471C407.215 256.252 406.334 246.72 405.357 236.704C410.428 235.301 414.066 230.617 414.298 222.827C414.54 213.392 412.827 196.409 411.879 188.474C411.037 181.497 411.637 177.345 400.828 172.023C395.409 168.897 386.409 167.417 375.348 165.936C353.575 163.033 337.86 167.436 332.286 169.807C327.863 168.646 326.634 173.832 326.634 173.832C324.186 171.984 321.341 179.823 321.341 179.823C314.18 188.958 308.548 204.344 306.671 209.821C306.255 211.019 305.494 212.066 304.484 212.831C299.403 216.702 302.229 221.492 302.229 221.492L312.632 224.675C312.632 224.675 317.673 225.992 321.525 219.363C324.738 213.828 330.002 204.431 330.912 207.857Z" stroke="#263238" stroke-linecap="round" stroke-linejoin="round"/>
<path opacity="0.3" d="M407.038 263.422C407.063 257.204 406.756 250.989 406.119 244.803C407.173 259.541 376.488 264.157 375.52 256.164C374.552 248.171 405.354 236.655 388.594 240.681C373.972 244.194 345.628 240.836 338.66 239.926C341.341 252.506 343.412 263.422 343.412 263.422C374.378 269.954 407.038 263.422 407.038 263.422Z" fill="black"/>
<path opacity="0.3" d="M392.968 189.393C392.968 189.393 388.585 202.215 388.594 208.989C388.604 215.762 376.314 220.311 376.285 220.311C382.875 218.975 389.281 217.204 392.339 216.314C392.866 216.165 393.324 215.837 393.635 215.387C393.946 214.936 394.09 214.392 394.042 213.846C393.262 205.719 392.903 197.557 392.968 189.393Z" fill="black"/>
<path d="M326.854 186.17C326.896 192.212 327.986 198.2 330.077 203.869C330.137 204.035 330.144 204.217 330.094 204.386C330.045 204.556 329.943 204.706 329.802 204.814C329.662 204.922 329.491 204.982 329.314 204.986C329.137 204.99 328.964 204.938 328.819 204.837C327.154 203.647 324.803 201.227 322.684 196.35" stroke="#263238" stroke-width="0.75" stroke-linecap="round" stroke-linejoin="round"/>
<path d="M408.977 225.681C406.423 217.214 402 215.095 398.575 214.882C398.469 214.867 398.37 214.821 398.29 214.75C398.211 214.678 398.154 214.585 398.127 214.482C398.1 214.378 398.104 214.269 398.139 214.168C398.174 214.067 398.238 213.979 398.323 213.914C400.317 212.84 404.197 211.979 408.968 217.262" stroke="#263238" stroke-width="0.75" stroke-linecap="round" stroke-linejoin="round"/>
<path d="M359.882 201.45C359.846 201.765 359.709 202.06 359.491 202.29C359.273 202.52 358.987 202.673 358.675 202.726C358.362 202.779 358.041 202.729 357.76 202.584C357.478 202.439 357.252 202.206 357.114 201.92C356.976 201.635 356.935 201.313 356.997 201.002C357.058 200.691 357.219 200.409 357.455 200.197C357.691 199.986 357.989 199.857 358.304 199.83C358.62 199.802 358.936 199.878 359.204 200.046C359.438 200.193 359.626 200.402 359.746 200.651C359.866 200.899 359.913 201.176 359.882 201.45Z" fill="white" stroke="#263238" stroke-width="0.75" stroke-linecap="round" stroke-linejoin="round"/>
<path d="M361.852 217.92C361.852 218.207 361.767 218.488 361.608 218.727C361.448 218.965 361.221 219.151 360.956 219.261C360.691 219.371 360.399 219.4 360.118 219.344C359.836 219.288 359.577 219.15 359.374 218.947C359.171 218.744 359.033 218.485 358.977 218.203C358.921 217.922 358.95 217.63 359.06 217.365C359.17 217.1 359.356 216.873 359.594 216.713C359.833 216.554 360.114 216.469 360.401 216.469C360.786 216.469 361.155 216.622 361.427 216.894C361.699 217.166 361.852 217.535 361.852 217.92Z" fill="white" stroke="#263238" stroke-width="0.75" stroke-linecap="round" stroke-linejoin="round"/>
<path d="M366.715 257.616C366.717 257.905 366.633 258.188 366.474 258.43C366.314 258.672 366.087 258.86 365.82 258.972C365.553 259.085 365.259 259.115 364.975 259.06C364.691 259.004 364.43 258.866 364.224 258.662C364.019 258.458 363.879 258.198 363.822 257.914C363.765 257.63 363.793 257.336 363.903 257.068C364.014 256.801 364.201 256.572 364.441 256.411C364.682 256.25 364.965 256.164 365.254 256.164C365.64 256.164 366.01 256.317 366.284 256.589C366.558 256.861 366.713 257.23 366.715 257.616Z" fill="#999999" stroke="#263238" stroke-linecap="round" stroke-linejoin="round"/>
<path d="M338.923 228.71C338.923 228.71 334.171 233.239 336.436 233.316C338.7 233.394 341.555 230.278 344.178 229.92C346.8 229.562 342.561 227.984 342.561 227.984L338.923 228.71Z" fill="white" stroke="#263238" stroke-linecap="round" stroke-linejoin="round"/>
<path d="M366.664 223.611C366.451 223.42 366.202 223.275 365.93 223.185C365.659 223.095 365.372 223.062 365.087 223.088C362.765 223.282 356.087 223.785 353.571 223.63C349.101 223.35 335.93 220.563 335.93 220.563C335.627 220.511 335.316 220.528 335.021 220.611L326.863 223.011C326.566 223.097 326.294 223.253 326.069 223.466L321.134 227.995C320.972 228.146 320.835 228.323 320.728 228.517L319.702 230.394C319.49 230.78 319.41 231.224 319.475 231.66C319.54 232.095 319.745 232.497 320.06 232.804L328.208 233.017C328.712 233.041 329.205 232.867 329.582 232.533L332.001 230.462C332.163 230.322 332.303 230.159 332.417 229.978C333.008 229.011 335.321 225.817 338.901 226.107C338.901 226.107 331.159 230.22 332.621 231.914C334.082 233.607 340.004 228.769 341.94 229.253C343.875 229.736 344.001 234.488 354.52 232.765C354.99 232.686 355.472 232.709 355.933 232.833L365.513 235.514C365.797 235.592 366.094 235.613 366.386 235.576C366.679 235.538 366.96 235.443 367.215 235.295C367.471 235.147 367.694 234.95 367.871 234.715C368.049 234.48 368.178 234.212 368.251 233.927C368.997 231.178 369.655 226.34 366.664 223.611Z" fill="white" stroke="#263238" stroke-linecap="round" stroke-linejoin="round"/>
<path d="M337.075 222.294L335.023 222.642C334.023 222.812 333.089 223.254 332.323 223.92L330.146 225.787C329.775 226.121 329.45 226.502 329.178 226.92L327.775 229.058C327.623 229.295 327.452 229.518 327.262 229.726C326.43 230.694 324.137 233.374 326.614 233.006" fill="white"/>
<path d="M337.075 222.294L335.023 222.642C334.023 222.812 333.089 223.254 332.323 223.92L330.146 225.787C329.775 226.121 329.45 226.502 329.178 226.92L327.775 229.058C327.623 229.295 327.452 229.518 327.262 229.726C326.43 230.694 324.137 233.374 326.614 233.006" stroke="#263238" stroke-linecap="round" stroke-linejoin="round"/>
<path d="M331.296 223.021L329.177 223.601C328.515 223.763 327.907 224.097 327.416 224.569L325.761 226.156C325.598 226.3 325.452 226.463 325.325 226.64L322.606 230.249C322.606 230.249 321.155 232.804 322.606 232.852" fill="white"/>
<path d="M331.296 223.021L329.177 223.601C328.515 223.763 327.907 224.097 327.416 224.569L325.761 226.156C325.598 226.3 325.452 226.463 325.325 226.64L322.606 230.249C322.606 230.249 321.155 232.804 322.606 232.852" stroke="#263238" stroke-linecap="round" stroke-linejoin="round"/>
<path d="M393.048 187.341C392.842 196.187 393.166 205.038 394.016 213.846C394.063 214.391 393.919 214.936 393.608 215.387C393.298 215.837 392.839 216.165 392.313 216.314C384.619 218.589 376.783 220.351 368.855 221.588" stroke="#263238" stroke-linecap="round" stroke-linejoin="round"/>
<path d="M393.509 181.341C393.383 182.309 393.277 183.364 393.199 184.438" stroke="#263238" stroke-width="0.75" stroke-linecap="round" stroke-linejoin="round"/>
<path d="M396.752 172.284C395.443 173.684 394.572 175.436 394.246 177.325" stroke="#263238" stroke-width="0.75" stroke-linecap="round" stroke-linejoin="round"/>
<path d="M348.299 166.536C348.299 166.536 348.909 164.6 352.17 163.507C355.431 162.413 366.743 160.681 372.559 163.507C378.375 166.333 367.237 181.709 367.237 181.709L362.079 188.851L357.482 192.296L355.431 186.17L352.77 183.403C352.77 183.403 347.022 178.69 347.505 174.035C347.989 169.381 348.299 166.536 348.299 166.536Z" fill="white"/>
<path d="M376.855 166.129C375.945 162.946 371.794 162.055 371.794 162.055C351.956 158.668 347.766 165.926 347.766 165.926C345.333 172.482 345.333 179.692 347.766 186.248C347.766 186.248 353.408 183.906 354.375 186.248C355.343 188.59 357.114 193.583 357.114 193.583C359.807 192.065 362.156 190.006 364.014 187.535C367.081 183.5 374.281 187.535 374.281 187.535C378.945 179.474 376.855 166.129 376.855 166.129ZM372.017 165.897C364.333 190.012 357.559 191.057 357.559 191.057C355.304 182.193 353.369 184.129 350.301 178.584C347.843 174.132 348.676 168.5 349.101 166.439C349.151 166.193 349.255 165.961 349.406 165.76C349.557 165.56 349.75 165.395 349.972 165.278C357.598 161.407 366.926 162.829 370.768 163.671C371.006 163.721 371.231 163.819 371.427 163.962C371.624 164.104 371.789 164.286 371.91 164.496C372.032 164.706 372.108 164.94 372.133 165.181C372.158 165.422 372.131 165.667 372.055 165.897H372.017Z" fill="#2F82B8"/>
<mask id="mask0_3380_3514" style="mask-type:luminance" maskUnits="userSpaceOnUse" x="345" y="161" width="33" height="33">
<path d="M376.859 166.129C375.949 162.946 371.798 162.055 371.798 162.055C351.96 158.668 347.77 165.926 347.77 165.926C345.337 172.482 345.337 179.692 347.77 186.248C347.77 186.248 353.412 183.906 354.379 186.248C355.347 188.59 357.118 193.583 357.118 193.583C359.811 192.065 362.16 190.006 364.018 187.535C367.085 183.5 374.285 187.535 374.285 187.535C378.949 179.474 376.859 166.129 376.859 166.129ZM372.02 165.897C364.337 190.012 357.563 191.057 357.563 191.057C355.308 182.193 353.373 184.129 350.305 178.584C347.847 174.132 348.679 168.5 349.105 166.439C349.155 166.193 349.259 165.961 349.41 165.76C349.561 165.56 349.754 165.395 349.976 165.278C357.602 161.407 366.93 162.829 370.772 163.671C371.01 163.721 371.235 163.819 371.431 163.962C371.628 164.104 371.793 164.286 371.914 164.496C372.036 164.706 372.112 164.94 372.137 165.181C372.161 165.422 372.135 165.667 372.059 165.897H372.02Z" fill="white"/>
</mask>
<g mask="url(#mask0_3380_3514)">
<path d="M376.859 166.129C375.949 162.946 371.798 162.055 371.798 162.055C351.96 158.668 347.77 165.926 347.77 165.926C345.337 172.482 345.337 179.692 347.77 186.248C347.77 186.248 353.412 183.906 354.379 186.248C355.347 188.59 357.118 193.583 357.118 193.583C359.811 192.065 362.16 190.006 364.018 187.535C367.085 183.5 374.285 187.535 374.285 187.535C378.949 179.474 376.859 166.129 376.859 166.129ZM372.02 165.897C364.337 190.012 357.563 191.057 357.563 191.057C355.308 182.193 353.373 184.129 350.305 178.584C347.847 174.132 348.679 168.5 349.105 166.439C349.155 166.193 349.259 165.961 349.41 165.76C349.561 165.56 349.754 165.395 349.976 165.278C357.602 161.407 366.93 162.829 370.772 163.671C371.01 163.721 371.235 163.819 371.431 163.962C371.628 164.104 371.793 164.286 371.914 164.496C372.036 164.706 372.112 164.94 372.137 165.181C372.161 165.422 372.135 165.667 372.059 165.897H372.02Z" fill="#363636"/>
</g>
<path d="M344.47 129.279C344.47 129.279 327.371 132.705 336.787 143.795C347.228 156.152 344.47 129.279 344.47 129.279Z" fill="#263238" stroke="#263238" stroke-linecap="round" stroke-linejoin="round"/>
<path d="M337.723 156.413C337.723 156.413 333.658 139.963 341.4 132.056C349.141 124.15 357.531 122.544 363.821 126.415C370.111 130.285 372.724 139.963 371.757 144.956C370.789 149.949 371.253 167.852 362.631 175.274C354.009 182.696 348.706 180.867 343.006 170.755C339.222 164.126 337.432 162.22 337.723 156.413Z" fill="white" stroke="#263238" stroke-linecap="round" stroke-linejoin="round"/>
<path d="M367.692 153.191C367.692 153.191 361.189 146.736 359.195 139.159C357.202 131.582 356.079 130.285 348.657 133.992C341.235 137.698 329.661 132.714 332.69 123.347C335.874 113.515 345.599 126.25 354.947 123.028C364.295 119.805 370.943 125.611 370.953 134.156C370.953 134.156 376.604 139.643 370.953 153.83L367.692 153.191Z" fill="#263238" stroke="#263238" stroke-linecap="round" stroke-linejoin="round"/>
<path d="M365.652 152.107C365.652 152.107 367.297 143.088 371.865 143.92C376.433 144.753 373.171 158.068 367.791 156.617" fill="white"/>
<path d="M365.652 152.107C365.652 152.107 367.297 143.088 371.865 143.92C376.433 144.753 373.171 158.068 367.791 156.617" stroke="#263238" stroke-linecap="round" stroke-linejoin="round"/>
<path d="M343.907 155.165C343.907 155.165 342.107 163.536 342.697 164.968C343.287 166.4 348.813 165.307 348.813 165.307" fill="white"/>
<path d="M343.907 155.165C343.907 155.165 342.107 163.536 342.697 164.968C343.287 166.4 348.813 165.307 348.813 165.307" stroke="#263238" stroke-linecap="round" stroke-linejoin="round"/>
<path d="M349.59 168.955C349.59 168.955 353.925 170.668 357.748 164.968L349.59 168.955Z" fill="white"/>
<path d="M349.59 168.955C349.59 168.955 353.925 170.668 357.748 164.968" stroke="#263238" stroke-linecap="round" stroke-linejoin="round"/>
<path d="M340.933 155.862C341.088 156.636 340.885 157.342 340.479 157.429C340.072 157.516 339.598 156.955 339.433 156.171C339.269 155.387 339.433 154.691 339.888 154.604C340.343 154.517 340.788 155.078 340.933 155.862Z" fill="#263238"/>
<path d="M351.541 155.011C351.705 155.785 351.541 156.491 351.086 156.578C350.631 156.665 350.215 156.094 350.051 155.32C349.886 154.546 350.051 153.84 350.505 153.753C350.96 153.665 351.434 154.227 351.541 155.011Z" fill="#263238"/>
<path d="M343.162 155.494C343.384 157.69 341.226 159.703 338.246 159.993C335.265 160.284 332.749 158.755 332.527 156.558C332.304 154.361 334.617 153.403 337.559 153.103C340.5 152.803 342.949 153.307 343.162 155.494Z" stroke="#263238" stroke-linecap="round" stroke-linejoin="round"/>
<path d="M356.853 154.13C357.076 156.317 354.869 158.339 351.937 158.629C349.005 158.92 346.441 157.381 346.218 155.194C345.995 153.007 348.308 152.03 351.25 151.739C354.192 151.449 356.64 151.933 356.853 154.13Z" stroke="#263238" stroke-linecap="round" stroke-linejoin="round"/>
<path d="M343.16 155.494L346.218 155.194" stroke="#263238" stroke-linecap="round" stroke-linejoin="round"/>
<path d="M356.484 153.026L367.729 146.397" stroke="#263238" stroke-linecap="round" stroke-linejoin="round"/>
<path d="M369.656 163.352L370.188 164.639" stroke="#263238" stroke-linecap="round" stroke-linejoin="round"/>
<path d="M336.82 151.962C336.82 151.962 338.533 149.785 340.633 150.83L336.82 151.962Z" fill="white"/>
<path d="M336.82 151.962C336.82 151.962 338.533 149.785 340.633 150.83" stroke="#263238" stroke-linecap="round" stroke-linejoin="round"/>
<path d="M354.338 150.984C354.338 150.984 351.329 148.081 348.426 150.133L354.338 150.984Z" fill="white"/>
<path d="M354.338 150.984C354.338 150.984 351.329 148.081 348.426 150.133" stroke="#263238" stroke-linecap="round" stroke-linejoin="round"/>
<path d="M340.625 124.441C345.202 125.892 352.905 127.673 359.195 125.767C368.872 122.864 365.553 133.702 367.73 136.692" stroke="#7F7F7F" stroke-linecap="round" stroke-linejoin="round"/>
<path d="M336.66 122.989C336.66 122.989 337.425 123.328 338.731 123.792" stroke="#7F7F7F" stroke-linecap="round" stroke-linejoin="round"/>
<path d="M348.223 129.831C348.736 129.676 349.268 129.492 349.829 129.279" stroke="#7F7F7F" stroke-linecap="round" stroke-linejoin="round"/>
<path d="M337.723 128.553C337.723 128.553 339.774 131.718 346.374 130.314" stroke="#7F7F7F" stroke-linecap="round" stroke-linejoin="round"/>
<path d="M362.305 134.756C362.815 138.492 364.223 142.048 366.408 145.12" stroke="#7F7F7F" stroke-linecap="round" stroke-linejoin="round"/>
<path d="M362.078 131.33C362.065 131.908 362.084 132.486 362.136 133.062" stroke="#7F7F7F" stroke-linecap="round" stroke-linejoin="round"/>
<path opacity="0.3" d="M370.656 235.145C370.48 235.293 370.353 235.491 370.293 235.714C370.233 235.936 370.242 236.171 370.321 236.388C370.399 236.604 370.542 236.792 370.73 236.924C370.918 237.057 371.142 237.128 371.373 237.129C377.914 237.129 395.565 237.207 402.339 236.81C410.806 236.326 404.342 227.133 397.501 230.636C391.298 233.878 378.098 228.478 370.656 235.145Z" fill="black"/>
<path d="M296.965 226.068C296.965 226.068 300.923 215.53 310.851 217.204C320.78 218.878 313.193 227.19 308.413 227.926C308.413 227.926 307.687 225.032 296.965 226.068Z" fill="white" stroke="#263238" stroke-linecap="round" stroke-linejoin="round"/>
<path d="M288.535 232.049C287.228 233.356 284.083 233.472 286.203 230.636C287.936 228.356 290.287 226.619 292.977 225.633C297.68 223.533 299.518 223.959 303.776 223.021C308.034 222.082 308.837 223.824 310.308 224.627C313.821 226.562 314.663 226.891 315.553 228.827C316.443 230.762 317.411 233.278 314.663 233.278C312.166 233.278 312.002 229.146 309.582 229.311C307.163 229.475 305.953 233.278 304.26 233.278H303.621C302.17 233.278 302.092 232.069 302.973 230.172C303.854 228.275 304.831 226.562 304.831 226.562C303.394 227.319 302.245 228.526 301.56 229.998C300.399 232.465 300.186 233.501 298.047 233.501C295.909 233.501 296.112 231.914 298.183 228.411C296.953 229.147 295.936 230.191 295.231 231.44C294.186 233.375 293.635 233.278 292.27 233.278C290.47 233.278 290.596 230.317 293.78 228.382C293.799 228.382 293.093 227.511 288.535 232.049Z" fill="white" stroke="#263238" stroke-linecap="round" stroke-linejoin="round"/>
<path d="M300.999 224.976C300.999 224.976 299.751 224.918 298.957 227.027L300.999 224.976Z" fill="white"/>
<path d="M300.999 224.976C300.999 224.976 299.751 224.918 298.957 227.027" stroke="#263238" stroke-width="0.75" stroke-linecap="round" stroke-linejoin="round"/>
<path d="M397.246 89.772C405.764 96.4654 413.873 103.663 421.53 111.326" stroke="#FC5546" stroke-width="0.75" stroke-linecap="round" stroke-linejoin="round"/>
<path d="M388.039 82.8472C389.648 84.0084 391.258 85.1822 392.841 86.3822" stroke="#FC5546" stroke-width="0.75" stroke-linecap="round" stroke-linejoin="round"/>
<path d="M378.848 76.5288C380.501 77.6107 382.146 78.7187 383.783 79.8529" stroke="#FC5546" stroke-width="0.75" stroke-linecap="round" stroke-linejoin="round"/>
<path d="M311.363 44.6074C333.206 51.4019 354.085 60.9729 373.49 73.0859" stroke="#FC5546" stroke-width="0.75" stroke-linecap="round" stroke-linejoin="round"/>
<path d="M296.957 40.5449C299.595 41.2223 302.255 41.9345 304.938 42.6816" stroke="#FC5546" stroke-width="0.75" stroke-linecap="round" stroke-linejoin="round"/>
<path d="M282.137 37.2607C285.04 37.8149 287.933 38.4217 290.816 39.081" stroke="#FC5546" stroke-width="0.75" stroke-linecap="round" stroke-linejoin="round"/>
<path d="M268.93 35.0581C271.436 35.4187 273.933 35.8058 276.422 36.2194" stroke="#FC5546" stroke-width="0.75" stroke-linecap="round" stroke-linejoin="round"/>
<path d="M189.379 35.5856C213.826 31.7781 238.678 31.3343 263.245 34.2667" stroke="#FC5546" stroke-width="0.75" stroke-linecap="round" stroke-linejoin="round"/>
<path d="M178.492 37.4979C180.734 37.0625 182.99 36.6405 185.232 36.2583" stroke="#FC5546" stroke-width="0.75" stroke-linecap="round" stroke-linejoin="round"/>
<path d="M167.934 39.8069C170.189 39.266 172.431 38.7647 174.701 38.2896" stroke="#FC5546" stroke-width="0.75" stroke-linecap="round" stroke-linejoin="round"/>
<path d="M154.949 43.2621C157.245 42.5893 159.544 41.9474 161.848 41.3364" stroke="#FC5546" stroke-width="0.75" stroke-linecap="round" stroke-linejoin="round"/>
<path d="M76.4531 81.0009C98.2936 65.6906 122.302 53.7351 147.682 45.5317" stroke="#FC5546" stroke-width="0.75" stroke-linecap="round" stroke-linejoin="round"/>
<path d="M65.9023 88.8227C67.9603 87.2312 70.0399 85.6658 72.1411 84.1265" stroke="#FC5546" stroke-width="0.75" stroke-linecap="round" stroke-linejoin="round"/>
<path d="M55.2148 97.5283C57.4706 95.5764 59.763 93.6768 62.0739 91.8188" stroke="#FC5546" stroke-width="0.75" stroke-linecap="round" stroke-linejoin="round"/>
<path d="M40.3672 111.326C43.4638 108.23 46.6121 105.226 49.812 102.317" stroke="#FC5546" stroke-width="0.75" stroke-linecap="round" stroke-linejoin="round"/>
<path d="M142.644 70.7708C146.848 53.1402 135.963 35.4403 118.332 31.2369C100.702 27.0335 83.0019 37.9183 78.7985 55.5488C74.5951 73.1793 85.4799 90.8792 103.11 95.0827C120.741 99.2861 138.441 88.4013 142.644 70.7708Z" fill="#65C2FF"/>
<mask id="mask1_3380_3514" style="mask-type:luminance" maskUnits="userSpaceOnUse" x="77" y="30" width="67" height="66">
<path d="M142.644 70.7698C146.848 53.1393 135.963 35.4393 118.332 31.2359C100.702 27.0325 83.0019 37.9173 78.7985 55.5478C74.5951 73.1783 85.4799 90.8783 103.11 95.0817C120.741 99.2851 138.441 88.4003 142.644 70.7698Z" fill="white"/>
</mask>
<g mask="url(#mask1_3380_3514)">
<path d="M142.644 70.7698C146.848 53.1393 135.963 35.4393 118.332 31.2359C100.702 27.0325 83.0019 37.9173 78.7985 55.5478C74.5951 73.1783 85.4799 90.8783 103.11 95.0817C120.741 99.2851 138.441 88.4003 142.644 70.7698Z" fill="#0E2B5C"/>
</g>
<path d="M142.644 70.7708C146.848 53.1402 135.963 35.4403 118.332 31.2369C100.702 27.0335 83.0019 37.9183 78.7985 55.5488C74.5951 73.1793 85.4799 90.8792 103.11 95.0827C120.741 99.2861 138.441 88.4013 142.644 70.7708Z" stroke="#263238" stroke-width="0.75" stroke-linecap="round" stroke-linejoin="round"/>
<path d="M94.9235 76.0416V67.8239C94.9235 65.7665 94.3429 65.1859 92.1172 65.1859V61.1632C94.3429 61.1632 94.9235 60.5429 94.9235 58.5252V50.3065C94.8651 49.6406 94.9533 48.9699 95.1819 48.3417C95.4105 47.7135 95.774 47.1429 96.2467 46.6702C96.7194 46.1975 97.2899 45.8341 97.9181 45.6055C98.5464 45.3769 99.217 45.2887 99.883 45.3471H102.389V49.304H101.664C100.108 49.304 99.3024 50.0162 99.3024 52.4829V59.1707C99.3918 60.0472 99.166 60.9269 98.6656 61.652C98.1651 62.3772 97.4227 62.9003 96.5715 63.1276V63.2244C97.4227 63.4517 98.1651 63.9749 98.6656 64.7C99.166 65.4251 99.3918 66.3048 99.3024 67.1813V73.8817C99.3024 76.3348 100.107 77.047 101.664 77.047H102.389V81.004H99.8849C99.219 81.0624 98.5483 80.9741 97.9201 80.7456C97.2919 80.517 96.7213 80.1535 96.2486 79.6808C95.7759 79.2081 95.4125 78.6376 95.1839 78.0093C94.9553 77.3811 94.8671 76.7105 94.9255 76.0445L94.9235 76.0416Z" fill="white" stroke="#263238" stroke-width="0.75" stroke-linecap="round" stroke-linejoin="round"/>
<path d="M118.969 76.9782H119.681C121.251 76.9782 122.056 76.266 122.056 73.8128V67.1125C121.968 66.2382 122.193 65.3613 122.691 64.6371C123.188 63.9128 123.926 63.388 124.773 63.1555V63.0588C123.924 62.8288 123.185 62.3045 122.687 61.5796C122.189 60.8548 121.966 59.9765 122.056 59.1018V52.4141C122.056 49.9474 121.252 49.2352 119.681 49.2352H118.969V45.2782H121.475C122.141 45.2198 122.812 45.3081 123.44 45.5366C124.068 45.7652 124.639 46.1287 125.111 46.6014C125.584 47.0741 125.948 47.6446 126.176 48.2728C126.405 48.9011 126.493 49.5717 126.435 50.2377V58.4554C126.435 60.5128 127.015 61.0934 129.241 61.0934V65.1161C127.015 65.1161 126.435 65.7364 126.435 67.7541V75.9718C126.493 76.6377 126.405 77.3084 126.176 77.9366C125.948 78.5649 125.584 79.1354 125.111 79.6081C124.639 80.0808 124.068 80.4442 123.44 80.6728C122.812 80.9014 122.141 80.9896 121.475 80.9313H118.969V76.9782Z" fill="white" stroke="#263238" stroke-width="0.75" stroke-linecap="round" stroke-linejoin="round"/>
<path d="M51.3205 105.034H23.9878C17.5958 105.034 12.4141 110.215 12.4141 116.607V143.94C12.4141 150.332 17.5958 155.514 23.9878 155.514H51.3205C57.7125 155.514 62.8942 150.332 62.8942 143.94V116.607C62.8942 110.215 57.7125 105.034 51.3205 105.034Z" fill="#0E2B5C" stroke="#263238" stroke-width="0.75" stroke-linecap="round" stroke-linejoin="round"/>
<path d="M19.3516 131.494V129.054L29.4428 124.699V127.337L22.4918 130.279L29.4428 133.207V135.845L19.3516 131.494Z" fill="white" stroke="#263238" stroke-width="0.75" stroke-linecap="round" stroke-linejoin="round"/>
<path d="M40.6286 118.738H43.7678L34.6666 141.822H31.5273L40.6286 118.738Z" fill="white" stroke="#263238" stroke-width="0.75" stroke-linecap="round" stroke-linejoin="round"/>
<path d="M45.8516 133.208L52.8026 130.28L45.8516 127.312V124.674L55.9427 129.029V131.47L45.8516 135.824V133.208Z" fill="white" stroke="#263238" stroke-width="0.75" stroke-linecap="round" stroke-linejoin="round"/>
<path d="M370.802 62.0958C374.329 47.0321 364.976 31.962 349.912 28.4358C334.848 24.9096 319.778 34.2626 316.252 49.3263C312.726 64.39 322.079 79.4601 337.142 82.9863C352.206 86.5125 367.276 77.1595 370.802 62.0958Z" fill="#65C2FF"/>
<mask id="mask2_3380_3514" style="mask-type:luminance" maskUnits="userSpaceOnUse" x="315" y="27" width="57" height="57">
<path d="M370.799 62.0949C374.325 47.0311 364.972 31.961 349.908 28.4348C334.844 24.9086 319.774 34.2616 316.248 49.3253C312.722 64.389 322.075 79.4591 337.139 82.9853C352.202 86.5116 367.272 77.1586 370.799 62.0949Z" fill="white"/>
</mask>
<g mask="url(#mask2_3380_3514)">
<path d="M370.799 62.0949C374.325 47.0311 364.972 31.961 349.908 28.4348C334.844 24.9086 319.774 34.2616 316.248 49.3253C312.722 64.389 322.075 79.4591 337.139 82.9853C352.202 86.5116 367.272 77.1586 370.799 62.0949Z" fill="#0E2B5C"/>
</g>
<path d="M370.802 62.0958C374.329 47.0321 364.976 31.962 349.912 28.4358C334.848 24.9096 319.778 34.2626 316.252 49.3263C312.726 64.39 322.079 79.4601 337.142 82.9863C352.206 86.5125 367.276 77.1595 370.802 62.0958Z" stroke="#263238" stroke-width="0.750247" stroke-linecap="round" stroke-linejoin="round"/>
<path d="M326.191 61.5182V49.9058C326.191 46.5682 327.92 44.6299 331.191 44.6299C334.461 44.6299 336.19 46.5953 336.19 49.9058V52.1876H332.985V49.6948C332.985 48.2704 332.299 47.6897 331.283 47.6897C330.268 47.6897 329.595 48.2704 329.595 49.6948V61.7514C329.595 63.1759 330.272 63.7304 331.283 63.7304C332.295 63.7304 332.985 63.1759 332.985 61.7514V58.4535H336.19V61.5134C336.19 64.8374 334.461 66.7893 331.191 66.7893C327.92 66.7893 326.191 64.8403 326.191 61.5182Z" fill="white" stroke="#263238" stroke-width="0.75" stroke-linecap="round" stroke-linejoin="round"/>
<path d="M341.939 56.9149H337.797V54.5015H341.939V50.3462H344.339V54.5015H348.481V56.9149H344.339V61.1361H341.939V56.9149Z" fill="white" stroke="#263238" stroke-width="0.75" stroke-linecap="round" stroke-linejoin="round"/>
<path d="M354.286 56.9149H350.145V54.5015H354.286V50.3462H356.687V54.5015H360.829V56.9149H356.687V61.1361H354.286V56.9149Z" fill="white" stroke="#263238" stroke-width="0.75" stroke-linecap="round" stroke-linejoin="round"/>
<path d="M210.838 1H236.155C240.912 1.00128 245.473 2.89187 248.837 6.25599C252.2 9.62012 254.089 14.1823 254.089 18.9392V44.2563C254.088 49.0124 252.198 53.5733 248.835 56.9364C245.472 60.2995 240.911 62.1894 236.155 62.1907H210.838C206.081 62.1907 201.519 60.3013 198.154 56.9381C194.79 53.5749 192.9 49.0132 192.898 44.2563V18.9392C192.898 14.1815 194.788 9.61855 198.153 6.25428C201.517 2.89002 206.08 1 210.838 1Z" fill="#0E2B5C" stroke="#263238" stroke-width="0.75" stroke-linecap="round"/>
<path d="M205.102 38.0389V25.1521C205.102 21.4458 207.027 19.2559 210.655 19.2559C214.283 19.2559 216.275 21.4458 216.275 25.1521V27.6845H212.713V24.9014C212.713 23.3318 211.948 22.6854 210.827 22.6854C209.707 22.6854 208.941 23.3318 208.941 24.9014V38.3031C208.941 39.8863 209.693 40.5056 210.827 40.5056C211.962 40.5056 212.713 39.8853 212.713 38.3031V34.6365H216.275V38.0399C216.275 41.7336 214.349 43.9226 210.721 43.9226C207.093 43.9226 205.102 41.7327 205.102 38.0389Z" fill="white" stroke="#263238" stroke-width="0.75" stroke-linecap="round" stroke-linejoin="round"/>
<path d="M217.895 37.8947V36.5758H221.456V38.2209C221.456 39.9356 222.208 40.5559 223.408 40.5559C224.607 40.5559 225.359 39.9356 225.359 38.1551C225.359 36.1635 224.607 34.8968 222.141 32.7359C218.988 29.9664 217.959 28.0135 217.959 25.2701C217.959 21.4961 219.911 19.3081 223.579 19.3081C227.246 19.3081 229.066 21.498 229.066 25.3359V26.3249H225.505V25.0959C225.505 23.3812 224.818 22.7347 223.618 22.7347C222.419 22.7347 221.745 23.3812 221.745 25.0301C221.745 26.6791 222.519 28.0377 224.99 30.2005C228.142 32.9701 229.145 34.8968 229.145 37.8773C229.145 41.8343 227.153 43.9738 223.446 43.9738C219.739 43.9738 217.895 41.7326 217.895 37.8947Z" fill="white" stroke="#263238" stroke-width="0.75" stroke-linecap="round" stroke-linejoin="round"/>
<path d="M230.648 37.8947V36.5758H234.21V38.2209C234.21 39.9356 234.961 40.5559 236.161 40.5559C237.361 40.5559 238.113 39.9356 238.113 38.1551C238.113 36.1635 237.361 34.8968 234.895 32.7359C231.742 29.9664 230.713 28.0135 230.713 25.2701C230.713 21.4961 232.665 19.3081 236.333 19.3081C240 19.3081 241.82 21.498 241.82 25.3359V26.3249H238.245V25.0959C238.245 23.3812 237.559 22.7347 236.359 22.7347C235.159 22.7347 234.485 23.3812 234.485 25.0301C234.485 26.6791 235.26 28.0377 237.73 30.2005C240.883 32.9701 241.885 34.8968 241.885 37.8773C241.885 41.8343 239.894 43.9738 236.188 43.9738C232.481 43.9738 230.648 41.7326 230.648 37.8947Z" fill="white" stroke="#263238" stroke-width="0.75" stroke-linecap="round" stroke-linejoin="round"/>
<path d="M444.768 121.44C448.347 106.431 439.081 91.3631 424.072 87.7848C409.063 84.2064 393.995 93.4726 390.417 108.481C386.838 123.49 396.105 138.558 411.113 142.136C426.122 145.715 441.19 136.449 444.768 121.44Z" fill="#65C2FF"/>
<mask id="mask3_3380_3514" style="mask-type:luminance" maskUnits="userSpaceOnUse" x="389" y="87" width="57" height="56">
<path d="M444.768 121.44C448.347 106.432 439.081 91.3636 424.072 87.7853C409.063 84.2069 393.995 93.4731 390.417 108.482C386.838 123.491 396.105 138.559 411.113 142.137C426.122 145.715 441.19 136.449 444.768 121.44Z" fill="white"/>
</mask>
<g mask="url(#mask3_3380_3514)">
<path d="M444.768 121.44C448.347 106.432 439.081 91.3636 424.072 87.7853C409.063 84.2069 393.995 93.4731 390.417 108.482C386.838 123.491 396.105 138.559 411.113 142.137C426.122 145.715 441.19 136.449 444.768 121.44Z" fill="#0E2B5C"/>
</g>
<path d="M444.768 121.44C448.347 106.431 439.081 91.3631 424.072 87.7848C409.063 84.2064 393.995 93.4726 390.417 108.481C386.838 123.49 396.105 138.558 411.113 142.136C426.122 145.715 441.19 136.449 444.768 121.44Z" stroke="#263238" stroke-width="0.75" stroke-linecap="round" stroke-linejoin="round"/>
<path d="M406.574 120.494V109.4C406.574 106.221 408.219 104.335 411.349 104.335C414.478 104.335 416.124 106.221 416.124 109.4V111.59H413.064V109.203C413.064 107.884 412.404 107.277 411.441 107.277C410.478 107.277 409.818 107.844 409.818 109.203V120.719C409.818 122.038 410.464 122.605 411.441 122.605C412.417 122.605 413.064 122.077 413.064 120.719V117.566H416.124V120.481C416.124 123.659 414.478 125.546 411.349 125.546C408.219 125.546 406.574 123.673 406.574 120.494Z" fill="white" stroke="#263238" stroke-width="0.75" stroke-linecap="round" stroke-linejoin="round"/>
<path d="M418.787 119.398H417.336L417.573 117.103H419.025L419.579 111.708H418.089L418.326 109.4H419.804L420.305 104.651H422.863L422.362 109.4H424.459L424.96 104.651H427.533L427.031 109.4H428.533L428.296 111.708H426.791L426.224 117.103H427.728L427.491 119.398H426.001L425.38 125.294H422.824L423.444 119.398H421.347L420.727 125.294H418.168L418.787 119.398ZM423.681 117.103L424.236 111.708H422.151L421.584 117.103H423.681Z" fill="white" stroke="#263238" stroke-width="0.75" stroke-linecap="round" stroke-linejoin="round"/>
<path d="M232.636 388.343H229.046L228.078 245.839H232.636V388.343Z" fill="#858585" stroke="#263238" stroke-linecap="round" stroke-linejoin="round"/>
<path d="M236.217 388.343H232.637V245.839H237.185L236.217 388.343Z" fill="#999999" stroke="#263238" stroke-linecap="round" stroke-linejoin="round"/>
<path d="M437.558 237.12H191.559V245.849H437.558V237.12Z" fill="#263238" stroke="#263238" stroke-linecap="round" stroke-linejoin="round"/>
<path d="M488.96 237.12H433.879V245.849H488.96V237.12Z" fill="#858585" stroke="#263238" stroke-linecap="round" stroke-linejoin="round"/>
<path d="M448.714 245.839H204.156V260.219H448.714V245.839Z" fill="#0E2B5C" stroke="#263238" stroke-miterlimit="10"/>
<path d="M448.72 260.229H477.199V245.848H448.72V260.229Z" fill="#65C2FF"/>
<mask id="mask4_3380_3514" style="mask-type:luminance" maskUnits="userSpaceOnUse" x="448" y="245" width="30" height="16">
<path d="M448.72 260.228H477.199V245.847H448.72V260.228Z" fill="white"/>
</mask>
<g mask="url(#mask4_3380_3514)">
<path opacity="0.3" d="M448.72 260.228H477.199V245.847H448.72V260.228Z" fill="black"/>
</g>
<path d="M448.72 260.229H477.199V245.848H448.72V260.229Z" stroke="#263238" stroke-miterlimit="10"/>
<path d="M448.716 388.343H445.136L444.168 245.839H448.716V388.343Z" fill="#858585" stroke="#263238" stroke-linecap="round" stroke-linejoin="round"/>
<path d="M452.305 388.343H448.715V245.839H453.273L452.305 388.343Z" fill="#999999" stroke="#263238" stroke-linecap="round" stroke-linejoin="round"/>
<path d="M204.156 388.343H200.565L199.598 245.839H204.156V388.343Z" fill="#858585" stroke="#263238" stroke-linecap="round" stroke-linejoin="round"/>
<path d="M207.737 388.343H204.156V245.839H208.704L207.737 388.343Z" fill="#999999" stroke="#263238" stroke-linecap="round" stroke-linejoin="round"/>
<path d="M477.199 388.343H473.608L472.641 245.839H477.199V388.343Z" fill="#858585" stroke="#263238" stroke-linecap="round" stroke-linejoin="round"/>
<path d="M480.78 388.343H477.199V245.839H481.747L480.78 388.343Z" fill="#999999" stroke="#263238" stroke-linecap="round" stroke-linejoin="round"/>
<path d="M350.521 236.152H321.693C321.41 236.149 321.139 236.035 320.94 235.834C320.741 235.633 320.629 235.361 320.629 235.078V232.697L351.595 233.665V235.078C351.595 235.363 351.482 235.636 351.281 235.837C351.079 236.039 350.806 236.152 350.521 236.152Z" fill="#858585" stroke="#263238" stroke-linecap="round" stroke-linejoin="round"/>
<path d="M317.412 236.152H259.456C258.979 236.134 258.52 235.969 258.14 235.68C257.761 235.39 257.48 234.991 257.337 234.536L244.892 194.144C244.799 193.908 244.766 193.653 244.796 193.401C244.826 193.149 244.918 192.909 245.064 192.702C245.21 192.494 245.405 192.327 245.632 192.214C245.858 192.1 246.11 192.045 246.363 192.054H304.319C304.795 192.069 305.254 192.232 305.634 192.52C306.013 192.808 306.294 193.206 306.438 193.66L318.883 234.052C318.975 234.288 319.008 234.544 318.978 234.796C318.948 235.048 318.856 235.288 318.71 235.496C318.565 235.704 318.37 235.873 318.143 235.987C317.917 236.101 317.665 236.158 317.412 236.152Z" fill="#999999" stroke="#263238" stroke-linecap="round" stroke-linejoin="round"/>
<path d="M321.441 234.052L308.996 193.66C308.852 193.206 308.571 192.808 308.192 192.52C307.812 192.232 307.353 192.069 306.877 192.054H304.312C304.788 192.069 305.248 192.232 305.627 192.52C306.007 192.808 306.288 193.206 306.432 193.66L318.876 234.052C318.969 234.288 319.002 234.544 318.972 234.796C318.942 235.048 318.85 235.289 318.704 235.496C318.559 235.704 318.364 235.873 318.137 235.987C317.911 236.102 317.659 236.158 317.405 236.152H320.009C320.259 236.152 320.506 236.091 320.727 235.974C320.949 235.856 321.138 235.687 321.279 235.48C321.42 235.273 321.509 235.035 321.537 234.786C321.565 234.537 321.532 234.285 321.441 234.052Z" fill="#858585" stroke="#263238" stroke-linecap="round" stroke-linejoin="round"/>
<path d="M285.475 214.097C285.546 214.547 285.517 215.007 285.39 215.445C285.264 215.882 285.043 216.286 284.743 216.629C284.443 216.972 284.071 217.244 283.654 217.427C283.237 217.61 282.785 217.699 282.329 217.688C281.342 217.663 280.395 217.288 279.658 216.631C278.921 215.973 278.441 215.076 278.304 214.097C278.233 213.648 278.261 213.188 278.388 212.751C278.514 212.314 278.735 211.91 279.036 211.569C279.336 211.227 279.708 210.955 280.125 210.774C280.542 210.592 280.994 210.504 281.449 210.517C282.434 210.543 283.379 210.917 284.115 211.572C284.852 212.227 285.333 213.122 285.475 214.097Z" fill="white" stroke="#263238" stroke-linecap="round" stroke-linejoin="round"/>
<path fill-rule="evenodd" clip-rule="evenodd" d="M125.019 155.956C124.998 159.939 127.922 162.313 132.579 161.234V150.678C127.86 149.241 125.039 152.149 125.019 155.956ZM132.722 135.416H139.141V165.801C132.988 166.807 127.096 167.446 122.884 165.088C117.456 162.053 117.019 152.411 121.314 148.115C123.491 145.937 127.876 144.405 132.583 145.405V135.848C132.57 135.646 132.56 135.444 132.725 135.42" fill="#0E2B5C"/>
<path fill-rule="evenodd" clip-rule="evenodd" d="M149.552 142.12H143.133V135.416H149.552V142.12Z" fill="#0E2B5C"/>
<path fill-rule="evenodd" clip-rule="evenodd" d="M226.579 161.518C233.576 164.237 234.35 148.993 227.292 150.389C222.908 151.26 223.05 160.144 226.579 161.518ZM226.864 145.114C232.208 144.543 236.239 146.901 237.848 150.534C240.592 156.734 237.697 163.847 233.283 165.938C231.132 166.88 228.767 167.225 226.437 166.937C219.748 166.356 215.53 159.537 217.878 151.96C218.118 151.162 218.453 150.395 218.877 149.678C220.328 147.206 222.785 145.55 226.864 145.113" fill="#0E2B5C"/>
<path fill-rule="evenodd" clip-rule="evenodd" d="M158.399 159.095C156.623 162.078 161.085 162.794 163.962 161.948V157.526C161.75 157.835 159.234 157.692 158.399 159.095ZM169.667 166.085C164.365 166.39 156.307 168.196 153.41 164.658C151.706 162.58 151.888 158.615 153.41 156.671C155.375 154.155 159.666 153.61 163.537 153.247C163.683 152.777 163.733 152.282 163.684 151.792C163.635 151.302 163.488 150.826 163.251 150.394C159.71 149.492 156.187 150.89 153.694 151.963V146.971C157.468 145.238 166.201 143.413 168.814 147.398C170.186 149.491 169.669 153.142 169.669 156.384V166.084L169.667 166.085Z" fill="#0E2B5C"/>
<path fill-rule="evenodd" clip-rule="evenodd" d="M192.202 166.368H185.783V158.096C185.783 155.372 186.223 151.918 184.784 150.821C183.657 149.962 180.983 150.394 179.365 150.821V166.369H172.945V146.542C179.507 144.838 191.351 143.01 192.203 151.249C192.623 155.313 191.892 161.41 192.203 166.369" fill="#0E2B5C"/>
<path fill-rule="evenodd" clip-rule="evenodd" d="M201.754 159.522C202.834 161.27 205.759 161.925 208.173 160.806C208.041 157.468 207.993 154.044 208.031 150.536C202.484 149.071 199.176 155.353 201.754 159.522ZM217.873 145.974C217.258 147.586 216.543 149.158 215.734 150.681C215.072 150.829 214.499 150.418 214.164 150.681C214.018 157.634 215.645 167.06 212.88 172.077C211.215 175.097 208.151 177.036 203.466 177.355C200.553 177.585 197.625 177.146 194.908 176.071V170.081C197.836 171.791 205.234 173.184 207.317 169.653C207.93 168.614 207.891 167.54 208.173 165.945C206.832 166.015 205.53 166.637 203.894 166.658C197.166 166.747 193.005 161.391 194.622 153.963C194.897 152.616 195.444 151.34 196.229 150.212C197.013 149.084 198.02 148.128 199.187 147.402C203.871 144.547 211.072 144.764 217.872 145.975" fill="#0E2B5C"/>
<path fill-rule="evenodd" clip-rule="evenodd" d="M149.549 145.515C149.542 150.241 149.544 153.637 149.543 159.38C149.27 165.023 149.334 169.516 147.268 172.216C146.674 172.908 146.004 173.53 145.27 174.071C144.568 174.707 143.743 175.193 142.845 175.497C142.182 175.538 140.478 174.577 139.707 174.213C138.743 173.666 137.74 173.189 136.707 172.786C139.149 171.274 141.466 170.139 142.416 167.077C143.239 164.417 143.13 160.563 143.13 156.807C143.13 153.098 143.146 148.785 143.146 145.511H149.548L149.549 145.515Z" fill="#0E2B5C"/>
</svg>
