<svg width="419" height="411" viewBox="0 0 419 411" fill="none" xmlns="http://www.w3.org/2000/svg">
<g clip-path="url(#clip0_3411_1087)">
<path d="M406.398 159.393C359.906 79.5847 233.81 108.009 208.053 69.1874C194.865 49.3103 180.112 26.2695 158.712 14.2878C138.311 2.86545 114.656 -1.21034 94.0345 0.303142C20.395 5.70598 -10.83 71.7515 3.32128 144.28C22.1986 241.028 107.757 339.855 209.399 340.547C262.56 340.911 313.312 321.861 353.125 294.934C353.421 294.732 353.719 294.53 354.015 294.328C393.786 267.19 441.892 220.325 406.398 159.393Z" fill="#B1ABE0"/>
<path opacity="0.7" d="M406.398 159.393C359.906 79.5847 233.81 108.009 208.053 69.1874C194.865 49.3103 180.112 26.2695 158.712 14.2878C138.311 2.86545 114.656 -1.21034 94.0345 0.303142C20.395 5.70598 -10.83 71.7515 3.32128 144.28C22.1986 241.028 107.757 339.855 209.399 340.547C262.56 340.911 313.312 321.861 353.125 294.934C353.421 294.732 353.719 294.53 354.015 294.328C393.786 267.19 441.892 220.325 406.398 159.393Z" fill="white"/>
<path d="M45.5243 165.199H40.356C28.8027 165.199 19.4375 174.587 19.4375 186.168V301.225C19.4375 312.806 28.8027 322.195 40.356 322.195H111.279C122.832 322.195 132.198 312.806 132.198 301.225" stroke="#150F41" stroke-width="1.1031" stroke-miterlimit="10" stroke-linecap="round" stroke-linejoin="round" stroke-dasharray="4.41 4.41"/>
<path d="M126.379 56.6361V33.9081C126.379 26.8158 132.115 21.0659 139.19 21.0659H231.423C238.498 21.0659 244.234 26.8158 244.234 33.9081" stroke="#150F41" stroke-width="1.1031" stroke-miterlimit="10" stroke-linecap="round" stroke-linejoin="round" stroke-dasharray="4.41 4.41"/>
<path d="M209.389 410.897C310.275 410.897 392.06 399.442 392.06 385.31C392.06 371.178 310.275 359.72 209.389 359.72C108.503 359.72 26.7188 371.178 26.7188 385.31C26.7188 399.442 108.503 410.897 209.389 410.897Z" fill="#B1ABE0"/>
<path opacity="0.5" d="M209.389 410.897C310.275 410.897 392.06 399.442 392.06 385.31C392.06 371.178 310.275 359.72 209.389 359.72C108.503 359.72 26.7188 371.178 26.7188 385.31C26.7188 399.442 108.503 410.897 209.389 410.897Z" fill="white"/>
<path d="M381.59 87.1306V259.284C381.59 271.001 372.112 280.504 360.422 280.504H58.3685C46.6789 280.504 37.1992 271.001 37.1992 259.284V87.1306C37.1992 86.625 37.2204 86.1287 37.2625 85.6334C38.0196 74.6127 47.1836 65.9009 58.3675 65.9009H360.422C371.608 65.9009 380.771 74.6127 381.529 85.6334C381.571 86.1287 381.59 86.625 381.59 87.1306Z" fill="white" stroke="#8575FF" stroke-width="1.1031" stroke-miterlimit="10" stroke-linecap="round" stroke-linejoin="round"/>
<path d="M352.532 272.5H67.3388C56.3818 272.5 47.5 263.596 47.5 252.614V93.5859H372.368V252.613C372.368 263.596 363.487 272.5 352.532 272.5Z" fill="#8575FF"/>
<path opacity="0.2" d="M372.374 93.585V252.617C372.374 263.596 363.586 272.497 352.756 272.497H67.1185C56.2903 272.497 47.5 263.596 47.5 252.617V93.585H372.374Z" fill="white"/>
<path d="M381.527 85.6334H37.2617C38.0188 74.6127 47.1829 65.9009 58.3668 65.9009H360.42C371.606 65.9009 380.769 74.6117 381.527 85.6334Z" fill="#4632DA" stroke="#8575FF" stroke-width="1.1031" stroke-miterlimit="10"/>
<path d="M79.5651 75.766C79.5651 77.8416 77.8865 79.5246 75.8159 79.5246C73.745 79.5246 72.0664 77.8416 72.0664 75.766C72.0664 73.6904 73.745 72.0078 75.8159 72.0078C77.8865 72.0078 79.5651 73.6904 79.5651 75.766Z" fill="#8575FF"/>
<path d="M95.4205 75.766C95.4205 77.8416 93.742 79.5246 91.671 79.5246C89.6004 79.5246 87.9219 77.8416 87.9219 75.766C87.9219 73.6904 89.6004 72.0078 91.671 72.0078C93.741 72.0078 95.4205 73.6904 95.4205 75.766Z" fill="#8575FF"/>
<path d="M107.527 79.5246C109.597 79.5246 111.276 77.8416 111.276 75.766C111.276 73.6904 109.597 72.0078 107.527 72.0078C105.456 72.0078 103.777 73.6904 103.777 75.766C103.777 77.8416 105.456 79.5246 107.527 79.5246Z" fill="#8575FF"/>
<path d="M372.368 93.5913V252.613C372.368 263.592 363.487 272.505 352.525 272.505H67.3359C57.6989 272.505 49.6708 265.608 47.8825 256.474L47.8722 256.463V256.421C47.6298 255.187 47.5039 253.912 47.5039 252.614V93.5913H372.368Z" stroke="#8575FF" stroke-width="1.1031" stroke-miterlimit="10"/>
<path d="M372.061 118.188C370.671 117.408 369.187 116.796 367.652 116.363L365.874 108.38H358.3L356.531 116.363C354.986 116.785 353.503 117.408 352.113 118.188L345.274 113.8L339.918 119.169L344.224 126.024C343.434 127.426 342.824 128.913 342.403 130.453L334.438 132.225V139.818L342.403 141.601C342.824 143.162 343.434 144.659 344.224 146.061L339.844 152.959L345.2 158.327L352.08 153.94C353.471 154.73 354.954 155.342 356.502 155.774L358.268 163.748H365.842L367.62 155.774C369.158 155.342 370.642 154.72 372.029 153.94L372.375 154.161V117.986L372.061 118.188ZM362.108 145.873C356.701 145.873 352.321 141.486 352.321 136.065C352.321 130.654 356.701 126.256 362.108 126.256C367.514 126.256 371.894 130.654 371.894 136.065C371.894 141.486 367.514 145.873 362.108 145.873Z" fill="#8575FF"/>
<path d="M235.574 125.879V109.869L218.781 106.135C217.865 102.887 216.583 99.7439 214.941 96.7906L216.972 93.585H137.715L139.673 96.7066C138.021 99.6492 136.737 102.781 135.843 106.04L119.051 109.784V125.794L135.843 129.548C136.738 132.828 138.021 135.992 139.673 138.956L130.446 153.5L141.745 164.816L156.244 155.567C159.19 157.223 162.314 158.52 165.565 159.437L169.289 176.248H185.26L189.016 159.437C192.256 158.519 195.372 157.211 198.306 155.567L212.815 164.816L224.104 153.5L214.94 138.956C216.571 136.003 217.865 132.881 218.78 129.633L235.574 125.879ZM177.391 138.556C165.996 138.556 156.759 129.297 156.759 117.874C156.759 106.452 165.996 97.1922 177.391 97.1922C188.786 97.1922 198.023 106.452 198.023 117.874C198.023 129.297 188.786 138.556 177.391 138.556Z" fill="#8575FF"/>
<path d="M129.643 235.813L130.316 223.116L117.185 219.403C116.575 216.798 115.67 214.257 114.492 211.852L122.425 200.683L113.924 191.223L102.035 197.962C99.7617 196.539 97.3421 195.367 94.7963 194.492L92.5235 180.992L79.8562 180.317L76.1947 193.522C73.5853 194.102 71.0604 195.009 68.6616 196.201L57.53 188.249L48.0818 196.771L54.8157 208.699C53.3641 210.967 52.206 213.392 51.3439 215.944L47.5039 216.577V233.779L50.2918 234.57C50.8813 237.196 51.7854 239.737 52.9853 242.142L47.5039 249.83L47.8722 256.422V256.464L47.8825 256.474L53.5327 262.761L65.4426 256.021C67.7154 257.487 70.1562 258.669 72.702 259.533L74.8689 272.495V272.505L74.9739 273.043L87.6409 273.718L87.9777 272.505V272.495L91.3027 260.514C93.9333 259.923 96.4579 259.027 98.8775 257.835L109.988 265.776L119.436 257.265L112.724 245.327C114.154 243.059 115.312 240.633 116.153 238.092L129.643 235.813ZM95.9952 215.975C89.935 209.225 79.5614 208.677 72.8279 214.751C66.094 220.826 65.5476 231.224 71.6068 237.974C77.6674 244.724 88.0406 245.262 94.7745 239.187C101.508 233.113 102.055 222.725 95.9952 215.975Z" fill="#8575FF"/>
<path d="M230.95 216.838C231.443 214.872 231.697 212.852 231.719 210.824L240.827 206.025L238.31 196.762L228.03 197.244C226.99 195.507 225.745 193.896 224.337 192.459L227.383 182.602L219.082 177.834L212.138 185.431C210.184 184.95 208.178 184.699 206.158 184.667L201.35 175.53L192.123 178.047L192.61 188.365C190.877 189.407 189.27 190.654 187.828 192.063L177.991 189.019L173.229 197.326L180.848 204.269C180.356 206.235 180.105 208.245 180.097 210.267L170.973 215.083L173.49 224.345L183.783 223.856C184.809 225.6 186.043 227.207 187.463 228.646L184.402 238.454L192.704 243.221L199.613 235.69C201.574 236.184 203.579 236.436 205.606 236.447L210.401 245.59L219.628 243.074L219.223 234.261L219.155 232.75C220.908 231.715 222.524 230.472 223.984 229.046L233.815 232.11L237.877 224.993L238.57 223.788L230.95 216.838ZM209.134 222.464C202.542 224.263 195.75 220.362 193.962 213.767C192.168 207.159 196.059 200.35 202.638 198.558C209.231 196.759 216.023 200.66 217.811 207.255C219.605 213.864 215.714 220.673 209.134 222.464Z" fill="#8575FF"/>
<path d="M336.548 233.128L338.651 220.419L325.815 215.241C325.52 212.531 324.9 209.873 323.975 207.31L333.212 196.996L325.731 186.513L312.99 191.934C310.875 190.236 308.571 188.802 306.109 187.651L305.363 173.793L292.674 171.694L287.477 184.509C284.784 184.825 282.143 185.448 279.597 186.365L269.275 177.106L258.828 184.604L264.246 197.366C262.752 199.243 261.458 201.247 260.385 203.378C260.238 203.673 260.09 203.969 259.954 204.264L246.139 205.034L244.035 217.732L246.118 218.576L256.871 222.921C257.166 225.611 257.776 228.269 258.712 230.821L249.475 241.167L256.955 251.64L269.697 246.198C271.801 247.917 274.116 249.362 276.567 250.512L277.282 264.307L289.96 266.406L295.147 253.687C297.85 253.392 300.502 252.769 303.048 251.832L313.348 261.102L323.805 253.593L318.388 240.82C320.113 238.701 321.574 236.37 322.733 233.891L336.548 233.128ZM300.975 232.559C293.516 237.906 283.142 236.187 277.808 228.709C272.463 221.243 274.188 210.843 281.637 205.497C289.097 200.139 299.471 201.868 304.805 209.335C310.149 216.812 308.424 227.211 300.975 232.559Z" fill="#8575FF"/>
<path d="M164.638 302.498H64.8948C57.9892 302.498 52.3906 296.886 52.3906 289.964V151.529C52.3906 144.606 57.9882 138.994 64.8948 138.994H164.638C171.544 138.994 177.143 144.606 177.143 151.529V289.964C177.143 296.887 171.544 302.498 164.638 302.498Z" fill="#4632DA" stroke="#150F41" stroke-width="1.1031" stroke-miterlimit="10"/>
<path opacity="0.2" d="M164.638 302.498H64.8948C57.9892 302.498 52.3906 296.886 52.3906 289.964V151.529C52.3906 144.606 57.9882 138.994 64.8948 138.994H164.638C171.544 138.994 177.143 144.606 177.143 151.529V289.964C177.143 296.887 171.544 302.498 164.638 302.498Z" fill="black"/>
<path d="M188.755 163.878V302.312C188.755 309.241 183.158 314.853 176.245 314.853H76.5033C69.6015 314.853 64.0039 309.242 64.0039 302.312V163.878C64.0039 156.96 69.6005 151.349 76.5033 151.349H176.245C183.157 151.349 188.755 156.959 188.755 163.878Z" fill="white" stroke="#150F41" stroke-width="1.1031" stroke-miterlimit="10" stroke-linecap="round" stroke-linejoin="round"/>
<path d="M188.755 163.878V171.293H64.0039V163.878C64.0039 156.96 69.6005 151.349 76.5033 151.349H176.245C183.157 151.349 188.755 156.959 188.755 163.878Z" fill="#4632DA" stroke="#150F41" stroke-width="1.1031" stroke-miterlimit="10"/>
<path d="M106.425 179.88H75.7344V185.04H106.425V179.88Z" fill="#4632DA"/>
<path d="M106.425 226.144H75.7344V231.303H106.425V226.144Z" fill="#4632DA"/>
<path d="M106.425 268.097H75.7344V273.257H106.425V268.097Z" fill="#4632DA"/>
<path d="M162.906 192.655H75.7383V196.441H162.906V192.655Z" fill="#150F41"/>
<path d="M147.188 199.9H75.7383V203.588H147.188V199.9Z" fill="#150F41"/>
<path d="M156.545 207.021H75.7383V210.71H156.545V207.021Z" fill="#150F41"/>
<path d="M156.545 214.136H75.7383V217.824H156.545V214.136Z" fill="#150F41"/>
<path d="M162.906 234.608H75.7383V238.394H162.906V234.608Z" fill="#150F41"/>
<path d="M147.188 241.853H75.7383V245.541H147.188V241.853Z" fill="#150F41"/>
<path d="M156.545 248.974H75.7383V252.662H156.545V248.974Z" fill="#150F41"/>
<path d="M162.906 280.679H75.7383V284.464H162.906V280.679Z" fill="#150F41"/>
<path d="M147.188 287.923H75.7383V291.611H147.188V287.923Z" fill="#150F41"/>
<path d="M156.545 295.044H75.7383V298.733H156.545V295.044Z" fill="#150F41"/>
<path d="M329.346 55.3598V111.31C329.346 119.568 322.674 126.255 314.436 126.255H185.877C177.65 126.255 170.969 119.568 170.969 111.31V55.3598C170.969 47.1021 177.65 40.4048 185.877 40.4048H314.436C322.674 40.4048 329.346 47.1021 329.346 55.3598Z" fill="white" stroke="#222221" stroke-width="1.1031" stroke-miterlimit="10"/>
<path d="M329.346 55.3598V56.6362H170.969V55.3598C170.969 47.1021 177.65 40.4048 185.877 40.4048H314.436C322.674 40.4048 329.346 47.1021 329.346 55.3598Z" fill="#4632DA" stroke="#150F41" stroke-width="1.1031" stroke-miterlimit="10"/>
<path d="M194.238 51.1943C193.346 52.0884 191.9 52.0884 191.009 51.1943C190.117 50.3002 190.117 48.851 191.009 47.9572C191.9 47.0631 193.346 47.0631 194.238 47.9572C195.13 48.851 195.13 50.3002 194.238 51.1943Z" fill="#150F41"/>
<path d="M204.84 51.1943C203.948 52.0884 202.502 52.0884 201.61 51.1943C200.718 50.3002 200.718 48.851 201.61 47.9572C202.502 47.0631 203.948 47.0631 204.84 47.9572C205.732 48.851 205.732 50.3002 204.84 51.1943Z" fill="#150F41"/>
<path d="M215.449 51.1943C214.557 52.0884 213.111 52.0884 212.22 51.1943C211.328 50.3002 211.328 48.851 212.22 47.9572C213.111 47.0631 214.557 47.0631 215.449 47.9572C216.341 48.851 216.341 50.3002 215.449 51.1943Z" fill="#150F41"/>
<path d="M232.84 66.9248H181.07V111.782H232.84V66.9248Z" stroke="#150F41" stroke-width="1.1031" stroke-miterlimit="10" stroke-linecap="round" stroke-linejoin="round" stroke-dasharray="4.41 4.41"/>
<path d="M300.408 66.9248H240.828V70.0751H300.408V66.9248Z" fill="#150F41"/>
<path d="M286.53 73.4575H240.828V76.6078H286.53V73.4575Z" fill="#150F41"/>
<path d="M308.883 79.9531H240.828V83.1407H308.883V79.9531Z" fill="#150F41"/>
<path d="M298.778 86.2998H240.828V89.4874H298.778V86.2998Z" fill="#150F41"/>
<path d="M254.086 380.592C254.086 380.592 226.425 388.545 222.565 389.916C219.051 391.162 209.529 394.502 202.384 393.469C201.68 393.363 200.996 393.215 200.343 393.025C193.105 390.866 189.854 388.851 188.906 384.284C187.949 379.707 191.558 376.363 195.03 374.21C198.502 372.06 217.335 369.813 217.335 369.813L221.88 371.152H221.89L254.086 380.592Z" fill="#4632DA"/>
<path d="M202.384 393.469C201.68 393.366 200.996 393.218 200.343 393.028C193.105 390.866 189.854 388.851 188.906 384.284C187.949 379.707 191.558 376.363 195.03 374.213C198.502 372.06 217.335 369.813 217.335 369.813L221.88 371.152C217.766 373.051 202.427 374.107 199.081 376.035C195.735 377.966 194.114 381.603 196.092 386.521C197.145 389.137 199.964 391.667 202.384 393.469Z" fill="white"/>
<path d="M249.923 381.725C249.923 381.725 229.15 387.119 220.913 390.572C212.676 394.026 196.959 395.535 191.362 388.413C185.764 381.294 190.716 375.166 196.314 373.804C201.912 372.443 213.231 370.286 219.412 371.149" stroke="#150F41" stroke-width="1.1031" stroke-miterlimit="10" stroke-linecap="round" stroke-linejoin="round"/>
<path d="M202.801 393.092C202.801 393.092 192.231 387.283 195.741 379.14C198.332 373.131 212.432 374.431 219.413 371.148" stroke="#150F41" stroke-width="1.1031" stroke-miterlimit="10" stroke-linecap="round" stroke-linejoin="round"/>
<path d="M338.331 394.756C338.048 397.595 337.047 400.314 334.186 402.001C332.282 403.131 329.566 403.806 325.684 403.761C315.984 403.636 297.751 396.687 297.751 396.687L280.676 387.225L289.555 373.134L291.986 369.275L298.266 370.688C298.266 370.688 303.464 373.643 308.693 375.992C313.922 378.345 326.612 378.841 331.081 382.468C335.554 386.086 338.816 390.031 338.331 394.756Z" fill="#4632DA"/>
<path d="M338.331 394.756C338.046 397.592 337.047 400.314 334.186 402.001C334.723 399.796 335.162 396.748 333.702 393.459C331.807 389.166 325.588 385.381 317.425 384.747C309.271 384.116 303.011 380.286 299.739 378.58C297.183 377.251 291.796 374.351 289.555 373.138L291.985 369.275L298.266 370.688C298.266 370.688 303.463 373.643 308.692 375.992C313.921 378.345 326.609 378.841 331.082 382.468C335.554 386.086 338.813 390.031 338.331 394.756Z" fill="white"/>
<path d="M284.458 389.88C296.614 396.858 310.517 401.885 324.427 403.565C327.531 403.939 331.147 403.99 333.227 401.654C334.386 400.347 334.81 398.503 334.662 396.762C334.284 392.368 330.598 388.883 326.555 387.142C322.516 385.4 318.051 384.985 313.758 384.02C309.483 383.057 305.334 381.538 301.449 379.504C298.363 377.892 295.376 375.932 291.97 375.207C288.564 374.486 284.507 375.362 282.691 378.339" stroke="#150F41" stroke-width="1.1031" stroke-miterlimit="10" stroke-linecap="round" stroke-linejoin="round"/>
<path d="M332.089 402.844C335.232 401.228 337.811 398.258 338.334 394.756C338.954 390.614 336.6 386.449 333.283 383.903C329.97 381.354 325.825 380.157 321.734 379.307C317.645 378.454 313.461 377.881 309.57 376.356C303.587 374.013 297.686 369.385 291.477 371.036" stroke="#150F41" stroke-width="1.1031" stroke-miterlimit="10" stroke-linecap="round" stroke-linejoin="round"/>
<path d="M303.723 241.767L274.832 230.747L274.475 230.609C274.475 230.609 274.58 229.839 274.665 228.722C274.844 226.412 274.938 222.646 273.855 221.37C272.245 219.482 267.679 221.064 263.229 219.018C258.778 216.972 250.541 220.632 250.541 220.632C250.541 220.632 244.596 219.535 241.977 223.839C240.64 227.308 241.103 232.476 241.103 232.476C241.103 232.476 240.914 232.55 240.555 232.677C237.115 233.964 218.388 241.03 214.421 243.867C210.044 246.978 205.204 278.882 203.647 288.247C202.089 297.623 199.322 306.06 200.732 309.288C202.131 312.505 222.259 328.041 233.832 332.048C245.405 336.065 286.47 334.883 286.47 334.883C286.47 334.883 287.143 334.703 288.331 334.323C295.276 332.09 319.916 322.882 332.984 301.166C332.984 301.166 320.326 259.549 303.723 241.767ZM225.666 295.428C223.541 296.937 224.677 302.79 224.677 302.79L221.057 299.595L230.137 277.215L234.008 294.396C234.008 294.396 227.792 293.931 225.666 295.428ZM298.305 309.645C297.305 310.162 301.178 299.405 299.336 296.969C297.495 294.522 291.981 294.765 291.981 294.765L292.454 291.822C292.517 291.495 295.727 275.001 295.727 275.001L296.81 273.703C296.81 273.703 308.047 293.015 310.056 299.817C310.056 299.817 297.81 309.645 298.305 309.645Z" fill="#4632DA"/>
<path d="M249.178 171.964L234.267 187.834C234.267 187.834 232.211 189.656 233.028 194.26C233.845 198.863 235.748 202.818 237.187 203.125C238.624 203.432 240.639 203.434 240.639 203.434C240.639 203.434 243.834 210.376 246.098 213.104C246.098 213.104 246.886 223.819 246.467 226.793C246.467 226.793 251.823 231.484 256.87 232.081C261.916 232.677 269.713 224.927 269.713 224.927L271.645 215.44C271.645 215.44 276.219 208.479 276.531 206.627C276.843 204.774 278.934 205.249 279.962 204.335C280.989 203.421 283.368 199.333 283.761 195.47C284.154 191.608 284.181 187.17 279.704 188.473C275.826 187.428 278.253 179.209 278.253 179.209L271.438 173.181L249.178 171.964Z" fill="white"/>
<path opacity="0.5" d="M274.832 230.747C274.601 231.358 274.349 231.938 274.065 232.476C271.603 237.127 260.881 245.986 260.881 245.986L257.641 235.999L255.863 245.986C252.285 244.425 241.375 234.945 241.375 234.945C241.375 234.945 241.007 234.058 240.555 232.677C240.912 232.551 241.102 232.476 241.102 232.476C241.102 232.476 240.639 227.308 241.976 223.839C244.596 219.535 250.54 220.632 250.54 220.632C250.54 220.632 258.777 216.972 263.228 219.018C267.678 221.064 272.245 219.482 273.854 221.37C275.464 223.257 274.475 230.609 274.475 230.609L274.832 230.747Z" fill="white"/>
<path opacity="0.2" d="M303.728 241.766L274.837 230.746L274.479 230.608C274.479 230.608 274.584 229.838 274.669 228.721L274.069 232.475L269.797 238.297C269.797 238.297 277.021 240.91 283.128 244.187C287.374 246.466 289.812 251.1 289.253 255.895L283.927 301.546L281.75 327.47L288.336 334.326C295.28 332.089 319.92 322.881 332.988 301.165C332.988 301.165 320.33 259.549 303.728 241.766ZM298.309 309.645C297.31 310.161 301.182 299.404 299.34 296.968C297.499 294.522 291.986 294.764 291.986 294.764L292.459 291.822C292.522 291.495 295.731 275 295.731 275L296.815 273.703C296.815 273.703 308.051 293.014 310.061 299.816C310.061 299.816 297.814 309.645 298.309 309.645Z" fill="black"/>
<path opacity="0.2" d="M235.97 296.969L231.478 281.919C231.478 281.919 223.423 254.38 217.9 247.588L219.351 266.955C219.351 266.955 214.612 290.093 210.225 296.969C205.837 303.834 204.89 305.553 210.225 305.553C215.57 305.553 228.531 315.921 228.531 315.921L227.532 307.273L235.97 296.969ZM224.68 302.79L221.061 299.595L230.141 277.215L234.012 294.396C234.012 294.396 227.794 293.932 225.668 295.43C223.544 296.937 224.68 302.79 224.68 302.79Z" fill="black"/>
<path d="M246.098 213.104C246.098 213.104 246.928 221.219 246.098 224.927" stroke="#150F41" stroke-width="1.1031" stroke-miterlimit="10" stroke-linecap="round" stroke-linejoin="round"/>
<path d="M270.536 223.841C270.536 223.841 270.489 219.887 271.437 216.088" stroke="#150F41" stroke-width="1.1031" stroke-miterlimit="10" stroke-linecap="round" stroke-linejoin="round"/>
<path d="M272.708 178.014C272.708 178.014 277.605 184.183 277.354 188.841C277.103 193.498 276.727 199.038 276.852 204.452C276.978 209.865 268.186 221.195 263.665 222.202C259.144 223.209 255.25 223.461 252.361 220.566C249.473 217.67 246.584 213.641 242.817 208.479C239.05 203.318 239.929 191.987 239.929 191.987" stroke="#150F41" stroke-width="1.1031" stroke-miterlimit="10" stroke-linecap="round" stroke-linejoin="round"/>
<path d="M260.916 196.306C260.617 197.997 260.489 199.72 260.534 201.437C260.572 202.875 260.785 204.43 261.79 205.457C262.332 206.01 263.118 206.453 263.221 207.221C263.312 207.902 262.792 208.521 262.214 208.892C261.637 209.263 260.966 209.492 260.449 209.944" stroke="#150F41" stroke-width="1.1031" stroke-miterlimit="10" stroke-linecap="round" stroke-linejoin="round"/>
<path d="M253.133 210.542C253.133 210.542 253.7 214.201 258.594 214.966" stroke="#150F41" stroke-width="1.1031" stroke-miterlimit="10" stroke-linecap="round" stroke-linejoin="round"/>
<path d="M253.643 199.096C253.643 200.153 253.187 201.011 252.624 201.011C252.061 201.011 251.605 200.153 251.605 199.096C251.605 198.038 252.061 197.181 252.624 197.181C253.187 197.182 253.643 198.038 253.643 199.096Z" fill="#150F41"/>
<path d="M268.248 199.556C268.248 200.613 267.792 201.471 267.229 201.471C266.667 201.471 266.211 200.613 266.211 199.556C266.211 198.498 266.667 197.641 267.229 197.641C267.791 197.642 268.248 198.498 268.248 199.556Z" fill="#150F41"/>
<path d="M265.305 194.921C265.305 194.921 270.053 190.161 274.07 195.469" stroke="#150F41" stroke-width="2.2062" stroke-miterlimit="10" stroke-linecap="round" stroke-linejoin="round"/>
<path d="M255.257 195.012C255.257 195.012 252.244 191.626 247.496 195.012" stroke="#150F41" stroke-width="2.2062" stroke-miterlimit="10" stroke-linecap="round" stroke-linejoin="round"/>
<path d="M246.467 217.563C246.467 217.563 249.375 225.598 255.869 227.877C262.364 230.155 270.988 218.33 270.988 218.33L270.536 216.791C270.536 216.791 264.886 224.15 258.6 222.896C252.314 221.641 246.098 213.104 246.098 213.104L246.467 217.563Z" fill="#150F41"/>
<path d="M240.638 203.124C240.638 203.124 236.766 204.494 235.737 201.47C234.708 198.446 231.179 190.487 234.266 187.834C237.355 185.181 239.836 191.337 239.836 191.337" stroke="#150F41" stroke-width="1.1031" stroke-miterlimit="10" stroke-linecap="round" stroke-linejoin="round"/>
<path d="M276.84 204.773C276.84 204.773 280.438 205.499 281.468 202.475C282.497 199.451 286.026 191.491 282.938 188.837C279.85 186.184 277.368 192.34 277.368 192.34" stroke="#150F41" stroke-width="1.1031" stroke-miterlimit="10" stroke-linecap="round" stroke-linejoin="round"/>
<path d="M239.835 199.096C240.907 199.047 242.668 197.999 243.232 197.083C243.797 196.168 244.036 195.092 244.219 194.031C244.57 192.001 244.751 189.94 244.757 187.88C244.76 187.075 244.738 186.253 244.973 185.483C245.217 184.681 245.724 183.987 246.267 183.349C247.619 181.762 249.245 180.42 250.53 178.779C251.814 177.137 252.759 175.059 252.411 173.002C252.411 173.002 261.191 181.046 273.847 178.558C280.66 177.219 287.2 171.225 286.403 163.692C286.12 161.011 284.154 159.084 281.603 158.447C278.235 157.608 275.209 159.407 272.158 160.561C266.594 162.664 261.151 159.052 255.53 158.447C250.723 157.929 244.824 158.526 242.32 163.317C242.32 163.317 233.687 164.334 229.904 171.442C226.122 178.551 233.311 188.391 233.311 188.391C233.311 188.391 236.205 184.881 239.923 191.988L239.835 199.096Z" fill="#150F41"/>
<path d="M273.245 176.196C273.245 176.196 271.012 187.86 276.837 193.506C276.837 193.506 278.113 190.001 279.405 189.145C279.405 189.145 282.648 182.983 278.385 176.196C274.123 169.409 273.245 176.196 273.245 176.196Z" fill="#150F41"/>
<path opacity="0.2" d="M283.922 162.924C283.06 166.138 280.348 168.625 277.273 169.88C269.185 173.183 261.329 169.52 253.232 168.803C246.614 168.217 239.318 174.193 238.855 181.004" stroke="white" stroke-width="1.1031" stroke-miterlimit="10" stroke-linecap="round" stroke-linejoin="round"/>
<path opacity="0.2" d="M233.832 179.208C233.954 173.846 237.488 168.715 242.447 166.701" stroke="white" stroke-width="1.1031" stroke-miterlimit="10" stroke-linecap="round" stroke-linejoin="round"/>
<path d="M244.23 223.84C244.23 223.84 249.559 229.726 256.825 232.478C256.825 232.478 266.507 229.663 271.435 222.896" stroke="#150F41" stroke-width="1.1031" stroke-miterlimit="10" stroke-linecap="round" stroke-linejoin="round"/>
<path d="M254.134 206.898C258.436 204.92 260.323 199.822 258.351 195.51C256.378 191.198 251.292 189.306 246.99 191.284C242.689 193.261 240.802 198.359 242.774 202.671C244.747 206.983 249.833 208.875 254.134 206.898Z" stroke="#150F41" stroke-width="1.1031" stroke-miterlimit="10" stroke-linecap="round" stroke-linejoin="round"/>
<path d="M270.714 207.616C275.411 207.037 278.75 202.752 278.174 198.045C277.597 193.337 273.322 189.989 268.626 190.567C263.929 191.146 260.589 195.431 261.166 200.138C261.743 204.846 266.018 208.194 270.714 207.616Z" stroke="#150F41" stroke-width="1.1031" stroke-miterlimit="10" stroke-linecap="round" stroke-linejoin="round"/>
<path d="M246.098 220.637C246.098 220.637 243.493 221.165 241.977 223.84C240.46 226.514 241.375 234.938 241.375 234.938C241.375 234.938 249.203 242.705 255.869 245.98L257.835 234.896L260.887 245.98C260.887 245.98 271.21 238.663 274.069 232.477C274.069 232.477 275 225.264 274.069 222.895C273.137 220.525 270.988 220.636 270.988 220.636" stroke="#150F41" stroke-width="1.1031" stroke-miterlimit="10" stroke-linecap="round" stroke-linejoin="round"/>
<path d="M233.832 294.767C233.832 294.767 230.776 274.216 226.703 265.831" stroke="#150F41" stroke-width="1.1031" stroke-miterlimit="10" stroke-linecap="round" stroke-linejoin="round"/>
<path d="M217.898 247.588C217.898 247.588 221.766 253.023 224.231 258.211" stroke="#150F41" stroke-width="1.1031" stroke-miterlimit="10" stroke-linecap="round" stroke-linejoin="round"/>
<path d="M298.309 262.931C299.385 258.836 300.53 255.244 301.673 252.899" stroke="#150F41" stroke-width="1.1031" stroke-miterlimit="10" stroke-linecap="round" stroke-linejoin="round"/>
<path d="M291.98 294.767C291.98 294.767 294.188 280.678 296.815 269.066" stroke="#150F41" stroke-width="1.1031" stroke-miterlimit="10" stroke-linecap="round" stroke-linejoin="round"/>
<path d="M295.727 274.996C297.829 272.182 300.877 270.093 304.256 269.149" stroke="#150F41" stroke-width="1.1031" stroke-miterlimit="10" stroke-linecap="round" stroke-linejoin="round"/>
<path d="M274.477 230.608C274.477 230.608 292.254 237.726 303.727 241.769C303.727 241.769 317.843 255.076 332.976 301.167C332.976 301.167 319.105 324.552 292.727 332.051" stroke="#150F41" stroke-width="1.1031" stroke-miterlimit="10" stroke-linecap="round" stroke-linejoin="round"/>
<path d="M297.316 310.483L310.062 299.816C310.062 299.816 316.804 294.679 323.816 298.193" stroke="#150F41" stroke-width="1.1031" stroke-miterlimit="10" stroke-linecap="round" stroke-linejoin="round"/>
<path d="M296.816 273.706C296.816 273.706 307.359 289.272 310.056 299.816" stroke="#150F41" stroke-width="1.1031" stroke-miterlimit="10" stroke-linecap="round" stroke-linejoin="round"/>
<path d="M224.798 303.381L221.068 299.815C221.068 299.815 215.531 298.845 209.262 303.059" stroke="#150F41" stroke-width="1.1031" stroke-miterlimit="10" stroke-linecap="round" stroke-linejoin="round"/>
<path d="M221.066 299.816C221.066 299.816 225.699 284.563 230.268 276.688" stroke="#150F41" stroke-width="1.1031" stroke-miterlimit="10" stroke-linecap="round" stroke-linejoin="round"/>
<path d="M241.103 232.478C241.103 232.478 215.531 242.096 213.024 244.897C210.516 247.698 200.987 301.494 200.736 307.651C200.512 313.154 220.431 325.52 230.27 330.731" stroke="#150F41" stroke-width="1.1031" stroke-miterlimit="10" stroke-linecap="round" stroke-linejoin="round"/>
<path d="M333.677 223.84H304.539C301.098 223.84 298.309 221.044 298.309 217.595V200.459C298.309 197.01 301.097 194.214 304.539 194.214H333.677C337.119 194.214 339.906 197.009 339.906 200.459V217.595C339.906 221.043 337.119 223.84 333.677 223.84Z" fill="white" stroke="#150F41" stroke-width="1.1031" stroke-miterlimit="10" stroke-linecap="round" stroke-linejoin="round"/>
<path d="M311.73 203.124L303.73 208.158L311.154 214.757" stroke="#150F41" stroke-width="1.1031" stroke-miterlimit="10" stroke-linecap="round" stroke-linejoin="round"/>
<path d="M326.306 215.237L333.495 209.096L325.195 203.643" stroke="#150F41" stroke-width="1.1031" stroke-miterlimit="10" stroke-linecap="round" stroke-linejoin="round"/>
<path d="M315.621 219.016L321.527 200.455" stroke="#150F41" stroke-width="1.1031" stroke-miterlimit="10" stroke-linecap="round" stroke-linejoin="round"/>
<path d="M260.222 250.651C260.222 251.582 259.47 252.337 258.541 252.337C257.612 252.337 256.859 251.582 256.859 250.651C256.859 249.72 257.612 248.966 258.541 248.966C259.47 248.966 260.222 249.72 260.222 250.651Z" fill="#150F41"/>
<path d="M289.812 340.734H231.614C230.86 340.734 230.25 340.122 230.25 339.366C230.25 338.613 230.861 337.998 231.614 337.998H289.812C290.565 337.998 291.176 338.613 291.176 339.366C291.176 340.122 290.565 340.734 289.812 340.734Z" fill="#150F41"/>
<path d="M291.85 336.199L299.649 299.488C300.164 297.057 298.316 294.768 295.836 294.768H227.84C225.385 294.768 223.54 297.016 224.017 299.431L231.009 334.922C231.362 336.721 232.915 338.031 234.743 338.069L287.948 339.292C289.821 339.334 291.46 338.037 291.85 336.199Z" fill="white" stroke="#150F41" stroke-width="1.1031" stroke-miterlimit="10" stroke-linecap="round" stroke-linejoin="round"/>
<path d="M267.034 315.924C267.034 318.928 264.603 321.365 261.605 321.365C258.606 321.365 256.176 318.929 256.176 315.924C256.176 312.918 258.606 310.481 261.605 310.481C264.603 310.481 267.034 312.918 267.034 315.924Z" fill="#150F41"/>
<path d="M277.703 298.251H285.782" stroke="#150F41" stroke-width="1.1031" stroke-miterlimit="10" stroke-linecap="round" stroke-linejoin="round"/>
<path d="M239.121 298.251H269.787" stroke="#150F41" stroke-width="1.1031" stroke-miterlimit="10" stroke-linecap="round" stroke-linejoin="round"/>
<path d="M291.986 375.149L285.786 391.457C285.786 391.457 269.98 387.463 249.726 383.301C228.548 378.953 206.429 373.321 194.955 353.144C193.556 350.682 192.626 347.776 193.28 345.021C194.936 338.053 203.981 336.16 209.943 335.462C213.685 335.024 217.462 334.879 221.227 334.828C223.146 334.799 229.479 333.792 231.011 334.921C231.011 334.921 234.985 337.853 238.37 339.292C241.756 340.734 291.178 337.998 291.178 337.998C291.178 337.998 292.648 334.889 292.732 332.05C300.501 328.092 318.491 324.738 326.093 326.222C338.046 328.552 345.02 335.539 343.691 342.864C342.365 350.183 315.985 369.822 291.986 375.149Z" fill="#150F41"/>
<path d="M291.985 375.15C291.985 375.15 276.952 371.156 264.666 362.833C252.381 354.513 242.782 344.861 225.668 346.856" stroke="white" stroke-width="1.1031" stroke-miterlimit="10" stroke-linecap="round" stroke-linejoin="round"/>
<path d="M261.836 360.869C269.596 358.632 275.291 353.602 281.518 348.771C288.114 343.65 295.088 338.694 302.59 334.89" stroke="white" stroke-width="1.1031" stroke-miterlimit="10" stroke-linecap="round" stroke-linejoin="round"/>
<path d="M259.109 200.455H261.386" stroke="#150F41" stroke-width="1.1031" stroke-miterlimit="10" stroke-linecap="round" stroke-linejoin="round"/>
<path d="M215.999 72.4258H197.745C193.297 72.4258 189.691 76.0413 189.691 80.5012V98.8055C189.691 103.265 193.297 106.881 197.745 106.881H215.999C220.447 106.881 224.053 103.265 224.053 98.8055V80.5012C224.053 76.0413 220.447 72.4258 215.999 72.4258Z" fill="#0073AA"/>
<path d="M195.359 89.6526C195.359 94.2226 198.008 98.172 201.849 100.044L196.356 84.9539C195.698 86.4323 195.358 88.0334 195.359 89.6526ZM214.647 89.0699C214.647 87.6431 214.136 86.655 213.697 85.8858C213.113 84.9348 212.566 84.1294 212.566 83.1784C212.566 82.117 213.369 81.1291 214.5 81.1291C214.551 81.1291 214.599 81.1354 214.649 81.1383C212.601 79.2564 209.871 78.1074 206.874 78.1074C202.851 78.1074 199.312 80.1769 197.253 83.3115C197.523 83.3196 197.778 83.3253 197.994 83.3253C199.199 83.3253 201.063 83.1786 201.063 83.1786C201.684 83.142 201.757 84.0562 201.137 84.1298C201.137 84.1298 200.513 84.2034 199.819 84.2399L204.012 96.7457L206.532 89.1679L204.738 84.2395C204.118 84.203 203.53 84.1294 203.53 84.1294C202.91 84.0929 202.983 83.1416 203.603 83.1784C203.603 83.1784 205.504 83.3248 206.636 83.3248C207.84 83.3248 209.705 83.1784 209.705 83.1784C210.326 83.1416 210.399 84.0558 209.778 84.1294C209.778 84.1294 209.153 84.203 208.461 84.2395L212.622 96.6506L213.77 92.8024C214.268 91.2053 214.647 90.0584 214.647 89.0699Z" fill="white"/>
<path d="M207.076 90.6624L203.621 100.728C204.677 101.04 205.773 101.199 206.874 101.199C208.176 101.199 209.469 100.978 210.697 100.544C210.665 100.494 210.638 100.441 210.615 100.385L207.076 90.6624ZM216.977 84.1133C217.029 84.5068 217.055 84.9034 217.055 85.3004C217.055 86.472 216.836 87.7891 216.179 89.4359L212.662 99.6323C216.085 97.6307 218.388 93.9121 218.388 89.6527C218.388 87.6453 217.876 85.7577 216.977 84.1133Z" fill="white"/>
<path d="M206.871 76.1943C199.471 76.1943 193.449 82.2316 193.449 89.6525C193.449 97.0744 199.471 103.111 206.871 103.111C214.272 103.111 220.294 97.0744 220.294 89.6525C220.294 82.2316 214.272 76.1943 206.871 76.1943ZM206.871 102.495C199.81 102.495 194.065 96.7336 194.065 89.6525C194.065 82.5719 199.81 76.8114 206.871 76.8114C213.933 76.8114 219.677 82.5719 219.677 89.6525C219.677 96.7336 213.933 102.495 206.871 102.495Z" fill="white"/>
</g>
<defs>
<clipPath id="clip0_3411_1087">
<rect width="419" height="411" fill="white"/>
</clipPath>
</defs>
</svg>
