<svg width="441" height="374" viewBox="0 0 441 374" fill="none" xmlns="http://www.w3.org/2000/svg">
<path d="M33.2065 20.1753H195.813C200.462 20.1753 204.273 23.9871 204.273 28.6357V134.809C204.273 139.457 200.462 143.269 195.813 143.269H33.2065C28.5579 143.269 24.7461 139.457 24.7461 134.809V28.6357C24.7461 23.9871 28.5579 20.1753 33.2065 20.1753Z" fill="#6987D0"/>
<path d="M195.538 83.767H129.715V29.3789H195.538V83.767ZM130.645 82.8373H194.609V30.3086H130.645V82.8373Z" fill="#312113"/>
<path d="M135.813 78.0503H189.551V47.2768L135.813 47.2768V78.0503Z" fill="#FF8376"/>
<path d="M136.017 37.5347H152.938V34.5596H136.017V37.5347Z" fill="#312113"/>
<path d="M135.998 41.8643H144.645V38.8892H135.998V41.8643Z" fill="#312113"/>
<path d="M187.914 34.4927H180.941V37.4678H187.914V34.4927Z" fill="#312113"/>
<path d="M180.862 41.8647H189.508V38.8897H180.862V41.8647Z" fill="#312113"/>
<path d="M180.545 48.641L165.91 74.542L166.72 74.9993L181.354 49.0983L180.545 48.641Z" fill="#312113"/>
<path d="M166.704 48.6428L165.895 49.1006L180.544 74.9957L181.353 74.5379L166.704 48.6428Z" fill="#312113"/>
<path d="M157.654 48.598L143.02 74.499L143.829 74.9563L158.463 49.0553L157.654 48.598Z" fill="#312113"/>
<path d="M143.825 48.6242L143.016 49.082L157.665 74.9771L158.474 74.5193L143.825 48.6242Z" fill="#312113"/>
<path d="M195.538 125.884H129.715V86.7427H195.538V125.884ZM130.645 124.954H194.609V87.6724H130.645V124.954Z" fill="#312113"/>
<path d="M189.489 99.8517H138.262V96.7837H189.489V99.8517ZM139.191 98.922H188.559V97.7134H139.191V98.922Z" fill="#312113"/>
<path d="M138.8 104.475H189.098V102.336H138.8V104.475Z" fill="#C1DEFE"/>
<path d="M157.937 109.475H189.082V107.336H157.937V109.475Z" fill="#C1DEFE"/>
<path d="M166.463 114.568H189.055V112.43H166.463V114.568Z" fill="#C1DEFE"/>
<path d="M164.574 115.006H151V111.938H164.574V115.006ZM151.93 114.076H163.644V112.867H151.93V114.076Z" fill="#312113"/>
<path d="M175.299 119.569H189.059V117.431H175.299V119.569Z" fill="#C1DEFE"/>
<path d="M38.3129 43.8931L115.293 43.8931V28.4599L38.3129 28.4599V43.8931Z" fill="white"/>
<path d="M119.107 42.1164H34.4102V30.3091H119.2V42.1164H119.107ZM35.3399 41.1867H118.27V31.2388H35.3399V41.1867Z" fill="#312113"/>
<path d="M82.8938 38.9678L112.645 38.9678V36.8294H82.8938V38.9678Z" fill="#FF8376"/>
<path d="M68.5809 38.9678H81.0391V36.8294H68.5809V38.9678Z" fill="#FF8376"/>
<path d="M91.591 33.0981H47.8945V35.2365H91.591V33.0981Z" fill="#312113"/>
<path d="M112.6 33.0981H94.2852V35.2365H112.6V33.0981Z" fill="#312113"/>
<path d="M38.3129 63.9219L115.293 63.9219V48.4887L38.3129 48.4887V63.9219Z" fill="white"/>
<path d="M119.107 62.1052H34.4102V50.2979H119.2V62.1052H119.107ZM35.3399 61.1755H118.27V51.2276H35.3399V61.1755Z" fill="#312113"/>
<path d="M82.8938 58.9961L112.645 58.9961V56.8578H82.8938V58.9961Z" fill="#FF8376"/>
<path d="M68.5809 58.9961H81.0391V56.8578H68.5809V58.9961Z" fill="#FF8376"/>
<path d="M91.591 53.1797H47.8945V55.318H91.591V53.1797Z" fill="#312113"/>
<path d="M112.6 53.1797H94.2852V55.318H112.6V53.1797Z" fill="#312113"/>
<path d="M38.3129 83.9507L115.293 83.9507V68.5175L38.3129 68.5175V83.9507Z" fill="white"/>
<path d="M119.107 82.1869H34.4102V70.2866H119.2V82.1869H119.107ZM35.3399 81.2572H118.27V71.2163H35.3399V81.2572Z" fill="#312113"/>
<path d="M82.8938 78.9321H112.645V76.7938H82.8938V78.9321Z" fill="#FF8376"/>
<path d="M68.5809 78.9321H81.0391V76.7938H68.5809V78.9321Z" fill="#FF8376"/>
<path d="M91.591 73.1685H47.8945V75.3068H91.591V73.1685Z" fill="#312113"/>
<path d="M112.6 73.1685H94.2852V75.3068H112.6V73.1685Z" fill="#312113"/>
<path d="M38.3129 103.979L115.293 103.979V88.5463L38.3129 88.5463V103.979Z" fill="white"/>
<path d="M119.107 102.176H34.4102V90.2754H119.2V102.176H119.107ZM35.3399 101.246H118.27V91.2051H35.3399V101.246Z" fill="#312113"/>
<path d="M82.8938 98.9604H112.645V96.8221H82.8938V98.9604Z" fill="#FF8376"/>
<path d="M68.5809 98.9604H81.0391V96.8221H68.5809V98.9604Z" fill="#FF8376"/>
<path d="M91.591 93.1572H47.8945V95.2956H91.591V93.1572Z" fill="#312113"/>
<path d="M112.6 93.1572H94.2852V95.2956H112.6V93.1572Z" fill="#312113"/>
<path d="M113.904 152.939H39.5273V109.056H113.904V152.939ZM40.55 152.009H113.068V109.986H40.55V152.009Z" fill="#312113"/>
<path d="M94.7028 126.493H106.789V114.407H94.7028V126.493Z" fill="#312113"/>
<path d="M98.0558 117.233L97.3984 117.891L103.381 123.873L104.038 123.216L98.0558 117.233Z" fill="white"/>
<path d="M103.381 117.162L97.3984 123.144L98.0558 123.801L104.038 117.819L103.381 117.162Z" fill="white"/>
<path d="M78.1989 126.493H90.2852V114.407H78.1989V126.493Z" fill="#312113"/>
<path d="M74.114 131.648H44.3633V133.786H74.114V131.648Z" fill="white"/>
<path d="M88.4308 131.648H75.9727V133.786H88.4308V131.648Z" fill="white"/>
<path d="M65.4715 137.486H109.168V135.348H65.4715V137.486Z" fill="white"/>
<path d="M44.4308 137.486H62.7461V135.348H44.4308V137.486Z" fill="white"/>
<path d="M74.114 141.317H44.3633V143.456H74.114V141.317Z" fill="white"/>
<path d="M88.4308 141.317H75.9727V143.456H88.4308V141.317Z" fill="white"/>
<path d="M65.4715 147.165H109.168V145.026H65.4715V147.165Z" fill="white"/>
<path d="M44.4308 147.165H62.7461V145.026H44.4308V147.165Z" fill="white"/>
<path d="M81.6105 117.248L80.9531 117.906L86.9355 123.888L87.5929 123.231L81.6105 117.248Z" fill="white"/>
<path d="M61.7927 126.493H73.8789V114.407H61.7927V126.493Z" fill="#312113"/>
<path d="M70.7713 123.653H64.4492V117.331H70.7713V123.653ZM65.3789 122.723H69.8415V118.26H65.3789V122.723Z" fill="white"/>
<path d="M45.3747 126.493H57.4609V114.407H45.3747V126.493Z" fill="#312113"/>
<path d="M51.429 123.838C49.5696 123.838 48.082 122.35 48.082 120.491C48.082 118.632 49.5696 117.144 51.429 117.144C53.2884 117.144 54.776 118.632 54.776 120.491C54.776 122.35 53.2884 123.838 51.429 123.838ZM51.429 118.074C50.1274 118.074 49.0117 119.189 49.0117 120.491C49.0117 121.793 50.1274 122.908 51.429 122.908C52.7306 122.908 53.8462 121.793 53.8462 120.491C53.8462 119.189 52.7306 118.074 51.429 118.074Z" fill="white"/>
<path d="M195.254 160.096H129.988V133.878H195.254V160.096ZM130.918 159.167H194.324V134.808H130.918V159.167Z" fill="#312113"/>
<path d="M160.391 138.806H134.266V140.944H160.391V138.806Z" fill="white"/>
<path d="M172.943 138.806H161.973V140.944H172.943V138.806Z" fill="white"/>
<path d="M152.739 144.609H191.043V142.471H152.739V144.609Z" fill="white"/>
<path d="M134.311 144.609H150.395V142.471H134.311V144.609Z" fill="white"/>
<path d="M160.391 148.475H134.266V150.613H160.391V148.475Z" fill="white"/>
<path d="M172.943 148.475H161.973V150.613H172.943V148.475Z" fill="white"/>
<path d="M152.739 154.287H191.043V152.148H152.739V154.287Z" fill="white"/>
<path d="M134.311 154.287H150.395V152.148H134.311V154.287Z" fill="white"/>
<path d="M264.611 361.844C266.099 361.844 267.214 360.914 267.214 359.705V293.045H262.008V359.705C262.008 360.821 263.123 361.844 264.611 361.844Z" fill="white"/>
<path d="M252.617 286.63H276.417C277.626 286.63 278.649 287.281 279.206 288.396L279.299 288.675C280.229 290.721 278.742 292.952 276.51 292.952H252.524C250.292 292.952 248.805 290.628 249.735 288.675L249.828 288.396C250.385 287.281 251.408 286.63 252.617 286.63Z" fill="white"/>
<path d="M276.51 293.417H252.523C251.315 293.417 250.199 292.766 249.548 291.836C248.898 290.814 248.805 289.605 249.362 288.489L249.455 288.21C250.013 287.002 251.315 286.165 252.616 286.165H276.417C277.812 286.165 279.02 287.002 279.578 288.21L279.671 288.489C280.136 289.605 280.043 290.814 279.392 291.836C278.834 292.766 277.719 293.417 276.51 293.417ZM252.616 287.095C251.594 287.095 250.664 287.653 250.292 288.582L250.199 288.861C249.827 289.698 249.92 290.628 250.385 291.371C250.85 292.115 251.687 292.58 252.523 292.58H276.51C277.44 292.58 278.183 292.115 278.648 291.371C279.113 290.628 279.206 289.698 278.834 288.861L278.741 288.582C278.276 287.653 277.44 287.095 276.417 287.095H252.616Z" fill="#312113"/>
<path d="M333.317 240.238C329.412 262.551 316.768 288.397 263.96 288.397C211.153 288.397 191.629 268.408 191.629 263.108C191.629 257.809 212.64 265.433 224.169 251.952C235.697 238.471 216.917 189.661 216.917 167.999C216.917 146.337 278.371 147.452 296.407 147.452C305.612 147.452 322.067 146.151 332.852 163.257C342.986 179.527 337.687 215.693 333.317 240.238Z" fill="#6987D0"/>
<path d="M259.682 275.939C246.945 275.939 231.511 273.986 213.289 268.408L213.568 267.478C249.548 278.449 274.464 275.381 288.968 270.918C304.68 266.084 312.024 258.46 312.117 258.46L312.768 259.111C312.675 259.204 305.238 266.92 289.247 271.848C281.995 273.986 272.14 275.939 259.682 275.939Z" fill="#312113"/>
<path d="M305.519 240.237C303.938 240.237 302.637 238.935 302.637 237.355C302.637 235.774 303.938 234.473 305.519 234.473C307.099 234.473 308.401 235.774 308.401 237.355C308.401 239.028 307.099 240.237 305.519 240.237ZM305.519 235.495C304.496 235.495 303.566 236.332 303.566 237.448C303.566 238.47 304.403 239.4 305.519 239.4C306.634 239.4 307.471 238.563 307.471 237.448C307.471 236.332 306.542 235.495 305.519 235.495Z" fill="#312113"/>
<path d="M276.976 240.237C275.395 240.237 274.094 238.935 274.094 237.355C274.094 235.774 275.395 234.473 276.976 234.473C278.556 234.473 279.858 235.774 279.858 237.355C279.858 239.028 278.556 240.237 276.976 240.237ZM276.976 235.495C275.953 235.495 275.023 236.332 275.023 237.448C275.023 238.47 275.86 239.4 276.976 239.4C277.999 239.4 278.928 238.563 278.928 237.448C278.928 236.332 278.092 235.495 276.976 235.495Z" fill="#312113"/>
<path d="M248.437 240.237C246.856 240.237 245.555 238.935 245.555 237.355C245.555 235.774 246.856 234.473 248.437 234.473C250.017 234.473 251.319 235.774 251.319 237.355C251.319 239.028 250.017 240.237 248.437 240.237ZM248.437 235.495C247.414 235.495 246.484 236.332 246.484 237.448C246.484 238.47 247.321 239.4 248.437 239.4C249.459 239.4 250.389 238.563 250.389 237.448C250.389 236.332 249.552 235.495 248.437 235.495Z" fill="#312113"/>
<path d="M262.566 253.811C260.985 253.811 259.684 252.509 259.684 250.929C259.684 249.348 260.985 248.047 262.566 248.047C264.146 248.047 265.448 249.348 265.448 250.929C265.448 252.509 264.146 253.811 262.566 253.811ZM262.566 249.07C261.543 249.07 260.613 249.906 260.613 251.022C260.613 252.045 261.45 252.974 262.566 252.974C263.588 252.974 264.518 252.138 264.518 251.022C264.518 249.906 263.588 249.07 262.566 249.07Z" fill="#312113"/>
<path d="M293.156 222.759C291.575 222.759 290.273 221.458 290.273 219.877C290.273 218.297 291.575 216.995 293.156 216.995C294.736 216.995 296.038 218.297 296.038 219.877C296.038 221.458 294.736 222.759 293.156 222.759ZM293.156 217.925C292.133 217.925 291.203 218.762 291.203 219.877C291.203 220.9 292.04 221.83 293.156 221.83C294.178 221.83 295.108 220.993 295.108 219.877C295.108 218.855 294.178 217.925 293.156 217.925Z" fill="#312113"/>
<path d="M323.37 222.759C321.79 222.759 320.488 221.458 320.488 219.877C320.488 218.297 321.79 216.995 323.37 216.995C324.951 216.995 326.252 218.297 326.252 219.877C326.16 221.458 324.951 222.759 323.37 222.759ZM323.37 217.925C322.348 217.925 321.418 218.762 321.418 219.877C321.418 220.9 322.255 221.83 323.37 221.83C324.393 221.83 325.323 220.993 325.323 219.877C325.23 218.855 324.393 217.925 323.37 217.925Z" fill="#312113"/>
<path d="M264.609 222.759C263.028 222.759 261.727 221.458 261.727 219.877C261.727 218.297 263.028 216.995 264.609 216.995C266.189 216.995 267.491 218.297 267.491 219.877C267.491 221.458 266.189 222.759 264.609 222.759ZM264.609 217.925C263.586 217.925 262.656 218.762 262.656 219.877C262.656 220.9 263.493 221.83 264.609 221.83C265.631 221.83 266.561 220.993 266.561 219.877C266.561 218.855 265.631 217.925 264.609 217.925Z" fill="#312113"/>
<path d="M236.066 222.759C234.485 222.759 233.184 221.458 233.184 219.877C233.184 218.297 234.485 216.995 236.066 216.995C237.646 216.995 238.948 218.297 238.948 219.877C238.948 221.458 237.646 222.759 236.066 222.759ZM236.066 217.925C235.043 217.925 234.113 218.762 234.113 219.877C234.113 220.9 234.95 221.83 236.066 221.83C237.088 221.83 238.018 220.993 238.018 219.877C238.018 218.855 237.181 217.925 236.066 217.925Z" fill="#312113"/>
<path d="M305.519 205.187C303.938 205.187 302.637 203.885 302.637 202.305C302.637 200.724 303.938 199.423 305.519 199.423C307.099 199.423 308.401 200.724 308.401 202.305C308.401 203.885 307.099 205.187 305.519 205.187ZM305.519 200.446C304.496 200.446 303.566 201.282 303.566 202.398C303.566 203.421 304.403 204.35 305.519 204.35C306.634 204.35 307.471 203.514 307.471 202.398C307.471 201.282 306.542 200.446 305.519 200.446Z" fill="#312113"/>
<path d="M276.976 205.187C275.395 205.187 274.094 203.885 274.094 202.305C274.094 200.724 275.395 199.423 276.976 199.423C278.556 199.423 279.858 200.724 279.858 202.305C279.858 203.885 278.556 205.187 276.976 205.187ZM276.976 200.446C275.953 200.446 275.023 201.282 275.023 202.398C275.023 203.421 275.86 204.35 276.976 204.35C277.999 204.35 278.928 203.514 278.928 202.398C278.928 201.282 278.092 200.446 276.976 200.446Z" fill="#312113"/>
<path d="M248.437 205.187C246.856 205.187 245.555 203.885 245.555 202.305C245.555 200.724 246.856 199.423 248.437 199.423C250.017 199.423 251.319 200.724 251.319 202.305C251.319 203.885 250.017 205.187 248.437 205.187ZM248.437 200.446C247.414 200.446 246.484 201.282 246.484 202.398C246.484 203.421 247.321 204.35 248.437 204.35C249.459 204.35 250.389 203.514 250.389 202.398C250.389 201.282 249.552 200.446 248.437 200.446Z" fill="#312113"/>
<path d="M293.156 187.71C291.575 187.71 290.273 186.408 290.273 184.827C290.273 183.247 291.575 181.945 293.156 181.945C294.736 181.945 296.038 183.247 296.038 184.827C296.038 186.408 294.736 187.71 293.156 187.71ZM293.156 182.875C292.133 182.875 291.203 183.712 291.203 184.827C291.203 185.85 292.04 186.78 293.156 186.78C294.178 186.78 295.108 185.943 295.108 184.827C295.108 183.712 294.178 182.875 293.156 182.875Z" fill="#312113"/>
<path d="M323.37 187.71C321.79 187.71 320.488 186.408 320.488 184.827C320.488 183.247 321.79 181.945 323.37 181.945C324.951 181.945 326.252 183.247 326.252 184.827C326.16 186.408 324.951 187.71 323.37 187.71ZM323.37 182.875C322.348 182.875 321.418 183.712 321.418 184.827C321.418 185.85 322.255 186.78 323.37 186.78C324.393 186.78 325.323 185.943 325.323 184.827C325.23 183.712 324.393 182.875 323.37 182.875Z" fill="#312113"/>
<path d="M264.609 187.71C263.028 187.71 261.727 186.408 261.727 184.827C261.727 183.247 263.028 181.945 264.609 181.945C266.189 181.945 267.491 183.247 267.491 184.827C267.491 186.408 266.189 187.71 264.609 187.71ZM264.609 182.875C263.586 182.875 262.656 183.712 262.656 184.827C262.656 185.85 263.493 186.78 264.609 186.78C265.631 186.78 266.561 185.943 266.561 184.827C266.561 183.712 265.631 182.875 264.609 182.875Z" fill="#312113"/>
<path d="M236.066 187.71C234.485 187.71 233.184 186.408 233.184 184.827C233.184 183.247 234.485 181.945 236.066 181.945C237.646 181.945 238.948 183.247 238.948 184.827C238.948 186.408 237.646 187.71 236.066 187.71ZM236.066 182.875C235.043 182.875 234.113 183.712 234.113 184.827C234.113 185.85 234.95 186.78 236.066 186.78C237.088 186.78 238.018 185.943 238.018 184.827C238.018 183.712 237.181 182.875 236.066 182.875Z" fill="#312113"/>
<path d="M305.519 166.046C303.938 166.046 302.637 164.745 302.637 163.164C302.637 161.584 303.938 160.282 305.519 160.282C307.099 160.282 308.401 161.584 308.401 163.164C308.401 164.745 307.099 166.046 305.519 166.046ZM305.519 161.212C304.496 161.212 303.566 162.049 303.566 163.164C303.566 164.187 304.403 165.117 305.519 165.117C306.634 165.117 307.471 164.28 307.471 163.164C307.471 162.049 306.542 161.212 305.519 161.212Z" fill="#312113"/>
<path d="M276.976 166.046C275.395 166.046 274.094 164.745 274.094 163.164C274.094 161.584 275.395 160.282 276.976 160.282C278.556 160.282 279.858 161.584 279.858 163.164C279.858 164.745 278.556 166.046 276.976 166.046ZM276.976 161.212C275.953 161.212 275.023 162.049 275.023 163.164C275.023 164.187 275.86 165.117 276.976 165.117C277.999 165.117 278.928 164.28 278.928 163.164C278.928 162.049 278.092 161.212 276.976 161.212Z" fill="#312113"/>
<path d="M248.437 166.046C246.856 166.046 245.555 164.745 245.555 163.164C245.555 161.584 246.856 160.282 248.437 160.282C250.017 160.282 251.319 161.584 251.319 163.164C251.319 164.745 250.017 166.046 248.437 166.046ZM248.437 161.212C247.414 161.212 246.484 162.049 246.484 163.164C246.484 164.187 247.321 165.117 248.437 165.117C249.459 165.117 250.389 164.28 250.389 163.164C250.389 162.049 249.552 161.212 248.437 161.212Z" fill="#312113"/>
<path d="M263.867 293.882H262.938V358.869H263.867V293.882Z" fill="#312113"/>
<path d="M245.367 370.397H244.438V364.819C244.438 360.914 247.599 357.753 251.503 357.753H277.721C281.626 357.753 284.787 360.914 284.787 364.819V369.467H283.857V364.819C283.857 361.472 281.161 358.683 277.721 358.683H251.503C248.156 358.683 245.367 361.379 245.367 364.819V370.397Z" fill="#312113"/>
<path d="M235.23 370.397H234.301V364.819C234.301 360.914 237.462 357.753 241.367 357.753H287.759C291.664 357.753 294.825 360.914 294.825 364.819V369.467H293.895V364.819C293.895 361.472 291.199 358.683 287.759 358.683H241.367C238.02 358.683 235.23 361.379 235.23 364.819V370.397Z" fill="#312113"/>
<path d="M241.648 369.374C241.648 371.234 243.136 372.628 244.902 372.628C246.669 372.628 248.156 371.141 248.156 369.374C248.156 367.608 246.669 366.12 244.902 366.12C243.136 366.12 241.648 367.608 241.648 369.374Z" fill="#312113"/>
<path d="M231.699 369.374C231.699 371.234 233.187 372.628 234.953 372.628C236.813 372.628 238.207 371.141 238.207 369.374C238.207 367.608 236.72 366.12 234.953 366.12C233.187 366.12 231.699 367.608 231.699 369.374Z" fill="#312113"/>
<path d="M291.109 369.374C291.109 371.234 292.597 372.628 294.363 372.628C296.223 372.628 297.617 371.141 297.617 369.374C297.617 367.608 296.13 366.12 294.363 366.12C292.597 366.12 291.109 367.608 291.109 369.374Z" fill="#312113"/>
<path d="M280.785 369.374C280.785 371.234 282.273 372.628 284.039 372.628C285.806 372.628 287.293 371.141 287.293 369.374C287.293 367.608 285.806 366.12 284.039 366.12C282.273 366.12 280.785 367.608 280.785 369.374Z" fill="#312113"/>
<path d="M240.998 144.571C240.998 144.571 224.914 149.591 217.477 168.65C210.039 187.616 216.454 184.084 213.944 190.034C211.341 195.984 200.649 210.952 206.506 226.292C212.363 241.633 223.706 242.934 230.679 240.145C237.558 237.263 241.091 211.789 233.468 202.864C225.658 193.846 249.087 164.746 240.998 144.571Z" fill="#312113"/>
<path d="M224.821 189.104C219.522 183.619 220.637 175.716 220.73 175.438L221.66 175.53C221.66 175.623 220.544 183.34 225.472 188.453L224.821 189.104Z" fill="black"/>
<path d="M250.755 95.0171C248.989 94.4593 245.084 95.0171 242.853 99.3868C240.621 103.756 241.551 114.634 244.526 116.493C247.408 118.353 255.125 114.448 255.404 105.709C255.683 96.9695 253.544 95.7609 250.755 95.0171Z" fill="black"/>
<path d="M251.782 93.7153C254.199 90.3683 265.356 85.9987 272.979 92.9715C280.603 99.9443 278.093 116.121 274.653 120.77C271.12 125.418 259.685 126.348 254.292 115.564C248.993 104.965 248.993 97.713 251.782 93.7153Z" fill="black"/>
<path d="M253.27 126.72V142.804C254.199 144.106 260.242 146.523 271.492 141.781V119.933C271.492 119.933 264.612 123.187 253.27 126.72Z" fill="#E6A19B"/>
<path d="M267.587 125.79C267.587 125.79 254.013 129.137 253.27 130.903V135.645C263.961 135.645 266.843 129.509 267.587 125.79Z" fill="#312113"/>
<path d="M254.195 134.065C261.819 134.065 268.978 126.906 271.116 122.071C271.86 120.398 271.395 115.935 271.395 113.704C271.395 106.08 267.025 100.502 261.633 98.6427C259.402 97.8989 253.731 98.5497 251.685 98.9216C244.898 100.316 243.504 105.801 243.504 112.774C243.411 120.584 244.991 134.065 254.195 134.065Z" fill="#E6A19B"/>
<path d="M270.745 115.749L271.582 110.45C270.931 106.824 268.886 103.756 266.004 101.618V112.867C266.004 114.448 267.306 115.749 268.886 115.749H270.745Z" fill="black"/>
<path d="M257.08 106.638C264.425 107.289 266.749 106.081 269.352 104.221C268.608 103.477 268.422 100.13 261.636 97.4343C256.615 95.4819 249.363 96.7835 247.039 100.781C248.155 104.221 252.989 106.267 257.08 106.638Z" fill="black"/>
<path d="M251.871 122.444C251.406 122.351 248.802 121.607 248.431 120.398C248.338 120.119 248.338 119.747 248.617 119.283C250.476 116.958 250.104 113.704 250.011 113.054C249.639 112.682 247.873 111.194 245.084 112.217L244.805 111.38C248.524 110.078 250.755 112.496 250.848 112.589L250.941 112.682V112.775C250.941 112.961 251.778 116.865 249.36 119.84C249.267 119.933 249.267 120.026 249.267 120.026C249.453 120.491 250.848 121.142 252.056 121.514L251.871 122.444Z" fill="#312113"/>
<path d="M267.027 114.262C267.027 116.958 269.259 119.189 271.955 119.189C274.651 119.189 276.882 116.958 276.882 114.262C276.882 111.566 274.651 109.334 271.955 109.334C269.259 109.334 267.027 111.566 267.027 114.262Z" fill="#E6A19B"/>
<path d="M272.609 117.888C272.33 117.888 271.958 117.795 271.679 117.516C271.028 116.958 271.4 116.214 271.586 115.564C271.865 114.913 271.958 114.541 271.679 114.262C271.586 114.169 271.4 113.983 271.214 113.89C270.749 113.518 270.284 113.146 270.191 112.496C270.191 112.124 270.284 111.659 270.656 111.287C271.679 110.078 273.073 110.264 273.631 110.543L273.259 111.38C273.166 111.287 272.144 110.915 271.4 111.845C271.307 112.031 271.121 112.217 271.121 112.403C271.121 112.682 271.493 112.867 271.772 113.146C271.958 113.332 272.144 113.425 272.33 113.611C272.981 114.355 272.609 115.192 272.423 115.936C272.237 116.4 272.144 116.772 272.237 116.865C272.702 117.237 273.538 116.4 273.631 116.4L274.282 117.051C274.003 117.33 273.259 117.888 272.609 117.888Z" fill="#312113"/>
<path d="M252.247 126.442C250.295 126.442 248.807 126.07 248.621 125.977L248.9 125.047C248.9 125.047 252.898 126.163 256.059 124.768L256.431 125.605C255.036 126.256 253.549 126.442 252.247 126.442Z" fill="#312113"/>
<path d="M258.568 114.541C258.568 114.634 258.568 114.634 258.568 114.727C258.568 115.471 258.01 116.028 257.266 116.028C256.523 116.028 255.965 115.471 255.965 114.727C255.965 114.448 256.058 114.169 256.244 113.89C257.081 114.262 257.824 114.448 258.568 114.541Z" fill="#312113"/>
<path d="M248.06 114.541C248.06 114.634 248.06 114.634 248.06 114.727C248.06 115.471 247.502 116.028 246.759 116.028C246.015 116.028 245.457 115.471 245.457 114.727C245.457 114.448 245.55 114.169 245.736 113.89C246.48 114.262 247.316 114.448 248.06 114.541Z" fill="#312113"/>
<path d="M260.523 112.682C255.967 110.636 254.666 112.31 254.666 112.31L253.922 111.752C254.015 111.659 255.595 109.335 260.988 111.845L260.523 112.682Z" fill="#312113"/>
<path d="M234.485 345.853L220.818 351.617L209.848 335.254L226.954 328.096L234.485 345.853Z" fill="#E6A19B"/>
<path d="M216.45 346.504C216.45 346.504 219.518 343.9 224.352 346.225C229.187 348.549 229.745 345.016 230.581 344.179C231.418 343.343 232.627 342.506 234.579 342.506C234.579 342.506 239.042 359.334 237.74 372.536H192.277C192.277 372.536 190.883 367.98 194.787 365.842C198.692 363.703 215.892 358.776 218.216 354.313C220.54 349.758 216.45 346.504 216.45 346.504Z" fill="white"/>
<path d="M229.84 369.282H228.91C228.91 360.357 236.999 357.382 237.092 357.382L237.371 358.219C236.999 358.312 229.84 361.008 229.84 369.282Z" fill="#312113"/>
<path d="M238.018 368.352C238.111 370.025 237.739 371.42 237.739 372.535H192.276C192.276 372.535 191.625 370.397 192.462 368.352H238.018Z" fill="#312113"/>
<path d="M214.127 362.401L208.734 360.913L209.013 359.984L214.22 361.378C215.242 361.192 223.982 359.333 224.818 355.614C225.748 351.709 222.308 347.619 222.308 347.619L223.052 346.968C223.238 347.154 226.771 351.43 225.748 355.8C224.725 360.263 214.777 362.122 214.313 362.215L214.127 362.401Z" fill="#312113"/>
<path d="M214.313 357.194L214.012 358.073L218.761 359.7L219.062 358.821L214.313 357.194Z" fill="#312113"/>
<path d="M218.344 354.291L218.043 355.171L222.793 356.798L223.094 355.918L218.344 354.291Z" fill="#312113"/>
<path d="M172.57 281.424C173.872 291.65 177.404 309.501 180.844 322.889C184.284 336.184 188.747 355.243 188.747 355.243C188.747 355.243 218.033 354.964 233.931 335.533C233.931 335.533 219.427 295.648 215.894 283.655C212.455 271.755 170.339 263.015 172.57 281.424Z" fill="#904823"/>
<path d="M263.402 274.357C252.617 273.985 202.97 302.899 183.075 294.439C172.383 289.977 165.782 268.128 179.914 256.972C189.211 249.627 232.535 235.309 243.32 233.45C254.105 231.684 282.368 275.008 263.402 274.357Z" fill="#904823"/>
<path d="M228.167 340.461C226.121 334.882 224.076 329.397 222.031 324.098C215.151 306.154 209.665 291.93 212.641 285.98C213.291 284.678 214.407 283.748 215.802 283.283C225.656 280.308 250.759 270.453 250.945 270.36L251.317 271.197C251.038 271.29 225.935 281.145 216.08 284.12C214.872 284.492 214.035 285.236 213.477 286.351C210.688 292.023 216.359 306.712 222.867 323.726C224.913 329.025 227.051 334.51 229.003 340.182L228.167 340.461Z" fill="#312113"/>
<path d="M263.494 234.752C278.184 230.289 306.54 230.289 326.622 235.124C346.703 239.958 344.937 270.732 328.016 274.73C310.723 278.82 287.388 276.682 264.982 275.752C242.018 274.73 234.859 243.398 263.494 234.752Z" fill="#904823"/>
<path d="M274.183 272.22C270.371 272.22 266.187 271.662 261.724 270.082C261.631 270.082 256.89 268.222 252.148 270.919L251.684 270.082C256.797 267.2 261.817 269.059 262.003 269.152C281.155 275.66 294.45 264.782 294.543 264.689L295.101 265.433C295.008 265.526 286.92 272.22 274.183 272.22Z" fill="#312113"/>
<path d="M237.185 147.174C222.031 162.235 228.446 237.077 228.446 237.077C228.446 237.077 235.326 238.657 246.297 243.864C257.267 249.07 270.097 248.791 278.836 243.027C287.576 237.263 305.798 231.87 305.798 231.87C305.798 231.87 306.263 159.539 289.435 147.081C285.809 144.384 280.882 142.432 273.909 141.409C271.027 141.038 274.374 135.552 271.399 135.459C269.632 135.366 254.571 136.017 252.805 136.11C250.015 136.203 253.083 141.131 250.573 141.595C244.809 142.711 239.974 144.477 237.185 147.174Z" fill="#312113"/>
<mask id="mask0_3437_726" style="mask-type:luminance" maskUnits="userSpaceOnUse" x="227" y="135" width="79" height="113">
<path d="M237.189 147.175C222.035 162.236 228.45 237.078 228.45 237.078C228.45 237.078 235.33 238.658 246.3 243.865C257.271 249.071 270.101 248.792 278.84 243.028C287.58 237.264 305.802 231.871 305.802 231.871C305.802 231.871 306.267 159.54 289.439 147.082C285.813 144.385 280.886 142.433 273.913 141.41C271.031 141.039 274.378 135.553 271.403 135.46C269.636 135.367 254.575 136.018 252.808 136.111C250.019 136.204 253.087 141.131 250.577 141.596C244.813 142.712 239.978 144.478 237.189 147.175Z" fill="white"/>
</mask>
<g mask="url(#mask0_3437_726)">
<path d="M261.728 241.726C255.406 241.726 248.898 240.517 242.854 238.007C230.303 232.894 222.215 231.22 222.215 231.22L222.308 230.755C222.401 230.755 230.489 232.429 243.04 237.542C255.777 242.748 270.467 242.377 280.601 236.705C290.642 231.034 311.746 225.642 311.932 225.549L312.025 226.014C311.839 226.107 290.828 231.499 280.787 237.077C275.487 240.145 268.793 241.726 261.728 241.726Z" fill="#F2CD5D"/>
<path d="M261.727 232.615C255.498 232.615 248.897 231.685 242.854 229.733C230.303 225.735 222.214 224.434 222.121 224.341L222.214 223.876C222.307 223.876 230.396 225.177 242.947 229.268C255.684 233.359 270.466 233.08 280.507 228.617C290.548 224.155 311.652 219.878 311.838 219.785L311.931 220.25C311.745 220.25 290.734 224.527 280.693 228.989C275.394 231.407 268.793 232.615 261.727 232.615Z" fill="#F2CD5D"/>
<path d="M261.727 225.549C255.498 225.549 248.897 224.526 242.854 222.481C230.303 218.297 222.214 216.903 222.121 216.903L222.214 216.438C222.307 216.438 230.396 217.832 242.947 222.016C255.684 226.293 270.466 226.014 280.507 221.365C290.548 216.717 311.652 212.254 311.838 212.161L311.931 212.626C311.745 212.626 290.734 217.089 280.693 221.83C275.394 224.247 268.793 225.549 261.727 225.549Z" fill="#F2CD5D"/>
<path d="M261.727 216.717C255.498 216.717 248.897 215.88 242.854 214.3C230.303 210.953 222.214 209.93 222.121 209.93L222.214 209.465C222.307 209.465 230.396 210.581 242.947 213.928C255.684 217.275 270.466 217.089 280.6 213.37C290.641 209.651 311.745 206.118 311.931 206.118L312.024 206.583C311.838 206.583 290.827 210.116 280.786 213.835C275.394 215.694 268.793 216.717 261.727 216.717Z" fill="#F2CD5D"/>
<path d="M261.728 211.324C255.406 211.324 248.898 210.209 242.854 207.977C230.303 203.329 222.215 201.841 222.215 201.748L222.308 201.283C222.401 201.283 230.489 202.771 243.04 207.512C255.777 212.254 270.56 211.975 280.601 206.769C290.642 201.562 311.746 196.635 311.932 196.635L312.025 197.1C311.839 197.193 290.828 202.027 280.787 207.233C275.394 209.93 268.793 211.324 261.728 211.324Z" fill="#F2CD5D"/>
<path d="M261.727 202.4C255.498 202.4 248.897 201.563 242.854 199.704C230.303 195.985 222.214 194.869 222.121 194.869L222.214 194.404C222.307 194.404 230.396 195.613 242.947 199.332C255.684 203.051 270.466 202.865 280.507 198.774C290.548 194.683 311.652 190.778 311.838 190.778L311.931 191.243C311.745 191.243 290.734 195.148 280.693 199.239C275.394 201.377 268.793 202.4 261.727 202.4Z" fill="#F2CD5D"/>
<path d="M261.727 195.241C255.498 195.241 248.897 194.311 242.854 192.452C230.303 188.64 222.214 187.338 222.121 187.338L222.214 186.874C222.307 186.874 230.396 188.082 242.947 191.987C255.684 195.892 270.466 195.613 280.507 191.336C290.548 187.059 311.652 182.969 311.838 182.969L311.931 183.434C311.745 183.434 290.734 187.524 280.693 191.801C275.394 194.125 268.793 195.241 261.727 195.241Z" fill="#F2CD5D"/>
<path d="M261.727 186.594C255.498 186.594 248.897 185.85 242.854 184.363C230.303 181.295 222.214 180.365 222.121 180.365L222.214 179.9C222.307 179.9 230.396 180.923 242.947 183.898C255.684 186.966 270.466 186.78 280.6 183.433C290.641 180.086 311.745 176.832 311.931 176.832L312.024 177.297C311.838 177.297 290.827 180.551 280.786 183.898C275.394 185.664 268.793 186.594 261.727 186.594Z" fill="#F2CD5D"/>
<path d="M261.727 180.179C255.498 180.179 248.897 179.343 242.854 177.483C230.303 173.764 222.214 172.649 222.121 172.649L222.214 172.184C222.307 172.184 230.396 173.393 242.947 177.111C255.684 180.83 270.466 180.644 280.507 176.554C290.548 172.463 311.652 168.558 311.838 168.558L311.931 169.023C311.745 169.023 290.734 172.928 280.693 177.018C275.394 179.064 268.793 180.179 261.727 180.179Z" fill="#F2CD5D"/>
<path d="M261.727 171.533C255.498 171.533 248.897 170.882 242.854 169.394C230.303 166.512 222.214 165.583 222.121 165.583L222.214 165.118C222.307 165.118 230.396 166.047 242.947 168.929C255.684 171.905 270.466 171.719 280.6 168.465C290.641 165.211 311.745 162.236 311.931 162.143L312.024 162.607C311.838 162.607 290.827 165.675 280.786 168.929C275.394 170.696 268.793 171.533 261.727 171.533Z" fill="#F2CD5D"/>
<path d="M261.727 164.374C255.498 164.374 248.897 163.63 242.854 162.142C230.303 159.074 222.214 158.145 222.121 158.145L222.214 157.68C222.307 157.68 230.396 158.703 242.947 161.678C255.684 164.746 270.466 164.56 280.6 161.213C290.641 157.866 311.745 154.612 311.931 154.612L312.024 155.077C311.838 155.077 290.827 158.331 280.786 161.678C275.394 163.444 268.793 164.374 261.727 164.374Z" fill="#F2CD5D"/>
<path d="M261.727 156.007C255.498 156.007 248.99 155.449 242.854 154.24C230.303 151.823 222.214 151.079 222.121 151.079V150.615C222.214 150.615 230.303 151.358 242.854 153.776C255.591 156.193 270.373 156.007 280.507 153.404C290.548 150.8 311.559 148.197 311.838 148.197L311.931 148.662C311.745 148.662 290.734 151.172 280.693 153.869C275.394 155.263 268.7 156.007 261.727 156.007Z" fill="#F2CD5D"/>
<path d="M261.728 146.616C255.499 146.616 248.991 146.338 242.947 145.78C230.396 144.664 222.308 144.292 222.215 144.292V143.827C222.308 143.827 230.396 144.199 242.947 145.315C255.684 146.43 270.56 146.43 280.601 145.129C290.642 143.827 311.653 142.712 311.932 142.619V143.084C311.746 143.084 290.642 144.292 280.694 145.501C275.394 146.338 268.7 146.616 261.728 146.616Z" fill="#F2CD5D"/>
</g>
<path d="M216.077 187.151C210.871 182.875 199.621 172.369 199.621 172.369C206.873 166.047 221.004 175.251 223.887 178.133C227.791 182.224 220.911 191.149 216.077 187.151Z" fill="#E6A19B"/>
<path d="M199.993 171.997C199.993 171.997 188.837 181.201 186.327 185.385C185.769 186.315 187.163 187.616 188.186 187.151C191.998 185.385 200.551 176.832 200.551 176.832C200.551 176.832 194.973 184.362 195.903 185.385C196.367 185.943 199.621 187.616 202.318 188.825C204.27 189.755 205.943 188.546 207.245 186.872C208.826 184.92 209.941 184.083 210.592 183.897C211.894 183.525 213.753 185.199 213.753 185.199L199.993 171.997Z" fill="#E6A19B"/>
<path d="M201.668 188.453L207.99 180.179C207.897 180.179 203.156 184.92 201.668 188.453Z" fill="#312113"/>
<path d="M198.508 187.059L204.83 176.739C204.83 176.739 199.623 183.433 198.508 187.059Z" fill="#312113"/>
<path d="M295.754 176.552C292.5 190.312 282.645 228.43 253.824 217.924C249.64 216.437 219.053 197.564 218.123 197.285C218.03 197.285 217.937 197.192 217.844 197.192C215.706 196.169 215.241 190.684 216.914 184.92C218.588 179.155 221.656 175.343 223.887 176.366C223.98 176.366 223.98 176.459 224.073 176.459L257.171 186.221C257.171 186.221 262.284 162.049 264.516 156.284C269.443 143.454 304.865 137.969 295.754 176.552Z" fill="#312113"/>
<path d="M263.305 220.155C260.33 220.155 257.262 219.598 254.008 218.482L254.287 217.645C261.26 220.155 267.582 219.784 273.16 216.808C287.57 208.999 293.242 185.198 295.101 177.389L296.031 177.575C294.171 185.477 288.407 209.65 273.625 217.645C270.371 219.319 266.931 220.155 263.305 220.155Z" fill="#F7DEDD"/>
<path d="M257.636 186.686L248.246 183.897L248.525 182.967L256.892 185.477C257.636 181.945 262.099 161.305 264.144 155.913L264.981 156.284C262.843 161.956 257.729 185.942 257.636 186.221V186.686Z" fill="#F7DEDD"/>
<path d="M254.011 218.482L253.732 218.389C250.85 217.366 235.789 208.348 225.841 202.305C221.843 199.887 218.403 197.842 218.031 197.656L218.403 196.819C218.682 196.912 220.727 198.121 226.399 201.561C235.696 207.139 251.222 216.529 254.104 217.552L254.383 217.645L254.011 218.482Z" fill="#F7DEDD"/>
<path d="M307.473 349.199H322.348L326.067 329.861H307.473V349.199Z" fill="#E6A19B"/>
<path d="M324.86 342.785C324.86 342.785 320.955 341.576 317.515 345.574C313.982 349.572 312.03 346.597 310.914 346.132C309.799 345.667 308.311 345.388 306.545 346.132C306.545 346.132 304.685 365.842 305.057 372.536H350.52C350.52 372.536 351.914 367.98 348.01 365.842C344.105 363.703 326.905 358.776 324.581 354.313C322.35 349.758 324.86 342.785 324.86 342.785Z" fill="white"/>
<path d="M313.89 369.282H312.96C312.96 361.008 305.709 358.312 305.43 358.219L305.709 357.382C305.895 357.382 313.89 360.264 313.89 369.282Z" fill="#312113"/>
<path d="M305.054 368.352C304.961 370.025 304.961 371.42 305.054 372.535H350.517C350.517 372.535 351.168 370.397 350.331 368.352H305.054Z" fill="#312113"/>
<path d="M328.67 362.401H328.577C328.112 362.308 318.164 360.449 317.141 355.986C316.118 351.617 319.001 346.038 319.094 345.853L319.93 346.317C319.93 346.41 317.048 351.803 318.071 355.8C318.908 359.426 327.647 361.286 328.67 361.565L333.876 360.17L334.155 361.1L328.67 362.401Z" fill="#312113"/>
<path d="M328.475 357.144L323.727 358.773L324.028 359.653L328.777 358.024L328.475 357.144Z" fill="#312113"/>
<path d="M324.573 354.343L319.824 355.972L320.126 356.851L324.875 355.222L324.573 354.343Z" fill="#312113"/>
<path d="M342.151 257.437C342.151 267.757 333.226 292.952 332.203 306.712C331.18 320.472 330.436 332.744 330.436 332.744C330.436 332.744 294.55 343.064 278.559 323.633C278.559 323.633 297.06 254.555 300.593 242.562C304.219 230.662 342.151 233.823 342.151 257.437Z" fill="#904823"/>
<path d="M295.972 259.238L284.613 326.714L285.53 326.868L296.889 259.393L295.972 259.238Z" fill="#312113"/>
<path d="M189.859 352.64L188.93 352.454C188.93 352.268 191.533 336.37 191.068 322.982H191.998C192.463 336.463 189.859 352.547 189.859 352.64Z" fill="#312113"/>
<path d="M315.748 320.843L315.098 320.192C315.191 320.099 323.372 312.383 327.928 304.573L328.764 305.038C324.023 313.034 315.841 320.75 315.748 320.843Z" fill="#312113"/>
<path d="M410.111 372.722H24.6523V373.651H410.111V372.722Z" fill="#312113"/>
<mask id="mask1_3437_726" style="mask-type:luminance" maskUnits="userSpaceOnUse" x="0" y="0" width="435" height="374">
<path d="M344.283 102.547C229.184 102.547 255.96 0 147.556 0C-40.9897 0 -17.468 198.029 46.4032 285.979C113.621 378.393 215.611 394.848 320.296 349.757C468.12 286.165 467.655 102.547 344.283 102.547Z" fill="white"/>
</mask>
<g mask="url(#mask1_3437_726)">
<path d="M286.55 215.786H178.332V219.784H286.55V215.786Z" fill="white"/>
<path d="M176.378 205.467H69.6467C66.7646 205.467 64.4403 203.328 64.0684 200.446L57.2815 135.924C56.9096 132.67 59.5128 129.788 62.8598 129.788H169.684C172.566 129.788 174.89 131.926 175.262 134.809L182.049 199.33C182.328 202.584 179.725 205.467 176.378 205.467Z" fill="#EDE3DD"/>
<path d="M176.376 203.514H69.6453C69.5524 203.514 69.3664 203.514 69.2734 203.514L69.3664 202.585C69.4594 202.585 69.5524 202.585 69.6453 202.585H176.469C177.213 202.585 177.957 202.306 178.422 201.655C178.979 201.097 179.165 200.353 179.072 199.61L172.285 135.088C172.1 133.693 170.984 132.67 169.589 132.67H96.514V131.741H169.589C171.449 131.741 173.029 133.135 173.215 134.995L180.002 199.517C180.095 200.539 179.816 201.562 179.072 202.306C178.422 203.05 177.492 203.514 176.376 203.514Z" fill="#312113"/>
<path d="M98.9336 219.319H117.621L124.408 183.99C125.523 178.319 121.154 173.113 115.389 173.113C111.02 173.113 107.208 176.274 106.371 180.55L98.9336 219.319Z" fill="white"/>
<path d="M117.987 211.509L117.057 211.324L122.357 183.618C122.729 181.573 122.171 179.434 120.869 177.761C119.475 176.087 117.522 175.158 115.384 175.158C111.944 175.158 109.062 177.575 108.411 180.922L105.25 197.471L104.32 197.285L107.481 180.736C108.225 176.924 111.572 174.228 115.384 174.228C117.801 174.228 120.032 175.251 121.613 177.11C123.1 178.97 123.751 181.387 123.286 183.711L117.987 211.509Z" fill="#312113"/>
<path d="M102.95 219.396H152.504V216.234H102.95V219.396Z" fill="white"/>
<path d="M152.484 215.693H111.855V216.623H152.484V215.693Z" fill="#312113"/>
<path d="M140.215 231.033V361.472C102.655 351.71 9.77697 291.65 14.6115 231.033H140.215Z" fill="#EDE3DD"/>
<path d="M18.5139 257.902C18.328 251.208 14.1443 238.006 15.4459 231.033H140.306V268.036L18.5139 257.902Z" fill="#DBCAC2"/>
<path d="M318.596 372.68H331.891V227.924H318.596V372.68Z" fill="#EDE3DD"/>
<path d="M331.826 227.966V243.213H324.853V372.722H318.531V227.966H331.826Z" fill="#DBCAC2"/>
<path d="M325.32 243.213H324.391V372.722H325.32V243.213Z" fill="#312113"/>
<path d="M361.858 219.412V231.405H10.1484C10.4274 227.408 11.1711 221.922 11.9149 219.412H361.858Z" fill="white"/>
<path d="M362.323 231.871H10.1484V230.941H361.393V220.064H29.3935V219.134H362.323V231.871Z" fill="#312113"/>
<path d="M286.55 215.321H178.703V216.251H286.55V215.321Z" fill="#312113"/>
</g>
<path d="M318.997 65.3594C319.648 67.9626 321.972 70.2868 324.39 72.7041L324.947 73.2619C328.759 77.0737 333.036 81.4434 333.036 87.8584C333.036 92.8788 330.34 97.4344 326.063 99.9446C321.786 102.455 316.394 102.455 312.117 99.9446C307.841 97.4344 305.145 92.8788 305.145 87.8584C305.145 81.5364 309.235 77.2597 313.047 73.4479L313.233 73.2619L313.326 73.1689C315.836 70.5658 318.253 68.1485 318.997 65.3594ZM414.479 86.2779C415.315 90.8335 412.526 95.2961 408.064 96.5977C403.88 97.6204 401.927 94.3664 401.556 93.5296C401.556 93.4367 401.463 93.3437 401.37 93.3437C401.184 93.3437 401.184 93.5296 401.184 93.5296V95.8539V101.99H396.628V88.0443C396.628 83.3958 400.161 79.491 404.81 79.1191C409.458 78.4683 413.642 81.6293 414.479 86.2779ZM318.997 86.2779C318.997 86.2779 318.16 87.2076 317.231 88.2303L317.138 88.4162C316.487 89.16 315.836 89.9038 315.464 90.3686C314.721 91.2983 314.256 92.414 314.256 93.5296C314.256 94.8312 314.721 96.0399 315.65 96.9696C316.58 97.8993 317.789 98.3641 319.09 98.3641C321.786 98.3641 323.925 96.2258 323.925 93.5296C323.925 92.321 323.46 91.2053 322.716 90.3686C322.344 89.9967 321.693 89.253 321.043 88.5092L320.95 88.3232C319.927 87.3006 318.997 86.2779 318.997 86.2779ZM426.193 78.9332C430.749 79.398 434.281 83.1169 434.374 87.7654V87.8584V96.2258H429.819V93.4367C429.819 93.4367 429.819 93.2507 429.633 93.2507C429.447 93.2507 429.447 93.3437 429.447 93.4367C429.075 94.2734 427.216 97.5274 422.939 96.5047C418.476 95.2031 415.687 90.8335 416.524 86.1849C417.361 81.6293 421.544 78.4683 426.193 78.9332ZM395.048 79.2121V87.7654C395.048 92.6929 391.794 96.6906 386.866 96.6906C382.032 96.6906 378.871 92.7859 378.778 87.9514V87.7654V79.2121H383.333V87.7654C383.333 90.2756 384.449 92.321 386.866 92.321C389.283 92.321 390.399 90.3686 390.399 87.8584V87.7654V79.2121H395.048ZM440.696 74.0057V96.2258H436.141V74.0057H440.696ZM375.152 79.0261C375.803 79.1191 376.36 79.398 376.918 79.6769L377.104 79.7699V84.9763C377.104 84.9763 377.104 84.9763 377.011 84.8833C376.732 84.6044 375.896 84.0466 374.315 83.6747C370.41 82.745 368.458 86.2779 368.365 87.1146V96.3188H363.809V79.2121H367.9L368.365 82.1872C368.365 82.1872 368.365 82.3731 368.551 82.3731C368.737 82.3731 368.737 82.2801 368.737 82.1872C368.737 82.0012 371.154 78.0964 375.152 79.0261ZM349.771 74.0057C356.465 74.0057 361.578 75.2143 361.578 85.0693C361.578 94.8312 356.186 96.1328 349.399 96.1328H344.192V74.0057H349.771ZM425.356 83.3028C423.497 83.3028 421.823 84.4185 421.173 86.0919C420.429 87.7654 420.894 89.7178 422.195 91.0194C423.497 92.321 425.449 92.6929 427.123 92.0421C428.796 91.3913 429.912 89.7178 429.912 87.8584C429.912 85.3482 427.866 83.3028 425.356 83.3028ZM405.646 83.3028C403.136 83.3028 401.091 85.3482 401.091 87.8584C401.091 89.7178 402.206 91.3913 403.88 92.0421C405.553 92.6929 407.506 92.321 408.807 91.0194C410.109 89.7178 410.481 87.7654 409.83 86.0919C409.179 84.4185 407.506 83.3028 405.646 83.3028ZM350.793 77.8175H348.841V92.321L350.7 92.414C354.605 92.414 357.022 92.0421 357.022 85.1622C357.022 78.4683 354.884 77.8175 350.793 77.8175ZM318.997 73.3549C318.904 73.4479 318.904 73.4479 318.811 73.5408L318.439 73.9127C318.346 74.0057 318.16 74.1916 318.068 74.2846L317.417 74.9354C317.324 75.0284 317.138 75.2143 317.045 75.3073L316.766 75.5862C316.766 75.5862 316.766 75.5862 316.673 75.6792L316.394 75.9581L316.301 76.0511C315.743 76.6089 314.721 77.5386 316.022 78.9332C316.673 79.6769 318.718 81.7223 320.764 83.9536L321.043 84.2325C323.46 86.8357 325.97 89.5319 326.435 90.2756C326.807 90.9264 326.9 91.2053 327.458 91.2053C327.737 91.2053 328.015 90.8335 328.108 90.5546C328.573 89.5319 329.41 86.2779 326.993 82.559C325.319 79.9558 322.065 76.6089 320.299 74.7495L320.113 74.5635C319.462 73.8197 318.997 73.3549 318.997 73.3549ZM312.861 79.8629C307.004 85.6271 310.165 91.1124 311.002 91.1124C311.095 91.1124 311.281 91.1124 311.374 90.8335C311.838 89.4389 315.836 85.5341 316.766 84.6044C316.859 84.5114 316.859 84.4185 316.859 84.3255C316.859 84.2325 316.859 84.1395 316.766 84.0466L312.861 79.8629Z" fill="#589BDA"/>
</svg>
