<svg width="418" height="348" viewBox="0 0 418 348" fill="none" xmlns="http://www.w3.org/2000/svg">
<g clip-path="url(#clip0_3099_702)">
<path opacity="0.1" d="M2.17188 258.586C9.06419 290.468 23.6558 318.027 46.7152 331.385C94.6372 359.145 202.715 344.83 283.376 328.377C324.135 320.093 361.131 297.204 388.409 263.399L2.17188 258.586Z" fill="#3E7CFF"/>
<path opacity="0.1" d="M410.377 108.582H367.805C366.79 108.461 365.855 107.973 365.177 107.21C364.499 106.447 364.124 105.463 364.124 104.442C364.124 103.422 364.499 102.437 365.177 101.674C365.855 100.911 366.79 100.423 367.805 100.303H375.164C374.149 100.181 373.214 99.6926 372.536 98.9301C371.858 98.1668 371.483 97.1827 371.483 96.162C371.483 95.1424 371.858 94.1573 372.536 93.3943C373.214 92.6314 374.149 92.1432 375.164 92.0222H369.909C368.894 91.901 367.959 91.4129 367.281 90.6499C366.603 89.887 366.228 88.9022 366.228 87.8822C366.228 86.862 366.603 85.8773 367.281 85.1144C367.959 84.3515 368.894 83.8632 369.909 83.7422H392.127C386.697 80.9831 380.837 79.1654 374.797 78.3669C314.215 69.6098 292.585 75.4024 284.955 81.3745C275.822 88.6971 265.196 93.9384 253.821 96.7318C216.444 105.406 146.538 115.847 83.18 93.3889C51.6894 82.2173 28.2842 101.089 14.2578 132.609H417.767C417.419 124.058 415.732 115.614 412.767 107.585C412.132 108.217 411.274 108.575 410.377 108.582Z" fill="#3E7CFF"/>
<path opacity="0.1" d="M0.95255 192.073C-0.746607 210.615 -0.170956 229.294 2.66672 247.695L391.018 263.072C401.919 249.457 410.99 234.478 418.001 218.515L0.95255 192.073ZM154.55 231.753H146.903C147.945 231.837 148.917 232.311 149.626 233.078C150.334 233.845 150.728 234.849 150.728 235.893C150.728 236.936 150.334 237.942 149.626 238.709C148.917 239.476 147.945 239.949 146.903 240.033H102.666C101.624 239.949 100.652 239.476 99.9437 238.709C99.2342 237.942 98.8406 236.936 98.8406 235.893C98.8406 234.849 99.2342 233.845 99.9437 233.078C100.652 232.311 101.624 231.837 102.666 231.753H110.313C109.271 231.669 108.299 231.196 107.59 230.429C106.881 229.662 106.487 228.657 106.487 227.613C106.487 226.569 106.881 225.565 107.59 224.798C108.299 224.031 109.271 223.557 110.313 223.473H104.853C103.811 223.389 102.839 222.916 102.13 222.149C101.421 221.382 101.027 220.377 101.027 219.333C101.027 218.289 101.421 217.285 102.13 216.518C102.839 215.751 103.811 215.277 104.853 215.193H149.09C150.132 215.277 151.104 215.751 151.812 216.518C152.521 217.285 152.914 218.289 152.914 219.333C152.914 220.377 152.521 221.382 151.812 222.149C151.104 222.916 150.132 223.389 149.09 223.473H154.55C155.592 223.557 156.564 224.031 157.272 224.798C157.981 225.565 158.375 226.569 158.375 227.613C158.375 228.657 157.981 229.662 157.272 230.429C156.564 231.196 155.592 231.669 154.55 231.753Z" fill="#3E7CFF"/>
<path opacity="0.1" d="M417.813 132.877L9.76114 144.049C4.62615 159.405 1.34917 175.321 0 191.454H410.662C413.35 181.534 415.333 171.438 416.592 161.238C417.834 151.838 418.242 142.348 417.813 132.877ZM82.8399 169.467H75.4809C76.4957 169.588 77.4308 170.076 78.1092 170.84C78.7877 171.602 79.1623 172.587 79.1623 173.608C79.1623 174.628 78.7877 175.613 78.1092 176.375C77.4308 177.138 76.4957 177.627 75.4809 177.747H32.9114C31.8966 177.627 30.9615 177.138 30.2831 176.375C29.6046 175.613 29.23 174.628 29.23 173.608C29.23 172.587 29.6046 171.602 30.2831 170.84C30.9615 170.076 31.8966 169.588 32.9114 169.467H40.2705C39.2556 169.347 38.3206 168.858 37.6421 168.095C36.9637 167.333 36.5891 166.348 36.5891 165.328C36.5891 164.307 36.9637 163.322 37.6421 162.56C38.3206 161.796 39.2556 161.308 40.2705 161.188H35.0155C34.0006 161.067 33.0656 160.579 32.3871 159.815C31.7087 159.053 31.3341 158.068 31.3341 157.048C31.3341 156.027 31.7087 155.042 32.3871 154.28C33.0656 153.517 34.0006 153.028 35.0155 152.908H77.5849C78.5997 153.028 79.5348 153.517 80.2133 154.28C80.8917 155.042 81.2663 156.027 81.2663 157.048C81.2663 158.068 80.8917 159.053 80.2133 159.815C79.5348 160.579 78.5997 161.067 77.5849 161.188H82.8399C83.8547 161.308 84.7898 161.796 85.4683 162.56C86.1467 163.322 86.5213 164.307 86.5213 165.328C86.5213 166.348 86.1467 167.333 85.4683 168.095C84.7898 168.858 83.8547 169.347 82.8399 169.467Z" fill="#3E7CFF"/>
<g opacity="0.1">
<path d="M256.383 341.656C256.383 341.656 268.522 311.794 291.19 300.717C300.73 296.136 308.524 288.59 313.402 279.212C315.681 274.737 317.544 270.063 318.968 265.248" stroke="#535461" stroke-width="2" stroke-miterlimit="10"/>
<path d="M333.218 258.181C330.854 261.146 318.625 265.486 318.625 265.486C318.625 265.486 320.097 252.596 322.46 249.652C323.634 248.35 325.26 247.545 327.008 247.399C328.756 247.253 330.494 247.779 331.868 248.869C333.241 249.958 334.145 251.531 334.397 253.263C334.649 254.996 334.229 256.76 333.222 258.194L333.218 258.181Z" fill="#6C63FF"/>
<path d="M329.024 281.667C325.425 282.874 312.805 279.871 312.805 279.871C312.805 279.871 321.052 269.867 324.646 268.661C326.335 268.219 328.128 268.434 329.664 269.262C331.2 270.091 332.364 271.47 332.919 273.121C333.475 274.773 333.382 276.573 332.659 278.16C331.936 279.745 330.637 280.998 329.024 281.664V281.667Z" fill="#6C63FF"/>
<path d="M306.267 309.424C302.552 308.655 293.172 299.7 293.172 299.7C293.172 299.7 305.345 295.22 309.064 295.989C310.747 296.457 312.188 297.546 313.097 299.035C314.005 300.524 314.313 302.302 313.958 304.01C313.601 305.717 312.61 307.226 311.181 308.23C309.754 309.234 307.997 309.66 306.267 309.42V309.424Z" fill="#6C63FF"/>
<path d="M284.312 326.56C280.52 326.427 269.758 319.186 269.758 319.186C269.758 319.186 281.004 312.731 284.794 312.848C285.736 312.818 286.676 312.981 287.552 313.328C288.429 313.675 289.226 314.199 289.891 314.865C290.558 315.532 291.079 316.328 291.424 317.205C291.769 318.081 291.93 319.02 291.897 319.96C291.864 320.901 291.637 321.825 291.231 322.675C290.827 323.526 290.25 324.284 289.539 324.902C288.827 325.521 287.997 325.987 287.097 326.271C286.199 326.557 285.25 326.654 284.312 326.559V326.56Z" fill="#6C63FF"/>
<path d="M301.052 271.478C301.539 275.238 309.756 285.258 309.756 285.258C309.756 285.258 315.167 273.485 314.685 269.729C314.348 268.017 313.371 266.497 311.953 265.476C310.534 264.457 308.781 264.012 307.047 264.236C305.312 264.458 303.728 265.331 302.615 266.677C301.502 268.023 300.944 269.741 301.052 271.482V271.478Z" fill="#6C63FF"/>
<path d="M275.628 291.843C277.217 295.28 288.064 302.391 288.064 302.391C288.064 302.391 289.7 289.54 288.112 286.103C287.774 285.225 287.258 284.426 286.599 283.756C285.939 283.085 285.148 282.556 284.275 282.203C283.403 281.849 282.466 281.678 281.524 281.699C280.584 281.721 279.656 281.935 278.801 282.329C277.945 282.723 277.18 283.287 276.552 283.987C275.924 284.688 275.447 285.51 275.149 286.402C274.851 287.294 274.741 288.237 274.823 289.174C274.906 290.11 275.179 291.02 275.628 291.847V291.843Z" fill="#6C63FF"/>
<path d="M253.64 315.022C254.621 318.683 264.113 327.517 264.113 327.517C264.113 327.517 267.901 315.129 266.915 311.468C266.352 309.816 265.18 308.44 263.638 307.619C262.096 306.797 260.299 306.593 258.611 307.044C256.923 307.496 255.47 308.572 254.547 310.054C253.624 311.535 253.299 313.311 253.64 315.023V315.022Z" fill="#6C63FF"/>
<path opacity="0.25" d="M333.218 258.181C330.854 261.146 318.625 265.486 318.625 265.486C318.625 265.486 320.097 252.596 322.46 249.652C323.634 248.35 325.26 247.545 327.008 247.399C328.756 247.253 330.494 247.779 331.868 248.869C333.241 249.958 334.145 251.531 334.397 253.263C334.649 254.996 334.229 256.76 333.222 258.194L333.218 258.181Z" fill="black"/>
<path opacity="0.25" d="M329.024 281.667C325.425 282.874 312.805 279.871 312.805 279.871C312.805 279.871 321.052 269.867 324.646 268.661C326.335 268.219 328.128 268.434 329.664 269.262C331.2 270.091 332.364 271.47 332.919 273.121C333.475 274.773 333.382 276.573 332.659 278.16C331.936 279.745 330.637 280.998 329.024 281.664V281.667Z" fill="black"/>
<path opacity="0.25" d="M306.267 309.424C302.552 308.655 293.172 299.7 293.172 299.7C293.172 299.7 305.345 295.22 309.064 295.989C310.747 296.457 312.188 297.546 313.097 299.035C314.005 300.524 314.313 302.302 313.958 304.01C313.601 305.717 312.61 307.226 311.181 308.23C309.754 309.234 307.997 309.66 306.267 309.42V309.424Z" fill="black"/>
<path opacity="0.25" d="M284.312 326.56C280.52 326.427 269.758 319.186 269.758 319.186C269.758 319.186 281.004 312.731 284.794 312.848C285.736 312.818 286.676 312.981 287.552 313.328C288.429 313.675 289.226 314.199 289.891 314.865C290.558 315.532 291.079 316.328 291.424 317.205C291.769 318.081 291.93 319.02 291.897 319.96C291.864 320.901 291.637 321.825 291.231 322.675C290.827 323.526 290.25 324.284 289.539 324.902C288.827 325.521 287.997 325.987 287.097 326.271C286.199 326.557 285.25 326.654 284.312 326.559V326.56Z" fill="black"/>
<path opacity="0.25" d="M301.052 271.478C301.539 275.238 309.756 285.258 309.756 285.258C309.756 285.258 315.167 273.485 314.685 269.729C314.348 268.017 313.371 266.497 311.953 265.476C310.534 264.457 308.781 264.012 307.047 264.236C305.312 264.458 303.728 265.331 302.615 266.677C301.502 268.023 300.944 269.741 301.052 271.482V271.478Z" fill="black"/>
<path opacity="0.25" d="M275.628 291.843C277.217 295.28 288.064 302.391 288.064 302.391C288.064 302.391 289.7 289.54 288.112 286.103C287.774 285.225 287.258 284.426 286.599 283.756C285.939 283.085 285.148 282.556 284.275 282.203C283.403 281.849 282.466 281.678 281.524 281.699C280.584 281.721 279.656 281.935 278.801 282.329C277.945 282.723 277.18 283.287 276.552 283.987C275.924 284.688 275.447 285.51 275.149 286.402C274.851 287.294 274.741 288.237 274.823 289.174C274.906 290.11 275.179 291.02 275.628 291.847V291.843Z" fill="black"/>
<path opacity="0.25" d="M253.64 315.022C254.621 318.683 264.113 327.517 264.113 327.517C264.113 327.517 267.901 315.129 266.915 311.468C266.352 309.816 265.18 308.44 263.638 307.619C262.096 306.797 260.299 306.593 258.611 307.044C256.923 307.496 255.47 308.572 254.547 310.054C253.624 311.535 253.299 313.311 253.64 315.023V315.022Z" fill="black"/>
</g>
<g opacity="0.1">
<path d="M247.844 298.009C247.844 298.009 249.376 265.818 267.081 247.862C274.549 240.376 279.383 230.674 280.858 220.213C281.522 215.241 281.728 210.219 281.474 205.209" stroke="#535461" stroke-width="2" stroke-miterlimit="10"/>
<path d="M292.612 193.827C291.368 197.406 281.272 205.54 281.272 205.54C281.272 205.54 278.388 192.911 279.632 189.333C279.877 188.421 280.308 187.57 280.898 186.832C281.487 186.094 282.222 185.485 283.058 185.043C283.893 184.601 284.812 184.335 285.755 184.263C286.697 184.19 287.645 184.313 288.538 184.621C289.432 184.931 290.252 185.42 290.948 186.059C291.643 186.698 292.2 187.474 292.582 188.337C292.965 189.201 293.165 190.133 293.171 191.077C293.176 192.021 292.987 192.956 292.615 193.823L292.612 193.827Z" fill="#6C63FF"/>
<path d="M296.433 217.357C293.42 219.685 280.531 221.035 280.531 221.035C280.531 221.035 284.987 208.867 287.978 206.535C288.682 205.91 289.507 205.436 290.402 205.141C291.296 204.847 292.242 204.739 293.18 204.824C294.118 204.909 295.029 205.185 295.856 205.636C296.683 206.086 297.409 206.701 297.988 207.442C298.567 208.184 298.988 209.036 299.224 209.946C299.46 210.856 299.507 211.806 299.362 212.735C299.216 213.663 298.881 214.552 298.377 215.347C297.874 216.142 297.212 216.824 296.433 217.354V217.357Z" fill="#6C63FF"/>
<path d="M284.185 251.093C280.423 251.596 268.602 246.255 268.602 246.255C268.602 246.255 278.601 237.996 282.379 237.494C283.303 237.308 284.255 237.314 285.176 237.511C286.098 237.707 286.968 238.091 287.736 238.637C288.503 239.184 289.149 239.881 289.636 240.687C290.122 241.492 290.437 242.389 290.563 243.321C290.687 244.253 290.62 245.202 290.363 246.106C290.106 247.011 289.667 247.854 289.07 248.582C288.474 249.311 287.735 249.91 286.898 250.341C286.061 250.773 285.143 251.029 284.203 251.093H284.185Z" fill="#6C63FF"/>
<path d="M269.165 274.521C265.541 275.651 252.984 272.37 252.984 272.37C252.984 272.37 261.439 262.547 265.063 261.413C266.764 260.999 268.559 261.247 270.084 262.107C271.609 262.966 272.748 264.372 273.271 266.041C273.793 267.709 273.659 269.513 272.897 271.086C272.135 272.66 270.8 273.883 269.165 274.51V274.521Z" fill="#6C63FF"/>
<path d="M266.662 217.02C268.384 220.406 279.455 227.139 279.455 227.139C279.455 227.139 280.648 214.249 278.943 210.855C278.054 209.354 276.629 208.246 274.953 207.755C273.277 207.264 271.477 207.427 269.917 208.21C268.357 208.994 267.154 210.339 266.55 211.975C265.945 213.61 265.988 215.414 266.665 217.021L266.662 217.02Z" fill="#6C63FF"/>
<path d="M249.438 244.649C252.081 247.368 264.676 250.483 264.676 250.483C264.676 250.483 261.952 237.821 259.309 235.101C258.012 233.925 256.316 233.286 254.565 233.314C252.815 233.342 251.14 234.036 249.882 235.253C248.625 236.469 247.879 238.118 247.797 239.865C247.714 241.61 248.301 243.322 249.438 244.652V244.649Z" fill="#6C63FF"/>
<path d="M236.397 273.789C238.552 276.917 250.43 282.115 250.43 282.115C250.43 282.115 249.887 269.173 247.744 266.045C246.657 264.695 245.101 263.803 243.385 263.548C241.669 263.294 239.92 263.695 238.487 264.673C237.055 265.649 236.043 267.13 235.657 268.818C235.271 270.506 235.537 272.278 236.403 273.779L236.397 273.789Z" fill="#6C63FF"/>
</g>
<path d="M50.9688 90.6802H52.8123V40.3072C52.8139 36.4769 53.5715 32.6844 55.0416 29.1463C56.5117 25.6081 58.6657 22.3937 61.3803 19.6865C64.0951 16.9793 67.3173 14.8323 70.8633 13.3681C74.4094 11.9038 78.2095 11.1511 82.047 11.1528H189.065C192.902 11.1511 196.702 11.9038 200.248 13.3681C203.794 14.8323 207.016 16.9793 209.731 19.6865C212.445 22.3937 214.599 25.6081 216.07 29.1463C217.54 32.6844 218.297 36.4769 218.299 40.3072V316.656C218.297 320.486 217.54 324.278 216.07 327.816C214.599 331.355 212.445 334.569 209.731 337.277C207.016 339.984 203.794 342.131 200.248 343.595C196.702 345.059 192.902 345.812 189.065 345.81H82.0479C78.2104 345.812 74.4103 345.059 70.8643 343.595C67.3183 342.131 64.096 339.984 61.3813 337.277C58.6666 334.569 56.5127 331.355 55.0426 327.816C53.5724 324.278 52.8149 320.486 52.8132 316.656V126.536H50.9688V90.6802Z" fill="#3F3D56"/>
<path d="M80.8717 18.7444H94.8364C94.1945 20.3157 93.9498 22.0205 94.1232 23.7085C94.2976 25.3965 94.8852 27.0159 95.8337 28.4239C96.7831 29.8319 98.0642 30.9853 99.5647 31.7823C101.065 32.5794 102.74 32.9957 104.44 32.9946H165.748C167.448 32.9957 169.122 32.5794 170.623 31.7823C172.124 30.9853 173.405 29.8319 174.354 28.4239C175.303 27.0159 175.891 25.3965 176.064 23.7085C176.239 22.0205 175.994 20.3157 175.352 18.7444H188.399C191.264 18.7431 194.102 19.3051 196.751 20.3985C199.398 21.4919 201.805 23.0952 203.832 25.1169C205.859 27.1386 207.469 29.539 208.566 32.1811C209.665 34.8233 210.23 37.6555 210.232 40.5159V316.449C210.23 319.31 209.665 322.141 208.566 324.784C207.469 327.426 205.859 329.826 203.832 331.848C201.805 333.87 199.398 335.473 196.751 336.567C194.102 337.66 191.264 338.222 188.399 338.22H80.8717C78.006 338.222 75.168 337.66 72.5198 336.567C69.8717 335.473 67.4653 333.87 65.438 331.848C63.4106 329.826 61.8021 327.426 60.7042 324.784C59.6063 322.141 59.0405 319.31 59.0391 316.449V40.5159C59.0405 37.6555 59.6063 34.8233 60.7042 32.1811C61.8021 29.539 63.4106 27.1386 65.438 25.1169C67.4653 23.0952 69.8717 21.4919 72.5198 20.3985C75.168 19.3051 78.006 18.7431 80.8717 18.7444Z" fill="white"/>
<path d="M157.67 96.0405H111.594V107.139H157.67V96.0405Z" fill="#0E2B5C"/>
<path d="M159.863 143.685H109.398V154.783H159.863V143.685Z" fill="#E5E5E5"/>
<path d="M190.952 167.503H78.3203V178.602H190.952V167.503Z" fill="#E5E5E5"/>
<path d="M190.952 191.322H78.3203V202.42H190.952V191.322Z" fill="#E5E5E5"/>
<path d="M134.69 298.064C152.515 298.064 166.966 283.641 166.966 265.848C166.966 248.056 152.515 233.632 134.69 233.632C116.864 233.632 102.414 248.056 102.414 265.848C102.414 283.641 116.864 298.064 134.69 298.064Z" fill="#0E2B5C"/>
<path d="M131.613 279.511L121.953 267.113L127.571 262.752L132.144 268.622L147.597 252.345L152.764 257.231L131.613 279.511Z" fill="white"/>
<path d="M387.027 347.065H148.338C148.171 347.065 148.012 347 147.895 346.882C147.777 346.765 147.711 346.606 147.711 346.441C147.711 346.274 147.777 346.115 147.895 345.998C148.012 345.88 148.171 345.815 148.338 345.815H387.027C387.193 345.815 387.352 345.88 387.47 345.998C387.588 346.115 387.653 346.274 387.653 346.441C387.653 346.606 387.588 346.765 387.47 346.882C387.352 347 387.193 347.065 387.027 347.065Z" fill="#CCCCCC"/>
<path d="M354.996 85.8051H354.467C353.803 85.8044 353.165 85.5405 352.696 85.0716C352.226 84.6026 351.962 83.9668 351.961 83.3036V63.4414C351.962 62.7782 352.226 62.1423 352.696 61.6734C353.165 61.2044 353.803 60.9407 354.467 60.9399H354.996C355.66 60.9407 356.297 61.2044 356.767 61.6734C357.237 62.1423 357.501 62.7782 357.502 63.4414V83.3027C357.501 83.966 357.237 84.6021 356.767 85.0712C356.297 85.5405 355.66 85.8044 354.996 85.8051Z" fill="#E6E6E6"/>
<path d="M180.884 61.6226H180.358C179.693 61.6219 179.056 61.3581 178.586 60.8891C178.117 60.4202 177.852 59.7843 177.852 59.1211V47.624C177.852 46.9608 178.117 46.3249 178.586 45.856C179.056 45.387 179.693 45.1233 180.358 45.1226H180.887C181.552 45.1233 182.188 45.387 182.659 45.856C183.128 46.3249 183.392 46.9608 183.393 47.624V59.1211C183.392 59.7848 183.128 60.4211 182.658 60.8901C182.187 61.3592 181.549 61.6226 180.884 61.6226Z" fill="#E6E6E6"/>
<path d="M180.884 89.5518H180.358C179.693 89.5512 179.056 89.2874 178.586 88.8184C178.117 88.3494 177.852 87.7136 177.852 87.0503V75.5533C177.852 74.8901 178.117 74.2542 178.586 73.7853C179.056 73.3163 179.693 73.0525 180.358 73.0518H180.887C181.552 73.0525 182.188 73.3163 182.659 73.7853C183.128 74.2542 183.392 74.8901 183.393 75.5533V87.0513C183.392 87.7148 183.127 88.3508 182.657 88.8197C182.186 89.2886 181.549 89.5518 180.884 89.5518Z" fill="#E6E6E6"/>
<path d="M330.822 346.425H204.533C198.765 346.422 193.234 344.134 189.154 340.066C185.073 335.997 182.776 330.479 182.766 324.722V22.3317C182.776 16.5747 185.073 11.0567 189.154 6.98809C193.234 2.91948 198.765 0.632372 204.533 0.628418H330.822C336.59 0.632372 342.12 2.91948 346.201 6.98809C350.281 11.0567 352.579 16.5747 352.589 22.3317V324.717C352.579 330.474 350.281 335.991 346.201 340.06C342.12 344.129 336.59 346.416 330.822 346.42V346.425Z" fill="#EDEDED"/>
<path d="M330.824 347.05H204.534C198.6 347.046 192.909 344.693 188.711 340.506C184.513 336.32 182.151 330.641 182.141 324.718V89.8972C181.747 90.0728 181.32 90.1636 180.888 90.1638H180.359C179.528 90.1631 178.733 89.8338 178.146 89.2482C177.558 88.6627 177.228 87.8687 177.227 87.0402V75.5525C177.227 74.7239 177.558 73.9298 178.145 73.3442C178.733 72.7586 179.528 72.4294 180.359 72.4289H180.888C181.32 72.4291 181.747 72.5199 182.141 72.6955V61.9262C181.747 62.1018 181.32 62.1927 180.888 62.1928H180.359C179.528 62.1921 178.733 61.8629 178.146 61.2773C177.558 60.6918 177.228 59.8977 177.227 59.0693V47.5815C177.227 46.753 177.558 45.9588 178.145 45.3732C178.733 44.7876 179.528 44.4584 180.359 44.4579H180.888C181.32 44.4581 181.747 44.549 182.141 44.7245V22.3328C182.151 16.4093 184.513 10.7314 188.711 6.54464C192.909 2.35787 198.6 0.00420449 204.534 0H330.824C336.758 0.00469971 342.448 2.35859 346.646 6.5453C350.843 10.7321 353.205 16.4097 353.215 22.3328V60.5866C353.609 60.411 354.036 60.3202 354.468 60.32H354.997C355.826 60.3208 356.623 60.6499 357.209 61.2356C357.797 61.8211 358.127 62.6151 358.129 63.4436V83.2889C358.127 84.1174 357.797 84.9114 357.209 85.497C356.623 86.0826 355.826 86.4118 354.997 86.4125H354.468C354.036 86.4123 353.609 86.3215 353.215 86.1459V324.719C353.205 330.642 350.843 336.32 346.644 340.507C342.446 344.694 336.755 347.048 330.821 347.051L330.824 347.05ZM183.391 87.0112V324.718C183.399 330.31 185.63 335.671 189.594 339.625C193.558 343.577 198.931 345.799 204.534 345.802H330.824C336.426 345.798 341.799 343.576 345.762 339.624C349.726 335.671 351.956 330.311 351.965 324.719V83.2581L353.063 84.5126C353.237 84.7147 353.453 84.8773 353.696 84.9894C353.937 85.1015 354.202 85.1607 354.469 85.1627H354.997C355.495 85.1622 355.972 84.965 356.324 84.6144C356.676 84.2638 356.875 83.7882 356.877 83.2917V63.4426C356.875 62.9462 356.676 62.4706 356.324 62.12C355.972 61.7693 355.495 61.5721 354.997 61.5717H354.469C354.202 61.5737 353.937 61.6329 353.696 61.745C353.453 61.8571 353.237 62.0197 353.063 62.2218L351.965 63.4763V22.3328C351.956 16.7407 349.726 11.3803 345.762 7.42785C341.799 3.47535 336.426 1.25351 330.824 1.24981H204.534C198.932 1.25277 193.559 3.47427 189.594 7.42684C185.631 11.3794 183.399 16.7402 183.391 22.3328V47.6115L182.292 46.3579C182.118 46.1557 181.902 45.9932 181.66 45.8811C181.417 45.7689 181.154 45.7098 180.886 45.7077H180.357C179.859 45.7082 179.382 45.9053 179.03 46.256C178.678 46.6066 178.48 47.0822 178.478 47.5787V59.0665C178.48 59.5629 178.678 60.0385 179.03 60.3891C179.382 60.7398 179.859 60.937 180.357 60.9374H180.886C181.154 60.9354 181.417 60.8762 181.66 60.7641C181.902 60.652 182.118 60.4894 182.292 60.2873L183.391 59.0337V75.5749L182.292 74.3214C182.118 74.1192 181.902 73.9566 181.66 73.8446C181.417 73.7324 181.154 73.6733 180.886 73.6712H180.357C179.859 73.6717 179.382 73.8688 179.03 74.2195C178.678 74.5701 178.48 75.0457 178.478 75.5422V87.0299C178.48 87.5264 178.678 88.002 179.03 88.3526C179.382 88.7032 179.859 88.9004 180.357 88.9009H180.886C181.154 88.8988 181.417 88.8397 181.66 88.7276C181.902 88.6155 182.118 88.4529 182.292 88.2507L183.391 87.0112Z" fill="black"/>
<path d="M248.032 85.8613H213.494C208.202 85.8552 203.127 83.7539 199.385 80.0184C195.643 76.2829 193.537 71.2183 193.531 65.9355V25.9774C193.537 20.6946 195.643 15.63 199.385 11.8945C203.127 8.159 208.202 6.05771 213.494 6.05151H248.032C253.324 6.05771 258.398 8.159 262.14 11.8945C265.883 15.63 267.988 20.6946 267.994 25.9774V65.9347C267.988 71.2174 265.883 76.282 262.14 80.0175C258.398 83.7529 253.324 85.8552 248.032 85.8613Z" fill="white"/>
<path d="M248.031 86.4871H213.496C208.038 86.4794 202.804 84.3115 198.945 80.4588C195.085 76.6061 192.914 71.3829 192.906 65.9345V25.9818C192.912 20.5331 195.083 15.3093 198.944 11.4565C202.803 7.6036 208.037 5.43636 213.496 5.43018H248.031C253.489 5.43636 258.723 7.6036 262.583 11.4565C266.442 15.3093 268.614 20.5331 268.62 25.9818V65.9401C268.613 71.3885 266.441 76.6117 262.581 80.4644C258.722 84.3171 253.489 86.485 248.031 86.4927V86.4871ZM213.496 6.6753C208.369 6.68099 203.452 8.71705 199.827 12.3367C196.202 15.9562 194.162 20.8636 194.158 25.9818V65.9401C194.164 71.0575 196.203 75.9637 199.829 79.5823C203.454 83.2008 208.369 85.2362 213.496 85.2419H248.031C253.158 85.2367 258.075 83.2009 261.701 79.5812C265.326 75.9617 267.366 71.0539 267.37 65.9354V25.9818C267.364 20.8645 265.324 15.9586 261.699 12.3402C258.074 8.7219 253.159 6.68661 248.033 6.68092L213.496 6.6753Z" fill="#CCCCCC"/>
<path d="M267.679 195.064C279.596 195.064 289.257 185.421 289.257 173.527C289.257 161.631 279.596 151.989 267.679 151.989C255.762 151.989 246.102 161.631 246.102 173.527C246.102 185.421 255.762 195.064 267.679 195.064Z" fill="#0E2B5C"/>
<path d="M214.617 37.5466C220.432 37.5466 225.147 32.8406 225.147 27.0355C225.147 21.2304 220.432 16.5244 214.617 16.5244C208.8 16.5244 204.086 21.2304 204.086 27.0355C204.086 32.8406 208.8 37.5466 214.617 37.5466Z" fill="#2F2E41"/>
<path d="M214.617 75.3369C220.432 75.3369 225.147 70.6309 225.147 64.8258C225.147 59.0207 220.432 54.3147 214.617 54.3147C208.8 54.3147 204.086 59.0207 204.086 64.8258C204.086 70.6309 208.8 75.3369 214.617 75.3369Z" fill="#2F2E41"/>
<path d="M246.906 56.2783C252.721 56.2783 257.436 51.5723 257.436 45.7672C257.436 39.9621 252.721 35.2561 246.906 35.2561C241.089 35.2561 236.375 39.9621 236.375 45.7672C236.375 51.5723 241.089 56.2783 246.906 56.2783Z" fill="#2F2E41"/>
<path d="M214.616 30.7145C216.651 30.7145 218.302 29.0672 218.302 27.0352C218.302 25.0032 216.651 23.356 214.616 23.356C212.58 23.356 210.93 25.0032 210.93 27.0352C210.93 29.0672 212.58 30.7145 214.616 30.7145Z" fill="#B3B3B3"/>
<path d="M214.616 31.3357C213.763 31.3357 212.93 31.0833 212.22 30.6104C211.512 30.1376 210.959 29.4656 210.633 28.6792C210.307 27.8929 210.221 27.0277 210.387 26.193C210.554 25.3581 210.965 24.5914 211.567 23.9896C212.171 23.3878 212.938 22.978 213.775 22.8119C214.611 22.6459 215.478 22.7311 216.265 23.0568C217.054 23.3825 217.727 23.9341 218.201 24.6417C218.674 25.3493 218.927 26.1814 218.927 27.0325C218.927 28.1738 218.473 29.2683 217.665 30.0753C216.856 30.8823 215.759 31.3357 214.616 31.3357ZM214.616 23.9772C214.011 23.9772 213.419 24.1562 212.916 24.4918C212.414 24.8273 212.021 25.3042 211.789 25.8621C211.558 26.42 211.498 27.034 211.616 27.6263C211.734 28.2186 212.025 28.7626 212.453 29.1897C212.88 29.6167 213.426 29.9075 214.019 30.0254C214.612 30.1431 215.228 30.0827 215.787 29.8516C216.345 29.6205 216.823 29.2291 217.16 28.727C217.495 28.2248 217.675 27.6345 217.675 27.0306C217.675 26.2208 217.353 25.4441 216.779 24.8715C216.205 24.2989 215.428 23.9772 214.616 23.9772Z" fill="#E6E6E6"/>
<path d="M246.905 49.4479C248.94 49.4479 250.591 47.8006 250.591 45.7686C250.591 43.7367 248.94 42.0894 246.905 42.0894C244.869 42.0894 243.219 43.7367 243.219 45.7686C243.219 47.8006 244.869 49.4479 246.905 49.4479Z" fill="#B3B3B3"/>
<path d="M246.905 50.071C246.052 50.071 245.219 49.8187 244.509 49.3459C243.801 48.873 243.248 48.2009 242.922 47.4146C242.596 46.6283 242.51 45.763 242.676 44.9283C242.843 44.0936 243.254 43.3268 243.856 42.725C244.46 42.1232 245.227 41.7133 246.063 41.5473C246.9 41.3812 247.767 41.4665 248.555 41.7922C249.343 42.1178 250.016 42.6694 250.49 43.3771C250.963 44.0848 251.216 44.9167 251.216 45.7678C251.216 46.9091 250.762 48.0036 249.954 48.8107C249.145 49.6177 248.048 50.071 246.905 50.071ZM246.905 42.7125C246.3 42.7125 245.708 42.8916 245.206 43.2271C244.703 43.5626 244.31 44.0395 244.078 44.5974C243.847 45.1554 243.787 45.7693 243.905 46.3617C244.023 46.9539 244.314 47.498 244.742 47.925C245.169 48.3521 245.715 48.6429 246.308 48.7607C246.901 48.8785 247.517 48.8181 248.076 48.587C248.634 48.3558 249.112 47.9645 249.449 47.4624C249.784 46.9602 249.964 46.3699 249.964 45.7659C249.964 45.365 249.884 44.9679 249.731 44.5974C249.577 44.227 249.352 43.8904 249.068 43.6069C248.784 43.3233 248.447 43.0984 248.076 42.945C247.704 42.7915 247.307 42.7125 246.905 42.7125Z" fill="#E6E6E6"/>
<path d="M214.616 68.556C216.651 68.556 218.302 66.9087 218.302 64.8768C218.302 62.8447 216.651 61.1975 214.616 61.1975C212.58 61.1975 210.93 62.8447 210.93 64.8768C210.93 66.9087 212.58 68.556 214.616 68.556Z" fill="#B3B3B3"/>
<path d="M214.616 69.1826C213.763 69.1826 212.93 68.9302 212.22 68.4574C211.512 67.9845 210.959 67.3125 210.633 66.5261C210.307 65.7398 210.221 64.8746 210.387 64.0399C210.554 63.2052 210.965 62.4383 211.567 61.8365C212.171 61.2347 212.938 60.8249 213.775 60.6589C214.611 60.4928 215.478 60.578 216.265 60.9037C217.054 61.2294 217.727 61.781 218.201 62.4887C218.674 63.1964 218.927 64.0283 218.927 64.8794C218.927 66.0207 218.473 67.1152 217.665 67.9222C216.856 68.7292 215.759 69.1826 214.616 69.1826ZM214.616 61.8241C214.011 61.8241 213.419 62.0032 212.916 62.3387C212.414 62.6742 212.021 63.1511 211.789 63.709C211.558 64.2669 211.498 64.8809 211.616 65.4732C211.734 66.0655 212.025 66.6096 212.453 67.0366C212.88 67.4637 213.426 67.7544 214.019 67.8723C214.612 67.9901 215.228 67.9296 215.787 67.6985C216.345 67.4674 216.823 67.0761 217.16 66.5739C217.495 66.0718 217.675 65.4815 217.675 64.8775C217.675 64.4766 217.596 64.0795 217.442 63.709C217.288 63.3386 217.063 63.002 216.779 62.7184C216.495 62.4349 216.158 62.21 215.787 62.0565C215.415 61.9031 215.018 61.8241 214.616 61.8241Z" fill="#E6E6E6"/>
<path d="M188.907 295.426C188.904 295.46 188.909 295.496 188.921 295.529C188.932 295.561 188.95 295.592 188.974 295.618C188.996 295.645 189.025 295.665 189.056 295.68C189.088 295.696 189.123 295.705 189.157 295.706H342.496C342.561 295.695 342.621 295.661 342.664 295.611C342.708 295.56 342.731 295.496 342.731 295.429C342.731 295.363 342.708 295.299 342.664 295.248C342.621 295.197 342.561 295.163 342.496 295.153H189.157C189.088 295.156 189.023 295.186 188.976 295.238C188.93 295.289 188.904 295.357 188.907 295.426Z" fill="#3F3D56"/>
<path d="M281.023 236.648L281.916 248.041L294.849 242.65L287.554 231.061L281.023 236.648Z" fill="#A0616A"/>
<path d="M280.639 240.119C285.963 240.119 290.279 235.812 290.279 230.498C290.279 225.184 285.963 220.876 280.639 220.876C275.316 220.876 271 225.184 271 230.498C271 235.812 275.316 240.119 280.639 240.119Z" fill="#A0616A"/>
<path d="M262.606 320.204L264.239 334.818L252.812 333.238L256.544 319.738L262.606 320.204Z" fill="#A0616A"/>
<path d="M307.145 322.299L308.778 336.913L297.352 335.333L301.083 321.833L307.145 322.299Z" fill="#A0616A"/>
<path d="M279.975 278.195C279.819 278.195 267.349 278.82 259.11 279.233C258.184 279.28 257.277 279.511 256.443 279.914C255.608 280.316 254.863 280.881 254.251 281.575C253.639 282.27 253.173 283.079 252.88 283.957C252.587 284.834 252.472 285.761 252.544 286.684L255.49 324.514L263.885 324.747L264.089 294.255L280.678 295.191L279.975 278.195Z" fill="#2F2E41"/>
<path d="M316.591 277.963C316.591 277.963 318.689 294.024 317.059 295.652C315.429 297.281 264.242 294.373 264.242 294.373C264.242 294.373 275.471 278.189 277.494 277.727C279.516 277.264 311.696 275.636 311.696 275.636L316.591 277.963Z" fill="#2F2E41"/>
<path d="M250.279 257.743C248.329 255.021 248.156 251.812 249.892 250.574C251.627 249.336 254.613 250.538 256.563 253.261C257.357 254.337 257.881 255.588 258.09 256.909L266.204 268.543L261.587 271.734L253.246 260.368C252.06 259.742 251.044 258.842 250.279 257.743Z" fill="#A0616A"/>
<path d="M280.72 294.701C277.747 296.245 274.539 295.967 273.555 294.079C272.57 292.19 274.182 289.408 277.155 287.862C278.334 287.229 279.649 286.887 280.989 286.864L293.666 280.477L296.184 285.487L283.739 292.139C282.952 293.222 281.916 294.1 280.72 294.701Z" fill="#A0616A"/>
<path d="M280.562 243.864L292.455 238.976L314.841 273.424C314.841 273.424 299.218 276.915 293.854 277.614C288.49 278.313 282.428 275.52 282.428 275.52L280.562 243.864Z" fill="#E6E6E6"/>
<path d="M295.014 249.683L290.703 236.252L296.299 240.489C296.299 240.489 312.156 250.967 312.156 255.386C312.156 259.805 317.05 273.308 317.05 273.308C317.05 273.308 322.53 277.847 320.665 282.036C318.8 286.225 323.113 285.644 323.58 288.67C324.047 291.695 316.934 295.769 316.934 295.769C316.934 295.769 315.185 278.662 309.588 278.662C303.991 278.662 295.014 249.683 295.014 249.683Z" fill="#0E2B5C"/>
<path d="M281.393 243.52L275.544 245.841C275.544 245.841 276.481 262.135 277.409 263.53C278.337 264.926 281.607 272.375 281.607 272.375V274.803C281.607 274.803 275.077 276.798 275.311 277.962C275.544 279.126 290.701 282.384 290.701 282.384C290.701 282.384 287.669 273.074 285.804 270.048C283.939 267.022 281.392 243.52 281.392 243.52H281.393Z" fill="#0E2B5C"/>
<path d="M295.133 240.256C295.133 240.256 308.191 239.558 310.989 246.54C313.788 253.523 316.12 276.334 316.12 276.334L287.67 291.782L282.773 284.247L301.893 269.35L295.133 240.256Z" fill="#0E2B5C"/>
<path d="M277.644 245.845C277.644 245.845 270.882 244.91 269.715 252.828C268.548 260.746 269.29 261.789 269.29 261.789L267.383 266.328L261.086 259.345L255.023 263.302C255.023 263.302 265.983 280.991 270.414 280.526C274.844 280.061 281.375 267.256 281.375 267.256L277.644 245.845Z" fill="#0E2B5C"/>
<path d="M311.42 280.531L307.96 329.401L298.982 329.052C298.982 329.052 297 282.849 297 282.151C297 281.453 297.937 277.496 303.762 277.263C309.587 277.03 311.42 280.531 311.42 280.531Z" fill="#2F2E41"/>
<path d="M298.396 330.332C298.396 330.332 303.06 328.936 303.76 329.865C304.46 330.794 308.424 331.261 308.424 331.261L309.59 342.667C309.59 342.667 306.325 344.994 305.859 345.46C305.392 345.926 293.034 346.396 292.8 343.599C292.567 340.801 296.065 337.314 296.065 337.314L298.396 330.332Z" fill="#2F2E41"/>
<path d="M264.12 327.075C264.12 327.075 265.519 325.911 265.986 329.17C266.452 332.428 268.084 337.782 265.752 338.48C263.421 339.177 240.102 339.415 240.102 337.316V335.221L242.2 333.592L246.398 332.924C246.398 332.924 254.558 325.445 255.489 325.445C256.419 325.445 259.453 328.47 259.453 328.47L264.12 327.075Z" fill="#2F2E41"/>
<path d="M290.116 235.717C290.116 235.717 285.453 230.132 283.587 230.597C281.721 231.062 282.888 231.76 282.888 231.76L278.224 226.64C278.224 226.64 274.493 225.243 270.995 229.666C270.995 229.666 268.897 225.942 270.995 223.847C273.094 221.753 273.794 221.986 274.259 220.821C274.725 219.656 277.991 218.726 277.991 218.726C277.991 218.726 277.803 217.051 278.834 217.884C279.865 218.718 282.424 218.726 282.424 218.726C282.424 218.726 282.439 217.791 283.481 218.726C283.773 218.994 284.132 219.179 284.521 219.261C284.91 219.344 285.313 219.32 285.69 219.194C285.69 219.194 285.69 220.805 286.506 220.814C287.322 220.824 288.722 219.66 288.954 220.591C289.187 221.522 290.819 221.987 291.053 224.781C291.286 227.574 290.116 235.717 290.116 235.717Z" fill="#2F2E41"/>
<path d="M251.007 217.732H178.218C177.593 217.733 176.993 217.982 176.551 218.422C176.109 218.864 175.86 219.463 175.859 220.087V269.113C175.86 269.737 176.109 270.336 176.551 270.778C176.993 271.219 177.593 271.467 178.218 271.468H251.007C251.632 271.467 252.232 271.219 252.674 270.778C253.116 270.336 253.365 269.737 253.366 269.113V220.087C253.365 219.463 253.115 218.864 252.674 218.422C252.232 217.982 251.632 217.733 251.007 217.732Z" fill="#3F3D56"/>
<path d="M250.404 219.435H178.832C178.497 219.436 178.176 219.569 177.94 219.806C177.703 220.042 177.57 220.363 177.57 220.697V268.508C177.571 268.842 177.704 269.162 177.941 269.398C178.177 269.635 178.497 269.767 178.832 269.767H250.404C250.739 269.767 251.061 269.635 251.298 269.399C251.535 269.163 251.668 268.843 251.669 268.508V220.697C251.669 220.363 251.536 220.042 251.3 219.806C251.063 219.569 250.742 219.436 250.407 219.435H250.404Z" fill="white"/>
<path d="M239.612 231.443V256.608C239.612 258.293 238.941 259.909 237.747 261.1C236.554 262.292 234.934 262.962 233.246 262.963H201.69C200.447 262.963 199.232 262.6 198.193 261.92C197.155 261.239 196.338 260.27 195.844 259.133C195.679 258.757 195.553 258.366 195.469 257.964C196.139 258.223 196.852 258.355 197.572 258.354H229.127C230.683 258.352 232.174 257.734 233.274 256.636C234.375 255.538 234.993 254.049 234.996 252.496V227.332C234.997 226.613 234.865 225.902 234.605 225.233C235.007 225.317 235.4 225.442 235.777 225.607C236.916 226.101 237.886 226.916 238.568 227.953C239.249 228.99 239.612 230.203 239.612 231.443Z" fill="#F2F2F2"/>
<path d="M208.244 240.228H203.193C203.059 240.228 202.93 240.174 202.836 240.08C202.74 239.985 202.688 239.857 202.688 239.723C202.688 239.59 202.74 239.462 202.836 239.367C202.93 239.273 203.059 239.219 203.193 239.219H208.244C208.378 239.219 208.507 239.273 208.601 239.367C208.696 239.462 208.749 239.59 208.749 239.723C208.749 239.857 208.696 239.985 208.601 240.08C208.507 240.174 208.378 240.228 208.244 240.228Z" fill="#6C63FF"/>
<path d="M217.315 240.228H212.263C212.129 240.228 212.001 240.174 211.906 240.08C211.811 239.985 211.758 239.857 211.758 239.723C211.758 239.59 211.811 239.462 211.906 239.367C212.001 239.273 212.129 239.219 212.263 239.219H217.315C217.449 239.219 217.577 239.273 217.672 239.367C217.766 239.462 217.82 239.59 217.82 239.723C217.82 239.857 217.766 239.985 217.672 240.08C217.577 240.174 217.449 240.228 217.315 240.228Z" fill="#6C63FF"/>
<path d="M221.846 244.267H216.794C216.66 244.267 216.532 244.214 216.437 244.119C216.342 244.025 216.289 243.897 216.289 243.763C216.289 243.629 216.342 243.501 216.437 243.406C216.532 243.312 216.66 243.259 216.794 243.259H221.846C221.98 243.259 222.108 243.312 222.203 243.406C222.298 243.501 222.351 243.629 222.351 243.763C222.351 243.897 222.298 244.025 222.203 244.119C222.108 244.214 221.98 244.267 221.846 244.267Z" fill="#6C63FF"/>
<path d="M212.812 244.267H203.185C203.051 244.267 202.922 244.214 202.828 244.119C202.733 244.025 202.68 243.897 202.68 243.763C202.68 243.629 202.733 243.501 202.828 243.406C202.922 243.312 203.051 243.259 203.185 243.259H212.811C212.945 243.259 213.073 243.312 213.168 243.406C213.263 243.501 213.316 243.629 213.316 243.763C213.316 243.897 213.263 244.025 213.168 244.119C213.073 244.214 212.945 244.267 212.811 244.267H212.812Z" fill="#6C63FF"/>
<path d="M230.952 240.228H221.325C221.259 240.228 221.193 240.215 221.132 240.189C221.071 240.164 221.015 240.127 220.968 240.08C220.922 240.033 220.884 239.977 220.859 239.916C220.833 239.855 220.82 239.79 220.82 239.723C220.82 239.657 220.833 239.592 220.859 239.531C220.884 239.469 220.922 239.414 220.968 239.367C221.015 239.32 221.071 239.283 221.132 239.258C221.193 239.232 221.259 239.219 221.325 239.219H230.952C231.018 239.219 231.084 239.232 231.145 239.258C231.206 239.283 231.262 239.32 231.309 239.367C231.356 239.414 231.393 239.469 231.418 239.531C231.444 239.592 231.457 239.657 231.457 239.723C231.457 239.79 231.444 239.855 231.418 239.916C231.393 239.977 231.356 240.033 231.309 240.08C231.262 240.127 231.206 240.164 231.145 240.189C231.084 240.215 231.018 240.228 230.952 240.228Z" fill="#6C63FF"/>
<path d="M211.695 232.577H202.068C201.934 232.577 201.805 232.524 201.711 232.429C201.616 232.335 201.562 232.207 201.562 232.073C201.562 231.939 201.616 231.811 201.711 231.717C201.805 231.622 201.934 231.569 202.068 231.569H211.694C211.828 231.569 211.956 231.622 212.051 231.717C212.146 231.811 212.199 231.939 212.199 232.073C212.199 232.207 212.146 232.335 212.051 232.429C211.956 232.524 211.829 232.577 211.695 232.577Z" fill="#6C63FF"/>
<path d="M212.472 235.521C212.377 235.522 212.284 235.493 212.207 235.439C212.13 235.384 212.071 235.307 212.04 235.218C212.01 235.128 212.008 235.032 212.034 234.941C212.061 234.851 212.115 234.771 212.19 234.713L214.655 232.801C214.754 232.724 214.836 232.628 214.896 232.517C214.955 232.407 214.992 232.286 215.002 232.161C215.012 232.037 214.996 231.911 214.955 231.792C214.915 231.674 214.849 231.566 214.765 231.473L212.696 229.238C212.652 229.195 212.619 229.143 212.595 229.087C212.573 229.031 212.562 228.97 212.563 228.909C212.564 228.848 212.577 228.789 212.603 228.733C212.627 228.677 212.664 228.628 212.709 228.586C212.753 228.545 212.806 228.514 212.863 228.493C212.921 228.472 212.981 228.464 213.042 228.468C213.103 228.47 213.162 228.486 213.218 228.513C213.272 228.541 213.321 228.579 213.36 228.625L216.433 231.946C216.475 231.992 216.508 232.046 216.529 232.105C216.548 232.165 216.557 232.227 216.551 232.289C216.547 232.352 216.529 232.413 216.499 232.468C216.469 232.522 216.429 232.571 216.379 232.609L212.746 235.428C212.667 235.488 212.571 235.521 212.472 235.521Z" fill="#6C63FF"/>
<path d="M201.598 235.521C201.692 235.522 201.784 235.493 201.862 235.439C201.939 235.384 201.997 235.307 202.028 235.218C202.059 235.128 202.062 235.032 202.034 234.941C202.008 234.851 201.953 234.771 201.879 234.713L199.414 232.801C199.315 232.724 199.233 232.628 199.173 232.517C199.113 232.407 199.077 232.286 199.067 232.161C199.057 232.037 199.073 231.911 199.113 231.792C199.154 231.674 199.219 231.566 199.304 231.473L201.374 229.238C201.417 229.195 201.45 229.143 201.473 229.087C201.496 229.031 201.508 228.97 201.506 228.909C201.505 228.848 201.492 228.789 201.466 228.733C201.441 228.677 201.406 228.628 201.361 228.586C201.316 228.545 201.263 228.514 201.206 228.493C201.149 228.472 201.088 228.464 201.027 228.468C200.966 228.47 200.906 228.486 200.852 228.513C200.797 228.541 200.749 228.579 200.709 228.625L197.636 231.946C197.593 231.992 197.561 232.046 197.54 232.105C197.52 232.165 197.512 232.227 197.517 232.289C197.523 232.352 197.54 232.413 197.57 232.468C197.599 232.522 197.641 232.571 197.69 232.609L201.323 235.428C201.404 235.489 201.502 235.523 201.604 235.521H201.598Z" fill="#6C63FF"/>
<path d="M216.663 252.928H207.036C206.902 252.928 206.774 252.874 206.679 252.78C206.585 252.685 206.531 252.557 206.531 252.423C206.531 252.29 206.585 252.161 206.679 252.067C206.774 251.973 206.902 251.919 207.036 251.919H216.663C216.797 251.919 216.925 251.973 217.02 252.067C217.114 252.161 217.168 252.29 217.168 252.423C217.168 252.557 217.114 252.685 217.02 252.78C216.925 252.874 216.797 252.928 216.663 252.928Z" fill="#6C63FF"/>
<path d="M218.339 255.419C218.244 255.419 218.151 255.39 218.074 255.336C217.998 255.281 217.939 255.204 217.908 255.115C217.877 255.026 217.875 254.93 217.901 254.839C217.928 254.748 217.983 254.669 218.058 254.611L220.523 252.698C220.621 252.621 220.703 252.524 220.763 252.415C220.822 252.305 220.859 252.183 220.869 252.059C220.88 251.933 220.864 251.808 220.822 251.69C220.782 251.571 220.716 251.463 220.632 251.371L218.563 249.135C218.52 249.092 218.486 249.041 218.462 248.985C218.44 248.928 218.429 248.868 218.43 248.807C218.432 248.746 218.445 248.685 218.47 248.63C218.494 248.575 218.531 248.525 218.576 248.483C218.62 248.442 218.673 248.41 218.731 248.39C218.788 248.369 218.849 248.361 218.91 248.364C218.97 248.368 219.029 248.384 219.085 248.411C219.139 248.438 219.188 248.476 219.227 248.522L222.3 251.843C222.343 251.889 222.375 251.944 222.396 252.002C222.416 252.061 222.424 252.124 222.418 252.187C222.414 252.249 222.396 252.309 222.366 252.365C222.336 252.42 222.296 252.468 222.246 252.507L218.613 255.325C218.535 255.385 218.438 255.419 218.339 255.419Z" fill="#6C63FF"/>
<path d="M201.598 255.419C201.692 255.419 201.784 255.39 201.862 255.336C201.939 255.281 201.997 255.204 202.028 255.115C202.059 255.026 202.062 254.93 202.034 254.839C202.008 254.748 201.953 254.669 201.879 254.611L199.414 252.698C199.315 252.621 199.233 252.524 199.173 252.415C199.113 252.305 199.077 252.183 199.067 252.059C199.057 251.933 199.073 251.808 199.113 251.69C199.154 251.571 199.219 251.463 199.304 251.371L201.374 249.135C201.417 249.092 201.45 249.041 201.473 248.985C201.496 248.928 201.508 248.868 201.506 248.807C201.505 248.746 201.492 248.685 201.466 248.63C201.441 248.575 201.406 248.525 201.361 248.483C201.316 248.442 201.263 248.41 201.206 248.39C201.149 248.369 201.088 248.361 201.027 248.364C200.966 248.368 200.906 248.384 200.852 248.411C200.797 248.438 200.749 248.476 200.709 248.522L197.636 251.843C197.593 251.889 197.561 251.944 197.54 252.002C197.52 252.061 197.512 252.124 197.517 252.187C197.523 252.249 197.54 252.309 197.57 252.365C197.599 252.42 197.641 252.468 197.69 252.507L201.323 255.325C201.402 255.385 201.498 255.419 201.598 255.419Z" fill="#6C63FF"/>
<path d="M202.449 254.005L204.472 249.384C204.526 249.262 204.626 249.165 204.751 249.117C204.875 249.068 205.015 249.071 205.138 249.124C205.26 249.177 205.357 249.278 205.406 249.402C205.454 249.526 205.452 249.666 205.398 249.788L203.375 254.409C203.321 254.531 203.221 254.628 203.095 254.676C202.971 254.725 202.832 254.722 202.709 254.669C202.587 254.615 202.49 254.515 202.441 254.39C202.393 254.266 202.394 254.127 202.449 254.005Z" fill="#6C63FF"/>
</g>
<defs>
<clipPath id="clip0_3099_702">
<rect width="418" height="348" fill="white"/>
</clipPath>
</defs>
</svg>
