<svg width="537" height="394" viewBox="0 0 537 394" fill="none" xmlns="http://www.w3.org/2000/svg">
<path d="M51.1614 392.011C48.0008 392.011 45.4297 389.443 45.4297 386.285C45.4297 383.127 48.0008 380.564 51.1614 380.564C54.322 380.564 56.8881 383.131 56.8881 386.285C56.8881 389.44 54.3182 392.011 51.1614 392.011ZM51.1601 382.515C49.0769 382.515 47.3837 384.208 47.3837 386.285C47.3837 388.364 49.0769 390.059 51.1601 390.059C53.2434 390.059 54.934 388.367 54.934 386.285C54.934 384.203 53.2396 382.515 51.1601 382.515Z" fill="#4D4C4D"/>
<path d="M88.5018 382.515H51.1555C50.6149 382.515 50.1797 382.08 50.1797 381.539C50.1797 380.999 50.6149 380.564 51.1555 380.564H88.5018C89.0424 380.564 89.4789 380.999 89.4789 381.539C89.4789 382.08 89.0424 382.515 88.5018 382.515Z" fill="#4D4C4D"/>
<path d="M69.0161 382.515C68.4755 382.515 68.0391 382.08 68.0391 381.54V299.718C68.0391 299.177 68.4755 298.742 69.0161 298.742C69.5566 298.742 69.9931 299.177 69.9931 299.718V381.54C69.9931 382.08 69.5566 382.515 69.0161 382.515Z" fill="#4D4C4D"/>
<path d="M88.358 392.011C85.1974 392.011 82.625 389.443 82.625 386.285C82.625 383.127 85.1974 380.564 88.358 380.564C91.5185 380.564 94.0884 383.131 94.0884 386.285C94.0884 389.44 91.5185 392.011 88.358 392.011ZM88.358 382.515C86.2747 382.515 84.579 384.208 84.579 386.285C84.579 388.364 86.2747 390.059 88.358 390.059C90.4412 390.059 92.1344 388.367 92.1344 386.285C92.1344 384.203 90.4412 382.515 88.358 382.515Z" fill="#4D4C4D"/>
<path d="M41.2807 312.543H99.8532V306.636H39.6641L41.2807 312.543Z" fill="white"/>
<path d="M99.8477 313.524H41.2765C40.8363 313.524 40.4512 313.231 40.3333 312.803L38.7167 306.893C38.6326 306.6 38.6941 306.286 38.8784 306.043C39.0628 305.799 39.3475 305.658 39.6535 305.658H99.8452C100.386 305.658 100.821 306.093 100.821 306.633V312.543C100.821 313.084 100.386 313.519 99.8452 313.519L99.8477 313.524ZM42.0227 311.571H98.872V307.613H40.9404L42.0227 311.571Z" fill="#4D4C4D"/>
<path d="M39.7047 306.637L19.0781 237.202H83.5241L69.8608 306.637H39.7047Z" fill="white"/>
<path d="M69.8704 307.614H39.7144C39.283 307.614 38.9017 307.328 38.7763 306.914L18.1496 237.478C18.0618 237.181 18.1195 236.863 18.3039 236.616C18.4883 236.373 18.778 236.225 19.0878 236.225H83.5375C83.831 236.225 84.1081 236.356 84.2925 236.581C84.4806 236.808 84.5521 237.106 84.4982 237.39L70.8349 306.825C70.7471 307.282 70.3445 307.614 69.8755 307.614H69.8704ZM40.4443 305.662H69.0652L82.3472 238.178H20.4009L40.4443 305.662Z" fill="#4D4C4D"/>
<path d="M95.1466 306.458H100.688L110.113 381.226L124.304 382.797L119.928 379.386L123.542 311.484C123.583 310.851 123.563 310.219 123.608 309.586C124.821 294.13 111.617 284.567 111.617 284.567C111.617 284.567 93.6202 281.389 95.1466 306.45V306.458Z" fill="#0E2B5C"/>
<path d="M109.606 376.584L108.26 381.707C107.929 382.972 108.654 384.266 109.895 384.61L130.802 390.381C131.938 390.696 132.768 389.28 131.95 388.421L119.798 379.47L109.606 376.584Z" fill="#0E2B5C"/>
<path d="M109.609 376.584L112.238 379.294C112.238 379.294 116.648 384.685 124.316 382.796L119.801 379.47L109.609 376.584Z" fill="white"/>
<path d="M71.3426 262.751L80.4945 267.117L89.2401 271.36L68.7891 271.548L71.3426 262.751Z" fill="white"/>
<path d="M47.6544 277.656C47.6544 277.656 38.9666 297.779 50.9781 306.458H89.23C89.23 306.458 90.0941 283.658 111.618 284.576L99.9509 277.656H47.657H47.6544Z" fill="#0E2B5C"/>
<path d="M89.2344 306.458H94.778L104.202 381.226L119.052 384.079L114.917 379.563L117.711 312.365C118.012 307.937 117.327 303.522 115.743 299.426C114.725 296.791 113.225 294.369 111.518 292.12L106.118 284.995C106.118 284.995 90.2277 286.142 89.2344 306.458Z" fill="#0E2B5C"/>
<path d="M50.9048 266.722L48.9219 271.917L66.5008 271.548L50.9048 266.722Z" fill="#0E2B5C"/>
<path d="M155.92 279.583H4.80535C2.68826 279.583 0.96875 277.866 0.96875 275.75C0.96875 273.634 2.68826 271.917 4.80535 271.917H155.92C158.038 271.917 159.756 273.634 159.756 275.75C159.756 277.866 158.038 279.583 155.92 279.583Z" fill="white"/>
<path d="M155.927 280.564H4.81238C2.15848 280.564 0 278.403 0 275.751C0 273.1 2.15848 270.941 4.81238 270.941H155.927C158.581 270.941 160.741 273.1 160.741 275.751C160.741 278.403 158.581 280.564 155.927 280.564ZM4.81238 272.893C3.23584 272.893 1.9528 274.176 1.9528 275.751C1.9528 277.327 3.23584 278.612 4.81238 278.612H155.927C157.504 278.612 158.787 277.33 158.787 275.751C158.787 274.172 157.504 272.893 155.927 272.893H4.81238Z" fill="#4D4C4D"/>
<path d="M154.436 392.807C153.967 392.807 153.548 392.467 153.472 391.986L135.365 280.299C135.277 279.767 135.638 279.264 136.175 279.18C136.732 279.084 137.21 279.457 137.294 279.989L155.401 391.676C155.485 392.208 155.128 392.711 154.592 392.795C154.536 392.803 154.486 392.807 154.436 392.807Z" fill="#4D4C4D"/>
<path d="M4.133 392.807C4.08283 392.807 4.03266 392.807 3.97748 392.794C3.44068 392.71 3.08448 392.207 3.16852 391.676L21.2805 279.989C21.3632 279.452 21.8423 279.083 22.3992 279.18C22.936 279.268 23.2922 279.771 23.2082 280.299L5.09748 391.985C5.02223 392.467 4.60207 392.807 4.133 392.807Z" fill="#4D4C4D"/>
<path d="M66.1998 218.997H57.6574C53.8459 218.997 50.215 220.627 47.6828 223.471C46.4085 224.903 45.4616 226.592 44.8997 228.421L37.609 252.192C36.5404 255.681 37.2641 259.473 39.553 262.317C41.0957 264.235 43.2391 265.583 45.6372 266.142L68.791 271.553L73.3275 263.703L80.4927 267.126L88.7642 271.138L90.1024 261.835L92.5669 271.319H119.914L120.162 269.219L103.16 263.557L98.1168 233.554C97.7054 231.112 96.7045 228.808 95.1995 226.839C92.5845 223.416 88.6337 221.267 84.3368 220.924L80.366 220.606C80.366 220.606 76.8405 223.065 72.9374 222.512C72.9374 222.512 68.0021 222.127 66.1998 219.006V218.997Z" fill="#0E2B5C"/>
<path d="M73.324 264.674C73.181 264.674 73.0381 264.645 72.9039 264.579L53.465 255.321C53.0248 255.117 52.809 254.614 52.9482 254.153L59.1565 233.967C59.3158 233.452 59.8664 233.163 60.3819 233.319C60.8974 233.478 61.1858 234.026 61.0303 234.542L55.0729 253.923L73.7504 262.815C74.2371 263.046 74.444 263.628 74.2132 264.118C74.0489 264.47 73.6965 264.674 73.3315 264.674H73.324Z" fill="white"/>
<path d="M90.1017 262.803C90.0427 262.803 89.9876 262.803 89.9286 262.786C89.3956 262.694 89.0444 262.187 89.141 261.655L90.9232 251.648C91.0198 251.116 91.5403 250.747 92.0557 250.86C92.5875 250.953 92.94 251.464 92.8434 251.992L91.0624 261.999C90.9784 262.472 90.567 262.803 90.1017 262.803Z" fill="white"/>
<path d="M88.3089 254.124C87.6429 254.124 86.9631 254.02 86.3047 253.801L86.5229 252.842L86.8841 251.933L86.5267 252.842L86.9343 251.95C88.4055 252.432 89.977 252.13 91.2136 251.104C92.4716 250.06 93.0962 248.474 92.8792 246.861L90.7283 230.693C90.6568 230.156 91.0343 229.671 91.5711 229.595C92.0815 229.531 92.5933 229.905 92.6685 230.437L94.8195 246.605C95.1217 248.884 94.2413 251.129 92.4641 252.607C91.2651 253.601 89.8014 254.12 88.3089 254.12V254.124Z" fill="white"/>
<path d="M67.9741 272.336C67.9026 272.336 67.8274 272.332 67.7521 272.311L51.0612 268.407C50.5369 268.281 50.2058 267.758 50.3313 267.234C50.4529 266.711 50.9558 266.376 51.5052 266.505L68.1961 270.41C68.7204 270.535 69.0515 271.059 68.9261 271.582C68.8207 272.035 68.4181 272.336 67.9741 272.336Z" fill="white"/>
<path d="M75.7812 271.917H93.9095V268.465H79.2403C77.3327 268.465 75.785 270.012 75.785 271.917H75.7812Z" fill="white"/>
<path d="M93.9021 272.893H75.7739C75.2333 272.893 74.7969 272.458 74.7969 271.917C74.7969 269.475 76.7885 267.49 79.233 267.49H93.9021C94.4427 267.49 94.8792 267.925 94.8792 268.466V271.917C94.8792 272.458 94.4427 272.893 93.9021 272.893ZM76.9566 270.942H92.9251V269.442H79.233C78.2146 269.442 77.3341 270.057 76.9566 270.942Z" fill="#4D4C4D"/>
<path d="M91.7188 271.917H144.019L152.328 245.731C153.071 243.398 151.326 241.019 148.878 241.019H104.174C102.598 241.019 101.198 242.041 100.724 243.545L91.7188 271.917Z" fill="white"/>
<path d="M144.017 272.894H91.7183C91.4073 272.894 91.1138 272.744 90.9294 272.493C90.745 272.241 90.6949 271.917 90.7877 271.62L99.7929 243.246C100.396 241.331 102.161 240.042 104.178 240.042H148.877C150.361 240.042 151.716 240.724 152.587 241.922C153.464 243.116 153.706 244.611 153.262 246.023L144.949 272.212C144.819 272.615 144.441 272.891 144.017 272.891V272.894ZM93.0553 270.942H143.301L151.397 245.436C151.657 244.625 151.51 243.765 151.007 243.078C150.504 242.391 149.728 241.997 148.872 241.997H104.174C103.016 241.997 102.002 242.74 101.654 243.837L93.0515 270.942H93.0553Z" fill="#4D4C4D"/>
<path d="M103.785 377.875L102.674 383.064C102.343 384.329 103.068 385.623 104.309 385.967L125.217 391.74C126.352 392.055 127.183 390.637 126.364 389.783L115.117 381.009L103.785 377.878V377.875Z" fill="#0E2B5C"/>
<path d="M104.016 377.941L106.644 380.651C106.644 380.651 111.385 385.967 119.054 384.078L115.113 381.004L104.016 377.941Z" fill="white"/>
<path d="M264.445 252.662C264.567 252.583 264.682 252.499 264.804 252.414C264.804 252.407 264.843 252.465 264.839 252.473C264.743 252.579 264.632 252.674 264.532 252.776C264.503 252.738 264.478 252.7 264.448 252.662H264.445Z" fill="#0E2B5C"/>
<path d="M79.0939 214.579C79.0939 214.579 74.654 214.903 72.6172 211.136C72.6172 211.136 73.5014 216.196 79.282 216.946L79.0939 214.583V214.579Z" fill="#4D4C4D"/>
<path d="M90.2517 197.605C90.2517 197.605 95.298 202.607 94.1317 209.972C92.9704 217.336 92.2436 218.464 97.3927 221.401C102.543 224.339 103.535 229.099 102.686 231.937C101.836 234.77 102.634 235.885 94.5481 234.63C94.5481 234.63 91.388 230.728 90.0886 228.977C88.7879 227.225 86.1005 223.96 78.8136 220.938L79.2138 215.026C79.2138 215.026 84.9995 215.982 87.3293 211.225L90.2559 197.61L90.2517 197.605Z" fill="#4D4C4D"/>
<path d="M69.1982 211.718C68.3227 211.718 67.5288 211.593 66.8089 211.372L66.2031 218.999C66.2031 218.999 66.5806 222.097 73.5778 222.571C73.5778 222.571 77.0369 222.953 80.9525 220.649L79.5641 220.494L79.0913 214.586" fill="white"/>
<path d="M69.3672 199.532C69.3672 199.532 65.8862 198.648 65.4831 201.907C65.0785 205.168 68.4792 205.928 68.4792 205.928L67.3821 211.546C67.2131 212.411 67.6526 213.276 68.4411 213.67C71.491 215.194 74.5384 215.746 77.5834 214.735C77.9717 214.793 78.8924 214.894 79.2082 215.03C79.2082 215.03 86.7276 216.223 88.0044 209.053L88.0057 209.044C89.2826 201.875 90.5952 196.009 90.5952 196.009C90.5952 196.009 74.7868 189.074 69.3672 199.532Z" fill="white"/>
<path d="M69.3741 199.532C69.3741 199.532 78.5836 206.239 85.2082 195.94C85.2082 195.94 86.5858 200.503 89.8207 200.987C89.8207 200.987 91.087 193.829 91.092 193.795C91.7334 190.16 88.3166 187.632 85.4457 186.387C81.7859 184.803 76.5975 184.264 73.025 186.368C69.8568 188.234 68.0298 191.835 66.9594 195.216C66.9594 195.216 60.2733 194.261 58.0647 201.225L56.7522 207.09C56.7522 207.09 42.2017 203.407 39.0866 212.244C37.1277 217.835 38.714 226.577 42.5009 226.091L45.865 226.271C47.1631 224.097 49.1142 221.441 51.4878 220.553C53.8845 219.655 55.8763 218.592 58.0907 218.862L65.7043 218.93L68.4749 205.926C68.4749 205.926 65.4053 205.132 65.4786 201.907C65.4786 201.907 66.1693 198.819 69.3616 199.53L69.3741 199.532Z" fill="#4D4C4D"/>
<path d="M467.971 392.251C464.801 392.251 462.219 389.671 462.219 386.504C462.219 383.337 464.801 380.757 467.971 380.757C471.14 380.757 473.722 383.337 473.722 386.504C473.722 389.671 471.14 392.251 467.971 392.251ZM467.971 382.709C465.875 382.709 464.173 384.409 464.173 386.504C464.173 388.598 465.875 390.299 467.971 390.299C470.068 390.299 471.77 388.598 471.77 386.504C471.77 384.409 470.068 382.709 467.971 382.709Z" fill="#4D4C4D"/>
<path d="M505.499 382.709H467.398C466.857 382.709 466.422 382.273 466.422 381.733C466.422 381.192 466.857 380.757 467.398 380.757H505.499C506.04 380.757 506.476 381.192 506.476 381.733C506.476 382.273 506.04 382.709 505.499 382.709Z" fill="#4D4C4D"/>
<path d="M485.915 382.009C485.374 382.009 484.938 381.574 484.938 381.033V301.046C484.938 300.506 485.374 300.069 485.915 300.069C486.455 300.069 486.892 300.506 486.892 301.046V381.033C486.892 381.574 486.455 382.009 485.915 382.009Z" fill="#4D4C4D"/>
<path d="M505.361 392.251C502.192 392.251 499.609 389.671 499.609 386.504C499.609 383.337 502.192 380.757 505.361 380.757C508.531 380.757 511.113 383.337 511.113 386.504C511.113 389.671 508.531 392.251 505.361 392.251ZM505.361 382.709C503.264 382.709 501.562 384.409 501.562 386.504C501.562 388.598 503.264 390.299 505.361 390.299C507.457 390.299 509.159 388.598 509.159 386.504C509.159 384.409 507.457 382.709 505.361 382.709Z" fill="#4D4C4D"/>
<path d="M406.956 226.78C406.914 226.78 406.872 226.776 406.83 226.76L404.138 225.654C404.101 225.637 404.062 225.616 404.037 225.586L401.631 223.278C401.502 223.153 401.497 222.947 401.623 222.818C401.749 222.687 401.955 222.684 402.084 222.809L404.444 225.075L407.077 226.157C407.241 226.227 407.32 226.416 407.257 226.583C407.203 226.708 407.082 226.785 406.956 226.785V226.78Z" fill="white"/>
<path d="M406.611 227.945C406.569 227.945 406.527 227.936 406.485 227.924L404.527 227.12C404.497 227.107 404.469 227.09 404.447 227.073L403.332 226.173C403.194 226.06 403.169 225.854 403.282 225.716C403.404 225.578 403.606 225.557 403.739 225.666L404.817 226.538L406.729 227.324C406.892 227.396 406.972 227.584 406.909 227.752C406.854 227.877 406.732 227.953 406.607 227.953L406.611 227.945Z" fill="white"/>
<path d="M442.743 271.076H390.188L381.836 244.762C381.094 242.416 382.842 240.027 385.308 240.027H430.229C431.814 240.027 433.219 241.053 433.7 242.564L442.748 271.076H442.743Z" fill="white"/>
<path d="M442.736 272.051H390.175C389.747 272.051 389.373 271.775 389.244 271.373L380.892 245.056C380.443 243.635 380.687 242.136 381.567 240.938C382.447 239.736 383.807 239.048 385.296 239.048H430.216C432.237 239.048 434.006 240.343 434.615 242.265L443.665 270.778C443.757 271.076 443.706 271.398 443.522 271.649C443.338 271.901 443.045 272.051 442.736 272.051ZM390.892 270.1H441.396L432.752 242.856C432.4 241.746 431.381 241.001 430.22 241.001H385.298C384.439 241.001 383.655 241.399 383.147 242.09C382.641 242.781 382.498 243.644 382.757 244.46L390.892 270.095V270.1Z" fill="#4D4C4D"/>
<path d="M436.25 268.19H394.518C393.952 268.19 393.446 267.825 393.269 267.284L385.794 244.628C385.513 243.778 386.146 242.903 387.043 242.903H428.775C429.341 242.903 429.848 243.266 430.025 243.807L437.5 266.464C437.781 267.314 437.147 268.19 436.25 268.19Z" fill="#4D4C4D"/>
<path d="M458.752 271.077H390.231L389.078 267.608H455.276C457.195 267.608 458.747 269.163 458.747 271.077H458.752Z" fill="white"/>
<path d="M458.756 272.053H390.236C389.817 272.053 389.439 271.784 389.31 271.387L388.152 267.918C388.052 267.621 388.102 267.291 388.287 267.039C388.471 266.784 388.764 266.636 389.079 266.636H455.277C457.733 266.636 459.73 268.63 459.73 271.086C459.73 271.625 459.293 272.062 458.753 272.062L458.756 272.053ZM390.944 270.101H457.579C457.197 269.208 456.312 268.584 455.281 268.584H390.438L390.944 270.101Z" fill="#4D4C4D"/>
<path d="M463.285 385.816L462.323 380.342H452.953V382.683V385.816L456.598 387.915H459.821L463.285 385.816Z" fill="white"/>
<path d="M463.293 385.816L464.165 390.131L437.031 390.098V389.741C437.031 388.808 437.627 387.975 438.511 387.669L452.967 382.688L455.172 385.268C455.172 385.268 458.585 387.743 463.297 385.816H463.293Z" fill="#0E2B5C"/>
<path d="M437.031 390.093V391.689L464.516 391.66L464.163 390.131L437.031 390.093Z" fill="#0E2B5C"/>
<path d="M438.52 385.816L437.558 380.342H428.188V382.683V385.816L431.827 387.915H435.056L438.52 385.816Z" fill="white"/>
<path d="M438.512 385.816L439.383 390.131L412.25 390.098V389.741C412.25 388.808 412.846 387.975 413.73 387.669L428.186 382.688L430.391 385.268C430.391 385.268 433.803 387.743 438.516 385.816H438.512Z" fill="#0E2B5C"/>
<path d="M412.25 390.093V391.689L439.735 391.66L439.382 390.131L412.25 390.093Z" fill="#0E2B5C"/>
<path d="M506.223 279.755H354.366C351.7 279.755 349.531 277.589 349.531 274.925C349.531 272.261 351.7 270.095 354.366 270.095H506.223C508.889 270.095 511.055 272.261 511.055 274.925C511.055 277.589 508.889 279.755 506.223 279.755ZM354.366 272.051C352.781 272.051 351.489 273.342 351.489 274.925C351.489 276.507 352.781 277.798 354.366 277.798H506.223C507.808 277.798 509.098 276.507 509.098 274.925C509.098 273.342 507.808 272.051 506.223 272.051H354.366Z" fill="#4D4C4D"/>
<path d="M438.62 250.853L451.004 224.128C452.409 221.092 454.593 218.482 457.331 216.556C460.173 214.554 463.51 213.367 466.982 213.125L466.977 213.12L493.197 211.282C494.267 211.206 495.342 211.211 496.41 211.294L498.19 211.433C501.896 211.718 505.438 212.836 508.574 214.645C512.792 217.079 516.024 220.911 518.108 225.31L524.828 239.472L490.148 277.669H460.701V255.984L453.335 265.605C450.833 268.877 446.955 270.807 442.833 270.837C442.056 270.843 441.287 270.78 440.533 270.654C435.371 269.789 432.546 264.106 434.727 259.346L438.62 250.853Z" fill="#0E2B5C"/>
<path d="M460.705 256.956C460.163 256.956 459.727 256.521 459.727 255.98V244.462C459.727 243.921 460.163 243.486 460.705 243.486C461.245 243.486 461.681 243.921 461.681 244.462V255.98C461.681 256.521 461.245 256.956 460.705 256.956Z" fill="#0E2B5C"/>
<path d="M424.852 306.78H518.065L519.148 301.382H424.852V306.78Z" fill="white"/>
<path d="M518.073 307.756H424.859C424.317 307.756 423.883 307.321 423.883 306.78V301.381C423.883 300.84 424.317 300.405 424.859 300.405H519.155C519.448 300.405 519.724 300.534 519.912 300.761C520.096 300.987 520.168 301.284 520.114 301.573L519.032 306.972C518.94 307.429 518.539 307.76 518.073 307.76V307.756ZM425.836 305.804H517.268L517.959 302.357H425.836V305.804Z" fill="#4D4C4D"/>
<path d="M460.712 277.664V281.167L428.371 286.896C423.098 287.831 418.507 291.048 415.828 295.679C413.702 299.362 412.936 303.672 413.67 307.86L426.46 381.025H440.283L437.679 306.78L438.681 301.377H470.929L477.196 277.664H460.712Z" fill="#0E2B5C"/>
<path d="M413.812 308.711L414.412 312.134V298.826C414.161 299.555 413.972 300.3 413.812 301.054V308.711Z" fill="#0E2B5C"/>
<path d="M426.373 287.369C426.169 287.428 425.975 287.517 425.773 287.58V377.134L426.373 380.556V287.369Z" fill="#0E2B5C"/>
<path d="M419.797 342.925L420.396 346.348V290.473C420.194 290.629 419.99 290.779 419.797 290.942V342.925Z" fill="#0E2B5C"/>
<path d="M431.766 381.024H432.365V286.189L431.766 286.297V381.024Z" fill="#0E2B5C"/>
<path d="M438.342 381.024V325.743L437.742 308.689V381.024H438.342Z" fill="#0E2B5C"/>
<path d="M438.342 303.196V285.129L437.742 285.237V306.42L438.342 303.196Z" fill="#0E2B5C"/>
<path d="M450.303 283.01L449.703 283.119V301.376H450.303V283.01Z" fill="#0E2B5C"/>
<path d="M462.264 277.664H461.664V301.376H462.264V277.664Z" fill="#0E2B5C"/>
<path d="M473.633 291.132L474.232 288.869V277.664H473.633V291.132Z" fill="#0E2B5C"/>
<path d="M444.318 284.069L443.719 284.18V301.377H444.318V284.069Z" fill="#0E2B5C"/>
<path d="M456.285 281.95L455.688 282.055V301.377H456.285V281.95Z" fill="#0E2B5C"/>
<path d="M468.24 277.664H467.641V301.376H468.24V277.664Z" fill="#0E2B5C"/>
<path d="M438.593 332.813L449.901 381.024H464.52L456.306 306.78H437.68L438.593 332.813Z" fill="#0E2B5C"/>
<path d="M354.883 391.869C354.832 391.869 354.782 391.871 354.728 391.858C354.192 391.774 353.835 391.271 353.918 390.739L372.004 279.185C372.088 278.649 372.561 278.274 373.123 278.378C373.659 278.462 374.017 278.965 373.933 279.496L355.847 391.049C355.772 391.531 355.353 391.869 354.883 391.869Z" fill="#4D4C4D"/>
<path d="M460.711 301.381L477.534 237.743H535.82L519.193 301.381H460.711Z" fill="white"/>
<path d="M519.189 302.357H460.705C460.403 302.357 460.114 302.219 459.929 301.975C459.741 301.737 459.683 301.427 459.759 301.134L476.582 237.494C476.697 237.068 477.085 236.767 477.526 236.767H535.812C536.113 236.767 536.4 236.904 536.589 237.143C536.773 237.385 536.834 237.696 536.759 237.988L520.133 301.629C520.024 302.056 519.633 302.357 519.189 302.357ZM461.976 300.405H518.435L534.552 238.718H478.286L461.976 300.405Z" fill="#4D4C4D"/>
<path d="M269.376 252.524C269.241 252.604 269.107 252.683 268.973 252.758C268.952 252.729 268.935 252.695 268.914 252.667L269.3 252.415C269.325 252.452 269.351 252.486 269.376 252.524Z" fill="#0E2B5C"/>
<path d="M411.509 233.532L410.425 231.932L407.355 228.698L405.199 228.464C404.926 228.434 404.673 228.321 404.467 228.142L402.128 226.076C401.86 225.917 401.812 225.578 401.967 225.394C402.097 225.238 402.366 225.197 402.581 225.338C402.844 225.498 403.102 225.657 403.367 225.82L401.54 223.555C401.451 223.446 401.448 223.295 401.523 223.181C401.595 223.077 401.725 223.023 401.851 223.048C401.607 222.725 401.36 222.402 401.113 222.08C401.012 221.899 401.046 221.674 401.189 221.536C401.323 221.41 401.528 221.38 401.695 221.464C402.719 222.281 403.741 223.093 404.764 223.911L406.484 224.275L404.576 223.014L402.089 220.794C402.006 220.694 401.981 220.555 402.026 220.442C402.085 220.295 402.253 220.207 402.425 220.245C404.714 221.297 406.998 222.352 409.287 223.403L411.59 224.59L411.803 224.237L411.077 222.746C410.838 222.261 410.726 221.72 410.747 221.179C410.772 220.539 411.284 220.019 411.925 219.99L412.481 222.151C412.481 222.151 413.684 224.501 413.731 224.585C413.777 224.669 415.577 228.301 415.577 228.301L417.182 230.616L411.514 233.536L411.509 233.532Z" fill="white"/>
<path d="M411.509 233.532L410.425 231.932L407.355 228.698L405.199 228.464C404.926 228.434 404.673 228.321 404.467 228.142L402.128 226.076C401.86 225.917 401.812 225.578 401.967 225.394C402.097 225.238 402.366 225.197 402.581 225.338C402.844 225.498 403.102 225.657 403.367 225.82L401.54 223.555C401.451 223.446 401.448 223.295 401.523 223.181C401.595 223.077 401.725 223.023 401.851 223.048C401.607 222.725 401.36 222.402 401.113 222.08C401.012 221.899 401.046 221.674 401.189 221.536C401.323 221.41 401.528 221.38 401.695 221.464C402.719 222.281 403.741 223.093 404.764 223.911L406.484 224.275L404.576 223.014L402.089 220.794C402.006 220.694 401.981 220.555 402.026 220.442C402.085 220.295 402.253 220.207 402.425 220.245C404.714 221.297 406.998 222.352 409.287 223.403L411.59 224.59L411.803 224.237L411.077 222.746C410.838 222.261 410.726 221.72 410.747 221.179C410.772 220.539 411.284 220.019 411.925 219.99L412.481 222.151C412.481 222.151 413.684 224.501 413.731 224.585C413.777 224.669 415.577 228.301 415.577 228.301L417.182 230.616L411.514 233.536L411.509 233.532Z" stroke="#6D6E6E" stroke-miterlimit="10"/>
<path d="M416.829 227.047L449.147 261.248C451.296 263.522 451.284 267.193 448.94 269.265C446.636 271.304 442.88 272.452 437.086 268.834C425.551 261.635 407.914 232.948 407.914 232.948L416.829 227.047Z" fill="#0E2B5C"/>
<path d="M475.211 207.428L475.995 212.757L489.938 212.145L488.349 202.98" fill="white"/>
<path d="M475.211 207.428L475.995 212.757L489.938 212.145L488.349 202.98" stroke="#4D4E4E" stroke-miterlimit="10" stroke-linecap="round"/>
<path d="M488.415 202.516L485.856 185.549L468.609 187.883L468.605 187.879L468.055 204.212C468.055 204.212 468.261 208.463 475.626 207.888" fill="white"/>
<path d="M488.415 202.516L485.856 185.549L468.609 187.883L468.605 187.879L468.055 204.212C468.055 204.212 468.261 208.463 475.626 207.888" stroke="#4D4E4E" stroke-miterlimit="10" stroke-linecap="round"/>
<path d="M477.934 194.931C477.934 194.931 481.495 193.301 482.278 196.553C483.061 199.807 479.402 200.068 477.754 200.185C477.754 200.185 475.86 205.1 480.587 205.955C485.309 206.81 489.109 205.347 489.109 205.347C489.109 205.347 492.956 187.733 492.962 187.708C493.415 185.626 491.581 182.843 490.206 181.538C486.749 178.261 480.857 177.627 476.293 177.986C472.348 178.293 468.884 179.938 467.407 183.81C466.309 186.689 468.195 189.725 471.257 190.06C472.295 190.176 473.544 190.18 475.044 190.001C476.219 189.864 477.419 190.417 477.985 191.455C478.444 192.3 478.658 193.463 477.943 194.93L477.934 194.931Z" fill="#59595C"/>
<path d="M439.333 142.473L384.197 154.787C383.781 154.88 383.52 155.292 383.612 155.707L390.797 187.817C390.889 188.233 391.301 188.493 391.716 188.401L446.852 176.088C447.268 175.995 447.529 175.583 447.436 175.168L440.252 143.057C440.159 142.642 439.749 142.38 439.333 142.473Z" fill="#0E2B5C"/>
<path d="M399.548 168.031L406.783 161.941L407.19 163.759C407.22 163.897 407.211 164.031 407.168 164.161C407.127 164.287 407.03 164.416 406.896 164.529L403.575 167.286C403.437 167.403 403.283 167.516 403.119 167.608C402.956 167.709 402.784 167.805 402.591 167.893C402.998 167.902 403.379 167.943 403.739 168.031L407.92 169.121C408.095 169.166 408.229 169.234 408.326 169.338C408.419 169.438 408.482 169.556 408.515 169.694L408.915 171.513L399.769 169.066L399.539 168.036L399.548 168.031Z" fill="white"/>
<path d="M414.674 172.526C414.628 172.874 414.494 173.15 414.272 173.364C414.05 173.577 413.803 173.72 413.538 173.778L412.453 174.021L415.036 157.254C415.081 156.944 415.202 156.681 415.395 156.479C415.589 156.274 415.836 156.135 416.138 156.069L417.232 155.825L414.679 172.53L414.674 172.526Z" fill="white"/>
<path d="M430.251 162.259L423.01 168.362L422.607 166.545C422.573 166.406 422.582 166.273 422.623 166.142C422.67 166.008 422.758 165.886 422.901 165.774L426.22 163.009C426.489 162.791 426.812 162.587 427.197 162.397C426.992 162.397 426.791 162.381 426.603 162.365C426.41 162.347 426.225 162.314 426.054 162.263L421.873 161.183C421.693 161.137 421.565 161.062 421.472 160.965C421.375 160.868 421.311 160.747 421.283 160.614L420.875 158.795L430.019 161.23L430.251 162.259Z" fill="white"/>
<path d="M494.679 151.564C498.608 147.358 505.014 146.5 508.548 146.366C510.016 146.311 511.24 147.451 511.281 148.917C511.39 152.448 510.971 158.891 507.038 163.097C503.11 167.303 496.705 168.16 493.171 168.295C491.703 168.35 490.479 167.21 490.436 165.744C490.327 162.213 490.747 155.769 494.679 151.564Z" fill="#0E2B5C"/>
<path d="M491.266 168.562C491.026 168.562 490.788 168.474 490.599 168.302C490.205 167.933 490.184 167.314 490.552 166.92L509.724 146.404C510.094 146.014 510.71 145.985 511.109 146.357C511.503 146.726 511.523 147.346 511.154 147.74L491.982 168.256C491.789 168.462 491.526 168.566 491.266 168.566V168.562Z" fill="white"/>
<path d="M479.416 146.773L413.505 123.626C413.099 123.484 412.887 123.04 413.028 122.634L421.992 97.1534C422.135 96.747 422.579 96.5338 422.985 96.6768L488.893 119.823C489.3 119.966 489.515 120.41 489.373 120.816L480.409 146.296C480.266 146.702 479.822 146.915 479.416 146.773Z" fill="#0E2B5C"/>
<path d="M430.587 113.482L436.846 112.59L436.436 113.763C436.402 113.851 436.352 113.926 436.285 113.98C436.214 114.039 436.116 114.076 435.994 114.094L433.14 114.483C433.018 114.5 432.896 114.508 432.766 114.504C432.64 114.504 432.508 114.495 432.365 114.479C432.595 114.626 432.795 114.785 432.968 114.961L434.946 117.055C435.03 117.143 435.086 117.227 435.106 117.318C435.124 117.411 435.114 117.499 435.085 117.587L434.67 118.763L430.352 114.148L430.582 113.482H430.587Z" fill="white"/>
<path d="M443.252 117.288C443.18 117.33 443.112 117.364 443.057 117.385C442.998 117.406 442.923 117.397 442.835 117.364C442.747 117.335 442.68 117.28 442.613 117.201C442.554 117.12 442.475 117.029 442.386 116.928C442.298 116.823 442.185 116.719 442.051 116.614C441.913 116.51 441.733 116.422 441.506 116.338C441.217 116.237 440.946 116.2 440.694 116.229C440.438 116.254 440.208 116.341 439.989 116.488C439.776 116.635 439.587 116.832 439.414 117.083C439.251 117.339 439.101 117.641 438.98 117.992C438.849 118.357 438.774 118.692 438.753 119.002C438.733 119.311 438.76 119.587 438.84 119.836C438.916 120.083 439.046 120.292 439.218 120.464C439.39 120.636 439.608 120.769 439.873 120.862C440.132 120.953 440.358 121 440.542 120.987C440.722 120.983 440.891 120.958 441.029 120.921C441.168 120.878 441.29 120.844 441.39 120.806C441.503 120.774 441.603 120.774 441.705 120.806C441.839 120.853 441.922 120.941 441.947 121.066L442.212 121.834C441.952 121.984 441.693 122.093 441.428 122.16C441.168 122.231 440.904 122.269 440.64 122.273C440.384 122.278 440.122 122.253 439.866 122.206C439.607 122.16 439.363 122.093 439.12 122.005C438.698 121.859 438.334 121.64 438.011 121.347C437.693 121.062 437.448 120.715 437.271 120.317C437.1 119.915 437.013 119.467 437.001 118.973C436.992 118.479 437.083 117.951 437.284 117.392C437.461 116.891 437.695 116.447 437.993 116.073C438.286 115.697 438.63 115.4 439.02 115.181C439.41 114.963 439.848 114.846 440.325 114.809C440.8 114.775 441.305 114.855 441.846 115.043C442.357 115.223 442.776 115.466 443.1 115.763C443.426 116.061 443.692 116.417 443.889 116.832L443.247 117.28L443.252 117.288Z" fill="white"/>
<path d="M448.233 117.292C448.739 117.473 449.176 117.715 449.528 118.026C449.888 118.336 450.162 118.696 450.353 119.102C450.547 119.503 450.639 119.952 450.652 120.446C450.656 120.937 450.563 121.452 450.375 121.989C450.182 122.53 449.935 122.994 449.625 123.371C449.306 123.749 448.949 124.037 448.547 124.243C448.14 124.447 447.7 124.556 447.227 124.574C446.756 124.594 446.266 124.514 445.754 124.338C445.248 124.158 444.807 123.912 444.451 123.602C444.09 123.292 443.818 122.927 443.633 122.521C443.44 122.106 443.344 121.654 443.336 121.168C443.331 120.673 443.419 120.153 443.608 119.612C443.796 119.077 444.052 118.615 444.367 118.239C444.682 117.858 445.033 117.573 445.444 117.372C445.847 117.17 446.284 117.066 446.761 117.049C447.234 117.029 447.733 117.113 448.241 117.292H448.233ZM446.199 123.073C446.774 123.273 447.259 123.23 447.667 122.944C448.073 122.659 448.408 122.148 448.669 121.411C448.924 120.673 448.991 120.061 448.848 119.58C448.71 119.098 448.358 118.755 447.784 118.553C447.209 118.348 446.71 118.393 446.3 118.687C445.881 118.977 445.545 119.487 445.285 120.224C445.026 120.962 444.97 121.566 445.117 122.048C445.256 122.53 445.616 122.872 446.194 123.073H446.199Z" fill="white"/>
<path d="M455.359 127.601C455.14 127.522 455.035 127.375 455.047 127.157L455.14 126.449C454.943 126.562 454.738 126.65 454.541 126.725C454.34 126.797 454.134 126.853 453.916 126.882C453.707 126.911 453.485 126.915 453.261 126.893C453.039 126.872 452.805 126.822 452.567 126.734C452.193 126.603 451.874 126.403 451.622 126.139C451.368 125.875 451.178 125.557 451.057 125.18C450.94 124.802 450.894 124.38 450.922 123.898C450.956 123.42 451.069 122.901 451.266 122.344C451.447 121.837 451.677 121.388 451.971 121.003C452.261 120.615 452.595 120.309 452.964 120.082C453.338 119.852 453.732 119.71 454.154 119.656C454.578 119.606 455.015 119.656 455.463 119.816C455.845 119.95 456.151 120.124 456.381 120.342C456.611 120.559 456.792 120.807 456.935 121.087L458.209 117.474L459.856 118.051L456.368 127.957L455.362 127.606L455.359 127.601ZM453.585 125.624C453.929 125.746 454.244 125.774 454.537 125.721C454.825 125.662 455.124 125.54 455.43 125.352L456.507 122.286C456.398 121.993 456.251 121.763 456.062 121.592C455.874 121.424 455.652 121.293 455.4 121.205C455.153 121.116 454.91 121.084 454.679 121.104C454.444 121.125 454.226 121.21 454.013 121.348C453.807 121.486 453.614 121.688 453.438 121.952C453.258 122.22 453.098 122.55 452.964 122.944C452.821 123.345 452.733 123.692 452.701 123.995C452.667 124.292 452.68 124.555 452.738 124.77C452.796 124.987 452.902 125.164 453.045 125.305C453.191 125.443 453.367 125.552 453.581 125.628L453.585 125.624Z" fill="white"/>
<path d="M463.35 122.604C463.778 122.754 464.155 122.969 464.47 123.232C464.789 123.496 465.032 123.807 465.2 124.167C465.367 124.523 465.46 124.92 465.476 125.352C465.489 125.792 465.405 126.256 465.233 126.747C465.149 126.994 465.065 127.157 464.981 127.221C464.893 127.291 464.775 127.296 464.628 127.246L460.389 125.758C460.289 126.118 460.252 126.446 460.257 126.73C460.261 127.024 460.32 127.278 460.42 127.5C460.521 127.722 460.666 127.915 460.856 128.075C461.047 128.234 461.276 128.359 461.544 128.451C461.813 128.548 462.051 128.594 462.265 128.603C462.482 128.603 462.672 128.603 462.847 128.573C463.015 128.548 463.17 128.522 463.299 128.497C463.429 128.476 463.543 128.476 463.649 128.514C463.787 128.565 463.869 128.653 463.903 128.775L464.168 129.545C463.908 129.691 463.64 129.8 463.363 129.867C463.091 129.93 462.81 129.964 462.534 129.964C462.256 129.964 461.983 129.935 461.715 129.885C461.446 129.826 461.192 129.758 460.952 129.675C460.479 129.511 460.064 129.272 459.708 128.97C459.356 128.669 459.078 128.313 458.89 127.894C458.693 127.48 458.592 127.015 458.579 126.499C458.567 125.984 458.667 125.423 458.876 124.829C459.039 124.359 459.27 123.948 459.567 123.588C459.861 123.232 460.21 122.951 460.595 122.747C460.985 122.541 461.412 122.423 461.881 122.386C462.356 122.353 462.842 122.423 463.358 122.604H463.35ZM462.969 123.798C462.487 123.63 462.062 123.63 461.693 123.807C461.328 123.986 461.02 124.305 460.773 124.777L463.879 125.867C463.955 125.649 463.992 125.44 464.001 125.23C464.009 125.021 463.979 124.824 463.903 124.639C463.832 124.455 463.724 124.292 463.568 124.142C463.414 123.995 463.207 123.882 462.964 123.794L462.969 123.798Z" fill="white"/>
<path d="M472.498 128.945L466.234 129.85L466.648 128.678C466.678 128.59 466.729 128.513 466.8 128.455C466.87 128.397 466.968 128.355 467.086 128.343L469.949 127.949C470.18 127.915 470.435 127.915 470.719 127.949C470.607 127.874 470.494 127.799 470.393 127.718C470.293 127.643 470.2 127.555 470.121 127.467L468.133 125.377C468.05 125.288 468 125.196 467.983 125.108C467.961 125.021 467.97 124.928 468.004 124.84L468.414 123.667L472.736 128.276L472.507 128.942L472.498 128.945Z" fill="white"/>
<path d="M403.798 0.132736C403.093 0.09565 402.49 0.636794 402.453 1.34473C402.416 2.04769 402.957 2.65126 403.666 2.6878C404.37 2.72489 404.973 2.18388 405.011 1.47581C405.048 0.772853 404.505 0.169416 403.798 0.132736Z" fill="#0E2B5C"/>
<path d="M401.734 15.319C401.696 16.027 402.237 16.6256 402.945 16.6623C403.068 16.6704 403.179 16.6368 403.294 16.6118C403.52 15.8921 403.731 15.1993 403.939 14.5106C403.72 14.2821 403.42 14.1291 403.082 14.1104C402.377 14.0733 401.774 14.6157 401.737 15.3224L401.734 15.319Z" fill="#0E2B5C"/>
<path d="M405.6 8.5124C405.635 8.36983 405.672 8.222 405.707 8.07943C405.649 8.21184 405.603 8.35563 405.6 8.5124Z" fill="#0E2B5C"/>
<path d="M398.601 8.15138C398.564 8.85433 399.107 9.45777 399.815 9.49445C400.519 9.53153 401.122 8.99039 401.159 8.28245C401.196 7.5795 400.655 6.97592 399.946 6.93938C399.243 6.90216 398.639 7.4433 398.601 8.15138Z" fill="#0E2B5C"/>
<path d="M392.829 9.12858C393.533 9.16566 394.135 8.62465 394.172 7.91671C394.211 7.21363 393.668 6.61019 392.96 6.57351C392.812 6.56441 392.667 6.59646 392.532 6.63767L391.712 7.41677C391.669 7.53495 391.623 7.65478 391.617 7.78537C391.579 8.49345 392.121 9.0919 392.829 9.12858Z" fill="#0E2B5C"/>
<path d="M397.147 2.25377C397.497 2.13623 397.766 1.87112 397.911 1.52993L397.147 2.25377Z" fill="#0E2B5C"/>
<path d="M388.36 27.3554C387.656 27.3183 387.052 27.8595 387.016 28.5674C386.978 29.2703 387.521 29.8738 388.229 29.9105C388.933 29.9475 389.535 29.4065 389.573 28.6985C389.61 27.9955 389.068 27.3921 388.36 27.3554Z" fill="#0E2B5C"/>
<path d="M399.08 23.4686C399.784 23.5057 400.388 22.9645 400.425 22.2566C400.461 21.5486 399.919 20.9502 399.212 20.9135C398.507 20.8764 397.904 21.4176 397.867 22.1255C397.83 22.8285 398.372 23.4319 399.08 23.4686Z" fill="#0E2B5C"/>
<path d="M393.432 21.8918C393.47 21.1889 392.929 20.5853 392.219 20.5488C391.516 20.5115 390.913 21.0527 390.875 21.7608C390.838 22.4637 391.38 23.0671 392.088 23.1038C392.792 23.1409 393.396 22.5998 393.432 21.8918Z" fill="#0E2B5C"/>
<path d="M394.742 14.9541C394.705 15.6571 395.246 16.2606 395.955 16.2972C396.659 16.3343 397.262 15.7933 397.3 15.0852C397.336 14.3772 396.794 13.7751 396.087 13.7421C395.382 13.705 394.779 14.2462 394.742 14.9541Z" fill="#0E2B5C"/>
<path d="M388.955 15.9351C389.659 15.9722 390.263 15.4311 390.3 14.7231C390.336 14.0152 389.794 13.4167 389.087 13.3801C388.382 13.343 387.78 13.884 387.742 14.5921C387.705 15.295 388.247 15.8984 388.955 15.9351Z" fill="#0E2B5C"/>
<path d="M387.626 41.3295C386.921 41.2924 386.318 41.8336 386.281 42.5415C386.244 43.2445 386.785 43.848 387.493 43.8847C388.197 43.9218 388.801 43.3807 388.837 42.6727C388.876 41.9696 388.334 41.3662 387.626 41.3295Z" fill="#0E2B5C"/>
<path d="M391.485 34.5229C390.781 34.4858 390.177 35.0269 390.141 35.7349C390.104 36.4428 390.646 37.0413 391.354 37.0779C392.058 37.115 392.661 36.5739 392.698 35.8659C392.735 35.163 392.193 34.5596 391.485 34.5229Z" fill="#0E2B5C"/>
<path d="M395.22 30.2714C395.924 30.3085 396.527 29.7674 396.564 29.0594C396.603 28.3563 396.06 27.7529 395.352 27.7162C394.648 27.6791 394.044 28.2203 394.008 28.9282C393.971 29.6312 394.512 30.2348 395.22 30.2714Z" fill="#0E2B5C"/>
<path d="M385.564 56.517C385.555 56.7071 385.596 56.8932 385.66 57.0578C385.974 56.4813 386.263 55.9226 386.563 55.3551C386.016 55.4775 385.587 55.9291 385.559 56.5175L385.564 56.517Z" fill="#0E2B5C"/>
<path d="M389.411 49.7092C389.411 49.747 389.428 49.7843 389.427 49.8223C389.607 49.4621 389.799 49.0943 389.977 48.7382C389.658 48.9532 389.434 49.2942 389.411 49.7092Z" fill="#0E2B5C"/>
<path d="M381.368 26.9894C380.664 26.9523 380.061 27.4934 380.023 28.2014C379.986 28.9044 380.529 29.5078 381.236 29.5445C381.941 29.5816 382.544 29.0404 382.581 28.3325C382.618 27.6295 382.076 27.0261 381.368 26.9894Z" fill="#0E2B5C"/>
<path d="M383.875 21.3982C383.838 22.1012 384.379 22.7047 385.087 22.7414C385.791 22.7785 386.395 22.2373 386.431 21.5294C386.47 20.8263 385.927 20.2229 385.219 20.1862C384.515 20.1491 383.912 20.6903 383.875 21.3982Z" fill="#0E2B5C"/>
<path d="M378.103 22.3771C378.808 22.4142 379.41 21.8732 379.447 21.1652C379.478 20.5638 379.078 20.0597 378.525 19.8964L376.947 21.39C377.077 21.9284 377.527 22.3475 378.103 22.3771Z" fill="#0E2B5C"/>
<path d="M373.641 40.6027C372.937 40.5656 372.335 41.1066 372.297 41.8147C372.26 42.5177 372.802 43.1211 373.51 43.1578C374.214 43.1949 374.818 42.6537 374.854 41.9458C374.891 41.2378 374.35 40.6393 373.641 40.6027Z" fill="#0E2B5C"/>
<path d="M383.141 35.3689C383.103 36.0769 383.644 36.6755 384.352 36.7122C385.056 36.7493 385.659 36.2081 385.696 35.5002C385.734 34.7971 385.192 34.1937 384.484 34.157C383.78 34.1199 383.178 34.6609 383.141 35.3689Z" fill="#0E2B5C"/>
<path d="M378.722 35.1394C378.758 34.4314 378.216 33.833 377.508 33.7963C376.804 33.7592 376.201 34.3004 376.164 35.0083C376.127 35.7162 376.668 36.3148 377.377 36.3514C378.08 36.3886 378.684 35.8475 378.722 35.1394Z" fill="#0E2B5C"/>
<path d="M370.508 33.435C369.804 33.3979 369.201 33.939 369.164 34.647C369.127 35.3499 369.669 35.9534 370.377 35.9901C371.081 36.0271 371.685 35.486 371.722 34.7781C371.758 34.0701 371.216 33.4679 370.508 33.435Z" fill="#0E2B5C"/>
<path d="M372.907 54.5766C372.203 54.5395 371.599 55.0806 371.562 55.7886C371.526 56.4965 372.068 57.095 372.776 57.1317C373.48 57.1687 374.082 56.6277 374.12 55.9197C374.157 55.2117 373.615 54.6133 372.907 54.5766Z" fill="#0E2B5C"/>
<path d="M382.422 49.3486C382.385 50.0516 382.927 50.655 383.635 50.6917C384.339 50.7288 384.943 50.1877 384.979 49.4797C385.017 48.7768 384.475 48.1732 383.766 48.1366C383.062 48.0996 382.46 48.6406 382.422 49.3486Z" fill="#0E2B5C"/>
<path d="M377.986 49.1136C378.025 48.4105 377.482 47.8071 376.774 47.7704C376.07 47.7333 375.467 48.2745 375.43 48.9824C375.392 49.6905 375.934 50.2889 376.642 50.3256C377.346 50.3627 377.95 49.8215 377.986 49.1136Z" fill="#0E2B5C"/>
<path d="M380.502 43.5186C381.206 43.5557 381.809 43.0147 381.847 42.3066C381.884 41.6037 381.341 41.0002 380.633 40.9636C379.929 40.9265 379.326 41.4676 379.289 42.1755C379.252 42.8785 379.794 43.4819 380.502 43.5186Z" fill="#0E2B5C"/>
<path d="M372.189 68.5508C371.485 68.5137 370.88 69.055 370.844 69.763C370.806 70.4659 371.349 71.0693 372.058 71.1059C372.232 71.116 372.396 71.0855 372.551 71.0309L372.572 71.0286C373.033 70.8524 373.379 70.4188 373.406 69.8935C373.443 69.1855 372.899 68.5835 372.192 68.5505L372.189 68.5508Z" fill="#0E2B5C"/>
<path d="M381.691 63.3224C381.676 63.5436 381.737 63.7476 381.829 63.9358C382.173 63.3332 382.513 62.7361 382.848 62.1396C382.226 62.1983 381.723 62.6831 381.691 63.3224Z" fill="#0E2B5C"/>
<path d="M377.261 63.093C377.298 62.39 376.757 61.7865 376.047 61.7499C375.343 61.7128 374.741 62.2538 374.703 62.9619C374.666 63.6649 375.208 64.2683 375.916 64.305C376.62 64.3421 377.224 63.8009 377.261 63.093Z" fill="#0E2B5C"/>
<path d="M379.768 57.4979C380.471 57.5351 381.074 56.9939 381.111 56.286C381.149 55.5829 380.607 54.9795 379.899 54.9428C379.195 54.9057 378.591 55.4469 378.555 56.1548C378.517 56.8577 379.059 57.4613 379.768 57.4979Z" fill="#0E2B5C"/>
<path d="M371.528 82.5488C371.503 82.5478 371.479 82.5328 371.453 82.5317C370.749 82.4946 370.145 83.0358 370.109 83.7437C370.088 84.1333 370.251 84.4776 370.515 84.7278C371.057 83.6194 371.39 82.8716 371.529 82.5526L371.528 82.5488Z" fill="#0E2B5C"/>
<path d="M366.642 40.2413C365.937 40.2043 365.334 40.7454 365.297 41.4533C365.259 42.1564 365.801 42.7599 366.509 42.7965C367.213 42.8336 367.815 42.2926 367.852 41.5847C367.891 40.8816 367.35 40.278 366.642 40.2413Z" fill="#0E2B5C"/>
<path d="M364.732 34.4115C364.745 34.149 364.654 33.9102 364.531 33.7004C363.881 34.1961 363.228 34.7173 362.574 35.2564C362.787 35.4616 363.067 35.6078 363.386 35.6237C364.09 35.6607 364.695 35.1195 364.732 34.4115Z" fill="#0E2B5C"/>
<path d="M368.437 48.6216C368.4 49.3245 368.941 49.9281 369.651 49.9647C370.355 50.0017 370.957 49.4607 370.995 48.7527C371.032 48.0497 370.49 47.4463 369.782 47.4096C369.078 47.3725 368.474 47.9136 368.437 48.6216Z" fill="#0E2B5C"/>
<path d="M364.003 48.3865C364.04 47.6835 363.498 47.0801 362.79 47.0434C362.085 47.0063 361.482 47.5474 361.445 48.2554C361.408 48.9583 361.95 49.5618 362.658 49.5985C363.363 49.6355 363.966 49.0944 364.003 48.3865Z" fill="#0E2B5C"/>
<path d="M355.79 46.6821C355.087 46.6448 354.483 47.186 354.445 47.8941C354.408 48.597 354.95 49.2004 355.658 49.2371C356.363 49.2742 356.966 48.7331 357.003 48.0251C357.04 47.3222 356.499 46.7186 355.79 46.6821Z" fill="#0E2B5C"/>
<path d="M359.518 42.4302C360.222 42.4673 360.824 41.9263 360.862 41.2182C360.899 40.5153 360.357 39.9118 359.649 39.8752C358.945 39.8381 358.341 40.3792 358.305 41.0872C358.268 41.7914 358.809 42.3937 359.518 42.4302Z" fill="#0E2B5C"/>
<path d="M358.195 67.8255C357.492 67.7882 356.888 68.3294 356.852 69.0373C356.813 69.7404 357.356 70.3439 358.064 70.3805C358.772 70.4172 359.371 69.8765 359.408 69.1685C359.445 68.4606 358.904 67.862 358.195 67.8255Z" fill="#0E2B5C"/>
<path d="M367.703 62.592C367.665 63.2951 368.206 63.8987 368.914 63.9354C369.618 63.9724 370.222 63.4313 370.258 62.7234C370.297 62.0203 369.755 61.4168 369.047 61.3801C368.342 61.3431 367.74 61.8841 367.703 62.592Z" fill="#0E2B5C"/>
<path d="M361.924 63.5743C362.628 63.6114 363.23 63.0704 363.268 62.3623C363.306 61.6593 362.763 61.0559 362.055 61.0192C361.351 60.9821 360.748 61.5233 360.711 62.2312C360.674 62.9342 361.216 63.5376 361.924 63.5743Z" fill="#0E2B5C"/>
<path d="M365.791 56.7669C366.495 56.804 367.099 56.2629 367.136 55.5549C367.173 54.852 366.632 54.2484 365.922 54.2118C365.218 54.1748 364.616 54.7158 364.578 55.4238C364.541 56.1318 365.083 56.7302 365.791 56.7669Z" fill="#0E2B5C"/>
<path d="M357.586 55.0612C357.548 55.7693 358.089 56.3679 358.797 56.4046C359.501 56.4417 360.105 55.9005 360.141 55.1926C360.18 54.4895 359.637 53.8861 358.929 53.8494C358.225 53.8123 357.623 54.3533 357.586 55.0612Z" fill="#0E2B5C"/>
<path d="M357.462 81.7997C356.757 81.7626 356.155 82.3037 356.117 83.0117C356.08 83.7147 356.622 84.3181 357.33 84.3548C358.034 84.3919 358.638 83.8507 358.675 83.1428C358.711 82.4349 358.169 81.8364 357.462 81.7997Z" fill="#0E2B5C"/>
<path d="M360.076 75.8275L361.849 75.148C361.688 75.0634 361.517 75.0061 361.322 74.9983C360.754 74.9667 360.266 75.3224 360.076 75.8275Z" fill="#0E2B5C"/>
<path d="M354.329 74.632C353.625 74.5949 353.021 75.1361 352.984 75.844C352.947 76.547 353.488 77.1505 354.197 77.1871C354.905 77.2238 355.504 76.6831 355.542 75.9751C355.579 75.2721 355.037 74.6687 354.329 74.632Z" fill="#0E2B5C"/>
<path d="M365.057 70.7457C365.761 70.7828 366.365 70.2416 366.401 69.5337C366.438 68.8257 365.896 68.2273 365.188 68.1906C364.484 68.1535 363.88 68.6947 363.844 69.4026C363.807 70.1068 364.349 70.709 365.057 70.7457Z" fill="#0E2B5C"/>
<path d="M364.005 96.2108C363.914 96.1828 363.824 96.1459 363.726 96.1401C363.022 96.103 362.419 96.6454 362.382 97.3534C362.364 97.6884 362.486 97.9981 362.685 98.2376C363.146 97.5467 363.584 96.8772 364.006 96.2157L364.005 96.2108Z" fill="#0E2B5C"/>
<path d="M367.585 89.3336C366.881 89.2965 366.278 89.8376 366.241 90.5456C366.218 90.9984 366.445 91.3951 366.792 91.64C367.237 90.8752 367.657 90.1433 368.037 89.4535C367.896 89.392 367.746 89.3452 367.581 89.3378L367.585 89.3336Z" fill="#0E2B5C"/>
<path d="M360.587 88.9682C359.884 88.931 359.28 89.4721 359.242 90.1802C359.205 90.8881 359.747 91.4866 360.455 91.5233C361.159 91.5603 361.763 91.0192 361.8 90.3113C361.837 89.6083 361.296 89.0047 360.587 88.9682Z" fill="#0E2B5C"/>
<path d="M354.806 89.9498C354.845 89.2467 354.302 88.6433 353.594 88.6066C352.89 88.5695 352.287 89.1107 352.25 89.8186C352.213 90.5266 352.754 91.1251 353.463 91.1617C354.166 91.1989 354.77 90.6578 354.806 89.9498Z" fill="#0E2B5C"/>
<path d="M364.322 84.721C365.027 84.7581 365.629 84.2171 365.667 83.509C365.704 82.8061 365.162 82.2026 364.454 82.1659C363.75 82.1289 363.146 82.67 363.109 83.3779C363.072 84.0809 363.613 84.6845 364.322 84.721Z" fill="#0E2B5C"/>
<path d="M358.529 104.12C358.798 103.758 359.075 103.395 359.335 103.034C358.891 103.209 358.568 103.619 358.529 104.12Z" fill="#0E2B5C"/>
<path d="M354.088 103.925C354.125 103.222 353.584 102.619 352.876 102.582C352.172 102.545 351.568 103.086 351.531 103.794C351.493 104.497 352.035 105.1 352.743 105.137C353.448 105.174 354.051 104.633 354.088 103.925Z" fill="#0E2B5C"/>
<path d="M356.604 98.3309C357.308 98.368 357.91 97.827 357.948 97.1189C357.985 96.4159 357.443 95.8125 356.735 95.7758C356.031 95.7387 355.427 96.2799 355.391 96.9878C355.353 97.6908 355.896 98.2942 356.604 98.3309Z" fill="#0E2B5C"/>
<path d="M349.949 47.8968C349.69 48.1986 349.432 48.4929 349.173 48.796C349.563 48.6515 349.846 48.3129 349.949 47.8968Z" fill="#0E2B5C"/>
<path d="M353.726 61.8645C353.689 62.5675 354.232 63.1709 354.94 63.2076C355.644 63.2447 356.247 62.7035 356.284 61.9956C356.321 61.2926 355.779 60.6892 355.071 60.6525C354.367 60.6154 353.763 61.1566 353.726 61.8645Z" fill="#0E2B5C"/>
<path d="M349.283 61.6348C349.32 60.9269 348.779 60.3283 348.07 60.2918C347.367 60.2546 346.763 60.7957 346.727 61.5036C346.688 62.2067 347.231 62.8102 347.939 62.8468C348.643 62.8839 349.246 62.3428 349.283 61.6348Z" fill="#0E2B5C"/>
<path d="M351.799 56.0403C352.503 56.0774 353.105 55.5364 353.143 54.8283C353.18 54.1204 352.638 53.522 351.93 53.4853C351.226 53.4482 350.623 53.9893 350.586 54.6973C350.549 55.4052 351.091 56.0037 351.799 56.0403Z" fill="#0E2B5C"/>
<path d="M346.149 54.4661C346.174 53.9626 345.898 53.5245 345.484 53.2906C344.961 53.9466 344.446 54.6093 343.937 55.2715C344.156 55.5038 344.461 55.6612 344.805 55.6781C345.509 55.7152 346.112 55.174 346.149 54.4661Z" fill="#0E2B5C"/>
<path d="M343.477 81.0727C342.773 81.0356 342.169 81.5767 342.133 82.2847C342.096 82.9876 342.637 83.5912 343.346 83.6277C344.049 83.665 344.652 83.1238 344.689 82.4159C344.728 81.7128 344.185 81.1094 343.477 81.0727Z" fill="#0E2B5C"/>
<path d="M347.197 76.8216C347.902 76.8587 348.505 76.3175 348.542 75.6096C348.579 74.9017 348.038 74.3031 347.329 74.2665C346.625 74.2294 346.022 74.7705 345.984 75.4785C345.947 76.1815 346.489 76.7849 347.197 76.8216Z" fill="#0E2B5C"/>
<path d="M341.549 75.2484C341.587 74.5453 341.045 73.9418 340.337 73.9052C339.633 73.8681 339.029 74.4092 338.992 75.1172C338.954 75.8252 339.496 76.4237 340.204 76.4604C340.908 76.4975 341.512 75.9563 341.549 75.2484Z" fill="#0E2B5C"/>
<path d="M351.065 70.0189C351.768 70.0561 352.371 69.5149 352.409 68.8069C352.446 68.1039 351.904 67.5005 351.196 67.4638C350.492 67.4267 349.888 67.9678 349.851 68.6758C349.815 69.3837 350.355 69.9823 351.065 70.0189Z" fill="#0E2B5C"/>
<path d="M344.072 69.6544C344.777 69.6914 345.38 69.1503 345.417 68.4424C345.454 67.7394 344.912 67.136 344.204 67.0993C343.5 67.0622 342.896 67.6033 342.859 68.3113C342.822 69.0142 343.364 69.6177 344.072 69.6544Z" fill="#0E2B5C"/>
<path d="M342.743 95.048C342.039 95.0109 341.435 95.552 341.399 96.26C341.36 96.9631 341.903 97.5665 342.611 97.6032C343.315 97.6403 343.918 97.0991 343.955 96.3912C343.992 95.6882 343.451 95.0847 342.743 95.048Z" fill="#0E2B5C"/>
<path d="M345.25 89.4536C345.213 90.1566 345.755 90.76 346.463 90.7967C347.167 90.8338 347.77 90.2928 347.807 89.5847C347.844 88.8768 347.302 88.2783 346.594 88.2416C345.89 88.2045 345.287 88.7457 345.25 89.4536Z" fill="#0E2B5C"/>
<path d="M340.831 89.2224C340.868 88.5145 340.327 87.9159 339.618 87.8793C338.914 87.8422 338.311 88.3832 338.273 89.0913C338.236 89.7943 338.779 90.3977 339.486 90.4344C340.191 90.4715 340.794 89.9303 340.831 89.2224Z" fill="#0E2B5C"/>
<path d="M350.329 83.9894C351.033 84.0265 351.636 83.4855 351.672 82.7776C351.711 82.0745 351.169 81.471 350.461 81.4344C349.756 81.3973 349.154 81.9383 349.117 82.6462C349.079 83.3493 349.621 83.9527 350.329 83.9894Z" fill="#0E2B5C"/>
<path d="M342.008 109.023C341.304 108.986 340.702 109.527 340.664 110.235C340.627 110.943 341.169 111.541 341.877 111.578C342.585 111.615 343.185 111.074 343.222 110.366C343.259 109.663 342.718 109.059 342.008 109.023Z" fill="#0E2B5C"/>
<path d="M344.531 103.428C344.494 104.131 345.035 104.734 345.744 104.771C346.452 104.807 347.051 104.267 347.087 103.559C347.126 102.856 346.584 102.252 345.876 102.216C345.171 102.179 344.568 102.72 344.531 103.428Z" fill="#0E2B5C"/>
<path d="M340.097 103.198C340.134 102.495 339.591 101.892 338.883 101.855C338.179 101.818 337.576 102.359 337.539 103.067C337.502 103.77 338.044 104.373 338.752 104.41C339.456 104.447 340.06 103.906 340.097 103.198Z" fill="#0E2B5C"/>
<path d="M349.604 97.9688C350.308 98.0059 350.911 97.4648 350.948 96.7568C350.985 96.0539 350.444 95.4503 349.735 95.4137C349.031 95.3767 348.428 95.9177 348.391 96.6257C348.353 97.3287 348.896 97.9321 349.604 97.9688Z" fill="#0E2B5C"/>
<path d="M339.974 124.065C340.384 123.717 340.779 123.367 341.175 123.013C340.57 123.032 340.075 123.469 339.974 124.065Z" fill="#0E2B5C"/>
<path d="M343.805 117.402C343.766 118.105 344.308 118.708 345.016 118.745C345.72 118.782 346.323 118.241 346.36 117.533C346.398 116.83 345.856 116.227 345.148 116.19C344.444 116.153 343.842 116.694 343.805 117.402Z" fill="#0E2B5C"/>
<path d="M339.362 117.173C339.399 116.47 338.857 115.866 338.149 115.83C337.445 115.793 336.841 116.334 336.805 117.042C336.768 117.75 337.309 118.348 338.018 118.385C338.726 118.422 339.324 117.881 339.362 117.173Z" fill="#0E2B5C"/>
<path d="M348.869 111.944C349.573 111.981 350.177 111.44 350.214 110.732C350.251 110.029 349.709 109.426 349.001 109.389C348.296 109.352 347.693 109.893 347.656 110.601C347.619 111.304 348.161 111.907 348.869 111.944Z" fill="#0E2B5C"/>
<path d="M340.947 62.4846C341.65 62.5218 342.254 61.9819 342.292 61.2738C342.329 60.5709 341.787 59.9662 341.079 59.9295C340.751 59.9108 340.452 60.0278 340.221 60.2169C340.092 60.3911 339.963 60.5666 339.838 60.7404C339.789 60.8668 339.743 60.9929 339.734 61.1377C339.697 61.8407 340.238 62.4443 340.947 62.4808L340.947 62.4846Z" fill="#0E2B5C"/>
<path d="M329.493 80.3454C328.789 80.3083 328.186 80.8493 328.148 81.5574C328.111 82.2603 328.654 82.8638 329.361 82.9005C330.066 82.9375 330.669 82.3964 330.706 81.6885C330.743 80.9855 330.202 80.3819 329.493 80.3454Z" fill="#0E2B5C"/>
<path d="M332.008 74.751C331.971 75.4589 332.512 76.0575 333.221 76.0941C333.924 76.1313 334.527 75.5901 334.565 74.8821C334.603 74.1791 334.06 73.5757 333.352 73.539C332.648 73.5019 332.044 74.043 332.008 74.751Z" fill="#0E2B5C"/>
<path d="M337.072 69.2881C337.777 69.3252 338.38 68.7841 338.417 68.0762C338.454 67.3732 337.913 66.7696 337.204 66.7331C336.501 66.6959 335.897 67.237 335.859 67.9451C335.822 68.648 336.364 69.2515 337.072 69.2881Z" fill="#0E2B5C"/>
<path d="M328.751 94.3212C328.046 94.2841 327.443 94.8253 327.406 95.5332C327.369 96.2362 327.911 96.8396 328.619 96.8763C329.323 96.9134 329.927 96.3722 329.964 95.6643C330.001 94.9613 329.459 94.3579 328.751 94.3212Z" fill="#0E2B5C"/>
<path d="M331.274 88.7251C331.235 89.4282 331.776 90.0317 332.484 90.0684C333.189 90.1055 333.792 89.5644 333.829 88.8564C333.867 88.1483 333.325 87.5499 332.617 87.5132C331.913 87.4761 331.31 88.0171 331.274 88.7251Z" fill="#0E2B5C"/>
<path d="M336.346 83.2623C337.05 83.2994 337.654 82.7582 337.69 82.0503C337.727 81.3473 337.185 80.7439 336.477 80.7072C335.773 80.6701 335.169 81.2113 335.133 81.9192C335.096 82.6234 335.638 83.2256 336.346 83.2623Z" fill="#0E2B5C"/>
<path d="M328.016 108.296C327.312 108.259 326.708 108.8 326.672 109.508C326.635 110.216 327.176 110.814 327.885 110.851C328.589 110.888 329.191 110.347 329.229 109.639C329.267 108.936 328.724 108.333 328.016 108.296Z" fill="#0E2B5C"/>
<path d="M330.539 102.701C330.501 103.404 331.043 104.008 331.751 104.045C332.455 104.082 333.059 103.541 333.096 102.833C333.132 102.125 332.592 101.526 331.883 101.49C331.18 101.452 330.576 101.993 330.539 102.701Z" fill="#0E2B5C"/>
<path d="M326.111 102.471C326.149 101.768 325.607 101.165 324.899 101.128C324.195 101.091 323.591 101.632 323.555 102.34C323.517 103.043 324.059 103.647 324.768 103.683C325.471 103.72 326.074 103.179 326.111 102.471Z" fill="#0E2B5C"/>
<path d="M335.619 97.2413C336.323 97.2784 336.926 96.7373 336.964 96.0293C337.001 95.3263 336.459 94.7229 335.751 94.6862C335.046 94.6491 334.443 95.1903 334.406 95.8982C334.369 96.6012 334.91 97.2047 335.619 97.2413Z" fill="#0E2B5C"/>
<path d="M334.282 122.636C333.579 122.599 332.975 123.14 332.937 123.848C332.9 124.551 333.443 125.155 334.151 125.191C334.855 125.228 335.458 124.687 335.495 123.979C335.532 123.271 334.991 122.673 334.282 122.636Z" fill="#0E2B5C"/>
<path d="M329.812 116.676C329.775 117.379 330.318 117.982 331.026 118.019C331.73 118.056 332.333 117.515 332.37 116.807C332.407 116.104 331.865 115.5 331.157 115.464C330.453 115.426 329.85 115.967 329.812 116.676Z" fill="#0E2B5C"/>
<path d="M325.377 116.445C325.414 115.742 324.873 115.139 324.164 115.102C323.461 115.065 322.857 115.606 322.821 116.314C322.782 117.017 323.324 117.621 324.032 117.657C324.737 117.694 325.34 117.153 325.377 116.445Z" fill="#0E2B5C"/>
<path d="M334.884 111.212C335.588 111.249 336.19 110.708 336.227 110C336.266 109.297 335.723 108.693 335.015 108.657C334.311 108.62 333.709 109.161 333.672 109.869C333.634 110.577 334.176 111.175 334.884 111.212Z" fill="#0E2B5C"/>
<path d="M330.423 129.443C329.719 129.406 329.115 129.947 329.077 130.655C329.053 131.164 329.328 131.607 329.745 131.835C330.371 131.418 330.992 130.992 331.599 130.563C331.521 129.961 331.046 129.476 330.418 129.444L330.423 129.443Z" fill="#0E2B5C"/>
<path d="M327.165 124.825C327.869 124.862 328.472 124.321 328.508 123.613C328.547 122.91 328.005 122.307 327.297 122.27C326.592 122.233 325.99 122.774 325.953 123.482C325.915 124.185 326.457 124.788 327.165 124.825Z" fill="#0E2B5C"/>
<path d="M325.494 89.7078C326.198 89.7449 326.801 89.2039 326.839 88.4958C326.876 87.7929 326.334 87.1894 325.626 87.1528C324.921 87.1157 324.318 87.6568 324.281 88.3648C324.244 89.0727 324.786 89.6711 325.494 89.7078Z" fill="#0E2B5C"/>
<path d="M314.039 107.569C313.336 107.531 312.732 108.073 312.696 108.78C312.657 109.484 313.199 110.087 313.907 110.124C314.612 110.161 315.215 109.62 315.252 108.912C315.289 108.204 314.748 107.605 314.039 107.569Z" fill="#0E2B5C"/>
<path d="M321.632 96.5097C322.337 96.5468 322.94 96.0069 322.977 95.2989C323.014 94.596 322.473 93.9912 321.764 93.9546C321.192 93.9246 320.703 94.2855 320.514 94.7993L320.5 95.6764C320.673 96.142 321.107 96.4822 321.632 96.5097Z" fill="#0E2B5C"/>
<path d="M313.305 121.543C312.601 121.506 311.999 122.047 311.961 122.755C311.924 123.458 312.466 124.061 313.174 124.098C313.878 124.135 314.482 123.594 314.518 122.886C314.556 122.183 314.013 121.579 313.305 121.543Z" fill="#0E2B5C"/>
<path d="M315.82 115.948C315.783 116.651 316.324 117.255 317.033 117.292C317.736 117.329 318.34 116.788 318.377 116.08C318.415 115.377 317.873 114.773 317.165 114.736C316.46 114.699 315.857 115.241 315.82 115.948Z" fill="#0E2B5C"/>
<path d="M310.18 114.375C309.476 114.338 308.873 114.879 308.836 115.587C308.799 116.295 309.341 116.894 310.049 116.93C310.753 116.968 311.355 116.427 311.393 115.718C311.431 115.016 310.888 114.412 310.18 114.375Z" fill="#0E2B5C"/>
<path d="M320.908 110.485C321.613 110.522 322.216 109.981 322.253 109.273C322.289 108.565 321.748 107.966 321.04 107.93C320.335 107.893 319.733 108.434 319.695 109.142C319.658 109.845 320.2 110.448 320.908 110.485Z" fill="#0E2B5C"/>
<path d="M320.791 137.214C320.82 136.516 320.283 135.92 319.579 135.883C318.875 135.846 318.27 136.387 318.234 137.095C318.208 137.561 318.452 137.966 318.816 138.209C319.475 137.875 320.145 137.558 320.791 137.214Z" fill="#0E2B5C"/>
<path d="M322.086 130.289C322.049 130.992 322.591 131.595 323.299 131.632C324.003 131.669 324.607 131.128 324.643 130.42C324.681 129.717 324.138 129.114 323.43 129.077C322.726 129.04 322.124 129.581 322.086 130.289Z" fill="#0E2B5C"/>
<path d="M316.438 128.712C315.734 128.675 315.131 129.216 315.094 129.924C315.056 130.627 315.598 131.23 316.306 131.267C317.01 131.304 317.614 130.763 317.65 130.055C317.688 129.352 317.146 128.748 316.438 128.712Z" fill="#0E2B5C"/>
<path d="M310.65 129.693C310.688 128.99 310.146 128.386 309.438 128.35C308.734 128.312 308.13 128.854 308.094 129.562C308.057 130.269 308.598 130.868 309.307 130.905C310.01 130.942 310.613 130.401 310.65 129.693Z" fill="#0E2B5C"/>
<path d="M320.174 124.46C320.878 124.497 321.481 123.956 321.518 123.248C321.556 122.545 321.013 121.942 320.305 121.905C319.601 121.868 318.998 122.409 318.961 123.117C318.924 123.82 319.465 124.424 320.174 124.46Z" fill="#0E2B5C"/>
<path d="M309.128 142.428C309 142.375 308.863 142.33 308.715 142.325C308.19 142.297 307.723 142.593 307.502 143.038C308.051 142.844 308.586 142.634 309.129 142.431L309.128 142.428Z" fill="#0E2B5C"/>
<path d="M312.44 138.074C313.144 138.111 313.747 137.57 313.784 136.862C313.821 136.159 313.279 135.555 312.571 135.519C311.867 135.482 311.263 136.023 311.226 136.731C311.19 137.439 311.732 138.037 312.44 138.074Z" fill="#0E2B5C"/>
<path d="M305.587 135.156C304.882 135.119 304.28 135.66 304.242 136.368C304.205 137.071 304.747 137.674 305.455 137.711C306.159 137.749 306.763 137.206 306.8 136.499C306.836 135.792 306.296 135.193 305.587 135.156Z" fill="#0E2B5C"/>
<path d="M298.587 134.792C297.883 134.755 297.279 135.296 297.242 136.004C297.204 136.707 297.746 137.31 298.454 137.347C299.163 137.384 299.761 136.843 299.797 136.135C299.836 135.432 299.295 134.829 298.587 134.792Z" fill="#0E2B5C"/>
<path d="M301.101 129.196C301.065 129.904 301.607 130.502 302.315 130.539C303.023 130.576 303.622 130.035 303.659 129.327C303.696 128.624 303.154 128.02 302.446 127.984C301.742 127.947 301.138 128.488 301.101 129.196Z" fill="#0E2B5C"/>
<path d="M306.189 123.732C306.893 123.769 307.496 123.228 307.533 122.52C307.57 121.812 307.029 121.213 306.321 121.177C305.617 121.14 305.013 121.681 304.977 122.389C304.938 123.093 305.481 123.695 306.189 123.732Z" fill="#0E2B5C"/>
<path d="M300.383 143.171C300.346 143.875 300.887 144.477 301.596 144.514C302.299 144.551 302.902 144.01 302.94 143.302C302.977 142.595 302.435 141.997 301.727 141.959C301.023 141.922 300.42 142.464 300.383 143.171Z" fill="#0E2B5C"/>
<path d="M295.949 142.941C295.986 142.238 295.444 141.635 294.736 141.598L294.715 141.6C294.401 142.439 294.122 143.203 293.889 143.86C294.092 144.02 294.324 144.137 294.6 144.154C295.309 144.19 295.907 143.65 295.944 142.942L295.949 142.941Z" fill="#0E2B5C"/>
<path d="M338.527 181.226C342.893 179.613 366.213 168.951 377.901 161.544L377.199 158.221L382.392 158.582C390.387 153.096 398.969 146.029 407.075 137.053C394.228 131.07 395.542 129.436 395.542 129.436L413.551 129.326C416.147 125.976 418.653 122.393 421.037 118.585C411.279 118.6 411.378 115.854 411.378 115.854C414.974 113.554 420.699 112.652 424.736 112.295C428.443 105.57 431.753 98.1863 434.478 90.0832C434.478 90.0832 427.058 89.2737 416.107 89.4627C413.897 91.8743 411.194 95.4276 410.766 98.7686C410.766 98.7686 407.896 94.4635 407.43 89.8169C400.412 90.2692 392.571 91.18 384.608 92.8804C381.645 101.07 376.907 113.392 374.795 114.602C372.784 115.757 375.203 103.722 377.267 94.677C368.16 97.2041 323.723 121.992 315.872 127.309L325.14 166.262L338.521 181.229L338.527 181.226Z" fill="#0E2B5C"/>
<path d="M331.237 154.409C330.959 154.367 330.703 154.21 330.546 153.95C330.267 153.49 330.411 152.888 330.872 152.606L430.267 91.7704C430.723 91.4908 431.329 91.6366 431.611 92.0983C431.891 92.5582 431.747 93.1581 431.285 93.4408L331.892 154.278C331.691 154.4 331.462 154.442 331.237 154.409Z" fill="white"/>
<path d="M196.911 167.134C173.451 181.075 142.954 174.298 127.787 151.288C112.62 128.28 118.437 97.6115 140.524 81.5835L196.911 167.134Z" fill="#0E2B5C"/>
<path d="M160.688 120.852C151.228 121.081 130.998 119.296 123.679 100.895C123.479 100.393 123.724 99.8286 124.226 99.6283C124.733 99.4316 125.292 99.674 125.493 100.176C134.566 122.986 165.078 118.605 165.387 118.559C165.906 118.505 166.418 118.846 166.503 119.381C166.582 119.914 166.217 120.41 165.682 120.494C165.605 120.504 163.684 120.78 160.683 120.852L160.688 120.852Z" fill="white"/>
<path d="M160.215 174.24C159.909 174.247 159.607 174.112 159.408 173.849C128.776 133.03 150.845 98.6291 151.071 98.2849C151.37 97.8323 151.981 97.7134 152.425 98.0088C152.876 98.3077 153 98.912 152.701 99.3595C152.482 99.691 131.186 132.993 160.969 172.68C161.294 173.112 161.205 173.726 160.772 174.046C160.603 174.177 160.406 174.235 160.21 174.24L160.215 174.24Z" fill="white"/>
<path d="M130.867 185.81L76.0975 171.967C75.6824 171.862 75.4353 171.443 75.5394 171.029L83.614 139.131C83.7193 138.716 84.137 138.469 84.5521 138.574L139.322 152.417C139.737 152.522 139.984 152.941 139.879 153.356L131.805 185.254C131.701 185.668 131.281 185.914 130.867 185.81Z" fill="#0E2B5C"/>
<path d="M123.015 173.841C122.934 173.841 122.855 173.833 122.775 173.813L88.8553 165.238C88.331 165.104 88.0162 164.572 88.1466 164.053C88.2771 163.53 88.8126 163.215 89.3331 163.346L123.254 171.92C123.777 172.054 124.092 172.584 123.962 173.104C123.849 173.548 123.455 173.841 123.015 173.841Z" fill="white"/>
<path d="M108.32 167.142L104.723 166.231C104.669 166.219 104.615 166.252 104.601 166.304L103.691 169.9C103.677 169.954 103.709 170.008 103.763 170.022L107.359 170.93C107.413 170.943 107.468 170.911 107.481 170.857L108.393 167.264C108.406 167.21 108.374 167.155 108.32 167.142Z" fill="white"/>
<path d="M90.6823 164.69C90.4177 165.738 89.3516 166.37 88.3043 166.106C87.2558 165.842 86.6237 164.778 86.8883 163.735C87.1517 162.687 88.2178 162.055 89.2613 162.32C90.3085 162.583 90.9419 163.647 90.6785 164.694L90.6823 164.69Z" fill="white"/>
<path d="M125.299 173.444C125.035 174.492 123.969 175.125 122.922 174.862C121.873 174.597 121.241 173.532 121.506 172.485C121.769 171.438 122.835 170.806 123.878 171.069C124.926 171.334 125.559 172.397 125.296 173.444H125.299Z" fill="white"/>
<path d="M122.908 159.655C122.643 160.702 121.578 161.335 120.531 161.071C119.482 160.807 118.85 159.744 119.115 158.7C119.38 157.653 120.443 157.021 121.49 157.284C122.539 157.549 123.172 158.613 122.908 159.66V159.655Z" fill="white"/>
<path d="M99.3529 153.272C99.0883 154.319 98.0235 154.951 96.9762 154.688C95.9277 154.423 95.2956 153.36 95.5602 152.316C95.8236 151.269 96.8884 150.637 97.9357 150.9C98.9842 151.165 99.6176 152.229 99.3529 153.276V153.272Z" fill="white"/>
<path d="M109.046 169.93C107.981 169.93 106.895 169.8 105.818 169.528C98.7743 167.748 94.4887 160.573 96.271 153.535C96.4014 153.012 96.9369 152.698 97.4574 152.828C97.9817 152.962 98.2952 153.494 98.1661 154.013C96.6485 160.007 100.292 166.119 106.291 167.63C112.29 169.13 118.403 165.503 119.92 159.513C120.051 158.985 120.586 158.691 121.107 158.806C121.631 158.939 121.944 159.472 121.815 159.991C120.305 165.951 114.932 169.93 109.043 169.93H109.046Z" fill="white"/>
<path d="M44.2675 156.896C48.439 160.863 49.2392 167.267 49.3408 170.799C49.3821 172.264 48.2295 173.477 46.7621 173.509C43.2278 173.584 36.7849 173.108 32.6135 169.145C28.442 165.179 27.6405 158.774 27.5402 155.243C27.4976 153.777 28.6514 152.565 30.1188 152.531C33.6532 152.456 40.096 152.934 44.2675 156.896Z" fill="#0E2B5C"/>
<path d="M48.6252 173.667C48.3819 173.667 48.1436 173.579 47.9505 173.4L27.5923 154.058C27.2022 153.684 27.1859 153.064 27.5584 152.676C27.9359 152.286 28.548 152.272 28.9418 152.641L49.3 171.985C49.6901 172.358 49.7064 172.977 49.3339 173.368C49.1407 173.568 48.8811 173.667 48.6252 173.667Z" fill="white"/>
<path d="M93.6449 121.511L58.0431 134.308C56.6597 134.806 55.1296 134.087 54.6342 132.705L45.4083 107.07C44.9091 105.688 45.6303 104.159 47.0137 103.664L82.6155 90.8685C84.0001 90.3693 85.5302 91.0905 86.0244 92.4726L95.2503 118.106C95.7495 119.488 95.0283 121.017 93.6449 121.511Z" fill="#0E2B5C"/>
<path d="M76.4939 110.735L74.9675 115.293L63.9757 107.493L58.7344 126.966L72.7463 121.931L80.4308 119.167L86.5225 116.98L76.4939 110.735Z" fill="white"/>
<path d="M80.6355 101.942C81.2099 103.537 80.3797 105.298 78.7818 105.876C77.1852 106.45 75.4243 105.619 74.8461 104.024C74.2717 102.427 75.102 100.669 76.6986 100.095C78.2964 99.5213 80.0573 100.352 80.6355 101.947V101.942Z" fill="white"/>
<path d="M169.82 330.63C169.82 250.601 169.82 92.3065 169.82 92.3065C169.82 82.9401 177.447 75.3208 186.821 75.3208H326.905C336.279 75.3208 343.906 82.9401 343.906 92.3065V375.821C343.906 385.188 336.279 392.807 326.905 392.807H186.821C177.447 392.807 169.82 385.188 169.82 375.821C169.82 375.821 169.82 357.704 169.82 330.63Z" fill="white"/>
<path d="M169.82 330.63C169.82 250.601 169.82 92.3065 169.82 92.3065C169.82 82.9401 177.447 75.3208 186.821 75.3208H326.905C336.279 75.3208 343.906 82.9401 343.906 92.3065V375.821C343.906 385.188 336.279 392.807 326.905 392.807H186.821C177.447 392.807 169.82 385.188 169.82 375.821C169.82 375.821 169.82 357.704 169.82 330.63Z" stroke="#4D4C4D" stroke-width="2" stroke-miterlimit="10"/>
<path d="M169.547 109.015C169.547 109.015 253.93 109.015 305.385 109.015C327.953 109.015 344.187 109.015 344.187 109.015" stroke="#4D4C4D" stroke-width="2" stroke-miterlimit="10"/>
<path d="M169.547 363.964C169.547 363.964 253.93 363.964 305.385 363.964C327.953 363.964 344.187 363.964 344.187 363.964" stroke="#4D4C4D" stroke-width="2" stroke-miterlimit="10"/>
<path d="M186.468 272.696C186.103 271.464 185.906 270.161 185.906 268.813V129.053C185.906 121.518 192.043 115.386 199.586 115.386H314.16C321.701 115.386 327.839 121.518 327.839 129.053V268.813C327.839 276.349 321.701 282.481 314.16 282.481H199.586C193.393 282.481 188.148 278.347 186.468 272.696Z" stroke="#4D4C4D" stroke-width="2" stroke-miterlimit="10"/>
<path d="M205.474 150.998C206.816 151.438 208.217 151.66 209.646 151.66V151.655C210.058 151.654 210.467 151.634 210.872 151.597C211.395 151.55 211.91 151.472 212.418 151.367M220.844 145.486C221.82 143.921 222.436 142.171 222.66 140.355C222.724 139.838 222.757 139.316 222.757 138.792M196.615 137.338C196.561 137.816 196.531 138.298 196.531 138.788C196.531 140.155 196.744 141.486 197.167 142.758C197.33 143.252 197.526 143.737 197.752 144.213M222.081 134.7C221.492 132.965 220.534 131.381 219.272 130.041C218.916 129.664 218.535 129.305 218.132 128.969M208.299 125.974C206.47 126.156 204.704 126.717 203.115 127.613C202.662 127.869 202.223 128.153 201.801 128.462" stroke="#4D4C4D" stroke-width="2" stroke-miterlimit="10"/>
<path d="M230.07 132.727C230.07 132.727 260.083 132.727 278.383 132.727C286.41 132.727 292.185 132.727 292.185 132.727" stroke="#4D4C4D" stroke-width="2" stroke-miterlimit="10"/>
<path d="M230.07 139.764C230.07 139.764 246.494 139.764 256.509 139.764C260.902 139.764 264.062 139.764 264.062 139.764" stroke="#4D4C4D" stroke-width="2" stroke-miterlimit="10"/>
<path d="M185.617 160.548C185.617 160.548 254.465 160.548 296.447 160.548C314.86 160.548 328.106 160.548 328.106 160.548" stroke="#4D4C4D" stroke-width="2" stroke-miterlimit="10"/>
<path d="M185.617 260.699C185.617 260.699 254.465 260.699 296.447 260.699C314.86 260.699 328.106 260.699 328.106 260.699" stroke="#4D4C4D" stroke-width="2" stroke-miterlimit="10"/>
<path d="M314.942 323.974C313.92 323.974 313.138 323.974 313.138 323.974C312.598 323.974 312.161 323.538 312.161 322.998C312.161 322.457 312.598 322.022 313.138 322.022H319.658C319.955 322.022 320.252 322.001 320.542 321.959C321.057 321.872 321.569 322.257 321.644 322.788C321.719 323.325 321.347 323.814 320.814 323.89C320.436 323.945 320.051 323.974 319.658 323.974C319.658 323.974 316.872 323.974 314.942 323.974ZM299.096 323.974C297.861 323.974 296.837 323.974 296.837 323.974C296.297 323.974 295.862 323.538 295.862 322.998C295.862 322.457 296.297 322.022 296.837 322.022H303.357C303.897 322.022 304.334 322.457 304.334 322.998C304.334 323.538 303.897 323.974 303.357 323.974C303.357 323.974 300.98 323.974 299.096 323.974ZM282.797 323.974C281.561 323.974 280.538 323.974 280.538 323.974C279.997 323.974 279.561 323.538 279.561 322.998C279.561 322.457 279.997 322.022 280.538 322.022H287.057C287.598 322.022 288.034 322.457 288.034 322.998C288.034 323.538 287.598 323.974 287.057 323.974C287.057 323.974 284.679 323.974 282.797 323.974ZM266.497 323.974C265.262 323.974 264.238 323.974 264.238 323.974C263.698 323.974 263.261 323.538 263.261 322.998C263.261 322.457 263.698 322.022 264.238 322.022H270.757C271.298 322.022 271.733 322.457 271.733 322.998C271.733 323.538 271.298 323.974 270.757 323.974C270.757 323.974 268.381 323.974 266.497 323.974ZM250.196 323.974C248.961 323.974 247.937 323.974 247.937 323.974C247.397 323.974 246.962 323.538 246.962 322.998C246.962 322.457 247.397 322.022 247.937 322.022H254.457C254.997 322.022 255.434 322.457 255.434 322.998C255.434 323.538 254.997 323.974 254.457 323.974C254.457 323.974 252.08 323.974 250.196 323.974ZM233.896 323.974C232.661 323.974 231.638 323.974 231.638 323.974C231.097 323.974 230.661 323.538 230.661 322.998C230.661 322.457 231.097 322.022 231.638 322.022H238.157C238.698 322.022 239.134 322.457 239.134 322.998C239.134 323.538 238.698 323.974 238.157 323.974C238.157 323.974 235.779 323.974 233.896 323.974ZM217.597 323.974C216.361 323.974 215.338 323.974 215.338 323.974C214.797 323.974 214.361 323.538 214.361 322.998C214.361 322.457 214.797 322.022 215.338 322.022H221.857C222.398 322.022 222.833 322.457 222.833 322.998C222.833 323.538 222.398 323.974 221.857 323.974C221.857 323.974 219.481 323.974 217.597 323.974ZM201.296 323.974C200.061 323.974 199.037 323.974 199.037 323.974C198.497 323.974 198.061 323.538 198.061 322.998C198.061 322.457 198.497 322.022 199.037 322.022H205.557C206.097 322.022 206.534 322.457 206.534 322.998C206.534 323.538 206.097 323.974 205.557 323.974C205.557 323.974 203.18 323.974 201.296 323.974ZM186.746 319.455C186.189 318.34 185.891 317.098 185.891 315.81C185.891 315.27 186.326 314.826 186.868 314.826C187.408 314.826 187.843 315.253 187.843 315.794C187.843 317.724 188.708 319.5 190.213 320.69C190.64 321.025 190.707 321.637 190.376 322.06C190.184 322.303 189.898 322.432 189.609 322.432C189.395 322.432 189.182 322.366 189.005 322.223C188.04 321.462 187.277 320.516 186.746 319.455ZM325.87 313.588C325.87 311.874 325.87 309.795 325.87 309.795C325.87 309.254 326.306 308.819 326.847 308.819C327.388 308.819 327.824 309.254 327.824 309.795V315.81C327.824 315.998 327.815 316.183 327.807 316.367C327.774 316.891 327.346 317.289 326.83 317.289H326.775C326.235 317.255 325.825 316.795 325.853 316.258C325.862 316.107 325.87 315.961 325.87 315.81C325.87 315.81 325.87 314.788 325.87 313.588ZM185.891 303.294C185.891 301.91 185.891 300.518 185.891 300.518C185.891 300.128 185.919 299.746 185.975 299.37C186.05 298.833 186.515 298.444 187.081 298.545C187.618 298.62 187.986 299.118 187.907 299.65C187.865 299.936 187.843 300.224 187.843 300.518V306.021C187.843 306.562 187.408 306.997 186.868 306.997C186.326 306.997 185.891 306.562 185.891 306.021C185.891 306.021 185.891 304.661 185.891 303.294ZM325.051 297.442C324.588 296.632 323.939 295.926 323.137 295.382C322.693 295.081 322.575 294.474 322.881 294.025C323.183 293.581 323.795 293.468 324.239 293.77C326.331 295.19 327.631 297.451 327.802 299.965C327.836 300.505 327.43 300.969 326.893 301.008H326.827L326.822 301.003C326.31 301.003 325.878 300.609 325.845 300.094C325.782 299.143 325.507 298.242 325.051 297.442ZM194.742 292.354C196.314 292.354 200.069 292.354 200.069 292.354C200.61 292.354 201.046 292.789 201.046 293.33C201.046 293.87 200.61 294.306 200.069 294.306H194.062C193.919 294.306 193.768 294.314 193.625 294.322H193.554L193.55 294.327C193.042 294.327 192.614 293.937 192.577 293.421C192.535 292.886 192.942 292.412 193.479 292.374C193.672 292.358 193.869 292.354 194.062 292.354C194.062 292.354 194.325 292.354 194.742 292.354ZM309.9 294.306C308.665 294.306 307.641 294.306 307.641 294.306C307.101 294.306 306.665 293.87 306.665 293.33C306.665 292.789 307.101 292.354 307.641 292.354H314.16C314.702 292.354 315.137 292.789 315.137 293.33C315.137 293.87 314.702 294.306 314.16 294.306C314.16 294.306 311.782 294.306 309.9 294.306ZM293.6 294.306C292.365 294.306 291.341 294.306 291.341 294.306C290.801 294.306 290.364 293.87 290.364 293.33C290.364 292.789 290.801 292.354 291.341 292.354H297.861C298.401 292.354 298.838 292.789 298.838 293.33C298.838 293.87 298.401 294.306 297.861 294.306C297.861 294.306 295.483 294.306 293.6 294.306ZM277.301 294.306C276.065 294.306 275.042 294.306 275.042 294.306C274.501 294.306 274.065 293.87 274.065 293.33C274.065 292.789 274.501 292.354 275.042 292.354H281.561C282.102 292.354 282.538 292.789 282.538 293.33C282.538 293.87 282.102 294.306 281.561 294.306C281.561 294.306 279.183 294.306 277.301 294.306ZM261 294.306C259.764 294.306 258.741 294.306 258.741 294.306C258.2 294.306 257.765 293.87 257.765 293.33C257.765 292.789 258.2 292.354 258.741 292.354H265.26C265.802 292.354 266.237 292.789 266.237 293.33C266.237 293.87 265.802 294.306 265.26 294.306C265.26 294.306 262.882 294.306 261 294.306ZM244.7 294.306C243.465 294.306 242.441 294.306 242.441 294.306C241.901 294.306 241.464 293.87 241.464 293.33C241.464 292.789 241.901 292.354 242.441 292.354H248.961C249.501 292.354 249.938 292.789 249.938 293.33C249.938 293.87 249.501 294.306 248.961 294.306C248.961 294.306 246.583 294.306 244.7 294.306ZM228.401 294.306C227.165 294.306 226.142 294.306 226.142 294.306C225.601 294.306 225.165 293.87 225.165 293.33C225.165 292.789 225.601 292.354 226.142 292.354H232.661C233.202 292.354 233.638 292.789 233.638 293.33C233.638 293.87 233.202 294.306 232.661 294.306C232.661 294.306 230.283 294.306 228.401 294.306ZM212.1 294.306C210.864 294.306 209.841 294.306 209.841 294.306C209.3 294.306 208.865 293.87 208.865 293.33C208.865 292.789 209.3 292.354 209.841 292.354H216.36C216.902 292.354 217.337 292.789 217.337 293.33C217.337 293.87 216.902 294.306 216.36 294.306C216.36 294.306 213.982 294.306 212.1 294.306Z" fill="#4D4C4D"/>
<path d="M251.263 332.057C235.842 332.057 221.916 332.057 221.916 332.057C221.465 332.057 221.102 332.422 221.102 332.871V351.665C221.102 352.114 221.465 352.478 221.916 352.478H291.815C292.264 352.478 292.629 352.114 292.629 351.665V332.871C292.629 332.422 292.264 332.057 291.815 332.057C291.815 332.057 270.389 332.057 251.263 332.057Z" fill="#4D4C4D"/>
<path d="M253.177 345.34C253.004 345.34 252.874 345.34 252.874 345.34V343.158H250.887V345.34H249.742V340.063H250.887V342.095H252.874V340.063H254.019V345.34C254.019 345.34 253.517 345.34 253.177 345.34Z" fill="white"/>
<path d="M256.211 342.466C256.211 343.666 256.211 345.34 256.211 345.34H255.109V341.268H256.211C256.211 341.268 256.211 341.793 256.211 342.466ZM256.051 339.703C256.147 339.703 256.208 339.703 256.208 339.703V340.725H255.109V339.703C255.109 339.703 255.749 339.703 256.051 339.703Z" fill="white"/>
<path d="M258.377 343.162C258.376 343.183 258.376 343.204 258.376 343.226V345.34H257.273V341.269H257.982L258.179 341.767C258.469 341.407 258.837 341.244 259.362 341.244H259.722V342.282H259.244C258.643 342.282 258.392 342.542 258.377 343.162Z" fill="white"/>
<path d="M261.971 344.47C262.015 344.475 262.062 344.478 262.109 344.478C262.491 344.478 262.805 344.298 262.973 344.005H264.13C263.833 344.893 263.052 345.458 262.106 345.458C260.901 345.458 259.992 344.528 259.992 343.305C259.992 342.082 260.898 341.151 262.106 341.151C263.312 341.151 264.214 342.116 264.214 343.289C264.214 343.398 264.205 343.502 264.193 343.611L264.198 343.615H261.111C261.199 344.123 261.51 344.421 261.971 344.47ZM262.182 342.861C262.657 342.861 263.115 342.861 263.115 342.861C262.961 342.363 262.6 342.095 262.106 342.095C261.61 342.095 261.266 342.379 261.137 342.861H261.141C261.141 342.861 261.672 342.861 262.182 342.861Z" fill="white"/>
<mask id="mask0_3569_144" style="mask-type:alpha" maskUnits="userSpaceOnUse" x="193" y="259" width="130" height="23">
<path d="M322.323 259.235V281.811H193.141V259.235H322.323Z" fill="#00CCFF"/>
</mask>
<g mask="url(#mask0_3569_144)">
<mask id="mask1_3569_144" style="mask-type:luminance" maskUnits="userSpaceOnUse" x="-33" y="-36" width="603" height="478">
<path d="M-32.6094 -35.5029H569.408V441.094H-32.6094V-35.5029Z" fill="white"/>
</mask>
<g mask="url(#mask1_3569_144)">
<path d="M215.134 271.635V273.04H210.945V266.066H212.45V271.647H215.134V271.635Z" fill="black"/>
<path d="M221.443 267.647V273.027H220.301L220.175 272.55C219.711 272.952 219.11 273.19 218.431 273.19C216.815 273.19 215.609 271.974 215.609 270.343C215.609 268.713 216.815 267.509 218.431 267.509C219.122 267.509 219.737 267.747 220.201 268.161L220.35 267.647H221.443ZM220.013 270.343C220.013 269.503 219.397 268.863 218.544 268.863C217.691 268.863 217.077 269.49 217.077 270.343C217.077 271.196 217.704 271.823 218.544 271.823C219.385 271.823 220.013 271.196 220.013 270.343Z" fill="black"/>
<path d="M226.059 267.621V268.988H225.432C224.617 268.988 224.291 269.352 224.291 270.23V273.027H222.836V267.646H223.764L224.027 268.311C224.416 267.835 224.893 267.621 225.595 267.621H226.072H226.059Z" fill="black"/>
<path d="M232.238 267.647V273.027H231.097L230.972 272.55C230.507 272.952 229.905 273.19 229.228 273.19C227.61 273.19 226.406 271.974 226.406 270.343C226.406 268.713 227.61 267.509 229.228 267.509C229.918 267.509 230.533 267.747 230.997 268.161L231.147 267.647H232.238ZM230.809 270.343C230.809 269.503 230.194 268.863 229.341 268.863C228.488 268.863 227.874 269.49 227.874 270.343C227.874 271.196 228.501 271.823 229.341 271.823C230.181 271.823 230.809 271.196 230.809 270.343Z" fill="black"/>
<path d="M238.674 267.659L236.529 273.04H235.187L232.992 267.659H234.547L235.864 271.271L237.156 267.659H238.661H238.674Z" fill="black"/>
<path d="M244.462 270.757H240.386C240.512 271.497 241.001 271.898 241.703 271.898C242.205 271.898 242.619 271.66 242.844 271.271H244.375C243.986 272.45 242.957 273.19 241.703 273.19C240.11 273.19 238.906 271.961 238.906 270.343C238.906 268.725 240.098 267.496 241.703 267.496C243.308 267.496 244.487 268.775 244.487 270.318C244.487 270.456 244.487 270.607 244.462 270.744V270.757ZM240.424 269.766H243.033C242.832 269.114 242.355 268.75 241.703 268.75C241.051 268.75 240.599 269.127 240.424 269.766Z" fill="black"/>
<path d="M245.516 265.715H246.97V273.04H245.516V265.715Z" fill="black"/>
<path d="M257.019 269.54C257.019 271.56 255.527 273.04 253.482 273.04H250.836V266.066H253.482C255.539 266.066 257.019 267.534 257.019 269.553V269.54ZM255.476 269.54C255.476 268.311 254.649 267.458 253.445 267.458H252.354V271.635H253.445C254.649 271.635 255.476 270.757 255.476 269.54Z" fill="black"/>
<path d="M263.33 270.757H259.253C259.379 271.497 259.868 271.898 260.57 271.898C261.072 271.898 261.486 271.66 261.712 271.271H263.242C262.853 272.45 261.825 273.19 260.57 273.19C258.977 273.19 257.773 271.961 257.773 270.343C257.773 268.725 258.965 267.496 260.57 267.496C262.176 267.496 263.355 268.775 263.355 270.318C263.355 270.456 263.355 270.607 263.33 270.744V270.757ZM259.291 269.766H261.9C261.699 269.114 261.222 268.75 260.57 268.75C259.918 268.75 259.467 269.127 259.291 269.766Z" fill="black"/>
<path d="M269.228 267.659L267.084 273.04H265.742L263.547 267.659H265.102L266.419 271.271L267.711 267.659H269.216H269.228Z" fill="black"/>
<path d="M275.017 270.757H270.941C271.066 271.497 271.555 271.898 272.258 271.898C272.759 271.898 273.173 271.66 273.399 271.271H274.929C274.54 272.45 273.512 273.19 272.258 273.19C270.665 273.19 269.461 271.961 269.461 270.343C269.461 268.725 270.652 267.496 272.258 267.496C273.863 267.496 275.042 268.775 275.042 270.318C275.042 270.456 275.042 270.607 275.017 270.744V270.757ZM270.979 269.766H273.587C273.387 269.114 272.91 268.75 272.258 268.75C271.606 268.75 271.154 269.127 270.979 269.766Z" fill="black"/>
<path d="M276.086 265.715H277.541V273.04H276.086V265.715Z" fill="black"/>
<path d="M278.586 270.343C278.586 268.713 279.828 267.496 281.496 267.496C283.164 267.496 284.405 268.713 284.405 270.343C284.405 271.974 283.151 273.19 281.496 273.19C279.84 273.19 278.586 271.974 278.586 270.343ZM282.925 270.343C282.925 269.465 282.336 268.863 281.496 268.863C280.655 268.863 280.066 269.465 280.066 270.343C280.066 271.221 280.655 271.823 281.496 271.823C282.336 271.823 282.925 271.221 282.925 270.343Z" fill="black"/>
<path d="M291.194 270.343C291.194 271.974 289.99 273.19 288.372 273.19C287.82 273.19 287.306 273.027 286.892 272.739V274.971H285.438V267.647H286.403L286.654 268.136C287.118 267.734 287.708 267.496 288.385 267.496C290.003 267.496 291.207 268.713 291.207 270.343H291.194ZM289.727 270.343C289.727 269.503 289.112 268.863 288.259 268.863C287.407 268.863 286.792 269.49 286.792 270.343C286.792 271.196 287.419 271.823 288.259 271.823C289.1 271.823 289.727 271.196 289.727 270.343Z" fill="black"/>
<path d="M297.423 270.757H293.347C293.473 271.497 293.962 271.898 294.664 271.898C295.166 271.898 295.58 271.66 295.805 271.271H297.336C296.947 272.45 295.918 273.19 294.664 273.19C293.071 273.19 291.867 271.961 291.867 270.343C291.867 268.725 293.059 267.496 294.664 267.496C296.269 267.496 297.448 268.775 297.448 270.318C297.448 270.456 297.448 270.607 297.423 270.744V270.757ZM293.385 269.766H295.994C295.793 269.114 295.316 268.75 294.664 268.75C294.012 268.75 293.56 269.127 293.385 269.766Z" fill="black"/>
<path d="M301.708 267.621V268.988H301.081C300.265 268.988 299.939 269.352 299.939 270.23V273.027H298.484V267.646H299.412L299.676 268.311C300.065 267.835 300.541 267.621 301.244 267.621H301.72H301.708Z" fill="black"/>
</g>
</g>
<path d="M254.509 211.947C255.475 211.458 256.152 211.157 256.792 210.794C260.178 208.862 263.54 206.855 266.964 204.999C268.255 204.297 268.782 203.482 268.757 201.989C268.669 197.01 268.782 192.018 268.694 187.039C268.669 185.509 269.146 184.568 270.488 183.816C275.404 181.082 280.246 178.197 285.2 175.5C285.927 175.112 287.244 175.112 287.971 175.513C292.913 178.209 297.767 181.069 302.671 183.828C303.925 184.531 304.489 185.421 304.477 186.889C304.414 192.382 304.401 197.888 304.477 203.381C304.502 204.861 303.95 205.702 302.671 206.404C298.256 208.862 293.929 211.483 289.502 213.917C288.197 214.644 287.746 215.472 287.771 216.939C287.859 221.981 287.771 227.036 287.833 232.09C287.846 233.394 287.445 234.222 286.291 234.874C275.63 240.97 264.994 247.128 254.309 253.198C253.732 253.524 252.628 253.549 252.064 253.223C241.328 247.115 230.617 240.957 219.956 234.724C219.304 234.335 218.689 233.231 218.689 232.466C218.614 213.992 218.614 195.517 218.689 177.056C218.689 176.24 219.367 175.099 220.069 174.673C224.998 171.7 230.027 168.891 234.994 165.968C236.098 165.316 236.976 165.442 238.017 166.056C242.883 168.903 247.749 171.738 252.666 174.484C253.957 175.212 254.396 176.127 254.396 177.57C254.346 188.18 254.371 198.791 254.384 209.401C254.384 210.141 254.459 210.869 254.534 211.947H254.509ZM221.072 178.473C220.984 179.577 220.872 180.367 220.872 181.157C220.872 197.449 220.909 213.754 220.809 230.046C220.809 232.103 221.561 233.118 223.242 234.059C231.72 238.838 240.124 243.729 248.564 248.558C249.53 249.109 250.546 249.586 251.763 250.226C251.825 249.323 251.888 248.771 251.901 248.206C251.901 244.055 251.85 239.891 251.938 235.74C251.963 234.385 251.424 233.683 250.283 233.056C245.968 230.685 241.741 228.139 237.389 225.819C235.734 224.941 235.207 223.85 235.22 222.031C235.295 210.969 235.22 199.92 235.295 188.858C235.295 187.089 234.743 186.073 233.175 185.233C229.739 183.389 226.403 181.345 223.029 179.401C222.502 179.1 221.925 178.874 221.072 178.46V178.473ZM239.02 223.988C243.811 226.709 248.176 229.218 252.603 231.638C253.004 231.852 253.832 231.576 254.321 231.287C262.009 226.948 269.673 222.583 277.323 218.206C279.455 216.989 281.575 215.723 283.908 214.356C283.268 213.891 282.955 213.603 282.591 213.402C278.891 211.258 275.141 209.163 271.479 206.956C270.262 206.228 269.334 206.304 268.142 206.993C259.024 212.286 249.869 217.516 240.726 222.784C240.249 223.06 239.835 223.411 239.02 223.988ZM237.653 221.417C238.18 221.341 238.393 221.367 238.543 221.279C242.657 218.933 246.796 216.638 250.834 214.167C251.449 213.791 251.85 212.6 251.863 211.784C251.926 201.425 251.913 191.078 251.901 180.718C251.901 180.066 251.8 179.401 251.737 178.498C250.935 178.874 250.408 179.087 249.931 179.363C246.382 181.395 242.858 183.502 239.271 185.471C237.979 186.174 237.527 187.039 237.527 188.506C237.59 198.791 237.565 209.088 237.565 219.372C237.565 219.999 237.615 220.614 237.653 221.404V221.417ZM254.346 250.138C255.036 249.925 255.287 249.9 255.5 249.774C265.095 244.281 274.714 238.787 284.259 233.219C284.848 232.868 285.3 231.789 285.312 231.049C285.413 226.835 285.363 222.621 285.35 218.407C285.35 217.88 285.212 217.366 285.112 216.613C284.334 217.002 283.82 217.228 283.343 217.504C275.617 221.906 268.067 226.634 260.128 230.597C255.538 232.88 253.544 235.652 254.271 240.744C254.697 243.729 254.346 246.827 254.346 250.15V250.138ZM222.163 176.203C226.967 178.962 231.256 181.47 235.608 183.853C236.123 184.129 237.113 183.941 237.703 183.628C240.575 182.085 243.384 180.442 246.194 178.811C247.548 178.021 248.878 177.194 250.295 176.328C249.982 175.952 249.856 175.701 249.656 175.588C245.517 173.193 241.39 170.772 237.189 168.464C236.687 168.188 235.709 168.402 235.119 168.703C232.975 169.819 230.88 171.06 228.786 172.277C226.704 173.481 224.647 174.723 222.163 176.203ZM300.576 185.785C300.074 185.333 299.799 184.982 299.435 184.769C295.559 182.524 291.721 180.229 287.771 178.134C287.068 177.758 285.764 177.908 285.011 178.31C281.299 180.304 277.674 182.474 274.025 184.593C273.561 184.869 273.147 185.22 272.469 185.722C277.123 188.394 281.487 190.927 285.864 193.398C286.203 193.586 286.805 193.649 287.119 193.473C291.571 190.977 295.986 188.419 300.576 185.772V185.785ZM287.808 212.173C292.461 209.514 296.588 207.094 300.764 204.786C301.818 204.197 302.169 203.482 302.156 202.34C302.106 198.189 302.156 194.037 302.131 189.886C302.131 189.347 302.006 188.807 301.931 188.18C301.504 188.243 301.228 188.205 301.028 188.318C296.914 190.664 292.8 192.996 288.711 195.392C288.285 195.643 287.846 196.27 287.833 196.734C287.771 201.701 287.796 206.667 287.796 212.186L287.808 212.173ZM271.002 187.929C271.002 192.783 271.002 197.16 271.002 201.55C271.002 202.127 270.864 202.754 271.065 203.256C271.278 203.783 271.717 204.347 272.206 204.635C275.944 206.843 279.719 208.988 283.494 211.132C283.958 211.396 284.497 211.546 285.024 211.759C285.175 211.408 285.312 211.233 285.312 211.07C285.338 206.354 285.388 201.638 285.312 196.922C285.312 196.333 284.66 195.543 284.096 195.204C280.434 193.009 276.709 190.902 272.996 188.782C272.52 188.519 271.993 188.356 271.015 187.942L271.002 187.929Z" fill="#0E2B5C"/>
</svg>
