<svg width="427" height="383" viewBox="0 0 427 383" fill="none" xmlns="http://www.w3.org/2000/svg">
<path d="M84.3502 376.721C84.351 374.17 84.0348 371.629 83.4089 369.157C83.6248 369.162 83.8407 369.144 84.0526 369.103C83.8322 369.062 83.6081 369.044 83.384 369.05C81.8271 363.031 78.4925 357.622 73.8153 353.527C69.1381 349.432 63.3354 346.842 57.164 346.094V285.027H50.1469V346.054C42.5941 346.889 35.614 350.478 30.5411 356.135C25.4681 361.793 22.6581 369.121 22.6484 376.72H23.6404C23.6397 374.166 23.9674 371.622 24.6154 369.152C27.2364 369.271 39.4213 369.362 54.0714 369.362C67.182 369.362 78.3191 369.288 82.3942 369.188C83.0352 371.648 83.3591 374.179 83.3583 376.721H84.3502ZM50.1476 347.055V368.848C37.3412 368.863 27.0814 368.947 24.6434 369.055C26.1955 363.252 29.4579 358.051 34.0064 354.127C38.5549 350.203 44.1789 347.739 50.1469 347.055H50.1476ZM57.1648 368.846V347.097C63.0651 347.836 68.6113 350.316 73.0961 354.221C77.5809 358.126 80.801 363.278 82.3457 369.02C78.5608 368.922 68.861 368.857 57.164 368.848L57.1648 368.846Z" fill="url(#paint0_linear_3045_1289)"/>
<path d="M322.82 374.646C322.81 367.048 320 359.719 314.927 354.061C309.854 348.404 302.874 344.815 295.321 343.98V282.953H288.304V344.019C282.133 344.766 276.33 347.357 271.653 351.452C266.976 355.546 263.641 360.956 262.083 366.974C261.86 366.969 261.636 366.987 261.416 367.028C261.627 367.069 261.843 367.087 262.058 367.082C261.433 369.554 261.117 372.095 261.117 374.646H262.11C262.108 372.104 262.432 369.573 263.074 367.114C267.145 367.214 278.284 367.286 291.397 367.286C306.047 367.286 318.232 367.196 320.853 367.076C321.501 369.547 321.828 372.09 321.828 374.644L322.82 374.646ZM288.304 345.02V366.77C276.607 366.78 266.906 366.848 263.123 366.94C264.668 361.198 267.888 356.047 272.373 352.143C276.858 348.239 282.404 345.759 288.304 345.02ZM295.321 366.77V344.977C301.289 345.661 306.913 348.125 311.462 352.049C316.01 355.972 319.273 361.173 320.825 366.976C318.387 366.872 308.128 366.787 295.323 366.773L295.321 366.77Z" fill="url(#paint1_linear_3045_1289)"/>
<path d="M217.723 95.7598H146.578V149.639H217.723V95.7598Z" fill="#F5F5F5"/>
<path d="M147.808 119.004C147.662 119.027 147.514 119.035 147.367 119.029L146.074 119.034L141.168 118.989L123.628 118.706H123.418V118.495C123.408 111.039 123.395 102.193 123.383 92.7353C123.411 78.9574 123.436 66.4874 123.456 57.4151C123.49 52.9256 123.517 49.2789 123.536 46.7115C123.555 45.4786 123.571 44.5072 123.583 43.8018L123.607 43.045C123.604 42.9585 123.613 42.8721 123.633 42.7878C123.652 42.8721 123.661 42.9585 123.658 43.045L123.683 43.8018C123.694 44.5058 123.711 45.4786 123.73 46.7115C123.749 49.2789 123.776 52.9256 123.809 57.4151C123.828 66.4882 123.854 78.9581 123.882 92.7353C123.87 102.193 123.857 111.039 123.847 118.495L123.638 118.282C130.875 118.472 136.907 118.63 141.173 118.744L146.078 118.906L147.368 118.965C147.516 118.964 147.663 118.977 147.808 119.004Z" fill="#0E314C"/>
<path d="M251.917 78.0523C251.71 78.0908 251.5 78.1076 251.29 78.1023L249.493 78.1493L242.885 78.2287L221.082 78.3021L208.453 78.2801L208.681 78.053C208.644 83.3861 208.613 87.919 208.59 91.1888C208.564 92.7465 208.542 94.0015 208.526 94.9281C208.512 95.3256 208.501 95.6525 208.491 95.92C208.495 96.0351 208.482 96.1501 208.454 96.2616C208.425 96.1501 208.413 96.0351 208.416 95.92C208.407 95.6525 208.395 95.3248 208.381 94.9281C208.365 94.0015 208.343 92.7465 208.317 91.1888C208.295 87.919 208.263 83.3861 208.227 78.053V77.826H208.456L221.084 77.804L242.888 77.8774L249.496 77.9561L251.293 78.0031C251.502 77.9972 251.711 78.0138 251.917 78.0523Z" fill="#0E314C"/>
<path d="M147.094 137.21C146.98 137.229 146.864 137.236 146.749 137.232L145.739 137.248L141.855 137.26L127.572 137.211L80.4519 136.859L42.9634 136.477H42.8282L42.7753 136.354C39.3218 128.277 36.4562 121.585 34.448 116.876L32.1599 111.439C31.9108 110.831 31.719 110.355 31.5721 110.005C31.4984 109.843 31.4377 109.676 31.3906 109.505C31.4825 109.657 31.5626 109.816 31.6302 109.98L32.2731 111.389C32.8367 112.659 33.642 114.475 34.6648 116.778L43.153 136.186L42.9656 136.062L80.4541 136.355L127.574 136.853L141.855 137.061L145.738 137.143L146.748 137.177C146.864 137.177 146.98 137.188 147.094 137.21Z" fill="#0E314C"/>
<path d="M49.8718 136.473C49.8718 137.046 49.7589 137.613 49.5397 138.143C49.3204 138.672 48.9991 139.153 48.594 139.558C48.1889 139.963 47.708 140.284 47.1787 140.503C46.6495 140.722 46.0822 140.835 45.5094 140.835C44.9366 140.835 44.3695 140.722 43.8403 140.503C43.3112 140.284 42.8304 139.962 42.4255 139.557C42.0205 139.152 41.6993 138.672 41.4802 138.142C41.2611 137.613 41.1483 137.046 41.1484 136.473C41.1483 135.9 41.2611 135.333 41.4802 134.804C41.6993 134.275 42.0205 133.794 42.4254 133.389C42.8304 132.984 43.3111 132.662 43.8403 132.443C44.3694 132.224 44.9366 132.111 45.5094 132.111C46.6663 132.111 47.7759 132.57 48.594 133.389C49.4121 134.207 49.8718 135.316 49.8718 136.473Z" fill="#E1E1E1"/>
<path d="M34.4878 111.362H8.22742C6.46185 111.362 4.7686 110.66 3.52015 109.412C2.27169 108.164 1.57031 106.47 1.57031 104.705C1.57022 103.831 1.74235 102.965 2.07686 102.157C2.41138 101.349 2.90173 100.615 3.51992 99.9972C4.13811 99.379 4.87205 98.8887 5.67977 98.5542C6.4875 98.2197 7.35317 98.0475 8.22742 98.0476H34.4878C35.3621 98.0475 36.2278 98.2197 37.0355 98.5542C37.8433 98.8887 38.5773 99.379 39.1955 99.9972C39.8138 100.615 40.3042 101.349 40.6388 102.157C40.9734 102.965 41.1456 103.83 41.1456 104.705C41.1454 106.47 40.4439 108.164 39.1953 109.412C37.9467 110.661 36.2534 111.362 34.4878 111.362Z" fill="#0E2B5C"/>
<path d="M79.7112 37.8552H18.5547V78.4614H79.7112V37.8552Z" fill="#F5F5F5"/>
<path d="M92.6099 50.0967H52V66.22H92.6099V50.0967Z" fill="#FC5546"/>
<path d="M44.5066 50.7941C44.5066 50.9322 40.2507 51.0446 35.0037 51.0446C29.7566 51.0446 25.5 50.9322 25.5 50.7941C25.5 50.6559 29.7537 50.5442 35.0037 50.5442C40.2537 50.5442 44.5066 50.6559 44.5066 50.7941Z" fill="#E1E1E1"/>
<path d="M44.5066 53.7398C44.5066 53.8779 40.2507 53.9889 35.0037 53.9889C29.7566 53.9889 25.5 53.8779 25.5 53.7398C25.5 53.6016 29.7537 53.4893 35.0037 53.4893C40.2537 53.4893 44.5066 53.6016 44.5066 53.7398Z" fill="#E1E1E1"/>
<path d="M44.5066 56.6846C44.5066 56.8228 40.2507 56.9351 35.0037 56.9351C29.7566 56.9351 25.5 56.8228 25.5 56.6846C25.5 56.5465 29.7537 56.4355 35.0037 56.4355C40.2537 56.4355 44.5066 56.548 44.5066 56.6846Z" fill="#E1E1E1"/>
<path d="M44.5066 59.6304C44.5066 59.7686 40.2507 59.8803 35.0037 59.8803C29.7566 59.8803 25.5 59.7693 25.5 59.6304C25.5 59.4916 29.7537 59.3813 35.0037 59.3813C40.2537 59.3813 44.5066 59.4923 44.5066 59.6304Z" fill="#E1E1E1"/>
<path d="M44.5066 62.5777C44.5066 62.7151 40.2507 62.8275 35.0037 62.8275C29.7566 62.8275 25.5 62.7151 25.5 62.5777C25.5 62.4403 29.7537 62.3271 35.0037 62.3271C40.2537 62.3271 44.5066 62.4395 44.5066 62.5777Z" fill="#E1E1E1"/>
<path d="M36.6686 65.5233C36.6686 65.6615 34.1704 65.7739 31.0843 65.7739C27.9982 65.7739 25.5 65.6615 25.5 65.5233C25.5 65.3852 27.9982 65.2742 31.0843 65.2742C34.1704 65.2742 36.6686 65.3852 36.6686 65.5233Z" fill="#E1E1E1"/>
<path d="M79.227 43.8152C79.227 43.9534 65.6439 44.0659 48.8923 44.0659C32.1408 44.0659 18.5547 43.9534 18.5547 43.8152C18.5547 43.6771 32.1349 43.5662 48.8923 43.5662C65.6497 43.5662 79.227 43.6786 79.227 43.8152Z" fill="#E1E1E1"/>
<path d="M189.18 80.9074C189.163 80.7611 189.154 80.6138 189.156 80.4665C189.149 80.1506 189.141 79.7413 189.131 79.2276C189.118 78.1115 189.098 76.5501 189.074 74.5816C189.047 70.5741 189.009 64.9237 188.964 58.16L189.18 58.3761L166.434 58.4099C166.377 58.4635 166.905 57.9388 166.682 58.1644V59.7141C166.682 60.2304 166.682 60.7448 166.682 61.2572C166.682 62.281 166.682 63.2947 166.682 64.2984C166.682 66.3068 166.68 68.2662 166.676 70.1766C166.666 73.9975 166.659 77.598 166.651 80.9045L166.435 80.6884L182.857 80.7987L187.502 80.8553L188.741 80.8802C188.889 80.8786 189.036 80.887 189.182 80.9052C189.052 80.9242 188.921 80.9323 188.789 80.9294L187.592 80.9545L182.995 81.011L166.435 81.1212H166.219V80.9008C166.211 77.5943 166.203 73.9872 166.194 70.1729C166.194 68.2625 166.192 66.3031 166.187 64.2947C166.187 63.291 166.187 62.2773 166.187 61.2535C166.187 60.7411 166.187 60.2267 166.187 59.7104V58.1608C165.967 58.3813 166.491 57.8522 166.439 57.9065L189.185 57.9404H189.406V58.1563C189.361 64.9766 189.323 70.6755 189.296 74.7161C189.272 76.6633 189.253 78.21 189.24 79.3137C189.229 79.8096 189.22 80.205 189.215 80.5106C189.215 80.6437 189.204 80.7764 189.18 80.9074Z" fill="#0E314C"/>
<path d="M205.21 48.4221H193.836V59.7965H205.21V48.4221Z" fill="#E1E1E1"/>
<path d="M281.863 84.7092H255.602C253.837 84.7092 252.144 84.0079 250.895 82.7594C249.647 81.511 248.945 79.8177 248.945 78.0522C248.945 76.2865 249.647 74.5932 250.895 73.3446C252.144 72.096 253.837 71.3945 255.602 71.3943H281.863C282.737 71.3943 283.603 71.5665 284.411 71.9011C285.218 72.2357 285.952 72.7261 286.571 73.3443C287.189 73.9626 287.679 74.6965 288.014 75.5043C288.348 76.3121 288.521 77.1778 288.521 78.0522C288.52 79.8178 287.819 81.5111 286.57 82.7595C285.322 84.008 283.628 84.7092 281.863 84.7092Z" fill="#0E2B5C"/>
<path d="M208.338 82.499C210.747 82.499 212.7 80.5462 212.7 78.1373C212.7 75.7284 210.747 73.7756 208.338 73.7756C205.929 73.7756 203.977 75.7284 203.977 78.1373C203.977 80.5462 205.929 82.499 208.338 82.499Z" fill="#E1E1E1"/>
<path d="M124.104 122.256C126.513 122.256 128.466 120.303 128.466 117.894C128.466 115.485 126.513 113.532 124.104 113.532C121.695 113.532 119.742 115.485 119.742 117.894C119.742 120.303 121.695 122.256 124.104 122.256Z" fill="#E1E1E1"/>
<path d="M138.313 37.1587H108.935C106.119 37.1587 103.836 39.4414 103.836 42.2573V45.375C103.836 48.1909 106.119 50.4737 108.935 50.4737H138.313C141.128 50.4737 143.411 48.1909 143.411 45.375V42.2573C143.411 39.4414 141.128 37.1587 138.313 37.1587Z" fill="#0E2B5C"/>
<path d="M413.098 5.62329H298.375V211.715H413.098V5.62329Z" fill="#ECECEC"/>
<path d="M407.334 11.5994H302.961V205.576H407.334V11.5994Z" fill="#FAFAFA"/>
<path d="M407.334 13.8846L302.961 146.651V11.5979H407.334V13.8846Z" fill="#F5F5F5"/>
<path d="M409.6 67.4006H302.961V69.4661H409.6V67.4006Z" fill="#ECECEC"/>
<path d="M409.6 113.594H302.961V115.66H409.6V113.594Z" fill="#ECECEC"/>
<path d="M409.6 159.788H302.961V161.853H409.6V159.788Z" fill="#ECECEC"/>
<path d="M352.508 68.4339V211.076H357.781V68.4339H352.508Z" fill="#ECECEC"/>
<path d="M325.436 11.5991H323.047V68.4329H325.436V11.5991Z" fill="#ECECEC"/>
<path d="M346.053 11.5994H343.664V68.4332H346.053V11.5994Z" fill="#ECECEC"/>
<path d="M366.662 11.5994H364.273V68.4332H366.662V11.5994Z" fill="#ECECEC"/>
<path d="M387.264 11.5994H384.875V68.4332H387.264V11.5994Z" fill="#ECECEC"/>
<path d="M298.368 2.12793H293.516V212.991H298.368V2.12793Z" fill="#F5F5F5"/>
<path d="M417.951 213.573L413.102 211.715V2.12793H417.951V213.573Z" fill="#E1E1E1"/>
<path d="M417.943 0H293.516V5.62328H417.943V0Z" fill="#E1E1E1"/>
<path d="M421.241 214.266H290.086V219.505H421.241V214.266Z" fill="#E1E1E1"/>
<path d="M413.1 211.715L421.236 214.266H290.078L298.373 211.715H413.1Z" fill="#ECECEC"/>
<path d="M102.645 285.031H2.28125C2.28125 282.142 3.42897 279.371 5.47197 277.328C7.51496 275.285 10.2859 274.137 13.1751 274.137H91.7511C94.6403 274.137 97.4112 275.285 99.4542 277.328C101.497 279.371 102.645 282.142 102.645 285.031Z" fill="#235F87"/>
<path d="M27.7702 376.16C27.7702 377.387 27.283 378.564 26.4157 379.432C25.5484 380.3 24.3719 380.788 23.1448 380.789C21.9171 380.789 20.7396 380.301 19.8715 379.433C19.0034 378.565 18.5156 377.387 18.5156 376.16C18.5168 374.933 19.005 373.756 19.873 372.889C20.741 372.022 21.9178 371.535 23.1448 371.535C23.7522 371.535 24.3536 371.654 24.9148 371.887C25.476 372.119 25.9859 372.46 26.4154 372.889C26.8449 373.319 27.1857 373.828 27.4181 374.39C27.6506 374.951 27.7702 375.552 27.7702 376.16Z" fill="#0E314C"/>
<path d="M88.6842 376.372C88.6842 377.6 88.197 378.776 87.3297 379.644C86.4624 380.512 85.2859 381.001 84.0588 381.002C82.8311 381.002 81.6536 380.514 80.7855 379.646C79.9174 378.778 79.4297 377.6 79.4297 376.372C79.4307 375.145 79.9188 373.969 80.7868 373.102C81.6548 372.234 82.8317 371.747 84.0588 371.747C84.6662 371.747 85.2677 371.867 85.829 372.099C86.3902 372.331 86.9002 372.672 87.3297 373.102C87.7592 373.531 88.0999 374.041 88.3324 374.602C88.5648 375.164 88.6843 375.765 88.6842 376.372Z" fill="#375A64"/>
<path d="M1.64857e-07 201.795V263.686C1.64857e-07 267.584 1.54827 271.322 4.30423 274.078C7.0602 276.834 10.7981 278.382 14.6956 278.382H62.3829L55.9043 201.794C55.9044 200.933 55.7351 200.081 55.4059 199.287C55.0768 198.492 54.5944 197.77 53.9862 197.162C53.3779 196.553 52.6559 196.071 51.8612 195.742C51.0664 195.412 50.2147 195.243 49.3545 195.243H6.55055C5.6902 195.243 4.83829 195.412 4.04345 195.742C3.2486 196.071 2.52638 196.554 1.91808 197.162C1.30979 197.77 0.827321 198.493 0.498211 199.288C0.1691 200.083 -0.000192848 200.935 1.64857e-07 201.795Z" fill="#235F87"/>
<path d="M16.8526 274.134C16.6562 273.957 16.4783 273.76 16.3214 273.547C15.9826 273.154 15.5131 272.552 14.9444 271.748C13.3519 269.459 12.0994 266.951 11.2257 264.303C10.6148 262.475 10.1866 260.592 9.94716 258.68C9.7241 256.486 9.64114 254.281 9.69879 252.077C9.69291 247.432 9.6863 242.335 9.67969 236.984C9.70761 226.296 9.73331 216.622 9.75315 209.561C9.78548 206.09 9.81341 203.264 9.83325 201.251C9.85235 200.306 9.86777 199.553 9.87953 198.991C9.87389 198.728 9.89087 198.464 9.93025 198.204C9.96889 198.464 9.9856 198.728 9.98021 198.991C9.99246 199.554 10.0081 200.307 10.0272 201.251C10.0463 203.263 10.0735 206.09 10.1073 209.561C10.1264 216.622 10.1522 226.296 10.1808 236.984C10.1742 242.335 10.1676 247.432 10.1617 252.077C10.0919 254.263 10.1586 256.452 10.3615 258.63C10.5814 260.519 10.9842 262.383 11.5644 264.194C12.4018 266.825 13.5941 269.33 15.1082 271.639C15.6476 272.455 16.0907 273.073 16.4037 273.483C16.5673 273.69 16.7172 273.908 16.8526 274.134Z" fill="#0E314C"/>
<path d="M42.8135 273.949C42.3125 274.029 41.8056 274.065 41.2983 274.058L37.1674 274.166C33.6794 274.239 28.8644 274.298 23.5402 274.336L16.0329 274.386C14.0049 274.326 11.977 274.51 9.99302 274.934C8.66958 275.257 7.42675 275.849 6.3419 276.673C5.56965 277.256 5.22429 277.68 5.18093 277.637C5.16844 277.625 5.24998 277.518 5.41898 277.322C5.66056 277.032 5.92845 276.764 6.2192 276.522C7.2883 275.614 8.54598 274.955 9.90117 274.593C11.9055 274.111 13.9631 273.887 16.0241 273.925C18.3247 273.865 20.8671 273.862 23.5284 273.837C28.8541 273.799 33.6765 273.793 37.166 273.812L41.2991 273.862C41.8055 273.848 42.3121 273.877 42.8135 273.949Z" fill="#0E314C"/>
<path d="M149.103 169.383L144.451 174.159L135.133 164.232L138.231 158.927C138.397 158.251 138.567 157.496 138.73 156.636C138.919 155.631 138.938 154.602 138.788 153.592C138.649 152.331 138.341 151.095 137.871 149.918C137.334 148.889 138.295 147.731 139.226 148.195C140.158 148.658 141.702 151.463 141.921 155.212C142.14 158.961 145.501 154.183 146.756 152.467C148.01 150.75 152.138 145.624 152.961 145.604C154.168 145.577 154.43 146.898 153.136 148.582C151.827 150.289 148.316 155.603 149.236 156.244L149.273 156.24C150.215 156.136 151.165 156.329 151.992 156.792C152.818 157.255 153.479 157.966 153.882 158.823C154.679 160.518 155.55 162.905 154.729 163.939C152.975 165.875 151.095 167.693 149.103 169.383Z" fill="#C78976"/>
<path d="M135.136 164.231L101.68 191.775L115.116 210.536L144.451 174.158L135.136 164.231Z" fill="#C78976"/>
<path d="M152.398 157.046C151.907 157.723 151.348 158.349 150.731 158.914L148.825 160.844L147.685 161.972C147.476 162.217 147.221 162.417 146.934 162.561C146.647 162.705 146.334 162.79 146.013 162.811C145.829 162.799 145.651 162.745 145.492 162.651C145.333 162.558 145.199 162.429 145.099 162.274C144.918 161.99 144.833 161.655 144.855 161.319C144.94 160.734 145.215 160.194 145.638 159.78C146.253 159.107 146.905 158.47 147.592 157.87C148.191 157.279 148.873 156.778 149.616 156.382C149.055 156.998 148.46 157.582 147.832 158.129C147.287 158.666 146.646 159.325 145.986 160.082C145.645 160.427 145.421 160.869 145.345 161.348C145.31 161.569 145.364 161.796 145.496 161.978C145.627 162.16 145.826 162.282 146.048 162.317C146.553 162.256 147.017 162.008 147.348 161.621L148.504 160.519C149.216 159.853 149.88 159.233 150.488 158.667C151.068 158.063 151.709 157.521 152.398 157.046Z" fill="#BF654E"/>
<path d="M153.599 159.472C153.13 160.126 152.594 160.73 152 161.274L150.167 163.13C149.81 163.475 149.477 163.842 149.045 164.215C148.819 164.411 148.563 164.568 148.287 164.682C147.966 164.816 147.605 164.818 147.283 164.688C146.986 164.53 146.752 164.275 146.621 163.965C146.491 163.654 146.472 163.308 146.568 162.986C146.739 162.457 147.039 161.979 147.441 161.596C148.038 160.955 148.669 160.346 149.33 159.772C149.908 159.205 150.566 158.725 151.283 158.349C150.748 158.945 150.175 159.507 149.569 160.031C149.042 160.546 148.427 161.176 147.782 161.904C147.444 162.24 147.191 162.651 147.044 163.103C146.982 163.313 146.992 163.538 147.071 163.741C147.151 163.945 147.297 164.116 147.485 164.228C147.872 164.405 148.357 164.15 148.739 163.836C149.121 163.522 149.493 163.128 149.85 162.8L151.76 161.02C152.318 160.441 152.934 159.922 153.599 159.472Z" fill="#BF654E"/>
<path d="M154.942 161.763C154.496 162.395 153.983 162.976 153.412 163.496C152.869 164.047 152.284 164.641 151.656 165.279C151.312 165.655 150.932 165.994 150.519 166.293C150.27 166.464 149.982 166.571 149.682 166.604C149.512 166.619 149.342 166.597 149.181 166.54C149.021 166.483 148.875 166.392 148.754 166.273C148.541 166.04 148.402 165.749 148.354 165.438C148.307 165.126 148.352 164.807 148.485 164.521C148.712 164.051 149.023 163.626 149.402 163.266C149.979 162.656 150.588 162.076 151.225 161.528C151.781 160.985 152.414 160.528 153.105 160.172C152.595 160.748 152.047 161.288 151.464 161.789C150.956 162.283 150.365 162.884 149.741 163.578C149.411 163.906 149.14 164.287 148.937 164.706C148.846 164.902 148.813 165.121 148.843 165.335C148.872 165.55 148.963 165.751 149.103 165.915C149.27 166.044 149.476 166.111 149.687 166.104C149.897 166.097 150.099 166.017 150.256 165.878C150.644 165.602 151.005 165.29 151.335 164.947L153.165 163.242C153.702 162.685 154.298 162.19 154.942 161.763Z" fill="#BF654E"/>
<path d="M144.326 167.551C144.37 167.077 144.446 166.606 144.551 166.142C144.696 165.029 144.583 163.897 144.222 162.835C143.842 161.778 143.224 160.822 142.415 160.043C141.794 159.437 141.323 159.149 141.362 159.08C141.387 159.027 141.93 159.209 142.649 159.777C143.586 160.533 144.294 161.535 144.693 162.67C145.088 163.807 145.159 165.032 144.898 166.207C144.835 166.699 144.638 167.164 144.326 167.551Z" fill="#BF654E"/>
<path d="M78.1814 195.398L83.1691 245.51L21.6092 246.853L21.9428 206.513L17.4922 171.724C20.4122 155.447 43.2286 154.328 43.2286 154.328L61.1352 154.034C67.2622 153.592 73.3848 154.951 78.7494 157.944C78.7494 157.944 96.9279 167.837 96.7618 192.977" fill="#FC5546"/>
<path d="M22.1816 163.243C16.8103 168.378 11.6066 178.687 13.5354 199.325L42.1632 198.145L41.4284 169.906C41.3915 168.494 41.0412 167.107 40.4027 165.846C39.7643 164.586 38.8537 163.482 37.7369 162.617C35.4958 160.848 32.6961 159.939 29.8435 160.054C26.9908 160.168 24.2733 161.3 22.1816 163.243Z" fill="#FC5546"/>
<g opacity="0.2">
<path d="M21.6797 237.983C21.8781 238.151 21.7216 238.02 21.9266 238.179C25.2883 240.736 29.2967 242.304 33.5011 242.708C37.7054 243.112 41.9391 242.335 45.7261 240.464C48.616 238.976 51.19 236.847 54.2658 235.798C58.6348 234.307 63.4079 235.175 67.9657 235.901C72.5236 236.627 77.9676 237.12 82.0919 235.047L81.5541 228.72L21.8325 230.279" fill="url(#paint2_linear_3045_1289)"/>
</g>
<path d="M82.1805 377.494L82.0336 371.506L66.0234 372.06L66.1131 381.408L67.1021 381.474C71.5034 381.726 89.5004 382.45 92.4447 381.563C95.7299 380.573 82.1805 377.494 82.1805 377.494Z" fill="#00B1E0"/>
<g opacity="0.5">
<path d="M71.915 381.294C71.7237 379.929 71.0391 378.682 69.9906 377.787C69.4633 377.325 68.8382 376.987 68.1621 376.8C67.4859 376.612 66.7762 376.58 66.0859 376.706L66.1477 381.179L71.915 381.294Z" fill="#235F87"/>
</g>
<path opacity="0.5" d="M88.7957 379.235C88.7957 379.235 93.5439 380.615 92.9502 381.397C92.3565 382.178 74.1398 382.131 66.1094 381.408L66.1351 381.051L87.3805 381.286C87.3805 381.286 87.867 379.272 88.7957 379.235Z" fill="#235F87"/>
<path d="M65.9141 381.04C66.0043 381.059 66.096 381.069 66.1881 381.071L66.9758 381.121L69.8753 381.252C72.3235 381.347 75.7087 381.432 79.448 381.445C83.1873 381.457 86.5754 381.394 89.0236 381.315L91.9231 381.202L92.7115 381.158C92.8033 381.157 92.8949 381.148 92.9848 381.13C92.8935 381.118 92.8012 381.115 92.7093 381.12L91.9209 381.127L89.02 381.179C86.5709 381.222 83.1873 381.263 79.4494 381.252C75.7116 381.241 72.3287 381.179 69.8797 381.116L66.9795 381.043L66.191 381.03C66.0986 381.025 66.0059 381.028 65.9141 381.04Z" fill="#1A2E35"/>
<path d="M87.4045 381.534C87.533 381.054 87.716 380.59 87.9498 380.151C88.2371 379.746 88.5696 379.374 88.941 379.044C88.4451 379.226 88.0338 379.584 87.7859 380.05C87.4802 380.481 87.3445 381.009 87.4045 381.534Z" fill="#1A2E35"/>
<path d="M82.6721 379.134C82.7169 379.163 82.9425 378.89 83.1769 378.523C83.4113 378.157 83.5634 377.837 83.5186 377.808C83.4738 377.78 83.2482 378.053 83.0138 378.419C82.7794 378.786 82.6265 379.106 82.6721 379.134Z" fill="#1A2E35"/>
<path d="M81.3948 378.448C81.4315 378.487 81.6828 378.319 81.9576 378.074C82.2324 377.828 82.4278 377.596 82.3918 377.556C82.3558 377.515 82.1038 377.684 81.829 377.93C81.5542 378.176 81.3595 378.407 81.3948 378.448Z" fill="#1A2E35"/>
<path d="M80.6172 376.939C80.8828 377.037 81.1671 377.074 81.449 377.047C81.7301 377.081 82.0153 377.052 82.2837 376.962C82.0182 376.863 81.7338 376.826 81.4519 376.854C81.1708 376.819 80.8855 376.848 80.6172 376.939Z" fill="#1A2E35"/>
<path d="M80.3047 375.877C80.5788 376.061 80.9028 376.156 81.2327 376.15C81.5578 376.207 81.8927 376.164 82.1924 376.025C81.8804 375.973 81.5643 375.95 81.2481 375.957C80.9367 375.902 80.6209 375.875 80.3047 375.877Z" fill="#1A2E35"/>
<path d="M83.25 377.744C83.5891 377.802 83.9356 377.801 84.2743 377.741C84.6448 377.695 85.0104 377.616 85.3662 377.503C85.5836 377.441 85.7934 377.355 85.9915 377.246C86.1136 377.177 86.2048 377.063 86.2464 376.929C86.2628 376.853 86.257 376.774 86.2296 376.701C86.2023 376.628 86.1545 376.564 86.0921 376.518C85.7013 376.326 85.2559 376.274 84.8317 376.374C84.4075 376.473 84.0308 376.716 83.7658 377.062C83.6071 377.264 83.4926 377.497 83.43 377.746C83.3977 377.834 83.3881 377.929 83.4021 378.022C83.508 377.707 83.6668 377.411 83.8716 377.149C84.1035 376.879 84.4085 376.682 84.7497 376.582C84.9488 376.515 85.1593 376.488 85.3689 376.502C85.5785 376.517 85.7832 376.573 85.9709 376.668C86.1333 376.789 86.0694 376.98 85.8886 377.088C85.7051 377.189 85.5115 377.271 85.3111 377.332C84.9664 377.45 84.6131 377.541 84.2544 377.605C83.6402 377.713 83.2493 377.713 83.25 377.744Z" fill="#1A2E35"/>
<path d="M83.4977 377.795C83.6242 377.581 83.6669 377.328 83.6175 377.084C83.5867 376.815 83.4917 376.558 83.3405 376.334C83.2548 376.181 83.1314 376.053 82.9821 375.961C82.8328 375.869 82.6625 375.817 82.4874 375.809C82.3834 375.831 82.2922 375.893 82.2331 375.982C82.174 376.07 82.1516 376.178 82.1708 376.282C82.1941 376.446 82.253 376.603 82.3434 376.741C82.4775 376.968 82.6397 377.177 82.8262 377.363C82.9847 377.548 83.1867 377.691 83.414 377.779C83.4316 377.754 83.2097 377.595 82.9276 377.27C82.7642 377.08 82.6212 376.873 82.5007 376.654C82.3603 376.433 82.2648 376.047 82.522 376.001C82.7791 375.977 83.04 376.233 83.1965 376.438C83.34 376.637 83.4383 376.864 83.4845 377.105C83.5107 377.334 83.5151 377.565 83.4977 377.795Z" fill="#1A2E35"/>
<path d="M66.2422 376.676C66.2459 376.713 66.7 376.634 67.4179 376.721C68.3568 376.833 69.2467 377.202 69.9896 377.787C70.7218 378.385 71.2756 379.173 71.5907 380.065C71.8317 380.75 71.8545 381.21 71.8897 381.205C71.9092 381.098 71.9092 380.99 71.8897 380.883C71.8622 380.591 71.8046 380.303 71.7178 380.023C71.4303 379.086 70.8697 378.256 70.1079 377.64C69.3399 377.031 68.408 376.665 67.4311 376.589C67.1385 376.565 66.8442 376.571 66.553 376.608C66.4463 376.613 66.3412 376.636 66.2422 376.676Z" fill="#1A2E35"/>
<path d="M73.9297 379.742C74.6923 379.922 75.4751 380.001 76.2582 379.979C77.0404 380.02 77.8247 379.959 78.5911 379.797C78.5867 379.742 77.5448 379.803 76.2597 379.785C74.9746 379.768 73.9363 379.686 73.9297 379.742Z" fill="#1A2E35"/>
<path d="M70.8123 379.73C70.7726 379.769 70.8968 379.951 71.0033 380.191C71.1098 380.431 71.1664 380.642 71.2237 380.638C71.281 380.633 71.3075 380.387 71.1818 380.111C71.0562 379.835 70.8468 379.692 70.8123 379.73Z" fill="#1A2E35"/>
<path d="M69.633 378.261C69.5948 378.299 69.6969 378.465 69.8615 378.633C70.0261 378.8 70.1907 378.906 70.2289 378.868C70.2671 378.831 70.165 378.665 69.9996 378.497C69.8343 378.33 69.6683 378.224 69.633 378.261Z" fill="#1A2E35"/>
<path d="M67.9539 377.587C67.9656 377.641 68.1743 377.64 68.4109 377.723C68.6475 377.806 68.8136 377.931 68.8562 377.895C68.8988 377.859 68.7651 377.638 68.4741 377.54C68.1831 377.441 67.9377 377.538 67.9539 377.587Z" fill="#1A2E35"/>
<path d="M66.7448 377.266C66.725 377.316 66.8183 377.399 66.9491 377.451C67.0799 377.502 67.2041 377.504 67.2232 377.451C67.2423 377.398 67.1497 377.319 67.019 377.268C66.8882 377.216 66.764 377.218 66.7448 377.266Z" fill="#1A2E35"/>
<path d="M134.685 376.622L134.534 370.492L118.148 371.058L118.24 380.627L119.251 380.693C123.756 380.952 142.176 381.691 145.189 380.785C148.551 379.773 134.685 376.622 134.685 376.622Z" fill="#00B1E0"/>
<g opacity="0.5">
<path d="M124.177 380.531C123.982 379.133 123.28 377.856 122.207 376.941C121.667 376.468 121.027 376.122 120.335 375.931C119.644 375.739 118.917 375.706 118.211 375.835L118.274 380.413L124.177 380.531Z" fill="#235F87"/>
</g>
<path opacity="0.5" d="M141.461 378.423C141.461 378.423 146.32 379.836 145.713 380.634C145.106 381.433 126.461 381.387 118.242 380.646L118.269 380.279L140.013 380.52C140.013 380.52 140.51 378.461 141.461 378.423Z" fill="#235F87"/>
<path d="M118.039 380.269C118.131 380.288 118.225 380.298 118.319 380.299L119.127 380.35L122.094 380.485C124.6 380.582 128.064 380.67 131.891 380.683C135.718 380.696 139.185 380.63 141.691 380.551L144.659 380.435L145.468 380.389C145.562 380.388 145.656 380.378 145.749 380.359C145.656 380.347 145.561 380.344 145.467 380.349C145.224 380.349 144.959 380.353 144.659 380.358L141.69 380.41C139.183 380.455 135.72 380.496 131.894 380.484C128.068 380.471 124.607 380.405 122.101 380.345L119.132 380.272L118.323 380.258C118.229 380.253 118.133 380.256 118.039 380.269Z" fill="#1A2E35"/>
<path d="M140.022 380.776C140.154 380.284 140.341 379.81 140.58 379.361C140.874 378.945 141.214 378.565 141.595 378.228C141.087 378.413 140.666 378.779 140.412 379.256C140.099 379.698 139.96 380.239 140.022 380.776Z" fill="#1A2E35"/>
<path d="M135.211 378.32C135.257 378.35 135.488 378.069 135.725 377.695C135.962 377.32 136.121 376.992 136.076 376.963C136.03 376.935 135.799 377.214 135.561 377.588C135.324 377.962 135.166 378.29 135.211 378.32Z" fill="#1A2E35"/>
<path d="M133.879 377.618C133.916 377.658 134.173 377.487 134.456 377.235C134.739 376.983 134.937 376.746 134.897 376.705C134.857 376.665 134.603 376.836 134.32 377.087C134.037 377.339 133.843 377.576 133.879 377.618Z" fill="#1A2E35"/>
<path d="M133.031 376.074C133.303 376.175 133.594 376.213 133.882 376.185C134.17 376.221 134.462 376.191 134.737 376.098C134.465 375.997 134.174 375.959 133.885 375.987C133.597 375.952 133.306 375.981 133.031 376.074Z" fill="#1A2E35"/>
<path d="M132.75 374.988C133.031 375.177 133.362 375.274 133.7 375.267C134.033 375.325 134.375 375.281 134.682 375.139C134.362 375.086 134.039 375.063 133.715 375.07C133.397 375.013 133.074 374.986 132.75 374.988Z" fill="#1A2E35"/>
<path d="M135.734 376.897C136.082 376.956 136.437 376.955 136.784 376.893C137.163 376.846 137.537 376.764 137.901 376.649C138.124 376.586 138.338 376.498 138.541 376.387C138.666 376.315 138.759 376.199 138.801 376.061C138.818 375.983 138.813 375.902 138.785 375.828C138.757 375.753 138.708 375.688 138.644 375.641C138.244 375.443 137.788 375.391 137.353 375.493C136.919 375.595 136.534 375.844 136.263 376.198C136.1 376.405 135.983 376.643 135.918 376.898C135.886 376.989 135.876 377.086 135.89 377.181C135.998 376.858 136.16 376.555 136.371 376.287C136.608 376.011 136.92 375.81 137.269 375.707C137.472 375.638 137.688 375.611 137.902 375.626C138.116 375.641 138.326 375.699 138.518 375.795C138.684 375.919 138.618 376.115 138.433 376.224C138.246 376.328 138.049 376.412 137.845 376.475C137.493 376.596 137.131 376.689 136.765 376.754C136.134 376.864 135.734 376.864 135.734 376.897Z" fill="#1A2E35"/>
<path d="M136.053 376.95C136.183 376.73 136.227 376.471 136.176 376.221C136.144 375.947 136.047 375.684 135.892 375.454C135.804 375.298 135.678 375.167 135.525 375.073C135.373 374.979 135.199 374.925 135.02 374.917C134.913 374.94 134.82 375.003 134.759 375.093C134.698 375.183 134.675 375.294 134.694 375.401C134.718 375.568 134.779 375.728 134.872 375.87C135.008 376.102 135.174 376.316 135.366 376.506C135.528 376.695 135.733 376.841 135.965 376.933C135.984 376.907 135.757 376.744 135.468 376.411C135.3 376.217 135.152 376.005 135.027 375.781C134.884 375.56 134.786 375.16 135.049 375.113C135.312 375.088 135.58 375.35 135.739 375.56C135.886 375.763 135.986 375.996 136.033 376.242C136.062 376.477 136.069 376.714 136.053 376.95Z" fill="#1A2E35"/>
<path d="M118.336 375.804C118.34 375.841 118.803 375.76 119.541 375.85C120.501 375.965 121.411 376.343 122.171 376.941C122.92 377.552 123.487 378.358 123.809 379.27C124.057 379.97 124.08 380.441 124.116 380.436C124.136 380.328 124.136 380.216 124.116 380.107C124.089 379.808 124.03 379.512 123.941 379.225C123.646 378.267 123.073 377.418 122.293 376.787C121.508 376.164 120.554 375.789 119.554 375.711C119.255 375.686 118.954 375.693 118.656 375.731C118.546 375.736 118.438 375.761 118.336 375.804Z" fill="#1A2E35"/>
<path d="M126.242 378.944C127.023 379.127 127.824 379.209 128.625 379.186C129.426 379.228 130.229 379.166 131.014 379.001C131.008 378.944 129.943 379.006 128.628 378.989C127.314 378.971 126.249 378.887 126.242 378.944Z" fill="#1A2E35"/>
<path d="M122.992 378.93C122.952 378.971 123.078 379.157 123.187 379.402C123.296 379.648 123.354 379.864 123.407 379.86C123.461 379.856 123.493 379.603 123.364 379.321C123.235 379.039 123.028 378.892 122.992 378.93Z" fill="#1A2E35"/>
<path d="M121.805 377.426C121.766 377.464 121.871 377.634 122.039 377.806C122.208 377.977 122.376 378.085 122.416 378.047C122.455 378.009 122.349 377.839 122.18 377.667C122.011 377.495 121.844 377.387 121.805 377.426Z" fill="#1A2E35"/>
<path d="M120.087 376.737C120.098 376.791 120.315 376.79 120.555 376.876C120.794 376.961 120.966 377.089 121.01 377.051C121.053 377.014 120.916 376.788 120.618 376.687C120.32 376.587 120.071 376.686 120.087 376.737Z" fill="#1A2E35"/>
<path d="M118.885 376.409C118.866 376.46 118.959 376.544 119.095 376.597C119.231 376.65 119.356 376.652 119.376 376.601C119.396 376.55 119.303 376.466 119.167 376.413C119.031 376.36 118.905 376.358 118.885 376.409Z" fill="#1A2E35"/>
<path d="M120.986 246.096L55.5859 245.276L69.2572 276.026L106.767 276.313C107.983 276.322 109.15 276.798 110.025 277.642C110.9 278.487 111.418 279.636 111.47 280.851L115.499 374.903L140.799 372.988L138.241 265.323C138.131 260.587 136.332 256.047 133.168 252.521C130.004 248.995 125.684 246.717 120.988 246.096H120.986Z" fill="#0E2B5C"/>
<path d="M58.8195 278.533L61.5969 375.671L92.9721 373.434C92.9721 373.434 91.2424 281.817 88.8955 256.663C87.2893 239.448 21.6036 246.85 21.6036 246.85C20.6484 281.124 58.821 278.532 58.821 278.532" fill="#0E2B5C"/>
<path d="M58.4466 270.94C58.5884 270.931 58.814 272.885 58.9528 275.303C59.0917 277.72 59.0858 279.687 58.9433 279.695C58.8007 279.703 58.5759 277.749 58.437 275.332C58.2982 272.915 58.3033 270.948 58.4466 270.94Z" fill="#0E314C"/>
<path d="M57.3047 245.455C57.4899 245.423 57.6782 245.416 57.8653 245.432L59.4649 245.466C60.8544 245.507 62.8633 245.575 65.3432 245.713C67.8231 245.851 70.7806 246.073 74.0452 246.558C77.624 247.038 81.0603 248.272 84.1271 250.178C84.9236 250.712 85.6502 251.343 86.2903 252.057C86.9115 252.768 87.3909 253.591 87.7026 254.482C88.2271 256.138 88.5751 257.845 88.7408 259.575C89.0129 262.479 89.1341 265.396 89.1038 268.313C89.1038 270.738 89.1075 272.733 89.1082 274.191C89.1141 274.838 89.1178 275.367 89.1214 275.789C89.1363 275.976 89.1279 276.164 89.0965 276.348C89.0474 276.168 89.021 275.982 89.0179 275.795C88.9811 275.428 88.94 274.891 88.9069 274.197C88.8334 272.808 88.7871 270.796 88.7379 268.314C88.6739 265.834 88.6416 262.876 88.2669 259.626C88.0922 257.934 87.7428 256.265 87.2242 254.645C86.5641 252.965 85.3744 251.547 83.8354 250.604C80.8303 248.742 77.4713 247.523 73.971 247.026C70.738 246.519 67.793 246.265 65.3197 246.075L59.4532 245.665L57.858 245.533C57.6711 245.529 57.4853 245.503 57.3047 245.455Z" fill="#235F87"/>
<path d="M13.5312 199.327C13.6962 199.357 13.8645 199.365 14.0316 199.35L15.4622 199.323L20.7196 199.127C25.1584 198.942 31.288 198.651 38.0568 198.301L41.5257 198.119L41.7549 198.107V197.879C41.7233 191.955 41.6954 186.71 41.6741 182.869C41.644 181.032 41.6197 179.534 41.6006 178.42C41.5844 177.942 41.5712 177.546 41.5595 177.222C41.5644 177.082 41.5492 176.941 41.5146 176.805C41.4805 176.941 41.4657 177.082 41.4705 177.222C41.4588 177.546 41.4448 177.941 41.4287 178.42C41.4103 179.534 41.3853 181.032 41.3552 182.869C41.3339 186.714 41.3067 191.955 41.2744 197.879L41.5014 197.64L38.0325 197.816C31.2637 198.167 25.1371 198.512 20.7034 198.785L15.4534 199.134C14.8795 199.181 14.4079 199.221 14.028 199.253C13.86 199.257 13.6931 199.282 13.5312 199.327Z" fill="white"/>
<path d="M26.8047 158.716C27.9122 158.576 29.0303 158.542 30.1443 158.613C32.8223 158.905 35.3204 160.103 37.2254 162.007C39.0865 163.956 40.3483 166.398 40.8603 169.044C41.2718 171.072 41.1873 172.377 41.2791 172.377C41.359 172.081 41.392 171.774 41.3768 171.468C41.3955 170.636 41.3355 169.803 41.1976 168.982C40.7674 166.229 39.5006 163.675 37.5692 161.667C35.5934 159.68 32.966 158.475 30.1714 158.273C29.3361 158.214 28.4968 158.271 27.6769 158.442C27.373 158.484 27.0783 158.577 26.8047 158.716Z" fill="white"/>
<path d="M78.1964 173.156C78.0571 174.052 78.0005 174.958 78.0273 175.864C77.9869 177.544 77.9744 179.897 78.0273 182.473C78.081 184.916 78.1302 187.127 78.1691 188.939C78.1816 189.968 78.1905 190.713 78.1978 191.449C78.2066 190.615 78.2155 189.77 78.2272 188.602C78.2669 186.789 78.3154 184.578 78.369 182.132C78.419 179.658 78.4072 177.439 78.369 175.81C78.394 174.922 78.3362 174.033 78.1964 173.156Z" fill="white"/>
<path d="M16.8516 199.351L17.5393 227.572C17.623 229.125 18.0431 230.641 18.7705 232.015C19.498 233.39 20.5154 234.589 21.7523 235.532C22.9892 236.474 24.4162 237.137 25.9343 237.473C27.4525 237.809 29.0257 237.812 30.5449 237.48L73.2093 225.68L76.4166 209.914L36.5128 217.572L36.0051 198.395L16.8516 199.351Z" fill="#C78976"/>
<path d="M32.0125 224.462C31.8411 224.034 31.7933 223.566 31.8744 223.112C31.9589 222.003 32.3243 220.933 32.9361 220.004C33.5482 219.074 34.3866 218.316 35.3727 217.799C36.128 217.414 36.6504 217.336 36.6681 217.394C36.7467 217.525 34.7084 218.206 33.3535 220.276C31.9868 222.34 32.1653 224.482 32.0125 224.462Z" fill="#BF654E"/>
<path d="M54.869 166.496C56.2195 166.495 57.5565 166.227 58.8026 165.706C60.0487 165.185 61.1792 164.423 62.1287 163.462C63.0781 162.502 63.8276 161.363 64.3339 160.111C64.8401 158.859 65.0931 157.519 65.078 156.168C65.0391 152.619 64.9796 149.551 64.9796 149.551C64.9796 149.551 73.1849 148.79 73.7867 140.67C74.3884 132.549 74.1313 113.804 74.1313 113.804C69.6345 111.534 64.6131 110.505 59.5858 110.825C54.5586 111.144 49.7077 112.8 45.5343 115.621L44.2734 116.472L44.6621 156.386C44.6883 159.076 45.7751 161.647 47.6864 163.54C49.5976 165.433 52.1788 166.495 54.869 166.496Z" fill="#C78976"/>
<path d="M64.9941 149.436C61.2377 149.275 57.6144 147.999 54.5859 145.771C54.5859 145.771 56.7293 151.774 64.8831 151.541L64.9941 149.436Z" fill="#BF654E"/>
<path d="M46.3575 125.452C46.2105 125.395 41.214 124.747 41.6879 130.64C42.1619 136.534 47.9556 134.108 47.952 133.938C47.9483 133.768 46.3575 125.452 46.3575 125.452Z" fill="#C78976"/>
<path d="M45.9904 132.014C45.9625 131.998 45.8934 132.095 45.7259 132.187C45.4904 132.311 45.2159 132.339 44.9602 132.265C44.3195 132.087 43.7162 131.14 43.6024 130.08C43.5465 129.576 43.6045 129.066 43.7721 128.587C43.8126 128.398 43.8983 128.223 44.0219 128.074C44.1454 127.926 44.303 127.811 44.4811 127.737C44.5966 127.696 44.7226 127.697 44.8373 127.74C44.952 127.782 45.0482 127.864 45.1094 127.97C45.2012 128.128 45.1733 128.249 45.2056 128.256C45.224 128.27 45.3247 128.147 45.2578 127.908C45.2132 127.765 45.1213 127.641 44.997 127.557C44.8246 127.447 44.6162 127.41 44.4165 127.452C44.1785 127.52 43.9617 127.647 43.7869 127.822C43.6121 127.998 43.4851 128.214 43.4179 128.452C43.2075 128.983 43.1303 129.557 43.1931 130.124C43.3253 131.308 44.0219 132.371 44.8941 132.549C45.056 132.582 45.2233 132.579 45.3837 132.539C45.5441 132.499 45.6934 132.423 45.8206 132.317C45.9904 132.158 46.0117 132.021 45.9904 132.014Z" fill="#BF654E"/>
<path d="M74.1615 115.207C76.169 114.712 76.8912 111.708 76.8163 109.643C76.7422 108.608 76.3886 107.613 75.7934 106.764C75.1981 105.914 74.3835 105.242 73.4363 104.819C72.482 104.415 71.4537 104.215 70.4175 104.231C69.3812 104.248 68.3599 104.481 67.4192 104.916C67.092 103.419 66.2626 102.078 65.0687 101.118C63.8747 100.157 62.388 99.6332 60.8554 99.6338C59.3249 99.7183 57.8694 100.324 56.7305 101.35C55.5916 102.375 54.8378 103.76 54.5943 105.273C54.3974 103.705 52.6236 102.828 51.0453 102.734C50.2585 102.653 49.4635 102.752 48.7207 103.024C47.9779 103.295 47.3069 103.733 46.7586 104.303C45.7358 105.505 45.6337 107.519 46.7968 108.584C45.0244 108.35 43.228 108.78 41.754 109.792C41.0298 110.305 40.4454 110.991 40.0539 111.787C39.6624 112.584 39.4762 113.465 39.5122 114.352C39.5765 115.237 39.9176 116.08 40.4871 116.76C41.0567 117.441 41.8258 117.925 42.6857 118.144C43.2816 118.268 43.4293 117.868 43.7497 118.385C43.9224 118.935 44.0012 119.51 43.9826 120.086C43.8683 121.947 43.9795 123.814 44.314 125.648C45.3427 125.129 46.6484 125.874 47.148 126.915C47.5522 128 47.663 129.173 47.4691 130.315C47.9688 131.068 49.2326 130.845 49.7764 130.124C50.2412 129.343 50.447 128.434 50.3642 127.529C50.4043 124.394 50.4443 121.259 50.484 118.124C50.9486 118.375 51.4685 118.507 51.9968 118.507C52.5251 118.507 53.0451 118.375 53.5098 118.124C53.9693 117.862 54.3562 117.49 54.6356 117.041C54.915 116.592 55.0781 116.08 55.1101 115.552C55.7777 116.186 56.5761 116.666 57.4491 116.958C58.3222 117.25 59.2486 117.347 60.1632 117.242C61.0761 117.124 61.952 116.808 62.7294 116.315C63.5068 115.822 64.1668 115.165 64.663 114.39C65.6025 115.199 66.6392 115.887 67.7491 116.44C68.8722 116.992 70.1618 117.103 71.3627 116.751C72.5332 116.346 74.1769 116.44 74.1549 115.203" fill="#0E314C"/>
<path d="M71.9732 126.804C71.9758 127.101 71.862 127.388 71.6561 127.603C71.4501 127.817 71.1683 127.943 70.871 127.952C70.7258 127.964 70.5798 127.947 70.4415 127.901C70.3033 127.855 70.1756 127.782 70.066 127.686C69.9564 127.59 69.8671 127.474 69.8034 127.343C69.7398 127.212 69.703 127.069 69.6954 126.924C69.6925 126.627 69.8056 126.34 70.0106 126.125C70.2156 125.911 70.4964 125.784 70.7931 125.773C70.9388 125.761 71.0854 125.778 71.2242 125.824C71.3631 125.869 71.4913 125.943 71.6014 126.039C71.7114 126.135 71.8011 126.252 71.865 126.384C71.9288 126.515 71.9656 126.658 71.9732 126.804Z" fill="#0E314C"/>
<path d="M72.2127 125.523C72.0716 125.67 71.2083 125.033 69.9834 125.036C68.7592 125.023 67.8591 125.654 67.7261 125.503C67.6607 125.437 67.8047 125.169 68.1971 124.883C68.7275 124.515 69.3587 124.321 70.0039 124.327C70.6413 124.324 71.2628 124.525 71.7784 124.9C72.1546 125.187 72.2818 125.457 72.2127 125.523Z" fill="#0E314C"/>
<path d="M59.9766 127.092C59.9796 127.389 59.8665 127.675 59.6614 127.89C59.4563 128.104 59.1755 128.23 58.8788 128.24C58.7336 128.252 58.5876 128.235 58.4493 128.189C58.3109 128.143 58.1832 128.07 58.0736 127.975C57.9639 127.879 57.8747 127.762 57.811 127.631C57.7474 127.5 57.7108 127.357 57.7032 127.212C57.7005 126.915 57.8136 126.629 58.0186 126.414C58.2236 126.199 58.5042 126.073 58.8009 126.062C58.9462 126.05 59.0923 126.068 59.2306 126.114C59.369 126.159 59.4967 126.233 59.6063 126.329C59.7159 126.425 59.8051 126.542 59.8687 126.673C59.9323 126.804 59.969 126.946 59.9766 127.092Z" fill="#0E314C"/>
<path d="M60.1814 125.752C60.0404 125.899 59.1763 125.263 57.9521 125.266C56.728 125.251 55.8279 125.881 55.6949 125.732C55.6295 125.665 55.7728 125.397 56.1659 125.112C56.6959 124.744 57.3268 124.549 57.972 124.554C58.6094 124.552 59.2309 124.753 59.7472 125.127C60.1219 125.417 60.2505 125.688 60.1814 125.752Z" fill="#0E314C"/>
<path d="M64.6301 134.842C65.276 134.639 65.9447 134.518 66.6206 134.482C66.9337 134.45 67.2298 134.388 67.2819 134.174C67.3082 133.851 67.2352 133.527 67.0725 133.246C66.7786 132.489 66.47 131.695 66.1467 130.863C64.8608 127.47 63.9314 124.68 64.068 124.629C64.2047 124.579 65.3583 127.289 66.6441 130.683C66.9532 131.519 67.2486 132.318 67.5303 133.079C67.7276 133.456 67.7851 133.892 67.6927 134.308C67.6474 134.418 67.5775 134.517 67.4884 134.596C67.3993 134.675 67.2932 134.734 67.1783 134.766C67.005 134.812 66.8266 134.837 66.6471 134.839C65.9776 134.925 65.2999 134.926 64.6301 134.842Z" fill="#0E314C"/>
<path d="M61.0275 135.689C61.2267 135.677 61.2288 137.012 62.3678 137.952C63.5067 138.893 64.9226 138.75 64.9329 138.937C64.952 139.021 64.6169 139.195 64.0188 139.211C63.2394 139.222 62.4811 138.958 61.8777 138.464C61.2986 137.991 60.9261 137.311 60.8387 136.568C60.7872 136.01 60.9357 135.682 61.0275 135.689Z" fill="#0E314C"/>
<path d="M60.4681 120.949C60.3476 121.281 59.1227 121.123 57.6862 121.297C56.2445 121.444 55.0843 121.862 54.894 121.564C54.8088 121.421 55.0108 121.107 55.4818 120.785C56.1041 120.382 56.8135 120.134 57.551 120.06C58.2869 119.971 59.0335 120.058 59.7289 120.315C60.2542 120.528 60.5195 120.79 60.4681 120.949Z" fill="#0E314C"/>
<path d="M71.7675 121.975C71.553 122.254 70.7087 121.965 69.6925 121.951C68.6778 121.902 67.8181 122.138 67.619 121.847C67.5322 121.705 67.6682 121.427 68.0437 121.163C68.5457 120.839 69.1366 120.679 69.7336 120.708C70.3304 120.717 70.9093 120.913 71.3899 121.267C71.7455 121.554 71.8623 121.84 71.7675 121.975Z" fill="#0E314C"/>
<path d="M51.3226 225.68H125.74L138.011 178.156H75.9186L66.0894 222.585L51.3203 222.933L51.3226 225.68Z" fill="#E1E1E1"/>
<path d="M33.4375 225.587V231.857H226.558V373.113H270.208V231.857V225.587H33.4375Z" fill="#235F87"/>
<path d="M402.246 295.06C406.885 292.666 412.347 292.355 417.496 293.206C420.263 293.664 423.147 294.492 425.03 296.57C426.913 298.648 427.269 302.305 425.108 304.091C423.82 305.154 422.026 305.315 420.357 305.296C416.326 305.249 411.852 304.539 408.632 306.965C406.795 308.349 405.571 310.649 403.374 311.33C401.225 311.996 398.799 310.727 397.659 308.787C396.613 306.766 396.381 304.422 397.013 302.236C397.274 300.718 397.882 299.28 398.789 298.035C399.697 296.791 400.88 295.772 402.246 295.06Z" fill="#ECECEC"/>
<path d="M391.623 274.543C394.46 278.594 399.973 277.253 402.529 274.779C405.085 272.306 406.165 268.723 407.148 265.305C409.396 257.497 411.661 249.305 409.99 241.351C409.588 238.941 408.53 236.688 406.932 234.84C405.261 233.076 402.692 232.027 400.344 232.646C397.564 233.381 395.836 236.1 394.588 238.693C390.91 246.34 388.982 254.71 388.946 263.196C388.931 267.143 389.397 271.278 391.623 274.539" fill="#ECECEC"/>
<path d="M383.83 280.358C386.91 276.702 387.494 271.372 386.124 266.793C384.755 262.214 381.658 258.319 378.09 255.139C373.891 251.402 369.004 248.519 363.703 246.651C361.651 245.821 359.444 245.445 357.233 245.548C356.129 245.613 355.057 245.946 354.111 246.518C353.165 247.091 352.373 247.886 351.803 248.834C350.288 251.721 351.741 255.227 353.31 258.082C356.078 263.118 359.238 267.93 362.76 272.472C365.592 276.123 368.837 279.725 373.153 281.375C377.469 283.025 381.954 282.831 384.242 279.838" fill="#ECECEC"/>
<path d="M391.428 335.655C391.578 335.052 391.664 334.435 391.685 333.814C391.816 332.474 391.979 330.792 392.174 328.79C392.424 326.316 392.802 323.857 393.304 321.421C393.963 318.455 394.859 315.547 395.982 312.724C397.084 309.905 398.579 307.256 400.423 304.855C401.925 302.901 403.843 301.306 406.038 300.187C407.526 299.45 409.122 298.954 410.766 298.717C411.386 298.693 412.001 298.604 412.602 298.451C411.984 298.374 411.358 298.365 410.738 298.422C409.031 298.552 407.361 298.987 405.807 299.706C403.496 300.797 401.469 302.408 399.884 304.414C397.961 306.847 396.409 309.553 395.281 312.442C394.14 315.306 393.25 318.263 392.622 321.281C392.145 323.746 391.818 326.238 391.642 328.742C391.483 330.873 391.422 332.603 391.394 333.798C391.338 334.416 391.35 335.039 391.428 335.655Z" fill="#E1E1E1"/>
<path d="M391.768 331.789C391.818 331.507 391.834 331.22 391.817 330.934C391.817 330.292 391.813 329.485 391.811 328.492C391.805 326.373 391.807 323.306 391.92 319.517C392.107 311.942 392.759 303.789 394.019 292.293C395.213 281.485 396.811 268.906 398.501 260.727C398.863 258.868 399.229 257.193 399.572 255.73C399.899 254.261 400.18 252.995 400.449 251.971C400.681 251.006 400.87 250.22 401.02 249.596C401.101 249.322 401.151 249.039 401.167 248.754C401.037 249.008 400.939 249.277 400.873 249.555L400.164 251.894C399.849 252.909 399.526 254.168 399.158 255.631C398.775 257.09 398.373 258.761 397.975 260.618C395.882 270.29 394.309 280.068 393.261 289.908C391.999 301.427 391.429 311.915 391.38 319.511C391.335 323.308 391.415 326.382 391.512 328.503C391.572 329.495 391.622 330.303 391.659 330.945C391.661 331.23 391.698 331.513 391.768 331.789Z" fill="#E1E1E1"/>
<path d="M391.818 311.561C391.878 310.711 391.872 309.858 391.8 309.009C391.706 307.37 391.48 305 391.019 302.097C390.46 298.7 389.709 295.337 388.77 292.025C387.673 287.95 386.265 283.966 384.558 280.107C381.065 271.82 376.319 265.044 372.19 260.849C371.278 259.886 370.306 258.983 369.28 258.144C368.834 257.766 368.439 257.39 368.037 257.092L366.909 256.314C366.23 255.8 365.512 255.34 364.761 254.938C364.639 255.104 367.805 256.968 371.802 261.221C376.884 266.884 380.963 273.374 383.861 280.41C385.534 284.248 386.949 288.192 388.097 292.218C389.199 295.918 389.934 299.323 390.49 302.19C391.016 305.063 391.321 307.407 391.506 309.034C391.544 309.883 391.649 310.728 391.818 311.561Z" fill="#E1E1E1"/>
<path d="M372.273 347.244L374.301 375.014H409.976L412.004 347.244H372.273Z" fill="#E1E1E1"/>
<path d="M416.26 336.298H368.828V347.244H416.26V336.298Z" fill="#E1E1E1"/>
<path d="M368.828 373.952V376.986H415.476V373.952H368.828Z" fill="#ECECEC"/>
<path d="M373.239 382.326L371.055 376.986H413.775L411.226 382.326H373.239Z" fill="#E1E1E1"/>
<path d="M411.339 356.32C411.294 356.412 411.238 356.497 411.172 356.575C411.031 356.763 410.855 356.996 410.639 357.282C410.131 357.93 409.436 358.825 408.56 359.942L408.469 360.06L408.38 359.937L403.274 352.875H403.568C402.049 355.026 400.357 357.421 398.54 359.993L398.383 360.213L398.207 360.003C396.351 357.799 394.336 355.399 392.245 352.91L392.588 352.905C392.485 353.036 392.374 353.177 392.26 353.318L386.93 360.005L386.752 360.225L386.588 359.993C384.778 357.432 383.088 355.04 381.558 352.877L381.852 352.89C379.373 355.715 377.272 358.107 375.658 359.944L375.548 360.07L375.464 359.929C374.648 358.557 373.995 357.464 373.525 356.671L373.028 355.802C372.965 355.706 372.913 355.602 372.875 355.494C372.956 355.576 373.026 355.668 373.083 355.768L373.634 356.603C374.129 357.381 374.81 358.455 375.67 359.802L375.476 359.786L381.571 352.643L381.725 352.463L381.864 352.658C383.407 354.81 385.112 357.193 386.938 359.742L386.596 359.732L391.914 353.04C392.026 352.898 392.138 352.757 392.242 352.627L392.412 352.414L392.587 352.623L398.531 359.729L398.198 359.742C400.035 357.184 401.742 354.8 403.274 352.66L403.421 352.453L403.568 352.66L408.565 359.799L408.383 359.793C409.294 358.701 410.017 357.833 410.545 357.201L411.123 356.531C411.257 356.387 411.33 356.314 411.339 356.32Z" fill="#F5F5F5"/>
<path d="M412.498 347.061C412.498 347.183 403.56 347.281 392.536 347.281C381.512 347.281 372.57 347.181 372.57 347.061C372.57 346.94 381.508 346.84 392.536 346.84C403.563 346.84 412.498 346.938 412.498 347.061Z" fill="#F5F5F5"/>
<path d="M414.301 377.285C414.301 377.408 404.586 377.506 392.604 377.506C380.622 377.506 370.906 377.407 370.906 377.285C370.906 377.163 380.619 377.065 392.604 377.065C404.589 377.065 414.301 377.162 414.301 377.285Z" fill="#F5F5F5"/>
<path d="M242.164 286.759H342.528C342.528 283.87 341.38 281.099 339.337 279.056C337.294 277.013 334.523 275.865 331.634 275.865H253.058C251.627 275.865 250.211 276.147 248.889 276.694C247.567 277.241 246.366 278.044 245.355 279.056C244.343 280.067 243.541 281.268 242.993 282.59C242.446 283.912 242.164 285.328 242.164 286.759Z" fill="#235F87"/>
<path d="M285 286.974C285 287.117 287.757 287.232 291.156 287.232C294.555 287.232 297.313 287.117 297.313 286.974C297.313 286.831 294.557 286.716 291.156 286.716C287.755 286.716 285 286.832 285 286.974Z" fill="#1A2E35"/>
<path d="M256.75 375.541C256.751 376.767 257.239 377.944 258.107 378.811C258.975 379.678 260.152 380.165 261.379 380.165C262.605 380.164 263.781 379.677 264.648 378.81C265.516 377.943 266.003 376.767 266.005 375.541C266.005 374.313 265.517 373.137 264.65 372.269C263.783 371.401 262.606 370.912 261.379 370.911C260.151 370.911 258.974 371.399 258.106 372.267C257.238 373.135 256.75 374.313 256.75 375.541Z" fill="#375A64"/>
<path d="M345.477 199.721V261.611C345.477 265.509 343.928 269.247 341.172 272.003C338.416 274.759 334.679 276.307 330.781 276.307H283.094L289.572 199.718C289.572 197.981 290.262 196.315 291.49 195.087C292.719 193.858 294.385 193.168 296.122 193.168H338.932C340.669 193.17 342.334 193.861 343.561 195.089C344.788 196.318 345.477 197.984 345.477 199.721Z" fill="#235F87"/>
<path d="M328.609 275.865C328.636 275.799 328.673 275.738 328.719 275.683L329.069 275.177C329.386 274.736 329.836 274.081 330.381 273.212C331.911 270.753 333.105 268.102 333.934 265.328C334.509 263.418 334.905 261.459 335.116 259.476C335.31 257.19 335.373 254.895 335.304 252.602C335.298 247.735 335.291 242.389 335.284 236.782C335.313 225.576 335.338 215.435 335.358 208.037C335.39 204.396 335.417 201.432 335.436 199.327L335.483 196.958C335.478 196.682 335.495 196.406 335.534 196.132C335.573 196.406 335.589 196.682 335.584 196.958C335.596 197.546 335.611 198.336 335.631 199.327C335.65 201.432 335.677 204.397 335.71 208.037C335.729 215.435 335.754 225.576 335.784 236.782C335.777 242.391 335.771 247.735 335.765 252.602C335.821 254.912 335.742 257.222 335.527 259.522C335.298 261.527 334.877 263.506 334.272 265.432C333.407 268.222 332.152 270.877 330.544 273.317C329.972 274.174 329.493 274.817 329.148 275.237C328.989 275.464 328.809 275.674 328.609 275.865Z" fill="#0E314C"/>
<path d="M302.656 275.897C303.158 275.825 303.665 275.796 304.172 275.811L308.305 275.761C311.795 275.74 316.616 275.747 321.942 275.786C324.604 275.811 327.146 275.814 329.447 275.874C331.508 275.835 333.566 276.059 335.57 276.542C336.925 276.904 338.182 277.563 339.252 278.47C339.542 278.712 339.81 278.98 340.052 279.271C340.221 279.466 340.303 279.574 340.29 279.585C340.247 279.626 339.902 279.202 339.129 278.62C338.044 277.797 336.801 277.205 335.478 276.881C333.494 276.458 331.465 276.273 329.437 276.332L321.931 276.283C316.61 276.246 311.791 276.183 308.304 276.113L304.173 276.004C303.665 276.012 303.158 275.976 302.656 275.897Z" fill="#0E314C"/>
<path d="M326.019 214.072C324.896 204.797 323.404 196.89 323.404 196.89H303.301C303.301 196.89 305.799 208.657 305.24 211.385C304.753 213.762 265.797 215.337 255.642 215.497C255.039 215.042 254.16 215.804 253.378 215.125C252.686 214.517 252.102 213.797 251.652 212.994C251.048 212.013 250.58 210.955 250.262 209.848C250.244 209.629 250.156 209.422 250.012 209.256C249.867 209.09 249.674 208.974 249.46 208.924C249.245 208.875 249.021 208.896 248.819 208.983C248.617 209.069 248.448 209.218 248.336 209.407C247.93 210.277 248.386 213.171 250.316 215.967C252.245 218.763 247.189 217.31 245.337 216.815C243.485 216.319 237.686 215.063 237.086 215.526C236.209 216.204 236.759 217.296 238.62 217.747C240.504 218.203 245.968 219.951 245.668 220.943C245.374 221.918 235.978 219.264 235.978 219.264C235.978 219.264 234.058 218.364 233.674 219.496C232.981 221.539 243.169 223.607 244.143 223.78C244.82 223.899 244.532 224.987 243.811 224.819C243.069 224.645 234.5 221.947 233.776 224.021C233.22 225.611 242.141 225.801 243.617 227.374C245.093 228.947 236.865 226.524 236.394 228.066C236.218 228.641 239.642 228.907 244.561 229.598C249.163 230.245 257.722 230.186 259.771 230.139C271.183 230.764 311.52 231.598 320.13 230.989C330.172 230.282 326.405 217.257 326.019 214.072Z" fill="#FFBF9D"/>
<path d="M206.127 165.959C206.127 165.959 200.59 160.316 199.514 160.091C198.438 159.865 188.071 154.664 188.071 154.664C187.903 154.851 187.777 155.072 187.701 155.311C187.625 155.551 187.6 155.803 187.629 156.053C187.658 156.302 187.739 156.543 187.868 156.759C187.996 156.974 188.169 157.16 188.375 157.304C189.912 158.523 193.538 160.722 193.538 160.722L190.976 165.729C190.976 165.729 193.434 173.938 193.881 173.769C194.328 173.601 194.742 172.158 194.742 172.158L193.978 169.571L198.999 173.759L201.18 173.506L206.127 165.959Z" fill="#FFB39D"/>
<path d="M201.853 163.252C200.646 162.777 199.478 162.209 198.359 161.552L198.403 161.571L195.667 160.836L195.971 160.629C195.932 161.457 196.191 162.273 196.702 162.927C197.459 163.889 198.41 164.681 199.494 165.251L199.676 165.352L199.607 165.534C199.162 166.765 199.122 168.106 199.493 169.361C199.758 170.29 200.058 170.783 200.011 170.812C199.639 170.43 199.371 169.96 199.23 169.446C198.743 168.137 198.724 166.699 199.178 165.377L199.291 165.66C198.122 165.082 197.099 164.248 196.296 163.219C195.715 162.467 195.429 161.529 195.493 160.581L195.522 160.292L195.796 160.374C196.764 160.66 197.675 160.932 198.515 161.182L198.54 161.189L198.557 161.199C199.708 161.796 200.81 162.483 201.853 163.252Z" fill="#FF9178"/>
<path d="M192.594 165.868C193.072 168.039 193.794 170.149 194.744 172.158C195.222 171.575 195.558 170.888 195.724 170.152" fill="#FFB39D"/>
<path d="M195.731 170.151C195.743 170.943 195.452 171.71 194.919 172.296L194.716 172.563L194.556 172.25C194.219 171.589 193.917 170.912 193.651 170.22C192.751 167.898 192.47 165.885 192.6 165.867C192.73 165.848 193.235 167.765 194.117 170.041C194.404 170.787 194.695 171.478 194.948 172.063L194.585 172.017C195.017 171.427 195.401 170.803 195.731 170.151Z" fill="#FF9178"/>
<path d="M195.839 162.092C196.266 162.753 196.599 163.47 196.827 164.223C197.128 165.031 197.327 165.873 197.421 166.73C197.54 167.804 197.387 168.891 196.975 169.89C196.793 170.315 196.55 170.711 196.254 171.065L196.005 171.359L195.842 171.011C195.164 169.566 194.624 168.06 194.231 166.513C194.03 165.901 193.924 165.261 193.914 164.617C194.052 164.582 194.658 167.409 196.287 170.801L195.877 170.748C196.138 170.427 196.353 170.071 196.517 169.691C197.353 167.717 196.877 165.673 196.491 164.333C196.217 163.604 195.999 162.855 195.839 162.092Z" fill="#FF9178"/>
<path d="M206.133 165.959L245.456 192.58L233.979 206.921L201.188 173.509L206.133 165.959Z" fill="#FFB39D"/>
<path d="M247.901 375.834L247.702 366.168L265.806 365.68L266.247 379.82L265.127 379.922C260.139 380.333 239.735 381.664 236.367 380.742C232.611 379.711 247.901 375.834 247.901 375.834Z" fill="#00B1E0"/>
<path d="M259.672 379.855C259.898 378.32 260.683 376.922 261.876 375.932C263.046 374.946 264.544 374.436 266.073 374.502L266.213 379.562L259.672 379.855Z" fill="#235F87"/>
<path d="M240.45 377.998C240.45 377.998 235.1 379.698 235.797 380.57C236.494 381.441 257.164 380.871 266.259 379.822L266.22 379.419L242.115 380.287C242.115 380.287 241.502 378.013 240.45 377.998Z" fill="#235F87"/>
<path d="M266.493 379.397C266.391 379.42 266.287 379.434 266.182 379.438L265.29 379.517L262.004 379.749C259.228 379.926 255.391 380.117 251.145 380.239C246.899 380.361 243.056 380.386 240.275 380.364L236.98 380.318L236.085 380.29C235.981 380.292 235.876 380.284 235.773 380.265C235.876 380.249 235.981 380.242 236.085 380.246L236.981 380.233L240.274 380.208C243.054 380.189 246.896 380.139 251.138 380.02C255.38 379.901 259.217 379.732 261.994 379.594L265.284 379.432L266.179 379.394C266.283 379.385 266.389 379.386 266.493 379.397Z" fill="#0E314C"/>
<path d="M242.119 380.568C241.96 380.027 241.74 379.505 241.462 379.014C241.125 378.562 240.736 378.149 240.305 377.785C240.873 377.977 241.351 378.372 241.646 378.894C242.005 379.374 242.174 379.97 242.119 380.568Z" fill="#0E314C"/>
<path d="M247.387 377.707C247.336 377.742 247.072 377.438 246.799 377.029C246.526 376.621 246.34 376.262 246.391 376.227C246.442 376.192 246.705 376.497 246.979 376.906C247.253 377.314 247.436 377.676 247.387 377.707Z" fill="#0E314C"/>
<path d="M248.826 376.896C248.786 376.943 248.496 376.76 248.176 376.489C247.857 376.217 247.629 375.959 247.668 375.913C247.707 375.868 247.998 376.049 248.318 376.321C248.638 376.593 248.865 376.847 248.826 376.896Z" fill="#0E314C"/>
<path d="M249.688 375.161C249.39 375.28 249.068 375.33 248.747 375.308C248.429 375.355 248.104 375.33 247.797 375.234C248.096 375.115 248.417 375.065 248.738 375.087C249.056 375.04 249.381 375.065 249.688 375.161Z" fill="#0E314C"/>
<path d="M249.989 373.946C249.683 374.161 249.318 374.278 248.944 374.281C248.577 374.356 248.195 374.315 247.852 374.166C248.204 374.099 248.562 374.065 248.921 374.063C249.273 373.991 249.63 373.952 249.989 373.946Z" fill="#0E314C"/>
<path d="M246.723 376.146C246.34 376.222 245.946 376.23 245.559 376.171C245.138 376.13 244.721 376.05 244.314 375.932C244.065 375.868 243.824 375.777 243.596 375.659C243.457 375.583 243.352 375.457 243.302 375.306C243.281 375.221 243.285 375.131 243.314 375.047C243.343 374.964 243.396 374.89 243.465 374.836C243.903 374.606 244.408 374.536 244.892 374.636C245.376 374.737 245.811 375.003 246.121 375.388C246.307 375.612 246.444 375.873 246.522 376.154C246.574 376.351 246.574 376.465 246.56 376.467C246.432 376.112 246.244 375.781 246.004 375.49C245.733 375.191 245.381 374.976 244.991 374.871C244.764 374.801 244.524 374.776 244.286 374.799C244.049 374.822 243.818 374.891 243.608 375.004C243.426 375.145 243.504 375.361 243.714 375.478C243.925 375.587 244.146 375.675 244.375 375.739C244.769 375.863 245.172 375.956 245.581 376.018C246.279 376.122 246.723 376.11 246.723 376.146Z" fill="#0E314C"/>
<path d="M246.424 376.214C246.274 375.973 246.218 375.685 246.267 375.405C246.295 375.1 246.396 374.805 246.561 374.547C246.654 374.371 246.791 374.221 246.958 374.113C247.125 374.004 247.318 373.94 247.517 373.927C247.635 373.949 247.741 374.016 247.81 374.115C247.88 374.214 247.908 374.335 247.89 374.455C247.868 374.641 247.806 374.821 247.707 374.98C247.561 375.241 247.383 375.482 247.177 375.699C247.003 375.913 246.778 376.081 246.524 376.188C246.503 376.16 246.75 375.973 247.061 375.596C247.241 375.375 247.398 375.137 247.528 374.884C247.682 374.633 247.779 374.189 247.485 374.145C247.191 374.125 246.904 374.423 246.732 374.659C246.575 374.888 246.47 375.15 246.424 375.424C246.399 375.687 246.399 375.951 246.424 376.214Z" fill="#0E314C"/>
<path d="M265.984 374.454C265.98 374.495 265.463 374.419 264.647 374.538C263.586 374.693 262.588 375.137 261.762 375.821C260.948 376.52 260.342 377.428 260.01 378.448C259.755 379.232 259.743 379.754 259.702 379.749C259.676 379.628 259.673 379.504 259.692 379.382C259.714 379.05 259.771 378.72 259.862 378.4C260.162 377.329 260.774 376.371 261.622 375.65C262.476 374.938 263.523 374.496 264.629 374.381C264.96 374.346 265.294 374.346 265.626 374.381C265.748 374.385 265.869 374.409 265.984 374.454Z" fill="#0E314C"/>
<path d="M263.889 366.972C264.048 368.204 264.134 369.444 264.148 370.687C264.235 371.926 264.248 373.169 264.187 374.41C264.028 373.178 263.941 371.937 263.928 370.695C263.842 369.456 263.829 368.212 263.889 366.972Z" fill="#1A2E35"/>
<path d="M257.351 378.154C256.491 378.38 255.605 378.492 254.716 378.489C253.829 378.558 252.937 378.511 252.062 378.35C252.066 378.287 253.251 378.326 254.708 378.27C256.164 378.214 257.345 378.088 257.351 378.154Z" fill="#0E314C"/>
<path d="M260.91 378.049C260.955 378.093 260.82 378.303 260.707 378.577C260.594 378.851 260.535 379.091 260.471 379.091C260.408 379.091 260.371 378.808 260.504 378.492C260.637 378.175 260.87 378.006 260.91 378.049Z" fill="#0E314C"/>
<path d="M262.2 376.348C262.245 376.389 262.133 376.581 261.95 376.776C261.768 376.97 261.583 377.095 261.54 377.054C261.498 377.013 261.607 376.821 261.79 376.626C261.973 376.43 262.156 376.306 262.2 376.348Z" fill="#0E314C"/>
<path d="M264.078 375.535C264.068 375.597 263.827 375.601 263.564 375.702C263.301 375.803 263.112 375.95 263.064 375.909C263.015 375.869 263.159 375.615 263.488 375.496C263.816 375.376 264.096 375.479 264.078 375.535Z" fill="#0E314C"/>
<path d="M265.432 375.138C265.456 375.194 265.354 375.29 265.206 375.352C265.057 375.414 264.918 375.42 264.894 375.364C264.87 375.308 264.973 375.212 265.121 375.15C265.269 375.088 265.409 375.082 265.432 375.138Z" fill="#0E314C"/>
<path d="M204.187 324.118L208.383 315.408L224.749 323.165L218.743 335.973L217.697 335.558C213.062 333.668 194.265 325.621 191.68 323.276C188.796 320.658 204.187 324.118 204.187 324.118Z" fill="#00B1E0"/>
<g opacity="0.5">
<path d="M212.859 333.032C213.756 331.765 215.089 330.875 216.602 330.533C218.091 330.183 219.658 330.406 220.99 331.157L218.825 335.733L212.859 333.032Z" fill="#00B1E0"/>
</g>
<path d="M196.553 322.669C196.553 322.669 191.013 321.765 191.241 322.856C191.469 323.947 210.159 332.793 218.745 335.973L218.892 335.595L197.003 325.463C197.003 325.463 197.487 323.16 196.553 322.669Z" fill="#235F87"/>
<path d="M219.129 335.706C219.029 335.681 218.93 335.647 218.836 335.603L218.005 335.27L214.968 333.99C212.413 332.888 208.902 331.325 205.063 329.514C201.224 327.702 197.788 325.981 195.313 324.706L192.397 323.174C192.103 323.014 191.847 322.873 191.611 322.744C191.518 322.697 191.428 322.643 191.344 322.581C191.444 322.612 191.54 322.653 191.632 322.704L192.44 323.098L195.387 324.568C197.876 325.808 201.325 327.502 205.16 329.316C208.995 331.129 212.495 332.714 215.034 333.849L218.041 335.192L218.855 335.564C218.951 335.603 219.042 335.651 219.129 335.706Z" fill="#0E314C"/>
<path d="M196.851 325.719C196.953 325.164 196.992 324.599 196.967 324.035C196.87 323.48 196.711 322.938 196.492 322.419C196.912 322.847 197.159 323.415 197.186 324.014C197.287 324.604 197.168 325.211 196.851 325.719Z" fill="#0E314C"/>
<path d="M202.852 325.553C202.711 325.283 202.636 324.985 202.632 324.681C202.56 324.385 202.56 324.077 202.632 323.782C202.774 324.051 202.85 324.35 202.852 324.654C202.924 324.949 202.924 325.258 202.852 325.553Z" fill="#0E314C"/>
<path d="M204.519 325.481C204.462 325.503 204.286 325.209 204.123 324.819C203.961 324.43 203.875 324.1 203.931 324.076C203.988 324.051 204.164 324.347 204.326 324.737C204.488 325.127 204.574 325.456 204.519 325.481Z" fill="#0E314C"/>
<path d="M206.072 324.333C205.752 324.304 205.442 324.203 205.166 324.039C204.692 323.819 204.328 323.598 204.353 323.544C204.673 323.573 204.983 323.673 205.259 323.838C205.733 324.056 206.098 324.277 206.072 324.333Z" fill="#0E314C"/>
<path d="M206.906 323.378C206.535 323.432 206.156 323.371 205.821 323.205C205.46 323.104 205.138 322.895 204.898 322.607C205.243 322.707 205.578 322.839 205.899 323C206.246 323.094 206.583 323.221 206.906 323.378Z" fill="#0E314C"/>
<path d="M202.984 323.863C202.607 323.758 202.252 323.587 201.935 323.358C201.577 323.131 201.241 322.87 200.931 322.579C200.739 322.409 200.567 322.219 200.417 322.012C200.326 321.88 200.288 321.72 200.311 321.562C200.331 321.476 200.376 321.398 200.44 321.336C200.503 321.275 200.583 321.234 200.67 321.217C201.164 321.209 201.646 321.373 202.032 321.681C202.419 321.99 202.686 322.423 202.788 322.907C202.852 323.191 202.856 323.486 202.798 323.771C202.756 323.971 202.704 324.073 202.692 324.065C202.738 323.69 202.72 323.31 202.637 322.941C202.531 322.552 202.315 322.201 202.015 321.932C201.844 321.765 201.641 321.635 201.419 321.548C201.197 321.461 200.96 321.419 200.721 321.424C200.496 321.468 200.468 321.696 200.601 321.894C200.74 322.087 200.898 322.266 201.073 322.427C201.369 322.716 201.686 322.981 202.023 323.221C202.598 323.64 202.999 323.828 202.984 323.863Z" fill="#0E314C"/>
<path d="M202.668 323.786C202.644 323.505 202.724 323.225 202.893 322.999C203.056 322.738 203.279 322.521 203.544 322.366C203.706 322.251 203.895 322.179 204.093 322.158C204.291 322.137 204.49 322.166 204.673 322.244C204.77 322.317 204.833 322.425 204.851 322.545C204.868 322.664 204.838 322.786 204.768 322.883C204.663 323.04 204.527 323.171 204.366 323.269C204.118 323.436 203.85 323.571 203.568 323.67C203.316 323.782 203.04 323.831 202.765 323.811C202.759 323.777 203.064 323.721 203.512 323.526C203.772 323.411 204.02 323.27 204.25 323.104C204.501 322.95 204.787 322.597 204.544 322.425C204.395 322.374 204.235 322.359 204.079 322.379C203.922 322.4 203.772 322.455 203.64 322.542C203.396 322.676 203.184 322.861 203.019 323.085C202.881 323.308 202.764 323.543 202.668 323.786Z" fill="#0E314C"/>
<path d="M220.937 331.07C220.916 331.104 220.489 330.803 219.708 330.54C218.691 330.198 217.6 330.142 216.554 330.379C215.512 330.633 214.56 331.169 213.802 331.929C213.22 332.512 212.973 332.972 212.938 332.951C212.97 332.832 213.023 332.72 213.093 332.619C213.264 332.333 213.464 332.066 213.69 331.821C214.443 331.002 215.422 330.426 216.504 330.166C217.588 329.917 218.722 329.997 219.761 330.394C220.072 330.513 220.37 330.664 220.65 330.845C220.846 330.973 220.944 331.058 220.937 331.07Z" fill="#0E314C"/>
<path d="M222.451 323.454C222.035 324.625 221.551 325.77 221.001 326.883C220.517 328.028 219.967 329.142 219.352 330.221C219.768 329.051 220.252 327.906 220.801 326.791C221.285 325.648 221.836 324.533 222.451 323.454Z" fill="#0E314C"/>
<path d="M211.563 330.461C210.694 330.272 209.853 329.972 209.061 329.567C208.239 329.228 207.465 328.783 206.758 328.244C206.79 328.189 207.828 328.759 209.153 329.369C210.478 329.98 211.585 330.401 211.563 330.461Z" fill="#0E314C"/>
<path d="M214.774 331.974C214.794 332.034 214.579 332.159 214.353 332.353C214.128 332.547 213.965 332.736 213.913 332.705C213.86 332.674 213.951 332.407 214.214 332.185C214.477 331.963 214.757 331.917 214.774 331.974Z" fill="#0E314C"/>
<path d="M216.668 331.044C216.689 331.101 216.502 331.222 216.251 331.313C216 331.404 215.781 331.433 215.759 331.376C215.738 331.32 215.926 331.198 216.176 331.106C216.427 331.015 216.646 330.984 216.668 331.044Z" fill="#0E314C"/>
<path d="M218.741 331.173C218.703 331.223 218.487 331.119 218.205 331.09C217.924 331.06 217.691 331.106 217.666 331.048C217.641 330.991 217.886 330.828 218.23 330.871C218.574 330.913 218.781 331.131 218.741 331.173Z" fill="#0E314C"/>
<path d="M220.129 331.431C220.124 331.493 219.99 331.532 219.83 331.521C219.67 331.51 219.542 331.447 219.547 331.391C219.552 331.334 219.685 331.29 219.845 331.303C220.006 331.315 220.133 331.372 220.129 331.431Z" fill="#0E314C"/>
<path d="M323.847 196.577C323.847 196.733 319.151 196.871 313.358 196.894C307.565 196.918 302.868 196.806 302.867 196.652C302.866 196.498 307.562 196.358 313.356 196.334C319.151 196.311 323.846 196.425 323.847 196.577Z" fill="#1A2E35"/>
<path d="M323.564 197.59L319.714 178.281C316.877 162.477 294.722 161.389 294.722 161.389L277.334 161.107C277.334 161.107 264.444 159.374 256.488 168.344C248.255 177.626 238.141 188.597 238.141 188.597L245.868 208.027L264.159 192.931C262.629 195.611 261.787 198.628 261.706 201.713C261.706 206.857 267.076 209.234 267.076 209.234L268.723 224.902L263.263 250.198L320.041 247.921C319.091 239.437 316.229 231.279 311.67 224.062L312.725 197.588L323.564 197.59Z" fill="#FC5546"/>
<path d="M262.133 198.137C262.279 197.248 262.508 196.375 262.815 195.528C263.054 194.731 263.346 193.783 263.71 192.741C263.893 192.219 264.095 191.674 264.325 191.115C264.452 190.812 264.61 190.555 264.693 190.307C264.773 190.037 264.808 189.755 264.796 189.473C264.749 188.873 264.659 188.277 264.526 187.691C264.418 187.108 264.312 186.543 264.21 185.995C264.031 184.966 263.863 184.001 263.708 183.117C263.507 182.237 263.399 181.339 263.386 180.438C263.713 181.278 263.951 182.15 264.096 183.04C264.286 183.917 264.494 184.873 264.716 185.895C264.828 186.442 264.944 187.005 265.064 187.585C265.212 188.201 265.31 188.828 265.358 189.459C265.372 189.805 265.326 190.15 265.223 190.48C265.109 190.818 264.938 191.08 264.834 191.33C264.602 191.874 264.393 192.407 264.199 192.918C263.838 193.899 263.502 194.814 263.194 195.655C262.939 196.521 262.583 197.354 262.133 198.137Z" fill="url(#paint3_linear_3045_1289)"/>
<g opacity="0.2">
<path d="M299.844 181.18C300.548 191.949 300.968 201.871 301.175 212.661C302.615 212.602 304.013 212.162 305.227 211.386C305.783 206.788 302.297 192.783 299.844 181.18Z" fill="url(#paint4_linear_3045_1289)"/>
</g>
<path d="M320.22 245.385C320.22 245.385 245.973 229.831 238.785 233.236C231.596 236.641 198.445 318.579 198.445 318.579L225.134 330.061L253.859 260.439C253.859 260.439 305.839 279.425 314.919 277.539C324 275.652 320.22 245.385 320.22 245.385Z" fill="#0E2B5C"/>
<path d="M287.037 249.752C285.902 250.13 242.95 267.785 239.927 273.46C236.903 279.136 244.335 373.371 244.335 373.371H268.763L267.25 289.617L314.923 277.538L287.037 249.752Z" fill="#0E2B5C"/>
<path d="M315.165 277.73C314.928 277.726 314.692 277.697 314.461 277.644L312.462 277.29C310.73 276.97 308.228 276.481 305.145 275.82C298.98 274.518 290.493 272.55 281.244 269.898C276.623 268.56 272.255 267.165 268.312 265.81C264.385 264.414 260.864 263.105 257.963 261.863C256.502 261.275 255.201 260.687 254.062 260.166C252.916 259.66 251.94 259.202 251.154 258.801L249.342 257.888C249.125 257.792 248.919 257.674 248.727 257.535C248.955 257.596 249.177 257.68 249.388 257.786L251.243 258.603C252.041 258.971 253.029 259.401 254.182 259.88C255.335 260.36 256.64 260.93 258.108 261.497C261.02 262.689 264.548 263.954 268.475 265.322C272.419 266.645 276.778 268.025 281.395 269.363C290.626 272.009 299.087 274.037 305.226 275.436L312.5 277.076L314.477 277.533C314.713 277.574 314.943 277.64 315.165 277.73Z" fill="#235F87"/>
<path d="M239.939 295.109C239.815 294.647 239.74 294.174 239.712 293.697C239.605 292.674 239.468 291.38 239.304 289.834C239.149 288.161 238.969 286.225 238.771 284.097C238.444 281.739 238.441 279.349 238.761 276.99C239.243 274.608 240.496 272.45 242.326 270.849C243.781 269.554 245.43 268.494 247.212 267.707C248.396 267.17 249.606 266.693 250.838 266.279C251.28 266.097 251.74 265.963 252.21 265.879C252.251 265.979 250.322 266.651 247.383 268.064C245.669 268.881 244.085 269.945 242.681 271.224C240.955 272.766 239.774 274.825 239.313 277.093C239.005 279.401 238.997 281.74 239.288 284.05C239.442 286.181 239.582 288.122 239.702 289.798C239.794 291.349 239.872 292.65 239.933 293.677C239.984 294.153 239.986 294.632 239.939 295.109Z" fill="#235F87"/>
<path d="M261.362 287.011C261.424 286.87 262.769 287.325 264.365 288.028C265.962 288.73 267.206 289.415 267.144 289.556C267.081 289.697 265.737 289.243 264.14 288.54C262.542 287.837 261.299 287.158 261.362 287.011Z" fill="#235F87"/>
<path d="M263.507 284.437C263.658 284.373 264.335 285.727 265.452 287.195C266.569 288.662 267.677 289.693 267.574 289.819C267.49 289.938 266.164 289.074 265.003 287.533C263.841 285.991 263.371 284.485 263.507 284.437Z" fill="#235F87"/>
<path d="M272.889 288.303C272.907 288.315 272.815 288.506 272.512 288.688C272.077 288.919 271.589 289.034 271.097 289.023C270.419 288.998 269.741 289.015 269.066 289.075C268.702 289.126 268.371 289.317 268.145 289.607C267.919 289.897 267.814 290.264 267.852 290.63C267.825 294.208 267.706 297.156 267.548 297.149C267.391 297.142 267.264 294.239 267.293 290.597C267.291 290.096 267.453 289.609 267.755 289.209C268.068 288.847 268.507 288.617 268.983 288.565C269.689 288.523 270.398 288.543 271.1 288.627C271.715 288.679 272.332 288.568 272.889 288.303Z" fill="#235F87"/>
<path opacity="0.2" d="M267.039 232.749L317.649 236.814L315.488 231.156L267.534 230.46L267.039 232.749Z" fill="black"/>
<path d="M268.343 115.855C264.636 117.054 260.322 119.523 262.459 131.138C263.4 136.248 264.59 141.46 268.02 145.364C268.541 145.958 269.224 146.573 270.004 146.46C270.554 146.316 271.038 145.988 271.376 145.531C275.27 141.287 278.588 136.272 279.639 130.615C280.691 124.957 279.114 118.564 274.655 114.918" fill="#0E314C"/>
<path d="M275.461 166.305C275.339 160.96 275.11 155.225 275.11 155.225C275.11 155.225 266.979 154.197 266.63 145.901C266.28 137.605 266.195 123.066 266.195 123.066L282.067 111.309L293.219 126.651L293.492 166.035C293.501 167.224 293.273 168.404 292.824 169.505C292.374 170.607 291.711 171.609 290.873 172.453C290.034 173.297 289.037 173.967 287.939 174.424C286.841 174.881 285.663 175.116 284.473 175.116C282.118 175.116 279.856 174.194 278.172 172.547C276.487 170.9 275.514 168.66 275.461 166.305Z" fill="#FFB39D"/>
<path d="M275.109 155.224C278.965 155.122 282.708 153.896 285.877 151.697C285.877 151.697 283.346 157.742 275.25 157.259L275.109 155.224Z" fill="#FF9178"/>
<path d="M275.844 145.555C275.774 145.398 275.746 145.225 275.762 145.054C275.779 144.883 275.84 144.719 275.939 144.578C276.041 144.44 276.177 144.33 276.334 144.26C276.491 144.19 276.663 144.162 276.834 144.178C276.878 143.799 277.062 143.449 277.35 143.198C277.637 142.947 278.008 142.812 278.39 142.819C278.771 142.849 279.131 143.004 279.415 143.259C279.7 143.515 279.892 143.857 279.962 144.232C280.017 144.611 279.963 144.997 279.806 145.345C279.649 145.694 279.395 145.99 279.075 146.199C278.75 146.4 278.382 146.52 278.001 146.547C277.62 146.575 277.238 146.511 276.887 146.36C276.606 146.256 276.357 146.082 276.164 145.853C275.971 145.625 275.84 145.35 275.785 145.056" fill="#FF9178"/>
<path d="M268.164 133.475C268.161 133.773 268.275 134.06 268.481 134.274C268.687 134.489 268.969 134.615 269.266 134.624C269.411 134.636 269.558 134.619 269.696 134.573C269.834 134.527 269.962 134.454 270.072 134.358C270.181 134.262 270.27 134.146 270.334 134.015C270.398 133.884 270.434 133.741 270.442 133.596C270.445 133.299 270.332 133.013 270.127 132.798C269.922 132.584 269.642 132.457 269.346 132.446C269.2 132.434 269.053 132.451 268.915 132.496C268.776 132.542 268.647 132.615 268.537 132.71C268.427 132.806 268.337 132.924 268.273 133.055C268.209 133.186 268.172 133.329 268.164 133.475Z" fill="#0E314C"/>
<path d="M267.901 132.194C268.042 132.341 268.905 131.704 270.131 131.708C271.355 131.693 272.255 132.323 272.387 132.174C272.453 132.107 272.309 131.839 271.917 131.555C271.387 131.187 270.756 130.992 270.11 130.997C269.473 130.996 268.852 131.196 268.336 131.57C267.959 131.86 267.831 132.129 267.901 132.194Z" fill="#0E314C"/>
<path d="M280.18 133.762C280.177 134.059 280.29 134.346 280.496 134.56C280.701 134.775 280.982 134.901 281.278 134.912C281.423 134.923 281.569 134.906 281.708 134.86C281.846 134.814 281.974 134.741 282.083 134.645C282.193 134.55 282.282 134.433 282.346 134.302C282.409 134.171 282.446 134.028 282.454 133.883C282.457 133.586 282.343 133.3 282.138 133.085C281.933 132.87 281.653 132.744 281.356 132.733C281.211 132.721 281.065 132.739 280.926 132.785C280.788 132.83 280.66 132.903 280.551 132.999C280.441 133.095 280.352 133.212 280.288 133.343C280.224 133.474 280.187 133.617 280.18 133.762Z" fill="#0E314C"/>
<path d="M279.963 132.424C280.105 132.571 280.968 131.934 282.194 131.937C283.418 131.922 284.318 132.554 284.45 132.403C284.516 132.337 284.377 132.07 283.98 131.783C283.45 131.415 282.819 131.221 282.173 131.227C281.536 131.224 280.914 131.425 280.398 131.8C280.023 132.088 279.894 132.356 279.963 132.424Z" fill="#0E314C"/>
<path d="M275.517 141.513C274.871 141.31 274.202 141.19 273.526 141.154C273.213 141.122 272.917 141.06 272.865 140.847C272.839 140.523 272.912 140.199 273.074 139.919C273.368 139.161 273.677 138.366 274 137.536C275.285 134.142 276.216 131.352 276.078 131.302C275.941 131.251 274.788 133.96 273.506 137.353C273.196 138.19 272.901 138.988 272.619 139.751C272.423 140.129 272.365 140.563 272.456 140.979C272.502 141.089 272.572 141.188 272.661 141.267C272.75 141.346 272.856 141.404 272.971 141.437C273.144 141.483 273.323 141.508 273.502 141.51C274.171 141.597 274.848 141.598 275.517 141.513Z" fill="#0E314C"/>
<path d="M279.11 142.36C278.911 142.348 278.908 143.678 277.769 144.623C276.63 145.568 275.214 145.42 275.204 145.606C275.185 145.69 275.521 145.865 276.118 145.882C276.897 145.893 277.656 145.628 278.26 145.135C278.839 144.661 279.211 143.981 279.298 143.237C279.349 142.682 279.201 142.353 279.11 142.36Z" fill="#0E314C"/>
<path d="M279.405 129.687C279.526 130.021 280.749 129.863 282.187 130.036C283.628 130.183 284.788 130.601 284.979 130.302C285.064 130.159 284.862 129.847 284.391 129.523C283.769 129.121 283.059 128.872 282.322 128.799C281.586 128.71 280.84 128.798 280.145 129.055C279.619 129.265 279.353 129.527 279.405 129.687Z" fill="#0E314C"/>
<path d="M268.375 128.647C268.591 128.926 269.435 128.636 270.45 128.623C271.465 128.573 272.326 128.81 272.524 128.519C272.611 128.378 272.475 128.098 272.1 127.835C271.597 127.511 271.007 127.352 270.41 127.379C269.814 127.389 269.235 127.585 268.755 127.938C268.398 128.224 268.28 128.511 268.375 128.647Z" fill="#0E314C"/>
<path d="M285.847 129.014C287.32 129.016 288.749 128.507 289.889 127.573C290.623 129.532 290.609 131.703 291.281 133.682C291.953 135.662 293.537 143.83 295.605 143.518C297.505 143.232 298.853 134.995 299.337 133.139C300.675 128.005 298.998 122.348 295.585 118.284C291.534 113.463 284.78 109.352 278.498 109.797C275.687 109.915 272.974 110.87 270.709 112.539C270.709 112.539 267.32 115.153 267.603 118.486C267.997 123.132 274.772 126.128 279.433 125.981L280.094 126.626C280.846 127.386 281.743 127.989 282.73 128.399C283.718 128.809 284.778 129.018 285.847 129.014Z" fill="#0E314C"/>
<path d="M266.146 127.494C267.301 126.539 268.114 125.234 268.46 123.776C268.8 122.327 268.981 120.846 268.999 119.359C269.021 118.929 268.958 118.374 268.542 118.26C268.141 118.15 267.807 118.565 267.61 118.933C266.154 121.689 265.638 124.845 266.14 127.921C266.228 127.839 265.863 128.154 265.951 128.068" fill="#0E314C"/>
<path d="M296.197 161.934C297.379 160.886 298.29 159.568 298.854 158.093C299.419 156.618 299.619 155.028 299.439 153.459C299.145 151.073 297.959 148.804 298.074 146.405C298.165 144.512 299.056 142.764 299.664 140.968C300.658 138.022 300.907 134.875 300.389 131.809C299.979 129.396 298.993 126.933 297.006 125.503C295.018 124.073 291.87 124.107 290.403 126.067L289.687 126.288C288.052 129.699 287.422 133.506 287.872 137.262C288.321 141.018 289.832 144.569 292.226 147.498C290.439 149.518 289.468 152.131 289.502 154.828C289.535 157.525 290.571 160.113 292.407 162.089C291.123 163.765 290.308 165.751 290.043 167.846C289.779 169.94 290.077 172.067 290.905 174.009C290.927 174.059 290.955 174.106 290.978 174.156C289.532 175.705 288.579 177.649 288.24 179.741C288.021 181.234 288.119 182.756 288.53 184.209C288.94 185.661 289.652 187.01 290.62 188.168C288.866 189.793 287.387 191.869 287.086 194.241C286.792 196.567 287.889 199.156 290.025 200.104C289.214 200.818 288.582 201.713 288.18 202.717C287.778 203.721 287.618 204.805 287.712 205.882C287.849 207.088 288.303 208.237 289.028 209.211C289.752 210.185 290.721 210.951 291.837 211.43C292.874 210.38 294.019 209.444 295.255 208.637C294.582 208.311 294.031 207.78 293.681 207.119C294.454 207.677 295.387 207.971 296.34 207.957L295.194 202.74C295.053 201.784 294.711 200.868 294.191 200.053C294.15 199.999 294.102 199.947 294.056 199.896C295.41 199.216 296.471 198.067 297.039 196.663C298.075 193.984 297.363 190.903 295.978 188.388C297.44 185.385 298.826 182.222 298.859 178.885C298.868 177.365 298.536 175.863 297.89 174.488C299.2 172.494 299.916 170.168 299.952 167.783C299.867 165.327 298.494 162.803 296.197 161.934Z" fill="#0E314C"/>
<path d="M295.137 188.112C295.223 188.212 294.293 188.928 292.912 188.942C291.53 188.968 290.579 188.28 290.661 188.18C290.728 188.05 291.674 188.474 292.905 188.442C294.134 188.436 295.067 187.984 295.137 188.112Z" fill="#235F87"/>
<path d="M297.295 176.226C297.384 176.364 294.661 177.532 292.534 180.34C290.361 183.115 289.928 186.047 289.771 185.998C289.741 185.361 289.838 184.723 290.057 184.124C290.491 182.645 291.196 181.26 292.138 180.039C293.077 178.817 294.236 177.781 295.556 176.985C296.079 176.618 296.671 176.36 297.295 176.226Z" fill="#235F87"/>
<path d="M296.337 174.599C296.42 174.701 295.498 175.377 294.149 175.373C292.8 175.383 291.877 174.712 291.958 174.607C292.025 174.477 292.948 174.887 294.149 174.874C295.348 174.882 296.271 174.468 296.337 174.599Z" fill="#235F87"/>
<path d="M297.835 172.977C297.675 172.99 297.856 170.49 296.512 167.845C295.216 165.175 293.116 163.808 293.223 163.688C293.735 163.868 294.199 164.162 294.581 164.548C295.571 165.404 296.38 166.449 296.96 167.622C297.543 168.793 297.887 170.069 297.971 171.374C298.048 171.912 298.001 172.46 297.835 172.977Z" fill="#235F87"/>
<path d="M296.587 160.588C296.698 160.662 296.191 161.456 295.15 161.857C294.11 162.258 293.201 162.026 293.235 161.898C293.25 161.751 294.068 161.751 294.969 161.391C295.877 161.047 296.478 160.492 296.587 160.588Z" fill="#235F87"/>
<path d="M293.615 161.146C293.091 160.678 292.723 160.06 292.559 159.377C292.08 157.746 292.16 156.003 292.785 154.423C293.415 152.878 294.332 151.467 295.487 150.263C295.916 149.729 296.425 149.263 296.994 148.881C296.633 149.456 296.218 149.996 295.754 150.493C294.714 151.725 293.87 153.11 293.252 154.599C292.669 156.089 292.546 157.719 292.898 159.28C293.102 159.915 293.341 160.538 293.615 161.146Z" fill="#235F87"/>
<path d="M297.061 147.72C297.106 147.842 296.026 148.238 294.681 147.959C293.336 147.679 292.494 146.9 292.585 146.806C292.669 146.687 293.558 147.228 294.781 147.468C296 147.726 297.031 147.573 297.061 147.72Z" fill="#235F87"/>
<path d="M300.91 134.521C300.192 134.731 299.438 134.786 298.697 134.681C296.889 134.541 295.145 133.947 293.627 132.954C292.114 131.954 290.878 130.588 290.034 128.982C289.645 128.343 289.396 127.629 289.305 126.887C289.384 126.86 289.65 127.662 290.341 128.809C291.24 130.298 292.456 131.571 293.903 132.537C295.362 133.483 297.012 134.095 298.736 134.33C300.061 134.511 300.904 134.438 300.91 134.521Z" fill="#235F87"/>
<path d="M300.162 139.459C300.177 139.478 299.98 139.676 299.522 139.87C298.862 140.121 298.146 140.185 297.451 140.058C295.68 139.803 293.51 138.447 291.815 136.392C290.361 134.624 289.418 132.492 289.087 130.227C288.988 129.548 288.955 128.86 288.99 128.175C288.987 127.921 289.027 127.669 289.109 127.429C289.206 127.429 289.104 128.503 289.436 130.167C289.855 132.335 290.806 134.365 292.203 136.076C293.835 138.055 295.877 139.39 297.514 139.71C298.402 139.895 299.325 139.807 300.162 139.459Z" fill="#235F87"/>
<path d="M295.113 198.942C295.211 199.03 294.231 199.908 292.688 199.994C291.145 200.096 290.067 199.344 290.153 199.244C290.216 199.11 291.28 199.593 292.657 199.495C294.033 199.426 295.034 198.819 295.113 198.942Z" fill="#235F87"/>
<path d="M293.186 200.415C293.188 199.911 293.232 199.408 293.316 198.911C293.396 197.721 293.262 196.527 292.921 195.384C292.571 194.242 292.019 193.172 291.291 192.225C290.729 191.499 290.296 191.109 290.348 191.049C290.38 191.003 290.901 191.3 291.56 192C292.408 192.929 293.036 194.037 293.397 195.242C293.764 196.444 293.856 197.714 293.665 198.957C293.626 199.475 293.462 199.976 293.186 200.415Z" fill="#235F87"/>
<path d="M326.019 214.072C324.896 204.797 323.404 196.89 323.404 196.89H303.301C303.301 196.89 305.799 208.657 305.24 211.385C304.753 213.762 265.797 215.337 255.642 215.497C255.039 215.042 254.16 215.804 253.378 215.125C252.686 214.517 252.102 213.797 251.652 212.994C251.048 212.013 250.58 210.955 250.262 209.848C250.244 209.629 250.156 209.422 250.012 209.256C249.867 209.09 249.674 208.974 249.46 208.924C249.245 208.875 249.021 208.896 248.819 208.983C248.617 209.069 248.448 209.218 248.336 209.407C247.93 210.277 248.386 213.171 250.316 215.967C252.245 218.763 247.189 217.31 245.337 216.815C243.485 216.319 237.686 215.063 237.086 215.526C236.209 216.204 236.759 217.296 238.62 217.747C240.504 218.203 245.968 219.951 245.668 220.943C245.374 221.918 235.978 219.264 235.978 219.264C235.978 219.264 234.058 218.364 233.674 219.496C232.981 221.539 243.169 223.607 244.143 223.78C244.82 223.899 244.532 224.987 243.811 224.819C243.069 224.645 234.5 221.947 233.776 224.021C233.22 225.611 242.141 225.801 243.617 227.374C245.093 228.947 236.865 226.524 236.394 228.066C236.218 228.641 239.642 228.907 244.561 229.598C249.163 230.245 257.722 230.186 259.771 230.139C271.183 230.764 311.52 231.598 320.13 230.989C330.172 230.282 326.405 217.257 326.019 214.072Z" fill="#FFB39D"/>
<path d="M192.688 177.256L209.23 225.599H284.138L283.586 223.11L253.297 222.173L239.342 177.231L192.688 177.256Z" fill="#E1E1E1"/>
<path d="M225.885 199.96C226.379 201.944 225.531 203.88 223.99 204.295C222.448 204.709 220.798 203.435 220.305 201.455C219.811 199.475 220.659 197.534 222.2 197.12C223.741 196.705 225.39 197.979 225.885 199.96Z" fill="white"/>
<path d="M317.695 376.179C317.696 377.405 318.184 378.581 319.051 379.448C319.918 380.316 321.094 380.803 322.321 380.804C323.548 380.804 324.725 380.317 325.593 379.45C326.461 378.582 326.949 377.406 326.95 376.179C326.95 374.951 326.462 373.774 325.594 372.905C324.726 372.037 323.548 371.55 322.321 371.55C321.094 371.551 319.917 372.039 319.05 372.907C318.183 373.775 317.695 374.952 317.695 376.179Z" fill="#0E314C"/>
<path d="M182.093 104.243L164.727 110.355L167.472 133.109L182.113 141.156L196.829 133L199.573 110.247L182.093 104.243Z" fill="#B3B3B3"/>
<path d="M197.841 111.562L182.055 106.177V139.231L195.284 131.909L197.841 111.562Z" fill="#AF2B2D"/>
<path d="M166.68 111.658L169.031 132.008L182.056 139.233V106.176L166.68 111.656V111.658Z" fill="#DF2E31"/>
<path d="M185.711 122.623L182.081 115.04L178.885 122.623H185.711ZM187.096 125.811H177.47L175.317 131.196L171.312 131.269L182.05 107.382L193.163 131.269H189.451L187.093 125.811H187.096Z" fill="#F2F2F2"/>
<path d="M182.055 107.379L182.084 115.038L185.71 122.625H182.064L182.055 125.801L187.098 125.807L189.455 131.267L193.287 131.341L182.055 107.379Z" fill="#B3B3B3"/>
<defs>
<linearGradient id="paint0_linear_3045_1289" x1="22.6484" y1="330.874" x2="84.3502" y2="330.874" gradientUnits="userSpaceOnUse">
<stop stop-color="#00B1E0"/>
<stop offset="1" stop-color="#8AEEFF"/>
</linearGradient>
<linearGradient id="paint1_linear_3045_1289" x1="261.117" y1="328.8" x2="322.82" y2="328.8" gradientUnits="userSpaceOnUse">
<stop stop-color="#00B1E0"/>
<stop offset="1" stop-color="#8AEEFF"/>
</linearGradient>
<linearGradient id="paint2_linear_3045_1289" x1="21.6797" y1="235.766" x2="82.0919" y2="235.766" gradientUnits="userSpaceOnUse">
<stop stop-color="#00B1E0"/>
<stop offset="1" stop-color="#8AEEFF"/>
</linearGradient>
<linearGradient id="paint3_linear_3045_1289" x1="262.133" y1="189.287" x2="265.36" y2="189.287" gradientUnits="userSpaceOnUse">
<stop stop-color="#00B1E0"/>
<stop offset="1" stop-color="#8AEEFF"/>
</linearGradient>
<linearGradient id="paint4_linear_3045_1289" x1="299.844" y1="196.92" x2="305.286" y2="196.92" gradientUnits="userSpaceOnUse">
<stop stop-color="#00B1E0"/>
<stop offset="1" stop-color="#8AEEFF"/>
</linearGradient>
</defs>
</svg>
