<svg width="545" height="342" viewBox="0 0 545 342" fill="none" xmlns="http://www.w3.org/2000/svg">
<path d="M380.768 20.7H502.703V116.731H380.768V20.7Z" fill="#E0E0E0"/>
<path opacity="0.9" d="M387.211 27.0994H496.469V110.331H387.211V27.0994Z" fill="#F5F5F5"/>
<path d="M392.737 34.4199H490.578V104.191H392.737V34.4199Z" fill="white"/>
<path opacity="0.9" d="M405.623 47.7437H473.891V89.695H405.623V47.7437Z" fill="#F5F5F5"/>
<path d="M35.721 20.7H157.656V116.731H35.721V20.7Z" fill="#E0E0E0"/>
<path opacity="0.9" d="M42.1563 27.0994H151.414V110.331H42.1563V27.0994Z" fill="#F5F5F5"/>
<path d="M47.6827 34.4199H145.523V104.191H47.6827V34.4199Z" fill="white"/>
<path opacity="0.9" d="M60.5602 47.7437H128.828V89.695H60.5602V47.7437Z" fill="#F5F5F5"/>
<path d="M28.79 223.055H174.82C176.075 223.053 177.278 222.554 178.166 221.666C179.053 220.779 179.553 219.576 179.555 218.321V5.59035C179.553 4.33524 179.053 3.13214 178.166 2.24464C177.278 1.35714 176.075 0.857605 174.82 0.855469L28.79 0.855469C27.5335 0.855467 26.3283 1.35406 25.4391 2.24179C24.5498 3.12952 24.0492 4.33384 24.047 5.59035V218.321C24.0492 219.577 24.5498 220.781 25.4391 221.669C26.3283 222.557 27.5335 223.055 28.79 223.055ZM174.82 1.05747C176.022 1.05747 177.175 1.53504 178.025 2.38512C178.875 3.2352 179.353 4.38815 179.353 5.59035V218.321C179.353 219.523 178.875 220.676 178.025 221.526C177.175 222.376 176.022 222.853 174.82 222.853H28.79C27.5871 222.853 26.4333 222.376 25.5819 221.526C24.7306 220.676 24.2512 219.524 24.249 218.321V5.59035C24.2512 4.38741 24.7306 3.23448 25.5819 2.38463C26.4333 1.53478 27.5871 1.05747 28.79 1.05747H174.82Z" fill="#E0E0E0"/>
<path d="M197.196 223.055H343.242C344.497 223.053 345.7 222.554 346.587 221.666C347.475 220.779 347.974 219.576 347.977 218.321V5.59035C347.974 4.33524 347.475 3.13214 346.587 2.24464C345.7 1.35714 344.497 0.857605 343.242 0.855469L197.196 0.855469C195.941 0.857605 194.737 1.35714 193.85 2.24464C192.962 3.13214 192.463 4.33524 192.461 5.59035V218.321C192.463 219.576 192.962 220.779 193.85 221.666C194.737 222.554 195.941 223.053 197.196 223.055ZM343.242 1.05747C344.436 1.07022 345.578 1.55316 346.419 2.40163C347.259 3.2501 347.732 4.39576 347.734 5.59035V218.321C347.732 219.522 347.254 220.674 346.404 221.523C345.555 222.373 344.403 222.851 343.201 222.853H197.196C195.994 222.851 194.842 222.373 193.993 221.523C193.143 220.674 192.665 219.522 192.663 218.321V5.59035C192.665 4.38881 193.143 3.2371 193.993 2.38748C194.842 1.53786 195.994 1.0596 197.196 1.05747H343.242Z" fill="#E0E0E0"/>
<path d="M365.508 223.055H511.538C512.795 223.055 514 222.557 514.889 221.669C515.778 220.781 516.279 219.577 516.281 218.321V5.59035C516.279 4.33384 515.778 3.12952 514.889 2.24179C514 1.35406 512.795 0.855467 511.538 0.855469L365.508 0.855469C364.253 0.857605 363.05 1.35714 362.163 2.24464C361.275 3.13214 360.776 4.33524 360.774 5.59035V218.321C360.776 219.576 361.275 220.779 362.163 221.666C363.05 222.554 364.253 223.053 365.508 223.055ZM511.538 1.05747C512.741 1.05747 513.895 1.53478 514.746 2.38463C515.598 3.23448 516.077 4.38741 516.079 5.59035V218.321C516.077 219.524 515.598 220.676 514.746 221.526C513.895 222.376 512.741 222.853 511.538 222.853H365.508C364.306 222.853 363.153 222.376 362.303 221.526C361.453 220.676 360.976 219.523 360.976 218.321V5.59035C360.976 4.38815 361.453 3.2352 362.303 2.38512C363.153 1.53504 364.306 1.05747 365.508 1.05747H511.538Z" fill="#E0E0E0"/>
<path d="M0.0014267 296.131H45.0312V296.47H0.0014267V296.131Z" fill="#EBEBEB"/>
<path d="M161.351 299.823H173.172V300.163H161.351V299.823Z" fill="#EBEBEB"/>
<path d="M481.611 285.797H540.328V286.136H481.611V285.797Z" fill="#EBEBEB"/>
<path d="M460.887 285.797H469.5V286.136H460.887V285.797Z" fill="#EBEBEB"/>
<path d="M305.557 291.533H432.906V291.873H305.557V291.533Z" fill="#EBEBEB"/>
<path d="M516.392 253.961C516.392 253.606 517.604 218.329 523.341 212.753C528.924 207.332 535.323 212.551 535.598 212.753L536.172 212.067C536.099 212.002 528.9 206.103 522.711 212.067C516.715 217.892 515.544 252.426 515.495 253.897L516.392 253.961Z" fill="#E0E0E0"/>
<path d="M515.901 260.894C515.901 260.474 519.827 218.539 504.508 200.965L503.837 201.554C518.89 218.838 515.052 260.393 514.996 260.813L515.901 260.894Z" fill="#E0E0E0"/>
<path d="M516.463 256.458L517.36 256.402C517.36 255.925 514.362 208.73 525.602 198.395L524.987 197.733C513.441 208.358 516.334 254.503 516.463 256.458Z" fill="#E0E0E0"/>
<path d="M514.993 256.434H515.906C515.906 255.133 515.535 224.558 506.849 219.581C506.019 219.042 505.072 218.71 504.088 218.615C503.103 218.519 502.11 218.662 501.193 219.032C495.941 221.205 493.339 230.554 493.234 230.95L494.098 231.184C494.098 231.095 496.692 221.868 501.54 219.872C502.328 219.558 503.18 219.439 504.024 219.525C504.868 219.611 505.679 219.899 506.388 220.365C514.638 225.075 514.993 256.119 514.993 256.434Z" fill="#E0E0E0"/>
<path d="M518.386 256.458L519.283 256.41C519.283 256.167 517.974 232.242 524.43 223.815C525.989 221.771 527.662 220.793 529.488 220.922C533.714 221.221 537.261 227.386 537.301 227.467L538.109 227.031C537.956 226.756 534.296 220.357 529.585 220.026C527.476 219.88 525.545 220.971 523.751 223.258C517.053 231.944 518.33 255.464 518.386 256.458Z" fill="#E0E0E0"/>
<path d="M516.972 259.714C517.15 257.387 521.19 202.767 514.071 193.135L513.352 193.669C520.268 203.033 516.115 259.076 516.075 259.642L516.972 259.714Z" fill="#E0E0E0"/>
<path d="M499.29 224.558C499.29 224.558 503.556 226.134 502.288 229.851C501.019 233.567 487.518 239.684 487.518 239.684C487.518 239.684 481.862 234.497 487.057 226.069C492.252 217.642 499.169 221.9 499.29 224.558Z" fill="#EBEBEB"/>
<path d="M517.855 217.488C517.855 217.488 513.306 217.294 513.007 221.213C512.708 225.132 522.897 235.983 522.897 235.983C522.897 235.983 530.112 233.374 528.553 223.597C526.993 213.82 518.986 215.072 517.855 217.488Z" fill="#EBEBEB"/>
<path d="M521.696 198.727C521.696 198.727 518.666 198.403 518.908 196.561C519.151 194.719 530.689 189.96 537.492 197.644C537.492 197.644 533.137 205.134 526.835 205.231C520.532 205.328 521.696 198.727 521.696 198.727Z" fill="#EBEBEB"/>
<path d="M516.047 194.242C516.047 194.242 518.794 195.575 519.562 193.878C520.329 192.182 513.049 182.041 503.208 184.99C503.208 184.99 502.949 193.652 508.242 197.062C513.534 200.472 516.047 194.242 516.047 194.242Z" fill="#EBEBEB"/>
<path d="M530.401 223.055C530.401 223.055 528.308 221.367 530.571 220.543C532.833 219.718 543.903 219.953 544.016 230.925C544.016 230.925 531.088 233.075 529.52 228.889C527.953 224.704 530.401 223.055 530.401 223.055Z" fill="#EBEBEB"/>
<path d="M504.095 198.452C504.095 198.452 506.188 196.763 503.934 195.939C501.679 195.115 490.594 195.349 490.48 206.322C490.48 206.322 503.408 208.471 504.976 204.286C506.543 200.1 504.095 198.452 504.095 198.452Z" fill="#EBEBEB"/>
<path d="M510.908 207.291C510.908 207.291 511.094 205.279 509.438 206.087C507.781 206.895 502.004 213.117 507.991 219.015C507.991 219.015 516.071 213.044 514.593 209.942C513.114 206.839 510.908 207.291 510.908 207.291Z" fill="#EBEBEB"/>
<path d="M532.273 210.217C532.273 210.217 531.021 208.601 532.855 208.374C534.689 208.148 542.891 210.362 540.935 218.555C540.935 218.555 530.94 217.804 530.512 214.402C530.084 211 532.273 210.217 532.273 210.217Z" fill="#EBEBEB"/>
<path d="M506.6 272.263H526.768L532.133 247.522H501.744L506.6 272.263Z" fill="#EEEEEE"/>
<path d="M499.993 247.158H533.961V254.277H499.993V247.158Z" fill="#E3E3E3"/>
<path d="M0.00335693 170.543H256.414V270.978H0.00335693V170.543Z" fill="#F5F5F5"/>
<path d="M0.0162048 166.924H259.578V175.885H0.0162048V166.924Z" fill="#F5F5F5"/>
<path d="M190.137 180.062H249.727V262.534H190.137V180.062Z" stroke="#E0E0E0" stroke-miterlimit="10"/>
<path d="M124.472 180.062H184.062V262.534H124.472V180.062Z" stroke="#E0E0E0" stroke-miterlimit="10"/>
<path d="M58.8162 180.062H118.406V262.534H58.8162V180.062Z" stroke="#E0E0E0" stroke-miterlimit="10"/>
<path d="M5.08609 180.062H52.75V262.534H5.08609V180.062Z" stroke="#E0E0E0" stroke-miterlimit="10"/>
<path d="M254.225 177.533H1.80629C1.48485 177.533 1.17657 177.405 0.94928 177.178C0.721985 176.95 0.594299 176.642 0.594299 176.321C0.594299 175.999 0.721985 175.691 0.94928 175.464C1.17657 175.236 1.48485 175.109 1.80629 175.109H254.225C254.547 175.109 254.855 175.236 255.083 175.464C255.31 175.691 255.438 175.999 255.438 176.321C255.438 176.642 255.31 176.95 255.083 177.178C254.855 177.405 254.547 177.533 254.225 177.533Z" fill="#E0E0E0"/>
<path d="M103.388 336.361C103.388 339.092 193.949 341.314 305.663 341.314C417.377 341.314 507.93 339.092 507.93 336.361C507.93 333.63 417.369 331.408 305.663 331.408C193.957 331.408 103.388 333.622 103.388 336.361Z" fill="#F5F5F5"/>
<path d="M55.459 284.358C56.1302 281.987 56.5287 279.548 56.6467 277.086C56.7505 274.606 56.0067 272.163 54.5378 270.162C53.2935 268.618 51.524 267.56 50.32 265.992C48.3081 263.35 48.09 259.528 45.5933 257.315C43.9288 255.852 41.5936 255.456 39.6706 254.349C37.7476 253.242 36.2851 251.424 34.5156 250.034C32.746 248.645 30.3301 247.667 28.2778 248.588C25.7003 249.735 25.1024 253.226 25.7892 255.957C26.476 258.688 28.0597 261.177 28.5202 263.956C28.8353 265.887 28.6818 268.085 29.9908 269.54C31.2997 270.994 33.8449 271.099 35.3801 272.473C36.9153 273.846 37.1173 276.391 37.7233 278.5C38.2214 280.226 39.1167 281.812 40.3377 283.13C41.5586 284.448 43.0712 285.462 44.7543 286.09C46.4374 286.718 48.2443 286.944 50.0302 286.748C51.8161 286.553 53.5314 285.942 55.0388 284.964" fill="#407BFF"/>
<path d="M54.6637 249.719C57.0295 249.033 59.3094 248.079 61.459 246.875C63.622 245.654 65.3016 243.73 66.2181 241.421C66.8726 239.555 66.8241 237.486 67.5271 235.636C68.6987 232.533 71.8499 230.311 72.3751 227.031C72.7387 224.849 71.8337 222.659 71.7529 220.446C71.6721 218.232 72.4397 216.018 72.6821 213.78C72.9245 211.541 72.472 208.98 70.6136 207.72C68.2704 206.104 64.998 207.485 63.0346 209.521C61.0711 211.558 59.8026 214.2 57.6937 216.066C56.2231 217.359 54.2759 218.385 53.7426 220.268C53.2093 222.15 54.4617 224.364 54.1061 226.392C53.7345 228.558 51.6822 229.948 50.2358 231.572C49.0323 232.907 48.1584 234.506 47.6843 236.24C47.2101 237.974 47.1489 239.795 47.5055 241.557C47.8622 243.319 48.6268 244.973 49.7379 246.386C50.8491 247.8 52.276 248.933 53.9042 249.695" fill="#407BFF"/>
<g opacity="0.2">
<path d="M54.6637 249.719C57.0295 249.033 59.3094 248.078 61.459 246.875C63.622 245.654 65.3016 243.729 66.2181 241.421C66.8726 239.555 66.8241 237.486 67.5271 235.636C68.6987 232.533 71.8499 230.311 72.3751 227.031C72.7387 224.849 71.8337 222.659 71.7529 220.445C71.6721 218.231 72.4397 216.017 72.6821 213.779C72.9245 211.541 72.472 208.98 70.6136 207.719C68.2704 206.103 64.998 207.485 63.0346 209.521C61.0711 211.557 59.8026 214.199 57.6937 216.066C56.2231 217.359 54.2759 218.385 53.7426 220.268C53.2093 222.15 54.4617 224.364 54.1061 226.392C53.7345 228.558 51.6822 229.947 50.2358 231.571C49.0323 232.907 48.1584 234.506 47.6843 236.24C47.2101 237.974 47.1489 239.795 47.5055 241.557C47.8622 243.319 48.6268 244.973 49.7379 246.386C50.8491 247.799 52.276 248.933 53.9042 249.695" fill="black"/>
</g>
<path d="M58.8503 275.107C60.2493 276.355 61.7864 277.439 63.4317 278.339C65.0966 279.252 67.025 279.566 68.8938 279.227C70.3724 278.904 71.6975 278.04 73.1761 277.749C75.6648 277.256 78.3796 278.411 80.7228 277.442C82.2904 276.787 83.3488 275.317 84.7628 274.379C86.1768 273.442 87.914 273.038 89.4654 272.295C91.0168 271.551 92.5035 270.226 92.5682 268.505C92.649 266.348 90.4512 264.764 88.3423 264.312C86.2334 263.859 84.0033 264.11 81.9429 263.504C80.5047 263.076 79.0584 262.227 77.6201 262.631C76.1819 263.035 75.2446 264.748 73.7822 265.338C72.3197 265.928 70.5097 265.209 68.8614 264.91C67.5082 264.667 66.1168 264.744 64.7989 265.136C63.481 265.527 62.2732 266.222 61.2724 267.165C60.2715 268.108 59.5055 269.272 59.0358 270.564C58.5661 271.856 58.4057 273.24 58.5675 274.606" fill="#407BFF"/>
<g opacity="0.2">
<path d="M58.8503 275.107C60.2493 276.355 61.7864 277.439 63.4317 278.339C65.0966 279.252 67.025 279.566 68.8938 279.227C70.3724 278.904 71.6975 278.04 73.1761 277.749C75.6648 277.256 78.3796 278.411 80.7228 277.442C82.2904 276.787 83.3488 275.317 84.7628 274.379C86.1768 273.442 87.914 273.038 89.4654 272.295C91.0168 271.551 92.5035 270.226 92.5682 268.505C92.649 266.348 90.4512 264.764 88.3423 264.312C86.2334 263.859 84.0033 264.11 81.9429 263.504C80.5047 263.076 79.0584 262.227 77.6201 262.631C76.1819 263.035 75.2446 264.748 73.7822 265.338C72.3197 265.928 70.5097 265.209 68.8614 264.91C67.5082 264.667 66.1168 264.744 64.7989 265.136C63.481 265.527 62.2732 266.222 61.2724 267.165C60.2715 268.108 59.5055 269.272 59.0358 270.564C58.5661 271.856 58.4057 273.24 58.5675 274.606" fill="black"/>
</g>
<path d="M59.3784 267.124C61.8466 267.611 64.3624 267.814 66.8767 267.73C69.4144 267.639 71.8441 266.681 73.7608 265.015C75.2233 263.625 76.1848 261.734 77.6554 260.377C80.1764 258.107 84.1194 257.573 86.1071 254.85C87.4565 253.04 87.6584 250.624 88.628 248.58C89.5976 246.536 91.3348 244.888 92.6034 242.973C93.872 241.058 94.6638 238.512 93.5649 236.509C92.1832 233.98 88.5796 233.656 85.8485 234.586C83.1175 235.515 80.7258 237.325 77.9301 238.02C75.9909 238.504 73.7366 238.521 72.3711 239.975C71.0056 241.429 71.1025 244.015 69.8259 245.712C68.5492 247.409 65.9798 247.805 63.879 248.588C62.1601 249.236 60.6169 250.277 59.3731 251.629C58.1293 252.981 57.2195 254.605 56.7168 256.372C56.214 258.139 56.1322 259.999 56.478 261.803C56.8238 263.607 57.5874 265.305 58.7078 266.76" fill="#407BFF"/>
<path d="M56.4558 253.04C57.6907 250.497 58.6313 247.822 59.2596 245.065C59.8843 242.276 59.5365 239.356 58.2738 236.791C57.183 234.796 55.3893 233.244 54.347 231.224C52.6098 227.839 53.143 223.443 50.7594 220.47C49.1434 218.482 46.6144 217.569 44.6671 215.929C42.7198 214.289 41.4351 211.937 39.7141 210.014C37.9931 208.091 35.4559 206.499 32.9511 207.114C29.808 207.922 28.4344 211.719 28.6606 214.951C28.8869 218.183 30.1635 221.302 30.1231 224.542C30.1231 226.78 29.4767 229.237 30.6645 231.135C31.8522 233.034 34.7045 233.672 36.167 235.539C37.6294 237.405 37.3385 240.322 37.5971 242.811C37.8089 244.863 38.4988 246.838 39.6114 248.575C40.7241 250.313 42.2285 251.766 44.004 252.817C45.7795 253.868 47.7767 254.488 49.8353 254.628C51.8938 254.768 53.9566 254.423 55.8579 253.622" fill="#407BFF"/>
<path d="M59.6058 291C51.2188 278.072 41.5228 266.081 31.5601 254.381C31.3097 254.091 31.7379 253.662 31.9884 253.953C41.9833 265.693 51.7116 277.757 60.131 290.693C60.3411 291.016 59.8159 291.323 59.6058 291Z" fill="#263238"/>
<path d="M59.5603 290.846C60.3683 281.005 58.3402 270.929 55.8112 261.468C52.9866 250.757 49.0293 240.378 44.0063 230.505C41.6578 225.774 38.8601 221.28 35.6516 217.084C35.4172 216.777 35.8455 216.349 36.0879 216.656C42.2125 224.453 46.5919 233.664 50.244 242.827C54.5148 253.259 57.5755 264.147 59.3663 275.276C60.2368 280.418 60.508 285.643 60.1743 290.846C60.1743 291.226 59.536 291.234 59.5683 290.846H59.5603Z" fill="#263238"/>
<path d="M58.4682 266.477C60.9891 261.338 65.7967 258.042 70.3862 254.883C75.9694 251.036 80.971 246.73 84.9786 241.203C85.2049 240.896 85.7301 241.203 85.4958 241.51C81.6772 246.662 77.0105 251.126 71.6951 254.713C66.8471 258.05 61.6598 261.355 58.9853 266.784C58.8156 267.132 58.2904 266.825 58.4682 266.477Z" fill="#263238"/>
<path d="M37.3646 289.578H79.4775C79.4775 289.578 81.0935 317.131 67.7615 328.039L72.553 333.751H43.5135L48.9998 327.748C48.9998 327.748 38.0675 323.029 37.3646 289.578Z" fill="#263238"/>
<g opacity="0.3">
<path d="M65.988 292.026L76.9688 292.123C76.4031 298.062 75.8375 304.033 74.2296 309.778C72.6217 315.523 69.8907 321.09 65.5679 325.186C68.3474 314.561 67.2485 302.934 65.988 292.026Z" fill="white"/>
</g>
<path d="M135.232 90.0342L132.671 92.8541L130.004 95.7144C128.227 97.6052 126.457 99.4474 124.623 101.225C123.734 102.114 122.846 103.003 121.9 103.786C120.955 104.57 120.123 105.402 119.185 106.121C118.248 106.841 117.416 107.479 116.583 108.028C115.962 108.449 115.308 108.819 114.628 109.135L115.994 108.917C116.397 108.872 116.804 108.963 117.149 109.176C116.965 109.16 116.787 109.099 116.632 108.998C115.805 108.494 115.038 107.898 114.345 107.22C112.526 105.492 110.826 103.642 109.255 101.686C107.558 99.6575 105.91 97.492 104.27 95.2943C102.629 93.0965 100.981 90.8503 99.365 88.6444L99.2842 88.5475C98.7013 87.8401 97.8951 87.3519 96.9981 87.1632C96.1011 86.9745 95.1666 87.0964 94.348 87.509C93.5295 87.9216 92.8756 88.6002 92.4937 89.4335C92.1118 90.2668 92.0246 91.2052 92.2465 92.0946C93.1515 94.9064 94.1911 97.6644 95.3654 100.369C96.5289 103.027 97.7894 105.693 99.2761 108.36C100.797 111.132 102.554 113.768 104.528 116.238C105.701 117.699 107.022 119.033 108.471 120.221C109.433 120.995 110.486 121.649 111.606 122.168C113.253 122.936 115.058 123.307 116.874 123.251C117.209 123.241 117.542 123.198 117.868 123.122L118.24 123.041C120.186 122.575 122.069 121.875 123.847 120.956C125.336 120.198 126.774 119.345 128.154 118.403C130.688 116.702 133.105 114.832 135.386 112.804C137.624 110.856 139.7 108.82 141.72 106.752C142.714 105.701 143.708 104.659 144.661 103.576C145.615 102.494 146.52 101.435 147.53 100.199C148.683 98.5693 149.186 96.5674 148.938 94.5864C148.691 92.6053 147.712 90.7884 146.193 89.4925C144.675 88.1966 142.726 87.5154 140.731 87.5827C138.736 87.6501 136.838 88.4611 135.41 89.8564L135.232 90.0342Z" fill="#407BFF"/>
<path opacity="0.8" d="M135.232 90.0342L132.671 92.8541L130.004 95.7144C128.227 97.6052 126.457 99.4474 124.623 101.225C123.734 102.114 122.846 103.003 121.9 103.786C120.955 104.57 120.123 105.402 119.185 106.121C118.248 106.841 117.416 107.479 116.583 108.028C115.962 108.449 115.308 108.819 114.628 109.135L115.994 108.917C116.397 108.872 116.804 108.963 117.149 109.176C116.965 109.16 116.787 109.099 116.632 108.998C115.805 108.494 115.038 107.898 114.345 107.22C112.526 105.492 110.826 103.642 109.255 101.686C107.558 99.6575 105.91 97.492 104.27 95.2943C102.629 93.0965 100.981 90.8503 99.365 88.6444L99.2842 88.5475C98.7013 87.8401 97.8951 87.3519 96.9981 87.1632C96.1011 86.9745 95.1666 87.0964 94.348 87.509C93.5295 87.9216 92.8756 88.6002 92.4937 89.4335C92.1118 90.2668 92.0246 91.2052 92.2465 92.0946C93.1515 94.9064 94.1911 97.6644 95.3654 100.369C96.5289 103.027 97.7894 105.693 99.2761 108.36C100.797 111.132 102.554 113.768 104.528 116.238C105.701 117.699 107.022 119.033 108.471 120.221C109.433 120.995 110.486 121.649 111.606 122.168C113.253 122.936 115.058 123.307 116.874 123.251C117.209 123.241 117.542 123.198 117.868 123.122L118.24 123.041C120.186 122.575 122.069 121.875 123.847 120.956C125.336 120.198 126.774 119.345 128.154 118.403C130.688 116.702 133.105 114.832 135.386 112.804C137.624 110.856 139.7 108.82 141.72 106.752C142.714 105.701 143.708 104.659 144.661 103.576C145.615 102.494 146.52 101.435 147.53 100.199C148.683 98.5693 149.186 96.5674 148.938 94.5864C148.691 92.6053 147.712 90.7884 146.193 89.4925C144.675 88.1966 142.726 87.5154 140.731 87.5827C138.736 87.6501 136.838 88.4611 135.41 89.8564L135.232 90.0342Z" fill="white"/>
<path d="M95.3962 93.436L87.4859 93.8238L90.0553 83.1582C90.0553 83.1582 97.4162 83.6996 98.5959 87.4891C98.718 87.9105 98.6923 88.3609 98.5232 88.7657L97.0688 92.2563C96.9318 92.5921 96.7014 92.8817 96.405 93.0908C96.1086 93.2998 95.7586 93.4196 95.3962 93.436Z" fill="#FDBBB5"/>
<path d="M80.423 87.4971L81.9501 83.9419C82.2488 83.2544 82.7804 82.6942 83.4515 82.3602C84.1225 82.0262 84.8899 81.9396 85.6185 82.1158L90.0625 83.2066L87.493 93.8641L82.1683 91.7149C81.7808 91.5624 81.4271 91.335 81.1276 91.0457C80.828 90.7564 80.5884 90.4108 80.4225 90.0288C80.2567 89.6468 80.1678 89.2359 80.1609 88.8195C80.1541 88.4031 80.2294 87.9894 80.3826 87.6021C80.3911 87.5654 80.4047 87.5301 80.423 87.4971Z" fill="#FDBBB5"/>
<path d="M65.6409 86.5034H114.953V87.9093H65.6409V86.5034Z" fill="#407BFF"/>
<path d="M66.6701 87.9011H113.922L112.112 88.8869H68.48L66.6701 87.9011Z" fill="#407BFF"/>
<path opacity="0.2" d="M66.6701 87.9011H113.922L112.112 88.8869H68.48L66.6701 87.9011Z" fill="black"/>
<path d="M88.2642 66.6748C88.2546 67.0791 88.3656 67.4771 88.583 67.818C88.8005 68.159 89.1145 68.4275 89.4851 68.5893C89.8558 68.7511 90.2662 68.7989 90.6641 68.7265C91.062 68.6542 91.4293 68.465 91.7192 68.1831C92.0092 67.9011 92.2086 67.5393 92.2921 67.1436C92.3756 66.7479 92.3393 66.3363 92.188 65.9612C92.0367 65.5862 91.7771 65.2648 91.4423 65.0378C91.1076 64.8109 90.7129 64.6888 90.3085 64.6871C90.0429 64.6849 89.7795 64.7354 89.5336 64.8356C89.2876 64.9357 89.0639 65.0836 88.8753 65.2706C88.6868 65.4576 88.5371 65.6802 88.435 65.9253C88.3329 66.1705 88.2804 66.4334 88.2804 66.699L88.2642 66.6748Z" fill="#407BFF"/>
<path d="M68.9788 79.9908C70.3509 75.7499 72.9558 72.0141 76.4609 69.2606L75.9115 68.5576C72.2633 71.4215 69.5538 75.31 68.1305 79.7242L68.9788 79.9908Z" fill="#407BFF"/>
<path d="M79.5379 67.2161C80.5355 66.6682 81.5726 66.1955 82.6406 65.8021L82.3336 64.9941C81.221 65.4153 80.1407 65.9176 79.1016 66.497L79.5379 67.2161Z" fill="#407BFF"/>
<path d="M90.2922 66.675C95.6496 66.675 100.788 68.8033 104.576 72.5915C108.364 76.3797 110.492 81.5177 110.492 86.875H70.1488C70.1488 81.5177 72.277 76.3797 76.0652 72.5915C79.8534 68.8033 84.9914 66.675 90.3488 66.675H90.2922Z" fill="#407BFF"/>
<path opacity="0.3" d="M107.69 85.0408H102.471C102.29 85.0412 102.115 84.9772 101.977 84.8602C101.84 84.7432 101.748 84.5809 101.719 84.4025C100.669 78.8839 97.3803 74.0682 92.1364 69.8585C91.9922 69.7414 91.9002 69.572 91.8805 69.3873C91.8608 69.2026 91.9151 69.0176 92.0314 68.8727C92.1064 68.7803 92.2034 68.7082 92.3135 68.6631C92.4236 68.6179 92.5433 68.6011 92.6616 68.6142C96.6252 69.1362 100.311 70.935 103.161 73.7385C106.011 76.542 107.871 80.1975 108.458 84.152C108.475 84.3528 108.417 84.5528 108.294 84.7127C108.172 84.8727 107.994 84.981 107.795 85.0166L107.69 85.0408Z" fill="white"/>
<path d="M153.956 241.041C162.359 204.084 167.555 159.522 167.555 159.522L133.102 158.973C133.102 158.973 133.578 219.023 133.506 244.177C133.417 270.331 129.619 322.165 129.619 322.165L145.908 323.563C145.908 323.563 155.556 273.37 153.956 241.041Z" fill="#263238"/>
<path d="M156.64 190.048L162.094 198.128C160.478 208.22 158.539 219.33 156.292 230.222C155.347 213.488 155.509 194.04 156.64 190.048Z" fill="black"/>
<path d="M186.001 240.023C182.009 202.855 185.936 174.939 181.08 156.622L145.908 159.223C145.908 159.223 158.973 218.207 165.041 242.714C171.109 267.221 176.264 324.185 176.264 324.185L192.077 322.35C192.077 322.35 194.218 268.74 186.001 240.023Z" fill="#263238"/>
<path d="M167.625 86.1477C163.69 81.8087 166.009 71.3936 167.528 65.8103L153.517 75.1023C153.739 75.784 153.912 76.4807 154.034 77.1869C154.309 78.4474 154.196 78.8837 154.188 81.0977C154.01 83.15 153.542 85.5013 153.437 85.0488C153.437 85.0488 150.907 87.9495 159.497 88.9029C163.221 89.7352 167.625 86.1477 167.625 86.1477Z" fill="#FDBBB5"/>
<path opacity="0.2" d="M164.516 71.2966C164.411 78.0354 157.648 80.8149 154.149 81.437C154.27 80.0228 154.227 78.5993 154.02 77.195L164.516 71.2966Z" fill="black"/>
<path d="M170.318 61.1321C167.749 68.7677 166.464 73.1309 161.357 76.0154C153.681 80.3625 144.947 74.3995 145.108 66.0851C145.262 58.6354 149.431 47.3961 158.085 46.4346C159.977 46.1865 161.902 46.4213 163.679 47.1171C165.456 47.8129 167.029 48.9471 168.25 50.414C169.471 51.881 170.301 53.633 170.662 55.507C171.024 57.3811 170.906 59.3161 170.318 61.1321Z" fill="#FDBBB5"/>
<path d="M170.904 65.9962C168.908 67.4102 166.169 69.511 164.06 68.2667C163.252 63.0066 163.842 55.4356 166.298 53.0197C162.549 52.9712 148.118 52.0178 147.811 46.8789C147.472 41.3522 153.653 36.9243 156.982 37.1829C158.905 37.7727 157.725 41.6027 161.442 41.6592C165.159 41.7158 178.644 42.1036 175.558 48.6323C180.276 49.6423 179.8 58.5222 175.638 61.0835C174.192 62.843 172.609 64.4857 170.904 65.9962Z" fill="#263238"/>
<path d="M171.749 68.4283C171.19 69.2749 170.468 70.0026 169.627 70.5697C168.785 71.1368 167.84 71.5321 166.845 71.733C164.146 72.2582 163.936 69.4868 164.817 67.1032C165.625 64.9539 166.982 62.441 169.624 62.9904C170.193 63.1062 170.724 63.3627 171.169 63.7365C171.613 64.1104 171.957 64.5896 172.168 65.1305C172.379 65.6714 172.452 66.2566 172.379 66.8327C172.305 67.4088 172.089 67.9574 171.749 68.4283Z" fill="#FDBBB5"/>
<path d="M159.321 60.1141C159.111 60.9221 158.513 61.4312 157.972 61.2857C157.43 61.1403 157.164 60.3808 157.39 59.5808C157.616 58.7809 158.198 58.2638 158.739 58.4092C159.281 58.5547 159.539 59.3142 159.321 60.1141Z" fill="#263238"/>
<path d="M151.197 58.5868C150.979 59.3948 150.389 59.9038 149.84 59.7584C149.29 59.6129 149.032 58.8534 149.258 58.0535C149.484 57.2536 150.066 56.7365 150.615 56.8819C151.165 57.0273 151.391 57.7869 151.197 58.5868Z" fill="#263238"/>
<path d="M153.602 57.9646C153.602 57.9646 149.949 61.1966 148.689 62.6268C149.562 63.9196 151.646 63.9761 151.646 63.9761L153.602 57.9646Z" fill="#E97A75"/>
<path d="M161.274 57.1485C161.204 57.1576 161.133 57.1482 161.068 57.1213C161.002 57.0944 160.945 57.0508 160.902 56.995C160.607 56.5961 160.224 56.2704 159.782 56.0434C159.341 55.8164 158.853 55.6942 158.357 55.6861C158.305 55.6905 158.253 55.6846 158.203 55.6687C158.153 55.6527 158.107 55.6272 158.067 55.5934C158.027 55.5596 157.995 55.5182 157.971 55.4717C157.947 55.4252 157.933 55.3745 157.929 55.3225C157.926 55.2719 157.932 55.2212 157.949 55.1734C157.966 55.1255 157.992 55.0815 158.025 55.0439C158.059 55.0062 158.1 54.9757 158.146 54.9542C158.192 54.9327 158.242 54.9205 158.292 54.9185C158.92 54.9185 159.538 55.0645 160.099 55.345C160.66 55.6255 161.148 56.0327 161.524 56.5345C161.557 56.5733 161.581 56.6185 161.595 56.6672C161.609 56.7159 161.613 56.767 161.606 56.8172C161.599 56.8674 161.582 56.9156 161.555 56.9588C161.529 57.0019 161.493 57.039 161.452 57.0677C161.4 57.1088 161.339 57.1365 161.274 57.1485Z" fill="#263238"/>
<path opacity="0.2" d="M170.492 65.8024C170.369 65.5334 170.171 65.3056 169.922 65.1465C169.672 64.9873 169.382 64.9037 169.086 64.9055C168.493 64.9168 167.921 65.1338 167.47 65.5196C166.918 65.9374 166.489 66.4954 166.226 67.1356" stroke="black" stroke-width="0.5" stroke-linecap="round" stroke-linejoin="round"/>
<path d="M147.544 54.1833C147.477 54.1476 147.421 54.0946 147.382 54.0298C147.355 53.9856 147.337 53.9364 147.33 53.8851C147.323 53.8339 147.326 53.7817 147.34 53.7317C147.353 53.6818 147.377 53.6352 147.409 53.5947C147.441 53.5542 147.482 53.5208 147.527 53.4965C148.07 53.1896 148.676 53.0124 149.298 52.9788C149.921 52.9451 150.542 53.056 151.115 53.3026C151.164 53.3234 151.208 53.3542 151.245 53.393C151.282 53.4318 151.31 53.4778 151.329 53.5281C151.347 53.5783 151.354 53.6318 151.351 53.6852C151.347 53.7385 151.333 53.7906 151.308 53.838C151.284 53.8855 151.249 53.9274 151.208 53.961C151.166 53.9947 151.118 54.0194 151.067 54.0336C151.015 54.0478 150.961 54.0512 150.908 54.0436C150.856 54.036 150.805 54.0175 150.759 53.9894C150.306 53.7935 149.812 53.7081 149.319 53.7405C148.826 53.7728 148.347 53.9218 147.923 54.1752C147.865 54.2063 147.8 54.2232 147.734 54.2246C147.668 54.226 147.603 54.2119 147.544 54.1833Z" fill="#263238"/>
<path d="M154.574 65.867C154.648 65.8865 154.713 65.929 154.76 65.9882C154.793 66.0266 154.818 66.0713 154.834 66.1195C154.849 66.1678 154.855 66.2186 154.85 66.2691C154.846 66.3195 154.831 66.3685 154.807 66.4133C154.783 66.458 154.751 66.4975 154.712 66.5295C154.23 66.9248 153.664 67.2034 153.057 67.3436C152.45 67.4837 151.819 67.4817 151.213 67.3375C151.115 67.3075 151.032 67.2396 150.983 67.1487C150.935 67.0578 150.925 66.9513 150.955 66.8527C150.985 66.7542 151.053 66.6715 151.143 66.623C151.234 66.5746 151.341 66.5642 151.439 66.5942C151.92 66.7108 152.422 66.7107 152.902 66.5941C153.383 66.4774 153.829 66.2475 154.203 65.9235C154.256 65.8853 154.317 65.8602 154.382 65.8504C154.446 65.8406 154.512 65.8462 154.574 65.867Z" fill="#263238"/>
<path d="M176.184 46.9112C179.076 46.184 178.171 43.5257 177.525 43.251C180.232 43.9055 181.218 46.5719 177.945 47.7919C174.673 49.012 176.184 46.9112 176.184 46.9112Z" fill="#263238"/>
<path d="M161.834 42.5077C161.206 42.296 160.63 41.9526 160.146 41.5004C159.661 41.0482 159.278 40.4977 159.023 39.8857C158.769 39.2737 158.648 38.6143 158.668 37.9517C158.689 37.2891 158.851 36.6386 159.144 36.0437C159.305 35.6882 159.83 35.9952 159.669 36.3507C159.431 36.8659 159.304 37.4247 159.293 37.9918C159.283 38.559 159.391 39.122 159.61 39.6454C159.828 40.1687 160.153 40.641 160.564 41.0321C160.975 41.4233 161.462 41.7249 161.996 41.9178C162.359 42.0471 162.206 42.637 161.834 42.5077Z" fill="#263238"/>
<path d="M169.57 84.7419C159.066 83.3683 153.41 84.2813 143.399 86.1074C140.834 86.6552 138.506 87.9926 136.741 89.9316C134.976 91.8707 133.862 94.314 133.557 96.9184C131.448 112.949 133.258 140.962 134.599 169.162C157.498 177.46 181.657 169.049 181.657 169.049C182.465 163.393 180.623 144.72 179.363 134.773C181.245 124.495 180.93 123.098 183.597 109.442C184.873 103.415 188.445 89.7515 182.732 88.4344C182.385 88.3132 169.933 84.7903 169.57 84.7419Z" fill="#263238"/>
<path d="M168.797 84.6449L165.468 79.6191L158.454 83.1582L154.188 80.1928L149.526 85.0408V113.983L168.797 84.6449Z" fill="#407BFF"/>
<path opacity="0.8" d="M168.797 84.6449L165.468 79.6191L158.454 83.1582L154.188 80.1928L149.526 85.0408V113.983L168.797 84.6449Z" fill="white"/>
<path opacity="0.3" d="M168.797 84.6448L160.345 90.9149L158.002 86.5032L153.542 89.0241L149.526 85.0407L153.081 90.0099L157.671 87.7798L160.709 92.9187L168.797 85.0407" fill="black"/>
<path d="M158.235 87.5456C162.566 86.5356 167.859 85.5983 165.588 88.806C163.318 92.0138 164.716 93.7106 162.696 94.462C160.676 95.2135 158.122 90.9634 157.104 90.1958C156.086 89.4282 158.235 87.5456 158.235 87.5456Z" fill="#407BFF"/>
<path d="M155.557 86.7941C153.197 84.0711 150.143 80.9846 149.852 84.6286C149.561 88.2727 147.638 89.0565 148.575 90.5674C149.513 92.0784 153.65 89.6786 154.805 89.4928C155.961 89.307 155.557 86.7941 155.557 86.7941Z" fill="#407BFF"/>
<path d="M158.82 87.4082C158.101 86.6649 156.186 85.4529 154.78 86.6002C153.374 87.7476 153.067 90.1473 154.425 90.818C154.908 91.0604 155.449 91.1667 155.988 91.1255C156.528 91.0842 157.046 90.8969 157.487 90.5837C157.298 89.9822 157.328 89.3332 157.572 88.7518C157.816 88.1705 158.259 87.6944 158.82 87.4082Z" fill="#407BFF"/>
<path d="M181.599 153.115C181.825 154.561 181.599 156.735 182.148 161.405C182.148 161.405 177.3 162.019 177.664 164.863C178.609 172.491 176.654 203.324 177.987 208.293C156.268 217.924 130.243 213.101 129.224 206.855C129.523 195.276 132.529 153.115 132.529 153.115H181.599Z" fill="#E0E0E0"/>
<path opacity="0.1" d="M177.609 161.793C176.096 164.25 174.265 166.497 172.163 168.475C172.163 168.475 176.85 167.635 177.609 161.793Z" fill="black"/>
<path opacity="0.1" d="M136.75 166.164C135.504 164.309 134.494 162.306 133.744 160.201C133.744 160.201 133.526 164.879 136.75 166.164Z" fill="black"/>
<path opacity="0.1" d="M177.406 165.267C176.904 167.115 176.163 168.888 175.2 170.543C176.08 170.011 176.767 169.213 177.164 168.265C177.56 167.317 177.645 166.267 177.406 165.267Z" fill="black"/>
<path d="M154.99 130.087H155.111C157.794 129.707 160.582 129.392 163.288 128.947C165.995 128.503 168.686 128.139 171.288 127.614C173.733 127.144 176.143 126.51 178.503 125.715C179.127 125.51 179.734 125.259 180.321 124.964C180.321 124.673 180.321 124.39 180.321 124.108C180.224 123.13 180.079 122.039 179.877 120.876C179.675 119.712 179.408 118.573 179.125 117.377C178.842 116.181 178.527 114.953 178.172 113.765C177.477 111.341 176.717 108.869 175.893 106.412L174.649 102.712L173.396 99.1646L173.308 98.9706C172.662 97.015 172.797 94.8858 173.684 93.0271C174.57 91.1684 176.14 89.7237 178.066 88.9942C179.991 88.2648 182.125 88.3069 184.02 89.1118C185.915 89.9168 187.427 91.4224 188.239 93.3146C188.853 94.7771 189.346 96.0861 189.855 97.4435C190.364 98.801 190.793 100.175 191.237 101.548C192.102 104.312 192.902 107.107 193.532 110C194.224 112.969 194.713 115.982 194.994 119.017C195.165 120.678 195.227 122.349 195.18 124.019C195.15 126.018 194.879 128.007 194.372 129.941L194.275 130.305C194.184 130.631 194.062 130.947 193.912 131.25C193.092 132.87 191.905 134.276 190.445 135.355C189.45 136.099 188.364 136.713 187.213 137.181C185.497 137.886 183.712 138.414 181.888 138.757C178.777 139.292 175.625 139.563 172.467 139.565C169.478 139.565 166.515 139.438 163.579 139.185C160.643 138.932 157.727 138.528 154.829 137.973C153.932 137.754 153.138 137.234 152.577 136.5C152.017 135.767 151.725 134.864 151.75 133.941C151.774 133.018 152.114 132.132 152.712 131.429C153.311 130.727 154.132 130.25 155.039 130.079L154.99 130.087ZM181.129 124.544C181.285 124.448 181.42 124.322 181.525 124.172C181.352 124.274 181.201 124.408 181.08 124.568L181.129 124.544Z" fill="#407BFF"/>
<path d="M153.52 132.26L145.666 133.238L150.005 143.282C150.005 143.282 157.172 141.504 157.681 137.561C157.736 137.125 157.633 136.683 157.39 136.317L155.37 133.133C155.174 132.829 154.897 132.586 154.57 132.432C154.243 132.277 153.879 132.218 153.52 132.26Z" fill="#FDBBB5"/>
<path d="M139.779 140.639L141.895 143.912C142.306 144.539 142.926 145.001 143.645 145.216C144.363 145.43 145.135 145.383 145.822 145.083L150.008 143.249L145.669 133.206L140.772 136.236C140.062 136.678 139.555 137.383 139.363 138.198C139.17 139.012 139.308 139.87 139.746 140.583L139.779 140.639Z" fill="#FDBBB5"/>
<path opacity="0.8" d="M154.99 130.087H155.111C157.794 129.707 160.582 129.392 163.288 128.947C165.995 128.503 168.686 128.139 171.288 127.614C173.733 127.144 176.143 126.51 178.503 125.715C179.127 125.51 179.734 125.259 180.321 124.964C180.321 124.673 180.321 124.39 180.321 124.108C180.224 123.13 180.079 122.039 179.877 120.876C179.675 119.712 179.408 118.573 179.125 117.377C178.842 116.181 178.527 114.953 178.172 113.765C177.477 111.341 176.717 108.869 175.893 106.412L174.649 102.712L173.396 99.1646L173.308 98.9706C172.662 97.015 172.797 94.8858 173.684 93.0271C174.57 91.1684 176.14 89.7237 178.066 88.9942C179.991 88.2648 182.125 88.3069 184.02 89.1118C185.915 89.9168 187.427 91.4224 188.239 93.3146C188.853 94.7771 189.346 96.0861 189.855 97.4435C190.364 98.801 190.793 100.175 191.237 101.548C192.102 104.312 192.902 107.107 193.532 110C194.224 112.969 194.713 115.982 194.994 119.017C195.165 120.678 195.227 122.349 195.18 124.019C195.15 126.018 194.879 128.007 194.372 129.941L194.275 130.305C194.184 130.631 194.062 130.947 193.912 131.25C193.092 132.87 191.905 134.276 190.445 135.355C189.45 136.099 188.364 136.713 187.213 137.181C185.497 137.886 183.712 138.414 181.888 138.757C178.777 139.292 175.625 139.563 172.467 139.565C169.478 139.565 166.515 139.438 163.579 139.185C160.643 138.932 157.727 138.528 154.829 137.973C153.932 137.754 153.138 137.234 152.577 136.5C152.017 135.767 151.725 134.864 151.75 133.941C151.774 133.018 152.114 132.132 152.712 131.429C153.311 130.727 154.132 130.25 155.039 130.079L154.99 130.087ZM181.129 124.544C181.285 124.448 181.42 124.322 181.525 124.172C181.352 124.274 181.201 124.408 181.08 124.568L181.129 124.544Z" fill="white"/>
<path d="M156.585 130.192C162.027 128.584 167.637 127.616 173.303 127.307C174.507 127.38 174.975 154.674 174.878 165.833C174.878 167.344 157.498 167.045 153.062 166.358C152.812 163.239 152.755 140.502 151.6 133.375C151.513 132.818 151.615 132.248 151.888 131.755C152.162 131.262 152.592 130.874 153.111 130.652C154.212 130.211 155.407 130.052 156.585 130.192Z" fill="white"/>
<path d="M141.832 334.899L135.724 335.052C135.116 334.725 134.442 334.54 133.752 334.511C133.025 334.624 130.52 335.19 130.52 335.19L114.296 335.602C114.396 334.957 114.539 334.32 114.724 333.695C114.898 333.083 115.139 332.492 115.443 331.933C115.802 331.219 116.342 330.611 117.01 330.171C117.678 329.732 118.45 329.475 119.249 329.429C121.511 329.218 128.533 324.088 128.533 324.088C129.294 323.756 129.945 323.216 130.411 322.53C130.877 321.843 131.139 321.039 131.167 320.209C131.167 319.127 132.686 317.785 133.413 317.648C134.884 317.389 135.74 318.343 135.991 319.878L136.29 321.664L139.699 321.017C139.699 321.017 143.141 319.11 143.012 320.888C142.947 321.898 142.479 326.415 142.204 329.986C142.139 330.794 142.075 331.602 142.026 332.305C141.913 333.84 141.832 334.899 141.832 334.899Z" fill="#263238"/>
<g opacity="0.3">
<path d="M114.308 335.602L130.533 335.189C130.533 335.189 133.03 334.624 133.765 334.511C134.455 334.54 135.129 334.725 135.736 335.052L141.845 334.899C141.845 334.899 141.926 333.84 142.047 332.305L114.745 333.695C114.557 334.32 114.411 334.957 114.308 335.602Z" fill="white"/>
</g>
<path d="M124.572 326.398C124.623 326.356 124.688 326.332 124.754 326.332C124.821 326.332 124.885 326.356 124.936 326.398C125.491 326.767 125.937 327.278 126.229 327.877C126.398 328.208 125.938 328.54 125.768 328.208C125.507 327.681 125.115 327.23 124.629 326.899C124.592 326.876 124.561 326.845 124.537 326.809C124.513 326.773 124.498 326.731 124.491 326.688C124.485 326.645 124.489 326.601 124.501 326.56C124.514 326.518 124.535 326.479 124.564 326.447L124.572 326.398Z" fill="white"/>
<path d="M126.216 325.332C126.261 325.282 126.323 325.25 126.39 325.242C126.457 325.235 126.524 325.252 126.579 325.292C127.137 325.657 127.586 326.164 127.88 326.762C128.042 327.093 127.581 327.433 127.412 327.101C127.153 326.573 126.76 326.121 126.272 325.792C126.236 325.768 126.205 325.736 126.182 325.698C126.159 325.661 126.144 325.619 126.139 325.575C126.134 325.531 126.138 325.487 126.151 325.445C126.164 325.403 126.186 325.365 126.216 325.332Z" fill="white"/>
<path d="M127.919 324.33C127.969 324.286 128.034 324.261 128.101 324.261C128.168 324.261 128.232 324.286 128.282 324.33C128.84 324.695 129.289 325.203 129.583 325.801C129.745 326.132 129.284 326.471 129.115 326.14C128.856 325.611 128.463 325.16 127.975 324.831C127.939 324.806 127.908 324.774 127.885 324.737C127.862 324.699 127.847 324.657 127.842 324.614C127.837 324.57 127.841 324.526 127.854 324.484C127.867 324.442 127.889 324.403 127.919 324.37V324.33Z" fill="white"/>
<path d="M194.46 335.812L177.936 336.361C177.936 336.361 177.557 335.674 177.936 333.816C177.993 333.525 178.057 333.21 178.154 332.863C178.153 332.844 178.153 332.825 178.154 332.806C178.292 332.289 178.445 331.659 178.615 330.972C179.278 328.176 180.045 324.508 180.045 324.508C180.045 324.508 182.598 318.529 185.871 319.894C188.731 321.09 188.182 324.799 188.182 324.799C188.565 326.378 189.463 327.786 190.735 328.798C192.101 329.93 193.45 330.802 194.129 332.248C194.262 332.527 194.365 332.82 194.436 333.121V333.242C194.607 334.089 194.615 334.961 194.46 335.812Z" fill="#263238"/>
<g opacity="0.3">
<path d="M177.911 333.816C177.564 335.674 177.911 336.361 177.911 336.361L194.435 335.812C194.595 334.971 194.595 334.107 194.435 333.266L177.911 333.816Z" fill="white"/>
</g>
<path d="M187.537 325.776C187.094 325.445 186.543 325.291 185.992 325.343C185.441 325.395 184.929 325.651 184.556 326.059C184.337 326.286 183.982 325.954 184.2 325.728C184.66 325.224 185.294 324.912 185.974 324.855C186.654 324.798 187.331 325 187.868 325.421C188.127 325.599 187.788 325.954 187.537 325.776Z" fill="white"/>
<path d="M188.053 327.287C187.609 326.956 187.059 326.801 186.507 326.854C185.956 326.906 185.444 327.161 185.071 327.57C184.861 327.796 184.498 327.465 184.716 327.239C185.176 326.734 185.809 326.423 186.49 326.366C187.17 326.309 187.847 326.511 188.384 326.932C188.643 327.109 188.303 327.465 188.053 327.287Z" fill="white"/>
<path d="M188.561 328.701C188.116 328.371 187.565 328.218 187.014 328.272C186.463 328.325 185.951 328.582 185.579 328.992C185.534 329.039 185.472 329.067 185.407 329.068C185.342 329.07 185.279 329.045 185.232 329C185.184 328.955 185.157 328.893 185.156 328.828C185.154 328.763 185.178 328.7 185.223 328.653C185.687 328.153 186.32 327.845 186.998 327.788C187.677 327.732 188.352 327.93 188.892 328.346C189.15 328.532 188.811 328.887 188.561 328.701Z" fill="white"/>
<path d="M236.763 156.912C236.763 156.912 244.035 189.676 228.198 241.582C232.408 268.658 222.494 296.583 219.739 326.883L212.895 326.527C212.895 326.527 209.873 264.998 210.964 237.89C209.243 208.866 209.097 155.425 209.097 155.425L236.763 156.912Z" fill="#FFAF6B"/>
<path d="M239.747 155.846C239.747 155.846 258.145 166.697 248.352 241.413C256.569 274.953 245.12 326.633 245.12 326.633L239.213 326.455C239.738 318.133 235.173 266.582 231.893 239.999C228.774 214.692 216.403 155.159 216.403 155.159L239.747 155.846Z" fill="#FFAF6B"/>
<path d="M229.819 333.323C230.812 332.77 231.883 332.37 232.994 332.135C232.994 332.135 236.485 329.711 238.473 322.197L242.941 321.51C243.654 321.395 244.384 321.457 245.068 321.691C245.751 321.925 246.367 322.323 246.86 322.851C246.97 322.992 247.06 323.147 247.126 323.312C247.302 324.11 247.415 324.92 247.466 325.736C247.566 328.534 247.447 331.335 247.11 334.115H246.302L246.262 328.847C246.31 327.061 244.315 329.081 243.709 330.972C243.103 332.862 241.891 334.915 236.719 334.761C230.748 334.648 228.251 334.373 229.819 333.323Z" fill="#263238"/>
<path d="M239.401 319.53C238.586 322.004 237.636 324.432 236.557 326.802C235.771 328.846 234.54 330.69 232.953 332.2C232.953 332.2 236.8 332.878 238.569 330.98C240.339 329.081 242.965 322.447 246.867 322.956C246.573 322.436 246.215 321.956 245.801 321.526C245.187 320.767 239.401 319.53 239.401 319.53Z" fill="#FFAF6B"/>
<path d="M203.272 333.153C204.287 332.625 205.377 332.257 206.504 332.062C206.504 332.062 210.043 329.76 212.209 322.261L216.685 321.671C217.402 321.572 218.133 321.652 218.813 321.903C219.492 322.154 220.099 322.568 220.58 323.11C220.685 323.25 220.769 323.406 220.83 323.57C220.989 324.383 221.083 325.207 221.113 326.035C221.148 328.835 220.964 331.634 220.563 334.406L219.755 334.357L219.828 329.089C219.925 327.303 217.881 329.275 217.226 331.157C216.572 333.04 215.32 335.06 210.156 334.785C204.161 334.494 201.672 334.163 203.272 333.153Z" fill="#263238"/>
<path d="M213.162 319.579C212.283 322.023 211.274 324.418 210.14 326.754C209.311 328.78 208.038 330.594 206.415 332.062C206.415 332.062 210.245 332.83 212.071 330.98C213.897 329.129 216.66 322.544 220.547 323.15C220.27 322.621 219.922 322.131 219.513 321.696C218.915 320.952 213.162 319.579 213.162 319.579Z" fill="#FFAF6B"/>
<path d="M191.681 101.112L200.609 120.374L209.497 99.3665L215.961 116.124C215.961 116.124 210.087 126.717 206.443 131.945C203.291 136.462 199.122 136.745 195.688 133.698C191.575 130.062 185.055 103.293 185.055 103.293L191.681 101.112Z" fill="#FFAF6B"/>
<path d="M190.981 102.518C190.981 102.518 193.098 100.821 193.316 98.5909C193.535 96.3608 194.294 94.6317 194.343 92.9349C194.391 91.2381 192.864 92.9349 192.234 93.9772C191.603 95.0196 190.884 96.2154 190.173 95.5932C189.462 94.9711 186.715 87.4648 185.632 86.7052C184.55 85.9457 184.614 87.3436 184.614 87.3436C184.614 87.3436 183.895 85.5336 183.103 85.6144C182.901 85.6144 182.457 86.0265 182.651 86.9072C183.095 88.8788 184.267 92.9672 184.267 92.9672C184.21 92.7329 182.441 87.7799 182.077 87.0769C181.6 86.1558 180.906 85.9619 180.38 86.2689C179.637 86.681 181.617 92.8945 181.52 93.2096C181.52 93.2096 180.494 89.5979 179.419 89.3555C178.344 89.1131 178.861 91.4159 179.71 93.3955C180.518 95.1812 181.536 98.8899 182.497 100.667C183.685 102.809 184.97 103.98 187.256 103.794C188.588 103.698 189.871 103.258 190.981 102.518Z" fill="#FFAF6B"/>
<path opacity="0.3" d="M184.789 87.6423C185.33 89.1048 185.799 90.5996 186.203 92.1025" stroke="black" stroke-width="0.25" stroke-linecap="round" stroke-linejoin="round"/>
<path opacity="0.3" d="M181.867 94.6962C183.525 93.5201 185.492 92.8595 187.523 92.7974" stroke="black" stroke-width="0.25" stroke-linecap="round" stroke-linejoin="round"/>
<path opacity="0.2" d="M201.756 127.307L200.609 120.375C201.591 122.545 201.987 124.936 201.756 127.307Z" fill="black"/>
<path d="M246.175 100.473C248.502 89.9694 241.876 91.747 244.511 78.3908C247.411 63.6852 236.932 61.2369 236.932 61.2369C236.932 61.2369 235.905 53.8357 229.013 54.0215C222.121 54.2073 204.773 57.3424 207.714 75.7244C209.419 86.4385 205.856 87.1091 203.909 91.8844C201.145 98.5989 209.128 104.926 203.666 109.418C203.666 109.418 217.2 113.814 237.158 113.07C237.158 113.046 244.745 106.865 246.175 100.473Z" fill="#263238"/>
<path d="M207.038 146.077C196.276 168.03 208.8 216.825 206.19 253.25C211.49 258.259 246.194 260.409 258.039 252.442C255.34 234.367 255.041 192.351 254.492 181.847C253.325 169.301 249.058 157.242 242.073 146.755C242.073 146.755 223.836 144.509 207.038 146.077Z" fill="#263238"/>
<path opacity="0.2" d="M221.444 180.061C227.447 191.81 228.966 211.371 228.409 225.536C228.409 225.536 223.189 194.549 221.444 180.061Z" fill="black"/>
<path d="M213.675 124.584C213.586 124.665 199.842 118.653 199.842 118.653C199.842 118.653 205.321 108.303 207.114 103.843C208.908 99.3825 212.1 96.0454 215.081 95.4475L217.109 104.222L213.675 124.584Z" fill="#407BFF"/>
<path opacity="0.8" d="M213.675 124.584C213.586 124.665 199.842 118.653 199.842 118.653C199.842 118.653 205.321 108.303 207.114 103.843C208.908 99.3825 212.1 96.0454 215.081 95.4475L217.109 104.222L213.675 124.584Z" fill="white"/>
<path d="M218.07 95.0194C219.759 94.9548 220.882 94.7285 222.595 94.777C227.374 94.8178 232.143 95.2366 236.856 96.0294C238.367 96.2637 240.226 96.8374 241.599 97.1606C241.825 97.2091 242.044 97.2576 242.262 97.3222C244.555 97.9782 246.493 99.5179 247.651 101.603C248.808 103.688 249.09 106.147 248.435 108.44C242.076 129.885 241.51 139.443 243.409 149.212C226.57 152.347 209.126 149.212 207.049 146.077C207.049 146.077 208.277 135.646 208.019 129.109C200.957 122.71 206.637 109.03 207.437 106.824C210.055 100.385 211.986 95.2133 218.07 95.0194Z" fill="#407BFF"/>
<path opacity="0.3" d="M218.07 95.0194C219.759 94.9548 220.882 94.7285 222.595 94.777C227.374 94.8178 232.143 95.2366 236.856 96.0294C238.367 96.2637 240.226 96.8374 241.599 97.1606C241.825 97.2091 242.044 97.2576 242.262 97.3222C244.555 97.9782 246.493 99.5179 247.651 101.603C248.808 103.688 249.09 106.147 248.435 108.44C242.076 129.885 241.51 139.443 243.409 149.212C226.57 152.347 209.126 149.212 207.049 146.077C207.049 146.077 208.277 135.646 208.019 129.109C200.957 122.71 206.637 109.03 207.437 106.824C210.055 100.385 211.986 95.2133 218.07 95.0194Z" fill="black"/>
<path d="M240.218 126.337L246.8 159.917C246.975 160.81 246.393 161.677 245.5 161.852L222.014 166.455C221.12 166.63 220.254 166.048 220.079 165.155L213.497 131.575C213.322 130.682 213.904 129.815 214.797 129.64L238.284 125.037C239.177 124.862 240.043 125.444 240.218 126.337Z" fill="#407BFF"/>
<path d="M230.242 141.609L230.024 143.023C226.469 146.602 219.633 147.669 219.633 147.669L217.419 137.262L226.776 138.013C228.966 138.603 229.563 139.379 230.242 141.609Z" fill="#FFAF6B"/>
<path d="M213.709 139.12L217.458 137.262L219.664 147.661L217.151 148.356C216.511 148.529 215.828 148.454 215.24 148.147C214.652 147.841 214.2 147.324 213.976 146.699L212.408 142.368C212.19 141.761 212.202 141.096 212.441 140.497C212.681 139.898 213.132 139.408 213.709 139.12Z" fill="#FFAF6B"/>
<path d="M226.17 138.643L246.5 132.074C246.362 130.192 244.213 121.53 244.213 121.53L251.485 111.6C251.485 111.6 258.022 132.357 255.282 137.884C252.543 143.411 227.649 144.348 227.649 144.348L226.17 138.643Z" fill="#FFAF6B"/>
<path opacity="0.2" d="M236.92 110.678C236.92 110.678 243.505 128.519 243.577 128.067L243.658 127.614L245.484 119.865L236.92 110.678Z" fill="black"/>
<path d="M236.15 107.81C237.087 112.989 242.282 122.847 242.282 122.847C242.282 122.847 253.134 120.472 254.516 114.016C250.896 104.271 247.421 98.6152 242.08 97.4678C236.74 96.3204 235.212 102.663 236.15 107.81Z" fill="#407BFF"/>
<path opacity="0.8" d="M236.15 107.81C237.087 112.989 242.282 122.847 242.282 122.847C242.282 122.847 253.134 120.472 254.516 114.016C250.896 104.271 247.421 98.6152 242.08 97.4678C236.74 96.3204 235.212 102.663 236.15 107.81Z" fill="white"/>
<path d="M232.572 79.2957L224.629 86.8585L222.423 88.0948C222.889 89.2203 223.217 90.3977 223.401 91.6015C223.676 93.6296 222.739 94.882 220.816 96.3202L227.813 100.966C231.796 97.7342 234.883 95.496 234.883 95.496C230.907 92.5549 231.546 84.079 232.572 79.2957Z" fill="#FFAF6B"/>
<path opacity="0.2" d="M223.446 92.0459C225.603 90.85 227.995 88.7331 227.793 86.2283C227.724 85.3086 227.548 84.4001 227.268 83.5215L222.791 89.1048C223.11 90.0601 223.329 91.0457 223.446 92.0459Z" fill="black"/>
<path d="M234.327 70.5612C233.365 78.4716 233.123 81.8248 228.913 85.8648C222.579 91.9328 213.174 89.5573 211.776 81.647C210.515 74.5366 212.293 62.8044 220.171 59.7017C221.84 58.9774 223.673 58.7127 225.48 58.9351C227.286 59.1576 229 59.859 230.444 60.9667C231.888 62.0744 233.009 63.5481 233.692 65.2351C234.375 66.9221 234.594 68.761 234.327 70.5612Z" fill="#FFAF6B"/>
<path d="M225.729 69.9714C225.677 69.9757 225.626 69.9693 225.577 69.9526C225.528 69.9359 225.484 69.9093 225.446 69.8744C225.116 69.536 224.706 69.2849 224.255 69.1439C223.804 69.0028 223.324 68.9762 222.86 69.0664C222.812 69.0809 222.762 69.0851 222.713 69.0789C222.663 69.0726 222.615 69.056 222.573 69.0301C222.53 69.0041 222.493 68.9695 222.465 68.9285C222.436 68.8874 222.417 68.8408 222.408 68.7917C222.39 68.6872 222.411 68.5798 222.468 68.4903C222.525 68.4007 222.613 68.3354 222.715 68.3069C223.3 68.1824 223.908 68.2075 224.481 68.3797C225.055 68.552 225.575 68.866 225.995 69.2927C226.031 69.3287 226.06 69.3715 226.08 69.4187C226.099 69.4658 226.109 69.5163 226.109 69.5674C226.109 69.6184 226.099 69.669 226.08 69.7161C226.06 69.7633 226.031 69.8061 225.995 69.8421C225.926 69.9181 225.831 69.9644 225.729 69.9714Z" fill="#263238"/>
<path d="M213.612 68.5331C213.57 68.5198 213.532 68.4967 213.501 68.4657C213.47 68.4348 213.447 68.397 213.434 68.3553C213.407 68.2604 213.413 68.1592 213.451 68.0682C213.49 67.9772 213.557 67.9018 213.644 67.8544C214.127 67.5579 214.679 67.3917 215.245 67.3719C215.811 67.3521 216.373 67.4793 216.876 67.7413C216.913 67.7698 216.945 67.8054 216.968 67.8461C216.991 67.8868 217.007 67.9317 217.013 67.9783C217.019 68.0248 217.015 68.0722 217.003 68.1175C216.991 68.1628 216.969 68.2052 216.941 68.2422C216.919 68.2849 216.888 68.3227 216.851 68.3533C216.814 68.3839 216.771 68.4067 216.725 68.4203C216.679 68.4339 216.631 68.438 216.583 68.4324C216.535 68.4268 216.489 68.4116 216.448 68.3877C216.047 68.1887 215.602 68.0954 215.155 68.1166C214.708 68.1378 214.274 68.2729 213.894 68.5089C213.853 68.5354 213.805 68.5514 213.756 68.5556C213.707 68.5598 213.657 68.5521 213.612 68.5331Z" fill="#263238"/>
<path d="M218.305 72.2661C217.54 73.9363 216.608 75.5253 215.525 77.0091C215.465 77.0837 215.424 77.1714 215.405 77.265C215.386 77.3586 215.389 77.4554 215.414 77.5476C215.439 77.6398 215.486 77.7247 215.55 77.7954C215.614 77.8661 215.694 77.9206 215.784 77.9544C216.47 78.1802 217.206 78.211 217.909 78.0433L218.305 72.2661Z" fill="#E97F3F"/>
<path d="M225.15 73.4863C225.086 74.2943 224.609 75.0054 224.084 74.9973C223.559 74.9892 223.195 74.3105 223.276 73.4702C223.357 72.6299 223.793 71.9592 224.318 71.9592C224.843 71.9592 225.207 72.6541 225.15 73.4863Z" fill="#263238"/>
<path d="M224.617 72.0077L222.807 71.5229C222.807 71.5229 223.761 72.9127 224.617 72.0077Z" fill="#263238"/>
<path d="M216.953 72.6215C216.889 73.4295 216.42 74.0921 215.903 74.084C215.386 74.0759 215.006 73.4214 215.095 72.6054C215.184 71.7893 215.636 71.1429 216.153 71.151C216.67 71.159 217.018 71.8135 216.953 72.6215Z" fill="#263238"/>
<path d="M216.312 71.1511L214.503 70.6663C214.503 70.6663 215.464 72.0722 216.312 71.1511Z" fill="#263238"/>
<path d="M231.485 73.2196C231.485 73.2196 227.575 66.9495 227.93 61.9722C227.93 61.9722 220.165 59.7017 213.677 67.8545C212.651 69.1554 211.988 71.3531 211.043 73.2358C211.043 73.2358 209.993 58.11 223.414 57.2616C236.834 56.4132 238.887 75.2881 232.188 81.4127C232.672 80.0776 232.859 78.6535 232.738 77.2389C232.616 75.8242 232.189 74.4528 231.485 73.2196Z" fill="#263238"/>
<path d="M236.529 77.098C235.647 78.5407 234.229 79.5751 232.586 79.9745C230.477 80.4432 229.491 77.0415 230.267 74.9568C230.631 74.0162 231.32 73.2373 232.21 72.7615C233.099 72.2856 234.13 72.1443 235.115 72.3632C237.094 72.8318 237.652 75.2639 236.529 77.098Z" fill="#FFAF6B"/>
<path opacity="0.2" d="M232.107 76.5404C232.181 75.7815 232.552 75.0826 233.139 74.5966C233.727 74.1106 234.483 73.8769 235.242 73.9467" stroke="black" stroke-width="0.5" stroke-linecap="round" stroke-linejoin="round"/>
<path d="M218.715 80.6288C219.25 81.3308 219.733 82.0707 220.161 82.8427L220.597 82.6892C222.585 81.9539 223.264 80.9601 223.417 80.0794C223.479 79.6476 223.438 79.2072 223.296 78.7947C223.222 78.5591 223.119 78.3338 222.989 78.124C221.964 79.1224 220.735 79.886 219.385 80.3622C218.981 80.5399 218.715 80.6288 218.715 80.6288Z" fill="#263238"/>
<path d="M219.386 80.3622L219.831 81.0086C221.697 80.3137 222.925 79.5784 223.297 78.7947C223.223 78.5591 223.12 78.3338 222.99 78.124C221.965 79.1224 220.735 79.886 219.386 80.3622Z" fill="white"/>
<path d="M220.594 82.6892C222.582 81.9539 223.261 80.9601 223.414 80.0793C222.663 80.3714 221.971 80.7956 221.37 81.3317C220.973 81.6902 220.702 82.1657 220.594 82.6892Z" fill="#D7504D"/>
<path opacity="0.2" d="M236.859 96.0294L226.129 104.651L223.059 101.378L220.045 103.487L219.859 94.8982L218.776 105.329L223.043 102.752L226.436 106.558L236.859 96.0294Z" fill="black"/>
<path d="M219.859 94.8981C219.859 94.8981 223.301 92.9993 223.237 93.2821C223.172 93.5649 224.045 98.3806 224.045 98.3806L232.933 92.0459L236.859 96.0293L226.129 104.651L223.067 101.984L219.479 104.093L219.859 94.8981Z" fill="#407BFF"/>
<g opacity="0.8">
<path d="M219.859 94.8981C219.859 94.8981 223.301 92.9993 223.237 93.2821C223.172 93.5649 224.045 98.3806 224.045 98.3806L232.933 92.0459L236.859 96.0293L226.129 104.651L223.067 101.984L219.479 104.093L219.859 94.8981Z" fill="white"/>
</g>
<path d="M226.535 103.342C226.509 104.054 226.37 104.758 226.123 105.426C225.646 105.96 224.16 104.756 223.222 103.899C222.762 103.487 222.414 103.148 222.414 103.148C221.718 103.555 220.998 103.919 220.257 104.239H220.217C219.611 104.473 219.069 104.602 218.9 104.408C218.423 103.891 219.57 101.871 219.57 101.871C219.57 101.871 219.409 99.8269 220.168 99.0754C220.742 98.5098 221.93 100.061 222.479 100.861L222.754 101.297C222.754 101.297 223.012 101.209 223.408 101.095C224.612 100.724 227.069 100.013 227.529 100.199C228.151 100.465 227.901 101.968 226.535 103.342Z" fill="#407BFF"/>
<path opacity="0.2" d="M224.684 102.663C224.773 103.148 223.125 102.598 223.125 102.598C223.009 103.028 223.032 103.483 223.189 103.899C222.729 103.487 222.381 103.148 222.381 103.148C221.685 103.555 220.965 103.92 220.224 104.239C220.714 103.984 221.179 103.683 221.614 103.342C221.611 103.101 221.643 102.862 221.711 102.631C221.711 102.631 220.531 102.954 220.45 102.396C220.369 101.839 221.686 102.275 221.686 102.275C221.686 102.275 221.751 101.193 222.446 100.885L222.721 101.322C222.721 101.322 222.979 101.233 223.375 101.12C223.211 101.504 223.121 101.915 223.108 102.332C223.108 102.332 224.595 102.154 224.684 102.663Z" fill="black"/>
<path d="M223.359 101.12C223.359 101.12 222.624 100.764 222.446 100.91C221.8 101.435 221.687 103.334 221.856 103.511C221.999 103.624 222.171 103.692 222.351 103.709C222.532 103.727 222.713 103.692 222.875 103.608C222.875 103.608 222.664 101.637 223.359 101.12Z" fill="#407BFF"/>
<path d="M271.223 334.898L265.115 335.052C264.507 334.724 263.833 334.539 263.143 334.511C262.424 334.624 259.911 335.189 259.911 335.189L243.695 335.601C243.788 334.956 243.929 334.319 244.115 333.695C244.288 333.082 244.53 332.492 244.834 331.933C245.193 331.218 245.733 330.611 246.401 330.171C247.069 329.731 247.841 329.475 248.64 329.428C250.91 329.218 257.924 324.087 257.924 324.087C258.684 323.756 259.336 323.216 259.802 322.53C260.268 321.843 260.53 321.038 260.558 320.209C260.558 319.126 262.077 317.785 262.804 317.648C264.282 317.389 265.131 318.343 265.389 319.878L265.68 321.663L269.09 321.017C269.09 321.017 272.532 319.11 272.411 320.888C272.338 321.898 271.87 326.414 271.603 329.986C271.538 330.794 271.482 331.602 271.425 332.305C271.304 333.84 271.223 334.898 271.223 334.898Z" fill="#263238"/>
<g opacity="0.3">
<path d="M243.707 335.602L259.924 335.189C259.924 335.189 262.428 334.624 263.155 334.511C263.845 334.54 264.519 334.725 265.127 335.052L271.235 334.899C271.235 334.899 271.316 333.84 271.438 332.305L244.135 333.695C243.946 334.319 243.803 334.956 243.707 335.602Z" fill="white"/>
</g>
<path d="M253.958 326.398C254.009 326.356 254.073 326.332 254.14 326.332C254.206 326.332 254.271 326.356 254.322 326.398C254.879 326.767 255.328 327.277 255.622 327.877C255.784 328.208 255.323 328.54 255.154 328.208C254.893 327.681 254.501 327.23 254.015 326.899C253.978 326.876 253.947 326.844 253.924 326.808C253.902 326.771 253.887 326.729 253.881 326.686C253.876 326.643 253.88 326.6 253.893 326.558C253.907 326.517 253.929 326.479 253.958 326.447V326.398Z" fill="white"/>
<path d="M255.627 325.332C255.672 325.281 255.734 325.25 255.801 325.242C255.868 325.235 255.936 325.252 255.991 325.291C256.548 325.656 256.997 326.164 257.292 326.762C257.461 327.093 256.993 327.432 256.823 327.101C256.57 326.569 256.176 326.117 255.684 325.792C255.647 325.768 255.616 325.736 255.593 325.698C255.57 325.661 255.556 325.619 255.55 325.575C255.545 325.531 255.549 325.487 255.562 325.445C255.576 325.403 255.598 325.364 255.627 325.332Z" fill="white"/>
<path d="M257.309 324.33C257.36 324.286 257.424 324.261 257.491 324.261C257.558 324.261 257.623 324.286 257.673 324.33C258.23 324.695 258.68 325.203 258.974 325.801C259.136 326.132 258.675 326.471 258.505 326.14C258.252 325.608 257.858 325.155 257.366 324.831C257.33 324.806 257.299 324.774 257.276 324.737C257.253 324.699 257.238 324.657 257.233 324.614C257.227 324.57 257.231 324.526 257.245 324.484C257.258 324.442 257.28 324.403 257.309 324.37V324.33Z" fill="white"/>
<path d="M323.858 335.812L307.326 336.361C307.326 336.361 306.947 335.674 307.326 333.816C307.383 333.525 307.456 333.21 307.553 332.863C307.553 332.863 307.553 332.863 307.553 332.806C307.69 332.289 307.852 331.659 308.013 330.972C308.676 328.176 309.451 324.508 309.451 324.508C309.451 324.508 312.005 318.529 315.269 319.894C318.129 321.09 317.588 324.799 317.588 324.799C317.968 326.38 318.867 327.788 320.141 328.798C321.499 329.93 322.848 330.802 323.527 332.248C323.66 332.527 323.763 332.82 323.834 333.121C323.838 333.161 323.838 333.202 323.834 333.242C324.005 334.089 324.013 334.962 323.858 335.812Z" fill="#263238"/>
<g opacity="0.3">
<path d="M307.301 333.816C306.954 335.674 307.301 336.361 307.301 336.361L323.833 335.811C323.993 334.97 323.993 334.107 323.833 333.266L307.301 333.816Z" fill="white"/>
</g>
<path d="M316.924 325.776C316.483 325.444 315.933 325.288 315.383 325.341C314.833 325.393 314.322 325.649 313.951 326.059C313.733 326.285 313.377 325.954 313.595 325.728C314.055 325.223 314.689 324.912 315.369 324.855C316.05 324.798 316.726 325 317.264 325.421C317.514 325.598 317.175 325.954 316.924 325.776Z" fill="white"/>
<path d="M317.44 327.287C316.998 326.955 316.449 326.799 315.898 326.852C315.348 326.904 314.837 327.16 314.467 327.57C314.248 327.796 313.893 327.465 314.111 327.239C314.571 326.734 315.205 326.423 315.885 326.366C316.565 326.309 317.242 326.511 317.779 326.932C318.03 327.109 317.69 327.465 317.44 327.287Z" fill="white"/>
<path d="M317.959 328.701C317.516 328.371 316.966 328.219 316.416 328.272C315.866 328.326 315.356 328.583 314.986 328.992C314.939 329.032 314.879 329.053 314.818 329.051C314.757 329.049 314.698 329.025 314.653 328.984C314.609 328.942 314.581 328.885 314.575 328.824C314.569 328.763 314.586 328.702 314.622 328.653C315.085 328.153 315.718 327.845 316.397 327.788C317.075 327.732 317.751 327.93 318.29 328.346C318.549 328.532 318.209 328.887 317.959 328.701Z" fill="white"/>
<path d="M301.742 147.798L282.665 247.093L275.765 324.217L260.316 322.439C259.072 296.027 259.342 269.564 261.124 243.183C263.702 203.663 271.782 162.375 272.969 149.188L278.755 140.074L290.123 141.375L301.742 147.798Z" fill="#407BFF"/>
<path opacity="0.2" d="M301.742 147.798L282.665 247.093L275.765 324.217L260.316 322.439C259.072 296.027 259.342 269.564 261.124 243.183C263.702 203.663 271.782 162.375 272.969 149.188L278.755 140.074L290.123 141.375L301.742 147.798Z" fill="black"/>
<path d="M317.573 147.491L323.875 323.683L308.951 324.152C308.951 324.152 292.945 181.039 290.537 153.026L294.407 143.112L305.412 142.764L317.573 147.491Z" fill="#407BFF"/>
<path opacity="0.2" d="M317.573 147.491L323.875 323.683L308.951 324.152C308.951 324.152 292.945 181.039 290.537 153.026L294.407 143.112L305.412 142.764L317.573 147.491Z" fill="black"/>
<path opacity="0.3" d="M268.211 181.928L318.938 183.253L318.663 177.88L294.714 162.762L268.979 176.805L268.211 181.928Z" fill="black"/>
<path d="M274.604 110.105C271.001 112.23 266.347 129.707 266.347 129.707C273.198 132.131 284.195 135.605 284.195 135.605C283.219 138.426 283.16 141.483 284.026 144.34L268.342 143.839C248.821 143.774 254.412 127.339 255.6 120.9C261.474 89.1614 270.783 88.0625 270.783 88.0625C274.96 94.5831 274.604 110.105 274.604 110.105Z" fill="#263238"/>
<path d="M308.138 135.638C306.056 135.337 303.933 135.494 301.917 136.098C302.705 138.394 302.705 140.888 301.917 143.184L308.203 142.724L308.138 135.638Z" fill="#407BFF"/>
<path d="M319.802 86.3013C319.802 86.3013 329.66 89.1131 334.863 120.964C335.914 127.428 341.158 143.984 321.644 143.637L305.953 143.807C306.874 140.968 306.874 137.911 305.953 135.072C305.953 135.072 317.023 131.84 323.923 129.554C323.923 129.554 319.632 111.98 316.069 109.782C316.085 109.782 315.479 92.7491 319.802 86.3013Z" fill="#263238"/>
<path opacity="0.5" d="M314.601 132.503L313.438 143.742L319.805 143.661L319.376 131.016L314.601 132.503Z" fill="black"/>
<path d="M263.218 176.999C263.638 173.468 272.543 143.871 272.341 140.332L269.65 89.7354C269.67 89.2229 269.842 88.7281 270.144 88.3137C270.447 87.8994 270.865 87.5842 271.347 87.4083C275.387 86.0509 280.768 85.1621 285.269 84.4995C291.71 83.5449 298.232 83.2471 304.733 83.6107C310.801 84.1601 315.981 84.8631 318.364 85.6146C319.536 85.9458 323.212 88.5072 323.123 89.7273C322.412 99.7061 317.807 124.996 317.597 141.14L321.128 178.615L297.154 178.518L294.254 167.586L290.706 177.5L263.218 176.999Z" fill="#263238"/>
<path d="M284.905 108.897L285.016 112.224L274.332 112.58L274.221 109.253L284.905 108.897Z" fill="white"/>
<path d="M286.748 84.1682L284.098 84.6854L295.273 120.876L304.734 83.5703L302.933 83.6269L298.965 85.7277L292.55 88.2082L286.748 84.1682Z" fill="#407BFF"/>
<path d="M286.748 84.1682L284.098 84.6854L295.273 120.876L304.734 83.5703L302.933 83.6269L298.965 85.7277L292.55 88.2082L286.748 84.1682Z" fill="#407BFF"/>
<path opacity="0.4" d="M286.748 84.1682L284.098 84.6854L295.273 120.876L304.734 83.5703L302.933 83.6269L298.965 85.7277L292.55 88.2082L286.748 84.1682Z" fill="white"/>
<path opacity="0.5" d="M295.272 120.876C295.272 120.876 304.046 108.546 304.321 106.114C304.42 104.202 304.358 102.286 304.135 100.385C305.039 99.9351 305.834 99.2924 306.462 98.5021C307.367 97.274 307.27 83.8612 307.27 83.8612L304.709 83.5703L295.272 120.876Z" fill="black"/>
<path opacity="0.5" d="M295.273 120.876C295.273 120.876 285.699 109.16 285.262 106.752C285.04 104.851 284.978 102.934 285.076 101.023C284.152 100.631 283.324 100.041 282.652 99.2939C281.675 98.1304 281.788 85.0812 281.788 85.0812L284.123 84.6853L295.273 120.876Z" fill="black"/>
<path opacity="0.5" d="M270.648 116.779L269.267 96.3123L269.485 119.688L270.648 116.779Z" fill="black"/>
<path opacity="0.5" d="M319.36 115.292L320.83 103.932L321.703 121.433C320.927 119.365 320.265 116.238 319.36 115.292Z" fill="black"/>
<path opacity="0.2" d="M287.031 85.0002L289.787 94.2276L293.544 89.5331L297.584 94.1549C297.584 94.1549 302.707 85.2669 302.375 85.6062C302.044 85.9456 297.382 92.8782 297.382 92.8782L293.576 88.1757L290.086 93.1287L287.031 85.0002Z" fill="black"/>
<path d="M291.129 91.6016L292.713 94.5023L295.266 94.4134L296.195 91.4319L294.208 88.9675L292.947 89.0079L291.129 91.6016Z" fill="#407BFF"/>
<path d="M292.715 94.5025L291.721 109.386C291.721 109.386 295.333 121.223 295.268 120.876C295.203 120.528 298.5 108.238 298.5 108.238L295.268 94.4136L292.715 94.5025Z" fill="#407BFF"/>
<path opacity="0.5" d="M269.853 130.927L269.409 143.879L271.631 143.944L272.156 139.896L271.267 131.404L269.853 130.927Z" fill="black"/>
<path opacity="0.5" d="M295.271 120.875L293.655 168.273C293.655 168.273 296.669 125.336 295.271 120.875Z" fill="black"/>
<path d="M309.134 46.6607C309.134 46.6607 307.906 36.4072 295.713 36.8112C288.021 37.0698 282.13 38.6858 280.959 45.1982C280.151 49.5291 283.278 53.8762 285.904 54.4741C288.53 55.072 309.247 54.2721 309.247 54.2721C309.247 54.2721 315.024 50.3775 309.134 46.6607Z" fill="#263238"/>
<path d="M301.895 84.0793C297.774 79.5383 301.087 69.9312 302.703 64.0894L288.046 73.7854C288.279 74.4986 288.459 75.2277 288.587 75.967C288.87 77.2921 289.331 77.785 289.274 80.2413C289.088 82.3906 288.07 84.6691 287.957 84.2005C287.957 84.2005 285.315 87.2305 294.3 88.2405C298.203 89.1454 301.895 84.0793 301.895 84.0793Z" fill="#D78163"/>
<path opacity="0.2" d="M299.562 69.8665C299.457 76.9122 292.905 79.9988 289.244 80.6533C289.432 79.0812 289.203 77.4875 288.582 76.0315L299.562 69.8665Z" fill="black"/>
<path d="M305.635 59.2251C302.944 67.2163 301.595 71.7815 296.254 74.8034C288.222 79.3524 279.084 73.0743 279.286 64.4125C279.439 56.6153 283.811 44.8508 292.868 43.8489C294.845 43.5984 296.853 43.8505 298.706 44.5819C300.56 45.3134 302.199 46.5005 303.471 48.0335C304.744 49.5665 305.61 51.3957 305.988 53.352C306.366 55.3082 306.245 57.3283 305.635 59.2251Z" fill="#D78163"/>
<path d="M294.136 58.1586C293.91 58.9666 293.28 59.5403 292.722 59.3868C292.165 59.2333 291.914 58.4414 292.108 57.6092C292.302 56.7769 292.964 56.2275 293.522 56.3729C294.079 56.5184 294.354 57.3264 294.136 58.1586Z" fill="#263238"/>
<path d="M285.628 56.5587C285.402 57.3667 284.772 57.9404 284.206 57.7869C283.641 57.6333 283.398 56.8415 283.6 56.0093C283.802 55.177 284.457 54.6276 285.014 54.7811C285.572 54.9346 285.846 55.7265 285.628 56.5587Z" fill="#263238"/>
<path d="M288.141 55.9121C288.141 55.9121 284.327 59.3299 283.002 60.7601C283.915 62.1175 286.104 62.1741 286.104 62.1741L288.141 55.9121Z" fill="#703131"/>
<path d="M296.17 55.0558C296.097 55.0679 296.023 55.06 295.954 55.033C295.886 55.0059 295.826 54.9607 295.782 54.9023C295.472 54.4852 295.07 54.1446 294.608 53.9066C294.146 53.6685 293.635 53.5392 293.115 53.5287C293.005 53.5377 292.896 53.5028 292.811 53.4317C292.727 53.3606 292.673 53.259 292.663 53.1489C292.66 53.0956 292.667 53.0422 292.685 52.9918C292.703 52.9415 292.731 52.8953 292.767 52.8561C292.803 52.8168 292.847 52.7853 292.896 52.7634C292.945 52.7415 292.997 52.7297 293.051 52.7288C293.707 52.7284 294.355 52.8809 294.943 53.1739C295.53 53.467 296.042 53.8928 296.436 54.4175C296.47 54.459 296.494 54.5068 296.509 54.5581C296.523 54.6093 296.527 54.6629 296.52 54.7157C296.513 54.7685 296.496 54.8194 296.469 54.8654C296.442 54.9113 296.406 54.9513 296.364 54.9831C296.306 55.0225 296.239 55.0475 296.17 55.0558Z" fill="#263238"/>
<path d="M281.814 51.9127C281.743 51.8764 281.684 51.8203 281.644 51.7511C281.617 51.7057 281.599 51.6553 281.591 51.6028C281.584 51.5503 281.587 51.4969 281.601 51.4456C281.614 51.3944 281.638 51.3464 281.67 51.3045C281.703 51.2626 281.743 51.2276 281.79 51.2017C282.356 50.8764 282.991 50.688 283.643 50.6516C284.296 50.6151 284.947 50.7315 285.547 50.9916C285.642 51.0409 285.714 51.1261 285.747 51.2283C285.779 51.3306 285.77 51.4417 285.72 51.537C285.671 51.6324 285.586 51.7043 285.484 51.7368C285.381 51.7694 285.27 51.76 285.175 51.7107C284.7 51.5021 284.182 51.4108 283.665 51.4446C283.147 51.4783 282.645 51.6361 282.202 51.9047C282.143 51.9377 282.076 51.9558 282.009 51.9572C281.941 51.9586 281.874 51.9433 281.814 51.9127Z" fill="#263238"/>
<path d="M284.467 65.3578C284.7 66.498 284.848 67.6539 284.911 68.816C285.113 68.816 285.315 68.8645 285.525 68.8726C288.289 69.1392 289.67 68.3555 290.373 67.3939C290.697 66.9097 290.902 66.3561 290.971 65.7779C291.02 65.4566 291.02 65.1297 290.971 64.8083C289.42 65.5436 286.826 65.5032 285.436 65.4143C284.814 65.3659 284.467 65.3578 284.467 65.3578Z" fill="#263238"/>
<path d="M285.393 65.3982L285.554 66.4163C288.156 66.6587 290.023 66.489 290.928 65.7699C290.972 65.4482 290.972 65.122 290.928 64.8003C289.368 65.5437 286.783 65.4952 285.393 65.3982Z" fill="white"/>
<path d="M285.568 68.8887C288.34 69.1553 289.673 68.3554 290.344 67.3939C289.304 67.3113 288.257 67.4208 287.257 67.7171C286.586 67.9212 285.995 68.331 285.568 68.8887Z" fill="#D7504D"/>
<path d="M300.322 80.314L293.559 87.6344L289.26 80.6857L286.723 84.1681L290.068 93.1127L293.551 88.1597L297.357 92.8703L303.578 83.6914L300.322 80.314Z" fill="#407BFF"/>
<path opacity="0.4" d="M300.322 80.314L293.559 87.6344L289.26 80.6857L286.723 84.1681L290.068 93.1127L293.551 88.1597L297.357 92.8703L303.578 83.6914L300.322 80.314Z" fill="white"/>
<path d="M286.17 63.459C286.17 63.459 284.869 63.3055 283.746 63.2974C282.623 63.2893 282.55 64.7922 282.55 64.7922C282.55 64.7922 288.634 64.873 290.937 64.065C293.24 63.257 289.709 62.7399 286.17 63.459Z" fill="#263238"/>
<path d="M304.297 47.0568C304.297 47.0568 294.843 51.6866 288.711 45.9579C282.578 40.2292 300.62 37.9506 304.297 47.0568Z" fill="#263238"/>
<path d="M298.008 62.5298C298.881 64.5013 300.521 63.2651 304.23 62.5298C304.799 62.406 305.39 62.4227 305.951 62.5783C304.335 65.1154 302.945 67.192 301.862 68.6625C301.556 69.0816 301.227 69.4835 300.877 69.8665C304.254 67.6364 308.149 64.9619 309.547 63.6368C309.808 63.388 310.049 63.1177 310.266 62.8288C310.258 62.7039 310.242 62.5797 310.217 62.4571C310.128 61.9213 309.976 61.3979 309.765 60.8977C309.417 60.0991 308.955 59.3558 308.391 58.6918C306.645 56.6947 304.494 55.0917 302.081 53.9893C301.071 56.5506 297.289 60.9219 298.008 62.5298Z" fill="#263238"/>
<path d="M301.628 48.5271C301.628 48.5271 303.131 50.741 302.484 52.7287C302.027 54.0876 301.414 55.389 300.658 56.6071C300.658 56.6071 306.153 60.332 307.769 60.3643C309.385 60.3966 311.453 56.2516 311.453 56.2516C311.453 56.2516 306.177 46.7495 303.373 46.4101C300.569 46.0708 301.628 48.5271 301.628 48.5271Z" fill="#263238"/>
<path d="M308.473 47.9211C308.473 47.9211 312.182 48.01 313.418 52.2843C314.655 56.5587 312.352 60.8734 310.259 62.8287C308.166 64.7841 301.977 54.6922 308.473 47.9211Z" fill="#263238"/>
<path d="M307.136 66.8688C306.551 67.7579 305.795 68.5226 304.913 69.1188C304.031 69.7151 303.04 70.1312 301.997 70.3432C299.177 70.8927 298.959 67.992 299.88 65.4952C300.688 63.249 302.151 60.6472 304.914 61.1967C307.677 61.7461 308.534 64.6872 307.136 66.8688Z" fill="#D78163"/>
<path opacity="0.2" d="M305.82 64.1136C305.692 63.8316 305.485 63.5925 305.224 63.4249C304.963 63.2572 304.66 63.1682 304.35 63.1682C303.727 63.1851 303.129 63.4131 302.653 63.8146C302.072 64.267 301.623 64.8669 301.352 65.5518" stroke="black" stroke-width="0.5" stroke-linecap="round" stroke-linejoin="round"/>
<path d="M407.123 205.247H402.477V163.142H407.123V205.247Z" fill="#263238"/>
<path d="M344.318 112.19C344.318 112.19 345.353 128.253 335.867 140.066L354.523 153.939L352.188 159.967C352.188 159.967 326.252 157.341 325.072 146.707C324.627 142.667 328.708 120.391 328.708 120.391C328.708 120.391 335.98 107.746 344.318 112.19Z" fill="#FDBBB5"/>
<path d="M341.844 110.743C339.951 110.887 338.084 111.278 336.293 111.907C332.253 113.7 322.856 128.172 322.856 128.172L333.683 135.581L337.279 130.668L341.844 110.743Z" fill="#407BFF"/>
<path opacity="0.2" d="M333.699 135.606C335.098 133.669 336.398 131.662 337.594 129.594C337.262 127.412 336.624 125.457 335.606 124.358C334.564 126.015 333.859 127.862 333.532 129.792C333.204 131.722 333.261 133.698 333.699 135.606Z" fill="black"/>
<path d="M332.063 172.644C333.923 173.363 335.986 173.357 337.841 172.627C339.697 171.896 341.211 170.495 342.082 168.701L344.32 164.071L346.3 166.932C347.917 169.275 350.121 171.152 352.692 172.376C355.263 173.6 358.11 174.127 360.949 173.905L375.38 172.765C375.38 172.765 370.831 157.963 369.958 155.506C370.669 147.483 372.859 137.448 377.804 122.007C379.42 116.989 376.277 111.147 376.277 111.147C376.277 111.147 369.958 111.147 369.279 111.075C368.601 111.002 367.768 110.913 367.001 110.848C361.8 110.298 356.567 110.12 351.342 110.315C350.049 110.388 348.716 110.501 347.415 110.606C346.987 110.654 342.26 110.695 341.848 110.735C341.848 110.735 335.295 118.233 334.899 124.301C334.406 128.971 334.226 133.667 334.358 138.361C334.358 143.863 334.551 149.293 334.915 157.034C333.889 161.154 332.063 172.644 332.063 172.644Z" fill="#407BFF"/>
<path d="M366.99 125.433H356.906V123.615H366.99V125.433Z" fill="white"/>
<path d="M334.278 134.175C333.858 127.48 335.207 120.792 338.189 114.783C338.366 114.436 338.892 114.783 338.714 115.09C335.783 121.005 334.462 127.587 334.884 134.175C334.884 134.571 334.302 134.563 334.278 134.175Z" fill="#263238"/>
<path d="M370.976 159.385C373.403 159.7 375.858 159.749 378.296 159.53C379.531 159.416 380.758 159.233 381.973 158.981C382.837 158.803 385.625 158.173 384.397 156.775C383.589 155.797 381.698 156.428 380.639 156.638C379.581 156.848 378.498 157.131 377.448 157.446C375.213 158.126 373.048 159.019 370.984 160.112C370.636 160.29 370.329 159.773 370.677 159.587C372.606 158.569 374.621 157.72 376.696 157.05C378.71 156.313 380.814 155.851 382.95 155.676C383.329 155.634 383.712 155.686 384.065 155.827C384.419 155.967 384.733 156.193 384.978 156.484C385.185 156.78 385.282 157.139 385.253 157.499C385.223 157.859 385.069 158.197 384.817 158.456C384.135 159.042 383.288 159.401 382.393 159.482C381.304 159.721 380.204 159.905 379.096 160.031C376.394 160.337 373.665 160.315 370.968 159.967C370.588 159.918 370.588 159.312 370.968 159.361L370.976 159.385Z" fill="#407BFF"/>
<path d="M370.609 159.579C374.188 157.02 377.532 154.148 380.604 150.998C380.967 150.626 381.339 150.246 381.695 149.859C381.791 149.769 381.878 149.668 381.953 149.56C382.026 149.414 382.09 149.034 381.953 148.897C381.816 148.76 381.339 148.978 381.21 149.034C380.36 149.44 379.549 149.922 378.786 150.473C375.398 152.786 372.705 155.979 370.997 159.708C370.835 160.064 370.31 159.757 370.48 159.409C372.318 155.422 375.248 152.038 378.931 149.649C379.714 149.03 380.612 148.574 381.573 148.307C382.317 148.194 382.995 148.711 382.705 149.511C382.486 149.955 382.178 150.348 381.8 150.667C381.347 151.151 380.878 151.628 380.41 152.105C379.489 153.018 378.543 153.915 377.582 154.779C375.474 156.676 373.262 158.454 370.956 160.104C370.641 160.33 370.334 159.805 370.649 159.579H370.609Z" fill="#407BFF"/>
<g opacity="0.7">
<path d="M370.976 159.385C373.403 159.7 375.858 159.749 378.296 159.53C379.531 159.416 380.758 159.233 381.973 158.981C382.837 158.803 385.625 158.173 384.397 156.775C383.589 155.797 381.698 156.428 380.639 156.638C379.581 156.848 378.498 157.131 377.448 157.446C375.213 158.126 373.048 159.019 370.984 160.112C370.636 160.29 370.329 159.773 370.677 159.587C372.606 158.569 374.621 157.72 376.696 157.05C378.71 156.313 380.814 155.851 382.95 155.676C383.329 155.634 383.712 155.686 384.065 155.827C384.419 155.967 384.733 156.193 384.978 156.484C385.185 156.78 385.282 157.139 385.253 157.499C385.223 157.859 385.069 158.197 384.817 158.456C384.135 159.042 383.288 159.401 382.393 159.482C381.304 159.721 380.204 159.905 379.096 160.031C376.394 160.337 373.665 160.315 370.968 159.967C370.588 159.918 370.588 159.312 370.968 159.361L370.976 159.385Z" fill="white"/>
</g>
<g opacity="0.7">
<path d="M370.609 159.579C374.188 157.019 377.532 154.148 380.604 150.998C380.967 150.626 381.339 150.246 381.695 149.858C381.791 149.768 381.878 149.668 381.953 149.559C382.026 149.414 382.09 149.034 381.953 148.897C381.816 148.759 381.339 148.978 381.21 149.034C380.36 149.44 379.549 149.921 378.786 150.472C375.398 152.785 372.705 155.978 370.997 159.708C370.835 160.063 370.31 159.756 370.48 159.409C372.318 155.422 375.248 152.038 378.931 149.648C379.714 149.03 380.612 148.574 381.573 148.307C382.317 148.194 382.995 148.711 382.705 149.511C382.486 149.955 382.178 150.348 381.8 150.666C381.347 151.151 380.878 151.628 380.41 152.105C379.489 153.018 378.543 153.915 377.582 154.779C375.474 156.676 373.262 158.454 370.956 160.104C370.641 160.33 370.334 159.805 370.649 159.579H370.609Z" fill="white"/>
</g>
<path opacity="0.2" d="M349.187 225.956C352.16 216.163 354.302 207.703 355.812 200.431C354.31 194.775 352.185 189.871 349.284 186.946C349.284 186.914 345.115 202.766 349.187 225.956Z" fill="black"/>
<path d="M329.841 256.732C333.162 262.841 336.507 269.418 339.723 276.003C343.957 284.697 347.948 293.408 351.366 301.205C354.962 309.422 357.887 316.605 359.713 321.591C361.434 321.785 366.653 318.674 368.156 315.854C368.156 315.854 364.464 291.824 356.036 268.707C352.667 259.496 348.546 250.438 343.585 243.102C363.842 185.467 358.88 163.861 358.88 163.861L335.408 162.811C335.408 162.811 331.853 184.279 329.009 206.297C327.53 217.843 326.245 229.535 325.777 238.367V238.455C325.416 244.806 326.823 251.133 329.841 256.732Z" fill="#FDBBB5"/>
<path opacity="0.2" d="M351.366 301.205C354.962 309.422 357.887 316.606 359.713 321.591C361.434 321.785 366.653 318.674 368.156 315.854C368.156 315.854 364.464 291.824 356.036 268.707C354.291 278.25 352.368 290.313 351.366 301.205Z" fill="black"/>
<path d="M364.578 333.42C368.424 328.314 368.86 327.578 370.92 324.645C372.682 322.116 373.433 321.761 374.88 319.757C376.083 318.084 374.459 316.953 372.262 316.097C371.155 315.66 368.933 314.602 367.195 313.842L361.022 320.912C362.234 323.474 363.309 328.007 361.531 331.174C359.859 334.196 363.042 335.456 364.578 333.42Z" fill="#407BFF"/>
<path opacity="0.3" d="M364.578 333.42C368.424 328.314 368.86 327.578 370.92 324.645C372.682 322.116 373.433 321.761 374.88 319.757C376.083 318.084 374.459 316.953 372.262 316.097C371.155 315.66 368.933 314.602 367.195 313.842L361.022 320.912C362.234 323.474 363.309 328.007 361.531 331.174C359.859 334.196 363.042 335.456 364.578 333.42Z" fill="white"/>
<path d="M351.109 335.173C357.5 335.173 358.381 335.076 361.936 334.955C365.015 334.842 365.75 335.23 368.223 335.173C370.283 335.125 370.21 333.153 369.572 330.875C369.249 329.735 368.764 327.32 368.319 325.477L358.955 324.799C357.638 327.311 354.664 330.899 351.069 331.384C347.627 331.844 348.548 335.173 351.109 335.173Z" fill="#407BFF"/>
<path opacity="0.4" d="M351.109 335.173C357.5 335.173 358.381 335.076 361.936 334.955C365.015 334.842 365.75 335.23 368.223 335.173C370.283 335.125 370.21 333.153 369.572 330.875C369.249 329.735 368.764 327.32 368.319 325.477L358.955 324.799C357.638 327.311 354.664 330.899 351.069 331.384C347.627 331.844 348.548 335.173 351.109 335.173Z" fill="white"/>
<path d="M344.319 159.401C344.319 159.401 351.155 212.284 355.074 237.728C359.187 264.457 359.712 307.338 358.678 324.815C360.181 325.687 365.635 326.738 368.584 325.817C368.584 325.817 382.522 271.761 373.262 240.371C381.689 178.526 369.497 163.384 369.497 163.384L344.319 159.401Z" fill="#FDBBB5"/>
<path d="M372.491 71.4502C372.491 71.4502 370.067 67.2809 363.175 66.6022C356.283 65.9235 347.112 69.5352 345.706 80.0958C344.3 90.6564 341.318 96.4174 341.318 96.4174C341.318 96.4174 363.563 102.235 369.809 100.134C376.054 98.0334 385.71 74.4721 372.491 71.4502Z" fill="#263238"/>
<path d="M367.352 93.6299L357.704 99.6576L355.207 100.466C355.447 101.705 355.534 102.97 355.466 104.231C355.329 106.356 353.365 109.701 351.111 110.768L358.003 114.67C362.73 112.246 366.333 110.582 366.333 110.582C362.899 106.752 365.323 98.2436 367.352 93.6299Z" fill="#FDBBB5"/>
<path opacity="0.2" d="M355.429 104.691C357.853 103.883 360.745 102.267 361.085 99.6735C361.201 98.7263 361.201 97.7685 361.085 96.8213L355.372 101.564C355.501 102.602 355.52 103.65 355.429 104.691Z" fill="black"/>
<path d="M370.953 85.1135C368.335 92.9511 367.397 96.3124 362.275 99.5363C354.566 104.384 345.501 100.013 345.727 91.6906C345.929 84.1924 350.179 72.638 358.833 71.127C360.68 70.7389 362.598 70.8519 364.387 71.4545C366.176 72.057 367.772 73.1271 369.008 74.5539C370.245 75.9807 371.077 77.7121 371.419 79.5689C371.761 81.4256 371.6 83.3399 370.953 85.1135Z" fill="#FDBBB5"/>
<path d="M359.96 85.275C359.726 86.083 359.104 86.7051 358.571 86.592C358.037 86.4789 357.811 85.7113 358.045 84.871C358.28 84.0307 358.91 83.4408 359.435 83.5539C359.96 83.6671 360.203 84.4427 359.96 85.275Z" fill="#263238"/>
<path d="M352.077 83.3926C351.842 84.2006 351.22 84.7743 350.695 84.6612C350.17 84.548 349.887 83.7966 350.162 82.9886C350.437 82.1806 351.01 81.6069 351.544 81.72C352.077 81.8332 352.303 82.5846 352.077 83.3926Z" fill="#263238"/>
<path d="M362.336 82.7219C362.284 82.7164 362.233 82.6989 362.188 82.6709C362.144 82.6429 362.106 82.6051 362.078 82.5603C361.81 82.1475 361.444 81.8075 361.012 81.5707C360.581 81.3338 360.097 81.2074 359.605 81.2028C359.554 81.2074 359.503 81.2011 359.454 81.1844C359.406 81.1677 359.361 81.1409 359.324 81.1058C359.287 81.0707 359.257 81.028 359.237 80.9807C359.218 80.9334 359.208 80.8824 359.209 80.8311C359.211 80.7209 359.255 80.6155 359.331 80.536C359.408 80.4566 359.511 80.409 359.621 80.4029C360.243 80.3994 360.855 80.5513 361.403 80.8448C361.95 81.1383 362.415 81.5642 362.756 82.0835C362.814 82.1736 362.834 82.2828 362.811 82.3873C362.788 82.4919 362.725 82.5831 362.635 82.6411C362.548 82.7011 362.442 82.7296 362.336 82.7219Z" fill="#263238"/>
<path d="M350.362 78.7546C350.325 78.7297 350.293 78.6976 350.268 78.6601C350.243 78.6227 350.225 78.5806 350.217 78.5364C350.207 78.4328 350.234 78.3292 350.294 78.2435C350.353 78.1579 350.44 78.0957 350.54 78.0678C351.09 77.8687 351.683 77.8147 352.26 77.9109C352.838 78.0071 353.381 78.2504 353.837 78.6172C353.906 78.6869 353.945 78.7813 353.945 78.8798C353.945 78.9783 353.906 79.0727 353.837 79.1424C353.77 79.2181 353.676 79.2652 353.576 79.2742C353.475 79.2832 353.375 79.2534 353.295 79.1909C352.931 78.9063 352.5 78.7197 352.043 78.649C351.586 78.5783 351.119 78.6258 350.685 78.7869C350.632 78.8052 350.576 78.8118 350.52 78.8062C350.465 78.8006 350.411 78.783 350.362 78.7546Z" fill="#263238"/>
<path d="M354.312 83.5137C353.188 85.0502 351.91 86.4688 350.499 87.7476C350.425 87.8128 350.367 87.894 350.33 87.985C350.292 88.0759 350.276 88.1742 350.282 88.2724C350.288 88.3706 350.317 88.4661 350.366 88.5516C350.414 88.637 350.482 88.7103 350.563 88.7657C351.214 89.1387 351.955 89.3233 352.705 89.2989L354.312 83.5137Z" fill="#E97A75"/>
<path d="M359.734 83.6592L357.997 82.7947C357.997 82.7947 358.676 84.4026 359.734 83.6592Z" fill="#263238"/>
<path d="M351.719 81.7845L349.99 80.9199C349.99 80.9199 350.668 82.5278 351.719 81.7845Z" fill="#263238"/>
<path d="M367.517 87.2225C367.517 87.2225 364.851 80.0313 366.257 75.0459C366.257 75.0459 358.831 71.1271 350.541 78.0678C349.216 79.1667 348.117 81.2998 346.744 82.9886C346.744 82.9886 348.82 67.3942 362.637 69.3253C376.454 71.2564 374.611 90.8666 366.523 95.6984C366.523 95.6984 369.166 91.723 367.517 87.2225Z" fill="#263238"/>
<path d="M371.839 92.2159C370.642 93.499 368.987 94.257 367.234 94.3248C364.987 94.3248 364.697 90.6888 365.917 88.7335C366.487 87.8614 367.348 87.2202 368.347 86.9243C369.346 86.6283 370.417 86.6968 371.371 87.1175C373.302 87.9982 373.358 90.5919 371.839 92.2159Z" fill="#FDBBB5"/>
<path d="M367 110.881L365.028 106.542C365.028 106.542 358.047 107.301 356.553 108.327C355.515 109.135 354.645 110.136 353.991 111.277C354.246 110.081 354.589 108.907 355.017 107.762C355.341 107.261 354.524 106.542 354.524 106.542L352.351 109.362L349.636 110.461C349.636 110.461 348.65 114.63 350.323 117.329C351.995 120.027 367 110.881 367 110.881Z" fill="#407BFF"/>
<path opacity="0.7" d="M367 110.881L365.028 106.542C365.028 106.542 358.047 107.301 356.553 108.327C355.515 109.135 354.645 110.136 353.991 111.277C354.246 110.081 354.589 108.907 355.017 107.762C355.341 107.261 354.524 106.542 354.524 106.542L352.351 109.362L349.636 110.461C349.636 110.461 348.65 114.63 350.323 117.329C351.995 120.027 367 110.881 367 110.881Z" fill="white"/>
<path d="M355.996 90.5432C356.07 90.5628 356.135 90.6053 356.182 90.6644C356.215 90.7029 356.24 90.7476 356.255 90.7958C356.271 90.8441 356.276 90.8949 356.272 90.9453C356.267 90.9958 356.253 91.0448 356.229 91.0895C356.205 91.1343 356.173 91.1738 356.134 91.2058C355.652 91.6011 355.086 91.8797 354.479 92.0199C353.872 92.16 353.241 92.1579 352.635 92.0138C352.585 91.9999 352.539 91.9762 352.499 91.9442C352.458 91.9122 352.425 91.8724 352.4 91.8273C352.375 91.7822 352.36 91.7326 352.354 91.6813C352.349 91.6301 352.354 91.5783 352.368 91.529C352.4 91.4297 352.469 91.3469 352.562 91.2985C352.654 91.2501 352.762 91.24 352.861 91.2704C353.342 91.387 353.844 91.387 354.324 91.2703C354.805 91.1537 355.251 90.9238 355.625 90.5998C355.678 90.5616 355.739 90.5365 355.804 90.5267C355.868 90.5168 355.934 90.5225 355.996 90.5432Z" fill="#263238"/>
<path opacity="0.2" d="M371.289 89.3716C371.16 89.0896 370.953 88.8505 370.693 88.6829C370.432 88.5153 370.128 88.4262 369.819 88.4263C369.195 88.4393 368.596 88.6677 368.122 89.0727C367.543 89.5237 367.094 90.1204 366.821 90.8018" stroke="black" stroke-width="0.5" stroke-linecap="round" stroke-linejoin="round"/>
<path opacity="0.2" d="M374.454 133.206C375.391 129.812 376.506 126.119 377.807 122.039C377.814 122.013 377.814 121.985 377.807 121.958C376.724 121.231 375.456 121.255 374.042 122.443C373.603 126.03 373.742 129.663 374.454 133.206Z" fill="black"/>
<path d="M485.728 162.221L483.207 149.382H508.271L510.275 153.713V149.382H514.428L514.993 154.892L516.569 149.382H524.164L520.803 161.825L485.728 162.221Z" fill="#407BFF"/>
<path opacity="0.3" d="M485.728 162.221L483.207 149.382H508.271L510.275 153.713V149.382H514.428L514.993 154.892L516.569 149.382H524.164L520.803 161.825L485.728 162.221Z" fill="white"/>
<path d="M503.756 216.874H499.789V165.776H503.756V216.874Z" fill="#263238"/>
<path d="M522.491 165.776H485.016V161.825H522.491V165.776Z" fill="#263238"/>
<path opacity="0.2" d="M499.791 165.776H503.758V168.192H499.791V165.776Z" fill="black"/>
<path d="M487.891 177.807C484.142 177.686 481.338 174.179 480.198 170.608C479.059 167.037 479.035 163.19 477.896 159.619C476.425 155.038 472.918 150.998 468.329 149.551C463.74 148.105 458.189 149.64 455.49 153.591C452.791 157.543 453.736 163.764 457.817 166.309L459.756 172.773C464.604 181.136 475.738 185.225 484.853 182.001L482.227 178.68C483.171 179 484.179 179.088 485.165 178.937C486.151 178.785 487.086 178.397 487.891 177.807Z" fill="#263238"/>
<g opacity="0.7">
<path d="M487.891 177.807C484.142 177.686 481.338 174.179 480.198 170.608C479.059 167.037 479.035 163.19 477.896 159.619C476.425 155.038 472.918 150.998 468.329 149.551C463.74 148.105 458.189 149.64 455.49 153.591C452.791 157.543 453.736 163.764 457.817 166.309L459.756 172.773C464.604 181.136 475.738 185.225 484.853 182.001L482.227 178.68C483.171 179 484.179 179.088 485.165 178.937C486.151 178.785 487.086 178.397 487.891 177.807Z" fill="white"/>
</g>
<path d="M462.729 245.954H460.07V166.705H462.729V245.954Z" fill="#263238"/>
<path opacity="0.4" d="M462.729 245.954H460.07V166.705H462.729V245.954Z" fill="white"/>
<path d="M458.437 166.697C457.511 166.291 456.704 165.654 456.094 164.847C456.094 164.847 466.8 164.984 466.671 164.847C466.541 164.71 465.733 166.342 463.754 166.697H458.437Z" fill="#407BFF"/>
<path d="M446.422 174.357V202.977C446.423 203.335 446.353 203.69 446.217 204.021C446.081 204.352 445.88 204.653 445.627 204.907C445.374 205.161 445.074 205.362 444.743 205.5C444.412 205.637 444.057 205.708 443.699 205.708H428.533C428.278 205.707 428.026 205.65 427.795 205.542C427.564 205.434 427.36 205.276 427.196 205.081C427.032 204.885 426.913 204.657 426.846 204.41C426.78 204.164 426.768 203.907 426.812 203.655L429.575 187.689L431.765 177.234C432.087 175.72 432.914 174.36 434.111 173.378C435.307 172.396 436.802 171.849 438.35 171.828C440.362 171.828 442.39 171.828 443.909 171.828C444.24 171.829 444.568 171.895 444.873 172.023C445.179 172.151 445.456 172.337 445.689 172.572C445.923 172.807 446.107 173.086 446.233 173.392C446.359 173.698 446.423 174.026 446.422 174.357ZM435.215 179.423C434.923 179.366 434.622 179.367 434.33 179.426C434.038 179.485 433.76 179.601 433.513 179.768C433.266 179.935 433.054 180.148 432.89 180.397C432.726 180.646 432.613 180.924 432.557 181.217L430.625 191.261C430.548 191.835 430.694 192.418 431.033 192.889C431.371 193.36 431.877 193.683 432.447 193.792C433.016 193.902 433.606 193.789 434.095 193.478C434.585 193.166 434.936 192.679 435.078 192.117L437.009 182.074C437.065 181.782 437.063 181.482 437.004 181.191C436.944 180.899 436.827 180.623 436.661 180.377C436.494 180.131 436.281 179.92 436.033 179.756C435.785 179.593 435.507 179.479 435.215 179.423Z" fill="#407BFF"/>
<path opacity="0.3" d="M446.422 174.357V202.977C446.423 203.335 446.353 203.69 446.217 204.021C446.081 204.352 445.88 204.653 445.627 204.907C445.374 205.161 445.074 205.362 444.743 205.5C444.412 205.637 444.057 205.708 443.699 205.708H428.533C428.278 205.707 428.026 205.65 427.795 205.542C427.564 205.434 427.36 205.276 427.196 205.081C427.032 204.885 426.913 204.657 426.846 204.41C426.78 204.164 426.768 203.907 426.812 203.655L429.575 187.689L431.765 177.234C432.087 175.72 432.914 174.36 434.111 173.378C435.307 172.396 436.802 171.849 438.35 171.828C440.362 171.828 442.39 171.828 443.909 171.828C444.24 171.829 444.568 171.895 444.873 172.023C445.179 172.151 445.456 172.337 445.689 172.572C445.923 172.807 446.107 173.086 446.233 173.392C446.359 173.698 446.423 174.026 446.422 174.357ZM435.215 179.423C434.923 179.366 434.622 179.367 434.33 179.426C434.038 179.485 433.76 179.601 433.513 179.768C433.266 179.935 433.054 180.148 432.89 180.397C432.726 180.646 432.613 180.924 432.557 181.217L430.625 191.261C430.548 191.835 430.694 192.418 431.033 192.889C431.371 193.36 431.877 193.683 432.447 193.792C433.016 193.902 433.606 193.789 434.095 193.478C434.585 193.166 434.936 192.679 435.078 192.117L437.009 182.074C437.065 181.782 437.063 181.482 437.004 181.191C436.944 180.899 436.827 180.623 436.661 180.377C436.494 180.131 436.281 179.92 436.033 179.756C435.785 179.593 435.507 179.479 435.215 179.423Z" fill="white"/>
<path d="M444.829 171.812H437.734V166.641H444.829V171.812Z" fill="#263238"/>
<path d="M451.648 321.033C450.372 321.663 451.648 200.431 451.648 200.431H518.672C518.672 200.431 507.142 322.1 505.865 321.033C504.588 319.967 451.648 321.033 451.648 321.033Z" fill="#407BFF"/>
<path opacity="0.2" d="M451.541 210.992L516.827 219.589L517.57 211.945L451.541 210.992Z" fill="black"/>
<path d="M400.724 318.351L396.733 274.888H435.25L430.943 318.189L400.724 318.351Z" fill="#263238"/>
<path opacity="0.3" d="M400.724 318.351L396.733 274.888H435.25L430.943 318.189L400.724 318.351Z" fill="white"/>
<path d="M436.638 277.232H395.18V274.501H436.638V277.232Z" fill="#263238"/>
<path d="M514.78 324.12H395.172V317.939H514.78V324.12Z" fill="#263238"/>
<path d="M446.903 317.939H439.203V204.891H446.903V317.939Z" fill="#263238"/>
<path d="M518.663 211.331L400.953 211.331V204.956H518.663V211.331Z" fill="#263238"/>
<path d="M403.566 333.11C399.231 328.774 399.231 321.745 403.566 317.41C407.902 313.074 414.931 313.074 419.267 317.41C423.603 321.745 423.603 328.774 419.267 333.11C414.931 337.446 407.902 337.446 403.566 333.11Z" fill="#263238"/>
<path d="M411.418 319.66C412.516 319.66 413.59 319.985 414.503 320.596C415.416 321.206 416.127 322.073 416.547 323.088C416.967 324.103 417.076 325.22 416.861 326.297C416.647 327.374 416.117 328.363 415.34 329.139C414.563 329.915 413.573 330.443 412.496 330.656C411.418 330.869 410.302 330.758 409.288 330.337C408.274 329.915 407.407 329.203 406.798 328.289C406.189 327.375 405.865 326.301 405.867 325.203C405.867 324.474 406.01 323.753 406.29 323.08C406.569 322.406 406.978 321.795 407.493 321.28C408.009 320.765 408.621 320.357 409.294 320.079C409.968 319.801 410.689 319.659 411.418 319.66Z" fill="#407BFF"/>
<path d="M495.066 336.361C486.918 336.361 480.312 329.755 480.312 321.607C480.312 313.458 486.918 306.853 495.066 306.853C503.215 306.853 509.82 313.458 509.82 321.607C509.82 329.755 503.215 336.361 495.066 336.361Z" fill="#263238"/>
<path d="M493.392 328.717C489.427 327.781 486.971 323.808 487.907 319.842C488.843 315.877 492.816 313.421 496.781 314.357C500.746 315.293 503.202 319.266 502.266 323.232C501.33 327.197 497.357 329.653 493.392 328.717Z" fill="#407BFF"/>
<path d="M426.187 169.105H424.562V164.572H426.187V169.105Z" fill="#263238"/>
<path d="M427.21 188.61C426.216 185.459 420.35 182.445 420.6 180.175C420.851 177.904 420.819 174.89 420.819 174.89H414.993C414.492 175.399 409.499 185.338 411.373 197.038L412.989 204.843H424.721C424.721 204.843 428.212 191.753 427.21 188.61Z" fill="#407BFF"/>
<path d="M421.175 174.89H414.242V172.006H421.175V174.89Z" fill="#263238"/>
<path d="M409.396 170.592C409.396 170.592 410.204 165.453 413.913 165.162C417.622 164.871 424.562 165.162 424.562 165.162V168.644H421.177V172.014H414.535V169.509C414.535 169.509 412.879 168.354 409.396 170.592Z" fill="#263238"/>
<path d="M421.178 170.721C421.178 170.721 421.711 173.614 426.026 173.953L426.195 173.226C425.237 172.899 424.4 172.287 423.797 171.473C423.193 170.659 422.852 169.681 422.818 168.669H421.202L421.178 170.721Z" fill="#263238"/>
<path d="M520.656 205.263H448.453V197.474H520.656V205.263Z" fill="#407BFF"/>
<path opacity="0.3" d="M520.656 205.263H448.453V197.474H520.656V205.263Z" fill="black"/>
<path opacity="0.2" d="M397.124 279.244L396.946 277.232H434.914V279.244H397.124Z" fill="black"/>
<path opacity="0.7" d="M446.422 180.07H440.136L437.049 199.817H446.422V180.07Z" fill="white"/>
<g opacity="0.5">
<path d="M436.63 277.232H395.172V274.501H436.63V277.232Z" fill="white"/>
</g>
<path d="M396.934 275.866C396.934 275.866 402.525 297.755 433.156 295.848" stroke="#263238" stroke-miterlimit="10"/>
<path d="M323.811 259.488C323.811 259.488 328.546 182.308 334.808 160.209L369.916 155.539C369.916 155.539 380.856 183.455 382.844 203.13C384.831 222.805 387.57 258.817 387.57 258.817C350.459 270.824 323.811 259.488 323.811 259.488Z" fill="#407BFF"/>
<path opacity="0.2" d="M335.674 218.345C337.455 220.318 339.918 221.542 342.566 221.771C347.252 222.32 366.733 222.094 370.24 219.234C373.181 216.81 373.844 209.934 373.844 200.132C373.844 194.21 369.497 164.193 369.497 164.193L335.674 218.345Z" fill="black"/>
<path d="M369.952 155.539H334.804C334.804 155.539 328.97 214.846 333.277 217.472C337.583 220.098 364.377 221.867 369.459 215.646C374.541 209.424 369.459 164.192 369.459 164.192C370.531 163.802 371.576 163.34 372.586 162.811L369.952 155.539Z" fill="#407BFF"/>
<path opacity="0.7" d="M369.952 155.539H334.804C334.804 155.539 328.97 214.846 333.277 217.472C337.583 220.098 364.377 221.867 369.459 215.646C374.541 209.424 369.459 164.192 369.459 164.192C370.531 163.802 371.576 163.34 372.586 162.811L369.952 155.539Z" fill="white"/>
<path d="M335.858 155.539C335.858 155.539 333.434 212.147 335.454 214.587C337.474 217.027 357.892 218.086 364.477 214.587C371.063 211.089 365.698 155.539 365.698 155.539" stroke="white" stroke-miterlimit="10"/>
<g opacity="0.2">
<path d="M351.821 259.124C351.538 249.202 351.077 236.371 350.795 226.457C353.049 231.757 355.643 237.025 355.812 242.786C355.974 249.8 355.635 254.801 351.821 259.124Z" fill="black"/>
</g>
<path d="M401.714 156.872L412.492 157.47L418.391 160.904L413.543 164.314L409.963 163.506C409.963 163.506 401.697 164.12 398.934 160.581L401.714 156.872Z" fill="#FDBBB5"/>
<path d="M378.863 116.674L388.996 146.966L403.047 157.284L399.395 161.114C399.395 161.114 387.089 158.69 383.235 154.771C379.381 150.852 372.157 125.287 372.157 125.287L378.863 116.674Z" fill="#FDBBB5"/>
<path d="M376.278 111.179C377.997 111.47 379.585 112.284 380.824 113.51C382.063 114.736 382.894 116.315 383.202 118.031C384.35 123.178 387.242 133.569 387.242 133.569L373.167 137.876L368.513 123.598L374.67 114.331L376.278 111.179Z" fill="#407BFF"/>
<path d="M375.871 112.189C373.795 113.159 372.704 115.421 372.049 117.53C371.23 120.34 370.905 123.271 371.088 126.192C371.29 130.232 372.542 134.111 373.512 138.005L373.14 137.787L387.159 133.278C387.531 133.157 387.692 133.739 387.321 133.86L373.302 138.377C373.224 138.397 373.141 138.385 373.071 138.344C373.002 138.303 372.951 138.237 372.93 138.159C372.203 135.323 371.314 132.462 370.829 129.57C370.102 125.069 370.199 120.027 372.041 115.785C372.672 114.032 373.919 112.568 375.548 111.664C375.903 111.503 376.211 112.028 375.855 112.189H375.871Z" fill="#263238"/>
<path d="M408.648 163.692C408.648 164.454 408.422 165.2 407.998 165.834C407.574 166.468 406.972 166.962 406.267 167.253C405.563 167.545 404.787 167.62 404.039 167.471C403.292 167.322 402.605 166.954 402.066 166.414C401.527 165.874 401.161 165.187 401.013 164.439C400.865 163.69 400.943 162.915 401.236 162.211C401.529 161.507 402.024 160.906 402.659 160.483C403.294 160.06 404.04 159.836 404.802 159.837C405.308 159.837 405.809 159.937 406.276 160.131C406.743 160.325 407.168 160.609 407.525 160.967C407.882 161.325 408.165 161.75 408.358 162.217C408.551 162.685 408.649 163.186 408.648 163.692Z" fill="#263238"/>
<path d="M240.923 46.453C235.269 39.4533 236.36 29.1957 243.36 23.5421C250.36 17.8885 260.617 18.9797 266.271 25.9794C271.925 32.9792 270.833 43.2367 263.834 48.8904C256.834 54.544 246.576 53.4528 240.923 46.453Z" fill="#407BFF"/>
<path d="M259.59 48.8665L258.492 52.9065L263.162 55.3628L263.703 50.1997L259.59 48.8665Z" fill="#407BFF"/>
<path d="M253.603 45.7961C253.875 45.8052 254.147 45.759 254.401 45.6605C254.655 45.5619 254.886 45.4129 255.081 45.2224C255.273 45.046 255.426 44.8309 255.529 44.5914C255.632 44.3519 255.683 44.0934 255.679 43.8327C255.685 43.5768 255.636 43.3227 255.536 43.0872C255.435 42.8518 255.286 42.6404 255.097 42.4671C254.682 42.1121 254.153 41.9169 253.607 41.9169C253.06 41.9169 252.532 42.1121 252.116 42.4671C251.928 42.6404 251.778 42.8518 251.678 43.0872C251.578 43.3227 251.529 43.5768 251.534 43.8327C251.53 44.0934 251.582 44.3519 251.685 44.5914C251.788 44.8309 251.94 45.046 252.132 45.2224C252.325 45.4134 252.555 45.5628 252.808 45.6615C253.061 45.7602 253.331 45.806 253.603 45.7961ZM252.269 40.3825H254.944L255.623 30.5249H251.583L252.269 40.3825Z" fill="white"/>
<path d="M263.706 21.6853C266.063 22.894 268.085 24.6658 269.593 26.8434C271.102 29.0211 272.049 31.5373 272.352 34.1689" stroke="#407BFF" stroke-width="0.5" stroke-linecap="round" stroke-linejoin="round"/>
<path d="M272.528 36.585C272.676 37.3886 272.654 38.2143 272.464 39.009" stroke="#407BFF" stroke-width="0.5" stroke-linecap="round" stroke-linejoin="round"/>
</svg>
