<svg width="550" height="391" viewBox="0 0 550 391" fill="none" xmlns="http://www.w3.org/2000/svg">
<path d="M264.825 6.80811C119.157 6.80811 1.02373 124.942 1.02373 270.609C0.9619 311.987 10.6764 352.795 29.3758 389.707H500.273C518.973 352.795 528.687 311.987 528.626 270.609C528.626 124.942 410.513 6.80811 264.825 6.80811Z" fill="url(#paint0_linear_3121_3918)"/>
<path d="M101.415 42.0084C109.148 34.2749 109.148 21.7363 101.415 14.0028C93.6811 6.26928 81.1426 6.26929 73.409 14.0028C65.6755 21.7363 65.6755 34.2749 73.409 42.0084C81.1426 49.7419 93.6811 49.7419 101.415 42.0084Z" fill="url(#paint1_linear_3121_3918)"/>
<path d="M476.011 62.6832C476.011 63.7612 475.691 64.8151 475.092 65.7114C474.493 66.6078 473.642 67.3064 472.646 67.719C471.65 68.1315 470.554 68.2395 469.497 68.0292C468.439 67.8188 467.468 67.2997 466.706 66.5374C465.944 65.7751 465.424 64.8039 465.214 63.7465C465.004 62.6892 465.112 61.5933 465.524 60.5973C465.937 59.6013 466.635 58.75 467.532 58.151C468.428 57.5521 469.482 57.2324 470.56 57.2324C471.276 57.2311 471.986 57.3711 472.648 57.6446C473.31 57.918 473.911 58.3195 474.417 58.8259C474.924 59.3323 475.325 59.9337 475.599 60.5956C475.872 61.2576 476.012 61.967 476.011 62.6832Z" fill="url(#paint2_linear_3121_3918)"/>
<path d="M528.677 200.526C536.094 193.108 536.094 181.081 528.677 173.663C521.259 166.245 509.232 166.245 501.814 173.663C494.396 181.081 494.396 193.108 501.814 200.525C509.232 207.943 521.259 207.943 528.677 200.526Z" fill="white"/>
<path d="M35.2162 363.748C35.2162 366.808 34.3088 369.799 32.6088 372.343C30.9088 374.888 28.4925 376.871 25.6655 378.042C22.8384 379.213 19.7277 379.519 16.7265 378.922C13.7254 378.325 10.9686 376.852 8.80491 374.688C6.64119 372.524 5.16769 369.767 4.57072 366.766C3.97376 363.765 4.28014 360.654 5.45113 357.827C6.62212 355 8.60513 352.584 11.1494 350.884C13.6936 349.184 16.6849 348.277 19.7448 348.277C21.7765 348.277 23.7884 348.677 25.6655 349.454C27.5425 350.232 29.2481 351.371 30.6847 352.808C32.1214 354.245 33.261 355.95 34.0385 357.827C34.816 359.704 35.2162 361.716 35.2162 363.748Z" fill="white"/>
<path d="M47.7178 163.434C61.155 156.976 66.8126 140.847 60.3544 127.41C53.8961 113.973 37.7676 108.315 24.3303 114.773C10.8931 121.232 5.23545 137.36 11.6937 150.797C18.152 164.235 34.2805 169.892 47.7178 163.434Z" fill="white"/>
<path d="M318.578 43.0564H419.106" stroke="white" stroke-miterlimit="10" stroke-linecap="round"/>
<path d="M43.7251 323.375H39.8806V319.531C39.8806 319.256 39.7714 318.992 39.5771 318.798C39.3828 318.604 39.1192 318.494 38.8443 318.494C38.5695 318.494 38.3059 318.604 38.1116 318.798C37.9173 318.992 37.8081 319.256 37.8081 319.531V323.375H34.005C33.7302 323.375 33.4666 323.484 33.2723 323.679C33.0779 323.873 32.9688 324.137 32.9688 324.411C32.9688 324.686 33.0779 324.95 33.2723 325.144C33.4666 325.339 33.7302 325.448 34.005 325.448H37.8495V329.292C37.8495 329.567 37.9587 329.831 38.1531 330.025C38.3474 330.219 38.611 330.328 38.8858 330.328C39.1606 330.328 39.4242 330.219 39.6185 330.025C39.8129 329.831 39.9221 329.567 39.9221 329.292V325.448H43.7666C44.0414 325.448 44.305 325.339 44.4993 325.144C44.6937 324.95 44.8029 324.686 44.8029 324.411C44.8029 324.137 44.6937 323.873 44.4993 323.679C44.305 323.484 44.0414 323.375 43.7666 323.375H43.7251Z" fill="white"/>
<path d="M494.519 164.081H488.675V158.237C488.675 157.825 488.511 157.429 488.219 157.138C487.928 156.846 487.532 156.682 487.12 156.682C486.708 156.682 486.313 156.846 486.021 157.138C485.73 157.429 485.566 157.825 485.566 158.237V164.081H479.773C479.361 164.081 478.966 164.245 478.674 164.537C478.383 164.828 478.219 165.223 478.219 165.636C478.219 166.048 478.383 166.443 478.674 166.735C478.966 167.026 479.361 167.19 479.773 167.19H485.618V173.035C485.618 173.447 485.781 173.842 486.073 174.134C486.364 174.425 486.76 174.589 487.172 174.589C487.584 174.589 487.98 174.425 488.271 174.134C488.563 173.842 488.726 173.447 488.726 173.035V167.19H494.571C494.983 167.19 495.379 167.026 495.67 166.735C495.962 166.443 496.125 166.048 496.125 165.636C496.125 165.223 495.962 164.828 495.67 164.537C495.379 164.245 494.983 164.081 494.571 164.081H494.519Z" fill="white"/>
<path d="M85.8438 128.817H82.2791V125.253C82.2791 125.129 82.2547 125.006 82.2073 124.892C82.1599 124.777 82.0905 124.673 82.0029 124.586C81.9153 124.498 81.8114 124.429 81.697 124.381C81.5826 124.334 81.4599 124.31 81.3361 124.31C81.2123 124.31 81.0896 124.334 80.9752 124.381C80.8608 124.429 80.7569 124.498 80.6693 124.586C80.5817 124.673 80.5123 124.777 80.4649 124.892C80.4175 125.006 80.3931 125.129 80.3931 125.253V128.817H76.818C76.5679 128.817 76.328 128.917 76.1512 129.094C75.9744 129.27 75.875 129.51 75.875 129.76C75.875 130.01 75.9744 130.25 76.1512 130.427C76.328 130.604 76.5679 130.703 76.818 130.703H80.3931V134.268C80.3931 134.518 80.4924 134.758 80.6693 134.935C80.8461 135.112 81.086 135.211 81.3361 135.211C81.5862 135.211 81.826 135.112 82.0029 134.935C82.1797 134.758 82.2791 134.518 82.2791 134.268V130.693H85.8438C86.0939 130.693 86.3338 130.594 86.5106 130.417C86.6875 130.24 86.7868 130 86.7868 129.75C86.7868 129.5 86.6875 129.26 86.5106 129.083C86.3338 128.906 86.0939 128.807 85.8438 128.807V128.817Z" fill="white"/>
<path d="M533.485 362.732H529.641V358.888C529.641 358.613 529.532 358.349 529.337 358.155C529.143 357.961 528.879 357.852 528.605 357.852C528.33 357.852 528.066 357.961 527.872 358.155C527.677 358.349 527.568 358.613 527.568 358.888V362.732H523.724C523.449 362.732 523.185 362.842 522.991 363.036C522.797 363.23 522.688 363.494 522.688 363.769C522.688 364.043 522.797 364.307 522.991 364.501C523.185 364.696 523.449 364.805 523.724 364.805H527.568V368.649C527.568 368.924 527.677 369.188 527.872 369.382C528.066 369.576 528.33 369.686 528.605 369.686C528.879 369.686 529.143 369.576 529.337 369.382C529.532 369.188 529.641 368.924 529.641 368.649V364.805H533.485C533.76 364.805 534.024 364.696 534.218 364.501C534.412 364.307 534.522 364.043 534.522 363.769C534.522 363.494 534.412 363.23 534.218 363.036C534.024 362.842 533.76 362.732 533.485 362.732Z" fill="url(#paint3_linear_3121_3918)"/>
<path d="M507.906 245.656L501.139 233.946L494.383 245.656H498.963V265.251H503.315V245.656H507.906Z" fill="white"/>
<path d="M58.5232 350.701L51.7564 338.992L45 350.701H49.5803V370.308H53.9326V350.701H58.5232Z" fill="white"/>
<path d="M239.797 39.1184L233.03 27.4087L226.273 39.1184H230.854V58.7141H235.206V39.1184H239.797Z" fill="white"/>
<path d="M81.4233 213.863L77.071 206.319L72.7188 213.863H75.6721V226.495H78.47V213.863H81.4233Z" fill="white"/>
<path d="M385.964 98.5068V88.1442C385.961 87.6568 385.765 87.1903 385.42 86.8466C385.074 86.5029 384.607 86.31 384.119 86.31H381.446C381.064 86.3117 380.693 86.1848 380.392 85.9498C380.091 85.7148 379.878 85.3854 379.788 85.0147C378.874 81.0175 377.294 77.2027 375.114 73.7298C374.918 73.4076 374.834 73.0296 374.876 72.6548C374.917 72.2799 375.081 71.9293 375.342 71.6573L377.228 69.7713C377.572 69.4257 377.765 68.9581 377.765 68.4708C377.765 67.9834 377.572 67.5159 377.228 67.1703L369.933 59.7714C369.587 59.4278 369.12 59.2349 368.632 59.2349C368.145 59.2349 367.677 59.4278 367.332 59.7714L365.456 61.647C365.179 61.9214 364.817 62.0935 364.429 62.1349C364.041 62.1763 363.65 62.0847 363.321 61.875C359.861 59.715 356.064 58.1461 352.088 57.2325C351.717 57.1473 351.385 56.9373 351.15 56.6375C350.914 56.3377 350.788 55.9662 350.793 55.5849V52.9217C350.793 52.4325 350.599 51.9633 350.253 51.6174C349.907 51.2715 349.438 51.0771 348.948 51.0771H338.586C338.097 51.0771 337.628 51.2715 337.282 51.6174C336.936 51.9633 336.741 52.4325 336.741 52.9217V55.5849C336.744 55.9657 336.618 56.3363 336.382 56.6357C336.147 56.9351 335.817 57.1456 335.446 57.2325C331.467 58.1461 327.667 59.715 324.203 61.875C323.875 62.0839 323.486 62.1751 323.1 62.1337C322.714 62.0922 322.354 61.9206 322.078 61.647L320.192 59.7714C319.847 59.4278 319.379 59.2349 318.892 59.2349C318.404 59.2349 317.937 59.4278 317.591 59.7714L310.234 67.1185C309.89 67.4641 309.697 67.9316 309.697 68.419C309.697 68.9063 309.89 69.3739 310.234 69.7195L312.12 71.6055C312.378 71.8795 312.539 72.2307 312.578 72.605C312.617 72.9794 312.533 73.3563 312.337 73.678C310.185 77.1453 308.62 80.9442 307.705 84.9214C307.617 85.2913 307.406 85.6205 307.107 85.8555C306.808 86.0906 306.438 86.2179 306.058 86.2168H303.384C303.138 86.2167 302.895 86.2657 302.668 86.361C302.442 86.4563 302.237 86.5959 302.065 86.7716C301.893 86.9473 301.758 87.1555 301.668 87.3841C301.578 87.6127 301.534 87.8571 301.54 88.1027V98.4654C301.542 98.9528 301.738 99.4193 302.083 99.763C302.429 100.107 302.897 100.3 303.384 100.3H306.058C306.438 100.297 306.809 100.423 307.108 100.658C307.408 100.894 307.618 101.224 307.705 101.595C308.619 105.574 310.188 109.374 312.348 112.838C312.542 113.161 312.625 113.539 312.584 113.913C312.542 114.287 312.379 114.638 312.12 114.911L310.234 116.797C309.89 117.142 309.697 117.61 309.697 118.097C309.697 118.585 309.89 119.052 310.234 119.398L317.591 126.745C317.761 126.918 317.963 127.055 318.187 127.148C318.41 127.242 318.65 127.29 318.892 127.29C319.134 127.29 319.374 127.242 319.597 127.148C319.82 127.055 320.022 126.918 320.192 126.745L322.078 124.859C322.356 124.589 322.717 124.42 323.103 124.381C323.488 124.341 323.876 124.433 324.203 124.641C327.664 126.795 331.461 128.357 335.436 129.263C335.807 129.352 336.138 129.565 336.373 129.866C336.608 130.167 336.734 130.539 336.731 130.921V133.595C336.731 134.084 336.925 134.553 337.271 134.899C337.617 135.245 338.086 135.439 338.575 135.439H348.938C349.427 135.439 349.896 135.245 350.242 134.899C350.588 134.553 350.783 134.084 350.783 133.595V130.921C350.779 130.539 350.905 130.167 351.141 129.866C351.376 129.565 351.706 129.352 352.078 129.263C356.053 128.357 359.849 126.795 363.311 124.641C363.633 124.446 364.01 124.361 364.384 124.401C364.758 124.44 365.109 124.601 365.384 124.859L367.27 126.745C367.439 126.918 367.642 127.055 367.865 127.148C368.088 127.242 368.328 127.29 368.57 127.29C368.812 127.29 369.052 127.242 369.275 127.148C369.498 127.055 369.701 126.918 369.871 126.745L377.228 119.398C377.572 119.052 377.765 118.585 377.765 118.097C377.765 117.61 377.572 117.142 377.228 116.797L375.342 114.911C375.081 114.639 374.917 114.288 374.876 113.913C374.834 113.538 374.918 113.161 375.114 112.838C377.275 109.375 378.841 105.575 379.746 101.595C379.837 101.224 380.05 100.895 380.351 100.66C380.651 100.425 381.022 100.298 381.404 100.3H384.078C384.565 100.311 385.037 100.128 385.391 99.7924C385.744 99.4565 385.95 98.9942 385.964 98.5068ZM343.726 117.688C338.907 117.69 334.196 116.263 330.189 113.588C326.181 110.913 323.057 107.109 321.211 102.658C319.365 98.2073 318.881 93.309 319.819 88.5828C320.757 83.8565 323.075 79.5146 326.481 76.106C329.887 72.6973 334.227 70.3752 338.952 69.4332C343.678 68.4911 348.576 68.9715 353.029 70.8135C357.481 72.6556 361.288 75.7766 363.966 79.7818C366.645 83.7871 368.076 88.4967 368.078 93.3151C368.081 96.5149 367.453 99.6837 366.23 102.641C365.008 105.598 363.214 108.285 360.953 110.548C358.691 112.812 356.006 114.607 353.05 115.832C350.094 117.057 346.925 117.688 343.726 117.688Z" fill="url(#paint4_linear_3121_3918)"/>
<path d="M312.59 61.5847V55.0977C312.59 54.948 312.561 54.7998 312.503 54.6615C312.446 54.5232 312.362 54.3975 312.256 54.2917C312.15 54.1858 312.025 54.1019 311.886 54.0446C311.748 53.9873 311.6 53.9578 311.45 53.9578H309.823C309.584 53.9637 309.35 53.8863 309.161 53.739C308.972 53.5916 308.84 53.3833 308.787 53.1495C308.198 50.6832 307.207 48.3306 305.854 46.1859C305.718 45.9831 305.658 45.7389 305.685 45.4962C305.712 45.2535 305.823 45.028 305.999 44.8595L307.17 43.6885C307.384 43.4714 307.503 43.1793 307.503 42.875C307.503 42.5707 307.384 42.2786 307.17 42.0615L302.569 37.4295C302.352 37.2162 302.06 37.0967 301.756 37.0967C301.452 37.0967 301.16 37.2162 300.943 37.4295L299.772 38.6004C299.602 38.7754 299.375 38.8848 299.133 38.9094C298.89 38.9341 298.647 38.8724 298.445 38.7351C296.29 37.3865 293.926 36.4026 291.45 35.8233C291.217 35.7706 291.008 35.6386 290.861 35.4496C290.714 35.2607 290.636 35.0265 290.642 34.787V33.1497C290.642 32.9991 290.612 32.8501 290.554 32.7111C290.496 32.5721 290.411 32.446 290.305 32.34C290.198 32.234 290.071 32.1503 289.931 32.0936C289.792 32.0369 289.642 32.0084 289.492 32.0098H283.015C282.712 32.0098 282.421 32.1296 282.205 32.343C281.99 32.5565 281.868 32.8464 281.865 33.1497V34.787C281.871 35.0265 281.793 35.2607 281.646 35.4496C281.499 35.6386 281.29 35.7706 281.057 35.8233C278.575 36.394 276.204 37.3709 274.041 38.7144C273.84 38.8516 273.596 38.9133 273.353 38.8887C273.111 38.8641 272.885 38.7546 272.715 38.5797L271.544 37.4087C271.438 37.3022 271.312 37.2177 271.173 37.16C271.034 37.1023 270.886 37.0726 270.736 37.0726C270.585 37.0726 270.437 37.1023 270.298 37.16C270.159 37.2177 270.033 37.3022 269.927 37.4087L265.337 42.0408C265.123 42.2579 265.004 42.55 265.004 42.8543C265.004 43.1586 265.123 43.4507 265.337 43.6677L266.508 44.8387C266.684 45.0073 266.795 45.2328 266.822 45.4755C266.849 45.7181 266.789 45.9624 266.653 46.1651C265.309 48.3284 264.332 50.6989 263.761 53.1806C263.709 53.4144 263.577 53.6227 263.388 53.7701C263.199 53.9174 262.965 53.9948 262.725 53.9889H261.119C260.816 53.9889 260.525 54.1087 260.309 54.3221C260.094 54.5356 259.971 54.8255 259.969 55.1288V61.6158C259.969 61.9209 260.09 62.2134 260.306 62.4291C260.521 62.6449 260.814 62.766 261.119 62.766H262.787C263.027 62.7602 263.261 62.8375 263.45 62.9849C263.639 63.1323 263.771 63.3406 263.824 63.5743C264.393 66.0534 265.37 68.4207 266.715 70.5794C266.851 70.7822 266.911 71.0265 266.884 71.2691C266.858 71.5118 266.746 71.7373 266.57 71.9059L265.399 73.0872C265.292 73.1931 265.208 73.3191 265.15 73.4578C265.092 73.5965 265.063 73.7452 265.063 73.8955C265.063 74.0457 265.092 74.1945 265.15 74.3332C265.208 74.4719 265.292 74.5978 265.399 74.7038L269.989 79.2944C270.095 79.4009 270.221 79.4855 270.36 79.5432C270.499 79.6008 270.647 79.6305 270.798 79.6305C270.948 79.6305 271.097 79.6008 271.235 79.5432C271.374 79.4855 271.5 79.4009 271.606 79.2944L272.787 78.1131C272.957 77.9381 273.183 77.8287 273.426 77.8041C273.669 77.7794 273.912 77.8411 274.114 77.9783C276.271 79.3246 278.639 80.2985 281.119 80.8592C281.353 80.9118 281.561 81.0438 281.708 81.2328C281.856 81.4217 281.933 81.6559 281.927 81.8954V83.4913C281.927 83.7963 282.048 84.0889 282.264 84.3046C282.48 84.5203 282.772 84.6415 283.077 84.6415H289.554C289.848 84.6256 290.125 84.4974 290.327 84.2834C290.53 84.0694 290.642 83.7859 290.642 83.4913V81.8643C290.636 81.6248 290.714 81.3906 290.861 81.2017C291.008 81.0127 291.217 80.8807 291.45 80.8281C293.919 80.2618 296.276 79.2882 298.424 77.9473C298.626 77.8101 298.87 77.7483 299.112 77.773C299.355 77.7976 299.581 77.907 299.751 78.082L300.922 79.2633C301.139 79.4766 301.431 79.5961 301.735 79.5961C302.04 79.5961 302.332 79.4766 302.549 79.2633L307.129 74.6727C307.236 74.5667 307.32 74.4408 307.378 74.3021C307.435 74.1634 307.465 74.0146 307.465 73.8644C307.465 73.7142 307.435 73.5654 307.378 73.4267C307.32 73.288 307.236 73.162 307.129 73.0561L305.958 71.8748C305.781 71.7062 305.67 71.4807 305.644 71.238C305.617 70.9954 305.677 70.7511 305.813 70.5484C307.187 68.3951 308.192 66.0275 308.787 63.5432C308.84 63.3095 308.972 63.1012 309.161 62.9538C309.35 62.8064 309.584 62.7291 309.823 62.735H311.502C311.796 62.719 312.073 62.5908 312.275 62.3768C312.478 62.1628 312.591 61.8793 312.59 61.5847ZM286.259 71.8126C283.594 71.8126 280.99 71.0225 278.774 69.5423C276.559 68.062 274.832 65.9581 273.813 63.4965C272.793 61.0349 272.526 58.3263 273.046 55.7131C273.566 53.0999 274.849 50.6995 276.733 48.8155C278.617 46.9315 281.017 45.6485 283.631 45.1287C286.244 44.6089 288.952 44.8756 291.414 45.8953C293.876 46.9149 295.979 48.6415 297.46 50.8569C298.94 53.0723 299.73 55.6768 299.73 58.3412C299.73 60.1103 299.382 61.8621 298.705 63.4965C298.028 65.1309 297.035 66.616 295.784 67.8669C294.533 69.1179 293.048 70.1101 291.414 70.7871C289.78 71.4641 288.028 71.8126 286.259 71.8126Z" fill="white"/>
<path d="M435.925 93.3152H123.617C111.747 93.3152 102.125 102.938 102.125 114.807V316.184C102.125 328.054 111.747 337.676 123.617 337.676H435.925C447.795 337.676 457.417 328.054 457.417 316.184V114.807C457.417 102.938 447.795 93.3152 435.925 93.3152Z" fill="#0E2B5C"/>
<path d="M448.675 115.74V297.085C448.675 298.685 448.04 300.219 446.909 301.35C445.778 302.481 444.244 303.116 442.644 303.116H116.864C115.267 303.114 113.735 302.477 112.607 301.346C111.478 300.216 110.844 298.683 110.844 297.085V115.74C110.844 113.848 111.216 111.975 111.94 110.228C112.664 108.48 113.725 106.892 115.063 105.555C116.4 104.217 117.988 103.156 119.736 102.432C121.483 101.708 123.356 101.336 125.248 101.336H434.302C438.116 101.347 441.77 102.869 444.464 105.569C447.158 108.268 448.672 111.926 448.675 115.74Z" fill="white"/>
<path d="M313.667 389.81H245.875L252.994 348.494L254.859 337.676H304.683L306.548 348.494L313.667 389.81Z" fill="#0E2B5C"/>
<path style="mix-blend-mode:multiply" d="M306.546 348.494H252.992L254.857 337.676H304.681L306.546 348.494Z" fill="url(#paint5_linear_3121_3918)"/>
<path d="M336.136 380.929H223.422V389.81H336.136V380.929Z" fill="#0E2B5C"/>
<path d="M373.209 157.376H186.34C179.879 157.376 174.641 162.614 174.641 169.076V238.205C174.641 244.666 179.879 249.904 186.34 249.904H373.209C379.67 249.904 384.908 244.666 384.908 238.205V169.076C384.908 162.614 379.67 157.376 373.209 157.376Z" stroke="url(#paint6_linear_3121_3918)" stroke-width="1.1" stroke-miterlimit="10" stroke-linecap="round"/>
<path d="M117.233 282.402H70.3109C67.1059 282.402 64.5078 285 64.5078 288.205V383.53C64.5078 386.735 67.1059 389.333 70.3109 389.333H117.233C120.438 389.333 123.036 386.735 123.036 383.53V288.205C123.036 285 120.438 282.402 117.233 282.402Z" fill="url(#paint7_linear_3121_3918)"/>
<path d="M117.257 289.054H70.2941C68.6172 289.054 67.2578 290.414 67.2578 292.09V372.204C67.2578 373.881 68.6172 375.24 70.2941 375.24H117.257C118.934 375.24 120.294 373.881 120.294 372.204V292.09C120.294 290.414 118.934 289.054 117.257 289.054Z" fill="white"/>
<path d="M99.4022 382.401C99.3981 383.513 99.0646 384.599 98.4438 385.521C97.8231 386.444 96.9428 387.162 95.9143 387.585C94.8858 388.007 93.755 388.116 92.6649 387.896C91.5748 387.677 90.5741 387.139 89.7892 386.352C89.0043 385.564 88.4705 384.561 88.2551 383.47C88.0396 382.379 88.1522 381.249 88.5787 380.222C89.0052 379.195 89.7264 378.317 90.6513 377.7C91.5762 377.083 92.6633 376.753 93.7753 376.753C94.516 376.753 95.2494 376.899 95.9334 377.183C96.6175 377.468 97.2387 377.884 97.7615 378.409C98.2842 378.933 98.6983 379.556 98.9798 380.241C99.2614 380.926 99.4049 381.66 99.4022 382.401Z" fill="url(#paint8_linear_3121_3918)"/>
<path d="M98.6213 382.401C98.6233 383.36 98.3406 384.299 97.809 385.098C97.2773 385.897 96.5206 386.52 95.6347 386.889C94.7487 387.257 93.7732 387.355 92.8318 387.169C91.8904 386.983 91.0253 386.522 90.346 385.844C89.6667 385.166 89.2038 384.302 89.0158 383.361C88.8279 382.42 88.9233 381.444 89.29 380.557C89.6568 379.671 90.2784 378.913 91.0761 378.379C91.8739 377.846 92.8119 377.561 93.7716 377.561C95.056 377.561 96.288 378.071 97.1972 378.978C98.1064 379.885 98.6185 381.116 98.6213 382.401Z" fill="white"/>
<path d="M100.946 287.023H86.6144C86.3396 287.023 86.076 286.914 85.8816 286.72C85.6873 286.525 85.5781 286.262 85.5781 285.987C85.5781 285.712 85.6873 285.449 85.8816 285.254C86.076 285.06 86.3396 284.951 86.6144 284.951H100.946C101.221 284.951 101.484 285.06 101.679 285.254C101.873 285.449 101.982 285.712 101.982 285.987C101.982 286.262 101.873 286.525 101.679 286.72C101.484 286.914 101.221 287.023 100.946 287.023Z" fill="url(#paint9_linear_3121_3918)"/>
<path d="M105.799 285.945C105.799 286.15 105.738 286.351 105.624 286.521C105.511 286.692 105.349 286.824 105.159 286.903C104.97 286.981 104.762 287.002 104.561 286.962C104.36 286.922 104.175 286.823 104.03 286.678C103.885 286.533 103.786 286.349 103.746 286.148C103.706 285.947 103.727 285.738 103.805 285.549C103.884 285.36 104.017 285.198 104.187 285.084C104.358 284.97 104.558 284.909 104.763 284.909C105.038 284.909 105.301 285.018 105.496 285.213C105.69 285.407 105.799 285.671 105.799 285.945Z" fill="url(#paint10_linear_3121_3918)"/>
<path d="M93.7696 348.857C103.001 348.857 110.484 341.373 110.484 332.142C110.484 322.911 103.001 315.427 93.7696 315.427C84.5382 315.427 77.0547 322.911 77.0547 332.142C77.0547 341.373 84.5382 348.857 93.7696 348.857Z" fill="url(#paint11_linear_3121_3918)"/>
<path d="M93.7765 337.935C93.5117 337.937 93.249 337.887 93.0036 337.787C92.7582 337.688 92.5349 337.54 92.3465 337.354L77.072 322.65C76.8616 322.465 76.6908 322.239 76.57 321.987C76.4492 321.734 76.3808 321.46 76.369 321.18C76.3572 320.9 76.4023 320.621 76.5015 320.359C76.6006 320.097 76.7518 319.858 76.946 319.656C77.1401 319.454 77.3731 319.294 77.631 319.184C77.8888 319.075 78.1662 319.019 78.4462 319.02C78.7263 319.021 79.0033 319.079 79.2604 319.189C79.5176 319.3 79.7496 319.462 79.9425 319.665L93.4139 332.588L106.719 310.702C106.859 310.465 107.045 310.259 107.266 310.095C107.486 309.931 107.737 309.812 108.004 309.746C108.271 309.68 108.548 309.667 108.819 309.709C109.091 309.751 109.352 309.847 109.586 309.99C109.82 310.134 110.024 310.323 110.184 310.546C110.345 310.769 110.46 311.021 110.522 311.289C110.584 311.557 110.592 311.834 110.546 312.105C110.5 312.376 110.4 312.635 110.253 312.867L95.5486 336.95C95.3869 337.215 95.1679 337.439 94.9079 337.608C94.6479 337.776 94.3533 337.885 94.046 337.924L93.7765 337.935Z" fill="url(#paint12_linear_3121_3918)"/>
<path d="M480.563 343.81H479.527C479.511 336.452 476.853 329.344 472.038 323.78C467.223 318.216 460.571 314.565 453.292 313.492C446.012 312.419 438.589 313.995 432.374 317.933C426.158 321.871 421.563 327.91 419.424 334.95C417.705 334.387 415.89 334.174 414.087 334.324C412.284 334.473 410.529 334.982 408.926 335.821C407.323 336.659 405.904 337.809 404.753 339.205C403.601 340.6 402.741 342.212 402.222 343.945C401.393 343.853 400.559 343.808 399.725 343.81C396.608 343.6 393.482 344.032 390.54 345.08C387.598 346.128 384.902 347.769 382.62 349.901C380.339 352.034 378.52 354.613 377.276 357.478C376.032 360.343 375.391 363.433 375.391 366.556C375.391 369.679 376.032 372.769 377.276 375.634C378.52 378.499 380.339 381.078 382.62 383.211C384.902 385.344 387.598 386.985 390.54 388.033C393.482 389.08 396.608 389.513 399.725 389.302H480.553C483.669 389.513 486.795 389.08 489.737 388.033C492.68 386.985 495.375 385.344 497.657 383.211C499.939 381.078 501.758 378.499 503.001 375.634C504.245 372.769 504.887 369.679 504.887 366.556C504.887 363.433 504.245 360.343 503.001 357.478C501.758 354.613 499.939 352.034 497.657 349.901C495.375 347.769 492.68 346.128 489.737 345.08C486.795 344.032 483.669 343.6 480.553 343.81H480.563Z" fill="url(#paint13_linear_3121_3918)"/>
<path d="M163.707 66.8488H162.671C162.654 59.4907 159.997 52.3829 155.182 46.8188C150.367 41.2547 143.715 37.6039 136.436 36.5309C129.156 35.4578 121.733 37.0336 115.518 40.9717C109.302 44.9098 104.707 50.9484 102.568 57.9888C101.23 57.549 99.8311 57.3217 98.4227 57.3152C95.5036 57.3143 92.6619 58.2543 90.3192 59.9959C87.9766 61.7375 86.2577 64.1879 85.4176 66.9835C84.5746 66.8898 83.7269 66.8448 82.8788 66.8488C77.1115 67.2383 71.7075 69.8041 67.7602 74.0269C63.813 78.2497 61.6172 83.8143 61.6172 89.5948C61.6172 95.3752 63.813 100.94 67.7602 105.163C71.7075 109.385 77.1115 111.951 82.8788 112.341H163.707C169.474 111.951 174.878 109.385 178.826 105.163C182.773 100.94 184.969 95.3752 184.969 89.5948C184.969 83.8143 182.773 78.2497 178.826 74.0269C174.878 69.8041 169.474 67.2383 163.707 66.8488Z" fill="white"/>
<path d="M163.707 66.8488H162.671C162.654 59.4907 159.997 52.3829 155.182 46.8188C150.367 41.2547 143.715 37.6039 136.436 36.5309C129.156 35.4578 121.733 37.0336 115.518 40.9717C109.302 44.9098 104.707 50.9484 102.568 57.9888C101.23 57.549 99.8311 57.3217 98.4227 57.3152C95.5036 57.3143 92.6619 58.2543 90.3192 59.9959C87.9766 61.7375 86.2577 64.1879 85.4176 66.9835C84.5746 66.8898 83.7269 66.8448 82.8788 66.8488C77.1115 67.2383 71.7075 69.8041 67.7602 74.0269C63.813 78.2497 61.6172 83.8143 61.6172 89.5948C61.6172 95.3752 63.813 100.94 67.7602 105.163C71.7075 109.385 77.1115 111.951 82.8788 112.341H163.707C169.474 111.951 174.878 109.385 178.826 105.163C182.773 100.94 184.969 95.3752 184.969 89.5948C184.969 83.8143 182.773 78.2497 178.826 74.0269C174.878 69.8041 169.474 67.2383 163.707 66.8488Z" stroke="url(#paint14_linear_3121_3918)" stroke-width="2" stroke-linecap="round" stroke-linejoin="round"/>
<path d="M93.7734 275.355V273.801" stroke="url(#paint15_linear_3121_3918)" stroke-miterlimit="10" stroke-linecap="round"/>
<path d="M93.7734 270.661V219.469C93.7762 215.981 95.1639 212.636 97.6317 210.17C100.099 207.704 103.445 206.319 106.934 206.319H171.514" stroke="url(#paint16_linear_3121_3918)" stroke-miterlimit="10" stroke-linecap="round" stroke-dasharray="3.03 3.03"/>
<path d="M173.086 206.319H174.64" stroke="url(#paint17_linear_3121_3918)" stroke-miterlimit="10" stroke-linecap="round"/>
<path d="M174.64 208.796C176.128 208.796 177.334 207.59 177.334 206.102C177.334 204.614 176.128 203.407 174.64 203.407C173.152 203.407 171.945 204.614 171.945 206.102C171.945 207.59 173.152 208.796 174.64 208.796Z" fill="url(#paint18_linear_3121_3918)"/>
<path d="M93.776 279.365C95.9908 279.365 97.7863 277.57 97.7863 275.355C97.7863 273.14 95.9908 271.344 93.776 271.344C91.5611 271.344 89.7656 273.14 89.7656 275.355C89.7656 277.57 91.5611 279.365 93.776 279.365Z" fill="url(#paint19_linear_3121_3918)"/>
<path d="M194.258 80.7244H195.812" stroke="url(#paint20_linear_3121_3918)" stroke-miterlimit="10" stroke-linecap="round"/>
<path d="M198.883 80.7244H245.142C248.625 80.7271 251.965 82.1106 254.43 84.5717C256.895 87.0327 258.283 90.3706 258.292 93.8538V154.257" stroke="url(#paint21_linear_3121_3918)" stroke-miterlimit="10" stroke-linecap="round" stroke-dasharray="2.96 2.96"/>
<path d="M258.289 155.822V157.377" stroke="url(#paint22_linear_3121_3918)" stroke-miterlimit="10" stroke-linecap="round"/>
<path d="M258.296 160.071C259.784 160.071 260.99 158.865 260.99 157.377C260.99 155.889 259.784 154.682 258.296 154.682C256.808 154.682 255.602 155.889 255.602 157.377C255.602 158.865 256.808 160.071 258.296 160.071Z" fill="url(#paint23_linear_3121_3918)"/>
<path d="M194.26 84.7348C196.475 84.7348 198.271 82.9393 198.271 80.7244C198.271 78.5096 196.475 76.7141 194.26 76.7141C192.045 76.7141 190.25 78.5096 190.25 80.7244C190.25 82.9393 192.045 84.7348 194.26 84.7348Z" fill="url(#paint24_linear_3121_3918)"/>
<path d="M199.648 249.904V251.459" stroke="url(#paint25_linear_3121_3918)" stroke-miterlimit="10" stroke-linecap="round"/>
<path d="M199.648 254.588V334.505" stroke="url(#paint26_linear_3121_3918)" stroke-miterlimit="10" stroke-linecap="round" stroke-dasharray="3.02 3.02"/>
<path d="M199.648 336.069V337.624" stroke="url(#paint27_linear_3121_3918)" stroke-miterlimit="10" stroke-linecap="round"/>
<path d="M199.862 341.634C202.077 341.634 203.872 339.839 203.872 337.624C203.872 335.409 202.077 333.614 199.862 333.614C197.647 333.614 195.852 335.409 195.852 337.624C195.852 339.839 197.647 341.634 199.862 341.634Z" fill="url(#paint28_linear_3121_3918)"/>
<path d="M199.647 252.599C199.115 252.599 198.594 252.441 198.151 252.145C197.707 251.849 197.362 251.428 197.158 250.936C196.954 250.443 196.901 249.901 197.005 249.379C197.109 248.856 197.365 248.376 197.742 247.999C198.119 247.623 198.599 247.366 199.122 247.262C199.644 247.158 200.186 247.211 200.678 247.415C201.171 247.619 201.592 247.965 201.888 248.408C202.184 248.851 202.342 249.372 202.342 249.904C202.343 250.259 202.274 250.61 202.139 250.937C202.004 251.265 201.806 251.562 201.556 251.813C201.305 252.063 201.008 252.262 200.68 252.396C200.353 252.531 200.002 252.6 199.647 252.599Z" fill="url(#paint29_linear_3121_3918)"/>
<path d="M384.914 183.625H386.468" stroke="url(#paint30_linear_3121_3918)" stroke-miterlimit="10" stroke-linecap="round"/>
<path d="M389.539 183.625H400.741C401.921 183.628 403.052 184.099 403.885 184.934C404.719 185.769 405.187 186.901 405.187 188.081V205.159" stroke="url(#paint31_linear_3121_3918)" stroke-miterlimit="10" stroke-linecap="round" stroke-dasharray="2.96 2.96"/>
<path d="M405.18 206.692V208.247" stroke="url(#paint32_linear_3121_3918)" stroke-miterlimit="10" stroke-linecap="round"/>
<path d="M405.182 212.257C407.397 212.257 409.193 210.462 409.193 208.247C409.193 206.032 407.397 204.237 405.182 204.237C402.967 204.237 401.172 206.032 401.172 208.247C401.172 210.462 402.967 212.257 405.182 212.257Z" fill="url(#paint33_linear_3121_3918)"/>
<path d="M384.913 186.319C386.401 186.319 387.607 185.113 387.607 183.625C387.607 182.137 386.401 180.931 384.913 180.931C383.425 180.931 382.219 182.137 382.219 183.625C382.219 185.113 383.425 186.319 384.913 186.319Z" fill="url(#paint34_linear_3121_3918)"/>
<path d="M338.602 249.904V251.459" stroke="url(#paint35_linear_3121_3918)" stroke-miterlimit="10" stroke-linecap="round"/>
<path d="M338.602 254.609V355.603C338.6 357.155 338.905 358.692 339.498 360.127C340.091 361.561 340.961 362.865 342.058 363.963C343.155 365.061 344.458 365.932 345.892 366.526C347.326 367.121 348.863 367.427 350.415 367.427H367.855" stroke="url(#paint36_linear_3121_3918)" stroke-miterlimit="10" stroke-linecap="round" stroke-dasharray="3.04 3.04"/>
<path d="M369.43 367.406H370.984" stroke="url(#paint37_linear_3121_3918)" stroke-miterlimit="10" stroke-linecap="round"/>
<path d="M338.608 252.599C340.096 252.599 341.303 251.392 341.303 249.904C341.303 248.416 340.096 247.21 338.608 247.21C337.12 247.21 335.914 248.416 335.914 249.904C335.914 251.392 337.12 252.599 338.608 252.599Z" fill="url(#paint38_linear_3121_3918)"/>
<path d="M370.987 371.416C373.202 371.416 374.997 369.621 374.997 367.406C374.997 365.191 373.202 363.396 370.987 363.396C368.772 363.396 366.977 365.191 366.977 367.406C366.977 369.621 368.772 371.416 370.987 371.416Z" fill="url(#paint39_linear_3121_3918)"/>
<path d="M428.156 108.103H376.903C372.65 108.103 369.203 111.55 369.203 115.802V143.729C369.203 147.981 372.65 151.429 376.903 151.429H428.156C432.408 151.429 435.855 147.981 435.855 143.729V115.802C435.855 111.55 432.408 108.103 428.156 108.103Z" stroke="url(#paint40_linear_3121_3918)" stroke-miterlimit="10" stroke-linecap="round" stroke-dasharray="5 5"/>
<path d="M398.227 147.304C398.069 147.302 397.911 147.274 397.761 147.221C397.43 147.096 397.163 146.844 397.017 146.522C396.871 146.2 396.859 145.832 396.984 145.501L409.056 113.201C409.198 112.895 409.45 112.654 409.761 112.526C410.073 112.398 410.422 112.392 410.737 112.51C411.053 112.628 411.312 112.861 411.464 113.162C411.615 113.463 411.647 113.81 411.554 114.134L399.481 146.434C399.385 146.689 399.213 146.908 398.99 147.064C398.766 147.219 398.5 147.303 398.227 147.304Z" fill="url(#paint41_linear_3121_3918)"/>
<path d="M393.297 141.729C392.885 141.728 392.491 141.564 392.199 141.273L383.245 132.32C382.593 131.667 382.227 130.782 382.227 129.859C382.227 128.936 382.593 128.05 383.245 127.398L392.396 118.258C392.69 117.983 393.08 117.834 393.483 117.841C393.885 117.848 394.27 118.011 394.554 118.296C394.839 118.581 395.002 118.965 395.009 119.368C395.017 119.77 394.867 120.16 394.593 120.455L385.473 129.594C385.439 129.629 385.411 129.67 385.392 129.716C385.373 129.761 385.364 129.81 385.364 129.859C385.364 129.908 385.373 129.956 385.392 130.002C385.411 130.047 385.439 130.088 385.473 130.123L394.416 139.066C394.632 139.285 394.778 139.562 394.838 139.863C394.897 140.165 394.866 140.477 394.749 140.761C394.631 141.045 394.433 141.288 394.179 141.46C393.925 141.632 393.625 141.726 393.318 141.729H393.297Z" fill="url(#paint42_linear_3121_3918)"/>
<path d="M415.049 141.729C414.742 141.726 414.442 141.632 414.188 141.46C413.933 141.288 413.735 141.045 413.618 140.761C413.501 140.477 413.47 140.165 413.529 139.863C413.588 139.562 413.735 139.285 413.95 139.066L423.09 129.926C423.125 129.892 423.152 129.852 423.171 129.807C423.189 129.763 423.199 129.715 423.199 129.667C423.199 129.619 423.189 129.571 423.171 129.526C423.152 129.482 423.125 129.442 423.09 129.408L414.137 120.455C413.846 120.162 413.683 119.765 413.684 119.353C413.684 118.94 413.849 118.544 414.142 118.253C414.435 117.961 414.831 117.798 415.244 117.799C415.657 117.8 416.053 117.965 416.344 118.258L425.287 127.201C425.94 127.854 426.306 128.739 426.306 129.662C426.306 130.585 425.94 131.47 425.287 132.123L416.147 141.273C415.855 141.564 415.461 141.728 415.049 141.729Z" fill="url(#paint43_linear_3121_3918)"/>
<path d="M412.316 389.302H432.979C433.499 387.921 433.699 386.439 433.565 384.969C433.43 383.5 432.964 382.079 432.202 380.815C432.202 380.815 430.492 382.193 425.363 381.261C424.24 382.216 423.029 383.062 421.746 383.789C420.254 384.504 411.746 386.183 412.316 389.302Z" fill="#283770"/>
<path d="M470.557 380.069C468.384 380.999 465.966 381.188 463.676 380.608C463.288 381.231 462.978 381.899 462.754 382.598C462.329 383.758 459.78 386.079 459.282 388.577C459.267 388.665 459.272 388.755 459.295 388.842C459.318 388.928 459.359 389.008 459.416 389.077C459.473 389.146 459.545 389.202 459.625 389.241C459.706 389.279 459.794 389.3 459.883 389.302H472.204C472.345 389.304 472.481 389.257 472.589 389.167C472.697 389.078 472.77 388.953 472.795 388.815C473.057 387.282 472.994 385.71 472.608 384.203C472.222 382.696 471.523 381.288 470.557 380.069Z" fill="#283770"/>
<path d="M425.356 381.261L425.117 374.007L432.723 374.173L432.195 380.794C432.195 380.794 430.62 382.701 425.356 381.261Z" fill="#FFA49A"/>
<path d="M463.676 380.608L462.898 374.028H470.287L470.556 380.069C470.556 380.069 468.588 381.935 463.676 380.608Z" fill="#FFA49A"/>
<path d="M468.961 322.277C467.925 309.894 467.158 295.241 467.355 292.07C468.018 281.801 465.428 266.909 461.355 262.163C461.355 262.163 442.319 263.003 433.614 263.49C427.563 263.832 427.293 262.205 427.314 261.811C427.086 263.231 423.469 286.598 421.096 323.479C421.034 324.515 420.972 327.261 421.013 327.873C421.19 331.904 421.832 340.173 422.609 349.499C423.386 358.826 424.682 377.883 424.682 377.883C427.479 378.276 430.306 378.411 433.127 378.287C433.127 378.287 434.568 362.94 435.49 355.831C436.941 344.774 436.412 325.935 436.236 323.064C436.236 323.064 442.267 301.303 444.526 293.013L446.36 293.51C455.666 336.132 462.153 376.753 462.153 376.753C465.079 377.461 468.136 377.426 471.044 376.649C471.044 376.649 473.552 347.499 468.961 322.277Z" fill="url(#paint44_linear_3121_3918)"/>
<path d="M425.709 206.102C425.709 206.102 423.201 208.837 420.289 222.184H429.874L425.709 206.102Z" fill="url(#paint45_linear_3121_3918)"/>
<path d="M426.745 263.179C426.983 265.811 435.584 266.909 441.19 266.909C447.491 266.909 458.216 264.174 461.356 262.163C462.133 261.655 460.682 257.127 460.61 249.552C460.517 239.469 461.646 227.376 462.154 225.936C464.299 219.604 466.299 214.174 465.429 209.117C464.558 207.618 463.515 206.227 462.32 204.972C459.211 201.594 451.097 198.319 450.631 198.174C450.631 198.174 445.657 198.236 442.413 198.174C440.579 198.018 438.735 198.018 436.9 198.174C433.564 199.801 427.999 202.692 425.709 206.133C423.709 209.127 423.76 213.511 425.398 224.34C425.947 227.998 426.952 242.557 427.159 253.272C427.273 259.106 426.641 262.039 426.745 263.179Z" fill="url(#paint46_linear_3121_3918)"/>
<path d="M448.85 199.646C448.352 198.464 449.43 197.957 449.181 196.412C448.658 192.397 448.478 188.345 448.642 184.299L442.155 189.76L439.047 192.34C438.715 193.874 438.176 195.832 437.73 197.428C437.441 198.363 437.481 199.369 437.844 200.278L448.85 199.646Z" fill="#FFA49A"/>
<path d="M446.17 189.77C446.17 189.77 443.569 195.521 437.766 197.428C438.222 195.832 438.802 193.874 439.092 192.34L442.201 189.76L446.17 189.77Z" fill="#FF8189"/>
<path d="M432.214 178.185C432.214 178.185 430.981 191.045 435.209 193.335C437.51 194.62 442.38 194.133 445.572 191.18C446.894 189.811 447.874 188.149 448.432 186.33C449.468 183.439 451.095 178.04 450.069 174.641C448.722 170.102 435.634 166.247 432.681 174.931C432.442 176.002 432.286 177.09 432.214 178.185Z" fill="#FFA49A"/>
<path d="M430.333 173.118C428.664 174.952 430.25 176.558 432.592 177.387C433.658 177.754 434.771 177.963 435.898 178.009C438.34 178.125 440.786 177.87 443.151 177.252C442.706 179.097 442.975 180.423 443.866 181.086C444.758 181.75 448.094 181.864 448.146 182.413C448.384 185.138 448.436 187.283 448.612 190.61L449.172 190.33C449.265 189.211 455.213 176.278 453.224 171.087C452.188 168.32 449.006 169.387 449.006 169.387C446.633 163.294 433.4 161.594 429.411 165.646C426.923 168.164 429.079 171.408 430.333 173.118Z" fill="#1D2D4E"/>
<path d="M445.886 186.278C449.192 188.081 451.254 180.527 447.907 179.677C445.72 179.128 445.213 182.216 445.213 182.216C445.213 182.216 444.207 185.366 445.886 186.278Z" fill="#FFA49A"/>
<path d="M475.895 238.07C475.895 231.459 471.242 220.06 470.631 218.723C469.097 215.324 458.382 221.697 459.139 224.195C460.04 227.169 464.496 237.252 464.496 237.262C459.823 238.392 452.133 241.034 447.501 242.599C445.974 243.035 444.403 243.306 442.817 243.407C441.158 243.207 439.522 242.839 437.937 242.309C436.9 242.07 433.336 244.381 432.755 244.744C432.175 245.107 432.683 245.853 433.906 245.78C434.667 245.68 435.416 245.507 436.144 245.262L434.797 246.018C434.185 246.36 432.983 249.48 432.776 249.822C432.569 250.164 433.926 250.35 434.6 249.676C435.086 249.132 435.533 248.554 435.937 247.946C435.522 248.837 435.159 249.708 435.056 249.884C434.838 250.226 436.092 250.288 436.714 249.625C437.363 248.91 437.975 248.163 438.548 247.386C438.216 248.423 437.729 249.946 437.916 250.05C438.102 250.153 438.849 250.05 439.325 249.386C439.555 249.055 439.762 248.709 439.947 248.35C440.323 248.582 440.727 248.767 441.149 248.899C444.185 249.853 446.579 247.708 448.33 247.459C451.657 247.366 456.776 247.21 460.651 247.065C465.084 247.019 469.465 246.114 473.553 244.402C476.807 242.972 475.895 238.07 475.895 238.07Z" fill="#FFA49A"/>
<path d="M441.109 243.894L441.555 243.708L441.327 243.801L441.109 243.894Z" fill="#D99490"/>
<path d="M450.631 198.143C450.631 198.143 450.911 198.568 450.206 197.335C449.862 196.796 449.489 196.277 449.087 195.781C449.087 195.781 448.154 198.63 440.797 200.112L441.989 204.568C441.989 204.568 447.761 202.723 450.631 198.143Z" fill="white"/>
<path d="M437.997 196.578C437.997 196.578 437.727 197.501 438.961 198.775C439.512 199.293 440.125 199.742 440.784 200.112L438.66 203.884C438.66 203.884 436.898 202.112 436.898 198.143C437.016 197.874 437.166 197.62 437.344 197.387L437.997 196.578Z" fill="white"/>
<path d="M444.905 252.06H427.289V249.904L444.905 250.402C445.122 250.407 445.327 250.497 445.478 250.652C445.629 250.807 445.714 251.014 445.714 251.231C445.714 251.447 445.629 251.655 445.478 251.81C445.327 251.965 445.122 252.054 444.905 252.06Z" fill="white"/>
<path d="M434.18 251.158H394.864C394.159 251.158 393.475 250.912 392.932 250.462C392.389 250.011 392.02 249.385 391.89 248.692L385.994 217.604C385.943 217.342 385.951 217.072 386.018 216.814C386.084 216.555 386.207 216.315 386.377 216.11C386.548 215.905 386.762 215.74 387.004 215.627C387.245 215.515 387.509 215.457 387.776 215.459H424.853C425.559 215.459 426.242 215.705 426.785 216.156C427.328 216.606 427.697 217.232 427.828 217.925L434.18 251.158Z" fill="white"/>
<path d="M431.328 252.06H393.121C392.578 252.06 392.053 251.87 391.635 251.524C391.217 251.178 390.932 250.697 390.831 250.164L384.728 218.039C384.689 217.839 384.696 217.633 384.747 217.436C384.797 217.239 384.89 217.055 385.02 216.897C385.15 216.74 385.312 216.613 385.496 216.526C385.68 216.439 385.881 216.393 386.085 216.392H424.292C424.835 216.392 425.36 216.581 425.779 216.928C426.197 217.274 426.481 217.755 426.582 218.288L432.686 250.412C432.726 250.613 432.721 250.819 432.671 251.018C432.621 251.216 432.528 251.4 432.398 251.558C432.268 251.716 432.104 251.843 431.919 251.929C431.734 252.016 431.532 252.061 431.328 252.06Z" fill="url(#paint47_linear_3121_3918)"/>
<path d="M462.321 204.941C462.321 204.941 468.217 210.64 470.611 217.148C473.077 223.832 473.854 225.977 473.854 225.977C473.854 225.977 468.196 231.055 460.683 231.314C460.683 231.314 454.642 220.495 453.989 215.501C453.336 210.506 456.58 201.687 462.321 204.941Z" fill="url(#paint48_linear_3121_3918)"/>
<path d="M402.502 252.06H400.43C400.34 252.126 400.275 252.219 400.245 252.327C400.215 252.434 400.222 252.548 400.264 252.65C400.43 253.013 401.549 253.376 401.995 253.469C402.955 253.627 403.935 253.627 404.896 253.469L402.502 252.06Z" fill="#CE8684"/>
<path d="M411.433 251.448L409.858 251.179L408.573 249.79C408.394 249.273 408.169 248.774 407.9 248.298C407.257 247.044 406.179 246.982 406.345 247.935L406.459 248.567C406.314 248.277 406.148 247.977 405.962 247.656C405.153 246.288 404.014 246.163 404.2 247.241C404.2 247.417 404.262 247.614 404.304 247.832C404.231 247.718 404.169 247.593 404.096 247.469C403.257 246.049 402.086 245.935 402.283 247.044C402.376 247.593 402.501 248.412 402.656 249.117L402.48 248.795C401.848 247.759 400.957 247.635 401.102 248.474C401.197 249.459 401.431 250.425 401.796 251.345C401.847 251.397 401.903 251.446 401.962 251.49C401.962 251.49 403.216 252.775 403.578 253.034C403.995 253.319 404.469 253.51 404.967 253.593C405.393 253.853 405.87 254.016 406.366 254.07C406.739 254.041 407.108 253.968 407.464 253.852C407.798 253.98 408.146 254.063 408.501 254.101C409.022 254.112 409.539 254.005 410.013 253.79C410.672 253.826 411.331 253.745 411.962 253.552C412.541 253.169 413.009 252.64 413.319 252.018C412.708 251.774 412.077 251.583 411.433 251.448Z" fill="#FFA49A"/>
<path d="M147.524 78.082H95.4833C95.2587 78.082 95.0364 78.0378 94.8289 77.9519C94.6215 77.8659 94.433 77.74 94.2742 77.5812C94.1155 77.4224 93.9895 77.234 93.9036 77.0265C93.8177 76.8191 93.7734 76.5967 93.7734 76.3722C93.7734 75.9187 93.9536 75.4838 94.2742 75.1631C94.5949 74.8425 95.0298 74.6624 95.4833 74.6624H147.524C147.973 74.6678 148.402 74.8507 148.716 75.1711C149.031 75.4914 149.206 75.9232 149.203 76.3722C149.206 76.8211 149.031 77.2529 148.716 77.5733C148.402 77.8937 147.973 78.0765 147.524 78.082Z" fill="url(#paint49_linear_3121_3918)"/>
<path d="M130.167 84.683H95.4833C95.0298 84.683 94.5949 84.5029 94.2742 84.1822C93.9536 83.8616 93.7734 83.4267 93.7734 82.9732C93.7734 82.7491 93.8177 82.5273 93.9038 82.3204C93.9898 82.1136 94.1159 81.9257 94.2749 81.7678C94.4338 81.6098 94.6223 81.4849 94.8297 81.4001C95.0371 81.3153 95.2592 81.2723 95.4833 81.2737H130.167C130.39 81.2723 130.612 81.3154 130.819 81.4003C131.026 81.4852 131.214 81.6103 131.372 81.7684C131.53 81.9265 131.655 82.1144 131.74 82.3212C131.825 82.528 131.868 82.7496 131.866 82.9732C131.868 83.1972 131.825 83.4193 131.74 83.6267C131.655 83.8341 131.53 84.0227 131.372 84.1816C131.214 84.3405 131.027 84.4666 130.82 84.5527C130.613 84.6387 130.391 84.683 130.167 84.683Z" fill="url(#paint50_linear_3121_3918)"/>
<path d="M102.706 91.2944H95.452C94.9985 91.2944 94.5636 91.1143 94.243 90.7936C93.9223 90.473 93.7422 90.0381 93.7422 89.5846C93.7422 89.36 93.7864 89.1377 93.8723 88.9303C93.9583 88.7228 94.0842 88.5343 94.243 88.3755C94.4018 88.2168 94.5902 88.0908 94.7977 88.0049C95.0051 87.919 95.2275 87.8748 95.452 87.8748H102.706C102.93 87.8748 103.152 87.919 103.359 88.0051C103.565 88.0912 103.753 88.2173 103.911 88.3762C104.069 88.5351 104.194 88.7237 104.279 88.931C104.364 89.1384 104.407 89.3605 104.405 89.5846C104.407 89.8086 104.364 90.0307 104.279 90.2381C104.194 90.4455 104.069 90.6341 103.911 90.793C103.753 90.9519 103.565 91.078 103.359 91.1641C103.152 91.2501 102.93 91.2944 102.706 91.2944Z" fill="url(#paint51_linear_3121_3918)"/>
<path d="M147.521 91.2944H108.921C108.467 91.2944 108.032 91.1143 107.712 90.7936C107.391 90.473 107.211 90.0381 107.211 89.5846C107.211 89.36 107.255 89.1377 107.341 88.9303C107.427 88.7228 107.553 88.5343 107.712 88.3755C107.871 88.2168 108.059 88.0908 108.266 88.0049C108.474 87.919 108.696 87.8748 108.921 87.8748H147.521C147.97 87.8802 148.399 88.0631 148.713 88.3835C149.028 88.7038 149.203 89.1356 149.2 89.5846C149.203 90.0335 149.028 90.4653 148.713 90.7857C148.399 91.1061 147.97 91.2889 147.521 91.2944Z" fill="url(#paint52_linear_3121_3918)"/>
<path d="M147.528 84.683H136.046C135.821 84.683 135.599 84.6388 135.391 84.5529C135.184 84.4669 134.996 84.341 134.837 84.1822C134.678 84.0234 134.552 83.8349 134.466 83.6275C134.38 83.4201 134.336 83.1977 134.336 82.9732C134.336 82.7491 134.38 82.5273 134.466 82.3204C134.552 82.1136 134.678 81.9257 134.837 81.7678C134.996 81.6098 135.185 81.4849 135.392 81.4001C135.6 81.3153 135.822 81.2723 136.046 81.2737H147.528C147.749 81.2751 147.969 81.3201 148.173 81.4062C148.378 81.4924 148.563 81.6179 148.719 81.7758C148.875 81.9336 148.998 82.1205 149.082 82.326C149.165 82.5314 149.208 82.7514 149.206 82.9732C149.209 83.4221 149.034 83.8539 148.72 84.1743C148.405 84.4947 147.976 84.6775 147.528 84.683Z" fill="url(#paint53_linear_3121_3918)"/>
<path d="M273.38 282.225H229.981C226.359 282.225 223.422 285.162 223.422 288.785V314.629C223.422 318.252 226.359 321.189 229.981 321.189H273.38C277.003 321.189 279.94 318.252 279.94 314.629V288.785C279.94 285.162 277.003 282.225 273.38 282.225Z" fill="url(#paint54_linear_3121_3918)"/>
<path d="M247.41 294.122L256.736 299.51C257.122 299.732 257.442 300.051 257.664 300.436C257.887 300.821 258.004 301.257 258.004 301.702C258.004 302.146 257.887 302.583 257.664 302.968C257.442 303.353 257.122 303.672 256.736 303.894L247.41 309.282C247.026 309.504 246.59 309.621 246.146 309.621C245.703 309.621 245.267 309.505 244.883 309.283C244.499 309.061 244.179 308.743 243.957 308.359C243.735 307.975 243.618 307.539 243.617 307.096V296.319C243.616 295.874 243.732 295.437 243.953 295.052C244.175 294.666 244.494 294.346 244.878 294.123C245.263 293.901 245.699 293.783 246.144 293.783C246.588 293.783 247.025 293.899 247.41 294.122Z" fill="white"/>
<path d="M154.277 141.47H93.697C89.1872 141.47 85.5312 145.126 85.5312 149.636V164.081C85.5312 168.591 89.1872 172.247 93.697 172.247H154.277C158.787 172.247 162.443 168.591 162.443 164.081V149.636C162.443 145.126 158.787 141.47 154.277 141.47Z" fill="white"/>
<path d="M97.2141 151.004C98.5361 151.004 99.6078 149.932 99.6078 148.61C99.6078 147.288 98.5361 146.216 97.2141 146.216C95.892 146.216 94.8203 147.288 94.8203 148.61C94.8203 149.932 95.892 151.004 97.2141 151.004Z" fill="url(#paint55_linear_3121_3918)"/>
<path d="M97.2141 159.252C98.5361 159.252 99.6078 158.181 99.6078 156.859C99.6078 155.537 98.5361 154.465 97.2141 154.465C95.892 154.465 94.8203 155.537 94.8203 156.859C94.8203 158.181 95.892 159.252 97.2141 159.252Z" fill="url(#paint56_linear_3121_3918)"/>
<path d="M97.2141 167.501C98.5361 167.501 99.6078 166.429 99.6078 165.107C99.6078 163.785 98.5361 162.713 97.2141 162.713C95.892 162.713 94.8203 163.785 94.8203 165.107C94.8203 166.429 95.892 167.501 97.2141 167.501Z" fill="url(#paint57_linear_3121_3918)"/>
<path d="M151.17 149.128H103.885C103.748 149.128 103.616 149.073 103.519 148.976C103.422 148.879 103.367 148.747 103.367 148.61C103.367 148.473 103.422 148.341 103.519 148.244C103.616 148.146 103.748 148.092 103.885 148.092H151.17C151.307 148.092 151.439 148.146 151.536 148.244C151.633 148.341 151.688 148.473 151.688 148.61C151.688 148.747 151.633 148.879 151.536 148.976C151.439 149.073 151.307 149.128 151.17 149.128Z" fill="url(#paint58_linear_3121_3918)"/>
<path d="M151.17 157.377H103.885C103.748 157.377 103.616 157.322 103.519 157.225C103.422 157.128 103.367 156.996 103.367 156.858C103.367 156.721 103.422 156.589 103.519 156.492C103.616 156.395 103.748 156.34 103.885 156.34H151.17C151.307 156.34 151.439 156.395 151.536 156.492C151.633 156.589 151.688 156.721 151.688 156.858C151.688 156.996 151.633 157.128 151.536 157.225C151.439 157.322 151.307 157.377 151.17 157.377Z" fill="url(#paint59_linear_3121_3918)"/>
<path d="M123.968 165.625H103.885C103.748 165.625 103.616 165.571 103.519 165.473C103.422 165.376 103.367 165.244 103.367 165.107C103.37 164.97 103.425 164.84 103.522 164.744C103.618 164.647 103.749 164.592 103.885 164.589H123.968C124.105 164.592 124.235 164.647 124.331 164.744C124.428 164.84 124.484 164.97 124.486 165.107C124.486 165.244 124.432 165.376 124.334 165.473C124.237 165.571 124.105 165.625 123.968 165.625Z" fill="url(#paint60_linear_3121_3918)"/>
<path d="M211.512 367.769H135.347C133.779 367.769 132.508 369.04 132.508 370.608V384.193C132.508 385.761 133.779 387.033 135.347 387.033H211.512C213.08 387.033 214.352 385.761 214.352 384.193V370.608C214.352 369.04 213.08 367.769 211.512 367.769Z" fill="url(#paint61_linear_3121_3918)"/>
<path d="M143.639 372.059H138.602C137.864 372.059 137.266 372.657 137.266 373.396V381.416C137.266 382.155 137.864 382.753 138.602 382.753H143.639C144.377 382.753 144.975 382.155 144.975 381.416V373.396C144.975 372.657 144.377 372.059 143.639 372.059Z" fill="url(#paint62_linear_3121_3918)"/>
<path d="M153.443 372.059H148.407C147.669 372.059 147.07 372.657 147.07 373.396V381.416C147.07 382.155 147.669 382.753 148.407 382.753H153.443C154.182 382.753 154.78 382.155 154.78 381.416V373.396C154.78 372.657 154.182 372.059 153.443 372.059Z" fill="url(#paint63_linear_3121_3918)"/>
<path d="M184.025 372.059H158.212C157.474 372.059 156.875 372.657 156.875 373.396V381.416C156.875 382.155 157.474 382.753 158.212 382.753H184.025C184.763 382.753 185.362 382.155 185.362 381.416V373.396C185.362 372.657 184.763 372.059 184.025 372.059Z" fill="white"/>
<path d="M193.609 377.427C193.609 377.97 193.448 378.501 193.147 378.952C192.845 379.404 192.416 379.756 191.914 379.964C191.412 380.172 190.86 380.226 190.328 380.12C189.795 380.014 189.306 379.753 188.922 379.369C188.537 378.984 188.276 378.495 188.17 377.962C188.064 377.43 188.118 376.878 188.326 376.376C188.534 375.874 188.886 375.445 189.338 375.143C189.789 374.842 190.32 374.681 190.863 374.681C191.592 374.681 192.29 374.97 192.805 375.485C193.32 376 193.609 376.698 193.609 377.427Z" fill="url(#paint64_linear_3121_3918)"/>
<path d="M201.109 377.426C201.107 377.969 200.945 378.499 200.642 378.949C200.339 379.399 199.909 379.75 199.407 379.956C198.905 380.162 198.353 380.215 197.821 380.108C197.289 380.001 196.801 379.739 196.418 379.354C196.035 378.97 195.774 378.48 195.669 377.948C195.564 377.416 195.619 376.864 195.827 376.363C196.035 375.862 196.387 375.433 196.839 375.132C197.29 374.831 197.821 374.67 198.363 374.67C198.725 374.67 199.083 374.741 199.417 374.88C199.75 375.019 200.054 375.222 200.309 375.478C200.564 375.734 200.766 376.038 200.903 376.372C201.041 376.707 201.111 377.065 201.109 377.426Z" fill="white"/>
<path d="M208.716 376.214H203.607C203.121 376.214 202.727 376.609 202.727 377.095V377.727C202.727 378.214 203.121 378.608 203.607 378.608H208.716C209.203 378.608 209.597 378.214 209.597 377.727V377.095C209.597 376.609 209.203 376.214 208.716 376.214Z" fill="url(#paint65_linear_3121_3918)"/>
<path d="M147.998 387.043H141.117V389.333H147.998V387.043Z" fill="url(#paint66_linear_3121_3918)"/>
<path d="M206.17 387.043H199.289V389.333H206.17V387.043Z" fill="url(#paint67_linear_3121_3918)"/>
<path d="M211.512 346.214H135.347C133.779 346.214 132.508 347.486 132.508 349.054V362.639C132.508 364.207 133.779 365.478 135.347 365.478H211.512C213.08 365.478 214.352 364.207 214.352 362.639V349.054C214.352 347.486 213.08 346.214 211.512 346.214Z" fill="url(#paint68_linear_3121_3918)"/>
<path d="M143.639 350.494H138.602C137.864 350.494 137.266 351.093 137.266 351.831V359.852C137.266 360.59 137.864 361.188 138.602 361.188H143.639C144.377 361.188 144.975 360.59 144.975 359.852V351.831C144.975 351.093 144.377 350.494 143.639 350.494Z" fill="url(#paint69_linear_3121_3918)"/>
<path d="M153.443 350.494H148.407C147.669 350.494 147.07 351.093 147.07 351.831V359.852C147.07 360.59 147.669 361.188 148.407 361.188H153.443C154.182 361.188 154.78 360.59 154.78 359.852V351.831C154.78 351.093 154.182 350.494 153.443 350.494Z" fill="white"/>
<path d="M184.025 350.494H158.212C157.474 350.494 156.875 351.093 156.875 351.831V359.852C156.875 360.59 157.474 361.188 158.212 361.188H184.025C184.763 361.188 185.362 360.59 185.362 359.852V351.831C185.362 351.093 184.763 350.494 184.025 350.494Z" fill="white"/>
<path d="M193.609 355.862C193.609 356.405 193.448 356.936 193.147 357.388C192.845 357.839 192.416 358.191 191.914 358.399C191.412 358.607 190.86 358.661 190.328 358.555C189.795 358.449 189.306 358.188 188.922 357.804C188.537 357.42 188.276 356.931 188.17 356.398C188.064 355.865 188.118 355.313 188.326 354.811C188.534 354.309 188.886 353.881 189.338 353.579C189.789 353.277 190.32 353.116 190.863 353.116C191.224 353.115 191.582 353.185 191.916 353.322C192.25 353.46 192.553 353.662 192.808 353.917C193.063 354.173 193.266 354.476 193.403 354.81C193.541 355.143 193.611 355.501 193.609 355.862Z" fill="url(#paint70_linear_3121_3918)"/>
<path d="M201.109 355.862C201.109 356.405 200.948 356.936 200.647 357.388C200.345 357.839 199.916 358.191 199.414 358.399C198.912 358.607 198.36 358.661 197.828 358.555C197.295 358.449 196.806 358.188 196.422 357.804C196.037 357.42 195.776 356.931 195.67 356.398C195.564 355.865 195.618 355.313 195.826 354.811C196.034 354.309 196.386 353.881 196.838 353.579C197.289 353.277 197.82 353.116 198.363 353.116C198.724 353.115 199.082 353.185 199.416 353.322C199.75 353.46 200.053 353.662 200.308 353.917C200.563 354.173 200.766 354.476 200.903 354.81C201.041 355.143 201.111 355.501 201.109 355.862Z" fill="url(#paint71_linear_3121_3918)"/>
<path d="M208.716 354.65H203.607C203.121 354.65 202.727 355.044 202.727 355.53V356.163C202.727 356.649 203.121 357.043 203.607 357.043H208.716C209.203 357.043 209.597 356.649 209.597 356.163V355.53C209.597 355.044 209.203 354.65 208.716 354.65Z" fill="white"/>
<path d="M147.998 365.479H141.117V367.769H147.998V365.479Z" fill="url(#paint72_linear_3121_3918)"/>
<path d="M206.17 365.479H199.289V367.769H206.17V365.479Z" fill="url(#paint73_linear_3121_3918)"/>
<path d="M10.6016 389.82H548.939" stroke="#232230" stroke-linecap="round" stroke-linejoin="round"/>
<path fill-rule="evenodd" clip-rule="evenodd" d="M495.954 27.4553C495.984 27.5697 496 27.6879 496 27.8071V46.2667C496 46.5036 495.939 46.7362 495.822 46.9411C495.706 47.1456 495.539 47.3157 495.336 47.4341L480.128 56.3543V74.0351C480.129 74.2707 480.068 74.5023 479.952 74.7072C479.837 74.912 479.669 75.0829 479.468 75.203L447.722 93.8208C447.65 93.8627 447.57 93.8896 447.491 93.9183C447.461 93.9287 447.433 93.947 447.402 93.9555C447.18 94.0148 446.947 94.0148 446.725 93.9555C446.689 93.9452 446.655 93.9249 446.621 93.9117C446.548 93.8849 446.472 93.8613 446.403 93.8208L414.664 75.203C414.462 75.0842 414.294 74.9142 414.178 74.7099C414.061 74.5043 414 74.2717 414 74.0351V18.6561C414 18.5346 414.016 18.4169 414.046 18.3029C414.056 18.2639 414.079 18.2285 414.092 18.1899C414.117 18.1193 414.14 18.0472 414.177 17.9813C414.202 17.9375 414.238 17.9022 414.268 17.8622C414.305 17.808 414.34 17.7524 414.385 17.7053C414.422 17.6667 414.472 17.638 414.515 17.6046C414.563 17.5641 414.606 17.5203 414.66 17.4882H414.662L430.532 8.17955C430.732 8.06196 430.96 8 431.192 8C431.425 8 431.653 8.06196 431.853 8.17955L447.724 17.4882H447.727C447.779 17.5222 447.824 17.5641 447.872 17.6027C447.915 17.6366 447.963 17.6667 448.001 17.7039C448.047 17.7524 448.08 17.808 448.12 17.8622C448.148 17.9022 448.186 17.9375 448.209 17.9813C448.247 18.0486 448.268 18.1193 448.295 18.1899C448.308 18.2285 448.331 18.2639 448.341 18.3044C448.371 18.4193 448.387 18.5375 448.387 18.6561V53.2453L461.612 45.4878V27.8047C461.612 27.687 461.628 27.5679 461.658 27.4553C461.67 27.4148 461.691 27.3795 461.705 27.3409C461.731 27.2702 461.754 27.1977 461.79 27.1322C461.815 27.0885 461.851 27.0531 461.879 27.0126C461.919 26.9589 461.952 26.9034 461.998 26.8563C462.036 26.8177 462.084 26.7889 462.127 26.755C462.177 26.715 462.22 26.6712 462.273 26.6392H462.275L478.146 17.33C478.347 17.2122 478.575 17.1501 478.807 17.1501C479.039 17.1501 479.267 17.2122 479.467 17.33L495.338 26.6392C495.394 26.6731 495.437 26.7145 495.486 26.7536C495.528 26.7871 495.575 26.8177 495.613 26.8544C495.66 26.9034 495.693 26.9589 495.732 27.0126C495.762 27.0531 495.798 27.088 495.821 27.1322C495.859 27.1982 495.881 27.2702 495.907 27.3409C495.922 27.3795 495.944 27.4148 495.954 27.4553ZM493.354 45.4878V30.1372L487.8 33.3941L480.128 37.8947V53.2453L493.355 45.4878H493.354ZM477.484 73.2562V57.8957L469.937 62.287L448.385 74.8177V90.3228L477.484 73.2562ZM416.645 20.9863V73.2562L445.74 90.3214V74.8192L430.541 66.0553L430.536 66.052L430.529 66.0487C430.478 66.0186 430.435 65.9748 430.387 65.9376C430.346 65.9041 430.298 65.8773 430.262 65.8401L430.259 65.8354C430.215 65.793 430.185 65.7412 430.149 65.6936C430.117 65.6484 430.077 65.6098 430.05 65.5627L430.049 65.5575C430.019 65.5072 430 65.4464 429.979 65.3894C429.958 65.339 429.929 65.2919 429.916 65.2378V65.2359C429.9 65.1723 429.897 65.105 429.89 65.0391C429.883 64.9887 429.87 64.9383 429.87 64.8879V28.7442L422.199 24.2417L416.645 20.9877V20.9863ZM431.195 10.9015L417.972 18.6566L431.191 26.4108L444.413 18.6547L431.191 10.9019L431.195 10.9015ZM438.071 59.2952L445.742 54.7965V20.9863L440.188 24.2436L432.516 28.7437V62.5545L438.071 59.2952ZM478.807 20.0524L465.586 27.8071L478.807 35.5613L492.027 27.8052L478.807 20.0524ZM477.484 37.8947L469.812 33.3941L464.258 30.1372V45.4878L471.929 49.9865L477.484 53.2453V37.8947ZM447.062 72.4876L466.454 61.2081L476.148 55.5721L462.937 47.8226L447.725 56.7447L433.862 64.8761L447.062 72.4876Z" fill="#FF2D20"/>
<path fill-rule="evenodd" clip-rule="evenodd" d="M89.9541 191.455C89.9841 191.57 90 191.688 90 191.807V210.267C90 210.504 89.9386 210.736 89.8224 210.941C89.7064 211.146 89.5387 211.316 89.3363 211.434L74.1282 220.354V238.035C74.1288 238.271 74.0682 238.502 73.9524 238.707C73.8366 238.912 73.6695 239.083 73.4677 239.203L41.7222 257.821C41.6495 257.863 41.5703 257.89 41.4911 257.918C41.4611 257.929 41.4334 257.947 41.402 257.956C41.1801 258.015 40.9466 258.015 40.7247 257.956C40.6886 257.945 40.6554 257.925 40.6207 257.912C40.548 257.885 40.4721 257.861 40.4027 257.821L8.66371 239.203C8.46161 239.084 8.29415 238.914 8.17811 238.71C8.06141 238.504 8.00002 238.272 8 238.035V182.656C8 182.535 8.0164 182.417 8.0464 182.303C8.05578 182.264 8.07921 182.229 8.09234 182.19C8.11718 182.119 8.14015 182.047 8.17671 181.981C8.20155 181.938 8.23764 181.902 8.26764 181.862C8.30514 181.808 8.34029 181.752 8.38482 181.705C8.42232 181.667 8.47247 181.638 8.51512 181.605C8.56293 181.564 8.60606 181.52 8.66043 181.488H8.6623L24.5318 172.18C24.7323 172.062 24.9603 172 25.1925 172C25.4246 172 25.6526 172.062 25.8531 172.18L41.7236 181.488H41.7269C41.7793 181.522 41.8243 181.564 41.8722 181.603C41.9148 181.637 41.9626 181.667 42.0006 181.704C42.047 181.752 42.0803 181.808 42.1196 181.862C42.1478 181.902 42.1857 181.938 42.2087 181.981C42.2467 182.049 42.2682 182.119 42.2949 182.19C42.3081 182.229 42.331 182.264 42.3409 182.304C42.3713 182.419 42.3868 182.537 42.3873 182.656V217.245L55.6118 209.488V191.805C55.6118 191.687 55.6282 191.568 55.6582 191.455C55.6699 191.415 55.691 191.379 55.7046 191.341C55.7308 191.27 55.7538 191.198 55.7904 191.132C55.8152 191.088 55.8513 191.053 55.8794 191.013C55.9193 190.959 55.9521 190.903 55.9985 190.856C56.0364 190.818 56.0843 190.789 56.1274 190.755C56.1766 190.715 56.2197 190.671 56.2727 190.639H56.2746L72.1464 181.33C72.3467 181.212 72.5747 181.15 72.8068 181.15C73.039 181.15 73.2669 181.212 73.4673 181.33L89.3377 190.639C89.3939 190.673 89.4366 190.715 89.4863 190.754C89.5275 190.787 89.5753 190.818 89.6133 190.854C89.6597 190.903 89.6925 190.959 89.7324 191.013C89.7619 191.053 89.7985 191.088 89.8214 191.132C89.8594 191.198 89.8809 191.27 89.9072 191.341C89.9222 191.379 89.9442 191.415 89.9541 191.455ZM87.3541 209.488V194.137L81.8002 197.394L74.1277 201.895V217.245L87.3555 209.488H87.3541ZM71.4836 237.256V221.896L63.9367 226.287L42.3854 238.818V254.323L71.4836 237.256ZM10.6455 184.986V237.256L39.7404 254.321V238.819L24.5407 230.055L24.536 230.052L24.529 230.049C24.4779 230.019 24.4352 229.975 24.387 229.938C24.3457 229.904 24.2979 229.877 24.2618 229.84L24.2585 229.835C24.2154 229.793 24.1854 229.741 24.1493 229.694C24.1165 229.648 24.0767 229.61 24.0504 229.563L24.0486 229.558C24.0186 229.507 24.0003 229.446 23.9792 229.389C23.9576 229.339 23.9295 229.292 23.9164 229.238V229.236C23.9 229.172 23.8967 229.105 23.8897 229.039C23.8831 228.989 23.87 228.938 23.87 228.888V192.744L16.1993 188.242L10.6455 184.988V184.986ZM25.1946 174.901L11.9719 182.657L25.1913 190.411L38.4125 182.655L25.1913 174.902L25.1946 174.901ZM32.0712 223.295L39.7423 218.797V184.986L34.1879 188.244L26.5159 192.744V226.554L32.0712 223.295ZM72.8073 184.052L59.5856 191.807L72.8073 199.561L86.0266 191.805L72.8073 184.052ZM71.4841 201.895L63.8116 197.394L58.2582 194.137V209.488L65.9288 213.987L71.4841 217.245V201.895ZM41.0617 236.488L60.4541 225.208L70.1482 219.572L56.9369 211.823L41.7254 220.745L27.8616 228.876L41.0617 236.488Z" fill="#FF2D20"/>
<path d="M193.767 232L220.987 170.337H238.164L265.472 232H247.325L226.008 178.882H232.879L211.561 232H193.767ZM208.654 220.02L213.147 207.159H243.273L247.766 220.02H208.654ZM270.417 232V170.337H298.606C304.243 170.337 309.088 171.247 313.14 173.068C317.251 174.888 320.422 177.531 322.654 180.996C324.886 184.402 326.002 188.454 326.002 193.152C326.002 197.792 324.886 201.814 322.654 205.221C320.422 208.627 317.251 211.269 313.14 213.149C309.088 214.969 304.243 215.88 298.606 215.88H280.107L287.859 208.304V232H270.417ZM287.859 210.154L280.107 202.137H297.548C301.19 202.137 303.891 201.345 305.653 199.759C307.473 198.173 308.384 195.971 308.384 193.152C308.384 190.275 307.473 188.043 305.653 186.457C303.891 184.872 301.19 184.079 297.548 184.079H280.107L287.859 176.063V210.154ZM334.506 232V170.337H351.947V232H334.506Z" fill="#0E2B5C"/>
<defs>
<linearGradient id="paint0_linear_3121_3918" x1="264.825" y1="4.58014" x2="264.825" y2="399.769" gradientUnits="userSpaceOnUse">
<stop stop-color="#DFEDF2"/>
<stop offset="1" stop-color="#E8F8FF"/>
</linearGradient>
<linearGradient id="paint1_linear_3121_3918" x1="87.7675" y1="-269.374" x2="87.7675" y2="127.431" gradientUnits="userSpaceOnUse">
<stop stop-color="#DFEDF2"/>
<stop offset="1" stop-color="#E8F8FF"/>
</linearGradient>
<linearGradient id="paint2_linear_3121_3918" x1="470.56" y1="29.4296" x2="470.56" y2="215.107" gradientUnits="userSpaceOnUse">
<stop stop-color="#DFEDF2"/>
<stop offset="1" stop-color="#E8F8FF"/>
</linearGradient>
<linearGradient id="paint3_linear_3121_3918" x1="523.112" y1="369.623" x2="538.397" y2="353.302" gradientUnits="userSpaceOnUse">
<stop stop-color="#DFEDF2"/>
<stop offset="1" stop-color="#E8F8FF"/>
</linearGradient>
<linearGradient id="paint4_linear_3121_3918" x1="396.088" y1="144.579" x2="295.913" y2="46.4761" gradientUnits="userSpaceOnUse">
<stop stop-color="#3949B2"/>
<stop offset="1" stop-color="#5CA5F7"/>
</linearGradient>
<linearGradient id="paint5_linear_3121_3918" x1="252.992" y1="343.085" x2="306.546" y2="343.085" gradientUnits="userSpaceOnUse">
<stop stop-color="#CBE1F2"/>
<stop offset="1" stop-color="#AED2ED"/>
</linearGradient>
<linearGradient id="paint6_linear_3121_3918" x1="174.071" y1="203.646" x2="385.478" y2="203.646" gradientUnits="userSpaceOnUse">
<stop stop-color="#71D2F9"/>
<stop offset="1" stop-color="#51B9F8"/>
</linearGradient>
<linearGradient id="paint7_linear_3121_3918" x1="93.7718" y1="274.878" x2="93.7718" y2="373.966" gradientUnits="userSpaceOnUse">
<stop stop-color="#71D2F9"/>
<stop offset="1" stop-color="#51B9F8"/>
</linearGradient>
<linearGradient id="paint8_linear_3121_3918" x1="93.7753" y1="388.162" x2="93.7753" y2="375.976" gradientUnits="userSpaceOnUse">
<stop stop-color="#CBE1F2"/>
<stop offset="1" stop-color="#AED2ED"/>
</linearGradient>
<linearGradient id="paint9_linear_3121_3918" x1="93.7749" y1="382.484" x2="93.7749" y2="258.08" gradientUnits="userSpaceOnUse">
<stop stop-color="#DFEDF2"/>
<stop offset="1" stop-color="#E8F8FF"/>
</linearGradient>
<linearGradient id="paint10_linear_3121_3918" x1="104.711" y1="382.484" x2="104.711" y2="258.08" gradientUnits="userSpaceOnUse">
<stop stop-color="#DFEDF2"/>
<stop offset="1" stop-color="#E8F8FF"/>
</linearGradient>
<linearGradient id="paint11_linear_3121_3918" x1="93.7696" y1="355.458" x2="93.7696" y2="302.816" gradientUnits="userSpaceOnUse">
<stop stop-color="#DFEDF2"/>
<stop offset="1" stop-color="#E8F8FF"/>
</linearGradient>
<linearGradient id="paint12_linear_3121_3918" x1="93.5071" y1="351.572" x2="93.5071" y2="277.189" gradientUnits="userSpaceOnUse">
<stop stop-color="#283770"/>
<stop offset="1" stop-color="#141A5A"/>
</linearGradient>
<linearGradient id="paint13_linear_3121_3918" x1="440.149" y1="304.888" x2="440.149" y2="378.981" gradientUnits="userSpaceOnUse">
<stop stop-color="#71D2F9"/>
<stop offset="1" stop-color="#51B9F8"/>
</linearGradient>
<linearGradient id="paint14_linear_3121_3918" x1="59.1277" y1="74.2374" x2="187.52" y2="74.2374" gradientUnits="userSpaceOnUse">
<stop stop-color="#71D2F9"/>
<stop offset="1" stop-color="#51B9F8"/>
</linearGradient>
<linearGradient id="paint15_linear_3121_3918" x1="-nan" y1="-nan" x2="-nan" y2="-nan" gradientUnits="userSpaceOnUse">
<stop stop-color="#71D2F9"/>
<stop offset="1" stop-color="#51B9F8"/>
</linearGradient>
<linearGradient id="paint16_linear_3121_3918" x1="93.2553" y1="238.485" x2="175.161" y2="238.485" gradientUnits="userSpaceOnUse">
<stop stop-color="#71D2F9"/>
<stop offset="1" stop-color="#51B9F8"/>
</linearGradient>
<linearGradient id="paint17_linear_3121_3918" x1="-nan" y1="-nan" x2="-nan" y2="-nan" gradientUnits="userSpaceOnUse">
<stop stop-color="#71D2F9"/>
<stop offset="1" stop-color="#51B9F8"/>
</linearGradient>
<linearGradient id="paint18_linear_3121_3918" x1="171.945" y1="206.102" x2="177.334" y2="206.102" gradientUnits="userSpaceOnUse">
<stop stop-color="#71D2F9"/>
<stop offset="1" stop-color="#51B9F8"/>
</linearGradient>
<linearGradient id="paint19_linear_3121_3918" x1="89.7656" y1="275.355" x2="97.7966" y2="275.355" gradientUnits="userSpaceOnUse">
<stop stop-color="#71D2F9"/>
<stop offset="1" stop-color="#51B9F8"/>
</linearGradient>
<linearGradient id="paint20_linear_3121_3918" x1="-nan" y1="-nan" x2="-nan" y2="-nan" gradientUnits="userSpaceOnUse">
<stop stop-color="#71D2F9"/>
<stop offset="1" stop-color="#51B9F8"/>
</linearGradient>
<linearGradient id="paint21_linear_3121_3918" x1="228.592" y1="80.2062" x2="228.592" y2="157.895" gradientUnits="userSpaceOnUse">
<stop stop-color="#71D2F9"/>
<stop offset="1" stop-color="#51B9F8"/>
</linearGradient>
<linearGradient id="paint22_linear_3121_3918" x1="-nan" y1="-nan" x2="-nan" y2="-nan" gradientUnits="userSpaceOnUse">
<stop stop-color="#71D2F9"/>
<stop offset="1" stop-color="#51B9F8"/>
</linearGradient>
<linearGradient id="paint23_linear_3121_3918" x1="258.306" y1="154.682" x2="258.306" y2="160.071" gradientUnits="userSpaceOnUse">
<stop stop-color="#71D2F9"/>
<stop offset="1" stop-color="#51B9F8"/>
</linearGradient>
<linearGradient id="paint24_linear_3121_3918" x1="194.26" y1="76.7141" x2="194.26" y2="84.7451" gradientUnits="userSpaceOnUse">
<stop stop-color="#71D2F9"/>
<stop offset="1" stop-color="#51B9F8"/>
</linearGradient>
<linearGradient id="paint25_linear_3121_3918" x1="-nan" y1="-nan" x2="-nan" y2="-nan" gradientUnits="userSpaceOnUse">
<stop stop-color="#71D2F9"/>
<stop offset="1" stop-color="#51B9F8"/>
</linearGradient>
<linearGradient id="paint26_linear_3121_3918" x1="-nan" y1="-nan" x2="-nan" y2="-nan" gradientUnits="userSpaceOnUse">
<stop stop-color="#71D2F9"/>
<stop offset="1" stop-color="#51B9F8"/>
</linearGradient>
<linearGradient id="paint27_linear_3121_3918" x1="-nan" y1="-nan" x2="-nan" y2="-nan" gradientUnits="userSpaceOnUse">
<stop stop-color="#71D2F9"/>
<stop offset="1" stop-color="#51B9F8"/>
</linearGradient>
<linearGradient id="paint28_linear_3121_3918" x1="199.862" y1="333.603" x2="199.862" y2="341.634" gradientUnits="userSpaceOnUse">
<stop stop-color="#71D2F9"/>
<stop offset="1" stop-color="#51B9F8"/>
</linearGradient>
<linearGradient id="paint29_linear_3121_3918" x1="199.647" y1="247.2" x2="199.647" y2="252.599" gradientUnits="userSpaceOnUse">
<stop stop-color="#71D2F9"/>
<stop offset="1" stop-color="#51B9F8"/>
</linearGradient>
<linearGradient id="paint30_linear_3121_3918" x1="-nan" y1="-nan" x2="-nan" y2="-nan" gradientUnits="userSpaceOnUse">
<stop stop-color="#71D2F9"/>
<stop offset="1" stop-color="#51B9F8"/>
</linearGradient>
<linearGradient id="paint31_linear_3121_3918" x1="397.363" y1="183.107" x2="397.363" y2="208.765" gradientUnits="userSpaceOnUse">
<stop stop-color="#71D2F9"/>
<stop offset="1" stop-color="#51B9F8"/>
</linearGradient>
<linearGradient id="paint32_linear_3121_3918" x1="-nan" y1="-nan" x2="-nan" y2="-nan" gradientUnits="userSpaceOnUse">
<stop stop-color="#71D2F9"/>
<stop offset="1" stop-color="#51B9F8"/>
</linearGradient>
<linearGradient id="paint33_linear_3121_3918" x1="405.182" y1="204.237" x2="405.182" y2="212.268" gradientUnits="userSpaceOnUse">
<stop stop-color="#71D2F9"/>
<stop offset="1" stop-color="#51B9F8"/>
</linearGradient>
<linearGradient id="paint34_linear_3121_3918" x1="384.913" y1="180.941" x2="384.913" y2="186.33" gradientUnits="userSpaceOnUse">
<stop stop-color="#71D2F9"/>
<stop offset="1" stop-color="#51B9F8"/>
</linearGradient>
<linearGradient id="paint35_linear_3121_3918" x1="-nan" y1="-nan" x2="-nan" y2="-nan" gradientUnits="userSpaceOnUse">
<stop stop-color="#71D2F9"/>
<stop offset="1" stop-color="#51B9F8"/>
</linearGradient>
<linearGradient id="paint36_linear_3121_3918" x1="353.234" y1="249.386" x2="353.234" y2="367.934" gradientUnits="userSpaceOnUse">
<stop stop-color="#71D2F9"/>
<stop offset="1" stop-color="#51B9F8"/>
</linearGradient>
<linearGradient id="paint37_linear_3121_3918" x1="-nan" y1="-nan" x2="-nan" y2="-nan" gradientUnits="userSpaceOnUse">
<stop stop-color="#71D2F9"/>
<stop offset="1" stop-color="#51B9F8"/>
</linearGradient>
<linearGradient id="paint38_linear_3121_3918" x1="338.608" y1="247.21" x2="338.608" y2="252.599" gradientUnits="userSpaceOnUse">
<stop stop-color="#71D2F9"/>
<stop offset="1" stop-color="#51B9F8"/>
</linearGradient>
<linearGradient id="paint39_linear_3121_3918" x1="370.987" y1="363.396" x2="370.987" y2="371.427" gradientUnits="userSpaceOnUse">
<stop stop-color="#71D2F9"/>
<stop offset="1" stop-color="#51B9F8"/>
</linearGradient>
<linearGradient id="paint40_linear_3121_3918" x1="368.685" y1="129.76" x2="436.384" y2="129.76" gradientUnits="userSpaceOnUse">
<stop stop-color="#71D2F9"/>
<stop offset="1" stop-color="#51B9F8"/>
</linearGradient>
<linearGradient id="paint41_linear_3121_3918" x1="404.269" y1="112.486" x2="404.269" y2="143.47" gradientUnits="userSpaceOnUse">
<stop stop-color="#71D2F9"/>
<stop offset="1" stop-color="#51B9F8"/>
</linearGradient>
<linearGradient id="paint42_linear_3121_3918" x1="388.644" y1="112.486" x2="388.644" y2="143.47" gradientUnits="userSpaceOnUse">
<stop stop-color="#71D2F9"/>
<stop offset="1" stop-color="#51B9F8"/>
</linearGradient>
<linearGradient id="paint43_linear_3121_3918" x1="419.899" y1="112.486" x2="419.899" y2="143.47" gradientUnits="userSpaceOnUse">
<stop stop-color="#71D2F9"/>
<stop offset="1" stop-color="#51B9F8"/>
</linearGradient>
<linearGradient id="paint44_linear_3121_3918" x1="446.391" y1="266.029" x2="446.391" y2="382.442" gradientUnits="userSpaceOnUse">
<stop stop-color="#283770"/>
<stop offset="1" stop-color="#141A5A"/>
</linearGradient>
<linearGradient id="paint45_linear_3121_3918" x1="425.077" y1="195.086" x2="425.077" y2="221.863" gradientUnits="userSpaceOnUse">
<stop stop-color="#49A5F7"/>
<stop offset="1" stop-color="#1C6CEB"/>
</linearGradient>
<linearGradient id="paint46_linear_3121_3918" x1="444.911" y1="195.045" x2="444.911" y2="262.08" gradientUnits="userSpaceOnUse">
<stop stop-color="#49A5F7"/>
<stop offset="1" stop-color="#1C6CEB"/>
</linearGradient>
<linearGradient id="paint47_linear_3121_3918" x1="408.707" y1="207.853" x2="408.707" y2="259.759" gradientUnits="userSpaceOnUse">
<stop stop-color="#71D2F9"/>
<stop offset="1" stop-color="#51B9F8"/>
</linearGradient>
<linearGradient id="paint48_linear_3121_3918" x1="463.875" y1="195.045" x2="463.875" y2="262.08" gradientUnits="userSpaceOnUse">
<stop stop-color="#49A5F7"/>
<stop offset="1" stop-color="#1C6CEB"/>
</linearGradient>
<linearGradient id="paint49_linear_3121_3918" x1="86.9756" y1="64.1132" x2="166.509" y2="92.3514" gradientUnits="userSpaceOnUse">
<stop stop-color="#71D2F9"/>
<stop offset="1" stop-color="#51B9F8"/>
</linearGradient>
<linearGradient id="paint50_linear_3121_3918" x1="83.9186" y1="72.7142" x2="163.452" y2="100.952" gradientUnits="userSpaceOnUse">
<stop stop-color="#71D2F9"/>
<stop offset="1" stop-color="#51B9F8"/>
</linearGradient>
<linearGradient id="paint51_linear_3121_3918" x1="80.3019" y1="82.9111" x2="159.835" y2="111.149" gradientUnits="userSpaceOnUse">
<stop stop-color="#71D2F9"/>
<stop offset="1" stop-color="#51B9F8"/>
</linearGradient>
<linearGradient id="paint52_linear_3121_3918" x1="83.5531" y1="73.7298" x2="163.086" y2="101.968" gradientUnits="userSpaceOnUse">
<stop stop-color="#71D2F9"/>
<stop offset="1" stop-color="#51B9F8"/>
</linearGradient>
<linearGradient id="paint53_linear_3121_3918" x1="87.1653" y1="63.5847" x2="166.698" y2="91.8229" gradientUnits="userSpaceOnUse">
<stop stop-color="#71D2F9"/>
<stop offset="1" stop-color="#51B9F8"/>
</linearGradient>
<linearGradient id="paint54_linear_3121_3918" x1="240.116" y1="287.966" x2="277.774" y2="332.702" gradientUnits="userSpaceOnUse">
<stop stop-color="#71D2F9"/>
<stop offset="1" stop-color="#51B9F8"/>
</linearGradient>
<linearGradient id="paint55_linear_3121_3918" x1="97.2141" y1="169.998" x2="97.2141" y2="146.392" gradientUnits="userSpaceOnUse">
<stop stop-color="#CBE1F2"/>
<stop offset="1" stop-color="#AED2ED"/>
</linearGradient>
<linearGradient id="paint56_linear_3121_3918" x1="97.2141" y1="169.998" x2="97.2141" y2="146.392" gradientUnits="userSpaceOnUse">
<stop stop-color="#CBE1F2"/>
<stop offset="1" stop-color="#AED2ED"/>
</linearGradient>
<linearGradient id="paint57_linear_3121_3918" x1="97.2141" y1="169.998" x2="97.2141" y2="146.392" gradientUnits="userSpaceOnUse">
<stop stop-color="#CBE1F2"/>
<stop offset="1" stop-color="#AED2ED"/>
</linearGradient>
<linearGradient id="paint58_linear_3121_3918" x1="154.714" y1="162.589" x2="109.896" y2="139.532" gradientUnits="userSpaceOnUse">
<stop stop-color="#CBE1F2"/>
<stop offset="1" stop-color="#AED2ED"/>
</linearGradient>
<linearGradient id="paint59_linear_3121_3918" x1="151.356" y1="169.117" x2="106.538" y2="146.061" gradientUnits="userSpaceOnUse">
<stop stop-color="#CBE1F2"/>
<stop offset="1" stop-color="#AED2ED"/>
</linearGradient>
<linearGradient id="paint60_linear_3121_3918" x1="145.149" y1="181.179" x2="100.331" y2="158.123" gradientUnits="userSpaceOnUse">
<stop stop-color="#CBE1F2"/>
<stop offset="1" stop-color="#AED2ED"/>
</linearGradient>
<linearGradient id="paint61_linear_3121_3918" x1="134.114" y1="377.406" x2="229.875" y2="377.406" gradientUnits="userSpaceOnUse">
<stop stop-color="#3949B2"/>
<stop offset="1" stop-color="#5CA5F7"/>
</linearGradient>
<linearGradient id="paint62_linear_3121_3918" x1="141.121" y1="371.727" x2="141.121" y2="381.706" gradientUnits="userSpaceOnUse">
<stop stop-color="#71D2F9"/>
<stop offset="1" stop-color="#51B9F8"/>
</linearGradient>
<linearGradient id="paint63_linear_3121_3918" x1="150.925" y1="371.727" x2="150.925" y2="381.706" gradientUnits="userSpaceOnUse">
<stop stop-color="#71D2F9"/>
<stop offset="1" stop-color="#51B9F8"/>
</linearGradient>
<linearGradient id="paint64_linear_3121_3918" x1="211.236" y1="377.427" x2="139.631" y2="377.427" gradientUnits="userSpaceOnUse">
<stop stop-color="#CBE1F2"/>
<stop offset="1" stop-color="#AED2ED"/>
</linearGradient>
<linearGradient id="paint65_linear_3121_3918" x1="211.234" y1="377.406" x2="139.629" y2="377.406" gradientUnits="userSpaceOnUse">
<stop stop-color="#CBE1F2"/>
<stop offset="1" stop-color="#AED2ED"/>
</linearGradient>
<linearGradient id="paint66_linear_3121_3918" x1="149.677" y1="385.064" x2="141.532" y2="390.038" gradientUnits="userSpaceOnUse">
<stop stop-color="#0B1B6A"/>
<stop offset="1" stop-color="#3949B2"/>
</linearGradient>
<linearGradient id="paint67_linear_3121_3918" x1="207.849" y1="385.064" x2="199.704" y2="390.038" gradientUnits="userSpaceOnUse">
<stop stop-color="#0B1B6A"/>
<stop offset="1" stop-color="#3949B2"/>
</linearGradient>
<linearGradient id="paint68_linear_3121_3918" x1="134.114" y1="355.841" x2="229.875" y2="355.841" gradientUnits="userSpaceOnUse">
<stop stop-color="#3949B2"/>
<stop offset="1" stop-color="#5CA5F7"/>
</linearGradient>
<linearGradient id="paint69_linear_3121_3918" x1="136.53" y1="355.841" x2="160.799" y2="355.841" gradientUnits="userSpaceOnUse">
<stop stop-color="#CBE1F2"/>
<stop offset="1" stop-color="#AED2ED"/>
</linearGradient>
<linearGradient id="paint70_linear_3121_3918" x1="190.863" y1="351.261" x2="190.863" y2="359.043" gradientUnits="userSpaceOnUse">
<stop stop-color="#71D2F9"/>
<stop offset="1" stop-color="#51B9F8"/>
</linearGradient>
<linearGradient id="paint71_linear_3121_3918" x1="198.363" y1="351.261" x2="198.363" y2="359.043" gradientUnits="userSpaceOnUse">
<stop stop-color="#71D2F9"/>
<stop offset="1" stop-color="#51B9F8"/>
</linearGradient>
<linearGradient id="paint72_linear_3121_3918" x1="149.677" y1="363.499" x2="141.532" y2="368.473" gradientUnits="userSpaceOnUse">
<stop stop-color="#0B1B6A"/>
<stop offset="1" stop-color="#3949B2"/>
</linearGradient>
<linearGradient id="paint73_linear_3121_3918" x1="207.849" y1="363.499" x2="199.704" y2="368.473" gradientUnits="userSpaceOnUse">
<stop stop-color="#0B1B6A"/>
<stop offset="1" stop-color="#3949B2"/>
</linearGradient>
</defs>
</svg>
