<svg width="501" height="451" viewBox="0 0 501 451" fill="none" xmlns="http://www.w3.org/2000/svg">
<path d="M401.154 449.254C401.154 449.254 489.949 327.704 434.943 234.282C379.936 140.859 270.641 204.971 249.84 117.792C229.039 30.6127 131.187 17.689 59.1618 126.709C-12.8639 235.729 16.3495 385.702 54.4862 448.975L401.154 449.254Z" fill="#3C94F8" fill-opacity="0.1"/>
<path d="M376.734 144.606C376.734 144.606 380.315 134.291 391.036 134.025C401.756 133.759 397.967 140.367 409.195 139.316C420.424 138.264 416.346 125.557 433.951 122.9C451.556 120.243 458.984 144.606 458.984 144.606H376.734Z" fill="white"/>
<path d="M0 44.5789C0 44.5789 2.39124 37.6478 9.54186 37.5092C16.6925 37.3705 14.1626 41.7487 21.6598 41.044C29.157 40.3394 26.4307 31.8025 38.179 30.0929C49.9272 28.3832 54.883 44.5789 54.883 44.5789H0Z" fill="white"/>
<path d="M278.261 0.00012207H114.49C96.3261 0.00012207 81.6016 14.7247 81.6016 32.8883V417.127C81.6016 435.291 96.3261 450.015 114.49 450.015H278.261C296.425 450.015 311.149 435.291 311.149 417.127V32.8883C311.149 14.7247 296.425 0.00012207 278.261 0.00012207Z" fill="#E5EDFD"/>
<path d="M278.261 11.2632C283.995 11.2663 289.494 13.5456 293.549 17.6004C297.604 21.6553 299.883 27.1539 299.886 32.8883V417.173C299.88 422.907 297.6 428.404 293.545 432.458C289.491 436.512 283.994 438.792 278.261 438.799H114.49C108.756 438.792 103.259 436.512 99.2053 432.458C95.1511 428.404 92.8708 422.907 92.8647 417.173V32.8883C92.8708 27.1549 95.1511 21.658 99.2053 17.6038C103.259 13.5496 108.756 11.2693 114.49 11.2632H278.261ZM278.261 0.000124101H114.49C105.767 0.000124101 97.402 3.46513 91.2343 9.63286C85.0666 15.8006 81.6016 24.1658 81.6016 32.8883V417.173C81.6046 425.894 85.071 434.256 91.2384 440.421C97.4058 446.587 105.769 450.05 114.49 450.05H278.261C282.579 450.052 286.856 449.202 290.846 447.551C294.836 445.899 298.462 443.478 301.516 440.425C304.57 437.372 306.992 433.747 308.645 429.757C310.298 425.768 311.149 421.492 311.149 417.173V32.8883C311.151 28.569 310.301 24.2916 308.649 20.3008C306.996 16.3099 304.574 12.6837 301.52 9.62947C298.465 6.57522 294.839 4.15275 290.848 2.5005C286.858 0.84825 282.58 -0.00139386 278.261 0.000124101Z" fill="#060000"/>
<path d="M247.617 1.13208H145.141V13.0536C145.141 15.5904 146.148 18.0233 147.942 19.8171C149.736 21.6109 152.169 22.6186 154.706 22.6186H238.052C240.589 22.6186 243.022 21.6109 244.816 19.8171C246.61 18.0233 247.617 15.5904 247.617 13.0536V1.13208Z" fill="#060000"/>
<path d="M177.297 10.0618H216.596" stroke="white" stroke-width="0.76" stroke-linecap="round" stroke-linejoin="round"/>
<path d="M237.294 284.5H120.262C115.203 284.5 111.102 288.601 111.102 293.661V391.413C111.102 396.472 115.203 400.573 120.262 400.573H237.294C242.354 400.573 246.455 396.472 246.455 391.413V293.661C246.455 288.601 242.354 284.5 237.294 284.5Z" fill="#9BBDF9"/>
<path d="M160.582 300.742H133.678C131.668 300.742 130.039 302.371 130.039 304.381V331.285C130.039 333.295 131.668 334.924 133.678 334.924H160.582C162.592 334.924 164.221 333.295 164.221 331.285V304.381C164.221 302.371 162.592 300.742 160.582 300.742Z" fill="white"/>
<path d="M175.883 311.531H206.784" stroke="black" stroke-width="1.3" stroke-linecap="round" stroke-linejoin="round"/>
<path d="M175.883 322.529H225.706" stroke="black" stroke-width="1.3" stroke-linecap="round" stroke-linejoin="round"/>
<path d="M130.039 349.156H164.21" stroke="white" stroke-width="1.3" stroke-linecap="round" stroke-linejoin="round"/>
<path d="M130.039 360.511H225.7" stroke="white" stroke-width="1.3" stroke-linecap="round" stroke-linejoin="round"/>
<path d="M130.039 373.022H225.7" stroke="white" stroke-width="1.3" stroke-linecap="round" stroke-linejoin="round"/>
<path d="M60.3935 117.677C63.9072 102.951 54.8177 88.1647 40.0915 84.651C25.3653 81.1373 10.579 90.2268 7.06525 104.953C3.55155 119.679 12.6411 134.465 27.3672 137.979C42.0934 141.493 56.8798 132.403 60.3935 117.677Z" fill="#E66C00"/>
<path d="M22.6875 112.619L31.2937 118.996L46.0339 103.701" stroke="white" stroke-width="2.14" stroke-linecap="round" stroke-linejoin="round"/>
<g filter="url(#filter0_d_3121_3666)">
<path d="M140.806 183.941H49.0267C45.7155 183.941 43.0312 186.625 43.0312 189.936V253.876C43.0312 257.187 45.7155 259.871 49.0267 259.871H140.806C144.118 259.871 146.802 257.187 146.802 253.876V189.936C146.802 186.625 144.118 183.941 140.806 183.941Z" fill="white"/>
</g>
<path d="M275.484 56.6968H117.2C112.14 56.6968 108.039 60.7981 108.039 65.8574V163.609C108.039 168.669 112.14 172.77 117.2 172.77H275.484C280.543 172.77 284.644 168.669 284.644 163.609V65.8574C284.644 60.7981 280.543 56.6968 275.484 56.6968Z" fill="white"/>
<path d="M149.348 84.3635H125.759C123.998 84.3635 122.57 85.791 122.57 87.5518V111.141C122.57 112.902 123.998 114.329 125.759 114.329H149.348C151.108 114.329 152.536 112.902 152.536 111.141V87.5518C152.536 85.791 151.108 84.3635 149.348 84.3635Z" fill="#9BBDF9"/>
<path d="M187.519 84.3635H163.931C162.17 84.3635 160.742 85.791 160.742 87.5518V111.141C160.742 112.902 162.17 114.329 163.931 114.329H187.519C189.28 114.329 190.708 112.902 190.708 111.141V87.5518C190.708 85.791 189.28 84.3635 187.519 84.3635Z" fill="#9BBDF9"/>
<path d="M225.699 84.3635H202.11C200.349 84.3635 198.922 85.791 198.922 87.5518V111.141C198.922 112.902 200.349 114.329 202.11 114.329H225.699C227.46 114.329 228.887 112.902 228.887 111.141V87.5518C228.887 85.791 227.46 84.3635 225.699 84.3635Z" fill="#9BBDF9"/>
<path d="M263.879 84.3635H240.29C238.529 84.3635 237.102 85.791 237.102 87.5518V111.141C237.102 112.902 238.529 114.329 240.29 114.329H263.879C265.64 114.329 267.067 112.902 267.067 111.141V87.5518C267.067 85.791 265.64 84.3635 263.879 84.3635Z" fill="#DC761C"/>
<path d="M149.348 124.795H125.759C123.998 124.795 122.57 126.223 122.57 127.983V151.572C122.57 153.333 123.998 154.761 125.759 154.761H149.348C151.108 154.761 152.536 153.333 152.536 151.572V127.983C152.536 126.223 151.108 124.795 149.348 124.795Z" fill="#9BBDF9"/>
<path d="M187.519 124.795H163.931C162.17 124.795 160.742 126.223 160.742 127.983V151.572C160.742 153.333 162.17 154.761 163.931 154.761H187.519C189.28 154.761 190.708 153.333 190.708 151.572V127.983C190.708 126.223 189.28 124.795 187.519 124.795Z" fill="#9BBDF9"/>
<path d="M225.699 124.795H202.11C200.349 124.795 198.922 126.223 198.922 127.983V151.572C198.922 153.333 200.349 154.761 202.11 154.761H225.699C227.46 154.761 228.887 153.333 228.887 151.572V127.983C228.887 126.223 227.46 124.795 225.699 124.795Z" fill="#9BBDF9"/>
<path d="M263.879 124.795H240.29C238.529 124.795 237.102 126.223 237.102 127.983V151.572C237.102 153.333 238.529 154.761 240.29 154.761H263.879C265.64 154.761 267.067 153.333 267.067 151.572V127.983C267.067 126.223 265.64 124.795 263.879 124.795Z" fill="#9BBDF9"/>
<path d="M278.656 183.941H175.105C171.794 183.941 169.109 186.625 169.109 189.936V253.876C169.109 257.187 171.794 259.871 175.105 259.871H278.656C281.967 259.871 284.651 257.187 284.651 253.876V189.936C284.651 186.625 281.967 183.941 278.656 183.941Z" fill="white"/>
<path d="M268.94 192.558H186.852C185.092 192.558 183.664 193.986 183.664 195.747V206.629C183.664 208.389 185.092 209.817 186.852 209.817H268.94C270.701 209.817 272.128 208.389 272.128 206.629V195.747C272.128 193.986 270.701 192.558 268.94 192.558Z" fill="#9BBDF9"/>
<path d="M184.82 221.126H225.136" stroke="black" stroke-width="1.3" stroke-linecap="round" stroke-linejoin="round"/>
<path d="M184.82 230.945H270.974" stroke="black" stroke-width="1.3" stroke-linecap="round" stroke-linejoin="round"/>
<path d="M184.82 241.77H270.974" stroke="black" stroke-width="1.3" stroke-linecap="round" stroke-linejoin="round"/>
<path d="M334.199 309.209H274.164C270.139 309.209 266.875 312.473 266.875 316.498V368.563C266.875 372.589 270.139 375.852 274.164 375.852H334.199C338.225 375.852 341.489 372.589 341.489 368.563V316.498C341.489 312.473 338.225 309.209 334.199 309.209Z" fill="#E66C00"/>
<path d="M318.953 339.637L316.504 339.21C316.216 338.138 315.788 337.109 315.233 336.148L316.665 334.115C316.929 333.758 317.058 333.319 317.031 332.875C317.003 332.432 316.821 332.012 316.515 331.689L315.037 330.222C314.721 329.915 314.306 329.729 313.867 329.698C313.427 329.666 312.991 329.79 312.634 330.049L310.589 331.481C309.632 330.928 308.607 330.501 307.539 330.211L307.124 327.704C307.044 327.274 306.82 326.885 306.487 326.601C306.155 326.317 305.735 326.156 305.298 326.145H303.184C302.741 326.146 302.312 326.302 301.972 326.587C301.632 326.872 301.403 327.267 301.324 327.704L300.897 330.153C299.831 330.442 298.807 330.865 297.847 331.412L295.722 330.061C295.358 329.808 294.918 329.69 294.477 329.728C294.036 329.766 293.622 329.957 293.307 330.269L291.875 331.689C291.56 332.002 291.366 332.416 291.327 332.858C291.289 333.301 291.41 333.742 291.667 334.104L293.1 336.148C292.544 337.105 292.117 338.13 291.829 339.198L289.391 339.626C288.953 339.702 288.555 339.93 288.268 340.27C287.98 340.61 287.822 341.04 287.82 341.485V343.565C287.822 344.01 287.98 344.44 288.268 344.78C288.555 345.121 288.953 345.349 289.391 345.425L291.829 345.852C292.119 346.919 292.546 347.944 293.1 348.902L291.667 350.935C291.41 351.297 291.289 351.738 291.327 352.18C291.366 352.622 291.56 353.037 291.875 353.349L293.342 354.816C293.655 355.132 294.069 355.326 294.511 355.364C294.953 355.402 295.395 355.282 295.756 355.024L297.79 353.603C298.751 354.155 299.78 354.578 300.851 354.862L301.278 357.311C301.352 357.75 301.58 358.148 301.921 358.434C302.262 358.719 302.693 358.874 303.138 358.871H305.241C305.684 358.87 306.113 358.713 306.453 358.428C306.793 358.143 307.022 357.748 307.1 357.311L307.528 354.862C308.595 354.578 309.621 354.155 310.578 353.603L312.576 355.001C312.938 355.254 313.378 355.37 313.817 355.33C314.257 355.29 314.669 355.096 314.979 354.782L316.457 353.315C316.77 353.003 316.962 352.591 317 352.151C317.038 351.711 316.92 351.273 316.665 350.912L315.233 348.856C315.786 347.898 316.213 346.873 316.504 345.806L318.953 345.367C319.389 345.293 319.786 345.067 320.071 344.728C320.357 344.39 320.513 343.961 320.512 343.519V341.439C320.502 341.004 320.341 340.587 320.056 340.258C319.772 339.929 319.381 339.709 318.953 339.637ZM304.166 349.017C302.877 349.02 301.615 348.639 300.542 347.924C299.469 347.209 298.632 346.192 298.138 345.001C297.643 343.81 297.513 342.499 297.764 341.234C298.015 339.969 298.636 338.807 299.548 337.895C300.46 336.983 301.622 336.362 302.886 336.111C304.151 335.86 305.462 335.99 306.653 336.485C307.844 336.979 308.862 337.816 309.577 338.89C310.292 339.963 310.672 341.224 310.67 342.514C310.671 343.368 310.504 344.214 310.178 345.004C309.852 345.794 309.373 346.512 308.768 347.116C308.164 347.72 307.447 348.199 306.657 348.525C305.867 348.852 305.021 349.019 304.166 349.017Z" fill="white"/>
<path d="M17.3281 449.518H463.231" stroke="black" stroke-width="0.75" stroke-miterlimit="10"/>
<path d="M358.106 76.4503H404.672C407.412 76.4579 410.127 75.9238 412.66 74.8786C415.193 73.8334 417.495 72.2979 419.433 70.3601C421.37 68.4224 422.906 66.1208 423.951 63.5875C424.996 61.0543 425.53 58.3395 425.523 55.5991C425.523 52.8636 424.983 50.155 423.934 47.6285C422.886 45.1019 421.349 42.8071 419.412 40.8755C417.475 38.9439 415.176 37.4135 412.647 36.3719C410.117 35.3304 407.407 34.7981 404.672 34.8057H358.106C352.591 34.8057 347.302 36.9965 343.403 40.896C339.503 44.7955 337.313 50.0844 337.313 55.5991C337.305 58.3346 337.837 61.0447 338.879 63.5742C339.92 66.1036 341.451 68.4027 343.382 70.3396C345.314 72.2766 347.609 73.8134 350.135 74.862C352.662 75.9106 355.37 76.4503 358.106 76.4503Z" fill="#9BBDF9"/>
<path d="M374.5 71.8412L359.39 86.6738L356.641 70.7438L374.5 71.8412Z" fill="#9BBDF9"/>
<path d="M374.407 48.9801C373.366 47.9601 371.961 47.3957 370.503 47.4108C369.046 47.426 367.653 48.0195 366.633 49.061L365.224 50.4934L363.78 49.0725C362.741 48.0477 361.338 47.4774 359.879 47.4872C358.42 47.4969 357.024 48.0859 356 49.1245C354.975 50.1631 354.404 51.5663 354.414 53.0253C354.424 54.4844 355.013 55.8799 356.052 56.9047L361.412 62.1723C361.926 62.6802 362.536 63.0811 363.206 63.3521C363.876 63.6231 364.593 63.7588 365.316 63.7512C366.038 63.7437 366.752 63.5932 367.417 63.3083C368.081 63.0234 368.682 62.6099 369.186 62.0915L374.535 56.8123C375.045 56.2923 375.448 55.676 375.718 54.9991C375.989 54.3223 376.122 53.5984 376.11 52.8696C376.098 52.1408 375.942 51.4216 375.649 50.7539C375.357 50.0862 374.935 49.4832 374.407 48.9801Z" fill="white"/>
<path d="M384.922 50.8284H406.351" stroke="white" stroke-width="1.02" stroke-linecap="round" stroke-linejoin="round"/>
<path d="M384.922 56.7659H396.231" stroke="white" stroke-width="1.02" stroke-linecap="round" stroke-linejoin="round"/>
<path d="M206.06 37.7694H187.175C182.574 37.7694 178.844 41.4995 178.844 46.1009V64.9856C178.844 69.5869 182.574 73.3171 187.175 73.3171H206.06C210.661 73.3171 214.391 69.5869 214.391 64.9856V46.1009C214.391 41.4995 210.661 37.7694 206.06 37.7694Z" fill="#242938"/>
<path fill-rule="evenodd" clip-rule="evenodd" d="M208.818 48.644C208.827 48.6778 208.831 48.7126 208.831 48.7478V54.1909C208.831 54.2607 208.813 54.3293 208.779 54.3897C208.744 54.45 208.695 54.5001 208.635 54.5351L204.129 57.1653V62.3788C204.13 62.4482 204.112 62.5165 204.077 62.5769C204.043 62.6373 203.994 62.6877 203.934 62.7231L194.529 68.2129C194.508 68.2252 194.484 68.2332 194.461 68.2416C194.452 68.2447 194.444 68.2501 194.434 68.2526C194.369 68.2701 194.299 68.2701 194.234 68.2526C194.223 68.2495 194.213 68.2436 194.203 68.2397C194.181 68.2318 194.159 68.2248 194.138 68.2129L184.736 62.7231C184.676 62.6881 184.626 62.638 184.592 62.5777C184.557 62.5171 184.539 62.4485 184.539 62.3788V46.0495C184.539 46.0136 184.544 45.9789 184.553 45.9453C184.556 45.9338 184.563 45.9234 184.566 45.912C184.574 45.8912 184.581 45.8699 184.591 45.8505C184.599 45.8376 184.609 45.8272 184.618 45.8154C184.629 45.7994 184.64 45.783 184.653 45.7691C184.664 45.7577 184.679 45.7493 184.692 45.7394C184.706 45.7275 184.719 45.7145 184.735 45.7051H184.735L189.437 42.9603C189.496 42.9256 189.564 42.9073 189.632 42.9073C189.701 42.9073 189.769 42.9256 189.828 42.9603L194.53 45.7051H194.531C194.546 45.7151 194.559 45.7275 194.574 45.7388C194.586 45.7488 194.6 45.7577 194.612 45.7687C194.625 45.783 194.635 45.7994 194.647 45.8154C194.655 45.8272 194.667 45.8376 194.673 45.8505C194.685 45.8703 194.691 45.8912 194.699 45.912C194.703 45.9234 194.71 45.9338 194.713 45.9457C194.722 45.9796 194.726 46.0145 194.726 46.0495V56.2486L198.644 53.9612V48.7471C198.644 48.7123 198.649 48.6772 198.658 48.644C198.661 48.6321 198.667 48.6217 198.671 48.6103C198.679 48.5895 198.686 48.5681 198.697 48.5488C198.704 48.5359 198.715 48.5254 198.723 48.5135C198.735 48.4977 198.745 48.4813 198.759 48.4674C198.77 48.456 198.784 48.4475 198.797 48.4375C198.811 48.4257 198.824 48.4128 198.84 48.4034H198.84L203.542 45.6584C203.602 45.6237 203.669 45.6054 203.738 45.6054C203.807 45.6054 203.874 45.6237 203.934 45.6584L208.635 48.4034C208.652 48.4134 208.665 48.4256 208.679 48.4371C208.691 48.447 208.706 48.456 208.717 48.4668C208.731 48.4813 208.74 48.4977 208.752 48.5135C208.761 48.5254 208.772 48.5357 208.779 48.5488C208.79 48.5682 208.796 48.5895 208.804 48.6103C208.808 48.6217 208.815 48.6321 208.818 48.644ZM208.048 53.9612V49.4348L206.402 50.3952L204.129 51.7222V56.2486L208.048 53.9612H208.048ZM203.346 62.1491V57.6198L201.11 58.9147L194.726 62.6095V67.1814L203.346 62.1491ZM185.323 46.7365V62.1491L193.942 67.181V62.61L189.439 60.0258L189.438 60.0248L189.436 60.0239C189.421 60.015 189.408 60.0021 189.394 59.9911C189.381 59.9812 189.367 59.9733 189.357 59.9624L189.356 59.961C189.343 59.9485 189.334 59.9332 189.323 59.9192C189.314 59.9058 189.302 59.8945 189.294 59.8806L189.293 59.879C189.285 59.8642 189.279 59.8463 189.273 59.8295C189.266 59.8146 189.258 59.8007 189.254 59.7848V59.7842C189.249 59.7655 189.248 59.7456 189.246 59.7262C189.244 59.7113 189.241 59.6964 189.241 59.6816V49.0241L186.968 47.6965L185.323 46.737V46.7365ZM189.633 43.7629L185.716 46.0496L189.632 48.336L193.549 46.0491L189.632 43.763L189.633 43.7629ZM191.67 58.0325L193.943 56.706V46.7365L192.297 47.697L190.024 49.0239V58.9935L191.67 58.0325ZM203.738 46.4612L199.821 48.7478L203.738 51.0342L207.654 48.7472L203.738 46.4612ZM203.346 51.7222L201.073 50.3952L199.428 49.4348V53.9612L201.7 55.2877L203.346 56.2486V51.7222ZM194.334 61.9225L200.079 58.5965L202.95 56.9347L199.037 54.6496L194.53 57.2804L190.423 59.6781L194.334 61.9225Z" fill="#FF2D20"/>
<path fill-rule="evenodd" clip-rule="evenodd" d="M119.946 206.715C119.965 206.788 119.975 206.863 119.975 206.938V218.622C119.975 218.772 119.937 218.919 119.864 219.049C119.792 219.178 119.687 219.286 119.561 219.361L110.084 225.006V236.197C110.084 236.346 110.047 236.493 109.974 236.623C109.902 236.752 109.798 236.86 109.672 236.936L89.8896 248.72C89.8443 248.747 89.7949 248.764 89.7456 248.782C89.7269 248.789 89.7096 248.8 89.6901 248.806C89.5518 248.843 89.4063 248.843 89.268 248.806C89.2455 248.799 89.2248 248.786 89.2032 248.778C89.1579 248.761 89.1106 248.746 89.0673 248.72L69.2886 236.936C69.1627 236.861 69.0583 236.754 68.986 236.624C68.9133 236.494 68.875 236.347 68.875 236.197V201.146C68.875 201.069 68.8852 200.995 68.9039 200.922C68.9098 200.898 68.9244 200.875 68.9325 200.851C68.948 200.806 68.9623 200.761 68.9851 200.719C69.0006 200.691 69.0231 200.669 69.0418 200.643C69.0652 200.609 69.0871 200.574 69.1148 200.544C69.1382 200.52 69.1694 200.502 69.196 200.48C69.2258 200.455 69.2527 200.427 69.2866 200.407H69.2877L79.1771 194.515C79.302 194.441 79.4441 194.401 79.5888 194.401C79.7335 194.401 79.8756 194.441 80.0005 194.515L89.8904 200.407H89.8925C89.9252 200.428 89.9532 200.455 89.983 200.479C90.0096 200.501 90.0394 200.52 90.0631 200.543C90.092 200.574 90.1127 200.609 90.1373 200.643C90.1548 200.669 90.1785 200.691 90.1928 200.719C90.2164 200.762 90.2299 200.806 90.2465 200.851C90.2547 200.875 90.269 200.898 90.2751 200.923C90.2941 200.996 90.3038 201.071 90.3041 201.146V223.039L98.5451 218.129V206.936C98.5451 206.862 98.5554 206.787 98.5741 206.715C98.5814 206.69 98.5945 206.667 98.603 206.643C98.6193 206.598 98.6336 206.552 98.6564 206.511C98.6719 206.483 98.6944 206.461 98.7119 206.435C98.7368 206.401 98.7572 206.366 98.7861 206.336C98.8098 206.312 98.8396 206.294 98.8664 206.272C98.8971 206.247 98.924 206.219 98.957 206.199H98.9582L108.849 200.307C108.974 200.232 109.116 200.193 109.261 200.193C109.405 200.193 109.547 200.232 109.672 200.307L119.562 206.199C119.597 206.22 119.624 206.246 119.655 206.271C119.68 206.292 119.71 206.312 119.734 206.335C119.763 206.366 119.783 206.401 119.808 206.435C119.826 206.461 119.849 206.483 119.863 206.511C119.887 206.553 119.901 206.598 119.917 206.643C119.926 206.667 119.94 206.69 119.946 206.715ZM118.326 218.129V208.413L114.865 210.474L110.084 213.323V223.039L118.327 218.129H118.326ZM108.436 235.704V225.982L103.733 228.761L90.3029 236.693V246.506L108.436 235.704ZM70.5236 202.621V235.704L88.6546 246.505V236.694L79.1826 231.147L79.1797 231.144L79.1753 231.142C79.1435 231.123 79.1169 231.096 79.0868 231.072C79.0611 231.051 79.0313 231.034 79.0088 231.01L79.0068 231.007C78.9799 230.981 78.9612 230.948 78.9387 230.918C78.9183 230.889 78.8935 230.865 78.8771 230.835L78.8759 230.832C78.8573 230.8 78.8459 230.761 78.8327 230.725C78.8193 230.693 78.8018 230.663 78.7936 230.629V230.628C78.7834 230.588 78.7813 230.545 78.7769 230.503C78.7728 230.471 78.7647 230.44 78.7647 230.408V207.531L73.9846 204.681L70.5236 202.622V202.621ZM79.5901 196.238L71.3502 201.146L79.5881 206.054L87.8271 201.145L79.5881 196.238L79.5901 196.238ZM83.8754 226.868L88.6558 224.021V202.621L85.1945 204.683L80.4135 207.531V228.931L83.8754 226.868ZM109.261 202.03L101.021 206.938L109.261 211.846L117.499 206.937L109.261 202.03ZM108.436 213.323L103.655 210.474L100.194 208.413V218.129L104.974 220.976L108.436 223.039V213.323ZM89.478 235.218L101.563 228.079L107.604 224.511L99.3709 219.606L89.8916 225.254L81.2521 230.4L89.478 235.218Z" fill="#FF2D20"/>
<path fill-rule="evenodd" clip-rule="evenodd" d="M426.535 293.046C426.558 293.136 426.571 293.229 426.571 293.323V307.868C426.571 308.055 426.523 308.238 426.431 308.399C426.34 308.561 426.208 308.695 426.049 308.788L414.1 315.816V329.748C414.1 329.933 414.053 330.116 413.962 330.277C413.871 330.439 413.739 330.573 413.581 330.668L388.637 345.338C388.58 345.371 388.518 345.392 388.456 345.415C388.432 345.423 388.41 345.437 388.386 345.444C388.211 345.491 388.028 345.491 387.854 345.444C387.825 345.436 387.799 345.42 387.772 345.409C387.715 345.388 387.655 345.37 387.601 345.338L362.662 330.668C362.503 330.574 362.372 330.44 362.281 330.28C362.189 330.118 362.141 329.934 362.141 329.748V286.113C362.141 286.017 362.154 285.924 362.177 285.834C362.184 285.803 362.203 285.776 362.213 285.745C362.233 285.69 362.251 285.633 362.279 285.581C362.299 285.546 362.327 285.519 362.351 285.487C362.38 285.444 362.408 285.401 362.443 285.363C362.472 285.333 362.512 285.31 362.545 285.284C362.583 285.252 362.617 285.218 362.66 285.192H362.661L375.13 277.858C375.288 277.765 375.467 277.716 375.649 277.716C375.832 277.716 376.011 277.765 376.168 277.858L388.638 285.192H388.641C388.682 285.219 388.718 285.252 388.755 285.283C388.789 285.309 388.826 285.333 388.856 285.362C388.892 285.401 388.919 285.444 388.95 285.487C388.972 285.519 389.001 285.546 389.02 285.581C389.049 285.634 389.066 285.69 389.087 285.745C389.098 285.776 389.116 285.803 389.123 285.835C389.147 285.926 389.159 286.019 389.16 286.113V313.367L399.551 307.254V293.321C399.551 293.228 399.564 293.134 399.587 293.046C399.596 293.014 399.613 292.986 399.624 292.956C399.644 292.9 399.662 292.843 399.691 292.791C399.711 292.757 399.739 292.729 399.761 292.697C399.792 292.655 399.818 292.611 399.855 292.574C399.884 292.543 399.922 292.521 399.956 292.494C399.995 292.462 400.028 292.428 400.07 292.403H400.072L412.543 285.068C412.7 284.975 412.879 284.926 413.062 284.926C413.244 284.926 413.423 284.975 413.58 285.068L426.05 292.403C426.095 292.429 426.128 292.462 426.167 292.493C426.2 292.519 426.237 292.543 426.267 292.572C426.303 292.611 426.329 292.655 426.36 292.697C426.384 292.729 426.412 292.756 426.43 292.791C426.46 292.843 426.477 292.9 426.498 292.956C426.51 292.986 426.527 293.014 426.535 293.046ZM424.492 307.254V295.159L420.128 297.725L414.099 301.271V313.367L424.493 307.254H424.492ZM412.022 329.134V317.031L406.092 320.491L389.158 330.364V342.582L412.022 329.134ZM364.219 287.949V329.134L387.08 342.58V330.366L375.137 323.46L375.134 323.458L375.128 323.455C375.088 323.431 375.054 323.397 375.016 323.367C374.984 323.341 374.946 323.32 374.918 323.291L374.916 323.287C374.882 323.254 374.858 323.213 374.83 323.175C374.804 323.14 374.773 323.109 374.752 323.072L374.751 323.068C374.727 323.028 374.713 322.98 374.696 322.936C374.679 322.896 374.657 322.859 374.647 322.816V322.815C374.634 322.764 374.631 322.711 374.626 322.659C374.621 322.62 374.61 322.58 374.61 322.54V294.061L368.583 290.514L364.219 287.95V287.949ZM375.651 280.002L365.262 286.113L375.648 292.223L386.037 286.111L375.648 280.003L375.651 280.002ZM381.054 318.134L387.082 314.589V287.949L382.717 290.515L376.689 294.061V320.702L381.054 318.134ZM413.062 287.213L402.673 293.323L413.062 299.433L423.449 293.321L413.062 287.213ZM412.022 301.271L405.994 297.725L401.63 295.159V307.254L407.657 310.799L412.022 313.367V301.271ZM388.118 328.528L403.356 319.641L410.973 315.2L400.592 309.094L388.64 316.124L377.747 322.531L388.118 328.528Z" fill="#FF2D20"/>
<defs>
<filter id="filter0_d_3121_3666" x="19.0312" y="159.941" width="151.773" height="123.931" filterUnits="userSpaceOnUse" color-interpolation-filters="sRGB">
<feFlood flood-opacity="0" result="BackgroundImageFix"/>
<feColorMatrix in="SourceAlpha" type="matrix" values="0 0 0 0 0 0 0 0 0 0 0 0 0 0 0 0 0 0 127 0" result="hardAlpha"/>
<feOffset/>
<feGaussianBlur stdDeviation="12"/>
<feComposite in2="hardAlpha" operator="out"/>
<feColorMatrix type="matrix" values="0 0 0 0 0 0 0 0 0 0 0 0 0 0 0 0 0 0 0.19 0"/>
<feBlend mode="normal" in2="BackgroundImageFix" result="effect1_dropShadow_3121_3666"/>
<feBlend mode="normal" in="SourceGraphic" in2="effect1_dropShadow_3121_3666" result="shape"/>
</filter>
</defs>
</svg>
