<svg width="498" height="281" viewBox="0 0 498 281" fill="none" xmlns="http://www.w3.org/2000/svg">
<g style="mix-blend-mode:multiply" opacity="0.3">
<path d="M365.8 261.146H356.661C350.835 257.342 277.632 254.292 188.173 254.292C94.9103 254.292 19.2969 257.547 19.2969 261.58C19.2969 265.612 94.956 268.948 188.276 268.948C205.526 268.948 222.17 268.834 237.855 268.628C235.342 269.382 234.005 270.17 234.005 270.993C234.005 276.431 293.031 280.84 365.857 280.84C438.683 280.84 497.698 276.431 497.698 270.993C497.698 265.555 438.615 261.146 365.8 261.146Z" fill="#313163"/>
</g>
<path d="M369.603 42.9415H357.094V237.156H369.603V42.9415Z" fill="#FFDF4A"/>
<g style="mix-blend-mode:multiply" opacity="0.5">
<path d="M368.837 114.111H357.848C357.585 114.111 357.345 114.111 357.094 114.111V200.417C357.345 200.417 357.585 200.417 357.848 200.417L368.837 190.25C369.1 190.25 369.351 190.25 369.591 190.25V114.146C369.351 114.134 369.1 114.111 368.837 114.111Z" fill="#FFB53A"/>
</g>
<g style="mix-blend-mode:multiply" opacity="0.5">
<path d="M357.094 66.2573C359.077 67.0675 361.2 67.4827 363.343 67.4796C365.485 67.4769 367.606 67.0619 369.591 66.2573V42.9415H357.094V66.2573Z" fill="#FFB53A"/>
</g>
<path d="M363.346 229.536C343.355 229.536 327.156 239.315 327.156 251.367H399.537C399.537 239.315 383.338 229.536 363.346 229.536Z" fill="#FFDF4A"/>
<path d="M388.844 235.888C382.31 239.806 373.297 242.228 363.346 242.228C353.396 242.228 344.395 239.806 337.849 235.888C331.246 239.84 327.156 245.312 327.156 251.367H399.537C399.537 245.312 395.447 239.84 388.844 235.888Z" fill="#FFB53A"/>
<path d="M67.5625 227.548V233.969H161.157V252.007H67.5625V258.415H167.565V227.548H67.5625Z" fill="#733935"/>
<path d="M267.577 227.548H167.562V258.415H267.577V227.548Z" fill="#562B28"/>
<path d="M179.414 227.548H174.422V258.415H179.414V227.548Z" fill="#F7931E"/>
<path d="M187.844 227.548H182.852V258.415H187.844V227.548Z" fill="#F7931E"/>
<path d="M161.162 233.957H72.1484V252.007H161.162V233.957Z" fill="#FFD285"/>
<g style="mix-blend-mode:multiply" opacity="0.15">
<path d="M161.162 233.957H72.1484V240.446H161.162V233.957Z" fill="#084D79"/>
</g>
<path d="M149.639 227.56V221.14H56.0337V203.102H149.639V196.693H49.625V227.56H149.639Z" fill="#62302D"/>
<path d="M145.045 203.102H56.0312V221.151H145.045V203.102Z" fill="#FFD285"/>
<path d="M234.06 203.102H145.047V221.151H234.06V203.102Z" fill="#CCA86A"/>
<path d="M238.654 196.682H149.641V203.09H238.654V196.682Z" fill="#452220"/>
<path d="M238.654 221.14H149.641V227.549H238.654V221.14Z" fill="#452220"/>
<g style="mix-blend-mode:multiply" opacity="0.6">
<path d="M145.045 203.102H56.0312V209.602H145.045V203.102Z" fill="#999999"/>
</g>
<g style="mix-blend-mode:multiply" opacity="0.6">
<path d="M234.06 203.102H145.047V209.602H234.06V203.102Z" fill="#999999"/>
</g>
<path d="M131.233 196.693V190.285H37.6274V172.235H131.233V165.826H31.2188V196.693H131.233Z" fill="#733935"/>
<path d="M126.638 172.235H37.625V190.284H126.638V172.235Z" fill="#FFD285"/>
<path d="M215.654 172.235H126.641V190.284H215.654V172.235Z" fill="#CCA86A"/>
<path d="M220.256 165.826H131.242V172.235H220.256V165.826Z" fill="#562B28"/>
<path d="M220.256 190.284H131.242V196.693H220.256V190.284Z" fill="#562B28"/>
<g style="mix-blend-mode:multiply" opacity="0.6">
<path d="M126.638 172.235H37.625V178.735H126.638V172.235Z" fill="#999999"/>
</g>
<g style="mix-blend-mode:multiply" opacity="0.6">
<path d="M215.654 172.235H126.641V178.735H215.654V172.235Z" fill="#999999"/>
</g>
<path d="M256.201 149.091L95.7443 129.75C90.0324 129.065 84.926 131.944 84.4234 136.182C83.9207 140.42 88.1475 144.43 93.8936 145.115L254.305 164.456C260.017 165.141 265.123 162.262 265.637 158.024C266.151 153.786 261.948 149.787 256.201 149.091Z" fill="#68411E"/>
<g style="mix-blend-mode:multiply" opacity="0.4">
<path d="M254.354 155.659L93.9422 136.319C91.0153 136.036 88.2892 134.705 86.2654 132.572C85.2838 133.543 84.6529 134.813 84.4719 136.182C83.9579 140.42 88.196 144.429 93.9422 145.115L254.354 164.455C260.065 165.141 265.172 162.262 265.686 158.024C265.775 157.08 265.66 156.129 265.348 155.234C265.037 154.339 264.536 153.522 263.881 152.837C262.608 153.995 261.09 154.85 259.44 155.338C257.79 155.827 256.052 155.936 254.354 155.659Z" fill="#999999"/>
</g>
<path d="M49.4318 165.45C43.4458 165.45 38.625 152.255 38.625 135.965C38.625 119.675 43.4686 106.469 49.4547 106.469H57.5769V165.45H49.4318Z" fill="#523010"/>
<g style="mix-blend-mode:multiply" opacity="0.4">
<path d="M57.5592 146.029H39.2812C40.8006 157.35 44.7875 165.449 49.4712 165.449H57.5934L57.5592 146.029Z" fill="#999999"/>
</g>
<path d="M68.3817 135.965C68.3817 152.255 63.5266 165.461 57.552 165.461C51.5774 165.461 46.7109 152.255 46.7109 135.965C46.7109 119.675 51.566 106.469 57.552 106.469C63.538 106.469 68.3817 119.675 68.3817 135.965Z" fill="#603813"/>
<path d="M64.7838 118.201H58.2609C54.651 118.201 51.7266 126.198 51.7266 135.965C51.7266 145.732 54.651 153.729 58.2609 153.729H64.7838C68.3823 153.729 71.3068 145.732 71.3068 135.965C71.3068 126.198 68.3823 118.201 64.7838 118.201Z" fill="#F7931E"/>
<path d="M58.2578 153.729H64.7807C68.3792 153.729 71.3037 145.732 71.3037 135.965C71.3037 126.198 68.3792 118.201 64.7807 118.201H58.2578" fill="#F7931E"/>
<g style="mix-blend-mode:multiply" opacity="0.5">
<path d="M64.7787 118.201H59.3068C55.5748 129.75 55.5748 142.18 59.3068 153.729H64.7787C68.3772 153.729 71.3016 145.732 71.3016 135.965C71.3016 126.198 68.3772 118.201 64.7787 118.201Z" fill="#F7931E"/>
</g>
<path d="M68.7789 160.514C63.7982 160.514 59.7656 149.524 59.7656 135.965C59.7656 122.405 63.7525 111.415 68.7789 111.415H111.458V160.537L68.7789 160.514Z" fill="#523010"/>
<g style="mix-blend-mode:multiply" opacity="0.4">
<path d="M111.463 146.029H60.5703C61.9869 154.551 65.1398 160.491 68.7839 160.491H111.463V146.029Z" fill="#999999"/>
</g>
<path d="M120.475 135.965C120.475 149.524 116.432 160.514 111.462 160.514C106.493 160.514 102.438 149.524 102.438 135.965C102.438 122.405 106.481 111.415 111.462 111.415C116.443 111.415 120.475 122.405 120.475 135.965Z" fill="#603813"/>
<path d="M120.249 118.201H113.726C110.116 118.201 107.203 126.198 107.203 135.965C107.203 145.732 110.116 153.729 113.726 153.729H120.249C123.847 153.729 126.772 145.732 126.772 135.965C126.772 126.198 123.847 118.201 120.249 118.201Z" fill="#F7931E"/>
<g style="mix-blend-mode:multiply" opacity="0.5">
<path d="M123.733 118.201H117.21C113.612 118.201 110.688 126.198 110.688 135.965C110.688 145.732 113.612 153.729 117.21 153.729H123.733C127.343 153.729 130.256 145.732 130.256 135.965C130.256 126.198 127.343 118.201 123.733 118.201Z" fill="#F7931E"/>
</g>
<path d="M124.419 165.449C118.433 165.449 113.578 152.243 113.578 135.953C113.578 119.663 118.433 106.457 124.419 106.457H132.53V165.449H124.419Z" fill="#523010"/>
<g style="mix-blend-mode:multiply" opacity="0.4">
<path d="M132.527 158.458L122.349 146.029H114.227C115.746 157.35 119.733 165.449 124.417 165.449H132.527V158.458Z" fill="#999999"/>
</g>
<path d="M92.6465 135.965C92.6465 139.529 88.7396 142.419 83.9188 142.419C79.098 142.419 75.1797 139.529 75.1797 135.965C75.1797 132.401 79.0866 129.51 83.9188 129.51C88.751 129.51 92.6465 132.401 92.6465 135.965Z" fill="#603813"/>
<path d="M89.8887 135.965C89.8887 139.529 85.9818 142.419 81.161 142.419C76.3402 142.419 72.4219 139.529 72.4219 135.965C72.4219 132.401 76.3288 129.51 81.161 129.51C85.9932 129.51 89.8887 132.401 89.8887 135.965Z" fill="#68411E"/>
<path d="M143.366 135.965C143.366 152.255 138.511 165.461 132.525 165.461C126.539 165.461 121.695 152.255 121.695 135.965C121.695 119.675 126.55 106.469 132.525 106.469C138.5 106.469 143.366 119.675 143.366 135.965Z" fill="#603813"/>
<g style="mix-blend-mode:multiply" opacity="0.1">
<path d="M140.709 116.613C139.202 128.791 134.838 147.457 122.352 146.052C123.871 157.373 127.858 165.472 132.53 165.472C138.516 165.472 143.371 152.266 143.371 135.976C143.458 129.425 142.561 122.898 140.709 116.613Z" fill="#603813"/>
</g>
<g style="mix-blend-mode:multiply" opacity="0.6">
<path d="M267.58 227.548H67.5625V235.065H267.58V227.548Z" fill="#999999"/>
</g>
<path d="M233.702 84.5693H212.648V258.415H233.702V84.5693Z" fill="#733935"/>
<path d="M320.923 84.5693H233.703V258.415H320.923V84.5693Z" fill="#452220"/>
<path d="M233.702 237.145H212.648V243.759H233.702V237.145Z" fill="#F7931E"/>
<path d="M320.923 237.145H233.703V243.759H320.923V237.145Z" fill="#F7931E"/>
<path d="M233.702 247.426H212.648V250.739H233.702V247.426Z" fill="#F7931E"/>
<path d="M320.923 247.426H233.703V250.739H320.923V247.426Z" fill="#F7931E"/>
<path d="M233.702 99.2261H212.648V105.84H233.702V99.2261Z" fill="#F7931E"/>
<path d="M320.923 99.2261H233.703V105.84H320.923V99.2261Z" fill="#F7931E"/>
<g style="mix-blend-mode:multiply" opacity="0.3">
<path d="M238.638 84.5693H237.461V258.415H238.638V84.5693Z" fill="#084D79"/>
</g>
<path d="M233.702 92.2463H212.648V95.5592H233.702V92.2463Z" fill="#F7931E"/>
<path d="M320.923 92.2463H233.703V95.5592H320.923V92.2463Z" fill="#F7931E"/>
<g style="mix-blend-mode:multiply" opacity="0.5">
<path d="M320.923 237.145H233.703V243.759H320.923V237.145Z" fill="#F7931E"/>
</g>
<g style="mix-blend-mode:multiply" opacity="0.5">
<path d="M320.923 247.426H233.703V250.739H320.923V247.426Z" fill="#F7931E"/>
</g>
<g style="mix-blend-mode:multiply" opacity="0.5">
<path d="M320.923 99.2261H233.703V105.84H320.923V99.2261Z" fill="#F7931E"/>
</g>
<g style="mix-blend-mode:multiply" opacity="0.5">
<path d="M320.923 92.2463H233.703V95.5592H320.923V92.2463Z" fill="#F7931E"/>
</g>
<path d="M230.144 174.782C230.144 188.491 227.026 199.64 223.187 199.64C219.349 199.64 216.219 188.514 216.219 174.782C216.219 161.051 219.337 149.913 223.187 149.913C227.037 149.913 230.144 161.04 230.144 174.782Z" fill="#F7931E"/>
<path opacity="0.2" d="M233.712 84.5693H232.547V258.415H233.712V84.5693Z" fill="white"/>
<path d="M248.419 193.961V193.534H250.368V177.04H248.419V176.613H255.625V177.04H253.143V193.534H254.504C255.857 193.534 256.898 193.472 257.627 193.348C258.357 193.205 258.953 192.885 259.415 192.387C259.878 191.889 260.181 191.284 260.323 190.572C260.483 189.86 260.599 188.81 260.67 187.422H261.097L260.83 193.961H248.419ZM265.998 190.011C265.803 190.545 265.705 191.07 265.705 191.586C265.705 192.084 265.794 192.467 265.972 192.734C266.167 193.001 266.47 193.187 266.879 193.294C267.502 193.454 268.329 193.534 269.361 193.534H269.815V193.961H261.915V193.534C262.858 193.534 263.569 193.276 264.05 192.76C264.548 192.227 264.984 191.399 265.358 190.278L269.708 177.707C269.833 177.316 269.948 177.022 270.055 176.826C270.304 176.328 270.713 176.079 271.283 176.079H271.363L276.754 193.534H278.649V193.961H271.817V193.534H273.792L271.95 187.502H266.852L265.998 190.011ZM269.468 179.922L267.012 187.075H271.817L269.628 179.922H269.468ZM298.9 180.43C299.06 179.967 299.14 179.504 299.14 179.042C299.14 178.561 299.042 178.188 298.847 177.921C298.651 177.636 298.357 177.431 297.966 177.307C297.325 177.129 296.498 177.04 295.484 177.04H295.03V176.613H302.93V177.04C301.987 177.04 301.267 177.307 300.768 177.841C300.288 178.357 299.861 179.175 299.487 180.296L295.297 192.867C295.172 193.259 295.066 193.552 294.977 193.748C294.71 194.246 294.292 194.495 293.722 194.495H293.642L289.932 182.485L286.463 192.867C286.338 193.259 286.222 193.552 286.116 193.748C285.867 194.246 285.457 194.495 284.888 194.495H284.808L279.416 177.04H277.521V176.613H284.461V177.04H282.486L286.489 190.812H286.649L289.665 181.631L288.251 177.04H286.356V176.613H293.295V177.04H291.32L295.324 190.812H295.484L298.9 180.43Z" fill="#F7931E"/>
<path d="M248.419 193.961V193.534H250.368V177.04H248.419V176.613H255.625V177.04H253.143V193.534H254.504C255.857 193.534 256.898 193.472 257.627 193.348C258.357 193.205 258.953 192.885 259.415 192.387C259.878 191.889 260.181 191.284 260.323 190.572C260.483 189.86 260.599 188.81 260.67 187.422H261.097L260.83 193.961H248.419ZM265.998 190.011C265.803 190.545 265.705 191.07 265.705 191.586C265.705 192.084 265.794 192.467 265.972 192.734C266.167 193.001 266.47 193.187 266.879 193.294C267.502 193.454 268.329 193.534 269.361 193.534H269.815V193.961H261.915V193.534C262.858 193.534 263.569 193.276 264.05 192.76C264.548 192.227 264.984 191.399 265.358 190.278L269.708 177.707C269.833 177.316 269.948 177.022 270.055 176.826C270.304 176.328 270.713 176.079 271.283 176.079H271.363L276.754 193.534H278.649V193.961H271.817V193.534H273.792L271.95 187.502H266.852L265.998 190.011ZM269.468 179.922L267.012 187.075H271.817L269.628 179.922H269.468ZM298.9 180.43C299.06 179.967 299.14 179.504 299.14 179.042C299.14 178.561 299.042 178.188 298.847 177.921C298.651 177.636 298.357 177.431 297.966 177.307C297.325 177.129 296.498 177.04 295.484 177.04H295.03V176.613H302.93V177.04C301.987 177.04 301.267 177.307 300.768 177.841C300.288 178.357 299.861 179.175 299.487 180.296L295.297 192.867C295.172 193.259 295.066 193.552 294.977 193.748C294.71 194.246 294.292 194.495 293.722 194.495H293.642L289.932 182.485L286.463 192.867C286.338 193.259 286.222 193.552 286.116 193.748C285.867 194.246 285.457 194.495 284.888 194.495H284.808L279.416 177.04H277.521V176.613H284.461V177.04H282.486L286.489 190.812H286.649L289.665 181.631L288.251 177.04H286.356V176.613H293.295V177.04H291.32L295.324 190.812H295.484L298.9 180.43Z" fill="#F7931E"/>
<path d="M365.799 40.3373C365.799 40.6593 365.736 40.9781 365.612 41.2754C365.488 41.5728 365.307 41.8428 365.079 42.0699C364.851 42.2971 364.58 42.4769 364.282 42.5991C363.984 42.7213 363.665 42.7834 363.343 42.7819C362.695 42.7819 362.073 42.5244 361.615 42.0659C361.156 41.6074 360.898 40.9856 360.898 40.3373V10.0873C360.897 9.76532 360.959 9.4462 361.081 9.14828C361.203 8.85036 361.383 8.57951 361.61 8.35129C361.838 8.12307 362.108 7.94197 362.405 7.8184C362.702 7.69483 363.021 7.63122 363.343 7.63123C363.995 7.63123 364.619 7.88999 365.08 8.3506C365.54 8.81121 365.799 9.43592 365.799 10.0873V40.3373Z" fill="#FFB53A"/>
<path d="M323.725 56.2276C292.549 56.2276 278.647 37.7784 277.87 36.716C277.355 36.0511 276.979 35.2897 276.764 34.4769C276.549 33.6641 276.499 32.8163 276.617 31.9839C276.736 31.1514 277.02 30.3513 277.454 29.6307C277.887 28.9102 278.461 28.284 279.141 27.7893C279.82 27.2945 280.593 26.9412 281.411 26.7503C282.23 26.5595 283.079 26.5349 283.908 26.6781C284.736 26.8213 285.528 27.1293 286.235 27.584C286.942 28.0386 287.551 28.6306 288.026 29.3248C288.848 30.4672 309.422 56.7417 360.92 35.1852C362.458 34.5429 364.187 34.5377 365.729 35.1708C367.27 35.8038 368.497 37.0233 369.139 38.5609C369.782 40.0985 369.787 41.8283 369.154 43.3697C368.521 44.9111 367.301 46.1379 365.764 46.7802C349.234 53.6916 335.285 56.2276 323.725 56.2276Z" fill="#FFDF4A"/>
<path d="M402.958 56.2273C391.398 56.2273 377.449 53.6912 360.919 46.7799C359.501 46.0634 358.406 44.8359 357.857 43.3448C357.307 41.8536 357.343 40.2095 357.957 38.7437C358.571 37.2779 359.718 36.0993 361.166 35.4452C362.615 34.7912 364.257 34.7104 365.763 35.2191C417.261 56.7299 437.835 30.444 438.68 29.3131C439.666 27.9694 441.146 27.0725 442.793 26.8197C444.441 26.5669 446.121 26.9789 447.465 27.9651C448.809 28.9513 449.706 30.4308 449.958 32.0783C450.211 33.7258 449.799 35.4062 448.813 36.7499C448.036 37.778 434.134 56.2273 402.958 56.2273Z" fill="#FFDF4A"/>
<path d="M360.919 41.8338C309.421 63.3446 288.847 37.0587 288.025 35.9734C287.427 35.1367 286.631 34.4609 285.709 34.0061C284.786 33.5513 283.766 33.3316 282.738 33.3667C281.71 33.4017 280.707 33.6904 279.817 34.207C278.928 34.7236 278.18 35.4521 277.641 36.3276C277.721 36.4532 277.778 36.5903 277.869 36.716C278.646 37.7784 292.549 56.2276 323.724 56.2276C335.285 56.2276 349.233 53.6916 365.763 46.7802C366.964 46.2811 367.979 45.4182 368.665 44.3127C367.877 43.0485 366.666 42.1052 365.247 41.6512C363.828 41.1971 362.295 41.2618 360.919 41.8338Z" fill="#FFB53A"/>
<path d="M447.452 34.6365C446.114 33.6535 444.442 33.2376 442.8 33.4793C441.157 33.721 439.676 34.6007 438.678 35.9274C437.833 37.0698 417.259 63.3443 365.761 41.8335C364.386 41.2615 362.852 41.1968 361.433 41.6508C360.014 42.1049 358.803 43.0482 358.016 44.3124C358.698 45.4204 359.714 46.2841 360.917 46.7799C377.447 53.6341 391.396 56.2273 402.956 56.2273C434.132 56.2273 448.034 37.7781 448.811 36.7157C448.903 36.6014 448.948 36.4643 449.028 36.3501C448.615 35.6849 448.08 35.1035 447.452 34.6365Z" fill="#FFB53A"/>
<path d="M380.187 41.445C380.189 44.7668 379.207 48.0146 377.363 50.7777C375.519 53.5407 372.897 55.6949 369.829 56.9677C366.76 58.2404 363.384 58.5746 360.125 57.928C356.867 57.2813 353.874 55.6828 351.524 53.3348C349.174 50.9867 347.574 47.9945 346.925 44.7367C346.276 41.4789 346.608 38.1019 347.879 35.0327C349.149 31.9636 351.302 29.3402 354.064 27.4945C356.825 25.6487 360.073 24.6636 363.394 24.6636C367.846 24.6636 372.116 26.4312 375.265 29.578C378.414 32.7248 380.184 36.9932 380.187 41.445Z" fill="#FFDF4A"/>
<path d="M373.395 41.4452C373.395 43.4334 372.805 45.3771 371.701 47.0302C370.596 48.6834 369.026 49.9719 367.189 50.7328C365.352 51.4937 363.331 51.6928 361.381 51.3049C359.431 50.917 357.639 49.9595 356.233 48.5536C354.828 47.1477 353.87 45.3565 353.482 43.4064C353.094 41.4563 353.293 39.435 354.054 37.5981C354.815 35.7612 356.104 34.1912 357.757 33.0865C359.41 31.9819 361.354 31.3923 363.342 31.3923C366.008 31.3923 368.565 32.4515 370.45 34.3367C372.336 36.222 373.395 38.779 373.395 41.4452Z" fill="#FFB53A"/>
<g style="mix-blend-mode:multiply" opacity="0.5">
<path d="M363.342 33.9398C365.787 33.9401 368.148 34.8326 369.982 36.45C371.817 38.0674 372.997 40.2985 373.303 42.7246C373.363 42.3007 373.393 41.8732 373.395 41.4452C373.395 38.779 372.336 36.222 370.45 34.3367C368.565 32.4515 366.008 31.3923 363.342 31.3923C360.676 31.3923 358.119 32.4515 356.233 34.3367C354.348 36.222 353.289 38.779 353.289 41.4452C353.291 41.8732 353.321 42.3007 353.38 42.7246C353.686 40.2985 354.867 38.0674 356.701 36.45C358.535 34.8326 360.897 33.9401 363.342 33.9398Z" fill="#FFB53A"/>
</g>
<path d="M371.775 8.41926C371.778 10.0872 371.285 11.7183 370.36 13.1062C369.435 14.4941 368.119 15.5765 366.579 16.2163C365.039 16.8562 363.343 17.0248 361.707 16.7008C360.071 16.3768 358.568 15.5747 357.387 14.3961C356.207 13.2175 355.403 11.7153 355.077 10.0796C354.751 8.44393 354.917 6.74822 355.555 5.20705C356.192 3.66588 357.273 2.34851 358.66 1.42163C360.046 0.494744 361.677 1.5312e-06 363.345 0C365.579 -2.05086e-06 367.721 0.886665 369.302 2.46526C370.883 4.04385 371.772 6.18529 371.775 8.41926Z" fill="#FFDF4A"/>
<path d="M369.153 8.41933C369.155 9.56984 368.816 10.6952 368.178 11.6529C367.541 12.6106 366.633 13.3577 365.571 13.7995C364.509 14.2414 363.339 14.3581 362.211 14.1351C361.082 13.912 360.045 13.3591 359.231 12.5464C358.416 11.7336 357.861 10.6976 357.636 9.56934C357.411 8.44109 357.525 7.27138 357.965 6.20823C358.405 5.14507 359.15 4.23627 360.106 3.59684C361.063 2.95741 362.188 2.61609 363.338 2.61609C364.878 2.61609 366.356 3.22713 367.446 4.31512C368.536 5.40311 369.15 6.87916 369.153 8.41933Z" fill="#FFB53A"/>
<g style="mix-blend-mode:multiply" opacity="0.5">
<path d="M363.338 4.55783C364.708 4.55781 366.033 5.04324 367.079 5.92791C368.125 6.81258 368.823 8.03924 369.05 9.39004C369.113 9.07007 369.147 8.74511 369.153 8.41903C369.153 6.87689 368.54 5.39791 367.45 4.30745C366.359 3.21699 364.88 2.60437 363.338 2.60437C361.796 2.60437 360.317 3.21699 359.226 4.30745C358.136 5.39791 357.523 6.87689 357.523 8.41903C357.529 8.74511 357.563 9.07007 357.626 9.39004C357.853 8.03924 358.552 6.81258 359.597 5.92791C360.643 5.04324 361.968 4.55781 363.338 4.55783Z" fill="#FFB53A"/>
</g>
<path d="M282.947 63.5613C282.644 63.5613 282.353 63.4409 282.139 63.2267C281.925 63.0124 281.805 62.7219 281.805 62.4189V33.0143C281.805 32.7113 281.925 32.4208 282.139 32.2065C282.353 31.9923 282.644 31.8719 282.947 31.8719C283.25 31.8719 283.541 31.9923 283.755 32.2065C283.969 32.4208 284.089 32.7113 284.089 33.0143V62.4189C284.089 62.7219 283.969 63.0124 283.755 63.2267C283.541 63.4409 283.25 63.5613 282.947 63.5613Z" fill="#FFDF4A"/>
<path d="M282.947 31.8719C282.644 31.8719 282.353 31.9923 282.139 32.2065C281.925 32.4208 281.805 32.7113 281.805 33.0143V49.4187C282.182 49.4187 282.559 49.4187 282.947 49.4187C283.335 49.4187 283.712 49.4187 284.089 49.4187V33.0143C284.089 32.7113 283.969 32.4208 283.755 32.2065C283.541 31.9923 283.25 31.8719 282.947 31.8719Z" fill="#FFB53A"/>
<path d="M282.946 75.2022C281.246 75.2045 279.583 74.7023 278.169 73.7592C276.754 72.8161 275.651 71.4746 275 69.9044C274.348 68.3342 274.177 66.6059 274.508 64.9385C274.839 63.271 275.658 61.7392 276.86 60.5371C278.062 59.335 279.594 58.5166 281.261 58.1855C282.929 57.8544 284.657 58.0255 286.227 58.6771C287.797 59.3287 289.139 60.4316 290.082 61.846C291.025 63.2605 291.527 64.923 291.525 66.623C291.522 68.8974 290.617 71.0778 289.009 72.6861C287.401 74.2944 285.22 75.1992 282.946 75.2022ZM282.946 60.3514C281.698 60.3492 280.478 60.7171 279.439 61.4086C278.401 62.1001 277.591 63.0842 277.112 64.2362C276.633 65.3883 276.506 66.6565 276.748 67.8805C276.99 69.1045 277.59 70.2291 278.471 71.1122C279.353 71.9952 280.476 72.5969 281.7 72.8412C282.923 73.0854 284.192 72.9612 285.345 72.4842C286.498 72.0073 287.483 71.1991 288.177 70.1618C288.87 69.1246 289.24 67.905 289.24 66.6573C289.237 64.9878 288.573 63.3873 287.394 62.2057C286.215 61.0241 284.615 60.3575 282.946 60.3514Z" fill="#FFDF4A"/>
<path d="M443.872 75.2022C442.172 75.2022 440.511 74.6981 439.098 73.7537C437.685 72.8092 436.584 71.4669 435.934 69.8965C435.284 68.3261 435.115 66.5982 435.447 64.9315C435.78 63.2647 436.599 61.7341 437.801 60.5331C439.004 59.3321 440.536 58.5149 442.203 58.1847C443.87 57.8545 445.598 58.0262 447.167 58.6782C448.737 59.3302 450.078 60.433 451.02 61.8472C451.963 63.2615 452.465 64.9235 452.462 66.6231C452.459 68.8994 451.553 71.0816 449.942 72.6901C448.332 74.2987 446.148 75.2022 443.872 75.2022ZM443.872 60.3514C442.625 60.3514 441.405 60.7213 440.368 61.4142C439.332 62.1071 438.523 63.0919 438.046 64.2442C437.569 65.3964 437.444 66.6643 437.687 67.8875C437.93 69.1107 438.531 70.2344 439.413 71.1162C440.295 71.9981 441.418 72.5987 442.642 72.842C443.865 73.0853 445.133 72.9605 446.285 72.4832C447.437 72.0059 448.422 71.1977 449.115 70.1607C449.808 69.1237 450.178 67.9045 450.178 66.6573C450.178 64.9849 449.513 63.381 448.331 62.1984C447.148 61.0158 445.544 60.3514 443.872 60.3514Z" fill="#FFDF4A"/>
<path d="M249.789 130.812C249.789 139.599 253.279 148.025 259.492 154.238C265.705 160.451 274.131 163.941 282.918 163.941C291.704 163.941 300.13 160.451 306.343 154.238C312.556 148.025 316.046 139.599 316.046 130.812H249.789Z" fill="#FFDF4A"/>
<g style="mix-blend-mode:multiply" opacity="0.5">
<path d="M265.428 130.812H249.789C249.785 135.833 250.921 140.789 253.114 145.306C255.306 149.823 258.496 153.782 262.443 156.885C266.39 159.988 270.99 162.154 275.897 163.218C280.804 164.282 285.888 164.217 290.766 163.027C283.54 161.279 277.113 157.151 272.517 151.308C267.922 145.465 265.425 138.246 265.428 130.812Z" fill="#FFB53A"/>
</g>
<path d="M302.753 163.667C302.753 164.346 302.483 164.996 302.004 165.476C301.524 165.956 300.873 166.226 300.194 166.226H265.957C265.279 166.226 264.628 165.956 264.148 165.476C263.668 164.996 263.398 164.346 263.398 163.667C263.398 162.988 263.668 162.337 264.148 161.858C264.628 161.378 265.279 161.108 265.957 161.108H300.228C300.907 161.108 301.558 161.378 302.038 161.858C302.518 162.337 302.787 162.988 302.787 163.667H302.753Z" fill="#FFDF4A"/>
<g style="mix-blend-mode:multiply" opacity="0.5">
<path d="M300.228 163.667H265.957C265.509 163.669 265.069 163.551 264.682 163.326C264.294 163.101 263.974 162.777 263.753 162.388C263.519 162.773 263.396 163.216 263.398 163.667C263.398 164.346 263.668 164.997 264.148 165.477C264.628 165.956 265.279 166.226 265.957 166.226H300.228C300.907 166.226 301.558 165.956 302.038 165.477C302.518 164.997 302.787 164.346 302.787 163.667C302.79 163.216 302.667 162.773 302.433 162.388C302.212 162.777 301.892 163.101 301.504 163.326C301.117 163.551 300.676 163.669 300.228 163.667Z" fill="#FFB53A"/>
</g>
<path opacity="0.2" d="M304.136 130.812H290.656V145.469C290.656 147.257 291.366 148.971 292.63 150.235C293.894 151.499 295.609 152.209 297.396 152.209C299.184 152.209 300.898 151.499 302.162 150.235C303.426 148.971 304.136 147.257 304.136 145.469V130.812Z" fill="white"/>
<path opacity="0.2" d="M293.371 130.812V140.922C293.329 141.473 293.402 142.026 293.584 142.547C293.766 143.068 294.053 143.546 294.429 143.951C294.804 144.356 295.259 144.679 295.765 144.9C296.271 145.121 296.817 145.235 297.369 145.235C297.921 145.235 298.467 145.121 298.973 144.9C299.479 144.679 299.934 144.356 300.309 143.951C300.685 143.546 300.972 143.068 301.154 142.547C301.337 142.026 301.409 141.473 301.367 140.922V130.812H293.371Z" fill="white"/>
<path d="M257.616 135.611C257.616 136.062 257.482 136.504 257.231 136.88C256.98 137.256 256.623 137.548 256.206 137.721C255.788 137.894 255.329 137.94 254.886 137.851C254.443 137.763 254.036 137.546 253.716 137.226C253.397 136.907 253.179 136.499 253.091 136.056C253.003 135.613 253.048 135.154 253.221 134.736C253.394 134.319 253.687 133.962 254.062 133.711C254.438 133.46 254.88 133.326 255.332 133.326C255.938 133.326 256.519 133.567 256.947 133.995C257.376 134.423 257.616 135.005 257.616 135.611Z" fill="#303263"/>
<path d="M312.796 135.611C312.796 136.062 312.662 136.504 312.411 136.88C312.16 137.256 311.803 137.548 311.386 137.721C310.968 137.894 310.509 137.94 310.066 137.851C309.622 137.763 309.215 137.546 308.896 137.226C308.576 136.907 308.359 136.499 308.27 136.056C308.182 135.613 308.228 135.154 308.4 134.736C308.573 134.319 308.866 133.962 309.242 133.711C309.618 133.46 310.059 133.326 310.511 133.326C311.117 133.326 311.698 133.567 312.127 133.995C312.555 134.423 312.796 135.005 312.796 135.611Z" fill="#303263"/>
<path d="M443.736 63.5613C443.433 63.5613 443.143 63.4409 442.928 63.2267C442.714 63.0124 442.594 62.7219 442.594 62.4189V33.0143C442.594 32.7113 442.714 32.4208 442.928 32.2065C443.143 31.9923 443.433 31.8719 443.736 31.8719C444.039 31.8719 444.33 31.9923 444.544 32.2065C444.758 32.4208 444.878 32.7113 444.878 33.0143V62.4189C444.878 62.7219 444.758 63.0124 444.544 63.2267C444.33 63.4409 444.039 63.5613 443.736 63.5613Z" fill="#FFDF4A"/>
<path d="M443.736 31.8719C443.433 31.8719 443.143 31.9923 442.928 32.2065C442.714 32.4208 442.594 32.7113 442.594 33.0143V49.4073C443.005 49.4073 443.439 49.4759 443.862 49.4759C444.2 49.4932 444.54 49.4932 444.878 49.4759V33.0143C444.878 32.7113 444.758 32.4208 444.544 32.2065C444.33 31.9923 444.039 31.8719 443.736 31.8719Z" fill="#FFB53A"/>
<path d="M410.594 130.812C410.594 139.599 414.084 148.025 420.297 154.238C426.51 160.451 434.936 163.941 443.722 163.941C452.509 163.941 460.935 160.451 467.148 154.238C473.361 148.025 476.851 139.599 476.851 130.812H410.594Z" fill="#FFDF4A"/>
<g style="mix-blend-mode:multiply" opacity="0.5">
<path d="M426.221 130.812H410.594C410.59 135.832 411.726 140.787 413.918 145.302C416.109 149.818 419.298 153.777 423.244 156.88C427.19 159.983 431.789 162.148 436.694 163.213C441.599 164.278 446.682 164.215 451.559 163.027C444.334 161.279 437.906 157.151 433.311 151.308C428.715 145.465 426.218 138.246 426.221 130.812Z" fill="#FFB53A"/>
</g>
<path d="M463.588 163.667C463.588 164.004 463.521 164.338 463.392 164.649C463.263 164.96 463.073 165.243 462.834 165.48C462.595 165.718 462.312 165.906 462 166.034C461.688 166.162 461.354 166.227 461.017 166.226H426.746C426.068 166.226 425.417 165.956 424.937 165.476C424.457 164.997 424.188 164.346 424.188 163.667C424.188 162.988 424.457 162.337 424.937 161.858C425.417 161.378 426.068 161.108 426.746 161.108H461.017C461.354 161.107 461.688 161.172 462 161.3C462.312 161.427 462.595 161.616 462.834 161.854C463.073 162.091 463.263 162.374 463.392 162.685C463.521 162.996 463.588 163.33 463.588 163.667Z" fill="#FFDF4A"/>
<g style="mix-blend-mode:multiply" opacity="0.5">
<path d="M460.976 163.667H426.705C426.257 163.667 425.817 163.549 425.43 163.325C425.042 163.1 424.722 162.777 424.5 162.388C424.272 162.775 424.151 163.216 424.148 163.666C424.146 164.115 424.263 164.558 424.487 164.947C424.711 165.337 425.034 165.661 425.423 165.886C425.813 166.11 426.255 166.228 426.705 166.226H460.976C461.426 166.23 461.87 166.114 462.261 165.89C462.652 165.666 462.976 165.343 463.202 164.952C463.427 164.562 463.545 164.119 463.543 163.669C463.541 163.218 463.42 162.776 463.192 162.388C462.967 162.777 462.644 163.1 462.255 163.324C461.866 163.549 461.425 163.667 460.976 163.667Z" fill="#FFB53A"/>
</g>
<path opacity="0.2" d="M464.927 130.812H451.459V145.469C451.421 146.377 451.568 147.283 451.889 148.132C452.211 148.982 452.701 149.758 453.33 150.413C453.959 151.069 454.714 151.59 455.55 151.946C456.386 152.303 457.285 152.486 458.193 152.486C459.102 152.486 460.001 152.303 460.836 151.946C461.672 151.59 462.427 151.069 463.056 150.413C463.685 149.758 464.175 148.982 464.497 148.132C464.818 147.283 464.965 146.377 464.927 145.469V130.812Z" fill="white"/>
<path opacity="0.2" d="M454.183 130.812V140.922C454.142 141.473 454.214 142.026 454.396 142.547C454.578 143.068 454.866 143.546 455.241 143.951C455.617 144.356 456.072 144.679 456.578 144.9C457.083 145.121 457.63 145.235 458.182 145.235C458.734 145.235 459.28 145.121 459.786 144.9C460.292 144.679 460.747 144.356 461.122 143.951C461.497 143.546 461.785 143.068 461.967 142.547C462.149 142.026 462.222 141.473 462.18 140.922V130.812H454.183Z" fill="white"/>
<path d="M418.405 135.611C418.405 136.062 418.271 136.504 418.02 136.88C417.769 137.256 417.412 137.548 416.995 137.721C416.578 137.894 416.118 137.94 415.675 137.851C415.232 137.763 414.825 137.546 414.505 137.226C414.186 136.907 413.968 136.499 413.88 136.056C413.792 135.613 413.837 135.154 414.01 134.736C414.183 134.319 414.476 133.962 414.851 133.711C415.227 133.46 415.669 133.326 416.121 133.326C416.727 133.326 417.308 133.567 417.736 133.995C418.165 134.423 418.405 135.005 418.405 135.611Z" fill="#303263"/>
<path d="M473.593 135.611C473.593 136.062 473.459 136.504 473.208 136.88C472.957 137.256 472.6 137.548 472.183 137.721C471.765 137.894 471.306 137.94 470.862 137.851C470.419 137.763 470.012 137.546 469.693 137.226C469.373 136.907 469.155 136.499 469.067 136.056C468.979 135.613 469.024 135.154 469.197 134.736C469.37 134.319 469.663 133.962 470.039 133.711C470.415 133.46 470.856 133.326 471.308 133.326C471.914 133.326 472.495 133.567 472.924 133.995C473.352 134.423 473.593 135.005 473.593 135.611Z" fill="#303263"/>
<path d="M445.179 72.7804C445.934 72.6202 446.651 72.3178 447.292 71.8894L444.802 65.6178C444.718 65.4047 444.572 65.2218 444.382 65.093C444.193 64.9642 443.969 64.8953 443.74 64.8953C443.511 64.8953 443.287 64.9642 443.097 65.093C442.908 65.2218 442.762 65.4047 442.677 65.6178L415.089 135.188C415.033 135.328 415.006 135.477 415.008 135.627C415.01 135.777 415.042 135.925 415.101 136.063C415.16 136.201 415.246 136.326 415.354 136.431C415.462 136.535 415.589 136.618 415.729 136.673C415.868 136.729 416.017 136.756 416.168 136.754C416.318 136.752 416.466 136.721 416.604 136.661C416.742 136.602 416.867 136.516 416.972 136.408C417.076 136.3 417.159 136.173 417.214 136.033L443.74 69.1362L445.179 72.7804Z" fill="#7175AD"/>
<path d="M472.393 135.188L448.141 74.0598C447.481 74.441 446.774 74.7366 446.039 74.9394L470.269 136.045C470.353 136.257 470.5 136.44 470.689 136.568C470.879 136.696 471.102 136.765 471.331 136.764C471.476 136.765 471.619 136.738 471.754 136.684C471.895 136.629 472.023 136.546 472.132 136.441C472.241 136.335 472.327 136.209 472.387 136.07C472.446 135.931 472.478 135.781 472.479 135.63C472.48 135.478 472.451 135.328 472.393 135.188Z" fill="#7175AD"/>
<path d="M288.021 29.3247C287.133 28.1068 285.836 27.2494 284.367 26.9095C282.899 26.5697 281.357 26.7701 280.024 27.474C278.643 28.6365 277.539 30.0921 276.791 31.7351C276.604 32.5924 276.601 33.4796 276.782 34.3382C276.963 35.1968 277.325 36.0072 277.842 36.7158C281.586 41.3816 286.213 45.2636 291.459 48.1395C293.612 47.4383 295.524 46.143 296.973 44.4028C298.422 42.6626 299.35 40.5483 299.65 38.3037C295.179 36.1722 291.214 33.111 288.021 29.3247Z" fill="#FFB53A"/>
<path d="M294.98 33.0146C294.98 35.3938 294.275 37.7195 292.953 39.6976C291.631 41.6758 289.752 43.2176 287.554 44.1281C285.356 45.0386 282.938 45.2768 280.604 44.8126C278.271 44.3485 276.127 43.2028 274.445 41.5205C272.763 39.8382 271.617 37.6948 271.153 35.3614C270.689 33.028 270.927 30.6093 271.838 28.4113C272.748 26.2132 274.29 24.3345 276.268 23.0128C278.246 21.691 280.572 20.9855 282.951 20.9855C286.141 20.9855 289.201 22.2528 291.457 24.5087C293.713 26.7646 294.98 29.8243 294.98 33.0146Z" fill="#FFDF4A"/>
<path d="M290.143 33.0146C290.146 34.4412 289.724 35.8364 288.933 37.0236C288.142 38.2108 287.016 39.1364 285.699 39.6834C284.381 40.2304 282.931 40.3741 281.531 40.0964C280.132 39.8186 278.847 39.1318 277.838 38.1231C276.829 37.1143 276.142 35.8288 275.865 34.4295C275.587 33.0301 275.73 31.5798 276.277 30.2622C276.824 28.9446 277.75 27.8189 278.937 27.0277C280.124 26.2365 281.52 25.8154 282.946 25.8176C284.855 25.8176 286.686 26.5759 288.035 27.9256C289.385 29.2753 290.143 31.1058 290.143 33.0146Z" fill="#FFB53A"/>
<path d="M438.656 29.3247C439.544 28.1068 440.841 27.2494 442.31 26.9095C443.778 26.5697 445.32 26.7701 446.653 27.474C448.04 28.6508 449.142 30.1274 449.874 31.7922C450.061 32.6488 450.065 33.5352 449.886 34.3934C449.707 35.2516 449.348 36.0624 448.835 36.7729C445.084 41.4366 440.454 45.318 435.206 48.1966C433.053 47.4954 431.142 46.2001 429.693 44.4599C428.243 42.7197 427.315 40.6055 427.016 38.3608C431.501 36.222 435.472 33.1397 438.656 29.3247Z" fill="#FFB53A"/>
<path d="M431.711 33.0146C431.711 35.3938 432.416 37.7195 433.738 39.6977C435.06 41.6758 436.939 43.2177 439.137 44.1281C441.335 45.0386 443.753 45.2768 446.087 44.8126C448.42 44.3485 450.564 43.2028 452.246 41.5205C453.928 39.8382 455.074 37.6948 455.538 35.3614C456.002 33.028 455.764 30.6093 454.854 28.4113C453.943 26.2132 452.401 24.3345 450.423 23.0128C448.445 21.691 446.119 20.9855 443.74 20.9855C442.16 20.984 440.595 21.2941 439.135 21.8981C437.675 22.5021 436.348 23.3881 435.231 24.5054C434.114 25.6227 433.228 26.9494 432.624 28.4095C432.02 29.8696 431.709 31.4345 431.711 33.0146Z" fill="#FFDF4A"/>
<path d="M436.539 33.0146C436.537 34.4407 436.958 35.8355 437.748 37.0224C438.539 38.2093 439.664 39.135 440.981 39.6824C442.298 40.2297 443.748 40.3741 445.147 40.0972C446.546 39.8204 447.831 39.1347 448.84 38.1271C449.85 37.1195 450.537 35.8351 450.816 34.4365C451.095 33.0379 450.953 31.5879 450.408 30.2701C449.863 28.9523 448.939 27.8258 447.753 27.0333C446.568 26.2407 445.174 25.8176 443.747 25.8176C442.801 25.8161 441.864 26.0012 440.99 26.3622C440.115 26.7232 439.321 27.2531 438.651 27.9215C437.982 28.59 437.45 29.3839 437.088 30.2578C436.726 31.1317 436.539 32.0685 436.539 33.0146Z" fill="#FFB53A"/>
<g style="mix-blend-mode:multiply" opacity="0.5">
<path d="M282.958 29.8503C284.516 29.852 286.031 30.3582 287.277 31.2932C288.523 32.2281 289.433 33.5415 289.87 35.0367C290.059 34.3793 290.155 33.6987 290.155 33.0147C290.081 31.1541 289.29 29.3943 287.947 28.1041C286.605 26.8139 284.815 26.0933 282.953 26.0933C281.091 26.0933 279.301 26.8139 277.958 28.1041C276.615 29.3943 275.824 31.1541 275.75 33.0147C275.75 33.6987 275.846 34.3793 276.036 35.0367C276.475 33.5406 277.386 32.2269 278.634 31.292C279.882 30.3571 281.399 29.8514 282.958 29.8503Z" fill="#FFB53A"/>
</g>
<g style="mix-blend-mode:multiply" opacity="0.5">
<path d="M443.747 29.8499C445.306 29.8497 446.822 30.3552 448.068 31.2904C449.314 32.2257 450.223 33.5401 450.659 35.0362C450.852 34.3794 450.952 33.6988 450.956 33.0143C450.956 31.1025 450.196 29.269 448.845 27.9172C447.493 26.5654 445.659 25.8059 443.747 25.8059C441.836 25.8059 440.002 26.5654 438.65 27.9172C437.299 29.269 436.539 31.1025 436.539 33.0143C436.538 33.6992 436.638 34.3807 436.836 35.0362C437.271 33.5401 438.181 32.2257 439.427 31.2904C440.673 30.3552 442.189 29.8497 443.747 29.8499Z" fill="#FFB53A"/>
</g>
<path d="M286.519 71.7749L284.052 65.5718C283.966 65.3623 283.819 65.1831 283.631 65.057C283.443 64.9309 283.222 64.8635 282.995 64.8635C282.769 64.8635 282.547 64.9309 282.359 65.057C282.171 65.1831 282.024 65.3623 281.938 65.5718L254.339 135.142C254.227 135.424 254.231 135.739 254.351 136.017C254.471 136.296 254.697 136.515 254.979 136.627C255.26 136.739 255.575 136.735 255.854 136.615C256.132 136.495 256.352 136.269 256.464 135.987L283.001 69.0903L284.429 72.7002C285.177 72.5227 285.885 72.209 286.519 71.7749Z" fill="#7175AD"/>
<path d="M311.651 135.188L287.375 73.9912C286.719 74.3828 286.011 74.6826 285.273 74.8823L309.526 136.033C309.611 136.246 309.757 136.428 309.947 136.556C310.136 136.685 310.36 136.753 310.588 136.753C310.729 136.755 310.87 136.728 311 136.673C311.14 136.619 311.269 136.537 311.378 136.433C311.487 136.329 311.574 136.204 311.634 136.066C311.695 135.928 311.727 135.779 311.73 135.629C311.733 135.478 311.706 135.328 311.651 135.188Z" fill="#7175AD"/>
<path d="M417.889 250.739H308.804C307.37 250.739 305.95 251.021 304.625 251.57C303.3 252.119 302.096 252.923 301.082 253.937C300.067 254.951 299.263 256.155 298.714 257.48C298.165 258.805 297.883 260.225 297.883 261.66H428.798C428.798 258.765 427.649 255.989 425.604 253.941C423.558 251.893 420.783 250.742 417.889 250.739Z" fill="#FFDF4A"/>
<path d="M299.356 256.199C298.392 257.857 297.884 259.741 297.883 261.66H428.798C428.803 259.741 428.294 257.855 427.325 256.199H299.356Z" fill="#FFB53A"/>
<path d="M437.858 261.66H288.802C286.327 261.66 283.953 262.643 282.202 264.393C280.452 266.144 279.469 268.518 279.469 270.993H447.169C447.169 268.521 446.188 266.151 444.443 264.401C442.698 262.652 440.33 261.666 437.858 261.66Z" fill="#FFDF4A"/>
<path d="M280.803 266.32C279.979 267.739 279.545 269.351 279.547 270.993H447.247C447.249 269.351 446.815 267.739 445.99 266.32H280.803Z" fill="#FFB53A"/>
<path d="M368.847 106.834H357.846C351.536 106.834 346.422 111.949 346.422 118.258V171.607C346.422 177.916 351.536 183.03 357.846 183.03H368.847C375.156 183.03 380.27 177.916 380.27 171.607V118.258C380.27 111.949 375.156 106.834 368.847 106.834Z" fill="#FFB53A"/>
<g style="mix-blend-mode:multiply" opacity="0.5">
<path d="M367.032 115.928H359.63C357.594 115.928 355.641 116.736 354.202 118.176C352.762 119.616 351.953 121.568 351.953 123.604V166.466C351.953 168.502 352.762 170.455 354.202 171.894C355.641 173.334 357.594 174.143 359.63 174.143H367.01C369.046 174.143 370.998 173.334 372.438 171.894C373.877 170.455 374.686 168.502 374.686 166.466V123.604C374.686 121.572 373.881 119.623 372.446 118.184C371.011 116.745 369.064 115.934 367.032 115.928Z" fill="#FFB53A"/>
</g>
<g style="mix-blend-mode:multiply" opacity="0.5">
<path d="M367.032 115.928H359.63C357.594 115.928 355.641 116.736 354.202 118.176C352.762 119.616 351.953 121.568 351.953 123.604V130.778C351.953 128.742 352.762 126.79 354.202 125.35C355.641 123.91 357.594 123.102 359.63 123.102H367.01C369.046 123.102 370.998 123.91 372.438 125.35C373.877 126.79 374.686 128.742 374.686 130.778V123.604C374.686 121.572 373.881 119.623 372.446 118.184C371.011 116.745 369.064 115.934 367.032 115.928Z" fill="#FFB53A"/>
</g>
<path d="M369.587 209.59H357.09C357.09 209.59 356.256 226.589 343.93 232.952V235.888H382.77V232.952C370.433 226.589 369.587 209.59 369.587 209.59Z" fill="#FFDF4A"/>
<path d="M35.0232 76.2532L37.9591 81.6337L43.3396 84.5696L37.9591 87.5169L35.0232 92.8975L32.0759 87.5169L26.6953 84.5696L32.0759 81.6337L35.0232 76.2532Z" fill="#ECF0F1"/>
<path d="M132.851 18.4152L135.787 23.7957L141.168 26.7316L135.787 29.6789L132.851 35.0595L129.904 29.6789L124.523 26.7316L129.904 23.7957L132.851 18.4152Z" fill="#ECF0F1"/>
<path d="M458.176 212.823L461.123 218.204L466.504 221.14L461.123 224.087L458.176 229.468L455.24 224.087L449.859 221.14L455.24 218.204L458.176 212.823Z" fill="#ECF0F1"/>
<path d="M245.86 32.683L247.413 35.5046L250.235 37.0583L247.413 38.6005L245.86 41.4335L244.317 38.6005L241.484 37.0583L244.317 35.5046L245.86 32.683Z" fill="#ECF0F1"/>
<path d="M481.266 12.4746L482.808 15.2963L485.641 16.8499L482.808 18.3921L481.266 21.2252L479.724 18.3921L476.891 16.8499L479.724 15.2963L481.266 12.4746Z" fill="#ECF0F1"/>
<path d="M185.125 88.5225L186.679 91.3441L189.501 92.8977L186.679 94.4399L185.125 97.273L183.583 94.4399L180.75 92.8977L183.583 91.3441L185.125 88.5225Z" fill="#ECF0F1"/>
<path d="M92.6451 62.2479L94.1987 65.0696L97.0204 66.6232L94.1987 68.1654L92.6451 70.987L91.1029 68.1654L88.2812 66.6232L91.1029 65.0696L92.6451 62.2479Z" fill="#ECF0F1"/>
<path d="M476.899 87.8827L478.441 90.7043L481.274 92.2579L478.441 93.8002L476.899 96.6218L475.356 93.8002L472.523 92.2579L475.356 90.7043L476.899 87.8827Z" fill="#ECF0F1"/>
<path d="M4.37528 192.318L5.91747 195.14L8.75055 196.693L5.91747 198.235L4.37528 201.057L2.82165 198.235L0 196.693L2.82165 195.14L4.37528 192.318Z" fill="#ECF0F1"/>
</svg>
