<svg width="597" height="584" viewBox="0 0 597 584" fill="none" xmlns="http://www.w3.org/2000/svg">
<path d="M469.228 206.274C469.375 206.274 483.696 204.338 498.012 194.749C506.252 189.29 513.143 182.02 518.161 173.49C524.348 162.926 527.69 150.286 528.088 135.922C528.515 120.4 524.26 105.863 515.772 93.8196C507.967 82.7076 496.811 74.3998 483.946 70.1174C471.994 66.1679 459.072 66.3135 447.211 70.5313C434.217 75.1436 422.531 84.659 413.419 98.0426L414.781 98.974C432.099 73.5471 457.767 63.3517 483.435 71.6943C509.973 80.3226 527.262 106.114 526.437 135.877C525.557 167.73 509.988 184.726 497.083 193.369C483.086 202.731 469.149 204.614 469.012 204.633L469.228 206.274Z" fill="url(#paint0_linear_3209_2553)"/>
<g opacity="0.4">
<path d="M571.723 556.052C576.986 549.489 581.54 542.387 585.312 534.863C591.106 523.337 597.318 505.986 593.73 488.951C590.241 472.37 578.284 459.011 558.179 449.254C531.071 436.087 514.338 418.421 508.445 396.744C501.123 369.795 510.155 336.942 535.293 299.092C544.099 285.827 546.797 268.452 542.89 250.16C539.151 232.682 529.803 215.617 516.569 202.115C502.641 187.904 485.77 178.901 467.778 176.082C447.079 172.835 426.271 177.822 405.93 190.895L406.815 192.29C444.381 168.144 484.954 172.244 515.384 203.273C543.121 231.549 551.083 272.35 533.931 298.171C522.176 315.871 513.812 332.788 509.069 348.458C503.663 366.301 502.931 382.691 506.868 397.178C512.893 419.353 529.916 437.358 557.486 450.742C577.09 460.267 588.747 473.237 592.128 489.296C595.612 505.858 589.548 522.805 583.847 534.138C580.128 541.538 575.642 548.524 570.465 554.982L571.723 556.052Z" fill="url(#paint1_linear_3209_2553)"/>
<path d="M124.3 555.82C124.379 555.613 132.502 534.877 132.247 510.234C132.094 495.722 129.116 482.703 123.401 471.542C116.24 457.577 104.751 446.514 89.2504 438.654C60.1717 423.911 44.3964 406.703 41.0251 386.041C36.4498 358.047 54.874 323.43 97.3494 280.205C139.579 237.225 123.46 199.39 110.51 168.972C100.264 144.915 92.1745 125.919 114.525 111.544C141.211 94.3862 176.074 95.0219 200.626 98.5748C216.824 100.928 232.737 104.947 248.114 110.569L248.719 109.031C248.512 108.948 227.754 100.837 200.896 96.9437C185.111 94.6523 170.324 94.2433 156.952 95.7266C140.198 97.5892 125.622 102.438 113.631 110.15C90.1055 125.278 98.8581 145.826 108.992 169.617C121.769 199.573 137.628 236.856 96.1749 279.042C53.3014 322.671 34.7445 357.757 39.3935 386.308C42.8582 407.526 58.9235 425.133 88.5084 440.133C116.098 454.122 130.281 477.711 130.605 510.249C130.856 534.572 122.855 555.007 122.772 555.209L124.3 555.82Z" fill="url(#paint2_linear_3209_2553)"/>
<path d="M14.063 555.963C14.4906 555.298 57.0299 489.513 78.2602 488.104C79.5243 487.979 80.7995 488.171 81.9707 488.664C83.1419 489.157 84.1721 489.935 84.9684 490.927L86.2266 489.853C85.2636 488.664 84.0228 487.731 82.6143 487.138C81.2058 486.545 79.6731 486.31 78.1521 486.453C56.0962 487.931 14.4366 552.326 12.6723 555.066L14.063 555.963Z" fill="url(#paint3_linear_3209_2553)"/>
<path d="M526.427 555.525H528.078C527.674 543.622 526.068 531.791 523.287 520.213C519.045 502.503 510.062 478.352 491.367 463.914C474.575 450.949 452.779 447.771 426.58 454.462L426.988 456.069C452.666 449.505 473.985 452.585 490.355 465.225C508.661 479.362 517.488 503.118 521.67 520.563C524.429 532.025 526.023 543.739 526.427 555.525Z" fill="url(#paint4_linear_3209_2553)"/>
</g>
<path d="M163.428 77.8785V536.853C163.428 541.803 165.389 546.549 168.879 550.049C172.369 553.548 177.103 555.515 182.039 555.515H411.155C416.091 555.515 420.824 553.548 424.315 550.049C427.805 546.549 429.766 541.803 429.766 536.853V77.8785C429.764 72.9296 427.803 68.1838 424.313 64.6845C420.823 61.1851 416.09 59.2186 411.155 59.2173H182.039C177.104 59.2186 172.371 61.1851 168.881 64.6845C165.391 68.1838 163.429 72.9296 163.428 77.8785Z" fill="white"/>
<path d="M163.428 77.8785V536.853C163.428 541.803 165.389 546.549 168.879 550.049C172.369 553.548 177.103 555.515 182.039 555.515H411.155C416.091 555.515 420.824 553.548 424.315 550.049C427.805 546.549 429.766 541.803 429.766 536.853V77.8785C429.764 72.9296 427.803 68.1838 424.313 64.6845C420.823 61.1851 416.09 59.2186 411.155 59.2173H182.039C177.104 59.2186 172.371 61.1851 168.881 64.6845C165.391 68.1838 163.429 72.9296 163.428 77.8785Z" fill="#5D2168"/>
<path d="M173.783 86.6892V523.499C173.783 523.879 173.783 524.258 173.817 524.638C174.388 533.917 181.838 541.259 190.949 541.259H402.245C411.72 541.259 419.406 533.31 419.406 523.519V86.6892C419.406 77.2921 412.359 69.6049 403.434 68.9742C403.046 68.9446 402.648 68.9298 402.245 68.9298H190.925C188.96 68.9317 187.011 69.2838 185.17 69.9696C184.599 70.1792 184.041 70.4227 183.499 70.6988C180.558 72.1968 178.092 74.4861 176.376 77.3103C174.66 80.1346 173.762 83.3822 173.783 86.6892Z" fill="url(#paint5_linear_3209_2553)"/>
<path opacity="0.34" d="M173.784 264.638L182.792 273.335L214.657 252.718L206.794 245.612H209.251L216.107 251.787L225.651 245.612H228.698L217.395 252.93L243.785 276.691L275.237 256.488L262.951 245.602H265.443L276.653 255.596L292.158 245.612H293.956C294.359 245.612 294.753 245.612 295.146 245.656L277.945 256.709L304.935 280.673L311.118 276.785V278.756L306.203 281.821L311.118 286.172V288.384L304.729 282.732L272.682 302.763L311.098 337.356V339.583L271.217 303.675L236.674 325.258L290.91 377.492L294.472 375.467H297.809L292.153 378.689L311.098 396.922L317.551 403.141L349.411 382.538L341.548 375.437H344.005L350.856 381.607L360.414 375.486H363.461L352.158 382.804L378.544 406.56L409.996 386.357L397.739 375.477H400.226L411.441 385.43L419.422 380.306V382.277L412.709 386.584L419.407 392.526V394.739L411.264 387.51L379.812 407.713L406.207 431.48L419.417 423.226V425.197L407.48 432.653L419.417 443.4V445.627L406.025 433.564L371.477 455.147L406.497 488.892L419.417 479.254V481.284L407.701 490.021L419.417 501.305V503.601L406.359 491.021L371.354 517.138L398.747 541.283H396.245L370.002 518.173L339.017 541.283H336.25L368.73 517.059L328.741 481.851L300.729 499.349L311.118 508.297V510.485L299.259 500.26L291.539 505.09L333.513 541.283H330.977L290.069 506.006L233.607 541.283H230.482L288.752 504.878L263.04 482.703L200.273 523.012V521.041L261.733 481.555L235.028 458.533L200.273 481.013V479.042L233.725 457.409L202.081 430.12L200.273 431.155V429.247L200.764 428.976L200.273 428.563V426.375L202.273 428.104L210.293 423.531L173.784 392.058V389.87L211.817 422.644L241.981 405.447L209.964 377.25C210.507 376.977 211.064 376.735 211.635 376.526L243.5 404.579L289.43 378.374L286.432 375.486L235.244 326.155L173.784 364.562V362.591L234.02 324.973L209.065 300.93L173.784 323.598V321.627L207.841 299.763L182.591 275.435L173.784 281.131V279.16L181.367 274.257L173.784 266.929V264.638ZM317.369 405.289L275.247 432.529L301.751 455.862L342.619 429.622L317.369 405.289ZM273.802 433.485L245.54 451.718L272.274 474.765L300.286 456.769L273.802 433.485ZM350.703 383.716L318.794 404.348L344.044 428.681L377.084 407.492L350.703 383.716ZM404.733 432.386L378.362 408.635L345.273 429.883L370.238 453.94L404.733 432.386ZM370.071 516.024L405.141 489.868L370.022 456.029L330.215 480.909L370.071 516.024ZM328.898 479.771L368.793 454.847L343.838 430.8L303.048 456.995L328.898 479.771ZM299.412 498.186L327.424 480.683L301.594 457.927L273.581 475.913L299.412 498.186ZM290.222 503.936L297.942 499.107L272.132 476.849L264.49 481.747L290.222 503.936ZM263.192 480.624L270.824 475.721L244.095 452.674L236.482 457.601L263.192 480.624ZM211.62 424.68L203.605 429.247L235.175 456.473L242.787 451.545L211.62 424.68ZM243.294 406.6L213.144 423.802L244.237 450.609L272.515 432.322L243.294 406.6ZM244.812 405.733L273.955 431.391L316.14 404.111L290.669 379.571L244.812 405.733ZM271.419 301.605L303.461 281.584L276.491 257.636L245.038 277.839L271.419 301.605ZM235.465 324.091L269.959 302.537L243.584 278.756L210.5 300.004L235.465 324.091ZM209.251 298.831L242.286 277.642L215.906 253.881L183.996 274.518L209.251 298.831Z" fill="url(#paint6_linear_3209_2553)"/>
<g opacity="0.49">
<path d="M419.406 152.922L295.41 245.4L296.398 246.731L419.406 154.987V152.922Z" fill="url(#paint7_linear_3209_2553)"/>
<path d="M173.783 253.58V255.537L419.406 102.069V100.117L173.783 253.58Z" fill="url(#paint8_linear_3209_2553)"/>
<path d="M173.783 172.485V174.456L336.977 68.9298H333.93L173.783 172.485Z" fill="url(#paint9_linear_3209_2553)"/>
<path d="M400.425 68.9298L173.786 214.469V216.44L403.438 68.9742C403.049 68.9446 402.651 68.9298 402.248 68.9298H400.425Z" fill="url(#paint10_linear_3209_2553)"/>
<path d="M173.783 122.691V124.598L271.344 68.9298H268.002L173.783 122.691Z" fill="url(#paint11_linear_3209_2553)"/>
<path d="M371.235 68.9298L419.406 111.697V109.49L373.727 68.9298H371.235Z" fill="url(#paint12_linear_3209_2553)"/>
<path d="M315.058 68.9298L419.406 162.896V160.669L317.53 68.9298H315.058Z" fill="url(#paint13_linear_3209_2553)"/>
<path d="M259.943 68.9298L419.406 222.575V220.274L262.331 68.9298H259.943Z" fill="url(#paint14_linear_3209_2553)"/>
<path d="M183.479 70.6989L419.406 278.421V276.218L185.17 69.9696C184.592 70.1785 184.028 70.4221 183.479 70.6989Z" fill="url(#paint15_linear_3209_2553)"/>
<path d="M173.783 119.823V122.006L419.406 333.778V331.59L173.783 119.823Z" fill="url(#paint16_linear_3209_2553)"/>
</g>
<path opacity="0.6" d="M393.05 229.543L348.599 258.464C347.907 258.909 347.102 259.146 346.279 259.146C345.457 259.146 344.652 258.909 343.96 258.464L304.978 233.643C304.221 233.15 303.637 232.431 303.311 231.587C302.985 230.742 302.932 229.816 303.162 228.94C303.391 228.065 303.89 227.284 304.588 226.709C305.285 226.134 306.146 225.794 307.047 225.739L390.485 221.639C394.863 221.422 396.706 227.153 393.05 229.543Z" fill="#322D6A"/>
<path opacity="0.6" d="M230.55 213.109L264.523 269.521L244.802 280.53L222.726 246.415L198.759 241.34L191.982 215.529L226.329 211.069C227.154 210.961 227.992 211.097 228.742 211.459C229.492 211.821 230.12 212.395 230.55 213.109Z" fill="#322D6A"/>
<path d="M267.78 416.642C267.932 415.47 283.015 299.181 284.356 286.295C285.664 273.572 227.393 149.236 221.57 136.838L309.734 103.182V64.5984H308.083V102.049L219.314 135.932L219.692 136.74C241.945 183.986 283.752 276.001 282.715 286.147C281.398 299.014 266.296 415.253 266.143 416.45L267.78 416.642Z" fill="white"/>
<path opacity="0.68" d="M234.422 68.9298C234.422 68.9298 256.798 102.073 254.321 109.8C251.844 117.527 258.193 196.237 258.193 196.237C258.193 196.237 282.205 236.185 283.537 236.185C284.869 236.185 316.503 263.815 316.503 263.815L324.278 304.715L419.406 378.039V398.198C419.406 398.198 324.189 321.203 316.503 313.742C308.817 306.282 306.365 266.85 300.988 263.805C295.612 260.76 249.711 215.346 246.236 210.704C242.762 206.062 240.285 115.713 240.285 106.287C240.285 96.86 220.441 68.9446 220.441 68.9446L234.422 68.9298Z" fill="url(#paint17_linear_3209_2553)"/>
<path d="M349.533 307.238L419.406 345.462V268.511L396.608 256.98C394.503 255.916 392.075 255.686 389.808 256.336C387.541 256.986 385.602 258.469 384.376 260.489L383.605 261.76C382.457 263.655 380.678 265.082 378.583 265.789C376.488 266.496 374.21 266.437 372.154 265.623L366.886 263.539C365.714 263.075 364.46 262.852 363.2 262.885C361.941 262.917 360.7 263.204 359.553 263.728C358.406 264.252 357.377 265.002 356.526 265.934C355.674 266.866 355.019 267.96 354.6 269.152L345.174 295.85C344.43 297.958 344.46 300.263 345.259 302.35C346.058 304.437 347.573 306.171 349.533 307.238Z" fill="#322D6A"/>
<path d="M173.786 323.908V369.277L183.659 381.784C184.818 383.252 186.258 384.473 187.895 385.374C189.532 386.275 191.332 386.838 193.19 387.03C195.047 387.222 196.924 387.039 198.71 386.492C200.496 385.944 202.154 385.044 203.587 383.844L244.805 349.31L226.498 327.629L240.215 316.364C241.228 315.531 242.05 314.488 242.624 313.307C243.198 312.126 243.511 310.835 243.541 309.521C243.572 308.208 243.319 306.903 242.8 305.697C242.281 304.491 241.508 303.411 240.534 302.532L226.331 289.72C224.698 288.248 222.589 287.418 220.393 287.384C218.197 287.349 216.063 288.113 214.384 289.533L173.786 323.908Z" fill="#36477F"/>
<path d="M389.27 151.937L349.463 113.033C347.529 111.147 344.989 110.012 342.297 109.831C339.605 109.651 336.937 110.436 334.769 112.047L277.826 154.317C268.857 160.974 273.83 175.25 284.981 174.86L381.751 171.485C391.737 171.14 396.44 158.934 389.27 151.937Z" fill="#36477F"/>
<path opacity="0.71" d="M175.498 190.412V250.412C175.498 255.67 179.218 259.917 183.799 259.917H419.406V180.902H183.799C179.218 180.902 175.498 185.159 175.498 190.412Z" fill="#322D6A"/>
<path d="M175.507 166.676V226.675C175.507 231.928 179.222 236.181 183.802 236.181H473.4C476.928 236.181 479.941 233.658 481.14 230.105C481.512 228.993 481.7 227.828 481.695 226.655V166.676C481.695 161.423 477.98 157.16 473.4 157.16H183.802C179.222 157.16 175.507 161.423 175.507 166.676Z" fill="url(#paint18_linear_3209_2553)"/>
<g opacity="0.58">
<path d="M439.356 188.382C439.641 182.932 441.857 179.896 444.334 178.216C446.549 176.788 449.142 176.061 451.774 176.132C451.776 176.155 451.776 176.178 451.774 176.201V176.132C451.774 176.132 463.51 175.343 464.193 188.382C464.434 193.004 462.95 197.607 460.925 201.633C458.504 206.296 455.422 210.584 451.774 214.361V214.242C451.776 214.282 451.776 214.321 451.774 214.361C451.774 214.361 438.672 201.421 439.356 188.382ZM451.789 194.266C453.058 194.264 454.298 193.885 455.352 193.177C456.406 192.468 457.227 191.463 457.711 190.287C458.196 189.111 458.322 187.818 458.073 186.57C457.825 185.323 457.213 184.177 456.316 183.278C455.418 182.378 454.275 181.766 453.031 181.518C451.786 181.27 450.497 181.397 449.324 181.884C448.152 182.371 447.15 183.195 446.444 184.252C445.739 185.31 445.362 186.553 445.361 187.825C445.356 188.673 445.52 189.513 445.841 190.296C446.163 191.08 446.636 191.792 447.234 192.391C447.832 192.99 448.542 193.464 449.324 193.786C450.106 194.108 450.944 194.271 451.789 194.266Z" fill="url(#paint19_linear_3209_2553)"/>
<path d="M360.444 179.719H422.587C423.247 179.719 423.781 180.255 423.781 180.917V183.159C423.781 183.82 423.247 184.356 422.587 184.356H360.444C359.785 184.356 359.25 183.82 359.25 183.159V180.917C359.25 180.255 359.785 179.719 360.444 179.719Z" fill="url(#paint20_linear_3209_2553)"/>
<path d="M317.696 179.719H349.876C350.536 179.719 351.07 180.255 351.07 180.917V183.159C351.07 183.82 350.536 184.356 349.876 184.356H317.696C317.037 184.356 316.502 183.82 316.502 183.159V180.917C316.502 180.255 317.037 179.719 317.696 179.719Z" fill="url(#paint21_linear_3209_2553)"/>
<path d="M383.797 193.916H422.587C423.247 193.916 423.781 194.452 423.781 195.113V197.355C423.781 198.017 423.247 198.553 422.587 198.553H383.797C383.138 198.553 382.603 198.017 382.603 197.355V195.113C382.603 194.452 383.138 193.916 383.797 193.916Z" fill="url(#paint22_linear_3209_2553)"/>
<path d="M354.059 193.916H374.704C375.364 193.916 375.898 194.452 375.898 195.113V197.355C375.898 198.017 375.364 198.553 374.704 198.553H354.059C353.399 198.553 352.865 198.017 352.865 197.355V195.113C352.865 194.452 353.399 193.916 354.059 193.916Z" fill="url(#paint23_linear_3209_2553)"/>
<path d="M383.797 206.067H422.587C423.247 206.067 423.781 206.604 423.781 207.265V209.507C423.781 210.168 423.247 210.704 422.587 210.704H383.797C383.138 210.704 382.603 210.168 382.603 209.507V207.265C382.603 206.604 383.138 206.067 383.797 206.067Z" fill="url(#paint24_linear_3209_2553)"/>
<path d="M205.778 179.719H247.212C247.872 179.719 248.406 180.255 248.406 180.917V183.159C248.406 183.82 247.872 184.356 247.212 184.356H205.778C205.119 184.356 204.584 183.82 204.584 183.159V180.917C204.584 180.255 205.119 179.719 205.778 179.719Z" fill="url(#paint25_linear_3209_2553)"/>
<path d="M221.637 193.916H247.212C247.872 193.916 248.406 194.452 248.406 195.113V197.355C248.406 198.017 247.872 198.553 247.212 198.553H221.637C220.978 198.553 220.443 198.017 220.443 197.355V195.113C220.443 194.452 220.978 193.916 221.637 193.916Z" fill="url(#paint26_linear_3209_2553)"/>
<path d="M221.637 206.067H247.212C247.872 206.067 248.406 206.604 248.406 207.265V209.507C248.406 210.168 247.872 210.704 247.212 210.704H221.637C220.978 210.704 220.443 210.168 220.443 209.507V207.265C220.443 206.604 220.978 206.067 221.637 206.067Z" fill="url(#paint27_linear_3209_2553)"/>
<path d="M277.443 176.945C281.249 176.945 284.97 178.077 288.135 180.197C291.3 182.318 293.767 185.332 295.223 188.858C296.679 192.385 297.06 196.265 296.317 200.008C295.574 203.751 293.741 207.19 291.049 209.888C288.357 212.587 284.928 214.424 281.194 215.168C277.461 215.912 273.591 215.529 270.074 214.068C266.558 212.607 263.553 210.133 261.439 206.959C259.325 203.785 258.197 200.053 258.198 196.237C258.198 193.703 258.695 191.194 259.663 188.853C260.63 186.512 262.048 184.385 263.835 182.594C265.622 180.802 267.743 179.381 270.078 178.412C272.413 177.443 274.916 176.944 277.443 176.945ZM277.443 212.749C280.699 212.748 283.883 211.779 286.591 209.964C289.298 208.149 291.408 205.57 292.654 202.552C293.899 199.535 294.225 196.215 293.589 193.012C292.953 189.809 291.384 186.868 289.081 184.559C286.777 182.25 283.843 180.678 280.649 180.041C277.454 179.404 274.143 179.732 271.134 180.981C268.126 182.231 265.554 184.348 263.744 187.063C261.935 189.779 260.969 192.971 260.969 196.237C260.969 198.406 261.396 200.553 262.223 202.557C263.051 204.561 264.265 206.381 265.795 207.915C267.324 209.448 269.14 210.664 271.139 211.494C273.138 212.323 275.28 212.75 277.443 212.749Z" fill="url(#paint28_linear_3209_2553)"/>
<path d="M266.159 206.61L275.629 197.114C275.497 196.859 275.423 196.578 275.411 196.292C275.399 196.005 275.449 195.719 275.559 195.454C275.668 195.189 275.834 194.951 276.045 194.757C276.256 194.562 276.506 194.417 276.779 194.33V183.035C276.771 182.944 276.782 182.851 276.812 182.764C276.841 182.677 276.889 182.596 276.951 182.529C277.013 182.461 277.089 182.406 277.173 182.369C277.257 182.332 277.348 182.313 277.44 182.313C277.532 182.313 277.623 182.332 277.707 182.369C277.791 182.406 277.867 182.461 277.929 182.529C277.991 182.596 278.038 182.677 278.068 182.764C278.097 182.851 278.109 182.944 278.101 183.035V194.33C278.362 194.418 278.602 194.56 278.807 194.746C279.011 194.931 279.175 195.157 279.289 195.409C279.403 195.661 279.464 195.933 279.468 196.21C279.473 196.486 279.421 196.76 279.315 197.016C279.21 197.271 279.053 197.502 278.855 197.695C278.657 197.887 278.422 198.036 278.164 198.134C277.906 198.231 277.63 198.275 277.355 198.261C277.08 198.247 276.81 198.177 276.563 198.055L267.092 207.551C266.966 207.662 266.801 207.72 266.633 207.714C266.465 207.708 266.305 207.638 266.186 207.518C266.068 207.399 265.999 207.238 265.994 207.069C265.988 206.901 266.047 206.736 266.159 206.61Z" fill="url(#paint29_linear_3209_2553)"/>
</g>
<path opacity="0.43" d="M429.42 157.16L444.336 178.231L447.658 182.912L455.074 193.359L460.947 201.633L481.14 230.105C481.512 228.993 481.7 227.828 481.695 226.655V166.676C481.695 161.423 477.98 157.16 473.4 157.16H429.42Z" fill="#322D6A"/>
<path d="M41.5388 389.195C45.1755 319.902 107.52 324.09 107.52 324.09C107.52 324.09 107.559 324.209 107.643 324.435V324.09C107.643 324.09 170.007 319.902 173.644 389.195C177.28 458.488 107.653 527.264 107.653 527.264H97.2979L98.846 517.902C80.3038 496.806 38.7179 443.163 41.5388 389.195ZM141.724 386.239C141.725 379.469 139.724 372.851 135.974 367.221C132.224 361.592 126.893 357.204 120.655 354.613C114.418 352.021 107.554 351.343 100.932 352.663C94.3102 353.983 88.2274 357.243 83.453 362.029C78.6785 366.816 75.4269 372.915 74.1094 379.554C72.7919 386.194 73.4676 393.076 76.0511 399.331C78.6346 405.585 83.0098 410.931 88.6235 414.693C94.2372 418.454 100.837 420.461 107.589 420.461C116.642 420.461 125.325 416.855 131.726 410.436C138.128 404.017 141.724 395.311 141.724 386.234V386.239Z" fill="#5D2168"/>
<path d="M31.1824 389.195C34.824 319.902 97.1733 324.09 97.1733 324.09L97.3011 324.435V324.09C97.3011 324.09 159.655 319.902 163.292 389.195C166.929 458.488 97.3011 527.264 97.3011 527.264V526.619L97.1733 527.249C97.1733 527.249 27.5457 458.493 31.1824 389.195ZM97.2372 420.456C103.989 420.457 110.589 418.451 116.204 414.69C121.818 410.929 126.194 405.584 128.778 399.329C131.363 393.075 132.039 386.192 130.722 379.552C129.405 372.912 126.154 366.813 121.38 362.026C116.605 357.239 110.523 353.979 103.9 352.658C97.2783 351.338 90.4144 352.016 84.1767 354.607C77.939 357.199 72.6078 361.586 68.8573 367.216C65.1068 372.845 63.1055 379.464 63.1065 386.234C63.1065 395.31 66.7024 404.015 73.1031 410.433C79.5039 416.851 88.1852 420.456 97.2372 420.456Z" fill="url(#paint30_linear_3209_2553)"/>
<path d="M68.3414 197.592C67.5103 196.358 66.9261 194.974 66.6214 193.517C65.9678 190.151 66.5378 188.54 67.2848 187.702C66.9868 187.376 66.7384 187.007 66.5476 186.608C65.7908 185.002 66.1791 183.425 67.2946 182.548C66.564 180.974 66.3506 179.209 66.6853 177.507C67.7615 172.377 72.7595 170.204 78.0867 174.368C83.414 178.532 87.6699 174.634 95.9752 177.526C104.281 180.419 105.45 184.957 103.244 188.963C103.416 188.963 108.65 189.239 109.288 194.108C109.527 196.288 109.348 198.494 108.763 200.608C109.236 201.524 109.501 202.533 109.539 203.564C109.47 206.403 105.952 208.088 105.863 208.127C105.863 208.127 106.925 211.503 104.182 213.454C101.44 215.405 97.9459 214.001 97.9459 214.001L98.9681 211.936L75.0152 203.476C74.9415 203.914 74.8874 204.18 74.8874 204.18C74.8874 204.18 70.8281 204.747 69.1719 201.302C68.6124 200.147 68.3281 198.876 68.3414 197.592Z" fill="#5D2168"/>
<path d="M72.3623 192.965C72.3623 192.965 70.2638 202.002 72.3623 211.306C74.4607 220.609 80.5645 222.61 83.0757 223.329C84.5709 223.759 86.1375 223.879 87.6806 223.684L87.2382 228.715C87.2382 228.715 80.9478 240.808 89.3564 240.906C97.765 241.005 103.461 228.957 103.461 228.957C103.461 228.957 100.193 220.929 100.021 216.825C99.8487 212.72 100.144 208.605 100.886 207.807C101.628 207.009 103.117 208.3 104.385 205.225C105.653 202.15 102.846 198.705 101.018 198.819C99.1902 198.932 97.6716 206.812 96.8656 206.851C96.0597 206.89 94.7573 206.738 95.1161 205.545C95.4748 204.353 96.4774 201.386 96.0449 200.701C95.6124 200.016 91.1796 197.055 89.5775 194.837C87.9754 192.62 87.7051 191.61 87.7051 191.61C87.7051 191.61 85.5084 193.581 80.1959 193.699C74.8834 193.817 72.3623 192.965 72.3623 192.965Z" fill="url(#paint31_linear_3209_2553)"/>
<path d="M87.6709 223.684C87.6709 223.684 89.7497 223.718 92.0939 221.117C94.4381 218.515 96.7577 212.104 96.7577 212.104C96.7685 215.582 95.9585 219.013 94.3939 222.117C92.9148 225.136 90.3621 227.49 87.2384 228.715L87.6709 223.684Z" fill="#C65252"/>
<path d="M76.6949 206.2C76.6949 206.876 76.3164 207.418 75.884 207.408C75.4515 207.398 75.1124 206.846 75.1222 206.171C75.132 205.496 75.5006 204.954 75.9331 204.964C76.3656 204.973 76.7096 205.525 76.6949 206.2Z" fill="#5D2168"/>
<path d="M85.6089 205.471C85.6089 206.146 85.2354 206.683 84.8029 206.678C84.3705 206.674 84.0264 206.112 84.0412 205.437C84.0559 204.762 84.4147 204.224 84.8472 204.229C85.2796 204.234 85.6237 204.796 85.6089 205.471Z" fill="#5D2168"/>
<path d="M82.7793 202.15C83.487 201.371 84.3912 200.731 85.4921 200.888C86.6038 201.112 87.6276 201.653 88.4407 202.446C88.6815 202.687 89.0354 202.298 88.7946 202.061C87.8585 201.121 86.6421 200.512 85.3299 200.327C84.1602 200.258 83.1577 200.962 82.3812 201.805C82.3408 201.858 82.3215 201.924 82.3271 201.99C82.3327 202.056 82.3627 202.118 82.4114 202.163C82.46 202.208 82.5238 202.233 82.59 202.233C82.6563 202.234 82.7203 202.209 82.7695 202.165L82.7793 202.15Z" fill="#5D2168"/>
<path d="M73.2804 202.401C74.3517 201.416 75.7917 202.219 76.8188 202.845C77.1038 203.022 77.3446 202.559 77.0596 202.382C75.7917 201.608 74.165 200.854 72.8971 202.046C72.6514 202.278 73.0396 202.633 73.2804 202.401Z" fill="#5D2168"/>
<path opacity="0.44" d="M91.3828 211.887C90.8521 212.912 89.7709 213.405 88.9698 212.986C88.1688 212.567 87.9476 211.399 88.4784 210.369C89.0091 209.339 90.0903 208.852 90.8914 209.27C91.6924 209.689 91.9136 210.857 91.3828 211.887Z" fill="#C65252"/>
<path opacity="0.44" d="M75.6498 213.454C75.5147 213.63 75.3324 213.764 75.1242 213.84C74.916 213.916 74.6905 213.93 74.4742 213.882C74.258 213.834 74.0599 213.725 73.9032 213.568C73.7465 213.411 73.6377 213.213 73.5896 212.996C73.5414 212.779 73.556 212.553 73.6315 212.344C73.707 212.135 73.8403 211.952 74.0159 211.817C74.1914 211.681 74.4018 211.599 74.6224 211.579C74.8431 211.559 75.0647 211.603 75.2615 211.705C75.5424 211.887 75.7407 212.172 75.8134 212.5C75.886 212.827 75.8272 213.17 75.6498 213.454Z" fill="#C65252"/>
<path d="M80.6778 213.257C80.4568 213.292 80.2333 213.31 80.0095 213.311C79.8416 213.318 79.6743 213.289 79.518 213.227C79.34 213.137 79.186 213.006 79.0689 212.844C78.9518 212.682 78.8749 212.494 78.8448 212.296C78.688 211.662 78.7362 210.994 78.9824 210.389C79.0626 210.199 79.1528 210.013 79.2526 209.832C79.3407 209.673 79.4195 209.508 79.4885 209.339C79.7003 208.811 79.7194 208.225 79.5426 207.684C79.5111 207.592 79.5173 207.491 79.5596 207.403C79.6019 207.315 79.6771 207.248 79.7687 207.216C79.8145 207.2 79.8628 207.194 79.911 207.198C79.9591 207.202 80.0061 207.215 80.0491 207.237C80.0921 207.259 80.1303 207.289 80.1614 207.326C80.1926 207.363 80.2161 207.406 80.2306 207.452C80.4615 208.162 80.4371 208.931 80.1618 209.625C80.0816 209.814 79.9914 209.998 79.8915 210.177C79.8027 210.336 79.7239 210.501 79.6557 210.67C79.4706 211.128 79.4328 211.633 79.5475 212.114C79.6065 212.335 79.6949 212.488 79.7932 212.528C79.8627 212.552 79.9362 212.562 80.0095 212.557C80.6371 212.554 81.2526 212.384 81.7934 212.064C81.8347 212.041 81.8801 212.026 81.9273 212.02C81.9744 212.014 82.0222 212.018 82.0679 212.031C82.1136 212.043 82.1563 212.065 82.1936 212.095C82.2308 212.124 82.2618 212.161 82.2849 212.202C82.329 212.286 82.3398 212.384 82.3152 212.475C82.2906 212.566 82.2323 212.645 82.1522 212.695C81.7005 212.974 81.2002 213.165 80.6778 213.257Z" fill="#C65252"/>
<path d="M80.3287 216.775C80.3287 216.775 81.8424 218.796 83.6558 218.638C85.4692 218.48 86.4374 216.411 86.4668 215.809C86.4963 215.208 86.6339 214.715 86.4275 214.78C86.2211 214.844 84.3438 215.952 82.7564 216.016C81.1691 216.08 79.7439 215.765 80.3287 216.775Z" fill="#C65252"/>
<path d="M74.1716 230.908C74.1716 230.908 52.3466 263.731 51.3097 265.816C50.2727 267.9 70.1467 287.157 70.1467 287.157L74.4419 276.238C74.4419 276.238 64.0528 265.766 64.1757 265.269C64.2985 264.771 75.2085 254.354 77.2873 249.145C79.3661 243.937 77.8083 229.346 74.1716 230.908Z" fill="url(#paint32_linear_3209_2553)"/>
<path d="M68.4496 297.077C70.0075 297.077 106.379 302.285 112.616 310.623C114.159 312.688 115.382 314.521 116.405 316.088C119.52 320.868 120.788 323.135 123.526 321.563C127.167 319.478 133.399 302.286 132.372 280.924C131.782 268.826 127.723 252.836 124.317 241.226C121.697 232.357 119.471 226.049 119.471 226.049L105.873 226.217C105.873 226.217 93.4002 239.246 90.2845 240.285C87.1687 241.325 87.1637 226.739 87.1637 226.739C87.1637 226.739 74.6958 228.823 73.654 230.908C73.1625 231.893 73.251 239.778 73.3149 248.884C73.3886 259.277 73.4476 271.236 72.617 276.238C71.5752 282.496 69.3784 289.685 68.4938 293.775C68.0417 295.811 67.9287 297.077 68.4496 297.077Z" fill="url(#paint33_linear_3209_2553)"/>
<g opacity="0.4">
<path d="M126.125 297.077C125.85 298.176 120.97 307.504 116.405 316.088C119.52 320.868 120.788 323.135 123.526 321.563C127.167 319.478 133.399 302.286 132.372 280.924C131.782 268.826 127.723 252.836 124.317 241.226C119.987 237.693 115.923 238.196 114.183 241.847C114.183 241.847 110.547 264.254 104.31 266.855C98.0738 269.457 87.1637 266.855 87.1637 266.855L73.3149 248.884C73.3886 259.277 73.4476 271.236 72.617 276.238C71.5752 282.496 69.3784 289.685 68.4938 293.775C69.6603 294.159 70.8709 294.393 72.0961 294.47C75.723 294.47 126.646 295.017 126.125 297.077Z" fill="#322D6A"/>
</g>
<path d="M85.3422 290.794L80.585 261.228C80.5335 260.906 80.3691 260.613 80.1214 260.402C79.8737 260.19 79.5588 260.074 79.2335 260.075H64.8884C64.6884 260.075 64.4908 260.118 64.3096 260.203C64.1283 260.288 63.9678 260.411 63.8394 260.565C63.711 260.719 63.6178 260.899 63.5664 261.092C63.515 261.286 63.5066 261.489 63.5418 261.686L68.7708 291.252C68.8263 291.57 68.9918 291.858 69.2381 292.065C69.4844 292.272 69.7957 292.386 70.1173 292.386H83.9907C84.1889 292.385 84.3846 292.342 84.5644 292.259C84.7442 292.175 84.9038 292.054 85.0322 291.902C85.1607 291.751 85.2549 291.574 85.3084 291.382C85.3619 291.191 85.3735 290.99 85.3422 290.794Z" fill="#222149"/>
<path d="M90.282 276.755C90.282 276.755 84.0456 273.631 80.9445 273.631C77.8435 273.631 76.2709 274.153 76.2709 274.671C76.2709 275.188 77.3079 275.715 78.8658 276.238C79.5334 276.5 80.2322 276.674 80.9445 276.755C80.9445 276.755 74.1921 276.238 72.6342 276.755C71.0764 277.273 65.3559 273.631 65.3559 275.193C65.3559 276.755 63.7981 277.277 65.3559 277.8C66.9138 278.322 70.0345 279.884 71.5924 279.884H78.8658C78.8658 279.884 73.6712 280.924 71.5924 280.924C69.5136 280.924 65.356 278.84 64.84 279.362C64.7207 279.454 64.6241 279.572 64.5576 279.708C64.4911 279.843 64.4565 279.992 64.4565 280.143C64.4565 280.294 64.4911 280.443 64.5576 280.578C64.6241 280.714 64.7207 280.832 64.84 280.924C65.356 281.446 68.9976 283.008 70.5554 283.531C72.1133 284.053 77.3079 283.531 77.3079 283.531C77.3079 283.531 71.5923 285.615 71.0714 285.615C70.5505 285.615 64.319 281.969 64.319 283.008C64.319 284.048 63.2771 285.615 64.319 285.615C65.3609 285.615 71.5924 287.7 74.1921 288.217C76.7919 288.734 84.0652 285.615 85.6231 286.133C87.181 286.65 92.3755 286.133 92.3755 286.133C92.3755 286.133 94.9556 275.715 90.282 276.755Z" fill="url(#paint34_linear_3209_2553)"/>
<path d="M39.2975 439.33C41.3616 440.68 60.518 420.19 62.2725 416.8C64.0269 413.41 61.2257 410.192 59.4221 408.196C58.5906 407.032 57.8762 405.787 57.2892 404.481C54.6551 399.203 50.9545 390.462 50.9545 390.462L36.339 397.178C36.339 397.178 44.2021 409.862 42.5115 412.139C42.1125 412.765 41.7673 413.425 41.4795 414.11C39.0468 419.363 34.3585 432.342 34.0685 433.82C33.7295 435.575 37.2433 437.979 39.2975 439.33Z" fill="url(#paint35_linear_3209_2553)"/>
<path d="M39.2975 439.33C41.3616 440.68 60.518 420.19 62.2725 416.8C64.0269 413.41 61.2257 410.192 59.4221 408.196C58.5906 407.032 57.8762 405.787 57.2892 404.481C54.719 405.807 51.3182 407.723 50.065 409.172C47.9469 411.636 47.6323 416.071 46.3792 415.48C45.2439 414.952 44.7525 412.824 41.4647 414.095C39.0321 419.348 34.3437 432.327 34.0538 433.806C33.7294 435.575 37.2433 437.979 39.2975 439.33Z" fill="#222149"/>
<path d="M40.3938 463.278C41.9517 465.363 69.4921 452.861 72.6128 450.254C75.7334 447.648 74.1706 443.484 73.1042 440.892C72.8388 440.231 72.6128 438.585 72.4162 436.501C71.8363 430.41 71.5464 420.57 71.5464 420.57L54.0657 421.516C54.0657 421.516 57.0144 436.723 54.3999 438.27C53.7535 438.713 53.1437 439.207 52.5766 439.748C48.0357 443.888 38.1381 454.64 37.2535 455.965C36.2362 457.547 38.8359 461.194 40.3938 463.278Z" fill="url(#paint36_linear_3209_2553)"/>
<path d="M40.3938 463.278C41.9517 465.362 69.4921 452.861 72.6128 450.254C75.7334 447.647 74.1706 443.484 73.1042 440.892C72.8388 440.231 72.6128 438.585 72.4162 436.501C69.2857 436.802 65.079 437.363 63.2311 438.285C60.1154 439.847 58.0366 444.016 56.9996 442.976C56.056 442.03 56.4 439.793 52.5766 439.783C48.0357 443.922 38.1381 454.674 37.2535 456C36.2362 457.547 38.8359 461.194 40.3938 463.278Z" fill="#322D6A"/>
<path d="M37.2459 402.017C38.0666 404.146 38.6219 405.378 38.8135 405.466C40.3714 405.989 53.8812 402.342 55.444 398.696C57.0068 395.049 40.3714 339.82 42.4502 338.258C44.529 336.696 64.7421 325.322 73.9566 317.029L74.6693 316.374C80.3492 310.915 85.5636 304.989 90.2578 298.659C90.2578 298.659 73.1065 296.052 69.9907 297.097C66.875 298.141 13.8728 314.289 13.3519 322.105C12.9194 328.92 31.55 387.165 37.2459 402.017Z" fill="#222149"/>
<path d="M33.643 339.278C35.7218 339.8 37.8006 348.64 39.3585 353.346C40.9164 358.052 46.0961 391.901 46.0961 393.463C46.0961 394.295 41.5257 398.39 37.2502 402.017C38.0709 404.146 38.6262 405.378 38.8178 405.466C40.3757 405.989 53.8855 402.342 55.4483 398.696C57.0111 395.049 40.3757 339.82 42.4545 338.258C44.5333 336.696 64.7464 325.323 73.9609 317.029L72.1475 309.559C72.1475 309.559 41.9336 329.398 37.2551 332.004C32.5766 334.611 31.5642 338.755 33.643 339.278Z" fill="#0F0F28"/>
<path d="M51.7167 421.821C51.756 422.807 51.7904 423.462 51.8248 423.684C52.3457 426.808 70.534 425.768 73.6498 423.684C76.7655 421.6 76.7705 343.446 77.8074 341.884C78.8443 340.322 91.3172 339.8 103.269 337.716C115.221 335.631 123.531 321.563 123.531 321.563C121.21 316.548 118.052 311.967 114.194 308.016C112.993 306.852 111.648 305.845 110.193 305.02C103.146 300.906 92.8553 299.068 90.2949 298.639C87.1743 298.117 52.8814 322.607 51.8395 326.234C50.8615 329.644 51.2449 408.384 51.7167 421.821Z" fill="#322D6A"/>
<path d="M51.7167 421.821C51.756 422.807 51.7904 423.462 51.8248 423.684C52.3457 426.808 70.534 425.769 73.6498 423.684C76.7655 421.6 76.7705 343.447 77.8074 341.884C78.8444 340.322 91.3172 339.8 103.269 337.716C115.221 335.631 123.531 321.563 123.531 321.563C121.21 316.548 118.052 311.967 114.194 308.016C112.993 306.852 111.648 305.845 110.193 305.02C109.471 313.028 106.886 322.188 99.1262 324.692C84.5795 329.378 68.47 331.985 67.4281 334.591C66.3863 337.198 70.0279 347.093 70.5488 354.908C71.0697 362.724 67.949 418.476 65.8702 419.515C64.9562 419.964 58.6214 420.9 51.7167 421.821Z" fill="#222149"/>
<path d="M117.296 226.217C117.296 226.217 111.58 234.554 113.138 241.847C114.696 249.14 123.527 273.109 120.412 274.671C117.296 276.233 87.6766 273.109 87.1556 274.671C86.6347 276.233 88.7135 292.386 90.2763 292.903C91.8391 293.421 138.079 289.257 140.679 284.565C143.278 279.874 132.363 222.58 117.296 226.217Z" fill="url(#paint37_linear_3209_2553)"/>
<path d="M471.376 262.879C471.262 266.634 500.941 291.785 503.531 292.484C506.121 293.184 508.17 290.385 508.887 288.754C509.241 287.936 506.022 282.747 502.567 277.391C499.113 272.034 495.466 266.55 494.886 265.072C493.731 262.066 494.527 240.359 494.527 240.359C494.601 238.161 480.836 236.205 480.836 236.205C480.836 236.205 479.784 249.426 479.293 252.063C479.206 252.428 479.055 252.776 478.845 253.087C477.15 255.734 471.469 259.577 471.376 262.879Z" fill="url(#paint38_linear_3209_2553)"/>
<path d="M471.376 262.879C471.262 266.634 500.941 291.785 503.531 292.484C506.121 293.184 508.17 290.385 508.887 288.754C509.241 287.936 506.022 282.747 502.567 277.391C499.496 276.824 495.864 275.701 493.014 273.503C486.91 268.777 489.544 256.167 478.845 253.068C477.15 255.734 471.469 259.577 471.376 262.879Z" fill="#5D2168"/>
<path d="M474.888 162.186C476.622 163.344 476.622 182.779 477.202 194.379C477.782 205.979 479.227 239.048 479.517 241.079C479.723 242.557 487.198 245.134 492.452 246.065C494.383 246.41 496.015 246.529 496.875 246.297C500.054 245.43 503.814 148.551 502.369 143.333C500.924 138.115 461.004 126.49 461.004 126.49C461.004 126.49 450.428 124.977 442.904 127.638C439.012 129.013 435.936 131.497 435.533 135.877C434.368 148.753 473.153 161.023 474.888 162.186Z" fill="#381F3D"/>
<path d="M474.889 162.186C476.624 163.344 476.624 182.779 477.204 194.379C477.784 205.979 479.228 239.048 479.518 241.079C479.725 242.557 487.2 245.134 492.453 246.065C491.357 244.622 487.229 239.078 486.605 236.185C485.887 232.84 483.47 162.186 483.47 159.092C483.47 155.997 463.812 154.455 455.698 149.034C450.395 145.491 445.589 134.69 442.921 127.658C439.028 129.033 435.952 131.516 435.549 135.897C434.369 148.753 473.154 161.023 474.889 162.186Z" fill="#5D2168"/>
<path d="M535.349 273.562C537.472 276.652 576.232 279.362 578.739 278.396C581.245 277.43 581.245 273.961 580.862 272.212C580.665 271.34 575.009 269.063 569.067 266.791C563.125 264.52 556.953 262.253 555.597 261.371C552.899 259.631 540.745 241.66 540.745 241.66C539.507 239.847 527.25 246.425 527.25 246.425C527.25 246.425 534.194 257.715 535.349 260.134C535.498 260.479 535.579 260.848 535.59 261.223C535.801 264.372 533.482 270.842 535.349 273.562Z" fill="url(#paint39_linear_3209_2553)"/>
<path d="M535.349 273.562C537.472 276.652 576.232 279.362 578.739 278.396C581.245 277.43 581.245 273.961 580.862 272.212C580.665 271.34 575.009 269.063 569.067 266.791C566.256 268.156 562.678 269.403 559.071 269.314C551.355 269.117 546.053 257.384 535.59 261.223C535.801 264.372 533.482 270.842 535.349 273.562Z" fill="#5D2168"/>
<path d="M417.623 123.041C417.623 123.041 416.641 154.652 431.443 160.166C446.245 165.68 476.616 164.517 477.196 165.675C477.776 166.833 492.529 212.951 506.122 228.617C519.716 244.282 528.395 250.077 528.395 250.077C528.395 250.077 547.487 244.567 545.173 239.926C542.858 235.284 497.168 142.752 492.249 139.849C487.33 136.947 446.152 126.86 437.001 125.347C427.85 123.834 417.564 118.113 417.623 123.041Z" fill="#5D2168"/>
<path d="M402.883 52.0327C416.462 53.0183 420.359 41.3741 420.472 41.0292C420.966 38.2591 421.295 35.4617 421.455 32.6521C422.256 22.2596 423.656 5.98345 440.808 1.7752C457.959 -2.43305 464.559 9.16673 464.559 9.16673C471.96 8.76759 473.533 27.3302 469.405 33.6081C465.277 39.886 460.613 43.6261 463.945 48.4503C467.277 53.2745 466.427 59.2912 466.427 59.2912C466.427 59.2912 463.212 109.751 450.464 126.845C437.716 143.939 418.521 136.464 416.663 126.845C414.805 117.226 414.796 121.769 400.146 106.814C400.146 106.814 376.704 103.941 375.908 82.5056C375.112 61.0701 389.123 51.0324 402.883 52.0327ZM382.906 91.0945C384.316 94.322 386.414 97.2009 389.051 99.5292C391.689 101.857 394.803 103.579 398.175 104.572L398.229 104.636C385.899 89.5078 390.204 66.121 404.682 59.2469L405.139 59.0202C398.75 59.1582 392.258 57.7094 386.901 62.2035C378.129 69.5654 378.129 80.0762 382.925 91.0945H382.906Z" fill="#5D2168"/>
<path d="M436.459 29.9468C436.459 29.9468 436.429 48.8298 426.954 53.0331C417.479 57.2364 410.491 60.2472 406.894 71.2655C403.296 82.2838 420.281 91.8978 414.084 98.5058C407.886 105.114 413.995 119.237 423.78 119.744C433.564 120.252 440.68 118.611 448.057 103.049C455.434 87.4875 467.223 60.2472 462.432 52.4319C457.64 44.6166 460.928 39.1715 464.579 33.8841C468.231 28.5967 463.233 23.7872 463.233 23.7872L436.459 29.9468Z" fill="#381F3D"/>
<path d="M438.496 34.9139C438.532 36.1498 438.445 37.3862 438.236 38.6047C437.882 40.7236 441.425 45.5971 441.425 45.5971L441.337 46.3166C441.337 46.3166 440.462 51.7765 437.897 53.4617C435.331 55.147 439.627 66.3131 439.627 66.3131L453.009 67.412C453.009 67.412 458.321 54.3487 457.225 52.4121C456.129 50.4755 453.009 50.2094 453.009 50.2094C452.88 50.2635 452.741 50.2895 452.602 50.2856C452.462 50.2818 452.325 50.2482 452.2 50.1871C452.074 50.1261 451.963 50.0389 451.874 49.9315C451.784 49.824 451.719 49.6987 451.682 49.5639C451.387 48.9283 451.234 47.7653 451.485 45.6563C451.485 45.6563 456.517 45.0107 461.437 39.1714C466.356 33.3321 463.997 17.6276 463.997 17.6276C462.68 20.6827 457.466 22.3286 451.431 24.3686C445.396 26.4087 442.836 28.8085 442.197 29.4146C441.558 30.0207 441.253 30.0256 441.253 30.0256C441.253 30.0256 440.796 26.7241 438.938 24.7875C437.081 22.8509 435.228 23.6196 435.41 28.025C435.503 30.6371 436.611 33.1092 438.496 34.9139Z" fill="url(#paint40_linear_3209_2553)"/>
<path d="M451.703 49.5639L451.507 45.6562C451.256 47.7653 451.408 48.9282 451.703 49.5639Z" fill="white"/>
<path d="M451.501 45.6562L445.977 46.0406L451.781 51.2295L451.501 45.6562Z" fill="#C65252"/>
<path d="M465.875 30.6219C465.673 33.3568 463.717 35.456 461.506 35.2934C459.294 35.1308 457.663 32.7753 457.859 30.0356C457.884 29.7474 457.927 29.461 457.987 29.1781C456.513 28.2911 455.53 29.0007 455.299 29.2126C455.299 29.4245 455.299 29.6364 455.299 29.8483C455.102 32.5881 453.166 34.6824 450.984 34.5247C448.802 34.367 447.19 32.0116 447.387 29.2718C447.433 28.6527 447.574 28.0445 447.804 27.4682C446.651 27.2569 445.475 27.1923 444.305 27.276C443.723 27.2832 443.154 27.4459 442.655 27.7474C442.157 28.0488 441.747 28.478 441.47 28.9909L440.841 28.6509C441.167 28.013 441.659 27.475 442.264 27.0935C442.869 26.712 443.566 26.501 444.281 26.4827C445.582 26.3883 446.889 26.4711 448.168 26.7291C448.964 25.3592 450.281 24.4919 451.706 24.5954C453.476 24.7284 454.866 26.2954 455.23 28.3404C455.687 28.0731 456.209 27.9381 456.739 27.9503C457.268 27.9625 457.783 28.1214 458.228 28.4094C458.916 26.5172 460.498 25.236 462.243 25.3641C464.435 25.5267 466.071 27.8822 465.875 30.6219ZM454.571 29.799C454.739 27.4978 453.417 25.5218 451.623 25.3641C449.829 25.2064 448.232 27.0001 448.065 29.3063C447.898 31.6124 449.225 33.5835 451.013 33.7165C452.802 33.8496 454.419 32.1003 454.586 29.799H454.571ZM465.157 30.5677C465.324 28.2665 463.978 26.2905 462.154 26.1328C460.331 25.9751 458.714 27.7639 458.547 30.075C458.38 32.3861 459.727 34.3522 461.55 34.4853C463.373 34.6183 465.005 32.864 465.172 30.5677H465.157Z" fill="white"/>
<path d="M452.371 30.1193C452.326 30.7402 451.958 31.2182 451.545 31.1886C451.132 31.159 450.837 30.6318 450.882 30.0109C450.926 29.39 451.294 28.9169 451.707 28.9465C452.12 28.9761 452.415 29.5033 452.371 30.1193Z" fill="#B02773"/>
<path d="M462.019 30.824C461.975 31.4449 461.601 31.918 461.193 31.8884C460.786 31.8588 460.481 31.3316 460.525 30.7156C460.569 30.0997 460.943 29.6167 461.356 29.6463C461.768 29.6759 462.063 30.2031 462.019 30.824Z" fill="#B02773"/>
<path d="M456.066 33.0809C456.234 33.7457 456.36 34.4205 456.444 35.1012C456.479 35.3525 456.611 35.8453 456.444 36.0867C456.277 36.3282 455.633 36.412 455.432 36.4957C455.004 36.6682 455.314 37.3729 455.737 37.2053C456.326 36.9639 457.181 36.8703 457.211 36.0178C457.186 34.9721 457.02 33.9345 456.719 32.933C456.714 32.8822 456.698 32.833 456.673 32.7889C456.647 32.7447 456.612 32.7065 456.571 32.6768C456.529 32.6471 456.482 32.6267 456.432 32.6168C456.382 32.6069 456.33 32.6078 456.281 32.6195C456.231 32.6311 456.185 32.6532 456.144 32.6843C456.104 32.7154 456.07 32.7548 456.046 32.7999C456.022 32.845 456.008 32.8946 456.005 32.9456C456.001 32.9966 456.009 33.0478 456.027 33.0956L456.066 33.0809Z" fill="#C65252"/>
<path d="M450.523 37.7425C450.946 38.6837 451.339 39.5312 452.164 40.093C453.085 40.6281 454.115 40.9434 455.177 41.0145C455.629 41.0785 455.668 40.2852 455.236 40.2211C454.298 40.167 453.386 39.899 452.567 39.4376C451.85 38.9448 451.52 38.2057 451.157 37.3877C450.96 36.9343 450.321 37.2891 450.523 37.7425Z" fill="#C65252"/>
<path d="M459.27 52.2594C459.27 52.2594 466.499 56.5761 467.079 57.1871C467.659 57.7981 476.908 88.0394 477.782 89.0101C478.657 89.9809 496.875 103.611 496.875 103.611L489.213 110.859C489.213 110.859 475.178 101.29 472.863 100.132C470.548 98.9739 466.194 87.3692 466.194 87.3692C466.194 87.3692 463.029 100.536 463.324 106.287C463.619 112.037 470.553 132.896 468.819 134.645C467.084 136.395 463.614 136.892 463.034 135.912C462.454 134.931 459.221 104.754 459.221 104.754L457.54 79.2484L459.27 52.2594Z" fill="url(#paint41_linear_3209_2553)"/>
<path d="M428.881 51.6533L429.864 71.0832L432.66 126.49C432.66 126.49 439.634 127.126 446.696 127.402C453.129 127.648 459.631 127.599 461.007 126.49C461.818 125.84 462.083 124.647 462.029 123.075C461.901 119.025 459.69 112.451 459.272 106.188C458.781 98.5748 461.798 90.518 464.501 83.5749C464.894 82.5893 465.273 81.6038 465.636 80.6626C468.526 73.1232 459.272 52.2397 459.272 52.2397L452.328 49.9187C452.328 49.9187 452.328 51.0767 453.488 54.5606C454.648 58.0445 451.748 60.3605 450.013 59.1976C448.279 58.0346 441.914 51.0768 440.184 49.9187C438.455 48.7607 428.881 51.6533 428.881 51.6533Z" fill="url(#paint42_linear_3209_2553)"/>
<g opacity="0.46">
<path d="M429.858 71.0832L432.659 126.49C432.659 126.49 439.633 127.126 446.695 127.402L447.535 123.075H462.028C461.9 119.025 459.689 112.451 459.271 106.188C458.78 98.5748 461.797 90.5181 464.5 83.5749L452.907 84.1416L443.078 67.8802L429.858 71.0832Z" fill="#B78DAE"/>
</g>
<path d="M408.358 129.989C408.938 134.631 434.975 136.37 438.444 135.789C441.914 135.207 440.759 133.473 443.074 121.287C443.123 121.025 443.172 120.754 443.221 120.469C443.506 118.813 443.772 116.827 444.017 114.605C444.509 110.007 444.892 104.409 445.103 98.6832C445.212 95.6084 445.266 92.499 445.266 89.4882C445.266 82.7471 444.941 76.484 444.219 72.192C444.014 70.726 443.63 69.291 443.074 67.9197C439.919 61.0652 429.112 51.811 427.176 50.18L426.871 49.9336C424.546 49.4704 417.902 55.3196 415.371 57.6504C414.796 58.1727 414.437 58.5127 414.388 58.5669C415.903 63.0483 417.096 67.633 417.956 72.2856C418.688 76.3805 419.116 80.7415 418.659 84.3781C418.472 85.8565 418.113 87.7585 417.632 89.9612C414.811 102.916 407.867 126.022 408.358 129.989Z" fill="url(#paint43_linear_3209_2553)"/>
<path opacity="0.62" d="M417.624 89.976C417.624 89.976 423.394 114.329 425.708 117.226C427.276 119.197 437.056 120.094 443.213 120.469C443.498 118.813 443.764 116.827 444.01 114.605C444.501 110.007 444.884 104.409 445.096 98.6832C445.204 95.6083 445.258 92.499 445.258 89.4881C444.476 89.2073 443.7 88.9658 443.066 88.8032C440.751 88.2217 431.424 68.9298 431.424 68.9298C431.424 68.9298 424.887 70.3145 417.958 72.2856C418.69 76.3805 419.118 80.7415 418.661 84.3781C418.474 85.8613 418.115 87.7733 417.624 89.976Z" fill="#B72963"/>
<path d="M512.475 98.284L504.696 124.278C504.607 124.589 504.418 124.862 504.159 125.055C503.899 125.248 503.584 125.351 503.261 125.347H490.695C490.466 125.347 490.24 125.294 490.034 125.193C489.829 125.091 489.649 124.944 489.509 124.763C489.369 124.581 489.272 124.369 489.227 124.144C489.181 123.919 489.187 123.687 489.245 123.465L496.012 97.4709C496.091 97.1462 496.277 96.8579 496.541 96.653C496.804 96.448 497.129 96.3386 497.462 96.3425H511.06C511.292 96.3464 511.521 96.4042 511.727 96.5113C511.933 96.6185 512.112 96.7722 512.249 96.9603C512.386 97.1485 512.478 97.3659 512.517 97.5955C512.557 97.8252 512.542 98.0609 512.475 98.284Z" fill="#5D2168"/>
<path d="M484.73 109.105C484.73 109.105 493.404 106.779 496.298 106.779C499.193 106.779 501.503 105.621 500.928 106.779C500.353 107.937 500.348 108.524 498.613 109.1L495.139 110.263H504.967C507.282 110.263 508.437 109.1 508.437 110.263C508.437 111.426 507.282 112.003 506.122 112.584C504.962 113.166 501.493 113.161 500.338 113.161C499.708 113.191 499.09 112.985 498.603 112.584C498.603 112.584 499.758 114.324 500.918 114.324C502.078 114.324 507.307 114.324 507.857 113.742C508.407 113.161 509.017 112.584 508.437 113.742C507.857 114.9 506.702 117.221 505.542 117.221C504.383 117.221 500.918 117.803 499.183 117.221C498.058 116.866 496.888 116.671 495.709 116.645C495.709 116.645 498.603 117.803 499.758 118.384C500.913 118.966 507.282 117.221 507.282 117.803C507.282 118.384 506.702 120.124 506.122 120.124C505.542 120.124 498.023 121.282 495.709 121.282C493.394 121.282 488.769 117.221 484.72 116.645C480.67 116.068 480.675 108.529 484.73 109.105Z" fill="url(#paint44_linear_3209_2553)"/>
<path d="M416.46 57.5025C416.46 57.5025 425.714 55.1815 429.184 63.3023C432.653 71.4232 440.177 94.0511 444.227 98.1116C448.276 102.172 485.882 102.749 486.462 105.651C487.041 108.553 485.882 119.572 483.567 120.735C481.252 121.898 435.548 113.19 431.474 112.032C427.4 110.874 406.047 56.8963 416.46 57.5025Z" fill="url(#paint45_linear_3209_2553)"/>
<path d="M430.925 56.8964L429.765 59.2173L444.219 72.1919C444.014 70.726 443.629 69.291 443.074 67.9196C439.919 61.0652 429.112 51.811 427.176 50.1799C426.65 51.3823 426.021 52.8064 425.701 53.4125C425.136 54.5804 432.08 54.5804 430.925 56.8964Z" fill="white"/>
<path d="M428.611 120.71C428.611 120.71 421.062 116.635 420.512 116.635C419.961 116.635 416.462 121.272 416.462 121.272L426.871 125.332C426.871 125.332 429.766 121.287 428.611 120.71Z" fill="#FF6575"/>
<path d="M357.852 407.186C357.851 410.524 358.837 413.788 360.686 416.564C362.535 419.34 365.163 421.504 368.239 422.782C371.315 424.061 374.699 424.395 377.964 423.745C381.23 423.094 384.229 421.487 386.584 419.127C388.938 416.767 390.542 413.76 391.192 410.486C391.842 407.212 391.509 403.818 390.235 400.734C388.961 397.649 386.804 395.013 384.036 393.158C381.267 391.304 378.013 390.314 374.684 390.314C372.472 390.307 370.28 390.738 368.235 391.583C366.19 392.429 364.332 393.671 362.768 395.239C361.203 396.807 359.964 398.67 359.12 400.721C358.276 402.771 357.845 404.968 357.852 407.186Z" fill="url(#paint46_linear_3209_2553)"/>
<path d="M369.987 404.168C369.378 401.569 370.985 398.967 373.577 398.356C376.169 397.745 378.764 399.356 379.373 401.955C379.983 404.554 378.375 407.156 375.783 407.767C373.192 408.378 370.596 406.767 369.987 404.168Z" fill="url(#paint47_linear_3209_2553)"/>
<path d="M363.362 419.688C366.46 422.513 370.497 424.079 374.685 424.079C378.873 424.079 382.91 422.513 386.008 419.688C385.428 417.372 384.848 415.144 384.47 413.898C383.841 411.833 380.794 411.409 379 411.261C376.054 411.059 373.097 411.08 370.154 411.325C368.394 411.454 365.52 411.882 364.905 413.898C364.517 415.13 363.937 417.357 363.362 419.688Z" fill="url(#paint48_linear_3209_2553)"/>
<path d="M219.618 327.638H369.429C370.119 327.638 370.803 327.774 371.441 328.038C372.079 328.302 372.659 328.69 373.147 329.18C373.635 329.669 374.023 330.25 374.287 330.889C374.551 331.529 374.688 332.214 374.687 332.906V370.702C374.688 371.394 374.551 372.079 374.287 372.719C374.023 373.358 373.635 373.939 373.147 374.428C372.659 374.917 372.079 375.305 371.441 375.57C370.803 375.834 370.119 375.97 369.429 375.969H359.143L360.563 384.878C360.644 385.376 360.576 385.886 360.369 386.345C360.161 386.804 359.823 387.191 359.397 387.458C358.97 387.725 358.475 387.86 357.973 387.845C357.47 387.831 356.983 387.668 356.573 387.377L342.38 377.354C341.902 377.021 341.554 376.531 341.397 375.969H219.618C218.927 375.97 218.244 375.834 217.606 375.57C216.968 375.305 216.388 374.917 215.9 374.428C215.411 373.939 215.024 373.358 214.76 372.719C214.495 372.079 214.359 371.394 214.359 370.702V332.906C214.359 332.214 214.495 331.529 214.76 330.889C215.024 330.25 215.411 329.669 215.9 329.18C216.388 328.69 216.968 328.302 217.606 328.038C218.244 327.774 218.927 327.638 219.618 327.638Z" fill="url(#paint49_linear_3209_2553)"/>
<path d="M333.171 352.543C333.17 355.142 333.938 357.682 335.377 359.843C336.817 362.005 338.863 363.689 341.257 364.684C343.651 365.679 346.286 365.94 348.828 365.433C351.37 364.926 353.705 363.675 355.538 361.837C357.37 360 358.618 357.658 359.123 355.11C359.629 352.561 359.369 349.919 358.377 347.518C357.384 345.117 355.704 343.066 353.549 341.623C351.394 340.179 348.86 339.41 346.268 339.411C344.547 339.407 342.843 339.745 341.252 340.404C339.662 341.062 338.217 342.03 337 343.25C335.783 344.47 334.819 345.919 334.162 347.514C333.505 349.108 333.168 350.817 333.171 352.543Z" fill="url(#paint50_linear_3209_2553)"/>
<path d="M346.266 353.07C344.195 353.07 342.516 351.387 342.516 349.31C342.516 347.234 344.195 345.551 346.266 345.551C348.337 345.551 350.016 347.234 350.016 349.31C350.016 351.387 348.337 353.07 346.266 353.07Z" fill="url(#paint51_linear_3209_2553)"/>
<path d="M337.458 362.265C339.87 364.463 343.013 365.681 346.272 365.681C349.531 365.681 352.674 364.463 355.086 362.265C354.634 360.462 354.187 358.732 353.892 357.757C353.4 356.15 351.032 355.82 349.631 355.707C347.34 355.551 345.04 355.568 342.751 355.756C341.385 355.854 339.144 356.19 338.667 357.757C338.357 358.732 337.91 360.462 337.458 362.265Z" fill="url(#paint52_linear_3209_2553)"/>
<path d="M245.697 342.082H321.379C321.873 342.082 322.273 342.483 322.273 342.978V344.649C322.273 345.144 321.873 345.546 321.379 345.546H245.697C245.203 345.546 244.802 345.144 244.802 344.649V342.978C244.802 342.483 245.203 342.082 245.697 342.082Z" fill="url(#paint53_linear_3209_2553)"/>
<path d="M274.78 352.543H321.379C321.873 352.543 322.273 352.945 322.273 353.44V355.11C322.273 355.606 321.873 356.007 321.379 356.007H274.78C274.286 356.007 273.886 355.606 273.886 355.11V353.44C273.886 352.945 274.286 352.543 274.78 352.543Z" fill="url(#paint54_linear_3209_2553)"/>
<path d="M293.575 32.5535C293.929 25.8322 296.657 22.0871 299.718 20.0076C302.45 18.2468 305.647 17.3522 308.894 17.4403L308.923 17.5241V17.4403C308.923 17.4403 323.401 16.4548 324.241 32.5535C324.541 38.2549 322.708 43.9365 320.207 48.9036C317.218 54.6599 313.41 59.9501 308.903 64.6082V64.4603L308.874 64.6082C308.874 64.6082 292.73 48.6326 293.575 32.5535ZM308.913 39.812C310.48 39.8111 312.012 39.3441 313.314 38.4702C314.616 37.5964 315.631 36.3549 316.23 34.9027C316.828 33.4506 316.984 31.8531 316.677 30.3123C316.37 28.7714 315.614 27.3565 314.505 26.2465C313.396 25.1365 311.983 24.3812 310.446 24.0762C308.909 23.7712 307.316 23.9302 305.869 24.5331C304.422 25.136 303.185 26.1557 302.316 27.4631C301.447 28.7706 300.984 30.3072 300.986 31.8784C300.989 33.9843 301.825 36.003 303.312 37.4907C304.798 38.9784 306.813 39.8133 308.913 39.812Z" fill="url(#paint55_linear_3209_2553)"/>
<path d="M339.702 411.567L315.621 388.643C314.39 387.468 312.801 386.739 311.108 386.575C309.416 386.411 307.717 386.82 306.284 387.737L275.47 407.369C274.438 408.026 273.579 408.924 272.966 409.986C272.353 411.047 272.005 412.242 271.95 413.467C271.896 414.692 272.137 415.913 272.653 417.025C273.169 418.137 273.945 419.108 274.915 419.855L290.715 432.022C291.601 432.705 292.626 433.184 293.717 433.425C294.809 433.666 295.94 433.663 297.03 433.416L336.144 424.546C337.489 424.242 338.726 423.578 339.723 422.623C340.721 421.668 341.441 420.46 341.806 419.127C342.171 417.794 342.169 416.386 341.798 415.055C341.428 413.723 340.703 412.518 339.702 411.567Z" fill="#322D6A"/>
<path d="M259.746 423.772C255.759 419.775 255.759 413.294 259.746 409.297C263.732 405.3 270.195 405.3 274.181 409.297C278.167 413.294 278.167 419.775 274.181 423.772C270.195 427.768 263.732 427.768 259.746 423.772Z" fill="url(#paint56_linear_3209_2553)"/>
<path d="M195.702 267.73C193.545 262.508 196.018 256.521 201.226 254.358C206.434 252.194 212.405 254.674 214.563 259.897C216.72 265.119 214.247 271.106 209.038 273.269C203.83 275.432 197.859 272.952 195.702 267.73Z" fill="url(#paint57_linear_3209_2553)"/>
<path d="M231.937 513.92L264.618 541.259H402.222C411.697 541.259 419.383 533.31 419.383 523.519V460.588L389.665 429.509C387.595 427.341 384.904 425.873 381.964 425.309C379.025 424.745 375.983 425.112 373.261 426.36L235.165 489.681C232.953 490.7 231.034 492.264 229.587 494.227C228.14 496.19 227.212 498.488 226.89 500.908C226.568 503.328 226.861 505.79 227.744 508.065C228.626 510.34 230.069 512.354 231.937 513.92Z" fill="#322D6A"/>
<path d="M173.781 393.172V455.566L197.468 436.348C198.991 435.114 200.247 433.581 201.159 431.844C202.072 430.107 202.622 428.201 202.776 426.244C202.93 424.287 202.685 422.319 202.055 420.459C201.426 418.6 200.425 416.889 199.115 415.43L183.389 397.898C180.913 395.14 177.471 393.447 173.781 393.172Z" fill="#322D6A"/>
<g opacity="0.64">
<path d="M390.591 443.74H200.196C198.017 443.74 195.927 444.608 194.386 446.153C192.845 447.698 191.979 449.794 191.979 451.979V467.373C191.979 469.559 192.845 471.656 194.387 473.202C195.929 474.748 198.02 475.617 200.201 475.617H390.591C392.771 475.617 394.862 474.748 396.404 473.202C397.946 471.656 398.812 469.559 398.812 467.373V451.984C398.812 449.797 397.946 447.7 396.404 446.154C394.862 444.608 392.771 443.74 390.591 443.74Z" fill="white"/>
</g>
<path d="M210.466 453.304C211.437 452.323 212.669 451.643 214.015 451.345C215.362 451.047 216.765 451.143 218.058 451.623C219.351 452.103 220.479 452.945 221.308 454.05C222.136 455.155 222.63 456.475 222.731 457.854C222.831 459.233 222.534 460.611 221.875 461.825C221.216 463.039 220.222 464.037 219.012 464.701C217.803 465.364 216.428 465.664 215.053 465.566C213.678 465.467 212.36 464.974 211.257 464.145L207.571 467.841C207.376 468.037 207.111 468.147 206.834 468.147C206.558 468.147 206.292 468.037 206.097 467.841C205.901 467.645 205.792 467.379 205.792 467.102C205.792 466.825 205.901 466.559 206.097 466.363L209.778 462.667C208.756 461.282 208.264 459.576 208.391 457.858C208.517 456.14 209.253 454.524 210.466 453.304ZM211.798 462.174C212.539 462.917 213.483 463.422 214.51 463.627C215.538 463.832 216.603 463.726 217.571 463.324C218.539 462.922 219.366 462.241 219.948 461.368C220.53 460.494 220.84 459.467 220.84 458.417C220.84 457.366 220.53 456.339 219.948 455.466C219.366 454.592 218.539 453.912 217.571 453.51C216.603 453.107 215.538 453.002 214.51 453.207C213.483 453.411 212.539 453.917 211.798 454.659C210.811 455.656 210.257 457.003 210.257 458.407C210.257 459.811 210.811 461.158 211.798 462.155V462.174Z" fill="url(#paint58_linear_3209_2553)"/>
<path opacity="0.68" d="M173.783 491.272V523.499C173.783 523.879 173.783 524.258 173.817 524.638C174.388 533.917 181.838 541.259 190.949 541.259H402.245C411.72 541.259 419.406 533.31 419.406 523.519V491.292L173.783 491.272Z" fill="white"/>
<path d="M2.56049 555.515H594.44C595.854 555.515 597 556.664 597 558.082V562.881C597 564.299 595.854 565.449 594.44 565.449H2.56049C1.14636 565.449 0 564.299 0 562.881V558.082C0 556.664 1.14636 555.515 2.56049 555.515Z" fill="#BFB4D6"/>
<path d="M280.205 573.895H535.932C537.219 573.935 538.44 574.477 539.337 575.404C540.233 576.332 540.734 577.573 540.734 578.864C540.734 580.156 540.233 581.397 539.337 582.324C538.44 583.252 537.219 583.793 535.932 583.834H280.205C278.917 583.793 277.696 583.252 276.8 582.324C275.903 581.397 275.402 580.156 275.402 578.864C275.402 577.573 275.903 576.332 276.8 575.404C277.696 574.477 278.917 573.935 280.205 573.895Z" fill="#BFB4D6"/>
<path d="M89.9128 578.852C89.9115 579.505 90.0387 580.152 90.2871 580.755C90.5355 581.359 90.9003 581.907 91.3604 582.369C91.8206 582.831 92.3672 583.197 92.9688 583.447C93.5705 583.697 94.2153 583.825 94.8665 583.824H251.401C252.065 583.845 252.726 583.732 253.346 583.492C253.965 583.251 254.531 582.889 255.008 582.425C255.485 581.962 255.864 581.407 256.123 580.793C256.382 580.18 256.516 579.521 256.516 578.855C256.516 578.188 256.382 577.529 256.123 576.916C255.864 576.302 255.485 575.747 255.008 575.284C254.531 574.82 253.965 574.458 253.346 574.217C252.726 573.977 252.065 573.864 251.401 573.885H94.8665C94.2159 573.885 93.5718 574.013 92.9708 574.263C92.3698 574.513 91.8236 574.879 91.3636 575.34C90.9036 575.801 90.5387 576.349 90.2898 576.951C90.0408 577.554 89.9128 578.2 89.9128 578.852Z" fill="#BFB4D6"/>
<path d="M355.831 517.946C355.835 517.177 356.019 516.421 356.367 515.736C356.715 515.052 357.218 514.459 357.836 514.004C357.984 513.885 358.098 513.728 358.165 513.55C358.981 511.249 359.777 508.948 360.583 506.652C360.908 505.585 361.576 504.657 362.483 504.011C363.39 503.366 364.485 503.04 365.596 503.084H378.629C379.74 503.039 380.834 503.365 381.74 504.009C382.647 504.654 383.316 505.581 383.642 506.647C384.448 508.946 385.254 511.246 386.059 513.545C386.126 513.724 386.24 513.881 386.389 513.999C387.007 514.453 387.511 515.046 387.86 515.731C388.209 516.415 388.394 517.172 388.399 517.941C388.433 520.937 388.399 523.928 388.399 526.924C388.384 527.363 388.27 527.793 388.065 528.181C387.805 528.659 387.394 529.037 386.897 529.256C386.4 529.475 385.845 529.524 385.317 529.393C384.794 529.272 384.325 528.982 383.982 528.568C383.638 528.154 383.439 527.639 383.416 527.101C383.391 526.535 383.416 525.973 383.416 525.342C375.896 525.783 368.358 525.783 360.839 525.342C360.839 525.559 360.839 525.717 360.839 525.874C360.86 526.414 360.837 526.955 360.77 527.491C360.651 528.082 360.321 528.609 359.841 528.972C359.361 529.336 358.765 529.51 358.165 529.462C357.528 529.418 356.932 529.132 356.498 528.662C356.064 528.192 355.826 527.574 355.831 526.934C355.816 523.933 355.796 520.942 355.831 517.946ZM382.639 511.392C382.148 509.973 381.656 508.563 381.165 507.164C380.977 506.672 380.637 506.254 380.195 505.97C379.753 505.687 379.231 505.552 378.708 505.587H365.645C365.04 505.533 364.435 505.697 363.941 506.05C363.446 506.404 363.093 506.923 362.947 507.514C362.519 508.731 362.102 509.943 361.674 511.155C361.34 512.141 361.797 512.703 362.79 512.545C366.349 512.021 369.946 511.802 373.542 511.89C376.175 511.926 378.802 512.143 381.406 512.54C381.514 512.559 381.624 512.571 381.735 512.575C381.883 512.591 382.033 512.568 382.171 512.509C382.308 512.45 382.428 512.357 382.518 512.238C382.609 512.119 382.668 511.979 382.689 511.831C382.71 511.683 382.693 511.532 382.639 511.392ZM382.772 520.661C383.144 520.66 383.507 520.548 383.816 520.34C384.124 520.131 384.364 519.835 384.505 519.49C384.645 519.144 384.68 518.765 384.605 518.399C384.53 518.034 384.349 517.699 384.084 517.437C383.818 517.175 383.482 516.998 383.116 516.929C382.75 516.86 382.372 516.901 382.03 517.047C381.688 517.194 381.397 517.439 381.194 517.751C380.99 518.064 380.885 518.43 380.89 518.803C380.899 519.298 381.101 519.77 381.453 520.117C381.804 520.465 382.278 520.66 382.772 520.661ZM361.478 520.661C361.848 520.657 362.209 520.543 362.515 520.334C362.821 520.125 363.059 519.83 363.198 519.485C363.337 519.141 363.371 518.763 363.297 518.399C363.222 518.036 363.042 517.702 362.778 517.441C362.515 517.179 362.181 517.002 361.817 516.931C361.453 516.86 361.077 516.898 360.735 517.041C360.393 517.185 360.101 517.426 359.896 517.735C359.69 518.044 359.581 518.407 359.581 518.779C359.581 519.027 359.63 519.274 359.725 519.504C359.821 519.733 359.961 519.942 360.137 520.117C360.314 520.292 360.523 520.43 360.753 520.523C360.983 520.617 361.229 520.664 361.478 520.661Z" fill="white"/>
<path d="M308.766 503.458H326.772C328.588 503.458 329.497 504.364 329.5 506.174C329.5 509.436 329.5 512.698 329.5 515.96C329.5 519.222 329.5 522.483 329.5 525.741C329.5 527.875 328.33 529.043 326.202 529.043H309.361C307.228 529.043 306.048 527.88 306.048 525.751C306.048 519.227 306.048 512.706 306.048 506.188C306.068 504.39 306.962 503.458 308.766 503.458ZM324.861 526.392C325.324 526.379 325.763 526.183 326.084 525.848C326.404 525.512 326.579 525.063 326.571 524.598C326.566 524.247 326.457 523.906 326.258 523.617C326.058 523.328 325.778 523.106 325.452 522.977C325.126 522.849 324.769 522.821 324.427 522.896C324.085 522.972 323.774 523.147 323.532 523.401C323.29 523.655 323.129 523.975 323.069 524.321C323.009 524.667 323.053 525.023 323.195 525.344C323.338 525.665 323.572 525.935 323.869 526.122C324.166 526.309 324.511 526.403 324.861 526.392ZM318.782 515.295C318.782 516.827 318.782 518.36 318.782 519.887C318.782 520.444 318.939 520.686 319.538 520.676C321.73 520.646 323.927 520.676 326.119 520.676C326.301 520.699 326.485 520.681 326.659 520.622C326.832 520.564 326.991 520.468 327.122 520.34C327.254 520.212 327.355 520.057 327.419 519.885C327.483 519.712 327.507 519.528 327.49 519.345C327.51 516.622 327.51 513.894 327.49 511.16C327.49 510.249 326.999 509.81 326.06 509.805C323.898 509.805 321.735 509.805 319.568 509.805C318.914 509.805 318.772 510.071 318.782 510.658C318.796 512.195 318.782 513.752 318.782 515.31V515.295ZM310.702 526.397C311.052 526.406 311.397 526.31 311.693 526.122C311.988 525.933 312.221 525.661 312.362 525.34C312.503 525.018 312.545 524.662 312.483 524.316C312.421 523.971 312.258 523.651 312.015 523.399C311.771 523.146 311.459 522.972 311.116 522.899C310.774 522.825 310.417 522.855 310.092 522.985C309.767 523.116 309.488 523.34 309.29 523.63C309.092 523.92 308.985 524.262 308.982 524.613C308.977 524.845 309.017 525.075 309.101 525.29C309.185 525.506 309.31 525.703 309.47 525.87C309.63 526.037 309.821 526.171 310.032 526.264C310.244 526.357 310.471 526.407 310.702 526.412V526.397ZM308.073 519.247C308.073 520.232 308.565 520.661 309.523 520.666C311.661 520.666 313.798 520.666 315.936 520.666C316.619 520.666 316.796 520.425 316.781 519.794C316.752 518.261 316.781 516.729 316.781 515.196C316.781 513.664 316.781 512.136 316.781 510.604C316.781 510.022 316.649 509.751 315.99 509.756C313.828 509.796 311.661 509.756 309.498 509.756C308.515 509.756 308.078 510.204 308.073 511.195C308.034 513.92 308.034 516.596 308.073 519.262V519.247Z" fill="white"/>
<path d="M249.912 513.619V523.687C249.912 524.496 250.232 525.272 250.803 525.845C251.373 526.418 252.147 526.741 252.954 526.742H273.747C274.554 526.741 275.328 526.418 275.898 525.845C276.469 525.272 276.789 524.496 276.789 523.687V512.476L263.353 520.853L249.912 513.619Z" fill="white"/>
<path d="M249.916 511.727V512.008L263.357 519.02L276.734 511.106C276.59 510.42 276.215 509.804 275.672 509.362C275.129 508.919 274.451 508.678 273.751 508.677H252.958C252.559 508.677 252.163 508.756 251.794 508.909C251.425 509.062 251.09 509.287 250.807 509.57C250.525 509.854 250.301 510.19 250.148 510.56C249.995 510.93 249.916 511.327 249.916 511.727Z" fill="white"/>
<path d="M212.043 511.297C211.527 509.104 212.881 506.907 215.069 506.389C217.256 505.871 219.447 507.23 219.964 509.423C220.48 511.616 219.125 513.813 216.938 514.331C214.751 514.849 212.559 513.49 212.043 511.297Z" fill="white"/>
<path d="M206.431 524.445C209.047 526.833 212.458 528.157 215.997 528.157C219.535 528.157 222.946 526.833 225.562 524.445C225.071 522.474 224.58 520.612 224.265 519.557C223.734 517.808 221.159 517.453 219.641 517.33C217.15 517.156 214.649 517.174 212.161 517.384C210.687 517.493 208.229 517.877 207.738 519.557C207.409 520.612 206.917 522.489 206.431 524.445Z" fill="white"/>
<path d="M471.372 476.356C471.372 476.356 474.261 436.639 485.132 414.691C496.003 392.743 512.535 367.848 508.913 370.864C505.291 373.88 490.16 401.071 481.692 410.596L473.225 420.126C473.225 420.126 481.186 388.387 490.145 370.618C499.104 352.848 507.517 334.882 502.691 340.603C497.866 346.324 473.736 374.772 466.6 410.576C459.464 446.381 458.771 468.891 458.771 468.891C458.771 468.891 468.143 410.877 463.818 357.2C459.494 303.522 461.361 290.469 459.484 303.522C457.606 316.576 455.621 359.116 455.552 406.018C455.483 452.92 455.552 476.351 455.552 476.351C455.552 476.351 452.024 416.923 445.846 395.769C439.669 374.614 435.526 367.582 435.526 367.582L451.793 479.771L471.372 476.356Z" fill="#52895A"/>
<path d="M471.373 464.441C471.373 464.441 473.57 373.5 481.694 346.492C489.817 319.483 498.486 310.027 489.817 319.483C481.148 328.939 476.47 346.048 471.373 367.582C466.277 389.116 464.238 460.78 464.238 460.78C464.238 460.78 466.488 420.18 455.549 375.265C444.609 330.349 422.937 295.544 424.175 304.976C425.414 314.408 447.814 351.232 451.784 390.122C455.755 429.011 455.549 460.78 455.549 460.78L471.373 464.441Z" fill="url(#paint59_linear_3209_2553)"/>
<path d="M442.483 459.701L446.125 547.665C446.307 552.05 450.057 555.515 454.612 555.515H472.982C477.543 555.515 481.288 552.065 481.47 547.665L485.126 459.701C485.318 455.059 481.465 451.195 476.639 451.195H450.971C446.125 451.195 442.287 455.059 442.483 459.701Z" fill="url(#paint60_linear_3209_2553)"/>
<g opacity="0.35">
<path d="M123.27 138.773C122.126 133.91 125.129 129.037 129.979 127.889C134.829 126.741 139.689 129.753 140.834 134.616C141.978 139.479 138.975 144.352 134.125 145.5C129.275 146.647 124.415 143.636 123.27 138.773Z" fill="url(#paint61_linear_3209_2553)"/>
<path d="M147.429 84.7624C145.366 84.7624 143.694 83.0857 143.694 81.0174C143.694 78.9491 145.366 77.2723 147.429 77.2723C149.492 77.2723 151.164 78.9491 151.164 81.0174C151.164 83.0857 149.492 84.7624 147.429 84.7624Z" fill="url(#paint62_linear_3209_2553)"/>
<path d="M542.827 335.421C540.238 332.825 540.238 328.616 542.827 326.02C545.416 323.424 549.614 323.424 552.203 326.02C554.792 328.616 554.792 332.825 552.203 335.421C549.614 338.017 545.416 338.017 542.827 335.421Z" fill="url(#paint63_linear_3209_2553)"/>
<path d="M529.103 389.304C522.597 389.304 517.323 384.015 517.323 377.492C517.323 370.969 522.597 365.68 529.103 365.68C535.609 365.68 540.883 370.969 540.883 377.492C540.883 384.015 535.609 389.304 529.103 389.304Z" fill="url(#paint64_linear_3209_2553)"/>
<path d="M471.683 297.974C471.683 298.969 471.976 299.943 472.527 300.771C473.078 301.599 473.862 302.245 474.779 302.626C475.696 303.007 476.705 303.107 477.679 302.913C478.653 302.719 479.547 302.24 480.249 301.536C480.951 300.832 481.429 299.935 481.623 298.959C481.816 297.983 481.716 296.971 481.336 296.051C480.955 295.132 480.312 294.346 479.486 293.793C478.66 293.241 477.689 292.947 476.696 292.948C475.367 292.949 474.093 293.479 473.153 294.421C472.213 295.363 471.685 296.641 471.683 297.974Z" fill="url(#paint65_linear_3209_2553)"/>
<path d="M142.921 306.382C142.591 304.334 143.979 302.406 146.021 302.075C148.063 301.744 149.986 303.136 150.316 305.184C150.647 307.231 149.259 309.159 147.216 309.49C145.174 309.821 143.251 308.43 142.921 306.382Z" fill="url(#paint66_linear_3209_2553)"/>
<path d="M32.5589 484.481C30.536 482.453 30.536 479.164 32.5589 477.136C34.5817 475.107 37.8614 475.108 39.8842 477.136C41.9071 479.164 41.907 482.453 39.8842 484.481C37.8614 486.509 34.5817 486.509 32.5589 484.481Z" fill="url(#paint67_linear_3209_2553)"/>
<path d="M540.016 498.186C535.874 498.186 532.517 494.819 532.517 490.666C532.517 486.513 535.874 483.146 540.016 483.146C544.158 483.146 547.516 486.513 547.516 490.666C547.516 494.819 544.158 498.186 540.016 498.186Z" fill="url(#paint68_linear_3209_2553)"/>
<path d="M363.438 45.6563C361.103 45.6563 359.211 43.759 359.211 41.4185C359.211 39.078 361.103 37.1807 363.438 37.1807C365.772 37.1807 367.664 39.078 367.664 41.4185C367.664 43.759 365.772 45.6563 363.438 45.6563Z" fill="url(#paint69_linear_3209_2553)"/>
</g>
<defs>
<linearGradient id="paint0_linear_3209_2553" x1="528.108" y1="136.764" x2="413.41" y2="136.764" gradientUnits="userSpaceOnUse">
<stop stop-color="#C2BFC7"/>
<stop offset="1" stop-color="#7C83BA"/>
</linearGradient>
<linearGradient id="paint1_linear_3209_2553" x1="500.371" y1="119.242" x2="500.371" y2="573.915" gradientUnits="userSpaceOnUse">
<stop stop-color="#C2BFC7"/>
<stop offset="1" stop-color="#7C83BA"/>
</linearGradient>
<linearGradient id="paint2_linear_3209_2553" x1="143.697" y1="119.242" x2="143.697" y2="573.915" gradientUnits="userSpaceOnUse">
<stop stop-color="#C2BFC7"/>
<stop offset="1" stop-color="#7C83BA"/>
</linearGradient>
<linearGradient id="paint3_linear_3209_2553" x1="49.4519" y1="119.241" x2="49.4519" y2="573.915" gradientUnits="userSpaceOnUse">
<stop stop-color="#C2BFC7"/>
<stop offset="1" stop-color="#7C83BA"/>
</linearGradient>
<linearGradient id="paint4_linear_3209_2553" x1="477.342" y1="119.241" x2="477.342" y2="573.915" gradientUnits="userSpaceOnUse">
<stop stop-color="#C2BFC7"/>
<stop offset="1" stop-color="#7C83BA"/>
</linearGradient>
<linearGradient id="paint5_linear_3209_2553" x1="296.595" y1="96.8846" x2="296.595" y2="512.358" gradientUnits="userSpaceOnUse">
<stop stop-color="#7CB0BA"/>
<stop offset="1" stop-color="#5E68A1"/>
</linearGradient>
<linearGradient id="paint6_linear_3209_2553" x1="419.407" y1="393.433" x2="173.784" y2="393.433" gradientUnits="userSpaceOnUse">
<stop stop-color="#FFFFDF"/>
<stop offset="1" stop-color="#F0E6E6"/>
</linearGradient>
<linearGradient id="paint7_linear_3209_2553" x1="419.406" y1="199.824" x2="295.41" y2="199.824" gradientUnits="userSpaceOnUse">
<stop stop-color="#FFFFDF"/>
<stop offset="1" stop-color="#F0E6E6"/>
</linearGradient>
<linearGradient id="paint8_linear_3209_2553" x1="419.406" y1="177.827" x2="173.783" y2="177.827" gradientUnits="userSpaceOnUse">
<stop stop-color="#FFFFDF"/>
<stop offset="1" stop-color="#F0E6E6"/>
</linearGradient>
<linearGradient id="paint9_linear_3209_2553" x1="336.977" y1="121.696" x2="173.783" y2="121.696" gradientUnits="userSpaceOnUse">
<stop stop-color="#FFFFDF"/>
<stop offset="1" stop-color="#F0E6E6"/>
</linearGradient>
<linearGradient id="paint10_linear_3209_2553" x1="403.438" y1="142.683" x2="173.786" y2="142.683" gradientUnits="userSpaceOnUse">
<stop stop-color="#FFFFDF"/>
<stop offset="1" stop-color="#F0E6E6"/>
</linearGradient>
<linearGradient id="paint11_linear_3209_2553" x1="271.344" y1="96.7663" x2="173.783" y2="96.7663" gradientUnits="userSpaceOnUse">
<stop stop-color="#FFFFDF"/>
<stop offset="1" stop-color="#F0E6E6"/>
</linearGradient>
<linearGradient id="paint12_linear_3209_2553" x1="419.406" y1="90.316" x2="371.235" y2="90.316" gradientUnits="userSpaceOnUse">
<stop stop-color="#FFFFDF"/>
<stop offset="1" stop-color="#F0E6E6"/>
</linearGradient>
<linearGradient id="paint13_linear_3209_2553" x1="419.406" y1="115.91" x2="315.058" y2="115.91" gradientUnits="userSpaceOnUse">
<stop stop-color="#FFFFDF"/>
<stop offset="1" stop-color="#F0E6E6"/>
</linearGradient>
<linearGradient id="paint14_linear_3209_2553" x1="419.406" y1="145.753" x2="259.943" y2="145.753" gradientUnits="userSpaceOnUse">
<stop stop-color="#FFFFDF"/>
<stop offset="1" stop-color="#F0E6E6"/>
</linearGradient>
<linearGradient id="paint15_linear_3209_2553" x1="419.406" y1="174.195" x2="183.479" y2="174.195" gradientUnits="userSpaceOnUse">
<stop stop-color="#FFFFDF"/>
<stop offset="1" stop-color="#F0E6E6"/>
</linearGradient>
<linearGradient id="paint16_linear_3209_2553" x1="419.406" y1="226.798" x2="173.783" y2="226.798" gradientUnits="userSpaceOnUse">
<stop stop-color="#FFFFDF"/>
<stop offset="1" stop-color="#F0E6E6"/>
</linearGradient>
<linearGradient id="paint17_linear_3209_2553" x1="419.406" y1="233.564" x2="220.441" y2="233.564" gradientUnits="userSpaceOnUse">
<stop stop-color="#CED9FD"/>
<stop offset="1" stop-color="white"/>
</linearGradient>
<linearGradient id="paint18_linear_3209_2553" x1="328.601" y1="156.51" x2="328.601" y2="241.803" gradientUnits="userSpaceOnUse">
<stop stop-color="#FFFFDF"/>
<stop offset="1" stop-color="#F0E6E6"/>
</linearGradient>
<linearGradient id="paint19_linear_3209_2553" x1="464.237" y1="195.241" x2="439.331" y2="195.241" gradientUnits="userSpaceOnUse">
<stop stop-color="#7C83BA"/>
<stop offset="1" stop-color="#6D54B0"/>
</linearGradient>
<linearGradient id="paint20_linear_3209_2553" x1="423.781" y1="182.04" x2="359.25" y2="182.04" gradientUnits="userSpaceOnUse">
<stop stop-color="#7C83BA"/>
<stop offset="1" stop-color="#6D54B0"/>
</linearGradient>
<linearGradient id="paint21_linear_3209_2553" x1="351.07" y1="182.04" x2="316.502" y2="182.04" gradientUnits="userSpaceOnUse">
<stop stop-color="#7C83BA"/>
<stop offset="1" stop-color="#6D54B0"/>
</linearGradient>
<linearGradient id="paint22_linear_3209_2553" x1="423.781" y1="196.237" x2="382.603" y2="196.237" gradientUnits="userSpaceOnUse">
<stop stop-color="#7C83BA"/>
<stop offset="1" stop-color="#6D54B0"/>
</linearGradient>
<linearGradient id="paint23_linear_3209_2553" x1="375.898" y1="196.237" x2="352.865" y2="196.237" gradientUnits="userSpaceOnUse">
<stop stop-color="#7C83BA"/>
<stop offset="1" stop-color="#6D54B0"/>
</linearGradient>
<linearGradient id="paint24_linear_3209_2553" x1="423.781" y1="208.388" x2="382.603" y2="208.388" gradientUnits="userSpaceOnUse">
<stop stop-color="#7C83BA"/>
<stop offset="1" stop-color="#6D54B0"/>
</linearGradient>
<linearGradient id="paint25_linear_3209_2553" x1="248.406" y1="182.04" x2="204.584" y2="182.04" gradientUnits="userSpaceOnUse">
<stop stop-color="#7C83BA"/>
<stop offset="1" stop-color="#6D54B0"/>
</linearGradient>
<linearGradient id="paint26_linear_3209_2553" x1="248.406" y1="196.237" x2="220.443" y2="196.237" gradientUnits="userSpaceOnUse">
<stop stop-color="#7C83BA"/>
<stop offset="1" stop-color="#6D54B0"/>
</linearGradient>
<linearGradient id="paint27_linear_3209_2553" x1="248.406" y1="208.388" x2="220.443" y2="208.388" gradientUnits="userSpaceOnUse">
<stop stop-color="#7C83BA"/>
<stop offset="1" stop-color="#6D54B0"/>
</linearGradient>
<linearGradient id="paint28_linear_3209_2553" x1="296.683" y1="196.237" x2="258.198" y2="196.237" gradientUnits="userSpaceOnUse">
<stop stop-color="#7C83BA"/>
<stop offset="1" stop-color="#6D54B0"/>
</linearGradient>
<linearGradient id="paint29_linear_3209_2553" x1="279.457" y1="195.059" x2="265.967" y2="195.059" gradientUnits="userSpaceOnUse">
<stop stop-color="#7C83BA"/>
<stop offset="1" stop-color="#6D54B0"/>
</linearGradient>
<linearGradient id="paint30_linear_3209_2553" x1="97.2372" y1="320.414" x2="97.2372" y2="503.084" gradientUnits="userSpaceOnUse">
<stop stop-color="#FF6575"/>
<stop offset="1" stop-color="#D43672"/>
</linearGradient>
<linearGradient id="paint31_linear_3209_2553" x1="83.631" y1="194.123" x2="99.8762" y2="237.694" gradientUnits="userSpaceOnUse">
<stop stop-color="#FFD3B6"/>
<stop offset="1" stop-color="#F48E76"/>
</linearGradient>
<linearGradient id="paint32_linear_3209_2553" x1="78.2211" y1="258.976" x2="51.2704" y2="258.976" gradientUnits="userSpaceOnUse">
<stop stop-color="#7C83BA"/>
<stop offset="1" stop-color="#6D54B0"/>
</linearGradient>
<linearGradient id="paint33_linear_3209_2553" x1="106.546" y1="242.503" x2="91.9727" y2="325.23" gradientUnits="userSpaceOnUse">
<stop stop-color="#7C83BA"/>
<stop offset="1" stop-color="#6D54B0"/>
</linearGradient>
<linearGradient id="paint34_linear_3209_2553" x1="93.0783" y1="280.954" x2="63.8374" y2="280.954" gradientUnits="userSpaceOnUse">
<stop stop-color="#FFD3B6"/>
<stop offset="1" stop-color="#F48E76"/>
</linearGradient>
<linearGradient id="paint35_linear_3209_2553" x1="62.8278" y1="414.928" x2="34.0489" y2="414.928" gradientUnits="userSpaceOnUse">
<stop stop-color="#FFD3B6"/>
<stop offset="1" stop-color="#F48E76"/>
</linearGradient>
<linearGradient id="paint36_linear_3209_2553" x1="74.4508" y1="442.035" x2="37.0372" y2="442.035" gradientUnits="userSpaceOnUse">
<stop stop-color="#FFD3B6"/>
<stop offset="1" stop-color="#F48E76"/>
</linearGradient>
<linearGradient id="paint37_linear_3209_2553" x1="141.062" y1="259.503" x2="87.077" y2="259.503" gradientUnits="userSpaceOnUse">
<stop stop-color="#7C83BA"/>
<stop offset="1" stop-color="#6D54B0"/>
</linearGradient>
<linearGradient id="paint38_linear_3209_2553" x1="508.912" y1="264.392" x2="471.371" y2="264.392" gradientUnits="userSpaceOnUse">
<stop stop-color="#FFD3B6"/>
<stop offset="1" stop-color="#F48E76"/>
</linearGradient>
<linearGradient id="paint39_linear_3209_2553" x1="581.048" y1="259.967" x2="527.25" y2="259.967" gradientUnits="userSpaceOnUse">
<stop stop-color="#FFD3B6"/>
<stop offset="1" stop-color="#F48E76"/>
</linearGradient>
<linearGradient id="paint40_linear_3209_2553" x1="450.846" y1="22.2892" x2="442.438" y2="77.6204" gradientUnits="userSpaceOnUse">
<stop stop-color="#FFD3B6"/>
<stop offset="1" stop-color="#F48E76"/>
</linearGradient>
<linearGradient id="paint41_linear_3209_2553" x1="496.875" y1="94.3271" x2="457.535" y2="94.3271" gradientUnits="userSpaceOnUse">
<stop stop-color="#FF6575"/>
<stop offset="1" stop-color="#D43672"/>
</linearGradient>
<linearGradient id="paint42_linear_3209_2553" x1="466.197" y1="88.6011" x2="428.881" y2="88.6011" gradientUnits="userSpaceOnUse">
<stop stop-color="#FFFFDF"/>
<stop offset="1" stop-color="#F0E6E6"/>
</linearGradient>
<linearGradient id="paint43_linear_3209_2553" x1="445.266" y1="92.9031" x2="408.334" y2="92.9031" gradientUnits="userSpaceOnUse">
<stop stop-color="#FF6575"/>
<stop offset="1" stop-color="#D43672"/>
</linearGradient>
<linearGradient id="paint44_linear_3209_2553" x1="508.688" y1="113.782" x2="481.688" y2="113.782" gradientUnits="userSpaceOnUse">
<stop stop-color="#FFD3B6"/>
<stop offset="1" stop-color="#F48E76"/>
</linearGradient>
<linearGradient id="paint45_linear_3209_2553" x1="486.609" y1="88.9953" x2="413.63" y2="88.9953" gradientUnits="userSpaceOnUse">
<stop stop-color="#FF6575"/>
<stop offset="1" stop-color="#D43672"/>
</linearGradient>
<linearGradient id="paint46_linear_3209_2553" x1="391.511" y1="407.186" x2="357.852" y2="407.186" gradientUnits="userSpaceOnUse">
<stop stop-color="#FFFFDF"/>
<stop offset="1" stop-color="#F0E6E6"/>
</linearGradient>
<linearGradient id="paint47_linear_3209_2553" x1="379.468" y1="403.042" x2="369.83" y2="403.042" gradientUnits="userSpaceOnUse">
<stop stop-color="#7C83BA"/>
<stop offset="1" stop-color="#6D54B0"/>
</linearGradient>
<linearGradient id="paint48_linear_3209_2553" x1="386.008" y1="417.584" x2="363.362" y2="417.584" gradientUnits="userSpaceOnUse">
<stop stop-color="#7C83BA"/>
<stop offset="1" stop-color="#6D54B0"/>
</linearGradient>
<linearGradient id="paint49_linear_3209_2553" x1="294.523" y1="311.471" x2="294.523" y2="423.28" gradientUnits="userSpaceOnUse">
<stop stop-color="#FFFFDF"/>
<stop offset="1" stop-color="#F0E6E6"/>
</linearGradient>
<linearGradient id="paint50_linear_3209_2553" x1="346.268" y1="311.471" x2="346.268" y2="423.28" gradientUnits="userSpaceOnUse">
<stop stop-color="#7C83BA"/>
<stop offset="1" stop-color="#6D54B0"/>
</linearGradient>
<linearGradient id="paint51_linear_3209_2553" x1="346.266" y1="311.471" x2="346.266" y2="423.28" gradientUnits="userSpaceOnUse">
<stop stop-color="#FFFFDF"/>
<stop offset="1" stop-color="#F0E6E6"/>
</linearGradient>
<linearGradient id="paint52_linear_3209_2553" x1="346.269" y1="311.471" x2="346.269" y2="423.28" gradientUnits="userSpaceOnUse">
<stop stop-color="#FFFFDF"/>
<stop offset="1" stop-color="#F0E6E6"/>
</linearGradient>
<linearGradient id="paint53_linear_3209_2553" x1="283.538" y1="311.471" x2="283.538" y2="423.28" gradientUnits="userSpaceOnUse">
<stop stop-color="#7C83BA"/>
<stop offset="1" stop-color="#6D54B0"/>
</linearGradient>
<linearGradient id="paint54_linear_3209_2553" x1="298.085" y1="311.47" x2="298.085" y2="423.28" gradientUnits="userSpaceOnUse">
<stop stop-color="#7C83BA"/>
<stop offset="1" stop-color="#6D54B0"/>
</linearGradient>
<linearGradient id="paint55_linear_3209_2553" x1="308.908" y1="17.8789" x2="308.908" y2="84.9743" gradientUnits="userSpaceOnUse">
<stop stop-color="#FF6575"/>
<stop offset="1" stop-color="#D43672"/>
</linearGradient>
<linearGradient id="paint56_linear_3209_2553" x1="277.171" y1="416.535" x2="256.756" y2="416.535" gradientUnits="userSpaceOnUse">
<stop stop-color="#FF6575"/>
<stop offset="1" stop-color="#D43672"/>
</linearGradient>
<linearGradient id="paint57_linear_3209_2553" x1="215.343" y1="263.815" x2="194.929" y2="263.815" gradientUnits="userSpaceOnUse">
<stop stop-color="#FF6575"/>
<stop offset="1" stop-color="#D43672"/>
</linearGradient>
<linearGradient id="paint58_linear_3209_2553" x1="222.727" y1="459.681" x2="205.807" y2="459.681" gradientUnits="userSpaceOnUse">
<stop stop-color="#7C83BA"/>
<stop offset="1" stop-color="#6D54B0"/>
</linearGradient>
<linearGradient id="paint59_linear_3209_2553" x1="493.419" y1="383.932" x2="424.121" y2="383.932" gradientUnits="userSpaceOnUse">
<stop stop-color="#A1CC77"/>
<stop offset="1" stop-color="#63887E"/>
</linearGradient>
<linearGradient id="paint60_linear_3209_2553" x1="463.802" y1="439.734" x2="463.802" y2="597.75" gradientUnits="userSpaceOnUse">
<stop stop-color="#C2BFC7"/>
<stop offset="1" stop-color="#7C83BA"/>
</linearGradient>
<linearGradient id="paint61_linear_3209_2553" x1="141.08" y1="136.711" x2="123.034" y2="136.711" gradientUnits="userSpaceOnUse">
<stop stop-color="#7C83BA"/>
<stop offset="1" stop-color="#6D54B0"/>
</linearGradient>
<linearGradient id="paint62_linear_3209_2553" x1="151.164" y1="81.0174" x2="143.694" y2="81.0174" gradientUnits="userSpaceOnUse">
<stop stop-color="#7C83BA"/>
<stop offset="1" stop-color="#6D54B0"/>
</linearGradient>
<linearGradient id="paint63_linear_3209_2553" x1="554.142" y1="330.719" x2="540.878" y2="330.719" gradientUnits="userSpaceOnUse">
<stop stop-color="#7C83BA"/>
<stop offset="1" stop-color="#6D54B0"/>
</linearGradient>
<linearGradient id="paint64_linear_3209_2553" x1="540.878" y1="377.492" x2="517.323" y2="377.492" gradientUnits="userSpaceOnUse">
<stop stop-color="#7C83BA"/>
<stop offset="1" stop-color="#6D54B0"/>
</linearGradient>
<linearGradient id="paint65_linear_3209_2553" x1="481.694" y1="297.979" x2="471.664" y2="297.979" gradientUnits="userSpaceOnUse">
<stop stop-color="#7C83BA"/>
<stop offset="1" stop-color="#6D54B0"/>
</linearGradient>
<linearGradient id="paint66_linear_3209_2553" x1="150.351" y1="305.765" x2="142.86" y2="305.76" gradientUnits="userSpaceOnUse">
<stop stop-color="#7C83BA"/>
<stop offset="1" stop-color="#6D54B0"/>
</linearGradient>
<linearGradient id="paint67_linear_3209_2553" x1="41.4045" y1="480.809" x2="31.0449" y2="480.809" gradientUnits="userSpaceOnUse">
<stop stop-color="#7C83BA"/>
<stop offset="1" stop-color="#6D54B0"/>
</linearGradient>
<linearGradient id="paint68_linear_3209_2553" x1="547.516" y1="490.666" x2="532.517" y2="490.666" gradientUnits="userSpaceOnUse">
<stop stop-color="#7C83BA"/>
<stop offset="1" stop-color="#6D54B0"/>
</linearGradient>
<linearGradient id="paint69_linear_3209_2553" x1="367.664" y1="41.4185" x2="359.206" y2="41.4185" gradientUnits="userSpaceOnUse">
<stop stop-color="#7C83BA"/>
<stop offset="1" stop-color="#6D54B0"/>
</linearGradient>
</defs>
</svg>
