<svg width="1227" height="1014" viewBox="0 0 1227 1014" fill="none" xmlns="http://www.w3.org/2000/svg">
<g opacity="0.1">
<path d="M110.301 687.7C109.601 684 108.501 680.4 107.001 677C106.101 674.9 106.401 672.5 107.901 670.7L114.001 663.2L104.801 652L96.3008 656.5C94.3008 657.6 91.8008 657.4 89.9008 656.1C86.8008 654 83.5008 652.2 80.0008 650.8C77.9008 650 76.4008 648 76.2008 645.7L75.3008 636.1L60.9008 634.7L58.1008 644C57.4008 646.2 55.6008 647.8 53.3008 648.2C49.6008 648.9 46.0008 650 42.6008 651.5C40.5008 652.4 38.1008 652.1 36.3008 650.6L28.8008 644.5L17.6008 653.7L22.1008 662.2C23.2008 664.2 23.0008 666.7 21.7008 668.6C19.6008 671.7 17.8008 675 16.4008 678.5C15.6008 680.6 13.6008 682.1 11.3008 682.3L1.70081 683.2L0.300781 697.6L9.6008 700.4C11.8008 701.1 13.4008 702.9 13.8008 705.2C14.5008 708.9 15.6008 712.5 17.1008 715.9C18.0008 718 17.7008 720.5 16.2008 722.2L10.1008 729.7L19.3008 740.9L27.8008 736.4C29.8008 735.3 32.3008 735.5 34.2008 736.8C37.3008 738.9 40.6008 740.7 44.1008 742.1C46.2008 742.9 47.7008 744.9 47.9008 747.2L48.8008 756.8L63.2008 758.2L66.0008 748.9C66.7008 746.7 68.5008 745.1 70.8008 744.7C74.5008 744 78.1008 742.9 81.5008 741.4C83.6008 740.5 86.0008 740.8 87.8008 742.3L95.3008 748.4L106.501 739.2L102.001 730.7C100.901 728.7 101.101 726.2 102.401 724.3C104.501 721.2 106.301 717.9 107.701 714.4C108.501 712.3 110.501 710.8 112.801 710.6L122.401 709.7L123.801 695.3L114.501 692.5C112.401 691.8 110.701 689.9 110.301 687.7ZM58.5008 733.1C38.3008 731.1 23.5008 713.1 25.5008 692.9C27.5008 672.7 45.5008 657.9 65.7008 659.9C85.9008 661.9 100.701 679.9 98.7008 700.1C96.7008 720.3 78.7008 735 58.5008 733.1Z" fill="#2A75F4"/>
<path d="M37.7017 694C39.0017 680.5 51.0016 670.7 64.5016 672C78.0016 673.3 87.8016 685.3 86.5016 698.8C85.2016 712.3 73.2017 722.1 59.7017 720.8C46.2017 719.5 36.4017 707.5 37.7017 694Z" fill="#2A75F4"/>
</g>
<path opacity="0.1" d="M558 1013.8C807.909 1013.8 1010.5 997.413 1010.5 977.2C1010.5 956.986 807.909 940.6 558 940.6C308.091 940.6 105.5 956.986 105.5 977.2C105.5 997.413 308.091 1013.8 558 1013.8Z" fill="#2A75F4"/>
<path opacity="0.19" d="M420.801 860.5C420.801 869 427.701 875.9 436.201 875.9H989.501C998.001 875.9 1004.9 869 1004.9 860.5V384.1H420.901V860.5H420.801Z" fill="#FC5546"/>
<path d="M594.601 663.8C597.201 672.8 600.801 681.5 605.401 689.8C608.201 694.8 608.001 701 604.801 705.8L591.401 725.9L617.101 751.6L637.201 738.2C642.001 735 648.201 734.8 653.201 737.6C661.401 742.2 670.101 745.8 679.201 748.4C684.701 750 688.901 754.5 690.101 760.2L694.801 783.9H731.101L735.901 760.1C737.001 754.5 741.201 749.9 746.801 748.3C755.801 745.7 764.501 742.1 772.801 737.5C777.801 734.7 784.001 734.9 788.801 738.1L808.901 751.5L834.601 725.8L821.201 705.7C818.001 700.9 817.801 694.7 820.601 689.7C825.201 681.5 828.801 672.8 831.401 663.7C833.001 658.2 837.501 654 843.201 652.8L866.901 648.1V611.8L843.101 607C837.501 605.9 832.901 601.7 831.301 596.1C828.701 587.1 825.101 578.4 820.501 570.1C817.701 565.1 817.901 558.9 821.101 554.1L834.501 534L808.801 508.3L788.701 521.7C783.901 524.9 777.701 525.1 772.701 522.3C764.501 517.7 755.801 514.1 746.701 511.5C741.201 509.9 737.001 505.4 735.801 499.7L731.101 476H694.801L690.001 499.8C688.901 505.4 684.701 510 679.101 511.6C670.101 514.2 661.401 517.8 653.101 522.4C648.101 525.2 641.901 525 637.101 521.8L617.001 508.4L591.301 534.1L604.701 554.2C607.901 559 608.101 565.2 605.301 570.2C600.701 578.4 597.101 587.1 594.501 596.2C592.901 601.7 588.401 605.9 582.701 607.1L559.001 611.8V648.1L582.801 652.9C588.501 654 593.101 658.2 594.601 663.8ZM712.801 537.7C763.701 537.7 805.001 579 805.001 629.9C805.001 680.8 763.701 722.1 712.801 722.1C661.901 722.1 620.601 680.8 620.601 629.9C620.601 579.1 661.901 537.8 712.801 537.7ZM420.801 307.2V353.3H1004.8V307.2C1004.8 298.7 997.901 291.8 989.401 291.8H436.101C427.601 291.8 420.801 298.7 420.801 307.2ZM574.501 307.2H605.201V338H574.501V307.2ZM513.001 307.2H543.701V338H513.001V307.2ZM451.501 307.2H482.201V338H451.501V307.2Z" fill="#FC5546"/>
<path d="M774.3 630C774.3 663.9 746.8 691.5 712.8 691.5C678.8 691.5 651.3 664 651.3 630C651.3 596.1 678.8 568.5 712.8 568.5C746.7 568.5 774.3 596 774.3 630ZM728.2 30.6002C728.2 22.1002 721.3 15.2002 712.8 15.2002H159.5C151 15.2002 144.1 22.1002 144.1 30.6002V76.7002H728.1V30.6002H728.2ZM205.6 61.3002H174.9V30.6002H205.6V61.3002ZM267.1 61.3002H236.4V30.6002H267.1V61.3002ZM328.6 61.3002H297.9V30.6002H328.6V61.3002Z" fill="#FC5546"/>
<path opacity="0.19" d="M390 307.2C390 281.7 410.6 261.1 436.1 261.1H728.1V107.4H144.1V583.8C144.1 592.3 151 599.2 159.5 599.2H390V307.2ZM513 184.3H543.7V215H513V184.3ZM451.5 184.3H482.2V215H451.5V184.3ZM390 184.3H420.7V215H390V184.3ZM328.6 553.1H205.6V522.4H328.6V553.1ZM328.6 491.6H205.6V460.9H328.6V491.6ZM328.6 430.2H205.6V399.5H328.6V430.2ZM328.6 368.7H205.6V338H328.6V368.7ZM328.6 307.2H205.6V276.5H328.6V307.2ZM328.6 215V184.3H359.3V215H328.6Z" fill="#FC5546"/>
<path d="M510.301 739.1L510.901 722.9L522.401 726.4L524.601 746.6C524.601 746.6 513.601 747.3 510.301 739.1Z" fill="#FCB7B1"/>
<path d="M511.3 739.2C514 740.3 518.5 741.3 524.1 740L523.4 735.4C523.4 735.4 526.6 737.3 527.4 741.5C528.2 745.6 528.4 744.5 533.6 747.7C538.9 750.9 538.5 758.1 538.5 758.1L499.3 757.1C499.3 757.1 498.2 749.2 505.3 740.8C506.7 739 509.2 738.3 511.3 739.2Z" fill="#0E3D8C"/>
<path d="M448.001 501C448.001 501 442.901 520.9 450.101 533.4C457.301 545.9 470.301 518.2 470.301 518.2C470.301 518.2 468.001 491.6 448.001 501Z" fill="#FC5546"/>
<path d="M444.401 406.6C444.401 406.6 418.001 442.5 413.601 464.2C409.101 485.9 413.901 533.3 413.901 533.3H424.701C424.701 533.3 430.401 472.8 434.001 464.2C437.601 455.4 461.001 414.8 461.001 414.8L444.401 406.6Z" fill="#FFCECA"/>
<path d="M439.901 756.3H540.101V767.8H439.901V756.3ZM418.501 835.7H526.201V847.2H418.501V835.7ZM408.801 912.5H516.501V924H408.801V912.5Z" fill="#D3D3D3"/>
<path d="M398 988.9H386L474.4 573.1H481.1L398 988.9ZM523.3 988.9H511.3L581.4 561.4L587.3 564.2L523.3 988.9Z" fill="#D3D3D3"/>
<path d="M498.999 988.9L563.499 573.8L474.399 573.1L385.999 988.9H372.199L461.999 561.4H581.399L515.099 988.9H496.999" fill="#F7F7F7"/>
<path d="M458.5 739.1L459.1 722.9L470.6 726.4L472.8 746.6C472.7 746.6 461.8 747.3 458.5 739.1Z" fill="#FCB7B1"/>
<path d="M572 373.6C572 373.6 600.501 371.5 603.901 358.3C607.301 345.1 606.7 309.5 606.7 309.5H616.6C616.6 309.5 623.4 342.6 623 358.3C622.6 374 603.5 400.8 572 399.1C540.6 397.4 572 373.6 572 373.6Z" fill="#FFCECA"/>
<path d="M479.7 371.9C479.7 371.9 463.2 373.6 456.4 380.8C453.1 384.3 432.6 409.7 433.4 415.2L457.5 430.2L477.2 402.9L479.7 371.9Z" fill="#2A75F4"/>
<path d="M453.901 494.2C453.901 494.2 446.801 515.2 453.501 538.2C460.201 561.2 460.201 607.6 459.601 619.7C459.001 631.8 447.701 666.8 457.301 728.6H472.101C472.101 728.6 481.101 663.8 486.301 636.2C491.201 610.3 497.401 545.7 497.401 545.7C497.401 545.7 516.001 607 512.901 622.8C509.501 640.2 509.101 728.5 509.101 728.5H524.001C524.001 728.5 540.701 652.5 541.701 632.1C542.801 611.7 540.501 497.3 540.501 497.3C540.501 497.3 490.901 463.6 453.901 494.2Z" fill="#0E2B5C"/>
<path d="M504.7 332L489.6 378.2L516.9 383.6L522.9 335.7L504.7 332Z" fill="#FCB7B1"/>
<path d="M520.201 369.3C520.201 369.3 538.701 373.1 540.601 397.3C542.501 421.5 545.101 524.7 545.101 533.6C544.501 537.7 472.601 551.4 451.201 530.6C445.801 525.3 463.501 435.5 461.001 411.9C458.401 388.4 472.401 358.5 520.201 369.3Z" fill="#2A75F4"/>
<path d="M541.7 417.7C541.7 417.7 549.1 400.8 572 399.1C572 399.1 577.5 383.4 572 373.6C572 373.6 530.5 365.1 514.7 368.3C498.9 371.5 541.7 417.7 541.7 417.7Z" fill="#2A75F4"/>
<path d="M616.5 318.4C616.5 318.4 619.6 301.8 614.1 292.4C610.8 286.8 607.2 284.2 603.6 285.2C601.2 285.9 600.2 290.1 600.8 292.5C601.6 295.6 604.2 304.1 605.6 306.5C605.6 306.5 603.1 306.5 600.5 300.9C598 295.4 596.1 303.5 598.1 307.3C601.1 312.8 611 327.9 616.5 318.4Z" fill="#FFCECA"/>
<path d="M459.399 739.2C462.099 740.3 466.599 741.3 472.199 740L471.499 735.4C471.499 735.4 474.699 737.3 475.499 741.5C476.299 745.6 476.499 744.5 481.699 747.7C486.999 750.9 486.599 758.1 486.599 758.1L447.399 757.1C447.399 757.1 446.299 749.2 453.399 740.8C454.899 739 457.299 738.3 459.399 739.2Z" fill="#0E3D8C"/>
<path d="M543.4 325.1C542.7 319.3 555.3 315.4 531.2 298.4C518.9 289.8 497.5 293.6 490.9 306.6C484.3 319.6 487.8 320.9 482.7 321.8C477.6 322.8 483 363 513.8 362.5C544.7 362 543.4 325.1 543.4 325.1Z" fill="#0E2B5C"/>
<path d="M449.701 487H543.501C547.301 487 550.401 489.8 550.801 493.5C552.401 507.6 554.101 539.6 537.601 541.9C516.401 544.9 509.601 522 509.601 500.7L448.001 501C448.001 501 445.901 490.8 449.701 487Z" fill="#FC5546"/>
<path d="M424 527.7C424 527.7 422.2 549 429.1 554.8C436 560.7 416.9 563.3 412.2 552.5C407.5 541.7 413.9 527.7 413.9 527.7H424Z" fill="#FFCECA"/>
<path d="M422.2 530.5C422.2 530.5 428.6 531.6 431 538.5C432.4 542.4 433.2 546.6 433.6 549.5C433.9 551.4 431.7 552.7 430.1 551.5C428.5 550.3 427 548.5 427.2 545.4C427.7 538.9 419.9 540.8 419.9 540.8C419.9 540.8 417.3 533.1 422.2 530.5Z" fill="#FFCECA"/>
<path d="M526.9 501.7H522V487.2C522 486.4 522.7 485.7 523.5 485.7H525.5C526.3 485.7 527 486.4 527 487.2V501.7H526.9ZM534.2 501.7H529.3V492.1C529.3 491.3 530 490.6 530.8 490.6H532.8C533.6 490.6 534.3 491.3 534.3 492.1V501.7H534.2ZM543.5 501.7H536.7V480.8C536.7 479.7 537.6 478.8 538.7 478.8H541.5C542.6 478.8 543.5 479.7 543.5 480.8V501.7Z" fill="#F7F7F7"/>
<path opacity="0.32" d="M511.199 501.7H548.999V504.9H511.199V501.7Z" fill="#161616"/>
<path d="M201.4 791.5C199.6 786.9 197.4 782.4 194.6 778.3C192.9 775.8 192.8 772.5 194.2 769.9L200.4 758.7L185.8 746.3L175.8 754.3C173.4 756.2 170.2 756.6 167.4 755.3C162.9 753.3 158.1 751.7 153.3 750.8C150.3 750.2 147.9 748 147.1 745.1L143.6 732.9L124.5 734.5L123 747.2C122.7 750.2 120.6 752.8 117.8 753.9C113.2 755.7 108.7 757.9 104.6 760.7C102.1 762.4 98.7996 762.5 96.1996 761.1L84.9996 754.9L72.5996 769.5L80.5996 779.5C82.4996 781.9 82.8996 785.1 81.5996 787.9C79.5996 792.4 77.9996 797.2 77.0996 802C76.4996 805 74.2996 807.4 71.3996 808.2L59.0996 811.7L60.6996 830.8L73.3996 832.3C76.3996 832.6 78.9996 834.7 80.0996 837.5C81.8996 842.1 84.0996 846.6 86.8996 850.7C88.5996 853.2 88.6996 856.5 87.2996 859.1L81.0996 870.3L95.6996 882.7L105.7 874.7C108.1 872.8 111.3 872.4 114.1 873.7C118.6 875.7 123.4 877.3 128.2 878.2C131.2 878.8 133.6 881 134.4 883.9L137.9 896.2L157 894.6L158.5 881.9C158.8 878.9 160.9 876.3 163.7 875.2C168.3 873.4 172.8 871.2 176.9 868.4C179.4 866.7 182.7 866.6 185.3 868L196.5 874.2L208.9 859.6L200.9 849.6C199 847.2 198.6 844 199.9 841.2C201.9 836.7 203.5 831.9 204.4 827.1C205 824.1 207.2 821.7 210.1 820.9L222.4 817.4L220.8 798.3L208.1 796.8C205.1 796.4 202.5 794.3 201.4 791.5ZM144.8 863C118 865.2 94.4996 845.3 92.1996 818.5C89.9996 791.7 109.9 768.2 136.7 765.9C163.5 763.7 187 783.6 189.3 810.4C191.5 837.2 171.6 860.7 144.8 863Z" fill="#FC5546"/>
<path d="M108.401 817.2C106.901 799.3 120.201 783.6 138.001 782.1C155.901 780.6 171.601 793.9 173.101 811.7C174.601 829.6 161.301 845.3 143.501 846.8C125.601 848.3 109.901 835.1 108.401 817.2Z" fill="#FC5546"/>
<path d="M357.099 659.9C352.299 655.6 347.099 651.8 341.399 648.7C337.899 646.8 335.899 643.1 335.999 639.2L336.499 622.6L312.299 617L305.499 632.1C303.899 635.7 300.399 638.1 296.399 638.3C289.999 638.6 283.599 639.7 277.399 641.5C273.599 642.6 269.499 641.5 266.799 638.6L255.499 626.5L234.399 639.6L240.199 655.2C241.599 658.9 240.799 663.1 238.099 666C233.799 670.8 229.999 676 226.899 681.7C224.999 685.2 221.299 687.2 217.399 687.1L200.799 686.6L195.199 710.8L210.299 717.6C213.899 719.2 216.299 722.7 216.499 726.7C216.799 733.1 217.899 739.5 219.599 745.7C220.699 749.5 219.599 753.6 216.699 756.3L204.599 767.6L217.699 788.7L233.299 782.8C236.999 781.4 241.099 782.2 244.099 784.9C248.899 789.2 254.099 793 259.799 796.1C263.299 798 265.399 801.7 265.199 805.6L264.699 822.2L288.899 827.8L295.699 812.7C297.299 809.1 300.799 806.7 304.799 806.5C311.199 806.2 317.599 805.1 323.799 803.4C327.599 802.3 331.699 803.4 334.399 806.3L345.699 818.4L366.799 805.3L360.999 789.7C359.599 786 360.399 781.8 363.099 778.9C367.399 774.1 371.199 768.9 374.299 763.2C376.199 759.7 379.899 757.7 383.799 757.8L400.399 758.3L405.999 734.1L390.899 727.3C387.299 725.7 384.899 722.2 384.699 718.2C384.399 711.8 383.299 705.4 381.599 699.2C380.499 695.4 381.599 691.3 384.499 688.6L396.599 677.3L383.499 656.2L367.899 662C364.199 663.3 360.099 662.5 357.099 659.9ZM334.099 776C304.499 794.5 265.499 785.4 246.999 755.8C228.499 726.2 237.599 687.2 267.199 668.7C296.799 650.2 335.799 659.3 354.299 688.9C372.699 718.6 363.699 757.5 334.099 776Z" fill="#FFD0CC"/>
<path d="M264.9 744.6C252.6 724.9 258.6 698.9 278.4 686.6C298.2 674.3 324.1 680.3 336.4 700.1C348.7 719.8 342.7 745.8 322.9 758.1C303.2 770.4 277.2 764.4 264.9 744.6Z" fill="#FFD0CC"/>
<path d="M1056.8 194.4C1052.9 199.4 1049.7 204.8 1047.1 210.6C1045.5 214.1 1042.1 216.5 1038.2 216.7L1021.9 217.5L1018.3 241.6L1033.6 247.1C1037.2 248.4 1039.8 251.7 1040.3 255.5C1041.1 261.8 1042.6 267.9 1044.9 273.8C1046.3 277.4 1045.5 281.5 1042.9 284.4L1032 296.4L1046.5 316L1061.3 309.1C1064.8 307.5 1068.9 307.9 1072 310.3C1077 314.2 1082.4 317.4 1088.2 320C1091.7 321.6 1094.1 325 1094.3 328.9L1095.1 345.2L1119.2 348.8L1124.7 333.5C1126 329.9 1129.3 327.3 1133.1 326.8C1139.4 326 1145.5 324.5 1151.4 322.2C1155 320.8 1159.1 321.6 1162 324.2L1174 335.2L1193.6 320.7L1186.7 305.9C1185.1 302.4 1185.5 298.3 1187.9 295.2C1191.8 290.2 1195 284.8 1197.6 279C1199.2 275.5 1202.6 273.1 1206.5 272.9L1222.8 272.1L1226.4 248L1211.1 242.5C1207.5 241.2 1204.9 237.9 1204.4 234.1C1203.6 227.8 1202.1 221.7 1199.8 215.8C1198.4 212.2 1199.2 208.1 1201.8 205.2L1212.8 193.2L1198.3 173.6L1183.5 180.5C1180 182.1 1175.9 181.7 1172.8 179.3C1167.8 175.4 1162.4 172.2 1156.6 169.6C1153.1 168 1150.7 164.6 1150.5 160.7L1149.7 144.4L1125.6 140.8L1120.1 156.1C1118.8 159.7 1115.5 162.3 1111.7 162.8C1105.4 163.6 1099.3 165.1 1093.4 167.4C1089.8 168.8 1085.7 168 1082.8 165.4L1070.8 154.4L1051.2 168.9L1058.1 183.7C1059.6 187.2 1059.2 191.3 1056.8 194.4ZM1172.1 207.9C1192.4 235.4 1186.6 274.3 1159.1 294.6C1131.6 314.9 1092.7 309.1 1072.4 281.6C1052.1 254.1 1057.9 215.2 1085.4 194.9C1113 174.6 1151.8 180.4 1172.1 207.9Z" fill="#FC5546"/>
<path d="M1146.8 278C1128.4 291.6 1102.6 287.7 1089 269.3C1075.4 250.9 1079.3 225.1 1097.7 211.5C1116.1 197.9 1141.9 201.8 1155.5 220.2C1169.1 238.5 1165.2 264.4 1146.8 278Z" fill="#FC5546"/>
<path d="M810.001 113.6C808.501 121.7 808.001 129.9 808.301 138.1C808.501 143.1 806.001 147.9 801.601 150.4L783.301 160.9L793.401 190.9L814.401 188.2C819.401 187.6 824.301 189.8 827.101 193.9C831.801 200.7 837.201 206.9 843.201 212.4C846.901 215.8 848.401 221 847.101 225.8L841.601 246.1L869.901 260.2L882.901 243.5C886.001 239.5 891.001 237.6 895.901 238.5C904.001 240 912.201 240.6 920.401 240.2C925.401 240 930.201 242.5 932.701 246.9L943.201 265.2L973.201 255.1L970.501 234.1C969.901 229.1 972.101 224.2 976.201 221.4C983.001 216.8 989.201 211.3 994.701 205.3C998.101 201.6 1003.3 200.1 1008.1 201.4L1028.5 206.9L1042.6 178.5L1025.8 165.5C1021.8 162.4 1019.9 157.4 1020.8 152.5C1022.3 144.4 1022.9 136.2 1022.5 128C1022.3 123 1024.9 118.2 1029.2 115.7L1047.5 105.2L1037.4 75.1998L1016.4 77.8998C1011.4 78.4998 1006.5 76.2998 1003.7 72.1998C999.101 65.3998 993.601 59.1998 987.601 53.6998C983.901 50.2998 982.401 45.0998 983.701 40.2998L989.201 19.8998L961.001 5.7998L948.001 22.4998C944.901 26.4998 939.901 28.3998 935.001 27.4998C926.901 25.9998 918.701 25.3998 910.501 25.7998C905.501 25.9998 900.701 23.4998 898.201 19.0998L887.701 0.799805L857.701 10.8998L860.401 31.8998C861.001 36.8998 858.801 41.7998 854.701 44.5998C847.901 49.1998 841.701 54.6998 836.201 60.6998C832.801 64.3998 827.601 65.8998 822.801 64.5998L802.401 59.0998L788.301 87.4998L805.001 100.5C809.101 103.6 811.001 108.6 810.001 113.6ZM951.301 60.8998C991.101 80.6998 1007.3 129 987.601 168.8C967.801 208.6 919.501 224.8 879.701 205.1C839.901 185.3 823.701 137 843.401 97.1998C863.201 57.3998 911.501 41.1998 951.301 60.8998Z" fill="#FFD0CC"/>
<path d="M963.5 156.9C950.3 183.4 918.1 194.3 891.6 181.1C865.1 167.9 854.2 135.7 867.4 109.2C880.6 82.7002 912.8 71.8002 939.3 85.0002C965.9 98.1002 976.7 130.3 963.5 156.9Z" fill="#FFD0CC"/>
</svg>
