<svg width="635" height="296" viewBox="0 0 635 296" fill="none" xmlns="http://www.w3.org/2000/svg">
<g clip-path="url(#clip0_2541_2388)">
<path d="M266.157 0H121.875V136.16H266.157V0Z" fill="#E3FAFA"/>
<path d="M486.614 12.1429H356.672V134.772H486.614V12.1429Z" fill="#E3FAFA"/>
<path d="M611.893 203.102L608.414 203.577C607.906 199.82 606.654 196.202 604.732 192.935L607.753 191.161C605.634 187.555 602.832 184.397 599.502 181.865L597.373 184.656C594.357 182.359 590.912 180.689 587.241 179.744L588.124 176.34C585.284 175.602 582.356 175.256 579.422 175.313V191.928C581.515 191.842 583.604 192.179 585.563 192.92C587.522 193.661 589.311 194.79 590.823 196.24C592.334 197.691 593.537 199.431 594.359 201.358C595.18 203.285 595.604 205.358 595.604 207.452C595.604 209.547 595.18 211.62 594.359 213.546C593.537 215.473 592.334 217.214 590.823 218.664C589.311 220.114 587.522 221.243 585.563 221.984C583.604 222.725 581.515 223.063 579.422 222.976V239.574C581.081 239.607 582.74 239.507 584.383 239.277L583.911 235.798C587.671 235.293 591.292 234.043 594.564 232.123L596.34 235.143C599.947 233.025 603.105 230.221 605.636 226.891H605.624L604.821 226.275L602.845 224.772C605.141 221.756 606.811 218.312 607.757 214.642L611.162 215.525C612.222 211.473 612.471 207.251 611.893 203.102Z" fill="#A3EEFA"/>
<path d="M602.531 135.739C601.254 137.68 600.37 139.852 599.93 142.133L601.856 142.496C601.457 144.568 601.47 146.698 601.895 148.765L599.989 149.159C600.455 151.435 601.362 153.597 602.659 155.524L603.02 155.284L604.277 154.436C605.457 156.184 606.975 157.68 608.741 158.834L607.667 160.466C609.608 161.745 611.782 162.627 614.065 163.062L614.437 161.146C616.507 161.551 618.637 161.54 620.702 161.113L621.096 163.019C623.373 162.547 625.535 161.636 627.462 160.335L627.152 159.865L626.38 158.721C628.126 157.543 629.62 156.028 630.774 154.266L632.407 155.337C633.686 153.395 634.57 151.218 635.006 148.933L633.09 148.562C633.494 146.494 633.482 144.368 633.053 142.305L634.961 141.909C634.488 139.633 633.576 137.471 632.275 135.544L630.657 136.632C629.479 134.886 627.964 133.393 626.201 132.24L627.273 130.598C625.33 129.318 623.154 128.434 620.868 127.998L620.497 129.914C618.429 129.51 616.302 129.523 614.24 129.951L613.844 128.045C611.566 128.514 609.403 129.426 607.478 130.729V130.743L608.197 131.809L608.56 132.347C606.814 133.525 605.32 135.04 604.166 136.803L602.531 135.739ZM610.359 140.648C611.31 139.27 612.643 138.198 614.193 137.563C615.743 136.928 617.444 136.757 619.09 137.072C620.735 137.388 622.253 138.174 623.459 139.337C624.665 140.5 625.507 141.988 625.881 143.621C626.256 145.253 626.148 146.96 625.57 148.532C624.992 150.104 623.969 151.474 622.625 152.475C621.282 153.476 619.677 154.065 618.005 154.169C616.333 154.274 614.667 153.89 613.209 153.064C612.17 152.47 611.266 151.667 610.553 150.706C609.839 149.745 609.333 148.647 609.065 147.48C608.797 146.314 608.774 145.105 608.997 143.929C609.219 142.753 609.683 141.636 610.359 140.648Z" fill="#A3EEFA"/>
<path d="M571.763 48.6499C569.655 36.4638 550.851 31.035 551.252 38.9996L465.16 39.8579C459.205 39.9174 454.386 45.3011 454.406 51.89L455.16 278.295C455.183 285.12 460.125 290.68 466.203 290.707L554.09 291.099C554.64 292.243 555.667 293.281 557.279 294.144C567.357 294.318 572.172 289.321 573.911 283.687C574.502 282.107 574.792 280.431 574.766 278.744C574.406 275.792 572.412 51.506 571.763 48.6499Z" fill="#48C6C6"/>
<path d="M556.344 294.179L455.46 293.943C449.166 293.928 444.049 288.218 444.032 281.196L443.453 48.3563C443.437 41.5805 448.425 36.0634 454.597 36.0182L553.519 35.2893C559.74 35.2442 564.851 40.7161 564.931 47.5186L567.687 281.424C567.769 288.483 562.691 294.193 556.344 294.179Z" fill="#48C6C6"/>
<path d="M557.729 292.479C557.306 292.537 556.88 292.565 556.454 292.563L455.602 292.216C450.191 292.197 445.746 287.192 445.733 281.061L445.117 48.4775C445.101 42.5662 449.429 37.7225 454.74 37.6794L553.651 36.8417C553.807 36.8417 553.963 36.8417 554.117 36.8417C555.368 36.9021 556.594 37.2132 557.723 37.7563C558.852 38.2995 559.86 39.0637 560.688 40.0037C562.496 42.0421 563.498 44.6706 563.505 47.3954L566.238 281.539C566.306 287.099 562.659 291.797 557.729 292.479Z" fill="#312A52"/>
<path d="M560.044 48.5966L562.705 281.925L449.089 281.713L448.422 49.0565L560.044 48.5966Z" fill="white"/>
<path d="M467.791 243.439C467.791 243.439 454.125 235.078 463.087 202.125C472.048 169.172 445.684 152.13 460.167 134.004C469.818 121.964 491.995 141.628 513.944 124.904C529.837 112.79 546.655 113.592 553.823 141.628C564.392 182.96 541.34 200.762 547.774 221.553C555.84 247.629 534.556 263.113 511.032 251.309C496.036 243.783 477.21 253.769 467.791 243.439Z" fill="#CFFAFA"/>
<path d="M499.76 67.0718H461.342C459.79 67.0718 458.531 68.3303 458.531 69.8827V99.5441C458.531 101.097 459.79 102.355 461.342 102.355H499.76C501.312 102.355 502.571 101.097 502.571 99.5441V69.8827C502.571 68.3303 501.312 67.0718 499.76 67.0718Z" fill="#48C6C6"/>
<path d="M500.53 98.5237H462.805V72.515C462.805 72.4606 462.826 72.4083 462.865 72.3698C462.903 72.3313 462.956 72.3097 463.01 72.3097C463.064 72.3097 463.117 72.3313 463.155 72.3698C463.194 72.4083 463.215 72.4606 463.215 72.515V98.1212H500.538C500.593 98.1212 500.645 98.1429 500.684 98.1814C500.722 98.2199 500.744 98.2721 500.744 98.3265C500.744 98.381 500.722 98.4332 500.684 98.4717C500.645 98.5102 500.593 98.5319 500.538 98.5319L500.53 98.5237Z" fill="#FDFDFF"/>
<path d="M470.727 90.3599H466.562V98.3245H470.727V90.3599Z" fill="#FDFDFF"/>
<path d="M476.532 88.5448H472.367V98.3224H476.532V88.5448Z" fill="#FDFDFF"/>
<path d="M482.336 84.8654H478.172V98.3245H482.336V84.8654Z" fill="#FDFDFF"/>
<path d="M488.141 82.2947H483.977V98.3245H488.141V82.2947Z" fill="#FDFDFF"/>
<path d="M493.946 76.7488H489.781V98.3224H493.946V76.7488Z" fill="#FDFDFF"/>
<path d="M547.057 67.0718H508.639C507.087 67.0718 505.828 68.3303 505.828 69.8827V99.5441C505.828 101.097 507.087 102.355 508.639 102.355H547.057C548.609 102.355 549.868 101.097 549.868 99.5441V69.8827C549.868 68.3303 548.609 67.0718 547.057 67.0718Z" fill="#48C6C6"/>
<path d="M547.833 98.5236H510.109V73.9276C510.109 73.8732 510.131 73.8209 510.17 73.7824C510.208 73.7439 510.26 73.7223 510.315 73.7223C510.369 73.7223 510.421 73.7439 510.46 73.7824C510.498 73.8209 510.52 73.8732 510.52 73.9276V98.1212H547.841C547.895 98.1212 547.948 98.1428 547.986 98.1813C548.025 98.2198 548.046 98.2721 548.046 98.3265C548.046 98.381 548.025 98.4332 547.986 98.4717C547.948 98.5102 547.895 98.5318 547.841 98.5318L547.833 98.5236Z" fill="#FDFDFF"/>
<path d="M510.312 98.3225C516.631 97.7722 517.512 72.3651 526.888 83.7566C535.795 94.5773 536.264 74.4821 545.941 74.4821V98.0945L510.312 98.3225Z" fill="#FDFDFF"/>
<path d="M549.908 63.7434H458.578V55.9636H549.908V63.7434ZM458.798 63.5258H549.688V56.1833H458.798V63.5258Z" fill="#48C6C6"/>
<path d="M495.949 58.5466H480.789V61.1604H495.949V58.5466Z" fill="#48C6C6"/>
<path d="M505.287 58.5466H497.445V61.1604H505.287V58.5466Z" fill="#48C6C6"/>
<path d="M478.77 58.5466H460.25V61.1604H478.77V58.5466Z" fill="#48C6C6"/>
<path d="M549.908 271.646H458.578V263.866H549.908V271.646ZM458.798 271.427H549.688V264.084H458.798V271.427Z" fill="#48C6C6"/>
<path d="M495.949 266.441H480.789V269.055H495.949V266.441Z" fill="#48C6C6"/>
<path d="M505.287 266.441H497.445V269.055H505.287V266.441Z" fill="#48C6C6"/>
<path d="M531.053 266.441H523.211V269.055H531.053V266.441Z" fill="#48C6C6"/>
<path d="M478.77 266.441H460.25V269.055H478.77V266.441Z" fill="#48C6C6"/>
<path d="M502.301 107.316H458.836V109.78H502.301V107.316Z" fill="#CFFAFA"/>
<path d="M496.849 116.389H458.836V118.853H496.849V116.389Z" fill="#CFFAFA"/>
<path d="M524.779 111.798H458.836V114.262H524.779V111.798Z" fill="#CFFAFA"/>
<path d="M530.295 29.6531C532.417 29.6531 534.137 27.9332 534.137 25.8115C534.137 23.6898 532.417 21.9698 530.295 21.9698C528.173 21.9698 526.453 23.6898 526.453 25.8115C526.453 27.9332 528.173 29.6531 530.295 29.6531Z" fill="#A3EEFA"/>
<path d="M516.701 13.7692L515.07 11.9212C524.216 2.73906 538.479 3.07785 547.176 12.6768L545.455 14.4509C537.656 5.86823 524.9 5.56435 516.701 13.7692Z" fill="#A3EEFA"/>
<path d="M520.086 17.6231L518.453 15.7752C525.64 8.62575 536.77 8.88857 543.599 16.3624L541.881 18.1365C535.95 11.6769 526.314 11.451 520.086 17.6231Z" fill="#A3EEFA"/>
<path d="M523.365 21.354L521.734 19.506C527.006 14.3195 535.121 14.5084 540.143 19.9167L538.425 21.6927C534.299 17.3008 527.687 17.1468 523.365 21.354Z" fill="#A3EEFA"/>
<path d="M343.884 37.9011H338.336V63.4683H343.884V37.9011Z" fill="#241F3C"/>
<path d="M344.476 55.666H337.973C337.382 56.1446 336.906 56.7492 336.58 57.4356C336.253 58.122 336.085 58.8728 336.086 59.6329L336.098 64.3102L346.365 64.2918L346.353 59.6144C346.353 58.8582 346.185 58.1116 345.86 57.4286C345.535 56.7456 345.063 56.1435 344.476 55.666Z" fill="#48C6C6"/>
<path d="M337.443 66.6591C337.123 66.386 336.742 66.1946 336.332 66.1014C335.923 66.0081 335.496 66.0157 335.09 66.1236C334.684 66.2314 334.31 66.4363 334 66.7205C333.691 67.0048 333.455 67.36 333.313 67.7555L328.336 81.7197C328.271 81.903 328.274 82.1032 328.343 82.2848C328.412 82.4664 328.543 82.6175 328.713 82.7114C328.893 82.8104 329.104 82.8382 329.304 82.7896C329.503 82.7409 329.677 82.6193 329.792 82.4486L337.942 70.0839C338.293 69.5511 338.436 68.9079 338.344 68.2766C338.252 67.6452 337.931 67.0696 337.443 66.6591Z" fill="#241F3C"/>
<path d="M345.772 66.1684C346.121 65.9349 346.522 65.7898 346.94 65.7453C347.358 65.7008 347.78 65.7584 348.171 65.9131C348.562 66.0677 348.909 66.3148 349.183 66.6333C349.458 66.9517 349.65 67.3318 349.745 67.7411L353.047 82.1858C353.09 82.3756 353.065 82.5745 352.975 82.7471C352.885 82.9197 352.737 83.0548 352.557 83.1283C352.366 83.2057 352.153 83.2088 351.96 83.137C351.768 83.0651 351.609 82.9235 351.515 82.7402L344.875 69.5028C344.591 68.9334 344.526 68.2798 344.691 67.6654C344.856 67.0511 345.241 66.5185 345.772 66.1684Z" fill="#241F3C"/>
<path d="M347.341 64.2897H335.195V65.7557H347.341V64.2897Z" fill="#241F3C"/>
<path d="M338.507 65.9097C338.508 66.1455 338.439 66.3764 338.309 66.573C338.179 66.7697 337.994 66.9233 337.776 67.0143C337.558 67.1054 337.319 67.1299 337.087 67.0846C336.856 67.0394 336.643 66.9264 336.476 66.7601C336.309 66.5938 336.195 66.3817 336.148 66.1505C336.102 65.9193 336.125 65.6795 336.215 65.4616C336.305 65.2436 336.458 65.0572 336.654 64.9261C336.85 64.795 337.08 64.725 337.316 64.725C337.472 64.7244 337.627 64.7547 337.771 64.8139C337.915 64.8732 338.047 64.9604 338.157 65.0704C338.268 65.1804 338.356 65.3112 338.416 65.4552C338.476 65.5992 338.507 65.7537 338.507 65.9097Z" fill="#241F3C"/>
<path d="M346.37 65.9097C346.371 66.145 346.302 66.3753 346.172 66.5713C346.042 66.7673 345.856 66.9204 345.639 67.011C345.422 67.1016 345.183 67.1257 344.952 67.0803C344.721 67.0349 344.509 66.922 344.342 66.7559C344.175 66.5898 344.062 66.378 344.015 66.1473C343.969 65.9165 343.992 65.6773 344.082 65.4598C344.172 65.2424 344.325 65.0564 344.52 64.9256C344.716 64.7948 344.946 64.725 345.181 64.725C345.337 64.7244 345.492 64.7547 345.636 64.814C345.78 64.8733 345.911 64.9605 346.022 65.0705C346.132 65.1806 346.22 65.3114 346.279 65.4554C346.339 65.5994 346.37 65.7538 346.37 65.9097Z" fill="#241F3C"/>
<path d="M341.037 33.6674H320.078V42.1329H341.037V33.6674Z" fill="#241F3C"/>
<path d="M323.3 47.1675H306.111C303.653 47.1669 301.296 46.1905 299.559 44.4528C297.821 42.7152 296.844 40.3586 296.844 37.9011C296.844 36.6842 297.083 35.4793 297.549 34.355C298.015 33.2308 298.697 32.2093 299.558 31.3488C300.419 30.4884 301.44 29.8058 302.564 29.3401C303.689 28.8744 304.894 28.6348 306.111 28.6348H323.3V47.1675Z" fill="#48C6C6"/>
<path d="M340.045 47.1675H327.93V28.6348H340.045C341.262 28.6345 342.467 28.874 343.592 29.3395C344.716 29.8051 345.738 30.4876 346.599 31.3481C347.46 32.2086 348.143 33.2302 348.608 34.3546C349.074 35.4789 349.314 36.6841 349.314 37.9011C349.313 40.3589 348.337 42.7158 346.598 44.4536C344.86 46.1913 342.503 47.1675 340.045 47.1675Z" fill="#48C6C6"/>
<path d="M342.197 42.3239C341.305 42.6957 340.322 42.7947 339.374 42.6082C338.426 42.4218 337.554 41.9584 336.869 41.2765C336.184 40.5947 335.717 39.725 335.526 38.7776C335.335 37.8301 335.43 36.8474 335.797 35.9537C336.165 35.0599 336.79 34.2953 337.592 33.7565C338.395 33.2177 339.339 32.9288 340.305 32.9265C341.272 32.9242 342.217 33.2085 343.022 33.7435C343.827 34.2785 344.455 35.0402 344.827 35.9321C345.315 37.1296 345.313 38.4708 344.821 39.6665C344.329 40.8622 343.386 41.8166 342.197 42.3239ZM339.201 35.2115C338.686 35.4302 338.248 35.7964 337.941 36.264C337.634 36.7316 337.473 37.2795 337.477 37.8387C337.481 38.3979 337.651 38.9433 337.965 39.4062C338.279 39.8691 338.723 40.2287 339.24 40.4396C339.758 40.6505 340.327 40.7034 340.875 40.5915C341.423 40.4796 341.926 40.2079 342.319 39.8108C342.713 39.4137 342.981 38.9089 343.088 38.36C343.195 37.8111 343.137 37.2428 342.922 36.7268C342.778 36.3818 342.568 36.0687 342.303 35.8056C342.038 35.5424 341.723 35.3343 341.377 35.1934C341.031 35.0525 340.661 34.9816 340.287 34.9847C339.914 34.9878 339.545 35.0648 339.201 35.2115Z" fill="#241F3C"/>
<path d="M267.153 79.8451L252.383 57.1053L257.155 54.0377L271.925 76.7776L267.153 79.8451Z" fill="#241F3C"/>
<path d="M225.022 90.7542C224.495 89.9395 224.135 89.0287 223.962 88.0743C223.789 87.1198 223.806 86.1405 224.013 85.1928C224.22 84.245 224.612 83.3476 225.167 82.5521C225.723 81.7566 226.43 81.0788 227.248 80.5577L265.421 56.1239L273.448 68.5338L235.275 92.9635C233.62 94.0227 231.614 94.3849 229.693 93.971C227.773 93.5572 226.094 92.4009 225.022 90.7542Z" fill="#241F3C"/>
<path d="M270.159 80.2825L311.458 49.8635C314.012 47.989 315.751 45.2072 316.317 42.0901C316.883 38.973 316.233 35.7575 314.501 33.1047C312.759 30.4471 310.072 28.5505 306.984 27.7984C303.896 27.0463 300.638 27.495 297.868 29.0537L253.219 54.2061L270.159 80.2825Z" fill="#48C6C6"/>
<path d="M308.339 46.5926C306.555 47.7415 304.389 48.1398 302.312 47.7007C300.236 47.2616 298.417 46.0207 297.251 44.2478C296.678 43.3694 296.286 42.3866 296.094 41.3559C295.903 40.3253 295.918 39.267 296.137 38.2419C296.356 37.2168 296.775 36.245 297.371 35.3825C297.966 34.5199 298.727 33.7835 299.608 33.2156C301.392 32.0666 303.558 31.6684 305.634 32.1075C307.711 32.5466 309.53 33.7875 310.696 35.5604C311.268 36.4388 311.661 37.4216 311.852 38.4522C312.044 39.4829 312.029 40.5412 311.81 41.5663C311.591 42.5914 311.172 43.5631 310.576 44.4257C309.98 45.2883 309.22 46.0247 308.339 46.5926ZM301.439 36.0306C300.929 36.3594 300.489 36.7857 300.144 37.2851C299.799 37.7845 299.556 38.3471 299.429 38.9407C299.302 39.5343 299.294 40.147 299.405 40.7438C299.515 41.3406 299.743 41.9097 300.074 42.4183C300.749 43.4454 301.803 44.1644 303.006 44.4189C304.209 44.6734 305.463 44.4429 306.497 43.7776C307.007 43.4486 307.447 43.0222 307.792 42.5228C308.137 42.0234 308.38 41.4608 308.507 40.8673C308.633 40.2738 308.642 39.6611 308.531 39.0644C308.421 38.4676 308.194 37.8986 307.863 37.3899C307.187 36.3628 306.133 35.6438 304.931 35.3893C303.728 35.1348 302.473 35.3653 301.439 36.0306Z" fill="#241F3C"/>
<path d="M244.354 213.079C231.996 208.188 225.967 194.259 230.885 181.968L253.212 126.183C258.13 113.892 272.137 107.897 284.492 112.788C296.85 117.681 302.878 131.61 297.96 143.899L275.634 199.686C270.712 211.974 256.707 217.972 244.354 213.079Z" fill="#3CA6A6"/>
<path d="M292.007 151.044C281.957 159.709 266.749 158.641 258.035 148.64L218.482 103.279C216.411 100.907 214.829 98.149 213.829 95.1633C212.829 92.1775 212.43 89.0234 212.655 85.8827C212.879 82.7419 213.723 79.6767 215.138 76.8637C216.553 74.0507 218.511 71.5456 220.899 69.4927C230.946 60.8259 246.156 61.8956 254.868 71.895L294.419 117.258C296.49 119.629 298.071 122.388 299.072 125.373C300.072 128.359 300.471 131.512 300.247 134.653C300.023 137.794 299.179 140.859 297.765 143.672C296.351 146.485 294.394 148.991 292.007 151.044Z" fill="#41B3B3"/>
<path d="M227.442 76.9973C226.185 78.0782 225.154 79.3971 224.41 80.8781C223.665 82.3591 223.22 83.9729 223.102 85.6264C222.984 87.2799 223.194 88.9404 223.721 90.5122C224.248 92.0841 225.08 93.5361 226.171 94.7847C228.382 97.3119 231.503 98.8631 234.853 99.1004C238.202 99.3377 241.51 98.2418 244.056 96.0516C245.313 94.9704 246.343 93.6512 247.088 92.17C247.833 90.6889 248.277 89.075 248.395 87.4214C248.513 85.7678 248.303 84.1072 247.776 82.5352C247.25 80.9633 246.417 79.511 245.327 78.2621C243.115 75.7352 239.995 74.1844 236.645 73.9475C233.295 73.7106 229.987 74.8068 227.442 76.9973ZM240.717 92.2222C239.195 93.5321 237.216 94.1874 235.213 94.0455C233.21 93.9036 231.344 92.9759 230.021 91.4646C229.369 90.7178 228.871 89.8493 228.556 88.9093C228.242 87.9693 228.116 86.9763 228.187 85.9875C228.257 84.9987 228.523 84.0336 228.968 83.1479C229.413 82.2622 230.029 81.4733 230.781 80.8267C232.303 79.5158 234.281 78.8598 236.285 79.0017C238.289 79.1437 240.155 80.072 241.477 81.5843C242.129 82.3311 242.626 83.1994 242.941 84.1392C243.255 85.079 243.381 86.0718 243.31 87.0603C243.24 88.0489 242.974 89.0137 242.529 89.8993C242.084 90.7848 241.468 91.5736 240.717 92.2202V92.2222Z" fill="#241F3C"/>
<path d="M280.798 122.017C278.477 121.098 275.935 120.888 273.495 121.414C271.054 121.939 268.825 123.177 267.088 124.969C265.351 126.762 264.184 129.03 263.736 131.485C263.288 133.941 263.578 136.474 264.57 138.765C265.562 141.055 267.212 143 269.309 144.354C271.407 145.707 273.859 146.408 276.355 146.368C278.851 146.328 281.279 145.548 283.332 144.128C285.385 142.708 286.97 140.711 287.888 138.39C289.096 135.277 289.029 131.813 287.702 128.749C286.375 125.685 283.894 123.266 280.798 122.017ZM273.309 140.741C271.928 140.181 270.744 139.224 269.905 137.992C269.067 136.761 268.612 135.308 268.598 133.818C268.584 132.328 269.011 130.867 269.826 129.62C270.641 128.372 271.807 127.394 273.177 126.807C274.547 126.221 276.059 126.054 277.525 126.326C278.99 126.598 280.341 127.297 281.41 128.336C282.478 129.375 283.214 130.707 283.527 132.164C283.839 133.621 283.713 135.138 283.165 136.523C282.8 137.452 282.255 138.298 281.56 139.014C280.866 139.73 280.036 140.3 279.119 140.693C278.202 141.085 277.216 141.292 276.219 141.3C275.221 141.308 274.232 141.118 273.309 140.741Z" fill="#241F3C"/>
<path d="M253.241 182.28C250.92 181.362 248.379 181.152 245.939 181.678C243.499 182.204 241.269 183.441 239.533 185.234C237.796 187.026 236.63 189.293 236.182 191.749C235.734 194.204 236.024 196.737 237.015 199.027C238.007 201.318 239.655 203.263 241.752 204.616C243.849 205.97 246.3 206.671 248.796 206.632C251.292 206.593 253.72 205.814 255.773 204.395C257.826 202.976 259.412 200.98 260.331 198.659C261.542 195.545 261.477 192.08 260.149 189.014C258.822 185.948 256.34 183.529 253.241 182.28ZM245.748 201.002C244.368 200.442 243.184 199.485 242.346 198.254C241.509 197.022 241.054 195.57 241.04 194.081C241.026 192.591 241.454 191.131 242.268 189.884C243.083 188.637 244.248 187.659 245.618 187.073C246.987 186.487 248.499 186.32 249.964 186.591C251.428 186.863 252.78 187.562 253.848 188.601C254.915 189.639 255.652 190.971 255.965 192.427C256.277 193.883 256.152 195.399 255.604 196.785C255.24 197.713 254.694 198.56 254 199.276C253.305 199.992 252.475 200.562 251.558 200.955C250.641 201.347 249.655 201.553 248.658 201.562C247.66 201.57 246.671 201.379 245.748 201.002Z" fill="#241F3C"/>
<path d="M248.96 216.693H251.868C257.285 216.693 262.48 218.845 266.311 222.675C270.141 226.505 272.293 231.7 272.293 237.117V257.126H228.539V237.117C228.539 231.701 230.69 226.506 234.52 222.676C238.35 218.846 243.544 216.694 248.96 216.693Z" fill="#241F3C"/>
<path d="M244.152 230.659C243.165 231.507 242.356 232.542 241.771 233.705C241.186 234.867 240.837 236.134 240.744 237.432C240.651 238.73 240.816 240.034 241.23 241.268C241.644 242.502 242.298 243.642 243.154 244.621C244.889 246.606 247.338 247.825 249.968 248.011C252.598 248.197 255.194 247.336 257.192 245.615C258.179 244.767 258.988 243.732 259.573 242.569C260.158 241.407 260.507 240.14 260.6 238.842C260.693 237.544 260.528 236.24 260.114 235.006C259.7 233.772 259.046 232.633 258.189 231.653C256.454 229.669 254.005 228.45 251.376 228.264C248.746 228.078 246.15 228.939 244.152 230.659ZM254.571 242.609C253.377 243.638 251.824 244.153 250.251 244.042C248.678 243.93 247.213 243.202 246.175 242.016C245.663 241.429 245.273 240.748 245.026 240.01C244.778 239.272 244.68 238.492 244.735 237.716C244.791 236.94 245 236.182 245.349 235.487C245.699 234.792 246.182 234.173 246.772 233.665C247.967 232.637 249.52 232.122 251.092 232.234C252.665 232.345 254.129 233.074 255.167 234.261C255.679 234.847 256.069 235.529 256.316 236.267C256.563 237.005 256.661 237.784 256.605 238.56C256.549 239.336 256.34 240.094 255.99 240.789C255.64 241.484 255.156 242.102 254.565 242.609H254.571Z" fill="#48C6C6"/>
<path d="M292.763 278.285H209.242V266.688C209.242 263.86 210.366 261.148 212.365 259.148C214.365 257.149 217.078 256.025 219.906 256.025H282.098C284.926 256.025 287.638 257.149 289.638 259.148C291.638 261.148 292.761 263.86 292.761 266.688L292.763 278.285Z" fill="#312A52"/>
<path d="M306.347 271.468H195.523V293.729H306.347V271.468Z" fill="#241F3C"/>
<path d="M631.795 296H6.04965C5.75883 296 5.47993 295.884 5.27429 295.679C5.06865 295.473 4.95313 295.194 4.95312 294.904C4.95313 294.613 5.06865 294.334 5.27429 294.128C5.47993 293.923 5.75883 293.807 6.04965 293.807H631.795C632.086 293.807 632.365 293.923 632.57 294.128C632.776 294.334 632.891 294.613 632.891 294.904C632.891 295.194 632.776 295.473 632.57 295.679C632.365 295.884 632.086 296 631.795 296Z" fill="#2A7373"/>
<path d="M86.5331 147.048H34.6719V192.569H86.5331V147.048Z" fill="#E68D45"/>
<path d="M102.166 147.048H50.3047V192.569H102.166V147.048Z" fill="#FDB477"/>
<g style="mix-blend-mode:soft-light">
<path d="M77.5158 147.048H71.9141V156.232H77.5158V147.048Z" fill="white"/>
</g>
<path d="M92.1735 184.124H86.7812V189.276H92.1735V184.124Z" fill="#E68D45"/>
<path d="M99.6501 184.124H94.2578V189.276H99.6501V184.124Z" fill="#E68D45"/>
<path d="M84.6423 184.124H79.25V189.276H84.6423V184.124Z" fill="#E68D45"/>
<path d="M524.588 194.766H169.467C165.414 194.766 161.526 196.376 158.659 199.242C155.792 202.108 154.181 205.995 154.18 210.048C154.18 212.056 154.575 214.044 155.343 215.898C156.112 217.753 157.238 219.438 158.657 220.858C160.077 222.277 161.762 223.403 163.617 224.171C165.472 224.94 167.46 225.335 169.467 225.335H524.588V194.766Z" fill="#48C6C6"/>
<path d="M358.548 224.83H355.172V227.536H358.548V224.83Z" fill="#241F3C"/>
<path d="M351.798 224.83H348.422V227.536H351.798V224.83Z" fill="#241F3C"/>
<path d="M365.204 192.569H361.828V195.275H365.204V192.569Z" fill="#241F3C"/>
<path d="M365.298 224.83H361.922V227.536H365.298V224.83Z" fill="#241F3C"/>
<path d="M358.454 192.569H355.078V195.275H358.454V192.569Z" fill="#241F3C"/>
<path d="M372.048 224.83H368.672V227.536H372.048V224.83Z" fill="#241F3C"/>
<path d="M378.806 224.83H375.43V227.536H378.806V224.83Z" fill="#241F3C"/>
<path d="M371.954 192.569H368.578V195.275H371.954V192.569Z" fill="#241F3C"/>
<path d="M385.462 192.569H382.086V195.275H385.462V192.569Z" fill="#241F3C"/>
<path d="M378.712 192.569H375.336V195.275H378.712V192.569Z" fill="#241F3C"/>
<path d="M351.704 192.569H348.328V195.275H351.704V192.569Z" fill="#241F3C"/>
<path d="M324.79 224.83H321.414V227.536H324.79V224.83Z" fill="#241F3C"/>
<path d="M385.556 224.83H382.18V227.536H385.556V224.83Z" fill="#241F3C"/>
<path d="M318.04 224.83H314.664V227.536H318.04V224.83Z" fill="#241F3C"/>
<path d="M324.696 192.569H321.32V195.275H324.696V192.569Z" fill="#241F3C"/>
<path d="M345.048 224.83H341.672V227.536H345.048V224.83Z" fill="#241F3C"/>
<path d="M317.946 192.569H314.57V195.275H317.946V192.569Z" fill="#241F3C"/>
<path d="M311.29 224.83H307.914V227.536H311.29V224.83Z" fill="#241F3C"/>
<path d="M344.954 192.569H341.578V195.275H344.954V192.569Z" fill="#241F3C"/>
<path d="M466.571 224.83H463.195V227.536H466.571V224.83Z" fill="#241F3C"/>
<path d="M338.298 224.83H334.922V227.536H338.298V224.83Z" fill="#241F3C"/>
<path d="M338.204 192.569H334.828V195.275H338.204V192.569Z" fill="#241F3C"/>
<path d="M331.54 224.83H328.164V227.536H331.54V224.83Z" fill="#241F3C"/>
<path d="M419.22 192.569H415.844V195.275H419.22V192.569Z" fill="#241F3C"/>
<path d="M432.72 192.569H429.344V195.275H432.72V192.569Z" fill="#241F3C"/>
<path d="M446.313 224.83H442.938V227.536H446.313V224.83Z" fill="#241F3C"/>
<path d="M439.563 224.83H436.188V227.536H439.563V224.83Z" fill="#241F3C"/>
<path d="M439.47 192.569H436.094V195.275H439.47V192.569Z" fill="#241F3C"/>
<path d="M432.813 224.83H429.438V227.536H432.813V224.83Z" fill="#241F3C"/>
<path d="M446.22 192.569H442.844V195.275H446.22V192.569Z" fill="#241F3C"/>
<path d="M459.821 224.83H456.445V227.536H459.821V224.83Z" fill="#241F3C"/>
<path d="M452.97 192.569H449.594V195.275H452.97V192.569Z" fill="#241F3C"/>
<path d="M466.477 192.569H463.102V195.275H466.477V192.569Z" fill="#241F3C"/>
<path d="M453.063 224.83H449.688V227.536H453.063V224.83Z" fill="#241F3C"/>
<path d="M459.727 192.569H456.352V195.275H459.727V192.569Z" fill="#241F3C"/>
<path d="M425.97 192.569H422.594V195.275H425.97V192.569Z" fill="#241F3C"/>
<path d="M405.712 192.569H402.336V195.275H405.712V192.569Z" fill="#241F3C"/>
<path d="M399.056 224.83H395.68V227.536H399.056V224.83Z" fill="#241F3C"/>
<path d="M392.306 224.83H388.93V227.536H392.306V224.83Z" fill="#241F3C"/>
<path d="M398.962 192.569H395.586V195.275H398.962V192.569Z" fill="#241F3C"/>
<path d="M405.806 224.83H402.43V227.536H405.806V224.83Z" fill="#241F3C"/>
<path d="M392.212 192.569H388.836V195.275H392.212V192.569Z" fill="#241F3C"/>
<path d="M426.063 224.83H422.688V227.536H426.063V224.83Z" fill="#241F3C"/>
<path d="M419.313 224.83H415.938V227.536H419.313V224.83Z" fill="#241F3C"/>
<path d="M311.196 192.569H307.82V195.275H311.196V192.569Z" fill="#241F3C"/>
<path d="M412.556 224.83H409.18V227.536H412.556V224.83Z" fill="#241F3C"/>
<path d="M412.462 192.569H409.086V195.275H412.462V192.569Z" fill="#241F3C"/>
<path d="M331.446 192.569H328.07V195.275H331.446V192.569Z" fill="#241F3C"/>
<path d="M196.516 224.83H193.141V227.536H196.516V224.83Z" fill="#241F3C"/>
<path d="M203.173 192.569H199.797V195.275H203.173V192.569Z" fill="#241F3C"/>
<path d="M183.016 224.83H179.641V227.536H183.016V224.83Z" fill="#241F3C"/>
<path d="M189.766 224.83H186.391V227.536H189.766V224.83Z" fill="#241F3C"/>
<path d="M203.266 224.83H199.891V227.536H203.266V224.83Z" fill="#241F3C"/>
<path d="M189.673 192.569H186.297V195.275H189.673V192.569Z" fill="#241F3C"/>
<path d="M196.423 192.569H193.047V195.275H196.423V192.569Z" fill="#241F3C"/>
<path d="M216.766 224.83H213.391V227.536H216.766V224.83Z" fill="#241F3C"/>
<path d="M209.923 192.569H206.547V195.275H209.923V192.569Z" fill="#241F3C"/>
<path d="M223.431 192.569H220.055V195.275H223.431V192.569Z" fill="#241F3C"/>
<path d="M216.673 192.569H213.297V195.275H216.673V192.569Z" fill="#241F3C"/>
<path d="M210.016 224.83H206.641V227.536H210.016V224.83Z" fill="#241F3C"/>
<path d="M176.259 224.83H172.883V227.536H176.259V224.83Z" fill="#241F3C"/>
<path d="M304.54 224.83H301.164V227.536H304.54V224.83Z" fill="#241F3C"/>
<path d="M154.778 211.621L152.086 211.907C152.215 213.12 152.471 214.317 152.85 215.477L155.423 214.635C155.102 213.656 154.886 212.646 154.778 211.621Z" fill="#241F3C"/>
<path d="M163.421 196.569L162.31 194.105C161.197 194.609 160.14 195.228 159.156 195.953L160.756 198.135C161.587 197.522 162.481 196.997 163.421 196.569Z" fill="#241F3C"/>
<path d="M158.469 200.193L156.454 198.384C155.639 199.292 154.921 200.283 154.312 201.341L156.655 202.692C157.172 201.798 157.78 200.961 158.469 200.193Z" fill="#241F3C"/>
<path d="M155.405 205.515L152.83 204.694C152.455 205.856 152.203 207.054 152.078 208.268L154.77 208.543C154.874 207.514 155.087 206.499 155.405 205.515Z" fill="#241F3C"/>
<path d="M159.203 224.199C160.191 224.917 161.251 225.529 162.365 226.027L163.468 223.563C162.527 223.142 161.632 222.623 160.799 222.017L159.203 224.199Z" fill="#241F3C"/>
<path d="M182.915 192.569H179.539V195.275H182.915V192.569Z" fill="#241F3C"/>
<path d="M176.165 192.569H172.789V195.275H176.165V192.569Z" fill="#241F3C"/>
<path d="M223.524 224.83H220.148V227.536H223.524V224.83Z" fill="#241F3C"/>
<path d="M169.424 195.265L169.41 192.567C168.19 192.573 166.974 192.704 165.781 192.959L166.35 195.606C167.36 195.385 168.39 195.271 169.424 195.265Z" fill="#241F3C"/>
<path d="M166.404 224.51L165.844 227.158C167.038 227.41 168.254 227.536 169.474 227.536H169.513V224.832H169.474C168.442 224.832 167.414 224.724 166.404 224.51Z" fill="#241F3C"/>
<path d="M154.344 218.81C154.956 219.863 155.677 220.849 156.494 221.752L158.504 219.939C157.812 219.173 157.201 218.337 156.683 217.444L154.344 218.81Z" fill="#241F3C"/>
<path d="M277.532 224.83H274.156V227.536H277.532V224.83Z" fill="#241F3C"/>
<path d="M284.188 192.569H280.812V195.275H284.188V192.569Z" fill="#241F3C"/>
<path d="M270.688 192.569H267.312V195.275H270.688V192.569Z" fill="#241F3C"/>
<path d="M270.782 224.83H267.406V227.536H270.782V224.83Z" fill="#241F3C"/>
<path d="M284.282 224.83H280.906V227.536H284.282V224.83Z" fill="#241F3C"/>
<path d="M277.438 192.569H274.062V195.275H277.438V192.569Z" fill="#241F3C"/>
<path d="M304.446 192.569H301.07V195.275H304.446V192.569Z" fill="#241F3C"/>
<path d="M297.79 224.83H294.414V227.536H297.79V224.83Z" fill="#241F3C"/>
<path d="M297.696 192.569H294.32V195.275H297.696V192.569Z" fill="#241F3C"/>
<path d="M290.938 192.569H287.562V195.275H290.938V192.569Z" fill="#241F3C"/>
<path d="M291.032 224.83H287.656V227.536H291.032V224.83Z" fill="#241F3C"/>
<path d="M257.274 224.83H253.898V227.536H257.274V224.83Z" fill="#241F3C"/>
<path d="M243.774 224.83H240.398V227.536H243.774V224.83Z" fill="#241F3C"/>
<path d="M243.681 192.569H240.305V195.275H243.681V192.569Z" fill="#241F3C"/>
<path d="M237.024 224.83H233.648V227.536H237.024V224.83Z" fill="#241F3C"/>
<path d="M230.274 224.83H226.898V227.536H230.274V224.83Z" fill="#241F3C"/>
<path d="M236.931 192.569H233.555V195.275H236.931V192.569Z" fill="#241F3C"/>
<path d="M263.938 192.569H260.562V195.275H263.938V192.569Z" fill="#241F3C"/>
<path d="M250.431 192.569H247.055V195.275H250.431V192.569Z" fill="#241F3C"/>
<path d="M264.032 224.83H260.656V227.536H264.032V224.83Z" fill="#241F3C"/>
<path d="M230.181 192.569H226.805V195.275H230.181V192.569Z" fill="#241F3C"/>
<path d="M250.524 224.83H247.148V227.536H250.524V224.83Z" fill="#241F3C"/>
<path d="M257.181 192.569H253.805V195.275H257.181V192.569Z" fill="#241F3C"/>
<path d="M486.727 192.569H483.352V195.275H486.727V192.569Z" fill="#241F3C"/>
<path d="M524.588 192.569H523.859V195.275H524.588V192.569Z" fill="#241F3C"/>
<path d="M513.735 192.569H510.359V195.275H513.735V192.569Z" fill="#241F3C"/>
<path d="M524.588 224.83H523.953V227.536H524.588V224.83Z" fill="#241F3C"/>
<path d="M520.485 192.569H517.109V195.275H520.485V192.569Z" fill="#241F3C"/>
<path d="M513.829 224.83H510.453V227.536H513.829V224.83Z" fill="#241F3C"/>
<path d="M473.227 192.569H469.852V195.275H473.227V192.569Z" fill="#241F3C"/>
<path d="M486.821 224.83H483.445V227.536H486.821V224.83Z" fill="#241F3C"/>
<path d="M480.071 224.83H476.695V227.536H480.071V224.83Z" fill="#241F3C"/>
<path d="M479.977 192.569H476.602V195.275H479.977V192.569Z" fill="#241F3C"/>
<path d="M473.321 224.83H469.945V227.536H473.321V224.83Z" fill="#241F3C"/>
<path d="M500.329 224.83H496.953V227.536H500.329V224.83Z" fill="#241F3C"/>
<path d="M507.079 224.83H503.703V227.536H507.079V224.83Z" fill="#241F3C"/>
<path d="M506.985 192.569H503.609V195.275H506.985V192.569Z" fill="#241F3C"/>
<path d="M493.477 192.569H490.102V195.275H493.477V192.569Z" fill="#241F3C"/>
<path d="M493.571 224.83H490.195V227.536H493.571V224.83Z" fill="#241F3C"/>
<path d="M500.235 192.569H496.859V195.275H500.235V192.569Z" fill="#241F3C"/>
<path d="M520.579 224.83H517.203V227.536H520.579V224.83Z" fill="#241F3C"/>
<path d="M524.59 223.984H169.469C165.774 223.984 162.23 222.516 159.617 219.903C157.004 217.291 155.537 213.747 155.537 210.053C155.537 206.358 157.004 202.814 159.617 200.202C162.23 197.589 165.774 196.121 169.469 196.121H524.59V193.417H169.469C165.056 193.417 160.823 195.17 157.702 198.291C154.581 201.411 152.828 205.644 152.828 210.057C152.828 214.47 154.581 218.702 157.702 221.823C160.823 224.943 165.056 226.696 169.469 226.696H524.59V223.984Z" fill="#241F3C"/>
<path d="M521.215 223.984H166.094C162.399 223.984 158.855 222.516 156.242 219.903C153.629 217.291 152.162 213.747 152.162 210.053C152.162 206.358 153.629 202.814 156.242 200.202C158.855 197.589 162.399 196.121 166.094 196.121H521.215V193.417H166.094C161.681 193.417 157.448 195.17 154.327 198.291C151.206 201.411 149.453 205.644 149.453 210.057C149.453 214.47 151.206 218.702 154.327 221.823C157.448 224.943 161.681 226.696 166.094 226.696H521.215V223.984Z" fill="#241F3C"/>
<path d="M165.145 203.751C163.958 204.78 163.103 206.137 162.688 207.651C162.274 209.165 162.317 210.768 162.813 212.258C163.31 213.748 164.237 215.056 165.477 216.019C166.717 216.982 168.215 217.555 169.781 217.667C171.348 217.778 172.912 217.423 174.276 216.645C175.64 215.868 176.743 214.703 177.445 213.299C178.147 211.895 178.417 210.314 178.221 208.756C178.025 207.198 177.371 205.734 176.342 204.548C174.963 202.958 173.008 201.98 170.908 201.831C168.808 201.682 166.735 202.372 165.145 203.751ZM173.455 213.334C172.745 213.949 171.87 214.34 170.938 214.457C170.006 214.575 169.061 214.413 168.221 213.994C167.381 213.574 166.684 212.914 166.219 212.098C165.754 211.283 165.542 210.347 165.608 209.411C165.675 208.474 166.018 207.578 166.594 206.837C167.17 206.095 167.952 205.541 168.843 205.244C169.734 204.947 170.693 204.921 171.599 205.169C172.504 205.417 173.316 205.929 173.931 206.638C174.755 207.589 175.168 208.829 175.079 210.084C174.989 211.34 174.405 212.509 173.455 213.334Z" fill="#312A52"/>
<path d="M247.957 203.751C246.771 204.78 245.916 206.137 245.501 207.651C245.086 209.165 245.129 210.768 245.626 212.258C246.122 213.748 247.049 215.056 248.289 216.019C249.53 216.982 251.028 217.555 252.594 217.667C254.16 217.778 255.724 217.423 257.088 216.645C258.452 215.868 259.555 214.703 260.258 213.299C260.96 211.895 261.23 210.314 261.033 208.756C260.837 207.198 260.183 205.734 259.154 204.548C257.775 202.958 255.821 201.98 253.721 201.831C251.621 201.682 249.548 202.372 247.957 203.751ZM256.265 213.334C255.556 213.949 254.68 214.34 253.748 214.457C252.817 214.575 251.871 214.413 251.031 213.994C250.191 213.574 249.495 212.914 249.03 212.098C248.565 211.283 248.352 210.347 248.419 209.411C248.486 208.474 248.828 207.578 249.404 206.837C249.98 206.095 250.763 205.541 251.654 205.244C252.545 204.947 253.504 204.921 254.409 205.169C255.315 205.417 256.126 205.929 256.742 206.638C257.566 207.589 257.978 208.829 257.889 210.084C257.8 211.34 257.216 212.509 256.265 213.334Z" fill="#312A52"/>
<path d="M330.77 203.751C329.583 204.78 328.728 206.137 328.314 207.651C327.899 209.165 327.942 210.768 328.438 212.258C328.935 213.748 329.862 215.056 331.102 216.019C332.342 216.982 333.84 217.555 335.406 217.667C336.973 217.778 338.537 217.423 339.901 216.645C341.265 215.868 342.368 214.703 343.07 213.299C343.772 211.895 344.042 210.314 343.846 208.756C343.65 207.198 342.996 205.734 341.967 204.548C340.588 202.958 338.633 201.98 336.533 201.831C334.433 201.682 332.36 202.372 330.77 203.751ZM339.08 213.334C338.37 213.949 337.495 214.34 336.563 214.457C335.631 214.575 334.686 214.413 333.846 213.994C333.006 213.574 332.309 212.914 331.844 212.098C331.379 211.283 331.167 210.347 331.233 209.411C331.3 208.474 331.643 207.578 332.219 206.837C332.795 206.095 333.577 205.541 334.468 205.244C335.359 204.947 336.318 204.921 337.224 205.169C338.129 205.417 338.941 205.929 339.556 206.638C339.965 207.109 340.277 207.656 340.474 208.247C340.671 208.838 340.75 209.463 340.705 210.085C340.661 210.706 340.495 211.313 340.216 211.871C339.937 212.428 339.551 212.925 339.08 213.334Z" fill="#312A52"/>
<path d="M413.582 203.751C412.396 204.78 411.541 206.137 411.126 207.651C410.711 209.165 410.754 210.768 411.251 212.258C411.747 213.748 412.674 215.056 413.914 216.019C415.155 216.982 416.653 217.555 418.219 217.667C419.785 217.778 421.349 217.423 422.713 216.645C424.077 215.868 425.18 214.703 425.883 213.299C426.585 211.895 426.855 210.314 426.658 208.756C426.462 207.198 425.808 205.734 424.779 204.548C423.4 202.958 421.446 201.98 419.346 201.831C417.246 201.682 415.173 202.372 413.582 203.751ZM421.892 213.334C421.183 213.949 420.307 214.34 419.375 214.457C418.444 214.575 417.498 214.413 416.658 213.994C415.818 213.574 415.122 212.914 414.657 212.098C414.192 211.283 413.979 210.347 414.046 209.411C414.113 208.474 414.456 207.578 415.031 206.837C415.607 206.095 416.39 205.541 417.281 205.244C418.172 204.947 419.131 204.921 420.036 205.169C420.942 205.417 421.754 205.929 422.369 206.638C422.777 207.109 423.089 207.656 423.286 208.247C423.483 208.838 423.562 209.463 423.518 210.085C423.474 210.706 423.307 211.313 423.028 211.871C422.749 212.428 422.363 212.925 421.892 213.334Z" fill="#312A52"/>
<path d="M496.401 203.751C495.215 204.779 494.361 206.136 493.946 207.65C493.531 209.164 493.575 210.766 494.071 212.256C494.567 213.745 495.494 215.053 496.734 216.016C497.974 216.978 499.471 217.551 501.037 217.663C502.603 217.774 504.167 217.419 505.53 216.642C506.894 215.864 507.997 214.7 508.699 213.297C509.401 211.893 509.671 210.312 509.475 208.755C509.279 207.198 508.625 205.734 507.597 204.548C506.218 202.958 504.263 201.98 502.164 201.831C500.064 201.682 497.992 202.372 496.401 203.751ZM504.709 213.334C504 213.948 503.125 214.339 502.194 214.456C501.263 214.573 500.318 214.411 499.478 213.991C498.639 213.572 497.943 212.912 497.479 212.097C497.014 211.282 496.801 210.347 496.868 209.411C496.935 208.475 497.277 207.58 497.853 206.838C498.428 206.097 499.21 205.543 500.101 205.246C500.991 204.95 501.949 204.923 502.854 205.171C503.759 205.419 504.571 205.929 505.186 206.638C505.594 207.109 505.906 207.656 506.103 208.247C506.301 208.838 506.379 209.463 506.335 210.085C506.291 210.706 506.124 211.313 505.846 211.871C505.567 212.428 505.181 212.925 504.709 213.334Z" fill="#312A52"/>
<path d="M135.433 194.766H0V225.337H135.433V194.766Z" fill="#48C6C6"/>
<path d="M77.4149 224.83H74.0391V227.536H77.4149V224.83Z" fill="#241F3C"/>
<path d="M30.0555 192.569H26.6797V195.275H30.0555V192.569Z" fill="#241F3C"/>
<path d="M43.5555 192.569H40.1797V195.275H43.5555V192.569Z" fill="#241F3C"/>
<path d="M57.1571 224.83H53.7812V227.536H57.1571V224.83Z" fill="#241F3C"/>
<path d="M50.4071 224.83H47.0312V227.536H50.4071V224.83Z" fill="#241F3C"/>
<path d="M50.3133 192.569H46.9375V195.275H50.3133V192.569Z" fill="#241F3C"/>
<path d="M43.6571 224.83H40.2812V227.536H43.6571V224.83Z" fill="#241F3C"/>
<path d="M57.0633 192.569H53.6875V195.275H57.0633V192.569Z" fill="#241F3C"/>
<path d="M70.6571 224.83H67.2812V227.536H70.6571V224.83Z" fill="#241F3C"/>
<path d="M63.8133 192.569H60.4375V195.275H63.8133V192.569Z" fill="#241F3C"/>
<path d="M77.3211 192.569H73.9453V195.275H77.3211V192.569Z" fill="#241F3C"/>
<path d="M63.9071 224.83H60.5312V227.536H63.9071V224.83Z" fill="#241F3C"/>
<path d="M70.5633 192.569H67.1875V195.275H70.5633V192.569Z" fill="#241F3C"/>
<path d="M36.8055 192.569H33.4297V195.275H36.8055V192.569Z" fill="#241F3C"/>
<path d="M16.5555 192.569H13.1797V195.275H16.5555V192.569Z" fill="#241F3C"/>
<path d="M9.89926 224.83H6.52344V227.536H9.89926V224.83Z" fill="#241F3C"/>
<path d="M3.14584 224.83H0V227.536H3.14584V224.83Z" fill="#241F3C"/>
<path d="M9.80551 192.569H6.42969V195.275H9.80551V192.569Z" fill="#241F3C"/>
<path d="M16.6493 224.83H13.2734V227.536H16.6493V224.83Z" fill="#241F3C"/>
<path d="M3.05138 192.569H0V195.275H3.05138V192.569Z" fill="#241F3C"/>
<path d="M36.9071 224.83H33.5312V227.536H36.9071V224.83Z" fill="#241F3C"/>
<path d="M30.1493 224.83H26.7734V227.536H30.1493V224.83Z" fill="#241F3C"/>
<path d="M23.3993 224.83H20.0234V227.536H23.3993V224.83Z" fill="#241F3C"/>
<path d="M23.3055 192.569H19.9297V195.275H23.3055V192.569Z" fill="#241F3C"/>
<path d="M97.5711 192.569H94.1953V195.275H97.5711V192.569Z" fill="#241F3C"/>
<path d="M135.432 192.569H134.703V195.275H135.432V192.569Z" fill="#241F3C"/>
<path d="M124.571 192.569H121.195V195.275H124.571V192.569Z" fill="#241F3C"/>
<path d="M135.431 224.83H134.797V227.536H135.431V224.83Z" fill="#241F3C"/>
<path d="M131.329 192.569H127.953V195.275H131.329V192.569Z" fill="#241F3C"/>
<path d="M124.673 224.83H121.297V227.536H124.673V224.83Z" fill="#241F3C"/>
<path d="M84.0633 192.569H80.6875V195.275H84.0633V192.569Z" fill="#241F3C"/>
<path d="M97.6649 224.83H94.2891V227.536H97.6649V224.83Z" fill="#241F3C"/>
<path d="M90.9149 224.83H87.5391V227.536H90.9149V224.83Z" fill="#241F3C"/>
<path d="M90.8211 192.569H87.4453V195.275H90.8211V192.569Z" fill="#241F3C"/>
<path d="M84.1649 224.83H80.7891V227.536H84.1649V224.83Z" fill="#241F3C"/>
<path d="M111.165 224.83H107.789V227.536H111.165V224.83Z" fill="#241F3C"/>
<path d="M117.923 224.83H114.547V227.536H117.923V224.83Z" fill="#241F3C"/>
<path d="M117.829 192.569H114.453V195.275H117.829V192.569Z" fill="#241F3C"/>
<path d="M104.321 192.569H100.945V195.275H104.321V192.569Z" fill="#241F3C"/>
<path d="M104.415 224.83H101.039V227.536H104.415V224.83Z" fill="#241F3C"/>
<path d="M111.071 192.569H107.695V195.275H111.071V192.569Z" fill="#241F3C"/>
<path d="M131.423 224.83H128.047V227.536H131.423V224.83Z" fill="#241F3C"/>
<path d="M135.433 223.984H0V226.69H135.433V223.984Z" fill="#241F3C"/>
<path d="M135.433 193.413H0V196.119H135.433V193.413Z" fill="#241F3C"/>
<path d="M132.058 223.984H0V226.69H132.058V223.984Z" fill="#241F3C"/>
<path d="M132.058 193.413H0V196.119H132.058V193.413Z" fill="#241F3C"/>
<path d="M24.4336 203.751C23.2473 204.78 22.3925 206.137 21.9776 207.651C21.5626 209.165 21.606 210.768 22.1023 212.258C22.5987 213.748 23.5256 215.056 24.7659 216.019C26.0062 216.982 27.5042 217.555 29.0704 217.667C30.6366 217.778 32.2007 217.423 33.5648 216.645C34.929 215.868 36.0319 214.703 36.7342 213.299C37.4364 211.895 37.7064 210.314 37.51 208.756C37.3137 207.198 36.6597 205.734 35.6309 204.548C34.2516 202.958 32.2971 201.98 30.1973 201.831C28.0974 201.682 26.0242 202.372 24.4336 203.751ZM32.7336 213.334C32.0242 213.949 31.1483 214.34 30.2167 214.457C29.285 214.575 28.3395 214.413 27.4996 213.994C26.6597 213.574 25.9632 212.914 25.4982 212.098C25.0332 211.283 24.8206 210.347 24.8873 209.411C24.9539 208.474 25.2968 207.578 25.8726 206.837C26.4484 206.095 27.2313 205.541 28.1221 205.244C29.013 204.947 29.9719 204.921 30.8775 205.169C31.7832 205.417 32.5949 205.929 33.21 206.638C33.6185 207.109 33.9303 207.656 34.1275 208.247C34.3247 208.838 34.4034 209.463 34.3592 210.085C34.3149 210.706 34.1486 211.313 33.8697 211.871C33.5907 212.428 33.2047 212.925 32.7336 213.334Z" fill="#312A52"/>
<path d="M107.238 203.751C106.052 204.78 105.197 206.137 104.782 207.651C104.367 209.165 104.411 210.768 104.907 212.258C105.403 213.748 106.33 215.056 107.571 216.019C108.811 216.982 110.309 217.555 111.875 217.667C113.441 217.778 115.005 217.423 116.37 216.645C117.734 215.868 118.837 214.703 119.539 213.299C120.241 211.895 120.511 210.314 120.315 208.756C120.118 207.198 119.464 205.734 118.436 204.548C117.056 202.958 115.102 201.98 113.002 201.831C110.902 201.682 108.829 202.372 107.238 203.751ZM115.549 213.334C114.839 213.949 113.963 214.34 113.032 214.457C112.1 214.575 111.154 214.413 110.315 213.994C109.475 213.574 108.778 212.914 108.313 212.098C107.848 211.283 107.636 210.347 107.702 209.411C107.769 208.474 108.112 207.578 108.688 206.837C109.263 206.095 110.046 205.541 110.937 205.244C111.828 204.947 112.787 204.921 113.692 205.169C114.598 205.417 115.41 205.929 116.025 206.638C116.433 207.109 116.745 207.656 116.942 208.247C117.14 208.838 117.218 209.463 117.174 210.085C117.13 210.706 116.964 211.313 116.685 211.871C116.406 212.428 116.02 212.925 115.549 213.334Z" fill="#312A52"/>
<path d="M135.442 224.364H0V231.01H135.442V224.364Z" fill="#312A52"/>
<path d="M54.6676 192.524V231.057H41L50.3123 192.569L54.6676 192.524Z" fill="#312A52"/>
<path d="M524.596 224.364H135.637C134.755 224.364 133.91 224.714 133.286 225.337C132.663 225.961 132.312 226.806 132.312 227.688C132.312 228.57 132.663 229.415 133.286 230.039C133.91 230.662 134.755 231.012 135.637 231.012H524.596V224.364Z" fill="#312A52"/>
<path d="M216.868 114.79H142.625V295.103H216.868V114.79Z" fill="#3D3466"/>
<path d="M201.856 114.79H142.625V295.103H201.856V114.79Z" fill="#241F3C"/>
<path d="M187.721 64.2465H63.5156V73.5683H187.721V64.2465Z" fill="#338C8C"/>
<path d="M88.262 68.0662C90.2965 66.0319 90.2965 62.7337 88.262 60.6994C86.2276 58.6651 82.9291 58.6651 80.8946 60.6994C78.8602 62.7337 78.8602 66.0319 80.8946 68.0662C82.9291 70.1005 86.2276 70.1005 88.262 68.0662Z" fill="#338C8C"/>
<path d="M197.878 295.101V77.0177C197.878 76.1919 197.715 75.3743 197.399 74.6114C197.082 73.8486 196.619 73.1556 196.034 72.5721C195.45 71.9885 194.756 71.5259 193.993 71.2107C193.23 70.8954 192.412 70.7337 191.586 70.7347H61.1136C60.2883 70.7345 59.471 70.8968 58.7084 71.2124C57.9459 71.528 57.2529 71.9908 56.6692 72.5743C56.0855 73.1577 55.6225 73.8504 55.3066 74.6129C54.9907 75.3753 54.8281 76.1925 54.8281 77.0177V295.101H197.878Z" fill="#48C6C6"/>
<path d="M69.6971 241.851H64.7812V280.792H69.6971V241.851Z" fill="#312A52"/>
<path d="M79.2362 241.851H74.3203V280.792H79.2362V241.851Z" fill="#312A52"/>
<path d="M88.7831 241.851H83.8672V280.792H88.7831V241.851Z" fill="#312A52"/>
<path d="M98.3221 241.851H93.4062V280.792H98.3221V241.851Z" fill="#312A52"/>
<path d="M107.861 241.851H102.945V280.792H107.861V241.851Z" fill="#312A52"/>
<path d="M117.408 241.851H112.492V280.792H117.408V241.851Z" fill="#312A52"/>
<path d="M126.947 241.851H122.031V280.792H126.947V241.851Z" fill="#312A52"/>
<path d="M188.558 81.0237H63.8516V213.773H188.558V81.0237Z" fill="#CFFAFA"/>
<path d="M104.417 178.202C112.937 178.202 119.843 171.297 119.843 162.778C119.843 154.26 112.937 147.354 104.417 147.354C95.8983 147.354 88.9922 154.26 88.9922 162.778C88.9922 171.297 95.8983 178.202 104.417 178.202Z" fill="#48C6C6"/>
<path d="M93.8433 153.76L99.0795 158.709C98.1434 159.882 97.6233 161.333 97.601 162.834H90.4141C90.436 159.497 91.6525 156.278 93.8433 153.76Z" fill="#82EDED"/>
<path d="M95.0234 152.557C97.5173 150.296 100.744 149.012 104.11 148.941L104.011 156.14C102.66 156.219 101.363 156.701 100.288 157.524L95.0234 152.557Z" fill="#82EDED"/>
<path d="M114.005 152.73L108.845 157.76C107.947 156.992 106.864 156.471 105.703 156.249L105.802 149.005C108.873 149.305 111.758 150.615 114.005 152.73Z" fill="#82EDED"/>
<path d="M118.432 162.834H111.245C111.224 161.462 110.787 160.129 109.992 159.011L115.173 153.96C117.259 156.448 118.412 159.587 118.432 162.834Z" fill="#82EDED"/>
<path d="M100.094 151.76L105.769 161.571L103.106 162.696L100.094 151.76Z" fill="#268080"/>
<path d="M106.57 161.349C106.746 161.765 106.794 162.223 106.71 162.667C106.625 163.11 106.41 163.518 106.093 163.839C105.777 164.161 105.372 164.381 104.93 164.472C104.488 164.563 104.028 164.521 103.61 164.351C103.192 164.181 102.834 163.891 102.581 163.518C102.327 163.144 102.191 162.704 102.188 162.253C102.185 161.802 102.315 161.36 102.564 160.983C102.812 160.606 103.167 160.311 103.582 160.136C104.14 159.901 104.767 159.898 105.327 160.125C105.887 160.352 106.334 160.793 106.57 161.349Z" fill="#268080"/>
<path d="M147.808 178.202C156.327 178.202 163.233 171.297 163.233 162.778C163.233 154.26 156.327 147.354 147.808 147.354C139.289 147.354 132.383 154.26 132.383 162.778C132.383 171.297 139.289 178.202 147.808 178.202Z" fill="#48C6C6"/>
<path d="M137.232 153.76L142.47 158.717C141.534 159.89 141.014 161.341 140.992 162.842H133.805C133.824 159.502 135.04 156.28 137.232 153.76Z" fill="#82EDED"/>
<path d="M138.414 152.557C140.908 150.299 144.134 149.017 147.498 148.948L147.4 156.146C146.049 156.225 144.752 156.707 143.677 157.53L138.414 152.557Z" fill="#82EDED"/>
<path d="M157.396 152.73L152.233 157.76C151.335 156.994 150.253 156.475 149.094 156.253L149.19 149.009C152.262 149.308 155.147 150.616 157.396 152.73Z" fill="#82EDED"/>
<path d="M161.823 162.834H154.622C154.6 161.462 154.163 160.129 153.367 159.011L158.55 153.96C160.641 156.446 161.799 159.585 161.823 162.834Z" fill="#82EDED"/>
<path d="M158.838 159.259L148.367 163.6L147.602 160.811L158.838 159.259Z" fill="#268080"/>
<path d="M150.026 162.974C150.438 161.783 149.806 160.485 148.615 160.073C147.424 159.662 146.125 160.294 145.714 161.484C145.302 162.675 145.934 163.974 147.125 164.385C148.316 164.797 149.615 164.165 150.026 162.974Z" fill="#268080"/>
<path d="M171.573 98.3162H79.6641V132.866H171.573V98.3162Z" fill="#48C6C6"/>
<path d="M115.73 122.896H108.305V127.772H115.73V122.896Z" fill="#82EDED"/>
<path d="M115.73 117.136H108.305V122.013H115.73V117.136Z" fill="#82EDED"/>
<path d="M115.73 111.377H108.305V116.253H115.73V111.377Z" fill="#82EDED"/>
<path d="M115.73 105.618H108.305V110.494H115.73V105.618Z" fill="#82EDED"/>
<path d="M124.331 122.896H116.906V127.772H124.331V122.896Z" fill="#82EDED"/>
<path d="M124.331 117.136H116.906V122.013H124.331V117.136Z" fill="#82EDED"/>
<path d="M124.331 111.377H116.906V116.253H124.331V111.377Z" fill="#82EDED"/>
<path d="M150.37 122.896H142.945V127.772H150.37V122.896Z" fill="#82EDED"/>
<path d="M150.37 117.136H142.945V122.013H150.37V117.136Z" fill="#82EDED"/>
<path d="M150.37 111.377H142.945V116.253H150.37V111.377Z" fill="#82EDED"/>
<path d="M133.066 122.896H125.641V127.772H133.066V122.896Z" fill="#82EDED"/>
<path d="M133.066 117.136H125.641V122.013H133.066V117.136Z" fill="#82EDED"/>
<path d="M133.066 111.377H125.641V116.253H133.066V111.377Z" fill="#82EDED"/>
<path d="M133.066 105.618H125.641V110.494H133.066V105.618Z" fill="#82EDED"/>
<path d="M141.667 122.896H134.242V127.772H141.667V122.896Z" fill="#82EDED"/>
<path d="M98.3939 122.896H90.9688V127.772H98.3939V122.896Z" fill="#82EDED"/>
<path d="M141.667 117.136H134.242V122.013H141.667V117.136Z" fill="#82EDED"/>
<path d="M107.136 122.896H99.7109V127.772H107.136V122.896Z" fill="#82EDED"/>
<path d="M107.136 117.136H99.7109V122.013H107.136V117.136Z" fill="#82EDED"/>
<path d="M158.863 122.896H151.438V127.772H158.863V122.896Z" fill="#82EDED"/>
<path d="M158.863 117.136H151.438V122.013H158.863V117.136Z" fill="#82EDED"/>
<path d="M100.114 191.471H91.7344V199.85H100.114V191.471Z" fill="#48C6C6"/>
<path d="M112.763 191.471H104.383V199.85H112.763V191.471Z" fill="#48C6C6"/>
<path d="M125.411 191.471H117.031V199.85H125.411V191.471Z" fill="#48C6C6"/>
<path d="M138.052 191.471H129.672V199.85H138.052V191.471Z" fill="#48C6C6"/>
<path d="M150.7 191.471H142.32V199.85H150.7V191.471Z" fill="#48C6C6"/>
<path d="M163.349 191.471H154.969V199.85H163.349V191.471Z" fill="#48C6C6"/>
<path d="M320.877 147.048H269.016V192.569H320.877V147.048Z" fill="#E68D45"/>
<path d="M336.51 147.048H284.648V192.569H336.51V147.048Z" fill="#FDB477"/>
<g style="mix-blend-mode:soft-light">
<path d="M311.867 147.048H306.266V156.232H311.867V147.048Z" fill="white"/>
</g>
<path d="M326.517 184.124H321.125V189.276H326.517V184.124Z" fill="#E68D45"/>
<path d="M333.994 184.124H328.602V189.276H333.994V184.124Z" fill="#E68D45"/>
<path d="M318.986 184.124H313.594V189.276H318.986V184.124Z" fill="#E68D45"/>
<path d="M414.525 147.048H362.664V192.569H414.525V147.048Z" fill="#E68D45"/>
<path d="M430.158 147.048H378.297V192.569H430.158V147.048Z" fill="#FDB477"/>
<g style="mix-blend-mode:soft-light">
<path d="M405.516 147.048H399.914V156.232H405.516V147.048Z" fill="white"/>
</g>
<path d="M420.166 184.124H414.773V189.276H420.166V184.124Z" fill="#E68D45"/>
<path d="M427.642 184.124H422.25V189.276H427.642V184.124Z" fill="#E68D45"/>
<path d="M412.642 184.124H407.25V189.276H412.642V184.124Z" fill="#E68D45"/>
<path d="M84.8989 54.744C87.488 54.744 89.5869 52.6452 89.5869 50.0564C89.5869 47.4675 87.488 45.3688 84.8989 45.3688C82.3098 45.3688 80.2109 47.4675 80.2109 50.0564C80.2109 52.6452 82.3098 54.744 84.8989 54.744Z" fill="#A3EEFA"/>
<path d="M68.3043 35.3633L66.3125 33.1047C77.4749 21.9021 94.8715 22.3168 105.486 34.0286L103.387 36.1866C93.8715 25.7212 78.3065 25.3536 68.3043 35.3633Z" fill="#A3EEFA"/>
<path d="M72.4351 40.0673L70.4453 37.8087C79.2032 29.0844 92.7927 29.4047 101.128 38.5253L99.0289 40.6894C91.7845 32.811 80.0348 32.5338 72.4351 40.0673Z" fill="#A3EEFA"/>
<path d="M76.4371 44.6193L74.4453 42.3608C80.8787 36.0347 90.7803 36.2646 96.9077 42.8761L94.8091 45.0423C89.7803 39.671 81.7103 39.4841 76.4371 44.6193Z" fill="#A3EEFA"/>
<path d="M416.622 125.672C422.571 119.723 422.571 110.078 416.622 104.129C410.672 98.1798 401.026 98.1798 395.077 104.129C389.128 110.078 389.128 119.723 395.077 125.672C401.026 131.621 410.672 131.621 416.622 125.672Z" fill="#48C6AA"/>
<path d="M402.307 122.904C402.016 122.904 401.727 122.846 401.458 122.735C401.19 122.623 400.945 122.459 400.74 122.253L395.929 117.446C395.528 117.028 395.306 116.468 395.313 115.889C395.319 115.309 395.552 114.754 395.962 114.344C396.372 113.934 396.927 113.701 397.506 113.695C398.086 113.689 398.646 113.91 399.064 114.311L402.307 117.553L411.945 107.915C412.364 107.514 412.924 107.293 413.503 107.299C414.083 107.305 414.638 107.538 415.048 107.948C415.458 108.359 415.691 108.913 415.697 109.493C415.703 110.073 415.482 110.632 415.081 111.051L403.873 122.255C403.668 122.461 403.424 122.624 403.155 122.736C402.886 122.847 402.598 122.904 402.307 122.904Z" fill="white"/>
<path d="M420.661 70.8987C422.594 62.7106 417.522 54.5063 409.334 52.5737C401.145 50.6412 392.94 55.7122 391.007 63.9003C389.075 72.0884 394.146 80.2927 402.335 82.2253C410.523 84.1578 418.728 79.0868 420.661 70.8987Z" fill="#48C6AA"/>
<path d="M402.307 75.41C401.719 75.4099 401.156 75.1765 400.74 74.7612L395.929 69.9504C395.528 69.5317 395.306 68.9725 395.313 68.3926C395.319 67.8127 395.552 67.2584 395.962 66.8483C396.372 66.4383 396.927 66.2052 397.506 66.199C398.086 66.1928 398.646 66.4139 399.064 66.8151L402.307 70.0592L411.945 60.4212C412.15 60.2081 412.394 60.0378 412.665 59.9205C412.936 59.8032 413.228 59.7411 413.523 59.7379C413.818 59.7348 414.111 59.7906 414.385 59.9021C414.658 60.0136 414.906 60.1785 415.115 60.3873C415.324 60.596 415.489 60.8444 415.6 61.1177C415.712 61.391 415.768 61.6839 415.764 61.9791C415.761 62.2743 415.699 62.5659 415.582 62.8367C415.464 63.1076 415.294 63.3524 415.081 63.5566L403.873 74.7612C403.458 75.1765 402.894 75.4099 402.307 75.41Z" fill="white"/>
<path d="M508.174 147.048H456.312V192.569H508.174V147.048Z" fill="#E68D45"/>
<path d="M523.806 147.048H471.945V192.569H523.806V147.048Z" fill="#FDB477"/>
<g style="mix-blend-mode:soft-light">
<path d="M499.164 147.048H493.562V156.232H499.164V147.048Z" fill="white"/>
</g>
<path d="M513.814 184.124H508.422V189.276H513.814V184.124Z" fill="#E68D45"/>
<path d="M521.291 184.124H515.898V189.276H521.291V184.124Z" fill="#E68D45"/>
<path d="M506.291 184.124H500.898V189.276H506.291V184.124Z" fill="#E68D45"/>
</g>
<defs>
<clipPath id="clip0_2541_2388">
<rect width="635" height="296" fill="white"/>
</clipPath>
</defs>
</svg>
