<svg width="598" height="352" viewBox="0 0 598 352" fill="none" xmlns="http://www.w3.org/2000/svg">
<path d="M541.368 349.519H504.563L499.758 276.128H546.173L541.368 349.519Z" fill="#B75742"/>
<path d="M544.479 330.123H501.652L501.799 317.769L499.758 301.568H546.388L544.479 316.996V330.123Z" fill="#3C8F7C"/>
<path d="M549.456 281.442L496.469 281.206L496.608 278.401C496.714 276.275 497.735 274.659 498.959 274.659H546.983C548.209 274.659 549.229 276.284 549.333 278.401L549.456 281.442Z" fill="#F7CC7F"/>
<path d="M546.386 274.652H499.273L499.444 272.194C499.512 271.219 500.559 270.453 501.827 270.453H543.837C545.105 270.453 546.152 271.219 546.22 272.194L546.386 274.652Z" fill="#FAE0B2"/>
<path d="M504.349 303.101H502.141L504.446 317.152L503.86 328.637H504.446L504.935 316.857L504.349 303.101Z" fill="#96D9C9"/>
<path d="M508.164 303.101L509.848 328.637H510.337L510.042 303.03L508.164 303.101Z" fill="#96D9C9"/>
<path d="M514.391 303.101L516.077 328.637H516.564L516.271 303.03L514.391 303.101Z" fill="#96D9C9"/>
<path d="M539.844 303.101H542.052L539.747 317.152L540.333 328.637H539.747L539.258 316.857L539.844 303.101Z" fill="#96D9C9"/>
<path d="M536.025 303.101L534.341 328.637H533.852L534.147 303.03L536.025 303.101Z" fill="#96D9C9"/>
<path d="M529.923 303.101L528.237 328.637H527.75L528.045 303.03L529.923 303.101Z" fill="#96D9C9"/>
<path d="M522.407 303.101L521.564 328.637H521.32L521.467 303.03L522.407 303.101Z" fill="#96D9C9"/>
<path d="M538.458 272.747H530.578L531.091 266.772C531.136 266.264 531.778 265.865 532.558 265.865H536.479C537.256 265.865 537.896 266.264 537.944 266.772L538.458 272.747Z" fill="#FAE0B2"/>
<path d="M291.291 127.639L296.649 123.516L301.047 127.426L301.442 126.982L297.128 123.147L301.425 119.837L301.064 119.367L296.675 122.745L292.89 119.381L292.496 119.823L296.195 123.114L290.93 127.166L291.291 127.639Z" fill="#96D9C9"/>
<path d="M301.078 128.203L295.489 132.071L291.081 128.532L290.708 128.995L294.981 132.423L289.203 136.423L289.541 136.912L295.463 132.813L300.844 137.13L301.215 136.667L295.973 132.459L301.416 128.692L301.078 128.203Z" fill="#96D9C9"/>
<path d="M444.74 185.232C472.893 185.232 495.715 162.406 495.715 134.247C495.715 106.089 472.893 83.2622 444.74 83.2622C416.588 83.2622 393.766 106.089 393.766 134.247C393.766 162.406 416.588 185.232 444.74 185.232Z" fill="#9BC1F9"/>
<path d="M471.669 134.247C471.675 139.47 471.211 144.682 470.284 149.822C467.922 163.174 459.992 182.992 446.662 185.093C429.855 187.5 418.384 159.788 418.367 134.247C418.381 113.148 426.805 85.9153 442.812 83.4038C458.542 81.1545 471.657 106.899 471.669 134.247ZM469.011 134.247C468.994 89.0861 446.66 72.247 431.709 90.525C422.789 101.344 419.917 120.177 419.914 134.247C419.914 158.302 428.459 185.024 444.741 185.232C445.386 185.227 446.029 185.178 446.667 185.086C460.065 182.938 466.134 163.309 468.019 149.463C468.688 144.419 469.02 139.335 469.011 134.247Z" fill="white"/>
<path d="M480.388 97.7999C479.986 97.4077 479.58 97.0226 479.169 96.6445C457.349 104.222 430.771 104.205 409.247 97.6581C409.011 97.8944 408.774 98.1141 408.555 98.3433C408.87 98.4615 409.239 98.5977 409.663 98.7521C415.697 100.943 421.939 102.515 428.291 103.444C441.283 105.356 455.929 104.805 470.197 101.07C472.857 100.361 471.747 100.678 475.578 99.4987L478.758 98.4C478.744 98.4048 479.341 98.2016 480.388 97.7999Z" fill="white"/>
<path d="M434.564 166.085C425.897 166.715 417.315 168.209 408.945 170.543C409.271 170.858 409.601 171.173 409.935 171.488C425.587 167.488 444.575 166.054 463.501 168.133C469.092 168.736 474.64 169.683 480.115 170.969C480.542 170.555 480.965 170.137 481.378 169.709C467.486 166.307 451.151 164.859 434.564 166.085Z" fill="white"/>
<path d="M393.781 132.692C393.767 133.21 393.758 133.727 393.758 134.247H495.707C495.707 133.727 495.699 133.209 495.683 132.692H393.781Z" fill="white"/>
<path d="M318.675 80.7223C322.759 80.7223 326.069 77.4113 326.069 73.3269C326.069 69.2426 322.759 65.9316 318.675 65.9316C314.592 65.9316 311.281 69.2426 311.281 73.3269C311.281 77.4113 314.592 80.7223 318.675 80.7223Z" fill="#50BFA5"/>
<path d="M298.143 103.381C321.723 119.754 351.281 118.133 364.85 99.9546L278.031 39.6746C265.747 58.7441 274.563 87.0092 298.143 103.381Z" fill="#96D9C9"/>
<path d="M299.508 109.011C302.145 109.011 304.282 106.873 304.282 104.236C304.282 101.599 302.145 99.4609 299.508 99.4609C296.872 99.4609 294.734 101.599 294.734 104.236C294.734 106.873 296.872 109.011 299.508 109.011Z" fill="#50BFA5"/>
<path d="M286.393 155.668L284.531 155.282L295.485 102.258H302.04V155.474H300.141V104.16H297.035L286.393 155.668Z" fill="#50BFA5"/>
<path d="M13.3125 240.877V309.256C13.3125 315.054 20.8976 319.756 30.2544 319.756C39.6112 319.756 47.1963 315.054 47.1963 309.256V240.877H13.3125Z" fill="#86B1F2"/>
<path d="M30.2494 319.756H26.5312V319.347C27.7525 319.616 28.999 319.753 30.2494 319.756Z" fill="#9BC1F9"/>
<path d="M47.1919 303.423C47.1919 300.013 46.6746 104.718 46.6746 104.718H185.574C197.243 104.725 206.692 113.061 206.692 123.334V287.07C206.692 305.112 191.522 319.737 172.808 319.737H30.25C39.6068 319.756 47.1919 312.443 47.1919 303.423Z" fill="#9BC1F9"/>
<path d="M194.057 129.43H62.0938V134.252H194.057V129.43Z" fill="#86B1F2"/>
<path d="M194.057 137.13H62.0938V141.952H194.057V137.13Z" fill="#86B1F2"/>
<path d="M194.057 144.827H62.0938V149.65H194.057V144.827Z" fill="#86B1F2"/>
<path d="M194.057 152.528H62.0938V157.35H194.057V152.528Z" fill="#86B1F2"/>
<path d="M194.057 176.105H62.0938V180.927H194.057V176.105Z" fill="#86B1F2"/>
<path d="M194.057 183.805H62.0938V188.627H194.057V183.805Z" fill="#86B1F2"/>
<path d="M194.057 192.089H62.0938V196.911H194.057V192.089Z" fill="#86B1F2"/>
<path d="M194.057 199.789H62.0938V204.611H194.057V199.789Z" fill="#86B1F2"/>
<path d="M194.057 208.073H62.0938V212.895H194.057V208.073Z" fill="#86B1F2"/>
<path d="M194.057 215.77H62.0938V220.593H194.057V215.77Z" fill="#86B1F2"/>
<path d="M194.057 224.054H62.0938V228.876H194.057V224.054Z" fill="#86B1F2"/>
<path d="M194.057 231.754H62.0938V236.576H194.057V231.754Z" fill="#86B1F2"/>
<path d="M504.82 220.158H428.099C424.886 220.158 422.281 222.763 422.281 225.977V344.314C422.281 347.528 424.886 350.133 428.099 350.133H504.82C508.033 350.133 510.638 347.528 510.638 344.314V225.977C510.638 222.763 508.033 220.158 504.82 220.158Z" fill="#13375B"/>
<path d="M428.938 230.698V336.13C428.938 339.394 431.584 342.041 434.848 342.041H499.155C502.419 342.041 505.065 339.394 505.065 336.13V230.698C505.065 227.433 502.419 224.786 499.155 224.786H434.848C431.584 224.786 428.938 227.433 428.938 230.698Z" fill="#86B1F2"/>
<path d="M443.67 285.844H453.977V272.457H443.67V285.844Z" fill="#9BC1F9"/>
<path d="M452.906 284.627V273.673H444.747V284.627H452.906Z" fill="white"/>
<path d="M443.67 305.856H453.977V292.469H443.67V305.856Z" fill="#9BC1F9"/>
<path d="M452.906 304.639V293.686H444.747V304.639H452.906Z" fill="white"/>
<path d="M443.67 326.301H453.977V312.914H443.67V326.301Z" fill="#9BC1F9"/>
<path d="M452.906 325.084V314.13H444.747V325.084H452.906Z" fill="white"/>
<path d="M440.533 267.337C440.612 267.288 440.7 267.257 440.792 267.246C440.883 267.235 440.976 267.243 441.064 267.271C441.152 267.3 441.233 267.346 441.301 267.409C441.369 267.471 441.423 267.547 441.459 267.632L448.924 282.779L451.111 276.636C451.137 276.547 451.181 276.464 451.241 276.393C451.301 276.322 451.375 276.265 451.459 276.225C451.542 276.184 451.634 276.162 451.726 276.16C451.819 276.158 451.912 276.175 451.997 276.211C452.172 276.304 452.306 276.457 452.375 276.642C452.445 276.827 452.444 277.031 452.373 277.215L449.122 286.333L440.273 268.376C440.186 268.2 440.165 267.999 440.212 267.809C440.26 267.618 440.374 267.451 440.533 267.337Z" fill="#B75742"/>
<path d="M440.532 286.078C440.61 286.029 440.699 285.998 440.79 285.987C440.882 285.976 440.975 285.985 441.063 286.013C441.151 286.042 441.232 286.089 441.3 286.151C441.368 286.214 441.422 286.29 441.458 286.375L448.922 301.52L451.11 295.377C451.135 295.288 451.179 295.205 451.239 295.134C451.299 295.063 451.373 295.006 451.457 294.965C451.541 294.925 451.632 294.903 451.725 294.901C451.818 294.899 451.91 294.916 451.996 294.952C452.17 295.044 452.305 295.197 452.374 295.381C452.444 295.566 452.443 295.77 452.371 295.954L449.121 305.072L440.272 287.115C440.186 286.939 440.165 286.739 440.212 286.549C440.26 286.359 440.373 286.192 440.532 286.078Z" fill="#B75742"/>
<path d="M432.539 238.313H502.102V234.906H432.539V238.313Z" fill="#355389"/>
<path d="M432.539 244.64H502.102V241.233H432.539V244.64Z" fill="#355389"/>
<path d="M431.898 264.846H501.461V261.439H431.898V264.846Z" fill="#355389"/>
<path d="M98.9049 350.006H161.528C165.482 350.006 168.688 346.8 168.688 342.844L168.687 211.518C168.687 207.562 165.482 204.356 161.528 204.356H98.9049C94.9506 204.356 91.745 207.562 91.745 211.518L91.745 342.844C91.745 346.8 94.9506 350.006 98.9049 350.006Z" fill="#184655"/>
<path d="M164.969 327.666V217.339C164.969 213.558 161.904 210.492 158.123 210.492H103.454C99.6732 210.492 96.6082 213.558 96.6082 217.339L96.6082 327.666C96.6082 331.448 99.6732 334.514 103.454 334.514H158.123C161.904 334.514 164.969 331.448 164.969 327.666Z" fill="#96D9C9"/>
<path d="M130.786 347.657C139.383 347.657 146.353 345.418 146.353 342.655C146.353 339.893 139.383 337.654 130.786 337.654C122.188 337.654 115.219 339.893 115.219 342.655C115.219 345.418 122.188 347.657 130.786 347.657Z" fill="#13375B"/>
<path d="M147.815 226.863H113.839C111.723 226.863 110.008 228.579 110.008 230.696V254.113C110.008 256.229 111.723 257.945 113.839 257.945H147.815C149.931 257.945 151.647 256.229 151.647 254.113V230.696C151.647 228.579 149.931 226.863 147.815 226.863Z" fill="#B75742"/>
<path d="M160.485 273.777H102.164V275.474H160.485V273.777Z" fill="#184655"/>
<path d="M119.577 267.731H119.305C118.101 267.731 117.125 268.708 117.125 269.912V280.209C117.125 281.413 118.101 282.389 119.305 282.389H119.577C120.781 282.389 121.757 281.413 121.757 280.209V269.912C121.757 268.708 120.781 267.731 119.577 267.731Z" fill="#355389"/>
<path d="M139.183 240.187L129.323 234.493C128.934 234.268 128.492 234.151 128.043 234.151C127.594 234.151 127.153 234.27 126.764 234.494C126.375 234.719 126.052 235.042 125.827 235.432C125.603 235.821 125.485 236.262 125.484 236.711V248.1C125.484 248.549 125.602 248.99 125.827 249.38C126.052 249.769 126.375 250.092 126.764 250.317C127.153 250.541 127.594 250.659 128.043 250.659C128.493 250.659 128.934 250.541 129.323 250.316L139.183 244.622C139.572 244.397 139.895 244.073 140.119 243.684C140.344 243.295 140.462 242.854 140.462 242.404C140.462 241.955 140.344 241.513 140.119 241.124C139.895 240.735 139.572 240.412 139.183 240.187Z" fill="white"/>
<path d="M424.692 136.456H171.494C163.515 136.456 157.047 142.926 157.047 150.907V337.346C157.047 345.327 163.515 351.797 171.494 351.797H424.692C432.671 351.797 439.139 345.327 439.139 337.346V150.907C439.139 142.926 432.671 136.456 424.692 136.456Z" fill="#466EB6"/>
<path d="M426.976 141.512H170.84C166.635 141.512 163.227 144.922 163.227 149.127V337.694C163.227 341.899 166.635 345.309 170.84 345.309H426.976C431.181 345.309 434.59 341.899 434.59 337.694V149.127C434.59 144.922 431.181 141.512 426.976 141.512Z" fill="#184655"/>
<path d="M157.047 338.813V346.138C157.047 349.266 163.767 351.808 172.059 351.808H460.352C468.644 351.808 475.364 349.271 475.364 346.138V338.813H157.047Z" fill="#355389"/>
<path d="M416.577 148.561H181.93V323.43H416.577V148.561Z" fill="#50BFA5"/>
<path d="M407.032 154.874H194.352V168.365H407.032V154.874Z" fill="white"/>
<path d="M294.116 180.927H202.242V183.805H294.116V180.927Z" fill="#96D9C9"/>
<path d="M399.578 180.927H314.07V183.805H399.578V180.927Z" fill="#96D9C9"/>
<path d="M294.116 188.205H202.242V191.082H294.116V188.205Z" fill="#96D9C9"/>
<path d="M399.578 188.205H314.07V191.082H399.578V188.205Z" fill="#96D9C9"/>
<path d="M294.116 195.479H202.242V198.357H294.116V195.479Z" fill="#96D9C9"/>
<path d="M399.578 195.479H314.07V198.357H399.578V195.479Z" fill="#96D9C9"/>
<path d="M294.116 202.757H202.242V205.634H294.116V202.757Z" fill="#96D9C9"/>
<path d="M399.578 202.757H314.07V205.634H399.578V202.757Z" fill="#96D9C9"/>
<path d="M399.578 210.031H314.07V212.909H399.578V210.031Z" fill="#96D9C9"/>
<path d="M294.116 210.031H202.242V212.909H294.116V210.031Z" fill="#96D9C9"/>
<path d="M294.116 217.309H202.242V220.186H294.116V217.309Z" fill="#96D9C9"/>
<path d="M399.578 217.309H314.07V220.186H399.578V217.309Z" fill="#96D9C9"/>
<path d="M294.116 224.583H202.242V227.461H294.116V224.583Z" fill="#96D9C9"/>
<path d="M399.578 224.583H314.07V227.461H399.578V224.583Z" fill="#96D9C9"/>
<path d="M294.116 231.86H202.242V234.738H294.116V231.86Z" fill="#96D9C9"/>
<path d="M399.578 231.86H314.07V234.738H399.578V231.86Z" fill="#96D9C9"/>
<path d="M294.116 239.135H202.242V242.013H294.116V239.135Z" fill="#96D9C9"/>
<path d="M399.578 239.135H314.07V242.013H399.578V239.135Z" fill="#96D9C9"/>
<path d="M294.116 246.412H202.242V249.29H294.116V246.412Z" fill="#96D9C9"/>
<path d="M399.578 246.412H314.07V249.29H399.578V246.412Z" fill="#96D9C9"/>
<path d="M399.578 253.687H314.07V256.565H399.578V253.687Z" fill="#96D9C9"/>
<path d="M294.116 253.687H202.242V256.565H294.116V253.687Z" fill="#96D9C9"/>
<path d="M294.116 260.964H202.242V263.842H294.116V260.964Z" fill="#96D9C9"/>
<path d="M399.578 260.964H314.07V263.842H399.578V260.964Z" fill="#96D9C9"/>
<path d="M399.578 268.239H314.07V271.117H399.578V268.239Z" fill="#96D9C9"/>
<path d="M294.116 268.239H202.242V271.117H294.116V268.239Z" fill="#96D9C9"/>
<path d="M481.424 73.7167C481.354 73.693 481.292 73.65 481.245 73.5928C481.198 73.5356 481.169 73.4664 481.159 73.393C481.15 73.3197 481.162 73.2452 481.193 73.1781C481.224 73.1109 481.272 73.0536 481.334 73.0126L483.736 71.4272L483.791 68.5518C483.792 68.4777 483.813 68.4053 483.853 68.3429C483.893 68.2806 483.95 68.2307 484.017 68.1992C484.084 68.1676 484.159 68.1556 484.232 68.1645C484.306 68.1733 484.376 68.2028 484.433 68.2494L486.682 70.0427L489.434 69.2063C489.505 69.185 489.58 69.1839 489.651 69.203C489.722 69.2221 489.787 69.2607 489.837 69.3145C489.888 69.3682 489.923 69.435 489.937 69.5072C489.952 69.5795 489.946 69.6545 489.921 69.7237L488.91 72.4172L490.563 74.7799C490.605 74.8408 490.629 74.9122 490.633 74.986C490.637 75.0599 490.62 75.1333 490.584 75.1981C490.549 75.2628 490.496 75.3161 490.432 75.3521C490.367 75.388 490.294 75.4051 490.221 75.4013L487.346 75.2737L485.61 77.5679C485.566 77.6269 485.506 77.6724 485.438 77.6992C485.369 77.7259 485.294 77.7328 485.222 77.7192C485.15 77.7051 485.083 77.6712 485.028 77.6211C484.974 77.571 484.935 77.5068 484.915 77.4356L484.147 74.6618L481.424 73.7167Z" fill="#F47458"/>
<path d="M64.1914 85.7405L67.5222 87.0329L70.1513 84.5119L73.7797 86.2248L75.7522 82.6737L79.9427 84.4315L82.1609 81.386L86.4672 82.4161L86.0775 84.0464L82.8577 83.2762L80.5168 86.4895L76.4892 84.8025L74.4836 88.4103L70.4773 86.5202L67.9119 88.9845L64.8245 87.7866L63.478 89.7547L62.0938 88.8096L64.1914 85.7405Z" fill="#96D9C9"/>
<path d="M161.493 14.4835L161.455 18.0559L164.741 19.6295L164.415 23.6296L168.433 24.225L168.263 28.7661L171.894 29.7727L172.447 34.1673L170.784 34.3776L170.37 31.0911L166.539 30.0302L166.702 25.6639L162.617 25.059L162.977 20.6431L159.769 19.1073L159.804 15.7972L157.484 15.2278L157.884 13.5999L161.493 14.4835Z" fill="#9BC1F9"/>
<path d="M193.138 14.6843C193.064 13.6294 193.305 12.5763 193.83 11.6583C194.355 10.7402 195.14 9.99844 196.086 9.52673C197.033 9.05502 198.097 8.87457 199.146 9.00819C200.195 9.14181 201.181 9.58351 201.978 10.2774C202.776 10.9713 203.351 11.8863 203.628 12.9066C203.906 13.9269 203.876 15.0068 203.54 16.0096C203.204 17.0124 202.579 17.8931 201.743 18.5404C200.907 19.1877 199.897 19.5724 198.843 19.646C197.429 19.7441 196.033 19.2765 194.964 18.3462C193.894 17.4158 193.237 16.0987 193.138 14.6843Z" fill="#F7CC7F"/>
<path d="M202.204 29.7868C201.885 28.2368 201.692 26.5759 201.163 25.0803C200.709 23.7926 198.701 24.1872 198.8 25.567C198.923 27.2587 199.452 28.974 199.807 30.6303C199.951 31.3013 200.837 31.6132 201.425 31.4053C202.134 31.1548 202.339 30.4602 202.2 29.7868H202.204Z" fill="#F7CC7F"/>
<path d="M211.367 23.1546C209.593 22.1102 208.06 20.8131 206.406 19.5774C205.128 18.6134 203.751 20.2862 204.802 21.4227C206.312 23.0766 208.294 24.3572 210.205 25.4866C210.812 25.8433 211.653 25.4866 211.948 24.8982C212.095 24.5887 212.116 24.2345 212.008 23.9096C211.9 23.5847 211.67 23.3141 211.367 23.1546Z" fill="#F7CC7F"/>
<path d="M208.012 13.5879C207.823 13.7248 207.693 13.9286 207.649 14.1578C207.605 14.3869 207.65 14.6242 207.775 14.8212C208.375 15.9081 209.901 15.8537 210.976 15.8183C212.108 15.7721 213.227 15.5596 214.297 15.1875C215.873 14.6488 215.02 12.2033 213.438 12.742C210.348 13.7982 209.176 12.6523 208.012 13.5879Z" fill="#F7CC7F"/>
<path d="M206.307 3.18721C204.75 5.46487 203.473 6.23512 203.678 7.48736C203.794 8.2198 204.373 8.57185 205.079 8.41118C205.915 8.2198 206.371 7.33378 206.872 6.71239C207.373 6.09099 207.817 5.51685 208.254 4.88128C208.643 4.30478 208.698 3.55816 208.126 3.06199C207.654 2.64615 206.709 2.61071 206.307 3.18721Z" fill="#F7CC7F"/>
<path d="M200.245 2.79267C199.749 1.41284 199.638 0.902492 198.993 0.269284C198.428 -0.288317 197.247 0.068453 197.169 0.888316C197.08 1.84758 197.278 2.20199 197.802 3.65269C197.859 3.81311 197.946 3.96083 198.06 4.08742C198.173 4.21401 198.311 4.317 198.464 4.39049C198.617 4.46399 198.784 4.50657 198.953 4.51578C199.123 4.525 199.293 4.50068 199.454 4.4442C199.614 4.38773 199.762 4.30022 199.888 4.18666C200.015 4.0731 200.118 3.93572 200.191 3.78236C200.265 3.629 200.307 3.46267 200.316 3.29286C200.326 3.12304 200.301 2.95308 200.245 2.79267Z" fill="#F7CC7F"/>
<path d="M193.705 6.1431C191.461 4.43722 191.005 3.95759 190.124 4.0521C189.607 4.10644 189.028 4.60261 189.139 5.18148C189.349 6.25888 189.975 6.55185 192.04 8.0569C192.592 8.46093 193.353 8.48219 193.83 7.93404C194.255 7.4426 194.253 6.55894 193.705 6.1431Z" fill="#F7CC7F"/>
<path d="M184.686 13.9401C183.803 14.4126 184.157 15.9389 185.114 16.0665C186.033 16.187 186.387 16.0382 190.84 15.2254C191.53 15.1002 192.094 14.5969 192.042 13.8432C192 13.2053 191.355 12.5177 190.663 12.6406C186.035 13.4817 185.572 13.4675 184.686 13.9401Z" fill="#F7CC7F"/>
<path d="M191.662 21.236C189.219 23.5987 188.863 23.1805 187.899 24.6265C187.459 25.2857 188.185 26.3395 188.952 26.2001C189.937 26.0181 190.202 25.8527 191.487 24.8344C192.233 24.2437 192.944 23.6105 193.632 22.9442C194.14 22.4551 194.003 21.5266 193.504 21.1037C192.933 20.6075 192.17 20.7398 191.662 21.2313V21.236Z" fill="#F7CC7F"/>
<path d="M261.721 77.9082L257.32 78.4115L257.518 82.5344L253.205 83.222L252.907 87.1866L249.766 88.2286L250.292 89.821L254.497 88.427L254.778 84.6703L259.267 83.9544L259.07 79.8976L263.058 79.4416L261.721 77.9082Z" fill="#F48C7F"/>
<path d="M240.266 21.8977L235.846 22.0088L235.506 25.2646L231.147 25.5245L230.342 28.6244L227.094 29.2387L227.41 30.5263L231.752 29.7041L232.517 26.7649L237.051 26.4956L237.384 23.2917L241.39 23.1925L240.266 21.8977Z" fill="#F7CC7F"/>
<path d="M520.974 95.1489L516.554 95.2576L516.214 98.5134L511.858 98.7757L511.05 101.873L507.805 102.49L508.119 103.775L512.461 102.953L513.226 100.016L517.759 99.7444L518.092 96.5429L522.099 96.4437L520.974 95.1489Z" fill="#96D9C9"/>
<path d="M438.491 55.7034L435.609 66.4726L444.761 63.0089L438.491 55.7034Z" fill="#96D9C9"/>
<path d="M554.522 222.095C551.489 220.355 549.04 217.753 547.485 214.62C545.93 211.487 545.339 207.963 545.786 204.494C546.233 201.025 547.699 197.766 549.998 195.131C552.297 192.495 555.326 190.6 558.701 189.686C562.077 188.772 565.648 188.88 568.962 189.995C572.277 191.111 575.186 193.185 577.322 195.955C579.458 198.724 580.725 202.065 580.962 205.555C581.2 209.045 580.398 212.527 578.657 215.56C576.319 219.624 572.465 222.595 567.941 223.82C563.416 225.046 558.59 224.425 554.522 222.095Z" fill="#F7CC7F"/>
<path d="M580.172 210.297C582.132 200.989 576.176 191.854 566.869 189.894C557.562 187.934 548.429 193.891 546.47 203.2C544.51 212.508 550.466 221.643 559.773 223.603C569.08 225.563 578.213 219.606 580.172 210.297Z" fill="#F7CC7F"/>
<path d="M564.135 220.818C571.888 220.358 577.799 213.698 577.339 205.944C576.878 198.189 570.22 192.277 562.467 192.737C554.715 193.198 548.803 199.858 549.264 207.612C549.724 215.366 556.383 221.279 564.135 220.818Z" fill="white"/>
<path d="M556.685 218.315C554.398 217.004 552.55 215.043 551.377 212.681C550.204 210.319 549.757 207.662 550.093 205.046C550.43 202.431 551.534 199.973 553.267 197.986C555 195.998 557.284 194.569 559.829 193.879C562.374 193.189 565.066 193.27 567.566 194.111C570.065 194.952 572.258 196.516 573.869 198.604C575.48 200.692 576.435 203.211 576.614 205.843C576.793 208.474 576.188 211.099 574.875 213.387C573.112 216.448 570.208 218.686 566.798 219.61C563.389 220.534 559.752 220.068 556.685 218.315Z" fill="white"/>
<path d="M553.666 200.399L551.597 199.217C551.433 199.123 551.239 199.098 551.057 199.147C550.875 199.196 550.72 199.316 550.626 199.479C550.532 199.643 550.507 199.837 550.556 200.019C550.605 200.201 550.725 200.356 550.888 200.45L552.96 201.632C553.041 201.678 553.13 201.708 553.223 201.72C553.316 201.732 553.41 201.726 553.5 201.701C553.591 201.677 553.675 201.635 553.749 201.578C553.823 201.521 553.885 201.45 553.932 201.368C553.978 201.287 554.008 201.198 554.02 201.105C554.032 201.012 554.026 200.918 554.001 200.828C553.977 200.737 553.935 200.653 553.878 200.579C553.821 200.505 553.75 200.443 553.668 200.396L553.666 200.399Z" fill="#F7CC7F"/>
<path d="M557.934 216.151C557.853 216.104 557.764 216.073 557.671 216.061C557.579 216.049 557.484 216.055 557.394 216.08C557.304 216.104 557.219 216.146 557.145 216.203C557.071 216.26 557.009 216.332 556.963 216.413L555.782 218.483C555.736 218.564 555.705 218.653 555.693 218.746C555.681 218.838 555.688 218.932 555.712 219.023C555.736 219.113 555.778 219.197 555.835 219.271C555.892 219.345 555.963 219.407 556.044 219.454C556.125 219.5 556.215 219.53 556.307 219.542C556.4 219.554 556.494 219.548 556.584 219.524C556.674 219.499 556.759 219.457 556.833 219.4C556.907 219.343 556.969 219.272 557.015 219.191L558.196 217.122C558.243 217.041 558.274 216.951 558.286 216.859C558.298 216.766 558.292 216.672 558.267 216.582C558.243 216.491 558.201 216.407 558.144 216.333C558.087 216.259 558.015 216.197 557.934 216.151Z" fill="#F7CC7F"/>
<path d="M575.754 213.075L573.683 211.893C573.602 211.847 573.512 211.816 573.42 211.804C573.327 211.792 573.233 211.799 573.143 211.823C573.053 211.848 572.968 211.889 572.894 211.946C572.82 212.003 572.758 212.074 572.712 212.155C572.665 212.236 572.635 212.326 572.623 212.418C572.611 212.511 572.617 212.605 572.642 212.695C572.666 212.785 572.708 212.87 572.765 212.944C572.822 213.018 572.893 213.08 572.974 213.127L575.043 214.308C575.207 214.402 575.401 214.427 575.583 214.378C575.765 214.329 575.92 214.209 576.014 214.046C576.108 213.882 576.133 213.688 576.084 213.506C576.035 213.324 575.915 213.169 575.752 213.075H575.754Z" fill="#F7CC7F"/>
<path d="M570.606 194.064C570.525 194.017 570.435 193.987 570.343 193.975C570.25 193.963 570.156 193.97 570.065 193.994C569.975 194.019 569.891 194.061 569.817 194.118C569.743 194.176 569.681 194.247 569.635 194.329L568.454 196.398C568.407 196.479 568.377 196.569 568.365 196.661C568.353 196.754 568.36 196.848 568.384 196.938C568.408 197.029 568.45 197.113 568.507 197.187C568.564 197.261 568.635 197.323 568.716 197.37C568.797 197.416 568.886 197.446 568.979 197.458C569.072 197.47 569.166 197.464 569.256 197.44C569.346 197.415 569.43 197.373 569.504 197.316C569.578 197.259 569.64 197.188 569.687 197.107L570.868 195.035C570.915 194.954 570.945 194.865 570.958 194.772C570.97 194.68 570.963 194.585 570.939 194.495C570.915 194.405 570.873 194.32 570.816 194.246C570.758 194.172 570.687 194.11 570.606 194.064Z" fill="#F7CC7F"/>
<path d="M578.362 194.357L580.699 192.816C580.744 192.786 580.795 192.765 580.849 192.755C580.903 192.745 580.958 192.745 581.011 192.756C581.065 192.767 581.116 192.788 581.161 192.819C581.206 192.85 581.245 192.889 581.275 192.935L583.042 195.616C583.072 195.662 583.093 195.713 583.103 195.766C583.113 195.82 583.112 195.875 583.101 195.928C583.09 195.982 583.068 196.032 583.038 196.077C583.007 196.122 582.967 196.161 582.922 196.19L580.585 197.731C580.54 197.761 580.489 197.782 580.435 197.793C580.381 197.804 580.326 197.803 580.272 197.792C580.219 197.781 580.168 197.76 580.123 197.729C580.077 197.698 580.039 197.659 580.009 197.613L578.244 194.924C578.186 194.833 578.166 194.722 578.188 194.617C578.21 194.511 578.273 194.418 578.362 194.357Z" fill="#F7CC7F"/>
<path d="M562.721 184.665L562.569 187.461C562.557 187.691 562.733 187.887 562.962 187.899L566.168 188.073C566.397 188.085 566.593 187.909 566.605 187.68L566.757 184.884C566.769 184.655 566.593 184.459 566.364 184.446L563.158 184.273C562.929 184.26 562.733 184.436 562.721 184.665Z" fill="#F7CC7F"/>
<path d="M572.274 187.6C572.228 187.573 572.187 187.538 572.155 187.496C572.122 187.454 572.098 187.406 572.084 187.354C572.07 187.303 572.067 187.249 572.074 187.196C572.081 187.144 572.099 187.093 572.126 187.047L573.127 185.301C573.181 185.208 573.269 185.139 573.372 185.111C573.476 185.083 573.586 185.097 573.68 185.15L577.244 187.198C577.338 187.251 577.406 187.34 577.434 187.443C577.462 187.547 577.449 187.657 577.396 187.751L576.392 189.497C576.338 189.59 576.25 189.658 576.146 189.687C576.043 189.715 575.932 189.701 575.839 189.648L572.274 187.6Z" fill="#F7CC7F"/>
<path d="M572.346 188.802C571.647 188.018 571.25 187.01 571.226 185.96C571.203 184.91 571.553 183.885 572.216 183.07C572.878 182.255 573.809 181.702 574.842 181.511C575.875 181.32 576.942 181.502 577.852 182.026C578.763 182.55 579.457 183.381 579.811 184.37C580.165 185.359 580.155 186.441 579.784 187.424C579.412 188.407 578.703 189.225 577.783 189.733C576.864 190.24 575.794 190.404 574.764 190.194L574.221 191.139C575.505 191.484 576.87 191.351 578.062 190.763C579.254 190.175 580.191 189.173 580.699 187.945C581.207 186.716 581.25 185.345 580.82 184.087C580.391 182.829 579.518 181.77 578.365 181.108C577.212 180.447 575.858 180.228 574.555 180.492C573.253 180.756 572.091 181.486 571.287 182.544C570.483 183.603 570.091 184.918 570.186 186.244C570.28 187.57 570.854 188.816 571.8 189.75L572.346 188.802Z" fill="#F7CC7F"/>
<path d="M572.303 191.108C572.718 191.344 573.12 191.602 573.51 191.867L574.958 189.346L572.988 188.214L571.57 190.704C571.809 190.834 572.055 190.969 572.303 191.108Z" fill="#F7CC7F"/>
<path d="M564.467 207.387C564.339 207.61 564.148 207.789 563.918 207.903C563.687 208.016 563.429 208.059 563.174 208.026C562.92 207.992 562.681 207.884 562.488 207.714C562.295 207.545 562.157 207.322 562.091 207.074C562.025 206.826 562.033 206.564 562.116 206.321C562.199 206.078 562.352 205.865 562.556 205.709C562.76 205.553 563.005 205.461 563.261 205.445C563.518 205.429 563.773 205.489 563.995 205.618C564.291 205.791 564.507 206.074 564.596 206.405C564.684 206.737 564.638 207.09 564.467 207.387Z" fill="#FAE0B2"/>
<path d="M572.603 201.396L563.577 207.137C563.468 207.2 563.339 207.218 563.216 207.188C563.094 207.158 562.988 207.082 562.92 206.976C562.852 206.87 562.829 206.741 562.853 206.617C562.878 206.494 562.95 206.384 563.053 206.312C563.084 206.289 562.661 206.501 572.603 201.396Z" fill="#FAE0B2"/>
<path d="M564.841 217.394L562.848 206.882C562.832 206.758 562.864 206.633 562.937 206.533C563.01 206.432 563.119 206.363 563.242 206.34C563.364 206.316 563.491 206.341 563.596 206.408C563.701 206.475 563.776 206.579 563.807 206.7C563.814 206.738 563.767 206.265 564.841 217.394Z" fill="#FAE0B2"/>
<path d="M563.799 207.007C563.747 207.097 563.669 207.17 563.575 207.216C563.482 207.263 563.376 207.28 563.273 207.266C563.169 207.253 563.072 207.209 562.993 207.14C562.915 207.071 562.858 206.981 562.831 206.88C562.804 206.779 562.807 206.672 562.84 206.573C562.873 206.474 562.935 206.387 563.018 206.323C563.1 206.259 563.2 206.221 563.304 206.214C563.408 206.206 563.513 206.23 563.603 206.282C563.725 206.352 563.815 206.468 563.852 206.604C563.888 206.74 563.87 206.885 563.799 207.007Z" fill="#FAE0B2"/>
<path d="M512.377 129.633C512.352 129.548 512.304 129.473 512.238 129.414C512.172 129.356 512.091 129.317 512.004 129.302C511.135 129.153 509.878 128.196 509.297 127.634L510.268 123.551C511.038 123.315 512.592 123.02 513.436 123.279C513.518 123.303 513.606 123.304 513.69 123.282C513.773 123.259 513.848 123.214 513.908 123.152L516.173 120.756C516.234 120.692 516.276 120.611 516.293 120.525C516.311 120.438 516.304 120.348 516.273 120.265C515.965 119.438 516.169 117.871 516.365 117.087L520.38 115.886C520.976 116.435 522.003 117.635 522.199 118.485C522.219 118.572 522.263 118.65 522.325 118.713C522.387 118.776 522.465 118.82 522.551 118.84L525.759 119.603C525.845 119.623 525.935 119.619 526.018 119.591C526.101 119.563 526.175 119.513 526.232 119.445C526.794 118.764 528.251 118.157 529.029 117.935L532.078 120.815C531.901 121.604 531.37 123.095 530.729 123.695C530.667 123.755 530.621 123.83 530.598 123.913C530.575 123.997 530.576 124.085 530.599 124.168L531.544 127.329C531.57 127.414 531.618 127.489 531.684 127.548C531.75 127.606 531.831 127.645 531.918 127.66C532.787 127.806 534.044 128.766 534.625 129.328L533.654 133.411C532.884 133.647 531.329 133.94 530.486 133.682C530.403 133.658 530.316 133.657 530.232 133.679C530.149 133.701 530.073 133.746 530.014 133.808L527.748 136.206C527.688 136.27 527.646 136.35 527.629 136.436C527.611 136.523 527.618 136.612 527.649 136.695C527.956 137.522 527.753 139.091 527.557 139.875L523.541 141.075C522.946 140.527 521.918 139.327 521.722 138.476C521.703 138.39 521.659 138.312 521.597 138.249C521.535 138.186 521.456 138.142 521.37 138.122L518.162 137.359C518.077 137.339 517.987 137.343 517.904 137.371C517.82 137.399 517.746 137.449 517.69 137.517C517.128 138.195 515.67 138.805 514.893 139.027L511.843 136.144C512.021 135.358 512.552 133.867 513.192 133.267C513.255 133.207 513.3 133.132 513.323 133.049C513.346 132.965 513.346 132.877 513.322 132.794L512.377 129.633ZM521.011 132.511C521.806 132.698 522.639 132.646 523.405 132.36C524.17 132.075 524.833 131.568 525.311 130.906C525.789 130.243 526.06 129.453 526.089 128.637C526.118 127.82 525.905 127.013 525.476 126.318C525.047 125.623 524.421 125.07 523.678 124.731C522.935 124.391 522.108 124.279 521.302 124.409C520.495 124.539 519.746 124.906 519.147 125.462C518.549 126.018 518.129 126.74 517.94 127.535C517.815 128.063 517.795 128.611 517.881 129.147C517.968 129.683 518.159 130.197 518.445 130.659C518.73 131.121 519.103 131.523 519.544 131.84C519.984 132.158 520.483 132.386 521.011 132.511ZM520.397 135.088C521.701 135.399 523.068 135.315 524.325 134.848C525.582 134.381 526.673 133.552 527.458 132.466C528.244 131.379 528.69 130.084 528.74 128.744C528.79 127.403 528.442 126.079 527.739 124.937C527.036 123.795 526.01 122.887 524.792 122.328C523.573 121.768 522.216 121.583 520.892 121.796C519.568 122.008 518.337 122.608 517.354 123.52C516.371 124.433 515.681 125.616 515.37 126.92C515.164 127.787 515.13 128.685 515.271 129.565C515.412 130.444 515.725 131.287 516.192 132.046C516.659 132.804 517.27 133.463 517.992 133.985C518.713 134.507 519.531 134.882 520.397 135.088Z" fill="#F48C7F"/>
<path d="M530.45 154.2C530.494 154.147 530.552 154.107 530.618 154.084C530.684 154.062 530.755 154.059 530.823 154.075L533.365 154.678C533.432 154.694 533.494 154.729 533.543 154.779C533.591 154.829 533.626 154.891 533.641 154.959C533.799 155.642 534.612 156.591 535.082 157.024L538.266 156.079C538.42 155.457 538.58 154.217 538.337 153.562C538.313 153.497 538.307 153.426 538.321 153.357C538.336 153.288 538.369 153.225 538.417 153.175L540.21 151.285C540.259 151.234 540.32 151.198 540.388 151.181C540.455 151.163 540.526 151.165 540.593 151.185C541.259 151.391 542.483 151.159 543.099 150.97L543.869 147.738C543.409 147.292 542.414 146.533 541.725 146.415C541.656 146.404 541.592 146.373 541.54 146.327C541.488 146.281 541.449 146.222 541.429 146.155L540.683 143.651C540.663 143.584 540.663 143.513 540.681 143.446C540.699 143.379 540.736 143.318 540.787 143.27C541.299 142.798 541.713 141.616 541.855 140.99L539.44 138.691C538.824 138.866 537.671 139.351 537.225 139.887C537.18 139.941 537.121 139.981 537.055 140.003C536.988 140.026 536.917 140.029 536.849 140.012L534.31 139.41C534.241 139.394 534.179 139.359 534.13 139.309C534.081 139.259 534.046 139.197 534.031 139.128C533.875 138.446 533.06 137.496 532.59 137.063L529.408 138.009C529.252 138.63 529.091 139.87 529.335 140.525C529.359 140.59 529.365 140.661 529.351 140.73C529.337 140.798 529.304 140.861 529.257 140.912L527.464 142.803C527.416 142.853 527.354 142.889 527.287 142.907C527.219 142.925 527.148 142.923 527.081 142.902C526.413 142.696 525.191 142.928 524.572 143.117L523.805 146.349C524.263 146.796 525.257 147.554 525.947 147.672C526.016 147.684 526.08 147.715 526.132 147.761C526.185 147.807 526.223 147.867 526.243 147.934L526.989 150.436C527.009 150.503 527.011 150.574 526.993 150.641C526.975 150.709 526.938 150.769 526.887 150.817C526.375 151.289 525.959 152.471 525.82 153.097L528.234 155.379C528.848 155.23 530.003 154.739 530.45 154.2ZM532.895 151.006C532.111 150.82 531.401 150.405 530.853 149.815C530.306 149.225 529.945 148.486 529.818 147.691C529.69 146.896 529.801 146.081 530.136 145.349C530.472 144.617 531.016 144.001 531.702 143.579C532.387 143.157 533.182 142.947 533.987 142.977C534.791 143.007 535.569 143.275 536.221 143.746C536.873 144.218 537.371 144.873 537.652 145.627C537.932 146.382 537.982 147.203 537.796 147.986C537.546 149.037 536.889 149.945 535.97 150.511C535.051 151.077 533.945 151.255 532.895 151.006Z" fill="#F7A491"/>
<path d="M421.614 53.4849L407.96 62.0285C407.63 62.2345 407.263 62.3735 406.879 62.4375C406.496 62.5015 406.103 62.4893 405.724 62.4015C405.345 62.3137 404.987 62.1521 404.671 61.926C404.355 61.6998 404.086 61.4135 403.88 61.0834L395.341 47.434C395.134 47.1041 394.995 46.7368 394.931 46.3531C394.867 45.9693 394.879 45.5767 394.967 45.1977C395.055 44.8187 395.216 44.4607 395.443 44.1442C395.669 43.8278 395.955 43.5591 396.286 43.3535L409.932 34.81C410.262 34.6039 410.629 34.465 411.013 34.4009C411.397 34.3369 411.789 34.3492 412.168 34.4369C412.547 34.5247 412.905 34.6863 413.221 34.9125C413.537 35.1386 413.806 35.425 414.012 35.755L422.554 49.4045C422.969 50.0704 423.104 50.8742 422.928 51.6392C422.751 52.4043 422.279 53.0681 421.614 53.4849Z" fill="#F7A491"/>
<path d="M415.244 43.793C416.036 45.0581 416.436 46.5299 416.391 48.0221C416.347 49.5143 415.861 50.9598 414.996 52.1758C414.13 53.3919 412.923 54.3238 411.528 54.8537C410.132 55.3836 408.611 55.4876 407.157 55.1527C405.702 54.8178 404.38 54.0589 403.357 52.9721C402.334 51.8853 401.656 50.5193 401.409 49.0471C401.162 47.5748 401.357 46.0624 401.97 44.7011C402.582 43.3398 403.585 42.1908 404.85 41.3995C406.546 40.3398 408.593 39.9966 410.542 40.4454C412.491 40.8942 414.182 42.0981 415.244 43.793Z" fill="white"/>
<path d="M406.477 44.6104L409.448 48.093C409.5 48.1537 409.539 48.2239 409.564 48.2998C409.589 48.3757 409.598 48.4557 409.592 48.5352C409.586 48.6147 409.564 48.6922 409.528 48.7633C409.491 48.8344 409.442 48.8977 409.381 48.9495C409.32 49.0013 409.25 49.0407 409.174 49.0653C409.098 49.09 409.018 49.0995 408.939 49.0932C408.859 49.0869 408.782 49.0651 408.711 49.0289C408.64 48.9927 408.576 48.9428 408.525 48.8821C408.49 48.8416 408.461 48.7972 408.437 48.7498L406.477 44.6104Z" fill="#F47458"/>
<path d="M408.711 48.0931L413.471 45.6477L409.276 48.972C409.166 49.0508 409.031 49.0844 408.897 49.0656C408.763 49.0468 408.642 48.9773 408.558 48.8714C408.475 48.7655 408.435 48.6314 408.448 48.497C408.46 48.3626 408.524 48.2382 408.626 48.1498C408.653 48.1288 408.681 48.1098 408.711 48.0931Z" fill="#F47458"/>
<path d="M90.2258 46.7299C90.5601 48.506 90.3605 50.3414 89.6521 52.004C88.9437 53.6666 87.7584 55.0819 86.2459 56.0707C84.7334 57.0596 82.9618 57.5778 81.1549 57.5597C79.3481 57.5416 77.5872 56.988 76.0948 55.969C74.6025 54.95 73.4457 53.5113 72.7707 51.8348C72.0958 50.1583 71.933 48.3193 72.3029 46.5502C72.6728 44.7812 73.5588 43.1616 74.8489 41.8961C76.139 40.6307 77.7753 39.7763 79.5508 39.4409C80.7303 39.2178 81.9422 39.2294 83.1172 39.475C84.2922 39.7206 85.4073 40.1955 86.3987 40.8724C87.3901 41.5494 88.2384 42.4151 88.8951 43.4202C89.5517 44.4252 90.0039 45.5499 90.2258 46.7299Z" fill="#F7CC7F"/>
<path d="M76.7109 50.7512C76.8299 51.3818 77.0719 51.9828 77.4231 52.5199C77.7743 53.057 78.2278 53.5197 78.7578 53.8815C79.2877 54.2433 79.8837 54.4971 80.5118 54.6285C81.1398 54.7599 81.7876 54.7663 82.4181 54.6473C83.0486 54.5283 83.6495 54.2863 84.1865 53.935C84.7235 53.5837 85.186 53.1301 85.5477 52.6C85.9094 52.07 86.1632 51.4738 86.2946 50.8457C86.426 50.2175 86.4324 49.5696 86.3134 48.939L76.7109 50.7512Z" fill="#EFEFEF"/>
<path d="M149.29 51.2C149.29 51.2 154.041 52.145 153.916 53.5627C153.849 54.3164 153.443 56.2562 153.443 56.2562L155.73 63.1955L150.462 64.2398C150.462 64.2398 149.699 59.2285 148.61 57.9384C148.416 57.7021 148.022 57.7447 147.696 57.4659C146.588 56.5208 144.97 54.3707 144.833 53.8887C144.219 51.7599 149.29 51.2 149.29 51.2Z" fill="#F7A491"/>
<path d="M146.068 53.4659L145.359 53.8818C146.118 53.9081 146.861 54.1112 147.528 54.4748C148.014 54.7059 148.487 54.9638 148.945 55.2474C149.333 54.9603 149.755 54.7222 150.202 54.5386C151.13 54.2 152.084 53.9346 153.053 53.7447C154.44 53.4376 150.084 51.7175 150.084 51.7175L146.068 53.4659Z" fill="#F48C7F"/>
<path d="M312.065 180.089C311.957 180.089 311.851 180.066 311.752 180.023C311.654 179.979 311.565 179.916 311.493 179.836L231.82 92.2025L77.9042 22.6016C77.8112 22.5598 77.7272 22.5002 77.6572 22.426C77.5872 22.3518 77.5325 22.2646 77.4962 22.1693C77.4599 22.0739 77.4427 21.9724 77.4456 21.8704C77.4486 21.7684 77.4716 21.6681 77.5133 21.575C77.555 21.4819 77.6146 21.3979 77.6888 21.3279C77.763 21.2579 77.8502 21.2032 77.9455 21.1668C78.0408 21.1305 78.1423 21.1134 78.2443 21.1163C78.3462 21.1192 78.4466 21.1422 78.5397 21.1839L232.748 90.9266L232.855 91.0448L312.634 178.798C312.734 178.909 312.8 179.046 312.823 179.193C312.847 179.341 312.827 179.492 312.767 179.628C312.707 179.764 312.609 179.88 312.484 179.962C312.359 180.044 312.214 180.088 312.065 180.089Z" fill="#13375B"/>
<path d="M100.269 30.7153C100.269 30.7153 100.191 34.6823 100.742 36.0102C101.032 36.719 102.44 39.637 102.44 39.637L102.934 46.9023L108.379 46.2667C108.379 46.2667 106.629 41.0073 107.278 39.4479C107.788 38.2193 108.138 35.6345 108.117 34.9848C108.048 32.7756 100.269 30.7153 100.269 30.7153Z" fill="#F7A491"/>
<path d="M135.741 59.5096C135.741 59.5096 132.907 56.5255 130.636 60.157C130.636 60.157 128.884 59.1718 127.653 60.9249C127.653 60.9249 124.485 59.9798 123.715 64.7052C123.715 64.7052 122.085 64.3981 121.87 66.3355C121.734 67.4692 122.006 68.6143 122.638 69.5653C122.638 69.5653 121.724 70.2529 122.14 72.0344C122.494 73.5489 123.746 73.7804 123.746 73.7804C123.746 73.7804 124.084 76.3345 125.192 77.1024C126.299 77.8703 127.807 77.5041 127.807 77.5041C127.807 77.5041 128.206 78.8886 129.498 78.7634C130.79 78.6382 132.389 77.4119 133.835 77.9648C135.281 78.5177 139.032 77.9341 139.032 77.9341C139.032 77.9341 143.246 76.0581 141.985 71.7509C141.985 71.7509 144.198 69.7496 142.261 67.3515C142.261 67.3515 143.678 63.5971 140.877 61.3809C138.075 59.1647 135.741 59.5096 135.741 59.5096Z" fill="#07345A"/>
<path d="M104.292 164.918C104.292 164.918 99.414 164.36 98.6038 163.972C97.7935 163.585 93.6998 167.486 94.5124 169.449C94.9707 170.555 96.4187 170.413 96.4187 170.413L97.588 169.272L103.779 170.562L104.292 164.918Z" fill="#F7A491"/>
<path d="M132.142 185.473C132.142 185.473 129.574 189.658 128.872 190.222C128.171 190.787 129.98 196.155 132.102 196.249C133.299 196.301 133.783 194.931 133.783 194.931L133.233 193.388L137.013 188.323L132.142 185.473Z" fill="#F7A491"/>
<path d="M129.025 190.059C129.025 190.059 130.501 191.95 131.307 192.691C132.058 193.372 132.847 194.01 133.669 194.603C133.669 194.603 135.178 197.341 135.589 198.296C136.506 200.422 137.538 202.785 137.389 203.98C137.342 204.363 136.482 204.767 135.767 204.548C132.79 203.633 125.177 196.665 124.215 194.797C123.112 192.639 129.025 190.059 129.025 190.059Z" fill="#07345A"/>
<path d="M150.76 126.309C150.482 125.534 150.217 124.818 149.962 124.144C146.794 124.834 143.215 125.595 139.537 126.379L139.089 139.871C139.089 138.829 141.855 161.39 141.855 161.39C141.855 161.39 134.338 176.325 129.453 185.554C131.461 188.058 132.996 189.157 135.909 190.863C143.501 181.759 153.203 165.716 153.626 162.945C153.848 161.352 154.06 135.599 150.76 126.309Z" fill="#B75742"/>
<path d="M122.483 130.209C123.346 139.561 124.77 153.718 125.03 158.482C118.985 159.353 104.701 163.651 102.038 163.647C101.03 165.905 100.472 168.646 101.171 170.898C101.308 171.342 129.346 172.235 136.584 167.616C138.473 166.411 139.054 153.494 139.083 139.871L139.532 126.379C133.399 127.688 127.761 128.969 122.483 130.209Z" fill="#F47458"/>
<path d="M142.622 82.2886L135.743 83.3258C135.743 83.3258 130.546 83.4061 129.172 83.4203C129.051 83.4203 123.653 109.755 122.342 119.664C121.031 129.574 122.047 131.329 122.047 131.329C122.047 131.329 131.198 133.389 137.969 132.789C145.008 132.163 152.929 128.362 152.929 128.362C152.929 128.362 146.721 109.845 145.528 103.898C144.335 97.951 142.622 82.2886 142.622 82.2886Z" fill="white"/>
<path d="M155.305 60.8399C155.305 60.8399 162.142 81.0553 161.402 82.558C160.325 84.7412 146.936 91.5103 146.936 91.5103C146.936 91.5103 152.442 113.432 154.876 121.8C155.112 122.642 156.208 128.085 156.208 128.617C156.208 129.798 151.084 131.287 150.477 131.199C149.934 131.119 144.553 108.281 141.699 97.0013C140.733 93.1808 139.986 89.3555 137.719 86.1328L135.734 83.3141C135.734 83.3141 139.724 81.8752 141.508 81.294C144.163 80.4292 153.127 77.0552 153.127 77.0552C153.127 77.0552 149.979 62.7962 149.723 61.4306C149.655 61.0715 154.566 59.4554 155.305 60.8399Z" fill="#13375B"/>
<path d="M129.17 83.4204C129.17 83.4204 119.388 68.9346 116.666 63.7933C114.436 59.583 109.405 46.9424 109.216 46.2525C109.027 45.5626 103.379 44.9507 101.64 45.7422C101.168 45.9548 106.265 62.775 108.365 68.2636C110.305 73.3316 117.195 88.0939 117.195 88.0939C117.195 88.0939 121.169 97.1644 120.55 104.16C119.52 115.799 117.479 132.57 117.977 133.073C121.062 135.017 130.771 134.947 131.52 133.739C139.797 120.416 129.17 83.4204 129.17 83.4204Z" fill="#13375B"/>
<path d="M135.266 79.7701L135.779 83.5717C135.779 83.5717 136.927 89.0485 135.451 90.1046C133.974 91.1607 129.172 83.4158 129.172 83.4158L129.687 73.783L135.266 79.7701Z" fill="#F7A491"/>
<path d="M129.516 76.9065C130.737 80.1906 133.64 82.2108 135.702 82.9928L135.268 79.7701L129.688 73.783L129.516 76.9065Z" fill="#F47458"/>
<path d="M121.82 67.2381C121.82 68.7054 122.654 69.8938 123.682 69.8938C124.709 69.8938 125.546 68.7125 125.546 67.2381C125.546 65.7638 124.712 64.5801 123.682 64.5801C122.652 64.5801 121.82 65.7709 121.82 67.2381Z" fill="#07345A"/>
<path d="M127.414 61.5274C127.414 62.3709 128.427 63.0538 129.679 63.0538C130.931 63.0538 131.947 62.3709 131.947 61.5274C131.947 60.684 130.931 60.0129 129.689 60.0129C128.446 60.0129 127.414 60.684 127.414 61.5274Z" fill="#07345A"/>
<path d="M133.092 63.6634C133.795 63.4262 134.541 63.3458 135.279 63.4279C136.016 63.51 136.726 63.7525 137.36 64.1385C137.993 64.5244 138.534 65.0444 138.946 65.662C139.357 66.2795 139.628 66.9796 139.74 67.7131C139.98 69.3282 140.117 70.9571 140.151 72.5897C140.231 77.0293 137.935 81.3507 135.917 81.3507C133.9 81.3507 128.332 78.4752 128.122 72.1739C128.006 68.2825 129.948 64.7384 133.092 63.6634Z" fill="#F7A491"/>
<path d="M129.609 72.6723C129.609 73.6505 128.96 74.4444 128.159 74.4444C127.358 74.4444 126.711 73.6505 126.711 72.6723C126.711 71.6942 127.358 70.8979 128.159 70.8979C128.96 70.8979 129.609 71.6918 129.609 72.6723Z" fill="#F7A491"/>
<path d="M141.822 61.4566C143.904 63.1105 144.633 65.6126 143.452 67.0539C142.271 68.4951 139.623 68.3274 137.547 66.6782C135.47 65.029 134.733 62.5222 135.917 61.0809C137.1 59.6397 139.739 59.8051 141.822 61.4566Z" fill="#07345A"/>
<path d="M136.38 62.8081C136.38 63.5169 135.516 64.1053 134.448 64.1053C133.38 64.1053 132.516 63.524 132.516 62.8081C132.516 62.0922 133.38 61.511 134.448 61.511C135.516 61.511 136.38 62.0922 136.38 62.8081Z" fill="#07345A"/>
<path d="M142.127 68.3251C142.125 68.6516 142.025 68.9699 141.842 69.24C141.658 69.5101 141.399 69.7199 141.097 69.8429C140.794 69.9659 140.462 69.9967 140.143 69.9313C139.823 69.8658 139.529 69.7072 139.3 69.4754C139.07 69.2435 138.914 68.9488 138.851 68.6284C138.788 68.3079 138.822 67.9761 138.948 67.6747C139.073 67.3734 139.285 67.1159 139.557 66.9348C139.828 66.7537 140.147 66.657 140.474 66.657C140.692 66.657 140.908 66.7002 141.11 66.7842C141.311 66.8682 141.494 66.9913 141.648 67.1464C141.802 67.3015 141.923 67.4855 142.006 67.6878C142.088 67.8901 142.129 68.1067 142.127 68.3251Z" fill="#07345A"/>
<path d="M98.8247 164.027C98.8247 164.027 97.7451 166.153 97.4073 167.207C97.1101 168.179 96.8672 169.166 96.6798 170.165C96.6798 170.165 94.8372 172.689 94.1475 173.473C92.6097 175.205 90.727 177.253 89.5836 177.622C89.2175 177.74 88.1781 177.428 88.1876 176.62C88.2254 173.504 91.2159 163.346 92.5034 161.683C93.9868 159.76 98.8247 164.027 98.8247 164.027Z" fill="#07345A"/>
<path d="M312.781 179.498C294.356 170.087 275.3 160.36 259.551 146.257C251.741 139.315 245.288 130.983 240.521 121.685C235.745 112.41 232.915 102.257 232.203 91.8482L233.268 91.7773C234.622 112.023 244.208 131.088 260.262 145.461C275.907 159.467 294.899 169.168 313.263 178.539L312.781 179.498Z" fill="#13375B"/>
<path d="M218.307 96.1106C214.021 96.1106 209.897 95.3805 206.458 94.4898C196.321 91.8624 186.308 86.7661 176.694 79.34C168.544 73.0458 160.711 65.1897 152.75 55.3277L153.584 54.6567C170.769 75.9495 188.153 88.6421 206.734 93.4549C213.96 95.3262 224.29 96.4839 232.468 91.3592L233.037 92.2641C228.462 95.1254 223.277 96.1106 218.307 96.1106Z" fill="#13375B"/>
<path d="M318.68 25.9614L320.338 55.7813L324.257 25.9614H318.68Z" fill="#96D9C9"/>
<path d="M326.07 62.4467L354.046 34.9257L349.237 31.1855L326.07 62.4467Z" fill="#96D9C9"/>
<path d="M338.367 66.6545L366.062 57.5203L366.211 63.2262L338.367 66.6545Z" fill="#96D9C9"/>
<path d="M246.43 216.425L247.538 211.777C247.538 211.777 251.709 216.593 253.679 218.556C255.876 220.753 259.611 224.406 261.104 224.12C261.576 224.028 268.812 216.834 269.802 215.811C271.025 214.544 271.635 212.975 272.45 211.841C273.265 210.707 275.591 210.598 276.43 210.87C277.269 211.142 274.732 214.454 274.732 214.454C274.732 214.454 270.619 219.267 268.228 223.865C265.838 228.463 257.879 233.33 257.126 232.52C256.372 231.709 246.43 216.425 246.43 216.425Z" fill="#F48C7F"/>
<path d="M252.211 201.039C252.863 198.114 253.503 195.167 251.781 191.952C250.387 189.353 247.978 187.852 245.19 187.526C237.289 186.603 238.978 193.873 227.934 195.446C224.504 195.935 219.582 195.524 216.716 197.206C211.543 200.245 210.007 207.602 213.437 215.539C221.84 234.974 243.776 216.869 246.324 213.041C248.219 210.194 251.791 202.924 252.211 201.039Z" fill="#13375B"/>
<path d="M220.617 323.803C220.617 323.803 220.055 329.434 218.607 330.466C217.159 331.499 215.233 335.326 216.197 337.394C216.497 338.039 217.102 338.412 217.787 338.62C218.77 338.908 219.824 338.831 220.754 338.401C221.685 337.972 222.428 337.221 222.847 336.285C223.445 334.93 223.782 333.473 223.839 331.992C224.056 327.418 225.492 325.091 225.492 325.091L220.617 323.803Z" fill="#F7A491"/>
<path d="M242.84 326.107C242.84 326.107 243.296 331.777 242.927 333.635C242.729 334.622 241.626 336.659 242.131 337.587C242.637 338.516 243.216 338.752 243.216 338.752L256.335 338.96C257.044 338.96 256.572 338.518 256 338.102C255.055 337.42 254.297 336.968 251.275 335.534C251.077 335.442 250.364 334.993 250.094 334.84C249.397 334.386 248.765 333.837 248.219 333.209C247.274 332.177 247.194 327.175 247.194 327.175L242.84 326.107Z" fill="#F7A491"/>
<path d="M253.094 250.592C253.094 250.592 254.748 259.807 253.661 265.865C252.575 271.923 247.371 327.962 247.371 327.962L241.585 328.283C241.585 328.283 240.371 304.868 240.589 301.613C240.806 298.357 242.523 292.908 242.523 292.908L241.947 274.007L249.248 249.172L253.094 250.592Z" fill="#355389"/>
<path d="M236.086 248.655C236.086 248.655 231.532 255.398 230.447 260.981C229.363 266.564 231.244 283.717 229.155 291.03C228.026 294.99 223.746 301.105 223.096 306.222C222.447 311.34 219.891 324.741 219.891 324.741L225.673 325.868L239.114 292.396L249.657 262.153L252.357 246.573L236.086 248.655Z" fill="#466EB6"/>
<path d="M239.763 210.282C239.763 210.282 236.312 211.265 233.926 213.826C231.54 216.387 237.233 236.411 237.677 239.667C238.121 242.923 234.122 250.519 234.122 250.519C234.122 250.519 249.03 253.234 253.079 250.597C253.079 250.597 253.513 227.185 253.079 224.857C252.644 222.53 249.03 213.074 248.16 212.144C247.291 211.213 239.763 210.282 239.763 210.282Z" fill="#F7CC7F"/>
<path d="M276.574 211.463C276.574 211.463 276.775 214.816 276.515 215.48C276.255 216.144 275.892 215.716 275.835 215.558C275.599 214.901 275.665 212.777 275.665 212.777L276.574 211.463Z" fill="#F48C7F"/>
<path d="M274.797 213.98C274.797 213.98 274.828 216.045 275.113 216.328C275.3 216.51 275.586 216.456 275.718 216.059C275.85 215.662 275.718 213.101 275.718 213.101L274.797 213.98Z" fill="#F48C7F"/>
<path d="M279.876 211.23L276.662 209.078C276.02 208.649 275.152 208.821 274.722 209.463L274.495 209.803C274.065 210.445 274.238 211.313 274.879 211.743L278.093 213.894C278.735 214.324 279.604 214.152 280.033 213.51L280.26 213.17C280.69 212.528 280.518 211.659 279.876 211.23Z" fill="#184655"/>
<path d="M269.504 223.277C269.355 223.176 269.251 223.02 269.216 222.843C269.181 222.666 269.218 222.482 269.318 222.332L280.059 206.265C280.159 206.115 280.315 206.011 280.493 205.976C280.67 205.941 280.854 205.978 281.004 206.078C281.154 206.179 281.258 206.335 281.293 206.512C281.328 206.69 281.291 206.873 281.19 207.024L270.449 223.09C270.4 223.164 270.336 223.228 270.261 223.278C270.187 223.328 270.103 223.362 270.016 223.379C269.928 223.397 269.837 223.397 269.75 223.379C269.662 223.361 269.579 223.327 269.504 223.277Z" fill="#184655"/>
<path d="M281.58 210.542L276.688 207.267L280.023 202.282C280.21 202.001 280.451 201.76 280.731 201.573C281.012 201.385 281.326 201.255 281.657 201.189C281.988 201.123 282.329 201.123 282.659 201.189C282.99 201.255 283.305 201.385 283.585 201.573L284.209 201.989C284.489 202.176 284.73 202.417 284.918 202.697C285.105 202.978 285.235 203.292 285.301 203.623C285.367 203.954 285.367 204.295 285.301 204.626C285.235 204.956 285.105 205.271 284.917 205.552L281.58 210.542Z" fill="#F7CC7F"/>
<path d="M282.299 210.129L276.586 206.306L275.92 207.301L281.633 211.125L282.299 210.129Z" fill="#184655"/>
<path d="M272.402 212.526C272.402 212.526 272.744 211.626 273.347 211.517C273.949 211.409 274.875 212.153 274.937 212.184C274.998 212.214 276.29 211.947 277.11 211.763C277.184 211.748 277.26 211.751 277.333 211.772C277.405 211.792 277.472 211.83 277.527 211.881C277.582 211.933 277.624 211.997 277.649 212.068C277.674 212.139 277.682 212.215 277.672 212.29C277.661 212.368 277.63 212.442 277.583 212.505C277.536 212.568 277.474 212.618 277.403 212.652C276.458 213.084 272.943 214.627 272.518 213.88C272.029 213.013 272.402 212.526 272.402 212.526Z" fill="#F7A491"/>
<path d="M233.358 214.081C236.391 207.791 253.803 226.424 255.601 227.142C257.399 227.86 268.966 220.704 268.966 220.704C268.966 220.704 269.07 218.369 269.895 217.16C270.719 215.95 273.97 214.561 274.192 215.059C274.414 215.558 273.169 216.633 272.911 216.973C272.77 217.16 272.798 217.093 273.112 217.136C274.024 217.264 275.099 216.151 275.099 216.151C275.188 216.89 275.122 217.64 274.906 218.353C274.689 219.065 274.327 219.725 273.842 220.29C272.189 222.18 271.503 222.941 271.503 222.941C271.503 222.941 258.62 234.729 255.365 234.519C252.334 234.304 229.198 222.7 233.358 214.081Z" fill="#F7A491"/>
<path d="M241.784 202.35C241.784 202.35 241.753 202.525 241.697 202.823C241.427 204.24 240.393 208.98 239.691 210.282C238.846 211.853 242.587 216.867 246.187 216.255C247.257 216.073 245.28 211.647 245.375 211.18C245.557 210.282 245.805 209.053 246.057 207.803C246.199 207.094 246.343 206.386 246.478 205.703C246.863 203.787 247.187 202.218 247.187 202.218L241.784 202.35Z" fill="#F7A491"/>
<path d="M241.696 202.823C241.753 202.525 241.783 202.35 241.783 202.35L247.176 202.218C247.176 202.218 246.862 203.787 246.468 205.703C246.333 206.374 246.191 207.087 246.049 207.791C245.086 207.625 244.192 207.184 243.472 206.523C242.585 205.758 241.913 204.774 241.523 203.668C241.599 203.333 241.656 203.042 241.696 202.823Z" fill="#F47458"/>
<path d="M245.029 189.726C243.526 190.021 242.18 190.847 241.236 192.053C239.643 194.083 237.928 200.351 241.885 203.761C245.842 207.17 249.754 203.312 250.335 199.22C250.916 195.127 250.798 189.568 245.029 189.726Z" fill="#F7A491"/>
<path d="M251.599 197.809C251.127 198.714 250.335 199.215 249.827 198.926C249.32 198.638 249.296 197.677 249.768 196.772C250.241 195.867 251.035 195.368 251.54 195.654C252.046 195.94 252.072 196.906 251.599 197.809Z" fill="#F7A491"/>
<path d="M245.7 189.62C245.7 189.62 242.303 195.581 239.872 195.857C237.442 196.134 237.125 199.302 237.125 199.302C237.125 199.302 237.994 192.001 240.399 190.593C242.804 189.185 245.7 189.62 245.7 189.62Z" fill="#13375B"/>
<path d="M240.668 197.287C240.867 198.348 240.467 199.319 239.78 199.456C239.092 199.593 238.374 198.849 238.176 197.802C237.977 196.755 238.377 195.772 239.064 195.633C239.752 195.493 240.477 196.219 240.668 197.287Z" fill="#F7A491"/>
<path d="M223.234 335.269C220.083 335.836 217.985 334.022 216.894 332.67C216.093 334.209 215.602 336.129 216.185 337.396C216.705 338.509 218.118 338.813 219.311 338.856C219.927 338.88 220.539 338.735 221.08 338.438C221.621 338.141 222.071 337.702 222.381 337.169C222.729 336.566 223.015 335.93 223.234 335.269Z" fill="#3C8F7C"/>
<path d="M250.111 334.837C246.641 335.714 244.076 335.118 242.642 334.549C242.271 335.581 241.782 336.874 242.042 337.62C242.358 338.535 242.812 338.816 243.223 338.825C246.393 338.908 254.831 338.943 257.247 338.977C257.322 338.978 257.396 338.958 257.46 338.919C257.524 338.88 257.575 338.823 257.607 338.755C257.64 338.688 257.652 338.612 257.643 338.538C257.633 338.464 257.603 338.394 257.555 338.336C256.945 337.632 250.369 334.993 250.111 334.837Z" fill="#3C8F7C"/>
<path d="M328.601 251.61C331.116 250.902 331.183 251.341 331.501 251.242C331.879 251.124 334.922 247.088 334.922 247.088C334.922 247.088 343.979 235.258 344.442 234.601L347.298 219.291L355.877 219.225C355.877 219.225 352.294 235.764 351.944 236.576C351.595 237.389 337.242 251.844 336.025 253.158C336.025 253.158 335.239 255.284 334.698 256.615C334.157 257.945 332.997 258.902 332.782 259.247C332.15 260.083 331.408 260.83 330.576 261.468C329.394 262.389 330.013 260.953 330.013 260.953C330.013 260.953 331.856 258.826 331.641 258.71C331.476 258.613 330.547 259.833 329.241 260.868C328.905 261.134 328.575 261.394 328.265 261.633C327.46 262.257 326.775 261.926 327.498 261.134C327.821 260.77 328.173 260.431 328.551 260.123C328.943 259.826 329.191 259.414 329.475 259.117C330.039 258.517 330.462 258.084 330.42 258.072C330.377 258.061 330.382 257.855 330.016 258.127C329.574 258.453 328.82 259.358 328.126 259.781C327.734 260.017 326.945 260.582 326.945 260.582C326.945 260.582 325.575 261.198 325.501 261.13C325.107 260.761 325.891 260.078 326.477 259.818C326.81 259.471 327.182 259.163 327.585 258.899C327.585 258.899 328.983 257.373 328.738 257.16C328.634 257.068 327.649 257.898 326.531 258.552C325.494 259.159 324.327 259.603 324.148 259.412C323.846 259.093 324.909 258.294 324.909 258.294C324.909 258.294 325.688 257.775 325.931 257.586C326.217 257.349 327.009 256.615 327.009 256.615C327.009 256.615 329.628 253.895 329.371 253.711C329.113 253.527 328.31 253.276 328.081 253.387C327.852 253.498 327.564 253.916 327.332 254.025C327.187 254.083 327.028 254.093 326.877 254.054C326.726 254.015 326.592 253.928 326.494 253.808C326.302 253.536 327.157 252.584 327.157 252.584C327.157 252.584 327.878 251.816 328.601 251.61Z" fill="#F48C7F"/>
<path d="M342.621 328.914C342.621 328.914 342.541 334.197 342.543 334.206C342.654 334.877 343.488 336.534 343.488 337.143C343.488 339.435 333.094 335.201 335.416 334.185C335.627 334.093 336.732 333.398 336.801 332.619C336.909 331.418 337.179 328.989 337.179 328.989L342.621 328.914Z" fill="#F7A491"/>
<path d="M335.433 334.164C335.433 334.164 337.876 334.873 339.125 335.04C340.375 335.208 342.026 333.741 342.905 334.138C343.878 334.577 343.779 338.894 343.779 338.894C343.779 338.894 331.29 339.073 327.057 338.832C325.531 338.745 330.432 335.796 335.433 334.164Z" fill="#B75742"/>
<path d="M365.767 328.914C365.767 328.914 366.074 334.197 366.074 334.206C366.187 334.877 366.629 336.534 366.629 337.143C366.629 339.435 356.235 335.201 358.557 334.185C358.767 334.093 360.211 332.881 360.27 332.101C360.376 330.901 360.322 328.989 360.322 328.989L365.767 328.914Z" fill="#F7A491"/>
<path d="M358.586 334.164C358.586 334.164 361.029 334.873 362.278 335.04C363.528 335.208 365.179 333.741 366.058 334.138C367.031 334.577 367.003 338.832 367.003 338.832C367.003 338.832 353.051 338.981 349.65 338.832C348.129 338.764 353.588 335.796 358.586 334.164Z" fill="#B75742"/>
<path d="M349.279 252.671L344.878 254.531L335.625 297.804L336.001 330.246L343.418 330.414C343.418 330.414 346.869 302.038 346.869 299.838C346.869 297.639 362.85 261.352 362.85 261.352L349.279 252.671Z" fill="#355389"/>
<path d="M352.68 255.053C352.68 255.053 355.921 288.396 355.921 294.014C355.921 299.633 358.547 331.09 358.547 331.09L365.984 331.047C365.984 331.047 366.52 321.462 367.316 307.356C367.441 305.147 367.155 300.689 367.316 298.402C368.474 281.952 370.76 266.467 369.678 260.331C369.501 259.341 369.17 256.759 368.528 256.107C363.645 251.173 352.68 255.053 352.68 255.053Z" fill="#466EB6"/>
<path d="M343.602 228.739L352.599 228.149C352.599 228.149 353.043 220.274 353.043 216.517C353.043 211.959 354.461 205.24 353.908 205.365C352.351 205.719 349.656 207.123 348.416 208.826C344.098 214.714 343.602 228.739 343.602 228.739Z" fill="#B75742"/>
<path d="M364.923 205.19C364.923 205.19 370.054 205.899 371.405 206.861C372.924 207.954 374.613 210.405 374.613 210.405C374.613 210.405 368.313 239.565 368.301 244.47C368.301 248.267 369.666 257.588 369.666 257.588C369.666 257.588 350.631 258.769 343.422 255.979C343.422 255.979 345.697 244.893 345.697 241.982C345.697 239.071 348.43 212.597 349.039 210.754C349.604 209.077 350.631 206.062 354.109 205.32C357.586 204.578 364.923 205.19 364.923 205.19Z" fill="#F47458"/>
<path d="M363.52 197.341L364.791 205.483C364.791 205.483 360.151 215.17 357.383 214.339C355.061 213.63 356.49 205.053 356.49 205.053C356.49 205.053 357.756 200.446 357.376 198.14C356.995 195.834 363.52 197.341 363.52 197.341Z" fill="#F7A491"/>
<path d="M357.376 198.14C356.996 195.836 363.518 197.341 363.518 197.341L363.624 198.014C363.458 198.433 363.218 198.818 362.916 199.151C361.458 200.675 359.181 201.592 357.211 201.663C357.405 200.417 357.532 199.087 357.376 198.14Z" fill="#F47458"/>
<path d="M364.588 185.821C364.773 185.754 366.067 195.094 363.613 197.665C361.159 200.235 356.375 201.074 354.66 199.052C352.77 196.812 352.858 186.766 356.673 184.131C360.488 181.497 364.588 185.821 364.588 185.821Z" fill="#F7A491"/>
<path d="M358.132 179.136C360.257 179.574 362.198 180.651 363.695 182.222C365.034 182.376 366.855 183.096 368.736 186.123C371.046 189.847 369.341 193.972 366.65 195.997C363.959 198.022 363.995 200.358 363.995 200.358L363.57 199.161C363.251 198.252 363.137 197.284 363.234 196.325C363.284 195.734 363.431 195.156 363.669 194.612C364.316 193.261 362.277 192.363 361.706 191.238C361.266 190.371 361.233 188.403 360.553 186.959L359.724 185.868C359.724 185.868 357.815 184.422 355.944 184.828C354.073 185.235 354.338 178.385 358.132 179.136Z" fill="#184655"/>
<path d="M361.829 192.876C361.807 194.015 362.341 194.948 363.01 194.96C363.678 194.971 364.25 194.057 364.269 192.916C364.288 191.775 363.756 190.844 363.088 190.834C362.419 190.825 361.848 191.737 361.829 192.876Z" fill="#F7A491"/>
<path d="M372.693 208.947C370.966 208.897 369.44 220.052 370.534 221.148C371.627 222.244 371.838 235.984 371.838 235.984L355.552 235.587C355.236 235.379 351.822 233.134 351.336 232.643C350.849 232.151 348.338 232.385 347.679 233.094C347.02 233.803 349.141 233.222 349.727 233.609C350.313 233.996 349.288 234.958 349.288 234.958C349.288 234.958 345.161 235.546 344.358 234.71C343.555 233.874 341.403 232.458 341.11 233.292C340.958 233.722 342.069 235.031 342.692 235.58C341.913 235.008 340.98 234.398 340.661 234.507C340.075 234.698 340.318 235.428 340.635 235.643C340.951 235.858 344.228 238.306 344.74 238.479C345.253 238.651 352.862 238.831 354.177 239.116C354.177 239.116 375.653 243.906 376.874 243.606C377.946 243.343 379.016 236.612 379.016 231.457C379.016 226.301 378.088 209.101 372.693 208.947Z" fill="#F7A491"/>
<path d="M370.459 206.402C370.459 206.402 373.463 207.08 376.567 210.494C379.388 213.599 381.167 230.991 381.167 230.991L371.422 232.534L370.645 224.122L368.047 220.274L370.459 206.402Z" fill="#F47458"/>
<path d="M520.399 336.541C520.399 336.541 522.192 338.313 522.232 338.962C522.272 339.612 522.39 346.577 521.658 347.232C520.926 347.886 518.781 348.342 519.471 349.075C519.993 349.628 524.009 349.51 526.668 349.361C527.446 349.318 528.419 343.033 528.728 342.11C529.175 340.77 530.783 337.857 530.382 336.912C530.183 336.458 528.714 335.418 527.379 334.549C525.976 333.627 524.635 331.581 524.635 331.581L520.399 336.541Z" fill="#F7A491"/>
<path d="M496.445 340.893C496.445 340.893 498.047 345.483 498.049 345.495C498.169 346.223 498.637 348.019 498.637 348.68C498.637 351.163 487.589 346.573 490.065 345.472C490.289 345.372 490.993 344.576 491.066 343.73C491.18 342.428 490.136 340.793 490.136 340.793L496.445 340.893Z" fill="#F7A491"/>
<path d="M481.195 253.732L477.193 264.093C477.193 264.093 474.595 288.823 476.104 303.626C476.74 309.818 490.5 342.96 490.5 342.96L497.334 341.982L488.18 302.737L491.548 287.727L496.315 258.063L481.195 253.732Z" fill="#3C8F7C"/>
<path d="M500.043 254.271L503.476 265.81L508.696 300.634L526.349 333.211C526.349 333.211 523.694 337.29 520.845 337.937L495.789 305.012L482.211 263.792L482.683 254.635L500.043 254.271Z" fill="#50BFA5"/>
<path d="M527.298 334.502C527.298 334.502 523.518 346.058 521.91 346.625C521.482 346.776 519.075 347.388 518.678 348.312C518.668 348.339 518.66 348.366 518.655 348.394C518.631 348.534 518.638 348.677 518.675 348.813C518.713 348.95 518.78 349.076 518.872 349.183C518.964 349.291 519.079 349.377 519.208 349.435C519.337 349.493 519.477 349.522 519.618 349.519H527.284C527.284 349.519 528.373 344.321 528.803 342.046C528.803 342.046 531.08 336.472 530.827 335.964C530.574 335.456 527.298 334.502 527.298 334.502Z" fill="#355389"/>
<path d="M499.263 349.5L498.03 345.448C498.03 345.448 495.341 346.587 494.014 346.393C492.686 346.2 490.092 345.448 490.092 345.448C484.789 347.218 480.443 348.076 481.234 349.5H499.265H499.263Z" fill="#355389"/>
<path d="M503.586 189.166C503.791 189.095 505.228 199.463 502.502 202.315C499.776 205.166 494.47 206.095 492.561 203.855C490.457 201.37 490.561 190.227 494.798 187.292C499.036 184.358 503.586 189.166 503.586 189.166Z" fill="#F7A491"/>
<path d="M496.409 181.745C498.768 182.232 500.922 183.427 502.584 185.171C504.072 185.343 506.092 186.142 508.18 189.504C510.746 193.636 508.851 198.218 505.863 200.465C502.875 202.712 502.917 205.294 502.917 205.294L502.445 203.964C502.089 202.95 501.962 201.871 502.072 200.803C502.125 200.151 502.285 199.513 502.544 198.912C503.264 197.412 501.001 196.415 500.368 195.168C499.879 194.206 499.856 192.006 499.086 190.416L498.167 189.204C498.167 189.204 496.041 187.6 493.974 188.051C491.907 188.502 492.207 180.913 496.409 181.745Z" fill="#13375B"/>
<path d="M500.516 196.999C500.493 198.265 501.086 199.3 501.834 199.314C502.583 199.328 503.212 198.31 503.233 197.046C503.254 195.782 502.664 194.745 501.915 194.733C501.166 194.721 500.538 195.735 500.516 196.999Z" fill="#F7A491"/>
<path d="M503.629 205.639C503.629 205.639 509.185 245.548 506.643 248.52L502.974 250.613C502.974 250.613 501.992 211.985 501.25 206.988L503.629 205.639Z" fill="#13375B"/>
<path d="M472.656 222.138C474.017 223.289 471.947 227.901 470.594 230.407C473.402 230.407 477.444 228.881 479.849 227.572C479.421 224.708 479.015 221.339 477.04 219.277C475.949 220.217 473.861 221.602 472.656 222.138Z" fill="#F48C7F"/>
<path d="M489.488 209.228C489.488 209.228 488.35 208.552 486.417 208.666C484.677 208.767 480.245 213.972 475.391 218.117C477.365 220.179 479.43 227.057 479.858 229.93C483.493 227.96 486.836 223.851 487.681 222.584C489.607 219.683 489.488 209.228 489.488 209.228Z" fill="#F47458"/>
<path d="M489.485 209.228C489.485 209.228 492.096 207.943 502.844 209.259C503.389 209.325 504.405 221.767 504.405 221.767C504.405 221.767 503.17 255.318 504.278 260.539C504.278 260.539 484.588 265.383 475.383 261.047C475.383 261.047 479.855 235.475 480.951 230.046C482.304 223.333 483.471 219.789 484.945 215.766C485.879 213.236 487.442 210.986 489.485 209.228Z" fill="#F7CC7F"/>
<path d="M501.25 210.49C501.25 210.49 503.346 207.55 506.877 209.561C511.984 212.472 506.915 232.661 505.063 238.859C504.248 241.59 501.121 239.069 498.558 236.153C495.302 232.446 492.371 224.916 492.371 224.916C491.988 222.516 494.877 218.275 494.877 218.275C494.877 218.275 499.571 227.962 500.568 226.967C501.565 225.972 499.089 214.806 501.25 210.49Z" fill="#F7A491"/>
<path d="M506.876 209.573C503.332 207.562 501.249 210.502 501.249 210.502C499.227 214.537 499.919 223.712 499.203 225.703C501.929 225.677 506.07 227.343 508.737 228.139C510.431 220.983 510.239 211.475 506.876 209.573Z" fill="#FAE0B2"/>
<path d="M485.647 206.138C485.498 206.775 483.8 208.973 483.452 210.473C483.105 211.973 482.238 213.665 480.84 216.366C479.441 219.066 474.556 228.888 472.655 229.897C470.753 230.906 462.925 231.095 467.907 223.801C468.922 222.313 478.551 212.536 478.863 211.208C479.174 209.88 478.933 208.97 478.77 207.477C478.607 205.984 479.441 203.952 480.022 203.846C480.603 203.739 479.375 205.618 479.536 205.842C479.696 206.067 480.785 202.957 481.692 202.636C482.6 202.315 480.646 205.112 480.511 205.66C480.377 206.208 480.211 206.582 480.455 206.636C480.698 206.69 481.107 205.218 481.607 204.401C482.108 203.583 482.94 202.397 483.585 202.827C484.23 203.257 482.318 204.42 482.167 205.022C482.016 205.625 481.548 206.764 481.827 206.941C482.106 207.118 483.393 203.064 484.189 203.08C484.985 203.097 484.265 204.124 483.795 205.044C483.325 205.963 482.803 207.465 483.188 207.555C483.573 207.645 483.989 207.319 484.693 206.598C485.396 205.878 485.796 205.5 485.647 206.138Z" fill="#F48C7F"/>
<path d="M505.923 210.211C506.587 210.363 507.285 210.247 507.863 209.887C508.441 209.527 508.854 208.953 509.011 208.29L510.244 203.002C510.396 202.338 510.28 201.64 509.92 201.061C509.561 200.482 508.987 200.069 508.323 199.912C507.66 199.759 506.962 199.876 506.384 200.236C505.805 200.596 505.393 201.17 505.236 201.833L504.003 207.12C503.85 207.785 503.967 208.483 504.327 209.061C504.686 209.64 505.26 210.054 505.923 210.211Z" fill="#13375B"/>
<path d="M497.804 205.93L506.225 207.893C506.906 208.05 507.622 207.93 508.216 207.56C508.809 207.191 509.232 206.601 509.393 205.92L510.595 200.765C510.752 200.083 510.632 199.368 510.263 198.774C509.894 198.18 509.305 197.757 508.625 197.596L500.204 195.633C499.522 195.476 498.806 195.595 498.212 195.964C497.619 196.334 497.195 196.923 497.033 197.603L495.833 202.759C495.676 203.44 495.795 204.157 496.164 204.751C496.533 205.345 497.123 205.769 497.804 205.93Z" fill="#13375B"/>
<path d="M496.684 193.877C494.885 193.302 493.031 192.914 491.152 192.72C489.963 192.607 488.766 192.607 487.578 192.72C485.783 192.886 484.001 193.166 482.241 193.558C481.732 193.65 481.234 193.793 480.753 193.984C479.598 194.511 478.169 195.898 477.508 197.984C476.846 200.07 475.7 206.395 476.78 207.472C477.859 208.55 482.171 210.461 483.597 210.882C485.024 211.302 490.958 211.38 490.958 211.38C490.958 211.38 491.863 209.183 494.265 209.892C496.668 210.601 496.776 211.912 496.776 211.912C496.776 211.912 500.234 212.262 502.013 212.118C503.792 211.973 505.299 211.262 505.644 210.175C506.588 207.123 507.36 204.02 507.957 200.88C508.075 200.292 508.193 199.652 507.874 199.101C507.468 198.393 506.542 198.095 505.795 197.75C504.784 197.277 503.785 196.805 502.776 196.332C500.802 195.38 498.767 194.56 496.684 193.877Z" fill="#355389"/>
<path d="M502.104 204.101L501.313 203.865C501.218 203.844 501.135 203.787 501.082 203.705C501.029 203.624 501.011 203.525 501.032 203.43L502.144 199.926C502.181 199.833 502.252 199.759 502.343 199.717C502.434 199.676 502.537 199.671 502.631 199.704L503.422 199.94C503.47 199.951 503.515 199.971 503.554 199.999C503.594 200.027 503.627 200.063 503.653 200.104C503.679 200.146 503.696 200.192 503.703 200.24C503.71 200.288 503.708 200.337 503.696 200.384L502.584 203.891C502.545 203.98 502.474 204.051 502.385 204.09C502.296 204.129 502.196 204.133 502.104 204.101Z" fill="#184655"/>
<path d="M503.838 203.543L504.854 203.843L503.758 207.298L502.688 207.163L503.838 203.543Z" fill="#184655"/>
<path d="M476.97 198.194L479.947 198.565C479.947 198.565 483.147 199.555 483.062 202.282C482.966 205.372 481.645 207.196 480.171 207.309C478.971 207.356 477.77 207.307 476.578 207.163L476.97 198.194Z" fill="#184655"/>
<path d="M486.26 194.376C488.752 193.239 497.157 194.525 499.619 194.936C498.99 194.681 498.355 194.44 497.715 194.227C493.876 193.665 488.105 193.072 486.033 194.017C483.14 195.335 481.356 197.388 480.567 199.876C480.047 201.507 479.074 206.211 478.578 208.673L479.003 208.909C479.49 206.494 480.487 201.662 481.009 200.016C481.805 197.492 483.572 195.6 486.26 194.376Z" fill="#184655"/>
<path d="M489.325 196.25C492.108 194.983 503.137 196.829 504.271 197.022C503.82 196.81 503.371 196.595 502.917 196.384C498.998 195.768 491.43 194.82 489.098 195.883C486.205 197.202 484.421 199.255 483.632 201.741C483.141 203.293 482.234 207.629 481.719 210.166L482.156 210.346C482.664 207.829 483.573 203.428 484.076 201.873C484.872 199.366 486.637 197.476 489.325 196.25Z" fill="#184655"/>
<path d="M485.993 207.683C487.204 204.054 488.355 198.248 492.078 197.899C493.075 197.863 494.073 197.906 495.064 198.026L493.219 204.122C492.883 205.244 493.901 206.386 495.224 206.36L497.334 206.317C497.713 206.327 498.086 206.214 498.397 205.995C498.708 205.777 498.939 205.464 499.058 205.103L500.83 198.74C502.268 198.943 503.686 199.156 504.924 199.349L502.089 208.295L502.531 208.427L505.391 199.42C506.516 199.595 507.458 199.749 508.087 199.853C508.083 199.709 508.062 199.566 508.025 199.427C504.789 198.896 494.497 197.256 492.012 197.49C488.86 197.785 487.476 201.507 486.607 204.24L485.438 207.895L485.629 207.973C485.629 207.973 486.746 208.446 487.07 209.226C487.143 209.41 487.17 209.61 487.148 209.808C487.127 210.005 487.058 210.195 486.947 210.36C486.771 210.669 486.551 210.952 486.295 211.198C486.489 211.213 486.685 211.222 486.881 211.234C487.059 211.027 487.218 210.803 487.353 210.565C488.036 209.405 487.327 208.342 485.993 207.683ZM500.367 198.674L498.612 204.985C498.521 205.259 498.344 205.497 498.107 205.663C497.871 205.83 497.587 205.915 497.298 205.908L495.189 205.951C494.187 205.97 493.41 205.103 493.665 204.247L495.534 198.074C496.979 198.232 498.666 198.445 500.367 198.678V198.674Z" fill="#184655"/>
<path d="M506.259 208.481C503.294 208.375 491.849 208.056 490.56 209.426C490.054 209.973 489.695 210.639 489.516 211.361C490.418 211.387 491.049 211.397 491.049 211.397C491.049 211.397 491.956 209.2 494.356 209.911C496.756 210.622 496.867 211.929 496.867 211.929C496.867 211.929 500.325 212.278 502.104 212.134C503.883 211.99 505.392 211.279 505.735 210.194C505.924 209.62 506.094 209.051 506.259 208.481Z" fill="#13375B"/>
<path d="M507.959 200.871C507.387 203.553 506.452 207.605 505.554 210.194C505.067 211.47 503.133 212.009 501.6 212.049C500.804 212.049 499.776 211.957 497.09 211.697C496.901 210.811 495.791 209.642 493.523 209.483C492.25 209.393 491.213 210.405 490.873 211.137C489.493 211.118 485.024 211.017 483.734 210.603C482.615 210.244 480.009 209.436 478.301 208.496C477.752 208.21 477.237 207.864 476.766 207.463C477.696 208.385 480.403 209.649 481.651 210.187C483.106 210.816 483.602 210.958 484.112 211.043C486.023 211.336 489.141 211.411 491.008 211.451C491.068 211.307 491.142 211.168 491.23 211.038C491.537 210.546 491.998 210.169 492.541 209.965C493.802 209.464 496.193 210.483 496.625 211.714C496.657 211.799 496.675 211.889 496.679 211.981C497.06 212.004 499.119 212.24 501.283 212.217C501.706 212.198 503.298 212.349 504.569 211.699C505.175 211.386 505.633 210.846 505.845 210.197C506.492 208.122 507.168 205.084 507.959 200.871Z" fill="#184655"/>
<path d="M489.984 198.648C489.337 198.459 488.959 197.842 489.138 197.275L490.752 192.195C491.064 191.217 492.124 190.624 493.275 190.778C494.864 191 497.791 191.415 499.523 191.723C500.127 191.819 500.699 192.059 501.193 192.421C501.686 192.784 502.085 193.259 502.357 193.807L503.123 195.46C503.383 196.025 503.569 197.114 502.471 196.85C501.835 196.701 501.139 196.758 500.879 196.193L500.111 194.539C500.021 194.357 499.887 194.199 499.723 194.08C499.558 193.961 499.367 193.883 499.166 193.854C497.494 193.566 494.652 193.161 493.064 192.939L491.468 197.967C491.302 198.534 490.631 198.839 489.984 198.648Z" fill="#184655"/>
<path d="M475.693 190.274C475.693 190.274 477.776 190.983 478.277 191.791C478.778 192.599 478.343 192.365 478.965 193.372C479.586 194.378 491.052 198.13 492.592 197.939C494.133 197.747 494.192 196.084 495.129 196.006C496.067 195.928 499.854 197.098 499.407 199.836C498.961 202.574 497.683 202.636 495.03 203.012C492.573 203.357 476.229 196.762 475.221 195.687C474.212 194.612 475.284 193.197 475.376 192.904C475.469 192.611 474.195 191.512 474.195 191.512L475.693 190.274Z" fill="#13375B"/>
<path d="M474.097 192.883C472.757 193.22 471.245 192.788 469.908 192.471C467.543 191.895 465.238 191.091 463.027 190.071C461.709 189.473 461.258 187.621 461.872 186.551C462.157 186.064 462.597 185.686 463.122 185.478C463.76 185.247 464.449 185.194 465.115 185.324C466.882 185.566 468.626 185.952 470.329 186.48C471.671 186.875 472.985 187.364 474.26 187.942C475.311 188.441 476.289 189.296 476.322 190.402C476.357 191.583 475.429 192.497 474.231 192.847L474.097 192.883Z" fill="#184655"/>
<path d="M465.754 185.967C467.509 187.002 466.269 189.955 464.852 190.35C465.574 189.948 466.016 189.036 466.245 188.299C466.505 187.47 466.448 186.626 465.754 185.967Z" fill="#13375B"/>
<path d="M463.539 194.149L476.935 197.27C476.935 197.27 481.301 198.572 480.365 202.638C479.43 206.705 476.517 207.52 476.517 207.52L467.451 207.163L463.539 194.149Z" fill="#13375B"/>
<path d="M459.852 190.643L463.967 190.919L476.271 196.847L473.919 206.861L472.733 207.579L468.863 208.042L459.852 190.643Z" fill="#466EB6"/>
<path d="M464.648 191.021L475.781 195.316C476.127 195.445 476.414 195.696 476.589 196.022C476.763 196.348 476.811 196.727 476.726 197.086L474.442 206.414C474.387 206.627 474.288 206.827 474.15 206.999C474.012 207.171 473.84 207.312 473.644 207.412C473.447 207.512 473.232 207.569 473.012 207.579C472.792 207.59 472.572 207.554 472.368 207.473L460.32 202.804L462.576 192.127C462.626 191.91 462.721 191.706 462.857 191.529C462.992 191.352 463.163 191.206 463.36 191.101C463.556 190.996 463.773 190.935 463.995 190.921C464.217 190.907 464.44 190.941 464.648 191.021Z" fill="#466EB6"/>
<path d="M460.579 190.735L471.682 195.116C472.033 195.259 472.32 195.526 472.489 195.866C472.658 196.206 472.698 196.596 472.601 196.963L470.196 206.799C470.146 207.019 470.051 207.227 469.915 207.407C469.779 207.587 469.606 207.736 469.408 207.844C469.209 207.951 468.991 208.016 468.765 208.032C468.54 208.048 468.314 208.016 468.103 207.938L457.305 203.666C456.958 203.525 456.672 203.264 456.499 202.931C456.326 202.599 456.276 202.215 456.36 201.849L458.47 191.926C458.513 191.699 458.604 191.485 458.739 191.297C458.873 191.11 459.047 190.954 459.248 190.84C459.449 190.727 459.672 190.659 459.902 190.641C460.132 190.622 460.363 190.655 460.579 190.735Z" fill="#355389"/>
<path d="M461.013 191.73L470.842 195.602C471.153 195.73 471.406 195.966 471.556 196.267C471.705 196.568 471.74 196.913 471.655 197.237L469.529 205.937C469.486 206.132 469.401 206.315 469.281 206.475C469.161 206.634 469.009 206.766 468.833 206.862C468.658 206.957 468.464 207.014 468.265 207.029C468.066 207.043 467.867 207.015 467.679 206.946L458.467 203.302C458.062 203.134 457.73 202.829 457.528 202.44C457.327 202.051 457.27 201.603 457.366 201.176L459.149 192.791C459.187 192.59 459.267 192.4 459.386 192.233C459.504 192.067 459.657 191.928 459.835 191.827C460.012 191.726 460.21 191.665 460.413 191.648C460.617 191.631 460.821 191.659 461.013 191.73Z" fill="#184655"/>
<path d="M470.842 195.602L462.213 192.202C462.198 192.25 462.185 192.299 462.175 192.349L460.382 200.772C460.286 201.191 460.341 201.63 460.538 202.012C460.736 202.394 461.062 202.694 461.459 202.858L469.491 206.038C469.503 206.005 469.512 205.971 469.519 205.937L471.645 197.237C471.731 196.914 471.697 196.57 471.55 196.269C471.402 195.969 471.151 195.732 470.842 195.602Z" fill="#13375B"/>
<path d="M470.842 195.602L466.427 193.863C466.001 194.492 465.692 195.193 465.512 195.931C464.702 199.238 466.639 202.546 469.84 203.291C469.946 203.317 470.053 203.338 470.159 203.357L471.654 197.237C471.74 196.912 471.704 196.568 471.555 196.267C471.405 195.966 471.152 195.73 470.842 195.602Z" fill="#184655"/>
<path d="M489.337 203.458C489.148 204.266 489.592 207.685 489.403 209.601C488.524 218.511 495.309 231.496 496.896 233.713C498.484 235.929 500.973 229.739 500.69 227.473C500.406 225.207 493.811 214.686 494.203 213.006C494.595 211.326 495.37 210.426 496.393 208.822C497.416 207.217 497.602 204.446 497.005 203.999C496.407 203.553 496.747 206.362 496.44 206.539C496.133 206.716 496.636 202.565 495.786 201.693C494.935 200.821 495.597 205.084 495.427 205.792C495.257 206.501 495.252 207.005 494.954 206.931C494.657 206.858 495.009 204.958 494.898 203.751C494.787 202.544 494.508 200.729 493.532 200.857C492.557 200.984 494.083 203.371 493.903 204.134C493.724 204.897 493.631 206.459 493.216 206.497C492.8 206.534 493.608 201.221 492.708 200.798C491.808 200.375 492.035 201.941 492.056 203.245C492.077 204.55 491.82 206.553 491.347 206.438C490.875 206.322 490.565 205.729 490.166 204.51C489.767 203.29 489.524 202.652 489.337 203.458Z" fill="#F7A491"/>
<path d="M483.989 212.538C483.989 212.538 498.781 248.52 506.645 248.52L503.338 252.376C503.338 252.376 496.334 251.648 488.595 233.408C480.856 215.168 481.423 212.918 481.423 212.918L483.989 212.538Z" fill="#184655"/>
<path d="M110.86 286.453H97.2109V313.341H110.86V286.453Z" fill="#F47458"/>
<path d="M32.7154 350.216C47.6246 350.216 59.7109 338.127 59.7109 323.215C59.7109 308.303 47.6246 296.214 32.7154 296.214C17.8062 296.214 5.71983 308.303 5.71983 323.215C5.71983 338.127 17.8062 350.216 32.7154 350.216Z" fill="#B75742"/>
<path d="M16.8004 285.317C16.8665 283.219 15.7091 261.69 20.9201 245.387C22.9926 238.786 26.6477 232.793 31.5667 227.929C36.0053 223.489 41.9156 219.161 47.9251 217.247C59.2402 213.642 72.1403 214.799 83.2995 219.048C88.5555 221.046 94.1657 225.576 97.7351 229.975C102.535 235.802 105.717 245.198 107.106 252.683C109.53 265.695 108.845 279.928 108.507 293.936H102.174C101.035 276.521 102.899 254.644 94.8508 238.604L94.5484 238.015C94.1917 237.6 89.9067 227.147 76.064 222.15C58.6048 216.243 40.6636 224.813 34.6518 240.678C29.169 254.743 29.6911 271.231 29.6911 285.315L16.8004 285.317Z" fill="#F47458"/>
<path d="M33.6882 274.656H14.4219V302.449H33.6882V274.656Z" fill="#F47458"/>
<path d="M33.6844 290.614C32.2715 290.335 30.8347 290.195 29.3946 290.196H19.4354C17.7426 290.194 16.0551 290.387 14.4062 290.77V302.446H33.6749L33.6844 290.614Z" fill="#B75742"/>
<path d="M49.7109 325.355V321.079C49.7109 307.348 38.5823 296.216 24.8544 296.216C11.1265 296.216 -0.00214386 307.348 -0.00214386 321.079V325.355C-0.00214386 339.087 11.1265 350.218 24.8544 350.218C38.5823 350.218 49.7109 339.087 49.7109 325.355Z" fill="#F47458"/>
<path d="M7.77344 320.923C7.77344 319.121 8.1285 317.336 8.81834 315.671C9.50818 314.006 10.5193 312.494 11.7938 311.22C13.0684 309.946 14.5815 308.935 16.2465 308.247C17.9116 307.558 19.6961 307.204 21.498 307.205C25.133 307.209 28.6178 308.656 31.1869 311.228C33.7559 313.8 35.1989 317.287 35.1989 320.923C35.1995 324.559 33.7567 328.046 31.1876 330.619C28.6184 333.191 25.1332 334.638 21.498 334.641C19.696 334.643 17.9114 334.289 16.2462 333.6C14.581 332.911 13.0678 331.901 11.7931 330.627C10.5185 329.353 9.50744 327.84 8.81771 326.175C8.12798 324.51 7.77313 322.725 7.77344 320.923Z" fill="#B75742"/>
<path d="M2.69531 320.923C2.69531 317.285 4.14029 313.796 6.71237 311.223C9.28445 308.65 12.7729 307.205 16.4104 307.205C20.0477 307.206 23.5358 308.651 26.1078 311.224C28.6797 313.796 30.1249 317.285 30.1255 320.923C30.1255 324.561 28.6805 328.05 26.1084 330.623C23.5364 333.196 20.0479 334.641 16.4104 334.641C14.6092 334.641 12.8256 334.287 11.1615 333.597C9.49737 332.908 7.98531 331.898 6.71168 330.624C5.43805 329.35 4.42782 327.837 3.73868 326.173C3.04954 324.509 2.695 322.725 2.69531 320.923Z" fill="#F47458"/>
<path d="M112.078 293.192H111.641H95.6719V308.807H112.085L112.078 293.192Z" fill="#B75742"/>
<path d="M129.117 326.104V320.325C129.117 307.306 118.565 296.752 105.549 296.752H98.9326C85.9164 296.752 75.3647 307.306 75.3647 320.325V326.104C75.3647 339.123 85.9164 349.677 98.9326 349.677H105.549C118.565 349.677 129.117 339.123 129.117 326.104Z" fill="#F47458"/>
<path d="M122.375 326.09V321.176C122.375 311.268 114.345 303.236 104.439 303.236H100.042C90.1365 303.236 82.1061 311.268 82.1061 321.176V326.09C82.1061 335.998 90.1365 344.031 100.042 344.031H104.439C114.345 344.031 122.375 335.998 122.375 326.09Z" fill="#B75742"/>
<path d="M97.4467 318.064C97.2336 318.064 97.0251 318.127 96.8476 318.245C96.6702 318.363 96.5318 318.531 96.4499 318.728C96.368 318.924 96.3463 319.141 96.3876 319.35C96.4289 319.559 96.5313 319.752 96.6818 319.903C96.8324 320.053 97.0243 320.156 97.2333 320.198C97.4424 320.24 97.6591 320.219 97.856 320.137C98.053 320.056 98.2214 319.918 98.3398 319.74C98.4583 319.563 98.5215 319.355 98.5215 319.142C98.5215 318.856 98.4084 318.583 98.2069 318.381C98.0054 318.179 97.732 318.065 97.4467 318.064Z" fill="#F47458"/>
<path d="M102.236 318.064C102.023 318.064 101.814 318.127 101.637 318.245C101.459 318.363 101.321 318.531 101.239 318.728C101.157 318.924 101.135 319.141 101.177 319.35C101.218 319.559 101.32 319.752 101.471 319.903C101.621 320.053 101.813 320.156 102.022 320.198C102.231 320.24 102.448 320.219 102.645 320.137C102.842 320.056 103.01 319.918 103.129 319.74C103.247 319.563 103.311 319.355 103.311 319.142C103.311 319 103.283 318.86 103.229 318.729C103.176 318.599 103.096 318.48 102.997 318.38C102.897 318.28 102.778 318.2 102.648 318.146C102.517 318.092 102.377 318.064 102.236 318.064Z" fill="#F47458"/>
<path d="M107.03 318.064C106.817 318.064 106.609 318.127 106.432 318.246C106.255 318.364 106.117 318.532 106.035 318.729C105.954 318.926 105.932 319.143 105.974 319.352C106.015 319.561 106.118 319.753 106.269 319.903C106.419 320.054 106.611 320.157 106.82 320.198C107.029 320.24 107.246 320.219 107.443 320.137C107.639 320.055 107.808 319.917 107.926 319.74C108.044 319.563 108.107 319.355 108.107 319.142C108.107 318.856 107.994 318.582 107.792 318.38C107.59 318.178 107.316 318.064 107.03 318.064Z" fill="#F47458"/>
<path d="M97.4467 321.97C97.2335 321.969 97.0249 322.032 96.8474 322.15C96.6699 322.269 96.5315 322.437 96.4496 322.634C96.3678 322.831 96.3463 323.048 96.3878 323.257C96.4293 323.466 96.5319 323.658 96.6827 323.809C96.8335 323.96 97.0256 324.062 97.2348 324.104C97.444 324.145 97.6608 324.124 97.8577 324.042C98.0546 323.96 98.2228 323.822 98.341 323.644C98.4592 323.467 98.522 323.258 98.5215 323.045C98.5209 322.76 98.4075 322.487 98.206 322.285C98.0046 322.084 97.7316 321.97 97.4467 321.97Z" fill="#F47458"/>
<path d="M102.236 321.97C102.023 321.969 101.814 322.032 101.636 322.15C101.459 322.269 101.321 322.437 101.239 322.634C101.157 322.831 101.135 323.048 101.177 323.257C101.218 323.466 101.321 323.658 101.472 323.809C101.623 323.96 101.815 324.062 102.024 324.104C102.233 324.145 102.45 324.124 102.647 324.042C102.844 323.96 103.012 323.822 103.13 323.644C103.248 323.467 103.311 323.258 103.311 323.045C103.311 322.76 103.197 322.486 102.996 322.285C102.794 322.083 102.521 321.97 102.236 321.97Z" fill="#F47458"/>
<path d="M107.03 321.97C106.817 321.97 106.609 322.033 106.432 322.151C106.254 322.27 106.116 322.438 106.035 322.635C105.953 322.832 105.932 323.049 105.974 323.258C106.016 323.467 106.119 323.659 106.269 323.81C106.42 323.96 106.612 324.063 106.822 324.104C107.031 324.145 107.247 324.124 107.444 324.042C107.641 323.96 107.809 323.821 107.927 323.644C108.045 323.467 108.108 323.258 108.107 323.045C108.107 322.903 108.08 322.763 108.025 322.633C107.971 322.502 107.892 322.384 107.792 322.284C107.692 322.184 107.573 322.105 107.442 322.051C107.312 321.997 107.172 321.969 107.03 321.97Z" fill="#F47458"/>
<path d="M97.4467 325.873C97.2336 325.873 97.0251 325.935 96.8476 326.053C96.6702 326.172 96.5318 326.34 96.4499 326.536C96.368 326.733 96.3463 326.95 96.3876 327.159C96.4289 327.368 96.5313 327.561 96.6818 327.711C96.8324 327.862 97.0243 327.965 97.2333 328.007C97.4424 328.049 97.6591 328.028 97.856 327.946C98.053 327.865 98.2214 327.727 98.3398 327.549C98.4583 327.372 98.5215 327.164 98.5215 326.95C98.5215 326.665 98.4084 326.391 98.2069 326.189C98.0054 325.987 97.732 325.874 97.4467 325.873Z" fill="#F47458"/>
<path d="M102.236 325.873C102.023 325.873 101.814 325.935 101.637 326.053C101.459 326.172 101.321 326.34 101.239 326.536C101.157 326.733 101.135 326.95 101.177 327.159C101.218 327.368 101.32 327.561 101.471 327.711C101.621 327.862 101.813 327.965 102.022 328.007C102.231 328.049 102.448 328.028 102.645 327.946C102.842 327.865 103.01 327.727 103.129 327.549C103.247 327.372 103.311 327.164 103.311 326.95C103.311 326.809 103.283 326.669 103.229 326.538C103.176 326.408 103.096 326.289 102.997 326.189C102.897 326.089 102.778 326.009 102.648 325.955C102.517 325.901 102.377 325.873 102.236 325.873Z" fill="#F47458"/>
<path d="M107.036 328.025C107.629 328.025 108.111 327.544 108.111 326.95C108.111 326.357 107.629 325.875 107.036 325.875C106.442 325.875 105.961 326.357 105.961 326.95C105.961 327.544 106.442 328.025 107.036 328.025Z" fill="#F47458"/>
<path d="M316.364 200.743C315.142 200.743 313.971 200.258 313.107 199.394C312.243 198.53 311.758 197.358 311.758 196.136V178.085C311.758 177.004 312.187 175.967 312.951 175.203C313.715 174.439 314.752 174.009 315.833 174.009H316.898C317.979 174.009 319.015 174.439 319.779 175.203C320.544 175.967 320.973 177.004 320.973 178.085V196.136C320.972 197.358 320.486 198.53 319.622 199.394C318.758 200.258 317.586 200.743 316.364 200.743Z" fill="#9BC1F9"/>
<path d="M311.758 194.553V196.814C311.758 198.986 313.82 200.744 316.364 200.744C318.908 200.744 320.973 198.986 320.973 196.814V194.553H311.758Z" fill="#13375B"/>
<path d="M320.973 191.491H311.758V193.672H320.973V191.491Z" fill="#13375B"/>
<path d="M146.387 57.0878C146.387 57.0878 146.021 56.2089 146.096 55.9632C146.172 55.7175 146.793 54.822 147.192 54.9968C147.447 55.1102 147.24 56.2609 147.24 56.2609L148.078 57.1375L146.876 57.8156L146.387 57.0878Z" fill="#F7A491"/>
<path d="M148.359 54.7843C148.359 54.7843 149.592 58.1252 150.44 58.2953L151.286 58.4678L151.959 58.2953C152.32 58.4011 152.694 58.4591 153.07 58.4678H153.622C153.622 58.4678 155.767 57.4234 155.408 56.3413C155.049 55.2592 151.997 54.0329 150.781 54.2432L149.564 54.4511L148.359 54.7843Z" fill="#F7A491"/>
<path d="M236.288 96.9017C237.415 95.7742 237.415 93.9461 236.288 92.8185C235.16 91.691 233.333 91.691 232.205 92.8185C231.078 93.9461 231.078 95.7742 232.205 96.9017C233.333 98.0292 235.16 98.0292 236.288 96.9017Z" fill="#13375B"/>
<path d="M226.624 84.1049L225.297 85.293L234.493 95.5691L235.82 94.381L226.624 84.1049Z" fill="#13375B"/>
<path d="M6.85739 350C5.83099 350 5 350.448 5 351C5 351.552 5.83099 352 6.85739 352H596.066C597.131 352 597.995 351.56 598 351.015V350.994C598 350.446 597.138 350 596.066 350H6.85739Z" fill="#184655"/>
</svg>
