<svg width="70" height="68" viewBox="0 0 70 68" fill="none" xmlns="http://www.w3.org/2000/svg">
<path d="M46.4744 32.1507V14.55H25.7056V32.1507H31.6311V27.6919C31.6404 26.4709 32.1336 25.3035 33.0025 24.4456C33.8714 23.5877 35.045 23.1095 36.266 23.1157C36.8726 23.1031 37.4756 23.2125 38.0391 23.4374C38.6026 23.6623 39.1152 23.9982 39.5464 24.425C39.9776 24.8519 40.3187 25.361 40.5493 25.9222C40.78 26.4833 40.8955 27.0852 40.8891 27.6919V32.1507H46.4744Z" fill="#0E2B5C"/>
<path d="M33.1801 27.6919V32.1507H39.3521V27.6919C39.3339 26.8824 39.0018 26.1117 38.426 25.5424C37.8502 24.9732 37.0757 24.65 36.2661 24.6411C35.8625 24.6364 35.462 24.7119 35.0878 24.8631C34.7136 25.0144 34.3731 25.2383 34.0861 25.5221C33.7991 25.8058 33.5712 26.1437 33.4157 26.5162C33.2602 26.8886 33.1801 27.2882 33.1801 27.6919Z" fill="black"/>
<path d="M50.863 24.876H47.8944V32.2682H50.863V24.876Z" fill="black"/>
<path d="M55.3807 24.876H52.412V32.2682H55.3807V24.876Z" fill="black"/>
<path d="M19.7684 24.876H16.7998V32.2682H19.7684V24.876Z" fill="black"/>
<path d="M24.1572 24.876H21.1886V32.2682H24.1572V24.876Z" fill="black"/>
<path d="M15.2629 24.876H12.2943V32.2682H15.2629V24.876Z" fill="black"/>
<path d="M59.7688 24.876H56.8002V32.2682H59.7688V24.876Z" fill="black"/>
<path d="M24.8729 13.1421H47.1905H48.845L36.149 5.86719L23.324 13.1421H24.8729Z" fill="#0E2B5C"/>
<path d="M5.64094 51.981C5.94159 51.9856 6.23416 52.079 6.4819 52.2494C6.72965 52.4198 6.92153 52.6596 7.03339 52.9387C7.14525 53.2178 7.17211 53.5238 7.11063 53.8181C7.04915 54.1125 6.90207 54.382 6.68784 54.593C6.4736 54.804 6.20177 54.947 5.90653 55.004C5.61129 55.0609 5.30579 55.0294 5.02843 54.9133C4.75107 54.7972 4.51423 54.6017 4.34764 54.3514C4.18104 54.1011 4.09214 53.8071 4.09211 53.5064C4.09364 53.3046 4.1349 53.105 4.21357 52.919C4.29224 52.7331 4.40677 52.5646 4.5506 52.4229C4.69443 52.2813 4.86473 52.1693 5.05181 52.0935C5.2389 52.0177 5.43908 51.9795 5.64094 51.981Z" fill="black"/>
<path d="M59.0534 60.7813C59.3546 60.7836 59.6483 60.875 59.8976 61.044C60.1469 61.213 60.3406 61.4521 60.4543 61.731C60.5679 62.0099 60.5965 62.3162 60.5363 62.6114C60.4761 62.9065 60.3299 63.1772 60.1161 63.3893C59.9024 63.6015 59.6305 63.7456 59.335 63.8035C59.0394 63.8614 58.7333 63.8306 58.4552 63.7148C58.1772 63.599 57.9397 63.4035 57.7726 63.1529C57.6055 62.9023 57.5163 62.6079 57.5163 62.3067C57.5194 61.901 57.6827 61.5131 57.9706 61.2273C58.2586 60.9416 58.6478 60.7812 59.0534 60.7813Z" fill="black"/>
<path d="M64.9904 54.9142C65.2911 54.9189 65.5836 55.0123 65.8314 55.1827C66.0791 55.3531 66.271 55.5929 66.3828 55.872C66.4947 56.1511 66.5216 56.457 66.4601 56.7514C66.3986 57.0457 66.2515 57.3153 66.0373 57.5263C65.823 57.7373 65.5512 57.8802 65.256 57.9372C64.9608 57.9942 64.6553 57.9626 64.3779 57.8465C64.1005 57.7304 63.8637 57.5349 63.6971 57.2846C63.5305 57.0343 63.4416 56.7403 63.4415 56.4397C63.4415 56.2373 63.4817 56.037 63.5599 55.8504C63.638 55.6638 63.7525 55.4946 63.8966 55.3526C64.0407 55.2107 64.2117 55.0988 64.3995 55.0236C64.5872 54.9483 64.7881 54.9111 64.9904 54.9142Z" fill="black"/>
<path d="M42.7899 41.655C43.0911 41.6573 43.3849 41.7488 43.6342 41.9178C43.8835 42.0868 44.0772 42.3258 44.1908 42.6047C44.3045 42.8837 44.333 43.19 44.2728 43.4851C44.2126 43.7803 44.0664 44.051 43.8526 44.2631C43.6388 44.4753 43.367 44.6194 43.0715 44.6773C42.7759 44.7352 42.4698 44.7043 42.1918 44.5885C41.9137 44.4728 41.6762 44.2772 41.5091 44.0266C41.342 43.776 41.2528 43.4816 41.2528 43.1804C41.2559 42.7748 41.4192 42.3868 41.7071 42.1011C41.9951 41.8154 42.3843 41.655 42.7899 41.655Z" fill="black"/>
<path d="M60.6022 16.7796C60.9029 16.7842 61.1955 16.8776 61.4432 17.048C61.691 17.2184 61.8828 17.4582 61.9947 17.7373C62.1065 18.0164 62.1334 18.3224 62.0719 18.6167C62.0104 18.911 61.8633 19.1806 61.6491 19.3916C61.4349 19.6026 61.163 19.7456 60.8678 19.8026C60.5726 19.8595 60.2671 19.828 59.9897 19.7119C59.7124 19.5958 59.4755 19.4003 59.3089 19.15C59.1423 18.8997 59.0534 18.6057 59.0534 18.305C59.0549 18.1031 59.0962 17.9035 59.1748 17.7176C59.2535 17.5317 59.368 17.3631 59.5119 17.2215C59.6557 17.0799 59.826 16.9679 60.0131 16.8921C60.2002 16.8163 60.4003 16.778 60.6022 16.7796Z" fill="black"/>
<path d="M51.743 3.52031C52.0436 3.52493 52.3362 3.61833 52.5839 3.78873C52.8317 3.95913 53.0235 4.19894 53.1354 4.47805C53.2473 4.75715 53.2741 5.06306 53.2127 5.3574C53.1512 5.65173 53.0041 5.92134 52.7898 6.13233C52.5756 6.34332 52.3038 6.48629 52.0086 6.54327C51.7133 6.60025 51.4078 6.56872 51.1305 6.45261C50.8531 6.33649 50.6162 6.14098 50.4496 5.89066C50.283 5.64035 50.1941 5.34637 50.1941 5.04568C50.1956 4.84382 50.2369 4.64426 50.3156 4.45835C50.3943 4.27245 50.5088 4.10387 50.6526 3.96222C50.7964 3.82058 50.9668 3.70864 51.1538 3.63282C51.3409 3.557 51.5411 3.51876 51.743 3.52031Z" fill="black"/>
<path d="M22.0214 0.586959C22.322 0.591585 22.6146 0.684981 22.8623 0.855381C23.1101 1.02578 23.3019 1.26559 23.4138 1.5447C23.5256 1.8238 23.5525 2.12972 23.491 2.42405C23.4296 2.71838 23.2825 2.988 23.0682 3.19898C22.854 3.40997 22.5822 3.55294 22.2869 3.60992C21.9917 3.66691 21.6862 3.63537 21.4088 3.51926C21.1315 3.40315 20.8946 3.20763 20.728 2.95731C20.5614 2.707 20.4725 2.41302 20.4725 2.11234C20.474 1.91048 20.5153 1.71091 20.594 1.525C20.6726 1.3391 20.7872 1.17052 20.931 1.02887C21.0748 0.887227 21.2451 0.775292 21.4322 0.69947C21.6193 0.623648 21.8195 0.585412 22.0214 0.586959Z" fill="black"/>
<path d="M13.1157 15.2542C13.4169 15.2565 13.7107 15.3479 13.96 15.5169C14.2093 15.6859 14.403 15.9249 14.5166 16.2039C14.6303 16.4828 14.6588 16.7891 14.5986 17.0843C14.5385 17.3794 14.3923 17.6501 14.1785 17.8622C13.9647 18.0744 13.6929 18.2185 13.3973 18.2764C13.1018 18.3343 12.7956 18.3035 12.5176 18.1877C12.2395 18.0719 12.002 17.8763 11.8349 17.6258C11.6678 17.3752 11.5786 17.0807 11.5786 16.7795C11.5817 16.3739 11.745 15.986 12.033 15.7002C12.3209 15.4145 12.7101 15.2541 13.1157 15.2542Z" fill="black"/>
<path d="M5.64094 22.6465C5.94159 22.6512 6.23416 22.7446 6.4819 22.915C6.72965 23.0854 6.92153 23.3252 7.03339 23.6043C7.14525 23.8834 7.17211 24.1893 7.11063 24.4837C7.04915 24.778 6.90207 25.0476 6.68784 25.2586C6.4736 25.4695 6.20177 25.6125 5.90653 25.6695C5.61129 25.7265 5.30579 25.6949 5.02843 25.5788C4.75107 25.4627 4.51423 25.2672 4.34764 25.0169C4.18104 24.7666 4.09214 24.4726 4.09211 24.1719C4.09364 23.9701 4.1349 23.7705 4.21357 23.5846C4.29224 23.3987 4.40677 23.2301 4.5506 23.0884C4.69443 22.9468 4.86473 22.8349 5.05181 22.759C5.2389 22.6832 5.43908 22.645 5.64094 22.6465Z" fill="black"/>
<path d="M32.347 47.6394C33.1959 47.6394 33.8841 46.9564 33.8841 46.114C33.8841 45.2715 33.1959 44.5886 32.347 44.5886C31.498 44.5886 30.8099 45.2715 30.8099 46.114C30.8099 46.9564 31.498 47.6394 32.347 47.6394Z" fill="black"/>
<path d="M66.4103 36.9616C65.8893 36.9619 65.3749 37.0778 64.9041 37.301C64.4334 37.5242 64.018 37.8491 63.6881 38.2523L60.6021 41.6551C59.5161 42.8418 58.1943 43.7887 56.7214 44.4352C55.2484 45.0818 53.6568 45.4138 52.0482 45.4099H51.0978C48.0201 45.533 45.0958 46.7863 42.8841 48.9301C41.6419 49.9903 40.6388 51.302 39.941 52.7786C39.2432 54.2551 38.8665 55.8629 38.8359 57.4957V65.944H31.3615V57.4957C31.3554 55.8984 31.0339 54.3181 30.4156 52.8454C29.7972 51.3726 28.8942 50.0365 27.7582 48.9136C26.6222 47.7907 25.2757 46.9032 23.7959 46.3019C22.3161 45.7007 20.7322 45.3976 19.1349 45.4099H18.1845C16.5816 45.3893 14.9992 45.0462 13.5316 44.4011C12.064 43.756 10.7413 42.8221 9.64232 41.6551L6.55633 38.2523C6.22241 37.8507 5.80466 37.527 5.33235 37.3041C4.86005 37.0811 4.34466 36.9642 3.82238 36.9616C2.85439 36.9615 1.92554 37.3437 1.23778 38.0248C0.550025 38.706 0.158978 39.6311 0.1497 40.5991C0.156594 41.5086 0.49445 42.3846 1.10013 43.0632L8.57454 51.3941C9.79519 52.727 11.2801 53.791 12.9347 54.5182C14.5892 55.2455 16.3772 55.6202 18.1845 55.6183C18.5427 55.6104 18.8989 55.6746 19.2318 55.807C19.5648 55.9394 19.8677 56.1373 20.1227 56.389C20.3777 56.6407 20.5795 56.9411 20.7162 57.2723C20.8529 57.6035 20.9217 57.9588 20.9185 58.3171V65.944H15.6969C15.5102 65.944 15.3312 66.0182 15.1991 66.1502C15.0671 66.2822 14.9929 66.4613 14.9929 66.648C14.9929 66.8347 15.0671 67.0138 15.1991 67.1459C15.3312 67.2779 15.5102 67.3521 15.6969 67.3521H54.2776C54.4643 67.3521 54.6434 67.2779 54.7754 67.1459C54.9074 67.0138 54.9816 66.8347 54.9816 66.648C54.9816 66.4613 54.9074 66.2822 54.7754 66.1502C54.6434 66.0182 54.4643 65.944 54.2776 65.944H49.0443V58.3171C49.0411 57.9588 49.1099 57.6035 49.2466 57.2723C49.3832 56.9411 49.5851 56.6407 49.8401 56.389C50.0951 56.1373 50.3981 55.9394 50.731 55.807C51.0639 55.6746 51.4201 55.6104 51.7783 55.6183C53.5858 55.6209 55.3739 55.2466 57.0286 54.5192C58.6832 53.7919 60.1681 52.7276 61.3883 51.3941L68.8744 43.0632C69.4755 42.3818 69.8127 41.5076 69.8248 40.5991C69.8845 40.1263 69.839 39.6462 69.6918 39.193C69.5445 38.7399 69.2991 38.3248 68.973 37.9774C68.6468 37.63 68.2481 37.3588 67.8051 37.1832C67.3622 37.0076 66.8859 36.932 66.4103 36.9616Z" fill="black"/>
<path d="M9.32536 60.0771C8.7462 60.0818 8.18135 60.2577 7.70204 60.5828C7.22274 60.908 6.8504 61.3677 6.63197 61.9041C6.41354 62.4406 6.35881 63.0296 6.47463 63.5971C6.59045 64.1645 6.87166 64.685 7.28283 65.0929C7.694 65.5008 8.21673 65.7779 8.78511 65.8892C9.35349 66.0005 9.9421 65.9411 10.4767 65.7184C11.0114 65.4957 11.4681 65.1197 11.7895 64.6378C12.1108 64.1559 12.2822 63.5897 12.2823 63.0106C12.2838 62.6229 12.2083 62.2388 12.06 61.8807C11.9116 61.5225 11.6935 61.1974 11.4183 60.9244C11.1431 60.6514 10.8163 60.4359 10.457 60.2904C10.0977 60.145 9.71298 60.0724 9.32536 60.0771Z" fill="black"/>
<path d="M49.3963 37.3136C49.3825 37.1295 49.3023 36.9567 49.1706 36.8272C49.039 36.6978 48.8649 36.6205 48.6806 36.6096H23.4412C23.2545 36.6096 23.0755 36.6838 22.9434 36.8158C22.8114 36.9478 22.7372 37.1269 22.7372 37.3136C22.7372 37.5003 22.8114 37.6794 22.9434 37.8115C23.0755 37.9435 23.2545 38.0177 23.4412 38.0177H48.7275C48.8179 38.0161 48.9071 37.9966 48.9899 37.9603C49.0726 37.9239 49.1473 37.8715 49.2096 37.8059C49.2719 37.7404 49.3204 37.6631 49.3525 37.5786C49.3846 37.494 49.3995 37.404 49.3963 37.3136Z" fill="black"/>
<path d="M6.35665 14.55C6.93528 14.5431 7.49892 14.3651 7.97667 14.0386C8.45442 13.7121 8.82491 13.2515 9.04155 12.715C9.25819 12.1784 9.3113 11.5897 9.19417 11.023C9.07703 10.4563 8.7949 9.93691 8.38328 9.53018C7.97166 9.12344 7.44894 8.84756 6.88089 8.73719C6.31284 8.62683 5.72484 8.68695 5.19087 8.90997C4.6569 9.13299 4.20082 9.50896 3.88002 9.99057C3.55922 10.4722 3.38805 11.0379 3.38801 11.6166C3.3864 12.0052 3.46233 12.3903 3.61138 12.7492C3.76044 13.1082 3.97963 13.4338 4.25608 13.7069C4.53254 13.9801 4.86072 14.1954 5.22141 14.3401C5.5821 14.4849 5.96805 14.5563 6.35665 14.55Z" fill="black"/>
<path d="M64.9908 11.6167C65.7081 11.6074 66.4067 11.3862 66.9987 10.981C67.5906 10.5757 68.0495 10.0044 68.3177 9.339C68.5858 8.67357 68.6512 7.94374 68.5056 7.24126C68.36 6.53877 68.0099 5.89501 67.4994 5.39099C66.9888 4.88696 66.3406 4.54517 65.6364 4.40858C64.9321 4.27199 64.2031 4.34672 63.5412 4.62336C62.8793 4.89999 62.3139 5.3662 61.9163 5.96332C61.5186 6.56044 61.3064 7.26179 61.3063 7.9792C61.3187 8.94821 61.7123 9.87336 62.4019 10.5542C63.0916 11.235 64.0217 11.6168 64.9908 11.6167Z" fill="black"/>
</svg>
