<svg width="494" height="394" viewBox="0 0 494 394" fill="none" xmlns="http://www.w3.org/2000/svg">
<g clip-path="url(#clip0_3030_3716)">
<path d="M444.583 230.839L439.531 229.892L447.109 189.713C447.977 184.977 451.135 180.951 455.476 178.978L491.787 162.401L493.997 167.216L457.687 183.714C454.845 184.977 452.792 187.582 452.24 190.661L444.583 230.839Z" fill="#719C70"/>
<path d="M472.288 358.953H391.615L387.352 233.839H476.55L472.288 358.953Z" fill="#C9E0F5"/>
<path d="M481.288 239.206L477.657 230.365H478.052V222.393H385.854V230.365H386.17L382.539 239.206H481.288Z" fill="#BA542C"/>
<path d="M478.05 229.892H385.852V221.919H478.05V229.892Z" fill="#FFAE3D"/>
<path d="M472.842 341.903H438.031C431.716 341.903 426.664 336.772 426.664 330.536V266.597C426.664 260.361 431.716 255.31 438.031 255.31H475.762L472.842 341.903Z" fill="#3E65A8"/>
<path d="M442.134 131.458H439.923C439.923 118.039 429.109 107.146 415.69 107.146C404.323 107.146 394.772 114.96 392.167 125.538C389.089 122.538 384.905 120.644 380.327 120.644C373.143 120.644 366.986 125.143 364.618 131.458H354.593C347.094 131.458 340.938 137.536 340.938 145.114C340.938 152.692 347.094 158.77 354.593 158.77H442.134C449.633 158.77 455.79 152.692 455.79 145.114C455.79 137.536 449.633 131.458 442.134 131.458Z" fill="#C9E0F5"/>
<path d="M431.873 48.8121C431.873 72.493 412.692 91.6745 389.011 91.6745C365.33 91.6745 346.148 72.493 346.148 48.8121C346.148 25.1312 365.33 5.94971 389.011 5.94971C412.692 5.94971 431.873 25.1312 431.873 48.8121Z" stroke="#C9E0F5" stroke-width="1.5" stroke-miterlimit="10"/>
<path d="M269.583 114.408H130.577C121.42 114.408 114 106.988 114 97.8314V18.0268C114 8.8702 121.42 1.4502 130.577 1.4502H269.583C278.74 1.4502 286.16 8.8702 286.16 18.0268V97.8314C286.16 106.988 278.74 114.408 269.583 114.408Z" stroke="#C9E0F5" stroke-width="1.5" stroke-miterlimit="10"/>
<path d="M1.04688 367.872H395.097C394.781 259.335 306.688 171.479 198.072 171.479C89.4555 171.479 1.44155 259.335 1.04688 367.872Z" stroke="#C9E0F5" stroke-width="1.5" stroke-miterlimit="10"/>
<path d="M227.197 59.942H225.303C225.303 48.0226 215.594 38.3135 203.674 38.3135C193.65 38.3135 185.203 45.2599 182.835 54.6533C180.151 51.9695 176.363 50.3118 172.258 50.3118C165.943 50.3118 160.496 54.3375 158.286 59.942H149.445C142.736 59.942 137.289 65.3886 137.289 72.0982C137.289 78.8078 142.736 84.2544 149.445 84.2544H227.197C233.907 84.2544 239.354 78.8078 239.354 72.0982C239.354 65.3886 233.907 59.942 227.197 59.942Z" fill="#C9E0F5"/>
<path d="M377.095 368.109H259.164C241.483 368.109 227.195 353.822 227.195 336.219V60.1788C227.195 42.5761 241.483 28.2886 259.164 28.2886H377.095C394.698 28.2886 408.986 42.5761 408.986 60.1788V336.219C408.986 353.822 394.698 368.109 377.095 368.109Z" fill="#19386E"/>
<path d="M377.253 36.1821H355.23C353.02 36.1821 351.204 37.9977 351.204 40.2868C351.204 44.9441 347.415 48.733 342.758 48.733H293.502C288.845 48.733 285.056 44.9441 285.056 40.2868C285.056 37.9977 283.24 36.1821 280.951 36.1821H258.928C245.588 36.1821 234.773 46.9964 234.773 60.3366V336.061C234.773 349.401 245.588 360.215 258.928 360.215H377.253C390.594 360.215 401.487 349.401 401.487 336.061V60.3366C401.487 46.9964 390.594 36.1821 377.253 36.1821Z" fill="#719C70"/>
<path fill-rule="evenodd" clip-rule="evenodd" d="M401.487 225.313V228.629C384.358 224.208 364.781 219.867 359.572 220.735C353.099 221.919 345.363 224.84 340.864 226.655C338.89 227.524 337.785 229.576 338.259 231.628C338.364 231.997 338.443 232.391 338.496 232.812C343.784 257.283 365.808 294.383 365.965 294.698L395.961 351.375C395.593 351.796 395.224 352.19 394.856 352.559L364.624 295.488C364.545 295.33 358.072 284.437 351.283 270.544C350.178 268.255 347.415 267.307 345.205 268.57C334.786 274.096 309.447 286.805 292.476 289.252C274.715 291.778 245.035 307.328 234.773 312.933V311.117C245.746 305.197 274.715 290.199 292.239 287.673C309.921 285.147 336.917 271.254 346.074 266.281C347.494 265.492 348.047 263.755 347.415 262.256C346.31 259.887 345.258 257.493 344.258 255.072C343.548 253.257 341.811 251.915 339.759 251.757C330.286 251.047 306.132 247.416 305.027 229.892C304.158 215.525 303.606 200.37 303.448 192.476C303.369 190.424 301.238 189.24 299.501 190.187C286.477 197.054 270.058 205.579 266.032 206.684C260.822 208.026 242.825 210.473 234.773 211.5V209.921C242.904 208.816 260.665 206.448 265.637 205.106C268.558 204.316 278.425 199.343 288.687 194.055C290.108 193.344 290.581 191.608 289.792 190.266L283.556 179.609L264.296 157.981C259.165 152.297 252.771 147.719 245.746 144.798L234.773 140.141V138.483L246.377 143.299C253.639 146.377 260.191 151.034 265.48 156.955L269.19 161.138C269.9 161.928 271.163 162.085 271.952 161.375L290.266 147.009C291.134 146.298 291.765 145.351 292.002 144.325L297.212 120.802C297.922 117.802 297.37 114.645 295.712 112.04L292.949 107.462L281.977 71.3877L284.977 70.5194L295.87 106.356L307.079 124.275C308.342 126.248 311.105 126.327 312.447 124.433L352.467 67.7566L355.072 69.5721L313.236 128.853C312.21 130.353 312.131 132.326 313.078 133.905L316.867 139.904C318.367 142.351 320.577 144.325 323.261 145.667L367.071 166.901L401.487 180.951V184.345L365.729 169.821L340.785 157.665C338.811 156.718 336.443 157.191 335.022 158.928L318.13 178.741C317.183 179.846 317.025 181.425 317.735 182.688C321.209 188.766 330.286 205.342 335.733 222.472C336.207 223.893 337.706 224.603 338.969 224.05C343.548 222.156 351.915 218.92 359.019 217.657C364.939 216.63 384.989 221.13 401.487 225.313ZM295.791 147.877L322.945 166.743C324.129 167.611 325.708 167.374 326.655 166.269L334.391 157.191C335.18 156.244 334.865 154.823 333.76 154.271L321.84 148.508C318.683 146.93 315.999 144.562 314.183 141.562L300.764 120.091C300.291 119.302 299.106 119.539 298.949 120.407L293.897 142.904C293.502 144.798 294.212 146.772 295.791 147.877ZM315.052 179.925L321.603 172.268C322.866 170.768 322.551 168.479 320.893 167.295L295.239 149.377C293.502 148.193 291.213 148.272 289.634 149.535L273.215 162.401C272.347 163.112 272.189 164.454 272.979 165.401L284.898 178.741L291.292 189.713C292.081 190.976 293.66 191.45 294.923 190.739C304.948 185.451 313.946 180.557 315.052 179.925ZM336.996 233.128C332.733 213.394 321.051 191.687 316.63 183.951C315.92 182.688 314.262 182.214 312.999 182.925C311.263 183.793 308.973 185.056 306.369 186.477C305.421 186.95 304.869 187.898 304.948 188.924C305.027 195.002 305.5 212.92 306.605 229.813C307.632 245.837 330.602 249.389 339.838 250.178C341.022 250.257 341.89 249.073 341.495 247.968C339.601 242.758 338.022 237.706 336.996 233.128Z" fill="#4F854D"/>
<path d="M299.892 40.9183C299.892 42.4181 298.708 43.6811 297.129 43.6811C295.629 43.6811 294.445 42.4181 294.445 40.9183C294.445 39.4185 295.629 38.1555 297.129 38.1555C298.708 38.1555 299.892 39.4185 299.892 40.9183Z" fill="white"/>
<path d="M340.073 42.655H305.736C304.789 42.655 304.078 41.8656 304.078 40.9184C304.078 39.9711 304.789 39.2607 305.736 39.2607H340.073C341.02 39.2607 341.81 39.9711 341.81 40.9184C341.81 41.8656 341.02 42.655 340.073 42.655Z" fill="white"/>
<path d="M377.253 36.1821H355.23C353.02 36.1821 351.204 37.9977 351.204 40.2868C351.204 44.9441 347.415 48.733 342.758 48.733H293.502C288.845 48.733 285.056 44.9441 285.056 40.2868C285.056 37.9977 283.24 36.1821 280.951 36.1821H258.928C245.588 36.1821 234.773 46.9964 234.773 60.3366V75.966H401.487V60.3366C401.487 46.9964 390.594 36.1821 377.253 36.1821Z" fill="white"/>
<path d="M361.541 278.912C361.541 284.042 357.437 288.226 352.306 288.226C347.175 288.226 343.07 284.042 343.07 278.912C343.07 273.86 347.175 269.676 352.306 269.676C357.437 269.676 361.541 273.86 361.541 278.912Z" fill="#4F854D"/>
<path fill-rule="evenodd" clip-rule="evenodd" d="M365.646 251.994C365.646 255.073 364.62 257.835 362.805 260.046C360.516 262.966 358.542 266.045 357.279 269.518L353.332 280.095C353.096 280.648 352.227 280.648 351.99 280.095L348.044 269.518C346.781 266.045 344.728 262.966 342.439 260.125C340.071 257.046 338.966 252.941 340.071 248.679C341.334 243.785 345.123 240.233 350.017 239.285C358.384 237.707 365.646 244.022 365.646 251.994ZM356.727 251.994C356.727 249.784 354.911 247.968 352.622 247.968C350.412 247.968 348.517 249.784 348.517 251.994C348.517 254.283 350.412 256.099 352.622 256.099C354.911 256.099 356.727 254.283 356.727 251.994Z" fill="white"/>
<path d="M348.597 153.166C348.597 158.297 344.413 162.402 339.282 162.402C334.231 162.402 330.047 158.297 330.047 153.166C330.047 148.035 334.231 143.93 339.282 143.93C344.413 143.93 348.597 148.035 348.597 153.166Z" fill="#4F854D"/>
<path fill-rule="evenodd" clip-rule="evenodd" d="M352.627 126.249C352.627 129.327 351.601 132.09 349.864 134.3C347.575 137.221 345.523 140.299 344.26 143.772L340.313 154.271C340.076 154.902 339.208 154.902 338.971 154.271L335.024 143.772C333.761 140.299 331.788 137.221 329.499 134.3C327.052 131.301 326.025 127.196 327.131 122.854C328.315 118.039 332.182 114.487 337.077 113.54C345.365 111.882 352.627 118.197 352.627 126.249ZM343.786 126.249C343.786 123.959 341.892 122.144 339.681 122.144C337.392 122.144 335.577 123.959 335.577 126.249C335.577 128.538 337.392 130.353 339.681 130.353C341.892 130.353 343.786 128.538 343.786 126.249Z" fill="#FC5546"/>
<path d="M332.025 162.401L330.367 164.138" stroke="white" stroke-width="6" stroke-linecap="round" stroke-linejoin="round"/>
<path d="M330.365 164.138L315.051 179.925L307 184.346" stroke="white" stroke-width="6" stroke-linecap="round" stroke-linejoin="round" stroke-dasharray="5.64 5.64"/>
<path d="M306.998 184.345L304.867 185.451L305.025 187.819" stroke="white" stroke-width="6" stroke-linecap="round" stroke-linejoin="round"/>
<path d="M305.023 187.819L308.733 262.65C309.286 273.78 318.916 282.227 329.967 281.437L339.203 280.727" stroke="white" stroke-width="6" stroke-linecap="round" stroke-linejoin="round" stroke-dasharray="6.11 6.11"/>
<path d="M339.203 280.727L341.571 280.49" stroke="white" stroke-width="6" stroke-linecap="round" stroke-linejoin="round"/>
<path d="M372.914 61.2837H384.991" stroke="#FC5546" stroke-width="1.9" stroke-miterlimit="10"/>
<path d="M372.914 65.5461H384.991" stroke="#FC5546" stroke-width="1.9" stroke-miterlimit="10"/>
<path d="M372.914 69.8877H384.991" stroke="#FC5546" stroke-width="1.9" stroke-miterlimit="10"/>
<path d="M422.563 393.29H341.495C330.444 393.29 321.445 384.37 321.445 373.24V371.661C321.445 366.531 325.629 362.347 330.681 362.347H433.298C438.429 362.347 442.534 366.531 442.534 371.661V373.24C442.534 384.37 433.614 393.29 422.563 393.29Z" fill="#9C6939"/>
<path d="M367.543 367.399C367.543 372.293 358.939 376.239 348.283 376.239C337.706 376.239 329.102 372.293 329.102 367.399C329.102 362.584 337.706 358.637 348.283 358.637C358.939 358.637 367.543 362.584 367.543 367.399Z" fill="#942B2B"/>
<path d="M400.301 367.399C400.301 372.293 391.697 376.239 381.041 376.239C370.463 376.239 361.859 372.293 361.859 367.399C361.859 362.584 370.463 358.637 381.041 358.637C391.697 358.637 400.301 362.584 400.301 367.399Z" fill="#942B2B"/>
<path d="M433.06 367.399C433.06 372.293 424.377 376.239 413.799 376.239C403.143 376.239 394.539 372.293 394.539 367.399C394.539 362.584 403.143 358.637 413.799 358.637C424.377 358.637 433.06 362.584 433.06 367.399Z" fill="#942B2B"/>
<path d="M326.179 355.479C326.179 355.479 317.339 360.452 318.128 364.004C318.996 367.635 319.865 366.372 322.864 367.793C325.785 369.214 325.785 372.214 330.679 372.214C335.494 372.214 335.652 369.214 339.678 368.819C343.624 368.504 342.44 371.661 348.834 372.214C355.149 372.766 352.939 369.925 357.122 369.53C361.306 369.214 361.938 370.082 366.121 372.293C370.305 374.503 372.91 370.24 376.778 369.925C380.567 369.53 379.619 371.898 384.592 372.924C389.565 374.029 388.223 372.372 394.065 370.635C399.906 368.819 399.906 372.056 405.747 373.24C411.588 374.503 411.273 370.24 416.088 370.24C420.903 370.24 420.903 373.398 425.402 373.477C429.902 373.635 427.297 370.477 433.059 370.24C438.743 370.082 439.69 372.214 442.058 369.767C444.347 367.241 438.19 356.426 438.19 356.426L326.179 355.479Z" fill="#719C70"/>
<path d="M431.958 367.399H332.104C325.71 367.399 320.5 362.189 320.5 355.795V355.006C320.5 348.612 325.71 343.402 332.104 343.402H431.958C438.352 343.402 443.562 348.612 443.562 355.006V355.795C443.562 362.189 438.352 367.399 431.958 367.399Z" fill="#FF7070"/>
<path d="M326.179 337.719C326.179 337.719 317.339 342.691 318.128 346.244C318.996 349.875 319.865 348.612 322.864 350.033C325.785 351.453 325.785 354.453 330.679 354.453C335.494 354.453 335.652 351.453 339.678 351.059C343.624 350.743 342.44 353.9 348.834 354.453C355.149 355.006 352.939 352.164 357.122 351.769C361.306 351.453 361.938 352.322 366.121 354.532C370.305 356.742 372.91 352.48 376.778 352.164C380.567 351.769 379.619 354.137 384.592 355.163C389.565 356.269 388.223 354.611 394.065 352.874C399.906 351.059 399.906 354.295 405.747 355.558C411.588 356.742 411.273 352.48 416.088 352.48C420.903 352.48 420.903 355.637 425.402 355.716C429.902 355.874 427.297 352.716 433.059 352.48C438.743 352.322 439.69 354.453 442.058 352.006C444.347 349.48 438.19 338.666 438.19 338.666L326.179 337.719Z" fill="#FFAE3D"/>
<path d="M381.989 292.488C358.861 292.488 323.26 300.777 319.55 330.457C318.682 337.324 323.734 343.402 330.207 343.402H381.989H433.85C440.323 343.402 445.375 337.324 444.507 330.457C440.797 300.777 405.196 292.488 381.989 292.488Z" fill="#9C6939"/>
<path d="M365.018 304.803C365.018 305.592 363.913 306.144 362.65 306.144C361.308 306.144 360.203 305.592 360.203 304.803C360.203 304.092 361.308 303.461 362.65 303.461C363.913 303.461 365.018 304.092 365.018 304.803Z" fill="#FFAE3D"/>
<path d="M375.995 304.092C375.995 304.803 374.969 305.434 373.627 305.434C372.285 305.434 371.18 304.803 371.18 304.092C371.18 303.303 372.285 302.75 373.627 302.75C374.969 302.75 375.995 303.303 375.995 304.092Z" fill="#FFAE3D"/>
<path d="M393.831 303.461C393.831 304.25 392.726 304.803 391.384 304.803C390.042 304.803 389.016 304.25 389.016 303.461C389.016 302.75 390.042 302.119 391.384 302.119C392.726 302.119 393.831 302.75 393.831 303.461Z" fill="#FFAE3D"/>
<path d="M398.564 312.617C398.564 313.406 397.538 313.959 396.196 313.959C394.854 313.959 393.828 313.406 393.828 312.617C393.828 311.907 394.854 311.275 396.196 311.275C397.538 311.275 398.564 311.907 398.564 312.617Z" fill="#FFAE3D"/>
<path d="M371.174 312.617C371.174 313.406 370.148 313.959 368.807 313.959C367.465 313.959 366.438 313.406 366.438 312.617C366.438 311.907 367.465 311.275 368.807 311.275C370.148 311.275 371.174 311.907 371.174 312.617Z" fill="#FFAE3D"/>
<path d="M406.541 306.145C406.541 306.934 405.515 307.487 404.173 307.487C402.831 307.487 401.805 306.934 401.805 306.145C401.805 305.434 402.831 304.803 404.173 304.803C405.515 304.803 406.541 305.434 406.541 306.145Z" fill="#FFAE3D"/>
<path d="M385.228 309.776C385.228 310.565 384.202 311.118 382.86 311.118C381.518 311.118 380.492 310.565 380.492 309.776C380.492 309.065 381.518 308.434 382.86 308.434C384.202 308.434 385.228 309.065 385.228 309.776Z" fill="#FFAE3D"/>
<path d="M385.776 299.356C385.776 300.145 384.671 300.698 383.329 300.698C382.066 300.698 380.961 300.145 380.961 299.356C380.961 298.646 382.066 298.014 383.329 298.014C384.671 298.014 385.776 298.646 385.776 299.356Z" fill="#FFAE3D"/>
<path d="M87.8752 211.816L85.3492 214.499L60.2475 211.816L39.9609 168.795L42.4869 166.19H70.1145L87.8752 211.816Z" fill="#7BA3E8"/>
<path d="M85.3492 214.499H57.7215L39.9609 168.795H67.5097L85.3492 214.499Z" fill="#19386E"/>
<path d="M47.4594 172.584C48.012 173.61 47.5384 174.479 46.5912 174.479C45.565 174.479 44.302 173.61 43.8284 172.584C43.2758 171.637 43.6705 170.769 44.6967 170.769C45.7228 170.769 46.9858 171.637 47.4594 172.584Z" fill="white"/>
<path d="M197.99 122.065L198.542 130.511L193.49 135.484L188.359 123.486L197.99 122.065Z" fill="#19386E"/>
<path d="M95.373 367.872H262.165L255.377 291.857L310.395 291.304C310.395 291.304 303.765 251.915 299.502 229.576C295.161 207.237 282.926 190.029 266.033 181.188C249.141 172.268 210.541 158.06 210.541 158.06L205.963 150.64L177.546 157.192L176.046 162.401L135.709 183.872C121.027 191.687 110.213 205.185 105.714 221.209L84.1641 299.435H109.108L95.373 367.872Z" fill="#0E2B5C"/>
<path d="M236.746 229.497L130.182 267.15L114 367.872H262.163L255.375 291.857H238.482L236.746 229.497Z" fill="#BA542C"/>
<path d="M161.992 130.985C166.255 153.482 178.411 152.85 178.411 152.85L180.463 163.664L189.462 180.32L192.619 167.69L204.065 155.455L196.882 137.773C203.276 139.036 205.091 130.353 200.908 128.143C196.645 125.854 194.593 130.195 194.593 131.932L188.357 123.486L161.992 130.985Z" fill="#FFBDBD"/>
<path d="M196.018 141.562L176.047 152.455C177.547 152.85 178.415 152.85 178.415 152.85L180.467 163.664L183.23 168.795L196.018 141.562Z" fill="#FFBDBD"/>
<path d="M196.648 132.327C196.648 129.564 198.464 129.169 199.806 129.643C201.227 130.195 201.779 132.8 200.516 134.063" stroke="#FFBDBD" stroke-miterlimit="10"/>
<path d="M172.891 135.484L174.391 144.325" stroke="#FFBDBD" stroke-miterlimit="10"/>
<path d="M166.414 137.615C166.967 136.195 169.098 135.642 170.282 136.589" stroke="black" stroke-miterlimit="10"/>
<path d="M175.258 135.169C175.574 133.195 179.284 131.932 181.178 133.353" stroke="black" stroke-miterlimit="10"/>
<path d="M197.987 122.065L147.389 138.247C146.757 138.483 145.968 138.168 145.652 137.457C145.336 136.747 145.652 135.879 146.442 135.563L160.334 129.8C160.334 129.8 156.23 112.513 170.28 107.856C183.936 103.278 195.382 108.409 197.987 122.065Z" fill="#0E2B5C"/>
<path d="M179.758 106.199C176.837 106.199 173.601 106.673 170.286 107.857C156.235 112.514 160.34 129.801 160.34 129.801C165.944 127.433 178.969 125.302 184.178 126.486L179.758 106.199Z" fill="#BA542C"/>
<path d="M183.704 169.821L179.915 178.82L176.047 162.401L177.547 157.192L179.204 156.797L180.467 163.664L183.704 169.821Z" fill="#0E2B5C"/>
<path d="M192.617 167.69L197.985 177.794L210.536 158.06L205.957 150.64L202.484 151.508L204.063 155.455L192.617 167.69Z" fill="#0E2B5C"/>
<path d="M190.258 182.53V319.958" stroke="#BA542C" stroke-miterlimit="10"/>
<path d="M137.526 220.972L132 266.282" stroke="#BA542C" stroke-miterlimit="10"/>
<path d="M187.571 192.95C187.571 194.055 186.703 194.844 185.677 194.844C184.571 194.844 183.703 194.055 183.703 192.95C183.703 191.924 184.571 191.055 185.677 191.055C186.703 191.055 187.571 191.924 187.571 192.95Z" fill="white"/>
<path d="M187.571 216.394C187.571 217.42 186.703 218.288 185.677 218.288C184.571 218.288 183.703 217.42 183.703 216.394C183.703 215.289 184.571 214.499 185.677 214.499C186.703 214.499 187.571 215.289 187.571 216.394Z" fill="white"/>
<path d="M199.252 339.534L194.121 370.635H183.465L182.359 346.717L199.252 339.534Z" stroke="black" stroke-width="1.3" stroke-miterlimit="10"/>
<path d="M63.6416 232.418L98.4525 290.831V360.216C98.4525 360.216 81.6391 361.321 68.8514 339.534C56.1426 317.748 40.75 234.865 40.75 234.865L63.6416 232.418Z" fill="#FFBDBD"/>
<path d="M63.6416 232.418L40.75 234.865C40.75 234.865 41.0658 236.602 41.6973 239.601L74.8505 251.205L63.6416 232.418Z" fill="#FFBDBD"/>
<path d="M226.093 253.178V247.653H196.334V253.178C194.676 253.81 193.492 255.468 193.492 257.362V284.911H229.014V257.362C229.014 255.468 227.83 253.81 226.093 253.178Z" fill="#7BA3E8"/>
<path d="M229.008 279.701H204.695V258.309H229.008V279.701Z" fill="#3E65A8"/>
<path d="M226.803 244.969H195.624C194.439 244.969 193.492 245.916 193.492 247.1C193.492 248.363 194.439 249.31 195.624 249.31H226.803C227.987 249.31 229.014 248.363 229.014 247.1C229.014 245.916 227.987 244.969 226.803 244.969Z" fill="white"/>
<path d="M144.234 269.439C144.234 269.439 151.023 255.388 160.732 251.126C165.942 237.075 171.388 231.155 178.256 229.734C184.571 220.656 191.359 218.288 197.832 218.209C204.305 218.131 210.304 217.183 211.172 223.498C212.041 229.813 204.068 242.206 204.068 242.206C204.068 242.206 203.752 253.968 194.911 261.309C194.911 261.309 194.596 268.965 187.728 277.727L144.234 269.439Z" fill="#78512C"/>
<path d="M158.047 257.52C158.047 257.52 176.281 257.678 186.464 263.598C170.44 262.966 158.047 257.52 158.047 257.52Z" fill="#FFAE3D"/>
<path d="M169.023 243.785C169.023 243.785 185.441 243.706 195.624 249.468C184.81 249.942 169.023 243.785 169.023 243.785Z" fill="#FFAE3D"/>
<path d="M180.625 233.681C180.625 233.681 192.465 232.576 200.596 237.154C193.097 237.233 180.625 233.681 180.625 233.681Z" fill="#FFAE3D"/>
<path d="M189.625 224.998C189.625 224.998 199.887 222.867 206.912 226.024C201.939 227.682 189.625 224.998 189.625 224.998Z" fill="#FFAE3D"/>
<path d="M120.234 276.306C120.234 276.306 124.181 259.967 133.417 253.257C135.785 237.312 140.126 229.734 147.152 226.735C151.73 215.762 158.361 211.737 165.149 210.158C172.016 208.658 178.016 206.29 180.384 212.763C182.831 219.236 177.226 234.076 177.226 234.076C177.226 234.076 179.515 246.547 171.78 256.257C171.78 256.257 173.201 264.466 167.991 275.28L120.234 276.306Z" fill="#9C6939"/>
<path d="M132.078 260.598C132.078 260.598 151.339 256.73 163.416 260.598C146.366 263.598 132.078 260.598 132.078 260.598Z" fill="#FFAE3D"/>
<path d="M140.523 243.627C140.523 243.627 157.81 239.838 169.888 243.627C158.6 246.626 140.523 243.627 140.523 243.627Z" fill="#FFAE3D"/>
<path d="M150.469 230.444C150.469 230.444 162.783 226.498 172.334 229.576C164.44 231.313 150.469 230.444 150.469 230.444Z" fill="#FFAE3D"/>
<path d="M158.047 219.236C158.047 219.236 168.387 214.578 176.518 216.394C171.624 219.236 158.047 219.236 158.047 219.236Z" fill="#FFAE3D"/>
<path d="M78.7969 279.621L86.4537 221.84H128.053L137.841 279.621H78.7969Z" fill="#78491C"/>
<path d="M86.4517 217.578H130.577L131.84 228.392L85.8203 226.576L86.4517 217.578Z" fill="#78491C"/>
<path d="M85.8222 226.576L93.9526 279.621H78.7969L85.8222 226.576Z" fill="#40270F"/>
<path d="M130.106 233.917L85.5859 228.392L85.8227 226.576L129.159 228.392L130.106 233.917Z" fill="#40270F"/>
<path d="M127.973 255.072H100.266L98.6875 243.469H126.473L127.973 255.072Z" fill="white"/>
<path d="M234.066 368.109H74.8516V269.676H234.066V368.109Z" fill="#FFDBDB"/>
<path d="M234.066 368.109H205.57V269.676H234.066V368.109Z" fill="#FFC4C4"/>
<path d="M188.671 303.539H57.9531L74.8455 269.676H205.564L188.671 303.539Z" fill="white"/>
<path fill-rule="evenodd" clip-rule="evenodd" d="M109.818 327.299C109.818 330.615 107.292 333.141 104.135 333.141H99.3984V321.458H104.135C107.292 321.458 109.818 323.984 109.818 327.299ZM107.213 327.299C107.213 325.326 105.95 324.063 104.135 324.063H102.082V330.536H104.135C105.95 330.536 107.213 329.273 107.213 327.299Z" fill="#719C70"/>
<path d="M119.919 330.536V333.141H112.578V321.458H119.761V324.063H115.183V325.958H119.367V328.484H115.183V330.536H119.919Z" fill="#719C70"/>
<path d="M129.476 330.536V333.141H122.688V321.458H125.292V330.536H129.476Z" fill="#719C70"/>
<path d="M134.606 321.458V333.141H131.922V321.458H134.606Z" fill="#719C70"/>
<path d="M136.812 321.458H139.734L142.339 330.062L144.944 321.458H147.865L144.076 333.141H140.681L136.812 321.458Z" fill="#719C70"/>
<path d="M157.497 330.536V333.141H150.156V321.458H157.418V324.063H152.761V325.958H156.945V328.484H152.761V330.536H157.497Z" fill="#719C70"/>
<path fill-rule="evenodd" clip-rule="evenodd" d="M164.205 329.273H162.863V333.141H160.258V321.458H164.915C167.125 321.458 168.941 323.274 168.941 325.484C168.941 326.905 168.073 328.168 166.731 328.878L169.257 333.141H166.336L164.205 329.273ZM162.942 326.905H164.994C165.704 326.905 166.336 326.273 166.336 325.405C166.336 324.616 165.704 323.905 164.994 323.905H162.942V326.905Z" fill="#719C70"/>
<path d="M176.99 328.641V333.141H174.306V328.641L170.438 321.458H173.438L175.648 325.958L177.937 321.458H180.937L176.99 328.641Z" fill="#719C70"/>
<path d="M243.851 288.542L245.35 319.958L182.359 346.718L183.464 370.635C183.464 370.635 237.852 370.635 263.111 370.635C288.45 370.635 303.921 353.98 307.158 336.851C310.394 319.8 307.158 288.542 307.158 288.542H243.851Z" fill="#FFBDBD"/>
<path d="M113.133 370.083V349.086C113.133 347.113 115.106 345.771 116.922 346.481C128.999 350.981 142.26 347.349 142.26 347.349C140.366 344.823 135.788 343.324 132.946 342.613C131.525 342.219 130.578 340.877 130.736 339.377C130.893 337.798 132.314 336.614 133.972 336.772C137.366 337.088 143.129 337.877 148.102 339.85C155.601 342.771 163.494 346.955 163.494 346.955L186.386 339.85L188.122 372.372H158.837C158.837 372.372 139.024 381.529 116.922 375.214C114.712 374.503 113.133 372.451 113.133 370.083Z" fill="#FC5546"/>
<path d="M113.133 353.112C113.133 353.112 123.552 357.69 138.708 357.137" stroke="#19386E" stroke-width="1.3" stroke-miterlimit="10"/>
<path d="M113.133 360.374C113.133 360.374 123.552 365.031 138.708 364.479" stroke="#19386E" stroke-width="1.3" stroke-miterlimit="10"/>
<path d="M113.133 367.715C113.133 367.715 123.552 372.372 138.708 371.82" stroke="#19386E" stroke-width="1.3" stroke-miterlimit="10"/>
<path d="M245.352 319.958L260.586 313.959" stroke="#AD2B2B" stroke-width="1.3" stroke-miterlimit="10"/>
<path d="M307.158 288.542H243.852L244.325 298.882C254.982 299.671 285.846 302.829 308.579 312.538C308.342 299.829 307.158 288.542 307.158 288.542Z" fill="#FFBDBD"/>
<path d="M294.137 349.638C292.006 352.954 289.006 354.848 287.507 353.901C286.007 352.954 286.559 349.481 288.769 346.086C290.901 342.771 293.9 340.876 295.4 341.824C296.9 342.771 296.347 346.323 294.137 349.638Z" fill="#FFBDBD"/>
<path d="M236.43 284.358H315.129V292.804H236.43V284.358Z" fill="#BA542C"/>
<path d="M145.577 161.06L131.447 142.983C134.21 138.247 135.789 132.721 135.789 126.88C135.789 109.041 121.343 94.5952 103.504 94.5952C85.664 94.5952 71.2188 109.041 71.2188 126.88C71.2188 144.641 85.664 159.086 103.504 159.086C111.713 159.086 119.133 156.008 124.816 151.035L145.577 161.06Z" fill="#C9E0F5"/>
<path fill-rule="evenodd" clip-rule="evenodd" d="M106.898 125.302C106.424 126.486 106.74 127.828 107.687 128.775L116.212 137.3C116.844 137.932 116.844 138.958 116.212 139.51C115.581 140.142 114.555 140.142 114.002 139.51L105.398 130.985C104.53 130.117 103.188 129.801 101.925 130.196C98.7672 131.459 94.9783 130.669 92.5313 127.986C89.6106 124.67 89.6896 119.461 92.7681 116.303C96.0834 112.83 101.609 112.83 104.924 116.224C107.371 118.671 108.082 122.223 106.898 125.302ZM102.714 118.434C100.583 116.303 97.1885 116.303 95.0572 118.434C93.0049 120.566 93.0049 123.96 95.0572 126.091C97.1885 128.144 100.583 128.144 102.714 126.091C104.845 123.96 104.845 120.566 102.714 118.434Z" fill="white"/>
<path d="M236.428 224.287C236.113 209.447 247.164 189.161 271.634 187.74" stroke="#BA542C" stroke-miterlimit="10"/>
<path d="M195.23 129.801C195.23 129.801 180.232 142.588 166.023 143.299C166.023 143.299 169.576 155.376 179.601 155.06C189.625 154.745 193.888 145.667 197.993 137.931L196.888 137.773C196.888 137.773 193.493 144.72 190.099 140.852C186.705 136.905 194.598 131.932 194.598 131.932L195.23 129.801Z" fill="#C9E0F5"/>
<path d="M68.1434 236.681H38.2266L39.8842 210.947L39.7263 189.003L43.5942 178.031L46.278 184.741L55.4346 176.058C56.3819 175.11 57.6449 174.558 58.9868 174.321C61.6706 173.926 66.3279 173.295 68.8538 173.137C72.5638 173.058 72.7217 178.189 69.6432 178.505C67.433 178.741 64.1966 179.057 62.5389 179.294C61.9074 179.373 61.2759 179.689 60.8023 180.241L54.2506 188.135L64.907 183.083L72.0902 182.846C73.7478 182.846 75.1687 184.03 75.4844 185.609L77.6947 196.107C77.9315 197.528 76.9053 198.87 75.4844 198.949L70.1957 199.186L66.5646 201.949C64.907 203.133 63.8808 205.027 63.644 207.079C63.2493 209.921 62.3021 214.026 59.6972 215.92L68.1434 236.681Z" fill="#FC5546"/>
<path d="M46.2756 184.74L40.75 191.529" stroke="#19386E" stroke-width="1.3" stroke-miterlimit="10"/>
<path d="M54.5625 194.213L67.4291 188.135L75.7964 187.74" stroke="#19386E" stroke-width="1.3" stroke-miterlimit="10"/>
<path d="M57.9531 199.501L68.6095 193.818L77.0557 193.187" stroke="#19386E" stroke-width="1.3" stroke-miterlimit="10"/>
</g>
<defs>
<clipPath id="clip0_3030_3716">
<rect width="494" height="394" fill="white"/>
</clipPath>
</defs>
</svg>
