<svg width="581" height="299" viewBox="0 0 581 299" fill="none" xmlns="http://www.w3.org/2000/svg">
<g clip-path="url(#clip0_3198_528)">
<path d="M113.254 296.11C113.254 296.11 30.0114 259.126 31.9473 184.433C33.8832 109.78 112.77 75.0553 166.33 121.154C219.849 167.252 254.534 128.575 282.282 89.6149C310.03 50.6551 371.897 1.49153 453.084 24.1979C538.142 47.9932 564.317 134.14 555.928 191.652C549.878 232.911 527.737 267.918 497.569 294.819C496.574 295.706 495.566 296.58 494.544 297.441L113.254 296.11Z" fill="#D8DFFD"/>
<mask id="mask0_3198_528" style="mask-type:luminance" maskUnits="userSpaceOnUse" x="31" y="18" width="527" height="280">
<path d="M113.25 296.13C113.25 296.13 30.0192 259.114 31.9551 184.437C33.8909 109.76 112.77 75.0351 166.322 121.142C219.869 167.248 254.526 128.583 282.27 89.6229C310.013 50.659 371.905 1.49146 453.104 24.21C538.166 48.0133 564.341 134.156 555.916 191.64C549.862 232.931 527.728 267.939 497.569 294.835C496.587 295.712 495.583 296.576 494.556 297.429L113.25 296.13Z" fill="white"/>
</mask>
<g mask="url(#mask0_3198_528)">
<path d="M491.852 197.541H533.151V250.697H491.852V197.541Z" fill="#A9B7F2"/>
<path d="M207.234 169.995H279.225V242.026H207.234V169.995Z" fill="#A9B7F2"/>
<path d="M398.32 179.069H439.619V232.225H398.32V179.069Z" fill="#A9B7F2"/>
<path d="M320.164 207.866H361.463V261.022H320.164V207.866Z" fill="#A9B7F2"/>
<path d="M34.0938 298.651H574.449V228.918H34.0938V298.651Z" fill="#A9B7F2"/>
<path d="M533.148 175.762H574.447V228.918H533.148V175.762Z" fill="#A9B7F2"/>
<path d="M355.609 127.203C355.609 142.085 367.628 154.144 382.51 154.144C397.392 154.144 409.451 142.085 409.451 127.203C409.451 112.361 397.392 100.302 382.51 100.302C367.628 100.302 355.609 112.361 355.609 127.203Z" fill="#E9EDFD"/>
<path d="M376.305 114.862C376.305 118.331 379.087 121.113 382.516 121.113C385.944 121.113 388.767 118.331 388.767 114.862C388.767 111.434 385.944 108.651 382.516 108.651C379.087 108.651 376.305 111.434 376.305 114.862Z" fill="#D8DFFD"/>
<path d="M351.055 298.651H413.972V125.025H351.055V298.651Z" fill="#C9D2FC"/>
<path d="M392.953 162.049H405.455V137.447H392.953V162.049Z" fill="#A9B7F2"/>
<path d="M361.461 162.049H373.964V137.447H361.461V162.049Z" fill="#A9B7F2"/>
<path d="M392.953 199.597H405.455V174.955H392.953V199.597Z" fill="#A9B7F2"/>
<path d="M361.461 199.597H373.964V174.955H361.461V199.597Z" fill="#A9B7F2"/>
<path d="M392.953 237.106H405.455V212.504H392.953V237.106Z" fill="#A9B7F2"/>
<path d="M361.461 237.106H373.964V212.504H361.461V237.106Z" fill="#A9B7F2"/>
<path d="M392.953 274.653H405.455V250.011H392.953V274.653Z" fill="#A9B7F2"/>
<path d="M361.461 274.653H373.964V250.011H361.461V274.653Z" fill="#A9B7F2"/>
<path d="M267.812 298.651H336.254V84.8557H267.812V298.651Z" fill="#C9D2FC"/>
<path d="M320.164 109.417H329.481V100.061H320.164V109.417Z" fill="#A9B7F2"/>
<path d="M297.375 109.417H306.692V100.061H297.375V109.417Z" fill="#A9B7F2"/>
<path d="M274.547 109.417H283.903V100.061H274.547V109.417Z" fill="#A9B7F2"/>
<path d="M320.164 125.872H329.481V116.556H320.164V125.872Z" fill="#A9B7F2"/>
<path d="M297.375 125.872H306.692V116.556H297.375V125.872Z" fill="#A9B7F2"/>
<path d="M274.547 125.872H283.903V116.556H274.547V125.872Z" fill="#A9B7F2"/>
<path d="M320.164 142.368H329.481V133.051H320.164V142.368Z" fill="#A9B7F2"/>
<path d="M297.375 142.368H306.692V133.051H297.375V142.368Z" fill="#A9B7F2"/>
<path d="M274.547 142.368H283.903V133.051H274.547V142.368Z" fill="#A9B7F2"/>
<path d="M320.164 158.863H329.481V149.507H320.164V158.863Z" fill="#A9B7F2"/>
<path d="M297.375 158.863H306.692V149.507H297.375V158.863Z" fill="#A9B7F2"/>
<path d="M274.547 158.863H283.903V149.507H274.547V158.863Z" fill="#A9B7F2"/>
<path d="M320.164 175.318H329.481V166.002H320.164V175.318Z" fill="#A9B7F2"/>
<path d="M297.375 175.318H306.692V166.002H297.375V175.318Z" fill="#A9B7F2"/>
<path d="M274.547 175.318H283.903V166.002H274.547V175.318Z" fill="#A9B7F2"/>
<path d="M320.164 191.814H329.481V182.497H320.164V191.814Z" fill="#A9B7F2"/>
<path d="M297.375 191.814H306.692V182.497H297.375V191.814Z" fill="#A9B7F2"/>
<path d="M274.547 191.814H283.903V182.497H274.547V191.814Z" fill="#A9B7F2"/>
<path d="M320.164 208.309H329.481V198.952H320.164V208.309Z" fill="#A9B7F2"/>
<path d="M297.375 208.309H306.692V198.952H297.375V208.309Z" fill="#A9B7F2"/>
<path d="M274.547 208.309H283.903V198.952H274.547V208.309Z" fill="#A9B7F2"/>
<path d="M320.164 224.764H329.481V215.448H320.164V224.764Z" fill="#A9B7F2"/>
<path d="M297.375 224.764H306.692V215.448H297.375V224.764Z" fill="#A9B7F2"/>
<path d="M274.547 224.764H283.903V215.448H274.547V224.764Z" fill="#A9B7F2"/>
<path d="M320.164 241.259H329.481V231.943H320.164V241.259Z" fill="#A9B7F2"/>
<path d="M297.375 241.259H306.692V231.943H297.375V241.259Z" fill="#A9B7F2"/>
<path d="M274.547 241.259H283.903V231.943H274.547V241.259Z" fill="#A9B7F2"/>
<path d="M320.164 257.755H329.481V248.398H320.164V257.755Z" fill="#A9B7F2"/>
<path d="M297.375 257.755H306.692V248.398H297.375V257.755Z" fill="#A9B7F2"/>
<path d="M274.547 257.755H283.903V248.398H274.547V257.755Z" fill="#A9B7F2"/>
<path d="M320.164 274.21H329.481V264.893H320.164V274.21Z" fill="#A9B7F2"/>
<path d="M297.375 274.21H306.692V264.893H297.375V274.21Z" fill="#A9B7F2"/>
<path d="M274.547 274.21H283.903V264.893H274.547V274.21Z" fill="#A9B7F2"/>
<path d="M49.6641 357.736H118.106V143.941H49.6641V357.736Z" fill="#C9D2FC"/>
<path d="M102.008 168.462H111.324V159.146H102.008V168.462Z" fill="#A9B7F2"/>
<path d="M79.2188 168.462H88.5353V159.146H79.2188V168.462Z" fill="#A9B7F2"/>
<path d="M56.3984 168.462H65.7552V159.146H56.3984V168.462Z" fill="#A9B7F2"/>
<path d="M102.008 184.957H111.324V175.601H102.008V184.957Z" fill="#A9B7F2"/>
<path d="M79.2188 184.957H88.5353V175.601H79.2188V184.957Z" fill="#A9B7F2"/>
<path d="M56.3984 184.957H65.7552V175.601H56.3984V184.957Z" fill="#A9B7F2"/>
<path d="M102.008 201.412H111.324V192.096H102.008V201.412Z" fill="#A9B7F2"/>
<path d="M79.2188 201.412H88.5353V192.096H79.2188V201.412Z" fill="#A9B7F2"/>
<path d="M56.3984 201.412H65.7552V192.096H56.3984V201.412Z" fill="#A9B7F2"/>
<path d="M102.008 217.908H111.324V208.592H102.008V217.908Z" fill="#A9B7F2"/>
<path d="M79.2188 217.908H88.5353V208.592H79.2188V217.908Z" fill="#A9B7F2"/>
<path d="M56.3984 217.908H65.7552V208.592H56.3984V217.908Z" fill="#A9B7F2"/>
<path d="M102.008 234.403H111.324V225.046H102.008V234.403Z" fill="#A9B7F2"/>
<path d="M79.2188 234.403H88.5353V225.046H79.2188V234.403Z" fill="#A9B7F2"/>
<path d="M56.3984 234.403H65.7552V225.046H56.3984V234.403Z" fill="#A9B7F2"/>
<path d="M102.008 250.858H111.324V241.542H102.008V250.858Z" fill="#A9B7F2"/>
<path d="M79.2188 250.858H88.5353V241.542H79.2188V250.858Z" fill="#A9B7F2"/>
<path d="M56.3984 250.858H65.7552V241.542H56.3984V250.858Z" fill="#A9B7F2"/>
<path d="M102.008 267.353H111.324V258.037H102.008V267.353Z" fill="#A9B7F2"/>
<path d="M79.2188 267.353H88.5353V258.037H79.2188V267.353Z" fill="#A9B7F2"/>
<path d="M56.3984 267.353H65.7552V258.037H56.3984V267.353Z" fill="#A9B7F2"/>
<path d="M102.008 283.849H111.324V274.492H102.008V283.849Z" fill="#A9B7F2"/>
<path d="M79.2188 283.849H88.5353V274.492H79.2188V283.849Z" fill="#A9B7F2"/>
<path d="M56.3984 283.849H65.7552V274.492H56.3984V283.849Z" fill="#A9B7F2"/>
<path d="M102.008 300.304H111.324V290.988H102.008V300.304Z" fill="#A9B7F2"/>
<path d="M79.2188 300.304H88.5353V290.988H79.2188V300.304Z" fill="#A9B7F2"/>
<path d="M56.3984 300.304H65.7552V290.988H56.3984V300.304Z" fill="#A9B7F2"/>
<path d="M428.93 298.651H513.585V84.8557H428.93V298.651Z" fill="#C9D2FC"/>
<path d="M498.992 229.846H504.679V119.258H498.992V229.846Z" fill="#A9B7F2"/>
<path d="M483.703 229.846H489.39V119.258H483.703V229.846Z" fill="#A9B7F2"/>
<path d="M468.422 229.846H474.109V119.258H468.422V229.846Z" fill="#A9B7F2"/>
<path d="M453.133 229.846H458.819V119.258H453.133V229.846Z" fill="#A9B7F2"/>
<path d="M437.805 229.846H443.532V119.258H437.805V229.846Z" fill="#A9B7F2"/>
<path d="M428.93 108.53H513.585V96.7131H428.93V108.53Z" fill="#E9EDFD"/>
</g>
<path d="M570.531 115.467C570.531 117.887 572.467 119.863 574.846 119.863C577.266 119.863 579.202 117.887 579.202 115.467C579.202 113.007 577.266 111.031 574.846 111.031C572.467 111.031 570.531 113.007 570.531 115.467Z" stroke="#A9B7F2" stroke-width="2.6" stroke-miterlimit="10"/>
<path d="M259.297 66.9085C259.297 69.4493 261.314 71.4659 263.814 71.4659C266.275 71.4659 268.291 69.4493 268.291 66.9085C268.291 64.408 266.275 62.3511 263.814 62.3511C261.314 62.3511 259.297 64.408 259.297 66.9085Z" stroke="#A9B7F2" stroke-width="2.6" stroke-miterlimit="10"/>
<path d="M198.032 296.996H107.61C96.0756 296.996 86.7188 287.64 86.7188 276.065V35.4093C86.7188 23.8746 96.0756 14.5178 107.61 14.5178H198.032C209.607 14.5178 218.964 23.8746 218.964 35.4093V276.065C218.964 287.64 209.607 296.996 198.032 296.996Z" fill="#1F275F"/>
<path d="M211.784 296.996H121.362C109.787 296.996 100.43 287.64 100.43 276.065V35.4093C100.43 23.8746 109.787 14.5178 121.362 14.5178H211.784C223.319 14.5178 232.676 23.8746 232.676 35.4093V276.065C232.676 287.64 223.319 296.996 211.784 296.996Z" fill="#537EEF"/>
<path d="M211.907 290.664H121.202C113.257 290.664 106.844 284.211 106.844 276.266V36.5788C106.844 28.6336 113.257 22.1807 121.202 22.1807H211.907C219.852 22.1807 226.265 28.6336 226.265 36.5788V276.266C226.265 284.211 219.852 290.664 211.907 290.664Z" fill="white"/>
<path d="M188.711 29.2387H145.355C143.218 29.2387 141.484 27.5044 141.484 25.3669V19.0349H192.583V25.3669C192.583 27.5044 190.849 29.2387 188.711 29.2387Z" fill="#537EEF"/>
<path d="M178.795 22.7451H158.75" stroke="#312220" stroke-width="1.7" stroke-linecap="round" stroke-linejoin="round"/>
<path d="M106.562 76.3057L238.848 176.206" stroke="white" stroke-width="10.3" stroke-miterlimit="10"/>
<path d="M75.1016 92.801L207.388 192.701" stroke="white" stroke-width="10.3" stroke-miterlimit="10"/>
<path d="M138.664 60.3345L255.584 148.619" stroke="white" stroke-width="10.3" stroke-miterlimit="10"/>
<path d="M212.188 62.5527L163.185 134.584C161.532 137.044 161.975 140.351 164.194 142.247L179.923 155.838C187.102 162.049 188.11 168.785 182.181 176.165L156.773 211.939" stroke="white" stroke-width="10.3" stroke-miterlimit="10"/>
<path d="M113.297 149.91H219.731V70.1753H113.297V149.91Z" fill="#D8DFFD"/>
<path d="M130.555 62.3108C130.555 52.1474 141.243 44.5248 151.971 50.0501C153.665 50.9374 155.762 52.9943 156.689 54.6479C159.513 59.7296 159.23 64.7306 157.214 68.7234H157.254L157.133 68.9251C157.079 69.0057 157.025 69.0998 156.972 69.2074L144.671 91.4701L132.329 69.1671C132.276 69.0864 132.235 69.0057 132.208 68.9251L132.128 68.8444C131.119 66.8682 130.555 64.65 130.555 62.3108Z" fill="#F9B857"/>
<path d="M138.422 62.1495C138.422 65.618 141.205 68.4008 144.674 68.4008C148.102 68.4008 150.925 65.618 150.925 62.1495C150.925 58.7214 148.102 55.8982 144.674 55.8982C141.205 55.8982 138.422 58.7214 138.422 62.1495Z" fill="white"/>
<path d="M272.561 229.806H287.161C301.518 229.806 313.134 244.889 313.134 263.442C313.134 282.034 301.518 297.078 287.161 297.078H272.561C258.203 297.078 246.547 282.034 246.547 263.442C246.547 244.889 258.203 229.806 272.561 229.806Z" fill="black"/>
<path d="M90.2623 229.806H104.903C119.22 229.806 130.876 244.889 130.876 263.442C130.876 282.034 119.22 297.078 104.903 297.078H90.2623C75.9045 297.078 64.2891 282.034 64.2891 263.442C64.2891 244.889 75.9045 229.806 90.2623 229.806Z" fill="black"/>
<path d="M159.672 221.659H267.437V269.855H159.672V221.659Z" fill="black"/>
<path d="M183.148 264.128C183.148 282.277 194.521 296.997 208.516 296.997C222.551 296.997 233.925 282.277 233.925 264.128C233.925 246.019 222.551 231.298 208.516 231.298C194.521 231.298 183.148 246.019 183.148 264.128Z" fill="black"/>
<path d="M222.79 296.997H208.513L193.953 282.398L208.513 231.298H222.79V296.997Z" fill="black"/>
<path d="M197.422 264.128C197.422 282.277 208.796 296.997 222.791 296.997C236.826 296.997 248.199 282.277 248.199 264.128C248.199 246.019 236.826 231.298 222.791 231.298C208.796 231.298 197.422 246.019 197.422 264.128Z" fill="#253A6A"/>
<path d="M206.617 263.442C206.617 272.638 212.102 280.058 218.877 280.058C225.613 280.058 231.098 272.638 231.098 263.442C231.098 254.287 225.613 246.826 218.877 246.826C212.102 246.826 206.617 254.287 206.617 263.442Z" fill="white"/>
<path d="M212.305 263.442C212.305 272.638 217.79 280.058 224.565 280.058C231.341 280.058 236.826 272.638 236.826 263.442C236.826 254.287 231.341 246.826 224.565 246.826C217.79 246.826 212.305 254.287 212.305 263.442Z" fill="#B8B8C2"/>
<path d="M341.969 221.659H449.693V269.854H341.969V221.659Z" fill="black"/>
<path d="M365.438 264.127C365.438 282.276 376.77 296.997 390.806 296.997C404.8 296.997 416.174 282.276 416.174 264.127C416.174 246.019 404.8 231.298 390.806 231.298C376.77 231.298 365.438 246.019 365.438 264.127Z" fill="black"/>
<path d="M405.088 296.997H390.811L376.211 282.397L390.811 231.298H405.088V296.997Z" fill="black"/>
<path d="M379.719 264.127C379.719 282.276 391.052 296.997 405.087 296.997C419.082 296.997 430.455 282.276 430.455 264.127C430.455 246.019 419.082 231.298 405.087 231.298C391.052 231.298 379.719 246.019 379.719 264.127Z" fill="#253A6A"/>
<path d="M388.875 263.442C388.875 272.637 394.36 280.058 401.136 280.058C407.912 280.058 413.397 272.637 413.397 263.442C413.397 254.287 407.912 246.825 401.136 246.825C394.36 246.825 388.875 254.287 388.875 263.442Z" fill="white"/>
<path d="M394.602 263.442C394.602 272.637 400.087 280.058 406.822 280.058C413.598 280.058 419.083 272.637 419.083 263.442C419.083 254.287 413.598 246.825 406.822 246.825C400.087 246.825 394.602 254.287 394.602 263.442Z" fill="#B8B8C2"/>
<path d="M254.291 186.611L168.023 232.306L0.890625 232.105L147.696 161.001L174.194 193.669L254.291 186.611Z" fill="#F0C98C"/>
<path d="M466.838 269.855V212.827C466.838 204.68 460.869 197.743 452.803 196.613C445.745 195.645 436.67 194.758 427.273 194.96C427.273 194.96 373.109 161.646 353.266 161.646L228.804 161.001C212.147 160.799 195.692 164.55 180.77 171.971L125.355 199.558L51.67 215.69C51.67 215.69 36.3845 219.804 33.1177 229.725C29.8509 239.647 30.9398 250.576 30.9398 250.576H192.788C192.788 250.576 200.088 227.628 223.4 227.628C246.751 227.628 253.083 255.779 251.632 269.855H373.915C373.915 269.855 373.391 228.072 405.01 229.524C436.63 230.975 434.17 269.855 434.17 269.855H466.838Z" fill="#EAA947"/>
<path d="M465.627 250.576C469.902 250.576 473.33 254.005 473.37 258.28V262.151C473.37 266.427 469.902 269.855 465.627 269.855H434.168C434.168 269.855 434.33 259.328 431.547 250.576H465.627Z" fill="#CF8127"/>
<path d="M276.433 145.272H324.709C328.742 145.272 332.009 148.539 332.009 152.572V161.647H269.133V152.572C269.133 148.539 272.4 145.272 276.433 145.272Z" fill="black"/>
<path d="M267.034 145.272H315.31C319.343 145.272 322.61 148.539 322.61 152.572V161.647H259.734V152.572C259.734 148.539 263.001 145.272 267.034 145.272Z" fill="#CF8127"/>
<path d="M280.423 150.354H277.398V148.942H285.061V150.354H282.077V157.976H280.423V150.354Z" fill="black"/>
<path fill-rule="evenodd" clip-rule="evenodd" d="M292.732 155.879H288.215L287.328 157.976H285.594L289.667 148.942H291.321L295.394 157.976H293.62L292.732 155.879ZM292.208 154.588L290.474 150.636L288.82 154.588H292.208Z" fill="black"/>
<path d="M302.729 157.976L300.309 154.548L297.849 157.976H295.953L299.301 153.379L296.155 148.942H298.05L300.349 152.169L302.648 148.942H304.463L301.277 153.298L304.665 157.976H302.729Z" fill="black"/>
<path d="M306.68 148.942H308.333V157.976H306.68V148.942Z" fill="black"/>
<path d="M411.539 164.349L310.631 221.659H269.977L370.885 164.349H411.539Z" fill="#5E5E5E"/>
<path d="M252.109 197.259L301.272 169.592C305.427 167.253 310.145 166.002 314.945 166.002H344.225C351.807 166.002 359.228 168.14 365.641 172.173L412.384 198.711C413.715 199.437 413.151 201.494 411.618 201.494H253.198C250.859 201.494 250.052 198.388 252.109 197.259Z" fill="black"/>
<path d="M412.672 199.84V219.683C412.672 219.683 369.76 211.052 365.444 260.216H267.44C267.44 260.216 270.061 212.141 251.953 200.405" stroke="black" stroke-width="1.6" stroke-linecap="round" stroke-linejoin="round"/>
<path d="M332.695 201.494C332.695 201.494 342.94 206.011 337.979 260.216" stroke="black" stroke-width="1.6" stroke-linecap="round" stroke-linejoin="round"/>
<path d="M316.969 211.092H326.809C327.898 211.092 328.745 210.205 328.745 209.156V208.229C328.745 207.14 327.898 206.293 326.809 206.293H316.969C315.88 206.293 314.992 207.14 314.992 208.229V209.156C314.992 210.205 315.88 211.092 316.969 211.092Z" fill="black"/>
<path d="M390.929 211.092H400.77C401.819 211.092 402.706 210.205 402.706 209.156V208.229C402.706 207.14 401.819 206.293 400.77 206.293H390.929C389.84 206.293 388.953 207.14 388.953 208.229V209.156C388.953 210.205 389.84 211.092 390.929 211.092Z" fill="black"/>
<path d="M282.562 171.608L226.3 201.494H130.594L194.963 169.995C200.367 167.373 206.296 166.002 212.265 166.002H281.19C284.296 166.002 285.304 170.156 282.562 171.608Z" fill="black"/>
<path d="M212.309 206.293H123.742" stroke="black" stroke-width="1.6" stroke-linecap="round" stroke-linejoin="round"/>
<path d="M264.332 166.002L201.859 201.494H181.008L243.481 166.002H264.332Z" fill="#5E5E5E"/>
<path d="M225.412 166.002L162.939 201.494H156.164L218.636 166.002H225.412Z" fill="#5E5E5E"/>
<path d="M40.4557 269.854H185.083C189.358 269.854 192.786 266.426 192.786 262.151V250.576H30.9375L31.0585 260.498C31.0585 265.66 35.253 269.854 40.4557 269.854Z" fill="#CF8127"/>
<path d="M78.0078 256.101H104.264V248.156H78.0078V256.101Z" fill="white"/>
<path d="M135.395 232.306H58" stroke="black" stroke-width="1.6" stroke-linecap="round" stroke-linejoin="round"/>
<path d="M121.24 238.235H70.3828" stroke="black" stroke-width="1.6" stroke-linecap="round" stroke-linejoin="round"/>
<path d="M121.24 244.123H70.3828" stroke="black" stroke-width="1.6" stroke-linecap="round" stroke-linejoin="round"/>
<path d="M132.171 245.01H165.929C168.792 245.01 171.091 242.712 171.091 239.848V235.008C171.091 232.145 168.792 229.806 165.929 229.806H132.171C129.308 229.806 126.969 232.145 126.969 235.008V239.848C126.969 242.712 129.308 245.01 132.171 245.01Z" fill="white"/>
<path d="M33.0754 229.806H58.6856C61.5491 229.806 63.848 232.145 63.848 235.008V239.848C63.848 242.712 61.5491 245.01 58.6856 245.01H30.7765C30.5345 234.807 32.7124 230.451 33.0754 229.806Z" fill="white"/>
<path d="M171.091 239.848H126.969" stroke="black" stroke-width="1.6" stroke-linecap="round" stroke-linejoin="round"/>
<path d="M63.8477 239.848H30.9375" stroke="black" stroke-width="1.6" stroke-linecap="round" stroke-linejoin="round"/>
<path d="M336.648 21.1325C336.648 6.08907 352.499 -5.24395 368.429 2.98358C370.89 4.27417 374.035 7.33933 375.366 9.79953C379.52 17.3011 379.157 24.7623 376.173 30.6103H376.213L376.012 30.933C375.931 31.0674 375.85 31.2019 375.77 31.3363L357.54 64.3271L339.27 31.296C339.216 31.1884 339.162 31.0809 339.109 30.9733L338.988 30.812H339.028C337.495 27.9082 336.648 24.6413 336.648 21.1325Z" fill="#F9B857"/>
<path d="M348.305 20.9309C348.305 26.0126 352.419 30.1667 357.541 30.1667C362.663 30.1667 366.817 26.0126 366.817 20.9309C366.817 15.8089 362.663 11.6548 357.541 11.6548C352.419 11.6548 348.305 15.8089 348.305 20.9309Z" fill="white"/>
<path d="M434.01 280.703H420.983L399.406 292.238L436.47 291.794L434.01 280.703Z" fill="#101010"/>
<path d="M436.632 296.674L436.471 291.794L399.406 292.238L399.527 297.118L436.632 296.674Z" fill="white"/>
<path d="M411.945 284.938L416.22 286.108" stroke="white" stroke-width="2.9" stroke-linecap="round" stroke-linejoin="round"/>
<path d="M416.141 282.801L420.416 283.97" stroke="white" stroke-width="2.9" stroke-linecap="round" stroke-linejoin="round"/>
<path d="M419.57 262.312H432.879L434.009 280.703H420.7L419.57 262.312Z" fill="#EBB28B"/>
<path d="M410.898 141.44L419.086 274.775H437.598L434.411 141.44H410.898Z" fill="#98BDFC"/>
<path d="M463.971 280.703H450.944L429.367 292.238L466.472 291.794L463.971 280.703Z" fill="#101010"/>
<path d="M466.593 296.674L466.472 291.794L429.367 292.238L429.488 297.118L466.593 296.674Z" fill="white"/>
<path d="M441.914 284.938L446.19 286.107" stroke="white" stroke-width="2.9" stroke-linecap="round" stroke-linejoin="round"/>
<path d="M446.109 282.8L450.384 283.97" stroke="white" stroke-width="2.9" stroke-linecap="round" stroke-linejoin="round"/>
<path d="M448.242 262.312H461.551L463.971 280.703H450.702L448.242 262.312Z" fill="#EBB28B"/>
<path d="M450.106 141.44L468.215 274.775H447.969L421.633 141.44H450.106Z" fill="#98BDFC"/>
<path d="M436.147 215.004L425.823 162.654L418.281 157.734" stroke="#171717" stroke-width="1.3" stroke-linecap="round" stroke-linejoin="round"/>
<path d="M452.763 161.001L441.43 152.087" stroke="#171717" stroke-width="1.3" stroke-linecap="round" stroke-linejoin="round"/>
<path d="M407.389 90.7846L386.82 117.806C384.521 120.388 384.4 124.179 386.457 126.881C389.079 130.309 394.12 130.591 397.145 127.526L419.286 101.916C422.311 98.8508 422.432 93.9304 419.528 90.7443C416.262 87.1548 410.615 87.1952 407.389 90.7846Z" fill="#EBB28B"/>
<path d="M417.473 80.5C417.473 80.5 407.43 81.7906 399.727 96.7131L411.544 110.91L417.473 80.5Z" fill="#537EEF"/>
<path d="M400.941 118.936L372.71 101.23L367.062 107.038L387.552 128.01L400.941 118.936Z" fill="#EBB28B"/>
<path d="M368.151 90.1797L354.156 94.2531C354.156 94.2531 354.156 105.102 367.103 107.038C367.788 107.159 370.974 105.949 371.499 105.465L373.676 99.3348C374.443 98.3265 374.362 96.915 373.515 95.9874L368.151 90.1797Z" fill="#EBB28B"/>
<path d="M369.316 91.9543L364.356 85.461C363.63 84.5737 362.379 84.372 361.532 85.0173C360.726 85.6626 360.605 86.8726 361.25 87.8002L365.808 94.9388L369.316 91.9543Z" fill="#E9B0A0"/>
<path d="M363.352 97.1569L357.383 91.2686C356.576 90.462 355.366 90.3813 354.64 91.1073C353.954 91.7929 354.035 92.9625 354.721 93.8094L360.407 100.343L363.352 97.1569Z" fill="#E9B0A0"/>
<path d="M365.642 93.1239L359.996 87.5986C359.19 86.7516 357.899 86.7516 357.173 87.5179C356.447 88.2438 356.487 89.4941 357.213 90.3411L362.537 96.552L365.642 93.1239Z" fill="#E9B0A0"/>
<path d="M356.172 76.104L353.953 76.225V90.8652L361.778 103.126L364.157 102.924L359.963 87.5177L356.172 76.104Z" fill="#36438D"/>
<path d="M369.277 96.3906L362.743 102.561C362.138 103.287 361.009 103.287 360.404 102.521L346.167 84.7753C345.844 84.3316 345.844 83.6863 346.207 83.2427L353.064 76.7091C353.548 76.0638 354.515 76.0638 354.999 76.7091L369.277 94.5757C369.72 95.1 369.72 95.8663 369.277 96.3906Z" fill="#050907"/>
<path d="M371.456 96.2696L364.923 102.4C364.318 103.166 363.188 103.166 362.584 102.4L348.347 84.6139C348.024 84.1703 348.024 83.5653 348.387 83.1217L355.243 76.5477C355.727 75.9428 356.695 75.9428 357.179 76.5477L371.456 94.4144C371.9 94.979 371.9 95.705 371.456 96.2696Z" fill="white"/>
<path d="M372.138 101.311C372.905 100.948 374.841 98.9719 374.478 95.9471C374.034 91.9543 371.977 88.9295 371.977 88.9295C371.291 87.6389 370.525 87.0339 369.396 87.1952C368.186 87.3566 367.42 88.6472 367.662 89.5344L368.912 92.3173C368.912 92.3173 367.5 95.8261 370.404 101.19L372.138 101.311Z" fill="#EBB28B"/>
<path d="M436.432 77.6365C436.432 77.6365 444.054 79.4111 449.499 82.1536C452.887 83.8878 453.29 87.6386 452.847 91.4297L450.104 141.44H410.902L408.16 93.1236C407.756 87.7999 410.902 82.6376 415.903 80.9033C421.55 79.0078 425.099 77.1525 428.124 76.9912L436.432 77.6365Z" fill="#537EEF"/>
<path d="M408.963 107.804L408.156 93.1235" stroke="#171717" stroke-width="1.3" stroke-linecap="round" stroke-linejoin="round"/>
<path d="M436.428 77.6367L440.945 78.887C440.945 78.887 437.598 85.3803 425.418 84.251C416.868 83.4847 420.296 79.3306 420.296 79.3306L424.531 77.798L436.428 77.6367Z" fill="#EBB28B"/>
<path d="M473.488 106.352L453.242 136.157L458.687 142.126L481.03 120.226L473.488 106.352Z" fill="#EBB28B"/>
<path d="M434.653 137.528L443.284 133.132L442.437 131.236C442.155 130.551 442.316 129.704 442.921 129.26C443.526 128.736 444.373 128.736 445.018 129.22L453.528 135.915L458.69 142.126C454.012 146.159 450.947 146.078 449.213 145.312C448.998 145.393 448.782 145.46 448.567 145.514L441.388 147.571C440.703 147.893 439.937 147.611 439.614 146.966C439.372 146.482 439.291 145.715 440.662 145.03L439.291 145.715C438.606 146.038 437.759 145.715 437.436 145.03C437.113 144.425 437.517 143.618 438.323 143.094L437.275 143.497C436.508 143.82 435.581 143.457 435.298 142.65C435.056 141.924 435.419 141.158 436.105 140.795L437.638 140.029L435.823 140.472C434.976 140.755 434.048 140.311 433.766 139.464C433.524 138.698 433.927 137.891 434.653 137.528Z" fill="#EBB28B"/>
<path d="M437.156 140.271L442.278 137.851" stroke="#171717" stroke-width="0.8" stroke-linecap="round" stroke-linejoin="round"/>
<path d="M438.523 142.973L443.483 140.916" stroke="#171717" stroke-width="0.8" stroke-linecap="round" stroke-linejoin="round"/>
<path d="M440.219 145.191L444.413 143.538" stroke="#171717" stroke-width="0.8" stroke-linecap="round" stroke-linejoin="round"/>
<path d="M445.096 98.1652L470.827 120.347C473.247 122.807 477.038 123.17 479.861 121.235C483.411 118.815 484.016 113.814 481.152 110.627L456.953 86.9531C454.05 83.767 449.17 83.3637 445.782 86.0658C441.991 89.0907 441.668 94.737 445.096 98.1652Z" fill="#EBB28B"/>
<path d="M443.929 79.855C443.929 79.855 457.36 82.4765 468.37 96.4714L456.714 111.676L439.977 99.6979L443.929 79.855Z" fill="#537EEF"/>
<path d="M451.024 107.603L441.305 100.666" stroke="#171717" stroke-width="1.3" stroke-linecap="round" stroke-linejoin="round"/>
<path d="M415.617 35.6519C415.617 35.6519 411.059 39.7253 414.85 48.7998L421.061 36.5391L415.617 35.6519Z" fill="#1F275F"/>
<path d="M441.022 36.7407C441.022 36.7407 446.306 36.1761 447.516 44.3633C448.726 52.5102 442.716 57.3902 436.062 61.3427L441.022 36.7407Z" fill="#1F275F"/>
<path d="M414.773 47.1866C414.773 55.7771 421.589 62.7544 429.978 62.7544C438.367 62.7544 445.183 55.7771 445.183 47.1866C445.183 38.5961 438.367 31.6592 429.978 31.6592C421.589 31.6592 414.773 38.5961 414.773 47.1866Z" fill="#1F275F"/>
<path d="M420.179 53.8814C419.493 55.898 417.315 56.9869 415.299 56.3013C413.242 55.656 412.193 53.4378 412.838 51.4213C413.524 49.4047 415.702 48.3158 417.718 49.0014C419.735 49.687 420.824 51.8649 420.179 53.8814Z" fill="#DD8161"/>
<path d="M424.492 62.8351L424.25 79.6128L436.753 77.5559L435.866 53.4783L424.492 62.8351Z" fill="#EBB28B"/>
<path d="M424.368 71.3449L433.16 62.7544L424.086 64.3273L424.368 71.3449Z" fill="#171717"/>
<path d="M416.581 39.7253C416.581 39.7253 413.193 53.2362 414.726 58.4389C416.259 63.6013 420.292 66.9891 427.027 65.8598C427.027 65.8598 434.771 65.7388 437.069 54.2848C440.538 37.0635 424.93 30.7718 416.581 39.7253Z" fill="#EBB28B"/>
<path d="M434.891 54.285C434.891 54.285 429.93 42.8713 435.335 40.6531C436.948 39.9675 437.876 39.6448 438.643 45.3718C439.409 51.0585 437.433 51.9861 437.433 51.9861L434.891 54.285Z" fill="#1F275F"/>
<path d="M441.75 55.5753C441.065 57.6725 438.806 58.8018 436.709 58.0759C434.652 57.3902 433.523 55.1317 434.209 53.0345C434.894 50.9776 437.193 49.8483 439.25 50.5339C441.347 51.2196 442.476 53.4781 441.75 55.5753Z" fill="#EBB28B"/>
<path d="M439.812 53.1959C439.812 53.1959 436.91 52.2683 436.062 55.4545" stroke="#171717" stroke-width="0.8" stroke-linecap="round" stroke-linejoin="round"/>
<path d="M419.37 52.7522L418.523 55.6964C418.483 55.898 418.604 56.0997 418.806 56.1803L419.773 56.3013" stroke="#1E0B07" stroke-width="0.7" stroke-linecap="round" stroke-linejoin="round"/>
<path d="M425.454 51.865C425.494 52.3893 425.091 52.8329 424.527 52.8732C424.002 52.9136 423.559 52.5103 423.518 51.9456C423.478 51.4213 423.881 50.9777 424.446 50.9373C424.97 50.897 425.414 51.3003 425.454 51.865Z" fill="#171717"/>
<path d="M417.394 51.6231C417.435 52.107 417.072 52.5507 416.548 52.591C416.064 52.591 415.66 52.228 415.62 51.7441C415.58 51.2601 415.943 50.8165 416.467 50.7761C416.951 50.7761 417.354 51.1391 417.394 51.6231Z" fill="#171717"/>
<path d="M422.68 45.3313L429.94 47.6301C429.94 47.6301 428.326 45.4119 426.229 44.7666C424.132 44.1213 422.68 45.3313 422.68 45.3313Z" fill="#171717"/>
<path d="M418.605 45.17L414.773 46.3799C414.773 46.3799 415.418 44.7667 416.548 44.4037C417.637 44.0407 418.605 45.17 418.605 45.17Z" fill="#171717"/>
<path d="M424.489 57.0273C424.489 57.0273 421.827 58.3986 419.125 58.3986C419.125 58.3986 422.795 61.0604 424.489 57.0273Z" fill="white"/>
<path d="M436.955 40.7739C436.955 40.7739 432.922 44.2424 422.92 42.2259C412.918 40.2093 412.515 33.4337 413.724 31.0542C413.724 31.0542 417.395 33.9177 423.444 32.3448C426.832 31.4978 434.414 28.3117 438.931 31.6995C440.504 32.9094 441.392 34.8453 441.029 36.7408C440.746 38.2331 439.738 39.927 436.955 40.7739Z" fill="#1F275F"/>
<path d="M482.445 217.746H508.459V161.968C508.459 156.403 503.942 151.886 498.376 151.886H492.528C486.963 151.886 482.445 156.403 482.445 161.968V217.746Z" stroke="#101010" stroke-width="5.7" stroke-miterlimit="10"/>
<path d="M502.734 291.068C502.734 294.416 505.436 297.118 508.783 297.118C512.131 297.118 514.833 294.416 514.833 291.068C514.833 287.721 512.131 285.019 508.783 285.019C505.436 285.019 502.734 287.721 502.734 291.068Z" fill="#101010"/>
<path d="M476.117 291.068C476.117 294.416 478.819 297.118 482.126 297.118C485.474 297.118 488.176 294.416 488.176 291.068C488.176 287.721 485.474 285.019 482.126 285.019C478.819 285.019 476.117 287.721 476.117 291.068Z" fill="#101010"/>
<path d="M474.781 289.657H516.12C522.008 289.657 526.808 284.857 526.808 278.969V209.277C526.808 203.348 522.008 198.589 516.12 198.589H474.781C468.892 198.589 464.133 203.348 464.133 209.277V278.969C464.133 284.857 468.892 289.657 474.781 289.657Z" fill="#537EEF"/>
<path d="M513.742 275.944H516.041V212.987H513.742V275.944Z" stroke="#171717" stroke-width="1.2" stroke-linecap="round" stroke-linejoin="round"/>
<path d="M501.602 275.944H503.86V212.987H501.602V275.944Z" stroke="#171717" stroke-width="1.2" stroke-linecap="round" stroke-linejoin="round"/>
<path d="M489.422 275.944H491.721V212.987H489.422V275.944Z" stroke="#171717" stroke-width="1.2" stroke-linecap="round" stroke-linejoin="round"/>
<path d="M477.242 275.944H479.541V212.987H477.242V275.944Z" stroke="#171717" stroke-width="1.2" stroke-linecap="round" stroke-linejoin="round"/>
<path d="M566.128 297.078H21.0938" stroke="black" stroke-width="2" stroke-linecap="round" stroke-linejoin="round"/>
</g>
<defs>
<clipPath id="clip0_3198_528">
<rect width="581" height="299" fill="white"/>
</clipPath>
</defs>
</svg>
