<svg width="546" height="403" viewBox="0 0 546 403" fill="none" xmlns="http://www.w3.org/2000/svg">
<g clip-path="url(#clip0_2316_1260)">
<mask id="mask0_2316_1260" style="mask-type:luminance" maskUnits="userSpaceOnUse" x="0" y="0" width="546" height="403">
<path d="M0 0H546V403H0V0Z" fill="white"/>
</mask>
<g mask="url(#mask0_2316_1260)">
<path d="M545.571 285.969H454.891V216.065H545.571V285.969Z" fill="#F5F5F5"/>
<path d="M522.842 285.491C522.755 285.491 522.625 269.918 522.625 250.691C522.625 231.464 522.755 215.891 522.842 215.891C522.973 215.891 523.104 231.464 523.104 250.691C523.104 269.918 522.973 285.491 522.842 285.491Z" fill="#EBEBEB"/>
<path d="M537.91 277.922H530.945V270.048H537.91V277.922Z" fill="#FAFAFA"/>
<path d="M482.578 216.239V231.159H492.852V216.239H482.578Z" fill="#EBEBEB"/>
<path d="M482.578 270.831V285.752H492.852V270.831H482.578Z" fill="#EBEBEB"/>
<path d="M420.32 402.332H570.031V286.97H420.32V402.332Z" fill="#EBEBEB"/>
<path d="M457.852 401.505C458.026 401.505 458.156 375.797 458.156 344.085C458.156 312.33 458.026 286.622 457.852 286.622C457.677 286.622 457.547 312.33 457.547 344.085C457.547 375.797 457.677 401.505 457.852 401.505Z" fill="#E0E0E0"/>
<path d="M433.031 389.021H444.523V376.058H433.031V389.021Z" fill="#FAFAFA"/>
<path d="M524.369 287.231V311.852H507.391V287.231H524.369Z" fill="#E0E0E0"/>
<path d="M524.369 377.363V401.984H507.391V377.363H524.369Z" fill="#E0E0E0"/>
<path d="M303.391 83.7378C303.391 83.8248 304.349 83.9553 305.568 83.9553C306.743 83.9553 307.744 83.8248 307.744 83.7378C307.744 83.6073 306.743 83.4768 305.568 83.4768C304.349 83.4768 303.391 83.6073 303.391 83.7378Z" fill="#EBEBEB"/>
<path d="M294.688 83.7378C294.688 83.8248 295.645 83.9553 296.863 83.9553C298.039 83.9553 299.04 83.8248 299.04 83.7378C299.04 83.6073 298.039 83.4768 296.863 83.4768C295.645 83.4768 294.688 83.6073 294.688 83.7378Z" fill="#EBEBEB"/>
<path d="M285.977 83.7378C285.977 83.8248 286.935 83.9553 288.153 83.9553C289.329 83.9553 290.33 83.8248 290.33 83.7378C290.33 83.6073 289.329 83.4768 288.153 83.4768C286.935 83.4768 285.977 83.6073 285.977 83.7378Z" fill="#EBEBEB"/>
<path d="M277.273 83.7378C277.273 83.8248 278.23 83.9553 279.449 83.9553C280.625 83.9553 281.626 83.8248 281.626 83.7378C281.626 83.6073 280.625 83.4768 279.449 83.4768C278.23 83.4768 277.273 83.6073 277.273 83.7378Z" fill="#EBEBEB"/>
<path d="M268.562 83.7378C268.562 83.8248 269.519 83.9553 270.738 83.9553C271.914 83.9553 272.915 83.8248 272.915 83.7378C272.915 83.6073 271.914 83.4768 270.738 83.4768C269.519 83.4768 268.562 83.6073 268.562 83.7378Z" fill="#EBEBEB"/>
<path d="M259.859 83.7378C259.859 83.8248 260.816 83.9553 262.035 83.9553C263.211 83.9553 264.212 83.8248 264.212 83.7378C264.212 83.6073 263.211 83.4768 262.035 83.4768C260.816 83.4768 259.859 83.6073 259.859 83.7378Z" fill="#EBEBEB"/>
<path d="M251.156 83.7378C251.156 83.8248 252.113 83.9553 253.332 83.9553C254.508 83.9553 255.509 83.8248 255.509 83.7378C255.509 83.6073 254.508 83.4768 253.332 83.4768C252.113 83.4768 251.156 83.6073 251.156 83.7378Z" fill="#EBEBEB"/>
<path d="M242.445 83.7378C242.445 83.8248 243.402 83.9553 244.621 83.9553C245.797 83.9553 246.798 83.8248 246.798 83.7378C246.798 83.6073 245.797 83.4768 244.621 83.4768C243.402 83.4768 242.445 83.6073 242.445 83.7378Z" fill="#EBEBEB"/>
<path d="M233.742 83.7378C233.742 83.8248 234.699 83.9553 235.918 83.9553C237.094 83.9553 238.095 83.8248 238.095 83.7378C238.095 83.6073 237.094 83.4768 235.918 83.4768C234.699 83.4768 233.742 83.6073 233.742 83.7378Z" fill="#EBEBEB"/>
<path d="M225.031 83.7378C225.031 83.8248 225.989 83.9553 227.208 83.9553C228.384 83.9553 229.385 83.8248 229.385 83.7378C229.385 83.6073 228.384 83.4768 227.208 83.4768C225.989 83.4768 225.031 83.6073 225.031 83.7378Z" fill="#EBEBEB"/>
<path d="M216.328 83.7378C216.328 83.8248 217.286 83.9553 218.505 83.9553C219.681 83.9553 220.682 83.8248 220.682 83.7378C220.682 83.6073 219.681 83.4768 218.505 83.4768C217.286 83.4768 216.328 83.6073 216.328 83.7378Z" fill="#EBEBEB"/>
<path d="M207.617 83.7378C207.617 83.8248 208.575 83.9553 209.794 83.9553C210.969 83.9553 211.971 83.8248 211.971 83.7378C211.971 83.6073 210.969 83.4768 209.794 83.4768C208.575 83.4768 207.617 83.6073 207.617 83.7378Z" fill="#EBEBEB"/>
<path d="M198.914 83.7378C198.914 83.8248 199.872 83.9553 201.091 83.9553C202.266 83.9553 203.268 83.8248 203.268 83.7378C203.268 83.6073 202.266 83.4768 201.091 83.4768C199.872 83.4768 198.914 83.6073 198.914 83.7378Z" fill="#EBEBEB"/>
<path d="M190.203 83.7378C190.203 83.8248 191.161 83.9553 192.38 83.9553C193.555 83.9553 194.557 83.8248 194.557 83.7378C194.557 83.6073 193.555 83.4768 192.38 83.4768C191.161 83.4768 190.203 83.6073 190.203 83.7378Z" fill="#EBEBEB"/>
<path d="M181.5 83.7378C181.5 83.8248 182.458 83.9553 183.677 83.9553C184.852 83.9553 185.854 83.8248 185.854 83.7378C185.854 83.6073 184.852 83.4768 183.677 83.4768C182.458 83.4768 181.5 83.6073 181.5 83.7378Z" fill="#EBEBEB"/>
<path d="M172.789 83.7378C172.789 83.8248 173.747 83.9553 174.966 83.9553C176.141 83.9553 177.143 83.8248 177.143 83.7378C177.143 83.6073 176.141 83.4768 174.966 83.4768C173.747 83.4768 172.789 83.6073 172.789 83.7378Z" fill="#EBEBEB"/>
<path d="M164.086 83.7378C164.086 83.8248 165.044 83.9553 166.263 83.9553C167.438 83.9553 168.44 83.8248 168.44 83.7378C168.44 83.6073 167.438 83.4768 166.263 83.4768C165.044 83.4768 164.086 83.6073 164.086 83.7378Z" fill="#EBEBEB"/>
<path d="M155.383 83.7378C155.383 83.8248 156.341 83.9553 157.56 83.9553C158.735 83.9553 159.736 83.8248 159.736 83.7378C159.736 83.6073 158.735 83.4768 157.56 83.4768C156.341 83.4768 155.383 83.6073 155.383 83.7378Z" fill="#EBEBEB"/>
<path d="M146.672 83.7378C146.672 83.8248 147.63 83.9553 148.849 83.9553C150.024 83.9553 151.025 83.8248 151.025 83.7378C151.025 83.6073 150.024 83.4768 148.849 83.4768C147.63 83.4768 146.672 83.6073 146.672 83.7378Z" fill="#EBEBEB"/>
<path d="M137.969 83.7378C137.969 83.8248 138.927 83.9553 140.146 83.9553C141.321 83.9553 142.322 83.8248 142.322 83.7378C142.322 83.6073 141.321 83.4768 140.146 83.4768C138.927 83.4768 137.969 83.6073 137.969 83.7378Z" fill="#EBEBEB"/>
<path d="M129.258 83.7378C129.258 83.8248 130.216 83.9553 131.435 83.9553C132.61 83.9553 133.611 83.8248 133.611 83.7378C133.611 83.6073 132.61 83.4768 131.435 83.4768C130.216 83.4768 129.258 83.6073 129.258 83.7378Z" fill="#EBEBEB"/>
<path d="M120.555 83.7378C120.555 83.8248 121.513 83.9553 122.732 83.9553C123.907 83.9553 124.908 83.8248 124.908 83.7378C124.908 83.6073 123.907 83.4768 122.732 83.4768C121.513 83.4768 120.555 83.6073 120.555 83.7378Z" fill="#EBEBEB"/>
<path d="M111.844 83.7378C111.844 83.8248 112.802 83.9553 114.021 83.9553C115.196 83.9553 116.197 83.8248 116.197 83.7378C116.197 83.6073 115.196 83.4768 114.021 83.4768C112.802 83.4768 111.844 83.6073 111.844 83.7378Z" fill="#EBEBEB"/>
<path d="M109.628 90.1759C109.715 90.1759 109.846 89.2189 109.846 88.0009C109.846 86.8264 109.715 85.8259 109.628 85.8259C109.498 85.8259 109.367 86.8264 109.367 88.0009C109.367 89.2189 109.498 90.1759 109.628 90.1759Z" fill="#EBEBEB"/>
<path d="M109.628 98.8759C109.715 98.8759 109.846 97.9189 109.846 96.7009C109.846 95.5264 109.715 94.5259 109.628 94.5259C109.498 94.5259 109.367 95.5264 109.367 96.7009C109.367 97.9189 109.498 98.8759 109.628 98.8759Z" fill="#EBEBEB"/>
<path d="M109.628 107.576C109.715 107.576 109.846 106.619 109.846 105.401C109.846 104.226 109.715 103.226 109.628 103.226C109.498 103.226 109.367 104.226 109.367 105.401C109.367 106.619 109.498 107.576 109.628 107.576Z" fill="#EBEBEB"/>
<path d="M109.628 116.276C109.715 116.276 109.846 115.319 109.846 114.101C109.846 112.926 109.715 111.926 109.628 111.926C109.498 111.926 109.367 112.926 109.367 114.101C109.367 115.319 109.498 116.276 109.628 116.276Z" fill="#EBEBEB"/>
<path d="M109.628 124.976C109.715 124.976 109.846 124.019 109.846 122.801C109.846 121.626 109.715 120.626 109.628 120.626C109.498 120.626 109.367 121.626 109.367 122.801C109.367 124.019 109.498 124.976 109.628 124.976Z" fill="#EBEBEB"/>
<path d="M107.93 131.979C107.93 132.11 108.627 132.197 109.628 132.197H109.846V131.979C109.846 131.834 109.846 131.675 109.846 131.501C109.846 130.326 109.715 129.326 109.628 129.326C109.498 129.326 109.367 130.326 109.367 131.501C109.367 131.675 109.367 131.834 109.367 131.979L109.628 131.762C108.627 131.805 107.93 131.892 107.93 131.979Z" fill="#EBEBEB"/>
<path d="M99.2188 131.979C99.2188 132.11 100.177 132.197 101.396 132.197C102.571 132.197 103.572 132.11 103.572 131.979C103.572 131.849 102.571 131.762 101.396 131.762C100.177 131.762 99.2188 131.849 99.2188 131.979Z" fill="#EBEBEB"/>
<path d="M90.5156 131.979C90.5156 132.11 91.4734 132.197 92.6923 132.197C93.8677 132.197 94.869 132.11 94.869 131.979C94.869 131.849 93.8677 131.762 92.6923 131.762C91.4734 131.762 90.5156 131.849 90.5156 131.979Z" fill="#EBEBEB"/>
<path d="M81.8047 131.979C81.8047 132.11 82.7625 132.197 83.9814 132.197C85.1568 132.197 86.158 132.11 86.158 131.979C86.158 131.849 85.1568 131.762 83.9814 131.762C82.7625 131.762 81.8047 131.849 81.8047 131.979Z" fill="#EBEBEB"/>
<path d="M73.1016 131.979C73.1016 132.11 74.0593 132.197 75.2783 132.197C76.4537 132.197 77.4549 132.11 77.4549 131.979C77.4549 131.849 76.4537 131.762 75.2783 131.762C74.0593 131.762 73.1016 131.849 73.1016 131.979Z" fill="#EBEBEB"/>
<path d="M64.3984 131.979C64.3984 132.11 65.3561 132.197 66.575 132.197C67.7504 132.197 68.7517 132.11 68.7517 131.979C68.7517 131.849 67.7504 131.762 66.575 131.762C65.3561 131.762 64.3984 131.849 64.3984 131.979Z" fill="#EBEBEB"/>
<path d="M55.6875 131.979C55.6875 132.11 56.6453 132.197 57.8642 132.197C59.0396 132.197 60.0409 132.11 60.0409 131.979C60.0409 131.849 59.0396 131.762 57.8642 131.762C56.6453 131.762 55.6875 131.849 55.6875 131.979Z" fill="#EBEBEB"/>
<path d="M46.9844 131.979C46.9844 132.11 47.9421 132.197 49.1611 132.197C50.3365 132.197 51.3377 132.11 51.3377 131.979C51.3377 131.849 50.3365 131.762 49.1611 131.762C47.9421 131.762 46.9844 131.849 46.9844 131.979Z" fill="#EBEBEB"/>
<path d="M38.2734 131.979C38.2734 132.11 39.2311 132.197 40.45 132.197C41.6254 132.197 42.6267 132.11 42.6267 131.979C42.6267 131.849 41.6254 131.762 40.45 131.762C39.2311 131.762 38.2734 131.849 38.2734 131.979Z" fill="#EBEBEB"/>
<path d="M34.8818 137.33C35.0124 137.33 35.0995 136.329 35.0995 135.155C35.0995 133.937 35.0124 132.98 34.8818 132.98C34.7512 132.98 34.6641 133.937 34.6641 135.155C34.6641 136.329 34.7512 137.33 34.8818 137.33Z" fill="#EBEBEB"/>
<path d="M34.8818 146.03C35.0124 146.03 35.0995 145.029 35.0995 143.855C35.0995 142.637 35.0124 141.68 34.8818 141.68C34.7512 141.68 34.6641 142.637 34.6641 143.855C34.6641 145.029 34.7512 146.03 34.8818 146.03Z" fill="#EBEBEB"/>
<path d="M34.8818 154.73C35.0124 154.73 35.0995 153.729 35.0995 152.555C35.0995 151.337 35.0124 150.38 34.8818 150.38C34.7512 150.38 34.6641 151.337 34.6641 152.555C34.6641 153.729 34.7512 154.73 34.8818 154.73Z" fill="#EBEBEB"/>
<path d="M34.8818 163.43C35.0124 163.43 35.0995 162.429 35.0995 161.255C35.0995 160.037 35.0124 159.08 34.8818 159.08C34.7512 159.08 34.6641 160.037 34.6641 161.255C34.6641 162.429 34.7512 163.43 34.8818 163.43Z" fill="#EBEBEB"/>
<path d="M34.8818 172.13C35.0124 172.13 35.0995 171.129 35.0995 169.955C35.0995 168.737 35.0124 167.78 34.8818 167.78C34.7512 167.78 34.6641 168.737 34.6641 169.955C34.6641 171.129 34.7512 172.13 34.8818 172.13Z" fill="#EBEBEB"/>
<path d="M34.8818 180.83C35.0124 180.83 35.0995 179.829 35.0995 178.655C35.0995 177.437 35.0124 176.48 34.8818 176.48C34.7512 176.48 34.6641 177.437 34.6641 178.655C34.6641 179.829 34.7512 180.83 34.8818 180.83Z" fill="#EBEBEB"/>
<path d="M34.8818 189.53C35.0124 189.53 35.0995 188.529 35.0995 187.355C35.0995 186.137 35.0124 185.18 34.8818 185.18C34.7512 185.18 34.6641 186.137 34.6641 187.355C34.6641 188.529 34.7512 189.53 34.8818 189.53Z" fill="#EBEBEB"/>
<path d="M34.8818 198.23C35.0124 198.23 35.0995 197.229 35.0995 196.055C35.0995 194.837 35.0124 193.88 34.8818 193.88C34.7512 193.88 34.6641 194.837 34.6641 196.055C34.6641 197.229 34.7512 198.23 34.8818 198.23Z" fill="#EBEBEB"/>
<path d="M34.8818 206.93C35.0124 206.93 35.0995 205.929 35.0995 204.755C35.0995 203.537 35.0124 202.58 34.8818 202.58C34.7512 202.58 34.6641 203.537 34.6641 204.755C34.6641 205.929 34.7512 206.93 34.8818 206.93Z" fill="#EBEBEB"/>
<path d="M34.8818 215.63C35.0124 215.63 35.0995 214.629 35.0995 213.455C35.0995 212.237 35.0124 211.28 34.8818 211.28C34.7512 211.28 34.6641 212.237 34.6641 213.455C34.6641 214.629 34.7512 215.63 34.8818 215.63Z" fill="#EBEBEB"/>
<path d="M34.8818 224.33C35.0124 224.33 35.0995 223.329 35.0995 222.155C35.0995 220.937 35.0124 219.98 34.8818 219.98C34.7512 219.98 34.6641 220.937 34.6641 222.155C34.6641 223.329 34.7512 224.33 34.8818 224.33Z" fill="#EBEBEB"/>
<path d="M257.686 98.5714C257.686 98.5714 264.477 94.8304 271.094 110.795C277.711 126.759 279.975 135.851 279.975 135.851C279.975 135.851 281.803 139.244 284.154 137.286C286.548 135.372 290.031 129.63 293.731 131.022C297.519 132.458 298.476 136.895 297.214 143.202C295.995 149.553 293.775 163.517 293.557 164.778C293.383 166.04 293.949 167.91 295.777 166.866C297.606 165.822 308.489 155.469 313.06 160.907C317.675 166.344 311.275 183.44 310.622 185.31C309.969 187.181 310.274 188.051 311.145 188.573C312.015 189.138 315.367 185.31 318.545 182.483C321.767 179.699 325.99 177.002 328.384 180.351C330.778 183.701 330.604 196.881 316.412 217.196L309.273 226.157L297.824 224.634C273.532 219.849 264.259 210.497 263.65 206.408C262.997 202.319 267.916 201.362 272.182 201.144C276.449 200.927 281.498 201.362 281.76 200.361C281.977 199.361 281.629 198.534 279.844 197.664C278.059 196.751 261.604 188.921 261.125 181.787C260.646 174.696 275.665 174.566 277.711 174.087C279.757 173.565 278.843 171.782 277.842 171.042C276.84 170.259 265.522 161.777 260.254 158.079C254.943 154.382 252.505 150.51 254.29 146.856C255.988 143.333 262.474 145.029 265.522 144.768C268.569 144.507 267.524 140.81 267.524 140.81C267.524 140.81 262.866 132.675 256.51 116.58C250.198 100.529 257.86 98.4844 257.86 98.4844" fill="#EBEBEB"/>
<path d="M308.879 223.764C304.177 211.976 297.56 195.75 290.16 177.828C282.803 159.906 276.142 143.681 271.353 131.892C269.002 126.02 267.087 121.278 265.737 117.972C265.084 116.319 264.562 115.058 264.214 114.188C264.04 113.753 263.909 113.419 263.822 113.187C263.706 112.955 263.648 112.839 263.648 112.839C263.648 112.839 263.691 112.955 263.778 113.187C263.866 113.448 263.982 113.782 264.127 114.188C264.475 115.101 264.954 116.363 265.607 118.016C266.869 121.322 268.785 126.107 271.136 132.023C275.794 143.811 282.454 160.037 289.811 177.959C297.169 195.881 303.829 212.106 308.618 223.895" fill="#E0E0E0"/>
<path d="M289.157 139.244C289.114 139.2 288.983 139.505 288.809 139.983C288.591 140.462 288.287 141.201 287.982 142.071C287.285 143.855 286.458 146.378 285.544 149.118C284.673 151.859 283.933 154.338 283.324 156.252C283.034 157.093 282.801 157.804 282.627 158.384C282.453 158.906 282.366 159.167 282.41 159.21C282.41 159.21 282.54 158.949 282.758 158.427C282.976 157.949 283.237 157.209 283.585 156.339C284.238 154.556 285.022 152.033 285.936 149.249C286.806 146.552 287.634 144.072 288.243 142.158C288.504 141.317 288.736 140.607 288.94 140.027C289.114 139.505 289.157 139.244 289.157 139.244Z" fill="#E0E0E0"/>
<path d="M281.323 159.297C281.367 159.21 276.317 157.209 270.004 154.86C263.736 152.511 258.599 150.684 258.555 150.771C258.512 150.902 263.561 152.903 269.874 155.252C276.143 157.601 281.279 159.428 281.323 159.297Z" fill="#E0E0E0"/>
<path d="M293.906 186.311C293.906 186.311 293.602 186.267 293.079 186.224C292.441 186.166 291.672 186.093 290.772 186.006C288.813 185.876 286.157 185.658 283.197 185.31C280.237 184.962 277.581 184.571 275.666 184.266C274.766 184.121 273.997 184.005 273.359 183.918C272.836 183.831 272.531 183.788 272.531 183.831C272.531 183.875 272.836 183.918 273.359 184.049C273.881 184.179 274.665 184.353 275.622 184.527C277.538 184.919 280.193 185.354 283.154 185.702C286.114 186.05 288.813 186.224 290.728 186.311C291.73 186.354 292.513 186.354 293.036 186.354C293.602 186.354 293.906 186.354 293.906 186.311Z" fill="#E0E0E0"/>
<path d="M304.959 169.694C304.959 169.694 304.784 169.911 304.48 170.303C304.175 170.694 303.74 171.303 303.217 172.043C302.172 173.478 300.736 175.523 299.169 177.785C297.645 180.047 296.252 182.135 295.251 183.614C294.772 184.397 294.38 185.006 294.119 185.441C293.858 185.832 293.727 186.093 293.727 186.093C293.771 186.137 293.945 185.919 294.249 185.528C294.554 185.093 294.946 184.527 295.512 183.788C296.557 182.309 297.95 180.264 299.517 178.002C301.084 175.74 302.434 173.696 303.435 172.173C303.914 171.434 304.349 170.825 304.61 170.39C304.872 169.955 305.002 169.737 304.959 169.694Z" fill="#E0E0E0"/>
<path d="M319.111 192.14C319.068 192.096 318.85 192.401 318.458 192.923C318.023 193.503 317.486 194.228 316.848 195.098C315.498 196.968 313.67 199.578 311.624 202.449C309.621 205.364 307.793 207.974 306.53 209.888C305.921 210.787 305.413 211.541 305.007 212.15C304.658 212.715 304.484 213.02 304.484 213.02C304.528 213.02 304.745 212.759 305.137 212.237C305.573 211.657 306.11 210.932 306.748 210.062C308.098 208.191 309.926 205.581 311.972 202.71C313.975 199.796 315.803 197.186 317.065 195.272C317.675 194.373 318.183 193.619 318.589 193.01C318.937 192.444 319.111 192.14 319.111 192.14Z" fill="#E0E0E0"/>
<path d="M304.698 212.411C304.698 212.411 304.307 212.324 303.654 212.237C302.87 212.15 301.898 212.048 300.737 211.932C298.255 211.628 294.903 211.236 291.159 210.714C287.416 210.192 284.064 209.583 281.626 209.192C280.465 208.989 279.507 208.815 278.752 208.67C278.056 208.539 277.664 208.496 277.664 208.539C277.664 208.539 278.056 208.67 278.709 208.8C279.405 208.974 280.363 209.192 281.582 209.453C283.976 209.931 287.372 210.584 291.116 211.106C294.816 211.628 298.255 211.976 300.693 212.193C301.912 212.324 302.913 212.367 303.61 212.411C304.307 212.454 304.698 212.454 304.698 212.411Z" fill="#E0E0E0"/>
<path fill-rule="evenodd" clip-rule="evenodd" d="M8.49615 261.044L8.53968 261.131C9.71508 263.132 12.9801 267.003 12.9801 267.003L30.4805 290.145C32.6572 293.06 37.0541 293.06 39.2743 290.145L57.0358 266.612C58.516 264.524 59.9961 263.132 61.1715 261.174L61.2586 261.044C64.7413 255.084 66.3085 247.863 65.0025 240.164C62.8258 227.897 53.0743 217.892 40.7979 215.586C21.295 211.932 4.27344 226.766 4.27344 245.601C4.27344 251.256 5.84062 256.52 8.49615 261.044ZM21.4256 245.471C21.4256 238.032 27.4332 231.986 34.8774 231.986C42.3216 231.986 48.3292 238.032 48.3292 245.471C48.3292 252.866 42.3216 258.912 34.8774 258.912C27.4332 258.912 21.4256 252.866 21.4256 245.471Z" fill="#F5F5F5"/>
<path d="M148.716 109.664V145.638C148.716 146.421 148.106 147.03 147.323 147.03H71.8794C71.0958 147.03 70.4428 146.378 70.4864 145.595L70.6605 132.458C70.6605 132.153 70.7476 131.849 70.9217 131.631L81.7615 117.189C82.0227 116.841 82.4145 116.624 82.8498 116.624L95.3439 116.537C96.084 116.493 96.737 115.884 96.737 115.101V109.664C96.737 108.924 97.3464 108.272 98.13 108.272H147.323C148.106 108.272 148.716 108.924 148.716 109.664Z" fill="#F5F5F5"/>
<path d="M93.2114 119.669V131.196C93.2114 131.631 92.8197 131.979 92.3843 131.979L75.7546 131.675C75.1016 131.675 74.7098 130.979 75.1016 130.457L82.8941 118.973C83.0247 118.755 83.2859 118.581 83.5471 118.625L92.4279 118.842C92.8632 118.842 93.2114 119.234 93.2114 119.669Z" fill="#EBEBEB"/>
<path d="M68.9609 150.641H150.237V148.118H68.9609V150.641Z" fill="#F5F5F5"/>
<path d="M123.383 149.075C123.383 153.512 126.952 157.122 131.393 157.122C135.833 157.122 139.446 153.512 139.446 149.075C139.446 144.638 135.833 141.071 131.393 141.071C126.952 141.071 123.383 144.638 123.383 149.075Z" fill="#EBEBEB"/>
<path d="M126.688 149.075C126.688 151.685 128.778 153.816 131.39 153.816C134.002 153.816 136.134 151.685 136.134 149.075C136.134 146.465 134.002 144.377 131.39 144.377C128.778 144.377 126.688 146.465 126.688 149.075Z" fill="#FAFAFA"/>
<path d="M96.7858 147.03C97.0034 147.03 97.134 138.374 97.134 127.673C97.134 116.972 97.0034 108.272 96.7858 108.272C96.5681 108.272 96.4375 116.972 96.4375 127.673C96.4375 138.374 96.5681 147.03 96.7858 147.03Z" fill="#EBEBEB"/>
<path d="M79.5469 149.075C79.5469 153.512 83.1602 157.122 87.6006 157.122C92.041 157.122 95.6542 153.512 95.6542 149.075C95.6542 144.638 92.041 141.071 87.6006 141.071C83.1602 141.071 79.5469 144.638 79.5469 149.075Z" fill="#EBEBEB"/>
<path d="M82.8516 149.075C82.8516 151.685 84.9848 153.816 87.5968 153.816C90.2088 153.816 92.3418 151.685 92.3418 149.075C92.3418 146.465 90.2088 144.377 87.5968 144.377C84.9848 144.377 82.8516 146.465 82.8516 149.075Z" fill="#FAFAFA"/>
<path d="M87.5938 134.285C87.5938 134.459 88.7256 134.633 90.1622 134.633C91.5553 134.633 92.7307 134.459 92.7307 134.285C92.7307 134.067 91.5553 133.893 90.1622 133.893C88.7256 133.893 87.5938 134.067 87.5938 134.285Z" fill="#EBEBEB"/>
<path d="M-10.8281 402.332C-10.8281 402.462 125.649 402.549 293.949 402.549C462.292 402.549 598.726 402.462 598.726 402.332C598.726 402.201 462.292 402.114 293.949 402.114C125.649 402.114 -10.8281 402.201 -10.8281 402.332Z" fill="#263238"/>
<path d="M477.007 398.504C465.253 390.369 462.554 375.188 462.989 361.572C463.033 359.31 462.771 356.918 463.86 354.917C464.948 352.916 467.473 351.524 469.519 352.481C471.173 353.264 471.957 355.221 472.871 356.874C474.134 359.006 476.049 360.789 478.226 361.92C479.706 362.66 481.491 363.138 482.927 362.355C484.886 361.268 485.104 358.527 485.104 356.265C485.046 352.06 485.002 347.841 484.973 343.607C484.93 341.345 484.93 339.039 485.626 336.908C486.323 334.733 487.847 332.732 490.023 332.123C492.156 331.514 494.855 332.775 495.291 334.95C495.508 335.907 495.291 336.864 495.378 337.778C495.465 338.735 495.9 339.779 496.771 340.04C497.685 340.301 498.599 339.648 499.252 338.996C501.603 336.69 503.17 333.732 504.65 330.818C506.131 327.86 507.524 324.858 509.657 322.379C511.746 319.856 514.707 317.898 517.928 317.681C521.193 317.507 524.632 319.464 525.459 322.64C526.286 325.859 524.458 329.078 522.456 331.688C519.452 335.516 515.882 338.909 511.964 341.736C511.224 342.258 510.44 342.824 510.179 343.65C509.7 345.173 511.137 346.652 512.617 347.13C514.315 347.696 516.143 347.522 517.928 347.696C519.669 347.913 521.585 348.696 522.281 350.349C523.196 352.655 521.28 355.091 519.408 356.7C515.577 359.876 511.224 362.399 506.609 364.139C504.912 364.748 503.17 365.27 501.821 366.444C500.515 367.619 499.688 369.663 500.515 371.273C501.342 372.839 503.431 373.361 505.173 373.013C506.914 372.708 508.481 371.751 510.136 371.099C513.226 369.924 517.275 370.142 519.278 372.795C520.584 374.579 520.714 377.015 520.061 379.146C519.408 381.234 518.059 383.061 516.622 384.758C511.659 390.587 505.303 395.328 498.077 397.851C490.85 400.374 484.19 401.07 477.007 398.504Z" fill="#E8505B"/>
<path d="M477.789 402.332C478.225 396.938 478.486 396.807 480.488 389.934C482.447 383.061 485.277 375.666 488.455 368.054C489.268 366.169 490.066 364.298 490.849 362.442C491.633 360.615 492.417 358.788 493.287 357.048C495.029 353.568 496.944 350.306 498.903 347.304C500.819 344.303 502.778 341.519 504.606 338.952C506.434 336.342 508.176 333.993 509.873 331.905C513.269 327.686 516.403 324.597 518.624 322.596C519.756 321.596 520.626 320.813 521.236 320.334C521.526 320.073 521.758 319.885 521.932 319.769C522.106 319.624 522.193 319.551 522.193 319.551C522.193 319.58 522.121 319.653 521.976 319.769C521.802 319.914 521.569 320.117 521.279 320.378C520.713 320.9 519.843 321.683 518.754 322.727C516.534 324.771 513.487 327.86 510.135 332.079C508.437 334.167 506.696 336.56 504.867 339.17C503.039 341.736 501.123 344.52 499.208 347.522C497.292 350.523 495.377 353.742 493.679 357.222C492.808 358.962 492.025 360.789 491.241 362.616C490.458 364.472 489.659 366.343 488.847 368.228C485.669 375.84 482.839 383.192 480.837 390.065C478.834 396.894 478.573 396.981 478.051 402.375" fill="#263238"/>
<path d="M493.42 357.005C493.376 357.005 493.289 356.7 493.202 356.048C493.071 355.439 492.941 354.525 492.767 353.394C492.418 351.132 492.07 348 491.722 344.564C491.33 341.127 490.938 337.995 490.59 335.777C490.416 334.646 490.285 333.732 490.155 333.123C490.024 332.471 489.98 332.123 490.024 332.123C490.067 332.123 490.155 332.471 490.329 333.08C490.459 333.689 490.677 334.602 490.895 335.733C491.33 337.952 491.765 341.084 492.114 344.52C492.505 347.913 492.81 351.002 493.071 353.351C493.187 354.424 493.274 355.323 493.332 356.048C493.42 356.657 493.463 357.005 493.42 357.005Z" fill="#263238"/>
<path d="M522.502 351.48C522.502 351.524 522.11 351.567 521.37 351.611C520.63 351.698 519.542 351.785 518.192 351.959C515.537 352.263 511.88 352.785 507.831 353.568C503.826 354.351 500.213 355.178 497.601 355.874C496.339 356.222 495.294 356.526 494.554 356.744C493.814 356.961 493.422 357.048 493.422 357.005C493.422 357.005 493.814 356.831 494.51 356.57C495.207 356.309 496.251 355.961 497.557 355.613C500.126 354.83 503.739 353.916 507.744 353.133C511.793 352.35 515.493 351.872 518.149 351.654C519.498 351.524 520.587 351.48 521.327 351.48C522.11 351.437 522.502 351.437 522.502 351.48Z" fill="#263238"/>
<path d="M480.84 389.412C480.84 389.412 480.767 389.296 480.622 389.064C480.506 388.774 480.347 388.412 480.144 387.977C479.708 387.063 479.142 385.758 478.402 384.062C477.009 380.756 475.181 376.101 473.265 370.925C471.306 365.748 469.565 361.094 468.215 357.744C467.562 356.091 466.996 354.743 466.605 353.742C466.431 353.336 466.285 352.988 466.169 352.698C466.082 352.437 466.039 352.307 466.039 352.307C466.068 352.278 466.14 352.394 466.256 352.655C466.401 352.916 466.561 353.264 466.735 353.699C467.171 354.612 467.78 355.961 468.477 357.614C469.913 360.92 471.698 365.618 473.657 370.751C475.573 375.927 477.357 380.625 478.707 383.975C479.36 385.584 479.882 386.933 480.274 387.933C480.448 388.368 480.593 388.731 480.709 389.021C480.826 389.253 480.869 389.383 480.84 389.412Z" fill="#263238"/>
<path d="M519.493 376.797C519.493 376.826 519.363 376.884 519.101 376.971C518.811 377.058 518.434 377.189 517.97 377.363C516.968 377.667 515.532 378.146 513.834 378.711C510.351 379.842 505.563 381.495 500.251 383.279C494.94 385.106 490.108 386.715 486.582 387.803C484.797 388.325 483.404 388.76 482.403 389.021C481.938 389.137 481.547 389.238 481.227 389.325C480.966 389.383 480.836 389.412 480.836 389.412C480.836 389.383 480.966 389.325 481.227 389.238C481.518 389.151 481.895 389.021 482.359 388.847C483.404 388.499 484.797 388.064 486.495 387.498C489.978 386.367 494.766 384.714 500.121 382.887C505.432 381.104 510.221 379.494 513.747 378.407C515.532 377.885 516.925 377.45 517.926 377.189C518.39 377.073 518.782 376.971 519.101 376.884C519.363 376.826 519.493 376.797 519.493 376.797Z" fill="#263238"/>
<path d="M335.609 402.332H456.806C471.433 402.245 483.796 389.804 483.753 375.144L482.447 70.2093C482.403 55.5498 470.475 43.7613 455.804 43.8048L334.085 44.3703C319.458 44.4573 307.617 56.3763 307.704 70.9923L308.967 375.927C309.054 390.587 320.982 402.375 335.609 402.332Z" fill="#263238"/>
<path d="M334.26 55.9849L357.855 55.8544C361.033 55.8544 363.601 58.5079 363.601 61.8139L363.645 66.1204C363.645 69.4264 366.213 72.0799 369.391 72.0799L415.406 71.8624C418.54 71.8189 421.109 69.1219 421.109 65.8159L421.065 61.5529C421.065 58.2469 423.634 55.5499 426.768 55.5499L435.083 55.5064L455.761 55.4194C465.992 55.3759 474.35 63.6409 474.394 73.9069L475.656 371.534C475.7 381.8 467.428 390.108 457.155 390.195L335.696 390.717C325.423 390.804 317.064 382.496 317.021 372.273L315.758 74.6029C315.715 64.3804 323.986 56.0284 334.26 55.9849Z" fill="#F5F5F5"/>
<path d="M385.799 334.472C385.929 338.082 386.06 341.432 386.19 344.259H368.734L370.867 333.558L385.799 334.472Z" fill="#F5F5F5"/>
<path d="M456.722 338.953L456.591 344.26H387.939C387.809 341.302 387.678 337.996 387.547 334.603L456.722 338.953Z" fill="#F5F5F5"/>
<path d="M369.999 333.471L367.866 344.259H335.695L336.087 331.34L369.999 333.471Z" fill="#F5F5F5"/>
<path d="M384.064 183.005L377.969 147.727L393.902 146.552V183.005H384.064Z" fill="#F5F5F5"/>
<path d="M458.159 319.421L475.485 326.163L475.528 338.43L457.68 337.299L458.159 319.421Z" fill="#F5F5F5"/>
<path d="M458.242 316.637L459.2 283.838V272.267L475.263 273.964L475.438 323.38L458.242 316.637Z" fill="#F5F5F5"/>
<path d="M459.203 246.428L475.137 244.296L475.224 271.31L459.203 269.613V246.428Z" fill="#F5F5F5"/>
<path d="M340.616 272.746L341.312 282.142L360.075 284.186L358.639 291.625L337.307 290.015L337.612 279.314L335.914 272.267L340.616 272.746Z" fill="#F5F5F5"/>
<path d="M374.484 292.799L359.508 291.668L362.773 274.964L375.877 276.312L374.484 292.799Z" fill="#F5F5F5"/>
<path d="M374.356 294.539L373.224 308.459L371.178 327.599L370.35 331.775L336.133 329.6L337.265 291.755L374.356 294.539Z" fill="#F5F5F5"/>
<path fill-rule="evenodd" clip-rule="evenodd" d="M459.023 243.774L475.087 241.686L474.913 193.314L432.468 185.615H384.189L382.448 206.712L432.685 211.541L432.511 213.281L382.317 208.452L378.965 248.951L429.725 242.295L430.03 244.905L378.748 251.604L376.789 275.529L430.465 280.923L458.327 282.881V246.384L431.945 231.029L433.251 228.767L459.023 243.774ZM431.292 277.835L434.079 236.727L455.628 248.168C455.41 249.299 455.628 279.401 455.628 279.401L431.292 277.835Z" fill="#F5F5F5"/>
<path d="M342.398 272.919L361.901 274.877L360.421 282.446L342.921 280.575L342.398 272.919Z" fill="#F5F5F5"/>
<path d="M385.585 328.034C385.643 329.629 385.701 331.195 385.759 332.732L371.219 331.818L371.959 328.077L385.585 328.034Z" fill="#F5F5F5"/>
<path d="M416.837 183.005L414.269 171.39H394.766V146.508L455.756 141.984V165.344L474.78 169.65L474.867 190.661L432.727 183.005H416.837Z" fill="#F5F5F5"/>
<path d="M376.182 113.709L376.705 111.578L353.414 102.356L368.564 71.993C368.825 72.051 369.101 72.08 369.391 72.08L395.119 71.9495L394.423 114.449L376.182 113.709Z" fill="#F5F5F5"/>
<path d="M340.875 97.397L340.918 55.9415L357.853 55.8545C361.031 55.8545 363.599 58.508 363.599 61.814L363.643 66.1205C363.643 68.1215 364.6 69.9485 366.124 70.9925L350.974 101.399L340.875 97.397Z" fill="#F5F5F5"/>
<path fill-rule="evenodd" clip-rule="evenodd" d="M461.333 94.4824L453.497 55.4194L435.082 55.5064H430.381L428.422 99.1804L461.333 94.4824ZM451.059 59.9869L456.414 91.9594L431.948 95.5264L432.558 59.9869H451.059Z" fill="#F5F5F5"/>
<path d="M427.511 99.3111V99.7025C427.468 103.096 427.424 109.229 427.337 115.798L395.297 114.493L395.993 71.9496L415.409 71.8626C418.543 71.8191 421.112 69.1222 421.112 65.8162L421.068 61.5532C421.068 58.2472 423.637 55.55 426.771 55.55H429.514L427.511 99.3111Z" fill="#F5F5F5"/>
<path d="M463.94 94.0909L456.148 55.4194C466.204 55.5934 474.345 63.7714 474.388 73.9069L474.476 93.1774L474.388 92.6119L463.94 94.0909Z" fill="#F5F5F5"/>
<path d="M458.375 141.811L474.7 140.593L474.787 166.997L458.375 163.256V141.811Z" fill="#F5F5F5"/>
<path d="M464.117 94.9609L474.478 93.4819L474.652 136.242L472.432 136.373L464.117 94.9609Z" fill="#F5F5F5"/>
<path d="M431.167 316.158L430.906 281.837L458.332 283.751L457.374 317.376L431.167 316.158Z" fill="#F5F5F5"/>
<path d="M426.111 308.241L387.279 326.816C386.8 314.679 386.365 303.326 386.408 302.586L385.581 302.543L385.146 301.716C384.624 301.977 384.624 301.977 384.885 310.286C385.059 314.897 385.277 321.074 385.538 327.207H372.086L374.089 308.546L376.701 276.399L427.504 281.489L426.111 308.241Z" fill="#F5F5F5"/>
<path d="M330.859 251.256L331.294 246.732L377.875 251.561L375.916 275.442L335.691 271.353L330.859 251.256Z" fill="#F5F5F5"/>
<path d="M394.773 174H412.186L414.189 183.005H394.773V174Z" fill="#F5F5F5"/>
<path fill-rule="evenodd" clip-rule="evenodd" d="M335.609 202.232L381.58 206.625L383.408 184.31L381.623 174.044L338.047 177.045L335.609 202.232ZM378.75 203.624L337.655 198.752L339.875 180.177L377.705 177.785L380.056 184.31L378.75 203.624Z" fill="#F5F5F5"/>
<path d="M333.562 223.677L335.478 203.972L381.449 208.365L379.708 229.376L333.562 223.677Z" fill="#F5F5F5"/>
<path d="M457.592 339.039L475.44 340.17L475.527 338.996V344.259H457.461L457.592 339.039Z" fill="#F5F5F5"/>
<path d="M316.107 87.6094L315.845 88.2619L315.758 74.6029C315.715 64.3804 323.986 56.0284 334.26 55.9849L340.05 55.9414L340.006 97.0924L316.107 87.6094Z" fill="#F5F5F5"/>
<path fill-rule="evenodd" clip-rule="evenodd" d="M387.499 332.862L456.804 337.212L457.326 319.073H457.283L457.326 319.029V318.246L430.292 316.985L430.031 281.75L428.377 281.576L426.94 308.807L387.281 327.773C387.368 329.484 387.441 331.18 387.499 332.862ZM455.628 332.645L393.202 329.252L417.798 317.855L455.628 320.508V332.645Z" fill="#F5F5F5"/>
<path d="M327.381 133.285L325.727 123.671C339.962 118.625 340.963 103.792 340.92 99.311L350.192 102.965L336.218 131.023L327.381 133.285Z" fill="#F5F5F5"/>
<path d="M378.095 248.994L358.766 246.95L362.554 229.898L379.488 231.986L378.095 248.994Z" fill="#F5F5F5"/>
<path d="M338.003 148.031H374.135L377.095 147.813L381.188 171.434L338.307 174.392L339.309 164.126L335.086 148.944L338.003 148.031Z" fill="#F5F5F5"/>
<path fill-rule="evenodd" clip-rule="evenodd" d="M367.082 143.681L374.613 112.622L352.629 103.922L338.438 132.414L338.872 143.681H367.082ZM370.216 115.623L364.645 138.983L342.399 139.809L340.483 132.11L353.5 107.402L370.216 115.623Z" fill="#F5F5F5"/>
<path d="M333.259 279.793L332.606 301.934L316.934 301.064L316.89 301.934L332.562 302.804L331.779 329.339L316.977 328.382L316.89 330.122L331.735 331.079L331.343 344.26H316.89L316.586 270.31L331.343 271.789L333.259 279.793Z" fill="#F5F5F5"/>
<path d="M428.377 100.094L461.505 95.3091L469.82 136.591L428.246 139.679C428.072 133.328 428.202 113.84 428.377 100.094Z" fill="#F5F5F5"/>
<path d="M373.874 143.681H368.867L375.963 114.579L394.378 115.319L393.943 142.202L373.874 143.681Z" fill="#F5F5F5"/>
<path d="M475.609 365.444L475.652 371.534C475.652 371.708 475.652 371.925 475.609 372.099V365.444Z" fill="#F5F5F5"/>
<path d="M427.375 139.723L394.812 142.115L395.247 115.363L427.331 116.668C427.288 125.716 427.244 135.373 427.375 139.723Z" fill="#F5F5F5"/>
<path d="M333.303 226.287L361.731 229.811L357.9 246.863L331.562 244.122L333.303 226.287Z" fill="#F5F5F5"/>
<path d="M325.596 122.801L323.767 112.013L315.931 112.622L315.844 89.3931L340.005 98.9631C340.528 115.319 330.254 121.061 325.596 122.801Z" fill="#F5F5F5"/>
<path d="M334.915 164.518L333.914 174.697L316.196 175.915L316.109 154.948L330.954 150.25L334.915 164.518Z" fill="#F5F5F5"/>
<path d="M326.469 251.561L331.127 270.919L316.587 269.44L316.5 249.169C320.984 247.994 324.858 247.037 326.948 246.646L326.469 251.561Z" fill="#F5F5F5"/>
<path d="M336.259 144.029L316.103 150.38L316.016 138.896L335.867 133.806L336.259 144.029Z" fill="#F5F5F5"/>
<path d="M327.203 243.992C325.592 244.21 322.501 244.862 316.494 246.472L316.32 202.102L331.121 203.537L327.203 243.992Z" fill="#F5F5F5"/>
<path d="M331.301 201.797L316.282 200.361L316.195 178.568L333.651 177.35L331.301 201.797Z" fill="#F5F5F5"/>
<path d="M323.897 123.367C321.081 124.208 318.44 124.875 315.973 125.368L315.93 114.362L322.329 113.884L323.897 123.367Z" fill="#F5F5F5"/>
<path d="M325.685 133.72L316.02 136.199L315.977 126.281C318.473 125.788 321.172 125.107 324.074 124.237L325.685 133.72Z" fill="#F5F5F5"/>
<path fill-rule="evenodd" clip-rule="evenodd" d="M475.437 340.17L475.524 338.996V338.43L457.676 337.299L458.155 319.421L475.481 326.163L475.437 323.379L458.242 316.637L459.199 283.838V272.267L475.263 273.963L475.22 271.31L459.199 269.613V246.428L475.133 244.296L475.089 241.686L459.025 243.774L433.254 228.767L431.948 231.029L458.329 246.384V282.881L430.467 280.923L376.791 275.529L378.75 251.604L430.032 244.905L429.727 242.295L378.967 248.951L382.32 208.452L432.514 213.281L432.688 211.541L382.45 206.712L384.191 185.615H432.47L474.915 193.314L474.871 190.661L432.731 183.005H416.842L414.273 171.39H394.77V146.508L455.76 141.984V165.344L474.784 169.65V166.997L458.372 163.256V141.81L474.697 140.592L474.654 136.242L472.434 136.373L464.119 94.9609L474.48 93.4819V93.1774L474.393 92.6119L463.945 94.0909L456.152 55.4194C456.022 55.4194 455.891 55.4194 455.76 55.4194H453.497L461.333 94.4824L428.421 99.1804L430.38 55.5064L429.51 55.5499L427.507 99.3109V99.7024C427.464 103.095 427.42 109.229 427.333 115.797L395.292 114.492L395.989 71.9494H395.118L394.422 114.449L376.181 113.709L376.704 111.578L353.413 102.356L368.563 71.9929C367.649 71.8624 366.822 71.5144 366.125 70.9924L350.976 101.399L340.876 97.3969L340.919 55.9414H340.049L340.005 97.0924L316.105 87.6094L315.844 88.2619V89.3929L340.005 98.9629C340.528 115.319 330.254 121.061 325.596 122.801L323.767 112.013L315.931 112.622V114.362L322.331 113.883L323.898 123.366C321.083 124.207 318.442 124.874 315.975 125.367V126.281C318.471 125.788 321.17 125.106 324.072 124.236L325.683 133.719L316.018 136.199V138.896L335.869 133.806L336.261 144.029L316.105 150.38V154.947L330.95 150.249L334.912 164.517L333.911 174.696L316.192 175.914V178.568L333.649 177.35L331.299 201.797L316.279 200.361L316.323 202.101L331.124 203.537L327.206 243.992C325.596 244.209 322.505 244.862 316.497 246.471V249.168C320.981 247.994 324.856 247.037 326.945 246.645L326.466 251.561L331.124 270.918L316.584 269.439V270.309L331.342 271.788L333.258 279.792L332.605 301.934L316.932 301.064L316.889 301.934L332.561 302.804L331.777 329.339L316.976 328.382L316.889 330.122L331.734 331.079L331.342 344.259H335.695L336.087 331.34L370 333.471L367.866 344.259H368.737L370.87 333.558L385.802 334.472C385.933 338.082 386.063 341.432 386.194 344.259H387.935C387.805 341.301 387.674 337.995 387.544 334.602L456.718 338.952L456.587 344.259H457.458L457.589 339.039L475.437 340.17ZM371.219 331.818L371.959 328.077L385.585 328.034C385.643 329.629 385.701 331.195 385.759 332.732L371.219 331.818ZM336.131 329.6L337.263 291.755L374.353 294.539L373.221 308.502L371.175 327.599L370.348 331.775L336.131 329.6ZM360.422 282.446L342.922 280.575L342.399 272.919L361.902 274.877L360.422 282.446ZM375.877 276.269L374.484 292.799L359.508 291.668L362.773 274.964L375.877 276.269ZM337.654 279.314L335.957 272.223L340.658 272.702L341.311 282.141L360.118 284.142L358.681 291.581L337.35 289.971L337.654 279.314ZM379.49 231.986L378.097 248.951L358.768 246.95L362.599 229.898L379.49 231.986ZM331.56 244.122L333.258 226.287L361.685 229.811L357.854 246.863L331.56 244.122ZM339.309 164.126L335.086 148.944L338.003 148.031H374.135L377.139 147.813L381.188 171.434L338.351 174.392L339.309 164.126ZM350.148 102.965L336.174 131.022L327.337 133.284L325.726 123.671C339.918 118.625 340.919 103.791 340.876 99.3109L350.148 102.965ZM374.614 112.622L367.039 143.681H338.83L338.394 132.371L352.586 103.922L374.614 112.622ZM394.378 115.319L393.943 142.202L373.831 143.681H368.824L375.92 114.536L394.378 115.319ZM427.333 116.667C427.246 125.715 427.246 135.416 427.377 139.722L394.814 142.158L395.249 115.362L427.333 116.667ZM469.822 136.59L428.247 139.679C428.073 133.328 428.204 113.84 428.378 100.094L461.507 95.3524L469.822 136.59ZM393.943 146.552V182.961H384.104L378.01 147.726L393.943 146.552ZM414.186 182.961H394.814V174H412.227L414.186 182.961ZM381.579 206.625L335.652 202.188L338.09 177.002L381.667 174L383.408 184.266L381.579 206.625ZM381.449 208.365L379.708 229.376L333.562 223.721L335.478 203.972L381.449 208.365ZM375.92 275.399L335.739 271.353L330.863 251.256L331.299 246.732L377.879 251.561L375.92 275.399ZM376.747 276.356L427.507 281.489L426.114 308.198L387.282 326.816C386.804 314.636 386.368 303.282 386.412 302.543L385.585 302.499L385.193 301.716C384.627 301.977 384.627 301.977 384.932 310.242C385.062 314.897 385.323 321.03 385.541 327.207H372.089L374.092 308.546L376.747 276.356ZM458.329 283.751L457.371 317.376L431.164 316.115L430.903 281.793L458.329 283.751ZM456.805 337.212L387.5 332.819C387.442 331.137 387.369 329.455 387.282 327.773L426.985 308.763L428.378 281.576L430.032 281.75L430.293 316.985L457.328 318.246V319.029L456.805 337.212Z" fill="white"/>
<path d="M417.799 317.855L455.63 320.508V332.645L393.203 329.252L417.799 317.855Z" fill="#EBEBEB"/>
<path d="M339.833 180.177L377.707 177.785L380.058 184.31L378.752 203.624L337.656 198.752L339.833 180.177Z" fill="#EBEBEB"/>
<path d="M457.155 390.196L335.697 390.718C325.423 390.805 317.065 382.496 317.021 372.274L316.891 344.26H331.344H335.697H367.868H368.739H386.196H387.937H456.589H457.46H475.526L475.613 365.444V372.1C475.396 382.105 467.255 390.109 457.155 390.196Z" fill="#EBEBEB"/>
<path d="M431.992 95.5264L432.602 59.9434H451.104L456.458 91.9594L431.992 95.5264Z" fill="#EBEBEB"/>
<path d="M342.356 139.809L340.484 132.11L353.501 107.402L370.174 115.623L364.602 138.983L342.356 139.809Z" fill="#EBEBEB"/>
<path d="M455.632 248.211C455.458 249.342 455.632 279.401 455.632 279.401L431.297 277.878L434.083 236.771L455.632 248.211Z" fill="#EBEBEB"/>
<path d="M374.481 272.615L375.787 253.997L334.039 248.646V251.865L339.089 269.004L374.481 272.615Z" fill="#EBEBEB"/>
<path d="M405.344 118.016C405.344 120.8 407.608 123.106 410.438 123.106C413.224 123.106 415.531 120.8 415.531 118.016C415.531 115.189 413.224 112.927 410.438 112.927C407.608 112.927 405.344 115.189 405.344 118.016Z" fill="#E8505B"/>
<g opacity="0.6">
<path d="M405.346 117.798C405.259 120.582 407.435 122.975 410.222 123.062C413.008 123.192 415.402 121.017 415.533 118.233C415.62 115.406 413.443 113.057 410.657 112.926C407.871 112.796 405.476 114.971 405.346 117.798Z" fill="white"/>
</g>
<path d="M407.047 117.842C407.047 119.712 408.57 121.191 410.442 121.191C412.314 121.191 413.838 119.712 413.838 117.842C413.838 115.971 412.314 114.449 410.442 114.449C408.57 114.449 407.047 115.971 407.047 117.842Z" fill="#E8505B"/>
<path d="M331.867 320.856C331.867 322.031 332.868 323.031 334.043 323.031C335.262 323.031 336.22 322.031 336.22 320.856C336.22 319.638 335.262 318.681 334.043 318.681C332.868 318.681 331.867 319.638 331.867 320.856Z" fill="#E8505B"/>
<path d="M335.346 320.16L335.869 307.98L372.567 309.764C373.525 309.807 374.483 309.59 375.353 309.155L427.376 282.924C428.551 282.315 429.335 281.097 429.422 279.749L436.518 142.506C436.518 141.854 436.3 141.201 435.821 140.766C435.342 140.288 434.689 140.07 434.036 140.114L411.747 141.767V117.407H409.135V142.115C409.135 142.724 409.396 143.333 409.875 143.768C410.354 144.203 410.964 144.42 411.617 144.377L433.862 142.724L426.81 279.618C426.81 280.01 426.549 280.401 426.2 280.575L374.178 306.85C373.699 307.067 373.22 307.197 372.698 307.154L335.694 305.37C335.085 305.327 334.476 305.544 334.04 305.936C333.561 306.371 333.3 306.936 333.3 307.545L332.734 320.03L335.346 320.16Z" fill="#E8505B"/>
<path d="M425.68 202.101C425.68 205.755 428.597 208.67 432.254 208.67C435.867 208.67 438.827 205.755 438.827 202.101C438.827 198.491 435.867 195.533 432.254 195.533C428.597 195.533 425.68 198.491 425.68 202.101Z" fill="#E8505B"/>
<path d="M427.68 202.101C427.68 204.624 429.726 206.669 432.251 206.669C434.776 206.669 436.822 204.624 436.822 202.101C436.822 199.578 434.776 197.534 432.251 197.534C429.726 197.534 427.68 199.578 427.68 202.101Z" fill="#FAFAFA"/>
<path fill-rule="evenodd" clip-rule="evenodd" d="M432.255 207.017C434.954 207.017 437.131 204.799 437.131 202.102C437.131 199.405 434.954 197.186 432.255 197.186C429.556 197.186 427.336 199.405 427.336 202.102C427.336 204.799 429.556 207.017 432.255 207.017ZM432.255 197.839C434.606 197.839 436.478 199.753 436.478 202.102C436.478 204.451 434.606 206.365 432.255 206.365C429.904 206.365 427.989 204.451 427.989 202.102C427.989 199.753 429.904 197.839 432.255 197.839Z" fill="#E8505B"/>
<path d="M393.47 174.522H424.814C426.337 174.522 427.6 175.74 427.6 177.263V188.616C427.6 190.139 426.337 191.357 424.814 191.357H424.465V194.054L421.331 191.357H393.47C391.946 191.357 390.727 190.139 390.727 188.616V177.263C390.727 175.74 391.946 174.522 393.47 174.522Z" fill="#E8505B"/>
<g opacity="0.4">
<path d="M393.47 174.522H424.814C426.337 174.522 427.6 175.74 427.6 177.263V188.616C427.6 190.139 426.337 191.357 424.814 191.357H424.465V194.054L421.331 191.357H393.47C391.946 191.357 390.727 190.139 390.727 188.616V177.263C390.727 175.74 391.946 174.522 393.47 174.522Z" fill="white"/>
</g>
<path fill-rule="evenodd" clip-rule="evenodd" d="M420.545 182.744C420.545 181.743 419.718 180.96 418.63 180.96C417.541 180.96 416.758 181.7 416.758 182.744C416.758 183.788 417.541 184.571 418.63 184.571C419.718 184.571 420.545 183.788 420.545 182.744ZM417.28 182.744C417.28 181.961 417.846 181.395 418.63 181.395C419.457 181.395 420.023 181.961 420.023 182.744C420.023 183.527 419.457 184.136 418.63 184.136C417.846 184.136 417.28 183.527 417.28 182.744Z" fill="white"/>
<path fill-rule="evenodd" clip-rule="evenodd" d="M413.273 183.179C413.273 184.005 413.839 184.571 414.623 184.571C415.015 184.571 415.363 184.397 415.581 184.092V184.527H416.06V180.786H415.581V182.265C415.363 181.961 415.015 181.83 414.623 181.83C413.839 181.83 413.273 182.352 413.273 183.179ZM413.752 183.179C413.752 182.613 414.144 182.265 414.667 182.265C415.189 182.265 415.581 182.613 415.581 183.179C415.581 183.744 415.189 184.136 414.667 184.136C414.144 184.136 413.752 183.744 413.752 183.179Z" fill="white"/>
<path d="M413.54 185.397L413.366 185.006C413.279 185.093 413.148 185.136 412.974 185.136C412.713 185.136 412.582 184.962 412.582 184.658V181.874H412.104V184.658C412.104 185.18 412.408 185.528 412.974 185.528C413.192 185.528 413.41 185.484 413.54 185.397ZM412.669 181.004C412.669 180.83 412.539 180.699 412.365 180.699C412.147 180.699 412.016 180.83 412.016 181.004C412.016 181.178 412.147 181.352 412.365 181.352C412.539 181.352 412.669 181.221 412.669 181.004Z" fill="white"/>
<path fill-rule="evenodd" clip-rule="evenodd" d="M408.75 183.353H410.926C410.883 183.832 410.491 184.136 409.969 184.136C409.649 184.136 409.388 184.035 409.185 183.832L408.924 184.136C409.142 184.397 409.533 184.571 409.969 184.571C410.839 184.571 411.405 184.006 411.405 183.179C411.405 182.396 410.839 181.831 410.056 181.831C409.316 181.831 408.75 182.396 408.75 183.223C408.75 183.266 408.75 183.31 408.75 183.353ZM410.926 183.005H409.229C409.272 182.57 409.62 182.222 410.056 182.222C410.535 182.222 410.883 182.57 410.926 183.005Z" fill="white"/>
<path d="M408.31 183.179C408.31 182.396 407.744 181.831 406.917 181.831C406.438 181.831 406.002 182.005 405.828 182.396L406.176 182.657C406.351 182.353 406.612 182.266 406.917 182.266C407.439 182.266 407.831 182.614 407.831 183.179C407.831 183.788 407.439 184.136 406.917 184.136C406.612 184.136 406.351 184.006 406.176 183.745L405.828 184.006C406.002 184.354 406.438 184.571 406.917 184.571C407.744 184.571 408.31 184.006 408.31 183.179Z" fill="white"/>
<path d="M403.656 184.397C403.787 184.484 404.005 184.571 404.222 184.571C404.788 184.571 405.093 184.266 405.093 183.744V182.265H405.528V181.874H405.093V181.265H404.571V181.874H403.831V182.265H404.571V183.701C404.571 184.005 404.44 184.136 404.179 184.136C404.048 184.136 403.874 184.092 403.787 184.049L403.656 184.397Z" fill="white"/>
<path d="M403.13 181.004C403.13 180.83 402.999 180.699 402.825 180.699C402.608 180.699 402.477 180.83 402.477 181.004C402.477 181.178 402.608 181.352 402.825 181.352C402.999 181.352 403.13 181.221 403.13 181.004ZM403.043 181.874H402.564V184.527H403.043V181.874Z" fill="white"/>
<path d="M399.258 181.874L400.433 184.528H400.956L402.131 181.874H401.609L400.694 184.006L399.737 181.874H399.258Z" fill="white"/>
<path fill-rule="evenodd" clip-rule="evenodd" d="M396.469 183.353H398.646C398.603 183.832 398.211 184.136 397.688 184.136C397.369 184.136 397.108 184.035 396.905 183.832L396.644 184.136C396.861 184.397 397.253 184.571 397.688 184.571C398.559 184.571 399.125 184.006 399.125 183.179C399.125 182.396 398.559 181.831 397.775 181.831C396.992 181.831 396.469 182.396 396.469 183.223C396.469 183.266 396.469 183.31 396.469 183.353ZM398.646 183.005H396.905C396.992 182.57 397.297 182.222 397.775 182.222C398.254 182.222 398.603 182.57 398.646 183.005Z" fill="white"/>
<path fill-rule="evenodd" clip-rule="evenodd" d="M404.742 104.226V104.27C405.003 104.661 405.7 105.488 405.7 105.488L409.4 110.447C409.879 111.056 410.793 111.056 411.272 110.447L415.059 105.444C415.364 104.966 415.712 104.661 415.93 104.27L415.973 104.226C416.714 102.965 417.062 101.442 416.757 99.7894C416.322 97.1794 414.232 95.0479 411.62 94.5694C407.441 93.7864 403.828 96.9184 403.828 100.964C403.828 102.138 404.176 103.269 404.742 104.226ZM407.484 100.92C407.484 99.3109 408.747 98.0494 410.358 98.0494C411.925 98.0494 413.231 99.3109 413.231 100.92C413.231 102.486 411.925 103.791 410.358 103.791C408.747 103.791 407.484 102.486 407.484 100.92Z" fill="#E8505B"/>
<path d="M422.5 357.483H421.281V357.048H424.198V357.483H422.979V360.572H422.5V357.483Z" fill="#263238"/>
<path fill-rule="evenodd" clip-rule="evenodd" d="M424.156 359.223C424.156 358.44 424.766 357.875 425.549 357.875C426.377 357.875 426.942 358.44 426.942 359.223C426.942 360.05 426.377 360.615 425.549 360.615C424.766 360.615 424.156 360.05 424.156 359.223ZM426.464 359.223C426.464 358.658 426.072 358.31 425.549 358.31C425.027 358.31 424.679 358.658 424.679 359.223C424.679 359.832 425.027 360.18 425.549 360.18C426.072 360.18 426.464 359.832 426.464 359.223Z" fill="#263238"/>
<path d="M429.114 360.441C428.984 360.572 428.766 360.615 428.548 360.615C427.982 360.615 427.678 360.311 427.678 359.789V358.31H427.242V357.918H427.678V357.309H428.2V357.918H428.94V358.31H428.2V359.745C428.2 360.05 428.331 360.224 428.592 360.224C428.722 360.224 428.896 360.137 428.984 360.093L429.114 360.441Z" fill="#263238"/>
<path fill-rule="evenodd" clip-rule="evenodd" d="M431.859 358.962V360.572H431.38V360.224C431.206 360.485 430.945 360.615 430.509 360.615C429.9 360.615 429.508 360.311 429.508 359.832C429.508 359.397 429.813 359.049 430.596 359.049H431.38V358.962C431.38 358.527 431.119 358.31 430.64 358.31C430.335 358.31 429.987 358.397 429.813 358.571L429.595 358.223C429.856 358.005 430.248 357.875 430.683 357.875C431.423 357.875 431.859 358.223 431.859 358.962ZM431.38 359.745V359.397H430.596C430.117 359.397 429.987 359.571 429.987 359.789C429.987 360.093 430.204 360.224 430.596 360.224C430.945 360.224 431.249 360.093 431.38 359.745Z" fill="#263238"/>
<path d="M432.727 356.831H433.249V360.572H432.727V356.831Z" fill="#263238"/>
<path fill-rule="evenodd" clip-rule="evenodd" d="M438.036 356.831V360.572H437.601V360.137C437.383 360.441 437.035 360.615 436.643 360.615C435.859 360.615 435.25 360.05 435.25 359.223C435.25 358.44 435.859 357.875 436.643 357.875C436.991 357.875 437.34 358.005 437.557 358.31V356.831H438.036ZM437.557 359.223C437.557 358.658 437.165 358.31 436.643 358.31C436.164 358.31 435.772 358.658 435.772 359.223C435.772 359.832 436.164 360.18 436.643 360.18C437.165 360.18 437.557 359.832 437.557 359.223Z" fill="#263238"/>
<path d="M438.867 357.092C438.867 356.874 439.041 356.744 439.216 356.744C439.39 356.744 439.564 356.874 439.564 357.048C439.564 357.266 439.39 357.396 439.216 357.396C439.041 357.396 438.867 357.266 438.867 357.092ZM438.954 357.918H439.477V360.572H438.954V357.918Z" fill="#263238"/>
<path d="M440.039 360.311L440.257 359.919C440.474 360.093 440.823 360.18 441.171 360.18C441.65 360.18 441.824 360.05 441.824 359.832C441.824 359.223 440.126 359.745 440.126 358.701C440.126 358.179 440.561 357.875 441.258 357.875C441.606 357.875 441.998 357.962 442.216 358.136L441.998 358.484C441.78 358.353 441.519 358.31 441.258 358.31C440.823 358.31 440.605 358.44 440.605 358.658C440.605 359.31 442.303 358.788 442.303 359.832C442.303 360.311 441.867 360.615 441.171 360.615C440.692 360.615 440.257 360.485 440.039 360.311Z" fill="#263238"/>
<path d="M444.439 360.441C444.265 360.572 444.047 360.615 443.829 360.615C443.307 360.615 443.002 360.311 443.002 359.789V358.31H442.523V357.918H443.002V357.309H443.481V357.918H444.265V358.31H443.481V359.745C443.481 360.05 443.612 360.224 443.917 360.224C444.047 360.224 444.178 360.137 444.265 360.093L444.439 360.441Z" fill="#263238"/>
<path fill-rule="evenodd" clip-rule="evenodd" d="M447.14 358.962V360.572H446.705V360.224C446.53 360.485 446.226 360.615 445.79 360.615C445.181 360.615 444.789 360.311 444.789 359.832C444.789 359.397 445.094 359.049 445.877 359.049H446.661V358.962C446.661 358.527 446.4 358.31 445.921 358.31C445.616 358.31 445.312 358.397 445.094 358.571L444.876 358.223C445.181 358.005 445.573 357.875 446.008 357.875C446.748 357.875 447.14 358.223 447.14 358.962ZM446.661 359.745V359.397H445.921C445.442 359.397 445.312 359.571 445.312 359.789C445.312 360.093 445.529 360.224 445.877 360.224C446.269 360.224 446.53 360.093 446.661 359.745Z" fill="#263238"/>
<path d="M450.58 359.049V360.572H450.101V359.093C450.101 358.571 449.84 358.31 449.361 358.31C448.882 358.31 448.534 358.614 448.534 359.223V360.572H448.055V357.918H448.49V358.31C448.708 358.049 449.056 357.875 449.491 357.875C450.144 357.875 450.58 358.266 450.58 359.049Z" fill="#263238"/>
<path d="M451.273 359.223C451.273 358.44 451.839 357.875 452.667 357.875C453.145 357.875 453.537 358.092 453.755 358.44L453.407 358.701C453.232 358.44 452.971 358.31 452.667 358.31C452.144 358.31 451.752 358.658 451.752 359.223C451.752 359.832 452.144 360.18 452.667 360.18C452.971 360.18 453.232 360.05 453.407 359.789L453.755 360.05C453.537 360.398 453.145 360.615 452.667 360.615C451.839 360.615 451.273 360.05 451.273 359.223Z" fill="#263238"/>
<path fill-rule="evenodd" clip-rule="evenodd" d="M456.757 359.397H454.58C454.667 359.876 455.016 360.18 455.582 360.18C455.872 360.18 456.119 360.079 456.322 359.876L456.626 360.18C456.365 360.441 455.973 360.615 455.538 360.615C454.667 360.615 454.102 360.05 454.102 359.223C454.102 358.44 454.667 357.875 455.451 357.875C456.235 357.875 456.757 358.44 456.757 359.267C456.757 359.31 456.757 359.354 456.757 359.397ZM454.58 359.049H456.322C456.278 358.614 455.93 358.266 455.451 358.266C454.972 358.266 454.624 358.614 454.58 359.049Z" fill="#263238"/>
<path d="M425.679 364.574V373.013H423.72V366.14H422.023V364.574H425.679Z" fill="#263238"/>
<path d="M429.425 371.925C429.425 372.23 429.381 372.447 429.12 373.1L428.423 374.84H427.204L427.77 372.926C427.335 372.795 427.117 372.404 427.117 371.925C427.117 371.229 427.596 370.751 428.293 370.751C428.946 370.751 429.425 371.229 429.425 371.925Z" fill="#263238"/>
<path d="M433.383 364.574V373.013H431.424V366.14H429.727V364.574H433.383Z" fill="#263238"/>
<path fill-rule="evenodd" clip-rule="evenodd" d="M434.867 368.793C434.867 366.009 436.391 364.4 438.481 364.4C440.57 364.4 442.094 366.009 442.094 368.793C442.094 371.577 440.57 373.143 438.481 373.143C436.391 373.143 434.867 371.577 434.867 368.793ZM440.135 368.793C440.135 366.879 439.438 366.053 438.481 366.053C437.523 366.053 436.826 366.879 436.826 368.793C436.826 370.707 437.523 371.49 438.481 371.49C439.438 371.49 440.135 370.707 440.135 368.793Z" fill="#263238"/>
<path fill-rule="evenodd" clip-rule="evenodd" d="M443.047 368.793C443.047 366.009 444.614 364.4 446.66 364.4C448.75 364.4 450.317 366.009 450.317 368.793C450.317 371.577 448.75 373.143 446.66 373.143C444.614 373.143 443.047 371.577 443.047 368.793ZM448.314 368.793C448.314 366.879 447.661 366.053 446.66 366.053C445.702 366.053 445.049 366.879 445.049 368.793C445.049 370.707 445.702 371.49 446.66 371.49C447.661 371.49 448.314 370.707 448.314 368.793Z" fill="#263238"/>
<path d="M466.033 369.272V373.013H464.161V369.576C464.161 368.532 463.682 368.054 462.942 368.054C462.071 368.054 461.505 368.576 461.505 369.75V373.013H459.59V369.576C459.59 368.532 459.155 368.054 458.371 368.054C457.544 368.054 456.934 368.576 456.934 369.75V373.013H455.062V366.488H456.847V367.271C457.37 366.705 458.066 366.401 458.893 366.401C459.808 366.401 460.591 366.749 461.027 367.488C461.549 366.792 462.421 366.401 463.378 366.401C464.946 366.401 466.033 367.314 466.033 369.272Z" fill="#263238"/>
<path d="M417.06 363.878C417.06 367.923 413.795 371.186 409.747 371.186C405.742 371.186 402.477 367.923 402.477 363.878C402.477 359.876 405.742 356.613 409.747 356.613C413.795 356.613 417.06 359.876 417.06 363.878Z" fill="#E8505B"/>
<path d="M406.784 365.226C406.784 365.183 407.48 365.139 408.655 365.096C409.874 365.052 411.572 365.052 413.618 365.009L413.444 365.357C412.878 364.704 412.269 363.965 411.616 363.182L411.485 363.051L411.616 362.921C412.196 362.196 412.806 361.427 413.444 360.615L413.618 361.007C413.357 361.007 413.081 361.007 412.791 361.007C410.614 361.007 408.612 360.963 406.784 360.963L407.001 360.789C407.001 362.964 406.958 364.835 406.914 366.14C406.871 367.445 406.827 368.228 406.784 368.228C406.74 368.228 406.74 367.445 406.696 366.14C406.653 364.835 406.609 362.964 406.609 360.789V360.572H406.784C408.612 360.572 410.614 360.572 412.791 360.528C413.081 360.528 413.357 360.528 413.618 360.528H414.097L413.792 360.92C413.154 361.703 412.53 362.457 411.92 363.182V362.921C412.573 363.704 413.183 364.4 413.749 365.096L414.054 365.4H413.618C411.572 365.4 409.874 365.357 408.655 365.357C407.48 365.313 406.784 365.27 406.784 365.226Z" fill="#FAFAFA"/>
<path d="M340.878 351.48H362.906C365.214 351.48 367.129 353.351 367.129 355.7V373.013C367.129 375.318 365.214 377.232 362.906 377.232H362.34V381.365L357.552 377.232H340.878C338.528 377.232 336.656 375.318 336.656 373.013V355.7C336.656 353.351 338.528 351.48 340.878 351.48Z" fill="#E8505B"/>
<path d="M360.774 359.398V368.315C360.774 368.489 360.643 368.663 360.425 368.663H341.793C341.619 368.663 341.445 368.489 341.445 368.315L341.488 365.053C341.488 364.966 341.517 364.893 341.575 364.835L344.231 361.268C344.318 361.181 344.405 361.138 344.492 361.138L347.583 361.094C347.801 361.094 347.931 360.964 347.931 360.746V359.398C347.931 359.224 348.105 359.05 348.279 359.05H360.425C360.643 359.05 360.774 359.224 360.774 359.398Z" fill="#FAFAFA"/>
<path d="M347.057 361.877V364.748C347.057 364.835 346.97 364.922 346.883 364.922L342.747 364.878C342.573 364.835 342.486 364.661 342.573 364.53L344.532 361.703C344.561 361.645 344.604 361.616 344.662 361.616L346.883 361.703C346.97 361.703 347.057 361.79 347.057 361.877Z" fill="#E8505B"/>
<path d="M341.094 369.533H361.163V368.924H341.094V369.533Z" fill="#FAFAFA"/>
<path d="M354.5 369.142C354.5 370.273 355.414 371.143 356.502 371.143C357.591 371.143 358.505 370.273 358.505 369.142C358.505 368.054 357.591 367.184 356.502 367.184C355.414 367.184 354.5 368.054 354.5 369.142Z" fill="#E8505B"/>
<path d="M355.328 369.141C355.328 369.794 355.85 370.316 356.503 370.316C357.156 370.316 357.679 369.794 357.679 369.141C357.679 368.532 357.156 368.01 356.503 368.01C355.85 368.01 355.328 368.532 355.328 369.141Z" fill="#FAFAFA"/>
<path d="M347.931 368.663C348.018 368.663 348.062 366.488 348.062 363.878C348.062 361.225 348.018 359.05 347.931 359.05C347.888 359.05 347.844 361.225 347.844 363.878C347.844 366.488 347.888 368.663 347.931 368.663Z" fill="#E8505B"/>
<path d="M343.703 369.142C343.703 370.273 344.573 371.143 345.662 371.143C346.793 371.143 347.664 370.273 347.664 369.142C347.664 368.054 346.793 367.184 345.662 367.184C344.573 367.184 343.703 368.054 343.703 369.142Z" fill="#E8505B"/>
<path d="M344.484 369.141C344.484 369.794 345.05 370.316 345.66 370.316C346.313 370.316 346.835 369.794 346.835 369.141C346.835 368.532 346.313 368.01 345.66 368.01C345.05 368.01 344.484 368.532 344.484 369.141Z" fill="#FAFAFA"/>
<path d="M345.664 365.488C345.664 365.531 345.969 365.575 346.317 365.575C346.666 365.575 346.927 365.531 346.927 365.488C346.927 365.444 346.666 365.401 346.317 365.401C345.969 365.401 345.664 365.444 345.664 365.488Z" fill="#E8505B"/>
<path d="M137.877 219.588C137.877 219.588 123.859 221.937 122.727 222.242C121.595 222.546 117.111 224.634 116.893 226.026C116.676 227.375 116.893 231.377 116.893 231.377C116.893 231.377 117.721 232.029 118.199 230.724C118.722 229.419 118.635 226.809 118.635 226.809L121.116 225.852L119.767 228.288L119.549 233.9C119.549 233.9 121.29 233.769 121.639 232.421C121.943 231.072 121.943 229.55 121.943 229.55L123.772 228.027L122.422 229.854L121.943 233.9C121.943 233.9 123.293 234.335 123.685 233.465C124.12 232.551 124.164 229.854 124.164 229.854L129.257 228.071L132.653 229.941L138.965 226.374L137.877 219.588Z" fill="#FFBE9D"/>
<path d="M187.07 184.875C186.983 185.18 170.135 208.365 170.135 208.365L136.266 218.892L137.79 231.594L179.321 223.242L194.035 206.321L187.07 184.875Z" fill="#E8505B"/>
<g opacity="0.2">
<path d="M187.07 184.875C186.983 185.18 170.135 208.365 170.135 208.365L136.266 218.892L137.79 231.594L179.321 223.242L194.035 206.321L187.07 184.875Z" fill="black"/>
</g>
<path d="M246.061 230.289H315.279C316.716 230.289 317.935 229.115 317.935 227.636V219.458C317.935 217.979 316.716 216.804 315.279 216.804H246.061C244.581 216.804 243.406 217.979 243.406 219.458V227.636C243.406 229.115 244.581 230.289 246.061 230.289Z" fill="#F5F5F5"/>
<path d="M246.059 230.289C246.059 230.246 245.885 230.289 245.624 230.202C245.319 230.159 244.884 230.028 244.449 229.68C244.013 229.332 243.578 228.767 243.491 227.94C243.447 227.114 243.491 226.157 243.491 225.069C243.491 223.967 243.491 222.764 243.491 221.459C243.52 220.792 243.534 220.11 243.534 219.414C243.534 218.718 243.839 218.022 244.405 217.544C244.71 217.283 245.015 217.109 245.406 217.022C245.755 216.935 246.146 216.935 246.582 216.935C247.394 216.935 248.236 216.935 249.107 216.935C250.848 216.935 252.691 216.949 254.635 216.978C270.177 216.978 291.595 217.022 315.234 217.022C315.93 217.022 316.583 217.326 317.062 217.805C317.498 218.327 317.715 218.979 317.672 219.675C317.672 221.154 317.672 222.604 317.672 224.025C317.672 224.75 317.672 225.475 317.672 226.2V227.288C317.672 227.636 317.672 227.94 317.585 228.245C317.454 228.897 317.019 229.419 316.453 229.767C316.163 229.912 315.858 229.999 315.539 230.028C315.234 230.072 314.842 230.072 314.494 230.072C308.922 230.072 303.523 230.072 298.386 230.072C288.156 230.072 278.927 230.115 271.178 230.115C263.429 230.159 257.16 230.159 252.807 230.202C250.63 230.202 248.976 230.246 247.801 230.246C247.249 230.246 246.814 230.246 246.495 230.246C246.204 230.275 246.059 230.289 246.059 230.289C246.059 230.289 246.204 230.289 246.495 230.289C246.814 230.318 247.249 230.333 247.801 230.333C248.976 230.333 250.63 230.333 252.807 230.376C257.16 230.376 263.429 230.42 271.178 230.42C278.927 230.463 288.156 230.463 298.386 230.507C303.523 230.507 308.922 230.507 314.494 230.507C314.842 230.507 315.19 230.507 315.582 230.507C315.93 230.463 316.322 230.333 316.67 230.159C317.323 229.767 317.846 229.115 318.02 228.375C318.151 228.027 318.151 227.592 318.151 227.288V226.2C318.151 225.475 318.151 224.75 318.151 224.025C318.151 222.604 318.151 221.154 318.151 219.675C318.194 218.936 317.933 218.109 317.367 217.5C316.845 216.935 316.061 216.587 315.234 216.587C291.595 216.587 270.177 216.63 254.635 216.63C252.691 216.63 250.848 216.645 249.107 216.674C248.236 216.674 247.394 216.674 246.582 216.674C246.146 216.674 245.755 216.674 245.319 216.761C244.928 216.891 244.536 217.065 244.231 217.326C243.622 217.892 243.273 218.631 243.273 219.371C243.273 220.096 243.273 220.792 243.273 221.459C243.302 222.764 243.317 223.967 243.317 225.069C243.317 226.157 243.317 227.114 243.36 227.94C243.447 228.81 243.97 229.419 244.405 229.767C244.884 230.115 245.319 230.202 245.624 230.246C245.885 230.289 246.059 230.289 246.059 230.289Z" fill="#263238"/>
<path d="M95.4816 366.444C95.7428 386.106 80.0272 402.245 60.3937 402.506C40.7166 402.81 24.5658 387.107 24.261 367.488C23.9998 347.826 39.7154 331.688 59.3489 331.383C79.026 331.122 95.1768 346.782 95.4816 366.444Z" fill="#263238"/>
<path d="M95.4348 366.357C95.4639 366.386 95.4784 366.415 95.4784 366.444C95.7396 386.106 80.024 402.245 60.3905 402.506C40.7134 402.81 24.5626 387.107 24.2578 367.488C24.2578 367.43 24.2578 367.387 24.2578 367.358L95.4348 366.357Z" fill="#263238"/>
<path d="M84.8623 366.575C85.08 380.408 74.0225 391.718 60.2225 391.935C46.4224 392.109 35.0602 381.104 34.886 367.314C34.6684 353.525 45.7259 342.171 59.5259 341.997C73.326 341.78 84.6446 352.785 84.8623 366.575Z" fill="#FAFAFA"/>
<path d="M59.5259 341.997C73.326 341.78 84.6446 352.785 84.8623 366.575L34.886 367.314C34.6683 353.525 45.7258 342.171 59.5259 341.997Z" fill="#E0E0E0"/>
<path d="M75.108 366.749C75.1951 375.144 68.491 382.061 60.089 382.148C51.6871 382.278 44.7653 375.579 44.6347 367.184C44.5041 358.788 51.2518 351.872 59.6537 351.741C68.0556 351.611 74.9774 358.353 75.108 366.749Z" fill="#263238"/>
<path d="M76.7578 314.81C76.7578 314.81 40.3204 303.761 25.2578 343.346L101.528 366.966L76.7578 314.81Z" fill="#E8505B"/>
<path d="M315.103 366.444C315.408 386.106 299.692 402.245 280.015 402.506C260.382 402.81 244.187 387.107 243.926 367.488C243.621 347.826 259.337 331.688 279.014 331.383C298.648 331.122 314.842 346.782 315.103 366.444Z" fill="#263238"/>
<path d="M315.107 366.357C315.107 366.386 315.107 366.415 315.107 366.444C315.412 386.106 299.696 402.245 280.019 402.506C260.386 402.81 244.191 387.107 243.93 367.488C243.93 367.43 243.93 367.387 243.93 367.358L315.107 366.357Z" fill="#263238"/>
<path d="M304.526 366.575C304.701 380.408 293.687 391.718 279.887 391.935C266.086 392.109 254.724 381.104 254.55 367.314C254.332 353.525 265.346 342.171 279.146 341.997C292.947 341.78 304.309 352.785 304.526 366.575Z" fill="#FAFAFA"/>
<path d="M279.147 341.997C292.947 341.78 304.309 352.785 304.526 366.575L254.55 367.314C254.333 353.525 265.346 342.171 279.147 341.997Z" fill="#E0E0E0"/>
<path d="M294.729 366.749C294.859 375.144 288.155 382.061 279.753 382.148C271.351 382.278 264.429 375.579 264.299 367.184C264.168 358.788 270.872 351.872 279.318 351.741C287.72 351.611 294.642 358.353 294.729 366.749Z" fill="#263238"/>
<path d="M228.868 352.655C229.086 352.785 247.631 349.827 247.631 349.827C249.633 352.437 252.768 354.09 256.076 354.221C264.086 354.612 271.922 354.96 278.714 355.265C285.026 355.569 289.902 360.92 289.641 367.227C289.423 373.187 284.591 377.972 278.627 378.233L239.185 379.755C232.699 380.016 224.079 376.101 220.031 371.012L228.868 352.655Z" fill="#455A64"/>
<path d="M325.726 336.951C325.726 336.951 327.424 302.282 294.818 295.061V290.58H180.63V301.194C180.63 301.194 197.39 321.378 191.905 338.126C186.42 354.873 184.722 356.57 184.722 356.57H119.726C119.726 356.57 111.847 346.652 111.499 331.949C111.15 317.246 117.245 292.146 121.816 276.051C125.995 261.435 128.607 249.212 128.607 249.212L109.104 242.73C109.104 242.73 73.0151 289.884 71.535 292.538C70.0549 295.191 65.0485 301.368 66.2239 314.94C67.3993 328.469 99.8316 370.316 108.408 375.014C116.94 379.712 124.602 380.016 132.264 381.191C138.925 382.235 188.117 381.539 201.003 381.365C205.487 381.278 209.884 380.147 213.715 377.841C217.589 375.492 220.463 371.621 223.641 365.313L230.432 352.046L325.726 336.951Z" fill="#E8505B"/>
<path d="M317.021 334.515L331.387 357.048C333.216 359.919 330.255 363.53 327.121 362.181C325.597 361.529 323.943 360.485 322.289 358.919C315.715 352.655 303.961 336.168 303.961 336.168L317.021 334.515Z" fill="#455A64"/>
<path d="M213.845 338.561C213.845 338.561 213.816 338.459 213.758 338.256C213.671 338.024 213.569 337.705 213.453 337.299C213.235 336.473 212.931 335.211 212.713 333.602C212.321 330.339 212.495 325.38 214.933 319.986C216.109 317.289 217.85 314.549 220.244 312.026C222.595 309.546 225.555 307.197 228.994 305.37C232.39 303.5 236.265 302.064 240.4 301.107C244.536 300.194 248.933 299.759 253.417 299.759C257.901 299.759 262.297 300.194 266.52 300.759C270.743 301.325 274.792 302.021 278.579 302.891C286.197 304.587 292.814 307.11 297.951 310.025C303.088 312.939 306.745 316.115 309.009 318.464C310.184 319.682 311.011 320.639 311.534 321.335C311.795 321.654 312.013 321.9 312.187 322.074C312.332 322.248 312.404 322.335 312.404 322.335C312.404 322.335 311.403 320.769 309.139 318.377C306.919 315.941 303.262 312.722 298.125 309.764C292.988 306.806 286.328 304.196 278.666 302.456C274.879 301.586 270.786 300.89 266.564 300.281C262.341 299.715 257.944 299.324 253.417 299.324C248.889 299.324 244.449 299.759 240.27 300.672C236.134 301.629 232.216 303.108 228.777 305.022C225.294 306.893 222.334 309.242 219.94 311.765C217.589 314.331 215.804 317.159 214.628 319.856C212.234 325.337 212.104 330.339 212.539 333.602C212.757 335.255 213.105 336.516 213.366 337.343C213.511 337.72 213.627 338.024 213.714 338.256C213.772 338.459 213.816 338.561 213.845 338.561Z" fill="#263238"/>
<path d="M220.421 330.774C220.464 330.774 220.247 330.252 219.985 329.252C219.724 328.251 219.594 326.729 219.855 324.945C220.116 323.118 220.813 321.03 221.988 318.899C222.554 317.811 223.25 316.767 224.078 315.723C224.905 314.679 225.862 313.679 226.907 312.809C229.04 310.982 231.435 309.72 233.698 308.85C235.962 307.937 238.139 307.415 239.924 307.11C241.752 306.806 243.232 306.675 244.277 306.632C245.322 306.588 245.888 306.545 245.888 306.501C245.888 306.501 245.743 306.487 245.452 306.458C245.191 306.458 244.799 306.458 244.277 306.458C243.232 306.458 241.752 306.545 239.88 306.806C238.052 307.067 235.875 307.589 233.568 308.459C231.261 309.329 228.823 310.634 226.603 312.461C225.514 313.374 224.556 314.375 223.729 315.462C222.902 316.506 222.206 317.594 221.596 318.681C220.421 320.856 219.768 323.031 219.55 324.902C219.332 326.772 219.507 328.295 219.811 329.295C219.898 329.817 220.16 330.165 220.247 330.426C220.334 330.687 220.392 330.803 220.421 330.774Z" fill="#F5F5F5"/>
<g opacity="0.4">
<path d="M242.799 300.411C236.4 301.629 230.827 303.935 225.603 307.415C220.336 310.895 216.331 315.854 214.067 321.726C211.803 327.599 212.108 335.342 214.546 340.214L206.449 340.866C203.75 331.818 206.71 320.726 213.24 313.635C220.902 305.283 231.437 300.411 242.799 300.411Z" fill="black"/>
</g>
<path d="M245.363 290.58H315.974C320.066 290.58 323.418 287.274 323.418 283.142V237.075C323.418 232.943 320.066 229.593 315.974 229.593H245.363C241.227 229.593 237.875 232.943 237.875 237.075V283.142C237.875 287.274 241.227 290.58 245.363 290.58Z" fill="#455A64"/>
<path d="M237.875 243.209C237.875 243.339 257.117 243.426 280.842 243.426C304.568 243.426 323.81 243.339 323.81 243.209C323.81 243.078 304.568 242.991 280.842 242.991C257.117 242.991 237.875 243.078 237.875 243.209Z" fill="#263238"/>
<path d="M180.68 294.626C180.68 294.756 206.365 294.843 238.013 294.843C269.662 294.843 295.347 294.756 295.347 294.626C295.347 294.495 269.662 294.408 238.013 294.408C206.365 294.408 180.68 294.495 180.68 294.626Z" fill="#263238"/>
<path d="M180.629 290.58C180.629 290.58 178.714 288.362 178.539 285.491C178.365 282.62 179.671 279.053 182.762 279.053H222.203C228.603 279.053 233.783 284.229 233.783 290.58H180.629Z" fill="#455A64"/>
<path d="M128.61 249.212L135.445 234.944C137.361 230.855 135.837 226.026 132.006 223.764L111.502 211.541C110.414 210.888 109.195 210.54 107.932 210.54H103.492L101.75 239.424L108.585 242.078L104.232 249.081L128.61 249.212Z" fill="#E8505B"/>
<path d="M103.45 211.584C103.45 211.584 96.4414 213.194 95.5272 224.025C94.6565 234.813 101.753 238.206 101.753 238.206L103.45 211.584Z" fill="#EBEBEB"/>
<path d="M126.217 229.332C126.217 229.332 140.409 236.031 142.15 237.162C143.325 237.902 144.37 239.25 143.413 241.599C141.802 245.645 135.185 241.86 135.185 241.86L121.994 235.248C121.994 235.248 116.901 232.856 118.773 229.854C120.862 226.505 126.217 229.332 126.217 229.332Z" fill="#263238"/>
<path d="M146.285 226.896C146.285 226.896 132.964 229.158 131.832 229.463C130.7 229.767 126.26 231.899 126.042 233.248C125.825 234.596 126.042 238.598 126.042 238.598C126.042 238.598 126.826 239.25 127.348 237.945C127.827 236.64 127.784 234.03 127.784 234.03L130.265 233.073L128.915 235.51L128.654 241.165C128.654 241.165 130.396 240.991 130.744 239.642C131.092 238.294 131.092 236.771 131.092 236.771L132.877 235.248L131.527 237.075L131.092 241.165C131.092 241.165 132.398 241.556 132.833 240.686C133.225 239.772 133.269 237.075 133.269 237.075L138.406 235.292L141.758 237.163L147.112 234.248L146.285 226.896Z" fill="#FFBE9D"/>
<path d="M125.516 208.322C125.516 213.716 127.998 218.109 131.088 218.109C134.136 218.109 136.617 213.716 136.617 208.322C136.617 202.971 134.136 198.578 131.088 198.578C127.998 198.578 125.516 202.971 125.516 208.322Z" fill="#263238"/>
<path d="M130.173 215.064L127.126 225.591C125.776 224.895 125.471 223.547 125.689 222.459C126.473 218.849 126.908 216.282 127.735 213.15C127.822 212.802 130.173 215.064 130.173 215.064Z" fill="#263238"/>
<g opacity="0.4">
<path d="M190.387 342.606C190.706 341.736 191.011 340.852 191.301 339.953C191.562 339.083 191.91 338.213 192.128 337.386C192.52 335.864 192.781 334.298 192.868 333.384C198.005 354.308 190.169 369.011 176.717 370.055C157.04 371.577 133.053 372.665 123.345 370.098C105.671 365.487 99.1842 350.741 97.617 348.305C96.0934 345.869 82.0321 320.204 90.6517 295.452C99.2713 270.701 114.29 244.47 114.29 244.47L128.613 249.212C128.613 249.212 126.001 261.435 121.822 276.051C117.251 292.146 111.156 317.246 111.504 331.949C111.853 346.652 119.732 356.57 119.732 356.57H184.727C184.727 356.57 186.12 355.178 190.387 342.606Z" fill="black"/>
</g>
<path d="M328.343 331.514L327.864 326.555L209.236 340.214C202.532 340.997 197.874 347.217 199.049 353.873L199.571 356.874L322.379 339.039C326.079 338.517 328.691 335.211 328.343 331.514Z" fill="#E8505B"/>
<g opacity="0.6">
<path d="M328.343 331.514L327.864 326.555L209.236 340.214C202.532 340.997 197.874 347.217 199.049 353.873L199.571 356.874L322.379 339.039C326.079 338.517 328.691 335.211 328.343 331.514Z" fill="black"/>
</g>
<g opacity="0.3">
<path d="M97.6109 364.661C97.6109 364.661 71.4909 335.951 66.1363 313.375C64.3079 313.375 60.0851 313.548 58.0391 313.983C58.0391 313.983 73.4934 355.961 97.6109 364.661Z" fill="black"/>
</g>
<path d="M66.488 303.282C66.488 303.282 66.4444 303.514 66.3574 303.978C66.3138 304.457 66.1397 305.196 66.0526 306.11C65.8785 307.937 65.7914 310.634 66.2703 313.896C66.7492 317.159 67.8375 320.987 69.7094 324.902C71.5378 328.904 74.0192 332.993 76.6312 337.256C81.8552 345.869 87.6887 352.916 91.9114 357.918C94.0445 360.441 95.7859 362.442 97.0048 363.834C97.6143 364.472 98.0931 364.994 98.4414 365.4C98.7607 365.748 98.9348 365.922 98.9638 365.922C98.9638 365.922 98.8042 365.719 98.485 365.313C98.1657 364.936 97.7159 364.4 97.1354 363.704C95.96 362.268 94.2622 360.224 92.1726 357.744C87.9934 352.655 82.247 345.608 77.023 337.038C74.411 332.732 71.9296 328.686 70.1012 324.728C68.2293 320.813 67.0974 317.072 66.575 313.853C66.0526 310.59 66.1397 307.937 66.2267 306.11C66.3138 305.196 66.4009 304.5 66.4444 304.022C66.5024 303.529 66.517 303.282 66.488 303.282Z" fill="#263238"/>
<path d="M111.675 364.443C111.762 364.53 113.634 362.834 115.854 360.659C118.074 358.484 119.816 356.657 119.728 356.57C119.641 356.483 117.769 358.179 115.506 360.354C113.286 362.529 111.588 364.356 111.675 364.443Z" fill="#263238"/>
<path d="M189.163 363.573C189.294 363.53 188.554 361.79 187.248 359.876C185.942 357.918 184.592 356.613 184.505 356.7C184.418 356.787 185.593 358.223 186.899 360.093C188.162 362.007 189.076 363.617 189.163 363.573Z" fill="#263238"/>
<path d="M239.355 380.147C239.486 380.06 237.483 378.798 235.785 375.623C234.958 374.057 234.262 372.012 234.044 369.663C233.826 367.314 234.175 364.704 235.307 362.225C236.525 359.789 238.354 357.875 240.313 356.57C242.272 355.265 244.274 354.525 246.016 354.177C249.585 353.481 251.806 354.264 251.806 354.09C251.806 354.09 251.675 354.061 251.414 354.003C251.153 353.96 250.761 353.829 250.238 353.786C249.237 353.612 247.757 353.568 245.972 353.873C244.187 354.177 242.098 354.917 240.052 356.222C238.049 357.57 236.134 359.528 234.915 362.051C233.739 364.574 233.391 367.314 233.652 369.707C233.87 372.099 234.61 374.187 235.524 375.753C236.395 377.363 237.396 378.494 238.136 379.146C238.484 379.538 238.833 379.755 239.007 379.929C239.239 380.074 239.355 380.147 239.355 380.147Z" fill="#263238"/>
<path d="M282.676 371.055C282.806 371.055 283.024 369.185 283.111 366.879C283.242 364.574 283.242 362.66 283.111 362.66C282.981 362.66 282.763 364.53 282.676 366.836C282.545 369.185 282.589 371.055 282.676 371.055Z" fill="#263238"/>
<path d="M279.536 371.055C279.667 371.099 280.015 369.228 280.32 366.879C280.581 364.574 280.755 362.66 280.625 362.66C280.494 362.66 280.146 364.53 279.841 366.836C279.58 369.141 279.406 371.055 279.536 371.055Z" fill="#263238"/>
<path d="M230.609 290.58C230.609 290.711 245.018 290.841 262.823 290.841C280.629 290.841 295.038 290.711 295.038 290.58C295.038 290.45 280.629 290.363 262.823 290.363C245.018 290.363 230.609 290.45 230.609 290.58Z" fill="#263238"/>
<path d="M277.319 290.537C277.45 290.537 277.537 274.05 277.537 253.692C277.537 233.291 277.45 216.804 277.319 216.804C277.189 216.804 277.102 233.291 277.102 253.692C277.102 274.05 277.189 290.537 277.319 290.537Z" fill="#263238"/>
<path d="M286.16 290.493C286.291 290.493 285.681 274.007 284.767 253.649C283.897 233.291 283.069 216.804 282.939 216.804C282.808 216.804 283.461 233.291 284.332 253.649C285.203 274.007 286.03 290.493 286.16 290.493Z" fill="#263238"/>
<path d="M306.14 391.109C306.169 391.109 306.299 390.978 306.532 390.717C306.749 390.456 307.141 390.065 307.533 389.543C308.404 388.499 309.579 386.933 310.754 384.845C313.149 380.669 315.543 374.187 315.543 366.792C315.5 359.354 313.062 352.872 310.624 348.74C309.405 346.652 308.229 345.086 307.359 344.042C306.923 343.52 306.575 343.172 306.314 342.911C306.082 342.65 305.966 342.519 305.966 342.519C305.937 342.519 306.038 342.664 306.27 342.954C306.488 343.259 306.836 343.607 307.228 344.172C308.055 345.216 309.144 346.826 310.319 348.914C312.67 353.046 315.021 359.441 315.064 366.792C315.108 374.1 312.8 380.538 310.493 384.671C309.318 386.759 308.229 388.368 307.402 389.456C307.011 389.978 306.662 390.369 306.445 390.674C306.241 390.935 306.14 391.08 306.14 391.109Z" fill="#455A64"/>
<path d="M181.414 324.815L181.675 325.337L186.942 335.211L194.256 342.258L179.585 361.79L167.352 359.789C167.352 359.789 168.702 356.961 174.884 356.439L177.191 344.781L168.571 331.383" fill="#455A64"/>
<path d="M194.256 342.258L179.585 361.79L167.352 359.789L169.05 358.179L179.063 359.267L192.689 340.736L194.256 342.258Z" fill="#E0E0E0"/>
<path d="M175.842 351.089C175.929 351.219 176.669 350.915 177.627 351.132C178.584 351.263 179.194 351.785 179.324 351.698C179.455 351.611 178.889 350.784 177.714 350.567C176.582 350.349 175.755 350.958 175.842 351.089Z" fill="#263238"/>
<path d="M176.54 348.174C176.627 348.305 177.28 347.652 178.281 347.652C179.326 347.609 180.023 348.174 180.11 348.087C180.153 348.044 180.066 347.783 179.761 347.565C179.457 347.304 178.891 347.087 178.281 347.087C177.672 347.13 177.149 347.391 176.845 347.652C176.54 347.913 176.453 348.131 176.54 348.174Z" fill="#263238"/>
<path d="M177.062 344.433C177.192 344.52 177.715 343.911 178.629 343.737C179.543 343.563 180.24 343.998 180.327 343.868C180.37 343.824 180.24 343.607 179.935 343.433C179.63 343.259 179.108 343.085 178.542 343.215C177.976 343.302 177.541 343.607 177.28 343.911C177.062 344.172 177.018 344.39 177.062 344.433Z" fill="#263238"/>
<path d="M174.271 340.997C174.402 341.084 174.88 340.431 175.708 340.083C176.535 339.692 177.318 339.735 177.362 339.605C177.405 339.474 176.491 339.083 175.49 339.561C174.445 340.04 174.14 340.953 174.271 340.997Z" fill="#263238"/>
<path d="M173.1 338.213C173.143 338.256 173.622 337.865 174.362 337.125C174.798 336.69 175.233 336.255 175.668 335.82C175.886 335.559 176.147 335.342 176.365 334.907C176.495 334.689 176.539 334.428 176.452 334.167C176.365 333.906 176.017 333.645 175.755 333.645C175.233 333.645 174.885 333.863 174.536 334.08C174.188 334.254 173.883 334.515 173.622 334.776C173.143 335.342 172.839 335.907 172.708 336.429C172.403 337.517 172.665 338.169 172.708 338.169C172.795 338.169 172.708 337.517 173.056 336.56C173.23 336.125 173.535 335.603 174.014 335.124C174.246 334.892 174.507 334.689 174.798 334.515C175.102 334.341 175.451 334.167 175.712 334.211C175.842 334.211 175.886 334.254 175.929 334.341C175.973 334.472 175.973 334.602 175.886 334.689C175.799 334.95 175.494 335.211 175.276 335.472C174.87 335.936 174.478 336.4 174.101 336.864C173.405 337.647 173.056 338.169 173.1 338.213Z" fill="#263238"/>
<path d="M172.574 338.517C172.661 338.517 172.704 337.865 172.182 337.038C171.659 336.212 170.353 335.255 168.656 335.777C168.525 335.82 168.394 335.994 168.394 336.168C168.351 336.342 168.438 336.473 168.481 336.56C168.568 336.777 168.743 336.908 168.83 337.038C169.091 337.27 169.352 337.488 169.613 337.691C170.179 338.039 170.702 338.256 171.18 338.387C172.095 338.648 172.704 338.561 172.704 338.517C172.704 338.43 172.138 338.343 171.268 338.039C170.876 337.865 170.397 337.604 169.918 337.256C169.686 337.082 169.454 336.879 169.221 336.647C169.091 336.56 169.004 336.429 168.96 336.342C168.917 336.212 168.917 336.255 168.96 336.212C169.004 336.168 169.178 336.168 169.309 336.125C169.483 336.125 169.642 336.139 169.787 336.168C170.107 336.197 170.397 336.255 170.658 336.342C171.18 336.56 171.572 336.908 171.877 337.256C172.399 337.952 172.486 338.517 172.574 338.517Z" fill="#263238"/>
<path d="M184.594 340.257C184.42 341.084 184.986 341.823 185.77 341.954C186.597 342.084 187.337 341.562 187.467 340.736C187.598 339.953 187.076 339.213 186.248 339.039C185.465 338.909 184.725 339.474 184.594 340.257Z" fill="#E0E0E0"/>
<path d="M136.838 334.211L132.92 359.702L101.141 354.96C101.794 351.959 119.12 348.348 119.12 348.348L120.992 331.905L136.838 334.211Z" fill="#455A64"/>
<path d="M129.133 348.435C129.742 348.696 130.047 349.436 129.829 350.045C129.612 350.61 128.828 350.958 128.219 350.697C127.653 350.48 127.217 349.566 127.522 349.001C127.827 348.435 128.741 348.087 129.263 348.479" fill="#E0E0E0"/>
<path d="M132.92 359.702L133.225 357.092L102.664 353.568C102.664 353.568 101.141 353.96 101.141 354.96L132.92 359.702Z" fill="#E0E0E0"/>
<path d="M118.641 348.087C118.641 348.261 119.381 348.435 120.078 349.044C120.774 349.653 121.079 350.349 121.21 350.349C121.384 350.306 121.297 349.349 120.426 348.653C119.599 347.913 118.641 347.957 118.641 348.087Z" fill="#263238"/>
<path d="M115.109 348.957C115.022 349.131 115.675 349.479 116.111 350.219C116.546 350.915 116.589 351.654 116.72 351.698C116.894 351.741 117.112 350.828 116.589 349.914C116.024 349.044 115.109 348.827 115.109 348.957Z" fill="#263238"/>
<path d="M112.626 352.655C112.756 352.742 113.061 352.002 112.8 351.089C112.539 350.175 111.842 349.74 111.755 349.827C111.668 349.958 112.06 350.48 112.277 351.219C112.495 351.959 112.452 352.655 112.626 352.655Z" fill="#263238"/>
<path d="M119.471 344.39C119.514 344.564 120.254 344.433 121.125 344.607C121.996 344.781 122.648 345.216 122.736 345.086C122.866 344.955 122.257 344.303 121.255 344.085C120.211 343.868 119.427 344.259 119.471 344.39Z" fill="#263238"/>
<path d="M120.773 340.736C120.773 340.823 121.382 340.997 122.383 340.953C122.862 340.953 123.472 340.866 124.125 340.692C124.444 340.605 124.778 340.489 125.126 340.344C125.257 340.301 125.474 340.214 125.648 340.04C125.822 339.909 125.997 339.518 125.822 339.257C125.692 338.996 125.431 338.822 125.213 338.778C124.995 338.735 124.778 338.778 124.604 338.778C124.226 338.807 123.878 338.88 123.559 338.996C122.906 339.17 122.383 339.431 121.948 339.735C121.121 340.301 120.773 340.823 120.816 340.866C120.903 340.953 121.339 340.518 122.166 340.04C122.557 339.822 123.08 339.605 123.689 339.474C123.98 339.387 124.299 339.329 124.647 339.3C124.995 339.257 125.3 339.3 125.344 339.474C125.387 339.561 125.387 339.561 125.3 339.648C125.213 339.735 125.039 339.822 124.908 339.866C124.589 340.011 124.284 340.127 123.994 340.214C123.385 340.431 122.819 340.518 122.34 340.605C121.426 340.692 120.816 340.649 120.773 340.736Z" fill="#263238"/>
<path d="M120.947 340.997C120.99 341.04 121.382 340.518 121.6 339.518C121.687 339.039 121.73 338.43 121.643 337.734C121.585 337.415 121.498 337.082 121.382 336.734C121.251 336.386 121.077 335.951 120.511 335.777C120.163 335.733 119.902 335.907 119.771 336.125C119.64 336.299 119.597 336.516 119.51 336.69C119.379 337.038 119.336 337.386 119.336 337.734C119.336 338.43 119.553 339.039 119.771 339.474C120.293 340.388 120.903 340.692 120.903 340.649C120.99 340.562 120.511 340.17 120.119 339.344C119.945 338.909 119.815 338.343 119.858 337.778C119.858 337.459 119.916 337.154 120.032 336.864C120.119 336.516 120.293 336.255 120.424 336.299C120.555 336.342 120.816 336.647 120.903 336.908C121.019 337.227 121.106 337.531 121.164 337.821C121.251 338.43 121.251 338.996 121.208 339.474C121.121 340.388 120.859 340.953 120.947 340.997Z" fill="#263238"/>
<path d="M161.825 274.398L189.033 333.645L171.054 344.433L133.398 273.137" fill="#263238"/>
<path d="M116.898 345.782L136.445 348.914L148.155 279.227L205.924 283.403C207.448 283.49 208.971 283.359 210.451 282.968C226.689 278.531 224.513 257.825 222.945 254.519L142.975 252.257C134.312 251.996 126.867 258.303 125.648 266.873L116.898 345.782Z" fill="#263238"/>
<path d="M223.73 257.825L223.426 228.332C223.426 228.332 227.256 209.148 228.388 201.623C230.13 189.921 232.524 184.397 213.326 176.088L209.147 174.435L202.66 174.522C194.911 175.131 186.77 182.091 186.596 186.746L179.109 253.17L223.73 257.825Z" fill="#E8505B"/>
<path d="M222.507 182.918C222.507 182.918 227.948 194.576 226.86 205.146L206.661 224.504C202.177 229.55 196.517 231.681 189.247 232.116L147.542 236.684L146.367 225.765L186.069 214.542C187.636 214.238 188.464 212.585 189.639 211.541L222.507 182.918Z" fill="#E8505B"/>
<path d="M225.775 186.267C225.775 186.267 225.557 186.006 224.991 185.745C224.425 185.441 223.511 185.18 222.292 184.962C221.073 184.832 219.549 184.658 217.764 185.006C217.329 185.093 216.894 185.18 216.458 185.441C216.023 185.702 215.631 185.963 215.239 186.267C214.427 186.905 213.614 187.616 212.802 188.399C211.104 189.965 209.537 191.966 207.665 193.967C205.807 195.968 203.776 198.099 201.57 200.361C199.393 202.623 196.999 204.972 194.474 207.408C193.168 208.626 191.862 209.844 190.469 211.062C189.772 211.628 189.076 212.324 188.379 212.933C187.683 213.585 186.943 214.151 186.029 214.325C174.231 217.674 160.692 221.502 146.326 225.548L146.109 225.591L146.152 225.809C146.239 226.548 146.326 227.375 146.413 228.245C146.718 231.116 147.023 233.987 147.284 236.684L147.327 236.945L147.545 236.901C153.64 236.249 159.517 235.596 165.22 234.944C168.064 234.654 170.85 234.349 173.578 234.03C176.306 233.769 178.976 233.508 181.588 233.247C184.2 232.943 186.725 232.638 189.163 232.29C191.601 231.942 193.995 231.507 196.172 230.681C198.349 229.854 200.308 228.723 202.092 227.505C203.834 226.287 205.444 224.982 206.968 223.721C212.932 218.631 217.286 214.107 220.333 211.019C221.857 209.453 222.988 208.235 223.772 207.365C224.149 206.959 224.439 206.64 224.643 206.408C224.846 206.205 224.947 206.103 224.947 206.103C224.947 206.103 224.831 206.205 224.599 206.408C224.396 206.611 224.106 206.915 223.728 207.321C222.901 208.148 221.726 209.366 220.202 210.888C217.155 213.933 212.715 218.457 206.75 223.503C205.27 224.721 203.66 226.026 201.875 227.201C200.133 228.419 198.218 229.55 196.041 230.333C193.908 231.116 191.557 231.551 189.119 231.899C186.638 232.247 184.113 232.551 181.545 232.856C178.933 233.088 176.263 233.349 173.535 233.639C170.806 233.929 168.02 234.233 165.176 234.552C159.473 235.161 153.596 235.814 147.502 236.466L147.763 236.64C147.458 233.943 147.153 231.072 146.849 228.201C146.762 227.331 146.674 226.505 146.587 225.722L146.413 225.983C160.779 221.894 174.318 218.066 186.116 214.716C187.16 214.542 187.944 213.89 188.641 213.237C189.337 212.585 189.99 211.932 190.73 211.367C192.123 210.149 193.429 208.887 194.692 207.669C197.26 205.233 199.611 202.841 201.831 200.579C204.037 198.317 206.054 196.171 207.882 194.141C209.754 192.14 211.278 190.139 212.932 188.573C213.745 187.79 214.557 187.079 215.37 186.441C215.762 186.137 216.154 185.876 216.545 185.615C216.937 185.397 217.373 185.267 217.808 185.18C219.549 184.832 221.073 184.962 222.248 185.093C223.467 185.267 224.381 185.528 224.947 185.789C225.513 186.05 225.775 186.311 225.775 186.267Z" fill="#263238"/>
<path d="M215.367 148.901L213.32 177.567C213.016 182.265 209.098 185.876 204.396 185.876C199.216 185.876 195.124 181.526 195.472 176.349C195.646 173.652 195.82 171.39 195.82 171.39C195.82 171.39 188.855 170.303 188.768 163.386C188.724 159.341 189.421 150.249 190.03 143.289C190.422 138.591 194.384 134.937 199.085 134.937H203.308C210.534 135.372 215.976 141.68 215.367 148.901Z" fill="#FFBE9D"/>
<path d="M195.816 171.303C195.816 171.303 200.169 171.651 204.871 168.737C204.871 168.737 202.738 173.739 195.773 173.087L195.816 171.303Z" fill="#EB996E"/>
<path d="M191.562 152.206C191.562 152.728 191.998 153.163 192.521 153.207C193.087 153.25 193.566 152.859 193.566 152.337C193.566 151.771 193.173 151.336 192.607 151.293C192.041 151.293 191.606 151.684 191.562 152.206Z" fill="#263238"/>
<path d="M191.214 150.249C191.344 150.38 192.084 149.814 193.173 149.814C194.218 149.814 195.001 150.38 195.132 150.249C195.175 150.162 195.045 149.945 194.696 149.684C194.392 149.423 193.826 149.205 193.129 149.205C192.476 149.205 191.91 149.466 191.606 149.727C191.257 149.945 191.17 150.206 191.214 150.249Z" fill="#263238"/>
<path d="M201.612 152.207C201.569 152.729 202.004 153.164 202.57 153.207C203.092 153.251 203.571 152.859 203.571 152.337C203.615 151.772 203.18 151.337 202.614 151.293C202.091 151.293 201.612 151.685 201.612 152.207Z" fill="#263238"/>
<path d="M201.698 150.467C201.828 150.597 202.568 150.032 203.657 150.032C204.701 150.032 205.485 150.554 205.616 150.423C205.659 150.38 205.572 150.119 205.224 149.901C204.876 149.64 204.31 149.423 203.657 149.423C202.96 149.423 202.394 149.64 202.089 149.901C201.741 150.162 201.654 150.38 201.698 150.467Z" fill="#263238"/>
<path d="M197.827 158.384C197.827 158.297 197.174 158.21 196.086 158.036C195.825 158.036 195.564 157.949 195.52 157.775C195.477 157.601 195.564 157.296 195.694 156.992C195.955 156.325 196.231 155.629 196.521 154.904C197.653 151.946 198.437 149.51 198.306 149.466C198.219 149.423 197.218 151.772 196.086 154.73C195.825 155.455 195.564 156.151 195.302 156.818C195.215 157.122 195.041 157.47 195.172 157.905C195.259 158.123 195.433 158.253 195.607 158.297C195.781 158.34 195.955 158.34 196.086 158.34C197.174 158.427 197.827 158.427 197.827 158.384Z" fill="#263238"/>
<path d="M200.958 159.123C200.784 159.08 200.785 160.254 199.827 161.081C198.826 161.907 197.562 161.777 197.562 161.951C197.562 161.994 197.868 162.168 198.39 162.168C198.869 162.168 199.609 162.038 200.219 161.516C200.828 160.994 201.089 160.341 201.133 159.863C201.177 159.384 201.045 159.08 200.958 159.123Z" fill="#263238"/>
<path d="M201.435 146.247C201.522 146.552 202.611 146.421 203.873 146.552C205.092 146.682 206.137 147.074 206.311 146.813C206.354 146.682 206.18 146.421 205.788 146.117C205.353 145.856 204.744 145.595 203.96 145.508C203.22 145.421 202.523 145.508 202.088 145.725C201.609 145.899 201.392 146.117 201.435 146.247Z" fill="#263238"/>
<path d="M191.597 147.161C191.771 147.422 192.511 147.161 193.425 147.161C194.296 147.117 195.036 147.291 195.21 147.03C195.297 146.943 195.166 146.682 194.862 146.465C194.513 146.204 193.991 146.03 193.381 146.073C192.772 146.073 192.25 146.291 191.945 146.552C191.64 146.813 191.51 147.03 191.597 147.161Z" fill="#263238"/>
<path d="M213.02 154.121C213.15 154.034 217.808 152.685 217.634 157.427C217.503 162.168 212.758 161.037 212.758 160.907C212.758 160.776 213.02 154.121 213.02 154.121Z" fill="#FFBE9D"/>
<path d="M214.282 159.167C214.282 159.167 214.325 159.21 214.499 159.297C214.63 159.341 214.848 159.428 215.109 159.341C215.588 159.167 216.067 158.384 216.11 157.514C216.11 157.079 216.067 156.687 215.892 156.339C215.762 155.991 215.544 155.73 215.326 155.687C215.065 155.6 214.891 155.774 214.804 155.904C214.761 156.035 214.761 156.122 214.761 156.122C214.717 156.122 214.63 156.035 214.673 155.861C214.717 155.73 214.761 155.643 214.891 155.556C215.022 155.469 215.152 155.426 215.37 155.426C215.718 155.469 216.023 155.817 216.197 156.209C216.371 156.6 216.458 157.035 216.415 157.557C216.371 158.514 215.849 159.384 215.152 159.558C214.804 159.645 214.543 159.515 214.412 159.384C214.282 159.297 214.238 159.167 214.282 159.167Z" fill="#EB996E"/>
<path d="M215.674 153.947C214.934 153.773 213.671 154.425 213.366 155.121C213.062 155.774 213.018 156.557 212.713 157.253C212.365 157.905 211.669 158.514 210.972 158.34C210.45 158.253 210.101 157.775 209.971 157.253C209.84 156.774 209.884 156.252 209.971 155.73C210.232 153.512 210.711 151.337 210.798 149.075C210.885 146.856 210.58 144.551 209.405 142.637C208.229 140.723 206.053 139.331 203.833 139.505C202.352 139.635 201.003 140.418 199.523 140.592C197.781 140.853 195.953 140.244 194.691 138.983C194.56 138.852 193.82 138.33 193.82 138.33C193.82 138.243 193.907 137.243 194.299 136.895C197.215 134.198 202.483 133.458 206.314 134.415C210.145 135.372 213.758 138.069 215.412 141.68C217.067 145.29 216.588 150.293 215.674 153.947Z" fill="#263238"/>
<path d="M189.945 142.202C189.945 142.202 208.185 136.329 216.065 152.12C216.065 152.12 217.24 148.161 217.24 146.073C217.24 144.638 216.413 136.242 207.75 133.589C207.75 133.589 194.69 128.63 189.945 142.202Z" fill="#E8505B"/>
<path d="M205.614 142.593C204.961 143.637 203.785 144.377 202.566 144.464C201.347 144.594 200.128 144.072 199.301 143.159C198.91 144.072 197.952 144.681 196.994 144.638C196.036 144.594 195.122 143.898 194.861 142.941C194.339 143.463 193.773 143.985 193.076 144.246C192.38 144.507 191.509 144.42 191.074 143.811C190.595 143.246 190.725 142.332 191.204 141.723C191.639 141.114 192.336 140.766 193.033 140.505C195.209 139.592 197.604 139.113 199.911 139.461C202.262 139.766 204.482 140.897 205.962 142.724" fill="#263238"/>
<g opacity="0.4">
<path d="M189.945 142.202C189.945 142.202 191.991 139.766 195.735 139.592C201.133 139.331 211.189 142.376 216.065 152.12C216.065 152.12 217.24 148.161 217.24 146.073C217.24 144.638 216.413 136.242 207.75 133.589C207.75 133.589 194.69 128.63 189.945 142.202Z" fill="black"/>
</g>
<path d="M215.276 150.249C212.577 146.117 208.877 142.724 204.654 140.114C200.475 137.504 193.553 134.894 188.765 133.632C187.328 133.241 185.848 132.936 184.368 133.154C182.931 133.415 181.494 134.415 181.103 135.851C180.667 137.634 183.845 140.418 185.369 141.506C186.849 142.593 189.94 144.203 189.94 144.203C189.94 144.203 189.896 140.853 195.251 140.157C202.521 139.244 215.276 150.249 215.276 150.249Z" fill="#E8505B"/>
<g opacity="0.3">
<path d="M221.729 209.453C219.857 214.02 217.941 219.588 215.199 223.677C212.5 227.766 208.843 231.377 204.315 233.291C198.612 235.64 191.908 236.031 186.249 233.595C185.77 233.421 184.856 233.16 184.943 232.638C184.943 232.638 186.815 232.421 187.424 232.334C198.83 230.42 200.093 229.028 205.578 224.678C208.973 221.981 216.548 213.846 221.729 209.453Z" fill="black"/>
</g>
<path d="M185.375 242.469C185.331 242.469 185.462 242.861 185.854 243.557C186.202 244.209 186.768 245.123 187.682 246.123C189.467 248.124 192.601 250.299 196.563 251.517C200.481 252.735 204.181 252.953 206.837 253.083C208.186 253.127 209.275 253.127 210.015 253.127C210.755 253.127 211.147 253.127 211.147 253.083C211.19 253.04 210.755 252.996 210.015 252.953C209.173 252.895 208.128 252.822 206.88 252.735C204.225 252.561 200.524 252.3 196.694 251.082C192.819 249.908 189.728 247.82 187.9 245.906C186.071 243.992 185.462 242.426 185.375 242.469Z" fill="#263238"/>
<path d="M136.094 351.002C136.094 351.002 136.123 350.915 136.181 350.741C136.21 350.538 136.254 350.277 136.312 349.958C136.457 349.204 136.646 348.174 136.878 346.869C137.357 344.129 138.053 340.257 138.88 335.516C140.491 325.859 142.755 312.635 145.236 297.975C146.325 291.363 147.369 285.012 148.371 279.227L148.11 279.444C158.296 280.184 166.959 280.793 173.141 281.228C176.189 281.445 178.583 281.619 180.281 281.75C181.093 281.779 181.732 281.808 182.196 281.837C182.399 281.866 182.573 281.88 182.718 281.88C182.806 281.88 182.864 281.88 182.893 281.88C182.893 281.851 182.835 281.837 182.718 281.837C182.573 281.808 182.399 281.793 182.196 281.793C181.761 281.735 181.137 281.677 180.324 281.619C178.626 281.445 176.189 281.228 173.141 281.01C166.959 280.488 158.296 279.792 148.153 279.009L147.979 278.966L147.935 279.183C146.978 284.969 145.889 291.276 144.757 297.932C142.363 312.548 140.143 325.815 138.532 335.429C137.792 340.214 137.139 344.129 136.704 346.826C136.501 348.16 136.341 349.189 136.225 349.914C136.196 350.262 136.167 350.538 136.138 350.741C136.109 350.915 136.094 351.002 136.094 351.002Z" fill="#455A64"/>
<path d="M142.277 273.006C142.19 273.093 143.713 274.398 145.455 276.182C147.196 277.922 148.458 279.444 148.546 279.357C148.676 279.314 147.544 277.617 145.759 275.834C144.018 274.05 142.364 272.919 142.277 273.006Z" fill="#455A64"/>
<path d="M195.649 176.958C195.62 176.958 195.591 177.06 195.562 177.263C195.475 177.466 195.417 177.756 195.388 178.133C195.301 178.872 195.344 180.003 195.779 181.265C196.258 182.57 197.172 183.962 198.653 185.049C200.133 186.093 202.179 186.659 204.268 186.528C206.358 186.398 208.273 185.615 209.667 184.484C211.103 183.396 212.104 182.091 212.757 180.917C213.41 179.742 213.759 178.698 213.933 177.959C214.02 177.582 214.078 177.292 214.107 177.089C214.136 176.915 214.15 176.813 214.15 176.784C214.02 176.784 213.802 178.437 212.496 180.743C211.8 181.874 210.842 183.135 209.449 184.179C208.056 185.223 206.227 185.963 204.225 186.093C202.222 186.224 200.307 185.702 198.914 184.701C197.477 183.701 196.607 182.352 196.084 181.178C195.605 179.96 195.518 178.872 195.562 178.133C195.562 177.393 195.692 177.002 195.649 176.958Z" fill="#263238"/>
<path d="M183.377 214.977C183.42 214.977 183.464 214.629 183.551 214.064C183.638 213.368 183.754 212.541 183.899 211.584C184.204 209.366 184.552 206.495 184.988 203.363C185.379 200.144 185.684 197.229 185.858 195.098C185.989 194.054 186.032 193.184 186.076 192.575C186.119 192.009 186.119 191.661 186.076 191.661C186.032 191.661 185.989 191.966 185.902 192.575C185.815 193.271 185.699 194.097 185.554 195.054C185.292 197.273 184.901 200.144 184.509 203.276C184.117 206.495 183.812 209.409 183.595 211.541C183.507 212.585 183.42 213.455 183.377 214.064C183.333 214.629 183.333 214.977 183.377 214.977Z" fill="#263238"/>
</g>
</g>
<defs>
<clipPath id="clip0_2316_1260">
<rect width="546" height="403" fill="white"/>
</clipPath>
</defs>
</svg>
