<svg width="413" height="418" viewBox="0 0 413 418" fill="none" xmlns="http://www.w3.org/2000/svg">
<path opacity="0.7" d="M364.154 26.9078C335.621 9.1597 301.371 7.22934 271.272 21.9975C245.662 34.5917 225.646 55.8913 199.943 68.448C164.793 85.6245 126.308 95.0139 90.8115 111.459C55.3153 127.905 21.356 153.712 8.58375 190.698C-6.40934 234.403 -1.09616 285.782 21.8339 325.729C59.1011 390.659 133.045 413.711 204.216 412.877C354.634 411.096 432.101 228.93 407.559 98.0219C402.218 69.6475 389.155 42.4537 364.154 26.9078Z" fill="#C2D9FF" fill-opacity="0.49"/>
<path d="M85.765 269.075L77.903 270.499L76.3568 261.972L67.0049 263.668L68.5511 272.195L60.6797 273.62L62.4414 283.3L70.3034 281.875L71.8495 290.403L81.2015 288.706L79.6553 280.179L87.5173 278.755L85.765 269.075Z" stroke="#92E3A9" stroke-linecap="round" stroke-linejoin="round"/>
<path d="M164.347 138.447L156.813 135.786L159.699 127.615L150.731 124.448L147.845 132.619L140.311 129.957L137.031 139.234L144.575 141.896L141.688 150.067L150.647 153.234L153.533 145.063L161.067 147.724L164.347 138.447Z" stroke="#92E3A9" stroke-linecap="round" stroke-linejoin="round"/>
<path d="M354.613 236.099L347.548 239.838L343.49 232.182L335.094 236.624L339.151 244.289L332.086 248.028L336.687 256.724L343.752 252.985L347.81 260.641L356.206 256.199L352.149 248.534L359.214 244.795L354.613 236.099Z" stroke="#92E3A9" stroke-linecap="round" stroke-linejoin="round"/>
<path d="M52.8912 248.759C56.0585 248.759 58.626 246.191 58.626 243.024C58.626 239.857 56.0585 237.289 52.8912 237.289C49.7239 237.289 47.1562 239.857 47.1562 243.024C47.1562 246.191 49.7239 248.759 52.8912 248.759Z" stroke="#92E3A9" stroke-linecap="round" stroke-linejoin="round"/>
<path d="M142.216 166.353C142.216 166.653 142.127 166.947 141.96 167.197C141.793 167.446 141.556 167.641 141.279 167.756C141.001 167.871 140.696 167.901 140.402 167.842C140.107 167.784 139.837 167.639 139.624 167.427C139.412 167.214 139.267 166.944 139.209 166.649C139.15 166.355 139.18 166.05 139.295 165.772C139.41 165.495 139.605 165.258 139.854 165.091C140.104 164.924 140.398 164.835 140.698 164.835C141.1 164.835 141.486 164.995 141.771 165.28C142.056 165.565 142.216 165.951 142.216 166.353Z" stroke="#92E3A9" stroke-linecap="round" stroke-linejoin="round"/>
<path d="M72.7701 140.312C72.7701 141.374 72.4551 142.412 71.8651 143.295C71.2752 144.178 70.4366 144.867 69.4554 145.273C68.4743 145.679 67.3947 145.786 66.3531 145.579C65.3116 145.371 64.3548 144.86 63.6039 144.109C62.853 143.358 62.3416 142.401 62.1344 141.36C61.9272 140.318 62.0336 139.239 62.44 138.258C62.8464 137.276 63.5346 136.438 64.4176 135.848C65.3006 135.258 66.3387 134.943 67.4007 134.943C68.1061 134.942 68.8049 135.08 69.4569 135.349C70.1089 135.618 70.7013 136.014 71.2001 136.513C71.699 137.012 72.0944 137.604 72.3638 138.256C72.6332 138.908 72.7713 139.607 72.7701 140.312Z" stroke="#92E3A9" stroke-linecap="round" stroke-linejoin="round"/>
<path d="M308.939 212.944C308.939 213.545 308.761 214.132 308.428 214.631C308.094 215.13 307.62 215.519 307.065 215.749C306.51 215.979 305.9 216.039 305.311 215.922C304.722 215.805 304.181 215.516 303.756 215.091C303.332 214.667 303.043 214.126 302.926 213.537C302.808 212.948 302.868 212.337 303.098 211.782C303.328 211.228 303.717 210.754 304.217 210.42C304.716 210.086 305.303 209.908 305.903 209.908C306.302 209.908 306.697 209.987 307.065 210.139C307.434 210.292 307.768 210.516 308.05 210.797C308.332 211.079 308.556 211.414 308.708 211.782C308.861 212.151 308.939 212.546 308.939 212.944Z" stroke="#92E3A9" stroke-linecap="round" stroke-linejoin="round"/>
<path d="M278.239 120.381C281.991 120.381 285.033 117.339 285.033 113.587C285.033 109.835 281.991 106.793 278.239 106.793C274.487 106.793 271.445 109.835 271.445 113.587C271.445 117.339 274.487 120.381 278.239 120.381Z" stroke="#92E3A9" stroke-linecap="round" stroke-linejoin="round"/>
<path d="M236.39 174.646C236.756 175.189 247.504 177.326 253.07 185.432C256.32 190.089 259.045 195.093 261.195 200.35C261.195 200.35 270.565 205.888 275.297 210.47C280.03 215.052 285.765 221.115 290.169 224.301C294.573 227.487 303.597 233.531 305.883 240.606C305.883 240.606 292.324 277.742 288.491 285.942C284.659 294.141 275.194 311.57 275.194 311.57L258.327 383.237H160.497L157.152 358.658C157.152 358.658 127.213 352.773 114.637 341.791C114.637 341.791 113.456 314.616 118.704 290.365C123.952 266.113 141.756 215.755 153.816 200.35C153.816 200.35 173.101 191.129 190.099 188.168C190.099 188.168 201.138 179.444 208.372 178.516C215.606 177.588 236.39 174.646 236.39 174.646Z" fill="white"/>
<path d="M158.506 369.734C167.183 371.383 174.764 372.826 183.6 372.723C192.437 372.62 201.48 370.634 208.723 365.564C210.12 364.4 211.704 363.481 213.408 362.847C217.26 361.76 221.055 364.309 224.869 365.489C229.713 366.989 235.017 366.276 239.749 364.477C244.482 362.678 248.755 359.867 252.981 357.084C252.353 365.695 252.147 374.354 252.381 382.984L258.397 383.237L273.84 315.319C273.84 315.319 247.443 345.989 234.567 355.144L209.866 348.819C209.866 348.819 207.533 350.749 202.642 351.724C202.642 351.724 200.402 360.335 187.817 360.354C175.232 360.373 157.156 358.686 157.156 358.686L158.506 369.734Z" fill="#92E3A9"/>
<path d="M133.2 243.024C133.2 243.024 121.711 298.658 122.32 317.764C122.32 317.764 137.885 313.398 148.755 317.764C148.755 317.764 130.257 315.703 122.292 324.183C114.327 332.664 138.841 354.947 187.887 350.421C187.887 350.421 197.679 353.495 202.636 351.696C202.636 351.696 201.306 360.551 187.812 360.326C174.365 359.783 135.018 359.464 114.636 341.81C114.636 341.81 112.078 290.655 133.2 243.024Z" fill="#92E3A9"/>
<path d="M156.625 253.688C156.625 253.688 160.017 278.314 165.471 283.468C170.925 288.622 196.394 286.944 206.486 292.492C206.486 292.492 215.97 276.056 233.137 265.757L209.869 302.415L189.741 297.655L165.18 293.907L163.119 298.648H159.427C159.427 298.648 159.005 272.364 156.625 253.688Z" fill="#92E3A9"/>
<path opacity="0.5" d="M156.625 253.688C156.625 253.688 160.017 278.314 165.471 283.468C170.925 288.622 196.394 286.944 206.486 292.492C206.486 292.492 215.97 276.056 233.137 265.757L209.869 302.415L189.741 297.655L165.18 293.907L163.119 298.648H159.427C159.427 298.648 159.005 272.364 156.625 253.688Z" fill="white"/>
<path d="M252.861 203.499C263.375 209.693 264.555 216.683 266.729 221.668C261.257 222.746 255.597 223.917 251.071 227.188C245.449 231.273 242.403 238.029 240.051 244.598C237.809 250.801 235.926 257.127 234.41 263.546C239.496 254.363 246.722 246.542 255.475 240.747C260.535 237.411 266.776 234.722 272.53 236.605C267.704 238.648 262.222 241.431 261.21 246.576C261.011 247.434 261.043 248.33 261.304 249.171C262.175 251.598 265.193 252.254 267.479 253.435C271.94 255.731 274.254 260.931 274.46 265.973C274.666 271.014 273.111 275.887 271.574 280.657L267.554 293.185C265.839 298.536 264.087 303.952 260.995 308.628C257.902 313.304 253.236 317.24 247.698 318.168C245.379 318.61 242.981 318.339 240.819 317.39C239.189 316.499 237.672 315.413 236.303 314.157C229.656 308.79 221.669 305.342 213.204 304.187C224.102 311.421 229.284 324.455 233.801 336.731C231.725 333.108 228.741 330.088 225.142 327.969C224.217 327.322 223.114 326.975 221.984 326.976C219.033 327.21 218.096 330.977 216.306 333.348C214.179 336.159 210.271 337.162 206.757 336.712C203.243 336.262 200.029 334.622 196.89 332.964L157.046 312.414L154.234 320.848C154.234 320.848 185.973 346.148 234.579 355.107C234.579 355.107 266.167 330.143 277.346 308.029C288.526 285.914 305.927 240.56 305.927 240.56C305.927 240.56 299.555 228.509 288.647 222.212C288.647 222.212 280.504 218.37 278.789 213.61C277.075 208.849 261.772 200.631 261.772 200.631C261.772 200.631 263.74 205.701 252.861 203.499Z" fill="#92E3A9"/>
<path d="M249.512 117.251C249.512 117.251 251.639 92.4371 240.938 90.0757C230.236 87.7143 224.249 77.8938 224.249 77.8938L186.307 88.4733L180.422 111.282L184.17 122.836C184.17 122.836 184.967 133.537 185.107 138.841C185.248 144.145 185.107 148.211 189.127 154.64C193.147 161.068 196.858 167.449 205.526 173.006V187.643C205.526 187.643 200.175 203.283 203.127 212.878C203.127 212.878 204.898 214.753 209.799 211.941C214.7 209.13 235.615 195.149 242.915 180.55L245.183 143.432C245.183 143.432 251.208 144.369 253.804 138.878C257.608 133.509 257.458 127.24 255.987 122.142C254.516 117.045 248.134 120.352 248.134 120.352L249.512 117.251Z" fill="#E8E8E8"/>
<path d="M205.945 153.618C207.016 152.45 208.336 151.538 209.807 150.951C211.279 150.364 212.864 150.116 214.445 150.226C214.445 150.226 219.008 143.02 223.815 144.341C223.815 144.341 225.296 151.978 219.533 154.986C212.046 158.885 205.945 153.618 205.945 153.618Z" fill="#737373"/>
<path d="M191.842 85.3247C191.842 85.3247 182.771 97.2536 183.287 109.688C183.802 122.123 185.62 130.941 185.105 140.537C184.589 150.132 194.691 166.194 205.064 172.678C212.823 177.523 222.531 176.698 230.075 171.741C238.508 166.119 243.194 156.008 244.843 146.318C245.011 145.381 245.143 144.397 245.246 143.432" stroke="#263238" stroke-linecap="round" stroke-linejoin="round"/>
<path d="M205.068 172.65C205.068 172.65 206.549 186.079 205.068 190.689C203.447 195.74 201.498 207.5 203.194 212.813C204.89 218.126 236.816 195.796 242.982 180.475C242.982 180.475 243.825 150.704 245.952 143.264" stroke="#263238" stroke-linecap="round" stroke-linejoin="round"/>
<path d="M204.227 153.29C204.227 153.29 218.742 157.385 224.673 142.411" stroke="#263238" stroke-linecap="round" stroke-linejoin="round"/>
<path d="M205.359 175.92C205.359 175.92 208.452 185.506 215.124 186.078C221.796 186.65 238.475 173.278 244.173 157.526V149.645C244.173 149.645 239.487 170.26 225.759 174.009C212.031 177.757 205.622 172.987 205.622 172.987L205.359 175.92Z" fill="#263238"/>
<path d="M223.807 144.341C217.36 143.891 214.436 150.226 214.436 150.226C212.848 150.033 211.239 150.242 209.753 150.835C208.268 151.428 206.956 152.385 205.938 153.618C207.526 155.043 209.478 155.999 211.577 156.379C213.677 156.76 215.841 156.55 217.828 155.773C225.156 153.225 223.807 144.341 223.807 144.341Z" stroke="#263238" stroke-linecap="round" stroke-linejoin="round"/>
<path d="M207.645 116.079C207.728 119.055 207.6 122.033 207.261 124.991C206.905 127.643 205.686 130.173 204.665 132.675C203.728 134.943 202.163 138.428 203.466 140.818C204.946 143.526 209.866 140.818 209.866 140.818" stroke="#263238" stroke-linecap="round" stroke-linejoin="round"/>
<path d="M212.852 140.246C214.51 140.471 216.862 140.246 217.331 137.37" stroke="#263238" stroke-linecap="round" stroke-linejoin="round"/>
<path d="M218.258 112.5C219.861 110.97 221.992 110.117 224.208 110.117C226.424 110.117 228.555 110.97 230.159 112.5" stroke="#263238" stroke-width="2" stroke-linecap="round" stroke-linejoin="round"/>
<path d="M199.334 114.842C199.334 114.842 194.949 109.22 189.195 114.842" stroke="#263238" stroke-width="2" stroke-linecap="round" stroke-linejoin="round"/>
<path d="M241.789 129.048C241.789 129.048 246.812 117.016 253.343 119.603C257.85 121.392 258.122 129.17 255.733 134.596C253.343 140.021 252.153 145.55 244.179 142.458" stroke="#263238" stroke-linecap="round" stroke-linejoin="round"/>
<path d="M242.679 127.202C242.679 127.202 237.862 125.497 236.972 117.682C236.082 109.866 240.889 102.051 239.109 96.3633C237.328 90.6753 223.291 93.5521 220.095 83.7504C220.095 83.7504 209.563 91.603 189.172 89.9163C189.172 89.9163 184.862 97.2442 184.112 101.714C183.118 108.721 183.143 115.836 184.187 122.835C184.187 123.079 184.271 123.313 184.318 123.548C185.789 131.185 178.499 113.165 178.696 105.472C178.893 97.7783 174.254 88.0141 180.298 80.7237C186.342 73.4333 208.523 69.179 212.852 65.8243C217.181 62.4696 225.783 71.4467 235.557 74.867C245.331 78.2873 253.502 82.223 252.256 96.1291C251.009 110.035 252.331 111.909 252.377 119.237C252.377 119.237 247.851 117.541 242.679 127.202Z" fill="#263238"/>
<path d="M224.216 122.667C224.216 124.541 223.494 126.096 222.604 126.096C221.714 126.096 220.992 124.56 220.992 122.667C220.992 120.774 221.714 119.237 222.604 119.237C223.494 119.237 224.216 120.774 224.216 122.667Z" fill="#263238"/>
<path d="M199.333 122.667C199.333 124.541 198.611 126.096 197.721 126.096C196.831 126.096 196.109 124.56 196.109 122.667C196.109 120.774 196.831 119.237 197.721 119.237C198.611 119.237 199.333 120.774 199.333 122.667Z" fill="#263238"/>
<path d="M218.258 127.202C218.258 127.202 221.603 130.763 225.848 131.269" stroke="#263238" stroke-linecap="round" stroke-linejoin="round"/>
<path d="M195.461 131.269C195.461 131.269 201.571 130.829 202.957 127.202" stroke="#263238" stroke-linecap="round" stroke-linejoin="round"/>
<path d="M209.68 215.127C214.243 212.232 220.259 213.309 225.254 215.371C227.99 216.495 230.595 217.929 233.313 219.119C234.661 219.711 236.052 220.203 237.473 220.59C240.903 221.528 239.666 217.236 239.469 215.333C239.188 212.616 238.991 209.88 238.663 207.162C238.534 206.604 238.6 206.019 238.851 205.504C239.189 205.084 239.663 204.796 240.191 204.688C246.197 202.814 252.672 203.639 258.932 203.751C259.497 203.813 260.068 203.705 260.572 203.442C261.509 202.824 261.415 201.446 261.162 200.369C258.988 191.101 251.351 181.899 243.058 177.27" stroke="#263238" stroke-linecap="round" stroke-linejoin="round"/>
<path d="M205.587 178.769C201.455 180.493 197.21 182.283 193.649 184.926C192.357 185.868 191.167 186.942 190.098 188.13C189.236 188.95 188.695 190.05 188.57 191.232C188.593 191.782 188.739 192.32 188.997 192.806C189.255 193.293 189.618 193.715 190.06 194.043C190.689 194.561 191.382 194.996 192.122 195.336C193.846 196.152 195.87 196.948 196.601 198.682C196.778 199.045 196.844 199.453 196.788 199.853C196.695 200.205 196.515 200.527 196.264 200.79C194.839 202.524 192.328 203.864 192.515 206.103C192.637 207.837 194.39 208.915 195.945 209.683C197.501 210.451 199.318 211.248 199.853 212.906" stroke="#263238" stroke-linecap="round" stroke-linejoin="round"/>
<path d="M181.133 90.9003C181.733 87.152 185.659 84.7344 189.426 84.1159C193.193 83.4975 197.054 84.1159 200.858 83.7973C204.032 83.4837 207.102 82.4924 209.86 80.8903C212.618 79.2882 215 77.1128 216.844 74.511" stroke="white" stroke-linecap="round" stroke-linejoin="round"/>
<path d="M185.398 80.358C192.202 76.3474 201.76 80.5267 208.394 76.2349C210.273 74.8695 211.905 73.193 213.22 71.2778" stroke="white" stroke-linecap="round" stroke-linejoin="round"/>
<path d="M272.165 234.169C247.801 239.023 238.721 256.958 238.721 256.958L209.859 302.415" stroke="#263238" stroke-linecap="round" stroke-linejoin="round"/>
<path d="M251.562 229.239C253.582 227.364 255.872 225.803 258.356 224.61" stroke="#263238" stroke-linecap="round" stroke-linejoin="round"/>
<path d="M234.531 263.545C234.531 263.545 237.614 247.128 246.441 235.031" stroke="#263238" stroke-linecap="round" stroke-linejoin="round"/>
<path d="M159.443 298.573C159.443 298.573 158.178 248.29 153.82 240.606" stroke="#263238" stroke-linecap="round" stroke-linejoin="round"/>
<path d="M261.197 200.35C261.197 200.35 275.253 208.783 281.485 216.711C287.716 224.639 302.475 229.896 305.849 240.606C305.849 240.606 286.414 301.816 266.061 323.94C245.708 346.064 234.5 355.144 234.5 355.144C234.5 355.144 185.538 346.636 153.781 319.967L165.139 293.869C165.139 293.869 197.168 297.917 209.827 302.415C222.487 306.913 234.5 334.154 234.5 334.154" stroke="#263238" stroke-linecap="round" stroke-linejoin="round"/>
<path d="M209.859 302.415C209.859 302.415 232.274 306.763 239.546 316.977" stroke="#263238" stroke-linecap="round" stroke-linejoin="round"/>
<path d="M274.355 312.91L258.369 383.237H160.502L157.156 358.658" stroke="#263238" stroke-linecap="round" stroke-linejoin="round"/>
<path d="M202.64 351.696C197.234 362.772 190.102 360.326 190.102 360.326C134.956 362.416 114.64 341.81 114.64 341.81C114.64 341.81 111.829 312.826 122.671 273.713C133.513 234.6 153.819 200.35 153.819 200.35C162.824 194.362 182.915 189.686 188.584 188.449L190.102 188.13" stroke="#263238" stroke-linecap="round" stroke-linejoin="round"/>
<path d="M190.109 360.326C190.109 360.326 187.186 359.839 187.935 340.526" stroke="#263238" stroke-linecap="round" stroke-linejoin="round"/>
<path d="M155.309 321.194C155.309 321.194 141.525 316.34 124.461 328.157" stroke="#263238" stroke-linecap="round" stroke-linejoin="round"/>
<path d="M127.578 316.959C127.578 316.959 145.626 311.589 153.816 320.192" stroke="#263238" stroke-linecap="round" stroke-linejoin="round"/>
<path d="M151.857 319.714L154.19 320.885L163.111 298.611C163.111 298.611 153.881 297.093 139.234 315.319C143.807 315.378 148.236 316.92 151.857 319.714Z" fill="#E8E8E8" stroke="#263238" stroke-miterlimit="10"/>
<path d="M187.93 340.526V350.421C187.93 350.421 200.561 354.17 209.904 348.791L187.93 340.526Z" fill="#E8E8E8" stroke="#263238" stroke-miterlimit="10"/>
<path d="M256.346 203.648C256.355 203.831 256.336 204.015 256.29 204.192C255.896 205.738 246.272 242.068 215.471 258.233C215.203 258.376 214.904 258.45 214.6 258.448C214.181 258.448 213.774 258.307 213.445 258.049C213.115 257.791 212.881 257.429 212.781 257.023C212.681 256.616 212.72 256.188 212.891 255.806C213.063 255.424 213.358 255.11 213.728 254.915C241.84 240.175 251.745 206.581 252.607 203.489L256.346 203.648Z" fill="#263238"/>
<path d="M190.057 194.015C185.188 205.137 182.561 217.11 182.326 229.249C182.326 230.186 182.326 231.236 182.326 232.257C182.326 232.51 182.326 232.763 182.326 233.016C182.047 233.026 181.768 233.054 181.492 233.1C180.478 233.261 179.495 233.577 178.578 234.038C178.578 232.66 178.578 231.32 178.578 229.999C178.981 208.971 185.259 194.662 188.605 188.477L190.123 188.159C189.261 188.978 188.72 190.078 188.595 191.26C188.623 191.798 188.769 192.324 189.021 192.8C189.274 193.276 189.627 193.691 190.057 194.015Z" fill="#263238"/>
<path d="M226.968 249.78C229.17 252.826 227.371 257.886 222.948 261.081C218.525 264.277 213.156 264.389 210.954 261.344C208.752 258.298 210.56 253.238 214.983 250.042C219.406 246.847 224.766 246.735 226.968 249.78Z" fill="white" stroke="#263238" stroke-linecap="round" stroke-linejoin="round"/>
<path d="M221.518 247.972C223.074 250.127 221.799 253.707 218.707 255.965C215.615 258.223 211.782 258.308 210.227 256.152C208.671 253.997 209.945 250.417 213.038 248.159C216.13 245.901 219.963 245.816 221.518 247.972Z" fill="white" stroke="#263238" stroke-linecap="round" stroke-linejoin="round"/>
<path d="M196.745 286.035C196.346 286.301 195.86 286.403 195.388 286.321C194.916 286.24 194.493 285.98 194.206 285.596C193.919 285.212 193.79 284.733 193.846 284.257C193.902 283.781 194.138 283.344 194.505 283.037C194.665 282.906 200.952 277.555 198.197 259.535C197.963 258.008 197.663 256.377 197.26 254.662C196.07 249.199 194.234 242.284 190.476 237.205C189.582 235.865 188.358 234.779 186.922 234.05C185.485 233.321 183.886 232.975 182.277 233.044C181.997 233.054 181.718 233.082 181.443 233.129C180.429 233.289 179.446 233.605 178.528 234.066C175.729 235.512 173.604 237.993 172.606 240.981L172.269 241.918C170.144 247.665 168.406 253.547 167.068 259.526C165.569 266.882 165.063 274.594 167.724 279.982C168.437 281.46 169.453 282.772 170.706 283.833C171.958 284.894 173.42 285.679 174.996 286.138C175.411 286.282 175.762 286.566 175.989 286.942C176.216 287.318 176.304 287.762 176.237 288.196C176.17 288.63 175.953 289.027 175.623 289.317C175.293 289.607 174.872 289.772 174.433 289.784C174.236 289.783 174.04 289.752 173.852 289.69C171.803 289.075 169.904 288.041 168.275 286.654C166.646 285.266 165.322 283.556 164.388 281.631C161.389 275.568 161.783 267.313 163.301 259.516C164.665 253.1 166.506 246.795 168.811 240.653L169.148 239.716C169.885 237.486 171.119 235.452 172.757 233.769C174.395 232.085 176.394 230.796 178.603 229.999C179.368 229.734 180.155 229.539 180.955 229.418C181.433 229.352 181.892 229.305 182.38 229.277C184.573 229.217 186.747 229.708 188.701 230.705C190.656 231.702 192.329 233.173 193.568 234.984C197.748 240.606 199.734 248.037 200.999 253.866C201.44 255.871 201.777 257.755 202.03 259.535C204.916 279.729 197.11 285.745 196.745 286.035Z" fill="#263238" stroke="#263238" stroke-miterlimit="10"/>
<path d="M173.108 289.418C173.108 289.418 179.901 292.229 181.616 289.418C183.331 286.607 181.953 285.276 179.601 285.061C177.254 284.941 174.902 284.941 172.555 285.061L173.108 289.418Z" fill="#263238" stroke="#263238" stroke-miterlimit="10"/>
<path d="M176.223 288.481C176.102 288.86 175.863 289.19 175.541 289.425C175.219 289.659 174.831 289.784 174.433 289.783C174.236 289.783 174.04 289.751 173.852 289.69C171.803 289.074 169.904 288.04 168.275 286.653C166.646 285.266 165.322 283.556 164.388 281.631C161.389 275.568 161.783 267.313 163.301 259.516H167.049C165.55 266.872 165.044 274.584 167.705 279.972C168.418 281.451 169.434 282.763 170.687 283.823C171.939 284.884 173.401 285.669 174.977 286.129C175.214 286.201 175.434 286.318 175.625 286.476C175.816 286.633 175.974 286.827 176.09 287.045C176.206 287.264 176.277 287.503 176.3 287.75C176.323 287.996 176.297 288.245 176.223 288.481Z" fill="white" stroke="#263238" stroke-linecap="round" stroke-linejoin="round"/>
<path d="M190.498 283.964C190.215 284.301 190.005 284.694 189.883 285.117C189.76 285.54 189.727 285.983 189.786 286.42C189.975 287.06 190.382 287.613 190.937 287.985C191.491 288.356 192.159 288.522 192.822 288.453C194.156 288.284 195.375 287.614 196.233 286.579C197.17 285.529 200.422 278.67 197.423 279.841C195.24 280.666 191.951 282.062 190.498 283.964Z" fill="#263238" stroke="#263238" stroke-miterlimit="10"/>
<path d="M196.74 286.035C196.341 286.3 195.855 286.403 195.383 286.321C194.911 286.239 194.488 285.98 194.201 285.596C193.914 285.212 193.785 284.732 193.841 284.256C193.897 283.78 194.133 283.344 194.5 283.036C194.66 282.905 200.947 277.554 198.192 259.535H201.941C204.911 279.728 197.105 285.744 196.74 286.035Z" fill="white" stroke="#263238" stroke-linecap="round" stroke-linejoin="round"/>
<path opacity="0.2" d="M213.56 120.371C213.56 120.371 225.358 114.252 236.191 120.371C236.191 120.371 236.378 129.423 232.283 133.143C230.831 134.465 224.168 134.69 221.657 134.465C211.424 133.537 213.56 120.371 213.56 120.371Z" fill="white"/>
<path opacity="0.2" d="M206.163 120.371C206.163 120.371 194.365 114.252 183.533 120.371C183.533 120.371 183.345 129.423 187.44 133.143C188.893 134.465 195.546 134.69 198.066 134.465C208.299 133.537 206.163 120.371 206.163 120.371Z" fill="white"/>
<path d="M213.56 120.371C213.56 120.371 225.358 114.252 236.191 120.371C236.191 120.371 236.378 129.423 232.283 133.143C230.831 134.465 224.168 134.69 221.657 134.465C211.424 133.537 213.56 120.371 213.56 120.371Z" stroke="#263238" stroke-miterlimit="10"/>
<path d="M206.163 120.371C206.163 120.371 194.365 114.252 183.533 120.371C183.533 120.371 183.345 129.423 187.44 133.143C188.893 134.465 195.546 134.69 198.066 134.465C208.299 133.537 206.163 120.371 206.163 120.371Z" stroke="#263238" stroke-miterlimit="10"/>
<path d="M206.172 120.371C206.172 120.371 208.814 118.431 213.575 120.371" stroke="#263238" stroke-miterlimit="10"/>
<path d="M236.195 120.371L241.124 122.667" stroke="#263238" stroke-miterlimit="10"/>
<path d="M47.5391 408.182L82.2199 375.422H357.465L378.315 408.182H47.5391Z" fill="white" stroke="#263238" stroke-linecap="round" stroke-linejoin="round"/>
<path d="M378.315 408.182H47.5391V417H378.315V408.182Z" fill="#263238" stroke="#263238" stroke-linecap="round" stroke-linejoin="round"/>
<path d="M82.2266 400.086V393.292H136.567V400.086H126.091H82.2266Z" fill="white" stroke="#263238" stroke-miterlimit="10"/>
<path d="M82.2266 393.292L114.331 371.758L157.164 372.761L136.567 393.292H82.2266Z" fill="white" stroke="#263238" stroke-linecap="round" stroke-linejoin="round"/>
<path d="M136.562 400.086L157.16 379.452V372.761L136.562 393.292V400.086Z" fill="white" stroke="#263238" stroke-linecap="round" stroke-linejoin="round"/>
<path d="M135.096 391.587C135.096 391.587 130.758 392.449 130.758 396.206C130.758 399.964 134.506 401.07 134.506 401.07" stroke="#263238" stroke-width="2" stroke-linecap="round" stroke-linejoin="round"/>
<path d="M130.761 391.587C130.761 391.587 126.422 392.449 126.422 396.206C126.422 399.964 130.17 401.07 130.17 401.07" stroke="#263238" stroke-width="2" stroke-linecap="round" stroke-linejoin="round"/>
<path d="M126.432 391.587C126.432 391.587 122.094 392.449 122.094 396.206C122.094 399.964 125.842 401.07 125.842 401.07" stroke="#263238" stroke-width="2" stroke-linecap="round" stroke-linejoin="round"/>
<path d="M122.089 391.587C122.089 391.587 117.75 392.449 117.75 396.206C117.75 399.964 121.498 401.07 121.498 401.07" stroke="#263238" stroke-width="2" stroke-linecap="round" stroke-linejoin="round"/>
<path d="M117.753 391.587C117.753 391.587 113.414 392.449 113.414 396.206C113.414 399.964 117.162 401.07 117.162 401.07" stroke="#263238" stroke-width="2" stroke-linecap="round" stroke-linejoin="round"/>
<path d="M113.409 391.587C113.409 391.587 109.07 392.449 109.07 396.206C109.07 399.964 112.819 401.07 112.819 401.07" stroke="#263238" stroke-width="2" stroke-linecap="round" stroke-linejoin="round"/>
<path d="M109.073 391.587C109.073 391.587 104.734 392.449 104.734 396.206C104.734 399.964 108.483 401.07 108.483 401.07" stroke="#263238" stroke-width="2" stroke-linecap="round" stroke-linejoin="round"/>
<path d="M104.729 391.587C104.729 391.587 100.391 392.449 100.391 396.206C100.391 399.964 104.139 401.07 104.139 401.07" stroke="#263238" stroke-width="2" stroke-linecap="round" stroke-linejoin="round"/>
<path d="M99.8543 391.587C99.8543 391.587 95.5156 392.449 95.5156 396.206C95.5156 399.964 99.2639 401.07 99.2639 401.07" stroke="#263238" stroke-width="2" stroke-linecap="round" stroke-linejoin="round"/>
<path d="M94.9714 391.587C94.9714 391.587 90.6328 392.449 90.6328 396.206C90.6328 399.964 94.3811 401.07 94.3811 401.07" stroke="#263238" stroke-width="2" stroke-linecap="round" stroke-linejoin="round"/>
<path d="M89.5574 391.587C89.5574 391.587 85.2188 392.449 85.2188 396.206C85.2188 399.964 88.9669 401.07 88.9669 401.07" stroke="#263238" stroke-width="2" stroke-linecap="round" stroke-linejoin="round"/>
<path d="M117.061 377.034C114.07 378.688 111.699 381.27 110.305 384.39C114.231 383.181 117.37 380.286 120.359 377.474L117.108 385.514C118.601 385.392 120.045 384.919 121.321 384.135C122.598 383.35 123.671 382.275 124.454 380.998C124.199 381.11 123.969 381.274 123.781 381.48C123.592 381.687 123.449 381.93 123.361 382.195C123.273 382.46 123.241 382.741 123.268 383.019C123.295 383.297 123.38 383.566 123.517 383.809C126.235 383.415 127.959 380.782 129.337 378.411C129.583 379.736 129.681 381.085 129.627 382.431C131.896 382.757 134.212 382.463 136.327 381.579" stroke="#263238" stroke-width="0.75" stroke-linecap="round" stroke-linejoin="round"/>
<path d="M355.653 342.606H261.188V394.473H355.653V342.606Z" fill="white" stroke="#263238" stroke-linecap="round" stroke-linejoin="round"/>
<path d="M260.813 394.463L245.633 380.023V328.156L260.813 342.606V394.463Z" fill="white" stroke="#263238" stroke-linecap="round" stroke-linejoin="round"/>
<path d="M355.656 342.606L340.466 328.156H246L261.19 342.606H355.656Z" fill="white" stroke="#263238" stroke-linecap="round" stroke-linejoin="round"/>
<path d="M320.905 362.06H312.556V353.326H300.796V362.06H291.688V373.82H300.796V382.553H312.556V373.82H320.905V362.06Z" fill="#92E3A9" stroke="#263238" stroke-miterlimit="10"/>
<path d="M307.588 342.606L292.398 328.156" stroke="#263238" stroke-linecap="round" stroke-linejoin="round"/>
<path d="M107.916 122.166C118.935 111.148 118.935 93.2827 107.916 82.264C96.8975 71.2453 79.0327 71.2453 68.014 82.264C56.9953 93.2827 56.9953 111.148 68.014 122.166C79.0327 133.185 96.8975 133.185 107.916 122.166Z" fill="white" stroke="#263238" stroke-linecap="round" stroke-linejoin="round"/>
<path d="M111.394 97.8909C111.394 99.7796 110.801 101.621 109.7 103.155C108.599 104.69 107.045 105.841 105.256 106.446L92.6619 110.691L77.3221 115.873C75.0624 116.616 72.6006 116.436 70.4733 115.371C68.346 114.307 66.7255 112.445 65.9652 110.191C65.2048 107.937 65.3661 105.474 66.4139 103.339C67.4618 101.203 69.3112 99.5683 71.5592 98.7905L85.4934 94.1052L99.4932 89.4198C100.848 88.9643 102.291 88.8369 103.704 89.0481C105.117 89.2594 106.46 89.8032 107.622 90.6349C108.784 91.4666 109.732 92.5624 110.388 93.832C111.044 95.1016 111.388 96.5088 111.394 97.9378V97.8909Z" fill="white"/>
<path d="M111.393 97.891C111.392 99.7797 110.8 101.621 109.699 103.155C108.598 104.69 107.044 105.841 105.255 106.446L92.6608 110.691C92.3247 104.482 89.7825 98.597 85.4922 94.0959L99.492 89.4106C100.846 88.955 102.29 88.8276 103.703 89.0388C105.116 89.2501 106.459 89.7939 107.621 90.6256C108.783 91.4573 109.731 92.5531 110.387 93.8227C111.042 95.0924 111.387 96.4996 111.393 97.9285V97.891Z" fill="#92E3A9"/>
<path d="M111.394 97.8909C111.394 99.7796 110.801 101.621 109.7 103.155C108.599 104.69 107.045 105.841 105.256 106.446L92.6619 110.691L77.3221 115.873C75.0624 116.616 72.6006 116.436 70.4733 115.371C68.346 114.307 66.7255 112.445 65.9652 110.191C65.2048 107.937 65.3661 105.474 66.4139 103.339C67.4618 101.203 69.3112 99.5683 71.5592 98.7905L85.4934 94.1052L99.4932 89.4198C100.848 88.9643 102.291 88.8369 103.704 89.0481C105.117 89.2594 106.46 89.8032 107.622 90.6349C108.784 91.4666 109.732 92.5624 110.388 93.832C111.044 95.1016 111.388 96.5088 111.394 97.9378V97.8909Z" stroke="#263238" stroke-linecap="round" stroke-linejoin="round"/>
<path d="M92.6608 110.691C92.3808 104.469 89.8305 98.5651 85.4922 94.0959" stroke="#263238" stroke-linecap="round" stroke-linejoin="round"/>
<path d="M108.422 94.48C109.008 95.4754 109.307 96.6141 109.284 97.7691" stroke="white" stroke-linecap="round" stroke-linejoin="round"/>
<path d="M89.0938 95.4734L100.339 91.7251C101.347 91.3793 102.42 91.2612 103.48 91.3795C104.539 91.4978 105.559 91.8494 106.467 92.4092" stroke="white" stroke-linecap="round" stroke-linejoin="round"/>
<path d="M279.68 63.9346C294.031 57.861 300.74 41.304 294.667 26.9536C288.593 12.6032 272.036 5.89359 257.686 11.9673C243.335 18.0409 236.626 34.5979 242.699 48.9483C248.773 63.2987 265.33 70.0083 279.68 63.9346Z" fill="white" stroke="#263238" stroke-linecap="round" stroke-linejoin="round"/>
<path d="M278.395 49.7631L253.788 41.5263C251.743 40.8363 250.056 39.3639 249.095 37.4317C248.134 35.4996 247.979 33.2653 248.662 31.2186C249.352 29.1737 250.824 27.4855 252.756 26.5231C254.688 25.5608 256.922 25.4027 258.97 26.0834L283.577 34.3202C285.622 35.0102 287.31 36.4826 288.271 38.4148C289.231 40.347 289.387 42.5813 288.703 44.628C288.013 46.6728 286.541 48.3611 284.609 49.3234C282.678 50.2858 280.443 50.4439 278.395 49.7631Z" fill="#92E3A9"/>
<path d="M260.383 40.8609L264.497 31.0217" stroke="#263238" stroke-linecap="round" stroke-linejoin="round"/>
<path d="M273.938 45.3778L278.042 35.5574" stroke="#263238" stroke-linecap="round" stroke-linejoin="round"/>
<path d="M263.787 41.4514C264.248 41.4514 264.621 41.078 264.621 40.6174C264.621 40.1568 264.248 39.7834 263.787 39.7834C263.327 39.7834 262.953 40.1568 262.953 40.6174C262.953 41.078 263.327 41.4514 263.787 41.4514Z" fill="#263238"/>
<path d="M271.98 43.0725C271.98 43.2375 271.932 43.3987 271.84 43.5359C271.748 43.673 271.618 43.7799 271.466 43.843C271.313 43.9061 271.146 43.9227 270.984 43.8905C270.822 43.8583 270.673 43.7789 270.557 43.6622C270.44 43.5456 270.361 43.397 270.329 43.2352C270.296 43.0734 270.313 42.9058 270.376 42.7534C270.439 42.601 270.546 42.4707 270.683 42.3791C270.82 42.2874 270.982 42.2385 271.147 42.2385C271.368 42.2385 271.58 42.3264 271.736 42.4828C271.893 42.6392 271.98 42.8513 271.98 43.0725Z" fill="#263238"/>
<path d="M266.998 34.0296C267.459 34.0296 267.832 33.6562 267.832 33.1956C267.832 32.735 267.459 32.3616 266.998 32.3616C266.537 32.3616 266.164 32.735 266.164 33.1956C266.164 33.6562 266.537 34.0296 266.998 34.0296Z" fill="#263238"/>
<path d="M275.085 35.5757C275.087 35.7433 275.039 35.9077 274.947 36.0478C274.855 36.1879 274.723 36.2974 274.569 36.3624C274.414 36.4274 274.244 36.4449 274.08 36.4127C273.915 36.3804 273.764 36.2999 273.645 36.1814C273.527 36.0629 273.446 35.9118 273.414 35.7473C273.382 35.5828 273.399 35.4125 273.464 35.258C273.529 35.1035 273.639 34.9719 273.779 34.88C273.919 34.788 274.084 34.7399 274.251 34.7418C274.472 34.7418 274.684 34.8296 274.841 34.986C274.997 35.1424 275.085 35.3546 275.085 35.5757Z" fill="#263238"/>
<path d="M278.395 49.7631L253.788 41.5263C251.743 40.8363 250.056 39.3639 249.095 37.4317C248.134 35.4996 247.979 33.2653 248.662 31.2186C249.352 29.1737 250.824 27.4855 252.756 26.5231C254.688 25.5608 256.922 25.4027 258.97 26.0834L283.577 34.3202C285.622 35.0102 287.31 36.4826 288.271 38.4148C289.231 40.347 289.387 42.5813 288.703 44.628C288.013 46.6728 286.541 48.3611 284.609 49.3234C282.678 50.2858 280.443 50.4439 278.395 49.7631Z" stroke="#263238" stroke-linecap="round" stroke-linejoin="round"/>
<path d="M162.16 64.6251C177.743 64.6251 190.376 51.9927 190.376 36.4099C190.376 20.8272 177.743 8.19482 162.16 8.19482C146.578 8.19482 133.945 20.8272 133.945 36.4099C133.945 51.9927 146.578 64.6251 162.16 64.6251Z" fill="white" stroke="#263238" stroke-linecap="round" stroke-linejoin="round"/>
<path d="M178.319 37.1407V48.7042C178.319 51.6372 176.445 54.0174 174.15 54.0174H150.17C147.865 54.0174 146 51.6372 146 48.7042V37.1407C146 34.2077 147.874 31.8276 150.17 31.8276H154.115V25.1182H170.045V31.8276H174.121C176.455 31.8276 178.319 34.2077 178.319 37.1407Z" fill="white" stroke="#263238" stroke-linecap="round" stroke-linejoin="round"/>
<path d="M178.319 38.4714H146V45.64H178.319V38.4714Z" fill="#92E3A9" stroke="#263238" stroke-miterlimit="10"/>
<path d="M156.307 17.2656H168.152C169.489 17.2656 170.771 17.7968 171.716 18.7422C172.662 19.6877 173.193 20.97 173.193 22.3071V27.5453H151.266V22.3071C151.266 20.97 151.797 19.6877 152.742 18.7422C153.688 17.7968 154.97 17.2656 156.307 17.2656Z" fill="#92E3A9" stroke="#263238" stroke-miterlimit="10"/>
<path d="M155.094 17.575V27.5454" stroke="#263238" stroke-linecap="round" stroke-linejoin="round"/>
<path d="M160.281 17.2656V27.5453" stroke="#263238" stroke-linecap="round" stroke-linejoin="round"/>
<path d="M165.461 17.2656V27.5453" stroke="#263238" stroke-linecap="round" stroke-linejoin="round"/>
<path d="M170.641 17.8464V27.5451" stroke="#263238" stroke-linecap="round" stroke-linejoin="round"/>
<path d="M89.8833 190.666C92.4042 175.288 81.9818 160.779 66.6043 158.258C51.2268 155.737 36.7173 166.159 34.1963 181.537C31.6754 196.914 42.0977 211.424 57.4753 213.945C72.8528 216.466 87.3623 206.043 89.8833 190.666Z" fill="white" stroke="#263238" stroke-linecap="round" stroke-linejoin="round"/>
<path d="M76.3439 193.381C79.4171 186.883 75.1915 178.439 66.9059 174.52C58.6203 170.602 49.4121 172.693 46.3389 179.192C43.2658 185.69 47.4913 194.135 55.7769 198.053C64.0625 201.971 73.2707 199.88 76.3439 193.381Z" fill="#92E3A9" stroke="#263238" stroke-linecap="round" stroke-linejoin="round"/>
<path d="M77.368 191.162C80.2509 185.066 75.8711 176.948 67.5855 173.029C59.2999 169.111 50.246 170.876 47.3631 176.972C44.4802 183.068 48.8599 191.187 57.1456 195.105C65.4312 199.023 74.4851 197.258 77.368 191.162Z" fill="#92E3A9" stroke="#263238" stroke-linecap="round" stroke-linejoin="round"/>
<path d="M67.1468 175.724L56.9141 190.136" stroke="#263238" stroke-linecap="round" stroke-linejoin="round"/>
<path d="M60.9844 173.4C62.357 173.585 63.7092 173.899 65.0231 174.337" stroke="white" stroke-linecap="round" stroke-linejoin="round"/>
<path d="M51.8959 186.959C51.8959 186.959 46.6577 181.234 51.774 175.714C52.941 174.511 54.4666 173.719 56.122 173.456" stroke="white" stroke-linecap="round" stroke-linejoin="round"/>
<path d="M387.071 190.682C389.592 175.304 379.169 160.795 363.792 158.274C348.414 155.753 333.905 166.175 331.384 181.553C328.863 196.93 339.285 211.44 354.663 213.961C370.04 216.481 384.55 206.059 387.071 190.682Z" fill="white" stroke="#263238" stroke-linecap="round" stroke-linejoin="round"/>
<path d="M375.425 188.946C375.209 189.255 374.994 189.574 374.769 189.883C370.542 195.74 364.03 201.203 359.204 202.28V202.205C354.519 201.156 348.212 195.955 343.986 190.277C343.752 189.967 343.527 189.649 343.311 189.34C339.244 183.511 337.53 177.392 342.056 174.862C351.258 169.727 359.204 180.737 359.204 180.737C359.204 180.737 367.169 169.811 376.352 174.937C380.757 177.392 379.248 183.258 375.425 188.946Z" fill="#92E3A9" stroke="#263238" stroke-miterlimit="10"/>
<path d="M375.427 188.946C375.212 189.255 374.996 189.573 374.771 189.883H372.447L369.786 193.397L367.978 182.958L365.166 190.042H358.523L355.102 195.749L352.488 184.288L349.105 190.276H343.979C343.745 189.967 343.52 189.648 343.305 189.339H348.562L352.863 181.721L355.515 193.266L358.017 189.096H364.576L368.324 179.5L370.33 191.082L371.97 188.918L375.427 188.946Z" fill="white"/>
<path d="M332.067 130.744C347.649 130.744 360.282 118.112 360.282 102.529C360.282 86.9463 347.649 74.314 332.067 74.314C316.484 74.314 303.852 86.9463 303.852 102.529C303.852 118.112 316.484 130.744 332.067 130.744Z" fill="white" stroke="#263238" stroke-linecap="round" stroke-linejoin="round"/>
<path d="M330 89.4856C330.271 90.0947 328.585 91.4441 326.251 92.503C323.918 93.5618 321.753 93.9179 321.482 93.3088C321.21 92.6997 322.906 91.3504 325.23 90.2915C327.554 89.2326 329.681 88.8671 330 89.4856Z" fill="white" stroke="#263238" stroke-linecap="round" stroke-linejoin="round"/>
<path d="M342.657 115.648L334.205 119.743L326.643 104.151L321.414 93.3649L329.848 89.2793L334.955 99.7932L342.657 115.648Z" fill="white" stroke="#263238" stroke-linecap="round" stroke-linejoin="round"/>
<path d="M322.961 96.5886L326.634 94.8738" stroke="#263238" stroke-linecap="round" stroke-linejoin="round"/>
<path d="M324.57 99.9806L328.234 98.2751" stroke="#263238" stroke-linecap="round" stroke-linejoin="round"/>
<path d="M337.438 118.169L341.785 123.895L339.611 117.12L337.438 118.169Z" fill="white" stroke="#263238" stroke-linecap="round" stroke-linejoin="round"/>
<path d="M342.655 115.649C340.68 117.635 338.153 118.981 335.402 119.509L334.203 119.744L326.641 104.151L334.952 99.7935L342.655 115.649Z" fill="#92E3A9" stroke="#263238" stroke-miterlimit="10"/>
<path d="M328.242 107.112L331.681 105.519" stroke="#263238" stroke-linecap="round" stroke-linejoin="round"/>
<path d="M330.133 110.738L333.516 109.192" stroke="#263238" stroke-linecap="round" stroke-linejoin="round"/>
<path d="M324.335 91.9501L321.664 85.9435L323.754 84.7534L326.64 90.835L324.335 91.9501Z" fill="white" stroke="#263238" stroke-linecap="round" stroke-linejoin="round"/>
<path d="M328.904 84.0221L328.276 82.6072L317.031 87.6486L317.659 89.0542C317.921 89.6446 320.658 88.998 323.759 87.6111C326.861 86.2243 329.166 84.6125 328.904 84.0221Z" fill="white" stroke="#263238" stroke-linecap="round" stroke-linejoin="round"/>
<path d="M328.281 82.6074C328.009 82.017 325.282 82.6636 322.18 84.0598C319.079 85.4561 316.774 87.0584 317.036 87.6488C317.298 88.2392 320.025 87.5832 323.136 86.1963C326.247 84.8095 328.543 83.1977 328.281 82.6074Z" fill="white" stroke="#263238" stroke-linecap="round" stroke-linejoin="round"/>
</svg>
