<svg width="439" height="421" viewBox="0 0 439 421" fill="none" xmlns="http://www.w3.org/2000/svg">
<path d="M420.825 86.437C420.838 85.8603 420.684 85.2921 420.382 84.8006C420.08 84.309 419.642 83.915 419.122 83.6657C418.602 83.4164 418.021 83.3224 417.449 83.3949C416.876 83.4674 416.337 83.7034 415.895 84.0746C415.454 84.4458 415.129 84.9365 414.959 85.4878C414.789 86.0391 414.782 86.6278 414.938 87.1831C415.094 87.7385 415.407 88.237 415.839 88.6191C416.271 89.0011 416.805 89.2504 417.375 89.337V142.437H388.375V183.637H389.375V143.437H418.375V89.347C419.057 89.22 419.674 88.8606 420.12 88.33C420.567 87.7995 420.816 87.1305 420.825 86.437ZM417.875 88.437C417.475 88.4469 417.082 88.3368 416.745 88.1209C416.409 87.905 416.145 87.5932 415.987 87.2258C415.83 86.8584 415.786 86.4522 415.862 86.0596C415.937 85.667 416.129 85.3061 416.411 85.0234C416.694 84.7408 417.055 84.5493 417.448 84.4737C417.84 84.3981 418.246 84.442 418.614 84.5995C418.981 84.757 419.293 85.0211 419.509 85.3575C419.725 85.694 419.835 86.0874 419.825 86.487C419.812 87.0002 419.603 87.4889 419.24 87.8519C418.877 88.2149 418.388 88.4244 417.875 88.437Z" fill="#A6D7FF"/>
<path d="M373.69 111.577C373.002 111.656 372.362 111.971 371.879 112.467C371.397 112.964 371.101 113.613 371.042 114.303C370.983 114.993 371.165 115.682 371.556 116.253C371.948 116.825 372.525 117.243 373.19 117.437V183.637H374.19V117.437C374.854 117.243 375.431 116.825 375.823 116.253C376.214 115.682 376.396 114.993 376.337 114.303C376.278 113.613 375.982 112.964 375.5 112.467C375.017 111.971 374.378 111.656 373.69 111.577ZM373.69 116.487C373.292 116.497 372.901 116.388 372.565 116.175C372.23 115.961 371.966 115.652 371.807 115.288C371.648 114.923 371.601 114.52 371.672 114.129C371.744 113.737 371.93 113.376 372.208 113.092C372.485 112.807 372.841 112.611 373.231 112.53C373.62 112.449 374.025 112.485 374.393 112.635C374.761 112.785 375.077 113.041 375.299 113.371C375.521 113.701 375.639 114.089 375.64 114.487C375.64 115.009 375.436 115.51 375.072 115.884C374.707 116.258 374.211 116.474 373.69 116.487Z" fill="#A6D7FF"/>
<path d="M304.721 45.967H250.661C250.536 45.2253 250.136 44.5578 249.542 44.0967C248.948 43.6356 248.202 43.4146 247.452 43.4776C246.703 43.5405 246.004 43.8827 245.495 44.4364C244.986 44.9901 244.703 45.7148 244.703 46.467C244.703 47.2193 244.986 47.944 245.495 48.4977C246.004 49.0514 246.703 49.3936 247.452 49.4565C248.202 49.5194 248.948 49.2985 249.542 48.8374C250.136 48.3763 250.536 47.7087 250.661 46.967H303.721V59.967H344.951V58.967H304.721V45.967ZM247.761 48.437C247.364 48.447 246.972 48.3382 246.637 48.1246C246.301 47.9109 246.037 47.6022 245.878 47.2377C245.719 46.8732 245.672 46.4696 245.744 46.0784C245.815 45.6872 246.002 45.3262 246.279 45.0415C246.557 44.7567 246.913 44.5612 247.302 44.4799C247.692 44.3986 248.096 44.4352 248.465 44.585C248.833 44.7348 249.148 44.991 249.37 45.3209C249.592 45.6508 249.711 46.0394 249.711 46.437C249.711 46.9589 249.507 47.4602 249.143 47.8339C248.779 48.2075 248.283 48.424 247.761 48.437Z" fill="#A6D7FF"/>
<path d="M294.486 68.1569C293.91 68.1446 293.342 68.2985 292.851 68.6002C292.36 68.902 291.966 69.3388 291.717 69.8585C291.468 70.3782 291.373 70.9587 291.445 71.5306C291.517 72.1025 291.752 72.6416 292.123 73.0833C292.493 73.5251 292.983 73.8508 293.533 74.0216C294.084 74.1923 294.672 74.2009 295.227 74.0462C295.782 73.8915 296.281 73.5801 296.664 73.1493C297.047 72.7185 297.298 72.1865 297.386 71.6169H343.596V70.6169H297.386C297.262 69.935 296.905 69.3172 296.376 68.8687C295.847 68.4203 295.179 68.1687 294.486 68.1569ZM294.486 73.0669C294.087 73.0768 293.693 72.9667 293.357 72.7508C293.02 72.5349 292.756 72.2231 292.599 71.8557C292.441 71.4883 292.397 71.0821 292.473 70.6895C292.549 70.2969 292.74 69.936 293.023 69.6533C293.305 69.3707 293.666 69.1792 294.059 69.1036C294.451 69.028 294.858 69.0718 295.225 69.2294C295.592 69.3869 295.904 69.6509 296.12 69.9874C296.336 70.3239 296.446 70.7173 296.436 71.1169C296.424 71.6301 296.214 72.1188 295.851 72.4818C295.488 72.8447 294.999 73.0543 294.486 73.0669Z" fill="#A6D7FF"/>
<path d="M228.135 146.337C228.823 146.258 229.463 145.944 229.945 145.447C230.428 144.95 230.724 144.302 230.782 143.612C230.841 142.922 230.66 142.232 230.268 141.661C229.877 141.09 229.3 140.671 228.635 140.477V94.2771H227.635V140.437C226.97 140.631 226.393 141.05 226.002 141.621C225.61 142.192 225.429 142.882 225.487 143.572C225.546 144.262 225.842 144.91 226.325 145.407C226.807 145.904 227.447 146.218 228.135 146.297V146.337ZM228.135 141.427C228.532 141.417 228.924 141.526 229.259 141.74C229.595 141.953 229.859 142.262 230.018 142.626C230.177 142.991 230.224 143.395 230.152 143.786C230.081 144.177 229.895 144.538 229.617 144.823C229.339 145.107 228.983 145.303 228.594 145.384C228.205 145.466 227.8 145.429 227.432 145.279C227.063 145.129 226.748 144.873 226.526 144.543C226.304 144.213 226.185 143.825 226.185 143.427C226.187 142.907 226.392 142.408 226.756 142.037C227.12 141.665 227.615 141.45 228.135 141.437V141.427Z" fill="#A6D7FF"/>
<path d="M238.102 130.637V84.437H237.102V130.637C236.36 130.762 235.692 131.162 235.231 131.756C234.77 132.35 234.549 133.096 234.612 133.846C234.675 134.596 235.017 135.294 235.571 135.803C236.125 136.312 236.849 136.595 237.602 136.595C238.354 136.595 239.079 136.312 239.632 135.803C240.186 135.294 240.528 134.596 240.591 133.846C240.654 133.096 240.433 132.35 239.972 131.756C239.511 131.162 238.843 130.762 238.102 130.637ZM237.602 135.497C237.204 135.497 236.815 135.378 236.485 135.156C236.156 134.934 235.899 134.619 235.75 134.25C235.6 133.882 235.563 133.477 235.644 133.088C235.726 132.699 235.921 132.343 236.206 132.065C236.491 131.787 236.852 131.601 237.243 131.53C237.634 131.458 238.038 131.505 238.402 131.664C238.767 131.823 239.075 132.087 239.289 132.423C239.503 132.758 239.612 133.149 239.602 133.547C239.589 134.069 239.372 134.565 238.998 134.929C238.625 135.293 238.123 135.497 237.602 135.497Z" fill="#A6D7FF"/>
<path d="M52.168 311.517V310.517H5.95804C5.83267 309.775 5.43324 309.108 4.8389 308.647C4.24457 308.186 3.49871 307.965 2.74912 308.028C1.99954 308.091 1.30094 308.433 0.791761 308.986C0.282587 309.54 0 310.265 0 311.017C0 311.769 0.282587 312.494 0.791761 313.048C1.30094 313.601 1.99954 313.944 2.74912 314.007C3.49871 314.069 4.24457 313.848 4.8389 313.387C5.43324 312.926 5.83267 312.259 5.95804 311.517H52.168ZM3.05804 312.977C2.66248 312.977 2.2758 312.86 1.9469 312.64C1.618 312.42 1.36165 312.108 1.21028 311.742C1.0589 311.377 1.0193 310.975 1.09647 310.587C1.17364 310.199 1.36412 309.843 1.64383 309.563C1.92353 309.283 2.2799 309.093 2.66786 309.016C3.05582 308.938 3.45796 308.978 3.82341 309.129C4.18886 309.281 4.50122 309.537 4.72098 309.866C4.94074 310.195 5.05804 310.582 5.05804 310.977C5.05804 311.508 4.84733 312.016 4.47225 312.391C4.09718 312.766 3.58847 312.977 3.05804 312.977Z" fill="#A6D7FF"/>
<path d="M12.9004 317.517C12.3241 317.505 11.7565 317.659 11.2654 317.96C10.7743 318.262 10.3805 318.699 10.1311 319.219C9.88181 319.738 9.78746 320.319 9.85939 320.891C9.93132 321.463 10.1665 322.002 10.5367 322.443C10.907 322.885 11.3967 323.211 11.9472 323.382C12.4977 323.552 13.0858 323.561 13.641 323.406C14.1963 323.252 14.6952 322.94 15.0782 322.509C15.4611 322.079 15.7118 321.547 15.8004 320.977H62.0104V319.977H15.8004C15.6757 319.295 15.3186 318.677 14.7899 318.229C14.2612 317.78 13.5935 317.529 12.9004 317.517ZM12.9004 322.427C12.5027 322.427 12.1141 322.308 11.7842 322.086C11.4543 321.864 11.1981 321.549 11.0483 321.18C10.8985 320.812 10.8619 320.407 10.9432 320.018C11.0245 319.629 11.2201 319.273 11.5048 318.995C11.7895 318.717 12.1505 318.531 12.5417 318.46C12.9329 318.388 13.3365 318.435 13.701 318.594C14.0655 318.753 14.3742 319.017 14.5879 319.353C14.8015 319.688 14.9103 320.08 14.9004 320.477C14.8899 321.001 14.6746 321.499 14.3006 321.865C13.9267 322.232 13.4239 322.437 12.9004 322.437V322.427Z" fill="#A6D7FF"/>
<path d="M231.659 414.287C230.967 414.298 230.3 414.549 229.772 414.995C229.243 415.442 228.885 416.057 228.759 416.737H175.699V387.737H134.469V388.737H174.699V417.737H228.759C228.854 418.291 229.106 418.807 229.484 419.223C229.863 419.639 230.352 419.938 230.895 420.085C231.438 420.232 232.012 420.22 232.548 420.052C233.085 419.884 233.562 419.566 233.924 419.135C234.286 418.705 234.517 418.18 234.591 417.622C234.664 417.065 234.577 416.498 234.339 415.988C234.101 415.479 233.722 415.048 233.247 414.746C232.772 414.445 232.221 414.286 231.659 414.287ZM231.659 419.187C231.275 419.177 230.903 419.055 230.589 418.834C230.275 418.614 230.033 418.306 229.893 417.949C229.753 417.592 229.722 417.202 229.803 416.827C229.883 416.452 230.073 416.109 230.347 415.842C230.622 415.574 230.969 415.393 231.346 415.322C231.723 415.25 232.113 415.292 232.466 415.441C232.819 415.59 233.121 415.84 233.333 416.159C233.545 416.479 233.659 416.854 233.659 417.237C233.646 417.759 233.429 418.255 233.056 418.619C232.682 418.983 232.181 419.187 231.659 419.187Z" fill="#A6D7FF"/>
<path d="M203.579 375.997C204.155 376.008 204.722 375.852 205.213 375.549C205.703 375.246 206.096 374.808 206.343 374.287C206.591 373.767 206.684 373.186 206.61 372.614C206.536 372.042 206.3 371.504 205.928 371.063C205.556 370.623 205.065 370.298 204.514 370.129C203.963 369.96 203.375 369.954 202.82 370.11C202.265 370.267 201.767 370.58 201.386 371.012C201.004 371.444 200.755 371.977 200.669 372.547H134.469V373.547H200.669C200.796 374.229 201.155 374.846 201.686 375.292C202.216 375.739 202.885 375.988 203.579 375.997ZM203.579 371.087C203.974 371.087 204.361 371.204 204.69 371.424C205.019 371.644 205.275 371.956 205.426 372.322C205.578 372.687 205.617 373.089 205.54 373.477C205.463 373.865 205.273 374.222 204.993 374.501C204.713 374.781 204.357 374.971 203.969 375.049C203.581 375.126 203.179 375.086 202.813 374.935C202.448 374.783 202.136 374.527 201.916 374.198C201.696 373.869 201.579 373.483 201.579 373.087C201.579 372.557 201.789 372.048 202.165 371.673C202.54 371.298 203.048 371.087 203.579 371.087Z" fill="#A6D7FF"/>
<path d="M362.617 29.887H375.617V5.81702C376.34 5.69183 376.99 5.29999 377.438 4.71898C377.886 4.13796 378.099 3.41003 378.036 2.67908C377.974 1.94813 377.639 1.26734 377.098 0.771286C376.558 0.27523 375.851 0 375.117 0C374.384 0 373.677 0.27523 373.136 0.771286C372.596 1.26734 372.261 1.94813 372.198 2.67908C372.135 3.41003 372.349 4.13796 372.797 4.71898C373.245 5.29999 373.894 5.69183 374.617 5.81702V28.887H361.617V70.117H362.617V29.887ZM373.157 2.88702C373.157 2.49146 373.274 2.10478 373.494 1.77588C373.714 1.44698 374.026 1.19064 374.392 1.03926C374.757 0.887889 375.159 0.848283 375.547 0.925453C375.935 1.00262 376.292 1.1931 376.571 1.47281C376.851 1.75251 377.042 2.10888 377.119 2.49684C377.196 2.88481 377.156 3.28694 377.005 3.65239C376.854 4.01784 376.597 4.3302 376.268 4.54996C375.939 4.76973 375.553 4.88702 375.157 4.88702C374.632 4.88708 374.128 4.68049 373.753 4.31188C373.379 3.94327 373.165 3.44224 373.157 2.91702V2.88702Z" fill="#A6D7FF"/>
<path d="M349.969 22.5569V68.7569H350.969V22.5569C351.71 22.4315 352.378 22.0321 352.839 21.4378C353.3 20.8434 353.521 20.0976 353.458 19.348C353.395 18.5984 353.053 17.8998 352.499 17.3906C351.946 16.8815 351.221 16.5989 350.469 16.5989C349.717 16.5989 348.992 16.8815 348.438 17.3906C347.884 17.8998 347.542 18.5984 347.479 19.348C347.416 20.0976 347.637 20.8434 348.098 21.4378C348.56 22.0321 349.227 22.4315 349.969 22.5569ZM350.469 17.7069C350.854 17.7069 351.231 17.8213 351.552 18.0355C351.873 18.2498 352.123 18.5544 352.27 18.9107C352.418 19.267 352.457 19.6591 352.381 20.0373C352.306 20.4156 352.12 20.7631 351.848 21.0358C351.575 21.3085 351.227 21.4942 350.849 21.5694C350.471 21.6447 350.079 21.6061 349.723 21.4585C349.366 21.3109 349.062 21.061 348.847 20.7403C348.633 20.4196 348.519 20.0426 348.519 19.6569C348.531 19.1437 348.741 18.6551 349.104 18.2921C349.467 17.9291 349.956 17.7196 350.469 17.7069Z" fill="#A6D7FF"/>
<path opacity="0.5" d="M417.875 358.647C417.876 358.989 417.81 359.327 417.68 359.643C417.55 359.959 417.358 360.247 417.116 360.488C416.875 360.73 416.588 360.921 416.272 361.052C415.956 361.182 415.617 361.248 415.275 361.247H3.46502C3.12405 361.247 2.78644 361.18 2.47155 361.049C2.15667 360.918 1.8707 360.726 1.63007 360.485C1.38943 360.243 1.19886 359.957 1.06929 359.641C0.939722 359.326 0.873703 358.988 0.875019 358.647C0.875019 357.96 1.14789 357.301 1.63361 356.816C2.11933 356.33 2.77811 356.057 3.46502 356.057H415.255C415.596 356.056 415.934 356.122 416.249 356.251C416.565 356.381 416.851 356.571 417.093 356.812C417.334 357.053 417.526 357.339 417.657 357.653C417.788 357.968 417.855 358.306 417.855 358.647H417.875Z" fill="#A6D7FF"/>
<path d="M178.841 102.967H61.9209C54.073 102.967 47.7109 109.329 47.7109 117.177V341.847C47.7109 349.695 54.073 356.057 61.9209 356.057H178.841C186.689 356.057 193.051 349.695 193.051 341.847V117.177C193.051 109.329 186.689 102.967 178.841 102.967Z" fill="#223D94"/>
<path d="M129.851 340.257C129.853 342.133 129.298 343.967 128.257 345.528C127.216 347.088 125.736 348.305 124.003 349.024C122.27 349.742 120.363 349.931 118.524 349.565C116.684 349.2 114.994 348.297 113.667 346.97C112.341 345.644 111.438 343.954 111.072 342.114C110.707 340.274 110.895 338.367 111.614 336.635C112.333 334.902 113.55 333.422 115.11 332.381C116.671 331.34 118.505 330.785 120.381 330.787C121.624 330.787 122.856 331.032 124.005 331.508C125.154 331.984 126.198 332.681 127.077 333.561C127.956 334.44 128.654 335.484 129.13 336.633C129.606 337.782 129.851 339.013 129.851 340.257Z" fill="white"/>
<path d="M139.029 119.057C139.029 119.606 138.811 120.133 138.422 120.521C138.034 120.909 137.508 121.127 136.959 121.127H103.789C103.24 121.127 102.713 120.909 102.325 120.521C101.937 120.133 101.719 119.606 101.719 119.057C101.719 118.508 101.937 117.982 102.325 117.593C102.713 117.205 103.24 116.987 103.789 116.987H136.959C137.508 116.987 138.034 117.205 138.422 117.593C138.811 117.982 139.029 118.508 139.029 119.057Z" fill="white"/>
<path d="M122.26 111.087C122.262 111.46 122.153 111.825 121.947 112.135C121.741 112.446 121.448 112.688 121.104 112.832C120.76 112.976 120.381 113.014 120.016 112.941C119.65 112.869 119.314 112.69 119.051 112.426C118.787 112.163 118.608 111.827 118.536 111.461C118.463 111.096 118.501 110.717 118.645 110.373C118.789 110.029 119.031 109.736 119.342 109.53C119.652 109.324 120.017 109.215 120.39 109.217C120.885 109.22 121.359 109.418 121.709 109.768C122.059 110.118 122.257 110.592 122.26 111.087Z" fill="white"/>
<path d="M186.678 126.247H54.0781V325.747H186.678V126.247Z" fill="#DCC5F9"/>
<path opacity="0.5" d="M54.0781 325.747L186.668 126.247V325.747H54.0781Z" fill="#D0B7F9"/>
<path d="M175.277 136.607H65.4766V185.367H175.277V136.607Z" fill="white"/>
<path d="M115.077 202.107H65.4766V204.317H115.077V202.107Z" fill="#B492F4"/>
<path d="M115.077 207.527H65.4766V209.737H115.077V207.527Z" fill="#B492F4"/>
<path d="M115.077 212.947H65.4766V215.157H115.077V212.947Z" fill="#B492F4"/>
<path d="M115.077 218.367H65.4766V220.577H115.077V218.367Z" fill="#B492F4"/>
<path d="M115.077 192.407H65.4766V197.287H115.077V192.407Z" fill="white"/>
<path d="M175.28 192.407H125.68V197.287H175.28V192.407Z" fill="white"/>
<path d="M175.28 202.107H125.68V204.317H175.28V202.107Z" fill="#B492F4"/>
<path d="M175.28 207.527H125.68V209.737H175.28V207.527Z" fill="#B492F4"/>
<path d="M175.28 212.947H125.68V215.157H175.28V212.947Z" fill="#B492F4"/>
<path d="M175.28 218.367H125.68V220.577H175.28V218.367Z" fill="#B492F4"/>
<path d="M115.077 236.787H65.4766V238.997H115.077V236.787Z" fill="#B492F4"/>
<path d="M115.077 242.207H65.4766V244.417H115.077V242.207Z" fill="#B492F4"/>
<path d="M115.077 247.617H65.4766V249.827H115.077V247.617Z" fill="#B492F4"/>
<path d="M115.077 253.037H65.4766V255.247H115.077V253.037Z" fill="#B492F4"/>
<path d="M115.077 227.077H65.4766V231.957H115.077V227.077Z" fill="white"/>
<path d="M175.28 227.077H125.68V231.957H175.28V227.077Z" fill="white"/>
<path d="M175.28 236.787H125.68V238.997H175.28V236.787Z" fill="#B492F4"/>
<path d="M175.28 242.207H125.68V244.417H175.28V242.207Z" fill="#B492F4"/>
<path d="M175.28 247.617H125.68V249.827H175.28V247.617Z" fill="#B492F4"/>
<path d="M175.28 253.037H125.68V255.247H175.28V253.037Z" fill="#B492F4"/>
<path d="M116.037 265.187H65.4766V315.747H116.037V265.187Z" fill="white"/>
<g opacity="0.4">
<path d="M84.9066 282.287L94.6966 295.207L100.067 288.127L108.317 299.007H97.5766H91.8166H72.2266L84.9066 282.287Z" fill="#9EC7EF"/>
<path d="M93.2578 285.197C93.2578 285.593 93.3751 285.979 93.5949 286.308C93.8146 286.637 94.127 286.893 94.4924 287.045C94.8579 287.196 95.26 287.236 95.648 287.159C96.036 287.081 96.3923 286.891 96.672 286.611C96.9517 286.332 97.1422 285.975 97.2194 285.587C97.2966 285.199 97.2569 284.797 97.1056 284.432C96.9542 284.066 96.6978 283.754 96.3689 283.534C96.0401 283.314 95.6534 283.197 95.2578 283.197C94.7274 283.197 94.2187 283.408 93.8436 283.783C93.4685 284.158 93.2578 284.667 93.2578 285.197Z" fill="#9EC7EF"/>
</g>
<path d="M175.28 265.187H125.68V270.067H175.28V265.187Z" fill="white"/>
<path d="M175.28 274.887H125.68V277.097H175.28V274.887Z" fill="#B492F4"/>
<path d="M175.28 280.307H125.68V282.517H175.28V280.307Z" fill="#B492F4"/>
<path d="M175.28 285.727H125.68V287.937H175.28V285.727Z" fill="#B492F4"/>
<path d="M175.28 291.147H125.68V293.357H175.28V291.147Z" fill="#B492F4"/>
<path d="M175.28 296.557H125.68V298.767H175.28V296.557Z" fill="#B492F4"/>
<path d="M175.28 301.977H125.68V304.187H175.28V301.977Z" fill="#B492F4"/>
<path d="M175.28 307.397H125.68V309.607H175.28V307.397Z" fill="#B492F4"/>
<path d="M175.28 312.817H125.68V315.027H175.28V312.817Z" fill="#B492F4"/>
<path d="M354.89 200.967H162.65C158.287 200.967 154.75 204.504 154.75 208.867V340.377C154.75 344.74 158.287 348.277 162.65 348.277H354.89C359.253 348.277 362.79 344.74 362.79 340.377V208.867C362.79 204.504 359.253 200.967 354.89 200.967Z" fill="#4D7AC1"/>
<path d="M355.182 210.567H162.352V338.667H355.182V210.567Z" fill="#223D94"/>
<path d="M138.961 338.707V346.957C138.969 349.368 139.93 351.678 141.635 353.383C143.34 355.088 145.65 356.049 148.061 356.057H369.481C371.892 356.049 374.202 355.088 375.907 353.383C377.612 351.678 378.573 349.368 378.581 346.957V338.707H138.961Z" fill="#5BA1F4"/>
<path d="M218.258 338.707V341.497C218.26 342.313 218.586 343.095 219.163 343.672C219.74 344.249 220.522 344.574 221.338 344.577H296.258C297.074 344.574 297.856 344.249 298.433 343.672C299.01 343.095 299.335 342.313 299.338 341.497V338.707H218.258Z" fill="#8DC6FF"/>
<path d="M210.477 219.177H170.477V222.177H210.477V219.177Z" fill="#9EC7EF"/>
<path d="M313.811 219.177H225.141V222.177H313.811V219.177Z" fill="#DCC5F9"/>
<path d="M198.107 229.177H170.477V232.177H198.107V229.177Z" fill="#9EC7EF"/>
<path d="M269.474 229.177H208.234V232.177H269.474V229.177Z" fill="#DCC5F9"/>
<path d="M200.707 239.177H170.477V242.177H200.707V239.177Z" fill="#9EC7EF"/>
<path d="M278.817 239.177H211.797V242.177H278.817V239.177Z" fill="#DCC5F9"/>
<path d="M188.597 249.177H170.477V252.177H188.597V249.177Z" fill="#9EC7EF"/>
<path d="M306.134 249.177H195.234V252.177H306.134V249.177Z" fill="#DCC5F9"/>
<path d="M210.477 259.177H170.477V262.177H210.477V259.177Z" fill="#9EC7EF"/>
<path d="M313.811 259.177H225.141V262.177H313.811V259.177Z" fill="#DCC5F9"/>
<path d="M198.107 269.177H170.477V272.177H198.107V269.177Z" fill="#9EC7EF"/>
<path d="M269.474 269.177H208.234V272.177H269.474V269.177Z" fill="#DCC5F9"/>
<path d="M204.897 279.177H170.477V282.177H204.897V279.177Z" fill="#9EC7EF"/>
<path d="M293.806 279.177H217.516V282.177H293.806V279.177Z" fill="#DCC5F9"/>
<path d="M188.597 289.177H170.477V292.177H188.597V289.177Z" fill="#9EC7EF"/>
<path d="M306.134 289.177H195.234V292.177H306.134V289.177Z" fill="#DCC5F9"/>
<path d="M213.917 299.177H170.477V302.177H213.917V299.177Z" fill="#9EC7EF"/>
<path d="M326.152 299.177H229.852V302.177H326.152V299.177Z" fill="#DCC5F9"/>
<path d="M207.597 309.177H170.477V312.177H207.597V309.177Z" fill="#9EC7EF"/>
<path d="M303.475 309.177H221.195V312.177H303.475V309.177Z" fill="#DCC5F9"/>
<path d="M203.307 319.177H170.477V322.177H203.307V319.177Z" fill="#9EC7EF"/>
<path d="M288.132 319.177H215.352V322.177H288.132V319.177Z" fill="#DCC5F9"/>
<path d="M190.157 329.177H170.477V332.177H190.157V329.177Z" fill="#9EC7EF"/>
<path d="M317.817 329.177H197.367V332.177H317.817V329.177Z" fill="#DCC5F9"/>
<path d="M401.085 292.197V281.437H395.255C394.441 276.451 392.483 271.72 389.535 267.617L393.645 263.517L386.055 255.927L381.945 260.037C377.845 257.089 373.119 255.128 368.135 254.307V248.497H357.425V254.307C352.439 255.128 347.709 257.089 343.605 260.037L339.495 255.927L331.915 263.517L336.015 267.617C333.057 271.719 331.086 276.449 330.255 281.437H324.445V292.167H330.255C331.072 297.15 333.03 301.876 335.975 305.977L331.875 310.087L339.455 317.677L343.565 313.567C347.669 316.516 352.399 318.476 357.385 319.297V325.107H368.155V319.297C373.139 318.476 377.865 316.515 381.965 313.567L386.075 317.677L393.665 310.087L389.555 305.977C392.493 301.885 394.444 297.169 395.255 292.197H401.085ZM362.785 308.907C358.418 308.907 354.149 307.612 350.518 305.186C346.887 302.76 344.057 299.311 342.386 295.277C340.715 291.242 340.278 286.803 341.13 282.519C341.982 278.236 344.084 274.302 347.172 271.214C350.26 268.126 354.195 266.023 358.478 265.171C362.761 264.319 367.2 264.757 371.235 266.428C375.27 268.099 378.718 270.929 381.144 274.56C383.57 278.191 384.865 282.46 384.865 286.827C384.867 289.727 384.296 292.599 383.187 295.278C382.078 297.958 380.452 300.392 378.401 302.443C376.351 304.494 373.916 306.12 371.237 307.229C368.557 308.338 365.685 308.908 362.785 308.907Z" fill="#A6D7FF"/>
<path d="M243.376 208.137V193.797H235.616C234.518 187.138 231.9 180.821 227.966 175.337L233.456 169.847L223.316 159.707L217.826 165.197C212.34 161.265 206.024 158.648 199.366 157.547V149.787H185.026V157.547C178.366 158.645 172.05 161.263 166.566 165.197L161.076 159.707L150.936 169.847L156.426 175.337C152.487 180.819 149.869 187.137 148.776 193.797H141.016V208.137H148.776C149.869 214.798 152.487 221.115 156.426 226.597L150.936 232.087L161.076 242.227L166.566 236.737C172.045 240.689 178.362 243.324 185.026 244.437V252.197H199.366V244.437C206.024 243.337 212.34 240.719 217.826 236.787L223.316 242.277L233.456 232.137L227.956 226.647C231.897 221.166 234.518 214.848 235.616 208.187L243.376 208.137ZM192.196 230.437C186.361 230.437 180.658 228.707 175.806 225.465C170.955 222.224 167.174 217.617 164.941 212.226C162.708 206.836 162.124 200.904 163.262 195.182C164.401 189.46 167.21 184.203 171.336 180.077C175.462 175.952 180.718 173.142 186.44 172.004C192.163 170.866 198.094 171.45 203.485 173.683C208.875 175.915 213.482 179.697 216.724 184.548C219.965 189.399 221.696 195.103 221.696 200.937C221.696 204.811 220.933 208.647 219.45 212.226C217.968 215.805 215.795 219.057 213.055 221.797C210.316 224.536 207.064 226.709 203.485 228.192C199.906 229.674 196.07 230.437 192.196 230.437Z" fill="#A6D7FF"/>
<path d="M349.258 134.867V125.437H344.138C343.414 121.038 341.682 116.866 339.078 113.247L342.708 109.617L336.008 102.917L332.388 106.547C328.793 103.931 324.641 102.182 320.258 101.437V96.3071H310.758V101.437C306.359 102.14 302.184 103.851 298.557 106.437L294.938 102.807L288.238 109.507L291.867 113.137C289.247 116.788 287.515 120.999 286.807 125.437H281.688V134.907H286.807C287.535 139.305 289.266 143.477 291.867 147.097L288.258 150.687L294.958 157.377L298.578 153.747C302.201 156.35 306.376 158.081 310.777 158.807V163.927H320.258V158.807C324.656 158.08 328.827 156.348 332.448 153.747L336.068 157.377L342.768 150.687L339.138 147.057C341.739 143.437 343.47 139.265 344.198 134.867H349.258ZM315.458 149.607C311.605 149.607 307.838 148.465 304.635 146.324C301.432 144.184 298.935 141.141 297.46 137.582C295.986 134.022 295.6 130.106 296.352 126.327C297.103 122.548 298.959 119.077 301.683 116.353C304.407 113.628 307.878 111.773 311.657 111.021C315.436 110.27 319.353 110.656 322.912 112.13C326.472 113.604 329.514 116.101 331.655 119.305C333.795 122.508 334.938 126.274 334.938 130.127C334.938 135.288 332.889 140.239 329.243 143.891C325.596 147.543 320.649 149.599 315.488 149.607H315.458Z" fill="#A6D7FF"/>
<path d="M321.707 189.057H258.867V126.217H321.707V189.057ZM259.867 188.057H320.707V127.217H259.867V188.057Z" fill="#EFC45E"/>
<path d="M316.281 131.637H264.281V183.637H316.281V131.637Z" fill="#EFC45E"/>
<path d="M277.334 152.737H279.278V161.137H277.334V152.737ZM273.518 161.137H271.574V152.737H273.518V161.137ZM277.478 157.693H273.374V156.049H277.478V157.693ZM283.006 161.137V154.321H280.318V152.737H287.638V154.321H284.95V161.137H283.006ZM288.684 161.137V152.737H290.292L293.868 158.665H293.016L296.532 152.737H298.128L298.152 161.137H296.328L296.316 155.533H296.652L293.844 160.249H292.968L290.1 155.533H290.508V161.137H288.684ZM300.144 161.137V152.737H302.088V159.553H306.3V161.137H300.144Z" fill="#223D94"/>
<path d="M253.61 118.137H210.68V75.207H253.61V118.137ZM211.68 117.137H252.61V76.207H211.68V117.137Z" fill="#7946F2"/>
<path d="M249.776 79.0471H214.516V114.307H249.776V79.0471Z" fill="#7946F2"/>
<path d="M226.456 100.731C225.849 100.731 225.288 100.62 224.774 100.397C224.269 100.166 223.854 99.841 223.529 99.4215L224.685 98.0348C224.933 98.3601 225.194 98.6083 225.468 98.7795C225.742 98.9422 226.037 99.0235 226.354 99.0235C227.201 99.0235 227.625 98.527 227.625 97.5341V93.2583H224.466V91.5891H229.692V97.4185C229.692 98.5313 229.418 99.3616 228.87 99.9095C228.323 100.457 227.518 100.731 226.456 100.731ZM234.7 100.731C233.981 100.731 233.292 100.637 232.633 100.449C231.974 100.252 231.443 99.9993 231.041 99.6912L231.747 98.1247C232.132 98.3986 232.586 98.6255 233.108 98.8052C233.638 98.9764 234.173 99.062 234.713 99.062C235.124 99.062 235.453 99.0235 235.701 98.9465C235.958 98.8609 236.147 98.7453 236.266 98.5998C236.386 98.4543 236.446 98.2873 236.446 98.099C236.446 97.8593 236.352 97.671 236.164 97.5341C235.975 97.3885 235.727 97.273 235.419 97.1874C235.111 97.0932 234.768 97.0076 234.392 96.9306C234.024 96.845 233.651 96.7423 233.275 96.6224C232.907 96.5026 232.568 96.3485 232.26 96.1602C231.952 95.9719 231.7 95.7236 231.503 95.4155C231.314 95.1073 231.22 94.7135 231.22 94.2342C231.22 93.7206 231.357 93.2541 231.631 92.8346C231.914 92.4066 232.333 92.0685 232.889 91.8203C233.454 91.5635 234.161 91.4351 235.008 91.4351C235.573 91.4351 236.129 91.5035 236.677 91.6405C237.225 91.7689 237.709 91.9658 238.128 92.2311L237.486 93.8105C237.067 93.5708 236.647 93.3953 236.228 93.284C235.808 93.1642 235.398 93.1043 234.995 93.1043C234.593 93.1043 234.263 93.1513 234.007 93.2455C233.75 93.3397 233.566 93.4638 233.454 93.6179C233.343 93.7634 233.288 93.9346 233.288 94.1315C233.288 94.3626 233.382 94.5509 233.57 94.6964C233.758 94.8334 234.007 94.9447 234.315 95.0303C234.623 95.1159 234.961 95.2015 235.329 95.2871C235.706 95.3727 236.078 95.4711 236.446 95.5824C236.823 95.6937 237.165 95.8435 237.473 96.0318C237.782 96.2201 238.03 96.4683 238.218 96.7765C238.415 97.0847 238.513 97.4741 238.513 97.9449C238.513 98.45 238.372 98.9122 238.09 99.3317C237.807 99.7511 237.383 100.089 236.819 100.346C236.262 100.603 235.556 100.731 234.7 100.731Z" fill="white"/>
<path d="M379.748 87.827H336.828V44.897H379.748V87.827ZM337.828 86.827H378.748V45.897H337.828V86.827Z" fill="#5BA1F4"/>
<path d="M375.916 48.7371H340.656V83.9971H375.916V48.7371Z" fill="#5BA1F4"/>
<path d="M350.567 69.2489C349.973 69.2489 349.419 69.1536 348.906 68.9629C348.4 68.7649 347.96 68.4863 347.586 68.1269C347.212 67.7676 346.918 67.3459 346.706 66.8619C346.5 66.3779 346.398 65.8463 346.398 65.2669C346.398 64.6876 346.5 64.1559 346.706 63.6719C346.918 63.1879 347.212 62.7663 347.586 62.4069C347.967 62.0476 348.411 61.7726 348.917 61.5819C349.423 61.3839 349.976 61.2849 350.578 61.2849C351.245 61.2849 351.846 61.4023 352.382 61.6369C352.924 61.8643 353.379 62.2016 353.746 62.6489L352.602 63.7049C352.338 63.4043 352.044 63.1806 351.722 63.0339C351.399 62.8799 351.047 62.8029 350.666 62.8029C350.306 62.8029 349.976 62.8616 349.676 62.9789C349.375 63.0963 349.115 63.2649 348.895 63.4849C348.675 63.7049 348.502 63.9653 348.378 64.2659C348.26 64.5666 348.202 64.9003 348.202 65.2669C348.202 65.6336 348.26 65.9673 348.378 66.2679C348.502 66.5686 348.675 66.8289 348.895 67.0489C349.115 67.2689 349.375 67.4376 349.676 67.5549C349.976 67.6723 350.306 67.7309 350.666 67.7309C351.047 67.7309 351.399 67.6576 351.722 67.5109C352.044 67.3569 352.338 67.1259 352.602 66.8179L353.746 67.8739C353.379 68.3213 352.924 68.6623 352.382 68.8969C351.846 69.1316 351.241 69.2489 350.567 69.2489ZM357.436 69.2489C356.82 69.2489 356.23 69.1683 355.665 69.0069C355.1 68.8383 354.646 68.6219 354.301 68.3579L354.906 67.0159C355.236 67.2506 355.625 67.4449 356.072 67.5989C356.527 67.7456 356.985 67.8189 357.447 67.8189C357.799 67.8189 358.081 67.7859 358.294 67.7199C358.514 67.6466 358.675 67.5476 358.778 67.4229C358.881 67.2983 358.932 67.1553 358.932 66.9939C358.932 66.7886 358.851 66.6273 358.69 66.5099C358.529 66.3853 358.316 66.2863 358.052 66.2129C357.788 66.1323 357.495 66.0589 357.172 65.9929C356.857 65.9196 356.538 65.8316 356.215 65.7289C355.9 65.6263 355.61 65.4943 355.346 65.3329C355.082 65.1716 354.866 64.9589 354.697 64.6949C354.536 64.4309 354.455 64.0936 354.455 63.6829C354.455 63.2429 354.572 62.8433 354.807 62.4839C355.049 62.1173 355.408 61.8276 355.885 61.6149C356.369 61.3949 356.974 61.2849 357.7 61.2849C358.184 61.2849 358.661 61.3436 359.13 61.4609C359.599 61.5709 360.014 61.7396 360.373 61.9669L359.823 63.3199C359.464 63.1146 359.104 62.9643 358.745 62.8689C358.386 62.7663 358.034 62.7149 357.689 62.7149C357.344 62.7149 357.062 62.7553 356.842 62.8359C356.622 62.9166 356.464 63.0229 356.369 63.1549C356.274 63.2796 356.226 63.4263 356.226 63.5949C356.226 63.7929 356.307 63.9543 356.468 64.0789C356.629 64.1963 356.842 64.2916 357.106 64.3649C357.37 64.4383 357.66 64.5116 357.975 64.5849C358.298 64.6583 358.617 64.7426 358.932 64.8379C359.255 64.9333 359.548 65.0616 359.812 65.2229C360.076 65.3843 360.289 65.5969 360.45 65.8609C360.619 66.1249 360.703 66.4586 360.703 66.8619C360.703 67.2946 360.582 67.6906 360.34 68.0499C360.098 68.4093 359.735 68.6989 359.251 68.9189C358.774 69.1389 358.169 69.2489 357.436 69.2489ZM364.451 69.2489C363.835 69.2489 363.244 69.1683 362.68 69.0069C362.115 68.8383 361.66 68.6219 361.316 68.3579L361.921 67.0159C362.251 67.2506 362.639 67.4449 363.087 67.5989C363.541 67.7456 364 67.8189 364.462 67.8189C364.814 67.8189 365.096 67.7859 365.309 67.7199C365.529 67.6466 365.69 67.5476 365.793 67.4229C365.895 67.2983 365.947 67.1553 365.947 66.9939C365.947 66.7886 365.866 66.6273 365.705 66.5099C365.543 66.3853 365.331 66.2863 365.067 66.2129C364.803 66.1323 364.509 66.0589 364.187 65.9929C363.871 65.9196 363.552 65.8316 363.23 65.7289C362.914 65.6263 362.625 65.4943 362.361 65.3329C362.097 65.1716 361.88 64.9589 361.712 64.6949C361.55 64.4309 361.47 64.0936 361.47 63.6829C361.47 63.2429 361.587 62.8433 361.822 62.4839C362.064 62.1173 362.423 61.8276 362.9 61.6149C363.384 61.3949 363.989 61.2849 364.715 61.2849C365.199 61.2849 365.675 61.3436 366.145 61.4609C366.614 61.5709 367.028 61.7396 367.388 61.9669L366.838 63.3199C366.478 63.1146 366.119 62.9643 365.76 62.8689C365.4 62.7663 365.048 62.7149 364.704 62.7149C364.359 62.7149 364.077 62.7553 363.857 62.8359C363.637 62.9166 363.479 63.0229 363.384 63.1549C363.288 63.2796 363.241 63.4263 363.241 63.5949C363.241 63.7929 363.321 63.9543 363.483 64.0789C363.644 64.1963 363.857 64.2916 364.121 64.3649C364.385 64.4383 364.674 64.5116 364.99 64.5849C365.312 64.6583 365.631 64.7426 365.947 64.8379C366.269 64.9333 366.563 65.0616 366.827 65.2229C367.091 65.3843 367.303 65.5969 367.465 65.8609C367.633 66.1249 367.718 66.4586 367.718 66.8619C367.718 67.2946 367.597 67.6906 367.355 68.0499C367.113 68.4093 366.75 68.6989 366.266 68.9189C365.789 69.1389 365.184 69.2489 364.451 69.2489Z" fill="white"/>
<path d="M399.255 221.087H348.125V169.977H399.255V221.087ZM349.145 220.087H398.255V170.977H349.125L349.145 220.087Z" fill="#7946F2"/>
<path d="M394.757 174.467H352.617V216.607H394.757V174.467Z" fill="#7946F2"/>
<path d="M364.83 200V193H367.86C368.487 193 369.027 193.103 369.48 193.31C369.933 193.51 370.283 193.8 370.53 194.18C370.777 194.56 370.9 195.013 370.9 195.54C370.9 196.06 370.777 196.51 370.53 196.89C370.283 197.27 369.933 197.563 369.48 197.77C369.027 197.97 368.487 198.07 367.86 198.07H365.73L366.45 197.34V200H364.83ZM366.45 197.52L365.73 196.75H367.77C368.27 196.75 368.643 196.643 368.89 196.43C369.137 196.217 369.26 195.92 369.26 195.54C369.26 195.153 369.137 194.853 368.89 194.64C368.643 194.427 368.27 194.32 367.77 194.32H365.73L366.45 193.55V197.52ZM376.857 193H378.477V200H376.857V193ZM373.677 200H372.057V193H373.677V200ZM376.977 197.13H373.557V195.76H376.977V197.13ZM380.133 200V193H383.163C383.789 193 384.329 193.103 384.783 193.31C385.236 193.51 385.586 193.8 385.833 194.18C386.079 194.56 386.203 195.013 386.203 195.54C386.203 196.06 386.079 196.51 385.833 196.89C385.586 197.27 385.236 197.563 384.783 197.77C384.329 197.97 383.789 198.07 383.163 198.07H381.033L381.753 197.34V200H380.133ZM381.753 197.52L381.033 196.75H383.073C383.573 196.75 383.946 196.643 384.193 196.43C384.439 196.217 384.563 195.92 384.563 195.54C384.563 195.153 384.439 194.853 384.193 194.64C383.946 194.427 383.573 194.32 383.073 194.32H381.033L381.753 193.55V197.52Z" fill="white"/>
<path d="M82.4147 346.237H31.3047V295.117H82.4147V346.237ZM32.3047 345.237H81.4147V296.117H32.3047V345.237Z" fill="#5BA1F4"/>
<path d="M77.9291 299.607H35.7891V341.747H77.9291V299.607Z" fill="#5BA1F4"/>
<path d="M43.9911 324.157V316.457H47.3241C48.0135 316.457 48.6075 316.571 49.1061 316.798C49.6048 317.018 49.9898 317.337 50.2611 317.755C50.5325 318.173 50.6681 318.672 50.6681 319.251C50.6681 319.823 50.5325 320.318 50.2611 320.736C49.9898 321.154 49.6048 321.477 49.1061 321.704C48.6075 321.924 48.0135 322.034 47.3241 322.034H44.9811L45.7731 321.231V324.157H43.9911ZM45.7731 321.429L44.9811 320.582H47.2251C47.7751 320.582 48.1858 320.465 48.4571 320.23C48.7285 319.995 48.8641 319.669 48.8641 319.251C48.8641 318.826 48.7285 318.496 48.4571 318.261C48.1858 318.026 47.7751 317.909 47.2251 317.909H44.9811L45.7731 317.062V321.429ZM57.2203 316.457H59.0023V324.157H57.2203V316.457ZM53.7223 324.157H51.9403V316.457H53.7223V324.157ZM57.3523 321H53.5903V319.493H57.3523V321ZM60.8241 324.157V316.457H64.1571C64.8465 316.457 65.4405 316.571 65.9391 316.798C66.4378 317.018 66.8228 317.337 67.0941 317.755C67.3655 318.173 67.5011 318.672 67.5011 319.251C67.5011 319.823 67.3655 320.318 67.0941 320.736C66.8228 321.154 66.4378 321.477 65.9391 321.704C65.4405 321.924 64.8465 322.034 64.1571 322.034H61.8141L62.6061 321.231V324.157H60.8241ZM62.6061 321.429L61.8141 320.582H64.0581C64.6081 320.582 65.0188 320.465 65.2901 320.23C65.5615 319.995 65.6971 319.669 65.6971 319.251C65.6971 318.826 65.5615 318.496 65.2901 318.261C65.0188 318.026 64.6081 317.909 64.0581 317.909H61.8141L62.6061 317.062V321.429Z" fill="white"/>
<path d="M151.801 405.547H88.9609V342.707H151.801V405.547ZM89.9609 404.547H150.801V343.707H89.9609V404.547Z" fill="#7946F2"/>
<path d="M146.375 348.127H94.375V400.127H146.375V348.127Z" fill="#7946F2"/>
<path d="M104.581 377V372.1H105.715V376.076H108.172V377H104.581ZM108.189 377L110.373 372.1H111.493L113.684 377H112.494L110.702 372.674H111.15L109.351 377H108.189ZM109.281 375.95L109.582 375.089H112.102L112.41 375.95H109.281ZM114.192 377V372.1H116.313C116.752 372.1 117.13 372.172 117.447 372.317C117.765 372.457 118.01 372.66 118.182 372.926C118.355 373.192 118.441 373.509 118.441 373.878C118.441 374.242 118.355 374.557 118.182 374.823C118.01 375.084 117.765 375.285 117.447 375.425C117.13 375.565 116.752 375.635 116.313 375.635H114.822L115.326 375.138V377H114.192ZM117.307 377L116.082 375.222H117.293L118.532 377H117.307ZM115.326 375.264L114.822 374.732H116.25C116.6 374.732 116.862 374.657 117.034 374.508C117.207 374.354 117.293 374.144 117.293 373.878C117.293 373.607 117.207 373.397 117.034 373.248C116.862 373.099 116.6 373.024 116.25 373.024H114.822L115.326 372.485V375.264ZM118.696 377L120.88 372.1H122L124.191 377H123.001L121.209 372.674H121.657L119.858 377H118.696ZM119.788 375.95L120.089 375.089H122.609L122.917 375.95H119.788ZM125.903 377L123.789 372.1H125.014L126.862 376.44H126.141L128.017 372.1H129.144L127.023 377H125.903ZM130.596 374.074H132.955V374.956H130.596V374.074ZM130.68 376.09H133.347V377H129.553V372.1H133.256V373.01H130.68V376.09ZM134.249 377V372.1H135.383V376.076H137.84V377H134.249Z" fill="white"/>
<path d="M109.332 74.107L100.772 77.237L109.332 80.347V83.557L97.1016 78.907V75.567L109.332 70.917V74.107Z" fill="#A6D7FF"/>
<path d="M121.097 64.5969H124.667L116.187 88.7969H112.617L121.097 64.5969Z" fill="#A6D7FF"/>
<path d="M139.925 75.567V78.907L127.695 83.557V80.347L136.255 77.237L127.695 74.107V70.917L139.925 75.567Z" fill="#A6D7FF"/>
<path d="M190.352 43.907H186.602V40.157H184.602V43.907H180.852V45.907H184.602V49.657H186.602V45.907H190.352V43.907Z" fill="#A6D7FF"/>
<path d="M399.508 111.967H395.758V108.217H393.758V111.967H390.008V113.967H393.758V117.717H395.758V113.967H399.508V111.967Z" fill="#A6D7FF"/>
<path d="M430.328 203.327H426.578V199.577H424.578V203.327H420.828V205.327H424.578V209.077H426.578V205.327H430.328V203.327Z" fill="#A6D7FF"/>
<path d="M50.8672 39.157H47.1172V35.407H45.1172V39.157H41.3672V41.157H45.1172V44.907H47.1172V41.157H50.8672V39.157Z" fill="#A6D7FF"/>
<path d="M30.8906 145.337H27.1406V141.587H25.1406V145.337H21.3906V147.337H25.1406V151.087H27.1406V147.337H30.8906V145.337Z" fill="#A6D7FF"/>
<path d="M425.578 249.677H421.828V245.927H419.828V249.677H416.078V251.677H419.828V255.427H421.828V251.677H425.578V249.677Z" fill="#A6D7FF"/>
<path d="M23.2656 241.207H19.5156V237.457H17.5156V241.207H13.7656V243.207H17.5156V246.957H19.5156V243.207H23.2656V241.207Z" fill="#A6D7FF"/>
<path d="M229.891 386.737H226.141V382.987H224.141V386.737H220.391V388.737H224.141V392.487H226.141V388.737H229.891V386.737Z" fill="#A6D7FF"/>
<g opacity="0.5">
<path d="M277.12 417.867C272.944 417.869 268.861 416.632 265.388 414.313C261.915 411.995 259.208 408.698 257.609 404.84C256.01 400.982 255.591 396.737 256.405 392.641C257.219 388.545 259.23 384.783 262.183 381.83C265.136 378.877 268.898 376.866 272.994 376.052C277.09 375.238 281.335 375.657 285.193 377.256C289.051 378.855 292.348 381.562 294.667 385.035C296.985 388.508 298.222 392.591 298.22 396.767C298.212 402.361 295.986 407.723 292.031 411.678C288.076 415.633 282.714 417.859 277.12 417.867ZM277.12 376.657C273.144 376.663 269.259 377.847 265.956 380.061C262.653 382.274 260.08 385.417 258.562 389.092C257.045 392.767 256.651 396.81 257.43 400.709C258.209 404.608 260.127 408.188 262.941 410.997C265.754 413.807 269.338 415.719 273.238 416.493C277.138 417.266 281.18 416.866 284.853 415.343C288.526 413.82 291.665 411.243 293.873 407.936C296.081 404.63 297.26 400.743 297.26 396.767C297.255 391.43 295.13 386.313 291.353 382.542C287.577 378.771 282.457 376.654 277.12 376.657Z" fill="#5BA1F4"/>
<path d="M425.577 330.357C423.037 330.359 420.553 329.608 418.44 328.198C416.327 326.788 414.68 324.784 413.707 322.438C412.733 320.092 412.478 317.51 412.972 315.018C413.466 312.527 414.688 310.238 416.484 308.441C418.279 306.645 420.567 305.421 423.058 304.924C425.549 304.428 428.131 304.682 430.478 305.653C432.825 306.625 434.831 308.271 436.242 310.382C437.653 312.494 438.407 314.977 438.407 317.517C438.404 320.92 437.052 324.183 434.646 326.59C432.241 328.997 428.979 330.352 425.577 330.357ZM425.577 305.687C423.234 305.685 420.943 306.378 418.995 307.678C417.046 308.978 415.527 310.828 414.63 312.991C413.732 315.155 413.497 317.537 413.954 319.834C414.41 322.132 415.538 324.243 417.194 325.899C418.851 327.556 420.962 328.683 423.259 329.14C425.557 329.597 427.938 329.361 430.102 328.464C432.266 327.566 434.115 326.047 435.415 324.099C436.716 322.15 437.409 319.86 437.407 317.517C437.401 314.381 436.153 311.375 433.936 309.158C431.718 306.94 428.712 305.692 425.577 305.687Z" fill="#5BA1F4"/>
<path d="M388.379 403.077C386.285 403.077 384.237 402.456 382.496 401.292C380.754 400.129 379.397 398.475 378.595 396.54C377.794 394.605 377.584 392.475 377.993 390.421C378.401 388.367 379.41 386.48 380.891 384.999C382.372 383.518 384.259 382.509 386.313 382.1C388.367 381.692 390.497 381.902 392.432 382.703C394.367 383.505 396.021 384.862 397.184 386.603C398.348 388.345 398.969 390.392 398.969 392.487C398.964 395.294 397.846 397.985 395.861 399.969C393.877 401.954 391.186 403.072 388.379 403.077ZM388.379 382.897C386.482 382.897 384.628 383.459 383.051 384.513C381.474 385.567 380.245 387.065 379.519 388.817C378.793 390.569 378.603 392.498 378.973 394.358C379.343 396.218 380.257 397.927 381.598 399.268C382.939 400.609 384.648 401.523 386.508 401.893C388.368 402.263 390.297 402.073 392.049 401.347C393.801 400.621 395.299 399.392 396.353 397.815C397.407 396.238 397.969 394.384 397.969 392.487C397.966 389.944 396.955 387.507 395.157 385.709C393.359 383.911 390.922 382.9 388.379 382.897Z" fill="#5BA1F4"/>
<path d="M31.3075 100.147C27.1319 100.149 23.0495 98.9126 19.5767 96.5942C16.1039 94.2758 13.3966 90.9796 11.7973 87.1224C10.198 83.2652 9.77851 79.0204 10.5919 74.9248C11.4053 70.8292 13.4151 67.0668 16.3669 64.1135C19.3188 61.1602 23.0803 59.1487 27.1755 58.3334C31.2707 57.518 35.5157 57.9355 39.3736 59.533C43.2316 61.1304 46.5291 63.8361 48.8491 67.3079C51.1692 70.7796 52.4075 74.8614 52.4075 79.037C52.4022 84.6324 50.1778 89.9972 46.2222 93.9547C42.2666 97.9121 36.9029 100.139 31.3075 100.147ZM31.3075 58.937C27.3293 58.935 23.4398 60.113 20.1312 62.322C16.8226 64.5309 14.2435 67.6716 12.7202 71.3466C11.1969 75.0217 10.7978 79.0659 11.5734 82.9678C12.3491 86.8697 14.2646 90.4539 17.0776 93.2669C19.8906 96.08 23.4748 97.9955 27.3767 98.7711C31.2786 99.5467 35.3229 99.1476 38.9979 97.6243C42.6729 96.101 45.8136 93.5219 48.0225 90.2133C50.2315 86.9047 51.4095 83.0152 51.4075 79.037C51.3996 73.7086 49.2794 68.6007 45.5116 64.8329C41.7438 61.0652 36.6359 58.9449 31.3075 58.937Z" fill="#5BA1F4"/>
<path d="M125.678 47.877C123.138 47.879 120.655 47.1276 118.542 45.718C116.429 44.3083 114.782 42.3036 113.808 39.9576C112.835 37.6116 112.579 35.0296 113.074 32.5382C113.568 30.0468 114.79 27.758 116.585 25.9613C118.381 24.1646 120.669 22.9407 123.159 22.4445C125.65 21.9482 128.233 22.2019 130.579 23.1735C132.926 24.145 134.932 25.7907 136.343 27.9025C137.755 30.0142 138.508 32.4971 138.508 35.037C138.505 38.4399 137.153 41.7027 134.748 44.1098C132.343 46.5169 129.081 47.8717 125.678 47.877ZM125.678 23.207C123.336 23.205 121.045 23.898 119.096 25.1983C117.148 26.4985 115.629 28.3475 114.731 30.5114C113.834 32.6753 113.599 35.0568 114.055 37.3544C114.512 39.6521 115.64 41.7627 117.296 43.4192C118.952 45.0756 121.063 46.2035 123.361 46.66C125.658 47.1165 128.04 46.8812 130.204 45.9838C132.368 45.0865 134.217 43.5673 135.517 41.6187C136.817 39.6701 137.51 37.3796 137.508 35.037C137.503 31.9011 136.255 28.8952 134.037 26.6778C131.82 24.4604 128.814 23.2123 125.678 23.207Z" fill="#5BA1F4"/>
<path d="M23.2563 212.437C21.3081 212.437 19.4037 211.859 17.7839 210.777C16.1641 209.695 14.9016 208.156 14.156 206.357C13.4105 204.557 13.2155 202.576 13.5955 200.665C13.9756 198.755 14.9137 197 16.2913 195.622C17.6688 194.245 19.4239 193.306 21.3346 192.926C23.2453 192.546 25.2258 192.741 27.0257 193.487C28.8255 194.232 30.3639 195.495 31.4462 197.115C32.5286 198.735 33.1063 200.639 33.1063 202.587C33.1036 205.199 32.065 207.702 30.2183 209.549C28.3717 211.396 25.8678 212.434 23.2563 212.437ZM23.2563 193.747C21.5055 193.747 19.794 194.266 18.3384 195.239C16.8828 196.212 15.7485 197.595 15.079 199.213C14.4094 200.83 14.2348 202.61 14.577 204.327C14.9193 206.044 15.7632 207.621 17.0019 208.859C18.2406 210.096 19.8185 210.938 21.5358 211.278C23.2532 211.619 25.033 211.442 26.6499 210.771C28.2669 210.099 29.6484 208.963 30.6196 207.507C31.5909 206.05 32.1082 204.338 32.1063 202.587C32.1076 201.424 31.8797 200.271 31.4357 199.196C30.9916 198.12 30.3401 197.143 29.5183 196.319C28.6965 195.496 27.7205 194.842 26.6461 194.395C25.5716 193.949 24.4198 193.718 23.2563 193.717V193.747Z" fill="#5BA1F4"/>
</g>
<path d="M121.912 174.197C135.671 174.197 146.825 168.333 146.825 161.098C146.825 153.864 135.671 148 121.912 148C108.154 148 97 153.864 97 161.098C97 168.333 108.154 174.197 121.912 174.197Z" fill="url(#paint0_radial_2823_2022)"/>
<path d="M121.908 173.224C135.129 173.224 145.847 167.795 145.847 161.098C145.847 154.402 135.129 148.973 121.908 148.973C108.687 148.973 97.9688 154.402 97.9688 161.098C97.9688 167.795 108.687 173.224 121.908 173.224Z" fill="#6181B6"/>
<path d="M126.76 165.03L127.947 158.919C128.219 157.537 127.986 156.505 127.285 155.863C126.604 155.24 125.436 154.929 123.723 154.929H121.66L122.244 151.893C122.264 151.776 122.244 151.659 122.166 151.562C122.089 151.464 121.991 151.426 121.875 151.426H119.033C118.838 151.426 118.683 151.562 118.644 151.737L117.379 158.218C117.262 157.478 116.989 156.856 116.522 156.35C115.685 155.396 114.381 154.909 112.61 154.909H107.141C106.947 154.909 106.791 155.046 106.752 155.221L104.202 168.378C104.183 168.494 104.202 168.611 104.28 168.708C104.358 168.806 104.455 168.845 104.572 168.845H107.433C107.628 168.845 107.783 168.708 107.822 168.533L108.445 165.361H110.567C111.676 165.361 112.63 165.244 113.35 165.011C114.109 164.758 114.79 164.349 115.393 163.784C115.88 163.337 116.289 162.831 116.6 162.286L116.094 164.913C116.075 165.03 116.094 165.147 116.172 165.244C116.25 165.341 116.347 165.38 116.464 165.38H119.305C119.5 165.38 119.656 165.244 119.695 165.069L121.096 157.868H123.042C123.879 157.868 124.113 158.023 124.191 158.101C124.249 158.16 124.366 158.393 124.23 159.113L123.101 164.933C123.081 165.049 123.101 165.166 123.179 165.264C123.256 165.361 123.354 165.4 123.47 165.4H126.39C126.565 165.341 126.721 165.205 126.76 165.03ZM113.603 159.97C113.428 160.884 113.097 161.546 112.61 161.916C112.124 162.286 111.326 162.48 110.275 162.48H109.01L109.924 157.77H111.559C112.766 157.77 113.253 158.023 113.447 158.238C113.7 158.549 113.759 159.152 113.603 159.97ZM138.904 156.35C138.068 155.396 136.764 154.909 134.992 154.909H129.484C129.29 154.909 129.134 155.046 129.095 155.221L126.546 168.358C126.526 168.475 126.546 168.592 126.623 168.689C126.701 168.786 126.799 168.825 126.915 168.825H129.776C129.971 168.825 130.127 168.689 130.166 168.514L130.788 165.341H132.91C134.019 165.341 134.973 165.225 135.693 164.991C136.452 164.738 137.133 164.329 137.737 163.765C138.243 163.298 138.671 162.772 138.982 162.208C139.294 161.643 139.527 161.021 139.663 160.339C139.994 158.646 139.741 157.323 138.904 156.35ZM135.927 159.97C135.751 160.884 135.421 161.546 134.934 161.916C134.447 162.286 133.649 162.48 132.599 162.48H131.333L132.248 157.77H133.883C135.09 157.77 135.576 158.023 135.771 158.238C136.043 158.549 136.102 159.152 135.927 159.97Z" fill="white"/>
<path d="M111.554 157.381C112.644 157.381 113.364 157.576 113.733 157.984C114.103 158.393 114.181 159.074 113.986 160.047C113.792 161.06 113.403 161.799 112.838 162.227C112.274 162.655 111.417 162.87 110.269 162.87H108.537L109.607 157.381H111.554ZM104.586 168.436H107.447L108.128 164.952H110.58C111.67 164.952 112.546 164.835 113.247 164.602C113.948 164.368 114.57 163.998 115.154 163.453C115.641 163.006 116.03 162.519 116.322 161.994C116.614 161.468 116.828 160.884 116.945 160.242C117.256 158.685 117.023 157.478 116.264 156.603C115.505 155.727 114.298 155.299 112.644 155.299H107.136L104.586 168.436ZM119.047 151.815H121.888L121.207 155.299H123.737C125.333 155.299 126.423 155.571 127.027 156.135C127.63 156.7 127.805 157.595 127.571 158.841L126.384 164.952H123.504L124.633 159.133C124.769 158.471 124.71 158.023 124.496 157.79C124.282 157.556 123.796 157.42 123.076 157.42H120.798L119.339 164.952H116.497L119.047 151.815ZM133.877 157.381C134.967 157.381 135.687 157.576 136.057 157.984C136.427 158.393 136.505 159.074 136.31 160.047C136.116 161.06 135.726 161.799 135.162 162.227C134.598 162.655 133.741 162.87 132.593 162.87H130.861L131.931 157.381H133.877ZM126.91 168.436H129.771L130.452 164.952H132.904C133.994 164.952 134.87 164.835 135.571 164.602C136.271 164.368 136.894 163.998 137.478 163.453C137.965 163.006 138.354 162.519 138.646 161.994C138.938 161.468 139.152 160.884 139.269 160.242C139.58 158.685 139.346 157.478 138.587 156.603C137.828 155.727 136.622 155.299 134.967 155.299H129.459L126.91 168.436Z" fill="#000004"/>
<defs>
<radialGradient id="paint0_radial_2823_2022" cx="0" cy="0" r="1" gradientUnits="userSpaceOnUse" gradientTransform="translate(111.957 152.606) scale(32.716 32.716)">
<stop stop-color="white"/>
<stop offset="0.5" stop-color="#4C6B97"/>
<stop offset="1" stop-color="#231F20"/>
</radialGradient>
</defs>
</svg>
