<svg width="454" height="386" viewBox="0 0 454 386" fill="none" xmlns="http://www.w3.org/2000/svg">
<path d="M13.9353 385.51C9.28514 380.009 9.65012 371.482 12.2591 364.671C14.868 357.859 19.3694 352.035 22.5461 345.494C31.8733 326.236 24.3304 303.302 14.6247 285.896C3.81045 266.408 -2.73214 246.515 1.1069 223.595C5.16223 200.066 19.464 178.687 39.254 166.753C50.1764 160.172 63.0453 156.361 75.4816 158.523C96.1232 162.091 118.103 179.362 134.757 155.901C146.206 139.765 140.84 117.061 144.463 97.3168C153.817 46.3677 213.958 34.5832 249.753 63.2742C269.029 78.6399 281.6 104.06 304.581 111.885C315.962 115.75 330.927 116.723 341.43 109.966C346.594 106.628 350.771 101.749 356.043 98.6141C361.652 95.2761 368.209 94.0868 374.63 93.5598C409.519 90.6407 432.364 117.886 437.433 152.347C441.272 178.538 431.039 199.282 418.13 221.027C412.574 230.392 405.964 239.379 402.409 249.839C400.043 256.705 399.11 264.327 401.057 271.327C403.287 279.22 408.938 285.544 414.926 290.869C426.686 301.343 438.379 310.221 441.867 326.966C445.165 342.832 439.947 357.63 431.296 370.495L421.617 384.915L13.9353 385.51Z" fill="#3C94F8" fill-opacity="0.1"/>
<path d="M424.461 283.274H296.461V366.671H424.461V283.274Z" fill="#9090F4"/>
<path d="M417.269 289.518H303.625V360.427H417.269V289.518Z" fill="white"/>
<path d="M347 297.991H313.977V301.343H347V297.991Z" fill="#C5C5FF"/>
<path d="M347 306.329H313.977V309.681H347V306.329Z" fill="#C5C5FF"/>
<path d="M347 314.668H313.977V318.019H347V314.668Z" fill="#C5C5FF"/>
<path d="M347 322.992H313.977V326.344H347V322.992Z" fill="#C5C5FF"/>
<path d="M347 331.331H313.977V334.682H347V331.331Z" fill="#C5C5FF"/>
<path d="M347 339.669H313.977V343.021H347V339.669Z" fill="#C5C5FF"/>
<path d="M409.371 348.156H313.977V351.508H409.371V348.156Z" fill="#C5C5FF"/>
<path d="M361.677 301.342H355.742V343.885H361.677V301.342Z" fill="#C5C5FF"/>
<path d="M375.911 313.519H369.977V343.886H375.911V313.519Z" fill="#C5C5FF"/>
<path d="M390.153 307.073H384.219V343.886H390.153V307.073Z" fill="#C5C5FF"/>
<path d="M404.38 321.465H398.445V343.886H404.38V321.465Z" fill="#C5C5FF"/>
<path d="M404.38 321.465H398.445V330.02H404.38V321.465Z" fill="#F9355B"/>
<path d="M361.677 301.342H355.742V308.208H361.677V301.342Z" fill="#F9355B"/>
<path d="M390.153 307.073H384.219V313.938H390.153V307.073Z" fill="#706CCA"/>
<path d="M375.911 313.519H369.977V324.114H375.911V313.519Z" fill="#FFC41D"/>
<path d="M358.219 295.018L372.94 312.546L386.755 300.707L401.421 320.168" stroke="#9090F4" stroke-miterlimit="10"/>
<path d="M405.197 187.93H373.241C370.083 187.93 367.523 190.49 367.523 193.647V225.595C367.523 228.752 370.083 231.311 373.241 231.311H405.197C408.355 231.311 410.915 228.752 410.915 225.595V193.647C410.915 190.49 408.355 187.93 405.197 187.93Z" fill="#706CCA"/>
<path d="M407.476 196.539H370.938V226.703H407.476V196.539Z" fill="#FFC41D"/>
<path d="M393.955 205.121C393.958 206.086 393.674 207.031 393.139 207.835C392.605 208.639 391.843 209.266 390.952 209.637C390.061 210.009 389.079 210.107 388.132 209.921C387.184 209.734 386.313 209.27 385.629 208.589C384.946 207.907 384.479 207.038 384.29 206.091C384.101 205.144 384.197 204.162 384.565 203.27C384.934 202.378 385.56 201.615 386.363 201.079C387.165 200.542 388.109 200.255 389.075 200.255C390.367 200.255 391.606 200.768 392.521 201.68C393.436 202.592 393.952 203.829 393.955 205.121Z" fill="white"/>
<path d="M398.425 223.473H380V220.108C380 217.664 380.971 215.319 382.7 213.591C384.429 211.862 386.774 210.891 389.219 210.891C390.429 210.891 391.627 211.13 392.745 211.593C393.863 212.057 394.878 212.736 395.733 213.592C396.588 214.448 397.266 215.464 397.728 216.582C398.19 217.7 398.426 218.898 398.425 220.108V223.473Z" fill="white"/>
<path d="M373.112 192.444C373.112 192.66 373.048 192.872 372.927 193.052C372.807 193.232 372.636 193.372 372.436 193.455C372.236 193.538 372.016 193.56 371.803 193.518C371.591 193.475 371.396 193.371 371.243 193.218C371.089 193.065 370.985 192.87 370.943 192.657C370.901 192.445 370.922 192.225 371.005 192.025C371.088 191.825 371.228 191.654 371.408 191.534C371.589 191.413 371.8 191.349 372.017 191.349C372.161 191.347 372.304 191.374 372.438 191.429C372.572 191.483 372.693 191.564 372.795 191.666C372.897 191.768 372.978 191.889 373.032 192.023C373.086 192.156 373.114 192.3 373.112 192.444Z" fill="white"/>
<path d="M377.166 192.444C377.166 192.661 377.102 192.873 376.981 193.053C376.86 193.234 376.688 193.374 376.487 193.456C376.286 193.539 376.066 193.56 375.853 193.516C375.64 193.473 375.445 193.367 375.292 193.213C375.14 193.059 375.037 192.862 374.996 192.649C374.955 192.436 374.979 192.215 375.064 192.016C375.149 191.816 375.291 191.646 375.473 191.527C375.655 191.408 375.868 191.347 376.085 191.349C376.228 191.349 376.37 191.378 376.502 191.433C376.634 191.488 376.754 191.569 376.855 191.671C376.955 191.772 377.034 191.893 377.088 192.026C377.142 192.159 377.168 192.301 377.166 192.444Z" fill="white"/>
<path d="M381.225 192.444C381.225 192.731 381.111 193.006 380.909 193.208C380.706 193.411 380.431 193.525 380.144 193.525C379.857 193.525 379.582 193.411 379.379 193.208C379.176 193.006 379.062 192.731 379.062 192.444C379.062 192.157 379.176 191.882 379.379 191.679C379.582 191.477 379.857 191.363 380.144 191.363C380.431 191.363 380.706 191.477 380.909 191.679C381.111 191.882 381.225 192.157 381.225 192.444Z" fill="white"/>
<path d="M87.8306 71.1257H25.3516V122.683H87.8306V71.1257Z" fill="#A9B1FF"/>
<path d="M45.245 111.291L32.1328 98.1819L45.4208 84.8838L47.6512 87.1137L36.5802 98.1819L47.4619 109.061L45.245 111.291Z" fill="white"/>
<path d="M67.7461 111.291L65.5156 109.061L76.5867 98.0062L65.7049 87.1137L67.9353 84.8838L81.0475 98.0062L67.7461 111.291Z" fill="white"/>
<path d="M59.9333 86.4231L50.3281 109.595L53.2378 110.8L62.843 87.6286L59.9333 86.4231Z" fill="white"/>
<path d="M171.218 59.5712L175.03 44.2189L165.392 41.8133C165.29 38.7119 164.748 35.6405 163.783 32.6912L172.515 27.4476L164.405 13.9333L155.483 19.339C153.325 17.2386 150.887 15.4467 148.238 14.0144L150.765 3.87861L135.355 0L132.881 9.97357C129.805 9.92706 126.737 10.3184 123.77 11.1358L118.58 2.51366L105.062 10.6223L109.969 18.9201C107.588 21.1593 105.556 23.7421 103.94 26.5827L94.937 24.3258L91.125 39.6646L99.6141 41.7728C99.5144 45.251 99.9707 48.7228 100.966 52.0572L93.6799 56.4358L101.791 69.9501L108.874 65.6931C111.364 68.2553 114.254 70.396 117.431 72.0314L115.443 80.0318L130.786 83.8429L132.827 75.7343C136.328 75.7118 139.802 75.1231 143.114 73.9909L147.575 81.3833L161.093 73.2747L156.402 65.4904C158.678 63.0863 160.579 60.3527 162.039 57.3818L171.218 59.5712ZM147.251 50.1111C146.221 52.1344 144.79 53.9267 143.044 55.3789C141.299 56.831 139.276 57.9126 137.099 58.5576C134.312 59.3593 131.368 59.4384 128.542 58.7873C126.873 58.3624 125.281 57.6784 123.824 56.7602C123.071 56.2718 122.357 55.725 121.689 55.1249C118.96 52.733 117.097 49.5074 116.39 45.9487C116.2 44.9509 116.105 43.9373 116.106 42.9215C116.082 41.5574 116.227 40.1956 116.538 38.8672C117.022 37.0499 117.818 35.3305 118.89 33.7858C119.575 32.7501 120.373 31.7938 121.27 30.9343C123.353 29.0032 125.9 27.6438 128.664 26.9881C130.068 26.6302 131.514 26.4621 132.962 26.4881C134.147 26.5154 135.325 26.6694 136.477 26.9476C139.124 27.6483 141.561 28.9828 143.577 30.8358C145.593 32.6889 147.128 35.0047 148.048 37.5833C148.499 38.929 148.767 40.3289 148.846 41.7458C149.13 44.66 148.576 47.5948 147.251 50.2057V50.1111Z" fill="#8080FF"/>
<path d="M451.438 157.685L453.668 148.698L448.018 147.347C447.967 145.51 447.652 143.689 447.085 141.941L452.195 138.873L447.464 130.927L442.232 134.076C440.968 132.849 439.539 131.803 437.988 130.967L439.461 125.035L430.472 122.791L429.025 128.629C427.222 128.612 425.425 128.844 423.686 129.319L420.604 124.332L412.669 129.102L415.562 133.914C414.171 135.227 412.982 136.739 412.034 138.4L406.762 137.049L404.531 146.036L409.506 147.279C409.439 149.312 409.699 151.343 410.276 153.293L406.005 155.861L410.79 163.807L414.94 161.307C416.39 162.814 418.08 164.07 419.942 165.024L418.779 169.699L427.768 171.943L428.958 167.159C431.01 167.147 433.047 166.8 434.987 166.132L437.596 170.456L445.531 165.686L442.827 161.118C444.159 159.707 445.271 158.103 446.125 156.361L451.438 157.685ZM437.406 152.158C436.802 153.342 435.963 154.391 434.941 155.242C433.918 156.092 432.734 156.726 431.459 157.104C430.907 157.27 430.342 157.383 429.769 157.442C428.657 157.569 427.532 157.501 426.444 157.239C425.483 156.982 424.57 156.572 423.74 156.023C423.289 155.746 422.864 155.43 422.469 155.077C420.865 153.669 419.776 151.767 419.374 149.671C419.265 149.092 419.211 148.504 419.212 147.914C419.197 147.114 419.284 146.315 419.468 145.536C419.744 144.457 420.201 143.434 420.82 142.509C421.204 141.904 421.658 141.346 422.172 140.846C423.39 139.716 424.88 138.919 426.498 138.535C427.324 138.328 428.174 138.228 429.025 138.238C429.717 138.262 430.405 138.353 431.08 138.508C431.854 138.711 432.599 139.011 433.297 139.4C434.087 139.82 434.811 140.353 435.446 140.982C436.534 142.026 437.359 143.314 437.853 144.739C438.119 145.529 438.278 146.352 438.326 147.185C438.414 148.19 438.341 149.203 438.109 150.185C437.944 150.865 437.708 151.526 437.406 152.158Z" fill="#8080FF"/>
<path d="M258.378 46.5837H143.558C127.544 46.5837 114.562 59.5622 114.562 75.572V355.71C114.562 371.72 127.544 384.699 143.558 384.699H258.378C274.392 384.699 287.373 371.72 287.373 355.71V75.572C287.373 59.5622 274.392 46.5837 258.378 46.5837Z" fill="#4139A1"/>
<path d="M280.285 72.6262H121.641V349.832H280.285V72.6262Z" fill="#F0F1FF"/>
<path d="M220.538 58.4497H181.391V61.8283H220.538V58.4497Z" fill="white"/>
<path d="M209.615 366.995C209.615 368.706 209.108 370.378 208.157 371.8C207.207 373.222 205.855 374.331 204.275 374.986C202.694 375.64 200.954 375.812 199.276 375.478C197.598 375.144 196.056 374.32 194.846 373.111C193.637 371.901 192.813 370.36 192.479 368.682C192.145 367.004 192.316 365.265 192.971 363.685C193.626 362.105 194.735 360.754 196.157 359.803C197.58 358.853 199.253 358.346 200.964 358.346C202.1 358.344 203.226 358.566 204.277 359C205.327 359.435 206.282 360.072 207.085 360.875C207.889 361.679 208.526 362.633 208.96 363.683C209.394 364.733 209.617 365.859 209.615 366.995Z" fill="white"/>
<path d="M174.845 330.141H266.469V327.979H174.845V330.141Z" fill="#BBC3FF"/>
<path d="M174.845 319.168H266.469V317.006H174.845V319.168Z" fill="#BBC3FF"/>
<path d="M174.845 308.221H266.469V306.059H174.845V308.221Z" fill="#BBC3FF"/>
<path d="M135.453 334.845H168.977V301.329H135.453V334.845Z" fill="#BBC3FF"/>
<path d="M174.853 279.652H216.906V277.49H174.853V279.652Z" fill="#BBC3FF"/>
<path d="M174.845 268.692H266.469V266.53H174.845V268.692Z" fill="#BBC3FF"/>
<path d="M174.845 257.732H266.469V255.569H174.845V257.732Z" fill="#BBC3FF"/>
<path d="M135.453 284.368H168.977V250.853H135.453V284.368Z" fill="#BBC3FF"/>
<path d="M174.845 228.108H266.469V225.946H174.845V228.108Z" fill="#BBC3FF"/>
<path d="M174.845 217.135H266.469V214.972H174.845V217.135Z" fill="#BBC3FF"/>
<path d="M174.845 206.175H266.469V204.012H174.845V206.175Z" fill="#BBC3FF"/>
<path d="M135.453 232.811H168.977V199.296H135.453V232.811Z" fill="#BBC3FF"/>
<path opacity="0.29" d="M287.367 202.418H228.781V278.044H287.367V202.418Z" fill="#4139A1"/>
<path d="M353.384 198.039H232.859V274.395H353.384V198.039Z" fill="#FBFFFC"/>
<path d="M292.3 253.11C287.843 253.11 283.486 251.788 279.78 249.313C276.075 246.838 273.186 243.319 271.481 239.203C269.775 235.086 269.329 230.556 270.199 226.186C271.068 221.816 273.214 217.802 276.366 214.651C279.517 211.501 283.532 209.355 287.904 208.486C292.275 207.617 296.806 208.063 300.923 209.768C305.041 211.473 308.56 214.36 311.036 218.065C313.512 221.77 314.834 226.126 314.834 230.581C314.827 236.554 312.45 242.28 308.226 246.503C304.001 250.727 298.274 253.103 292.3 253.11ZM292.3 210.107C288.249 210.107 284.29 211.308 280.922 213.558C277.554 215.807 274.929 219.005 273.379 222.746C271.829 226.487 271.424 230.604 272.214 234.576C273.004 238.547 274.955 242.195 277.819 245.059C280.683 247.922 284.332 249.872 288.304 250.662C292.277 251.452 296.395 251.047 300.137 249.497C303.879 247.947 307.077 245.323 309.328 241.956C311.578 238.589 312.779 234.631 312.779 230.581C312.772 225.153 310.612 219.95 306.773 216.112C302.934 212.274 297.729 210.114 292.3 210.107Z" fill="#F9355B"/>
<path d="M306.042 230.582L285.414 217.783V243.393L306.042 230.582Z" fill="#F9355B"/>
<path d="M350.459 262.286H235.883V270.584H350.459V262.286Z" fill="#706CCA"/>
<path d="M243.071 266.503L238.812 263.854V269.152L243.071 266.503Z" fill="#FBFFFC"/>
<path d="M300.958 266.435C300.958 266.938 300.808 267.43 300.528 267.848C300.249 268.266 299.851 268.592 299.386 268.784C298.921 268.975 298.409 269.025 297.916 268.926C297.422 268.827 296.969 268.583 296.615 268.227C296.26 267.87 296.019 267.416 295.922 266.922C295.826 266.429 295.878 265.917 296.072 265.453C296.267 264.989 296.595 264.593 297.014 264.316C297.434 264.038 297.927 263.892 298.43 263.894C298.763 263.894 299.093 263.96 299.4 264.088C299.708 264.216 299.987 264.403 300.222 264.639C300.457 264.875 300.643 265.156 300.769 265.464C300.895 265.772 300.959 266.102 300.958 266.435Z" fill="#FBFFFC"/>
<path d="M243.07 266.503H347.887" stroke="#FBFFFC" stroke-miterlimit="10"/>
<path d="M397.084 136.387H297.688V175.524H397.084V136.387Z" fill="#5757BC"/>
<path d="M384.859 148.698H310.781V152.09H384.859V148.698Z" fill="white"/>
<path d="M384.859 156.28H310.781V159.672H384.859V156.28Z" fill="white"/>
<path d="M361.257 163.875H310.781V167.267H361.257V163.875Z" fill="white"/>
<path opacity="0.19" d="M287.371 123.534H262.188V46.8271C275.543 48.7056 287.371 58.6657 287.371 72.5719V123.534Z" fill="#4139A1"/>
<path d="M400.173 31.4612H266.469V118.575H400.173V31.4612Z" fill="#9090F4"/>
<path d="M392.676 37.9753H273.977V112.047H392.676V37.9753Z" fill="white"/>
<path d="M358.116 42.7593L357.008 52.1382C361.562 52.3299 365.867 54.2728 369.023 57.5615C372.179 60.8502 373.943 65.2304 373.946 69.7879C373.939 70.4473 373.899 71.1059 373.824 71.761L383.111 73.4638C383.283 72.2459 383.373 71.0179 383.381 69.7879C383.38 62.9206 380.77 56.31 376.08 51.2925C371.39 46.275 364.97 43.2251 358.116 42.7593Z" fill="#F9355B"/>
<path d="M356.249 87.4782C353.556 87.4766 350.899 86.8596 348.481 85.6744C346.064 84.4892 343.949 82.7672 342.299 80.6399L336.445 88.289C339.935 92.0628 344.428 94.7638 349.398 96.0755C354.368 97.3872 359.609 97.2552 364.507 95.6949C369.404 94.1346 373.756 91.2108 377.05 87.2661C380.345 83.3215 382.447 78.5195 383.109 73.4233L373.822 71.7205C373.346 76.0488 371.29 80.0497 368.048 82.9571C364.805 85.8645 360.604 87.4743 356.249 87.4782Z" fill="#5757BC"/>
<path d="M338.556 69.788C338.556 65.0962 340.42 60.5966 343.739 57.2791C347.057 53.9615 351.558 52.0977 356.251 52.0977C356.508 52.0977 356.751 52.0977 357.008 52.0977L358.116 42.7188C357.495 42.7188 356.886 42.6242 356.251 42.6242C350.95 42.5881 345.755 44.111 341.312 47.0035C336.87 49.8961 333.376 54.0305 331.266 58.8926C329.155 63.7547 328.521 69.1298 329.443 74.3493C330.364 79.5688 332.8 84.4023 336.447 88.2485L342.301 80.5994C339.881 77.5142 338.563 73.7085 338.556 69.788Z" fill="#FFC41D"/>
<path d="M286.315 102.641H302.037V105.777H286.315C285.907 105.777 285.515 105.614 285.226 105.325C284.937 105.037 284.774 104.645 284.774 104.236C284.767 104.029 284.802 103.823 284.876 103.63C284.95 103.437 285.062 103.26 285.206 103.112C285.35 102.963 285.522 102.844 285.713 102.764C285.904 102.683 286.108 102.641 286.315 102.641Z" fill="#C5C5FF"/>
<path d="M301.743 107.263C303.43 107.263 304.798 105.896 304.798 104.209C304.798 102.522 303.43 101.155 301.743 101.155C300.055 101.155 298.688 102.522 298.688 104.209C298.688 105.896 300.055 107.263 301.743 107.263Z" fill="#F9355B"/>
<path d="M325.612 102.641H341.333V105.777H325.612C325.204 105.777 324.812 105.614 324.523 105.325C324.234 105.037 324.071 104.645 324.071 104.236C324.064 104.029 324.098 103.823 324.173 103.63C324.247 103.437 324.359 103.26 324.503 103.112C324.647 102.963 324.819 102.844 325.01 102.764C325.2 102.683 325.405 102.641 325.612 102.641Z" fill="#C5C5FF"/>
<path d="M341.032 107.263C342.719 107.263 344.087 105.896 344.087 104.209C344.087 102.522 342.719 101.155 341.032 101.155C339.344 101.155 337.977 102.522 337.977 104.209C337.977 105.896 339.344 107.263 341.032 107.263Z" fill="#FFC41D"/>
<path d="M364.901 102.641H380.622V105.777H364.901C364.493 105.777 364.101 105.614 363.812 105.325C363.523 105.037 363.36 104.645 363.36 104.236C363.353 104.029 363.388 103.823 363.462 103.63C363.536 103.437 363.648 103.26 363.792 103.112C363.936 102.963 364.108 102.844 364.299 102.764C364.489 102.683 364.694 102.641 364.901 102.641Z" fill="#C5C5FF"/>
<path d="M380.313 107.263C382 107.263 383.368 105.896 383.368 104.209C383.368 102.522 382 101.155 380.313 101.155C378.626 101.155 377.258 102.522 377.258 104.209C377.258 105.896 378.626 107.263 380.313 107.263Z" fill="#5757BC"/>
<path d="M319.279 46.8271H284.781V50.3274H319.279V46.8271Z" fill="#C5C5FF"/>
<path d="M319.279 55.5305H284.781V59.0307H319.279V55.5305Z" fill="#C5C5FF"/>
<path d="M319.279 64.2473H284.781V67.7475H319.279V64.2473Z" fill="#C5C5FF"/>
<path d="M319.279 72.9504H284.781V76.4507H319.279V72.9504Z" fill="#C5C5FF"/>
<path d="M319.279 81.6538H284.781V85.154H319.279V81.6538Z" fill="#C5C5FF"/>
<path d="M319.279 90.3567H284.781V93.8569H319.279V90.3567Z" fill="#C5C5FF"/>
<path d="M212.89 87.1062H189.066C183.261 87.1062 178.555 91.8121 178.555 97.6172V121.442C178.555 127.247 183.261 131.953 189.066 131.953H212.89C218.696 131.953 223.401 127.247 223.401 121.442V97.6172C223.401 91.8121 218.696 87.1062 212.89 87.1062Z" fill="#242938"/>
<path d="M200.979 112.849C202.784 112.849 204.247 111.386 204.247 109.581C204.247 107.776 202.784 106.313 200.979 106.313C199.174 106.313 197.711 107.776 197.711 109.581C197.711 111.386 199.174 112.849 200.979 112.849Z" fill="#00D8FF"/>
<path d="M200.98 102.936C205.368 102.936 209.444 103.566 212.517 104.624C216.221 105.899 218.497 107.831 218.497 109.581C218.497 111.405 216.085 113.458 212.108 114.775C209.101 115.771 205.145 116.291 200.98 116.291C196.709 116.291 192.665 115.803 189.624 114.764C185.778 113.45 183.461 111.37 183.461 109.581C183.461 107.846 185.635 105.928 189.286 104.655C192.371 103.58 196.548 102.936 200.979 102.936H200.98Z" stroke="#00D8FF" stroke-width="1.91"/>
<path d="M195.193 106.278C197.385 102.477 199.967 99.26 202.419 97.1263C205.374 94.5552 208.185 93.5482 209.701 94.4222C211.281 95.3331 211.854 98.4493 211.008 102.552C210.37 105.654 208.843 109.341 206.762 112.95C204.629 116.649 202.186 119.909 199.767 122.023C196.706 124.698 193.747 125.666 192.198 124.773C190.694 123.906 190.119 121.065 190.841 117.266C191.45 114.056 192.98 110.116 195.192 106.278H195.193Z" stroke="#00D8FF" stroke-width="1.91"/>
<path d="M195.197 112.959C192.999 109.162 191.502 105.318 190.877 102.128C190.125 98.2847 190.657 95.346 192.172 94.4694C193.75 93.5557 196.735 94.6155 199.868 97.3971C202.237 99.5 204.669 102.663 206.756 106.268C208.895 109.964 210.499 113.709 211.123 116.86C211.912 120.848 211.273 123.895 209.725 124.791C208.223 125.66 205.474 124.74 202.543 122.217C200.067 120.087 197.417 116.794 195.197 112.959Z" stroke="#00D8FF" stroke-width="1.91"/>
<path d="M65.8601 248.652C69.5368 248.652 72.517 245.442 72.517 241.482C72.517 237.523 69.5368 234.313 65.8601 234.313C62.1837 234.313 59.2031 237.523 59.2031 241.482C59.2031 245.442 62.1837 248.652 65.8601 248.652Z" fill="#00D8FF"/>
<path d="M65.8586 227.145C75.2219 227.145 83.9201 228.496 90.4787 230.769C98.3807 233.506 103.239 237.655 103.239 241.413C103.239 245.328 98.0902 249.736 89.6043 252.565C83.1889 254.704 74.7468 255.821 65.8586 255.821C56.7458 255.821 48.1163 254.773 41.6284 252.542C33.4202 249.719 28.4766 245.254 28.4766 241.413C28.4766 237.686 33.1156 233.568 40.9066 230.835C47.4894 228.526 56.4023 227.145 65.8571 227.145H65.8586Z" stroke="#00D8FF" stroke-width="2.91"/>
<path d="M53.6748 234.444C58.3015 226.403 63.75 219.598 68.9253 215.084C75.1602 209.644 81.0942 207.514 84.293 209.363C87.6267 211.29 88.8361 217.882 87.0522 226.563C85.7046 233.125 82.4828 240.925 78.091 248.558C73.5882 256.385 68.4325 263.28 63.3278 267.752C56.8684 273.412 50.6235 275.461 47.3534 273.57C44.1801 271.737 42.9667 265.726 44.4892 257.689C45.7754 250.899 49.0034 242.564 53.6733 234.444H53.6748Z" stroke="#00D8FF" stroke-width="2.91"/>
<path d="M53.6407 248.531C49.0135 240.493 45.8631 232.356 44.5482 225.603C42.9653 217.465 44.0844 211.244 47.272 209.388C50.5939 207.454 56.8781 209.698 63.4717 215.586C68.4568 220.038 73.5759 226.735 77.9685 234.366C82.4721 242.191 85.8475 250.118 87.1605 256.789C88.822 265.231 87.4772 271.682 84.2188 273.579C81.0573 275.42 75.2716 273.471 69.1025 268.131C63.8902 263.62 58.3135 256.65 53.6407 248.531Z" stroke="#00D8FF" stroke-width="2.91"/>
<path d="M148.361 153.15C149.527 153.15 150.488 153.291 151.244 153.572C152.006 153.854 152.571 154.278 152.94 154.847C153.31 155.415 153.494 156.133 153.494 157C153.494 157.586 153.383 158.099 153.16 158.538C152.938 158.978 152.645 159.35 152.281 159.654C151.918 159.959 151.525 160.208 151.104 160.401L154.883 166H151.859L148.792 161.069H147.342V166H144.617V153.15H148.361ZM148.168 155.383H147.342V158.854H148.221C149.123 158.854 149.768 158.705 150.154 158.406C150.547 158.102 150.743 157.656 150.743 157.07C150.743 156.461 150.532 156.027 150.11 155.77C149.694 155.512 149.047 155.383 148.168 155.383ZM160.341 155.989C161.249 155.989 162.031 156.165 162.688 156.517C163.344 156.862 163.851 157.366 164.208 158.028C164.565 158.69 164.744 159.499 164.744 160.454V161.755H158.407C158.437 162.511 158.662 163.105 159.084 163.539C159.512 163.967 160.104 164.181 160.859 164.181C161.486 164.181 162.061 164.116 162.582 163.987C163.104 163.858 163.64 163.665 164.19 163.407V165.481C163.704 165.722 163.194 165.897 162.661 166.009C162.134 166.12 161.492 166.176 160.736 166.176C159.752 166.176 158.879 165.994 158.117 165.631C157.361 165.268 156.767 164.714 156.333 163.97C155.905 163.226 155.691 162.288 155.691 161.157C155.691 160.009 155.885 159.054 156.271 158.292C156.664 157.524 157.209 156.95 157.906 156.569C158.604 156.183 159.415 155.989 160.341 155.989ZM160.358 157.896C159.837 157.896 159.403 158.063 159.058 158.397C158.718 158.731 158.521 159.256 158.469 159.971H162.23C162.225 159.572 162.151 159.218 162.011 158.907C161.876 158.597 161.671 158.351 161.396 158.169C161.126 157.987 160.78 157.896 160.358 157.896ZM170.949 155.972C172.268 155.972 173.278 156.259 173.981 156.833C174.685 157.407 175.036 158.28 175.036 159.452V166H173.164L172.646 164.664H172.575C172.294 165.016 172.007 165.303 171.714 165.525C171.421 165.748 171.084 165.912 170.703 166.018C170.322 166.123 169.859 166.176 169.314 166.176C168.734 166.176 168.213 166.064 167.75 165.842C167.293 165.619 166.933 165.279 166.669 164.822C166.405 164.359 166.273 163.773 166.273 163.064C166.273 162.021 166.64 161.254 167.372 160.762C168.104 160.264 169.203 159.988 170.668 159.936L172.373 159.883V159.452C172.373 158.937 172.238 158.559 171.969 158.318C171.699 158.078 171.324 157.958 170.844 157.958C170.369 157.958 169.903 158.025 169.446 158.16C168.989 158.295 168.532 158.465 168.075 158.67L167.188 156.859C167.709 156.584 168.292 156.367 168.937 156.209C169.587 156.051 170.258 155.972 170.949 155.972ZM172.373 161.447L171.336 161.482C170.469 161.506 169.865 161.661 169.525 161.948C169.191 162.235 169.024 162.613 169.024 163.082C169.024 163.492 169.145 163.785 169.385 163.961C169.625 164.131 169.938 164.216 170.325 164.216C170.899 164.216 171.383 164.046 171.775 163.706C172.174 163.366 172.373 162.883 172.373 162.256V161.447ZM181.795 166.176C180.822 166.176 179.993 166 179.308 165.648C178.622 165.291 178.101 164.74 177.743 163.996C177.386 163.252 177.207 162.3 177.207 161.14C177.207 159.938 177.409 158.96 177.813 158.204C178.224 157.442 178.789 156.883 179.51 156.525C180.236 156.168 181.077 155.989 182.032 155.989C182.712 155.989 183.298 156.057 183.79 156.191C184.288 156.32 184.722 156.476 185.091 156.657L184.3 158.731C183.878 158.562 183.485 158.424 183.122 158.318C182.759 158.207 182.396 158.151 182.032 158.151C181.563 158.151 181.174 158.263 180.863 158.485C180.553 158.702 180.321 159.03 180.169 159.47C180.017 159.909 179.94 160.46 179.94 161.122C179.94 161.772 180.022 162.312 180.187 162.739C180.351 163.167 180.588 163.486 180.898 163.697C181.209 163.902 181.587 164.005 182.032 164.005C182.589 164.005 183.084 163.932 183.518 163.785C183.951 163.633 184.373 163.422 184.783 163.152V165.446C184.373 165.704 183.942 165.889 183.491 166C183.046 166.117 182.48 166.176 181.795 166.176ZM191.208 164.04C191.501 164.04 191.785 164.011 192.061 163.952C192.342 163.894 192.62 163.82 192.896 163.732V165.728C192.608 165.856 192.251 165.962 191.823 166.044C191.401 166.132 190.938 166.176 190.435 166.176C189.849 166.176 189.321 166.082 188.853 165.895C188.39 165.701 188.023 165.37 187.754 164.901C187.49 164.427 187.358 163.768 187.358 162.924V158.187H186.075V157.053L187.552 156.156L188.325 154.082H190.039V156.174H192.79V158.187H190.039V162.924C190.039 163.299 190.145 163.58 190.355 163.768C190.572 163.949 190.856 164.04 191.208 164.04ZM211.177 166H207.714L202.124 156.279H202.045C202.068 156.684 202.089 157.091 202.106 157.501C202.124 157.911 202.142 158.321 202.159 158.731C202.177 159.136 202.194 159.543 202.212 159.953V166H199.777V153.15H203.214L208.795 162.774H208.856C208.845 162.376 208.83 161.98 208.812 161.588C208.795 161.195 208.777 160.803 208.76 160.41C208.748 160.018 208.736 159.625 208.725 159.232V153.15H211.177V166ZM218.234 155.972C219.553 155.972 220.563 156.259 221.267 156.833C221.97 157.407 222.321 158.28 222.321 159.452V166H220.449L219.931 164.664H219.86C219.579 165.016 219.292 165.303 218.999 165.525C218.706 165.748 218.369 165.912 217.988 166.018C217.607 166.123 217.145 166.176 216.6 166.176C216.02 166.176 215.498 166.064 215.035 165.842C214.578 165.619 214.218 165.279 213.954 164.822C213.69 164.359 213.559 163.773 213.559 163.064C213.559 162.021 213.925 161.254 214.657 160.762C215.39 160.264 216.488 159.988 217.953 159.936L219.658 159.883V159.452C219.658 158.937 219.523 158.559 219.254 158.318C218.984 158.078 218.609 157.958 218.129 157.958C217.654 157.958 217.188 158.025 216.731 158.16C216.274 158.295 215.817 158.465 215.36 158.67L214.473 156.859C214.994 156.584 215.577 156.367 216.222 156.209C216.872 156.051 217.543 155.972 218.234 155.972ZM219.658 161.447L218.621 161.482C217.754 161.506 217.15 161.661 216.811 161.948C216.477 162.235 216.31 162.613 216.31 163.082C216.31 163.492 216.43 163.785 216.67 163.961C216.91 164.131 217.224 164.216 217.61 164.216C218.185 164.216 218.668 164.046 219.061 163.706C219.459 163.366 219.658 162.883 219.658 162.256V161.447ZM229.229 164.04C229.522 164.04 229.807 164.011 230.082 163.952C230.363 163.894 230.642 163.82 230.917 163.732V165.728C230.63 165.856 230.272 165.962 229.845 166.044C229.423 166.132 228.96 166.176 228.456 166.176C227.87 166.176 227.343 166.082 226.874 165.895C226.411 165.701 226.045 165.37 225.775 164.901C225.512 164.427 225.38 163.768 225.38 162.924V158.187H224.097V157.053L225.573 156.156L226.347 154.082H228.061V156.174H230.812V158.187H228.061V162.924C228.061 163.299 228.166 163.58 228.377 163.768C228.594 163.949 228.878 164.04 229.229 164.04ZM235.593 156.174V166H232.912V156.174H235.593ZM234.257 152.324C234.655 152.324 234.998 152.418 235.285 152.605C235.572 152.787 235.716 153.13 235.716 153.634C235.716 154.132 235.572 154.478 235.285 154.671C234.998 154.858 234.655 154.952 234.257 154.952C233.853 154.952 233.507 154.858 233.22 154.671C232.938 154.478 232.798 154.132 232.798 153.634C232.798 153.13 232.938 152.787 233.22 152.605C233.507 152.418 233.853 152.324 234.257 152.324ZM240.752 166L237.008 156.174H239.812L241.71 161.772C241.815 162.101 241.897 162.446 241.956 162.81C242.021 163.173 242.064 163.498 242.088 163.785H242.158C242.176 163.475 242.217 163.144 242.281 162.792C242.352 162.44 242.442 162.101 242.554 161.772L244.443 156.174H247.247L243.503 166H240.752ZM252.714 155.989C253.622 155.989 254.404 156.165 255.061 156.517C255.717 156.862 256.224 157.366 256.581 158.028C256.938 158.69 257.117 159.499 257.117 160.454V161.755H250.78C250.81 162.511 251.035 163.105 251.457 163.539C251.885 163.967 252.477 164.181 253.232 164.181C253.859 164.181 254.434 164.116 254.955 163.987C255.477 163.858 256.013 163.665 256.563 163.407V165.481C256.077 165.722 255.567 165.897 255.034 166.009C254.507 166.12 253.865 166.176 253.109 166.176C252.125 166.176 251.252 165.994 250.49 165.631C249.734 165.268 249.14 164.714 248.706 163.97C248.278 163.226 248.064 162.288 248.064 161.157C248.064 160.009 248.258 159.054 248.645 158.292C249.037 157.524 249.582 156.95 250.279 156.569C250.977 156.183 251.788 155.989 252.714 155.989ZM252.731 157.896C252.21 157.896 251.776 158.063 251.431 158.397C251.091 158.731 250.895 159.256 250.842 159.971H254.604C254.598 159.572 254.524 159.218 254.384 158.907C254.249 158.597 254.044 158.351 253.769 158.169C253.499 157.987 253.153 157.896 252.731 157.896Z" fill="#0E2B5C"/>
</svg>
