<svg width="457" height="398" viewBox="0 0 457 398" fill="none" xmlns="http://www.w3.org/2000/svg">
<path d="M442.358 222.377C439.74 201.638 432.391 181.453 420.763 164.187C398.263 130.663 366.751 105.796 340.073 76.3488C315.407 49.1666 292.302 19.3166 257.419 6.3799C215.588 -9.17433 168.976 4.56776 138.925 38.2937C109.88 70.862 95.2823 114.051 69.5096 149.187C48.6197 177.728 21.6892 206.924 20.8335 245.029C20.0784 280.013 39.8106 311.323 65.0296 332.515C105.551 366.493 156.392 377.618 206.88 381.645C274.634 387.081 354.419 382.45 406.316 330.2C433.7 302.615 447.291 261.942 442.358 222.377Z" fill="#3C94F8" fill-opacity="0.1"/>
<path fill-rule="evenodd" clip-rule="evenodd" d="M263.906 234.912C263.604 242.412 262.949 249.811 261.993 257.261C261.087 264.611 259.728 271.859 257.916 279.057C256.355 285.35 254.342 291.591 249.761 296.373C246.187 300.149 241.153 303.068 235.868 302.867C234.207 303.119 232.546 302.867 230.985 302.162C229.525 301.508 228.267 300.551 227.21 299.394C225.951 298.286 224.945 296.826 224.24 295.165C222.83 292.598 221.773 289.729 220.767 287.262C218.149 280.819 216.136 274.175 214.273 267.43C212.511 260.835 211.404 253.989 210.649 247.194C209.894 240.298 209.29 233.401 209.189 226.455C209.038 219.307 209.088 212.159 209.189 205.011C209.29 198.065 209.994 191.068 210.447 184.121C210.951 177.074 211.555 170.027 212.662 163.03C213.719 156.033 215.582 149.137 218.35 142.593C220.716 136.855 224.24 131.015 229.978 128.096C235.264 125.378 241.405 125.579 246.086 129.455C251.07 133.532 253.134 140.026 254.593 146.117C256.254 153.315 257.714 160.563 258.973 167.862C259.644 171.621 260.265 175.379 260.835 179.138C261.389 182.863 261.792 186.638 262.245 190.413C262.681 194.004 263.033 197.612 263.302 201.236C263.604 205.062 263.956 208.837 263.956 212.663C263.906 220.062 264.208 227.462 263.906 234.912ZM260.684 221.522C260.583 214.626 260.281 207.679 259.778 200.783C258.721 186.739 257.11 172.695 254.593 158.852C253.989 155.429 253.335 152.006 252.681 148.583C252.076 145.412 251.472 142.19 250.415 139.12C248.503 133.583 244.274 128.046 237.932 127.794C231.438 127.542 226.153 132.073 222.981 137.358C221.27 140.126 220.012 143.096 218.954 146.167C217.847 149.338 217.193 152.509 216.538 155.781C215.28 162.376 214.575 169.02 214.122 175.715C213.669 182.208 213.216 188.752 212.914 195.246C212.26 208.434 211.907 221.623 212.612 234.811C213.317 247.647 214.978 260.533 218.149 273.017C219.71 279.259 221.673 285.35 224.089 291.34C225.196 294.008 226.404 296.826 228.317 298.991C228.821 299.327 229.324 299.645 229.827 299.947C234.76 302.515 240.6 301.81 244.979 298.488C249.862 294.813 252.63 289.024 254.342 283.286C256.305 276.792 257.009 269.946 258.016 263.201C259.023 256.305 259.677 249.258 260.13 242.261C260.583 235.415 260.785 228.468 260.684 221.522Z" fill="#61DAFB"/>
<path fill-rule="evenodd" clip-rule="evenodd" d="M268.339 202.344C274.48 206.622 280.42 211.102 286.259 215.884C291.947 220.566 297.333 225.599 302.467 230.935C306.947 235.667 311.125 240.701 312.786 247.144C314.045 252.127 313.793 257.966 310.823 262.346C310.169 263.856 309.011 265.164 307.602 266.121C306.293 266.977 304.833 267.53 303.273 267.832C301.662 268.235 299.9 268.336 298.138 268.034C295.168 267.832 292.199 267.228 289.581 266.775C282.685 265.567 275.99 263.705 269.345 261.641C262.802 259.627 256.459 256.909 250.318 253.939C244.076 250.869 237.885 247.697 231.945 244.123C225.854 240.399 219.864 236.523 213.874 232.647C208.035 228.821 202.497 224.492 196.86 220.415C191.172 216.237 185.534 211.958 180.198 207.327C174.862 202.646 170.03 197.41 165.953 191.571C162.379 186.487 159.308 180.447 159.862 174.004C160.415 168.064 163.889 162.98 169.627 161.117C175.768 159.053 182.363 160.765 188.252 162.829C195.249 165.245 202.145 167.913 209.041 170.681C212.565 172.124 216.055 173.618 219.511 175.161C222.985 176.671 226.357 178.383 229.78 179.994C233.069 181.537 236.324 183.165 239.546 184.876C242.918 186.689 246.291 188.35 249.512 190.414C255.805 194.39 262.198 198.115 268.339 202.344ZM255.301 197.914C249.412 194.29 243.371 190.867 237.281 187.595C224.847 181 212.112 174.859 199.024 169.624C195.803 168.315 192.581 167.007 189.359 165.748C186.339 164.54 183.319 163.332 180.097 162.577C174.46 161.268 167.463 161.872 163.889 167.107C160.214 172.443 161.221 179.39 163.989 184.876C165.399 187.746 167.261 190.464 169.275 192.981C171.389 195.598 173.705 197.863 176.171 200.129C181.054 204.76 186.289 208.887 191.675 212.814C196.96 216.69 202.246 220.515 207.582 224.291C218.354 231.892 229.327 239.19 240.855 245.634C252.08 251.926 263.859 257.413 276.141 261.389C282.232 263.403 288.474 264.963 294.766 266.121C297.635 266.624 300.655 267.128 303.524 266.624C304.095 266.389 304.632 266.138 305.135 265.869C309.917 263.101 312.434 257.765 311.981 252.278C311.478 246.187 308.105 240.751 304.128 236.271C299.648 231.136 294.262 226.858 289.128 222.428C283.792 217.847 278.255 213.569 272.567 209.441C266.98 205.414 261.191 201.538 255.301 197.914Z" fill="#61DAFB"/>
<path fill-rule="evenodd" clip-rule="evenodd" d="M223.794 190.414C226.966 188.35 230.389 186.689 233.761 184.876C236.949 183.165 240.204 181.537 243.527 179.994C246.95 178.383 250.322 176.671 253.795 175.161C257.252 173.618 260.742 172.124 264.266 170.681C271.162 167.913 278.058 165.245 285.055 162.829C290.944 160.765 297.539 159.053 303.68 161.117C309.418 162.98 312.891 168.064 313.445 174.004C313.999 180.447 310.928 186.487 307.354 191.571C303.277 197.41 298.445 202.646 293.109 207.327C287.773 211.958 282.135 216.237 276.447 220.415C270.809 224.492 265.272 228.821 259.433 232.647C253.443 236.523 247.453 240.399 241.362 244.123C235.422 247.697 229.231 250.869 222.989 253.939C216.848 256.909 210.505 259.627 203.961 261.641C197.267 263.705 190.622 265.567 183.726 266.775C181.108 267.228 178.138 267.832 175.169 268.034C173.407 268.336 171.645 268.235 170.034 267.832C168.474 267.53 167.014 266.977 165.705 266.121C164.296 265.164 163.138 263.856 162.484 262.346C159.514 257.966 159.262 252.127 160.52 247.144C162.182 240.701 166.36 235.667 170.84 230.935C175.974 225.599 181.36 220.566 187.048 215.884C192.887 211.102 198.827 206.622 204.968 202.344C211.109 198.115 217.502 194.39 223.794 190.414ZM200.74 209.441C195.052 213.569 189.515 217.847 184.179 222.428C179.045 226.858 173.658 231.136 169.178 236.271C165.202 240.751 161.829 246.187 161.326 252.278C160.873 257.765 163.39 263.101 168.172 265.869C168.675 266.138 169.212 266.389 169.782 266.624C172.652 267.128 175.672 266.624 178.541 266.121C184.833 264.963 191.075 263.403 197.166 261.389C209.398 257.413 221.227 251.926 232.452 245.634C243.98 239.19 254.953 231.892 265.725 224.291C271.061 220.515 276.347 216.69 281.632 212.814C287.018 208.887 292.253 204.76 297.136 200.129C299.602 197.863 301.918 195.598 304.032 192.981C306.046 190.464 307.908 187.746 309.317 184.876C312.086 179.39 313.093 172.443 309.418 167.107C305.844 161.872 298.847 161.268 293.159 162.577C289.988 163.332 286.968 164.54 283.947 165.748C280.726 167.007 277.504 168.315 274.283 169.624C261.195 174.859 248.46 181 236.026 187.595C229.936 190.867 223.895 194.29 218.006 197.914C212.116 201.538 206.327 205.414 200.74 209.441Z" fill="#61DAFB"/>
<path d="M310.782 236.875C310.782 236.707 310.782 236.556 310.782 236.422C310.782 236.321 310.782 236.271 310.782 236.22C310.715 235.683 310.648 235.163 310.581 234.66C310.447 234.156 310.262 233.687 310.027 233.25C309.725 232.848 309.406 232.445 309.071 232.042C308.333 231.338 307.477 230.834 306.504 230.532C305.967 230.431 305.43 230.364 304.893 230.331C304.859 230.331 304.842 230.331 304.842 230.331C304.289 230.381 303.735 230.431 303.181 230.532C303.148 230.532 303.131 230.549 303.131 230.582C302.628 230.734 302.124 230.985 301.621 231.187C301.621 231.187 301.604 231.203 301.571 231.237C301.118 231.539 300.715 231.841 300.312 232.193C299.977 232.63 299.658 233.049 299.356 233.452C299.121 233.955 298.903 234.442 298.701 234.911C298.634 235.482 298.567 236.036 298.5 236.573C298.567 237.11 298.634 237.663 298.701 238.234L299.356 239.694C299.658 240.096 299.977 240.516 300.312 240.952C300.715 241.254 301.118 241.573 301.52 241.908C302.259 242.345 303.03 242.58 303.836 242.613C304.373 242.781 304.926 242.781 305.497 242.613C306.034 242.613 306.537 242.479 307.007 242.21C307.544 242.076 307.997 241.808 308.366 241.405C308.836 241.137 309.205 240.767 309.474 240.298C309.876 239.928 310.145 239.475 310.279 238.938C310.547 238.469 310.682 237.949 310.682 237.378C310.732 237.328 310.732 237.277 310.732 237.177C310.766 237.076 310.782 236.975 310.782 236.875Z" fill="#61DAFB"/>
<path d="M170.078 188.752C170.078 188.651 170.078 188.551 170.078 188.45C170.078 188.4 170.078 188.349 170.078 188.299C170.045 187.93 169.994 187.544 169.927 187.141C169.826 186.806 169.692 186.47 169.524 186.135C169.289 185.866 169.071 185.581 168.87 185.279C168.333 184.776 167.712 184.423 167.008 184.222C166.605 184.155 166.219 184.104 165.85 184.071C165.816 184.071 165.799 184.071 165.799 184.071C165.397 184.071 164.994 184.121 164.591 184.222C164.591 184.222 164.575 184.222 164.541 184.222C164.189 184.322 163.836 184.524 163.484 184.675C163.484 184.675 163.467 184.675 163.434 184.675C163.132 184.91 162.83 185.145 162.528 185.38C162.528 185.38 162.528 185.396 162.528 185.43C162.293 185.698 162.058 185.984 161.823 186.286C161.689 186.655 161.538 187.007 161.37 187.343C161.336 187.745 161.286 188.148 161.219 188.551C161.286 188.954 161.336 189.339 161.37 189.709L161.823 190.766C162.058 191.068 162.293 191.37 162.528 191.672C162.83 191.907 163.132 192.142 163.434 192.376C163.937 192.712 164.491 192.897 165.095 192.93C165.464 193.031 165.85 193.031 166.252 192.93C166.655 192.93 167.024 192.829 167.36 192.628C167.729 192.494 168.065 192.293 168.367 192.024C168.702 191.823 168.971 191.554 169.172 191.219C169.441 190.95 169.625 190.631 169.726 190.262C169.927 189.927 170.028 189.558 170.028 189.155C170.028 189.088 170.028 189.037 170.028 189.004C170.061 188.937 170.078 188.853 170.078 188.752Z" fill="#61DAFB"/>
<path d="M252.835 216.337C252.885 215.934 252.936 215.532 252.885 215.179C252.885 214.978 252.936 214.827 252.936 214.626C252.768 213.25 252.583 211.891 252.382 210.548C251.979 209.273 251.459 208.048 250.821 206.874C250.05 205.833 249.261 204.81 248.455 203.803C246.543 201.89 244.294 200.581 241.71 199.877C240.301 199.625 238.891 199.373 237.482 199.273C237.448 199.273 237.398 199.273 237.331 199.273C235.871 199.373 234.462 199.625 233.052 199.877C232.985 199.877 232.935 199.877 232.901 199.877C231.542 200.33 230.284 200.934 228.975 201.538C228.941 201.571 228.908 201.605 228.874 201.639C227.717 202.394 226.659 203.249 225.602 204.155C225.569 204.155 225.552 204.172 225.552 204.206C224.713 205.28 223.874 206.37 223.035 207.478C222.498 208.753 221.961 210.028 221.424 211.303C221.223 212.713 221.022 214.139 220.82 215.582C221.022 216.991 221.223 218.401 221.424 219.81L223.035 223.686C223.874 224.76 224.713 225.834 225.552 226.908C226.626 227.747 227.7 228.586 228.774 229.425C230.619 230.599 232.616 231.237 234.764 231.338C236.173 231.74 237.599 231.74 239.042 231.338C240.485 231.338 241.828 230.968 243.069 230.23C244.445 229.861 245.637 229.173 246.643 228.166C247.851 227.462 248.808 226.505 249.513 225.297C250.519 224.29 251.207 223.116 251.576 221.773C252.315 220.498 252.684 219.139 252.684 217.696C252.734 217.545 252.734 217.344 252.734 217.193C252.784 216.941 252.835 216.639 252.835 216.337Z" fill="#61DAFB"/>
<path d="M258.822 285.954C258.822 285.82 258.822 285.702 258.822 285.601C258.822 285.551 258.822 285.501 258.822 285.45C258.788 285.081 258.738 284.695 258.671 284.293C258.57 283.923 258.419 283.571 258.218 283.236C258.017 282.967 257.798 282.682 257.564 282.38C257.027 281.843 256.389 281.474 255.651 281.272C255.248 281.205 254.845 281.155 254.443 281.121C254.443 281.121 254.426 281.121 254.392 281.121C253.99 281.121 253.587 281.172 253.184 281.272C253.184 281.272 253.167 281.272 253.134 281.272C252.782 281.373 252.379 281.574 252.026 281.725C252.026 281.725 252.01 281.742 251.976 281.776C251.674 281.977 251.372 282.212 251.07 282.48C250.835 282.782 250.6 283.101 250.365 283.437C250.198 283.772 250.03 284.125 249.862 284.494C249.828 284.897 249.778 285.299 249.711 285.702C249.778 286.105 249.828 286.507 249.862 286.91L250.365 288.018C250.6 288.32 250.835 288.622 251.07 288.924C251.372 289.192 251.674 289.444 251.976 289.679C252.513 290.014 253.084 290.182 253.688 290.182C254.09 290.316 254.493 290.316 254.896 290.182C255.298 290.182 255.684 290.081 256.053 289.88C256.423 289.779 256.758 289.595 257.06 289.326C257.396 289.091 257.664 288.806 257.866 288.471C258.134 288.202 258.335 287.867 258.47 287.464C258.671 287.128 258.772 286.742 258.772 286.306C258.772 286.273 258.772 286.239 258.772 286.205C258.805 286.105 258.822 286.021 258.822 285.954Z" fill="#61DAFB"/>
<path d="M226.46 142.291C226.493 142.123 226.51 141.955 226.51 141.788C226.51 141.687 226.51 141.636 226.51 141.536C226.41 140.932 226.326 140.328 226.259 139.724C226.091 139.153 225.856 138.599 225.554 138.063C225.218 137.593 224.866 137.14 224.497 136.703C223.658 135.864 222.651 135.277 221.476 134.942C220.872 134.841 220.218 134.74 219.614 134.69C219.58 134.69 219.547 134.69 219.513 134.69C218.909 134.74 218.255 134.841 217.601 134.942C217.601 134.942 217.584 134.942 217.55 134.942C216.946 135.143 216.392 135.445 215.788 135.697C215.788 135.697 215.772 135.713 215.738 135.747C215.235 136.099 214.782 136.452 214.278 136.854C214.278 136.854 214.278 136.871 214.278 136.905C213.909 137.375 213.54 137.844 213.171 138.314C212.902 138.885 212.651 139.455 212.416 140.026C212.349 140.663 212.265 141.301 212.164 141.939C212.265 142.576 212.349 143.214 212.416 143.851L213.171 145.563C213.54 146.066 213.909 146.553 214.278 147.023C214.748 147.392 215.235 147.761 215.738 148.13C216.543 148.667 217.433 148.952 218.406 148.986C219.043 149.154 219.681 149.154 220.319 148.986C220.956 148.986 221.544 148.835 222.081 148.533C222.718 148.365 223.255 148.046 223.691 147.576C224.228 147.274 224.664 146.855 225 146.318C225.436 145.848 225.738 145.311 225.906 144.707C226.242 144.17 226.41 143.566 226.41 142.895C226.41 142.845 226.41 142.744 226.41 142.694C226.443 142.559 226.46 142.425 226.46 142.291Z" fill="#61DAFB"/>
<path d="M124.124 72.7243C124.09 70.9122 124.057 69.1168 124.023 67.3382C124.023 67.1369 123.922 66.9859 123.822 66.8852C123.671 66.5832 123.369 66.3315 122.865 66.2812C120.499 65.9288 117.983 66.0295 115.617 65.9791C113.335 65.9456 111.053 65.8952 108.771 65.8281C103.939 65.761 99.1061 65.6939 94.2738 65.6268C89.5085 65.5597 84.76 65.5093 80.0283 65.4758C75.1959 65.4254 70.3132 65.2744 65.5312 65.5261C65.3802 65.5764 65.2291 65.5764 65.1285 65.6268C65.0949 65.6268 65.0781 65.6268 65.0781 65.6268C65.1117 77.6406 65.1117 89.6712 65.0781 101.719C65.2291 101.87 65.4808 102.021 65.7829 102.021C70.4139 102.524 75.2463 102.373 79.8773 102.373C84.76 102.423 89.5924 102.423 94.4248 102.423C99.19 102.457 103.955 102.474 108.721 102.474C111.103 102.474 113.486 102.474 115.868 102.474C118.285 102.474 120.852 102.625 123.167 102.373C123.268 102.373 123.318 102.373 123.369 102.323C123.57 102.323 123.755 102.272 123.922 102.172C124.023 96.5842 124.073 90.9968 124.023 85.4597C123.973 81.181 124.023 76.9527 124.124 72.7243Z" fill="#D66EC0"/>
<path d="M75.8051 85.6611C75.5367 85.6611 75.2514 85.6611 74.9494 85.6611C74.9158 85.6611 74.8823 85.6779 74.8487 85.7115C74.8152 85.745 74.7816 85.8121 74.748 85.9128C74.6977 86.3659 74.748 86.8692 74.6977 87.3223C74.6977 87.7585 74.6977 88.2116 74.6977 88.6814C74.6977 89.621 74.6809 90.5774 74.6474 91.5506C74.6474 92.4902 74.6474 93.4131 74.6474 94.3192C74.6474 95.2756 74.597 96.232 74.6474 97.1884C74.6474 97.2219 74.6474 97.2555 74.6474 97.2891C76.6273 97.2891 78.5905 97.2891 80.5368 97.2891C80.5704 97.2555 80.5872 97.2051 80.5872 97.138C80.6878 96.232 80.6375 95.2755 80.6375 94.3695C80.6375 93.3963 80.6375 92.4399 80.6375 91.5003C80.6711 90.5606 80.6878 89.621 80.6878 88.6814C80.6878 88.2116 80.6878 87.7417 80.6878 87.2719C80.6878 86.7686 80.6879 86.2652 80.6375 85.8121C80.6375 85.745 80.6375 85.6947 80.6375 85.6611C79.7314 85.6611 78.8254 85.6611 77.9193 85.6611C77.2146 85.6611 76.5099 85.6611 75.8051 85.6611Z" fill="white"/>
<path d="M86.8175 78.6643C86.549 78.6643 86.2638 78.6643 85.9617 78.6643C85.9282 78.6643 85.9114 78.6979 85.9114 78.765C85.8443 78.7985 85.8107 78.8992 85.8107 79.067C85.7604 79.7717 85.7604 80.5771 85.7604 81.3322C85.7268 82.0705 85.71 82.792 85.71 83.4967C85.71 85.0068 85.6933 86.5337 85.6597 88.0774C85.6597 89.5539 85.6429 91.0473 85.6094 92.5574C85.6094 94.0675 85.6094 95.628 85.6094 97.1381C85.6094 97.1716 85.6262 97.222 85.6597 97.2891C87.6061 97.2556 89.5692 97.2388 91.5492 97.2388C91.5827 97.2052 91.5995 97.1381 91.5995 97.0374C91.6498 95.5776 91.6499 94.0675 91.6499 92.5574C91.6499 91.0473 91.6499 89.5204 91.6499 87.9767C91.6834 86.4666 91.7002 84.9733 91.7002 83.4967C91.7002 82.7249 91.7002 81.9698 91.7002 81.2315C91.7002 80.4765 91.7505 79.6711 91.7002 78.916C91.7002 78.8824 91.7002 78.8657 91.7002 78.8657C91.6666 78.7985 91.6499 78.7482 91.6499 78.7146C90.7438 78.6811 89.8377 78.6643 88.9316 78.6643C88.2269 78.6979 87.5222 78.6979 86.8175 78.6643Z" fill="white"/>
<path d="M97.9058 74.2344C97.6038 74.2679 97.3018 74.2847 96.9997 74.2847C96.9662 74.2847 96.9494 74.3183 96.9494 74.3854C96.8823 74.4189 96.8487 74.5364 96.8487 74.7377C96.7984 75.6438 96.7984 76.6506 96.7984 77.5566C96.7648 78.4627 96.7481 79.352 96.7481 80.2245C96.7145 82.1038 96.6977 83.9998 96.6977 85.9126C96.6642 87.7583 96.6474 89.604 96.6474 91.4497C96.6474 93.3122 96.597 95.225 96.6474 97.0875C96.6474 97.1546 96.6474 97.205 96.6474 97.2385C96.6474 97.2721 96.6474 97.2889 96.6474 97.2889C98.6273 97.2553 100.59 97.2385 102.537 97.2385C102.57 97.1714 102.587 97.0707 102.587 96.9365C102.688 95.1244 102.688 93.2619 102.688 91.4497C102.688 89.5705 102.688 87.6744 102.688 85.7616C102.721 83.9159 102.738 82.0702 102.738 80.2245C102.738 79.2849 102.738 78.3453 102.738 77.4056C102.738 76.4996 102.789 75.4928 102.738 74.5867C102.738 74.5532 102.738 74.5196 102.738 74.4861C102.738 74.4189 102.721 74.3518 102.688 74.2847C101.782 74.2511 100.876 74.2511 99.9696 74.2847C99.2649 74.2847 98.5602 74.2847 97.9058 74.2344Z" fill="#FFD075"/>
<path d="M108.821 81.2312C108.552 81.2648 108.267 81.2815 107.965 81.2815C107.931 81.2815 107.914 81.2983 107.914 81.3319C107.847 81.3654 107.814 81.4493 107.814 81.5836C107.713 82.2379 107.763 82.8923 107.763 83.5467C107.73 84.1843 107.713 84.8051 107.713 85.4092C107.713 86.718 107.696 88.0267 107.663 89.3355C107.663 90.6443 107.663 91.9363 107.663 93.2115C107.612 94.5202 107.612 95.829 107.663 97.1378C107.663 97.1713 107.663 97.2049 107.663 97.2385C107.663 97.2385 107.663 97.2552 107.663 97.2888C109.609 97.2552 111.572 97.2385 113.552 97.2385C113.586 97.2049 113.603 97.1378 113.603 97.0371C113.653 95.7787 113.653 94.4699 113.653 93.2115C113.653 91.9027 113.67 90.5939 113.703 89.2852C113.703 87.9764 113.703 86.6844 113.703 85.4092C113.703 84.7716 113.703 84.1172 113.703 83.446C113.703 82.7917 113.703 82.1373 113.703 81.4829C113.703 81.4829 113.703 81.4661 113.703 81.4325C113.67 81.3654 113.653 81.3151 113.653 81.2815C112.747 81.248 111.841 81.248 110.935 81.2815C110.23 81.2815 109.525 81.2648 108.821 81.2312Z" fill="white"/>
<path d="M456.653 274.929C456.619 272.379 456.586 269.845 456.552 267.328C456.552 267.026 456.451 266.825 456.351 266.624C456.2 266.221 455.898 265.869 455.344 265.818C452.928 265.416 450.26 265.617 447.793 265.567C445.411 265.567 443.045 265.583 440.696 265.617C435.662 265.617 430.628 265.634 425.595 265.667C420.628 265.734 415.678 265.801 410.745 265.869C405.711 265.919 400.627 265.869 395.644 266.372C395.493 266.372 395.342 266.422 395.191 266.473C395.191 283.587 395.191 300.752 395.141 317.867C395.292 318.119 395.493 318.27 395.845 318.32C400.678 318.874 405.661 318.521 410.544 318.421C415.578 318.32 420.611 318.219 425.695 318.068C430.662 317.968 435.629 317.867 440.595 317.766C443.079 317.699 445.545 317.632 447.995 317.565C450.512 317.515 453.18 317.666 455.596 317.263C455.696 317.213 455.747 317.213 455.797 317.162C456.032 317.129 456.217 317.045 456.351 316.911C456.502 308.957 456.552 301.004 456.502 293.101C456.451 287.01 456.552 280.97 456.653 274.929Z" fill="#FFD075"/>
<path d="M199.481 123.062C199.447 121.283 199.43 119.504 199.43 117.726C199.43 117.525 199.33 117.374 199.229 117.223C199.128 116.971 198.877 116.719 198.424 116.618C196.46 116.316 194.346 116.417 192.333 116.367C190.42 116.3 188.507 116.249 186.594 116.216C182.534 116.149 178.473 116.082 174.413 116.014C170.419 115.981 166.443 115.947 162.483 115.914C158.405 115.863 154.328 115.712 150.301 115.964C150.15 115.964 150.049 116.014 149.949 116.014C149.915 116.014 149.898 116.014 149.898 116.014C149.932 128.062 149.932 140.109 149.898 152.157C149.999 152.308 150.2 152.408 150.502 152.459C154.378 152.912 158.405 152.761 162.332 152.811C166.409 152.811 170.486 152.811 174.564 152.811C178.557 152.811 182.551 152.828 186.544 152.861C188.557 152.861 190.554 152.861 192.534 152.861C194.548 152.861 196.712 153.012 198.675 152.761C198.726 152.761 198.776 152.71 198.826 152.71C198.994 152.677 199.145 152.626 199.279 152.559C199.38 146.972 199.43 141.384 199.38 135.847C199.33 131.569 199.43 127.29 199.481 123.062Z" fill="#EBA7DC"/>
<path d="M138.975 148.532C138.975 147.526 138.959 146.536 138.925 145.562C138.925 145.428 138.892 145.327 138.824 145.26C138.774 145.109 138.623 144.958 138.371 144.958C137.314 144.757 136.106 144.807 134.999 144.757C133.959 144.757 132.901 144.74 131.828 144.707C129.546 144.673 127.28 144.64 125.032 144.606C122.817 144.572 120.602 144.539 118.388 144.505C116.122 144.505 113.857 144.405 111.642 144.556C111.575 144.556 111.508 144.572 111.441 144.606C111.441 144.606 111.424 144.606 111.391 144.606C111.424 151.284 111.424 157.979 111.391 164.691C111.491 164.791 111.592 164.842 111.743 164.842C113.907 165.093 116.122 165.043 118.287 165.043C120.569 165.043 122.851 165.043 125.133 165.043C127.348 165.076 129.562 165.093 131.777 165.093C132.885 165.093 134.009 165.093 135.15 165.093C136.257 165.093 137.415 165.144 138.522 165.043C138.556 165.009 138.59 164.993 138.623 164.993C138.724 164.993 138.808 164.959 138.875 164.892C138.925 161.821 138.925 158.7 138.925 155.63C138.925 153.214 138.925 150.848 138.975 148.532Z" fill="#BFCAD4"/>
<path d="M73.1842 361.359C72.3284 361.761 63.8214 364.077 63.5697 365.033C63.2677 366.04 64.2241 371.678 66.59 375.453C68.9055 379.279 70.768 380.134 72.7311 382.299C74.6439 384.413 76.6071 386.88 77.5635 388.642C78.5702 390.353 79.8287 392.316 81.0871 392.115C82.3455 391.913 85.8692 388.843 85.3658 387.182C84.9127 385.521 82.9496 382.098 82.2449 379.581C81.5905 377.014 80.6844 373.54 79.9294 371.577C79.124 369.614 77.3118 365.637 76.2044 364.178C75.1473 362.718 73.5869 361.157 73.1842 361.359Z" fill="#A1B0BA"/>
<path d="M83.1964 381.292C82.0386 381.896 81.6359 381.997 81.0319 383.658C80.3775 385.269 80.0252 388.037 80.0252 390.051C80.0252 392.064 79.9245 394.581 80.3775 395.034C80.8306 395.487 81.0822 395.487 82.0386 395.588C82.9447 395.689 86.6697 396.242 90.3443 395.89C93.9686 395.487 99.9084 394.883 102.627 395.034C105.395 395.236 113.248 396.041 115.06 396.142C116.872 396.242 119.993 396.343 120.698 395.789C121.453 395.236 121.654 394.481 121.654 394.481C121.654 394.481 122.359 392.115 121 390.101C119.641 388.138 119.892 386.829 116.419 386.024C112.946 385.168 111.788 384.916 109.221 384.463C106.654 384.01 98.4486 379.782 96.6365 379.279C94.774 378.725 83.1964 381.292 83.1964 381.292Z" fill="#BFCAD4"/>
<path d="M77.721 371.527C75.3048 369.564 74.7511 366.946 73.1403 365.134C71.5295 363.322 71.3281 361.963 71.3281 360.956C71.3281 359.949 79.1304 351.946 81.9493 347.315C84.7178 342.734 98.762 314.746 98.762 310.518C98.762 306.34 91.1107 248.503 91.9161 247.898C92.7215 247.294 98.7619 247.294 100.926 247.093C103.141 246.892 111.346 245.482 111.95 247.093C112.554 248.704 116.33 276.289 117.336 280.92C118.343 285.5 121.766 310.115 121.766 311.323C121.766 312.532 121.565 312.934 120.759 314.948C119.954 316.911 117.739 318.924 115.122 322.549C112.554 326.123 110.541 329.747 107.722 332.717C104.953 335.737 101.732 340.922 97.3525 346.711C92.9228 352.55 80.5398 369.564 80.5398 369.564C80.5398 369.564 78.2747 371.98 77.721 371.527Z" fill="#313B59"/>
<path d="M82.3445 383.557C81.2371 383.457 81.7404 381.141 81.5391 379.732C81.5391 379.732 82.1431 375.151 82.1431 366.946C82.1431 358.741 81.7404 345.351 81.5391 338.908C81.3377 332.515 82.1431 318.32 81.1364 313.74C80.1296 309.109 73.5355 284.896 72.3274 279.108C71.1193 273.319 70.3139 264.107 70.5152 258.52C70.7166 252.882 71.7233 248.1 72.126 247.496C72.5287 246.892 80.331 247.294 83.1499 247.294C85.9184 247.294 98.7544 247.093 99.5095 247.697C100.315 248.301 100.919 267.933 101.12 271.305C101.322 274.728 102.731 303.722 102.731 305.937C102.731 308.102 102.53 310.921 102.53 313.941C102.53 316.911 99.1068 348.12 99.1068 351.744C99.1068 355.318 98.1504 379.329 97.7477 380.336C97.345 381.343 89.3414 384.161 82.3445 383.557Z" fill="#313B59"/>
<path d="M103.382 312.532C103.584 308.454 103.181 304.276 103.08 300.199C102.979 295.87 102.845 291.524 102.677 287.162C102.543 282.9 102.375 278.638 102.174 274.376C101.973 269.946 101.872 265.517 101.419 261.087C101.369 260.634 100.614 260.584 100.664 261.087C100.714 265.416 101.067 269.795 101.268 274.124C101.469 278.487 101.654 282.833 101.822 287.162C101.99 291.424 102.124 295.685 102.224 299.947C102.375 304.125 102.577 312.632 102.577 312.733C101.671 321.693 100.714 330.653 100.211 339.663C100.211 339.865 100.463 339.865 100.513 339.714C101.721 330.754 103.483 312.582 103.382 312.532Z" fill="#7991D1"/>
<path d="M82.2403 357.382C82.2068 356.04 82.2068 354.681 82.2403 353.305C82.2403 351.895 82.3913 350.385 82.2907 349.026C82.2403 348.724 81.7873 348.623 81.7873 348.925C81.5859 350.234 81.6866 351.643 81.6363 352.952C81.6027 354.395 81.5859 355.821 81.5859 357.231C81.5859 360.1 81.5859 362.969 81.7873 365.788C81.8376 366.191 82.3913 366.191 82.3913 365.788C82.3913 363.02 82.2403 360.201 82.2403 357.382Z" fill="#7991D1"/>
<path d="M153.276 156.083C153.276 156.083 154.635 151.452 155.239 149.187C155.843 146.872 156.145 145.764 157.152 145.261C158.159 144.757 159.367 144.657 161.481 144.657C163.545 144.657 164.854 144.757 164.854 144.757C164.854 144.757 172.555 138.767 173.26 138.767C173.965 138.767 174.368 138.868 174.368 139.673C174.368 140.479 167.572 146.469 167.471 147.174C167.371 147.878 168.277 153.667 167.572 154.573C166.867 155.479 162.639 157.694 161.733 158.399C160.877 159.053 159.87 160.463 159.568 160.463C159.266 160.463 155.441 159.053 154.434 158.198C153.478 157.291 153.176 156.989 153.276 156.083Z" fill="white"/>
<path d="M97.5488 170.278C96.9448 169.221 97.3475 168.466 97.9515 167.46C98.5556 166.453 98.9079 165.496 100.921 165.698C102.935 165.899 103.539 166.1 106.358 167.258C109.126 168.466 133.54 180.296 134.748 180.497C135.956 180.698 151.762 156.285 152.567 155.882C153.373 155.479 152.97 155.077 154.329 155.681C155.739 156.285 159.967 159.456 159.967 160.664C159.967 161.872 155.336 170.882 153.574 174.104C151.762 177.275 141.745 195.095 138.322 195.497C134.949 195.9 112.952 191.068 110.133 188.903C107.314 186.688 98.7569 172.493 97.5488 170.278Z" fill="#B345B5"/>
<path d="M72.1279 247.496C70.7688 247.143 71.7252 246.489 71.5239 244.878C71.3225 243.318 71.1212 243.519 71.5239 238.284C71.9266 233.099 72.5306 224.693 72.3293 221.27C72.1279 217.897 71.3225 213.266 71.1212 208.082C70.9198 202.897 67.8996 189.859 67.1445 186.084C66.3391 182.259 66.1378 173.298 66.7418 170.681C67.3459 168.063 71.1212 165.094 74.5441 163.684C77.9167 162.275 88.1352 161.872 90.5514 162.073C92.9172 162.275 94.528 162.476 97.951 163.684C101.324 164.892 101.726 164.892 103.538 166.855C105.351 168.869 107.716 174.456 109.529 178.685C111.341 182.863 114.915 193.081 115.317 194.692C115.72 196.303 116.123 197.108 115.519 198.87C114.915 200.682 110.938 207.679 108.924 213.266C106.911 218.904 106.71 219.307 107.515 224.693C108.32 230.079 110.938 240.499 111.542 242.512C112.146 244.526 112.951 246.69 111.945 247.093C110.938 247.496 108.119 247.496 108.119 247.496C108.119 247.496 102.532 246.892 96.5415 247.898C90.5514 248.905 75.2992 248.301 72.1279 247.496Z" fill="#B345B5"/>
<path d="M95.2823 206.974C93.2688 208.132 91.4064 209.441 89.3425 210.498C88.2687 211.068 87.178 211.572 86.0706 212.008C85.0135 212.411 83.9564 212.713 82.9497 213.267C82.7987 213.317 82.8994 213.619 83.0504 213.569C84.2081 213.468 85.3156 213.065 86.3726 212.662C87.4801 212.226 88.5539 211.74 89.5942 211.203C91.7084 210.146 93.8226 208.887 95.4334 207.176C95.534 207.075 95.4334 206.924 95.2823 206.974Z" fill="#D66EC0"/>
<path d="M71.5303 259.023C71.5303 259.023 70.5236 266.725 70.6243 267.933C70.7249 269.091 70.7249 269.393 71.329 270.802C71.933 272.212 74.8526 278.202 75.809 278.806C76.8158 279.41 78.5272 279.611 79.9367 279.611C81.3461 279.611 83.0576 278.906 83.2086 277.799C83.4099 276.692 82.5542 273.118 82.1515 271.306C81.7488 269.493 80.7421 266.02 81.0441 266.02C81.3461 266.02 82.8562 268.99 82.9569 269.493C83.0576 269.997 83.3093 271.809 83.712 272.514C84.1147 273.218 84.618 273.42 85.1214 273.218C85.6248 273.017 85.8261 270.198 85.8261 268.789C85.8261 267.43 86.1282 266.121 85.1214 264.711C84.1147 263.302 80.44 256.506 79.9367 256.003C79.4333 255.5 74.6513 257.11 73.5438 257.714C72.4364 258.318 71.5303 258.016 71.5303 259.023Z" fill="white"/>
<path d="M70.3182 167.258C68.8081 167.812 67.1469 168.265 66.9456 169.473C66.7442 170.681 61.7105 187.695 60.5024 192.678C59.3446 197.662 57.9352 219.709 58.1365 223.082C58.3379 226.505 69.5128 257.311 70.5195 258.52C71.5263 259.728 73.1371 259.325 75.3016 258.721C77.5164 258.117 81.2414 257.412 80.3353 254.895C80.0333 254.039 76.9124 238.888 76.5097 236.723C76.107 234.509 73.7411 223.485 73.5398 221.119C73.3384 218.703 76.9124 199.675 77.7178 193.081C78.5232 186.487 78.1205 177.879 77.3151 174.104C76.5097 170.278 72.533 166.453 70.3182 167.258Z" fill="#B345B5"/>
<path d="M76.3066 233.804C75.4509 229.576 74.8972 225.247 73.7898 221.119C73.8233 221.052 73.8401 220.985 73.8401 220.918C74.5952 216.589 75.2496 212.26 75.9039 207.931C76.6087 203.753 77.5147 199.575 77.8671 195.346C77.9174 194.893 77.2127 194.793 77.112 195.246C76.1556 199.373 75.7026 203.753 75.0482 207.981C74.3435 212.209 73.6388 216.438 72.9844 220.716C72.9844 220.817 73.0012 220.901 73.0347 220.968C73.5884 225.196 74.6455 229.374 75.5012 233.502C76.357 237.781 76.9107 242.21 78.2195 246.338C78.2698 246.489 78.5215 246.489 78.5215 246.338C78.1691 242.11 77.112 237.932 76.3066 233.804Z" fill="#D66EC0"/>
<path d="M78.5241 182.661C78.4738 182.108 78.4738 181.554 78.3731 181C78.3228 180.749 78.2221 180.346 77.8698 180.346C77.1147 180.346 77.5677 182.007 77.6181 182.41C77.7187 183.584 77.7859 184.776 77.8194 185.984C77.8697 187.141 77.8194 188.299 77.7691 189.507C77.7691 190.044 77.7523 190.598 77.7187 191.168C77.7187 191.622 77.5677 192.175 77.8194 192.628C77.8194 192.679 77.9201 192.729 77.9704 192.628C78.3228 192.326 78.3228 191.823 78.3731 191.37C78.4402 190.833 78.4906 190.296 78.5241 189.759C78.6751 188.551 78.6751 187.393 78.6751 186.185C78.6751 185.011 78.6248 183.836 78.5241 182.661Z" fill="#D66EC0"/>
<path d="M110.19 178.886C109.485 177.275 108.747 175.681 107.975 174.104C107.22 172.493 106.465 170.731 105.458 169.322C105.257 169.02 104.703 169.171 104.854 169.574C105.458 171.134 106.414 172.644 107.169 174.154C107.908 175.665 108.612 177.191 109.284 178.735C110.743 182.057 112.052 185.38 113.361 188.752C113.462 189.054 113.915 188.903 113.814 188.601C112.807 185.279 111.549 182.057 110.19 178.886Z" fill="#D66EC0"/>
<path d="M91.3038 159.355C91.3038 159.355 90.7501 161.369 90.8508 162.577C90.9514 163.785 92.0085 165.899 92.1092 167.057C92.2099 168.265 92.3105 170.178 89.7433 171.688C87.1258 173.198 80.9343 173.299 78.1154 170.48C75.2965 167.661 78.0147 159.254 78.0147 159.254C78.0147 159.254 82.4444 154.573 85.817 154.976C89.24 155.378 91.3038 159.355 91.3038 159.355Z" fill="white"/>
<path d="M101.428 131.871C101.83 132.978 102.736 135.747 102.535 136.955C102.334 138.163 101.226 140.68 101.629 141.888C102.032 143.046 104.347 145.965 104.146 147.375C103.944 148.784 102.535 152.358 100.824 155.882C99.1121 159.355 96.3436 162.577 94.8334 162.375C93.3233 162.174 88.3399 159.959 88.3399 159.959C86.2258 159.154 83.3062 157.996 82.5511 156.083C81.7457 154.17 82.2491 141.586 82.2491 141.586C82.2491 141.586 85.4204 133.683 87.6352 132.072C89.85 130.462 89.85 129.253 93.726 129.656C97.6523 130.059 101.428 131.871 101.428 131.871Z" fill="white"/>
<path d="M88.4379 132.777C89.1426 133.331 90.0487 135.445 90.3507 135.999C90.6024 136.552 90.6024 136.653 91.2568 136.653C91.9112 136.653 96.4415 135.445 98.2034 134.942C99.9148 134.388 103.287 134.539 103.388 133.884C103.539 133.18 103.791 133.331 103.539 132.374C103.287 131.468 102.985 125.73 101.123 122.911C99.2604 120.142 99.4114 119.337 95.1328 117.978C90.8541 116.669 87.7835 117.172 87.7835 117.172C87.7835 117.172 81.139 115.612 77.112 116.417C73.1354 117.172 67.2459 121.199 64.729 126.284C62.2122 131.317 60.8531 136.25 60.8531 138.666C60.8531 141.083 59.8967 143.6 59.8967 143.6C59.8967 143.6 53.2521 155.479 51.5407 160.261C49.7789 165.094 48.4701 182.963 49.1245 187.343C49.7789 191.772 51.2386 201.487 53.1011 204.961C54.9636 208.434 57.5308 214.978 58.0342 214.424C58.5879 213.87 58.7389 214.021 58.7389 213.115C58.7389 212.159 60.8531 200.934 64.4774 196.001C68.0513 191.068 73.2361 186.94 74.4441 185.631C75.6522 184.272 76.8603 183.819 77.6154 182.41C78.3705 181 79.1255 179.893 79.3772 175.06C79.6792 170.278 80.7363 164.792 81.6424 162.677C82.5988 160.563 83.9076 155.479 84.2096 152.811C84.4613 150.143 85.2667 143.197 85.2667 143.197C85.2667 143.197 85.77 138.666 86.4748 136.653C87.1291 134.69 88.4379 132.777 88.4379 132.777Z" fill="#4C5980"/>
<path d="M87.2795 132.928C87.7829 135.042 86.3231 138.918 86.1721 140.932C86.0714 142.945 87.3802 152.157 87.7829 153.868C88.1856 155.63 88.3366 155.983 87.7829 155.479C87.2795 154.925 86.1721 152.56 85.4171 149.992C84.6117 147.476 84.0579 145.613 83.8063 143.046C83.5042 140.529 82.3465 140.277 83.9069 136.653C85.5177 133.079 86.9775 131.871 87.2795 132.928Z" fill="#4C5980"/>
<path d="M52.5988 182.762C52.5988 179.943 52.8002 177.124 53.2029 174.305C53.4042 172.862 53.6559 171.453 53.9579 170.077C54.2096 168.819 54.6626 167.56 54.7633 166.251C54.7633 166.05 54.411 165.949 54.3103 166.151C53.1022 168.517 52.8002 171.688 52.4478 174.356C52.0451 177.141 51.8438 179.943 51.8438 182.762C51.8438 188.501 52.5485 194.34 54.411 199.776C54.5116 200.028 54.8137 199.927 54.7633 199.726C53.5049 194.138 52.5988 188.501 52.5988 182.762Z" fill="#313B59"/>
<path d="M56.8708 174.809C56.4681 175.413 56.4178 176.168 56.3171 176.873C56.2164 177.544 56.1325 178.248 56.0654 178.987C55.9144 180.396 55.864 181.856 56.1661 183.265C56.2164 183.416 56.4178 183.366 56.4681 183.215C56.6191 181.856 56.5688 180.447 56.7198 179.037C56.7869 178.332 56.8876 177.644 57.0218 176.973C57.1225 176.319 57.4245 175.614 57.3238 174.96C57.3238 174.708 57.0218 174.607 56.8708 174.809Z" fill="#313B59"/>
<path d="M80.8364 149.841C80.0813 152.056 79.6283 154.472 79.0746 156.738C78.5376 159.053 77.9839 161.352 77.4134 163.634C76.306 168.265 75.2321 172.896 74.1918 177.527C74.1415 177.779 74.5442 177.879 74.5945 177.628C75.7691 173.03 76.9101 168.433 78.0175 163.835C78.588 161.52 79.1417 159.221 79.6786 156.939C80.2323 154.623 80.937 152.308 81.2894 149.992C81.3397 149.69 80.937 149.59 80.8364 149.841Z" fill="#313B59"/>
<path d="M421.368 379.53C421.872 378.372 420.563 374.597 419.758 374.496C418.952 374.345 406.015 377.416 405.915 378.724C405.764 380.084 404.807 380.235 407.475 380.486C410.143 380.738 420.966 380.486 421.368 379.53Z" fill="white"/>
<path d="M405.11 379.127C404.003 379.48 406.016 379.681 402.694 381.141C399.372 382.6 393.633 383.406 390.16 384.614C386.687 385.822 384.271 387.685 383.465 389.698C382.71 391.661 382.006 393.02 383.214 393.826C384.422 394.631 389.355 395.034 393.633 395.034C397.912 395.034 402.946 393.826 406.57 393.826C410.144 393.826 416.587 393.524 418.45 393.675C420.312 393.826 422.577 394.228 422.98 393.272C423.383 392.366 423.232 387.836 422.98 386.074C422.678 384.362 422.829 379.127 421.369 379.027C419.91 378.876 419.91 379.127 415.228 379.278C410.547 379.429 405.513 379.027 405.11 379.127Z" fill="#A1B0BA"/>
<path d="M357.994 377.013C356.836 378.07 357.994 378.725 355.728 380.235C353.463 381.695 344.252 384.362 341.08 385.571C337.859 386.728 335.996 388.993 335.09 390.755C334.134 392.467 333.882 393.927 334.536 394.48C335.191 395.034 341.231 395.94 346.013 395.839C350.795 395.688 358.698 394.883 361.618 394.732C364.537 394.631 371.635 394.883 373.095 394.732C374.555 394.631 374.806 394.48 375.36 393.927C375.863 393.423 376.669 392.769 376.165 389.799C375.612 386.879 374.957 380.235 373.749 379.127C372.541 378.07 362.272 377.567 360.813 377.416C359.353 377.265 357.994 377.013 357.994 377.013Z" fill="#A1B0BA"/>
<path d="M357.493 225.749C356.234 227.008 355.076 226.555 354.825 228.719C354.573 230.833 355.328 295.366 355.328 299.645C355.328 303.923 355.63 376.208 356.939 377.265C358.298 378.322 363.886 378.322 366 378.624C368.164 378.875 372.695 380.738 373.752 379.127C374.809 377.567 375.262 370.268 375.362 366.593C375.463 362.919 375.866 305.232 376.168 301.809C376.42 298.336 378.836 292.195 380.144 284.443C381.504 276.691 388.45 246.589 389.205 241.253C390.011 235.918 386.537 228.166 386.537 228.166C386.537 228.166 373.5 224.944 370.278 224.692C367.107 224.441 358.801 224.441 357.493 225.749Z" fill="#313B59"/>
<path d="M375.866 227.612C374.809 228.165 373.5 230.028 373.5 234.307C373.5 238.585 380.698 299.896 381.202 304.175C381.755 308.453 400.984 378.624 403.904 379.429C406.823 380.234 420.716 377.013 420.968 374.597C421.22 372.231 415.884 353.002 415.079 348.472C414.324 343.941 403.652 304.98 403.35 299.644C403.098 294.309 404.155 253.787 404.407 248.149C404.709 242.562 408.182 231.89 403.098 228.971C398.014 226.051 390.011 226.051 384.977 226.051C379.893 226.051 375.866 227.612 375.866 227.612Z" fill="#313B59"/>
<path d="M374.499 241.757C374.449 241.455 373.945 241.455 373.996 241.757C375.355 255.247 376.513 268.838 378.073 282.329C378.123 282.731 378.778 282.731 378.727 282.329C377.519 268.788 375.909 255.298 374.499 241.757Z" fill="#7991D1"/>
<path d="M348.83 181.603C347.621 181.603 347.722 181.1 346.665 181.905C345.608 182.66 346.011 182.258 345.205 183.365C344.4 184.422 340.272 191.62 338.561 192.929C336.799 194.288 327.336 197.51 324.265 198.567C321.194 199.624 303.878 205.212 302.67 205.363C301.462 205.463 299.6 204.809 297.183 204.96C294.767 205.111 292.099 205.765 290.237 205.765C288.374 205.765 286.915 205.614 286.764 206.671C286.663 207.779 286.411 208.131 287.569 208.282C288.777 208.433 292.653 209.088 292.653 209.088C292.653 209.088 281.982 209.641 281.327 210.145C280.673 210.698 279.314 212.309 279.465 213.467C279.565 214.675 281.831 217.242 283.592 217.746C285.304 218.299 289.18 218.299 293.207 217.343C297.184 216.437 303.325 212.712 304.684 212.41C305.993 212.158 346.162 204.708 346.665 204.406C347.219 204.154 347.47 204.305 348.024 203.752C348.528 203.198 348.83 202.795 349.987 201.738C351.195 200.681 356.279 194.439 356.682 193.08C357.085 191.771 356.128 189.506 356.128 189.506C356.128 189.506 352.404 184.271 351.095 183.466C349.736 182.66 349.987 182.258 349.585 182.006L348.83 181.603Z" fill="white"/>
<path d="M365.094 149.488C363.081 150.646 362.527 152.257 360.815 154.27C359.104 156.284 344.808 182.258 344.657 183.214C344.557 184.171 352.56 194.137 357.997 194.439C363.483 194.691 362.426 172.794 363.332 168.918C364.289 165.093 365.497 161.066 366 157.341C366.554 153.616 366.302 150.294 366.151 149.74C366 149.186 365.094 149.488 365.094 149.488Z" fill="#EB9921"/>
<path d="M370.628 146.569C367.305 148.028 365.191 148.381 363.077 151.049C360.963 153.716 358.798 158.297 358.295 161.217C357.741 164.136 358.144 187.593 358.144 191.62C358.144 195.597 353.614 226.555 354.57 227.511C355.476 228.417 358.295 228.971 358.295 228.971C358.295 228.971 378.027 230.179 381.752 230.028C385.477 229.877 396.954 228.971 400.679 228.014C404.404 227.108 406.166 227.209 407.072 224.44C408.028 221.621 407.626 215.229 407.072 211.101C406.569 206.973 404.152 194.943 404.303 191.369C404.404 187.744 404.807 168.818 404.807 164.791C404.807 160.814 405.36 150.293 402.29 148.28C399.219 146.267 390.712 144.001 384.672 143.85C378.682 143.75 372.994 145.511 370.628 146.569Z" fill="#EB9921"/>
<path d="M372.998 204.507C372.595 205.212 371.639 205.665 371.84 206.873C372.041 208.081 373.602 210.296 375.213 212.712C376.823 215.078 391.019 235.313 392.831 237.075C394.643 238.887 402.445 248.502 403.653 249.307C404.811 250.112 412.412 244.525 415.633 242.713C418.855 240.901 431.238 232.494 432.043 231.488C432.849 230.481 433.856 231.89 433.252 229.877C432.647 227.914 422.63 213.87 420.818 212.108C419.056 210.296 408.033 194.892 405.818 191.671C403.653 188.5 401.036 185.681 399.828 185.882C398.619 186.083 387.042 194.691 384.223 196.503C381.404 198.265 373.602 203.5 372.998 204.507Z" fill="#4C5980"/>
<path d="M404.152 180.798C404.152 180.798 408.179 189.103 409.085 190.664C410.042 192.275 410.696 193.634 410.847 194.439C410.948 195.194 411.099 196.151 410.545 198.567C410.042 200.933 405.361 217.645 404.404 219.507C403.498 221.37 401.736 224.692 400.579 225.749C399.37 226.806 391.618 229.877 390.813 229.776C390.008 229.625 389.756 230.682 390.008 231.236C390.31 231.739 390.964 232.142 392.273 232.041C393.632 231.89 396.703 231.638 396.703 231.638C396.703 231.638 395.092 233.098 394.035 233.904C392.978 234.709 391.618 235.363 391.367 236.169C391.115 236.974 391.769 238.988 392.273 240.045C392.827 241.102 393.783 241.907 395.746 243.115C397.76 244.323 399.068 244.827 399.471 244.827C399.874 244.827 403.347 240.145 404.958 238.585C406.569 236.974 406.82 236.42 407.374 234.306C407.877 232.142 407.877 228.568 408.028 227.36C408.179 226.152 416.032 212.007 418.146 208.534C420.311 205.111 424.287 195.748 424.287 193.734C424.287 191.771 418.549 175.21 417.089 172.945C415.629 170.68 409.237 174.002 407.223 175.21C405.21 176.418 404.404 179.59 404.404 179.59C404.404 179.59 403.901 180.143 404.152 180.798Z" fill="white"/>
<path d="M396.699 170.529C397.856 172.492 403.494 182.157 404.4 182.157C405.357 182.157 416.582 176.016 418.948 174.154C421.364 172.291 422.824 170.831 422.421 169.875C422.018 168.918 422.824 168.818 421.112 167.056C419.351 165.345 405.91 149.488 401.632 148.28C397.353 147.072 392.974 154.421 392.269 157.744C391.615 161.066 394.132 166.251 396.699 170.529Z" fill="#EB9921"/>
<path d="M402.891 179.691C397.404 173.348 394.031 165.798 392.269 157.593C392.219 157.291 391.766 157.442 391.816 157.744C393.024 165.999 397.001 173.902 402.438 180.144C402.689 180.496 403.142 180.043 402.891 179.691Z" fill="#FFD075"/>
<path d="M358.348 176.62C358.348 174.069 358.331 171.502 358.297 168.918C358.297 167.643 358.297 166.368 358.297 165.092C358.297 163.884 358.448 162.626 358.146 161.418C358.096 161.217 357.794 161.217 357.744 161.418C357.492 162.626 357.593 163.884 357.593 165.092C357.593 166.267 357.593 167.458 357.593 168.666C357.593 171.318 357.593 173.969 357.593 176.62C357.593 181.855 357.542 187.04 357.593 192.275C357.593 192.728 358.297 192.728 358.297 192.275C358.348 187.04 358.348 181.855 358.348 176.62Z" fill="#FFD075"/>
<path d="M384.675 143.85C378.685 143.75 372.997 145.511 370.631 146.569C369.675 146.971 368.819 147.324 368.014 147.676C367.51 149.186 366.906 152.005 369.121 154.471C372.141 157.894 377.225 158.448 383.417 155.68C388.803 153.213 393.434 147.626 394.239 145.26C391.068 144.505 387.595 143.951 384.675 143.85Z" fill="white"/>
<path d="M370.428 148.985C370.629 147.777 370.831 147.676 370.629 145.864C370.428 144.052 369.924 142.743 369.824 141.585C369.723 140.377 371.837 138.666 371.837 138.666C371.837 138.666 377.827 132.978 379.136 132.374C380.445 131.77 380.546 131.367 380.999 132.072C381.502 132.776 381.804 132.474 382.408 134.186C383.012 135.847 385.428 142.944 385.428 142.944C385.428 142.944 386.636 144.958 386.536 145.763C386.435 146.569 385.529 147.072 382.207 148.884C378.935 150.646 373.297 151.653 373.297 151.653C373.297 151.653 369.723 152.861 370.428 148.985Z" fill="white"/>
<path d="M358.913 116.971C357.856 118.179 357.503 118.481 358.309 121.753C359.114 125.075 360.222 126.988 360.02 129.152C359.819 131.367 359.819 134.085 360.222 135.646C360.624 137.257 365.406 143.649 367.118 143.951C368.829 144.253 376.329 140.78 378.343 138.867C380.356 136.955 382.823 130.662 383.226 129.756C383.628 128.85 383.528 120.947 382.521 118.481C381.514 115.964 380.155 114.655 376.732 113.749C373.309 112.843 366.816 113.548 363.947 114.353C361.027 115.158 359.517 116.266 358.913 116.971Z" fill="white"/>
<path d="M382.008 120.242C381.555 118.833 379.944 117.877 377.83 117.877C375.716 117.877 364.239 118.783 362.628 119.185C361.017 119.538 359.004 120.343 357.695 120.142C356.437 119.94 350.094 119.286 347.728 115.058C345.312 110.88 345.111 107.054 347.527 104.638C349.893 102.272 353.618 102.977 356.84 103.631C360.011 104.336 364.541 103.732 364.541 103.732C364.541 103.732 372.545 102.071 377.629 102.675C382.713 103.279 383.518 103.631 384.424 104.739C385.33 105.846 386.136 107.557 386.337 107.96C386.539 108.363 392.629 111.383 393.233 115.863C393.837 120.343 392.931 122.055 391.019 126.182C389.106 130.26 388.049 131.065 386.337 132.978C384.626 134.891 383.216 136.149 382.914 135.646C382.612 135.142 381.102 132.575 381.505 131.065C381.907 129.555 382.31 121.149 382.008 120.242Z" fill="#4C5980"/>
<path d="M383.265 122.76C383.567 122.558 383.92 122.357 384.322 122.407C384.977 122.508 385.53 123.313 385.581 124.119C385.681 124.974 385.48 125.78 385.178 126.535C384.272 128.8 382.812 130.763 381 131.971C381.252 131.82 381.252 129.756 381.302 129.404C381.403 128.464 381.47 127.508 381.503 126.535C381.554 125.78 381.453 125.025 381.856 124.37C382.208 123.716 382.711 123.162 383.265 122.76Z" fill="white"/>
<path d="M383.261 120.192C382.909 121.048 382.959 124.219 381.801 126.535C380.644 128.9 379.989 129.655 379.738 128.649C379.486 127.592 379.838 127.088 379.838 124.974C379.838 122.91 379.184 119.538 379.486 117.726C379.738 115.863 380.744 113.95 381.952 114.705C383.11 115.511 383.513 117.071 383.513 117.826C383.513 118.632 383.513 119.538 383.261 120.192Z" fill="#4C5980"/>
<path d="M380.55 105.946C378.939 105.493 376.926 105.695 375.265 105.745C373.318 105.745 371.372 105.795 369.425 105.896C365.751 106.097 362.026 106.399 358.402 107.104C358.2 107.155 358.251 107.457 358.452 107.457C362.177 107.205 365.902 106.852 369.627 106.752C371.506 106.685 373.385 106.668 375.265 106.701C376.926 106.701 378.889 107.004 380.55 106.651C380.902 106.601 380.852 106.047 380.55 105.946Z" fill="#313B59"/>
<path d="M375.968 108.463C375.414 108.413 374.911 108.463 374.357 108.514C374.088 108.514 373.82 108.514 373.551 108.514C373.3 108.564 373.048 108.615 372.746 108.665C372.595 108.715 372.595 109.017 372.746 109.068C373.048 109.118 373.3 109.168 373.551 109.168C373.82 109.202 374.088 109.219 374.357 109.219C374.911 109.219 375.414 109.269 375.968 109.269C376.119 109.219 376.27 109.118 376.32 108.967C376.354 108.9 376.354 108.833 376.32 108.766C376.27 108.564 376.119 108.463 375.968 108.463Z" fill="#313B59"/>
<path d="M151.116 346.005C150.462 345.552 154.137 341.022 155.747 338.857C157.358 336.643 158.415 334.478 159.774 334.277C161.184 334.075 197.829 334.327 203.417 334.327C209.004 334.377 276.859 333.22 280.835 333.22C284.862 333.27 307.263 332.767 308.471 332.817C309.628 332.817 315.568 343.841 314.763 344.646C313.957 345.452 313.555 344.848 310.786 345.603C307.967 346.408 241.321 346.962 236.539 346.962C231.757 346.911 168.734 347.113 164.707 346.911C160.731 346.71 151.922 346.609 151.116 346.005Z" fill="#7991D1"/>
<path d="M145.781 389.547C141.905 389.245 141.553 388.138 141.15 386.728C140.747 385.369 140.949 378.926 140.949 372.936C140.949 366.946 141.754 348.522 142.358 346.911C142.962 345.351 142.962 344.546 144.17 344.344C145.378 344.143 147.543 344.546 150.765 344.546C153.936 344.546 217.562 345.351 224.76 344.546C231.959 343.74 294.025 343.539 300.216 343.136C306.407 342.733 322.817 342.129 323.824 342.331C324.831 342.532 325.032 342.733 325.234 343.539C325.435 344.344 325.435 377.164 325.435 379.127C325.435 381.141 326.391 386.728 325.636 387.534C324.831 388.339 325.435 388.138 322.415 388.742C319.395 389.346 264.98 390.957 260.198 390.957C255.416 390.957 196.773 390.554 184.591 390.755C172.359 390.957 148.55 389.748 145.781 389.547Z" fill="#4C5980"/>
<path d="M281.591 382.55C262.916 383.054 244.241 383.406 225.515 383.406C206.74 383.406 187.964 383.255 169.188 382.903C163.953 382.802 158.718 382.651 153.483 382.601C149.305 382.5 145.076 382.349 140.898 382.349C140.898 382.752 140.898 383.154 140.898 383.557C144.523 383.758 148.097 383.859 151.671 384.01C156.302 384.211 160.933 384.312 165.564 384.413C174.926 384.648 184.272 384.815 193.602 384.916C212.377 385.118 231.204 384.967 249.979 384.664C260.517 384.53 271.054 384.295 281.591 383.96C282.497 383.96 282.548 382.5 281.591 382.55ZM325.536 381.141C324.378 381.342 323.17 381.544 322.012 381.695C318.891 382.064 315.753 382.349 312.599 382.55C309.679 382.718 306.743 382.819 303.79 382.852C302.347 382.886 300.904 382.903 299.461 382.903C298.001 382.903 296.491 382.752 295.082 383.104C294.83 383.154 294.83 383.557 295.082 383.607C297.749 384.413 300.971 384.111 303.74 384.06C306.76 384.027 309.78 383.926 312.8 383.758C315.653 383.591 318.488 383.339 321.307 383.003C322.784 382.869 324.244 382.701 325.687 382.5C325.653 382.03 325.603 381.577 325.536 381.141Z" fill="#313B59"/>
<path d="M186.861 366.241C186.156 365.536 185.35 365.033 184.444 364.681C183.991 364.479 183.488 364.378 182.985 364.328C182.75 364.295 182.498 364.278 182.229 364.278C181.978 364.278 181.776 364.379 181.575 364.53C181.525 364.58 174.377 368.053 172.716 375.704C172.061 378.725 172.011 381.846 172.061 384.916C172.162 388.54 172.162 392.114 172.061 395.688C172.061 395.789 172.162 395.89 172.212 395.89C172.212 395.99 172.212 396.041 172.263 396.141C172.514 396.494 173.018 396.594 173.42 396.745C173.924 396.88 174.41 396.997 174.88 397.098C175.954 397.299 177.011 397.366 178.051 397.299C179.109 397.249 180.115 397.098 181.072 396.745C182.028 396.443 183.085 396.091 183.79 395.386C183.823 395.353 183.84 395.319 183.84 395.286C183.941 395.185 183.991 395.084 183.991 394.933C183.79 390.504 183.236 386.024 184.092 381.594C184.444 379.782 184.998 377.97 185.803 376.359C186.206 375.553 186.659 374.798 187.112 374.094C187.616 373.389 188.22 372.734 188.673 372.08C188.824 372.03 188.975 371.879 188.975 371.627C189.075 369.664 188.32 367.65 186.861 366.241Z" fill="#7991D1"/>
<path d="M206.897 366.241C206.192 365.536 205.336 365.033 204.43 364.681C203.977 364.479 203.474 364.378 203.021 364.328C202.752 364.295 202.484 364.278 202.215 364.278C201.964 364.278 201.813 364.379 201.611 364.53C201.511 364.58 193.658 369.261 192.752 375.704C192.299 378.775 191.997 381.846 192.098 384.916C192.148 388.54 192.148 392.114 192.098 395.688C192.047 395.789 192.148 395.89 192.249 395.89C192.198 395.99 192.198 396.041 192.249 396.141C192.551 396.494 193.004 396.594 193.457 396.745C193.926 396.88 194.413 396.997 194.916 397.098C195.957 397.299 197.014 397.366 198.088 397.299C199.094 397.249 200.101 397.098 201.108 396.745C202.064 396.443 203.071 396.091 203.826 395.386C203.86 395.353 203.876 395.319 203.876 395.286C203.977 395.185 204.027 395.084 204.027 394.933C203.826 390.504 203.272 386.024 204.128 381.594C204.43 379.782 204.984 377.97 205.789 376.359C206.192 375.553 206.645 374.798 207.148 374.094C207.601 373.389 208.205 372.734 208.709 372.08C208.86 372.03 209.011 371.879 209.011 371.627C209.061 369.664 208.306 367.65 206.897 366.241Z" fill="#7991D1"/>
<path d="M240.366 343.69C219.191 343.824 198.015 343.958 176.84 344.092C173.921 344.126 171.001 344.16 168.081 344.193C165.162 344.193 162.142 344.092 159.222 344.495C159.021 344.545 159.121 344.847 159.272 344.847C161.94 345.2 164.659 345.099 167.326 345.049C169.91 345.049 172.478 345.032 175.028 344.998C180.297 344.965 185.549 344.931 190.784 344.898C201.287 344.831 211.791 344.764 222.295 344.696C228.335 344.663 234.359 344.629 240.366 344.596C240.97 344.596 240.97 343.69 240.366 343.69Z" fill="white"/>
<path d="M276.205 342.784C271.339 342.918 266.49 343.035 261.658 343.136L254.51 343.337C253.302 343.371 252.11 343.405 250.936 343.438C249.778 343.438 248.57 343.337 247.513 343.74C247.261 343.841 247.211 344.193 247.513 344.294C248.52 344.596 249.627 344.445 250.684 344.394C251.859 344.361 253.05 344.327 254.258 344.294L261.658 344.092C266.49 343.958 271.339 343.824 276.205 343.69C276.759 343.69 276.759 342.784 276.205 342.784Z" fill="white"/>
<path d="M315.125 90.7453C315.78 91.1984 312.105 95.7287 310.494 97.8932C308.884 100.108 307.827 102.323 306.467 102.474C305.058 102.675 268.664 102.222 263.077 102.172C257.54 102.122 190.088 102.877 186.111 102.877C182.134 102.826 159.835 103.128 158.627 103.128C157.469 103.128 151.63 91.9534 152.435 91.1984C153.241 90.393 153.643 90.997 156.412 90.242C159.231 89.4366 225.475 89.2352 230.206 89.2856C234.988 89.3359 297.658 89.4869 301.635 89.7386C305.612 89.9903 314.37 90.0909 315.125 90.7453Z" fill="#7991D1"/>
<path d="M320.699 47.0021C324.575 47.3041 324.877 48.4116 325.279 49.821C325.682 51.2304 325.431 57.6736 325.38 63.7141C325.38 69.7546 324.474 88.2787 323.87 89.8895C323.266 91.5003 323.216 92.2553 322.058 92.4567C320.85 92.658 318.685 92.2553 315.464 92.2553C312.292 92.205 249.069 91.0473 241.871 91.8023C234.723 92.5574 173.06 92.4064 166.918 92.7587C160.727 93.1614 144.418 93.6648 143.411 93.4634C142.404 93.2118 142.253 93.0104 142.052 92.205C141.85 91.3996 142.052 58.4287 142.052 56.4152C142.052 54.4017 141.095 48.7639 141.901 47.9585C142.706 47.1531 142.102 47.3545 145.072 46.7504C148.092 46.1967 202.205 44.8879 206.937 44.8879C211.719 44.9383 270.009 45.6933 282.14 45.5423C294.272 45.4417 317.93 46.7504 320.699 47.0021Z" fill="#4C5980"/>
<path d="M308.626 67.8921C308.626 67.4894 308.576 64.0161 308.526 64.2678C308.475 64.4188 308.526 59.3851 308.425 58.9824C308.458 58.7475 308.475 58.5294 308.475 58.328C308.425 56.8682 307.267 55.4588 305.757 55.5091C304.247 55.5595 303.039 56.7172 302.988 58.2777C302.988 58.5294 302.938 64.4188 302.888 64.2175C302.837 64.0161 302.737 67.0867 302.787 67.3887C302.787 67.4894 302.787 70.0566 302.837 70.2076C302.804 70.3418 302.787 70.4929 302.787 70.6606C302.636 72.1708 304.197 73.6809 305.656 73.5802C307.116 73.5299 308.727 72.3218 308.576 70.6606C308.576 70.5264 308.576 70.3754 308.576 70.2076C308.576 70.0566 308.576 68.1438 308.626 67.8921Z" fill="#D66EC0"/>
<path d="M295.892 67.8419C295.892 67.3889 295.842 63.966 295.791 64.1673C295.741 64.3687 295.791 59.2846 295.691 58.8819C295.724 58.6805 295.741 58.4624 295.741 58.2275C295.691 56.7677 294.533 55.3583 293.023 55.4589C291.513 55.5093 290.304 56.667 290.254 58.1772C290.254 58.4288 290.204 64.3687 290.153 64.1673C290.103 63.966 290.002 66.9862 290.053 67.2882C290.053 67.4392 290.053 70.0064 290.103 70.1071C290.07 70.2749 290.053 70.4259 290.053 70.5601C289.952 72.1206 291.462 73.5804 292.922 73.53C294.432 73.4797 295.993 72.2716 295.842 70.6105C295.842 70.4427 295.842 70.2749 295.842 70.1071C295.842 70.0064 295.842 68.0936 295.892 67.8419Z" fill="#FFD075"/>
<path d="M283.156 67.741C283.156 67.3383 283.156 63.865 283.106 64.1167C283.056 64.2677 283.056 59.234 282.955 58.8313C282.989 58.5964 283.005 58.3782 283.005 58.1769C282.955 56.7171 281.797 55.3077 280.287 55.358C278.777 55.4083 277.569 56.5661 277.519 58.1265C277.519 58.3782 277.468 64.2677 277.418 64.0664C277.368 63.865 277.317 66.9356 277.368 67.2376C277.317 67.3383 277.368 69.9055 277.368 70.0565C277.368 70.1907 277.351 70.3417 277.317 70.5095C277.217 72.0196 278.727 73.5298 280.237 73.4291C281.697 73.3787 283.257 72.1707 283.156 70.5095C283.123 70.3753 283.106 70.2243 283.106 70.0565C283.106 69.9055 283.106 67.9927 283.156 67.741Z" fill="#FFD075"/>
<path d="M280.543 90.7957C249.837 90.9467 219.132 91.3494 188.376 91.7017C179.667 91.8024 170.959 91.9031 162.301 92.2051C161.898 92.2051 161.898 92.7588 162.25 92.7588C177.654 92.9098 193.007 92.6078 208.359 92.4568C223.729 92.289 239.099 92.1212 254.468 91.9534C263.16 91.8527 271.852 91.7353 280.543 91.601C281.047 91.5507 281.097 90.7957 280.543 90.7957Z" fill="#313B59"/>
<path d="M304.447 91.3494C301.427 91.4836 298.407 91.5339 295.386 91.5004C293.876 91.4668 292.366 91.4165 290.856 91.3494C289.497 91.299 287.936 90.9467 286.628 91.2487C286.426 91.299 286.426 91.601 286.628 91.6514C287.836 92.2051 289.497 92.0541 290.806 92.1548C292.316 92.2554 293.826 92.3225 295.336 92.3561C298.39 92.4232 301.41 92.3897 304.397 92.2554C305.001 92.2051 305.001 91.3494 304.447 91.3494Z" fill="#313B59"/>
<path d="M142.209 64.9724C142.175 64.0328 142.159 63.0931 142.159 62.1535C142.159 61.6837 142.159 61.2139 142.159 60.7441C142.159 60.291 142.209 59.7877 142.058 59.3346C141.957 59.0326 141.504 58.9823 141.404 59.3346C141.253 59.7877 141.353 60.291 141.353 60.7441C141.353 61.1803 141.353 61.5998 141.353 62.0025C141.387 63.0092 141.404 63.9992 141.404 64.9724C141.454 66.7845 141.353 68.7477 141.655 70.5598C141.706 70.7612 142.058 70.7612 142.058 70.5598C142.31 68.7477 142.209 66.7845 142.209 64.9724Z" fill="white"/>
<path d="M243.689 44.888C237.094 44.586 230.4 44.737 223.755 44.737C217.111 44.7034 210.483 44.7202 203.872 44.7873C190.751 44.9215 177.629 45.1732 164.508 45.5424C157.008 45.7437 149.558 45.9954 142.058 46.3478C141.806 46.3981 141.705 46.5491 141.655 46.7505C141.353 46.9518 141.454 47.6062 141.454 47.9082C141.454 48.5458 141.47 49.1667 141.504 49.7707C141.538 50.3412 141.554 50.9117 141.554 51.4822C141.605 52.0359 141.554 52.7406 141.705 53.2943C141.806 53.5963 142.309 53.6467 142.36 53.2943C142.511 52.6903 142.41 52.0359 142.41 51.4822C142.41 50.9117 142.41 50.3412 142.41 49.7707C142.41 49.1667 142.393 48.5458 142.36 47.9082C142.36 47.7572 142.36 47.4552 142.309 47.2035C168.636 46.5491 194.912 45.7941 221.238 45.7437C228.688 45.6934 236.188 45.9451 243.689 45.7437C244.242 45.7437 244.242 44.888 243.689 44.888Z" fill="white"/>
<path d="M186.898 288.571C186.831 286.792 186.764 285.014 186.697 283.235C186.697 283.034 186.596 282.883 186.495 282.782C186.395 282.48 186.093 282.228 185.589 282.178C183.425 281.876 181.059 282.027 178.844 281.977C176.696 281.977 174.549 281.977 172.401 281.977C167.87 281.977 163.34 281.977 158.81 281.977C154.38 281.977 149.934 281.993 145.47 282.027C140.99 282.077 136.41 281.977 131.93 282.329C131.779 282.329 131.628 282.379 131.527 282.379C131.527 282.379 131.51 282.379 131.477 282.379C131.711 294.427 131.913 306.457 132.081 318.471C132.181 318.622 132.383 318.773 132.735 318.773C137.064 319.176 141.544 318.974 145.923 318.924C150.454 318.874 155.034 318.823 159.565 318.773C164.028 318.706 168.491 318.639 172.954 318.572C175.169 318.538 177.401 318.505 179.649 318.471C181.864 318.471 184.28 318.572 186.445 318.27C186.546 318.27 186.596 318.27 186.646 318.219C186.848 318.186 187.015 318.136 187.15 318.068C187.15 312.481 187.099 306.894 186.999 301.356C186.848 297.078 186.898 292.799 186.898 288.571Z" fill="#BFCAD4"/>
<path d="M181.405 290.786C179.694 292.346 177.932 293.907 176.17 295.417C174.895 294.276 173.62 293.135 172.344 291.994C172.042 291.692 171.589 291.692 171.237 291.994C166.556 296.323 161.925 300.752 157.243 305.081C155.33 302.967 153.418 300.903 151.606 298.739C151.303 298.336 150.75 298.487 150.448 298.739C147.83 300.853 145.414 303.269 142.947 305.585C140.481 307.9 138.014 310.216 135.749 312.733C135.498 313.035 135.85 313.538 136.202 313.286C138.87 311.273 141.387 309.058 143.904 306.843C146.27 304.779 148.736 302.665 151.001 300.45C152.965 302.464 154.827 304.528 156.74 306.592C156.992 306.894 157.445 306.793 157.747 306.592C162.428 302.212 167.16 297.933 171.841 293.604C173.1 294.712 174.408 295.87 175.616 296.977C175.969 297.279 176.422 297.279 176.724 296.977C178.687 295.266 180.6 293.604 182.613 291.943C183.419 291.289 182.211 290.081 181.405 290.786Z" fill="white"/>
<path fill-rule="evenodd" clip-rule="evenodd" d="M46.6123 302.112C48.9279 302.766 54.5153 304.478 54.5153 304.478L54.6663 304.83L54.4146 313.186C54.4146 313.186 54.3643 313.589 54.1629 313.991C53.9616 314.394 50.589 314.897 49.5319 314.998C48.8775 315.099 47.015 315.451 45.5049 315.804C44.6995 318.069 43.5418 320.183 41.8806 321.945L43.5418 328.942C43.5418 328.942 43.6424 329.747 43.6424 330.049C43.6424 330.351 36.4442 333.673 36.4442 333.673C36.4442 333.673 35.6891 334.026 35.4375 334.177C35.2361 334.277 31.6622 330.301 29.85 328.237C27.3835 328.64 24.8163 328.438 22.2994 327.683C21.343 328.74 17.0643 332.465 16.8127 332.667C16.5106 332.918 16.4603 332.767 16.1583 332.818C15.9066 332.918 9.81577 328.64 9.81577 328.64C9.81577 328.64 9.01038 328.338 8.80903 327.935C8.65802 327.683 10.4198 322.649 11.3259 320.032C11.0574 319.629 10.789 319.21 10.5205 318.773C9.56409 317.213 8.9097 315.552 8.40633 313.79C5.5371 312.934 0 311.273 0 310.921C0 310.468 0.0503369 309.461 0.151012 308.807C0.201349 308.152 0.503373 303.018 0.503373 302.665C0.453036 302.263 0.251686 301.961 0.503373 301.759C0.755059 301.558 6.79554 300.35 9.3124 299.847C9.96678 298.336 10.7722 296.877 11.8293 295.568C12.1648 295.165 12.5172 294.763 12.8863 294.36C12.5843 293.001 12.3326 291.591 12.1816 290.937C11.9299 289.628 10.5205 286.155 11.0239 285.702C11.5272 285.249 18.7758 281.423 19.2288 281.574C19.6315 281.725 23.6082 286.407 24.9673 288.017C27.3332 287.665 29.7493 287.715 32.1152 288.168C33.877 286.507 37.9543 282.732 38.357 282.682C38.9107 282.631 45.8573 287.363 46.0586 287.715C46.26 288.068 45.0519 290.283 44.9512 290.736C44.9009 291.038 44.1961 293.605 43.6424 295.518C44.2465 296.273 44.7499 297.078 45.2029 297.984C45.8573 299.293 46.3103 300.702 46.6123 302.112ZM34.8334 302.263C32.2159 298.941 27.5848 297.682 23.7089 299.444C19.8329 301.256 17.5677 305.434 18.3228 309.662C18.7758 312.028 20.1349 314.193 22.0981 315.552C23.5579 316.559 25.672 317.414 27.5345 317.163C30.3031 317.112 33.1723 315.753 34.8334 313.639C37.3503 310.367 37.4006 305.484 34.8334 302.263Z" fill="#A1B0BA"/>
<path fill-rule="evenodd" clip-rule="evenodd" d="M52.3046 258.57C53.9657 258.973 57.9424 259.98 57.9424 259.98L58.0934 260.231L58.1437 266.121C58.1437 266.121 58.1437 266.423 57.9927 266.725C57.892 266.976 55.5262 267.43 54.8214 267.581C54.3181 267.631 53.0596 267.983 52.0026 268.235C51.4992 269.896 50.7441 271.406 49.6367 272.715L51.0462 277.547C51.0462 277.547 51.0965 278.101 51.1468 278.302C51.1468 278.504 46.2138 281.071 46.2138 281.071C46.2138 281.071 45.7104 281.373 45.509 281.474C45.358 281.524 42.7405 278.856 41.3814 277.497C39.6699 277.849 37.8578 277.799 36.096 277.346C35.4416 278.101 32.522 280.87 32.371 281.021C32.1697 281.172 32.1193 281.121 31.918 281.172C31.7166 281.222 27.3373 278.403 27.3373 278.403C27.3373 278.403 26.7332 278.202 26.5822 277.95C26.4815 277.749 27.5386 274.175 28.1427 272.312C27.9078 272.044 27.6896 271.759 27.4883 271.456C26.7836 270.399 26.2299 269.242 25.8775 268.034C23.8137 267.53 19.837 266.523 19.837 266.272C19.837 265.97 19.8874 265.265 19.8874 264.812C19.8874 264.309 19.988 260.684 19.9377 260.433C19.8874 260.181 19.7363 259.98 19.9377 259.829C20.0887 259.678 24.317 258.62 26.0285 258.218C26.4312 257.11 26.9849 256.053 27.6896 255.097C27.9245 254.795 28.1595 254.51 28.3944 254.241C28.1427 253.285 27.891 252.278 27.7903 251.825C27.5386 250.919 26.4815 248.553 26.7836 248.201C27.1359 247.848 32.1193 244.929 32.4213 245.029C32.7234 245.13 35.6429 248.301 36.6497 249.409C38.3108 249.056 40.0223 249.006 41.6834 249.258C42.8915 248.05 45.6601 245.231 45.9117 245.231C46.2641 245.18 51.3482 248.251 51.4992 248.503C51.5999 248.754 50.8448 250.365 50.7945 250.667C50.7945 250.869 50.3414 252.681 50.0394 254.04C50.4757 254.577 50.8616 255.147 51.1972 255.751C51.7005 256.657 52.0529 257.614 52.3046 258.57ZM44.0493 259.074C42.1364 256.808 38.8142 256.104 36.1463 257.463C33.4784 258.822 32.0187 261.842 32.7234 264.812C33.0757 266.473 34.0825 267.933 35.5423 268.839C36.5993 269.493 38.1095 269.997 39.4182 269.745C41.331 269.695 43.2942 268.638 44.4016 267.077C46.1131 264.661 45.9621 261.288 44.0493 259.074Z" fill="#A1B0BA"/>
<path d="M334.833 285.903C334.8 285.601 334.766 285.299 334.733 284.997C334.733 284.997 334.632 284.947 334.531 284.947C334.464 284.879 334.229 284.846 333.827 284.846C332.065 284.745 330.202 284.795 328.44 284.745C326.729 284.745 325.018 284.728 323.306 284.695C319.682 284.695 316.074 284.678 312.484 284.644C308.926 284.611 305.386 284.594 301.862 284.594C298.238 284.544 294.563 284.493 290.99 284.544C290.889 284.544 290.788 284.544 290.688 284.544C290.755 286.591 290.788 288.638 290.788 290.685C290.889 290.719 291.057 290.735 291.292 290.735C294.765 290.836 298.339 290.836 301.862 290.836C305.487 290.836 309.111 290.853 312.735 290.886C316.292 290.886 319.85 290.903 323.407 290.937C325.185 290.937 326.964 290.937 328.742 290.937C330.504 290.937 332.417 290.987 334.179 290.937C334.246 290.937 334.296 290.937 334.33 290.937C334.464 290.937 334.598 290.937 334.733 290.937C334.783 289.98 334.783 289.024 334.733 288.067C334.733 287.363 334.733 286.658 334.833 285.903Z" fill="#A1B0BA"/>
<path d="M315.051 297.833C315.051 297.531 315.051 297.229 315.051 296.927C315.017 296.893 314.984 296.859 314.95 296.826C314.883 296.792 314.749 296.759 314.547 296.725C313.591 296.675 312.534 296.675 311.527 296.675C310.587 296.675 309.648 296.658 308.708 296.625C306.728 296.625 304.732 296.608 302.718 296.574C300.772 296.574 298.809 296.574 296.829 296.574C294.865 296.524 292.852 296.524 290.839 296.524C290.771 296.524 290.721 296.541 290.688 296.574C290.721 298.588 290.738 300.618 290.738 302.665C290.771 302.699 290.855 302.715 290.99 302.715C292.902 302.816 294.916 302.816 296.829 302.816C298.842 302.816 300.856 302.816 302.869 302.816C304.815 302.85 306.779 302.866 308.759 302.866C309.732 302.866 310.722 302.866 311.728 302.866C312.685 302.866 313.742 302.917 314.698 302.866C314.732 302.866 314.765 302.866 314.799 302.866C314.866 302.866 314.933 302.85 315 302.816C315.034 301.876 315.051 300.937 315.051 299.997C315 299.242 315.051 298.537 315.051 297.833Z" fill="#A1B0BA"/>
<path d="M326.83 309.914C326.796 309.612 326.763 309.31 326.729 309.008C326.729 308.958 326.679 308.907 326.578 308.907C326.511 308.84 326.326 308.807 326.024 308.807C324.564 308.756 323.054 308.756 321.595 308.756C320.185 308.723 318.792 308.706 317.417 308.706C314.43 308.672 311.46 308.639 308.507 308.605C305.621 308.605 302.718 308.588 299.799 308.555C296.879 308.555 293.859 308.505 290.939 308.555C290.839 308.555 290.755 308.555 290.688 308.555C290.721 310.602 290.738 312.649 290.738 314.696C290.838 314.73 290.99 314.746 291.191 314.746C294.01 314.847 296.929 314.797 299.799 314.847C302.785 314.847 305.755 314.847 308.708 314.847C311.628 314.881 314.547 314.897 317.467 314.897C318.91 314.897 320.37 314.914 321.846 314.948C323.306 314.948 324.867 314.948 326.276 314.948C326.343 314.948 326.393 314.931 326.427 314.897C326.528 314.897 326.628 314.897 326.729 314.897C326.779 313.941 326.779 312.985 326.779 312.078C326.729 311.323 326.779 310.619 326.83 309.914Z" fill="#A1B0BA"/>
<path d="M156.744 223.585C156.744 223.283 156.727 222.981 156.694 222.679C156.694 222.629 156.643 222.578 156.543 222.578C156.476 222.511 156.291 222.478 155.989 222.478C154.63 222.427 153.12 222.427 151.761 222.427C150.385 222.394 149.026 222.377 147.683 222.377C144.864 222.343 142.029 222.327 139.176 222.327C136.357 222.293 133.555 222.26 130.77 222.226C127.951 222.226 125.082 222.176 122.263 222.226C122.162 222.226 122.078 222.226 122.011 222.226C121.978 222.226 121.961 222.226 121.961 222.226C122.028 224.273 122.062 226.32 122.062 228.367C122.129 228.401 122.263 228.417 122.464 228.417C125.183 228.518 128.001 228.518 130.77 228.518C133.622 228.518 136.475 228.535 139.327 228.569C142.146 228.569 144.965 228.569 147.784 228.569C149.16 228.569 150.553 228.585 151.962 228.619C153.371 228.619 154.882 228.619 156.291 228.619C156.325 228.619 156.358 228.602 156.392 228.569C156.492 228.569 156.593 228.569 156.694 228.569C156.744 227.612 156.744 226.656 156.694 225.75C156.694 224.995 156.744 224.29 156.744 223.585Z" fill="#A1B0BA"/>
<path d="M146.375 235.515C146.375 235.213 146.358 234.911 146.324 234.609C146.324 234.575 146.291 234.542 146.224 234.508C146.19 234.475 146.073 234.441 145.871 234.408C144.864 234.357 143.858 234.357 142.851 234.357C141.911 234.357 140.972 234.357 140.032 234.357C138.019 234.324 136.022 234.307 134.042 234.307C132.062 234.273 130.099 234.257 128.152 234.257C126.139 234.206 124.125 234.206 122.162 234.257C122.095 234.257 122.045 234.257 122.011 234.257C121.978 234.257 121.961 234.257 121.961 234.257C121.994 236.304 122.011 238.334 122.011 240.347C122.078 240.381 122.179 240.398 122.313 240.398C124.226 240.498 126.189 240.498 128.152 240.498C130.132 240.498 132.129 240.498 134.143 240.498C136.122 240.532 138.102 240.549 140.082 240.549C141.056 240.549 142.029 240.549 143.002 240.549C144.009 240.549 145.066 240.599 146.022 240.549C146.056 240.549 146.089 240.549 146.123 240.549C146.19 240.549 146.257 240.532 146.324 240.498C146.358 239.559 146.358 238.619 146.324 237.679C146.324 236.975 146.375 236.22 146.375 235.515Z" fill="#A1B0BA"/>
<path fill-rule="evenodd" clip-rule="evenodd" d="M399.426 81.8354C392.529 87.1208 383.116 89.0336 374.66 87.1208C374.509 87.2215 369.425 85.6107 367.411 84.2516C365.851 83.3455 362.78 80.5266 362.881 80.3756C357.142 74.1338 354.223 64.9724 355.632 56.6667C356.085 54.2002 356.891 51.8344 357.948 49.5692C357.948 49.4685 357.981 49.3846 358.048 49.3175C361.975 41.2635 369.626 35.0217 378.636 33.8136C390.415 32.2532 402.396 38.3943 407.429 49.2168C412.614 60.442 409.191 74.3351 399.426 81.8354ZM394.342 39.1997C395.248 41.6662 395.952 44.1831 396.506 46.7503C397.966 47.002 399.476 47.2537 400.936 47.5557C401.792 47.7067 402.748 47.8577 403.654 48.0591C403.386 47.5557 403.1 47.0691 402.798 46.5993C400.634 43.4784 397.664 40.9615 394.342 39.1997ZM381.858 73.6304C381.992 70.0061 382.043 66.3818 382.009 62.7576C377.63 62.7576 373.2 62.8079 368.77 62.7576C368.972 66.3315 369.626 69.8048 370.633 73.127C374.307 73.4291 378.032 73.5801 381.707 73.6304C381.741 73.6304 381.791 73.6304 381.858 73.6304ZM395.902 60.6937C396.053 56.6164 395.751 52.5391 394.996 48.5121C394.761 48.4785 394.543 48.445 394.342 48.4114C390.919 47.9584 387.395 47.757 383.922 47.757C384.073 52.086 384.022 56.4151 383.922 60.7441C387.898 60.7441 391.925 60.7944 395.902 60.6937ZM383.871 62.7576C383.804 66.3818 383.704 69.9893 383.569 73.5801C386.992 73.5801 390.415 73.4458 393.838 73.1774C394.795 69.8551 395.449 66.4825 395.751 63.0092C395.751 62.9086 395.751 62.7911 395.751 62.6569C391.825 62.7072 387.848 62.8079 383.871 62.7576ZM383.62 36.2801C383.821 37.7399 383.67 39.4514 383.72 40.7602C383.821 42.4213 383.821 44.0824 383.871 45.7435C387.462 45.8107 391.036 46.0624 394.593 46.4986C393.889 43.6294 392.982 40.8105 391.825 38.0419C389.207 37.0352 386.439 36.4311 383.62 36.2801ZM381.858 47.7067C378.066 47.7403 374.291 47.992 370.532 48.4618C369.374 52.3881 368.72 56.4151 368.72 60.4924C368.72 60.5259 368.72 60.5427 368.72 60.5427C373.15 60.6434 377.579 60.7441 382.059 60.7441C382.026 56.4151 381.959 52.0693 381.858 47.7067ZM375.264 37.2365C373.854 40.2568 372.344 43.2267 371.237 46.3476C374.71 45.9449 378.284 45.7436 381.808 45.6932C381.757 43.9314 381.657 42.1696 381.606 40.4078C381.556 39.1494 381.304 37.6392 381.405 36.2298C379.291 36.3305 377.227 36.6325 375.264 37.2365ZM361.421 48.0591C363.888 47.4047 366.404 47.002 368.921 46.6496C369.928 43.5287 371.287 40.6091 373.15 37.9916C368.317 40.0554 364.24 43.6294 361.421 48.0591ZM357.495 60.5931C360.515 60.4924 363.586 60.4924 366.656 60.5427C366.656 60.442 366.656 60.3414 366.656 60.2407C366.757 56.5157 367.26 52.5894 368.267 48.7638C365.599 49.2168 362.931 49.7202 360.213 50.1732C358.602 53.3445 357.646 56.9184 357.495 60.5931ZM357.495 62.2542C357.646 65.8281 358.552 69.1504 360.062 72.1706C361.471 72.07 362.981 72.4223 364.341 72.5733C365.649 72.7243 366.908 72.825 368.166 72.9257C367.26 69.5531 366.757 66.1302 366.656 62.7072C363.586 62.6569 360.515 62.5059 357.495 62.2542ZM372.747 83.6979C371.035 80.9797 369.727 77.9594 368.72 74.7882C367.008 74.6204 365.297 74.4358 363.586 74.2345C362.78 74.0835 361.874 74.0331 360.968 73.8318C362.931 77.154 365.649 80.0233 368.77 82.4394C370.079 82.9093 371.405 83.3287 372.747 83.6979ZM381.556 80.9293C381.623 79.0836 381.69 77.2547 381.757 75.4426C381.757 75.4426 381.741 75.4426 381.707 75.4426C378.234 75.3922 374.71 75.2412 371.237 74.9895C372.344 78.1608 373.754 81.2817 375.465 84.3523C375.465 84.3523 375.465 84.369 375.465 84.4026C377.428 84.755 379.391 85.0066 381.355 85.0066C381.304 83.6475 381.506 82.1878 381.556 80.9293ZM390.617 81.6844C391.556 79.7716 392.378 77.7916 393.083 75.7446C393.133 75.5432 393.184 75.2915 393.285 75.0902C390.013 75.2915 386.741 75.3922 383.469 75.3922C383.418 77.3554 383.318 79.3185 383.167 81.2314C383.116 82.3891 383.116 83.7482 382.915 84.9563C383.267 84.9563 383.67 84.9563 384.022 84.906C385.885 84.755 387.697 84.3523 389.459 83.7985C389.862 83.0435 390.365 82.2381 390.617 81.6844ZM403.1 74.0331C400.449 74.4022 397.798 74.7043 395.147 74.9392C394.996 75.3419 394.845 75.7949 394.694 76.1976C393.989 78.2782 393.15 80.3085 392.177 82.2884C392.076 82.4898 391.976 82.6911 391.825 82.9932C395.248 81.5837 398.318 79.5199 400.936 76.8017C401.741 75.9459 402.446 74.9895 403.1 74.0331ZM406.926 62.5059C405.466 62.7576 403.704 62.5059 402.345 62.5562C400.734 62.5898 399.14 62.6065 397.563 62.6065C397.563 62.7408 397.546 62.875 397.513 63.0092C397.211 66.3818 396.657 69.7544 395.701 73.0264C398.553 72.7915 401.389 72.5062 404.208 72.1706C405.819 69.2007 406.674 65.8785 406.926 62.5059ZM406.976 60.4924C406.926 57.0191 406.171 53.5458 404.812 50.3746C403.352 50.1732 401.842 49.6195 400.432 49.3678C399.258 49.1665 398.083 48.9819 396.909 48.8141C397.563 52.6901 397.815 56.7171 397.664 60.6937C399.342 60.6602 401.02 60.6266 402.698 60.5931C403.956 60.5931 405.567 60.291 406.976 60.4924Z" fill="#A1B0BA"/>
<path d="M344.353 139.925C344.353 138.247 344.336 136.569 344.302 134.891C344.302 134.69 344.202 134.539 344.101 134.438C344 134.136 343.799 133.935 343.346 133.834C341.534 133.532 339.52 133.633 337.608 133.582C335.795 133.549 333.983 133.515 332.171 133.482C328.345 133.415 324.52 133.348 320.694 133.28C316.936 133.213 313.177 133.163 309.419 133.129C305.593 133.129 301.717 132.978 297.891 133.23C297.791 133.23 297.69 133.247 297.589 133.28C297.556 133.28 297.539 133.28 297.539 133.28C297.573 144.657 297.573 156.016 297.539 167.359C297.64 167.51 297.841 167.661 298.093 167.661C301.767 168.114 305.543 167.963 309.268 168.013C313.093 168.013 316.969 168.013 320.795 168.013C324.587 168.013 328.379 168.03 332.171 168.063C334.05 168.063 335.93 168.063 337.809 168.063C339.722 168.063 341.735 168.215 343.598 167.963C343.648 167.963 343.698 167.912 343.749 167.912C343.916 167.879 344.051 167.829 344.151 167.761C344.252 162.476 344.302 157.191 344.252 151.956C344.252 147.929 344.302 143.902 344.353 139.925Z" fill="#FFBB39"/>
<path d="M334.292 140.277C334.258 140.043 334.241 139.824 334.241 139.623C334.208 139.589 334.157 139.556 334.09 139.522C334.023 139.489 333.855 139.472 333.587 139.472C332.328 139.422 330.969 139.422 329.711 139.422C328.503 139.388 327.278 139.371 326.036 139.371C323.452 139.338 320.868 139.321 318.284 139.321C315.734 139.287 313.2 139.271 310.683 139.271C308.116 139.271 305.499 139.22 302.931 139.271C302.831 139.271 302.747 139.271 302.68 139.271C302.713 140.814 302.747 142.341 302.78 143.851C302.847 143.885 302.965 143.902 303.133 143.902C305.599 144.002 308.166 143.952 310.683 144.002C313.267 144.002 315.868 144.002 318.486 144.002C321.036 144.036 323.586 144.053 326.137 144.053C327.412 144.053 328.687 144.053 329.963 144.053C331.221 144.103 332.58 144.103 333.838 144.103C333.872 144.069 333.906 144.053 333.939 144.053C334.04 144.053 334.141 144.053 334.241 144.053C334.292 143.348 334.292 142.643 334.241 141.939C334.241 141.385 334.241 140.831 334.292 140.277Z" fill="white"/>
<path d="M338.721 149.237C338.688 149.003 338.654 148.784 338.621 148.583C338.621 148.533 338.57 148.533 338.469 148.482C338.402 148.449 338.218 148.432 337.916 148.432C336.456 148.382 334.946 148.382 333.486 148.382C332.11 148.348 330.718 148.331 329.308 148.331C326.355 148.298 323.402 148.281 320.449 148.281C317.563 148.248 314.677 148.231 311.791 148.231C308.871 148.18 305.851 148.18 302.931 148.18C302.864 148.18 302.78 148.18 302.68 148.18C302.747 149.724 302.78 151.268 302.78 152.811C302.847 152.845 302.982 152.862 303.183 152.862C306.002 152.912 308.972 152.912 311.791 152.912C314.744 152.946 317.697 152.962 320.65 152.962C323.57 152.996 326.489 153.013 329.409 153.013C330.852 153.013 332.295 153.013 333.738 153.013C335.198 153.063 336.758 153.063 338.218 153.063C338.251 153.03 338.285 153.013 338.318 153.013C338.453 153.013 338.553 153.013 338.621 153.013C338.671 152.308 338.721 151.603 338.671 150.899C338.621 150.345 338.671 149.791 338.721 149.237Z" fill="white"/>
<path d="M330.013 158.147C330.013 157.912 329.996 157.677 329.963 157.442C329.963 157.409 329.929 157.392 329.862 157.392C329.795 157.358 329.644 157.325 329.409 157.291C328.352 157.241 327.144 157.291 326.087 157.241C325.013 157.241 323.956 157.241 322.915 157.241C320.667 157.207 318.418 157.191 316.17 157.191C313.989 157.157 311.791 157.14 309.576 157.14C307.361 157.14 305.096 157.09 302.881 157.14C302.814 157.14 302.747 157.14 302.68 157.14C302.713 158.684 302.73 160.228 302.73 161.771C302.797 161.771 302.915 161.771 303.082 161.771C305.197 161.872 307.411 161.822 309.576 161.872C311.824 161.872 314.073 161.872 316.321 161.872C318.536 161.906 320.751 161.922 322.966 161.922C324.039 161.922 325.13 161.922 326.238 161.922C327.345 161.922 328.553 161.973 329.61 161.922C329.644 161.922 329.677 161.922 329.711 161.922C329.811 161.922 329.895 161.922 329.963 161.922C329.996 161.184 329.996 160.463 329.963 159.758C329.963 159.204 329.962 158.701 330.013 158.147Z" fill="white"/>
</svg>
