<svg width="596" height="281" viewBox="0 0 596 281" fill="none" xmlns="http://www.w3.org/2000/svg">
<g clip-path="url(#clip0_3198_188)">
<path style="mix-blend-mode:multiply" opacity="0.7" d="M183.156 115.863V109.585H279.667V115.863H274.761V147.406H279.667V153.634H274.761V185.177H279.667V191.456H274.761V213.936H297.27V41.841H293.679V35.562H445.173V41.841H441.177V261.934H465.659V195.759H461.309V189.481H465.659V145.887H461.309L456.807 139.66H476.837V129.28H486.043V112.015H491.051V129.28H514.572V139.66H584.022L579.52 145.887H575.17V189.481H579.52V195.759H575.17V277.225H188.316V191.456H183.156V185.177H188.316V153.634H183.156V147.406H188.316V115.863H183.156Z" fill="url(#paint0_linear_3198_188)"/>
<path style="mix-blend-mode:multiply" opacity="0.7" d="M167.068 189.835H113.603V180.013H116.03V177.026H94.4824V180.013H96.86V189.835H79.4089L47.2891 222.037L49.7676 224.568H52.8531V276.921L194.534 277.225V224.821H198.884V221.581L167.068 189.835Z" fill="url(#paint1_linear_3198_188)"/>
<path d="M134.34 250.745C125.337 250.745 117.446 255.301 112.792 262.187C110.87 261.428 108.796 260.972 106.621 260.972C97.8711 260.972 90.7891 268.06 90.7891 276.82H160.34C160.34 262.44 148.706 250.745 134.34 250.745Z" fill="url(#paint2_linear_3198_188)"/>
<path d="M246.386 172.823L238.242 180.975V149.786H246.386V172.823Z" fill="#8F4D3E"/>
<path d="M238.236 149.786H224.781V180.975H238.236V149.786Z" fill="#C47357"/>
<path style="mix-blend-mode:multiply" opacity="0.8" d="M224.781 153.735L238.236 155.254L246.38 159.001V151.71H224.781V153.735Z" fill="url(#paint3_linear_3198_188)"/>
<path d="M221.695 147.862H249.516V151.71H221.695V147.862Z" fill="#E9DCCE"/>
<path d="M238.234 147.862H249.514V151.71H238.234V147.862Z" fill="#CCBDAD"/>
<path d="M279.111 168.266L316.238 205.43V276.819H244.664V202.696L279.111 168.266Z" fill="#8F4D3E"/>
<path d="M328.886 213.936L349.322 234.644V276.82H308.148V234.644L328.886 213.936Z" fill="#8F4D3E"/>
<path d="M308.096 234.644H259.891V276.82H308.096V234.644Z" fill="#C47357"/>
<path d="M302.329 245.378H265.656V276.82H302.329V245.378Z" fill="#E9E9E9"/>
<path d="M265.656 250.542H302.329" stroke="#CCCCCC" stroke-width="1.6" stroke-miterlimit="10"/>
<path d="M265.656 255.707H302.329" stroke="#CCCCCC" stroke-width="1.6" stroke-miterlimit="10"/>
<path d="M265.656 260.871H302.329" stroke="#CCCCCC" stroke-width="1.6" stroke-miterlimit="10"/>
<path d="M265.656 266.035H302.329" stroke="#CCCCCC" stroke-width="1.6" stroke-miterlimit="10"/>
<path d="M265.656 271.199H302.329" stroke="#CCCCCC" stroke-width="1.6" stroke-miterlimit="10"/>
<path d="M265.656 276.82H267.275V246.998H302.329V245.378H265.656" fill="#CCCCCC"/>
<path d="M320.187 209.278H314.573L276.383 171.051L279.165 168.266L320.187 209.278Z" fill="#2B251F"/>
<path d="M244.661 202.696H131.711V276.82H244.661V202.696Z" fill="#C47357"/>
<path style="mix-blend-mode:multiply" d="M131.711 212.366L244.661 214.644L277.287 184.924L306.625 209.278H314.566L276.376 171.051L244.661 202.695H131.711V212.366Z" fill="url(#paint4_linear_3198_188)"/>
<path style="mix-blend-mode:multiply" opacity="0.5" d="M147.039 254.643L171.572 263.706V254.643H147.039Z" fill="url(#paint5_linear_3198_188)"/>
<path style="mix-blend-mode:multiply" opacity="0.5" d="M208.547 254.643L233.13 263.706V254.643H208.547Z" fill="url(#paint6_linear_3198_188)"/>
<path d="M279.164 164.418L238.091 205.43H125.141L165.961 164.418H279.164Z" fill="#5B4E42"/>
<path d="M320.186 209.227V205.379L279.164 164.418L238.091 205.379H125.141L127.771 209.278H238.142L244.667 202.696L279.164 168.266L320.186 209.227Z" fill="#806D5C"/>
<path d="M198.683 276.819H177.742V226.239H198.683V276.819Z" fill="#04609E"/>
<path d="M197.827 227.1H178.555V276.819H197.827V227.1Z" fill="#EBD6BD"/>
<path d="M195.195 251.15C195.398 252.01 194.639 252.77 193.728 252.618C193.223 252.517 192.818 252.112 192.767 251.605C192.565 250.744 193.324 249.985 194.234 250.137C194.74 250.238 195.145 250.643 195.195 251.15Z" fill="#2B251F"/>
<path d="M178.555 227.049V227.454V228.771V276.819H180.224V228.771H197.017V276.819H198.687V228.771V227.454V227.049H178.555Z" fill="#DEBD95"/>
<path d="M177.742 226.239V226.644V227.96V276.819H179.462V227.96H196.963V276.819H198.683V227.96V226.644V226.239H177.742Z" fill="white"/>
<path style="mix-blend-mode:screen" opacity="0.8" d="M153.211 251.352L156.701 238.036L167.981 231.808V251.352H153.211Z" fill="url(#paint7_linear_3198_188)"/>
<path opacity="0.8" d="M167.98 253.023H147.039V226.239H167.98V253.023Z" fill="#04609E"/>
<path d="M149.922 253.023H147.039V226.239H149.922V253.023Z" fill="#8F4D3E"/>
<path d="M169.4 251.352H144.008V254.643H169.4V251.352Z" fill="#E9DCCE"/>
<path d="M169.094 254.643H171.572V251.352H169.094V254.643Z" fill="#CCBDAD"/>
<g style="mix-blend-mode:screen" opacity="0.5">
<path style="mix-blend-mode:screen" d="M149.922 244.061L167.98 233.884V228.923H167.828L149.922 239.099V244.061Z" fill="url(#paint8_linear_3198_188)"/>
<path style="mix-blend-mode:screen" d="M149.922 247.707L167.98 237.884V235.505L149.922 245.378V247.707Z" fill="url(#paint9_linear_3198_188)"/>
</g>
<path d="M167.98 227.505V226.239H149.922V243.15V244.365V251.352H151.136V244.365H167.98V243.15H151.136V227.505H167.98Z" fill="white"/>
<path d="M159.984 226.239H161.299V251.352H159.984V226.239Z" fill="white"/>
<path d="M166.865 248.162C166.595 248.162 166.342 248.196 166.106 248.264C165.752 247.605 165.044 247.15 164.235 247.15C163.173 247.15 162.262 247.909 162.11 248.922C162.11 248.922 162.093 248.922 162.06 248.922C161.402 248.973 160.846 249.529 160.694 250.137C160.289 249.833 159.733 249.58 159.177 249.529C158.839 249.496 158.519 249.529 158.215 249.631C158.013 248.669 157.254 247.909 156.243 247.859C156.209 247.859 156.192 247.859 156.192 247.859C155.939 246.34 154.675 245.226 153.157 245.226C151.943 245.226 150.932 245.884 150.426 246.846C150.055 246.745 149.684 246.694 149.313 246.694C147.189 246.694 145.469 248.416 145.469 250.542C145.469 250.812 145.502 251.082 145.57 251.352H158.367H169.445C169.478 251.183 169.495 250.998 169.495 250.795C169.495 249.327 168.332 248.162 166.865 248.162Z" fill="url(#paint10_linear_3198_188)"/>
<path style="mix-blend-mode:multiply" d="M259.891 241.023L308.146 249.681L327.418 226.239L349.32 238.542L327.418 216.72L308.096 235.758H259.891L255.945 238.542L259.891 241.023Z" fill="url(#paint11_linear_3198_188)"/>
<path d="M330.202 209.278L303.444 235.758H252.305L278.911 209.278H330.202Z" fill="#5B4E42"/>
<path d="M354.886 238.542L354.936 233.884L330.202 209.278L303.444 235.707H252.305L255.947 238.542H305.568L309.463 234.644L330.202 213.936L354.886 238.542Z" fill="#806D5C"/>
<path d="M354.88 238.542H349.316L327.414 216.72L330.196 213.936L354.88 238.542Z" fill="#2B251F"/>
<path style="mix-blend-mode:multiply" opacity="0.7" d="M147.039 226.239L149.922 230.188L167.98 235.302V226.239H147.039Z" fill="url(#paint12_linear_3198_188)"/>
<path style="mix-blend-mode:screen" opacity="0.8" d="M214.414 251.352L217.955 238.036L229.184 231.808V251.352H214.414Z" fill="url(#paint13_linear_3198_188)"/>
<path opacity="0.8" d="M229.183 253.023H208.242V226.239H229.183V253.023Z" fill="#04609E"/>
<path d="M211.125 253.023H208.242V226.239H211.125V253.023Z" fill="#8F4D3E"/>
<path d="M230.6 251.352H205.258V254.643H230.6V251.352Z" fill="#E9DCCE"/>
<path d="M230.352 254.643H232.78V251.352H230.352V254.643Z" fill="#CCBDAD"/>
<g style="mix-blend-mode:screen" opacity="0.5">
<path style="mix-blend-mode:screen" d="M211.125 244.061L229.183 233.884V228.923H229.082L211.125 239.099V244.061Z" fill="url(#paint14_linear_3198_188)"/>
<path style="mix-blend-mode:screen" d="M211.125 247.707L229.183 237.884V235.505L211.125 245.378V247.707Z" fill="url(#paint15_linear_3198_188)"/>
</g>
<path d="M229.183 227.505V226.239H211.125V243.15V244.365V251.352H212.39V244.365H229.183V243.15H212.39V227.505H229.183Z" fill="white"/>
<path d="M221.195 226.239H222.561V251.352H221.195V226.239Z" fill="white"/>
<path style="mix-blend-mode:multiply" opacity="0.7" d="M208.242 226.239L211.125 230.188L229.183 235.302V226.239H208.242Z" fill="url(#paint16_linear_3198_188)"/>
<path d="M204.599 276.82V272.617H145.469V276.82H204.599Z" fill="#E9DCCE"/>
<path d="M204.602 276.82V272.617H215.527V276.82H204.602Z" fill="#CCBDAD"/>
<path d="M202.12 272.617V268.769H152.297V272.617H202.12Z" fill="#E9DCCE"/>
<path d="M202.125 272.617V268.769H210.066V272.617H202.125Z" fill="#CCBDAD"/>
<path d="M249.873 271.858C248.963 271.757 248.103 271.807 247.294 272.01C246.788 269.478 244.663 267.453 241.932 267.25C241.865 267.217 241.797 267.2 241.73 267.2C241.123 263.2 237.683 260.162 233.535 260.162C230.349 260.162 227.567 261.934 226.15 264.567C225.189 264.314 224.178 264.111 223.115 264.111C217.349 264.111 212.695 268.769 212.695 274.541C212.695 275.318 212.78 276.077 212.948 276.82H256.449C255.437 274.136 252.908 272.111 249.873 271.858Z" fill="url(#paint17_linear_3198_188)"/>
<path d="M300.304 268.364C301.821 268.212 303.288 268.364 304.654 268.668C305.514 264.364 309.156 260.921 313.809 260.516C313.91 260.516 314.012 260.516 314.113 260.516C315.175 253.732 321.042 248.517 328.124 248.517C333.536 248.517 338.24 251.555 340.618 256.01C342.236 255.555 343.956 255.251 345.777 255.251C355.54 255.251 363.431 263.2 363.431 272.972C363.431 274.288 363.296 275.571 363.026 276.82H289.125C290.895 272.212 295.094 268.82 300.304 268.364Z" fill="url(#paint18_linear_3198_188)"/>
<path style="mix-blend-mode:multiply" opacity="0.5" d="M278.911 209.278C278.911 209.278 277.849 227.809 302.331 235.758L252.305 235.707L278.911 209.278Z" fill="url(#paint19_linear_3198_188)"/>
<path style="mix-blend-mode:multiply" opacity="0.5" d="M152.297 270.693L202.12 272.01V272.617H152.297V270.693Z" fill="url(#paint20_linear_3198_188)"/>
<path d="M232.419 97.13C232.419 105.636 221.645 124.369 216.991 124.369C212.337 124.369 201.562 105.636 201.562 97.13C201.562 88.573 208.493 81.687 216.991 81.687C225.489 81.687 232.419 88.573 232.419 97.13Z" fill="#BB4F4F"/>
<path d="M224.279 97.332C224.279 101.383 221.041 104.623 216.995 104.623C212.948 104.623 209.711 101.383 209.711 97.332C209.711 93.282 212.948 90.042 216.995 90.042C221.041 90.042 224.279 93.282 224.279 97.332Z" fill="#F0F6FB"/>
<path d="M67.3203 95.8639C67.3203 99.9649 130.599 99.9649 130.599 95.8639C131.611 88.8769 128.373 84.9279 122.809 84.8769C122.809 84.8769 124.478 70.2949 111.732 70.2949C102.222 70.2949 101.362 78.3959 101.362 78.3959C96.203 77.1299 91.1952 79.9149 90.3353 84.3709C86.137 82.0419 80.1176 83.7119 78.3978 87.1549C72.6315 86.3449 67.3203 90.3449 67.3203 95.8639Z" fill="url(#paint21_linear_3198_188)"/>
<path d="M157.854 36.4766C157.752 29.3882 161.394 25.6922 168.982 25.5909C168.982 25.5909 171.258 11.8699 186.888 11.8699C199.635 11.8699 201.456 22.6543 201.607 22.2492C207.728 20.4265 212.331 21.3379 216.883 26.5023C224.673 24.9833 233.929 28.325 235.042 36.4766C235.042 42.2486 157.854 42.2486 157.854 36.4766Z" fill="url(#paint22_linear_3198_188)"/>
<path d="M474.609 18.6008H421.953V54.245H474.609V18.6008Z" fill="#C47357"/>
<path d="M474.609 18.6008H498.434V54.245H474.609V18.6008Z" fill="#8F4D3E"/>
<path style="mix-blend-mode:multiply" d="M421.953 26.4991L474.609 31.3601L498.434 40.8281V24.7781H421.953V26.4991Z" fill="url(#paint23_linear_3198_188)"/>
<path d="M455.285 31.8159H441.273V54.2449H455.285V31.8159Z" fill="#39312B"/>
<path style="mix-blend-mode:screen" opacity="0.3" d="M443.047 54.2449L448.56 35.4099L455.288 36.4739V54.2449H443.047Z" fill="url(#paint24_linear_3198_188)"/>
<path d="M443.044 31.8159H441.273V54.2449H443.044V31.8159Z" fill="#8F4D3E"/>
<path d="M431.812 54.2451H340.359V277.225H431.812V54.2451Z" fill="#C47357"/>
<path d="M431.812 54.2451H538.087V277.225H431.812V54.2451Z" fill="#8F4D3E"/>
<path d="M344.11 121.129H339.305V125.838H344.11V121.129Z" fill="#E9DCCE"/>
<path d="M346.235 128.217H339.305V132.875H346.235V128.217Z" fill="#E9DCCE"/>
<path d="M344.11 135.255H339.305V139.964H344.11V135.255Z" fill="#E9DCCE"/>
<path d="M346.235 142.343H339.305V147.001H346.235V142.343Z" fill="#E9DCCE"/>
<path d="M344.11 149.381H339.305V154.09H344.11V149.381Z" fill="#E9DCCE"/>
<path d="M346.235 156.469H339.305V161.128H346.235V156.469Z" fill="#E9DCCE"/>
<path d="M344.11 173.633H339.305V178.342H344.11V173.633Z" fill="#E9DCCE"/>
<path d="M346.235 180.722H339.305V185.38H346.235V180.722Z" fill="#E9DCCE"/>
<path d="M344.11 187.76H339.305V192.468H344.11V187.76Z" fill="#E9DCCE"/>
<path d="M346.235 194.797H339.305V199.506H346.235V194.797Z" fill="#E9DCCE"/>
<path d="M344.11 201.885H339.305V206.544H344.11V201.885Z" fill="#E9DCCE"/>
<path d="M346.235 208.923H339.305V213.632H346.235V208.923Z" fill="#E9DCCE"/>
<path d="M344.11 226.138H339.305V230.796H344.11V226.138Z" fill="#E9DCCE"/>
<path d="M346.235 233.176H339.305V237.884H346.235V233.176Z" fill="#E9DCCE"/>
<path d="M344.11 240.264H339.305V244.922H344.11V240.264Z" fill="#E9DCCE"/>
<path d="M346.235 247.302H339.305V252.01H346.235V247.302Z" fill="#E9DCCE"/>
<path d="M344.11 254.39H339.305V259.048H344.11V254.39Z" fill="#E9DCCE"/>
<path d="M346.235 261.428H339.305V266.136H346.235V261.428Z" fill="#E9DCCE"/>
<path d="M344.11 65.7891H339.305V70.4981H344.11V65.7891Z" fill="#E9DCCE"/>
<path d="M346.235 72.877H339.305V77.536H346.235V72.877Z" fill="#E9DCCE"/>
<path d="M344.11 79.915H339.305V84.624H344.11V79.915Z" fill="#E9DCCE"/>
<path d="M346.235 87.0029H339.305V91.6609H346.235V87.0029Z" fill="#E9DCCE"/>
<path d="M344.11 94.041H339.305V98.75H344.11V94.041Z" fill="#E9DCCE"/>
<path d="M346.235 101.13H339.305V105.788H346.235V101.13Z" fill="#E9DCCE"/>
<path d="M534.352 213.632H539.157V208.923H534.352V213.632Z" fill="#CCBDAD"/>
<path d="M532.172 206.544H539.152V201.886H532.172V206.544Z" fill="#CCBDAD"/>
<path d="M534.352 199.506H539.157V194.797H534.352V199.506Z" fill="#CCBDAD"/>
<path d="M532.172 192.468H539.152V187.76H532.172V192.468Z" fill="#CCBDAD"/>
<path d="M534.352 185.38H539.157V180.722H534.352V185.38Z" fill="#CCBDAD"/>
<path d="M532.172 178.342H539.152V173.634H532.172V178.342Z" fill="#CCBDAD"/>
<path d="M534.352 161.128H539.157V156.419H534.352V161.128Z" fill="#CCBDAD"/>
<path d="M532.172 154.09H539.152V149.381H532.172V154.09Z" fill="#CCBDAD"/>
<path d="M534.352 147.001H539.157V142.343H534.352V147.001Z" fill="#CCBDAD"/>
<path d="M532.172 139.964H539.152V135.255H532.172V139.964Z" fill="#CCBDAD"/>
<path d="M534.352 132.875H539.157V128.217H534.352V132.875Z" fill="#CCBDAD"/>
<path d="M532.172 125.838H539.152V121.129H532.172V125.838Z" fill="#CCBDAD"/>
<path d="M534.352 105.788H539.157V101.13H534.352V105.788Z" fill="#CCBDAD"/>
<path d="M532.172 98.75H539.152V94.041H532.172V98.75Z" fill="#CCBDAD"/>
<path d="M534.352 91.6619H539.157V87.0039H534.352V91.6619Z" fill="#CCBDAD"/>
<path d="M532.172 84.624H539.152V79.915H532.172V84.624Z" fill="#CCBDAD"/>
<path d="M534.352 77.536H539.157V72.877H534.352V77.536Z" fill="#CCBDAD"/>
<path d="M532.172 70.4981H539.152V65.7891H532.172V70.4981Z" fill="#CCBDAD"/>
<path d="M534.352 266.137H539.157V261.428H534.352V266.137Z" fill="#CCBDAD"/>
<path d="M532.172 259.048H539.152V254.39H532.172V259.048Z" fill="#CCBDAD"/>
<path d="M534.352 252.01H539.157V247.302H534.352V252.01Z" fill="#CCBDAD"/>
<path d="M532.172 244.922H539.152V240.264H532.172V244.922Z" fill="#CCBDAD"/>
<path d="M534.352 237.884H539.157V233.176H534.352V237.884Z" fill="#CCBDAD"/>
<path d="M532.172 230.796H539.152V226.138H532.172V230.796Z" fill="#CCBDAD"/>
<path d="M427.211 98.75H434.141V94.041H427.211V98.75Z" fill="#E9DCCE"/>
<path d="M427.211 84.624H434.141V79.915H427.211V84.624Z" fill="#E9DCCE"/>
<path d="M427.211 70.042H434.141V65.333H427.211V70.042Z" fill="#E9DCCE"/>
<path d="M429.438 77.536H436.419V72.877H429.438V77.536Z" fill="#E9DCCE"/>
<path d="M429.438 91.6619H436.419V87.0039H429.438V91.6619Z" fill="#E9DCCE"/>
<path d="M429.438 105.788H436.419V101.13H429.438V105.788Z" fill="#E9DCCE"/>
<path d="M427.211 154.546H434.141V149.837H427.211V154.546Z" fill="#E9DCCE"/>
<path d="M427.211 140.419H434.141V135.711H427.211V140.419Z" fill="#E9DCCE"/>
<path d="M427.211 125.838H434.141V121.129H427.211V125.838Z" fill="#E9DCCE"/>
<path d="M429.438 133.331H436.419V128.673H429.438V133.331Z" fill="#E9DCCE"/>
<path d="M429.438 147.457H436.419V142.799H429.438V147.457Z" fill="#E9DCCE"/>
<path d="M429.438 161.583H436.419V156.925H429.438V161.583Z" fill="#E9DCCE"/>
<path d="M427.211 207.05H434.141V202.392H427.211V207.05Z" fill="#E9DCCE"/>
<path d="M427.211 192.975H434.141V188.266H427.211V192.975Z" fill="#E9DCCE"/>
<path d="M427.211 178.393H434.141V173.684H427.211V178.393Z" fill="#E9DCCE"/>
<path d="M429.438 185.886H436.419V181.228H429.438V185.886Z" fill="#E9DCCE"/>
<path d="M429.438 200.012H436.419V195.304H429.438V200.012Z" fill="#E9DCCE"/>
<path d="M429.438 214.138H436.419V209.43H429.438V214.138Z" fill="#E9DCCE"/>
<path d="M427.211 259.504H434.141V254.846H427.211V259.504Z" fill="#E9DCCE"/>
<path d="M427.211 245.378H434.141V240.72H427.211V245.378Z" fill="#E9DCCE"/>
<path d="M427.211 230.796H434.141V226.138H427.211V230.796Z" fill="#E9DCCE"/>
<path d="M429.438 238.34H436.419V233.631H429.438V238.34Z" fill="#E9DCCE"/>
<path d="M429.438 252.466H436.419V247.758H429.438V252.466Z" fill="#E9DCCE"/>
<path d="M429.438 266.592H436.419V261.884H429.438V266.592Z" fill="#E9DCCE"/>
<path d="M434.139 94.041H431.812V98.75H434.139V94.041Z" fill="#CCBDAD"/>
<path d="M434.139 79.915H431.812V84.624H434.139V79.915Z" fill="#CCBDAD"/>
<path d="M434.139 65.333H431.812V70.042H434.139V65.333Z" fill="#CCBDAD"/>
<path d="M436.415 72.877H431.812V77.536H436.415V72.877Z" fill="#CCBDAD"/>
<path d="M436.415 87.0039H431.812V91.6619H436.415V87.0039Z" fill="#CCBDAD"/>
<path d="M436.415 101.13H431.812V105.788H436.415V101.13Z" fill="#CCBDAD"/>
<path d="M434.139 149.837H431.812V154.546H434.139V149.837Z" fill="#CCBDAD"/>
<path d="M434.139 135.711H431.812V140.419H434.139V135.711Z" fill="#CCBDAD"/>
<path d="M434.139 121.129H431.812V125.838H434.139V121.129Z" fill="#CCBDAD"/>
<path d="M436.415 128.673H431.812V133.331H436.415V128.673Z" fill="#CCBDAD"/>
<path d="M436.415 142.799H431.812V147.457H436.415V142.799Z" fill="#CCBDAD"/>
<path d="M436.415 156.925H431.812V161.583H436.415V156.925Z" fill="#CCBDAD"/>
<path d="M434.139 202.392H431.812V207.05H434.139V202.392Z" fill="#CCBDAD"/>
<path d="M434.139 188.266H431.812V192.975H434.139V188.266Z" fill="#CCBDAD"/>
<path d="M434.139 173.684H431.812V178.393H434.139V173.684Z" fill="#CCBDAD"/>
<path d="M436.415 181.228H431.812V185.886H436.415V181.228Z" fill="#CCBDAD"/>
<path d="M436.415 195.304H431.812V200.012H436.415V195.304Z" fill="#CCBDAD"/>
<path d="M436.415 209.43H431.812V214.138H436.415V209.43Z" fill="#CCBDAD"/>
<path d="M434.139 254.846H431.812V259.504H434.139V254.846Z" fill="#CCBDAD"/>
<path d="M434.139 240.72H431.812V245.378H434.139V240.72Z" fill="#CCBDAD"/>
<path d="M434.139 226.138H431.812V230.796H434.139V226.138Z" fill="#CCBDAD"/>
<path d="M436.415 233.631H431.812V238.34H436.415V233.631Z" fill="#CCBDAD"/>
<path d="M436.415 247.758H431.812V252.466H436.415V247.758Z" fill="#CCBDAD"/>
<path d="M436.415 261.884H431.812V266.592H436.415V261.884Z" fill="#CCBDAD"/>
<path d="M504.856 18.6008H416.641V24.778H504.856V18.6008Z" fill="#E9DCCE"/>
<path d="M504.86 18.6008H479.266V24.778H504.86V18.6008Z" fill="#B98E83"/>
<path d="M545.473 54.2451H332.977L335.253 60.4221H543.197L545.473 54.2451Z" fill="#E9DCCE"/>
<path d="M545.471 54.2451H431.812V60.4221H543.195L545.471 54.2451Z" fill="#B98E83"/>
<path d="M543.202 111.813H335.258V117.99H543.202V111.813Z" fill="#E1AC9D"/>
<path d="M543.195 111.813H431.812V117.99H543.195V111.813Z" fill="#B98E83"/>
<path d="M543.202 164.267H335.258V170.494H543.202V164.267Z" fill="#E1AC9D"/>
<path d="M543.195 164.267H431.812V170.494H543.195V164.267Z" fill="#B98E83"/>
<path d="M543.202 216.771H335.258V222.999H543.202V216.771Z" fill="#E1AC9D"/>
<path d="M543.195 216.771H431.812V222.999H543.195V216.771Z" fill="#B98E83"/>
<path d="M370.455 46.3469H348.148V54.2449H370.455V46.3469Z" fill="#39312B"/>
<path d="M370.458 46.3469H361.859V54.2449H370.458V46.3469Z" fill="#26211D"/>
<g opacity="0.8">
<path d="M392.162 236.568H352.859V272.212H392.162V236.568Z" fill="#04609E"/>
</g>
<path d="M356.855 272.212H352.859V236.568H356.855V272.212Z" fill="#8F4D3E"/>
<path d="M392.158 238.087V236.568H356.852V272.212H358.369V260.567H392.158V259.048H358.369V238.087H392.158Z" fill="white"/>
<path style="mix-blend-mode:multiply" d="M352.859 251.2L356.855 255.96L392.162 266.592V236.568H352.859V251.2Z" fill="url(#paint25_linear_3198_188)"/>
<path d="M419.274 236.568H405.617V277.225H419.274V236.568Z" fill="#39312B"/>
<path d="M409.613 277.225H405.617V236.568H409.613V277.225Z" fill="#8F4D3E"/>
<path opacity="0.8" d="M368.687 103.813H352.703V71.105H368.687V103.813Z" fill="#04609E"/>
<g style="mix-blend-mode:screen" opacity="0.4">
<path d="M368.686 84.0159L363.729 83.0039L360.492 94.0919L368.686 95.8129V84.0159Z" fill="url(#paint26_linear_3198_188)"/>
<path d="M358.219 101.788H368.689V96.9778L360.141 95.2058L358.219 101.788Z" fill="url(#paint27_linear_3198_188)"/>
</g>
<path d="M356.699 103.813H352.703V71.105H356.699V103.813Z" fill="#8F4D3E"/>
<path d="M370.461 101.788H350.938V105.787H370.461V101.788Z" fill="#E9DCCE"/>
<path d="M372.99 105.788H370.461V101.788H372.99V105.788Z" fill="#CCBDAD"/>
<g style="mix-blend-mode:screen" opacity="0.2">
<path d="M356.703 92.8769L368.691 80.4209V74.3459H368.539L356.703 86.8009V92.8769Z" fill="#04609E"/>
<path d="M356.703 97.282L368.691 85.282V82.447L356.703 94.446V97.282Z" fill="#04609E"/>
</g>
<path d="M368.691 72.574V71.105H356.703V91.712V93.231V101.788H358.221V93.231H368.691V91.712H358.221V72.574H368.691Z" fill="white"/>
<path opacity="0.8" d="M393.976 103.813H377.992V71.105H393.976V103.813Z" fill="#04609E"/>
<g style="mix-blend-mode:screen" opacity="0.4">
<path d="M393.976 84.0159L389.018 83.0039L385.781 94.0919L393.976 95.8129V84.0159Z" fill="url(#paint28_linear_3198_188)"/>
<path d="M383.508 101.788H393.978V96.9778L385.43 95.2058L383.508 101.788Z" fill="url(#paint29_linear_3198_188)"/>
</g>
<path d="M381.988 103.813H377.992V71.105H381.988V103.813Z" fill="#8F4D3E"/>
<path d="M395.751 101.788H376.227V105.787H395.751V101.788Z" fill="#E9DCCE"/>
<path d="M398.279 105.788H395.75V101.788H398.279V105.788Z" fill="#CCBDAD"/>
<g style="mix-blend-mode:screen" opacity="0.2">
<path d="M381.992 92.8769L393.98 80.4209V74.3459H393.828L381.992 86.8009V92.8769Z" fill="#04609E"/>
<path d="M381.992 97.282L393.98 85.282V82.447L381.992 94.446V97.282Z" fill="#04609E"/>
</g>
<path d="M393.98 72.574V71.105H381.992V91.712V93.231V101.788H383.51V93.231H393.98V91.712H383.51V72.574H393.98Z" fill="white"/>
<path opacity="0.8" d="M419.273 103.813H403.289V71.105H419.273V103.813Z" fill="#04609E"/>
<g style="mix-blend-mode:screen" opacity="0.4">
<path d="M419.276 84.0159L414.319 83.0039L411.031 94.0919L419.276 95.8129V84.0159Z" fill="url(#paint30_linear_3198_188)"/>
<path d="M408.805 101.788H419.275V96.9778L410.727 95.2058L408.805 101.788Z" fill="url(#paint31_linear_3198_188)"/>
</g>
<path d="M407.285 103.813H403.289V71.105H407.285V103.813Z" fill="#8F4D3E"/>
<path d="M421.04 101.788H401.516V105.787H421.04V101.788Z" fill="#E9DCCE"/>
<path d="M423.576 105.788H421.047V101.788H423.576V105.788Z" fill="#CCBDAD"/>
<g style="mix-blend-mode:screen" opacity="0.2">
<path d="M407.281 92.8769L419.269 80.4209V74.3459H419.117L407.281 86.8009V92.8769Z" fill="#04609E"/>
<path d="M407.281 97.282L419.269 85.282V82.447L407.281 94.446V97.282Z" fill="#04609E"/>
</g>
<path d="M419.269 72.574V71.105H407.281V91.712V93.231V101.788H408.799V93.231H419.269V91.712H408.799V72.574H419.269Z" fill="white"/>
<path style="mix-blend-mode:multiply" d="M352.703 72.979L356.699 77.789L368.687 80.016V71.105H352.703V72.979Z" fill="url(#paint32_linear_3198_188)"/>
<path style="mix-blend-mode:multiply" d="M378 72.979L381.996 77.789L393.984 80.016V71.105H378V72.979Z" fill="url(#paint33_linear_3198_188)"/>
<path style="mix-blend-mode:multiply" d="M403.289 72.979L407.285 77.789L419.273 80.016V71.105H403.289V72.979Z" fill="url(#paint34_linear_3198_188)"/>
<path opacity="0.8" d="M368.687 159.153H352.703V126.445H368.687V159.153Z" fill="#04609E"/>
<g style="mix-blend-mode:screen" opacity="0.4">
<path d="M368.686 139.356L363.729 138.344L360.492 149.432L368.686 151.153V139.356Z" fill="url(#paint35_linear_3198_188)"/>
<path d="M358.219 157.128H368.689V152.318L360.141 150.546L358.219 157.128Z" fill="url(#paint36_linear_3198_188)"/>
</g>
<path d="M356.699 159.153H352.703V126.445H356.699V159.153Z" fill="#8F4D3E"/>
<path d="M370.461 157.127H350.938V161.127H370.461V157.127Z" fill="#E9DCCE"/>
<path d="M372.99 161.128H370.461V157.128H372.99V161.128Z" fill="#CCBDAD"/>
<g style="mix-blend-mode:screen" opacity="0.2">
<path d="M356.703 148.216L368.691 135.761V129.685H368.539L356.703 142.141V148.216Z" fill="#04609E"/>
<path d="M356.703 152.621L368.691 140.622V137.786L356.703 149.786V152.621Z" fill="#04609E"/>
</g>
<path d="M368.691 127.913V126.445H356.703V147.052V148.571V157.128H358.221V148.571H368.691V147.052H358.221V127.913H368.691Z" fill="white"/>
<path opacity="0.8" d="M393.976 159.153H377.992V126.445H393.976V159.153Z" fill="#04609E"/>
<g style="mix-blend-mode:screen" opacity="0.4">
<path d="M393.976 139.356L389.018 138.344L385.781 149.432L393.976 151.153V139.356Z" fill="url(#paint37_linear_3198_188)"/>
<path d="M383.508 157.128H393.978V152.318L385.43 150.546L383.508 157.128Z" fill="url(#paint38_linear_3198_188)"/>
</g>
<path d="M381.988 159.153H377.992V126.445H381.988V159.153Z" fill="#8F4D3E"/>
<path d="M395.751 157.127H376.227V161.127H395.751V157.127Z" fill="#E9DCCE"/>
<path d="M398.279 161.128H395.75V157.128H398.279V161.128Z" fill="#CCBDAD"/>
<g style="mix-blend-mode:screen" opacity="0.2">
<path d="M381.992 148.216L393.98 135.761V129.685H393.828L381.992 142.141V148.216Z" fill="#04609E"/>
<path d="M381.992 152.621L393.98 140.622V137.786L381.992 149.786V152.621Z" fill="#04609E"/>
</g>
<path d="M393.98 127.913V126.445H381.992V147.052V148.571V157.128H383.51V148.571H393.98V147.052H383.51V127.913H393.98Z" fill="white"/>
<path opacity="0.8" d="M419.273 159.153H403.289V126.445H419.273V159.153Z" fill="#04609E"/>
<g style="mix-blend-mode:screen" opacity="0.4">
<path d="M419.276 139.356L414.319 138.344L411.031 149.432L419.276 151.153V139.356Z" fill="url(#paint39_linear_3198_188)"/>
<path d="M408.805 157.128H419.275V152.318L410.727 150.546L408.805 157.128Z" fill="url(#paint40_linear_3198_188)"/>
</g>
<path d="M407.285 159.153H403.289V126.445H407.285V159.153Z" fill="#8F4D3E"/>
<path d="M421.04 157.127H401.516V161.127H421.04V157.127Z" fill="#E9DCCE"/>
<path d="M423.576 161.128H421.047V157.128H423.576V161.128Z" fill="#CCBDAD"/>
<g style="mix-blend-mode:screen" opacity="0.2">
<path d="M407.281 148.216L419.269 135.761V129.685H419.117L407.281 142.141V148.216Z" fill="#04609E"/>
<path d="M407.281 152.621L419.269 140.622V137.786L407.281 149.786V152.621Z" fill="#04609E"/>
</g>
<path d="M419.269 127.913V126.445H407.281V147.052V148.571V157.128H408.799V148.571H419.269V147.052H408.799V127.913H419.269Z" fill="white"/>
<path style="mix-blend-mode:multiply" d="M352.703 128.318L356.699 133.078L368.687 135.356V126.445H352.703V128.318Z" fill="url(#paint41_linear_3198_188)"/>
<path style="mix-blend-mode:multiply" d="M378 128.318L381.996 133.078L393.984 135.356V126.445H378V128.318Z" fill="url(#paint42_linear_3198_188)"/>
<path style="mix-blend-mode:multiply" d="M403.289 128.318L407.285 133.078L419.273 135.356V126.445H403.289V128.318Z" fill="url(#paint43_linear_3198_188)"/>
<path opacity="0.8" d="M368.687 211.607H352.703V178.899H368.687V211.607Z" fill="#04609E"/>
<g style="mix-blend-mode:screen" opacity="0.4">
<path d="M368.686 191.861L363.729 190.797L360.492 201.936L368.686 203.658V191.861Z" fill="url(#paint44_linear_3198_188)"/>
<path d="M358.219 209.632H368.689V204.772L360.141 203L358.219 209.632Z" fill="url(#paint45_linear_3198_188)"/>
</g>
<path d="M356.699 211.607H352.703V178.899H356.699V211.607Z" fill="#8F4D3E"/>
<path d="M370.461 209.632H350.938V213.632H370.461V209.632Z" fill="#E9DCCE"/>
<path d="M372.99 213.632H370.461V209.632H372.99V213.632Z" fill="#CCBDAD"/>
<g style="mix-blend-mode:screen" opacity="0.2">
<path d="M356.703 200.721L368.691 188.266V182.19H368.539L356.703 194.645V200.721Z" fill="#04609E"/>
<path d="M356.703 205.126L368.691 193.126V190.24L356.703 202.29V205.126Z" fill="#04609E"/>
</g>
<path d="M368.691 180.418V178.899H356.703V199.556V201.075V209.632H358.221V201.075H368.691V199.556H358.221V180.418H368.691Z" fill="white"/>
<path opacity="0.8" d="M393.976 211.607H377.992V178.899H393.976V211.607Z" fill="#04609E"/>
<g style="mix-blend-mode:screen" opacity="0.4">
<path d="M393.976 191.861L389.018 190.797L385.781 201.936L393.976 203.658V191.861Z" fill="url(#paint46_linear_3198_188)"/>
<path d="M383.508 209.632H393.978V204.772L385.43 203L383.508 209.632Z" fill="url(#paint47_linear_3198_188)"/>
</g>
<path d="M381.988 211.607H377.992V178.899H381.988V211.607Z" fill="#8F4D3E"/>
<path d="M395.751 209.632H376.227V213.632H395.751V209.632Z" fill="#E9DCCE"/>
<path d="M398.279 213.632H395.75V209.632H398.279V213.632Z" fill="#CCBDAD"/>
<g style="mix-blend-mode:screen" opacity="0.2">
<path d="M381.992 200.721L393.98 188.266V182.19H393.828L381.992 194.645V200.721Z" fill="#04609E"/>
<path d="M381.992 205.126L393.98 193.126V190.24L381.992 202.29V205.126Z" fill="#04609E"/>
</g>
<path d="M393.98 180.418V178.899H381.992V199.556V201.075V209.632H383.51V201.075H393.98V199.556H383.51V180.418H393.98Z" fill="white"/>
<path opacity="0.8" d="M419.273 211.607H403.289V178.899H419.273V211.607Z" fill="#04609E"/>
<g style="mix-blend-mode:screen" opacity="0.4">
<path d="M419.276 191.861L414.319 190.797L411.031 201.936L419.276 203.658V191.861Z" fill="url(#paint48_linear_3198_188)"/>
<path d="M408.805 209.632H419.275V204.772L410.727 203L408.805 209.632Z" fill="url(#paint49_linear_3198_188)"/>
</g>
<path d="M407.285 211.607H403.289V178.899H407.285V211.607Z" fill="#8F4D3E"/>
<path d="M421.04 209.632H401.516V213.632H421.04V209.632Z" fill="#E9DCCE"/>
<path d="M423.576 213.632H421.047V209.632H423.576V213.632Z" fill="#CCBDAD"/>
<g style="mix-blend-mode:screen" opacity="0.2">
<path d="M407.281 200.721L419.269 188.266V182.19H419.117L407.281 194.645V200.721Z" fill="#04609E"/>
<path d="M407.281 205.126L419.269 193.126V190.24L407.281 202.29V205.126Z" fill="#04609E"/>
</g>
<path d="M419.269 180.418V178.899H407.281V199.556V201.075V209.632H408.799V201.075H419.269V199.556H408.799V180.418H419.269Z" fill="white"/>
<path style="mix-blend-mode:multiply" d="M352.703 180.823L356.699 185.582L368.687 187.81V178.899H352.703V180.823Z" fill="url(#paint50_linear_3198_188)"/>
<path style="mix-blend-mode:multiply" d="M378 180.823L381.996 185.582L393.984 187.81V178.899H378V180.823Z" fill="url(#paint51_linear_3198_188)"/>
<path style="mix-blend-mode:multiply" d="M403.289 180.823L407.285 185.582L419.273 187.81V178.899H403.289V180.823Z" fill="url(#paint52_linear_3198_188)"/>
<path d="M431.82 272.263H336.371L335.258 277.225H431.82V272.263Z" fill="#5B4E42"/>
<path d="M542.082 272.263H431.812V277.225H543.195L542.082 272.263Z" fill="#39312B"/>
<path style="mix-blend-mode:multiply" d="M340.359 61.9411L431.812 68.5741L538.086 72.0171V60.4221H431.812H340.359V61.9411Z" fill="url(#paint53_linear_3198_188)"/>
<path style="mix-blend-mode:multiply" d="M340.359 119.509L431.812 125.382L538.086 129.534V117.99H431.812H340.359V119.509Z" fill="url(#paint54_linear_3198_188)"/>
<path style="mix-blend-mode:multiply" d="M340.359 172.013L431.812 178.646L538.086 182.038V170.494H431.812H340.359V172.013Z" fill="url(#paint55_linear_3198_188)"/>
<path style="mix-blend-mode:multiply" d="M340.359 224.518L431.812 231.15L538.086 234.543V222.999H431.812H340.359V224.518Z" fill="url(#paint56_linear_3198_188)"/>
<path d="M356.04 231.454C350.678 231.454 346.328 235.808 346.328 241.175V241.428V244.466C346.328 246.39 347.896 248.01 349.869 248.01C351.791 248.01 353.359 246.39 353.359 244.466C353.359 246.39 354.927 248.01 356.9 248.01C358.822 248.01 360.39 246.39 360.39 244.466C360.39 246.39 361.958 248.01 363.931 248.01C365.853 248.01 367.421 246.39 367.421 244.466C367.421 246.39 368.989 248.01 370.962 248.01C372.884 248.01 374.452 246.39 374.452 244.466C374.452 246.39 376.02 248.01 377.993 248.01C379.915 248.01 381.483 246.39 381.483 244.466V241.428H396.455V231.454H356.04Z" fill="#FFFAF5"/>
<path d="M391.247 231.454C385.834 231.454 381.484 235.808 381.484 241.175V241.428V245.479C381.484 246.846 382.597 248.01 384.013 248.01C385.379 248.01 386.492 246.846 386.492 245.479C386.492 246.846 387.605 248.01 388.971 248.01C390.387 248.01 391.5 246.846 391.5 245.479C391.5 246.846 392.612 248.01 393.978 248.01C395.344 248.01 396.457 246.846 396.457 245.479V241.428V231.454H391.247Z" fill="#E9DCCE"/>
<path style="mix-blend-mode:multiply" d="M396.461 246.441L405.616 248.112L419.274 263.757V233.074L396.461 231.454V246.441Z" fill="url(#paint57_linear_3198_188)"/>
<path d="M563.939 266.997C562.168 266.845 560.398 266.997 558.729 267.402C557.666 262.187 553.266 258.035 547.702 257.58C547.567 257.546 547.432 257.529 547.297 257.529C546.032 249.327 538.951 243.049 530.403 243.049C523.877 243.049 518.162 246.745 515.329 252.162C515.295 252.162 515.278 252.145 515.278 252.112C513.306 251.555 511.232 251.2 509.057 251.2C497.271 251.2 487.711 260.769 487.711 272.567C487.711 274.187 487.88 275.739 488.217 277.225H577.444C575.37 271.706 570.261 267.554 563.939 266.997Z" fill="url(#paint58_linear_3198_188)"/>
<path d="M72.9331 239.454H71.8203V242.542H72.9331V239.454Z" fill="white"/>
<path d="M48.9097 239.454H47.7969V242.542H48.9097V239.454Z" fill="white"/>
<path fill-rule="evenodd" clip-rule="evenodd" d="M50.2275 244.821H46.4844V241.125H50.2275V244.821ZM47.4454 243.859H49.2664V242.036H47.4454V243.859Z" fill="white"/>
<path fill-rule="evenodd" clip-rule="evenodd" d="M74.2509 244.821H70.5078V241.125H74.2509V244.821ZM71.4689 243.859H73.2898V242.036H71.4689V243.859Z" fill="white"/>
<path d="M78.5485 261.428H42.1797V243.606H78.5485V261.428Z" fill="white"/>
<path d="M37.7289 230.037L35.0481 225.682L32.3672 230.037V277.326H37.7289V230.037Z" fill="white"/>
<path d="M78.5504 239.454L82.9005 234.138H23.8203L28.1704 239.454H78.5504Z" fill="white"/>
<path d="M77.0834 259.909H43.6484V245.125H77.0834V259.909Z" fill="#FF3535"/>
<path d="M562.115 277.225H559.688V198.24H562.115V277.225Z" fill="#5B4E42"/>
<path d="M562.879 277.225H558.883V241.53H562.879V277.225Z" fill="#39312B"/>
<path d="M565.15 188.468H556.602C556.602 192.215 557.107 195.759 558.321 199H563.43C564.594 195.709 565.099 192.215 565.15 188.468Z" fill="#CBE5FA"/>
<path d="M562.923 201.632C561.456 201.835 560.141 201.784 558.826 201.632C558.523 201.582 558.32 201.278 558.32 200.974V199H563.429V200.974C563.429 201.278 563.227 201.582 562.923 201.632Z" fill="#39312B"/>
<path d="M562.116 184.519H559.637C557.462 184.519 555.742 186.291 555.742 188.468H566.061C566.061 186.291 564.291 184.519 562.116 184.519Z" fill="#39312B"/>
<path style="mix-blend-mode:screen" opacity="0.4" d="M595.753 193.734C595.753 213.024 580.123 228.619 560.902 228.619C541.63 228.619 526 213.024 526 193.734C526 174.494 541.63 158.849 560.902 158.849C580.123 158.849 595.753 174.494 595.753 193.734Z" fill="url(#paint59_radial_3198_188)"/>
<path d="M467.178 277.225C466.622 276.971 466.369 276.313 466.622 275.756L470.415 266.946L466.925 246.238C466.774 245.631 467.229 245.023 467.836 244.922C468.443 244.821 468.999 245.226 469.1 245.884L472.793 267.2L468.696 276.668C468.443 277.225 467.785 277.478 467.178 277.225Z" fill="#39312B"/>
<path d="M508.85 277.225C508.293 276.971 508.041 276.313 508.293 275.756L512.087 266.946L508.546 246.238C508.445 245.631 508.85 245.023 509.507 244.922C510.114 244.821 510.671 245.226 510.772 245.884L514.414 267.2L510.317 276.668C510.064 277.225 509.406 277.478 508.85 277.225Z" fill="#39312B"/>
<path d="M478.907 276.465L476.125 266.946L478.3 266.339L481.082 275.858C481.234 276.465 480.88 277.073 480.273 277.225C479.716 277.427 479.059 277.073 478.907 276.465Z" fill="#39312B"/>
<path d="M521.247 276.465L518.516 266.946L520.64 266.339L523.422 275.858C523.624 276.465 523.27 277.073 522.663 277.225C522.056 277.427 521.449 277.073 521.247 276.465Z" fill="#39312B"/>
<path d="M461.359 246.998L461.966 246.441L463.484 255.96L462.826 256.517L461.359 246.998Z" fill="#CF8E77"/>
<path d="M463.023 257.934L463.681 257.377L464.44 262.288L463.782 262.795L463.023 257.934Z" fill="#CF8E77"/>
<path d="M516.952 255.96H463.486L461.969 246.441H515.485L516.952 255.96Z" fill="#C47357"/>
<path d="M517.911 262.288H464.445L463.688 257.377H517.152L517.911 262.288Z" fill="#C47357"/>
<path d="M476.531 265.427L477.239 267.858H530.756L529.997 265.427H476.531Z" fill="#C47357"/>
<path d="M463.781 267.858H477.236L476.528 265.427H463.781V267.858Z" fill="#CF8E77"/>
<path d="M462.82 256.516L463.478 255.959H516.943L516.286 256.516H462.82Z" fill="#8F4D3E"/>
<path d="M463.781 262.795H517.297L517.904 262.289H464.439L463.781 262.795Z" fill="#8F4D3E"/>
<path style="mix-blend-mode:screen" opacity="0.1" d="M462.475 249.631L513.613 262.288H517.913L515.485 246.441H461.969L462.475 249.631Z" fill="url(#paint60_linear_3198_188)"/>
<path d="M3.38281 276.82H590.492" stroke="#5B4E42" stroke-width="6.5" stroke-miterlimit="10" stroke-linecap="round"/>
<path d="M584.02 10.4493C583.717 10.4493 583.413 10.4662 583.11 10.4999C581.086 4.77859 575.624 0.67749 569.2 0.67749C563.686 0.67749 558.881 3.66469 556.301 8.17089C550.231 8.67719 545.477 13.7909 545.477 19.9679C545.477 23.1577 593.53 23.1577 593.53 19.9679C593.53 14.7023 589.281 10.4493 584.02 10.4493Z" fill="url(#paint61_linear_3198_188)"/>
</g>
<defs>
<linearGradient id="paint0_linear_3198_188" x1="456.288" y1="274.707" x2="456.288" y2="35.184" gradientUnits="userSpaceOnUse">
<stop stop-color="#83CDF5" stop-opacity="0"/>
<stop offset="1" stop-color="#7CC2E8"/>
</linearGradient>
<linearGradient id="paint1_linear_3198_188" x1="90.0089" y1="277.242" x2="90.0089" y2="177.013" gradientUnits="userSpaceOnUse">
<stop stop-color="#83CDF5" stop-opacity="0"/>
<stop offset="1" stop-color="#7CC2E8"/>
</linearGradient>
<linearGradient id="paint2_linear_3198_188" x1="90.7836" y1="250.769" x2="160.34" y2="250.769" gradientUnits="userSpaceOnUse">
<stop stop-color="#6CAD5C"/>
<stop offset="1" stop-color="#78C065"/>
</linearGradient>
<linearGradient id="paint3_linear_3198_188" x1="235.668" y1="151.217" x2="247.907" y2="156.73" gradientUnits="userSpaceOnUse">
<stop stop-color="#C4C4C4"/>
<stop offset="1" stop-color="white" stop-opacity="0"/>
</linearGradient>
<linearGradient id="paint4_linear_3198_188" x1="270.216" y1="261.608" x2="146.26" y2="150.449" gradientUnits="userSpaceOnUse">
<stop stop-color="white" stop-opacity="0"/>
<stop offset="1" stop-color="#C4C4C4"/>
</linearGradient>
<linearGradient id="paint5_linear_3198_188" x1="165.17" y1="270.5" x2="146.911" y2="254.126" gradientUnits="userSpaceOnUse">
<stop stop-color="white" stop-opacity="0"/>
<stop offset="1" stop-color="#C4C4C4"/>
</linearGradient>
<linearGradient id="paint6_linear_3198_188" x1="226.698" y1="270.5" x2="208.438" y2="254.126" gradientUnits="userSpaceOnUse">
<stop stop-color="white" stop-opacity="0"/>
<stop offset="1" stop-color="#C4C4C4"/>
</linearGradient>
<linearGradient id="paint7_linear_3198_188" x1="165.537" y1="221.784" x2="173.192" y2="231.386" gradientUnits="userSpaceOnUse">
<stop stop-color="white"/>
<stop offset="1" stop-color="white" stop-opacity="0"/>
</linearGradient>
<linearGradient id="paint8_linear_3198_188" x1="173.821" y1="238.155" x2="152.887" y2="252.601" gradientUnits="userSpaceOnUse">
<stop stop-color="#04609E"/>
<stop offset="1" stop-color="#83CDF5" stop-opacity="0"/>
</linearGradient>
<linearGradient id="paint9_linear_3198_188" x1="174.797" y1="239.569" x2="153.862" y2="254.015" gradientUnits="userSpaceOnUse">
<stop stop-color="#04609E"/>
<stop offset="1" stop-color="#83CDF5" stop-opacity="0"/>
</linearGradient>
<linearGradient id="paint10_linear_3198_188" x1="158.276" y1="245.531" x2="158.276" y2="251.303" gradientUnits="userSpaceOnUse">
<stop stop-color="#78C065"/>
<stop offset="1" stop-color="#6CAD5C"/>
</linearGradient>
<linearGradient id="paint11_linear_3198_188" x1="325.879" y1="275.812" x2="257.739" y2="214.706" gradientUnits="userSpaceOnUse">
<stop stop-color="white" stop-opacity="0"/>
<stop offset="1" stop-color="#C4C4C4"/>
</linearGradient>
<linearGradient id="paint12_linear_3198_188" x1="162.248" y1="241.364" x2="146.012" y2="226.803" gradientUnits="userSpaceOnUse">
<stop stop-color="white" stop-opacity="0"/>
<stop offset="1" stop-color="#C4C4C4"/>
</linearGradient>
<linearGradient id="paint13_linear_3198_188" x1="226.757" y1="221.784" x2="234.412" y2="231.386" gradientUnits="userSpaceOnUse">
<stop stop-color="white"/>
<stop offset="1" stop-color="white" stop-opacity="0"/>
</linearGradient>
<linearGradient id="paint14_linear_3198_188" x1="236.129" y1="238.994" x2="215.199" y2="249.987" gradientUnits="userSpaceOnUse">
<stop stop-color="#04609E"/>
<stop offset="1" stop-color="#83CDF5" stop-opacity="0"/>
</linearGradient>
<linearGradient id="paint15_linear_3198_188" x1="237.141" y1="240.92" x2="216.211" y2="251.913" gradientUnits="userSpaceOnUse">
<stop stop-color="#04609E"/>
<stop offset="1" stop-color="#83CDF5" stop-opacity="0"/>
</linearGradient>
<linearGradient id="paint16_linear_3198_188" x1="223.468" y1="241.364" x2="207.232" y2="226.803" gradientUnits="userSpaceOnUse">
<stop stop-color="white" stop-opacity="0"/>
<stop offset="1" stop-color="#C4C4C4"/>
</linearGradient>
<linearGradient id="paint17_linear_3198_188" x1="237.743" y1="256.086" x2="237.743" y2="283.95" gradientUnits="userSpaceOnUse">
<stop stop-color="#78C065"/>
<stop offset="1" stop-color="#6CAD5C"/>
</linearGradient>
<linearGradient id="paint18_linear_3198_188" x1="331.67" y1="248.357" x2="331.67" y2="279.602" gradientUnits="userSpaceOnUse">
<stop stop-color="#6CAD5C"/>
<stop offset="1" stop-color="#5C944F"/>
</linearGradient>
<linearGradient id="paint19_linear_3198_188" x1="287.631" y1="251.29" x2="246.422" y2="214.335" gradientUnits="userSpaceOnUse">
<stop stop-color="white" stop-opacity="0"/>
<stop offset="1" stop-color="#C4C4C4"/>
</linearGradient>
<linearGradient id="paint20_linear_3198_188" x1="188.409" y1="272.633" x2="144.366" y2="272.633" gradientUnits="userSpaceOnUse">
<stop stop-color="white" stop-opacity="0"/>
<stop offset="1" stop-color="#C4C4C4"/>
</linearGradient>
<linearGradient id="paint21_linear_3198_188" x1="105.495" y1="67.1699" x2="105.495" y2="120.288" gradientUnits="userSpaceOnUse">
<stop stop-color="#DCE7ED"/>
<stop offset="1" stop-color="#83CDF5" stop-opacity="0"/>
</linearGradient>
<linearGradient id="paint22_linear_3198_188" x1="201.861" y1="16.6636" x2="201.861" y2="54.8623" gradientUnits="userSpaceOnUse">
<stop stop-color="#DCE7ED"/>
<stop offset="1" stop-color="#83CDF5" stop-opacity="0"/>
</linearGradient>
<linearGradient id="paint23_linear_3198_188" x1="480.113" y1="60.2131" x2="429.362" y2="14.7013" gradientUnits="userSpaceOnUse">
<stop stop-color="white" stop-opacity="0"/>
<stop offset="1" stop-color="#C4C4C4"/>
</linearGradient>
<linearGradient id="paint24_linear_3198_188" x1="463.579" y1="32.0479" x2="463.579" y2="54.1649" gradientUnits="userSpaceOnUse">
<stop stop-color="#39312B"/>
<stop offset="1" stop-color="#39312B" stop-opacity="0"/>
</linearGradient>
<linearGradient id="paint25_linear_3198_188" x1="352.883" y1="236.569" x2="392.151" y2="236.569" gradientUnits="userSpaceOnUse">
<stop stop-color="#C4C4C4"/>
<stop offset="1" stop-color="white" stop-opacity="0"/>
</linearGradient>
<linearGradient id="paint26_linear_3198_188" x1="374.564" y1="83.0459" x2="374.564" y2="101.889" gradientUnits="userSpaceOnUse">
<stop stop-color="#035185"/>
<stop offset="1" stop-color="#04609E" stop-opacity="0"/>
</linearGradient>
<linearGradient id="paint27_linear_3198_188" x1="365.529" y1="83.0458" x2="365.529" y2="101.889" gradientUnits="userSpaceOnUse">
<stop stop-color="#035185"/>
<stop offset="1" stop-color="#04609E" stop-opacity="0"/>
</linearGradient>
<linearGradient id="paint28_linear_3198_188" x1="399.847" y1="83.0459" x2="399.847" y2="101.889" gradientUnits="userSpaceOnUse">
<stop stop-color="#035185"/>
<stop offset="1" stop-color="#04609E" stop-opacity="0"/>
</linearGradient>
<linearGradient id="paint29_linear_3198_188" x1="390.813" y1="83.0458" x2="390.813" y2="101.889" gradientUnits="userSpaceOnUse">
<stop stop-color="#035185"/>
<stop offset="1" stop-color="#04609E" stop-opacity="0"/>
</linearGradient>
<linearGradient id="paint30_linear_3198_188" x1="425.143" y1="83.0459" x2="425.143" y2="101.889" gradientUnits="userSpaceOnUse">
<stop stop-color="#035185"/>
<stop offset="1" stop-color="#04609E" stop-opacity="0"/>
</linearGradient>
<linearGradient id="paint31_linear_3198_188" x1="416.104" y1="83.0458" x2="416.104" y2="101.889" gradientUnits="userSpaceOnUse">
<stop stop-color="#035185"/>
<stop offset="1" stop-color="#04609E" stop-opacity="0"/>
</linearGradient>
<linearGradient id="paint32_linear_3198_188" x1="351.737" y1="67.42" x2="367.212" y2="72.373" gradientUnits="userSpaceOnUse">
<stop stop-color="#C4C4C4"/>
<stop offset="1" stop-color="white" stop-opacity="0"/>
</linearGradient>
<linearGradient id="paint33_linear_3198_188" x1="377.029" y1="67.42" x2="392.504" y2="72.373" gradientUnits="userSpaceOnUse">
<stop stop-color="#C4C4C4"/>
<stop offset="1" stop-color="white" stop-opacity="0"/>
</linearGradient>
<linearGradient id="paint34_linear_3198_188" x1="402.313" y1="67.42" x2="417.787" y2="72.373" gradientUnits="userSpaceOnUse">
<stop stop-color="#C4C4C4"/>
<stop offset="1" stop-color="white" stop-opacity="0"/>
</linearGradient>
<linearGradient id="paint35_linear_3198_188" x1="374.564" y1="138.385" x2="374.564" y2="157.227" gradientUnits="userSpaceOnUse">
<stop stop-color="#035185"/>
<stop offset="1" stop-color="#04609E" stop-opacity="0"/>
</linearGradient>
<linearGradient id="paint36_linear_3198_188" x1="365.529" y1="138.386" x2="365.529" y2="157.228" gradientUnits="userSpaceOnUse">
<stop stop-color="#035185"/>
<stop offset="1" stop-color="#04609E" stop-opacity="0"/>
</linearGradient>
<linearGradient id="paint37_linear_3198_188" x1="399.847" y1="138.385" x2="399.847" y2="157.227" gradientUnits="userSpaceOnUse">
<stop stop-color="#035185"/>
<stop offset="1" stop-color="#04609E" stop-opacity="0"/>
</linearGradient>
<linearGradient id="paint38_linear_3198_188" x1="390.813" y1="138.386" x2="390.813" y2="157.228" gradientUnits="userSpaceOnUse">
<stop stop-color="#035185"/>
<stop offset="1" stop-color="#04609E" stop-opacity="0"/>
</linearGradient>
<linearGradient id="paint39_linear_3198_188" x1="425.143" y1="138.385" x2="425.143" y2="157.227" gradientUnits="userSpaceOnUse">
<stop stop-color="#035185"/>
<stop offset="1" stop-color="#04609E" stop-opacity="0"/>
</linearGradient>
<linearGradient id="paint40_linear_3198_188" x1="416.104" y1="138.386" x2="416.104" y2="157.228" gradientUnits="userSpaceOnUse">
<stop stop-color="#035185"/>
<stop offset="1" stop-color="#04609E" stop-opacity="0"/>
</linearGradient>
<linearGradient id="paint41_linear_3198_188" x1="351.737" y1="122.754" x2="367.212" y2="127.707" gradientUnits="userSpaceOnUse">
<stop stop-color="#C4C4C4"/>
<stop offset="1" stop-color="white" stop-opacity="0"/>
</linearGradient>
<linearGradient id="paint42_linear_3198_188" x1="377.029" y1="122.754" x2="392.504" y2="127.707" gradientUnits="userSpaceOnUse">
<stop stop-color="#C4C4C4"/>
<stop offset="1" stop-color="white" stop-opacity="0"/>
</linearGradient>
<linearGradient id="paint43_linear_3198_188" x1="402.313" y1="122.754" x2="417.787" y2="127.707" gradientUnits="userSpaceOnUse">
<stop stop-color="#C4C4C4"/>
<stop offset="1" stop-color="white" stop-opacity="0"/>
</linearGradient>
<linearGradient id="paint44_linear_3198_188" x1="374.564" y1="190.878" x2="374.564" y2="209.72" gradientUnits="userSpaceOnUse">
<stop stop-color="#035185"/>
<stop offset="1" stop-color="#04609E" stop-opacity="0"/>
</linearGradient>
<linearGradient id="paint45_linear_3198_188" x1="365.529" y1="190.878" x2="365.529" y2="209.72" gradientUnits="userSpaceOnUse">
<stop stop-color="#035185"/>
<stop offset="1" stop-color="#04609E" stop-opacity="0"/>
</linearGradient>
<linearGradient id="paint46_linear_3198_188" x1="399.848" y1="190.878" x2="399.848" y2="209.72" gradientUnits="userSpaceOnUse">
<stop stop-color="#035185"/>
<stop offset="1" stop-color="#04609E" stop-opacity="0"/>
</linearGradient>
<linearGradient id="paint47_linear_3198_188" x1="390.813" y1="190.878" x2="390.813" y2="209.72" gradientUnits="userSpaceOnUse">
<stop stop-color="#035185"/>
<stop offset="1" stop-color="#04609E" stop-opacity="0"/>
</linearGradient>
<linearGradient id="paint48_linear_3198_188" x1="425.143" y1="190.878" x2="425.143" y2="209.72" gradientUnits="userSpaceOnUse">
<stop stop-color="#035185"/>
<stop offset="1" stop-color="#04609E" stop-opacity="0"/>
</linearGradient>
<linearGradient id="paint49_linear_3198_188" x1="416.104" y1="190.878" x2="416.104" y2="209.72" gradientUnits="userSpaceOnUse">
<stop stop-color="#035185"/>
<stop offset="1" stop-color="#04609E" stop-opacity="0"/>
</linearGradient>
<linearGradient id="paint50_linear_3198_188" x1="351.737" y1="175.244" x2="367.212" y2="180.197" gradientUnits="userSpaceOnUse">
<stop stop-color="#C4C4C4"/>
<stop offset="1" stop-color="white" stop-opacity="0"/>
</linearGradient>
<linearGradient id="paint51_linear_3198_188" x1="377.029" y1="175.244" x2="392.504" y2="180.197" gradientUnits="userSpaceOnUse">
<stop stop-color="#C4C4C4"/>
<stop offset="1" stop-color="white" stop-opacity="0"/>
</linearGradient>
<linearGradient id="paint52_linear_3198_188" x1="402.313" y1="175.244" x2="417.787" y2="180.197" gradientUnits="userSpaceOnUse">
<stop stop-color="#C4C4C4"/>
<stop offset="1" stop-color="white" stop-opacity="0"/>
</linearGradient>
<linearGradient id="paint53_linear_3198_188" x1="339.83" y1="50.5491" x2="536.463" y2="70.0001" gradientUnits="userSpaceOnUse">
<stop stop-color="#C4C4C4"/>
<stop offset="1" stop-color="white" stop-opacity="0"/>
</linearGradient>
<linearGradient id="paint54_linear_3198_188" x1="339.83" y1="108.111" x2="536.463" y2="127.563" gradientUnits="userSpaceOnUse">
<stop stop-color="#C4C4C4"/>
<stop offset="1" stop-color="white" stop-opacity="0"/>
</linearGradient>
<linearGradient id="paint55_linear_3198_188" x1="339.83" y1="160.604" x2="536.463" y2="180.055" gradientUnits="userSpaceOnUse">
<stop stop-color="#C4C4C4"/>
<stop offset="1" stop-color="white" stop-opacity="0"/>
</linearGradient>
<linearGradient id="paint56_linear_3198_188" x1="339.83" y1="213.096" x2="536.463" y2="232.548" gradientUnits="userSpaceOnUse">
<stop stop-color="#C4C4C4"/>
<stop offset="1" stop-color="white" stop-opacity="0"/>
</linearGradient>
<linearGradient id="paint57_linear_3198_188" x1="396.483" y1="231.443" x2="419.264" y2="231.443" gradientUnits="userSpaceOnUse">
<stop stop-color="#C4C4C4"/>
<stop offset="1" stop-color="white" stop-opacity="0"/>
</linearGradient>
<linearGradient id="paint58_linear_3198_188" x1="539.076" y1="236.862" x2="539.076" y2="280.187" gradientUnits="userSpaceOnUse">
<stop stop-color="#6CAD5C"/>
<stop offset="1" stop-color="#78C065"/>
</linearGradient>
<radialGradient id="paint59_radial_3198_188" cx="0" cy="0" r="1" gradientUnits="userSpaceOnUse" gradientTransform="translate(560.881 193.747) scale(34.8573 34.8909)">
<stop stop-color="white"/>
<stop offset="1" stop-color="white" stop-opacity="0"/>
</radialGradient>
<linearGradient id="paint60_linear_3198_188" x1="461.981" y1="246.442" x2="517.931" y2="246.442" gradientUnits="userSpaceOnUse">
<stop stop-color="#C4C4C4"/>
<stop offset="1" stop-color="white" stop-opacity="0"/>
</linearGradient>
<linearGradient id="paint61_linear_3198_188" x1="574.381" y1="-3.62061" x2="574.381" y2="42.311" gradientUnits="userSpaceOnUse">
<stop stop-color="#DCE7ED"/>
<stop offset="1" stop-color="#83CDF5" stop-opacity="0"/>
</linearGradient>
<clipPath id="clip0_3198_188">
<rect width="596" height="281" fill="white"/>
</clipPath>
</defs>
</svg>
