<svg width="86" height="89" viewBox="0 0 86 89" fill="none" xmlns="http://www.w3.org/2000/svg">
<path d="M68.5887 79.33C68.1297 77.4036 67.6452 75.3359 67.1607 73.0499C64.0242 58.2166 61.2066 57.9597 59.6638 57.1121C58.1211 56.2645 41.929 47.9167 41.929 47.9167L34.7764 51.7696V79.33H68.5887Z" fill="#E8F6EF"/>
<path d="M0.964081 79.33C1.42307 77.4036 1.90756 75.3359 2.39205 73.0499C5.52849 58.2166 8.39718 57.9597 9.88889 57.1121C11.3806 56.2645 27.6238 47.9167 27.6238 47.9167L34.7764 51.7696V79.33H0.964081Z" fill="#CFE8DD"/>
<path d="M41.3423 39.248L34.8272 38.3362L28.3121 39.248C28.3121 39.248 28.7966 45.1685 27.6236 47.9168C27.6236 47.9168 31.1426 52.0265 34.8272 51.7697C38.5119 52.0394 42.0308 47.9168 42.0308 47.9168C40.8706 45.1171 41.3423 39.248 41.3423 39.248Z" fill="#F4C297"/>
<path d="M48.8648 24.7229H48.5843C48.6991 23.7597 48.8138 22.8094 48.9286 21.9104C49.5278 17.2613 50.892 3.66089 34.7764 3.66089C18.6607 3.66089 20.0122 17.2613 20.6242 21.9104C20.7389 22.8094 20.8537 23.7597 20.9684 24.7229H20.7007C18.24 22.8864 18.036 27.6639 19.0559 29.2949C19.6686 30.205 20.1254 31.2122 20.4074 32.2744C20.7899 33.3789 21.4147 33.5587 21.9374 33.4046C22.0011 34.0467 22.0649 34.6118 22.1031 35.0613C22.3199 37.6298 28.3123 42.6 29.6637 44.1796C31.0152 45.7593 33.0552 45.0786 33.7309 45.0401H34.7509H35.7708C36.4466 45.0401 38.563 45.6437 39.838 44.1796C41.113 42.7156 47.1819 37.5785 47.3986 35.0613C47.3986 34.6118 47.5006 34.0467 47.5644 33.4046C48.0871 33.5202 48.7118 33.4046 49.0943 32.2744C49.3842 31.2105 49.8497 30.2033 50.4713 29.2949C51.5168 27.6639 51.3128 22.8864 48.8648 24.7229Z" fill="#F4C297"/>
<path d="M48.3167 23.1819C48.3167 24.0039 46.8377 30.5023 46.5955 32.5699C46.1237 36.4998 43.3188 38.3363 42.5028 39.2482C41.6868 40.16 38.9839 41.059 37.8364 41.4699C35.8169 41.8809 33.7361 41.8809 31.7165 41.4699C30.5691 41.059 27.8916 40.1857 27.0501 39.2482C26.2087 38.3106 23.4292 36.4998 22.9575 32.5699C22.7152 30.5023 21.249 24.0039 21.249 23.1819C21.249 22.6297 20.9813 22.8352 20.8155 23.4645L20.9685 24.7487C20.9685 24.7487 21.81 33.4561 21.963 33.4304C22.0267 34.0725 22.0905 34.6376 22.1287 35.0871C22.1552 35.3354 22.2197 35.578 22.32 35.8063C22.626 36.2815 23.0977 37.0906 23.697 37.9896C25.6349 40.3912 28.7969 43.1267 29.6893 44.2054C30.9643 45.6695 33.0808 45.1044 33.7565 45.0659H34.7765H35.7965C36.4722 45.0659 38.5886 45.6695 39.8636 44.2054C40.7944 43.1138 43.918 40.3526 45.856 37.9896C46.4552 37.0649 46.927 36.2815 47.233 35.8063C47.3333 35.578 47.3978 35.3354 47.4242 35.0871C47.4242 34.6376 47.5262 34.0725 47.59 33.4304C47.743 33.4304 48.5844 24.7487 48.5844 24.7487L48.7374 23.4645C48.5717 22.8352 48.3167 22.6297 48.3167 23.1819Z" fill="#8C6139"/>
<path d="M39.0477 37.0776C37.8189 36.0355 36.3504 35.3202 34.7765 34.9971C33.1991 35.3213 31.7268 36.0364 30.4926 37.0776C28.6949 38.7215 30.4926 41.6881 30.4926 41.6881L30.9006 41.1744C28.9499 37.206 34.7255 36.9748 34.7255 36.9748C34.7255 36.9748 40.5521 37.206 38.5504 41.1744L38.9457 41.6881C38.9457 41.6881 40.8071 38.6958 39.0477 37.0776Z" fill="#8C6139"/>
<path d="M36.0897 41.4699C35.7168 41.1698 35.2537 41.0063 34.7765 41.0063C34.2992 41.0063 33.8361 41.1698 33.4632 41.4699C32.9023 42.0222 31.7038 41.624 31.7038 41.624L34.1135 43.6147L34.7765 42.9597L35.4395 43.6147L37.8492 41.624C37.8492 41.624 36.6507 42.0222 36.0897 41.4699Z" fill="#8C6139"/>
<path d="M46.2639 0.167725C46.2639 0.167725 46.9141 2.00423 33.1699 2.00423C32.8894 2.00423 32.5834 2.00423 32.2392 2.00423C19.1325 2.60784 19.7955 15.2194 19.7955 15.2194C19.8249 18.4247 20.2098 21.6166 20.9429 24.7358L21.2234 23.1947C21.3505 22.0372 21.5984 20.8965 21.9629 19.7914L22.0649 19.496C22.2511 18.9572 22.4682 18.4298 22.7151 17.9163C26.2851 10.7373 34.7509 13.0746 34.7509 13.0746C34.7509 13.0746 43.2167 10.7373 46.7866 17.9292C47.0346 18.4273 47.2477 18.9422 47.4241 19.4703L47.5389 19.8042C47.8967 20.9076 48.1486 22.0429 48.2911 23.1947L48.5589 24.7358C48.9286 22.7452 49.3366 20.7674 49.5533 18.7768C50.431 12.3796 49.2797 5.86662 46.2639 0.167725Z" fill="#8C6139"/>
<g style="mix-blend-mode:multiply">
<path d="M34.7764 1.99146H33.1571C32.8766 1.99146 32.5707 1.99146 32.2264 1.99146C19.1324 2.60791 19.7954 15.2194 19.7954 15.2194C19.8249 18.4247 20.2098 21.6167 20.9429 24.7359H20.6752C18.2145 22.8994 18.0105 27.6769 19.0304 29.3079C19.6508 30.2123 20.1162 31.2151 20.4074 32.2746C20.7899 33.379 21.4146 33.5588 21.9374 33.4047C22.0011 34.0469 22.0649 34.6119 22.1031 35.0614C22.1281 35.3058 22.1927 35.5444 22.2944 35.7678C22.6522 36.5555 23.1155 37.2901 23.6713 37.951L24.3726 38.7858L24.5766 39.0041L25.2013 39.6848L25.3543 39.8518L26.1703 40.6865L26.9735 41.4828L27.05 41.5598L28.325 42.8441C28.3523 44.563 28.0893 46.274 27.5473 47.9041C27.5473 47.9041 31.0279 51.9753 34.6999 51.757L34.7764 1.99146Z" fill="#E8D6C5"/>
</g>
<path d="M34.7764 51.7567L29.6765 57.6002L24.8698 49.3294L27.6238 47.9167C27.6238 47.9167 31.7037 51.0761 34.7764 51.7567Z" fill="#BADECF"/>
<path d="M34.7764 51.7567L39.8763 57.6002L44.6319 49.3294L41.878 47.9167C41.878 47.9167 37.8491 51.0761 34.7764 51.7567Z" fill="#CFE8DD"/>
<path d="M32.2648 54.6464L33.8967 57.6003L31.7038 72.0355L34.7765 76.9542V51.7568L32.2648 54.6464Z" fill="#AD0007"/>
<path d="M37.2881 54.6464L35.6561 57.6003L37.8491 72.0355L34.7764 76.9542V51.7568L37.2881 54.6464Z" fill="#C70A11"/>
<path d="M64.8275 5.51025C53.6715 5.51025 44.632 12.304 44.632 20.716C44.632 26.1356 48.4569 30.8874 54.1433 33.5587L48.5589 43.2678L61.6401 35.6521C62.6972 35.79 63.7616 35.8629 64.8275 35.8704C75.9835 35.8704 85.0359 29.0766 85.0359 20.7032C85.0359 12.3297 75.9835 5.51025 64.8275 5.51025Z" fill="#F0850C"/>
<path d="M85.0359 20.716C85.0359 29.0895 75.9836 35.8833 64.8276 35.8833V5.51025C75.9836 5.51025 85.0359 12.304 85.0359 20.716Z" fill="#FFAE0D"/>
<path d="M34.7763 79.33V76.9541L20.7516 51.7695H20.1652C15.7282 54.1069 10.6921 56.6754 9.88887 57.1121C8.39715 57.9469 5.52846 58.2166 2.39203 73.0499C1.90754 75.3359 1.42305 77.4036 0.976807 79.33H34.7763Z" fill="#0E2B5C"/>
<path d="M68.5887 79.3303C68.1297 77.4039 67.6452 75.3362 67.1607 73.0502C64.0242 58.2169 61.2066 57.96 59.6638 57.1124C58.8606 56.6757 53.8245 54.0687 49.3238 51.7441H48.7373L34.7764 76.9544V79.3303H68.5887Z" fill="#1A4691"/>
<path d="M78.7503 58.3838H42.7833C41.9172 58.3838 41.2151 59.091 41.2151 59.9634V86.6121C41.2151 87.4845 41.9172 88.1917 42.7833 88.1917H78.7503C79.6164 88.1917 80.3185 87.4845 80.3185 86.6121V59.9634C80.3185 59.091 79.6164 58.3838 78.7503 58.3838Z" fill="#C3DCEB"/>
<path d="M60.7732 58.3838H42.7833C42.3696 58.3838 41.9726 58.5484 41.6789 58.8419C41.3852 59.1354 41.2185 59.5339 41.2151 59.9506V86.6121C41.2184 87.03 41.3847 87.4298 41.6781 87.7253C41.9715 88.0209 42.3684 88.1884 42.7833 88.1917H60.7732V58.3838Z" fill="#9EC4D9"/>
<path d="M66.9441 50.781H54.5896C53.8571 50.8865 53.1942 51.2756 52.7419 51.8655C52.2896 52.4554 52.0834 53.1997 52.1672 53.9403V61.312C52.0836 62.0512 52.2902 62.7939 52.7428 63.3818C53.1953 63.9696 53.8581 64.356 54.5896 64.4585H66.9441C67.6756 64.356 68.3384 63.9696 68.791 63.3818C69.2435 62.7939 69.4501 62.0512 69.3666 61.312V53.9403C69.4503 53.1997 69.2441 52.4554 68.7918 51.8655C68.3395 51.2756 67.6766 50.8865 66.9441 50.781ZM66.3066 61.3249H55.2908V53.9275H66.3066V61.3249Z" fill="#8C6139"/>
<g style="mix-blend-mode:multiply">
<path d="M52.167 53.8889V61.1836C52.0908 61.9171 52.301 62.6518 52.7531 63.2319C53.2053 63.812 53.8639 64.1921 54.5895 64.2915H60.7731V61.1836H55.2907V53.8889H60.7731V50.781H54.5895C53.8639 50.8805 53.2053 51.2605 52.7531 51.8406C52.301 52.4207 52.0908 53.1554 52.167 53.8889Z" fill="#EDE4DC"/>
</g>
<path d="M78.7503 58.3838H42.7833C41.9172 58.3838 41.2151 59.091 41.2151 59.9634V68.6323C41.2151 69.5047 41.9172 70.2119 42.7833 70.2119H78.7503C79.6164 70.2119 80.3185 69.5047 80.3185 68.6323V59.9634C80.3185 59.091 79.6164 58.3838 78.7503 58.3838Z" fill="#C70A11"/>
<path d="M60.7732 58.3838H42.7833C42.3696 58.3838 41.9726 58.5484 41.6789 58.8419C41.3852 59.1354 41.2185 59.5339 41.2151 59.9506V68.6323C41.2184 69.0502 41.3847 69.45 41.6781 69.7455C41.9715 70.0411 42.3684 70.2086 42.7833 70.2119H60.7732V58.3838Z" fill="#AD0007"/>
<path d="M51.5421 68.8247H47.0415V73.3453H51.5421V68.8247Z" fill="#CFE8DD"/>
<path d="M50.6626 69.7109H47.9342V72.4593H50.6626V69.7109Z" fill="#123655"/>
<path d="M74.4917 68.8247H69.991V73.3453H74.4917V68.8247Z" fill="#E8F6EF"/>
<path d="M73.5994 69.7109H70.871V72.4593H73.5994V69.7109Z" fill="#235982"/>
<path d="M54.9336 22.9378C54.9358 22.7987 54.9072 22.6608 54.8498 22.5342C54.7925 22.4075 54.7079 22.2954 54.6021 22.2058C54.3526 22.0043 54.0783 21.836 53.7862 21.7049C53.4547 21.5508 53.1104 21.3839 52.7152 21.2297C52.341 21.0694 51.986 20.8669 51.657 20.6261C51.3255 20.3926 51.0473 20.0905 50.841 19.74C50.6058 19.3312 50.4908 18.8636 50.5095 18.3915C50.4961 17.9507 50.5788 17.5123 50.7517 17.1072C50.9021 16.7645 51.1342 16.4645 51.4275 16.2339C51.7295 15.9951 52.0765 15.8203 52.4474 15.7202C52.8632 15.6078 53.2919 15.5516 53.7224 15.5533C54.2568 15.5522 54.7902 15.5995 55.3161 15.6945C55.7597 15.771 56.1895 15.9138 56.5911 16.1183L55.9919 17.7237C55.7083 17.5647 55.4034 17.448 55.0866 17.3769C54.6707 17.2652 54.2421 17.2091 53.8117 17.21C53.4557 17.1866 53.1019 17.2813 52.8044 17.4797C52.6906 17.5575 52.5982 17.6631 52.5358 17.7866C52.4734 17.9101 52.443 18.0475 52.4474 18.186C52.4454 18.3196 52.4744 18.4518 52.5319 18.5722C52.5894 18.6926 52.674 18.7978 52.7789 18.8795C53.0083 19.103 53.2706 19.2893 53.5567 19.4318C53.8754 19.5987 54.2324 19.7528 54.6149 19.9326C54.9956 20.0879 55.3553 20.2907 55.6859 20.5362C56.0109 20.7719 56.288 21.0684 56.5018 21.4095C56.7254 21.7991 56.8359 22.2441 56.8206 22.6938C56.8279 23.1354 56.741 23.5733 56.5656 23.9781C56.4093 24.3459 56.1638 24.6682 55.8516 24.9156C55.5183 25.1767 55.137 25.3687 54.7296 25.4807C54.2549 25.6036 53.7663 25.664 53.2762 25.6605C52.663 25.6689 52.051 25.6042 51.453 25.4678C51.0531 25.3777 50.6641 25.2442 50.2927 25.0697L50.9047 23.4387C51.0328 23.5103 51.1647 23.5746 51.3 23.6313C51.453 23.6313 51.6442 23.7469 51.8482 23.8111L52.4857 23.9524C52.7193 23.9656 52.9534 23.9656 53.1869 23.9524C53.6291 23.9712 54.0684 23.8739 54.4619 23.6699C54.5922 23.5939 54.7028 23.4879 54.7848 23.3607C54.8668 23.2335 54.9178 23.0886 54.9336 22.9378Z" fill="#123655"/>
<path d="M62.8511 23.4003H59.9314L59.192 25.5578H57.254L60.7347 15.7332H62.1371L65.6178 25.5578H63.6289L62.8511 23.4003ZM60.3012 21.8591H62.4814L61.7164 19.6887L61.4232 18.1476L61.1299 19.7016L60.3012 21.8591Z" fill="#123655"/>
<path d="M72.5794 25.5576H66.4468V15.7971H68.3465V23.8623H72.5794V25.5576Z" fill="#235982"/>
<path d="M73.5609 15.7971H79.2983V17.5052H75.4734V19.7655H78.9668V21.4736H75.4607V23.8623H79.3748V25.5576H73.5609V15.7971Z" fill="#235982"/>
</svg>
