<svg width="536" height="344" viewBox="0 0 536 344" fill="none" xmlns="http://www.w3.org/2000/svg">
<path d="M437.167 165.211C437.511 157.694 433.161 151.246 423.775 148.003C417.402 145.752 407.94 147.469 403.819 152.849C400.881 144.263 388.747 140.524 381.459 145.98C383.215 130.947 376.499 114.959 363.946 106.489C351.392 98.0563 333.383 98.1326 321.44 107.481C309.535 116.829 305.338 135.106 312.816 148.308C307.322 150.445 305.796 158.992 310.222 162.922C294.998 161.624 268.746 163.952 268.746 170.171L496.042 169.103C492.875 161.014 466.395 157.694 437.167 165.211Z" fill="#F5F5F5"/>
<path d="M364.097 141.021C369.133 143.043 372.911 147.889 373.636 153.269C376.879 151.704 380.809 151.59 384.129 152.925C387.486 154.299 390.195 157.084 391.455 160.48C389.394 157.39 385.388 154.642 381.687 154.146C376.383 153.459 372.834 155.673 371.117 158.687C371.308 153.307 368.561 147.927 364.135 144.874C359.747 141.822 353.756 141.173 348.758 143.234C353.031 139.876 359.098 138.998 364.097 141.021Z" fill="white"/>
<path d="M115.817 83.2907C115.474 75.8121 119.862 69.3637 129.248 66.0823C135.62 63.8692 145.083 65.5863 149.204 70.9281C152.142 62.343 164.276 58.6418 171.525 64.06C169.77 49.0265 176.486 33.039 189.039 24.6065C201.631 16.1358 219.64 16.2122 231.545 25.5986C243.45 34.9468 247.647 53.2237 240.168 66.3875C245.701 68.5624 247.189 77.0713 242.763 81.0013C258.025 79.7422 284.239 82.0316 284.239 88.2892L56.9805 87.1826C60.1093 79.0935 86.5897 75.8121 115.817 83.2907Z" fill="#F5F5F5"/>
<path d="M188.874 59.1373C183.837 61.1596 180.098 66.0054 179.335 71.3473C176.091 69.7829 172.199 69.6684 168.842 71.042C165.484 72.3775 162.775 75.201 161.516 78.5588C163.576 75.4681 167.621 72.759 171.284 72.263C176.587 71.538 180.174 73.7511 181.853 76.7654C181.7 71.3854 184.409 66.0054 188.835 62.9529C193.262 59.9004 199.252 59.2518 204.212 61.3122C199.977 57.9926 193.872 57.115 188.874 59.1373Z" fill="white"/>
<path d="M346.892 26.2092L334.453 50.1331H346.587L340.52 66.9982L355.668 43.3795H343.687L346.892 26.2092Z" fill="#E0E0E0"/>
<path d="M93.9882 132.093L83.9531 151.362H93.7211L88.8371 164.983L101.047 145.905H91.3936L93.9882 132.093Z" fill="#E0E0E0"/>
<path d="M288.469 32.0468C288.469 31.9704 289.156 32.2375 290.3 32.1994C291.407 32.1994 293.009 31.7415 294.192 30.5205C295.375 29.2614 295.68 27.6206 295.642 26.5141C295.604 25.3694 295.299 24.7208 295.375 24.6826C295.375 24.6826 295.489 24.8352 295.604 25.1405C295.757 25.4457 295.871 25.9036 295.947 26.476C296.062 27.6588 295.757 29.414 294.497 30.7876C293.2 32.1231 291.445 32.5428 290.3 32.5046C289.69 32.4665 289.232 32.3902 288.927 32.2757C288.621 32.1612 288.469 32.0849 288.469 32.0468Z" fill="#E0E0E0"/>
<path d="M298.965 24.8352C299.041 24.8734 298.774 25.5602 298.812 26.6667C298.851 27.8114 299.27 29.4139 300.529 30.5968C301.789 31.7415 303.429 32.0849 304.536 32.0467C305.681 32.0086 306.329 31.7033 306.367 31.7415C306.367 31.7796 306.215 31.8941 305.909 32.0086C305.604 32.123 305.146 32.2757 304.536 32.3138C303.391 32.4283 301.636 32.123 300.262 30.8639C298.927 29.6047 298.507 27.8495 298.545 26.7049C298.545 26.0944 298.66 25.6365 298.774 25.3312C298.889 24.9878 298.965 24.8352 298.965 24.8352Z" fill="#E0E0E0"/>
<path d="M306.356 35.5955C306.318 35.6718 305.631 35.3665 304.525 35.4047C303.38 35.4429 301.778 35.9007 300.595 37.1217C299.45 38.3809 299.107 40.0216 299.145 41.1281C299.183 42.2728 299.488 42.9215 299.45 42.9596C299.412 42.9596 299.297 42.807 299.183 42.5017C299.068 42.1965 298.916 41.7386 298.878 41.1281C298.763 39.9834 299.068 38.2283 300.328 36.8546C301.587 35.5192 303.342 35.0995 304.487 35.1376C305.097 35.1376 305.555 35.2521 305.86 35.3665C306.204 35.481 306.356 35.5573 306.356 35.5955Z" fill="#E0E0E0"/>
<path d="M295.833 42.7679C295.757 42.7679 296.024 42.0811 295.986 40.9364C295.986 39.8299 295.528 38.2274 294.268 37.0445C293.009 35.8998 291.369 35.5564 290.262 35.5946C289.156 35.6327 288.469 35.938 288.469 35.8617C288.469 35.8617 288.621 35.7472 288.888 35.6327C289.194 35.4801 289.69 35.3656 290.262 35.3275C291.407 35.1749 293.2 35.4801 294.536 36.7774C295.909 38.0366 296.329 39.7918 296.291 40.9364C296.253 41.5469 296.138 42.0048 296.062 42.3101C295.947 42.6153 295.833 42.8061 295.833 42.7679Z" fill="#E0E0E0"/>
<path d="M352.004 85.4656C352.042 85.3893 352.347 85.5038 352.843 85.4656C353.339 85.4275 354.026 85.2367 354.522 84.7025C355.056 84.1302 355.209 83.4434 355.209 82.9473C355.209 82.4513 355.095 82.1461 355.133 82.1079C355.171 82.1079 355.4 82.375 355.476 82.9092C355.552 83.4815 355.438 84.321 354.827 84.9696C354.217 85.6183 353.378 85.7709 352.843 85.7327C352.271 85.6946 352.004 85.5038 352.004 85.4656Z" fill="#E0E0E0"/>
<path d="M356.802 82.1843C356.84 82.2225 356.764 82.5277 356.802 83.0238C356.802 83.5198 357.031 84.2066 357.565 84.7026C358.099 85.2368 358.824 85.3894 359.32 85.3894C359.816 85.3894 360.122 85.275 360.122 85.3513C360.16 85.3895 359.893 85.5802 359.32 85.6565C358.786 85.7329 357.947 85.6184 357.298 85.0079C356.649 84.3974 356.459 83.558 356.497 83.0238C356.535 82.4514 356.764 82.1843 356.802 82.1843Z" fill="#E0E0E0"/>
<path d="M360.131 87.0681C360.131 87.1445 359.826 87.03 359.33 87.0681C358.834 87.1063 358.147 87.2971 357.613 87.8694C357.117 88.4036 356.964 89.0904 356.964 89.5864C356.964 90.0825 357.078 90.3877 357.002 90.4259C356.964 90.464 356.735 90.1588 356.659 89.6246C356.582 89.0523 356.735 88.2128 357.346 87.5642C357.956 86.9537 358.757 86.7629 359.33 86.8011C359.864 86.8392 360.169 87.03 360.131 87.0681Z" fill="#E0E0E0"/>
<path d="M355.357 90.35C355.281 90.3119 355.395 90.0066 355.357 89.5106C355.319 89.0146 355.128 88.3278 354.594 87.8317C354.022 87.2976 353.335 87.1449 352.839 87.1449C352.343 87.1449 352.037 87.2594 351.999 87.2212C351.961 87.1831 352.266 86.9541 352.801 86.8778C353.373 86.8015 354.212 86.916 354.861 87.5265C355.51 88.137 355.662 88.9764 355.624 89.5106C355.586 90.0829 355.395 90.3882 355.357 90.35Z" fill="#E0E0E0"/>
<path d="M27.8555 96.5314C27.8555 96.4551 28.5423 96.7222 29.7251 96.684C30.8316 96.6459 32.4724 96.2262 33.6552 94.9289C34.8762 93.6697 35.1814 91.9908 35.1433 90.8843C35.1051 89.7396 34.7999 89.0528 34.8762 89.0146C34.8762 89.0146 34.9907 89.1673 35.1051 89.4725C35.2578 89.7778 35.3722 90.2738 35.4485 90.8462C35.563 92.029 35.2578 93.8223 33.9605 95.2341C32.6631 96.5696 30.908 97.0275 29.7251 96.9511C29.1146 96.9511 28.6186 96.8367 28.3133 96.7222C28.0081 96.6459 27.8555 96.5314 27.8555 96.5314Z" fill="#E0E0E0"/>
<path d="M38.5462 89.2056C38.6225 89.2056 38.3172 89.9305 38.3554 91.0752C38.3935 92.1818 38.8514 93.8225 40.1106 95.0435C41.4079 96.2263 43.0486 96.5697 44.1933 96.4934C45.338 96.4552 45.9866 96.15 46.0248 96.2263C46.0248 96.2263 45.8721 96.3408 45.5669 96.4552C45.2616 96.6079 44.8038 96.7223 44.1933 96.7987C43.0104 96.9131 41.2171 96.6079 39.8435 95.3106C38.4699 94.0132 38.0501 92.2581 38.0883 91.0752C38.1264 90.4647 38.2028 89.9687 38.3172 89.6634C38.4317 89.3582 38.508 89.2056 38.5462 89.2056Z" fill="#E0E0E0"/>
<path d="M46.0176 100.118C46.0176 100.156 45.2926 99.8888 44.1479 99.9269C43.0414 99.9651 41.4007 100.423 40.1797 101.682C38.9968 102.941 38.6534 104.62 38.7297 105.727C38.7679 106.871 39.0731 107.558 38.9968 107.596C38.9968 107.596 38.8823 107.444 38.7679 107.138C38.6153 106.833 38.5008 106.337 38.4245 105.765C38.31 104.582 38.6153 102.789 39.9126 101.415C41.2099 100.041 42.9651 99.6217 44.1479 99.6598C44.7584 99.6598 45.2544 99.7743 45.5597 99.8887C45.8649 100.003 46.0176 100.08 46.0176 100.118Z" fill="#E0E0E0"/>
<path d="M35.3389 107.405C35.2626 107.405 35.5297 106.718 35.4915 105.535C35.4915 104.429 35.0337 102.788 33.7745 101.605C32.4772 100.422 30.8365 100.079 29.6918 100.117C28.5471 100.155 27.8603 100.46 27.8603 100.384C27.8222 100.384 28.0129 100.27 28.3182 100.155C28.6234 100.002 29.0813 99.888 29.6918 99.8117C30.8746 99.6972 32.668 100.002 34.0416 101.3C35.4152 102.597 35.8349 104.352 35.7968 105.535C35.7586 106.146 35.6823 106.642 35.5679 106.947C35.4534 107.252 35.3771 107.443 35.3389 107.405Z" fill="#E0E0E0"/>
<path d="M161.324 115.303C161.324 115.265 161.629 115.341 162.163 115.303C162.621 115.265 163.346 115.074 163.842 114.54C164.338 114.006 164.49 113.281 164.49 112.785C164.529 112.289 164.414 111.983 164.452 111.945C164.49 111.945 164.719 112.212 164.796 112.785C164.872 113.319 164.719 114.158 164.147 114.807C163.537 115.456 162.697 115.646 162.163 115.608C161.591 115.57 161.285 115.341 161.324 115.303Z" fill="#E0E0E0"/>
<path d="M166.092 112.022C166.168 112.06 166.054 112.365 166.092 112.861C166.13 113.357 166.321 114.044 166.893 114.578C167.428 115.074 168.114 115.227 168.61 115.227C169.106 115.227 169.412 115.113 169.45 115.189C169.488 115.227 169.183 115.456 168.649 115.494C168.114 115.57 167.275 115.456 166.588 114.846C165.978 114.235 165.787 113.396 165.825 112.861C165.863 112.327 166.054 112.022 166.092 112.022Z" fill="#E0E0E0"/>
<path d="M169.458 116.906C169.458 116.982 169.115 116.868 168.619 116.906C168.122 116.944 167.436 117.173 166.94 117.707C166.444 118.241 166.253 118.966 166.253 119.424C166.253 119.958 166.367 120.264 166.329 120.264C166.291 120.302 166.062 119.996 165.986 119.462C165.909 118.928 166.024 118.089 166.634 117.44C167.245 116.791 168.084 116.601 168.619 116.639C169.191 116.677 169.496 116.868 169.458 116.906Z" fill="#E0E0E0"/>
<path d="M164.682 120.187C164.605 120.187 164.682 119.844 164.682 119.348C164.643 118.89 164.415 118.165 163.88 117.669C163.346 117.173 162.621 116.982 162.125 116.982C161.629 116.982 161.324 117.097 161.324 117.058C161.286 117.02 161.553 116.791 162.125 116.715C162.659 116.639 163.499 116.791 164.147 117.364C164.796 117.974 164.987 118.814 164.949 119.348C164.911 119.92 164.72 120.225 164.682 120.187Z" fill="#E0E0E0"/>
<path d="M470.257 148.614C470.295 148.537 470.6 148.652 471.097 148.614C471.593 148.575 472.279 148.385 472.775 147.812C473.31 147.278 473.462 146.591 473.462 146.095C473.462 145.599 473.348 145.294 473.386 145.256C473.424 145.218 473.653 145.523 473.729 146.057C473.806 146.591 473.691 147.431 473.081 148.118C472.47 148.728 471.631 148.919 471.097 148.881C470.524 148.843 470.219 148.652 470.257 148.614Z" fill="#E0E0E0"/>
<path d="M475.052 145.332C475.09 145.332 475.014 145.675 475.052 146.171C475.052 146.668 475.281 147.354 475.815 147.85C476.349 148.346 477.074 148.537 477.57 148.537C478.066 148.537 478.372 148.423 478.372 148.461C478.41 148.499 478.143 148.728 477.57 148.804C477.036 148.881 476.197 148.766 475.548 148.156C474.899 147.545 474.709 146.706 474.747 146.171C474.785 145.599 474.976 145.294 475.052 145.332Z" fill="#E0E0E0"/>
<path d="M478.377 150.216C478.377 150.254 478.072 150.178 477.576 150.216C477.08 150.254 476.393 150.445 475.859 150.979C475.363 151.551 475.21 152.238 475.21 152.734C475.21 153.23 475.325 153.535 475.248 153.574C475.21 153.574 474.981 153.306 474.905 152.734C474.829 152.2 474.981 151.36 475.592 150.712C476.202 150.063 477.003 149.872 477.576 149.949C478.11 149.987 478.415 150.178 478.377 150.216Z" fill="#E0E0E0"/>
<path d="M473.615 153.498C473.539 153.46 473.653 153.154 473.615 152.658C473.577 152.162 473.386 151.475 472.852 150.979C472.279 150.445 471.593 150.293 471.097 150.293C470.6 150.293 470.295 150.407 470.257 150.331C470.219 150.293 470.524 150.102 471.058 150.026C471.631 149.949 472.47 150.064 473.119 150.674C473.729 151.285 473.92 152.124 473.882 152.658C473.844 153.231 473.653 153.498 473.615 153.498Z" fill="#E0E0E0"/>
<path d="M508.027 124.081C507.264 121.982 506.425 119.845 505.089 118.014C503.754 116.182 501.808 114.694 499.595 114.389C497.344 114.122 494.825 115.343 494.1 117.479C493.795 112.672 493.108 107.712 490.705 103.514C488.263 99.3172 483.76 96.0357 478.952 96.341C474.412 96.6081 470.52 100.004 468.345 104.01C466.17 108.017 465.445 112.634 464.72 117.136C463.003 114.999 459.34 115.686 457.547 117.708C455.753 119.769 455.296 122.631 454.914 125.34H509.172L508.027 124.081Z" fill="#F5F5F5"/>
<path d="M88.7132 52.3845C87.7974 50.2477 86.8435 48.111 85.2791 46.2795C83.7147 44.448 81.4254 42.9599 78.8307 42.6928C76.198 42.3875 73.2599 43.6085 72.4205 45.7453C72.0389 40.9376 71.2377 35.9773 68.4141 31.7801C65.5905 27.6211 60.2868 24.3397 54.6397 24.6068C49.2979 24.912 44.7573 28.2698 42.2008 32.2762C39.6825 36.2826 38.8049 40.8995 37.9655 45.4019C35.9432 43.2651 31.7079 43.952 29.5711 46.0124C27.4725 48.0347 26.9383 50.9345 26.4805 53.6436H90.0486L88.7132 52.3845Z" fill="#F5F5F5"/>
<path d="M472.644 48.3785C472.644 48.3403 472.987 48.4167 473.483 48.3785C473.979 48.3403 474.666 48.1496 475.162 47.6154C475.658 47.043 475.849 46.3562 475.849 45.8602C475.849 45.3642 475.734 45.0589 475.773 45.0208C475.811 45.0208 476.04 45.2878 476.116 45.8602C476.192 46.3944 476.078 47.2338 475.467 47.8825C474.857 48.5311 474.017 48.7219 473.483 48.6456C472.911 48.6074 472.606 48.4167 472.644 48.3785Z" fill="#E0E0E0"/>
<path d="M477.412 45.0959C477.489 45.1341 477.412 45.4394 477.451 45.9354C477.451 46.4314 477.679 47.1182 478.214 47.6143C478.748 48.1484 479.473 48.3011 479.969 48.3011C480.465 48.3011 480.77 48.1866 480.77 48.2629C480.808 48.3011 480.541 48.4918 479.969 48.5682C479.435 48.6445 478.595 48.53 477.947 47.9195C477.298 47.309 477.107 46.4696 477.145 45.9354C477.183 45.363 477.374 45.0959 477.412 45.0959Z" fill="#E0E0E0"/>
<path d="M480.776 49.9803C480.776 50.0566 480.47 49.9421 479.974 49.9803C479.478 50.0184 478.753 50.2092 478.257 50.7815C477.761 51.3157 477.609 52.0025 477.609 52.4986C477.571 52.9946 477.723 53.2998 477.647 53.338C477.609 53.3762 477.38 53.0709 477.303 52.5367C477.227 52.0025 477.38 51.1631 477.952 50.4763C478.563 49.8658 479.402 49.675 479.936 49.7132C480.509 49.7513 480.814 49.9421 480.776 49.9803Z" fill="#E0E0E0"/>
<path d="M476.002 53.2612C475.925 53.2612 476.04 52.9178 476.002 52.4217C475.963 51.9257 475.773 51.2389 475.2 50.7429C474.666 50.2468 473.979 50.0561 473.483 50.0561C472.987 50.0561 472.682 50.1705 472.644 50.1324C472.606 50.0942 472.911 49.8653 473.445 49.789C474.017 49.7127 474.857 49.8271 475.506 50.4376C476.116 51.0481 476.307 51.8876 476.269 52.4217C476.231 52.9941 476.04 53.2993 476.002 53.2612Z" fill="#E0E0E0"/>
<path d="M535.131 224.506C535.131 224.621 416.198 224.697 269.526 224.697C122.777 224.697 3.88281 224.621 3.88281 224.506C3.88281 224.392 122.777 224.315 269.526 224.315C416.198 224.315 535.131 224.392 535.131 224.506Z" fill="#263238"/>
<path d="M10.4845 263.463C10.4082 263.54 9.33979 262.128 8.15695 260.335C6.93595 258.541 6.0202 257.015 6.13467 256.977C6.21098 256.901 7.27935 258.312 8.4622 260.106C9.68319 261.899 10.5989 263.387 10.4845 263.463Z" fill="#263238"/>
<path d="M11.8274 263.006C11.7129 263.006 11.1787 261.365 10.6445 259.266C10.1103 257.168 9.76692 255.451 9.88139 255.413C9.9577 255.374 10.4919 257.053 11.0261 259.152C11.5603 261.25 11.9418 262.967 11.8274 263.006Z" fill="#263238"/>
<path d="M15.6705 255.336C15.7849 255.412 14.8692 256.938 14.2587 259.037C13.6482 261.097 13.5337 262.891 13.4192 262.853C13.3429 262.891 13.2285 261.059 13.8771 258.922C14.5258 256.748 15.5941 255.26 15.6705 255.336Z" fill="#263238"/>
<path d="M90.6954 343.095C90.6191 343.172 89.5507 341.76 88.3679 339.966C87.1469 338.173 86.2311 336.647 86.3456 336.609C86.4219 336.532 87.4903 337.944 88.6731 339.737C89.8941 341.531 90.8099 343.019 90.6954 343.095Z" fill="#263238"/>
<path d="M92.0383 342.637C91.9238 342.637 91.3896 340.958 90.8555 338.898C90.3213 336.799 89.9779 335.044 90.0923 335.044C90.2068 335.006 90.7028 336.685 91.237 338.783C91.7712 340.882 92.1528 342.599 92.0383 342.637Z" fill="#263238"/>
<path d="M95.8736 334.969C95.988 335.045 95.0723 336.571 94.4618 338.67C93.8513 340.73 93.7368 342.524 93.6224 342.485C93.5461 342.524 93.4316 340.692 94.0802 338.555C94.7289 336.38 95.7973 334.892 95.8736 334.969Z" fill="#263238"/>
<path d="M164.068 244.576C163.954 244.614 162.923 243.203 161.702 241.409C160.52 239.654 159.604 238.128 159.68 238.09C159.795 238.013 160.825 239.425 162.046 241.218C163.229 243.012 164.144 244.5 164.068 244.576Z" fill="#263238"/>
<path d="M165.371 244.08C165.294 244.119 164.76 242.44 164.226 240.341C163.692 238.243 163.348 236.525 163.425 236.487C163.539 236.487 164.073 238.166 164.607 240.265C165.142 242.363 165.485 244.08 165.371 244.08Z" fill="#263238"/>
<path d="M169.254 236.449C169.33 236.487 168.452 238.051 167.842 240.112C167.193 242.21 167.117 243.966 167.003 243.966C166.888 243.966 166.812 242.134 167.46 239.997C168.071 237.861 169.177 236.373 169.254 236.449Z" fill="#263238"/>
<path d="M221.03 285.633C220.954 285.709 219.886 284.298 218.703 282.504C217.482 280.711 216.604 279.185 216.68 279.147C216.757 279.07 217.825 280.482 219.008 282.275C220.229 284.069 221.145 285.557 221.03 285.633Z" fill="#263238"/>
<path d="M222.366 285.175C222.252 285.175 221.718 283.496 221.184 281.435C220.649 279.337 220.306 277.582 220.42 277.582C220.535 277.544 221.031 279.222 221.565 281.321C222.099 283.42 222.481 285.137 222.366 285.175Z" fill="#263238"/>
<path d="M226.229 277.506C226.344 277.582 225.428 279.108 224.817 281.207C224.207 283.267 224.13 285.061 223.978 285.023C223.902 285.061 223.787 283.229 224.436 281.092C225.084 278.918 226.153 277.429 226.229 277.506Z" fill="#263238"/>
<path d="M297.006 274.491C296.891 274.568 295.861 273.156 294.64 271.362C293.419 269.569 292.542 268.081 292.618 268.005C292.732 267.967 293.763 269.34 294.984 271.133C296.166 272.927 297.082 274.453 297.006 274.491Z" fill="#263238"/>
<path d="M298.304 274.033C298.189 274.071 297.693 272.392 297.159 270.293C296.587 268.195 296.243 266.478 296.358 266.44C296.472 266.401 297.007 268.08 297.541 270.179C298.075 272.277 298.418 273.995 298.304 274.033Z" fill="#263238"/>
<path d="M302.149 266.363C302.264 266.439 301.386 267.965 300.776 270.064C300.127 272.124 300.051 273.917 299.936 273.917C299.822 273.917 299.745 272.086 300.394 269.949C301.005 267.812 302.073 266.324 302.149 266.363Z" fill="#263238"/>
<path d="M417.768 332.678C417.692 332.717 416.624 331.343 415.441 329.55C414.22 327.756 413.342 326.23 413.419 326.192C413.495 326.116 414.563 327.527 415.746 329.321C416.967 331.114 417.883 332.602 417.768 332.678Z" fill="#263238"/>
<path d="M419.116 332.221C419.002 332.221 418.468 330.543 417.934 328.444C417.399 326.345 417.056 324.628 417.17 324.628C417.285 324.59 417.781 326.269 418.315 328.368C418.887 330.466 419.231 332.183 419.116 332.221Z" fill="#263238"/>
<path d="M422.956 324.552C423.07 324.591 422.154 326.155 421.544 328.215C420.933 330.314 420.857 332.069 420.704 332.069C420.628 332.069 420.514 330.238 421.162 328.101C421.811 325.964 422.879 324.476 422.956 324.552Z" fill="#263238"/>
<path d="M530.331 267.813C530.255 267.89 529.186 266.478 528.003 264.685C526.782 262.891 525.905 261.403 525.981 261.327C526.057 261.289 527.126 262.662 528.309 264.456C529.53 266.249 530.445 267.775 530.331 267.813Z" fill="#263238"/>
<path d="M531.667 267.356C531.553 267.394 531.019 265.715 530.484 263.617C529.95 261.518 529.607 259.801 529.721 259.763C529.836 259.725 530.332 261.404 530.866 263.502C531.4 265.601 531.782 267.318 531.667 267.356Z" fill="#263238"/>
<path d="M535.522 259.686C535.636 259.763 534.721 261.289 534.11 263.387C533.5 265.448 533.423 267.241 533.271 267.241C533.194 267.241 533.08 265.41 533.729 263.273C534.377 261.136 535.446 259.648 535.522 259.686Z" fill="#263238"/>
<path d="M275.824 343.401C275.71 343.44 274.68 342.066 273.459 340.273C272.276 338.479 271.36 336.953 271.475 336.915C271.551 336.839 272.581 338.25 273.802 340.044C275.023 341.837 275.901 343.325 275.824 343.401Z" fill="#263238"/>
<path d="M277.128 342.943C277.052 342.943 276.518 341.264 275.984 339.165C275.45 337.067 275.106 335.35 275.182 335.35C275.297 335.312 275.831 336.99 276.365 339.089C276.9 341.188 277.243 342.905 277.128 342.943Z" fill="#263238"/>
<path d="M281.027 335.274C281.103 335.312 280.226 336.876 279.615 338.937C278.967 341.035 278.89 342.791 278.776 342.791C278.662 342.791 278.585 340.959 279.234 338.822C279.844 336.686 280.951 335.197 281.027 335.274Z" fill="#263238"/>
<path d="M166.027 180.856C166.027 180.856 165.938 181.008 165.76 181.314C165.556 181.619 165.276 182.077 164.92 182.687C164.157 183.908 163.051 185.664 161.601 187.991C158.701 192.608 154.466 199.362 149.124 207.87L149.086 207.947H149.009C148.17 207.947 147.216 207.947 146.262 207.909H146.109V207.794C147.903 194.096 150.154 176.659 152.749 156.741V156.703V156.665C153.817 154.681 155 152.468 156.183 150.216L156.259 150.14H156.335C157.251 150.14 158.281 150.14 159.311 150.14H159.426L159.464 150.216C160.571 152.239 161.753 154.452 162.974 156.665V156.703V156.741C164.959 172.156 167.133 189.021 169.423 206.611C169.474 207.171 169.537 207.731 169.614 208.29L169.652 208.519H169.423C168.507 208.519 167.604 208.519 166.714 208.519H166.599L166.523 208.405C160.685 199.056 155 189.975 149.543 181.276L149.391 180.97H149.734C155.178 180.869 160.482 180.767 165.645 180.665L165.569 181.008C160.507 178.312 155.598 175.705 150.841 173.186L150.574 173.034L150.841 172.843C155.381 170.172 159.693 167.577 163.852 165.136V165.403C159.96 162.388 156.297 159.565 152.825 156.894L152.481 156.589H152.901C156.373 156.627 159.655 156.627 162.784 156.627H163.241L162.898 156.856C158.892 159.832 155.267 162.541 151.909 164.983V164.792C156.984 167.921 161.219 170.516 164.806 172.729L164.959 172.805L164.806 172.881C159.922 175.59 156.144 177.689 153.588 179.063C152.316 179.775 151.349 180.309 150.688 180.665C150.039 181.008 149.734 181.161 149.734 181.161C149.734 181.161 150.039 180.97 150.688 180.627C151.324 180.245 152.278 179.698 153.55 178.986C156.106 177.574 159.846 175.476 164.73 172.729V172.881C161.143 170.706 156.869 168.112 151.795 164.983L151.642 164.907L151.795 164.792C155.114 162.312 158.739 159.603 162.707 156.627L162.784 156.894C159.655 156.894 156.373 156.894 152.901 156.894L153.016 156.627C156.488 159.336 160.151 162.159 164.043 165.136L164.234 165.288L164.043 165.403C159.884 167.883 155.534 170.477 151.032 173.148V172.843C155.763 175.361 160.672 177.969 165.76 180.665L166.37 181.008L165.683 181.047C160.494 181.148 155.178 181.25 149.734 181.352L149.887 181.085C155.343 189.784 161.028 198.866 166.866 208.214L166.714 208.099C167.604 208.099 168.507 208.099 169.423 208.099L169.232 208.328C169.156 207.769 169.079 207.209 169.003 206.649C166.752 189.098 164.577 172.233 162.631 156.779V156.856C161.41 154.604 160.227 152.43 159.159 150.407L159.311 150.522C158.281 150.522 157.251 150.522 156.335 150.522L156.526 150.407C155.305 152.658 154.122 154.833 153.054 156.856L153.092 156.779C150.459 176.697 148.17 194.134 146.376 207.832L146.262 207.68C147.216 207.68 148.17 207.68 149.047 207.68L148.933 207.756C154.313 199.247 158.586 192.532 161.486 187.915C162.974 185.625 164.081 183.832 164.844 182.649C165.226 182.064 165.518 181.606 165.722 181.276C165.925 180.996 166.027 180.856 166.027 180.856Z" fill="#263238"/>
<path d="M154.872 156.742C154.872 156.856 153.003 156.971 150.675 156.971C149.721 156.971 148.882 156.932 148.157 156.932L148.309 156.856C147.699 157.695 147.279 158.23 147.241 158.192C147.165 158.192 147.508 157.581 148.042 156.665L148.08 156.589H148.157C148.882 156.589 149.721 156.551 150.675 156.551C153.003 156.551 154.872 156.665 154.872 156.742Z" fill="#263238"/>
<path d="M160.637 156.742C160.637 156.665 162.545 156.551 164.872 156.551C165.788 156.551 166.665 156.589 167.352 156.589H167.467L167.505 156.666C168.039 157.581 168.344 158.192 168.306 158.192C168.23 158.23 167.81 157.696 167.238 156.856L167.352 156.933C166.665 156.933 165.788 156.971 164.872 156.971C162.545 156.971 160.637 156.856 160.637 156.742Z" fill="#263238"/>
<path d="M112.368 193.676C112.368 193.676 112.317 193.765 112.215 193.943C112.114 194.121 111.961 194.375 111.757 194.706C111.325 195.367 110.727 196.334 109.964 197.606C108.361 200.162 106.072 203.825 103.172 208.519L103.134 208.557H103.058C102.6 208.557 102.066 208.557 101.532 208.557H101.379L101.417 208.404C102.371 200.925 103.592 191.386 105.004 180.474V180.436C105.614 179.329 106.263 178.146 106.912 176.887L106.95 176.811H107.064C107.56 176.811 108.133 176.811 108.667 176.811H108.781L108.858 176.887C109.43 177.994 110.079 179.215 110.765 180.436V180.474C111.872 188.944 113.055 198.14 114.276 207.755C114.327 208.061 114.365 208.366 114.39 208.671L114.428 208.9H114.199C113.716 208.9 113.22 208.9 112.711 208.9H112.597L112.559 208.824C109.354 203.711 106.263 198.751 103.287 193.981L103.096 193.676H103.439C106.416 193.625 109.315 193.561 112.139 193.485L112.063 193.867C109.29 192.366 106.606 190.929 104.012 189.555L103.745 189.402L104.012 189.25C106.479 187.774 108.845 186.363 111.109 185.014V185.281C108.972 183.641 106.988 182.115 105.08 180.626L104.737 180.359H105.195C107.077 180.359 108.87 180.359 110.575 180.359H110.994L110.651 180.626C108.476 182.229 106.492 183.717 104.66 185.053V184.862C107.408 186.579 109.735 187.991 111.719 189.212L111.834 189.288L111.719 189.364C109.048 190.852 106.95 191.959 105.576 192.722C104.889 193.103 104.355 193.396 103.974 193.6C103.63 193.79 103.439 193.867 103.439 193.867C103.439 193.867 103.592 193.752 103.935 193.561C104.317 193.358 104.838 193.053 105.5 192.646C106.912 191.882 108.972 190.7 111.605 189.212V189.364C109.659 188.181 107.293 186.77 104.546 185.053L104.393 184.976L104.508 184.862C106.339 183.488 108.323 182.038 110.498 180.397L110.575 180.665C108.87 180.665 107.077 180.665 105.195 180.665L105.271 180.397C107.179 181.847 109.201 183.412 111.3 185.014L111.49 185.167L111.3 185.32C109.036 186.668 106.67 188.08 104.202 189.555L104.164 189.25C106.759 190.623 109.455 192.048 112.253 193.523L112.864 193.867H112.139C109.315 193.943 106.416 194.006 103.439 194.057L103.592 193.752C106.568 198.522 109.697 203.482 112.902 208.595L112.711 208.519C113.22 208.519 113.716 208.519 114.199 208.519L114.009 208.747C113.983 208.442 113.945 208.124 113.894 207.794C112.673 198.216 111.49 188.983 110.384 180.55L110.422 180.588C109.773 179.367 109.125 178.184 108.514 177.078L108.667 177.192C108.133 177.154 107.56 177.154 107.064 177.154L107.217 177.078C106.568 178.299 105.919 179.52 105.347 180.588V180.55C103.897 191.425 102.638 200.964 101.646 208.442L101.532 208.29C102.066 208.328 102.6 208.328 103.058 208.328L102.943 208.366C105.881 203.749 108.247 200.048 109.85 197.53C110.664 196.283 111.274 195.329 111.681 194.668C111.91 194.363 112.075 194.121 112.177 193.943C112.279 193.765 112.342 193.676 112.368 193.676Z" fill="#263238"/>
<path d="M106.273 180.513C106.273 180.627 105.243 180.704 103.984 180.704C103.45 180.704 102.992 180.704 102.61 180.665L102.725 180.589C102.381 181.047 102.152 181.352 102.076 181.314C102.038 181.276 102.191 180.933 102.458 180.437L102.496 180.36H102.61C102.992 180.322 103.45 180.322 103.984 180.322C105.243 180.322 106.273 180.398 106.273 180.513Z" fill="#263238"/>
<path d="M109.43 180.513C109.43 180.398 110.46 180.322 111.719 180.322C112.215 180.322 112.711 180.322 113.093 180.36H113.169L113.207 180.437C113.512 180.933 113.665 181.276 113.589 181.314C113.551 181.352 113.283 181.047 112.94 180.589L113.093 180.665C112.711 180.704 112.215 180.704 111.719 180.704C110.46 180.704 109.43 180.627 109.43 180.513Z" fill="#263238"/>
<path d="M341.14 171.317C341.14 171.317 341.026 171.444 340.797 171.698C340.568 171.953 340.237 172.309 339.805 172.766C338.927 173.759 337.516 175.056 335.646 176.697C331.907 179.902 326.031 184.061 318.17 188.105C314.24 190.166 309.814 192.188 305.007 194.058C300.161 195.965 294.895 197.759 289.21 199.247C283.601 200.773 277.42 201.574 271.086 201.689C264.714 201.803 258.113 201.269 251.435 200.43C244.758 199.514 238.271 198.369 232.014 197.186C228.923 196.576 225.832 196.004 222.856 195.355C219.855 194.719 216.942 194.007 214.119 193.218C208.51 191.654 203.244 189.746 198.551 187.533C193.819 185.32 189.66 182.84 186.112 180.207C178.939 174.941 174.398 169.218 171.803 165.059C171.117 164.029 170.62 163.037 170.124 162.197C169.705 161.358 169.361 160.633 169.094 160.06C168.84 159.475 168.636 159.018 168.484 158.687C168.357 158.382 168.293 158.229 168.293 158.229C168.318 158.229 168.395 158.382 168.522 158.687C168.675 158.992 168.891 159.437 169.171 160.022C169.438 160.595 169.819 161.32 170.239 162.159C170.735 162.96 171.231 163.952 171.918 164.983C174.551 169.104 179.129 174.751 186.265 179.978C189.813 182.573 193.972 185.053 198.665 187.228C203.397 189.441 208.624 191.31 214.233 192.875C217.031 193.663 219.931 194.376 222.933 195.012C225.909 195.622 228.961 196.194 232.09 196.805C238.348 197.988 244.834 199.132 251.473 200.01C258.151 200.888 264.714 201.384 271.086 201.307C277.42 201.193 283.486 200.392 289.134 198.865C294.781 197.415 300.046 195.66 304.854 193.752C309.7 191.883 314.126 189.899 318.018 187.876C325.878 183.832 331.792 179.749 335.57 176.582C337.439 174.98 338.851 173.682 339.729 172.728C340.187 172.27 340.53 171.914 340.759 171.66C341.013 171.431 341.14 171.317 341.14 171.317Z" fill="#263238"/>
<path d="M355.497 188.64C355.497 188.64 355.433 188.754 355.306 188.983C355.153 189.238 354.937 189.594 354.657 190.052C354.085 190.968 353.246 192.341 352.139 194.096C349.926 197.645 346.683 202.796 342.6 209.321L342.562 209.397H342.486C341.837 209.359 341.112 209.359 340.387 209.359H340.234V209.244C341.608 198.751 343.325 185.435 345.309 170.172V170.134C346.11 168.608 347.026 166.891 347.942 165.212L347.98 165.098H348.095C348.781 165.098 349.583 165.098 350.384 165.098H350.46L350.537 165.212C351.376 166.738 352.292 168.417 353.207 170.134V170.172C354.734 182.001 356.413 194.898 358.13 208.329C358.181 208.761 358.231 209.181 358.282 209.588L358.32 209.817H358.091C357.405 209.817 356.718 209.817 356.031 209.817H355.917L355.84 209.74C351.376 202.605 347.026 195.661 342.867 188.983L342.676 188.678H343.02C347.192 188.602 351.262 188.526 355.23 188.449L355.153 188.793C351.262 186.732 347.497 184.735 343.859 182.802L343.592 182.649L343.859 182.497C347.319 180.436 350.638 178.465 353.818 176.583V176.85C350.842 174.56 348.056 172.385 345.385 170.325L345.004 170.058H345.462C348.107 170.058 350.626 170.058 353.017 170.058H353.475L353.131 170.325C350.041 172.576 347.293 174.637 344.737 176.545V176.316C348.591 178.719 351.834 180.704 354.581 182.421L354.734 182.497L354.581 182.573C350.842 184.634 347.942 186.198 345.996 187.305C345.029 187.813 344.292 188.208 343.783 188.487C343.287 188.754 343.02 188.869 343.02 188.869C343.02 188.869 343.287 188.716 343.783 188.449C344.266 188.169 344.991 187.75 345.958 187.19C347.904 186.122 350.765 184.519 354.505 182.421V182.573C351.758 180.894 348.476 178.91 344.584 176.545L344.432 176.43L344.584 176.354C347.141 174.446 349.888 172.385 352.94 170.096L353.017 170.363C350.626 170.363 348.107 170.363 345.462 170.363L345.576 170.096C348.247 172.157 351.033 174.293 354.009 176.583L354.2 176.735L354.009 176.85C350.829 178.758 347.509 180.742 344.05 182.802V182.497C347.662 184.405 351.414 186.389 355.306 188.449L355.955 188.793L355.23 188.831C351.262 188.907 347.192 188.983 343.02 189.06L343.211 188.793C347.37 195.432 351.719 202.376 356.184 209.511L356.031 209.435C356.718 209.435 357.405 209.435 358.091 209.435L357.901 209.664C357.85 209.232 357.799 208.799 357.748 208.367C356.031 194.936 354.352 182.039 352.864 170.249V170.287C351.948 168.608 351.033 166.891 350.193 165.365L350.384 165.479C349.583 165.479 348.781 165.479 348.095 165.479L348.247 165.365C347.331 167.082 346.454 168.761 345.614 170.287L345.653 170.249C343.63 185.473 341.875 198.79 340.501 209.244L340.387 209.13C341.112 209.13 341.837 209.13 342.486 209.13L342.409 209.206C346.53 202.72 349.773 197.569 352.025 194.02C353.131 192.265 354.009 190.929 354.581 190.014C354.886 189.556 355.115 189.212 355.268 188.983C355.421 188.754 355.497 188.64 355.497 188.64Z" fill="#263238"/>
<path d="M346.993 170.211C346.993 170.325 345.543 170.401 343.75 170.401C343.063 170.401 342.376 170.401 341.842 170.363L341.995 170.287C341.537 170.936 341.193 171.355 341.155 171.317C341.079 171.279 341.308 170.821 341.728 170.134L341.766 170.058H341.842C342.376 170.02 343.063 170.02 343.75 170.02C345.543 170.02 346.993 170.096 346.993 170.211Z" fill="#263238"/>
<path d="M351.387 170.211C351.387 170.096 352.837 170.02 354.63 170.02C355.355 170.02 356.004 170.02 356.538 170.058H356.614L356.69 170.134C357.072 170.821 357.301 171.279 357.263 171.317C357.186 171.355 356.881 170.936 356.423 170.287L356.538 170.363C356.004 170.401 355.355 170.401 354.63 170.401C352.837 170.401 351.387 170.325 351.387 170.211Z" fill="#263238"/>
<path d="M430.685 203.978C430.685 203.978 430.621 204.093 430.494 204.322C430.341 204.551 430.125 204.894 429.845 205.352C429.311 206.268 428.472 207.565 427.403 209.32C425.228 212.792 422.061 217.829 418.093 224.201L418.055 224.277H417.979C417.33 224.239 416.643 224.239 415.88 224.239H415.766V224.125C417.101 213.861 418.78 200.849 420.688 185.93L420.726 185.892V185.854C421.527 184.366 422.405 182.725 423.282 181.046L423.359 180.932H423.473C424.122 180.932 424.885 180.932 425.686 180.932H425.763L425.839 181.046C426.64 182.534 427.556 184.175 428.433 185.854L428.472 185.892V185.93C429.96 197.453 431.562 210.083 433.279 223.209C433.33 223.641 433.381 224.061 433.432 224.468L433.47 224.697H433.241C432.554 224.697 431.88 224.697 431.219 224.697H431.104L431.028 224.621C426.678 217.638 422.405 210.846 418.322 204.322L418.169 204.016H418.475C422.57 203.94 426.551 203.864 430.418 203.787L430.341 204.131C426.551 202.096 422.875 200.137 419.314 198.255L419.047 198.102L419.314 197.95C422.697 195.94 425.941 194.007 429.044 192.15V192.455C426.144 190.204 423.397 188.067 420.802 186.083L420.421 185.778H420.879C423.473 185.803 425.941 185.816 428.281 185.816H428.701L428.357 186.045C425.381 188.258 422.634 190.28 420.154 192.15V191.921C423.931 194.248 427.098 196.232 429.807 197.873L429.922 197.95L429.807 198.026C426.144 200.048 423.321 201.613 421.413 202.643C420.446 203.151 419.721 203.546 419.238 203.826C418.742 204.093 418.513 204.207 418.513 204.207C418.513 204.207 418.742 204.055 419.2 203.787C419.708 203.508 420.421 203.101 421.336 202.566C423.244 201.498 426.068 199.934 429.731 197.873L429.693 198.026C427.022 196.385 423.817 194.439 420.039 192.15L419.886 192.035L420.001 191.921C422.481 190.089 425.228 188.067 428.205 185.816L428.281 186.083C425.941 186.083 423.473 186.083 420.879 186.083L420.993 185.816C423.588 187.838 426.335 189.937 429.235 192.188L429.426 192.341L429.197 192.455C426.119 194.312 422.888 196.245 419.505 198.255V197.95C423.041 199.832 426.704 201.778 430.494 203.787L431.143 204.131H430.418C426.551 204.233 422.583 204.322 418.513 204.398L418.665 204.093C422.748 210.617 426.984 217.409 431.371 224.392L431.219 224.315C431.88 224.315 432.554 224.315 433.241 224.315L433.05 224.544C432.974 224.112 432.91 223.692 432.86 223.285C431.181 210.121 429.578 197.53 428.09 185.969L428.128 186.045C427.212 184.366 426.335 182.725 425.495 181.237L425.686 181.313C424.885 181.313 424.122 181.313 423.473 181.313L423.626 181.237C422.71 182.878 421.832 184.557 421.031 186.045L421.069 185.969C419.085 200.888 417.368 213.899 416.033 224.125L415.88 224.01C416.643 224.01 417.33 224.01 417.979 224.01L417.864 224.086C421.909 217.714 425.114 212.678 427.289 209.244C428.395 207.527 429.235 206.191 429.807 205.314C430.087 204.881 430.303 204.538 430.456 204.283C430.608 204.08 430.685 203.978 430.685 203.978Z" fill="#263238"/>
<path d="M422.377 185.93C422.377 186.045 420.965 186.159 419.21 186.159C418.523 186.159 417.874 186.121 417.34 186.121L417.493 186.045C417.035 186.693 416.691 187.075 416.653 187.037C416.615 186.999 416.806 186.541 417.226 185.854L417.264 185.778H417.34C417.874 185.778 418.523 185.74 419.21 185.74C420.965 185.74 422.377 185.854 422.377 185.93Z" fill="#263238"/>
<path d="M426.684 185.93C426.684 185.854 428.095 185.74 429.851 185.74C430.537 185.74 431.186 185.778 431.682 185.778H431.797L431.835 185.854C432.216 186.541 432.445 186.999 432.407 187.037C432.331 187.075 432.025 186.693 431.568 186.045L431.682 186.121C431.186 186.121 430.537 186.159 429.851 186.159C428.095 186.159 426.684 186.045 426.684 185.93Z" fill="#263238"/>
<path d="M147.235 158.191C147.235 158.217 147.222 158.42 147.197 158.802C147.12 159.183 147.082 159.718 146.968 160.443C146.739 161.893 146.357 163.953 145.67 166.471C145.022 168.951 144.068 171.928 142.694 175.056C141.282 178.223 139.489 181.581 136.971 184.672C135.712 186.198 134.262 187.572 132.583 188.487C130.942 189.441 129.111 189.899 127.355 189.937C123.883 190.014 120.869 188.678 118.732 187.19C116.634 185.626 115.26 183.985 114.421 182.84C113.963 182.23 113.657 181.772 113.467 181.429C113.263 181.098 113.174 180.932 113.2 180.932C113.2 180.932 113.314 181.085 113.543 181.39C113.772 181.696 114.077 182.153 114.535 182.726C115.413 183.871 116.786 185.473 118.923 186.961C120.983 188.411 123.96 189.67 127.355 189.556C129.034 189.518 130.828 189.06 132.392 188.144C133.995 187.228 135.445 185.931 136.666 184.405C139.146 181.39 140.939 178.033 142.351 174.942C143.724 171.813 144.717 168.875 145.403 166.395C146.09 163.877 146.548 161.854 146.815 160.404C146.942 159.743 147.044 159.196 147.12 158.764C147.171 158.408 147.209 158.217 147.235 158.191Z" fill="#263238"/>
<path d="M416.999 186.503C416.999 186.503 416.795 186.579 416.388 186.732C415.956 186.91 415.358 187.139 414.595 187.419C413.794 187.724 412.84 187.991 411.695 188.334C410.55 188.678 409.253 188.945 407.803 189.288C404.865 189.861 401.316 190.357 397.386 190.357C393.418 190.357 389.107 189.861 384.68 188.716C375.828 186.312 368.693 181.81 364.114 178.07C361.787 176.201 360.07 174.484 358.925 173.301C358.34 172.665 357.907 172.182 357.628 171.851C357.5 171.673 357.399 171.546 357.322 171.469C357.272 171.368 357.246 171.317 357.246 171.317C357.246 171.317 357.399 171.469 357.704 171.813C358.009 172.118 358.429 172.576 359.039 173.186C360.222 174.331 361.939 176.01 364.305 177.841C368.884 181.543 376.019 185.969 384.795 188.296C389.145 189.479 393.456 189.975 397.386 190.013C401.316 190.013 404.827 189.555 407.727 189.021C409.177 188.716 410.512 188.449 411.619 188.105C412.763 187.8 413.755 187.533 414.557 187.266C415.32 187.012 415.918 186.808 416.35 186.655C416.782 186.528 416.999 186.477 416.999 186.503Z" fill="#263238"/>
<path d="M57.2422 224.278C57.2422 224.278 88.0342 200.087 114.782 200.43C141.567 200.812 141.949 204.169 154.655 201.689C167.361 199.209 204.372 178.757 254.395 183.756C304.38 188.754 317.773 203.902 348.679 205.352C401.106 207.794 412.781 224.507 412.781 224.507L57.2422 224.278Z" fill="#455A64"/>
<g opacity="0.3">
<path d="M57.2422 224.278C57.2422 224.278 88.0342 200.087 114.782 200.43C141.567 200.812 141.949 204.169 154.655 201.689C167.361 199.209 204.372 178.757 254.395 183.756C304.38 188.754 317.773 203.902 348.679 205.352C401.106 207.794 412.781 224.507 412.781 224.507L57.2422 224.278Z" fill="black"/>
</g>
<path d="M46.7114 184.977L45.9102 282.771H53.6177L49.7639 184.977H46.7114Z" fill="#FF725E"/>
<g opacity="0.3">
<path d="M46.6719 190.738C46.6719 190.738 48.16 191.578 49.9915 190.738L49.877 187.38L46.7482 187.8L46.6719 190.738Z" fill="black"/>
</g>
<path d="M37.622 182.077C36.5154 182.001 5.99052 188.373 3.20512 189.213C0.076313 190.166 0 192.57 0 192.57L46.169 186.503L46.2453 183.756L40.7508 184.443C40.7508 184.443 38.7667 182.115 37.622 182.077Z" fill="#FF725E"/>
<g opacity="0.3">
<path d="M3.19665 189.213C2.73878 189.365 2.31906 189.531 1.9375 189.709L3.92162 189.441L40.7423 184.443C40.7423 184.443 38.7582 182.115 37.6135 182.077C36.507 182.001 5.98205 188.373 3.19665 189.213Z" fill="black"/>
</g>
<path d="M55.9355 178.871C56.5842 177.955 68.4507 149.148 69.3283 146.362C70.2822 143.233 68.3363 141.783 68.3363 141.783L47.4648 183.412L49.6779 185.014L52.1962 180.092C52.1962 180.092 55.2487 179.749 55.9355 178.871Z" fill="#FF725E"/>
<g opacity="0.3">
<path d="M69.3392 146.362C69.4663 145.905 69.5681 145.472 69.6444 145.065L68.7287 146.82L52.207 180.093C52.207 180.093 55.2595 179.749 55.9463 178.872C56.595 177.956 68.4616 149.148 69.3392 146.362Z" fill="black"/>
</g>
<path d="M46.4269 194.553C46.694 195.66 60.8118 223.438 62.338 225.918C64.0551 228.703 66.4207 228.131 66.4207 228.131L48.4873 185.167L45.8164 185.816L47.915 190.929C47.915 190.929 46.198 193.447 46.4269 194.553Z" fill="#FF725E"/>
<g opacity="0.3">
<path d="M62.3462 225.918C62.6006 226.325 62.8677 226.681 63.1475 226.986L62.3844 225.155L47.9232 190.928C47.9232 190.928 46.2061 193.447 46.4351 194.553C46.7022 195.66 60.82 223.438 62.3462 225.918Z" fill="black"/>
</g>
<path d="M66.1982 227.634C66.1219 227.634 62.2299 218.286 57.4604 206.687C52.6909 195.125 48.8371 185.739 48.8753 185.701C48.9134 185.701 52.8435 195.049 57.613 206.648C62.3826 218.21 66.2363 227.596 66.1982 227.634Z" fill="#263238"/>
<path d="M51.2521 187.113C49.7259 188.792 47.1312 188.868 45.4524 187.304C43.8117 185.777 43.6972 183.145 45.2616 181.504C46.826 179.825 49.4206 179.749 51.0613 181.313C52.7402 182.839 52.8165 185.472 51.2521 187.113Z" fill="#FF725E"/>
<path d="M51.2384 187.114C51.2384 187.114 51.5055 186.847 51.8107 186.274C52.116 185.702 52.4594 184.786 52.2686 183.641C52.1541 183.069 51.9252 182.459 51.5055 181.924C51.1239 181.39 50.5516 180.894 49.8266 180.589C49.4705 180.436 49.1016 180.335 48.7201 180.284C48.3131 180.233 47.9061 180.246 47.4991 180.322C46.6978 180.475 45.8965 180.932 45.286 181.543C44.7137 182.192 44.3321 182.993 44.2558 183.832C44.2049 184.239 44.2177 184.646 44.294 185.053C44.3448 185.435 44.4593 185.804 44.6374 186.16C44.9808 186.847 45.515 187.343 46.0873 187.724C46.6596 188.106 47.2702 188.297 47.8425 188.335C48.9872 188.449 49.9411 188.068 50.4753 187.724C51.0095 187.381 51.2384 187.114 51.2384 187.114C51.2638 187.114 51.213 187.177 51.0858 187.304C51.0349 187.381 50.9586 187.457 50.8568 187.533C50.7424 187.61 50.6279 187.686 50.4753 187.801C49.9411 188.144 49.0253 188.564 47.8425 188.449C47.232 188.373 46.6215 188.22 46.011 187.839C45.4387 187.457 44.8663 186.923 44.5229 186.198C44.3448 185.842 44.2177 185.46 44.1413 185.053C44.065 184.672 44.065 184.252 44.1032 183.832C44.1795 182.955 44.5992 182.115 45.2097 181.467C45.8202 180.78 46.6215 180.36 47.4609 180.207C47.8806 180.131 48.3385 180.093 48.7201 180.169C49.1271 180.22 49.5214 180.322 49.9029 180.475C50.6279 180.78 51.2002 181.276 51.62 181.848C52.0397 182.382 52.2686 183.031 52.3449 183.603C52.5357 184.786 52.1923 185.74 51.887 186.312C51.8107 186.465 51.6963 186.58 51.62 186.656C51.5691 186.783 51.5055 186.872 51.4292 186.923C51.3274 187.05 51.2638 187.114 51.2384 187.114Z" fill="#263238"/>
<path d="M50.5593 184.557C50.4067 185.816 49.262 186.732 48.0028 186.617C46.7055 186.465 45.7898 185.32 45.9424 184.061C46.0569 182.763 47.2015 181.848 48.4989 182C49.758 182.115 50.7119 183.259 50.5593 184.557Z" fill="white"/>
<path d="M53.6177 282.771C53.6177 283.61 51.9007 284.259 49.7639 284.259C47.6653 284.259 45.9102 283.61 45.9102 282.771C45.9102 281.97 47.6653 281.283 49.7639 281.283C51.9007 281.283 53.6177 281.97 53.6177 282.771Z" fill="#E0E0E0"/>
<path d="M117.335 90.311L116 297.575H129.126L122.525 90.311H117.335Z" fill="#FF725E"/>
<g opacity="0.3">
<path d="M117.258 100.155C117.258 100.155 119.814 101.567 122.943 100.155L122.752 94.4316L117.372 95.0803L117.258 100.155Z" fill="black"/>
</g>
<path d="M100.732 92.8671C98.9382 93.5539 55.4021 124.117 51.5864 127.322C47.3129 130.909 48.8392 134.763 48.8392 134.763L117.101 94.0499L115.384 89.7383L107.218 94.5078C107.218 94.5078 102.563 92.2184 100.732 92.8671Z" fill="#FF725E"/>
<g opacity="0.3">
<path d="M51.5821 127.322C50.9716 127.856 50.4247 128.39 49.9414 128.925L52.8794 127.208L107.214 94.5077C107.214 94.5077 102.559 92.2183 100.727 92.867C98.9339 93.5538 55.3977 124.117 51.5821 127.322Z" fill="black"/>
</g>
<path d="M127.246 75.4681C127.704 73.5984 126.827 20.4087 126.292 15.4865C125.72 9.91575 121.675 9 121.675 9L117.059 88.3648L121.637 89.3569L122.248 79.9323C122.248 79.9323 126.788 77.3759 127.246 75.4681Z" fill="#FF725E"/>
<g opacity="0.3">
<path d="M126.298 15.4866C126.222 14.6726 126.095 13.9222 125.917 13.2354L125.688 16.5931L122.254 79.9323C122.254 79.9323 126.794 77.3759 127.252 75.4681C127.71 73.5984 126.833 20.4087 126.298 15.4866Z" fill="black"/>
</g>
<path d="M125.26 105.345C126.404 106.947 167.27 140.944 171.352 143.806C175.969 146.973 179.289 144.493 179.289 144.493L122.131 89.2427L118.43 92.0662L125.145 98.6673C125.145 98.6673 124.153 103.78 125.26 105.345Z" fill="#FF725E"/>
<g opacity="0.3">
<path d="M171.358 143.806C172.045 144.264 172.706 144.645 173.342 144.951L170.938 142.585L125.151 98.6672C125.151 98.6672 124.159 103.78 125.266 105.345C126.41 106.947 167.275 140.944 171.358 143.806Z" fill="black"/>
</g>
<path d="M179.289 144.493C179.213 144.569 166.583 132.436 151.092 117.44C135.562 102.445 123.009 90.2351 123.047 90.1588C123.123 90.1206 135.753 102.254 151.283 117.25C166.774 132.245 179.327 144.455 179.289 144.493Z" fill="#263238"/>
<path d="M125.526 91.5701C124.191 95.2331 120.184 97.1409 116.521 95.8054C112.897 94.5081 110.989 90.5017 112.286 86.8387C113.621 83.1757 117.628 81.3061 121.291 82.6034C124.916 83.9007 126.824 87.9452 125.526 91.5701Z" fill="#FF725E"/>
<path d="M125.523 91.5697C125.485 91.5697 125.714 90.9974 125.829 89.8909C125.943 88.7843 125.79 87.1055 124.722 85.4266C124.188 84.6253 123.387 83.824 122.395 83.2517C121.402 82.6793 120.181 82.2978 118.884 82.2978C118.235 82.2978 117.549 82.4123 116.9 82.603C116.251 82.7938 115.641 83.0991 115.03 83.4806C113.848 84.2819 112.932 85.4647 112.398 86.8765C111.902 88.2883 111.863 89.8145 112.283 91.1882C112.474 91.8368 112.779 92.4855 113.161 93.0578C113.542 93.592 114 94.1262 114.496 94.5078C115.488 95.3854 116.671 95.8432 117.816 96.034C118.96 96.2248 120.067 96.1103 120.983 95.8051C122.891 95.2327 124.073 94.0117 124.684 93.096C125.294 92.1802 125.485 91.5697 125.523 91.5697C125.523 91.5697 125.447 91.7224 125.371 91.9895C125.32 92.1421 125.244 92.3074 125.142 92.4855C125.027 92.6763 124.913 92.9052 124.76 93.1341C124.15 94.088 122.967 95.3472 121.059 95.9577C120.067 96.2629 118.96 96.4156 117.778 96.2248C116.595 96.034 115.374 95.5761 114.344 94.6985C113.848 94.2788 113.351 93.7446 112.97 93.1723C112.588 92.6 112.283 91.9513 112.054 91.2263C111.634 89.8527 111.673 88.2501 112.169 86.8002C112.703 85.3503 113.695 84.0911 114.916 83.2898C115.526 82.8701 116.175 82.5649 116.862 82.3741C117.511 82.1833 118.197 82.0688 118.884 82.0688C120.22 82.0688 121.479 82.4886 122.509 83.0609C123.539 83.6714 124.302 84.5108 124.836 85.3503C125.943 87.0673 126.058 88.7843 125.943 89.8909C125.905 90.158 125.867 90.425 125.79 90.6158C125.765 90.8448 125.727 91.0228 125.676 91.15C125.561 91.4553 125.523 91.5697 125.523 91.5697Z" fill="#263238"/>
<path d="M129.126 297.69C129.126 299.064 126.188 300.208 122.563 300.208C118.938 300.208 116 299.064 116 297.69C116 296.278 118.938 295.134 122.563 295.134C126.188 295.134 129.126 296.278 129.126 297.69Z" fill="#EBEBEB"/>
<path d="M122.799 89.0136C122.799 91.1503 121.043 92.9055 118.907 92.9055C116.732 92.9055 114.977 91.1503 114.977 89.0136C114.977 86.8387 116.732 85.0835 118.907 85.0835C121.043 85.0835 122.799 86.8387 122.799 89.0136Z" fill="white"/>
<path d="M308.191 245.035L355.162 196.805L403.925 245.035V319.897H308.191V245.035Z" fill="#E0E0E0"/>
<path d="M403.93 319.897H520.917V245.034H403.93V319.897Z" fill="#E0E0E0"/>
<path d="M520.912 319.897H308.191V316.997H520.912V319.897Z" fill="#263238"/>
<path d="M361.994 319.897H342.152V278.459H361.994V319.897Z" fill="#455A64"/>
<g opacity="0.3">
<path d="M344.976 320.202V280.596H361.994V278.459H342.152V320.202H344.976Z" fill="black"/>
</g>
<path d="M364.008 260.869H340.16V237.059H364.008V260.869Z" fill="#455A64"/>
<path d="M443.189 319.896H423.348V278.458H443.189V319.896Z" fill="#455A64"/>
<g opacity="0.3">
<path d="M423.348 305.168L443.189 294.675V278.458H423.348V305.168Z" fill="white"/>
</g>
<g opacity="0.3">
<path d="M423.348 281.511H443.189V278.458H423.348V281.511Z" fill="black"/>
</g>
<path d="M466.307 319.896H446.504V278.458H466.307V319.896Z" fill="#455A64"/>
<g opacity="0.3">
<path d="M446.504 293.721L466.307 283.266V278.458H446.504V293.721Z" fill="white"/>
</g>
<g opacity="0.3">
<path d="M446.504 281.511H466.307V278.458H446.504V281.511Z" fill="black"/>
</g>
<path d="M498.208 319.896H478.367V278.458H498.208V319.896Z" fill="#455A64"/>
<g opacity="0.3">
<path d="M478.367 288.913L498.208 278.458H478.367V288.913Z" fill="white"/>
</g>
<g opacity="0.3">
<path d="M478.367 281.511H498.208V278.458H478.367V281.511Z" fill="black"/>
</g>
<path d="M403.928 245.035H520.914L478.37 196.805H355.164L403.928 245.035Z" fill="#FF725E"/>
<g opacity="0.3">
<path d="M403.93 319.897H520.917V245.034H403.93V319.897Z" fill="black"/>
</g>
<g opacity="0.3">
<path d="M364.008 237.059V239.12H342.144V260.869H340.16V237.059H364.008Z" fill="black"/>
</g>
<path d="M380.562 198.56L417.269 237.06H498.312V232.786L460.614 192.951H380.562V198.56Z" fill="#E0E0E0"/>
<g opacity="0.3">
<path d="M380.562 192.951L418.375 232.328L498.312 232.786V237.06H417.269L380.562 198.56V192.951Z" fill="black"/>
</g>
<path d="M388.699 195.584L421.514 228.894L490.424 229.238L459.25 195.546L388.699 195.584Z" fill="#455A64"/>
<g opacity="0.3">
<path d="M437.994 195.546L408.805 215.998L417.619 224.926L459.247 195.546H437.994Z" fill="white"/>
</g>
<path d="M444.946 231.451L410.109 195.165L411.597 193.715L446.434 230.04L444.946 231.451Z" fill="#E0E0E0"/>
<path d="M468.406 231.26L433.531 194.935L435.019 193.523L469.894 229.81L468.406 231.26Z" fill="#E0E0E0"/>
<path d="M471.15 207.298H397.395V205.238H471.15V207.298Z" fill="#E0E0E0"/>
<path d="M482.022 219.698H408.266V217.638H482.022V219.698Z" fill="#E0E0E0"/>
<path d="M222.84 326.918H334.676V310.892H222.84V326.918Z" fill="#FF725E"/>
<g opacity="0.4">
<path d="M222.84 326.918H334.676V310.892H222.84V326.918Z" fill="black"/>
</g>
<path d="M216.395 309.977C219.562 307.878 228.185 305.322 230.398 304.711C236.846 302.956 244.02 302.765 244.02 302.765C244.02 302.765 260.923 292.043 264.281 290.631C269.546 288.533 280.612 286.663 292.326 288.189C292.326 288.189 308.008 289.716 311.518 290.746C314.99 291.814 331.855 297.347 331.855 297.347C331.855 297.347 339.258 298.186 339.143 298.492C339.143 298.492 339.029 298.988 338.418 299.598V304.597C338.418 304.597 339.219 305.779 339.448 306.314C339.639 306.886 340.097 311.312 340.097 311.312C340.097 311.312 342.31 316.845 342.31 318.295C342.31 319.745 338.304 325.354 337.35 326.193C336.358 327.032 328.498 328.253 328.498 328.253V324.056C328.307 317.684 323.575 312.571 317.814 312.571C312.014 312.571 307.283 317.684 307.092 324.056L307.054 329.513H246.576H245.699L245.775 325.468C245.8 325.137 245.813 324.819 245.813 324.514C245.813 317.913 241.006 312.571 235.091 312.571C229.139 312.571 224.369 317.913 224.369 324.514C224.369 324.819 224.382 325.137 224.408 325.468H224.179V329.513H217.12C217.12 329.513 211.358 324.858 211.511 322.492V315.891C211.511 315.013 211.816 314.136 212.35 313.487C213.151 312.571 214.525 311.159 216.395 309.977Z" fill="#FF725E"/>
<g opacity="0.2">
<path d="M211.511 317.799L216.051 316.043L216.586 318.714L223.797 318.295C223.797 318.295 227.002 311.656 233.489 311.083C239.06 310.587 243.486 313.602 243.486 313.602L275.308 310.167C275.308 310.167 291.448 309.481 297.706 309.557C303.925 309.671 309.42 314.594 309.42 314.594C309.42 314.594 311.251 311.694 317.738 311.617C324.262 311.541 326.971 315.738 326.971 315.738C331.588 315.09 336.014 313.067 339.677 310.015L339.983 310.282C340.059 310.892 340.097 311.312 340.097 311.312C340.097 311.312 342.31 316.845 342.31 318.295C342.31 319.745 338.304 325.354 337.35 326.193C336.358 327.032 328.498 328.253 328.498 328.253V324.056C328.307 317.684 323.575 312.571 317.814 312.571C312.014 312.571 307.283 317.684 307.092 324.056L307.054 329.513H246.576H245.699L245.775 325.468C245.8 325.137 245.813 324.819 245.813 324.514C245.813 317.913 241.006 312.571 235.091 312.571C229.139 312.571 224.369 317.913 224.369 324.514C224.369 324.819 224.382 325.137 224.408 325.468H224.179V329.513H217.12C217.12 329.513 211.358 324.858 211.511 322.492V317.799Z" fill="black"/>
</g>
<path d="M318.76 297.729C319.256 298.148 319.065 299.102 318.455 299.178L313.418 299.98L284.801 303.681L249.926 305.932C249.354 305.97 248.82 305.703 248.514 305.131C248.209 304.635 248.095 303.91 248.82 303.07C250.27 301.43 256.756 297.156 258.282 296.317C259.809 295.515 270.454 287.999 286.403 289.029C291.211 289.22 300.445 290.822 312.426 292.654C312.655 292.692 312.922 292.806 313.113 292.997L318.76 297.729Z" fill="#263238"/>
<path d="M312.818 299.369C312.742 299.14 310.185 293.417 309.689 293.112C309.155 292.768 288.36 289.677 288.055 290.097C287.787 290.517 287.062 302.46 287.062 302.46L312.818 299.369Z" fill="#455A64"/>
<path d="M304.87 292.234L305.061 300.59H303.992V292.081L304.87 292.234Z" fill="#263238"/>
<path d="M284.114 290.059L281.977 302.46L259.236 304.367L256.031 299.293C256.031 299.293 264.769 293.417 272.515 291.623C280.375 289.83 284.114 290.059 284.114 290.059Z" fill="#455A64"/>
<path d="M216.468 316.042C216.468 316.042 217.994 312.456 217.956 312.341C217.727 311.693 216.583 309.823 216.583 309.823C216.583 309.823 215.858 310.319 214.98 310.968C214.026 311.654 213.072 312.685 212.233 313.562C211.775 314.096 211.508 314.783 211.508 315.508V318.484L216.468 316.042Z" fill="#EBEBEB"/>
<path d="M338.402 299.597C338.402 299.597 327.718 300.551 327.833 300.818C327.947 301.086 338.402 304.596 338.402 304.596V299.597Z" fill="#EBEBEB"/>
<path d="M338.459 304.711C338.497 304.711 338.535 303.605 338.535 302.193C338.535 300.781 338.497 299.636 338.459 299.636C338.421 299.636 338.383 300.781 338.383 302.193C338.383 303.605 338.421 304.711 338.459 304.711Z" fill="#263238"/>
<path d="M260.842 298.72C261.338 299.751 261.91 301.277 261.796 302.841C261.72 303.872 260.88 304.673 259.85 304.673L255.042 304.711C254.356 304.711 253.707 304.215 253.631 303.528C253.592 303.299 253.592 303.032 253.745 302.803C254.241 301.773 254.661 301.964 254.661 301.964C254.661 301.964 256.111 298.988 258.324 297.843C259.24 297.347 260.384 297.767 260.842 298.72Z" fill="#FF725E"/>
<path d="M255.899 304.71C255.899 304.71 255.708 304.672 255.441 304.481C255.212 304.328 254.907 304.023 254.754 303.565C254.64 303.107 254.678 302.687 254.678 302.382C254.678 302.115 254.678 301.924 254.716 301.924C254.716 301.924 254.754 302.077 254.792 302.382C254.792 302.687 254.792 303.107 254.907 303.489C255.021 303.908 255.327 304.214 255.517 304.404C255.746 304.595 255.899 304.672 255.899 304.71Z" fill="#263238"/>
<path d="M255.477 301.353C255.477 301.315 255.553 301.086 255.744 300.704C255.973 300.361 256.278 299.865 256.736 299.407C257.194 298.949 257.69 298.644 258.071 298.453C258.415 298.224 258.682 298.148 258.682 298.186C258.72 298.224 257.766 298.644 256.85 299.522C255.973 300.399 255.553 301.353 255.477 301.353Z" fill="white"/>
<path d="M286.107 289.028C286.107 289.028 286.094 289.066 286.069 289.143C286.043 289.27 286.018 289.423 285.992 289.601C285.916 289.944 285.84 290.478 285.725 291.127C285.534 292.462 285.267 294.294 285 296.316C284.771 298.338 284.58 300.17 284.466 301.505C284.441 301.862 284.415 302.167 284.39 302.421C284.39 302.701 284.39 302.93 284.39 303.108C284.39 303.286 284.377 303.426 284.352 303.528C284.352 303.629 284.364 303.68 284.39 303.68C284.39 303.68 284.39 303.629 284.39 303.528C284.39 303.426 284.402 303.286 284.428 303.108C284.428 302.93 284.441 302.701 284.466 302.421C284.491 302.167 284.517 301.874 284.542 301.544C284.657 300.208 284.886 298.377 285.153 296.354C285.382 294.332 285.649 292.501 285.84 291.165C285.916 290.516 285.992 289.982 286.03 289.601C286.056 289.423 286.081 289.283 286.107 289.181C286.107 289.079 286.107 289.028 286.107 289.028Z" fill="#455A64"/>
<g opacity="0.2">
<path d="M338.401 304.596L333.136 301.162L332.983 300.132C330.923 300.361 328.443 300.552 327.832 300.819C327.832 301.009 334.319 303.222 338.401 304.596Z" fill="black"/>
</g>
<g opacity="0.2">
<path d="M217.956 312.342L214.866 314.975L211.508 315.509V318.485L216.468 316.043C217.079 314.631 217.613 313.296 217.956 312.342Z" fill="black"/>
</g>
<path d="M329.085 324.743C329.161 330.772 324.354 335.732 318.325 335.808C312.296 335.923 307.336 331.115 307.26 325.086C307.145 319.058 311.991 314.097 318.02 314.021C324.01 313.907 328.971 318.714 329.085 324.743Z" fill="#263238"/>
<path d="M329.075 324.745C329.152 330.774 324.344 335.734 318.315 335.811C312.287 335.925 307.326 331.117 307.25 325.089C307.25 325.063 307.25 325.051 307.25 325.051L329.075 324.745Z" fill="#263238"/>
<path d="M325.763 324.818C325.839 329.016 322.443 332.526 318.246 332.564C314.011 332.64 310.539 329.245 310.462 325.009C310.386 320.812 313.782 317.302 318.017 317.263C322.252 317.187 325.725 320.583 325.763 324.818Z" fill="#FAFAFA"/>
<path d="M318.017 317.263C322.252 317.187 325.725 320.583 325.763 324.818L310.462 325.009C310.386 320.812 313.782 317.302 318.017 317.263Z" fill="#E0E0E0"/>
<path d="M322.845 324.856C322.883 327.412 320.823 329.549 318.228 329.587C315.672 329.625 313.535 327.565 313.497 324.97C313.458 322.414 315.519 320.277 318.114 320.239C320.67 320.201 322.807 322.261 322.845 324.856Z" fill="#263238"/>
<path d="M248.274 324.743C248.388 330.772 243.58 335.732 237.552 335.809C231.523 335.923 226.563 331.115 226.486 325.087C226.372 319.058 231.18 314.098 237.208 314.022C243.237 313.907 248.197 318.715 248.274 324.743Z" fill="#263238"/>
<path d="M248.264 324.74C248.378 330.769 243.571 335.729 237.542 335.806C231.513 335.92 226.553 331.112 226.477 325.084C226.477 325.058 226.477 325.046 226.477 325.046L248.264 324.74Z" fill="#263238"/>
<path d="M245.052 324.823C245.128 329.02 241.732 332.53 237.497 332.568C233.3 332.645 229.789 329.249 229.751 325.013C229.675 320.816 233.071 317.306 237.306 317.268C241.542 317.191 245.014 320.587 245.052 324.823Z" fill="#FAFAFA"/>
<path d="M237.306 317.268C241.542 317.191 245.014 320.587 245.052 324.823L229.751 325.013C229.675 320.816 233.071 317.306 237.306 317.268Z" fill="#E0E0E0"/>
<path d="M242.071 324.859C242.11 327.416 240.049 329.552 237.455 329.59C234.898 329.629 232.761 327.568 232.723 324.974C232.685 322.417 234.745 320.28 237.34 320.242C239.897 320.204 242.033 322.265 242.071 324.859Z" fill="#263238"/>
<path d="M307.251 324.743C307.251 324.858 294.049 324.972 277.756 324.972C261.464 324.972 248.262 324.858 248.262 324.743C248.262 324.667 261.464 324.552 277.756 324.552C294.049 324.552 307.251 324.667 307.251 324.743Z" fill="#263238"/>
<path d="M284.499 324.743C284.423 324.743 284.309 319.973 284.309 314.097C284.309 308.221 284.423 303.49 284.499 303.49C284.614 303.49 284.728 308.221 284.728 314.097C284.728 319.973 284.614 324.743 284.499 324.743Z" fill="#263238"/>
<path d="M250.118 324.743C250.041 324.781 250.003 323.141 249.049 320.699C248.172 318.295 245.92 315.357 242.601 313.182C241.761 312.648 240.922 312.152 240.083 311.808L239.777 311.694L240.006 311.465C242.41 309.29 244.471 307.382 246.073 305.97C246.798 305.245 247.409 304.711 247.79 304.291C247.968 304.139 248.121 303.999 248.248 303.872C248.35 303.745 248.401 303.681 248.401 303.681C248.63 303.872 245.119 307.344 240.273 311.77L240.197 311.427C241.113 311.808 241.952 312.304 242.83 312.877C246.188 315.051 248.477 318.104 249.316 320.622C249.444 320.927 249.545 321.22 249.622 321.5C249.698 321.78 249.774 322.047 249.851 322.301C249.901 322.555 249.952 322.797 250.003 323.026C250.029 323.23 250.054 323.433 250.08 323.637C250.156 324.362 250.156 324.743 250.118 324.743Z" fill="#263238"/>
<g opacity="0.3">
<path d="M281.222 308.526H277.864C277.33 308.526 276.91 308.107 276.91 307.573V307.458C276.91 306.924 277.33 306.504 277.864 306.504H281.222C281.756 306.504 282.214 306.924 282.214 307.458V307.573C282.214 308.107 281.756 308.526 281.222 308.526Z" fill="black"/>
</g>
<g opacity="0.3">
<path d="M310.901 305.016L307.581 305.55C307.047 305.665 306.551 305.283 306.475 304.787L306.436 304.673C306.36 304.138 306.703 303.642 307.238 303.566L310.557 302.994C311.091 302.917 311.587 303.261 311.664 303.795V303.909C311.778 304.406 311.397 304.902 310.901 305.016Z" fill="black"/>
</g>
<path d="M305.065 324.933C305.027 324.895 305.065 324.437 305.18 323.598C305.256 323.178 305.294 322.682 305.447 322.109C305.599 321.499 305.765 320.838 305.943 320.125C306.477 318.714 307.126 316.997 308.347 315.356C309.529 313.753 311.17 312.189 313.192 311.044C314.833 310.167 316.512 309.594 318.115 309.365L317.962 309.632C316.474 306.694 315.176 304.176 314.223 302.306C313.79 301.442 313.434 300.729 313.154 300.17C312.925 299.674 312.773 299.368 312.811 299.368C312.849 299.368 313.002 299.636 313.269 300.093C313.574 300.653 313.955 301.353 314.413 302.192C315.405 304.062 316.741 306.58 318.305 309.48L318.42 309.709L318.153 309.747C316.626 309.976 314.948 310.548 313.383 311.388C311.437 312.494 309.796 314.02 308.652 315.585C307.431 317.149 306.782 318.828 306.21 320.202C306.006 320.914 305.828 321.563 305.676 322.148C305.485 322.72 305.447 323.216 305.332 323.636C305.18 324.475 305.103 324.933 305.065 324.933Z" fill="#263238"/>
<path d="M331.818 306.695C331.818 307.802 330.94 308.679 329.872 308.679C328.803 308.679 327.926 307.802 327.926 306.695C327.926 305.627 328.803 304.749 329.872 304.749C330.94 304.749 331.818 305.627 331.818 306.695Z" fill="#263238"/>
<path d="M333.989 312.838H332.463V308.069C332.463 307.535 332.158 307.191 331.89 307.191H330.402V305.665H331.89C333.035 305.665 333.989 306.733 333.989 308.069V312.838Z" fill="#263238"/>
<path d="M380.686 299.712C380.736 304.723 380.8 309.735 380.876 314.746C380.927 317.213 380.965 319.693 380.991 322.186C381.016 323.458 381.029 324.717 381.029 325.964C381.067 327.108 381.22 328.406 380.647 329.436C379.655 331.42 376.984 331.42 375.077 331.534C372.838 331.687 370.587 331.801 368.323 331.878C363.859 331.992 359.433 332.03 354.968 331.992C350.428 331.954 345.849 331.84 341.27 331.763C340.176 331.738 339.083 331.712 337.989 331.687C336.844 331.687 335.28 331.954 334.288 331.382C333.486 330.962 333.486 330.619 333.486 329.932C333.486 326.014 333.486 322.097 333.486 318.18C333.486 314.568 333.486 310.943 333.486 307.305C333.486 306.962 332.914 306.962 332.914 307.305C332.914 307.331 332.914 307.343 332.914 307.343C332.914 307.687 333.486 307.687 333.486 307.343C333.486 307.343 333.486 307.331 333.486 307.305C333.486 306.962 332.914 306.962 332.914 307.305C332.914 314.86 332.914 322.402 332.914 329.932C332.914 332.526 335.89 332.259 337.798 332.259C342.682 332.336 347.566 332.45 352.45 332.526C357.181 332.603 361.875 332.603 366.606 332.488C368.972 332.412 371.325 332.31 373.665 332.183C375.535 332.107 377.633 332.183 379.35 331.382C381.372 330.466 381.639 328.558 381.601 326.536C381.576 323.56 381.538 320.584 381.487 317.607C381.411 311.655 381.334 305.69 381.258 299.712C381.258 299.369 380.686 299.369 380.686 299.712Z" fill="#263238"/>
<path d="M397.748 305.818H376.953V285.023H397.748V305.818Z" fill="#455A64"/>
<g opacity="0.3">
<path d="M397.756 305.818H393.062V285.022H397.756V305.818Z" fill="black"/>
</g>
<path d="M386.639 288.609L381.984 297.537H386.525L384.236 303.833L389.921 295.019H385.457L386.639 288.609Z" fill="white"/>
<path d="M26.8295 325.43H23.4336V314.67H26.8295V325.43Z" fill="#E0E0E0"/>
<path d="M30.1856 327.032H20.0742V324.285H30.1856V327.032Z" fill="#E0E0E0"/>
<path d="M81.6928 325.735H78.2969V315.013H81.6928V325.735Z" fill="#E0E0E0"/>
<path d="M85.0528 327.375H74.9414V324.59H85.0528V327.375Z" fill="#E0E0E0"/>
<path d="M52.6889 319.706H49.293V286.205H52.6889V319.706Z" fill="#263238"/>
<path d="M56.0489 321.347H45.9375V318.599H56.0489V321.347Z" fill="#263238"/>
<path d="M107.607 319.706H104.211V260.144H107.607V319.706Z" fill="#E0E0E0"/>
<path d="M110.967 321.346H100.855V318.599H110.967V321.346Z" fill="#E0E0E0"/>
<path d="M10.832 315.853V311.77L34.2218 256.52H108.092L109.122 260.641L89.2811 315.853H10.832Z" fill="#E0E0E0"/>
<path d="M16.6758 307.877L36.4788 261.098H101.497L84.6701 307.877H16.6758Z" fill="#455A64"/>
<g opacity="0.3">
<path d="M93.8534 261.098C93.3955 261.098 25.821 286.205 25.821 286.205L19.1055 302.078L96.677 274.415L101.485 261.098H93.8534Z" fill="white"/>
</g>
<g opacity="0.3">
<path d="M16.6758 307.878L94.6288 280.138L93.3697 283.687L23.6965 307.878H16.6758Z" fill="white"/>
</g>
<g opacity="0.3">
<path d="M10.832 311.77L87.4878 312.075L108.092 256.52L109.122 260.641L89.2811 315.853H10.832V311.77Z" fill="black"/>
</g>
<path d="M29.9467 276.436C47.931 276.436 65.9153 276.436 83.8996 276.436C89.0125 276.436 94.1127 276.436 99.2002 276.436C100.841 276.436 100.841 273.918 99.2002 273.918C81.2159 273.918 63.2316 273.918 45.2474 273.918C40.1344 273.918 35.0342 273.918 29.9467 273.918C28.3442 273.918 28.306 276.436 29.9467 276.436Z" fill="#E0E0E0"/>
<path d="M22.659 293.454C40.6687 293.454 58.6656 293.454 76.6499 293.454C81.7374 293.454 86.8376 293.454 91.9505 293.454C93.5531 293.454 93.5531 290.936 91.9505 290.936C73.9663 290.936 55.982 290.936 37.9977 290.936C32.8848 290.936 27.7719 290.936 22.659 290.936C21.0564 290.936 21.0564 293.454 22.659 293.454Z" fill="#E0E0E0"/>
<path d="M39.4501 311.12C41.7395 305.244 44.0289 299.368 46.3182 293.492C49.9558 284.157 53.5933 274.821 57.2309 265.486C58.0703 263.349 58.9098 261.199 59.7492 259.037C60.3215 257.511 57.9177 256.862 57.3454 258.35C55.0306 264.252 52.7285 270.141 50.4391 276.017C46.8015 285.352 43.164 294.675 39.5264 303.985C38.687 306.147 37.8476 308.31 37.0081 310.472C36.4358 311.96 38.8778 312.608 39.4501 311.12Z" fill="#E0E0E0"/>
<path d="M62.415 310.396C64.6535 304.673 66.8792 298.949 69.0923 293.226C72.6281 284.145 76.1639 275.076 79.6997 266.02C80.5392 263.909 81.3659 261.811 82.1799 259.725C82.7522 258.237 80.3102 257.55 79.7379 259.076C77.4994 264.774 75.2736 270.485 73.0605 276.208C69.5247 285.289 65.9889 294.37 62.4531 303.452C61.6391 305.538 60.8124 307.623 59.973 309.709C59.4006 311.236 61.8426 311.884 62.415 310.396Z" fill="#E0E0E0"/>
<path d="M114.7 325.925H111.266V315.127H114.7V325.925Z" fill="#E0E0E0"/>
<path d="M118.094 327.566H107.906V324.781H118.094V327.566Z" fill="#E0E0E0"/>
<path d="M170.024 326.269H166.59V315.433H170.024V326.269Z" fill="#E0E0E0"/>
<path d="M173.379 327.909H163.191V325.124H173.379V327.909Z" fill="#E0E0E0"/>
<path d="M140.801 320.202H137.367V286.395H140.801V320.202Z" fill="#263238"/>
<path d="M144.156 321.842H133.969V319.057H144.156V321.842Z" fill="#263238"/>
<path d="M196.129 320.202H192.695V260.144H196.129V320.202Z" fill="#E0E0E0"/>
<path d="M199.512 321.842H189.324V319.057H199.512V321.842Z" fill="#E0E0E0"/>
<path d="M98.6016 316.272V312.189L122.182 256.481H196.625L197.693 260.64L177.661 316.272H98.6016Z" fill="#E0E0E0"/>
<path d="M104.477 308.259L124.432 261.06H189.985L173.005 308.259H104.477Z" fill="#455A64"/>
<g opacity="0.3">
<path d="M182.273 261.06C181.854 261.06 113.707 286.396 113.707 286.396L106.953 302.421L185.135 274.491L189.981 261.06H182.273Z" fill="white"/>
</g>
<g opacity="0.3">
<path d="M104.477 308.259L183.078 280.291L181.781 283.877L111.574 308.259H104.477Z" fill="white"/>
</g>
<g opacity="0.3">
<path d="M98.6016 312.189L175.868 312.456L196.625 256.481L197.693 260.64L177.661 316.272H98.6016V312.189Z" fill="black"/>
</g>
<path d="M117.859 276.551C135.996 276.551 154.121 276.551 172.232 276.551C177.396 276.551 182.547 276.551 187.685 276.551C189.326 276.551 189.326 273.995 187.685 273.995C169.548 273.995 151.411 273.995 133.275 273.995C128.136 273.995 122.998 273.995 117.859 273.995C116.219 273.995 116.219 276.551 117.859 276.551Z" fill="#E0E0E0"/>
<path d="M110.535 293.721C128.672 293.721 146.796 293.721 164.908 293.721C170.072 293.721 175.223 293.721 180.361 293.721C182.002 293.721 182.002 291.203 180.361 291.203C162.224 291.203 144.087 291.203 125.95 291.203C120.812 291.203 115.674 291.203 110.535 291.203C108.895 291.203 108.895 293.721 110.535 293.721Z" fill="#E0E0E0"/>
<path d="M127.438 311.54C129.752 305.613 132.054 299.687 134.344 293.76C138.032 284.348 141.708 274.936 145.371 265.524C146.21 263.362 147.05 261.187 147.889 258.999C148.5 257.511 146.058 256.824 145.447 258.351C143.132 264.278 140.83 270.205 138.541 276.131C134.853 285.543 131.177 294.942 127.514 304.329C126.674 306.517 125.835 308.691 124.996 310.854C124.385 312.38 126.827 313.028 127.438 311.54Z" fill="#E0E0E0"/>
<path d="M150.594 310.777C152.832 305.003 155.071 299.241 157.309 293.493C160.896 284.335 164.47 275.19 168.031 266.058C168.845 263.947 169.659 261.836 170.473 259.724C171.084 258.198 168.642 257.55 168.031 259.038C165.793 264.812 163.554 270.586 161.316 276.361C157.754 285.493 154.181 294.637 150.594 303.795C149.78 305.906 148.966 308.017 148.152 310.129C147.541 311.617 149.983 312.304 150.594 310.777Z" fill="#E0E0E0"/>
<path d="M265.366 54.4337C264.047 54.4337 262.996 53.3837 262.996 52.0651V40.3686C262.996 39.05 264.047 38 265.366 38C266.685 38 267.735 39.05 267.735 40.3686V52.0651C267.735 53.3837 266.685 54.4337 265.366 54.4337Z" fill="#FFCB00"/>
<path d="M320.015 77.0698C319.404 77.0698 318.793 76.8256 318.329 76.3617C317.401 75.4338 317.401 73.9442 318.329 73.0163L326.611 64.7384C327.539 63.8105 329.053 63.8105 329.957 64.7384C330.886 65.6663 330.886 67.1559 329.957 68.0838L321.7 76.3617C321.236 76.8256 320.625 77.0698 320.015 77.0698Z" fill="#FFCB00"/>
<path d="M202.434 194.572C201.823 194.572 201.212 194.352 200.748 193.888C199.844 192.96 199.844 191.471 200.748 190.543L209.03 182.265C209.958 181.337 211.473 181.337 212.401 182.265C213.329 183.193 213.329 184.682 212.401 185.61L204.119 193.888C203.655 194.352 203.045 194.572 202.434 194.572Z" fill="#FFCB00"/>
<path d="M354.361 131.694H342.66C341.341 131.694 340.266 130.62 340.266 129.301C340.266 128.007 341.341 126.933 342.66 126.933H354.361C355.656 126.933 356.731 128.007 356.731 129.301C356.731 130.62 355.656 131.694 354.361 131.694Z" fill="#FFCB00"/>
<path d="M188.071 131.694H176.37C175.05 131.694 174 130.62 174 129.301C174 128.007 175.05 126.933 176.37 126.933H188.071C189.39 126.933 190.441 128.007 190.441 129.301C190.441 130.62 189.39 131.694 188.071 131.694Z" fill="#FFCB00"/>
<path d="M328.296 194.572C327.685 194.572 327.075 194.352 326.611 193.888L318.329 185.61C317.401 184.682 317.401 183.193 318.329 182.265C319.257 181.337 320.772 181.337 321.7 182.265L329.957 190.543C330.886 191.471 330.886 192.96 329.957 193.888C329.518 194.352 328.907 194.572 328.296 194.572Z" fill="#FFCB00"/>
<path d="M210.715 77.0698C210.105 77.0698 209.494 76.8256 209.03 76.3617L200.748 68.0838C199.844 67.1559 199.844 65.6663 200.748 64.7384C201.677 63.8105 203.191 63.8105 204.119 64.7384L212.401 73.0163C213.329 73.9442 213.329 75.4338 212.401 76.3617C211.937 76.8256 211.326 77.0698 210.715 77.0698Z" fill="#FFCB00"/>
<path d="M295.217 60.4164C294.899 60.4164 294.582 60.3675 294.289 60.2454C293.092 59.7326 292.505 58.3408 293.018 57.1443L297.538 46.3512C298.051 45.1303 299.443 44.5687 300.64 45.0815C301.862 45.5698 302.424 46.9617 301.911 48.1826L297.391 58.9757C297.025 59.8791 296.145 60.4164 295.217 60.4164Z" fill="#FFCB00"/>
<path d="M336.871 102.392C335.943 102.392 335.063 101.83 334.672 100.927C334.184 99.7058 334.77 98.3139 335.967 97.8256L346.814 93.3814C348.035 92.893 349.403 93.479 349.916 94.6756C350.405 95.8965 349.819 97.2883 348.622 97.7767L337.775 102.221C337.482 102.343 337.189 102.392 336.871 102.392Z" fill="#FFCB00"/>
<path d="M183.016 165.416C182.087 165.416 181.208 164.855 180.817 163.951C180.328 162.73 180.915 161.338 182.112 160.85L192.958 156.406C194.155 155.917 195.548 156.503 196.036 157.7C196.549 158.921 195.963 160.288 194.742 160.801L183.92 165.245C183.626 165.343 183.309 165.416 183.016 165.416Z" fill="#FFCB00"/>
<path d="M347.447 166.027C347.154 166.027 346.836 165.978 346.543 165.856L335.745 161.338C334.524 160.826 333.962 159.434 334.475 158.237C334.963 157.016 336.356 156.455 337.577 156.967L348.375 161.485C349.572 161.998 350.134 163.365 349.645 164.586C349.255 165.49 348.375 166.027 347.447 166.027Z" fill="#FFCB00"/>
<path d="M194.083 101.855C193.765 101.855 193.472 101.781 193.154 101.659L182.357 97.1419C181.16 96.6291 180.598 95.2616 181.086 94.0407C181.599 92.8442 182.992 92.2581 184.189 92.7709L194.986 97.2884C196.208 97.8012 196.77 99.193 196.257 100.39C195.89 101.293 195.011 101.855 194.083 101.855Z" fill="#FFCB00"/>
<path d="M236.05 60.1966C235.122 60.1966 234.242 59.6593 233.876 58.7314L229.43 47.8896C228.941 46.6931 229.503 45.3012 230.724 44.8128C231.946 44.3245 233.314 44.8861 233.827 46.107L238.249 56.9245C238.762 58.1454 238.175 59.5373 236.954 60.0256C236.661 60.1477 236.368 60.1966 236.05 60.1966Z" fill="#FFCB00"/>
<path d="M286.128 242.091H246.088C243.817 242.091 241.984 240.259 241.984 237.989C241.984 235.742 243.817 233.911 246.088 233.911H286.128C288.4 233.911 290.232 235.742 290.232 237.989C290.232 240.259 288.4 242.091 286.128 242.091Z" fill="#002A47"/>
<path d="M286.128 254.935H246.088C243.817 254.935 241.984 253.104 241.984 250.833C241.984 248.586 243.817 246.755 246.088 246.755H286.128C288.4 246.755 290.232 248.586 290.232 250.833C290.232 253.104 288.4 254.935 286.128 254.935Z" fill="#002A47"/>
<path d="M256.399 259.77C255.397 259.77 254.64 260.673 254.836 261.65C255.813 266.925 260.43 270.905 266 270.905C271.545 270.905 276.162 266.925 277.164 261.65C277.335 260.673 276.578 259.77 275.6 259.77H256.399Z" fill="#002A47"/>
<path d="M281.903 228.758H249.73C244.16 228.758 239.47 224.387 239.054 218.844C237.686 200.726 230.309 189.225 222.467 177.064C213.917 163.805 205.098 150.106 205.098 127.934C205.098 97.9966 226.522 72.7966 256.033 68.035C262.922 66.9117 270.202 67.0094 277.066 68.2792C305.746 73.6513 326.56 98.7292 326.56 127.934C326.56 150.106 317.716 163.805 309.166 177.064C301.349 189.225 293.947 200.726 292.579 218.844C292.163 224.387 287.473 228.758 281.903 228.758Z" fill="#FFCB00"/>
<path d="M236.392 165.978C235.17 165.978 233.973 165.392 233.192 164.342C211.254 134.209 227.426 105.933 228.135 104.76C229.234 102.88 231.652 102.245 233.534 103.344C235.415 104.467 236.05 106.86 234.95 108.741C234.34 109.791 220.781 133.867 239.592 159.702C240.862 161.46 240.471 163.927 238.713 165.221C238.004 165.709 237.198 165.978 236.392 165.978Z" fill="white"/>
<path d="M461.2 57.6L436.805 61.1379L456.14 76.4L433.267 67.2263L442.4 90.1401L427.138 70.7641L423.6 95.1589L420.062 70.7641L404.8 90.1401L413.933 67.2263L391.06 76.4L410.395 61.1379L386 57.6L410.395 54.0621L391.06 38.7589L413.933 47.9326L404.8 25.0188L420.062 44.3948L423.6 20L427.138 44.3948L442.4 25.0188L433.267 47.9326L456.14 38.7589L436.805 54.0621L461.2 57.6Z" fill="#FFC400"/>
<path d="M461.2 57.6L436.805 61.1379L456.14 76.4L433.267 67.2263L442.4 90.1401L427.138 70.7641L423.6 95.1589L420.062 70.7641L404.8 90.1401L413.933 67.2263L391.06 76.4L410.395 61.1379L386 57.6L410.395 54.0622L391.06 38.7589L413.933 47.9326L404.8 25.0188L420.062 44.3948L423.6 20L427.138 44.3948L442.4 25.0188L433.267 47.9326L456.14 38.7589L436.805 54.0622L461.2 57.6Z" stroke="#FFC400" stroke-width="5.5" stroke-miterlimit="10"/>
<path d="M449.23 57.6001C449.23 71.7515 437.753 83.1878 423.602 83.1878C409.45 83.1878 397.973 71.7515 397.973 57.6001C397.973 43.4487 409.45 31.9712 423.602 31.9712C437.753 31.9712 449.23 43.4487 449.23 57.6001Z" fill="#FFC400" stroke="white" stroke-width="4" stroke-miterlimit="10"/>
</svg>
