<svg width="543" height="272" viewBox="0 0 543 272" fill="none" xmlns="http://www.w3.org/2000/svg">
<path opacity="0.2" d="M18.1895 256.59C18.1895 114.979 132.988 0.180176 274.6 0.180176C416.211 0.180176 531.01 114.979 531.01 256.59" fill="white"/>
<path d="M377.615 172.802H363.292C363.171 172.802 363.054 172.85 362.968 172.936C362.882 173.022 362.834 173.139 362.834 173.26V184.128C362.834 185.646 363.437 187.102 364.511 188.176C365.585 189.25 367.041 189.853 368.559 189.853H372.348C373.867 189.853 375.323 189.25 376.397 188.176C377.47 187.102 378.074 185.646 378.074 184.128V173.26C378.073 173.139 378.025 173.022 377.939 172.936C377.853 172.85 377.736 172.802 377.615 172.802Z" fill="#FFBE55"/>
<path d="M375.897 187.98C379.13 186.155 384.674 180.769 383.751 176.979C383.504 175.966 382.885 175.203 381.959 174.774C379.818 173.779 376.752 174.981 376.41 175.121L377.43 177.249C378.17 176.948 379.978 176.456 380.829 176.854C381.001 176.934 381.191 177.072 381.292 177.49C381.831 179.698 377.492 184.352 374.584 185.994L375.897 187.98Z" fill="#FFBE55"/>
<path d="M272.564 181.703H198.491C197.892 181.703 197.318 181.465 196.894 181.041C196.47 180.618 196.232 180.043 196.232 179.444V136.964C196.232 136.365 196.47 135.79 196.894 135.367C197.317 134.943 197.892 134.705 198.491 134.705H272.563C273.162 134.705 273.736 134.943 274.16 135.367C274.583 135.79 274.821 136.365 274.821 136.964V179.444C274.821 179.741 274.763 180.034 274.65 180.308C274.536 180.582 274.37 180.831 274.161 181.041C273.951 181.251 273.702 181.417 273.428 181.531C273.154 181.644 272.86 181.703 272.564 181.703Z" fill="#FAFAFA"/>
<path d="M244.414 187.828C244.132 187.076 244.013 186.261 244.013 185.447V181.702H227.617V185.447C227.617 186.261 227.498 187.076 227.216 187.828C226.825 188.872 226.075 190.033 224.676 190.033H246.953C245.555 190.033 244.805 188.872 244.414 187.828Z" fill="#FAFAFA"/>
<path d="M395.743 195.067H160.39C160.011 195.067 159.648 194.916 159.38 194.648C159.112 194.38 158.961 194.016 158.961 193.637V191.438C158.961 190.649 159.601 190.009 160.39 190.009H395.743C396.532 190.009 397.172 190.649 397.172 191.438V193.637C397.172 193.825 397.135 194.011 397.063 194.184C396.992 194.358 396.886 194.515 396.753 194.648C396.621 194.781 396.463 194.886 396.29 194.958C396.116 195.03 395.93 195.067 395.743 195.067Z" fill="#D3D3D3"/>
<path d="M199.707 195.067H205.113V255.832H199.707V195.067ZM347.603 195.067H353.009V255.832H347.603V195.067Z" fill="#D3D3D3"/>
<path d="M272.564 174.227H198.491C197.892 174.227 197.318 173.989 196.894 173.566C196.47 173.142 196.232 172.568 196.232 171.969V129.488C196.232 128.889 196.47 128.314 196.894 127.891C197.318 127.467 197.892 127.229 198.491 127.229H272.564C272.86 127.229 273.154 127.288 273.428 127.401C273.702 127.515 273.951 127.681 274.161 127.891C274.37 128.1 274.537 128.349 274.65 128.623C274.764 128.897 274.822 129.191 274.822 129.488V171.968C274.822 172.264 274.764 172.558 274.65 172.832C274.537 173.107 274.371 173.356 274.161 173.566C273.951 173.775 273.702 173.942 273.428 174.055C273.154 174.169 272.86 174.227 272.564 174.227Z" fill="#2A94F4"/>
<path d="M199.277 129.844H271.888V171.132H199.277V129.844ZM355.064 181.703H280.992C280.393 181.703 279.819 181.465 279.395 181.041C278.971 180.617 278.733 180.043 278.733 179.444V136.963C278.733 136.364 278.971 135.79 279.395 135.366C279.819 134.942 280.393 134.705 280.992 134.705H355.065C355.664 134.705 356.238 134.942 356.662 135.366C357.086 135.79 357.324 136.364 357.324 136.963V179.444C357.323 180.043 357.085 180.618 356.662 181.041C356.238 181.465 355.663 181.703 355.064 181.703Z" fill="#FAFAFA"/>
<path d="M326.916 187.828C326.634 187.076 326.515 186.261 326.515 185.447V181.702H310.119V185.447C310.119 186.261 310 187.076 309.718 187.828C309.327 188.872 308.577 190.033 307.178 190.033H329.455C328.057 190.033 327.308 188.872 326.916 187.828Z" fill="#FAFAFA"/>
<path d="M355.065 174.227H280.993C280.394 174.227 279.82 173.989 279.396 173.566C278.972 173.142 278.734 172.568 278.734 171.969V129.488C278.734 128.889 278.972 128.314 279.396 127.891C279.82 127.467 280.394 127.229 280.993 127.229H355.066C355.665 127.229 356.239 127.467 356.663 127.891C357.087 128.314 357.325 128.889 357.325 129.488V171.969C357.324 172.568 357.086 173.142 356.663 173.566C356.239 173.989 355.664 174.227 355.065 174.227Z" fill="#2A94F4"/>
<path d="M281.777 129.844H354.388V171.132H281.777V129.844Z" fill="#FAFAFA"/>
<path d="M370.067 168.656C370.556 168.478 371.017 168.227 371.432 167.912C371.842 167.603 372.212 167.223 372.402 166.799C372.604 166.373 372.55 165.962 372.327 165.626C372.097 165.285 371.721 165 371.31 164.758C370.88 164.515 370.431 164.308 369.967 164.138C369.749 164.058 369.452 163.952 369.174 163.826C368.893 163.702 368.619 163.565 368.352 163.414C367.254 162.784 366.293 161.941 365.527 160.934C364.728 159.888 364.13 158.703 363.765 157.438C363.398 156.142 363.252 154.724 363.514 153.215C363.655 152.415 363.919 151.642 364.294 150.921C364.717 150.11 365.297 149.39 365.999 148.803C366.729 148.186 367.613 147.722 368.51 147.443C369.369 147.178 370.261 147.041 371.16 147.034L372.065 147.023C372.634 147.016 373.198 147.138 373.713 147.38C374.229 147.621 374.683 147.977 375.041 148.419C375.4 148.861 375.654 149.379 375.784 149.933C375.914 150.487 375.917 151.064 375.792 151.62C375.667 152.175 375.419 152.695 375.064 153.141C374.71 153.587 374.259 153.946 373.746 154.193C373.233 154.44 372.671 154.567 372.101 154.566C371.532 154.564 370.97 154.433 370.459 154.184C370.009 153.964 369.77 153.847 369.482 153.833C369.192 153.809 368.742 154.068 368.414 154.635C368.084 155.191 367.876 155.968 367.845 156.787C367.811 157.646 367.954 158.503 368.265 159.304C368.675 160.374 369.353 161.321 370.233 162.055C370.413 162.209 370.596 162.343 370.849 162.519C371.319 162.857 371.777 163.222 372.2 163.651C372.616 164.082 373.023 164.577 373.238 165.221C373.347 165.539 373.391 165.896 373.336 166.234C373.28 166.556 373.155 166.862 372.967 167.129C372.608 167.633 372.148 167.975 371.681 168.275C371.21 168.564 370.721 168.823 370.216 169.049C370.166 169.068 370.111 169.068 370.061 169.047C370.011 169.027 369.971 168.988 369.949 168.94C369.927 168.891 369.924 168.835 369.941 168.784C369.959 168.733 369.995 168.691 370.042 168.666C370.048 168.664 370.052 168.661 370.058 168.66L370.067 168.656Z" fill="white"/>
<path d="M338.583 165.924H298.706C297.58 165.924 296.501 165.477 295.705 164.681C294.908 163.885 294.461 162.805 294.461 161.679V138.95C294.461 138.393 294.571 137.841 294.784 137.326C294.997 136.811 295.31 136.343 295.704 135.949C296.099 135.555 296.567 135.242 297.082 135.029C297.597 134.815 298.149 134.706 298.706 134.706H338.583C339.709 134.706 340.789 135.153 341.585 135.949C342.381 136.745 342.828 137.825 342.828 138.95V161.679C342.828 162.805 342.38 163.885 341.584 164.681C340.789 165.476 339.709 165.924 338.583 165.924Z" fill="#FAFAFA"/>
<path d="M317.963 159C312.488 159 308 154.713 308 149.488C308 144.252 312.5 140 318.049 140C323.488 140 328 144.321 328 149.523C327.988 154.748 323.488 159 317.963 159ZM324.012 143.163C323.878 143.047 323.768 142.966 323.659 142.885C322.378 141.912 320.951 141.263 319.317 141.054C317.659 140.846 316.037 141.008 314.488 141.634C312.902 142.282 311.61 143.29 310.622 144.634C310.598 144.669 310.561 144.738 310.585 144.762C310.598 144.796 310.671 144.808 310.72 144.808C311.341 144.796 311.963 144.785 312.573 144.762C312.89 144.75 313.195 144.727 313.512 144.738C313.72 144.738 313.841 144.866 313.854 145.04C313.866 145.202 313.756 145.352 313.561 145.387C313.329 145.434 313.098 145.445 312.866 145.48C312.512 145.515 312.5 145.503 312.622 145.851C313.634 148.735 314.659 151.609 315.683 154.493C315.695 154.54 315.732 154.586 315.78 154.655C315.817 154.574 315.854 154.528 315.866 154.482L316.159 153.648C316.659 152.234 317.159 150.821 317.646 149.396C317.695 149.268 317.707 149.095 317.671 148.967C317.268 147.878 316.841 146.789 316.427 145.7C316.378 145.561 316.293 145.491 316.134 145.48C315.866 145.457 315.598 145.434 315.329 145.376C315.159 145.341 315.073 145.213 315.073 145.051C315.073 144.889 315.171 144.762 315.341 144.738C315.476 144.715 315.61 144.727 315.744 144.727C316.951 144.796 318.159 144.843 319.366 144.75C319.646 144.727 319.915 144.715 320.195 144.715C320.524 144.715 320.695 144.97 320.549 145.225C320.476 145.352 320.329 145.387 320.195 145.41C319.963 145.434 319.744 145.457 319.512 145.48C319.28 145.503 319.256 145.538 319.329 145.746C319.695 146.766 320.049 147.785 320.415 148.805L322.39 154.366C322.415 154.424 322.451 154.482 322.476 154.528C322.537 154.459 322.561 154.412 322.585 154.354C323.024 152.964 323.463 151.585 323.89 150.195C324.146 149.373 324.134 148.55 323.841 147.727C323.659 147.229 323.378 146.777 323.098 146.326C322.854 145.943 322.622 145.549 322.512 145.109C322.293 144.217 322.805 143.418 323.756 143.221C323.817 143.221 323.89 143.198 324.012 143.163ZM318.195 150.357H318.146C318.11 150.427 318.073 150.485 318.049 150.554C317.915 150.902 317.793 151.261 317.671 151.609C316.963 153.543 316.268 155.478 315.561 157.413C315.476 157.656 315.5 157.726 315.744 157.772C316.11 157.841 316.463 157.923 316.829 157.969C318.134 158.143 319.402 158.015 320.659 157.668C320.927 157.587 320.951 157.552 320.854 157.297C320.098 155.339 319.354 153.381 318.598 151.423C318.463 151.052 318.329 150.705 318.195 150.357ZM313.976 157.135L314.012 157.1C313.976 156.996 313.951 156.88 313.902 156.776C313.049 154.563 312.195 152.35 311.354 150.137C310.854 148.84 310.354 147.542 309.866 146.233C309.854 146.198 309.817 146.163 309.78 146.129C309.744 146.152 309.707 146.175 309.683 146.21C309.366 146.951 309.134 147.727 309.049 148.527C308.902 149.894 309.073 151.238 309.573 152.524C310.28 154.308 311.524 155.675 313.183 156.718C313.439 156.88 313.72 156.996 313.976 157.135ZM322.561 156.799C322.902 156.729 323.146 156.567 323.378 156.405C324.207 155.802 324.854 155.026 325.439 154.215C326.39 152.918 326.89 151.47 326.976 149.894C327.061 148.388 326.695 146.974 326 145.619C325.988 145.596 325.963 145.573 325.927 145.526C325.915 145.607 325.915 145.642 325.915 145.688C326.024 146.777 325.829 147.832 325.451 148.851C324.512 151.446 323.561 154.03 322.61 156.625C322.598 156.66 322.585 156.718 322.561 156.799Z" fill="#FFC145"/>
<path d="M231.4 189.646C231.4 188.44 231.879 187.283 232.732 186.431C233.585 185.578 234.741 185.099 235.947 185.099C237.153 185.099 238.31 185.578 239.162 186.431C240.015 187.283 240.494 188.44 240.494 189.646" fill="#0B4870"/>
<path d="M196.104 151.473C196.104 151.473 199.123 150.03 200.449 149.274C201.774 148.52 205.183 147.483 205.458 147.237C205.733 146.99 215.565 146.384 216.161 145.87C216.757 145.357 217.337 147.076 214.789 147.634C212.241 148.192 208.696 149.557 208.502 150.553C208.308 151.549 211.119 151.784 211.404 152.604C211.689 153.425 211.324 153.242 210.921 153.416C210.518 153.593 207.577 151.964 206.284 152.427C204.991 152.89 203.014 152.25 202.022 152.588C201.032 152.927 196.212 154.549 196.212 154.549L196.104 151.473Z" fill="#FAB9AF"/>
<path d="M201.552 153.605L203.107 153.03C203.107 153.03 201.167 148.478 200.321 148.588C199.345 148.716 198.129 149.038 198.129 149.038L201.552 153.605Z" fill="#EAD8CF"/>
<path d="M201.908 154.392C201.709 154.244 198.602 148.282 198.602 148.282L191.963 149.183L195.551 156.244L201.908 154.392Z" fill="#CCE9FF"/>
<path d="M221.033 179.325C221.033 179.325 224.431 179.632 225.987 179.663C227.542 179.692 231.069 180.561 231.439 180.488C231.809 180.417 240.74 185.011 241.531 184.87C242.322 184.731 241.933 186.541 239.409 185.701C236.885 184.861 233.067 184.209 232.377 184.98C231.689 185.752 234.03 187.425 233.851 188.291C233.673 189.16 233.451 188.808 233.006 188.752C232.56 188.695 230.832 185.735 229.458 185.466C228.084 185.198 226.685 183.605 225.64 183.387C224.596 183.167 219.526 182.075 219.526 182.075L221.033 179.325ZM178.694 106.846C178.694 106.846 186.306 104.002 189.816 109.798C193.326 115.592 192.988 127.191 189.15 128.618C185.314 130.044 179.549 129.299 177.585 125.673C175.621 122.047 173.847 116.807 173.933 113.303C174.018 109.799 176.695 107.857 178.694 106.846Z" fill="#FAB9AF"/>
<path d="M188.324 128.883C188.324 128.883 187.709 134.346 188.233 135.361C188.757 136.372 178.731 135.361 178.731 135.361C178.731 135.361 177.826 127.484 176.227 122.829C174.629 118.178 188.324 128.883 188.324 128.883Z" fill="#FAB9AF"/>
<path d="M176.227 122.829C176.227 122.829 176.595 128.693 179.522 128.234C182.448 127.777 186.365 119.202 187.586 118.775C188.808 118.347 188.819 117.629 188.819 117.629L189.584 118.747L190.881 118.829C190.881 118.829 189.698 115.347 191.483 113.926C193.269 112.507 189.63 102.654 180.247 105.934C180.247 105.934 173.04 107.921 173.302 112.019C173.564 116.12 174.615 120.789 176.227 122.829Z" fill="#0B4870"/>
<path d="M189.422 136.579C189.422 136.579 189.389 134.646 188.513 134.459C187.636 134.275 178.834 133.428 177.758 133.851V136.106C177.758 136.106 179.832 137.381 189.422 136.579Z" fill="#E2D2CA"/>
<path d="M188.628 116.14C188.464 115.451 186.715 113.487 186.046 115.592C185.377 117.694 187.058 120.525 187.995 120.281C188.933 120.04 189.044 117.883 188.628 116.14Z" fill="#EEA886"/>
<path d="M201.405 210.403C201.405 210.403 202.602 218.95 202.097 220.465C201.592 221.98 197.045 229.054 197.045 229.054L191.992 250.779H185.93L185.424 225.517L182.898 249.769L177.846 249.263L171.783 225.517C171.783 225.517 161.091 224.942 163.153 208.557C165.214 192.172 201.405 210.403 201.405 210.403Z" fill="#0B4870"/>
<path d="M163.106 208.815C163.106 208.815 167.774 210.19 175.735 211.067C183.696 211.945 203.585 210.751 203.711 209.811C203.837 208.87 199.433 174.789 199.684 173.035C199.934 171.28 200.068 165.026 200.068 165.026C200.167 166.74 201.912 173.739 204.02 177.554C204.781 178.932 207.009 182.034 208.566 182.27C217.253 183.582 226.267 184.239 226.853 184.088C226.361 183.874 227.398 178.711 226.853 178.53C226.377 178.37 220.285 177.519 215.738 176.509C214.067 176.138 210.054 166.637 210.054 166.637C209.301 164.945 206.562 154.284 205.711 150.594C203.79 142.273 204.086 141.927 204.086 141.927C198.262 140.166 189.422 136.579 189.422 136.579L177.758 136.105C177.758 136.105 167.052 138.462 162.837 140.365C162.437 140.546 162.435 149.916 161.338 152.372L164.833 159.746C164.833 159.746 166.852 174.353 167.271 180.85C167.463 183.833 163.106 208.815 163.106 208.815Z" fill="#2A94F4"/>
<path d="M160.853 164.538C161.158 165.52 162.541 166.35 163.439 166.714C164.031 166.954 164.679 167.019 165.307 166.902L165.764 166.818V166.817L173.757 165.333C173.757 165.333 175.506 145.191 162.837 140.365C162.502 140.475 158.056 155.519 160.853 164.538Z" fill="#2A94F4"/>
<path d="M176.525 107.529C176.525 107.529 166.947 108.5 176.354 123.041L176.525 107.529ZM190.98 252.801C190.98 252.801 193.001 252.801 193.506 253.811C194.012 254.821 194.012 255.832 194.012 255.832H185.423L185.928 252.8L190.98 252.801Z" fill="#0B4870"/>
<path d="M255.154 151.045C254.739 151.311 254.256 151.384 253.794 151.511C252.185 151.949 250.573 152.38 248.959 152.804C248.804 152.845 248.81 152.879 248.895 152.993C250.631 155.326 252.364 157.661 254.097 159.996C254.152 160.068 254.203 160.143 254.25 160.22C254.417 160.507 254.375 160.685 254.095 160.857C253.899 160.975 253.691 161.073 253.475 161.15C250.729 162.18 247.966 163.166 245.205 164.153C243.373 164.808 241.537 165.452 239.701 166.095C239.349 166.219 238.988 166.318 238.62 166.383C238.211 166.455 237.856 166.353 237.557 166.06C237.243 165.752 237.021 165.377 236.801 165.003C235.298 162.454 233.888 159.85 232.442 157.268C232.286 156.99 232.287 156.99 231.98 157.07C229.054 157.83 226.128 158.592 223.202 159.352C222.854 159.442 222.501 159.474 222.146 159.397C221.588 159.276 221.187 158.948 220.951 158.436C217.983 151.995 215.019 145.553 212.052 139.112C211.911 138.801 211.792 138.48 211.695 138.152V137.826C211.783 137.448 212.056 137.306 212.409 137.279C213.406 137.202 214.403 137.135 215.399 137.057C217.05 136.928 218.7 136.795 220.35 136.658C220.496 136.646 220.648 136.667 220.786 136.596H221.836C222.289 136.727 222.502 137.105 222.72 137.47C223.96 139.545 225.196 141.622 226.433 143.699C228.629 147.387 230.826 151.074 233.018 154.764C233.095 154.893 233.164 154.913 233.301 154.88C236.135 154.197 238.969 153.518 241.804 152.839L246.126 151.806C246.178 151.793 246.229 151.777 246.281 151.762C246.267 151.677 246.213 151.626 246.172 151.568C244.792 149.597 243.413 147.625 242.032 145.654C241.674 145.143 241.772 144.869 242.392 144.753C243.073 144.626 243.76 144.533 244.444 144.42C245.716 144.211 246.988 143.997 248.26 143.788C248.462 143.755 248.666 143.727 248.868 143.699C249.198 143.654 249.47 143.779 249.712 143.989C250.118 144.339 250.416 144.782 250.749 145.194C252.148 146.927 253.52 148.679 254.94 150.394C255.004 150.471 255.061 150.558 255.152 150.61C255.154 150.755 255.154 150.9 255.154 151.045ZM222.91 157.406C222.983 157.391 223.059 157.378 223.136 157.36C223.803 157.199 224.47 157.037 225.138 156.875C227.093 156.404 229.049 155.933 231.004 155.46C231.284 155.393 231.322 155.293 231.171 155.055C231.136 154.999 231.101 154.942 231.068 154.884C227.818 149.271 224.567 143.658 221.322 138.041C221.223 137.869 221.109 137.823 220.928 137.841C220.556 137.879 220.183 137.903 219.81 137.935L217.143 138.168C216.098 138.259 215.053 138.353 214.008 138.442C213.738 138.465 213.69 138.525 213.779 138.778C213.8 138.835 213.827 138.889 213.854 138.942C214.002 139.239 214.154 139.534 214.299 139.832C217.089 145.571 219.879 151.309 222.668 157.049C222.71 157.135 222.767 157.215 222.775 157.316C222.78 157.397 222.843 157.402 222.91 157.406ZM238.775 164.153C238.82 164.141 238.885 164.127 238.948 164.106C242.162 163.011 245.376 161.916 248.589 160.819C249.672 160.45 250.753 160.075 251.834 159.703C252.026 159.637 252.045 159.589 251.947 159.414C251.902 159.336 251.852 159.261 251.799 159.188C250.741 157.735 249.682 156.283 248.626 154.828C248.257 154.321 247.898 153.807 247.535 153.296C247.433 153.152 247.327 153.041 247.117 153.099C246.06 153.385 245 153.664 243.94 153.941C240.702 154.788 237.463 155.634 234.223 156.477C234.09 156.511 234.052 156.54 234.135 156.681C235.422 158.875 236.702 161.073 237.986 163.268C238.128 163.513 238.262 163.764 238.45 163.978C238.531 164.072 238.624 164.145 238.775 164.153ZM248.927 144.89C248.824 144.911 248.707 144.937 248.588 144.958L244.107 145.766C243.633 145.851 243.617 145.891 243.901 146.277C245.136 147.958 246.372 149.638 247.605 151.321C247.675 151.416 247.732 151.447 247.856 151.415C249.146 151.087 250.437 150.765 251.728 150.444C252.113 150.348 252.503 150.267 252.888 150.171C253.162 150.103 253.183 150.026 253.012 149.811C252.408 149.051 251.805 148.289 251.204 147.527C250.572 146.728 249.943 145.926 249.312 145.126C249.217 145.006 249.11 144.902 248.927 144.89Z" fill="#FFBE55"/>
<path d="M534.546 272H8.0841C3.61955 272 0 268.38 0 263.916C0 259.451 3.61955 255.832 8.0841 255.832H534.546C539.011 255.832 542.63 259.451 542.63 263.916C542.63 268.38 539.01 272 534.546 272Z" fill="#D3D3D3"/>
<path d="M184.414 186.109H226.349V190.151H184.414V186.109Z" fill="#0B4870"/>
<path d="M188.543 213.336H175.821C166.94 213.336 159.74 205.57 159.74 195.99L163.762 161.235C165.144 151.971 173.718 146.023 182.417 146.023C191.211 146.023 199.836 152.118 201.11 161.504L204.624 195.989C204.624 205.57 197.425 213.336 188.543 213.336Z" fill="#FFBE55"/>
<path d="M184.465 255.833H180.06C179.578 255.833 179.116 255.641 178.775 255.3C178.434 254.959 178.242 254.497 178.242 254.014V176.709C178.242 176.226 178.434 175.764 178.775 175.423C179.116 175.082 179.578 174.89 180.06 174.89H184.465C184.704 174.89 184.94 174.937 185.161 175.028C185.381 175.12 185.582 175.253 185.751 175.422C185.92 175.591 186.054 175.792 186.145 176.013C186.236 176.233 186.283 176.47 186.283 176.709V254.014C186.283 254.496 186.092 254.959 185.751 255.3C185.41 255.641 184.947 255.832 184.465 255.833Z" fill="#2A94F4"/>
<path d="M185.75 179.191H178.397C177.462 179.191 176.566 178.82 175.905 178.159C175.244 177.499 174.873 176.602 174.873 175.668V174.112C174.873 173.178 175.244 172.281 175.905 171.62C176.566 170.96 177.462 170.588 178.397 170.588H185.75C186.684 170.588 187.581 170.96 188.242 171.62C188.902 172.281 189.274 173.178 189.274 174.112V175.668C189.274 176.602 188.902 177.499 188.242 178.159C187.581 178.82 186.684 179.191 185.75 179.191Z" fill="#2A94F4"/>
<path d="M200.314 230.571H164.471C164.104 230.571 163.741 230.498 163.402 230.358C163.063 230.218 162.755 230.012 162.496 229.753C162.236 229.493 162.031 229.185 161.89 228.847C161.75 228.508 161.678 228.145 161.678 227.778V222.754C161.678 222.013 161.972 221.303 162.496 220.779C163.019 220.255 163.73 219.961 164.471 219.961H200.314C201.055 219.961 201.766 220.255 202.289 220.779C202.813 221.303 203.107 222.013 203.107 222.754V227.778C203.107 228.145 203.035 228.508 202.895 228.847C202.755 229.186 202.549 229.493 202.289 229.753C202.03 230.012 201.722 230.218 201.383 230.358C201.044 230.498 200.681 230.571 200.314 230.571Z" fill="#FFBE55"/>
<path opacity="0.29" d="M276.626 53.5141C279.516 53.5141 281.859 51.1711 281.859 48.2809C281.859 45.3906 279.516 43.0476 276.626 43.0476C273.736 43.0476 271.393 45.3906 271.393 48.2809C271.393 51.1711 273.736 53.5141 276.626 53.5141Z" fill="#FFBE55"/>
<path d="M276.626 28.9673C265.959 28.9673 257.312 37.6143 257.312 48.2806H295.939C295.939 37.6143 287.293 28.9673 276.626 28.9673Z" fill="#FFBE55"/>
<path d="M275.807 0H277.441V28.9673H275.807V0Z" fill="#0B4870"/>
<path d="M190.766 250.78L190.475 252.801H186.434V250.78H190.766Z" fill="#FAB9AF"/>
<path d="M449.715 252.379C449.715 253.257 449.366 254.099 448.746 254.719C448.125 255.34 447.283 255.689 446.405 255.689H433.638C432.76 255.689 431.918 255.34 431.298 254.719C430.677 254.099 430.328 253.257 430.328 252.379V222.588C430.328 221.711 430.677 220.869 431.298 220.248C431.918 219.627 432.76 219.279 433.638 219.279H446.405C447.283 219.279 448.125 219.627 448.746 220.248C449.366 220.869 449.715 221.711 449.715 222.588V252.379Z" fill="#FFBE55"/>
<path d="M441.55 184.986C441.55 184.986 431.098 206.232 446.498 209.85C461.897 213.468 462.341 197.442 460.763 190.838C459.185 184.233 483.622 166.477 463.468 150.769C443.313 135.061 427.606 176.883 441.55 184.986Z" fill="#CCE9FF"/>
<path d="M422.089 196.52C422.089 196.52 421.597 210.501 430.773 208.724C439.95 206.948 436.31 198.202 433.862 195.024C431.413 191.846 440.288 176.362 425.623 172.773C410.958 169.183 412.612 195.526 422.089 196.52Z" fill="#CCE9FF"/>
<path d="M423.654 183.34L435.003 219.278M430.274 190.658L427.87 196.692L422.393 193.675M453.86 163.007L444.124 219.278M459.571 171.518L451.506 176.612L446.331 169.627M457.364 183.319L449.299 188.413L444.124 181.427" stroke="#4D4D4D" stroke-miterlimit="10"/>
<path d="M116.76 252.379C116.76 253.257 116.411 254.099 115.791 254.719C115.17 255.34 114.328 255.689 113.45 255.689H100.683C99.805 255.689 98.9632 255.34 98.3425 254.719C97.7218 254.099 97.373 253.257 97.373 252.379V222.588C97.373 221.711 97.7218 220.869 98.3425 220.248C98.9632 219.627 99.805 219.279 100.683 219.279H113.45C114.328 219.279 115.17 219.627 115.791 220.248C116.411 220.869 116.76 221.711 116.76 222.588V252.379Z" fill="#FFBE55"/>
<path d="M108.595 184.986C108.595 184.986 98.143 206.232 113.542 209.85C128.942 213.468 129.386 197.442 127.808 190.838C126.23 184.233 150.667 166.477 130.512 150.769C110.358 135.061 94.651 176.883 108.595 184.986Z" fill="#CCE9FF"/>
<path d="M89.134 196.52C89.134 196.52 88.642 210.5 97.8181 208.724C106.994 206.948 103.355 198.202 100.907 195.024C98.4573 191.846 107.332 176.362 92.6672 172.773C78.0027 169.184 79.6576 195.525 89.134 196.52Z" fill="#CCE9FF"/>
<path d="M90.7002 183.34L102.049 219.278M97.3204 190.658L94.917 196.692L89.4395 193.675M120.906 163.007L111.17 219.278M126.618 171.518L118.552 176.612L113.377 169.627M124.411 183.319L116.346 188.413L111.17 181.427" stroke="#4D4D4D" stroke-miterlimit="10"/>
</svg>
