<svg width="69" height="68" viewBox="0 0 69 68" fill="none" xmlns="http://www.w3.org/2000/svg">
<path d="M30.2971 37.2744C30.3556 36.1422 30.8466 35.0756 31.6687 34.2949C32.4908 33.5143 33.5812 33.079 34.715 33.079C35.8487 33.079 36.9391 33.5143 37.7612 34.2949C38.5833 35.0756 39.0743 36.1422 39.1328 37.2744V44.1164H44.6182V27.4832H24.7055V44.1164H30.3089V37.2744H30.2971Z" fill="#0E2B5C"/>
<path d="M48.7942 37.1565H46.0455V44.1165H48.7942V37.1565Z" fill="#0E2B5C"/>
<path d="M46.6472 25.9497L34.5911 19.2256L22.5467 25.9497H23.9741H45.3378H46.6472Z" fill="#0E2B5C"/>
<path d="M23.1484 37.1565H20.3998V44.1165H23.1484V37.1565Z" fill="#0E2B5C"/>
<path d="M34.5908 1.41275C25.708 1.37228 17.1703 4.85008 10.8442 11.086C7.74116 14.1574 5.27785 17.8136 3.59672 21.843C1.91558 25.8725 1.04999 30.1952 1.04999 34.5613C1.04999 38.9273 1.91558 43.2501 3.59672 47.2795C5.27785 51.309 7.74116 54.9652 10.8442 58.0366C17.1932 64.2376 25.716 67.7091 34.5908 67.7091C43.4656 67.7091 51.9884 64.2376 58.3374 58.0366C61.4405 54.9652 63.9038 51.309 65.5849 47.2795C67.266 43.2501 68.1316 38.9273 68.1316 34.5613C68.1316 30.1952 67.266 25.8725 65.5849 21.843C63.9038 17.8136 61.4405 14.1574 58.3374 11.086C52.0127 4.84788 43.4742 1.3697 34.5908 1.41275ZM34.5908 57.4468C30.0759 57.3956 25.677 56.0099 21.9478 53.4643C18.2186 50.9187 15.3258 47.3269 13.6333 43.1408C11.9409 38.9548 11.5246 34.3617 12.4367 29.9396C13.3488 25.5175 15.5487 21.464 18.7594 18.2893C21.97 15.1146 26.0481 12.9606 30.4802 12.0984C34.9123 11.2362 39.5004 11.7043 43.6671 13.4438C47.8338 15.1833 51.3928 18.1165 53.8962 21.8742C56.3996 25.6319 57.7355 30.0461 57.7358 34.5613C57.6953 40.6634 55.2355 46.5001 50.8963 50.7907C46.5571 55.0812 40.693 57.475 34.5908 57.4468Z" fill="#0E2B5C"/>
<path d="M65.994 58.1546C66.2962 58.1592 66.5904 58.2531 66.8395 58.4244C67.0885 58.5958 67.2814 58.8369 67.3939 59.1175C67.5063 59.3981 67.5334 59.7056 67.4716 60.0016C67.4097 60.2975 67.2619 60.5685 67.0465 60.7806C66.8311 60.9927 66.5578 61.1365 66.261 61.1937C65.9642 61.251 65.6571 61.2193 65.3782 61.1026C65.0994 60.9859 64.8612 60.7893 64.6937 60.5377C64.5262 60.286 64.4369 59.9905 64.4368 59.6882C64.4384 59.4852 64.4799 59.2846 64.559 59.0977C64.6381 58.9108 64.7532 58.7413 64.8978 58.5989C65.0424 58.4565 65.2136 58.3439 65.4017 58.2677C65.5898 58.1915 65.791 58.153 65.994 58.1546Z" fill="#0E2B5C"/>
<path d="M55.483 0.586959C55.7853 0.59161 56.0794 0.685507 56.3285 0.856819C56.5775 1.02813 56.7704 1.26923 56.8829 1.54983C56.9954 1.83043 57.0224 2.13798 56.9606 2.43389C56.8988 2.7298 56.7509 3.00086 56.5355 3.21298C56.3201 3.4251 56.0468 3.56883 55.75 3.62612C55.4532 3.6834 55.1461 3.6517 54.8672 3.53497C54.5884 3.41823 54.3502 3.22167 54.1828 2.97001C54.0153 2.71835 53.9259 2.42281 53.9258 2.12051C53.9274 1.91757 53.9689 1.71693 54.048 1.53003C54.1271 1.34313 54.2422 1.17365 54.3868 1.03124C54.5314 0.888836 54.7026 0.776301 54.8907 0.700073C55.0788 0.623845 55.2801 0.585404 55.483 0.586959Z" fill="#0E2B5C"/>
<path d="M13.7113 0.586914C14.014 0.589243 14.3094 0.681166 14.56 0.851086C14.8107 1.02101 15.0054 1.2613 15.1196 1.54172C15.2339 1.82214 15.2626 2.13013 15.2021 2.42683C15.1416 2.72353 14.9946 2.99568 14.7797 3.20897C14.5647 3.42227 14.2915 3.56717 13.9943 3.62539C13.6972 3.68361 13.3894 3.65256 13.1099 3.53615C12.8304 3.41974 12.5915 3.22316 12.4235 2.97123C12.2556 2.71929 12.1659 2.42327 12.1659 2.12046C12.169 1.71266 12.3332 1.32264 12.6227 1.03537C12.9121 0.748107 13.3034 0.586902 13.7113 0.586914Z" fill="#0E2B5C"/>
<path d="M1.7729 12.3835C2.07569 12.3859 2.37102 12.4778 2.62166 12.6477C2.8723 12.8176 3.06702 13.0579 3.18129 13.3383C3.29555 13.6188 3.32425 13.9268 3.26375 14.2235C3.20325 14.5202 3.05627 14.7923 2.84134 15.0056C2.6264 15.2189 2.35313 15.3638 2.05598 15.422C1.75882 15.4802 1.45108 15.4492 1.17154 15.3328C0.892008 15.2164 0.653189 15.0198 0.485194 14.7679C0.3172 14.5159 0.227548 14.2199 0.227539 13.9171C0.230652 13.5093 0.394839 13.1193 0.684313 12.832C0.973787 12.5447 1.36508 12.3835 1.7729 12.3835Z" fill="#0E2B5C"/>
<path d="M58.4555 64.0527C58.7583 64.0551 59.0536 64.147 59.3043 64.3169C59.5549 64.4868 59.7496 64.7272 59.8639 65.0076C59.9781 65.288 60.0068 65.5959 59.9463 65.8926C59.8858 66.1893 59.7389 66.4615 59.5239 66.6748C59.309 66.8881 59.0357 67.033 58.7386 67.0912C58.4414 67.1494 58.1337 67.1184 57.8541 67.002C57.5746 66.8856 57.3358 66.689 57.1678 66.4371C56.9998 66.1852 56.9101 65.8891 56.9101 65.5863C56.9132 65.1785 57.0774 64.7885 57.3669 64.5012C57.6564 64.2139 58.0477 64.0527 58.4555 64.0527Z" fill="#0E2B5C"/>
<path d="M15.2685 64.0528C15.5707 64.0574 15.8649 64.1513 16.1139 64.3226C16.363 64.494 16.5559 64.735 16.6684 65.0156C16.7808 65.2962 16.8078 65.6038 16.746 65.8997C16.6842 66.1957 16.5363 66.4667 16.321 66.6788C16.1056 66.8909 15.8323 67.0347 15.5355 67.0919C15.2387 67.1492 14.9315 67.1175 14.6527 67.0008C14.3738 66.8841 14.1357 66.6875 13.9682 66.4359C13.8007 66.1842 13.7113 65.8887 13.7113 65.5864C13.7128 65.3834 13.7543 65.1827 13.8334 64.9958C13.9125 64.8089 14.0277 64.6395 14.1723 64.4971C14.3169 64.3547 14.4881 64.2421 14.6762 64.1659C14.8643 64.0897 15.0655 64.0512 15.2685 64.0528Z" fill="#0E2B5C"/>
<path d="M4.7572 58.8623C4.036 58.8716 3.33367 59.094 2.73853 59.5014C2.14338 59.9089 1.68201 60.4832 1.41245 61.1522C1.14288 61.8212 1.07716 62.555 1.22354 63.2612C1.36993 63.9675 1.72189 64.6146 2.23516 65.1214C2.74842 65.6281 3.40007 65.9717 4.10813 66.109C4.81619 66.2464 5.54905 66.1713 6.21452 65.8931C6.88 65.615 7.44838 65.1463 7.84816 64.546C8.24795 63.9457 8.46129 63.2405 8.46135 62.5193C8.45201 61.5441 8.05725 60.6123 7.36326 59.9271C6.66927 59.242 5.73241 58.8592 4.7572 58.8623Z" fill="#0E2B5C"/>
<path d="M65.1445 8.72646C65.7262 8.71948 66.2929 8.54061 66.7732 8.21234C67.2535 7.88406 67.626 7.42104 67.8438 6.88158C68.0616 6.34211 68.115 5.75029 67.9972 5.18056C67.8795 4.61083 67.5958 4.08865 67.182 3.67973C66.7682 3.27082 66.2427 2.99346 65.6716 2.8825C65.1005 2.77155 64.5093 2.83199 63.9725 3.0562C63.4357 3.28042 62.9772 3.6584 62.6546 4.14259C62.3321 4.62678 62.16 5.19553 62.16 5.7773C62.1753 6.56077 62.4958 7.30733 63.0532 7.85813C63.6106 8.40892 64.3609 8.72046 65.1445 8.72646Z" fill="#0E2B5C"/>
<path d="M4.7574 8.72649C5.48117 8.72882 6.18937 8.51633 6.79231 8.11592C7.39524 7.71551 7.86579 7.14519 8.14439 6.47718C8.42298 5.80917 8.49709 5.07353 8.35732 4.36338C8.21755 3.65322 7.8702 3.00051 7.35923 2.4879C6.84827 1.97528 6.19669 1.6258 5.48698 1.48373C4.77728 1.34167 4.04139 1.4134 3.37248 1.68984C2.70357 1.96627 2.13174 2.43498 1.72938 3.03661C1.32703 3.63825 1.11225 4.34575 1.11224 5.06952C1.1244 6.0336 1.51198 6.95494 2.19264 7.6378C2.87329 8.32065 3.79337 8.71121 4.7574 8.72649Z" fill="#0E2B5C"/>
<path d="M45.1021 48.5991H25.6495C25.4617 48.5991 25.2817 48.6737 25.149 48.8064C25.0162 48.9391 24.9417 49.1192 24.9417 49.3069C24.9417 49.4946 25.0162 49.6747 25.149 49.8074C25.2817 49.9401 25.4617 50.0147 25.6495 50.0147H45.1021C45.2898 50.0147 45.4699 49.9401 45.6026 49.8074C45.7353 49.6747 45.8099 49.4946 45.8099 49.3069C45.8099 49.1192 45.7353 48.9391 45.6026 48.8064C45.4699 48.6737 45.2898 48.5991 45.1021 48.5991Z" fill="#0E2B5C"/>
<path d="M37.5758 52.9638H33.0459C32.8582 52.9638 32.6782 53.0384 32.5454 53.1712C32.4127 53.3039 32.3381 53.4839 32.3381 53.6716C32.3381 53.8594 32.4127 54.0394 32.5454 54.1721C32.6782 54.3049 32.8582 54.3794 33.0459 54.3794H37.5758C37.7611 54.3685 37.9362 54.2908 38.0685 54.1606C38.2008 54.0305 38.2815 53.8567 38.2954 53.6716C38.2988 53.5768 38.2825 53.4822 38.2473 53.394C38.2122 53.3058 38.1591 53.2259 38.0915 53.1593C38.0238 53.0927 37.943 53.041 37.8542 53.0073C37.7654 52.9737 37.6706 52.9589 37.5758 52.9638Z" fill="#0E2B5C"/>
</svg>
