<svg width="402" height="305" viewBox="0 0 402 305" fill="none" xmlns="http://www.w3.org/2000/svg">
<path opacity="0.2" fill-rule="evenodd" clip-rule="evenodd" d="M67.0723 59.621C96.7841 39.4691 142.981 -23.0643 242.122 8.97027C341.263 41.0049 406.552 88.3712 397.411 155.767C388.27 223.163 329.594 228.756 314.144 271.458C303.016 302.218 118.967 348.472 99.1582 216.078C95.5132 191.711 8.71762 208.556 4.35893 150.757C0.000245571 92.9614 34.2584 81.8791 67.0723 59.621Z" fill="white"/>
<path opacity="0.2" d="M182.329 292.859C259.263 292.859 321.631 289.016 321.631 284.275C321.631 279.534 259.263 275.69 182.329 275.69C105.395 275.69 43.0273 279.534 43.0273 284.275C43.0273 289.016 105.395 292.859 182.329 292.859Z" fill="white"/>
<g opacity="0.11">
<path d="M397.352 134.642H241.292C238.723 134.642 236.641 136.721 236.641 139.286V265.04C236.641 267.604 238.723 269.684 241.292 269.684H397.352C399.921 269.684 402.003 267.604 402.003 265.04V139.286C402.003 136.721 399.921 134.642 397.352 134.642Z" fill="#FFBE55"/>
</g>
<g opacity="0.11">
<path d="M397.352 134.642H241.292C238.723 134.642 236.641 136.721 236.641 139.286V265.04C236.641 267.604 238.723 269.684 241.292 269.684H397.352C399.921 269.684 402.003 267.604 402.003 265.04V139.286C402.003 136.721 399.921 134.642 397.352 134.642Z" fill="#FFBE55"/>
</g>
<path d="M314.145 146.61H250.371V197.416H314.145V146.61Z" fill="#FFBE55"/>
<path d="M388.271 245.754V257.716H250.371V233.792H388.271V245.754Z" fill="#FFBE55"/>
<path d="M388.273 146.61H323.896V150.76H388.273V146.61Z" fill="#FFBE55"/>
<path d="M388.273 155.767H323.896V159.917H388.273V155.767Z" fill="#FFBE55"/>
<path d="M388.273 164.925H323.896V169.075H388.273V164.925Z" fill="#FFBE55"/>
<path d="M388.273 174.083H323.896V178.233H388.273V174.083Z" fill="#FFBE55"/>
<path d="M388.273 183.24H323.896V187.39H388.273V183.24Z" fill="#FFBE55"/>
<path d="M388.271 204.848H250.371V208.998H388.271V204.848Z" fill="#FFBE55"/>
<path d="M388.271 214.003H250.371V218.153H388.271V214.003Z" fill="#FFBE55"/>
<path d="M388.271 223.161H250.371V227.311H388.271V223.161Z" fill="#FFBE55"/>
<path d="M372.598 192.395H323.896V196.545H372.598V192.395Z" fill="#FFBE55"/>
<path opacity="0.11" d="M174.933 87.1306H4.65154C2.08257 87.1306 0 89.2098 0 91.7747V229.145C0 231.709 2.08257 233.789 4.65154 233.789H174.933C177.502 233.789 179.585 231.709 179.585 229.145V91.7747C179.585 89.2098 177.502 87.1306 174.933 87.1306Z" fill="#FFBE55"/>
<path opacity="0.11" d="M174.933 87.1306H4.65154C2.08257 87.1306 0 89.2098 0 91.7747V229.145C0 231.709 2.08257 233.789 4.65154 233.789H174.933C177.502 233.789 179.585 231.709 179.585 229.145V91.7747C179.585 89.2098 177.502 87.1306 174.933 87.1306Z" fill="#FFBE55"/>
<path d="M164.674 137.94H14.9121V215.72H164.674V137.94Z" fill="#FFBE55"/>
<path d="M40.9232 185C29.4244 185 20 175.525 20 163.975C20 152.399 29.45 143 41.1024 143C52.5244 143 62 152.553 62 164.051C61.9744 175.601 52.5244 185 40.9232 185ZM53.6256 149.992C53.3439 149.736 53.1134 149.556 52.8829 149.377C50.1939 147.226 47.1976 145.792 43.7659 145.331C40.2829 144.87 36.8768 145.228 33.6244 146.611C30.2951 148.045 27.5805 150.273 25.5061 153.244C25.4549 153.321 25.3781 153.475 25.4293 153.526C25.4549 153.603 25.6085 153.628 25.711 153.628C27.0171 153.603 28.3232 153.577 29.6037 153.526C30.2695 153.5 30.9098 153.449 31.5756 153.475C32.011 153.475 32.2671 153.756 32.2927 154.14C32.3183 154.499 32.0878 154.832 31.678 154.909C31.1915 155.011 30.7049 155.037 30.2183 155.114C29.4756 155.19 29.45 155.165 29.7061 155.933C31.8317 162.31 33.9829 168.661 36.1341 175.038C36.1598 175.14 36.2366 175.243 36.339 175.397C36.4159 175.217 36.4927 175.115 36.5183 175.012L37.1329 173.169C38.1829 170.044 39.2329 166.92 40.2573 163.77C40.3597 163.488 40.3854 163.104 40.3085 162.822C39.4634 160.415 38.5671 158.008 37.6963 155.6C37.5939 155.293 37.4146 155.139 37.0817 155.114C36.5183 155.062 35.9549 155.011 35.3915 154.883C35.0329 154.806 34.8537 154.525 34.8537 154.166C34.8537 153.808 35.0585 153.526 35.4171 153.475C35.6988 153.423 35.9805 153.449 36.2622 153.449C38.7976 153.603 41.3329 153.705 43.8683 153.5C44.4573 153.449 45.0207 153.423 45.6098 153.423C46.3012 153.423 46.6597 153.987 46.3524 154.55C46.1988 154.832 45.8915 154.909 45.6098 154.96C45.1232 155.011 44.6622 155.062 44.1756 155.114C43.689 155.165 43.6378 155.242 43.7915 155.703C44.5597 157.956 45.3024 160.21 46.0707 162.464L50.2195 174.756C50.2707 174.884 50.3476 175.012 50.3988 175.115C50.5268 174.961 50.578 174.859 50.6293 174.731C51.5512 171.658 52.4732 168.61 53.3695 165.537C53.9073 163.719 53.8817 161.9 53.2671 160.082C52.8829 158.981 52.2939 157.982 51.7049 156.983C51.1927 156.138 50.7061 155.267 50.4756 154.294C50.0146 152.322 51.0902 150.555 53.0878 150.12C53.2159 150.12 53.3695 150.069 53.6256 149.992ZM41.4097 165.895H41.3073C41.2305 166.049 41.1536 166.177 41.1024 166.331C40.8207 167.099 40.5646 167.893 40.3085 168.661C38.8232 172.938 37.3634 177.215 35.878 181.492C35.6988 182.03 35.75 182.183 36.2622 182.286C37.0305 182.439 37.7732 182.619 38.5415 182.721C41.2817 183.105 43.9451 182.823 46.5829 182.055C47.1463 181.876 47.1976 181.799 46.9927 181.236C45.4049 176.908 43.8427 172.58 42.2549 168.251C41.9732 167.432 41.6915 166.664 41.4097 165.895ZM32.5488 180.877L32.6256 180.8C32.5488 180.57 32.4976 180.314 32.3951 180.083C30.6024 175.192 28.8098 170.3 27.0427 165.409C25.9927 162.54 24.9427 159.672 23.9183 156.778C23.8927 156.701 23.8158 156.625 23.739 156.548C23.6622 156.599 23.5854 156.65 23.5341 156.727C22.8683 158.366 22.3817 160.082 22.2024 161.849C21.8951 164.871 22.2536 167.842 23.3036 170.684C24.789 174.628 27.4012 177.65 30.8841 179.955C31.422 180.314 32.011 180.57 32.5488 180.877ZM50.578 180.134C51.2951 179.981 51.8073 179.622 52.2939 179.264C54.0354 177.932 55.3927 176.216 56.622 174.423C58.6195 171.555 59.6695 168.354 59.8488 164.871C60.028 161.542 59.2597 158.417 57.8 155.421C57.7744 155.37 57.7232 155.319 57.6463 155.216C57.6207 155.395 57.6207 155.472 57.6207 155.575C57.8512 157.982 57.4415 160.312 56.6476 162.566C54.6756 168.303 52.678 174.014 50.6805 179.75C50.6549 179.827 50.6293 179.955 50.578 180.134Z" fill="#0E538C"/>
<path d="M164.672 105.199H94.7598V109.707H164.672V105.199Z" fill="#FFBE55"/>
<path d="M164.672 115.143H94.7598V119.651H164.672V115.143Z" fill="#FFBE55"/>
<path d="M164.672 125.087H94.7598V129.595H164.672V125.087Z" fill="#FFBE55"/>
<path d="M84.8245 105.199H14.9121V109.707H84.8245V105.199Z" fill="#FFBE55"/>
<path d="M84.8245 115.143H14.9121V119.651H84.8245V115.143Z" fill="#FFBE55"/>
<path d="M84.8245 125.087H14.9121V129.595H84.8245V125.087Z" fill="#FFBE55"/>
<path opacity="0.11" d="M360.664 54.5227H215.741C213.172 54.5227 211.09 56.6019 211.09 59.1668V111.22C211.09 113.785 213.172 115.864 215.741 115.864H360.664C363.233 115.864 365.316 113.785 365.316 111.22V59.1668C365.316 56.6019 363.233 54.5227 360.664 54.5227Z" fill="#FFBE55"/>
<path opacity="0.11" d="M360.664 54.5227H215.741C213.172 54.5227 211.09 56.6019 211.09 59.1668V111.22C211.09 113.785 213.172 115.864 215.741 115.864H360.664C363.233 115.864 365.316 113.785 365.316 111.22V59.1668C365.316 56.6019 363.233 54.5227 360.664 54.5227Z" fill="#FFBE55"/>
<path d="M352.511 67.697H294.568V102.695H352.511V67.697Z" fill="#FFBE55"/>
<path d="M283.937 74.717H223.896V78.589H283.937V74.717Z" fill="#FFBE55"/>
<path d="M283.937 83.2588H223.896V87.1308H283.937V83.2588Z" fill="#FFBE55"/>
<path d="M283.937 91.8003H223.896V95.6723H283.937V91.8003Z" fill="#FFBE55"/>
<path d="M136.958 227.49C136.665 230.212 136.5 233.111 137.754 235.546C139.008 237.982 142.189 239.631 144.589 238.308C145.942 237.562 146.719 236.108 147.424 234.734C151.37 227.013 155.319 219.292 159.266 211.571C162.521 205.203 165.862 198.45 165.45 191.314C165.259 188.018 164.222 184.731 162.226 182.096C160.483 179.797 156.693 176.135 154.085 178.823C151.489 181.5 149.707 186.176 148.066 189.488C144.273 197.139 141.351 205.22 139.369 213.526C138.271 218.122 137.464 222.789 136.958 227.49Z" fill="#FCD2B1"/>
<path fill-rule="evenodd" clip-rule="evenodd" d="M165.418 192.83C165.205 189.162 164.054 185.503 161.833 182.573C159.894 180.013 158.759 173.583 155.859 176.575C152.971 179.556 147.907 187.11 146.079 190.797C143.673 195.648 141.595 200.662 139.832 205.78L158.757 214.94C162.308 207.98 165.87 200.608 165.421 192.827L165.418 192.83Z" fill="#FFBE55"/>
<path d="M137.552 226.959C139.472 224.626 142.781 223.805 145.786 224.14C148.795 224.475 151.592 225.787 154.325 227.081C159.335 229.457 164.341 231.842 169.348 234.226C174.517 236.687 179.684 239.151 184.853 241.613C185.657 241.996 186.544 242.47 186.803 243.321C187.082 244.235 186.473 245.229 185.646 245.706C184.818 246.183 183.826 246.259 182.871 246.311C175.117 246.714 167.307 245.976 159.755 244.17C155.943 243.259 152.195 242.078 148.55 240.63C145.42 239.387 140.976 238.016 138.448 235.719C136.031 233.525 135.42 229.551 137.552 226.956V226.959Z" fill="#F7B690"/>
<path fill-rule="evenodd" clip-rule="evenodd" d="M170.009 244.36C175.769 243.517 203.107 243.517 208.865 244.36C216.027 245.408 214.949 254.307 214.048 259.632C213.064 265.443 211.859 271.683 207.58 275.745C203.403 279.711 175.471 279.711 171.291 275.745C167.015 271.683 165.809 265.443 164.823 259.632C163.922 254.307 162.841 245.405 170.006 244.36H170.009Z" fill="#0B4870"/>
<path fill-rule="evenodd" clip-rule="evenodd" d="M270.317 268.767C273.325 272.077 275.287 277.508 272.68 280.948C270.471 283.864 208.753 278.129 199.623 278.129C193.137 269.877 193.393 257.342 210.012 248.897C213.566 247.088 217.473 248.99 221.337 249.799C232.519 252.147 262.848 260.544 270.317 268.767Z" fill="#0B4870"/>
<path fill-rule="evenodd" clip-rule="evenodd" d="M136.862 209.953C132.404 209.567 127.479 211.295 125.307 215.204C123.53 218.401 123.911 222.44 125.409 225.776C126.905 229.111 129.384 231.893 131.826 234.615C167.119 273.976 167.688 275.759 173.588 277.337C183.644 280.031 195.785 277.295 186.871 254.242C185.436 250.526 147.939 210.912 136.862 209.95V209.953Z" fill="#0B4870"/>
<path d="M168.265 290.449C165.916 289.081 161.256 283.035 155.803 275.072L166.067 271.461C169.422 283.35 170.727 291.886 168.265 290.449Z" fill="#FCD2B1"/>
<path fill-rule="evenodd" clip-rule="evenodd" d="M127.923 210.608C134.184 207.594 140.356 208.38 145.355 216.467C152.096 227.374 161.138 253.992 166.068 271.458L154.291 276.787C146.836 259.803 132.142 237.775 126.45 227.771C123.257 222.162 122.981 212.99 127.92 210.611L127.923 210.608Z" fill="#0E538C"/>
<path d="M199.4 279.341L204.495 288.854C196.881 289.356 190.757 289.441 188.175 288.374C185.579 287.298 190.763 283.509 199.4 279.344V279.341Z" fill="#FCD2B1"/>
<path fill-rule="evenodd" clip-rule="evenodd" d="M259.663 268.605C269.182 268.605 273.882 273.491 273.882 276.934C273.882 282.788 270.262 289.044 261.249 289.044C249.785 289.044 221.063 288.655 203.446 289.853L199.4 279.339C212.397 273.071 245.737 268.605 259.663 268.605Z" fill="#0E538C"/>
<path fill-rule="evenodd" clip-rule="evenodd" d="M184.404 287.037C184.751 286.821 187.373 282.961 189.084 282.277C190.077 281.879 191.419 281.252 192.482 281.771C193.687 282.362 193.744 284.034 194.461 285.041C194.998 285.799 195.735 286.421 196.571 286.833L198.237 284.599C204.131 287.315 199.448 294.156 205.362 296.972C206.926 297.716 208.646 298.219 209.914 299.431C210.565 300.052 211.023 300.87 211.088 301.767C211.19 303.155 210.411 303.995 209.408 304.387L199.437 299.556C193.477 296.669 188.317 292.371 184.407 287.034L184.404 287.037Z" fill="#0B4870"/>
<path fill-rule="evenodd" clip-rule="evenodd" d="M155.385 290.952C155.322 289.379 155.979 288.076 156.656 287.71C157.333 287.344 158.387 284.707 159.789 280.846C160.429 279.08 164 278.587 165.783 281.627C166.36 282.612 166.897 283.253 167.548 283.231C168.091 283.214 168.703 282.268 169.223 282.893C169.684 283.444 169.809 284.894 169.925 285.93C170.127 287.713 170.309 289.507 170.502 291.295C170.545 291.69 170.588 292.104 170.599 292.513H155.712C155.533 292.076 155.411 291.545 155.385 290.955V290.952Z" fill="#0B4870"/>
<path d="M241.913 227.49C242.206 230.212 242.371 233.111 241.117 235.546C239.863 237.982 236.682 239.631 234.282 238.308C232.929 237.562 232.153 236.108 231.447 234.734C227.501 227.013 223.552 219.292 219.605 211.571C216.35 205.203 213.009 198.45 213.421 191.314C213.612 188.018 214.65 184.731 216.646 182.096C218.388 179.797 222.179 176.135 224.783 178.823C227.379 181.5 229.162 186.176 230.802 189.488C234.595 197.139 237.518 205.22 239.5 213.526C240.597 218.122 241.405 222.789 241.911 227.49H241.913Z" fill="#FCD2B1"/>
<path fill-rule="evenodd" clip-rule="evenodd" d="M213.424 192.83C213.637 189.162 214.789 185.503 217.009 182.573C218.949 180.013 220.083 173.583 222.983 176.575C225.872 179.556 230.936 187.11 232.764 190.797C235.169 195.648 237.248 200.662 239.01 205.78L220.086 214.94C216.535 207.98 212.972 200.608 213.421 192.827L213.424 192.83Z" fill="#FFBE55"/>
<path d="M240.813 228.308C238.894 225.974 235.585 225.154 232.579 225.489C229.571 225.821 226.773 227.135 224.041 228.43C219.031 230.806 214.024 233.19 209.017 235.575C203.848 238.036 198.682 240.5 193.513 242.961C192.708 243.344 191.821 243.818 191.563 244.67C191.284 245.584 191.892 246.577 192.72 247.054C193.547 247.531 194.54 247.608 195.495 247.659C203.251 248.062 211.059 247.324 218.61 245.519C222.423 244.607 226.171 243.426 229.816 241.979C232.946 240.735 237.39 239.364 239.918 237.068C242.334 234.873 242.946 230.899 240.813 228.305V228.308Z" fill="#FCD2B1"/>
<path fill-rule="evenodd" clip-rule="evenodd" d="M155.087 177.43C156.933 175.201 159.708 173.983 162.426 172.99C170.415 170.066 188.743 162.41 189.437 162.424C190.127 162.41 208.458 170.063 216.447 172.99C219.165 173.986 221.943 175.201 223.786 177.43C226.245 180.405 226.566 184.677 225.682 188.43C224.798 192.185 222.867 195.594 221.184 199.063C219.083 203.392 217.343 207.897 215.978 212.513C213.513 220.85 212.268 229.545 212.308 238.237C212.319 240.903 213.738 245.411 212.916 247.923C211.887 251.079 206.433 251.795 203.678 252.15C198.959 252.757 194.19 252.959 189.437 252.76C184.683 252.959 179.915 252.757 175.195 252.15C172.44 251.795 166.986 251.079 165.957 247.923C165.138 245.408 166.554 240.9 166.566 238.237C166.605 229.545 165.36 220.847 162.895 212.513C161.53 207.9 159.79 203.395 157.689 199.063C156.006 195.592 154.075 192.182 153.191 188.43C152.307 184.674 152.625 180.402 155.087 177.43Z" fill="#FFBE55"/>
<path d="M183.411 161.493C184.156 159.1 184.557 154.624 186.038 153.031C186.928 152.075 191.571 152.075 192.461 153.031C193.943 154.624 194.344 159.1 195.089 161.493C195.922 164.176 196.649 167.392 195.779 170.043C195.168 171.9 193.877 173.016 192.569 173.39C191.478 173.703 187.025 173.703 185.933 173.39C184.625 173.016 183.332 171.9 182.723 170.043C181.85 167.392 182.578 164.176 183.414 161.493H183.411Z" fill="#FCD2B1"/>
<path d="M179.416 141.333C180.912 136.984 197.593 136.984 199.088 141.333C200.277 144.793 200.448 148.697 199.771 152.339C199.131 155.779 197.741 158.896 195.787 161.476C194.457 163.236 184.051 163.236 182.717 161.476C180.767 158.893 179.373 155.776 178.734 152.339C178.057 148.697 178.225 144.79 179.416 141.333Z" fill="#FFE3CA"/>
<path d="M164.623 248.908H215.216C217.581 248.908 219.554 247.097 219.751 244.744L222.378 213.529C222.6 210.878 220.507 208.604 217.843 208.604H161.999C159.335 208.604 157.239 210.878 157.464 213.529L160.091 244.744C160.29 247.097 162.26 248.908 164.626 248.908H164.623Z" fill="#0E538C"/>
<path d="M222.267 214.864C221.786 212.888 220 211.395 217.842 211.395H161.998C159.84 211.395 158.055 212.888 157.574 214.864L157.463 213.529C157.242 210.878 159.334 208.604 161.998 208.604H217.842C220.507 208.604 222.602 210.878 222.377 213.529L222.267 214.864Z" fill="#0B4870"/>
<path d="M192.41 140.663H186.408C183.162 140.663 180.531 143.29 180.531 146.53V158.098C180.531 161.339 183.162 163.966 186.408 163.966H192.41C195.656 163.966 198.287 161.339 198.287 158.098V146.53C198.287 143.29 195.656 140.663 192.41 140.663Z" fill="#FFE3CA"/>
<path fill-rule="evenodd" clip-rule="evenodd" d="M185.419 131.619C186.968 131.988 188.566 131.358 190.056 130.759C191.543 130.16 193.107 129.53 194.682 129.768C196.257 130.006 197.793 131.466 197.588 133.149C199.712 132.311 202.285 133.013 203.775 134.829C205.265 136.646 205.569 139.462 204.508 141.594C203.869 142.883 202.794 143.91 202.325 145.281C201.79 146.848 202.407 150.607 200.536 151.325C199.092 151.881 198.29 140.424 194.241 140.135C192.092 142.426 188.515 143.013 185.823 141.515C184.813 140.952 183.741 140.104 182.655 140.47C181.93 140.714 181.037 141.063 180.568 141.708C179.44 143.263 179.769 150.357 178.211 151.527C177.378 149.02 177.051 146.332 177.233 143.68C176.528 143.697 175.82 143.587 175.16 143.317C173.25 142.536 173.298 128.738 185.422 131.619H185.419Z" fill="#0B4870"/>
<path d="M201.652 152.06C202.056 151.316 202.388 150.473 202.275 149.622C202.164 148.77 201.456 147.964 200.657 148.063C200.165 148.123 199.747 148.506 199.491 148.96C199.238 149.414 199.119 149.94 199.008 150.456C198.809 151.356 198.612 152.253 198.413 153.153C198.246 153.908 198.146 154.87 198.749 155.31C199.849 156.114 201.214 152.872 201.652 152.063V152.06Z" fill="#FFE3CA"/>
<path d="M176.977 152.06C176.574 151.316 176.241 150.473 176.355 149.622C176.465 148.77 177.173 147.964 177.972 148.063C178.464 148.123 178.882 148.506 179.138 148.96C179.391 149.414 179.508 149.94 179.621 150.456C179.821 151.356 180.017 152.253 180.216 153.153C180.383 153.908 180.483 154.87 179.88 155.31C178.78 156.114 177.415 152.872 176.977 152.063V152.06Z" fill="#FFE3CA"/>
</svg>
