<svg width="406" height="352" viewBox="0 0 406 352" fill="none" xmlns="http://www.w3.org/2000/svg">
<path d="M314.6 341.8C314.6 347.3 310.1 351.8 304.6 351.8H132C126.5 351.8 115 346.2 115 337.1L122 15.9996C122 10.4996 126.5 5.99961 132 5.99961L298.2 0.0996094C307.5 0.0996094 314.6 10.4996 314.6 15.9996V341.8Z" fill="#393280"/>
<path d="M307.6 335.9C307.6 341.4 303.1 345.9 297.6 345.9H125C119.5 345.9 115 341.4 115 335.9V10C115 4.5 119.5 0 125 0H297.6C303.1 0 307.6 4.5 307.6 10V335.9Z" fill="#9C93EE"/>
<path d="M298.198 302.6C298.198 307.6 294.198 311.6 289.198 311.6H133.398C128.398 311.6 124.398 307.6 124.398 302.6V19.5996C124.398 14.5996 128.398 10.5996 133.398 10.5996H289.198C294.198 10.5996 298.198 14.5996 298.198 19.5996V302.6Z" fill="url(#paint0_linear_3817_7030)"/>
<path d="M222.11 330.676C223.149 324.298 218.821 318.286 212.443 317.247C206.066 316.207 200.053 320.535 199.014 326.913C197.975 333.291 202.303 339.303 208.681 340.342C215.058 341.381 221.071 337.053 222.11 330.676Z" fill="#ADAFEC"/>
<path d="M288.4 166.6C289.9 166.2 291 165.8 291.5 165.3C293.4 163.2 291.2 156.8 286.8 149.7V135C286.8 123.4 277.4 113.9 265.7 113.9H264.2C264.2 113.9 264.2 113.9 264.1 113.9C264 113.9 263.9 113.8 263.8 113.8C263.7 113.8 263.6 113.7 263.5 113.7C263.4 113.7 263.2 113.6 263.1 113.6C263 113.6 263 113.6 262.9 113.6C262.7 113.6 262.5 113.5 262.3 113.5C262.1 113.5 261.8 113.4 261.6 113.3C261.5 113.3 261.5 113.3 261.4 113.2C261.2 113.1 261 113 260.8 112.9C260.6 112.8 260.5 112.6 260.3 112.5L260.2 112.4C260.1 112.2 259.9 112.1 259.8 111.9C259.7 111.7 259.6 111.5 259.5 111.3C259.5 111.2 259.5 111.2 259.4 111.1C259.3 110.9 259.2 110.7 259.1 110.4C259 110.1 258.9 109.9 258.9 109.6C258.9 109.5 258.9 109.5 258.9 109.4C258.8 109.1 258.8 108.9 258.7 108.6V108.5C258.6 108.2 258.6 107.9 258.6 107.6C258.6 107.5 258.6 107.4 258.6 107.3C258.6 107 258.5 106.7 258.5 106.5C258.5 106.4 258.5 106.4 258.5 106.3C258.5 106 258.4 105.6 258.4 105.3C258.4 105.1 258.4 105 258.4 104.8C258.4 104.7 258.4 104.5 258.4 104.3C258.3 102.9 258.2 101.3 258 99.6998C258 99.6998 258 99.6998 258 99.5998C257.7 96.4998 257.1 93.0998 255.8 89.7998C251.6 78.6998 232.5 79.9998 224.5 82.3998C213.2 85.7998 212.7 96.5998 217.7 98.8998C218.5 101.8 218.5 111.3 215.2 117.5C211.9 123.7 204.3 131.4 212.3 142.7C213.2 144 214.4 145.1 215.9 146C214.6 147.2 213.4 148.3 212.2 149.4C207.5 153.5 199.3 159.9 195.4 163H183.4C183 162.2 182.1 161.6 181.2 161.6C174.8 161.6 173.5 162 173.5 159.6V154.3H193.8H199.2C203.6 154.3 207.2 150.7 207.2 146.3V80.2998C207.2 75.8998 203.6 72.2998 199.2 72.2998H124.5V154.3H144.9V159.6C144.9 162.4 146.6 164.9 149 166C149.4 166.4 150 166.7 150.7 166.7H138.4V169.1V174.2V179.5V291.8H180.6H193.8C197.7 291.8 200.8 288.7 200.8 284.8V226.6C205.9 239.6 214.9 258.6 223.5 269.8C223.5 269.8 224.4 269.8 225.9 269.6C226 269.7 226 269.8 226.1 269.8C226.2 269.9 226.2 270 226.3 270C226.4 270.1 226.5 270.2 226.6 270.3C226.7 270.4 226.7 270.5 226.8 270.6C226.9 270.7 227 270.9 227.1 271C227.2 271.1 227.2 271.1 227.3 271.2C227.4 271.4 227.5 271.5 227.7 271.7L227.8 271.8C228 272 228.1 272.2 228.3 272.4C228.8 273 229.2 273.6 229.7 274.2C227.9 275 226.4 276.6 226.7 279C225.6 279.6 224.8 280.4 225.1 281.4C225.1 281.5 225.3 281.6 225.4 281.7C225.2 282.1 224.9 282.5 224.7 282.9C223.7 283.4 222.9 284 222.4 284.9C222.2 285.2 222.3 285.6 222.6 285.8L222.7 285.9C222.8 285.9 222.9 286 222.9 286C221 289.6 219.1 293.8 219.3 296.2C219.1 296.6 219 297.1 219.2 297.5C219.5 298.3 220.4 298.7 221.2 298.4C221.6 298.3 226.3 296.3 232.2 292.9C232.8 292.5 233.5 292.1 234.1 291.7H262.5C264.6 291.7 266.2 290 266.2 288C266.2 286.7 265.6 285.6 264.6 284.9C265.2 284.6 265.8 284.3 266.5 284C267.3 283.6 267.5 282.7 267.1 281.9C266.8 281.3 266.2 281 265.6 281.1C265.8 278.4 263.9 274.4 262.9 274.7C262.6 274.8 262.1 275 261.6 275.1L260.9 263.4C261.2 263.2 261.6 263 261.9 262.7C261.9 262.7 261 244.4 260.6 234.4C260.6 234.3 260.6 234.3 260.6 234.2C260.6 233.9 260.6 233.5 260.6 233.2C260.6 233.1 260.6 233 260.6 232.9C260.6 232.6 260.6 232.4 260.6 232.2C260.6 232 260.6 231.9 260.6 231.7C260.6 231.5 260.6 231.4 260.6 231.2C260.6 231 260.6 230.8 260.6 230.6H276.5C278 230.6 279.2 229.9 280.1 228.9C282.7 228.3 284.4 226.8 282.4 223.9C281.5 222.6 280.9 220.6 280.4 218.4C280.6 218.2 280.7 218.1 280.9 218C281.1 217.8 281.3 217.6 281.4 217.4C281.7 217.1 281.9 216.8 282.2 216.6C282.4 216.4 282.5 216.2 282.7 215.9C282.9 215.6 283.1 215.3 283.4 215C283.6 214.8 283.7 214.5 283.9 214.3C284.1 214 284.3 213.7 284.5 213.4C284.6 213.2 284.8 212.9 284.9 212.6C285.1 212.3 285.2 211.9 285.4 211.6C285.5 211.3 285.6 211.1 285.7 210.8C285.8 210.4 286 210.1 286.1 209.7C286.2 209.4 286.3 209.2 286.4 208.9C286.5 208.5 286.6 208.1 286.7 207.7C286.8 207.4 286.8 207.2 286.9 206.9C287 206.5 287 206 287.1 205.6C287.1 205.4 287.2 205.2 287.2 204.9C287.3 204.2 287.3 203.5 287.3 202.8V174H298.7V166.6H288.4ZM221.9 195.7C218.4 197.1 213.8 198.8 210.8 200.1C210.4 200.3 210.1 200.4 209.8 200.6C209.7 200.6 209.6 200.7 209.5 200.7C209.3 200.8 209.1 200.9 208.9 201C208.8 201 208.7 201.1 208.7 201.1C208.5 201.2 208.3 201.3 208.2 201.5L208.1 201.6C207.9 201.7 207.7 201.9 207.6 202C207.5 202.1 207.4 202.2 207.3 202.3C207.3 202.3 207.3 202.3 207.3 202.4C207.2 202.5 207.2 202.6 207.2 202.7C207.2 202.9 207.2 203 207.4 203.1C207.8 203.3 208.6 203.2 209.9 202.7C209.8 202.7 209.7 202.8 209.6 202.8C209.4 202.9 209.1 203 208.9 203.1C208.7 203.2 208.5 203.3 208.3 203.4C207.9 203.6 207.6 203.8 207.2 203.9C207 204 206.9 204.1 206.7 204.2C206.5 204.3 206.4 204.4 206.2 204.4C204.2 205.5 202.3 206.6 200.7 207.9V179.3V174H221.9V195.7ZM221.9 163H218.4C219.6 162.5 220.8 162.1 221.9 161.7V163ZM241.8 272.6C241.6 272.6 241.5 272.6 241.4 272.7C241.3 272.8 241.1 272.9 241 273L235.8 263.2C235.9 263.1 235.9 263 236 262.9C236 262.9 228.6 241 223.9 230.8H238.7C239.5 238 240.6 246 241.8 253.7V272.6ZM246.4 274.9V266.4C246.8 266.5 247.3 266.5 247.8 266.6C248 267.3 248.1 268.1 248.3 268.8C248.6 270.1 248.8 271.3 249.1 272.4C247.9 272.8 246.9 273.6 246.4 274.9Z" fill="#EBF5FF"/>
<path d="M227.992 293.7C227.992 295 228.992 296 230.292 296C231.592 296 232.592 295 232.592 293.7V235C232.592 233.7 231.592 232.7 230.292 232.7C228.992 232.7 227.992 233.7 227.992 235V293.7Z" fill="#8BCED1"/>
<path d="M252.089 294.801C252.089 296.901 250.389 298.501 248.389 298.501H213.489C211.389 298.501 209.789 296.801 209.789 294.801C209.789 292.701 211.489 291.101 213.489 291.101H248.389C250.389 291.101 252.089 292.801 252.089 294.801Z" fill="white"/>
<path d="M227.992 240.4V293.7C227.992 295 228.992 296 230.292 296C231.592 296 232.592 295 232.592 293.7V241.5C230.992 241.1 229.492 240.7 227.992 240.4Z" fill="white"/>
<path d="M272.892 141.9C272.892 130.3 263.492 120.8 251.792 120.8H229.092C217.492 120.8 207.992 130.2 207.992 141.9V209.9C207.992 221.5 217.392 231 229.092 231H251.792C263.392 231 272.892 221.6 272.892 209.9V141.9Z" fill="#ADAFEC"/>
<path opacity="0.5" d="M251.789 120.8H229.089C223.789 120.8 218.989 122.7 215.289 125.9C216.489 125.7 217.589 125.6 218.889 125.6H241.589C253.189 125.6 262.689 135 262.689 146.7V214.7C262.689 221.1 259.889 226.8 255.389 230.7C265.389 229 272.889 220.3 272.889 209.9V141.9C272.889 130.3 263.489 120.8 251.789 120.8Z" fill="#393280"/>
<path d="M267.092 232.699C267.092 235.299 264.992 237.499 262.292 237.499H202.792C200.192 237.499 197.992 235.399 197.992 232.699C197.992 230.099 200.092 227.899 202.792 227.899H262.292C264.892 227.899 267.092 230.099 267.092 232.699Z" fill="#ADAFEC"/>
<path d="M208.297 272.1C208.297 272.1 217.297 282.8 217.797 284.9C217.797 284.9 222.797 286.1 227.997 281.3L220.697 267.6L208.297 272.1Z" fill="#FFD5CF"/>
<path d="M224.297 274.3L220.697 267.5L208.297 272C208.297 272 211.497 275.8 214.197 279.3C217.297 278.4 220.197 277 222.897 275.2C223.197 275 223.697 274.7 224.297 274.3Z" fill="#FFBDAE"/>
<path d="M231.8 287.099C220.9 296.699 205.5 304.299 205.5 304.299C203.2 300.999 212 287.599 212.6 286.399C211.5 280.599 220.5 278.899 221.5 282.899C224 282.899 226.4 280.399 227.6 279.599C228.8 278.599 234.6 284.799 231.8 287.099Z" fill="#30393E"/>
<path d="M227.602 279.4C227.102 279.8 226.302 280.5 225.402 281.2C224.602 284.8 222.002 288.2 220.002 291C218.402 293.3 217.302 295.6 216.602 298C221.402 295 227.002 291.2 231.802 287C234.602 284.8 228.802 278.6 227.602 279.4Z" fill="#1A1F21"/>
<path d="M218.1 299.799C212.2 303.299 207.5 305.199 207.1 305.299C206.3 305.599 205.4 305.199 205.1 304.399C204.8 303.599 205.2 302.699 206 302.399C206.2 302.299 222.5 295.799 232 284.799C232.6 284.199 233.5 284.099 234.2 284.599C234.8 285.199 234.9 286.099 234.4 286.799C229.5 292.299 223.3 296.699 218.1 299.799Z" fill="white"/>
<path d="M211.397 288.7C211.897 288.5 212.197 288.1 212.697 287.8C213.297 287.5 213.997 287.4 214.697 287.3C215.997 287.1 217.497 287.6 218.697 287.2C219.497 287 219.597 285.8 218.897 285.4C217.097 284.5 210.297 285.5 210.897 288.4C210.897 288.6 211.197 288.8 211.397 288.7Z" fill="white"/>
<path d="M208.498 292.9C208.798 293.1 209.098 293 209.298 292.9C211.598 291.3 214.598 290.9 217.298 291.3C218.198 291.4 218.698 290.2 217.898 289.8C215.298 288.4 209.798 289.1 208.198 291.9C207.998 292.2 208.098 292.6 208.398 292.8C208.398 292.8 208.498 292.8 208.498 292.9Z" fill="white"/>
<path d="M217.297 203.3C217.297 203.3 187.997 208.4 182.797 219.7C181.597 222.3 195.997 259.1 209.497 276.6C209.497 276.6 217.797 276.7 222.197 269.6C222.197 269.6 213.297 243.1 208.797 234.8C208.797 234.8 225.997 234.3 230.297 233.2C234.397 232.2 252.697 201.5 217.297 203.3Z" fill="#9B68C4"/>
<path d="M217.295 203.3C217.295 203.3 202.695 205.9 192.195 211.3C198.495 209.9 204.895 209.3 210.795 210.8C219.895 212.9 216.095 218.2 211.195 222.8C205.895 227.7 200.295 231.2 203.495 239C206.295 246.7 210.895 252.4 212.595 260.8C213.495 265.7 214.095 270.6 214.695 275.6C217.195 274.7 219.995 272.9 222.095 269.6C222.095 269.6 213.195 243.1 208.695 234.8C208.695 234.8 225.895 234.3 230.195 233.2C234.395 232.2 252.695 201.5 217.295 203.3Z" fill="#633870"/>
<path d="M223.999 219.1C224.099 212.4 230.099 210.5 233.499 206.1C232.999 205.8 232.399 205.5 231.799 205.2C227.099 206.7 222.599 208.5 220.899 212.8C219.699 215.7 220.299 221.6 220.499 224.6C220.599 227.7 222.799 234 223.499 234C224.199 233.9 224.899 233.9 225.499 233.8C226.099 229.1 223.999 224 223.999 219.1Z" fill="#4B2B56"/>
<path d="M232.5 267.5C232.5 267.5 235.7 280.7 235.7 282.8C235.7 282.8 241.7 289.2 247.6 285.2L246.3 264.2L232.5 267.5Z" fill="#FFD5CF"/>
<path d="M247.202 276.8L246.502 264.3L232.602 267.5C232.602 267.5 233.602 271.6 234.502 275.6C238.402 276.6 242.902 277.1 247.202 276.8Z" fill="#FFBDAE"/>
<path d="M249.995 290.2C236.395 295.4 219.295 296.9 219.295 296.9C218.395 293 231.395 283.6 232.295 282.6C233.395 276.8 242.295 278.4 241.895 282.5C244.195 283.4 247.395 281.9 248.795 281.5C250.195 281.2 253.395 289 249.995 290.2Z" fill="#30393E"/>
<path d="M232.597 297.2C225.897 298.4 220.697 298.5 220.397 298.5C219.497 298.5 218.797 297.8 218.797 297C218.797 296.1 219.497 295.4 220.297 295.4C220.497 295.4 237.997 295 250.797 288.1C251.597 287.7 252.497 288 252.897 288.7C253.297 289.4 252.997 290.4 252.297 290.8C245.997 294.3 238.697 296.2 232.597 297.2Z" fill="white"/>
<path d="M230.395 284.5C230.895 284.5 231.395 284.2 231.895 284.2C232.595 284.2 233.295 284.2 233.895 284.4C235.195 284.7 236.395 285.6 237.695 285.7C238.495 285.8 238.995 284.7 238.495 284.1C237.195 282.6 230.495 281.1 229.995 284.1C229.895 284.3 230.095 284.5 230.395 284.5Z" fill="white"/>
<path d="M226.098 287.4C226.198 287.4 226.198 287.4 226.098 287.4C226.298 287.6 226.598 287.7 226.898 287.7C229.598 287 232.598 287.7 234.998 289C235.798 289.4 236.698 288.5 236.098 287.8C234.098 285.6 228.698 284.3 226.298 286.4C226.098 286.6 225.898 287 226.098 287.3C226.098 287.3 226.098 287.3 226.098 287.4Z" fill="white"/>
<path d="M235.496 204.399C235.496 204.399 226.096 209.099 224.296 215.999C222.496 222.899 226.196 252.399 230.196 272.599C230.196 272.599 238.796 275.899 247.796 269.599C247.796 269.599 246.196 236.899 246.296 235.199C246.396 233.399 257.996 234.299 259.996 231.199C261.996 227.999 263.596 210.599 259.996 202.399L235.496 204.399Z" fill="#9B68C4"/>
<path d="M259.998 202.3L235.498 204.4C235.498 204.4 226.098 209.1 224.298 216C224.098 216.6 223.998 217.5 223.898 218.4C226.298 219.5 231.898 218.9 232.998 218.9C237.598 218.9 247.098 222.1 244.998 228.4C244.298 230.5 241.798 231.2 241.498 233C240.798 235.5 242.898 237.9 243.598 240C245.698 244.7 245.998 249.4 247.098 253.9C246.698 245.2 246.298 236 246.298 235.1C246.398 233.3 257.998 234.2 259.998 231.1C261.998 228 263.598 210.6 259.998 202.3Z" fill="#633870"/>
<path d="M203.79 105.8C198.79 103.6 199.39 92.7002 210.59 89.3002C218.59 86.9002 237.69 85.6002 241.89 96.7002C246.09 107.8 242.49 119.3 248.49 120.3C254.49 121.4 267.59 128.4 254.09 144.2C240.59 160 206.29 160.8 198.29 149.5C190.29 138.1 197.89 130.4 201.19 124.3C204.59 118.2 204.59 108.7 203.79 105.8Z" fill="#633870"/>
<path d="M241.589 131C240.089 127.3 236.589 126 236.589 126C230.289 125.6 225.289 107.2 225.289 107.2C221.989 106 207.089 103 207.089 103C204.189 105.6 204.689 111.3 204.689 114.7C204.689 120.3 202.389 126.8 204.289 132.2C205.589 135.7 211.589 138.1 209.489 142.2C207.889 145.5 204.889 148.1 203.189 151.3C202.789 151.9 202.489 152.6 202.289 153.2C210.489 158.2 226.089 158.7 238.989 154.1C240.289 147.3 242.689 133.7 241.589 131Z" fill="#4B2B56"/>
<path d="M248.492 120.4C244.092 119.6 244.892 113 243.892 105.2C242.992 107.6 241.892 110 241.092 112.7C239.992 116.2 238.192 122.1 242.392 124.2C246.492 126.2 250.792 126.7 254.392 129.8C257.592 132.7 258.192 136.1 257.592 139.6C264.792 127 253.792 121.3 248.492 120.4Z" fill="#4B2B56"/>
<path d="M204.792 102.9C203.992 98.4003 206.792 94.8003 210.592 92.7003C213.392 91.2003 216.892 91.0003 219.992 90.3003C220.292 90.2003 220.192 89.7003 219.892 89.8003C215.692 90.1003 211.292 90.5003 207.792 93.0003C204.492 95.3003 202.792 99.3003 204.292 103C204.492 103.3 204.892 103.2 204.792 102.9Z" fill="#8A41B6"/>
<path d="M202.692 126.5C200.892 129.7 197.692 133 197.492 136.9C197.392 140.1 198.292 143.4 201.192 145.1C201.592 145.3 202.092 144.9 201.792 144.5C199.492 141.6 197.992 139 198.892 135.1C199.592 132 201.692 129.4 202.692 126.5Z" fill="#8A41B6"/>
<path d="M226.191 90.1004C225.091 95.7004 230.191 101.2 234.691 103.7C234.991 103.9 235.391 103.4 235.091 103.2C231.291 99.3004 226.091 96.2004 226.191 90.1004C226.291 90.0004 226.191 90.0004 226.191 90.1004Z" fill="#8A41B6"/>
<path d="M223.395 90.4004C221.395 90.9004 219.395 91.9004 218.095 93.6004C216.895 95.2004 215.695 97.6004 216.195 99.6004C216.295 100 216.795 100.1 216.995 99.7004C217.795 98.0004 217.795 96.2004 218.795 94.5004C219.895 92.7004 221.595 91.4004 223.495 90.5004C223.495 90.5004 223.495 90.4004 223.395 90.4004Z" fill="#8A41B6"/>
<path d="M218.393 144.9C217.993 149.2 216.093 199.7 215.193 203C214.393 206.3 248.893 207.3 252.493 203C255.993 198.7 248.293 137 240.793 134.6C233.293 132.1 219.193 135.5 218.393 144.9Z" fill="#30393E"/>
<path d="M224.294 151.201C224.194 143.901 223.194 135.801 223.194 135.801C220.394 137.001 213.694 140.301 212.794 141.401C212.594 141.601 212.494 142.001 212.394 142.501C209.894 145.101 203.194 151.801 198.194 156.201C191.894 161.701 179.094 171.601 179.094 171.601C179.094 171.601 183.294 174.401 188.094 174.601C192.294 174.801 209.494 167.901 213.994 166.001C213.894 179.501 212.894 199.101 212.394 200.001C211.794 201.301 201.894 204.601 196.794 206.801C191.794 209.001 192.094 211.001 195.894 209.501C199.594 208.001 217.894 205.301 219.694 201.101C221.494 196.901 224.394 158.501 224.294 151.201Z" fill="#FFF9F3"/>
<path d="M216.495 194.4C217.495 187.6 217.695 180.6 218.595 173.8C219.095 170.3 217.695 159.4 215.695 159.7C211.195 160.5 206.295 162.6 202.495 164.6C196.395 167.5 190.595 170.8 184.695 174C185.795 174.3 186.895 174.5 188.095 174.6C192.295 174.8 209.495 167.9 213.995 166C213.895 179.5 212.895 199.1 212.395 200C211.795 201.3 201.895 204.6 196.795 206.8C193.595 208.2 192.595 209.6 193.195 209.9C198.495 207.8 203.895 205.8 208.995 203.4C213.395 201.5 215.895 199.1 216.495 194.4Z" fill="#EADFD3"/>
<path d="M235.591 132.9C235.591 132.9 234.991 161.7 234.891 170.3C234.791 178.9 232.891 202.3 229.991 204.6C227.191 206.9 223.091 211.5 223.391 217.5C223.491 219.4 225.591 217.9 227.291 215.6C228.891 213.4 238.191 210.3 244.291 215.4C250.391 220.4 253.891 233.4 258.391 235.2C262.891 237 271.891 236.1 268.091 230.7C264.391 225.3 265.891 210.7 260.991 203.7C257.691 199.1 258.491 172.1 257.091 161.4C255.791 150.9 247.791 133.4 235.591 132.9Z" fill="#FFF9F3"/>
<path d="M249.889 176.2C252.589 176.5 255.289 176.9 258.089 177.2C257.889 171.1 257.689 165.3 257.189 161.5C256.089 152.9 250.689 139.8 242.189 134.9C244.389 138.6 246.689 142.3 248.689 146.1C250.189 149.1 251.989 152.3 252.289 155.6C252.889 161.3 246.689 163.2 242.289 164.6C239.889 165.4 237.389 166 234.989 166.7C234.989 168.1 234.989 169.3 234.989 170.3C234.989 171.6 234.889 173.3 234.789 175.1C236.489 175.1 238.189 175.2 239.889 175.2C243.289 175.2 246.589 175.8 249.889 176.2Z" fill="#F4EBE4"/>
<path d="M258.387 184.9C258.287 183.3 258.287 181.8 258.187 180.2C254.087 180.2 249.987 180.3 245.887 180.4C242.587 180.4 237.988 179.8 234.488 180.7C234.388 181.7 234.288 182.7 234.188 183.7C237.388 184.8 241.488 184.6 244.488 184.7C249.088 184.8 253.787 184.9 258.387 184.9Z" fill="#EADFD3"/>
<path d="M255.888 201.1C255.288 201 254.688 201 254.088 200.8C251.288 199.9 237.988 200.5 234.688 199C234.388 198.9 234.088 199.2 234.288 199.5C235.588 201.1 237.488 201.7 239.488 201.9C238.188 202.3 236.988 202.7 235.788 203.2C230.388 205.3 226.688 208.9 225.188 214.5C225.088 214.7 225.488 214.9 225.588 214.7C228.888 210.5 232.488 207.2 237.488 205.2C240.288 204.1 243.388 203.6 246.388 203.2C249.488 202.8 252.788 203.2 255.888 202.4C256.588 202.4 256.588 201.3 255.888 201.1Z" fill="#EADFD3"/>
<path d="M239.292 133.401C238.292 137.101 239.692 141.201 238.992 145.001C238.692 146.801 238.192 148.401 238.092 150.201C237.892 152.601 238.692 155.201 238.892 157.701C239.192 162.801 237.392 168.001 236.492 172.901C235.792 176.901 234.892 180.901 234.492 184.901C234.492 185.101 234.792 185.201 234.892 185.001C236.592 176.101 240.992 168.101 241.692 158.901C241.792 156.901 241.592 154.801 241.392 152.701C241.092 150.201 241.592 147.901 241.792 145.401C242.192 141.401 240.892 137.201 239.492 133.401C239.592 133.301 239.392 133.201 239.292 133.401Z" fill="#F4EBE4"/>
<path d="M234.991 132.901C234.991 132.901 234.491 181.801 233.391 191.501C233.391 191.501 238.091 172.601 239.291 164.201C240.491 155.801 239.291 149.101 239.291 149.101C239.291 149.101 240.791 146.301 241.091 142.701C241.291 139.701 240.091 133.601 239.091 133.001C237.991 132.401 236.291 132.001 234.991 132.901Z" fill="#FFF9F3"/>
<path d="M219.091 137.501C217.291 139.701 216.891 142.401 216.291 145.101C215.591 148.201 217.391 150.901 218.191 153.801C219.391 158.001 218.891 162.601 219.091 166.901C219.291 170.801 219.791 174.801 220.491 178.701C220.491 179.001 220.891 178.901 220.891 178.601C221.091 175.101 220.691 171.701 220.491 168.201C220.291 164.501 220.791 160.801 220.891 157.101C220.991 154.401 220.291 151.901 219.291 149.501C217.491 145.601 219.091 141.801 219.791 137.801C219.791 137.501 219.391 137.201 219.091 137.501Z" fill="#F4EBE4"/>
<path d="M223.491 135.601C223.491 135.601 225.191 178.801 221.191 192.801L219.491 152.501C219.491 152.501 217.991 149.701 217.691 146.101C217.491 143.101 218.891 137.301 219.691 136.401C220.591 135.501 222.191 135.001 223.491 135.601Z" fill="#FFF9F3"/>
<path d="M217.191 173.401C217.891 174.801 226.891 174.601 231.791 174.601C235.591 174.601 235.991 168.501 230.691 168.001C225.391 167.601 216.091 171.401 217.191 173.401Z" fill="#5B6D75"/>
<path opacity="0.3" d="M230.592 168.001C227.292 167.701 222.392 169.101 219.492 170.701C220.492 172.201 224.692 171.301 226.092 171.201C227.292 171.201 228.592 171.701 229.592 172.501C230.292 173.101 230.592 173.801 230.792 174.601C231.092 174.601 231.492 174.601 231.792 174.601C235.592 174.601 235.892 168.501 230.592 168.001Z" fill="#5B6D75"/>
<path d="M236.891 166.201C236.891 166.201 228.591 165.301 226.891 165.501C225.191 165.701 220.691 168.901 220.591 169.901C220.491 170.901 221.891 170.901 222.591 170.601C223.291 170.201 225.791 168.401 226.891 168.301C227.991 168.301 231.391 172.701 236.991 170.801C238.391 170.401 238.891 167.101 236.891 166.201Z" fill="#FFD5CF"/>
<path d="M236.889 166.2C236.889 166.2 235.789 166.1 234.289 165.9C234.289 166.6 234.289 167.2 234.289 167.8C234.289 169 234.289 170.1 234.389 171.2C235.189 171.2 236.189 171.1 237.089 170.7C238.389 170.4 238.889 167.1 236.889 166.2Z" fill="#FFBDAE"/>
<path d="M241.093 133.801C238.693 134.301 260.893 160.801 259.093 161.901C257.293 163.001 236.293 163.801 235.693 164.901C235.093 166.001 236.493 172.901 235.693 173.901C234.893 175.001 274.193 175.901 277.693 172.001C282.693 166.501 258.493 130.101 241.093 133.801Z" fill="#FFF9F3"/>
<path d="M242.892 166.401C247.692 164.401 253.092 164.601 258.292 164.301C261.192 164.101 266.292 163.801 264.192 159.701C262.892 157.401 260.992 155.501 259.192 153.601C256.792 151.201 254.392 148.701 252.192 146.101C248.892 142.301 246.592 138.401 245.592 133.701C244.092 133.501 242.492 133.501 241.092 133.801C238.692 134.301 260.892 160.801 259.092 161.901C257.292 163.001 236.292 163.801 235.692 164.901C235.192 165.801 236.092 170.601 235.892 172.901C237.592 170.201 239.692 167.801 242.892 166.401Z" fill="white"/>
<path d="M258.893 229.901C259.493 232.901 266.393 234.901 267.393 231.401C267.593 230.601 267.093 229.601 266.293 229.401C265.093 229.101 263.893 229.801 262.693 229.701C261.593 229.601 260.393 229.201 259.393 229.301C258.993 229.401 258.793 229.601 258.893 229.901Z" fill="#EADFD3"/>
<path d="M223.695 130.5C223.695 130.5 224.795 138.9 224.795 140.7C224.795 142.5 234.495 141.2 234.595 138.4C234.695 135.6 231.195 127.8 231.195 127.8L223.695 130.5Z" fill="#FFD5CF"/>
<path d="M232.794 131.8C231.994 129.6 231.094 127.7 231.094 127.7L223.594 130.5C223.594 130.5 223.994 133.8 224.394 136.8C226.594 136 228.694 135 230.594 133.6C231.394 133 232.094 132.4 232.794 131.8Z" fill="#FFBDAE"/>
<path d="M207.194 103C207.194 103 200.694 118.9 208.094 129.3C215.494 139.7 232.894 131.5 234.894 126.6C234.894 126.6 232.294 124.5 231.694 118.1C231.094 111.7 228.894 100.2 207.194 103Z" fill="#FFD5CF"/>
<path d="M221.994 107.5C224.094 108.8 225.894 110.3 227.394 112.2C229.394 114.7 231.494 120.5 232.194 121C232.094 120.5 231.794 118.6 231.694 118C231.094 111.5 228.794 100.1 207.194 102.9C207.194 102.9 206.894 103.6 206.594 104.7C211.894 104.4 217.494 104.7 221.994 107.5Z" fill="#FFBDAE"/>
<path d="M216.294 124.9C216.094 125.4 216.194 125.8 216.094 126.3C215.994 127 215.694 127.6 215.194 128.1C214.394 128.9 212.794 129 211.794 129.1C211.694 129.1 211.694 129.2 211.794 129.2C213.194 129.7 214.594 129.8 215.794 128.8C216.894 128 217.594 126 216.794 124.7C216.594 124.6 216.294 124.7 216.294 124.9Z" fill="#FF8F8F"/>
<path d="M220.598 117.1C220.698 116.8 220.198 116.5 219.998 116.9C219.498 117.8 218.998 118.4 217.998 118.7C217.698 118.8 217.198 118.9 217.098 118.6C216.998 118.2 216.798 117.9 216.698 117.5C216.698 117.4 216.498 117.4 216.498 117.5C216.198 118 215.998 118.6 216.198 119.1C216.398 119.7 216.998 119.9 217.598 120C218.898 120 220.298 118.3 220.598 117.1Z" fill="#4B2B56"/>
<path d="M209.099 117.1C208.699 117.8 208.199 118.3 207.399 118.6C206.799 118.8 206.699 117.7 206.699 117.3C206.299 118 205.999 119 207.099 119.3C208.399 119.7 209.299 118.4 209.799 117.4C209.899 117 209.299 116.7 209.099 117.1Z" fill="#4B2B56"/>
<path d="M222.195 118.9C221.795 119 221.195 119.3 220.695 119.7C220.395 119.9 220.095 120 219.795 120.3C218.695 121.3 219.095 122.9 220.395 123.3C221.295 123.6 222.495 123.1 223.295 122.7C224.295 122.2 225.295 121.5 225.295 120.3C225.395 118.7 223.395 118.5 222.195 118.9Z" fill="#FF8F8F"/>
<path d="M205.297 118.6C204.497 118.5 203.897 119.4 203.997 120.2V120.3V120.4C203.897 121.1 204.397 121.8 204.897 122.1C205.197 122.3 205.497 122.4 205.897 122.4C206.397 122.4 206.797 122.1 207.097 121.7C207.497 121.1 207.297 120.3 206.897 119.7C206.497 119.1 205.997 118.6 205.297 118.6Z" fill="#FF8F8F"/>
<path d="M217.998 111.7C218.398 111.6 218.898 111.6 219.298 111.7C219.798 111.9 219.998 112.2 220.298 112.5C220.398 112.7 220.798 112.5 220.698 112.3C220.298 111.3 218.898 111 217.998 111.4C217.798 111.6 217.898 111.8 217.998 111.7Z" fill="#4B2B56"/>
<path d="M209.294 112.4C208.894 112.3 208.394 112.3 207.994 112.4C207.494 112.6 207.294 112.9 206.994 113.2C206.894 113.4 206.494 113.2 206.594 113C206.994 112 208.394 111.7 209.294 112.1C209.494 112.2 209.394 112.5 209.294 112.4Z" fill="#4B2B56"/>
<path d="M211.301 119.2C211.201 119.8 210.601 122.5 209.301 123C208.101 123.6 208.101 125.4 209.701 125.9C211.301 126.3 212.801 124.8 212.701 122.7C212.701 120.6 211.501 118.1 211.301 119.2Z" fill="#FF8F8F"/>
<path d="M211.597 119C211.897 121.4 211.397 124.2 209.797 125.9C211.397 126.3 212.797 124.8 212.797 122.7C212.697 121.2 212.097 119.3 211.597 119Z" fill="#EA8686"/>
<path d="M209.399 124.4C209.499 124.1 209.699 123.9 209.599 123.5C209.599 123.4 209.499 123.3 209.399 123.3C208.699 123.1 208.499 123.9 208.699 124.4C208.899 124.7 209.299 124.6 209.399 124.4Z" fill="#FFA4A4"/>
<path d="M210.404 123.2C210.504 123.1 210.504 123.1 210.504 122.9C210.504 122.7 210.404 122.5 210.204 122.6C210.104 122.6 210.004 122.6 209.804 122.7C209.404 122.9 210.004 123.7 210.404 123.2Z" fill="#FFA4A4"/>
<path d="M239.094 125.4C239.094 128.2 236.894 130.4 234.094 130.4C231.294 130.4 229.094 128.2 229.094 125.4C229.094 122.6 231.294 120.4 234.094 120.4C236.794 120.4 239.094 122.7 239.094 125.4Z" fill="#FFD5CF"/>
<path d="M233.495 124.9C233.195 125 232.995 125.1 232.695 125.2C232.795 125 232.895 124.9 232.995 124.7C233.595 123.6 234.995 123.3 236.095 123.2C236.195 123.2 236.195 123.1 236.095 123.1C234.695 122.8 233.595 123 232.595 124.1C231.495 125.3 230.995 127.4 231.895 128.8C232.095 129.1 232.595 128.9 232.495 128.5C232.495 128.4 232.495 128.4 232.495 128.3C232.595 128 232.595 127.7 232.695 127.4C232.795 126.9 233.095 126.4 233.595 126.1C234.495 125.7 235.695 126 235.795 127C235.895 127.5 236.695 127.4 236.695 126.9C236.895 125.1 234.995 124.6 233.495 124.9Z" fill="#FFBDAE"/>
<path d="M193.197 153.2C193.197 157.6 189.597 161.2 185.197 161.2H106.797C102.397 161.2 98.7969 157.6 98.7969 153.2V87.2002C98.7969 82.8002 102.397 79.2002 106.797 79.2002H185.197C189.597 79.2002 193.197 82.8002 193.197 87.2002V153.2Z" fill="#4A565B"/>
<path opacity="0.3" d="M180.597 91.6006C180.597 87.2006 176.997 83.6006 172.597 83.6006H99.5969C99.0969 84.7006 98.7969 85.9006 98.7969 87.1006V153.101C98.7969 157.501 102.397 161.101 106.797 161.101H179.797C180.297 160.001 180.597 158.801 180.597 157.601V91.6006Z" fill="#5B6D75"/>
<path d="M155.695 119.9C155.695 128.8 148.495 135.9 139.695 135.9C130.795 135.9 123.695 128.7 123.695 119.9C123.695 111.1 130.895 103.9 139.695 103.9C148.495 103.9 155.695 111 155.695 119.9Z" fill="white"/>
<path d="M148.398 116.101H143.498V111.201C143.498 110.301 142.798 109.601 141.898 109.601H137.498C136.598 109.601 135.898 110.301 135.898 111.201V116.101H130.998C130.098 116.101 129.398 116.801 129.398 117.701V122.101C129.398 123.001 130.098 123.701 130.998 123.701H135.898V128.601C135.898 129.501 136.598 130.201 137.498 130.201H141.898C142.798 130.201 143.498 129.501 143.498 128.601V123.701H148.398C149.298 123.701 149.998 123.001 149.998 122.101V117.701C149.998 116.801 149.298 116.101 148.398 116.101Z" fill="#E70000"/>
<path d="M215 171.7C215 172.7 214.2 173.5 213.2 173.5H160.3C159.3 173.5 158.5 172.7 158.5 171.7C158.5 170.7 159.3 169.9 160.3 169.9H213.2C214.2 169.8 215 170.7 215 171.7Z" fill="#5B6D75"/>
<path opacity="0.3" d="M180.9 171.2H214.9C214.7 170.4 214 169.9 213.2 169.9H160.3C159.3 169.9 158.5 170.7 158.5 171.7C158.5 172.7 159.3 173.5 160.3 173.5H179.1C179.1 173.3 179 173.2 179 173C179.1 172 179.9 171.2 180.9 171.2Z" fill="#5B6D75"/>
<path d="M167.198 168.4C160.798 168.4 159.498 168.8 159.498 166.4V160C159.498 156.1 156.398 153 152.498 153H137.898C133.998 153 130.898 156.1 130.898 160V166.4C130.898 169.2 132.598 171.7 134.998 172.8C135.398 173.2 135.998 173.5 136.698 173.5H137.998H152.498H167.198C168.598 173.5 169.698 172.4 169.698 171C169.698 169.6 168.498 168.4 167.198 168.4Z" fill="#5B6D75"/>
<path opacity="0.3" d="M150.698 168.7V162.3C150.698 158.4 147.598 155.3 143.698 155.3H132.798C131.598 156.6 130.898 158.2 130.898 160.1V166.5C130.898 169.3 132.598 171.8 134.998 172.9C135.398 173.3 135.998 173.6 136.698 173.6H137.998H152.498H160.898C160.898 173.4 150.698 172.3 150.698 168.7Z" fill="#5B6D75"/>
<path d="M124.297 175.9H186.697V291.6C186.697 295.5 183.597 298.6 179.697 298.6H124.297V175.9Z" fill="#ADAFEC"/>
<path opacity="0.5" d="M124.297 175.9H186.697V178.7V186.3V291.6C186.697 295.5 183.597 298.6 179.697 298.6H166.497C168.797 297.4 170.397 295.1 170.397 292.3V186.3H124.297V175.9Z" fill="#393280"/>
<path d="M298.197 173.5H124.297V181.1H298.197V173.5Z" fill="#ADAFEC"/>
<path opacity="0.8" d="M94.5 211.6C94.5 216.4 90.6 220.3 85.8 220.3H8.7C3.9 220.3 0 216.4 0 211.6V172.1C0 167.3 3.9 163.4 8.7 163.4H85.8C90.6 163.4 94.5 167.3 94.5 172.1V211.6Z" fill="#E0F0FF"/>
<path d="M39.8969 210.9C39.2969 210.9 38.7969 210.5 38.5969 209.9L36.3969 199.2H14.5969C13.8969 199.2 13.2969 198.6 13.2969 197.9C13.2969 197.2 13.8969 196.6 14.5969 196.6H37.4969C38.0969 196.6 38.5969 197 38.7969 197.6L39.9969 203.2L45.9969 174C46.0969 173.4 46.6969 173 47.2969 173C47.8969 173 48.4969 173.5 48.4969 174.1L51.5969 197L56.3969 184.2C56.5969 183.6 57.1969 183.3 57.7969 183.4C58.3969 183.5 58.8969 183.9 58.8969 184.5L60.4969 196.5H79.8969C80.5969 196.5 81.1969 197.1 81.1969 197.8C81.1969 198.5 80.5969 199.1 79.8969 199.1H59.1969C58.5969 199.1 57.9969 198.6 57.8969 198L56.8969 190L52.0969 202.8C51.8969 203.4 51.2969 203.7 50.6969 203.6C50.0969 203.5 49.5969 203.1 49.5969 202.5L46.8969 181.9L41.1969 209.8C40.9969 210.4 40.4969 210.9 39.8969 210.9Z" fill="#393280"/>
<path opacity="0.8" d="M405.797 232.7C405.797 236.1 402.997 238.9 399.597 238.9H311.497C308.097 238.9 305.297 236.1 305.297 232.7V181.2C305.297 177.8 308.097 175 311.497 175H399.597C402.997 175 405.797 177.8 405.797 181.2V232.7Z" fill="#E0F0FF"/>
<path d="M333.795 182.6C339.195 182.6 343.995 185.3 346.895 189.7C349.695 185.3 354.595 182.6 359.995 182.6C368.595 182.6 375.595 189.6 375.595 198.2C375.595 200.2 374.895 202.5 373.595 205H393.195C394.095 205 394.795 205.7 394.795 206.6C394.795 207.5 394.095 208.2 393.195 208.2H366.195C365.595 208.2 365.095 207.9 364.795 207.3L361.795 201.5L358.495 213.7C358.295 214.3 357.795 214.8 357.095 214.9H356.995C356.395 214.9 355.795 214.5 355.595 214L351.995 206L351.095 207.4C350.795 207.9 350.295 208.1 349.795 208.1H340.495C339.595 208.1 338.895 207.4 338.895 206.5C338.895 205.6 339.595 204.9 340.495 204.9H348.895L350.895 201.7C351.195 201.2 351.795 200.9 352.395 201C352.995 201 353.495 201.4 353.695 201.9L356.695 208.5L359.895 196.6C360.095 196 360.595 195.5 361.295 195.4C361.895 195.3 362.595 195.7 362.895 196.2L367.295 204.8H369.995C371.595 202.1 372.495 199.8 372.495 198C372.495 191.1 366.895 185.6 360.095 185.6C354.895 185.6 350.395 188.7 348.495 193.5C348.295 194.1 347.695 194.5 346.995 194.5C346.295 194.5 345.795 194.1 345.495 193.5C343.595 188.7 339.095 185.6 333.895 185.6C326.995 185.6 321.495 191.2 321.495 198C321.495 206.7 339.095 221.6 346.995 227.5C348.895 226.1 353.295 222.7 357.995 218.4C358.595 217.8 359.695 217.9 360.195 218.5C360.795 219.1 360.695 220.1 360.095 220.7C353.895 226.4 347.995 230.7 347.895 230.7C347.595 230.9 347.295 231 346.995 231C346.695 231 346.395 230.9 346.095 230.7C344.995 229.9 318.395 210.5 318.395 198C318.195 189.6 325.195 182.6 333.795 182.6Z" fill="#393280"/>
<path opacity="0.8" d="M150.003 265.6C150.003 271.3 145.403 275.9 139.703 275.9H57.5031C51.8031 275.9 47.2031 271.3 47.2031 265.6V221.2C47.2031 215.5 51.8031 210.9 57.5031 210.9H139.803C145.503 210.9 150.103 215.5 150.103 221.2V265.6H150.003Z" fill="#E0F0FF"/>
<path d="M119.905 243.4C119.905 255.2 110.405 264.7 98.6047 264.7C86.8047 264.7 77.3047 255.2 77.3047 243.4C77.3047 231.6 86.8047 222.1 98.6047 222.1C110.405 222 119.905 231.6 119.905 243.4Z" fill="#393280"/>
<path d="M111.502 237.8H104.202V230.5C104.202 227.4 101.702 224.9 98.6016 224.9C95.5016 224.9 93.0016 227.4 93.0016 230.5V237.8H85.7016C82.6016 237.8 80.1016 240.3 80.1016 243.4C80.1016 246.5 82.6016 249 85.7016 249H93.0016V256.3C93.0016 259.4 95.5016 261.9 98.6016 261.9C101.702 261.9 104.202 259.4 104.202 256.3V249H111.502C114.602 249 117.102 246.5 117.102 243.4C117.002 240.3 114.502 237.8 111.502 237.8Z" fill="white"/>
<path opacity="0.8" d="M323.902 254.4C323.902 257.1 321.702 259.2 319.102 259.2H280.402C277.702 259.2 275.602 257 275.602 254.4V233.5C275.602 230.8 277.802 228.7 280.402 228.7H319.102C321.802 228.7 323.902 230.9 323.902 233.5V254.4Z" fill="#CCE4FC"/>
<path d="M295.303 243.901C295.303 245.501 294.003 246.701 292.503 246.701C290.903 246.701 289.703 245.401 289.703 243.901C289.703 242.301 291.003 241.101 292.503 241.101C294.003 241.101 295.303 242.401 295.303 243.901Z" fill="#393280"/>
<path d="M302.6 243.901C302.6 245.501 301.3 246.701 299.8 246.701C298.2 246.701 297 245.401 297 243.901C297 242.301 298.3 241.101 299.8 241.101C301.3 241.101 302.6 242.401 302.6 243.901Z" fill="#393280"/>
<path d="M309.905 243.901C309.905 245.501 308.605 246.701 307.105 246.701C305.505 246.701 304.305 245.401 304.305 243.901C304.305 242.301 305.605 241.101 307.105 241.101C308.605 241.101 309.905 242.401 309.905 243.901Z" fill="#393280"/>
<defs>
<linearGradient id="paint0_linear_3817_7030" x1="211.265" y1="311.665" x2="211.265" y2="10.5207" gradientUnits="userSpaceOnUse">
<stop stop-color="#CCE4FC"/>
<stop offset="1" stop-color="#F6F9FE"/>
</linearGradient>
</defs>
</svg>
