<svg width="390" height="371" viewBox="0 0 390 371" fill="none" xmlns="http://www.w3.org/2000/svg">
<path d="M389.121 259.431C389.288 200.533 306.972 152.554 205.264 152.266C103.556 151.977 20.9693 199.489 20.8023 258.386C20.6354 317.284 102.951 365.263 204.659 365.551C306.368 365.84 388.954 318.328 389.121 259.431Z" fill="#4AC1DD"/>
<path d="M162.462 129.063L98.8638 165.287L60.3359 143.074L123.935 106.758L162.462 129.063Z" fill="#E5E5E5"/>
<path d="M162.455 129.062L162.363 173.582L98.6719 209.897L98.8562 165.286L162.455 129.062Z" fill="#EAEAEA"/>
<path d="M98.8606 165.29L98.6763 209.901L60.1484 187.687L60.3328 143.076L98.8606 165.29Z" fill="#F9F9F9"/>
<path d="M122.094 131.088L116.656 134.314V136.526L122.094 133.3V131.088Z" fill="#0A8E74"/>
<path d="M104.944 134.314L99.4141 131.088V133.3L104.852 136.526L104.944 134.314Z" fill="#0A8E74"/>
<path d="M116.282 140.858L110.843 137.724L105.405 140.858L99.5062 137.447L99.4141 139.659L105.405 143.07L110.843 139.936L116.282 143.07L122.181 139.659V137.447L116.282 140.858Z" fill="#0A8E74"/>
<path d="M122.088 131.09L116.65 134.316L122.181 137.45L116.282 140.86L110.843 137.726L105.405 140.86L99.5062 137.45L104.944 134.316L99.4141 131.09L105.313 127.68L110.751 130.906L116.189 127.68L122.088 131.09Z" fill="#05A889"/>
<path d="M130.203 173.033L130.295 179.301L132.139 180.407V174.139L130.203 173.033Z" fill="#F2F2F2"/>
<path d="M141.632 159.668L136.102 162.894L138.037 164L143.475 160.774L141.632 159.668Z" fill="#F2F2F2"/>
<path d="M132.139 167.409V161.05L138.038 157.639L136.103 156.533L130.204 159.944V166.303L124.766 169.437V176.166L126.701 177.364V170.543L132.139 167.409Z" fill="#0A8E74"/>
<path d="M138.04 157.639V163.999L143.478 160.773L143.571 167.593L138.04 170.727V176.995L132.141 180.405V174.137L126.703 177.363V170.543L132.141 167.409V161.049L138.04 157.639Z" fill="#05A889"/>
<path d="M83.3809 181.049V187.317L81.4453 188.423L81.5375 182.155L83.3809 181.049Z" fill="#F2F2F2"/>
<path d="M72.045 167.684L77.5753 170.817L75.6397 171.923L70.1094 168.79L72.045 167.684Z" fill="#0A8E74"/>
<path d="M81.5396 175.333V169.065L75.6406 165.655L77.5762 164.549L83.4752 167.959V174.227L88.9134 177.361V184.181L86.9778 185.287V178.467L81.5396 175.333Z" fill="#0A8E74"/>
<path d="M75.6397 165.654V171.922L70.1094 168.788V175.517L75.6397 178.743L75.5475 185.01L81.4465 188.421L81.5387 182.153L86.9768 185.287V178.466L81.5387 175.332V169.065L75.6397 165.654Z" fill="#05A889"/>
<path d="M315.652 264.653L166.61 178.472C162.647 176.168 156.287 176.168 152.324 178.472L56.9257 233.868C52.9623 236.172 52.9623 239.859 56.9257 242.163L133.705 286.59L133.889 286.682L143.567 292.305L205.875 328.344C209.839 330.648 216.199 330.648 220.162 328.344L315.744 272.948C319.708 270.644 319.615 266.957 315.652 264.653Z" fill="#DBDBDB"/>
<path d="M294.632 267.326L273.064 254.791L187.621 205.479L162.089 190.639C161.167 190.086 159.601 190.086 158.587 190.639L103.652 222.531C102.731 223.084 102.731 224.006 103.652 224.559L122.455 235.435L215.641 289.263L236.288 301.153C237.209 301.706 238.776 301.706 239.79 301.153L294.724 269.262C295.554 268.801 295.554 267.879 294.632 267.326Z" fill="#C6C6C6"/>
<path d="M187.255 277.557L144.856 253.039L144.671 252.947C143.565 252.302 141.814 252.302 140.8 252.947L115.361 267.694C114.808 267.971 114.531 268.432 114.531 268.8C114.531 269.261 114.808 269.63 115.545 269.999L157.944 294.516C159.05 295.162 160.802 295.162 161.815 294.516L187.255 279.769C187.808 279.492 188.084 279.031 188.084 278.663C188.084 278.202 187.808 277.833 187.255 277.557Z" fill="#C6C6C6"/>
<path d="M173.335 206.77L178.496 203.728L170.293 198.936L165.039 201.977L173.335 206.77Z" fill="#474A52"/>
<path d="M155.727 207.413L164.022 212.206L171.949 207.598L163.653 202.805L155.727 207.413Z" fill="#474A52"/>
<path d="M164.859 223.084L172.325 227.416L179.791 223.084L172.325 218.752L164.859 223.084Z" fill="#474A52"/>
<path d="M228.827 238.844L233.988 235.803L225.785 231.01L220.531 234.051L228.827 238.844Z" fill="#474A52"/>
<path d="M207.258 247.602L214.724 251.934L222.19 247.602L214.632 243.27L207.258 247.602Z" fill="#474A52"/>
<path d="M256.569 254.881L261.731 251.84L253.527 247.047L248.273 250.089L256.569 254.881Z" fill="#474A52"/>
<path d="M265.874 260.229L271.035 257.187L262.74 252.486L257.578 255.436L265.874 260.229Z" fill="#474A52"/>
<path d="M241.815 269.445L234.349 265.113L226.883 269.445L234.349 273.777L241.815 269.445Z" fill="#474A52"/>
<path d="M190.203 237.738L197.669 242.07L205.135 237.738L197.669 233.406L190.203 237.738Z" fill="#474A52"/>
<path d="M157.113 241.979L148.633 246.864L200.249 276.727L208.729 271.842L157.113 241.979Z" fill="#474A52"/>
<path d="M182.555 212.114L187.809 209.072L179.513 204.279L174.352 207.321L182.555 212.114Z" fill="#474A52"/>
<path d="M210.389 228.153L215.551 225.111L207.255 220.318L202.094 223.36L210.389 228.153Z" fill="#474A52"/>
<path d="M117.294 218.936L108.906 223.821L117.57 228.89L125.958 224.005L117.294 218.936Z" fill="#474A52"/>
<path d="M148.822 226.308L126.7 213.496L119.234 217.828L141.356 230.64L148.822 226.308Z" fill="#474A52"/>
<path d="M173.336 227.967L180.802 232.299L188.268 227.967L180.802 223.635L173.336 227.967Z" fill="#474A52"/>
<path d="M164.95 233.682L172.416 229.35L164.95 225.018L157.484 229.35L164.95 233.682Z" fill="#474A52"/>
<path d="M181.812 232.854L189.278 237.186L196.744 232.854L189.278 228.521L181.812 232.854Z" fill="#474A52"/>
<path d="M181.08 234.328L173.614 229.996L166.148 234.328L173.614 238.66L181.08 234.328Z" fill="#474A52"/>
<path d="M202 234.143L210.295 238.936L218.222 234.42L209.927 229.627L202 234.143Z" fill="#474A52"/>
<path d="M166.793 236.725L158.958 232.209L151.492 236.541L159.327 241.057L166.793 236.725Z" fill="#474A52"/>
<path d="M175.363 241.702L167.528 237.186L160.062 241.425L167.897 246.034L175.363 241.702Z" fill="#474A52"/>
<path d="M198.399 244.375L190.841 240.043L183.375 244.283L190.933 248.615L198.399 244.375Z" fill="#474A52"/>
<path d="M220.625 244.927L228.828 249.72L236.755 245.111L228.46 240.318L220.625 244.927Z" fill="#474A52"/>
<path d="M239.33 257.555L231.864 253.223L224.398 257.555L231.864 261.887L239.33 257.555Z" fill="#474A52"/>
<path d="M232.875 262.439L240.341 266.772L247.807 262.439L240.341 258.107L232.875 262.439Z" fill="#474A52"/>
<path d="M233.065 264.375L225.599 260.043L218.133 264.375L225.599 268.707L233.065 264.375Z" fill="#474A52"/>
<path d="M264.862 272.303L257.303 267.971L249.93 272.211L257.396 276.635L264.862 272.303Z" fill="#474A52"/>
<path d="M235.738 276.542L227.903 272.025L220.438 276.357L228.272 280.874L235.738 276.542Z" fill="#474A52"/>
<path d="M209.833 272.486L201.445 277.371L210.017 282.349L218.497 277.464L209.833 272.486Z" fill="#474A52"/>
<path d="M244.586 279.676L256.937 286.865L264.403 282.533L252.052 275.344L244.586 279.676Z" fill="#474A52"/>
<path d="M219.699 278.203L211.219 283.088L219.883 288.066L228.271 283.18L219.699 278.203Z" fill="#474A52"/>
<path d="M240.156 290L234.995 287.051L231.031 289.355L236.101 292.305L240.156 290Z" fill="#474A52"/>
<path d="M230.573 289.631L226.609 291.935L231.771 294.885L235.734 292.58L230.573 289.631Z" fill="#474A52"/>
<path d="M169.277 198.381L161.074 193.588L155.82 196.63L164.116 201.422L169.277 198.381Z" fill="#474A52"/>
<path d="M162.644 202.252L154.349 197.459L146.422 202.068L154.717 206.861L162.644 202.252Z" fill="#474A52"/>
<path d="M161.81 212.667L144.942 202.896L137.477 207.229L154.344 216.999L161.81 212.667Z" fill="#474A52"/>
<path d="M191.858 217.462L197.02 214.42L188.724 209.627L183.562 212.669L191.858 217.462Z" fill="#474A52"/>
<path d="M164.945 212.761L173.241 217.554L181.168 212.945L172.872 208.152L164.945 212.761Z" fill="#474A52"/>
<path d="M163.841 222.529L171.307 218.197L163.841 213.865L156.375 218.197L163.841 222.529Z" fill="#474A52"/>
<path d="M201.078 222.805L206.332 219.764L198.037 214.971L192.875 218.012L201.078 222.805Z" fill="#474A52"/>
<path d="M174.258 218.104L182.553 222.897L190.48 218.381L182.185 213.588L174.258 218.104Z" fill="#474A52"/>
<path d="M154.722 219.121L135.827 208.152L128.453 212.484L147.256 223.453L154.722 219.121Z" fill="#474A52"/>
<path d="M183.375 223.452L191.67 228.245L199.597 223.637L191.302 218.844L183.375 223.452Z" fill="#474A52"/>
<path d="M148.812 224.281L156.371 228.613L163.744 224.373L156.278 219.949L148.812 224.281Z" fill="#474A52"/>
<path d="M219.608 233.499L224.77 230.457L216.566 225.664L211.312 228.706L219.608 233.499Z" fill="#474A52"/>
<path d="M192.688 228.796L200.983 233.589L208.91 228.98L200.614 224.188L192.688 228.796Z" fill="#474A52"/>
<path d="M127.253 224.648L118.773 229.626L127.438 234.603L135.825 229.718L127.253 224.648Z" fill="#474A52"/>
<path d="M150.749 235.987L158.122 231.747L150.288 227.139L142.914 231.471L150.749 235.987Z" fill="#474A52"/>
<path d="M137.206 230.457L128.727 235.342L137.391 240.319L145.778 235.434L137.206 230.457Z" fill="#474A52"/>
<path d="M189.744 239.305L182.186 234.973L174.812 239.305L182.278 243.637L189.744 239.305Z" fill="#474A52"/>
<path d="M238.039 244.19L243.293 241.148L234.998 236.355L229.836 239.397L238.039 244.19Z" fill="#474A52"/>
<path d="M211.312 239.581L219.608 244.374L227.535 239.766L219.239 234.973L211.312 239.581Z" fill="#474A52"/>
<path d="M147.066 236.17L138.586 241.055L147.25 246.032L155.73 241.147L147.066 236.17Z" fill="#474A52"/>
<path d="M198.68 242.623L206.146 246.955L213.612 242.623L206.146 238.291L198.68 242.623Z" fill="#474A52"/>
<path d="M247.35 249.536L252.512 246.494L244.308 241.701L239.055 244.743L247.35 249.536Z" fill="#474A52"/>
<path d="M184.121 246.679L176.286 242.162L168.82 246.494L176.655 251.011L184.121 246.679Z" fill="#474A52"/>
<path d="M206.979 249.352L199.513 245.02L192.047 249.352L199.513 253.684L206.979 249.352Z" fill="#474A52"/>
<path d="M229.922 250.272L238.125 255.065L246.052 250.457L237.756 245.756L229.922 250.272Z" fill="#474A52"/>
<path d="M192.691 251.655L184.857 247.139L177.391 251.471L185.225 255.987L192.691 251.655Z" fill="#474A52"/>
<path d="M215.734 252.484L223.2 256.816L230.666 252.484L223.108 248.152L215.734 252.484Z" fill="#474A52"/>
<path d="M215.737 254.422L208.271 250.09L200.805 254.422L208.271 258.754L215.737 254.422Z" fill="#474A52"/>
<path d="M246.889 251.012L239.055 255.62L247.258 260.321L255.185 255.805L246.889 251.012Z" fill="#474A52"/>
<path d="M201.261 256.634L193.427 252.117L185.961 256.449L193.796 260.966L201.261 256.634Z" fill="#474A52"/>
<path d="M224.401 259.398L216.935 255.066L209.469 259.398L216.935 263.731L224.401 259.398Z" fill="#474A52"/>
<path d="M275.092 265.573L280.254 262.531L272.051 257.83L266.797 260.78L275.092 265.573Z" fill="#474A52"/>
<path d="M256.194 256.357L248.359 260.966L256.563 265.759L264.489 261.15L256.194 256.357Z" fill="#474A52"/>
<path d="M209.833 261.61L201.999 257.094L194.625 261.426L202.367 265.942L209.833 261.61Z" fill="#474A52"/>
<path d="M281.263 263.178L276.102 266.127L284.305 270.92L289.559 267.878L281.263 263.178Z" fill="#474A52"/>
<path d="M218.496 266.589L210.661 262.072L203.195 266.404L211.03 270.921L218.496 266.589Z" fill="#474A52"/>
<path d="M256.377 267.326L248.819 262.994L241.445 267.326L248.911 271.658L256.377 267.326Z" fill="#474A52"/>
<path d="M227.074 271.565L219.239 267.049L211.773 271.381L219.608 275.897L227.074 271.565Z" fill="#474A52"/>
<path d="M257.766 266.404L275.002 276.358L282.836 271.749L265.692 261.795L257.766 266.404Z" fill="#474A52"/>
<path d="M250.477 274.422L242.919 270.09L235.453 274.422L243.011 278.754L250.477 274.422Z" fill="#474A52"/>
<path d="M258.5 277.279L265.966 281.611L273.432 277.279L265.966 272.947L258.5 277.279Z" fill="#474A52"/>
<path d="M224.954 286.312L220.898 288.709L226.06 291.658L230.116 289.354L224.954 286.312Z" fill="#474A52"/>
<path d="M230.203 282.074L247.716 292.121L255.182 287.881L237.669 277.742L230.203 282.074Z" fill="#474A52"/>
<path d="M232.227 295.16L237.388 298.201L241.352 295.897L236.282 292.855L232.227 295.16Z" fill="#474A52"/>
<path d="M323.671 148.239C323.671 143.723 320.445 138.1 316.573 135.888L167.347 49.6154C163.384 47.3111 160.158 49.1546 160.158 53.671L159.789 164.001C159.789 164.093 159.789 164.277 159.789 164.369V166.489C159.789 171.006 163.015 176.628 166.886 178.84L316.02 265.113C319.984 267.417 323.21 265.574 323.21 261.058L323.578 150.728C323.578 150.544 323.578 150.451 323.578 150.267L323.671 148.239Z" fill="#474A52"/>
<path d="M313.622 145.935L170.019 62.9805L169.742 166.305V166.397V169.808L313.346 252.67L313.622 149.345V145.935Z" fill="#C0EEFF"/>
<path d="M244.126 98.836L239.886 96.4395C239.241 96.0708 238.688 96.3473 238.688 97.1769C238.688 97.9143 239.241 98.9282 239.886 99.2969L244.126 101.693C244.771 102.062 245.324 101.785 245.324 101.048C245.416 100.126 244.863 99.2047 244.126 98.836Z" fill="#474A52"/>
<path d="M325.791 147.041C325.791 142.525 322.565 136.903 318.694 134.69L169.468 48.3254C167.44 47.1271 165.689 47.035 164.398 47.8645C163.753 48.2332 163.2 48.6019 162.555 48.9706C163.845 48.4175 165.504 48.6019 167.348 49.6158L316.482 135.889C320.445 138.193 323.671 143.723 323.579 148.24V150.36C323.579 150.544 323.579 150.636 323.579 150.82L323.21 261.15C323.21 263.547 322.288 265.206 320.906 265.851C321.643 265.39 322.473 264.929 323.302 264.468C324.593 263.731 325.422 262.164 325.422 259.86L325.791 149.53C325.791 149.346 325.791 149.254 325.791 149.069V147.041Z" fill="#CACACA"/>
<path d="M121.909 278.201L143.661 290.737C144.399 291.198 144.399 291.843 143.661 292.212L133.983 286.589L119.328 278.109C120.065 277.833 121.172 277.833 121.909 278.201Z" fill="#B5B5B5"/>
<path d="M317.038 272.027C316.946 272.119 316.854 272.211 316.762 272.303C316.669 272.395 316.577 272.395 316.485 272.488C316.485 272.488 316.393 272.488 316.393 272.58C316.301 272.672 316.209 272.672 316.209 272.764C316.116 272.856 315.932 272.948 315.84 272.948L220.35 328.344C216.387 330.648 210.027 330.648 206.063 328.344L143.755 292.304L134.077 286.682L133.893 286.59L130.667 284.746L57.1136 242.163C55.178 241.057 54.1641 239.582 54.1641 238.107C54.1641 240.32 54.1641 242.44 54.1641 244.652C54.1641 246.126 55.178 247.693 57.1136 248.799L134.169 293.318L143.847 298.941L206.155 334.98C206.432 335.072 206.616 335.257 206.893 335.349C206.985 335.349 207.077 335.441 207.169 335.441C207.354 335.533 207.446 335.533 207.63 335.625C207.999 335.717 208.368 335.902 208.736 335.994H208.828C208.921 335.994 209.013 335.994 209.105 336.086C209.289 336.178 209.474 336.178 209.75 336.27C209.842 336.27 209.842 336.27 209.934 336.27C210.027 336.27 210.119 336.27 210.211 336.27C210.395 336.27 210.58 336.363 210.764 336.363C210.856 336.363 210.948 336.363 210.948 336.363C211.041 336.363 211.133 336.363 211.133 336.363C211.317 336.363 211.501 336.363 211.686 336.455C211.778 336.455 211.87 336.455 211.962 336.455C212.054 336.455 212.147 336.455 212.147 336.455C212.331 336.455 212.515 336.455 212.7 336.455C212.792 336.455 212.884 336.455 212.976 336.455C213.068 336.455 213.068 336.455 213.16 336.455C213.345 336.455 213.529 336.455 213.714 336.455C213.806 336.455 213.898 336.455 213.99 336.455C214.082 336.455 214.082 336.455 214.174 336.455C214.451 336.455 214.635 336.455 214.912 336.363C215.004 336.363 215.096 336.363 215.188 336.363H215.28C215.649 336.363 216.018 336.27 216.479 336.178C216.479 336.178 216.479 336.178 216.571 336.178C216.663 336.178 216.755 336.086 216.94 336.086C217.124 336.086 217.308 335.994 217.493 335.994C217.585 335.994 217.769 335.902 217.861 335.902C218.046 335.81 218.23 335.81 218.414 335.717H218.506C218.599 335.717 218.599 335.717 218.691 335.625C218.967 335.533 219.244 335.441 219.52 335.349C219.613 335.349 219.705 335.257 219.797 335.257C220.166 335.072 220.442 334.98 220.719 334.796L315.748 279.585L315.84 279.493C315.932 279.4 316.024 279.4 316.116 279.308C316.209 279.216 316.393 279.124 316.485 279.032C316.577 278.94 316.669 278.847 316.762 278.847C316.854 278.755 316.946 278.663 317.038 278.571C317.038 278.571 317.038 278.571 317.13 278.479L317.223 278.387C317.407 278.202 317.499 278.11 317.683 277.926L317.776 277.833C317.776 277.833 317.776 277.741 317.868 277.741C317.96 277.649 318.052 277.465 318.144 277.373C318.144 277.28 318.236 277.28 318.236 277.188V277.096C318.329 277.004 318.329 276.912 318.421 276.82C318.421 276.727 318.513 276.727 318.513 276.635C318.513 276.635 318.513 276.635 318.513 276.543C318.513 276.451 318.605 276.359 318.605 276.267C318.605 276.174 318.697 276.082 318.697 276.082C318.697 276.082 318.697 276.082 318.697 275.99C318.697 275.898 318.697 275.806 318.697 275.714C318.697 275.621 318.697 275.529 318.697 275.529V275.437C318.697 273.225 318.697 271.105 318.697 268.893C318.605 269.999 318.052 271.105 317.038 272.027Z" fill="#CACACA"/>
<path d="M234.82 111.738L234.727 149.897L184.125 120.679L184.217 82.5195L234.82 111.738Z" fill="#A2E3F4"/>
<path d="M234.82 157.826L234.727 196.077L184.125 166.858L184.217 128.699L234.82 157.826Z" fill="#A2E3F4"/>
<path d="M298.884 149.162L298.791 187.321L248.281 158.195L248.373 119.943L298.884 149.162Z" fill="#A2E3F4"/>
<path d="M298.884 195.34L298.791 233.499L248.281 204.28L248.373 166.121L298.884 195.34Z" fill="#A2E3F4"/>
<path d="M108.352 78.0942L111.854 76.0664L155.636 101.414L152.133 103.441L108.352 78.0942Z" fill="#E83628"/>
<path d="M187.81 127.315L191.312 125.287L182.832 155.519L179.422 157.547L187.81 127.315Z" fill="#E83628"/>
<path d="M165.131 83.6235L168.541 81.5957L157.573 105.837L154.07 107.865L165.131 83.6235Z" fill="#E83628"/>
<path d="M165.781 73.393L169.284 71.3652L183.017 142.522L179.515 144.55L165.781 73.393Z" fill="#E83628"/>
<path d="M185.594 122.706L189.096 120.678L202.83 128.605L199.327 130.632L185.594 122.706Z" fill="#E83628"/>
<path d="M205.315 124.18L208.725 122.152L204.854 133.121L201.352 135.149L205.315 124.18Z" fill="#E83628"/>
<path d="M205.141 114.319L208.551 112.291L215.187 135.795L211.777 137.823L205.141 114.319Z" fill="#E83628"/>
<path d="M223.109 144.366L226.612 142.338L230.852 167.869L227.349 169.897L223.109 144.366Z" fill="#E83628"/>
<path d="M211.773 137.823L215.184 135.795L226.613 142.339L223.111 144.367L211.773 137.823Z" fill="#E83628"/>
<path d="M235.828 138.467L239.331 136.439L231.035 185.567L227.625 187.595L235.828 138.467Z" fill="#E83628"/>
<path d="M235.367 121.692L238.87 119.664L244.953 152.938L241.451 154.966L235.367 121.692Z" fill="#E83628"/>
<path d="M241.445 154.965L244.948 152.938L277.116 171.464L273.613 173.492L241.445 154.965Z" fill="#E83628"/>
<path d="M278.318 167.131L281.821 165.104L279.424 176.164L275.922 178.192L278.318 167.131Z" fill="#E83628"/>
<path d="M284.586 179.85L287.996 177.822L297.674 183.353L294.172 185.38L284.586 179.85Z" fill="#E83628"/>
<path d="M294.172 185.383L297.674 183.355L300.44 194.6L296.937 196.628L294.172 185.383Z" fill="#E83628"/>
<path d="M277.68 155.426L281.09 153.398L288.003 177.824L284.593 179.852L277.68 155.426Z" fill="#E83628"/>
<path d="M301.459 192.94L304.961 190.912L300.721 206.213L297.219 208.24L301.459 192.94Z" fill="#E83628"/>
<path d="M299.25 188.331L302.753 186.303L319.528 195.981L316.025 198.009L299.25 188.331Z" fill="#E83628"/>
<path d="M341.455 216.077L344.958 214.049L338.69 236.354L335.188 238.382L341.455 216.077Z" fill="#E83628"/>
<path d="M323.758 177.27L327.261 175.242L321.823 200.682L318.32 202.709L323.758 177.27Z" fill="#E83628"/>
<path d="M323.578 162.34L327.081 160.312L338.879 223.266L335.376 225.294L323.578 162.34Z" fill="#E83628"/>
<path d="M384.133 237.368L387.635 235.34L387.543 238.658L384.133 240.686V237.368Z" fill="#E83628"/>
<path d="M339.242 211.467L342.745 209.439L387.632 235.34L384.13 237.368L339.242 211.467Z" fill="#E83628"/>
<path d="M323.573 162.338L335.371 225.292L339.242 211.466L384.13 237.366V240.684L341.454 216.075L335.186 238.38L323.757 177.27L318.319 202.71L301.452 192.939L297.212 208.24L292.142 187.593L282.556 182.063L278.316 167.131L275.92 178.192L239.236 156.992L235.825 138.466L227.622 187.593L220.801 146.393L209.741 140.033L205.316 124.179L201.353 135.148L187.804 127.313L179.416 157.545L165.129 83.6237L154.069 107.865L108.352 81.4115V78.0933L152.133 103.441L165.775 73.3926L179.508 144.549L185.592 122.705L199.325 130.631L205.132 114.317L211.768 137.821L223.106 144.365L227.345 169.896L235.364 121.691L241.448 154.965L273.616 173.491L277.671 155.426L284.584 179.851L294.17 185.381L296.935 196.626L299.239 188.331L316.015 198.009L323.573 162.338Z" fill="#F94632"/>
<path d="M274.27 120.855C290.819 111.237 290.776 80.2843 274.175 51.7201C257.574 23.156 230.7 7.79712 214.152 17.4151C197.603 27.0331 197.646 57.9859 214.247 86.55C230.848 115.114 257.722 130.473 274.27 120.855Z" fill="#1C9AE9"/>
<path d="M245.977 19.4722C234.179 12.6515 223.487 12.0063 215.745 16.5227L214.086 17.4444C221.828 12.928 232.52 13.5732 244.318 20.3939C267.73 33.9432 286.717 66.7564 286.625 93.6705C286.625 107.035 281.832 116.437 274.274 120.861L275.933 119.94C283.583 115.515 288.284 106.114 288.284 92.7488C288.376 65.8347 269.389 33.0215 245.977 19.4722Z" fill="#098DCE"/>
<path d="M243.664 42.6055C243.756 42.7898 245.876 45.7393 247.443 47.3062C247.443 47.2141 246.798 46.108 246.521 44.9098C246.613 45.0941 247.812 47.7671 250.853 50.6244C250.853 50.6244 250.393 49.887 249.932 47.9514C250.024 48.1358 251.591 51.3618 254.172 54.4035L254.356 54.4956C255.278 54.9565 255.923 56.1547 255.923 57.1686V57.9982C255.923 59.2886 255.185 59.8416 254.079 59.3807V59.5651C254.079 61.9616 253.434 63.8972 252.328 65.2797C251.591 66.1093 250.761 66.7545 249.747 67.2154C249.471 67.3075 249.286 67.3997 249.01 67.4919C247.812 67.7684 246.337 67.4919 244.954 66.6623C243.48 65.8328 242.097 64.4502 240.899 62.7911C240.622 62.4224 240.438 62.0537 240.161 61.685C239.148 60.1181 238.318 58.5512 237.581 56.7999C236.475 54.1269 235.922 51.454 235.922 49.1497V48.9653C234.908 48.228 234.078 46.7532 234.078 45.4628V44.7254C234.078 43.8037 234.816 43.435 235.645 43.8959C235.645 43.8959 235.645 43.8959 235.737 43.988C235.737 43.988 235.829 44.0802 235.922 44.0802C236.935 44.3567 240.161 45.555 243.664 42.6055Z" fill="#FFE9D4"/>
<path d="M254.909 46.9372L254.264 54.3109C251.683 51.3614 250.116 48.0433 250.024 47.8589C250.485 49.7945 250.946 50.5319 250.946 50.5319C247.904 47.7667 246.706 45.0016 246.614 44.8172C246.798 45.9233 247.443 47.1215 247.535 47.2137C245.969 45.6468 243.849 42.6973 243.756 42.5129C240.254 45.4624 237.028 44.172 236.106 43.7112C236.014 43.7112 236.014 43.619 235.922 43.619C235.83 43.619 235.83 43.5268 235.83 43.5268L235.461 35.9688L254.909 46.9372Z" fill="#3E2217"/>
<path d="M240.255 66.2953V79.015L244.587 81.5037L240.255 79.015L240.163 92.3799L244.956 95.1451L238.135 91.2739L234.172 75.8812L236.476 75.1438L234.172 70.6274L234.909 66.2031L240.255 66.2953Z" fill="white"/>
<path d="M249.842 84.544V98.0011L245.141 95.2359L244.957 95.1437L240.164 92.3786L240.256 79.0137L244.588 81.5023L245.51 82.0553L249.842 84.544Z" fill="#F94632"/>
<path d="M249.934 67.1229V71.9158V84.5433L245.51 81.9625L245.049 81.686L244.588 81.4095L240.164 78.8287V66.2011V61.4082C240.441 61.7769 240.625 62.1456 240.901 62.5143C242.1 64.1734 243.482 65.5559 244.957 66.3855C246.432 67.215 247.814 67.5837 249.013 67.215C249.473 67.3072 249.658 67.215 249.934 67.1229Z" fill="#FFE9D4"/>
<path d="M249.934 71.916L255.28 77.9994L256.017 83.2532L253.62 85.0044L255.925 88.5069L251.869 99.1989L245.141 95.3277L249.841 98.0006V84.5436L245.509 82.0549L249.841 84.5436L249.934 71.916Z" fill="white"/>
<path d="M249.939 71.9166L256.391 79.2903L262.013 85.6502C263.304 87.1249 264.41 89.0605 264.963 90.9962C266.069 94.683 267.728 101.412 268.373 108.693L245.054 95.2361L221.734 81.779C222.38 75.1426 224.131 70.4418 225.145 67.9532C225.698 66.6628 226.712 66.0176 228.094 66.0176L233.717 66.2019H234.823L234.085 70.6262L236.482 75.1426L234.085 75.88L238.141 91.2727L244.87 95.1439L245.054 95.2361L251.782 99.1994L255.93 88.5075L253.534 85.005L255.93 83.2537L255.193 77.9999L249.939 71.9166Z" fill="#EDEDED"/>
<path d="M245.147 30.439C256.208 36.8911 259.157 53.0211 259.157 63.2522C259.157 72.1929 256.945 77.9075 256.392 79.1979L249.94 71.8242V67.0312C250.954 66.6626 251.784 66.0174 252.521 65.0956C253.627 63.7131 254.272 61.7775 254.272 59.381V59.1966C255.286 59.6575 256.116 59.1045 256.116 57.8141V56.9845C256.116 55.9706 255.378 54.8646 254.549 54.3115L254.272 54.2194L254.918 46.8456L235.469 35.9693L235.838 43.5274C235.008 43.0666 234.363 43.4353 234.271 44.357V45.0943C234.271 46.2926 235.008 47.7673 236.114 48.5969V48.7812C236.114 51.1777 236.667 53.8507 237.774 56.4315C238.511 58.0906 239.34 59.7497 240.354 61.3166V66.1095L235.008 66.0174H233.902C233.349 64.0817 231.137 55.7863 231.229 46.8456C231.137 36.7989 234.087 24.0792 245.147 30.439Z" fill="#3E2217"/>
<path d="M343.584 256.629L343.492 296.908C343.492 299.858 341.556 302.715 337.685 305.02C329.942 309.536 317.407 309.536 309.665 305.02C305.793 302.807 303.766 299.766 303.766 296.816L303.858 256.537C303.858 259.487 305.793 262.436 309.757 264.74C317.499 269.257 330.127 269.257 337.777 264.74C341.648 262.528 343.492 259.579 343.584 256.629Z" fill="#1C9AE9"/>
<path d="M309.57 275.895V289.905C309.755 290.642 310.676 291.748 312.52 292.854C315.377 294.513 319.433 295.435 323.673 295.435C327.913 295.435 331.968 294.513 334.825 292.854C336.853 291.656 337.683 290.458 337.683 289.72V275.895C333.627 277.646 328.742 278.568 323.765 278.568C318.603 278.66 313.718 277.646 309.57 275.895Z" fill="#F94632"/>
<path d="M337.68 248.518C345.422 253.035 345.514 260.316 337.772 264.74C330.029 269.257 317.494 269.257 309.752 264.74C302.009 260.224 301.917 252.942 309.659 248.518C317.31 244.002 329.937 244.002 337.68 248.518Z" fill="#37B7F7"/>
<path d="M320.547 280.871V293.406C321.561 293.499 322.575 293.591 323.589 293.591C324.695 293.591 325.708 293.499 326.815 293.406V280.871C325.801 280.963 324.787 280.963 323.773 280.963C322.667 280.963 321.653 280.963 320.547 280.871Z" fill="white"/>
<path d="M315.656 288.797C318.237 289.35 321.002 289.627 323.767 289.627C326.533 289.627 329.206 289.35 331.786 288.797V282.99C329.206 283.543 326.533 283.82 323.767 283.82C321.002 283.82 318.237 283.543 315.656 282.99V288.797Z" fill="white"/>
<path d="M332.345 249.903C327.552 252.669 319.81 252.669 315.017 249.903C312.62 248.521 311.422 246.677 311.422 244.834V253.222C311.698 254.789 312.897 256.448 315.017 257.646C319.81 260.411 327.552 260.411 332.345 257.646C334.741 256.263 335.94 254.512 335.94 252.669V245.571C335.571 247.138 334.465 248.705 332.345 249.903Z" fill="#EAEAEA"/>
<path d="M332.249 239.857C337.042 242.622 337.042 247.139 332.341 249.904C327.548 252.669 319.805 252.669 315.013 249.904C310.22 247.139 310.22 242.622 314.92 239.857C319.713 237.092 327.456 237.092 332.249 239.857Z" fill="#F4F4F4"/>
<path d="M322.938 175.152L328.468 184.738L323.03 187.872L317.5 178.286C318.514 178.01 319.528 177.641 320.45 177.18C321.371 176.535 322.201 175.89 322.938 175.152Z" fill="#474A52"/>
<path d="M322.938 175.15L329.39 171.371L334.92 180.957L328.468 184.736L322.938 175.15Z" fill="#383B42"/>
<path d="M330.125 183.814L336.577 180.035L363.215 226.121L356.67 229.9L330.125 183.814Z" fill="#0089CE"/>
<path d="M330.124 183.814L356.669 229.9L348.005 234.878L321.367 188.792L323.026 187.87L328.464 184.736L330.124 183.814Z" fill="#1C9AE9"/>
<path d="M320.539 140.864C316.207 133.306 310.492 127.499 304.778 124.273C299.063 120.955 293.348 120.217 289.016 122.706C280.26 127.683 280.26 143.905 288.924 158.929C293.256 166.487 298.971 172.294 304.686 175.52C309.202 178.101 313.718 179.115 317.497 178.285C318.511 178.009 319.525 177.64 320.447 177.179C321.369 176.626 322.198 175.981 322.936 175.244C329.019 168.7 328.282 154.229 320.539 140.864ZM316.852 171.004C313.442 172.939 309.018 172.294 304.593 169.806C300.169 167.225 295.745 162.708 292.335 156.902C288.924 151.095 287.265 145.011 287.265 139.85C287.265 134.78 289.016 130.633 292.427 128.697C295.837 126.761 300.261 127.407 304.686 129.895C309.11 132.476 313.534 136.992 316.944 142.799C320.355 148.606 322.014 154.689 322.014 159.851C322.014 164.92 320.263 169.068 316.852 171.004Z" fill="#1C9AE9"/>
<path d="M304.686 129.895C309.11 132.476 313.535 136.992 316.945 142.799C320.355 148.606 322.014 154.689 322.014 159.851C322.014 164.92 320.263 169.068 316.853 171.004C313.442 172.939 309.018 172.294 304.594 169.805C300.17 167.225 295.745 162.708 292.335 156.901C288.925 151.095 287.266 145.011 287.266 139.85C287.266 134.78 289.017 130.632 292.427 128.697C295.838 126.761 300.262 127.314 304.686 129.895Z" fill="#C0EEFF"/>
<path d="M326.99 137.084C322.658 129.526 316.944 123.719 311.229 120.493C305.514 117.175 299.8 116.438 295.468 118.926L289.016 122.706C293.348 120.217 299.062 121.046 304.777 124.272C310.492 127.591 316.206 133.397 320.538 140.863C328.281 154.32 329.11 168.699 322.935 175.151C322.197 175.889 321.46 176.534 320.538 177.087L326.99 173.308C327.912 172.755 328.65 172.11 329.387 171.372C335.562 164.92 334.733 150.449 326.99 137.084Z" fill="#0089CE"/>
<path d="M176.197 333.871C176.657 333.595 177.118 333.595 177.487 333.779L183.109 337.097C182.833 336.913 182.372 336.913 181.819 337.189C180.805 337.742 180.068 339.125 180.068 340.231C180.068 340.784 180.252 341.153 180.621 341.337L174.998 338.019C174.722 337.834 174.445 337.466 174.445 336.913C174.445 335.714 175.275 334.424 176.197 333.871Z" fill="white"/>
<path d="M180.716 332.489C182.099 331.659 183.481 331.567 184.403 332.12L214.543 349.817C213.622 349.264 212.331 349.356 210.857 350.186C207.999 351.845 205.695 355.808 205.695 359.034C205.695 360.693 206.248 361.799 207.17 362.352L177.029 344.655C176.108 344.102 175.555 342.996 175.555 341.337C175.647 338.111 177.951 334.148 180.716 332.489Z" fill="white"/>
<path d="M181.082 333.044C181.819 332.675 182.465 332.398 183.018 332.398C183.386 332.398 183.755 332.491 184.032 332.675L206.798 346.132C206.706 346.224 206.614 346.224 206.521 346.316C203.111 348.344 200.254 353.137 200.346 357.101C200.346 357.285 200.346 357.469 200.346 357.561L177.487 344.012C176.75 343.551 176.289 342.63 176.289 341.339C176.289 338.297 178.409 334.611 181.082 333.044Z" fill="#F64A3B"/>
<path d="M210.849 350.186C207.992 351.845 205.688 355.808 205.688 359.034C205.688 362.26 207.992 363.643 210.849 361.984C213.706 360.325 216.011 356.361 216.011 353.135C216.011 349.909 213.706 348.527 210.849 350.186Z" fill="white"/>
<path d="M164.122 328.434C164.214 328.434 164.214 328.434 164.214 328.434L177.487 336.176H177.395C177.302 336.268 177.21 336.36 177.21 336.453C177.21 336.545 177.21 336.545 177.302 336.545L164.03 328.802L163.938 328.71C163.938 328.618 164.03 328.434 164.122 328.434Z" fill="white"/>
<path d="M206.056 350.094C206.793 349.633 207.438 349.633 207.899 349.909L216.379 354.887C215.918 354.61 215.273 354.61 214.536 355.071C213.061 355.901 211.863 357.928 211.863 359.68C211.863 360.509 212.139 361.062 212.6 361.339L204.12 356.361C203.659 356.085 203.383 355.532 203.383 354.702C203.383 353.043 204.581 351.015 206.056 350.094Z" fill="#1C9AE9"/>
<path d="M214.447 350.003C216.475 348.805 218.318 348.713 219.609 349.542L220.715 350.187C219.424 349.45 217.581 349.542 215.553 350.648C211.59 352.953 208.364 358.575 208.364 363.184C208.364 365.488 209.193 367.055 210.484 367.792L209.378 367.147C208.087 366.41 207.258 364.751 207.258 362.538C207.258 357.838 210.484 352.307 214.447 350.003Z" fill="#1C9AE9"/>
<path d="M215.557 350.648C211.593 352.952 208.367 358.575 208.367 363.183C208.367 367.792 211.593 369.635 215.649 367.331C219.612 365.027 222.838 359.404 222.838 354.795C222.746 350.187 219.52 348.251 215.557 350.648Z" fill="white"/>
<path d="M216.751 357.008C217.488 356.547 218.134 356.547 218.595 356.823L227.074 361.801C226.614 361.524 225.968 361.524 225.231 361.985C223.756 362.815 222.558 364.842 222.558 366.594C222.558 367.423 222.834 367.976 223.295 368.253L214.816 363.276C214.355 362.999 214.078 362.446 214.078 361.616C214.078 359.957 215.276 357.93 216.751 357.008Z" fill="#1C9AE9"/>
<path d="M223.576 357.93C225.05 357.101 226.341 357.008 227.263 357.561L228 358.022C227.078 357.469 225.788 357.561 224.313 358.391C221.456 360.05 219.151 364.014 219.151 367.332C219.151 368.991 219.704 370.097 220.626 370.65L219.889 370.189C218.967 369.636 218.414 368.53 218.414 366.871C218.414 363.553 220.718 359.589 223.576 357.93Z" fill="#1C9AE9"/>
<path d="M224.404 358.39C221.546 360.049 219.242 364.012 219.242 367.331C219.242 370.649 221.546 371.939 224.404 370.28C227.261 368.621 229.565 364.658 229.565 361.339C229.565 358.021 227.261 356.731 224.404 358.39Z" fill="white"/>
<path d="M55.6344 174.6L0.515625 206.491L24.1116 220.225L79.2304 188.333L55.6344 174.6ZM25.0333 211.007C22.6369 212.39 18.7657 212.39 16.3692 211.007C13.9727 209.625 13.9727 207.413 16.3692 206.03C18.7657 204.648 22.6369 204.648 25.0333 206.03C27.4298 207.413 27.4298 209.625 25.0333 211.007ZM37.8452 203.634C35.4488 205.016 31.5775 205.016 29.1811 203.634C26.7846 202.251 26.7846 200.039 29.1811 198.656C31.5775 197.274 35.4488 197.274 37.8452 198.656C40.2417 200.039 40.2417 202.251 37.8452 203.634ZM50.5649 196.26C48.1685 197.643 44.2973 197.643 41.9008 196.26C39.5043 194.877 39.5043 192.665 41.9008 191.283C44.2973 189.9 48.1685 189.9 50.5649 191.283C52.9614 192.665 52.9614 194.877 50.5649 196.26ZM63.3768 188.886C60.9804 190.269 57.1091 190.269 54.7127 188.886C52.3162 187.504 52.3162 185.292 54.7127 183.909C57.1091 182.526 60.9804 182.526 63.3768 183.909C65.7733 185.292 65.7733 187.504 63.3768 188.886Z" fill="#E5E5E5"/>
<path d="M56.0092 165.659C57.6683 166.673 60.4334 166.673 62.1847 165.659C63.0142 165.199 63.4751 164.553 63.4751 163.908L63.6594 217.46C63.6594 218.105 63.1986 218.75 62.369 219.211C60.7099 220.225 57.9448 220.225 56.1935 219.211C55.364 218.75 54.9031 218.105 54.9031 217.46L54.7188 163.908C54.7188 164.461 55.1796 165.106 56.0092 165.659Z" fill="#ACE9F4"/>
<path d="M56.0057 162.063C54.3466 163.077 54.2544 164.644 56.0057 165.658C57.6648 166.672 60.4299 166.672 62.1812 165.658C63.8403 164.644 63.9325 163.077 62.1812 162.063C60.4299 161.049 57.7569 161.049 56.0057 162.063Z" fill="#ACE9F4"/>
<path d="M55.4513 165.567C57.4791 166.765 60.7051 166.765 62.6407 165.567C63.6546 165.014 64.1155 164.185 64.1155 163.447V164.092C64.1155 164.83 63.6546 165.659 62.6407 166.212C60.6129 167.411 57.3869 167.411 55.4513 166.212C54.4374 165.659 53.9766 164.922 53.9766 164.092V163.447C53.9766 164.277 54.4374 165.014 55.4513 165.567Z" fill="#89DCE5"/>
<path d="M55.4583 161.418C53.4306 162.616 53.4306 164.46 55.4583 165.566C57.4861 166.764 60.7121 166.764 62.6477 165.566C64.6755 164.368 64.6755 162.524 62.6477 161.418C60.7121 160.22 57.4861 160.22 55.4583 161.418Z" fill="#ACE9F4"/>
<path d="M59.0508 165.75C60.2491 165.75 61.4473 165.474 62.2768 165.013C63.0142 164.552 63.4751 163.999 63.4751 163.538C63.4751 162.985 63.1064 162.432 62.369 162.064C61.5395 161.603 60.3412 161.326 59.143 161.326C57.9448 161.326 56.7465 161.603 55.917 162.064C55.1796 162.524 54.7188 163.077 54.7188 163.538C54.7188 164.091 55.0874 164.644 55.8248 165.013C56.6544 165.474 57.8526 165.75 59.0508 165.75Z" fill="#9CE9F2"/>
<path d="M59.0462 180.958C60.0601 180.958 61.074 180.682 61.8114 180.313C62.3644 179.944 62.7331 179.576 62.7331 179.115C62.7331 178.746 62.3644 178.285 61.8114 177.917C61.074 177.548 60.0601 177.271 59.0462 177.271C58.0324 177.271 57.0185 177.548 56.2811 177.917C55.7281 178.285 55.3594 178.654 55.3594 179.115C55.3594 179.484 55.7281 179.944 56.2811 180.313C57.0185 180.774 58.0324 180.958 59.0462 180.958Z" fill="#E54331"/>
<path d="M56.3748 180.313C57.1122 180.682 58.0339 180.959 59.14 180.959C60.1539 180.959 61.1678 180.682 61.9052 180.313C62.4582 179.945 62.8269 179.576 62.8269 179.115L62.919 217.367C62.919 217.735 62.5504 218.196 61.9973 218.565C61.2599 218.933 60.2461 219.21 59.2322 219.21C58.2183 219.21 57.2044 218.933 56.467 218.565C55.914 218.196 55.5453 217.827 55.5453 217.367L55.4531 179.392C55.5453 179.76 55.914 180.037 56.3748 180.313Z" fill="#E54331"/>
<path d="M43.1904 172.941C44.8495 173.955 47.6147 173.955 49.3659 172.941C50.1955 172.48 50.6563 171.835 50.6563 171.189L50.8407 224.741C50.8407 225.387 50.3798 226.032 49.5503 226.493C47.8912 227.506 45.126 227.506 43.3748 226.493C42.5452 226.032 42.0844 225.387 42.0844 224.741L41.9922 171.189C41.9922 171.835 42.3609 172.48 43.1904 172.941Z" fill="#ACE9F4"/>
<path d="M43.2869 169.438C41.6278 170.452 41.5357 172.019 43.2869 173.033C44.946 174.047 47.7112 174.047 49.4624 173.033C51.1215 172.019 51.2137 170.452 49.4624 169.438C47.7112 168.424 44.946 168.424 43.2869 169.438Z" fill="#ACE9F4"/>
<path d="M42.6388 172.94C44.6666 174.139 47.8926 174.139 49.8282 172.94C50.8421 172.387 51.303 171.558 51.303 170.82V171.466C51.303 172.203 50.8421 173.032 49.8282 173.585C47.8004 174.784 44.5744 174.784 42.6388 173.585C41.6249 173.032 41.1641 172.295 41.1641 171.466V170.82C41.1641 171.558 41.7171 172.387 42.6388 172.94Z" fill="#89DCE5"/>
<path d="M42.724 168.703C40.6962 169.901 40.6962 171.744 42.724 172.85C44.7517 174.049 47.9778 174.049 49.9134 172.85C51.9411 171.652 51.9411 169.809 49.9134 168.703C47.8856 167.597 44.6596 167.597 42.724 168.703Z" fill="#ACE9F4"/>
<path d="M46.3165 173.127C47.5147 173.127 48.7129 172.851 49.5425 172.39C50.2798 171.929 50.7407 171.376 50.7407 170.915C50.7407 170.362 50.372 169.809 49.6346 169.441C48.8051 168.98 47.6069 168.703 46.4086 168.703C45.2104 168.703 44.0122 168.98 43.1826 169.441C42.4452 169.901 41.9844 170.454 41.9844 170.915C41.9844 171.468 42.3531 172.021 43.0904 172.39C43.92 172.851 45.026 173.127 46.3165 173.127Z" fill="#9CE9F2"/>
<path d="M46.3275 188.333C47.3414 188.333 48.3553 188.057 49.0927 187.688C49.6457 187.319 50.0144 186.951 50.0144 186.49C50.0144 186.121 49.6457 185.66 49.0927 185.292C48.3553 184.923 47.3414 184.646 46.3275 184.646C45.3136 184.646 44.2997 184.923 43.5623 185.292C43.0093 185.66 42.6406 186.029 42.6406 186.49C42.6406 186.859 43.0093 187.319 43.5623 187.688C44.2997 188.057 45.3136 188.333 46.3275 188.333Z" fill="#E54331"/>
<path d="M43.5623 187.688C44.2997 188.057 45.2214 188.334 46.3275 188.334C47.3414 188.334 48.3553 188.057 49.0927 187.688C49.6457 187.32 50.0144 186.951 50.0144 186.49L50.1065 224.742C50.1065 225.11 49.7379 225.571 49.1848 225.94C48.4474 226.308 47.4336 226.585 46.4197 226.585C45.4058 226.585 44.3919 226.308 43.6545 225.94C43.1015 225.571 42.7328 225.202 42.7328 224.742L42.6406 186.767C42.825 187.043 43.1015 187.412 43.5623 187.688Z" fill="#E54331"/>
<path d="M30.3842 180.497C32.0433 181.511 34.8084 181.511 36.5597 180.497C37.3892 180.036 37.8501 179.391 37.8501 178.746L38.0344 232.298C38.0344 232.943 37.5736 233.588 36.744 234.049C35.0849 235.063 32.3198 235.063 30.5685 234.049C29.739 233.588 29.2781 232.943 29.2781 232.298L29.0938 178.746C29.0938 179.391 29.5546 180.036 30.3842 180.497Z" fill="#ACE9F4"/>
<path d="M30.3885 176.904C28.7294 177.918 28.6372 179.485 30.3885 180.499C32.0476 181.513 34.8127 181.513 36.564 180.499C38.2231 179.485 38.3153 177.918 36.564 176.904C34.9049 175.982 32.1398 175.982 30.3885 176.904Z" fill="#ACE9F4"/>
<path d="M29.8341 180.497C31.8619 181.695 35.0879 181.695 37.0235 180.497C38.0374 179.944 38.4983 179.114 38.4983 178.377V179.022C38.4983 179.76 38.0374 180.589 37.0235 181.142C34.9957 182.34 31.7697 182.34 29.8341 181.142C28.8202 180.589 28.3594 179.852 28.3594 179.022V178.377C28.3594 179.114 28.9124 179.852 29.8341 180.497Z" fill="#89DCE5"/>
<path d="M29.9193 176.257C27.8915 177.456 27.8915 179.299 29.9193 180.405C31.9471 181.603 35.1731 181.603 37.1087 180.405C39.1365 179.207 39.1365 177.363 37.1087 176.257C35.0809 175.151 31.8549 175.151 29.9193 176.257Z" fill="#ACE9F4"/>
<path d="M33.418 180.59C34.6162 180.59 35.8145 180.314 36.644 179.853C37.3814 179.392 37.8423 178.839 37.8423 178.378C37.8423 177.825 37.4736 177.272 36.7362 176.903C35.9067 176.443 34.7084 176.166 33.5102 176.166C32.312 176.166 31.1137 176.443 30.2842 176.903C29.5468 177.364 29.0859 177.917 29.0859 178.378C29.0859 178.931 29.4546 179.484 30.192 179.853C31.0215 180.314 32.2198 180.59 33.418 180.59Z" fill="#9CE9F2"/>
<path d="M33.5228 195.89C34.5367 195.89 35.5506 195.613 36.288 195.245C36.841 194.876 37.2097 194.507 37.2097 194.047C37.2097 193.678 36.841 193.217 36.288 192.848C35.5506 192.48 34.5367 192.203 33.5228 192.203C32.5089 192.203 31.495 192.48 30.7577 192.848C30.2046 193.217 29.8359 193.586 29.8359 194.047C29.8359 194.415 30.2046 194.876 30.7577 195.245C31.495 195.613 32.4167 195.89 33.5228 195.89Z" fill="#E54331"/>
<path d="M30.7577 195.153C31.495 195.522 32.4167 195.799 33.5228 195.799C34.5367 195.799 35.5506 195.522 36.288 195.153C36.841 194.785 37.2097 194.416 37.2097 193.955L37.3019 232.206C37.3019 232.575 36.9332 233.036 36.3801 233.405C35.6428 233.773 34.6289 234.05 33.615 234.05C32.6011 234.05 31.5872 233.773 30.8498 233.405C30.2968 233.036 29.9281 232.667 29.9281 232.206L29.8359 194.232C30.0203 194.6 30.2968 194.969 30.7577 195.153Z" fill="#E54331"/>
<path d="M17.7513 187.409C19.4104 188.423 22.1756 188.423 23.9269 187.409C24.7564 186.949 25.2173 186.303 25.2173 185.658L25.4016 239.21C25.4016 239.855 24.9407 240.5 24.1112 240.961C22.4521 241.975 19.687 241.975 17.9357 240.961C17.1061 240.5 16.6453 239.855 16.6453 239.21L16.4609 185.658C16.4609 186.303 16.9218 186.949 17.7513 187.409Z" fill="#ACE9F4"/>
<path d="M17.7479 183.909C16.0888 184.923 15.9966 186.49 17.7479 187.504C19.407 188.517 22.1721 188.517 23.9234 187.504C25.5825 186.49 25.6746 184.923 23.9234 183.909C22.2643 182.895 19.4991 182.895 17.7479 183.909Z" fill="#ACE9F4"/>
<path d="M17.1935 187.413C19.2213 188.611 22.4473 188.611 24.3829 187.413C25.3968 186.86 25.8577 186.03 25.8577 185.293V185.938C25.8577 186.676 25.3968 187.505 24.3829 188.058C22.3551 189.256 19.1291 189.256 17.1935 188.058C16.1796 187.505 15.7188 186.768 15.7188 185.938V185.293C15.7188 186.123 16.1796 186.86 17.1935 187.413Z" fill="#89DCE5"/>
<path d="M17.2005 183.264C15.1727 184.462 15.1727 186.306 17.2005 187.412C19.2283 188.61 22.4543 188.61 24.3899 187.412C26.4177 186.213 26.4177 184.37 24.3899 183.264C22.4543 182.066 19.2283 182.066 17.2005 183.264Z" fill="#ACE9F4"/>
<path d="M20.793 187.596C21.9912 187.596 23.1895 187.32 24.019 186.859C24.7564 186.398 25.2173 185.845 25.2173 185.384C25.2173 184.831 24.8486 184.278 24.1112 183.909C23.2817 183.448 22.0834 183.172 20.8852 183.172C19.687 183.172 18.4887 183.448 17.6592 183.909C16.9218 184.37 16.4609 184.923 16.4609 185.384C16.4609 185.937 16.8296 186.49 17.567 186.859C18.3965 187.32 19.5948 187.596 20.793 187.596Z" fill="#9CE9F2"/>
<path d="M20.8822 202.804C21.8961 202.804 22.91 202.528 23.6473 202.159C24.2004 201.79 24.5691 201.421 24.5691 200.961C24.5691 200.592 24.2004 200.131 23.6473 199.762C22.91 199.394 21.8961 199.117 20.8822 199.117C19.8683 199.117 18.8544 199.394 18.117 199.762C17.564 200.131 17.1953 200.5 17.1953 200.961C17.1953 201.329 17.564 201.79 18.117 202.159C18.7622 202.62 19.7761 202.804 20.8822 202.804Z" fill="#E54331"/>
<path d="M18.117 202.159C18.8544 202.528 19.7761 202.804 20.8822 202.804C21.8961 202.804 22.91 202.528 23.6473 202.159C24.2004 201.79 24.5691 201.422 24.5691 200.961L24.6612 239.212C24.6612 239.581 24.2925 240.042 23.7395 240.41C23.0021 240.779 21.9882 241.056 20.9744 241.056C19.9605 241.056 18.9466 240.779 18.2092 240.41C17.6562 240.042 17.2875 239.673 17.2875 239.212L17.1953 201.237C17.2875 201.606 17.6562 201.883 18.117 202.159Z" fill="#E54331"/>
<path d="M79.3203 188.332V212.942L24.1094 244.833V220.223L79.3203 188.332Z" fill="#CECECE"/>
<path d="M0.515625 206.582L24.1116 220.223V244.833L0.515625 231.192V206.582Z" fill="#DBDBDB"/>
<path d="M16.1837 210.823C16.2759 210.915 16.3681 210.915 16.3681 210.915C18.7645 212.298 22.6357 212.298 25.0322 210.915C25.1244 210.823 25.2166 210.823 25.3087 210.731L27.8895 211.837L28.8113 208.426L26.1383 204.647L28.6269 203.08C28.8113 203.173 28.9956 203.357 29.1799 203.449C31.5764 204.832 35.4476 204.832 37.8441 203.449C38.2128 203.265 38.5815 202.988 38.858 202.712C39.5032 202.804 39.9641 202.896 39.9641 202.896L41.2545 199.854L38.9502 196.905L41.2545 195.522C41.4388 195.707 41.7153 195.891 42.084 196.075C44.4805 197.458 48.3517 197.458 50.7482 196.075C52.5916 194.969 53.0525 193.402 52.0386 192.112L54.8037 190.361L53.1446 188.241L53.7898 187.872C54.0663 188.149 54.435 188.425 54.8037 188.702C57.2002 190.084 61.0714 190.084 63.4679 188.702C65.4035 187.596 65.7722 185.936 64.5739 184.554L68.5373 181.881L79.4136 188.241L24.2948 220.132L12.3125 213.219L16.1837 210.823Z" fill="#E5E5E5"/>
<path d="M237.951 183.906C236.845 183.261 235.831 183.261 235.186 183.63L234.633 183.906C235.37 183.538 236.292 183.538 237.398 184.183C239.518 185.473 241.269 188.423 241.269 190.912C241.269 192.11 240.808 193.032 240.163 193.4L240.716 193.124C241.454 192.755 241.822 191.833 241.822 190.635C241.822 188.146 240.071 185.105 237.951 183.906Z" fill="#9BA3A5"/>
<path d="M237.401 184.185C239.521 185.475 241.272 188.425 241.272 190.913C241.272 193.402 239.521 194.416 237.309 193.125C235.189 191.835 233.438 188.886 233.438 186.397C233.53 183.908 235.281 182.894 237.401 184.185Z" fill="#A6AFB2"/>
<path d="M238.878 191.556L235.375 185.842L224.591 192.109C212.517 199.022 202.746 215.982 202.839 229.9C202.839 244.371 192.7 262.068 180.072 269.349C174.542 272.483 169.565 273.221 165.601 271.746C162.467 269.073 160.532 264.464 160.532 258.197L160.44 240.5C160.44 230.637 157.029 223.264 150.946 219.853L147.628 217.918C141.544 214.415 133.433 215.245 124.861 220.222L119.331 223.448C118.409 224.001 117.672 225.291 117.672 226.397C117.672 226.95 117.856 227.319 118.133 227.503L121.451 229.439C121.451 229.439 121.451 229.439 121.359 229.439C121.635 229.623 122.096 229.623 122.649 229.347L128.179 226.121C135.092 222.158 141.637 221.144 146.89 223.264C151.222 226.674 153.619 232.757 153.711 240.592L153.803 258.289C153.803 266.308 156.568 272.299 161.546 275.156L164.864 277.092C169.841 279.949 176.385 279.212 183.39 275.248C190.395 271.193 196.94 264.28 201.917 255.708C206.894 247.136 209.567 238.011 209.567 229.808C209.567 218.102 217.771 203.815 228.002 197.916L238.786 191.649C238.786 191.649 238.878 191.649 238.878 191.556Z" fill="#313747"/>
<path d="M237.123 185.935C238.413 186.673 239.519 188.516 239.519 190.083C239.519 191.558 238.413 192.203 237.123 191.466C235.833 190.728 234.727 188.885 234.727 187.318C234.819 185.843 235.833 185.198 237.123 185.935Z" fill="#313747"/>
<path d="M124.398 211.836C121.725 210.269 119.329 210.177 117.577 211.19L116.287 211.928C114.536 212.942 113.522 215.062 113.43 218.103C113.43 224.187 117.67 231.56 123.016 234.602C125.689 236.169 128.085 236.261 129.836 235.247L131.127 234.51C132.878 233.496 133.892 231.376 133.892 228.334C133.984 222.251 129.652 214.877 124.398 211.836Z" fill="#354658"/>
<path d="M119.606 209.254C115.458 206.857 111.771 206.673 109.098 208.24L107.07 209.438C109.743 207.871 113.522 208.056 117.578 210.452C125.781 215.153 132.325 226.582 132.325 235.984C132.325 240.685 130.666 243.911 127.993 245.477L130.021 244.279C132.694 242.712 134.353 239.486 134.353 234.786C134.353 225.384 127.717 213.955 119.606 209.254Z" fill="#9BA3A5"/>
<path d="M117.574 210.454C125.777 215.154 132.322 226.584 132.322 235.985C132.322 245.387 125.685 249.166 117.482 244.465C109.279 239.764 102.734 228.335 102.734 218.933C102.734 209.532 109.371 205.753 117.574 210.454Z" fill="#A6AFB2"/>
<path d="M124.119 244.557C122.367 244.557 120.432 243.912 118.404 242.806C114.717 240.686 111.307 236.999 108.634 232.483C106.053 227.966 104.578 223.173 104.578 218.933C104.578 213.587 106.975 210.361 110.846 210.361C112.597 210.361 114.533 211.007 116.56 212.113C120.247 214.233 123.658 217.919 126.331 222.436C128.911 226.952 130.386 231.745 130.386 235.985C130.386 241.331 127.99 244.557 124.119 244.557Z" fill="#E9E9E9"/>
<path d="M109.833 234.142C107.161 229.441 105.686 224.464 105.686 220.132C105.686 214.601 108.082 211.283 112.138 211.283C113.889 211.283 115.917 211.928 118.037 213.126C118.405 213.311 118.774 213.587 119.143 213.772C118.313 213.126 117.484 212.573 116.654 212.113C114.626 210.914 112.691 210.361 110.94 210.361C106.976 210.361 104.672 213.587 104.672 218.933C104.672 223.173 106.054 227.966 108.727 232.483C109.373 233.589 110.018 234.603 110.755 235.524C110.387 235.063 110.11 234.603 109.833 234.142Z" fill="#8A9193"/>
<path d="M36.5593 223.264L97.2084 258.289L97.1162 303.084L36.375 268.059L36.5593 223.264Z" fill="#C0EEFF"/>
<path d="M90.9387 286.77V293.314L42.6406 265.386V258.842L90.9387 286.77Z" fill="#C1E1E2"/>
<path d="M51.7721 238.013C51.8643 238.105 52.0486 238.197 52.1408 238.197C54.4451 239.672 55.9198 242.806 56.012 245.479C56.1042 246.677 55.7355 247.691 54.9981 248.152C54.9059 249.073 54.5373 249.903 53.7077 249.903C53.7077 250.179 53.7077 250.548 53.7077 250.825C53.9842 251.101 54.4451 251.654 55.0903 252.391C55.5512 252.945 56.1042 253.498 56.6572 254.143C56.9337 254.511 57.2102 254.788 57.5789 255.157C57.6711 255.249 57.7633 255.341 57.7633 255.433C57.8554 255.525 57.9476 255.617 58.0398 255.71C58.2241 255.894 58.3163 256.078 58.5007 256.355C58.5928 256.539 58.685 256.816 58.7772 257C58.7772 257.092 58.8693 257.277 58.8693 257.369C58.8693 257.461 58.9615 257.553 58.9615 257.737C59.0537 258.198 59.1459 258.567 59.238 259.028C59.4224 259.857 59.6067 260.595 59.6989 261.24C59.7911 261.885 59.8832 262.438 59.8832 262.807C59.8832 262.991 59.8832 263.176 59.8832 263.268C59.8832 263.36 59.8832 263.452 59.8832 263.452C59.8832 263.544 59.8832 263.544 59.7911 263.544L59.6989 263.452C59.6989 263.36 59.6989 263.083 59.6067 262.715C59.6067 262.991 59.6989 263.268 59.6989 263.544L59.0537 263.176C59.1459 263.176 59.1459 263.268 59.238 263.268C59.3302 263.268 59.3302 263.36 59.3302 263.36H59.238L44.214 254.696C44.0297 254.604 43.9375 254.511 43.9375 254.419C43.9375 254.327 43.9375 254.327 43.9375 254.327C43.9375 253.958 44.0297 252.852 44.3984 251.562C44.4905 251.193 44.5827 250.917 44.6749 250.548C44.767 250.364 44.767 250.179 44.8592 250.087C44.8592 249.995 44.9514 249.903 44.9514 249.811L45.0436 249.718C45.0436 249.718 45.0436 249.626 45.1357 249.626C45.3201 249.35 45.5966 249.073 45.8731 249.073C45.9653 249.073 46.0575 249.073 46.1496 249.073C46.2418 249.073 46.334 249.073 46.4261 249.073C46.6105 249.073 46.7027 249.073 46.887 249.073C48.7304 249.165 49.7443 249.165 50.2974 249.165C50.2974 248.889 50.2974 248.52 50.2974 248.244C49.4678 247.23 49.0991 246.032 48.9148 244.926C48.6383 244.465 48.4539 244.004 48.2696 243.543C47.5322 241.607 47.8087 239.764 48.4539 238.658C49.007 237.367 50.2974 237.183 51.7721 238.013Z" fill="#F4F4F4"/>
<path d="M59.7895 263.08C59.7895 262.988 59.7895 262.804 59.7895 262.619C59.7895 262.251 59.6973 261.698 59.6051 261.052C59.513 260.407 59.3286 259.67 59.1443 258.84C59.0521 258.472 58.9599 258.011 58.8678 257.55C58.8678 257.458 58.7756 257.366 58.7756 257.181C58.7756 257.089 58.6834 256.997 58.6834 256.813C58.5912 256.628 58.4991 256.352 58.4069 256.167C58.3147 255.983 58.1304 255.706 57.946 255.522C57.8539 255.43 57.7617 255.338 57.6695 255.246C57.5774 255.153 57.4852 255.061 57.4852 254.969C57.2087 254.6 56.9322 254.324 56.5635 253.955C56.0104 253.31 55.4574 252.665 54.9965 252.204C54.3513 251.467 53.8905 250.914 53.614 250.637C53.614 250.361 53.614 249.992 53.614 249.715C54.4435 249.623 54.8122 248.886 54.9965 247.964C55.7339 247.595 56.1026 246.581 56.0104 245.291C55.9183 242.71 54.4435 239.484 52.1392 238.009C52.047 237.917 51.8627 237.825 51.7705 237.825C50.2958 236.996 49.0054 237.18 48.3602 238.194C47.6228 239.208 47.4385 241.143 48.1758 243.079C48.3602 243.54 48.5445 244.001 48.821 244.462C48.9132 245.568 49.3741 246.674 50.2036 247.78C50.2036 248.056 50.2036 248.425 50.2036 248.701C49.7427 248.701 48.6367 248.701 46.7932 248.609C46.6089 248.609 46.5167 248.609 46.3324 248.609C46.2402 248.609 46.148 248.609 46.0559 248.609C45.9637 248.609 45.8715 248.609 45.7794 248.609C45.5028 248.701 45.2263 248.886 45.042 249.162C45.042 249.162 45.042 249.254 44.9498 249.254L44.8576 249.347C44.8576 249.439 44.7655 249.531 44.7655 249.623C44.6733 249.807 44.6733 249.992 44.5811 250.084C44.489 250.453 44.3968 250.729 44.3046 251.098C43.9359 252.388 43.8438 253.587 43.8438 253.863V253.955C43.8438 254.047 43.9359 254.14 44.1203 254.232L59.1443 262.896C59.2364 262.896 59.2364 262.988 59.2364 262.896L59.1443 262.804C59.1443 262.804 59.0521 262.712 58.9599 262.712L59.6051 263.08C59.6051 262.804 59.513 262.527 59.513 262.251C59.6051 262.619 59.6051 262.804 59.6051 262.988C59.6051 263.08 59.6051 263.08 59.6973 263.08C59.6973 263.08 59.7895 263.08 59.7895 262.988C59.7895 263.265 59.7895 263.172 59.7895 263.08Z" fill="#313747"/>
<path d="M42.6406 265.386L90.9387 293.314V286.77L42.6406 258.842V265.386Z" fill="#A2E3F4"/>
<path d="M67.7995 254.694C67.9838 254.233 68.1682 253.68 68.2603 253.127C68.2603 253.865 68.2603 254.51 68.2603 255.155L68.3525 256.998L69.2742 257.551L69.0899 252.666L67.8917 251.929L67.4308 253.219C67.2465 253.68 67.1543 254.233 67.0621 254.694C66.9699 254.049 66.8778 253.404 66.6934 252.759L66.3247 250.915L65.0343 250.178L64.7578 254.786L65.5874 255.247L65.6795 253.496C65.6795 252.943 65.7717 252.206 65.7717 251.56C65.8639 252.206 66.0482 253.035 66.1404 253.68L66.6012 255.8L67.3386 256.261L67.7995 254.694Z" fill="#313747"/>
<path d="M72.7745 258.659L71.1155 257.645V256.539L72.5902 257.368V256.539L71.1155 255.617V254.603L72.6824 255.617L72.7745 254.695L70.1937 253.221L70.1016 258.014L72.7745 259.488V258.659Z" fill="#313747"/>
<path d="M76.5589 261.147C76.9276 260.963 77.2962 260.502 77.2962 259.58C77.2962 258.751 77.0197 258.013 76.5589 257.368C76.1902 256.815 75.6371 256.354 74.8998 255.893C74.4389 255.617 73.9781 255.432 73.6094 255.248V259.949C73.8859 260.133 74.1624 260.317 74.7154 260.594C75.4528 261.147 76.1902 261.331 76.5589 261.147ZM74.5311 256.538C74.6233 256.538 74.7154 256.631 74.992 256.723C75.8215 257.184 76.2824 258.013 76.2824 259.027C76.2824 260.133 75.7293 260.41 74.8998 259.857C74.8076 259.764 74.6233 259.672 74.5311 259.672V256.538Z" fill="#313747"/>
<path d="M79.0451 258.287L78.0312 257.734V262.527L79.0451 263.08V258.287Z" fill="#313747"/>
<path d="M82.9151 264.371C82.7308 264.371 82.4542 264.279 82.0855 264.095C81.256 263.634 80.7951 262.712 80.7951 261.79C80.7951 260.684 81.3482 260.5 82.0855 260.961C82.4542 261.145 82.6386 261.422 82.9151 261.606L83.0994 260.869C82.9151 260.684 82.5464 260.316 82.0855 260.039C80.7951 259.302 79.7812 259.67 79.7812 261.237C79.7812 262.62 80.5186 264.095 81.9934 264.924C82.5464 265.201 82.9151 265.293 83.0994 265.293L82.9151 264.371Z" fill="#313747"/>
<path d="M86.3277 267.322L87.3415 267.875L86.0511 262.345L84.8529 261.607L83.5625 265.663L84.5764 266.216L84.8529 265.202L86.0511 265.847L86.3277 267.322ZM84.9451 264.557L85.2216 263.727C85.3138 263.451 85.3138 263.174 85.4059 262.898C85.4981 263.174 85.4981 263.635 85.5903 263.912L85.8668 265.11L84.9451 264.557Z" fill="#313747"/>
<path d="M88.9998 267.967V264.096L88.0781 263.543V268.336L90.6589 269.811V268.981L88.9998 267.967Z" fill="#313747"/>
<path d="M68.9059 261.883C69.2745 262.067 69.5511 262.344 69.7354 262.528L69.9198 261.791C69.7354 261.606 69.3667 261.238 68.9059 260.961C67.6155 260.224 66.6016 260.592 66.6016 262.159C66.6016 263.542 67.3389 265.017 68.8137 265.846C69.2745 266.123 69.7354 266.215 69.9198 266.215L69.7354 265.293C69.5511 265.293 69.2745 265.201 68.9059 265.017C68.0763 264.556 67.6155 263.634 67.6155 262.712C67.6155 261.606 68.1685 261.422 68.9059 261.883Z" fill="#313747"/>
<path d="M71.578 265.295L73.1449 266.216V265.295L71.578 264.465V263.451L73.2371 264.373V263.543L70.6562 261.977V266.77L73.2371 268.336L73.3292 267.415L71.578 266.493V265.295Z" fill="#313747"/>
<path d="M76.6527 266.861C76.6527 267.599 76.6527 268.244 76.7449 268.889C76.5605 268.244 76.284 267.506 76.0997 266.861L75.2701 264.649L74.1641 264.004V268.797L74.9936 269.258V267.783C74.9936 267.046 74.9936 266.308 74.9936 265.663C75.178 266.308 75.4545 267.138 75.731 267.783L76.6527 270.179L77.6666 270.732V265.94L76.837 265.479L76.6527 266.861Z" fill="#313747"/>
<path d="M78.2188 267.322L79.3248 267.967V271.839L80.2465 272.392V268.52L81.4448 269.166V268.244L78.2188 266.4V267.322Z" fill="#313747"/>
<path d="M83.0077 271.93L84.4824 272.759V271.93L83.0077 271.008V270.086L84.6668 271.008V270.086L82.0859 268.611V273.404L84.6668 274.971V274.049L83.0077 273.036V271.93Z" fill="#313747"/>
<path d="M87.7105 274.418C88.0792 274.418 88.4479 274.233 88.4479 273.68C88.4479 273.22 88.3558 272.851 88.0792 272.482C87.8027 272.021 87.3419 271.653 86.6967 271.284C86.2358 271.007 85.7749 270.731 85.4062 270.639V275.339L86.328 275.892V274.049L86.6045 274.233C86.9732 274.418 87.1575 274.694 87.2497 275.432C87.3419 276.077 87.434 276.538 87.5262 276.722L88.4479 277.275C88.3558 276.999 88.2636 276.353 88.0792 275.708C88.1714 275.155 88.0792 274.786 87.7105 274.418ZM86.7888 273.496L86.4201 273.312V272.021C86.5123 272.021 86.6045 272.113 86.881 272.206C87.3419 272.482 87.5262 272.851 87.5262 273.312C87.5262 273.68 87.2497 273.773 86.7888 273.496Z" fill="#313747"/>
<path d="M137.855 291.656C132.878 288.799 128.269 288.523 125.043 290.366L121.172 292.67C124.49 290.735 129.006 291.011 133.984 293.961C143.938 299.768 152.049 313.685 151.957 325.115C151.957 330.829 149.93 334.793 146.703 336.728L150.575 334.424C153.801 332.581 155.828 328.525 155.828 322.811C155.921 311.381 147.902 297.371 137.855 291.656Z" fill="#E53028"/>
<path d="M146.716 336.691C153.758 332.598 153.743 319.432 146.683 307.285C139.623 295.138 128.191 288.608 121.149 292.701C114.107 296.793 114.122 309.959 121.182 322.106C128.242 334.254 139.674 340.783 146.716 336.691Z" fill="#F94632"/>
<path d="M142.378 318.938C142.378 319.675 142.285 320.228 142.101 320.782C142.101 320.782 142.101 320.874 142.009 320.966C141.825 321.335 141.64 321.703 141.456 321.98C140.442 323.454 137.769 326.035 131.501 327.51C125.234 318.754 122.561 313.223 121.547 310.458C121.362 309.905 121.178 309.352 120.994 308.799C120.902 308.615 120.902 308.523 120.902 308.523C120.717 307.785 120.625 307.048 120.625 306.311C120.625 302.531 123.298 300.965 126.616 302.9C128.644 304.098 130.395 306.218 131.501 308.615C132.607 307.509 134.359 307.417 136.386 308.523C139.705 310.55 142.378 315.159 142.378 318.938Z" fill="#E9E9E9"/>
<path d="M139.521 306.771C137.861 305.85 136.387 305.757 135.281 306.403L134.635 306.771C133.529 304.467 131.778 302.347 129.842 301.149C128.183 300.227 126.709 300.135 125.603 300.688L122.469 302.531C123.575 301.886 125.05 301.978 126.709 302.992C128.736 304.19 130.488 306.31 131.594 308.707L132.976 307.877C133.99 307.601 135.188 307.785 136.479 308.615C139.797 310.55 142.47 315.159 142.47 318.938C142.47 319.675 142.378 320.228 142.194 320.781C142.194 320.781 142.194 320.874 142.101 320.966C141.917 321.334 141.733 321.703 141.548 321.98C140.995 322.809 139.889 324.007 137.954 325.113L141.087 323.27C143.023 322.164 144.037 320.966 144.682 320.136C144.866 319.86 145.051 319.491 145.235 319.122C145.327 318.938 145.327 318.938 145.327 318.938C145.512 318.385 145.604 317.74 145.604 317.095C145.512 313.315 142.839 308.707 139.521 306.771Z" fill="#D8D8D8"/>
<path d="M303.945 322.349L285.603 311.75C284.497 311.104 282.561 311.104 281.455 311.75L238.134 336.912C237.028 337.558 237.028 338.664 238.134 339.309L256.476 349.909C257.583 350.554 259.518 350.554 260.624 349.909L303.945 324.746C305.143 324.008 305.143 322.994 303.945 322.349Z" fill="#C0EEFF"/>
<path d="M284.493 316.727V318.201C284.493 318.57 284.216 318.939 283.756 319.215C282.742 319.768 281.175 319.768 280.253 319.215C279.792 318.939 279.516 318.57 279.516 318.201V316.727C279.516 317.095 279.792 317.464 280.253 317.74C281.267 318.293 282.834 318.293 283.756 317.74C284.216 317.464 284.493 317.095 284.493 316.727Z" fill="#F94632"/>
<path d="M283.755 315.71C284.769 316.263 284.769 317.184 283.755 317.737C282.741 318.29 281.174 318.29 280.253 317.737C279.239 317.184 279.239 316.263 280.253 315.71C281.174 315.157 282.741 315.157 283.755 315.71Z" fill="#F94632"/>
<path d="M296.009 323.361V324.836C296.009 325.205 295.732 325.573 295.271 325.85C294.257 326.403 292.69 326.403 291.769 325.85C291.308 325.573 291.031 325.205 291.031 324.836V323.361C291.031 323.73 291.308 324.099 291.769 324.375C292.783 324.928 294.349 324.928 295.271 324.375C295.732 324.099 296.009 323.73 296.009 323.361Z" fill="#F94632"/>
<path d="M295.271 322.346C296.285 322.899 296.285 323.821 295.271 324.374C294.257 324.927 292.69 324.927 291.768 324.374C290.754 323.821 290.754 322.899 291.768 322.346C292.69 321.793 294.257 321.793 295.271 322.346Z" fill="#F94632"/>
<path d="M276.298 321.52V322.994C276.298 323.363 276.021 323.732 275.56 324.008C274.546 324.561 272.979 324.561 272.058 324.008C271.597 323.732 271.32 323.363 271.32 322.994V321.52C271.32 321.888 271.597 322.257 272.058 322.533C273.072 323.086 274.639 323.086 275.56 322.533C276.113 322.257 276.298 321.888 276.298 321.52Z" fill="#F94632"/>
<path d="M275.56 320.505C276.574 321.058 276.574 321.98 275.56 322.533C274.546 323.086 272.979 323.086 272.057 322.533C271.043 321.98 271.043 321.058 272.057 320.505C273.071 319.86 274.638 319.86 275.56 320.505Z" fill="#F94632"/>
<path d="M287.813 328.154V329.629C287.813 329.998 287.537 330.366 287.076 330.643C286.062 331.196 284.495 331.196 283.573 330.643C283.112 330.366 282.836 329.998 282.836 329.629V328.154C282.836 328.523 283.112 328.892 283.573 329.168C284.587 329.721 286.154 329.721 287.076 329.168C287.629 328.892 287.813 328.523 287.813 328.154Z" fill="#F94632"/>
<path d="M287.075 327.138C288.089 327.691 288.089 328.613 287.075 329.166C286.062 329.719 284.495 329.719 283.573 329.166C282.559 328.613 282.559 327.691 283.573 327.138C284.495 326.493 286.154 326.493 287.075 327.138Z" fill="#F94632"/>
<path d="M268.188 326.219V327.694C268.188 328.062 267.912 328.431 267.451 328.707C266.437 329.26 264.87 329.26 263.948 328.707C263.487 328.431 263.211 328.062 263.211 327.694V326.219C263.211 326.587 263.487 326.956 263.948 327.233C264.962 327.786 266.529 327.786 267.451 327.233C267.912 326.956 268.188 326.587 268.188 326.219Z" fill="#F94632"/>
<path d="M267.45 325.204C268.464 325.757 268.464 326.679 267.45 327.232C266.437 327.785 264.87 327.785 263.948 327.232C262.934 326.679 262.934 325.757 263.948 325.204C264.87 324.651 266.437 324.651 267.45 325.204Z" fill="#F94632"/>
<path d="M279.704 332.857V334.332C279.704 334.701 279.427 335.07 278.966 335.346C277.953 335.899 276.386 335.899 275.464 335.346C275.003 335.07 274.727 334.701 274.727 334.332V332.857C274.727 333.226 275.003 333.595 275.464 333.871C276.478 334.424 278.045 334.424 278.966 333.871C279.427 333.595 279.704 333.226 279.704 332.857Z" fill="#F94632"/>
<path d="M278.966 331.843C279.98 332.396 279.98 333.317 278.966 333.87C277.952 334.423 276.385 334.423 275.464 333.87C274.45 333.317 274.45 332.396 275.464 331.843C276.385 331.289 277.952 331.289 278.966 331.843Z" fill="#F94632"/>
<path d="M259.985 331.014V332.488C259.985 332.857 259.709 333.226 259.248 333.502C258.234 334.055 256.667 334.055 255.745 333.502C255.284 333.226 255.008 332.857 255.008 332.488V331.014C255.008 331.382 255.284 331.751 255.745 332.028C256.759 332.581 258.326 332.581 259.248 332.028C259.801 331.751 259.985 331.382 259.985 331.014Z" fill="#F94632"/>
<path d="M259.24 329.907C260.253 330.46 260.253 331.382 259.24 331.935C258.226 332.488 256.659 332.488 255.737 331.935C254.723 331.382 254.723 330.46 255.737 329.907C256.659 329.354 258.318 329.354 259.24 329.907Z" fill="#F94632"/>
<path d="M271.509 337.648V339.123C271.509 339.492 271.232 339.861 270.771 340.137C269.757 340.69 268.19 340.69 267.269 340.137C266.808 339.861 266.531 339.492 266.531 339.123V337.648C266.531 338.017 266.808 338.386 267.269 338.662C268.283 339.215 269.849 339.215 270.771 338.662C271.232 338.386 271.509 338.017 271.509 337.648Z" fill="#F94632"/>
<path d="M270.771 336.634C271.785 337.187 271.785 338.109 270.771 338.662C269.757 339.215 268.19 339.215 267.268 338.662C266.254 338.109 266.254 337.187 267.268 336.634C268.19 335.989 269.757 335.989 270.771 336.634Z" fill="#F94632"/>
<path d="M251.86 335.713V337.188C251.86 337.556 251.584 337.925 251.123 338.202C250.109 338.755 248.542 338.755 247.62 338.202C247.159 337.925 246.883 337.556 246.883 337.188V335.713C246.883 336.082 247.159 336.45 247.62 336.727C248.634 337.28 250.201 337.28 251.123 336.727C251.584 336.45 251.86 336.082 251.86 335.713Z" fill="#F94632"/>
<path d="M251.825 335.676C251.828 334.862 250.715 334.198 249.341 334.194C247.966 334.19 246.85 334.847 246.848 335.662C246.846 336.476 247.958 337.14 249.332 337.144C250.707 337.148 251.823 336.491 251.825 335.676Z" fill="#F94632"/>
<path d="M263.298 342.352V343.826C263.298 344.195 263.021 344.564 262.56 344.84C261.546 345.393 259.979 345.393 259.058 344.84C258.597 344.564 258.32 344.195 258.32 343.826V342.352C258.32 342.72 258.597 343.089 259.058 343.365C260.072 343.918 261.638 343.918 262.56 343.365C263.113 343.089 263.298 342.72 263.298 342.352Z" fill="#F94632"/>
<path d="M262.552 341.337C263.566 341.89 263.566 342.811 262.552 343.364C261.538 343.917 259.971 343.917 259.049 343.364C258.036 342.811 258.036 341.89 259.049 341.337C260.063 340.784 261.63 340.784 262.552 341.337Z" fill="#F94632"/>
</svg>
