<svg width="528" height="509" viewBox="0 0 528 509" fill="none" xmlns="http://www.w3.org/2000/svg">
<path d="M514.939 339H276.504C274.455 338.997 272.49 338.235 271.041 336.881C269.592 335.527 268.777 333.691 268.773 331.776V7.22378C268.777 5.30892 269.592 3.47341 271.041 2.1194C272.49 0.765381 274.455 0.00325935 276.504 0L514.939 0C516.988 0.00325935 518.952 0.765381 520.401 2.1194C521.85 3.47341 522.666 5.30892 522.669 7.22378V331.776C522.666 333.691 521.85 335.527 520.401 336.881C518.952 338.235 516.988 338.997 514.939 339ZM276.504 0.308182C274.542 0.311441 272.662 1.04109 271.275 2.33731C269.888 3.63353 269.107 5.39065 269.103 7.22378V331.776C269.107 333.609 269.888 335.366 271.275 336.663C272.662 337.959 274.542 338.689 276.504 338.692H514.939C516.902 338.692 518.784 337.963 520.172 336.666C521.56 335.369 522.34 333.61 522.34 331.776V7.22378C522.34 5.38965 521.56 3.63064 520.172 2.33371C518.784 1.03679 516.902 0.308182 514.939 0.308182H276.504Z" fill="#E0E0E0"/>
<path d="M242.359 339.185H21.2665C19.3642 339.185 17.5396 338.424 16.1934 337.068C14.8471 335.713 14.0892 333.875 14.0859 331.957V7.22772C14.0892 5.30967 14.8471 3.47131 16.1934 2.1162C17.5396 0.761093 19.3642 -2.78325e-06 21.2665 0L242.359 0C244.26 0 246.083 0.76149 247.428 2.11695C248.772 3.47241 249.527 5.31081 249.527 7.22772V331.957C249.527 333.874 248.772 335.712 247.428 337.068C246.083 338.423 244.26 339.185 242.359 339.185ZM21.2665 0.30835C19.4453 0.308347 17.6985 1.03696 16.4096 2.33424C15.1207 3.63152 14.395 5.39145 14.3918 7.22772V331.957C14.395 333.793 15.1207 335.553 16.4096 336.85C17.6985 338.148 19.4453 338.876 21.2665 338.876H242.359C243.26 338.876 244.152 338.697 244.985 338.35C245.818 338.002 246.574 337.492 247.211 336.85C247.849 336.207 248.354 335.444 248.699 334.605C249.044 333.765 249.221 332.866 249.221 331.957V7.22772C249.221 6.31905 249.044 5.41929 248.699 4.57979C248.354 3.74029 247.849 2.97751 247.211 2.33499C246.574 1.69246 245.818 1.18279 244.985 0.835055C244.152 0.487324 243.26 0.30835 242.359 0.30835H21.2665Z" fill="#E0E0E0"/>
<path d="M37.1378 432.097H17.4922V432.405H37.1378V432.097Z" fill="#E0E0E0"/>
<path d="M228.153 428.754H162.672V429.062H228.153V428.754Z" fill="#E0E0E0"/>
<path d="M82.7104 443.555H38.3672V443.863H82.7104V443.555Z" fill="#E0E0E0"/>
<path d="M469.942 428.594H417.109V428.902H469.942V428.594Z" fill="#E0E0E0"/>
<path d="M488.587 428.594H480.844V428.902H488.587V428.594Z" fill="#E0E0E0"/>
<path d="M407.015 436.278H341.094V436.586H407.015V436.278Z" fill="#E0E0E0"/>
<path d="M186.031 370.501C185.279 366.873 183.856 363.421 181.835 360.325L185.505 355.922L177.786 348.127L173.419 351.827C170.345 349.787 166.917 348.347 163.315 347.584L162.789 341.911H151.853L151.327 347.584C147.728 348.344 144.304 349.784 141.235 351.827L136.868 348.127L129.137 355.922L132.807 360.325C130.787 363.421 129.363 366.873 128.611 370.501L122.984 371.043V382.058L128.611 382.588C129.365 386.219 130.788 389.675 132.807 392.776L129.137 397.179L136.868 404.974L141.235 401.274C144.305 403.313 147.729 404.749 151.327 405.505L151.853 411.178H162.789L163.315 405.505C166.917 404.745 170.344 403.31 173.419 401.274L177.786 404.974L185.493 397.154L181.823 392.751C183.843 389.65 185.266 386.194 186.019 382.563L191.646 382.033V371.019L186.031 370.501ZM172.037 376.544C172.04 379.497 171.174 382.383 169.549 384.839C167.924 387.295 165.613 389.21 162.908 390.341C160.204 391.473 157.228 391.77 154.356 391.196C151.484 390.621 148.845 389.201 146.774 387.114C144.703 385.027 143.292 382.368 142.72 379.473C142.147 376.577 142.44 373.576 143.56 370.848C144.68 368.121 146.577 365.789 149.011 364.149C151.446 362.508 154.308 361.633 157.236 361.633C161.159 361.633 164.922 363.203 167.698 365.999C170.473 368.796 172.034 372.588 172.037 376.544Z" fill="#E0E0E0"/>
<path d="M102.642 246.322C102.123 243.81 101.135 241.419 99.7306 239.279L102.177 236.233L96.8192 230.831L93.7978 233.297C91.6753 231.881 89.3048 230.885 86.813 230.362L86.446 226.44H78.874L78.507 230.362C76.012 230.887 73.638 231.883 71.51 233.297L68.4885 230.831L63.1673 236.233L65.6138 239.279C64.2181 241.423 63.2346 243.812 62.7147 246.322L58.8125 246.692V254.327L62.7147 254.697C63.2346 257.207 64.2181 259.596 65.6138 261.74L63.1673 264.798L68.513 270.188L71.5711 267.648C73.6991 269.062 76.0732 270.058 78.5682 270.583L78.9351 274.518H86.5071L86.8741 270.583C89.366 270.06 91.7364 269.064 93.8589 267.648L96.8804 270.176L102.238 264.786L99.7918 261.727C101.197 259.587 102.185 257.197 102.703 254.685L106.593 254.315V246.68L102.642 246.322ZM92.966 250.516C92.966 252.56 92.3647 254.558 91.2384 256.258C90.112 257.958 88.511 259.282 86.6379 260.065C84.7648 260.847 82.7037 261.052 80.7152 260.653C78.7267 260.254 76.9001 259.27 75.4665 257.824C74.0329 256.379 73.0566 254.537 72.6611 252.532C72.2655 250.527 72.4685 248.449 73.2444 246.56C74.0203 244.672 75.3342 243.057 77.0199 241.922C78.7057 240.786 80.6876 240.18 82.715 240.18C85.4337 240.18 88.0411 241.269 89.9635 243.207C91.886 245.145 92.966 247.774 92.966 250.516Z" fill="#E0E0E0"/>
<path d="M300.59 45.8578C299.703 41.4859 298.005 37.3222 295.587 33.5855L299.941 28.2695L290.62 18.871L285.36 23.2619C281.636 20.8052 277.486 19.0772 273.127 18.168L272.491 11.3226H259.292L258.656 18.168C254.297 19.0738 250.146 20.8021 246.424 23.2619L241.164 18.871L231.842 28.2695L236.197 33.5855C233.75 37.3363 232.031 41.5218 231.133 45.9194L224.344 46.5731V59.7952L231.133 60.4489C232.031 64.8465 233.75 69.032 236.197 72.7829L231.842 78.0988L241.164 87.4973L246.424 83.0941C250.143 85.5627 254.295 87.2956 258.656 88.2004L259.292 95.0457H272.479L273.115 88.2004C277.476 87.291 281.626 85.5585 285.348 83.0941L290.608 87.4973L299.929 78.0988L295.587 72.7705C298.034 69.0197 299.753 64.8342 300.651 60.4365L307.44 59.7828V46.5115L300.59 45.8578ZM283.733 53.1472C283.733 56.7063 282.686 60.1855 280.725 63.1448C278.764 66.1041 275.977 68.4106 272.716 69.7726C269.454 71.1347 265.866 71.491 262.404 70.7967C258.942 70.1023 255.762 68.3884 253.266 65.8717C250.77 63.3551 249.07 60.1486 248.381 56.6579C247.693 53.1671 248.046 49.5489 249.397 46.2607C250.748 42.9725 253.035 40.162 255.97 38.1846C258.905 36.2073 262.356 35.1519 265.886 35.1519C270.619 35.1519 275.159 37.0478 278.506 40.4226C281.853 43.7973 283.733 48.3745 283.733 53.1472Z" fill="#F0F0F0"/>
<path d="M341.338 16.6755C340.907 14.6897 340.119 12.8002 339.014 11.1005L341.008 8.63374L336.726 4.31685L334.28 6.33962C332.581 5.20768 330.683 4.41236 328.689 3.99616L328.42 0.813995H322.304L322.01 3.95916C320.016 4.37536 318.119 5.17068 316.42 6.30262L313.974 4.27985L309.778 8.63374L311.772 11.1005C310.654 12.8162 309.866 14.7282 309.447 16.7372L306.328 17.0332V23.2002L309.447 23.4962C309.866 25.5051 310.654 27.4171 311.772 29.1328L309.778 31.5996L314.059 35.9165L316.506 33.8937C318.205 35.0257 320.102 35.821 322.096 36.2372L322.39 39.3824H328.506L328.799 36.2372C330.794 35.821 332.691 35.0257 334.39 33.8937L336.836 35.9165L341.118 31.5996L339.124 29.1328C340.236 27.4144 341.024 25.5034 341.448 23.4962L344.567 23.2002V17.0332L341.338 16.6755ZM333.595 20.0303C333.597 21.6677 333.118 23.269 332.217 24.6317C331.317 25.9943 330.036 27.057 328.536 27.6853C327.036 28.3136 325.386 28.4792 323.793 28.1613C322.2 27.8433 320.736 27.0561 319.587 25.8991C318.438 24.7422 317.655 23.2676 317.337 21.6618C317.019 20.0561 317.181 18.3914 317.802 16.8784C318.423 15.3654 319.475 14.0722 320.825 13.1622C322.175 12.2523 323.763 11.7666 325.387 11.7666C326.464 11.765 327.531 11.9775 328.527 12.3921C329.522 12.8066 330.427 13.4151 331.19 14.1826C331.952 14.9501 332.557 15.8617 332.97 16.8651C333.382 17.8685 333.595 18.9441 333.595 20.0303Z" fill="#F0F0F0"/>
<path d="M417.43 103.347V75.6937H434.237V102.828C434.237 110.513 437.161 113.386 441.858 113.386C446.556 113.386 449.479 110.513 449.479 102.828V75.6937H466.005V103.347C466.005 118.431 457.039 127.126 441.724 127.126C426.408 127.126 417.43 118.406 417.43 103.347Z" fill="#F0F0F0"/>
<path d="M473.711 75.6937H490.519V125.979H473.711V75.6937Z" fill="#F0F0F0"/>
<path d="M27.0625 50.2486V11.7666H50.4635V49.5579C50.4635 60.2515 54.5247 64.2477 61.0692 64.2477C67.6136 64.2477 71.7238 60.2515 71.7238 49.5579V11.7666H94.7211V50.2486C94.7211 71.2164 82.2316 83.3407 60.9101 83.3407C39.5887 83.3407 27.0625 71.2411 27.0625 50.2486Z" fill="#F0F0F0"/>
<path d="M148.33 81.7496L136.342 63.0513L124.636 81.7496H97.9688L123.107 46.4498L98.8617 11.7666H125.137L136.93 29.3549L148.441 11.7666H173.615L149.529 45.5494L175.108 81.7496H148.33Z" fill="#F0F0F0"/>
<path d="M424.528 162.266C423.221 155.998 420.761 150.032 417.274 144.678L423.525 137.08L410.167 123.624L402.632 129.914C397.326 126.393 391.407 123.915 385.188 122.612L384.283 112.745H365.395L364.49 122.612C358.271 123.915 352.353 126.393 347.047 129.914L339.511 123.624L326.165 137.08L332.404 144.678C328.918 150.032 326.457 155.998 325.15 162.266L315.438 163.191V182.222L325.15 183.147C326.455 189.413 328.915 195.375 332.404 200.723L326.165 208.321L339.511 221.79L347.047 215.487C352.349 219.017 358.269 221.499 364.49 222.801L365.395 232.594H384.283L385.188 222.801C391.409 221.499 397.329 219.017 402.632 215.487L410.167 221.79L423.525 208.321L417.274 200.723C420.763 195.375 423.223 189.413 424.528 183.147L434.241 182.222V163.191L424.528 162.266ZM400.393 172.676C400.393 177.772 398.894 182.753 396.086 186.991C393.278 191.228 389.288 194.53 384.618 196.48C379.949 198.43 374.811 198.941 369.854 197.946C364.897 196.952 360.343 194.498 356.77 190.895C353.196 187.292 350.762 182.701 349.776 177.702C348.79 172.704 349.296 167.524 351.23 162.816C353.164 158.108 356.44 154.084 360.642 151.252C364.844 148.421 369.785 146.91 374.839 146.91C381.616 146.91 388.116 149.625 392.908 154.457C397.701 159.289 400.393 165.842 400.393 172.676Z" fill="#263238"/>
<path opacity="0.7" d="M424.528 162.266C423.221 155.998 420.761 150.032 417.274 144.678L423.525 137.08L410.167 123.624L402.632 129.914C397.326 126.393 391.407 123.915 385.188 122.612L384.283 112.745H365.395L364.49 122.612C358.271 123.915 352.353 126.393 347.047 129.914L339.511 123.624L326.165 137.08L332.404 144.678C328.918 150.032 326.457 155.998 325.15 162.266L315.438 163.191V182.222L325.15 183.147C326.455 189.413 328.915 195.375 332.404 200.723L326.165 208.321L339.511 221.79L347.047 215.487C352.349 219.017 358.269 221.499 364.49 222.801L365.395 232.594H384.283L385.188 222.801C391.409 221.499 397.329 219.017 402.632 215.487L410.167 221.79L423.525 208.321L417.274 200.723C420.763 195.375 423.223 189.413 424.528 183.147L434.241 182.222V163.191L424.528 162.266ZM400.393 172.676C400.393 177.772 398.894 182.753 396.086 186.991C393.278 191.228 389.288 194.53 384.618 196.48C379.949 198.43 374.811 198.941 369.854 197.946C364.897 196.952 360.343 194.498 356.77 190.895C353.196 187.292 350.762 182.701 349.776 177.702C348.79 172.704 349.296 167.524 351.23 162.816C353.164 158.108 356.44 154.084 360.642 151.252C364.844 148.421 369.785 146.91 374.839 146.91C381.616 146.91 388.116 149.625 392.908 154.457C397.701 159.289 400.393 165.842 400.393 172.676Z" fill="white"/>
<path d="M507.721 182.753C507.074 179.675 505.862 176.747 504.149 174.119L507.231 170.419L500.65 163.795L496.98 166.891C494.376 165.159 491.471 163.937 488.417 163.29L487.965 158.467H478.668L478.215 163.29C475.162 163.937 472.257 165.159 469.653 166.891L465.983 163.795L459.402 170.419L462.484 174.119C460.77 176.747 459.559 179.675 458.912 182.753L454.117 183.209V192.595L458.912 193.052C459.559 196.129 460.77 199.057 462.484 201.685L459.402 205.386L465.983 212.009L469.653 208.913C472.257 210.645 475.162 211.867 478.215 212.515L478.668 217.337H487.965L488.417 212.515C491.471 211.867 494.376 210.645 496.98 208.913L500.65 212.009L507.231 205.386L504.149 201.685C505.862 199.057 507.074 196.129 507.721 193.052L512.516 192.595V183.209L507.721 182.753ZM495.83 187.908C495.828 190.418 495.088 192.871 493.703 194.956C492.319 197.042 490.352 198.666 488.052 199.625C485.751 200.584 483.221 200.833 480.78 200.342C478.339 199.851 476.097 198.641 474.338 196.866C472.579 195.091 471.381 192.829 470.897 190.367C470.412 187.906 470.662 185.355 471.615 183.036C472.568 180.718 474.181 178.736 476.251 177.342C478.321 175.948 480.754 175.204 483.243 175.204C484.897 175.204 486.535 175.533 488.063 176.172C489.591 176.81 490.979 177.746 492.148 178.926C493.317 180.106 494.244 181.506 494.876 183.048C495.508 184.589 495.832 186.241 495.83 187.908Z" fill="#263238"/>
<path opacity="0.8" d="M507.721 182.753C507.074 179.675 505.862 176.747 504.149 174.119L507.231 170.419L500.65 163.795L496.98 166.891C494.376 165.159 491.471 163.937 488.417 163.29L487.965 158.467H478.668L478.215 163.29C475.162 163.937 472.257 165.159 469.653 166.891L465.983 163.795L459.402 170.419L462.484 174.119C460.77 176.747 459.559 179.675 458.912 182.753L454.117 183.209V192.595L458.912 193.052C459.559 196.129 460.77 199.057 462.484 201.685L459.402 205.386L465.983 212.009L469.653 208.913C472.257 210.645 475.162 211.867 478.215 212.515L478.668 217.337H487.965L488.417 212.515C491.471 211.867 494.376 210.645 496.98 208.913L500.65 212.009L507.231 205.386L504.149 201.685C505.862 199.057 507.074 196.129 507.721 193.052L512.516 192.595V183.209L507.721 182.753ZM495.83 187.908C495.828 190.418 495.088 192.871 493.703 194.956C492.319 197.042 490.352 198.666 488.052 199.625C485.751 200.584 483.221 200.833 480.78 200.342C478.339 199.851 476.097 198.641 474.338 196.866C472.579 195.091 471.381 192.829 470.897 190.367C470.412 187.906 470.662 185.355 471.615 183.036C472.568 180.718 474.181 178.736 476.251 177.342C478.321 175.948 480.754 175.204 483.243 175.204C484.897 175.204 486.535 175.533 488.063 176.172C489.591 176.81 490.979 177.746 492.148 178.926C493.317 180.106 494.244 181.506 494.876 183.048C495.508 184.589 495.832 186.241 495.83 187.908Z" fill="white"/>
<path d="M184.168 87.0533C183.435 83.532 182.044 80.1834 180.07 77.1861L183.605 72.7705L176.058 65.1728L171.801 68.725C168.798 66.7403 165.454 65.3389 161.941 64.5931L161.428 59.0551H150.761L150.235 64.5931C146.725 65.3367 143.384 66.7383 140.387 68.725L136.118 65.1728L128.583 72.7705L132.106 77.0751C130.143 80.0782 128.753 83.4247 128.008 86.9423L122.516 87.4727V98.2279L128.008 98.7459C128.748 102.288 130.138 105.66 132.106 108.687L128.583 112.979L136.118 120.589L140.387 117.173C143.382 119.165 146.723 120.567 150.235 121.305L150.761 126.843H161.428L161.941 121.305C165.458 120.57 168.804 119.168 171.801 117.173L176.058 120.737L183.605 113.127L180.07 108.835C182.048 105.813 183.439 102.44 184.168 98.8939L189.66 98.3759V87.5713L184.168 87.0533ZM170.529 92.9613C170.529 95.8444 169.68 98.6626 168.09 101.059C166.501 103.456 164.242 105.323 161.599 106.424C158.956 107.525 156.049 107.81 153.245 107.244C150.442 106.678 147.868 105.286 145.849 103.244C143.831 101.202 142.459 98.6015 141.907 95.7727C141.355 92.9438 141.648 90.0135 142.749 87.3527C143.85 84.6919 145.709 82.4203 148.091 80.8257C150.474 79.2311 153.271 78.3851 156.131 78.3948C159.955 78.4046 163.619 79.944 166.318 82.6751C169.018 85.4061 170.532 89.1056 170.529 92.9613Z" fill="#263238"/>
<path opacity="0.8" d="M184.168 87.0533C183.435 83.532 182.044 80.1834 180.07 77.1861L183.605 72.7705L176.058 65.1728L171.801 68.725C168.798 66.7403 165.454 65.3389 161.941 64.5931L161.428 59.0551H150.761L150.235 64.5931C146.725 65.3367 143.384 66.7383 140.387 68.725L136.118 65.1728L128.583 72.7705L132.106 77.0751C130.143 80.0782 128.753 83.4247 128.008 86.9423L122.516 87.4727V98.2279L128.008 98.7459C128.748 102.288 130.138 105.66 132.106 108.687L128.583 112.979L136.118 120.589L140.387 117.173C143.382 119.165 146.723 120.567 150.235 121.305L150.761 126.843H161.428L161.941 121.305C165.458 120.57 168.804 119.168 171.801 117.173L176.058 120.737L183.605 113.127L180.07 108.835C182.048 105.813 183.439 102.44 184.168 98.8939L189.66 98.3759V87.5713L184.168 87.0533ZM170.529 92.9613C170.529 95.8444 169.68 98.6626 168.09 101.059C166.501 103.456 164.242 105.323 161.599 106.424C158.956 107.525 156.049 107.81 153.245 107.244C150.442 106.678 147.868 105.286 145.849 103.244C143.831 101.202 142.459 98.6015 141.907 95.7727C141.355 92.9438 141.648 90.0135 142.749 87.3527C143.85 84.6919 145.709 82.4203 148.091 80.8257C150.474 79.2311 153.271 78.3851 156.131 78.3948C159.955 78.4046 163.619 79.944 166.318 82.6751C169.018 85.4061 170.532 89.1056 170.529 92.9613Z" fill="white"/>
<path d="M406.184 75.077C405.726 72.877 404.858 70.7845 403.628 68.91L405.829 66.2335L401.132 61.4972L398.478 63.705C396.615 62.4733 394.541 61.6032 392.361 61.1396L392.031 57.686H385.376L385.058 61.1396C382.88 61.6068 380.806 62.4766 378.942 63.705L376.324 61.4849L371.639 66.2212L373.829 68.8976C372.597 70.7703 371.734 72.8638 371.285 75.0646L367.859 75.3853V82.0827L371.285 82.4157C371.734 84.6165 372.597 86.71 373.829 88.5827L371.578 91.2715L376.324 96.0201L378.979 93.8123C380.843 95.0407 382.917 95.9105 385.095 96.3778L385.413 99.8313H392.055L392.386 96.3778C394.565 95.9141 396.64 95.044 398.502 93.8123L401.157 96.0201L405.829 91.2715L403.628 88.595C404.858 86.7205 405.726 84.6279 406.184 82.428L409.597 82.095V75.3976L406.184 75.077ZM397.695 78.7772C397.695 80.5701 397.167 82.3229 396.179 83.8137C395.192 85.3045 393.787 86.4664 392.144 87.1526C390.502 87.8387 388.694 88.0182 386.95 87.6684C385.206 87.3187 383.604 86.4553 382.346 85.1874C381.089 83.9196 380.232 82.3043 379.886 80.5457C379.539 78.7872 379.717 76.9644 380.397 75.3079C381.078 73.6514 382.23 72.2356 383.709 71.2395C385.187 70.2434 386.926 69.7117 388.704 69.7117C391.084 69.7117 393.367 70.6634 395.053 72.3582C396.738 74.0529 397.688 76.3524 397.695 78.7525V78.7772Z" fill="#263238"/>
<path opacity="0.8" d="M406.184 75.077C405.726 72.877 404.858 70.7845 403.628 68.91L405.829 66.2335L401.132 61.4972L398.478 63.705C396.615 62.4733 394.541 61.6032 392.361 61.1396L392.031 57.686H385.376L385.058 61.1396C382.88 61.6068 380.806 62.4766 378.942 63.705L376.324 61.4849L371.639 66.2212L373.829 68.8976C372.597 70.7703 371.734 72.8638 371.285 75.0646L367.859 75.3853V82.0827L371.285 82.4157C371.734 84.6165 372.597 86.71 373.829 88.5827L371.578 91.2715L376.324 96.0201L378.979 93.8123C380.843 95.0407 382.917 95.9105 385.095 96.3778L385.413 99.8313H392.055L392.386 96.3778C394.565 95.9141 396.64 95.044 398.502 93.8123L401.157 96.0201L405.829 91.2715L403.628 88.595C404.858 86.7205 405.726 84.6279 406.184 82.428L409.597 82.095V75.3976L406.184 75.077ZM397.695 78.7772C397.695 80.5701 397.167 82.3229 396.179 83.8137C395.192 85.3045 393.787 86.4664 392.144 87.1526C390.502 87.8387 388.694 88.0182 386.95 87.6684C385.206 87.3187 383.604 86.4553 382.346 85.1874C381.089 83.9196 380.232 82.3043 379.886 80.5457C379.539 78.7872 379.717 76.9644 380.397 75.3079C381.078 73.6514 382.23 72.2356 383.709 71.2395C385.187 70.2434 386.926 69.7117 388.704 69.7117C391.084 69.7117 393.367 70.6634 395.053 72.3582C396.738 74.0529 397.688 76.3524 397.695 78.7525V78.7772Z" fill="white"/>
<path d="M527.525 488.13C527.525 497.824 413.126 505.694 272.01 505.694C130.895 505.694 16.5078 497.824 16.5078 488.13C16.5078 478.435 130.895 470.566 272.01 470.566C413.126 470.566 527.525 478.435 527.525 488.13Z" fill="#F5F5F5"/>
<path d="M493.771 284.706H468.389C462.457 284.706 457.648 289.554 457.648 295.535V321.128C457.648 327.109 462.457 331.957 468.389 331.957H493.771C499.703 331.957 504.512 327.109 504.512 321.128V295.535C504.512 289.554 499.703 284.706 493.771 284.706Z" fill="#407BFF"/>
<path opacity="0.5" d="M493.771 284.706H468.389C462.457 284.706 457.648 289.554 457.648 295.535V321.128C457.648 327.109 462.457 331.957 468.389 331.957H493.771C499.703 331.957 504.512 327.109 504.512 321.128V295.535C504.512 289.554 499.703 284.706 493.771 284.706Z" fill="white"/>
<path d="M476.943 312.235H470.215L468.991 315.343H462.875L470.606 297.496H476.624L484.368 315.343H478.251L476.943 312.235ZM475.303 307.893L473.579 303.416L471.854 307.893H475.303Z" fill="#407BFF"/>
<path d="M498.76 307.844V315.343H493.451V313.505C493.087 314.215 492.518 314.796 491.819 315.171C491.119 315.546 490.323 315.696 489.536 315.602C486.148 315.602 484.398 313.666 484.398 311.261C484.398 308.559 486.417 307.055 490.723 307.055H493.022C492.851 305.982 492.032 305.427 490.417 305.427C489.155 305.421 487.922 305.804 486.882 306.524L485.059 302.725C486.958 301.659 489.1 301.111 491.273 301.134C496.032 301.134 498.76 303.206 498.76 307.844ZM493.047 310.804V309.842H491.628C490.405 309.842 489.891 310.249 489.891 311.014C489.891 311.779 490.392 312.136 491.249 312.136C491.651 312.149 492.047 312.027 492.373 311.788C492.698 311.549 492.936 311.207 493.047 310.817V310.804Z" fill="#407BFF"/>
<path d="M461.653 231.46H418.998C415.586 231.46 412.82 234.248 412.82 237.688V273.593C412.82 277.033 415.586 279.821 418.998 279.821H461.653C465.065 279.821 467.83 277.033 467.83 273.593V237.688C467.83 234.248 465.065 231.46 461.653 231.46Z" fill="#407BFF"/>
<path opacity="0.6" d="M461.653 231.46H418.998C415.586 231.46 412.82 234.248 412.82 237.688V273.593C412.82 277.033 415.586 279.821 418.998 279.821H461.653C465.065 279.821 467.83 277.033 467.83 273.593V237.688C467.83 234.248 465.065 231.46 461.653 231.46Z" fill="white"/>
<path d="M454.932 254.08L441.978 264.305L433.965 259.507C433.241 259.072 432.403 258.872 431.563 258.934C430.722 258.996 429.921 259.316 429.268 259.852L412.876 273.223C412.86 274.092 413.016 274.956 413.334 275.764C413.652 276.572 414.127 277.308 414.731 277.929C415.334 278.55 416.054 279.044 416.849 279.382C417.644 279.719 418.497 279.894 419.359 279.895L461.305 279.957C463.04 279.941 464.698 279.234 465.919 277.992C467.14 276.749 467.825 275.07 467.825 273.321V258.397L459.629 253.723C458.898 253.311 458.062 253.125 457.227 253.189C456.392 253.253 455.594 253.563 454.932 254.08Z" fill="#407BFF"/>
<path d="M448.776 246.26C448.749 247.413 448.386 248.532 447.732 249.477C447.077 250.423 446.161 251.153 445.097 251.575C444.033 251.998 442.869 252.095 441.751 251.854C440.633 251.613 439.611 251.044 438.811 250.22C438.012 249.395 437.472 248.351 437.258 247.219C437.045 246.086 437.168 244.915 437.611 243.853C438.055 242.79 438.799 241.883 439.751 241.245C440.704 240.607 441.822 240.266 442.965 240.266C443.737 240.274 444.5 240.436 445.21 240.741C445.921 241.047 446.564 241.491 447.104 242.048C447.643 242.605 448.069 243.263 448.356 243.986C448.643 244.709 448.785 245.482 448.776 246.26Z" fill="#407BFF"/>
<path d="M446.205 289.084H431.477V303.934H446.205V289.084Z" fill="#407BFF"/>
<path d="M446.205 307.375H431.477V322.225H446.205V307.375Z" fill="#263238"/>
<path d="M490.603 243.091H475.875V257.941H490.603V243.091Z" fill="#407BFF"/>
<path opacity="0.8" d="M490.603 243.091H475.875V257.941H490.603V243.091Z" fill="white"/>
<path d="M90.0835 50.039C93.0617 46.6879 96.8922 44.2219 101.16 42.908C105.429 41.5941 109.972 41.4824 114.299 42.5849C118.625 43.6874 122.57 45.9622 125.707 49.163C128.844 52.3638 131.052 56.3686 132.094 60.7441C133.135 65.1195 132.97 69.6989 131.616 73.9864C130.262 78.2739 127.77 82.1063 124.411 85.0687C121.052 88.0311 116.953 90.0106 112.558 90.7931C108.164 91.5755 103.64 91.1311 99.4782 89.5078L92.946 92.8873L92.212 85.1045C92.1142 85.0182 92.0041 84.9442 91.9062 84.8455C87.0919 80.4705 84.1961 74.3481 83.8544 67.8224C83.5127 61.2967 85.753 54.9009 90.0835 50.039Z" fill="#407BFF"/>
<g opacity="0.3">
<path d="M90.0835 50.039C93.0617 46.6879 96.8922 44.2219 101.16 42.908C105.429 41.5941 109.972 41.4824 114.299 42.5849C118.625 43.6874 122.57 45.9622 125.707 49.163C128.844 52.3638 131.052 56.3687 132.094 60.7441C133.135 65.1196 132.97 69.6989 131.616 73.9864C130.262 78.2739 127.77 82.1063 124.411 85.0687C121.052 88.0311 116.953 90.0107 112.558 90.7931C108.164 91.5756 103.64 91.1311 99.4782 89.5078L92.946 92.8873L92.212 85.1046C92.1142 85.0182 92.0041 84.9442 91.9062 84.8456C87.0919 80.4705 84.1961 74.3482 83.8544 67.8224C83.5127 61.2967 85.753 54.9009 90.0835 50.039Z" fill="white"/>
</g>
<path d="M92.5298 43.4897C89.0677 45.4816 86.1473 48.3051 84.0282 51.7092C81.9091 55.1132 80.6568 58.9925 80.3828 63.0021" stroke="#407BFF" stroke-width="0.5" stroke-linecap="round" stroke-linejoin="round"/>
<path d="M80.2966 66.6776C80.1365 67.8913 80.2239 69.1253 80.5535 70.3038" stroke="#407BFF" stroke-width="0.5" stroke-linecap="round" stroke-linejoin="round"/>
<path d="M107.375 76.4091L97.0625 66.9242L100.341 63.298L107.265 69.6624L118.751 58.3398L122.152 61.855L107.375 76.4091Z" fill="white"/>
<path d="M172.565 176.203C171.693 174.421 171.468 172.388 171.929 170.456C172.847 167.767 172.859 165.386 173.666 163.425C174.473 161.464 175.354 164.19 175.538 165.732C175.721 167.274 175.929 169.013 177.055 168.692C178.18 168.371 185.201 161.119 186.841 160.86C188.48 160.601 187.672 162.093 187.672 162.093C187.672 162.093 189.434 160.379 190.29 160.86C190.51 160.996 190.816 161.674 190.143 162.587C188.614 164.622 185.25 168.754 185.25 168.754C185.446 168.507 190.021 163.734 190.804 163.105C191.819 162.291 192.712 162.426 193.165 163.043C193.801 163.906 188.272 170.024 188.272 170.443C188.272 170.443 191.306 166.817 192.663 167.101C194.021 167.385 192.235 169.765 190.217 171.566C188.198 173.367 185.324 176.956 183.281 178.448C180.834 180.311 178.755 180.989 176.223 179.583C174.736 178.792 173.476 177.628 172.565 176.203Z" fill="#E9B376"/>
<path opacity="0.3" d="M187.383 162.303C186.013 163.709 184.708 165.177 183.469 166.706" stroke="black" stroke-width="0.25" stroke-linecap="round" stroke-linejoin="round"/>
<path opacity="0.3" d="M187.078 171.948C185.78 169.736 183.872 167.954 181.586 166.817" stroke="black" stroke-width="0.25" stroke-linecap="round" stroke-linejoin="round"/>
<path opacity="0.3" d="M177.269 169.95C177.894 170.79 178.21 171.824 178.16 172.873C178.111 173.922 177.701 174.921 177 175.698" stroke="black" stroke-width="0.25" stroke-linecap="round" stroke-linejoin="round"/>
<path d="M116.658 160.453C116.658 160.453 121.905 159.54 130.676 169.21C141.759 181.421 150.725 190.56 150.725 190.56L174.261 173.811L180.084 179.62C180.084 179.62 158.138 207.112 152.634 208.58C147.129 210.048 144.744 208.173 141.184 205.238C137.624 202.302 115.496 179.805 115.96 179.965C116.425 180.126 116.658 160.453 116.658 160.453Z" fill="#EBB373"/>
<path d="M123.893 463.524C123.807 462.808 121.238 447.724 121.238 447.724L106.914 451.005L110.951 466.447L120.737 468.112L123.893 463.524Z" fill="#EBB373"/>
<path d="M7.85305 174.896C8.57478 175.34 34.0553 197.615 34.3489 197.467C34.6425 197.319 61.0038 176.376 62.6185 175.648C64.2332 174.921 72.6859 189.746 71.9275 189.746C71.1691 189.746 46.031 212.145 35.4865 212.687C24.942 213.23 2.70312 178.756 2.70312 178.756L7.85305 174.896Z" fill="#EBB373"/>
<path d="M228.738 433.786L220.029 441.433L200.102 423.969L208.811 416.309L228.738 433.786Z" fill="#EBB373"/>
<path d="M212.161 438.436L215.39 435.155C215.754 434.793 216.197 434.523 216.684 434.367C217.171 434.21 217.687 434.172 218.191 434.255C222.62 434.921 223.084 432.528 222.669 428.088C223.806 426.633 225.641 427.767 226.155 428.088L237.433 434.489C237.885 434.747 238.219 435.172 238.364 435.675C238.508 436.178 238.45 436.718 238.204 437.178C238.111 437.352 237.991 437.51 237.849 437.647L227.182 448.488L212.246 463.672C208.173 467.816 203.194 464.535 204.491 462.438C210.35 453.089 213.457 445.43 213.568 440.841C213.616 439.953 212.882 440.114 212.161 438.436Z" fill="#263238"/>
<path d="M209.004 444.628C210.438 444.402 211.844 444.026 213.2 443.506C213.259 443.474 213.304 443.42 213.325 443.356C213.345 443.291 213.34 443.221 213.31 443.16C213.292 443.129 213.267 443.101 213.237 443.08C213.208 443.059 213.174 443.044 213.139 443.037C212.454 442.803 206.411 440.866 205.126 442.075C205.004 442.178 204.914 442.314 204.866 442.467C204.819 442.62 204.816 442.783 204.857 442.938C204.899 443.231 205.008 443.509 205.176 443.751C205.344 443.993 205.566 444.192 205.824 444.332C206.826 444.767 207.94 444.871 209.004 444.628ZM212.258 443.284C210.619 443.814 207.561 444.653 206.142 443.851C205.958 443.741 205.799 443.593 205.677 443.417C205.554 443.24 205.471 443.039 205.432 442.827C205.41 442.765 205.407 442.697 205.425 442.633C205.442 442.569 205.479 442.512 205.53 442.469C206.276 441.803 209.763 442.544 212.258 443.284Z" fill="#407BFF"/>
<path d="M213.139 443.53C213.199 443.548 213.263 443.548 213.323 443.53C213.346 443.489 213.359 443.442 213.359 443.395C213.359 443.347 213.346 443.3 213.323 443.259C213.323 443.012 211.219 437.548 208.148 438.325C207.39 438.535 207.219 438.942 207.219 439.263C207.219 440.78 211.17 443.136 212.98 443.629L213.139 443.53ZM208.552 438.695C210.534 438.436 212.1 441.581 212.662 442.852C210.668 442.112 207.769 440.101 207.769 439.152C207.769 439.078 207.769 438.868 208.295 438.732L208.552 438.695Z" fill="#407BFF"/>
<path d="M212.398 443.234C213.037 442.748 213.771 442.406 214.552 442.232C215.333 442.057 216.142 442.054 216.925 442.223" stroke="#407BFF" stroke-width="0.5" stroke-linecap="round" stroke-linejoin="round"/>
<path d="M211.945 446.799C212.584 446.314 213.319 445.973 214.1 445.799C214.88 445.624 215.689 445.62 216.471 445.787" stroke="#407BFF" stroke-width="0.5" stroke-linecap="round" stroke-linejoin="round"/>
<path d="M210.719 450.622C211.36 450.137 212.096 449.795 212.879 449.621C213.662 449.446 214.473 449.443 215.257 449.611" stroke="#407BFF" stroke-width="0.5" stroke-linecap="round" stroke-linejoin="round"/>
<path d="M61.3913 477.74C70.981 476.504 77.6016 466.399 76.1788 455.169C74.7559 443.939 65.8285 435.837 56.2388 437.072C46.649 438.307 40.0284 448.412 41.4513 459.642C42.8741 470.872 51.8015 478.975 61.3913 477.74Z" fill="#407BFF"/>
<path opacity="0.4" d="M61.3913 477.74C70.981 476.504 77.6016 466.399 76.1788 455.169C74.7559 443.939 65.8285 435.837 56.2388 437.072C46.649 438.307 40.0284 448.412 41.4513 459.642C42.8741 470.872 51.8015 478.975 61.3913 477.74Z" fill="black"/>
<path d="M2.42188 151.868L14.0551 113.843L37.1258 147.403L75.9521 453.73L41.2482 458.208L2.42188 151.868Z" fill="#407BFF"/>
<path d="M20.1558 122.686C19.0528 124.01 17.4991 124.87 15.7995 125.098C14.0999 125.327 12.3771 124.906 10.9691 123.92L2.40625 151.893C2.40625 151.893 6.39408 159.392 11.0425 151.326C11.0425 151.326 16.3392 158.011 20.9264 150.092C20.9264 150.092 25.9051 155.322 29.5627 148.982C29.5627 148.982 33.8563 153.102 37.0979 147.478L20.1558 122.686Z" fill="#B97964"/>
<path opacity="0.3" d="M21.0938 150.043L61.9384 455.975L70.012 454.927C71.2352 454.384 29.7789 148.933 29.7789 148.933C26.0602 155.273 21.0938 150.043 21.0938 150.043Z" fill="white"/>
<path opacity="0.3" d="M11.1103 151.4C8.55372 155.852 6.2173 155.556 4.57812 154.409L45.0925 458.208L53.1661 457.159C54.3893 456.641 16.7985 179.706 13.2021 153.2C12.4163 152.713 11.7106 152.106 11.1103 151.4Z" fill="white"/>
<path d="M40.8555 462.136L77.6094 457.402L76.8514 451.419L40.0975 456.153L40.8555 462.136Z" fill="#263238"/>
<path d="M6.97495 178.719C6.97495 178.719 13.7518 175.18 14.3145 173.132C14.8772 171.085 11.868 171.751 11.868 171.751C11.868 171.751 15.0485 170.813 14.8405 169.407C14.5836 167.705 11.5133 168.421 11.5133 168.421C11.5133 168.421 14.0821 167.545 13.813 166.299C13.5439 165.053 10.0086 165.571 10.0086 165.571C10.0086 165.571 11.6967 164.609 11.024 163.857C10.3512 163.105 2.86479 164.128 0.919809 165.929C-1.02518 167.73 0.589531 177.387 1.43358 179.386C1.67823 179.965 2.25317 180.878 5.10337 181.273C5.38842 181.301 5.67434 181.228 5.9113 181.066C6.14825 180.903 6.32121 180.662 6.40002 180.385L6.767 178.843L6.97495 178.719Z" fill="#EBB373"/>
<path opacity="0.2" d="M11.8765 171.603L6.40849 173.502C6.36794 173.515 6.3342 173.544 6.3147 173.582C6.2952 173.62 6.29154 173.665 6.30451 173.706C6.31749 173.747 6.34605 173.781 6.3839 173.8C6.42175 173.82 6.46579 173.824 6.50635 173.811L11.9743 171.911C12.0104 171.895 12.0391 171.866 12.0549 171.829C12.0707 171.793 12.0725 171.752 12.06 171.714C12.0577 171.693 12.0506 171.673 12.0395 171.656C12.0283 171.638 12.0132 171.623 11.9955 171.612C11.9777 171.602 11.9577 171.595 11.9371 171.594C11.9165 171.592 11.8957 171.595 11.8765 171.603Z" fill="black"/>
<path opacity="0.2" d="M11.3661 168.297L5.97148 169.703C5.95299 169.709 5.93578 169.718 5.92085 169.731C5.90591 169.743 5.89355 169.758 5.88445 169.775C5.87536 169.793 5.86973 169.811 5.86787 169.831C5.86601 169.85 5.86796 169.87 5.87362 169.888C5.88246 169.929 5.9065 169.964 5.94072 169.987C5.97493 170.01 6.01664 170.019 6.05711 170.012L11.4395 168.618C11.4777 168.604 11.5092 168.576 11.5274 168.539C11.5456 168.502 11.5492 168.46 11.5373 168.421C11.5344 168.401 11.5275 168.382 11.5173 168.365C11.507 168.349 11.4935 168.334 11.4775 168.322C11.4616 168.311 11.4435 168.303 11.4243 168.298C11.4052 168.294 11.3854 168.294 11.3661 168.297Z" fill="black"/>
<path opacity="0.2" d="M9.83637 165.46L5.79961 166.385C5.78112 166.391 5.76391 166.4 5.74898 166.413C5.73404 166.425 5.72167 166.44 5.71258 166.458C5.70349 166.475 5.69785 166.494 5.69599 166.513C5.69413 166.532 5.69609 166.552 5.70175 166.571C5.7047 166.59 5.71152 166.609 5.72179 166.626C5.73206 166.643 5.74558 166.657 5.76154 166.669C5.77751 166.68 5.7956 166.688 5.81474 166.693C5.83389 166.697 5.8537 166.697 5.873 166.694L9.90977 165.769C9.94505 165.754 9.97404 165.728 9.99145 165.694C10.0089 165.659 10.0136 165.62 10.0047 165.583C9.99579 165.545 9.97391 165.513 9.94303 165.49C9.91215 165.468 9.8743 165.457 9.83637 165.46Z" fill="black"/>
<path d="M109.173 462.241H113.772C114.283 462.247 114.784 462.374 115.237 462.612C115.69 462.85 116.08 463.192 116.378 463.61C119.032 467.248 121.014 465.879 123.901 462.451C125.724 462.241 126.213 464.35 126.347 464.917L129.773 477.51C129.847 477.761 129.871 478.025 129.844 478.286C129.817 478.546 129.738 478.799 129.613 479.028C129.487 479.258 129.318 479.46 129.115 479.623C128.911 479.786 128.677 479.906 128.427 479.977C128.239 480.027 128.046 480.052 127.852 480.051H91.5211C85.7351 480.051 84.5363 474.18 86.9217 473.638C97.6374 471.245 105.271 468.063 108.524 464.93C109.136 464.35 108.512 463.943 109.173 462.241Z" fill="#263238"/>
<path d="M102.593 464.338C103.758 465.211 105.013 465.956 106.336 466.558C106.401 466.574 106.469 466.565 106.528 466.533C106.587 466.501 106.632 466.449 106.654 466.385C106.669 466.352 106.677 466.317 106.677 466.28C106.677 466.244 106.669 466.208 106.654 466.175C106.336 465.522 103.437 459.848 101.675 459.762C101.517 459.751 101.359 459.784 101.219 459.858C101.079 459.932 100.961 460.044 100.88 460.181C100.705 460.418 100.587 460.694 100.536 460.985C100.486 461.276 100.503 461.575 100.587 461.859C100.975 462.88 101.678 463.749 102.593 464.338ZM105.834 465.719C104.305 464.93 101.553 463.326 101.125 461.735C101.07 461.526 101.061 461.307 101.099 461.094C101.137 460.881 101.221 460.679 101.345 460.502C101.375 460.441 101.422 460.39 101.481 460.357C101.54 460.324 101.608 460.31 101.675 460.317C102.642 460.378 104.587 463.413 105.834 465.719Z" fill="#407BFF"/>
<path d="M106.284 466.533C106.322 466.583 106.372 466.622 106.431 466.644C106.48 466.638 106.526 466.619 106.565 466.589C106.604 466.558 106.633 466.518 106.651 466.471C106.798 466.286 109.195 460.946 106.48 459.293C105.807 458.886 105.391 459.046 105.183 459.293C104.107 460.366 105.183 464.856 106.149 466.496L106.284 466.533ZM106.455 459.848C108.033 461.081 106.92 464.412 106.455 465.707C105.587 463.758 104.951 460.267 105.648 459.638C105.648 459.577 105.819 459.416 106.321 459.725L106.455 459.848Z" fill="#407BFF"/>
<path d="M105.977 465.805C106.763 465.915 107.517 466.192 108.19 466.617C108.863 467.042 109.438 467.606 109.879 468.272" stroke="#407BFF" stroke-width="0.5" stroke-linecap="round" stroke-linejoin="round"/>
<path d="M103.141 467.976C103.932 468.087 104.691 468.37 105.363 468.807C106.035 469.244 106.604 469.823 107.031 470.505" stroke="#407BFF" stroke-width="0.5" stroke-linecap="round" stroke-linejoin="round"/>
<path d="M99.5859 469.789C100.376 469.905 101.133 470.19 101.804 470.627C102.475 471.063 103.045 471.64 103.476 472.318" stroke="#407BFF" stroke-width="0.5" stroke-linecap="round" stroke-linejoin="round"/>
<path d="M74.5993 169.432C74.5993 169.432 66.4891 187.686 67.4922 194.852C68.8378 204.424 76.9969 216.388 84.9236 234.58L129.377 227.636C123.982 209.505 119.884 199.367 116.692 159.17C111.263 159.036 105.84 159.608 100.557 160.872C93.6223 162.282 86.7956 164.186 80.1285 166.571C71.5534 169.765 74.5993 169.432 74.5993 169.432Z" fill="#263238"/>
<path d="M114.031 159.799C114.031 159.799 116.894 158.072 121.371 160.33C125.848 162.587 139.108 175.772 139.108 175.772C139.108 175.772 123.34 195.568 123.108 195.568C122.875 195.568 114.447 184.035 114.447 184.035L114.031 159.799Z" fill="#263238"/>
<path d="M68.2222 191.066L57.4453 178.362C57.4453 178.362 70.6565 169.444 74.4119 168.001C76.2274 167.217 78.1564 166.734 80.1246 166.57L68.2222 191.066Z" fill="#263238"/>
<path d="M84.9151 234.58C77.2697 260.938 79.2636 321.683 86.1383 365.505C91.1048 405.098 103.019 455.1 103.019 455.1L126.934 451.325C126.934 451.325 118.934 386.486 117.013 358.82C114.408 320.733 114.249 229.967 114.249 229.967L82.5297 229.153L84.9151 234.58Z" fill="#407BFF"/>
<path opacity="0.4" d="M84.9151 234.58C77.2697 260.938 79.2636 321.683 86.1383 365.505C91.1048 405.098 103.019 455.1 103.019 455.1L126.934 451.325C126.934 451.325 118.934 386.486 117.013 358.82C114.408 320.733 114.249 229.967 114.249 229.967L82.5297 229.153L84.9151 234.58Z" fill="black"/>
<path opacity="0.2" d="M114.795 263.725C111.651 255.289 109.523 250.824 108.96 259.223C107.737 276.984 110.416 297.298 114.978 307.326C115.015 292.316 114.538 276.762 114.795 263.725Z" fill="black"/>
<path d="M82.8047 229.178C93.8349 241.9 103.08 256.089 110.279 271.348C122.414 297.249 130.585 331.303 139.54 352.259C153.717 385.425 205.596 431.776 205.596 431.776L217.828 421.526C217.828 421.526 180.788 368.7 170.99 346.203C139.588 274.172 148.971 243.658 129.399 227.574L127.564 221.407L82.8047 229.178Z" fill="#407BFF"/>
<path opacity="0.4" d="M82.8047 229.178C93.8349 241.9 103.08 256.089 110.279 271.348C122.414 297.249 130.585 331.303 139.54 352.259C153.717 385.425 205.596 431.776 205.596 431.776L217.828 421.526C217.828 421.526 180.788 368.7 170.99 346.203C139.588 274.172 148.971 243.658 129.399 227.574L127.564 221.407L82.8047 229.178Z" fill="black"/>
<path d="M67.1073 122.711C67.1801 122.684 67.2438 122.637 67.2908 122.575C67.3307 122.496 67.339 122.405 67.314 122.32C67.289 122.235 67.2325 122.163 67.1563 122.119C65.4948 120.919 64.3278 119.146 63.8769 117.136C63.4259 115.126 63.7223 113.02 64.7097 111.216C68.1471 104.494 76.7833 106.874 76.869 106.886C76.9089 106.907 76.9526 106.919 76.9974 106.922C77.0422 106.926 77.0871 106.919 77.1295 106.904C77.1718 106.889 77.2107 106.866 77.2437 106.835C77.2768 106.804 77.3033 106.767 77.3216 106.726C77.3565 106.644 77.3596 106.551 77.3302 106.467C77.3007 106.382 77.2409 106.312 77.1625 106.27H77.0524C76.9791 106.27 67.7924 103.717 64.0981 110.932C63.0798 112.893 62.7951 115.159 63.2959 117.314C63.7967 119.47 65.0496 121.372 66.826 122.674C66.9126 122.719 67.0122 122.732 67.1073 122.711Z" fill="#263238"/>
<path d="M67.7479 122.958C67.8003 122.94 67.8483 122.911 67.8885 122.872C67.9286 122.834 67.96 122.787 67.9803 122.736C68.0075 122.652 68.0009 122.561 67.9619 122.483C67.923 122.404 67.8548 122.344 67.7723 122.316C67.7723 122.316 63.7111 120.959 62.4634 117.962C62.1654 117.188 62.0426 116.357 62.1039 115.529C62.1653 114.701 62.4093 113.897 62.8181 113.177C62.84 113.139 62.8542 113.097 62.8598 113.053C62.8655 113.01 62.8626 112.965 62.8512 112.923C62.8398 112.88 62.8203 112.841 62.7936 112.806C62.7669 112.771 62.7337 112.742 62.6958 112.72C62.6157 112.679 62.5232 112.671 62.4369 112.696C62.3506 112.721 62.277 112.778 62.231 112.856C61.7793 113.665 61.5111 114.564 61.4455 115.49C61.3799 116.415 61.5187 117.344 61.8518 118.209C63.2341 121.49 67.3809 122.871 67.5766 122.933C67.6302 122.958 67.6896 122.966 67.7479 122.958Z" fill="#263238"/>
<path d="M106.189 146.293C107.428 146.048 108.593 145.514 109.591 144.735C110.589 143.955 111.393 142.952 111.939 141.804C111.96 141.765 111.974 141.722 111.978 141.678C111.983 141.634 111.979 141.59 111.967 141.547C111.954 141.505 111.933 141.465 111.905 141.431C111.877 141.397 111.843 141.368 111.804 141.348C111.769 141.323 111.728 141.307 111.686 141.3C111.644 141.292 111.601 141.294 111.559 141.304C111.518 141.315 111.479 141.334 111.445 141.361C111.412 141.387 111.384 141.42 111.364 141.459C109.076 147.305 97.5776 146.207 97.4675 146.207C97.4231 146.2 97.3779 146.202 97.3344 146.214C97.2909 146.225 97.2502 146.245 97.2147 146.273C97.1793 146.301 97.1497 146.335 97.128 146.375C97.1063 146.414 97.0927 146.458 97.0883 146.503C97.0832 146.545 97.0864 146.588 97.0978 146.629C97.1093 146.67 97.1286 146.708 97.1548 146.741C97.181 146.775 97.2134 146.802 97.2503 146.823C97.2872 146.843 97.3278 146.856 97.3696 146.861C100.32 147.166 103.301 146.974 106.189 146.293Z" fill="#263238"/>
<path d="M152.466 126.941C150.197 128.101 147.667 128.641 145.127 128.508C146.801 126.945 147.986 124.923 148.538 122.691C149.09 120.458 148.984 118.112 148.234 115.939C145.24 118.124 141.683 119.386 137.992 119.575C134.301 119.763 130.636 118.869 127.438 117C122.778 114.163 119.353 109.291 114.203 107.491C109.726 105.937 100.453 106.257 99.2422 112.905L101.248 117.839C104.673 116.31 110.007 121.539 111.878 124.857C113.75 128.175 114.007 132.048 114.386 135.81C114.765 139.571 115.414 143.543 117.86 146.404C120.098 148.809 123.16 150.264 126.423 150.475C129.683 150.638 132.946 150.22 136.062 149.241C137.387 148.994 138.619 148.384 139.622 147.478C140.117 147.008 140.423 146.37 140.479 145.687C140.536 145.003 140.339 144.323 139.928 143.777C137.647 144.125 135.317 143.691 133.31 142.544C138.099 143.12 142.938 141.999 146.998 139.374C150.888 136.624 153.408 131.641 152.466 126.941Z" fill="#263238"/>
<path d="M66.6524 125.313C65.4045 122.268 65.2985 118.869 66.3542 115.75C67.41 112.631 69.5552 110.007 72.3895 108.366C76.2794 105.9 81.4661 105.517 86.4447 106.072C91.7061 106.694 96.584 109.159 100.228 113.036C103.872 116.913 106.05 121.956 106.384 127.287C106.971 136.303 104.451 146.084 91.8638 148.637C67.0071 153.669 66.6524 125.313 66.6524 125.313Z" fill="#263238"/>
<path d="M102.298 160.613C102.298 160.613 98.4207 164.4 93.4787 169.79C92.4469 170.911 91.294 171.912 90.0414 172.775C86.6774 175.106 83.5336 176.573 82.4449 174.933C82.2055 174.543 82.0047 174.13 81.8455 173.7C80.7691 170.863 80.6223 166.719 82.7385 164.572C85.185 162.106 86.2126 160.194 85.4052 157.382C84.9125 155.719 84.2181 154.124 83.3379 152.633L86.1759 150.438L95.7907 138.104C95.3381 145.122 96.1822 157.271 102.298 160.613Z" fill="#EBB373"/>
<path opacity="0.2" d="M85.5973 158.072C88.3864 155.939 91.31 152.46 90.4904 148.958C90.2256 147.681 89.8152 146.439 89.2671 145.257L84.1172 154.052C84.7421 155.339 85.238 156.686 85.5973 158.072Z" fill="black"/>
<path d="M96.5104 125.498C96.7672 136.87 97.1098 141.656 92.021 148.218C84.3634 158.085 70.6995 156.629 67.1399 145.751C63.9471 135.884 64.0695 118.998 74.4794 113.016C76.6734 111.647 79.1913 110.896 81.771 110.841C84.3507 110.786 86.8978 111.429 89.1473 112.703C91.3967 113.978 93.2663 115.837 94.5612 118.087C95.8562 120.338 96.5293 122.897 96.5104 125.498Z" fill="#EBB373"/>
<path d="M81.8856 130.913C81.9713 132.146 81.433 133.158 80.6624 133.256C79.8917 133.355 79.2679 132.467 79.1945 131.271C79.1211 130.074 79.6348 129.026 80.4177 128.927C81.2006 128.828 81.8122 129.717 81.8856 130.913Z" fill="#263238"/>
<path d="M70.4983 132.159C70.5717 133.318 70.0457 134.342 69.275 134.44C68.5044 134.539 67.8927 133.676 67.8193 132.516C67.7459 131.357 68.2719 130.333 69.0426 130.235C69.8132 130.136 70.4983 130.999 70.4983 132.159Z" fill="#263238"/>
<path d="M84.3441 126.411C84.2725 126.425 84.1989 126.425 84.1275 126.41C84.0561 126.395 83.9884 126.366 83.9282 126.325C83.3947 125.916 82.7697 125.647 82.1085 125.539C81.4472 125.431 80.7699 125.489 80.1361 125.708C80.0723 125.738 80.003 125.754 79.9327 125.755C79.8625 125.756 79.7928 125.742 79.7282 125.714C79.6636 125.686 79.6056 125.645 79.5578 125.593C79.5101 125.541 79.4737 125.479 79.451 125.412C79.4052 125.269 79.4136 125.115 79.4747 124.978C79.5357 124.841 79.645 124.732 79.7813 124.672C80.5779 124.375 81.4356 124.285 82.2757 124.41C83.1157 124.535 83.9112 124.871 84.5887 125.387C84.7018 125.481 84.775 125.616 84.7931 125.762C84.8113 125.909 84.7732 126.057 84.6866 126.177C84.6036 126.293 84.4822 126.376 84.3441 126.411Z" fill="#263238"/>
<path d="M67.1233 126.83C67.0647 126.817 67.0095 126.791 66.9611 126.755C66.9127 126.719 66.8722 126.673 66.842 126.621C66.7853 126.49 66.7738 126.343 66.8092 126.204C66.8447 126.066 66.9251 125.943 67.0377 125.856C67.6529 125.342 68.3896 124.996 69.1762 124.854C69.9628 124.711 70.7726 124.776 71.527 125.042C71.5957 125.073 71.6565 125.119 71.7049 125.177C71.7534 125.235 71.7884 125.303 71.8072 125.377C71.826 125.45 71.8281 125.527 71.8135 125.601C71.7989 125.676 71.7679 125.746 71.7228 125.807C71.6733 125.934 71.577 126.037 71.4539 126.095C71.3308 126.152 71.1905 126.159 71.0622 126.115C70.462 125.912 69.82 125.869 69.1983 125.99C68.5767 126.111 67.9967 126.392 67.5147 126.806C67.3926 126.866 67.2519 126.875 67.1233 126.83Z" fill="#263238"/>
<path d="M74.3975 131.16C73.6641 133.677 72.6762 136.111 71.4495 138.424C71.3926 138.54 71.3619 138.667 71.3595 138.797C71.3572 138.926 71.3832 139.054 71.4359 139.172C71.4885 139.29 71.5664 139.395 71.6639 139.479C71.7614 139.563 71.8762 139.624 71.9999 139.658C73.0071 139.835 74.0431 139.733 74.9969 139.362L74.3975 131.16Z" fill="#E4873E"/>
<path d="M80.8488 128.927L78.2188 128.619C78.2188 128.619 79.8335 130.383 80.8488 128.927Z" fill="#263238"/>
<path d="M69.4826 130.235L66.8281 129.914C66.8281 129.914 68.4673 131.678 69.4826 130.235Z" fill="#263238"/>
<path d="M89.1755 127.953C89.1755 127.953 83.9889 120.552 87.1694 114.299C87.1694 114.299 65.9825 110.784 65.3586 131.308C65.3586 131.308 61.1139 112.56 79.8298 108.576C98.5457 104.592 103.622 132.331 95.4386 142.408C95.4386 142.433 93.3346 133.059 89.1755 127.953Z" fill="#263238"/>
<path d="M100.924 134.28C99.9964 136.493 98.2368 138.245 96.0307 139.152C93.1683 140.237 91.1377 135.625 91.7616 132.529C92.0886 131.133 92.8964 129.899 94.0411 129.048C95.1858 128.196 96.5931 127.782 98.0124 127.879C100.863 128.138 102.135 131.468 100.924 134.28Z" fill="#EBB373"/>
<path opacity="0.2" d="M94.6049 134.44C94.5615 133.355 94.9442 132.295 95.67 131.492C96.3958 130.688 97.4063 130.206 98.4826 130.148" stroke="black" stroke-width="0.5" stroke-linecap="round" stroke-linejoin="round"/>
<path d="M74.6484 143.074C75.4823 144.173 76.2424 145.327 76.9237 146.528L77.621 146.33C80.7036 145.097 81.7311 143.568 81.9758 142.236C82.0994 141.164 81.8485 140.082 81.2663 139.177C79.6979 140.766 77.8018 141.987 75.7127 142.754C75.0521 142.963 74.6484 143.074 74.6484 143.074Z" fill="#263238"/>
<path d="M75.6719 142.692L76.3814 143.691C79.2683 142.569 81.1643 141.385 81.727 140.163C81.6142 139.792 81.4494 139.439 81.2377 139.115C79.6584 140.696 77.7602 141.916 75.6719 142.692Z" fill="white"/>
<path d="M77.6094 146.306C80.6798 145.072 81.7195 143.555 81.952 142.223C80.7902 142.694 79.7213 143.371 78.7959 144.221C78.1964 144.776 77.7819 145.504 77.6094 146.306Z" fill="#C15854"/>
<path opacity="0.2" d="M67.5837 191.066L70.2993 181.199C70.2993 181.199 63.8038 188.069 65.6509 194.655L67.4002 193.261L67.5837 191.066Z" fill="black"/>
<path opacity="0.2" d="M120.406 192.04C120.406 192.04 115.023 184.8 115.023 184.763L121.935 200.366L120.406 192.04Z" fill="black"/>
<path d="M191.766 51.7288H328.453C337.605 51.7288 346.383 55.3946 352.854 61.9197C359.326 68.4449 362.961 77.295 362.961 86.5229V446.071C362.961 453.104 360.191 459.849 355.258 464.822C350.326 469.795 343.637 472.589 336.661 472.589H179.656C173.715 472.589 168.018 470.21 163.818 465.975C159.618 461.739 157.258 455.995 157.258 450.006V86.5229C157.258 77.295 160.893 68.4449 167.365 61.9197C173.837 55.3946 182.614 51.7288 191.766 51.7288Z" fill="#407BFF"/>
<path d="M329.357 61.6206H190.86C176.888 61.6206 165.562 73.0403 165.562 87.1273V437.178C165.562 451.265 176.888 462.685 190.86 462.685H329.357C343.328 462.685 354.654 451.265 354.654 437.178V87.1273C354.654 73.0403 343.328 61.6206 329.357 61.6206Z" fill="white"/>
<path d="M296.049 80.3313H218.25V85.2402H296.049V80.3313Z" stroke="#407BFF" stroke-miterlimit="10"/>
<path d="M325.39 77.4205C325.386 77.7902 325.272 78.1502 325.065 78.4552C324.858 78.7603 324.566 78.9967 324.226 79.1348C323.886 79.273 323.513 79.3066 323.154 79.2315C322.794 79.1564 322.466 78.9759 322.208 78.7128C321.95 78.4496 321.776 78.1155 321.706 77.7526C321.636 77.3896 321.674 77.0139 321.816 76.6728C321.957 76.3316 322.195 76.0403 322.501 75.8354C322.806 75.6304 323.164 75.5211 323.531 75.521C323.777 75.5226 324.02 75.5731 324.246 75.6694C324.473 75.7657 324.678 75.9061 324.851 76.0825C325.024 76.2588 325.16 76.4678 325.253 76.6974C325.345 76.9269 325.392 77.1726 325.39 77.4205Z" fill="#407BFF"/>
<path d="M325.391 82.243C325.388 82.6133 325.277 82.9745 325.071 83.2812C324.865 83.5879 324.574 83.8263 324.234 83.9663C323.894 84.1063 323.521 84.1416 323.161 84.0679C322.801 83.9942 322.471 83.8147 322.212 83.552C321.953 83.2893 321.777 82.9553 321.707 82.5919C321.636 82.2286 321.673 81.8523 321.815 81.5104C321.956 81.1686 322.194 80.8765 322.499 80.671C322.805 80.4656 323.164 80.3559 323.531 80.3559C324.025 80.3592 324.498 80.5594 324.847 80.913C325.195 81.2665 325.391 81.7447 325.391 82.243Z" fill="#407BFF"/>
<path d="M325.39 87.078C325.386 87.4477 325.272 87.8077 325.065 88.1127C324.858 88.4178 324.566 88.6542 324.226 88.7923C323.886 88.9305 323.513 88.9641 323.154 88.889C322.794 88.8139 322.466 88.6334 322.208 88.3703C321.95 88.1071 321.776 87.773 321.706 87.4101C321.636 87.0471 321.674 86.6714 321.816 86.3303C321.957 85.9891 322.195 85.6978 322.501 85.4929C322.806 85.2879 323.164 85.1786 323.531 85.1785C323.777 85.1785 324.021 85.2278 324.248 85.3236C324.476 85.4193 324.682 85.5596 324.855 85.7363C325.028 85.913 325.164 86.1226 325.256 86.3529C325.348 86.5833 325.394 86.8297 325.39 87.078Z" fill="#407BFF"/>
<path d="M196.697 78.7525L193.125 82.2061L196.697 85.7459" stroke="#407BFF" stroke-linecap="round" stroke-linejoin="round"/>
<path d="M339.42 115.619H181.375V143.777H339.42V115.619Z" stroke="#407BFF" stroke-miterlimit="10"/>
<path d="M165.5 101.41H355.521" stroke="#407BFF" stroke-miterlimit="10"/>
<path d="M339.42 157.295H181.375V237.849H339.42V157.295Z" stroke="#407BFF" stroke-miterlimit="10"/>
<path d="M181.375 237.861L231.137 197.344C232.001 196.639 233.061 196.222 234.17 196.152C235.279 196.081 236.382 196.36 237.327 196.949L263.236 212.983L297.083 186.613C298.045 185.862 299.212 185.427 300.428 185.37C301.643 185.313 302.846 185.635 303.872 186.293L339.42 209.024" stroke="#407BFF" stroke-miterlimit="10"/>
<path d="M262.256 191.053C267.721 191.053 272.152 186.542 272.152 180.977C272.152 175.411 267.721 170.9 262.256 170.9C256.79 170.9 252.359 175.411 252.359 180.977C252.359 186.542 256.79 191.053 262.256 191.053Z" stroke="#407BFF" stroke-miterlimit="10"/>
<path d="M216.507 249.998H181.375V258.187H216.507V249.998Z" stroke="#407BFF" stroke-miterlimit="10"/>
<path d="M339.42 267.746H181.375V273.21H339.42V267.746Z" stroke="#407BFF" stroke-miterlimit="10"/>
<path d="M339.42 280.031H181.375V285.495H339.42V280.031Z" stroke="#407BFF" stroke-miterlimit="10"/>
<path d="M251.823 292.316H181.375V297.779H251.823V292.316Z" stroke="#407BFF" stroke-miterlimit="10"/>
<path d="M339.42 392.32H181.375V397.784H339.42V392.32Z" stroke="#407BFF" stroke-miterlimit="10"/>
<path d="M339.42 404.604H181.375V410.068H339.42V404.604Z" stroke="#407BFF" stroke-miterlimit="10"/>
<path d="M251.823 416.889H181.375V422.353H251.823V416.889Z" stroke="#407BFF" stroke-miterlimit="10"/>
<path d="M248.089 310.212H181.336V378.209H248.089V310.212Z" stroke="#407BFF" stroke-miterlimit="10"/>
<path d="M181.336 378.209L248.089 310.212" stroke="#407BFF" stroke-miterlimit="10"/>
<path d="M247.878 378.209L181.125 310.212" stroke="#407BFF" stroke-miterlimit="10"/>
<path d="M336.246 310.829H269.492V378.826H336.246V310.829Z" stroke="#407BFF" stroke-miterlimit="10"/>
<path d="M269.492 378.826L336.246 310.829" stroke="#407BFF" stroke-miterlimit="10"/>
<path d="M336.027 378.826L269.273 310.829" stroke="#407BFF" stroke-miterlimit="10"/>
<path d="M379.443 426.879C379.443 426.879 489.243 404.358 493.757 427.422C500.204 460.329 420.887 479.977 379.015 477.387C337.143 474.797 379.443 426.879 379.443 426.879Z" fill="#263238"/>
<path opacity="0.2" d="M379.443 426.879C379.443 426.879 489.243 404.358 493.757 427.422C500.204 460.329 420.887 479.977 379.015 477.387C337.143 474.797 379.443 426.879 379.443 426.879Z" fill="black"/>
<path opacity="0.2" d="M457.76 433.416L405.6 464.708L412.144 474.711C412.144 474.711 408.389 479.977 402.016 463.252L434.322 443.074C434.322 443.074 424.426 441.779 424.719 440.225C425.221 437.672 447.154 433.429 457.148 431.529C457.271 431.489 457.4 431.473 457.529 431.483C457.658 431.493 457.784 431.529 457.899 431.588C458.015 431.647 458.117 431.728 458.201 431.827C458.285 431.926 458.349 432.041 458.39 432.164C458.43 432.288 458.445 432.419 458.435 432.549C458.425 432.679 458.39 432.806 458.332 432.922C458.273 433.038 458.193 433.142 458.094 433.227C457.996 433.311 457.883 433.376 457.76 433.416Z" fill="black"/>
<path opacity="0.2" d="M403.849 460.958L412.302 475.759C401.279 477.364 390.13 477.917 379.005 477.412C375.354 477.28 371.753 476.512 368.362 475.142L365.414 469.296L372.533 455.864L403.849 460.958Z" fill="black"/>
<path d="M420.966 455.692L397.773 469.58L401.529 480.853L428.624 469.53L420.966 455.692Z" fill="#895555"/>
<path d="M385.133 472.934L387.127 481.026C387.63 481.168 388.09 481.436 388.464 481.804C388.838 482.173 389.115 482.63 389.267 483.135C389.306 484.339 389.137 485.541 388.766 486.687L394.112 508.95C394.842 508.78 395.549 508.519 396.216 508.173C396.875 507.74 397.479 507.226 398.014 506.643C399.69 504.806 399.946 502.08 400.069 500.057C400.265 496.677 402.515 486.835 402.515 486.835C403.249 484.947 404.491 483.303 406.099 482.086C406.726 481.664 407.248 481.101 407.623 480.443C407.999 479.784 408.218 479.046 408.265 478.287C408.044 476.252 406.626 475.451 404.742 475.623L402.564 475.833C401.813 475.251 401.304 474.408 401.137 473.469C400.969 472.529 401.156 471.56 401.659 470.751C401.659 470.751 403.09 465.978 401.06 466.73C399.91 467.15 394.809 469.271 390.735 470.813L388.105 471.812L385.133 472.934Z" fill="#263238"/>
<path d="M401.486 492.126C401.52 492.065 401.533 491.994 401.522 491.924C401.511 491.855 401.476 491.791 401.424 491.744C400.958 491.287 400.38 490.964 399.749 490.806C399.406 490.732 399.235 491.287 399.577 491.361C400.135 491.498 400.646 491.784 401.057 492.188C401.081 492.223 401.113 492.253 401.15 492.273C401.187 492.293 401.229 492.304 401.272 492.304C401.314 492.304 401.356 492.293 401.393 492.273C401.43 492.253 401.462 492.223 401.486 492.188V492.126Z" fill="#407BFF"/>
<path d="M402.006 490.14C402.035 490.08 402.045 490.012 402.034 489.945C402.023 489.879 401.992 489.818 401.945 489.77C401.477 489.308 400.893 488.984 400.256 488.833C399.914 488.747 399.743 489.302 400.085 489.388C400.646 489.52 401.161 489.801 401.578 490.202C401.603 490.235 401.635 490.262 401.672 490.281C401.709 490.299 401.75 490.309 401.792 490.309C401.833 490.309 401.874 490.299 401.911 490.281C401.948 490.262 401.981 490.235 402.006 490.202V490.14Z" fill="#407BFF"/>
<path d="M402.421 488.167C402.46 488.111 402.481 488.044 402.481 487.976C402.481 487.907 402.46 487.841 402.421 487.785C401.951 487.326 401.368 487.002 400.733 486.847C400.39 486.773 400.219 487.328 400.562 487.402C401.123 487.539 401.639 487.824 402.054 488.229C402.078 488.264 402.109 488.293 402.147 488.314C402.184 488.334 402.226 488.344 402.268 488.344C402.311 488.344 402.352 488.334 402.39 488.314C402.427 488.293 402.459 488.264 402.482 488.229L402.421 488.167Z" fill="#407BFF"/>
<path opacity="0.2" d="M388.081 471.812L385.133 472.934L387.127 481.026C387.63 481.168 388.09 481.436 388.464 481.804C388.838 482.173 389.115 482.63 389.267 483.135C389.306 484.339 389.137 485.541 388.766 486.687L394.112 508.95C394.842 508.78 395.549 508.519 396.216 508.173C396.535 507.961 396.841 507.731 397.133 507.482L388.57 471.652L388.081 471.812Z" fill="white"/>
<path d="M402.117 488.019C402.862 487.747 403.627 487.537 404.405 487.39C405.188 487.254 405.993 487.327 406.741 487.6C406.919 487.648 407.083 487.741 407.215 487.871C407.348 488 407.446 488.162 407.5 488.34C407.506 488.534 407.459 488.727 407.364 488.897C407.269 489.067 407.13 489.207 406.961 489.302C406.645 489.499 406.292 489.63 405.924 489.687C405.557 489.745 405.181 489.727 404.821 489.635C403.843 489.239 402.931 488.694 402.117 488.019Z" stroke="#407BFF" stroke-width="0.25" stroke-miterlimit="10"/>
<path d="M402.094 487.92C402.743 487.468 403.349 486.956 403.904 486.391C404.487 485.827 404.909 485.115 405.127 484.331C405.184 484.155 405.198 483.968 405.168 483.786C405.138 483.604 405.066 483.431 404.956 483.283C404.8 483.164 404.614 483.091 404.42 483.074C404.225 483.056 404.029 483.094 403.855 483.184C403.515 483.334 403.208 483.551 402.952 483.822C402.696 484.093 402.495 484.413 402.363 484.763C402.13 485.798 402.056 486.863 402.143 487.92" stroke="#407BFF" stroke-width="0.25" stroke-miterlimit="10"/>
<path d="M426.53 358.265C426.53 358.265 429.466 394.133 430.481 396.081C433.882 402.668 457.393 414.496 457.393 414.496L469.625 412.288L478.115 419.886L472.243 424.252L465.613 421.489C461.916 422.034 458.179 422.253 454.445 422.143C448.169 421.946 416.878 414.064 412.071 405.394C407.264 396.723 407.313 356.452 407.313 356.452L426.53 358.265Z" fill="#895555"/>
<path d="M406.341 371.722C406.341 371.722 397.913 340.048 409.815 331.686C421.717 323.323 429.705 366.751 429.705 366.751L406.341 371.722Z" fill="#407BFF"/>
<path opacity="0.5" d="M406.341 371.722C406.341 371.722 397.913 340.048 409.815 331.686C421.717 323.323 429.705 366.751 429.705 366.751L406.341 371.722Z" fill="white"/>
<path d="M412.039 429.371L413.176 387.756L413.947 330.748L389.776 324.692L372.797 324.532L344.111 333.548L343.133 347.51C343.133 347.51 344.013 411.783 343.805 413.719C343.548 416.075 336.258 430.765 336.258 430.765C366.534 438.683 412.467 431.505 412.039 429.371Z" fill="#407BFF"/>
<path opacity="0.2" d="M413.336 370.242L413.752 345.413L418.082 369.23L413.336 370.242Z" fill="black"/>
<path opacity="0.2" d="M361.637 372.61C362.395 372.486 365.478 371.574 365.478 371.574L358.469 347.387L369.307 373.954L362.249 376.544L361.637 372.61Z" fill="black"/>
<path d="M358.913 352.851C358.913 352.851 363.671 392.714 366.974 396.525C372.564 402.964 400.675 420.453 400.675 420.453L415.097 415.828C415.592 415.68 416.115 415.655 416.621 415.753C417.128 415.852 417.604 416.072 418.008 416.395L427.55 424.203L426.596 424.968C426.389 425.128 426.14 425.226 425.88 425.247C425.619 425.269 425.358 425.215 425.128 425.091L423.635 424.289L425.287 426.016L424.736 426.448C424.46 426.665 424.136 426.813 423.791 426.88C423.447 426.946 423.091 426.929 422.755 426.83L418.436 425.523L422.375 428.335C421.914 428.702 421.371 428.949 420.793 429.054C420.215 429.16 419.62 429.12 419.06 428.939L412.724 426.916C408.337 427.792 403.885 428.299 399.415 428.433C391.879 428.68 356.747 415.113 350.399 405.764C344.05 396.414 338.398 358.179 338.398 358.179L358.913 352.851Z" fill="#895555"/>
<path d="M339.254 378.653C339.254 378.653 331.45 342.429 343.352 334.054C355.255 325.679 365.444 371.537 365.444 371.537L339.254 378.653Z" fill="#407BFF"/>
<path opacity="0.5" d="M339.254 378.653C339.254 378.653 331.45 342.429 343.352 334.054C355.255 325.679 365.444 371.537 365.444 371.537L339.254 378.653Z" fill="white"/>
<path d="M433.19 427.249L411.233 426.596L387.93 425.893C387.93 427.632 389.777 429.1 392.15 429.161L415.392 429.852L428.713 430.247H428.774L465.827 431.344C468.176 431.406 470.108 430.049 470.145 428.322L433.19 427.249Z" fill="#263238"/>
<path d="M466.554 431.209L425.208 429.975C424.905 429.977 424.613 429.866 424.387 429.663C424.161 429.46 424.018 429.181 423.984 428.877C423.996 428.772 424.02 428.668 424.058 428.569L443.691 386.634C444.024 386.005 444.53 385.486 445.149 385.14C445.767 384.795 446.472 384.636 447.177 384.685L488.548 385.918C488.845 385.915 489.133 386.021 489.358 386.216C489.583 386.412 489.73 386.683 489.771 386.979C489.762 387.098 489.733 387.215 489.686 387.324L470.052 429.26C469.718 429.891 469.21 430.411 468.589 430.757C467.968 431.102 467.261 431.259 466.554 431.209Z" fill="#263238"/>
<path opacity="0.7" d="M488.518 385.894L447.148 384.66C446.442 384.612 445.738 384.77 445.119 385.116C444.501 385.461 443.995 385.98 443.661 386.609L424.774 426.99L411.233 426.596L387.93 425.893C387.93 427.632 389.777 429.1 392.15 429.161L415.392 429.852L428.713 430.247H428.774L465.827 431.344C466.528 431.367 467.226 431.25 467.882 430.999C468.338 430.875 468.762 430.655 469.127 430.353C469.492 430.051 469.789 429.674 469.998 429.247L489.632 387.312C489.679 387.202 489.708 387.086 489.717 386.967C489.679 386.672 489.537 386.402 489.317 386.204C489.096 386.007 488.813 385.897 488.518 385.894Z" fill="white"/>
<path d="M463.01 407.786C462.056 409.797 460.197 411.141 458.863 410.82C457.53 410.5 457.212 408.625 458.142 406.602C459.071 404.58 460.931 403.272 462.276 403.593C463.622 403.913 463.964 405.714 463.01 407.786Z" fill="white"/>
<g opacity="0.3">
<path d="M443.661 386.609L424.773 426.99L426.682 427.052L447.147 384.66C446.441 384.612 445.737 384.77 445.118 385.116C444.5 385.461 443.994 385.98 443.661 386.609Z" fill="black"/>
</g>
<path d="M443.219 474.735L469.727 479.854L474.326 468.901L446.595 459.268L443.219 474.735Z" fill="#895555"/>
<path d="M481.402 485.786L485.218 478.386C484.933 477.944 484.764 477.436 484.725 476.91C484.687 476.384 484.781 475.856 484.998 475.377C485.757 474.449 486.672 473.664 487.702 473.058L498.356 452.818C497.697 452.451 496.994 452.169 496.264 451.979C495.484 451.888 494.696 451.888 493.916 451.979C491.469 452.238 489.463 454.1 488.044 455.531C485.671 457.936 477.536 463.82 477.536 463.82C475.742 464.738 473.732 465.144 471.726 464.991C470.979 464.888 470.218 464.959 469.503 465.201C468.787 465.443 468.137 465.848 467.603 466.385C466.441 468.05 466.979 469.604 468.496 470.727L470.258 472.034C470.439 472.97 470.268 473.94 469.777 474.754C469.286 475.569 468.511 476.169 467.603 476.437C467.603 476.437 463.395 479.064 465.401 479.854C466.551 480.298 471.75 482.123 475.811 483.69L478.454 484.701L481.402 485.786Z" fill="#263238"/>
<path d="M481.728 460.514C481.666 460.54 481.614 460.585 481.578 460.642C481.543 460.7 481.527 460.767 481.532 460.835C481.58 461.489 481.799 462.119 482.168 462.66C482.376 462.956 482.866 462.66 482.67 462.364C482.334 461.889 482.135 461.33 482.095 460.748C482.094 460.706 482.083 460.665 482.063 460.628C482.043 460.591 482.014 460.56 481.979 460.537C481.944 460.514 481.904 460.5 481.862 460.496C481.821 460.492 481.779 460.498 481.74 460.514H481.728Z" fill="#407BFF"/>
<path d="M480.082 461.624C480.016 461.649 479.961 461.695 479.926 461.756C479.89 461.816 479.876 461.888 479.886 461.957C479.928 462.613 480.148 463.244 480.522 463.783C480.73 464.066 481.219 463.783 481.011 463.474C480.68 463.003 480.485 462.448 480.449 461.871C480.448 461.827 480.436 461.785 480.415 461.746C480.395 461.708 480.365 461.675 480.329 461.651C480.293 461.627 480.252 461.612 480.209 461.607C480.166 461.602 480.122 461.608 480.082 461.624Z" fill="#407BFF"/>
<path d="M478.455 462.821C478.392 462.849 478.339 462.896 478.304 462.956C478.269 463.015 478.253 463.085 478.259 463.154C478.307 463.808 478.526 464.438 478.895 464.979C479.103 465.263 479.592 464.979 479.397 464.671C479.063 464.199 478.865 463.645 478.822 463.067C478.82 463.025 478.809 462.984 478.789 462.947C478.768 462.91 478.74 462.878 478.706 462.854C478.671 462.83 478.632 462.815 478.59 462.809C478.549 462.803 478.507 462.807 478.467 462.821H478.455Z" fill="#407BFF"/>
<path opacity="0.2" d="M485.005 475.389C485.764 474.462 486.679 473.677 487.708 473.07L498.363 452.83C497.703 452.463 497.001 452.181 496.271 451.991C495.867 451.991 495.5 451.917 495.133 451.905L478.008 484.491L478.448 484.652L481.396 485.786L485.213 478.386C484.932 477.944 484.766 477.438 484.729 476.914C484.693 476.391 484.788 475.866 485.005 475.389Z" fill="white"/>
<path d="M478.595 463.141C477.86 462.843 477.148 462.488 476.466 462.081C475.787 461.663 475.23 461.072 474.852 460.366C474.753 460.209 474.695 460.03 474.682 459.845C474.67 459.66 474.702 459.475 474.778 459.305C474.898 459.153 475.057 459.037 475.239 458.972C475.421 458.906 475.617 458.894 475.806 458.935C476.178 459.005 476.533 459.15 476.849 459.362C477.164 459.574 477.433 459.849 477.641 460.169C478.104 461.123 478.426 462.142 478.595 463.191" stroke="#407BFF" stroke-width="0.25" stroke-miterlimit="10"/>
<path d="M478.548 463.228C477.765 463.133 476.975 463.113 476.188 463.166C475.393 463.218 474.626 463.478 473.961 463.918C473.802 464.011 473.668 464.142 473.57 464.299C473.472 464.456 473.413 464.634 473.398 464.819C473.435 465.011 473.524 465.189 473.656 465.333C473.788 465.477 473.957 465.581 474.145 465.633C474.5 465.747 474.874 465.789 475.245 465.758C475.617 465.726 475.979 465.62 476.31 465.448C477.164 464.827 477.919 464.078 478.548 463.228Z" stroke="#407BFF" stroke-width="0.25" stroke-miterlimit="10"/>
<path d="M343.511 459.515C338.043 450.129 325.786 424.746 352.282 420.663C378.777 416.58 465.543 461.365 465.543 461.365L459.427 478.139L377.897 462.685C377.897 462.685 388.661 478.102 375.083 477.005C355.401 474.452 350.801 469.53 343.511 459.515Z" fill="#263238"/>
<path opacity="0.2" d="M379.862 463.191L357.586 455.396C357.586 455.396 376.106 467.582 382.981 469.173L379.862 463.191Z" fill="black"/>
<path d="M367.977 328.602C373.958 322.818 372.76 307.116 371.169 299.001L390.02 313.653C389.64 314.601 389.325 315.573 389.078 316.564C388.575 318.345 388.529 320.225 388.943 322.028C389.359 323.508 391.255 327.591 391.255 327.591C391.255 327.591 392.478 332.216 380.246 332.709C374.851 333.523 367.977 328.602 367.977 328.602Z" fill="#895555"/>
<path opacity="0.2" d="M374.865 307.116C374.327 316.712 384.076 320.782 388.957 322.028C388.536 320.23 388.583 318.352 389.092 316.577L374.865 307.116Z" fill="black"/>
<path d="M367.691 292.069C370.554 303.169 371.936 309.546 378.86 314.184C389.27 321.152 402.2 313.481 402.799 301.677C403.337 291.045 398.567 274.616 386.444 272.372C383.796 271.829 381.055 271.97 378.475 272.782C375.896 273.594 373.562 275.05 371.691 277.016C369.82 278.982 368.472 281.392 367.772 284.024C367.073 286.656 367.045 289.423 367.691 292.069Z" fill="#895555"/>
<path d="M362.861 276.898C363.289 269.942 380.255 266.661 385.65 269.152C386.457 269.535 377.344 276.38 377.907 276.047L373.478 278.514C372.72 278.514 371.448 279.599 371.13 281.955C371.13 281.955 375.191 300.32 370.873 306.685C366.188 305.451 364.536 298.174 362.31 294.067C359.081 287.986 354.836 278.933 362.861 276.898Z" fill="#263238"/>
<path d="M364.931 302.318C365.636 303.582 366.584 304.691 367.718 305.582C368.851 306.474 370.15 307.129 371.537 307.511C375.292 308.535 375.867 304.613 374.864 301.122C373.959 297.989 372.258 294.277 368.466 294.782C367.647 294.884 366.867 295.193 366.199 295.68C365.53 296.168 364.994 296.817 364.642 297.569C364.289 298.321 364.13 299.151 364.181 299.981C364.232 300.812 364.49 301.616 364.931 302.318Z" fill="#895555"/>
<path d="M383.314 291.724C383.535 292.883 384.342 293.685 385.1 293.537C385.859 293.389 386.324 292.303 386.104 291.169C385.883 290.034 385.076 289.207 384.305 289.355C383.535 289.503 383.094 290.576 383.314 291.724Z" fill="#263238"/>
<path d="M394.939 290.367C395.16 291.526 395.955 292.34 396.725 292.18C397.496 292.02 397.949 290.946 397.729 289.812C397.508 288.677 396.701 287.851 395.93 288.011C395.16 288.171 394.719 289.22 394.939 290.367Z" fill="#263238"/>
<path d="M392.492 290.317C392.492 290.317 397.324 295.35 398.963 297.459C397.605 299.21 394.645 299.075 394.645 299.075L392.492 290.317Z" fill="#6D3939"/>
<path d="M380.854 287.308C380.95 287.327 381.05 287.321 381.145 287.291C381.239 287.261 381.324 287.207 381.392 287.135C381.851 286.597 382.425 286.172 383.072 285.892C383.718 285.612 384.42 285.485 385.123 285.52C385.27 285.541 385.42 285.504 385.541 285.417C385.661 285.33 385.744 285.198 385.771 285.051C385.788 284.905 385.748 284.759 385.659 284.643C385.569 284.528 385.438 284.453 385.294 284.434C384.406 284.372 383.516 284.519 382.695 284.864C381.873 285.209 381.142 285.741 380.56 286.42C380.509 286.469 380.468 286.529 380.441 286.594C380.413 286.66 380.398 286.731 380.398 286.802C380.398 286.874 380.413 286.944 380.441 287.01C380.468 287.076 380.509 287.135 380.56 287.185C380.642 287.257 380.745 287.3 380.854 287.308Z" fill="#263238"/>
<path opacity="0.2" d="M366.961 298.705C367.162 298.332 367.465 298.026 367.833 297.823C368.202 297.619 368.621 297.527 369.04 297.557C369.883 297.642 370.672 298.011 371.279 298.606C372.012 299.275 372.56 300.125 372.869 301.073" stroke="black" stroke-width="0.5" stroke-linecap="round" stroke-linejoin="round"/>
<path d="M400.539 284.409C400.64 284.366 400.728 284.298 400.796 284.212C400.837 284.152 400.865 284.084 400.879 284.012C400.893 283.941 400.893 283.867 400.878 283.796C400.863 283.724 400.834 283.657 400.793 283.597C400.751 283.537 400.699 283.486 400.637 283.447C399.907 282.947 399.07 282.628 398.194 282.516C397.318 282.405 396.428 282.504 395.597 282.806C395.53 282.833 395.468 282.874 395.416 282.925C395.364 282.976 395.322 283.038 395.294 283.105C395.265 283.173 395.25 283.246 395.25 283.319C395.25 283.393 395.264 283.466 395.292 283.534C395.353 283.668 395.464 283.773 395.601 283.826C395.739 283.879 395.891 283.876 396.026 283.817C396.686 283.581 397.393 283.507 398.087 283.604C398.781 283.701 399.442 283.964 400.013 284.372C400.092 284.421 400.18 284.449 400.272 284.455C400.363 284.462 400.455 284.446 400.539 284.409Z" fill="#263238"/>
<path d="M394.433 302.96C393.539 304.266 392.746 305.639 392.06 307.067L391.265 306.82C387.669 305.673 386.372 303.947 386.042 302.38C385.897 301.606 385.93 300.808 386.139 300.049C386.251 299.617 386.42 299.202 386.641 298.816C388.195 300.579 391.448 301.899 393.222 302.516C393.993 302.787 394.433 302.96 394.433 302.96Z" fill="#263238"/>
<path d="M393.266 302.528L392.532 303.761C389.156 302.676 386.929 301.467 386.195 300.061C386.302 299.628 386.471 299.212 386.697 298.828C388.25 300.579 391.492 301.887 393.266 302.528Z" fill="white"/>
<path d="M391.301 306.796C387.705 305.649 386.408 303.922 386.078 302.355C387.437 302.814 388.704 303.511 389.821 304.415C390.549 305.033 391.067 305.866 391.301 306.796Z" fill="#C15854"/>
<path d="M368.336 274.974C368.336 274.974 373.535 257.793 389.131 258.2C387.729 258.775 386.446 259.612 385.352 260.667C385.352 260.667 398.257 257.077 404.043 265.6L401.254 264.601C401.254 264.601 405.988 271.656 403.003 277.465L401.78 274.999C401.78 274.999 397.633 282.707 389.266 282.288L391.774 280.352C391.774 280.352 377.902 282.485 373.902 279.587C371.883 278.261 370.017 276.714 368.336 274.974Z" fill="#263238"/>
</svg>
