<svg width="487" height="409" viewBox="0 0 487 409" fill="none" xmlns="http://www.w3.org/2000/svg">
<path d="M238.926 89.9109L239.029 388.658C239.031 393.371 240.904 397.89 244.237 401.221C247.569 404.553 252.089 406.424 256.801 406.423L412.962 406.37C417.675 406.368 422.195 404.494 425.526 401.16C428.857 397.826 430.728 393.305 430.727 388.592L430.608 89.8448C430.607 87.5115 430.146 85.2013 429.252 83.046C428.358 80.8907 427.049 78.9326 425.398 77.2834C423.748 75.6343 421.788 74.3264 419.632 73.4344C417.476 72.5425 415.166 72.0839 412.833 72.085L256.672 72.1378C251.963 72.1449 247.449 74.0205 244.122 77.3528C240.795 80.6851 238.926 85.2018 238.926 89.9109Z" fill="#C2CFFF"/>
<path d="M256.791 408.654L412.952 408.599C418.255 408.591 423.338 406.48 427.086 402.73C430.834 398.979 432.941 393.894 432.945 388.592L432.842 89.8471C432.834 84.5446 430.723 79.4619 426.972 75.7137C423.222 71.9656 418.138 69.8579 412.836 69.853L256.675 69.9059C251.373 69.9143 246.29 72.0253 242.542 75.776C238.795 79.5266 236.687 84.6107 236.682 89.9132L236.785 388.66C236.794 393.963 238.904 399.046 242.655 402.794C246.405 406.542 251.489 408.65 256.791 408.654ZM412.836 74.3135C416.956 74.317 420.906 75.9542 423.82 78.8662C426.734 81.7782 428.375 85.7272 428.382 89.8471L428.49 388.594C428.488 392.716 426.851 396.668 423.938 399.583C421.025 402.499 417.074 404.139 412.952 404.144L256.789 404.197C252.669 404.194 248.719 402.557 245.805 399.644C242.891 396.732 241.251 392.783 241.245 388.663L241.142 89.9185C241.146 85.7985 242.783 81.8482 245.695 78.9337C248.607 76.0193 252.555 74.3786 256.675 74.3716L412.836 74.3135Z" fill="#163560"/>
<path d="M401.481 100.466L404.106 102.351L406.75 100.484C406.452 100.064 406.059 99.7211 405.602 99.4838C405.145 99.2465 404.638 99.1217 404.123 99.1199C403.608 99.1181 403.1 99.2393 402.641 99.4734C402.183 99.7075 401.787 100.048 401.486 100.466H401.481Z" fill="white"/>
<path d="M404.097 94.53C405.35 94.5296 406.584 94.8309 407.696 95.4085C408.808 95.9861 409.764 96.8229 410.484 97.8483L408.819 99.0169C408.287 98.2638 407.583 97.6489 406.766 97.2236C405.948 96.7982 405.04 96.5748 404.119 96.5719C403.197 96.5691 402.288 96.7869 401.468 97.2072C400.648 97.6275 399.94 98.2381 399.404 98.9878L397.746 97.798C398.468 96.787 399.421 95.9631 400.526 95.3947C401.63 94.8263 402.854 94.5298 404.097 94.53Z" fill="white"/>
<path d="M404.091 85.8047C406.742 85.8038 409.354 86.4409 411.707 87.6623C414.06 88.8836 416.084 90.6533 417.609 92.8219L415.944 93.9906C414.611 92.0986 412.844 90.5534 410.792 89.4842C408.739 88.4151 406.46 87.8531 404.146 87.8453C401.832 87.8376 399.549 88.3842 397.49 89.4396C395.43 90.4949 393.653 92.0282 392.307 93.9112L390.652 92.7214C392.18 90.582 394.197 88.8383 396.534 87.6353C398.872 86.4322 401.462 85.8046 404.091 85.8047Z" fill="white"/>
<path d="M404.087 90.5637C405.974 90.5631 407.834 91.0146 409.511 91.8803C411.188 92.746 412.634 94.0009 413.727 95.5398L412.058 96.7111C411.157 95.4447 409.967 94.4114 408.587 93.6966C407.207 92.9818 405.677 92.6061 404.122 92.6007C402.568 92.5952 401.035 92.9602 399.65 93.6654C398.265 94.3705 397.068 95.3955 396.158 96.6555L394.503 95.471C395.598 93.9524 397.037 92.7156 398.704 91.8624C400.37 91.0093 402.215 90.5641 404.087 90.5637Z" fill="white"/>
<path d="M369.032 41.007C369.032 41.007 380.422 35.5339 395.133 38.5401C395.133 38.5401 378.305 37.39 368.326 48.0718C368.326 48.0718 361.347 37.3715 349.819 34.9178C349.811 34.9178 358.407 33.892 369.032 41.007Z" fill="#9FC1F4"/>
<path d="M401.137 35.8512C401.137 35.8512 409.92 31.5679 421.312 33.8258C421.312 33.8258 408.291 33.0141 400.624 41.319C400.624 41.319 395.178 33.0749 386.244 31.2294C386.244 31.2294 392.888 30.3966 401.137 35.8512Z" fill="#9FC1F4"/>
<path d="M429.468 31.9459C429.468 31.9459 437.622 28.3897 447.898 30.8883C447.898 30.8883 436.086 29.6482 428.791 36.9087C428.791 36.9087 424.154 29.1988 416.1 27.1761C416.1 27.1682 422.176 26.6684 429.468 31.9459Z" fill="#9FC1F4"/>
<path d="M445.338 23.7521C445.338 23.7521 451.06 21.8695 457.836 24.1989C457.836 24.1989 449.949 22.6125 444.572 27.0518C444.572 27.0518 441.928 21.5602 436.627 19.6882C436.624 19.6882 440.754 19.7332 445.338 23.7521Z" fill="#9FC1F4"/>
<path d="M388.5 3.60494C388.5 3.60494 394.115 1.42627 401 3.39871C401 3.39871 393.039 2.23005 387.902 6.93904C387.902 6.93904 384.978 1.59284 379.585 0.00114655C379.59 0.00114655 383.709 -0.168069 388.5 3.60494Z" fill="#9FC1F4"/>
<path d="M360.817 23.0118C360.817 23.0118 368.656 19.0617 378.914 20.9522C378.914 20.9522 367.21 20.3784 360.407 27.9297C360.407 27.9297 355.418 20.5899 347.37 19.0379C347.381 19.0379 353.34 18.213 360.817 23.0118Z" fill="#9FC1F4"/>
<path d="M371.73 10.749C371.73 10.749 379.109 7.36992 388.523 9.4772C388.523 9.4772 377.728 8.53857 371.193 15.2782C371.193 15.2782 366.838 8.32177 359.459 6.60845C359.459 6.60845 364.993 6.0532 371.73 10.749Z" fill="#9FC1F4"/>
<path d="M241.197 212.85H428.484V348.435H241.197V212.85Z" fill="#F78E48"/>
<path d="M288.356 385.231V403.523C288.356 403.747 288.356 403.972 288.356 404.192H382.023C382.023 403.972 382.023 403.747 382.023 403.523V385.231C382.023 376.89 376.638 370.063 370.057 370.063H300.309C293.742 370.063 288.356 376.89 288.356 385.231Z" fill="#F78248"/>
<path d="M335.292 393.336L341.32 387.939L339.628 386.046L335.734 389.534L330.346 381.824L328.262 383.278L335.292 393.336Z" fill="#FFE3CA"/>
<path d="M334.793 399.121C337.075 399.12 339.305 398.443 341.202 397.175C343.099 395.907 344.578 394.104 345.451 391.996C346.323 389.888 346.552 387.568 346.106 385.33C345.661 383.091 344.562 381.036 342.948 379.422C341.334 377.809 339.278 376.71 337.04 376.265C334.802 375.82 332.482 376.049 330.374 376.922C328.266 377.796 326.464 379.275 325.197 381.172C323.929 383.069 323.252 385.3 323.252 387.582C323.256 390.642 324.473 393.575 326.636 395.738C328.8 397.901 331.733 399.118 334.793 399.121ZM334.793 376.647C336.958 376.647 339.074 377.289 340.874 378.491C342.674 379.694 344.077 381.404 344.905 383.404C345.734 385.404 345.951 387.605 345.528 389.728C345.106 391.852 344.063 393.802 342.533 395.333C341.002 396.864 339.052 397.906 336.928 398.329C334.805 398.751 332.604 398.534 330.604 397.706C328.604 396.877 326.895 395.474 325.692 393.674C324.489 391.874 323.847 389.758 323.847 387.593C323.851 384.691 325.005 381.909 327.057 379.856C329.109 377.804 331.891 376.65 334.793 376.647Z" fill="#FFE3CA"/>
<path d="M411.711 124.64C411.711 124.64 407.375 114.984 397.006 116.055C397.006 116.055 381.949 99.9606 365.895 113.91C365.895 113.91 348.829 110.452 336.188 116.903C327.762 121.203 324.978 125.713 324.978 125.713L411.711 124.64Z" fill="#EBF3FA"/>
<path d="M350.634 101.811H350.473C349.816 101.806 349.184 101.559 348.696 101.119C346.515 99.1252 339.871 94.165 332.716 99.8629C332.438 100.082 332.118 100.243 331.776 100.334C331.433 100.425 331.076 100.444 330.725 100.392C327.963 99.9871 320.742 99.3341 315.09 102.361C314.936 102.443 314.786 102.525 314.637 102.61C312.284 103.932 313.273 107.528 315.959 107.493L350.547 107.044C353.936 106.996 354.023 101.933 350.634 101.811Z" fill="#EBF3FA"/>
<path d="M264.238 328.541H301.414C304.499 328.541 307.458 327.316 309.64 325.134C311.821 322.952 313.047 319.993 313.047 316.908V238.381C313.047 235.295 311.821 232.336 309.64 230.154C307.458 227.973 304.499 226.747 301.414 226.747H264.238C261.153 226.747 258.194 227.973 256.012 230.154C253.831 232.336 252.605 235.295 252.605 238.381V316.908C252.605 319.993 253.831 322.952 256.012 325.134C258.194 327.316 261.153 328.541 264.238 328.541ZM301.414 227.95C304.183 227.953 306.838 229.055 308.795 231.014C310.753 232.972 311.854 235.627 311.857 238.396V316.924C311.854 319.692 310.752 322.347 308.794 324.305C306.837 326.262 304.182 327.364 301.414 327.367H264.238C261.469 327.365 258.814 326.264 256.856 324.306C254.897 322.348 253.796 319.693 253.792 316.924V238.396C253.796 235.627 254.897 232.972 256.856 231.013C258.814 229.055 261.469 227.953 264.238 227.95H301.414Z" fill="#FFE3CA"/>
<path d="M329.914 227.357H383.621C388.348 227.357 392.18 231.189 392.18 235.916V269.384C392.18 274.111 388.348 277.943 383.621 277.943H329.914C325.187 277.943 321.355 274.111 321.355 269.384V235.916C321.355 231.189 325.187 227.357 329.914 227.357Z" fill="#FFE3CA"/>
<path d="M329.106 328.541H384.401C386.617 328.538 388.741 327.656 390.308 326.089C391.875 324.522 392.756 322.397 392.758 320.181V294.053C392.756 291.836 391.875 289.711 390.308 288.144C388.741 286.577 386.617 285.695 384.401 285.692H329.106C326.89 285.695 324.766 286.577 323.199 288.144C321.632 289.711 320.751 291.836 320.749 294.053V320.181C320.751 322.397 321.632 324.522 323.199 326.089C324.766 327.656 326.89 328.538 329.106 328.541ZM384.401 286.879C386.302 286.881 388.125 287.638 389.47 288.983C390.815 290.327 391.571 292.151 391.573 294.053V320.181C391.571 322.082 390.815 323.906 389.47 325.251C388.125 326.595 386.302 327.352 384.401 327.354H329.106C327.205 327.351 325.383 326.594 324.038 325.25C322.694 323.905 321.938 322.082 321.936 320.181V294.053C321.938 292.151 322.694 290.328 324.038 288.984C325.383 287.639 327.205 286.882 329.106 286.879H384.401Z" fill="#FFE3CA"/>
<path d="M298.281 255.511C298.281 264.688 282.825 279.36 282.825 279.36C282.825 279.36 267.372 264.688 267.372 255.511C267.372 246.334 274.291 238.893 282.812 238.893C291.333 238.893 298.281 246.334 298.281 255.511ZM291.936 254.535C291.936 252.734 291.402 250.973 290.401 249.475C289.4 247.977 287.978 246.809 286.313 246.12C284.649 245.431 282.818 245.25 281.051 245.602C279.284 245.953 277.661 246.821 276.387 248.095C275.114 249.368 274.246 250.991 273.895 252.758C273.543 254.525 273.724 256.357 274.413 258.021C275.102 259.685 276.27 261.108 277.768 262.109C279.265 263.11 281.026 263.644 282.828 263.644C285.242 263.639 287.555 262.678 289.262 260.971C290.969 259.263 291.929 256.949 291.933 254.535H291.936Z" fill="#FFE3CA"/>
<path d="M328.546 260.839H329.278C329.303 260.836 329.327 260.836 329.352 260.839L334.962 262.372C335.031 262.39 335.104 262.384 335.169 262.354L343.053 259.316C343.256 259.221 342.035 258.623 341.855 258.493C339.883 257.058 333.63 253.56 331.279 252.008C331.196 251.952 331.13 251.874 331.09 251.782C331.051 251.689 331.039 251.587 331.057 251.489C331.075 251.39 331.121 251.298 331.19 251.226C331.259 251.153 331.348 251.102 331.446 251.08C331.657 251.029 331.879 251.042 332.083 251.117L343.568 255.286L345.112 254.308C345.221 254.24 345.352 254.218 345.476 254.247C345.601 254.275 345.71 254.351 345.778 254.459L346.535 255.656C346.602 255.763 346.625 255.891 346.599 256.013C346.573 256.136 346.501 256.244 346.397 256.315L347.878 256.844C347.947 256.871 348.025 256.871 348.094 256.844L355.162 253.827C355.788 253.562 356.486 253.521 357.139 253.71L357.954 253.948C358.083 253.987 358.204 254.051 358.308 254.137C358.413 254.223 358.499 254.33 358.561 254.45C358.623 254.571 358.66 254.702 358.669 254.837C358.679 254.972 358.661 255.108 358.617 255.236L358.525 255.5C358.376 255.937 358.133 256.335 357.813 256.667C357.494 256.998 357.104 257.256 356.674 257.42L350.942 259.577C350.887 259.597 350.84 259.633 350.806 259.68C350.772 259.728 350.753 259.784 350.752 259.842L350.699 262.319L351.019 262.161C351.127 262.093 351.257 262.071 351.382 262.098C351.507 262.126 351.616 262.202 351.685 262.309L352.441 263.506C352.509 263.615 352.532 263.746 352.503 263.871C352.475 263.996 352.399 264.104 352.29 264.173L350.633 265.23L350.553 269.096C350.546 269.408 350.446 269.71 350.268 269.966C350.04 270.294 349.802 270.656 349.718 270.616C349.453 270.495 346.849 264.535 345.966 262.2C345.916 262.068 344.79 262.489 344.644 262.539L336.829 264.918C336.78 264.937 336.737 264.969 336.704 265.01C336.671 265.05 336.649 265.099 336.641 265.151L336.295 267.433C336.255 267.688 336.13 267.922 335.941 268.096C335.909 268.126 335.872 268.148 335.831 268.161C335.79 268.174 335.747 268.178 335.704 268.173C335.662 268.168 335.621 268.153 335.584 268.13C335.548 268.108 335.517 268.077 335.494 268.041L333.677 265.257C333.652 265.217 333.617 265.183 333.575 265.16C333.534 265.136 333.487 265.123 333.439 265.122L332.599 265.096C332.54 265.094 332.484 265.075 332.436 265.041C332.388 265.007 332.352 264.96 332.331 264.906C332.31 264.851 332.306 264.791 332.319 264.734C332.331 264.677 332.361 264.626 332.403 264.585L332.609 264.39L328.379 261.381C328.326 261.345 328.286 261.294 328.265 261.234C328.244 261.174 328.242 261.109 328.261 261.048C328.28 260.987 328.317 260.934 328.369 260.896C328.42 260.858 328.482 260.838 328.546 260.839Z" fill="#F78E48"/>
<path d="M339.811 318.676C342.097 318.676 344.331 317.997 346.231 316.727C348.131 315.457 349.613 313.652 350.487 311.54C351.362 309.428 351.591 307.105 351.145 304.863C350.7 302.621 349.599 300.561 347.983 298.944C346.368 297.328 344.309 296.226 342.067 295.78C339.825 295.333 337.502 295.561 335.39 296.435C333.277 297.309 331.472 298.789 330.201 300.689C328.93 302.589 328.251 304.823 328.249 307.109C328.251 310.175 329.469 313.116 331.637 315.285C333.804 317.454 336.744 318.673 339.811 318.676ZM339.811 296.823C341.847 296.823 343.838 297.427 345.531 298.559C347.224 299.69 348.543 301.298 349.323 303.18C350.102 305.061 350.306 307.131 349.908 309.129C349.511 311.126 348.53 312.961 347.09 314.4C345.65 315.84 343.815 316.82 341.818 317.217C339.82 317.614 337.75 317.41 335.869 316.63C333.988 315.851 332.38 314.531 331.249 312.837C330.118 311.144 329.515 309.153 329.515 307.117C329.52 304.388 330.607 301.772 332.537 299.843C334.466 297.913 337.082 296.828 339.811 296.823Z" fill="#FFE3CA"/>
<path d="M339.814 301.424H339.973C340.195 301.424 340.375 301.604 340.375 301.826V308.267C340.375 308.489 340.195 308.669 339.973 308.669H339.814C339.593 308.669 339.413 308.489 339.413 308.267V301.826C339.413 301.604 339.593 301.424 339.814 301.424Z" fill="#FFE3CA"/>
<path d="M340.026 308.457C340.07 308.414 340.094 308.356 340.094 308.295C340.094 308.234 340.07 308.175 340.026 308.132L333.599 301.705C333.556 301.661 333.498 301.637 333.437 301.637C333.376 301.637 333.317 301.661 333.274 301.705C333.231 301.748 333.206 301.807 333.206 301.868C333.206 301.93 333.231 301.989 333.274 302.032L339.701 308.457C339.744 308.5 339.803 308.525 339.864 308.525C339.925 308.525 339.983 308.5 340.026 308.457Z" fill="#FFE3CA"/>
<path d="M340.531 308.227C340.531 308.102 340.494 307.98 340.425 307.876C340.355 307.772 340.257 307.691 340.141 307.644C340.026 307.596 339.899 307.583 339.776 307.608C339.653 307.632 339.541 307.692 339.453 307.781C339.364 307.869 339.304 307.982 339.28 308.104C339.255 308.227 339.268 308.354 339.316 308.469C339.363 308.585 339.444 308.683 339.548 308.753C339.652 308.822 339.774 308.859 339.899 308.859C339.982 308.859 340.064 308.843 340.141 308.811C340.218 308.779 340.287 308.733 340.346 308.674C340.405 308.616 340.451 308.546 340.483 308.469C340.515 308.393 340.531 308.31 340.531 308.227Z" fill="#FFE3CA"/>
<path d="M359.131 293.271H384.547V295.907H359.131V293.271Z" fill="#FFE3CA"/>
<path d="M359.131 299.288H384.547V301.943H359.131V299.288Z" fill="#FFE3CA"/>
<path d="M369.308 305.324H384.547V307.979H369.308V305.324Z" fill="#FFE3CA"/>
<path d="M270.116 293.384H295.531V296.02H270.116V293.384Z" fill="#FFE3CA"/>
<path d="M270.116 299.399H295.531V302.053H270.116V299.399Z" fill="#FFE3CA"/>
<path d="M280.292 305.436H295.531V308.09H280.292V305.436Z" fill="#FFE3CA"/>
<path d="M357.553 238.991H382.969V241.627H357.553V238.991Z" fill="#F78E48"/>
<path d="M357.553 245.009H382.969V247.663H357.553V245.009Z" fill="#F78E48"/>
<path d="M367.729 251.045H382.969V253.7H367.729V251.045Z" fill="#F78E48"/>
<path d="M428.4 159.16C428.4 159.16 420.312 158.599 418.551 164.942C418.551 164.942 412.325 152.251 399.174 153.309C386.024 154.366 383.591 162.09 383.591 162.09C383.591 162.09 376.056 159.501 369.801 162.954C368.022 163.892 366.535 165.3 365.502 167.025C364.47 168.75 363.931 170.726 363.945 172.737C363.945 172.737 358.207 164.683 346.675 167.56C346.675 167.56 348.975 155.926 335.108 153.253C321.241 150.58 315.353 155.194 315.353 155.194C315.353 155.194 299.645 145.078 285.741 157.759C285.741 157.759 275.554 155.778 270.573 162.055C270.573 162.055 260.368 149.721 241.168 151.886V212.849H428.484L428.4 159.16Z" fill="#D7E2FF"/>
<path d="M428.402 189.588C428.402 189.588 414.802 186.151 402.664 194.16C402.664 194.16 399.706 190.635 392.001 191.516C384.297 192.396 382.174 199.498 382.174 199.498C382.174 199.498 355.207 190.595 341.866 212.85H428.484L428.402 189.588Z" fill="#EBF3FA"/>
<path d="M325.281 212.85C325.281 212.85 324.594 199.204 310.346 195.928C310.346 195.928 317.725 192.665 314.005 184.559C310.285 176.452 301.251 175.855 301.251 175.855C301.251 175.855 300.307 161.183 274.693 163.716C267.499 164.427 259.887 168.74 258.698 176.251C258.698 176.251 255.919 171.68 250.163 171.987C250.163 171.987 249.452 163.645 241.174 163.716V212.85H325.281Z" fill="#EBF3FA"/>
<path d="M253.206 95.5081L263.959 132.76L264.297 132.717L301.031 128.254C301.031 128.254 284.018 124.716 282.26 122.675C280.594 120.75 262.928 97.9247 257.761 95.4843C257.518 95.352 257.246 95.2804 256.968 95.2754L253.206 95.5081Z" fill="#739AF0"/>
<path d="M264.297 132.717L301.031 128.254C301.031 128.254 284.018 124.717 282.26 122.675C280.594 120.751 262.928 97.9248 257.761 95.4844C262.335 102.129 272.94 118.096 272.491 122.739C272.052 127.16 266.878 131.041 264.297 132.717Z" fill="#2B478B"/>
<path d="M260.316 143.936C261.569 144.364 265.316 145.543 270.458 147.04C285.242 151.339 311.538 158.245 323.142 157.391C333.554 156.627 388.608 152.423 426.688 149.084C417.474 132.902 405.986 123.966 395.471 119.058C351.104 122.694 293.079 127.606 285.697 129.034C273.554 131.382 257.442 133.291 257.442 133.291C257.442 133.291 257.334 133.783 257.231 134.565C256.895 137.098 256.599 142.651 260.316 143.936Z" fill="#E58638"/>
<path d="M257.047 137.26C257.047 137.35 257.047 137.445 257.047 137.54C257.079 139.56 257.492 141.813 258.919 143.111C258.967 143.156 259.017 143.198 259.067 143.241C259.17 143.323 259.276 143.405 259.385 143.476L259.556 143.582L259.734 143.682C259.792 143.714 259.853 143.743 259.916 143.772L260.112 143.857C260.175 143.883 260.244 143.907 260.313 143.931C260.332 143.94 260.352 143.947 260.373 143.952L260.437 143.973L260.503 143.994L260.577 144.015C260.602 144.021 260.627 144.029 260.651 144.039L260.728 144.063L260.807 144.089L260.894 144.116L260.981 144.145L261.071 144.174L261.267 144.24L261.365 144.272L261.471 144.304L261.547 144.327L262.473 144.624L262.666 144.682C263.554 144.962 264.633 145.295 265.873 145.671L266.264 145.787C266.481 145.853 266.7 145.922 266.928 145.988L267.076 146.03L267.282 146.094L267.493 146.154L267.708 146.221L267.924 146.284L268.138 146.347L268.361 146.414L268.583 146.48L268.807 146.543L268.969 146.593C268.991 146.597 269.013 146.603 269.035 146.612L269.262 146.675C269.648 146.792 270.039 146.905 270.444 147.019C270.671 147.09 270.907 147.157 271.145 147.225L271.758 147.402L272.226 147.537C272.837 147.712 273.463 147.892 274.106 148.066C274.235 148.103 274.37 148.137 274.492 148.177L275.166 148.365C275.369 148.426 275.576 148.481 275.785 148.539L276.475 148.732C284.158 150.863 293.472 153.256 302.12 154.993L303.027 155.173L303.477 155.263L304.376 155.432C305.269 155.604 306.155 155.768 307.019 155.919L307.887 156.07L308.318 156.141L309.171 156.281C309.454 156.329 309.737 156.371 310.018 156.413L310.85 156.538C311.115 156.58 311.403 156.622 311.673 156.659L312.484 156.77L313.277 156.876L313.671 156.924C314.2 156.987 314.713 157.045 315.218 157.098L315.596 157.135L316.342 157.209C316.831 157.251 317.312 157.291 317.783 157.32C318.134 157.347 318.481 157.365 318.819 157.381C319.046 157.394 319.271 157.402 319.493 157.41C319.824 157.423 320.149 157.431 320.464 157.434C320.889 157.434 321.299 157.434 321.696 157.434C321.894 157.434 322.09 157.434 322.283 157.415C322.378 157.415 322.47 157.415 322.568 157.415C322.757 157.415 322.942 157.405 323.123 157.384L323.324 157.368H323.374H323.507L324.035 157.328H324.191L324.384 157.312L324.691 157.291H324.86H325.03L325.386 157.265L325.754 157.238L325.947 157.222L326.428 157.185L326.661 157.167L327.163 157.13L327.383 157.114L328.028 157.066L329.979 156.918L330.243 156.897L330.772 156.86L331.565 156.799L331.898 156.773L332.691 156.715L332.982 156.693L333.535 156.649L334.143 156.601L334.468 156.577L334.772 156.553L335.264 156.516L338.22 156.292L338.669 156.257L339.357 156.204L340.991 156.077H341.12L342.577 155.966H342.646L352.076 155.234L352.584 155.194L354.633 155.038L355.934 154.933H356.005L357.51 154.816H357.695L360.381 154.605L361.076 154.549L361.29 154.533L363.686 154.343L364.743 154.261L365.447 154.208L366.874 154.092L369.029 153.923L369.219 153.909C369.518 153.88 369.814 153.859 370.11 153.835H370.176L372.847 153.626H372.921L373.185 153.603L374.771 153.478L375.969 153.383C376.218 153.365 376.466 153.346 376.715 153.322L379.84 153.076H379.866L385.093 152.653L385.81 152.595H385.86L388.168 152.408L388.877 152.349L390.862 152.188L394.899 151.858L397.453 151.651C397.982 151.604 398.511 151.559 399.04 151.517L402.9 151.112L403.08 151.096L405.459 150.898L408.83 150.615L410.17 150.504L410.58 150.469L413.277 150.242L413.671 150.21L415.503 150.052C418.085 149.831 420.616 149.615 423.096 149.401L423.993 149.325L424.521 149.277L425.248 149.214L426.684 149.089C435.917 148.28 444.152 147.519 450.511 146.874C451.159 146.81 451.788 146.744 452.393 146.681C453.906 146.525 455.288 146.374 456.531 146.231C460.055 145.832 462.453 145.499 463.405 145.258C468.561 143.973 477.137 140.536 482.399 137.004C485.571 134.865 487.53 132.681 486.801 130.877C485.875 128.585 483.863 127.2 481.798 126.182C480.006 125.296 478.176 124.688 476.979 123.995C476.907 123.955 476.841 123.913 476.775 123.873C476.569 123.747 476.374 123.603 476.193 123.442C476.167 123.416 476.141 123.395 476.109 123.36C475.641 122.937 474.871 122.226 473.761 121.393C472.901 120.75 472.006 120.155 471.08 119.611H471.064C466.461 116.92 458.768 114.059 447.045 114.913C447.045 114.913 424.104 116.727 395.489 119.072L386.78 119.788C385.799 119.868 384.81 119.947 383.822 120.032L379.327 120.402L371.781 121.028L370.264 121.155L367.229 121.42L361.148 121.933L358.12 122.197C354.517 122.501 350.934 122.805 347.402 123.109H347.386C337.181 123.987 327.396 124.841 318.716 125.626L317.349 125.751C312.254 126.213 307.567 126.652 303.432 127.051L297.879 127.604C291.693 128.236 287.378 128.741 285.694 129.069C281.318 129.915 276.44 130.703 271.967 131.366L270.872 131.525H270.817C270.264 131.61 269.719 131.686 269.183 131.763H269.135L267.322 132.027C266.457 132.149 265.632 132.26 264.849 132.366L263.858 132.501C260.006 133.014 257.439 133.318 257.439 133.318C257.439 133.318 257.423 133.387 257.399 133.513V133.548C257.399 133.582 257.386 133.619 257.378 133.661C257.378 133.743 257.346 133.841 257.33 133.95C257.314 134.058 257.28 134.259 257.256 134.447C257.256 134.492 257.256 134.539 257.238 134.587C257.217 134.743 257.195 134.907 257.174 135.087C257.174 135.208 257.148 135.351 257.135 135.47C257.135 135.544 257.121 135.618 257.116 135.692C257.111 135.766 257.116 135.859 257.098 135.941C257.079 136.023 257.082 136.184 257.074 136.308C257.074 136.358 257.074 136.411 257.074 136.462C257.074 136.512 257.074 136.641 257.074 136.726C257.074 136.811 257.074 136.818 257.074 136.863C257.074 136.956 257.074 137.048 257.074 137.128C257.05 137.162 257.05 137.212 257.047 137.26Z" fill="#D7E2FF"/>
<path d="M257.042 137.26C257.042 137.35 257.042 137.445 257.042 137.54C257.074 139.56 257.486 141.813 258.914 143.111C258.961 143.156 259.012 143.198 259.062 143.241C259.165 143.322 259.271 143.404 259.379 143.476L259.551 143.582L259.728 143.682C259.786 143.714 259.847 143.743 259.911 143.772L260.106 143.857C260.17 143.883 260.238 143.907 260.307 143.931C260.326 143.94 260.347 143.947 260.368 143.952L260.431 143.973L260.497 143.994L260.571 144.015C260.597 144.021 260.622 144.029 260.646 144.039L260.722 144.063L260.802 144.089L260.889 144.116L260.976 144.145L261.066 144.174L261.262 144.24L261.359 144.272L261.465 144.303L261.542 144.327L262.467 144.623L262.66 144.682C263.549 144.962 264.627 145.295 265.867 145.67L266.258 145.787C266.475 145.853 266.695 145.922 266.922 145.988L267.07 146.03L267.276 146.093L267.488 146.154L267.702 146.22L267.919 146.284L268.133 146.347L268.355 146.413L268.577 146.479L268.802 146.543L268.963 146.593C268.986 146.597 269.008 146.603 269.029 146.612L269.257 146.675C269.643 146.791 270.034 146.905 270.438 147.019C270.666 147.09 270.901 147.156 271.139 147.225L271.752 147.402L272.22 147.537C272.831 147.712 273.458 147.891 274.1 148.066C274.23 148.103 274.365 148.137 274.486 148.177L275.16 148.365C275.364 148.425 275.57 148.481 275.779 148.539L276.469 148.732C284.152 150.863 293.467 153.256 302.115 154.993L303.022 155.173L303.471 155.263L304.37 155.432C305.264 155.604 306.149 155.768 307.014 155.919L307.881 156.069L308.312 156.141L309.166 156.281C309.449 156.328 309.732 156.371 310.012 156.413L310.845 156.537C311.109 156.58 311.397 156.622 311.667 156.659L312.479 156.77L313.272 156.876L313.666 156.923C314.195 156.987 314.708 157.045 315.213 157.098L315.591 157.135L316.336 157.209C316.825 157.251 317.307 157.291 317.777 157.32C318.129 157.346 318.475 157.365 318.814 157.381C319.041 157.394 319.266 157.402 319.488 157.41C319.818 157.423 320.143 157.431 320.458 157.434C320.884 157.434 321.294 157.434 321.69 157.434C321.888 157.434 322.084 157.434 322.277 157.415C322.372 157.415 322.465 157.415 322.563 157.415C322.751 157.415 322.936 157.405 323.118 157.383L323.319 157.367H323.369H323.501L324.03 157.328H324.186L324.379 157.312L324.686 157.291H324.855H325.024L325.381 157.264L325.748 157.238L325.941 157.222L326.423 157.185L326.655 157.167L327.158 157.13L327.377 157.114L328.022 157.066L329.973 156.918L330.238 156.897L330.767 156.86L331.56 156.799L331.893 156.773L332.686 156.714L332.977 156.693L333.529 156.648L334.138 156.601L334.463 156.577L334.767 156.553L335.259 156.516L338.214 156.291L338.664 156.257L339.351 156.204L340.985 156.077H341.115L342.571 155.966H342.64L352.071 155.234L352.579 155.194L354.628 155.038L355.928 154.932H356L357.504 154.816H357.689L360.375 154.605L361.071 154.549L361.285 154.533L363.68 154.343L364.738 154.261L365.441 154.208L366.869 154.092L369.024 153.922L369.214 153.909C369.513 153.88 369.809 153.859 370.105 153.835H370.171L372.841 153.626H372.915L373.18 153.602C353.134 142.312 347.397 123.085 347.397 123.085H347.381C337.175 123.963 327.39 124.817 318.71 125.602L317.344 125.727C312.249 126.189 307.561 126.628 303.426 127.027L297.874 127.58C291.687 128.212 287.373 128.717 285.688 129.045C281.313 129.891 276.435 130.679 271.961 131.342L270.867 131.501H270.811C270.259 131.586 269.714 131.662 269.177 131.739H269.13L267.316 132.003C266.451 132.125 265.627 132.236 264.844 132.342L263.853 132.477C260 132.99 257.433 133.294 257.433 133.294C257.433 133.294 257.417 133.362 257.394 133.489V133.524C257.394 133.558 257.38 133.595 257.372 133.637C257.372 133.719 257.341 133.817 257.325 133.926C257.309 134.034 257.275 134.235 257.251 134.423C257.251 134.468 257.251 134.515 257.232 134.563C257.211 134.719 257.19 134.883 257.169 135.063C257.169 135.184 257.142 135.327 257.129 135.446C257.129 135.52 257.116 135.594 257.111 135.668C257.105 135.742 257.111 135.835 257.092 135.917C257.074 135.999 257.076 136.16 257.068 136.284C257.068 136.334 257.068 136.387 257.068 136.437C257.068 136.488 257.068 136.617 257.068 136.702C257.068 136.786 257.068 136.794 257.068 136.839C257.068 136.932 257.068 137.024 257.068 137.104C257.045 137.162 257.045 137.212 257.042 137.26Z" fill="#F99746"/>
<path opacity="0.5" d="M260.327 143.933C261.58 144.364 265.33 145.546 270.469 147.04C272.188 139.853 277.719 136.852 277.719 136.852L257.239 134.563C256.906 137.098 256.61 142.651 260.327 143.933Z" fill="#E27727"/>
<path d="M369.824 134.455C370.163 134.404 370.469 134.222 370.674 133.947C370.878 133.672 370.965 133.327 370.916 132.987L370.787 131.544C370.77 131.201 370.62 130.879 370.37 130.645C370.12 130.411 369.789 130.283 369.446 130.288C369.107 130.338 368.802 130.521 368.597 130.796C368.392 131.071 368.305 131.416 368.354 131.755L368.484 133.199C368.501 133.541 368.65 133.863 368.9 134.098C369.15 134.332 369.482 134.46 369.824 134.455Z" fill="#2B478B"/>
<path d="M376.09 133.908C376.429 133.857 376.734 133.675 376.939 133.399C377.144 133.124 377.231 132.779 377.182 132.44L377.05 130.999C377.033 130.657 376.885 130.334 376.635 130.1C376.386 129.865 376.055 129.736 375.712 129.741C375.373 129.792 375.068 129.974 374.864 130.249C374.659 130.524 374.572 130.869 374.62 131.208L374.75 132.652C374.767 132.994 374.916 133.316 375.166 133.55C375.416 133.785 375.747 133.913 376.09 133.908Z" fill="#2B478B"/>
<path d="M382.363 133.368C382.703 133.317 383.008 133.134 383.213 132.858C383.417 132.583 383.505 132.237 383.455 131.898L383.326 130.457C383.309 130.114 383.16 129.791 382.91 129.556C382.66 129.321 382.328 129.193 381.985 129.198C381.646 129.249 381.342 129.432 381.137 129.707C380.933 129.982 380.845 130.326 380.893 130.666L381.026 132.109C381.042 132.451 381.191 132.774 381.44 133.009C381.69 133.244 382.021 133.372 382.363 133.368Z" fill="#2B478B"/>
<path d="M388.645 132.826C388.984 132.775 389.289 132.592 389.493 132.317C389.698 132.042 389.785 131.698 389.737 131.359L389.607 129.915C389.591 129.572 389.442 129.249 389.192 129.014C388.942 128.78 388.61 128.651 388.267 128.656C387.928 128.707 387.623 128.89 387.419 129.165C387.214 129.44 387.127 129.785 387.175 130.124L387.305 131.567C387.321 131.91 387.47 132.233 387.72 132.468C387.97 132.703 388.302 132.831 388.645 132.826Z" fill="#2B478B"/>
<path d="M394.903 132.284C395.242 132.233 395.547 132.05 395.751 131.775C395.956 131.5 396.043 131.156 395.995 130.817L395.865 129.373C395.849 129.03 395.7 128.707 395.45 128.472C395.199 128.238 394.868 128.109 394.525 128.114C394.186 128.165 393.881 128.348 393.676 128.623C393.472 128.898 393.384 129.243 393.433 129.582L393.565 131.025C393.581 131.368 393.73 131.69 393.98 131.925C394.229 132.16 394.56 132.289 394.903 132.284Z" fill="#2B478B"/>
<path d="M401.192 131.742C401.531 131.691 401.836 131.508 402.04 131.233C402.245 130.958 402.332 130.614 402.284 130.274L402.154 128.831C402.136 128.49 401.986 128.169 401.736 127.935C401.486 127.702 401.156 127.575 400.814 127.58C400.475 127.631 400.17 127.814 399.966 128.089C399.761 128.364 399.673 128.708 399.722 129.048L399.851 130.491C399.87 130.833 400.02 131.154 400.27 131.387C400.52 131.62 400.85 131.747 401.192 131.742Z" fill="#2B478B"/>
<path d="M407.455 131.2C407.794 131.149 408.099 130.966 408.304 130.691C408.509 130.416 408.598 130.072 408.55 129.732L408.418 128.288C408.401 127.946 408.253 127.624 408.003 127.389C407.753 127.154 407.422 127.025 407.08 127.03C406.741 127.082 406.435 127.265 406.231 127.54C406.026 127.815 405.938 128.16 405.985 128.5L406.117 129.941C406.134 130.283 406.283 130.606 406.532 130.841C406.782 131.075 407.113 131.204 407.455 131.2Z" fill="#2B478B"/>
<path d="M413.731 130.658C414.07 130.607 414.375 130.425 414.58 130.15C414.784 129.874 414.872 129.529 414.823 129.19L414.693 127.747C414.676 127.404 414.527 127.082 414.276 126.848C414.026 126.613 413.695 126.485 413.353 126.491C413.013 126.541 412.708 126.724 412.503 126.999C412.299 127.274 412.211 127.619 412.261 127.958L412.39 129.399C412.407 129.742 412.556 130.065 412.806 130.3C413.056 130.534 413.388 130.663 413.731 130.658Z" fill="#2B478B"/>
<path d="M419.995 130.116C420.335 130.062 420.639 129.877 420.842 129.6C421.045 129.323 421.13 128.977 421.079 128.638L420.947 127.194C420.93 126.852 420.781 126.531 420.532 126.296C420.282 126.062 419.952 125.934 419.609 125.938C419.27 125.989 418.965 126.172 418.76 126.447C418.555 126.722 418.467 127.066 418.515 127.406L418.647 128.849C418.661 129.195 418.811 129.521 419.063 129.758C419.315 129.995 419.65 130.123 419.995 130.116Z" fill="#2B478B"/>
<path d="M426.144 129.584C426.813 129.529 427.302 128.868 427.236 128.117L427.104 126.676C427.088 126.334 426.939 126.011 426.689 125.776C426.44 125.542 426.109 125.413 425.766 125.417C425.427 125.468 425.122 125.651 424.918 125.926C424.713 126.201 424.626 126.546 424.674 126.885L424.804 128.328C424.821 128.671 424.97 128.993 425.22 129.227C425.47 129.462 425.802 129.59 426.144 129.584Z" fill="#2B478B"/>
<path d="M432.421 129.045C432.759 128.993 433.063 128.811 433.267 128.536C433.471 128.262 433.558 127.919 433.511 127.58L433.381 126.139C433.365 125.797 433.216 125.474 432.966 125.239C432.715 125.004 432.384 124.876 432.041 124.881C431.702 124.932 431.397 125.115 431.192 125.39C430.988 125.664 430.9 126.009 430.949 126.348L431.078 127.792C431.096 128.134 431.246 128.456 431.497 128.69C431.747 128.924 432.079 129.051 432.421 129.045Z" fill="#2B478B"/>
<path d="M438.692 128.503C439.031 128.452 439.336 128.269 439.54 127.994C439.745 127.719 439.832 127.375 439.784 127.036L439.652 125.592C439.635 125.25 439.487 124.927 439.237 124.692C438.987 124.458 438.656 124.329 438.314 124.333C437.975 124.384 437.67 124.567 437.466 124.842C437.261 125.117 437.173 125.462 437.222 125.801L437.351 127.244C437.42 127.993 438.023 128.561 438.692 128.503Z" fill="#2B478B"/>
<path d="M446.465 127.757C446.804 127.707 447.109 127.524 447.314 127.249C447.519 126.974 447.606 126.629 447.557 126.29L447.427 124.846C447.41 124.504 447.261 124.181 447.011 123.947C446.761 123.713 446.43 123.585 446.087 123.59C445.748 123.64 445.442 123.823 445.238 124.098C445.033 124.373 444.946 124.718 444.995 125.057L445.125 126.501C445.142 126.843 445.291 127.166 445.541 127.4C445.791 127.634 446.122 127.762 446.465 127.757Z" fill="#2B478B"/>
<path d="M301.379 141.091C301.718 141.041 302.024 140.858 302.228 140.583C302.433 140.308 302.52 139.963 302.471 139.624L302.339 138.18C302.322 137.838 302.173 137.516 301.923 137.282C301.674 137.048 301.343 136.92 301.001 136.924C300.662 136.975 300.356 137.157 300.152 137.432C299.947 137.707 299.86 138.052 299.909 138.392L300.039 139.835C300.056 140.177 300.205 140.5 300.455 140.734C300.705 140.968 301.036 141.096 301.379 141.091Z" fill="#2B478B"/>
<path d="M307.652 140.549C307.992 140.499 308.297 140.316 308.502 140.041C308.706 139.766 308.794 139.421 308.744 139.082L308.615 137.641C308.598 137.298 308.449 136.975 308.199 136.74C307.949 136.505 307.617 136.377 307.274 136.382C306.936 136.433 306.631 136.616 306.426 136.891C306.222 137.166 306.134 137.51 306.182 137.85L306.315 139.293C306.332 139.635 306.481 139.957 306.73 140.191C306.98 140.425 307.31 140.554 307.652 140.549Z" fill="#2B478B"/>
<path d="M313.918 140.007C314.257 139.956 314.563 139.773 314.767 139.497C314.972 139.222 315.059 138.877 315.01 138.537L314.88 137.096C314.864 136.753 314.715 136.43 314.465 136.196C314.215 135.961 313.883 135.832 313.54 135.838C313.201 135.889 312.896 136.071 312.692 136.346C312.487 136.621 312.4 136.966 312.448 137.305L312.578 138.749C312.594 139.091 312.743 139.414 312.993 139.649C313.243 139.884 313.575 140.012 313.918 140.007Z" fill="#2B478B"/>
<path d="M469.955 119.672L474.238 123.709L476.789 123.873C476.583 123.746 476.389 123.602 476.207 123.442C476.178 123.416 476.152 123.392 476.123 123.36C475.375 122.665 474.592 122.009 473.778 121.393C472.917 120.749 472.02 120.154 471.091 119.611H471.076L469.955 119.672Z" fill="#2B478B"/>
<path d="M469.013 119.82L473.188 123.894L468.447 124.899L466.951 120.251L469.013 119.82Z" fill="#2B478B"/>
<path d="M466.515 120.394L467.617 124.761L464.103 123.762L463.879 120.719L466.515 120.394Z" fill="#2B478B"/>
<path d="M380.968 153.87C379.117 153.15 378.644 149.943 380.175 148.582C381.706 147.22 383.784 145.824 386.132 145.655C390.954 145.306 388.998 155.125 387.395 155.329C386.446 155.435 383.422 154.829 380.968 153.87Z" fill="#2B478B"/>
<path d="M278.125 134.904C277.932 134.639 259.98 128.725 248.249 131.297L259.544 138.42L277.71 136.86C277.71 136.86 279.093 136.21 278.125 134.904Z" fill="#355DAF"/>
<path d="M286.799 93.4724C286.799 93.4724 298.815 120.032 301.102 124.064C303.389 128.096 308.391 130.674 308.391 130.674H308.42L340.261 143.608C340.261 143.608 379.974 140.475 388.617 139.523C389.41 139.436 389.939 139.365 390.148 139.32C392.776 138.759 394.003 137.543 393.498 136.583C392.993 135.623 331.935 128.305 325.175 127.551L324.982 127.53C318.401 126.753 317.79 124.513 317.79 124.513L292.597 95.6458C292.236 95.1026 291.729 94.6727 291.135 94.4057C289.326 93.5041 286.799 93.4724 286.799 93.4724Z" fill="#D7E2FF"/>
<path d="M291.137 94.4055C297.916 102.634 316.669 125.34 318.449 126.871C320.365 128.534 375.155 137.342 388.617 139.528C389.41 139.441 389.939 139.37 390.148 139.325C392.776 138.764 394.003 137.548 393.498 136.588C392.993 135.628 331.935 128.31 325.175 127.556C318.414 126.803 317.79 124.518 317.79 124.518L292.597 95.6456C292.237 95.1028 291.731 94.6729 291.137 94.4055Z" fill="#739AF0"/>
<path d="M286.801 93.4724C286.801 93.4724 298.818 120.032 301.105 124.064C303.392 128.096 308.394 130.674 308.394 130.674H308.423C314.076 130.516 319.667 129.455 324.984 127.53C318.404 126.753 317.793 124.513 317.793 124.513L292.599 95.6458C292.239 95.1026 291.732 94.6727 291.137 94.4057C289.329 93.5041 286.801 93.4724 286.801 93.4724Z" fill="#D7E2FF"/>
<path d="M385.032 143.323L386.24 156.717C386.24 156.717 391.358 158.568 399.364 158.135C404.263 157.87 407.528 156.797 409.321 156.003C409.91 155.758 410.474 155.459 411.008 155.11L409.726 141.065C409.181 140.643 408.548 140.349 407.875 140.205C401.548 138.585 385.991 142.778 385.991 142.778L385.032 143.323Z" fill="#E9F0FF"/>
<path d="M407.896 140.208L409.321 156.003C409.91 155.758 410.474 155.459 411.008 155.11L409.726 141.065C409.187 140.646 408.562 140.354 407.896 140.208Z" fill="#FF9843"/>
<path d="M277.881 152.046C277.477 152.469 277.785 153.97 277.237 154.432C275.601 155.837 272.551 154.153 271.214 153.306C266.663 150.42 264.18 145.349 259.668 142.415C258.484 141.635 255.098 140.644 257.878 139.307C256.772 136.488 252.105 133.39 249.219 133.005C249.421 126.568 247.429 128.512 241.772 126.703C237.269 125.269 232.218 120.651 225.165 120.064C222.712 120.064 221.586 117.466 220.114 115.859C222.289 114.686 226.849 115.985 229.582 115.677C232.262 115.274 234.975 115.132 237.683 115.253C239.88 115.308 242.074 115.475 244.254 115.754C222.589 103.399 197.844 97.494 172.935 98.7332C148.025 99.9725 123.988 108.305 103.656 122.748C107.473 121.745 111.436 121.42 115.366 121.786C118.579 122.133 127.277 123.768 127.171 120.824C127.065 117.88 126.94 116.976 123.707 116.86C120.475 116.745 113.124 116.571 119.301 113.56C125.478 110.548 132.088 111.491 134.416 111.963C136.744 112.434 142.642 110.038 145.827 108.663C149.012 107.287 157.257 105.141 152.081 110.856C146.905 116.571 142.171 122.498 142.171 122.498C142.171 122.498 133.945 126.462 143.643 124.913C149.618 123.951 153.389 122.113 156.969 121.411C151.994 120.382 148.05 118.765 148.146 116.167C152.206 114.782 157.411 117.63 161.683 117.274C164.002 117.091 166.128 115.965 168.591 115.927C172.719 115.869 176.952 117.072 180.907 118.072C183.572 118.746 188.402 121.045 190.682 118.573C188.356 115.958 185.701 113.655 182.783 111.722C178.934 109.25 170.525 110.202 168.87 106.065C172.363 105.545 175.394 104.593 179.011 104.958C184.784 105.555 190.557 106.219 196.33 106.883C203.065 107.614 212.378 106.883 218.575 109.952C220.605 113.723 217.43 112.338 214.486 112.232C208.318 111.992 199.264 112.453 193.674 115.022C199.293 117.822 192.712 121.613 192.876 125.221C190.499 126.231 187.382 125.654 184.832 125.827C187.093 127.04 189.643 127.559 191.962 128.714C188.844 129.195 185.804 130.205 182.658 130.523L182.937 130.176C180.945 128.685 176.452 127.367 176.202 124.817C176.458 124.858 176.719 124.846 176.971 124.783C177.222 124.72 177.458 124.607 177.665 124.451C177.872 124.295 178.044 124.098 178.173 123.874C178.302 123.649 178.384 123.4 178.415 123.143C177.607 123.143 172.026 123.143 165.907 122.643C171.574 124.567 175.528 124.894 175.663 124.115C175.798 123.335 175.884 128.04 172.613 134.179C169.342 140.317 193.174 144.387 193.626 146.09C194.079 147.793 194.531 155.634 199.765 155.336C204.999 155.038 203.527 149.688 203.527 149.688L207.799 147.601L208.463 141.529L204.614 138.508L209.194 134.871C209.194 134.871 216.266 140.211 225.502 147.716L236.086 144.964L249.767 159.454C249.767 159.454 251.826 163.149 249.392 162.879C246.958 162.61 228.86 163.678 228.86 163.678L225.194 167.604C225.194 167.604 231.525 168.729 233.517 168.566C235.508 168.402 239.944 171.452 239.944 171.452C239.944 171.452 246.862 175.666 243.071 176.551C239.28 177.437 224.79 178.899 224.79 178.899C224.79 178.899 225.925 174.695 222.548 174.752C219.171 174.81 217.988 181.622 214.899 182.151C211.811 182.68 206.173 180.333 205.384 182.844C204.595 185.355 205.624 189.367 204.499 190.984C203.373 192.6 195.195 196.025 195.195 196.025L190.74 212.382L182.648 200.239L174.326 201.067L170.67 202.828L164.791 200.028L151.407 204.627L154.294 222.109L161.75 228.151L169.188 220.579L176.981 224.591L172.68 232.288L172.286 235.954L183.63 237.195L187.267 244.95L182.321 249.184L189.008 253.379L196.253 254.12L197.485 256.794C199.794 253.764 204.566 250.656 208.068 250.059C212.879 249.261 212.071 252.359 211.339 255.832C215.044 257.343 214.697 252.051 217.555 251.714C219.835 251.445 221.615 253.994 223.703 254.601C225.233 255.072 226.676 254.475 228.09 254.543C233.68 254.803 239.001 259.902 242.975 263.52C244.485 264.886 245.399 266.531 247.362 267.301C248.805 267.869 251.095 267.089 252.413 267.82C253.731 268.552 255.858 272.14 255.723 273.92C255.473 277.047 251.422 277.509 250.758 279.895C249.998 282.637 253.25 284.6 255.839 284.379C257.763 284.215 258.292 282.599 259.918 282.56C260.524 282.56 261.053 282.281 261.708 282.56C263.295 283.186 262.67 284.485 263.362 285.043C265.335 286.476 267.962 285.813 270.319 286.361C275.043 287.467 273.994 291.249 278.612 292.018C279.296 300.793 271.329 304.863 268.847 312.608C267.355 317.265 265.354 318.641 261.611 321.71C257.869 324.779 254.684 328.339 250.287 330.783C246.333 332.977 241.839 334.632 238.52 337.749C235.451 340.635 234.758 342.04 230.457 343.089C228.389 343.589 226.551 343.387 225.589 345.292C224.348 347.736 225.906 348.592 223.029 350.363C219.989 352.287 215.669 350.459 212.532 351.979C211.82 352.316 211.811 353.297 211.349 353.567C210.387 354.125 208.761 353.509 207.905 354.211C207.193 354.808 207.173 356.742 206.808 357.656C206.252 359.295 205.265 360.754 203.95 361.88C201.258 364.585 198.339 367.054 195.223 369.259C251.182 361.976 297.817 318.776 309.247 260.922C308.939 259.737 308.698 258.536 308.526 257.323C308.333 255.139 308.602 244.767 310.681 237.628C311.066 236.281 311.489 235.031 311.922 233.876C312.006 204.018 302.307 174.955 284.308 151.132C281.605 151.276 279.767 150.035 277.881 152.046ZM230.457 136.161C230.406 136.547 230.446 136.939 230.575 137.307C230.704 137.674 230.917 138.006 231.199 138.275C231.48 138.544 231.821 138.743 232.194 138.855C232.566 138.968 232.96 138.991 233.344 138.922C234.479 143.184 228.716 139.596 227.571 138.989C225.3 137.806 211.811 135.372 212.417 132.514C212.84 130.523 215.833 131.744 215.679 129.166C215.563 127.242 211.715 124.779 210.454 123.941C207.972 122.287 200.448 121.7 199.226 119.035C197.879 116.09 201.699 115.186 204.037 115.186C209.598 115.07 213.321 119.583 217.949 121.257C221.971 124.528 234.883 129.782 236.23 136.526C234.363 136.43 232.237 135.776 230.457 136.161ZM201.256 232.144C200.814 233.318 199.563 233.347 198.572 232.51C198.716 230.951 200.39 231.634 201.516 231.74L201.256 232.144ZM195.695 223.485L190.884 222.301C189.402 221.522 184.919 222.446 185.554 219.752C188.854 219.463 193.886 219.752 197.032 221.079C198.957 221.907 199.832 223.658 201.679 224.62C203.527 225.582 204.566 225.467 205.268 227.507C201.304 228.017 199.197 223.947 195.695 223.523V223.485ZM217.536 232.356C216.785 232.875 216.4 234.501 215.679 235.242C215.255 232.683 212.561 232.606 211.407 230.768C212.138 229.392 213.61 229.999 214.899 230.124L216.593 230.528C217.92 230.893 221.067 230.72 221.403 232.211C220.307 232.356 218.575 231.682 217.536 232.394V232.356ZM225.695 235.002C223.145 237.369 224.367 233.453 224.415 232.25L223.943 232.625C224.886 231.028 227.705 233.183 225.695 235.04V235.002ZM248.584 171.414C246.496 167.806 249.325 166.459 250.393 162.956L251.624 163.524C250.152 169.682 254.126 171.558 258.013 174.993C254.867 174.781 250.431 174.656 248.584 171.452V171.414Z" fill="#2181F1"/>
<path d="M253.016 121.247L251.227 120.045C251.792 120.49 252.39 120.892 253.016 121.247Z" fill="#2181F1"/>
<path d="M196.184 308.606C193.586 306.883 190.267 305.305 190.026 302.024C189.872 299.84 190.988 298.955 190.132 296.704C189.362 294.946 188.173 293.403 186.668 292.211C183.474 289.238 180.241 288.593 184.744 285.581C186.351 284.513 187.89 285.004 187.582 282.541C187.303 280.376 185.129 280.222 185.225 277.374C185.594 274.682 186.791 272.17 188.65 270.187C190.103 268.927 191.537 269.619 193.028 268.715C195.414 267.224 195.347 263.346 196.03 260.142L191.787 256.217L186.014 255.591L177.355 248.597L173.689 242.574L165.366 239.495L158.785 232.25L151.088 231.403L132.182 221.964L130.065 209.649L121.483 200.922L115.614 191.186L113.478 190.945L121.387 205.772L123.552 209.813L111.919 197.305L107.57 185.567L99.8733 176.445L101.307 159.329L107.08 153.893L97.3525 153.7L95.2454 147.187L91.6951 143.983L88.8086 147.831L86.7015 140.24L83.0454 140.74C62.6008 162.525 49.8274 190.39 46.6667 220.098C38.527 294.703 91.1178 361.649 164.135 369.615C172.123 370.489 180.175 370.627 188.188 370.029C187.252 369.546 186.444 368.846 185.831 367.989C181.983 362.601 187.688 360.908 189.68 356.828C192.258 351.681 191.72 346.245 194.875 341.039C198.031 335.834 198.676 329.128 204.324 322.893C205.17 321.315 207.451 316.341 206.508 314.417C205.324 311.848 198.714 310.28 196.184 308.606Z" fill="#2181F1"/>
<path d="M308.536 257.275C308.708 258.487 308.949 259.689 309.257 260.874C310.034 256.935 310.653 252.93 311.114 248.857C311.653 243.865 311.926 238.848 311.932 233.828C311.499 234.982 311.076 236.233 310.691 237.58C308.613 244.719 308.343 255.082 308.536 257.275Z" fill="white"/>
<path d="M253.009 121.247C252.383 120.892 251.784 120.49 251.219 120.045C248.936 118.544 246.607 117.113 244.234 115.753C242.053 115.475 239.86 115.308 237.662 115.253C234.955 115.131 232.242 115.273 229.561 115.676C226.8 115.984 222.268 114.714 220.094 115.859C221.566 117.466 222.692 120.112 225.145 120.064C232.198 120.651 237.249 125.269 241.752 126.703C247.409 128.511 249.401 126.568 249.199 133.005C252.085 133.389 256.761 136.488 257.858 139.307C255.077 140.644 258.464 141.635 259.647 142.414C264.131 145.301 266.613 150.458 271.193 153.306C272.531 154.153 275.581 155.836 277.216 154.432C277.765 153.96 277.457 152.507 277.861 152.045C279.785 150.035 281.584 151.276 284.307 151.083C275.56 139.508 264.989 129.431 253.009 121.247Z" fill="white"/>
<path d="M201.64 224.659C199.793 223.697 198.888 221.946 196.993 221.118C193.846 219.742 188.814 219.502 185.514 219.79C184.879 222.484 189.363 221.561 190.845 222.34L195.655 223.523C199.158 223.947 201.265 228.017 205.19 227.507C204.536 225.505 203.381 225.554 201.64 224.659Z" fill="white"/>
<path d="M216.584 230.566L214.891 230.162C213.602 230.037 212.13 229.431 211.398 230.807C212.553 232.645 215.247 232.731 215.67 235.281C216.392 234.54 216.777 232.914 217.527 232.394C218.566 231.682 220.25 232.394 221.376 232.25C221.058 230.759 217.912 230.932 216.584 230.566Z" fill="white"/>
<path d="M223.938 232.664L224.409 232.289C224.361 233.491 223.139 237.407 225.689 235.04C227.699 233.183 224.88 231.028 223.938 232.664Z" fill="white"/>
<path d="M198.562 232.51C199.525 233.347 200.804 233.318 201.247 232.144L201.507 231.74C200.381 231.634 198.707 230.951 198.562 232.51Z" fill="white"/>
<path d="M270.333 286.419C267.976 285.87 265.349 286.534 263.377 285.101C262.684 284.591 263.31 283.244 261.722 282.618C261.068 282.358 260.539 282.618 259.932 282.618C258.306 282.618 257.806 284.273 255.853 284.437C253.265 284.658 250.013 282.695 250.773 279.953C251.437 277.567 255.487 277.067 255.737 273.978C255.872 272.198 253.755 268.619 252.428 267.878C251.1 267.137 248.82 267.926 247.376 267.359C245.452 266.589 244.49 264.944 242.989 263.577C239.015 259.96 233.695 254.86 228.105 254.601C226.69 254.533 225.218 255.13 223.717 254.658C221.629 254.014 219.869 251.464 217.569 251.772C214.683 252.109 215.058 257.4 211.354 255.89C212.085 252.397 212.941 249.299 208.082 250.117C204.551 250.694 199.779 253.802 197.499 256.852L198.576 259.19L198.249 262.192L196.104 260.2C195.421 263.404 195.488 267.282 193.102 268.773C191.659 269.677 190.215 268.985 188.724 270.245C186.865 272.228 185.668 274.739 185.299 277.432C185.203 280.319 187.377 280.434 187.656 282.599C187.964 285.062 186.425 284.571 184.818 285.639C180.296 288.651 183.529 289.296 186.742 292.269C188.246 293.461 189.436 295.004 190.206 296.762C191.024 299.013 189.946 299.898 190.1 302.082C190.341 305.363 193.66 306.941 196.258 308.664C198.856 310.386 205.398 311.906 206.62 314.388C207.582 316.313 205.283 321.287 204.436 322.865C198.788 329.099 198.211 335.738 194.988 341.011C191.765 346.283 192.371 351.652 189.792 356.8C187.762 360.879 182.037 362.572 185.944 367.96C186.556 368.818 187.364 369.517 188.301 370C190.668 369.817 193.025 369.577 195.353 369.269C198.422 367.055 201.297 364.583 203.945 361.88C205.234 360.78 206.21 359.359 206.774 357.762C207.14 356.848 207.159 354.875 207.871 354.317C208.727 353.615 210.353 354.231 211.315 353.673C211.777 353.403 211.787 352.422 212.499 352.085C215.635 350.565 219.955 352.345 222.996 350.469C225.882 348.698 224.314 347.842 225.555 345.398C226.517 343.474 228.355 343.695 230.423 343.195C234.724 342.146 235.417 340.722 238.486 337.855C241.806 334.757 246.299 333.044 250.253 330.889C254.65 328.445 257.729 324.962 261.578 321.816C265.426 318.67 267.351 317.371 268.813 312.714C271.295 305.017 279.262 300.899 278.579 292.124C273.98 291.306 275.028 287.525 270.333 286.419Z" fill="white"/>
<path d="M236.085 144.965L225.502 147.716C216.265 140.212 209.194 134.872 209.194 134.872L204.614 138.509L208.462 141.53L207.798 147.601L203.401 149.641C203.401 149.641 204.912 155.019 199.678 155.288C194.444 155.558 194.001 147.745 193.539 146.042C193.078 144.339 169.255 140.269 172.526 134.131C175.798 127.992 175.672 123.211 175.576 124.067C175.48 124.923 171.487 124.481 165.82 122.595C162.85 122.365 159.895 121.97 156.968 121.411C153.389 122.114 149.618 123.971 143.643 124.914C133.944 126.463 142.171 122.499 142.171 122.499C142.171 122.499 146.981 116.61 152.1 110.895C157.219 105.18 149.031 107.316 145.846 108.701C142.661 110.087 136.773 112.473 134.435 112.002C132.097 111.53 125.497 110.587 119.281 113.647C113.066 116.706 120.455 116.812 123.688 116.947C126.921 117.082 127.036 117.909 127.152 120.911C127.267 123.913 118.56 122.229 115.346 121.873C111.417 121.507 107.454 121.832 103.637 122.835C96.19 128.098 89.292 134.097 83.0469 140.741L86.703 140.241L88.8101 147.832L91.6966 143.983L95.2469 147.187L97.354 153.701L107.081 153.893L101.308 159.329L99.8748 176.446L107.572 185.567L111.921 197.305L123.553 209.813L121.388 205.772L113.508 190.936L115.644 191.176L121.513 200.913L130.096 209.64L132.212 221.955L151.119 231.394L158.816 232.241L165.397 239.486L173.719 242.565L177.395 248.597L186.054 255.592L191.827 256.217L196.07 260.143C196.236 259.031 196.625 257.964 197.215 257.006C197.274 256.919 197.338 256.835 197.407 256.756L196.253 254.12L189.017 253.331L182.331 249.136L187.276 244.903L183.639 237.148L172.295 235.906L172.69 232.241L176.991 224.544L169.197 220.531L161.721 228.142L154.265 222.1L151.378 204.618L164.762 200.019L170.64 202.818L174.297 201.058L182.619 200.23L190.759 212.334L195.214 195.978C195.214 195.978 203.382 192.543 204.518 190.936C205.653 189.329 204.604 185.307 205.403 182.796C206.201 180.285 211.83 182.633 214.918 182.103C218.007 181.574 219.181 174.772 222.567 174.704C225.954 174.637 224.809 178.851 224.809 178.851C224.809 178.851 239.241 177.399 243.09 176.504C246.938 175.609 239.963 171.404 239.963 171.404C239.963 171.404 235.537 168.316 233.536 168.518C231.535 168.72 225.213 167.556 225.213 167.556L228.879 163.63C228.879 163.63 246.987 162.572 249.411 162.832C251.836 163.091 249.786 159.406 249.786 159.406L236.085 144.965Z" fill="white"/>
<path d="M197.21 257.006C196.605 257.947 196.196 259.001 196.008 260.104L198.153 262.096L198.481 259.094L197.403 256.756C197.333 256.835 197.269 256.919 197.21 257.006Z" fill="white"/>
<path d="M251.62 163.563L250.389 162.995C249.321 166.497 246.54 167.806 248.58 171.452C250.427 174.656 254.863 174.781 258.009 175.032C254.122 171.597 250.129 169.72 251.62 163.563Z" fill="white"/>
<path d="M236.167 136.488C234.83 129.753 221.918 124.49 217.886 121.218C213.259 119.544 209.535 115.032 203.974 115.147C201.636 115.205 197.816 116.109 199.163 118.996C200.385 121.661 207.909 122.248 210.391 123.903C211.652 124.74 215.5 127.212 215.616 129.127C215.77 131.706 212.729 130.484 212.354 132.475C211.748 135.362 225.237 137.767 227.508 138.951C228.691 139.557 234.455 143.146 233.281 138.883C232.898 138.952 232.504 138.929 232.131 138.816C231.758 138.704 231.417 138.505 231.136 138.236C230.855 137.967 230.641 137.635 230.512 137.268C230.383 136.9 230.343 136.508 230.394 136.122C232.222 135.776 234.349 136.43 236.167 136.488Z" fill="white"/>
<path d="M196.255 106.835C190.482 106.2 184.709 105.536 178.936 104.91C175.318 104.545 172.288 105.497 168.795 106.017C170.488 110.183 178.936 109.23 182.785 111.722C185.707 113.66 188.366 115.969 190.693 118.592C188.413 121.065 183.583 118.765 180.918 118.092C176.964 117.13 172.73 115.888 168.603 115.946C166.14 115.946 164.013 117.11 161.694 117.293C157.423 117.649 152.217 114.801 148.157 116.187C148.09 118.784 152.006 120.411 157.009 121.43C159.318 120.914 161.728 121.091 163.936 121.94L165.861 122.614C172.018 123.133 177.599 123.114 178.368 123.114C178.338 123.371 178.256 123.62 178.127 123.845C177.998 124.07 177.825 124.266 177.618 124.422C177.412 124.579 177.176 124.692 176.924 124.755C176.673 124.818 176.411 124.829 176.155 124.788C176.367 127.338 180.86 128.637 182.891 130.147L182.611 130.494C185.758 130.176 188.798 129.166 191.915 128.685C189.626 127.53 187.047 127.011 184.786 125.799C187.336 125.625 190.453 126.203 192.829 125.192C192.618 121.584 199.247 117.793 193.628 114.994C199.218 112.425 208.272 111.963 214.439 112.203C217.383 112.309 220.558 113.695 218.528 109.923C212.294 106.912 202.99 107.566 196.255 106.835Z" fill="white"/>
<path d="M156.961 121.411C159.887 121.97 162.842 122.365 165.813 122.594L163.888 121.921C161.68 121.072 159.27 120.894 156.961 121.411Z" fill="white"/>
<path d="M204.535 141.693C204.342 148.274 206.546 158.05 213.743 172.713C220.949 158.088 223.143 148.274 222.95 141.693C222.604 129.945 204.9 129.945 204.535 141.693ZM213.743 147.986C212.653 147.986 211.588 147.662 210.682 147.056C209.776 146.45 209.071 145.589 208.655 144.581C208.24 143.574 208.132 142.466 208.347 141.398C208.562 140.329 209.089 139.349 209.861 138.58C210.634 137.812 211.617 137.29 212.687 137.081C213.756 136.872 214.864 136.985 215.869 137.406C216.874 137.827 217.731 138.537 218.333 139.446C218.934 140.354 219.252 141.421 219.246 142.511C219.238 143.966 218.655 145.358 217.624 146.384C216.593 147.41 215.197 147.986 213.743 147.986Z" fill="#F73A8A"/>
<path d="M258.1 264.376C255.868 264.376 253.597 264.376 251.365 264.27C251.11 264.263 250.868 264.154 250.693 263.968C250.518 263.782 250.424 263.534 250.432 263.279C250.439 263.024 250.548 262.782 250.734 262.607C250.92 262.432 251.168 262.338 251.423 262.346C253.664 262.413 255.916 262.442 258.158 262.452C258.413 262.452 258.658 262.553 258.838 262.734C259.018 262.914 259.12 263.159 259.12 263.414C259.12 263.669 259.018 263.914 258.838 264.094C258.658 264.275 258.413 264.376 258.158 264.376H258.1ZM264.835 264.299C264.58 264.299 264.335 264.198 264.155 264.017C263.974 263.837 263.873 263.592 263.873 263.337C263.873 263.082 263.974 262.837 264.155 262.657C264.335 262.476 264.58 262.375 264.835 262.375C267.106 262.317 269.367 262.221 271.57 262.105C271.815 262.105 272.052 262.198 272.231 262.366C272.41 262.535 272.517 262.765 272.532 263.01C272.54 263.136 272.523 263.263 272.481 263.383C272.44 263.502 272.376 263.613 272.292 263.708C272.208 263.802 272.106 263.88 271.992 263.935C271.878 263.99 271.754 264.022 271.628 264.03C269.444 264.145 267.163 264.241 264.893 264.299H264.835ZM244.63 264.001H244.582C242.379 263.885 240.108 263.741 237.847 263.568C237.72 263.558 237.597 263.524 237.484 263.467C237.371 263.41 237.27 263.331 237.188 263.235C237.021 263.041 236.938 262.789 236.957 262.534C236.976 262.278 237.096 262.041 237.29 261.874C237.484 261.707 237.736 261.624 237.991 261.644C240.243 261.807 242.504 261.951 244.726 262.067C244.981 262.073 245.224 262.181 245.399 262.366C245.575 262.551 245.671 262.798 245.664 263.053C245.658 263.308 245.55 263.55 245.365 263.726C245.181 263.902 244.933 263.998 244.678 263.991L244.63 264.001ZM278.305 263.549C278.179 263.554 278.052 263.535 277.934 263.492C277.815 263.449 277.705 263.383 277.612 263.297C277.423 263.125 277.311 262.885 277.3 262.63C277.294 262.503 277.313 262.377 277.356 262.258C277.399 262.139 277.465 262.03 277.551 261.937C277.723 261.748 277.963 261.636 278.218 261.624C280.489 261.422 282.731 261.182 284.886 260.912C285.139 260.882 285.393 260.954 285.593 261.111C285.793 261.267 285.923 261.497 285.954 261.749C285.97 261.875 285.961 262.003 285.928 262.125C285.895 262.248 285.837 262.362 285.76 262.462C285.682 262.562 285.585 262.646 285.475 262.709C285.364 262.771 285.243 262.812 285.117 262.827C282.943 263.096 280.681 263.337 278.382 263.539L278.305 263.549ZM231.227 263H231.131C228.918 262.789 226.657 262.548 224.396 262.279C224.27 262.264 224.147 262.225 224.036 262.163C223.925 262.101 223.827 262.018 223.748 261.919C223.669 261.819 223.61 261.705 223.575 261.582C223.541 261.46 223.53 261.332 223.545 261.206C223.559 261.079 223.598 260.957 223.66 260.846C223.722 260.735 223.805 260.637 223.905 260.558C224.004 260.479 224.118 260.42 224.241 260.385C224.363 260.35 224.491 260.34 224.617 260.354C226.85 260.614 229.101 260.855 231.295 261.066C231.55 261.078 231.79 261.19 231.962 261.379C232.135 261.567 232.225 261.817 232.213 262.072C232.202 262.327 232.09 262.567 231.901 262.739C231.712 262.912 231.463 263.002 231.208 262.991L231.227 263ZM291.669 261.884C291.414 261.905 291.161 261.823 290.966 261.657C290.771 261.491 290.65 261.254 290.63 260.999C290.61 260.744 290.691 260.491 290.857 260.296C291.023 260.101 291.26 259.98 291.515 259.96C293.757 259.585 295.97 259.171 298.087 258.719C298.342 258.665 298.608 258.715 298.826 258.858C299.045 259 299.197 259.224 299.251 259.479C299.304 259.734 299.254 260 299.112 260.218C298.969 260.437 298.746 260.589 298.491 260.643C296.345 261.095 294.103 261.518 291.823 261.894L291.669 261.884ZM217.844 261.422H217.719C215.506 261.114 213.261 260.794 210.984 260.46C210.729 260.421 210.5 260.281 210.347 260.073C210.195 259.864 210.131 259.604 210.171 259.349C210.21 259.094 210.35 258.865 210.558 258.712C210.766 258.56 211.027 258.496 211.282 258.536C213.514 258.882 215.73 259.203 217.93 259.498C218.186 259.516 218.423 259.634 218.591 259.827C218.759 260.02 218.843 260.272 218.825 260.527C218.807 260.783 218.689 261.02 218.496 261.188C218.303 261.356 218.051 261.44 217.796 261.422H217.844ZM204.547 259.325H204.374C202.167 258.934 199.954 258.52 197.735 258.084C197.609 258.06 197.488 258.011 197.381 257.94C197.273 257.87 197.181 257.779 197.108 257.673C197.036 257.566 196.985 257.447 196.959 257.321C196.933 257.195 196.932 257.065 196.956 256.939C196.98 256.812 197.028 256.692 197.099 256.584C197.169 256.477 197.26 256.384 197.367 256.312C197.473 256.24 197.593 256.189 197.719 256.163C197.844 256.136 197.974 256.135 198.101 256.159C200.314 256.592 202.517 256.996 204.711 257.391C204.96 257.436 205.182 257.577 205.328 257.784C205.474 257.991 205.532 258.247 205.49 258.497C205.457 258.729 205.342 258.94 205.165 259.092C204.988 259.244 204.761 259.327 204.528 259.325H204.547ZM304.831 259.065C304.576 259.097 304.319 259.026 304.116 258.868C303.913 258.71 303.781 258.478 303.749 258.223C303.717 257.968 303.788 257.711 303.946 257.508C304.104 257.305 304.336 257.173 304.591 257.141C306.784 256.544 308.94 255.9 310.979 255.216C311.222 255.135 311.487 255.153 311.716 255.266C311.945 255.38 312.12 255.58 312.201 255.823C312.283 256.065 312.265 256.33 312.151 256.559C312.038 256.788 311.838 256.963 311.595 257.045C309.517 257.737 307.323 258.392 305.081 258.969C304.996 259.013 304.906 259.045 304.812 259.065H304.831ZM191.298 256.737C191.228 256.746 191.157 256.746 191.087 256.737C188.899 256.268 186.706 255.778 184.506 255.265C184.257 255.207 184.041 255.053 183.906 254.837C183.77 254.62 183.727 254.359 183.784 254.11C183.841 253.861 183.995 253.645 184.212 253.51C184.428 253.375 184.69 253.331 184.939 253.388C187.132 253.895 189.316 254.386 191.491 254.86C191.746 254.886 191.981 255.012 192.143 255.21C192.305 255.409 192.382 255.664 192.357 255.919C192.331 256.174 192.205 256.409 192.007 256.571C191.808 256.733 191.553 256.81 191.298 256.785V256.737ZM317.56 254.764C317.339 254.764 317.124 254.687 316.953 254.546C316.781 254.406 316.664 254.211 316.619 253.994C316.575 253.776 316.608 253.551 316.711 253.355C316.814 253.158 316.981 253.004 317.185 252.917C319.302 252.032 321.322 251.079 323.199 250.088C323.31 250.029 323.433 249.992 323.559 249.98C323.685 249.968 323.812 249.981 323.933 250.018C324.054 250.055 324.167 250.115 324.264 250.196C324.362 250.277 324.443 250.376 324.502 250.488C324.562 250.599 324.598 250.722 324.611 250.848C324.623 250.974 324.61 251.101 324.573 251.222C324.536 251.343 324.475 251.456 324.394 251.553C324.314 251.651 324.215 251.732 324.103 251.791C322.179 252.811 320.101 253.783 317.936 254.678C317.822 254.733 317.697 254.762 317.57 254.764H317.56ZM178.175 253.687H177.944C175.769 253.148 173.592 252.583 171.411 251.993C171.285 251.964 171.166 251.91 171.062 251.834C170.958 251.757 170.87 251.661 170.804 251.55C170.737 251.44 170.694 251.317 170.676 251.189C170.658 251.061 170.667 250.931 170.7 250.806C170.734 250.681 170.792 250.565 170.872 250.463C170.951 250.361 171.051 250.277 171.164 250.214C171.277 250.152 171.401 250.113 171.529 250.099C171.658 250.086 171.788 250.098 171.911 250.136C174.076 250.723 176.25 251.281 178.406 251.82C178.529 251.85 178.645 251.905 178.748 251.981C178.85 252.056 178.936 252.151 179.002 252.26C179.067 252.37 179.11 252.491 179.128 252.617C179.147 252.742 179.14 252.871 179.108 252.994C179.05 253.194 178.928 253.369 178.762 253.494C178.595 253.619 178.392 253.687 178.184 253.687H178.175ZM165.166 250.194C165.08 250.208 164.993 250.208 164.907 250.194L164.657 250.127C162.565 249.53 160.49 248.918 158.431 248.289C158.187 248.215 157.981 248.047 157.86 247.821C157.739 247.596 157.713 247.331 157.787 247.086C157.861 246.841 158.029 246.636 158.255 246.515C158.48 246.394 158.745 246.368 158.99 246.442C161.036 247.083 163.101 247.696 165.186 248.279L165.436 248.347C165.681 248.418 165.887 248.584 166.01 248.808C166.133 249.032 166.162 249.295 166.09 249.54C166.026 249.731 165.903 249.897 165.739 250.014C165.575 250.132 165.378 250.195 165.176 250.194H165.166ZM329.424 248.443C329.266 248.443 329.111 248.405 328.972 248.331C328.832 248.257 328.713 248.15 328.625 248.02C328.554 247.915 328.505 247.797 328.479 247.673C328.454 247.549 328.453 247.421 328.478 247.297C328.502 247.173 328.55 247.055 328.62 246.949C328.69 246.844 328.78 246.753 328.885 246.682C330.705 245.449 332.437 244.093 334.071 242.622C334.163 242.528 334.273 242.455 334.394 242.405C334.516 242.355 334.646 242.331 334.777 242.334C334.908 242.336 335.037 242.366 335.157 242.42C335.276 242.475 335.383 242.553 335.471 242.65C335.559 242.747 335.626 242.861 335.668 242.986C335.711 243.11 335.727 243.241 335.717 243.372C335.706 243.503 335.669 243.63 335.608 243.746C335.547 243.862 335.462 243.964 335.36 244.046C333.66 245.576 331.857 246.988 329.963 248.27C329.807 248.378 329.623 248.439 329.433 248.443H329.424ZM152.283 246.268C152.182 246.267 152.082 246.25 151.985 246.22C149.83 245.528 147.694 244.819 145.577 244.094C145.335 244.011 145.135 243.835 145.023 243.605C144.91 243.375 144.893 243.11 144.976 242.867C145.059 242.625 145.235 242.425 145.465 242.313C145.695 242.2 145.96 242.183 146.203 242.266C148.307 242.991 150.43 243.7 152.572 244.392C152.827 244.431 153.057 244.569 153.21 244.776C153.363 244.984 153.428 245.244 153.39 245.499C153.352 245.754 153.213 245.983 153.006 246.137C152.798 246.29 152.539 246.355 152.283 246.317V246.268ZM139.535 241.91C139.423 241.91 139.313 241.89 139.208 241.852C137.082 241.073 134.965 240.294 132.877 239.495C132.759 239.45 132.651 239.381 132.559 239.294C132.467 239.207 132.394 239.102 132.342 238.987C132.291 238.871 132.263 238.746 132.26 238.62C132.256 238.493 132.278 238.367 132.324 238.249C132.369 238.131 132.438 238.023 132.525 237.931C132.612 237.839 132.716 237.766 132.832 237.714C132.948 237.663 133.073 237.635 133.199 237.632C133.326 237.629 133.452 237.65 133.57 237.696C135.648 238.491 137.745 239.271 139.862 240.034C140.082 240.106 140.269 240.254 140.388 240.453C140.507 240.651 140.551 240.886 140.511 241.114C140.471 241.341 140.351 241.547 140.171 241.694C139.992 241.84 139.766 241.917 139.535 241.91ZM339.295 239.38C339.115 239.379 338.938 239.327 338.786 239.231C338.633 239.135 338.511 238.997 338.433 238.835C338.355 238.672 338.324 238.491 338.343 238.312C338.363 238.133 338.433 237.962 338.545 237.821C339.886 236.107 341.047 234.26 342.009 232.308C342.058 232.185 342.132 232.074 342.227 231.981C342.321 231.889 342.434 231.816 342.557 231.769C342.681 231.722 342.813 231.701 342.945 231.707C343.077 231.713 343.207 231.746 343.325 231.804C343.444 231.863 343.549 231.945 343.635 232.046C343.72 232.147 343.784 232.264 343.822 232.391C343.86 232.518 343.872 232.651 343.856 232.782C343.84 232.914 343.798 233.04 343.731 233.154C342.711 235.226 341.48 237.187 340.055 239.004C339.967 239.119 339.853 239.213 339.723 239.278C339.593 239.343 339.45 239.378 339.305 239.38H339.295ZM126.969 237.099C126.847 237.097 126.726 237.07 126.613 237.022C124.51 236.176 122.428 235.316 120.369 234.444C120.248 234.398 120.137 234.328 120.044 234.238C119.951 234.149 119.876 234.041 119.825 233.922C119.774 233.803 119.748 233.675 119.748 233.545C119.748 233.416 119.774 233.288 119.824 233.169C119.875 233.049 119.949 232.942 120.042 232.852C120.135 232.762 120.246 232.692 120.366 232.645C120.487 232.599 120.616 232.578 120.746 232.583C120.875 232.587 121.002 232.618 121.12 232.673C123.166 233.539 125.238 234.396 127.335 235.242C127.544 235.325 127.718 235.478 127.826 235.676C127.934 235.873 127.969 236.102 127.926 236.323C127.882 236.544 127.763 236.742 127.588 236.884C127.413 237.026 127.194 237.102 126.969 237.099ZM114.567 231.827C114.434 231.825 114.303 231.795 114.183 231.74C112.133 230.778 110.074 229.883 108.044 228.921C107.818 228.81 107.645 228.614 107.561 228.376C107.478 228.138 107.491 227.877 107.598 227.649C107.705 227.421 107.898 227.244 108.134 227.156C108.37 227.068 108.632 227.077 108.862 227.18C110.882 228.142 112.932 229.104 114.962 229.989C115.161 230.08 115.324 230.236 115.423 230.432C115.521 230.628 115.55 230.852 115.504 231.067C115.458 231.281 115.34 231.473 115.169 231.612C114.999 231.75 114.787 231.826 114.567 231.827ZM345.164 227.372C345.091 227.381 345.017 227.381 344.943 227.372C344.696 227.313 344.482 227.158 344.349 226.942C344.216 226.725 344.173 226.465 344.231 226.217C344.726 224.097 344.994 221.929 345.03 219.752C345.03 219.497 345.131 219.252 345.311 219.071C345.492 218.891 345.737 218.79 345.992 218.79C346.247 218.79 346.492 218.891 346.672 219.071C346.853 219.252 346.954 219.497 346.954 219.752C346.917 222.066 346.63 224.369 346.098 226.622C346.049 226.835 345.93 227.026 345.758 227.163C345.587 227.299 345.374 227.373 345.155 227.372H345.164ZM102.387 226.073C102.24 226.074 102.095 226.041 101.963 225.977C99.9524 225.015 97.9223 223.937 95.9402 222.908C95.7131 222.789 95.5425 222.585 95.4658 222.34C95.3891 222.096 95.4127 221.831 95.5313 221.604C95.65 221.377 95.854 221.206 96.0985 221.129C96.343 221.053 96.6079 221.076 96.835 221.195C98.7593 222.234 100.818 223.254 102.82 224.255C103.011 224.353 103.165 224.513 103.255 224.708C103.345 224.904 103.367 225.124 103.317 225.334C103.267 225.543 103.148 225.73 102.98 225.864C102.811 225.998 102.602 226.072 102.387 226.073ZM90.456 219.819C90.2937 219.82 90.1341 219.776 89.9942 219.694C88.0122 218.597 86.0302 217.472 84.1155 216.355C83.9061 216.222 83.7562 216.013 83.6972 215.772C83.6381 215.531 83.6745 215.277 83.7987 215.062C83.9229 214.847 84.1253 214.689 84.3636 214.619C84.6019 214.55 84.8578 214.576 85.0776 214.691C87.0019 215.807 88.9262 216.923 90.9082 218.01C91.0978 218.113 91.2476 218.276 91.3336 218.473C91.4196 218.671 91.4368 218.891 91.3825 219.1C91.3282 219.308 91.2054 219.492 91.034 219.623C90.8625 219.753 90.6522 219.822 90.4368 219.819H90.456ZM345.424 214.046C345.195 214.05 344.972 213.971 344.796 213.825C344.619 213.678 344.501 213.474 344.462 213.248C344.072 211.089 343.509 208.966 342.778 206.898C342.694 206.656 342.709 206.392 342.82 206.162C342.931 205.932 343.129 205.755 343.37 205.671C343.611 205.587 343.876 205.602 344.106 205.713C344.336 205.824 344.513 206.021 344.597 206.263C345.358 208.429 345.946 210.652 346.357 212.911C346.38 213.035 346.377 213.163 346.35 213.287C346.323 213.41 346.271 213.527 346.199 213.631C346.127 213.734 346.035 213.823 345.928 213.891C345.821 213.959 345.703 214.005 345.578 214.027L345.424 214.046ZM78.8622 213.007C78.6853 213.006 78.5122 212.956 78.3619 212.863C76.4376 211.66 74.5133 210.429 72.6564 209.216C72.4479 209.074 72.3037 208.855 72.2549 208.608C72.2061 208.36 72.2565 208.103 72.3954 207.892C72.5342 207.682 72.7503 207.534 72.9971 207.481C73.2439 207.428 73.5017 207.474 73.7147 207.61C75.5428 208.812 77.4478 210.034 79.3721 211.227C79.5502 211.338 79.6874 211.503 79.7629 211.698C79.8383 211.894 79.8479 212.109 79.7902 212.31C79.7325 212.511 79.6107 212.688 79.4432 212.814C79.2757 212.94 79.0717 213.008 78.8622 213.007ZM67.6147 205.589C67.4185 205.589 67.2272 205.528 67.0663 205.416C65.1998 204.107 63.3621 202.76 61.5917 201.433C61.4783 201.362 61.3809 201.268 61.3056 201.158C61.2303 201.048 61.1788 200.923 61.1544 200.792C61.1301 200.66 61.1333 200.525 61.1639 200.395C61.1946 200.265 61.252 200.143 61.3324 200.036C61.4129 199.93 61.5147 199.841 61.6314 199.776C61.748 199.711 61.8769 199.671 62.0099 199.658C62.1429 199.645 62.2771 199.661 62.4039 199.703C62.5307 199.745 62.6473 199.813 62.7463 199.903C64.4974 201.211 66.3255 202.539 68.1728 203.838C68.3802 203.985 68.5209 204.208 68.5642 204.459C68.6075 204.71 68.5498 204.967 68.4037 205.175C68.3116 205.308 68.1876 205.416 68.043 205.488C67.8983 205.56 67.7378 205.595 67.5762 205.589H67.6147ZM341.104 201.317C340.925 201.316 340.751 201.265 340.599 201.169C340.448 201.074 340.326 200.939 340.248 200.778C339.286 198.854 338.198 196.93 336.977 195.005C336.909 194.899 336.863 194.78 336.841 194.655C336.82 194.531 336.823 194.403 336.851 194.28C336.878 194.157 336.93 194.04 337.003 193.937C337.076 193.833 337.168 193.745 337.275 193.678C337.382 193.61 337.501 193.564 337.625 193.543C337.75 193.521 337.877 193.524 338 193.552C338.124 193.58 338.24 193.631 338.344 193.704C338.447 193.777 338.535 193.869 338.603 193.976C339.853 195.968 340.989 197.969 341.96 199.922C342.071 200.149 342.087 200.411 342.006 200.651C341.925 200.89 341.753 201.088 341.527 201.202C341.385 201.276 341.227 201.316 341.066 201.317H341.104ZM56.858 197.469C56.6376 197.469 56.4237 197.395 56.2518 197.257C54.4718 195.814 52.7304 194.37 51.0755 192.889C50.967 192.81 50.8761 192.71 50.8085 192.595C50.7409 192.479 50.6982 192.351 50.683 192.218C50.6679 192.085 50.6806 191.95 50.7204 191.823C50.7602 191.695 50.8263 191.577 50.9143 191.476C51.0023 191.375 51.1104 191.294 51.2316 191.237C51.3529 191.181 51.4846 191.15 51.6184 191.147C51.7522 191.144 51.8851 191.169 52.0086 191.221C52.1322 191.272 52.2436 191.349 52.3359 191.446C53.9812 192.889 55.7034 194.332 57.4641 195.756C57.6198 195.881 57.7328 196.051 57.7874 196.243C57.8421 196.435 57.8356 196.639 57.769 196.827C57.7024 197.016 57.579 197.178 57.4157 197.293C57.2525 197.408 57.0576 197.469 56.858 197.469ZM333.955 189.906C333.806 189.906 333.659 189.871 333.525 189.805C333.392 189.738 333.275 189.641 333.186 189.521C331.896 187.809 330.482 186.067 328.991 184.345C328.903 184.25 328.836 184.139 328.792 184.018C328.749 183.896 328.73 183.768 328.737 183.639C328.744 183.51 328.777 183.385 328.834 183.269C328.891 183.153 328.97 183.05 329.067 182.966C329.165 182.881 329.278 182.817 329.4 182.777C329.523 182.737 329.652 182.723 329.781 182.734C329.909 182.745 330.034 182.782 330.148 182.842C330.262 182.902 330.362 182.985 330.444 183.085C331.964 184.845 333.407 186.616 334.725 188.367C334.878 188.571 334.944 188.827 334.908 189.08C334.872 189.333 334.737 189.561 334.533 189.714C334.356 189.856 334.134 189.931 333.907 189.925L333.955 189.906ZM46.7074 188.598C46.4563 188.599 46.2146 188.502 46.0338 188.328C44.379 186.731 42.7722 185.105 41.2231 183.517C41.1329 183.428 41.0614 183.322 41.0125 183.204C40.9637 183.087 40.9385 182.961 40.9385 182.834C40.9385 182.707 40.9637 182.582 41.0125 182.464C41.0614 182.347 41.1329 182.241 41.2231 182.151C41.4034 181.972 41.6473 181.871 41.9014 181.871C42.1556 181.871 42.3995 181.972 42.5798 182.151C44.0615 183.729 45.649 185.326 47.2846 186.904C47.4638 187.085 47.5644 187.328 47.5644 187.583C47.5644 187.837 47.4638 188.081 47.2846 188.261C47.1386 188.438 46.9338 188.558 46.7074 188.598ZM325.104 179.746C324.976 179.745 324.85 179.72 324.733 179.67C324.616 179.62 324.51 179.548 324.421 179.457C322.9 177.899 321.294 176.33 319.61 174.781C319.518 174.695 319.443 174.591 319.391 174.476C319.339 174.36 319.31 174.236 319.306 174.109C319.302 173.983 319.323 173.857 319.368 173.739C319.412 173.62 319.48 173.512 319.567 173.42C319.653 173.328 319.757 173.253 319.872 173.201C319.987 173.149 320.112 173.12 320.238 173.116C320.365 173.112 320.491 173.133 320.609 173.178C320.727 173.222 320.836 173.29 320.928 173.376C322.612 174.935 324.238 176.532 325.739 178.11C325.918 178.291 326.018 178.534 326.018 178.789C326.018 179.043 325.918 179.287 325.739 179.467C325.569 179.636 325.343 179.735 325.104 179.746ZM37.49 178.764C37.3487 178.765 37.209 178.734 37.081 178.674C36.9529 178.614 36.8396 178.527 36.7492 178.418C35.2578 176.629 33.8627 174.81 32.5927 173.03C32.47 172.823 32.4294 172.577 32.479 172.342C32.5286 172.106 32.6647 171.898 32.8604 171.758C33.0561 171.617 33.2973 171.556 33.5363 171.585C33.7753 171.614 33.9948 171.731 34.1514 171.914C35.4022 173.656 36.7684 175.435 38.2309 177.187C38.3119 177.284 38.3729 177.396 38.4105 177.517C38.448 177.638 38.4614 177.765 38.4498 177.891C38.4382 178.017 38.4018 178.139 38.3428 178.251C38.2837 178.363 38.2032 178.462 38.1058 178.543C37.9327 178.687 37.7148 178.765 37.49 178.764ZM315.242 170.557C315.012 170.557 314.791 170.476 314.616 170.326C312.961 168.922 311.22 167.44 309.43 166.083C309.23 165.925 309.101 165.694 309.071 165.44C309.041 165.187 309.113 164.932 309.272 164.732C309.43 164.531 309.661 164.402 309.915 164.372C310.168 164.343 310.423 164.415 310.623 164.573C312.432 165.997 314.193 167.459 315.867 168.864C316.017 168.992 316.123 169.162 316.173 169.353C316.222 169.543 316.212 169.744 316.144 169.929C316.076 170.113 315.953 170.272 315.792 170.385C315.63 170.497 315.438 170.557 315.242 170.557ZM29.7159 167.796C29.5489 167.796 29.3848 167.753 29.2397 167.67C29.0947 167.587 28.9736 167.468 28.8884 167.325C27.7315 165.361 26.6781 163.337 25.7326 161.263C25.6285 161.031 25.6207 160.767 25.7108 160.529C25.801 160.291 25.9818 160.098 26.2137 159.993C26.3292 159.94 26.4541 159.91 26.5811 159.906C26.7082 159.901 26.8348 159.922 26.9538 159.967C27.0728 160.012 27.1817 160.079 27.2743 160.166C27.3669 160.254 27.4414 160.358 27.4933 160.474C28.4034 162.487 29.4215 164.45 30.5433 166.353C30.6704 166.571 30.7063 166.831 30.6433 167.076C30.5803 167.321 30.4234 167.531 30.2066 167.661C30.0581 167.749 29.8886 167.796 29.7159 167.796Z" fill="#2735AC"/>
<path d="M139.645 66.5015H26.8438V129.252H139.645V66.5015Z" fill="#45D8F9"/>
<path d="M53.7354 73.554H33.896C31.3367 73.554 31.3367 77.518 33.896 77.518H53.7354C56.2947 77.518 56.2947 73.554 53.7354 73.554Z" fill="white"/>
<path d="M86.7163 73.554H75.3726C72.8133 73.554 72.8133 77.518 75.3726 77.518H86.7163C89.266 77.518 89.266 73.554 86.7163 73.554Z" fill="white"/>
<path d="M62.5102 79.8176H33.896C31.3367 79.8176 31.3367 83.7913 33.896 83.7913H62.5102C65.0984 83.8201 65.0984 79.8176 62.5102 79.8176Z" fill="white"/>
<path d="M86.7163 79.8176H75.3726C72.8133 79.8176 72.8133 83.7913 75.3726 83.7913H86.7163C89.266 83.8201 89.266 79.8176 86.7163 79.8176Z" fill="white"/>
<path d="M56.7373 86.0813H33.896C31.3367 86.0813 31.3367 90.055 33.896 90.055H56.7373C59.2774 90.055 59.2774 86.0813 56.7373 86.0813Z" fill="white"/>
<path d="M86.7226 86.0813H79.7085C77.1492 86.0813 77.1492 90.055 79.7085 90.055H86.7226C89.2722 90.055 89.2722 86.0813 86.7226 86.0813Z" fill="white"/>
<path d="M86.7226 117.87H79.7085C77.1492 117.87 77.1492 121.834 79.7085 121.834H86.7226C89.2722 121.834 89.2722 117.87 86.7226 117.87Z" fill="white"/>
<path d="M113.516 123.653C113.516 123.653 113.516 123.711 113.516 123.73H114.382C114.382 123.73 114.382 123.73 114.382 123.653V111.569H113.516V123.653Z" fill="white"/>
<path d="M123.749 123.653C123.744 123.678 123.744 123.705 123.749 123.73H124.606C124.611 123.705 124.611 123.678 124.606 123.653V111.569H123.711L123.749 123.653Z" fill="white"/>
<path d="M117.57 123.653C117.564 123.678 117.564 123.705 117.57 123.73H118.426C118.431 123.705 118.431 123.678 118.426 123.653V111.569H117.531L117.57 123.653Z" fill="white"/>
<path d="M118.867 123.653C118.867 123.653 118.867 123.711 118.867 123.73H119.733C119.733 123.73 119.733 123.73 119.733 123.653V111.569H118.828L118.867 123.653Z" fill="white"/>
<path d="M122.16 123.653C122.155 123.678 122.155 123.705 122.16 123.73H123.017C123.022 123.705 123.022 123.678 123.017 123.653V111.569H122.16V123.653Z" fill="white"/>
<path d="M114.929 123.653C114.925 123.679 114.925 123.705 114.929 123.73H116.68C116.685 123.705 116.685 123.679 116.68 123.653V111.569H114.891L114.929 123.653Z" fill="white"/>
<path d="M120.015 123.653C120.011 123.679 120.011 123.705 120.015 123.73H121.766C121.77 123.705 121.77 123.679 121.766 123.653V111.569H119.977L120.015 123.653Z" fill="white"/>
<path d="M128.837 123.653C128.832 123.678 128.832 123.705 128.837 123.73H129.693C129.693 123.73 129.693 123.73 129.693 123.653V111.569H128.789L128.837 123.653Z" fill="white"/>
<path d="M127.195 123.653C127.195 123.653 127.195 123.711 127.195 123.73H128.061C128.061 123.73 128.061 123.73 128.061 123.653V111.569H127.156L127.195 123.653Z" fill="white"/>
<path d="M125.093 123.653C125.089 123.679 125.089 123.705 125.093 123.73H126.844C126.844 123.73 126.844 123.73 126.844 123.653V111.569H125.055L125.093 123.653Z" fill="white"/>
<path d="M118.317 80.1929H5.51562V142.944H118.317V80.1929Z" fill="#4AB5F9"/>
<path d="M32.3917 87.2456H12.5523C9.99299 87.2456 9.99299 91.2193 12.5523 91.2193H32.3917C34.951 91.2193 34.951 87.2456 32.3917 87.2456Z" fill="white"/>
<path d="M65.3918 87.2456H54.0289C51.4695 87.2456 51.4695 91.2193 54.0289 91.2193H65.3918C67.9222 91.2193 67.9222 87.2456 65.3918 87.2456Z" fill="white"/>
<path d="M41.1953 93.509H12.5523C9.99299 93.509 9.99299 97.4827 12.5523 97.4827H41.1953C43.7546 97.4827 43.7546 93.509 41.1953 93.509Z" fill="white"/>
<path d="M65.3918 93.509H54.0289C51.4695 93.509 51.4695 97.4827 54.0289 97.4827H65.3918C67.9222 97.4827 67.9222 93.509 65.3918 93.509Z" fill="white"/>
<path d="M35.3743 99.7822H12.5523C9.99299 99.7822 9.99299 103.746 12.5523 103.746H35.3743C37.9336 103.746 37.9336 99.7822 35.3743 99.7822Z" fill="white"/>
<path d="M65.4059 99.7822H58.3726C55.8133 99.7822 55.8133 103.746 58.3726 103.746H65.4059C67.9363 103.746 67.9363 99.7822 65.4059 99.7822Z" fill="white"/>
<path d="M65.4059 131.562H58.3726C55.8133 131.562 55.8133 135.526 58.3726 135.526H65.4059C67.9363 135.526 67.9363 131.562 65.4059 131.562Z" fill="white"/>
<path d="M92.1322 137.354C92.1322 137.354 92.1322 137.354 92.1322 137.421H92.9982C92.9982 137.421 92.9982 137.421 92.9982 137.354V125.26H92.0938L92.1322 137.354Z" fill="white"/>
<path d="M102.407 137.354C102.402 137.376 102.402 137.399 102.407 137.421H103.264C103.264 137.421 103.264 137.421 103.264 137.354V125.26H102.359L102.407 137.354Z" fill="white"/>
<path d="M96.2308 137.354C96.2251 137.376 96.2251 137.399 96.2308 137.421H97.1449C97.1449 137.421 97.1449 137.421 97.1449 137.354V125.26H96.2501L96.2308 137.354Z" fill="white"/>
<path d="M97.515 137.354C97.515 137.354 97.515 137.354 97.515 137.421H98.381C98.381 137.421 98.381 137.421 98.381 137.354V125.26H97.4766L97.515 137.354Z" fill="white"/>
<path d="M100.82 137.354C100.814 137.376 100.814 137.399 100.82 137.421H101.676C101.682 137.399 101.682 137.376 101.676 137.354V125.26H100.781L100.82 137.354Z" fill="white"/>
<path d="M93.5902 137.354C93.5845 137.376 93.5845 137.399 93.5902 137.421H95.3413C95.347 137.399 95.347 137.376 95.3413 137.354V125.26H93.5902V137.354Z" fill="white"/>
<path d="M98.6713 137.354C98.6656 137.376 98.6656 137.399 98.6713 137.421H100.422C100.428 137.399 100.428 137.376 100.422 137.354V125.26H98.6328L98.6713 137.354Z" fill="white"/>
<path d="M107.509 137.354C107.504 137.376 107.504 137.399 107.509 137.421H108.365C108.365 137.421 108.365 137.421 108.365 137.354V125.26H107.461L107.509 137.354Z" fill="white"/>
<path d="M105.851 137.354C105.851 137.354 105.851 137.354 105.851 137.421H106.717C106.717 137.421 106.717 137.421 106.717 137.354V125.26H105.812L105.851 137.354Z" fill="white"/>
<path d="M103.759 137.354C103.754 137.376 103.754 137.399 103.759 137.421H105.51C105.51 137.421 105.51 137.421 105.51 137.354V125.26H103.711L103.759 137.354Z" fill="white"/>
<path d="M129.973 150.016L24.1273 109.798C24.1273 109.798 5.55796 104.227 0.930045 107.633C-3.22642 114.176 7.89597 121.344 7.89597 121.344L124.671 165.708L129.482 172.712L134.726 174.714L135.88 158.867L136.227 158.992L155.21 145.907L147.628 143.021L129.973 150.016Z" fill="#D1D6D0"/>
<path d="M58.0156 138.912C58.0156 138.912 81.9057 193.601 85.0326 193.86C88.1596 194.12 90.5938 189.916 90.5938 189.916L80.7126 147.533C80.7126 147.533 70.4658 137.7 58.0156 138.912Z" fill="white"/>
<path d="M33.8743 120.16C33.4473 119.997 32.9815 119.965 32.536 120.067C32.0905 120.169 31.6852 120.401 31.3716 120.733C31.058 121.066 30.8501 121.484 30.7742 121.934C30.6984 122.385 30.7579 122.848 30.9454 123.265C31.1329 123.682 31.4399 124.034 31.8275 124.276C32.2151 124.518 32.6658 124.64 33.1226 124.626C33.5795 124.612 34.0218 124.462 34.3937 124.197C34.7656 123.931 35.0503 123.561 35.2117 123.133C35.3198 122.85 35.371 122.549 35.3623 122.246C35.3536 121.943 35.2851 121.645 35.1609 121.369C35.0366 121.092 34.859 120.843 34.6382 120.636C34.4174 120.429 34.1578 120.267 33.8743 120.16Z" fill="white"/>
<path d="M23.7884 116.321C23.3613 116.158 22.8956 116.126 22.45 116.228C22.0045 116.33 21.5993 116.562 21.2857 116.894C20.9721 117.227 20.7641 117.645 20.6883 118.096C20.6124 118.546 20.672 119.009 20.8595 119.426C21.047 119.843 21.354 120.195 21.7416 120.437C22.1291 120.679 22.5799 120.801 23.0367 120.787C23.4935 120.773 23.9359 120.623 24.3078 120.358C24.6797 120.092 24.9643 119.722 25.1257 119.294C25.3415 118.723 25.322 118.089 25.0713 117.532C24.8206 116.974 24.3593 116.539 23.7884 116.321Z" fill="white"/>
<path d="M13.1842 112.3C12.7592 112.137 12.2954 112.104 11.8517 112.205C11.408 112.306 11.0042 112.536 10.6914 112.867C10.3787 113.198 10.1711 113.614 10.0949 114.062C10.0188 114.511 10.0774 114.972 10.2635 115.387C10.4496 115.803 10.7547 116.154 11.1403 116.395C11.5258 116.637 11.9744 116.759 12.4293 116.746C12.8842 116.732 13.3249 116.584 13.6957 116.321C14.0664 116.057 14.3505 115.689 14.5119 115.263C14.7253 114.694 14.7055 114.063 14.4569 113.509C14.2084 112.954 13.751 112.519 13.1842 112.3Z" fill="white"/>
<path d="M43.9686 123.99C43.542 123.825 43.0761 123.791 42.63 123.891C42.1839 123.992 41.7777 124.222 41.4628 124.554C41.1479 124.885 40.9386 125.303 40.8613 125.754C40.7841 126.204 40.8424 126.668 41.0288 127.085C41.2153 127.503 41.5216 127.856 41.9087 128.099C42.2959 128.342 42.7467 128.465 43.2037 128.452C43.6608 128.439 44.1037 128.29 44.4763 128.025C44.8488 127.76 45.1343 127.39 45.2964 126.963C45.4048 126.68 45.4565 126.379 45.4484 126.077C45.4403 125.775 45.3727 125.477 45.2493 125.201C45.126 124.924 44.9494 124.675 44.7296 124.468C44.5099 124.26 44.2513 124.097 43.9686 123.99Z" fill="white"/>
<path d="M55.5227 128.386C55.0957 128.224 54.6299 128.191 54.1844 128.293C53.7389 128.395 53.3337 128.627 53.0201 128.959C52.7064 129.292 52.4985 129.71 52.4227 130.161C52.3468 130.611 52.4064 131.075 52.5939 131.491C52.7814 131.908 53.0884 132.26 53.4759 132.502C53.8635 132.744 54.3143 132.866 54.7711 132.852C55.2279 132.838 55.6703 132.689 56.0422 132.423C56.414 132.157 56.6987 131.787 56.8601 131.36C56.9696 131.077 57.0218 130.775 57.0137 130.472C57.0057 130.169 56.9374 129.87 56.813 129.593C56.6886 129.317 56.5104 129.068 56.2889 128.861C56.0675 128.653 55.807 128.492 55.5227 128.386Z" fill="white"/>
<path d="M66.0696 132.389C65.6426 132.226 65.1768 132.194 64.7313 132.296C64.2858 132.398 63.8806 132.63 63.5669 132.962C63.2533 133.295 63.0454 133.713 62.9695 134.163C62.8937 134.614 62.9533 135.077 63.1408 135.494C63.3283 135.911 63.6352 136.263 64.0228 136.505C64.4104 136.747 64.8611 136.869 65.318 136.855C65.7748 136.841 66.2172 136.691 66.589 136.426C66.9609 136.16 67.2456 135.79 67.407 135.362C67.6228 134.791 67.6032 134.157 67.3525 133.599C67.1019 133.042 66.6405 132.607 66.0696 132.389Z" fill="white"/>
<path d="M77.6335 136.786C77.2084 136.626 76.7453 136.595 76.3027 136.698C75.8602 136.801 75.458 137.032 75.147 137.364C74.8359 137.695 74.6299 138.111 74.5549 138.559C74.48 139.007 74.5395 139.467 74.7259 139.881C74.9122 140.296 75.2172 140.645 75.6022 140.887C75.9872 141.128 76.435 141.25 76.8892 141.237C77.3433 141.223 77.7834 141.076 78.1539 140.813C78.5244 140.55 78.8087 140.183 78.9709 139.759C79.0791 139.476 79.1303 139.175 79.1215 138.872C79.1128 138.569 79.0444 138.271 78.9201 137.995C78.7958 137.718 78.6182 137.469 78.3974 137.262C78.1766 137.055 77.917 136.893 77.6335 136.786Z" fill="white"/>
<path d="M89.9733 141.472C89.5482 141.309 89.0845 141.276 88.6408 141.377C88.197 141.478 87.7932 141.708 87.4805 142.039C87.1678 142.37 86.9602 142.786 86.884 143.234C86.8078 143.683 86.8665 144.144 87.0526 144.559C87.2387 144.975 87.5438 145.325 87.9293 145.567C88.3149 145.809 88.7635 145.931 89.2184 145.918C89.6733 145.904 90.114 145.756 90.4847 145.492C90.8555 145.228 91.1395 144.86 91.301 144.435C91.5143 143.866 91.4946 143.235 91.246 142.68C90.9974 142.126 90.5401 141.691 89.9733 141.472Z" fill="white"/>
<path d="M101.507 145.859C101.08 145.696 100.614 145.664 100.169 145.766C99.7233 145.868 99.318 146.1 99.0044 146.432C98.6908 146.765 98.4829 147.183 98.407 147.633C98.3312 148.084 98.3908 148.547 98.5783 148.964C98.7658 149.381 99.0727 149.733 99.4603 149.975C99.8479 150.217 100.299 150.339 100.755 150.325C101.212 150.311 101.655 150.161 102.027 149.896C102.398 149.63 102.683 149.26 102.844 148.832C103.06 148.261 103.041 147.627 102.79 147.069C102.539 146.512 102.078 146.077 101.507 145.859Z" fill="white"/>
<path d="M112.074 149.871C111.649 149.71 111.185 149.679 110.742 149.782C110.299 149.884 109.896 150.116 109.585 150.447C109.273 150.779 109.067 151.195 108.992 151.644C108.917 152.092 108.977 152.553 109.164 152.968C109.352 153.382 109.657 153.732 110.043 153.973C110.429 154.214 110.878 154.335 111.333 154.32C111.787 154.306 112.227 154.157 112.597 153.893C112.968 153.628 113.251 153.26 113.412 152.835C113.624 152.264 113.603 151.633 113.353 151.078C113.102 150.523 112.643 150.089 112.074 149.871Z" fill="white"/>
<path d="M139.3 346.043C134.169 346.036 129.096 347.126 124.422 349.24C119.747 351.354 115.579 354.443 112.196 358.301C111.022 359.667 112.995 361.649 114.168 360.283C117.219 356.772 120.972 353.941 125.185 351.97C129.397 350 133.976 348.934 138.626 348.843C148.065 348.67 158.36 352.816 162.458 361.832C163.209 363.467 165.624 362.043 164.873 360.417C160.486 350.767 149.441 346.062 139.3 346.043Z" fill="#0B1B58"/>
<path d="M195.858 384.24C187.006 377.053 183.783 379.612 177.346 367.499C170.91 355.385 165.666 354.279 165.666 354.279H111.17C111.17 354.279 105.936 355.385 99.4994 367.499C93.0626 379.612 89.8779 377.053 80.9781 384.24C72.0783 391.427 70.9141 407.697 70.9141 407.697H205.922C205.922 407.697 204.719 391.437 195.858 384.24Z" fill="#2181F1"/>
<path d="M45.0859 264.982V299.812C45.1151 300.163 45.2752 300.491 45.5345 300.729C45.7938 300.968 46.1334 301.101 46.4859 301.101C46.8383 301.101 47.1779 300.968 47.4372 300.729C47.6965 300.491 47.8566 300.163 47.8858 299.812V264.982C47.8566 264.631 47.6965 264.304 47.4372 264.065C47.1779 263.826 46.8383 263.694 46.4859 263.694C46.1334 263.694 45.7938 263.826 45.5345 264.065C45.2752 264.304 45.1151 264.631 45.0859 264.982Z" fill="white"/>
<path d="M79.9219 264.982V299.812C79.951 300.163 80.1111 300.491 80.3705 300.729C80.6298 300.968 80.9693 301.101 81.3218 301.101C81.6742 301.101 82.0138 300.968 82.2731 300.729C82.5325 300.491 82.6926 300.163 82.7217 299.812V264.982C82.6926 264.631 82.5325 264.304 82.2731 264.065C82.0138 263.826 81.6742 263.694 81.3218 263.694C80.9693 263.694 80.6298 263.826 80.3705 264.065C80.1111 264.304 79.951 264.631 79.9219 264.982Z" fill="white"/>
<path d="M83.4754 261.875H43.4984C42.6741 261.875 41.8837 262.202 41.3009 262.785C40.718 263.368 40.3906 264.158 40.3906 264.982C40.3906 265.806 40.718 266.597 41.3009 267.18C41.8837 267.763 42.6741 268.09 43.4984 268.09H83.4754C84.2996 268.09 85.0901 267.763 85.6729 267.18C86.2557 266.597 86.5831 265.806 86.5831 264.982C86.5831 264.158 86.2557 263.368 85.6729 262.785C85.0901 262.202 84.2996 261.875 83.4754 261.875Z" fill="white"/>
<path d="M80.1551 295.492C77.2687 293.615 72.0924 292.807 67.6473 292.47V292.259C67.6473 292.259 65.9635 292.201 63.5197 292.259C61.0758 292.317 59.4017 292.259 59.4017 292.259V292.47C54.9085 292.807 49.6937 293.615 46.8938 295.492C42.3063 298.545 37.3334 300.974 32.1057 302.717C29.0124 303.822 26.1465 305.482 23.6484 307.615V396.401H103.506V307.586C101.006 305.456 98.141 303.796 95.0491 302.688C89.7847 300.967 84.7752 298.547 80.1551 295.492Z" fill="#0E2B5C"/>
<path d="M35.5618 396.373C34.471 396.371 33.4041 396.693 32.4962 397.297C31.5884 397.902 30.8802 398.762 30.4615 399.769C30.0427 400.777 29.9322 401.885 30.1438 402.956C30.3555 404.026 30.8798 405.009 31.6504 405.781C32.421 406.553 33.4034 407.079 34.4731 407.292C35.5428 407.506 36.6517 407.397 37.6597 406.98C38.6676 406.563 39.5292 405.857 40.1354 404.95C40.7417 404.043 41.0652 402.977 41.0652 401.886C41.0652 400.425 40.4857 399.025 39.4539 397.991C38.4221 396.957 37.0223 396.375 35.5618 396.373Z" fill="white"/>
<path d="M91.3665 396.373C90.2757 396.371 89.2088 396.693 88.3009 397.297C87.3931 397.902 86.6849 398.762 86.2662 399.769C85.8474 400.777 85.7369 401.885 85.9485 402.956C86.1602 404.026 86.6845 405.009 87.4551 405.781C88.2257 406.553 89.208 407.079 90.2777 407.292C91.3474 407.506 92.4564 407.397 93.4644 406.98C94.4723 406.563 95.3339 405.857 95.9401 404.95C96.5463 404.043 96.8699 402.977 96.8699 401.886C96.8699 400.425 96.2904 399.025 95.2586 397.991C94.2268 396.957 92.827 396.375 91.3665 396.373Z" fill="white"/>
<path d="M63.1337 312.185C60.3146 312.185 40.9563 312.31 23.5703 322.307V396.392H103.428V322.72C85.8403 312.31 65.9912 312.156 63.1337 312.185Z" fill="#0E2B5C"/>
<path d="M207.023 198.546V260.335C207.053 260.686 207.213 261.014 207.472 261.252C207.731 261.491 208.071 261.624 208.423 261.624C208.776 261.624 209.115 261.491 209.375 261.252C209.634 261.014 209.794 260.686 209.823 260.335V198.546C209.794 198.195 209.634 197.867 209.375 197.629C209.115 197.39 208.776 197.258 208.423 197.258C208.071 197.258 207.731 197.39 207.472 197.629C207.213 197.867 207.053 198.195 207.023 198.546Z" fill="#2736AD"/>
<path d="M237.938 198.546V260.335C237.967 260.686 238.127 261.014 238.386 261.252C238.645 261.491 238.985 261.624 239.337 261.624C239.69 261.624 240.029 261.491 240.289 261.252C240.548 261.014 240.708 260.686 240.737 260.335V198.546C240.708 198.195 240.548 197.867 240.289 197.629C240.029 197.39 239.69 197.258 239.337 197.258C238.985 197.258 238.645 197.39 238.386 197.629C238.127 197.867 237.967 198.195 237.938 198.546Z" fill="#2736AD"/>
<path d="M260.247 255.313H187.75C187.75 255.313 178.35 260.932 177.686 271.015C177.022 281.098 177.686 389.291 177.686 389.291C177.686 389.291 181.746 399.644 196.245 400.135C208.888 400.558 221.088 400.24 223.994 400.135C226.88 400.221 239.109 400.539 251.752 400.135C266.241 399.644 270.302 389.291 270.302 389.291C270.302 389.291 270.966 281.098 270.302 271.015C269.638 260.932 260.247 255.313 260.247 255.313Z" fill="#0B1B58"/>
<path d="M254.075 406.956C258.379 406.956 261.868 404.001 261.868 400.356C261.868 396.71 258.379 393.755 254.075 393.755C249.77 393.755 246.281 396.71 246.281 400.356C246.281 404.001 249.77 406.956 254.075 406.956Z" fill="#060E2C"/>
<path d="M254.071 403.175C255.91 403.175 257.4 401.913 257.4 400.356C257.4 398.799 255.91 397.537 254.071 397.537C252.233 397.537 250.742 398.799 250.742 400.356C250.742 401.913 252.233 403.175 254.071 403.175Z" fill="#9AE2FB"/>
<path d="M193.082 406.956C197.387 406.956 200.876 404.001 200.876 400.356C200.876 396.71 197.387 393.755 193.082 393.755C188.778 393.755 185.289 396.71 185.289 400.356C185.289 404.001 188.778 406.956 193.082 406.956Z" fill="#060E2C"/>
<path d="M193.079 403.175C194.918 403.175 196.408 401.913 196.408 400.356C196.408 398.799 194.918 397.537 193.079 397.537C191.24 397.537 189.75 398.799 189.75 400.356C189.75 401.913 191.24 403.175 193.079 403.175Z" fill="#9AE2FB"/>
<path d="M256.257 271.948H191.717C188.624 271.948 186.117 274.455 186.117 277.548V383.211C186.117 386.303 188.624 388.81 191.717 388.81H256.257C259.35 388.81 261.857 386.303 261.857 383.211V277.548C261.857 274.455 259.35 271.948 256.257 271.948Z" fill="#2736AD"/>
<path d="M242.097 192.167H205.882C204.208 192.167 202.852 193.524 202.852 195.198V195.516C202.852 197.19 204.208 198.546 205.882 198.546H242.097C243.771 198.546 245.128 197.19 245.128 195.516V195.198C245.128 193.524 243.771 192.167 242.097 192.167Z" fill="#0B1B58"/>
<path d="M261.86 264.972H186.12C185.949 264.993 185.792 265.075 185.677 265.203C185.563 265.332 185.5 265.498 185.5 265.67C185.5 265.842 185.563 266.008 185.677 266.137C185.792 266.265 185.949 266.347 186.12 266.368H261.86C262.031 266.347 262.189 266.265 262.303 266.137C262.417 266.008 262.481 265.842 262.481 265.67C262.481 265.498 262.417 265.332 262.303 265.203C262.189 265.075 262.031 264.993 261.86 264.972Z" fill="#2736AD"/>
<path d="M332.115 354.452C326.015 338.095 321.06 336.546 321.06 336.546H269.47C269.47 336.546 264.515 338.047 258.415 354.452C252.315 370.856 249.275 367.383 240.885 377.12C232.495 386.857 231.359 408.871 231.359 408.871H359.171C359.171 408.871 358.026 386.857 349.645 377.12C341.265 367.383 338.215 370.847 332.115 354.452Z" fill="#FFCD21"/>
<path d="M318.915 336.547C317.347 334.372 313.71 336.46 315.288 338.664C317.593 341.825 319.409 345.315 320.676 349.016C321.455 351.383 322.158 354.183 321.33 356.627C320.262 359.773 316.827 360.629 313.883 361.11C299.826 363.41 287.27 353.837 278.611 343.792C276.315 341.195 274.239 338.411 272.405 335.469C271.01 333.16 267.373 335.267 268.778 337.586C274.351 346.808 282.055 354.559 291.244 360.187C298.248 364.324 306.302 366.46 314.422 365.228C318.117 364.67 322.004 363.487 324.188 360.225C325.987 357.55 326.112 354.241 325.564 351.162C324.659 345.985 321.975 340.819 318.915 336.547Z" fill="#FFAE36"/>
<path d="M268.32 376.408V376.475C268.32 391.504 281.242 403.694 297.185 403.694C313.127 403.694 326.049 391.504 326.049 376.475V376.408H268.32Z" fill="#FFAE36"/>
<path d="M240.449 353.403C238.525 348.073 220.34 348.256 217.973 348.314C210.036 348.477 202.079 348.737 194.141 348.516C186.203 348.294 178.323 347.438 170.376 348.131C165.94 348.516 161.264 348.67 161.072 353.403C161.072 353.403 160.774 360.379 160.514 369.192C160.091 383.846 159.764 403.579 161.072 404.878C163.08 406.68 165.541 407.901 168.19 408.41C170.84 408.918 173.578 408.695 176.11 407.764C183.211 405.263 200.76 403.589 200.76 403.589C200.76 403.589 218.31 405.263 225.411 407.764C227.943 408.695 230.681 408.918 233.331 408.41C235.98 407.901 238.441 406.68 240.449 404.878C241.757 403.579 241.411 383.836 241.007 369.192C240.747 360.379 240.449 353.403 240.449 353.403Z" fill="#F83B89"/>
<path d="M195.215 338.586C190.906 340.385 187.149 343.289 184.323 347.005C182.678 349.151 186.324 351.238 187.95 349.131C187.296 349.978 188.095 348.977 188.306 348.737C188.797 348.169 189.326 347.63 189.865 347.111C191.55 345.45 193.481 344.058 195.59 342.983C202.69 339.462 209.127 343.31 213.563 349.131C215.179 351.248 218.826 349.131 217.19 347.005C211.85 340.01 204.086 335.036 195.215 338.586Z" fill="#FB89B8"/>
<path d="M217.975 348.314C210.037 348.477 202.08 348.737 194.143 348.516C186.205 348.294 178.325 347.438 170.378 348.131C165.942 348.516 161.266 348.67 161.074 353.403C161.074 353.403 160.775 360.379 160.516 369.192C169.175 379.458 183.973 386.212 200.762 386.212C217.552 386.212 232.349 379.477 241.009 369.192C240.749 360.379 240.451 353.403 240.451 353.403C238.863 347.861 220.303 348.256 217.975 348.314Z" fill="#FB89B8"/>
<path d="M228.045 371.501C211.487 380.285 190.907 378.842 174.098 371.501C172.462 370.779 171.038 373.194 172.684 373.916C190.454 381.681 211.939 383.21 229.45 373.916C231.047 373.069 229.643 370.654 228.045 371.501Z" fill="#F83B89"/>
</svg>
