<svg width="545" height="353" viewBox="0 0 545 353" fill="none" xmlns="http://www.w3.org/2000/svg">
<path d="M51.5357 344.1C51.5357 344.1 22.9517 227.394 130.156 244.536C237.361 261.679 109.654 129.101 211.353 46.0541C313.052 -36.9923 511.119 -4.1678 538.433 115.899C565.747 235.965 480.255 344.1 480.255 344.1H51.5357Z" fill="#F4E0BD"/>
<path d="M269.305 4.76837C264.267 5.77648 259.309 7.14519 254.468 8.86394C249.606 10.5265 244.837 12.4479 240.181 14.6197C230.849 18.9403 222.003 24.2408 213.792 30.4319C205.538 36.5634 197.967 43.5646 191.209 51.3148L188.739 54.2752L187.509 55.7754L186.333 57.3056L183.988 60.366L181.768 63.5165C180.238 65.5818 178.897 67.7771 177.487 69.9324C176.762 70.9975 176.147 72.1276 175.487 73.2278L173.532 76.5583L172.977 76.2532C176.002 66.1168 181.098 56.6555 187.379 48.0343C193.794 39.437 201.415 31.8092 210.007 25.3862C211.067 24.5661 212.172 23.816 213.272 23.0509C214.372 22.2858 215.462 21.5057 216.603 20.8006C217.743 20.0955 218.868 19.3704 220.018 18.6903C221.168 18.0102 222.328 17.3351 223.519 16.69L227.074 14.8298C228.254 14.2047 229.484 13.6746 230.69 13.1045C233.11 11.9794 235.58 10.9592 238.081 10.0341C243.064 8.16451 248.187 6.69303 253.403 5.63349C256.013 5.13342 258.633 4.69836 261.274 4.44333C262.599 4.32331 263.919 4.21329 265.244 4.14829C265.909 4.14829 266.574 4.11328 267.245 4.11328C267.915 4.11328 268.57 4.11328 269.245 4.16329L269.305 4.76837Z" fill="#F4E0BD"/>
<path d="M490.154 27.9465C492.138 28.4571 494.078 29.126 495.955 29.9468C497.835 30.7419 499.65 31.652 501.455 32.6172C505.011 34.5891 508.404 36.8415 511.602 39.3531C524.476 49.5217 534.274 63.0647 539.906 78.4735C540.246 79.4336 540.546 80.4088 540.861 81.3739L541.326 82.8191C541.471 83.3192 541.591 83.8192 541.721 84.2943C541.976 85.2944 542.221 86.2546 542.481 87.2397C542.741 88.2248 542.891 89.24 543.081 90.2401C543.854 94.228 544.211 98.2853 544.146 102.347L543.531 102.507L542.696 99.7064C542.411 98.7763 542.156 97.8312 541.826 96.916C541.191 95.0758 540.601 93.2155 539.876 91.4153L538.845 88.6849L537.72 85.9895L537.16 84.6393L536.555 83.3142L535.335 80.6588C528.492 66.6298 519.271 53.8916 508.081 43.0086C505.281 40.3082 502.359 37.7379 499.315 35.2975C496.309 32.8301 493.145 30.5616 489.844 28.5066L490.154 27.9465Z" fill="#F4E0BD"/>
<path d="M179.661 235.275L165.594 230.29V333.984L179.661 343.425V235.275Z" fill="#CC5A5A"/>
<path d="M165.593 232.135H146.625V243.241H179.66V237.21L165.593 232.135Z" fill="white"/>
<path d="M157.3 235.275L144.328 230.29V335.484L157.3 343.425V235.275Z" fill="#CC5A5A"/>
<path d="M179.655 235.275H157.297V343.425H179.655V235.275Z" fill="#D66767"/>
<path d="M153.583 235.275L139.516 230.29V333.984L153.583 343.425V235.275Z" fill="#D68005"/>
<path d="M139.514 232.135H120.547V243.241H153.581V237.21L139.514 232.135Z" fill="white"/>
<path d="M131.222 235.275L118.25 230.29V335.484L131.222 343.425V235.275Z" fill="#D68005"/>
<path d="M153.577 235.275H131.219V343.425H153.577V235.275Z" fill="#EBAE3D"/>
<path d="M179.655 259.943H157.297V266.379H179.655V259.943Z" fill="white"/>
<path d="M179.655 269.115H157.297V271.22H179.655V269.115Z" fill="white"/>
<path d="M153.577 275.581H131.219V282.017H153.577V275.581Z" fill="white"/>
<path d="M153.577 284.752H131.219V286.857H153.577V284.752Z" fill="white"/>
<path d="M86.3235 303.395C86.3235 303.86 78.6074 304.24 69.0861 304.24C59.5648 304.24 51.8438 303.86 51.8438 303.395C51.8438 302.929 59.5598 302.544 69.0861 302.544C78.6124 302.544 86.3235 302.929 86.3235 303.395Z" fill="#D68005"/>
<path d="M76.2265 272.54C74.0564 275.274 72.2323 278.265 70.7958 281.446L71.2008 267.855C74.6463 269.9 84.5677 262.914 88.8483 257.753C93.2039 252.502 93.1188 245.506 90.8085 243.906C89.2383 242.821 81.3472 243.816 76.9916 249.067C74.7037 251.968 72.8507 255.188 71.4909 258.623L71.8959 244.846L72.0559 244.766C74.5313 245.877 81.0572 241.236 83.9376 237.79C86.908 234.21 86.853 229.439 85.2728 228.349C84.2076 227.609 78.8269 228.284 75.8515 231.85C74.2863 233.836 73.0179 236.039 72.0859 238.39L72.361 229.209C72.4403 229.224 72.5205 229.234 72.601 229.239C74.6313 229.159 76.0765 223.483 75.9615 220.238C75.8465 216.993 73.4611 214.437 72.0659 214.527C71.1208 214.592 68.4854 217.298 68.6005 220.528C68.7105 223.498 70.2757 228.394 72.1009 229.119C71.9009 231.72 71.6359 235.145 71.3308 239.121C69.8773 236.707 68.0434 234.544 65.9001 232.715C62.2846 229.769 57.2189 229.614 55.9687 231.054C55.1186 232.025 55.5187 237.12 59.1392 240.056C62.1046 242.466 67.8654 245.221 70.8758 245.026C70.4507 250.527 69.9807 256.668 69.5006 262.944C68.0654 258.738 63.5298 252.968 59.8043 249.942C54.4985 245.621 47.0775 245.401 45.2372 247.507C43.9971 248.937 44.5822 256.403 49.8879 260.724C55.0886 264.954 66.1501 269.905 69.1655 267.299C68.6255 274.425 68.0854 281.561 67.6053 287.962C65.8551 283.222 60.8494 276.901 56.7238 273.54C50.723 268.645 42.2768 268.39 40.1915 270.785C38.7864 272.4 39.4514 280.876 45.4773 285.787C51.2931 290.523 63.5798 296.053 67.2003 293.373C66.4252 303.875 65.9051 311.326 65.9701 311.376L69.9356 310.785L70.4357 294.093C74.8863 295.178 85.1227 287.832 89.6934 282.327C94.6391 276.371 94.544 268.43 91.9187 266.609C90.1284 265.439 81.1572 266.564 76.2265 272.54Z" fill="#56998A"/>
<path d="M86.3129 303.395L80.7571 343.285H57.3839L56.7338 338.639L51.8281 303.395H86.3129Z" fill="#EBAE3D"/>
<g style="mix-blend-mode:overlay" opacity="0.3">
<path d="M51.8281 303.395L57.3839 343.285H80.7571L81.4072 338.639C60.8394 332.228 56.0987 310.08 55.1486 303.395H51.8281Z" fill="#222B3D"/>
</g>
<path d="M195.897 309.561L462.174 309.561C466.457 309.561 469.93 306.088 469.93 301.804V120.159C469.93 115.876 466.457 112.403 462.174 112.403L195.897 112.403C191.613 112.403 188.141 115.876 188.141 120.159V301.804C188.141 306.088 191.613 309.561 195.897 309.561Z" fill="#56998A"/>
<path d="M307.091 307.415L298.805 340.29H349.537L341.451 307.415H307.091Z" fill="#56998A"/>
<g style="mix-blend-mode:multiply">
<path d="M346.598 328.333C346.598 328.333 333.787 338.404 299.592 337.124L298.797 340.29H349.539L346.598 328.333Z" fill="#D2E4D6"/>
</g>
<path d="M376.641 339.099H272.172C271.028 339.099 270.102 340.026 270.102 341.17V342.03C270.102 343.173 271.028 344.1 272.172 344.1H376.641C377.785 344.1 378.712 343.173 378.712 342.03V341.17C378.712 340.026 377.785 339.099 376.641 339.099Z" fill="#56998A"/>
<path d="M202.627 286.882L453.726 286.882C455.56 286.882 457.047 285.396 457.047 283.562V124.235C457.047 122.401 455.56 120.914 453.726 120.914L202.627 120.914C200.793 120.914 199.306 122.401 199.306 124.235V283.562C199.306 285.396 200.793 286.882 202.627 286.882Z" fill="#F2F9F3"/>
<path d="M428.71 178.052H350.799C350.103 178.052 349.539 178.617 349.539 179.313V182.718C349.539 183.414 350.103 183.978 350.799 183.978H428.71C429.406 183.978 429.97 183.414 429.97 182.718V179.313C429.97 178.617 429.406 178.052 428.71 178.052Z" fill="#D2E4D6"/>
<path d="M351.289 189.649H428.205C428.669 189.649 429.114 189.833 429.442 190.162C429.771 190.49 429.955 190.935 429.955 191.399C429.955 191.863 429.771 192.309 429.442 192.637C429.114 192.965 428.669 193.149 428.205 193.149H351.289C350.825 193.149 350.38 192.965 350.052 192.637C349.723 192.309 349.539 191.863 349.539 191.399C349.539 190.935 349.723 190.49 350.052 190.162C350.38 189.833 350.825 189.649 351.289 189.649Z" fill="#D2E4D6"/>
<path d="M351.289 199.03H428.205C428.669 199.03 429.114 199.215 429.442 199.543C429.771 199.871 429.955 200.316 429.955 200.781C429.955 201.245 429.771 201.69 429.442 202.018C429.114 202.346 428.669 202.531 428.205 202.531H351.289C350.825 202.531 350.38 202.346 350.052 202.018C349.723 201.69 349.539 201.245 349.539 200.781C349.539 200.316 349.723 199.871 350.052 199.543C350.38 199.215 350.825 199.03 351.289 199.03Z" fill="#D2E4D6"/>
<path d="M351.289 208.406H428.205C428.669 208.406 429.114 208.591 429.442 208.919C429.771 209.247 429.955 209.692 429.955 210.156C429.955 210.621 429.771 211.066 429.442 211.394C429.114 211.722 428.669 211.907 428.205 211.907H351.289C350.825 211.907 350.38 211.722 350.052 211.394C349.723 211.066 349.539 210.621 349.539 210.156C349.539 209.692 349.723 209.247 350.052 208.919C350.38 208.591 350.825 208.406 351.289 208.406Z" fill="#D2E4D6"/>
<path d="M351.289 217.788H414.203C414.667 217.788 415.112 217.972 415.441 218.3C415.769 218.629 415.953 219.074 415.953 219.538C415.953 220.002 415.769 220.447 415.441 220.776C415.112 221.104 414.667 221.288 414.203 221.288H351.289C350.825 221.288 350.38 221.104 350.052 220.776C349.723 220.447 349.539 220.002 349.539 219.538C349.539 219.074 349.723 218.629 350.052 218.3C350.38 217.972 350.825 217.788 351.289 217.788Z" fill="#D2E4D6"/>
<path d="M277.803 198.845L259.77 153.174C269.534 149.317 280.277 148.691 290.423 151.389C300.568 154.086 309.582 159.965 316.141 168.161C322.701 176.358 326.46 186.441 326.867 196.931C327.275 207.421 324.309 217.766 318.406 226.447C312.502 235.127 303.972 241.687 294.066 245.164C284.161 248.64 273.401 248.85 263.368 245.762C253.334 242.675 244.554 236.452 238.317 228.008C232.079 219.564 228.713 209.343 228.711 198.845C228.712 196.118 228.937 193.395 229.386 190.704L277.803 198.845Z" fill="#D2E4D6"/>
<path d="M220.844 184.528C222.256 176.192 225.794 168.36 231.116 161.79C236.439 155.22 243.366 150.134 251.228 147.023L269.26 192.694L220.844 184.528Z" fill="#D2E4D6"/>
<path d="M229.073 261.644H221.727V268.99H229.073V261.644Z" fill="#D2E4D6"/>
<path d="M264.829 266.379H234.825C234.574 266.379 234.333 266.28 234.155 266.103C233.977 265.926 233.876 265.685 233.875 265.434C233.876 265.183 233.977 264.942 234.155 264.764C234.333 264.586 234.574 264.485 234.825 264.484H264.829C265.081 264.485 265.322 264.586 265.5 264.764C265.678 264.942 265.778 265.183 265.779 265.434C265.778 265.685 265.677 265.926 265.499 266.103C265.321 266.28 265.08 266.379 264.829 266.379Z" fill="#D2E4D6"/>
<path d="M289.002 261.759H281.656V269.105H289.002V261.759Z" fill="#D2E4D6"/>
<path d="M324.762 266.499H294.758C294.507 266.498 294.266 266.397 294.089 266.219C293.912 266.041 293.812 265.8 293.813 265.549C293.813 265.298 293.912 265.058 294.089 264.881C294.267 264.704 294.507 264.604 294.758 264.604H324.762C325.008 264.609 325.242 264.709 325.416 264.884C325.589 265.058 325.688 265.293 325.692 265.539C325.693 265.789 325.597 266.03 325.423 266.209C325.249 266.389 325.012 266.493 324.762 266.499Z" fill="#D2E4D6"/>
<mask id="mask0_2307_980" style="mask-type:luminance" maskUnits="userSpaceOnUse" x="201" y="46" width="328" height="241">
<path d="M201.042 286.948L528.117 286.948V46.0596L201.042 46.0596L201.042 286.948Z" fill="white"/>
</mask>
<g mask="url(#mask0_2307_980)">
<path d="M307.183 203.531C306.819 196.783 304.008 190.399 299.277 185.573C291.396 177.692 286.591 176.982 284.94 178.332C282.63 180.228 291.746 189.434 291.746 189.434C291.746 189.434 292.336 193.059 284.09 188.994C275.844 184.928 270.488 179.022 268.453 179.763C266.418 180.503 267.103 183.148 267.103 183.148C267.103 183.148 265.133 181.978 264.207 183.268C263.282 184.558 264.207 186.408 264.207 186.408C263.553 186.465 262.941 186.76 262.488 187.236C262.035 187.712 261.771 188.337 261.747 188.994C261.622 191.394 264.748 194.225 264.748 194.225C264.748 194.225 261.052 190.419 259.332 192.539C257.612 194.66 266.468 205.901 277.549 208.857C288.631 211.812 294.077 213.912 294.077 213.912L307.183 203.531Z" fill="#E9A486"/>
<path d="M291.282 190.529C290.907 191.478 290.627 192.461 290.447 193.465C290.352 193.961 290.285 194.462 290.247 194.965C290.247 195.21 290.207 195.465 290.192 195.705V196.45C290.189 196.699 290.199 196.948 290.222 197.195C290.228 197.445 290.25 197.693 290.287 197.94L290.372 198.685C290.422 198.93 290.472 199.185 290.512 199.421C290.587 199.921 290.747 200.421 290.857 200.921C290.967 201.421 291.162 201.896 291.282 202.421C290.98 201.993 290.704 201.547 290.457 201.086C289.743 199.657 289.355 198.087 289.321 196.49C289.305 195.423 289.462 194.361 289.787 193.345C290.08 192.311 290.59 191.352 291.282 190.529Z" fill="#D37453"/>
<path d="M267.117 183.168C268.317 184.168 269.563 185.108 270.823 186.009C272.083 186.909 273.383 187.754 274.703 188.564C275.368 188.959 276.023 189.374 276.703 189.749L277.704 190.329C278.049 190.509 278.389 190.694 278.704 190.884C279.379 191.274 280.079 191.609 280.764 191.984C281.449 192.359 282.154 192.69 282.844 193.08C282.084 192.87 281.344 192.64 280.589 192.379C279.834 192.119 279.114 191.834 278.404 191.499C276.962 190.86 275.564 190.127 274.218 189.304C272.876 188.475 271.595 187.553 270.383 186.544C269.168 185.548 268.072 184.415 267.117 183.168Z" fill="#D37453"/>
<path d="M264.227 186.429C266.572 188.149 268.867 189.864 271.228 191.504C272.398 192.34 273.588 193.14 274.778 193.94C275.968 194.74 277.188 195.515 278.389 196.34C277.024 195.837 275.7 195.23 274.428 194.525C273.778 194.19 273.168 193.795 272.543 193.425C271.918 193.055 271.323 192.635 270.727 192.22C269.537 191.385 268.393 190.485 267.302 189.524C266.196 188.576 265.167 187.541 264.227 186.429Z" fill="#D37453"/>
<path d="M275.796 200.836C274.652 200.571 273.536 200.196 272.465 199.716C271.388 199.248 270.343 198.706 269.34 198.096C268.334 197.486 267.378 196.799 266.479 196.04C265.574 195.289 264.756 194.438 264.039 193.505C265.009 194.175 265.929 194.865 266.889 195.505C267.85 196.145 268.805 196.77 269.795 197.36C271.75 198.561 273.76 199.671 275.796 200.836Z" fill="#D37453"/>
<path d="M294.109 213.932L300.525 220.048L313.757 206.936L307.201 203.551L294.109 213.932Z" fill="#E9A486"/>
<path d="M437.083 78.5938C437.083 78.5938 464.372 78.5938 470.693 101.862C477.013 125.13 469.542 146.098 469.542 146.098C469.542 146.098 517.944 159.89 495.971 205.561C473.998 251.233 386.526 215.063 386.526 215.063C386.526 215.063 356.937 205.676 346.02 192.845C335.104 180.013 349.851 164.311 361.523 157.035C373.194 149.759 350.611 138.937 355.492 113.084C360.372 87.23 382.78 92.4057 382.78 92.4057C382.78 92.4057 381.25 74.4982 403.463 68.5624C425.676 62.6266 437.083 78.5938 437.083 78.5938Z" fill="#30221D"/>
<path d="M414.895 166.606C402.163 169.066 388.892 172.797 380.105 182.038C371.234 191.384 368.539 204.906 369.334 217.543C370.129 230.18 373.98 242.466 376.59 254.898C377.865 260.964 378.845 267.205 377.97 273.336C376.84 281.217 372.759 288.338 369.344 295.594C365.823 303.062 362.961 310.825 360.793 318.792C359.368 324.013 358.292 329.763 360.723 334.624C363.683 340.565 370.829 343.24 377.435 344.885C381.229 345.826 385.063 346.609 388.937 347.236C390.892 347.546 392.937 347.816 394.837 347.276C397.073 346.636 398.838 344.965 400.263 343.2C404.124 338.492 406.465 332.724 406.979 326.658C408.859 331.314 410.78 336.039 413.94 339.99C417.101 343.94 421.736 347.086 426.897 347.356C429.707 347.506 432.478 346.811 435.198 346.116C443.544 344 451.96 341.85 459.621 338.014C464.297 335.674 468.993 332.234 470.078 327.258C470.758 324.138 469.903 320.912 468.903 317.877C463.757 302.28 454.661 287.438 454.361 271.04C454.246 264.839 455.416 258.684 456.586 252.583L464.897 209.207C466.612 200.205 468.163 190.269 463.152 182.523C459.151 176.352 451.845 173.022 444.749 170.576C434.618 167.076 423.691 164.891 414.895 166.576" fill="#D66767"/>
<path d="M389.567 174.822C389.567 174.822 362.618 187.029 355.492 232.2L375.265 273.181L398.543 244.712L389.567 174.822Z" fill="#D66767"/>
<path d="M295.461 218.103C304.887 235.285 321.505 248.787 334.606 257.203C346.178 264.619 357.554 267.91 365.881 265.79C369.749 264.867 373.111 262.484 375.262 259.139L369.826 247.862L367.866 243.792L361.695 230.975L309.188 202.361L295.461 218.103Z" fill="#D66767"/>
<path d="M375.255 344.326C375.975 344.531 376.705 344.726 377.42 344.901C381.216 345.846 385.056 346.631 388.922 347.251C390.882 347.566 392.922 347.836 394.828 347.291C397.063 346.661 398.828 344.986 400.248 343.22C404.112 338.514 406.456 332.746 406.969 326.678C408.855 331.329 410.765 336.054 413.93 340.01C417.096 343.966 421.726 347.106 426.887 347.376C429.697 347.521 432.468 346.831 435.188 346.136C443.529 344.021 451.956 341.87 459.612 338.035C464.287 335.694 468.983 332.254 470.073 327.278C470.748 324.158 469.893 320.932 468.888 317.897C463.747 302.285 454.646 287.438 454.346 271.04C454.231 264.835 455.406 258.684 456.571 252.588C459.345 238.126 462.115 223.666 464.882 209.207C466.593 200.206 468.148 190.269 463.137 182.528C461.84 180.561 460.226 178.822 458.361 177.383C450.78 183.158 437.764 197.15 432.778 227.294C432.388 231.02 431.973 234.755 431.383 238.486C430.698 242.817 429.337 247.012 426.952 250.428C425.045 253.219 422.387 255.414 419.286 256.759C411.13 260.314 405.569 259.449 394.613 262.544C390.057 263.834 366.294 273.451 371.509 278.507C373.415 280.347 392.732 270.75 395.013 272.126C397.968 273.931 400.893 275.756 403.709 277.801C407.939 280.872 412.045 284.772 414.12 289.658C416.311 294.799 414.62 300.61 412.785 305.565C409.105 315.427 405.489 325.128 397.548 332.369C391.252 338.105 383.326 341.76 375.255 344.326Z" fill="#CC5A5A"/>
<path d="M409.961 180.068L412.891 215.308L424.733 179.513L416.962 188.509L409.961 180.068Z" fill="white"/>
<path d="M405.801 325.193C405.847 325.194 405.892 325.185 405.935 325.168C405.977 325.151 406.016 325.126 406.048 325.094C406.081 325.061 406.107 325.023 406.124 324.981C406.142 324.939 406.151 324.894 406.151 324.848C406.395 309.508 407.579 294.197 409.697 279.001C410.037 276.596 410.407 274.146 410.782 271.66C412.417 260.794 414.117 249.552 413.442 239.031C413.44 238.984 413.429 238.939 413.409 238.897C413.389 238.855 413.36 238.818 413.325 238.787C413.29 238.757 413.249 238.734 413.204 238.72C413.16 238.706 413.113 238.701 413.067 238.706C413.021 238.708 412.976 238.72 412.935 238.74C412.894 238.76 412.857 238.788 412.827 238.823C412.797 238.857 412.773 238.897 412.759 238.941C412.744 238.984 412.739 239.03 412.742 239.076C413.412 249.522 411.742 260.724 410.087 271.555C409.712 274.056 409.341 276.496 409.006 278.901C406.887 294.127 405.702 309.468 405.461 324.838C405.462 324.93 405.499 325.018 405.563 325.084C405.627 325.15 405.714 325.189 405.806 325.193H405.801Z" fill="#CC5A5A"/>
<path d="M393.586 172.807C393.586 172.807 394.421 205.041 413.089 236.076L398.387 170.757C398.387 170.757 394.026 172.607 393.586 172.807Z" fill="#CC5A5A"/>
<path d="M396.492 171.591C396.492 171.591 393.552 179.593 401.608 205.406C404.408 214.382 413.08 236.075 413.08 236.075C413.08 236.075 413.125 200.936 411.724 189.504C410.059 175.907 406.634 167.111 406.634 167.111L396.492 171.591Z" fill="#E07777"/>
<path d="M412.802 210.617C411.678 213.85 410.869 217.184 410.387 220.573C409.517 227.674 413.082 236.075 413.082 236.075L412.802 210.617Z" fill="#CC5A5A"/>
<path d="M413.322 234.925C410.191 222.764 411.606 216.368 414.822 205.821C418.037 195.275 422.448 181.818 428.244 172.467C429.544 170.366 432.654 169.711 435.025 169.036C436.3 168.671 437.655 168.816 438.97 168.961C441.741 169.266 444.551 169.581 447.166 170.552C447.571 170.702 448.016 170.922 448.126 171.337C448.142 171.56 448.105 171.784 448.018 171.991C447.931 172.198 447.797 172.381 447.626 172.527C431.849 191.259 422.588 212.797 413.332 234.925" fill="#E07777"/>
<path d="M438.126 134.632C433.669 145.011 431.984 156.37 433.235 167.596C432.815 172.332 424.354 178.818 421.423 182.228C419.118 184.914 417.358 188.384 416.658 187.919C415.338 187.034 412.752 181.033 411.107 178.813C408.532 175.312 408.607 171.337 405.781 166.461C407.885 157.834 409.032 149.001 409.202 140.122C419.093 140.332 429.65 140.367 438.151 134.622" fill="#E9A486"/>
<path d="M434.382 144.978C434.382 144.978 431.047 156.295 414.844 158.355C412.378 158.696 409.883 158.788 407.398 158.63C408.47 152.518 409.064 146.332 409.174 140.127C412.174 140.187 415.28 140.232 418.345 140.102L434.382 144.978Z" fill="#D8886C"/>
<path d="M424.425 86.6449C430.501 88.1451 436.242 91.2455 439.752 96.4312C443.263 101.617 444.843 107.933 445.188 114.204C445.808 125.395 442.348 137.117 434.382 144.973C426.415 152.829 413.654 156.024 403.517 151.324C393.381 146.623 390.195 134.632 392.291 123.23C392.856 120.15 396.216 104.137 398.612 99.5217C399.837 97.1613 407.228 82.4743 424.425 86.6449Z" fill="#E9A486"/>
<path d="M428.025 121.645C428.43 119.144 427.69 116.974 426.375 116.769C425.06 116.564 423.665 118.404 423.26 120.89C422.855 123.375 423.59 125.56 424.91 125.77C426.23 125.98 427.62 124.13 428.025 121.645Z" fill="#30221D"/>
<path d="M406.139 116.564C406.589 113.809 405.864 111.404 404.529 111.188C403.194 110.973 401.733 113.039 401.288 115.794C400.843 118.549 401.558 120.955 402.904 121.17C404.249 121.385 405.694 119.32 406.139 116.564Z" fill="#30221D"/>
<path d="M424.933 111.123C425.148 109.478 432.644 108.843 432.784 112.053C432.924 115.264 424.583 113.864 424.933 111.123Z" fill="#30221D"/>
<path d="M410.557 108.383C410.937 106.763 404.146 103.537 402.881 106.488C401.616 109.438 409.927 111.063 410.557 108.383Z" fill="#30221D"/>
<path d="M412.243 113.199C412.243 113.199 412.743 115.599 405.987 120.73C402.986 123.01 405.662 127.756 410.337 126.861" fill="#E9A486"/>
<path d="M412.243 113.199C412.243 113.199 412.743 115.599 405.987 120.73C402.986 123.01 405.662 127.756 410.337 126.861" stroke="#D37453" stroke-width="1.54" stroke-miterlimit="10" stroke-linecap="round"/>
<path d="M418.852 131.691C418.852 131.691 416.892 138.437 410.681 138.477C404.47 138.517 402.75 130.101 402.75 130.101C407.698 132.734 413.485 133.305 418.852 131.691Z" fill="#952D27"/>
<path d="M405.625 136.062C406.236 136.818 407.009 137.427 407.886 137.845C408.764 138.263 409.724 138.479 410.696 138.477C411.81 138.474 412.911 138.229 413.921 137.758C414.931 137.288 415.827 136.603 416.547 135.752C415.461 135.282 413.681 134.842 410.816 134.842C409.011 134.81 407.227 135.23 405.625 136.062Z" fill="#E07777"/>
<path d="M453.066 143.098C453.066 143.098 441.864 141.663 443.299 132.036C444.735 122.41 448.845 111.608 438.799 110.248C428.752 108.888 424.202 102.747 429.227 88.2452C429.227 88.2452 408.225 80.0441 397.578 102.022C397.578 102.022 400.934 81.7843 420.466 80.6342C439.999 79.484 455.371 99.4468 457.971 115.249C460.572 131.051 453.066 143.098 453.066 143.098Z" fill="#30221D"/>
<path d="M439.873 126.59C441.128 123.87 442.779 121.219 445.254 119.534C447.729 117.849 451.165 117.339 453.705 118.919C454.341 119.304 454.879 119.829 455.28 120.454C455.813 121.433 456.049 122.545 455.96 123.655C455.83 126.88 454.21 129.871 452.22 132.406C450.66 134.406 448.764 136.241 446.384 137.102C445.457 137.422 444.485 137.591 443.504 137.602C442.602 137.634 441.705 137.464 440.878 137.102C439.053 136.241 438.013 134.171 437.948 132.151C437.883 130.131 439.018 128.4 439.873 126.56" fill="#E9A486"/>
<path d="M446.31 131.636C446.158 131.637 446.007 131.616 445.86 131.576C444.765 131.291 444.28 130.016 444.36 128.966C444.364 128.919 444.377 128.874 444.398 128.833C444.42 128.792 444.45 128.756 444.485 128.726C444.521 128.697 444.563 128.675 444.608 128.662C444.652 128.649 444.699 128.645 444.745 128.651C444.837 128.66 444.922 128.705 444.981 128.776C445.04 128.847 445.068 128.939 445.06 129.031C444.985 129.806 445.325 130.721 446.02 130.901C446.397 130.968 446.786 130.902 447.12 130.716C448.086 130.216 448.726 129.266 449.306 128.321C449.828 127.526 450.245 126.667 450.546 125.765C450.831 124.902 450.821 123.967 450.516 123.11C450.422 122.818 450.249 122.557 450.017 122.356C449.786 122.155 449.503 122.022 449.201 121.97C448.983 121.967 448.77 122.032 448.591 122.156C448.412 122.279 448.275 122.455 448.201 122.66C448.169 122.747 448.105 122.817 448.022 122.858C447.939 122.898 447.843 122.904 447.756 122.875C447.712 122.86 447.671 122.837 447.637 122.807C447.602 122.776 447.574 122.739 447.554 122.698C447.534 122.656 447.523 122.611 447.52 122.565C447.518 122.519 447.525 122.473 447.54 122.43C447.661 122.079 447.893 121.776 448.2 121.568C448.508 121.36 448.875 121.257 449.246 121.275C449.683 121.327 450.096 121.503 450.438 121.781C450.78 122.059 451.035 122.428 451.176 122.845C451.541 123.848 451.56 124.945 451.231 125.96C450.912 126.922 450.47 127.838 449.916 128.686C449.311 129.686 448.571 130.776 447.445 131.341C447.095 131.525 446.706 131.626 446.31 131.636Z" fill="#D37453"/>
<path d="M448.936 136.217C448.937 135.606 448.757 135.008 448.418 134.5C448.079 133.992 447.597 133.596 447.033 133.362C446.469 133.128 445.848 133.066 445.248 133.186C444.649 133.305 444.099 133.599 443.668 134.032C443.236 134.464 442.942 135.015 442.824 135.614C442.706 136.213 442.768 136.834 443.003 137.398C443.238 137.962 443.635 138.444 444.144 138.782C444.652 139.12 445.25 139.299 445.861 139.297C446.677 139.296 447.459 138.971 448.036 138.393C448.613 137.816 448.936 137.033 448.936 136.217Z" fill="#EBAE3D"/>
<path d="M418.233 175.562C417.433 179.858 416.773 184.143 416.963 188.514C419.963 185.514 423.794 180.658 427.964 177.692C426.184 176.632 424.65 175.206 423.464 173.507C423.333 173.327 423.178 173.122 422.963 173.122C422.856 173.128 422.751 173.161 422.658 173.217C421.188 173.967 419.718 174.717 418.248 175.487C418.203 175.947 418.158 176.407 418.283 175.562" fill="#D3DBDC"/>
<path d="M433.3 163.055L418.133 175.527L425.884 184.193C425.884 184.193 430.815 179.373 433.465 176.107C436.115 172.842 440.966 169.106 440.966 169.106L433.285 163.105" fill="white"/>
<path d="M416.969 188.509L413.199 174.667L405.438 174.607L416.969 188.509Z" fill="#D3DBDC"/>
<path d="M405.729 166.071L413.195 174.667L409.004 181.668C409.004 181.668 404.243 176.362 403.348 175.117C402.209 173.454 401.176 171.721 400.258 169.926L405.729 166.071Z" fill="white"/>
<path d="M372.944 273.996C372.944 273.996 355.827 274.161 341.505 277.446C327.003 280.782 326.678 288.773 327.038 289.848C327.398 290.923 330.133 291.393 340.139 291.753C350.146 292.113 371.934 290.543 371.934 290.543L372.944 273.996Z" fill="#E9A486"/>
<path d="M459.15 178.168C447.503 187.104 442.377 202.611 440.067 217.483C437.757 232.355 437.567 247.737 432.796 261.989C414.689 256.448 385.59 267.865 371.788 271.911C370.708 272.231 369.452 272.281 368.712 273.166C368.132 273.861 367.967 274.831 367.832 275.746C366.922 281.867 365.787 290.218 371.798 291.713C392.776 296.934 405.507 293.894 423.855 293.714C435.597 293.599 448.398 294.094 457.36 286.213C462.86 281.382 466.211 274.406 468.861 267.435C476.156 248.191 479.451 227.662 478.542 207.102C478.242 200.416 477.432 193.53 474.242 187.724C471.051 181.918 464.951 177.398 459.14 178.173" fill="#E07777"/>
<path d="M435.639 273.811C435.701 273.811 435.762 273.794 435.814 273.761C435.857 273.738 435.895 273.707 435.925 273.669C435.955 273.63 435.977 273.586 435.989 273.539C436.001 273.492 436.002 273.442 435.994 273.395C435.985 273.347 435.966 273.301 435.939 273.261C434.284 270.406 433.329 267.2 433.154 263.905C433.149 263.812 433.108 263.724 433.039 263.662C432.97 263.6 432.879 263.567 432.786 263.572C432.693 263.577 432.606 263.618 432.544 263.687C432.481 263.756 432.449 263.847 432.454 263.94C432.637 267.345 433.624 270.66 435.334 273.611C435.362 273.668 435.406 273.717 435.459 273.752C435.513 273.788 435.575 273.808 435.639 273.811Z" fill="#CC5A5A"/>
<path d="M437.4 269.15C437.487 269.15 437.57 269.118 437.635 269.06C437.668 269.028 437.695 268.989 437.713 268.946C437.731 268.903 437.74 268.857 437.74 268.81C437.74 268.764 437.731 268.717 437.713 268.675C437.695 268.632 437.668 268.593 437.635 268.56C436.355 267.153 435.339 265.527 434.635 263.759C434.618 263.716 434.593 263.677 434.561 263.644C434.529 263.61 434.491 263.584 434.448 263.566C434.406 263.548 434.36 263.538 434.314 263.538C434.268 263.538 434.222 263.547 434.18 263.564C434.094 263.6 434.026 263.667 433.99 263.752C433.953 263.837 433.951 263.933 433.985 264.02C434.713 265.861 435.768 267.555 437.1 269.02C437.136 269.064 437.182 269.099 437.234 269.122C437.286 269.144 437.343 269.154 437.4 269.15Z" fill="#CC5A5A"/>
<path d="M438.576 263.964C438.852 263.963 439.127 263.946 439.401 263.914C439.489 263.901 439.568 263.855 439.622 263.785C439.677 263.715 439.704 263.628 439.696 263.539C439.693 263.493 439.68 263.449 439.658 263.408C439.636 263.367 439.606 263.331 439.57 263.303C439.534 263.274 439.492 263.253 439.448 263.242C439.403 263.23 439.357 263.227 439.311 263.234C437.919 263.403 436.51 263.1 435.311 262.374C435.271 262.346 435.226 262.327 435.178 262.318C435.131 262.309 435.082 262.309 435.035 262.32C434.988 262.331 434.943 262.352 434.905 262.381C434.866 262.41 434.834 262.447 434.81 262.489C434.783 262.529 434.765 262.574 434.756 262.621C434.747 262.669 434.748 262.717 434.759 262.764C434.77 262.811 434.79 262.855 434.819 262.894C434.847 262.933 434.884 262.965 434.925 262.989C436.029 263.646 437.292 263.984 438.576 263.964Z" fill="#CC5A5A"/>
<path d="M349.054 283.917C349.054 283.917 336.423 286.678 335.292 288.643C334.162 290.608 334.792 291.373 334.792 291.373" stroke="#D37453" stroke-width="1.15" stroke-miterlimit="10" stroke-linecap="round"/>
<path d="M347.461 280.187C347.461 280.187 336.6 282.277 332.864 285.317C331.034 286.818 329.864 288.788 330.394 291.373" stroke="#D37453" stroke-width="1.15" stroke-miterlimit="10" stroke-linecap="round"/>
<path d="M384.199 200.956C384.199 200.956 370.622 213.458 367.762 230.25C364.902 247.042 370.697 263.719 370.697 263.719" stroke="#CC5A5A" stroke-width="1.69" stroke-miterlimit="10"/>
</g>
<g style="mix-blend-mode:multiply">
<path d="M306.553 309.561H341.983L342.828 312.996H305.688L306.553 309.561Z" fill="#D2E4D6"/>
</g>
<path d="M325.445 303.37C328.469 303.37 330.92 300.918 330.92 297.894C330.92 294.87 328.469 292.418 325.445 292.418C322.42 292.418 319.969 294.87 319.969 297.894C319.969 300.918 322.42 303.37 325.445 303.37Z" fill="#D2E4D6"/>
<path d="M150.378 279.917L78.3281 306.985L150.508 334.564L222.558 306.65L150.378 279.917Z" fill="#384259"/>
<g style="mix-blend-mode:overlay" opacity="0.3">
<path d="M150.383 281.662L79.7734 307.535L150.508 334.564L221.223 307.165L150.383 281.662Z" fill="#222B3D"/>
</g>
<path d="M187.808 343.865L113.258 344.05L113.758 337.424L115.983 307.335C115.983 307.335 127.03 299.334 150.423 299.274C173.816 299.214 184.898 307.175 184.898 307.175L185.503 314.766L187.808 343.865Z" fill="#384259"/>
<g style="mix-blend-mode:overlay" opacity="0.3">
<path d="M187.808 343.865L113.258 344.05L113.758 337.424C171.171 343.59 185.508 314.756 185.508 314.756L187.808 343.865Z" fill="#222B3D"/>
</g>
<path d="M172.38 287.742C172.38 287.742 172.205 287.797 171.945 287.907C172.188 287.96 172.424 288.037 172.65 288.137C173.816 288.678 175.066 288.988 176.276 289.423C176.776 289.598 177.236 289.798 177.706 289.993C181.352 290.873 186.682 293.833 191.988 302.819L210.671 334.419L212.611 333.269L193.943 301.674C183.667 284.277 172.835 287.592 172.38 287.742Z" fill="#EBAE3D"/>
<path d="M211.21 333.159C210.292 336.03 210.207 339.102 210.965 342.02C212.62 348.326 215.59 349.571 215.59 349.571L215.23 345.645C215.803 347.001 216.48 348.31 217.255 349.561C218.651 351.851 222.641 352.791 222.641 352.791C223.26 351.055 223.319 349.168 222.811 347.396C222.076 345.175 218.311 339.99 218.311 339.99L223.186 345.84C223.186 345.84 223.721 344.57 222.731 341.97C220.726 338.329 215.385 333.759 211.21 333.159Z" fill="#EBAE3D"/>
<path d="M214.225 332.494C214.474 333.027 214.56 333.622 214.472 334.204C214.383 334.786 214.123 335.329 213.726 335.763C213.329 336.198 212.812 336.505 212.24 336.645C211.668 336.786 211.068 336.753 210.514 336.552C209.961 336.351 209.479 335.991 209.131 335.516C208.783 335.041 208.583 334.474 208.558 333.886C208.532 333.298 208.681 332.715 208.987 332.212C209.292 331.708 209.74 331.307 210.274 331.059C210.628 330.892 211.01 330.798 211.4 330.78C211.791 330.762 212.18 330.822 212.547 330.955C212.915 331.089 213.252 331.293 213.539 331.557C213.827 331.821 214.06 332.14 214.225 332.494Z" fill="#E07777"/>
<path d="M266.523 131.316C266.522 134.346 267.175 137.34 268.44 140.094C269.705 142.847 271.55 145.295 273.849 147.268C275.599 148.751 277.007 150.595 277.976 152.674C278.946 154.752 279.454 157.016 279.465 159.309V159.339C279.467 161.139 280.182 162.864 281.454 164.136C282.727 165.409 284.452 166.124 286.251 166.125H288.852C289.742 166.125 290.625 165.95 291.448 165.609C292.271 165.268 293.018 164.768 293.648 164.138C294.278 163.507 294.777 162.759 295.118 161.936C295.458 161.113 295.633 160.23 295.632 159.339V159.309C295.623 157.045 296.108 154.807 297.052 152.749C297.995 150.691 299.376 148.863 301.098 147.393C303.789 145.115 305.863 142.196 307.128 138.906C308.394 135.615 308.812 132.059 308.342 128.565C307.872 125.071 306.53 121.751 304.44 118.912C302.35 116.073 299.579 113.806 296.382 112.319C293.185 110.833 289.666 110.175 286.148 110.406C282.63 110.638 279.227 111.751 276.252 113.643C273.278 115.536 270.827 118.147 269.127 121.235C267.427 124.323 266.532 127.79 266.523 131.316Z" fill="#EBAE3D"/>
<path d="M280.443 131.246L284.363 131.171C284.365 131.361 284.429 131.546 284.546 131.697C284.662 131.847 284.824 131.956 285.008 132.006C285.152 132.036 285.3 132.034 285.442 132C285.585 131.967 285.718 131.902 285.833 131.811L285.858 131.836C286.095 132.027 286.39 132.131 286.693 132.131C286.997 132.131 287.292 132.027 287.529 131.836C287.817 132.033 288.162 132.131 288.511 132.115C288.86 132.098 289.195 131.969 289.464 131.746C289.6 131.835 289.753 131.894 289.913 131.919C290.074 131.944 290.237 131.935 290.394 131.891C290.565 131.836 290.719 131.735 290.838 131.599C290.956 131.463 291.036 131.298 291.069 131.121C292.222 131.172 293.376 131.14 294.524 131.026C294.76 131.026 294.765 130.626 294.524 130.651C293.361 130.766 292.192 130.797 291.024 130.746C291.004 130.743 290.984 130.744 290.965 130.751C290.946 130.757 290.928 130.767 290.914 130.781C290.887 130.772 290.859 130.77 290.831 130.774C290.804 130.779 290.777 130.79 290.755 130.806C290.732 130.823 290.714 130.845 290.702 130.87C290.689 130.895 290.683 130.923 290.684 130.951C290.686 131.035 290.67 131.119 290.637 131.197C290.604 131.275 290.555 131.345 290.493 131.403C290.431 131.46 290.358 131.504 290.278 131.531C290.198 131.559 290.113 131.569 290.029 131.561C289.916 131.551 289.807 131.517 289.709 131.461C289.942 131.124 290.04 130.712 289.984 130.306C289.934 129.941 289.709 129.456 289.274 129.456C288.839 129.456 288.699 129.896 288.704 130.241C288.702 130.713 288.874 131.169 289.189 131.521C289.127 131.572 289.06 131.615 288.989 131.651C288.802 131.735 288.597 131.773 288.393 131.76C288.188 131.748 287.989 131.687 287.814 131.581C287.878 131.492 287.933 131.396 287.979 131.296C288.182 130.823 288.226 130.296 288.104 129.796C288.085 129.707 288.043 129.624 287.981 129.557C287.919 129.491 287.84 129.442 287.752 129.417C287.665 129.392 287.572 129.391 287.484 129.414C287.396 129.438 287.317 129.485 287.253 129.551C287.009 129.839 286.874 130.205 286.874 130.583C286.874 130.962 287.009 131.328 287.253 131.616C287.082 131.734 286.876 131.793 286.668 131.784C286.459 131.775 286.259 131.699 286.098 131.566L286.178 131.446C286.428 130.956 286.499 130.393 286.378 129.856C286.303 129.461 285.878 129.036 285.513 129.406C285.38 129.585 285.287 129.791 285.239 130.009C285.19 130.227 285.188 130.452 285.233 130.671C285.266 130.992 285.384 131.299 285.573 131.561C285.459 131.641 285.322 131.681 285.183 131.676C285.114 131.671 285.047 131.651 284.987 131.617C284.927 131.583 284.874 131.536 284.834 131.48C284.794 131.423 284.767 131.359 284.755 131.291C284.742 131.223 284.745 131.153 284.763 131.086C284.771 131.067 284.775 131.046 284.775 131.025C284.775 131.004 284.77 130.983 284.762 130.964C284.753 130.945 284.741 130.928 284.726 130.914C284.711 130.899 284.693 130.888 284.673 130.881C284.657 130.859 284.636 130.841 284.612 130.829C284.587 130.817 284.56 130.811 284.533 130.811L280.443 130.891C280.407 130.905 280.376 130.929 280.354 130.961C280.332 130.992 280.32 131.03 280.32 131.068C280.32 131.107 280.332 131.145 280.354 131.176C280.376 131.208 280.407 131.232 280.443 131.246ZM289.269 130.996C289.116 130.71 289.06 130.382 289.109 130.061C289.149 129.886 289.264 129.766 289.434 129.906C289.532 130.009 289.597 130.14 289.619 130.281C289.68 130.61 289.612 130.951 289.429 131.231C289.369 131.166 289.316 131.096 289.269 131.021V130.996ZM287.459 131.261C287.302 131.03 287.226 130.754 287.243 130.476C287.241 130.213 287.341 129.96 287.524 129.771C287.739 129.631 287.749 129.971 287.764 130.116C287.78 130.282 287.78 130.45 287.764 130.616C287.74 130.863 287.656 131.1 287.519 131.306L287.459 131.261ZM285.733 129.701C285.998 129.391 286.038 130.201 286.043 130.321C286.066 130.626 286.007 130.931 285.873 131.206L285.838 131.266C285.69 131.035 285.606 130.77 285.593 130.496C285.553 130.223 285.602 129.944 285.733 129.701Z" fill="white"/>
<path d="M279.352 129.246C279.352 129.246 285.977 139.282 284.292 165.751" stroke="white" stroke-width="1.07" stroke-miterlimit="10" stroke-linecap="round"/>
<path d="M295.403 129.246C295.403 129.246 288.777 139.282 290.462 165.751" stroke="white" stroke-width="1.07" stroke-miterlimit="10" stroke-linecap="round"/>
<path opacity="0.5" d="M266.523 131.316C266.522 134.346 267.175 137.34 268.44 140.094C269.705 142.847 271.55 145.295 273.849 147.268C275.599 148.751 277.007 150.595 277.976 152.674C278.946 154.752 279.454 157.016 279.465 159.31V159.34C279.466 160.755 279.909 162.136 280.733 163.287C281.557 164.439 282.721 165.303 284.061 165.76C285.416 165.795 286.768 165.606 288.061 165.2C286.421 164.915 285.176 163.47 284.656 161.895C284.136 160.32 284.221 158.609 284.356 156.949C284.491 155.289 284.671 153.614 284.356 151.984C283.901 149.763 282.516 147.833 280.95 146.198C279.385 144.563 277.6 143.132 276.07 141.452C272.875 137.948 270.932 133.483 270.545 128.757C270.159 124.031 271.351 119.31 273.934 115.333C271.613 117.3 269.748 119.748 268.468 122.508C267.188 125.268 266.525 128.273 266.523 131.316Z" fill="#D68005"/>
<path d="M294.471 170.776C294.471 172.776 280.734 172.776 280.734 170.776V167.996C280.734 167.946 280.747 167.897 280.773 167.855C280.798 167.812 280.835 167.778 280.88 167.755C280.924 167.733 280.974 167.723 281.023 167.728C281.073 167.732 281.12 167.751 281.159 167.781C283.205 169.316 292.001 169.316 294.046 167.781C294.086 167.751 294.133 167.732 294.182 167.728C294.232 167.723 294.282 167.733 294.326 167.755C294.37 167.778 294.407 167.812 294.433 167.855C294.459 167.897 294.472 167.946 294.471 167.996V170.776Z" fill="#222B3D"/>
<path d="M291.651 172.721C291.651 173.892 283.555 173.892 283.555 172.721V171.086C283.555 171.057 283.563 171.029 283.579 171.004C283.594 170.98 283.615 170.96 283.641 170.947C283.667 170.933 283.695 170.927 283.724 170.929C283.753 170.93 283.781 170.94 283.805 170.956C285.01 171.861 290.196 171.861 291.401 170.956C291.425 170.94 291.453 170.93 291.481 170.929C291.51 170.927 291.539 170.933 291.565 170.947C291.59 170.96 291.612 170.98 291.627 171.004C291.642 171.029 291.65 171.057 291.651 171.086V172.721Z" fill="#222B3D"/>
<path d="M294.471 168.526C294.471 170.526 280.734 170.526 280.734 168.526V165.745C280.734 165.696 280.747 165.647 280.773 165.604C280.798 165.562 280.835 165.528 280.88 165.505C280.924 165.483 280.974 165.473 281.023 165.478C281.073 165.482 281.12 165.5 281.159 165.53C283.205 167.061 292.001 167.061 294.046 165.53C294.086 165.5 294.133 165.482 294.182 165.478C294.232 165.473 294.282 165.483 294.326 165.505C294.37 165.528 294.407 165.562 294.433 165.604C294.459 165.647 294.472 165.696 294.471 165.745V168.526Z" fill="#384259"/>
<path d="M294.471 166.246C294.471 168.246 280.734 168.246 280.734 166.246V163.465C280.734 163.416 280.747 163.367 280.773 163.324C280.798 163.282 280.835 163.247 280.88 163.225C280.924 163.203 280.974 163.193 281.023 163.198C281.073 163.202 281.12 163.22 281.159 163.25C283.205 164.781 292.001 164.781 294.046 163.25C294.086 163.22 294.133 163.202 294.182 163.198C294.232 163.193 294.282 163.203 294.326 163.225C294.37 163.247 294.407 163.282 294.433 163.324C294.459 163.367 294.472 163.416 294.471 163.465V166.246Z" fill="#222B3D"/>
<path d="M287.239 87.8398C287.603 89.0264 287.851 90.2457 287.979 91.4803C288.117 92.6872 288.186 93.9011 288.184 95.1158C288.19 96.3322 288.123 97.5479 287.984 98.7563C287.857 99.9914 287.607 101.211 287.239 102.397C286.871 101.211 286.622 99.9914 286.494 98.7563C286.221 96.3387 286.221 93.898 286.494 91.4803C286.621 90.2452 286.871 89.0257 287.239 87.8398Z" fill="#EBAE3D"/>
<path d="M270.641 98.3213C271.341 98.7812 271.974 99.3366 272.521 99.9715C273.582 101.177 274.428 102.555 275.021 104.047C275.336 104.823 275.54 105.64 275.626 106.472C274.924 106.015 274.291 105.459 273.746 104.822C273.217 104.223 272.743 103.577 272.331 102.892C271.913 102.209 271.555 101.491 271.261 100.747C270.941 99.9714 270.732 99.1549 270.641 98.3213Z" fill="#EBAE3D"/>
<path d="M306.304 98.8564C306.216 99.6896 306.01 100.506 305.694 101.282C305.399 102.025 305.043 102.743 304.629 103.427C304.213 104.111 303.738 104.757 303.208 105.357C302.665 105.996 302.032 106.552 301.328 107.008C301.416 106.174 301.622 105.358 301.938 104.582C302.232 103.838 302.59 103.12 303.008 102.437C303.426 101.756 303.9 101.11 304.424 100.507C304.97 99.8718 305.603 99.3163 306.304 98.8564Z" fill="#EBAE3D"/>
<path d="M322.981 126.29C322.188 126.556 321.362 126.711 320.526 126.75C318.925 126.832 317.323 126.642 315.785 126.19C314.98 125.966 314.211 125.629 313.5 125.19C314.294 124.919 315.122 124.764 315.96 124.73C317.555 124.644 319.152 124.827 320.686 125.27C321.495 125.5 322.268 125.844 322.981 126.29Z" fill="#EBAE3D"/>
<path d="M249.641 126.29C250.352 125.851 251.121 125.514 251.926 125.29C253.463 124.838 255.066 124.649 256.667 124.73C257.503 124.765 258.33 124.92 259.122 125.19C258.413 125.629 257.645 125.966 256.842 126.19C255.304 126.642 253.701 126.831 252.101 126.75C251.264 126.712 250.436 126.557 249.641 126.29Z" fill="#EBAE3D"/>
<path d="M254.367 105.897C255.534 106.319 256.656 106.855 257.718 107.497C258.754 108.12 259.756 108.8 260.718 109.533C261.69 110.264 262.619 111.053 263.498 111.893C264.404 112.741 265.225 113.676 265.949 114.683C264.782 114.262 263.66 113.726 262.598 113.083C261.562 112.46 260.56 111.781 259.598 111.048C258.628 110.313 257.702 109.523 256.823 108.683C255.914 107.837 255.092 106.904 254.367 105.897Z" fill="#EBAE3D"/>
<path d="M322.253 105.897C321.529 106.904 320.706 107.837 319.798 108.683C318.919 109.523 317.992 110.313 317.023 111.048C316.061 111.781 315.059 112.46 314.022 113.083C312.961 113.726 311.839 114.262 310.672 114.683C311.396 113.676 312.217 112.741 313.122 111.893C314.002 111.053 314.93 110.264 315.903 109.533C316.865 108.8 317.866 108.12 318.903 107.497C319.964 106.855 321.087 106.319 322.253 105.897Z" fill="#EBAE3D"/>
<path d="M473.007 266.553L475.488 272.594C475.724 273.166 476.378 273.439 476.95 273.204L477.496 272.98C478.068 272.745 478.342 272.091 478.107 271.518L475.625 265.477C475.39 264.905 474.736 264.632 474.164 264.867L473.618 265.091C473.045 265.326 472.772 265.98 473.007 266.553Z" fill="#222B3D"/>
<path d="M473.839 272.318L494 321.401L499.264 319.239L479.104 270.156L473.839 272.318Z" fill="#D66767"/>
<path d="M473.832 272.32L493.992 321.404L496.125 320.528L475.964 271.444L473.832 272.32Z" fill="#CC5A5A"/>
<path d="M499.276 319.242L499.371 326.958L494.016 321.407L499.276 319.242Z" fill="#222B3D"/>
<path d="M473.446 271.222L473.898 272.323L480.93 269.437L480.478 268.336L473.446 271.222Z" fill="#222B3D"/>
<path d="M491.094 297.13L479.428 268.729L480.413 268.324L491.76 295.949C491.844 296.155 491.844 296.386 491.758 296.592C491.672 296.797 491.508 296.96 491.302 297.045L491.094 297.13Z" fill="#222B3D"/>
<path d="M493.384 328.916L494.884 322.56C495.026 321.958 494.653 321.355 494.05 321.213L493.476 321.077C492.874 320.935 492.271 321.308 492.129 321.91L490.63 328.267C490.488 328.869 490.861 329.472 491.463 329.614L492.037 329.75C492.639 329.892 493.242 329.519 493.384 328.916Z" fill="#222B3D"/>
<path d="M496.078 323.75L508.258 272.104L502.719 270.798L490.539 322.444L496.078 323.75Z" fill="#56998A"/>
<g style="mix-blend-mode:multiply">
<path d="M496.078 323.749L508.258 272.103L506.014 271.574L493.834 323.219L496.078 323.749Z" fill="#D2E4D6"/>
</g>
<path d="M502.742 270.815L507.153 264.484L508.278 272.12L502.742 270.815Z" fill="#222B3D"/>
<path d="M495.821 324.928L496.094 323.77L488.696 322.025L488.422 323.184L495.821 324.928Z" fill="#222B3D"/>
<path d="M496.492 293.527L489.444 323.412L488.408 323.167L495.261 294.105C495.313 293.888 495.448 293.701 495.637 293.583C495.827 293.466 496.055 293.429 496.272 293.48L496.491 293.532L496.492 293.527Z" fill="#222B3D"/>
<path d="M478.602 343.365H510.282C512.331 343.365 513.992 341.704 513.992 339.654V292.818C513.992 290.769 512.331 289.108 510.282 289.108H478.602C476.553 289.108 474.892 290.769 474.892 292.818V339.654C474.892 341.704 476.553 343.365 478.602 343.365Z" fill="#5C7FC1"/>
<path d="M474.892 320.482H513.992V311.991H474.892V320.482Z" fill="white"/>
<path d="M474.892 310.066H513.992V308.35H474.892V310.066Z" fill="white"/>
<path opacity="0.5" d="M474.898 302.219V339.654C474.898 340.142 474.993 340.625 475.18 341.075C475.366 341.526 475.639 341.935 475.984 342.28C476.328 342.624 476.738 342.898 477.188 343.084C477.639 343.27 478.121 343.366 478.609 343.365H510.283C510.771 343.366 511.254 343.27 511.704 343.084C512.155 342.898 512.564 342.624 512.909 342.28C513.253 341.935 513.527 341.526 513.713 341.075C513.899 340.625 513.995 340.142 513.994 339.654V332.763C510.203 334.839 498.342 337.184 491.646 334.724C476.214 329.048 477.244 313.591 474.898 302.219Z" fill="#345CA1"/>
<path opacity="0.5" d="M513.994 292.818H474.898V296.424H513.994V292.818Z" fill="#345CA1"/>
<path d="M474.158 294.598H514.723C515.894 294.598 516.844 293.649 516.844 292.478V290.468C516.844 289.297 515.894 288.348 514.723 288.348H474.158C472.987 288.348 472.038 289.297 472.038 290.468V292.478C472.038 293.649 472.987 294.598 474.158 294.598Z" fill="#5C7FC1"/>
<path d="M487.198 75.8768L484.508 78.2314L494.094 89.186L496.785 86.8313L487.198 75.8768Z" fill="#222B3D"/>
<path d="M496.713 83.6193L511.29 100.277C511.622 100.655 511.876 101.095 512.037 101.572C512.199 102.048 512.265 102.552 512.231 103.054C512.198 103.556 512.066 104.047 511.842 104.498C511.619 104.949 511.309 105.351 510.93 105.682C510.551 106.014 510.111 106.268 509.635 106.43C509.158 106.592 508.654 106.658 508.152 106.624C507.65 106.591 507.159 106.458 506.708 106.235C506.257 106.012 505.855 105.701 505.524 105.322L490.927 88.665C490.595 88.2867 490.341 87.8468 490.18 87.3704C490.018 86.8941 489.952 86.3905 489.985 85.8885C490.018 85.3866 490.149 84.896 490.372 84.4449C490.594 83.9937 490.904 83.5908 491.282 83.2592C491.661 82.924 492.103 82.6673 492.582 82.5039C493.061 82.3404 493.567 82.2735 494.072 82.307C494.577 82.3405 495.071 82.4737 495.524 82.6989C495.977 82.9241 496.381 83.237 496.713 83.6193Z" fill="#D68005"/>
<path d="M496.713 83.6193L507.184 95.5809C507.852 96.346 508.189 97.3448 508.122 98.3582C508.054 99.3716 507.588 100.317 506.824 100.987C506.446 101.319 506.006 101.573 505.529 101.734C505.052 101.896 504.549 101.962 504.046 101.928C503.544 101.895 503.054 101.763 502.603 101.539C502.152 101.316 501.749 101.006 501.418 100.627L490.927 88.665C490.595 88.2867 490.341 87.8468 490.18 87.3704C490.018 86.8941 489.952 86.3905 489.985 85.8885C490.018 85.3866 490.149 84.896 490.372 84.4449C490.594 83.9937 490.904 83.5908 491.282 83.2592C491.661 82.924 492.103 82.6673 492.582 82.5039C493.061 82.3404 493.567 82.2735 494.072 82.307C494.577 82.3405 495.071 82.4737 495.524 82.6989C495.977 82.9241 496.381 83.237 496.713 83.6193Z" fill="#EBAE3D"/>
<path d="M457.707 44.894C454.365 47.8189 451.965 51.6693 450.811 55.9583C449.656 60.2472 449.8 64.7821 451.223 68.9895C452.646 73.1969 455.284 76.8879 458.805 79.5958C462.325 82.3037 466.57 83.9069 471.002 84.2027C475.433 84.4985 479.853 83.4735 483.702 81.2575C487.552 79.0414 490.657 75.7338 492.627 71.7528C494.596 67.7718 495.341 63.2962 494.767 58.8919C494.193 54.4876 492.326 50.3525 489.402 47.0092C485.479 42.5263 479.936 39.785 473.993 39.3883C468.049 38.9916 462.191 40.972 457.707 44.894ZM487.021 49.0795C487.236 49.3246 487.441 49.5796 487.641 49.8196C490.815 53.8053 492.29 58.8809 491.748 63.9467C491.205 69.0125 488.688 73.6606 484.743 76.8836C480.797 80.1067 475.74 81.6452 470.668 81.1657C465.596 80.6863 460.917 78.2276 457.645 74.3223C454.373 70.417 452.771 65.3798 453.187 60.302C453.604 55.2242 456.004 50.5149 459.868 47.1945C463.732 43.8741 468.749 42.21 473.832 42.5629C478.914 42.9157 483.653 45.257 487.021 49.0795Z" fill="#222B3D"/>
<path d="M487.013 49.0895C487.223 49.3345 487.433 49.5896 487.628 49.8296C490.884 53.7627 492.447 58.8261 491.975 63.9098C491.503 68.9935 489.035 73.6828 485.112 76.9498C481.188 80.2167 476.13 81.7947 471.044 81.338C465.959 80.8812 461.263 78.4269 457.984 74.513C457.225 73.6435 456.542 72.7099 455.944 71.7226C453.469 67.5895 452.63 62.6799 453.592 57.9593C454.553 53.2387 457.246 49.0488 461.141 46.2134C465.036 43.3781 469.851 42.1024 474.638 42.6375C479.426 43.1725 483.84 45.4794 487.013 49.1045V49.0895Z" fill="#F4E0BD"/>
<path opacity="0.5" d="M485.751 50.1944C485.946 50.4145 486.136 50.6445 486.316 50.8695C489.084 54.4809 490.347 59.0233 489.84 63.545C489.333 68.0668 487.096 72.2169 483.598 75.126C480.099 78.0351 475.611 79.4772 471.072 79.1504C466.534 78.8235 462.298 76.753 459.253 73.3726C457.724 71.6347 456.554 69.612 455.809 67.4206C455.065 65.2293 454.76 62.9124 454.914 60.603C455.067 58.2937 455.675 56.0374 456.703 53.9637C457.731 51.89 459.158 50.0397 460.903 48.5192C462.644 46.9973 464.668 45.8333 466.86 45.0938C469.051 44.3543 471.367 44.0537 473.674 44.2093C475.982 44.3649 478.236 44.9735 480.308 46.0005C482.38 47.0274 484.23 48.4525 485.751 50.1944Z" fill="white"/>
<path d="M463.379 48.9345C461.642 50.1865 460.178 51.7801 459.078 53.6177C457.978 55.4553 457.266 57.4981 456.983 59.621C456.873 60.4461 458.168 60.5311 458.278 59.706C458.55 57.7531 459.219 55.8765 460.243 54.1918C461.267 52.507 462.625 51.0497 464.234 49.9097C464.914 49.4246 464.054 48.4545 463.379 48.9345Z" fill="white"/>
<path d="M352.924 88.0748L334.306 77.1083C333.939 76.8887 333.519 76.7729 333.091 76.7732H276.483C276.168 76.7739 275.855 76.7123 275.563 76.5919C275.272 76.4716 275.006 76.2949 274.783 76.072C274.56 75.849 274.382 75.5842 274.261 75.2926C274.14 75.0011 274.078 74.6885 274.078 74.3729V38.728C274.078 38.4123 274.14 38.0998 274.261 37.8083C274.382 37.5167 274.56 37.2519 274.783 37.0289C275.006 36.806 275.272 36.6293 275.563 36.5089C275.855 36.3886 276.168 36.327 276.483 36.3276H350.524C350.839 36.327 351.151 36.3886 351.443 36.509C351.735 36.6294 351.999 36.8062 352.222 37.0292C352.445 37.2522 352.622 37.5171 352.743 37.8086C352.863 38.1001 352.925 38.4126 352.924 38.728V88.0748Z" fill="#5C7FC1"/>
<path d="M289.209 58.6909C290.891 58.6909 292.255 57.3275 292.255 55.6455C292.255 53.9636 290.891 52.6001 289.209 52.6001C287.528 52.6001 286.164 53.9636 286.164 55.6455C286.164 57.3275 287.528 58.6909 289.209 58.6909Z" fill="white"/>
<path d="M305.124 58.6909C306.805 58.6909 308.169 57.3275 308.169 55.6455C308.169 53.9636 306.805 52.6001 305.124 52.6001C303.442 52.6001 302.078 53.9636 302.078 55.6455C302.078 57.3275 303.442 58.6909 305.124 58.6909Z" fill="white"/>
<path d="M321.03 58.6909C322.712 58.6909 324.075 57.3275 324.075 55.6455C324.075 53.9636 322.712 52.6001 321.03 52.6001C319.348 52.6001 317.984 53.9636 317.984 55.6455C317.984 57.3275 319.348 58.6909 321.03 58.6909Z" fill="white"/>
<path d="M336.155 58.6909C337.837 58.6909 339.2 57.3275 339.2 55.6455C339.2 53.9636 337.837 52.6001 336.155 52.6001C334.473 52.6001 333.109 53.9636 333.109 55.6455C333.109 57.3275 334.473 58.6909 336.155 58.6909Z" fill="white"/>
<path d="M2 344.1H540.759" stroke="#222B3D" stroke-width="3.42" stroke-miterlimit="10" stroke-linecap="round"/>
<path d="M222.617 73.5829L235.524 60.6812" stroke="#D66767" stroke-width="2" stroke-miterlimit="10"/>
<path d="M227.02 62.8067C227.02 64.5569 226.02 65.9771 224.755 65.9771C223.49 65.9771 222.484 64.5569 222.484 62.8067C222.484 61.0564 223.485 59.6362 224.755 59.6362C226.025 59.6362 227.02 61.0564 227.02 62.8067Z" stroke="#D66767" stroke-width="2" stroke-miterlimit="10"/>
<path d="M235.676 71.4578C235.676 73.208 234.676 74.6282 233.411 74.6282C232.146 74.6282 231.141 73.208 231.141 71.4578C231.141 69.7075 232.141 68.2874 233.411 68.2874C234.681 68.2874 235.676 69.7075 235.676 71.4578Z" stroke="#D66767" stroke-width="2" stroke-miterlimit="10"/>
<path d="M513.922 214.532H527.424" stroke="#EBAE3D" stroke-width="2" stroke-miterlimit="10"/>
<path d="M520.68 207.776V221.283" stroke="#EBAE3D" stroke-width="2" stroke-miterlimit="10"/>
<path d="M394.977 40.9584L404.523 31.4121" stroke="#56998A" stroke-width="2" stroke-miterlimit="10"/>
<path d="M394.977 31.4121L404.523 40.9584" stroke="#56998A" stroke-width="2" stroke-miterlimit="10"/>
<path d="M123.633 195.635L131.224 203.901L138.715 186.268L158.088 185.153" stroke="#5C7FC1" stroke-width="2" stroke-miterlimit="10"/>
</svg>
