<svg width="552" height="259" viewBox="0 0 552 259" fill="none" xmlns="http://www.w3.org/2000/svg">
<path d="M44.9346 64.0351C42.9103 61.1456 39.4745 59.3081 35.6391 59.5344C35.5193 59.5344 35.3994 59.5477 35.2929 59.561C30.0725 60.0271 25.9309 64.3413 25.6911 69.5876C25.5979 71.6382 26.0773 73.5689 26.9962 75.2201C27.4357 76.019 27.9684 76.7513 28.5943 77.3905C29.087 77.8965 29.6197 78.3625 30.2057 78.7753C31.6173 79.7607 32.4963 81.3186 32.696 83.0096L32.2033 83.023C32.0568 83.023 31.9369 83.0895 31.8437 83.1827C31.8304 83.196 31.8171 83.2227 31.7904 83.236C31.7239 83.3159 31.6972 83.4224 31.6972 83.5423C31.6972 83.8219 31.9369 84.0482 32.2166 84.0482C32.0701 84.0482 31.9502 84.1148 31.857 84.208C31.8437 84.2213 31.8437 84.2213 31.8304 84.2347C31.7505 84.3279 31.7105 84.4477 31.7105 84.5675C31.7105 84.8472 31.9502 85.0735 32.2299 85.0735C32.0834 85.0735 31.9636 85.1401 31.8703 85.2333C31.857 85.2466 31.8437 85.26 31.8304 85.2866C31.7638 85.3798 31.7239 85.4863 31.7239 85.6062C31.7239 85.8858 31.9636 86.1121 32.2432 86.1121C32.0967 86.1121 31.9769 86.1787 31.8837 86.2719C31.8703 86.2852 31.8703 86.2852 31.8703 86.2852C31.7904 86.3785 31.7372 86.4983 31.7372 86.6314C31.7372 86.9111 31.9769 87.1374 32.2565 87.1374L32.7892 87.1241C32.8026 87.244 32.8026 87.3771 32.8292 87.497C32.8958 87.9231 33.0556 88.3225 33.2553 88.682C33.2953 88.7486 33.3352 88.8152 33.3752 88.8818C33.4018 88.9084 33.4151 88.9483 33.4418 88.975C33.4684 89.0149 33.5084 89.0549 33.535 89.0948C33.5616 89.1214 33.5883 89.1481 33.6016 89.188C33.6415 89.228 33.6815 89.2812 33.7214 89.3212C33.7348 89.3478 33.7614 89.3611 33.7747 89.3878C33.8413 89.4543 33.8946 89.5076 33.9612 89.5609C33.9878 89.5742 34.0011 89.6008 34.0277 89.6141C34.081 89.6541 34.121 89.694 34.1742 89.734C34.2009 89.7473 34.2275 89.7739 34.2541 89.7872C34.3074 89.8272 34.374 89.8671 34.4406 89.9071C34.4539 89.9204 34.4672 89.9204 34.4805 89.9337C34.5604 89.9736 34.6403 90.0136 34.7202 90.0535C34.7469 90.0668 34.7735 90.0802 34.8001 90.0935C34.8667 90.1201 34.92 90.1467 34.9866 90.1734C35.0132 90.1867 35.0399 90.2 35.0665 90.2C35.1464 90.2266 35.2263 90.2533 35.3062 90.2799C35.3195 90.2799 35.3195 90.2799 35.3328 90.2932C35.4261 90.3198 35.5193 90.3332 35.5992 90.3465C35.6258 90.3465 35.6524 90.3598 35.6791 90.3598C35.7457 90.3731 35.8123 90.3731 35.8922 90.3864C35.9188 90.3864 35.9454 90.3864 35.9721 90.3997C36.0653 90.3997 36.1585 90.4131 36.265 90.4131L36.8377 90.3997C37.7965 90.3864 38.6488 89.987 39.2747 89.3478C39.7808 88.8285 40.127 88.1494 40.2203 87.4037C40.2336 87.3372 40.2336 87.2706 40.2336 87.204C40.2336 87.1508 40.2336 87.0842 40.2469 87.0309L40.7263 87.0176C40.8728 87.0176 40.9927 86.951 41.0859 86.8578C41.1791 86.7646 41.2324 86.6314 41.2324 86.4983C41.2324 86.3651 41.1791 86.2453 41.0859 86.1521C40.9927 86.0456 40.8595 85.979 40.6997 85.9923C40.8462 85.9923 40.966 85.9257 41.0592 85.8325C41.1525 85.7393 41.2057 85.6062 41.2057 85.473C41.2057 85.3532 41.1658 85.2466 41.0859 85.1534C40.9927 85.0336 40.8462 84.9537 40.673 84.9537C40.8195 84.9537 40.9394 84.8871 41.0326 84.7939C41.1258 84.7007 41.1791 84.5675 41.1791 84.4344C41.1791 84.3146 41.1258 84.1947 41.0459 84.1015C40.9527 83.995 40.8062 83.9284 40.6597 83.9284C40.8062 83.9284 40.9261 83.8618 41.0193 83.7686C41.1125 83.6754 41.1658 83.5423 41.1658 83.4091C41.1658 83.2893 41.1258 83.1827 41.0592 83.1028C40.966 82.983 40.8062 82.9031 40.6464 82.9031L40.1537 82.9164C40.3135 81.2254 41.1525 79.6408 42.5241 78.6022C45.1476 76.6448 46.8389 73.4891 46.7857 69.9604C46.8123 67.7368 46.1065 65.6995 44.9346 64.0351Z" fill="#E5F0F8"/>
<path d="M164.847 23.1297C164.167 22.6636 163.435 22.3174 162.663 22.0911C162.529 22.9166 161.784 23.5291 160.918 23.4892C160.052 23.4492 159.387 22.7568 159.333 21.918C158.548 22.0511 157.775 22.3174 157.056 22.7302C157.549 23.4093 157.456 24.368 156.816 24.9539C156.177 25.5265 155.218 25.5265 154.579 24.9672C154.113 25.6463 153.767 26.3787 153.54 27.151C154.366 27.2841 154.979 28.0298 154.939 28.8953C154.899 29.7608 154.206 30.4266 153.367 30.4798C153.5 31.2654 153.78 32.0377 154.18 32.7568C154.859 32.2641 155.818 32.3573 156.404 32.9965C156.976 33.6356 156.976 34.6076 156.417 35.2335C157.096 35.6995 157.828 36.0457 158.601 36.2721C158.734 35.4465 159.48 34.834 160.345 34.8739C161.211 34.9139 161.877 35.6063 161.93 36.4452C162.716 36.312 163.488 36.0457 164.207 35.6329C163.715 34.9538 163.808 33.9951 164.447 33.4092C165.086 32.8367 166.045 32.8367 166.684 33.3959C167.151 32.7168 167.497 31.9845 167.723 31.2122C166.898 31.079 166.285 30.3334 166.325 29.4679C166.365 28.6023 167.057 27.9366 167.896 27.8833C167.763 27.0977 167.497 26.3254 167.084 25.6064C166.391 26.099 165.433 26.0058 164.86 25.3667C164.287 24.7275 164.287 23.7688 164.847 23.1297ZM163.289 26.7914C164.607 28.2561 164.5 30.5065 163.036 31.8247C161.571 33.1429 159.32 33.0231 158.002 31.5717C156.683 30.107 156.79 27.8567 158.255 26.5384C159.706 25.2202 161.957 25.3267 163.289 26.7914Z" fill="#E5F0F8"/>
<path d="M157.47 45.419C156.498 47.3631 154.141 48.1753 152.183 47.2033C150.226 46.2313 149.44 43.8744 150.399 41.917C151.371 39.9597 153.728 39.1607 155.686 40.1328C157.643 41.1048 158.429 43.4616 157.47 45.419ZM161.865 45.5389C162.078 44.66 162.131 43.7546 162.038 42.8758C161.132 43.0755 160.2 42.5562 159.894 41.6507C159.588 40.7453 160.014 39.7732 160.866 39.3871C160.4 38.6281 159.814 37.949 159.108 37.3765C158.602 38.1621 157.577 38.455 156.724 38.0289C155.872 37.6028 155.486 36.6175 155.805 35.7387C154.927 35.5256 154.021 35.4723 153.142 35.5656C153.342 36.471 152.822 37.4031 151.917 37.7093C151.011 38.0156 150.039 37.5895 149.64 36.7373C148.88 37.2034 148.201 37.7892 147.629 38.495C148.414 39.0009 148.707 40.0262 148.281 40.8784C147.855 41.7306 146.856 42.1168 145.991 41.7972C145.778 42.676 145.724 43.5815 145.818 44.4603C146.723 44.2606 147.655 44.7799 147.962 45.6853C148.268 46.5908 147.842 47.5628 146.989 47.949C147.456 48.7079 148.041 49.387 148.747 49.9596C149.253 49.174 150.279 48.8811 151.131 49.3071C151.983 49.7332 152.37 50.7186 152.05 51.5974C152.929 51.8105 153.834 51.8637 154.713 51.7705C154.514 50.8651 155.033 49.933 155.939 49.6267C156.844 49.3205 157.816 49.7466 158.216 50.5987C158.975 50.1327 159.654 49.5468 160.227 48.8411C159.441 48.3351 159.148 47.3098 159.574 46.4576C160 45.6054 160.999 45.2193 161.865 45.5389Z" fill="#E5F0F8"/>
<path d="M438.045 31.8098L428.403 12.5156V29.7858C429.016 29.9456 429.468 30.5049 429.468 31.1706C429.468 31.9696 428.829 32.6087 428.03 32.6087C427.231 32.6087 426.592 31.9696 426.592 31.1706C426.592 30.5049 427.045 29.9456 427.657 29.7858V12.5156L418.016 31.8098C422.57 34.646 423.382 41.4236 423.382 41.4236H422.943C422.743 41.4236 422.583 41.5834 422.583 41.7831V43.5274C422.583 43.7271 422.743 43.8869 422.943 43.8869H433.131C433.33 43.8869 433.49 43.7271 433.49 43.5274V41.7831C433.49 41.5834 433.33 41.4236 433.131 41.4236H432.691C432.678 41.4236 433.49 34.6327 438.045 31.8098Z" fill="#E5F0F8"/>
<path d="M15.4688 251.583C15.4688 251.583 -15.6802 187.362 17.3998 132.396C48.9351 79.9726 87.3953 102.636 130.503 86.0844C173.611 69.5332 180.376 -0.572853 284.517 3.47506C388.658 7.52297 387.42 57.1498 439.317 81.7702C491.214 106.391 556.149 131.65 538.557 251.583H15.4688Z" fill="#E5F0F8"/>
<path d="M306.579 248.947H187.283C181.17 248.947 176.203 243.993 176.203 237.868V11.0785C176.203 4.96668 181.157 0 187.283 0H306.579C312.692 0 317.659 4.95336 317.659 11.0785V237.868C317.659 243.993 312.705 248.947 306.579 248.947Z" fill="#93ACBF"/>
<path d="M316.399 248.947H197.103C190.991 248.947 186.023 243.993 186.023 237.868V11.0785C186.023 4.96668 190.977 0 197.103 0H316.399C322.512 0 327.479 4.95336 327.479 11.0785V237.868C327.466 243.993 322.512 248.947 316.399 248.947Z" fill="#BBDBF3"/>
<path d="M315.523 227.598L315.523 11.9531L197.959 11.9531L197.959 227.598L315.523 227.598Z" fill="#93ACBF"/>
<path d="M313.539 225.601L313.539 13.9375L199.956 13.9375L199.956 225.601L313.539 225.601Z" fill="white"/>
<path d="M270.371 242.553H243.097C240.754 242.553 238.836 240.636 238.836 238.292C238.836 235.949 240.754 234.031 243.097 234.031H270.371C272.715 234.031 274.633 235.949 274.633 238.292C274.633 240.636 272.715 242.553 270.371 242.553Z" fill="#93ACBF"/>
<path d="M265.059 7.20108H242.527C241.741 7.20108 241.102 6.56193 241.102 5.77632C241.102 4.99071 241.741 4.35156 242.527 4.35156H265.059C265.845 4.35156 266.484 4.99071 266.484 5.77632C266.484 6.56193 265.845 7.20108 265.059 7.20108Z" fill="#586773"/>
<path d="M270.956 7.20108C270.17 7.20108 269.531 6.56193 269.531 5.77632C269.531 4.99071 270.17 4.35156 270.956 4.35156C271.742 4.35156 272.381 4.99071 272.381 5.77632C272.368 6.56193 271.729 7.20108 270.956 7.20108Z" fill="#586773"/>
<path d="M280.945 27.5899C282.33 29.0146 284.514 29.1611 286.086 28.0559L289.881 31.9307L290.8 31.0386L287.005 27.1638C288.15 25.6192 288.057 23.4354 286.658 22.0107C285.114 20.4394 282.583 20.3995 281.012 21.9441C279.427 23.4754 279.4 26.0053 280.945 27.5899ZM286.032 22.6099C287.231 23.8349 287.204 25.8189 285.979 27.0306C284.741 28.2423 282.77 28.2024 281.558 26.9773C280.346 25.739 280.373 23.7683 281.611 22.5566C282.85 21.3582 284.834 21.3715 286.032 22.6099Z" fill="#BBDBF3"/>
<path d="M221.034 20.6504H205.133V22.914H221.034V20.6504Z" fill="#BBDBF3"/>
<path d="M221.034 24.6445H205.133V26.9082H221.034V24.6445Z" fill="#BBDBF3"/>
<path d="M221.034 28.6387H205.133V30.9023H221.034V28.6387Z" fill="#BBDBF3"/>
<path d="M306.142 20.7988H300.016V26.924H306.142V20.7988Z" fill="#BBDBF3"/>
<path d="M306.166 42.6094H207.312V110.771H306.166V42.6094Z" fill="white" stroke="#BBDBF3" stroke-width="5.2732" stroke-miterlimit="10"/>
<path d="M207.312 110.771L306.166 42.6094" stroke="#BBDBF3" stroke-width="5.2732" stroke-miterlimit="10"/>
<path d="M207.312 42.6094L306.166 110.771" stroke="#BBDBF3" stroke-width="5.2732" stroke-miterlimit="10"/>
<path d="M273.113 116.457H207.312V121.184H273.113V116.457Z" fill="#E5F0F8"/>
<path d="M288.841 126.871H207.312V131.598H288.841V126.871Z" fill="#E5F0F8"/>
<path d="M303.676 203.502H207.312V207.097H303.676V203.502Z" fill="#E5F0F8"/>
<path d="M303.676 211.104H207.312V214.699H303.676V211.104Z" fill="#E5F0F8"/>
<path d="M303.676 218.695H207.312V222.29H303.676V218.695Z" fill="#E5F0F8"/>
<path d="M251.912 149.746H207.312V194.34H251.912V149.746Z" fill="white" stroke="#BBDBF3" stroke-width="5.2732" stroke-miterlimit="10"/>
<path d="M303.678 149.746H259.078V194.34H303.678V149.746Z" fill="white" stroke="#BBDBF3" stroke-width="5.2732" stroke-miterlimit="10"/>
<path d="M251.912 140.559H207.312V145.099H251.912V140.559Z" fill="#E5F0F8"/>
<path d="M303.678 140.559H259.078V145.099H303.678V140.559Z" fill="#E5F0F8"/>
<path d="M207.312 194.34L251.912 149.746" stroke="#BBDBF3" stroke-width="5.2732" stroke-miterlimit="10"/>
<path d="M207.312 149.746L251.912 194.34" stroke="#BBDBF3" stroke-width="5.2732" stroke-miterlimit="10"/>
<path d="M259.078 194.34L303.678 149.746" stroke="#BBDBF3" stroke-width="5.2732" stroke-miterlimit="10"/>
<path d="M259.078 149.746L303.678 194.34" stroke="#BBDBF3" stroke-width="5.2732" stroke-miterlimit="10"/>
<path d="M371.59 23.8613H337.484V248.947H371.59V23.8613Z" fill="#F9E181"/>
<path d="M370.564 23.8613H337.484V248.947H370.564V23.8613Z" fill="#F9ECB8"/>
<path d="M354.918 242.262H340.602" stroke="#F9E181" stroke-width="8.668" stroke-miterlimit="10"/>
<path d="M347.766 238.441H340.602" stroke="#F9E181" stroke-width="8.668" stroke-miterlimit="10"/>
<path d="M347.766 234.619H340.602" stroke="#F9E181" stroke-width="8.668" stroke-miterlimit="10"/>
<path d="M347.766 230.785H340.602" stroke="#F9E181" stroke-width="8.668" stroke-miterlimit="10"/>
<path d="M354.918 226.963H340.602" stroke="#F9E181" stroke-width="8.668" stroke-miterlimit="10"/>
<path d="M347.766 223.141H340.602" stroke="#F9E181" stroke-width="8.668" stroke-miterlimit="10"/>
<path d="M347.766 219.32H340.602" stroke="#F9E181" stroke-width="8.668" stroke-miterlimit="10"/>
<path d="M347.766 215.498H340.602" stroke="#F9E181" stroke-width="8.668" stroke-miterlimit="10"/>
<path d="M354.918 211.664H340.602" stroke="#F9E181" stroke-width="8.668" stroke-miterlimit="10"/>
<path d="M347.766 207.842H340.602" stroke="#F9E181" stroke-width="8.668" stroke-miterlimit="10"/>
<path d="M347.766 204.02H340.602" stroke="#F9E181" stroke-width="8.668" stroke-miterlimit="10"/>
<path d="M347.766 200.199H340.602" stroke="#F9E181" stroke-width="8.668" stroke-miterlimit="10"/>
<path d="M354.918 196.377H340.602" stroke="#F9E181" stroke-width="8.668" stroke-miterlimit="10"/>
<path d="M347.766 192.543H340.602" stroke="#F9E181" stroke-width="8.668" stroke-miterlimit="10"/>
<path d="M347.766 188.721H340.602" stroke="#F9E181" stroke-width="8.668" stroke-miterlimit="10"/>
<path d="M347.766 184.898H340.602" stroke="#F9E181" stroke-width="8.668" stroke-miterlimit="10"/>
<path d="M354.918 181.078H340.602" stroke="#F9E181" stroke-width="8.668" stroke-miterlimit="10"/>
<path d="M347.766 177.256H340.602" stroke="#F9E181" stroke-width="8.668" stroke-miterlimit="10"/>
<path d="M347.766 173.422H340.602" stroke="#F9E181" stroke-width="8.668" stroke-miterlimit="10"/>
<path d="M347.766 169.6H340.602" stroke="#F9E181" stroke-width="8.668" stroke-miterlimit="10"/>
<path d="M354.918 165.777H340.602" stroke="#F9E181" stroke-width="8.668" stroke-miterlimit="10"/>
<path d="M347.766 161.957H340.602" stroke="#F9E181" stroke-width="8.668" stroke-miterlimit="10"/>
<path d="M347.766 158.135H340.602" stroke="#F9E181" stroke-width="8.668" stroke-miterlimit="10"/>
<path d="M347.769 154.299H340.617" stroke="#F9E181" stroke-width="8.668" stroke-miterlimit="10"/>
<path d="M354.92 150.479H340.617" stroke="#F9E181" stroke-width="8.668" stroke-miterlimit="10"/>
<path d="M347.769 146.656H340.617" stroke="#F9E181" stroke-width="8.668" stroke-miterlimit="10"/>
<path d="M347.769 142.836H340.617" stroke="#F9E181" stroke-width="8.668" stroke-miterlimit="10"/>
<path d="M347.769 139.014H340.617" stroke="#F9E181" stroke-width="8.668" stroke-miterlimit="10"/>
<path d="M354.92 135.18H340.617" stroke="#F9E181" stroke-width="8.668" stroke-miterlimit="10"/>
<path d="M347.769 131.357H340.617" stroke="#F9E181" stroke-width="8.668" stroke-miterlimit="10"/>
<path d="M347.769 127.535H340.617" stroke="#F9E181" stroke-width="8.668" stroke-miterlimit="10"/>
<path d="M347.769 123.715H340.617" stroke="#F9E181" stroke-width="8.668" stroke-miterlimit="10"/>
<path d="M354.92 119.879H340.617" stroke="#F9E181" stroke-width="8.668" stroke-miterlimit="10"/>
<path d="M347.769 116.059H340.617" stroke="#F9E181" stroke-width="8.668" stroke-miterlimit="10"/>
<path d="M347.769 112.236H340.617" stroke="#F9E181" stroke-width="8.668" stroke-miterlimit="10"/>
<path d="M347.769 108.414H340.617" stroke="#F9E181" stroke-width="8.668" stroke-miterlimit="10"/>
<path d="M354.92 104.592H340.617" stroke="#F9E181" stroke-width="8.668" stroke-miterlimit="10"/>
<path d="M347.769 100.758H340.617" stroke="#F9E181" stroke-width="8.668" stroke-miterlimit="10"/>
<path d="M347.769 96.9375H340.617" stroke="#F9E181" stroke-width="8.668" stroke-miterlimit="10"/>
<path d="M347.769 93.1152H340.617" stroke="#F9E181" stroke-width="8.668" stroke-miterlimit="10"/>
<path d="M354.92 89.293H340.617" stroke="#F9E181" stroke-width="8.668" stroke-miterlimit="10"/>
<path d="M347.769 85.4707H340.617" stroke="#F9E181" stroke-width="8.668" stroke-miterlimit="10"/>
<path d="M347.769 81.6367H340.617" stroke="#F9E181" stroke-width="8.668" stroke-miterlimit="10"/>
<path d="M347.769 77.8164H340.617" stroke="#F9E181" stroke-width="8.668" stroke-miterlimit="10"/>
<path d="M354.92 73.9941H340.617" stroke="#F9E181" stroke-width="8.668" stroke-miterlimit="10"/>
<path d="M347.769 70.1738H340.617" stroke="#F9E181" stroke-width="8.668" stroke-miterlimit="10"/>
<path d="M347.769 66.3516H340.617" stroke="#F9E181" stroke-width="8.668" stroke-miterlimit="10"/>
<path d="M347.769 62.5156H340.617" stroke="#F9E181" stroke-width="8.668" stroke-miterlimit="10"/>
<path d="M354.92 58.6934H340.617" stroke="#F9E181" stroke-width="8.668" stroke-miterlimit="10"/>
<path d="M347.769 54.875H340.617" stroke="#F9E181" stroke-width="8.668" stroke-miterlimit="10"/>
<path d="M347.769 51.0527H340.617" stroke="#F9E181" stroke-width="8.668" stroke-miterlimit="10"/>
<path d="M347.769 47.2305H340.617" stroke="#F9E181" stroke-width="8.668" stroke-miterlimit="10"/>
<path d="M354.92 43.3945H340.617" stroke="#F9E181" stroke-width="8.668" stroke-miterlimit="10"/>
<path d="M347.769 39.5742H340.617" stroke="#F9E181" stroke-width="8.668" stroke-miterlimit="10"/>
<path d="M347.769 35.752H340.617" stroke="#F9E181" stroke-width="8.668" stroke-miterlimit="10"/>
<path d="M347.769 31.9316H340.617" stroke="#F9E181" stroke-width="8.668" stroke-miterlimit="10"/>
<path d="M354.92 28.1094H340.617" stroke="#F9E181" stroke-width="8.668" stroke-miterlimit="10"/>
<path d="M192.232 68.8418H66.6641V248.947H192.232V68.8418Z" fill="#088CFC"/>
<path d="M193.904 68.8418H68.3359V248.947H193.904V68.8418Z" fill="#2EC6FC"/>
<path d="M186.665 74.9375V241.874H75.5859V87.6804L101.288 74.9375H186.665Z" fill="white"/>
<path d="M101.288 74.9375L80.5666 93.9387L75.5859 87.6804L101.288 74.9375Z" fill="#E5F0F8"/>
<path d="M148.535 84.6319H113.737C110.501 84.6319 107.891 82.0087 107.891 78.7864V67.375H154.394V78.7731C154.381 82.0087 151.758 84.6319 148.535 84.6319Z" fill="#93ACBF"/>
<path d="M148.535 83.5811H113.737C110.501 83.5811 107.891 80.958 107.891 77.7356V66.3242H154.394V77.7356C154.381 80.958 151.758 83.5811 148.535 83.5811Z" fill="#BBDBF3"/>
<path d="M118.418 71.3848C116.953 70.2663 114.942 70.3728 113.597 71.5313C113.398 71.7044 113.224 71.8908 113.065 72.1039C112.905 72.3169 112.772 72.5433 112.652 72.7696C111.879 74.3675 112.306 76.3382 113.784 77.4567C115.249 78.5752 117.26 78.4687 118.605 77.3102C118.791 77.1504 118.978 76.9507 119.137 76.7376C119.297 76.5246 119.43 76.2982 119.55 76.0719C120.323 74.474 119.883 72.5033 118.418 71.3848Z" fill="#93ACBF"/>
<path d="M114.022 71.3035C115.341 70.2915 117.152 70.3847 118.351 71.4366C118.524 71.5831 118.683 71.7562 118.83 71.9426C118.976 72.129 119.096 72.3421 119.203 72.5418C119.895 73.9799 119.509 75.7508 118.191 76.7628C116.872 77.7615 115.061 77.6683 113.863 76.6297C113.689 76.4832 113.53 76.3101 113.383 76.1237C113.237 75.9372 113.117 75.7375 113.01 75.5245C112.318 74.0731 112.704 72.3021 114.022 71.3035Z" fill="#F9E181"/>
<path d="M113.008 75.512L118.361 71.4375C118.534 71.584 118.694 71.7571 118.841 71.9435C118.987 72.1299 119.107 72.343 119.214 72.5427L113.86 76.6172C113.687 76.4708 113.527 76.2977 113.381 76.1112C113.221 75.9248 113.101 75.7251 113.008 75.512Z" fill="#F2BB16"/>
<path d="M148.465 71.3848C147 70.2663 144.989 70.3728 143.644 71.5313C143.444 71.7044 143.271 71.8908 143.112 72.1039C142.952 72.3169 142.819 72.5433 142.699 72.7696C141.926 74.3675 142.352 76.3382 143.831 77.4567C145.296 78.5752 147.306 78.4687 148.651 77.3102C148.838 77.1504 149.024 76.9507 149.184 76.7376C149.344 76.5246 149.477 76.2982 149.597 76.0719C150.369 74.474 149.93 72.5033 148.465 71.3848Z" fill="#93ACBF"/>
<path d="M148.245 71.3035C146.927 70.2915 145.116 70.3847 143.917 71.4366C143.744 71.5831 143.584 71.7562 143.438 71.9426C143.291 72.129 143.172 72.3421 143.065 72.5418C142.373 73.9799 142.759 75.7508 144.077 76.7628C145.396 77.7615 147.207 77.6683 148.405 76.6297C148.578 76.4832 148.738 76.3101 148.885 76.1237C149.031 75.9372 149.151 75.7375 149.258 75.5245C149.95 74.0731 149.564 72.3021 148.245 71.3035Z" fill="#F9E181"/>
<path d="M149.253 75.512L143.899 71.4375C143.726 71.584 143.566 71.7571 143.42 71.9435C143.273 72.1299 143.153 72.343 143.047 72.5427L148.4 76.6172C148.574 76.4708 148.733 76.2977 148.88 76.1112C149.026 75.9248 149.146 75.7251 149.253 75.512Z" fill="#F2BB16"/>
<path d="M143.07 67.0293L132.523 82.8481H124.812L135.36 67.0293H143.07Z" fill="#E5F0F8"/>
<path d="M131.211 67.0293L120.677 82.8481H117.055L127.602 67.0293H131.211Z" fill="#E5F0F8"/>
<path d="M99.329 120.318C103.661 115.986 103.661 108.963 99.329 104.632C94.9969 100.3 87.9731 100.3 83.6409 104.632C79.3088 108.963 79.3088 115.986 83.6409 120.318C87.9731 124.649 94.9969 124.649 99.329 120.318Z" fill="#2EC6FC"/>
<path d="M101.052 114.744C102.299 109.462 99.0283 104.169 93.7458 102.922C88.4633 101.675 83.1699 104.946 81.9226 110.228C80.6752 115.509 83.9463 120.802 89.2288 122.049C94.5113 123.296 99.8047 120.026 101.052 114.744Z" fill="white"/>
<path d="M97.9293 118.924C101.492 115.362 101.492 109.587 97.9293 106.025C94.3668 102.463 88.591 102.463 85.0285 106.025C81.4661 109.587 81.4661 115.362 85.0285 118.924C88.591 122.486 94.3668 122.486 97.9293 118.924Z" stroke="#2EC6FC" stroke-width="2.4035" stroke-miterlimit="10"/>
<path d="M95.6964 106.59L90.4361 115.644L90.3961 115.724L87.7859 111.77L86.0547 112.915L89.5838 118.268L90.4494 118.241L91.3416 118.214L97.4942 107.628L95.6964 106.59Z" fill="#6ADB6A"/>
<path d="M153.85 90.2637H108.398V92.5539H153.85V90.2637Z" fill="#E5F0F8"/>
<path d="M156.821 94.7656H105.43V97.0559H156.821V94.7656Z" fill="#E5F0F8"/>
<path d="M181.855 101.385H106.719V102.57H181.855V101.385Z" fill="#E5F0F8"/>
<path d="M181.855 104.008H106.719V105.193H181.855V104.008Z" fill="#E5F0F8"/>
<path d="M181.855 106.633H106.719V107.818H181.855V106.633Z" fill="#E5F0F8"/>
<path d="M181.855 109.256H106.719V110.441H181.855V109.256Z" fill="#E5F0F8"/>
<path d="M181.855 111.877H106.719V113.062H181.855V111.877Z" fill="#E5F0F8"/>
<path d="M181.855 114.5H106.719V115.685H181.855V114.5Z" fill="#E5F0F8"/>
<path d="M181.855 117.123H106.719V118.308H181.855V117.123Z" fill="#E5F0F8"/>
<path d="M181.855 119.746H106.719V120.931H181.855V119.746Z" fill="#E5F0F8"/>
<path d="M181.855 122.369H106.719V123.554H181.855V122.369Z" fill="#E5F0F8"/>
<path d="M99.329 147.722C103.661 143.39 103.661 136.367 99.329 132.036C94.9969 127.704 87.9731 127.704 83.6409 132.036C79.3088 136.367 79.3088 143.39 83.6409 147.722C87.9731 152.054 94.9969 152.054 99.329 147.722Z" fill="#F9E181"/>
<path d="M98.4344 146.827C102.272 142.99 102.272 136.768 98.4344 132.93C94.5963 129.093 88.3735 129.093 84.5354 132.93C80.6973 136.768 80.6973 142.99 84.5354 146.827C88.3735 150.665 94.5963 150.665 98.4344 146.827Z" fill="white"/>
<path d="M100.494 141.343C101.301 136.37 97.924 131.685 92.9509 130.878C87.9777 130.071 83.2919 133.448 82.4848 138.42C81.6777 143.393 85.055 148.078 90.0281 148.885C95.0012 149.692 99.687 146.315 100.494 141.343Z" stroke="#F9E181" stroke-width="2.4035" stroke-miterlimit="10"/>
<path d="M95.6797 134.173L85.7734 144.078L87.2801 145.585L97.1864 135.68L95.6797 134.173Z" fill="#F74242"/>
<path d="M87.2801 134.171L85.7734 135.678L95.6797 145.583L97.1864 144.076L87.2801 134.171Z" fill="#F74242"/>
<path d="M99.329 202.488C103.661 198.156 103.661 191.133 99.329 186.802C94.9969 182.47 87.9731 182.47 83.6409 186.802C79.3088 191.133 79.3088 198.156 83.6409 202.488C87.9731 206.819 94.9969 206.819 99.329 202.488Z" fill="#F9E181"/>
<path d="M98.4344 201.593C102.272 197.756 102.272 191.534 98.4343 187.696C94.5963 183.858 88.3735 183.858 84.5354 187.696C80.6973 191.534 80.6973 197.755 84.5354 201.593C88.3735 205.431 94.5963 205.431 98.4344 201.593Z" fill="white"/>
<path d="M91.4895 203.766C96.5276 203.766 100.612 199.682 100.612 194.645C100.612 189.607 96.5276 185.523 91.4895 185.523C86.4514 185.523 82.3672 189.607 82.3672 194.645C82.3672 199.682 86.4514 203.766 91.4895 203.766Z" stroke="#F9E181" stroke-width="2.4035" stroke-miterlimit="10"/>
<path d="M95.6797 188.939L85.7734 198.844L87.2801 200.35L97.1864 190.445L95.6797 188.939Z" fill="#F74242"/>
<path d="M87.2801 188.937L85.7734 190.443L95.6797 200.348L97.1864 198.842L87.2801 188.937Z" fill="#F74242"/>
<path d="M181.855 128.785H106.719V129.97H181.855V128.785Z" fill="#E5F0F8"/>
<path d="M181.855 131.408H106.719V132.593H181.855V131.408Z" fill="#E5F0F8"/>
<path d="M181.855 134.033H106.719V135.218H181.855V134.033Z" fill="#E5F0F8"/>
<path d="M181.855 136.656H106.719V137.841H181.855V136.656Z" fill="#E5F0F8"/>
<path d="M181.855 139.277H106.719V140.462H181.855V139.277Z" fill="#E5F0F8"/>
<path d="M181.855 141.9H106.719V143.085H181.855V141.9Z" fill="#E5F0F8"/>
<path d="M181.855 144.523H106.719V145.709H181.855V144.523Z" fill="#E5F0F8"/>
<path d="M99.3212 175.126C103.653 170.795 103.653 163.772 99.3212 159.44C94.9891 155.109 87.9653 155.109 83.6331 159.44C79.301 163.772 79.301 170.795 83.6331 175.126C87.9653 179.458 94.9891 179.458 99.3212 175.126Z" fill="#2EC6FC"/>
<path d="M98.4265 174.232C102.265 170.394 102.265 164.172 98.4265 160.335C94.5884 156.497 88.3657 156.497 84.5276 160.335C80.6895 164.172 80.6895 170.394 84.5276 174.232C88.3657 178.069 94.5885 178.069 98.4265 174.232Z" fill="white"/>
<path d="M91.4817 176.404C96.5198 176.404 100.604 172.321 100.604 167.283C100.604 162.246 96.5198 158.162 91.4817 158.162C86.4436 158.162 82.3594 162.246 82.3594 167.283C82.3594 172.321 86.4436 176.404 91.4817 176.404Z" stroke="#2EC6FC" stroke-width="2.4035" stroke-miterlimit="10"/>
<path d="M95.6964 161.396L90.4361 170.464L90.3961 170.544L87.7859 166.59L86.0547 167.721L89.5838 173.074L90.4494 173.048L91.3416 173.021L97.4942 162.435L95.6964 161.396Z" fill="#6ADB6A"/>
<path d="M181.855 156.203H106.719V157.388H181.855V156.203Z" fill="#E5F0F8"/>
<path d="M181.855 158.826H106.719V160.011H181.855V158.826Z" fill="#E5F0F8"/>
<path d="M181.855 161.451H106.719V162.636H181.855V161.451Z" fill="#E5F0F8"/>
<path d="M181.855 164.074H106.719V165.259H181.855V164.074Z" fill="#E5F0F8"/>
<path d="M181.855 166.695H106.719V167.88H181.855V166.695Z" fill="#E5F0F8"/>
<path d="M181.855 169.318H106.719V170.503H181.855V169.318Z" fill="#E5F0F8"/>
<path d="M137.402 171.941H106.719V173.126H137.402V171.941Z" fill="#E5F0F8"/>
<path d="M181.855 183.605H106.719V184.791H181.855V183.605Z" fill="#E5F0F8"/>
<path d="M181.855 186.229H106.719V187.414H181.855V186.229Z" fill="#E5F0F8"/>
<path d="M181.855 188.854H106.719V190.039H181.855V188.854Z" fill="#E5F0F8"/>
<path d="M181.855 191.477H106.719V192.662H181.855V191.477Z" fill="#E5F0F8"/>
<path d="M181.855 194.098H106.719V195.283H181.855V194.098Z" fill="#E5F0F8"/>
<path d="M181.855 196.721H106.719V197.906H181.855V196.721Z" fill="#E5F0F8"/>
<path d="M99.329 229.945C103.661 225.613 103.661 218.59 99.329 214.259C94.9969 209.927 87.9731 209.927 83.6409 214.259C79.3088 218.59 79.3088 225.613 83.6409 229.945C87.9731 234.276 94.9969 234.276 99.329 229.945Z" fill="#2EC6FC"/>
<path d="M101.044 224.377C102.292 219.095 99.0205 213.802 93.738 212.555C88.4555 211.308 83.1621 214.579 81.9148 219.86C80.6674 225.142 83.9385 230.435 89.221 231.682C94.5035 232.929 99.7969 229.659 101.044 224.377Z" fill="white"/>
<path d="M91.4895 231.225C96.5276 231.225 100.612 227.141 100.612 222.104C100.612 217.066 96.5276 212.982 91.4895 212.982C86.4514 212.982 82.3672 217.066 82.3672 222.104C82.3672 227.141 86.4514 231.225 91.4895 231.225Z" stroke="#2EC6FC" stroke-width="2.4035" stroke-miterlimit="10"/>
<path d="M95.6964 216.217L90.4361 225.285L90.3961 225.365L87.7859 221.397L86.0547 222.542L89.5838 227.894L90.4494 227.868L91.3416 227.841L97.4942 217.255L95.6964 216.217Z" fill="#6ADB6A"/>
<path d="M181.855 211.012H106.719V212.197H181.855V211.012Z" fill="#E5F0F8"/>
<path d="M181.855 213.635H106.719V214.82H181.855V213.635Z" fill="#E5F0F8"/>
<path d="M181.855 216.26H106.719V217.445H181.855V216.26Z" fill="#E5F0F8"/>
<path d="M181.855 218.883H106.719V220.068H181.855V218.883Z" fill="#E5F0F8"/>
<path d="M181.855 221.504H106.719V222.689H181.855V221.504Z" fill="#E5F0F8"/>
<path d="M181.855 224.127H106.719V225.312H181.855V224.127Z" fill="#E5F0F8"/>
<path d="M181.855 226.75H106.719V227.935H181.855V226.75Z" fill="#E5F0F8"/>
<path d="M181.855 229.373H106.719V230.558H181.855V229.373Z" fill="#E5F0F8"/>
<path d="M181.855 231.996H106.719V233.181H181.855V231.996Z" fill="#E5F0F8"/>
<path d="M546.114 259H5.03392C2.25062 259 0 256.75 0 253.967C0 251.184 2.25062 248.934 5.03392 248.934H546.114C548.897 248.934 551.148 251.184 551.148 253.967C551.148 256.75 548.897 259 546.114 259Z" fill="#0775EF"/>
<path d="M382.906 71.1445V224.379H411.458V71.1445C411.458 73.9275 409.86 76.2044 407.889 76.2044C405.918 76.2044 404.32 73.9275 404.32 71.1445C404.32 73.9275 402.722 76.2044 400.751 76.2044C398.78 76.2044 397.182 73.9275 397.182 71.1445C397.182 73.9275 395.584 76.2044 393.613 76.2044C391.642 76.2044 390.044 73.9275 390.044 71.1445C390.044 73.9275 388.446 76.2044 386.475 76.2044C384.504 76.2044 382.906 73.9275 382.906 71.1445Z" fill="#2EC6FC"/>
<path d="M382.906 71.1433C382.906 73.8064 384.504 75.9901 386.475 75.9901C388.446 75.9901 390.044 73.8197 390.044 71.1433C390.044 73.8064 391.642 75.9901 393.613 75.9901C395.584 75.9901 397.182 73.8197 397.182 71.1433C397.182 73.8064 398.78 75.9901 400.751 75.9901C402.722 75.9901 404.32 73.8197 404.32 71.1433C404.32 73.8064 405.918 75.9901 407.889 75.9901C409.86 75.9901 411.458 73.8197 411.458 71.1433C411.458 70.9702 411.458 70.8104 411.432 70.6506L410.22 67.4815L400.165 41.3032L397.182 33.5137L394.199 41.3032L384.145 67.4815L382.933 70.6506C382.906 70.8104 382.906 70.9702 382.906 71.1433Z" fill="#F9D6AF"/>
<path d="M394.195 41.3032C395.141 41.7293 396.14 41.9557 397.178 41.9557C398.217 41.9557 399.229 41.7293 400.161 41.3032L397.178 33.5137L394.195 41.3032Z" fill="#2EC6FC"/>
<path d="M395.158 248.945H399.207C405.972 248.945 411.458 243.459 411.458 236.695V234.697H382.906V236.695C382.906 243.459 388.393 248.945 395.158 248.945Z" fill="#E7888B"/>
<path d="M383.058 235.056H411.317C412.103 235.056 412.742 234.417 412.742 233.632V219.69C412.742 218.905 412.103 218.266 411.317 218.266H383.058C382.272 218.266 381.633 218.905 381.633 219.69V233.632C381.633 234.417 382.272 235.056 383.058 235.056Z" fill="#BBDBF3"/>
<path d="M410.012 222.367H390.969" stroke="#93ACBF" stroke-width="2.9439" stroke-miterlimit="10" stroke-linecap="round" stroke-linejoin="round"/>
<path d="M406.909 227.24H383.523" stroke="#93ACBF" stroke-width="2.9439" stroke-miterlimit="10" stroke-linecap="round" stroke-linejoin="round"/>
<path d="M409.111 232.127H389.508" stroke="#93ACBF" stroke-width="2.9439" stroke-miterlimit="10" stroke-linecap="round" stroke-linejoin="round"/>
<path d="M404.578 76.8281V201.568" stroke="#088CFC" stroke-width="3.9446" stroke-miterlimit="10" stroke-linecap="round" stroke-linejoin="round"/>
<path d="M397.188 75.0059V212.169" stroke="#088CFC" stroke-width="3.9446" stroke-miterlimit="10" stroke-linecap="round" stroke-linejoin="round"/>
<path d="M389.508 77.9883V95.3783" stroke="#088CFC" stroke-width="3.9446" stroke-miterlimit="10" stroke-linecap="round" stroke-linejoin="round"/>
<path d="M389.508 98.1992V195.269" stroke="#088CFC" stroke-width="3.9446" stroke-miterlimit="10" stroke-linecap="round" stroke-linejoin="round"/>
<path d="M151.857 170.437C151.857 177.121 150.712 183.153 148.408 188.52C146.117 193.899 142.974 198.466 139.006 202.221C135.037 205.976 130.336 208.879 124.916 210.916C119.483 212.953 113.583 213.965 107.218 213.965C100.852 213.965 94.9524 212.953 89.5189 210.916C84.0855 208.879 79.3712 205.989 75.3494 202.221C71.3276 198.466 68.198 193.899 65.9474 188.52C63.6968 183.14 62.5781 177.121 62.5781 170.437V100.291H82.3276V169.811C82.3276 172.528 82.7404 175.364 83.5794 178.346C84.4184 181.316 85.7901 184.059 87.7344 186.562C89.6654 189.065 92.2223 191.129 95.4051 192.741C98.588 194.365 102.53 195.164 107.231 195.164C111.932 195.164 115.874 194.352 119.057 192.741C122.239 191.129 124.796 189.065 126.727 186.562C128.658 184.059 130.043 181.316 130.882 178.346C131.721 175.377 132.134 172.528 132.134 169.811V100.291H151.87V170.437H151.857Z" fill="#322A28"/>
<path d="M175.656 100.291H195.392V211.156H175.656V100.291Z" fill="#322A28"/>
<path d="M218.888 218.667L205.891 213.967L254.752 92.4629L267.749 97.4695L218.888 218.667Z" fill="#322A28"/>
<path d="M369.38 170.437C369.38 177.121 368.235 183.153 365.931 188.52C363.641 193.899 360.498 198.466 356.529 202.221C352.561 205.976 347.86 208.879 342.44 210.916C337.006 212.953 331.107 213.965 324.741 213.965C318.375 213.965 312.476 212.953 307.042 210.916C301.609 208.879 296.881 205.989 292.873 202.221C288.851 198.466 285.721 193.899 283.471 188.52C281.22 183.14 280.102 177.121 280.102 170.437V100.291H299.838V169.811C299.838 172.528 300.251 175.364 301.09 178.346C301.929 181.316 303.3 184.059 305.245 186.562C307.176 189.065 309.732 191.129 312.915 192.741C316.098 194.365 320.04 195.164 324.741 195.164C329.442 195.164 333.384 194.352 336.567 192.741C339.75 191.129 342.306 189.065 344.237 186.562C346.168 184.059 347.553 181.316 348.392 178.346C349.231 175.377 349.644 172.528 349.644 169.811V100.291H369.38V170.437Z" fill="#322A28"/>
<path d="M420.735 153.208L383.779 100.279H408.683L434.838 141.304L460.673 100.279H484.631L448.301 153.208L488.546 211.144H463.496L434.212 164.327L405.087 211.144H381.289L420.735 153.208Z" fill="#322A28"/>
<path d="M480.368 137.536C482.339 142.183 487.373 144.553 492.114 143.382L499.425 160.612L502.408 159.347L495.097 142.117C499.239 139.52 501.023 134.247 499.052 129.6C496.868 124.447 490.902 122.01 485.748 124.207C480.594 126.404 478.184 132.383 480.368 137.536ZM497.028 130.479C498.732 134.5 496.841 139.174 492.82 140.878C488.784 142.596 484.123 140.692 482.419 136.671C480.701 132.636 482.592 127.989 486.627 126.271C490.649 124.567 495.323 126.431 497.028 130.479Z" fill="white"/>
<path d="M101.193 48.0949L75.7441 33.4212C75.7174 33.4079 75.6908 33.3946 75.6509 33.3813L74.985 33.2748L69.4583 32.4092L67.8203 32.1562L68.8724 33.4479L72.4015 37.802L72.8276 38.3213C72.8542 38.3346 72.8809 38.3613 72.9075 38.3746C73.3736 38.6409 73.9063 38.5743 74.1061 38.2414C74.3058 37.8952 74.0927 37.4159 73.6266 37.1496C74.1061 37.4292 74.3458 37.9352 74.146 38.2681C73.9462 38.6143 73.4002 38.6542 72.9208 38.3746L98.3701 53.035C98.3168 53.1681 98.3568 53.3279 98.4899 53.3945L100.9 54.7793C101.034 54.8459 101.18 54.8192 101.273 54.6994L101.553 54.8592C102.725 55.5383 104.216 55.1255 104.896 53.967L105.295 53.2613C105.974 52.0896 105.561 50.5982 104.403 49.9191L104.123 49.7593C104.176 49.6262 104.136 49.4664 104.003 49.3998L101.566 48.015C101.446 47.9351 101.287 47.9751 101.193 48.0949ZM76.2235 34.5264C76.4233 34.1802 76.2102 33.7008 75.7441 33.4345C76.2235 33.7142 76.4632 34.2202 76.2635 34.553C76.0637 34.8992 75.5177 34.9392 75.0383 34.6729C75.5044 34.9259 76.0371 34.8726 76.2235 34.5264ZM75.5177 35.7648C75.7174 35.4185 75.5044 34.9392 75.0383 34.6729C75.5177 34.9525 75.7574 35.4585 75.5576 35.7914C75.3579 36.1376 74.8119 36.1775 74.3325 35.9112C74.7852 36.1642 75.3179 36.0976 75.5177 35.7648ZM73.6133 37.1229C74.0794 37.3892 74.6121 37.3227 74.8119 36.9898C75.0116 36.6436 74.7986 36.1642 74.3325 35.8979C74.8119 36.1775 75.0516 36.6835 74.8518 37.0164C74.6521 37.3626 74.0927 37.4026 73.6133 37.1229Z" fill="#E5F0F8"/>
<path d="M477.461 95.8872L477.501 89.7754L470.336 90.8406L477.461 95.8872Z" fill="#2D628C"/>
<path d="M438.705 66.9249L438.052 65.0341C438.052 65.0341 436.894 63.2232 436.534 62.5175C436.334 62.118 435.695 61.1193 435.535 60.9862C435.402 60.893 435.029 60.9196 434.989 61.0794C434.949 61.2791 435.269 62.4109 435.389 62.8504C435.495 63.2764 435.828 64.5414 435.828 64.5414C435.828 64.5414 433.378 62.3177 432.606 61.5321C432.166 61.0927 430.941 59.7345 430.621 60.0141C430.368 60.2272 431.46 61.7585 431.833 62.2778C432.179 62.7571 433.178 64.2218 433.178 64.2218C433.178 64.2218 431.474 62.4509 430.901 61.8517C430.488 61.4256 429.409 59.9875 429.036 60.2938C428.664 60.6 429.822 61.9449 430.155 62.4243C430.635 63.1167 432.059 65.1939 432.059 65.1939C432.059 65.1939 430.235 63.383 429.622 62.7705C429.289 62.4376 428.411 61.3057 428.078 61.612C427.731 61.9316 428.77 62.9569 429.063 63.3297C429.569 63.9822 431.101 65.9529 431.101 65.9529C431.101 65.9529 429.742 64.6746 429.289 64.2485C429.09 64.0621 428.504 63.5427 428.331 63.7425C428.091 64.0088 428.837 64.7811 429.063 65.0607L430.901 67.4176C431.047 67.604 431.221 67.7771 431.407 67.9236L434.523 71.0527L438.705 66.9249Z" fill="#FDAE97"/>
<path d="M462.851 88.7734L438.613 104.126C437.921 104.419 437.255 104.819 436.669 105.365C433.899 107.881 433.686 112.182 436.203 114.952C438.72 117.721 443.021 117.934 445.791 115.418L473.744 100.771L462.851 88.7734Z" fill="#0775EF"/>
<path d="M434.478 111.332C434.438 111.012 434.398 110.706 434.398 110.373C434.398 106.618 437.435 103.582 441.19 103.582C444.946 103.582 447.982 106.618 447.982 110.373L447.583 140.692H436.276L434.478 111.332Z" fill="#0775EF"/>
<path d="M475.7 100.626L460.518 118.788C457.841 121.997 453.02 122.423 449.811 119.747C446.602 117.071 446.175 112.25 448.852 109.041L464.034 90.879C466.711 87.67 471.531 87.2439 474.741 89.9203C477.95 92.61 478.376 97.4169 475.7 100.626Z" fill="#088CFC"/>
<path d="M463.28 59.6283L456.102 62.864L457.087 92.0382L477.502 92.3578L480.605 62.3447L470.631 59.0957L463.28 59.6283Z" fill="#E5F0F8"/>
<path d="M463.273 55.4211V59.975C463.273 59.975 463.54 60.9604 465.857 60.9737C468.174 60.9737 470.611 59.4424 470.611 59.4424L469.892 49.4824L463.273 55.4211Z" fill="#FDAE97"/>
<path d="M463.273 59.3472L468.001 54.4338L463.273 54.3672V59.3472Z" fill="#E89780"/>
<path d="M461.344 46.2602C461.344 46.2602 461.344 49.0565 461.344 51.0405V52.6783C461.344 53.9699 461.703 55.8873 463.168 56.3401C464.62 56.7795 466.617 56.1803 468.016 54.6623C469.414 53.1444 472.504 46.3002 468.202 43.7836C463.887 41.2403 461.437 45.5811 461.344 46.2602Z" fill="#FDAE97"/>
<path d="M451.595 86.1785C450.076 87.4168 447.892 87.3635 446.428 86.1385L433.656 71.3583L435.414 69.5075L438.637 66.0987L439.01 65.6992L452.167 80.5061C453.566 82.2238 453.313 84.7803 451.595 86.1785Z" fill="#E7888B"/>
<path d="M447.07 113.25C447.07 109.495 450.107 106.459 453.862 106.459C457.618 106.459 459.668 108.017 460.494 111.759C462.398 120.44 466.38 143.569 466.38 143.569H454.608L447.15 114.195C447.097 113.889 447.07 113.569 447.07 113.25Z" fill="#088CFC"/>
<path d="M446.864 86.3643C449.115 87.6426 451.991 86.8437 453.27 84.5934L461.74 69.6667C463.018 67.4164 462.219 64.5402 459.969 63.262C457.718 61.9837 454.841 62.7826 453.563 65.0329L445.093 79.9596C443.828 82.2099 444.627 85.0861 446.864 86.3643Z" fill="#E7888B"/>
<path d="M467.751 43.5294C467.751 43.5294 462.544 41.1326 461.345 42.7039C460.147 44.2751 462.144 44.8343 462.144 44.8343C462.144 44.8343 459.667 44.5414 459.76 46.2192C459.854 47.8969 466.073 45.6066 466.073 45.6066C466.073 45.6066 464.009 46.5387 465.207 47.2844C466.392 48.0301 467.764 47.058 467.764 47.058C467.764 47.058 468.949 47.7371 468.75 50.8396C468.55 53.9421 470.414 54.6212 470.414 54.6212C470.414 54.6212 470.188 49.9209 471.093 48.6692C471.999 47.4175 470.654 42.7438 467.751 43.5294Z" fill="#322A28"/>
<path d="M468.441 51.5452C467.935 52.3308 467.802 52.8901 468.427 53.2895C469.053 53.689 470.079 53.5558 470.585 52.7702C471.091 51.9846 470.998 51.0126 470.372 50.6131C469.746 50.227 468.947 50.7596 468.441 51.5452Z" fill="#FDAE97"/>
<path d="M470.063 51.4915C470.063 51.4915 469.424 51.3983 468.984 52.2106C468.984 52.2106 469.384 52.1174 469.877 52.2106" stroke="#E89780" stroke-width="0.8594" stroke-miterlimit="10"/>
<path d="M465.208 49.8936C465.208 50.1998 465.048 50.4395 464.862 50.4395C464.662 50.4395 464.516 50.1998 464.516 49.8936C464.516 49.5873 464.675 49.3477 464.862 49.3477C465.048 49.3477 465.208 49.5873 465.208 49.8936Z" fill="#2C3447"/>
<path d="M464.978 53.3027C464.978 53.3027 464.459 54.3147 463.141 54.075" stroke="#2C3447" stroke-width="1.0759" stroke-miterlimit="10"/>
<path d="M463.721 50.0938L463.055 52.0112C462.988 52.2109 463.068 52.424 463.228 52.5305L463.774 52.8767" stroke="#2C3447" stroke-width="1.0759" stroke-miterlimit="10"/>
<path d="M465.764 48.9892C465.764 48.9892 465.018 48.4699 464.312 48.8028" stroke="#2C3447" stroke-width="1.0759" stroke-miterlimit="10"/>
<path d="M461.57 49.8936C461.57 50.1998 461.73 50.4395 461.917 50.4395C462.116 50.4395 462.263 50.1998 462.263 49.8936C462.263 49.5873 462.103 49.3477 461.917 49.3477C461.73 49.3477 461.57 49.5873 461.57 49.8936Z" fill="#2C3447"/>
<path d="M461.25 48.9628C461.25 48.9628 461.769 48.4701 462.475 48.803" stroke="#2C3447" stroke-width="1.0759" stroke-miterlimit="10"/>
<path d="M485.021 88.0824C487.524 87.4299 489.043 84.86 488.39 82.3567L484.075 65.739C483.423 63.2357 480.852 61.7177 478.349 62.3701C475.845 63.0226 474.327 65.5925 474.98 68.0958L479.294 84.7136C479.947 87.2169 482.517 88.7215 485.021 88.0824Z" fill="#E7888B"/>
<path d="M465.797 52.0256C466.348 51.8411 466.719 51.4654 466.625 51.1865C466.532 50.9075 466.009 50.831 465.458 51.0155C464.908 51.2 464.537 51.5757 464.63 51.8546C464.724 52.1336 465.246 52.2101 465.797 52.0256Z" fill="#E89780"/>
<path d="M461.344 51.0273V52.0926C461.797 52.1458 462.156 52.026 462.223 51.7863C462.289 51.5067 461.89 51.1738 461.344 51.0273Z" fill="#E89780"/>
<path d="M446.215 145.245L446.455 140.691H437.266L437.133 145.245H446.215Z" fill="#FDAE97"/>
<path d="M437.188 143.341L446.456 140.691H437.267L437.188 143.341Z" fill="#E89780"/>
<path d="M466.419 148.122L465.673 143.568H456.711L457.856 148.122H466.419Z" fill="#FDAE97"/>
<path d="M464.605 61.7715H466.256L466.403 62.0911L465.644 62.6636H464.991L464.445 61.9978L464.605 61.7715Z" fill="#F74242"/>
<path d="M457.257 145.752L465.673 143.568H456.711L457.257 145.752Z" fill="#E89780"/>
<path d="M470.601 59.043L465.367 60.9737L466.326 63.1441L470.827 59.5223L470.601 59.043Z" fill="white"/>
<path d="M463.276 59.5762L463.023 60.0822L464.382 62.945L465.367 60.9743L463.276 59.5762Z" fill="white"/>
<path d="M464.993 62.6641L462.516 81.8783L464.447 84.355L466.95 82.1047L465.645 62.6641H464.993Z" fill="#F74242"/>
<path d="M475.945 72.1309L478.689 83.489" stroke="#2C3447" stroke-width="1.0759" stroke-miterlimit="10"/>
<path d="M456.633 79.0283L456.406 72.1309" stroke="#2C3447" stroke-width="1.0759" stroke-miterlimit="10"/>
<path d="M466.422 148.123L467.221 151.439H455.209C454.823 149.748 456.115 148.123 457.846 148.123H457.859H466.422Z" fill="#93ACBF"/>
<path d="M446.21 145.246V148.855H433.625L433.638 148.562C433.732 146.711 435.263 145.246 437.127 145.246H446.21Z" fill="#93ACBF"/>
<path d="M436.951 145.966C436.951 145.966 436.671 144.768 436.005 145.087C435.326 145.407 436.911 146.006 436.911 146.006L435.965 146.659" stroke="white" stroke-width="0.5725" stroke-miterlimit="10" stroke-linecap="round" stroke-linejoin="round"/>
<path d="M436.945 145.966C436.945 145.966 437.225 144.768 437.891 145.087C438.57 145.407 436.985 146.006 436.985 146.006L437.931 146.659" stroke="white" stroke-width="0.5725" stroke-miterlimit="10" stroke-linecap="round" stroke-linejoin="round"/>
<path d="M457.935 148.976C457.935 148.976 457.655 147.778 456.99 148.097C456.31 148.417 457.895 149.016 457.895 149.016L456.95 149.668" stroke="white" stroke-width="0.5725" stroke-miterlimit="10" stroke-linecap="round" stroke-linejoin="round"/>
<path d="M457.938 148.976C457.938 148.976 458.217 147.778 458.883 148.097C459.562 148.417 457.977 149.016 457.977 149.016L458.923 149.668" stroke="white" stroke-width="0.5725" stroke-miterlimit="10" stroke-linecap="round" stroke-linejoin="round"/>
<path d="M462.517 59.9746C462.517 59.9746 462.024 65.1144 461.225 72.864C460.426 80.6269 460.479 92.7307 457.976 95.0609C457.976 95.0609 455.392 95.2474 450.172 96.792C450.172 96.792 451.637 91.8785 453.421 89.0956C455.206 86.3127 456.085 62.8508 456.085 62.8508L462.517 59.9746Z" fill="#E7888B"/>
<path d="M462.091 64.3145L461.492 70.373L463.423 68.7219L463.277 64.4343L462.091 64.3145Z" fill="#E5F0F8"/>
<path d="M472.395 59.6816C472.395 59.6816 470.464 68.0038 469.518 75.7135C468.573 83.4232 468.892 90.8932 466.469 95.4204C466.469 95.4204 476.217 97.1781 476.204 101.106C476.204 101.106 478.947 98.0702 478.974 93.9291C479 89.7747 480.598 62.3581 480.598 62.3581L472.395 59.6816Z" fill="#E7888B"/>
<path d="M440.376 103.448H462.482L456.716 86.8965H434.609L440.376 103.448Z" fill="#A5BBD6"/>
<path d="M462.239 102.647L469.457 96.2559H448.083L440.133 102.647H462.239Z" fill="#89A5C7"/>
<path d="M440.798 103.088H462.891L457.125 86.5371H435.031L440.798 103.088Z" fill="#A5BBD6"/>
<path d="M435.036 86.5371L434.609 86.8966H456.716L462.482 103.448L462.895 103.088L457.129 86.5371H435.036Z" fill="#89A5C7"/>
<path d="M469.461 96.2559L469.701 97.0548L462.483 103.446L462.203 102.647L469.461 96.2559Z" fill="#586773"/>
<path d="M447.622 96.4442C448.976 96.4442 450.073 95.9613 450.073 95.3657C450.073 94.77 448.976 94.2871 447.622 94.2871C446.269 94.2871 445.172 94.77 445.172 95.3657C445.172 95.9613 446.269 96.4442 447.622 96.4442Z" fill="#89A5C7"/>
<path d="M464.991 91.2266L468.267 96.8457L468.253 96.859C466.749 97.6446 463.606 100.667 462.474 101.786C462.207 102.039 461.835 102.092 461.515 101.946L458.425 100.507C457.933 100.281 457.573 99.8683 457.427 99.3623L456.747 97.1786C456.681 96.9522 456.881 96.7392 457.107 96.8058L458.865 97.2984C459.118 97.365 459.384 97.2452 459.491 97.0055L460.49 94.9283L457.64 96.606C457.48 96.6992 457.267 96.6593 457.147 96.4995L456.987 96.2731C456.867 96.1134 456.894 95.9003 457.04 95.7671L461.542 92.1187L464.844 91.3331C464.831 91.3331 464.884 91.2931 464.991 91.2266Z" fill="#FDAE97"/>
<path d="M487.66 81.6931C489.045 83.7703 488.659 86.4867 486.821 87.7117L468.51 98.2043L463.969 90.4015L480.948 79.8955C482.786 78.6705 486.275 79.5893 487.66 81.6931Z" fill="#E7888B"/>
<path d="M468.469 87.6034L478.443 81.425L476.286 73.5156" stroke="#322A28" stroke-width="1.4805" stroke-miterlimit="10"/>
<path d="M305.431 146.578C305.631 146.924 304.033 148.788 302.501 149.707C301.21 150.492 298.027 151.97 297.081 152.396L294.484 148.348C294.95 147.962 295.443 147.51 295.829 147.07C296.775 146.005 299.678 143.395 300.051 143.821C300.424 144.234 298.799 146.431 299.092 146.471C299.398 146.524 300.957 145.193 301.582 144.58C302.208 143.968 303.327 142.423 303.833 142.503C304.352 142.583 304.419 143.329 304.419 143.329C304.419 143.329 304.779 142.689 305.138 142.982C305.498 143.275 305.178 144.42 305.178 144.42C305.178 144.42 305.338 144.048 305.644 144.474C305.951 144.9 304.912 146.431 304.912 146.431C304.912 146.431 305.231 146.218 305.431 146.578Z" fill="#FDAE97"/>
<path d="M264.682 122.543C261.313 122.836 258.383 125.699 258.343 129.787C258.303 133.874 257.557 135.978 255.094 135.499C255.094 135.499 262.019 139.507 271.141 135.965C271.141 135.965 269.996 134.607 269.836 131.544C269.676 128.482 264.682 122.543 264.682 122.543Z" fill="#322A28"/>
<path d="M282.389 164.3C280.245 165.458 277.542 164.646 276.383 162.502L267.7 146.377C266.542 144.233 267.354 141.53 269.498 140.372C271.642 139.214 274.346 140.026 275.504 142.17L284.187 158.295C285.346 160.452 284.533 163.155 282.389 164.3Z" fill="#F74242"/>
<path d="M262.65 169.668C259.747 173.463 258.655 181.346 260.506 189.828C262.357 198.31 262.983 203.889 262.983 203.889C263.462 207.817 267.045 210.613 270.973 210.12C274.902 209.641 277.698 206.059 277.206 202.131L274.249 169.668H262.65Z" fill="#0775EF"/>
<path d="M262.016 138.535L254.266 142.05C254.266 142.05 255.984 162.01 256.17 164.194C256.343 166.378 255.677 169.68 255.677 169.68H274.268C274.268 169.68 274.042 158.988 275.294 156.005C276.133 153.981 276.718 152.756 276.226 150.439C275.733 148.122 272.151 144.021 272.723 140.013L268.675 138.722L262.016 138.535Z" fill="#F74242"/>
<path d="M248.047 167.524C245.756 166.685 244.571 164.128 245.41 161.838L251.709 144.635C252.548 142.344 255.105 141.159 257.396 141.998C259.686 142.837 260.872 145.394 260.033 147.684L253.734 164.887C252.895 167.178 250.338 168.363 248.047 167.524Z" fill="#F74242"/>
<path d="M269.619 126.964C269.619 126.964 270.671 124.368 268.141 123.582L269.619 126.964Z" fill="#332B27"/>
<path d="M268.667 129.679V138.694C268.667 138.694 268.481 140.678 266.137 140.851C264.113 141.011 262.821 139.666 262.275 138.96L261.982 138.534L261.969 138.521L262.928 129.666H268.667V129.679Z" fill="#FDAE97"/>
<path d="M268.667 137.671L264.672 133.33L268.667 134.835V137.671Z" fill="#E89780"/>
<path d="M264.704 134.288C266.568 135.393 268.779 135.393 270.111 134.487C271.442 133.595 271.229 131.545 270.83 130.253C270.83 130.253 270.83 130.253 270.83 130.24C270.75 129.974 270.63 129.587 270.497 129.161C269.991 127.484 269.232 124.994 269.232 124.994C268.899 123.675 265.13 120.719 261.561 124.581C258.005 128.442 262.839 133.183 264.704 134.288Z" fill="#FDAE97"/>
<path d="M269.109 124.461C269.109 124.461 269.056 126.032 266.845 127.097C264.634 128.149 262.543 129.76 262.81 132.09C263.076 134.421 262.277 135.739 262.277 135.739C262.277 135.739 261.944 132.836 260.479 130.386C259.907 129.427 259.414 127.417 260.359 125.686C261.851 122.929 265.7 120.852 269.109 124.461Z" fill="#322A28"/>
<path d="M263.205 131.585C263.684 132.291 263.818 132.784 263.258 133.157C262.712 133.53 261.767 133.436 261.301 132.744C260.834 132.051 260.888 131.173 261.434 130.8C261.993 130.427 262.726 130.88 263.205 131.585Z" fill="#FDAE97"/>
<path d="M261.944 132.104C262.41 131.878 262.81 132.078 262.81 132.078C262.49 131.279 261.531 131.598 261.531 131.598" stroke="#E89780" stroke-width="0.7905" stroke-miterlimit="10" stroke-linecap="round" stroke-linejoin="round"/>
<path d="M266.661 129.508C266.755 129.828 266.981 130.027 267.194 129.974C267.394 129.921 267.487 129.614 267.407 129.295C267.314 128.975 267.088 128.776 266.874 128.829C266.675 128.895 266.581 129.188 266.661 129.508Z" fill="#2C3447"/>
<path d="M269.234 128.522C269.314 128.815 269.527 129.001 269.726 128.961C269.913 128.908 270.006 128.628 269.926 128.335C269.846 128.042 269.633 127.856 269.434 127.896C269.234 127.949 269.154 128.229 269.234 128.522Z" fill="#2C3447"/>
<path d="M279.779 240.824H267.194L262.866 203.833L262.812 202.981C262.812 198.96 266.129 195.711 270.177 195.844C273.826 195.95 276.889 198.92 277.102 202.568L279.779 240.824Z" fill="#0775EF"/>
<path d="M265.578 129.014C265.578 129.014 265.991 128.056 266.817 128.136" stroke="#2C3447" stroke-width="1.1737" stroke-miterlimit="10"/>
<path d="M268.875 127.403C268.875 127.403 269.314 127.189 269.94 127.549" stroke="#2C3447" stroke-width="1.1737" stroke-miterlimit="10"/>
<path d="M256.793 240.823H244.781L248.59 202.608L248.603 202.475C248.856 198.759 251.959 195.83 255.741 195.83C259.697 195.83 262.893 199.026 262.893 202.981C262.893 203.207 262.879 203.42 262.866 203.633L256.793 240.823Z" fill="#088CFC"/>
<path d="M298.308 154.3L283.606 163.594L282.74 164.313C280.969 165.538 278.372 164.899 276.974 162.888C275.576 160.877 275.895 158.228 277.667 156.989L294.127 147.762L294.486 148.321L297.083 152.369L298.308 154.3Z" fill="#F74242"/>
<path d="M268.172 128.762C268.172 128.762 268.638 130.32 269.61 130.253C269.61 130.253 269.397 130.599 269.051 130.812" stroke="#2C3447" stroke-width="1.1737" stroke-miterlimit="10"/>
<path d="M268.434 169.68L268.261 170.718L262.867 203.661C262.454 207.602 258.925 210.452 254.997 210.039C251.068 209.626 248.205 206.098 248.618 202.17C248.618 202.17 249.27 196.59 249.377 187.909C249.457 181.184 250.988 175.752 253.385 172.25C254.091 171.224 254.85 170.372 255.676 169.68H268.434Z" fill="#088CFC"/>
<path d="M269.577 132.065C269.577 132.065 268.672 132.784 267.633 131.852" stroke="#2C3447" stroke-width="1.1737" stroke-miterlimit="10"/>
<path d="M265.141 130.892C265.128 131.239 265.66 131.532 266.339 131.545C267.019 131.558 267.565 131.305 267.565 130.959C267.578 130.613 267.045 130.32 266.366 130.307C265.7 130.28 265.141 130.546 265.141 130.892Z" fill="#E89780"/>
<path d="M270.123 130.079C270.229 130.265 270.509 130.305 270.828 130.239C270.749 129.972 270.629 129.586 270.495 129.16C270.149 129.48 269.976 129.853 270.123 130.079Z" fill="#E89780"/>
<path d="M263.517 133.156C263.597 133.449 263.424 133.742 263.131 133.821C262.838 133.901 262.545 133.728 262.465 133.435C262.385 133.142 262.558 132.849 262.851 132.769C263.144 132.69 263.437 132.863 263.517 133.156Z" stroke="white" stroke-width="1.0387" stroke-miterlimit="10"/>
<path d="M242.359 248.947H251.641L252.84 247.109L252.813 248.947H254.851L254.678 243.647L255.117 240.824H247.566L247.54 243.647L242.359 248.947Z" fill="#FDAE97"/>
<path d="M268.959 138.668L268.493 148.149L262.273 138.961C262.819 139.68 264.111 141.011 266.135 140.852C268.493 140.679 268.959 138.668 268.959 138.668Z" fill="#F9ECB8"/>
<path d="M262.043 138.016L266.678 140.772L265.705 142.49L261.391 138.815L262.043 138.016Z" fill="white"/>
<path d="M268.677 138.414L266.68 140.771L267.892 142.236L269.143 138.853L268.677 138.414Z" fill="white"/>
<path d="M293.589 167.657L268.633 168.709L274.359 149.734L299.329 148.695L293.589 167.657Z" fill="#A5BBD6"/>
<path d="M268.863 167.789L260.406 160.905L284.55 159.893L293.833 166.737L268.863 167.789Z" fill="#89A5C7"/>
<path d="M293.11 167.256L268.141 168.308L273.867 149.347L298.837 148.295L293.11 167.256Z" fill="#A5BBD6"/>
<path d="M298.837 148.295L299.33 148.694L274.36 149.733L268.633 168.708L268.141 168.308L273.867 149.347L298.837 148.295Z" fill="#89A5C7"/>
<path d="M260.404 160.904L260.164 161.823L268.634 168.707L268.914 167.775L260.404 160.904Z" fill="#586773"/>
<path d="M285.089 160.09C286.617 160.025 287.833 159.426 287.805 158.75C287.777 158.074 286.515 157.578 284.986 157.642C283.458 157.706 282.242 158.306 282.27 158.982C282.298 159.658 283.56 160.154 285.089 160.09Z" fill="#89A5C7"/>
<path d="M275.717 248.947L273.506 247.296L273.693 248.947H271.628L270.616 243.647L270.07 240.824H278.061L278.38 243.647L284.799 248.947H275.717Z" fill="#FDAE97"/>
<path d="M247.54 243.648L242.359 248.948H251.641L252.84 247.11L252.813 248.948H254.851L254.678 243.648H247.54Z" fill="#322A28"/>
<path d="M275.718 248.948L273.507 247.297L273.693 248.948H271.629L270.617 243.648H278.381L284.8 248.948H275.718Z" fill="#322A28"/>
<path d="M278.948 163.142C279.307 163.515 278.921 164.154 278.921 164.154C278.921 164.154 279.6 163.861 279.694 164.314C279.787 164.727 279.001 165.393 278.895 165.486C278.975 165.446 279.228 165.353 279.214 165.819C279.214 166.325 277.629 166.884 277.47 166.937C277.523 166.95 277.816 166.99 277.763 167.35C277.696 167.749 275.312 168.282 273.541 168.109C272.05 167.962 268.627 167.23 267.602 167.017L267.868 162.223C268.494 162.197 269.2 162.13 269.772 161.997C271.171 161.704 275.059 161.358 275.099 161.917C275.152 162.476 272.529 163.249 272.742 163.475C272.955 163.688 275.006 163.568 275.872 163.448C276.764 163.342 278.588 162.769 278.948 163.142Z" fill="#FDAE97"/>
<path d="M267.973 160.785L267.893 162.236L267.627 167.03L267.56 168.308L248.982 168.002C246.825 167.922 245.134 165.858 245.214 163.421C245.307 160.971 247.145 159.041 249.302 159.107L250.7 159.347L267.973 160.785Z" fill="#F74242"/>
<path d="M264.479 160.491L255.609 159.746L257.434 154.766" stroke="#2C3447" stroke-width="1.1737" stroke-miterlimit="10"/>
<path d="M255.941 168.094H251.906" stroke="#2C3447" stroke-width="1.1737" stroke-miterlimit="10"/>
<path d="M267.714 129.294C267.993 129.853 267.874 130.466 267.447 130.679C267.021 130.892 266.462 130.612 266.182 130.053C265.903 129.494 266.023 128.881 266.449 128.668C266.862 128.468 267.434 128.748 267.714 129.294Z" stroke="white" stroke-width="1.5294" stroke-miterlimit="10"/>
<path d="M269.977 129.713C270.399 129.503 270.518 128.885 270.243 128.332C269.968 127.778 269.404 127.5 268.982 127.709C268.561 127.918 268.441 128.536 268.716 129.09C268.991 129.643 269.555 129.922 269.977 129.713Z" stroke="white" stroke-width="1.5294" stroke-miterlimit="10"/>
<path d="M267.555 129.068L268.58 128.709" stroke="white" stroke-width="1.5294" stroke-miterlimit="10"/>
<path d="M66.8038 244.272L67.3498 244.205C67.8292 247.64 67.4164 248.959 67.4164 248.959C67.4164 248.959 66.6706 247.8 66.2578 244.352L66.8038 244.272Z" fill="#BBDBF3"/>
<path d="M27.0011 244.298L26.4551 244.205C25.8292 247.627 26.1887 248.945 26.1887 248.945C26.1887 248.945 26.9744 247.827 27.5471 244.391L27.0011 244.298Z" fill="#586773"/>
<path d="M65.4096 245.111L68.2195 244.751L68.3794 237.441L55.3418 137.309L51.4531 137.815L65.4096 245.111Z" fill="#93ACBF"/>
<path d="M62.676 235.392C62.6893 235.472 62.7159 235.538 62.7292 235.605C62.9023 235.538 63.0888 235.631 63.1554 235.791C63.2353 235.964 63.1554 236.151 62.9823 236.231C63.0222 236.297 63.0488 236.35 63.0888 236.417C63.2353 236.31 63.435 236.35 63.5549 236.497C63.6614 236.643 63.6481 236.843 63.5016 236.963C63.5549 237.016 63.6082 237.069 63.6614 237.123C63.7813 236.99 63.981 236.963 64.1275 237.069C64.274 237.176 64.3007 237.389 64.1941 237.535C64.2607 237.575 64.314 237.615 64.3806 237.642C64.4605 237.482 64.6469 237.402 64.82 237.469C64.9932 237.535 65.0731 237.735 65.0065 237.895C65.0731 237.922 65.153 237.935 65.2196 237.948C65.2595 237.775 65.4193 237.642 65.6058 237.669C65.7789 237.695 65.912 237.855 65.8987 238.028C65.9653 238.028 66.0452 238.028 66.1118 238.028C66.0985 237.842 66.2184 237.695 66.4048 237.669C66.5912 237.642 66.751 237.762 66.7777 237.948C66.8443 237.935 66.9242 237.922 66.9907 237.895C66.9375 237.722 67.0174 237.535 67.1772 237.469C67.337 237.402 67.5368 237.469 67.6167 237.642C67.6832 237.602 67.7498 237.575 67.8031 237.535C67.6966 237.389 67.7232 237.176 67.883 237.069C68.0295 236.963 68.2293 236.99 68.3491 237.123C68.4024 237.069 68.4556 237.016 68.5089 236.963C68.3757 236.843 68.3491 236.643 68.4556 236.497C68.5622 236.35 68.7753 236.324 68.9217 236.43C68.9617 236.364 69.0016 236.31 69.0283 236.244C68.8552 236.164 68.7886 235.978 68.8552 235.804C68.9217 235.645 69.1082 235.551 69.2813 235.618C69.3079 235.551 69.3213 235.485 69.3479 235.405C69.1748 235.378 69.0416 235.205 69.0682 235.019C69.0949 234.846 69.2547 234.713 69.4411 234.726C69.4411 234.646 69.4411 234.579 69.4411 234.513C69.2547 234.526 69.1082 234.406 69.0816 234.22C69.0549 234.047 69.1748 233.874 69.3612 233.847C69.3479 233.78 69.3346 233.701 69.308 233.634C69.1348 233.701 68.9484 233.607 68.8818 233.448C68.8152 233.274 68.8951 233.088 69.0549 233.008C69.015 232.942 68.9883 232.875 68.9484 232.822C68.8019 232.928 68.6021 232.888 68.4823 232.755C68.3757 232.609 68.3891 232.409 68.5356 232.289C68.4823 232.236 68.429 232.183 68.3757 232.129C68.2692 232.263 68.0561 232.289 67.9096 232.183C67.7631 232.076 67.7365 231.876 67.8431 231.717C67.7765 231.677 67.7232 231.637 67.6566 231.61C67.5767 231.77 67.3903 231.85 67.2171 231.77C67.044 231.703 66.9641 231.517 67.0307 231.344C66.9641 231.317 66.8842 231.304 66.8176 231.29C66.7777 231.464 66.6179 231.597 66.4314 231.57C66.2583 231.543 66.1251 231.384 66.1384 231.197C66.0585 231.197 65.992 231.197 65.9254 231.197C65.9387 231.384 65.8188 231.543 65.6324 231.57C65.4593 231.597 65.2861 231.464 65.2595 231.29C65.1929 231.304 65.113 231.317 65.0464 231.344C65.0997 231.517 65.0198 231.703 64.86 231.77C64.7002 231.836 64.5004 231.757 64.4205 231.597C64.3539 231.623 64.2873 231.663 64.2341 231.703C64.3406 231.85 64.3007 232.049 64.1542 232.169C64.0077 232.276 63.8079 232.263 63.6881 232.116C63.6348 232.169 63.5815 232.223 63.5283 232.276C63.6614 232.396 63.6881 232.595 63.5815 232.742C63.475 232.888 63.2619 232.915 63.1154 232.808C63.0755 232.875 63.0355 232.928 63.0089 232.995C63.1687 233.075 63.2486 233.261 63.1687 233.434C63.1021 233.594 62.9157 233.687 62.7425 233.621C62.7159 233.687 62.7026 233.767 62.6893 233.834C62.8624 233.86 62.9956 234.033 62.9689 234.22C62.9423 234.406 62.7825 234.526 62.6094 234.513C62.6094 234.593 62.6094 234.659 62.6094 234.726C62.7958 234.713 62.9556 234.846 62.9689 235.019C62.9823 235.192 62.8624 235.365 62.676 235.392Z" fill="#F9ECB8"/>
<path d="M65.0861 234.739C65.1526 235.258 65.6321 235.631 66.1514 235.565C66.6708 235.498 67.0437 235.019 66.9771 234.499C66.9105 233.98 66.4311 233.607 65.9117 233.674C65.379 233.74 65.0195 234.22 65.0861 234.739Z" fill="#F9E181"/>
<path d="M61.0717 211.851L60.2266 211.961L60.5289 214.285L61.3741 214.175L61.0717 211.851Z" fill="#586773"/>
<path d="M28.3536 245.205L25.5703 244.726L25.7301 237.402L43.0692 137.936L46.9445 138.601L28.3536 245.205Z" fill="#93ACBF"/>
<path d="M31.5129 235.604C31.4862 235.684 31.4729 235.751 31.4463 235.817C31.2865 235.751 31.0867 235.831 31.0068 235.99C30.9269 236.163 30.9935 236.35 31.1533 236.443C31.1133 236.51 31.0734 236.563 31.0334 236.629C30.8869 236.523 30.6872 236.55 30.5673 236.683C30.4475 236.816 30.4608 237.029 30.594 237.149C30.5407 237.202 30.4874 237.242 30.4342 237.295C30.3276 237.149 30.1279 237.122 29.9681 237.229C29.8216 237.335 29.7816 237.535 29.8748 237.695C29.8082 237.735 29.7417 237.761 29.6751 237.801C29.5952 237.628 29.4087 237.548 29.2489 237.615C29.0758 237.681 28.9826 237.868 29.0358 238.041C28.9693 238.054 28.8894 238.081 28.8228 238.094C28.7961 237.908 28.6363 237.788 28.4499 237.801C28.2768 237.815 28.1303 237.974 28.1436 238.147C28.077 238.147 27.9971 238.147 27.9305 238.134C27.9571 237.961 27.8373 237.788 27.6509 237.761C27.4644 237.735 27.3046 237.841 27.2647 238.014C27.1981 238.001 27.1182 237.974 27.0516 237.948C27.1182 237.788 27.0383 237.588 26.8785 237.508C26.7186 237.428 26.5189 237.495 26.439 237.655C26.3724 237.615 26.3191 237.575 26.2525 237.535C26.3591 237.388 26.3458 237.189 26.1993 237.069C26.0661 236.949 25.853 236.962 25.7332 237.096C25.6799 237.042 25.6399 236.989 25.5867 236.936C25.7332 236.829 25.7598 236.616 25.6533 236.47C25.5467 236.323 25.347 236.283 25.1872 236.376C25.1605 236.31 25.1206 236.243 25.0806 236.177C25.2537 236.11 25.3337 235.924 25.2671 235.751C25.2005 235.578 25.014 235.484 24.8542 235.538C24.8276 235.471 24.8143 235.404 24.801 235.325C24.9874 235.298 25.1073 235.138 25.0939 234.952C25.0673 234.779 24.9208 234.632 24.7344 234.645C24.7344 234.566 24.7344 234.499 24.7477 234.432C24.9208 234.459 25.0939 234.339 25.1206 234.153C25.1472 233.966 25.0407 233.807 24.8675 233.767C24.8809 233.7 24.9075 233.62 24.9341 233.554C25.0939 233.62 25.2937 233.54 25.3736 233.38C25.4535 233.221 25.3869 233.021 25.2138 232.941C25.2537 232.875 25.2937 232.821 25.3337 232.755C25.4801 232.861 25.6799 232.835 25.7998 232.701C25.9196 232.555 25.9063 232.355 25.7731 232.235C25.8264 232.182 25.8797 232.129 25.9329 232.089C26.0395 232.235 26.2392 232.262 26.399 232.155C26.5455 232.049 26.5855 231.849 26.4923 231.703C26.5588 231.663 26.6254 231.636 26.692 231.596C26.7719 231.769 26.9584 231.849 27.1182 231.783C27.2913 231.716 27.3845 231.543 27.3312 231.37C27.3978 231.343 27.4777 231.33 27.5443 231.317C27.571 231.49 27.7308 231.623 27.9172 231.61C28.0903 231.583 28.2368 231.436 28.2235 231.25C28.3034 231.25 28.37 231.25 28.4366 231.263C28.4099 231.436 28.5298 231.61 28.7162 231.636C28.8894 231.663 29.0625 231.556 29.1024 231.37C29.169 231.383 29.2489 231.41 29.3022 231.436C29.2356 231.61 29.3155 231.796 29.4753 231.876C29.6351 231.956 29.8349 231.889 29.9148 231.729C29.9814 231.756 30.048 231.809 30.1012 231.849C29.9947 231.996 30.0213 232.195 30.1545 232.315C30.2877 232.435 30.5007 232.422 30.6206 232.289C30.6739 232.342 30.7138 232.395 30.7671 232.448C30.6206 232.555 30.594 232.768 30.7005 232.914C30.807 233.061 31.0068 233.101 31.1533 233.008C31.1932 233.074 31.2199 233.141 31.2598 233.207C31.0867 233.287 31.0068 233.474 31.0734 233.633C31.14 233.807 31.3264 233.9 31.4862 233.833C31.5129 233.9 31.5262 233.98 31.5395 234.046C31.353 234.073 31.2332 234.233 31.2465 234.419C31.2598 234.606 31.4196 234.739 31.5928 234.725C31.5928 234.805 31.5928 234.872 31.5794 234.938C31.4063 234.912 31.2332 235.045 31.2066 235.218C31.2199 235.391 31.3264 235.564 31.5129 235.604Z" fill="#F9ECB8"/>
<path d="M29.1351 234.845C29.0419 235.364 28.5491 235.71 28.0298 235.617C27.5104 235.524 27.1641 235.031 27.2574 234.512C27.3506 233.993 27.8433 233.647 28.3627 233.74C28.8821 233.833 29.2283 234.326 29.1351 234.845Z" fill="#F9E181"/>
<path d="M67.5888 207.985L66.4531 208.133L67.5285 216.398L68.6642 216.251L67.5888 207.985Z" fill="#93ACBF"/>
<path d="M66.8439 211.106L64.9688 211.35L65.2711 213.673L67.1463 213.43L66.8439 211.106Z" fill="#586773"/>
<path d="M62.7407 209.411C62.5143 209.438 62.3012 209.278 62.2746 209.052L61.7685 205.137C61.7419 204.911 61.9017 204.697 62.1281 204.671C62.3545 204.644 62.5676 204.804 62.5942 205.03L63.1002 208.945C63.1402 209.158 62.9804 209.371 62.7407 209.411Z" fill="#586773"/>
<path d="M52.4734 127.973H45.8281L46.1877 122.82H52.1139L52.4734 127.973Z" fill="#322A28"/>
<path d="M52.0056 124.006H46.2925C46.0129 124.006 45.7998 123.78 45.8131 123.501L46.4523 107.935C46.4923 107.109 47.1715 106.443 47.9971 106.443H50.2877C51.1134 106.443 51.8059 107.096 51.8325 107.935L52.4717 123.501C52.4984 123.767 52.2853 124.006 52.0056 124.006Z" fill="#586773"/>
<path d="M49.1442 127.016C44.4699 126.857 42.3125 128.561 42.3125 128.561V140.012C42.3125 140.132 42.3391 140.265 42.3791 140.372C42.6587 141.131 43.7508 144.207 44.2169 146.137C44.7362 148.321 44.8028 150.585 44.8028 151.557C44.8028 151.903 44.9759 152.223 45.2822 152.382C46.6406 153.101 48.1455 153.208 49.1442 153.208C50.143 153.208 51.6479 153.101 53.0063 152.382C53.3125 152.223 53.4857 151.903 53.4857 151.557C53.4857 150.585 53.5523 148.308 54.0716 146.137C54.5377 144.193 55.6297 141.131 55.9094 140.372C55.9494 140.252 55.976 140.132 55.976 140.012V128.561C55.9893 128.574 53.8319 126.87 49.1442 127.016Z" fill="#586773"/>
<path d="M49.1423 152.193C47.8238 152.193 46.7052 151.967 45.8263 151.528C45.8263 150.356 45.733 148.119 45.2004 145.922C44.7209 143.951 43.6556 140.928 43.3359 140.036V129.144C44.0551 128.758 45.7597 128.039 48.543 128.039C48.7294 128.039 48.9159 128.039 49.1156 128.052C49.1289 128.052 49.1689 128.052 49.1822 128.052C49.382 128.039 49.5684 128.039 49.7549 128.039C52.5382 128.039 54.2428 128.758 54.9619 129.144V140.023C54.6423 140.915 53.5636 143.951 53.0842 145.922C52.5515 148.119 52.4716 150.356 52.4583 151.528C51.5926 151.967 50.474 152.193 49.1423 152.193Z" stroke="#93ACBF" stroke-width="2.7149" stroke-miterlimit="10"/>
<path d="M44.1442 136.352C43.9578 135.499 44.3973 134.661 45.1697 134.314C45.2762 134.261 45.3961 134.221 45.5159 134.194C45.6358 134.168 45.7556 134.155 45.8755 134.155C46.7145 134.141 47.4736 134.714 47.66 135.566C47.8464 136.418 47.407 137.257 46.6346 137.603C46.528 137.657 46.4082 137.696 46.2883 137.723C46.1685 137.75 46.0486 137.763 45.9288 137.763C45.0898 137.776 44.3307 137.204 44.1442 136.352Z" fill="#F9ECB8"/>
<path d="M45.9231 137.763L45.1641 134.314C45.2706 134.261 45.3905 134.221 45.5103 134.194C45.6302 134.168 45.75 134.154 45.8699 134.154L46.629 137.603C46.5224 137.656 46.4026 137.696 46.2827 137.723C46.1629 137.749 46.043 137.763 45.9231 137.763Z" fill="#F9E181"/>
<path d="M54.1365 136.352C54.323 135.499 53.8835 134.661 53.1111 134.314C53.0046 134.261 52.8847 134.221 52.7649 134.194C52.645 134.168 52.5252 134.155 52.4053 134.155C51.5663 134.141 50.8072 134.714 50.6208 135.566C50.4344 136.418 50.8738 137.257 51.6462 137.603C51.7528 137.657 51.8726 137.696 51.9925 137.723C52.1123 137.75 52.2322 137.763 52.352 137.763C53.191 137.776 53.9501 137.204 54.1365 136.352Z" fill="#F9ECB8"/>
<path d="M52.3621 137.763L53.1211 134.314C53.0146 134.261 52.8947 134.221 52.7749 134.194C52.655 134.168 52.5352 134.154 52.4153 134.154L51.6562 137.603C51.7628 137.656 51.8826 137.696 52.0025 137.723C52.109 137.749 52.2289 137.763 52.3621 137.763Z" fill="#F9E181"/>
<path d="M483.448 175.443C467.201 179.478 455.148 194.152 455.148 211.648C455.148 220.49 458.238 228.612 463.379 235.004L492.463 211.648L483.448 175.443Z" fill="#40A87B"/>
<path d="M514.789 181.768C508.556 177.108 500.832 174.352 492.456 174.352C489.353 174.352 486.33 174.738 483.453 175.457L492.456 211.662L514.789 181.768Z" fill="#F9E181"/>
<path d="M529.728 210.516C529.382 198.758 523.589 188.359 514.786 181.768L492.453 211.648L529.728 210.516Z" fill="#FFDDB8"/>
<path d="M529.728 210.516L492.453 211.634L518.928 237.906C525.626 231.168 529.755 221.874 529.755 211.634C529.755 211.261 529.741 210.888 529.728 210.516Z" fill="#FFD09C"/>
<path d="M503.959 247.132C509.672 245.281 514.799 242.086 518.928 237.918L492.453 211.646L503.959 247.132Z" fill="#A6C9F1"/>
<path d="M463.367 234.989C470.199 243.484 480.693 248.943 492.452 248.943C496.461 248.943 500.336 248.304 503.958 247.132L492.452 211.646L463.367 234.989Z" fill="#0775EF"/>
<path d="M483.45 175.443H488.377L468.308 234.99H463.367L483.45 175.443Z" fill="#40A87B"/>
<path d="M488.377 175.443C472.13 179.478 460.078 194.152 460.078 211.648C460.078 220.49 463.168 228.612 468.308 235.004L497.393 211.648L488.377 175.443Z" fill="#6ADB6A"/>
<path d="M519.726 181.768C513.494 177.108 505.77 174.352 497.393 174.352C494.29 174.352 491.267 174.738 488.391 175.457L497.393 211.662L519.726 181.768Z" fill="#F9ECB8"/>
<path d="M534.666 210.516C534.319 198.758 528.526 188.359 519.724 181.768L497.391 211.648L534.666 210.516Z" fill="#F9E181"/>
<path d="M534.666 210.516L497.391 211.634L523.865 237.906C530.564 231.168 534.692 221.874 534.692 211.634C534.692 211.261 534.679 210.888 534.666 210.516Z" fill="#F74242"/>
<path d="M508.881 247.132C514.594 245.281 519.721 242.086 523.85 237.918L497.375 211.646L508.881 247.132Z" fill="#2EC6FC"/>
<path d="M468.305 234.989C475.136 243.484 485.63 248.943 497.39 248.943C501.398 248.943 505.273 248.304 508.896 247.132L497.39 211.646L468.305 234.989Z" fill="#088CFC"/>
</svg>
