<svg width="513" height="299" viewBox="0 0 513 299" fill="none" xmlns="http://www.w3.org/2000/svg">
<path opacity="0.2" d="M450.425 287.506C450.425 287.506 500.988 193.289 438.052 159.999C375.115 126.709 365.442 90.5931 388.557 56.738C411.671 22.8828 262.306 -45.4556 253.324 44.9295C244.342 135.315 180.401 91.7237 129.273 55.1677C78.1445 18.6117 53.8994 79.3499 105.279 126.144C156.658 172.938 7.41929 240.523 64.8286 294.415L450.425 287.506Z" fill="white"/>
<path d="M504.003 299H30.9108C28.4611 299 26.4512 296.99 26.4512 294.541V288.448C26.4512 285.998 28.4611 283.988 30.9108 283.988H504.003C506.453 283.988 508.463 285.998 508.463 288.448V294.541C508.526 296.99 506.516 299 504.003 299Z" fill="#D3D3D3"/>
<path d="M337.303 232.421L109.613 264.957V85.7568L335.859 124.26L337.303 232.421Z" fill="#F2F2F2"/>
<path d="M336.047 137.45L109.613 107.615V85.7568L335.859 124.26L336.047 137.45Z" fill="#FFBE55"/>
<g opacity="0.42">
<path d="M174.183 154.849L109.613 151.268V123.946L174.12 130.604L174.183 154.849Z" fill="#FFBE55"/>
</g>
<path d="M125.189 145.364L116.207 144.736V131.986L125.189 132.802V145.364Z" fill="#FFBE55"/>
<g opacity="0.42">
<path d="M174.246 182.548L109.613 182.485V155.163L174.183 158.303L174.246 182.548Z" fill="#FFBE55"/>
</g>
<path d="M125.189 175.702L116.207 175.639V162.889L125.189 163.203V175.702Z" fill="#FFBE55"/>
<g opacity="0.42">
<path d="M174.309 210.248L109.613 213.703V186.38L174.246 186.003L174.309 210.248Z" fill="#FFBE55"/>
</g>
<path d="M125.189 206.102L116.207 206.479V193.729L125.189 193.54V206.102Z" fill="#FFBE55"/>
<g opacity="0.42">
<path d="M174.434 255.724L109.613 264.957V237.634L174.371 231.479L174.434 255.724Z" fill="#FFBE55"/>
</g>
<path d="M125.252 255.975L116.207 257.168V244.417L125.252 243.412V255.975Z" fill="#FFBE55"/>
<g opacity="0.42">
<path d="M135.618 228.275L113.383 230.159V219.795L135.618 218.351V228.275Z" fill="#FFBE55"/>
</g>
<path d="M317.329 190.714L199.056 193.289L198.867 143.543L316.889 153.153L317.329 190.714ZM200.877 190.965L315.444 189.018L315.068 154.66L200.752 145.867L200.877 190.965Z" fill="#FFBE55"/>
<path d="M316.136 190.714L199.496 145.804L200.061 143.668L316.701 189.081L316.136 190.714Z" fill="#FFBE55"/>
<path d="M200.247 193.164L199.682 191.091L315.694 153.09L316.259 154.786L200.247 193.164ZM256.714 206.542L200.059 209.683L199.996 202.145L256.651 199.884L256.714 206.542ZM316.636 210.876L200.059 219.795V216.027L316.636 208.05V210.876ZM316.699 216.341L200.121 226.956V223.187L316.699 213.451V216.341ZM316.761 221.743L200.121 234.116V230.348L316.761 218.853V221.743Z" fill="#FFBE55"/>
<path d="M397.914 147.5C369.712 147.5 346.598 124.26 346.598 95.932C346.598 67.5414 369.775 44.4897 398.354 44.4897C426.368 44.4897 449.608 67.9182 449.608 96.1204C449.545 124.448 426.368 147.5 397.914 147.5ZM429.069 61.6371C428.378 61.009 427.812 60.5694 427.247 60.1297C420.652 54.8536 413.303 51.3362 404.886 50.2056C396.344 49.075 387.99 49.9543 380.013 53.3461C371.848 56.8635 365.19 62.3281 360.102 69.6142C359.976 69.8026 359.788 70.1795 359.914 70.3051C359.976 70.4935 360.353 70.5563 360.605 70.5563C363.808 70.4935 367.011 70.4307 370.152 70.3051C371.785 70.2423 373.355 70.1166 374.988 70.1794C376.056 70.1794 376.684 70.8704 376.747 71.8125C376.81 72.6919 376.244 73.5084 375.239 73.6969C374.046 73.9481 372.853 74.0109 371.659 74.1994C369.838 74.3878 369.775 74.325 370.403 76.2093C375.616 91.8493 380.892 107.426 386.169 123.066C386.231 123.318 386.42 123.569 386.671 123.946C386.86 123.506 387.048 123.255 387.111 123.004L388.618 118.481C391.193 110.818 393.769 103.155 396.281 95.4295C396.532 94.7386 396.595 93.7964 396.407 93.1055C394.334 87.2012 392.136 81.297 390 75.3928C389.749 74.639 389.309 74.2622 388.493 74.1994C387.111 74.0737 385.729 73.9481 384.347 73.6341C383.468 73.4456 383.028 72.7547 383.028 71.8754C383.028 70.996 383.531 70.3051 384.41 70.1794C385.101 70.0538 385.792 70.1166 386.483 70.1166C392.701 70.4935 398.919 70.7448 405.138 70.2423C406.582 70.1166 407.964 70.0538 409.409 70.0538C411.105 70.0538 411.984 71.4357 411.23 72.8175C410.853 73.5084 410.1 73.6969 409.409 73.8225C408.215 73.9481 407.085 74.0737 405.891 74.1994C404.698 74.325 404.572 74.5134 404.949 75.644C406.833 81.1714 408.655 86.6987 410.539 92.2261L420.715 122.375C420.84 122.689 421.029 123.004 421.154 123.255C421.468 122.878 421.594 122.627 421.72 122.313C423.981 114.775 426.242 107.301 428.44 99.7634C429.759 95.3039 429.697 90.8443 428.189 86.3847C427.247 83.6838 425.802 81.2342 424.358 78.7846C423.101 76.7118 421.908 74.5762 421.343 72.1894C420.212 67.353 422.85 63.019 427.749 61.9512C428.064 61.9512 428.44 61.8256 429.069 61.6371ZM399.108 100.643H398.856C398.668 101.02 398.48 101.334 398.354 101.711C397.663 103.595 397.035 105.542 396.407 107.426C392.764 117.916 389.184 128.405 385.54 138.895C385.101 140.214 385.226 140.591 386.483 140.842C388.367 141.219 390.188 141.658 392.073 141.91C398.794 142.852 405.326 142.161 411.795 140.277C413.177 139.837 413.303 139.648 412.8 138.267C408.906 127.652 405.075 117.036 401.18 106.421C400.489 104.411 399.799 102.527 399.108 100.643ZM377.375 137.387L377.563 137.199C377.375 136.634 377.249 136.005 376.998 135.44C372.601 123.443 368.205 111.446 363.871 99.4494C361.295 92.4146 358.72 85.3797 356.208 78.2821C356.145 78.0936 355.956 77.9052 355.768 77.7168C355.58 77.8424 355.391 77.968 355.266 78.1565C353.632 82.1764 352.439 86.3847 351.999 90.7187C351.246 98.1304 352.125 105.416 354.7 112.388C358.343 122.061 364.75 129.473 373.292 135.126C374.611 136.005 376.056 136.634 377.375 137.387ZM421.594 135.566C423.353 135.189 424.609 134.31 425.802 133.43C430.073 130.164 433.402 125.956 436.417 121.559C441.317 114.524 443.892 106.673 444.332 98.1304C444.771 89.9649 442.887 82.302 439.307 74.9531C439.244 74.8275 439.118 74.7018 438.93 74.4506C438.867 74.8903 438.867 75.0787 438.867 75.33C439.432 81.2342 438.427 86.95 436.48 92.4774C431.644 106.547 426.745 120.554 421.845 134.624C421.782 134.812 421.72 135.126 421.594 135.566Z" fill="#FFC145"/>
<path d="M351.12 268.034C351.12 268.034 353.256 274.252 353.633 275.257C354.01 276.137 354.763 276.702 355.517 277.267C355.768 277.456 355.957 277.833 356.208 278.21C356.396 278.461 356.333 278.838 356.208 279.089C354.009 284.239 348.042 285.998 347.917 285.621C347.728 284.868 348.671 283.548 349.927 282.858C351.183 282.229 352 280.848 352.125 279.466C352.251 278.335 352.062 277.205 351.56 276.137L349.424 271.489L351.12 268.034ZM342.264 275.195L340.442 281.601C339.877 283.548 340.065 285.684 340.882 287.506C341.384 288.511 340.819 289.767 339.751 290.081C336.234 291.149 329.325 293.096 329.074 292.845C327.629 291.463 331.774 289.578 334.915 287.443C336.988 286.061 338.181 279.026 338.684 273.624L341.824 274.629C342.013 274.755 342.201 274.943 342.264 275.195Z" fill="#DBA17B"/>
<path d="M335.481 289.39C334.036 289.767 332.403 289.83 330.959 289.955C330.77 289.955 330.645 290.018 330.519 290.144C329.074 291.149 328.321 292.154 329.074 292.907C329.388 293.221 337.428 290.835 340.569 289.892C341.197 289.704 341.574 288.95 341.26 288.322L340.757 287.192C339.061 288.134 337.303 288.887 335.481 289.39ZM343.521 202.648C347.289 203.402 350.304 207.987 349.362 212.823C348.797 215.65 345.656 225.637 342.265 233.425C341.008 236.44 341.26 239.958 343.207 242.596C343.521 243.035 343.772 243.475 344.023 243.915C345.091 246.176 349.048 259.618 351.247 268.474C350.995 269.604 350.179 271.049 349.299 271.489C344.903 263.763 337.868 249.756 336.737 247.369C336.109 245.988 335.418 244.48 334.916 242.973C332.026 238.701 333.911 215.775 334.79 211.253C335.732 206.417 339.752 201.957 343.521 202.648Z" fill="#0B4870"/>
<path d="M349.899 175.373C350.13 171.181 347.678 167.638 344.422 167.459C341.166 167.279 338.339 170.531 338.108 174.722C337.877 178.913 340.329 182.457 343.585 182.636C346.841 182.816 349.668 179.564 349.899 175.373Z" fill="#0B4870"/>
<path d="M345.342 175.953C345.656 171.745 349.237 168.416 353.445 168.416C357.151 168.416 360.291 170.865 361.296 174.194C361.673 175.388 362.741 176.141 363.934 176.204C364.437 176.204 364.939 176.33 365.505 176.456C368.52 177.272 370.781 179.973 370.969 183.114C371.095 185.94 369.65 188.39 367.452 189.709C366.51 190.274 365.944 191.279 365.756 192.347C364.814 197.309 360.04 200.763 354.827 199.884C350.367 199.13 347.038 195.299 346.913 190.776C346.85 188.013 347.918 185.563 349.676 183.804C346.913 182.297 345.091 179.282 345.342 175.953ZM344.526 165.024C344.526 165.024 341.071 166.908 341.322 169.735C341.322 169.735 339.627 168.416 339.438 164.019C339.375 161.004 344.526 165.024 344.526 165.024Z" fill="#0B4870"/>
<path d="M341.512 181.983C341.449 182.988 341.198 184.056 340.633 185.124C340.319 185.689 339.942 186.191 339.439 186.631C338.937 187.071 338.372 187.385 337.869 187.573C336.739 188.013 335.671 188.076 334.729 188.076C333.786 188.013 332.907 187.887 332.028 187.699C330.332 187.259 328.762 186.694 327.317 186.003C325.809 185.312 324.365 184.621 322.983 183.805C320.219 182.234 317.518 180.476 314.943 178.654C312.368 176.833 309.855 174.885 307.469 172.75C307.217 172.499 307.217 172.122 307.406 171.87C307.594 171.619 307.971 171.619 308.222 171.808C309.479 172.687 310.798 173.566 312.117 174.383C313.436 175.199 314.755 176.016 316.074 176.77C318.775 178.34 321.475 179.785 324.302 181.041C327.066 182.297 329.955 183.428 332.719 183.93C333.41 184.056 334.1 184.119 334.666 184.056C335.294 184.056 335.796 183.93 336.11 183.742C336.424 183.553 336.613 183.428 336.739 183.114C336.864 182.8 336.99 182.297 336.99 181.732C336.99 180.538 337.995 179.533 339.251 179.596C340.444 179.596 341.449 180.601 341.387 181.857C341.512 181.857 341.512 181.92 341.512 181.983Z" fill="#DBA17B"/>
<path d="M339.124 196.43C337.993 192.347 335.795 183.742 336.172 180.978C336.423 179.219 337.993 177.963 339.752 178.026L351.309 178.654C353.194 178.78 354.701 180.35 354.638 182.297C354.575 185.626 352.566 193.163 351.498 197.058L339.124 196.43Z" fill="#FFBE55"/>
<path d="M338.62 275.069C338.432 274.943 338.369 274.755 338.369 274.504C339.06 266.024 340.191 255.284 340.505 253.211C340.568 252.96 340.568 252.771 340.63 252.52C339.374 242.407 340.253 220.863 340.316 217.032C340.379 212.07 343.645 206.605 347.54 206.668C351.434 206.668 355.391 210.939 356.333 215.524C356.961 218.539 352.941 234.367 348.859 245.736C347.979 248.123 347.728 250.698 347.979 253.211C348.105 254.969 348.105 256.728 347.916 258.11C347.602 260.12 344.902 268.285 342.326 275.32C342.263 275.509 342.075 275.697 341.887 275.697C340.756 275.948 339.563 275.76 338.62 275.069Z" fill="#0B4870"/>
<path d="M352.502 202.271C352 200.575 351.937 198.754 352.251 196.995C353.068 192.912 354.512 185.312 354.575 182.046C354.638 180.287 353.256 178.843 351.497 178.717L349.801 178.591C349.048 180.036 347.603 181.167 345.467 181.041C343.332 180.915 342.013 179.659 341.448 178.152L339.815 178.089C341.322 181.92 340.443 186.82 337.302 189.52C337.742 191.53 338.119 193.54 338.37 195.173C338.747 197.372 338.37 199.633 337.428 201.643C335.732 205.098 334.287 210.688 334.476 212.949C346.41 217.032 355.14 211.442 355.14 211.442L352.502 202.271Z" fill="#FFBE55"/>
<path d="M343.771 179.094L349.048 178.843L347.729 173.064L344.274 173.252L343.771 179.094Z" fill="#DBA17B"/>
<path d="M344.275 173.252L347.667 173.001L348.107 174.823C347.29 175.639 346.222 177.398 344.966 177.335C344.589 177.335 344.212 177.21 343.898 176.958L344.275 173.252Z" fill="#C98E6D"/>
<path d="M344.024 176.016C345.154 176.079 346.473 175.576 348.232 174.195C349.237 173.378 350.053 171.933 350.116 170.928L350.43 165.338L341.825 164.836C341.825 164.836 341.009 167.788 341.511 170.74C341.825 173.001 343.144 175.953 344.024 176.016Z" fill="#DBA17B"/>
<path d="M348.736 169.798C348.673 170.866 349.175 171.808 349.804 171.808C350.432 171.87 351.248 170.426 351.311 169.358C351.374 168.29 350.683 167.913 350.055 167.851C349.364 167.851 348.799 168.667 348.736 169.798Z" fill="#DBA17B"/>
<path d="M351.497 166.029C351.623 164.27 350.241 162.763 348.482 162.7L345.593 162.512C344.776 162.449 343.96 162.198 343.269 161.758C342.264 161.13 340.945 161.256 340.191 162.135C339.375 163.14 338.998 164.459 340.819 165.841C341.761 166.532 343.143 165.904 344.085 166.28H344.274L346.849 166.406C347.728 166.469 348.357 167.223 348.357 168.102C348.357 168.667 348.796 169.17 349.362 169.17H349.487L349.99 167.851L351.309 169.861L351.497 166.029Z" fill="#0B4870"/>
<path d="M305.27 171.117C305.27 171.117 307.092 173.566 308.034 173.252C308.976 172.938 309.541 172.561 309.101 171.18C308.725 169.798 307.531 168.102 306.589 167.285C305.647 166.406 303.511 165.589 303.197 165.715C302.129 165.966 303.951 167.348 304.83 168.039C305.71 168.73 306.589 169.672 306.087 169.986C305.647 170.3 304.077 168.793 303.448 168.981C302.883 169.17 305.27 171.117 305.27 171.117ZM332.97 204.093C332.97 204.093 335.985 203.778 336.424 204.658C336.801 205.537 336.927 206.228 335.671 206.856C334.414 207.484 332.342 207.736 331.085 207.673C329.829 207.61 327.756 206.542 327.631 206.291C327.128 205.349 329.389 205.726 330.457 205.914C331.588 206.04 332.844 206.102 332.718 205.537C332.656 204.972 330.52 204.909 330.206 204.281C329.892 203.716 332.97 204.093 332.97 204.093Z" fill="#DBA17B"/>
<path d="M342.453 164.773C342.641 166.092 342.202 166.72 346.284 168.981C350.367 171.18 351.749 170.426 352.942 172.624C352.942 172.624 352.565 169.044 350.304 167.662C348.043 166.343 344.086 165.276 342.955 162.386C343.018 162.449 342.327 163.894 342.453 164.773Z" fill="#0B4870"/>
<path d="M354.136 181.292C354.701 182.172 355.203 182.988 355.643 183.805C356.145 184.684 356.585 185.501 356.962 186.38C357.779 188.139 358.469 189.96 359.035 191.907C359.537 193.854 359.851 195.864 359.726 198.063C359.663 198.628 359.6 199.131 359.474 199.696C359.349 200.261 359.223 200.764 359.035 201.329L358.721 202.146C358.595 202.397 358.407 202.648 358.281 202.899C358.155 203.151 358.03 203.402 357.841 203.59L357.276 204.218C355.706 205.914 353.696 206.856 351.749 207.359L350.995 207.547C350.744 207.61 350.492 207.61 350.241 207.673C349.739 207.736 349.236 207.799 348.797 207.861L347.352 207.924L346.598 207.987H345.844C342.013 207.924 338.244 207.233 334.664 206.354C334.35 206.291 334.099 205.914 334.224 205.6C334.287 205.286 334.601 205.098 334.915 205.098C338.558 205.475 342.264 205.726 345.844 205.475L346.535 205.412L347.163 205.286L348.483 205.098L349.739 204.784C349.927 204.721 350.178 204.721 350.367 204.658L350.932 204.47C352.502 203.904 353.884 203.088 354.764 201.957C355.643 200.826 356.02 199.445 356.02 197.874C356.02 196.304 355.643 194.671 355.141 193.038C354.638 191.405 353.947 189.772 353.131 188.264C352.754 187.511 352.314 186.694 351.874 185.94C351.435 185.187 350.932 184.37 350.493 183.742L350.43 183.679C349.739 182.674 350.053 181.292 351.058 180.664C352.126 180.036 353.507 180.35 354.136 181.292Z" fill="#DBA17B"/>
<path d="M343.271 165.087C343.271 165.087 342.894 169.358 339 171.242C339 171.242 340.822 168.102 340.822 165.966C340.822 163.768 343.585 163.579 343.271 165.087ZM357.466 280.659C357.718 280.408 357.78 279.968 357.529 279.654C357.341 279.403 356.838 278.712 356.461 278.21C356.273 277.958 355.959 278.021 355.833 278.272C354.326 280.973 352.002 283.046 349.05 283.297C348.045 283.863 347.417 285.307 347.542 285.872C347.605 285.998 348.861 286.124 350.243 285.37C356.587 282.292 357.466 280.659 357.466 280.659Z" fill="#0B4870"/>
<path opacity="0.4" d="M419.084 272.18C419.084 272.18 465.815 229.594 512.547 261.502C512.547 261.502 489.621 232.169 456.645 236.566C423.732 240.963 419.084 272.18 419.084 272.18Z" fill="#2A94F4"/>
<path opacity="0.4" d="M420.529 273.938C420.529 273.938 426.622 211.002 482.649 203.339C482.649 203.339 445.968 196.995 424.486 222.308C403.005 247.621 420.529 273.938 420.529 273.938Z" fill="#2A94F4"/>
<path d="M420.153 273.624C420.153 273.624 442.074 214.331 498.227 221.114C498.227 221.114 464.372 205.6 437.112 224.695C409.852 243.789 420.153 273.624 420.153 273.624Z" fill="#0B4870"/>
<path d="M399.986 273.499C399.986 280.094 405.325 285.433 411.92 285.433H430.324C436.919 285.433 442.258 280.094 442.258 273.499C442.258 266.904 436.919 261.565 430.324 261.565H411.92C405.325 261.565 399.986 266.904 399.986 273.499Z" fill="#FFBE55"/>
<path opacity="0.4" d="M93.9726 272.18C93.9726 272.18 47.2412 229.594 0.509766 261.502C0.509766 261.502 23.4358 232.169 56.4116 236.566C89.3874 240.963 93.9726 272.18 93.9726 272.18Z" fill="#2A94F4"/>
<path opacity="0.4" d="M92.5888 273.938C92.5888 273.938 86.4962 211.002 30.4688 203.339C30.4688 203.339 67.1504 196.995 88.6318 222.308C110.113 247.621 92.5888 273.938 92.5888 273.938Z" fill="#2A94F4"/>
<path d="M92.9686 273.624C92.9686 273.624 71.0476 214.331 14.8945 221.114C14.8945 221.114 48.7497 205.6 76.0096 224.695C103.27 243.789 92.9686 273.624 92.9686 273.624Z" fill="#0B4870"/>
<path d="M113.127 273.499C113.127 280.094 107.788 285.433 101.193 285.433H82.7896C76.1944 285.433 70.8555 280.094 70.8555 273.499C70.8555 266.904 76.1944 261.565 82.7896 261.565H101.193C107.788 261.565 113.127 266.904 113.127 273.499Z" fill="#FFBE55"/>
</svg>
