<svg width="460" height="469" viewBox="0 0 460 469" fill="none" xmlns="http://www.w3.org/2000/svg">
<path opacity="0.37" d="M40.3417 381.751C41.3424 384.227 42.4484 386.703 43.6597 389.073C61.6719 424.418 98.2228 446.7 137.197 450.703C168.375 453.863 198.712 443.697 224.782 427.105C250.799 410.565 271.656 387.282 300.57 375.167C341.334 358.153 386.786 344.721 418.755 308.691C455.095 267.763 469.105 205.712 451.988 153.353C435.345 102.258 380.097 85.7185 337.174 63.2264C260.016 22.7194 153.155 -4.1975 72.8373 43.3679C-23.3855 100.309 -5.90003 229.574 24.5942 319.279C31.5463 339.717 32.389 361.735 40.3417 381.751Z" fill="#FFD0CC"/>
<path d="M89.4281 139.552L89.2701 138.551H88.2695C68.7826 138.551 62.4626 132.283 62.4099 132.23L61.5673 131.282L60.7246 132.23C60.6719 132.283 54.4045 138.551 34.865 138.551H33.8643L33.7063 139.552C33.6537 139.868 29.5456 171.263 61.0406 187.381L61.5673 187.644L62.0939 187.381C93.6942 171.263 89.4281 139.868 89.4281 139.552ZM84.6881 158.989C80.7907 170.262 72.996 179.006 61.5146 185.011C50.0332 179.006 42.2384 170.262 38.3411 158.989C35.497 150.719 35.655 143.503 35.8657 140.922C52.0872 140.711 59.3026 136.392 61.5146 134.601C63.7266 136.339 70.942 140.711 87.1635 140.922C87.3741 143.556 87.5321 150.719 84.6881 158.989ZM120.344 99.2033L119.238 96.3062C118.237 96.2008 117.289 95.9375 116.341 95.6214L114.076 97.7284L107.546 93.0403L108.81 90.1959C108.178 89.4058 107.651 88.563 107.23 87.6675L104.122 87.5622L102.806 79.6083L105.702 78.5021C105.808 77.5013 106.071 76.5531 106.387 75.605L104.28 73.3399L108.968 66.7556L111.812 68.0198C112.602 67.3877 113.444 66.8609 114.34 66.4395L114.445 63.3317L122.398 62.0148L123.504 64.912C124.504 65.0173 125.452 65.2807 126.4 65.5967L128.665 63.4897L135.196 68.1778L133.932 71.0222C134.564 71.8124 135.091 72.6552 135.512 73.5506L138.619 73.656L139.936 81.6099L137.039 82.7161C136.881 83.7169 136.671 84.665 136.355 85.6132L138.461 87.8782L133.774 94.4626L130.93 93.1984C130.14 93.8305 129.297 94.3572 128.402 94.7786L128.296 97.8864L120.344 99.2033ZM115.814 93.093L116.446 93.3564C117.605 93.8305 118.869 94.0938 120.133 94.1992L120.818 94.2519L121.766 96.7276L126.137 95.9901L126.242 93.3564L126.874 93.093C128.033 92.5663 129.086 91.8815 130.087 91.0914L130.614 90.67L133.037 91.7761L135.617 88.1943L133.774 86.2453L134.037 85.6132C134.511 84.4543 134.775 83.1901 134.88 81.9259L134.933 81.2412L137.408 80.293L136.671 75.921L134.037 75.8157L133.774 75.1836C133.247 74.0247 132.563 72.9712 131.773 71.9704L131.351 71.4436L132.457 69.0206L128.876 66.4395L126.927 68.2305L126.295 67.9671C125.136 67.493 123.872 67.2296 122.608 67.1243L121.924 67.0716L120.976 64.5959L116.604 65.3334L116.499 67.9671L115.867 68.2305C114.708 68.7572 113.655 69.442 112.654 70.2321L112.128 70.6535L109.705 69.5473L107.124 73.1292L108.968 75.0782L108.704 75.7103C108.23 76.8692 107.967 78.1333 107.862 79.3975L107.809 80.0823L105.334 81.0305L106.071 85.4025L108.704 85.5078L108.968 86.1399C109.494 87.2988 110.179 88.3523 110.969 89.3531L111.39 89.8799L110.284 92.3029L113.866 94.884L115.814 93.093ZM121.292 89.4058C119.501 89.4058 117.71 88.8264 116.236 87.7729C112.286 84.9811 111.39 79.5029 114.182 75.5523C116.973 71.6017 122.45 70.7062 126.4 73.498C128.296 74.8675 129.56 76.8692 129.982 79.1869C130.35 81.5045 129.824 83.8222 128.507 85.7185C127.138 87.6148 125.136 88.879 122.819 89.3004C122.24 89.3531 121.766 89.4058 121.292 89.4058ZM121.292 74.0774C119.238 74.0774 117.236 75.0255 115.972 76.8165C114.972 78.2387 114.55 79.977 114.866 81.7152C115.182 83.4535 116.078 84.9284 117.5 85.9292C118.922 86.9301 120.66 87.3515 122.398 87.0354C124.136 86.7194 125.61 85.8239 126.611 84.4017C127.612 82.9794 128.033 81.2412 127.717 79.5029C127.401 77.7646 126.506 76.2897 125.084 75.2889C123.925 74.4988 122.608 74.0774 121.292 74.0774ZM372.83 185.063L370.355 178.584C367.721 178.268 365.088 177.689 362.612 176.793L357.556 181.534L343.863 171.789L346.707 165.468C345.074 163.414 343.652 161.149 342.494 158.726L335.594 158.515L332.803 141.923L339.281 139.447C339.597 136.813 340.176 134.179 341.072 131.704L336.332 126.647L346.075 112.951L352.395 115.796C354.449 114.163 356.714 112.741 359.136 111.582L359.347 104.681L375.937 101.89L378.413 108.369C381.046 108.685 383.679 109.264 386.155 110.16L391.211 105.419L404.904 115.164L402.06 121.485C403.693 123.539 405.115 125.804 406.273 128.227L413.173 128.438L415.964 145.03L409.486 147.506C409.17 150.14 408.591 152.774 407.696 155.249L412.436 160.306L402.692 174.002L396.372 171.157C394.318 172.79 392.053 174.212 389.631 175.371L389.42 182.272L372.83 185.063ZM361.875 173.422L362.718 173.738C365.509 174.792 368.458 175.477 371.461 175.74L372.409 175.845L374.673 181.745L386.471 179.743L386.681 173.422L387.524 173.054C390.263 171.842 392.843 170.209 395.161 168.26L395.845 167.681L401.639 170.262L408.591 160.517L404.272 155.881L404.588 155.039C405.641 152.247 406.326 149.297 406.589 146.295L406.642 145.347L412.541 143.082L410.54 131.282L404.219 131.072L403.851 130.229C402.639 127.49 401.007 124.909 399.058 122.591L398.479 121.906L401.059 116.112L391.316 109.159L386.681 113.478L385.839 113.162C383.047 112.109 380.098 111.424 377.096 111.161L376.148 111.108L373.883 105.208L362.086 107.21L361.875 113.531L361.032 113.9C358.294 115.111 355.713 116.744 353.396 118.693L352.711 119.272L346.918 116.691L340.071 126.436L344.39 131.072L344.074 131.914C343.02 134.706 342.336 137.656 342.072 140.658L342.02 141.607L336.121 143.872L338.122 155.671L344.442 155.881L344.811 156.724C346.022 159.463 347.655 162.044 349.604 164.362L350.183 165.047L347.602 170.841L357.346 177.794L361.875 173.422ZM374.305 162.571C370.46 162.571 366.615 161.412 363.244 159.042C354.66 152.932 352.658 140.974 358.768 132.388C364.877 123.802 376.833 121.801 385.417 127.911C394.002 134.021 396.003 145.979 389.894 154.565C386.155 159.779 380.256 162.571 374.305 162.571ZM374.357 127.332C369.301 127.332 364.298 129.702 361.19 134.127C358.662 137.656 357.714 141.923 358.399 146.189C359.136 150.456 361.454 154.143 364.982 156.672C372.251 161.834 382.363 160.148 387.524 152.879C389.999 149.35 391 145.083 390.315 140.816C389.578 136.55 387.261 132.863 383.732 130.334C380.835 128.28 377.57 127.332 374.357 127.332ZM116.394 303.582C113.866 296.471 110.969 288.464 114.182 280.247C118.5 269.185 109.336 263.496 101.278 258.387C94.3262 254.067 87.7955 249.959 90.0075 243.164C92.4302 235.789 92.2722 230.1 89.5335 226.361C87.2161 223.2 83.1081 221.514 77.6307 221.567C73.2593 221.62 69.362 216.247 65.2013 210.611C60.3032 203.974 55.2999 197.126 48.9798 198.654C47.8738 198.917 46.9785 199.549 46.4518 200.55C44.2398 204.711 47.7158 214.614 51.4552 225.149C55.4579 236.527 60.0399 249.379 57.0379 254.858C53.7725 260.863 59.6712 266.341 65.9386 272.188C72.5747 278.351 80.1061 285.356 78.1047 294.153C76.2087 302.37 75.7874 305.426 76.946 307.216C77.8414 308.639 79.6847 308.955 82.4761 309.481C84.3721 309.85 86.7948 310.272 89.7442 311.22C102.437 315.17 106.124 323.388 106.176 323.493L106.334 323.862L106.703 323.809C112.812 322.861 116.394 321.123 118.079 318.331C118.184 318.173 118.237 318.015 118.342 317.857C120.133 314.117 118.395 309.218 116.394 303.582Z" fill="#FF6355"/>
<path d="M83.95 287.885C86.0567 291.151 87.5841 293.995 87.4261 297.998C87.3207 301.738 86.7414 305.426 86.4254 309.113C86.3727 309.903 86.3201 310.64 86.2674 311.378C85.2141 310.482 84.2134 309.587 83.16 308.691C82.686 308.639 82.212 308.639 81.6854 308.639C83.16 309.85 84.6874 311.167 86.1621 312.484C86.0041 315.065 85.9514 317.646 85.9514 320.227C85.9514 321.755 85.8987 323.388 86.0041 324.915C84.6347 324.072 83.2127 323.23 81.896 322.387C77.788 319.858 73.9433 317.488 70.9939 316.224C68.7293 315.276 66.2012 314.433 63.7785 313.643C57.4585 311.589 50.9804 309.481 48.8211 305.004C47.7151 302.686 47.8204 299.895 49.1371 296.523C52.4551 287.832 49.3478 286.357 44.1337 283.829C40.3417 281.985 35.1803 279.509 30.0189 273.241C27.7542 270.502 25.7529 268.132 23.9622 266.077C18.6428 259.809 15.6935 256.385 16.0621 254.384C16.1675 253.909 16.4308 253.488 16.9575 253.067C17.2208 252.856 17.5368 252.645 17.9581 252.435C19.9595 251.328 21.9609 252.171 24.2255 253.119C27.2802 254.384 31.0196 256.016 36.2336 253.33C40.3417 251.223 44.9237 249.274 47.6624 250.854C49.5584 251.908 50.6644 254.647 51.0331 259.124C51.1384 260.547 51.6124 261.547 52.4024 262.127C53.5611 262.97 55.3518 262.864 57.4058 262.443C58.8278 264.392 60.6712 265.34 62.8832 266.13C65.9906 267.236 68.3079 268.237 70.5726 270.765C75.418 276.244 80.1053 281.827 83.95 287.885Z" fill="#2A75F4"/>
<path d="M67.1496 296.576C63.9896 294.469 61.2509 289.36 58.6176 284.408C55.0362 277.666 51.2968 270.713 46.1881 270.871C37.9721 271.082 30.6513 261.389 30.546 261.337L29.8613 261.863C30.1773 262.285 37.5507 271.977 46.1881 271.766C50.7702 271.661 54.4042 278.351 57.8276 284.882C60.5136 289.886 63.3049 295.101 66.623 297.366C68.6243 298.683 72.311 301.37 76.6824 304.793V303.687C72.8377 300.474 69.4143 298.051 67.1496 296.576Z" fill="white"/>
<path d="M344.705 361.84C344.705 361.84 349.445 350.041 340.807 333.291C332.117 316.54 325.113 319.121 346.021 306.216C366.93 293.31 346.127 252.751 363.928 247.588C381.73 242.426 397.161 176.741 410.697 185.116C424.232 193.491 406.167 225.676 415.858 235.368C425.496 245.06 426.813 257.333 406.852 267.289C386.891 277.244 421.019 315.276 393.948 326.864C366.878 338.453 374.672 383.911 344.705 361.84Z" fill="#FF6355"/>
<path d="M352.974 374.324C352.921 374.166 350.025 359.101 359.241 339.612C368.616 319.753 373.093 298.051 371.25 281.511C370.249 272.556 375.99 269.08 381.52 265.709C386.997 262.39 392.632 258.914 392.316 250.117C392.053 242.163 395.424 223.516 395.529 222.726L396.74 222.937C396.688 223.147 393.264 242.268 393.528 250.064C393.844 259.598 387.892 263.233 382.152 266.709C376.674 270.028 371.566 273.188 372.461 281.353C374.357 298.051 369.828 320.016 360.347 340.086C351.341 359.207 354.133 373.903 354.185 374.061L352.974 374.324Z" fill="white"/>
<path d="M424.864 276.454C432.396 272.872 440.401 274.505 436.24 282.038C432.08 289.57 425.865 290.15 427.023 296.102C428.182 302.054 431.237 308.533 421.441 312.326C411.645 316.066 407.063 315.434 401.111 326.443C395.107 337.452 393.053 345.616 382.783 342.983C372.513 340.296 381.045 326.759 386.365 321.07C386.365 321.07 393.58 314.96 393.475 303.951C393.369 292.942 388.84 285.567 403.06 286.305C417.28 286.937 419.755 278.877 424.864 276.454Z" fill="#0E3D8C"/>
<path d="M381.151 350.673C381.572 349.251 391.473 315.17 399.584 311.483C407.853 307.691 412.33 297.788 414.278 292.257C416.806 285.04 427.603 283.618 428.024 283.565L428.182 284.777C428.077 284.777 417.702 286.147 415.437 292.626C413.014 299.631 408.379 308.797 400.111 312.589C392.527 316.066 382.467 350.673 382.362 351.042L381.151 350.673ZM120.29 323.23C104.069 319.174 103.858 310.43 103.648 302.002C103.49 295.101 103.332 288.57 94.5362 284.566C82.8967 279.246 82.6334 269.396 82.3701 260.705C82.1594 254.226 82.0014 248.115 77.156 244.797C65.5166 236.843 55.6678 217.564 55.5625 217.353L56.4578 216.879C56.5632 217.09 66.2539 236.105 77.7353 243.954C83.0021 247.536 83.2127 253.909 83.3707 260.652C83.6341 269.449 83.8974 278.614 94.9575 283.618C104.28 287.885 104.49 295.049 104.648 301.949C104.859 310.377 105.07 318.384 120.554 322.229L120.29 323.23Z" fill="white"/>
<path d="M98.4336 315.434H364.876V123.065C364.876 120.326 362.664 118.061 359.873 118.061H103.437C100.698 118.061 98.4336 120.273 98.4336 123.065V315.434Z" fill="#F7F7F7"/>
<path d="M354.959 279.57L107.845 279.57L107.845 127.708L354.959 127.708V279.57Z" fill="#0E2B5C" stroke="white" stroke-width="0.5" stroke-miterlimit="10"/>
<path d="M364.876 286.937H98.5389L69.3613 395.921H394.001L364.876 286.937Z" fill="#F2F2F2"/>
<path d="M108.598 306.058H124.978C125.662 306.058 126.189 306.584 126.031 307.164L124.451 314.275C124.346 314.696 123.924 315.012 123.398 315.012H106.755C106.07 315.012 105.544 314.486 105.702 313.854L107.545 306.742C107.65 306.374 108.072 306.058 108.598 306.058ZM132.456 306.058H144.833L143.201 315.065H130.56L132.456 306.058ZM150.995 306.058H163.372L162.108 315.065H149.468L150.995 306.058ZM169.587 306.058H181.964L181.016 315.065H168.375L169.587 306.058ZM188.126 306.058H200.502L199.923 315.065H187.283L188.126 306.058ZM206.664 306.058H219.041L218.831 315.065H206.19L206.664 306.058ZM355.186 306.058H336.594L338.596 315.065H357.503L355.186 306.058ZM330.432 306.058H318.055L319.688 315.065H332.328L330.432 306.058ZM311.893 306.058H299.517L300.781 315.065H313.421L311.893 306.058ZM293.302 306.058H280.925L281.873 315.065H294.513L293.302 306.058ZM274.763 306.058H262.386L262.966 315.065H275.606L274.763 306.058ZM256.224 306.058H243.847L244.058 315.065H256.698L256.224 306.058ZM225.256 306.058H237.633L237.791 315.065H225.256V306.058ZM103.174 321.755H128.98L127.506 331.026H101.172L103.174 321.755ZM359.188 321.755H327.272L329.063 331.026H361.664L359.188 321.755ZM320.847 321.755H308.101L309.523 331.026H322.585L320.847 321.755ZM301.676 321.755H288.93L289.984 331.026H303.045L301.676 321.755ZM282.505 321.755H269.76L270.497 331.026H283.506L282.505 321.755ZM263.334 321.755H250.589L250.957 331.026H263.966L263.334 321.755ZM99.2762 338.242H125.715L123.766 347.46H96.8535L99.2762 338.242ZM132.298 338.242H145.518L143.991 347.46H130.508L132.298 338.242ZM152.154 338.242H251.221L251.589 347.46H150.679L152.154 338.242ZM257.857 338.242H271.076L271.814 347.46H258.331L257.857 338.242ZM277.66 338.242H290.879L291.985 347.46H278.502L277.66 338.242ZM297.515 338.242H310.735L312.157 347.46H298.727L297.515 338.242ZM317.318 338.242H330.537L332.328 347.46H318.898L317.318 338.242ZM337.121 338.242H363.56L365.982 347.46H339.07L337.121 338.242ZM244.216 321.755H231.523V331.026H244.427L244.216 321.755ZM225.045 321.755H212.247L211.878 331.026H224.94L225.045 321.755ZM205.874 321.755H193.076L192.339 331.026H205.4L205.874 321.755ZM186.704 321.755H173.905L172.799 331.026H185.861L186.704 321.755ZM167.533 321.755H154.735L153.26 331.026H166.321L167.533 321.755ZM148.362 321.755H135.564L133.773 331.026H146.782L148.362 321.755ZM109.178 300.421L111.284 292.415H117.288L115.34 300.421H109.178ZM123.292 292.415H135.301L133.668 300.421H121.396L123.292 292.415ZM141.357 292.415H153.365L151.996 300.421H139.777L141.357 292.415ZM159.369 292.415H171.377L170.324 300.421H158.105L159.369 292.415ZM177.382 292.415H189.39L188.652 300.421H176.434L177.382 292.415ZM195.394 292.415H207.402L206.98 300.421H194.762L195.394 292.415ZM213.406 292.415H225.414L225.309 300.421H213.09L213.406 292.415ZM231.418 292.415H243.426L243.637 300.421H231.418V292.415ZM249.43 292.415H261.438L261.965 300.421H249.746L249.43 292.415ZM267.442 292.415H279.503L280.293 300.421H268.074L267.442 292.415ZM285.507 292.415H297.515L298.674 300.421H286.455L285.507 292.415ZM303.519 292.415H315.527L317.002 300.421H304.783L303.519 292.415ZM321.531 292.415H333.539L335.33 300.421H323.111L321.531 292.415ZM339.544 292.415H351.552L353.658 300.421H341.44L339.544 292.415Z" fill="#0E2B5C" stroke="white" stroke-width="0.5" stroke-miterlimit="10"/>
<path d="M385.522 404.402H77.8407C73.1534 404.402 69.3613 400.609 69.3613 395.921H394.001C394.001 400.609 390.209 404.402 385.522 404.402ZM269.444 360.681C269.128 358.785 267.442 357.363 265.546 357.363H197.869C195.92 357.363 194.288 358.785 193.972 360.681L189.758 386.229C189.337 388.652 191.233 390.864 193.656 390.864H269.707C272.182 390.864 274.026 388.652 273.604 386.229L269.444 360.681Z" fill="#D3D3D3"/>
<path d="M124.504 140.606H152.049V143.45H124.504V140.606ZM159.791 161.834H179.646V164.678H159.791V161.834ZM182.754 161.834H195.92V164.678H182.754V161.834ZM124.82 215.246H137.987V218.091H124.82V215.246ZM198.554 161.834H230.417V164.678H198.554V161.834ZM124.82 204.553H145.307V207.398H124.82V204.553ZM153.365 225.834H165.848V228.678H153.365V225.834ZM124.82 225.834H149.573V228.678H124.82V225.834ZM124.82 236.474H138.461V239.319H124.82V236.474ZM157.421 140.606H176.96V143.45H157.421V140.606ZM157.421 172.474H176.96V175.319H157.421V172.474ZM147.625 183.062H155.999V185.906H147.625V183.062ZM139.303 193.86H158.053V196.705H139.303V193.86ZM160.897 193.86H186.809V196.705H160.897V193.86ZM124.82 183.167H144.359V186.012H124.82V183.167ZM124.82 193.86H136.407V196.705H124.82V193.86ZM159.949 183.167H170.904V186.012H159.949V183.167ZM125.189 247.062H136.143V249.906H125.189V247.062ZM124.767 161.834H144.307V164.678H124.767V161.834ZM142.042 215.246H161.582V218.091H142.042V215.246ZM142.305 236.474H161.845V239.319H142.305V236.474ZM177.013 236.474H196.553V239.319H177.013V236.474ZM124.767 172.474H152.628V175.319H124.767V172.474ZM255.329 140.606H274.869V143.45H255.329V140.606ZM185.703 247.062H205.243V249.906H185.703V247.062ZM280.925 140.606H293.987V143.45H280.925V140.606ZM325.218 151.246H338.28V154.091H325.218V151.246ZM182.227 140.606H207.139V143.45H182.227V140.606ZM279.24 151.246H304.151V154.091H279.24V151.246ZM248.693 161.834H273.604V164.678H248.693V161.834ZM216.303 172.474H241.214V175.319H216.303V172.474ZM276.712 161.834H294.408V164.678H276.712V161.834ZM225.519 140.606H250.431V143.45H225.519V140.606ZM197.132 172.474H211.721V175.319H197.132V172.474ZM185.703 215.404H200.292V218.249H185.703V215.404ZM211.721 140.606H220.832V143.45H211.721V140.606ZM182.227 172.474H191.338V175.319H182.227V172.474ZM310.155 151.246H319.267V154.091H310.155V151.246ZM124.504 151.246H138.777V154.091H124.504V151.246ZM162.582 204.606H173.853V207.45H162.582V204.606ZM142.305 151.246H146.887V154.091H142.305V151.246ZM236.79 151.246H274.869V154.091H236.79V151.246ZM200.292 236.474H238.37V239.319H200.292V236.474ZM150.258 151.246H154.945V154.091H150.258V151.246ZM220.832 151.246H233.261V154.091H220.832V151.246ZM233.314 161.834H245.744V164.678H233.314V161.834ZM169.271 247.062H181.7V249.906H169.271V247.062ZM191.075 151.246H217.567V154.091H191.075V151.246ZM166.374 215.404H181.858V218.249H166.374V215.404ZM165.426 236.474H173.168V239.319H165.426V236.474ZM178.172 151.246H187.283V154.091H178.172V151.246ZM147.519 161.834H156.631V164.678H147.519V161.834ZM149.31 204.606H158.422V207.45H149.31V204.606ZM158.843 151.246H174.748V154.091H158.843V151.246Z" fill="#F7F7F7"/>
<path d="M292.196 172.579C292.196 172.579 296.831 180.428 298.78 181.692C301.413 183.43 299.78 185.169 298.516 185.221C297.252 185.221 290.827 185.695 289.405 184.063C287.983 182.43 287.298 177.636 285.982 176.372C284.665 175.108 283.296 170.104 286.614 168.892C289.51 167.786 292.196 172.579 292.196 172.579Z" fill="#FF5E50"/>
<path d="M290.142 169.156C290.142 169.156 295.462 178.374 296.357 179.691C297.252 181.06 294.619 181.06 292.986 180.428C291.354 179.796 287.246 173.212 286.666 172C285.982 170.578 286.561 168.945 286.561 168.945L290.142 169.156Z" fill="#FFCECA"/>
<path d="M284.77 174.054L286.034 183.483L286.666 183.536L286.455 176.741L284.77 174.054ZM246.217 172.579C246.217 172.579 250.852 180.428 252.801 181.692C255.434 183.43 253.802 185.169 252.537 185.221C251.273 185.221 244.848 185.696 243.426 184.063C242.004 182.43 241.319 177.636 240.003 176.372C238.686 175.108 237.264 169.946 240.635 168.892C243.584 167.944 246.217 172.579 246.217 172.579Z" fill="#FF5E50"/>
<path d="M244.48 169.156C244.48 169.156 249.483 178.321 250.431 179.691C251.327 181.06 248.693 181.06 247.061 180.428C245.428 179.796 241.32 173.212 240.74 172C240.056 170.578 240.635 168.945 240.635 168.945L244.48 169.156Z" fill="#FFCECA"/>
<path d="M238.844 174.054L240.055 183.483L240.74 183.536L240.529 176.741L238.844 174.054Z" fill="#FF5E50"/>
<path d="M225.678 101.1L267.601 120.221C267.601 120.221 272.288 121.748 272.815 126.963C274.447 143.187 286.561 168.892 286.561 168.892C290.458 170.788 290.142 169.156 290.142 169.156C287.667 161.254 284.718 128.807 283.612 115.796C283.401 113.057 283.243 111.161 283.19 110.528C283.19 110.107 282.716 109.58 281.926 108.948C276.185 104.26 252.485 94.6206 252.485 94.6206C234.842 94.1465 225.678 101.1 225.678 101.1Z" fill="#FFCECA"/>
<path d="M217.776 109.317C219.093 120.642 235.262 119.378 235.262 119.378H254.854C254.854 119.378 249.693 130.861 247.691 140.5C245.585 150.772 240.581 168.892 240.581 168.892C240.581 168.892 240.897 169.524 244.479 169.156C244.479 169.156 259.857 138.499 265.756 130.756C267.02 129.123 270.654 120.063 271.286 114.69C271.497 112.899 271.392 111.477 270.707 110.897C270.022 110.318 268.442 109.264 266.388 107.947C260.226 104.049 249.587 98.0971 243.636 96.7802C235.683 94.9893 223.096 91.6181 223.096 91.6181C223.096 91.6181 216.46 97.9918 217.776 109.317Z" fill="#FFCECA"/>
<path d="M231.102 21.9819C231.102 21.9819 228.153 16.3984 229.575 10.4988C230.997 4.54652 236.527 -1.35307 244.585 1.38603C252.643 4.12512 259.174 10.3408 254.329 17.6099C249.483 24.8264 258.7 28.1449 256.33 31.5687C253.96 34.9926 254.855 38.6272 255.856 39.4173C256.857 40.2074 260.069 43.0519 259.701 46.4757C259.332 49.8469 244.058 36.6255 244.058 36.6255C244.058 36.6255 235.79 19.8222 231.102 21.9819Z" fill="#0E3D8C"/>
<path d="M255.697 93.1984C255.697 93.1984 254.485 99.098 223.148 91.6708C223.148 91.6708 233.629 88.1943 255.697 93.1984Z" fill="#FC5546"/>
<path d="M222.781 93.3037C222.307 94.2519 221.833 95.1473 221.306 96.0955C232.735 96.4115 244.216 96.7803 255.645 97.0963C253.855 91.0387 254.434 82.8214 254.75 76.6058C255.119 68.9679 259.332 63.7004 258.911 56.0099C261.175 56.3786 261.544 56.4313 263.809 56.8C260.333 46.8971 259.174 41.9984 248.377 38.2058C244.848 36.9416 242.584 36.7309 238.792 37.0469C226.31 38.1004 222.57 38.2058 216.408 49.5309C225.994 51.0584 224.414 54.4823 227.31 64.0691C228.732 68.7045 230.207 73.9194 229.47 78.8181C228.732 83.6115 222.781 88.9317 222.781 93.3037Z" fill="white"/>
<path d="M242.69 40.5761C237.581 39.628 238.687 36.7835 238.687 36.7835C238.687 36.7835 238.898 35.2033 239.003 33.149C239.003 32.6222 239.056 32.0955 239.056 31.516C239.056 30.6732 239.003 29.8304 238.898 28.9876C238.476 25.5638 248.167 27.6181 248.167 27.6181C248.167 27.6181 247.588 34.5712 248.957 36.6255C250.274 38.7325 247.798 41.5769 242.69 40.5761Z" fill="#FFCECA"/>
<path d="M232.945 36.7835C232.945 36.7835 243.267 48.6881 247.059 51.4272C247.059 51.4272 251.431 47.4765 248.745 37.0469C248.745 37.0469 243.794 34.5185 232.945 36.7835ZM233.261 8.12838C233.261 8.12838 227.889 18.4527 233.208 28.1975C238.527 37.9424 248.955 23.9309 249.587 22.2979C250.272 20.665 253.854 11.3416 246.743 8.54978C239.633 5.70534 234.788 5.33662 233.261 8.12838Z" fill="#FFCECA"/>
<path d="M243.584 29.251C243.584 29.251 242.636 31.3054 239.002 33.149C239.002 32.6222 239.055 32.0955 239.055 31.5161C239.055 31.5161 241.53 31.2527 243.584 29.251Z" fill="#FCB7B1"/>
<path d="M189.495 84.0329C189.495 84.0329 186.967 85.1391 185.756 84.665C184.544 84.1383 182.701 84.0329 182.122 84.0329C181.332 84.0329 178.856 83.1375 178.909 84.1383C178.962 85.0864 182.912 85.7712 183.702 86.0873C184.492 86.4033 181.279 88.1416 180.963 88.9317C180.647 89.7218 184.334 94.884 186.388 93.4091C188.442 91.9342 189.548 88.9844 189.969 88.7737C190.39 88.563 191.496 87.7729 191.496 87.7729L189.495 84.0329Z" fill="#FFCECA"/>
<path d="M181.383 88.4576C181.383 88.4576 175.432 93.4091 175.327 94.0939C175.221 94.7786 175.537 95.0947 176.117 94.6206C176.696 94.1992 182.015 89.9852 182.015 89.9852C182.015 89.9852 176.064 97.0437 175.853 97.5704C175.748 97.8865 176.327 98.5186 176.643 98.3079C176.959 98.0972 183.332 91.4601 183.332 91.4601C183.332 91.4601 177.749 98.0445 177.749 98.5712C177.697 98.9926 178.381 99.4667 178.855 98.9926C179.329 98.5185 184.859 92.7243 184.859 92.7243C184.859 92.7243 181.12 97.7811 181.383 98.2552C181.541 98.5186 182.015 99.098 182.911 97.7811C183.806 96.4642 186.334 93.5144 186.334 93.5144L181.383 88.4576Z" fill="#FFCECA"/>
<path d="M252.8 119.325H235.262C235.262 119.325 219.093 120.642 217.776 109.264C216.46 97.9391 223.096 91.6181 223.096 91.6181C223.096 91.6181 231.628 93.8831 239.107 95.6741C242.846 94.884 247.323 94.3572 252.589 94.5152C252.589 94.5152 284.19 104.945 283.242 110.476C283.242 110.528 270.022 103.47 252.8 119.325Z" fill="#0E3D8C"/>
<path d="M241.371 99.7301L274.867 99.2033L257.961 107.789L241.371 99.7301Z" fill="#F2F2F2"/>
<path d="M251.8 95.4107C251.8 95.4107 244.269 98.3078 235.052 95.6741L234.631 92.2502L253.644 93.3037L251.8 95.4107Z" fill="white"/>
<path d="M257.961 107.789L241.371 101.363V99.7301L259.278 106.156L257.961 107.789Z" fill="#D3D3D3"/>
<path d="M251.643 97.0437C251.537 98.2552 252.801 99.1507 253.96 98.6766L255.909 97.8338C256.488 97.5704 256.857 96.991 256.751 96.3589C255.961 91.3021 254.223 71.6017 256.751 68.1778C257.699 66.9136 258.279 65.8075 258.595 64.8593C260.28 69.1787 262.334 74.7622 263.177 77.7647L278.977 98.8346L284.296 100.204C277.66 84.2437 272.341 75.8157 272.341 75.8157C271.287 73.0239 268.338 64.5959 265.705 57.1161C264.019 52.3754 262.545 48.0033 261.702 45.6856C261.281 44.4741 260.491 43.4733 259.385 42.8412C256.909 41.3663 252.854 39.0486 249.167 37.2577H249.115C249.009 37.205 248.904 37.1523 248.746 37.0996C255.803 47.6873 253.065 77.7647 251.643 97.0437C251.643 96.991 251.643 96.991 251.643 97.0437ZM225.52 37.9424C223.255 38.3112 217.672 43.7367 214.723 49.2149C211.352 55.4832 207.876 62.5943 205.295 64.912C200.555 69.2313 187.231 84.4544 186.599 84.0856C186.335 83.9276 190.233 88.6157 190.759 88.8264C191.023 88.9317 212.616 70.1795 214.723 67.335C216.672 64.6486 221.938 53.2708 223.518 53.5342C223.624 53.7976 225.572 57.9589 227.363 64.0165C227.416 64.1219 227.416 64.2272 227.468 64.3326C228.732 68.5466 228.627 73.1819 227.942 78.3441C227.416 82.242 224.519 88.6157 222.781 91.7235C222.57 92.0922 222.623 92.8297 222.834 93.3564C222.992 93.6725 223.15 93.9359 223.413 94.0412L229.786 96.4116L231.26 96.9383C232.314 97.3597 233.472 97.149 234.315 96.5169C235 96.0428 235.526 95.2527 235.632 94.3046C237.054 83.4535 238.844 72.3391 240.266 68.1778C246.534 49.847 237.844 36.0461 237.844 36.0461C237.844 36.0461 227.521 37.205 225.52 37.9424Z" fill="#FF6355"/>
<path d="M257.963 107.789L267.917 80.6091L299.991 81.1358L290.511 106.209L257.963 107.789Z" fill="#FF6355"/>
<path d="M278.187 92.619C277.187 94.5679 277.503 96.7276 278.872 97.3597C280.241 98.0445 282.085 96.991 283.085 95.042C284.086 93.093 283.77 90.9333 282.401 90.3013C281.031 89.6165 279.135 90.67 278.187 92.619Z" fill="#F2F0F0"/>
<path d="M258.699 41.2609C256.329 37.679 254.643 34.8346 254.433 29.7251C254.275 26.3539 253.537 21.7712 251.22 19.5062C253.643 13.1852 250.799 11.2889 249.64 9.23459C248.218 6.65352 237.684 0.43788 233.524 6.96957C229.363 13.4486 230.838 20.2436 230.838 20.2436C231.259 16.6617 234.946 11.8157 234.946 11.8157C235.525 15.5556 243.267 21.6659 246.638 24.1416C246.585 24.1943 246.533 24.2996 246.533 24.3523C244.637 27.0914 247.006 29.8305 247.428 32.7276C247.849 35.6247 239.475 43.4206 248.797 47.3185C258.119 51.2692 261.069 44.7901 258.699 41.2609ZM89.1632 348.092C89.1632 348.092 88.9525 350.305 78.6298 350.305C68.307 350.305 53.2969 347.618 53.2969 347.618L77.2604 345.3C77.2604 345.3 86.4772 344.826 89.1632 348.092Z" fill="#0E3D8C"/>
<path d="M62.8835 348.882C57.0374 348.882 54.562 351.885 52.2447 352.833C49.9273 353.781 47.61 355.203 47.61 355.151C48.9267 352.57 50.77 352.517 51.718 351.674C52.666 350.831 52.4027 351.253 50.3487 351.095C49.19 350.989 47.0833 353.149 45.6086 354.361C44.292 355.361 43.502 355.467 43.502 355.467C43.502 355.467 45.0293 353.307 46.9253 351.569C49.2427 349.462 52.1394 347.723 52.824 347.407C54.088 346.881 57.9854 346.775 60.7241 347.144C63.8841 347.565 67.0968 348.882 62.8835 348.882Z" fill="#0E3D8C"/>
<path d="M53.1928 347.513C53.1928 347.513 48.7161 348.672 47.9261 349.304C47.3994 349.725 45.082 352.201 45.082 352.201C45.082 352.201 46.7674 351.937 47.7154 350.989C48.7161 349.988 53.1928 347.513 53.1928 347.513ZM80.685 343.562C80.685 343.562 91.9558 344.3 91.1658 351.253C90.7444 355.203 88.1637 356.573 84.7404 356.257C78.4203 355.73 71.2576 354.782 71.2576 354.782L68.0449 343.984L80.685 343.562Z" fill="#0E3D8C"/>
<path d="M83.0542 344.51L94.1143 308.849C94.1143 308.849 95.747 303.635 98.433 304.583C102.278 306.005 100.382 310.272 100.066 312.8C99.381 317.962 99.855 320.227 96.2737 332.658C94.0617 340.349 92.1657 349.198 90.2696 354.255C88.953 357.732 86.6883 352.728 83.2649 351.358C76.8395 348.777 83.0542 344.51 83.0542 344.51ZM83.8969 289.465C86.0563 295.681 92.745 298.894 98.907 296.629C105.016 294.364 108.282 287.463 106.122 281.248C103.963 275.032 97.2744 271.819 91.1123 274.084C85.0029 276.349 81.7376 283.249 83.8969 289.465Z" fill="#0E3D8C"/>
<path d="M71.7849 290.044C75.1556 295.101 81.897 296.365 86.7951 292.889L86.1104 286.937C91.0084 283.407 92.2198 276.454 88.8491 271.398L86.5317 267.974C83.161 262.917 76.4196 261.653 71.5216 265.129L69.3096 266.709C64.4115 270.239 63.2002 277.192 66.5709 282.249L71.7849 290.044Z" fill="#0E3D8C"/>
<path d="M67.3601 273.452C67.9394 274.295 68.5714 275.085 69.3088 275.875C74.1541 281.142 80.6322 283.144 84.7402 280.984C86.6363 283.565 88.7956 285.62 90.7443 287.2C93.009 289.044 98.8024 289.781 98.8024 289.781C102.173 293.468 89.5329 315.012 88.6376 314.907C86.7943 314.749 84.4242 302.844 86.1622 298.525C86.9523 296.576 88.2163 294.258 87.8476 293.205C86.5309 289.57 84.6876 290.202 84.6876 290.202C84.6876 290.202 82.2649 293.047 80.3689 292.942C78.4202 292.784 75.0495 289.728 74.8915 289.676C74.3121 289.202 73.7855 288.622 73.3115 287.937L68.2554 280.352C66.9388 278.245 66.6228 275.717 67.3601 273.452Z" fill="#FFCECA"/>
<path d="M106.018 364.211C106.018 364.211 101.91 369.162 100.646 369.689C98.9604 370.426 93.7991 368.846 93.7991 368.846C93.7991 368.846 92.4297 346.143 90.8497 337.294C89.2697 328.444 86.9523 326.127 86.847 323.335C86.689 318.858 82.9496 317.067 83.5816 313.59C84.2136 310.114 85.3197 297.682 85.6883 299.315C88.901 313.432 92.851 301.686 93.7464 299.842C94.2204 298.841 106.018 364.211 106.018 364.211Z" fill="#F2F0F0"/>
<path d="M87.3216 295.101C87.3216 295.101 82.3182 300.579 82.6869 302.739C83.0029 304.899 80.5275 311.641 83.0029 321.017C85.7942 331.71 87.2689 338.979 87.7956 345.985C88.3223 352.991 85.9522 359.417 86.9002 368.003C87.6376 374.746 89.1649 375.114 89.1649 375.114C89.1649 375.114 92.167 375.852 94.2736 373.218C96.3803 370.637 93.2203 347.671 92.167 341.982C91.1136 336.24 87.7429 322.861 86.8476 318.91C85.7416 314.064 85.9522 309.113 86.0049 307.691C86.2682 302.686 86.9002 299.579 87.4269 297.682C87.4796 297.419 87.7429 294.469 87.3216 295.101ZM96.0643 301.528C98.803 309.429 107.335 313.485 115.13 310.588C122.925 307.691 127.033 298.947 124.294 291.045C121.555 283.144 113.023 279.088 105.228 281.985C97.4337 284.83 93.3256 293.626 96.0643 301.528Z" fill="#0E3D8C"/>
<path d="M69.2569 437.323L72.0483 459.605L59.9348 465.347L53.2461 466.821L65.1489 457.603L61.2515 437.482L69.2569 437.323Z" fill="#FCA9A2"/>
<path d="M72.8375 462.976L70.2042 463.661L68.4135 462.028L58.7227 466.874L50.138 468.928C50.138 468.928 50.0327 468.244 50.296 467.875C51.3493 466.453 57.4061 463.345 57.4061 463.345C57.4061 463.345 57.5114 465.399 58.3541 465.452C59.1967 465.505 66.6228 461.607 68.3608 460.553C71.3102 458.709 71.8895 457.498 72.1002 457.656C72.7322 457.972 72.8375 462.976 72.8375 462.976Z" fill="#0E3D8C"/>
<path d="M40.0248 406.351L30.3867 425.314L17.1146 424.681L10.4785 422.733L25.1726 420.257L33.178 404.033L40.0248 406.351Z" fill="#FCA9A2"/>
<path d="M29.5982 428.685L26.9648 428.053L26.1221 425.735L14.1667 425.577L7.05664 423.891C7.05664 423.891 7.89932 422.943 8.42599 422.68C10.006 421.995 15.6414 421.679 15.6414 421.679C15.6414 421.679 15.062 423.312 15.7994 423.733C16.5367 424.207 24.7528 424.471 26.7541 424.313C30.2302 424.049 31.2308 423.312 31.3362 423.523C31.7049 424.26 29.5982 428.685 29.5982 428.685Z" fill="#0E3D8C"/>
<path d="M110.336 349.62L103.174 352.833L103.226 362.683L53.8771 354.624C53.8771 354.624 49.1898 353.096 46.1877 360.84C41.9217 371.796 31.0723 405.877 31.0723 405.877L37.919 413.304L59.4598 374.798C59.4598 374.798 103.595 396.237 118.131 391.602C123.714 389.811 127.98 379.592 127.19 369.268C126.558 361.156 124.978 353.728 124.978 353.728L110.336 349.62Z" fill="#FF5E50"/>
<path d="M104.068 391.391L68.7288 388.757L71.7835 445.225L61.3554 445.593L53.666 379.434C53.666 379.434 55.72 369.584 62.4614 371.058C69.2555 372.586 85.5823 385.544 104.068 391.391Z" fill="#FF5E50"/>
<path d="M127.874 405.561C127.874 405.561 109.336 384.754 104.543 373.007C98.8022 358.943 99.2762 341.297 98.2228 335.45C96.2742 324.705 93.9041 303.845 93.4828 301.264C93.0088 298.683 94.6415 295.786 94.6415 295.786C94.6415 295.786 93.4301 287.99 96.9062 288.833C101.91 290.044 106.86 292.784 108.598 293.626C111.864 295.101 118.552 334.397 118.921 336.293C120.29 343.141 125.294 349.356 128.875 355.73C137.302 370.848 139.461 388.705 139.461 388.705C139.461 388.705 138.408 401.768 127.874 405.561Z" fill="#2A75F4"/>
<path d="M108.756 351.147C108.756 351.147 108.598 353.676 96.8008 353.096C85.0033 352.464 67.7285 348.514 67.7285 348.514L95.0627 347.249C95.0627 347.249 105.543 347.302 108.756 351.147Z" fill="#FFCECA"/>
<path d="M76.9976 349.883C71.3622 349.778 68.9395 352.675 66.7275 353.57C64.5155 354.466 62.2508 355.783 62.2508 355.783C63.5148 353.307 65.3055 353.254 66.2535 352.464C67.1489 351.674 66.9382 352.096 64.9368 351.885C63.7782 351.779 61.7768 353.834 60.3548 354.993C59.0908 355.993 58.3008 356.046 58.3008 356.046C58.3008 356.046 59.7755 353.939 61.6188 352.254C63.8835 350.252 66.6222 348.566 67.3069 348.303C68.5182 347.829 72.2576 347.776 74.9436 348.198C77.9456 348.619 81.053 349.989 76.9976 349.883Z" fill="#FFCECA"/>
<path d="M67.5701 348.356C67.5701 348.356 63.2514 349.409 62.5141 349.989C61.9874 350.41 59.7754 352.78 59.7754 352.78C59.7754 352.78 61.3554 352.517 62.3034 351.621C63.2514 350.779 67.5701 348.356 67.5701 348.356Z" fill="#FFCECA"/>
<path d="M99.3281 348.356L116.814 339.137C116.814 339.137 116.866 350.305 116.972 354.571C117.077 358.838 118.868 364.843 115.497 365.738C112.126 366.634 110.388 366.16 113.864 368.214C117.34 370.216 116.55 372.323 115.234 374.061C113.917 375.799 119.658 393.498 118.288 394.499C112.864 387.651 107.018 379.17 104.49 373.007C101.277 365.001 100.013 355.835 99.3281 348.356Z" fill="#0E3D8C"/>
<path d="M104.965 343.878L104.28 308.27C104.28 308.27 104.333 297.156 104.544 293.89C104.754 290.519 110.495 294.469 110.495 294.469C110.495 294.469 118.553 305.373 118.711 331.658C118.817 349.251 117.869 358.416 109.758 357.679C102.226 356.994 93.6417 355.835 93.6417 355.835L89.9023 346.091L104.965 343.878Z" fill="#2A75F4"/>
<path d="M103.173 362.683L42.9746 355.151L43.1326 353.886L103.331 361.419L103.173 362.683Z" fill="#D3D3D3"/>
<path d="M76.7875 358.048C76.6821 359.049 75.8921 359.786 75.0494 359.681L44.1865 355.835C43.3438 355.73 42.2905 354.94 41.5532 352.306L29.6504 321.491C29.8084 320.227 30.8091 319.595 31.6517 319.911L63.1993 324.863C64.042 325.179 64.6214 325.916 64.9374 327.286L76.7875 358.048Z" fill="#D3D3D3"/>
<path d="M72.8891 358.891L73.2051 358.943L103.331 362.736C102.172 363.21 100.329 363.368 98.2747 363.105L73.0471 359.944L72.7311 359.891L47.5036 356.731C45.4496 356.468 43.7115 355.835 42.6582 355.151L72.8891 358.891Z" fill="#D3D3D3"/>
<path d="M104.964 343.878L104.279 308.27C104.279 308.27 104.806 305.268 105.859 302.581C106.123 306.479 107.913 334.555 108.124 338.242C108.387 342.245 111.653 342.667 112.337 343.984C113.075 345.248 112.443 345.511 110.02 345.037C107.65 344.51 108.493 344.932 109.019 346.196C109.546 347.513 108.229 347.144 103.595 345.458C100.224 344.247 93.7458 345.458 90.4805 346.196L104.964 343.878Z" fill="#0E3D8C"/>
<path d="M313.105 256.491C307.312 258.018 296.62 263.391 294.355 272.609C290.985 286.463 297.726 306.742 287.087 326.653C283.664 332.974 345.916 341.508 345.916 341.508L357.925 271.556C357.925 271.556 342.914 256.385 339.86 255.332C333.487 253.225 324.692 253.435 313.105 256.491Z" fill="#FFD0CC"/>
<path d="M357.978 271.608C360.137 277.192 365.614 310.43 359.505 318.278C358.82 319.174 362.665 320.596 361.98 324.705C361.875 325.389 360.716 328.708 360.716 328.708L355.766 330.025L344.969 317.541C344.969 317.541 349.34 310.746 355.081 284.988C356.766 277.402 357.504 270.344 357.978 271.608Z" fill="#2A75F4"/>
<path d="M317.108 311.325C317.108 311.325 322.322 325.073 334.909 328.761C337.069 329.393 338.438 331.816 337.385 332.606C336.015 333.607 334.225 333.817 331.065 333.817C324.481 333.817 315.528 331.71 309.366 325.495C300.202 316.329 297.305 312.115 298.253 307.533C299.096 302.844 317.108 311.325 317.108 311.325Z" fill="#FCB7B1"/>
<path d="M296.146 267.974C293.46 272.504 291.933 279.773 291.986 290.202C291.986 298.262 298.727 311.483 299.728 315.539C299.886 316.224 300.307 319.121 300.307 319.121L307.733 326.706L322.638 316.224L318.109 309.007L316.739 309.165C316.739 309.165 315.897 305.162 316.107 303.635C316.318 302.107 311.999 281.3 309.84 267.974C308.628 260.23 298.78 263.496 296.146 267.974Z" fill="#2A75F4"/>
<path d="M309.523 308.849L313.895 307.48L315.685 307.006C315.791 308.27 316.844 309.113 316.844 309.113L313.421 309.534L309.471 310.798L304.836 314.117L309.523 308.849Z" fill="#0E3D8C"/>
<path d="M333.962 328.708L341.546 326.548C341.546 326.548 343.705 329.551 343.284 330.288C342.862 331.026 343.284 335.45 343.284 335.45L339.597 338.716L336.595 337.663C336.595 337.663 336.384 336.293 337.385 336.188C338.438 336.03 336.7 335.292 336.174 334.976C335.647 334.607 331.276 332.29 333.962 328.708Z" fill="#FCB7B1"/>
<path d="M322.269 255.806C321.426 258.281 322.69 261.073 325.113 261.916L329.431 263.496C331.854 264.392 334.488 263.022 335.33 260.547L339.175 249.169C340.018 246.693 338.754 243.901 336.331 243.006L332.012 241.426C329.589 240.53 326.956 241.9 326.113 244.375L322.269 255.806Z" fill="#FF897E"/>
<path d="M341.123 265.814C340.702 267.447 339.016 268.448 337.436 267.974L324.427 264.234C322.847 263.76 321.899 262.074 322.321 260.388L327.64 240.425C328.062 238.792 329.747 237.791 331.327 238.265L344.336 241.952C345.916 242.426 346.864 244.112 346.442 245.798L341.123 265.814Z" fill="#FCB7B1"/>
<path d="M347.866 243.796C347.971 243.691 346.654 242.216 347.339 239.319C348.234 235.421 345.338 233.84 343.178 233.788C341.914 233.735 337.648 235.789 335.384 236.474C333.119 237.159 333.33 236.263 329.222 235.526C326.483 234.999 325.851 236.527 324.903 238.634C323.955 240.793 323.85 249.011 323.85 249.011C324.218 249.537 324.798 249.959 325.166 249.537C325.535 249.116 327.01 242.532 328.221 240.583C329.38 238.634 334.12 241.742 336.7 243.269C339.228 244.797 341.493 245.06 345.548 244.217C346.022 244.744 346.444 245.323 346.444 245.587C346.444 246.114 345.285 249.854 345.285 249.854C345.285 249.854 347.55 248.431 348.182 247.325C348.498 246.956 348.603 245.165 347.866 243.796Z" fill="#FF6355"/>
<path d="M326.429 256.227C326.271 256.754 325.745 257.123 325.218 256.965L322.427 256.175C321.9 256.016 321.584 255.437 321.742 254.91L323.164 249.59C323.322 249.063 323.849 248.695 324.375 248.853L327.167 249.643C327.693 249.801 328.009 250.38 327.851 250.907L326.429 256.227Z" fill="#FCB7B1"/>
<path d="M324.691 251.17C324.691 251.17 322.584 259.019 321.899 261.653C321.267 264.023 320.793 269.501 333.697 273.188C341.334 275.348 342.598 269.449 343.124 267.552C343.493 266.077 343.072 261.284 342.492 260.23C342.492 260.178 341.65 263.496 341.65 263.496C341.65 263.496 340.912 259.862 337.278 258.861C331.432 257.175 329.115 260.389 326.587 259.546C324.585 258.861 324.006 255.068 324.691 251.17Z" fill="#FF6355"/>
<path d="M333.486 263.233L337.489 264.392C338.015 264.55 338.595 264.234 338.7 263.654L338.858 263.075L332.907 261.389L332.749 261.969C332.643 262.548 332.959 263.075 333.486 263.233Z" fill="#FCB7B1"/>
<path d="M396.951 343.035C395.108 348.356 362.665 367.898 351.763 366.739L318.951 368.372C291.091 364.843 277.871 319.964 277.871 319.964C278.977 308.691 306.469 325.021 316.265 330.077C331.75 338.084 341.598 338.505 341.598 338.505C351.974 339.612 363.982 331.289 377.096 331.026C391.474 330.657 399.901 334.66 396.951 343.035Z" fill="#0E2B5C"/>
<path d="M325.639 337.663C325.639 337.61 325.639 337.61 325.639 337.663V336.188L382.045 335.134V336.609L381.887 336.872C381.202 338.137 379.886 338.347 378.411 338.4L329.325 339.348C327.851 339.401 326.534 339.19 325.797 337.979L325.639 337.663Z" fill="#D3D3D3"/>
<path d="M339.227 337.61L339.069 337.873C338.859 338.189 338.595 338.453 338.279 338.611L329.695 338.769C328.273 338.821 327.009 338.663 326.271 337.663L326.113 337.452L326.061 337.399V336.714L339.122 336.451L339.227 337.61ZM346.864 337.083L375.041 336.556V335.556L346.811 336.135L346.864 337.083ZM339.543 335.872L346.337 307.006C346.495 306.268 347.233 305.636 347.97 305.584L387.576 304.846C388.313 304.846 388.734 305.426 388.576 306.216L381.782 335.081L339.543 335.872Z" fill="#D3D3D3"/>
<path d="M314 375.799C317.897 376.484 320.899 371.796 320.899 371.796L331.011 363.579L328.852 357.995L309.154 367.161C309.154 367.161 310.05 375.114 314 375.799Z" fill="#FCB7B1"/>
<path d="M320.848 371.48C320.848 371.48 320.847 371.954 320.11 374.114C319.373 376.273 318.425 377.011 317.477 377.327C313.685 378.486 310.999 377.906 301.94 379.697C292.881 381.488 290.143 380.119 287.509 375.799C284.876 371.48 287.615 368.056 292.039 367.74C298.411 367.266 301.993 368.003 305.311 367.477C308.787 366.95 308.997 366.107 311.051 364.79C312.947 363.579 314.738 370.848 312.947 372.533C311.315 374.008 319.531 374.219 320.848 371.48Z" fill="#FF5E50"/>
<path d="M318.952 375.641C315.212 376.8 312.474 376.221 303.415 378.012C294.356 379.802 291.617 378.433 288.984 374.114C287.773 372.112 287.72 370.321 288.405 368.951C286.403 370.374 285.719 372.849 287.509 375.799C290.143 380.119 292.881 381.488 301.94 379.697C310.999 377.906 313.738 378.486 317.477 377.327C318.214 377.116 318.952 376.589 319.584 375.378C319.373 375.483 319.162 375.588 318.952 375.641Z" fill="white"/>
<path d="M320.848 371.638V371.533C320.848 371.585 320.795 371.638 320.742 371.691C320.795 371.638 320.848 371.638 320.848 371.638Z" fill="#E9BCB8"/>
<path d="M301.306 374.851C301.043 374.956 300.78 374.377 300.674 373.587C300.516 371.954 300.148 370.374 299.621 368.741C299.358 367.951 299.358 367.266 299.674 367.161C299.99 367.055 300.516 367.635 300.727 368.425C301.254 370.005 301.57 371.638 301.728 373.218C301.833 374.008 301.57 374.746 301.306 374.851ZM304.098 374.324C303.782 374.377 303.518 373.85 303.413 373.113C303.255 371.585 302.886 370.058 302.36 368.583C302.096 367.845 302.096 367.213 302.465 367.161C302.781 367.108 303.308 367.687 303.571 368.425C304.045 369.9 304.414 371.427 304.572 372.902C304.624 373.64 304.414 374.272 304.098 374.324ZM307.047 374.219C306.731 374.272 306.415 373.692 306.31 372.902C306.046 371.322 305.678 369.794 305.098 368.214C304.835 367.424 304.835 366.792 305.151 366.792C305.52 366.792 306.046 367.371 306.31 368.161C306.889 369.689 307.258 371.269 307.468 372.797C307.574 373.534 307.363 374.166 307.047 374.219Z" fill="white"/>
<path d="M314.686 362.367C314.686 362.367 384.048 332.816 387.998 332.764C401.376 332.658 398.321 346.67 391.527 353.307C383.521 361.103 322.638 375.378 322.638 375.378L314.686 362.367Z" fill="#0E3D8C"/>
<path d="M342.177 367.529L323.217 348.882L331.328 340.612L351.973 363.157L342.177 367.529Z" fill="#FCB7B1"/>
<path d="M346.075 352.886C346.075 352.886 297.884 307.111 294.672 305.742C283.664 301.106 276.87 313.695 277.239 318.067C277.766 323.704 326.693 369.531 326.693 369.531L346.075 352.886Z" fill="#0E3D8C"/>
<path d="M374.62 368.951C375.726 370.005 375.936 373.218 375.936 373.218C375.936 373.218 359.873 379.539 354.238 379.644C352.763 379.697 350.13 379.065 347.602 378.328C347.18 378.222 346.18 377.063 345.758 376.958C344.968 376.747 344.81 377.485 344.178 377.274C342.493 376.695 341.229 376.221 341.176 376.115C337.753 368.635 338.911 364.948 338.911 364.948C338.911 364.948 346.285 367.16 345.021 365.422C342.335 361.735 350.077 357.995 351.762 359.944C358.714 367.793 371.354 365.844 374.62 368.951Z" fill="#FF5E50"/>
<path d="M375.515 370.532C370.564 372.586 360.189 376.747 358.135 376.905C349.655 377.537 343.757 374.43 339.807 372.586C340.175 373.64 340.597 374.851 341.176 376.115C341.229 376.221 342.44 376.695 344.178 377.274C344.863 377.485 345.021 376.695 345.758 376.958C346.179 377.063 347.127 378.222 347.601 378.328C350.129 379.065 352.763 379.644 354.237 379.644C359.873 379.539 375.936 373.218 375.936 373.218C375.936 373.218 375.936 371.743 375.515 370.532ZM364.192 365.686C364.35 366.002 363.718 366.318 362.822 366.528C360.979 366.897 359.188 367.477 357.397 368.214C356.502 368.583 355.712 368.688 355.607 368.372C355.501 368.056 356.081 367.477 356.976 367.108C358.714 366.37 360.557 365.844 362.348 365.475C363.191 365.212 364.034 365.37 364.192 365.686ZM360.557 364.369C360.715 364.685 360.083 365.106 359.188 365.37C357.397 365.896 355.659 366.634 353.921 367.529C353.079 367.951 352.289 368.109 352.183 367.793C352.078 367.477 352.657 366.792 353.5 366.37C355.185 365.528 356.923 364.79 358.714 364.316C359.609 363.947 360.452 364.053 360.557 364.369ZM357.081 363.21C357.187 363.526 356.607 364 355.765 364.316C354.027 365.001 352.341 365.844 350.709 366.844C349.919 367.371 349.181 367.529 349.076 367.161C348.971 366.844 349.497 366.107 350.34 365.58C351.973 364.579 353.658 363.737 355.343 363.105C356.186 362.841 356.976 362.894 357.081 363.21Z" fill="white"/>
</svg>
