<svg width="1440" height="618" viewBox="0 0 1440 618" fill="none" xmlns="http://www.w3.org/2000/svg">
<mask id="mask0_33_8" style="mask-type:luminance" maskUnits="userSpaceOnUse" x="0" y="0" width="1440" height="618">
<path d="M1440 0.894531H0V617.895H1440V0.894531Z" fill="white"/>
</mask>
<g mask="url(#mask0_33_8)">
<path fill-rule="evenodd" clip-rule="evenodd" d="M868.836 543.525V617.895H869.336V543.525H984.366V617.895H984.866V543.525H1099.07V617.895H1099.57V543.525H1214.6V617.895H1215.1V543.525H1330.12V617.895H1330.62V543.525H1444.83V617.895H1445.33V543.525H1560.35V617.895H1560.85V543.525H1675.06V543.104H1560.85V446.965H1675.06V446.545H1560.85V350.409H1675.06V349.989H1560.85V253.851H1675.06V253.432H1560.85V157.296H1675.06V156.877H1560.85V60.7376H1675.06V60.3186H1560.85V-35.8185L1675.06 -35.8174V-36.2375H1560.85V-90.4814H1560.35V-36.2375H1445.33V-90.4814H1444.83V-36.2375H1330.62V-90.4814H1330.12V-36.2375H1215.1V-90.4814H1214.6V-36.2375H1099.57V-90.4814H1099.07V-36.2375H984.866V-90.4814H984.366V-36.2375H869.336V-90.4814H868.836V-36.2375H802V-35.8185H868.836V60.3186H802V60.7376H868.836V156.877H802V157.296H868.836V253.432H802V253.851H868.836V349.989H802V350.409H868.836V446.545H802V446.965H868.836V543.104H802V543.525H868.836ZM869.336 543.104H984.366V446.965H869.336V543.104ZM869.336 446.545H984.366V350.409H869.336V446.545ZM869.336 349.989H984.366V253.851H869.336V349.989ZM869.336 253.432H984.366V157.296H869.336V253.432ZM869.336 156.877H984.366V60.7376H869.336V156.877ZM869.336 60.3186H984.366V-35.8185H869.336V60.3186ZM984.866 -35.8185V60.3186H1099.07V-35.8185H984.866ZM1099.57 -35.8185V60.3186H1214.6V-35.8185H1099.57ZM1215.1 -35.8185V60.3186H1330.12V-35.8185H1215.1ZM1330.62 -35.8185V60.3186H1444.83V-35.8185H1330.62ZM1445.33 -35.8185V60.3186H1560.35V-35.8185H1445.33ZM1560.35 60.7376H1445.33V156.877H1560.35V60.7376ZM1560.35 157.296H1445.33V253.432H1560.35V157.296ZM1560.35 253.851H1445.33V349.989H1560.35V253.851ZM1560.35 350.409H1445.33V446.545H1560.35V350.409ZM1560.35 446.965H1445.33V543.104H1560.35V446.965ZM1444.83 543.104V446.965H1330.62V543.104H1444.83ZM1330.12 543.104V446.965H1215.1V543.104H1330.12ZM1214.6 543.104V446.965H1099.57V543.104H1214.6ZM1099.07 543.104V446.965H984.866V543.104H1099.07ZM984.866 446.545H1099.07V350.409H984.866V446.545ZM984.866 349.989H1099.07V253.851H984.866V349.989ZM984.866 253.432H1099.07V157.296H984.866V253.432ZM984.866 156.877H1099.07V60.7376H984.866V156.877ZM1099.57 60.7376V156.877H1214.6V60.7376H1099.57ZM1215.1 60.7376V156.877H1330.12V60.7376H1215.1ZM1330.62 60.7376V156.877H1444.83V60.7376H1330.62ZM1444.83 157.296H1330.62V253.432H1444.83V157.296ZM1444.83 253.851H1330.62V349.989H1444.83V253.851ZM1444.83 350.409H1330.62V446.545H1444.83V350.409ZM1330.12 446.545V350.409H1215.1V446.545H1330.12ZM1214.6 446.545V350.409H1099.57V446.545H1214.6ZM1099.57 349.989H1214.6V253.851H1099.57V349.989ZM1099.57 253.432H1214.6V157.296H1099.57V253.432ZM1215.1 157.296V253.432H1330.12V157.296H1215.1ZM1330.12 253.851H1215.1V349.989H1330.12V253.851Z" fill="url(#paint0_radial_33_8)"/>
<path opacity="0.02" d="M1329.94 254.065H1214.94V349.633H1329.94V254.065Z" fill="#202B50"/>
<path opacity="0.02" d="M1098.95 351.311H984.946V446.875H1098.95V351.311Z" fill="#202B50"/>
<path opacity="0.02" d="M1214.94 61.2534H1098.94V156.821H1214.94V61.2534Z" fill="#202B50"/>
<path fill-rule="evenodd" clip-rule="evenodd" d="M-116.16 543.525V617.895H-115.66V543.525H-0.632034V617.895H-0.132034V543.525H114.069V617.895H114.569V543.525H229.597V617.895H230.097V543.525H345.124V617.895H345.624V543.525H459.826V617.895H460.326V543.525H575.354V617.895H575.854V543.525H690.057V543.104H575.854V446.965H690.057V446.545H575.854V350.409H690.057V349.989H575.854V253.851H690.057V253.432H575.854V157.296H690.057V156.877H575.854V60.7376H690.057V60.3186H575.854V-35.8185L690.057 -35.8174V-36.2375H575.854V-90.4814H575.354V-36.2375H460.326V-90.4814H459.826V-36.2375H345.624V-90.4814H345.124V-36.2375H230.097V-90.4814H229.597V-36.2375H114.569V-90.4814H114.069V-36.2375H-0.132034V-90.4814H-0.632034V-36.2375H-115.66V-90.4814H-116.16V-36.2375H-183V-35.8185H-116.16V60.3186H-183V60.7376H-116.16V156.877H-183V157.296H-116.16V253.432H-183V253.851H-116.16V349.989H-183V350.409H-116.16V446.545H-183V446.965H-116.16V543.104H-183V543.525H-116.16ZM-115.66 543.104H-0.632034V446.965H-115.66V543.104ZM-115.66 446.545H-0.632034V350.409H-115.66V446.545ZM-115.66 349.989H-0.632034V253.851H-115.66V349.989ZM-115.66 253.432H-0.632034V157.296H-115.66V253.432ZM-115.66 156.877H-0.632034V60.7376H-115.66V156.877ZM-115.66 60.3186H-0.632034V-35.8185H-115.66V60.3186ZM-0.132034 -35.8185V60.3186H114.069V-35.8185H-0.132034ZM114.569 -35.8185V60.3186H229.597V-35.8185H114.569ZM230.097 -35.8185V60.3186H345.124V-35.8185H230.097ZM345.624 -35.8185V60.3186H459.826V-35.8185H345.624ZM460.326 -35.8185V60.3186H575.354V-35.8185H460.326ZM575.354 60.7376H460.326V156.877H575.354V60.7376ZM575.354 157.296H460.326V253.432H575.354V157.296ZM575.354 253.851H460.326V349.989H575.354V253.851ZM575.354 350.409H460.326V446.545H575.354V350.409ZM575.354 446.965H460.326V543.104H575.354V446.965ZM459.826 543.104V446.965H345.624V543.104H459.826ZM345.124 543.104V446.965H230.097V543.104H345.124ZM229.597 543.104V446.965H114.569V543.104H229.597ZM114.069 543.104V446.965H-0.132034V543.104H114.069ZM-0.132034 446.545H114.069V350.409H-0.132034V446.545ZM-0.132034 349.989H114.069V253.851H-0.132034V349.989ZM-0.132034 253.432H114.069V157.296H-0.132034V253.432ZM-0.132034 156.877H114.069V60.7376H-0.132034V156.877ZM114.569 60.7376V156.877H229.597V60.7376H114.569ZM230.097 60.7376V156.877H345.124V60.7376H230.097ZM345.624 60.7376V156.877H459.826V60.7376H345.624ZM459.826 157.296H345.624V253.432H459.826V157.296ZM459.826 253.851H345.624V349.989H459.826V253.851ZM459.826 350.409H345.624V446.545H459.826V350.409ZM345.124 446.545V350.409H230.097V446.545H345.124ZM229.597 446.545V350.409H114.569V446.545H229.597ZM114.569 349.989H229.597V253.851H114.569V349.989ZM114.569 253.432H229.597V157.296H114.569V253.432ZM230.097 157.296V253.432H345.124V157.296H230.097ZM345.124 253.851H230.097V349.989H345.124V253.851Z" fill="url(#paint1_radial_33_8)"/>
<path opacity="0.02" d="M345 254.065H230V349.633H345V254.065Z" fill="#202B50"/>
<path opacity="0.02" d="M229 351.311H115V446.875H229V351.311Z" fill="#202B50"/>
</g>
<defs>
<radialGradient id="paint0_radial_33_8" cx="0" cy="0" r="1" gradientUnits="userSpaceOnUse" gradientTransform="translate(1238.53 243.447) rotate(90) scale(333.929 411.559)">
<stop stop-color="#E9C27F"/>
<stop offset="1" stop-color="#E9C27F" stop-opacity="0"/>
</radialGradient>
<radialGradient id="paint1_radial_33_8" cx="0" cy="0" r="1" gradientUnits="userSpaceOnUse" gradientTransform="translate(253.528 243.447) rotate(90) scale(333.929 411.559)">
<stop stop-color="#FAD89F"/>
<stop offset="1" stop-color="#E9C27F" stop-opacity="0"/>
</radialGradient>
</defs>
</svg>
