<svg width="476" height="604" viewBox="0 0 476 604" fill="none" xmlns="http://www.w3.org/2000/svg">
<g filter="url(#filter0_d_3402_194)">
<path d="M132.72 232.021C176.171 232.021 211.394 197.801 211.394 155.589C211.394 113.377 176.171 79.1572 132.72 79.1572C89.2702 79.1572 54.0469 113.377 54.0469 155.589C54.0469 197.801 89.2702 232.021 132.72 232.021Z" fill="white"/>
</g>
<path d="M150.875 219.339C155.805 226.465 161.075 233.378 166.673 240.019C166.466 232.221 166.26 224.424 166.503 216.036C161.694 216.921 156.898 217.817 150.875 219.339Z" fill="white"/>
<g opacity="0.31">
<path d="M0 578C0 582.73 11.6693 587.178 32.0329 590.988C35.1171 591.566 38.4079 592.132 41.8929 592.687C42.8764 592.84 43.8721 592.994 44.8921 593.147C45.5964 593.253 46.3129 593.359 47.0293 593.465C47.0293 593.465 47.0293 593.465 47.0414 593.465C47.3693 593.513 47.6971 593.56 48.025 593.607C48.195 593.631 48.365 593.654 48.535 593.678C49.4214 593.808 50.32 593.926 51.2307 594.055C51.34 594.067 51.4493 594.091 51.5707 594.102C51.8986 594.15 52.2386 594.197 52.5664 594.232C52.6879 594.256 52.8093 594.268 52.9429 594.279C53.4164 594.35 53.9021 594.409 54.3879 594.468C98.0414 600.225 164.086 603.894 238 603.894C369.446 603.894 476 592.298 476 577.988C476 563.678 369.446 552.082 238 552.082C164.669 552.082 99.0736 555.692 55.42 561.378C53.4771 561.626 51.5829 561.885 49.7371 562.145C49.47 562.18 49.2029 562.216 48.9357 562.263C46.8471 562.558 44.8193 562.864 42.8521 563.171C41.9657 563.313 41.0914 563.442 40.2293 563.584C37.2057 564.079 34.3279 564.575 31.6079 565.094C31.3529 565.141 31.0979 565.188 30.855 565.236C30.3571 565.33 29.8593 565.424 29.3736 565.519C27.6736 565.861 26.0343 566.203 24.4679 566.545C23.5693 566.746 22.7071 566.934 21.8571 567.135C21.5171 567.217 21.1893 567.288 20.8614 567.371C18.4571 567.949 16.235 568.55 14.2193 569.152C5.02714 571.913 0.0121429 574.885 0.0121429 577.988L0 578Z" fill="#7A8DB0"/>
</g>
<path d="M354.136 290.664L302.128 288.788L260.187 441.912L242.434 447.657C236.642 447.657 248.773 455.1 248.773 460.728H257.188H346.037C353.347 460.728 357.172 458.934 358.568 451.962L386.995 331.493C391.269 310.966 375.666 291.584 354.136 290.676V290.664Z" fill="#105E70"/>
<path d="M351.818 450.04L258.598 446.914L276.861 307.923C278.536 296.669 288.7 288.458 300.393 288.895L347.046 290.652C368.575 291.561 384.179 310.955 379.905 331.469L351.818 450.028V450.04Z" fill="#207A96"/>
<path d="M251.661 568.751H257.684V559.455C257.684 543.813 270.786 531.084 286.887 531.084H307.093C323.195 531.084 336.297 543.813 336.297 559.455V568.751H342.32V559.455C342.32 540.58 326.51 525.221 307.081 525.221H286.875C267.447 525.221 251.637 540.58 251.637 559.455V568.751H251.661Z" fill="#C1C1C1"/>
<path d="M253.605 568.752C259.52 568.752 264.315 564.094 264.315 558.347C264.315 552.601 259.52 547.942 253.605 547.942C247.69 547.942 242.895 552.601 242.895 558.347C242.895 564.094 247.69 568.752 253.605 568.752Z" fill="#8D8D8D"/>
<path d="M258.742 558.347C258.742 555.587 256.434 553.357 253.605 553.357C250.776 553.357 248.469 555.599 248.469 558.347C248.469 561.096 250.776 563.338 253.605 563.338C256.434 563.338 258.742 561.096 258.742 558.347Z" fill="#C1C1C1"/>
<path d="M300.538 460.421H294.516V527.12H300.538V460.421Z" fill="#C1C1C1"/>
<path d="M311.465 528.159H283.609C283.609 522.98 287.932 518.792 293.251 518.792H301.824C307.154 518.792 311.465 522.992 311.465 528.159Z" fill="#A5A5A5"/>
<path d="M338.253 568.752C344.168 568.752 348.963 564.094 348.963 558.347C348.963 552.601 344.168 547.942 338.253 547.942C332.338 547.942 327.543 552.601 327.543 558.347C327.543 564.094 332.338 568.752 338.253 568.752Z" fill="#8D8D8D"/>
<path d="M343.925 558.347C343.925 555.587 341.618 553.357 338.789 553.357C335.96 553.357 333.652 555.599 333.652 558.347C333.652 561.096 335.96 563.338 338.789 563.338C341.618 563.338 343.925 561.096 343.925 558.347Z" fill="#C1C1C1"/>
<path d="M211.7 292.056L195.975 299.865C194.214 294.722 193 291.289 192.465 290.853C192.465 290.853 178.841 269.913 178.283 266.516C177.736 263.165 183.516 267.507 183.686 267.636C183.589 267.483 180.505 262.741 180.237 260.582C179.97 258.388 185.398 262.151 185.398 262.151C185.398 262.151 181.974 256.748 183.249 256.311C184.488 255.887 187.863 259.591 188.033 259.791C187.827 259.461 182.435 251.062 186.382 253.22C190.365 255.391 201.9 268.969 202.119 269.229C202.046 268.969 199.278 258.635 202.289 258.34C203.503 258.222 206.818 266.917 208.895 271.152C209.866 273.145 207.875 284.364 207.875 284.364L211.7 292.044V292.056Z" fill="#F5B0A6"/>
<path d="M187.433 258.226L186.789 258.766L194.1 267.003L194.744 266.464L187.433 258.226Z" fill="#F18A8B"/>
<path d="M185.71 261.843L185.094 262.411L190.954 268.409L191.571 267.84L185.71 261.843Z" fill="#F18A8B"/>
<path d="M182.92 266.624L182.359 267.245L186.768 271.003L187.329 270.382L182.92 266.624Z" fill="#F18A8B"/>
<path d="M186.068 272.52C188.982 268.273 196.511 266.173 196.584 266.15L196.353 265.359C196.268 265.383 194.362 265.914 192.042 266.999C188.909 268.462 186.663 270.173 185.352 272.072L186.056 272.532L186.068 272.52Z" fill="#F18A8B"/>
<path d="M196.801 278.148L197.651 278.124C197.566 275.399 198.258 273.464 198.865 272.32C199.509 271.081 200.189 270.48 200.201 270.48L199.63 269.866C199.509 269.972 196.643 272.532 196.813 278.148H196.801Z" fill="#F18A8B"/>
<path d="M236.142 323.766L213.738 285.355L190.023 295.595C190.023 295.595 216.386 361.74 227.363 363.875C238.34 366.011 243.61 364.725 244.496 360.03C245.371 355.335 236.154 323.754 236.154 323.754L236.142 323.766Z" fill="#FBB94D"/>
<path d="M194.881 528.489C193.023 550.184 190.923 556.778 188.871 562.087C186.818 567.395 151.301 573.648 153.741 572.586C160.323 569.719 171.506 558.866 171.506 558.866C171.506 558.866 179.666 551.104 177.529 535.037L194.893 528.489H194.881Z" fill="#F5B0A6"/>
<path d="M168.203 561.367L152.078 573.506C151.252 574.072 151.835 575.039 153.025 575.039C153.025 575.039 189.684 574.745 189.733 574.273C190.048 571.335 190.643 558.465 190.279 558.465C188.919 558.465 183.868 566.864 181.136 565.979C179.302 565.39 170.936 562.016 170.183 561.414C169.685 561.001 168.762 560.989 168.203 561.367Z" fill="white"/>
<path d="M169.711 548.957L194.312 546.68L230.498 449.12C230.498 449.12 307.35 454.405 311.285 436.143C315.219 417.893 310.641 389.357 310.641 389.357L244.438 387.858L241.973 397.496C241.973 397.496 212.32 397.921 207.512 409.812C202.703 421.692 191.325 453.484 169.723 548.945L169.711 548.957Z" fill="#873944"/>
<path d="M182.266 545.264C182.557 544.202 210.996 438.927 214.456 428.817C216.423 423.084 237.783 423.414 256.628 423.709C270.459 423.922 283.513 424.134 290.859 422.352C294.745 421.409 297.416 419.474 298.788 416.619C302.213 409.482 296.651 398.369 294.271 393.615C293.81 392.707 293.336 391.751 293.3 391.539C293.3 391.551 293.3 391.563 293.3 391.574H292.158C292.158 391.917 292.413 392.459 293.239 394.099C295.546 398.7 300.95 409.494 297.744 416.147C296.518 418.695 294.113 420.418 290.58 421.279C283.379 423.025 270.386 422.824 256.641 422.612C235.536 422.282 215.598 421.963 213.363 428.475C209.878 438.62 181.428 543.931 181.148 544.993L182.253 545.276L182.266 545.264Z" fill="#722935"/>
<path d="M305.248 391.327C305.248 391.327 246.525 407.111 225.178 421.551C203.83 435.99 249.39 558.465 249.39 558.465C249.39 558.465 242.032 564.269 232.645 572.256C230.642 573.966 254.66 570.05 260.258 568.434C265.018 567.053 267.107 568.528 263.148 553.806C257.526 532.913 253.009 439.659 252.086 437.418C251.151 435.176 328.598 451.763 327.736 431.142C326.874 410.521 305.248 391.339 305.248 391.339V391.327Z" fill="#F5B0A6"/>
<path d="M246.029 560.943L230.607 573.093C229.818 573.66 230.377 574.627 231.506 574.627C231.506 574.627 266.575 574.308 266.623 573.836C266.927 570.899 264.887 558.418 264.535 558.418C263.235 558.418 261.207 567.655 258.585 566.77C256.824 566.18 248.627 561.591 247.923 560.99C247.45 560.577 246.563 560.565 246.029 560.943Z" fill="white"/>
<path d="M323.389 383.163C323.389 383.163 341.652 417.48 335.908 435.459C327.287 462.45 254.248 453.437 254.248 453.437L263.391 541.713L244.06 546.515C244.06 546.515 200.406 433.678 211.918 416.914C221.013 403.666 259.105 403.253 263.938 401.791C270.847 399.679 271.661 381.807 271.661 381.807L323.389 383.152V383.163Z" fill="#B15F60"/>
<path d="M253.422 544.686L254.527 544.415C254.272 543.412 229.112 444.613 232.05 434.633C233.665 429.124 251.078 429.23 267.896 429.337C281.059 429.419 294.659 429.502 303.426 427.213C307.445 426.163 310.299 423.934 311.926 420.595C314.16 415.994 314.063 409.294 311.635 400.706C309.716 393.922 306.85 387.812 305.77 385.523C305.551 385.063 305.369 384.662 305.332 384.567L304.252 384.921C304.3 385.063 304.422 385.334 304.738 385.983C313.978 405.648 313.189 415.404 310.906 420.123C309.437 423.167 306.826 425.184 303.147 426.151C294.525 428.393 280.998 428.31 267.92 428.239C249.087 428.121 232.828 428.027 230.97 434.338C227.946 444.602 252.402 540.616 253.446 544.698L253.422 544.686Z" fill="#873944"/>
<path d="M260.5 294.863C280.269 311.591 344.869 305.209 344.869 305.209L340.546 297.235L347.224 302.543L352.761 299.747C352.761 299.747 339.999 291.643 342.792 279.988C345.573 268.332 337.498 264.333 330.346 257.338C323.181 250.342 326.958 252.937 329.593 231.62C331.657 214.892 322.756 209.714 318.834 208.251C317.353 207.696 315.993 206.882 314.779 205.903C307.371 202.046 299.697 197.976 285.769 207.272C278.253 212.285 275.496 218.868 275.618 222.608L266.717 249.351C266.717 249.351 262.151 261.443 266.098 270.314C270.044 279.185 260.512 294.863 260.512 294.863H260.5Z" fill="black"/>
<path d="M312.897 200.418C314.281 196.159 318.944 193.8 323.327 195.144C327.711 196.489 330.14 201.019 328.755 205.278C327.371 209.537 322.708 211.896 318.325 210.551C313.941 209.206 311.512 204.676 312.897 200.418Z" fill="black"/>
<path d="M252.049 360.159L245.662 376.745L241.436 387.716C243.403 390.076 247.216 391.255 251.563 391.751C261.326 392.883 273.76 390.583 273.76 390.583C273.76 390.583 288.307 402.321 309.035 403.041C329.751 403.76 335.434 392.494 335.434 392.494C335.434 392.494 335.677 385.994 329.763 363.238C323.837 340.47 341.189 312.275 339.465 292.622C337.741 272.968 323.097 269.96 323.097 269.96L308.841 290.616L298.762 289.307L302.818 297.541C302.818 297.541 284.871 302.201 282.418 305.185C282.369 305.244 282.321 305.303 282.272 305.351C284.786 299.558 288.295 293.731 292.97 289.932C292.108 290.416 281.896 289.72 281.896 289.72C281.896 289.72 280.002 296.798 278.107 304.147C277.682 304.773 277.427 305.15 277.427 305.15L271.927 293.707L277.427 290.062L271.769 288.729L270.931 272.095C249.584 276.79 249.851 287.773 249.851 287.773C246.427 299.405 235.413 329.947 232.535 337.875L239.699 358.92L242.067 366.152C248.369 363.934 252.061 360.147 252.061 360.147L252.049 360.159Z" fill="#FBB94D"/>
<path d="M285.674 312.925L284.605 316.629L306.171 317.962L307.847 313.22L285.674 312.925Z" fill="#E2791A"/>
<path d="M318.7 339.468L278.871 355.665C278.871 355.665 321.444 343.101 327.43 342.027C327.43 342.027 329.009 340.034 326.957 334.371C324.905 328.709 316.708 304.348 319.865 286.275C319.865 286.275 310.285 299.122 321.602 333.38C322.415 335.834 321.14 338.465 318.7 339.468Z" fill="#FB9024"/>
<path d="M281.883 289.732C281.883 289.732 292.095 290.428 292.957 289.944C297.899 287.172 309.277 267.436 309.459 267.129C309.265 267.365 295.689 283.196 292.994 283.468C291.439 283.621 289.144 283.597 287.456 283.55C286.23 283.515 285.234 282.559 285.198 281.356L283.109 269.382L281.895 289.72L281.883 289.732Z" fill="#F5B0A6"/>
<path d="M274.293 372.311C274.293 372.311 276.224 328.202 277.487 320.971C278.75 313.739 283.473 297.648 292.957 289.945C292.095 290.428 281.883 289.732 281.883 289.732C281.883 289.732 275.495 313.609 274.427 319.166C273.844 322.209 272.873 341.474 272.751 359.145C272.703 366.164 274.293 372.311 274.293 372.311Z" fill="white"/>
<path d="M264.375 332.437C264.375 333.841 265.541 334.973 266.986 334.973C268.431 334.973 269.596 333.841 269.596 332.437C269.596 331.033 268.431 329.9 266.986 329.9C265.541 329.9 264.375 331.033 264.375 332.437Z" fill="#E2791A"/>
<path d="M266.356 349.077C267.824 348.741 268.734 347.311 268.387 345.884C268.041 344.458 266.569 343.574 265.1 343.911C263.632 344.248 262.722 345.677 263.069 347.104C263.416 348.531 264.887 349.414 266.356 349.077Z" fill="#E2791A"/>
<path d="M254.816 354.532C254.816 354.532 249.704 339.562 249.449 331.233C249.194 322.905 252.048 304.997 251.781 297.176C251.781 297.176 245.029 328.992 245.636 337.226C246.243 345.46 249.534 355.724 249.534 355.724L253.736 357.694L254.804 354.532H254.816Z" fill="#FB9024"/>
<path d="M302.671 265.171C302.671 265.171 294.171 279.598 288.258 280.731C288.258 280.731 299.356 280.212 302.671 265.171Z" fill="#EDEDED"/>
<path d="M279.385 356.82C281.922 362.908 281.837 368.075 281.34 371.295C281 373.478 280.477 374.752 280.453 374.811C301.74 378.798 326.171 376.958 345.26 369.915C364.336 362.872 359.455 348.928 359.455 348.928C359.455 348.928 349.837 300.832 343.693 288.882C337.549 276.932 332.34 275.552 332.34 275.552C332.34 275.552 322.504 274.514 319.881 286.275C316.724 304.348 324.932 328.708 326.972 334.371C329.025 340.033 327.446 342.027 327.446 342.027C321.46 343.101 278.887 355.664 278.887 355.664C279.069 356.054 279.239 356.443 279.397 356.82H279.385Z" fill="#FBB94D"/>
<path d="M255.596 370.151C255.596 370.151 246.853 375.459 246.075 377.878L246.549 379.116L247.01 380.308C247.01 380.308 254.818 374.999 258.716 375.306C262.614 375.613 263.549 378.94 266.828 378.031C270.106 377.123 280.44 374.811 280.44 374.811C280.464 374.752 280.986 373.489 281.314 371.33C281.812 368.122 281.909 362.931 279.371 356.82H278.837L254.806 354.532C254.806 354.532 252.001 353.623 250.277 354.685C248.565 355.747 239.664 358.932 239.664 358.932L244.193 372.723C244.193 372.723 248.407 370.906 250.119 370.446C251.831 369.997 255.583 370.139 255.583 370.139L255.596 370.151Z" fill="#F5B0A6"/>
<path d="M246.563 379.116L247.024 380.308C247.024 380.308 254.832 374.999 258.73 375.306C262.628 375.612 263.563 378.939 266.842 378.031C270.12 377.122 280.454 374.81 280.454 374.81C280.478 374.751 281 373.489 281.328 371.33C280.162 372.203 278.523 373.135 276.301 373.76C270.764 375.353 267.254 375.742 265.142 374.952C263.029 374.173 259.41 372.215 255.281 374.362C252.027 376.061 248.287 377.264 246.551 379.104L246.563 379.116Z" fill="#F18A8B"/>
<path d="M242.082 363.026C244.717 360.914 249.502 360.891 249.55 360.891V359.853C249.344 359.853 244.341 359.876 241.402 362.224L242.082 363.026Z" fill="#F18A8B"/>
<path d="M243.318 367.803C245.455 365.29 251.308 365.408 251.369 365.408L251.393 364.37C251.126 364.37 244.957 364.24 242.492 367.142L243.318 367.803Z" fill="#F18A8B"/>
<path d="M280.453 374.81C301.74 378.798 326.171 376.957 345.26 369.903C364.336 362.86 359.455 348.916 359.455 348.916C359.455 348.916 358.69 360.029 343.681 365.172C320.233 373.218 291.661 373.76 281.34 371.283C281 373.465 280.477 374.739 280.453 374.798V374.81Z" fill="#FB9024"/>
<path d="M310.261 231.031L310.346 230.276C302.331 229.367 295.422 225.121 292.326 219.175C288.695 212.191 291.791 205.939 292.823 204.193L292.143 203.815C291.063 205.644 287.821 212.203 291.621 219.529C294.827 225.699 301.967 230.122 310.248 231.054L310.261 231.031Z" fill="#333333"/>
<path d="M304.298 205.113C289.678 201.197 279.672 208.747 275.981 221.771C275.981 221.771 274.609 230.925 274.451 231.609C274.426 231.704 267.359 245.813 278.774 260.122C279.417 260.936 280.461 261.267 281.506 261.538C303.399 267.177 306.532 245.978 306.532 245.978C307.006 244.952 317.291 235.302 317.606 234.193C321.31 221.169 318.906 209.042 304.286 205.125L304.298 205.113Z" fill="#F5B0A6"/>
<path d="M309.299 238.522L306.3 269.005L286.969 267.212C287.005 267.058 287.017 266.917 287.042 266.763L289.992 236.74L309.299 238.533V238.522Z" fill="#F5B0A6"/>
<path d="M284.639 213.277L283.85 222.514C283.85 222.514 301.942 225.852 309.532 228.789C309.532 228.789 303.618 241.79 307.407 243.524C307.407 243.524 322.78 244.208 321.347 225.239C319.914 206.269 304.905 203.108 294.317 203.804C283.74 204.5 272.411 211.189 271.379 221.357L279.952 222.549C279.952 222.549 281.931 216.002 284.651 213.277H284.639Z" fill="black"/>
<path d="M285.295 248.939C283.595 248.785 282.55 248.266 282.453 248.219L282.83 247.535C283.024 247.629 287.505 249.824 293.37 245.801L293.831 246.438C290.382 248.797 287.359 249.139 285.295 248.951V248.939Z" fill="black"/>
<path d="M293.408 227.032C294.537 226.124 299.394 228.825 299.588 228.978C301.07 230.064 300.39 231.043 300.11 231.361C299.953 231.55 299.394 231.173 297.973 230.654C294.95 229.545 293.553 229.816 293.08 228.813C292.801 228.223 292.946 227.398 293.396 227.032H293.408Z" fill="black"/>
<path d="M282.854 225.757C282.284 224.719 277.997 225.462 277.803 225.51C276.334 225.887 276.261 226.713 276.37 227.043C276.431 227.232 276.977 227.114 278.228 227.138C280.887 227.197 281.871 227.834 282.539 227.208C282.939 226.843 283.097 226.17 282.867 225.757H282.854Z" fill="black"/>
<path d="M283.048 242.084C282.975 242.049 281.129 241.188 280.947 239.525C280.813 238.239 281.688 236.894 283.558 235.525L284.043 236.151C282.44 237.33 281.651 238.475 281.748 239.442C281.882 240.681 283.375 241.377 283.4 241.388L283.06 242.096L283.048 242.084Z" fill="black"/>
<path d="M317.703 246.178C316.319 250.366 312.044 252.772 308.159 251.557C304.273 250.342 302.233 245.965 303.617 241.777C305.002 237.59 309.276 235.183 313.162 236.398C317.047 237.613 319.087 241.99 317.703 246.178Z" fill="#F5B0A6"/>
<path d="M311.23 246.402C310.817 245.281 308.729 244.738 307.951 244.62L307.441 244.538L307.648 244.078C308.425 242.284 309.494 241.176 310.805 240.763C312.469 240.244 313.889 241.069 313.95 241.105L313.537 241.765C313.537 241.765 312.359 241.093 311.048 241.494C310.076 241.801 309.251 242.627 308.595 243.936C309.542 244.16 311.485 244.762 311.995 246.13L311.242 246.39L311.23 246.402Z" fill="black"/>
<g opacity="0.6">
<path d="M306.69 246.013C307.382 242.663 307.382 239.03 307.382 239.03C302.27 238.558 297.728 242.191 297.242 247.158C296.866 250.956 298.979 254.413 302.27 256.052C305.888 251.428 306.69 246.013 306.69 246.013Z" fill="#F18A8B"/>
<path d="M273.383 234.499C272.46 237.625 271.513 243.005 273.164 249.222C275.35 247.759 276.88 245.411 277.147 242.639C277.475 239.348 275.933 236.316 273.37 234.499H273.383Z" fill="#F18A8B"/>
</g>
<path d="M296.199 235.608C295.92 236.54 295.228 237.165 294.682 237C294.123 236.835 293.904 235.95 294.184 235.03C294.463 234.098 295.155 233.473 295.702 233.638C296.26 233.803 296.479 234.688 296.199 235.608Z" fill="black"/>
<path d="M279.758 232.942C279.503 233.791 278.884 234.357 278.374 234.204C277.864 234.063 277.669 233.249 277.924 232.411C278.179 231.562 278.799 230.995 279.309 231.137C279.819 231.278 280.013 232.092 279.758 232.93V232.942Z" fill="black"/>
<g opacity="0.5">
<path d="M297.145 205.715C296.61 205.55 303.277 205.845 309.081 208.794C316.5 212.569 320.24 219.612 319.718 220.095C319.318 220.473 315.918 217.394 315.225 218.031C314.74 218.467 315.99 220.249 315.626 220.508C314.983 220.98 310.38 215.565 309.494 216.155C309.105 216.415 309.798 217.594 309.409 217.878C308.68 218.408 305.693 214.622 301.03 211.672C296.768 208.971 293.186 208.299 293.295 207.968C293.49 207.355 305.341 210.493 305.499 209.962C305.633 209.514 302.318 207.296 297.169 205.715H297.145Z" fill="#545454"/>
</g>
<path d="M309.955 269.194C310.368 272.757 309.943 275.505 310.599 276.201C300.047 286.264 277.242 294.309 282.78 271.482C282.78 271.482 283.217 270.185 283.957 261.408L308.158 251.569C308.595 257.987 309.445 264.9 309.955 269.206V269.194Z" fill="#F5B0A6"/>
<path d="M283.861 262.163C283.861 262.163 295.214 263.591 303.083 258.011C303.083 258.011 292.676 268.652 283.266 269.041L283.848 262.163H283.861Z" fill="#F18A8B"/>
<path d="M282.262 305.363C282.262 305.363 282.359 305.256 282.407 305.197C284.86 302.213 302.807 297.553 302.807 297.553L298.752 289.319L308.83 290.628L323.086 269.972L310.555 267.365L309.474 267.141C309.316 267.412 297.926 287.172 292.972 289.956C288.309 293.754 284.787 299.57 282.274 305.374L282.262 305.363Z" fill="#E2791A"/>
<path d="M271.756 288.752L277.415 290.085L271.914 293.73L277.415 305.173C277.415 305.173 277.67 304.796 278.095 304.171C279.989 296.821 281.883 289.743 281.883 289.743L283.098 269.405L270.906 272.13L271.744 288.764L271.756 288.752Z" fill="#E2791A"/>
<path d="M245.187 378.079H149.55C147.74 378.079 146.004 376.769 145.676 375.153L134.347 319.578C134.019 317.962 135.221 316.652 137.03 316.652H232.668C234.477 316.652 236.213 317.962 236.541 319.578L247.87 375.153C248.198 376.769 246.996 378.079 245.187 378.079Z" fill="#353234"/>
<path d="M310.6 381.205C310.6 382.172 310.2 383.057 309.544 383.694C308.876 384.331 307.965 384.732 306.958 384.732H150.303C148.287 384.732 146.672 383.14 146.672 381.205C146.672 380.238 147.073 379.353 147.728 378.692C148.396 378.055 149.307 377.666 150.315 377.666H306.97C308.985 377.666 310.6 379.235 310.6 381.193V381.205Z" fill="#262325"/>
<path d="M310.601 381.205C310.601 382.172 310.139 383.057 309.374 383.694C308.585 384.331 307.528 384.732 306.363 384.732H252.461C250.105 384.732 248.223 383.14 248.223 381.205C248.223 380.238 248.684 379.353 249.449 378.692C250.214 378.055 251.271 377.666 252.461 377.666H306.363C308.718 377.666 310.601 379.235 310.601 381.193V381.205Z" fill="#0F0D0F"/>
<path d="M245.175 378.079H240.258C242.079 378.079 243.269 376.757 242.941 375.153L231.612 319.578C231.284 317.95 229.548 316.652 227.738 316.652H232.656C234.465 316.652 236.202 317.95 236.53 319.578L247.859 375.153C248.187 376.757 246.985 378.079 245.175 378.079Z" fill="#262325"/>
<path d="M187.434 352.172C194.181 352.172 199.65 349.811 199.65 346.899C199.65 343.987 194.181 341.626 187.434 341.626C180.688 341.626 175.219 343.987 175.219 346.899C175.219 349.811 180.688 352.172 187.434 352.172Z" fill="white"/>
<path d="M449.855 384.968H24.5273V395.656H449.855V384.968Z" fill="#3D5891"/>
<path d="M438.781 395.656H35.6016V406.344H438.781V395.656Z" fill="#2F4171"/>
<path d="M35.6244 578.342H31.168L44.1123 406.344H55.4658L35.6244 578.342Z" fill="#243354"/>
<path d="M55.4657 406.344L54.1421 416.383H43.25L44.1121 406.344H55.4657Z" fill="#1D2A42"/>
<path d="M438.756 578.342H443.2L430.256 406.344H418.902L438.756 578.342Z" fill="#243354"/>
<path d="M418.902 406.344L420.238 416.383H431.118L430.256 406.344H418.902Z" fill="#1D2A42"/>
<path d="M435.782 376.097C434.507 375.955 433.183 375.991 431.944 376.215C430.487 376.474 429.091 376.993 427.779 377.748C427.002 378.197 426.347 378.633 425.776 379.093C425.084 379.636 424.464 380.249 423.942 380.768C422.898 381.83 421.927 383.045 420.955 384.508C419.134 387.269 417.555 390.513 416.11 394.453C415.527 396.045 414.981 397.768 414.337 400.021C413.803 401.897 413.317 403.82 412.844 405.908C412.103 409.164 411.484 412.667 410.877 416.902C410.452 419.934 410.124 422.93 409.917 425.833C409.844 426.871 409.784 427.909 409.747 428.947C409.65 432.356 409.711 436.084 409.954 440.343C410.197 444.637 410.609 449.002 411.01 453.213C411.156 454.711 411.302 456.221 411.435 457.719C411.957 463.347 412.467 469.328 412.589 475.214C412.674 479.85 412.504 484.026 412.079 487.978L411.957 488.179V488.203H411.945L411.897 488.297L411.836 488.391L411.86 488.368C411.763 488.509 411.678 488.651 411.593 488.792C411.472 488.993 411.399 489.17 411.435 489.418C411.472 489.63 411.593 489.819 411.763 489.949C411.884 490.031 412.03 490.09 412.176 490.114C412.249 490.114 412.334 490.114 412.407 490.114C412.601 490.09 412.844 489.972 412.953 489.795C413.147 489.465 413.342 489.146 413.536 488.816C413.973 488.061 414.422 487.318 414.872 486.575C415.418 485.654 415.977 484.746 416.511 483.814C417.385 482.292 418.284 480.676 419.34 478.742C420.979 475.698 422.667 472.324 424.501 468.431C426.589 463.984 428.569 459.395 430.475 454.959C431.604 452.328 432.746 449.686 433.899 447.067L433.997 446.855C437.105 439.871 440.311 432.639 442.885 425.313C444.039 422.034 445.059 418.589 446.03 414.755L446.334 413.576C446.698 412.125 447.074 410.662 447.414 409.211C448.313 405.4 449.382 400.375 449.576 395.184C449.673 392.506 449.539 390.194 449.139 388.118C448.932 387.021 448.629 385.935 448.216 384.862C447.852 383.918 447.366 382.986 446.722 382.019C446.188 381.205 445.484 380.45 444.585 379.683C443.735 378.964 442.715 378.421 441.841 377.973C440.177 377.123 438.441 376.522 436.668 376.203C436.389 376.156 436.109 376.109 435.83 376.085L435.782 376.097Z" fill="#6FC183"/>
<path d="M392.566 431.247C392.287 431.212 391.996 431.2 391.704 431.2C391.34 431.2 390.903 431.212 390.466 431.283C390.053 431.342 389.652 431.436 389.178 431.578C388.535 431.755 387.891 432.038 387.26 432.403C386.495 432.84 385.839 433.3 385.268 433.819C384.042 434.904 382.986 436.261 382.026 437.972C381.188 439.458 380.557 441.216 380.132 443.351C379.719 445.321 379.61 447.456 379.804 449.709C379.913 451.031 380.156 452.317 380.375 453.39C380.618 454.546 380.921 455.773 381.358 457.342C382.123 460.02 383.034 462.639 384.091 465.152C386.337 470.519 389.045 475.592 391.631 480.275C392.421 481.691 393.21 483.095 393.999 484.499C395.906 487.884 397.885 491.4 399.694 494.915C399.998 495.505 400.289 496.083 400.581 496.673C400.593 496.72 400.617 496.767 400.641 496.803L400.714 496.944L400.787 497.086C400.836 497.192 400.945 497.263 401.066 497.286C401.127 497.286 401.188 497.286 401.236 497.263C401.285 497.251 401.321 497.216 401.346 497.192C401.649 497.192 401.941 496.991 402.074 496.708C406.251 487.601 407.903 476.547 406.992 463.878C406.798 461.223 406.47 458.463 405.984 455.466C405.547 452.765 404.988 450.028 404.308 447.362C403.981 446.064 403.628 444.755 403.24 443.493C402.778 441.947 402.329 440.709 401.843 439.6C401.382 438.561 400.811 437.512 400.131 436.473C399.597 435.659 398.99 434.916 398.334 434.256C396.974 432.899 395.529 432.002 394.011 431.578C393.501 431.436 393.04 431.342 392.578 431.295L392.566 431.247Z" fill="#40947E"/>
<path d="M378.164 488.993C377.751 488.946 377.362 488.934 376.974 488.958C376.233 489.005 375.492 489.229 374.849 489.619C374.254 489.961 373.744 490.456 373.331 491.082C372.505 492.332 372.153 493.925 372.25 495.954C372.347 497.888 372.93 499.953 374.108 502.442C375.164 504.683 376.488 506.901 378.164 509.225C379.669 511.313 381.394 513.354 383.422 515.466C387.526 519.724 392.529 523.771 398.284 527.487C398.357 527.534 398.43 527.557 398.503 527.569C398.637 527.805 398.855 527.959 399.11 527.994C399.171 527.994 399.232 527.994 399.292 527.994C399.474 527.97 399.644 527.864 399.766 527.711C399.875 527.557 399.924 527.381 399.887 527.215C398.989 522.343 398.005 518.073 396.864 514.168C395.309 508.8 393.622 504.565 391.569 500.838C390.416 498.749 389.165 496.886 387.829 495.293C386.312 493.476 384.575 491.954 382.681 490.775C381.09 489.772 379.584 489.182 378.176 489.017L378.164 488.993Z" fill="#2E6857"/>
<path d="M461.125 458.026C460.809 457.99 460.481 457.967 460.153 457.955C458.611 457.908 456.984 458.108 455.163 458.58C453.487 459.017 451.775 459.63 449.929 460.491C448.29 461.246 446.602 462.155 444.744 463.287C443.165 464.254 441.538 465.34 439.923 466.531C437.155 468.56 434.665 470.672 432.528 472.819C430.78 474.565 429.043 476.511 427.222 478.776C425.473 480.947 423.81 483.259 422.255 485.666C419.244 490.361 416.706 495.41 414.715 500.66C411.703 508.611 410.003 516.986 409.651 525.575C409.651 525.645 409.651 525.716 409.688 525.775C409.651 525.834 409.627 525.917 409.615 525.999C409.59 526.188 409.651 526.377 409.773 526.518C409.894 526.66 410.064 526.766 410.258 526.778C410.416 526.802 410.659 526.754 410.793 526.625L410.999 526.424L411.205 526.223C411.29 526.141 411.388 526.058 411.485 525.976L411.63 525.858C411.91 525.622 412.189 525.374 412.468 525.126L413.367 524.336L414.265 523.534C415.419 522.519 416.585 521.517 417.775 520.537C419.96 518.732 421.952 517.211 423.858 515.878C426.202 514.238 428.667 512.692 431.059 511.194L431.751 510.758L432.346 510.392C438.867 506.31 445.594 502.087 451.823 497.38C455.418 494.667 458.453 492.048 461.125 489.394C464.051 486.48 466.285 483.672 467.949 480.794C469.71 477.75 470.681 474.707 470.839 471.757C470.924 470.177 470.766 468.608 470.378 467.086C469.916 465.269 469.188 463.629 468.216 462.202C467.767 461.541 467.196 460.916 466.54 460.326C465.982 459.831 465.35 459.406 464.598 459.017C463.59 458.498 462.424 458.155 461.149 458.014L461.125 458.026Z" fill="#40947E"/>
<path d="M468.471 501.215C467.791 501.132 467.038 501.108 466.188 501.108C464.695 501.12 463.067 501.297 461.197 501.639C459.667 501.922 458.077 502.3 456.328 502.807C454.956 503.208 453.645 503.657 452.406 504.14C450.524 504.872 448.751 505.851 447.403 506.618C445.169 507.892 442.91 509.437 440.712 511.207C434.932 515.831 429.917 521.847 426.202 528.607C426.177 528.642 426.177 528.689 426.177 528.725C425.898 528.925 425.801 529.291 425.923 529.61C426.032 529.869 426.275 530.046 426.566 530.082C426.7 530.093 426.833 530.082 426.942 530.034L427.987 529.633C428.497 529.433 429.007 529.244 429.517 529.043L430.27 528.737C430.925 528.465 431.581 528.206 432.249 527.946C432.929 527.687 433.657 527.439 434.483 527.191C436.122 526.696 437.822 526.259 439.425 525.846L442.133 525.162C444.829 524.478 447.634 523.782 450.366 523.039C453.511 522.178 457.628 520.998 461.671 519.417C463.541 518.686 465.168 517.954 466.613 517.199C468.228 516.35 469.564 515.501 470.693 514.604C471.907 513.637 472.83 512.669 473.498 511.631C473.862 511.065 474.142 510.499 474.336 509.944C474.542 509.354 474.664 508.717 474.712 508.045C474.773 507.207 474.712 506.429 474.542 505.721C474.372 505.025 474.105 504.423 473.705 503.857C472.867 502.654 471.555 502.029 470.596 501.71C469.94 501.498 469.236 501.344 468.435 501.25L468.471 501.215Z" fill="#2E6857"/>
<path d="M434.275 383.187C434.275 383.022 434.469 382.892 434.639 382.916C434.821 382.939 434.93 383.093 434.918 383.258C434.129 395.22 432.514 407.123 430.34 418.932C429.369 424.193 428.3 429.455 427.147 434.681C425.993 439.907 424.779 445.121 423.504 450.311C422.229 455.514 420.93 460.704 419.594 465.883C418.282 470.98 416.995 476.076 415.66 481.16C415.66 481.16 415.66 481.148 415.66 481.137C414.482 485.631 413.34 490.138 412.162 494.632C412.162 494.609 412.175 494.585 412.187 494.562C411.227 498.242 410.244 501.911 409.272 505.58C409.309 505.45 409.345 505.32 409.37 505.19C408.277 509.367 407.427 513.602 406.905 517.884C406.419 521.848 406.2 525.835 406.249 529.834C406.31 532.842 406.504 535.839 406.832 538.835C407.16 541.914 407.621 544.97 408.131 548.025C408.265 548.827 407.67 549.594 406.856 549.724C406.455 549.783 406.03 549.676 405.702 549.441C405.375 549.205 405.18 548.863 405.107 548.485C403.76 541.655 403.031 534.706 403.116 527.758C403.165 524.443 403.371 521.14 403.784 517.86C404.221 514.427 404.84 511.03 405.642 507.668C406.261 505.025 406.977 502.418 407.706 499.799C408.422 497.204 409.151 494.609 409.904 492.013C411.41 486.858 412.964 481.715 414.506 476.559C416.048 471.428 417.602 466.296 419.06 461.141C419.788 458.557 420.529 455.998 421.245 453.414C421.95 450.854 422.642 448.294 423.322 445.722C423.322 445.758 423.31 445.793 423.297 445.829C423.443 445.251 423.601 444.684 423.747 444.118C423.747 444.13 423.747 444.142 423.747 444.153C425.034 439.211 426.236 434.244 427.341 429.266C428.458 424.24 429.502 419.191 430.413 414.119C432.247 403.891 433.595 393.58 434.287 383.223L434.275 383.187ZM412.09 494.915C412.102 494.845 412.126 494.774 412.15 494.703C412.126 494.774 412.114 494.845 412.09 494.915ZM412.138 494.703C412.138 494.703 412.15 494.644 412.162 494.62C412.162 494.644 412.15 494.679 412.138 494.703ZM423.31 445.699C423.31 445.699 423.31 445.652 423.322 445.64C423.322 445.663 423.322 445.687 423.31 445.699Z" fill="#275647"/>
<path d="M389.965 441.417C389.892 441.216 390.086 441.051 390.256 441.075C390.329 441.075 390.402 441.133 390.439 441.228C391.495 444.047 392.454 446.89 393.304 449.769C395.004 455.478 396.352 461.283 397.481 467.122C398.052 470.048 398.623 472.973 399.109 475.922C399.606 478.86 400.08 481.809 400.541 484.758C400.772 486.233 400.991 487.708 401.209 489.182C401.428 490.657 401.659 492.131 401.853 493.606C402.241 496.555 402.654 499.516 403.067 502.465C403.468 505.403 403.869 508.352 404.233 511.301C404.415 512.788 404.573 514.286 404.755 515.772C404.864 516.586 404.974 517.388 405.083 518.202C405.18 518.957 405.277 519.701 405.301 520.456C405.301 520.68 405.289 520.869 405.144 521.057C405.01 521.222 404.828 521.329 404.621 521.364C404.269 521.423 403.893 521.222 403.747 520.904C403.577 520.503 403.444 520.09 403.31 519.677C402.849 518.155 402.581 516.574 402.278 515.006C401.986 513.554 401.744 512.092 401.525 510.629C401.088 507.691 400.748 504.742 400.432 501.781C400.274 500.295 400.129 498.82 399.995 497.334C399.861 495.847 399.679 494.373 399.546 492.886C399.266 489.914 399.024 486.929 398.72 483.956C398.416 480.983 398.101 478.022 397.736 475.05C397.384 472.088 396.947 469.139 396.449 466.202C395.466 460.351 394.142 454.535 392.442 448.837C391.689 446.348 390.876 443.87 389.953 441.428L389.965 441.417ZM392.454 448.884C392.454 448.884 392.442 448.849 392.442 448.825C392.442 448.849 392.442 448.86 392.454 448.884Z" fill="#275647"/>
<path d="M378.092 496.094C378.177 496.035 378.274 496.012 378.359 496.023C378.457 496.023 378.554 496.082 378.614 496.165C381.541 499.433 384.382 502.759 387.054 506.228C388.802 508.505 390.478 510.817 392.081 513.188C393.696 515.571 395.347 517.942 396.804 520.419C398.249 522.861 399.658 525.35 400.775 527.958C401.322 529.255 401.844 530.565 402.281 531.898C402.73 533.302 403.143 534.717 403.434 536.168C403.58 536.923 402.973 537.666 402.208 537.784C401.601 537.879 400.872 537.548 400.654 536.947C399.901 534.894 399.209 532.83 398.468 530.777C397.715 528.713 396.926 526.648 396.1 524.607C395.274 522.555 394.327 520.549 393.356 518.567C392.882 517.6 392.409 516.621 391.887 515.677C391.389 514.769 390.867 513.896 390.32 513.011C390.32 512.987 390.296 512.976 390.284 512.964C390.259 512.928 390.247 512.905 390.223 512.869C390.223 512.869 390.223 512.893 390.235 512.893C388.45 510.015 386.532 507.207 384.479 504.505C382.427 501.792 380.278 499.15 378.019 496.601C377.886 496.448 377.922 496.2 378.08 496.082L378.092 496.094ZM390.32 513.011C390.32 513.011 390.272 512.94 390.247 512.905C390.259 512.928 390.272 512.952 390.296 512.976C390.296 512.987 390.308 512.999 390.32 513.011Z" fill="#275647"/>
<path d="M460.138 464.951C460.235 464.868 460.357 464.845 460.466 464.856C460.587 464.868 460.697 464.927 460.782 465.022C460.94 465.21 460.891 465.482 460.709 465.647L459.361 466.756C455.852 469.658 452.367 472.583 448.955 475.592C447.109 477.219 445.287 478.883 443.466 480.558C441.645 482.245 439.835 483.956 438.062 485.701C438.062 485.701 438.075 485.701 438.087 485.678C438.075 485.69 438.05 485.713 438.038 485.725C438.002 485.76 437.977 485.784 437.941 485.819C437.941 485.819 437.941 485.819 437.953 485.808C437.698 486.055 437.455 486.303 437.212 486.551C433.57 490.22 430.048 494.006 426.794 497.994C425.179 499.976 423.637 502.028 422.168 504.116C421.439 505.154 420.735 506.204 420.043 507.266C419.399 508.257 418.767 509.248 418.172 510.263C418.197 510.215 418.221 510.168 418.245 510.121L418.124 510.345C418.124 510.345 418.087 510.416 418.063 510.451C418.063 510.428 418.087 510.416 418.1 510.392C416.545 513.094 415.173 515.878 413.947 518.733C412.793 521.422 411.797 524.171 411.032 526.979C410.51 528.972 410.097 531.001 409.842 533.042C409.709 534.092 409.612 535.142 409.539 536.192C409.502 536.699 409.466 537.195 409.442 537.702C409.43 537.973 409.405 538.245 409.381 538.528C409.369 538.717 409.345 538.894 409.332 539.082C409.332 539.141 409.332 539.188 409.332 539.247C409.369 539.507 409.332 539.755 409.247 539.991C409.187 540.097 409.126 540.203 409.065 540.309C408.835 540.604 408.495 540.805 408.118 540.864C407.73 540.923 407.329 540.816 407.013 540.592C406.734 540.392 406.467 540.026 406.455 539.672C406.455 539.495 406.455 539.306 406.418 539.118C406.394 538.988 406.37 538.846 406.345 538.717C406.309 538.445 406.272 538.174 406.26 537.903C406.212 537.254 406.188 536.605 406.188 535.956C406.188 534.812 406.248 533.656 406.357 532.511C406.612 530.105 407.086 527.734 407.73 525.398C408.349 523.133 409.138 520.915 410.085 518.768C410.571 517.671 411.081 516.586 411.64 515.524C412.247 514.368 412.902 513.235 413.582 512.115C414.845 509.991 416.23 507.927 417.662 505.91C420.625 501.757 424.001 497.864 427.486 494.113C431.02 490.314 434.735 486.704 438.56 483.189C440.418 481.478 442.3 479.815 444.207 478.163C446.04 476.571 447.923 475.013 449.793 473.444C453.217 470.59 456.702 467.794 460.15 464.974L460.138 464.951ZM418.124 510.345C418.124 510.345 418.16 510.286 418.172 510.263C418.148 510.31 418.124 510.345 418.1 510.392C418.1 510.381 418.112 510.369 418.124 510.345ZM438.038 485.725C438.038 485.725 438.062 485.701 438.062 485.69C438.026 485.725 437.99 485.76 437.953 485.796C437.978 485.772 438.002 485.749 438.026 485.713L438.038 485.725Z" fill="#275647"/>
<path d="M468.24 505.78C468.24 505.78 468.337 505.769 468.385 505.769C468.58 505.792 468.75 505.957 468.786 506.134C468.835 506.382 468.665 506.583 468.422 506.653C467.317 506.984 466.212 507.326 465.107 507.691C465.107 507.691 465.119 507.691 465.131 507.691C460.845 509.107 456.619 510.7 452.515 512.552C450.45 513.484 448.41 514.486 446.431 515.56C444.525 516.598 442.679 517.719 440.87 518.898C438.417 520.503 436.025 522.237 433.79 524.113C431.556 525.988 429.431 527.97 427.5 530.129C425.764 532.111 424.161 534.199 422.716 536.381C421.951 537.538 421.21 538.729 420.53 539.932C419.862 541.112 419.219 542.315 418.575 543.519C418.393 543.849 417.98 544.085 417.616 544.156C417.24 544.226 416.827 544.156 416.511 543.943C415.965 543.601 415.673 542.882 415.904 542.268C416.608 540.404 417.531 538.611 418.551 536.9C421.089 532.63 424.404 528.82 428.12 525.481C431.799 522.166 435.915 519.311 440.262 516.893C442.436 515.678 444.682 514.581 446.953 513.531C449.236 512.469 451.58 511.502 453.923 510.582C458.622 508.765 463.431 507.208 468.276 505.78H468.24ZM427.695 529.881C427.622 529.952 427.561 530.035 427.488 530.117C427.561 530.035 427.622 529.964 427.695 529.881ZM465.119 507.68C465.119 507.68 465.18 507.656 465.216 507.644C465.18 507.656 465.155 507.668 465.119 507.68Z" fill="#275647"/>
<path d="M428.191 385.004C428.191 385.004 428.24 385.004 428.252 385.004C428.361 385.016 428.459 385.098 428.471 385.216C428.592 385.818 428.714 386.431 428.859 387.033C429.005 387.623 429.163 388.213 429.333 388.791C429.333 388.803 429.333 388.814 429.345 388.838C429.345 388.838 429.345 388.862 429.345 388.873C429.819 390.442 430.414 391.976 431.094 393.486C431.421 394.217 431.761 394.949 432.114 395.668C432.466 396.376 432.818 397.084 433.158 397.804C433.255 398.016 433.158 398.287 432.927 398.382C432.745 398.452 432.514 398.405 432.393 398.252C431.664 397.32 431.094 396.27 430.62 395.196C430.159 394.158 429.794 393.073 429.479 391.976C428.847 389.782 428.386 387.552 427.961 385.311C427.936 385.181 428.034 385.051 428.179 385.028L428.191 385.004ZM429.345 388.779C429.345 388.779 429.357 388.814 429.357 388.838C429.357 388.838 429.357 388.826 429.357 388.814V388.779H429.345Z" fill="#275647"/>
<path d="M418.695 400.198C418.695 400.198 418.744 400.198 418.768 400.198C418.877 400.21 418.962 400.304 418.986 400.411C419.302 401.838 419.691 403.254 420.104 404.657C420.104 404.634 420.092 404.61 420.079 404.587C420.687 406.604 421.391 408.598 422.229 410.532C422.654 411.535 423.115 412.526 423.613 413.493C424.074 414.378 424.572 415.239 425.082 416.1C425.082 416.1 425.082 416.124 425.094 416.124C425.094 416.124 425.094 416.112 425.082 416.1L425.131 416.195C425.131 416.195 425.119 416.171 425.106 416.148C425.714 417.127 426.369 418.082 427.086 418.991C427.778 419.864 428.506 420.701 429.235 421.539C429.454 421.787 429.393 422.176 429.138 422.365C429.016 422.459 428.846 422.506 428.689 422.494C428.519 422.471 428.397 422.388 428.288 422.27C427.571 421.551 426.94 420.772 426.357 419.946C425.786 419.12 425.228 418.271 424.718 417.41C423.661 415.64 422.739 413.788 421.949 411.889C421.16 410.013 420.48 408.09 419.897 406.132C419.606 405.165 419.339 404.186 419.096 403.206C418.865 402.298 418.659 401.39 418.464 400.481C418.44 400.352 418.549 400.222 418.683 400.198H418.695ZM425.131 416.148C425.131 416.148 425.131 416.136 425.119 416.124C425.119 416.124 425.119 416.136 425.131 416.148Z" fill="#275647"/>
<path d="M414.348 425.502C414.348 425.502 414.433 425.479 414.481 425.479C414.566 425.479 414.651 425.537 414.688 425.62C415.914 428.711 417.42 431.684 419.168 434.527L419.144 434.491C419.958 435.801 420.82 437.087 421.755 438.313C422.204 438.915 422.678 439.505 423.139 440.095C423.613 440.696 424.086 441.286 424.511 441.912C424.596 442.03 424.645 442.147 424.621 442.301C424.608 442.431 424.523 442.56 424.414 442.643C424.305 442.726 424.159 442.773 424.026 442.749C423.88 442.737 423.771 442.667 423.661 442.56C423.091 441.971 422.593 441.31 422.131 440.637C421.67 439.977 421.221 439.293 420.783 438.62C419.921 437.299 419.096 435.942 418.318 434.562C416.728 431.743 415.38 428.817 414.202 425.809C414.153 425.679 414.202 425.538 414.336 425.479L414.348 425.502ZM419.193 434.586C419.193 434.586 419.181 434.55 419.168 434.539C419.168 434.55 419.181 434.562 419.193 434.586Z" fill="#275647"/>
<path d="M413.632 449.037C413.499 449.096 413.45 449.238 413.499 449.368C413.827 450.276 414.203 451.172 414.616 452.045C415.041 452.954 415.515 453.827 416.025 454.688C416.498 455.49 416.984 456.28 417.494 457.059C418.065 457.908 418.696 458.722 419.364 459.501C419.546 459.713 419.886 459.761 420.117 459.584C420.36 459.395 420.384 459.088 420.202 458.852C419.497 457.897 418.745 456.965 418.004 456.033C417.627 455.549 417.251 455.065 416.887 454.57C416.535 454.074 416.207 453.567 415.879 453.06C415.515 452.458 415.175 451.845 414.847 451.22C414.507 450.547 414.227 449.875 413.96 449.167C413.936 449.084 413.839 449.037 413.754 449.025C413.705 449.025 413.669 449.025 413.62 449.037H413.632Z" fill="#275647"/>
<path d="M443.517 393.958C442.63 395.255 441.671 396.53 440.651 397.733C439.619 398.936 438.563 400.104 437.445 401.236C436.547 402.121 435.624 402.982 434.701 403.832C434.227 404.268 433.742 404.693 433.256 405.106C432.758 405.542 432.26 405.967 431.799 406.427C431.763 406.462 431.726 406.498 431.69 406.533C431.629 406.616 431.593 406.71 431.58 406.805C431.568 406.946 431.605 407.1 431.702 407.229C431.896 407.477 432.273 407.512 432.528 407.324C433.098 406.911 433.645 406.427 434.167 405.943C434.725 405.436 435.272 404.905 435.806 404.374C436.826 403.36 437.785 402.286 438.72 401.201C440.615 398.995 442.315 396.647 443.942 394.241C444.015 394.123 444.003 393.97 443.893 393.887C443.857 393.863 443.808 393.852 443.772 393.84C443.687 393.84 443.59 393.863 443.541 393.934L443.517 393.958Z" fill="#275647"/>
<path d="M437.202 423.155C436.376 423.933 435.55 424.724 434.724 425.502C433.862 426.328 432.988 427.142 432.114 427.968C431.288 428.746 430.462 429.513 429.612 430.268C429.187 430.646 428.762 431.035 428.337 431.412C427.852 431.837 427.378 432.25 426.904 432.686C426.783 432.793 426.71 432.899 426.686 433.064C426.674 433.206 426.71 433.359 426.807 433.477C427.002 433.713 427.378 433.772 427.621 433.571C428.459 432.875 429.236 432.12 430.001 431.365C430.754 430.622 431.47 429.855 432.199 429.088C433.668 427.543 435.101 425.95 436.619 424.44C436.607 424.452 436.582 424.476 436.57 424.488C436.886 424.181 437.202 423.862 437.529 423.556C437.627 423.461 437.663 423.32 437.566 423.202C437.529 423.155 437.457 423.119 437.384 423.107C437.323 423.107 437.25 423.107 437.202 423.155Z" fill="#275647"/>
<path d="M429.906 446.477C429.287 447.055 428.668 447.645 428.048 448.235C427.429 448.813 426.822 449.403 426.191 449.981C424.903 451.184 423.568 452.328 422.183 453.437C421.989 453.591 421.953 453.862 422.111 454.062C422.256 454.251 422.56 454.287 422.754 454.133C423.337 453.673 423.883 453.201 424.418 452.694C424.928 452.21 425.426 451.715 425.923 451.208C426.943 450.169 427.927 449.108 428.959 448.07C428.947 448.081 428.923 448.105 428.911 448.117C429.336 447.68 429.785 447.267 430.222 446.855C430.319 446.76 430.356 446.619 430.271 446.501C430.234 446.453 430.161 446.418 430.088 446.406C430.028 446.406 429.955 446.406 429.906 446.453V446.477Z" fill="#275647"/>
<path d="M454.823 463.099C453.852 464.598 452.953 466.143 452.2 467.759C451.812 468.585 451.472 469.446 451.192 470.307C451.047 470.732 450.937 471.18 450.84 471.617C450.731 472.077 450.67 472.549 450.634 473.032C450.622 473.221 450.743 473.398 450.949 473.41C451.144 473.433 451.314 473.292 451.35 473.103C451.484 472.301 451.642 471.51 451.836 470.72C452.103 469.717 452.443 468.75 452.856 467.795C453.269 466.839 453.742 465.919 454.252 465.01C454.252 465.034 454.228 465.046 454.216 465.069C454.544 464.491 454.884 463.937 455.248 463.382C455.321 463.264 455.309 463.123 455.187 463.04C455.151 463.017 455.102 462.993 455.066 462.993C454.981 462.993 454.884 463.017 454.835 463.099H454.823Z" fill="#275647"/>
<path d="M457.773 476.925C456.583 477.55 455.345 478.093 454.082 478.577C452.807 479.06 451.495 479.461 450.184 479.815C450.208 479.815 450.232 479.803 450.257 479.792C449.504 479.992 448.763 480.169 447.998 480.334C447.185 480.511 446.359 480.665 445.545 480.806C443.918 481.078 442.267 481.266 440.627 481.49C440.385 481.526 440.215 481.738 440.251 481.974C440.287 482.21 440.518 482.363 440.749 482.34C442.218 482.175 443.675 481.927 445.12 481.632C446.614 481.337 448.095 480.995 449.552 480.606C450.985 480.216 452.394 479.768 453.778 479.249C455.211 478.718 456.607 478.093 457.955 477.373C458.077 477.314 458.15 477.185 458.101 477.043C458.065 476.96 457.98 476.901 457.882 476.89C457.846 476.89 457.797 476.89 457.761 476.913L457.773 476.925Z" fill="#275647"/>
<path d="M448.932 490.998C448.932 490.998 449.017 490.975 449.065 490.975C449.162 490.975 449.259 491.057 449.296 491.14C449.357 491.281 449.284 491.423 449.15 491.494C447.402 492.39 445.592 493.192 443.722 493.829C441.864 494.466 439.97 495.021 438.052 495.481C436.109 495.953 434.142 496.366 432.174 496.755C431.191 496.944 430.219 497.133 429.236 497.31C428.264 497.475 427.293 497.64 426.322 497.77C426.03 497.805 425.751 497.604 425.714 497.321C425.69 497.192 425.727 497.05 425.812 496.932C425.897 496.814 426.03 496.755 426.176 496.72C427.427 496.46 428.689 496.26 429.952 496.071C431.227 495.87 432.502 495.67 433.777 495.457C436.254 495.045 438.719 494.537 441.148 493.9C441.136 493.9 441.124 493.9 441.099 493.912C441.124 493.912 441.148 493.9 441.172 493.888H441.184C442.508 493.535 443.819 493.11 445.107 492.65C445.762 492.414 446.406 492.166 447.049 491.883C447.693 491.612 448.312 491.317 448.932 490.998ZM441.148 493.9C441.148 493.9 441.172 493.9 441.184 493.9C441.184 493.9 441.16 493.9 441.148 493.9Z" fill="#275647"/>
<path d="M427.319 507.785C425.74 508.34 424.15 508.871 422.535 509.307L422.62 509.283C421.6 509.555 420.592 509.791 419.56 509.979C418.455 510.192 417.337 510.31 416.22 510.369C416.087 510.369 415.965 510.463 415.892 510.558C415.82 510.664 415.783 510.782 415.795 510.911C415.832 511.183 416.087 511.36 416.366 511.324C417.301 511.23 418.224 511.077 419.135 510.9C420.082 510.711 421.005 510.463 421.927 510.192C422.875 509.92 423.81 509.602 424.745 509.283C425.68 508.965 426.615 508.623 427.55 508.293C427.695 508.245 427.756 508.068 427.695 507.939C427.647 507.844 427.562 507.785 427.465 507.773C427.416 507.773 427.367 507.773 427.331 507.785H427.319Z" fill="#275647"/>
<path d="M434.81 475.757C434.239 477.727 433.741 479.721 433.401 481.75C433.231 482.788 433.11 483.826 433.037 484.876C432.964 485.95 432.94 487.035 433.013 488.109C433.013 488.227 433.11 488.356 433.207 488.415C433.316 488.498 433.45 488.533 433.583 488.51C433.863 488.463 434.033 488.215 433.996 487.955C433.911 487.2 433.863 486.433 433.838 485.667C433.79 482.717 434.276 479.768 435.016 476.925L434.992 476.996C435.089 476.642 435.186 476.288 435.283 475.946C435.32 475.816 435.283 475.675 435.138 475.628C435.113 475.628 435.101 475.616 435.077 475.616C434.968 475.604 434.834 475.663 434.81 475.769V475.757Z" fill="#275647"/>
<path d="M421.72 493.087C421.744 492.957 421.865 492.851 421.999 492.874C422.132 492.886 422.242 493.016 422.217 493.146C421.987 494.797 421.805 496.461 421.829 498.136C421.841 498.726 421.877 499.316 421.926 499.894C421.987 500.448 422.06 501.002 422.145 501.557C422.181 501.781 422.023 501.982 421.792 502.029C421.562 502.064 421.355 501.899 421.307 501.687C421.185 500.979 421.137 500.259 421.137 499.54C421.137 498.796 421.149 498.065 421.197 497.334C421.295 495.906 421.489 494.502 421.695 493.087H421.72ZM421.841 498.053C421.841 498.053 421.841 498.065 421.841 498.077C421.841 498.077 421.841 498.065 421.841 498.053Z" fill="#275647"/>
<path d="M386.519 443.729C386.397 443.776 386.324 443.929 386.385 444.059C387.223 445.675 388.243 447.197 389.372 448.624C389.931 449.332 390.526 450.016 391.133 450.689C391.437 451.019 391.752 451.349 392.068 451.656C392.42 451.998 392.784 452.329 393.197 452.612C393.367 452.73 393.598 452.741 393.78 452.612C393.877 452.529 393.938 452.423 393.962 452.305C393.974 452.199 393.95 452.045 393.865 451.963C393.464 451.585 393.052 451.231 392.627 450.878C392.153 450.476 391.679 450.075 391.23 449.639C391.254 449.662 391.279 449.686 391.303 449.71C390.599 449.037 389.943 448.329 389.336 447.586C388.692 446.808 388.109 445.97 387.575 445.109C387.575 445.132 387.599 445.144 387.612 445.168C387.344 444.731 387.102 444.295 386.859 443.858C386.822 443.776 386.737 443.717 386.652 443.717C386.616 443.717 386.567 443.717 386.531 443.74L386.519 443.729Z" fill="#275647"/>
<path d="M386.53 458.947C386.602 458.888 386.7 458.864 386.797 458.876C386.882 458.876 386.967 458.923 387.015 458.994C388.12 460.716 389.444 462.285 390.937 463.713C391.921 464.645 392.977 465.518 394.095 466.284C394.653 466.662 395.212 467.039 395.782 467.393C396.353 467.747 396.924 468.101 397.482 468.455C397.701 468.597 397.737 468.927 397.58 469.116C397.458 469.269 397.203 469.363 397.009 469.269C395.916 468.738 394.884 468.066 393.925 467.334C392.941 466.591 392.006 465.789 391.107 464.951C390.233 464.126 389.407 463.253 388.642 462.332C387.865 461.401 387.149 460.41 386.493 459.395C386.445 459.312 386.408 459.242 386.42 459.147C386.42 459.065 386.481 458.982 386.542 458.923L386.53 458.947ZM390.852 463.654C390.852 463.654 390.877 463.677 390.889 463.689C390.877 463.677 390.865 463.666 390.852 463.654Z" fill="#275647"/>
<path d="M392.433 476.901C392.433 476.901 392.554 476.842 392.615 476.854C392.675 476.854 392.748 476.889 392.797 476.948C393.343 477.491 393.878 478.034 394.436 478.553C395.128 479.213 395.845 479.862 396.598 480.452C397.01 480.771 397.435 481.089 397.86 481.372C398.261 481.632 398.662 481.891 399.063 482.139C399.269 482.269 399.293 482.576 399.148 482.753C399.075 482.847 398.965 482.906 398.856 482.918C398.735 482.929 398.625 482.894 398.516 482.835C397.909 482.469 397.35 482.033 396.816 481.573C396.306 481.148 395.82 480.688 395.347 480.228C394.849 479.744 394.363 479.261 393.878 478.765C393.392 478.258 392.894 477.751 392.396 477.255C392.299 477.149 392.335 476.984 392.445 476.901H392.433ZM394.424 478.541C394.424 478.541 394.4 478.517 394.375 478.494C394.388 478.506 394.412 478.517 394.424 478.541Z" fill="#275647"/>
<path d="M398.343 446.135C398.198 447.893 398.04 449.651 397.821 451.397C397.603 453.143 397.311 454.889 396.874 456.611C396.874 456.576 396.886 456.54 396.898 456.505C396.716 457.236 396.498 457.956 396.267 458.675C396.036 459.395 395.781 460.115 395.575 460.846C395.551 460.952 395.526 461.047 395.575 461.153C395.623 461.247 395.696 461.33 395.806 461.365C395.915 461.401 396.024 461.401 396.134 461.365C396.243 461.318 396.304 461.247 396.352 461.141C396.644 460.575 396.862 459.985 397.056 459.383C397.238 458.805 397.384 458.215 397.53 457.626C397.676 457.012 397.785 456.399 397.882 455.773C397.991 455.148 398.088 454.535 398.161 453.909C398.331 452.659 398.453 451.397 398.562 450.146C398.671 448.825 398.756 447.504 398.854 446.183C398.866 446.053 398.769 445.923 398.623 445.899C398.489 445.888 398.344 445.982 398.331 446.124L398.343 446.135Z" fill="#275647"/>
<path d="M402.607 466.166C402.632 466.036 402.753 465.93 402.887 465.953C403.02 465.965 403.129 466.095 403.105 466.225C402.789 468.372 402.425 470.531 401.903 472.642C401.648 473.704 401.357 474.742 401.029 475.768C400.689 476.783 400.324 477.786 399.863 478.741C399.778 478.93 399.547 479.036 399.329 478.954C399.122 478.871 399.013 478.635 399.11 478.435C399.584 477.349 400.069 476.252 400.458 475.131C400.847 474.034 401.199 472.914 401.49 471.793C401.49 471.805 401.49 471.828 401.49 471.84C401.976 469.964 402.328 468.065 402.607 466.154V466.166ZM401.502 471.805V471.781C401.502 471.781 401.502 471.793 401.502 471.805Z" fill="#275647"/>
<path d="M376.476 500.153C376.537 500.082 376.622 500.047 376.707 500.059C376.756 500.059 376.792 500.082 376.841 500.106C377.168 500.307 377.484 500.495 377.824 500.672C377.824 500.672 377.812 500.672 377.8 500.66C378.844 501.227 379.925 501.722 381.03 502.17C381.564 502.383 382.098 502.583 382.633 502.784C383.167 502.973 383.701 503.173 384.223 503.374C384.381 503.433 384.454 503.61 384.393 503.763C384.357 503.834 384.308 503.893 384.223 503.928C384.138 503.964 384.066 503.952 383.981 503.928C383.313 503.751 382.657 503.515 382.001 503.256C381.358 502.996 380.714 502.725 380.083 502.43C378.868 501.852 377.678 501.203 376.537 500.507C376.416 500.436 376.403 500.259 376.488 500.165L376.476 500.153ZM377.776 500.66C377.776 500.66 377.751 500.661 377.739 500.637C377.739 500.637 377.763 500.637 377.776 500.66Z" fill="#275647"/>
<path d="M381.819 509.201C381.746 509.295 381.759 509.472 381.868 509.555C383.264 510.392 384.673 511.206 386.118 511.961C386.859 512.339 387.599 512.716 388.352 513.082C389.105 513.448 389.858 513.802 390.635 514.108C390.817 514.179 391.036 514.097 391.109 513.908C391.145 513.813 391.145 513.719 391.109 513.636C391.072 513.542 390.999 513.495 390.914 513.448C390.283 513.141 389.627 512.846 388.984 512.563C388.34 512.28 387.697 511.985 387.065 511.69C386.434 511.395 385.79 511.088 385.171 510.782C384.539 510.463 383.92 510.133 383.301 509.802C382.924 509.59 382.548 509.378 382.184 509.154C382.147 509.13 382.099 509.118 382.05 509.106C381.965 509.106 381.88 509.13 381.819 509.201Z" fill="#275647"/>
<path d="M389.628 518.084C389.568 518.108 389.519 518.155 389.495 518.214C389.47 518.273 389.47 518.344 389.495 518.403C389.519 518.473 389.568 518.497 389.628 518.532C391.085 519.323 392.64 519.913 394.23 520.396C394.315 520.42 394.413 520.432 394.498 520.396C394.583 520.361 394.643 520.29 394.68 520.219C394.716 520.137 394.716 520.042 394.68 519.96C394.643 519.889 394.583 519.806 394.498 519.783C393.696 519.547 392.895 519.311 392.105 519.051C391.316 518.78 390.551 518.462 389.823 518.072C389.81 518.072 389.786 518.061 389.762 518.061C389.713 518.061 389.665 518.061 389.628 518.084Z" fill="#275647"/>
<path d="M386.19 498.242C386.068 498.254 385.935 498.396 385.971 498.525C386.214 499.375 386.445 500.224 386.675 501.073C386.785 501.498 386.882 501.923 386.991 502.347C387.088 502.772 387.173 503.197 387.258 503.622C387.44 504.471 387.586 505.332 387.732 506.181C387.89 507.113 388.035 508.045 388.205 508.966C388.242 509.166 388.424 509.308 388.642 509.272C388.849 509.237 388.982 509.048 388.958 508.848C388.788 507.102 388.363 505.391 387.938 503.704C387.732 502.855 387.489 502.017 387.27 501.18C387.027 500.271 386.76 499.363 386.493 498.455C386.469 498.384 386.445 498.337 386.396 498.289C386.36 498.266 386.323 498.242 386.275 498.242C386.25 498.242 386.226 498.242 386.202 498.242H386.19Z" fill="#275647"/>
<path d="M392.906 509.991C392.772 510.015 392.663 510.145 392.687 510.274C392.869 511.218 393.039 512.162 393.173 513.117C393.318 514.132 393.428 515.146 393.513 516.173C393.513 516.314 393.683 516.42 393.828 516.397C393.901 516.385 393.962 516.35 394.011 516.291C394.059 516.232 394.071 516.161 394.059 516.09C393.926 514.108 393.573 512.15 393.173 510.204C393.148 510.097 393.063 510.003 392.942 509.991C392.918 509.991 392.906 509.991 392.881 509.991H392.906Z" fill="#275647"/>
<path d="M465.082 503.243C463.564 504.565 462.107 506.098 461.403 507.998C461.342 508.151 461.427 508.316 461.573 508.375C461.73 508.434 461.9 508.352 461.961 508.21C462.119 507.809 462.301 507.431 462.508 507.054C462.763 506.617 463.03 506.205 463.333 505.792C463.637 505.391 463.989 505.013 464.341 504.647C464.329 504.659 464.305 504.683 464.293 504.695C464.657 504.329 465.021 503.987 465.41 503.645C465.519 503.55 465.543 503.397 465.446 503.291C465.398 503.243 465.337 503.208 465.264 503.196C465.191 503.196 465.13 503.196 465.07 503.255L465.082 503.243Z" fill="#275647"/>
<path d="M453.328 505.769C453.328 505.769 453.376 505.769 453.389 505.769C453.437 505.769 453.474 505.792 453.51 505.816C453.571 505.851 453.607 505.91 453.619 505.981C453.619 506.04 453.619 506.111 453.571 506.158C452.964 506.795 452.381 507.444 451.859 508.128C451.336 508.812 450.851 509.52 450.426 510.263C450.426 510.263 450.426 510.275 450.426 510.287C450.426 510.31 450.401 510.322 450.401 510.346C450.401 510.346 450.401 510.346 450.401 510.334C450.195 510.723 450.001 511.124 449.831 511.525C449.661 511.95 449.503 512.375 449.345 512.811C449.284 512.976 449.078 513.059 448.92 513C448.835 512.965 448.762 512.906 448.738 512.823C448.701 512.74 448.714 512.67 448.738 512.575C448.908 511.903 449.163 511.266 449.491 510.652C449.806 510.063 450.159 509.485 450.547 508.942C451.324 507.845 452.235 506.842 453.17 505.875C453.219 505.816 453.267 505.78 453.34 505.769H453.328ZM450.426 510.275C450.426 510.275 450.426 510.275 450.426 510.263C450.426 510.287 450.401 510.299 450.401 510.322L450.426 510.287V510.275Z" fill="#275647"/>
<path d="M441.15 512.54C441.199 512.457 441.296 512.434 441.381 512.434C441.43 512.434 441.466 512.457 441.503 512.481C441.563 512.516 441.6 512.575 441.612 512.646C441.612 512.717 441.6 512.764 441.563 512.823C441.539 512.882 441.503 512.929 441.478 512.988L441.503 512.929C441.175 513.519 440.883 514.132 440.64 514.769C440.507 515.111 440.373 515.465 440.264 515.819C440.179 516.102 440.106 516.386 440.033 516.669C440.033 516.657 440.033 516.645 440.033 516.633C439.924 517.117 439.839 517.589 439.766 518.072C439.742 518.261 439.572 518.415 439.365 518.391C439.171 518.367 439.013 518.19 439.038 518.002C439.317 516.055 440.143 514.25 441.114 512.54H441.15ZM440.033 516.716C440.033 516.716 440.033 516.68 440.033 516.669C440.033 516.68 440.033 516.704 440.033 516.716Z" fill="#275647"/>
<path d="M466.405 511.49C464.96 511.69 463.515 511.82 462.058 511.856C462.082 511.856 462.106 511.856 462.131 511.856C460.977 511.879 459.811 511.844 458.658 511.738C457.407 511.631 456.181 511.407 454.954 511.136C454.991 511.136 455.027 511.148 455.051 511.16C454.736 511.089 454.42 511.006 454.104 510.935C453.995 510.912 453.898 510.9 453.801 510.935C453.703 510.983 453.618 511.065 453.582 511.16C453.546 511.254 453.546 511.372 453.582 511.454C453.618 511.549 453.703 511.643 453.813 511.667C455.853 512.186 457.941 512.434 460.042 512.469C462.191 512.504 464.341 512.28 466.478 511.985C466.611 511.962 466.708 511.832 466.684 511.702C466.672 511.584 466.575 511.502 466.466 511.49C466.441 511.49 466.417 511.49 466.405 511.49Z" fill="#275647"/>
<path d="M454.847 517.647C453.693 517.859 452.528 517.966 451.362 518.001C451.386 518.001 451.423 518.001 451.447 518.001C449.856 518.036 448.266 517.918 446.675 517.742C445.011 517.553 443.36 517.27 441.708 517.057C441.526 517.034 441.344 517.175 441.332 517.352C441.332 517.447 441.344 517.529 441.405 517.6C441.466 517.671 441.538 517.706 441.636 517.73C442.716 517.918 443.797 518.084 444.89 518.225C446.031 518.379 447.173 518.508 448.326 518.579C449.371 518.65 450.427 518.662 451.471 518.626C452.637 518.591 453.803 518.461 454.956 518.249C455.126 518.213 455.248 518.072 455.211 517.907C455.187 517.777 455.078 517.671 454.932 517.647C454.908 517.647 454.883 517.647 454.847 517.647Z" fill="#275647"/>
<path d="M440.152 523.003C439.849 523.062 439.533 523.109 439.217 523.145C438.901 523.18 438.586 523.192 438.27 523.204C438.294 523.204 438.319 523.204 438.343 523.204C437.59 523.215 436.825 523.18 436.072 523.109C435.259 523.039 434.445 522.909 433.631 522.803C433.474 522.779 433.316 522.909 433.304 523.062C433.279 523.227 433.413 523.357 433.571 523.381C434.7 523.546 435.829 523.676 436.959 523.723C438.052 523.77 439.144 523.699 440.225 523.499C440.371 523.475 440.468 523.357 440.444 523.215C440.432 523.109 440.334 523.015 440.225 523.003C440.201 523.003 440.177 523.003 440.152 523.003Z" fill="#275647"/>
<path d="M440.179 524.431L438.989 534.293L438.795 535.933L438.224 540.628L438.03 542.268L437.447 547.081L437.253 548.72L434.678 570.085L432.978 584.194C416.634 586.199 401.383 586.081 387.018 584.194L384.31 561.803L382.731 548.72L382.537 547.081L381.954 542.268L381.76 540.628L381.189 535.933L380.995 534.293L379.805 524.431H440.179Z" fill="#FB9024"/>
<path d="M438.99 534.305L438.796 535.933H381.19L380.996 534.305H438.99Z" fill="#FBB94D"/>
<path d="M438.226 540.628L438.032 542.268H381.956L381.762 540.628H438.226Z" fill="#FBB94D"/>
<path d="M437.449 547.081L437.255 548.721H382.733L382.539 547.081H437.449Z" fill="#FBB94D"/>
<path d="M434.677 570.072L432.977 584.181C416.633 586.187 401.381 586.069 387.016 584.181L384.309 561.791C395.019 566.203 414.314 572.337 434.677 570.072Z" fill="#FBB94D"/>
<path d="M112.988 369.302C112.988 369.302 115.757 365.067 120.213 365.846C124.67 366.636 123.334 379.011 112.988 379.506V376.652C112.988 376.652 117.02 378.044 119.63 374.115C123.043 368.995 119.995 361.964 113.219 372.369L112.988 369.278V369.302Z" fill="#5681BF"/>
<path d="M103.006 365.231H91.7617L92.8667 379.836C93.0853 382.75 95.5746 385.003 98.5739 385.003H107.45C110.45 385.003 112.939 382.75 113.157 379.836L114.262 365.231H103.018H103.006Z" fill="#5681BF"/>
<path d="M114.251 365.231L114.093 367.402L114.056 367.862C113.206 368.594 108.568 369.16 102.97 369.16C97.3721 369.16 92.9521 368.617 91.9564 367.909L91.9079 367.367L91.75 365.231H114.251Z" fill="#3D5891"/>
<g opacity="0.5">
<path d="M108.582 365.231L107.477 379.836C107.258 382.75 104.769 385.003 101.77 385.003H107.452C110.452 385.003 112.941 382.75 113.16 379.836L114.265 365.231H108.582Z" fill="#3D5891"/>
</g>
<path d="M114.19 365.232C114.19 366.081 109.163 366.777 102.97 366.777C96.7771 366.777 91.75 366.093 91.75 365.232C91.75 364.371 96.7771 363.687 102.97 363.687C109.163 363.687 114.19 364.371 114.19 365.232Z" fill="#2F4171"/>
<path d="M102.969 366.777C107.025 366.777 110.583 366.482 112.562 366.034C110.655 365.562 106.964 365.231 102.714 365.231C98.4639 365.231 95.1004 365.526 93.1211 365.975C95.0275 366.447 98.719 366.777 102.969 366.777Z" fill="#243354"/>
<g opacity="0.5">
<path d="M99.2561 365.067C98.7583 365.067 98.2726 364.984 97.7868 364.878C97.3011 364.772 96.8276 364.63 96.3661 364.442C95.4311 364.076 94.5326 363.545 93.7676 362.79C93.379 362.413 93.039 361.976 92.7597 361.504C92.4804 361.021 92.2861 360.49 92.1526 359.935C91.9097 358.838 92.0068 357.682 92.3104 356.715C92.5533 355.712 93.0268 354.78 93.549 353.907C94.0954 353.046 94.739 352.279 95.4068 351.571C96.7426 350.167 98.1997 349.035 99.2197 347.749C99.7418 347.112 100.118 346.428 100.337 345.708L100.422 345.437C100.446 345.343 100.47 345.236 100.483 345.142C100.519 344.941 100.58 344.741 100.604 344.54C100.628 344.34 100.653 344.139 100.677 343.951V343.372C100.653 342.606 100.434 341.921 100.009 341.391C99.584 340.848 98.904 340.482 98.1268 340.27C97.9326 340.211 97.7261 340.187 97.5197 340.14C97.3133 340.117 97.1068 340.081 96.8883 340.069C96.6818 340.069 96.4511 340.034 96.2568 340.058L95.9654 340.081C95.8683 340.081 95.7711 340.093 95.6861 340.117C94.9454 340.246 94.2411 340.647 93.8404 341.308L93.6947 341.556L93.5854 341.827C93.5368 341.91 93.5126 342.004 93.5004 342.098L93.4276 342.382C93.3911 342.771 93.379 343.172 93.5004 343.561C93.6947 344.352 94.229 345.083 94.9454 345.614C95.0304 345.673 95.0426 345.791 94.9818 345.873C94.9211 345.944 94.824 345.968 94.739 345.921C93.889 345.472 93.1361 344.741 92.7597 343.785C92.5533 343.325 92.4926 342.806 92.4804 342.287C92.5169 341.78 92.614 341.237 92.8811 340.777C93.3426 339.798 94.314 339.09 95.3704 338.783C95.6376 338.677 95.9047 338.677 96.184 338.63C96.4633 338.595 96.694 338.607 96.949 338.595C97.204 338.595 97.459 338.607 97.714 338.618C97.969 338.654 98.2361 338.677 98.4911 338.725C98.7461 338.783 99.0133 338.819 99.2683 338.913L99.6568 339.043L100.033 339.22C100.288 339.326 100.519 339.491 100.762 339.645C100.98 339.822 101.211 339.999 101.405 340.211C102.195 341.06 102.595 342.181 102.693 343.231C102.705 343.49 102.717 343.75 102.729 344.009C102.729 344.269 102.705 344.517 102.693 344.776C102.68 345.036 102.632 345.272 102.595 345.52C102.571 345.649 102.559 345.767 102.535 345.897L102.438 346.286C102.316 346.805 102.098 347.289 101.879 347.773L101.49 348.445C101.357 348.669 101.199 348.87 101.053 349.082C100.446 349.896 99.7783 350.604 99.1104 351.265C98.4547 351.925 97.799 352.55 97.204 353.187C96.6211 353.825 96.0868 354.473 95.6618 355.169C95.2611 355.865 94.8969 356.585 94.7269 357.364C94.2776 358.874 94.4476 360.242 95.3583 361.504C96.269 362.767 97.7626 363.816 99.3654 364.725C99.4626 364.784 99.4868 364.902 99.4383 364.996C99.4018 365.055 99.329 365.091 99.2683 365.091L99.2561 365.067Z" fill="#D1DBED"/>
</g>
<g opacity="0.5">
<path d="M103.723 361.728C103.954 361.374 104.112 360.938 104.172 360.525C104.233 360.1 104.197 359.676 104.124 359.251C104.027 358.838 103.881 358.425 103.699 358.024C103.614 357.824 103.492 357.635 103.383 357.434L103.031 356.797C102.096 355.087 101.246 353.282 101.003 351.194C100.979 350.934 100.955 350.675 100.979 350.392C100.979 350.262 100.979 350.12 101.003 349.99L101.076 349.578C101.1 349.306 101.234 349.035 101.319 348.764C101.38 348.634 101.452 348.504 101.525 348.374C101.598 348.245 101.659 348.115 101.756 348.009L102.035 347.667C102.132 347.56 102.254 347.466 102.363 347.372C102.582 347.171 102.825 347.029 103.067 346.9C103.577 346.652 104.16 346.416 104.84 346.522C105.508 346.605 106.091 347.065 106.37 347.584C106.662 348.103 106.747 348.669 106.735 349.2C106.674 350.262 106.237 351.229 105.63 352.008C105.569 352.09 105.447 352.102 105.362 352.043C105.29 351.984 105.265 351.89 105.314 351.807C105.751 350.981 105.982 350.073 105.921 349.212C105.872 348.787 105.751 348.386 105.545 348.091C105.326 347.784 105.035 347.631 104.731 347.608C104.087 347.572 103.274 348.15 102.861 348.74C102.412 349.353 102.375 350.203 102.46 351.052C102.557 351.913 102.837 352.786 103.165 353.648C103.492 354.509 103.881 355.358 104.282 356.219L104.585 356.868C104.682 357.116 104.792 357.34 104.877 357.588C105.047 358.083 105.156 358.602 105.192 359.121C105.241 360.171 104.925 361.304 104.063 362C103.978 362.07 103.857 362.059 103.796 361.976C103.735 361.917 103.735 361.823 103.784 361.752L103.808 361.728H103.723Z" fill="#D1DBED"/>
</g>
<g opacity="0.5">
<path d="M107.547 361.976C108.555 360.761 109.259 359.416 109.745 358.071C110.231 356.714 110.449 355.311 110.498 353.895L110.522 353.364L110.498 352.833V352.302C110.473 352.125 110.449 351.948 110.437 351.783C110.364 351.087 110.206 350.391 110 349.707C109.599 348.327 108.956 346.982 108.239 345.602C107.875 344.906 107.511 344.21 107.146 343.466C106.782 342.735 106.43 341.945 106.199 341.072C105.956 340.211 105.835 339.196 106.078 338.205C106.187 337.71 106.406 337.249 106.648 336.825C106.928 336.412 107.207 336.058 107.559 335.716C107.923 335.386 108.348 335.067 108.883 334.878C109.417 334.678 110.061 334.642 110.607 334.819C111.166 334.985 111.603 335.315 111.931 335.681C112.271 336.046 112.513 336.447 112.683 336.872C113.4 338.535 113.084 340.505 111.931 341.744C111.858 341.827 111.736 341.827 111.651 341.756C111.578 341.697 111.566 341.603 111.615 341.52C112.38 340.187 112.258 338.571 111.554 337.415C111.214 336.837 110.656 336.4 110.194 336.341C109.963 336.306 109.757 336.341 109.551 336.459C109.344 336.565 109.126 336.754 108.931 336.99C108.737 337.214 108.555 337.521 108.421 337.78C108.3 338.052 108.191 338.323 108.166 338.606C108.13 338.889 108.13 339.172 108.178 339.479C108.215 339.774 108.3 340.093 108.421 340.411C108.895 341.685 109.757 343.006 110.546 344.398C111.348 345.79 112.125 347.289 112.647 348.928C112.902 349.754 113.096 350.604 113.193 351.465C113.254 351.901 113.266 352.326 113.278 352.762V353.411C113.278 353.624 113.266 353.848 113.242 354.06C113.108 355.782 112.586 357.505 111.639 358.979C110.692 360.442 109.381 361.681 107.753 362.294C107.656 362.33 107.535 362.294 107.498 362.188C107.474 362.117 107.486 362.047 107.523 361.999V361.976H107.547Z" fill="#D1DBED"/>
</g>
<path d="M85.8606 134.768H92.5634V164.932C89.127 165.569 86.6013 165.817 83.857 165.817C75.6727 165.817 71.3984 162.219 71.3984 155.318C71.3984 148.417 75.9277 144.358 82.9463 144.358C84.0391 144.358 84.8649 144.441 85.8606 144.701V134.768ZM85.8606 149.962C85.0713 149.714 84.4277 149.62 83.5899 149.62C80.1899 149.62 78.2349 151.649 78.2349 155.2C78.2349 158.751 80.1049 160.579 83.5534 160.579C84.2941 160.579 84.9013 160.532 85.8606 160.414V149.962Z" fill="#092E20"/>
<path d="M103.237 144.842V159.954C103.237 165.156 102.849 167.657 101.671 169.816C100.578 171.892 99.1453 173.202 96.1824 174.641L89.9531 171.762C92.916 170.406 94.3488 169.226 95.2717 167.409C96.231 165.545 96.5346 163.387 96.5346 157.724V144.865H103.237V144.842ZM96.5224 134.803H103.225V141.492H96.5224V134.803Z" fill="#092E20"/>
<path d="M107.291 146.317C110.254 144.96 113.083 144.37 116.18 144.37C119.616 144.37 121.887 145.255 122.882 146.989C123.453 147.956 123.623 149.23 123.623 151.944V165.192C120.612 165.616 116.823 165.911 114.042 165.911C108.42 165.911 105.895 164.012 105.895 159.777C105.895 155.211 109.246 153.088 117.479 152.416V150.976C117.479 149.797 116.872 149.372 115.172 149.372C112.695 149.372 109.902 150.044 107.291 151.366V146.328V146.317ZM117.782 156.686C113.338 157.111 111.905 157.783 111.905 159.482C111.905 160.756 112.731 161.346 114.565 161.346C115.572 161.346 116.483 161.263 117.782 161.051V156.698V156.686Z" fill="#092E20"/>
<path d="M126.891 145.857C130.849 144.842 134.116 144.37 137.431 144.37C140.746 144.37 143.356 145.137 144.838 146.612C146.234 148.004 146.671 149.525 146.671 152.793V165.569H139.968V153.041C139.968 150.54 139.094 149.608 136.702 149.608C135.791 149.608 134.966 149.691 133.606 150.068V165.557H126.903V145.833L126.891 145.857Z" fill="#092E20"/>
<path d="M149.272 169.132C151.628 170.311 153.971 170.866 156.461 170.866C160.856 170.866 162.739 169.132 162.739 164.979V164.849C161.427 165.486 160.128 165.734 158.379 165.734C152.502 165.734 148.75 161.971 148.75 156.002C148.75 148.593 154.287 144.405 164.086 144.405C166.964 144.405 169.624 144.7 172.841 145.337L170.546 150.032C168.761 149.69 170.401 149.985 169.053 149.855V150.528L169.138 153.277L169.186 156.827C169.235 157.712 169.235 158.609 169.271 159.493V161.275C169.271 166.867 168.798 169.485 167.353 171.644C165.264 174.818 161.646 176.387 156.509 176.387C153.899 176.387 151.628 176.009 149.284 175.113V169.108L149.272 169.132ZM162.605 149.655H161.913C160.601 149.608 159.084 149.95 158.039 150.587C156.424 151.472 155.599 153.088 155.599 155.365C155.599 158.62 157.25 160.484 160.213 160.484C161.124 160.484 161.864 160.319 162.739 160.06V157.818C162.739 157.052 162.69 156.214 162.69 155.317L162.641 152.309L162.593 150.15V149.643L162.605 149.655Z" fill="#092E20"/>
<path d="M183.247 144.288C189.95 144.288 194.054 148.393 194.054 155.035C194.054 161.677 189.78 166.124 182.992 166.124C176.204 166.124 172.148 162.019 172.148 155.413C172.148 148.559 176.423 144.288 183.259 144.288H183.247ZM183.126 160.874C185.7 160.874 187.218 158.798 187.218 155.2C187.218 151.602 185.736 149.526 183.162 149.526C180.588 149.526 178.985 151.602 178.985 155.2C178.985 158.798 180.515 160.874 183.126 160.874Z" fill="#092E20"/>
<defs>
<filter id="filter0_d_3402_194" x="48.0469" y="73.1572" width="177.348" height="172.864" filterUnits="userSpaceOnUse" color-interpolation-filters="sRGB">
<feFlood flood-opacity="0" result="BackgroundImageFix"/>
<feColorMatrix in="SourceAlpha" type="matrix" values="0 0 0 0 0 0 0 0 0 0 0 0 0 0 0 0 0 0 127 0" result="hardAlpha"/>
<feOffset dx="4" dy="4"/>
<feGaussianBlur stdDeviation="5"/>
<feColorMatrix type="matrix" values="0 0 0 0 0.0705882 0 0 0 0 0.113725 0 0 0 0 0.196078 0 0 0 0.59 0"/>
<feBlend mode="normal" in2="BackgroundImageFix" result="effect1_dropShadow_3402_194"/>
<feBlend mode="normal" in="SourceGraphic" in2="effect1_dropShadow_3402_194" result="shape"/>
</filter>
</defs>
</svg>
