<svg width="575" height="508" viewBox="0 0 575 508" fill="none" xmlns="http://www.w3.org/2000/svg">
<path d="M574.05 445.877H0V447.24H574.05V445.877Z" fill="#EBEBEB"/>
<path d="M561.645 468.362H516.484V468.703H561.645V468.362Z" fill="#EBEBEB"/>
<path d="M359.212 468.539H347.363V468.88H359.212V468.539Z" fill="#EBEBEB"/>
<path d="M515.108 455.708H431.332V456.049H515.108V455.708Z" fill="#EBEBEB"/>
<path d="M255.171 463.754H237.867V464.095H255.171V463.754Z" fill="#EBEBEB"/>
<path d="M225.739 463.754H175.52V464.095H225.739V463.754Z" fill="#EBEBEB"/>
<path d="M54.3936 457.999H19.7188V458.34H54.3936V457.999Z" fill="#EBEBEB"/>
<path d="M164.69 457.999H62.5742V458.34H164.69V457.999Z" fill="#EBEBEB"/>
<path d="M271.347 385.609H8.06124C5.99868 385.605 4.02183 384.783 2.56465 383.324C1.10748 381.864 0.289059 379.886 0.289063 377.823V7.71763C0.307018 5.6669 1.13336 3.70607 2.58859 2.26105C4.04383 0.816021 6.01043 0.00351301 8.06124 0H271.347C273.412 0 275.392 0.820288 276.852 2.28041C278.313 3.74053 279.133 5.72088 279.133 7.78581V377.823C279.133 379.888 278.313 381.868 276.852 383.328C275.392 384.789 273.412 385.609 271.347 385.609ZM8.06124 0.272709C6.08908 0.276321 4.19894 1.06229 2.80569 2.45809C1.41245 3.85389 0.629944 5.74547 0.629947 7.71763V377.823C0.629944 379.795 1.41245 381.687 2.80569 383.083C4.19894 384.478 6.08908 385.264 8.06124 385.268H271.347C273.32 385.264 275.212 384.479 276.607 383.083C278.003 381.688 278.788 379.796 278.792 377.823V7.71763C278.788 5.74422 278.003 3.85267 276.607 2.45726C275.212 1.06184 273.32 0.276313 271.347 0.272709H8.06124Z" fill="#EBEBEB"/>
<path d="M566.292 385.609H302.993C300.929 385.605 298.951 384.784 297.491 383.324C296.032 381.865 295.211 379.887 295.207 377.823V7.71763C295.229 5.66566 296.058 3.70484 297.515 2.26019C298.973 0.815545 300.941 0.00347469 302.993 0H566.292C568.341 0.00709653 570.304 0.82119 571.756 2.26583C573.208 3.71047 574.033 5.66926 574.051 7.71763V377.823C574.051 379.883 573.234 381.859 571.78 383.319C570.326 384.778 568.352 385.602 566.292 385.609ZM302.993 0.272709C301.019 0.276313 299.128 1.06184 297.732 2.45726C296.337 3.85267 295.552 5.74422 295.548 7.71763V377.823C295.552 379.796 296.337 381.688 297.732 383.083C299.128 384.479 301.019 385.264 302.993 385.268H566.292C568.266 385.264 570.157 384.479 571.553 383.083C572.948 381.688 573.734 379.796 573.737 377.823V7.71763C573.734 5.74422 572.948 3.85267 571.553 2.45726C570.157 1.06184 568.266 0.276313 566.292 0.272709H302.993Z" fill="#EBEBEB"/>
<path d="M46.5498 300.278H231.582L231.582 41.5059H46.5498L46.5498 300.278Z" fill="white"/>
<path d="M42.4482 300.278H227.48L227.48 41.5059H42.4482L42.4482 300.278Z" fill="#F5F5F5"/>
<path d="M220.09 291.988L220.09 49.7959L49.8247 49.7959L49.8247 291.988H220.09Z" fill="white"/>
<path d="M52.9336 291.988L52.9336 49.7959H49.8247L49.8247 291.988H52.9336Z" fill="#E6E6E6"/>
<path d="M45.5022 142.095L224.426 142.095V130.968L45.5022 130.968V142.095Z" fill="#F5F5F5"/>
<path d="M34.3896 27.7754H239.629C239.931 27.779 240.219 27.9012 240.431 28.1156C240.642 28.3301 240.761 28.6193 240.761 28.9208C240.761 29.2209 240.642 29.5088 240.43 29.721C240.217 29.9333 239.93 30.0525 239.629 30.0525H34.3896C34.0894 30.0525 33.8015 29.9333 33.5893 29.721C33.3771 29.5088 33.2578 29.2209 33.2578 28.9208C33.2578 28.6193 33.3766 28.3301 33.5885 28.1156C33.8003 27.9012 34.0881 27.779 34.3896 27.7754Z" fill="white"/>
<path d="M27.5745 28.9202C27.5852 30.0424 27.9278 31.1363 28.5591 32.0641C29.1904 32.992 30.0822 33.7123 31.122 34.1343C32.1619 34.5563 33.3034 34.6611 34.4028 34.4356C35.5021 34.2101 36.5102 33.6643 37.2999 32.867C38.0897 32.0697 38.6258 31.0565 38.8408 29.955C39.0558 28.8536 38.9401 27.7131 38.5082 26.6773C38.0762 25.6415 37.3475 24.7567 36.4136 24.1343C35.4798 23.5119 34.3827 23.1797 33.2604 23.1797C32.5091 23.1797 31.7653 23.3285 31.0718 23.6177C30.3784 23.9068 29.7492 24.3305 29.2204 24.8643C28.6917 25.3981 28.2741 26.0313 27.9915 26.7275C27.709 27.4237 27.5673 28.1689 27.5745 28.9202Z" fill="white"/>
<path d="M230.043 35.2886C230.45 35.2851 230.84 35.1216 231.128 34.8334C231.417 34.5452 231.58 34.1554 231.584 33.7478V30.4481C231.58 30.0418 231.416 29.6534 231.128 29.3674C230.839 29.0813 230.449 28.9209 230.043 28.9209C229.638 28.9209 229.249 29.0818 228.963 29.3682C228.677 29.6546 228.516 30.043 228.516 30.4481V33.7478C228.516 34.1541 228.676 34.544 228.962 34.8325C229.248 35.1211 229.637 35.285 230.043 35.2886Z" fill="white"/>
<path d="M51.5311 35.2886C51.9386 35.2851 52.3285 35.1216 52.6166 34.8334C52.9048 34.5452 53.0683 34.1554 53.0719 33.7478V30.4481C53.0683 30.0418 52.9044 29.6534 52.6158 29.3674C52.3272 29.0813 51.9374 28.9209 51.5311 28.9209C51.126 28.9209 50.7376 29.0818 50.4512 29.3682C50.1648 29.6546 50.0039 30.043 50.0039 30.4481V33.7478C50.0039 34.1541 50.1644 34.544 50.4504 34.8325C50.7364 35.1211 51.1248 35.285 51.5311 35.2886Z" fill="#E6E6E6"/>
<path opacity="0.5" d="M195.303 239.069L63.871 239.069C56.1501 239.069 48.7455 236.002 43.286 230.543C37.8265 225.083 34.7594 217.679 34.7594 209.958L34.7594 28.9207L224.414 28.9207L224.414 209.958C224.414 217.679 221.347 225.083 215.887 230.543C210.428 236.002 203.023 239.069 195.303 239.069Z" fill="white"/>
<path d="M206.102 28.9202C206.113 30.043 206.456 31.1374 207.088 32.0656C207.72 32.9937 208.612 33.714 209.653 34.1356C210.693 34.5572 211.836 34.6612 212.935 34.4346C214.035 34.208 215.043 33.6608 215.832 32.8621C216.621 32.0635 217.156 31.049 217.37 29.9466C217.583 28.8443 217.466 27.7034 217.032 26.6679C216.598 25.6323 215.867 24.7484 214.931 24.1277C213.996 23.5069 212.897 23.1771 211.774 23.1797C211.024 23.1796 210.28 23.3286 209.588 23.6179C208.895 23.9072 208.267 24.3312 207.739 24.8651C207.211 25.3991 206.795 26.0325 206.514 26.7286C206.233 27.4246 206.093 28.1696 206.102 28.9202Z" fill="white"/>
<path d="M509.104 43.3057H350.824V202.008H509.104V43.3057Z" fill="white"/>
<path d="M495.128 118.492C495.128 82.5028 465.953 53.3281 429.964 53.3281C393.975 53.3281 364.801 82.5028 364.801 118.492V126.823C364.801 162.812 393.975 191.986 429.964 191.986C465.953 191.986 495.128 162.812 495.128 126.823V118.492Z" fill="#DEDEDE"/>
<path d="M454.81 93.0479H405.136C403.48 93.0479 402.137 94.3909 402.137 96.0476V149.28C402.137 150.937 403.48 152.28 405.136 152.28H454.81C456.467 152.28 457.81 150.937 457.81 149.28V96.0476C457.81 94.3909 456.467 93.0479 454.81 93.0479Z" fill="#F5F5F5"/>
<path d="M200.266 441.132H236.781V360.151H200.266V441.132Z" fill="#F0F0F0"/>
<path d="M49.6636 446.245H229.773V441.118H49.6636V446.245Z" fill="#F0F0F0"/>
<path d="M200.264 360.138H42.6523V441.118H200.264V360.138Z" fill="white"/>
<path d="M185.909 397.348H57.0138C56.833 397.348 56.6596 397.276 56.5317 397.148C56.4039 397.021 56.332 396.847 56.332 396.666V370.105C56.332 369.924 56.4039 369.75 56.5317 369.623C56.6596 369.495 56.833 369.423 57.0138 369.423H185.909C186.089 369.426 186.26 369.499 186.387 369.626C186.514 369.754 186.587 369.925 186.591 370.105V396.666C186.591 396.847 186.519 397.021 186.391 397.148C186.263 397.276 186.09 397.348 185.909 397.348ZM57.7365 395.985H185.268V370.786H57.6956L57.7365 395.985Z" fill="#DEDEDE"/>
<path d="M185.909 431.833H57.0138C56.833 431.833 56.6596 431.761 56.5317 431.633C56.4039 431.505 56.332 431.332 56.332 431.151V404.589C56.332 404.408 56.4039 404.235 56.5317 404.107C56.6596 403.979 56.833 403.907 57.0138 403.907H185.909C186.089 403.911 186.26 403.984 186.387 404.111C186.514 404.238 186.587 404.409 186.591 404.589V431.151C186.591 431.332 186.519 431.505 186.391 431.633C186.263 431.761 186.09 431.833 185.909 431.833ZM57.7365 430.469H185.268V405.271H57.6956L57.7365 430.469Z" fill="#DEDEDE"/>
<path d="M105.02 385.213H137.868C138.756 385.213 139.477 384.493 139.477 383.604V383.181C139.477 382.293 138.756 381.572 137.868 381.572H105.02C104.131 381.572 103.411 382.293 103.411 383.181V383.604C103.411 384.493 104.131 385.213 105.02 385.213Z" fill="#DEDEDE"/>
<path d="M105.02 419.684H137.868C138.756 419.684 139.477 418.963 139.477 418.075V417.652C139.477 416.763 138.756 416.043 137.868 416.043H105.02C104.131 416.043 103.411 416.763 103.411 417.652V418.075C103.411 418.963 104.131 419.684 105.02 419.684Z" fill="#DEDEDE"/>
<path d="M113.378 346.516C113.378 346.516 112.942 360.151 96.1159 360.151C79.2898 360.151 78.8398 346.516 78.8398 346.516H113.378Z" fill="white"/>
<path d="M152.718 346.516C152.718 346.516 152.268 360.151 135.442 360.151C118.616 360.151 118.18 346.516 118.18 346.516H152.718Z" fill="white"/>
<path d="M192.124 346.516C192.124 346.516 191.688 360.151 174.848 360.151C158.009 360.151 157.586 346.516 157.586 346.516H192.124Z" fill="white"/>
<path d="M318.923 446.408H546.184V438.104H318.923V446.408Z" fill="white"/>
<path d="M525.892 257.409H311.652V438.092H525.892V257.409Z" fill="white"/>
<path d="M510.999 322.709H326.539V365.688H510.999V322.709Z" fill="#DEDEDE"/>
<path d="M510.999 378.982H326.539V421.961H510.999V378.982Z" fill="#DEDEDE"/>
<path d="M365.581 325.668H471.978C473.522 325.668 474.773 324.417 474.773 322.873V322.573C474.773 321.029 473.522 319.778 471.978 319.778H365.581C364.037 319.778 362.786 321.029 362.786 322.573V322.873C362.786 324.417 364.037 325.668 365.581 325.668Z" fill="#F5F5F5"/>
<path d="M365.581 381.927H471.978C473.522 381.927 474.773 380.675 474.773 379.131V378.831C474.773 377.288 473.522 376.036 471.978 376.036H365.581C364.037 376.036 362.786 377.288 362.786 378.831V379.131C362.786 380.675 364.037 381.927 365.581 381.927Z" fill="#F5F5F5"/>
<path d="M510.999 266.449H326.539V309.428H510.999V266.449Z" fill="#DEDEDE"/>
<path d="M365.581 269.408H471.978C473.522 269.408 474.773 268.157 474.773 266.613V266.313C474.773 264.769 473.522 263.518 471.978 263.518H365.581C364.037 263.518 362.786 264.769 362.786 266.313V266.613C362.786 268.157 364.037 269.408 365.581 269.408Z" fill="#F5F5F5"/>
<path d="M289.072 507.999C435.083 507.999 553.449 501.089 553.449 492.564C553.449 484.039 435.083 477.129 289.072 477.129C143.061 477.129 24.6953 484.039 24.6953 492.564C24.6953 501.089 143.061 507.999 289.072 507.999Z" fill="white"/>
<path d="M340.49 65.9127L340.336 67.2676L347.49 68.0788L347.643 66.724L340.49 65.9127Z" fill="#FFC100"/>
<path d="M309.47 62.4088L309.316 63.7637L332.525 66.3957L332.679 65.0408L309.47 62.4088Z" fill="#FFC100"/>
<path d="M481.384 86.7125L236.061 58.8915C232.394 58.4757 229.085 61.111 228.669 64.7775L207.467 251.734C207.051 255.4 209.687 258.71 213.353 259.126L458.677 286.946C462.343 287.362 465.652 284.727 466.068 281.061L487.27 94.1042C487.686 90.4377 485.051 87.1283 481.384 86.7125Z" fill="#FC5546"/>
<path d="M211.052 249.529L231.655 67.783C231.728 67.1409 231.927 66.5195 232.241 65.9548C232.555 65.39 232.978 64.893 233.485 64.4925C233.992 64.0919 234.573 63.7957 235.195 63.6209C235.817 63.4461 236.468 63.3963 237.109 63.4742L479.41 90.9359C480.052 91.0103 480.672 91.2105 481.236 91.525C481.8 91.8396 482.296 92.2623 482.696 92.769C483.096 93.2756 483.393 93.8562 483.568 94.4776C483.744 95.099 483.795 95.7488 483.719 96.39L463.061 278.068C462.99 278.711 462.792 279.333 462.479 279.899C462.166 280.464 461.743 280.962 461.235 281.363C460.728 281.764 460.146 282.06 459.523 282.234C458.9 282.408 458.249 282.457 457.607 282.377L215.306 254.901C214.034 254.744 212.874 254.093 212.078 253.087C211.282 252.082 210.913 250.804 211.052 249.529Z" fill="#0E2B5C"/>
<path d="M443.149 135.728L341.047 124.149L340.477 129.176L442.579 140.755L443.149 135.728Z" fill="#FC5546"/>
<path d="M458.801 145.614L350.629 133.347L350.059 138.373L458.23 150.64L458.801 145.614Z" fill="#FC5546"/>
<path d="M439.335 151.525L349.711 141.361L349.141 146.388L438.765 156.552L439.335 151.525Z" fill="#FC5546"/>
<path d="M429.076 158.484L348.801 149.381L348.231 154.407L428.506 163.511L429.076 158.484Z" fill="#FC5546"/>
<path d="M403.166 168.758L336.832 161.235L336.262 166.262L402.596 173.784L403.166 168.758Z" fill="#FC5546"/>
<path d="M415.822 194.566L344.598 186.488L344.028 191.515L415.252 199.592L415.822 194.566Z" fill="#FC5546"/>
<path d="M404.521 185.162L345.504 178.469L344.934 183.495L403.951 190.188L404.521 185.162Z" fill="#FC5546"/>
<path d="M411.414 177.823L346.422 170.452L345.852 175.479L410.844 182.849L411.414 177.823Z" fill="#FC5546"/>
<path d="M396.236 229.914L329.902 222.392L329.332 227.418L395.666 234.941L396.236 229.914Z" fill="#FC5546"/>
<path d="M408.877 255.721L337.652 247.644L337.082 252.67L408.307 260.747L408.877 255.721Z" fill="#FC5546"/>
<path d="M396.817 243.959L338.016 237.426L337.459 242.434L396.261 248.967L396.817 243.959Z" fill="#FC5546"/>
<path d="M404.469 238.978L339.477 231.607L338.907 236.634L403.899 244.004L404.469 238.978Z" fill="#FC5546"/>
<path d="M296.896 81.2584L243.027 75.1494L242.457 80.1759L296.326 86.285L296.896 81.2584Z" fill="white"/>
<path d="M306.642 106.713L248.816 100.155L248.246 105.182L306.072 111.739L306.642 106.713Z" fill="white"/>
<path d="M297.644 97.583L249.723 92.1484L249.153 97.1749L297.074 102.609L297.644 97.583Z" fill="white"/>
<path d="M303.389 90.1008L250.617 84.1162L250.047 89.1427L302.819 95.1273L303.389 90.1008Z" fill="white"/>
<path d="M413.084 218.622L341.859 210.545L341.289 215.571L412.514 223.649L413.084 218.622Z" fill="#FC5546"/>
<path d="M401.791 209.217L342.773 202.524L342.203 207.551L401.221 214.244L401.791 209.217Z" fill="#FC5546"/>
<path d="M408.676 201.877L343.684 194.507L343.114 199.533L408.106 206.904L408.676 201.877Z" fill="#FC5546"/>
<path d="M262.428 487.123L253.415 486.919L252.16 466.002L261.173 466.206L262.428 487.123Z" fill="#FFC3BD"/>
<path d="M253.086 485.869L262.931 486.088C263.108 486.093 263.279 486.158 263.415 486.271C263.551 486.385 263.645 486.541 263.681 486.715L265.29 494.773C265.32 494.969 265.307 495.168 265.252 495.358C265.196 495.548 265.101 495.723 264.971 495.873C264.841 496.022 264.681 496.141 264.5 496.222C264.32 496.303 264.124 496.344 263.927 496.341C260.381 496.205 255.254 495.891 250.796 495.782C245.573 495.673 244.633 496.587 238.524 495.946C234.842 495.564 234.201 491.733 235.797 491.555C242.969 490.751 244.687 490.192 250.796 486.524C251.479 486.088 252.275 485.86 253.086 485.869Z" fill="#263238"/>
<path opacity="0.2" d="M252.16 466.016L252.815 476.788L261.828 476.992L261.187 466.22L252.16 466.016Z" fill="black"/>
<path d="M248.166 190.2C245.166 196.077 242.003 201.763 238.621 207.435C235.24 213.108 231.803 218.644 227.713 224.207C227.195 224.902 226.622 225.571 226.077 226.32C225.845 226.634 225.449 227.084 225.095 227.479C224.74 227.875 224.372 228.311 223.977 228.679C222.447 230.217 220.707 231.529 218.809 232.579C215.269 234.561 211.344 235.761 207.301 236.097C203.635 236.424 199.941 236.246 196.324 235.565C194.58 235.255 192.854 234.845 191.156 234.338C189.432 233.844 187.743 233.238 186.098 232.525L188.279 225.639C189.643 225.789 191.197 225.952 192.67 226.034C194.143 226.116 195.67 226.116 197.142 226.034C199.969 226.004 202.783 225.647 205.528 224.971C207.925 224.419 210.187 223.395 212.182 221.957C213.048 221.315 213.827 220.563 214.5 219.721C214.674 219.519 214.834 219.305 214.977 219.08C215.141 218.862 215.277 218.685 215.496 218.344L216.695 216.503C219.9 211.376 222.995 205.745 226.063 200.141L235.267 183.314L248.166 190.2Z" fill="#FFC3BD"/>
<path d="M256.253 181.35C257.616 189.531 238.922 214.198 238.922 214.198L225.219 197.713C229.113 191.023 233.585 184.685 238.581 178.773C245.685 170.81 254.739 172.324 256.253 181.35Z" fill="white"/>
<path opacity="0.2" d="M251.879 188.345C246.424 189.708 237.234 195.503 232.789 206.766L238.966 214.211C238.966 214.211 250.051 199.635 254.524 189.163C254.221 188.77 253.805 188.48 253.331 188.334C252.857 188.187 252.35 188.191 251.879 188.345Z" fill="black"/>
<path d="M246.588 173.619C246.588 173.619 232.216 191.945 233.171 244.837L281.726 253.618C283.403 246.227 284.003 216.161 297.543 182.346C292.361 180.341 287.055 178.674 281.658 177.355C274.856 175.707 267.962 174.46 261.014 173.619C256.213 173.244 251.389 173.244 246.588 173.619Z" fill="white"/>
<path opacity="0.2" d="M287.26 202.989C285.187 205.921 283.933 213.898 286.728 219.352C287.383 215.97 288.16 212.425 289.087 208.73L287.26 202.989Z" fill="black"/>
<path d="M261.014 173.619C261.014 173.619 255.192 185.059 261.983 191.004C273.859 189.995 281.658 177.369 281.658 177.369L261.014 173.619Z" fill="#263238"/>
<path d="M172.191 221.069L172.341 227.846L178.205 232.087L180.85 222.787L172.191 221.069Z" fill="#FFC3BD"/>
<path d="M191.293 226.346L180.848 222.787L178.203 232.086C178.203 232.086 184.285 234.732 189.111 231.187L191.293 226.346Z" fill="#FFC3BD"/>
<path d="M283.808 153.738C281.299 160.147 277.809 172.078 281.654 177.355C281.654 177.355 276.363 183.532 264.487 184.541C257.669 178.596 261.01 173.632 261.01 173.632C268.741 173.196 269.532 167.674 269.191 162.274L283.808 153.738Z" fill="#FFC3BD"/>
<path opacity="0.2" d="M277.854 157.215L269.195 162.26C269.298 163.517 269.298 164.78 269.195 166.037C273.04 168.014 276.177 165.941 277.854 161.783C278.197 160.279 278.197 158.718 277.854 157.215Z" fill="black"/>
<path d="M264.639 146.376C265.199 150.467 277.811 143.799 279.938 142.394C282.066 140.99 279.625 136.122 274.839 132.195C270.053 128.268 263.344 136.818 264.639 146.376Z" fill="#263238"/>
<path d="M290.518 148.257C286.659 156.561 284.832 161.62 278.819 164.292C269.792 168.383 260.806 160.324 262.102 151.039C263.261 142.68 269.369 130.504 279.023 130.367C281.154 130.328 283.26 130.834 285.14 131.838C287.02 132.842 288.612 134.31 289.764 136.104C290.916 137.897 291.59 139.955 291.722 142.082C291.854 144.21 291.44 146.335 290.518 148.257Z" fill="#FFC3BD"/>
<path d="M287.114 156.029C283.024 156.643 285.915 142.666 286.664 140.239C287.414 137.812 293.905 135.59 297.573 140.58C301.977 146.675 296.659 154.611 287.114 156.029Z" fill="#263238"/>
<path d="M285.884 127.599C282.216 126.863 283.266 122.977 285.966 123.181C283.798 120.55 270.967 118.15 270.271 126.658C269.576 135.167 286.116 139.885 290.588 140.485L297.256 142.353C306.241 137.867 296.274 129.685 285.884 127.599Z" fill="#263238"/>
<path d="M290.97 158.306C289.284 159.878 287.042 160.717 284.738 160.638C281.698 160.501 281.111 157.556 282.748 155.183C284.207 153.029 287.575 150.506 290.261 151.802C290.839 152.097 291.334 152.531 291.702 153.066C292.071 153.6 292.3 154.217 292.37 154.863C292.441 155.508 292.35 156.16 292.105 156.761C291.861 157.362 291.47 157.893 290.97 158.306Z" fill="#FFC3BD"/>
<path d="M234.998 470.216L226.149 471.961L221.812 451.535L230.662 449.79L234.998 470.216Z" fill="#FFC3BD"/>
<path d="M225.585 471.006L235.253 469.097C235.429 469.063 235.612 469.091 235.77 469.175C235.929 469.26 236.054 469.395 236.125 469.56L239.412 477.073C239.483 477.255 239.515 477.45 239.505 477.646C239.494 477.841 239.442 478.032 239.352 478.205C239.261 478.378 239.134 478.53 238.98 478.65C238.826 478.77 238.647 478.856 238.457 478.901C234.953 479.528 229.88 480.264 225.503 481.178C220.377 482.187 218.686 482.296 212.727 483.482C209.086 484.191 207.355 480.755 208.814 480.087C215.441 477.21 218.358 476.978 223.594 472.11C224.14 471.561 224.831 471.178 225.585 471.006Z" fill="#263238"/>
<path opacity="0.2" d="M221.812 451.535L224.049 462.062L232.898 460.317L230.662 449.79L221.812 451.535Z" fill="black"/>
<path d="M222.261 473.147C221.689 473.411 221.044 473.469 220.434 473.311C220.23 473.239 220.048 473.116 219.904 472.953C219.761 472.791 219.662 472.595 219.616 472.383C219.57 472.264 219.558 472.135 219.583 472.009C219.607 471.884 219.666 471.768 219.752 471.674C220.516 470.843 223.952 471.524 224.334 471.606C224.377 471.616 224.417 471.637 224.448 471.669C224.48 471.7 224.502 471.74 224.511 471.783C224.518 471.825 224.513 471.868 224.496 471.907C224.479 471.945 224.451 471.978 224.416 472.002C223.743 472.463 223.02 472.847 222.261 473.147ZM220.325 471.783C220.233 471.815 220.15 471.866 220.08 471.933C220.08 471.933 219.984 472.056 220.08 472.22C220.108 472.364 220.173 472.499 220.268 472.612C220.364 472.724 220.487 472.81 220.625 472.861C221.756 472.951 222.878 472.605 223.761 471.892C222.616 471.625 221.43 471.588 220.27 471.783H220.325Z" fill="#FFC100"/>
<path d="M224.322 471.962H224.213C223.136 471.798 220.709 470.598 220.532 469.508C220.506 469.344 220.539 469.177 220.624 469.035C220.708 468.893 220.84 468.786 220.995 468.73C221.147 468.66 221.312 468.623 221.48 468.623C221.647 468.623 221.812 468.66 221.964 468.73C223.327 469.18 224.391 471.607 224.445 471.703C224.466 471.736 224.477 471.773 224.477 471.812C224.477 471.851 224.466 471.888 224.445 471.921C224.411 471.95 224.367 471.964 224.322 471.962ZM221.282 469.058H221.186C220.941 469.194 220.955 469.33 220.968 469.385C221.064 469.985 222.7 471.021 223.832 471.376C223.463 470.68 222.659 469.317 221.827 469.03C221.648 468.978 221.455 468.987 221.282 469.058Z" fill="#FFC100"/>
<path d="M233.167 244.836C233.167 244.836 211.61 326.894 205.379 354.342C198.915 382.908 220.691 460.098 220.691 460.098L235.076 457.262C235.076 457.262 229.036 378.558 231.095 366.068C239.344 335.825 265.088 250.617 265.088 250.617L233.167 244.836Z" fill="#FC5546"/>
<path opacity="0.2" d="M235.898 312.85C235.002 324.277 235.185 335.763 236.443 347.156C242.606 325.708 251.169 296.937 257.333 276.389C251.115 279.075 238.202 287.597 235.898 312.85Z" fill="black"/>
<path d="M249.939 247.877C249.939 247.877 238.649 331.489 239.617 358.515C240.667 388.09 247.662 474.102 247.662 474.102L264.529 474.511C264.529 474.511 264.27 393.189 265.893 364.364C267.584 333.085 281.301 253.577 281.301 253.577L249.939 247.877Z" fill="#FC5546"/>
<path d="M265.658 474.851L247.455 474.456L246.023 467.556L266.177 467.434L265.658 474.851Z" fill="#263238"/>
<path d="M237.913 457.072L220.051 460.59L217.16 454.154L236.959 450.622L237.913 457.072Z" fill="#263238"/>
<path d="M277.211 145.775C276.939 146.471 276.352 146.893 275.848 146.716C275.343 146.539 275.248 145.83 275.521 145.135C275.793 144.439 276.38 144.03 276.884 144.207C277.389 144.385 277.47 145.094 277.211 145.775Z" fill="#263238"/>
<path d="M269.372 142.72C269.099 143.402 268.513 143.824 268.008 143.647C267.503 143.47 267.408 142.761 267.681 142.079C267.953 141.397 268.54 140.961 269.044 141.138C269.549 141.315 269.644 142.025 269.372 142.72Z" fill="#263238"/>
<path d="M271.198 143.824C269.542 145.621 267.648 147.181 265.566 148.46C265.909 148.983 266.361 149.425 266.89 149.757C267.42 150.089 268.015 150.302 268.634 150.383L271.198 143.824Z" fill="#ED847E"/>
<path d="M268.512 153.739C268.483 153.729 268.456 153.714 268.433 153.694C268.41 153.673 268.391 153.648 268.379 153.62C268.366 153.592 268.359 153.562 268.359 153.531C268.359 153.5 268.366 153.469 268.378 153.441C268.391 153.413 268.409 153.388 268.432 153.368C268.455 153.347 268.483 153.332 268.512 153.322C268.541 153.313 268.572 153.31 268.603 153.314C268.634 153.317 268.663 153.328 268.689 153.343C269.53 153.732 270.45 153.919 271.376 153.888C272.302 153.857 273.208 153.61 274.021 153.166C274.045 153.148 274.073 153.135 274.102 153.129C274.131 153.122 274.162 153.121 274.191 153.127C274.221 153.132 274.249 153.144 274.274 153.161C274.298 153.178 274.32 153.2 274.336 153.225C274.352 153.25 274.362 153.279 274.367 153.309C274.371 153.338 274.369 153.369 274.362 153.398C274.354 153.427 274.34 153.454 274.321 153.477C274.303 153.501 274.279 153.52 274.253 153.534C273.383 154.028 272.407 154.305 271.408 154.341C270.408 154.376 269.415 154.17 268.512 153.739Z" fill="#263238"/>
<path d="M281.547 144.207C281.491 144.173 281.442 144.127 281.405 144.073C281.367 144.019 281.341 143.958 281.328 143.894C281.258 143.344 281.058 142.819 280.745 142.361C280.432 141.904 280.015 141.527 279.529 141.262C279.424 141.215 279.343 141.128 279.302 141.021C279.261 140.913 279.264 140.794 279.31 140.689C279.361 140.584 279.45 140.503 279.559 140.462C279.669 140.421 279.79 140.425 279.897 140.471C280.507 140.799 281.03 141.269 281.421 141.841C281.813 142.413 282.061 143.07 282.147 143.757C282.156 143.815 282.154 143.874 282.141 143.93C282.128 143.987 282.103 144.04 282.069 144.087C282.034 144.134 281.991 144.174 281.941 144.204C281.891 144.234 281.836 144.254 281.778 144.262C281.698 144.264 281.618 144.245 281.547 144.207Z" fill="#263238"/>
<path d="M267.396 138.044C267.338 138.013 267.29 137.965 267.259 137.907C267.227 137.86 267.205 137.806 267.195 137.749C267.184 137.692 267.185 137.634 267.198 137.578C267.211 137.522 267.235 137.469 267.269 137.422C267.303 137.376 267.346 137.337 267.396 137.307C267.978 136.931 268.642 136.699 269.332 136.63C270.022 136.561 270.718 136.658 271.364 136.912C271.469 136.962 271.551 137.052 271.591 137.161C271.632 137.27 271.629 137.391 271.582 137.498C271.557 137.55 271.522 137.597 271.479 137.636C271.436 137.674 271.386 137.704 271.331 137.723C271.277 137.742 271.219 137.75 271.161 137.747C271.104 137.743 271.047 137.728 270.995 137.703C270.483 137.507 269.932 137.436 269.386 137.495C268.841 137.555 268.318 137.743 267.859 138.044C267.79 138.087 267.709 138.11 267.627 138.11C267.546 138.11 267.465 138.087 267.396 138.044Z" fill="#263238"/>
<path d="M290.64 179.401L288.377 178.787C288.268 178.756 288.152 178.767 288.051 178.817C287.95 178.868 287.872 178.954 287.831 179.06C275.26 212.167 272.273 249.187 272.273 249.187L274.796 249.637C277.656 225.907 283.069 202.555 290.94 179.987C290.964 179.929 290.974 179.867 290.971 179.805C290.969 179.742 290.952 179.681 290.924 179.626C290.895 179.57 290.855 179.521 290.807 179.482C290.758 179.444 290.701 179.416 290.64 179.401Z" fill="#FC5546"/>
<g opacity="0.99">
<path d="M275.164 249.705C275.183 249.598 275.181 249.489 275.158 249.383C275.135 249.277 275.091 249.177 275.029 249.088C274.967 248.999 274.888 248.923 274.796 248.865C274.705 248.807 274.602 248.768 274.495 248.75L272.75 248.423C272.554 248.394 272.354 248.436 272.187 248.541C272.019 248.647 271.894 248.808 271.835 248.997C271.776 249.186 271.786 249.39 271.864 249.572C271.942 249.755 272.082 249.903 272.259 249.991L271.877 252.159C271.852 252.299 271.855 252.442 271.885 252.581C271.916 252.719 271.973 252.851 272.054 252.967C272.135 253.084 272.238 253.183 272.358 253.26C272.477 253.336 272.61 253.388 272.75 253.414C272.89 253.439 273.033 253.436 273.172 253.406C273.31 253.375 273.442 253.318 273.558 253.237C273.675 253.156 273.774 253.053 273.851 252.933C273.927 252.814 273.979 252.681 274.005 252.541L274.4 250.373C274.583 250.361 274.757 250.29 274.895 250.169C275.034 250.048 275.128 249.885 275.164 249.705Z" fill="#263238"/>
</g>
<path d="M252.107 172.909H249.761C249.667 172.91 249.575 172.941 249.499 172.998C249.424 173.054 249.367 173.133 249.339 173.223C238.321 206.629 237.23 242.763 237.23 242.763L239.753 243.227C242.726 205.239 251.152 177.777 252.543 173.414C252.551 173.351 252.545 173.288 252.527 173.228C252.509 173.168 252.478 173.112 252.437 173.065C252.396 173.017 252.345 172.979 252.288 172.952C252.231 172.925 252.17 172.911 252.107 172.909Z" fill="#FC5546"/>
<path opacity="0.99" d="M240.121 243.377C240.149 243.155 240.091 242.931 239.959 242.751C239.827 242.571 239.631 242.449 239.412 242.409L237.666 242.081C237.56 242.062 237.451 242.064 237.346 242.089C237.241 242.113 237.142 242.158 237.056 242.222C236.969 242.286 236.896 242.367 236.841 242.46C236.787 242.553 236.752 242.656 236.739 242.763C236.72 242.948 236.76 243.135 236.853 243.297C236.946 243.458 237.087 243.587 237.257 243.663L236.971 245.845C236.935 246.134 237.011 246.427 237.183 246.663C237.355 246.898 237.611 247.059 237.898 247.113C238.037 247.14 238.179 247.138 238.317 247.108C238.455 247.077 238.585 247.018 238.699 246.935C238.813 246.852 238.908 246.746 238.979 246.624C239.051 246.502 239.096 246.367 239.112 246.226L239.398 244.045C239.578 244.036 239.749 243.965 239.881 243.843C240.014 243.72 240.098 243.555 240.121 243.377Z" fill="#263238"/>
<path d="M249.344 487.164C248.732 487.302 248.092 487.224 247.53 486.945C247.348 486.826 247.198 486.664 247.091 486.475C246.984 486.285 246.924 486.072 246.917 485.855C246.899 485.73 246.917 485.602 246.967 485.487C247.018 485.371 247.099 485.272 247.203 485.2C248.144 484.546 251.294 485.95 251.703 486.114C251.741 486.133 251.774 486.162 251.798 486.198C251.822 486.234 251.836 486.275 251.839 486.318C251.833 486.36 251.816 486.4 251.789 486.434C251.763 486.467 251.729 486.493 251.689 486.509C250.936 486.82 250.149 487.04 249.344 487.164ZM247.735 485.418C247.637 485.425 247.543 485.458 247.462 485.514C247.418 485.543 247.385 485.584 247.365 485.633C247.346 485.682 247.342 485.735 247.353 485.786C247.356 485.935 247.395 486.081 247.466 486.211C247.537 486.342 247.639 486.453 247.762 486.536C248.845 486.866 250.013 486.763 251.021 486.25C249.989 485.765 248.873 485.483 247.735 485.418Z" fill="#FFC100"/>
<path d="M251.643 486.523H251.534C250.511 486.128 248.411 484.382 248.466 483.332C248.479 483.169 248.546 483.014 248.658 482.893C248.769 482.772 248.917 482.691 249.079 482.664C249.243 482.623 249.414 482.617 249.581 482.645C249.747 482.673 249.906 482.735 250.048 482.828C251.22 483.551 251.807 486.155 251.82 486.264C251.83 486.303 251.829 486.344 251.817 486.383C251.805 486.421 251.782 486.456 251.752 486.482C251.737 486.496 251.72 486.507 251.702 486.514C251.683 486.521 251.663 486.524 251.643 486.523ZM249.298 483.073H249.189C248.916 483.155 248.916 483.292 248.902 483.346C248.902 483.96 250.266 485.31 251.288 485.896C251.076 484.862 250.564 483.913 249.816 483.169C249.661 483.074 249.476 483.04 249.298 483.073Z" fill="#FFC100"/>
<path d="M255.613 276.525L263.235 281.911L268.949 277.698L261.64 268.794L255.613 276.525Z" fill="#FFC3BD"/>
<path d="M272.426 267.172L261.641 268.794L268.949 277.698C268.949 277.698 276.435 275.871 276.026 269.872L272.426 267.172Z" fill="#FFC3BD"/>
<path d="M304.197 196.458C304.606 203.576 304.824 210.666 304.865 217.811C304.865 221.37 304.865 224.942 304.865 228.542C304.865 230.328 304.797 232.128 304.702 233.996L304.565 236.723L304.497 238.087C304.497 238.728 304.361 239.45 304.265 240.132C303.856 242.512 303.073 244.813 301.947 246.95C300.969 248.797 299.857 250.569 298.62 252.254C296.315 255.335 293.756 258.217 290.971 260.872C285.636 265.966 279.803 270.511 273.558 274.439L269.141 268.712C271.513 266.312 273.995 263.817 276.286 261.253C278.576 258.69 280.853 256.14 282.94 253.522C284.983 251.002 286.847 248.341 288.517 245.559C289.25 244.302 289.893 242.995 290.439 241.646C290.882 240.593 291.171 239.481 291.298 238.346C291.284 238.142 291.284 237.937 291.298 237.732V236.478L291.23 233.914L291.012 228.719L290.439 218.166C290.085 211.157 289.798 204.094 289.607 197.072L304.197 196.458Z" fill="#FFC3BD"/>
<path d="M297.545 182.346C309.203 186.682 309.107 217.866 309.107 217.866L289.377 221.493C289.377 221.493 284.605 207.326 286.963 196.172C289.213 185.523 288.682 179.032 297.545 182.346Z" fill="white"/>
<path d="M147.047 222.462L94.1959 202.663L84.9102 147.004L128.543 111.129L181.353 130.9L190.639 186.574L147.047 222.462ZM96.4184 200.836L146.569 219.612L187.898 185.524L179.09 132.714L128.939 113.938L87.61 148.026L96.4184 200.836Z" fill="#FC5546"/>
<path d="M135.609 117.487C138.327 113.681 137.445 108.393 133.639 105.675C129.833 102.957 124.545 103.839 121.827 107.645C119.109 111.451 119.991 116.739 123.797 119.457C127.603 122.175 132.891 121.292 135.609 117.487Z" fill="#FC5546"/>
<path d="M153.687 225.955C156.405 222.15 155.523 216.861 151.717 214.144C147.911 211.426 142.623 212.308 139.905 216.114C137.187 219.92 138.07 225.208 141.875 227.926C145.681 230.643 150.969 229.761 153.687 225.955Z" fill="#FC5546"/>
<path d="M175.288 138.726C173.925 137.753 172.881 136.397 172.289 134.83C171.697 133.263 171.583 131.556 171.961 129.924C172.339 128.292 173.193 126.809 174.414 125.663C175.635 124.516 177.169 123.758 178.821 123.483C180.473 123.208 182.17 123.43 183.696 124.119C185.223 124.809 186.51 125.936 187.396 127.357C188.282 128.779 188.726 130.431 188.673 132.106C188.62 133.78 188.071 135.4 187.096 136.763C185.79 138.588 183.813 139.82 181.599 140.189C179.384 140.557 177.115 140.031 175.288 138.726Z" fill="#FC5546"/>
<path d="M81.3258 154.312C79.962 153.34 78.9172 151.985 78.3234 150.419C77.7296 148.853 77.6137 147.146 77.9901 145.514C78.3666 143.882 79.2185 142.398 80.4383 141.25C81.6581 140.102 83.1908 139.342 84.8427 139.065C86.4946 138.789 88.1914 139.008 89.7185 139.696C91.2456 140.384 92.5344 141.509 93.422 142.93C94.3095 144.35 94.7559 146.002 94.7046 147.676C94.6534 149.35 94.1068 150.971 93.1341 152.335C91.8278 154.159 89.8517 155.392 87.6384 155.763C85.4251 156.133 83.1552 155.611 81.3258 154.312Z" fill="#FC5546"/>
<path d="M184.344 193.063C182.982 192.09 181.94 190.734 181.348 189.168C180.756 187.602 180.641 185.896 181.019 184.265C181.396 182.634 182.249 181.152 183.469 180.005C184.688 178.859 186.22 178.099 187.872 177.823C189.523 177.547 191.219 177.766 192.745 178.454C194.272 179.141 195.56 180.265 196.448 181.685C197.335 183.104 197.782 184.755 197.732 186.428C197.682 188.101 197.137 189.722 196.166 191.086C195.52 191.993 194.702 192.764 193.758 193.354C192.814 193.944 191.763 194.343 190.665 194.526C189.567 194.71 188.444 194.675 187.359 194.424C186.274 194.173 185.25 193.711 184.344 193.063Z" fill="#FC5546"/>
<path d="M90.3936 208.623C89.0306 207.649 87.9869 206.293 87.3947 204.726C86.8024 203.16 86.6881 201.452 87.0663 199.82C87.4445 198.189 88.2981 196.706 89.5192 195.559C90.7403 194.413 92.274 193.654 93.9263 193.379C95.5786 193.105 97.2753 193.326 98.8017 194.016C100.328 194.705 101.616 195.832 102.502 197.254C103.388 198.675 103.832 200.328 103.779 202.002C103.725 203.676 103.176 205.297 102.202 206.659C101.556 207.564 100.739 208.334 99.7953 208.922C98.8521 209.511 97.802 209.908 96.7051 210.091C95.6082 210.273 94.4861 210.237 93.4031 209.985C92.3201 209.733 91.2974 209.27 90.3936 208.623Z" fill="#FC5546"/>
<path d="M119.916 152.717L130.592 150.931L133.715 169.652C134.334 172.661 134.486 175.747 134.165 178.801C133.742 181.091 132.566 183.174 130.824 184.719C128.657 186.643 125.956 187.861 123.079 188.21C120.341 188.824 117.5 188.824 114.762 188.21C112.749 187.621 110.962 186.438 109.635 184.815C108.177 182.934 107.166 180.748 106.676 178.42L116.616 175.324C116.777 176.474 117.103 177.595 117.584 178.651C117.938 179.319 118.484 179.865 119.152 180.219C119.724 180.463 120.359 180.521 120.966 180.383C121.489 180.332 121.988 180.141 122.411 179.829C122.833 179.516 123.163 179.095 123.365 178.611C123.796 177.109 123.829 175.52 123.461 174.002L119.916 152.717Z" fill="#263238"/>
<path d="M139.674 173.088L149.71 170.77C150.041 172.1 150.719 173.318 151.673 174.302C152.346 174.916 153.157 175.36 154.037 175.598C154.917 175.835 155.841 175.858 156.732 175.665C158.006 175.542 159.189 174.954 160.059 174.015C160.394 173.653 160.643 173.22 160.787 172.747C160.931 172.275 160.967 171.776 160.891 171.288C160.804 170.827 160.618 170.39 160.344 170.009C160.071 169.627 159.718 169.31 159.309 169.079C157.477 168.31 155.5 167.943 153.514 168.002C148.669 167.73 145.105 166.889 142.824 165.48C141.726 164.825 140.789 163.933 140.081 162.869C139.373 161.805 138.913 160.595 138.733 159.33C138.447 157.54 138.693 155.705 139.442 154.053C140.304 152.193 141.699 150.632 143.451 149.567C145.969 148.123 148.751 147.196 151.632 146.84C156.041 146.104 159.536 146.363 162.118 147.617C163.488 148.339 164.685 149.349 165.626 150.578C166.568 151.806 167.232 153.225 167.572 154.735L157.632 156.999C157.494 156.362 157.228 155.76 156.849 155.231C156.469 154.701 155.986 154.255 155.427 153.92C154.868 153.586 154.247 153.369 153.601 153.284C152.956 153.199 152.299 153.247 151.673 153.426C150.644 153.507 149.677 153.952 148.946 154.68C148.69 154.955 148.5 155.285 148.391 155.644C148.283 156.003 148.258 156.383 148.319 156.753C148.376 157.043 148.497 157.316 148.674 157.552C148.852 157.788 149.079 157.981 149.341 158.117C150.542 158.611 151.835 158.839 153.132 158.785C156.678 158.828 160.206 159.286 163.645 160.148C165.577 160.686 167.32 161.753 168.676 163.23C169.854 164.62 170.624 166.31 170.899 168.111C171.273 170.281 170.988 172.514 170.081 174.52C169.154 176.625 167.615 178.403 165.663 179.62C163.201 181.11 160.457 182.075 157.605 182.456C151.741 183.438 147.496 182.983 144.869 181.092C142.23 179.137 140.385 176.295 139.674 173.088Z" fill="#263238"/>
</svg>
