<svg width="482" height="428" viewBox="0 0 482 428" fill="none" xmlns="http://www.w3.org/2000/svg">
<g clip-path="url(#clip0_2702_3290)">
<path d="M414.229 353.623C406.096 377.401 395.638 401.18 382.24 423.787C381.941 424.299 381.63 424.799 381.337 425.305L348.164 414.818C348.359 414.337 348.567 413.8 348.774 413.215C362.173 378.657 442.892 167.989 439.293 126.457C439.659 129.865 452.288 242.372 414.229 353.623Z" fill="#E6E6E6"/>
<path d="M388.649 425.829C388.197 426.293 387.734 426.744 387.27 427.195L362.383 419.324L363.56 417.897C370.931 408.904 392.846 381.974 414.237 353.642C437.233 323.193 459.637 291.129 462.773 277.954C462.132 280.948 442.499 372.158 388.649 425.829Z" fill="#E6E6E6"/>
<path d="M401.081 75.0596V21.76C401.081 18.8999 400.516 16.0678 399.42 13.4258C398.324 10.7838 396.717 8.3836 394.692 6.3626C392.667 4.34159 390.263 2.7394 387.617 1.64765C384.972 0.555897 382.137 -0.00398556 379.275 2.13558e-05H212.271C206.496 2.13558e-05 200.957 2.29259 196.873 6.37339C192.79 10.4542 190.495 15.9889 190.495 21.76V49.0866C190.034 49.0962 189.595 49.286 189.272 49.6154C188.949 49.9448 188.769 50.3876 188.769 50.8486V64.3839C188.77 64.8444 188.951 65.2863 189.274 65.6153C189.596 65.9444 190.035 66.1348 190.495 66.1459V80.3213H190.41C189.941 80.3213 189.491 80.5076 189.159 80.8391C188.827 81.1707 188.641 81.6205 188.641 82.0894V108.264C188.641 108.496 188.686 108.725 188.775 108.939C188.864 109.153 188.995 109.348 189.159 109.512C189.324 109.675 189.519 109.805 189.733 109.893C189.948 109.981 190.178 110.026 190.41 110.026H190.495V120.39C190.026 120.39 189.576 120.577 189.244 120.908C188.912 121.24 188.726 121.69 188.726 122.159V148.589C188.726 148.821 188.772 149.05 188.861 149.265C188.95 149.479 189.08 149.673 189.245 149.837C189.409 150.001 189.604 150.13 189.819 150.219C190.033 150.307 190.263 150.352 190.495 150.351V405.813C190.495 411.584 192.79 417.119 196.873 421.2C200.957 425.281 206.496 427.573 212.271 427.573H379.275C385.05 427.573 390.589 425.281 394.672 421.2C398.756 417.119 401.05 411.584 401.05 405.813V126.896C401.883 126.896 402.683 126.565 403.272 125.976C403.861 125.387 404.192 124.589 404.192 123.756V78.2056C404.192 77.3776 403.866 76.5829 403.283 75.9939C402.701 75.4049 401.909 75.0692 401.081 75.0596Z" fill="#3F3D56"/>
<path d="M388.037 27.8509V399.765C388.036 404.196 386.273 408.445 383.137 411.578C380.001 414.711 375.748 416.471 371.314 416.471H220.216C215.782 416.469 211.53 414.709 208.394 411.576C205.259 408.444 203.495 404.196 203.492 399.765V27.8509C203.492 23.4187 205.254 19.168 208.39 16.0339C211.527 12.8999 215.78 11.1392 220.216 11.1392H242.827V14.0718C242.83 17.7204 244.282 21.2186 246.864 23.7986C249.446 26.3786 252.946 27.8294 256.598 27.8326H333.474C337.12 27.8245 340.615 26.3712 343.191 23.7914C345.767 21.2116 347.214 17.7161 347.214 14.0718V11.1696H371.32C375.749 11.1713 379.996 12.9285 383.13 16.0558C386.264 19.1831 388.029 23.425 388.037 27.8509Z" fill="white"/>
<path d="M143.023 208.686C141.401 208.06 139.597 208.102 138.007 208.804C136.417 209.506 135.171 210.81 134.542 212.43C134.406 212.791 134.3 213.162 134.225 213.54L80.375 242.805L89.8442 253.45L139.875 221.38C141.475 221.584 143.095 221.195 144.426 220.285C145.758 219.375 146.71 218.009 147.101 216.445C147.492 214.881 147.296 213.228 146.548 211.799C145.801 210.37 144.555 209.265 143.047 208.693L143.023 208.686Z" fill="#FFB8B8"/>
<path d="M129.283 419.196L135.994 414.861L122.449 386.931L112.547 393.333L129.283 419.196Z" fill="#FFB8B8"/>
<path d="M152.967 412.721L131.881 426.354L126.609 418.208L139.855 409.673C141.935 408.328 144.465 407.864 146.887 408.383C149.309 408.903 151.426 410.362 152.772 412.441L152.967 412.745V412.721Z" fill="#2F2E41"/>
<path d="M54 420.208H61.9927L65.7937 389.406H54V420.208Z" fill="#FFB8B8"/>
<path d="M77.408 427.622H52.2891V417.922H68.0669C70.5438 417.923 72.9188 418.907 74.6703 420.658C76.4217 422.408 77.4064 424.781 77.408 427.256V427.622Z" fill="#2F2E41"/>
<path d="M237.342 60.3599H220.869C220.465 60.3599 220.077 60.1993 219.791 59.9134C219.504 59.6276 219.344 59.2399 219.344 58.8356C219.344 58.4314 219.504 58.0437 219.791 57.7578C220.077 57.472 220.465 57.3114 220.869 57.3114H237.342C237.747 57.3114 238.135 57.472 238.421 57.7578C238.707 58.0437 238.868 58.4314 238.868 58.8356C238.868 59.2399 238.707 59.6276 238.421 59.9134C238.135 60.1993 237.747 60.3599 237.342 60.3599Z" fill="#3F3D56"/>
<path d="M237.342 64.6277H220.869C220.465 64.6277 220.077 64.4671 219.791 64.1813C219.504 63.8954 219.344 63.5077 219.344 63.1035C219.344 62.6992 219.504 62.3115 219.791 62.0257C220.077 61.7398 220.465 61.5792 220.869 61.5792H237.342C237.747 61.5792 238.135 61.7398 238.421 62.0257C238.707 62.3115 238.868 62.6992 238.868 63.1035C238.868 63.5077 238.707 63.8954 238.421 64.1813C238.135 64.4671 237.747 64.6277 237.342 64.6277Z" fill="#3F3D56"/>
<path d="M237.342 68.8955H220.869C220.465 68.8955 220.077 68.7349 219.791 68.4491C219.504 68.1632 219.344 67.7755 219.344 67.3713C219.344 66.967 219.504 66.5793 219.791 66.2935C220.077 66.0076 220.465 65.847 220.869 65.847H237.342C237.747 65.847 238.135 66.0076 238.421 66.2935C238.707 66.5793 238.868 66.967 238.868 67.3713C238.868 67.7755 238.707 68.1632 238.421 68.4491C238.135 68.7349 237.747 68.8955 237.342 68.8955Z" fill="#3F3D56"/>
<path d="M365.035 64.6277H364.48L364.266 64.4509C364.968 63.6157 365.352 62.56 365.352 61.4694C365.347 60.5723 365.076 59.6967 364.573 58.9535C364.071 58.2102 363.359 57.6326 362.527 57.2938C361.696 56.9549 360.783 56.87 359.903 57.0498C359.024 57.2295 358.217 57.6659 357.586 58.3037C356.954 58.9414 356.526 59.752 356.356 60.6329C356.186 61.5137 356.28 62.4253 356.628 63.2523C356.976 64.0793 357.562 64.7846 358.311 65.279C359.06 65.7734 359.939 66.0348 360.837 66.03C361.925 66.0233 362.978 65.6397 363.815 64.9447L364.022 65.1215V65.6824L367.524 69.1882L368.574 68.1395L365.035 64.6277ZM360.837 64.6277C360.212 64.6301 359.6 64.4472 359.079 64.1022C358.558 63.7572 358.151 63.2655 357.91 62.6893C357.668 62.1132 357.603 61.4784 357.723 60.8653C357.842 60.2522 358.141 59.6883 358.582 59.2449C359.022 58.8015 359.584 58.4986 360.196 58.3743C360.809 58.2501 361.445 58.3102 362.023 58.547C362.602 58.7838 363.097 59.1867 363.446 59.7047C363.795 60.2227 363.983 60.8326 363.985 61.4573C363.989 61.8698 363.91 62.279 363.755 62.6612C363.599 63.0434 363.37 63.3912 363.08 63.6847C362.79 63.9781 362.444 64.2114 362.064 64.3711C361.683 64.5308 361.274 64.6139 360.862 64.6155L360.837 64.6277Z" fill="#3F3D56"/>
<path d="M270.896 116.452H241.305C239.525 116.452 237.818 115.745 236.559 114.487C235.301 113.23 234.594 111.524 234.594 109.745C234.594 107.966 235.301 106.261 236.559 105.003C237.818 103.745 239.525 103.038 241.305 103.038H270.896C272.676 103.038 274.383 103.745 275.642 105.003C276.901 106.261 277.608 107.966 277.608 109.745C277.608 111.524 276.901 113.23 275.642 114.487C274.383 115.745 272.676 116.452 270.896 116.452Z" fill="#F73757"/>
<path d="M361.5 131.085H238.255C237.284 131.085 236.352 130.699 235.666 130.013C234.979 129.327 234.594 128.397 234.594 127.426C234.594 126.456 234.979 125.526 235.666 124.84C236.352 124.154 237.284 123.768 238.255 123.768H361.5C362.471 123.768 363.402 124.154 364.089 124.84C364.775 125.526 365.161 126.456 365.161 127.426C365.161 128.397 364.775 129.327 364.089 130.013C363.402 130.699 362.471 131.085 361.5 131.085Z" fill="#E6E6E6"/>
<path d="M283.526 145.717H238.255C237.284 145.717 236.352 145.332 235.666 144.646C234.979 143.96 234.594 143.029 234.594 142.059C234.594 141.089 234.979 140.158 235.666 139.472C236.352 138.786 237.284 138.401 238.255 138.401H283.526C284.497 138.401 285.428 138.786 286.114 139.472C286.801 140.158 287.187 141.089 287.187 142.059C287.187 143.029 286.801 143.96 286.114 144.646C285.428 145.332 284.497 145.717 283.526 145.717Z" fill="#E6E6E6"/>
<path d="M270.896 278.631H241.305C239.525 278.631 237.818 277.924 236.559 276.666C235.301 275.409 234.594 273.703 234.594 271.924C234.594 270.145 235.301 268.44 236.559 267.182C237.818 265.924 239.525 265.218 241.305 265.218H270.896C272.676 265.218 274.383 265.924 275.642 267.182C276.901 268.44 277.608 270.145 277.608 271.924C277.608 273.703 276.901 275.409 275.642 276.666C274.383 277.924 272.676 278.631 270.896 278.631Z" fill="#F73757"/>
<path d="M361.5 293.263H238.255C237.284 293.263 236.352 292.878 235.666 292.192C234.979 291.506 234.594 290.575 234.594 289.605C234.594 288.635 234.979 287.705 235.666 287.018C236.352 286.332 237.284 285.947 238.255 285.947H361.5C362.471 285.947 363.402 286.332 364.089 287.018C364.775 287.705 365.161 288.635 365.161 289.605C365.161 290.575 364.775 291.506 364.089 292.192C363.402 292.878 362.471 293.263 361.5 293.263Z" fill="#E6E6E6"/>
<path d="M283.526 307.896H238.255C237.284 307.896 236.352 307.511 235.666 306.825C234.979 306.139 234.594 305.208 234.594 304.238C234.594 303.268 234.979 302.337 235.666 301.651C236.352 300.965 237.284 300.58 238.255 300.58H283.526C284.497 300.58 285.428 300.965 286.114 301.651C286.801 302.337 287.187 303.268 287.187 304.238C287.187 305.208 286.801 306.139 286.114 306.825C285.428 307.511 284.497 307.896 283.526 307.896Z" fill="#E6E6E6"/>
<path d="M270.896 353.623H241.305C239.525 353.623 237.818 352.917 236.559 351.659C235.301 350.401 234.594 348.695 234.594 346.917C234.594 345.138 235.301 343.432 236.559 342.174C237.818 340.917 239.525 340.21 241.305 340.21H270.896C272.676 340.21 274.383 340.917 275.642 342.174C276.901 343.432 277.608 345.138 277.608 346.917C277.608 348.695 276.901 350.401 275.642 351.659C274.383 352.917 272.676 353.623 270.896 353.623Z" fill="#F73757"/>
<path d="M361.5 368.256H238.255C237.284 368.256 236.352 367.87 235.666 367.184C234.979 366.498 234.594 365.568 234.594 364.598C234.594 363.628 234.979 362.697 235.666 362.011C236.352 361.325 237.284 360.94 238.255 360.94H361.5C362.471 360.94 363.402 361.325 364.089 362.011C364.775 362.697 365.161 363.628 365.161 364.598C365.161 365.568 364.775 366.498 364.089 367.184C363.402 367.87 362.471 368.256 361.5 368.256Z" fill="#E6E6E6"/>
<path d="M283.526 382.889H238.255C237.284 382.889 236.352 382.503 235.666 381.817C234.979 381.131 234.594 380.201 234.594 379.23C234.594 378.26 234.979 377.33 235.666 376.644C236.352 375.958 237.284 375.572 238.255 375.572H283.526C284.497 375.572 285.428 375.958 286.114 376.644C286.801 377.33 287.187 378.26 287.187 379.23C287.187 380.201 286.801 381.131 286.114 381.817C285.428 382.503 284.497 382.889 283.526 382.889Z" fill="#E6E6E6"/>
<path d="M378.89 240.519H143.381C142.006 240.517 140.688 239.971 139.716 238.999C138.744 238.027 138.197 236.71 138.195 235.336V171.324C138.199 169.951 138.746 168.635 139.718 167.663C140.69 166.692 142.007 166.145 143.381 166.142H378.89C380.265 166.145 381.582 166.692 382.554 167.663C383.526 168.635 384.073 169.951 384.076 171.324V235.342C384.073 236.715 383.525 238.031 382.553 239.001C381.581 239.971 380.264 240.517 378.89 240.519Z" fill="#F73757"/>
<path d="M58.7151 316.682C60.9665 332.467 49.0446 402.399 50.3686 402.399L67.4887 402.307C68.0989 401.137 75.9573 363.403 78.4222 357.349C81.8633 348.947 85.3349 340.442 86.6894 331.467C87.9646 323.041 87.3362 314.456 86.5064 305.976C86.5694 305.555 86.4629 305.126 86.2102 304.783C85.9575 304.44 85.5792 304.211 85.158 304.147C84.9862 304.119 84.8112 304.119 84.6394 304.147L61.6681 302.964C56.9336 302.72 55.8109 301.683 56.5309 306.329C57.0312 309.792 58.2148 313.17 58.7151 316.682Z" fill="#2F2E41"/>
<path d="M63.2254 278.302C58.5701 285.008 53.6891 292.727 55.2144 300.757C56.392 306.854 61.0411 311.579 65.428 315.999C82.963 333.595 117.539 411.233 117.539 411.233C134.226 400.564 117.142 411.538 134.073 400.259C132.572 400.143 98.4724 277.649 95.6353 277.485C84.1954 276.729 74.3602 275.613 63.2254 278.302Z" fill="#2F2E41"/>
<path d="M81.693 214.466C79.3196 212.357 62.6632 205.839 62.6632 205.839C62.3565 205.798 62.0451 205.808 61.7419 205.87C60.7962 206.108 60.363 207.284 60.5643 208.235C60.7657 209.187 59.1061 224.837 58.679 231.953C57.9286 244.366 65.244 272.497 65.1769 273.357C64.9276 276.423 63.5853 279.299 61.3941 281.46C61.9615 282.167 98.1603 283.588 100.625 284.423C101.119 283.813 97.8187 239.177 97.6661 236.653C97.416 232.831 84.8108 217.369 81.693 214.466Z" fill="#F73757"/>
<path d="M55.8675 311.28C56.6384 310.897 57.3263 310.367 57.8918 309.718C58.4572 309.07 58.8892 308.316 59.1629 307.501C59.4366 306.685 59.5467 305.824 59.4869 304.966C59.4271 304.108 59.1986 303.27 58.8144 302.5C58.6419 302.153 58.4377 301.822 58.2043 301.513L73.4574 217.045L59.2049 216.856L48.5948 300.385C47.3629 301.428 46.5573 302.887 46.3308 304.485C46.1043 306.082 46.4727 307.707 47.3662 309.051C48.2596 310.396 49.6158 311.365 51.1774 311.776C52.7389 312.187 54.397 312.01 55.837 311.28H55.8675Z" fill="#FFB8B8"/>
<path d="M55.7476 223.313C55.1533 223.356 54.5614 223.202 54.0637 222.874C53.2156 222.149 60.165 211.046 61.5011 210.881C65.949 210.369 70.5249 210.199 74.8385 211.4C79.1521 212.601 83.2094 215.332 85.1374 219.374C85.9428 221.057 80.1039 229.526 77.4498 228.282C74.2711 226.807 59.9331 223.417 55.7476 223.313Z" fill="#F73757"/>
<path d="M71.4472 204.931C80.2891 204.931 87.4569 197.768 87.4569 188.932C87.4569 180.097 80.2891 172.934 71.4472 172.934C62.6053 172.934 55.4375 180.097 55.4375 188.932C55.4375 197.768 62.6053 204.931 71.4472 204.931Z" fill="#FFB8B8"/>
<path d="M55.7225 215.381C57.9472 215.615 60.195 215.287 62.2601 214.428C64.3253 213.569 66.1418 212.206 67.5434 210.464C68.945 208.721 69.887 206.656 70.283 204.456C70.679 202.256 70.5165 199.992 69.8103 197.87C69.2002 195.956 68.1081 194.212 67.5224 192.267C66.9366 190.322 66.9122 188.054 68.2179 186.506C70.7499 183.457 75.631 185.384 79.5297 184.78C83.6907 184.14 86.8817 180.153 87.2173 175.958C87.5528 171.763 85.3869 167.617 82.1044 164.953C78.8219 162.289 74.6547 160.978 70.4632 160.563C65.0842 160.035 59.6597 160.899 54.712 163.073C49.7643 165.247 45.4603 168.658 42.2144 172.977C38.9685 177.295 36.8902 182.377 36.1795 187.731C35.4689 193.085 36.1499 198.532 38.157 203.547C39.9019 207.918 42.7634 211.997 46.8208 214.393C50.8781 216.789 56.2411 217.247 60.2924 214.826" fill="#2F2E41"/>
<path d="M246.055 195.401H205.14C202.541 195.401 200.43 192.395 200.43 188.695C200.43 184.994 202.541 181.988 205.14 181.988H246.055C248.654 181.988 250.765 185 250.765 188.695C250.765 192.389 248.654 195.401 246.055 195.401Z" fill="white"/>
<path d="M356.012 210.034H204.09C203.12 210.034 202.188 209.648 201.502 208.962C200.815 208.276 200.43 207.346 200.43 206.376C200.43 205.405 200.815 204.475 201.502 203.789C202.188 203.103 203.12 202.718 204.09 202.718H356.012C356.983 202.718 357.914 203.103 358.601 203.789C359.287 204.475 359.673 205.405 359.673 206.376C359.673 207.346 359.287 208.276 358.601 208.962C357.914 209.648 356.983 210.034 356.012 210.034Z" fill="#E6E6E6"/>
<path d="M278.038 224.667H204.09C203.12 224.667 202.188 224.281 201.502 223.595C200.815 222.909 200.43 221.979 200.43 221.008C200.43 220.038 200.815 219.108 201.502 218.422C202.188 217.736 203.12 217.35 204.09 217.35H278.038C279.009 217.35 279.94 217.736 280.626 218.422C281.313 219.108 281.699 220.038 281.699 221.008C281.699 221.979 281.313 222.909 280.626 223.595C279.94 224.281 279.009 224.667 278.038 224.667Z" fill="#E6E6E6"/>
<path d="M482 426.781H0V428H482V426.781Z" fill="#3F3D56"/>
<path d="M157.299 212.912L149.312 204.931L175.249 179.013H191.216M191.216 202.925H175.249L169.264 208.906L177.25 216.887" fill="#42A5F5" fill-opacity="0.8"/>
<path d="M169.266 224.868L175.251 230.843H191.218L177.252 216.887" fill="#0D47A1"/>
<path d="M161.297 216.893L169.271 208.918L177.246 216.887L169.271 224.862L161.297 216.893Z" fill="#42A5F5"/>
<path d="M169.273 224.862L177.248 216.893L178.364 218.003L170.39 225.971L169.273 224.862Z" fill="url(#paint0_linear_2702_3290)"/>
<path d="M169.266 224.868L181.114 220.777L177.252 216.887" fill="url(#paint1_linear_2702_3290)"/>
<path d="M259.119 69V58.8182H265.433V60.1406H260.655V63.2429H264.98V64.5604H260.655V69H259.119ZM268.689 58.8182V69H267.202V58.8182H268.689ZM275.526 65.8331V61.3636H277.018V69H275.556V67.6776H275.476C275.301 68.0852 275.019 68.425 274.631 68.6967C274.247 68.9652 273.768 69.0994 273.194 69.0994C272.704 69.0994 272.27 68.9917 271.892 68.7763C271.517 68.5575 271.222 68.2344 271.007 67.8068C270.795 67.3793 270.689 66.8506 270.689 66.2209V61.3636H272.175V66.0419C272.175 66.5623 272.319 66.9766 272.608 67.2848C272.896 67.593 273.271 67.7472 273.731 67.7472C274.01 67.7472 274.287 67.6776 274.562 67.5384C274.84 67.3991 275.07 67.1887 275.253 66.907C275.438 66.6252 275.529 66.2673 275.526 65.8331ZM282.58 61.3636V62.5568H278.408V61.3636H282.58ZM279.527 59.5341H281.013V66.7578C281.013 67.0462 281.057 67.2633 281.143 67.4091C281.229 67.5516 281.34 67.6494 281.476 67.7024C281.615 67.7521 281.766 67.777 281.928 67.777C282.048 67.777 282.152 67.7687 282.241 67.7521C282.331 67.7356 282.401 67.7223 282.45 67.7124L282.719 68.9403C282.633 68.9735 282.51 69.0066 282.351 69.0398C282.192 69.0762 281.993 69.0961 281.754 69.0994C281.363 69.1061 280.999 69.0365 280.661 68.8906C280.322 68.7448 280.049 68.5194 279.84 68.2145C279.631 67.9096 279.527 67.5268 279.527 67.0661V59.5341ZM287.789 61.3636V62.5568H283.617V61.3636H287.789ZM284.736 59.5341H286.222V66.7578C286.222 67.0462 286.266 67.2633 286.352 67.4091C286.438 67.5516 286.549 67.6494 286.685 67.7024C286.824 67.7521 286.975 67.777 287.137 67.777C287.257 67.777 287.361 67.7687 287.45 67.7521C287.54 67.7356 287.61 67.7223 287.659 67.7124L287.928 68.9403C287.842 68.9735 287.719 69.0066 287.56 69.0398C287.401 69.0762 287.202 69.0961 286.963 69.0994C286.572 69.1061 286.208 69.0365 285.869 68.8906C285.531 68.7448 285.258 68.5194 285.049 68.2145C284.84 67.9096 284.736 67.5268 284.736 67.0661V59.5341ZM292.642 69.1541C291.89 69.1541 291.242 68.9934 290.698 68.6719C290.158 68.3471 289.74 67.8913 289.445 67.3047C289.154 66.7147 289.008 66.0237 289.008 65.2315C289.008 64.4493 289.154 63.7599 289.445 63.1634C289.74 62.5668 290.151 62.1011 290.678 61.7663C291.209 61.4316 291.828 61.2642 292.538 61.2642C292.969 61.2642 293.386 61.3355 293.79 61.478C294.195 61.6205 294.558 61.8442 294.879 62.1491C295.201 62.4541 295.454 62.8501 295.64 63.3374C295.826 63.8213 295.918 64.4096 295.918 65.1023V65.6293H289.848V64.5156H294.462C294.462 64.1245 294.382 63.7782 294.223 63.4766C294.064 63.1716 293.84 62.9313 293.552 62.7557C293.267 62.58 292.932 62.4922 292.548 62.4922C292.13 62.4922 291.765 62.5949 291.454 62.8004C291.146 63.0026 290.907 63.2678 290.738 63.5959C290.572 63.9207 290.489 64.2737 290.489 64.6548V65.5249C290.489 66.0353 290.579 66.4695 290.758 66.8274C290.94 67.1854 291.194 67.4588 291.518 67.6477C291.843 67.8333 292.223 67.9261 292.657 67.9261C292.939 67.9261 293.196 67.8864 293.428 67.8068C293.66 67.724 293.86 67.6013 294.029 67.4389C294.198 67.2765 294.327 67.076 294.417 66.8374L295.824 67.0909C295.711 67.5052 295.509 67.8681 295.217 68.1797C294.929 68.4879 294.566 68.7282 294.129 68.9006C293.694 69.0696 293.199 69.1541 292.642 69.1541ZM297.568 69V61.3636H299.004V62.5767H299.084C299.223 62.1657 299.468 61.8426 299.82 61.6072C300.174 61.3686 300.575 61.2493 301.023 61.2493C301.116 61.2493 301.225 61.2526 301.351 61.2592C301.48 61.2659 301.581 61.2741 301.654 61.2841V62.706C301.595 62.6894 301.489 62.6712 301.336 62.6513C301.184 62.6281 301.031 62.6165 300.879 62.6165C300.527 62.6165 300.214 62.6911 299.939 62.8402C299.667 62.986 299.452 63.1899 299.293 63.4517C299.134 63.7102 299.054 64.0052 299.054 64.3366V69H297.568ZM307.625 69H305.994L309.659 58.8182H311.433L315.097 69H313.467L310.588 60.6676H310.509L307.625 69ZM307.899 65.0128H313.188V66.3054H307.899V65.0128ZM316.449 71.8636V61.3636H317.9V62.6016H318.025C318.111 62.4425 318.235 62.2585 318.397 62.0497C318.56 61.8409 318.785 61.6586 319.074 61.5028C319.362 61.3438 319.743 61.2642 320.217 61.2642C320.833 61.2642 321.384 61.42 321.868 61.7315C322.351 62.0431 322.731 62.4922 323.006 63.0788C323.284 63.6655 323.424 64.3714 323.424 65.1967C323.424 66.022 323.286 66.7296 323.011 67.3196C322.736 67.9062 322.358 68.3587 321.877 68.6768C321.397 68.9917 320.848 69.1491 320.232 69.1491C319.768 69.1491 319.388 69.0713 319.093 68.9155C318.802 68.7597 318.573 68.5774 318.407 68.3686C318.242 68.1598 318.114 67.9742 318.025 67.8118H317.935V71.8636H316.449ZM317.905 65.1818C317.905 65.7187 317.983 66.1894 318.139 66.5938C318.295 66.9981 318.52 67.3146 318.815 67.5433C319.11 67.7687 319.471 67.8814 319.899 67.8814C320.343 67.8814 320.714 67.7637 321.012 67.5284C321.311 67.2898 321.536 66.9666 321.689 66.5589C321.844 66.1513 321.922 65.6922 321.922 65.1818C321.922 64.678 321.846 64.2256 321.694 63.8246C321.544 63.4235 321.319 63.107 321.017 62.875C320.719 62.643 320.346 62.527 319.899 62.527C319.468 62.527 319.103 62.638 318.805 62.8601C318.51 63.0821 318.286 63.392 318.134 63.7898C317.981 64.1875 317.905 64.6515 317.905 65.1818ZM325.089 71.8636V61.3636H326.541V62.6016H326.665C326.751 62.4425 326.876 62.2585 327.038 62.0497C327.2 61.8409 327.426 61.6586 327.714 61.5028C328.002 61.3438 328.384 61.2642 328.858 61.2642C329.474 61.2642 330.024 61.42 330.508 61.7315C330.992 62.0431 331.372 62.4922 331.647 63.0788C331.925 63.6655 332.064 64.3714 332.064 65.1967C332.064 66.022 331.927 66.7296 331.652 67.3196C331.377 67.9062 330.999 68.3587 330.518 68.6768C330.038 68.9917 329.489 69.1491 328.873 69.1491C328.408 69.1491 328.029 69.0713 327.734 68.9155C327.442 68.7597 327.214 68.5774 327.048 68.3686C326.882 68.1598 326.755 67.9742 326.665 67.8118H326.576V71.8636H325.089ZM326.546 65.1818C326.546 65.7187 326.624 66.1894 326.779 66.5938C326.935 66.9981 327.161 67.3146 327.456 67.5433C327.751 67.7687 328.112 67.8814 328.539 67.8814C328.984 67.8814 329.355 67.7637 329.653 67.5284C329.951 67.2898 330.177 66.9666 330.329 66.5589C330.485 66.1513 330.563 65.6922 330.563 65.1818C330.563 64.678 330.487 64.2256 330.334 63.8246C330.185 63.4235 329.96 63.107 329.658 62.875C329.36 62.643 328.987 62.527 328.539 62.527C328.109 62.527 327.744 62.638 327.446 62.8601C327.151 63.0821 326.927 63.392 326.775 63.7898C326.622 64.1875 326.546 64.6515 326.546 65.1818Z" fill="black"/>
</g>
<defs>
<linearGradient id="paint0_linear_2702_3290" x1="182.494" y1="225.098" x2="183.789" y2="226.393" gradientUnits="userSpaceOnUse">
<stop offset="0.2" stop-opacity="0.15"/>
<stop offset="0.85" stop-color="#616161" stop-opacity="0.01"/>
</linearGradient>
<linearGradient id="paint1_linear_2702_3290" x1="169.881" y1="219.476" x2="183.677" y2="219.476" gradientUnits="userSpaceOnUse">
<stop offset="0.2" stop-opacity="0.55"/>
<stop offset="0.85" stop-color="#616161" stop-opacity="0.01"/>
</linearGradient>
<clipPath id="clip0_2702_3290">
<rect width="482" height="428" fill="white"/>
</clipPath>
</defs>
</svg>
