<svg width="612" height="474" viewBox="0 0 612 474" fill="none" xmlns="http://www.w3.org/2000/svg">
<path d="M518.602 359.597C580.464 343.826 621.032 279.023 609.004 211.494C608.741 210.011 608.466 208.529 608.167 207.058C602.99 181.041 591.512 153.9 569.225 142.626C550.023 132.905 527.055 137.329 507.71 146.727C488.365 156.124 471.195 170.065 452.185 180.204C418.343 198.269 379.119 203.512 341.72 194.97C294.816 184.054 254.75 152.442 211.995 128.864C169.239 105.286 117.289 89.6712 74.0787 112.281C44.726 127.608 24.4003 158.492 12.7787 191.431C-11.3491 259.797 -0.755802 341.22 39.8717 399.734C69.7625 442.86 131.433 441.449 181.183 445.024C268.633 451.108 356.162 434.338 435.171 396.362C460.076 384.406 484.252 370.405 510.352 361.988C513.142 361.095 515.892 360.298 518.602 359.597Z" fill="#C4E6FF"/>
<path d="M510.336 127.931C514.891 124.344 519.398 120.471 522.615 115.461C525.831 110.451 527.66 104.019 526.297 98.1004C525.472 94.8453 523.853 91.8454 521.585 89.3688C519.317 86.8922 516.471 85.0161 513.301 83.9083C507.203 81.6963 500.531 82.1268 494.254 83.6093C469.696 89.4201 447.266 113.919 444.767 141.597C443.034 161.409 450.973 161.409 464.651 155.144C480.912 147.933 496.25 138.797 510.336 127.931Z" fill="#E0F2FF"/>
<path d="M440.523 343.288C428.627 343.288 416.67 339.426 410.178 330.698C392.626 327.602 378.876 309.667 378.805 289.7C378.804 287.025 379.016 284.355 379.438 281.713L379.713 279.932L380.969 281.235C381.502 281.799 382.104 282.294 382.762 282.706C385.132 283.967 387.693 284.831 390.343 285.264C390.881 285.372 391.419 285.492 391.945 285.623C395.827 286.527 399.615 287.8 403.255 289.425L403.471 289.521C404.607 290.155 405.876 290.515 407.177 290.573C407.845 290.522 408.47 290.218 408.923 289.724C409.048 289.59 409.146 289.432 409.21 289.259C409.273 289.087 409.302 288.903 409.293 288.72C409.233 287.871 408.301 287.165 407.32 286.52L390.115 275.365C388.099 273.844 385.779 272.776 383.312 272.232L381.842 272.065L382.236 270.989C385.613 262.158 390.663 254.063 397.11 247.148L398.234 245.952L398.64 247.566C399.13 249.491 401.031 251.045 402.932 252.54L404.307 253.664C407.135 256.339 409.552 259.417 411.481 262.798L413.119 265.321C415.427 268.753 418.655 272.878 423.258 274.348C423.588 274.481 423.944 274.538 424.298 274.516C424.92 274.42 425.339 273.619 425.339 272.949C425.25 272.01 424.907 271.113 424.346 270.355C423.189 268.585 421.919 266.892 420.544 265.285C419.528 264.03 418.464 262.739 417.519 261.376C414.515 256.982 412.343 252.074 411.111 246.897L410.883 245.952C410.517 243.89 409.767 241.915 408.672 240.129C408.323 239.641 407.922 239.192 407.476 238.79L406.711 238.085L407.524 237.439C413.427 232.79 419.692 228.62 426.259 224.969L427.06 224.514L427.491 225.339C428.296 226.746 429.224 228.078 430.265 229.321L430.874 230.11C434.811 235.191 437.822 240.926 439.77 247.052C439.866 247.351 440.152 248.248 440.535 248.331C440.577 248.341 440.62 248.34 440.662 248.33C440.703 248.319 440.742 248.299 440.774 248.272C441.197 247.877 441.471 247.35 441.551 246.777C442.843 240.213 439.997 233.517 437.367 228.412L437.175 228.042C435.903 225.996 435.088 223.7 434.784 221.31C434.772 221.139 434.772 220.967 434.784 220.796L434.844 220.318L435.274 220.091C440.2 217.568 445.186 215.177 450.291 212.737L455.002 210.478L455.205 211.673C455.325 212.379 455.468 213.084 455.624 213.79L458.9 228.58C459.091 229.405 459.33 230.206 459.844 230.433C460.113 230.493 460.394 230.469 460.648 230.365C460.903 230.26 461.119 230.079 461.267 229.847C461.695 229.148 461.968 228.365 462.068 227.551C462.937 223.881 463.422 220.131 463.515 216.36C463.515 215.571 463.515 214.794 463.419 213.969C463.325 212.732 463.297 211.491 463.336 210.251C463.388 208.961 463.584 207.682 463.922 206.436L464.017 206.042L464.376 205.863C471.802 202.202 478.99 198.077 485.897 193.512C487.228 192.605 488.776 192.067 490.382 191.952C491.989 191.838 493.597 192.15 495.043 192.858C496.49 193.566 497.723 194.645 498.618 195.984C499.512 197.323 500.037 198.875 500.137 200.482C500.508 206.604 500.711 213.084 500.771 220.306V220.485V220.641C500.461 221.479 500.06 222.281 499.575 223.032C498.036 225.241 496.042 227.095 493.729 228.472C492.651 229.085 491.542 229.64 490.405 230.134C489.699 230.469 488.982 230.791 488.277 231.162C484.983 233.003 481.897 235.192 479.07 237.69C478.4 238.164 477.834 238.77 477.408 239.472C477.279 239.713 477.224 239.988 477.252 240.261C477.28 240.533 477.388 240.792 477.564 241.002C478.006 241.349 478.831 241.181 479.644 241.002L494.243 236.973C496.025 236.572 497.738 235.907 499.324 235L500.747 234.091V235.777C500.615 242.437 500.412 249.025 500.197 255.744V256.199L500.018 256.426C499.338 257.439 498.449 258.295 497.411 258.937C495.163 259.792 492.758 260.158 490.357 260.013H489.938C484.199 260.084 476.954 260.706 471.753 264.915C471.291 265.26 470.955 265.747 470.796 266.302C470.789 266.346 470.791 266.392 470.803 266.435C470.816 266.479 470.838 266.519 470.868 266.553C471.107 266.84 472.064 266.672 472.351 266.624C478.673 265.468 485.149 265.44 491.481 266.541L492.425 266.708C494.435 267.172 496.502 267.333 498.559 267.186L499.659 267.043L499.575 268.143C499.103 275.753 498.048 283.316 496.419 290.764L496.18 291.781L495.211 291.386C494.549 291.133 493.858 290.961 493.155 290.872C491.059 290.752 488.96 291.019 486.961 291.661L486.017 291.888C480.873 293.246 475.524 293.651 470.235 293.084C468.585 292.881 466.947 292.558 465.368 292.247C463.303 291.785 461.21 291.454 459.103 291.254C458.168 291.121 457.214 291.241 456.341 291.601C456.032 291.741 455.777 291.978 455.616 292.275C455.454 292.573 455.394 292.916 455.445 293.251C455.586 293.58 455.803 293.871 456.078 294.1C459.546 297.472 464.699 298.392 468.812 298.811C469.804 298.918 470.796 299.002 471.801 299.074C475.7 299.21 479.559 299.915 483.255 301.166L484.869 301.848C487.033 302.78 489.269 303.737 491.17 303.33L492.808 302.984L492.186 304.538C488.827 313.162 483.801 321.04 477.396 327.721L476.727 328.403L476.093 327.602C474.523 326.05 472.71 324.765 470.725 323.8L452.79 313.828C451.75 313.254 450.686 312.776 449.909 313.111C449.744 313.19 449.596 313.302 449.475 313.44C449.354 313.577 449.262 313.738 449.203 313.912C448.981 314.543 449.007 315.235 449.275 315.849C449.935 316.972 450.848 317.926 451.941 318.634L452.121 318.778C455.265 321.229 458.168 323.976 460.789 326.98L461.865 328.235C463.482 330.379 465.446 332.238 467.676 333.735H467.795L469.146 334.453L467.951 335.325C465.112 337.179 462.086 338.73 458.924 339.952C453.039 342.156 446.807 343.286 440.523 343.288ZM380.981 283.65C380.729 285.633 380.601 287.63 380.598 289.628C380.67 308.854 393.953 326.119 410.824 328.929H411.194L411.41 329.228C420.807 342.272 443.058 344.065 458.29 338.255C460.892 337.247 463.397 336.007 465.775 334.548C463.795 333.038 462.018 331.278 460.49 329.311C460.143 328.905 459.797 328.486 459.438 328.116C456.91 325.199 454.107 322.533 451.069 320.153L450.889 320.009C449.56 319.134 448.464 317.948 447.697 316.554C447.223 315.5 447.18 314.303 447.577 313.218C447.721 312.82 447.943 312.456 448.231 312.146C448.519 311.835 448.865 311.586 449.251 311.413C450.949 310.683 452.742 311.676 453.711 312.214L471.645 322.185C473.507 323.122 475.243 324.291 476.81 325.665C482.415 319.649 486.894 312.675 490.034 305.076C488.009 304.86 486.039 304.277 484.223 303.354C483.697 303.127 483.171 302.9 482.657 302.697C479.126 301.509 475.44 300.844 471.717 300.724C470.701 300.64 469.685 300.556 468.692 300.449C464.292 300.006 458.745 299.002 454.883 295.236C454.403 294.813 454.034 294.279 453.807 293.682C453.616 292.941 453.687 292.157 454.007 291.462C454.327 290.767 454.877 290.204 455.564 289.868C456.734 289.347 458.025 289.16 459.295 289.33C461.474 289.528 463.638 289.864 465.775 290.334C467.329 290.645 468.931 290.968 470.557 291.171C475.632 291.727 480.765 291.354 485.706 290.071L486.627 289.832C488.841 289.124 491.171 288.848 493.49 289.019C493.998 289.079 494.501 289.175 494.996 289.306C496.437 282.606 497.408 275.815 497.901 268.98C496.02 268.983 494.144 268.782 492.306 268.382L491.373 268.227C485.248 267.162 478.982 267.187 472.865 268.298C472.322 268.475 471.742 268.505 471.183 268.386C470.624 268.266 470.108 268.001 469.685 267.617C469.502 267.402 469.365 267.153 469.283 266.883C469.201 266.614 469.174 266.331 469.206 266.051C469.406 265.013 469.981 264.085 470.82 263.444C476.44 258.877 484.08 258.207 490.106 258.136H490.441C492.59 258.27 494.744 257.957 496.766 257.215C497.45 256.733 498.049 256.139 498.535 255.457C498.726 249.312 498.918 243.286 499.037 237.2C497.692 237.786 496.3 238.257 494.876 238.611L480.242 242.712C479.652 242.951 479.015 243.051 478.38 243.004C477.746 242.956 477.131 242.762 476.583 242.437C476.079 241.982 475.738 241.373 475.615 240.705C475.492 240.037 475.593 239.347 475.902 238.742C476.429 237.793 477.165 236.975 478.054 236.351C480.992 233.768 484.199 231.507 487.619 229.608C488.336 229.237 489.078 228.902 489.819 228.556C490.919 228.053 491.971 227.563 492.975 226.977C495.069 225.733 496.871 224.053 498.26 222.051C498.63 221.45 498.939 220.813 499.181 220.15C499.181 212.977 498.918 206.628 498.547 200.602C498.466 199.311 498.044 198.064 497.325 196.988C496.606 195.913 495.614 195.047 494.452 194.479C493.29 193.91 491.998 193.66 490.707 193.752C489.417 193.845 488.174 194.278 487.105 195.006C480.241 199.536 473.101 203.633 465.727 207.273C465.484 208.278 465.336 209.302 465.285 210.334C465.285 211.53 465.285 212.642 465.368 213.921C465.368 214.734 465.464 215.547 465.476 216.312C465.388 220.212 464.892 224.091 463.993 227.886C463.832 228.973 463.423 230.008 462.798 230.911C462.412 231.473 461.849 231.889 461.199 232.095C460.55 232.301 459.85 232.284 459.211 232.047C458.665 231.716 458.204 231.263 457.864 230.724C457.524 230.184 457.313 229.573 457.25 228.938L453.974 214.148C453.89 213.802 453.819 213.455 453.747 213.108L451.152 214.304C446.238 216.695 441.42 218.967 436.673 221.394C437.005 223.438 437.728 225.398 438.801 227.169L438.993 227.551C441.755 232.908 444.744 239.974 443.345 247.076C443.171 248.119 442.623 249.063 441.802 249.73C441.568 249.888 441.305 249.997 441.027 250.051C440.75 250.104 440.464 250.101 440.188 250.041C438.801 249.742 438.311 248.2 438.096 247.542C436.212 241.618 433.298 236.073 429.487 231.162L428.89 230.385C427.986 229.286 427.151 228.132 426.391 226.93C420.478 230.258 414.819 234.018 409.461 238.18C409.7 238.455 409.923 238.742 410.13 239.041C411.369 241.008 412.214 243.197 412.617 245.486L412.856 246.406C414.038 251.37 416.112 256.078 418.978 260.3C419.899 261.603 420.939 262.87 421.943 264.102C423.36 265.778 424.674 267.539 425.877 269.374C426.628 270.427 427.067 271.67 427.144 272.961C427.168 273.727 426.929 274.478 426.465 275.087C426.001 275.697 425.342 276.128 424.597 276.309C423.962 276.389 423.318 276.311 422.72 276.082C417.591 274.444 414.112 270.008 411.649 266.338C411.087 265.501 410.537 264.652 409.987 263.791C408.132 260.562 405.821 257.618 403.124 255.051L401.797 253.963C400.067 252.766 398.589 251.243 397.445 249.479C391.858 255.707 387.407 262.865 384.293 270.63C386.735 271.295 389.033 272.405 391.072 273.906L408.277 285.061C409.21 285.671 410.931 286.783 411.075 288.648C411.106 289.069 411.05 289.491 410.913 289.89C410.775 290.289 410.558 290.655 410.274 290.968C409.505 291.831 408.426 292.355 407.273 292.426C405.68 292.398 404.118 291.988 402.717 291.231L402.514 291.135C398.979 289.553 395.299 288.316 391.526 287.44L389.948 287.082C387.096 286.619 384.343 285.677 381.806 284.296C381.516 284.1 381.24 283.885 380.981 283.65Z" fill="#4895E0"/>
<path d="M278.683 336.7C277.874 333.87 276.768 331.133 275.384 328.534L275.216 328.797C273.518 331.188 270.936 332.791 268.557 334.524C265.746 336.568 263.139 338.878 260.773 341.423C259.947 342.487 258.877 343.336 257.652 343.898C257.034 344.162 256.337 344.177 255.707 343.941C255.077 343.705 254.562 343.236 254.269 342.631C254.181 342.065 254.221 341.486 254.387 340.938C254.552 340.389 254.839 339.885 255.225 339.462C258.605 334.456 261.996 329.451 265.4 324.445C266.453 322.701 267.786 321.142 269.346 319.83C264.033 313.737 257.568 308.756 250.323 305.172C250.622 307.563 248.888 310.109 247.717 312.429C245.816 316.231 245.397 320.583 244.584 324.768C243.771 328.953 242.408 333.293 239.168 336.079C238.851 336.378 238.471 336.603 238.056 336.736C237.571 336.802 237.078 336.7 236.659 336.448C236.239 336.196 235.918 335.808 235.748 335.349C235.431 334.417 235.382 333.415 235.605 332.456C236.143 329.156 237.386 326.023 238.092 322.759C239.004 318.236 239.081 313.584 238.319 309.033C237.798 306.857 237.684 304.603 237.984 302.386C238.127 301.706 238.356 301.047 238.666 300.425C232.277 298.391 225.742 296.852 219.117 295.822C219.043 298.01 218.64 300.174 217.922 302.242C216.54 307.642 216.103 313.241 216.63 318.79C216.702 319.519 216.714 320.392 216.116 320.81C215.291 321.396 214.203 320.535 213.641 319.686C210.377 314.904 210.15 308.603 210.592 302.78C210.93 300.669 210.82 298.51 210.27 296.443C209.815 295.604 209.202 294.861 208.464 294.255H208.261C202.402 293.55 196.556 292.845 190.721 292.223C191.432 293.761 191.907 295.398 192.132 297.077C192.929 301.461 193.726 305.845 194.523 310.229C194.664 310.647 194.707 311.092 194.649 311.529C194.591 311.967 194.434 312.385 194.188 312.752C193.866 313.044 193.455 313.219 193.022 313.25C192.588 313.28 192.157 313.164 191.797 312.919C191.101 312.439 190.521 311.81 190.099 311.078C188.087 308.343 186.371 305.401 184.982 302.302C184.312 300.664 183.786 298.942 183.057 297.34C182.074 295.291 180.664 293.477 178.92 292.02C178.332 291.573 177.694 291.196 177.019 290.896C171.208 290.429 165.386 290.071 159.551 289.915C158.276 289.89 157.017 290.2 155.9 290.814C154.783 291.428 153.846 292.324 153.184 293.413C152.522 294.503 152.157 295.747 152.127 297.022C152.097 298.296 152.401 299.556 153.011 300.676C156.513 307.157 159.6 313.854 162.253 320.727C163.274 321.098 164.333 321.358 165.41 321.504C167.167 321.731 168.996 321.671 170.73 321.803C174.143 322.179 177.506 322.921 180.761 324.015C181.588 324.192 182.364 324.551 183.033 325.067C183.36 325.334 183.592 325.699 183.693 326.109C183.794 326.519 183.76 326.95 183.595 327.338C183.322 327.684 182.972 327.962 182.574 328.15C182.176 328.339 181.74 328.434 181.299 328.427L168.004 330.16C167.366 330.24 166.721 330.312 166.067 330.375C166.498 331.487 166.916 332.611 167.323 333.723C169.044 338.326 170.778 342.941 172.631 347.509H172.954C175.089 347.394 177.177 346.841 179.088 345.883C184.492 343.671 190.506 341.961 196.113 343.599C197.094 343.874 198.242 344.639 197.943 345.608C197.727 346.313 196.89 346.564 196.173 346.72C190.694 347.974 185.478 350.179 180.761 353.236C179.31 354.254 177.774 355.146 176.17 355.902C178.866 361.933 182.032 367.741 185.64 373.275C186.063 372.886 186.528 372.545 187.027 372.258C189.05 371.292 191.235 370.709 193.471 370.537C198.031 369.86 202.431 368.361 206.456 366.113C209.349 364.439 211.955 362.299 214.933 360.78C215.775 360.279 216.738 360.014 217.718 360.015C218.208 360.035 218.676 360.221 219.046 360.542C219.415 360.864 219.664 361.302 219.751 361.785C219.757 362.228 219.659 362.666 219.464 363.064C217.814 366.986 214.096 369.628 210.365 371.672C206.635 373.717 202.618 375.463 199.605 378.44C197.703 380.293 195.814 382.78 193.351 383.222C198.865 389.379 205.525 394.402 212.96 398.012C212.954 397.909 212.954 397.805 212.96 397.701C213.646 395.451 214.822 393.381 216.403 391.639C220.118 386.857 223.84 382.094 227.57 377.352C228.276 376.443 229.149 375.451 230.296 375.463C230.961 375.561 231.563 375.908 231.981 376.435C232.399 376.961 232.6 377.627 232.544 378.296C232.381 379.635 231.897 380.915 231.133 382.027C229.439 385.074 228.042 388.277 226.961 391.592C226.04 394.389 225.311 397.331 223.553 399.686C223.101 400.289 222.571 400.828 221.975 401.288C224.226 401.873 226.521 402.273 228.838 402.484C245.05 403.859 262.59 394.114 266.667 378.32C279.234 370.764 282.653 350.701 278.683 336.7ZM200.095 334.608C199.652 335.708 198.182 335.887 196.998 335.875C194.607 335.875 192.311 335.816 189.968 335.744C188.772 335.744 187.146 335.194 187.313 333.998C187.397 333.376 188.007 332.958 188.581 332.695C189.954 332.108 191.48 331.978 192.933 332.324V331.762C194.344 332.264 195.898 331.762 197.393 331.834C198.887 331.906 200.645 333.209 200.095 334.608ZM228.264 334.548C228.072 335.266 227.75 336.09 227.068 336.27C226.387 336.449 225.514 335.744 225.036 335.074C222.966 331.931 222.068 328.16 222.501 324.421C222.412 324.225 222.366 324.012 222.366 323.796C222.366 323.581 222.412 323.368 222.502 323.172C222.591 322.976 222.722 322.801 222.885 322.66C223.047 322.518 223.239 322.414 223.445 322.353C223.923 322.271 224.414 322.306 224.876 322.453C225.338 322.601 225.758 322.858 226.1 323.202C229.172 325.82 229.304 330.603 228.264 334.548Z" fill="#79B9F7"/>
<path d="M233.673 375.188C228.4 378.332 228.532 384.92 228.269 390.611C228.169 392.764 227.962 394.911 227.647 397.044C226.619 404.038 216.384 404.026 215.368 397.044C215.067 394.947 214.884 392.836 214.818 390.719C214.579 382.696 215.404 374.614 214.22 366.687C212.929 358.054 208.744 349.23 200.602 345.584C198.481 344.591 196.117 344.237 193.799 344.567C186.565 345.763 185.429 352.877 184.138 358.293C183.72 360.075 183.361 361.88 183.074 363.674C182.812 365.37 182.058 366.952 180.907 368.224C179.755 369.496 178.255 370.403 176.594 370.831C174.932 371.26 173.181 371.192 171.557 370.636C169.934 370.08 168.509 369.06 167.459 367.703C161.362 359.644 154.226 352.428 146.237 346.241C143.785 344.364 140.593 341.519 137.508 341.566C135.117 341.566 123.161 344.651 121.296 355.567C120.894 358.287 121.205 361.064 122.198 363.627C123.191 366.19 124.833 368.452 126.963 370.19C134.721 376.688 143.309 382.124 152.502 386.355C154.04 387.084 155.334 388.244 156.225 389.695C157.115 391.147 157.565 392.826 157.518 394.528C157.471 396.23 156.93 397.881 155.961 399.281C154.991 400.681 153.636 401.769 152.059 402.412C149.548 403.456 147.062 404.564 144.599 405.736C140.055 407.924 135.177 410.793 135.536 417.047C135.712 419.438 136.604 421.721 138.094 423.599C143.415 430.677 152.86 432.841 161.517 432.255C169.515 431.705 177.239 429.17 185.118 427.688C187.143 427.312 189.187 427.048 191.24 426.899C192.741 426.776 194.235 427.202 195.445 428.097C196.655 428.993 197.5 430.297 197.821 431.768C198.142 433.239 197.919 434.777 197.192 436.095C196.466 437.414 195.286 438.424 193.87 438.939C191.91 439.668 189.925 440.313 187.892 440.852C182.392 442.322 175.936 443.613 173.975 449.436C173.513 450.935 173.408 452.52 173.667 454.067C173.927 455.613 174.544 457.078 175.47 458.344C179.164 463.664 185.477 465.338 191.539 466.008C203.089 467.276 214.771 465.516 225.435 460.902C226.918 460.257 228.4 459.551 229.883 458.894C235.338 456.514 239.997 452.622 243.31 447.679C244.366 446.107 245.567 444.638 246.897 443.291C251.015 438.984 253.819 433.592 254.979 427.747C255.302 426.145 255.673 424.555 255.983 422.965C258.21 411.563 257.427 399.777 253.712 388.77C251.763 382.995 248.774 377.184 242.796 374.709C241.345 374.065 239.762 373.772 238.177 373.856C236.592 373.939 235.048 374.395 233.673 375.188Z" fill="#4895E0"/>
<path d="M243.57 443.829L228.959 431.741L214.265 419.785L198.267 406.872C198.183 404.648 198.052 402.424 197.944 400.2L197.478 393.122C197.143 388.411 196.713 383.701 196.342 378.99C195.972 374.279 195.457 369.58 194.931 364.881C194.405 360.183 193.879 355.484 193.21 350.797C193.389 355.579 193.688 360.242 194.023 364.965C194.357 369.688 194.776 374.387 195.147 379.097C195.517 383.808 196.043 388.507 196.557 393.206L197.358 400.248C197.645 402.448 197.908 404.636 198.231 406.836L184.757 395.968L167.085 381.883C167.13 379.801 167.018 377.719 166.75 375.654C166.471 373.297 165.97 370.971 165.256 368.707C165.131 371.079 165.235 373.458 165.567 375.809C165.829 377.756 166.228 379.682 166.762 381.572L155.141 372.33C145.217 364.511 135.281 356.691 125.25 348.979C134.325 356.548 143.471 364.021 152.63 371.481C150.085 371.733 147.56 372.16 145.074 372.761C142.289 373.383 139.558 374.227 136.907 375.283C139.749 375.054 142.568 374.598 145.337 373.92C147.89 373.34 150.399 372.581 152.845 371.649L154.459 373.036L183.967 396.864L191.978 403.237C190.125 403.751 188.284 404.313 186.43 404.851L180.345 406.74C176.291 408.008 172.262 409.371 168.233 410.722C164.204 412.073 160.198 413.496 156.205 414.966C152.211 416.437 148.23 417.908 144.249 419.51C148.35 418.374 152.415 417.118 156.468 415.827C160.521 414.536 164.55 413.209 168.58 411.858C172.609 410.507 176.614 409.084 180.608 407.613L186.586 405.401C188.391 404.696 190.173 404.002 192.002 403.273L213.607 420.466L228.588 432.207L233.06 435.675C231.231 435.962 229.413 436.332 227.584 436.667L222.096 437.791C218.437 438.544 214.791 439.393 211.156 440.182C207.521 440.971 203.887 441.928 200.276 442.896C196.665 443.865 193.102 444.809 189.515 445.909C193.21 445.299 196.868 444.546 200.527 443.781C204.185 443.016 207.832 442.179 211.479 441.39C215.126 440.601 218.736 439.644 222.359 438.676L227.775 437.229C229.545 436.703 231.362 436.225 233.108 435.663L243.57 443.829Z" fill="#316699"/>
<path d="M237.847 425.99L238.158 432.817C238.313 435.077 238.433 437.337 238.624 439.596C238.696 437.337 238.708 435.065 238.744 432.805V426.026C238.744 421.506 238.612 416.987 238.54 412.467C238.469 407.948 238.277 403.428 238.074 398.909C237.871 394.389 237.632 389.87 237.273 385.339C237.141 389.87 237.141 394.389 237.153 398.909C237.165 403.428 237.285 407.96 237.357 412.479C237.428 416.999 237.644 421.471 237.847 425.99Z" fill="#316699"/>
<path d="M492.889 409.335C488.8 404.05 481.698 405.066 475.529 405.533C473.19 405.712 470.843 405.772 468.499 405.712C460.823 405.521 459.483 394.485 466.884 392.464C469.109 391.865 471.364 391.386 473.64 391.03C482.26 389.714 491.096 389.535 499.501 387.204C508.648 384.669 517.615 378.99 520.473 369.712C521.258 367.292 521.324 364.696 520.664 362.239C518.452 354.599 510.585 354.276 504.583 353.63C502.598 353.427 500.613 353.272 498.604 353.2C496.745 353.131 494.945 352.52 493.427 351.443C491.909 350.366 490.738 348.87 490.058 347.138C489.377 345.405 489.217 343.512 489.597 341.69C489.977 339.868 490.88 338.196 492.196 336.88C500.078 329.234 506.913 320.578 512.522 311.138C514.219 308.244 516.874 304.43 516.407 301.094C516.049 298.548 511.194 286.006 499.154 285.468C496.17 285.383 493.215 286.073 490.577 287.471C487.939 288.868 485.708 290.926 484.102 293.442C478.147 302.685 473.443 312.676 470.113 323.154C469.52 324.902 468.434 326.442 466.986 327.587C465.538 328.731 463.789 329.433 461.951 329.606C460.113 329.779 458.264 329.417 456.628 328.562C454.991 327.708 453.637 326.399 452.728 324.792C451.269 322.221 449.751 319.686 448.149 317.188C445.184 312.572 441.441 307.694 434.746 308.902C432.195 309.412 429.851 310.659 428.003 312.489C421.08 319.172 420.004 329.646 421.773 338.912C423.423 347.473 427.178 355.472 429.82 363.781C430.498 365.913 431.056 368.08 431.494 370.274C431.84 371.882 431.588 373.562 430.783 374.998C429.979 376.433 428.678 377.526 427.125 378.07C425.572 378.615 423.874 378.574 422.349 377.955C420.825 377.336 419.578 376.182 418.844 374.709C417.792 372.701 416.835 370.632 415.986 368.528C413.667 362.789 411.431 355.974 404.879 354.647C403.202 354.35 401.479 354.447 399.846 354.931C398.213 355.414 396.715 356.271 395.469 357.433C390.221 362.131 389.252 369.162 389.324 375.797C389.489 388.418 392.934 400.779 399.319 411.666C400.216 413.185 401.173 414.691 402.081 416.21C405.364 421.783 410.172 426.301 415.939 429.23C417.767 430.146 419.507 431.227 421.14 432.458C426.319 436.338 432.501 438.653 438.955 439.13C440.724 439.273 442.482 439.465 444.251 439.596C456.854 440.496 469.475 438.102 480.873 432.65C486.851 429.78 492.722 425.787 494.599 419.007C495.087 417.373 495.186 415.648 494.889 413.969C494.593 412.289 493.908 410.703 492.889 409.335Z" fill="#79B9F7"/>
<path d="M499.275 361.175C495.03 360.828 490.774 360.589 486.529 360.338C482.285 360.087 478.016 359.908 473.76 359.776L467.375 359.597C465.618 359.597 463.86 359.597 462.103 359.597L462.677 358.724L485.178 324.051L488.335 319.137C492.107 317.74 495.803 316.143 499.406 314.354C503.177 312.559 506.849 310.564 510.406 308.376C506.479 309.814 502.631 311.463 498.88 313.314C495.293 315.059 491.826 316.901 488.442 318.993L496.417 306.642L507.477 289.198L495.927 306.319L484.461 323.525L482.883 325.916C483.696 321.325 484.222 316.697 484.64 312.07C485.059 307.18 485.382 302.29 485.346 297.364C484.449 302.147 483.899 307.085 483.457 311.963C483.05 316.662 482.751 321.372 482.763 326.107L461.744 358.018L454.917 368.516C454.558 366.484 454.164 364.463 453.781 362.442L452.382 355.603C451.426 351.048 450.373 346.516 449.369 341.973C448.365 337.43 447.241 332.91 446.093 328.403C444.945 323.895 443.798 319.376 442.506 314.904C443.307 319.495 444.24 324.051 445.196 328.606C446.153 333.161 447.193 337.693 448.197 342.236C449.202 346.78 450.326 351.299 451.473 355.807L453.195 362.574C453.757 364.582 454.283 366.591 454.857 368.552L439.23 392.62C434.727 399.61 430.231 406.621 425.744 413.651C425.038 411.535 424.297 409.431 423.567 407.314L421.057 400.38C419.371 395.753 417.589 391.173 415.856 386.582C414.122 381.991 412.269 377.424 410.392 372.88C408.514 368.337 406.649 363.781 404.641 359.298C406.183 363.961 407.857 368.588 409.543 373.203C411.229 377.818 413.01 382.409 414.744 387.012C416.477 391.616 418.331 396.159 420.208 400.702L423.017 407.518C423.914 409.586 424.787 411.654 425.708 413.711C422.79 418.278 419.885 422.857 416.992 427.449C419.965 423.057 422.926 418.657 425.875 414.249V414.345V414.237C426.975 412.611 428.075 410.997 429.163 409.359C431.351 409.574 433.551 409.717 435.739 409.897L442.387 410.315C446.811 410.59 451.246 410.77 455.682 410.949C460.118 411.128 464.554 411.248 468.989 411.308C473.425 411.367 477.861 411.427 482.309 411.308C477.885 410.889 473.449 410.614 469.025 410.351C464.601 410.088 460.166 409.885 455.73 409.706C451.294 409.526 446.858 409.407 442.423 409.347L435.763 409.263C433.563 409.263 431.363 409.263 429.163 409.263C432.758 403.875 436.345 398.479 439.924 393.074L462.007 359.597C463.777 359.788 465.594 359.955 467.328 360.135L473.688 360.649C477.933 360.984 482.189 361.235 486.434 361.486C490.678 361.737 494.935 361.916 499.191 362.036C503.448 362.155 507.716 362.299 511.972 362.287C507.764 361.856 503.519 361.498 499.275 361.175Z" fill="#316699"/>
<path d="M417.607 97.8972H237.437C229.632 97.8972 223.305 104.224 223.305 112.03V459.193C223.305 466.998 229.632 473.325 237.437 473.325H417.607C425.412 473.325 431.739 466.998 431.739 459.193V112.03C431.739 104.224 425.412 97.8972 417.607 97.8972Z" fill="#BCDFFD"/>
<path d="M426.955 119.419H228.086V439.25H426.955V119.419Z" fill="#121B46"/>
<path d="M351.824 105.812H292.844V110.595H351.824V105.812Z" fill="#121B46"/>
<path d="M362.185 108.203C362.185 108.695 362.039 109.176 361.766 109.585C361.492 109.994 361.104 110.313 360.65 110.501C360.195 110.689 359.695 110.739 359.213 110.643C358.73 110.547 358.287 110.31 357.939 109.962C357.592 109.614 357.355 109.171 357.259 108.689C357.163 108.206 357.212 107.706 357.4 107.252C357.588 106.797 357.907 106.409 358.316 106.136C358.725 105.862 359.206 105.717 359.698 105.717C360.356 105.72 360.987 105.983 361.453 106.448C361.919 106.914 362.182 107.545 362.185 108.203Z" fill="#121B46"/>
<path d="M353.225 447.619H301.812V457.782H353.225V447.619Z" fill="#121B46"/>
<path d="M426.939 119.419H228.07V130.777H426.939V119.419Z" fill="white"/>
<path d="M426.939 414.44H228.07V439.297H426.939V414.44Z" fill="white"/>
<path d="M410.081 383.557H368.819C366.455 383.557 364.539 385.473 364.539 387.837V429.099C364.539 431.463 366.455 433.379 368.819 433.379H410.081C412.445 433.379 414.361 431.463 414.361 429.099V387.837C414.361 385.473 412.445 383.557 410.081 383.557Z" fill="#1B2869"/>
<path d="M410.081 383.557H368.819C366.455 383.557 364.539 385.473 364.539 387.837V429.099C364.539 431.463 366.455 433.379 368.819 433.379H410.081C412.445 433.379 414.361 431.463 414.361 429.099V387.837C414.361 385.473 412.445 383.557 410.081 383.557Z" stroke="#364EC9" stroke-width="2" stroke-linecap="round" stroke-linejoin="round" stroke-dasharray="7 7"/>
<path d="M286.221 383.557H244.96C242.596 383.557 240.68 385.473 240.68 387.837V429.099C240.68 431.463 242.596 433.379 244.96 433.379H286.221C288.585 433.379 290.502 431.463 290.502 429.099V387.837C290.502 385.473 288.585 383.557 286.221 383.557Z" fill="#A8D0F7"/>
<path d="M248.18 399.268C248.225 398.816 248.361 398.378 248.578 397.98C248.796 397.581 249.091 397.23 249.447 396.948C250.714 395.836 254.684 390.827 255.796 391.496C256.908 392.166 260.208 398.969 259.682 400.236C259.156 401.504 256.776 402.328 257.147 404.277C257.518 406.226 265.959 418.099 270.526 417.728C275.093 417.358 273.515 413.914 275.452 414.285C277.389 414.655 283.152 418.697 282.996 420.418C282.841 422.14 278.812 427.52 273.73 426.325C267.317 424.757 261.493 421.369 256.96 416.569C252.427 411.768 249.378 405.76 248.18 399.268Z" fill="white"/>
<path d="M348.143 383.557H306.882C304.518 383.557 302.602 385.473 302.602 387.837V429.099C302.602 431.463 304.518 433.379 306.882 433.379H348.143C350.507 433.379 352.423 431.463 352.423 429.099V387.837C352.423 385.473 350.507 383.557 348.143 383.557Z" fill="#35C4A6"/>
<path d="M344.861 397.283H310.188V421.279H344.861V397.283Z" fill="white"/>
<path d="M310.688 398.443L318.794 406.585C320.157 407.924 321.496 409.287 322.895 410.578C323.588 411.224 324.282 411.882 324.999 412.467C325.341 412.758 325.705 413.021 326.087 413.257C326.159 413.303 326.235 413.343 326.314 413.376L326.494 413.292L326.757 413.137C328.296 412.05 329.769 410.872 331.169 409.61L335.485 405.856L339.789 402.053L344.141 398.287C341.559 401.133 338.857 403.847 336.107 406.525C334.744 407.876 333.333 409.167 331.91 410.471C330.482 411.792 328.973 413.022 327.39 414.153L327.032 414.357C326.878 414.439 326.713 414.499 326.542 414.536C326.317 414.58 326.085 414.56 325.872 414.476C325.731 414.414 325.596 414.342 325.465 414.261C325.04 413.995 324.64 413.691 324.27 413.352C323.517 412.718 322.811 412.061 322.118 411.391C320.755 410.028 319.416 408.641 318.136 407.207C315.554 404.373 313.055 401.468 310.688 398.443Z" fill="#121B46"/>
<path d="M310.523 419.964C311.919 417.981 313.492 416.128 315.222 414.428C316.92 412.692 318.778 411.119 320.77 409.729C317.948 413.687 314.485 417.146 310.523 419.964Z" fill="#121B46"/>
<path d="M342.247 419.964C338.285 417.146 334.822 413.687 332 409.729C333.992 411.119 335.85 412.692 337.548 414.428C339.278 416.128 340.851 417.981 342.247 419.964Z" fill="#121B46"/>
<path d="M348.143 279.095H306.882C304.518 279.095 302.602 281.011 302.602 283.375V324.636C302.602 327 304.518 328.917 306.882 328.917H348.143C350.507 328.917 352.423 327 352.423 324.636V283.375C352.423 281.011 350.507 279.095 348.143 279.095Z" fill="#1B2869"/>
<path d="M348.143 279.095H306.882C304.518 279.095 302.602 281.011 302.602 283.375V324.636C302.602 327 304.518 328.917 306.882 328.917H348.143C350.507 328.917 352.423 327 352.423 324.636V283.375C352.423 281.011 350.507 279.095 348.143 279.095Z" stroke="#364EC9" stroke-width="2" stroke-linecap="round" stroke-linejoin="round" stroke-dasharray="7 7"/>
<path d="M285.792 279.095H244.53C242.166 279.095 240.25 281.011 240.25 283.375V324.636C240.25 327 242.166 328.917 244.53 328.917H285.792C288.156 328.917 290.072 327 290.072 324.636V283.375C290.072 281.011 288.156 279.095 285.792 279.095Z" fill="#A8D0F7"/>
<path d="M286.289 321.623V306.57C285.799 305.652 285.209 304.79 284.531 304C282.14 301.238 277.883 299.588 274.512 301.166C272.24 302.242 270.841 304.466 269.251 306.367C267.661 308.268 265.377 310.074 262.878 309.679C260.678 309.32 259.172 307.431 257.88 305.674L251.101 296.396C250.274 295.111 249.211 293.995 247.969 293.108C247.397 292.729 246.747 292.485 246.067 292.396C245.388 292.307 244.696 292.374 244.047 292.593V321.623H286.289Z" fill="white"/>
<path d="M275.803 295.26C278.239 295.26 280.214 293.285 280.214 290.848C280.214 288.411 278.239 286.436 275.803 286.436C273.366 286.436 271.391 288.411 271.391 290.848C271.391 293.285 273.366 295.26 275.803 295.26Z" fill="white"/>
<path d="M398.566 300.891V296.431H395.41C395.097 295.06 394.534 293.759 393.748 292.593L396.031 290.31L392.875 287.141L390.543 289.533C389.388 288.782 388.103 288.255 386.753 287.978V284.559H382.282V287.847C380.918 288.112 379.616 288.631 378.444 289.377L376.16 287.093L373.003 290.262L375.215 292.474C374.399 293.655 373.819 294.982 373.506 296.383H370.469V300.843H373.398C373.658 302.308 374.207 303.706 375.012 304.956L373.003 306.965L376.16 310.121L378.133 308.16C379.386 309.01 380.796 309.6 382.282 309.894V312.656H386.753V309.87C388.226 309.563 389.621 308.961 390.854 308.101L392.875 310.121L396.031 306.965L393.939 304.884C394.724 303.659 395.256 302.289 395.505 300.855L398.566 300.891ZM384.458 303.127C383.622 303.129 382.804 302.883 382.108 302.421C381.412 301.958 380.87 301.299 380.549 300.527C380.228 299.755 380.143 298.906 380.306 298.086C380.468 297.266 380.87 296.513 381.461 295.922C382.052 295.331 382.805 294.929 383.625 294.766C384.445 294.604 385.295 294.688 386.066 295.009C386.838 295.33 387.497 295.873 387.96 296.569C388.423 297.265 388.669 298.082 388.666 298.918C388.663 300.033 388.219 301.102 387.43 301.891C386.641 302.679 385.573 303.124 384.458 303.127Z" fill="white"/>
<path d="M409.255 316.984V314.593H407.534C407.367 313.85 407.063 313.144 406.637 312.513L407.832 311.317L406.111 309.595L404.855 310.863C404.226 310.459 403.53 310.171 402.799 310.014V308.22H400.408V310.002C399.668 310.147 398.962 310.431 398.327 310.839L397.132 309.643L395.422 311.365L396.617 312.56C396.18 313.203 395.864 313.92 395.685 314.677H394.047V317.068H395.637C395.775 317.86 396.072 318.617 396.51 319.292L395.422 320.392L397.132 322.102L398.208 321.037C398.885 321.501 399.65 321.822 400.455 321.982V323.477H402.847V321.97C403.645 321.799 404.402 321.47 405.071 321.002L406.159 322.102L407.94 320.308L406.744 319.232C407.166 318.565 407.455 317.822 407.593 317.044L409.255 316.984ZM401.591 318.18C401.137 318.18 400.693 318.045 400.316 317.793C399.938 317.541 399.644 317.182 399.47 316.763C399.297 316.343 399.251 315.882 399.34 315.436C399.428 314.991 399.647 314.582 399.968 314.261C400.289 313.94 400.698 313.721 401.143 313.633C401.589 313.544 402.05 313.59 402.47 313.763C402.889 313.937 403.248 314.231 403.5 314.609C403.752 314.986 403.887 315.43 403.887 315.884C403.89 316.188 403.833 316.489 403.719 316.77C403.605 317.051 403.437 317.307 403.223 317.523C403.01 317.739 402.755 317.91 402.475 318.027C402.195 318.144 401.895 318.204 401.591 318.204V318.18Z" fill="white"/>
<path d="M348.143 153.697H306.882C304.518 153.697 302.602 155.614 302.602 157.978V199.239C302.602 201.603 304.518 203.519 306.882 203.519H348.143C350.507 203.519 352.423 201.603 352.423 199.239V157.978C352.423 155.614 350.507 153.697 348.143 153.697Z" fill="#1B2869"/>
<path d="M348.143 153.697H306.882C304.518 153.697 302.602 155.614 302.602 157.978V199.239C302.602 201.603 304.518 203.519 306.882 203.519H348.143C350.507 203.519 352.423 201.603 352.423 199.239V157.978C352.423 155.614 350.507 153.697 348.143 153.697Z" stroke="#364EC9" stroke-width="2" stroke-linecap="round" stroke-linejoin="round" stroke-dasharray="7 7"/>
<path d="M410.487 153.661H369.226C366.862 153.661 364.945 155.578 364.945 157.941V199.203C364.945 201.567 366.862 203.483 369.226 203.483H410.487C412.851 203.483 414.767 201.567 414.767 199.203V157.941C414.767 155.578 412.851 153.661 410.487 153.661Z" fill="#F46A2B"/>
<path d="M393.758 183.671C398.271 179.457 398.513 172.383 394.299 167.871C390.085 163.358 383.011 163.116 378.499 167.33C373.986 171.544 373.744 178.618 377.958 183.13C382.172 187.643 389.246 187.885 393.758 183.671Z" stroke="white" stroke-width="2.66" stroke-miterlimit="10"/>
<path d="M396.936 184.999L393.492 181.567" stroke="white" stroke-width="2.06" stroke-miterlimit="10"/>
<path d="M404.773 192.842L396.93 184.999" stroke="white" stroke-width="3.09" stroke-miterlimit="10"/>
<path d="M348.143 216.468H306.882C304.518 216.468 302.602 218.384 302.602 220.748V262.009C302.602 264.373 304.518 266.29 306.882 266.29H348.143C350.507 266.29 352.423 264.373 352.423 262.009V220.748C352.423 218.384 350.507 216.468 348.143 216.468Z" fill="#FDB32C"/>
<path d="M324.368 231.927H320.781V251.954H324.368V231.927Z" fill="white"/>
<path d="M320.789 238.838V231.664L338.915 226.714V233.888L320.789 238.838Z" fill="white"/>
<path d="M324.368 251.906C324.368 252.724 324.125 253.524 323.67 254.205C323.216 254.885 322.57 255.415 321.814 255.728C321.058 256.041 320.226 256.123 319.424 255.964C318.621 255.804 317.884 255.41 317.305 254.831C316.727 254.253 316.333 253.516 316.173 252.713C316.014 251.911 316.096 251.079 316.409 250.323C316.722 249.567 317.252 248.921 317.932 248.466C318.613 248.012 319.412 247.769 320.231 247.769C321.328 247.769 322.38 248.205 323.156 248.981C323.932 249.757 324.368 250.809 324.368 251.906Z" fill="white"/>
<path d="M338.923 230.241H335.336V250.268H338.923V230.241Z" fill="white"/>
<path d="M338.922 250.208C338.925 251.027 338.684 251.828 338.231 252.51C337.778 253.192 337.132 253.724 336.377 254.039C335.621 254.354 334.789 254.437 333.986 254.279C333.182 254.121 332.444 253.728 331.864 253.15C331.285 252.572 330.889 251.835 330.729 251.032C330.568 250.229 330.649 249.397 330.962 248.64C331.275 247.883 331.805 247.237 332.486 246.782C333.166 246.326 333.967 246.083 334.785 246.083C335.88 246.083 336.931 246.518 337.706 247.291C338.482 248.064 338.919 249.113 338.922 250.208Z" fill="white"/>
<path d="M285.792 216.468H244.53C242.166 216.468 240.25 218.384 240.25 220.748V262.009C240.25 264.373 242.166 266.29 244.53 266.29H285.792C288.156 266.29 290.072 264.373 290.072 262.009V220.748C290.072 218.384 288.156 216.468 285.792 216.468Z" fill="#1B2869"/>
<path d="M285.792 216.468H244.53C242.166 216.468 240.25 218.384 240.25 220.748V262.009C240.25 264.373 242.166 266.29 244.53 266.29H285.792C288.156 266.29 290.072 264.373 290.072 262.009V220.748C290.072 218.384 288.156 216.468 285.792 216.468Z" stroke="#364EC9" stroke-width="2" stroke-linecap="round" stroke-linejoin="round" stroke-dasharray="7 7"/>
<path d="M410.487 216.468H369.226C366.862 216.468 364.945 218.384 364.945 220.748V262.009C364.945 264.373 366.862 266.29 369.226 266.29H410.487C412.851 266.29 414.767 264.373 414.767 262.009V220.748C414.767 218.384 412.851 216.468 410.487 216.468Z" fill="#A8D0F7"/>
<path d="M389.856 255.959C397.905 255.959 404.431 249.434 404.431 241.385C404.431 233.335 397.905 226.81 389.856 226.81C381.807 226.81 375.281 233.335 375.281 241.385C375.281 249.434 381.807 255.959 389.856 255.959Z" stroke="white" stroke-width="2.2" stroke-linecap="round" stroke-linejoin="round"/>
<path d="M389.328 232.489V242.054L393.74 237.642" stroke="white" stroke-width="2.2" stroke-linecap="round" stroke-linejoin="round"/>
<path d="M145.203 443.865L145.311 455.45L150.01 462.098L159.228 461.883C159.228 461.883 159.981 455.905 161.117 446.543C155.82 445.622 150.524 444.678 145.203 443.865Z" fill="#ED8D5D"/>
<path d="M165.743 467.873C164.816 467.336 163.957 466.69 163.185 465.948C161.801 464.081 160.679 462.033 159.849 459.862C159.849 459.862 156.154 459.695 151.575 459.264C146.996 458.834 144.963 453.944 144.963 453.944C141.615 456.407 140.922 462.756 140.922 462.756L145.824 465.087L147.02 462.696L148.084 465.685L148.167 465.924L163.364 473.098C163.663 473.237 163.99 473.306 164.32 473.301L172.403 473.158H173.838C174.232 469.463 169.784 468.423 165.743 467.873Z" fill="#FDB32C"/>
<path d="M100.262 438.173C99.1622 448.42 98.4688 455.008 98.4688 455.008L111.023 467.06L116.858 440.589C111.298 439.991 105.762 439.226 100.262 438.173Z" fill="#ED8D5D"/>
<path d="M118.813 467.275C117.886 466.738 117.027 466.092 116.255 465.35C114.871 463.483 113.749 461.435 112.919 459.264C112.919 459.264 109.225 459.097 104.645 458.666C100.066 458.236 98.0334 453.346 98.0334 453.346C94.6856 455.809 93.9922 462.158 93.9922 462.158L98.8943 464.489L100.09 462.098L101.154 465.087L101.238 465.326L116.434 472.5C116.734 472.639 117.061 472.708 117.391 472.703L125.473 472.56H126.908C127.302 468.865 122.855 467.825 118.813 467.275Z" fill="#FDB32C"/>
<path d="M126.963 293.598L167.77 293.741C167.77 293.741 174.25 323.979 173.246 336.939C172.241 349.9 161.098 454.506 161.098 454.506L144.754 450.321L143.761 329.562H141.765L114.6 454.004L98.7578 447.535L110.87 338.123C111.595 331.409 113.203 324.82 115.652 318.527C118.653 310.791 123.017 300.317 126.963 293.598Z" fill="#121B46"/>
<path d="M150.161 307.192C150.161 309.368 150.161 311.532 150.161 313.708L150.042 320.213C150.043 320.298 150.018 320.382 149.97 320.452C147.949 323.548 145.869 326.597 143.789 329.634C143.734 329.715 143.661 329.78 143.576 329.826C143.49 329.872 143.395 329.896 143.298 329.897H141.648C141.493 329.897 141.344 329.836 141.234 329.726C141.124 329.616 141.062 329.467 141.062 329.311V329.252C141.433 325.438 141.804 321.623 142.258 317.833C142.712 314.043 143.167 310.229 143.741 306.439C143.633 310.265 143.394 314.091 143.143 317.905C142.892 321.719 142.581 325.545 142.246 329.359L141.648 328.714H143.298L142.808 328.977C144.912 325.94 147.017 322.915 149.181 319.926L149.097 320.177L149.563 313.684C149.755 311.52 149.922 309.356 150.161 307.192Z" fill="white"/>
<path d="M129.352 305.996C129.299 307.856 128.985 309.7 128.42 311.472C127.879 313.288 127.034 314.998 125.921 316.53C124.787 318.126 123.181 319.326 121.329 319.961C119.487 320.494 117.517 320.367 115.758 319.603C117.526 319.896 119.34 319.718 121.019 319.089C122.6 318.364 123.961 317.234 124.964 315.813C126.008 314.371 126.875 312.81 127.547 311.162C128.245 309.475 128.847 307.751 129.352 305.996Z" fill="white"/>
<path d="M164.521 306.295C164.521 307.957 164.641 309.583 164.784 311.198C164.925 312.791 165.213 314.368 165.645 315.908C166.032 317.409 166.775 318.795 167.809 319.95C168.943 321.071 170.413 321.789 171.994 321.994C171.151 322.089 170.298 322.04 169.471 321.851C168.63 321.618 167.848 321.211 167.176 320.655C165.864 319.493 164.932 317.964 164.497 316.267C164.039 314.638 163.825 312.949 163.864 311.257C163.87 309.582 164.091 307.914 164.521 306.295Z" fill="white"/>
<path d="M118.331 319.902C117.386 325.162 116.418 330.411 115.557 335.696C114.696 340.981 113.812 346.229 113.273 351.514L109.328 383.342L105.095 415.146L102.883 431.023L100.492 446.901L102.25 430.952L104.246 415.062L108.204 383.222L112.425 351.418C113.74 340.753 115.988 330.328 118.331 319.902Z" fill="white"/>
<path d="M147.48 324.529C147.743 334.955 147.862 345.381 147.97 355.806L148.149 387.072L148.054 418.35L147.898 434.013L147.623 449.651L147.288 434.013L147.109 418.374L146.93 387.096L147.037 355.83C147.145 345.381 147.288 334.955 147.48 324.529Z" fill="white"/>
<path d="M214.238 205.719L208.128 203.531L206.586 205.922C203.489 210.705 196.016 221.992 187.814 234.247L187.001 234.498L183.594 235.55C183.737 237.164 183.821 238.814 183.845 240.488C183.845 242.64 183.845 244.816 183.845 246.992C184.307 249.16 184.761 251.324 185.208 253.484C188.556 252.552 192.107 251.476 195.801 250.232C197.294 249.735 198.564 248.727 199.388 247.387C201.672 243.262 203.86 238.91 205.832 234.378C206.789 232.186 207.694 229.954 208.547 227.683C211.234 220.626 213.162 213.304 214.298 205.839L214.238 205.719Z" fill="#ED8D5D"/>
<path d="M211.596 207.704C211.596 207.704 219.607 200.733 221.054 197.075C221.08 197.025 221.09 196.968 221.083 196.912C221.076 196.856 221.052 196.804 221.014 196.762C220.976 196.721 220.926 196.691 220.872 196.679C220.817 196.666 220.759 196.671 220.707 196.692C220.193 196.824 219.189 197.374 217.431 199.358C217.431 199.358 220.014 194.349 219.703 193.38C219.392 192.412 215.207 198.282 215.207 198.282C215.207 198.282 217.503 192.304 216.893 191.623C216.283 190.941 212.852 197.206 212.852 197.206C212.852 197.206 214.86 190.953 214.334 190.857C213.007 190.63 209.934 199.346 209.062 198.904C208.189 198.462 208.141 196.238 208.272 195.066C208.283 195.009 208.281 194.95 208.266 194.894C208.251 194.839 208.224 194.787 208.186 194.743C208.148 194.699 208.1 194.665 208.047 194.642C207.994 194.619 207.936 194.609 207.878 194.612C207.376 194.612 206.682 194.851 206.419 196.07C205.68 199.648 205.886 203.357 207.017 206.831L211.596 207.704Z" fill="#ED8D5D"/>
<path d="M155.649 242.186L185.097 233.96L188.529 252.791C188.529 252.791 167.008 259.522 158.937 258.626C150.867 257.729 155.649 242.186 155.649 242.186Z" fill="#FDB32C"/>
<path d="M183.742 235.108C185.624 240.677 186.73 246.478 187.03 252.349C185.167 246.775 184.061 240.976 183.742 235.108Z" fill="#121B46"/>
<path d="M246.542 155.658H205.28C202.916 155.658 201 157.574 201 159.938V201.2C201 203.563 202.916 205.48 205.28 205.48H246.542C248.906 205.48 250.822 203.563 250.822 201.2V159.938C250.822 157.574 248.906 155.658 246.542 155.658Z" fill="#A8D0F7"/>
<path d="M216.797 179.343L234.301 170.364V172.971L219.427 180.372V180.443L234.301 187.844V190.439L216.797 181.46V179.343Z" fill="white"/>
<path d="M234.311 175.565C236.127 175.565 237.599 174.093 237.599 172.277C237.599 170.461 236.127 168.989 234.311 168.989C232.496 168.989 231.023 170.461 231.023 172.277C231.023 174.093 232.496 175.565 234.311 175.565Z" fill="white"/>
<path d="M234.311 192.149C236.127 192.149 237.599 190.677 237.599 188.861C237.599 187.045 236.127 185.573 234.311 185.573C232.496 185.573 231.023 187.045 231.023 188.861C231.023 190.677 232.496 192.149 234.311 192.149Z" fill="white"/>
<path d="M217.522 183.289C219.338 183.289 220.81 181.817 220.81 180.001C220.81 178.185 219.338 176.713 217.522 176.713C215.706 176.713 214.234 178.185 214.234 180.001C214.234 181.817 215.706 183.289 217.522 183.289Z" fill="white"/>
<path d="M135.975 244.302C137.505 237.272 132.962 223.857 132.388 222.207L132.328 222.039L151.626 229.094C151.41 229.748 151.337 230.441 151.41 231.126C151.613 232.953 152.039 234.748 152.678 236.471C153.25 238.097 153.905 239.693 154.639 241.253L135.975 244.302Z" fill="#ED8D5D"/>
<path d="M152.685 236.483C143.276 239.268 136.532 228.579 136.281 228.185C138.255 230.387 140.998 231.747 143.945 231.987C146.451 232.201 148.975 231.916 151.37 231.15C151.589 232.975 152.031 234.765 152.685 236.483Z" fill="#E6794E"/>
<path d="M135.434 241.086C135.434 241.086 128.559 242.485 125.366 252.241C122.174 261.997 125.067 279.549 123.872 282.73C122.676 285.91 119.484 301.465 122.282 302.864C125.079 304.263 167.907 308.639 170.705 302.864C173.502 297.089 167.907 289.306 167.907 281.94C167.907 274.575 169.509 255.039 169.103 250.651C168.696 246.263 154.659 241.253 154.659 241.253C154.659 241.253 143.803 252.648 135.434 241.086Z" fill="#FDB32C"/>
<path d="M143.945 282.909C146.337 281.008 148.728 279.238 151.119 277.349C153.51 275.46 155.734 273.535 158.125 271.622C154.595 276.672 149.679 280.592 143.969 282.909H143.945Z" fill="#121B46"/>
<path d="M151.727 283.853C152.922 282.574 154.225 281.462 155.469 280.386C156.712 279.31 157.956 278.174 159.391 277.122C158.647 278.712 157.583 280.132 156.263 281.29C154.944 282.449 153.4 283.322 151.727 283.853Z" fill="#121B46"/>
<path d="M175.236 227.814C176.432 229.859 177.627 231.939 178.703 234.032C190.54 224.383 202.616 212.056 210.758 197.194L205.713 192.962C205.713 192.962 187.886 206.114 169.844 219.098C171.697 221.98 173.502 224.873 175.236 227.814Z" fill="#ED8D5D"/>
<path d="M209.458 197.613C209.458 197.613 219.382 193.847 222.025 190.917C222.06 190.877 222.085 190.828 222.094 190.775C222.103 190.723 222.098 190.668 222.078 190.619C222.058 190.569 222.024 190.526 221.981 190.494C221.938 190.462 221.887 190.443 221.833 190.439C221.295 190.379 220.171 190.559 217.828 191.802C217.828 191.802 221.989 188.012 222.037 187.019C222.084 186.027 216.118 190.056 216.118 190.056C216.118 190.056 220.327 185.274 220.004 184.401C219.681 183.528 214.277 188.239 214.277 188.239C214.277 188.239 218.342 183.062 217.864 182.799C216.668 182.117 210.798 189.231 210.116 188.514C209.435 187.797 210.188 185.692 210.726 184.64C210.753 184.589 210.769 184.533 210.772 184.475C210.775 184.417 210.766 184.36 210.744 184.306C210.722 184.252 210.689 184.204 210.647 184.165C210.604 184.125 210.554 184.096 210.499 184.078C210.032 183.911 209.303 183.863 208.634 184.939C206.691 188.038 205.594 191.591 205.453 195.245L209.458 197.613Z" fill="#ED8D5D"/>
<path d="M171.101 217.771L180.666 232.92C180.666 232.92 167.717 245.474 156.753 251.452C145.789 257.43 135.232 261.208 130.449 255.039C125.667 248.869 138.017 238.898 142.609 236.698C147.2 234.498 171.101 217.771 171.101 217.771Z" fill="#FDB32C"/>
<path d="M132.836 258.124C132.836 258.124 140.703 262.906 150.268 256.533C150.268 256.533 139.615 270.678 132.836 258.124Z" fill="#121B46"/>
<path d="M153.461 253.138C155.541 251.823 157.574 250.459 159.606 249.096C161.639 247.733 163.648 246.358 165.585 244.924C169.578 242.09 173.416 239.089 177.338 236.1C175.696 237.943 173.939 239.68 172.077 241.301C170.236 242.939 168.275 244.445 166.29 245.892C164.283 247.329 162.204 248.661 160.061 249.886C157.949 251.139 155.742 252.227 153.461 253.138Z" fill="#121B46"/>
<path d="M169.398 219.469C171.258 221.578 172.945 223.833 174.444 226.212C175.985 228.566 177.333 231.041 178.473 233.613C176.611 231.502 174.924 229.242 173.428 226.858C171.889 224.507 170.542 222.036 169.398 219.469Z" fill="#121B46"/>
<path d="M159.56 223.498C158.914 227.085 154.395 230.002 151.19 231.222C149.198 231.99 147.057 232.295 144.929 232.113C142.802 231.93 140.744 231.266 138.911 230.17C135.842 228.299 133.511 225.428 132.311 222.039C130.291 216.563 127.361 206.09 132.036 200.458C138.541 192.627 149.803 193.153 153.079 198.713C153.958 200.217 154.717 201.788 155.351 203.411C155.542 203.914 155.734 204.428 155.913 204.942C157.566 210.059 158.742 215.318 159.428 220.652C159.627 221.587 159.672 222.549 159.56 223.498Z" fill="#ED8D5D"/>
<path d="M154.835 211.088C155.014 212.188 155.6 213.013 156.138 212.929C156.676 212.845 156.963 211.877 156.783 210.765C156.604 209.653 156.018 208.852 155.48 208.935C154.942 209.019 154.655 209.988 154.835 211.088Z" fill="#121B46"/>
<path d="M148.354 212.151C148.533 213.251 148.246 214.22 147.708 214.304C147.17 214.387 146.584 213.574 146.405 212.462C146.226 211.35 146.513 210.406 147.051 210.31C147.589 210.215 148.174 211.051 148.354 212.151Z" fill="#121B46"/>
<path d="M156.239 217.054C155.996 217.776 155.586 218.431 155.044 218.967C154.497 219.548 153.773 219.931 152.984 220.054C152.196 220.178 151.389 220.035 150.691 219.648C150.352 219.473 150.028 219.269 149.723 219.038C149.448 218.787 149.173 218.524 148.922 218.249C149.257 218.417 149.568 218.608 149.89 218.787C150.213 218.967 150.536 219.11 150.871 219.218C151.509 219.467 152.2 219.549 152.879 219.457C153.56 219.339 154.199 219.047 154.733 218.608C155.299 218.156 155.806 217.634 156.239 217.054Z" fill="#121B46"/>
<path d="M154.181 221.023C153.927 221.301 153.585 221.482 153.213 221.537C152.84 221.599 152.458 221.536 152.125 221.358C152.475 221.395 152.827 221.395 153.177 221.358C153.524 221.285 153.86 221.172 154.181 221.023Z" fill="#121B46"/>
<path d="M148.034 205.097C147.553 204.809 146.986 204.699 146.432 204.786C145.885 204.855 145.355 205.021 144.866 205.277C144.372 205.531 143.937 205.885 143.587 206.317C143.243 206.729 142.983 207.204 142.822 207.716C142.769 207.823 142.759 207.946 142.794 208.061C142.83 208.175 142.908 208.271 143.012 208.329C143.117 208.387 143.239 208.403 143.355 208.374C143.471 208.344 143.571 208.271 143.635 208.17C143.882 207.836 144.162 207.527 144.472 207.249C144.763 206.988 145.099 206.782 145.464 206.64C145.827 206.49 146.209 206.389 146.6 206.341C147.01 206.309 147.413 206.216 147.795 206.066H147.915C147.975 206.041 148.029 206.005 148.075 205.959C148.121 205.913 148.157 205.858 148.181 205.798C148.206 205.738 148.218 205.674 148.217 205.609C148.217 205.544 148.203 205.48 148.178 205.42C148.171 205.299 148.12 205.184 148.034 205.097Z" fill="#121B46"/>
<path d="M155.946 204.942H155.791C155.391 204.91 154.989 204.934 154.595 205.014C154.205 205.115 153.803 205.159 153.4 205.145H153.268C153.204 205.141 153.141 205.123 153.083 205.094C153.025 205.065 152.974 205.025 152.932 204.977C152.889 204.928 152.857 204.871 152.837 204.81C152.817 204.748 152.809 204.683 152.814 204.619C152.821 204.516 152.863 204.419 152.933 204.344C153.289 203.912 153.791 203.627 154.344 203.543C154.694 203.469 155.051 203.437 155.408 203.447C155.576 203.914 155.767 204.452 155.946 204.942Z" fill="#121B46"/>
<path d="M153.044 208.038C153.331 208.768 153.582 209.485 153.845 210.203C154.087 210.916 154.37 211.615 154.694 212.295C154.766 212.462 154.849 212.63 154.933 212.785C155.064 212.968 155.158 213.175 155.208 213.395C155.255 213.637 155.233 213.888 155.144 214.119C155.056 214.349 154.904 214.55 154.706 214.698C154.535 214.822 154.342 214.91 154.136 214.958C153.931 215.005 153.718 215.01 153.51 214.973C153.114 214.901 152.736 214.751 152.398 214.531C153.14 214.686 153.989 214.758 154.419 214.304C154.525 214.21 154.603 214.089 154.645 213.954C154.687 213.819 154.692 213.676 154.658 213.538C154.611 213.385 154.534 213.243 154.431 213.12C154.335 212.941 154.228 212.761 154.144 212.582C153.815 211.866 153.567 211.116 153.403 210.346C153.211 209.59 153.091 208.817 153.044 208.038Z" fill="#121B46"/>
<path d="M136.283 218.225C136.229 217.982 136.229 217.729 136.282 217.485C136.336 217.242 136.442 217.013 136.594 216.814C136.786 216.627 137.024 216.493 137.284 216.426C137.544 216.359 137.818 216.361 138.077 216.432C138.581 216.531 139.048 216.766 139.428 217.113C139.814 217.456 140.141 217.86 140.396 218.309C140.442 218.386 140.456 218.477 140.436 218.564C140.416 218.65 140.363 218.726 140.288 218.775C140.231 218.81 140.165 218.828 140.097 218.828C140.03 218.828 139.964 218.81 139.906 218.775C139.558 218.485 139.15 218.276 138.71 218.165C138.628 218.15 138.543 218.154 138.462 218.177C138.381 218.2 138.307 218.241 138.244 218.297C138.116 218.466 138.03 218.662 137.993 218.871C137.897 219.337 137.885 219.863 138.292 220.007C138.789 220.111 139.306 220.061 139.774 219.863C139.323 220.209 138.764 220.383 138.196 220.353C138.027 220.315 137.872 220.232 137.748 220.111C137.624 219.991 137.535 219.839 137.491 219.672C137.437 219.375 137.437 219.072 137.491 218.775C137.516 218.452 137.636 218.144 137.837 217.89C137.956 217.75 138.108 217.641 138.279 217.574C138.45 217.507 138.636 217.485 138.818 217.508C139.414 217.6 139.973 217.857 140.432 218.249L139.918 218.68C139.521 217.924 138.868 217.335 138.077 217.018C137.884 216.936 137.674 216.904 137.465 216.922C137.257 216.941 137.056 217.011 136.881 217.125C136.556 217.408 136.344 217.799 136.283 218.225Z" fill="#121B46"/>
<path d="M158.755 213.216C158.362 209.409 157.138 205.736 155.168 202.455C155.809 201.727 156.172 200.796 156.192 199.826C156.212 198.857 155.887 197.911 155.276 197.158C152.621 193.894 147.899 192.065 143.642 191.85C140.879 191.734 138.143 192.44 135.781 193.879C133.419 195.317 131.536 197.424 130.371 199.932C129.869 199.382 129.366 198.844 128.876 198.294C128.222 199.331 127.92 200.551 128.015 201.773C126.82 202.048 126.09 203.758 126.198 205.026C126.82 204.894 127.202 204.332 127.824 204.213C126.937 207.005 126.622 209.948 126.897 212.865C127.172 215.782 128.032 218.613 129.426 221.191C131.16 224.204 133.36 225.853 133.216 229.333C133.415 229.36 133.617 229.344 133.809 229.286C134.001 229.228 134.178 229.13 134.328 228.998C135.753 228.477 137.02 227.597 138.004 226.443C138.989 225.289 139.658 223.899 139.948 222.41C139.012 222.485 138.074 222.286 137.248 221.838C136.423 221.39 135.745 220.713 135.297 219.887C134.917 219.205 134.766 218.419 134.865 217.645C134.964 216.87 135.308 216.148 135.847 215.583C136.684 214.758 138.011 214.304 139.948 215.738C142.399 217.556 142.614 209.987 141.143 207.369C144.119 207.203 146.988 206.209 149.429 204.5C148.771 204.129 148.03 203.746 147.385 203.376C149.885 203.735 152.435 203.318 154.69 202.18C154.893 202.646 155.108 203.101 155.3 203.579C155.491 204.057 155.682 204.595 155.862 205.109C157.097 208.773 158.028 212.532 158.647 216.348C158.77 215.309 158.806 214.261 158.755 213.216Z" fill="#121B46"/>
<path d="M149.679 202.431C149.679 202.431 137.579 209.748 136.384 222.302C136.384 222.302 134.734 226.045 132.498 226.786C129.651 223.911 127.498 220.424 126.203 216.591C124.908 212.758 124.505 208.679 125.025 204.667C126.819 190.917 139.672 191.371 139.672 191.371C139.672 191.371 147.443 185.836 153.864 192.711C158.491 197.648 158.646 216.181 158.646 216.181L155.861 204.942C155.861 204.942 152.262 202.132 149.679 202.431Z" fill="#F46A2B"/>
<path d="M140.305 191.862C141.458 192.201 142.561 192.695 143.581 193.332C144.606 193.961 145.564 194.694 146.438 195.52C147.304 196.377 148.056 197.341 148.674 198.39C149.273 199.45 149.647 200.622 149.774 201.833C149.223 200.811 148.595 199.832 147.897 198.904C147.186 198.015 146.419 197.173 145.601 196.381C143.963 194.791 142.158 193.368 140.305 191.862Z" fill="#121B46"/>
<path d="M137.023 193.392C137.532 193.101 138.093 192.911 138.673 192.83C139.246 192.723 139.834 192.723 140.407 192.83C139.902 193.123 139.346 193.318 138.769 193.404C138.192 193.514 137.599 193.51 137.023 193.392Z" fill="#121B46"/>
<path d="M138.844 196.632C139.285 196.213 139.775 195.848 140.302 195.544C140.827 195.237 141.39 195 141.976 194.839C141.61 195.333 141.141 195.741 140.601 196.034C140.068 196.363 139.467 196.568 138.844 196.632Z" fill="#121B46"/>
<path d="M142.023 199.358C142.255 198.916 142.554 198.513 142.908 198.162C143.256 197.804 143.66 197.505 144.104 197.278C143.966 197.774 143.698 198.224 143.327 198.581C142.968 198.95 142.518 199.218 142.023 199.358Z" fill="#121B46"/>
<path d="M145.312 202.132C145.317 201.741 145.433 201.36 145.647 201.032C145.854 200.697 146.147 200.425 146.496 200.243C146.484 200.633 146.368 201.012 146.161 201.343C145.955 201.678 145.662 201.951 145.312 202.132Z" fill="#121B46"/>
<path d="M143.414 192.005C143.702 191.613 144.073 191.29 144.502 191.061C144.923 190.819 145.393 190.676 145.877 190.642C145.585 191.029 145.215 191.351 144.791 191.586C144.366 191.821 143.897 191.963 143.414 192.005Z" fill="#121B46"/>
<path d="M145.82 193.5C145.959 193.126 146.199 192.799 146.514 192.555C146.819 192.301 147.186 192.132 147.578 192.065C147.427 192.431 147.187 192.754 146.88 193.004C146.573 193.255 146.209 193.425 145.82 193.5Z" fill="#121B46"/>
<path d="M147.789 196.082C148.114 195.668 148.521 195.326 148.985 195.078C149.426 194.812 149.92 194.645 150.431 194.588C150.114 195.008 149.705 195.351 149.236 195.592C148.794 195.857 148.301 196.025 147.789 196.082Z" fill="#121B46"/>
<path d="M149.977 199.047C150.263 198.685 150.656 198.422 151.1 198.294C151.539 198.151 152.013 198.151 152.452 198.294C152.09 198.55 151.685 198.736 151.256 198.844C150.843 198.981 150.411 199.049 149.977 199.047Z" fill="#121B46"/>
<path d="M331.071 72.3943C331.071 72.3943 335.244 71.4258 335.411 70.828C335.579 70.2302 330.76 70.6965 330.76 70.6965C330.76 70.6965 335.005 69.5008 334.849 69.1302C334.467 68.3172 328.465 69.8954 328.357 69.2497C328.249 68.6041 329.493 67.7433 330.198 67.3726C330.232 67.3559 330.261 67.3318 330.284 67.3022C330.308 67.2726 330.324 67.2381 330.332 67.2014C330.34 67.1647 330.34 67.1266 330.331 67.09C330.322 67.0534 330.305 67.0193 330.282 66.99C330.132 66.7786 329.906 66.634 329.651 66.5871C329.397 66.5402 329.134 66.5947 328.919 66.7389C327.97 67.1395 327.064 67.6363 326.217 68.2215L321.53 68.5682C321.53 69.991 321.458 71.4138 321.47 72.8486C321.482 74.2834 321.566 75.5866 321.685 76.9496C323.403 76.2214 325.076 75.3909 326.695 74.4627C328.955 74.9409 332.35 75.5268 333.988 75.1681C334.024 75.1609 334.056 75.1438 334.082 75.1189C334.108 75.0939 334.127 75.0621 334.136 75.0271C334.144 74.9921 334.143 74.9553 334.132 74.921C334.121 74.8868 334.1 74.8564 334.072 74.8333C333.248 74.3248 332.302 74.0481 331.334 74.0323C331.334 74.0323 335.1 73.566 335.519 73.0279C335.937 72.4899 331.071 72.3943 331.071 72.3943Z" fill="#F7BB8B"/>
<path d="M289.729 42.5992C291.313 42.3738 292.926 42.7079 294.29 43.5437C295.654 44.3796 296.684 45.665 297.202 47.1785C299.199 52.6664 305.38 69.4052 305.38 69.4052L323.709 68.0064C323.709 68.0064 325.503 75.0845 325.598 76.1725C325.694 77.2605 302.188 84.8887 297.106 83.5495C292.025 82.2104 284.947 54.6512 284.947 54.6512C284.947 54.6512 283.859 44.3927 289.729 42.5992Z" fill="#35C4A6"/>
<path d="M340.121 94.8125C340.275 94.9847 340.439 95.1484 340.611 95.3027C342.369 92.3615 344.198 89.468 346.075 86.5866C346.314 86.2279 346.553 85.8333 346.793 85.3909L346.362 85.6061L339.906 81.3019C338.196 83.6931 336.403 86.0007 334.812 88.3083C334.131 89.3126 333.497 90.3169 332.852 91.3332L340.121 94.9201V94.8125Z" fill="#E68B6E"/>
<path d="M339.516 95.0277C339.516 95.0277 342.816 98.3993 344.956 98.6145C347.096 98.8298 354.987 83.9442 355.011 81.7681C355.035 79.5921 345.757 84.7213 345.757 84.7213L339.516 95.0277Z" fill="#35C4A6"/>
<path d="M288.832 69.5966C288.832 69.5966 307.472 63.0206 310.856 63.0206C314.229 63.302 317.399 64.7476 319.823 67.1097C321.222 68.6999 345.756 84.8887 345.756 84.8887L338.774 94.5613L312.075 81.4094C312.075 81.4094 294.344 91.4168 285.975 90.5201C277.605 89.6234 284.875 70.9955 285.173 70.9955C285.472 70.9955 288.832 69.5966 288.832 69.5966Z" fill="#121B46"/>
<path d="M349.109 85.7136C348.714 86.3234 348.379 86.8016 348.176 87.0766L338.348 86.1799C338.181 90.3048 338.193 94.4656 338.42 98.5786C343.728 98.3156 347.124 98.1243 347.124 98.1243C347.699 98.3075 348.286 98.4474 348.882 98.5427C349.109 94.2624 349.216 89.9462 349.109 85.7136Z" fill="#F7BB8B"/>
<path d="M347.125 98.6742C347.125 98.6742 351.621 100.169 353.653 99.4155C355.686 98.6622 355.901 81.7321 354.92 79.7832C353.94 77.8344 348.034 86.5983 348.034 86.5983L347.125 98.6742Z" fill="#35C4A6"/>
<path d="M259.793 78.0139C259.793 78.0139 252.499 92.8158 257.282 99.3917C262.064 105.968 345.902 99.6906 345.902 99.6906L346.356 86.6822L289.408 80.5606L287.448 77.715L259.793 78.0139Z" fill="#121B46"/>
<path d="M275.035 40.9851C276.094 42.0937 277.362 42.9815 278.765 43.5972C280.169 44.2129 281.681 44.5442 283.214 44.5719C286.059 44.6796 289.084 43.5437 291.691 42.5155L292.013 42.3839C291.145 41.7227 290.4 40.9131 289.813 39.9927C289.813 39.4825 289.813 38.9326 289.813 38.3427C289.808 36.831 289.993 35.3247 290.363 33.8591C290.496 33.3058 290.753 32.7903 291.117 32.3526L278.24 21.4006V21.5202C278.24 22.7158 277.953 31.5276 275.848 37.1232C274.858 37.2771 273.85 37.2771 272.859 37.1232C273.489 38.462 274.217 39.7528 275.035 40.9851Z" fill="#F7BB8B"/>
<path d="M289.814 38.2592C281.755 37.7211 279.615 27.5583 279.531 27.1757C280.413 29.43 282.124 31.2611 284.314 32.293C286.188 33.1789 288.221 33.6828 290.292 33.7755C289.946 35.2442 289.785 36.7505 289.814 38.2592Z" fill="#EBA771"/>
<path d="M297.496 48.3742C296.503 43.7949 290.023 40.0048 290.023 40.0048C289.56 40.7273 288.946 41.3416 288.224 41.8058C287.502 42.27 286.688 42.5733 285.838 42.6949C282.957 43.3286 277.23 37.3744 276.166 36.2266C276.801 34.9288 277.152 33.5101 277.194 32.0658C277.194 32.0658 264.723 30.5473 260.24 34.732C255.756 38.9167 254.262 49.7731 257.741 51.9611C259.271 52.853 261.062 53.1868 262.81 52.9056C262.619 59.6609 262.464 67.2532 261.615 68.6999C260.12 71.39 255.637 79.5682 258.136 80.4649C260.634 81.3616 291.709 81.9594 291.207 80.2616C290.705 78.5638 293.897 68.9031 293.897 68.9031C293.897 68.9031 298.5 52.9654 297.496 48.3742Z" fill="#35C4A6"/>
<path d="M262.938 52.6664C262.977 50.5865 263.137 48.5106 263.416 46.4491C263.647 44.3598 264.079 42.2977 264.707 40.2916C264.884 39.7643 265.112 39.2557 265.389 38.7732C265.557 38.5024 265.757 38.2534 265.986 38.0319C266.209 37.831 266.458 37.662 266.728 37.5297C267.703 37.0414 268.741 36.6913 269.812 36.4895C271.871 36.0731 273.965 35.8569 276.066 35.8439L275.982 36.5971C274.117 36.0232 272.251 35.4015 270.41 34.7319C272.347 35.0548 274.272 35.4254 276.185 35.8558C276.283 35.8558 276.378 35.8949 276.447 35.9644C276.517 36.0339 276.556 36.1282 276.556 36.2265C276.556 36.3248 276.517 36.419 276.447 36.4886C276.378 36.5581 276.283 36.5971 276.185 36.5971C274.154 36.8064 272.138 37.1378 270.147 37.5895C269.19 37.7962 268.262 38.1215 267.385 38.558C267.194 38.6579 267.013 38.7781 266.847 38.9166C266.705 39.0523 266.581 39.2049 266.477 39.371C266.235 39.7866 266.031 40.2227 265.867 40.6742C265.191 42.624 264.632 44.6123 264.193 46.6285L262.938 52.6664Z" fill="#121B46"/>
<path d="M318.67 31.5904L316.625 30.4701L310.116 42.3501L312.16 43.4704L318.67 31.5904Z" fill="#121B46"/>
<path d="M316.216 38.6416C316.309 38.3102 316.323 37.9619 316.259 37.6238C316.195 37.2858 316.053 36.9672 315.846 36.6927L315.296 37.6134C315.296 37.6134 312.904 40.8296 312.295 40.0883C311.685 39.347 312.904 37.3384 312.904 37.3384C312.904 37.3384 312.833 36.9677 311.876 37.171C310.92 37.3743 309.82 40.3036 309.389 41.3438L305.922 44.0459C307.763 45.935 309.592 47.8599 311.505 49.7371C313.06 47.286 313.897 45.6839 314.124 45.2415C314.826 44.829 315.493 44.3612 316.121 43.8426C316.346 43.441 316.504 43.0046 316.587 42.5513C316.86 42.02 316.924 41.4058 316.766 40.8296C316.87 40.4483 316.873 40.0469 316.777 39.6638C316.681 39.2807 316.488 38.9288 316.216 38.6416Z" fill="#F7BB8B"/>
<path d="M276.182 37.0636C276.182 37.0636 266.916 38.5581 267.418 46.6286C267.92 54.6991 285.054 71.0434 289.932 70.8401C294.81 70.6369 312.948 54.0057 313.844 49.821C314.741 45.6363 307.472 41.4516 307.472 41.4516L292.718 53.3122L276.182 37.0636Z" fill="#35C4A6"/>
<path d="M294.028 69.1064C294.028 69.1064 287.452 70.5412 284.618 68.8195C275.221 63.0804 268.047 49.7731 268.047 49.7731C268.047 49.7731 273.726 67.8032 283.184 70.6009C292.641 73.3987 294.028 69.1064 294.028 69.1064Z" fill="#121B46"/>
<path d="M282.391 43.1971C284.355 44.6002 286.214 46.1468 287.95 47.8242C289.709 49.4495 291.377 51.1698 292.948 52.9774C293.003 53.0333 293.033 53.1084 293.033 53.1866C293.033 53.2649 293.003 53.34 292.948 53.3959C292.29 53.898 291.633 54.4002 290.927 54.8545C291.43 54.173 291.956 53.5393 292.494 52.9176V53.3959C290.62 51.9035 288.832 50.3068 287.137 48.6133C285.427 46.9239 283.841 45.1138 282.391 43.1971Z" fill="#121B46"/>
<path d="M293.317 54.7588C293.133 54.7442 292.957 54.6812 292.805 54.5762C292.654 54.4712 292.533 54.3279 292.456 54.1609C292.392 54.0829 292.348 53.9908 292.327 53.8922C292.305 53.7936 292.308 53.6914 292.335 53.5941C292.361 53.4968 292.41 53.4072 292.478 53.3327C292.546 53.2582 292.631 53.201 292.725 53.1658C292.82 53.1306 292.921 53.1185 293.021 53.1304C293.121 53.1424 293.217 53.178 293.301 53.2344C293.384 53.2908 293.453 53.3663 293.502 53.4547C293.55 53.543 293.577 53.6417 293.58 53.7425C293.632 53.9198 293.636 54.1081 293.59 54.2872C293.543 54.4663 293.449 54.6293 293.317 54.7588Z" fill="#121B46"/>
<path d="M306.68 43.0416C308.177 43.7012 309.536 44.6383 310.685 45.8035C311.285 46.3698 311.822 46.9991 312.287 47.6807C312.793 48.3728 313.05 49.2154 313.017 50.0719C312.621 49.3986 312.13 48.7864 311.558 48.2546L309.896 46.6285C308.723 45.5275 307.647 44.3275 306.68 43.0416Z" fill="#121B46"/>
<path d="M301.323 14.2508V14.6095C301.285 16.8712 301.097 19.1279 300.761 21.3648C300.426 23.6604 299.996 25.9082 299.565 28.0364C299.565 28.1201 299.565 28.2277 299.494 28.3234C299.379 28.9979 299.153 29.6485 298.824 30.2484C297.294 32.8548 292.977 33.8353 290.192 33.8353C288.437 33.8622 286.699 33.4872 285.112 32.7391C283.524 31.9909 282.129 30.8895 281.033 29.519C279.195 27.2074 278.214 24.33 278.259 21.3768C278.259 16.5943 279.001 7.66291 284.237 4.63797C291.495 0.453261 300.02 4.07602 300.976 9.30092C301.19 10.506 301.317 11.7245 301.359 12.9476V13.2585C301.311 13.5932 301.323 13.928 301.323 14.2508Z" fill="#F7BB8B"/>
<path d="M293.757 18.9975C293.624 18.8061 293.453 18.6434 293.255 18.5192C293.041 18.4019 292.811 18.3134 292.574 18.2562C292.08 18.1672 291.573 18.1917 291.091 18.3279C290.963 18.3607 290.826 18.3414 290.712 18.2742C290.598 18.207 290.515 18.0974 290.481 17.9692C290.452 17.8394 290.474 17.7033 290.544 17.5896C290.613 17.4758 290.723 17.3934 290.852 17.3594H290.924C291.55 17.2781 292.187 17.3352 292.789 17.5268C293.099 17.6343 293.39 17.7918 293.65 17.9931C293.908 18.2022 294.12 18.4628 294.271 18.7583C294.304 18.8265 294.309 18.9051 294.285 18.9768C294.26 19.0484 294.208 19.1075 294.14 19.1409C294.078 19.1678 294.009 19.1729 293.944 19.1555C293.879 19.1382 293.821 19.0993 293.781 19.0453L293.757 18.9975Z" fill="#121B46"/>
<path d="M297.332 19.1289C297.607 18.9728 297.913 18.8789 298.228 18.8539C298.529 18.8005 298.836 18.8005 299.137 18.8539C299.715 19.0033 300.253 19.2766 300.715 19.655C300.767 19.6946 300.81 19.7444 300.842 19.8014C300.874 19.8583 300.894 19.9212 300.901 19.9862C300.908 20.0512 300.901 20.1169 300.882 20.1792C300.862 20.2415 300.83 20.2991 300.787 20.3485C300.747 20.3999 300.698 20.4429 300.641 20.475C300.585 20.5071 300.522 20.5277 300.458 20.5355C300.393 20.5433 300.328 20.5381 300.265 20.5204C300.203 20.5027 300.144 20.4727 300.093 20.4322C299.775 20.0883 299.388 19.8154 298.958 19.6311C298.743 19.5519 298.517 19.5075 298.288 19.4996C298.072 19.4867 297.857 19.5193 297.654 19.5952C297.621 19.6105 297.584 19.6187 297.548 19.619C297.511 19.6194 297.474 19.612 297.44 19.5973C297.407 19.5827 297.376 19.5611 297.351 19.534C297.326 19.5068 297.307 19.4747 297.296 19.4398C297.271 19.3901 297.261 19.3342 297.268 19.279C297.274 19.2239 297.296 19.1717 297.332 19.1289Z" fill="#121B46"/>
<path d="M297.939 23.9115C297.561 24.4262 297.059 24.8374 296.48 25.1071C295.887 25.3834 295.222 25.4671 294.579 25.3463C293.942 25.2097 293.365 24.8749 292.929 24.3898C292.718 24.1591 292.526 23.9112 292.355 23.6485C292.212 23.3615 292.081 23.0865 291.961 22.8115C292.169 23.0312 292.365 23.2627 292.547 23.505C292.774 23.6963 292.953 23.9354 293.192 24.1148C293.617 24.4836 294.127 24.7423 294.675 24.868C295.23 24.971 295.802 24.9298 296.337 24.7484C296.906 24.5417 297.444 24.2603 297.939 23.9115Z" fill="#121B46"/>
<path d="M295.182 26.3745C294.909 26.5153 294.597 26.5575 294.297 26.494C293.994 26.4324 293.718 26.2777 293.508 26.0516C293.778 26.1633 294.058 26.2474 294.345 26.3027C294.62 26.3622 294.901 26.3863 295.182 26.3745Z" fill="#121B46"/>
<path d="M294.998 12.3378C294.696 11.97 294.271 11.7237 293.802 11.6443C293.359 11.5428 292.902 11.5185 292.451 11.5726C291.994 11.6291 291.555 11.7798 291.16 12.015C290.781 12.2316 290.448 12.5199 290.179 12.8639C290.142 12.8995 290.113 12.9423 290.093 12.9895C290.073 13.0368 290.063 13.0875 290.062 13.1389C290.063 13.1902 290.073 13.241 290.093 13.2882C290.113 13.3354 290.142 13.3782 290.179 13.4139C290.245 13.4624 290.325 13.4886 290.406 13.4886C290.488 13.4886 290.568 13.4624 290.633 13.4139C290.917 13.2234 291.222 13.0669 291.542 12.9476C291.84 12.8314 292.155 12.7667 292.475 12.7563C292.797 12.74 293.119 12.7723 293.431 12.8519C293.762 12.9442 294.104 12.9885 294.447 12.9834H294.555C294.664 12.9772 294.766 12.9288 294.84 12.8484C294.914 12.768 294.953 12.662 294.95 12.553C294.981 12.4854 294.997 12.4121 294.998 12.3378Z" fill="#121B46"/>
<path d="M301.322 14.2509V14.6096C301.133 14.4802 300.928 14.3758 300.712 14.2988C300.412 14.1867 300.099 14.1104 299.78 14.0716C299.437 14.0591 299.099 13.9946 298.775 13.8803H298.68C298.629 13.8617 298.583 13.8333 298.544 13.7967C298.504 13.7601 298.473 13.7161 298.45 13.6671C298.428 13.6182 298.416 13.5654 298.414 13.5117C298.413 13.458 298.422 13.4044 298.441 13.3542C298.479 13.2805 298.532 13.2154 298.596 13.1629C298.988 12.9179 299.453 12.8165 299.911 12.876C300.364 12.9277 300.805 13.0571 301.215 13.2586H301.298C301.31 13.5933 301.322 13.9281 301.322 14.2509Z" fill="#121B46"/>
<path d="M296.561 15.9366C296.561 16.5703 296.561 17.204 296.561 17.8257C296.561 18.4475 296.561 19.0812 296.621 19.679C296.621 19.8344 296.621 19.9898 296.621 20.1333C296.659 20.3146 296.659 20.502 296.621 20.6833C296.586 20.884 296.497 21.0711 296.361 21.2233C296.226 21.3755 296.051 21.4866 295.855 21.5442C295.681 21.5919 295.498 21.6028 295.319 21.576C295.14 21.5493 294.968 21.4855 294.815 21.3887C294.53 21.2258 294.282 21.0061 294.086 20.7431C294.612 21.0659 295.282 21.3648 295.712 21.1376C295.818 21.0923 295.911 21.0198 295.98 20.9275C296.049 20.8351 296.093 20.7262 296.107 20.6116C296.126 20.4848 296.126 20.3558 296.107 20.229C296.072 20.0673 296.048 19.9036 296.035 19.7387C295.983 19.0929 296.003 18.4432 296.095 17.8018C296.194 17.1675 296.35 16.5433 296.561 15.9366Z" fill="#121B46"/>
<path d="M283.516 17.2997C283.544 17.0971 283.617 16.9033 283.728 16.7319C283.84 16.5604 283.988 16.4155 284.161 16.3073C284.353 16.22 284.565 16.185 284.775 16.206C284.985 16.227 285.186 16.3032 285.357 16.4269C285.721 16.6513 286.018 16.9692 286.218 17.3475C286.419 17.7208 286.556 18.1249 286.624 18.5432C286.638 18.6064 286.629 18.6725 286.598 18.7296C286.568 18.7868 286.519 18.8314 286.459 18.8557C286.399 18.88 286.332 18.8823 286.27 18.8623C286.209 18.8424 286.156 18.8013 286.122 18.7464C285.926 18.4142 285.656 18.1319 285.333 17.9214C285.272 17.889 285.205 17.872 285.136 17.872C285.067 17.872 284.999 17.889 284.938 17.9214C284.794 18.0148 284.675 18.1421 284.592 18.2921C284.376 18.6149 284.209 19.0214 284.484 19.2486C284.843 19.4688 285.259 19.577 285.68 19.5594C285.231 19.6964 284.748 19.671 284.317 19.4877C284.199 19.4115 284.104 19.3043 284.043 19.1777C283.981 19.0512 283.956 18.9102 283.97 18.7703C283.998 18.5202 284.071 18.2771 284.185 18.053C284.301 17.815 284.478 17.6126 284.699 17.4671C284.835 17.3997 284.984 17.3646 285.136 17.3646C285.287 17.3646 285.437 17.3997 285.572 17.4671C286.007 17.7086 286.364 18.0695 286.6 18.5073L286.086 18.6866C285.992 17.9894 285.658 17.3468 285.142 16.8693C285.016 16.7628 284.868 16.6869 284.708 16.6475C284.548 16.6081 284.382 16.6062 284.221 16.6421C283.917 16.7725 283.667 17.0051 283.516 17.2997Z" fill="#121B46"/>
<path d="M302.994 10.6879C302.548 8.09439 301.315 5.70075 299.463 3.83146C297.611 1.96218 295.229 0.707678 292.639 0.238052C287.462 -0.598889 282.847 0.692391 280.48 5.3673C280 5.25709 279.498 5.30323 279.046 5.49898C278.594 5.69474 278.217 6.02985 277.969 6.45533C277.491 7.31565 277.209 8.27108 277.144 9.2531C276.582 13.1987 276.032 17.1323 275.47 21.0779C275.124 22.5321 275.202 24.0552 275.697 25.4658C275.898 25.8783 276.188 26.2412 276.545 26.5286C276.903 26.8159 277.32 27.0205 277.766 27.1278H277.873C284.282 28.1082 286.41 21.4366 286.41 21.4366C282.979 21.2214 282.333 19.1888 282.333 17.7182C282.309 17.184 282.453 16.6556 282.745 16.2074C283.036 15.7592 283.461 15.4137 283.959 15.2193C285.765 14.5976 287.116 16.4149 287.116 16.4149C288.327 15.7809 289.34 14.8247 290.042 13.6517C290.745 12.4787 291.11 11.1345 291.097 9.76722C292.212 11.4343 293.731 12.792 295.512 13.7139C297.293 14.6358 299.279 15.092 301.284 15.04C301.242 16.7514 301.11 18.4596 300.889 20.1572C301.882 18.8135 302.583 17.2766 302.945 15.6455C303.307 14.0145 303.324 12.3257 302.994 10.6879Z" fill="#121B46"/>
<path d="M506.247 125.337H441.049C439.24 125.337 437.773 126.804 437.773 128.613V170.878C437.773 172.688 439.24 174.154 441.049 174.154H506.247C508.056 174.154 509.523 172.688 509.523 170.878V128.613C509.523 126.804 508.056 125.337 506.247 125.337Z" fill="#BCDFFD"/>
<path d="M509.559 131.59V128.613C509.561 128.182 509.477 127.755 509.313 127.357C509.149 126.959 508.908 126.597 508.603 126.293C508.299 125.988 507.937 125.747 507.539 125.583C507.14 125.419 506.714 125.335 506.283 125.337H441.05C440.619 125.335 440.192 125.419 439.794 125.583C439.396 125.747 439.034 125.988 438.729 126.293C438.425 126.597 438.184 126.959 438.02 127.357C437.856 127.755 437.772 128.182 437.773 128.613V131.59H509.559Z" fill="#121B46"/>
<path d="M492.292 129.605C493.032 129.605 493.631 129.006 493.631 128.266C493.631 127.527 493.032 126.927 492.292 126.927C491.553 126.927 490.953 127.527 490.953 128.266C490.953 129.006 491.553 129.605 492.292 129.605Z" fill="#C8D5E8"/>
<path d="M498.795 128.266C498.795 128.531 498.717 128.79 498.57 129.01C498.423 129.23 498.213 129.402 497.969 129.503C497.724 129.605 497.455 129.631 497.195 129.58C496.935 129.528 496.697 129.4 496.509 129.213C496.322 129.026 496.195 128.787 496.143 128.527C496.091 128.268 496.118 127.998 496.219 127.754C496.32 127.509 496.492 127.3 496.712 127.153C496.933 127.006 497.191 126.927 497.456 126.927C497.811 126.927 498.152 127.068 498.403 127.319C498.654 127.57 498.795 127.911 498.795 128.266Z" fill="#C8D5E8"/>
<path d="M504.069 128.266C504.069 128.531 503.99 128.79 503.843 129.01C503.696 129.23 503.487 129.402 503.242 129.503C502.998 129.605 502.728 129.631 502.468 129.58C502.209 129.528 501.97 129.4 501.783 129.213C501.596 129.026 501.468 128.787 501.416 128.527C501.365 128.268 501.391 127.998 501.493 127.754C501.594 127.509 501.766 127.3 501.986 127.153C502.206 127.006 502.465 126.927 502.73 126.927C503.085 126.927 503.425 127.068 503.677 127.319C503.928 127.57 504.069 127.911 504.069 128.266Z" fill="#C8D5E8"/>
<path d="M467.212 148.113L457.743 151.987L467.212 155.801V159.018L453.594 153.398V150.648L467.212 144.957V148.113Z" fill="#121B46"/>
<path d="M471.587 165.929H468.586L477.386 137.987H480.387L471.587 165.929Z" fill="#121B46"/>
<path d="M495.388 150.648V153.374L481.758 158.994V155.825L491.227 152.011L481.758 148.137V144.957L495.388 150.648Z" fill="#121B46"/>
<path d="M186.552 44.6079H121.354C119.545 44.6079 118.078 46.0746 118.078 47.8839V90.1495C118.078 91.9588 119.545 93.4255 121.354 93.4255H186.552C188.361 93.4255 189.828 91.9588 189.828 90.1495V47.8839C189.828 46.0746 188.361 44.6079 186.552 44.6079Z" fill="#BCDFFD"/>
<path d="M189.816 50.8611V47.884C189.818 47.4533 189.734 47.0266 189.57 46.6284C189.406 46.2302 189.164 45.8685 188.86 45.5639C188.555 45.2594 188.194 45.0182 187.795 44.8541C187.397 44.69 186.971 44.6064 186.54 44.6079H121.342C120.913 44.6079 120.487 44.6927 120.09 44.8575C119.694 45.0223 119.333 45.2638 119.03 45.5682C118.727 45.8725 118.486 46.2338 118.323 46.6312C118.16 47.0286 118.077 47.4543 118.078 47.884V50.8611H189.816Z" fill="#121B46"/>
<path d="M172.589 48.8763C173.329 48.8763 173.928 48.2768 173.928 47.5372C173.928 46.7977 173.329 46.1981 172.589 46.1981C171.85 46.1981 171.25 46.7977 171.25 47.5372C171.25 48.2768 171.85 48.8763 172.589 48.8763Z" fill="#C8D5E8"/>
<path d="M179.155 47.5372C179.155 47.8021 179.076 48.061 178.929 48.2812C178.782 48.5014 178.573 48.673 178.328 48.7744C178.083 48.8758 177.814 48.9023 177.554 48.8506C177.295 48.7989 177.056 48.6714 176.869 48.4841C176.681 48.2968 176.554 48.0582 176.502 47.7985C176.451 47.5387 176.477 47.2695 176.578 47.0248C176.68 46.7801 176.851 46.5709 177.072 46.4238C177.292 46.2767 177.551 46.1981 177.816 46.1981C178.171 46.1981 178.511 46.3392 178.763 46.5903C179.014 46.8415 179.155 47.1821 179.155 47.5372Z" fill="#C8D5E8"/>
<path d="M183.027 48.8763C183.766 48.8763 184.366 48.2768 184.366 47.5372C184.366 46.7977 183.766 46.1981 183.027 46.1981C182.287 46.1981 181.688 46.7977 181.688 47.5372C181.688 48.2768 182.287 48.8763 183.027 48.8763Z" fill="#C8D5E8"/>
<path d="M183.965 55.1176H123.92C123.101 55.1176 122.438 55.7813 122.438 56.6001V56.6121C122.438 57.4309 123.101 58.0947 123.92 58.0947H183.965C184.783 58.0947 185.447 57.4309 185.447 56.6121V56.6001C185.447 55.7813 184.783 55.1176 183.965 55.1176Z" fill="#DAEDFD"/>
<path d="M183.965 65.6629H123.92C123.526 65.6598 123.149 65.5009 122.871 65.221C122.593 64.941 122.437 64.5627 122.438 64.1684C122.441 63.7761 122.598 63.4008 122.875 63.1235C123.153 62.8461 123.528 62.6889 123.92 62.6858H183.965C184.357 62.6889 184.732 62.8461 185.01 63.1235C185.287 63.4008 185.444 63.7761 185.447 64.1684C185.447 64.5627 185.291 64.941 185.014 65.221C184.736 65.5009 184.359 65.6598 183.965 65.6629Z" fill="#DAEDFD"/>
<path d="M183.965 73.2194H123.92C123.528 73.2163 123.153 73.0591 122.875 72.7817C122.598 72.5044 122.441 72.1291 122.438 71.7368C122.437 71.3425 122.593 70.9642 122.871 70.6843C123.149 70.4043 123.526 70.2455 123.92 70.2423H183.965C184.359 70.2455 184.736 70.4043 185.014 70.6843C185.291 70.9642 185.447 71.3425 185.447 71.7368C185.444 72.1291 185.287 72.5044 185.01 72.7817C184.732 73.0591 184.357 73.2163 183.965 73.2194Z" fill="#DAEDFD"/>
<path d="M183.965 80.7757H123.92C123.527 80.7757 123.15 80.6195 122.872 80.3415C122.594 80.0634 122.438 79.6863 122.438 79.2931C122.437 78.8988 122.593 78.5205 122.871 78.2405C123.149 77.9606 123.526 77.8017 123.92 77.7986H183.965C184.359 77.8017 184.736 77.9606 185.014 78.2405C185.291 78.5205 185.447 78.8988 185.447 79.2931C185.447 79.6863 185.291 80.0634 185.013 80.3415C184.735 80.6195 184.358 80.7757 183.965 80.7757Z" fill="#DAEDFD"/>
<path d="M183.965 88.3439H123.92C123.526 88.3408 123.149 88.1819 122.871 87.902C122.593 87.6221 122.437 87.2437 122.438 86.8494C122.438 86.4562 122.594 86.0791 122.872 85.8011C123.15 85.523 123.527 85.3668 123.92 85.3668H183.965C184.358 85.3668 184.735 85.523 185.013 85.8011C185.291 86.0791 185.447 86.4562 185.447 86.8494C185.447 87.2437 185.291 87.6221 185.014 87.902C184.736 88.1819 184.359 88.3408 183.965 88.3439Z" fill="#DAEDFD"/>
<path d="M160.403 55.1176H148.459C147.64 55.1176 146.977 55.7813 146.977 56.6001V56.6121C146.977 57.4309 147.64 58.0947 148.459 58.0947H160.403C161.222 58.0947 161.886 57.4309 161.886 56.6121V56.6001C161.886 55.7813 161.222 55.1176 160.403 55.1176Z" fill="#FDB32C"/>
<path d="M143.313 65.6629H123.92C123.526 65.6598 123.149 65.5009 122.871 65.221C122.593 64.941 122.437 64.5627 122.438 64.1684C122.441 63.7761 122.598 63.4008 122.875 63.1235C123.153 62.8461 123.528 62.6889 123.92 62.6858H143.313C143.705 62.6889 144.081 62.8461 144.358 63.1235C144.635 63.4008 144.793 63.7761 144.796 64.1684C144.796 64.5627 144.64 64.941 144.362 65.221C144.085 65.5009 143.707 65.6598 143.313 65.6629Z" fill="#F46A2B"/>
<path d="M176.251 73.2192H163.183C162.984 73.2256 162.785 73.1921 162.599 73.1206C162.413 73.0491 162.243 72.9411 162.099 72.8029C161.956 72.6648 161.841 72.4993 161.762 72.3161C161.683 72.133 161.642 71.936 161.641 71.7366C161.641 71.3403 161.798 70.9601 162.078 70.6798C162.359 70.3996 162.739 70.2421 163.135 70.2421H176.203C176.404 70.2357 176.603 70.2696 176.79 70.3418C176.977 70.4141 177.147 70.5231 177.291 70.6626C177.435 70.802 177.55 70.9689 177.628 71.1534C177.706 71.3379 177.746 71.5363 177.746 71.7366C177.743 72.1309 177.584 72.508 177.304 72.7857C177.024 73.0634 176.646 73.2192 176.251 73.2192Z" fill="#F46A2B"/>
<path d="M157.296 80.7757H152.298C151.914 80.7632 151.55 80.6012 151.285 80.3241C151.019 80.0471 150.872 79.6771 150.875 79.2931C150.873 79.0974 150.911 78.9033 150.984 78.7221C151.058 78.5408 151.167 78.376 151.305 78.237C151.443 78.0981 151.607 77.9878 151.788 77.9126C151.968 77.8373 152.162 77.7986 152.358 77.7986H157.355C157.752 77.7986 158.132 77.956 158.412 78.2363C158.692 78.5166 158.85 78.8967 158.85 79.2931C158.85 79.494 158.81 79.6928 158.731 79.8776C158.652 80.0623 158.536 80.229 158.391 80.3677C158.245 80.5063 158.073 80.614 157.885 80.6841C157.697 80.7543 157.496 80.7854 157.296 80.7757Z" fill="#FDB32C"/>
<path d="M147.982 87.7462H137.221C136.825 87.7462 136.445 87.5887 136.164 87.3085C135.884 87.0282 135.727 86.648 135.727 86.2517C135.727 86.056 135.765 85.8622 135.841 85.6815C135.916 85.5009 136.026 85.3369 136.165 85.1991C136.304 85.0613 136.469 84.9523 136.65 84.8785C136.831 84.8047 137.025 84.7675 137.221 84.7691H147.982C148.375 84.7691 148.752 84.9253 149.03 85.2033C149.308 85.4814 149.464 85.8585 149.464 86.2517C149.464 86.646 149.309 87.0243 149.031 87.3043C148.753 87.5842 148.376 87.7431 147.982 87.7462Z" fill="#F46A2B"/>
<path d="M125.487 82.4855H71.0859V166.18H125.487V82.4855Z" fill="#FDB32C"/>
<path d="M118.112 111.982H78.4651C78.0227 111.982 77.6641 112.34 77.6641 112.783V135.894C77.6641 136.337 78.0227 136.695 78.4651 136.695H118.112C118.555 136.695 118.913 136.337 118.913 135.894V112.783C118.913 112.34 118.555 111.982 118.112 111.982Z" fill="white"/>
<path d="M102.628 123.83L93.9353 118.809C93.8468 118.759 93.7469 118.733 93.6453 118.734C93.5438 118.734 93.4441 118.761 93.3561 118.812C93.2681 118.862 93.1948 118.935 93.1433 119.022C93.0918 119.11 93.064 119.209 93.0625 119.311V129.354C93.064 129.456 93.0918 129.555 93.1433 129.643C93.1948 129.73 93.2681 129.803 93.3561 129.853C93.4441 129.904 93.5438 129.931 93.6453 129.931C93.7469 129.932 93.8468 129.906 93.9353 129.856L102.628 124.835C102.714 124.783 102.786 124.709 102.836 124.621C102.885 124.533 102.912 124.434 102.912 124.333C102.912 124.231 102.885 124.132 102.836 124.044C102.786 123.956 102.714 123.882 102.628 123.83Z" fill="#121B46"/>
<path d="M43.2673 236.793C42.0448 236.793 40.8497 236.431 39.8331 235.752C38.8166 235.073 38.0243 234.107 37.5565 232.978C37.0886 231.848 36.9662 230.605 37.2047 229.406C37.4432 228.207 38.0319 227.106 38.8964 226.241C39.7609 225.377 40.8623 224.788 42.0614 224.549C43.2605 224.311 44.5034 224.433 45.6329 224.901C46.7624 225.369 47.7278 226.161 48.407 227.178C49.0862 228.194 49.4488 229.39 49.4488 230.612C49.4456 232.251 48.7933 233.821 47.6348 234.979C46.4762 236.138 44.9058 236.79 43.2673 236.793ZM43.2673 225.626C42.2813 225.626 41.3173 225.919 40.4974 226.467C39.6775 227.014 39.0385 227.793 38.6611 228.704C38.2837 229.615 38.185 230.618 38.3774 231.585C38.5697 232.552 39.0446 233.44 39.7419 234.138C40.4391 234.835 41.3275 235.31 42.2947 235.502C43.2618 235.694 44.2643 235.596 45.1753 235.218C46.0864 234.841 46.865 234.202 47.4129 233.382C47.9607 232.562 48.2531 231.598 48.2531 230.612C48.2531 229.29 47.7278 228.022 46.7928 227.087C45.8578 226.152 44.5897 225.626 43.2673 225.626Z" fill="#79B9F7"/>
<path d="M488.044 100.886C486.98 100.886 485.94 100.571 485.055 99.9795C484.17 99.3883 483.481 98.548 483.074 97.5649C482.666 96.5818 482.56 95.5 482.767 94.4563C482.975 93.4126 483.487 92.4539 484.24 91.7015C484.992 90.949 485.951 90.4366 486.995 90.229C488.038 90.0214 489.12 90.1279 490.103 90.5352C491.087 90.9424 491.927 91.632 492.518 92.5168C493.109 93.4016 493.425 94.4418 493.425 95.5059C493.422 96.9319 492.854 98.2986 491.845 99.3069C490.837 100.315 489.47 100.883 488.044 100.886ZM488.044 91.3212C487.217 91.3212 486.408 91.5667 485.72 92.0265C485.031 92.4863 484.495 93.1399 484.178 93.9045C483.862 94.6692 483.779 95.5106 483.94 96.3223C484.102 97.1341 484.5 97.8797 485.085 98.465C485.671 99.0502 486.416 99.4488 487.228 99.6102C488.04 99.7717 488.881 99.6888 489.646 99.3721C490.41 99.0554 491.064 98.519 491.524 97.8308C491.984 97.1427 492.229 96.3336 492.229 95.5059C492.229 94.3961 491.788 93.3317 491.003 92.5469C490.219 91.7621 489.154 91.3212 488.044 91.3212Z" fill="#79B9F7"/>
<path d="M68.0597 56.4446C67.232 56.4446 66.423 56.1992 65.7348 55.7394C65.0466 55.2795 64.5103 54.626 64.1935 53.8613C63.8768 53.0967 63.7939 52.2553 63.9554 51.4435C64.1169 50.6318 64.5154 49.8861 65.1007 49.3009C65.6859 48.7156 66.4316 48.3171 67.2433 48.1556C68.0551 47.9941 68.8965 48.077 69.6611 48.3937C70.4258 48.7105 71.0793 49.2468 71.5392 49.935C71.999 50.6232 72.2444 51.4322 72.2444 52.2599C72.2444 53.3698 71.8035 54.4342 71.0187 55.2189C70.234 56.0037 69.1696 56.4446 68.0597 56.4446ZM68.0597 49.2708C67.4685 49.2708 66.8906 49.4461 66.3991 49.7746C65.9075 50.103 65.5244 50.5699 65.2982 51.116C65.0719 51.6622 65.0127 52.2632 65.1281 52.843C65.2434 53.4229 65.5281 53.9555 65.9461 54.3735C66.3641 54.7915 66.8967 55.0762 67.4766 55.1915C68.0564 55.3069 68.6574 55.2477 69.2036 55.0214C69.7498 54.7952 70.2166 54.4121 70.545 53.9205C70.8735 53.429 71.0488 52.8511 71.0488 52.2599C71.0488 51.4671 70.7339 50.7069 70.1733 50.1463C69.6127 49.5857 68.8525 49.2708 68.0597 49.2708Z" fill="#79B9F7"/>
<path d="M547.816 144.527C545.362 144.527 542.965 143.785 540.941 142.398C540.872 142.356 540.813 142.299 540.766 142.233C540.72 142.166 540.687 142.091 540.671 142.012C540.654 141.932 540.654 141.85 540.671 141.771C540.687 141.691 540.719 141.616 540.765 141.549C540.812 141.483 540.871 141.426 540.94 141.383C541.009 141.34 541.086 141.312 541.166 141.3C541.246 141.287 541.328 141.291 541.406 141.312C541.485 141.332 541.558 141.368 541.622 141.418C543.829 142.919 546.506 143.568 549.155 143.247C549.313 143.227 549.474 143.27 549.6 143.367C549.727 143.465 549.81 143.609 549.83 143.767C549.851 143.926 549.808 144.086 549.71 144.213C549.613 144.34 549.469 144.422 549.31 144.443C548.814 144.501 548.315 144.529 547.816 144.527ZM556.472 140.617C556.328 140.616 556.189 140.566 556.078 140.473C556.022 140.418 555.977 140.352 555.947 140.279C555.916 140.206 555.901 140.128 555.901 140.049C555.901 139.97 555.916 139.892 555.947 139.819C555.977 139.746 556.022 139.68 556.078 139.625C557.562 137.949 558.497 135.858 558.755 133.635C559.014 131.411 558.584 129.162 557.524 127.19C557.451 127.05 557.435 126.887 557.48 126.735C557.524 126.584 557.626 126.455 557.763 126.377C557.833 126.34 557.91 126.316 557.988 126.309C558.067 126.301 558.147 126.309 558.222 126.333C558.298 126.356 558.368 126.394 558.429 126.445C558.49 126.496 558.54 126.558 558.576 126.628C559.752 128.816 560.229 131.311 559.942 133.778C559.656 136.245 558.62 138.565 556.974 140.426C556.911 140.494 556.833 140.546 556.745 140.58C556.658 140.613 556.565 140.626 556.472 140.617ZM536.601 135.834C536.468 135.835 536.338 135.791 536.234 135.708C536.13 135.625 536.057 135.51 536.027 135.38C535.784 134.41 535.659 133.415 535.656 132.415C535.656 130.437 536.136 128.488 537.055 126.736C537.127 126.595 537.251 126.488 537.401 126.439C537.552 126.39 537.715 126.402 537.856 126.473C537.998 126.547 538.105 126.673 538.154 126.825C538.203 126.977 538.191 127.143 538.119 127.286C537.32 128.842 536.91 130.569 536.924 132.319C536.927 133.222 537.039 134.122 537.258 134.998C537.294 135.151 537.268 135.313 537.185 135.447C537.102 135.582 536.97 135.678 536.816 135.715L536.601 135.834ZM543.643 122.24C543.522 122.238 543.405 122.2 543.305 122.132C543.205 122.064 543.128 121.969 543.081 121.858C543.052 121.784 543.038 121.705 543.04 121.626C543.042 121.547 543.06 121.469 543.092 121.396C543.124 121.324 543.171 121.259 543.228 121.205C543.286 121.15 543.354 121.108 543.428 121.08C546.202 120.034 549.262 120.034 552.036 121.08C552.118 121.101 552.194 121.139 552.26 121.191C552.326 121.243 552.381 121.308 552.42 121.383C552.459 121.458 552.482 121.54 552.487 121.624C552.492 121.708 552.479 121.792 552.449 121.871C552.42 121.949 552.374 122.021 552.315 122.081C552.255 122.141 552.184 122.187 552.106 122.218C552.027 122.248 551.943 122.261 551.859 122.257C551.775 122.253 551.693 122.231 551.618 122.192C549.116 121.254 546.36 121.254 543.858 122.192C543.787 122.203 543.714 122.203 543.643 122.192V122.24Z" fill="#79B9F7"/>
</svg>
