<svg width="475" height="505" viewBox="0 0 475 505" fill="none" xmlns="http://www.w3.org/2000/svg">
<path d="M40.9615 79.7491C62.9668 79.7491 80.8058 61.8967 80.8058 39.8746C80.8058 17.8525 62.9668 0 40.9615 0C18.9561 0 1.11719 17.8525 1.11719 39.8746C1.11719 61.8967 18.9561 79.7491 40.9615 79.7491Z" fill="#B99FEF"/>
<path d="M133.748 97.7766C145.505 97.7766 155.035 88.2388 155.035 76.4732C155.035 64.7077 145.505 55.1698 133.748 55.1698C121.991 55.1698 112.461 64.7077 112.461 76.4732C112.461 88.2388 121.991 97.7766 133.748 97.7766Z" fill="#B99FEF"/>
<path d="M253.161 504.429C278.482 504.429 299.008 483.887 299.008 458.547C299.008 433.206 278.482 412.664 253.161 412.664C227.839 412.664 207.312 433.206 207.312 458.547C207.312 483.887 227.839 504.429 253.161 504.429Z" fill="#B99FEF"/>
<path d="M366.717 480.35C378.475 480.35 388.004 470.812 388.004 459.046C388.004 447.281 378.475 437.743 366.717 437.743C354.96 437.743 345.43 447.281 345.43 459.046C345.43 470.812 354.96 480.35 366.717 480.35Z" fill="#B99FEF"/>
<path d="M457.294 475.027C466.639 475.027 474.214 467.446 474.214 458.095C474.214 448.743 466.639 441.163 457.294 441.163C447.95 441.163 440.375 448.743 440.375 458.095C440.375 467.446 447.95 475.027 457.294 475.027Z" fill="#B99FEF"/>
<path d="M220.41 389.865C289.296 389.865 345.14 334.234 345.14 265.609C345.14 196.985 289.296 141.354 220.41 141.354C151.524 141.354 95.6797 196.985 95.6797 265.609C95.6797 334.234 151.524 389.865 220.41 389.865Z" fill="#5C2D91"/>
<path d="M240.648 389.865C317.712 389.865 380.187 327.344 380.187 250.22C380.187 173.096 317.712 110.576 240.648 110.576C163.583 110.576 101.109 173.096 101.109 250.22C101.109 327.344 163.583 389.865 240.648 389.865Z" stroke="white" stroke-width="15"/>
<path d="M236.093 389.865C313.157 389.865 375.632 327.344 375.632 250.22C375.632 173.096 313.157 110.576 236.093 110.576C159.028 110.576 96.5547 173.096 96.5547 250.22C96.5547 327.344 159.028 389.865 236.093 389.865Z" stroke="#373F54" stroke-width="15"/>
<path opacity="0.1" d="M139.038 149.906C124.832 162.575 113.362 178.013 105.329 195.274C97.2961 212.537 92.8705 231.258 92.3234 250.292C91.7763 269.326 95.1192 288.271 102.147 305.966C109.175 323.662 119.74 339.734 133.194 353.198C146.649 366.663 162.709 377.236 180.391 384.27C198.072 391.302 217.004 394.648 236.023 394.101C255.043 393.553 273.75 389.124 290.998 381.085C308.247 373.047 323.674 361.566 336.333 347.351L139.038 149.906Z" fill="white"/>
<path d="M143.51 275.869C142.908 275.878 142.312 275.763 141.758 275.532C141.204 275.3 140.704 274.958 140.289 274.525C139.864 274.107 139.528 273.609 139.302 273.059C139.074 272.509 138.961 271.919 138.969 271.325C138.966 270.731 139.08 270.143 139.306 269.594C139.533 269.044 139.867 268.545 140.289 268.125C140.699 267.685 141.198 267.335 141.753 267.098C142.308 266.861 142.906 266.743 143.51 266.749C144.112 266.748 144.709 266.869 145.263 267.106C145.816 267.343 146.316 267.69 146.73 268.125C147.159 268.541 147.5 269.04 147.732 269.589C147.965 270.139 148.083 270.729 148.082 271.325C148.088 271.921 147.97 272.513 147.738 273.064C147.505 273.614 147.161 274.111 146.73 274.525C146.312 274.954 145.812 275.293 145.258 275.524C144.704 275.755 144.11 275.873 143.51 275.869Z" fill="white"/>
<path d="M207.312 274.729H198.977L169.167 227.451C168.425 226.286 167.806 225.043 167.322 223.744H167.068C167.351 226.443 167.458 229.158 167.386 231.873V274.729H160.609V215.451H169.421L198.436 261.885C199.645 263.814 200.43 265.136 200.791 265.852H200.949C200.613 262.96 200.475 260.049 200.536 257.137V215.451H207.312V274.729Z" fill="white"/>
<path d="M253.981 274.729H223.258V215.451H252.555V221.727H230.17V241.432H251.032V247.676H230.17V268.226H254.013L253.981 274.729Z" fill="white"/>
<path d="M300.718 221.727H283.565V274.729H276.671V221.727H259.711V215.451H300.718V221.727Z" fill="white"/>
<path d="M203.834 314.207C201.613 315.312 199.163 315.844 196.697 315.755C195.058 315.831 193.423 315.546 191.9 314.919C190.377 314.292 189.002 313.338 187.868 312.121C185.608 309.522 184.416 306.122 184.545 302.64C184.463 300.754 184.749 298.87 185.389 297.1C186.028 295.33 187.008 293.711 188.268 292.337C189.495 291.044 190.973 290.027 192.604 289.354C194.235 288.679 195.985 288.36 197.742 288.418C199.846 288.344 201.942 288.721 203.896 289.523V292.685C202.014 291.614 199.893 291.069 197.742 291.105C196.387 291.065 195.039 291.327 193.792 291.873C192.544 292.418 191.426 293.234 190.514 294.265C188.594 296.51 187.602 299.434 187.745 302.419C187.601 305.246 188.527 308.02 190.329 310.161C191.193 311.116 192.249 311.868 193.422 312.364C194.595 312.861 195.86 313.09 197.127 313.037C199.49 313.101 201.823 312.488 203.865 311.268L203.834 314.207Z" fill="#F2F2F2"/>
<path d="M216.895 315.763C215.591 315.804 214.294 315.569 213.09 315.071C211.886 314.574 210.805 313.827 209.919 312.88C208.127 310.903 207.197 308.308 207.331 305.657C207.249 304.269 207.447 302.878 207.914 301.566C208.381 300.254 209.106 299.046 210.05 298.014C211.012 297.085 212.157 296.362 213.413 295.888C214.67 295.415 216.012 295.2 217.355 295.261C218.625 295.194 219.894 295.4 221.075 295.864C222.257 296.328 223.323 297.039 224.2 297.949C225.942 300.024 226.82 302.675 226.657 305.365C226.795 308.097 225.842 310.772 224.005 312.815C223.101 313.781 222 314.543 220.773 315.052C219.547 315.56 218.225 315.803 216.895 315.763ZM217.126 298.046C216.223 298.008 215.326 298.172 214.498 298.526C213.67 298.879 212.933 299.413 212.343 300.086C211.082 301.691 210.453 303.694 210.574 305.722C210.458 307.69 211.09 309.63 212.343 311.163C212.939 311.828 213.678 312.353 214.505 312.7C215.333 313.048 216.227 313.208 217.126 313.172C218.004 313.223 218.883 313.075 219.695 312.738C220.508 312.401 221.231 311.885 221.809 311.228C223.001 309.62 223.581 307.646 223.447 305.657C223.577 303.658 222.998 301.677 221.809 300.054C221.239 299.384 220.519 298.854 219.706 298.506C218.893 298.157 218.009 298 217.126 298.046Z" fill="#F2F2F2"/>
<path d="M241.486 299.792C240.781 299.342 239.944 299.13 239.103 299.188C238.445 299.212 237.803 299.392 237.234 299.712C236.664 300.034 236.185 300.486 235.837 301.03C234.866 302.527 234.399 304.281 234.499 306.048V315.767H231.234V296.711H234.499V300.681C234.858 299.452 235.572 298.35 236.556 297.505C237.407 296.786 238.497 296.392 239.625 296.393C240.256 296.365 240.887 296.452 241.486 296.647V299.792Z" fill="#F2F2F2"/>
<path d="M260.852 306.878H247.128C247.036 308.601 247.626 310.293 248.782 311.624C249.383 312.194 250.105 312.637 250.898 312.923C251.692 313.211 252.541 313.335 253.39 313.288C255.589 313.268 257.716 312.539 259.425 311.224V313.997C257.419 315.253 255.042 315.869 252.644 315.754C251.433 315.812 250.223 315.616 249.102 315.179C247.98 314.742 246.973 314.076 246.154 313.227C244.465 311.226 243.621 308.699 243.786 306.138C243.669 303.571 244.586 301.059 246.349 299.112C247.151 298.23 248.15 297.531 249.272 297.062C250.394 296.592 251.613 296.367 252.838 296.4C253.944 296.34 255.05 296.52 256.073 296.926C257.096 297.332 258.009 297.952 258.743 298.741C260.237 300.613 260.974 302.932 260.82 305.275L260.852 306.878ZM257.608 304.382C257.673 302.953 257.215 301.548 256.309 300.405C255.866 299.929 255.314 299.554 254.696 299.309C254.078 299.064 253.409 298.953 252.74 298.989C252.042 298.979 251.35 299.11 250.707 299.37C250.066 299.63 249.487 300.014 249.01 300.498C247.941 301.572 247.269 302.945 247.095 304.412L257.608 304.382Z" fill="#F2F2F2"/>
</svg>
