<svg width="596" height="492" viewBox="0 0 596 492" fill="none" xmlns="http://www.w3.org/2000/svg">
<path d="M595.399 0.481689H458.836V216.165H595.399V0.481689Z" fill="#E1E1E1"/>
<path d="M591.173 4.57629H462.438V212.673H591.173V4.57629Z" fill="#F5F5F5"/>
<path d="M578.044 16.6188H526.742V96.2205H578.044V16.6188Z" fill="white"/>
<path d="M555.166 23.7239C555.166 24.8078 554.323 25.6508 553.239 25.6508C552.155 25.6508 551.312 24.8078 551.312 23.7239C551.312 22.6401 552.155 21.7971 553.239 21.7971C554.323 21.7971 555.166 22.6401 555.166 23.7239Z" fill="#E1E1E1"/>
<path d="M526.395 118.379H475.094V197.981H526.395V118.379Z" fill="white"/>
<path d="M503.494 125.484C503.494 126.568 502.651 127.411 501.567 127.411C500.484 127.411 499.641 126.568 499.641 125.484C499.641 124.4 500.484 123.557 501.567 123.557C502.651 123.557 503.494 124.4 503.494 125.484Z" fill="#E1E1E1"/>
<path d="M518.179 16.6188H474.344V78.7587H518.179V16.6188Z" fill="white"/>
<path d="M497.842 22.2789C497.842 23.1219 497.119 23.8445 496.276 23.8445C495.434 23.8445 494.711 23.1219 494.711 22.2789C494.711 21.4359 495.434 20.7134 496.276 20.7134C497.24 20.7134 497.842 21.4359 497.842 22.2789Z" fill="#E1E1E1"/>
<path d="M579.824 119.549L532.914 124.84L535.844 150.808L582.753 145.516L579.824 119.549Z" fill="white"/>
<path d="M558.537 127.05C558.537 127.893 557.815 128.615 556.972 128.615C556.129 128.615 555.406 127.893 555.406 127.05C555.406 126.207 556.129 125.484 556.972 125.484C557.815 125.484 558.537 126.207 558.537 127.05Z" fill="#E1E1E1"/>
<path d="M519.52 136.563C519.52 136.804 511.451 136.925 501.576 136.925C491.581 136.925 483.633 136.804 483.633 136.563C483.633 136.322 491.701 136.202 501.576 136.202C511.451 136.202 519.52 136.443 519.52 136.563Z" fill="#E1E1E1"/>
<path d="M519.52 142.344C519.52 142.585 511.451 142.705 501.576 142.705C491.581 142.705 483.633 142.585 483.633 142.344C483.633 142.103 491.701 141.982 501.576 141.982C511.451 141.862 519.52 142.103 519.52 142.344Z" fill="#E1E1E1"/>
<path d="M519.52 148.004C519.52 148.245 511.451 148.365 501.576 148.365C491.581 148.365 483.633 148.245 483.633 148.004C483.633 147.763 491.701 147.643 501.576 147.643C511.451 147.643 519.52 147.763 519.52 148.004Z" fill="#E1E1E1"/>
<path d="M519.52 153.664C519.52 153.905 511.451 154.025 501.576 154.025C491.581 154.025 483.633 153.905 483.633 153.664C483.633 153.423 491.701 153.303 501.576 153.303C511.451 153.303 519.52 153.423 519.52 153.664Z" fill="#E1E1E1"/>
<path d="M519.52 159.324C519.52 159.565 511.451 159.685 501.576 159.685C491.581 159.685 483.633 159.565 483.633 159.324C483.633 159.083 491.701 158.963 501.576 158.963C511.451 158.963 519.52 159.204 519.52 159.324Z" fill="#E1E1E1"/>
<path d="M519.52 165.104C519.52 165.345 511.451 165.466 501.576 165.466C491.581 165.466 483.633 165.345 483.633 165.104C483.633 164.863 491.701 164.743 501.576 164.743C511.451 164.743 519.52 164.863 519.52 165.104Z" fill="#E1E1E1"/>
<path d="M519.52 170.764C519.52 171.005 511.451 171.126 501.576 171.126C491.581 171.126 483.633 171.005 483.633 170.764C483.633 170.524 491.701 170.403 501.576 170.403C511.451 170.403 519.52 170.524 519.52 170.764Z" fill="#E1E1E1"/>
<path d="M575.42 130.542C575.42 130.783 567.471 131.987 557.596 133.432C547.722 134.877 539.773 135.72 539.773 135.6C539.773 135.359 547.722 134.155 557.596 132.71C567.351 131.265 575.42 130.301 575.42 130.542Z" fill="#E1E1E1"/>
<path d="M576.115 134.034C576.115 134.275 568.167 135.479 558.292 136.925C548.417 138.37 540.469 139.213 540.469 139.092C540.469 138.972 548.417 137.647 558.292 136.202C568.046 134.757 576.115 133.793 576.115 134.034Z" fill="#E1E1E1"/>
<path d="M576.724 137.286C576.724 137.527 568.776 138.731 558.901 140.176C549.026 141.621 541.078 142.464 541.078 142.344C541.078 142.103 549.026 140.899 558.901 139.453C568.776 138.129 576.724 137.165 576.724 137.286Z" fill="#E1E1E1"/>
<path d="M573.602 33.3582C573.602 33.599 564.45 33.7194 553.25 33.7194C542.051 33.7194 532.898 33.599 532.898 33.3582C532.898 33.1173 542.051 32.9969 553.25 32.9969C564.571 32.8764 573.602 33.1173 573.602 33.3582Z" fill="#E1E1E1"/>
<path d="M573.602 36.7301C573.602 36.9709 564.45 37.0913 553.25 37.0913C542.051 37.0913 532.898 36.9709 532.898 36.7301C532.898 36.4892 542.051 36.3688 553.25 36.3688C564.571 36.3688 573.602 36.4892 573.602 36.7301Z" fill="#E1E1E1"/>
<path d="M573.602 40.1018C573.602 40.3426 564.45 40.463 553.25 40.463C542.051 40.463 532.898 40.3426 532.898 40.1018C532.898 39.8609 542.051 39.7405 553.25 39.7405C564.571 39.7405 573.602 39.8609 573.602 40.1018Z" fill="#E1E1E1"/>
<path d="M573.602 43.4739C573.602 43.7148 564.45 43.8352 553.25 43.8352C542.051 43.8352 532.898 43.7148 532.898 43.4739C532.898 43.2331 542.051 43.1127 553.25 43.1127C564.571 43.1127 573.602 43.2331 573.602 43.4739Z" fill="#E1E1E1"/>
<path d="M573.602 46.8458C573.602 47.0866 564.45 47.2071 553.25 47.2071C542.051 47.2071 532.898 47.0866 532.898 46.8458C532.898 46.6049 542.051 46.4845 553.25 46.4845C564.571 46.4845 573.602 46.6049 573.602 46.8458Z" fill="#E1E1E1"/>
<path d="M573.602 50.2178C573.602 50.4587 564.45 50.5791 553.25 50.5791C542.051 50.5791 532.898 50.4587 532.898 50.2178C532.898 49.977 542.051 49.8566 553.25 49.8566C564.571 49.8566 573.602 49.977 573.602 50.2178Z" fill="#E1E1E1"/>
<path d="M573.602 53.5895C573.602 53.8304 564.45 53.9508 553.25 53.9508C542.051 53.9508 532.898 53.8304 532.898 53.5895C532.898 53.3487 542.051 53.2283 553.25 53.2283C564.571 53.2283 573.602 53.4691 573.602 53.5895Z" fill="#E1E1E1"/>
<path d="M573.602 63.7056C573.602 63.9465 564.45 64.0669 553.25 64.0669C542.051 64.0669 532.898 63.9465 532.898 63.7056C532.898 63.4648 542.051 63.3444 553.25 63.3444C564.571 63.3444 573.602 63.4648 573.602 63.7056Z" fill="#E1E1E1"/>
<path d="M573.829 67.3184C573.829 67.5592 564.677 67.6796 553.477 67.6796C542.277 67.6796 533.125 67.5592 533.125 67.3184C533.125 67.0775 542.277 66.9571 553.477 66.9571C564.797 66.8367 573.829 67.0775 573.829 67.3184Z" fill="#E1E1E1"/>
<path d="M574.204 70.8107C574.204 71.0516 565.052 71.172 553.852 71.172C542.652 71.172 533.5 71.0516 533.5 70.8107C533.5 70.5699 542.652 70.4495 553.852 70.4495C565.052 70.4495 574.204 70.5699 574.204 70.8107Z" fill="#E1E1E1"/>
<path d="M574.431 74.4234C574.431 74.6643 565.278 74.7847 554.079 74.7847C542.879 74.7847 533.727 74.6643 533.727 74.4234C533.727 74.1826 542.879 74.0621 554.079 74.0621C565.399 74.0621 574.431 74.1826 574.431 74.4234Z" fill="#E1E1E1"/>
<path d="M574.813 78.0363C574.813 78.2771 565.661 78.3975 554.461 78.3975C543.262 78.3975 534.109 78.2771 534.109 78.0363C534.109 77.7954 543.262 77.675 554.461 77.675C565.661 77.5545 574.813 77.7954 574.813 78.0363Z" fill="#E1E1E1"/>
<path d="M575.032 81.5286C575.032 81.7695 565.88 81.8899 554.68 81.8899C543.481 81.8899 534.328 81.7695 534.328 81.5286C534.328 81.2878 543.481 81.1674 554.68 81.1674C565.88 81.1674 575.032 81.4082 575.032 81.5286Z" fill="#E1E1E1"/>
<path d="M413.295 0H201.586V158.481H413.295V0Z" fill="#E1E1E1"/>
<path d="M406.318 6.98474H208.578V151.617H406.318V6.98474Z" fill="#FAFAFA"/>
<path d="M512.526 410.051H516.62V414.386H522.039V399.694H516.62V404.03H512.526V374.405C536.852 372.478 558.288 362.844 558.288 362.844L452.312 361.881C452.312 361.881 477.241 373.682 501.687 374.646V474.118H458.816V480.741H555.397V474.118H512.526V410.051Z" fill="#FC5546"/>
<path d="M543.602 483.391C543.602 487.485 546.853 490.737 550.948 490.737C555.042 490.737 558.294 487.485 558.294 483.391C558.294 479.296 555.042 476.045 550.948 476.045C546.853 476.045 543.602 479.296 543.602 483.391Z" fill="#0E314C"/>
<path d="M500.727 483.391C500.727 487.485 503.978 490.737 508.073 490.737C512.167 490.737 515.419 487.485 515.419 483.391C515.419 479.296 512.167 476.045 508.073 476.045C503.978 476.045 500.727 479.296 500.727 483.391Z" fill="#0E314C"/>
<path d="M451 483.391C451 487.485 454.252 490.737 458.346 490.737C462.44 490.737 465.692 487.485 465.692 483.391C465.692 479.296 462.44 476.045 458.346 476.045C454.252 476.045 451 479.296 451 483.391Z" fill="#0E314C"/>
<path d="M516.734 348.272H572.973V203.279C572.973 195.572 566.711 189.31 559.004 189.31H516.734V348.272Z" fill="#235F87"/>
<path d="M560.585 345.864C560.705 345.864 560.826 311.422 560.826 268.912C560.826 226.401 560.705 191.959 560.585 191.959C560.465 191.959 560.344 226.401 560.344 268.912C560.224 311.302 560.344 345.864 560.585 345.864Z" fill="#0E314C"/>
<path d="M433.891 365.253H563.469C568.768 365.253 572.983 360.917 572.983 355.739V348.032H433.891V365.253Z" fill="#235F87"/>
<path d="M437.382 358.147C438.225 356.461 440.272 355.618 442.079 355.016C478.447 343.335 517.345 337.675 554.918 344.539C559.374 345.382 564.07 346.466 567.683 349.356C571.296 352.247 573.464 357.425 571.537 361.519L563.83 363.928C525.414 359.593 486.516 359.954 448.22 364.771C445.691 365.132 442.922 365.373 440.513 364.41C437.984 363.446 436.178 360.556 437.382 358.147Z" fill="#235F87"/>
<path d="M479.531 346.105C479.531 346.105 479.652 346.105 479.772 346.105C480.013 346.105 480.133 346.105 480.495 345.984C481.097 345.864 482.06 345.743 483.144 345.623C485.432 345.262 488.804 344.66 493.019 344.178C501.449 343.215 513.01 342.251 525.895 342.612C529.147 342.733 532.278 342.853 535.289 343.094C538.299 343.335 541.189 343.455 544.08 343.696C544.441 343.696 544.802 343.696 545.164 343.696C545.525 343.696 545.766 343.696 546.127 343.696C546.729 343.696 547.452 343.817 548.054 343.937C549.378 344.178 550.583 344.419 551.787 344.78C554.195 345.262 556.484 345.864 558.41 346.586C562.384 347.911 565.516 349.477 567.442 350.801C568.406 351.403 569.128 352.006 569.61 352.367C569.851 352.487 569.971 352.728 570.212 352.849C570.333 352.969 570.453 352.969 570.453 352.969C570.453 352.969 570.453 352.849 570.333 352.849C570.212 352.728 569.971 352.608 569.851 352.367C569.369 352.006 568.647 351.404 567.683 350.681C565.756 349.356 562.746 347.67 558.651 346.346C556.604 345.623 554.436 345.021 552.028 344.419C550.824 344.178 549.499 343.937 548.295 343.576C547.692 343.455 546.97 343.335 546.247 343.215C545.886 343.215 545.525 343.215 545.164 343.215C544.802 343.215 544.561 343.215 544.2 343.215C541.43 342.974 538.54 342.733 535.409 342.492C532.398 342.251 529.267 342.131 526.016 342.01C513.13 341.649 501.449 342.612 493.019 343.696C488.804 344.178 485.432 344.78 483.144 345.262C482.06 345.503 481.097 345.623 480.495 345.743C480.254 345.743 480.013 345.864 479.772 345.864C479.531 346.105 479.531 346.105 479.531 346.105Z" fill="#1A2E35"/>
<path d="M477.976 99.4719C476.531 97.3042 473.52 96.3408 470.991 97.1838C467.74 95.257 463.043 95.8591 460.394 98.7494C457.985 97.6655 454.975 98.0268 452.807 99.5923C450.639 101.158 449.435 103.928 449.676 106.457C447.027 106.336 444.377 108.143 443.414 110.672C442.45 113.201 443.414 116.211 445.461 117.897C442.691 119.222 441.246 122.714 442.33 125.604C443.293 128.495 446.665 130.301 449.676 129.578L477.735 106.818C479.421 104.771 479.542 101.64 477.976 99.4719Z" fill="#0E314C"/>
<path d="M448.943 130.542C448.221 116.813 458.216 104.891 471.824 103.205L473.149 103.085C487.841 102.001 496.873 113.923 497.595 128.615L501.81 177.388L502.653 186.661L469.897 197.86L467.73 178.592C467.73 178.592 453.399 178.231 451.472 164.261C450.509 157.397 449.545 143.307 448.943 130.542Z" fill="#FFBF9D"/>
<path d="M467.617 178.351C467.617 178.351 476.649 177.749 485.199 170.523C485.199 170.523 482.189 181.121 468.099 181.723L467.617 178.351Z" fill="#FF9A6C"/>
<path d="M453.504 142.584C453.624 143.668 454.587 144.391 455.671 144.391C456.755 144.27 457.598 143.427 457.478 142.344C457.357 141.26 456.394 140.537 455.31 140.537C454.226 140.658 453.383 141.501 453.504 142.584Z" fill="#0E314C"/>
<path d="M452.752 137.767C452.992 138.008 454.438 136.683 456.605 136.443C458.773 136.081 460.459 137.045 460.7 136.683C460.82 136.563 460.459 136.081 459.736 135.72C459.014 135.359 457.81 134.997 456.485 135.118C455.16 135.359 454.076 135.961 453.474 136.563C452.752 137.165 452.631 137.647 452.752 137.767Z" fill="#0E314C"/>
<path d="M472.558 140.176C472.679 141.26 473.642 141.982 474.726 141.982C475.81 141.862 476.653 141.019 476.532 139.935C476.412 138.851 475.449 138.129 474.365 138.129C473.281 138.249 472.438 139.212 472.558 140.176Z" fill="#0E314C"/>
<path d="M473.356 134.757C473.597 134.998 475.042 133.673 477.21 133.432C479.377 133.071 481.063 134.034 481.304 133.673C481.425 133.553 481.063 133.071 480.341 132.71C479.618 132.348 478.414 131.987 477.089 132.107C475.764 132.348 474.681 132.95 474.079 133.553C473.356 134.155 473.115 134.636 473.356 134.757Z" fill="#0E314C"/>
<path d="M468.371 151.617C468.371 151.496 467.046 151.496 464.758 151.496C464.156 151.496 463.674 151.496 463.554 151.135C463.313 150.774 463.554 150.171 463.674 149.449C464.036 148.004 464.397 146.559 464.758 145.114C466.203 138.851 467.167 133.794 466.926 133.673C466.685 133.673 465.24 138.611 463.795 144.873C463.434 146.438 463.072 147.883 462.831 149.328C462.711 149.931 462.47 150.774 462.831 151.496C463.072 151.857 463.434 152.098 463.795 152.219C464.156 152.339 464.517 152.219 464.758 152.219C467.046 151.857 468.371 151.737 468.371 151.617Z" fill="#0E314C"/>
<path d="M474.861 152.219C474.5 152.219 474.861 154.627 473.055 156.554C471.249 158.481 468.72 158.601 468.84 158.842C468.84 158.963 469.442 159.203 470.526 159.083C471.61 158.963 473.055 158.481 474.139 157.277C475.223 156.072 475.584 154.627 475.584 153.664C475.343 152.821 475.102 152.219 474.861 152.219Z" fill="#0E314C"/>
<path d="M472.527 128.615C472.889 129.097 474.695 128.374 476.863 128.133C479.151 127.772 481.078 128.133 481.198 127.531C481.319 127.29 480.837 126.809 479.994 126.447C479.151 126.086 477.947 125.845 476.502 125.966C475.177 126.086 473.973 126.688 473.37 127.29C472.648 127.772 472.287 128.374 472.527 128.615Z" fill="#0E314C"/>
<path d="M452.571 131.746C452.932 132.228 454.498 131.626 456.184 131.505C457.99 131.385 459.556 131.626 459.797 131.144C459.917 130.903 459.676 130.422 458.954 129.94C458.231 129.458 457.147 129.217 455.943 129.338C454.739 129.458 453.655 129.94 453.053 130.422C452.571 131.024 452.33 131.505 452.571 131.746Z" fill="#0E314C"/>
<path d="M449.405 123.919C449.405 123.919 451.934 114.646 455.908 112.117C460.725 108.986 463.616 114.285 468.312 112.237C473.009 110.19 477.585 107.179 483.004 110.311C489.026 113.682 486.858 116.934 487.942 123.076C492.638 148.124 498.178 154.627 497.937 142.585C497.937 141.26 501.429 139.815 501.189 134.155C500.948 126.929 500.105 118.259 497.817 113.442C495.89 109.347 493.12 106.698 488.303 104.048C480.716 99.8335 471.323 100.917 464.94 102.483C458.799 104.048 447.479 113.08 449.405 123.919Z" fill="#0E314C"/>
<path d="M497.132 142.464C496.891 140.297 498.577 138.37 500.745 138.249C503.394 138.129 506.526 139.213 507.007 144.632C507.971 154.266 498.096 153.182 498.096 152.941C498.096 152.7 497.494 146.438 497.132 142.464Z" fill="#FFBF9D"/>
<path d="M499.764 149.087C499.764 149.087 499.885 149.208 500.246 149.328C500.487 149.449 500.969 149.449 501.45 149.208C502.414 148.726 503.136 147.04 503.016 145.354C502.895 144.511 502.655 143.668 502.293 142.946C501.932 142.223 501.45 141.862 500.848 141.741C500.366 141.621 500.005 141.982 499.885 142.344C499.764 142.584 499.885 142.825 499.764 142.825C499.764 142.825 499.523 142.705 499.523 142.223C499.523 141.982 499.644 141.741 499.885 141.621C500.126 141.38 500.366 141.26 500.728 141.26C501.45 141.26 502.173 141.862 502.655 142.584C503.136 143.307 503.377 144.27 503.498 145.234C503.618 147.161 502.775 149.087 501.45 149.569C500.848 149.81 500.246 149.69 499.885 149.449C499.885 149.328 499.764 149.087 499.764 149.087Z" fill="#FF9A6C"/>
<path d="M494.462 123.918C493.378 124.882 492.174 125.966 490.608 126.327C489.163 126.688 487.356 126.086 486.875 124.641C486.634 124.039 486.754 123.196 486.273 122.714C485.67 122.112 484.707 122.473 483.985 122.714C481.215 123.316 478.084 121.751 477.12 119.222C476.518 120.426 474.832 120.546 473.748 119.944C472.544 119.342 471.701 118.379 470.738 117.536C469.774 116.693 468.45 115.97 467.245 116.332C466.523 116.572 465.921 117.054 465.198 117.054C463.873 117.054 463.151 115.729 462.79 114.525C462.428 113.321 462.067 111.876 460.983 111.274C459.899 110.792 458.695 111.274 457.491 111.635C456.407 111.996 454.841 111.876 454.36 110.792C454.119 110.19 454.239 109.588 454.601 108.986C455.805 106.457 458.936 105.011 461.585 105.734C462.067 102.483 464.716 99.5923 467.968 98.8697C471.219 98.1472 474.832 99.4719 476.759 102.121C478.565 100.074 481.335 98.8698 484.105 99.1106C486.875 99.3515 489.404 101.037 490.728 103.446C493.016 102.483 495.786 103.085 497.472 104.771C499.158 106.457 499.76 109.226 498.917 111.514C500.724 112.237 502.41 113.803 502.771 115.729C503.012 117.656 501.446 119.944 499.399 119.703C500.363 121.149 500.001 123.316 498.677 124.4C497.352 125.484 495.064 125.243 493.98 123.918" fill="#0E314C"/>
<path d="M421.348 426.55L431.103 455.813C431.103 455.813 404.609 475.563 405.813 481.103L463.257 464.243L450.01 417.999L421.348 426.55Z" fill="#00B1E0"/>
<g opacity="0.1">
<path d="M421.348 426.55L431.103 455.813C431.103 455.813 404.609 475.563 405.813 481.103L463.257 464.243L450.01 417.999L421.348 426.55Z" fill="black"/>
</g>
<path d="M448.248 448.106C449.453 448.106 450.536 449.069 450.657 450.273C450.777 451.478 449.693 452.682 448.489 452.682C447.285 452.682 445.84 451.478 445.96 450.394C446.081 449.189 447.285 447.865 448.489 448.106" fill="#E1E1E1"/>
<path d="M463.375 464.363L461.81 459.787L407.257 477.61C407.257 477.61 404.969 479.417 405.811 481.223L463.375 464.363Z" fill="#235F87"/>
<path d="M430.147 455.813C430.268 456.054 431.713 455.813 433.278 456.295C434.964 456.776 436.048 457.74 436.289 457.619C436.53 457.499 435.566 455.933 433.639 455.331C431.592 454.729 430.027 455.572 430.147 455.813Z" fill="#1A2E35"/>
<path d="M424.819 460.028C424.819 460.269 426.143 460.389 427.468 461.352C428.793 462.195 429.395 463.4 429.636 463.4C429.876 463.4 429.636 461.714 427.95 460.509C426.384 459.426 424.698 459.787 424.819 460.028Z" fill="#1A2E35"/>
<path d="M423.508 468.337C423.749 468.337 423.749 466.772 422.545 465.447C421.34 464.122 419.895 463.881 419.775 464.122C419.654 464.363 420.738 464.965 421.702 466.049C422.785 467.133 423.267 468.337 423.508 468.337Z" fill="#1A2E35"/>
<path d="M428.689 448.828C428.93 449.069 430.014 448.226 431.7 447.985C433.266 447.624 434.711 447.745 434.831 447.504C434.952 447.263 433.386 446.54 431.58 447.022C429.532 447.383 428.449 448.708 428.689 448.828Z" fill="#1A2E35"/>
<path d="M404.974 442.205L406.178 473.034C406.178 473.034 375.228 484.595 374.867 490.375L434.839 490.134L434.96 441.964L404.974 442.205Z" fill="#00B1E0"/>
<path d="M424.725 470.384C425.929 470.746 426.652 471.95 426.411 473.154C426.17 474.358 424.845 475.201 423.641 474.84C422.437 474.599 421.473 473.034 421.835 471.83C422.196 470.746 423.882 469.782 424.845 470.384" fill="#E1E1E1"/>
<path d="M434.902 490.134L434.661 485.317L377.338 487.365C377.338 487.365 374.689 488.569 374.93 490.375L434.902 490.134Z" fill="#235F87"/>
<path d="M405.178 472.672C405.178 472.913 406.623 473.034 408.068 473.997C409.513 474.84 410.235 476.165 410.597 476.044C410.838 476.044 410.476 474.238 408.67 473.154C406.864 472.07 405.057 472.432 405.178 472.672Z" fill="#0E314C"/>
<path d="M398.914 475.322C398.793 475.563 400.118 476.045 401.082 477.369C402.165 478.574 402.406 479.898 402.647 479.898C402.888 479.898 403.129 478.212 401.804 476.767C400.6 475.202 398.914 475.081 398.914 475.322Z" fill="#0E314C"/>
<path d="M395.334 482.909C395.575 483.03 396.057 481.464 395.214 479.898C394.491 478.333 393.046 477.61 392.926 477.851C392.805 478.092 393.648 478.935 394.25 480.26C394.973 481.584 395.093 482.789 395.334 482.909Z" fill="#0E314C"/>
<path d="M405.711 465.688C405.831 465.929 407.156 465.568 408.842 465.688C410.528 465.808 411.732 466.29 411.973 466.049C412.093 465.808 410.889 464.725 408.962 464.604C406.915 464.484 405.59 465.447 405.711 465.688Z" fill="#0E314C"/>
<path d="M476.409 288.541C476.409 288.541 404.635 307.207 395.723 319.611C388.136 330.088 427.757 437.508 427.757 437.508L458.947 434.859L445.459 345.021L525.904 319.491L513.741 288.541H476.409Z" fill="#0E2B5C"/>
<path d="M471.225 305.28C471.225 305.28 397.765 323.103 390.419 335.748C386.926 341.649 389.215 361.038 390.539 370.311C391.382 376.452 404.388 462.918 404.388 462.918H436.181L435.458 365.253L511.688 349.838C511.688 349.838 552.633 352.969 554.198 335.507L537.098 312.386L496.755 292.395L471.225 305.28Z" fill="#0E2B5C"/>
<path d="M476.886 303.113C476.886 303.113 476.525 303.233 475.802 303.354C475.079 303.594 473.996 303.835 472.671 304.197C469.901 304.919 465.927 306.123 460.749 307.568C455.57 309.014 449.188 310.82 441.842 312.988C434.496 315.155 426.186 317.805 417.154 321.177C412.578 322.863 408.002 324.789 403.185 326.957C401.981 327.559 400.776 328.041 399.572 328.643C398.368 329.245 397.164 329.847 395.959 330.57C394.755 331.292 393.671 332.135 392.587 333.099C391.504 334.062 390.54 335.146 389.938 336.471C387.409 347.67 388.975 360.074 390.781 372.599C391.624 378.981 392.587 385.364 393.551 391.987C394.514 398.611 395.598 405.354 396.562 412.219C398.609 425.947 400.776 440.158 402.944 454.729C403.305 457.499 403.787 460.269 404.148 462.918V463.159H404.389C415.228 463.159 425.825 463.159 436.182 463.159H436.423V462.918C436.182 425.947 435.82 392.469 435.7 365.253L435.58 365.493C458.34 360.917 476.886 357.064 489.771 354.535C496.154 353.21 501.212 352.247 504.584 351.524C506.27 351.163 507.594 350.922 508.437 350.681C509.28 350.44 509.762 350.44 509.762 350.44C509.762 350.44 509.28 350.561 508.437 350.681C507.594 350.801 506.27 351.042 504.584 351.404C501.212 352.126 496.154 353.09 489.771 354.294C476.886 356.823 458.34 360.556 435.58 365.132H435.459V365.253C435.58 392.348 435.82 425.827 436.061 462.918L436.302 462.677C425.946 462.677 415.348 462.677 404.51 462.677L404.751 462.918C404.389 460.148 403.908 457.499 403.546 454.729C401.379 440.158 399.211 425.947 397.164 412.219C396.08 405.354 395.116 398.611 394.153 391.987C393.19 385.364 392.106 378.981 391.383 372.599C390.902 369.467 390.54 366.336 390.059 363.205C389.577 360.074 389.336 357.064 389.216 354.053C389.095 351.042 389.095 348.032 389.216 345.141C389.216 343.696 389.336 342.251 389.456 340.806C389.577 339.361 389.577 337.916 390.299 336.712C390.902 335.507 391.865 334.423 392.828 333.46C393.792 332.497 394.996 331.654 396.08 330.931C397.284 330.209 398.368 329.486 399.572 329.004C400.776 328.402 401.981 327.92 403.185 327.318C408.002 325.151 412.699 323.224 417.154 321.538C426.186 318.046 434.496 315.517 441.842 313.228C449.188 311.061 455.57 309.254 460.749 307.689C465.927 306.244 469.901 305.04 472.671 304.197C473.996 303.835 475.079 303.474 475.802 303.233C476.525 303.233 476.886 303.113 476.886 303.113Z" fill="#235F87"/>
<path d="M466.642 192.682C466.642 192.682 457.49 196.415 452.311 209.06C448.699 217.971 428.347 246.031 428.347 246.031L374.275 258.073L372.469 275.294L459.055 274.572L471.098 236.276L466.642 192.682Z" fill="#FC5546"/>
<path d="M468.817 187.865L460.508 197.017L477.849 285.892L473.153 289.264L554.44 335.628C554.44 335.628 560.823 299.379 557.571 274.933C554.44 250.727 546.131 223.27 536.978 201.955C533.125 193.043 521.805 184.493 512.893 180.76L500.73 177.388L469.66 194.729L468.817 187.865Z" fill="#FC5546"/>
<g opacity="0.3">
<path d="M510.839 311.422C510.477 307.207 510.236 303.113 509.875 298.898C510.839 299.741 512.043 300.343 513.368 300.463C511.32 298.536 509.514 296.369 507.948 293.96C509.153 294.442 510.357 295.044 511.682 295.526C510.357 294.562 509.273 293.238 508.55 291.793C510.477 290.227 513.368 290.468 515.896 290.709C528.782 292.033 541.668 291.19 554.553 290.227C555.517 290.107 557.444 289.745 558.286 289.143C558.286 289.143 558.527 285.651 557.925 284.326C557.323 283.001 556.48 283.363 555.155 282.881C553.831 282.399 552.386 282.279 550.94 282.279C535.285 281.436 519.509 282.761 503.854 284.085C502.89 284.206 501.807 284.326 501.084 284.928C499.759 286.012 499.88 287.939 500.121 289.504C500.964 295.405 501.686 301.186 502.529 307.087" fill="black"/>
</g>
<path d="M463.273 198.703C463.273 198.703 463.273 198.944 463.394 199.546C463.514 200.148 463.635 200.871 463.755 201.834C463.996 203.761 464.478 206.531 465.08 210.023C466.284 216.887 468.09 226.401 470.379 236.878C472.546 247.355 474.714 256.869 476.159 263.613C476.882 266.985 477.604 269.755 478.086 271.681C478.327 272.645 478.447 273.367 478.568 273.849C478.688 274.331 478.808 274.572 478.808 274.572C478.808 274.572 478.808 274.331 478.688 273.849C478.568 273.247 478.447 272.524 478.206 271.681C477.845 269.755 477.243 266.985 476.52 263.492C475.075 256.628 473.028 247.114 470.86 236.637C468.693 226.16 466.766 216.647 465.441 209.782C464.839 206.41 464.237 203.641 463.876 201.593C463.755 200.63 463.514 199.907 463.394 199.426C463.394 198.944 463.394 198.703 463.273 198.703Z" fill="white"/>
<path d="M536.858 317.564C536.858 317.564 536.737 317.323 536.376 317.082C536.015 316.721 535.533 316.239 534.931 315.757C534.329 315.155 533.486 314.433 532.522 313.71C531.559 312.988 530.475 312.024 529.271 311.061C526.862 309.134 523.852 306.966 520.48 304.678C517.108 302.39 513.254 300.102 509.16 297.934C504.945 295.767 500.971 293.96 497.117 292.395C493.384 290.829 489.892 289.625 487.001 288.782C485.556 288.3 484.231 287.939 483.027 287.578C481.823 287.216 480.86 286.976 480.017 286.735C479.174 286.494 478.571 286.373 478.09 286.253C477.608 286.133 477.367 286.133 477.367 286.133C477.367 286.133 477.608 286.253 477.969 286.373C478.451 286.494 479.053 286.735 479.896 286.976C480.739 287.216 481.703 287.457 482.907 287.819C484.111 288.18 485.436 288.541 486.881 289.023C489.771 289.986 493.263 291.19 496.997 292.756C500.73 294.322 504.824 296.128 508.919 298.296C513.013 300.463 516.867 302.751 520.239 305.039C523.611 307.328 526.621 309.375 529.03 311.302C530.234 312.265 531.318 313.108 532.282 313.831C533.245 314.553 534.088 315.276 534.69 315.757C535.292 316.239 535.774 316.721 536.256 316.962C536.617 317.443 536.737 317.684 536.858 317.564Z" fill="white"/>
<path d="M495.072 286.976C494.951 287.096 502.899 291.552 512.774 296.85C522.649 302.149 530.597 306.485 530.718 306.244C530.838 306.123 522.89 301.668 513.015 296.369C503.14 291.07 495.192 286.855 495.072 286.976Z" fill="white"/>
<g opacity="0.3">
<path d="M523.609 222.788C518.551 244.586 503.137 264.095 482.664 273.006C496.272 258.555 511.085 240.371 523.609 222.788Z" fill="black"/>
</g>
<path d="M375.26 258.916C374.778 258.194 368.757 251.209 367.071 251.209C365.385 251.209 363.579 253.015 363.579 253.015C363.579 253.015 361.532 252.052 360.086 252.534C358.641 253.015 352.138 258.555 352.138 260.723C352.138 262.89 352.138 264.215 352.138 264.215C352.138 264.215 351.897 265.419 352.138 266.985C352.379 268.671 356.353 271.441 356.353 271.441H378.752C378.752 271.441 383.088 268.55 382.486 265.901C381.884 263.131 375.26 258.916 375.26 258.916Z" fill="#FFBF9D"/>
<path d="M363.576 253.015C363.576 253.015 363.095 253.256 362.131 253.858C361.168 254.46 359.964 255.303 358.398 256.146C358.037 256.387 357.555 256.628 357.194 256.989C356.832 257.351 356.471 257.832 356.23 258.435C355.989 259.037 356.11 259.639 355.99 260.121C355.99 260.723 355.869 261.325 355.869 261.927C355.749 264.335 355.628 267.105 355.508 269.875C355.508 270.357 355.508 270.718 355.508 271.2V271.441H355.749C356.23 271.561 356.712 271.681 357.073 271.802C357.675 271.802 358.398 271.561 358.88 271.2C359.361 270.838 359.723 270.357 359.964 269.875C360.566 268.912 360.927 267.828 361.168 266.864C361.65 264.938 361.89 263.011 361.89 261.445L361.77 261.566C363.335 260.963 364.66 260.361 365.624 260C366.587 259.639 367.069 259.398 367.069 259.398C367.069 259.398 366.587 259.518 365.624 259.88C364.54 260.241 363.215 260.723 361.65 261.325H361.529V261.445C361.409 263.011 361.168 264.817 360.686 266.744C360.445 267.707 360.084 268.671 359.482 269.634C359 270.477 358.157 271.32 357.073 271.32H357.194C356.712 271.2 356.23 271.079 355.869 270.959L356.11 271.2C356.11 270.838 356.11 270.357 356.11 269.875C356.23 267.105 356.351 264.335 356.471 261.927C356.471 261.325 356.471 260.723 356.592 260.121C356.592 259.518 356.592 259.037 356.712 258.555C356.833 258.073 357.073 257.592 357.435 257.351C357.796 256.989 358.157 256.749 358.639 256.508C360.084 255.544 361.288 254.701 362.252 253.979C363.095 253.497 363.576 253.136 363.576 253.015Z" fill="#FF9A6C"/>
<path d="M378.754 270.718C378.754 270.718 378.273 270.597 377.309 270.477C376.225 270.357 374.901 270.236 373.215 270.116C371.89 270.477 370.324 270.718 368.638 270.959C367.796 271.079 366.832 271.2 365.989 271.2C365.146 271.2 364.062 271.2 363.581 270.477C363.34 270.116 363.219 269.634 363.219 269.152C363.219 268.671 363.34 268.189 363.34 267.587C363.34 267.226 363.581 266.744 363.942 266.383C364.303 266.021 364.664 265.78 365.026 265.54C366.712 264.576 368.398 264.576 369.843 264.697C371.288 264.697 372.492 264.094 372.974 263.372C373.456 262.649 373.456 262.168 373.335 262.168C373.335 262.168 373.215 262.649 372.733 263.251C372.251 263.854 371.167 264.335 369.722 264.215C368.277 264.094 366.471 264.094 364.664 265.058C364.183 265.299 363.821 265.54 363.46 266.021C363.099 266.383 362.738 266.864 362.738 267.466C362.738 267.948 362.617 268.43 362.617 269.032C362.617 269.634 362.738 270.236 363.099 270.718C363.46 271.2 364.062 271.44 364.544 271.561C365.026 271.681 365.507 271.681 365.989 271.681C366.953 271.681 367.916 271.561 368.759 271.44C370.445 271.2 372.01 270.838 373.456 270.477H373.335C375.021 270.477 376.346 270.597 377.43 270.597C378.152 270.718 378.754 270.718 378.754 270.718Z" fill="#FF9A6C"/>
<path d="M355.859 270.597C355.979 270.477 355.016 268.791 354.053 266.503C353.089 264.215 352.126 262.529 352.005 262.529C351.885 262.529 352.607 264.456 353.571 266.744C354.534 269.032 355.739 270.718 355.859 270.597Z" fill="#FF9A6C"/>
<path d="M524.81 221.223C524.81 221.223 485.31 274.933 479.169 274.933C473.027 274.933 421.484 274.933 421.484 274.933V253.136L465.079 242.9C465.079 242.9 486.515 198.462 491.332 192.802C496.028 187.142 508.793 179.435 518.307 187.985C527.821 196.415 524.81 221.223 524.81 221.223Z" fill="#FC5546"/>
<path d="M421.602 255.183L412.209 254.46C412.209 254.46 411.968 250.968 409.921 249.764C407.874 248.559 408.114 245.79 406.79 246.031C405.585 246.271 404.742 246.031 404.742 246.031L396.915 239.407L390.291 235.072L385.113 233.988C385.113 233.988 381.982 234.831 385.113 237.721L388.364 239.528L391.255 242.418L384.631 239.166C384.029 238.805 383.307 238.805 382.704 239.166C381.139 239.889 378.369 241.213 377.647 242.056C376.563 243.14 377.647 244.104 377.647 244.104L374.756 246.633C374.756 246.633 374.154 249.884 377.406 249.162L380.055 248.559L383.547 252.052C383.547 252.052 371.625 249.523 370.782 250.005C369.939 250.366 368.976 252.293 370.782 253.979C372.589 255.665 379.814 255.183 381.5 256.869C383.186 258.555 394.025 268.43 396.794 269.152C399.444 269.754 421.482 275.174 421.482 275.174L421.602 255.183Z" fill="#FFBF9D"/>
<path d="M374.766 246.633C374.766 246.633 375.368 246.151 376.331 245.429C376.813 245.067 377.415 244.586 378.138 244.224C378.499 243.983 378.86 243.743 379.221 243.502C379.583 243.261 379.944 243.02 380.305 243.02C381.148 243.02 381.871 243.622 382.593 243.983C383.316 244.345 383.918 244.706 384.52 245.067C385.604 245.669 386.206 246.031 386.327 246.031C386.327 246.031 385.845 245.428 384.761 244.706C384.279 244.345 383.677 243.983 382.955 243.502C382.593 243.261 382.232 243.14 381.871 242.9C381.509 242.659 381.028 242.538 380.426 242.418C380.305 242.418 380.185 242.418 379.944 242.418C379.824 242.418 379.703 242.538 379.583 242.538C379.342 242.659 379.221 242.779 378.981 242.9C378.619 243.14 378.258 243.381 377.897 243.622C377.295 244.104 376.692 244.586 376.211 244.947C375.247 245.91 374.766 246.512 374.766 246.633Z" fill="#FF9A6C"/>
<path d="M403.784 245.188C403.663 245.308 404.627 246.151 405.831 247.235C406.915 248.319 407.878 249.282 407.999 249.162C408.119 249.041 407.396 247.957 406.192 246.874C404.988 245.669 403.904 245.067 403.784 245.188Z" fill="#FF9A6C"/>
<path d="M491.346 192.682C491.346 192.682 490.382 193.766 489.058 196.054C487.733 198.342 485.806 201.714 483.518 206.049C478.822 214.72 472.439 227.365 464.973 242.779L465.093 242.659C452.207 245.669 437.395 249.162 421.499 252.895H421.258V253.136C421.258 260.12 421.258 267.466 421.258 274.933V275.174H421.499C422.342 275.174 423.185 275.174 424.148 275.174C441.489 275.174 458.108 275.174 473.161 275.174C475.088 275.174 476.895 275.174 478.701 275.174C478.942 275.174 479.183 275.174 479.424 275.174C479.665 275.174 479.905 275.053 480.146 274.933C480.628 274.692 480.989 274.451 481.35 274.21C482.073 273.729 482.796 273.126 483.398 272.524C486.047 270.116 488.335 267.466 490.623 265.058C495.079 260 498.933 255.183 502.545 250.727C509.651 241.816 515.19 234.47 518.923 229.291C520.85 226.762 522.295 224.715 523.259 223.39C523.74 222.668 524.102 222.186 524.343 221.825C524.102 222.186 523.74 222.668 523.138 223.39C522.055 224.715 520.609 226.762 518.683 229.291C514.829 234.349 509.289 241.695 502.064 250.607C498.451 255.063 494.597 259.88 490.142 264.937C487.974 267.466 485.565 269.995 482.916 272.404C482.314 273.006 481.591 273.608 480.869 274.09C480.507 274.331 480.146 274.572 479.785 274.812C479.424 275.053 479.062 275.053 478.581 275.053C476.774 275.053 474.847 275.053 473.041 275.053C457.988 275.053 441.369 275.053 424.028 275.053C423.185 275.053 422.221 275.053 421.378 275.053L421.619 275.294C421.619 267.828 421.619 260.482 421.619 253.497L421.378 253.738C437.274 250.005 452.087 246.512 464.973 243.381H465.093V243.261C472.559 227.846 478.822 215.201 483.398 206.41C485.686 202.075 487.613 198.703 488.937 196.415C489.66 195.331 490.142 194.368 490.503 193.886C491.225 192.923 491.346 192.682 491.346 192.682Z" fill="white"/>
<path d="M497.109 189.19C497.109 189.31 498.434 188.708 500.722 188.226C501.806 187.985 503.131 187.744 504.696 187.624C506.141 187.504 507.827 187.504 509.513 187.624C511.199 187.744 512.885 188.106 514.33 188.467C515.775 188.828 517.1 189.31 518.064 189.792C520.111 190.755 521.315 191.478 521.435 191.357C521.435 191.357 521.195 191.116 520.592 190.755C520.111 190.394 519.268 189.912 518.184 189.43C517.1 188.949 515.896 188.467 514.451 187.985C513.006 187.624 511.32 187.263 509.634 187.022C507.827 186.901 506.141 186.901 504.696 187.022C503.131 187.142 501.806 187.383 500.722 187.744C499.638 188.106 498.675 188.347 498.193 188.587C497.35 188.949 497.109 189.069 497.109 189.19Z" fill="white"/>
<path d="M473.02 252.775C473.14 252.775 472.177 250.246 470.129 247.717C468.082 245.188 465.915 243.622 465.794 243.743C465.674 243.863 467.721 245.549 469.648 248.078C471.695 250.486 472.899 252.775 473.02 252.775Z" fill="white"/>
<path d="M474.358 246.031C474.478 245.91 472.912 244.585 470.624 243.863C468.336 243.02 466.289 243.02 466.289 243.261C466.289 243.381 468.216 243.622 470.384 244.465C472.672 245.067 474.358 246.151 474.358 246.031Z" fill="white"/>
<path d="M570.464 286.976L508.565 289.143C507.601 289.143 506.999 289.986 507.12 290.95L516.031 365.132H502.062L494.836 283.363C494.475 280.593 496.643 278.064 499.413 277.944L572.15 275.294L570.464 286.976Z" fill="#235F87"/>
<path d="M413.778 275.294L332.972 276.378L307.08 203.52C306.478 201.955 307.201 200.269 308.646 199.667C310.211 198.944 312.138 199.787 312.74 201.353L338.391 270.357L413.778 271.079C414.982 271.079 415.825 272.043 415.825 273.127C415.945 274.451 414.982 275.294 413.778 275.294Z" fill="#E1E1E1"/>
<path d="M413.78 275.294C413.78 275.294 414.382 275.415 415.105 274.692C415.466 274.331 415.827 273.849 415.827 273.127C415.827 272.404 415.346 271.561 414.382 271.32C413.901 271.2 413.419 271.2 412.937 271.2C412.456 271.2 411.853 271.2 411.251 271.2C410.047 271.2 408.722 271.2 407.398 271.2C404.628 271.2 401.376 271.2 397.764 271.2C383.433 271.079 362.84 270.959 338.273 270.718H338.032L337.912 270.598C333.938 259.88 329.602 248.198 324.906 235.794C322.618 229.653 320.209 223.27 317.801 216.767C316.596 213.516 315.392 210.264 314.188 206.892C313.586 205.206 312.984 203.52 312.381 201.955C312.141 201.112 311.659 200.51 310.936 200.148C310.214 199.787 309.371 199.787 308.648 200.148C308.407 200.269 308.046 200.51 307.805 200.63C307.203 201.232 306.842 202.075 306.962 202.918C306.962 203.279 307.203 203.761 307.323 204.122L307.805 205.447C308.407 207.133 309.009 208.939 309.612 210.625C310.816 214.118 312.02 217.49 313.224 220.862C315.633 227.605 317.921 234.229 320.209 240.611C324.785 253.377 329.121 265.54 332.974 276.619L332.733 276.498C356.939 276.258 377.171 276.017 391.261 275.776C398.366 275.655 403.905 275.655 407.638 275.655C409.565 275.655 411.01 275.655 411.974 275.655C412.456 275.655 412.817 275.655 413.058 275.655C413.66 275.294 413.78 275.294 413.78 275.294C413.78 275.294 413.66 275.294 413.419 275.294C413.178 275.294 412.817 275.294 412.335 275.294C411.372 275.294 409.927 275.294 408 275.415C404.146 275.535 398.607 275.535 391.622 275.655C377.412 275.896 357.3 276.137 333.095 276.498H332.854L332.733 276.258C328.759 265.178 324.424 253.136 319.848 240.25C317.56 233.868 315.151 227.244 312.863 220.5C311.659 217.128 310.455 213.756 309.25 210.264C308.648 208.578 308.046 206.772 307.444 205.086L306.962 203.761C306.842 203.4 306.601 202.918 306.601 202.316C306.481 201.353 306.842 200.269 307.564 199.546C307.805 199.305 308.166 199.064 308.528 198.824C309.491 198.462 310.575 198.462 311.418 198.944C312.261 199.305 312.984 200.269 313.224 201.112C313.827 202.798 314.429 204.484 315.031 206.049C316.235 209.421 317.439 212.673 318.644 215.924C321.052 222.427 323.461 228.81 325.749 234.951C330.325 247.355 334.66 259.037 338.634 269.755L338.393 269.634C362.96 269.875 383.433 270.116 397.884 270.357C401.497 270.357 404.628 270.477 407.518 270.477C408.963 270.477 410.167 270.477 411.372 270.477C411.974 270.477 412.576 270.477 413.058 270.477C413.539 270.477 414.141 270.477 414.623 270.598C415.587 270.959 416.068 271.802 416.068 272.645C416.068 273.367 415.707 273.969 415.346 274.331C414.382 275.535 413.78 275.294 413.78 275.294Z" fill="#0E314C"/>
<path d="M308.299 481.584C306.613 480.139 303 475.683 305.77 470.505C306.854 468.578 309.021 467.615 310.948 466.772C312.996 465.929 315.043 465.206 316.729 463.761C319.86 461.112 320.703 456.656 322.75 453.164C325.159 449.069 329.494 446.059 334.191 446.299C339.61 446.54 344.065 450.876 345.992 455.934C348.04 460.871 348.04 466.411 348.16 471.83C348.16 474.84 348.04 478.212 345.872 480.139C343.825 481.946 340.814 482.066 338.044 481.946C328.29 481.705 318.535 481.343 308.781 481.103" fill="#F5F5F5"/>
<path d="M364.276 401.019H287.203L301.052 483.752C301.654 487.365 304.304 490.135 307.676 491.098C307.796 491.098 307.796 491.098 307.916 491.218C308.157 491.218 308.398 491.339 308.639 491.339C309.121 491.459 309.723 491.459 310.205 491.459C310.205 491.459 310.205 491.459 310.205 491.58H310.566H344.887C345.489 491.58 346.212 491.459 346.814 491.339C350.909 490.737 354.16 487.485 354.642 483.27L361.386 426.309L361.747 424.021L364.396 401.501L364.276 401.019ZM349.825 453.766H341.877L342.72 429.801H351.872L349.825 453.766ZM352.595 429.801H360.181L357.412 453.766H350.668L352.595 429.801ZM330.075 480.38L329.593 459.546H341.034L340.311 480.38H330.075ZM317.791 459.546H328.871L329.352 480.38H319.477L317.791 459.546ZM318.634 480.38H309.362C308.519 474.72 307.314 467.374 306.11 459.546H317.069L318.634 480.38ZM317.31 453.766L315.503 429.801H328.148L328.75 453.766H317.31ZM329.473 453.766L328.871 429.801H341.877L341.034 453.766H329.473ZM328.75 424.021L328.268 401.742H342.84L342.117 424.021H328.75ZM328.028 424.021H315.022L313.336 401.742H327.546L328.028 424.021ZM314.179 424.021H300.45C299.968 421.01 299.487 417.999 299.125 415.47C297.68 406.438 297.198 403.067 296.837 401.862H312.493L314.179 424.021ZM314.66 429.801L316.467 453.766H305.147C304.785 451.357 304.424 448.828 303.942 446.42C303.099 440.76 302.136 435.1 301.293 429.801H314.66ZM304.424 453.766H296.958L292.984 429.801H300.691C301.775 437.268 303.099 445.457 304.424 453.766ZM305.267 459.546C306.351 466.772 307.555 473.877 308.519 480.38H301.413L297.921 459.546H305.267ZM341.034 480.38L341.756 459.546H349.343L347.537 480.38H341.034ZM342.84 424.021L343.563 401.742H354.16L352.233 424.021H342.84ZM296.115 401.862C296.476 403.428 297.801 412.219 299.727 424.141H292.02L288.287 401.862H296.115ZM354.281 480.38H348.38L350.186 459.546H356.809L354.281 480.38ZM360.904 424.021H353.197L355.123 401.742H363.553L360.904 424.021Z" fill="#B7B7B7"/>
<path d="M594.784 491.339C594.784 491.459 463.76 491.7 302.268 491.7C140.656 491.7 9.63281 491.58 9.63281 491.339C9.63281 491.218 140.656 490.977 302.268 490.977C463.76 490.977 594.784 491.218 594.784 491.339Z" fill="#0E314C"/>
<path d="M84.3126 353.09H27.9531V207.856C27.9531 200.148 34.2153 193.886 41.9226 193.886H84.3126V353.09Z" fill="#235F87"/>
<path d="M40.4674 350.681C40.347 350.681 40.2266 316.119 40.2266 273.608C40.2266 230.977 40.347 196.536 40.4674 196.536C40.5878 196.536 40.7083 231.098 40.7083 273.608C40.7083 316.119 40.5878 350.681 40.4674 350.681Z" fill="#0E314C"/>
<path d="M99.3535 379.463C123.92 378.62 148.849 366.698 148.849 366.698L42.6328 367.661C42.6328 367.661 64.0687 377.295 88.3948 379.222V408.967H84.3003V404.632H78.8811V419.324H84.3003V414.989H88.3948V475.202H45.523V481.945H88.3948H99.2331H142.105V475.202H99.3535V379.463Z" fill="#FC5546"/>
<path d="M167.286 370.07H37.5872C32.2885 370.07 27.9531 365.734 27.9531 360.436V352.728H167.286V370.07Z" fill="#235F87"/>
<path d="M163.783 362.964C162.94 361.279 160.893 360.436 159.087 359.833C122.718 348.152 83.7001 342.492 46.1271 349.356C41.5509 350.199 36.9747 351.283 33.3619 354.173C29.7492 357.064 27.5815 362.242 29.5083 366.336L37.2156 368.865C75.6315 364.53 114.65 364.891 153.066 369.708C155.594 370.07 158.364 370.31 160.773 369.347C163.181 368.263 164.988 365.373 163.783 362.964Z" fill="#235F87"/>
<path d="M121.628 350.922C121.628 350.922 121.508 350.922 121.387 350.922C121.146 350.922 120.906 350.922 120.665 350.801C120.063 350.681 119.099 350.561 118.015 350.44C115.727 350.079 112.355 349.477 108.14 348.995C99.7106 348.032 88.0292 347.068 75.1436 347.429C71.8921 347.55 68.761 347.67 65.7504 347.911C62.7397 348.152 59.8495 348.272 56.9593 348.513C56.598 348.513 56.2367 348.513 55.8754 348.513C55.5142 348.513 55.2733 348.513 54.912 348.513C54.3099 348.513 53.5873 348.634 52.9852 348.754C51.6605 348.995 50.4563 349.236 49.252 349.597C46.8435 350.079 44.5554 350.681 42.6286 351.404C38.6545 352.728 35.5234 354.294 33.5966 355.618C32.6332 356.221 31.9106 356.823 31.4289 357.184C31.1881 357.304 31.0676 357.545 30.8268 357.666C30.7064 357.786 30.5859 357.786 30.5859 357.786C30.5859 357.786 30.5859 357.666 30.7064 357.666C30.8268 357.545 31.0676 357.425 31.1881 357.184C31.6698 356.823 32.3923 356.221 33.3557 355.498C35.2826 354.173 38.2932 352.487 42.3877 351.163C44.4349 350.44 46.6026 349.838 49.0111 349.236C50.2154 348.995 51.5401 348.754 52.7444 348.393C53.3465 348.272 54.069 348.152 54.7916 348.032C55.1529 348.032 55.5142 348.032 55.8754 348.032C56.2367 348.032 56.4776 348.032 56.8388 348.032C59.6086 347.791 62.4989 347.55 65.63 347.309C68.6406 347.068 71.7717 346.948 75.0232 346.827C87.9088 346.466 99.7105 347.429 108.02 348.513C112.235 348.995 115.607 349.597 117.895 350.079C118.979 350.32 119.942 350.44 120.544 350.561C120.785 350.561 121.026 350.681 121.267 350.681C121.508 350.922 121.628 350.922 121.628 350.922Z" fill="#1A2E35"/>
<path d="M160.871 250.366H187.967L209.643 246.633L220.361 245.669L227.707 251.811C228.791 252.654 229.393 253.979 229.393 255.303L229.273 260.723L228.189 261.445L229.152 263.974C229.514 265.058 229.273 266.383 228.309 267.226L220.963 259.759L225.178 268.189C225.178 268.189 223.974 269.032 221.445 268.55C218.916 267.948 213.858 258.194 213.858 258.194L209.764 256.869L217.23 267.707C217.23 267.707 217.471 268.55 215.544 268.912C213.497 269.273 204.826 260.241 204.826 260.241C204.826 260.241 201.213 263.854 196.878 264.697C192.543 265.54 134.016 273.367 134.016 273.367L151.839 232.302L160.871 250.366Z" fill="#AB655C"/>
<path d="M225.06 267.948C224.94 267.948 224.337 266.865 223.494 265.179C222.531 263.372 221.327 260.964 220.002 258.194C219.4 256.869 218.557 255.665 217.473 255.183C216.269 254.701 215.185 254.22 214.222 253.859C212.415 253.136 211.211 252.654 211.211 252.534C211.211 252.413 212.415 252.775 214.342 253.497C215.305 253.858 216.389 254.099 217.714 254.701C219.039 255.304 220.002 256.628 220.604 257.953C221.929 260.723 223.133 263.131 223.976 264.938C224.699 266.865 225.18 267.948 225.06 267.948Z" fill="#814843"/>
<path d="M227.705 261.325C227.585 261.325 227.103 260.362 226.14 258.916C225.176 257.471 223.852 255.304 222.166 253.256C221.684 252.775 221.323 252.173 220.961 251.691C220.72 251.45 220.6 251.209 220.359 250.968L220.118 250.607L219.998 250.487H219.877C218.794 250.246 217.71 250.005 216.867 249.884C215.06 249.644 213.977 249.403 213.977 249.282C213.977 249.162 215.06 249.282 216.867 249.403C217.83 249.523 218.794 249.644 219.998 249.884H220.118C220.118 249.884 220.239 250.005 220.359 250.005C220.48 250.125 220.48 250.125 220.48 250.246L220.841 250.607C221.082 250.848 221.202 251.089 221.443 251.33C221.804 251.811 222.286 252.293 222.768 252.895C224.574 255.063 225.778 257.23 226.742 258.796C227.344 260.241 227.826 261.325 227.705 261.325Z" fill="#814843"/>
<path d="M188.461 260.723C188.461 260.723 188.943 260.964 189.906 261.204C190.869 261.445 192.194 261.686 193.88 261.325C194.723 261.084 195.566 260.843 196.409 260.241C197.252 259.639 197.975 258.916 198.938 258.194C199.901 257.471 201.106 256.869 202.31 256.628C203.514 256.267 204.839 256.026 205.923 255.424C206.525 255.183 207.127 254.822 207.609 254.461C207.85 254.34 208.09 254.099 208.331 253.858C208.452 253.738 208.572 253.618 208.572 253.618C208.572 253.497 208.572 253.497 208.572 253.497C208.572 253.377 208.211 253.377 207.97 253.377C207.609 253.377 207.368 253.377 207.007 253.377C206.404 253.377 205.802 253.377 205.2 253.377C202.912 253.256 200.865 253.256 199.058 253.136C197.372 253.015 196.048 253.015 194.844 252.895C193.88 252.775 193.278 252.775 193.278 252.775C193.278 252.775 193.88 252.654 194.844 252.654C195.927 252.654 197.372 252.654 199.058 252.654C200.865 252.654 202.912 252.654 205.2 252.775C205.802 252.775 206.404 252.775 207.007 252.775C207.368 252.775 207.609 252.775 207.97 252.775C208.211 252.775 208.693 252.654 209.054 253.136C209.295 253.377 209.295 253.738 209.174 253.858C209.054 254.099 208.933 254.22 208.813 254.34C208.572 254.581 208.331 254.701 207.97 254.942C207.368 255.304 206.886 255.665 206.164 256.026C204.959 256.628 203.635 256.99 202.43 257.23C201.226 257.471 200.142 257.953 199.299 258.675C198.456 259.398 197.613 260.121 196.65 260.723C195.807 261.325 194.844 261.686 193.88 261.807C192.074 262.168 190.629 261.807 189.665 261.445C189.183 261.204 188.822 261.084 188.581 260.964C188.581 260.843 188.461 260.843 188.461 260.723Z" fill="#814843"/>
<path d="M204.604 313.59C204.604 313.59 228.328 321.538 221.705 347.309C216.647 367.179 161.492 465.327 161.492 465.327L141.38 455.813L184.493 353.089L90.9219 343.937L128.013 288.059L204.604 313.59Z" fill="#FFBAB1"/>
<path d="M165.719 459.305L165.117 460.751C165.117 460.751 184.867 480.982 183.061 485.679L135.492 464.243L143.199 448.708C148.98 455.211 156.205 458.824 165.719 459.305Z" fill="#FC5546"/>
<g opacity="0.6">
<path d="M145.869 455.934C144.785 455.813 143.701 456.536 143.581 457.499C143.34 458.583 144.183 459.667 145.146 459.787C146.23 460.028 147.555 459.065 147.555 458.101C147.675 457.017 146.712 455.813 145.628 455.813" fill="white"/>
</g>
<path d="M135.594 464.243L137.521 460.51L182.44 482.427C182.44 482.427 184.125 484.354 183.283 485.679L135.594 464.243Z" fill="#0E2B5C"/>
<path d="M165.198 460.871C165.077 461.112 163.873 460.63 162.428 460.871C160.983 461.112 159.899 461.834 159.779 461.593C159.538 461.473 160.501 460.269 162.308 460.028C164.114 459.787 165.318 460.751 165.198 460.871Z" fill="#0E314C"/>
<path d="M169.338 465.206C169.338 465.447 168.134 465.447 166.929 466.049C165.725 466.651 165.003 467.615 164.762 467.494C164.521 467.374 165.003 466.049 166.568 465.206C168.013 464.484 169.458 464.965 169.338 465.206Z" fill="#0E314C"/>
<path d="M169.429 472.432C169.188 472.432 169.429 471.107 170.513 470.023C171.717 469.06 173.042 469.06 173.042 469.18C173.042 469.421 172.078 469.783 171.115 470.626C170.152 471.589 169.67 472.552 169.429 472.432Z" fill="#0E314C"/>
<path d="M65.8758 322.14C65.8758 322.14 187.988 316.48 195.575 318.527C203.282 320.574 207.858 324.549 209.303 333.821C210.869 343.094 234.352 466.531 234.352 466.531L212.916 472.914C212.916 472.914 182.93 403.428 181.605 391.746C180.281 380.065 176.066 356.341 176.066 356.341C176.066 356.341 129.702 357.064 95.5007 356.341C61.2996 355.618 65.8758 323.465 65.8758 323.465V322.14Z" fill="#FFBAB1"/>
<path d="M212.914 472.793L212.794 472.432C211.589 469.542 182.687 402.705 181.483 391.144C180.279 380.426 176.666 359.231 176.064 356.1C171.487 356.221 128.014 356.823 95.8598 356.1C85.2623 355.859 77.3142 352.608 72.1358 346.466C64.3081 337.073 65.7532 323.946 65.8737 322.863L65.6328 321.177H66.1145C71.052 320.936 188.347 315.517 195.934 317.564C204.484 319.852 208.579 324.428 210.024 333.219C211.589 342.372 234.832 464.604 235.072 465.929L235.193 466.29L212.914 472.793ZM176.786 355.257L176.907 355.619C176.907 355.859 181.122 379.583 182.446 391.144C183.65 402.103 211.108 466.17 213.516 471.709L234.109 465.568C232.543 457.62 210.626 342.251 209.181 333.34C207.856 324.91 203.882 320.575 195.693 318.407C188.467 316.48 75.2669 321.658 66.5962 322.02L66.7166 322.863V322.983C66.7166 323.103 64.9103 336.471 72.738 345.864C77.6754 351.885 85.5031 355.016 95.8598 355.257C129.579 355.98 175.943 355.257 176.425 355.257H176.786Z" fill="#814843"/>
<path d="M234.444 461.232L234.926 462.677C234.926 462.677 263.226 463.761 265.153 468.337L216.019 485.679L210.961 469.06C219.511 469.903 227.218 467.615 234.444 461.232Z" fill="#FC5546"/>
<g opacity="0.6">
<path d="M217.863 472.552C217.02 473.154 216.779 474.479 217.261 475.322C217.863 476.165 219.188 476.526 220.031 475.924C220.874 475.322 221.235 473.756 220.633 473.034C220.031 472.191 218.465 471.95 217.743 472.673" fill="white"/>
</g>
<path d="M216.056 485.679L214.852 481.705L262.42 466.651C262.42 466.651 264.949 466.892 265.19 468.458L216.056 485.679Z" fill="#0E2B5C"/>
<path d="M235.343 462.798C235.463 463.039 234.259 463.52 233.296 464.725C232.332 465.929 232.091 467.133 231.851 467.133C231.61 467.133 231.489 465.567 232.573 464.243C233.657 462.798 235.222 462.557 235.343 462.798Z" fill="white"/>
<path d="M241.182 463.159C241.302 463.4 240.459 464.123 239.977 465.447C239.496 466.772 239.616 467.856 239.375 467.976C239.134 468.097 238.532 466.772 239.134 465.086C239.616 463.52 241.061 462.918 241.182 463.159Z" fill="white"/>
<path d="M246.27 468.337C246.03 468.458 245.307 467.374 245.427 465.808C245.548 464.243 246.511 463.4 246.752 463.52C246.993 463.641 246.511 464.604 246.391 465.929C246.15 467.133 246.511 468.217 246.27 468.337Z" fill="white"/>
<path d="M93.4603 158.601C87.6798 155.831 83.3445 149.931 82.6219 143.548C82.2606 140.778 82.6219 138.008 81.8993 135.359C81.0564 131.505 78.407 128.133 78.5274 124.159C78.6478 121.51 79.9725 119.222 80.4542 116.573C80.8155 114.044 80.4542 111.515 80.5747 109.106C80.9359 102.724 85.5121 96.8227 91.6539 94.8959L107.791 89.7175L131.033 101.399C131.033 101.399 143.678 115.73 137.657 142.705L93.4603 158.601Z" fill="url(#paint0_linear_3053_2072)"/>
<path d="M134.76 144.993C135.242 144.511 135.844 144.03 136.567 143.789H136.446C136.567 143.789 136.687 143.789 136.807 143.668C137.289 143.548 137.771 143.548 138.252 143.789C139.095 144.03 139.698 144.632 140.179 145.354C140.902 146.679 140.661 148.365 139.698 149.569C138.975 150.653 137.65 151.255 136.326 151.014C135.121 150.774 134.278 149.69 134.038 148.606C133.676 147.402 133.917 145.957 134.76 144.993Z" fill="#6084A4"/>
<path d="M136.44 119.945C135.476 111.153 129.214 100.435 120.423 101.76L93.0861 109.829C90.4367 110.19 88.5099 112.599 88.6303 115.248L92.0023 174.257C92.484 181.964 115.245 206.772 122.831 207.976C132.586 209.421 124.397 183.289 124.397 173.414C124.397 169.319 124.397 166.309 124.397 166.309C124.397 166.309 135.597 164.02 137.403 149.088C138.366 141.862 137.403 129.819 136.44 119.945Z" fill="#FCB9B0"/>
<path d="M132.732 132.589C132.853 133.553 132.01 134.516 130.926 134.516C129.842 134.636 128.999 133.914 128.879 132.83C128.758 131.867 129.601 130.903 130.685 130.903C131.769 130.903 132.612 131.626 132.732 132.589Z" fill="#0E314C"/>
<path d="M134.051 126.327C133.81 126.568 132.365 125.604 130.318 125.725C128.271 125.725 126.826 126.929 126.585 126.688C126.464 126.568 126.705 126.086 127.307 125.604C127.909 125.123 128.993 124.641 130.318 124.521C131.643 124.521 132.727 124.882 133.329 125.364C133.931 125.845 134.172 126.207 134.051 126.327Z" fill="#0E314C"/>
<path d="M114.646 133.071C114.767 134.034 113.924 134.998 112.84 134.998C111.756 135.118 110.913 134.396 110.793 133.312C110.672 132.348 111.515 131.385 112.599 131.385C113.683 131.385 114.526 132.107 114.646 133.071Z" fill="#0E314C"/>
<path d="M114.059 127.532C113.818 127.773 112.373 126.809 110.326 126.93C108.279 126.93 106.833 128.134 106.593 127.893C106.472 127.773 106.713 127.291 107.315 126.809C107.917 126.327 109.001 125.846 110.326 125.725C111.651 125.725 112.734 126.087 113.336 126.568C113.939 127.05 114.179 127.411 114.059 127.532Z" fill="#0E314C"/>
<path d="M122.151 142.344C122.151 142.223 123.355 141.982 125.402 141.621C125.884 141.501 126.366 141.38 126.486 141.019C126.607 140.658 126.366 140.055 126.125 139.453C125.643 138.249 125.041 136.924 124.439 135.6C122.031 130.06 120.345 125.484 120.585 125.363C120.826 125.243 122.873 129.699 125.282 135.238C125.884 136.563 126.366 137.888 126.968 139.212C127.209 139.815 127.57 140.417 127.329 141.26C127.209 141.621 126.848 141.982 126.486 142.103C126.125 142.223 125.884 142.223 125.643 142.223C123.355 142.464 122.151 142.464 122.151 142.344Z" fill="#0E314C"/>
<path d="M124.538 166.429C124.538 166.429 114.663 167.513 104.547 161.973C104.547 161.973 109.725 171.968 124.538 169.921V166.429Z" fill="#C09E9B"/>
<path d="M121.997 147.161C120.913 145.836 119.348 144.993 117.782 145.114C116.698 145.234 115.735 145.716 115.133 146.679C114.651 147.643 114.651 148.967 115.373 149.931C116.216 151.015 117.541 151.256 118.745 151.015C119.829 150.653 120.793 149.81 121.636 149.088C121.876 148.847 122.117 148.606 122.238 148.245C122.358 148.004 122.358 147.643 121.997 147.161Z" fill="#814843"/>
<path d="M116.114 144.03C116.475 144.03 116.596 146.197 118.523 147.642C120.449 149.088 122.858 148.847 122.858 149.088C122.858 149.208 122.376 149.569 121.413 149.569C120.449 149.69 119.004 149.328 117.8 148.485C116.596 147.522 116.114 146.318 115.994 145.354C115.753 144.511 115.994 144.03 116.114 144.03Z" fill="#0E314C"/>
<path d="M114.627 119.102C114.506 119.704 112.459 119.463 110.051 119.824C107.642 120.186 105.715 120.908 105.474 120.426C105.354 120.186 105.595 119.704 106.438 119.102C107.16 118.5 108.365 118.018 109.81 117.777C111.255 117.536 112.58 117.777 113.423 118.018C114.265 118.379 114.627 118.861 114.627 119.102Z" fill="#0E314C"/>
<path d="M133.089 119.342C132.728 119.824 131.283 119.342 129.597 119.463C127.911 119.463 126.466 119.944 126.104 119.463C125.984 119.222 126.104 118.74 126.707 118.258C127.309 117.777 128.272 117.415 129.476 117.415C130.681 117.415 131.644 117.777 132.246 118.258C133.089 118.62 133.21 119.101 133.089 119.342Z" fill="#0E314C"/>
<path d="M108.865 104.289C102.121 104.169 95.3772 105.373 89.1151 107.781C87.1882 108.504 85.2614 109.467 84.1776 111.153C83.2142 112.598 83.0938 114.525 83.0938 116.332C83.0938 121.871 85.3818 128.615 87.4291 133.793L89.958 138.249C93.8117 137.406 97.1836 127.531 96.9428 122.955C100.676 121.389 103.325 117.415 103.325 113.321C106.456 111.274 108.504 107.902 108.865 104.289Z" fill="#0E314C"/>
<path d="M94.2333 135.841C93.9925 132.71 90.1389 131.987 87.3691 133.673C85.9239 134.516 84.7197 136.323 84.9605 139.695C85.4422 148.606 94.3538 146.318 94.3538 146.077C94.4742 145.957 94.4742 139.574 94.2333 135.841Z" fill="#FCB9B0"/>
<path d="M91.4099 142.826C91.4099 142.826 91.2894 142.946 91.0486 143.066C90.8077 143.187 90.326 143.307 89.8443 143.187C88.8809 142.946 88.0379 141.38 87.9175 139.815C87.7971 138.972 88.0379 138.249 88.2788 137.527C88.5196 136.804 88.8809 136.323 89.3626 136.323C89.8443 136.202 90.2056 136.443 90.326 136.684C90.4464 136.925 90.4464 137.166 90.4464 137.166C90.4464 137.166 90.6873 137.045 90.5669 136.684C90.5669 136.563 90.4464 136.323 90.2056 136.082C89.9647 135.961 89.6035 135.841 89.3626 135.841C88.64 135.961 88.0379 136.563 87.7971 137.286C87.4358 138.008 87.3154 138.851 87.4358 139.815C87.5562 141.621 88.64 143.307 89.9647 143.548C90.5669 143.669 91.169 143.428 91.4099 143.187C91.4099 143.066 91.5303 142.826 91.4099 142.826Z" fill="#FCB9B0"/>
<path d="M86.488 144.873C86.9697 144.391 87.5719 143.909 88.2944 143.668H88.174C88.2944 143.668 88.4148 143.668 88.5353 143.548C89.017 143.428 89.4987 143.428 89.9804 143.668C90.8234 143.909 91.4255 144.511 91.9072 145.234C92.6298 146.559 92.3889 148.245 91.4255 149.449C90.7029 150.533 89.3782 151.135 88.0536 150.894C86.8493 150.653 86.0063 149.569 85.7655 148.485C85.4042 147.161 85.5246 145.836 86.488 144.873Z" fill="#6084A4"/>
<path d="M82.7328 103.928C84.9005 99.8333 89.4767 97.6656 94.0529 97.0635C95.3776 96.943 96.7023 96.8226 98.027 96.943C97.6657 95.1367 97.5453 93.3303 97.9065 91.5239C98.7495 86.1047 102.844 81.6489 107.541 79.8425C112.237 78.0361 117.656 78.5178 122.233 80.5651C126.568 82.4919 130.542 85.7434 132.469 90.44C134.396 95.1367 133.673 101.158 130.181 104.65C126.207 107.781 121.751 108.865 116.813 109.588C112.599 110.19 108.022 109.227 104.53 106.818C92.6078 115.127 88.6337 130.181 85.7435 143.789C81.5286 134.877 81.2877 124.641 81.0469 114.766C81.0469 111.033 81.0469 107.179 82.7328 103.928Z" fill="url(#paint1_linear_3053_2072)"/>
<path d="M95.8491 105.975C95.7286 105.855 96.4512 105.012 97.4146 104.169C98.378 103.326 99.221 102.603 99.3414 102.844C99.4619 102.964 98.7393 103.807 97.7759 104.65C96.9329 105.493 95.9695 106.095 95.8491 105.975Z" fill="white"/>
<path d="M122.103 103.446C121.982 103.326 123.066 102.603 124.271 100.917C125.475 99.2311 126.92 96.7021 127.402 93.571C127.883 90.4399 127.402 87.5497 126.679 85.6229C125.957 83.6961 125.354 82.6122 125.354 82.4918C125.354 82.4918 125.595 82.7327 125.957 83.2144C126.318 83.6961 126.679 84.4186 127.04 85.5025C127.883 87.4293 128.486 90.44 127.883 93.6915C127.402 96.943 125.836 99.5923 124.391 101.158C123.668 102.001 123.066 102.603 122.585 102.964C122.464 103.326 122.103 103.446 122.103 103.446Z" fill="white"/>
<path d="M117.164 95.3775C117.164 95.257 117.766 94.6549 118.73 93.8119C119.813 92.8485 121.259 91.6442 122.583 89.9583C123.908 88.3927 124.751 86.5864 125.233 85.2617C125.594 83.937 125.714 83.094 125.835 83.094C125.955 83.094 126.076 83.937 125.714 85.3821C125.353 86.8272 124.51 88.6336 123.185 90.3196C121.861 92.0055 120.295 93.2098 119.211 94.0528C117.887 94.8958 117.164 95.3775 117.164 95.3775Z" fill="white"/>
<g opacity="0.3">
<path d="M97.7863 92.6078C97.425 98.1474 100.074 103.687 104.53 106.939L104.41 107.179C101.158 106.939 98.0272 104.891 96.7025 101.881C95.3778 98.8699 95.7391 95.1367 97.7863 92.6078Z" fill="black"/>
</g>
<path d="M85.6195 111.274C85.7399 111.153 86.9442 111.996 88.5097 112.96C90.0752 113.923 91.3999 114.525 91.2795 114.766C91.2795 114.886 89.714 114.525 88.1484 113.562C86.4625 112.598 85.499 111.394 85.6195 111.274Z" fill="white"/>
<path d="M79.3516 120.065C79.472 119.944 81.1579 120.426 83.3256 120.787C85.4933 121.149 87.2997 121.269 87.2997 121.39C87.2997 121.51 85.4933 121.751 83.2052 121.39C81.0375 121.028 79.3516 120.185 79.3516 120.065Z" fill="white"/>
<path d="M92.4841 94.7754C92.6045 94.8958 91.882 97.1839 91.4003 100.195C90.9186 103.205 90.9186 105.734 90.7981 105.734C90.6777 105.734 90.3164 103.205 90.7981 100.074C91.1594 97.0635 92.3637 94.7754 92.4841 94.7754Z" fill="white"/>
<path d="M94.5391 110.792C94.5391 110.672 95.7433 110.792 97.068 110.792C98.3927 110.912 99.4765 110.792 99.597 111.033C99.597 111.153 98.5131 111.515 97.068 111.394C95.6229 111.394 94.5391 110.912 94.5391 110.792Z" fill="white"/>
<path d="M84.9021 127.05C85.0225 126.929 86.1064 128.133 87.1902 129.819C88.1536 131.505 88.6353 133.191 88.5149 133.191C88.3945 133.312 87.6719 131.867 86.7085 130.181C85.6247 128.495 84.7817 127.17 84.9021 127.05Z" fill="white"/>
<path d="M109.718 103.566C109.598 103.566 110.2 102.242 111.164 100.074C112.247 97.786 113.572 95.0162 115.017 91.8851C116.462 88.7541 117.667 85.9843 118.75 83.6962C119.714 81.6489 120.316 80.3242 120.436 80.3242C120.557 80.3242 120.075 81.7693 119.232 83.8166C118.389 85.9843 117.185 88.8745 115.74 92.126C114.295 95.3775 112.849 98.1473 111.766 100.195C110.441 102.362 109.718 103.687 109.718 103.566Z" fill="white"/>
<path d="M103.203 85.864C103.203 85.7435 104.046 85.2618 105.491 84.5393C106.936 83.8167 109.104 82.8533 111.392 82.1307C113.801 81.4082 115.968 80.9265 117.654 80.5652C119.22 80.3243 120.304 80.2039 120.304 80.3243C120.304 80.5652 116.33 81.1673 111.633 82.7329C106.936 84.178 103.324 86.1048 103.203 85.864Z" fill="white"/>
<path d="M128.258 93.0894C128.378 92.969 130.064 94.7754 130.907 97.6656C131.75 100.556 131.389 102.964 131.268 102.844C131.027 102.844 131.148 100.556 130.305 97.786C129.462 95.1366 128.137 93.2098 128.258 93.0894Z" fill="white"/>
<path d="M110.185 109.106C110.185 108.865 111.871 109.227 113.798 108.384C115.725 107.661 116.809 106.336 116.929 106.457C117.05 106.577 116.086 108.143 114.039 108.986C111.871 109.829 110.065 109.227 110.185 109.106Z" fill="white"/>
<path d="M98.5047 98.9903C98.3843 98.9903 98.6252 97.3043 99.709 95.6183C100.913 93.9324 102.358 93.2098 102.358 93.3302C102.479 93.4507 101.275 94.4141 100.191 95.9796C99.1069 97.5452 98.6252 98.9903 98.5047 98.9903Z" fill="white"/>
<path d="M136.566 120.667C136.445 120.547 136.927 120.065 137.288 119.463C137.77 118.861 138.011 118.379 138.252 118.379C138.372 118.379 138.372 119.101 137.89 119.824C137.288 120.667 136.686 120.787 136.566 120.667Z" fill="white"/>
<path d="M100.569 103.928C100.689 104.048 99.124 105.493 96.8359 108.022C94.5478 110.551 91.6575 114.284 89.1286 118.861C86.5996 123.316 84.7932 127.772 83.7094 131.024C82.6256 134.275 82.1439 136.322 82.0234 136.322C82.0234 136.322 82.0234 135.841 82.2643 134.877C82.3847 133.914 82.746 132.589 83.2277 130.903C84.1911 127.652 85.8771 123.196 88.5265 118.62C91.1758 114.044 94.0661 110.31 96.4746 107.781C97.6788 106.577 98.6422 105.614 99.3648 104.891C100.087 104.169 100.569 103.807 100.569 103.928Z" fill="white"/>
<path d="M80.4504 117.536C80.33 117.536 81.0526 116.211 82.4977 114.405C83.8224 112.478 85.99 110.069 88.6394 107.661C91.2888 105.252 93.9382 103.446 95.865 102.242C97.9122 101.037 99.1165 100.435 99.2369 100.556C99.2369 100.676 98.0327 101.399 96.1058 102.723C94.179 104.048 91.6501 105.975 89.0007 108.263C86.4718 110.672 84.3041 112.96 82.859 114.766C81.2934 116.452 80.4504 117.536 80.4504 117.536Z" fill="white"/>
<path d="M105.989 81.0468C105.989 81.0468 105.508 81.6489 104.906 82.7327C104.304 83.8166 103.461 85.5025 103.099 87.7906C102.738 90.0787 102.738 92.8485 103.822 95.6183C104.785 98.3881 106.953 101.158 109.723 103.205C112.613 105.252 115.864 106.216 118.875 106.457C121.886 106.698 124.656 106.216 126.823 105.493C128.991 104.65 130.436 103.566 131.399 102.723C132.363 101.881 132.724 101.158 132.724 101.278C132.724 101.278 132.604 101.399 132.483 101.76C132.363 102.001 132.002 102.483 131.52 102.964C130.677 103.928 129.111 105.132 126.944 105.975C124.776 106.818 121.886 107.3 118.875 107.059C115.744 106.818 112.372 105.855 109.482 103.687C106.592 101.64 104.424 98.7494 103.34 95.7388C102.256 92.7281 102.256 89.8379 102.738 87.5498C103.22 85.2617 104.063 83.4553 104.785 82.3715C105.146 81.8898 105.508 81.4081 105.749 81.1672C105.749 81.1672 105.869 80.9264 105.989 81.0468Z" fill="white"/>
<path d="M98.6257 89.597C98.7461 89.597 98.3849 90.9217 98.2644 93.0894C98.144 95.2571 98.2644 98.2677 99.5891 101.158C100.914 104.048 103.202 106.095 105.008 107.059C106.935 108.022 108.26 108.143 108.26 108.263C108.26 108.263 107.899 108.263 107.296 108.263C106.694 108.143 105.851 107.902 104.767 107.541C102.72 106.698 100.312 104.53 98.8666 101.399C97.5419 98.2677 97.4214 95.1366 97.6623 92.969C97.7827 91.8851 98.0236 91.0422 98.144 90.44C98.3849 89.8379 98.5053 89.597 98.6257 89.597Z" fill="white"/>
<g opacity="0.3">
<path d="M89.961 116.813C87.1912 121.51 85.7461 125.725 83.8192 130.783C83.2171 132.348 82.615 134.034 82.9763 135.72C83.0967 136.082 83.3375 136.443 83.5784 136.322C83.8192 136.322 83.9397 136.082 83.9397 135.841C86.7095 127.772 89.8405 119.944 93.4533 112.237L89.961 116.813Z" fill="black"/>
</g>
<g opacity="0.3">
<path d="M126.812 84.2982C128.859 91.0421 127.896 98.2677 122.477 103.326C124.765 103.085 126.691 101.519 127.655 99.3515C129.943 94.6549 129.582 88.754 126.812 84.2982Z" fill="black"/>
</g>
<path d="M128.008 175.22C128.008 175.22 140.05 180.037 142.339 186.299C144.627 192.561 162.088 244.104 162.088 244.104L141.857 251.811L132.584 209.421L128.008 175.22Z" fill="#FC5546"/>
<path d="M74.4191 254.822L77.5502 274.09C77.5502 274.09 64.0624 299.741 62.4969 321.779C62.4969 322.14 62.4969 322.501 62.4969 322.742C62.0152 340.083 75.5029 354.535 92.8443 355.98C108.379 357.304 127.768 358.509 141.256 358.147L168.713 356.943L195.207 308.773L145.711 289.023L139.208 272.524L143.303 251.089C143.303 251.089 148.842 235.674 149.324 231.218C150.288 221.584 149.926 211.95 140.292 199.426L128.25 174.859L124.035 173.414L125.961 203.159L91.3992 170.283L76.4663 175.22L68.8795 199.907L74.4191 254.822Z" fill="#FC5546"/>
<path d="M143.066 251.45C143.066 251.45 143.066 251.209 143.187 250.848C143.307 250.486 143.428 249.884 143.669 249.282C144.15 247.957 144.752 246.031 145.475 243.502C146.198 241.093 147.041 238.203 147.763 234.831C148.486 231.579 148.847 227.846 148.727 223.993C148.486 216.285 145.716 209.541 143.307 205.086C142.103 202.918 141.019 201.112 140.176 200.028C141.019 201.112 142.223 202.918 143.428 205.086C144.752 207.253 145.957 210.023 147.041 213.275C148.124 216.526 148.847 220.139 148.967 224.113C149.088 227.967 148.606 231.7 147.884 235.072C147.161 238.323 146.318 241.334 145.475 243.743C144.632 246.151 143.909 248.078 143.428 249.403C143.187 250.005 142.946 250.486 142.826 250.968C143.187 251.209 143.066 251.45 143.066 251.45Z" fill="white"/>
<path d="M123.324 222.427C123.324 222.427 123.324 222.909 123.324 223.752C123.324 224.113 123.324 224.715 123.203 225.317C123.083 225.919 123.083 226.642 122.842 227.365C122.722 228.087 122.481 228.93 122.24 229.773C121.999 230.616 121.638 231.459 121.276 232.422C120.433 234.229 119.47 236.156 118.145 238.083C116.821 239.889 115.255 241.575 113.69 242.779C112.967 243.381 112.244 243.983 111.401 244.465C110.679 244.947 109.956 245.429 109.354 245.79C108.752 246.151 108.03 246.392 107.548 246.633C107.066 246.874 106.584 247.114 106.103 247.235C105.26 247.476 104.898 247.596 104.898 247.596C104.898 247.476 106.584 246.994 109.234 245.429C109.836 245.067 110.558 244.586 111.281 244.104C112.004 243.622 112.726 243.02 113.449 242.418C114.894 241.093 116.459 239.528 117.784 237.721C119.109 235.915 120.193 233.988 120.915 232.182C121.276 231.218 121.638 230.375 121.879 229.532C122.119 228.689 122.36 227.967 122.481 227.244C123.203 224.354 123.203 222.427 123.324 222.427Z" fill="white"/>
<path d="M148.846 230.857C148.846 230.857 148.846 230.857 148.726 230.737C148.605 230.616 148.485 230.375 148.365 230.255C148.003 229.773 147.642 229.051 147.16 228.208C146.558 227.365 145.836 226.281 144.993 225.076C144.029 223.872 143.066 222.548 141.862 221.102C137.045 215.322 130.06 207.615 121.871 199.426C113.802 191.237 106.215 184.132 100.555 178.953C99.1103 177.749 97.906 176.545 96.8222 175.581C95.7384 174.618 94.7749 173.775 93.932 173.052C93.2094 172.45 92.4868 171.848 92.1256 171.487C91.8847 171.366 91.7643 171.126 91.6439 171.126C91.5234 171.005 91.5234 171.005 91.5234 171.005C91.5234 171.005 91.6439 171.005 91.7643 171.126C91.8847 171.246 92.1256 171.366 92.246 171.487C92.7277 171.848 93.3298 172.33 94.1728 172.932C95.0158 173.655 95.9792 174.497 97.1835 175.461C98.2673 176.424 99.592 177.629 101.037 178.833C106.697 183.891 114.284 190.996 122.473 199.185C130.542 207.374 137.647 215.081 142.343 220.982C143.548 222.427 144.511 223.872 145.474 225.076C146.317 226.281 147.04 227.365 147.642 228.328C148.124 229.171 148.485 229.894 148.846 230.496C148.967 230.736 149.087 230.857 149.087 231.098C148.846 230.857 148.846 230.857 148.846 230.857Z" fill="white"/>
<path d="M130.778 273.97C130.778 273.97 130.657 273.97 130.296 274.09C129.935 274.09 129.333 274.21 128.731 274.331C127.406 274.451 125.479 274.692 123.071 274.933C118.374 275.415 111.751 275.656 104.405 275.656C97.0586 275.535 90.5556 275.053 85.7385 274.451C83.33 274.21 81.4032 273.97 80.0785 273.729C79.4764 273.608 78.9947 273.488 78.5129 273.488C78.1517 273.367 78.0312 273.367 78.0312 273.367C78.0312 273.367 78.2721 273.367 78.5129 273.367C78.8742 273.367 79.4764 273.488 80.0785 273.488C81.4032 273.608 83.33 273.849 85.7385 274.09C90.4351 274.572 97.0586 275.053 104.284 275.053C111.51 275.174 118.133 274.813 122.83 274.451C125.238 274.331 127.165 274.09 128.49 273.97C129.092 273.97 129.574 273.849 130.055 273.849C130.657 273.97 130.778 273.97 130.778 273.97Z" fill="url(#paint2_linear_3053_2072)"/>
<path d="M54.672 227.124C54.672 227.124 51.1797 259.759 51.1797 264.215C51.1797 272.404 56.7193 280.111 64.9083 280.111C70.4479 280.111 133.792 265.781 133.792 265.781L130.661 250.366L79.239 250.486L80.082 229.051L54.672 227.124Z" fill="#AB655C"/>
<path d="M100.211 250.486H130.679L152.355 246.753L163.073 245.79L170.419 251.931C171.503 252.774 172.105 254.099 172.105 255.424L171.985 260.843L170.901 261.565L171.865 264.094C172.226 265.178 171.985 266.503 171.022 267.346L163.676 259.88L167.89 268.309C167.89 268.309 166.686 269.152 164.157 268.671C161.628 268.069 156.57 258.314 156.57 258.314L152.476 256.989L159.942 267.828C159.942 267.828 160.183 268.671 158.256 269.032C156.209 269.393 147.538 260.361 147.538 260.361C147.538 260.361 143.926 263.974 139.59 264.817C135.255 265.66 126.223 267.466 126.223 267.466L100.211 250.486Z" fill="#AB655C"/>
<path d="M167.779 268.069C167.658 268.069 167.056 266.985 166.213 265.299C165.25 263.492 164.045 261.084 162.721 258.314C162.119 256.989 161.276 255.785 160.192 255.303C158.988 254.822 157.904 254.34 156.94 253.979C155.134 253.256 153.93 252.774 153.93 252.654C153.93 252.534 155.134 252.895 157.061 253.617C158.024 253.979 159.108 254.22 160.433 254.822C161.757 255.424 162.721 256.749 163.323 258.073C164.648 260.843 165.852 263.252 166.695 265.058C167.417 266.985 167.899 268.069 167.779 268.069Z" fill="#814843"/>
<path d="M170.533 261.445C170.413 261.445 169.931 260.482 168.968 259.037C168.004 257.592 166.68 255.424 164.994 253.377C164.512 252.895 164.151 252.293 163.789 251.811C163.549 251.57 163.428 251.329 163.187 251.089L162.946 250.727L162.826 250.607H162.706C161.622 250.366 160.538 250.125 159.695 250.005C157.889 249.764 156.805 249.523 156.805 249.403C156.805 249.282 157.889 249.403 159.695 249.523C160.658 249.643 161.622 249.764 162.826 250.005H162.946C162.946 250.005 163.067 250.125 163.187 250.125C163.308 250.246 163.308 250.246 163.308 250.366L163.669 250.727C163.91 250.968 164.03 251.209 164.271 251.45C164.632 251.931 165.114 252.413 165.596 253.015C167.402 255.183 168.606 257.351 169.57 258.916C170.172 260.361 170.533 261.445 170.533 261.445Z" fill="#814843"/>
<path d="M124.038 267.948C124.038 267.948 124.159 267.948 124.4 267.828C124.761 267.707 125.122 267.707 125.604 267.587C126.688 267.346 128.374 266.985 130.421 266.503C132.468 266.021 135.118 265.419 138.008 264.817C141.018 264.335 144.27 262.77 147.04 260.121L147.16 260L147.281 260.121C148.967 261.806 150.773 263.613 152.82 265.419C153.784 266.262 154.867 267.226 156.072 267.948C156.313 268.189 156.674 268.309 156.915 268.43C157.276 268.55 157.517 268.671 157.758 268.55C158.119 268.43 158.48 268.43 158.721 268.189C158.962 268.069 159.203 267.707 159.203 267.587V267.707C156.915 264.335 154.386 260.723 151.736 256.869L151.255 256.146L152.098 256.387C153.422 256.749 154.747 257.23 156.192 257.712H156.313V257.832C157.517 260.121 158.962 262.529 160.527 264.817C161.37 265.901 162.213 267.105 163.297 267.828C164.381 268.309 166.067 268.31 167.151 267.707L167.03 268.069C165.706 265.419 164.261 262.529 162.816 259.639L161.852 257.832L163.297 259.278C164.983 260.964 166.79 262.89 168.596 264.697C169.319 265.419 169.921 266.021 170.643 266.744H170.162C170.884 266.142 171.125 265.058 171.005 264.215C170.764 263.252 170.282 262.288 170.041 261.325L169.921 261.084L170.162 260.964C170.523 260.723 170.884 260.482 171.245 260.241L171.125 260.482C171.125 258.796 171.125 257.23 171.245 255.544C171.366 253.979 170.764 252.534 169.559 251.57C167.151 249.523 164.742 247.596 162.454 245.669L162.695 245.79C158.962 246.151 155.47 246.512 151.977 246.753C144.029 248.078 136.683 249.403 130.301 250.486C120.907 250.486 113.32 250.486 108.022 250.366C105.372 250.366 103.325 250.366 102 250.366C101.278 250.366 100.796 250.366 100.435 250.366C100.074 250.366 99.9531 250.366 99.9531 250.366C99.9531 250.366 100.194 250.366 100.435 250.366C100.796 250.366 101.398 250.366 102 250.366C103.445 250.366 105.493 250.366 108.022 250.246C113.32 250.246 120.907 250.125 130.301 250.125C136.683 249.041 144.029 247.717 151.977 246.272C155.47 245.91 158.962 245.549 162.695 245.308H162.816L162.936 245.429C165.224 247.355 167.633 249.282 170.041 251.329C170.643 251.811 171.245 252.534 171.607 253.256C171.968 253.979 172.088 254.942 171.968 255.785C171.968 257.351 171.968 259.037 171.848 260.723V260.843L171.727 260.964C171.366 261.204 171.005 261.445 170.643 261.686L170.764 261.325C171.125 262.288 171.486 263.252 171.848 264.335C172.088 265.419 171.727 266.744 170.884 267.467L170.643 267.707L170.402 267.467C169.68 266.744 169.078 266.142 168.355 265.419C166.549 263.492 164.742 261.686 163.056 260L163.538 259.639C164.983 262.529 166.428 265.419 167.753 268.069L167.873 268.31L167.633 268.43C166.91 268.912 166.067 268.912 165.345 269.032C164.983 269.032 164.622 269.032 164.261 268.912C164.02 268.912 163.899 268.791 163.659 268.791C163.418 268.671 163.297 268.671 163.056 268.55C161.732 267.707 160.889 266.503 160.046 265.419C158.36 263.131 157.035 260.723 155.71 258.314L155.831 258.435C154.386 257.953 152.941 257.592 151.736 257.11L152.098 256.628C154.747 260.482 157.156 264.095 159.444 267.467C158.962 269.634 156.433 269.152 155.47 268.31C154.265 267.467 153.181 266.624 152.218 265.66C150.171 263.854 148.364 262.047 146.678 260.241H147.04C144.15 262.89 140.898 264.576 137.767 264.938C134.756 265.54 132.227 266.142 130.06 266.503C128.012 266.864 126.326 267.226 125.243 267.467C124.761 267.587 124.279 267.587 124.038 267.707C124.279 267.948 124.038 267.948 124.038 267.948Z" fill="#814843"/>
<path d="M44.4297 240.732L67.0698 242.177L85.3746 240.973L84.652 210.144L79.5941 174.136C79.5941 174.136 59.3625 179.074 54.9068 194.488C51.6553 205.929 44.4297 240.732 44.4297 240.732Z" fill="#FC5546"/>
<path d="M80.2109 193.043C80.2109 193.043 80.4518 193.645 80.8131 194.609C81.0539 195.692 81.4152 197.138 81.7765 199.064C82.3786 202.918 82.6195 208.217 82.8603 214.118C83.1012 220.019 83.2216 225.317 83.342 229.171C83.342 230.977 83.342 232.543 83.4624 233.747C83.4624 234.831 83.4624 235.433 83.4624 235.433C83.4624 235.433 83.342 234.831 83.2216 233.747C83.1012 232.543 83.1012 230.977 82.9807 229.171C82.7399 225.317 82.499 220.019 82.2582 214.118C82.0173 208.217 81.8969 202.918 81.4152 199.064C81.1743 197.138 80.9335 195.572 80.6926 194.609C80.3314 193.645 80.2109 193.043 80.2109 193.043Z" fill="white"/>
<path d="M30.4718 291.672L92.4913 293.84C93.4547 293.84 94.0568 294.683 93.9364 295.646L85.0248 369.949H98.9943L106.22 288.059C106.581 285.29 104.413 282.761 101.644 282.64L28.9062 279.991L30.4718 291.672Z" fill="#235F87"/>
<path d="M199.31 281.797H209.064V283.965L187.628 491.339H177.633L199.31 281.797Z" fill="#235F87"/>
<path d="M457.387 281.797H447.633V284.085L467.864 491.339H477.86L457.387 281.797Z" fill="#235F87"/>
<path d="M457.859 284.567C457.859 284.567 457.859 284.928 457.98 285.651C458.1 286.373 458.1 287.457 458.221 288.782C458.461 291.552 458.823 295.526 459.304 300.704C460.268 311.061 461.713 326.114 463.519 344.78C467.132 381.992 472.19 433.655 477.73 491.098L477.97 490.857C474.839 490.857 471.467 490.857 468.096 490.857H467.975L468.216 491.098C458.702 395.118 450.754 313.831 448.105 286.735C448.105 285.771 448.105 285.169 448.105 284.567L447.984 284.687C451.236 284.687 453.765 284.687 455.33 284.687C456.173 284.687 456.655 284.687 457.137 284.687C457.618 284.567 457.859 284.567 457.859 284.567C457.859 284.567 457.618 284.567 457.257 284.567C456.896 284.567 456.294 284.567 455.451 284.567C453.885 284.567 451.356 284.567 448.105 284.567H447.984V284.687C447.984 285.29 447.984 285.892 447.984 286.855C450.634 313.831 458.461 395.239 467.734 491.218V491.459H467.975H468.096C471.467 491.459 474.839 491.459 477.97 491.459H478.211V491.218C472.551 433.655 467.493 381.992 463.76 344.78C461.954 326.234 460.388 311.181 459.425 300.825C458.943 295.646 458.461 291.672 458.221 288.902C458.1 287.578 457.98 286.494 457.859 285.771C457.859 284.928 457.859 284.567 457.859 284.567Z" fill="#0E314C"/>
<path d="M0 283.965L480.5 284.326L480.741 275.174H0V283.965Z" fill="#235F87"/>
<path d="M0.484375 284.326C0.484375 284.206 43.9582 283.965 199.308 283.965C354.658 283.965 480.503 284.085 480.503 284.326C480.503 284.447 354.658 284.687 199.308 284.687C43.9582 284.687 0.484375 284.567 0.484375 284.326Z" fill="#0E314C"/>
<path d="M241.701 226.16L216.05 271.561L156.8 272.886L156.68 275.655L215.568 275.174L217.374 275.053L279.514 275.174L292.039 253.497L307.574 228.328C308.657 226.762 307.574 224.715 305.647 224.715L243.627 224.956C242.784 224.956 242.062 225.438 241.701 226.16Z" fill="#E1E1E1"/>
<path d="M261.563 249.523C260.479 250.727 260.479 252.534 261.563 253.497C262.647 254.461 264.333 254.22 265.537 253.015C266.621 251.811 266.621 250.005 265.537 249.041C264.333 248.078 262.647 248.319 261.563 249.523Z" fill="white"/>
<path d="M248.438 224.956C248.559 225.076 242.296 236.276 234.469 250.125C226.641 263.974 220.138 275.053 219.897 274.933C219.656 274.812 226.039 263.613 233.867 249.764C241.815 236.035 248.318 224.956 248.438 224.956Z" fill="#0E314C"/>
<path d="M57.3248 484.113C57.3248 488.208 54.0733 491.459 49.9788 491.459C45.8843 491.459 42.6328 488.208 42.6328 484.113C42.6328 480.019 45.8843 476.767 49.9788 476.767C54.0733 476.767 57.3248 480.019 57.3248 484.113Z" fill="#0E314C"/>
<path d="M100.317 484.113C100.317 488.208 97.0655 491.459 92.971 491.459C88.8765 491.459 85.625 488.208 85.625 484.113C85.625 480.019 88.8765 476.767 92.971 476.767C97.0655 476.767 100.317 480.019 100.317 484.113Z" fill="#0E314C"/>
<path d="M150.044 484.113C150.044 488.208 146.792 491.459 142.698 491.459C138.603 491.459 135.352 488.208 135.352 484.113C135.352 480.019 138.603 476.767 142.698 476.767C146.792 476.767 150.044 480.019 150.044 484.113Z" fill="#0E314C"/>
<path d="M263.255 110.672L307.331 134.877L351.768 110.31L359.957 41.7879L307.331 23.724L254.945 42.0288L263.255 110.672Z" fill="#B3B3B3"/>
<path d="M307.211 129.097L347.072 107.059L354.779 45.7619L307.211 29.5044V129.097Z" fill="#A6120D"/>
<path d="M307.208 129.097V29.5044L260.844 46.0028L267.949 107.3L307.208 129.097Z" fill="#DD1B16"/>
<path d="M320.334 82.4919L307.207 88.6336H293.358L286.855 104.891L274.812 105.132L307.207 33.1172L320.334 82.4919ZM319.009 79.4813L307.328 56.239L297.693 79.12H307.207L319.009 79.4813Z" fill="#F2F2F2"/>
<path d="M318.17 78.9996H307.211V88.6336H322.385L329.49 105.132L341.051 105.252L307.211 33.1172L307.331 56.239L318.17 78.9996Z" fill="#B3B3B3"/>
<defs>
<linearGradient id="paint0_linear_3053_2072" x1="78.5644" y1="124.191" x2="139.246" y2="124.191" gradientUnits="userSpaceOnUse">
<stop stop-color="#00B1E0"/>
<stop offset="1" stop-color="#8AEEFF"/>
</linearGradient>
<linearGradient id="paint1_linear_3053_2072" x1="81.0907" y1="111.245" x2="133.596" y2="111.245" gradientUnits="userSpaceOnUse">
<stop stop-color="#00B1E0"/>
<stop offset="1" stop-color="#8AEEFF"/>
</linearGradient>
<linearGradient id="paint2_linear_3053_2072" x1="78.2297" y1="274.398" x2="130.787" y2="274.398" gradientUnits="userSpaceOnUse">
<stop stop-color="#00B1E0"/>
<stop offset="1" stop-color="#8AEEFF"/>
</linearGradient>
</defs>
</svg>
