<svg width="639" height="400" viewBox="0 0 639 400" fill="none" xmlns="http://www.w3.org/2000/svg">
<path d="M118.636 166.232C119.02 166.395 119.423 166.507 119.835 166.564C119.757 165.978 119.795 165.381 119.945 164.81C120.095 164.239 120.354 163.705 120.709 163.238L119.658 161.856C118.939 162.843 118.088 164.474 118.636 166.232Z" fill="#F7CC7F"/>
<path d="M126.533 167.773C125.162 165.871 123.693 163.876 122.236 161.899L122.081 161.974C121.865 162.093 121.66 162.232 121.469 162.39C121.261 162.56 121.073 162.754 120.907 162.967C120.84 163.054 120.781 163.14 120.719 163.227C122.328 165.36 123.935 167.458 125.393 169.387C125.856 168.916 126.241 168.371 126.533 167.773Z" fill="#F7CC7F"/>
<path d="M131.258 177.942C131.258 177.925 132.176 179.962 131.173 181.117C131.173 181.117 130.05 182.488 129.165 180.678L129.075 180.554C128.978 180.425 128.838 180.338 128.682 180.311C128.526 180.284 128.365 180.318 128.232 180.407C128.099 180.511 128.005 180.661 127.967 180.829C127.93 180.997 127.951 181.174 128.027 181.328C128.152 181.64 128.356 181.912 128.617 182.116C130.808 183.957 133.474 181.611 133.162 178.941C132.979 177.275 130.808 173.817 127.929 169.727C127.552 170.229 127.137 170.699 126.688 171.133C129.075 174.34 130.87 176.862 131.258 177.942Z" fill="#F7CC7F"/>
<path d="M125.383 169.398C125.832 169.993 126.268 170.57 126.683 171.13C127.133 170.696 127.548 170.226 127.925 169.724C127.478 169.086 127.015 168.434 126.537 167.773C126.242 168.376 125.852 168.925 125.383 169.398Z" fill="#F7CC7F"/>
<path d="M119.659 161.856C119.912 161.507 120.194 161.181 120.502 160.883C120.701 160.71 120.909 160.549 121.126 160.401C119.873 158.692 118.648 157.012 117.533 155.431C117.252 156.351 117.016 157.217 116.828 158.029C117.755 159.287 118.707 160.571 119.659 161.856Z" fill="#F7CC7F"/>
<path d="M114.984 155.416C115.58 156.265 116.203 157.148 116.849 158.031C117.038 157.217 117.271 156.352 117.555 155.434C116.917 154.53 116.313 153.659 115.76 152.836C115.526 153.696 115.26 154.556 114.984 155.416Z" fill="#F7CC7F"/>
<path d="M119.059 170.183C118.216 169.733 114.708 167.213 116.84 158.031C116.194 157.14 115.57 156.265 114.975 155.416C114.652 156.429 114.321 157.437 114.028 158.461C113.323 160.924 112.722 163.553 113.071 166.079C113.526 169.369 115.849 171.771 118.73 172.92C120.255 173.564 121.952 173.64 123.525 173.133C124.704 172.704 125.779 172.021 126.68 171.13C126.264 170.57 125.837 169.993 125.379 169.398C123.916 170.876 121.657 171.557 119.059 170.183Z" fill="#F7CC7F"/>
<path d="M115.724 143.524C113.732 142.448 109.513 142.349 109.864 146.139C110.022 147.854 112.14 151.335 114.988 155.416C115.269 154.55 115.53 153.684 115.763 152.819C112.926 148.578 111.37 145.51 112.979 145.314C113.551 145.272 114.123 145.394 114.631 145.667C115.139 145.939 115.563 146.352 115.856 146.858C116.637 148.105 116.44 149.785 116.137 151.217C116.027 151.753 115.895 152.29 115.752 152.821C116.314 153.65 116.909 154.522 117.547 155.419C117.667 155.021 117.8 154.617 117.94 154.198C118.825 151.574 118.965 148.371 118.322 146.636C117.838 145.317 116.918 144.216 115.724 143.524Z" fill="#F7CC7F"/>
<path d="M122.835 161.665C123.347 161.52 123.881 161.479 124.408 161.547C124.077 161.501 126.107 161.484 126.919 163.856C127.329 165.063 127.149 166.5 126.532 167.764C127.009 168.425 127.472 169.078 127.919 169.716L128.099 169.473C132.385 163.504 126.026 157.062 121.133 160.393L122.234 161.891C122.427 161.796 122.628 161.721 122.835 161.665Z" fill="#F7CC7F"/>
<path d="M119.656 161.856L120.698 163.239C120.76 163.152 120.819 163.065 120.887 162.979C121.052 162.765 121.241 162.572 121.448 162.401C121.639 162.243 121.844 162.104 122.061 161.986L122.215 161.911L121.114 160.413C120.897 160.561 120.689 160.722 120.49 160.895C120.186 161.19 119.907 161.511 119.656 161.856Z" fill="#F7CC7F"/>
<path d="M121.724 165.054C122.598 166.015 122.767 167.314 122.101 167.94C121.435 168.567 120.185 168.319 119.312 167.363C118.438 166.408 118.258 165.103 118.935 164.471C119.612 163.839 120.851 164.093 121.724 165.054Z" fill="#F7CC7F"/>
<path d="M130.688 179.486C131.562 180.447 131.731 181.746 131.062 182.373C130.394 182.999 129.149 182.754 128.273 181.795C127.396 180.837 127.239 179.535 127.896 178.903C128.554 178.271 129.812 178.525 130.688 179.486Z" fill="#F7CC7F"/>
<path d="M394.445 221.218H356.617V297.777H394.445V221.218Z" fill="#F47458"/>
<path d="M394.442 260.837C394.107 260.837 393.77 260.837 393.433 260.837H356.617V297.783H394.442V260.837Z" fill="#B75742"/>
<path d="M433.695 354.807V309.032C433.695 287.069 416.37 269.265 394.997 269.265H348.521C327.149 269.265 309.823 287.069 309.823 309.032V354.807C309.823 376.77 327.149 394.573 348.521 394.573H394.997C416.37 394.573 433.695 376.77 433.695 354.807Z" fill="#F47458"/>
<path d="M418.18 314.839V350.988C418.18 359.004 415.081 366.69 409.566 372.358C404.051 378.025 396.57 381.209 388.771 381.209H354.783C346.984 381.209 339.504 378.026 333.99 372.359C328.475 366.692 325.377 359.006 325.377 350.991V314.839C325.377 306.824 328.475 299.137 333.99 293.47C339.506 287.802 346.986 284.618 354.786 284.618H388.773C396.573 284.619 404.052 287.803 409.567 293.471C415.082 299.138 418.18 306.824 418.18 314.839Z" fill="#B75742"/>
<path d="M357.261 317.347C358.907 317.347 360.242 315.976 360.242 314.285C360.242 312.593 358.907 311.222 357.261 311.222C355.616 311.222 354.281 312.593 354.281 314.285C354.281 315.976 355.616 317.347 357.261 317.347Z" fill="#F47458"/>
<path d="M373.296 315.456C373.926 313.893 373.203 312.102 371.683 311.455C370.162 310.807 368.419 311.55 367.789 313.112C367.159 314.675 367.881 316.466 369.402 317.113C370.922 317.761 372.666 317.019 373.296 315.456Z" fill="#F47458"/>
<path d="M384.319 317.287C385.943 317.016 387.047 315.443 386.783 313.774C386.519 312.104 384.988 310.97 383.364 311.241C381.739 311.512 380.636 313.085 380.899 314.755C381.163 316.424 382.694 317.558 384.319 317.287Z" fill="#F47458"/>
<path d="M357.261 328.466C358.907 328.466 360.242 327.095 360.242 325.403C360.242 323.712 358.907 322.341 357.261 322.341C355.616 322.341 354.281 323.712 354.281 325.403C354.281 327.095 355.616 328.466 357.261 328.466Z" fill="#F47458"/>
<path d="M373.296 326.575C373.926 325.012 373.203 323.221 371.683 322.573C370.162 321.926 368.419 322.668 367.789 324.231C367.159 325.794 367.881 327.585 369.402 328.232C370.922 328.88 372.666 328.137 373.296 326.575Z" fill="#F47458"/>
<path d="M384.319 328.406C385.943 328.135 387.047 326.562 386.783 324.893C386.519 323.223 384.988 322.09 383.364 322.361C381.739 322.632 380.636 324.205 380.899 325.874C381.163 327.544 382.694 328.677 384.319 328.406Z" fill="#F47458"/>
<path d="M357.259 333.456C356.669 333.456 356.092 333.635 355.601 333.972C355.11 334.308 354.728 334.787 354.501 335.347C354.275 335.907 354.216 336.523 354.33 337.118C354.445 337.713 354.729 338.259 355.146 338.688C355.563 339.117 356.095 339.41 356.673 339.528C357.252 339.647 357.852 339.586 358.397 339.354C358.943 339.122 359.409 338.729 359.737 338.225C360.064 337.721 360.24 337.128 360.24 336.522C360.24 336.119 360.163 335.721 360.013 335.349C359.864 334.977 359.644 334.639 359.368 334.354C359.091 334.07 358.762 333.844 358.4 333.69C358.039 333.536 357.651 333.456 357.259 333.456Z" fill="#F47458"/>
<path d="M370.533 333.456C369.943 333.456 369.366 333.635 368.875 333.972C368.384 334.308 368.001 334.787 367.775 335.347C367.549 335.907 367.489 336.523 367.604 337.118C367.719 337.713 368.003 338.259 368.42 338.688C368.837 339.117 369.368 339.41 369.947 339.528C370.526 339.647 371.126 339.586 371.671 339.354C372.216 339.122 372.682 338.729 373.01 338.225C373.338 337.721 373.513 337.128 373.513 336.522C373.513 335.709 373.199 334.93 372.64 334.355C372.081 333.78 371.323 333.457 370.533 333.456Z" fill="#F47458"/>
<path d="M383.835 333.456C383.245 333.456 382.668 333.636 382.177 333.973C381.687 334.31 381.304 334.789 381.079 335.349C380.853 335.909 380.794 336.525 380.909 337.12C381.024 337.714 381.308 338.261 381.725 338.689C382.142 339.118 382.674 339.41 383.253 339.528C383.831 339.647 384.431 339.586 384.976 339.354C385.521 339.122 385.987 338.729 386.315 338.225C386.643 337.721 386.818 337.128 386.818 336.522C386.818 336.119 386.741 335.72 386.591 335.348C386.442 334.976 386.222 334.638 385.945 334.353C385.668 334.069 385.339 333.843 384.977 333.689C384.615 333.535 384.226 333.456 383.835 333.456Z" fill="#F47458"/>
<path d="M203.664 394.573C203.664 395.373 204.414 396.017 205.349 396.017H622.644C623.571 396.017 624.329 395.367 624.329 394.573C624.329 393.774 623.582 393.13 622.644 393.13H205.338C204.414 393.13 203.664 393.774 203.664 394.573Z" fill="#13375B"/>
<path d="M309.906 393.419C309.906 393.419 348.748 394.781 357.264 390.633C365.781 386.486 357.52 381.004 357.52 381.004C357.52 381.004 375.974 376.507 377.182 370.59C378.39 364.673 369.539 365.6 369.539 365.6C369.539 365.6 387.215 352.899 384.682 349.006C379.96 341.746 359.963 354.536 359.963 354.536C359.963 354.536 366.615 347.733 361.93 345.207C354.857 341.397 344.585 359.72 344.585 359.72C344.585 359.72 345.099 355.286 339.658 355.012C329.914 354.519 309.906 393.419 309.906 393.419Z" fill="#466EB6"/>
<path d="M339.327 351.811C344.768 352.1 344.594 359.714 344.594 359.714C344.594 359.714 354.939 338.066 362.009 341.879C366.697 344.405 361.605 353.517 361.605 353.517C361.605 353.517 379.958 341.74 384.68 349L313.148 390.628C315.463 386.073 330.212 351.355 339.327 351.811Z" fill="#355389"/>
<path d="M308.448 393.419C308.448 393.419 341.874 369.525 346.672 359.021C351.469 348.518 342.273 349.392 342.273 349.392C342.273 349.392 356.02 330.792 352.756 324.367C349.492 317.942 341.987 325.729 341.987 325.729C341.987 325.729 348.939 300.147 343.706 298.522C333.956 295.5 324.423 327.897 324.423 327.897C324.423 327.897 320.771 309.975 314.569 311.306C305.201 313.327 314.549 339.812 314.549 339.812C314.549 339.812 311.785 331.179 306.55 335.194C297.148 342.364 308.448 393.419 308.448 393.419Z" fill="#466EB6"/>
<path d="M297.404 335.595C303.303 332.726 304.491 326.693 304.491 326.693C304.491 326.693 304.53 311.71 313.898 309.701C320.111 308.37 324.459 320.407 324.459 320.407C324.459 320.407 333.959 295.5 343.709 298.525L308.35 393.02C307.117 386.994 290.376 339.01 297.404 335.595Z" fill="#355389"/>
<path d="M149.527 397.604C149.527 397.604 69.597 354.524 55.3588 332.005C41.1205 309.485 58.5019 307.649 58.5019 307.649C58.5019 307.649 21.2925 269.464 26.798 253.679C32.3034 237.893 51.901 253.312 51.901 253.312C51.901 253.312 28.121 196.929 39.6206 191.511C61.0383 181.409 90.1328 241.478 90.1328 241.478C90.1328 241.478 84.0488 215.477 98.6972 216.516C120.786 218.086 119.118 276.692 119.118 276.692C119.118 276.692 121.904 254.25 135.128 261.732C158.869 275.157 149.527 397.604 149.527 397.604Z" fill="#355389"/>
<path d="M140.058 252.732C129.729 246.656 119.142 263.856 119.142 263.856C119.142 263.856 120.783 218.086 98.6938 216.519C84.0454 215.48 90.1295 241.481 90.1295 241.481C90.1295 241.481 61.035 181.42 39.6172 191.511L149.633 396.652C150.61 382.45 160.515 264.762 140.058 252.732Z" fill="#466EB6"/>
<path d="M148.848 397.353C148.848 397.353 79.55 404.211 61.8793 395.849C44.2085 387.487 57.2839 378.147 57.2839 378.147C57.2839 378.147 19.0999 369.303 16.4595 357.116C13.8192 344.93 32.1191 346.639 32.1191 346.639C32.1191 346.639 -4.65211 320.854 0.493776 312.746C10.0749 297.647 51.6156 323.576 51.6156 323.576C51.6156 323.576 37.7312 309.692 47.3545 304.367C61.8652 296.337 83.4768 333.91 83.4768 333.91C83.4768 333.91 82.3167 324.768 93.5383 324.076C113.67 322.834 148.848 397.353 148.848 397.353Z" fill="#355389"/>
<path d="M94.1659 317.474C82.9444 318.167 83.4724 333.91 83.4724 333.91C83.4724 333.91 61.6361 289.479 47.1254 297.509C37.5021 302.834 48.2152 321.524 48.2152 321.524C48.2152 321.524 10.0733 297.647 0.492188 312.746L149.082 396.966C144.189 387.623 112.971 316.314 94.1659 317.474Z" fill="#466EB6"/>
<path d="M450.803 99.821C450.142 102.199 448.81 104.323 446.974 105.923C445.139 107.523 442.883 108.528 440.492 108.811C438.101 109.093 435.682 108.641 433.541 107.511C431.399 106.381 429.632 104.624 428.463 102.463C427.293 100.301 426.774 97.8312 426.97 95.366C427.166 92.9008 428.07 90.5508 429.565 88.6131C431.061 86.6753 433.083 85.2369 435.374 84.4796C437.665 83.7223 440.124 83.6801 442.439 84.3585C443.976 84.8087 445.412 85.5659 446.665 86.5868C447.918 87.6077 448.962 88.8724 449.739 90.3084C450.516 91.7444 451.01 93.3236 451.193 94.9559C451.375 96.5881 451.243 98.2413 450.803 99.821Z" fill="#F7CC7F"/>
<path d="M432.323 96.4583C432.087 97.3032 432.015 98.1876 432.112 99.061C432.209 99.9343 432.473 100.779 432.888 101.548C433.303 102.316 433.862 102.993 434.531 103.54C435.201 104.087 435.97 104.492 436.792 104.733C437.615 104.975 438.475 105.047 439.325 104.946C440.175 104.845 440.997 104.573 441.744 104.146C442.492 103.718 443.15 103.143 443.681 102.454C444.212 101.765 444.605 100.975 444.839 100.13L432.323 96.4583Z" fill="#EFEFEF"/>
<path d="M388.587 21.3364L381.868 20.7793L380.953 27.1641L374.312 26.9159L372.703 32.9081L367.703 33.5546L368.023 36.1582L374.711 35.2894L376.234 29.6118L383.144 29.8715L384.045 23.5907L390.132 24.0958L388.587 21.3364Z" fill="#F48C7F"/>
<path d="M133.223 104.76L132.894 108.965L126.251 109.17L125.032 115.258L120.086 116.245L120.575 118.817L127.19 117.497L128.344 111.727L135.254 111.517L135.748 105.19L133.223 104.76Z" fill="#F48C7F"/>
<path d="M310.459 192.354H218.777C214.016 192.354 210.156 196.32 210.156 201.212V385.221C210.156 390.114 214.016 394.08 218.777 394.08H310.459C315.22 394.08 319.079 390.114 319.079 385.221V201.212C319.079 196.32 315.22 192.354 310.459 192.354Z" fill="#184655"/>
<path d="M312.148 385.221V201.212C312.148 200.253 311.391 199.475 310.457 199.475H218.775C217.841 199.475 217.084 200.253 217.084 201.212V385.221C217.084 386.181 217.841 386.959 218.775 386.959H310.457C311.391 386.959 312.148 386.181 312.148 385.221Z" fill="#3C8F7C"/>
<path d="M270.886 243.63C279.737 241.191 284.988 231.841 282.615 222.746C280.242 213.651 271.143 208.255 262.292 210.693C253.441 213.132 248.19 222.482 250.563 231.578C252.936 240.673 262.035 246.069 270.886 243.63Z" fill="#355389"/>
<path d="M272.383 227.161C272.383 228.338 272.043 229.488 271.407 230.466C270.771 231.445 269.867 232.207 268.809 232.657C267.751 233.108 266.586 233.225 265.463 232.996C264.34 232.766 263.309 232.199 262.499 231.367C261.69 230.534 261.139 229.474 260.916 228.32C260.693 227.166 260.808 225.97 261.246 224.883C261.685 223.796 262.427 222.867 263.38 222.213C264.332 221.56 265.452 221.212 266.597 221.212C267.357 221.212 268.109 221.366 268.812 221.665C269.514 221.964 270.152 222.402 270.689 222.955C271.226 223.507 271.653 224.163 271.943 224.885C272.234 225.607 272.383 226.38 272.383 227.161Z" fill="#184655"/>
<path d="M283.225 310.31C292.411 300.871 292.411 285.567 283.225 276.127C274.039 266.688 259.146 266.688 249.96 276.127C240.775 285.567 240.775 300.871 249.96 310.31C259.146 319.749 274.039 319.749 283.225 310.31Z" fill="#355389"/>
<path d="M274.8 293.22C274.8 294.887 274.319 296.517 273.417 297.904C272.516 299.29 271.234 300.371 269.735 301.009C268.236 301.647 266.586 301.814 264.995 301.489C263.403 301.164 261.941 300.361 260.794 299.182C259.646 298.002 258.865 296.5 258.548 294.865C258.232 293.229 258.394 291.534 259.015 289.993C259.636 288.453 260.688 287.136 262.037 286.209C263.386 285.283 264.973 284.788 266.595 284.788C268.771 284.788 270.858 285.677 272.397 287.258C273.936 288.839 274.8 290.984 274.8 293.22Z" fill="#184655"/>
<path d="M267.328 378.954C280.234 377.429 289.493 365.442 288.008 352.18C286.524 338.918 274.859 329.403 261.954 330.929C249.048 332.454 239.789 344.441 241.273 357.702C242.757 370.964 254.422 380.479 267.328 378.954Z" fill="#355389"/>
<path d="M272.834 355.255C272.978 350.601 269.423 346.708 264.894 346.56C260.365 346.412 256.576 350.065 256.432 354.719C256.289 359.373 259.843 363.266 264.372 363.414C268.902 363.562 272.69 359.909 272.834 355.255Z" fill="#184655"/>
<path d="M505.138 108.342L510.497 108.902C510.631 108.916 510.759 108.963 510.871 109.039C510.984 109.115 511.077 109.217 511.143 109.338L513.722 114.115C513.798 114.252 513.91 114.366 514.045 114.443C514.18 114.519 514.332 114.557 514.487 114.551C514.641 114.544 514.79 114.495 514.919 114.407C515.047 114.32 515.15 114.197 515.216 114.054L517.398 109.078C517.455 108.953 517.54 108.844 517.646 108.759C517.752 108.675 517.876 108.618 518.008 108.593L523.303 107.591C523.452 107.564 523.592 107.494 523.705 107.389C523.818 107.284 523.9 107.149 523.942 106.999C523.984 106.849 523.984 106.689 523.943 106.539C523.901 106.389 523.82 106.253 523.707 106.148L519.699 102.511C519.596 102.422 519.517 102.308 519.468 102.18C519.419 102.051 519.402 101.912 519.418 101.775L520.109 96.3775C520.123 96.2212 520.095 96.0639 520.028 95.9226C519.962 95.7813 519.859 95.6612 519.731 95.5753C519.603 95.4893 519.455 95.4406 519.303 95.4345C519.15 95.4284 518.999 95.465 518.865 95.5404L514.205 98.2681C514.087 98.3368 513.956 98.3756 513.821 98.3811C513.686 98.3867 513.552 98.3588 513.429 98.2999L508.562 95.9676C508.422 95.9038 508.269 95.88 508.118 95.8988C507.966 95.9175 507.823 95.9781 507.702 96.0741C507.582 96.17 507.489 96.2978 507.433 96.4438C507.378 96.5897 507.362 96.7484 507.387 96.9028L508.511 102.225C508.539 102.36 508.534 102.499 508.497 102.63C508.46 102.762 508.393 102.883 508.3 102.982L504.598 106.936C504.494 107.052 504.425 107.196 504.397 107.351C504.369 107.506 504.384 107.666 504.44 107.812C504.496 107.959 504.591 108.086 504.715 108.18C504.838 108.274 504.985 108.33 505.138 108.342Z" fill="#96D9C9"/>
<path d="M194.15 169.99L199.509 170.567C199.643 170.581 199.771 170.628 199.883 170.703C199.995 170.778 200.089 170.88 200.155 171L202.734 175.777C202.81 175.915 202.922 176.028 203.057 176.105C203.192 176.182 203.345 176.219 203.499 176.213C203.653 176.207 203.802 176.157 203.931 176.07C204.06 175.982 204.162 175.86 204.228 175.716L206.413 170.74C206.467 170.614 206.55 170.502 206.655 170.416C206.759 170.329 206.883 170.269 207.014 170.241L212.312 169.239C212.461 169.211 212.6 169.141 212.713 169.036C212.826 168.931 212.907 168.796 212.949 168.646C212.991 168.496 212.991 168.337 212.949 168.187C212.908 168.036 212.826 167.901 212.714 167.796L208.7 164.148C208.598 164.058 208.519 163.944 208.47 163.816C208.421 163.687 208.404 163.549 208.419 163.412L209.113 158.014C209.126 157.858 209.098 157.7 209.032 157.559C208.965 157.418 208.863 157.298 208.735 157.212C208.607 157.126 208.459 157.077 208.306 157.071C208.154 157.065 208.002 157.102 207.868 157.177L203.228 159.908C203.111 159.976 202.979 160.015 202.844 160.021C202.709 160.026 202.575 159.998 202.453 159.939L197.588 157.598C197.449 157.535 197.295 157.511 197.144 157.53C196.992 157.548 196.849 157.609 196.728 157.705C196.608 157.801 196.515 157.929 196.459 158.075C196.404 158.221 196.388 158.379 196.414 158.534L197.537 163.856C197.566 163.99 197.562 164.129 197.526 164.261C197.489 164.393 197.422 164.514 197.329 164.612L193.63 168.567C193.522 168.681 193.448 168.825 193.416 168.981C193.384 169.136 193.396 169.299 193.451 169.448C193.505 169.597 193.6 169.727 193.723 169.823C193.847 169.919 193.995 169.977 194.15 169.99Z" fill="#F7CC7F"/>
<path d="M501.758 166.183L507.117 166.76C507.251 166.774 507.38 166.821 507.492 166.897C507.604 166.973 507.697 167.075 507.763 167.196L510.342 171.973C510.418 172.11 510.53 172.224 510.665 172.301C510.8 172.378 510.953 172.415 511.107 172.409C511.261 172.403 511.411 172.353 511.539 172.265C511.668 172.178 511.771 172.056 511.836 171.912L514.027 166.922C514.084 166.797 514.169 166.688 514.275 166.603C514.381 166.519 514.505 166.462 514.637 166.437L519.932 165.435C520.081 165.408 520.221 165.337 520.333 165.233C520.446 165.128 520.529 164.993 520.571 164.843C520.613 164.693 520.613 164.533 520.572 164.383C520.53 164.232 520.449 164.097 520.336 163.992L516.328 160.355C516.226 160.265 516.147 160.151 516.098 160.023C516.049 159.895 516.031 159.756 516.047 159.619L516.741 154.221C516.754 154.065 516.726 153.908 516.66 153.766C516.593 153.625 516.491 153.505 516.363 153.419C516.235 153.333 516.087 153.284 515.934 153.278C515.782 153.272 515.63 153.309 515.496 153.384L510.834 156.112C510.716 156.181 510.585 156.219 510.45 156.225C510.315 156.23 510.181 156.203 510.058 156.144L505.193 153.811C505.054 153.748 504.901 153.724 504.749 153.743C504.598 153.761 504.454 153.822 504.334 153.918C504.213 154.014 504.12 154.142 504.065 154.288C504.01 154.434 503.994 154.592 504.019 154.747L505.143 160.069C505.171 160.203 505.168 160.342 505.131 160.474C505.095 160.606 505.028 160.727 504.935 160.825L501.233 164.78C501.129 164.895 501.059 165.037 501.03 165.191C501.002 165.344 501.015 165.503 501.07 165.649C501.125 165.796 501.218 165.923 501.34 166.017C501.461 166.111 501.606 166.169 501.758 166.183Z" fill="#F7CC7F"/>
<path d="M479.446 270.792C479.21 270.893 482.558 275.327 485.819 278.461C488.448 281.853 490.915 285.865 491.763 290.244C493.055 296.883 491.982 329.788 493.103 332.097C502.754 341.792 509.74 366.119 511.703 373.543C512.088 374.985 512.861 376.285 513.933 377.295L513.504 385.683L508.709 390.244C508.709 390.244 509.776 383.406 507.644 378.337C507.644 378.337 483.35 340.525 481.906 337.639C479.151 329.41 469.118 287.242 469.118 287.242L466.789 277.549L479.446 270.792Z" fill="#F7A491"/>
<path d="M519.18 380.02C519.18 380.02 516.143 384.826 515.885 386.699C515.626 388.573 514.008 392.818 512.233 393.087C511.826 393.147 504.874 393.664 504.93 392.781C504.969 392.097 507.486 391.124 508.655 390.296C510.674 388.853 513.809 377.186 513.809 377.186C513.809 377.186 519.048 378.525 519.18 380.02Z" fill="#F47458"/>
<path d="M458.676 285.363C458.676 285.363 443.028 319.743 442.93 325.787C442.843 330.983 445.666 360.043 444.876 384.252C444.848 385.117 443.772 386.289 442.202 387.025C441.32 387.441 437.146 389.537 437.146 389.537L436.461 390.98L451.137 389.903L451.435 386.408L451.345 385.787C451.345 385.787 457.185 349.571 456.589 339.316C456.497 337.708 455.747 328.076 455.747 328.076L473.395 293.061L462.294 278.075L458.676 285.363Z" fill="#F7A491"/>
<path d="M439.523 310.377L470.236 264.771C472.074 265.59 473.987 266.219 475.946 266.647C480.351 267.513 484.758 267.381 489.218 267.225C489.217 267.374 489.226 267.524 489.244 267.672C489.758 271.424 494.609 277.252 495.609 288.659C496.732 301.608 496.058 324.099 495.673 325.574C475.261 323.039 445.315 316.623 439.523 310.377Z" fill="#13375B"/>
<path d="M479.626 204.003C479.505 205.334 478.82 206.353 478.095 206.275C477.371 206.197 476.882 205.06 477.003 203.729C477.123 202.399 477.812 201.383 478.536 201.458C479.261 201.533 479.764 202.673 479.626 204.003Z" fill="#F7A491"/>
<path d="M451.59 393.289H432.337C432.195 393.268 432.061 393.208 431.949 393.115C431.838 393.022 431.753 392.9 431.704 392.761C431.655 392.622 431.643 392.472 431.671 392.327C431.698 392.182 431.764 392.048 431.86 391.938C432.467 391.318 434.731 390.688 437.16 389.537C441.424 389.993 450.775 387.392 451.449 386.39C451.837 388.399 451.972 393.202 451.59 393.289Z" fill="#F47458"/>
<path d="M432.938 229.202C433.034 228.948 433.256 229.15 433.534 229.577C433.177 228.033 433.225 226.093 433.508 225.92C433.857 225.706 434.07 228.411 434.834 229.874C435.598 231.338 436.317 233.145 436.424 233.064C436.595 232.937 435.511 230.968 434.739 229.465C433.966 227.961 434.559 221.053 435.27 226.001C435.98 230.948 440.643 234.738 440.778 233.217C440.913 231.696 440.132 229.398 441.092 229.736C442.053 230.074 442.334 233.471 443.177 235.933C443.275 236.222 443.283 237.088 443.278 238.106C443.276 238.366 443.353 238.619 443.497 238.832C443.642 239.045 443.847 239.207 444.084 239.296L456.333 243.874L464.333 229.557L473.381 231.54C473.381 231.54 466.103 250.994 459.898 253.927C457.069 255.263 443.851 245.741 438.651 241.227C433.52 236.782 432.542 230.287 432.938 229.202Z" fill="#F7A491"/>
<path d="M468.319 220.569C465.125 222.136 456.977 241.567 456.977 241.567L467.457 248.168L470.771 238.285C470.771 238.285 472.249 218.643 468.319 220.569Z" fill="#F7CC7F"/>
<path d="M471.337 204.76C469.781 200.791 468.247 196.79 469.997 191.915C471.401 187.969 474.516 185.36 478.404 184.315C489.423 181.354 489.252 188.994 505.19 187.395C521.675 185.741 528.295 204.156 526.77 210.252C519.467 239.405 486.707 225.201 482.269 220.355C478.971 216.77 472.342 207.317 471.337 204.76Z" fill="#B75742"/>
<path d="M492.989 218.941C492.989 218.941 494.761 218.857 499.545 221.103C504.328 223.348 514.589 237.951 514.589 237.951L506.241 244.63L491.938 235.018C491.938 235.018 490.113 218.941 492.989 218.941Z" fill="#F7CC7F"/>
<path d="M467.445 267.21C472.366 269.897 491.298 269.462 491.298 269.462C491.768 264.405 494.276 250.864 495.371 239.988C496.75 232.417 494.478 230.247 492.978 218.941C492.978 218.866 485.341 218.32 485.341 218.32L477.406 218.519C477.406 218.519 470.504 219.096 468.308 220.569C468.156 220.672 467.282 233.448 467.965 242.505C468.431 248.679 469.111 253.658 469.069 257.737C469.004 263.657 467.445 267.21 467.445 267.21Z" fill="#FAE0B2"/>
<path d="M465.894 236.282C466.052 241.108 472.11 245.755 480.722 245.755C489.335 245.755 496.315 241.841 496.315 237.01C496.315 232.178 490.593 225.386 481.989 225.386C473.386 225.386 465.698 230.16 465.894 236.282Z" fill="#FAE0B2"/>
<path d="M483.497 206.327C483.497 206.327 483.666 207.554 483.921 209.242C484.393 212.334 484.632 217.405 485.236 218.946C485.767 220.306 481.157 233.142 479.641 229.563C476.981 223.293 477.057 221.406 476.922 219.749C476.787 218.092 476.36 212.435 476.062 208.662C475.908 206.621 475.781 205.135 475.781 205.135L483.497 206.327Z" fill="#F7A491"/>
<path d="M476.037 208.584C475.891 206.587 475.781 205.12 475.781 205.12L483.486 206.324C483.486 206.324 483.683 207.479 483.896 209.107C480.773 210.971 477.964 210.385 476.037 208.584Z" fill="#F47458"/>
<path d="M481.085 188.408C483.093 188.983 484.835 190.276 485.998 192.054C487.874 194.992 489.161 203.648 482.984 207.689C476.807 211.73 472.004 206.015 471.925 200.442C471.847 194.868 473.021 187.424 481.085 188.408Z" fill="#F7A491"/>
<path d="M470.509 198.695C471.034 200.04 472.079 200.875 472.843 200.56C473.607 200.245 473.795 198.897 473.27 197.552C472.745 196.207 471.697 195.373 470.936 195.688C470.174 196.002 469.981 197.35 470.509 198.695Z" fill="#F7A491"/>
<path d="M480.164 188.226C480.164 188.226 484.035 197.148 487.436 197.948C490.838 198.747 490.79 203.233 490.79 203.233C490.79 203.233 490.714 192.865 487.526 190.486C484.338 188.108 480.164 188.226 480.164 188.226Z" fill="#B75742"/>
<path d="M486.095 199.801C485.648 201.244 486.058 202.687 487.01 202.976C487.963 203.264 489.1 202.367 489.538 200.915C489.977 199.463 489.578 198.029 488.623 197.74C487.668 197.451 486.544 198.352 486.095 199.801Z" fill="#F7A491"/>
<path d="M420.878 222.807L426.195 213.107L425.452 212.677L420.136 222.378L420.878 222.807Z" fill="#FFD09F"/>
<path d="M420.878 222.805L426.195 213.104L425.765 212.855L420.448 222.556L420.878 222.805Z" fill="#FFB769"/>
<path d="M425.201 226.9L430.367 217.374L429.621 216.947L424.455 226.473L425.201 226.9Z" fill="#FFD09F"/>
<path d="M425.201 226.898L430.367 217.373L429.813 217.055L424.647 226.581L425.201 226.898Z" fill="#FFB769"/>
<path d="M428.928 229.038L434.094 219.512L433.348 219.085L428.182 228.61L428.928 229.038Z" fill="#FFD09F"/>
<path d="M428.928 229.038L434.094 219.512L433.64 219.252L428.474 228.778L428.928 229.038Z" fill="#FFB769"/>
<path d="M493.247 286.414C489.876 283.27 487.767 276.732 486.506 274.094C486.506 274.094 484.86 270.648 479.913 270.567C477.152 270.488 474.47 269.608 472.175 268.028C469.881 266.448 468.068 264.233 466.947 261.639C464.419 255.82 470.548 247.057 470.548 247.057L470.829 246.567C470.829 246.567 474.866 236.614 481.006 235.751C483.742 235.368 486.528 235.788 489.042 236.963C491.556 238.138 493.695 240.019 495.213 242.39C497.882 246.67 501.598 246.298 501.598 246.298C504.443 246.009 510.963 244.413 515.342 245.721C519.431 246.933 522.681 250.03 524.664 253.944C526.816 258.193 527.192 264.006 524.077 271.306C523.912 271.696 522.277 275.131 521.732 276.06C521.249 277.027 519.266 280.263 519.03 280.612C514.617 287.161 509.617 289.903 504.968 290.255C500.685 290.564 496.413 289.355 493.247 286.414Z" fill="#F47458"/>
<path d="M482.115 264.231C486.14 266.541 491.362 264.809 493.772 260.361C496.182 255.913 494.873 250.443 490.845 248.134C486.817 245.825 481.596 247.557 479.186 252.005C476.775 256.452 478.079 261.922 482.115 264.231Z" fill="#B75742"/>
<path d="M483.628 261.411C486.243 262.909 489.636 261.784 491.212 258.897C492.788 256.011 491.928 252.455 489.31 250.954C486.692 249.453 483.302 250.582 481.726 253.468C480.15 256.354 481.013 259.913 483.628 261.411Z" fill="#13375B"/>
<path d="M420.519 212.005C418.936 212.855 417.626 214.16 416.749 215.761C415.873 217.361 415.467 219.189 415.581 221.022V221.1L430.797 228.893C431.446 228.677 433.645 229.208 433.645 229.208L436.715 223.55C436.715 223.55 435.117 221.908 434.954 221.241L420.514 212.031L420.519 212.005ZM431.671 223.798L423.244 218.485C422.918 218.261 422.692 217.914 422.614 217.519C422.535 217.125 422.611 216.715 422.825 216.377C422.92 216.204 423.047 216.052 423.199 215.929C423.35 215.806 423.524 215.716 423.71 215.662C423.896 215.608 424.091 215.593 424.283 215.617C424.475 215.64 424.66 215.703 424.828 215.8L433.255 221.114C433.58 221.338 433.807 221.685 433.885 222.079C433.964 222.474 433.887 222.884 433.673 223.221C433.579 223.395 433.453 223.547 433.301 223.67C433.149 223.793 432.975 223.884 432.789 223.938C432.603 223.992 432.408 224.007 432.216 223.983C432.024 223.959 431.839 223.896 431.671 223.798ZM420.486 220.713C420.652 220.348 420.952 220.065 421.32 219.927C421.689 219.788 422.095 219.804 422.452 219.971L431.28 224.534C431.449 224.631 431.597 224.761 431.716 224.917C431.836 225.073 431.924 225.251 431.976 225.442C432.029 225.633 432.044 225.833 432.021 226.03C431.998 226.227 431.937 226.417 431.842 226.59C431.676 226.955 431.375 227.237 431.007 227.375C430.639 227.514 430.232 227.497 429.876 227.329L421.047 222.765C420.709 222.569 420.459 222.243 420.354 221.858C420.248 221.474 420.296 221.062 420.486 220.713Z" fill="#FF7700"/>
<path d="M481.733 253.468C480.958 254.883 480.756 256.554 481.171 258.121L433.664 229.182L436.734 223.524L485.966 250.351C485.077 250.507 484.234 250.869 483.5 251.409C482.767 251.949 482.163 252.653 481.733 253.468Z" fill="#184655"/>
<path d="M502.035 279.113L513.531 257.914L510.459 256.155L498.963 277.354L502.035 279.113Z" fill="#B75742"/>
<path d="M435.072 219.905L435.089 219.873C435.149 219.761 435.164 219.628 435.13 219.505C435.096 219.382 435.015 219.277 434.906 219.215L433.123 218.213C433.013 218.151 432.885 218.136 432.765 218.171C432.645 218.206 432.543 218.289 432.482 218.401L432.465 218.433C432.405 218.545 432.39 218.677 432.424 218.8C432.459 218.924 432.539 219.028 432.648 219.091L434.42 220.107C434.476 220.139 434.537 220.159 434.6 220.166C434.663 220.173 434.727 220.167 434.788 220.148C434.849 220.129 434.905 220.098 434.954 220.056C435.003 220.014 435.043 219.963 435.072 219.905Z" fill="#184655"/>
<path d="M431.331 217.757L431.348 217.725C431.379 217.669 431.399 217.607 431.406 217.543C431.414 217.479 431.409 217.414 431.392 217.352C431.374 217.29 431.345 217.232 431.306 217.182C431.266 217.131 431.218 217.089 431.162 217.059L429.39 216.043C429.28 215.98 429.151 215.965 429.031 216C428.91 216.035 428.808 216.118 428.747 216.23L428.733 216.262C428.702 216.317 428.683 216.378 428.675 216.441C428.668 216.504 428.673 216.568 428.689 216.629C428.706 216.691 428.734 216.748 428.773 216.798C428.811 216.848 428.858 216.889 428.912 216.92L430.685 217.936C430.794 218 430.923 218.017 431.044 217.984C431.165 217.95 431.268 217.869 431.331 217.757Z" fill="#184655"/>
<path d="M427.842 215.552L427.859 215.52C427.919 215.408 427.934 215.276 427.9 215.152C427.866 215.029 427.785 214.925 427.676 214.862L425.904 213.846C425.795 213.784 425.666 213.769 425.546 213.804C425.426 213.839 425.324 213.922 425.263 214.034L425.247 214.065C425.186 214.178 425.171 214.31 425.206 214.433C425.24 214.557 425.32 214.661 425.429 214.724L427.202 215.74C427.311 215.802 427.439 215.817 427.559 215.782C427.679 215.746 427.781 215.664 427.842 215.552Z" fill="#184655"/>
<path d="M422.404 225.588L422.421 225.556C422.482 225.444 422.496 225.312 422.462 225.188C422.428 225.065 422.348 224.961 422.239 224.898L420.466 223.882C420.357 223.82 420.228 223.805 420.108 223.84C419.988 223.875 419.887 223.958 419.826 224.07L419.809 224.102C419.749 224.214 419.734 224.346 419.768 224.469C419.802 224.593 419.883 224.697 419.992 224.76L421.764 225.776C421.873 225.838 422.002 225.853 422.122 225.818C422.242 225.783 422.344 225.7 422.404 225.588Z" fill="#184655"/>
<path d="M426.038 227.525L426.055 227.493C426.116 227.381 426.13 227.249 426.096 227.125C426.062 227.002 425.981 226.898 425.873 226.835L424.1 225.819C423.991 225.757 423.862 225.742 423.742 225.777C423.622 225.812 423.521 225.895 423.46 226.007L423.443 226.038C423.413 226.094 423.393 226.155 423.386 226.218C423.379 226.281 423.384 226.345 423.401 226.406C423.418 226.468 423.446 226.525 423.485 226.575C423.523 226.624 423.571 226.666 423.625 226.696L425.395 227.712C425.449 227.744 425.509 227.764 425.571 227.771C425.632 227.778 425.695 227.773 425.755 227.756C425.814 227.738 425.87 227.709 425.919 227.669C425.968 227.63 426.008 227.581 426.038 227.525Z" fill="#184655"/>
<path d="M429.695 229.615V229.586C429.725 229.53 429.745 229.469 429.752 229.406C429.76 229.343 429.755 229.278 429.738 229.217C429.722 229.156 429.693 229.098 429.655 229.048C429.617 228.998 429.569 228.956 429.515 228.925L427.743 227.909C427.633 227.846 427.504 227.831 427.383 227.866C427.263 227.902 427.161 227.984 427.099 228.096L427.082 228.128C427.022 228.24 427.007 228.373 427.042 228.496C427.076 228.619 427.156 228.724 427.265 228.786L429.037 229.802C429.092 229.835 429.153 229.857 429.216 229.865C429.279 229.874 429.343 229.869 429.405 229.852C429.466 229.834 429.523 229.804 429.573 229.763C429.623 229.723 429.664 229.672 429.695 229.615Z" fill="#184655"/>
<path d="M433.664 229.193L436.734 223.536L437.358 223.876L434.274 229.566L433.664 229.193Z" fill="#96D9C9"/>
<path d="M437.875 231.765L441.055 225.897L441.319 226.041L438.131 231.921L437.875 231.765Z" fill="#96D9C9"/>
<path d="M441.742 234.12L445.029 228.062L445.29 228.206L441.998 234.276L441.742 234.12Z" fill="#96D9C9"/>
<path d="M445.031 236.126L448.405 229.903L448.669 230.048L445.29 236.282L445.031 236.126Z" fill="#96D9C9"/>
<path d="M448.328 238.13L451.789 231.748L452.053 231.889L448.584 238.285L448.328 238.13Z" fill="#96D9C9"/>
<path d="M451.367 239.98L454.912 233.448L455.173 233.589L451.623 240.136L451.367 239.98Z" fill="#96D9C9"/>
<path d="M454.406 241.83L458.033 235.145L458.294 235.289L454.662 241.986L454.406 241.83Z" fill="#96D9C9"/>
<path d="M456.977 243.394L460.67 236.582L460.931 236.727L457.232 243.55L456.977 243.394Z" fill="#96D9C9"/>
<path d="M459.539 244.959L463.303 238.02L463.564 238.164L459.795 245.115L459.539 244.959Z" fill="#96D9C9"/>
<path d="M462.031 246.471L465.863 239.408L466.124 239.553L462.287 246.624L462.031 246.471Z" fill="#96D9C9"/>
<path d="M464.352 247.886L468.245 240.71L468.506 240.851L464.607 248.041L464.352 247.886Z" fill="#96D9C9"/>
<path d="M466.555 249.222L470.504 241.937L470.768 242.081L466.81 249.378L466.555 249.222Z" fill="#96D9C9"/>
<path d="M470.516 251.635L474.572 244.156L474.836 244.298L470.771 251.791L470.516 251.635Z" fill="#96D9C9"/>
<path d="M472.445 252.816L476.555 245.239L476.819 245.383L472.701 252.971L472.445 252.816Z" fill="#96D9C9"/>
<path d="M474.016 253.777L478.167 246.122L478.428 246.266L474.271 253.933L474.016 253.777Z" fill="#96D9C9"/>
<path d="M475.695 254.79L479.892 247.054L480.153 247.196L475.951 254.946L475.695 254.79Z" fill="#96D9C9"/>
<path d="M425.445 218.15L425.672 217.732L424.482 217.05L424.255 217.468L425.445 218.15Z" fill="white"/>
<path d="M423.266 222.203L423.422 221.916L422.362 221.308L422.206 221.595L423.266 222.203Z" fill="white"/>
<path d="M429.061 220.192L429.234 219.872L427.959 219.141L427.785 219.461L429.061 220.192Z" fill="white"/>
<path d="M426.903 224.259L427.141 223.82L425.995 223.164L425.757 223.602L426.903 224.259Z" fill="white"/>
<path d="M432.764 222.188L432.961 221.825L431.859 221.194L431.662 221.557L432.764 222.188Z" fill="white"/>
<path d="M430.337 226.698L430.453 226.484L429.437 225.903L429.321 226.117L430.337 226.698Z" fill="white"/>
<path d="M468.445 250.377L472.445 242.999L472.709 243.14L468.701 250.532L468.445 250.377Z" fill="#96D9C9"/>
<path d="M489.03 265.839C489.08 265.96 487.364 266.341 485.811 266.8C484.257 267.259 481.698 267.265 481.819 267.649C481.912 267.938 483.485 268.125 484.931 268.01C484.569 268.168 484.403 268.321 484.594 268.448C485.384 268.968 489.912 268.676 494.066 266.858C498.22 265.04 522.422 251.39 519.969 247.548C519.068 246.134 515.194 242.064 512.978 239.252L506.638 244.321L509.902 247.984C504.903 253.485 497.262 259.451 496.858 259.74C495.799 260.519 493.768 259.847 493.299 259.835C490.771 259.766 487.535 259.737 486.993 260.603C486.451 261.469 488.796 261.18 490.192 261.619C491.588 262.058 486.951 265.83 482.134 265.519C477.316 265.207 482.763 267.415 484.353 266.962C485.943 266.509 488.937 265.631 489.03 265.839Z" fill="#F7A491"/>
<path d="M456.341 243.879L444.092 239.301C443.854 239.213 443.65 239.051 443.505 238.838C443.361 238.625 443.284 238.372 443.285 238.112C443.285 237.09 443.285 236.222 443.184 235.939C442.342 233.477 442.061 230.079 441.1 229.742C440.139 229.404 440.923 231.704 440.786 233.223C440.648 234.741 435.991 230.957 435.277 226.007C434.564 221.056 433.982 227.961 434.746 229.47C435.51 230.98 436.595 232.934 436.432 233.07C436.325 233.15 435.617 231.338 434.842 229.88C434.067 228.422 433.864 225.712 433.516 225.926C433.235 226.099 433.185 228.039 433.541 229.583C433.26 229.156 433.041 228.954 432.946 229.208C432.55 230.293 433.527 236.787 438.67 241.247C443.87 245.753 457.088 255.275 459.917 253.947L456.341 243.879Z" fill="#F7A491"/>
<path d="M291.25 119.29C291.25 119.29 291.511 118.542 291.3 116.914C291.038 115.133 290.663 113.372 290.177 111.641C289.977 111.17 296.092 108.35 296.092 108.35C296.092 108.35 306.224 106.572 307.609 105.219C308.993 103.865 310.21 103.227 309.642 104.526C308.617 106.873 305.991 110.452 305.387 110.971C304.783 111.491 297.095 114.501 296.96 114.519C296.825 114.536 297.457 119.645 297.457 119.645L291.25 119.29Z" fill="#F7A491"/>
<path d="M297.61 116.305C297.61 116.305 290.869 115.956 290.835 116.649C289.903 131.979 290.023 136.992 289.745 137.183C288.801 137.838 272.942 126.636 270.471 126.076C269.291 125.81 268.063 126.027 266.881 126.209C264.072 126.639 265.013 126.451 263.533 126.708L263.406 126.731L263.738 129.459C267.257 132.01 279.687 175.673 280.296 175.569C280.976 175.451 295.801 177.419 295.402 176.204C295.338 176.008 284.678 169.02 280.56 157.564C279.178 153.716 278.229 149.511 277.296 145.839C280.684 147.098 293.905 151.901 295.79 150.815C301.649 147.476 297.61 116.305 297.61 116.305Z" fill="#355389"/>
<path d="M331.531 192.383C331.531 192.383 346.168 201.53 346.837 203.386C347.798 206.061 359.643 200.947 356.62 200.748C355.926 200.701 353.682 200.398 353.491 200.323C352.474 199.913 338.854 186.61 338.854 186.61L331.531 192.383Z" fill="#F7A491"/>
<path d="M362.384 200.046L353.749 200.372C353.749 200.372 351.547 202.751 346.859 203.42C346.574 205.023 346.629 206.67 347.019 208.249C347.132 208.688 347.359 210.022 347.792 209.938C349.359 209.635 353.443 208.044 358.126 206.474C358.126 206.474 364.409 204.286 367.867 201.544C371.325 198.802 362.384 200.046 362.384 200.046Z" fill="#F7CC7F"/>
<path d="M268.413 172.66C268.413 172.66 278.415 173.156 288.963 169.228C301.164 164.679 314.72 160.196 319.066 162.13C322.565 163.686 346.669 192.931 346.669 192.931L339.458 199.812L313.965 176.649C313.965 176.649 286.511 191.038 279.921 190.616C264.919 189.672 263.318 177.645 268.413 172.66Z" fill="#B75742"/>
<path d="M278.389 164.947L289.585 175.734L272.041 183.654L268.406 172.66L278.389 164.947Z" fill="#B75742"/>
<path d="M304.664 217.252C304.664 217.252 305.99 233.97 305.945 236.834C305.9 239.697 314.119 247.256 312.855 244.428C312.574 243.778 311.757 241.605 311.731 241.397C311.599 240.283 312.096 220.967 312.096 220.967L304.664 217.252Z" fill="#F7A491"/>
<path d="M316.18 249.294L311.79 241.642C311.79 241.642 308.7 240.776 305.908 236.862C304.399 237.365 303.014 238.196 301.846 239.299C301.526 239.61 299.338 241.7 299.554 242.095C300.346 243.539 303.984 246.425 307.964 249.568C307.964 249.568 313.503 253.142 317.494 254.966C321.486 256.79 316.18 249.294 316.18 249.294Z" fill="#F7CC7F"/>
<path d="M316.756 182.5C312.784 178.216 284.591 177.128 284.591 177.128L275.114 162.829L259.297 175.722C259.297 175.722 262.614 189.47 264.325 193.041C266.606 197.803 278.102 196.657 285.111 195.728C291.549 194.862 303.475 194.79 303.475 194.79L303.663 231.37C303.663 231.37 311.7 232.235 313.865 231.684C314.098 231.618 321.696 187.825 316.756 182.5Z" fill="#F47458"/>
<path d="M263.522 126.748L253.955 128.466C253.955 128.466 253.744 128.573 253.674 128.593C252.907 128.838 256.949 157.584 258.893 168.267C260.836 178.949 262.777 183.302 262.777 183.302C262.777 183.302 275.561 179.327 279.381 177.241C280.968 176.375 284.397 170.711 284.397 170.711C284.397 170.711 279.622 165.533 276.49 156.568C274.072 149.641 270.645 137.269 269.212 134.773C265.929 129.023 263.522 126.748 263.522 126.748Z" fill="#96D9C9"/>
<path d="M253.203 119.708L253.939 128.477C253.939 128.477 261.447 138.753 264.47 136.825C266.998 135.206 263.652 127.101 263.652 127.101C263.652 127.101 262.964 125.233 262.065 123.1C261.436 121.611 260.869 119.983 260.753 118.75C260.475 115.745 253.203 119.708 253.203 119.708Z" fill="#F7A491"/>
<path d="M258.356 98.8743C258.356 98.8743 262.1 103.409 262.816 107.519C263.532 111.629 263.004 114.559 263.004 114.559L251.367 103.285L258.356 98.8743Z" fill="#184655"/>
<path d="M263.782 106.543C264.091 107.987 263.687 109.288 262.878 109.473C262.069 109.658 261.159 108.648 260.847 107.216C260.535 105.784 260.943 104.471 261.752 104.286C262.56 104.102 263.479 105.112 263.782 106.543Z" fill="#F48C7F"/>
<path d="M248.307 105.692C248.068 105.669 249.481 117.72 253.208 120.141C256.936 122.563 262.882 122.09 264.281 119.021C265.826 115.63 262.542 103.146 257.175 101.071C251.807 98.9955 248.307 105.692 248.307 105.692Z" fill="#F7A491"/>
<path d="M246.57 98.323C244.245 100.978 243.186 102.84 241.91 107.21C240.34 112.585 245.236 117.359 249.07 119.024C252.904 120.69 253.508 123.239 253.508 123.239L253.466 121.613C253.466 120.346 253.025 119.68 252.595 118.967C252.213 118.332 250.964 116.149 250.511 115.59C249.315 114.112 249.076 113.788 249.388 112.204C249.638 110.986 248.893 108.451 249.264 106.454L253.975 104.791C253.975 104.791 256.916 103.674 258.233 101.677C262.031 95.9417 252.688 91.2108 246.57 98.323Z" fill="#184655"/>
<path d="M250.7 113.384C251.447 114.634 251.481 116.008 250.773 116.455C250.065 116.903 248.889 116.253 248.139 115.012C247.389 113.771 247.358 112.386 248.066 111.938C248.773 111.491 249.95 112.134 250.7 113.384Z" fill="#F7A491"/>
<path d="M213.924 84.1535C214.742 86.4078 216.157 89.9523 216.157 89.9523C216.194 90.9712 216.39 95.1998 216.638 100.384L223.643 96.4641C223.643 96.4641 222.587 88.0935 222.857 87.5422C223.084 87.0746 223.612 87.5595 225.486 83.9717C226.025 82.9355 225.949 81.2094 225.949 81.2094C225.949 81.2094 225.84 79.0907 225.356 78.9493C225.131 78.9019 224.897 78.9387 224.695 79.0529C224.494 79.1672 224.339 79.3515 224.258 79.5728C224.135 79.9567 224.275 80.7966 224.151 81.1805C224.028 81.5644 223.028 82.133 222.562 82.1648C222.095 82.1965 221.904 75.933 221.904 75.933C221.904 75.933 221.952 74.1463 222.014 73.5546C222.064 73.0495 222.334 71.5601 222.334 71.5601C222.334 71.5601 222.615 69.4097 221.952 69.326C221.57 69.2769 220.828 71.0896 220.376 72.9687C219.902 74.9891 219.741 77.0962 219.534 77.0933C219.056 77.0933 218.913 73.6527 218.913 73.6527C218.913 73.6527 219.194 72.0392 219.104 71.3061C219.441 70.3507 219.542 68.6448 218.747 68.6015C218.601 68.6015 217.82 70.8414 217.82 70.8414C217.82 70.8414 217.59 72.3856 217.438 73.1101C217.157 74.3945 217.326 76.3458 217.211 77.2319C217.112 77.965 216.93 77.6937 216.845 77.7312C216.761 77.7688 216.778 76.7643 216.736 75.399C216.713 74.7092 216.548 73.9327 216.643 73.1361C216.714 72.3357 216.728 71.5312 216.685 70.7288C216.607 68.9536 215.562 69.2654 215.365 70.9193C215.292 71.5485 215.222 72.2355 215.149 72.9398C214.868 75.6472 215.185 78.1844 214.91 78.2393C214.556 78.3114 214.259 73.6585 214.259 73.6585C214.259 73.6585 213.416 71.1646 213.135 73.6065C212.936 75.3252 212.945 77.0627 213.163 78.779C213.303 79.4371 213.107 81.9021 213.924 84.1535Z" fill="#F8A492"/>
<path d="M253.944 128.483C253.944 128.483 244.357 129.185 241.762 128.339C240.189 127.828 226.751 119.166 226.751 119.166L223.748 91.9555L215.041 92.3337C215.041 92.3337 214.041 122.93 215.968 126.038C217.962 129.239 237.529 141.048 241.809 146.67C244.281 149.915 251.744 193.832 252.449 194.181C257.382 196.098 274.359 199.954 273.842 198.476C259.708 157.965 253.944 128.483 253.944 128.483Z" fill="#355389"/>
<path d="M294.477 111.704C294.477 111.704 297.005 110.212 297.679 109.883C298.353 109.554 300.586 108.835 300.586 108.835C300.586 108.835 303.676 104.679 304.577 104.471C305.479 104.263 302.985 108.801 302.985 108.801L301.892 110.169C301.892 110.169 303.681 108.174 304.032 107.883C304.384 107.591 306.858 102.797 307.65 102.996C308.442 103.195 306.763 106.564 305.965 108.339C305.167 110.114 300.724 111.704 300.724 111.704H294.477Z" fill="#F7A491"/>
<path d="M302.945 103.236C302.88 103.161 296.322 95.7945 283.783 91.2599C265.887 84.7857 235.209 91.8805 226.116 71.5832C224.493 67.9607 224.417 65.1292 224.414 65.0108C224.422 64.9292 224.458 64.8535 224.517 64.7983C224.576 64.7431 224.653 64.7126 224.733 64.7126C224.813 64.7126 224.889 64.7431 224.948 64.7983C225.007 64.8535 225.044 64.9292 225.052 65.0108C225.052 65.0397 225.13 67.8511 226.709 71.3609C235.65 91.208 266.014 84.1536 284.01 90.6624C292.999 93.9212 300.411 99.3707 303.431 102.82C303.476 102.887 303.495 102.969 303.484 103.05C303.473 103.13 303.434 103.204 303.373 103.256C303.312 103.308 303.234 103.335 303.155 103.331C303.076 103.327 303.001 103.293 302.945 103.236Z" fill="#86B1F2"/>
<path d="M302.694 99.7575C302.447 99.4688 296.49 92.9022 285.316 88.8382C273.142 84.396 254.418 85.4841 243.166 80.3088C236.329 77.1626 232.989 72.6627 231.388 69.4414C229.649 65.9373 229.537 63.2125 229.531 63.0913C229.535 63.0091 229.569 62.9315 229.626 62.8737C229.684 62.816 229.76 62.7823 229.84 62.7794C229.92 62.7765 229.998 62.8046 230.059 62.8581C230.12 62.9115 230.159 62.9865 230.169 63.0682C230.169 63.1086 230.29 65.7988 231.972 69.1701C233.525 72.2874 236.775 76.6459 243.427 79.7055C254.564 84.826 273.249 83.7465 285.526 88.2176C296.852 92.3336 302.914 99.0272 303.164 99.3101C303.192 99.3415 303.214 99.3784 303.229 99.4186C303.243 99.4589 303.25 99.5017 303.248 99.5446C303.247 99.5875 303.237 99.6297 303.22 99.6687C303.202 99.7077 303.177 99.7428 303.147 99.7719C303.084 99.8308 303.002 99.8623 302.918 99.8596C302.833 99.8569 302.753 99.8203 302.694 99.7575Z" fill="#86B1F2"/>
<path d="M302.445 96.2765C299.791 93.3035 294.3 89.1528 286.848 86.4193C275.087 82.0897 259.101 82.2023 249.054 77.8727C241.897 74.7871 238.38 70.4286 236.667 67.317C234.816 63.9255 234.67 61.2931 234.664 61.1834C234.667 61.1007 234.699 61.0221 234.756 60.9631C234.812 60.9042 234.888 60.8692 234.969 60.8652C235.049 60.8612 235.128 60.8884 235.19 60.9415C235.251 60.9946 235.291 61.0696 235.302 61.1516C235.302 61.1776 235.451 63.7667 237.243 67.0284C238.897 70.0418 242.33 74.2618 249.298 77.2665C254.374 79.4544 260.947 80.4849 267.904 81.5759C274.477 82.6064 281.272 83.6715 287.061 85.8045C294.623 88.5755 300.21 92.8041 302.914 95.8348C302.971 95.8988 303.001 95.9833 302.998 96.0699C302.994 96.1566 302.957 96.2381 302.895 96.2967C302.833 96.3552 302.75 96.386 302.666 96.3822C302.582 96.3784 302.502 96.3404 302.445 96.2765Z" fill="#86B1F2"/>
<path d="M302.196 92.7983C290.826 80.0606 267.796 80.5686 254.94 75.4337C247.454 72.4433 243.738 68.2176 241.94 65.2128C239.974 61.9281 239.805 59.3765 239.797 59.2697C239.798 59.1865 239.829 59.1066 239.885 59.0462C239.941 58.9858 240.017 58.9494 240.097 58.9443C240.178 58.9391 240.258 58.9657 240.321 59.0186C240.383 59.0715 240.424 59.1468 240.434 59.2293C240.434 59.2755 240.62 61.7665 242.505 64.9069C244.255 67.8222 247.872 71.9093 255.173 74.8246C267.981 79.9394 291.127 79.4111 302.665 92.3538C302.715 92.419 302.738 92.5007 302.731 92.5828C302.725 92.6649 302.688 92.7415 302.629 92.7973C302.571 92.8532 302.493 92.8843 302.413 92.8845C302.333 92.8847 302.256 92.8539 302.196 92.7983Z" fill="#86B1F2"/>
<path d="M252.756 66.9649C251.703 65.8334 250.366 62.5429 249.568 60.5744C248.498 57.9304 248.627 58.473 248.22 58.2652C247.363 58.0892 248.085 58.7242 241.256 73.0726C238.428 69.274 230.327 70.1948 230.344 74.6139C230.344 76.8971 232.7 78.9435 235.863 78.9204C238.06 78.906 240.034 77.8727 240.894 76.2851C241.119 75.8637 244.088 69.6464 246.531 64.5865C247.374 67.9261 251.205 70.3593 253.59 68.74L254.312 68.2522L253.582 67.7789C253.285 67.5315 253.009 67.2592 252.756 66.9649Z" fill="#466EB6"/>
<path d="M296.855 80.6783C295.557 80.2973 293.097 78.3692 291.625 77.2348C290.069 76.0254 289.906 75.8984 289.521 76.0658C288.709 76.3544 289.552 76.7297 290.552 90.801C286.664 89.2798 280.892 93.5921 282.858 97.0125C284.937 100.632 291.92 97.8785 291.83 93.3987C291.83 92.9715 291.386 85.8305 291.071 80.915C293.229 83.0019 297.172 84.1074 298.307 81.752L298.692 80.9554C297.692 80.8803 298.119 81.0564 296.855 80.6783Z" fill="#466EB6"/>
<path d="M275.679 80.7764C275.662 80.1818 275.241 73.696 274.73 65.7324C266.584 66.6185 266.865 66.7022 259.365 65.4755C259.618 69.5655 259.888 73.6787 260.118 76.9836C256.186 75.4365 251.278 80.1847 253.219 83.5618C255.312 87.2073 261.89 83.3828 261.803 78.9204C261.803 78.9204 261.36 75.3615 260.986 69.6839L273.665 69.8022C273.783 71.5601 273.924 74.9978 274.165 78.3778C270.233 76.8422 264.764 80.9987 266.713 84.3902C267.786 86.2548 270.575 86.6127 272.932 85.1811C274.637 84.1477 275.719 82.4159 275.685 80.7735L275.679 80.7764Z" fill="#466EB6"/>
<path d="M439.964 43.0076C438.68 43.4262 435.596 43.2241 433.753 43.1058C431.807 42.9788 431.605 42.9672 431.371 43.3223C430.846 44.0179 430.897 44.0063 439.293 55.1566C435.237 56.0918 433.602 62.82 437.079 64.5548C440.756 66.3934 445.101 60.1385 442.615 56.4497C442.377 56.1004 438.731 51.2541 435.824 47.3257C438.745 47.8424 442.076 45.6718 441.759 43.0625L441.649 42.1966C440.773 42.6959 441.222 42.6007 439.964 43.0076Z" fill="#50BFA5"/>
<path d="M275.148 17.4224C275.21 16.8451 275.646 10.3478 276.188 2.38707C268 2.13595 268.267 2.25718 260.997 0C260.716 4.08717 260.435 8.19743 260.23 11.5053C256.525 9.42704 251.051 13.4507 252.528 17.0674C254.124 20.9698 261.393 19.1658 261.893 14.7294C261.938 14.3224 262.154 10.7173 262.531 5.03969L273.963 6.77154C273.845 8.52648 273.702 10.8125 273.497 14.1983C269.806 12.123 264.312 16.1293 265.789 19.7604C266.607 21.7578 269.326 22.4967 271.848 21.4086C273.674 20.6206 274.971 19.0561 275.154 17.4253L275.148 17.4224Z" fill="#96D9C9"/>
<path d="M128.099 64.1045L132.321 67.623L137.304 65.1291L141.761 69.4155L146.27 65.0772L151.522 69.6983L156.154 66.2289L161.912 69.8253L160.589 72.0652L156.281 69.3751L151.396 73.0379L146.346 68.5957L141.761 73.0062L136.843 68.2753L131.978 70.7115L128.065 67.4527L125.195 69.7388L123.633 67.6663L128.099 64.1045Z" fill="#9BC1F9"/>
<path d="M453.312 156.77C453.397 157.189 453.536 157.593 453.725 157.974C454.15 157.574 454.649 157.266 455.192 157.068C455.734 156.869 456.31 156.785 456.885 156.819C457.06 156.265 457.231 155.708 457.405 155.154C456.203 155.105 454.411 155.31 453.312 156.77Z" fill="#355389"/>
<path d="M456.559 164.332C457.309 162.093 458.073 159.714 458.837 157.365L458.686 157.275C458.469 157.159 458.242 157.062 458.009 156.987C457.748 156.906 457.48 156.854 457.208 156.834H456.894C456.096 159.405 455.323 161.954 454.602 164.281C455.247 164.409 455.908 164.426 456.559 164.332Z" fill="#355389"/>
<path d="M451.077 174.094C451.077 174.077 449.987 176.014 448.482 175.826C448.482 175.826 446.751 175.662 447.695 173.875C447.695 173.875 447.743 173.734 447.743 173.728C447.793 173.572 447.784 173.402 447.716 173.253C447.648 173.104 447.527 172.988 447.378 172.928C447.22 172.875 447.05 172.88 446.896 172.943C446.742 173.006 446.614 173.122 446.535 173.272C446.362 173.557 446.266 173.883 446.254 174.218C446.015 177.105 449.409 178.049 451.38 176.265C452.611 175.165 454.153 171.358 455.804 166.613C455.188 166.578 454.576 166.493 453.973 166.359C452.737 170.203 451.723 173.153 451.077 174.094Z" fill="#355389"/>
<path d="M454.594 164.275C454.373 164.994 454.157 165.689 453.945 166.359C454.548 166.493 455.161 166.578 455.777 166.613C456.032 165.874 456.291 165.112 456.552 164.332C455.901 164.424 455.239 164.405 454.594 164.275Z" fill="#355389"/>
<path d="M457.414 155.162C457.838 155.179 458.259 155.235 458.672 155.33C458.924 155.4 459.172 155.484 459.414 155.584C460.074 153.563 460.729 151.566 461.363 149.724C460.465 150.013 459.639 150.302 458.88 150.59C458.389 152.085 457.9 153.618 457.414 155.162Z" fill="#355389"/>
<path d="M459.914 147.542C459.569 148.526 459.22 149.563 458.875 150.602C459.633 150.313 460.459 150.007 461.358 149.736C461.723 148.685 462.08 147.681 462.428 146.743C461.6 147.025 460.76 147.288 459.914 147.542Z" fill="#355389"/>
<path d="M450.386 159.368C450.265 158.392 450.302 153.999 458.874 150.602C459.22 149.551 459.568 148.526 459.914 147.542C458.917 147.831 457.917 148.134 456.934 148.466C454.56 149.262 452.113 150.244 450.285 151.973C447.903 154.218 447.293 157.549 448.007 160.632C448.352 162.287 449.249 163.767 450.543 164.814C451.556 165.569 452.714 166.094 453.939 166.353C454.151 165.683 454.367 164.989 454.588 164.269C452.588 163.868 450.757 162.344 450.386 159.368Z" fill="#355389"/>
<path d="M469.858 141.434C469.577 139.125 467.282 135.512 464.44 137.956C463.156 139.062 461.561 142.832 459.906 147.551C460.749 147.297 461.592 147.034 462.434 146.74C464.226 141.937 465.805 138.88 466.878 140.127C467.236 140.588 467.462 141.142 467.531 141.727C467.6 142.312 467.509 142.905 467.268 143.441C466.707 144.806 465.254 145.594 463.94 146.157C463.445 146.368 462.944 146.561 462.434 146.734C462.086 147.672 461.729 148.677 461.364 149.727C461.752 149.606 462.151 149.488 462.566 149.369C465.173 148.633 467.819 146.936 468.847 145.409C469.627 144.247 469.984 142.84 469.858 141.434Z" fill="#355389"/>
<path d="M459.368 157.74C459.775 158.091 460.111 158.522 460.356 159.007C460.205 158.701 461.368 160.41 459.918 162.445C459.185 163.475 457.929 164.139 456.564 164.332C456.303 165.112 456.045 165.874 455.789 166.613H456.07C463.286 166.858 464.839 157.832 459.404 155.569C459.213 156.161 459.019 156.756 458.842 157.35C459.028 157.465 459.204 157.595 459.368 157.74Z" fill="#355389"/>
<path d="M457.41 155.162C457.236 155.717 457.065 156.274 456.891 156.828H457.205C457.477 156.849 457.745 156.9 458.006 156.981C458.239 157.056 458.466 157.153 458.683 157.269L458.834 157.359C459.025 156.764 459.219 156.17 459.396 155.578C459.154 155.479 458.906 155.394 458.655 155.324C458.245 155.232 457.829 155.178 457.41 155.162Z" fill="#355389"/>
<path d="M456.016 158.713C455.735 159.997 454.794 160.875 453.904 160.673C453.013 160.47 452.499 159.267 452.78 157.982C453.061 156.698 454.002 155.82 454.892 156.02C455.783 156.219 456.291 157.428 456.016 158.713Z" fill="#355389"/>
<path d="M449.519 174.487C449.238 175.771 448.297 176.649 447.406 176.447C446.516 176.245 446.016 175.041 446.283 173.754C446.55 172.466 447.505 171.592 448.395 171.794C449.285 171.996 449.794 173.2 449.519 174.487Z" fill="#355389"/>
<path d="M253.766 337.316V304.309C253.766 270.965 227.461 243.934 195.012 243.934H162.892C130.444 243.934 104.139 270.965 104.139 304.309V337.316C104.139 370.66 130.444 397.691 162.892 397.691H195.012C227.461 397.691 253.766 370.66 253.766 337.316Z" fill="#B75742"/>
<path d="M140.223 217.982C140.403 212.01 138.257 153.309 152.706 106.893C162.537 75.1912 173.492 61.4923 186.626 50.4027C187.221 49.9177 187.811 49.4271 188.412 48.9595C189.013 48.4919 189.62 48.0214 190.235 47.574L192.081 46.2318C234.899 15.6906 321.655 14.3022 358.069 60.4156C371.372 77.0097 380.187 103.761 384.04 125.071C390.754 162.116 388.858 202.641 387.922 242.528H370.369C367.215 192.94 372.378 130.654 350.098 84.982L349.255 83.3049C348.266 82.1215 336.393 52.3885 298.029 38.1354C249.649 21.3335 199.929 45.7122 183.269 90.8876C168.076 130.937 169.534 177.881 169.506 217.982H140.223Z" fill="#F47458"/>
<path d="M180.553 187.623H127.156V266.754H180.553V187.623Z" fill="#F47458"/>
<path d="M180.553 233.061C176.639 232.268 172.659 231.87 168.669 231.872H141.069C136.385 231.869 131.717 232.42 127.156 233.511V266.754H180.553V233.061Z" fill="#B75742"/>
<path d="M177.558 52.0854C178.803 54.4783 181.376 55.5751 183.367 54.5389C185.359 53.5027 186.033 50.6278 184.814 48.1599C183.595 45.692 180.968 44.5461 178.949 45.5996C178.434 45.8707 177.991 46.2671 177.66 46.7542L174.452 39.6652L186.221 37.5465L191.704 49.6695C191.704 49.6695 191.704 49.6984 191.724 49.7128C192.943 52.1807 195.569 53.3266 197.589 52.273C199.608 51.2195 200.257 48.3619 199.038 45.8941C197.819 43.4262 195.193 42.2803 193.173 43.3338C192.659 43.6055 192.216 44.0018 191.884 44.4884L186.01 31.4995C185.932 31.3065 185.795 31.1453 185.618 31.0409C185.442 30.9365 185.237 30.8948 185.036 30.9222L170.379 33.9731C169.89 34.0742 169.665 34.6774 169.915 35.223L177.547 52.0941L177.558 52.0854Z" fill="#50BFA5"/>
<path d="M226.07 339.757V301.867C226.07 269.872 200.829 243.934 169.693 243.934H144.671C113.535 243.934 88.2943 269.872 88.2943 301.867V339.757C88.2943 371.753 113.535 397.691 144.671 397.691H169.693C200.829 397.691 226.07 371.753 226.07 339.757Z" fill="#F47458"/>
<path d="M185.859 322.67V305.903C185.859 288.962 172.495 275.229 156.009 275.229H139.692C123.207 275.229 109.842 288.962 109.842 305.903V322.67C109.842 339.611 123.207 353.344 139.692 353.344H156.009C172.495 353.344 185.859 339.611 185.859 322.67Z" fill="#B75742"/>
<path d="M171.773 322.667V305.9C171.773 288.959 158.409 275.226 141.923 275.226H125.607C109.121 275.226 95.7564 288.959 95.7564 305.9V322.667C95.7564 339.608 109.121 353.341 125.607 353.341H141.923C158.409 353.341 171.773 339.608 171.773 322.667Z" fill="#F47458"/>
<path d="M536.645 172.645C537.516 175.05 539.024 178.831 539.024 178.831C539.066 179.916 539.271 184.431 539.538 189.958L547.01 185.776C547.01 185.776 545.886 176.851 546.167 176.25C546.411 175.751 546.976 176.268 548.976 172.44C549.538 171.335 549.473 169.493 549.473 169.493C549.473 169.493 549.355 167.233 548.841 167.083C548.601 167.031 548.35 167.07 548.135 167.192C547.92 167.314 547.755 167.511 547.67 167.747C547.538 168.157 547.687 169.055 547.554 169.464C547.422 169.874 546.341 170.481 545.869 170.512C545.397 170.544 545.161 163.874 545.161 163.874C545.161 163.874 545.212 161.966 545.276 161.333C545.33 160.797 545.616 159.206 545.616 159.206C545.616 159.206 545.897 156.914 545.212 156.825C544.805 156.773 544.001 158.707 543.527 160.71C543.018 162.869 542.85 165.112 542.633 165.109C542.122 165.109 541.97 161.44 541.97 161.44C541.97 161.44 542.277 159.708 542.173 158.938C542.535 157.919 542.642 156.097 541.793 156.051C541.639 156.051 540.805 158.441 540.805 158.441C540.805 158.441 540.56 160.087 540.395 160.863C540.114 162.231 540.279 164.312 540.153 165.256C540.049 166.041 539.838 165.75 539.765 165.79C539.692 165.83 539.692 164.76 539.647 163.302C539.625 162.566 539.448 161.74 539.549 160.886C539.625 160.033 539.64 159.175 539.594 158.32C539.51 156.427 538.383 156.761 538.19 158.525C538.114 159.195 538.038 159.928 537.962 160.67C537.681 163.556 537.999 166.263 537.707 166.324C537.327 166.399 537.01 161.434 537.01 161.434C537.01 161.434 536.108 158.776 535.816 161.383C535.603 163.215 535.614 165.068 535.847 166.898C535.982 167.614 535.771 170.244 536.645 172.645Z" fill="#F8A492"/>
<path d="M584.097 200.029C584.097 200.029 580.403 196.025 577.428 200.895C577.428 200.895 575.139 199.573 573.532 201.925C573.532 201.925 569.395 200.646 568.392 207.002C568.392 207.002 566.263 206.59 565.982 209.19C565.805 210.71 566.16 212.245 566.985 213.52C566.985 213.52 565.791 214.441 566.333 216.833C566.794 218.854 568.432 219.174 568.432 219.174C568.432 219.174 568.875 222.601 570.319 223.634C571.763 224.667 573.735 224.171 573.735 224.171C573.735 224.171 574.257 226.027 575.942 225.862C577.628 225.698 579.718 224.047 581.608 224.788C583.498 225.53 588.394 224.748 588.394 224.748C588.394 224.748 593.897 222.231 592.251 216.45C592.251 216.45 595.141 213.768 592.613 210.55C592.613 210.55 594.459 205.513 590.804 202.543C587.15 199.573 584.097 200.029 584.097 200.029Z" fill="#07345A"/>
<path d="M616.092 167.271L616.553 174.969L614.893 188.076L607.735 188.148C607.735 188.148 609.328 179.864 608.233 177.896C607.368 176.349 606.306 173.956 606.224 173.09C605.949 170.134 616.092 167.271 616.092 167.271Z" fill="#F7A491"/>
<path d="M606.828 171.52L609.879 177.483C610.783 179.238 612.794 179.18 613.595 177.362L614.797 173.898C614.797 173.898 609.657 169.398 606.828 171.52Z" fill="#F47458"/>
<path d="M584.955 160.113L600.241 161.714C600.622 161.753 600.989 161.887 601.31 162.103C601.631 162.319 601.896 162.611 602.083 162.956L609.443 176.585C609.659 176.98 609.978 177.305 610.363 177.526C610.748 177.746 611.185 177.854 611.625 177.835C612.066 177.817 612.493 177.674 612.86 177.423C613.226 177.171 613.518 176.82 613.704 176.409L619.937 162.217C620.096 161.858 620.337 161.545 620.64 161.303C620.943 161.061 621.298 160.898 621.675 160.828L636.779 157.971C637.212 157.895 637.615 157.695 637.942 157.393C638.269 157.092 638.506 156.702 638.626 156.268C638.747 155.834 638.745 155.374 638.622 154.941C638.499 154.508 638.259 154.119 637.93 153.82L626.498 143.455C626.212 143.198 625.992 142.872 625.858 142.506C625.724 142.141 625.679 141.747 625.728 141.359L627.695 125.96C627.947 123.986 625.849 122.575 624.144 123.573L610.844 131.352C610.509 131.547 610.134 131.657 609.75 131.673C609.365 131.689 608.983 131.611 608.634 131.445L594.749 124.786C592.968 123.92 590.991 125.513 591.404 127.458L594.617 142.641C594.698 143.023 594.685 143.419 594.581 143.795C594.476 144.17 594.283 144.514 594.019 144.794L583.463 156.077C583.16 156.404 582.953 156.812 582.866 157.255C582.779 157.697 582.816 158.156 582.972 158.578C583.128 159 583.397 159.368 583.748 159.639C584.099 159.911 584.517 160.075 584.955 160.113Z" fill="#F7CC7F"/>
<path d="M558.659 367.764C558.659 367.764 554.634 372.893 553.631 373.537C552.628 374.181 554.078 381.619 556.808 382.107C558.35 382.396 559.125 380.187 559.125 380.187L558.763 378.496L564.515 372.406L558.659 367.764Z" fill="#F7A491"/>
<path d="M579.395 369.031C579.395 369.031 576.042 374.648 575.123 375.405C574.205 376.161 576.573 383.363 579.336 383.487C580.898 383.556 581.395 381.279 581.395 381.279L580.834 379.648L585.783 372.853L579.395 369.031Z" fill="#F7A491"/>
<path d="M575.324 375.185C575.324 375.185 577.251 377.711 578.305 378.715C579.287 379.63 580.318 380.487 581.394 381.281C581.394 381.281 583.361 384.953 583.9 386.235C585.099 389.086 586.445 392.267 586.251 393.863C586.189 394.374 585.068 394.917 584.133 394.622C580.246 393.396 570.302 384.049 569.046 381.538C567.606 378.646 575.324 375.185 575.324 375.185Z" fill="#07345A"/>
<path d="M603.711 289.655C603.349 288.619 603.003 287.658 602.669 286.769C598.534 287.695 593.86 288.714 589.057 289.768L588.47 307.868C588.47 306.471 592.082 336.732 592.082 336.732C592.082 336.732 583.588 357.76 577.195 370.143C579.819 373.505 580.51 373.982 584.305 376.273C594.22 364.061 606.888 342.534 607.427 338.816C607.742 336.672 608.023 302.119 603.711 289.655Z" fill="#3C8F7C"/>
<path d="M566.799 294.891C568.063 308.994 570.872 335.956 570.636 338.127C569.931 340.828 557.945 365.778 555.695 369.412C557.482 372.175 560.114 374.778 563.086 375.604C563.673 375.766 583.922 345.992 585.045 343.599C586.318 340.892 588.436 326.131 588.472 307.854L589.059 289.753C581.051 291.508 573.689 293.228 566.799 294.891Z" fill="#50BFA5"/>
<path d="M593.097 230.599L583.67 231.929C583.67 231.929 576.114 232.12 575.181 232.12C574.249 232.12 568.328 267.45 566.612 280.745C564.895 294.039 566.227 296.395 566.227 296.395C566.227 296.395 578.176 299.157 587.012 298.352C596.203 297.515 606.548 292.414 606.548 292.414C606.548 292.414 599.141 267.45 597.585 259.472C596.029 251.494 593.097 230.599 593.097 230.599Z" fill="#F47458"/>
<path d="M615.936 187.802C615.936 187.802 616.543 214.143 615.576 216.158C614.172 219.088 598.344 239.87 598.344 239.87C598.344 239.87 605.905 272.383 609.082 283.608C609.402 284.739 610.818 292.042 610.818 292.755C610.818 294.334 604.133 296.337 603.338 296.219C602.627 296.112 596.791 265.187 593.066 250.053C591.804 244.926 589.638 240.079 586.676 235.754L584.086 231.973L603.967 211.494C603.967 211.494 606.417 188.691 606.417 186.812C606.417 186.318 614.973 185.946 615.936 187.802Z" fill="#466EB6"/>
<path d="M575.51 232.068L550.719 206.11C550.719 206.11 547.264 181.561 547.019 180.638C546.775 179.714 540.621 179.238 538.138 178.99C537.343 178.912 538.556 205.135 539.741 209.531C541.146 214.726 559.884 238.395 559.884 238.395C559.884 238.395 563.255 251.211 562.434 260.62C561.089 276.236 557.468 297.714 558.117 298.386C562.145 300.984 577.611 301.273 578.588 299.654C589.397 281.752 575.51 232.068 575.51 232.068Z" fill="#466EB6"/>
<path d="M583.476 227.222L584.145 232.322C584.145 232.322 585.642 239.668 583.715 241.085C581.788 242.502 575.516 232.111 575.516 232.111L576.179 219.192L583.476 227.222Z" fill="#F7A491"/>
<path d="M575.969 223.377C577.561 227.785 581.353 230.495 584.047 231.546L583.485 227.216L576.182 219.186L575.969 223.377Z" fill="#F47458"/>
<path d="M565.914 210.42C565.914 212.388 567.001 213.985 568.347 213.985C569.692 213.985 570.779 212.388 570.779 210.42C570.779 208.451 569.689 206.855 568.347 206.855C567.004 206.855 565.914 208.44 565.914 210.42Z" fill="#07345A"/>
<path d="M573.219 202.748C573.219 203.879 574.545 204.797 576.179 204.797C577.814 204.797 579.137 203.879 579.137 202.748C579.137 201.616 577.814 200.701 576.179 200.701C574.545 200.701 573.219 201.616 573.219 202.748Z" fill="#07345A"/>
<path d="M580.633 205.614C581.551 205.295 582.525 205.187 583.488 205.297C584.451 205.407 585.379 205.732 586.206 206.25C587.033 206.768 587.74 207.465 588.277 208.294C588.813 209.123 589.167 210.062 589.313 211.046C589.628 213.212 589.808 215.397 589.852 217.587C589.956 223.544 586.956 229.34 584.324 229.34C581.692 229.34 574.417 225.484 574.156 217.03C573.993 211.808 576.529 207.066 580.633 205.614Z" fill="#F7A491"/>
<path d="M576.107 217.699C576.107 219.013 575.264 220.078 574.214 220.078C573.163 220.078 572.32 219.013 572.32 217.699C572.32 216.386 573.163 215.318 574.214 215.318C575.264 215.318 576.107 216.383 576.107 217.699Z" fill="#F7A491"/>
<path d="M592.035 202.65C594.754 204.864 595.706 208.226 594.161 210.154C592.617 212.082 589.164 211.863 586.445 209.649C583.726 207.435 582.774 204.073 584.316 202.145C585.858 200.216 589.316 200.439 592.035 202.65Z" fill="#07345A"/>
<path d="M584.939 204.465C584.939 205.426 583.815 206.197 582.411 206.197C581.006 206.197 579.883 205.418 579.883 204.465C579.883 203.513 581.006 202.733 582.411 202.733C583.815 202.733 584.939 203.492 584.939 204.465Z" fill="#07345A"/>
<path d="M592.434 211.863C592.429 212.3 592.299 212.726 592.06 213.087C591.82 213.448 591.482 213.728 591.088 213.892C590.694 214.056 590.262 214.097 589.845 214.009C589.429 213.921 589.047 213.708 588.748 213.397C588.449 213.087 588.246 212.692 588.165 212.264C588.083 211.835 588.127 211.391 588.291 210.988C588.455 210.584 588.731 210.24 589.085 209.998C589.439 209.755 589.854 209.626 590.279 209.626C590.564 209.628 590.845 209.687 591.107 209.8C591.369 209.913 591.607 210.078 591.807 210.286C592.007 210.494 592.166 210.74 592.273 211.011C592.381 211.281 592.435 211.571 592.434 211.863Z" fill="#07345A"/>
<path d="M608.2 174.917L609.537 172.732C609.537 172.732 611.857 170.628 611.248 169.785C610.231 168.388 606.697 171.782 606.697 171.782C606.697 171.782 606.307 174.83 608.2 174.917Z" fill="#F7A491"/>
<path d="M616.552 174.969C616.552 174.969 617.178 169.756 617.057 169.6C616.383 168.734 614.249 167.291 613.473 167.62C612.698 167.949 614.498 170.714 614.498 170.714C614.498 170.714 613.375 170.957 613.136 171.981C612.897 173.006 616.552 174.969 616.552 174.969Z" fill="#F7A491"/>
<path d="M553.864 373.332C553.864 373.332 555.46 376.092 556.392 377.226C557.255 378.262 558.174 379.247 559.145 380.176C559.145 380.176 560.639 384.078 561.016 385.421C561.858 388.405 562.791 392.01 562.397 393.569C562.274 394.068 561.201 395.012 560.319 394.435C556.909 392.155 547.8 381.469 546.867 378.816C545.774 375.751 553.864 373.332 553.864 373.332Z" fill="#07345A"/>
</svg>
