<svg width="547" height="472" viewBox="0 0 547 472" fill="none" xmlns="http://www.w3.org/2000/svg">
<path d="M398.139 436.178C398.631 421.124 400.259 406.094 402.202 391.166C404.524 373.339 407.443 355.593 410.96 337.926C413.993 321.95 417.868 306.146 422.569 290.579C428.453 271.824 436.017 253.637 445.17 236.242C454.623 218.035 466.186 201.004 479.62 185.5C481.273 183.607 482.964 181.715 484.668 179.91C485.778 178.724 483.999 176.945 482.876 178.131C468.913 193.213 456.813 209.918 446.836 227.888C436.787 245.984 428.427 264.967 421.863 284.598C416.943 299.687 412.94 315.06 409.874 330.632C406.148 348.392 403.056 366.264 400.599 384.251C398.429 399.886 396.587 415.609 395.804 431.383C395.716 432.986 395.653 434.588 395.602 436.191C395.552 437.793 398.126 437.806 398.126 436.191L398.139 436.178Z" fill="#B6DFED"/>
<path d="M401.583 386.888C378.869 373.6 363.726 349.738 356.672 324.449C349.618 299.16 349.782 272.383 352.18 246.211C378.795 289.297 395.893 337.576 402.328 387.809" fill="#B6DFED"/>
<path d="M400.707 388.125C413.513 367.105 430.692 349.087 451.076 335.291C471.46 321.496 494.573 312.246 518.846 308.17C511.389 333.484 497.394 358.571 474.099 370.912C466.212 375.089 457.568 377.638 448.861 379.746C432.972 383.685 416.8 386.381 400.492 387.809" fill="#B6DFED"/>
<path d="M416.361 315.83C404.057 313.306 393.71 304.587 386.643 294.201C379.576 283.816 375.387 271.764 371.5 259.801C365.33 240.469 359.828 220.342 361.847 200.151C378.87 216.758 396.145 233.958 405.37 255.789C413.37 274.717 414.645 295.905 413.698 316.461" fill="#B6DFED"/>
<path d="M411.977 315.035C424.855 297.282 441.42 282.522 460.534 271.767C479.649 261.012 500.862 254.515 522.722 252.722C518.772 275.739 501.395 294.996 480.435 305.306C459.475 315.616 435.372 317.925 412.078 316.322" fill="#B6DFED"/>
<path d="M433.473 256.344C423.542 247.813 417.068 235.838 412.866 223.433C404.2 197.734 404.32 169.884 413.207 144.261C423.416 152.716 430.041 164.881 433.864 177.575C437.688 190.27 438.912 203.571 439.972 216.783C441.032 229.995 441.675 244.166 435.038 255.662" fill="#B6DFED"/>
<path d="M437.658 249.05C459.664 225.412 487.971 208.559 519.24 200.479C528.074 198.208 537.525 196.693 546.371 199.053C542.485 221.376 524.692 239.434 503.984 248.659C483.276 257.883 459.956 259.259 437.317 258.249C434.869 258.136 431.601 257.126 431.841 254.678" fill="#B6DFED"/>
<path d="M454.572 218.562C458.282 196.189 465.437 174.042 478.447 155.467C491.458 136.892 510.828 122.178 533.05 117.698C533.832 146.041 516.002 171.493 496.127 191.709C484.517 203.508 470.825 214.852 454.383 216.745" fill="#B6DFED"/>
<path d="M207.056 440.974C203.277 437.352 199.034 434.25 194.436 431.749C189.67 429.063 184.729 426.698 179.647 424.67C173.635 422.44 167.254 421.374 160.844 421.528C159.027 421.528 157.059 421.641 155.191 421.679C153.324 421.717 151.241 421.969 149.26 422.095L136.944 423.357C101.699 429.149 86.2405 415.533 77.7227 395.103C75.5774 390.056 73.7224 384.642 71.615 379.506C69.632 374.498 67.1549 369.7 64.2202 365.183C61.4132 360.837 57.9233 356.972 53.8852 353.738C49.8093 350.545 44.8247 348.236 39.8781 345.901C34.9744 343.817 30.4038 341.024 26.3125 337.611C24.3982 335.896 22.6021 334.054 20.9368 332.096C19.2459 330.165 17.6054 328.172 16.0406 326.115C12.85 321.933 10.0135 317.492 7.56061 312.839C6.2749 310.44 5.11243 307.976 4.07774 305.457C3.0119 302.789 2.16777 300.037 1.55393 297.23C-1.51564 282.897 1.23352 267.932 9.19674 255.627C17.16 243.321 29.685 234.682 44.0171 231.61C52.0061 229.926 60.2665 230.008 68.2205 231.85C71.022 232.538 73.7614 233.458 76.4103 234.601C78.9207 235.664 81.3724 236.86 83.7546 238.185C88.3595 240.721 92.7414 243.642 96.8532 246.917C98.8975 248.52 100.853 250.198 102.746 251.965C104.663 253.663 106.464 255.488 108.135 257.429C111.464 261.586 114.167 266.207 116.16 271.146C118.407 276.194 120.615 281.166 123.732 285.305C126.89 289.406 130.691 292.968 134.988 295.854C139.455 298.875 144.216 301.437 149.197 303.501C154.245 305.71 159.62 307.666 164.668 309.912C184.922 318.821 198.247 334.532 191.761 369.663L190.234 381.954C190.07 383.923 189.843 385.942 189.704 387.872C189.566 389.803 189.465 391.658 189.452 393.526C189.169 399.929 190.112 406.328 192.228 412.379C194.156 417.496 196.424 422.479 199.017 427.294C201.426 431.935 204.444 436.234 207.989 440.078C208.048 440.136 208.095 440.206 208.127 440.283C208.16 440.36 208.176 440.442 208.176 440.526C208.176 440.609 208.16 440.691 208.127 440.768C208.095 440.845 208.048 440.915 207.989 440.974C207.93 441.039 207.858 441.091 207.778 441.126C207.697 441.162 207.61 441.18 207.522 441.18C207.435 441.18 207.348 441.162 207.267 441.126C207.187 441.091 207.115 441.039 207.056 440.974Z" fill="#D8E8ED"/>
<path d="M207.246 440.746C192.465 426.445 177.818 412.03 163.307 397.501C148.795 382.972 134.316 368.414 119.872 353.826C105.448 339.188 91.0371 324.537 76.828 309.659C62.619 294.782 48.4982 279.941 34.6425 264.748C34.6123 264.72 34.5882 264.686 34.5718 264.648C34.5554 264.61 34.5469 264.569 34.5469 264.527C34.5469 264.486 34.5554 264.445 34.5718 264.407C34.5882 264.369 34.6123 264.335 34.6425 264.306C34.7008 264.252 34.7774 264.222 34.857 264.222C34.9366 264.222 35.0132 264.252 35.0715 264.306C49.9957 278.448 64.7179 292.796 79.2383 307.35C93.8007 321.849 108.161 336.538 122.522 351.239C136.882 365.94 151.167 380.692 165.351 395.545C179.535 410.397 193.731 425.263 207.738 440.305C207.768 440.333 207.793 440.367 207.809 440.405C207.825 440.443 207.834 440.484 207.834 440.526C207.834 440.567 207.825 440.608 207.809 440.646C207.793 440.684 207.768 440.718 207.738 440.746C207.709 440.783 207.671 440.813 207.629 440.833C207.586 440.854 207.539 440.864 207.492 440.864C207.445 440.864 207.398 440.854 207.356 440.833C207.313 440.813 207.276 440.783 207.246 440.746Z" fill="#A6C9D2"/>
<path d="M105.033 384.604L155.774 387.128L154.437 388.39L152.632 335.945C152.63 335.912 152.635 335.879 152.646 335.847C152.658 335.816 152.675 335.787 152.697 335.763C152.719 335.738 152.746 335.718 152.776 335.704C152.806 335.69 152.839 335.682 152.872 335.68C152.938 335.68 153.002 335.704 153.051 335.748C153.1 335.793 153.131 335.854 153.137 335.92L156.923 388.251C156.944 388.578 156.837 388.9 156.625 389.15C156.413 389.399 156.113 389.557 155.787 389.589H155.509L104.894 385.121C104.861 385.118 104.829 385.109 104.799 385.093C104.77 385.077 104.744 385.056 104.723 385.03C104.702 385.004 104.686 384.974 104.676 384.942C104.667 384.911 104.664 384.877 104.667 384.844C104.66 384.798 104.666 384.751 104.685 384.709C104.703 384.667 104.734 384.631 104.772 384.605C104.811 384.58 104.856 384.567 104.903 384.566C104.949 384.566 104.994 384.579 105.033 384.604Z" fill="#A6C9D2"/>
<path d="M75.445 354.482L126.199 357.006L124.849 358.331L123.044 305.874C123.042 305.841 123.047 305.809 123.059 305.778C123.07 305.747 123.087 305.719 123.11 305.696C123.132 305.672 123.159 305.653 123.189 305.641C123.219 305.628 123.251 305.621 123.284 305.621C123.349 305.618 123.413 305.639 123.462 305.682C123.511 305.724 123.542 305.784 123.549 305.848L127.335 358.192C127.352 358.519 127.242 358.84 127.028 359.087C126.814 359.334 126.512 359.488 126.186 359.517H125.984L75.3693 355.038C75.3366 355.036 75.3046 355.028 75.2753 355.013C75.2459 354.999 75.2198 354.979 75.1985 354.954C75.1772 354.929 75.1612 354.9 75.1515 354.869C75.1419 354.838 75.1387 354.805 75.1421 354.773C75.1378 354.732 75.1428 354.692 75.1567 354.653C75.1706 354.615 75.193 354.581 75.2223 354.553C75.2515 354.525 75.2868 354.504 75.3254 354.492C75.364 354.479 75.4049 354.476 75.445 354.482Z" fill="#A6C9D2"/>
<path d="M43.269 321.698L94.0229 324.159L92.6726 325.484L90.8681 273.039C90.8681 272.972 90.8947 272.908 90.942 272.861C90.9894 272.813 91.0536 272.787 91.1205 272.787C91.1874 272.787 91.2516 272.813 91.299 272.861C91.3463 272.908 91.3729 272.972 91.3729 273.039L95.1586 325.37C95.1796 325.699 95.0713 326.023 94.8567 326.273C94.6422 326.523 94.3384 326.679 94.0103 326.708H93.8083L43.1932 322.203C43.1252 322.196 43.0622 322.164 43.0176 322.112C42.9729 322.061 42.9499 321.994 42.9535 321.925C42.956 321.888 42.9666 321.852 42.9847 321.82C43.0027 321.787 43.0277 321.759 43.0578 321.738C43.0879 321.716 43.1225 321.701 43.159 321.694C43.1955 321.687 43.233 321.689 43.269 321.698Z" fill="#A6C9D2"/>
<path d="M20.2742 290.1L62.5733 291.98L61.2231 293.305L59.8981 249.592C59.8964 249.56 59.9013 249.527 59.9126 249.497C59.9239 249.466 59.9412 249.438 59.9637 249.415C59.9861 249.391 60.0131 249.372 60.0431 249.359C60.073 249.347 60.1053 249.34 60.1378 249.34C60.1703 249.337 60.2032 249.34 60.2344 249.35C60.2657 249.359 60.2946 249.375 60.3194 249.396C60.3442 249.418 60.3644 249.444 60.3788 249.473C60.3931 249.503 60.4013 249.535 60.4028 249.567L63.7469 293.179C63.7485 293.493 63.633 293.796 63.423 294.029C63.213 294.263 62.9235 294.409 62.6112 294.441H62.3967L20.2363 290.604C20.2031 290.601 20.1709 290.592 20.1414 290.576C20.112 290.56 20.086 290.539 20.0649 290.513C20.0437 290.487 20.0279 290.457 20.0184 290.426C20.0088 290.394 20.0057 290.36 20.0092 290.327C20.0156 290.262 20.0467 290.202 20.0961 290.16C20.1455 290.118 20.2093 290.096 20.2742 290.1Z" fill="#A6C9D2"/>
<path d="M494.387 471.512H31.7089C23.721 471.512 18.1938 465.896 20.9953 460.634L33.1096 437.983C34.7753 434.841 39.0532 432.758 43.8232 432.758H477.503C481.756 432.758 485.667 434.424 487.598 437.074L504.482 459.713C508.521 465.076 502.993 471.512 494.387 471.512Z" fill="url(#paint0_linear_3080_556)"/>
<path d="M199.318 417.931C197.203 410.632 194.419 403.544 191.002 396.756C187.633 389.854 183.847 383.065 179.721 376.364C175.203 369.207 169.571 362.816 163.039 357.435C161.297 355.946 159.455 354.495 157.574 353.044C155.694 351.593 153.675 350.192 151.732 348.753L139.428 340.349C103.388 318.796 94.1384 290.049 94.252 258.805C94.252 250.993 94.6558 243.081 94.7315 235.257C94.8604 227.544 94.4387 219.831 93.4696 212.177C92.5359 204.671 90.7797 197.291 88.2327 190.169C85.6205 183.052 81.7969 176.288 78.0112 169.487C74.1203 162.88 70.9112 155.896 68.4333 148.64C67.2472 145.056 66.3891 141.384 65.531 137.712C64.6729 134.04 63.9283 130.33 63.2721 126.607C61.9228 119.095 61.0085 111.511 60.5338 103.893C60.2814 100.107 60.2057 96.17 60.2436 92.258C60.273 88.265 60.5554 84.2778 61.089 80.3204C62.5303 70.4958 66.8155 61.3078 73.4162 53.8896C80.017 46.4713 88.6446 41.1472 98.2351 38.5738C107.826 36.0005 117.96 36.2903 127.387 39.4077C136.815 42.5251 145.124 48.3336 151.29 56.117C153.734 59.276 155.972 62.5891 157.991 66.0356C159.985 69.4049 161.878 72.7994 163.569 76.2444C166.972 83.0661 169.972 90.0817 172.553 97.2552C173.849 100.805 175.052 104.385 176.162 107.994C177.26 111.603 178.345 115.212 179.115 118.91C180.602 126.435 181.313 134.092 181.235 141.763C181.361 149.536 181.437 157.322 182.737 164.78C184.104 172.217 186.279 179.482 189.223 186.447C192.208 193.57 195.699 200.469 199.672 207.092C203.647 213.83 207.962 220.48 211.874 227.282C227.623 254.287 234.008 283.79 213.591 320.499L207.167 333.939C206.196 336.147 205.174 338.368 204.252 340.576C203.331 342.784 202.473 344.955 201.729 347.1C198.775 355.038 197.101 363.395 196.769 371.859C196.542 379.725 196.689 387.49 197.211 395.154C197.658 402.746 198.799 410.281 200.618 417.666C200.661 417.827 200.638 417.998 200.556 418.142C200.473 418.286 200.337 418.392 200.176 418.436C200.087 418.469 199.992 418.481 199.897 418.473C199.802 418.464 199.71 418.435 199.628 418.387C199.546 418.338 199.476 418.272 199.422 418.194C199.368 418.115 199.333 418.025 199.318 417.931Z" fill="#B6DFED"/>
<path d="M199.424 417.906C190.767 389.008 182.355 360.043 174.186 331.011C166.017 301.979 157.975 272.913 150.058 243.813C146.146 229.251 142.121 214.713 138.297 200.126L132.518 178.257L126.877 156.363C119.444 127.124 112.151 97.8608 105.626 68.3826C105.591 68.2488 105.611 68.1064 105.681 67.9869C105.75 67.8674 105.865 67.7805 105.999 67.7454C106.133 67.7102 106.275 67.7297 106.394 67.7995C106.514 67.8693 106.601 67.9838 106.636 68.1176C115.747 96.8891 124.088 125.875 132.291 154.899L138.373 176.667L144.317 198.485C148.317 213.022 152.115 227.623 156.014 242.185C163.763 271.335 171.334 300.523 178.729 329.749C186.124 358.975 193.363 388.289 200.446 417.691C200.477 417.827 200.453 417.969 200.38 418.087C200.306 418.205 200.19 418.289 200.055 418.322C199.916 418.348 199.773 418.32 199.655 418.242C199.537 418.164 199.454 418.044 199.424 417.906Z" fill="#88C3D2"/>
<path d="M109.195 272.332L172.291 312.044L169.552 312.789L205.1 244.444C205.146 244.356 205.225 244.289 205.319 244.259C205.413 244.228 205.516 244.236 205.605 244.28C205.693 244.326 205.76 244.404 205.793 244.497C205.826 244.591 205.822 244.694 205.782 244.785L172.972 314.467C172.868 314.694 172.719 314.898 172.535 315.066C172.351 315.235 172.135 315.365 171.899 315.448C171.664 315.532 171.414 315.567 171.165 315.553C170.916 315.538 170.672 315.474 170.448 315.363L170.183 315.212L108.817 272.963C108.775 272.935 108.739 272.899 108.711 272.857C108.684 272.816 108.665 272.769 108.655 272.719C108.646 272.67 108.646 272.619 108.657 272.57C108.667 272.521 108.687 272.474 108.716 272.433C108.771 272.362 108.849 272.313 108.937 272.295C109.025 272.276 109.116 272.289 109.195 272.332Z" fill="#88C3D2"/>
<path d="M93.142 212.518L156.237 252.243L153.499 252.987L189.047 184.642C189.093 184.557 189.171 184.492 189.263 184.462C189.356 184.432 189.456 184.439 189.544 184.481C189.632 184.523 189.7 184.598 189.734 184.689C189.768 184.78 189.766 184.881 189.728 184.97L156.919 254.665C156.813 254.891 156.664 255.094 156.479 255.261C156.295 255.428 156.078 255.557 155.843 255.639C155.608 255.721 155.359 255.756 155.11 255.74C154.861 255.725 154.618 255.66 154.395 255.549C154.3 255.511 154.211 255.46 154.13 255.397L92.6751 213.149C92.6337 213.122 92.5982 213.087 92.5707 213.046C92.5431 213.006 92.524 212.96 92.5146 212.911C92.5052 212.863 92.5056 212.813 92.5158 212.765C92.526 212.717 92.5459 212.672 92.5741 212.631C92.6007 212.583 92.6375 212.541 92.682 212.508C92.7265 212.476 92.7775 212.453 92.8316 212.442C92.8857 212.432 92.9415 212.433 92.9951 212.446C93.0487 212.459 93.0989 212.483 93.142 212.518Z" fill="#88C3D2"/>
<path d="M75.6631 147.403L138.758 187.116L136.02 187.86L171.568 119.515C171.616 119.43 171.695 119.365 171.788 119.335C171.882 119.304 171.983 119.31 172.073 119.351C172.163 119.395 172.232 119.472 172.265 119.567C172.299 119.662 172.293 119.766 172.249 119.856L139.44 189.539C139.337 189.767 139.189 189.972 139.005 190.141C138.821 190.311 138.605 190.441 138.369 190.525C138.133 190.609 137.883 190.644 137.633 190.628C137.384 190.613 137.14 190.547 136.916 190.434L136.651 190.283L75.2466 148.034C75.1689 147.977 75.1163 147.891 75.0995 147.796C75.0827 147.701 75.1031 147.603 75.1564 147.522C75.2097 147.441 75.2919 147.384 75.3861 147.362C75.4804 147.34 75.5795 147.355 75.6631 147.403Z" fill="#88C3D2"/>
<path d="M69.0214 90.4156L121.769 123.301L119.031 124.045L148.875 67.2596C148.925 67.1729 149.007 67.1088 149.103 67.0806C149.2 67.0524 149.303 67.0623 149.392 67.1082C149.435 67.1297 149.474 67.1594 149.506 67.1958C149.537 67.2322 149.561 67.2745 149.577 67.3202C149.592 67.3659 149.598 67.4142 149.594 67.4623C149.591 67.5104 149.578 67.5573 149.556 67.6003L122.425 125.724C122.323 125.952 122.175 126.157 121.991 126.326C121.807 126.496 121.59 126.626 121.355 126.71C121.119 126.794 120.868 126.829 120.619 126.813C120.369 126.798 120.125 126.732 119.901 126.62C119.803 126.575 119.71 126.52 119.624 126.456L68.605 91.0466C68.5642 91.0177 68.5296 90.981 68.5031 90.9387C68.4766 90.8964 68.4587 90.8492 68.4505 90.8C68.4423 90.7507 68.4439 90.7003 68.4552 90.6517C68.4666 90.603 68.4874 90.5571 68.5166 90.5166C68.5705 90.4367 68.6537 90.3813 68.7483 90.3624C68.8428 90.3435 68.9409 90.3626 69.0214 90.4156Z" fill="#88C3D2"/>
<path d="M352.554 0H204.847C189.459 0 176.984 12.4747 176.984 27.8629V415.218C176.984 430.606 189.459 443.081 204.847 443.081H352.554C367.942 443.081 380.416 430.606 380.416 415.218V27.8629C380.416 12.4747 367.942 0 352.554 0Z" fill="#040640"/>
<path d="M309.955 419.811H247.428C246.737 419.808 246.076 419.531 245.589 419.042C245.102 418.552 244.828 417.89 244.828 417.199C244.831 416.511 245.106 415.851 245.593 415.365C246.08 414.878 246.739 414.603 247.428 414.6H309.955C310.644 414.603 311.303 414.878 311.79 415.365C312.276 415.851 312.551 416.511 312.555 417.199C312.555 417.89 312.281 418.552 311.794 419.042C311.307 419.531 310.646 419.808 309.955 419.811Z" fill="#4F63CA"/>
<path d="M370.111 51.0568H187.273V392.012H370.111V51.0568Z" fill="#1633AB"/>
<path d="M284.745 22.3987C284.755 23.5969 284.409 24.7709 283.75 25.7719C283.092 26.7728 282.15 27.5554 281.046 28.0202C279.942 28.4851 278.724 28.6113 277.548 28.3828C276.372 28.1543 275.29 27.5813 274.44 26.7368C273.59 25.8922 273.011 24.8141 272.775 23.6394C272.539 22.4647 272.657 21.2463 273.115 20.1391C273.573 19.0319 274.35 18.0857 275.346 17.4208C276.343 16.7559 277.515 16.4022 278.713 16.4047C280.306 16.4046 281.835 17.0349 282.965 18.158C284.095 19.281 284.735 20.8055 284.745 22.3987Z" fill="#182B5C"/>
<path d="M180.82 26.4243C181.288 23.5648 182.159 20.7861 183.407 18.1714C184.623 15.5292 186.226 13.0836 188.165 10.9154C190.13 8.76134 192.507 7.02346 195.156 5.8047C197.794 4.60309 200.638 3.91774 203.535 3.78564C202.828 3.98755 202.134 4.17684 201.427 4.34088C200.727 4.47765 200.042 4.68481 199.383 4.95922C198.727 5.22422 198.058 5.43874 197.402 5.67851C196.746 5.91827 196.14 6.32208 195.522 6.63756L194.6 7.11708C194.323 7.3316 194.032 7.53351 193.742 7.7228C193.175 8.06198 192.627 8.43272 192.102 8.83327L190.512 10.1835C190.02 10.663 189.565 11.193 189.086 11.6978C187.209 13.7725 185.606 16.0797 184.316 18.5626C183.62 19.7833 183.005 21.0479 182.473 22.3483C181.885 23.663 181.362 25.0065 180.909 26.3738L180.82 26.4243Z" fill="white"/>
<path d="M373.253 414.701C372.774 417.559 371.899 420.336 370.654 422.954C369.442 425.597 367.838 428.044 365.896 430.209C363.931 432.363 361.554 434.1 358.906 435.32C356.272 436.532 353.434 437.239 350.539 437.402C351.246 437.2 351.94 437.011 352.634 436.847C353.334 436.71 354.019 436.503 354.678 436.229C355.334 435.964 356.003 435.737 356.672 435.497C357.341 435.257 357.934 434.853 358.54 434.55L359.461 434.058L360.319 433.465C360.913 433.103 361.486 432.707 362.035 432.279L363.612 430.929C364.117 430.449 364.571 429.919 365.038 429.414C366.924 427.343 368.531 425.036 369.821 422.55C370.511 421.326 371.127 420.062 371.663 418.764C372.248 417.449 372.766 416.106 373.216 414.738L373.253 414.701Z" fill="white"/>
<path opacity="0.5" d="M246.022 192.643H224.267C220.901 192.643 218.172 195.372 218.172 198.738V220.493C218.172 223.859 220.901 226.588 224.267 226.588H246.022C249.388 226.588 252.117 223.859 252.117 220.493V198.738C252.117 195.372 249.388 192.643 246.022 192.643Z" fill="#93D6ED"/>
<path opacity="0.5" d="M246.022 233.92H224.267C220.901 233.92 218.172 236.649 218.172 240.015V261.77C218.172 265.136 220.901 267.865 224.267 267.865H246.022C249.388 267.865 252.117 265.136 252.117 261.77V240.015C252.117 236.649 249.388 233.92 246.022 233.92Z" fill="#93D6ED"/>
<path opacity="0.5" d="M246.022 275.664H224.267C220.901 275.664 218.172 278.392 218.172 281.759V303.514C218.172 306.88 220.901 309.609 224.267 309.609H246.022C249.388 309.609 252.117 306.88 252.117 303.514V281.759C252.117 278.392 249.388 275.664 246.022 275.664Z" fill="#93D6ED"/>
<path opacity="0.5" d="M290.038 275.664H268.283C264.916 275.664 262.188 278.392 262.188 281.759V303.514C262.188 306.88 264.916 309.609 268.283 309.609H290.038C293.404 309.609 296.133 306.88 296.133 303.514V281.759C296.133 278.392 293.404 275.664 290.038 275.664Z" fill="#93D6ED"/>
<path opacity="0.5" d="M336.811 275.664H315.056C311.69 275.664 308.961 278.392 308.961 281.759V303.514C308.961 306.88 311.69 309.609 315.056 309.609H336.811C340.177 309.609 342.906 306.88 342.906 303.514V281.759C342.906 278.392 340.177 275.664 336.811 275.664Z" fill="#93D6ED"/>
<g opacity="0.25">
<path d="M268.611 358.23C268.611 359.229 268.315 360.204 267.76 361.035C267.206 361.865 266.417 362.512 265.495 362.894C264.573 363.276 263.558 363.376 262.579 363.181C261.599 362.986 260.7 362.505 259.994 361.799C259.288 361.094 258.807 360.194 258.613 359.215C258.418 358.236 258.518 357.221 258.9 356.299C259.282 355.376 259.929 354.588 260.759 354.033C261.589 353.479 262.565 353.183 263.563 353.183C264.902 353.183 266.186 353.714 267.132 354.661C268.079 355.608 268.611 356.892 268.611 358.23Z" fill="#93D6ED"/>
<path d="M283.744 358.23C283.744 359.229 283.448 360.204 282.893 361.035C282.338 361.865 281.55 362.512 280.628 362.894C279.705 363.276 278.69 363.376 277.711 363.181C276.732 362.986 275.833 362.505 275.127 361.799C274.421 361.094 273.94 360.194 273.745 359.215C273.551 358.236 273.651 357.221 274.033 356.299C274.415 355.376 275.062 354.588 275.892 354.033C276.722 353.479 277.698 353.183 278.696 353.183C280.035 353.183 281.319 353.714 282.265 354.661C283.212 355.608 283.744 356.892 283.744 358.23Z" fill="#93D6ED"/>
<path d="M298.884 358.23C298.884 359.229 298.588 360.204 298.034 361.035C297.479 361.865 296.691 362.512 295.768 362.894C294.846 363.276 293.831 363.376 292.852 363.181C291.873 362.986 290.973 362.505 290.267 361.799C289.562 361.094 289.081 360.194 288.886 359.215C288.691 358.236 288.791 357.221 289.173 356.299C289.555 355.376 290.202 354.588 291.032 354.033C291.862 353.479 292.838 353.183 293.837 353.183C295.175 353.183 296.459 353.714 297.406 354.661C298.353 355.608 298.884 356.892 298.884 358.23Z" fill="#93D6ED"/>
</g>
<path d="M300.009 266.263C279.819 266.263 263.414 249.492 263.414 228.872C263.414 208.253 279.819 191.495 300.009 191.495C320.2 191.495 336.605 208.265 336.605 228.872C336.605 249.479 320.175 266.263 300.009 266.263ZM300.009 192.756C280.538 192.756 264.676 208.959 264.676 228.872C264.676 248.785 280.526 265.001 300.009 265.001C319.493 265.001 335.343 248.798 335.343 228.872C335.343 208.947 319.481 192.756 300.009 192.756Z" fill="#93D6ED"/>
<path d="M303.774 228.872C303.762 229.618 303.529 230.344 303.106 230.958C302.682 231.572 302.087 232.048 301.394 232.324C300.701 232.601 299.942 232.667 299.212 232.514C298.482 232.361 297.813 231.996 297.29 231.464C296.767 230.932 296.412 230.257 296.271 229.525C296.13 228.792 296.209 228.034 296.497 227.346C296.786 226.658 297.271 226.071 297.892 225.657C298.513 225.244 299.242 225.024 299.988 225.023C300.491 225.023 300.988 225.123 301.452 225.318C301.915 225.512 302.335 225.796 302.688 226.154C303.04 226.513 303.318 226.938 303.504 227.404C303.691 227.871 303.782 228.37 303.774 228.872Z" fill="#93D6ED"/>
<path d="M300.443 210.398L300.999 228.872L299.245 227.825L326.931 213.944C327.004 213.905 327.085 213.881 327.168 213.874C327.25 213.867 327.334 213.877 327.412 213.903C327.491 213.929 327.564 213.971 327.627 214.025C327.689 214.08 327.74 214.147 327.776 214.221C327.848 214.368 327.861 214.536 327.811 214.691C327.762 214.846 327.654 214.976 327.511 215.054L300.368 229.97C300.093 230.119 299.77 230.154 299.47 230.066C299.17 229.979 298.917 229.776 298.765 229.503C298.665 229.318 298.617 229.108 298.626 228.897L299.194 210.423C299.194 210.34 299.211 210.258 299.244 210.182C299.276 210.106 299.324 210.038 299.385 209.981C299.445 209.924 299.516 209.88 299.594 209.852C299.672 209.824 299.755 209.812 299.838 209.817C299.992 209.823 300.139 209.885 300.251 209.992C300.363 210.099 300.431 210.244 300.443 210.398Z" fill="#93D6ED"/>
<path style="mix-blend-mode:screen" opacity="0.43" d="M352.554 0H204.847C189.459 0 176.984 12.4747 176.984 27.8629V415.218C176.984 430.606 189.459 443.081 204.847 443.081H352.554C367.942 443.081 380.416 430.606 380.416 415.218V27.8629C380.416 12.4747 367.942 0 352.554 0Z" fill="url(#paint1_linear_3080_556)"/>
<g style="mix-blend-mode:multiply">
<path d="M327.932 109.622H223.055C216.552 109.622 211.281 114.893 211.281 121.395V165.726C211.281 172.229 216.552 177.5 223.055 177.5H327.932C334.434 177.5 339.706 172.229 339.706 165.726V121.395C339.706 114.893 334.434 109.622 327.932 109.622Z" fill="#4463E8"/>
</g>
<path d="M333.44 102.745H228.563C222.06 102.745 216.789 108.016 216.789 114.518V158.849C216.789 165.351 222.06 170.623 228.563 170.623H333.44C339.942 170.623 345.213 165.351 345.213 158.849V114.518C345.213 108.016 339.942 102.745 333.44 102.745Z" fill="white"/>
<path d="M356.863 90.9708C356.863 108.928 334.009 126.872 334.009 126.872C334.009 126.872 311.156 109.395 311.156 90.9708C311.156 84.9098 313.564 79.097 317.85 74.8112C322.136 70.5254 327.948 68.1177 334.009 68.1177C340.07 68.1177 345.883 70.5254 350.169 74.8112C354.455 79.097 356.863 84.9098 356.863 90.9708Z" fill="#93D6ED"/>
<path d="M334.005 104.953C341.601 104.953 347.76 98.7946 347.76 91.198C347.76 83.6015 341.601 77.4432 334.005 77.4432C326.408 77.4432 320.25 83.6015 320.25 91.198C320.25 98.7946 326.408 104.953 334.005 104.953Z" fill="white"/>
<g style="mix-blend-mode:multiply" opacity="0.25">
<path d="M241.214 155.088C241.214 155.088 237.983 159.341 237.428 161.663C236.885 163.631 228.342 170.496 225.667 172.667C219.887 184.869 195.772 215.117 187.81 213.388L187.318 213.288C185.993 212.997 182.144 212.114 177.008 210.764V187.545C182.283 189.93 185.841 191.747 185.841 191.747L187.355 190.485L218.234 164.792C218.739 163.278 221.755 154.356 222.5 153.435C223.244 152.514 223.471 152.085 224.594 152.173C225.717 152.262 225.68 153.435 225.68 153.435C225.68 153.435 227.736 150.243 229.162 150.634C230.424 150.987 229.44 153.158 229.162 153.789C229.541 153.12 230.967 150.583 232.241 151.012C233.516 151.441 232.822 153.296 232.721 153.536C233.024 153.069 237.87 145.574 238.501 144.703C239.132 143.832 240.431 144.009 239.762 146.091C239.094 148.173 235.371 155.795 235.043 156.905C234.715 158.016 234.248 161.587 235.346 159.543C236.444 157.499 238.236 154.861 239.649 154.722C241.062 154.584 241.214 155.088 241.214 155.088Z" fill="#1C54C7"/>
</g>
<path d="M172.297 127.453C174.337 127.357 176.382 127.399 178.417 127.579C178.417 127.579 175.224 121.963 175.893 118.518" fill="#DB7772"/>
<path d="M154.405 436.203C154.405 436.203 150.972 452.482 150.972 454.312C150.972 456.142 150.051 460.508 158.998 460.508C167.945 460.508 188.577 457.757 188.577 457.757C185.397 452.533 181.851 453.264 166.796 449.504L169.081 437.112L154.405 436.203Z" fill="#EFA19D"/>
<path d="M167.869 443.636L169.068 437.112L154.392 436.203C154.392 436.203 153.9 438.563 153.281 441.592C158.087 442.632 162.963 443.315 167.869 443.636Z" fill="#DB7772"/>
<path d="M168.248 191.028C168.248 191.028 115.639 158.559 124.447 142.596C133.256 126.632 173.662 169.916 173.662 169.916L214.813 154.861C214.813 154.861 221.046 155.782 220.125 161.777C219.204 167.771 176.236 195.999 168.248 191.028Z" fill="#DB7772"/>
<path d="M213.086 155.656C213.086 155.656 219.963 146.886 221.074 146.205C222.184 145.523 222.449 145.258 223.484 145.687C223.756 145.828 223.968 146.063 224.079 146.349C224.191 146.635 224.195 146.951 224.09 147.239C224.09 147.239 227.093 144.917 228.305 145.776C229.516 146.634 227.043 148.867 227.043 148.867C227.043 148.867 229.794 146.205 231.005 147.151C232.216 148.097 230.576 149.675 230.576 149.675C230.576 149.675 238.147 143.921 239.006 143.365C239.864 142.81 241.062 143.365 239.687 145.081C238.311 146.798 232.292 152.741 231.611 153.688C230.929 154.634 229.289 157.814 231.005 156.211C232.721 154.609 235.308 152.779 236.684 153.12C238.059 153.461 238.147 154.066 238.147 154.066C238.147 154.066 233.668 156.994 232.292 158.962C230.917 160.931 216.556 165.676 216.556 165.676L213.086 155.656Z" fill="#DB7772"/>
<path d="M167.248 138.053C162.882 138.053 155.096 134.62 155.096 134.62L150.465 152.502L131.195 142.873L139.928 124.298C139.928 124.298 126.488 109.622 137.669 96.3214C148.849 83.0209 173.671 96.5612 177.116 102.517C180.561 108.474 171.614 138.053 167.248 138.053Z" fill="#EFA19D"/>
<path d="M122.961 437.352V453.403C122.961 453.403 124.576 457.53 131.681 457.53H158.749C157.487 453.971 149.739 450.728 138.558 447.662V418.537" fill="#DB7772"/>
<path d="M132.324 439.686C134.406 439.686 136.489 439.75 138.558 439.85V418.537L122.961 437.352V439.964C126.015 440.216 129.371 439.712 132.324 439.686Z" fill="#CC5A58"/>
<path d="M145.133 449.63C142.452 451.604 139.13 452.504 135.82 452.154C131.025 451.561 127.491 447.99 122.961 446.829V453.378C122.961 453.378 124.576 457.504 131.681 457.504H158.749C157.79 454.716 152.717 452.116 145.133 449.63Z" fill="#040640"/>
<path d="M175.403 451.498C173.083 453.618 170.148 454.944 167.024 455.284C164.594 455.638 162.114 455.195 159.957 454.022C158.695 453.265 157.786 452.129 156.55 451.397C155.032 450.58 153.36 450.09 151.641 449.958C151.343 451.397 151.12 452.85 150.972 454.312C150.972 456.154 150.051 460.508 158.998 460.508C167.945 460.508 188.577 457.757 188.577 457.757C186.129 453.731 183.416 453.239 175.403 451.498Z" fill="#151870"/>
<path d="M121.434 438.033H139.782C139.782 438.033 154.458 345.838 154.458 302.719C154.458 259.6 160.162 231.951 160.162 231.951L117.472 227.27C117.472 227.27 116.79 274.288 120.463 299.514C124.135 324.739 120.917 421.477 121.434 438.033Z" fill="#88C3D2"/>
<path d="M170.448 441.251L161.312 439.989L159.962 439.813L153.034 438.904L159.911 349.006C159.911 349.006 132.389 287.993 122.761 265.972C115.656 249.757 116.148 236.406 116.905 230.5C117.029 229.4 117.219 228.309 117.473 227.232L131.998 226.841L160.492 226.083H160.82C160.82 226.083 184.215 304.99 186.966 332.084C189.717 359.177 170.448 441.251 170.448 441.251Z" fill="#93D6ED"/>
<path d="M174.114 355.467C172.94 362.546 163.829 423.42 161.318 440.014L159.968 439.838C162.492 423.244 171.59 362.294 172.764 355.227C174.025 347.479 172.246 333.661 172.082 332.513C171.451 330.935 161.57 306.479 151.892 282.163C131.701 231.245 132.168 230.5 132.483 229.957L133.077 230.311L133.745 230.412C133.846 233.314 157.482 292.8 173.344 332.071L173.407 332.235C173.521 332.815 175.489 347.214 174.114 355.467Z" fill="white"/>
<path d="M128.531 138.204L135.017 132.286C135.017 132.286 152.571 136.336 154.956 147.971C162.388 161.865 128.531 138.204 128.531 138.204Z" fill="white"/>
<path d="M160.483 200C159.358 208.675 159.358 217.459 160.483 226.134C160.483 226.134 160.483 226.222 160.483 226.26C152.016 230.046 141.618 230.715 133.087 230.285C129.617 230.121 126.45 229.793 123.863 229.44C120.077 228.241 117.452 227.282 117.452 227.282C117.452 227.282 113.023 199.457 111.521 179.002C111.269 175.746 111.105 172.692 111.042 169.941C110.575 149.99 125.705 138.974 125.705 138.974C137.189 131.175 149.328 141.965 154.843 147.921C162.742 161.612 164.433 170.257 163.916 178.371C163.537 185.084 161.606 191.444 160.483 200Z" fill="#1C54C7"/>
<g style="mix-blend-mode:multiply" opacity="0.5">
<path d="M154.511 240.545C152.264 240.512 150.06 241.173 148.202 242.438C148.202 242.438 148.555 242.438 150.183 242.349C151.811 242.261 159.723 242.097 160.076 243.397C160.43 244.696 157.83 245.012 154.221 244.936C150.612 244.86 150.259 245.782 150.259 245.782C152.089 245.621 153.93 245.621 155.761 245.782C159.471 246.047 159.117 249.328 156.202 248.722C153.287 248.116 144.933 249.328 139.608 249.492C134.283 249.656 131.254 248.848 127.847 244.936C127.601 244.642 127.404 244.31 127.267 243.952C124.743 241.744 120.957 236.709 116.957 230.55C117.081 229.451 117.27 228.359 117.525 227.282C117.525 227.282 113.095 199.457 111.594 179.002C122.951 164.49 141.577 143.971 151.975 150.217C167.585 159.619 122.863 198.384 122.863 198.384L132.1 226.891L133.21 230.285L135.507 237.39C139.507 237.996 146.788 234.589 151.003 233.314C155.218 232.039 160.127 233.844 160.202 234.689C160.278 235.535 158.941 236.065 155.306 235.951C151.672 235.838 146.7 238.702 146.7 238.702C146.7 238.702 147.394 238.526 150.839 237.933C154.284 237.339 160.732 238.362 160.808 239.825C160.884 241.289 158.461 240.545 154.511 240.545Z" fill="#1C54C7"/>
</g>
<path d="M101.869 189.437C101.869 189.437 136.281 138.065 151.866 147.466C167.45 156.868 122.69 195.596 122.69 195.596L136.23 237.339C136.23 237.339 135.082 243.535 129.113 242.387C123.145 241.239 96.594 197.236 101.869 189.437Z" fill="#EFA19D"/>
<path d="M138.475 171.746C139.838 173.083 141.2 174.433 142.513 175.834C152.053 164.767 159.864 152.274 151.876 147.467C145.024 143.327 134.525 150.949 124.922 160.78C130.386 162.609 134.538 167.834 138.475 171.746Z" fill="#DB7772"/>
<path d="M142.099 173.058C142.414 173.436 142.919 174.004 143.5 174.673C152.56 163.909 159.576 152.11 151.866 147.466C145.191 143.428 135.057 150.571 125.656 160.085C132.06 163.09 137.686 167.529 142.099 173.058Z" fill="white"/>
<path d="M127.745 242.185C131.165 246.097 134.168 246.905 139.506 246.741C144.844 246.577 153.172 245.365 156.1 245.958C159.027 246.551 159.368 243.296 155.671 243.043C153.841 242.866 151.999 242.866 150.169 243.043C150.169 243.043 150.51 242.097 154.119 242.185C157.728 242.274 160.315 241.92 159.974 240.633C159.633 239.346 151.708 239.51 150.081 239.598C148.453 239.687 148.099 239.687 148.099 239.687C149.958 238.422 152.161 237.762 154.409 237.794C158.371 237.794 160.718 238.488 160.605 237.024C160.491 235.56 154.068 234.5 150.636 235.131C147.203 235.762 146.497 235.901 146.497 235.901C146.497 235.901 151.406 232.973 155.103 233.15C158.8 233.327 160.087 232.809 159.999 231.951C159.911 231.093 155.103 229.276 150.8 230.576C146.497 231.875 139.014 235.384 135.064 234.614C131.114 233.844 124.729 238.652 127.745 242.185Z" fill="#EFA19D"/>
<path d="M167.243 138.053C162.876 138.053 155.09 134.62 155.09 134.62C155.09 134.62 149.349 128.487 151.305 121.938L151.633 121.257C151.633 121.257 154.005 132.336 167.243 138.053Z" fill="#DB7772"/>
<path d="M139.958 124.298C139.958 124.298 146.091 127.453 151.593 117.484C157.094 107.515 155.883 114.72 155.883 114.72C155.903 115.28 156.123 115.814 156.502 116.226C156.882 116.638 157.396 116.9 157.953 116.966C160.022 117.307 162.079 109.218 162.079 109.218C162.079 109.218 173.6 108.537 176.187 105.092C178.774 101.647 177.903 107.161 177.903 107.161C177.903 107.161 184.617 98.2143 166.205 92.3716C147.794 86.529 137.661 90.8195 134.393 99.9431C131.124 109.067 132.79 119.768 139.958 124.298Z" fill="#040640"/>
<path d="M158.028 108.726C158.028 108.726 152.803 103.981 150.835 111.691C148.866 119.402 154.999 120.272 154.999 120.272L158.028 108.726Z" fill="#DB7772"/>
<path d="M137.84 94.1762C138.926 90.8069 137.449 87.2105 135.998 83.98C135.491 82.7619 134.838 81.6094 134.055 80.5476C132.843 79.0939 131.229 78.0292 129.416 77.4861C127.603 76.9431 125.67 76.9458 123.858 77.4938C122.065 78.076 120.429 79.0611 119.075 80.3735C117.721 81.6859 116.685 83.2908 116.047 85.0653C115.421 86.5317 115.165 88.1297 115.301 89.7184C115.438 91.3071 115.963 92.838 116.83 94.1762C117.653 95.1695 118.666 95.9882 119.811 96.5842C120.955 97.1801 122.207 97.5413 123.492 97.6465C126.063 97.8353 128.647 97.6826 131.177 97.1922L137.651 96.2205" fill="#040640"/>
<path opacity="0.5" d="M177.358 103.994C177.711 103.161 178.443 102.454 178.834 101.634V101.571C178.039 98.6811 175.048 95.173 166.215 92.3716C152.624 88.0433 143.501 89.2799 138.453 93.8733C140.977 92.9647 143.387 91.6018 146.025 91.9047C149.444 92.2833 152.12 94.8702 155.565 95.2109C159.943 95.6526 165.37 93.949 169.193 96.8892C173.307 100.031 170.064 104.814 166.467 106.719C165.458 107.249 163.944 107.376 163.086 108.12C162.785 108.417 162.568 108.786 162.455 109.193C164.335 109.054 173.887 108.196 176.209 105.092C176.491 104.633 176.887 104.255 177.358 103.994Z" fill="#1C54C7"/>
<g opacity="0.5">
<path d="M128.868 81.2417C131.142 82.2812 132.944 84.1366 133.916 86.4407C135.178 88.9646 136.439 91.4 137.84 93.785C138.698 90.5293 137.298 87.0843 135.909 83.98C135.43 82.7662 134.807 81.6139 134.054 80.5476C132.842 79.0939 131.229 78.0292 129.416 77.4861C127.603 76.9431 125.67 76.9458 123.858 77.4938C121.161 78.35 118.856 80.1396 117.359 82.5415C121.006 80.7622 125.309 79.7652 128.868 81.2417Z" fill="#1C54C7"/>
</g>
<g style="mix-blend-mode:multiply" opacity="0.5">
<path d="M155.039 181.159C155.329 182.257 155.809 183.33 156.187 184.415C157.449 188.1 157.777 192.088 158.825 195.873C159.207 197.31 159.762 198.696 160.478 200C161.21 194.372 162.295 189.703 163.065 185.248C160.137 184.451 157.405 183.059 155.039 181.159Z" fill="#1C54C7"/>
</g>
<path d="M36.2983 416.732L35.0364 413.376L32.1719 411.218L35.5285 409.968L37.6738 407.091L38.9357 410.448L41.8002 412.593L38.4436 413.855L36.2983 416.732Z" fill="#D8E8ED"/>
<path d="M52.9089 399.318L47.9875 396.289L42.1953 396.403L45.2239 391.469L45.1229 385.689L50.0444 388.718L55.8365 388.617L52.808 393.538L52.9089 399.318Z" fill="#D8E8ED"/>
<path d="M57.7446 183.885L54.7034 181.5L50.8672 181.121L53.2522 178.093L53.6181 174.244L56.6467 176.629L60.4955 176.995L58.1105 180.036L57.7446 183.885Z" fill="#A6C9D2"/>
<path d="M66.696 207.962L64.9041 202.587L60.5 199.015L65.8757 197.224L69.4469 192.819L71.2262 198.208L75.6303 201.766L70.2545 203.558L66.696 207.962Z" fill="#A6C9D2"/>
<path d="M443.363 413.262L441.723 409.552L438.328 407.306L442.038 405.653L444.284 402.258L445.937 405.981L449.332 408.227L445.609 409.867L443.363 413.262Z" fill="#A6C9D2"/>
<path d="M430.056 404.555L427.04 400.428L422.258 398.586L426.384 395.557L428.227 390.787L431.255 394.914L436.025 396.756L431.899 399.785L430.056 404.555Z" fill="#A6C9D2"/>
<path d="M419.745 424.506L418.849 418.638L414.938 414.183L420.805 413.287L425.26 409.363L426.156 415.231L430.068 419.685L424.213 420.581L419.745 424.506Z" fill="#A6C9D2"/>
<path d="M397.507 105.496L395.677 98.9841L390.617 94.4917L397.129 92.6619L401.634 87.6017L403.463 94.1131L408.511 98.6181L402 100.448L397.507 105.496Z" fill="#D8E8ED"/>
<path d="M393.966 130.898L390.205 127.188L385.031 126.09L388.741 122.317L389.839 117.143L393.612 120.865L398.786 121.963L395.063 125.724L393.966 130.898Z" fill="#A6C9D2"/>
<path d="M412.479 118.644L409.248 116.954L405.602 117.269L407.305 114.026L406.977 110.392L410.22 112.083L413.867 111.767L412.163 114.998L412.479 118.644Z" fill="#D8E8ED"/>
<defs>
<linearGradient id="paint0_linear_3080_556" x1="20.2634" y1="452.141" x2="505.845" y2="452.141" gradientUnits="userSpaceOnUse">
<stop stop-color="white"/>
<stop offset="0.11" stop-color="#F2F9F6"/>
<stop offset="0.5" stop-color="#C9E6DC"/>
<stop offset="0.81" stop-color="#B0DACB"/>
<stop offset="1" stop-color="#A7D6C5"/>
</linearGradient>
<linearGradient id="paint1_linear_3080_556" x1="394.966" y1="20.1653" x2="162.435" y2="422.903" gradientUnits="userSpaceOnUse">
<stop stop-color="white"/>
<stop offset="0.08" stop-color="#DDDEE9"/>
<stop offset="0.2" stop-color="#ACB0CA"/>
<stop offset="0.33" stop-color="#8188AF"/>
<stop offset="0.46" stop-color="#5F6899"/>
<stop offset="0.59" stop-color="#444E88"/>
<stop offset="0.72" stop-color="#313C7C"/>
<stop offset="0.86" stop-color="#263274"/>
<stop offset="1" stop-color="#222E72"/>
</linearGradient>
</defs>
</svg>
