<svg width="482" height="630" viewBox="0 0 482 630" fill="none" xmlns="http://www.w3.org/2000/svg">
<g filter="url(#filter0_d_3569_769)">
<path d="M134.392 242.009C178.39 242.009 214.057 206.316 214.057 162.287C214.057 118.257 178.39 82.5645 134.392 82.5645C90.3939 82.5645 54.7266 118.257 54.7266 162.287C54.7266 206.316 90.3939 242.009 134.392 242.009Z" fill="white"/>
</g>
<path d="M152.773 228.781C157.766 236.213 163.102 243.424 168.77 250.351C168.561 242.218 168.352 234.084 168.598 225.336C163.729 226.259 158.872 227.194 152.773 228.781Z" fill="white"/>
<g opacity="0.31">
<path d="M0 602.881C0 607.815 11.8164 612.454 32.4366 616.428C35.5598 617.031 38.892 617.622 42.4209 618.2C43.4169 618.36 44.4252 618.52 45.458 618.68C46.1712 618.79 46.8966 618.901 47.6221 619.012C47.6221 619.012 47.6221 619.012 47.6344 619.012C47.9664 619.061 48.2984 619.11 48.6304 619.16C48.8025 619.184 48.9746 619.209 49.1468 619.233C50.0444 619.369 50.9543 619.492 51.8765 619.627C51.9871 619.64 52.0978 619.664 52.2208 619.676C52.5528 619.726 52.897 619.775 53.229 619.812C53.352 619.836 53.4749 619.849 53.6102 619.861C54.0897 619.935 54.5816 619.996 55.0734 620.058C99.2772 626.063 166.155 629.889 241 629.889C374.103 629.889 482 617.794 482 602.868C482 587.943 374.103 575.847 241 575.847C166.745 575.847 100.322 579.612 56.1186 585.543C54.1512 585.802 52.2331 586.072 50.3641 586.343C50.0936 586.38 49.8231 586.417 49.5526 586.466C47.4377 586.774 45.3842 587.094 43.3923 587.414C42.4947 587.561 41.6094 587.697 40.7364 587.844C37.6747 588.361 34.7606 588.878 32.0063 589.419C31.7481 589.468 31.4898 589.518 31.2439 589.567C30.7398 589.665 30.2357 589.764 29.7438 589.862C28.0224 590.219 26.3624 590.576 24.7763 590.933C23.8664 591.142 22.9934 591.339 22.1327 591.548C21.7884 591.634 21.4564 591.708 21.1244 591.794C18.6898 592.397 16.4396 593.024 14.3985 593.652C5.09051 596.531 0.0122959 599.632 0.0122959 602.868L0 602.881Z" fill="#7A8DB0"/>
</g>
<path d="M358.595 303.175L305.932 301.219L263.462 460.934L245.485 466.926C239.62 466.926 251.904 474.69 251.904 480.56H260.425H350.394C357.796 480.56 361.669 478.689 363.083 471.417L391.868 345.762C396.196 324.352 380.396 304.135 358.595 303.187V303.175Z" fill="#105E70"/>
<path d="M356.247 469.411L261.852 466.151L280.345 321.177C282.041 309.438 292.333 300.874 304.174 301.329L351.415 303.163C373.216 304.11 389.016 324.339 384.688 345.737L356.247 469.399V469.411Z" fill="#207A96"/>
<path d="M254.829 593.234H260.928V583.537C260.928 567.221 274.195 553.945 290.5 553.945H310.96C327.265 553.945 340.532 567.221 340.532 583.537V593.234H346.631V583.537C346.631 563.85 330.621 547.829 310.948 547.829H290.487C270.814 547.829 254.805 563.85 254.805 583.537V593.234H254.829Z" fill="#C1C1C1"/>
<path d="M256.798 593.234C262.788 593.234 267.643 588.375 267.643 582.381C267.643 576.387 262.788 571.528 256.798 571.528C250.809 571.528 245.953 576.387 245.953 582.381C245.953 588.375 250.809 593.234 256.798 593.234Z" fill="#8D8D8D"/>
<path d="M261.996 582.381C261.996 579.501 259.66 577.176 256.795 577.176C253.93 577.176 251.594 579.514 251.594 582.381C251.594 585.248 253.93 587.586 256.795 587.586C259.66 587.586 261.996 585.248 261.996 582.381Z" fill="#C1C1C1"/>
<path d="M304.325 480.24H298.227V549.81H304.325V480.24Z" fill="#C1C1C1"/>
<path d="M315.387 550.893H287.18C287.18 545.491 291.557 541.123 296.943 541.123H305.624C311.021 541.123 315.387 545.504 315.387 550.893Z" fill="#A5A5A5"/>
<path d="M342.509 593.234C348.499 593.234 353.354 588.375 353.354 582.381C353.354 576.387 348.499 571.528 342.509 571.528C336.52 571.528 331.664 576.387 331.664 582.381C331.664 588.375 336.52 593.234 342.509 593.234Z" fill="#8D8D8D"/>
<path d="M348.254 582.381C348.254 579.501 345.918 577.176 343.053 577.176C340.188 577.176 337.852 579.514 337.852 582.381C337.852 585.248 340.188 587.586 343.053 587.586C345.918 587.586 348.254 585.248 348.254 582.381Z" fill="#C1C1C1"/>
<path d="M214.367 304.627L198.444 312.773C196.661 307.408 195.432 303.827 194.891 303.372C194.891 303.372 181.095 281.531 180.529 277.988C179.976 274.493 185.829 279.021 186.001 279.156C185.902 278.997 182.779 274.05 182.509 271.798C182.238 269.51 187.734 273.435 187.734 273.435C187.734 273.435 184.267 267.799 185.558 267.344C186.812 266.901 190.231 270.765 190.403 270.974C190.194 270.629 184.734 261.868 188.73 264.12C192.764 266.384 204.445 280.547 204.666 280.818C204.592 280.547 201.789 269.768 204.838 269.46C206.068 269.337 209.424 278.406 211.527 282.823C212.511 284.903 210.494 296.605 210.494 296.605L214.367 304.615V304.627Z" fill="#F5B0A6"/>
<path d="M189.792 269.341L189.141 269.904L196.544 278.496L197.196 277.933L189.792 269.341Z" fill="#F18A8B"/>
<path d="M188.054 273.113L187.43 273.706L193.364 279.961L193.988 279.368L188.054 273.113Z" fill="#F18A8B"/>
<path d="M185.224 278.1L184.656 278.748L189.121 282.667L189.688 282.02L185.224 278.1Z" fill="#F18A8B"/>
<path d="M188.413 284.251C191.364 279.821 198.987 277.631 199.061 277.606L198.828 276.782C198.742 276.806 196.811 277.36 194.463 278.492C191.29 280.018 189.015 281.802 187.688 283.783L188.401 284.263L188.413 284.251Z" fill="#F18A8B"/>
<path d="M199.281 290.12L200.142 290.095C200.056 287.253 200.757 285.235 201.372 284.041C202.023 282.749 202.712 282.122 202.724 282.122L202.146 281.482C202.023 281.593 199.121 284.263 199.294 290.12H199.281Z" fill="#F18A8B"/>
<path d="M239.114 337.702L216.428 297.638L192.414 308.319C192.414 308.319 219.109 377.311 230.224 379.538C241.34 381.765 246.676 380.424 247.574 375.527C248.459 370.63 239.126 337.69 239.126 337.69L239.114 337.702Z" fill="#FBB94D"/>
<path d="M197.335 551.238C195.454 573.866 193.326 580.744 191.248 586.281C189.17 591.819 153.205 598.34 155.676 597.233C162.341 594.243 173.665 582.922 173.665 582.922C173.665 582.922 181.928 574.826 179.764 558.067L197.347 551.238H197.335Z" fill="#F5B0A6"/>
<path d="M170.322 585.531L153.993 598.192C153.157 598.783 153.747 599.792 154.952 599.792C154.952 599.792 192.073 599.484 192.122 598.992C192.442 595.928 193.045 582.504 192.676 582.504C191.299 582.504 186.183 591.265 183.417 590.342C181.56 589.727 173.088 586.208 172.326 585.58C171.822 585.149 170.887 585.137 170.322 585.531Z" fill="white"/>
<path d="M171.844 572.586L196.755 570.212L233.397 468.452C233.397 468.452 311.218 473.964 315.202 454.917C319.186 435.881 314.55 406.116 314.55 406.116L247.513 404.554L245.017 414.606C245.017 414.606 214.99 415.049 210.121 427.453C205.252 439.843 193.73 473.004 171.856 572.574L171.844 572.586Z" fill="#873944"/>
<path d="M184.561 568.735C184.856 567.628 213.653 457.821 217.157 447.275C219.149 441.295 240.778 441.64 259.861 441.947C273.866 442.169 287.084 442.39 294.523 440.532C298.458 439.548 301.163 437.53 302.553 434.552C306.02 427.108 300.388 415.517 297.978 410.558C297.511 409.611 297.032 408.614 296.995 408.393C296.995 408.405 296.995 408.417 296.995 408.429H295.839C295.839 408.786 296.097 409.352 296.933 411.063C299.27 415.862 304.741 427.12 301.495 434.06C300.253 436.718 297.819 438.514 294.241 439.413C286.949 441.234 273.792 441.025 259.873 440.803C238.503 440.459 218.313 440.126 216.051 446.919C212.522 457.501 183.712 567.345 183.43 568.452L184.549 568.747L184.561 568.735Z" fill="#722935"/>
<path d="M309.094 408.171C309.094 408.171 249.631 424.635 228.015 439.696C206.399 454.757 252.533 582.504 252.533 582.504C252.533 582.504 245.082 588.558 235.577 596.888C233.548 598.672 257.869 594.587 263.538 592.901C268.358 591.462 270.473 593 266.464 577.644C260.771 555.852 256.197 458.583 255.263 456.246C254.316 453.908 332.739 471.208 331.866 449.699C330.993 428.191 309.094 408.183 309.094 408.183V408.171Z" fill="#F5B0A6"/>
<path d="M249.122 585.088L233.507 597.762C232.707 598.352 233.273 599.361 234.416 599.361C234.416 599.361 269.927 599.029 269.976 598.537C270.284 595.473 268.218 582.455 267.861 582.455C266.546 582.455 264.492 592.089 261.836 591.166C260.053 590.551 251.754 585.765 251.041 585.137C250.561 584.706 249.663 584.694 249.122 585.088Z" fill="white"/>
<path d="M327.467 399.656C327.467 399.656 345.96 435.451 340.144 454.203C331.414 482.356 257.454 472.955 257.454 472.955L266.713 565.031L247.138 570.039C247.138 570.039 202.934 452.345 214.591 434.86C223.8 421.042 262.372 420.611 267.266 419.085C274.263 416.883 275.086 398.241 275.086 398.241L327.467 399.644V399.656Z" fill="#B15F60"/>
<path d="M256.614 568.132L257.733 567.849C257.475 566.803 231.998 463.751 234.973 453.342C236.609 447.595 254.241 447.706 271.271 447.817C284.6 447.903 298.371 447.989 307.249 445.602C311.319 444.507 314.208 442.181 315.856 438.699C318.118 433.9 318.02 426.911 315.561 417.953C313.618 410.878 310.716 404.504 309.622 402.117C309.401 401.637 309.216 401.219 309.179 401.12L308.085 401.49C308.134 401.637 308.257 401.92 308.577 402.597C317.934 423.109 317.135 433.285 314.823 438.207C313.335 441.381 310.692 443.486 306.966 444.495C298.236 446.832 284.538 446.746 271.296 446.672C252.225 446.549 235.76 446.451 233.879 453.034C230.817 463.739 255.581 563.887 256.639 568.144L256.614 568.132Z" fill="#873944"/>
<path d="M263.789 307.556C283.807 325.004 349.221 318.347 349.221 318.347L344.844 310.029L351.607 315.566L357.213 312.65C357.213 312.65 344.29 304.197 347.118 292.039C349.934 279.882 341.757 275.711 334.515 268.414C327.261 261.118 331.085 263.825 333.753 241.59C335.843 224.142 326.83 218.74 322.859 217.215C321.359 216.636 319.981 215.787 318.752 214.766C311.251 210.742 303.48 206.497 289.377 216.193C281.766 221.423 278.975 228.289 279.097 232.189L270.085 260.084C270.085 260.084 265.461 272.697 269.457 281.95C273.454 291.203 263.801 307.556 263.801 307.556H263.789Z" fill="black"/>
<path d="M316.847 209.044C318.249 204.602 322.97 202.141 327.409 203.544C331.848 204.947 334.307 209.672 332.905 214.114C331.504 218.556 326.782 221.017 322.343 219.614C317.904 218.211 315.445 213.486 316.847 209.044Z" fill="black"/>
<path d="M255.228 375.662L248.761 392.963L244.482 404.406C246.474 406.867 250.335 408.097 254.736 408.614C264.622 409.795 277.213 407.396 277.213 407.396C277.213 407.396 291.944 419.639 312.933 420.39C333.91 421.14 339.664 409.389 339.664 409.389C339.664 409.389 339.91 402.609 333.922 378.874C327.922 355.126 345.493 325.717 343.747 305.218C342.001 284.718 327.172 281.581 327.172 281.581L312.736 303.126L302.531 301.76L306.638 310.349C306.638 310.349 288.464 315.209 285.98 318.322C285.931 318.384 285.882 318.445 285.833 318.495C288.378 312.453 291.932 306.375 296.666 302.412C295.793 302.917 285.452 302.191 285.452 302.191C285.452 302.191 283.533 309.574 281.615 317.24C281.185 317.892 280.927 318.285 280.927 318.285L275.357 306.35L280.927 302.548L275.197 301.157L274.348 283.808C252.732 288.705 253.003 300.161 253.003 300.161C249.535 312.293 238.383 344.15 235.469 352.419L242.723 374.37L245.121 381.913C251.503 379.6 255.241 375.65 255.241 375.65L255.228 375.662Z" fill="#FBB94D"/>
<path d="M289.277 326.394L288.195 330.258L310.033 331.648L311.73 326.702L289.277 326.394Z" fill="#E2791A"/>
<path d="M322.721 354.08L282.391 370.974C282.391 370.974 325.5 357.87 331.562 356.75C331.562 356.75 333.16 354.67 331.082 348.764C329.004 342.858 320.705 317.449 323.902 298.598C323.902 298.598 314.2 311.998 325.66 347.731C326.484 350.29 325.193 353.034 322.721 354.08Z" fill="#FB9024"/>
<path d="M285.438 302.203C285.438 302.203 295.778 302.929 296.651 302.425C301.656 299.533 313.177 278.947 313.362 278.627C313.165 278.874 299.418 295.386 296.688 295.669C295.114 295.829 292.79 295.805 291.081 295.756C289.839 295.719 288.831 294.722 288.794 293.467L286.679 280.978L285.45 302.191L285.438 302.203Z" fill="#F5B0A6"/>
<path d="M277.758 388.336C277.758 388.336 279.713 342.329 280.992 334.786C282.271 327.243 287.054 310.46 296.657 302.425C295.784 302.929 285.443 302.203 285.443 302.203C285.443 302.203 278.975 327.108 277.893 332.903C277.303 336.078 276.319 356.172 276.196 374.604C276.147 381.925 277.758 388.336 277.758 388.336Z" fill="white"/>
<path d="M267.711 346.746C267.711 348.21 268.891 349.392 270.355 349.392C271.818 349.392 272.998 348.21 272.998 346.746C272.998 345.282 271.818 344.101 270.355 344.101C268.891 344.101 267.711 345.282 267.711 346.746Z" fill="#E2791A"/>
<path d="M269.714 364.104C271.201 363.752 272.122 362.261 271.771 360.773C271.42 359.285 269.93 358.363 268.443 358.714C266.956 359.066 266.035 360.557 266.386 362.045C266.736 363.533 268.227 364.455 269.714 364.104Z" fill="#E2791A"/>
<path d="M258.03 369.793C258.03 369.793 252.854 354.178 252.595 345.491C252.337 336.804 255.227 318.125 254.956 309.967C254.956 309.967 248.12 343.153 248.734 351.742C249.349 360.33 252.681 371.036 252.681 371.036L256.936 373.09L258.018 369.793H258.03Z" fill="#FB9024"/>
<path d="M306.494 276.585C306.494 276.585 297.887 291.633 291.898 292.815C291.898 292.815 303.137 292.273 306.494 276.585Z" fill="#EDEDED"/>
<path d="M282.91 372.18C285.48 378.529 285.394 383.919 284.89 387.278C284.546 389.554 284.017 390.883 283.992 390.945C305.547 395.104 330.287 393.184 349.616 385.838C368.933 378.492 363.99 363.948 363.99 363.948C363.99 363.948 354.251 313.782 348.03 301.317C341.808 288.853 336.533 287.413 336.533 287.413C336.533 287.413 326.573 286.33 323.917 298.598C320.72 317.449 329.032 342.858 331.098 348.764C333.176 354.67 331.578 356.75 331.578 356.75C325.516 357.87 282.406 370.974 282.406 370.974C282.591 371.38 282.763 371.786 282.923 372.18H282.91Z" fill="#FBB94D"/>
<path d="M258.82 386.084C258.82 386.084 249.967 391.621 249.18 394.144L249.659 395.436L250.127 396.679C250.127 396.679 258.033 391.141 261.98 391.461C265.927 391.781 266.874 395.251 270.193 394.304C273.513 393.356 283.977 390.945 283.977 390.945C284.002 390.883 284.531 389.566 284.863 387.315C285.367 383.968 285.465 378.554 282.895 372.18H282.354L258.021 369.793C258.021 369.793 255.18 368.845 253.434 369.953C251.7 371.06 242.688 374.382 242.688 374.382L247.274 388.767C247.274 388.767 251.541 386.872 253.274 386.392C255.008 385.924 258.807 386.072 258.807 386.072L258.82 386.084Z" fill="#F5B0A6"/>
<path d="M249.669 395.436L250.136 396.679C250.136 396.679 258.042 391.141 261.989 391.461C265.936 391.781 266.883 395.251 270.203 394.304C273.523 393.356 283.986 390.945 283.986 390.945C284.011 390.883 284.54 389.566 284.872 387.315C283.691 388.225 282.031 389.197 279.781 389.849C274.174 391.511 270.621 391.917 268.481 391.092C266.342 390.28 262.678 388.238 258.497 390.477C255.202 392.249 251.415 393.504 249.656 395.423L249.669 395.436Z" fill="#F18A8B"/>
<path d="M245.134 378.652C247.802 376.45 252.647 376.425 252.696 376.425V375.342C252.487 375.342 247.421 375.367 244.445 377.816L245.134 378.652Z" fill="#F18A8B"/>
<path d="M246.391 383.636C248.555 381.015 254.482 381.138 254.543 381.138L254.568 380.055C254.297 380.055 248.051 379.92 245.555 382.946L246.391 383.636Z" fill="#F18A8B"/>
<path d="M283.992 390.945C305.547 395.104 330.286 393.184 349.615 385.826C368.932 378.48 363.989 363.936 363.989 363.936C363.989 363.936 363.215 375.527 348.017 380.892C324.274 389.283 295.341 389.849 284.89 387.266C284.545 389.542 284.017 390.871 283.992 390.932V390.945Z" fill="#FB9024"/>
<path d="M314.178 240.975L314.264 240.188C306.149 239.24 299.153 234.81 296.017 228.609C292.341 221.324 295.476 214.803 296.521 212.982L295.833 212.588C294.739 214.495 291.456 221.337 295.304 228.978C298.55 235.413 305.78 240.028 314.166 241L314.178 240.975Z" fill="#333333"/>
<path d="M308.139 213.942C293.335 209.856 283.203 217.731 279.465 231.316C279.465 231.316 278.076 240.864 277.916 241.578C277.891 241.676 270.735 256.393 282.293 271.318C282.945 272.167 284.002 272.512 285.06 272.795C307.229 278.677 310.402 256.565 310.402 256.565C310.881 255.495 321.296 245.429 321.615 244.273C325.366 230.688 322.931 218.039 308.127 213.954L308.139 213.942Z" fill="#F5B0A6"/>
<path d="M313.206 248.789L310.169 280.584L290.594 278.714C290.631 278.554 290.643 278.406 290.668 278.246L293.655 246.931L313.206 248.801V248.789Z" fill="#F5B0A6"/>
<path d="M288.232 222.456L287.433 232.091C287.433 232.091 305.754 235.573 313.438 238.637C313.438 238.637 307.45 252.197 311.287 254.006C311.287 254.006 326.853 254.719 325.402 234.933C323.951 215.148 308.754 211.85 298.032 212.576C287.322 213.302 275.85 220.279 274.805 230.885L283.486 232.128C283.486 232.128 285.49 225.299 288.244 222.456H288.232Z" fill="black"/>
<path d="M288.893 259.654C287.171 259.494 286.114 258.952 286.016 258.903L286.397 258.189C286.594 258.288 291.131 260.576 297.07 256.38L297.537 257.045C294.045 259.506 290.983 259.863 288.893 259.666V259.654Z" fill="black"/>
<path d="M297.109 236.804C298.252 235.856 303.171 238.674 303.368 238.834C304.868 239.966 304.179 240.987 303.896 241.32C303.736 241.516 303.171 241.123 301.732 240.581C298.67 239.425 297.256 239.708 296.777 238.662C296.494 238.047 296.642 237.185 297.097 236.804H297.109Z" fill="black"/>
<path d="M286.421 235.475C285.843 234.392 281.503 235.167 281.306 235.216C279.818 235.61 279.744 236.472 279.855 236.816C279.916 237.013 280.47 236.89 281.736 236.914C284.429 236.976 285.425 237.64 286.101 236.988C286.507 236.607 286.667 235.906 286.433 235.475H286.421Z" fill="black"/>
<path d="M286.617 252.505C286.543 252.468 284.674 251.569 284.49 249.834C284.355 248.493 285.24 247.09 287.134 245.663L287.625 246.315C286.002 247.546 285.203 248.739 285.302 249.748C285.437 251.04 286.949 251.766 286.974 251.779L286.63 252.517L286.617 252.505Z" fill="black"/>
<path d="M321.71 256.774C320.309 261.142 315.98 263.653 312.046 262.385C308.111 261.118 306.045 256.553 307.447 252.185C308.849 247.816 313.177 245.306 317.112 246.574C321.046 247.841 323.112 252.406 321.71 256.774Z" fill="#F5B0A6"/>
<path d="M315.157 257.008C314.739 255.839 312.624 255.273 311.837 255.15L311.32 255.064L311.529 254.584C312.316 252.714 313.398 251.557 314.726 251.126C316.411 250.585 317.849 251.446 317.911 251.483L317.493 252.172C317.493 252.172 316.3 251.471 314.972 251.889C313.989 252.209 313.152 253.071 312.488 254.436C313.448 254.67 315.415 255.298 315.931 256.725L315.169 256.996L315.157 257.008Z" fill="black"/>
<g opacity="0.6">
<path d="M310.555 256.602C311.256 253.107 311.256 249.318 311.256 249.318C306.08 248.825 301.481 252.615 300.989 257.796C300.608 261.758 302.747 265.363 306.08 267.073C309.744 262.25 310.555 256.602 310.555 256.602Z" fill="#F18A8B"/>
<path d="M276.83 244.593C275.896 247.853 274.937 253.464 276.609 259.949C278.822 258.423 280.372 255.974 280.642 253.083C280.974 249.65 279.412 246.488 276.818 244.593H276.83Z" fill="#F18A8B"/>
</g>
<path d="M299.937 245.749C299.655 246.721 298.954 247.373 298.4 247.201C297.835 247.029 297.613 246.106 297.896 245.146C298.179 244.174 298.88 243.522 299.433 243.694C299.999 243.867 300.22 244.789 299.937 245.749Z" fill="black"/>
<path d="M283.29 242.968C283.032 243.854 282.405 244.445 281.888 244.285C281.372 244.137 281.175 243.288 281.434 242.415C281.692 241.529 282.319 240.938 282.835 241.086C283.352 241.234 283.548 242.083 283.29 242.956V242.968Z" fill="black"/>
<g opacity="0.5">
<path d="M300.9 214.569C300.359 214.397 307.11 214.705 312.987 217.781C320.5 221.718 324.287 229.064 323.758 229.569C323.353 229.962 319.91 226.751 319.209 227.415C318.717 227.871 319.984 229.729 319.615 229.999C318.963 230.491 314.303 224.844 313.405 225.459C313.012 225.729 313.713 226.96 313.319 227.255C312.581 227.809 309.557 223.859 304.835 220.783C300.519 217.965 296.892 217.264 297.002 216.919C297.199 216.279 309.2 219.553 309.36 218.999C309.495 218.531 306.138 216.218 300.925 214.569H300.9Z" fill="#545454"/>
</g>
<path d="M313.867 280.781C314.285 284.497 313.855 287.364 314.519 288.09C303.834 298.586 280.742 306.977 286.349 283.168C286.349 283.168 286.792 281.814 287.542 272.66L312.047 262.397C312.49 269.091 313.351 276.302 313.867 280.793V280.781Z" fill="#F5B0A6"/>
<path d="M287.446 273.447C287.446 273.447 298.943 274.936 306.911 269.116C306.911 269.116 296.373 280.215 286.844 280.621L287.434 273.447H287.446Z" fill="#F18A8B"/>
<path d="M285.82 318.507C285.82 318.507 285.919 318.396 285.968 318.335C288.452 315.221 306.625 310.361 306.625 310.361L302.518 301.772L312.724 303.138L327.159 281.593L314.47 278.873L313.375 278.64C313.216 278.923 301.682 299.533 296.665 302.437C291.944 306.399 288.378 312.465 285.833 318.519L285.82 318.507Z" fill="#E2791A"/>
<path d="M275.181 301.182L280.911 302.572L275.341 306.374L280.911 318.31C280.911 318.31 281.169 317.916 281.599 317.264C283.518 309.598 285.436 302.215 285.436 302.215L286.665 281.002L274.32 283.845L275.169 301.194L275.181 301.182Z" fill="#E2791A"/>
<path d="M248.276 394.353H151.433C149.601 394.353 147.843 392.987 147.511 391.301L136.039 333.334C135.707 331.648 136.924 330.282 138.756 330.282H235.599C237.431 330.282 239.189 331.648 239.521 333.334L250.993 391.301C251.325 392.987 250.108 394.353 248.276 394.353Z" fill="#353234"/>
<path d="M314.511 397.614C314.511 398.623 314.105 399.546 313.441 400.21C312.765 400.874 311.842 401.293 310.822 401.293H152.192C150.151 401.293 148.516 399.632 148.516 397.614C148.516 396.605 148.921 395.682 149.585 394.993C150.262 394.328 151.184 393.922 152.204 393.922H310.834C312.875 393.922 314.511 395.559 314.511 397.601V397.614Z" fill="#262325"/>
<path d="M314.516 397.614C314.516 398.623 314.048 399.546 313.274 400.21C312.475 400.874 311.405 401.293 310.224 401.293H255.643C253.257 401.293 251.352 399.632 251.352 397.614C251.352 396.605 251.819 395.682 252.593 394.993C253.368 394.328 254.438 393.922 255.643 393.922H310.224C312.61 393.922 314.516 395.559 314.516 397.601V397.614Z" fill="#0F0D0F"/>
<path d="M248.266 394.353H243.286C245.131 394.353 246.336 392.975 246.004 391.301L234.532 333.334C234.2 331.636 232.441 330.282 230.609 330.282H235.589C237.421 330.282 239.18 331.636 239.512 333.334L250.984 391.301C251.316 392.975 250.098 394.353 248.266 394.353Z" fill="#262325"/>
<path d="M189.799 367.332C196.631 367.332 202.169 364.869 202.169 361.832C202.169 358.794 196.631 356.331 189.799 356.331C182.968 356.331 177.43 358.794 177.43 361.832C177.43 364.869 182.968 367.332 189.799 367.332Z" fill="white"/>
<path d="M455.525 401.539H24.8359V412.687H455.525V401.539Z" fill="#3D5891"/>
<path d="M444.308 412.687H36.0469V423.835H444.308V412.687Z" fill="#2F4171"/>
<path d="M36.0751 603.237H31.5625L44.67 423.835H56.1666L36.0751 603.237Z" fill="#243354"/>
<path d="M56.1666 423.835L54.8263 434.306H43.7969L44.6699 423.835H56.1666Z" fill="#1D2A42"/>
<path d="M444.283 603.237H448.784L435.676 423.835H424.18L444.283 603.237Z" fill="#243354"/>
<path d="M424.18 423.835L425.532 434.306H436.549L435.676 423.835H424.18Z" fill="#1D2A42"/>
<path d="M441.274 392.286C439.983 392.138 438.643 392.175 437.389 392.409C435.913 392.68 434.499 393.221 433.171 394.008C432.384 394.476 431.72 394.931 431.143 395.411C430.442 395.977 429.815 396.617 429.286 397.158C428.228 398.266 427.245 399.533 426.261 401.059C424.417 403.938 422.818 407.322 421.355 411.432C420.765 413.093 420.211 414.89 419.56 417.24C419.019 419.196 418.527 421.202 418.047 423.38C417.297 426.776 416.67 430.43 416.055 434.848C415.625 438.01 415.293 441.135 415.084 444.162C415.01 445.245 414.949 446.328 414.912 447.411C414.814 450.967 414.875 454.855 415.121 459.297C415.367 463.776 415.785 468.329 416.191 472.722C416.338 474.284 416.486 475.859 416.621 477.422C417.15 483.291 417.666 489.53 417.789 495.67C417.875 500.506 417.703 504.861 417.273 508.983L417.15 509.193V509.217H417.137L417.088 509.316L417.027 509.414L417.051 509.39C416.953 509.537 416.867 509.685 416.781 509.832C416.658 510.042 416.584 510.226 416.621 510.485C416.658 510.706 416.781 510.903 416.953 511.038C417.076 511.125 417.224 511.186 417.371 511.211C417.445 511.211 417.531 511.211 417.605 511.211C417.801 511.186 418.047 511.063 418.158 510.878C418.355 510.534 418.551 510.202 418.748 509.857C419.191 509.07 419.646 508.294 420.101 507.519C420.654 506.559 421.22 505.612 421.761 504.64C422.646 503.053 423.556 501.367 424.626 499.349C426.286 496.174 427.995 492.655 429.851 488.595C431.966 483.956 433.971 479.169 435.901 474.543C437.045 471.799 438.2 469.042 439.368 466.311L439.467 466.089C442.615 458.805 445.861 451.262 448.467 443.621C449.636 440.2 450.668 436.607 451.652 432.608L451.96 431.378C452.328 429.864 452.71 428.339 453.054 426.825C453.964 422.851 455.046 417.609 455.242 412.195C455.341 409.402 455.206 406.99 454.8 404.824C454.591 403.68 454.283 402.548 453.865 401.428C453.496 400.444 453.005 399.472 452.353 398.463C451.812 397.614 451.099 396.826 450.189 396.026C449.328 395.276 448.295 394.71 447.41 394.242C445.725 393.356 443.967 392.729 442.172 392.397C441.889 392.347 441.606 392.298 441.324 392.274L441.274 392.286Z" fill="#6FC183"/>
<path d="M397.517 449.81C397.235 449.773 396.94 449.761 396.644 449.761C396.276 449.761 395.833 449.773 395.39 449.847C394.972 449.909 394.566 450.007 394.087 450.155C393.435 450.339 392.784 450.635 392.144 451.016C391.37 451.471 390.706 451.951 390.128 452.493C388.886 453.625 387.816 455.04 386.845 456.824C385.996 458.374 385.357 460.208 384.926 462.435C384.508 464.49 384.398 466.717 384.594 469.067C384.705 470.445 384.951 471.786 385.172 472.906C385.418 474.112 385.726 475.392 386.168 477.028C386.943 479.821 387.865 482.553 388.935 485.174C391.21 490.773 393.952 496.064 396.571 500.948C397.37 502.425 398.169 503.889 398.968 505.354C400.899 508.885 402.903 512.552 404.735 516.219C405.043 516.834 405.338 517.437 405.633 518.052C405.645 518.101 405.67 518.15 405.694 518.187L405.768 518.335L405.842 518.483C405.891 518.593 406.002 518.667 406.125 518.692C406.186 518.692 406.248 518.692 406.297 518.667C406.346 518.655 406.383 518.618 406.407 518.593C406.715 518.593 407.01 518.384 407.145 518.089C411.375 508.59 413.047 497.06 412.125 483.845C411.928 481.076 411.596 478.197 411.104 475.072C410.662 472.254 410.096 469.399 409.408 466.618C409.076 465.265 408.719 463.899 408.326 462.582C407.858 460.971 407.403 459.679 406.912 458.522C406.444 457.439 405.866 456.344 405.178 455.261C404.637 454.412 404.022 453.637 403.358 452.948C401.981 451.533 400.518 450.598 398.981 450.155C398.464 450.007 397.997 449.909 397.53 449.859L397.517 449.81Z" fill="#40947E"/>
<path d="M382.934 510.042C382.516 509.992 382.122 509.98 381.729 510.005C380.979 510.054 380.229 510.288 379.577 510.694C378.974 511.051 378.458 511.567 378.04 512.22C377.204 513.524 376.847 515.185 376.946 517.301C377.044 519.319 377.634 521.473 378.827 524.069C379.897 526.407 381.237 528.72 382.934 531.144C384.458 533.322 386.204 535.451 388.258 537.653C392.414 542.095 397.48 546.316 403.308 550.192C403.382 550.241 403.456 550.266 403.529 550.278C403.665 550.524 403.886 550.684 404.144 550.721C404.206 550.721 404.267 550.721 404.329 550.721C404.513 550.696 404.685 550.586 404.808 550.426C404.919 550.266 404.968 550.081 404.931 549.909C404.021 544.827 403.025 540.373 401.869 536.3C400.296 530.701 398.586 526.284 396.508 522.396C395.34 520.218 394.074 518.274 392.721 516.612C391.184 514.717 389.426 513.13 387.508 511.9C385.897 510.854 384.372 510.239 382.946 510.066L382.934 510.042Z" fill="#2E6857"/>
<path d="M466.938 477.742C466.618 477.705 466.286 477.68 465.954 477.668C464.393 477.619 462.745 477.828 460.901 478.32C459.204 478.776 457.47 479.415 455.601 480.314C453.941 481.101 452.232 482.049 450.351 483.23C448.752 484.239 447.105 485.371 445.469 486.614C442.666 488.73 440.145 490.933 437.981 493.172C436.211 494.993 434.452 497.023 432.608 499.386C430.837 501.65 429.153 504.062 427.579 506.572C424.529 511.469 421.96 516.735 419.943 522.211C416.894 530.504 415.172 539.241 414.816 548.199C414.816 548.272 414.816 548.346 414.853 548.408C414.816 548.469 414.791 548.555 414.779 548.642C414.754 548.838 414.816 549.035 414.939 549.183C415.062 549.331 415.234 549.441 415.43 549.454C415.59 549.478 415.836 549.429 415.971 549.294L416.181 549.084L416.39 548.875C416.476 548.789 416.574 548.703 416.672 548.617L416.82 548.494C417.103 548.248 417.386 547.989 417.668 547.731L418.578 546.907L419.488 546.07C420.656 545.012 421.837 543.966 423.042 542.944C425.255 541.062 427.271 539.474 429.202 538.084C431.575 536.374 434.071 534.762 436.493 533.199L437.194 532.744L437.797 532.362C444.4 528.105 451.212 523.7 457.519 518.79C461.159 515.96 464.233 513.229 466.938 510.46C469.901 507.421 472.164 504.492 473.848 501.49C475.631 498.315 476.615 495.141 476.775 492.065C476.861 490.416 476.701 488.779 476.308 487.192C475.84 485.297 475.103 483.587 474.119 482.098C473.664 481.409 473.086 480.757 472.422 480.141C471.856 479.625 471.217 479.182 470.455 478.775C469.434 478.234 468.254 477.877 466.963 477.73L466.938 477.742Z" fill="#40947E"/>
<path d="M474.379 522.789C473.691 522.703 472.928 522.679 472.068 522.679C470.555 522.691 468.907 522.875 467.014 523.232C465.465 523.528 463.854 523.921 462.083 524.45C460.694 524.869 459.366 525.336 458.112 525.841C456.206 526.604 454.411 527.625 453.046 528.425C450.783 529.754 448.496 531.366 446.271 533.211C440.418 538.035 435.34 544.31 431.577 551.361C431.552 551.398 431.552 551.447 431.552 551.484C431.27 551.693 431.171 552.074 431.294 552.407C431.405 552.677 431.651 552.862 431.946 552.899C432.081 552.911 432.216 552.899 432.327 552.85L433.385 552.431C433.901 552.222 434.417 552.025 434.934 551.816L435.696 551.496C436.36 551.213 437.024 550.942 437.7 550.672C438.389 550.401 439.127 550.143 439.963 549.884C441.623 549.367 443.344 548.912 444.967 548.482L447.709 547.768C450.439 547.054 453.279 546.328 456.046 545.553C459.231 544.655 463.399 543.424 467.493 541.775C469.387 541.013 471.035 540.25 472.498 539.462C474.133 538.576 475.486 537.69 476.629 536.755C477.859 535.746 478.793 534.737 479.47 533.654C479.839 533.064 480.121 532.473 480.318 531.895C480.527 531.28 480.65 530.615 480.699 529.914C480.761 529.04 480.699 528.228 480.527 527.49C480.355 526.764 480.084 526.136 479.679 525.546C478.83 524.29 477.502 523.638 476.531 523.306C475.867 523.085 475.154 522.925 474.342 522.826L474.379 522.789Z" fill="#2E6857"/>
<path d="M439.753 399.681C439.753 399.509 439.95 399.373 440.122 399.398C440.307 399.423 440.417 399.582 440.405 399.755C439.606 412.232 437.97 424.647 435.77 436.964C434.786 442.452 433.704 447.94 432.536 453.391C431.368 458.842 430.138 464.281 428.847 469.695C427.556 475.121 426.24 480.535 424.888 485.937C423.56 491.252 422.256 496.568 420.904 501.871C420.904 501.871 420.904 501.859 420.904 501.847C419.711 506.535 418.555 511.235 417.363 515.923C417.363 515.899 417.375 515.874 417.387 515.85C416.416 519.689 415.42 523.515 414.436 527.342C414.473 527.207 414.51 527.071 414.534 526.936C413.428 531.292 412.567 535.709 412.038 540.176C411.547 544.31 411.325 548.469 411.374 552.641C411.436 555.778 411.633 558.904 411.965 562.029C412.297 565.241 412.764 568.427 413.28 571.614C413.416 572.451 412.813 573.251 411.989 573.386C411.583 573.448 411.153 573.337 410.821 573.091C410.489 572.845 410.292 572.488 410.219 572.094C408.854 564.97 408.116 557.722 408.202 550.475C408.251 547.017 408.46 543.572 408.878 540.151C409.321 536.571 409.948 533.027 410.76 529.52C411.387 526.764 412.112 524.044 412.85 521.313C413.575 518.606 414.313 515.899 415.075 513.192C416.6 507.815 418.174 502.45 419.736 497.073C421.297 491.72 422.871 486.367 424.347 480.99C425.084 478.296 425.834 475.625 426.56 472.931C427.273 470.261 427.974 467.59 428.662 464.908C428.662 464.945 428.65 464.982 428.638 465.019C428.785 464.416 428.945 463.825 429.093 463.235C429.093 463.247 429.093 463.259 429.093 463.272C430.396 458.116 431.613 452.936 432.732 447.743C433.864 442.501 434.921 437.235 435.843 431.944C437.7 421.276 439.065 410.521 439.766 399.718L439.753 399.681ZM417.289 516.219C417.301 516.145 417.326 516.071 417.35 515.997C417.326 516.071 417.313 516.145 417.289 516.219ZM417.338 515.997C417.338 515.997 417.35 515.936 417.363 515.911C417.363 515.936 417.35 515.973 417.338 515.997ZM428.65 464.883C428.65 464.883 428.65 464.834 428.662 464.822C428.662 464.847 428.662 464.871 428.65 464.883Z" fill="#275647"/>
<path d="M394.883 460.417C394.809 460.208 395.006 460.035 395.178 460.06C395.252 460.06 395.326 460.122 395.363 460.22C396.432 463.161 397.404 466.126 398.265 469.129C399.986 475.084 401.351 481.138 402.494 487.229C403.072 490.28 403.65 493.332 404.142 496.408C404.646 499.472 405.126 502.548 405.593 505.624C405.826 507.162 406.048 508.7 406.269 510.239C406.49 511.777 406.724 513.315 406.921 514.853C407.314 517.929 407.732 521.017 408.15 524.094C408.556 527.157 408.962 530.234 409.331 533.31C409.515 534.86 409.675 536.423 409.86 537.973C409.97 538.822 410.081 539.659 410.192 540.508C410.29 541.296 410.388 542.071 410.413 542.858C410.413 543.092 410.401 543.289 410.253 543.486C410.118 543.658 409.933 543.769 409.724 543.806C409.368 543.867 408.987 543.658 408.839 543.326C408.667 542.907 408.532 542.477 408.396 542.046C407.929 540.459 407.659 538.81 407.351 537.173C407.056 535.66 406.81 534.134 406.589 532.608C406.146 529.545 405.802 526.468 405.482 523.38C405.322 521.83 405.175 520.291 405.04 518.741C404.904 517.191 404.72 515.653 404.585 514.102C404.302 511.001 404.056 507.888 403.748 504.788C403.441 501.687 403.121 498.598 402.753 495.498C402.396 492.409 401.953 489.333 401.449 486.269C400.453 480.166 399.113 474.1 397.392 468.156C396.629 465.56 395.805 462.976 394.871 460.429L394.883 460.417ZM397.404 468.206C397.404 468.206 397.392 468.169 397.392 468.144C397.392 468.169 397.392 468.181 397.404 468.206Z" fill="#275647"/>
<path d="M382.86 517.449C382.946 517.388 383.044 517.363 383.13 517.375C383.229 517.375 383.327 517.437 383.389 517.523C386.352 520.931 389.229 524.401 391.934 528.019C393.705 530.394 395.402 532.805 397.025 535.279C398.66 537.764 400.332 540.237 401.808 542.821C403.271 545.368 404.697 547.965 405.829 550.684C406.382 552.038 406.911 553.403 407.353 554.794C407.808 556.258 408.226 557.735 408.521 559.248C408.669 560.036 408.054 560.811 407.28 560.934C406.665 561.032 405.927 560.688 405.706 560.06C404.943 557.919 404.242 555.766 403.492 553.625C402.73 551.472 401.931 549.318 401.095 547.19C400.259 545.049 399.3 542.957 398.316 540.89C397.836 539.881 397.357 538.859 396.828 537.875C396.324 536.927 395.795 536.017 395.242 535.094C395.242 535.069 395.217 535.057 395.205 535.045C395.18 535.008 395.168 534.983 395.143 534.946C395.143 534.946 395.143 534.971 395.156 534.971C393.348 531.969 391.406 529.04 389.328 526.222C387.25 523.392 385.073 520.636 382.786 517.978C382.651 517.818 382.688 517.56 382.848 517.437L382.86 517.449ZM395.242 535.094C395.242 535.094 395.193 535.02 395.168 534.983C395.18 535.008 395.193 535.032 395.217 535.057C395.217 535.069 395.23 535.082 395.242 535.094Z" fill="#275647"/>
<path d="M465.943 484.965C466.042 484.879 466.165 484.854 466.275 484.866C466.398 484.879 466.509 484.94 466.595 485.039C466.755 485.235 466.706 485.518 466.521 485.691L465.156 486.847C461.603 489.874 458.074 492.926 454.619 496.064C452.75 497.762 450.905 499.497 449.061 501.244C447.217 503.003 445.384 504.788 443.589 506.609C443.589 506.609 443.602 506.609 443.614 506.584C443.602 506.596 443.577 506.621 443.565 506.633C443.528 506.67 443.503 506.695 443.466 506.732C443.466 506.732 443.466 506.732 443.479 506.719C443.22 506.978 442.974 507.236 442.729 507.495C439.04 511.321 435.474 515.271 432.179 519.43C430.543 521.497 428.982 523.638 427.494 525.816C426.756 526.899 426.043 527.994 425.342 529.102C424.69 530.135 424.051 531.169 423.449 532.227C423.473 532.178 423.498 532.129 423.522 532.079L423.399 532.313C423.399 532.313 423.362 532.387 423.338 532.424C423.338 532.399 423.362 532.387 423.375 532.362C421.801 535.18 420.411 538.084 419.17 541.062C418.001 543.867 416.993 546.734 416.219 549.663C415.69 551.742 415.272 553.859 415.014 555.987C414.878 557.083 414.78 558.178 414.706 559.273C414.669 559.802 414.632 560.319 414.608 560.848C414.596 561.131 414.571 561.414 414.546 561.709C414.534 561.906 414.509 562.091 414.497 562.287C414.497 562.349 414.497 562.398 414.497 562.46C414.534 562.73 414.497 562.989 414.411 563.235C414.35 563.346 414.288 563.456 414.227 563.567C413.993 563.875 413.649 564.084 413.268 564.145C412.874 564.207 412.468 564.096 412.149 563.862C411.866 563.653 411.595 563.272 411.583 562.903C411.583 562.718 411.583 562.521 411.546 562.324C411.522 562.189 411.497 562.041 411.472 561.906C411.435 561.623 411.399 561.34 411.386 561.057C411.337 560.38 411.312 559.703 411.312 559.027C411.312 557.833 411.374 556.627 411.485 555.434C411.743 552.924 412.222 550.45 412.874 548.014C413.501 545.651 414.3 543.338 415.259 541.099C415.751 539.954 416.268 538.822 416.833 537.715C417.448 536.509 418.112 535.328 418.801 534.159C420.079 531.944 421.481 529.791 422.932 527.687C425.932 523.355 429.351 519.295 432.88 515.382C436.458 511.42 440.22 507.655 444.093 503.988C445.975 502.204 447.881 500.469 449.811 498.746C451.668 497.085 453.574 495.461 455.467 493.824C458.935 490.846 462.464 487.93 465.956 484.989L465.943 484.965ZM423.399 532.313C423.399 532.313 423.436 532.252 423.449 532.227C423.424 532.276 423.399 532.313 423.375 532.362C423.375 532.35 423.387 532.338 423.399 532.313ZM443.565 506.633C443.565 506.633 443.589 506.609 443.589 506.596C443.552 506.633 443.516 506.67 443.479 506.707C443.503 506.683 443.528 506.658 443.552 506.621L443.565 506.633Z" fill="#275647"/>
<path d="M474.146 527.551C474.146 527.551 474.245 527.539 474.294 527.539C474.491 527.564 474.663 527.736 474.7 527.92C474.749 528.179 474.577 528.388 474.331 528.462C473.212 528.806 472.093 529.163 470.974 529.545C470.974 529.545 470.986 529.545 470.999 529.545C466.658 531.021 462.379 532.682 458.223 534.614C456.133 535.586 454.067 536.632 452.063 537.752C450.132 538.835 448.263 540.004 446.431 541.234C443.948 542.907 441.525 544.716 439.263 546.673C437 548.629 434.849 550.696 432.894 552.948C431.135 555.015 429.512 557.193 428.049 559.47C427.274 560.675 426.524 561.918 425.836 563.173C425.159 564.404 424.508 565.659 423.856 566.914C423.672 567.258 423.254 567.505 422.885 567.578C422.503 567.652 422.085 567.578 421.766 567.357C421.212 567 420.917 566.249 421.151 565.61C421.864 563.666 422.799 561.795 423.831 560.011C426.401 555.557 429.758 551.582 433.521 548.1C437.246 544.642 441.415 541.665 445.817 539.142C448.018 537.875 450.292 536.731 452.592 535.635C454.903 534.528 457.276 533.519 459.649 532.559C464.408 530.664 469.277 529.04 474.183 527.551H474.146ZM433.09 552.69C433.016 552.764 432.955 552.85 432.881 552.936C432.955 552.85 433.016 552.776 433.09 552.69ZM470.986 529.532C470.986 529.532 471.048 529.508 471.085 529.495C471.048 529.508 471.023 529.52 470.986 529.532Z" fill="#275647"/>
<path d="M433.597 401.576C433.597 401.576 433.646 401.576 433.658 401.576C433.769 401.588 433.867 401.674 433.88 401.797C434.003 402.425 434.125 403.065 434.273 403.692C434.421 404.307 434.58 404.923 434.753 405.526C434.753 405.538 434.753 405.55 434.765 405.575C434.765 405.575 434.765 405.599 434.765 405.612C435.244 407.248 435.847 408.848 436.535 410.423C436.867 411.186 437.212 411.949 437.568 412.699C437.925 413.438 438.282 414.176 438.626 414.926C438.724 415.148 438.626 415.431 438.392 415.529C438.208 415.603 437.974 415.554 437.851 415.394C437.113 414.422 436.535 413.327 436.056 412.207C435.589 411.124 435.22 409.992 434.9 408.848C434.261 406.559 433.793 404.234 433.363 401.896C433.339 401.76 433.437 401.625 433.584 401.6L433.597 401.576ZM434.765 405.513C434.765 405.513 434.777 405.55 434.777 405.575C434.777 405.575 434.777 405.563 434.777 405.55V405.513H434.765Z" fill="#275647"/>
<path d="M423.979 417.424C423.979 417.424 424.028 417.424 424.053 417.424C424.164 417.437 424.25 417.535 424.274 417.646C424.594 419.135 424.988 420.611 425.406 422.075C425.406 422.051 425.393 422.026 425.381 422.002C425.996 424.106 426.709 426.185 427.557 428.203C427.988 429.249 428.455 430.283 428.959 431.292C429.426 432.215 429.93 433.113 430.447 434.011C430.447 434.011 430.447 434.036 430.459 434.036C430.459 434.036 430.459 434.023 430.447 434.011L430.496 434.109C430.496 434.109 430.484 434.085 430.471 434.06C431.086 435.082 431.75 436.078 432.476 437.026C433.177 437.936 433.914 438.81 434.652 439.683C434.873 439.942 434.812 440.348 434.554 440.545C434.431 440.643 434.259 440.693 434.099 440.68C433.927 440.656 433.804 440.569 433.693 440.446C432.968 439.696 432.328 438.884 431.738 438.022C431.16 437.161 430.594 436.275 430.078 435.377C429.008 433.531 428.074 431.599 427.275 429.618C426.475 427.662 425.787 425.656 425.197 423.614C424.901 422.605 424.631 421.583 424.385 420.562C424.151 419.615 423.942 418.667 423.746 417.72C423.721 417.584 423.832 417.449 423.967 417.424H423.979ZM430.496 434.06C430.496 434.06 430.496 434.048 430.484 434.036C430.484 434.036 430.484 434.048 430.496 434.06Z" fill="#275647"/>
<path d="M419.572 443.818C419.572 443.818 419.659 443.793 419.708 443.793C419.794 443.793 419.88 443.855 419.917 443.941C421.159 447.165 422.683 450.266 424.454 453.231L424.429 453.194C425.253 454.56 426.126 455.901 427.073 457.181C427.528 457.808 428.007 458.424 428.475 459.039C428.954 459.666 429.434 460.282 429.864 460.934C429.95 461.057 429.999 461.18 429.975 461.34C429.963 461.475 429.876 461.61 429.766 461.697C429.655 461.783 429.508 461.832 429.372 461.807C429.225 461.795 429.114 461.721 429.003 461.61C428.426 460.995 427.921 460.306 427.454 459.605C426.987 458.916 426.532 458.202 426.089 457.501C425.216 456.123 424.38 454.708 423.593 453.268C421.982 450.327 420.618 447.275 419.425 444.138C419.376 444.002 419.425 443.855 419.56 443.793L419.572 443.818ZM424.479 453.292C424.479 453.292 424.466 453.256 424.454 453.243C424.454 453.256 424.466 453.268 424.479 453.292Z" fill="#275647"/>
<path d="M418.849 468.366C418.714 468.427 418.665 468.575 418.714 468.71C419.046 469.658 419.427 470.593 419.845 471.503C420.276 472.451 420.755 473.361 421.271 474.26C421.751 475.096 422.243 475.921 422.759 476.733C423.337 477.619 423.977 478.468 424.653 479.28C424.837 479.501 425.182 479.551 425.415 479.366C425.661 479.169 425.686 478.849 425.501 478.603C424.788 477.607 424.026 476.634 423.276 475.662C422.895 475.158 422.513 474.653 422.145 474.137C421.788 473.62 421.456 473.091 421.124 472.562C420.755 471.934 420.411 471.294 420.079 470.642C419.735 469.941 419.452 469.239 419.181 468.501C419.157 468.415 419.058 468.366 418.972 468.353C418.923 468.353 418.886 468.353 418.837 468.366H418.849Z" fill="#275647"/>
<path d="M449.113 410.915C448.215 412.269 447.244 413.598 446.211 414.853C445.166 416.108 444.096 417.326 442.965 418.507C442.055 419.43 441.12 420.328 440.186 421.214C439.706 421.669 439.214 422.112 438.723 422.543C438.218 422.998 437.714 423.441 437.247 423.921C437.21 423.958 437.173 423.995 437.136 424.032C437.075 424.118 437.038 424.217 437.026 424.315C437.013 424.463 437.05 424.623 437.149 424.758C437.345 425.016 437.727 425.053 437.985 424.856C438.563 424.426 439.116 423.921 439.645 423.417C440.21 422.888 440.764 422.334 441.305 421.78C442.338 420.722 443.309 419.602 444.256 418.47C446.174 416.169 447.895 413.721 449.543 411.21C449.617 411.087 449.604 410.927 449.494 410.841C449.457 410.817 449.408 410.804 449.371 410.792C449.285 410.792 449.186 410.817 449.137 410.891L449.113 410.915Z" fill="#275647"/>
<path d="M442.713 441.369C441.877 442.181 441.041 443.006 440.205 443.818C439.332 444.679 438.446 445.528 437.561 446.39C436.725 447.202 435.889 448.001 435.028 448.789C434.598 449.183 434.167 449.589 433.737 449.983C433.245 450.425 432.766 450.856 432.286 451.311C432.163 451.422 432.089 451.533 432.065 451.705C432.052 451.853 432.089 452.013 432.188 452.136C432.384 452.382 432.766 452.443 433.012 452.234C433.86 451.508 434.647 450.721 435.422 449.933C436.184 449.158 436.909 448.358 437.647 447.558C439.135 445.947 440.586 444.285 442.123 442.71C442.111 442.723 442.086 442.747 442.074 442.76C442.393 442.44 442.713 442.108 443.045 441.788C443.143 441.689 443.18 441.541 443.082 441.418C443.045 441.369 442.971 441.332 442.897 441.32C442.836 441.32 442.762 441.32 442.713 441.369Z" fill="#275647"/>
<path d="M435.33 465.696C434.703 466.299 434.076 466.914 433.449 467.529C432.822 468.132 432.207 468.747 431.567 469.35C430.264 470.605 428.911 471.799 427.51 472.955C427.313 473.115 427.276 473.398 427.436 473.607C427.584 473.804 427.891 473.841 428.088 473.681C428.678 473.201 429.231 472.709 429.772 472.18C430.289 471.676 430.793 471.159 431.297 470.63C432.33 469.547 433.326 468.44 434.371 467.357C434.359 467.369 434.334 467.394 434.322 467.406C434.752 466.951 435.207 466.52 435.65 466.089C435.748 465.991 435.785 465.843 435.699 465.72C435.662 465.671 435.588 465.634 435.514 465.622C435.453 465.622 435.379 465.622 435.33 465.671V465.696Z" fill="#275647"/>
<path d="M460.555 483.033C459.572 484.596 458.662 486.208 457.9 487.893C457.506 488.755 457.162 489.653 456.879 490.551C456.731 490.994 456.621 491.462 456.522 491.917C456.412 492.397 456.35 492.889 456.313 493.393C456.301 493.59 456.424 493.775 456.633 493.787C456.83 493.812 457.002 493.664 457.039 493.467C457.174 492.631 457.334 491.806 457.531 490.982C457.801 489.936 458.145 488.927 458.564 487.93C458.982 486.934 459.461 485.974 459.978 485.026C459.978 485.051 459.953 485.063 459.941 485.088C460.273 484.485 460.617 483.907 460.986 483.328C461.06 483.205 461.047 483.058 460.924 482.971C460.887 482.947 460.838 482.922 460.801 482.922C460.715 482.922 460.617 482.947 460.568 483.033H460.555Z" fill="#275647"/>
<path d="M463.545 497.454C462.34 498.106 461.086 498.672 459.807 499.177C458.516 499.681 457.188 500.1 455.86 500.469C455.884 500.469 455.909 500.456 455.934 500.444C455.171 500.653 454.421 500.838 453.647 501.01C452.823 501.195 451.987 501.355 451.163 501.502C449.515 501.785 447.843 501.982 446.183 502.216C445.937 502.253 445.765 502.474 445.802 502.72C445.839 502.967 446.072 503.126 446.306 503.102C447.794 502.93 449.269 502.671 450.733 502.364C452.245 502.056 453.745 501.699 455.221 501.293C456.671 500.887 458.098 500.419 459.5 499.878C460.95 499.324 462.364 498.672 463.729 497.922C463.852 497.86 463.926 497.725 463.877 497.577C463.84 497.491 463.754 497.429 463.656 497.417C463.619 497.417 463.569 497.417 463.533 497.442L463.545 497.454Z" fill="#275647"/>
<path d="M454.595 512.133C454.595 512.133 454.681 512.109 454.731 512.109C454.829 512.109 454.927 512.195 454.964 512.281C455.026 512.429 454.952 512.576 454.817 512.65C453.046 513.585 451.214 514.422 449.32 515.087C447.439 515.751 445.521 516.329 443.578 516.809C441.611 517.301 439.619 517.732 437.627 518.138C436.631 518.335 435.647 518.532 434.651 518.716C433.668 518.889 432.684 519.061 431.7 519.196C431.405 519.233 431.122 519.024 431.086 518.729C431.061 518.593 431.098 518.446 431.184 518.323C431.27 518.2 431.405 518.138 431.553 518.101C432.819 517.831 434.098 517.621 435.377 517.425C436.668 517.215 437.959 517.006 439.25 516.785C441.758 516.354 444.255 515.825 446.714 515.16C446.701 515.16 446.689 515.16 446.665 515.173C446.689 515.173 446.714 515.16 446.738 515.148H446.751C448.091 514.779 449.419 514.336 450.722 513.856C451.386 513.61 452.038 513.352 452.69 513.056C453.341 512.773 453.968 512.466 454.595 512.133ZM446.714 515.16C446.714 515.16 446.738 515.16 446.751 515.16C446.751 515.16 446.726 515.16 446.714 515.16Z" fill="#275647"/>
<path d="M432.71 529.643C431.112 530.221 429.501 530.775 427.866 531.23L427.952 531.206C426.919 531.489 425.898 531.735 424.853 531.932C423.734 532.153 422.603 532.276 421.472 532.338C421.336 532.338 421.214 532.436 421.14 532.535C421.066 532.645 421.029 532.768 421.041 532.904C421.078 533.187 421.336 533.371 421.619 533.334C422.566 533.236 423.501 533.076 424.423 532.891C425.382 532.695 426.316 532.436 427.251 532.153C428.21 531.87 429.157 531.538 430.103 531.206C431.05 530.874 431.997 530.517 432.944 530.172C433.091 530.123 433.153 529.938 433.091 529.803C433.042 529.705 432.956 529.643 432.858 529.631C432.809 529.631 432.759 529.631 432.723 529.643H432.71Z" fill="#275647"/>
<path d="M440.294 496.236C439.716 498.291 439.212 500.37 438.868 502.487C438.696 503.569 438.573 504.652 438.499 505.747C438.425 506.867 438.4 507.999 438.474 509.119C438.474 509.242 438.573 509.377 438.671 509.439C438.782 509.525 438.917 509.562 439.052 509.537C439.335 509.488 439.507 509.23 439.47 508.959C439.384 508.171 439.335 507.372 439.31 506.572C439.261 503.496 439.753 500.419 440.503 497.454L440.478 497.528C440.577 497.159 440.675 496.79 440.774 496.433C440.81 496.297 440.774 496.15 440.626 496.101C440.601 496.101 440.589 496.088 440.565 496.088C440.454 496.076 440.319 496.137 440.294 496.248V496.236Z" fill="#275647"/>
<path d="M427.035 514.311C427.06 514.176 427.183 514.065 427.318 514.09C427.454 514.102 427.564 514.238 427.54 514.373C427.306 516.096 427.122 517.831 427.146 519.578C427.158 520.193 427.195 520.808 427.245 521.411C427.306 521.99 427.38 522.568 427.466 523.146C427.503 523.38 427.343 523.589 427.109 523.638C426.876 523.675 426.667 523.503 426.617 523.282C426.494 522.543 426.445 521.793 426.445 521.042C426.445 520.267 426.458 519.504 426.507 518.741C426.605 517.252 426.802 515.788 427.011 514.311H427.035ZM427.158 519.492C427.158 519.492 427.158 519.504 427.158 519.516C427.158 519.516 427.158 519.504 427.158 519.492Z" fill="#275647"/>
<path d="M391.392 462.829C391.269 462.878 391.195 463.038 391.256 463.173C392.105 464.859 393.138 466.446 394.281 467.935C394.847 468.673 395.449 469.387 396.064 470.088C396.372 470.433 396.691 470.777 397.011 471.097C397.368 471.454 397.736 471.799 398.154 472.094C398.327 472.217 398.56 472.229 398.745 472.094C398.843 472.008 398.905 471.897 398.929 471.774C398.941 471.663 398.917 471.503 398.831 471.417C398.425 471.023 398.007 470.654 397.577 470.285C397.097 469.867 396.617 469.448 396.163 468.993C396.187 469.018 396.212 469.042 396.236 469.067C395.523 468.366 394.859 467.627 394.244 466.852C393.593 466.04 393.002 465.166 392.461 464.268C392.461 464.293 392.486 464.305 392.498 464.33C392.228 463.874 391.982 463.419 391.736 462.964C391.699 462.878 391.613 462.816 391.527 462.816C391.49 462.816 391.441 462.816 391.404 462.841L391.392 462.829Z" fill="#275647"/>
<path d="M391.402 478.702C391.476 478.64 391.574 478.616 391.673 478.628C391.759 478.628 391.845 478.677 391.894 478.751C393.013 480.547 394.353 482.184 395.866 483.673C396.861 484.645 397.931 485.555 399.062 486.355C399.628 486.749 400.194 487.143 400.772 487.512C401.349 487.881 401.927 488.25 402.493 488.619C402.714 488.767 402.751 489.111 402.591 489.308C402.468 489.468 402.21 489.567 402.013 489.468C400.907 488.915 399.862 488.213 398.89 487.45C397.894 486.675 396.948 485.838 396.038 484.965C395.152 484.103 394.316 483.193 393.542 482.233C392.755 481.261 392.029 480.227 391.365 479.169C391.316 479.083 391.279 479.009 391.291 478.911C391.291 478.825 391.353 478.739 391.414 478.677L391.402 478.702ZM395.779 483.611C395.779 483.611 395.804 483.636 395.816 483.648C395.804 483.636 395.792 483.624 395.779 483.611Z" fill="#275647"/>
<path d="M397.383 497.429C397.383 497.429 397.506 497.368 397.567 497.38C397.629 497.38 397.703 497.417 397.752 497.479C398.305 498.045 398.846 498.611 399.412 499.152C400.113 499.841 400.838 500.518 401.6 501.133C402.019 501.465 402.449 501.798 402.879 502.093C403.285 502.364 403.691 502.634 404.097 502.893C404.306 503.028 404.33 503.348 404.183 503.533C404.109 503.631 403.998 503.692 403.888 503.705C403.765 503.717 403.654 503.68 403.543 503.619C402.928 503.237 402.363 502.782 401.822 502.302C401.305 501.859 400.814 501.379 400.334 500.899C399.83 500.395 399.338 499.89 398.846 499.374C398.354 498.844 397.85 498.315 397.346 497.799C397.248 497.688 397.285 497.516 397.395 497.429H397.383ZM399.4 499.14C399.4 499.14 399.375 499.115 399.35 499.09C399.363 499.103 399.387 499.115 399.4 499.14Z" fill="#275647"/>
<path d="M403.371 465.339C403.223 467.172 403.064 469.006 402.842 470.827C402.621 472.648 402.326 474.469 401.883 476.265C401.883 476.228 401.895 476.191 401.908 476.155C401.723 476.917 401.502 477.668 401.268 478.419C401.035 479.169 400.776 479.92 400.567 480.683C400.543 480.793 400.518 480.892 400.567 481.003C400.617 481.101 400.69 481.187 400.801 481.224C400.912 481.261 401.022 481.261 401.133 481.224C401.244 481.175 401.305 481.101 401.354 480.99C401.65 480.4 401.871 479.784 402.068 479.157C402.252 478.554 402.4 477.939 402.547 477.324C402.695 476.684 402.805 476.044 402.904 475.392C403.014 474.74 403.113 474.1 403.186 473.448C403.359 472.143 403.482 470.827 403.592 469.522C403.703 468.144 403.789 466.766 403.887 465.388C403.9 465.253 403.801 465.117 403.654 465.093C403.518 465.08 403.371 465.179 403.359 465.326L403.371 465.339Z" fill="#275647"/>
<path d="M407.687 486.232C407.712 486.097 407.834 485.986 407.97 486.011C408.105 486.023 408.216 486.158 408.191 486.294C407.871 488.533 407.502 490.785 406.974 492.987C406.716 494.095 406.42 495.178 406.088 496.248C405.744 497.306 405.375 498.352 404.908 499.349C404.822 499.546 404.588 499.657 404.367 499.57C404.158 499.484 404.047 499.238 404.146 499.029C404.625 497.897 405.117 496.753 405.511 495.584C405.904 494.439 406.261 493.27 406.556 492.101C406.556 492.114 406.556 492.138 406.556 492.151C407.048 490.194 407.404 488.213 407.687 486.22V486.232ZM406.568 492.114V492.089C406.568 492.089 406.568 492.101 406.568 492.114Z" fill="#275647"/>
<path d="M381.223 521.682C381.284 521.608 381.37 521.571 381.457 521.584C381.506 521.584 381.543 521.608 381.592 521.633C381.924 521.842 382.243 522.039 382.588 522.223C382.588 522.223 382.575 522.223 382.563 522.211C383.621 522.802 384.715 523.318 385.834 523.786C386.375 524.008 386.916 524.217 387.457 524.426C387.998 524.623 388.539 524.832 389.068 525.041C389.228 525.103 389.301 525.287 389.24 525.447C389.203 525.521 389.154 525.583 389.068 525.619C388.982 525.656 388.908 525.644 388.822 525.619C388.146 525.435 387.482 525.189 386.818 524.918C386.166 524.647 385.514 524.364 384.875 524.057C383.645 523.454 382.44 522.777 381.284 522.051C381.161 521.977 381.149 521.793 381.235 521.694L381.223 521.682ZM382.539 522.211C382.539 522.211 382.514 522.211 382.502 522.186C382.502 522.186 382.526 522.186 382.539 522.211Z" fill="#275647"/>
<path d="M386.632 531.12C386.559 531.218 386.571 531.403 386.682 531.489C388.096 532.362 389.522 533.211 390.985 533.999C391.735 534.393 392.485 534.786 393.248 535.168C394.01 535.549 394.772 535.918 395.559 536.238C395.744 536.312 395.965 536.226 396.039 536.029C396.076 535.931 396.076 535.832 396.039 535.746C396.002 535.648 395.928 535.599 395.842 535.549C395.203 535.229 394.539 534.922 393.887 534.626C393.235 534.331 392.584 534.024 391.944 533.716C391.305 533.408 390.653 533.088 390.026 532.768C389.387 532.436 388.76 532.092 388.133 531.747C387.751 531.526 387.37 531.304 387.001 531.07C386.964 531.046 386.915 531.033 386.866 531.021C386.78 531.021 386.694 531.046 386.632 531.12Z" fill="#275647"/>
<path d="M394.544 540.385C394.483 540.41 394.434 540.459 394.409 540.52C394.384 540.582 394.384 540.656 394.409 540.717C394.434 540.791 394.483 540.816 394.544 540.853C396.02 541.677 397.594 542.292 399.204 542.797C399.291 542.821 399.389 542.834 399.475 542.797C399.561 542.76 399.623 542.686 399.659 542.612C399.696 542.526 399.696 542.428 399.659 542.342C399.623 542.268 399.561 542.182 399.475 542.157C398.663 541.911 397.852 541.665 397.053 541.394C396.253 541.111 395.479 540.779 394.741 540.373C394.729 540.373 394.704 540.36 394.68 540.36C394.63 540.36 394.581 540.36 394.544 540.385Z" fill="#275647"/>
<path d="M391.063 519.689C390.941 519.701 390.805 519.849 390.842 519.984C391.088 520.87 391.322 521.756 391.555 522.642C391.666 523.085 391.764 523.528 391.875 523.971C391.973 524.414 392.059 524.857 392.146 525.3C392.33 526.185 392.477 527.084 392.625 527.97C392.785 528.942 392.932 529.914 393.105 530.874C393.141 531.083 393.326 531.23 393.547 531.193C393.756 531.157 393.892 530.96 393.867 530.751C393.695 528.929 393.264 527.145 392.834 525.386C392.625 524.5 392.379 523.626 392.158 522.752C391.912 521.805 391.641 520.858 391.371 519.91C391.346 519.836 391.322 519.787 391.272 519.738C391.236 519.713 391.199 519.689 391.15 519.689C391.125 519.689 391.1 519.689 391.076 519.689H391.063Z" fill="#275647"/>
<path d="M397.858 531.944C397.722 531.969 397.612 532.104 397.636 532.239C397.821 533.224 397.993 534.208 398.128 535.205C398.276 536.263 398.386 537.321 398.472 538.392C398.472 538.539 398.644 538.65 398.792 538.625C398.866 538.613 398.927 538.576 398.977 538.515C399.026 538.453 399.038 538.379 399.026 538.306C398.89 536.238 398.534 534.196 398.128 532.166C398.103 532.055 398.017 531.956 397.894 531.944C397.87 531.944 397.858 531.944 397.833 531.944H397.858Z" fill="#275647"/>
<path d="M470.949 524.906C469.412 526.284 467.936 527.883 467.223 529.865C467.162 530.024 467.248 530.197 467.395 530.258C467.555 530.32 467.727 530.234 467.789 530.086C467.949 529.668 468.133 529.274 468.342 528.88C468.6 528.425 468.871 527.994 469.178 527.564C469.486 527.145 469.842 526.751 470.199 526.37C470.186 526.382 470.162 526.407 470.15 526.419C470.518 526.038 470.887 525.681 471.281 525.324C471.392 525.226 471.416 525.066 471.318 524.955C471.269 524.906 471.207 524.869 471.133 524.857C471.06 524.857 470.998 524.857 470.937 524.918L470.949 524.906Z" fill="#275647"/>
<path d="M459.046 527.539C459.046 527.539 459.095 527.539 459.108 527.539C459.157 527.539 459.194 527.564 459.231 527.588C459.292 527.625 459.329 527.687 459.341 527.76C459.341 527.822 459.341 527.896 459.292 527.945C458.677 528.609 458.087 529.286 457.558 530C457.03 530.714 456.538 531.452 456.107 532.227C456.107 532.227 456.107 532.239 456.107 532.252C456.107 532.276 456.083 532.289 456.083 532.313C456.083 532.313 456.083 532.313 456.083 532.301C455.874 532.707 455.677 533.125 455.505 533.544C455.333 533.987 455.173 534.43 455.013 534.885C454.952 535.057 454.743 535.143 454.583 535.082C454.497 535.045 454.423 534.983 454.398 534.897C454.361 534.811 454.374 534.737 454.398 534.639C454.57 533.937 454.829 533.273 455.161 532.633C455.48 532.018 455.837 531.415 456.23 530.849C457.017 529.705 457.94 528.659 458.886 527.65C458.936 527.588 458.985 527.551 459.058 527.539H459.046ZM456.107 532.239C456.107 532.239 456.107 532.239 456.107 532.227C456.107 532.252 456.083 532.264 456.083 532.289L456.107 532.252V532.239Z" fill="#275647"/>
<path d="M446.712 534.602C446.761 534.516 446.86 534.491 446.946 534.491C446.995 534.491 447.032 534.516 447.069 534.54C447.13 534.577 447.167 534.639 447.18 534.713C447.18 534.786 447.167 534.836 447.13 534.897C447.106 534.959 447.069 535.008 447.044 535.069L447.069 535.008C446.737 535.623 446.442 536.263 446.196 536.927C446.061 537.284 445.925 537.653 445.815 538.023C445.729 538.318 445.655 538.613 445.581 538.908C445.581 538.896 445.581 538.884 445.581 538.872C445.47 539.376 445.384 539.868 445.311 540.373C445.286 540.57 445.114 540.73 444.905 540.705C444.708 540.68 444.548 540.496 444.573 540.299C444.856 538.269 445.692 536.386 446.675 534.602H446.712ZM445.581 538.958C445.581 538.958 445.581 538.921 445.581 538.908C445.581 538.921 445.581 538.945 445.581 538.958Z" fill="#275647"/>
<path d="M472.286 533.507C470.822 533.716 469.359 533.851 467.884 533.888C467.908 533.888 467.933 533.888 467.957 533.888C466.789 533.913 465.609 533.876 464.441 533.765C463.174 533.654 461.932 533.421 460.691 533.138C460.727 533.138 460.764 533.15 460.789 533.162C460.469 533.088 460.15 533.002 459.83 532.928C459.719 532.904 459.621 532.891 459.522 532.928C459.424 532.978 459.338 533.064 459.301 533.162C459.264 533.261 459.264 533.384 459.301 533.47C459.338 533.568 459.424 533.667 459.535 533.691C461.6 534.233 463.715 534.491 465.843 534.528C468.019 534.565 470.195 534.331 472.359 534.024C472.495 533.999 472.593 533.864 472.568 533.728C472.556 533.605 472.458 533.519 472.347 533.507C472.322 533.507 472.298 533.507 472.286 533.507Z" fill="#275647"/>
<path d="M460.584 539.93C459.416 540.151 458.235 540.262 457.055 540.299C457.079 540.299 457.116 540.299 457.141 540.299C455.53 540.336 453.919 540.213 452.309 540.028C450.624 539.831 448.952 539.536 447.28 539.315C447.095 539.29 446.911 539.438 446.898 539.622C446.898 539.721 446.911 539.807 446.972 539.881C447.034 539.954 447.107 539.991 447.206 540.016C448.3 540.213 449.394 540.385 450.501 540.533C451.657 540.693 452.813 540.828 453.981 540.902C455.038 540.976 456.108 540.988 457.165 540.951C458.346 540.914 459.526 540.779 460.694 540.557C460.867 540.52 460.99 540.373 460.953 540.2C460.928 540.065 460.817 539.954 460.67 539.93C460.645 539.93 460.621 539.93 460.584 539.93Z" fill="#275647"/>
<path d="M445.703 545.516C445.396 545.578 445.076 545.627 444.757 545.664C444.437 545.701 444.117 545.713 443.798 545.725C443.822 545.725 443.847 545.725 443.871 545.725C443.109 545.738 442.334 545.701 441.572 545.627C440.748 545.553 439.924 545.418 439.101 545.307C438.941 545.282 438.781 545.418 438.769 545.578C438.744 545.75 438.879 545.885 439.039 545.91C440.183 546.082 441.326 546.218 442.47 546.267C443.576 546.316 444.683 546.242 445.777 546.033C445.925 546.008 446.023 545.885 445.999 545.738C445.986 545.627 445.888 545.528 445.777 545.516C445.753 545.516 445.728 545.516 445.703 545.516Z" fill="#275647"/>
<path d="M445.729 547.005L444.524 557.292L444.327 559.002L443.749 563.899L443.553 565.61L442.962 570.63L442.766 572.34L440.159 594.624L438.438 609.34C421.887 611.432 406.444 611.309 391.898 609.34L389.156 585.986L387.557 572.34L387.36 570.63L386.77 565.61L386.573 563.899L385.996 559.002L385.799 557.292L384.594 547.005H445.729Z" fill="#FB9024"/>
<path d="M444.522 557.304L444.325 559.002H385.994L385.797 557.304H444.522Z" fill="#FBB94D"/>
<path d="M443.746 563.899L443.55 565.61H386.767L386.57 563.899H443.746Z" fill="#FBB94D"/>
<path d="M442.962 570.63L442.765 572.34H387.556L387.359 570.63H442.962Z" fill="#FBB94D"/>
<path d="M440.16 594.612L438.438 609.328C421.888 611.42 406.444 611.297 391.898 609.328L389.156 585.974C400.001 590.576 419.539 596.974 440.16 594.612Z" fill="#FBB94D"/>
<path d="M114.414 385.198C114.414 385.198 117.218 380.781 121.73 381.593C126.243 382.417 124.89 395.325 114.414 395.842V392.864C114.414 392.864 118.496 394.316 121.14 390.219C124.595 384.878 121.509 377.545 114.648 388.398L114.414 385.174V385.198Z" fill="#5681BF"/>
<path d="M104.308 380.953H92.9219L94.0408 396.186C94.2621 399.226 96.7828 401.576 99.8199 401.576H108.808C111.845 401.576 114.366 399.226 114.587 396.186L115.706 380.953H104.32H104.308Z" fill="#5681BF"/>
<path d="M115.691 380.953L115.531 383.217L115.494 383.697C114.633 384.46 109.936 385.051 104.268 385.051C98.5993 385.051 94.1236 384.485 93.1153 383.746L93.0661 383.18L92.9062 380.953H115.691Z" fill="#3D5891"/>
<g opacity="0.5">
<path d="M109.945 380.953L108.826 396.186C108.605 399.226 106.084 401.576 103.047 401.576H108.801C111.838 401.576 114.359 399.226 114.58 396.186L115.699 380.953H109.945Z" fill="#3D5891"/>
</g>
<path d="M115.629 380.953C115.629 381.839 110.539 382.565 104.268 382.565C97.9968 382.565 92.9062 381.851 92.9062 380.953C92.9062 380.055 97.9968 379.341 104.268 379.341C110.539 379.341 115.629 380.055 115.629 380.953Z" fill="#2F4171"/>
<path d="M104.269 382.565C108.376 382.565 111.978 382.258 113.983 381.79C112.052 381.298 108.314 380.953 104.011 380.953C99.7071 380.953 96.3011 381.261 94.2969 381.728C96.2273 382.221 99.9653 382.565 104.269 382.565Z" fill="#243354"/>
<g opacity="0.5">
<path d="M100.504 380.781C99.9995 380.781 99.5077 380.695 99.0158 380.584C98.524 380.473 98.0445 380.326 97.5772 380.129C96.6304 379.747 95.7205 379.194 94.9459 378.406C94.5524 378.012 94.2081 377.557 93.9253 377.065C93.6425 376.56 93.4458 376.007 93.3105 375.428C93.0646 374.284 93.163 373.078 93.4704 372.069C93.7163 371.023 94.1958 370.051 94.7246 369.141C95.2779 368.242 95.9296 367.443 96.6058 366.704C97.9584 365.24 99.4339 364.059 100.467 362.718C100.995 362.053 101.377 361.34 101.598 360.589L101.684 360.306C101.709 360.207 101.733 360.097 101.746 359.998C101.782 359.789 101.844 359.58 101.868 359.371C101.893 359.162 101.918 358.952 101.942 358.756V358.153C101.918 357.353 101.696 356.639 101.266 356.085C100.836 355.519 100.147 355.138 99.3601 354.916C99.1634 354.855 98.9544 354.83 98.7453 354.781C98.5363 354.756 98.3273 354.72 98.1059 354.707C97.8969 354.707 97.6633 354.67 97.4666 354.695L97.1715 354.72C97.0731 354.72 96.9747 354.732 96.8887 354.757C96.1386 354.892 95.4254 355.31 95.0197 355.999L94.8721 356.258L94.7615 356.541C94.7123 356.627 94.6877 356.725 94.6754 356.824L94.6016 357.119C94.5647 357.525 94.5524 357.943 94.6754 358.349C94.8721 359.174 95.4131 359.937 96.1386 360.49C96.2247 360.552 96.237 360.675 96.1755 360.761C96.114 360.835 96.0156 360.86 95.9296 360.81C95.0689 360.343 94.3065 359.58 93.9253 358.583C93.7163 358.103 93.6548 357.562 93.6425 357.021C93.6794 356.491 93.7778 355.925 94.0483 355.446C94.5155 354.424 95.4992 353.686 96.569 353.366C96.8395 353.255 97.11 353.255 97.3928 353.206C97.6756 353.169 97.9092 353.181 98.1674 353.169C98.4256 353.169 98.6839 353.182 98.9421 353.194C99.2003 353.231 99.4708 353.255 99.729 353.305C99.9872 353.366 100.258 353.403 100.516 353.501L100.909 353.637L101.291 353.821C101.549 353.932 101.782 354.104 102.028 354.264C102.25 354.449 102.483 354.633 102.68 354.855C103.479 355.741 103.885 356.91 103.983 358.005C103.996 358.276 104.008 358.546 104.02 358.817C104.02 359.088 103.996 359.346 103.983 359.617C103.971 359.888 103.922 360.134 103.885 360.392C103.86 360.527 103.848 360.65 103.824 360.786L103.725 361.192C103.602 361.733 103.381 362.238 103.16 362.742L102.766 363.444C102.631 363.677 102.471 363.887 102.323 364.108C101.709 364.957 101.032 365.695 100.356 366.384C99.6921 367.074 99.0281 367.726 98.4256 368.39C97.8354 369.055 97.2944 369.731 96.8641 370.457C96.4583 371.183 96.0894 371.934 95.9173 372.746C95.4623 374.321 95.6345 375.748 96.5567 377.065C97.4789 378.382 98.9913 379.477 100.614 380.424C100.713 380.486 100.737 380.609 100.688 380.707C100.651 380.769 100.577 380.806 100.516 380.806L100.504 380.781Z" fill="#D1DBED"/>
</g>
<g opacity="0.5">
<path d="M105.031 377.299C105.265 376.93 105.425 376.474 105.486 376.044C105.548 375.601 105.511 375.158 105.437 374.715C105.339 374.284 105.191 373.853 105.007 373.435C104.921 373.226 104.798 373.029 104.687 372.82L104.33 372.155C103.384 370.371 102.523 368.489 102.277 366.311C102.252 366.04 102.228 365.769 102.252 365.474C102.252 365.339 102.252 365.191 102.277 365.056L102.351 364.625C102.375 364.342 102.511 364.059 102.597 363.776C102.658 363.641 102.732 363.505 102.806 363.37C102.879 363.234 102.941 363.099 103.039 362.988L103.322 362.632C103.42 362.521 103.543 362.422 103.654 362.324C103.875 362.115 104.121 361.967 104.367 361.832C104.884 361.573 105.474 361.327 106.162 361.438C106.839 361.524 107.429 362.004 107.712 362.545C108.007 363.087 108.093 363.677 108.081 364.231C108.019 365.339 107.577 366.348 106.962 367.16C106.9 367.246 106.777 367.258 106.691 367.197C106.617 367.135 106.593 367.037 106.642 366.951C107.085 366.089 107.318 365.142 107.257 364.243C107.208 363.8 107.085 363.382 106.876 363.075C106.654 362.755 106.359 362.595 106.052 362.57C105.4 362.533 104.576 363.136 104.158 363.751C103.703 364.391 103.666 365.277 103.752 366.163C103.851 367.061 104.134 367.972 104.466 368.87C104.798 369.768 105.191 370.654 105.597 371.552L105.904 372.229C106.003 372.488 106.113 372.721 106.199 372.98C106.372 373.497 106.482 374.038 106.519 374.579C106.568 375.675 106.249 376.856 105.376 377.582C105.289 377.656 105.167 377.643 105.105 377.557C105.044 377.496 105.044 377.397 105.093 377.323L105.117 377.299H105.031Z" fill="#D1DBED"/>
</g>
<g opacity="0.5">
<path d="M108.903 377.557C109.924 376.29 110.637 374.887 111.129 373.484C111.62 372.069 111.842 370.605 111.891 369.128L111.916 368.575L111.891 368.021V367.467C111.866 367.283 111.842 367.098 111.83 366.926C111.756 366.2 111.596 365.474 111.387 364.76C110.981 363.321 110.329 361.918 109.604 360.478C109.235 359.752 108.866 359.026 108.497 358.251C108.128 357.488 107.772 356.664 107.538 355.753C107.292 354.855 107.169 353.797 107.415 352.763C107.526 352.246 107.747 351.766 107.993 351.324C108.276 350.893 108.559 350.524 108.915 350.167C109.284 349.822 109.715 349.49 110.256 349.293C110.797 349.084 111.448 349.047 112.002 349.232C112.567 349.404 113.01 349.749 113.342 350.13C113.686 350.511 113.932 350.93 114.104 351.373C114.83 353.108 114.51 355.163 113.342 356.455C113.268 356.541 113.145 356.541 113.059 356.467C112.985 356.405 112.973 356.307 113.022 356.221C113.797 354.83 113.674 353.145 112.961 351.939C112.616 351.336 112.051 350.881 111.584 350.819C111.35 350.782 111.141 350.819 110.932 350.942C110.723 351.053 110.502 351.25 110.305 351.496C110.108 351.73 109.924 352.049 109.788 352.32C109.665 352.603 109.555 352.886 109.53 353.182C109.493 353.477 109.493 353.772 109.542 354.092C109.579 354.4 109.665 354.732 109.788 355.064C110.268 356.393 111.141 357.771 111.94 359.223C112.752 360.675 113.539 362.238 114.067 363.948C114.326 364.809 114.522 365.695 114.621 366.594C114.682 367.049 114.694 367.492 114.707 367.947V368.624C114.707 368.845 114.694 369.079 114.67 369.301C114.535 371.097 114.006 372.894 113.047 374.432C112.088 375.958 110.76 377.249 109.112 377.889C109.014 377.926 108.891 377.889 108.854 377.779C108.829 377.705 108.842 377.631 108.879 377.582V377.557H108.903Z" fill="#D1DBED"/>
</g>
<path d="M184.723 163.64C184.034 162.865 174.517 150.954 172.845 148.924C171.173 146.906 170.349 147.262 169.316 147.422C168.283 147.57 156.246 149.6 154.856 149.834C153.454 150.068 152.581 150.634 153.442 151.84C154.205 152.91 162.123 164.132 163.857 166.605L132.404 174.148L107.382 132.288C106.386 130.811 106.177 130.294 103.914 130.393C101.652 130.491 84.2899 131.943 83.048 132.042C81.8061 132.14 80.4536 132.694 81.6955 135.622C82.9374 138.538 102.648 181.051 103.201 182.294C103.754 183.537 105.181 185.542 108.525 184.73C111.956 183.906 123.834 180.805 130.326 179.095C133.756 185.309 140.753 197.921 142.044 199.73C143.778 202.141 144.958 201.748 147.614 200.936C149.68 200.308 180.026 189.394 181.391 188.828C182.756 188.262 183.604 187.868 182.682 186.49C182.006 185.481 174.001 174.751 169.808 169.14C172.673 168.377 182.891 165.658 183.973 165.363C185.239 165.018 185.412 164.391 184.723 163.615V163.64ZM127.547 175.342C127.166 175.428 109.558 179.636 108.611 179.858C107.677 180.067 107.677 179.968 107.566 179.648C107.455 179.328 86.6138 136.324 86.331 135.782C86.0482 135.241 86.0605 134.822 86.331 134.822C86.6015 134.822 102.967 133.358 103.545 133.334C104.123 133.309 104.062 133.42 104.271 133.789C104.271 133.789 127.35 173.656 127.756 174.357C128.162 175.059 127.916 175.268 127.547 175.354V175.342ZM177.222 184.656C177.505 185.099 177.788 185.382 176.903 185.702C176.017 186.022 147.085 195.792 146.52 196.038C145.954 196.284 145.511 196.358 144.786 195.312C144.06 194.266 134.654 177.963 134.654 177.963L165.332 169.977C166.095 169.731 166.341 169.571 166.82 170.334C167.3 171.097 176.952 184.213 177.235 184.656H177.222ZM179.19 162.865C178.501 163.012 167.238 165.806 167.238 165.806L158.029 153.156C157.77 152.787 157.561 152.43 158.201 152.344C158.84 152.258 169.316 150.363 169.783 150.253C170.251 150.142 170.669 150.019 171.247 150.806C171.825 151.606 179.792 161.684 180.087 162.077C180.383 162.459 179.878 162.705 179.19 162.853V162.865Z" fill="#FB503B"/>
<defs>
<filter id="filter0_d_3569_769" x="48.7266" y="76.5645" width="179.328" height="179.444" filterUnits="userSpaceOnUse" color-interpolation-filters="sRGB">
<feFlood flood-opacity="0" result="BackgroundImageFix"/>
<feColorMatrix in="SourceAlpha" type="matrix" values="0 0 0 0 0 0 0 0 0 0 0 0 0 0 0 0 0 0 127 0" result="hardAlpha"/>
<feOffset dx="4" dy="4"/>
<feGaussianBlur stdDeviation="5"/>
<feColorMatrix type="matrix" values="0 0 0 0 0.0705882 0 0 0 0 0.113725 0 0 0 0 0.196078 0 0 0 0.59 0"/>
<feBlend mode="normal" in2="BackgroundImageFix" result="effect1_dropShadow_3569_769"/>
<feBlend mode="normal" in="SourceGraphic" in2="effect1_dropShadow_3569_769" result="shape"/>
</filter>
</defs>
</svg>
