<svg width="554" height="525" viewBox="0 0 554 525" fill="none" xmlns="http://www.w3.org/2000/svg">
<g clip-path="url(#clip0_3414_1241)">
<mask id="mask0_3414_1241" style="mask-type:luminance" maskUnits="userSpaceOnUse" x="0" y="0" width="554" height="525">
<path d="M0 0H554V524.27H0V0Z" fill="white"/>
</mask>
<g mask="url(#mask0_3414_1241)">
<path d="M417.113 306.367L417.703 305.75L414.003 302.222L413.412 302.839L417.113 306.367ZM409.723 299.288L410.323 298.682C409.118 297.5 407.915 296.28 406.734 295.052L406.12 295.642C407.304 296.875 408.515 298.103 409.723 299.288ZM402.618 291.903L403.249 291.33C402.116 290.09 400.977 288.806 399.863 287.514L399.218 288.072C400.34 289.364 401.482 290.655 402.618 291.903ZM395.916 284.15L396.574 283.608C395.51 282.313 394.436 280.973 393.386 279.627L392.714 280.152C393.771 281.502 394.849 282.848 395.916 284.15ZM389.606 276.076L390.289 275.568C389.29 274.225 388.277 272.834 387.288 271.441L386.591 271.935C387.588 273.332 388.601 274.726 389.606 276.076ZM383.673 267.725L384.379 267.248C383.424 265.841 382.482 264.424 381.558 262.995L380.842 263.459C381.769 264.887 382.715 266.312 383.673 267.725ZM336.958 261.816C338.53 261.816 340.12 261.513 341.552 260.94L341.235 260.15C339.901 260.681 338.424 260.965 336.958 260.965C336.746 260.943 336.59 260.96 336.405 260.951L336.365 261.803C336.562 261.812 336.798 261.799 336.958 261.816ZM331.296 260.36L331.723 259.625C330.318 258.813 329.144 257.627 328.323 256.192L327.583 256.615C328.479 258.179 329.762 259.478 331.296 260.36ZM378.1 259.131L378.823 258.681C377.925 257.236 377.042 255.781 376.172 254.318L375.44 254.754C376.312 256.223 377.199 257.682 378.1 259.131ZM345.874 257.944C347.019 256.711 347.964 255.225 348.68 253.524L347.896 253.193C347.22 254.802 346.33 256.203 345.249 257.365L345.874 257.944ZM326.17 251.537L327.024 251.52L327.019 251.292C327.019 250.013 327.279 248.763 327.773 247.673C327.903 247.389 328.043 247.11 328.197 246.841L327.452 246.422C327.286 246.715 327.133 247.014 326.996 247.321C326.454 248.521 326.167 249.895 326.167 251.292L326.17 251.537ZM372.523 250.644L373.178 250.096C372.073 248.776 370.848 247.536 369.546 246.408L368.986 247.053C370.255 248.15 371.445 249.359 372.523 250.644ZM350 248.48C350.096 247.673 350.146 246.844 350.146 246.016C350.146 245.113 350.088 244.192 349.973 243.279L349.127 243.385C349.239 244.264 349.294 245.15 349.294 246.016C349.294 246.81 349.247 247.604 349.155 248.377L350 248.48ZM364.921 244.07L365.372 243.344C363.926 242.447 362.38 241.646 360.781 240.958L360.443 241.743C362.002 242.413 363.51 243.198 364.921 244.07ZM331.477 243.194C332.719 242.249 334.185 241.436 335.833 240.771L335.515 239.981C333.794 240.672 332.262 241.528 330.963 242.516L331.477 243.194ZM355.672 240.082L355.897 239.261C354.233 238.808 352.524 238.471 350.822 238.259L350.716 239.104C352.377 239.309 354.044 239.639 355.672 240.082ZM340.662 239.373C342.279 239.066 343.963 238.89 345.676 238.848L345.655 237.997C343.898 238.041 342.166 238.222 340.505 238.538L340.662 239.373ZM347.95 238.515L348.752 238.228C348.169 236.612 347.411 235.038 346.501 233.549L345.774 233.996C346.654 235.43 347.388 236.95 347.95 238.515ZM342.736 229.995L343.36 229.415C343.111 229.149 342.859 228.887 342.595 228.627C341.645 227.683 340.593 226.79 339.475 225.977L338.97 226.664C340.054 227.459 341.071 228.32 341.995 229.238C342.251 229.483 342.497 229.735 342.736 229.995ZM334.666 224.054L335.045 223.291C333.504 222.527 331.883 221.882 330.232 221.379L329.984 222.194C331.594 222.684 333.169 223.311 334.666 224.054ZM325.048 220.922L325.26 220.097C323.592 219.671 321.935 219.224 320.332 218.768L320.1 219.586C321.709 220.046 323.373 220.496 325.048 220.922ZM315.185 218.121L315.441 217.306C313.797 216.788 312.167 216.25 310.598 215.7L310.315 216.505C311.893 217.06 313.531 217.602 315.185 218.121ZM305.502 214.736L305.809 213.942C304.213 213.322 302.624 212.674 301.089 212.013L300.751 212.794C302.3 213.461 303.896 214.115 305.502 214.736ZM296.083 210.67L296.451 209.904L291.85 207.671L291.479 208.438L296.083 210.67ZM286.878 206.202L287.249 205.435L282.648 203.2L282.277 203.966L286.878 206.202ZM277.676 201.73L278.048 200.964L273.447 198.728L273.075 199.495L277.676 201.73ZM268.474 197.263L268.846 196.495L264.245 194.26L263.873 195.027L268.474 197.263ZM259.272 192.792L259.644 192.025L255.043 189.789L254.672 190.556L259.272 192.792Z" fill="#9192FF"/>
<path d="M274.992 34.3536C274.992 34.5308 274.992 34.6978 274.972 34.8751H162.844C163.133 25.639 171.182 18.2331 181.049 18.2331C184.214 18.2331 187.181 18.9931 189.774 20.3223C189.637 13.1345 193.095 6.25011 199.462 2.5557C209.019 -2.97911 221.518 0.776655 227.371 10.9499C229.131 14.0173 230.099 17.3163 230.318 20.5915C234.98 18.4581 240.758 17.1903 247.026 17.1903C262.473 17.1903 274.992 24.8756 274.992 34.3536Z" fill="#EBEBFF"/>
<path d="M461.54 296.183H554L553.99 295.853C553.744 288.035 547.053 281.91 538.758 281.91C536.391 281.91 534.045 282.435 531.934 283.427C531.872 277.443 528.803 271.993 523.834 269.113C520.133 266.969 515.757 266.417 511.515 267.555C506.893 268.793 502.995 271.829 500.536 276.106C499.172 278.485 498.36 281.031 498.118 283.686C494.179 281.965 489.558 281.059 484.715 281.059C471.905 281.059 461.485 287.51 461.485 295.437C461.485 295.594 461.485 295.744 461.506 295.901L461.54 296.183ZM553.335 295.543H462.126C462.126 295.509 462.126 295.471 462.126 295.437C462.126 287.861 472.259 281.699 484.718 281.699C489.639 281.699 494.326 282.653 498.272 284.456L498.694 284.651L498.725 284.191C498.906 281.467 499.704 278.856 501.095 276.43C503.469 272.303 507.231 269.372 511.685 268.179C515.764 267.085 519.966 267.616 523.517 269.671C528.428 272.518 531.408 277.988 531.296 283.942L531.286 284.477L531.763 284.231C533.902 283.134 536.32 282.555 538.762 282.555C546.589 282.552 552.926 288.233 553.335 295.543Z" fill="#9192FF"/>
<mask id="mask1_3414_1241" style="mask-type:luminance" maskUnits="userSpaceOnUse" x="22" y="153" width="259" height="154">
<path d="M280.738 286.978C280.738 297.867 271.904 306.693 261.008 306.693H41.8563C30.9592 306.693 22.1262 297.867 22.1262 286.978V153.733H280.738V286.978Z" fill="white"/>
</mask>
<g mask="url(#mask1_3414_1241)">
<path d="M280.738 286.978C280.738 297.867 271.904 306.693 261.008 306.693H41.8563C30.9592 306.693 22.1262 297.867 22.1262 286.978V153.733H280.738V286.978Z" fill="white"/>
</g>
<mask id="mask2_3414_1241" style="mask-type:luminance" maskUnits="userSpaceOnUse" x="22" y="153" width="259" height="154">
<path d="M280.738 286.978C280.738 297.867 271.904 306.693 261.008 306.693H41.8563C30.9592 306.693 22.1262 297.867 22.1262 286.978V153.733H280.738V286.978Z" fill="white"/>
</mask>
<g mask="url(#mask2_3414_1241)">
<path d="M294.269 187.708C291.248 178.023 281.681 170.59 271.234 169.803C260.784 169.015 250.12 174.924 245.546 184.038C239.987 183.987 234.507 187.068 231.805 191.764C229.104 196.461 229.295 202.575 232.282 207.097C225.66 208.242 219.718 212.598 216.788 218.447C213.859 224.295 214.019 231.493 217.204 237.205C209.916 233.504 200.598 233.841 193.607 238.057C186.616 242.276 182.209 250.218 182.454 258.172C177.915 251.056 169.212 246.622 160.558 247.017C151.906 247.412 143.656 252.617 139.809 260.114C135.747 247.968 124.915 238.166 112.102 235.031C99.2847 231.898 84.9096 235.538 75.3184 244.345C60.8951 246.601 50.3809 262.251 54.1391 275.874C46.3456 282.318 42.366 292.792 43.9927 302.562C45.6227 312.33 52.8054 321.055 62.294 324.787L310.476 324.627L331.629 230.01L294.269 187.708Z" fill="#D1D1FF"/>
</g>
<mask id="mask3_3414_1241" style="mask-type:luminance" maskUnits="userSpaceOnUse" x="22" y="153" width="259" height="154">
<path d="M280.738 286.978C280.738 297.867 271.904 306.693 261.008 306.693H41.8563C30.9592 306.693 22.1262 297.867 22.1262 286.978V153.733H280.738V286.978Z" fill="white"/>
</mask>
<g mask="url(#mask3_3414_1241)">
<g opacity="0.8">
<path d="M298.208 219.135C295.278 209.446 286.032 202.005 275.937 201.209C265.841 200.411 255.542 206.313 251.131 215.423C245.76 215.369 240.468 218.443 237.861 223.14C235.256 227.836 235.443 233.95 238.336 238.473C231.937 239.615 226.2 243.964 223.374 249.811C220.546 255.66 220.706 262.855 223.79 268.57C216.747 264.862 207.743 265.192 200.99 269.405C194.237 273.617 189.987 281.558 190.23 289.509C185.841 282.39 177.427 277.95 169.067 278.338C160.708 278.726 152.744 283.923 149.031 291.418C145.098 279.271 134.625 269.457 122.241 266.314C109.857 263.172 95.9687 266.802 86.709 275.602C72.7767 277.844 62.6303 293.487 66.273 307.112C58.7491 313.55 54.9096 324.02 56.4914 333.791C58.0743 343.563 65.0217 352.291 74.1895 356.029L313.968 356.067L334.332 261.464L298.208 219.135Z" fill="white"/>
</g>
</g>
<mask id="mask4_3414_1241" style="mask-type:luminance" maskUnits="userSpaceOnUse" x="22" y="153" width="259" height="154">
<path d="M280.738 286.978C280.738 297.867 271.904 306.693 261.008 306.693H41.8563C30.9592 306.693 22.1262 297.867 22.1262 286.978V153.733H280.738V286.978Z" fill="white"/>
</mask>
<g mask="url(#mask4_3414_1241)">
<path opacity="0.7" d="M107.578 158.001C179.407 225.503 230.344 243.701 294.514 250.211L298.777 318.374L231.418 341.379C172.586 339.674 116.097 254.567 81.204 181.554L107.578 158.001Z" fill="#FFF2E0"/>
<path d="M97.4641 158.877C109.142 172.683 126.753 185.889 147.527 203.728L119.182 192.184C122.658 197.941 127.719 205.994 130.557 209.45C124.025 206.437 113.511 199.809 110.029 196.291C110.032 201.196 115.943 209.399 118.52 213.88C103.402 200.95 89.6504 185.167 85.2066 171.299L97.4641 158.877Z" fill="#9192FF"/>
<path opacity="0.4" d="M94.1493 159.575C101.056 168.726 111.397 177.546 123.617 189.427L107.075 181.586C109.149 185.386 112.164 190.705 113.842 192.996C110.026 190.958 103.87 186.514 101.813 184.179C101.865 187.386 105.374 192.815 106.916 195.773C98.0241 187.161 89.8938 176.695 87.1751 167.577L94.1493 159.575Z" fill="white"/>
</g>
<mask id="mask5_3414_1241" style="mask-type:luminance" maskUnits="userSpaceOnUse" x="22" y="153" width="259" height="154">
<path d="M280.738 286.978C280.738 297.867 271.904 306.693 261.008 306.693H41.8563C30.9592 306.693 22.1262 297.867 22.1262 286.978V153.733H280.738V286.978Z" fill="white"/>
</mask>
<g mask="url(#mask5_3414_1241)">
<path d="M201.409 206.471C201.317 208.604 201.412 212.206 203.543 213.44C207.105 215.503 209.908 210.499 211.214 207.984C212.773 204.981 212.374 201.256 208.847 199.918C204.188 198.148 201.58 202.487 201.409 206.471Z" fill="#D1D1FF"/>
</g>
<mask id="mask6_3414_1241" style="mask-type:luminance" maskUnits="userSpaceOnUse" x="22" y="153" width="259" height="154">
<path d="M280.738 286.978C280.738 297.867 271.904 306.693 261.008 306.693H41.8563C30.9592 306.693 22.1262 297.867 22.1262 286.978V153.733H280.738V286.978Z" fill="white"/>
</mask>
<g mask="url(#mask6_3414_1241)">
<path d="M32.5462 271.263C32.4542 273.396 32.5494 276.998 34.6809 278.232C38.2413 280.295 41.0455 275.29 42.3514 272.776C43.9096 269.773 43.5107 266.048 39.9846 264.708C35.3258 262.94 32.7163 267.279 32.5462 271.263Z" fill="#D1D1FF"/>
</g>
<mask id="mask7_3414_1241" style="mask-type:luminance" maskUnits="userSpaceOnUse" x="22" y="153" width="259" height="154">
<path d="M280.738 286.978C280.738 297.867 271.904 306.693 261.008 306.693H41.8563C30.9592 306.693 22.1262 297.867 22.1262 286.978V153.733H280.738V286.978Z" fill="white"/>
</mask>
<g mask="url(#mask7_3414_1241)">
<path d="M220.332 185.313C218.684 185.313 217.348 183.978 217.348 182.331C217.348 180.684 218.684 179.349 220.332 179.349C221.981 179.349 223.316 180.684 223.316 182.331C223.316 183.978 221.981 185.313 220.332 185.313Z" fill="#D1D1FF"/>
</g>
<mask id="mask8_3414_1241" style="mask-type:luminance" maskUnits="userSpaceOnUse" x="2" y="141" width="294" height="246">
<path d="M235.905 376.018C231.054 385.771 219.211 389.75 209.454 384.904L13.2183 287.446C3.46127 282.6 -0.515137 270.766 4.33609 261.013L63.7007 141.675L295.27 256.68L235.905 376.018Z" fill="white"/>
</mask>
<g mask="url(#mask8_3414_1241)">
<path d="M66.5353 240.201C64.2883 239.085 63.3729 236.361 64.4905 234.115C65.607 231.87 68.3332 230.955 70.5802 232.07C72.8272 233.186 73.7427 235.91 72.6251 238.156C71.5085 240.401 68.7824 241.317 66.5353 240.201Z" fill="#D1D1FF"/>
</g>
<path d="M41.8596 307.121H261.008C272.123 307.121 281.164 298.086 281.164 286.978V153.308H21.6996V286.978C21.7028 298.086 30.7443 307.121 41.8596 307.121ZM280.315 154.16V286.978C280.315 297.615 271.655 306.269 261.012 306.269H41.8596C31.2149 306.269 22.5552 297.615 22.5552 286.978V154.16H280.315Z" fill="#9192FF"/>
<path d="M41.8566 102.114H261.004C271.901 102.114 280.734 110.937 280.734 121.83V153.737H22.1223V121.83C22.1266 110.937 30.9595 102.114 41.8566 102.114Z" fill="white"/>
<path d="M21.6995 154.159H281.164V121.826C281.164 110.719 272.123 101.685 261.008 101.685H41.8564C30.7411 101.685 21.6995 110.719 21.6995 121.826V154.159ZM280.312 153.307H22.5519V121.826C22.5519 111.19 31.2117 102.537 41.8564 102.537H261.004C271.649 102.537 280.308 111.19 280.308 121.826V153.307H280.312Z" fill="#9192FF"/>
<path d="M244.09 130.079C242.9 124.228 246.684 118.521 252.54 117.334C258.394 116.147 264.104 119.927 265.294 125.778C266.482 131.629 262.698 137.336 256.842 138.523C250.988 139.711 245.278 135.93 244.09 130.079Z" fill="#D1D1FF"/>
<path d="M215.177 135.569C210.951 131.347 210.951 124.503 215.177 120.281C219.401 116.059 226.251 116.059 230.476 120.28C234.701 124.503 234.701 131.347 230.476 135.569C226.251 139.791 219.401 139.791 215.177 135.569Z" fill="white"/>
<path d="M222.826 139.16C229.027 139.16 234.07 134.119 234.07 127.924C234.07 121.728 229.027 116.688 222.826 116.688C216.626 116.688 211.581 121.728 211.581 127.924C211.581 134.119 216.626 139.16 222.826 139.16ZM222.826 117.539C228.556 117.539 233.218 122.198 233.218 127.924C233.218 133.649 228.556 138.309 222.826 138.309C217.096 138.309 212.434 133.649 212.434 127.924C212.434 122.198 217.096 117.539 222.826 117.539Z" fill="#9192FF"/>
<path d="M140.48 138.241H183.548C189.25 138.241 193.871 133.623 193.871 127.925C193.871 122.225 189.25 117.607 183.548 117.607H140.48C134.777 117.607 130.156 122.225 130.156 127.925C130.156 133.623 134.777 138.241 140.48 138.241Z" fill="white"/>
<path d="M140.483 138.666H183.551C189.478 138.666 194.301 133.847 194.301 127.924C194.301 122.001 189.478 117.182 183.551 117.182H140.483C134.554 117.182 129.732 122.001 129.732 127.924C129.732 133.847 134.554 138.666 140.483 138.666ZM183.554 118.034C189.011 118.034 193.452 122.471 193.452 127.924C193.452 133.376 189.011 137.814 183.554 137.814H140.486C135.029 137.814 130.589 133.376 130.589 127.924C130.589 122.471 135.029 118.034 140.486 118.034H183.554Z" fill="#9192FF"/>
<path d="M52.584 78.5947C69.8543 93.703 99.643 83.2878 108.898 95.3525L82.4498 116.281L52.584 78.5947Z" fill="#3335CF"/>
<path d="M108.897 95.3555C110.221 98.8761 109.504 102.836 107.028 105.668L88.2873 127.119L82.4478 116.285L108.897 95.3555Z" fill="#D1D1FF"/>
<path d="M13.4379 109.57C24.1949 129.833 7.22412 156.419 16.856 168.187L43.3047 147.258L13.4379 109.57Z" fill="#3335CF"/>
<path d="M16.8561 168.188C19.9801 170.281 24.0046 170.491 27.3297 168.734L52.5195 155.421L43.3047 147.259L16.8561 168.188Z" fill="#D1D1FF"/>
<path d="M0.00044632 52.6279L23.5508 61.2675L3.01859 77.5141L0.00044632 52.6279Z" fill="#1B1B43"/>
<path d="M3.01886 77.5146C6.30971 114.748 33.8396 149.495 67.2807 168.791L97.7539 144.702C84.9681 104.504 61.1546 75.7355 23.5543 61.2646L3.01886 77.5146Z" fill="#C5C5FF"/>
<path d="M97.7498 144.702L110.969 153.85L73.1631 183.766L67.2797 168.791L97.7498 144.702Z" fill="#3335CF"/>
<path d="M30.7197 107.517C22.9626 106.594 17.4227 99.5634 18.3456 91.8124C19.2675 84.0613 26.3037 78.5252 34.0608 79.447C41.8168 80.3689 47.3568 87.3997 46.4349 95.1508C45.5119 102.902 38.4768 108.438 30.7197 107.517Z" fill="white"/>
<path d="M31.3187 103.515L31.4074 102.666C30.5957 102.581 29.801 102.387 29.0364 102.09L28.7294 102.884C29.5615 103.212 30.4353 103.423 31.3187 103.515ZM33.9817 103.447C34.8651 103.307 35.725 103.051 36.5335 102.683L36.1817 101.906C35.4384 102.24 34.6544 102.475 33.8491 102.605L33.9817 103.447ZM26.4 101.606L26.9049 100.921C26.2535 100.437 25.6642 99.8682 25.1551 99.2275L24.4867 99.7557C25.0428 100.454 25.6845 101.078 26.4 101.606ZM38.7944 101.279C39.4864 100.71 40.0971 100.056 40.6126 99.3331L39.9164 98.8389C39.4458 99.5001 38.8864 100.1 38.2522 100.621L38.7944 101.279ZM23.4472 98.1504L24.2044 97.7586C23.829 97.0361 23.5488 96.2658 23.3755 95.4682L22.5434 95.6489C22.7306 96.5214 23.0343 97.3598 23.4472 98.1504ZM41.85 96.9781C42.157 96.1431 42.3516 95.2706 42.4297 94.3811L41.5805 94.3061C41.5088 95.1206 41.3313 95.9216 41.0489 96.685L41.85 96.9781ZM23.1744 93.0383C23.2151 92.2203 23.3648 91.416 23.6172 90.6424L22.8055 90.3799C22.5295 91.2251 22.3691 92.1045 22.321 92.994L23.1744 93.0383ZM41.4746 91.8727L42.3142 91.7228C42.157 90.8434 41.8842 89.9914 41.5024 89.187L40.7313 89.5518C41.08 90.2879 41.3313 91.0684 41.4746 91.8727ZM24.6675 88.4476C25.1145 87.7693 25.6503 87.1491 26.2642 86.6037L25.6974 85.9664C25.029 86.5594 24.4429 87.2376 23.9552 87.9806L24.6675 88.4476ZM39.4051 87.5102L40.0532 86.9582C39.4736 86.28 38.8084 85.6801 38.0715 85.1791L37.5902 85.8846C38.2619 86.3379 38.8725 86.8866 39.4051 87.5102ZM28.2834 85.2404C29.0128 84.8758 29.7904 84.6133 30.5882 84.4566L30.4246 83.6216C29.5519 83.7954 28.7027 84.0851 27.9048 84.4804L28.2834 85.2404ZM35.4149 84.7872L35.694 83.9829C34.8555 83.6931 33.9753 83.5125 33.0855 83.4512L33.0234 84.3033C33.8384 84.3578 34.6438 84.5214 35.4149 84.7872Z" fill="#9192FF"/>
<path d="M102.079 182.134L102.754 181.599C103.743 180.815 103.91 179.367 103.13 178.378L76.6092 144.911C75.8242 143.922 74.375 143.755 73.3857 144.535L72.7108 145.071C71.7216 145.855 71.5547 147.303 72.3355 148.292L98.8558 181.759C99.6397 182.751 101.09 182.918 102.079 182.134Z" fill="#1B1B43"/>
<path d="M55.1011 473.897H60.2175V473.045H55.1011V473.897ZM65.333 473.897H70.4494V473.045H65.333V473.897ZM75.5648 473.897H80.6803V473.045H75.5648V473.897ZM85.7967 473.897H90.9121V473.045H85.7967V473.897ZM96.0286 473.897H101.144V473.045H96.0286V473.897ZM106.259 473.897H111.376V473.045H106.259V473.897ZM116.491 473.897H121.607V473.045H116.491V473.897ZM126.723 473.897H131.839V473.045H126.723V473.897ZM136.955 473.897H142.071V473.045H136.955V473.897ZM147.186 473.897H152.302V473.045H147.186V473.897ZM157.421 473.897C159.188 473.88 160.92 473.587 162.575 473.018L162.299 472.213C160.73 472.749 159.086 473.031 157.411 473.045L157.421 473.897ZM54.484 473.887L54.515 473.035C52.8433 472.973 51.2102 472.646 49.6552 472.063L49.3547 472.861C50.9985 473.475 52.7214 473.822 54.484 473.887ZM167.186 470.554C168.584 469.488 169.795 468.212 170.784 466.764L170.079 466.283C169.141 467.657 167.991 468.866 166.668 469.879L167.186 470.554ZM44.8189 470.267L45.3537 469.606C44.0585 468.556 42.943 467.316 42.0457 465.915L41.3302 466.375C42.2778 467.852 43.4542 469.16 44.8189 470.267ZM173.005 462.03C173.417 460.582 173.625 459.079 173.625 457.555V456.857H172.773V457.555C172.773 458.997 172.575 460.425 172.185 461.795L173.005 462.03ZM39.249 461.584L40.0746 461.372C39.7612 460.132 39.6008 458.847 39.6008 457.555V456.406H38.7474V457.555C38.7474 458.918 38.9153 460.272 39.249 461.584ZM172.773 451.748H173.625V446.636H172.773V451.748ZM38.7474 451.294H39.6008V446.182H38.7474V451.294ZM172.773 441.524H173.625V436.412H172.773V441.524ZM38.7474 441.07H39.6008V435.958H38.7474V441.07ZM172.773 431.3H173.625V426.186H172.773V431.3ZM38.7474 430.846H39.6008V425.733H38.7474V430.846ZM172.773 421.074H173.625V415.962H172.773V421.074ZM38.7474 420.621H39.6008V415.509H38.7474V420.621ZM172.773 410.85H173.625V405.738H172.773V410.85ZM38.7474 410.397H39.6008V405.285H38.7474V410.397ZM172.773 400.626H173.625V397.222C173.625 396.642 173.594 396.052 173.533 395.472L172.684 395.561C172.742 396.11 172.773 396.669 172.773 397.217V400.626ZM38.7474 400.173H39.6008V397.217C39.6008 396.519 39.6479 395.813 39.7399 395.122L38.895 395.009C38.7955 395.735 38.7474 396.478 38.7474 397.217V400.173ZM171.374 390.784L172.151 390.429C171.422 388.833 170.443 387.372 169.242 386.083L168.619 386.663C169.758 387.886 170.685 389.273 171.374 390.784ZM41.1869 390.388C41.9195 388.899 42.8885 387.538 44.0585 386.349L43.451 385.753C42.2168 387.007 41.1965 388.442 40.4222 390.013L41.1869 390.388ZM164.71 383.626L165.119 382.88C163.577 382.034 161.916 381.448 160.188 381.138L160.037 381.976C161.674 382.269 163.247 382.825 164.71 383.626ZM48.052 383.419C49.5354 382.662 51.1214 382.151 52.7685 381.901L52.6423 381.06C50.9033 381.322 49.2284 381.861 47.6627 382.658L48.052 383.419ZM57.8133 381.728H62.9287V380.876H57.8133V381.728ZM68.0441 381.728H73.1606V380.876H68.0441V381.728ZM78.276 381.728H83.3925V380.876H78.276V381.728ZM88.5079 381.728H93.6233V380.876H88.5079V381.728ZM98.7398 381.728H103.855V380.876H98.7398V381.728ZM108.972 381.728H114.087V380.876H108.972V381.728ZM119.202 381.728H124.319V380.876H119.202V381.728ZM129.434 381.728H134.551V380.876H129.434V381.728ZM139.666 381.728H144.782V380.876H139.666V381.728ZM149.898 381.728H155.014V380.876H149.898V381.728Z" fill="#9192FF"/>
<path d="M64.431 459.13H173.279C180.233 459.13 185.867 453.496 185.867 446.55V377.004C185.867 370.055 180.23 364.425 173.279 364.425H64.431C57.4771 364.425 51.843 370.059 51.843 377.004V446.55C51.843 453.496 57.4771 459.13 64.431 459.13Z" fill="#0E2B5C"/>
<path d="M148.05 419.742H162.562V449.192H148.05V419.742Z" fill="white"/>
<path d="M123.75 420.689H138.262V449.196H123.75V420.689Z" fill="white"/>
<path d="M99.4489 405.799H113.961V449.195H99.4489V405.799Z" fill="white"/>
<path d="M75.1442 393.066H89.6562V449.191H75.1442V393.066Z" fill="white"/>
<path d="M79.9221 377.76H157.789V381.161H79.9221V377.76Z" fill="white"/>
<path d="M394.875 271.969C397.341 263.422 402.566 255.927 409.731 250.648L412.609 248.528L410.168 299.05L391.273 284.443L394.875 271.969Z" fill="#FC5546"/>
<path d="M334.158 333.031L338.355 324.818C339.42 322.739 341.306 321.199 343.56 320.574L355.91 317.157L387.683 296.885L391.274 284.441L410.168 299.049L409.998 302.597C409.654 309.716 405.285 316.015 398.736 318.84L367.884 332.138L353.218 332.466C348.495 334.095 346.864 338.165 343.932 336.699C342.841 336.153 347.11 329.126 347.11 329.126L340.023 336.94L334.158 333.031Z" fill="#FFBC96"/>
<path d="M388.039 296.58L392.191 301.467L391.445 302.1L387.292 297.213L388.039 296.58Z" fill="#D28572"/>
<path d="M389.418 353.498L366.301 351.46C351.254 350.131 338.164 362.274 337.431 378.241L332.206 492.008L364.094 492.999L389.418 353.498Z" fill="#0E2B5C"/>
<path d="M361.527 491.868L360.549 523.291H313.298L336.599 503.916L338.066 488.773L361.527 491.868Z" fill="#1B1B43"/>
<path d="M337.193 503.16L347.133 510.812L345.94 512.359L335.999 504.707L337.193 503.16Z" fill="white"/>
<path d="M372.281 491.868L371.306 523.291H324.052L347.353 503.916L348.82 488.773L372.281 491.868Z" fill="#D1D1FF"/>
<path d="M347.947 503.159L357.887 510.812L356.694 512.359L346.754 504.706L347.947 503.159Z" fill="white"/>
<path d="M337.088 494.959H376.193L404.064 409.262L407.966 397.265L463.691 397.019C467.132 396.972 470.427 395.377 473.224 393.026C479.148 388.032 481.876 380.187 480.802 372.519L475.915 337.671L393.126 348.426C377.425 350.468 364.747 362.212 361.522 377.696L337.088 494.959Z" fill="#0E2B5C"/>
<path d="M396.481 397.266L404.066 409.266L407.969 397.266H396.481Z" fill="#1B1B43"/>
<path d="M406.714 331.362C407.116 332.973 407.536 334.586 407.965 336.208L410.899 348.174L449.516 346.572L477.319 345.421C484.689 345.117 490.027 338.28 488.523 331.058L475.559 268.72C473.898 258.121 465.283 249.961 454.598 248.858L422.873 245.596L412.608 248.528C402.586 253.902 402.577 263.639 402.099 270.018C399.998 297.942 402.586 314.853 406.714 331.362Z" fill="#FC5546"/>
<path opacity="0.3" d="M432.896 329.368C433.299 330.98 407.535 334.586 407.965 336.208L410.898 348.174L449.516 346.572C463.008 336.403 468.062 314.273 472.98 286.548L432.896 329.368Z" fill="#1B1B43"/>
<path d="M440.571 263.629C438.879 265.442 436.952 267.021 434.8 268.199C432.655 269.378 430.322 270.241 427.904 270.527C425.512 270.841 422.985 270.636 420.888 269.498C418.742 268.431 417.376 266.178 417.119 263.738L416.737 263.761C416.751 265.037 417.072 266.332 417.709 267.48C418.351 268.629 419.33 269.579 420.469 270.238C422.767 271.567 425.492 271.805 428.03 271.485C430.581 271.131 433.036 270.241 435.216 268.912C437.408 267.606 439.326 265.868 440.867 263.871L440.571 263.629Z" fill="#1B1B43"/>
<path d="M401.249 301.715L401.979 301.664C401.277 291.834 401.989 279.756 404.094 265.758L403.366 265.649C401.256 279.698 400.543 291.831 401.249 301.715Z" fill="#1B1B43"/>
<path d="M335.621 336.372H371.957V343.536H335.621V336.372Z" fill="#1B1B43"/>
<path d="M272.727 343.536H345.723L312.156 279.381H239.16L272.727 343.536Z" fill="#002D79"/>
<path d="M432.529 194.307C441.083 185.882 457.215 189.423 456.969 203.587C474.568 208.23 475.543 227.523 468.456 237.413L462.344 237.9L461.001 230.696L457.457 238.023L440.349 239.12L432.529 194.307Z" fill="#1B1B43"/>
<path d="M418.233 225.812V252.727C418.233 252.972 418.244 253.204 418.264 253.439C418.684 258.977 424.051 262.896 429.536 261.479C437.622 259.389 443.243 252.079 443.175 243.736L443.038 225.809H418.233V225.812Z" fill="#FFBC96"/>
<path d="M418.233 237.447V252.727C418.233 252.971 418.244 253.204 418.264 253.439C425.471 252.256 433.799 243.924 435.832 234.847L418.233 237.447Z" fill="#1B1B43"/>
<path d="M403.657 227.806C404.028 229.947 404.526 232.135 405.192 234.213C407.343 241.044 411.204 246.708 418.118 245.723C434.365 243.399 443.41 226.672 443.41 226.672L432.295 213.972L424.836 203.949L402.476 213.601C402.473 213.601 402.357 220.432 403.657 227.806Z" fill="#FFBC96"/>
<path d="M438.601 222.394C431.47 222.166 425.955 218.535 423.612 208.23C423.612 208.23 406.992 222.558 398.845 214.906C392.023 208.498 403.595 193.756 422.752 191.997C429.731 191.356 436.688 193.534 442.155 197.913C451.439 205.346 452.329 222.639 443.649 228.624L438.601 222.394Z" fill="#1B1B43"/>
<path d="M446.949 204.321C447.416 202.637 447.068 200.773 446.314 199.167C445.55 197.551 444.373 196.141 442.968 195.05C441.563 193.957 439.912 193.176 438.18 192.811C436.45 192.456 434.616 192.511 433.019 193.206C434.671 193.738 436.096 194.301 437.44 194.993C438.78 195.677 440.015 196.471 441.174 197.364C442.33 198.26 443.404 199.256 444.37 200.384C445.342 201.519 446.195 202.763 446.949 204.321Z" fill="#9192FF"/>
<path d="M438.245 229.776C435.395 228.635 434.202 224.92 435.58 221.477C436.96 218.035 440.388 216.168 443.239 217.308C446.089 218.449 447.282 222.164 445.903 225.607C444.524 229.049 441.096 230.915 438.245 229.776Z" fill="#FFBC96"/>
<path d="M440.74 227.223C440.617 226.034 440.61 224.906 440.955 223.873C441.293 222.833 441.951 221.927 442.711 220.996L442.472 220.699C441.368 221.276 440.43 222.305 440.031 223.577C439.628 224.848 439.802 226.232 440.375 227.335L440.74 227.223Z" fill="#1B1B43"/>
<path d="M414.034 223.621C414.034 224.631 414.774 225.449 415.686 225.449C416.596 225.449 417.336 224.631 417.336 223.621C417.336 222.613 416.596 221.795 415.686 221.795C414.774 221.795 414.034 222.613 414.034 223.621Z" fill="#1B1B43"/>
<path d="M405.364 225.059C405.473 225.949 406.216 226.592 407.021 226.494C407.826 226.395 408.393 225.59 408.283 224.701C408.174 223.811 407.431 223.167 406.626 223.266C405.817 223.365 405.255 224.169 405.364 225.059Z" fill="#1B1B43"/>
<path d="M414.114 219.037C414.049 219.889 415.414 219.971 417.425 220.033C419.438 220.094 420.83 220.714 420.844 220.176C420.861 219.637 419.37 218.25 417.385 217.915C415.342 217.568 414.192 218.021 414.114 219.037Z" fill="#1B1B43"/>
<path d="M407.689 219.858C407.835 220.7 406.832 220.915 405.346 221.178C403.859 221.437 402.897 222.194 402.822 221.661C402.747 221.127 403.691 219.603 405.127 219.072C406.608 218.523 407.511 218.86 407.689 219.858Z" fill="#1B1B43"/>
<path d="M410.082 226.576C409.699 227.042 409.276 227.444 408.84 227.86L408.181 228.474C407.953 228.682 407.707 228.907 407.486 229.251C407.377 229.425 407.291 229.65 407.278 229.903C407.257 230.158 407.34 230.403 407.441 230.594C407.667 230.972 407.936 231.194 408.229 231.388C408.812 231.773 409.446 231.93 410.057 232.05L410.2 231.695C409.675 231.354 409.15 231.051 408.744 230.699C408.55 230.526 408.359 230.314 408.29 230.154C408.216 229.99 408.236 229.936 408.328 229.745C408.547 229.39 409.099 228.914 409.46 228.42C409.856 227.929 410.211 227.37 410.422 226.757L410.082 226.576Z" fill="#1B1B43"/>
<path d="M418.355 232.591C417.355 233.73 416.316 234.783 415.063 235.454C413.823 236.143 412.404 236.336 410.906 236.173L410.804 236.542C411.528 236.861 412.343 237.036 413.167 236.988C413.993 236.953 414.808 236.705 415.524 236.31C416.967 235.509 418.031 234.214 418.672 232.799L418.355 232.591Z" fill="#1B1B43"/>
<path opacity="0.2" d="M424.22 231.554C421.991 231.554 420.185 229.75 420.185 227.523C420.185 225.296 421.991 223.491 424.22 223.491C426.448 223.491 428.254 225.296 428.254 227.523C428.254 229.75 426.448 231.554 424.22 231.554Z" fill="#FE5B52"/>
<path opacity="0.2" d="M403.655 227.806C404.026 229.946 404.525 232.134 405.19 234.214C405.813 233.5 406.195 232.57 406.195 231.545C406.195 229.847 405.142 228.402 403.655 227.806Z" fill="#FE5B52"/>
<path d="M449.68 275.475L472.98 286.545L465.675 303.858L441.241 292.597L449.68 275.475Z" fill="#FC5546"/>
<path d="M363.372 335.51C364.017 335.186 364.422 334.972 364.422 334.972L364.19 334.512C364.19 334.512 363.76 334.719 363.136 335.054L363.372 335.51Z" fill="#C5C5FF"/>
<path d="M353.706 337.916C354.46 339.402 360.228 336.774 362.916 335.455C360.831 336.607 357.243 338.874 358.84 340.114C360.122 341.102 362.956 339 372.243 335.152C370.834 335.817 362.537 339.763 364.627 341.259C366.906 342.881 376.68 339.307 376.68 339.307L385.156 343.859H394.93L430.107 344.084C432.317 344.095 434.506 343.811 436.628 343.263C440.802 342.2 444.731 340.128 448.067 337.344C450.168 335.585 451.979 333.523 453.493 331.256C454.625 329.556 455.594 327.729 456.395 325.823L465.672 303.862L441.243 292.598L428.493 318.458L386.455 327.582L374.723 324.652C372.199 324.017 368.631 325.08 366.411 326.44C360.998 329.75 353.005 336.501 353.706 337.916Z" fill="#FFBC96"/>
<path opacity="0.2" d="M435.997 339.627C435.997 340.909 436.221 342.129 436.631 343.26C440.805 342.198 444.734 340.125 448.07 337.341C450.171 335.582 451.982 333.521 453.496 331.254C451.648 329.768 449.301 328.878 446.75 328.878C440.809 328.882 435.997 333.687 435.997 339.627Z" fill="#FE5B52"/>
<path d="M386.52 327.398C383.604 326.431 380.65 325.596 377.635 324.965C376.127 324.655 374.603 324.402 373.048 324.31C372.271 324.266 371.482 324.284 370.688 324.372C370.295 324.45 369.904 324.552 369.511 324.645C369.139 324.778 368.774 324.927 368.407 325.067C365.545 326.362 363.055 328.216 360.644 330.122C358.236 332.04 355.961 334.102 353.751 336.249L353.649 336.348L353.628 336.474C353.55 336.938 353.605 337.364 353.86 337.797C354.017 337.977 354.181 338.178 354.392 338.263C354.597 338.393 354.801 338.444 355.002 338.475C355.814 338.607 356.52 338.44 357.199 338.26C358.56 337.885 359.77 337.265 360.995 336.669C362.193 336.027 363.372 335.363 364.515 334.648C365.678 333.959 366.783 333.188 367.916 332.456L367.397 331.631C365.398 332.817 363.45 334.061 361.592 335.472C360.668 336.187 359.753 336.921 358.969 337.878C358.782 338.134 358.591 338.389 358.461 338.737C358.39 338.9 358.349 339.109 358.345 339.333C358.362 339.568 358.437 339.818 358.597 340.001C358.904 340.355 359.276 340.478 359.59 340.553C359.917 340.639 360.221 340.656 360.531 340.687L360.627 340.696L360.733 340.653L371.347 336.208L371.029 335.461C369.357 336.232 367.731 337.06 366.179 338.079C365.422 338.621 364.627 339.109 364.068 340.042C363.941 340.277 363.849 340.639 363.98 340.977C364.112 341.304 364.371 341.511 364.61 341.624C365.102 341.873 365.596 341.924 366.07 341.951C367.973 341.996 369.76 341.549 371.531 341.112C373.297 340.645 375.036 340.097 376.752 339.473L376.622 339.115C374.907 339.688 373.16 340.196 371.404 340.615C369.651 341.007 367.847 341.396 366.104 341.307C365.272 341.273 364.279 340.908 364.686 340.36C365.068 339.718 365.855 339.173 366.578 338.693C368.079 337.735 369.712 336.931 371.35 336.205L371.032 335.458L360.381 339.807L360.582 339.773C360.32 339.743 360.051 339.729 359.818 339.66C359.58 339.609 359.385 339.504 359.32 339.422C359.17 339.364 359.371 338.839 359.706 338.444C360.381 337.622 361.275 336.896 362.171 336.212C363.983 334.849 365.926 333.615 367.891 332.466L367.372 331.641C366.247 332.361 365.16 333.138 364.013 333.819C362.885 334.531 361.732 335.189 360.562 335.82C359.382 336.402 358.189 337.013 356.953 337.357C356.347 337.53 355.702 337.653 355.186 337.565L354.999 337.53C354.942 337.513 354.907 337.479 354.856 337.459C354.744 337.425 354.709 337.336 354.631 337.281C354.535 337.135 354.494 336.862 354.525 336.665L354.403 336.89C356.565 334.76 358.843 332.715 361.19 330.782C363.542 328.867 365.998 327.01 368.706 325.742L369.74 325.332C370.091 325.248 370.443 325.149 370.797 325.071C371.523 324.979 372.271 324.955 373.02 324.985C374.525 325.047 376.032 325.254 377.529 325.53C380.524 326.086 383.488 326.853 386.404 327.749L386.52 327.398Z" fill="#D28572"/>
<path d="M465.525 304.193L465.832 303.528L441.723 292.414L451.767 268.932L451.092 268.646L440.771 292.782L465.525 304.193Z" fill="#1B1B43"/>
<path d="M462.077 407.036H463.355V517.105H462.077V407.036Z" fill="#1B1B43"/>
<path d="M431.92 411.92H493.512C497.696 411.92 501.09 408.529 501.09 404.347C501.09 400.165 497.696 396.774 493.512 396.774H431.92C427.735 396.774 424.342 400.165 424.342 404.347C424.342 408.532 427.735 411.92 431.92 411.92Z" fill="#D1D1FF"/>
<path d="M436.805 524.269H488.621V523.018C488.621 516.73 483.519 511.635 477.23 511.635H448.199C441.907 511.635 436.808 516.734 436.808 523.018V524.269H436.805Z" fill="#D1D1FF"/>
<path d="M388.18 350.268L389.262 350.949L280.088 523.876L279.006 523.195L388.18 350.268Z" fill="#1B1B43"/>
<path d="M280.094 350.284L389.309 523.171L388.227 523.853L279.012 350.966L280.094 350.284Z" fill="#1B1B43"/>
<path d="M238.509 343.536H429.801V357.953H238.509V343.536Z" fill="#D1D1FF"/>
<path d="M413.764 113.698C435.806 113.698 453.738 95.7781 453.738 73.7514C453.738 51.7246 435.806 33.8047 413.764 33.8047C391.721 33.8047 373.788 51.7246 373.788 73.7514C373.788 95.7781 391.721 113.698 413.764 113.698ZM413.764 34.6567C435.335 34.6567 452.886 52.195 452.886 73.7514C452.886 95.3078 435.335 112.847 413.764 112.847C392.192 112.847 374.64 95.3078 374.64 73.7514C374.64 52.195 392.192 34.6567 413.764 34.6567Z" fill="#9192FF"/>
<path d="M386.731 101.563C362.71 101.563 343.237 82.1031 343.237 58.0987C343.237 34.0942 362.71 14.6348 386.731 14.6348C410.753 14.6348 430.227 34.0942 430.227 58.0987C430.227 82.1031 410.753 101.563 386.731 101.563Z" fill="#EBEBFF"/>
<path d="M386.716 58.9231L410.832 40.0318L410.041 39.0264L386.747 57.2735L373.76 46.2823L372.934 47.2604L386.716 58.9231Z" fill="#1B1B43"/>
<path d="M499.606 151.832H521.693C525.247 151.832 528.129 154.713 528.129 158.264V180.335C528.129 183.886 525.247 186.765 521.693 186.765H505.93L499.139 196.138V186.742C495.804 186.503 493.171 183.729 493.171 180.335V158.264C493.171 154.713 496.053 151.832 499.606 151.832Z" fill="white"/>
<path d="M498.712 197.453L506.147 187.192H521.693C525.475 187.192 528.555 184.113 528.555 180.335V158.263C528.555 154.484 525.475 151.406 521.693 151.406H499.606C495.824 151.406 492.744 154.484 492.744 158.263V180.335C492.744 183.777 495.336 186.684 498.712 187.127V197.453ZM521.693 152.258C525.008 152.258 527.702 154.951 527.702 158.263V180.335C527.702 183.647 525.008 186.34 521.693 186.34H505.711L499.565 194.822V186.343L499.169 186.316C496.045 186.09 493.597 183.463 493.597 180.335V158.263C493.597 154.951 496.291 152.258 499.606 152.258H521.693Z" fill="#9192FF"/>
<path d="M511.101 180.658L519.941 167.898L517.84 166.443L511.333 175.832L501.535 158.312L499.301 159.558L511.101 180.658Z" fill="#9192FF"/>
<path d="M12.7856 522.992H536.797V524.27H12.7856V522.992Z" fill="#1B1B43"/>
</g>
<path d="M157.519 0H123.853C115.65 0 109 6.66798 109 14.8933V48.6516C109 56.877 115.65 63.5449 123.853 63.5449H157.519C165.722 63.5449 172.372 56.877 172.372 48.6516V14.8933C172.372 6.66798 165.722 0 157.519 0Z" fill="#0073AA"/>
<path d="M119.453 31.771C119.453 40.1994 124.338 47.4833 131.421 50.935L121.292 23.1053C120.077 25.832 119.451 28.7849 119.453 31.771ZM155.024 30.6965C155.024 28.0651 154.082 26.2426 153.273 24.824C152.197 23.0701 151.188 21.5847 151.188 19.8308C151.188 17.8733 152.668 16.0514 154.754 16.0514C154.848 16.0514 154.937 16.063 155.029 16.0682C151.251 12.5976 146.217 10.4785 140.689 10.4785C133.27 10.4785 126.743 14.2952 122.946 20.0763C123.444 20.0912 123.914 20.1019 124.313 20.1019C126.534 20.1019 129.972 19.8313 129.972 19.8313C131.117 19.7638 131.252 21.4497 130.108 21.5855C130.108 21.5855 128.958 21.7213 127.678 21.7885L135.411 44.8529L140.058 30.8772L136.749 21.7878C135.606 21.7205 134.523 21.5847 134.523 21.5847C133.378 21.5175 133.512 19.763 134.657 19.8308C134.657 19.8308 138.164 20.1009 140.25 20.1009C142.471 20.1009 145.91 19.8308 145.91 19.8308C147.055 19.763 147.19 21.449 146.046 21.5847C146.046 21.5847 144.893 21.7205 143.615 21.7878L151.29 44.6774L153.408 37.5802C154.326 34.6348 155.024 32.5194 155.024 30.6965Z" fill="white"/>
<path d="M141.063 33.6332L134.691 52.1977C136.639 52.7731 138.66 53.0652 140.69 53.0653C143.092 53.0662 145.476 52.658 147.742 51.8582C147.683 51.7651 147.632 51.6669 147.591 51.5648L141.063 33.6332ZM159.323 21.5547C159.42 22.2804 159.468 23.0118 159.467 23.744C159.467 25.9048 159.064 28.3339 157.852 31.3711L151.365 50.1762C157.678 46.4847 161.925 39.6265 161.925 31.771C161.925 28.0688 160.982 24.5875 159.323 21.5547Z" fill="white"/>
<path d="M140.688 6.9502C127.039 6.9502 115.934 18.0847 115.934 31.771C115.934 45.4589 127.039 56.5929 140.688 56.5929C154.336 56.5929 165.443 45.4589 165.443 31.771C165.443 18.0847 154.336 6.9502 140.688 6.9502ZM140.688 55.4553C127.664 55.4553 117.069 44.8304 117.069 31.771C117.069 18.7122 127.664 8.08829 140.688 8.08829C153.711 8.08829 164.306 18.7122 164.306 31.771C164.306 44.8304 153.711 55.4553 140.688 55.4553Z" fill="white"/>
</g>
<defs>
<clipPath id="clip0_3414_1241">
<rect width="554" height="525" fill="white" transform="matrix(-1 0 0 1 554 0)"/>
</clipPath>
</defs>
</svg>
