<svg width="38" height="32" viewBox="0 0 38 32" fill="none" xmlns="http://www.w3.org/2000/svg">
<path d="M20.5284 32H16.9058C16.7456 32 16.5921 31.9364 16.4788 31.8231C16.3656 31.7099 16.302 31.5563 16.302 31.3962V29.5849H17.5095V30.7924H19.9246V29.5849H21.1322V31.3962C21.1322 31.5563 21.0686 31.7099 20.9553 31.8231C20.8421 31.9364 20.6885 32 20.5284 32ZM21.1322 27.1698H19.9246V24.7547C19.9246 24.4344 19.7974 24.1273 19.571 23.9008C19.3445 23.6744 19.0374 23.5471 18.7171 23.5471C18.3968 23.5471 18.0897 23.6744 17.8632 23.9008C17.6368 24.1273 17.5095 24.4344 17.5095 24.7547V27.1698H16.302V24.7547C16.302 24.1142 16.5564 23.4999 17.0094 23.047C17.4623 22.594 18.0766 22.3396 18.7171 22.3396C19.3576 22.3396 19.9719 22.594 20.4248 23.047C20.8777 23.4999 21.1322 24.1142 21.1322 24.7547V27.1698Z" fill="white"/>
<path d="M21.1322 24.7547H19.9246V21.7359H17.5095V24.151H16.302V21.1321C16.302 20.972 16.3656 20.8184 16.4788 20.7052C16.5921 20.5919 16.7456 20.5283 16.9058 20.5283H20.5284C20.6885 20.5283 20.8421 20.5919 20.9553 20.7052C21.0686 20.8184 21.1322 20.972 21.1322 21.1321V24.7547Z" fill="white"/>
<path d="M20.5284 21.7359H16.9058C16.7456 21.7359 16.5921 21.6722 16.4788 21.559C16.3656 21.4458 16.302 21.2922 16.302 21.1321V18.1132C16.302 17.4727 16.5564 16.8584 17.0094 16.4055C17.4623 15.9526 18.0766 15.6981 18.7171 15.6981C19.3576 15.6981 19.9719 15.9526 20.4248 16.4055C20.8777 16.8584 21.1322 17.4727 21.1322 18.1132V21.1321C21.1322 21.2922 21.0686 21.4458 20.9553 21.559C20.8421 21.6722 20.6885 21.7359 20.5284 21.7359ZM17.5095 20.5283H19.9246V18.1132C19.9246 17.793 19.7974 17.4858 19.571 17.2593C19.3445 17.0329 19.0374 16.9057 18.7171 16.9057C18.3968 16.9057 18.0897 17.0329 17.8632 17.2593C17.6368 17.4858 17.5095 17.793 17.5095 18.1132V20.5283Z" fill="white"/>
<path d="M16.9058 21.7358H15.0945C14.9344 21.7358 14.7808 21.6722 14.6676 21.559C14.5543 21.4458 14.4907 21.2922 14.4907 21.1321V18.4151C14.4907 18.0147 14.6498 17.6308 14.9328 17.3477C15.2159 17.0647 15.5998 16.9056 16.0002 16.9056C16.4005 16.9056 16.7844 17.0647 17.0675 17.3477C17.3506 17.6308 17.5096 18.0147 17.5096 18.4151V21.1321C17.5096 21.2922 17.446 21.4458 17.3327 21.559C17.2195 21.6722 17.0659 21.7358 16.9058 21.7358ZM15.6983 20.5283H16.302V18.4151C16.302 18.335 16.2702 18.2582 16.2136 18.2016C16.157 18.145 16.0802 18.1132 16.0002 18.1132C15.9201 18.1132 15.8433 18.145 15.7867 18.2016C15.7301 18.2582 15.6983 18.335 15.6983 18.4151V20.5283ZM22.3398 21.7358H20.5285C20.3683 21.7358 20.2148 21.6722 20.1015 21.559C19.9883 21.4458 19.9247 21.2922 19.9247 21.1321V18.4151C19.9247 18.0147 20.0837 17.6308 20.3668 17.3477C20.6499 17.0647 21.0338 16.9056 21.4341 16.9056C21.8344 16.9056 22.2184 17.0647 22.5015 17.3477C22.7845 17.6308 22.9436 18.0147 22.9436 18.4151V21.1321C22.9436 21.2922 22.8799 21.4458 22.7667 21.559C22.6535 21.6722 22.4999 21.7358 22.3398 21.7358ZM21.1322 20.5283H21.736V18.4151C21.736 18.335 21.7042 18.2582 21.6476 18.2016C21.591 18.145 21.5142 18.1132 21.4341 18.1132C21.3541 18.1132 21.2773 18.145 21.2207 18.2016C21.164 18.2582 21.1322 18.335 21.1322 18.4151V20.5283Z" fill="white"/>
<path d="M21.736 11.4717H22.9436V18.1132H21.736V11.4717ZM14.4907 11.4717H15.6983V18.1132H14.4907V11.4717Z" fill="white"/>
<path d="M22.9436 18.717H21.736V16.9057C21.7355 16.4228 21.6193 15.9471 21.3972 15.5184C21.1751 15.0897 20.8534 14.7204 20.4592 14.4416C20.065 14.1628 19.6098 13.9824 19.1315 13.9157C18.6533 13.849 18.1661 13.8979 17.7106 14.0583L17.3085 12.9207C17.946 12.6961 18.6281 12.6275 19.2975 12.7208C19.9669 12.814 20.6043 13.0663 21.1561 13.4566C21.708 13.8468 22.1583 14.3636 22.4693 14.9638C22.7803 15.5639 22.9429 16.2298 22.9436 16.9057V18.717ZM15.6983 18.717H14.4907V16.9057C14.4901 16.2082 14.6624 15.5215 14.992 14.9069C15.3217 14.2924 15.7986 13.7691 16.3799 13.3838L17.0483 14.3891C16.6331 14.6646 16.2925 15.0385 16.0569 15.4777C15.8213 15.9168 15.6981 16.4073 15.6983 16.9057V18.717ZM21.736 12.0755H20.5285V10.8679H21.1322V9.66037H16.302V10.8679H19.3209V12.0755H15.6983C15.5381 12.0755 15.3846 12.0119 15.2713 11.8986C15.1581 11.7854 15.0945 11.6318 15.0945 11.4717V9.05659C15.0945 8.89646 15.1581 8.74289 15.2713 8.62966C15.3846 8.51643 15.5381 8.45282 15.6983 8.45282H21.736C21.8961 8.45282 22.0497 8.51643 22.1629 8.62966C22.2762 8.74289 22.3398 8.89646 22.3398 9.05659V11.4717C22.3398 11.6318 22.2762 11.7854 22.1629 11.8986C22.0497 12.0119 21.8961 12.0755 21.736 12.0755Z" fill="white"/>
<path d="M13.8867 8.45282H23.5471V9.66037H13.8867V8.45282Z" fill="white"/>
<path d="M20.5284 9.66036H16.9058C16.7456 9.66036 16.5921 9.59674 16.4788 9.48351C16.3656 9.37028 16.302 9.21671 16.302 9.05658V6.03771C16.302 5.39719 16.5564 4.7829 17.0094 4.32998C17.4623 3.87707 18.0766 3.62262 18.7171 3.62262C19.3576 3.62262 19.9719 3.87707 20.4248 4.32998C20.8777 4.7829 21.1322 5.39719 21.1322 6.03771V9.05658C21.1322 9.21671 21.0686 9.37028 20.9553 9.48351C20.8421 9.59674 20.6885 9.66036 20.5284 9.66036ZM17.5095 8.45281H19.9246V6.03771C19.9246 5.71745 19.7974 5.41031 19.571 5.18385C19.3445 4.95739 19.0374 4.83017 18.7171 4.83017C18.3968 4.83017 18.0897 4.95739 17.8632 5.18385C17.6368 5.41031 17.5095 5.71745 17.5095 6.03771V8.45281Z" fill="white"/>
<path d="M13.2832 5.43396H16.9058V6.64151H13.2832V5.43396Z" fill="white"/>
<path d="M14.4907 6.03773H15.6983V9.0566H14.4907V6.03773ZM20.5285 5.43396H24.1511V6.64151H20.5285V5.43396Z" fill="white"/>
<path d="M21.7359 6.03771H22.9435V9.05658H21.7359V6.03771ZM20.5284 4.83016H19.3209V3.01884C19.3209 2.85871 19.2572 2.70514 19.144 2.59191C19.0308 2.47868 18.8772 2.41507 18.7171 2.41507C18.557 2.41507 18.4034 2.47868 18.2901 2.59191C18.1769 2.70514 18.1133 2.85871 18.1133 3.01884V4.83016H16.9058V3.01884C16.9058 2.53845 17.0966 2.07773 17.4363 1.73804C17.776 1.39835 18.2367 1.20752 18.7171 1.20752C19.1975 1.20752 19.6582 1.39835 19.9979 1.73804C20.3376 2.07773 20.5284 2.53845 20.5284 3.01884V4.83016Z" fill="white"/>
<path d="M17.5094 6.03774H16.3018V4.22641C16.3018 4.06628 16.2382 3.91271 16.125 3.79948C16.0117 3.68625 15.8582 3.62264 15.698 3.62264C15.5379 3.62264 15.3843 3.68625 15.2711 3.79948C15.1579 3.91271 15.0943 4.06628 15.0943 4.22641V6.03774H13.8867V4.22641C13.8867 3.74602 14.0776 3.28531 14.4172 2.94562C14.7569 2.60593 15.2176 2.41509 15.698 2.41509C16.1784 2.41509 16.6391 2.60593 16.9788 2.94562C17.3185 3.28531 17.5094 3.74602 17.5094 4.22641V6.03774ZM23.5471 6.03774H22.3395V4.22641C22.3395 4.06628 22.2759 3.91271 22.1627 3.79948C22.0495 3.68625 21.8959 3.62264 21.7358 3.62264C21.5756 3.62264 21.4221 3.68625 21.3088 3.79948C21.1956 3.91271 21.132 4.06628 21.132 4.22641V6.03774H19.9245V4.22641C19.9245 3.74602 20.1153 3.28531 20.455 2.94562C20.7947 2.60593 21.2554 2.41509 21.7358 2.41509C22.2162 2.41509 22.6769 2.60593 23.0166 2.94562C23.3563 3.28531 23.5471 3.74602 23.5471 4.22641V6.03774ZM18.1131 0H19.3207V1.81132H18.1131V0Z" fill="white"/>
<path d="M21.132 1.81128H22.3395V3.01883H21.132V1.81128ZM15.0942 1.81128H16.3018V3.01883H15.0942V1.81128ZM18.1131 6.03769H19.3207V9.05656H18.1131V6.03769ZM24.1508 32H20.5282C20.3681 32 20.2145 31.9363 20.1013 31.8231C19.988 31.7099 19.9244 31.5563 19.9244 31.3962V29.5849H21.132V30.7924H23.5471V25.9622C23.5471 25.642 23.4198 25.3348 23.1934 25.1084C22.9669 24.8819 22.6598 24.7547 22.3395 24.7547C22.0193 24.7547 21.7121 24.8819 21.4857 25.1084C21.2592 25.3348 21.132 25.642 21.132 25.9622V28.3773H19.9244V25.9622C19.9244 25.3217 20.1789 24.7074 20.6318 24.2545C21.0847 23.8016 21.699 23.5471 22.3395 23.5471C22.98 23.5471 23.5943 23.8016 24.0473 24.2545C24.5002 24.7074 24.7546 25.3217 24.7546 25.9622V31.3962C24.7546 31.5563 24.691 31.7099 24.5778 31.8231C24.4645 31.9363 24.311 32 24.1508 32Z" fill="white"/>
<path d="M28.9813 32H24.1511C23.991 32 23.8374 31.9364 23.7242 31.8231C23.611 31.7099 23.5474 31.5563 23.5474 31.3962V21.7358C23.5474 21.5757 23.611 21.4221 23.7242 21.3089C23.8374 21.1957 23.991 21.132 24.1511 21.132H28.9813C29.1415 21.132 29.295 21.1957 29.4083 21.3089C29.5215 21.4221 29.5851 21.5757 29.5851 21.7358V31.3962C29.5851 31.5563 29.5215 31.7099 29.4083 31.8231C29.295 31.9364 29.1415 32 28.9813 32ZM24.7549 30.7924H28.3776V22.3396H24.7549V30.7924ZM36.8304 9.66035H35.6228V8.4528C35.6228 8.20646 35.1525 7.84903 34.4153 7.84903C33.6781 7.84903 33.2077 8.20646 33.2077 8.4528V9.66035H32.0002V8.4528C32.0002 7.43725 33.061 6.64148 34.4153 6.64148C35.7696 6.64148 36.8304 7.43725 36.8304 8.4528V9.66035ZM27.7738 19.9245H25.3587C25.1986 19.9245 25.045 19.8609 24.9318 19.7477C24.8185 19.6344 24.7549 19.4809 24.7549 19.3207V16.9056C24.7549 16.7455 24.8185 16.5919 24.9318 16.4787C25.045 16.3655 25.1986 16.3019 25.3587 16.3019H27.7738C27.9339 16.3019 28.0875 16.3655 28.2007 16.4787C28.3139 16.5919 28.3776 16.7455 28.3776 16.9056V19.3207C28.3776 19.4809 28.3139 19.6344 28.2007 19.7477C28.0875 19.8609 27.9339 19.9245 27.7738 19.9245ZM25.9625 18.717H27.17V17.5094H25.9625V18.717Z" fill="white"/>
<path d="M27.7738 17.5094H25.3587C25.1985 17.5094 25.045 17.4458 24.9317 17.3325C24.8185 17.2193 24.7549 17.0657 24.7549 16.9056V15.6981C24.7549 15.2177 24.9457 14.7569 25.2854 14.4173C25.6251 14.0776 26.0858 13.8867 26.5662 13.8867C27.0466 13.8867 27.5073 14.0776 27.847 14.4173C28.1867 14.7569 28.3775 15.2177 28.3775 15.6981V16.9056C28.3775 17.0657 28.3139 17.2193 28.2007 17.3325C28.0875 17.4458 27.9339 17.5094 27.7738 17.5094ZM25.9624 16.3018H27.17V15.6981C27.17 15.5379 27.1064 15.3844 26.9931 15.2711C26.8799 15.1579 26.7263 15.0943 26.5662 15.0943C26.4061 15.0943 26.2525 15.1579 26.1393 15.2711C26.026 15.3844 25.9624 15.5379 25.9624 15.6981V16.3018ZM32.0002 18.1131H29.5851C29.4249 18.1131 29.2714 18.0495 29.1581 17.9363C29.0449 17.8231 28.9813 17.6695 28.9813 17.5094V15.0943C28.9813 14.6139 29.1721 14.1532 29.5118 13.8135C29.8515 13.4738 30.3122 13.283 30.7926 13.283C31.273 13.283 31.7337 13.4738 32.0734 13.8135C32.4131 14.1532 32.6039 14.6139 32.6039 15.0943V17.5094C32.6039 17.6695 32.5403 17.8231 32.4271 17.9363C32.3139 18.0495 32.1603 18.1131 32.0002 18.1131ZM30.1888 16.9056H31.3964V15.0943C31.3964 14.9341 31.3328 14.7806 31.2196 14.6673C31.1063 14.5541 30.9527 14.4905 30.7926 14.4905C30.6325 14.4905 30.4789 14.5541 30.3657 14.6673C30.2525 14.7806 30.1888 14.9341 30.1888 15.0943V16.9056Z" fill="white"/>
<path d="M32.0001 19.9245H29.585C29.4248 19.9245 29.2713 19.8609 29.158 19.7477C29.0448 19.6344 28.9812 19.4809 28.9812 19.3207V17.5094H30.1887V18.7169H31.3963V17.5094H32.6038V19.3207C32.6038 19.4809 32.5402 19.6344 32.427 19.7477C32.3138 19.8609 32.1602 19.9245 32.0001 19.9245Z" fill="white"/>
<path d="M33.8113 32H32.6038C32.4436 32 32.2901 31.9364 32.1768 31.8231C32.0636 31.7099 32 31.5563 32 31.3962V18.1132C32 17.953 32.0636 17.7995 32.1768 17.6862C32.2901 17.573 32.4436 17.5094 32.6038 17.5094H36.2264C36.3865 17.5094 36.5401 17.573 36.6533 17.6862C36.7666 17.7995 36.8302 17.953 36.8302 18.1132V23.5471H35.6226V18.7169H33.2075V30.7924H33.8113V32Z" fill="white"/>
<path d="M36.2264 32H35.0189V30.7924H35.6227V24.7547H36.8302V31.3962C36.8302 31.5563 36.7666 31.7099 36.6534 31.8231C36.5401 31.9364 36.3866 32 36.2264 32ZM31.3962 17.5094H37.434V18.7169H31.3962V17.5094Z" fill="white"/>
<path d="M36.2264 18.717H32.6038C32.4436 18.717 32.2901 18.6534 32.1768 18.5401C32.0636 18.4269 32 18.2733 32 18.1132V12.0755C32 11.9153 32.0636 11.7617 32.1768 11.6485C32.2901 11.5353 32.4436 11.4717 32.6038 11.4717H36.2264C36.3865 11.4717 36.5401 11.5353 36.6533 11.6485C36.7666 11.7617 36.8302 11.9153 36.8302 12.0755V13.8868H35.6226V12.6792H33.2075V17.5094H35.6226V15.0943H36.8302V18.1132C36.8302 18.2733 36.7666 18.4269 36.6533 18.5401C36.5401 18.6534 36.3865 18.717 36.2264 18.717Z" fill="white"/>
<path d="M31.3962 11.4717H37.434V12.6792H31.3962V11.4717Z" fill="white"/>
<path d="M36.2264 12.6792H32.6037C32.4436 12.6792 32.29 12.6156 32.1768 12.5024C32.0635 12.3892 31.9999 12.2356 31.9999 12.0755V9.66037C31.9999 9.50024 32.0635 9.34666 32.1768 9.23343C32.29 9.1202 32.4436 9.05659 32.6037 9.05659H36.2264C36.3865 9.05659 36.5401 9.1202 36.6533 9.23343C36.7665 9.34666 36.8301 9.50024 36.8301 9.66037V12.0755C36.8301 12.2356 36.7665 12.3892 36.6533 12.5024C36.5401 12.6156 36.3865 12.6792 36.2264 12.6792ZM33.2075 11.4717H35.6226V10.2641H33.2075V11.4717ZM36.8301 22.9434H35.6226C35.6226 21.9616 35.0695 21.1321 34.415 21.1321C33.7605 21.1321 33.2075 21.9616 33.2075 22.9434H31.9999C31.9999 21.2788 33.0831 19.9245 34.415 19.9245C35.747 19.9245 36.8301 21.2788 36.8301 22.9434ZM28.3773 13.283H24.7547C24.5945 13.283 24.4409 13.2194 24.3277 13.1062C24.2145 12.9929 24.1509 12.8394 24.1509 12.6792V9.05659C24.1509 8.89646 24.2145 8.74289 24.3277 8.62966C24.4409 8.51643 24.5945 8.45282 24.7547 8.45282H28.3773C28.5374 8.45282 28.691 8.51643 28.8042 8.62966C28.9175 8.74289 28.9811 8.89646 28.9811 9.05659V12.6792C28.9811 12.8394 28.9175 12.9929 28.8042 13.1062C28.691 13.2194 28.5374 13.283 28.3773 13.283ZM25.3584 12.0755H27.7735V9.66037H25.3584V12.0755Z" fill="white"/>
<path d="M27.7738 9.66036H25.3587C25.1985 9.66036 25.045 9.59675 24.9317 9.48352C24.8185 9.37029 24.7549 9.21672 24.7549 9.05659V6.64149C24.7549 6.48136 24.8185 6.32779 24.9317 6.21456C25.045 6.10133 25.1985 6.03772 25.3587 6.03772H27.7738C27.9339 6.03772 28.0875 6.10133 28.2007 6.21456C28.3139 6.32779 28.3775 6.48136 28.3775 6.64149V9.05659C28.3775 9.21672 28.3139 9.37029 28.2007 9.48352C28.0875 9.59675 27.9339 9.66036 27.7738 9.66036ZM25.9624 8.45281H27.17V7.24527H25.9624V8.45281Z" fill="white"/>
<path d="M27.7738 7.24525H25.3587C25.1985 7.24525 25.045 7.18164 24.9317 7.06841C24.8185 6.95518 24.7549 6.8016 24.7549 6.64147V6.0377C24.7549 5.55731 24.9457 5.09659 25.2854 4.7569C25.6251 4.41721 26.0858 4.22638 26.5662 4.22638C27.0466 4.22638 27.5073 4.41721 27.847 4.7569C28.1867 5.09659 28.3775 5.55731 28.3775 6.0377V6.64147C28.3775 6.8016 28.3139 6.95518 28.2007 7.06841C28.0875 7.18164 27.9339 7.24525 27.7738 7.24525ZM25.9624 6.0377H27.17C27.17 5.87757 27.1064 5.724 26.9931 5.61077C26.8799 5.49754 26.7263 5.43393 26.5662 5.43393C26.4061 5.43393 26.2525 5.49754 26.1393 5.61077C26.026 5.724 25.9624 5.87757 25.9624 6.0377Z" fill="white"/>
<path d="M25.9623 3.62262H27.1698V4.83017H25.9623V3.62262ZM21.7358 10.2641H32.6038V11.4717H21.7358V10.2641ZM29.5849 25.3585H28.3773C28.3773 24.704 27.5478 24.1509 26.566 24.1509C25.5843 24.1509 24.7547 24.704 24.7547 25.3585H23.5472C23.5472 24.0265 24.9014 22.9434 26.566 22.9434C28.2306 22.9434 29.5849 24.0265 29.5849 25.3585Z" fill="white"/>
<path d="M32.6037 31.9999H28.9811C28.821 31.9999 28.6674 31.9363 28.5542 31.8231C28.4409 31.7099 28.3773 31.5563 28.3773 31.3962V27.1698C28.3773 26.5292 28.6318 25.9149 29.0847 25.462C29.5376 25.0091 30.1519 24.7547 30.7924 24.7547C31.4329 24.7547 32.0472 25.0091 32.5001 25.462C32.9531 25.9149 33.2075 26.5292 33.2075 27.1698V31.3962C33.2075 31.5563 33.1439 31.7099 33.0307 31.8231C32.9174 31.9363 32.7639 31.9999 32.6037 31.9999ZM29.5849 30.7924H32V27.1698C32 26.8495 31.8727 26.5424 31.6463 26.3159C31.4198 26.0894 31.1127 25.9622 30.7924 25.9622C30.4721 25.9622 30.165 26.0894 29.9385 26.3159C29.7121 26.5424 29.5849 26.8495 29.5849 27.1698V30.7924ZM16.9056 31.9999H13.283C13.1228 31.9999 12.9693 31.9363 12.856 31.8231C12.7428 31.7099 12.6792 31.5563 12.6792 31.3962V25.9622C12.6792 25.3217 12.9336 24.7074 13.3866 24.2545C13.8395 23.8016 14.4538 23.5471 15.0943 23.5471C15.7348 23.5471 16.3491 23.8016 16.802 24.2545C17.2549 24.7074 17.5094 25.3217 17.5094 25.9622V28.3773H16.3018V25.9622C16.3018 25.642 16.1746 25.3348 15.9482 25.1083C15.7217 24.8819 15.4146 24.7547 15.0943 24.7547C14.774 24.7547 14.4669 24.8819 14.2404 25.1083C14.014 25.3348 13.8867 25.642 13.8867 25.9622V30.7924H16.3018V29.5849H17.5094V31.3962C17.5094 31.5563 17.4458 31.7099 17.3325 31.8231C17.2193 31.9363 17.0657 31.9999 16.9056 31.9999Z" fill="white"/>
<path d="M13.283 32H8.45282C8.29269 32 8.13911 31.9364 8.02588 31.8231C7.91265 31.7099 7.84904 31.5563 7.84904 31.3962V21.7358C7.84904 21.5757 7.91265 21.4221 8.02588 21.3089C8.13911 21.1957 8.29269 21.132 8.45282 21.132H13.283C13.4431 21.132 13.5967 21.1957 13.7099 21.3089C13.8232 21.4221 13.8868 21.5757 13.8868 21.7358V31.3962C13.8868 31.5563 13.8232 31.7099 13.7099 31.8231C13.5967 31.9364 13.4431 32 13.283 32ZM9.05659 30.7924H12.6792V22.3396H9.05659V30.7924ZM5.43395 9.66035H4.2264V8.4528C4.2264 8.20646 3.75606 7.84903 3.01885 7.84903C2.28165 7.84903 1.81131 8.20646 1.81131 8.4528V9.66035H0.60376V8.4528C0.60376 7.43725 1.66459 6.64148 3.01885 6.64148C4.37312 6.64148 5.43395 7.43725 5.43395 8.4528V9.66035ZM12.0755 19.9245H9.66036C9.50023 19.9245 9.34666 19.8609 9.23343 19.7477C9.1202 19.6344 9.05659 19.4809 9.05659 19.3207V16.9056C9.05659 16.7455 9.1202 16.5919 9.23343 16.4787C9.34666 16.3655 9.50023 16.3019 9.66036 16.3019H12.0755C12.2356 16.3019 12.3892 16.3655 12.5024 16.4787C12.6156 16.5919 12.6792 16.7455 12.6792 16.9056V19.3207C12.6792 19.4809 12.6156 19.6344 12.5024 19.7477C12.3892 19.8609 12.2356 19.9245 12.0755 19.9245ZM10.2641 18.717H11.4717V17.5094H10.2641V18.717Z" fill="white"/>
<path d="M12.0756 17.5094H9.66051C9.50038 17.5094 9.34681 17.4458 9.23358 17.3325C9.12035 17.2193 9.05674 17.0657 9.05674 16.9056V15.6981C9.05674 15.2177 9.24757 14.7569 9.58726 14.4173C9.92695 14.0776 10.3877 13.8867 10.8681 13.8867C11.3485 13.8867 11.8092 14.0776 12.1489 14.4173C12.4885 14.7569 12.6794 15.2177 12.6794 15.6981V16.9056C12.6794 17.0657 12.6158 17.2193 12.5025 17.3325C12.3893 17.4458 12.2357 17.5094 12.0756 17.5094ZM10.2643 16.3018H11.4718V15.6981C11.4718 15.5379 11.4082 15.3844 11.295 15.2711C11.1818 15.1579 11.0282 15.0943 10.8681 15.0943C10.7079 15.0943 10.5544 15.1579 10.4411 15.2711C10.3279 15.3844 10.2643 15.5379 10.2643 15.6981V16.3018ZM7.84919 18.1131H5.4341C5.27397 18.1131 5.12039 18.0495 5.00716 17.9363C4.89393 17.8231 4.83032 17.6695 4.83032 17.5094V15.0943C4.83032 14.6139 5.02116 14.1532 5.36085 13.8135C5.70053 13.4738 6.16125 13.283 6.64164 13.283C7.12204 13.283 7.58275 13.4738 7.92244 13.8135C8.26213 14.1532 8.45296 14.6139 8.45296 15.0943V17.5094C8.45296 17.6695 8.38935 17.8231 8.27612 17.9363C8.16289 18.0495 8.00932 18.1131 7.84919 18.1131ZM6.03787 16.9056H7.24542V15.0943C7.24542 14.9341 7.1818 14.7806 7.06858 14.6673C6.95535 14.5541 6.80177 14.4905 6.64164 14.4905C6.48151 14.4905 6.32794 14.5541 6.21471 14.6673C6.10148 14.7806 6.03787 14.9341 6.03787 15.0943V16.9056Z" fill="white"/>
<path d="M7.84919 19.9245H5.4341C5.27397 19.9245 5.12039 19.8609 5.00716 19.7477C4.89393 19.6344 4.83032 19.4809 4.83032 19.3207V17.5094H6.03787V18.7169H7.24542V17.5094H8.45296V19.3207C8.45296 19.4809 8.38935 19.6344 8.27612 19.7477C8.16289 19.8609 8.00932 19.9245 7.84919 19.9245Z" fill="white"/>
<path d="M4.83017 32H3.62263V30.7924H4.2264V18.7169H1.81131V23.5471H0.60376V18.1132C0.60376 17.953 0.667371 17.7995 0.780601 17.6862C0.89383 17.573 1.0474 17.5094 1.20753 17.5094H4.83017C4.99031 17.5094 5.14388 17.573 5.25711 17.6862C5.37034 17.7995 5.43395 17.953 5.43395 18.1132V31.3962C5.43395 31.5563 5.37034 31.7099 5.25711 31.8231C5.14388 31.9364 4.99031 32 4.83017 32Z" fill="white"/>
<path d="M2.41509 32H1.20755C1.04742 32 0.893844 31.9364 0.780615 31.8231C0.667385 31.7099 0.603774 31.5563 0.603774 31.3962V24.7547H1.81132V30.7924H2.41509V32ZM0 17.5094H6.03774V18.7169H0V17.5094Z" fill="white"/>
<path d="M4.83017 18.717H1.20753C1.0474 18.717 0.89383 18.6534 0.780601 18.5401C0.667371 18.4269 0.60376 18.2733 0.60376 18.1132V15.0943H1.81131V17.5094H4.2264V12.6792H1.81131V13.8868H0.60376V12.0755C0.60376 11.9153 0.667371 11.7617 0.780601 11.6485C0.89383 11.5353 1.0474 11.4717 1.20753 11.4717H4.83017C4.99031 11.4717 5.14388 11.5353 5.25711 11.6485C5.37034 11.7617 5.43395 11.9153 5.43395 12.0755V18.1132C5.43395 18.2733 5.37034 18.4269 5.25711 18.5401C5.14388 18.6534 4.99031 18.717 4.83017 18.717Z" fill="white"/>
<path d="M0 11.4717H6.03774V12.6792H0V11.4717Z" fill="white"/>
<path d="M4.83017 12.6792H1.20753C1.0474 12.6792 0.89383 12.6156 0.780601 12.5024C0.667371 12.3892 0.60376 12.2356 0.60376 12.0755V9.66037C0.60376 9.50024 0.667371 9.34666 0.780601 9.23343C0.89383 9.1202 1.0474 9.05659 1.20753 9.05659H4.83017C4.99031 9.05659 5.14388 9.1202 5.25711 9.23343C5.37034 9.34666 5.43395 9.50024 5.43395 9.66037V12.0755C5.43395 12.2356 5.37034 12.3892 5.25711 12.5024C5.14388 12.6156 4.99031 12.6792 4.83017 12.6792ZM1.81131 11.4717H4.2264V10.2641H1.81131V11.4717ZM5.43395 22.9434H4.2264C4.2264 21.9616 3.67334 21.1321 3.01885 21.1321C2.36436 21.1321 1.81131 21.9616 1.81131 22.9434H0.60376C0.60376 21.2788 1.68693 19.9245 3.01885 19.9245C4.35078 19.9245 5.43395 21.2788 5.43395 22.9434ZM12.6792 13.283H9.05659C8.89646 13.283 8.74289 13.2194 8.62966 13.1062C8.51643 12.9929 8.45282 12.8394 8.45282 12.6792V9.05659C8.45282 8.89646 8.51643 8.74289 8.62966 8.62966C8.74289 8.51643 8.89646 8.45282 9.05659 8.45282H12.6792C12.8394 8.45282 12.9929 8.51643 13.1062 8.62966C13.2194 8.74289 13.283 8.89646 13.283 9.05659V12.6792C13.283 12.8394 13.2194 12.9929 13.1062 13.1062C12.9929 13.2194 12.8394 13.283 12.6792 13.283ZM9.66036 12.0755H12.0755V9.66037H9.66036V12.0755Z" fill="white"/>
<path d="M12.0755 9.66036H9.66041C9.50028 9.66036 9.34671 9.59675 9.23348 9.48352C9.12025 9.37029 9.05664 9.21672 9.05664 9.05659V6.64149C9.05664 6.48136 9.12025 6.32779 9.23348 6.21456C9.34671 6.10133 9.50028 6.03772 9.66041 6.03772H12.0755C12.2356 6.03772 12.3892 6.10133 12.5024 6.21456C12.6157 6.32779 12.6793 6.48136 12.6793 6.64149V9.05659C12.6793 9.21672 12.6157 9.37029 12.5024 9.48352C12.3892 9.59675 12.2356 9.66036 12.0755 9.66036ZM10.2642 8.45281H11.4717V7.24527H10.2642V8.45281Z" fill="white"/>
<path d="M12.0755 7.24525H9.66041C9.50028 7.24525 9.34671 7.18164 9.23348 7.06841C9.12025 6.95518 9.05664 6.8016 9.05664 6.64147V6.0377C9.05664 5.55731 9.24748 5.09659 9.58716 4.7569C9.92685 4.41721 10.3876 4.22638 10.868 4.22638C11.3484 4.22638 11.8091 4.41721 12.1488 4.7569C12.4884 5.09659 12.6793 5.55731 12.6793 6.0377V6.64147C12.6793 6.8016 12.6157 6.95518 12.5024 7.06841C12.3892 7.18164 12.2356 7.24525 12.0755 7.24525ZM10.2642 6.0377H11.4717C11.4717 5.87757 11.4081 5.724 11.2949 5.61077C11.1817 5.49754 11.0281 5.43393 10.868 5.43393C10.7078 5.43393 10.5543 5.49754 10.441 5.61077C10.3278 5.724 10.2642 5.87757 10.2642 6.0377Z" fill="white"/>
<path d="M10.2643 3.62262H11.4718V4.83017H10.2643V3.62262ZM4.83032 10.2641H15.6982V11.4717H4.83032V10.2641ZM13.8869 25.3585H12.6794C12.6794 24.704 11.8498 24.1509 10.8681 24.1509C9.88632 24.1509 9.05674 24.704 9.05674 25.3585H7.84919C7.84919 24.0265 9.20345 22.9434 10.8681 22.9434C12.5327 22.9434 13.8869 24.0265 13.8869 25.3585Z" fill="white"/>
<path d="M8.45283 32H4.83019C4.67006 32 4.51649 31.9364 4.40326 31.8231C4.29003 31.7099 4.22642 31.5563 4.22642 31.3962V27.1698C4.22642 26.5293 4.48086 25.915 4.93378 25.4621C5.3867 25.0092 6.00099 24.7547 6.64151 24.7547C7.28203 24.7547 7.89632 25.0092 8.34924 25.4621C8.80216 25.915 9.0566 26.5293 9.0566 27.1698V31.3962C9.0566 31.5563 8.99299 31.7099 8.87976 31.8231C8.76653 31.9364 8.61296 32 8.45283 32ZM5.43396 30.7924H7.84906V27.1698C7.84906 26.8495 7.72183 26.5424 7.49537 26.3159C7.26892 26.0895 6.96177 25.9623 6.64151 25.9623C6.32125 25.9623 6.0141 26.0895 5.78764 26.3159C5.56119 26.5424 5.43396 26.8495 5.43396 27.1698V30.7924ZM33.8113 13.8868H35.0189V16.3019H33.8113V13.8868ZM2.41509 13.8868H3.62264V16.3019H2.41509V13.8868ZM0 30.7924H1.20755V32H0V30.7924ZM36.2264 30.7924H37.434V32H36.2264V30.7924Z" fill="white"/>
</svg>
